<svg width="15" height="29" viewBox="0 0 15 29" fill="none" xmlns="http://www.w3.org/2000/svg">
<path d="M9.75 29C7.98214 29 6.21429 29 4.44643 29C4.44643 28.8749 4.42857 28.7498 4.42857 28.6247C4.42857 24.4602 4.42857 20.2958 4.42857 16.1313C4.42857 16.0062 4.42857 15.8989 4.42857 15.756C2.92857 15.756 1.46429 15.756 0 15.756C0 14.0223 0 12.3243 0 10.5906C1.48214 10.5906 2.94643 10.5906 4.42857 10.5906C4.42857 10.4476 4.42857 10.3404 4.42857 10.251C4.42857 9.16075 4.41071 8.07049 4.42857 6.99809C4.44643 6.30104 4.48214 5.60398 4.625 4.9248C5.14286 2.2617 7.07143 0.474376 9.75 0.099039C11.0536 -0.079693 12.3393 0.0275462 13.6429 0.0811658C14.0893 0.099039 14.5536 0.170532 15 0.224151C15 1.76125 15 3.28047 15 4.81756C13.8571 4.83544 12.7143 4.81756 11.5893 4.87118C10.6607 4.90693 10.0893 5.40738 9.85714 6.26529C9.80357 6.47977 9.76786 6.71212 9.76786 6.9266C9.75 8.08836 9.75 9.25012 9.75 10.4119C9.75 10.4655 9.76786 10.537 9.78571 10.6264C11.4643 10.6264 13.1429 10.6264 14.8393 10.6264C14.625 12.3601 14.3929 14.058 14.1786 15.7738C12.6964 15.7738 11.2321 15.7738 9.76786 15.7738C9.76786 15.9168 9.76786 16.0062 9.76786 16.1134C9.76786 20.2958 9.76786 24.496 9.76786 28.6783C9.73214 28.7855 9.75 28.8928 9.75 29Z" fill="white"/>
</svg>
