<svg width="132" height="57" viewBox="0 0 132 57" fill="none" xmlns="http://www.w3.org/2000/svg">
<path d="M30.748 40.2041V49.4761H27.7197V26.6001H35.7174C37.7362 26.6001 39.4444 27.2841 40.8421 28.5761C42.3174 29.8681 43.0162 31.5401 43.0162 33.4401C43.0162 35.4161 42.3174 37.0121 40.8421 38.3041C39.4444 39.5961 37.7362 40.2801 35.7174 40.2801H30.748V40.2041ZM30.748 29.4121V37.3921H35.795C36.9597 37.3921 37.9691 37.0121 38.7456 36.1761C39.5221 35.4161 39.988 34.4281 39.988 33.3641C39.988 32.3001 39.5997 31.3881 38.7456 30.5521C37.9691 29.7161 36.9597 29.3361 35.795 29.3361H30.748V29.4121Z" fill="white"/>
<path d="M51.0918 33.2881C53.3435 33.2881 55.0517 33.8961 56.3717 35.0361C57.6917 36.1761 58.3129 37.7721 58.3129 39.8241V49.4761H55.44V47.2721H55.2847C54.0423 49.0961 52.4118 49.9321 50.3153 49.9321C48.5294 49.9321 47.0541 49.4001 45.8894 48.4121C44.7247 47.4241 44.1035 46.1321 44.1035 44.6121C44.1035 43.0161 44.7247 41.7241 45.967 40.7361C47.2094 39.7481 48.9176 39.2921 51.0141 39.2921C52.8 39.2921 54.2753 39.5961 55.44 40.2801V39.5961C55.44 38.6081 55.0518 37.6961 54.1976 37.0121C53.3435 36.3281 52.4117 35.9481 51.3247 35.9481C49.6165 35.9481 48.2965 36.6321 47.3647 38.0001L44.7247 36.4041C46.1223 34.3521 48.2188 33.2881 51.0918 33.2881ZM47.2094 44.6881C47.2094 45.4481 47.52 46.1321 48.2188 46.5881C48.9176 47.1201 49.6941 47.3481 50.5482 47.3481C51.7906 47.3481 52.9553 46.8921 53.9647 45.9801C54.9741 45.0681 55.44 44.0041 55.44 42.7881C54.5082 42.0281 53.1882 41.7241 51.5576 41.7241C50.3153 41.7241 49.3059 42.0281 48.5294 42.5601C47.5976 43.0921 47.2094 43.8521 47.2094 44.6881Z" fill="white"/>
<path d="M61.6514 33.82H64.5243V36.404H64.6796C65.5337 34.428 67.3972 33.364 70.1925 33.364L70.8137 33.44V36.48L69.4937 36.328C68.0961 36.328 66.9314 36.784 66.0772 37.62C65.1455 38.456 64.7572 39.52 64.7572 40.812V49.476H61.729V33.82H61.6514ZM80.442 49.704C79.122 49.704 78.0349 49.324 77.1808 48.488C76.3267 47.728 75.8608 46.588 75.8608 45.22V36.48H73.0655V33.82H75.8608V29.032H78.889V33.82H82.7714V36.48H78.889V44.308C78.889 45.372 79.122 46.056 79.5102 46.436C79.8984 46.816 80.3643 46.968 80.9078 46.968C81.1408 46.968 81.3737 46.968 81.6067 46.892C81.8396 46.816 82.0725 46.74 82.2278 46.664L83.1596 49.248C82.3831 49.628 81.4514 49.704 80.442 49.704Z" fill="white"/>
<path d="M85.7998 33.82H88.6728V36.024H88.8281C89.2939 35.264 89.9928 34.58 90.9245 34.124C91.8563 33.592 92.8657 33.364 93.8751 33.364C95.8163 33.364 97.3692 33.896 98.3786 35.036C99.4657 36.1 99.9316 37.696 99.9316 39.748V49.628H96.9034V39.824C96.8257 37.24 95.5057 36.024 92.9434 36.024C91.7786 36.024 90.7692 36.48 89.9151 37.468C89.1386 38.38 88.6728 39.52 88.6728 40.888V49.552H85.6445V33.82H85.7998Z" fill="white"/>
<path d="M110.725 50.008C108.395 50.008 106.454 49.248 104.901 47.652C103.348 46.056 102.649 44.08 102.649 41.648C102.649 39.292 103.426 37.24 104.901 35.72C106.376 34.124 108.24 33.364 110.569 33.364C112.976 33.364 114.84 34.124 116.238 35.644C117.635 37.164 118.334 39.216 118.334 41.952V42.256H105.755C105.833 43.776 106.299 44.992 107.308 45.98C108.318 46.892 109.482 47.424 110.88 47.424C112.821 47.424 114.296 46.512 115.384 44.612L118.024 45.904C117.325 47.196 116.315 48.26 115.073 49.02C113.753 49.628 112.278 50.008 110.725 50.008ZM105.911 39.748H115.073C114.995 38.684 114.529 37.772 113.753 37.012C112.899 36.328 111.812 35.948 110.492 35.948C109.327 35.948 108.395 36.252 107.541 36.936C106.687 37.696 106.144 38.608 105.911 39.748Z" fill="white"/>
<path d="M124.002 49.476H120.974V33.82H123.847V36.404H124.002C124.312 35.568 124.934 34.884 125.865 34.276C126.797 33.668 127.729 33.364 128.661 33.364C129.515 33.364 130.291 33.516 130.912 33.744L129.981 36.556C129.592 36.404 129.049 36.328 128.195 36.328C127.03 36.328 126.098 36.784 125.244 37.696C124.39 38.608 124.002 39.672 124.002 40.812V49.476Z" fill="white"/>
<path d="M34.5528 13.224V15.2H39.4445C39.2892 16.492 38.7457 17.404 37.8139 18.164C36.9598 18.848 35.8728 19.228 34.5528 19.228C33.0775 19.228 31.7575 18.696 30.7481 17.708C29.7387 16.72 29.1951 15.428 29.1951 13.984C29.1951 12.464 29.7387 11.248 30.7481 10.26C31.7575 9.19599 33.0775 8.73999 34.5528 8.73999C35.9504 8.73999 37.1928 9.19599 38.2022 10.184L39.6775 8.73999C38.2022 7.37199 36.4939 6.68799 34.5528 6.68799C33.2328 6.68799 31.9904 6.99199 30.7481 7.67599C29.5834 8.35999 28.6516 9.19599 27.9528 10.336C27.2539 11.476 26.9434 12.692 26.9434 13.984C26.9434 15.276 27.2539 16.492 27.9528 17.632C28.6516 18.772 29.5834 19.684 30.7481 20.292C31.9128 20.976 33.2328 21.28 34.5528 21.28C36.5716 21.28 38.2022 20.672 39.5998 19.456C40.9198 18.24 41.541 16.644 41.541 14.592C41.541 14.136 41.541 13.68 41.4634 13.376H34.5528V13.224Z" fill="white"/>
<path d="M47.1315 11.78C45.7339 11.78 44.6468 12.236 43.715 13.148C42.7833 14.06 42.3174 15.124 42.3174 16.492C42.3174 17.784 42.7833 18.924 43.715 19.836C44.6468 20.748 45.8115 21.204 47.1315 21.204C48.5291 21.204 49.6162 20.748 50.548 19.836C51.4797 18.924 51.9456 17.784 51.9456 16.492C51.9456 15.124 51.4797 14.06 50.548 13.148C49.6162 12.236 48.4515 11.78 47.1315 11.78ZM48.995 18.544C48.4515 19.076 47.8303 19.38 47.0539 19.38C46.2774 19.38 45.6562 19.076 45.1127 18.544C44.5691 18.012 44.3362 17.328 44.3362 16.492C44.3362 15.656 44.5691 14.972 45.1127 14.44C45.6562 13.908 46.2774 13.604 47.0539 13.604C47.8303 13.604 48.4515 13.908 48.995 14.44C49.5386 14.972 49.7715 15.656 49.7715 16.492C49.8491 17.252 49.5386 17.936 48.995 18.544Z" fill="white"/>
<path d="M76.0945 7.06812H73.998V20.9001H76.0945V7.06812Z" fill="white"/>
<path d="M57.6139 11.78C56.2163 11.78 55.1292 12.236 54.1975 13.148C53.2657 14.06 52.7998 15.124 52.7998 16.492C52.7998 17.784 53.2657 18.924 54.1975 19.836C55.1292 20.748 56.2939 21.204 57.6139 21.204C59.0116 21.204 60.0986 20.748 61.0304 19.836C61.9622 18.924 62.428 17.784 62.428 16.492C62.428 15.124 61.9622 14.06 61.0304 13.148C60.1763 12.236 59.0116 11.78 57.6139 11.78ZM59.5551 18.544C59.0116 19.076 58.3904 19.38 57.6139 19.38C56.8374 19.38 56.2163 19.076 55.6727 18.544C55.1292 18.012 54.8963 17.328 54.8963 16.492C54.8963 15.656 55.1292 14.972 55.6727 14.44C56.2163 13.908 56.8374 13.604 57.6139 13.604C58.3904 13.604 59.0116 13.908 59.5551 14.44C60.0986 14.972 60.3316 15.656 60.3316 16.492C60.3316 17.252 60.0986 17.936 59.5551 18.544Z" fill="white"/>
<path d="M81.9176 19.3041C80.8306 19.3041 80.0541 18.8481 79.5882 17.8601L86.0329 15.2761L85.8 14.7441C85.6447 14.2881 85.4117 13.9081 85.1012 13.5281C84.7906 13.1481 84.48 12.8441 84.1694 12.5401C83.7812 12.2361 83.3929 12.0841 83.0047 11.9321C82.6165 11.7801 82.1506 11.7041 81.6847 11.7041C80.3647 11.7041 79.3553 12.1601 78.4235 13.0721C77.5694 13.9841 77.1035 15.1241 77.1035 16.4161C77.1035 17.7841 77.5694 18.8481 78.5012 19.7601C79.4329 20.6721 80.52 21.1281 81.9176 21.1281C83.6259 21.1281 84.9459 20.4441 85.9553 19.0761L84.3247 18.0121C83.7035 18.9241 82.927 19.3041 81.9176 19.3041ZM79.9765 14.3641C80.52 13.8321 81.1412 13.6041 81.7623 13.6041C82.1506 13.6041 82.5388 13.6801 82.8494 13.9081C83.16 14.0601 83.3929 14.3641 83.5482 14.5921L79.2776 16.3401C79.2 15.5801 79.4329 14.8961 79.9765 14.3641Z" fill="white"/>
<path d="M70.5811 12.844C69.8822 12.16 69.0281 11.78 67.9411 11.78C66.6987 11.78 65.6116 12.236 64.6799 13.148C63.7481 14.06 63.2822 15.2 63.2822 16.492C63.2822 17.784 63.7481 18.848 64.6799 19.836C65.6116 20.748 66.6987 21.204 67.9411 21.204C69.0281 21.204 69.8822 20.824 70.5034 20.14H70.5811V20.596C70.5811 22.572 69.7269 23.56 68.0187 23.56C67.4752 23.56 67.0093 23.408 66.5434 23.104C66.1552 22.8 65.7669 22.42 65.6116 21.888L63.7481 22.648C63.9034 23.028 64.1363 23.408 64.4469 23.788C64.7575 24.092 65.0681 24.396 65.4563 24.624C65.8446 24.852 66.2328 25.08 66.6987 25.232C67.1646 25.384 67.6305 25.46 68.0963 25.46C69.494 25.46 70.6587 25.004 71.4352 24.168C72.2116 23.332 72.6775 22.116 72.6775 20.52V12.084H70.6587V12.844H70.5811ZM69.9599 18.544C69.494 19.076 68.8728 19.38 68.174 19.38C67.3975 19.38 66.7763 19.076 66.2328 18.544C65.6893 18.012 65.4563 17.328 65.4563 16.492C65.4563 15.656 65.6893 14.972 66.2328 14.44C66.7763 13.908 67.3975 13.604 68.0963 13.604C68.7952 13.604 69.4163 13.908 69.8822 14.44C70.3481 14.972 70.6587 15.656 70.6587 16.492C70.7363 17.328 70.4258 18.012 69.9599 18.544Z" fill="white"/>
<path d="M15.2965 0H0V57H15.2965V0Z" fill="white"/>
</svg>
