<svg width="26" height="25" viewBox="0 0 26 25" fill="none" xmlns="http://www.w3.org/2000/svg">
<path d="M19.2994 24.9776C15.0139 24.9776 10.7139 24.9776 6.42847 24.9776C6.36997 24.963 6.31146 24.9483 6.23833 24.9337C2.97673 24.5827 0.402549 21.7891 0.387923 18.5129C0.373297 14.5054 0.373297 10.5125 0.387923 6.50492C0.402549 2.9508 3.32775 0.0255955 6.88188 0.0109695C10.8748 -0.00365651 14.8531 -0.00365651 18.8313 0.0109695C21.6395 0.0255955 24.126 1.83922 25.0035 4.51579C25.1644 5.01307 25.2375 5.53961 25.3545 6.05152C25.3545 10.3369 25.3545 14.637 25.3545 18.9224C25.3399 18.9809 25.3253 19.0394 25.3107 19.1126C24.9158 21.8623 23.4093 23.7051 20.8058 24.6412C20.3086 24.8021 19.7967 24.8606 19.2994 24.9776ZM20.9521 12.5016C20.9521 11.2876 20.9521 10.059 20.9521 8.84509C20.9521 6.32941 19.0215 4.39878 16.5058 4.39878C14.0779 4.39878 11.65 4.39878 9.22204 4.39878C6.70636 4.39878 4.77573 6.34404 4.77573 8.84509C4.77573 11.273 4.77573 13.7009 4.77573 16.1289C4.77573 18.6445 6.70636 20.5752 9.22204 20.5752C11.65 20.5752 14.0779 20.5752 16.5058 20.5752C19.0215 20.5752 20.9521 18.6299 20.9521 16.1289C20.9521 14.9149 20.9521 13.7009 20.9521 12.5016Z" fill="white"/>
<path d="M19.4895 12.4888C19.4895 13.7028 19.4895 14.9168 19.4895 16.1161C19.4895 17.842 18.2024 19.1144 16.4911 19.1144C14.0778 19.1144 11.6499 19.1144 9.23662 19.1144C7.51075 19.1144 6.23828 17.8273 6.23828 16.1015C6.23828 13.6882 6.23828 11.2749 6.23828 8.86159C6.23828 7.1211 7.51075 5.84863 9.25124 5.84863C11.6645 5.84863 14.0778 5.84863 16.4911 5.84863C18.2316 5.84863 19.5041 7.1211 19.5041 8.87622C19.4895 10.0756 19.4895 11.2895 19.4895 12.4888ZM12.8639 16.1454C14.8823 16.1454 16.5204 14.5072 16.5204 12.4888C16.5204 10.4705 14.8823 8.83234 12.8639 8.83234C10.8455 8.83234 9.20736 10.4705 9.20736 12.4888C9.20736 14.5072 10.8455 16.1454 12.8639 16.1454ZM17.0469 9.02248C17.4418 9.02248 17.7782 8.70071 17.7782 8.3058C17.7782 7.9109 17.4564 7.5745 17.0615 7.55988C16.652 7.54525 16.3156 7.88165 16.3156 8.29118C16.3302 8.70071 16.652 9.02248 17.0469 9.02248Z" fill="white"/>
<path d="M12.8638 10.292C14.0778 10.292 15.0577 11.2866 15.0577 12.5005C15.0577 13.6999 14.0632 14.6798 12.8638 14.6798C11.6499 14.6798 10.6699 13.6852 10.6699 12.4713C10.6699 11.2719 11.6645 10.292 12.8638 10.292Z" fill="white"/>
</svg>
