<svg width="25" height="25" viewBox="0 0 25 25" fill="none" xmlns="http://www.w3.org/2000/svg">
<path d="M18.9224 24.9776C14.637 24.9776 10.3369 24.9776 6.05152 24.9776C5.99301 24.963 5.93451 24.9483 5.86138 24.9337C2.59978 24.5827 0.0255955 21.7891 0.0109695 18.5129C-0.00365651 14.5054 -0.00365651 10.5125 0.0109695 6.50492C0.0255955 2.9508 2.9508 0.0255955 6.50492 0.0109695C10.4978 -0.00365651 14.4761 -0.00365651 18.4544 0.0109695C21.2626 0.0255955 23.749 1.83922 24.6266 4.51579C24.7875 5.01307 24.8606 5.53961 24.9776 6.05152C24.9776 10.3369 24.9776 14.637 24.9776 18.9224C24.963 18.9809 24.9483 19.0394 24.9337 19.1126C24.5388 21.8623 23.0323 23.7051 20.4289 24.6412C19.9316 24.8021 19.4197 24.8606 18.9224 24.9776ZM20.5752 12.5016C20.5752 11.2876 20.5752 10.059 20.5752 8.84509C20.5752 6.32941 18.6445 4.39878 16.1288 4.39878C13.7009 4.39878 11.273 4.39878 8.84509 4.39878C6.32941 4.39878 4.39878 6.34404 4.39878 8.84509C4.39878 11.273 4.39878 13.7009 4.39878 16.1289C4.39878 18.6445 6.32941 20.5752 8.84509 20.5752C11.273 20.5752 13.7009 20.5752 16.1288 20.5752C18.6445 20.5752 20.5752 18.6299 20.5752 16.1289C20.5752 14.9149 20.5752 13.7009 20.5752 12.5016Z" fill="#2074E3"/>
<path d="M19.1125 12.4879C19.1125 13.7018 19.1125 14.9158 19.1125 16.1151C19.1125 17.841 17.8254 19.1135 16.1142 19.1135C13.7009 19.1135 11.273 19.1135 8.85966 19.1135C7.13379 19.1135 5.86133 17.8264 5.86133 16.1005C5.86133 13.6872 5.86133 11.2739 5.86133 8.86062C5.86133 7.12012 7.13379 5.84766 8.87429 5.84766C11.2876 5.84766 13.7009 5.84766 16.1142 5.84766C17.8547 5.84766 19.1271 7.12012 19.1271 8.87524C19.1125 10.0746 19.1125 11.2885 19.1125 12.4879ZM12.4869 16.1444C14.5053 16.1444 16.1434 14.5063 16.1434 12.4879C16.1434 10.4695 14.5053 8.83137 12.4869 8.83137C10.4685 8.83137 8.83041 10.4695 8.83041 12.4879C8.83041 14.5063 10.4685 16.1444 12.4869 16.1444ZM16.67 9.0215C17.0649 9.0215 17.4013 8.69973 17.4013 8.30483C17.4013 7.90993 17.0795 7.57353 16.6846 7.5589C16.2751 7.54428 15.9387 7.88067 15.9387 8.2902C15.9533 8.69973 16.2751 9.0215 16.67 9.0215Z" fill="#2074E3"/>
<path d="M12.4859 10.293C13.6999 10.293 14.6798 11.2875 14.6798 12.5015C14.6798 13.7008 13.6852 14.6808 12.4859 14.6808C11.2719 14.6808 10.292 13.6862 10.292 12.4722C10.292 11.2729 11.2866 10.293 12.4859 10.293Z" fill="#2074E3"/>
</svg>
