<svg width="77" height="77" viewBox="0 0 77 77" fill="none" xmlns="http://www.w3.org/2000/svg">
<g clip-path="url(#clip0_1734_11888)">
<path d="M38.0336 75.7891C58.8852 75.7891 75.7888 58.8856 75.7888 38.0339C75.7888 17.1823 58.8852 0.278687 38.0336 0.278687C17.1819 0.278687 0.27832 17.1823 0.27832 38.0339C0.27832 58.8856 17.1819 75.7891 38.0336 75.7891Z" fill="white"/>
<path d="M38.0339 76.0678C17.0433 76.0678 0 59.0245 0 38.0339C0 17.0433 17.0433 0 38.0339 0C59.0245 0 76.0678 17.0433 76.0678 38.0339C76.0678 59.0245 59.0245 76.0678 38.0339 76.0678ZM38.0339 1.20742C17.7399 1.20742 1.20742 17.7399 1.20742 38.0339C1.20742 58.3279 17.7399 74.8603 38.0339 74.8603C58.3279 74.8603 74.8603 58.3279 74.8603 38.0339C74.8603 17.7399 58.3279 1.20742 38.0339 1.20742Z" fill="#00395C"/>
<path d="M38.0342 63.0182C24.2417 63.0182 13.0498 51.8264 13.0498 38.0338C13.0498 24.2413 24.2417 13.0494 38.0342 13.0494C51.8267 13.0494 63.0186 24.2413 63.0186 38.0338C63.0186 51.8264 51.8267 63.0182 38.0342 63.0182ZM38.0342 14.2569C24.9383 14.2569 14.2572 24.9379 14.2572 38.0338C14.2572 51.1298 24.9383 61.8108 38.0342 61.8108C51.1301 61.8108 61.8112 51.1298 61.8112 38.0338C61.8112 24.9379 51.1301 14.2569 38.0342 14.2569Z" fill="#00395C"/>
<path d="M30.6962 67.1978L29.9531 66.9656C29.9531 66.8728 29.9531 66.7799 29.9531 66.687C29.9531 66.5941 29.9067 66.5013 29.8603 66.4548C29.8138 66.3619 29.7674 66.3155 29.6745 66.2691C29.5816 66.2226 29.4887 66.1762 29.3959 66.1297C29.2101 66.0833 29.0244 66.0833 28.885 66.1297C28.6993 66.1762 28.56 66.2691 28.4671 66.4084C28.3278 66.5477 28.2349 66.7334 28.142 67.0121C28.0491 67.2443 28.0491 67.4765 28.0491 67.6622C28.0491 67.848 28.142 68.0338 28.2349 68.1266C28.3278 68.2659 28.4671 68.3588 28.6528 68.4053C28.7457 68.4517 28.8386 68.4517 28.9315 68.4517C29.0244 68.4517 29.1172 68.4517 29.2101 68.4053C29.303 68.3588 29.3494 68.3124 29.4423 68.2659C29.4887 68.2195 29.5816 68.1266 29.6281 68.0338L30.3711 68.2659C30.2782 68.4053 30.1853 68.5446 30.0925 68.6839C29.9531 68.8232 29.8138 68.9161 29.6745 69.009C29.4887 69.1019 29.303 69.1483 29.1172 69.1483C28.9315 69.1483 28.6993 69.1483 28.4671 69.0554C28.142 68.9625 27.9098 68.7768 27.6776 68.591C27.4919 68.3588 27.3525 68.1266 27.3061 67.8016C27.2597 67.4765 27.2597 67.1514 27.399 66.7334C27.5383 66.3619 27.6776 66.0369 27.9098 65.8047C28.142 65.5725 28.4206 65.4331 28.6993 65.3867C28.9779 65.3403 29.303 65.3403 29.5816 65.4331C29.7674 65.4796 29.9531 65.5725 30.1389 65.7118C30.2782 65.8047 30.4175 65.944 30.5104 66.1297C30.6033 66.2691 30.6962 66.4548 30.6962 66.6406C30.7426 66.7799 30.7426 66.9656 30.6962 67.1978Z" fill="#00395C"/>
<path d="M31.9967 69.9378C31.7181 69.8913 31.4859 69.7984 31.3001 69.6127C31.1144 69.4734 30.9751 69.2876 30.9286 69.0554C30.8822 68.8232 30.8357 68.5446 30.9286 68.266C30.9751 67.9873 31.0679 67.7551 31.2537 67.5694C31.393 67.3836 31.5788 67.2443 31.811 67.1514C32.0432 67.0585 32.2754 67.0585 32.554 67.105C32.7398 67.1514 32.8791 67.1978 33.0184 67.2907C33.1577 67.3836 33.297 67.4765 33.3899 67.6158C33.4828 67.7551 33.5292 67.8944 33.5757 68.0802C33.6221 68.266 33.6221 68.4517 33.5757 68.6839L33.5292 68.8697L31.2073 68.4517L31.3001 67.9873L32.8791 68.266C32.8791 68.1731 32.8791 68.0338 32.8791 67.9409C32.8326 67.848 32.7862 67.7551 32.7398 67.7087C32.6469 67.6622 32.554 67.6158 32.4611 67.5694C32.3682 67.5694 32.2289 67.5694 32.136 67.5694C32.0432 67.6158 31.9503 67.6622 31.9039 67.7551C31.8574 67.848 31.811 67.9409 31.7645 68.0338L31.6717 68.4981C31.6252 68.6375 31.6717 68.7768 31.6717 68.8697C31.7181 68.9625 31.7645 69.0554 31.8574 69.1483C31.9503 69.2412 32.0432 69.2876 32.1825 69.2876C32.2754 69.2876 32.3682 69.2876 32.4147 69.2876C32.5076 69.2876 32.554 69.2412 32.6004 69.1947C32.6469 69.1483 32.6933 69.1019 32.7398 69.0554L33.4364 69.2412C33.3899 69.3805 33.2506 69.5198 33.1577 69.6591C33.0184 69.752 32.8791 69.8449 32.6933 69.8913C32.4147 69.9842 32.2289 69.9842 31.9967 69.9378Z" fill="#00395C"/>
<path d="M33.9473 70.2164L34.2259 67.4764L34.9689 67.5693L34.9225 68.0337H34.9689C35.0154 67.848 35.1547 67.7551 35.2476 67.6622C35.3869 67.5693 35.5262 67.5693 35.6655 67.5693C35.712 67.5693 35.7584 67.5693 35.8048 67.5693C35.8513 67.5693 35.8977 67.5693 35.8977 67.6158L35.8048 68.3124C35.7584 68.3124 35.712 68.2659 35.6655 68.2659C35.6191 68.2659 35.5262 68.2195 35.4798 68.2195C35.3869 68.2195 35.2476 68.2195 35.1547 68.2659C35.0618 68.3123 34.9689 68.3588 34.9225 68.4517C34.8761 68.5445 34.8296 68.6374 34.8296 68.7303L34.6903 70.3092L33.9473 70.2164Z" fill="#00395C"/>
<path d="M37.8945 67.6622V68.2194L36.2227 68.173V67.6157L37.8945 67.6622ZM36.6406 66.9656L37.4301 67.012L37.3372 69.6126C37.3372 69.7055 37.3372 69.7519 37.3836 69.7984C37.3836 69.8448 37.4301 69.8448 37.4765 69.8913C37.523 69.8913 37.5694 69.9377 37.6158 69.9377C37.6623 69.9377 37.7087 69.9377 37.7087 69.9377C37.7552 69.9377 37.7552 69.9377 37.8016 69.9377L37.8945 70.495C37.848 70.495 37.8016 70.5414 37.7087 70.5414C37.6158 70.5414 37.5694 70.5414 37.4765 70.5414C37.2908 70.5414 37.1514 70.495 37.0121 70.4485C36.8728 70.4021 36.7799 70.3092 36.6871 70.1699C36.5942 70.0306 36.5942 69.8913 36.5942 69.7055L36.6406 66.9656Z" fill="#00395C"/>
<path d="M38.7305 67.2907C38.6376 67.2907 38.4983 67.2443 38.4518 67.1978C38.3589 67.1049 38.3125 67.0121 38.3125 66.9192C38.3125 66.8263 38.3589 66.7334 38.4518 66.6405C38.5447 66.5477 38.6376 66.5012 38.7305 66.5012C38.8233 66.5012 38.9627 66.5477 39.0091 66.5941C39.102 66.687 39.1484 66.7799 39.1484 66.8727C39.1484 66.9656 39.102 67.0585 39.0555 67.1514C39.0091 67.2443 38.8233 67.2907 38.7305 67.2907ZM38.4054 70.4486L38.3589 67.6622H39.1484L39.1948 70.4486H38.4054Z" fill="#00395C"/>
<path d="M41.1919 67.5229L41.2383 68.0802L39.5201 68.2195L39.4736 67.6623L41.1919 67.5229ZM40.0773 70.4022L39.8451 67.4301C39.8451 67.2443 39.8451 67.0585 39.938 66.9192C39.9845 66.7799 40.1238 66.687 40.2167 66.5941C40.356 66.5013 40.4953 66.4548 40.6811 66.4548C40.8204 66.4548 40.9133 66.4548 41.0061 66.4548C41.099 66.4548 41.1919 66.4548 41.2383 66.5013L41.1455 67.105C41.099 67.105 41.099 67.105 41.0526 67.105C41.0061 67.105 40.9597 67.105 40.9133 67.105C40.8204 67.105 40.7275 67.1514 40.6811 67.1979C40.6346 67.2443 40.6346 67.3372 40.6346 67.4301L40.8668 70.4022H40.0773Z" fill="#00395C"/>
<path d="M41.9341 67.0585C41.8412 67.0585 41.7019 67.0585 41.609 66.9656C41.5162 66.9192 41.4697 66.8263 41.4697 66.687C41.4697 66.5941 41.4697 66.5012 41.5626 66.4084C41.6555 66.3155 41.7019 66.269 41.8412 66.269C41.9341 66.269 42.0734 66.269 42.1663 66.3619C42.2592 66.4084 42.3056 66.5012 42.3056 66.6406C42.3056 66.7334 42.3056 66.8263 42.2128 66.9192C42.1663 66.9656 42.0734 67.0121 41.9341 67.0585ZM41.9806 70.2164L41.609 67.4765L42.3521 67.3836L42.7236 70.1235L41.9806 70.2164Z" fill="#00395C"/>
<path d="M44.7676 69.7985C44.489 69.8449 44.2568 69.8449 44.0246 69.7985C43.7924 69.7056 43.6066 69.6127 43.4673 69.427C43.328 69.2412 43.1887 69.009 43.1423 68.7304C43.0958 68.4517 43.0958 68.1731 43.1423 67.9409C43.1887 67.7087 43.328 67.523 43.5138 67.3372C43.6995 67.1979 43.8853 67.0586 44.1639 67.0121C44.3497 66.9657 44.5354 66.9657 44.6748 67.0121C44.8605 67.0586 44.9998 67.105 45.1391 67.1979C45.2785 67.2908 45.4178 67.4301 45.5107 67.5694C45.6035 67.7087 45.6964 67.9409 45.7429 68.1731L45.7893 68.3589L43.5138 68.8233L43.4209 68.3589L44.9998 68.0338C44.9998 67.9409 44.9534 67.848 44.8605 67.7552C44.8141 67.6623 44.7212 67.6158 44.6283 67.6158C44.5354 67.5694 44.4426 67.5694 44.3032 67.6158C44.2104 67.6623 44.071 67.7087 44.0246 67.7552C43.9317 67.848 43.8853 67.8945 43.8853 67.9873C43.8388 68.0802 43.8388 68.1731 43.8853 68.3124L43.9782 68.7768C44.0246 68.9161 44.071 69.009 44.1175 69.1019C44.2104 69.1948 44.2568 69.2412 44.3961 69.2877C44.5354 69.3341 44.6283 69.3341 44.7212 69.2877C44.8141 69.2877 44.8605 69.2412 44.9534 69.1948C44.9998 69.1483 45.0927 69.1019 45.0927 69.0555C45.1391 69.009 45.1391 68.9161 45.1856 68.8697L45.8822 68.7768C45.8822 68.9626 45.8357 69.1019 45.7429 69.2412C45.65 69.3805 45.5571 69.5198 45.3713 69.6127C45.1856 69.6592 44.9998 69.752 44.7676 69.7985Z" fill="#00395C"/>
<path d="M47.6929 69.009C47.5071 69.0554 47.2749 69.1019 47.0891 69.009C46.9034 68.9625 46.7176 68.8232 46.5783 68.6839C46.439 68.4981 46.2997 68.2659 46.2068 67.9873C46.1139 67.6622 46.0675 67.43 46.1139 67.1978C46.1604 66.9656 46.2068 66.7799 46.3461 66.6406C46.4854 66.5013 46.6248 66.3619 46.8105 66.3155C46.9498 66.2691 47.0891 66.2691 47.182 66.2691C47.2749 66.2691 47.4142 66.3155 47.4607 66.3619C47.5535 66.4084 47.6 66.4548 47.6929 66.5477L47.2749 65.2009L48.0179 64.9688L49.1325 68.4981L48.3894 68.7303L48.2501 68.3124H48.2037C48.2037 68.4053 48.1573 68.4981 48.1108 68.591C48.0644 68.6839 48.0179 68.7768 47.9251 68.8697C47.9715 68.9161 47.8322 68.9625 47.6929 69.009ZM47.7393 68.3588C47.8786 68.3124 47.9251 68.266 48.0179 68.1731C48.0644 68.0802 48.1108 67.9873 48.1108 67.848C48.1108 67.7087 48.1108 67.5694 48.0644 67.43C48.0179 67.2907 47.9251 67.1514 47.8786 67.0585C47.7857 66.9656 47.6929 66.8728 47.6 66.8728C47.5071 66.8263 47.3678 66.8263 47.2749 66.8728C47.1356 66.9192 47.0427 66.9656 46.9963 67.0585C46.9498 67.1514 46.9034 67.2443 46.9034 67.3836C46.9034 67.5229 46.9034 67.6622 46.9498 67.8016C46.9963 67.9409 47.0427 68.0802 47.1356 68.1731C47.2285 68.266 47.3213 68.3588 47.4142 68.4053C47.5071 68.4053 47.6464 68.4053 47.7393 68.3588Z" fill="#00395C"/>
<path d="M38.5445 19.4117C38.8232 19.4582 39.1482 19.5046 39.4269 19.5046C41.1451 19.7368 42.7705 20.2941 44.2566 21.13C45.464 21.7801 46.5321 22.616 47.4609 23.6377C47.9253 24.1485 48.3897 24.7058 48.7612 25.2631C48.8076 25.3095 48.8541 25.356 48.8541 25.4488C48.8076 25.5417 48.7148 25.4953 48.6683 25.4953C48.4361 25.5417 48.2968 25.4489 48.2039 25.2631C47.5538 24.3343 46.7179 23.4984 45.8355 22.8018C45.6962 22.7089 45.5569 22.6625 45.4176 22.7554C45.0925 22.9411 44.7674 23.1269 44.4423 23.3126C44.303 23.4055 44.2566 23.4984 44.3959 23.5913C44.8603 24.0557 45.2318 24.6129 45.6033 25.1702C45.6498 25.2631 45.7891 25.356 45.6962 25.4953C45.6033 25.5882 45.2782 25.5417 45.1854 25.4488C45.1389 25.356 45.046 25.2631 44.9996 25.1702C44.6745 24.7058 44.2566 24.2414 43.8851 23.777C43.7922 23.6842 43.7457 23.6842 43.6529 23.7306C43.0027 24.0092 42.3526 24.2414 41.656 24.4272C41.5166 24.4736 41.5166 24.5201 41.5631 24.6594C41.656 24.8916 41.7488 25.1238 41.8882 25.356C41.9346 25.4953 41.8882 25.5417 41.7953 25.5417C41.5631 25.5882 41.4702 25.5417 41.3309 25.3095C41.238 25.1238 41.1451 24.9845 41.0523 24.7987C40.9594 24.6129 40.8665 24.5665 40.7272 24.6129C40.1235 24.7523 39.4733 24.8451 38.8232 24.8916C38.5445 24.8916 38.3123 24.938 38.0337 24.938C37.8944 24.938 37.8015 24.9845 37.8015 25.1702C37.8015 25.4489 37.6622 25.5417 37.3835 25.4488C37.2907 25.4024 37.2442 25.356 37.2907 25.2631C37.2907 24.8916 37.2442 24.938 36.9191 24.8916C36.2226 24.8451 35.526 24.7987 34.8758 24.6594C34.6901 24.6129 34.5507 24.6129 34.365 24.5665C34.1792 24.5201 34.0863 24.5665 34.0399 24.7523C33.947 24.938 33.9006 25.0773 33.8077 25.2631C33.7148 25.4024 33.4362 25.4953 33.2969 25.4024C33.204 25.356 33.2504 25.3095 33.2504 25.2167C33.3433 24.9845 33.4362 24.7987 33.5291 24.5665C33.5755 24.4272 33.5755 24.3343 33.4362 24.2879C32.786 24.1021 32.1359 23.8699 31.5322 23.6377C31.3929 23.5913 31.3464 23.6377 31.2535 23.7306C30.8356 24.195 30.4176 24.7058 30.0461 25.2167C29.9068 25.4024 29.721 25.4953 29.4888 25.4024C29.3495 25.356 29.396 25.3095 29.4424 25.2167C29.5817 24.9845 29.721 24.7987 29.8604 24.5665C30.139 24.195 30.4176 23.8235 30.6963 23.4984C30.7891 23.3591 30.7891 23.3126 30.6498 23.2662C30.2783 23.0804 29.9532 22.8482 29.5817 22.6625C29.4424 22.5696 29.3495 22.616 29.2566 22.7089C28.6994 23.1269 28.1885 23.6377 27.7241 24.1485C27.3991 24.5201 27.1204 24.8916 26.8418 25.2631C26.7489 25.4024 26.4238 25.4953 26.2845 25.4024C26.1452 25.356 26.2381 25.2631 26.2845 25.2167C26.5167 24.8916 26.7954 24.5201 27.074 24.195C28.7458 22.1981 30.8356 20.7585 33.2969 19.969C34.365 19.6439 35.4331 19.4117 36.5012 19.3653C36.5476 19.3653 36.5941 19.3653 36.6405 19.3188H38.5445V19.4117ZM37.2907 22.9411C37.2907 22.6625 37.3371 22.1981 37.2907 21.7801C37.2907 21.6408 37.1978 21.5944 37.1049 21.5944C36.8727 21.5944 36.6405 21.5479 36.3619 21.5015C36.269 21.5015 36.1761 21.5015 36.1297 21.5944C35.526 22.3374 34.9687 23.1269 34.5043 23.9628C34.4579 24.1021 34.4579 24.1485 34.5972 24.1485C34.8758 24.195 35.2009 24.2414 35.4795 24.2879C35.9904 24.3807 36.5012 24.4272 37.012 24.4272C37.1978 24.4272 37.2907 24.3807 37.2907 24.1485C37.2907 23.777 37.2907 23.452 37.2907 22.9411ZM37.8479 23.034C37.8479 23.452 37.8479 23.8235 37.8479 24.2414C37.8479 24.4272 37.8944 24.4736 38.0801 24.4736C38.8696 24.4272 39.6591 24.3343 40.4485 24.195C40.6807 24.1485 40.6807 24.1485 40.5879 23.9163C40.1699 23.0804 39.6126 22.3838 39.0554 21.6408C39.0089 21.5479 38.916 21.5479 38.8232 21.5479C38.591 21.5944 38.3588 21.5944 38.1266 21.6408C37.9873 21.6408 37.8944 21.7337 37.9408 21.873C37.8479 22.2445 37.8479 22.616 37.8479 23.034ZM40.2163 20.9907C40.0306 21.0835 39.8448 21.1764 39.6126 21.2693C39.4733 21.3157 39.4733 21.4086 39.5662 21.5015C40.1235 22.2445 40.6343 23.034 41.0987 23.8235C41.1916 23.9628 41.238 23.9628 41.3773 23.9628C41.981 23.8235 42.5383 23.5913 43.0956 23.3591C43.2813 23.3126 43.2813 23.2198 43.142 23.1269C42.3061 22.3374 41.3773 21.6408 40.3557 21.13C40.3557 21.0371 40.3092 20.9907 40.2163 20.9907ZM33.7148 23.9163C33.8541 23.9163 33.9006 23.8699 33.947 23.8235C34.4579 22.9876 34.9222 22.1981 35.526 21.4551C35.6188 21.3622 35.5724 21.3157 35.4795 21.2229C34.9223 20.9442 34.8758 20.9442 34.365 21.2693C34.3185 21.2693 34.3185 21.3157 34.2721 21.3157C33.4362 21.8266 32.6467 22.4303 31.9501 23.0804C31.8108 23.2198 31.8108 23.2662 31.9966 23.3591C32.2752 23.452 32.5074 23.5913 32.786 23.6377C33.1111 23.777 33.4362 23.8699 33.7148 23.9163ZM37.4764 19.8761C37.2907 19.8761 36.9191 19.9226 36.5941 19.9226C35.9904 19.969 35.4331 20.0619 34.8758 20.1548C34.8294 20.1548 34.7829 20.1548 34.7829 20.2476C34.7829 20.2941 34.8294 20.2941 34.8758 20.3405C35.0151 20.4334 35.2009 20.5263 35.3402 20.6192C36.5941 21.2229 37.8944 21.2693 39.2411 20.8513C39.6126 20.7585 39.9377 20.5727 40.2628 20.387C40.3092 20.3405 40.4485 20.3405 40.4485 20.2476C40.4485 20.1548 40.3092 20.2012 40.2628 20.1548C40.2163 20.1548 40.2163 20.1548 40.1699 20.1548C39.2411 19.969 38.4052 19.8761 37.4764 19.8761ZM33.9006 20.4334C33.8077 20.4798 33.6684 20.4334 33.5755 20.5263C33.4826 20.6192 33.3433 20.6192 33.2504 20.6656C32.1359 21.0371 31.1142 21.5479 30.1854 22.2445C30.0461 22.3374 30.0461 22.3838 30.1854 22.5232C30.4641 22.7089 30.7891 22.8947 31.1142 23.034C31.2535 23.0804 31.3464 23.0804 31.4393 22.9876C31.7644 22.6625 32.1359 22.3374 32.5074 22.0588C33.0182 21.6408 33.5755 21.2693 34.1328 20.8978C34.1792 20.8513 34.3185 20.8513 34.2257 20.7585C34.1792 20.5263 34.0399 20.4334 33.9006 20.4334ZM41.1916 20.387C41.0058 20.387 40.9129 20.4798 40.8665 20.6192C40.8201 20.712 40.9594 20.7585 41.0523 20.8049C42.0275 21.4086 42.9098 22.0588 43.7457 22.8482C43.8851 22.9876 43.9779 22.9876 44.1173 22.8947C44.3959 22.7089 44.6745 22.5696 44.9532 22.4303C45.1854 22.291 45.1854 22.291 44.9532 22.1517C44.1173 21.5944 43.1885 21.0835 42.2597 20.7585C41.8882 20.6192 41.5631 20.5263 41.1916 20.387Z" fill="#00395C"/>
<path d="M36.4554 45.7893C36.1303 45.7429 35.7588 45.6965 35.4337 45.65C33.6226 45.3714 31.9043 44.7212 30.3718 43.746C28.8393 42.7708 27.4926 41.5169 26.4709 40.0309C26.4245 39.938 26.2852 39.8451 26.3316 39.7522C26.3781 39.6593 26.5638 39.7058 26.6567 39.7058C26.796 39.7058 26.8889 39.7522 26.9353 39.8915C27.5855 40.8203 28.3749 41.6562 29.2573 42.3993C29.4431 42.5386 29.5824 42.585 29.7681 42.4457C30.0468 42.2599 30.3718 42.0742 30.6969 41.8884C30.8362 41.7956 30.8362 41.7491 30.7434 41.6098C30.279 41.099 29.861 40.5417 29.4895 39.938C29.3502 39.7058 29.3502 39.7058 29.5824 39.6593C29.7681 39.6129 29.9074 39.6593 30.0003 39.8451C30.3718 40.4024 30.7898 40.9132 31.2077 41.424C31.3006 41.5169 31.3471 41.5169 31.4864 41.4705C32.1365 41.1918 32.8331 40.9596 33.4833 40.7739C33.6226 40.7274 33.6226 40.681 33.5762 40.5417C33.4833 40.3095 33.3904 40.0773 33.2975 39.8915C33.2046 39.7522 33.2975 39.6593 33.4368 39.6593C33.6226 39.6593 33.7619 39.7058 33.8548 39.8915C33.9012 40.0773 34.0406 40.2166 34.087 40.4024C34.1334 40.5417 34.2263 40.5881 34.3656 40.5417C34.9693 40.4024 35.5731 40.3559 36.1768 40.2631C36.4554 40.2166 36.734 40.2166 37.0127 40.2166C37.1984 40.2166 37.2913 40.1702 37.2913 39.938C37.2913 39.7058 37.4771 39.5665 37.7093 39.6593C37.8021 39.7058 37.8021 39.7522 37.8021 39.8451C37.8021 40.0773 37.9415 40.1702 38.1737 40.2166C38.9631 40.2631 39.7526 40.3559 40.4956 40.4952C40.96 40.5881 40.96 40.5881 41.1922 40.1702C41.2387 40.0773 41.2851 39.9844 41.3315 39.8915C41.378 39.7522 41.4709 39.6593 41.6566 39.7058C41.9353 39.7058 41.9353 39.7522 41.8424 39.9844C41.7495 40.1702 41.7031 40.3559 41.6102 40.5417C41.5173 40.7739 41.5173 40.7739 41.7495 40.8668C42.3996 41.0525 43.0034 41.2847 43.6071 41.5169C43.7928 41.5634 43.8857 41.5634 43.9786 41.424C44.3965 40.9596 44.7681 40.4952 45.0931 39.9844C45.2324 39.7987 45.4646 39.7058 45.6968 39.7522C45.8362 39.7987 45.7433 39.8451 45.7433 39.8915C45.604 40.1237 45.4182 40.3559 45.2789 40.5881C45.0003 40.9132 44.7681 41.2847 44.4894 41.6098C44.3965 41.7491 44.3965 41.7956 44.5359 41.8884C44.9074 42.1206 45.2789 42.3064 45.6504 42.5386C45.7433 42.585 45.7897 42.585 45.8826 42.4921C46.3934 42.0742 46.8578 41.6562 47.3222 41.1454C47.6937 40.7274 48.0653 40.3095 48.3903 39.8451C48.4832 39.7058 48.8547 39.6593 48.9476 39.7058C49.0405 39.7522 48.9476 39.8451 48.9476 39.8915C48.7154 40.1702 48.5296 40.4953 48.2975 40.7739C46.9971 42.3993 45.4182 43.6531 43.5606 44.5355C42.121 45.2321 40.6349 45.6036 39.056 45.7893C39.0096 45.7893 38.9631 45.7893 38.9167 45.8358L36.4554 45.7893ZM37.9415 42.0278C37.9415 42.4921 37.9415 42.9565 37.9415 43.4209C37.9415 43.5138 37.9415 43.6067 38.0808 43.6067C38.313 43.6531 38.5916 43.6996 38.8238 43.6996C38.9167 43.6996 39.056 43.6996 39.1489 43.6067C39.7526 42.8637 40.2634 42.0742 40.7278 41.2383C40.7743 41.1454 40.7743 41.0525 40.6349 41.0525C39.799 40.8668 38.9631 40.7739 38.0808 40.7739C37.9415 40.7739 37.895 40.8203 37.895 40.9596C37.9415 41.2847 37.8486 41.6562 37.9415 42.0278ZM37.3378 41.424C37.3378 41.2847 37.3378 41.099 37.3378 40.9596C37.3378 40.8203 37.2913 40.7739 37.152 40.7739C36.3161 40.7739 35.5266 40.9132 34.7371 41.0525C34.5978 41.099 34.5514 41.1454 34.6443 41.2847C35.1087 42.1206 35.6195 42.9101 36.2232 43.6531C36.2696 43.746 36.3625 43.746 36.4554 43.746C36.6876 43.6996 36.9198 43.6531 37.1984 43.6531C37.3842 43.6531 37.4306 43.5603 37.4306 43.3745C37.3842 42.6779 37.3842 42.0742 37.3378 41.424ZM33.9012 41.2383H33.8548C33.2511 41.424 32.6474 41.6098 32.0437 41.842C31.8579 41.9349 31.9043 41.9813 31.9972 42.1206C32.8331 42.9565 33.7619 43.6067 34.83 44.164C34.8765 44.2104 34.9693 44.2104 35.0622 44.2104C35.248 44.1175 35.3873 44.0711 35.5731 43.9782C35.7124 43.9318 35.7124 43.8853 35.6195 43.746C35.0622 42.9565 34.5049 42.1671 34.0406 41.3312C33.9941 41.2847 33.9941 41.1918 33.9012 41.2383ZM40.3099 44.2104C40.3563 44.164 40.4492 44.164 40.4956 44.164C41.5173 43.6067 42.4461 42.9565 43.282 42.1206C43.4213 41.9813 43.3749 41.9349 43.2356 41.8884C42.6783 41.6562 42.121 41.4705 41.5173 41.2847C41.378 41.2383 41.3315 41.2847 41.2387 41.424C41.0529 41.7491 40.8671 42.0277 40.7278 42.3528C40.4492 42.8637 40.1241 43.2816 39.7526 43.746C39.7062 43.7924 39.6133 43.8853 39.7062 43.9782C39.8919 44.0711 40.1241 44.1175 40.3099 44.2104ZM34.7836 44.9534C34.83 44.9999 34.83 44.9999 34.83 44.9999C34.8765 44.9999 34.8765 44.9999 34.9229 45.0463C36.734 45.4178 38.5452 45.4178 40.3563 45.0463C40.4028 45.0463 40.4956 45.0463 40.4956 44.9999C40.4956 44.907 40.4492 44.907 40.4028 44.8606C39.056 44.0711 37.6628 43.9782 36.1768 44.3497C35.6659 44.4426 35.2015 44.6748 34.7836 44.9534ZM41.2851 44.8141C41.4709 44.7677 41.7031 44.6748 41.8888 44.6284C43.0034 44.2568 44.0715 43.746 45.0467 43.0494C45.2325 42.9101 45.2325 42.9101 45.0467 42.7708C44.7681 42.585 44.443 42.3993 44.1179 42.2599C43.9786 42.2135 43.9321 42.2135 43.7928 42.3064C43.282 42.7708 42.8176 43.1887 42.2603 43.6067C41.8424 43.8853 41.4244 44.164 41.0065 44.4426C40.96 44.489 40.8207 44.489 40.9136 44.5819C41.0529 44.6748 41.1458 44.7677 41.2851 44.8141ZM33.9477 44.8141C34.1334 44.8141 34.2263 44.7212 34.3192 44.6284C34.3656 44.5355 34.2263 44.489 34.1334 44.4426C33.2046 43.8389 32.2759 43.1887 31.4864 42.3993C31.3471 42.2599 31.2078 42.2135 31.0684 42.3528C30.7898 42.4921 30.5112 42.6779 30.2325 42.8172C30.0003 42.9565 30.0003 42.9565 30.2325 43.0959C31.0684 43.6531 31.9972 44.164 32.926 44.489C33.2975 44.5819 33.6226 44.6748 33.9477 44.8141Z" fill="#00395C"/>
<path d="M27.3529 28.8854V36.4086H29.1176V38.359H22.709V36.4086H24.4272V28.8854H22.709V26.9349H29.1176V28.8854H27.3529Z" fill="#00395C"/>
<path d="M36.8269 27.9101V26.9814H39.5204V30.4179H36.8269C36.734 29.8606 36.4554 29.4426 36.0839 29.164C35.7124 28.8854 35.2015 28.7461 34.5978 28.7461C34.1799 28.7461 33.8083 28.8389 33.4833 29.0247C33.1582 29.2105 33.0189 29.4426 33.0189 29.6748C33.0189 29.907 33.1118 30.0928 33.2975 30.2786C33.4833 30.4643 33.7619 30.6036 34.0405 30.6965C34.3656 30.8358 34.83 30.9751 35.4337 31.1609L36.0839 31.3467C37.4771 31.7646 38.4987 32.2755 39.2418 32.8792C39.9384 33.4829 40.3099 34.1795 40.3099 35.0618C40.3099 36.0835 39.8919 36.9194 39.056 37.5231C38.2201 38.1268 37.1055 38.4519 35.7124 38.4519C34.3656 38.4519 33.2975 38.0804 32.508 37.3373V38.3126H29.8146V34.4581H32.508C32.5545 35.1083 32.7867 35.6191 33.2046 35.9906C33.6226 36.3621 34.1799 36.5014 34.9229 36.5014C35.3873 36.5014 35.8052 36.3621 36.1303 36.1299C36.4554 35.8977 36.6412 35.6191 36.6412 35.2476C36.6412 34.9225 36.4554 34.5974 36.0839 34.3188C35.7124 34.0401 35.0622 33.7615 34.1334 33.4829C32.6009 32.972 31.4399 32.4612 30.7433 31.9039C30.0468 31.3467 29.7217 30.6965 29.7217 29.9535C29.7217 29.3962 29.9074 28.8389 30.279 28.3745C30.6505 27.9101 31.1613 27.5386 31.8115 27.26C32.4616 26.9814 33.1582 26.842 33.9477 26.842C34.5514 26.842 35.1087 26.9349 35.6195 27.1207C36.0839 27.3064 36.5018 27.5851 36.8269 27.9101Z" fill="#00395C"/>
<path d="M40.7734 32.6005C40.7734 31.4395 41.0521 30.4179 41.5629 29.5355C42.0737 28.6532 42.8168 27.9566 43.792 27.4922C44.7672 26.9813 45.8353 26.7491 47.0892 26.7491C48.3431 26.7491 49.4576 26.9813 50.3864 27.4922C51.3616 28.003 52.0582 28.6532 52.6155 29.5355C53.1263 30.4179 53.405 31.4395 53.405 32.5541C53.405 33.7151 53.1263 34.7367 52.6155 35.6191C52.1047 36.5014 51.3616 37.198 50.3864 37.6624C49.4112 38.1732 48.3431 38.4054 47.0892 38.4054C45.8818 38.4054 44.7672 38.1732 43.8384 37.6624C42.8632 37.1516 42.1202 36.5014 41.5629 35.6191C41.0056 34.7832 40.7734 33.7615 40.7734 32.6005ZM50.2471 32.6005C50.2471 31.9039 50.1078 31.3002 49.8756 30.6965C49.6434 30.1392 49.2718 29.6748 48.8075 29.3498C48.3431 29.0247 47.7858 28.8389 47.1356 28.8389C46.4855 28.8389 45.9282 29.0247 45.4638 29.3498C44.9994 29.6748 44.6279 30.1392 44.3957 30.6965C44.1635 31.2538 44.0242 31.9039 44.0242 32.6005C44.0242 33.3435 44.1635 33.9937 44.3957 34.551C44.6279 35.1082 44.9994 35.5726 45.5103 35.8977C46.0211 36.2228 46.5319 36.4085 47.1356 36.4085C47.7858 36.4085 48.3431 36.2228 48.8075 35.8977C49.2718 35.5726 49.6434 35.1082 49.922 34.551C50.1078 33.9937 50.2471 33.3435 50.2471 32.6005Z" fill="#00395C"/>
<path d="M9.61253 42.3064L5.94382 42.7708L5.71162 41.3312C5.66518 41.0525 5.71162 40.8203 5.75806 40.5882C5.85094 40.356 5.99025 40.2166 6.12957 40.0773C6.31533 39.938 6.50109 39.8916 6.77973 39.8451C7.01192 39.7987 7.24412 39.8451 7.42988 39.938C7.61563 40.0309 7.80139 40.1702 7.94071 40.356C8.08003 40.5417 8.17291 40.7739 8.17291 41.0525L8.31223 41.9813L7.70851 42.0742L7.61563 41.2847C7.61563 41.1454 7.5692 41.0061 7.47632 40.9132C7.38344 40.8203 7.337 40.7739 7.24412 40.7275C7.15124 40.681 7.01192 40.681 6.91904 40.681C6.77972 40.681 6.68685 40.7275 6.59397 40.7739C6.50109 40.8204 6.45465 40.9132 6.40821 41.0061C6.36177 41.099 6.36177 41.2383 6.36177 41.3776L6.40821 41.8885L9.47321 41.5169L9.61253 42.3064Z" fill="#00395C"/>
<path d="M9.24111 39.1485L6.45475 39.2413L6.40831 38.4983H6.8727V38.4519C6.68694 38.4054 6.54763 38.3125 6.45475 38.2197C6.36187 38.1268 6.31543 37.9875 6.31543 37.8017C6.31543 37.7553 6.31543 37.7088 6.31543 37.6624C6.31543 37.6159 6.31543 37.5695 6.31543 37.5231H7.01202C7.01202 37.5695 7.01202 37.6159 6.96558 37.6624C6.96558 37.7088 6.96558 37.8017 6.96558 37.8481C6.96558 37.941 7.01202 38.0803 7.05846 38.1268C7.1049 38.2197 7.19778 38.2661 7.29066 38.3125C7.38354 38.359 7.47641 38.4054 7.61573 38.359L9.19467 38.3125L9.24111 39.1485Z" fill="#00395C"/>
<path d="M6.08342 36.6408C6.08342 36.7336 6.03698 36.873 5.9441 36.9194C5.85122 37.0123 5.75834 37.0587 5.66546 37.0123C5.57258 37.0123 5.4797 36.9658 5.38682 36.873C5.29395 36.7801 5.29395 36.6872 5.29395 36.5943C5.29395 36.5014 5.34038 36.3621 5.43326 36.3157C5.52614 36.2228 5.61902 36.1764 5.7119 36.2228C5.80478 36.2228 5.89766 36.2692 5.99054 36.3621C6.08342 36.455 6.08342 36.5014 6.08342 36.6408ZM9.19486 37.1052L6.40849 37.0123V36.2228L9.19486 36.3157V37.1052Z" fill="#00395C"/>
<path d="M6.73328 32.8792L9.42676 34.133L9.28745 35.0154L6.4082 35.712L6.50108 34.9225L8.54442 34.551V34.5045L6.6404 33.7151L6.73328 32.8792Z" fill="#00395C"/>
<path d="M9.75175 32.1826C9.70531 32.3683 9.65887 32.5076 9.56599 32.647C9.47312 32.7863 9.38024 32.8792 9.24092 32.9256C9.1016 32.972 8.96228 32.972 8.77652 32.972C8.63721 32.9256 8.49789 32.8792 8.40501 32.8327C8.31213 32.7863 8.26569 32.647 8.21925 32.5541C8.17281 32.4612 8.17281 32.3219 8.12637 32.1826C8.07993 32.0432 8.12637 31.9039 8.12637 31.7646C8.12637 31.6253 8.17281 31.486 8.17281 31.3931C8.17281 31.3002 8.17281 31.2073 8.12637 31.1609C8.12637 31.1145 8.07993 31.068 7.98706 31.068C7.89418 31.068 7.8013 31.068 7.70842 31.1145C7.61554 31.1609 7.5691 31.2538 7.5691 31.3931C7.52266 31.5324 7.5691 31.6253 7.61554 31.7182C7.66198 31.8111 7.70842 31.8575 7.8013 31.9039L7.61554 32.6005C7.47622 32.5541 7.3369 32.4148 7.24402 32.3219C7.15115 32.1826 7.05827 32.0432 7.05827 31.8575C7.01183 31.6717 7.01183 31.486 7.05827 31.2538C7.10471 31.1145 7.15115 30.9751 7.19759 30.8358C7.24402 30.6965 7.3369 30.6036 7.42978 30.5107C7.52266 30.4179 7.66198 30.3714 7.75486 30.325C7.89418 30.2786 8.03349 30.2786 8.17281 30.325L10.0304 30.6965L9.89107 31.3931L9.51956 31.3002C9.61243 31.3467 9.65887 31.4395 9.70531 31.5324C9.75175 31.6253 9.79819 31.7182 9.79819 31.8111C9.79819 31.9039 9.75175 32.0432 9.75175 32.1826ZM9.28736 31.8575C9.28736 31.7646 9.28736 31.6253 9.28736 31.5324C9.24092 31.4395 9.19448 31.3467 9.14804 31.3002C9.1016 31.2538 9.00872 31.2073 8.91584 31.1609L8.59077 31.1145C8.59077 31.1609 8.59077 31.1609 8.59077 31.2073C8.59077 31.2538 8.59077 31.3002 8.59077 31.3467C8.59077 31.3931 8.59077 31.4395 8.59077 31.486C8.59077 31.5324 8.59077 31.5789 8.59077 31.6253C8.59077 31.7182 8.59077 31.811 8.59077 31.8575C8.59077 31.9039 8.63721 31.9968 8.68365 32.0432C8.73009 32.0897 8.77653 32.1361 8.8694 32.1361C8.96228 32.1361 9.05516 32.1361 9.14804 32.0897C9.19448 32.0432 9.24092 31.9504 9.28736 31.8575Z" fill="#00395C"/>
<path d="M10.5414 28.9318C10.4485 29.2104 10.3092 29.4426 10.1699 29.582C9.9841 29.7213 9.79834 29.8606 9.56615 29.8606C9.33395 29.907 9.05531 29.8606 8.82311 29.8141C8.54448 29.7213 8.31228 29.582 8.17296 29.4426C7.98721 29.2569 7.89433 29.0711 7.84789 28.8389C7.80145 28.6067 7.80145 28.3745 7.89433 28.0959C7.98721 27.8637 8.08008 27.6779 8.2194 27.5386C8.35872 27.3993 8.49804 27.3064 8.6838 27.2135C8.86955 27.1671 9.05531 27.1671 9.28751 27.2135L9.05531 27.9101C8.91599 27.9101 8.77668 27.9101 8.6838 27.9566C8.59092 28.003 8.49804 28.0959 8.4516 28.2352C8.40516 28.3281 8.40516 28.4674 8.4516 28.5603C8.49804 28.6532 8.54448 28.746 8.63736 28.8389C8.73024 28.9318 8.86955 28.9782 9.05531 29.0247C9.24107 29.0711 9.38039 29.1176 9.51971 29.0711C9.65902 29.0711 9.7519 29.0247 9.84478 28.9782C9.93766 28.9318 9.9841 28.8389 10.0305 28.6996C10.077 28.6067 10.077 28.5138 10.0305 28.4674C9.9841 28.421 9.9841 28.3281 9.93766 28.2352C9.89122 28.1888 9.79834 28.0959 9.70546 28.0959L9.93766 27.3993C10.1234 27.4922 10.3092 27.5851 10.4021 27.7244C10.5414 27.8637 10.5878 28.0495 10.6343 28.2352C10.6343 28.4674 10.6343 28.6996 10.5414 28.9318Z" fill="#00395C"/>
<path d="M12.1674 27.3064C12.121 27.3993 12.0745 27.4921 12.0281 27.5386C11.9816 27.6315 11.9352 27.6779 11.8888 27.7243L11.4244 27.3528C11.4708 27.2599 11.5173 27.2135 11.5637 27.1671C11.6101 27.0742 11.6101 26.9813 11.6101 26.9349C11.6101 26.8884 11.5637 26.7956 11.4708 26.7491L11.3779 26.6562L8.35938 26.4705L8.68445 25.7274L10.7742 26.0061V25.9596L9.14885 24.6129L9.47392 23.8699L11.8888 26.0525C12.0281 26.1454 12.121 26.2847 12.1674 26.3776C12.2138 26.5169 12.2603 26.6562 12.2603 26.7956C12.2603 26.9813 12.2603 27.1206 12.1674 27.3064Z" fill="#00395C"/>
<path d="M9.89105 21.13L13.1418 22.9411L12.7703 23.6377L9.51953 21.8266L9.89105 21.13Z" fill="#00395C"/>
<path d="M12.4918 20.8977L13.8386 21.7801L13.4206 22.4302L11.0986 20.8513L11.5166 20.2476L11.9345 20.5262V20.4798C11.8417 20.3405 11.7952 20.2011 11.7952 20.0154C11.7952 19.8296 11.8417 19.6903 11.981 19.5046C12.0739 19.3652 12.2132 19.2259 12.3525 19.133C12.4918 19.0402 12.6776 19.0402 12.8169 19.0402C12.9562 19.0402 13.1884 19.133 13.3277 19.2724L14.8138 20.2476L14.3958 20.9442L13.0491 20.0154C12.9098 19.9225 12.7705 19.8761 12.6311 19.9225C12.4918 19.9225 12.3989 20.0154 12.3061 20.1547C12.2596 20.2476 12.2132 20.3405 12.2132 20.4333C12.2132 20.5262 12.2132 20.6191 12.2596 20.712C12.3525 20.7584 12.3989 20.8513 12.4918 20.8977Z" fill="#00395C"/>
<path d="M15.3253 19.7832L13.0034 17.9256C12.864 17.7863 12.7247 17.647 12.6783 17.5076C12.6318 17.3683 12.6318 17.229 12.6318 17.0433C12.6783 16.9039 12.7247 16.7646 12.864 16.6253C12.9569 16.5324 13.0034 16.4395 13.0962 16.3931C13.1891 16.3467 13.2355 16.3002 13.282 16.2538L13.6535 16.7182C13.6071 16.7182 13.6071 16.7646 13.5606 16.7646C13.5142 16.8111 13.5142 16.8111 13.4677 16.8575C13.3749 16.9504 13.3749 17.0433 13.3749 17.0897C13.3749 17.1361 13.4213 17.229 13.5142 17.2755L15.8362 19.133L15.3253 19.7832ZM13.9786 16.9968L14.443 17.3683L13.3749 18.7151L12.9105 18.3436L13.9786 16.9968Z" fill="#00395C"/>
<path d="M17.2291 17.6471C17.0433 17.8328 16.8111 17.9721 16.5789 18.065C16.3467 18.1115 16.1146 18.1115 15.8824 18.065C15.6502 18.0186 15.418 17.8793 15.2322 17.6471C15.0464 17.4613 14.8607 17.2291 14.8142 16.9969C14.7214 16.7647 14.7214 16.5325 14.7678 16.3003C14.8142 16.0681 14.9536 15.8359 15.1393 15.6502C15.3251 15.4644 15.5573 15.3251 15.7895 15.2322C16.0217 15.1858 16.2539 15.1858 16.4861 15.2322C16.7183 15.2787 16.9505 15.418 17.1362 15.6502C17.322 15.8359 17.5077 16.0681 17.5542 16.3003C17.6471 16.5325 17.6471 16.7647 17.6006 16.9969C17.5542 17.2291 17.4149 17.4149 17.2291 17.6471ZM16.8111 17.2291C16.904 17.1362 16.9505 17.0434 16.9505 16.904C16.9505 16.8112 16.9505 16.6718 16.8576 16.5325C16.8111 16.3932 16.7183 16.3003 16.5789 16.2074C16.4396 16.1146 16.3467 16.0217 16.2074 15.9752C16.0681 15.9288 15.9752 15.8824 15.8359 15.9288C15.743 15.9288 15.6037 15.9752 15.5108 16.0681C15.418 16.161 15.3715 16.2539 15.3715 16.3932C15.3715 16.4861 15.3715 16.6254 15.4644 16.7647C15.5108 16.904 15.6037 16.9969 15.743 17.0898C15.8824 17.1827 15.9752 17.2756 16.1146 17.322C16.2539 17.3684 16.3467 17.4149 16.4861 17.3684C16.6254 17.322 16.7183 17.322 16.8111 17.2291Z" fill="#00395C"/>
<path d="M18.4826 16.3003L16.625 14.2105L17.1823 13.6997L17.5073 14.0712C17.4145 13.8854 17.4145 13.7461 17.4609 13.6068C17.5073 13.4675 17.5538 13.3281 17.6931 13.2353C17.7395 13.1888 17.7395 13.1888 17.786 13.1424C17.8324 13.0959 17.8789 13.0959 17.8789 13.0959L18.3433 13.6068C18.2968 13.6068 18.2504 13.6532 18.2039 13.6997C18.1575 13.7461 18.1111 13.7925 18.0646 13.7925C17.9717 13.8854 17.9253 13.9319 17.8789 14.0247C17.8324 14.1176 17.8324 14.2105 17.8324 14.3034C17.8324 14.3963 17.8789 14.4891 17.9717 14.582L19.0398 15.7894L18.4826 16.3003Z" fill="#00395C"/>
<path d="M19.9686 14.9535L18.3896 12.678L18.9934 12.26L19.272 12.678H19.3184C19.272 12.4922 19.272 12.3529 19.3184 12.2136C19.3649 12.0743 19.5042 11.9349 19.6435 11.8421C19.7828 11.7492 19.9686 11.7027 20.1079 11.7027C20.2937 11.7027 20.433 11.7492 20.5259 11.8885H20.5723C20.5259 11.7027 20.5259 11.5634 20.6187 11.3777C20.6652 11.1919 20.8045 11.0526 20.9903 10.9597C21.2225 10.8204 21.4082 10.774 21.6404 10.8204C21.8726 10.8668 22.0584 11.0062 22.2441 11.2383L23.3122 12.7708L22.6621 13.1888L21.6868 11.7492C21.594 11.6099 21.5011 11.5634 21.4082 11.517C21.3153 11.517 21.176 11.517 21.0831 11.6099C20.9903 11.7027 20.8974 11.7956 20.8974 11.8885C20.8974 12.0278 20.8974 12.1207 20.9903 12.26L21.9655 13.6532L21.3618 14.0712L20.3865 12.6315C20.2937 12.5387 20.2008 12.4458 20.1079 12.4458C20.015 12.4458 19.8757 12.4458 19.7828 12.5387C19.69 12.5851 19.6435 12.6315 19.6435 12.7244C19.5971 12.8173 19.5971 12.8637 19.5971 12.9566C19.5971 13.0495 19.6435 13.1424 19.69 13.2352L20.6187 14.6284L19.9686 14.9535Z" fill="#00395C"/>
<path d="M24.4733 12.1208C24.3339 12.2136 24.1482 12.2601 24.0089 12.2601C23.8695 12.2601 23.7302 12.2136 23.5909 12.1672C23.4516 12.1208 23.3587 11.9814 23.2658 11.7957C23.1729 11.6564 23.1729 11.517 23.1729 11.4242C23.1729 11.2849 23.2194 11.192 23.2658 11.0991C23.3123 11.0062 23.4051 10.9133 23.498 10.8205C23.5909 10.7276 23.6838 10.6347 23.8231 10.5883C23.9624 10.4954 24.0553 10.4025 24.1482 10.3561C24.2411 10.3096 24.2875 10.2632 24.2875 10.2167C24.3339 10.1703 24.3339 10.1239 24.2875 10.0774C24.2411 9.98455 24.1482 9.89167 24.0553 9.89167C23.9624 9.89167 23.8695 9.89167 23.7302 9.93811C23.5909 9.98455 23.5445 10.0774 23.498 10.1703C23.4516 10.2632 23.4516 10.3561 23.4516 10.4489L22.8014 10.6811C22.755 10.4954 22.755 10.3561 22.8014 10.1703C22.8479 10.031 22.9407 9.84523 23.0336 9.70591C23.1265 9.56659 23.3123 9.42728 23.498 9.3344C23.6373 9.24152 23.7767 9.19508 23.916 9.19508C24.0553 9.19508 24.1946 9.14864 24.3339 9.19508C24.4733 9.19508 24.5661 9.24152 24.7054 9.3344C24.7983 9.42728 24.8912 9.52015 24.9841 9.65947L25.82 11.3313L25.1698 11.6564L24.9841 11.3313C24.9841 11.4242 24.9841 11.517 24.9376 11.6099C24.8912 11.7028 24.8448 11.7957 24.7519 11.8886C24.7054 12.0279 24.6126 12.0743 24.4733 12.1208ZM24.4268 11.5635C24.5197 11.517 24.6126 11.4242 24.659 11.3777C24.7054 11.2849 24.7519 11.192 24.7519 11.0991C24.7519 11.0062 24.7519 10.9133 24.7054 10.8205L24.5661 10.5418C24.5661 10.5883 24.5197 10.5883 24.5197 10.6347C24.4733 10.6811 24.4733 10.6811 24.4268 10.7276C24.3804 10.774 24.3339 10.774 24.2875 10.8205C24.2411 10.8669 24.1946 10.8669 24.1482 10.9133C24.0553 10.9598 24.0089 11.0062 23.9624 11.0991C23.916 11.192 23.8695 11.192 23.8695 11.2849C23.8695 11.3313 23.8695 11.4242 23.916 11.4706C23.9624 11.5635 24.0553 11.6099 24.1482 11.6099C24.2411 11.6564 24.3339 11.6099 24.4268 11.5635Z" fill="#00395C"/>
<path d="M26.6561 8.03404L26.8883 8.59132L25.3558 9.24147L25.0771 8.6842L26.6561 8.03404ZM25.17 7.89473L25.8666 7.61609L26.8418 10.0309C26.8883 10.0774 26.8883 10.1238 26.9347 10.1703C26.9812 10.2167 27.0276 10.2167 27.0276 10.2167C27.074 10.2167 27.1205 10.2167 27.1669 10.1703C27.2134 10.1703 27.2134 10.1238 27.2598 10.1238C27.3062 10.1238 27.3062 10.0774 27.3527 10.0774L27.6778 10.5418C27.6313 10.5882 27.5849 10.5882 27.5384 10.6347C27.492 10.6811 27.3991 10.7275 27.3062 10.774C27.1205 10.8668 26.9812 10.8668 26.8418 10.9133C26.7025 10.9133 26.5632 10.8668 26.4239 10.774C26.2846 10.6811 26.1917 10.5882 26.1453 10.4025L25.17 7.89473Z" fill="#00395C"/>
<path d="M27.4915 7.38389C27.3987 7.43033 27.2593 7.43033 27.1665 7.38389C27.0736 7.33745 26.9807 7.24457 26.9807 7.15169C26.9343 7.05881 26.9343 6.96593 27.0271 6.87305C27.12 6.78017 27.1665 6.6873 27.2593 6.6873C27.3522 6.64086 27.4915 6.64086 27.5844 6.6873C27.6773 6.73373 27.7702 6.82661 27.7702 6.91949C27.8166 7.01237 27.8166 7.10525 27.7237 7.19813C27.6773 7.24457 27.5844 7.33745 27.4915 7.38389ZM28.1417 10.4489L27.2129 7.80184L27.9559 7.56964L28.8847 10.2167L28.1417 10.4489Z" fill="#00395C"/>
<path d="M30.6038 9.75232C30.3252 9.8452 30.093 9.8452 29.8608 9.75232C29.6286 9.70588 29.4428 9.56656 29.2571 9.3808C29.0713 9.19504 28.9784 8.96285 28.8855 8.68421C28.7927 8.40557 28.7927 8.12694 28.8391 7.89474C28.8855 7.66254 29.0249 7.47679 29.1642 7.29103C29.3499 7.10527 29.5357 7.01239 29.8143 6.91951C30.093 6.82663 30.3252 6.82663 30.5574 6.91951C30.7896 6.96595 30.9753 7.10527 31.1611 7.29103C31.3004 7.47679 31.4397 7.70898 31.5326 7.98762C31.6255 8.26626 31.6255 8.49845 31.579 8.77709C31.5326 9.00929 31.3933 9.19504 31.2539 9.3808C31.1146 9.56656 30.8824 9.65944 30.6038 9.75232ZM30.4645 9.19504C30.6038 9.1486 30.6967 9.10216 30.7431 9.00929C30.7896 8.91641 30.836 8.82353 30.836 8.68421C30.836 8.54489 30.836 8.40557 30.7896 8.26626C30.7431 8.12694 30.6967 7.98762 30.6038 7.8483C30.5109 7.75542 30.418 7.66254 30.3252 7.6161C30.2323 7.56966 30.093 7.56966 30.0001 7.56966C29.8608 7.6161 29.7679 7.66254 29.7214 7.75542C29.675 7.8483 29.6286 7.94118 29.6286 8.0805C29.6286 8.21982 29.6286 8.35913 29.675 8.49845C29.7214 8.63777 29.7679 8.77709 29.8608 8.91641C29.9536 9.00929 30.0465 9.10217 30.1394 9.1486C30.2323 9.19504 30.3716 9.19504 30.4645 9.19504Z" fill="#00395C"/>
<path d="M32.8786 7.56971L33.1107 9.14865L32.3213 9.28797L31.9033 6.50161L32.6464 6.40873L32.7392 6.87312H32.7857C32.8321 6.68737 32.925 6.54805 33.0179 6.45517C33.1107 6.36229 33.2965 6.26941 33.5287 6.22297C33.7145 6.17653 33.9002 6.22297 34.0395 6.26941C34.1789 6.31585 34.3182 6.45517 34.411 6.59449C34.5039 6.7338 34.5968 6.91956 34.5968 7.15176L34.8754 8.91646L34.1324 9.05578L33.9002 7.4304C33.8538 7.24464 33.8073 7.15176 33.7145 7.05888C33.6216 6.966 33.4823 6.966 33.3429 6.966C33.2501 6.966 33.1572 7.01244 33.0643 7.05888C32.9714 7.10532 32.925 7.1982 32.925 7.29108C32.8321 7.33752 32.8321 7.4304 32.8786 7.56971Z" fill="#00395C"/>
<path d="M36.6407 5.0155H37.616L38.5912 7.52323H38.6376L39.7057 5.06194H40.681L40.5881 8.77709H39.8451L39.8915 6.36225H39.8451L38.8234 8.73066H38.3126L37.3838 6.31581H37.3373L37.2909 8.73066H36.5479L36.6407 5.0155Z" fill="#00395C"/>
<path d="M41.8878 9.05567C41.702 9.00923 41.5627 8.9628 41.4234 8.86992C41.2841 8.77704 41.1912 8.68416 41.1448 8.54484C41.0983 8.40552 41.0519 8.2662 41.0983 8.08045C41.1448 7.94113 41.1912 7.80181 41.2377 7.70893C41.3305 7.61605 41.377 7.52317 41.5163 7.47673C41.6556 7.43029 41.7485 7.38386 41.8878 7.38386C42.0271 7.38386 42.1664 7.38386 42.3058 7.38386C42.4915 7.38386 42.5844 7.38386 42.6773 7.38386C42.7702 7.38386 42.863 7.38386 42.9095 7.33742C42.9559 7.33742 43.0024 7.29098 43.0024 7.1981C43.0024 7.10522 43.0024 7.01234 42.9559 6.91946C42.9095 6.82658 42.8166 6.78014 42.6773 6.78014C42.538 6.78014 42.4451 6.78014 42.3522 6.82658C42.2593 6.87302 42.2129 6.91946 42.1664 7.01234L41.4699 6.82658C41.5163 6.68726 41.6092 6.54795 41.7485 6.40863C41.8878 6.31575 42.0271 6.22287 42.2129 6.17643C42.3986 6.12999 42.5844 6.12999 42.8166 6.17643C42.9559 6.22287 43.0952 6.22287 43.2345 6.31575C43.3739 6.36219 43.4667 6.45507 43.6061 6.54795C43.7454 6.64083 43.7918 6.7337 43.8383 6.87302C43.8847 7.01234 43.8847 7.15166 43.8847 7.29098L43.6061 9.14855H42.7237L42.7702 8.77704C42.7237 8.86992 42.6308 8.91636 42.538 8.96279C42.4451 9.00923 42.3522 9.05567 42.2593 9.05567C42.12 9.10211 41.9807 9.10211 41.8878 9.05567ZM42.1664 8.59128C42.2593 8.59128 42.3986 8.59128 42.4915 8.59128C42.5844 8.59128 42.6773 8.4984 42.7237 8.45196C42.7702 8.40552 42.8166 8.31264 42.8166 8.21976L42.863 7.94113C42.8166 7.94113 42.8166 7.94113 42.7702 7.98757C42.7237 7.98757 42.6773 7.98757 42.6308 7.98757C42.5844 7.98757 42.538 7.98757 42.4915 7.98757C42.4451 7.98757 42.3986 7.98757 42.3522 7.98757C42.2593 7.98757 42.1664 7.98757 42.12 8.03401C42.0271 8.03401 41.9807 8.08045 41.9342 8.12689C41.8878 8.17333 41.8414 8.21976 41.8414 8.31264C41.8414 8.40552 41.8414 8.4984 41.9342 8.54484C41.9807 8.54484 42.0271 8.54484 42.1664 8.59128Z" fill="#00395C"/>
<path d="M45.0926 7.98768L44.6747 9.56662L43.9316 9.38086L44.6282 6.68738L45.3248 6.87314L45.1855 7.33753H45.2319C45.3248 7.19821 45.4641 7.10533 45.6499 7.05889C45.8357 7.01245 45.975 7.01245 46.2072 7.05889C46.3929 7.10533 46.5322 7.19821 46.6716 7.29109C46.8109 7.43041 46.8573 7.56973 46.9038 7.70905C46.9502 7.84836 46.9502 8.08056 46.8573 8.26632L46.3929 9.98458L45.6499 9.79882L46.0679 8.21988C46.1143 8.03412 46.1143 7.8948 46.0214 7.80192C45.975 7.70904 45.8357 7.61617 45.6963 7.56973C45.6035 7.52329 45.5106 7.52329 45.4177 7.56973C45.3248 7.56973 45.2319 7.66261 45.1855 7.70905C45.1391 7.75548 45.1391 7.8948 45.0926 7.98768Z" fill="#00395C"/>
<path d="M47.6469 10.4953C47.4612 10.4489 47.3219 10.356 47.229 10.2167C47.1361 10.1238 47.0432 9.98448 46.9968 9.84516C46.9503 9.70584 46.9968 9.56653 47.0432 9.38077C47.0897 9.24145 47.1825 9.10213 47.2754 9.05569C47.3683 8.96281 47.4612 8.91637 47.6005 8.91637C47.7398 8.91637 47.8327 8.86993 47.972 8.91637C48.1113 8.91637 48.2506 8.96281 48.3435 9.00925C48.4828 9.05569 48.6222 9.10213 48.715 9.10213C48.8079 9.10213 48.9008 9.14857 48.9472 9.10213C48.9937 9.05569 49.0401 9.05569 49.0401 9.00925C49.0865 8.91637 49.0865 8.82349 49.0401 8.73062C48.9937 8.63774 48.9008 8.5913 48.8079 8.54486C48.6686 8.49842 48.5757 8.49842 48.4828 8.49842C48.39 8.54486 48.2971 8.5913 48.2506 8.63774L47.6005 8.31266C47.6934 8.17334 47.8327 8.03402 47.972 7.98759C48.1113 7.89471 48.2971 7.84827 48.4364 7.84827C48.6222 7.84827 48.8079 7.89471 49.0401 7.94115C49.1794 7.98759 49.3187 8.08046 49.4581 8.1269C49.5974 8.17334 49.6903 8.31266 49.7367 8.40554C49.8296 8.49842 49.876 8.63774 49.876 8.77705C49.876 8.91637 49.876 9.05569 49.8296 9.19501L49.1794 10.9597L48.4828 10.6811L48.6222 10.3096C48.5293 10.356 48.4828 10.4024 48.39 10.4489C48.2971 10.4953 48.2042 10.4953 48.0649 10.4953C47.8791 10.5882 47.7862 10.5418 47.6469 10.4953ZM48.0184 10.0774C48.1113 10.1238 48.2042 10.1238 48.3435 10.1238C48.4364 10.1238 48.5293 10.0774 48.6222 10.0309C48.715 9.98448 48.7615 9.8916 48.8079 9.79872L48.9008 9.52009C48.8544 9.52009 48.8544 9.52009 48.8079 9.52009C48.7615 9.52009 48.715 9.52009 48.6686 9.52009C48.6222 9.52009 48.5757 9.52009 48.5293 9.47365C48.4828 9.42721 48.4364 9.47365 48.39 9.42721C48.2971 9.42721 48.2042 9.38077 48.1578 9.38077C48.0649 9.38077 48.0184 9.38077 47.972 9.42721C47.9256 9.47365 47.8791 9.52009 47.8327 9.56653C47.7862 9.6594 47.7862 9.75228 47.8327 9.84516C47.8327 9.98448 47.9256 10.0309 48.0184 10.0774Z" fill="#00395C"/>
<path d="M50.2007 12.7708C49.9685 12.678 49.7828 12.5386 49.6899 12.3993C49.5506 12.26 49.4577 12.1207 49.4577 11.9814C49.4112 11.842 49.4112 11.7027 49.4577 11.517L50.1543 11.7492C50.1543 11.7956 50.1543 11.8885 50.1543 11.9349C50.1543 11.9814 50.2007 12.0742 50.2471 12.1207C50.2936 12.1671 50.3865 12.26 50.4793 12.3064C50.6187 12.3993 50.758 12.3993 50.8973 12.3993C51.0366 12.3529 51.1295 12.26 51.2224 12.1207L51.4546 11.6563H51.4081C51.3617 11.7027 51.2688 11.7492 51.1759 11.7956C51.0831 11.842 50.9902 11.842 50.8509 11.842C50.758 11.842 50.6187 11.7956 50.4793 11.7492C50.2936 11.6563 50.1543 11.517 50.015 11.3777C49.9221 11.1919 49.8292 11.0061 49.8292 10.7739C49.8292 10.5417 49.8756 10.3095 50.015 10.0309C50.1543 9.75227 50.34 9.52007 50.5258 9.38076C50.7115 9.24144 50.8973 9.14856 51.1295 9.14856C51.3153 9.14856 51.501 9.14856 51.6868 9.24144C51.8261 9.33432 51.919 9.38076 52.0118 9.47363C52.1047 9.56651 52.1512 9.65939 52.1512 9.75227C52.1512 9.84515 52.1976 9.93803 52.1976 10.0309H52.244L52.4762 9.61295L53.1728 9.93803L51.919 12.4458C51.8261 12.678 51.6868 12.8173 51.501 12.9102C51.3153 13.003 51.1295 13.0495 50.8973 13.003C50.6651 12.9566 50.4329 12.8637 50.2007 12.7708ZM50.9902 11.2383C51.0831 11.2848 51.2224 11.3312 51.3153 11.2848C51.4081 11.2383 51.501 11.2383 51.5939 11.1455C51.6868 11.0526 51.7797 10.9597 51.8261 10.8204C51.919 10.6811 51.9654 10.5417 51.9654 10.4024C51.9654 10.2631 51.9654 10.1702 51.919 10.0773C51.8725 9.98447 51.7797 9.89159 51.6868 9.84515C51.5939 9.79871 51.4546 9.75227 51.3617 9.79871C51.2688 9.79871 51.1295 9.89159 51.0366 9.98447C50.9437 10.0773 50.8509 10.1702 50.8044 10.3095C50.7115 10.4489 50.7115 10.5882 50.6651 10.7275C50.6651 10.8668 50.6651 10.9597 50.7115 11.0526C50.8044 11.099 50.8973 11.1919 50.9902 11.2383Z" fill="#00395C"/>
<path d="M53.405 13.3746C53.1728 13.2353 52.9871 13.0495 52.8942 12.8173C52.8013 12.5851 52.7549 12.3993 52.7549 12.1207C52.7549 11.8885 52.8478 11.6563 53.0335 11.3777C53.1728 11.1455 53.3586 10.9597 53.5908 10.8204C53.823 10.6811 54.0087 10.6346 54.2409 10.6346C54.4731 10.6346 54.7053 10.7275 54.9375 10.8668C55.0769 10.9597 55.2162 11.099 55.3091 11.2384C55.4019 11.3777 55.4948 11.517 55.4948 11.7028C55.4948 11.8885 55.5412 12.0278 55.4948 12.2136C55.4484 12.3993 55.3555 12.5851 55.2626 12.7709L55.1697 12.9566L53.1728 11.7028L53.4515 11.2848L54.7982 12.1671C54.8447 12.0743 54.8911 11.9814 54.8911 11.8885C54.8911 11.7956 54.8911 11.7028 54.8447 11.6099C54.7982 11.517 54.7518 11.4706 54.6125 11.3777C54.5196 11.3312 54.4267 11.2848 54.2874 11.2848C54.1945 11.2848 54.1016 11.2848 54.0087 11.3312C53.9159 11.3777 53.823 11.4706 53.7766 11.5634L53.5444 11.9349C53.4515 12.0278 53.405 12.1671 53.405 12.26C53.405 12.3529 53.405 12.4922 53.4515 12.5851C53.4979 12.678 53.5908 12.7709 53.6837 12.8173C53.7765 12.8637 53.823 12.9102 53.9159 12.9102C54.0087 12.9102 54.0552 12.9102 54.1481 12.9102C54.1945 12.9102 54.2874 12.8637 54.3338 12.8173L54.8911 13.2353C54.7518 13.3746 54.6125 13.4674 54.4731 13.5139C54.3338 13.5603 54.1481 13.5603 53.9623 13.5139C53.823 13.6068 53.6372 13.5139 53.405 13.3746Z" fill="#00395C"/>
<path d="M54.8916 14.2569L56.7027 12.1207L57.26 12.5851L56.9349 12.9566H56.9814C57.1207 12.8638 57.3065 12.8173 57.4458 12.8638C57.6315 12.8638 57.7708 12.9566 57.9102 13.0495C58.0495 13.1888 58.1424 13.3282 58.1888 13.4675C58.2352 13.6068 58.2352 13.7925 58.1424 13.9319C58.2817 13.839 58.4674 13.839 58.6068 13.839C58.7461 13.839 58.9318 13.9319 59.1176 14.0712C59.3033 14.2569 59.4427 14.4427 59.4427 14.6749C59.4427 14.9071 59.3498 15.1393 59.164 15.3715L57.9566 16.8111L57.3529 16.3003L58.4674 15C58.5603 14.8607 58.6068 14.7678 58.6068 14.6749C58.6068 14.582 58.5603 14.4891 58.4674 14.3963C58.3746 14.3034 58.2352 14.2569 58.1424 14.3034C58.003 14.3034 57.9102 14.3963 57.8173 14.4891L56.7027 15.7894L56.1455 15.325L57.26 13.9783C57.3529 13.8854 57.3993 13.7461 57.3993 13.6532C57.3993 13.5603 57.3529 13.421 57.26 13.3746C57.2136 13.3282 57.1207 13.2817 57.0278 13.2817C56.9349 13.2817 56.8885 13.2817 56.7956 13.3282C56.7027 13.3746 56.6563 13.421 56.5634 13.5139L55.4953 14.8142L54.8916 14.2569Z" fill="#00395C"/>
<path d="M59.1169 18.2043C58.9311 17.9721 58.7918 17.7863 58.7453 17.5541C58.6989 17.3219 58.6989 17.0897 58.7918 16.8575C58.8847 16.6253 59.024 16.4396 59.2562 16.2074C59.4884 16.0216 59.6741 15.8823 59.9063 15.8359C60.1385 15.7894 60.3707 15.7894 60.6029 15.8359C60.8351 15.8823 61.0209 16.0216 61.2066 16.2538C61.346 16.3931 61.4388 16.5324 61.4853 16.6718C61.5317 16.8111 61.5782 16.9968 61.5782 17.1362C61.5782 17.3219 61.5317 17.4612 61.4388 17.647C61.346 17.8328 61.2066 17.9721 61.0673 18.1578L60.928 18.2971L59.3491 16.5789L59.7206 16.2538L60.8351 17.4612C60.928 17.3684 60.9744 17.3219 61.0209 17.229C61.0673 17.1362 61.0673 17.0433 61.0209 16.9504C61.0209 16.8575 60.9744 16.7646 60.8816 16.6718C60.7887 16.5789 60.6958 16.5324 60.6029 16.486C60.51 16.4396 60.4172 16.4396 60.3243 16.486C60.2314 16.486 60.1385 16.5789 60.0457 16.6253L59.7206 16.9504C59.6277 17.0433 59.5348 17.1362 59.4884 17.229C59.4419 17.3219 59.4419 17.4612 59.4419 17.5541C59.4419 17.647 59.5348 17.7399 59.6277 17.8792C59.6741 17.9256 59.767 17.9721 59.8135 18.0185C59.8599 18.0649 59.9528 18.0649 59.9992 18.0649C60.0921 18.0649 60.1385 18.0649 60.2314 18.0185L60.6958 18.5758C60.5565 18.6687 60.3707 18.7151 60.2314 18.7151C60.0457 18.7151 59.9063 18.6687 59.7206 18.5758C59.4419 18.5293 59.2562 18.39 59.1169 18.2043Z" fill="#00395C"/>
<path d="M62.043 19.1331L60.7427 20.1084L60.2783 19.5047L62.5074 17.8793L62.9254 18.483L62.5074 18.7616V18.8081C62.6932 18.7616 62.8325 18.7616 63.0182 18.8081C63.204 18.8545 63.3433 18.9938 63.4362 19.1331C63.5291 19.2725 63.622 19.4582 63.622 19.5975C63.622 19.7833 63.622 19.9226 63.5291 20.0619C63.4362 20.2012 63.3433 20.3406 63.1576 20.4799L61.7179 21.548L61.2535 20.9443L62.5538 19.969C62.6932 19.8762 62.786 19.7368 62.786 19.644C62.8325 19.5047 62.786 19.4118 62.6932 19.2725C62.6467 19.1796 62.5539 19.1331 62.461 19.0867C62.3681 19.0403 62.2752 19.0403 62.1823 19.0403C62.2288 18.9938 62.1359 19.0403 62.043 19.1331Z" fill="#00395C"/>
<path d="M65.1082 20.3405L65.5262 20.9906L63.2971 22.3373C63.2507 22.3838 63.2042 22.4302 63.1578 22.4302C63.1113 22.4302 63.1113 22.5231 63.1578 22.5695C63.2042 22.616 63.2042 22.6624 63.2042 22.7089C63.2042 22.7553 63.2507 22.7553 63.2507 22.8017C63.2971 22.8482 63.2971 22.8482 63.2971 22.8482L62.8791 23.2661C62.8327 23.2197 62.7863 23.2197 62.7398 23.1268C62.6934 23.0804 62.6469 22.9875 62.6005 22.9411C62.5076 22.8017 62.4147 22.616 62.4147 22.4767C62.3683 22.3373 62.4147 22.198 62.4612 22.0587C62.5076 21.9194 62.6469 21.8265 62.7863 21.7336L65.1082 20.3405ZM65.2476 21.7801L64.7367 22.0587L63.8544 20.6191L64.3652 20.3405L65.2476 21.7801Z" fill="#00395C"/>
<path d="M66.826 25.4488C66.9653 25.3559 67.0117 25.263 67.0582 25.1237C67.1046 24.9844 67.0582 24.8451 67.0117 24.6593C66.9653 24.52 66.9188 24.4271 66.826 24.3807C66.7795 24.3343 66.6866 24.2878 66.5938 24.2414C66.5009 24.2414 66.4544 24.2414 66.3616 24.2414C66.3151 24.2878 66.2687 24.2878 66.2223 24.3343C66.1758 24.3807 66.1758 24.4271 66.1758 24.52C66.1758 24.5664 66.1758 24.6593 66.1758 24.7522C66.1758 24.8451 66.1758 24.8915 66.2223 24.9844L66.2687 25.3095C66.3151 25.4952 66.3151 25.6346 66.3151 25.7739C66.3151 25.9132 66.3151 26.0525 66.2687 26.1918C66.2223 26.3311 66.1758 26.424 66.0829 26.5169C65.9901 26.6098 65.8972 26.7027 65.7579 26.7491C65.5721 26.842 65.3399 26.8884 65.1541 26.842C64.9684 26.7955 64.7826 26.7027 64.5969 26.5633C64.4111 26.424 64.2718 26.1918 64.1789 25.9132C64.0396 25.6346 63.9932 25.4024 63.9932 25.1237C63.9932 24.8915 64.0396 24.6593 64.1789 24.4736C64.2718 24.2878 64.4576 24.1485 64.7362 24.0092L65.0613 24.7058C64.9684 24.7522 64.8755 24.8451 64.8291 24.938C64.7826 25.0308 64.7362 25.1237 64.7826 25.263C64.7826 25.3559 64.8291 25.4952 64.8755 25.6346C64.9219 25.7739 65.0148 25.8668 65.0613 25.9132C65.1542 26.0061 65.2006 26.0525 65.2935 26.0525C65.3863 26.0525 65.4792 26.0525 65.5257 26.0525C65.6185 26.0061 65.665 25.9596 65.7114 25.9132C65.7579 25.8668 65.7579 25.7739 65.7579 25.681C65.7579 25.5881 65.7579 25.4488 65.7114 25.3095L65.6185 24.8915C65.5721 24.5664 65.5721 24.2878 65.665 24.0556C65.7579 23.8234 65.8972 23.6377 66.1758 23.5448C66.3616 23.4519 66.5938 23.4519 66.7795 23.4519C66.9653 23.4983 67.151 23.5912 67.3368 23.7305C67.5226 23.8699 67.6619 24.1021 67.7548 24.3343C67.8476 24.5665 67.9405 24.8451 67.8941 25.0308C67.8941 25.263 67.8476 25.4488 67.7083 25.6346C67.569 25.8203 67.4297 25.9596 67.2439 26.0525L66.826 25.4488Z" fill="#00395C"/>
<path d="M64.0396 28.421C63.9932 28.3281 63.9932 28.2352 63.9932 28.1424C63.9932 28.0495 63.9932 28.003 63.9932 27.9102H64.5969C64.5969 28.003 64.5969 28.0959 64.6433 28.1424C64.6433 28.2352 64.6898 28.2817 64.7362 28.3281C64.7826 28.3746 64.8755 28.3746 64.9684 28.421H65.1077L67.5226 26.6099L67.7548 27.3993L65.9901 28.5603V28.6068L68.1263 28.5603L68.3585 29.3498L65.1077 29.2569C64.9684 29.2569 64.7826 29.2105 64.6898 29.164C64.5504 29.1176 64.4576 29.0247 64.3182 28.9318C64.1789 28.7461 64.086 28.5603 64.0396 28.421Z" fill="#00395C"/>
<path d="M68.1733 32.2754L67.9875 31.5788C68.034 31.5324 68.0804 31.5324 68.1268 31.4859C68.1733 31.4395 68.1733 31.3931 68.2197 31.3002C68.2197 31.2073 68.2197 31.1609 68.2197 31.068C68.1733 30.9287 68.1268 30.8358 68.0804 30.7894C68.034 30.6965 67.9411 30.6965 67.8482 30.6965C67.8018 30.6965 67.7553 30.7429 67.7089 30.7894C67.6624 30.8358 67.6624 30.9287 67.6624 31.068V31.5788C67.6624 31.8575 67.616 32.0897 67.5231 32.229C67.4302 32.3683 67.2909 32.4612 67.1052 32.5076C66.9194 32.554 66.7801 32.5076 66.5943 32.4612C66.455 32.3683 66.3157 32.2754 66.1764 32.0897C66.0835 31.9039 65.9906 31.7181 65.9442 31.4859C65.8513 31.1144 65.8977 30.8358 65.9906 30.5572C66.0835 30.325 66.2693 30.1392 66.5479 30.0463L66.7336 30.7894C66.6408 30.8358 66.5479 30.9287 66.5015 31.0215C66.455 31.1144 66.455 31.2537 66.5015 31.3931C66.5479 31.5324 66.5943 31.6253 66.6408 31.7181C66.6872 31.7646 66.7801 31.811 66.873 31.811C66.9194 31.811 67.0123 31.7646 67.0123 31.6717C67.0587 31.6253 67.0587 31.5324 67.0587 31.3931V30.8822C67.0587 30.6036 67.1052 30.3714 67.198 30.2321C67.2909 30.0928 67.4767 29.9534 67.6624 29.9534C67.8482 29.907 67.9875 29.9534 68.1268 29.9999C68.2662 30.0463 68.4055 30.1856 68.4983 30.325C68.5912 30.4643 68.6841 30.6965 68.7305 30.9287C68.8234 31.2537 68.777 31.5788 68.6841 31.811C68.5912 32.0432 68.4055 32.1825 68.1733 32.2754Z" fill="#00395C"/>
<path d="M69.7055 32.9255L69.7984 33.6686L67.2442 33.9936C67.1513 33.9936 67.1049 34.0401 67.1049 34.0401C67.0585 34.0865 67.0585 34.0865 67.012 34.133C67.012 34.1794 67.012 34.2258 67.012 34.2723C67.012 34.3187 67.012 34.3652 67.0585 34.3652C67.0585 34.4116 67.0585 34.4116 67.1049 34.458L66.5476 34.6438C66.5476 34.5974 66.5012 34.5509 66.5012 34.5045C66.4547 34.458 66.4548 34.3652 66.4548 34.2723C66.4083 34.0865 66.4083 33.9008 66.4548 33.7614C66.5012 33.6221 66.5476 33.4828 66.6869 33.3899C66.7798 33.2971 66.9191 33.2506 67.1049 33.2042L69.7055 32.9255ZM69.2411 34.2723L68.6838 34.3652L68.4516 32.6933L69.0089 32.6005L69.2411 34.2723Z" fill="#00395C"/>
<path d="M66.501 36.3157C66.501 36.0371 66.5474 35.7584 66.6403 35.5727C66.7332 35.3405 66.9189 35.2012 67.1047 35.0619C67.3369 34.9225 67.5691 34.8761 67.8477 34.8761C68.1264 34.8761 68.405 34.9225 68.5907 35.0154C68.8229 35.1083 69.0087 35.2476 69.1016 35.4798C69.2409 35.6656 69.2873 35.8978 69.3338 36.1764C69.3338 36.3622 69.3338 36.5479 69.2873 36.6872C69.2409 36.8266 69.148 37.0123 69.0551 37.1052C68.9623 37.2445 68.8229 37.3374 68.6372 37.3838C68.4514 37.4767 68.2657 37.4767 68.0335 37.5231H67.8013L67.7084 35.1547H68.1728L68.2192 36.7801C68.3121 36.7801 68.4514 36.7337 68.4979 36.6872C68.5908 36.6408 68.6372 36.5479 68.6836 36.5015C68.7301 36.455 68.7301 36.3157 68.7301 36.2228C68.7301 36.0835 68.6836 35.9906 68.6372 35.8978C68.5908 35.8049 68.4979 35.7584 68.405 35.712C68.3121 35.6656 68.2192 35.6656 68.0799 35.6656H67.6155C67.4762 35.6656 67.3369 35.712 67.244 35.7584C67.1511 35.8049 67.0583 35.8978 67.0118 35.9906C66.9654 36.0835 66.9189 36.2228 66.9654 36.3157C66.9654 36.4086 66.9654 36.5015 67.0118 36.5479C67.0583 36.6408 67.0583 36.6872 67.1511 36.7337C67.1976 36.7801 67.244 36.8266 67.3369 36.8266V37.5231C67.1511 37.4767 67.0118 37.4303 66.8725 37.3374C66.7332 37.2445 66.6403 37.1052 66.5474 36.9194C66.5474 36.7337 66.501 36.5479 66.501 36.3157Z" fill="#00395C"/>
<path d="M66.6401 37.9874L69.4264 38.2196L69.38 38.9627L68.8692 38.9162V38.9627C69.0085 39.0555 69.1478 39.1484 69.2407 39.2877C69.3336 39.427 69.3336 39.6128 69.3336 39.7986C69.3336 39.9843 69.2407 40.1701 69.1478 40.263C69.0549 40.4023 68.9156 40.4487 68.7298 40.4952V40.5416C68.8692 40.6345 69.0085 40.7274 69.1014 40.8667C69.1942 41.006 69.1942 41.1917 69.1942 41.4239C69.1942 41.7026 69.0549 41.8883 68.8692 42.0277C68.6834 42.167 68.4512 42.2134 68.1261 42.2134L66.2686 42.0277L66.315 41.2382L68.0333 41.3775C68.1726 41.3775 68.3119 41.3775 68.4048 41.2846C68.4976 41.1917 68.5441 41.0989 68.5441 41.006C68.5441 40.8667 68.5441 40.7738 68.4512 40.6809C68.3583 40.588 68.2654 40.5416 68.1261 40.5416L66.4543 40.4023L66.5008 39.6592L68.219 39.7986C68.3583 39.7986 68.4512 39.7986 68.5441 39.7057C68.637 39.6128 68.6834 39.5199 68.6834 39.427C68.6834 39.3342 68.6834 39.2413 68.637 39.1949C68.5905 39.102 68.5441 39.0555 68.4512 39.0091C68.3583 38.9627 68.3119 38.9162 68.1726 38.9162L66.5008 38.7769L66.6401 37.9874Z" fill="#00395C"/>
<path d="M24.7984 52.3372V51.8264L26.0058 50.7118C26.0987 50.6189 26.1916 50.5261 26.2845 50.4332C26.3773 50.3403 26.4238 50.2939 26.4238 50.201C26.4702 50.1081 26.4702 50.0617 26.4702 49.9688C26.4702 49.8759 26.4702 49.783 26.4238 49.6902C26.3773 49.5973 26.3309 49.5508 26.238 49.5044C26.1451 49.458 26.0523 49.458 25.9594 49.458C25.8665 49.458 25.7736 49.458 25.6807 49.5044C25.5879 49.5508 25.5414 49.5973 25.495 49.6902C25.4485 49.783 25.4485 49.8759 25.4485 49.9688H24.752C24.752 49.7366 24.7984 49.5508 24.8913 49.3651C24.9841 49.1793 25.1235 49.0864 25.3092 48.9936C25.495 48.9007 25.6807 48.8542 25.9594 48.8542C26.1916 48.8542 26.4238 48.9007 26.6095 48.9936C26.7953 49.0864 26.9346 49.1793 27.0275 49.3651C27.1204 49.5044 27.1668 49.6902 27.1668 49.8759C27.1668 50.0152 27.1204 50.1546 27.0739 50.2474C27.0275 50.3867 26.9346 50.5261 26.7953 50.6654C26.656 50.8047 26.4702 50.9905 26.238 51.2227L25.7272 51.6871V51.7335H27.1668V52.3372H24.7984Z" fill="#00395C"/>
<path d="M27.8631 52.3372L29.2562 49.5509H27.6309V48.9471H30.0457V49.5509L28.6525 52.3837H27.8631V52.3372Z" fill="#00395C"/>
<path d="M30.7429 52.3372L32.1361 49.5509H30.5107V48.9471H32.9256V49.5509L31.5324 52.3837H30.7429V52.3372Z" fill="#00395C"/>
<path d="M34.6901 52.3836C34.4114 52.3836 34.1792 52.2908 33.947 52.1514C33.7148 52.0121 33.5755 51.8264 33.4826 51.5477C33.3898 51.2691 33.2969 50.944 33.2969 50.5725C33.2969 50.201 33.3433 49.8759 33.4826 49.6437C33.5755 49.3651 33.7613 49.1793 33.947 49.04C34.1328 48.9007 34.4114 48.8542 34.6901 48.8542C34.9687 48.8542 35.2009 48.9007 35.4331 49.04C35.6188 49.1793 35.8046 49.3651 35.8975 49.6437C35.9904 49.9224 36.0832 50.201 36.0832 50.5725C36.0832 50.944 36.0368 51.2691 35.8975 51.5477C35.7582 51.8264 35.6188 52.0121 35.4331 52.1514C35.2009 52.3372 34.9687 52.3836 34.6901 52.3836ZM34.6901 51.7799C34.8758 51.7799 35.0616 51.6871 35.1545 51.5013C35.2473 51.3155 35.3402 50.9905 35.3402 50.6189C35.3402 50.3403 35.2938 50.1546 35.2473 49.9688C35.2009 49.783 35.108 49.6902 35.0151 49.5973C34.9223 49.5044 34.8294 49.458 34.6901 49.458C34.5043 49.458 34.3185 49.5508 34.2257 49.7366C34.1328 49.9224 34.0399 50.201 34.0399 50.6189C34.0399 50.8976 34.0863 51.0833 34.1328 51.2691C34.1792 51.4549 34.2721 51.5942 34.365 51.6406C34.4579 51.6871 34.5507 51.7799 34.6901 51.7799Z" fill="#00395C"/>
<path d="M38.0335 48.9007V52.2908H37.2904V49.5508L36.501 50.0617V49.4115L37.3369 48.8542H38.0335V48.9007Z" fill="#00395C"/>
<path d="M39.2871 50.5726C39.1942 50.5726 39.1013 50.5261 39.0085 50.4332C38.9156 50.3404 38.8691 50.2475 38.8691 50.1546C38.8691 50.0617 38.9156 49.9688 39.0085 49.876C39.1013 49.7831 39.1942 49.7831 39.2871 49.7831C39.38 49.7831 39.4729 49.8295 39.5657 49.876C39.6586 49.9224 39.7051 50.0617 39.7051 50.1546C39.7051 50.2475 39.7051 50.2939 39.6586 50.3404C39.6122 50.3868 39.5657 50.4332 39.5193 50.4797C39.4264 50.5726 39.3335 50.5726 39.2871 50.5726ZM39.2871 52.3837C39.1942 52.3837 39.1013 52.3373 39.0085 52.2444C38.9156 52.1515 38.8691 52.0586 38.8691 51.9657C38.8691 51.8729 38.9156 51.78 39.0085 51.6871C39.1013 51.5942 39.1942 51.5478 39.2871 51.5478C39.38 51.5478 39.4729 51.5942 39.5657 51.6871C39.6586 51.78 39.7051 51.8729 39.7051 51.9657C39.7051 52.0586 39.7051 52.1051 39.6586 52.1515C39.6122 52.1979 39.5657 52.2444 39.5193 52.2908C39.4264 52.3372 39.3335 52.3837 39.2871 52.3837Z" fill="#00395C"/>
<path d="M40.2623 52.3372V51.8264L41.4697 50.7118C41.5626 50.6189 41.6554 50.5261 41.7483 50.4332C41.8412 50.3403 41.8876 50.2939 41.8876 50.201C41.8876 50.1081 41.9341 50.0617 41.9341 49.9688C41.9341 49.8759 41.9341 49.783 41.8876 49.6902C41.8412 49.5973 41.7948 49.5508 41.7019 49.5044C41.609 49.458 41.5161 49.458 41.4232 49.458C41.3304 49.458 41.2375 49.458 41.1446 49.5044C41.0517 49.5508 41.0053 49.5973 40.9589 49.6902C40.9124 49.783 40.9124 49.8759 40.9124 49.9688H40.2158C40.2158 49.7366 40.2623 49.5508 40.3551 49.3651C40.448 49.1793 40.5873 49.0864 40.7731 48.9936C40.9589 48.9007 41.1446 48.8542 41.4232 48.8542C41.6554 48.8542 41.8876 48.9007 42.0734 48.9936C42.2592 49.0864 42.3985 49.1793 42.4914 49.3651C42.5842 49.5044 42.6307 49.6902 42.6307 49.8759C42.6307 50.0152 42.5842 50.1546 42.5378 50.2474C42.4914 50.3867 42.3985 50.5261 42.2592 50.6654C42.1198 50.8047 41.9341 50.9905 41.7019 51.2227L41.191 51.6871V51.7335H42.6307V52.3372H40.2623Z" fill="#00395C"/>
<path d="M44.5348 52.3836C44.2561 52.3836 44.024 52.2908 43.7918 52.1514C43.5596 52.0121 43.4202 51.8264 43.3274 51.5477C43.2345 51.2691 43.1416 50.944 43.1416 50.5725C43.1416 50.201 43.188 49.8759 43.3274 49.6437C43.4202 49.3651 43.606 49.1793 43.7918 49.04C43.9775 48.9007 44.2561 48.8542 44.5348 48.8542C44.8134 48.8542 45.0456 48.9007 45.2778 49.04C45.4636 49.1793 45.6493 49.3651 45.7422 49.6437C45.8351 49.9224 45.928 50.201 45.928 50.5725C45.928 50.944 45.8815 51.2691 45.7422 51.5477C45.6493 51.8264 45.4636 52.0121 45.2778 52.1514C45.0921 52.3372 44.8134 52.3836 44.5348 52.3836ZM44.5348 51.7799C44.7205 51.7799 44.9063 51.6871 44.9992 51.5013C45.0921 51.3155 45.1849 50.9905 45.1849 50.6189C45.1849 50.3403 45.1385 50.1546 45.0921 49.9688C45.0456 49.783 44.9527 49.6902 44.8599 49.5973C44.767 49.5044 44.6277 49.458 44.5348 49.458C44.349 49.458 44.1633 49.5508 44.0704 49.7366C43.9775 49.9224 43.8846 50.201 43.8846 50.6189C43.8846 50.8976 43.9311 51.0833 43.9775 51.2691C44.0239 51.4549 44.1168 51.5942 44.2097 51.6406C44.3026 51.6871 44.3955 51.7799 44.5348 51.7799Z" fill="#00395C"/>
<path d="M47.9251 48.9007V52.2908H47.182V49.5508L46.3926 50.0617V49.4115L47.2285 48.8542H47.9251V48.9007Z" fill="#00395C"/>
<path d="M49.9687 48.8542C50.1545 48.8542 50.2938 48.9007 50.4795 48.9471C50.6653 48.9936 50.8046 49.0864 50.8975 49.2258C51.0368 49.3651 51.1297 49.5044 51.2226 49.7366C51.3155 49.9688 51.3155 50.201 51.3155 50.5261C51.3155 50.8047 51.269 51.0833 51.2226 51.3155C51.1761 51.5477 51.0833 51.7335 50.9439 51.8728C50.8046 52.0121 50.6653 52.1514 50.526 52.2443C50.3402 52.3372 50.1545 52.3836 49.9687 52.3836C49.7365 52.3836 49.5508 52.3372 49.365 52.2443C49.1792 52.1514 49.0399 52.0586 48.947 51.8728C48.8542 51.7335 48.7613 51.5477 48.7613 51.362H49.4579C49.5043 51.5013 49.5508 51.5942 49.6436 51.6406C49.7365 51.6871 49.8294 51.7335 49.9687 51.7335C50.2009 51.7335 50.3402 51.6406 50.4795 51.4549C50.5724 51.2691 50.6653 50.9905 50.6653 50.6654H50.6189C50.5724 50.7583 50.4795 50.8511 50.4331 50.944C50.3867 51.0369 50.2473 51.0833 50.1545 51.1298C50.0616 51.1762 49.9223 51.1762 49.7829 51.1762C49.5972 51.1762 49.4114 51.1298 49.2257 51.0369C49.0864 50.944 48.947 50.8047 48.8542 50.6654C48.7613 50.4796 48.7148 50.2939 48.7148 50.1081C48.7148 49.8759 48.7613 49.6902 48.8542 49.5044C48.947 49.3186 49.0864 49.1793 49.3186 49.0864C49.5043 48.9007 49.6901 48.8542 49.9687 48.8542ZM49.9687 49.458C49.8758 49.458 49.7365 49.5044 49.6901 49.5508C49.5972 49.5973 49.5508 49.6902 49.5043 49.783C49.4579 49.8759 49.4114 49.9688 49.4114 50.0617C49.4114 50.1546 49.4579 50.2939 49.5043 50.3867C49.5508 50.4796 49.6436 50.5261 49.6901 50.6189C49.7365 50.7118 49.8758 50.7118 49.9687 50.7118C50.0616 50.7118 50.108 50.7118 50.2009 50.6654C50.2938 50.6189 50.3402 50.5725 50.3867 50.5261C50.4331 50.4796 50.4795 50.3868 50.526 50.3403C50.5724 50.2939 50.5724 50.201 50.5724 50.1081C50.5724 50.0152 50.526 49.9224 50.4795 49.8295C50.4331 49.7366 50.3402 49.6902 50.2938 49.5973C50.1545 49.458 50.0616 49.458 49.9687 49.458Z" fill="#00395C"/>
</g>
<defs>
<clipPath id="clip0_1734_11888">
<rect width="76.0678" height="76.0678" fill="white"/>
</clipPath>
</defs>
</svg>
