<svg width="77" height="77" viewBox="0 0 77 77" fill="none" xmlns="http://www.w3.org/2000/svg">
<g clip-path="url(#clip0_1734_11994)">
<path d="M38.4237 75.7808C59.2708 75.7808 76.1707 58.8809 76.1707 38.0338C76.1707 17.1868 59.2708 0.286865 38.4237 0.286865C17.5767 0.286865 0.676758 17.1868 0.676758 38.0338C0.676758 58.8809 17.5767 75.7808 38.4237 75.7808Z" fill="white"/>
<path d="M38.4235 76.0678C17.4515 76.0678 0.389648 59.0058 0.389648 38.0339C0.389648 17.062 17.4515 0 38.4235 0C59.3956 0 76.4574 17.0619 76.4574 38.0339C76.4574 59.0059 59.3956 76.0678 38.4235 76.0678ZM38.4235 1.22024C18.1244 1.22025 1.6099 17.7348 1.6099 38.0339C1.6099 58.3331 18.1244 74.8475 38.4235 74.8475C58.7227 74.8475 75.2372 58.3331 75.2372 38.0339C75.2372 17.7348 58.7227 1.22024 38.4235 1.22024Z" fill="#00395C"/>
<path d="M38.4235 63.0151C24.6489 63.0151 13.4424 51.8086 13.4424 38.0339C13.4424 24.2593 24.6489 13.0527 38.4235 13.0527C52.1982 13.0527 63.4049 24.2593 63.4049 38.0339C63.4049 51.8086 52.1982 63.0151 38.4235 63.0151ZM38.4235 14.273C25.3217 14.273 14.6626 24.9321 14.6626 38.0339C14.6626 51.1358 25.3217 61.7948 38.4235 61.7948C51.5253 61.7948 62.1846 51.1357 62.1846 38.0339C62.1846 24.9322 51.5255 14.273 38.4235 14.273Z" fill="#00395C"/>
<path d="M24.8033 52.0416V51.5141L26.0359 50.3729C26.1407 50.2714 26.2289 50.1801 26.3004 50.0988C26.3721 50.0178 26.4265 49.938 26.4637 49.8597C26.5008 49.7815 26.5195 49.6965 26.5195 49.6053C26.5195 49.5038 26.4964 49.4162 26.4502 49.3423C26.4039 49.2685 26.3407 49.2117 26.2607 49.1715C26.1806 49.1316 26.0901 49.1116 25.9886 49.1116C25.8825 49.1116 25.7902 49.133 25.7113 49.1757C25.6323 49.2186 25.5715 49.28 25.5286 49.36C25.4859 49.44 25.4645 49.5354 25.4645 49.6458H24.7695C24.7695 49.4192 24.8208 49.2226 24.9235 49.0557C25.0259 48.8889 25.1697 48.7598 25.3544 48.6685C25.5393 48.5773 25.7524 48.5316 25.9936 48.5316C26.2416 48.5316 26.4577 48.5753 26.642 48.6627C26.8263 48.7501 26.9697 48.8708 27.0724 49.0254C27.1749 49.1797 27.2261 49.3566 27.2261 49.5562C27.2261 49.6869 27.2005 49.816 27.1493 49.9433C27.098 50.0708 27.0069 50.212 26.8762 50.367C26.7455 50.5219 26.5612 50.7076 26.3232 50.924L25.8178 51.4194V51.443H27.2718V52.0416L24.8033 52.0416Z" fill="#00395C"/>
<path d="M27.9399 52.0416L29.3752 49.2011V49.1775H27.7031V48.5789H30.1327V49.1858L28.6956 52.0416L27.9399 52.0416Z" fill="#00395C"/>
<path d="M31.9177 52.1177C31.627 52.1165 31.3769 52.045 31.168 51.903C30.9589 51.761 30.7982 51.5552 30.686 51.2859C30.574 51.0164 30.5184 50.6925 30.5195 50.3137C30.5195 49.936 30.5756 49.6142 30.6878 49.3483C30.8 49.0822 30.9605 48.8796 31.1696 48.7404C31.3787 48.6011 31.628 48.5316 31.9178 48.5316C32.2075 48.5316 32.4568 48.6015 32.6659 48.7413C32.875 48.881 33.0359 49.0836 33.1487 49.3491C33.2613 49.6146 33.3171 49.936 33.316 50.3137C33.316 50.6935 33.26 51.0182 33.1477 51.2875C33.0357 51.557 32.8752 51.7626 32.6667 51.9046C32.4582 52.0468 32.2085 52.1177 31.9177 52.1177ZM31.9177 51.5107C32.1162 51.5107 32.2745 51.411 32.3928 51.2114C32.5112 51.012 32.5698 50.7127 32.5688 50.3137C32.5688 50.051 32.542 49.8323 32.4884 49.6577C32.4349 49.483 32.3593 49.3517 32.2619 49.2637C32.1644 49.1757 32.0496 49.1318 31.9177 49.1318C31.7205 49.1318 31.5626 49.2305 31.4443 49.4277C31.3261 49.625 31.2663 49.9203 31.2651 50.3137C31.2651 50.5797 31.2919 50.8015 31.3454 50.9791C31.399 51.1564 31.4749 51.2895 31.5728 51.3781C31.6709 51.4664 31.7859 51.5107 31.9177 51.5107Z" fill="#00395C"/>
<path d="M35.1941 52.1177C34.9034 52.1165 34.6533 52.045 34.4444 51.903C34.2352 51.761 34.0746 51.5552 33.9624 51.2859C33.8503 51.0164 33.7947 50.6925 33.7959 50.3137C33.7959 49.936 33.8519 49.6142 33.9641 49.3483C34.0764 49.0822 34.2368 48.8796 34.446 48.7404C34.6551 48.6011 34.9044 48.5316 35.1941 48.5316C35.4839 48.5316 35.7331 48.6015 35.9423 48.7413C36.1514 48.881 36.3123 49.0836 36.4251 49.3491C36.5377 49.6146 36.5935 49.936 36.5923 50.3137C36.5923 50.6935 36.5363 51.0182 36.4241 51.2875C36.3121 51.557 36.1516 51.7626 35.9431 51.9046C35.7345 52.0468 35.4849 52.1177 35.1941 52.1177ZM35.1941 51.5107C35.3925 51.5107 35.5508 51.411 35.6692 51.2114C35.7876 51.012 35.8461 50.7127 35.8452 50.3137C35.8452 50.051 35.8183 49.8323 35.7647 49.6577C35.7113 49.483 35.6356 49.3517 35.5383 49.2637C35.4408 49.1757 35.326 49.1318 35.1941 49.1318C34.9969 49.1318 34.839 49.2305 34.7206 49.4277C34.6025 49.625 34.5427 49.9203 34.5415 50.3137C34.5415 50.5797 34.5683 50.8015 34.6217 50.9791C34.6754 51.1564 34.7512 51.2895 34.8491 51.3781C34.9473 51.4664 35.0622 51.5107 35.1941 51.5107Z" fill="#00395C"/>
<path d="M38.6206 48.5789V52.0416H37.8885V49.2738H37.8682L37.0752 49.7709V49.1217L37.9324 48.5789L38.6206 48.5789Z" fill="#00395C"/>
<path d="M39.8716 50.2681C39.76 50.2681 39.6644 50.2284 39.585 50.1489C39.5055 50.0695 39.4658 49.974 39.4658 49.8623C39.4658 49.7519 39.5055 49.6572 39.585 49.5781C39.6644 49.4993 39.76 49.46 39.8716 49.46C39.9798 49.46 40.0746 49.4993 40.1556 49.5781C40.2368 49.6572 40.2773 49.7519 40.2773 49.8623C40.2773 49.9366 40.2585 50.0045 40.2207 50.0659C40.183 50.1275 40.1335 50.1765 40.0728 50.2131C40.012 50.2498 39.9449 50.2681 39.8716 50.2681ZM39.8716 52.0856C39.76 52.0856 39.6644 52.0458 39.585 51.9664C39.5055 51.887 39.4658 51.7914 39.4658 51.6798C39.4658 51.5694 39.5055 51.4746 39.585 51.3958C39.6644 51.3169 39.76 51.2774 39.8716 51.2774C39.9798 51.2774 40.0746 51.3169 40.1556 51.3958C40.2368 51.4746 40.2773 51.5694 40.2773 51.6798C40.2773 51.7543 40.2585 51.8222 40.2207 51.8836C40.183 51.9449 40.1335 51.994 40.0728 52.0307C40.012 52.0673 39.9449 52.0856 39.8716 52.0856Z" fill="#00395C"/>
<path d="M40.8599 52.0416V51.5141L42.0925 50.3729C42.1974 50.2714 42.2855 50.1801 42.357 50.0988C42.4287 50.0178 42.4832 49.938 42.5203 49.8597C42.5574 49.7815 42.5761 49.6965 42.5761 49.6053C42.5761 49.5038 42.5531 49.4162 42.5068 49.3423C42.4605 49.2685 42.3974 49.2117 42.3173 49.1715C42.2373 49.1316 42.1467 49.1116 42.0452 49.1116C41.9392 49.1116 41.8468 49.133 41.768 49.1757C41.6889 49.2186 41.6281 49.28 41.5853 49.36C41.5425 49.44 41.5211 49.5354 41.5211 49.6458H40.8262C40.8262 49.4192 40.8774 49.2226 40.9801 49.0557C41.0826 48.8889 41.2264 48.7598 41.4111 48.6685C41.596 48.5773 41.8091 48.5316 42.0502 48.5316C42.2983 48.5316 42.5143 48.5753 42.6986 48.6627C42.883 48.7501 43.0264 48.8708 43.129 49.0254C43.2315 49.1797 43.2828 49.3566 43.2828 49.5562C43.2828 49.6869 43.2571 49.816 43.2059 49.9433C43.1547 50.0708 43.0635 50.212 42.9328 50.367C42.8021 50.5219 42.6178 50.7076 42.3799 50.924L41.8744 51.4194V51.443H43.3284V52.0416L40.8599 52.0416Z" fill="#00395C"/>
<path d="M45.2176 52.1177C44.9268 52.1165 44.6767 52.045 44.4678 51.903C44.2587 51.761 44.098 51.5552 43.9858 51.2859C43.8738 51.0164 43.8182 50.6925 43.8194 50.3137C43.8194 49.936 43.8754 49.6142 43.9876 49.3483C44.0998 49.0822 44.2603 48.8796 44.4694 48.7404C44.6785 48.6011 44.9278 48.5316 45.2176 48.5316C45.5073 48.5316 45.7566 48.6015 45.9657 48.7413C46.1748 48.881 46.3357 49.0836 46.4485 49.3491C46.5611 49.6146 46.617 49.936 46.6158 50.3137C46.6158 50.6935 46.5598 51.0182 46.4475 51.2875C46.3355 51.557 46.175 51.7626 45.9665 51.9046C45.758 52.0468 45.5083 52.1177 45.2176 52.1177ZM45.2176 51.5107C45.416 51.5107 45.5743 51.411 45.6926 51.2114C45.811 51.012 45.8696 50.7127 45.8686 50.3137C45.8686 50.051 45.8418 49.8323 45.7882 49.6577C45.7347 49.483 45.6591 49.3517 45.5617 49.2637C45.4642 49.1757 45.3494 49.1318 45.2176 49.1318C45.0203 49.1318 44.8624 49.2305 44.7441 49.4277C44.6259 49.625 44.5661 49.9203 44.5649 50.3137C44.5649 50.5797 44.5917 50.8015 44.6452 50.9791C44.6988 51.1564 44.7747 51.2895 44.8726 51.3781C44.9707 51.4664 45.0857 51.5107 45.2176 51.5107Z" fill="#00395C"/>
<path d="M48.643 48.5789V52.0416H47.911V49.2738H47.8907L47.0977 49.7709V49.1217L47.9548 48.5789L48.643 48.5789Z" fill="#00395C"/>
<path d="M50.7464 52.0889C50.4938 52.0889 50.2692 52.0452 50.0725 51.958C49.8759 51.8706 49.7208 51.7499 49.6076 51.5961C49.4944 51.4422 49.436 51.2645 49.4326 51.0627H50.1699C50.1742 51.1473 50.2022 51.2214 50.2535 51.2849C50.3047 51.3487 50.3732 51.3979 50.4588 51.4329C50.5446 51.4678 50.641 51.4853 50.748 51.4853C50.8596 51.4853 50.9581 51.4656 51.0439 51.4261C51.1295 51.3868 51.1967 51.332 51.2451 51.2621C51.2936 51.1924 51.3178 51.1117 51.3178 51.0204C51.3178 50.928 51.2922 50.846 51.2409 50.7743C51.1895 50.7028 51.1162 50.6468 51.0211 50.6061C50.9258 50.5656 50.8128 50.5453 50.6821 50.5453H50.3591V50.0077H50.6821C50.7925 50.0077 50.8902 49.9884 50.9754 49.9501C51.0606 49.9117 51.1268 49.8585 51.174 49.7904C51.2215 49.7223 51.2451 49.6424 51.2451 49.5511C51.2451 49.4643 51.2245 49.388 51.1834 49.3221C51.1422 49.2561 51.0846 49.2045 51.011 49.1674C50.9371 49.1302 50.8511 49.1115 50.7532 49.1115C50.6539 49.1115 50.5631 49.1292 50.4809 49.1648C50.3987 49.2003 50.3327 49.2508 50.2831 49.3161C50.2334 49.3815 50.207 49.4581 50.2036 49.5461H49.5019C49.5053 49.3465 49.5621 49.1707 49.6727 49.0186C49.7832 48.8663 49.9323 48.7471 50.1198 48.6609C50.3075 48.5747 50.5198 48.5316 50.7565 48.5316C50.9955 48.5316 51.2046 48.5749 51.3837 48.6617C51.5629 48.7485 51.7025 48.8655 51.8022 49.0126C51.9019 49.1596 51.9512 49.3247 51.9502 49.5072C51.9512 49.701 51.8912 49.8629 51.77 49.9924C51.6489 50.1221 51.4914 50.2043 51.2976 50.2393V50.2663C51.5522 50.299 51.7464 50.3872 51.8801 50.531C52.0135 50.6746 52.0797 50.8541 52.0787 51.0694C52.0797 51.2666 52.0231 51.442 51.9087 51.5953C51.7943 51.7485 51.6368 51.8692 51.4362 51.957C51.2356 52.045 51.0056 52.0889 50.7464 52.0889Z" fill="#00395C"/>
<path d="M5.77539 42.359L9.43554 41.8331L9.54656 42.6069L5.88661 43.133L5.77539 42.359Z" fill="#00395C"/>
<path d="M7.69301 40.6205L9.293 40.5138L9.34404 41.2811L6.57703 41.466L6.52817 40.7345L7.01655 40.7019L7.01436 40.6696C6.84932 40.6189 6.71486 40.5248 6.61079 40.3871C6.50692 40.2491 6.44833 40.0777 6.43443 39.8723C6.42171 39.6799 6.4525 39.5097 6.52678 39.3611C6.60165 39.2126 6.71387 39.0934 6.86421 39.0038C7.01456 38.9141 7.19708 38.8622 7.41197 38.8479L9.17403 38.7303L9.22487 39.4978L7.60005 39.6062C7.43064 39.6163 7.30095 39.6686 7.21158 39.7623C7.12181 39.8565 7.08209 39.9804 7.09241 40.1339C7.09937 40.2374 7.12777 40.3269 7.17742 40.4026C7.22707 40.4783 7.29559 40.5353 7.38338 40.5734C7.47076 40.6116 7.57424 40.6273 7.69301 40.6205Z" fill="#00395C"/>
<path d="M9.18941 38.0261L6.21604 37.9734C6.01525 37.9699 5.84941 37.9276 5.71813 37.8463C5.58725 37.7653 5.48993 37.6553 5.42618 37.517C5.36222 37.3786 5.33184 37.2221 5.33521 37.0475C5.3374 36.93 5.34812 36.8219 5.36779 36.7244C5.38765 36.6263 5.40512 36.5534 5.42041 36.5057L5.99578 36.6531C5.98546 36.6829 5.97592 36.7198 5.96679 36.7635C5.95765 36.8072 5.95269 36.8523 5.95189 36.898C5.94991 37.011 5.97434 37.0904 6.02597 37.1357C6.07761 37.181 6.1505 37.2048 6.24404 37.2062L9.20291 37.2589L9.18941 38.0261ZM6.43987 36.6573L7.01762 36.6674L6.98724 38.3788L6.40968 38.3687L6.43987 36.6573Z" fill="#00395C"/>
<path d="M9.388 35.1627C9.36079 35.4421 9.27758 35.6771 9.13855 35.8685C8.99952 36.06 8.8178 36.2002 8.59317 36.2896C8.36854 36.3789 8.11492 36.4099 7.8321 36.3821C7.5471 36.3543 7.30301 36.2749 7.09983 36.1438C6.89686 36.0127 6.74552 35.8397 6.64621 35.625C6.5469 35.4103 6.51076 35.1633 6.53817 34.8844C6.56517 34.6052 6.64859 34.3698 6.78762 34.1784C6.92645 33.9871 7.10857 33.8467 7.3332 33.7573C7.55763 33.6679 7.81264 33.6372 8.09764 33.6652C8.38046 33.6928 8.62316 33.772 8.82633 33.9033C9.02931 34.0344 9.18065 34.2074 9.27996 34.4219C9.37906 34.6365 9.41521 34.8834 9.388 35.1627ZM8.79536 35.1011C8.80787 34.9742 8.78185 34.8648 8.7179 34.7726C8.65355 34.6804 8.5606 34.6062 8.43925 34.5504C8.3179 34.4944 8.17669 34.4582 8.01622 34.4427C7.85574 34.4268 7.71056 34.435 7.58027 34.4664C7.45038 34.4979 7.34452 34.5523 7.26329 34.6304C7.18186 34.7085 7.13479 34.8105 7.12248 34.9378C7.10976 35.0659 7.13598 35.177 7.20053 35.2709C7.26528 35.365 7.35823 35.4399 7.47958 35.4959C7.60132 35.5521 7.74214 35.5881 7.90261 35.6034C8.06348 35.6193 8.20867 35.6115 8.33856 35.5799C8.46885 35.5486 8.5741 35.493 8.65514 35.4131C8.73617 35.3333 8.78284 35.2292 8.79536 35.1011Z" fill="#00395C"/>
<path d="M9.55384 33.3828L6.82715 32.8774L6.9628 32.1443L7.43866 32.2323L7.44382 32.2039C7.28394 32.1229 7.17133 32.0158 7.10579 31.8823C7.04065 31.7491 7.02218 31.6061 7.05038 31.4533C7.05753 31.4156 7.06746 31.3753 7.08017 31.3324C7.09308 31.2893 7.10679 31.2522 7.12109 31.2206L7.79218 31.3449C7.7751 31.3785 7.75643 31.4257 7.73657 31.4869C7.71671 31.5481 7.70181 31.6049 7.69228 31.6571C7.67163 31.7681 7.67719 31.8714 7.70896 31.9675C7.74094 32.0635 7.79476 32.1443 7.87063 32.2104C7.9465 32.2768 8.04004 32.3199 8.15146 32.3403L9.69385 32.6263L9.55384 33.3828Z" fill="#00395C"/>
<path d="M9.87273 31.4221L7.21973 30.6151L7.43283 29.9139L7.90095 30.0561L7.91049 30.0251C7.77186 29.9224 7.67712 29.7931 7.62647 29.6368C7.57583 29.4805 7.57801 29.3127 7.63263 29.1329C7.68804 28.9512 7.7802 28.8098 7.90949 28.7095C8.03879 28.6092 8.18715 28.5613 8.35438 28.5655L8.36272 28.5379C8.22707 28.4374 8.13531 28.3024 8.08705 28.1323C8.03859 27.9619 8.04395 27.7798 8.10334 27.5852C8.17861 27.3375 8.31843 27.1602 8.5228 27.0531C8.72697 26.9459 8.97324 26.9363 9.26103 27.0239L11.0455 27.5665L10.8221 28.3006L9.18277 27.8021C9.03541 27.7574 8.91286 27.7629 8.81555 27.8185C8.71803 27.8745 8.6513 27.9613 8.61575 28.0789C8.57503 28.2124 8.58556 28.3294 8.64753 28.43C8.70929 28.5307 8.80939 28.6018 8.94762 28.644L10.5679 29.1367L10.351 29.8503L8.69598 29.347C8.56609 29.3071 8.4509 29.3129 8.3514 29.3639C8.2515 29.4144 8.18337 29.5004 8.14663 29.6213C8.12161 29.7029 8.11982 29.7828 8.14087 29.86C8.16193 29.9379 8.20324 30.0066 8.26501 30.0666C8.32657 30.1272 8.40602 30.1722 8.50413 30.2018L10.0968 30.6862L9.87273 31.4221Z" fill="#00395C"/>
<path d="M11.642 26.42C11.5697 26.5814 11.4768 26.7125 11.3638 26.8134C11.2504 26.9143 11.1217 26.9763 10.9773 26.9991C10.8331 27.0222 10.6776 26.9961 10.5107 26.9213C10.3699 26.8579 10.2637 26.7793 10.1912 26.6847C10.1189 26.59 10.0738 26.4853 10.0553 26.3703C10.0371 26.2551 10.0387 26.1342 10.0601 26.0073C10.0816 25.8804 10.1143 25.7517 10.1584 25.621C10.2089 25.4669 10.2476 25.3419 10.2746 25.2456C10.3012 25.1493 10.31 25.0748 10.3006 25.0218C10.2915 24.9689 10.2599 24.9304 10.2063 24.9062L10.1966 24.9018C10.0921 24.8549 9.99676 24.8514 9.91016 24.8911C9.82377 24.9306 9.75366 25.0105 9.70004 25.13C9.64323 25.2563 9.62576 25.3691 9.6478 25.4688C9.66965 25.5681 9.71692 25.649 9.78961 25.7105L9.44543 26.3358C9.3066 26.2339 9.20233 26.1095 9.13341 25.962C9.06429 25.815 9.03331 25.6512 9.04126 25.4706C9.0492 25.2901 9.09845 25.0986 9.18902 24.8966C9.25238 24.7562 9.32924 24.6287 9.4202 24.5143C9.51116 24.4003 9.61384 24.3084 9.72784 24.2391C9.84205 24.1697 9.96657 24.1302 10.1008 24.1203C10.2351 24.1108 10.3775 24.14 10.528 24.2073L12.2345 24.9739L11.9354 25.639L11.5846 25.4815L11.5759 25.5014C11.6367 25.5777 11.6816 25.6631 11.711 25.758C11.7401 25.853 11.7503 25.9556 11.7407 26.0661C11.7314 26.1769 11.6984 26.2947 11.642 26.42ZM11.2482 26.0015C11.2947 25.8984 11.3149 25.7979 11.3094 25.7004C11.3036 25.6029 11.2758 25.5159 11.2257 25.4391C11.1757 25.3626 11.1062 25.3042 11.0172 25.2643L10.7487 25.1439C10.7531 25.1721 10.7527 25.2079 10.7471 25.251C10.7417 25.2941 10.733 25.3415 10.7211 25.3926C10.7092 25.444 10.6962 25.4951 10.6821 25.5455C10.668 25.5958 10.6551 25.6414 10.6434 25.6823C10.6184 25.7701 10.6055 25.8506 10.6039 25.9241C10.6027 25.9973 10.6166 26.0611 10.646 26.1151C10.6752 26.1691 10.7227 26.2108 10.7886 26.2402C10.8841 26.2833 10.9725 26.2812 11.0539 26.2339C11.1352 26.1866 11.1999 26.1092 11.2482 26.0015Z" fill="#00395C"/>
<path d="M9.56641 22.6921L9.938 22.0187L12.2019 23.2679C12.2641 23.3023 12.3177 23.3193 12.362 23.3193C12.4069 23.3193 12.4456 23.3058 12.4782 23.279C12.5108 23.2524 12.5398 23.2163 12.5648 23.1712C12.5821 23.1394 12.5966 23.1062 12.6081 23.0715C12.6198 23.0365 12.6288 23.0099 12.6349 22.9912L13.1946 23.1621C13.1864 23.2016 13.1727 23.2558 13.1533 23.3247C13.1336 23.3936 13.1012 23.4727 13.0562 23.562C12.9729 23.7277 12.8732 23.8576 12.7563 23.9523C12.6397 24.0466 12.5106 24.0987 12.3688 24.1086C12.2274 24.1185 12.0774 24.079 11.9187 23.99L9.56641 22.6921ZM10.772 21.8828L11.278 22.1621L10.4711 23.6242L9.96501 23.345L10.772 21.8828Z" fill="#00395C"/>
<path d="M10.9938 20.8464C10.9328 20.9433 10.8484 21.0065 10.741 21.0353C10.6329 21.0643 10.5338 21.0504 10.4431 20.9938C10.3525 20.9366 10.2963 20.8531 10.275 20.7433C10.2536 20.6331 10.273 20.5304 10.3334 20.4345C10.3948 20.3368 10.4792 20.2734 10.5867 20.2448C10.6941 20.2162 10.793 20.2303 10.8838 20.2875C10.9745 20.3443 11.0307 20.4275 11.0522 20.537C11.0738 20.6464 11.0544 20.7497 10.9938 20.8464ZM13.4395 22.8386L11.0901 21.3654L11.4989 20.7135L13.8484 22.1872L13.4395 22.8386Z" fill="#00395C"/>
<path d="M14.9146 20.742C14.7479 20.968 14.5561 21.1275 14.3388 21.2206C14.1213 21.314 13.8935 21.3416 13.6548 21.3032C13.4161 21.2649 13.1821 21.1616 12.9535 20.9932C12.7227 20.8234 12.5537 20.6302 12.4465 20.4135C12.3392 20.197 12.2979 19.971 12.3221 19.7356C12.3468 19.5005 12.4423 19.2697 12.6085 19.0439C12.7748 18.8183 12.9668 18.6586 13.1843 18.5654C13.4016 18.4721 13.6296 18.4447 13.8683 18.4828C14.107 18.521 14.3416 18.625 14.5724 18.795C14.8012 18.9634 14.969 19.1559 15.0764 19.3726C15.1839 19.5891 15.2252 19.8151 15.2006 20.0502C15.1763 20.2856 15.0806 20.5162 14.9146 20.742ZM14.4367 20.3857C14.5124 20.2832 14.5464 20.1756 14.5382 20.0637C14.5305 19.9517 14.4886 19.8407 14.4129 19.7303C14.337 19.6198 14.2343 19.517 14.1045 19.4212C13.9746 19.3255 13.8457 19.258 13.718 19.2185C13.5899 19.1789 13.4711 19.1718 13.3615 19.197C13.2516 19.2224 13.1587 19.2862 13.0832 19.3891C13.0067 19.4927 12.9724 19.6016 12.9797 19.7152C12.9871 19.8292 13.0288 19.9412 13.1045 20.0516C13.1801 20.1616 13.283 20.2649 13.4127 20.3605C13.5426 20.4562 13.6715 20.5237 13.7992 20.5632C13.9273 20.6028 14.0461 20.6091 14.1565 20.5821C14.2669 20.5551 14.3603 20.4896 14.4367 20.3857Z" fill="#00395C"/>
<path d="M15.2769 17.648L16.4622 18.7277L15.9442 19.2963L13.8936 17.4292L14.3873 16.8872L14.7488 17.2166L14.7708 17.1924C14.693 17.0387 14.6677 16.876 14.6951 16.7058C14.7225 16.5354 14.8056 16.3741 14.944 16.222C15.0737 16.0794 15.2179 15.9839 15.3766 15.9346C15.5352 15.8854 15.6991 15.8838 15.8679 15.9301C16.0365 15.9763 16.2006 16.0719 16.3599 16.217L17.6655 17.4057L17.1479 17.9745L15.9438 16.8782C15.8189 16.763 15.6915 16.7054 15.5617 16.7062C15.4316 16.7066 15.315 16.764 15.2113 16.8778C15.1414 16.9545 15.0965 17.0369 15.0765 17.1251C15.0562 17.2135 15.063 17.3024 15.0959 17.392C15.1291 17.4818 15.1895 17.567 15.2769 17.648Z" fill="#00395C"/>
<path d="M18.7601 12.9414C18.6566 12.8379 18.5371 12.7895 18.4012 12.7964C18.2652 12.8038 18.1248 12.8663 17.9796 12.9855C17.8809 13.0661 17.8086 13.1481 17.7631 13.2316C17.7178 13.3146 17.697 13.395 17.7007 13.4729C17.7045 13.5505 17.7315 13.6202 17.7816 13.6816C17.8219 13.7344 17.8696 13.7702 17.9246 13.7889C17.9796 13.8077 18.0392 13.8137 18.1037 13.8069C18.1679 13.8 18.2358 13.7841 18.3071 13.7591C18.3786 13.7342 18.4511 13.7029 18.525 13.6659L18.8324 13.5168C18.9802 13.4427 19.125 13.3863 19.2674 13.3474C19.41 13.3086 19.5472 13.2919 19.6791 13.2973C19.8112 13.3029 19.9363 13.3344 20.0541 13.3916C20.172 13.4492 20.2801 13.5374 20.3788 13.6556C20.5212 13.8314 20.6008 14.0194 20.6177 14.2194C20.6342 14.4196 20.5889 14.6226 20.4813 14.8282C20.3736 15.0337 20.203 15.2321 19.9702 15.4226C19.7393 15.6119 19.5095 15.741 19.2807 15.8099C19.0519 15.8794 18.8326 15.8832 18.6231 15.8222C18.4135 15.7612 18.2225 15.6296 18.0491 15.4276L18.6346 14.9485C18.7196 15.0389 18.8127 15.0961 18.914 15.1199C19.0149 15.1436 19.12 15.1378 19.2284 15.1025C19.3373 15.0673 19.4439 15.0065 19.5482 14.9215C19.6507 14.8373 19.7277 14.7497 19.7792 14.6576C19.8304 14.5656 19.8554 14.476 19.8541 14.3885C19.8525 14.3013 19.8235 14.223 19.7671 14.1541C19.7144 14.0898 19.6513 14.0512 19.5778 14.0385C19.5041 14.0254 19.4187 14.0334 19.3216 14.0616C19.2239 14.09 19.113 14.1342 18.9879 14.1944L18.6124 14.3712C18.3232 14.5102 18.0576 14.5744 17.8157 14.564C17.5738 14.5535 17.3669 14.4423 17.1947 14.2302C17.0521 14.0574 16.9742 13.8683 16.9619 13.6622C16.9496 13.456 16.9955 13.2497 17.1001 13.0427C17.2044 12.8357 17.3611 12.6471 17.5697 12.4763C17.782 12.3023 17.9975 12.1871 18.2155 12.1295C18.4338 12.0721 18.6404 12.0719 18.8348 12.1289C19.0292 12.1861 19.1977 12.2985 19.3399 12.4667L18.7601 12.9414Z" fill="#00395C"/>
<path d="M22.4776 13.5888C22.2391 13.7455 22.0021 13.8317 21.7668 13.847C21.5316 13.8625 21.309 13.8114 21.0991 13.6934C20.8893 13.5757 20.7042 13.3943 20.5436 13.1501C20.3871 12.9115 20.2959 12.672 20.2705 12.4311C20.2446 12.1902 20.2832 11.964 20.3855 11.7524C20.4881 11.5413 20.653 11.3612 20.8804 11.2118C21.0333 11.1115 21.192 11.0422 21.3565 11.0041C21.5207 10.9662 21.6846 10.9634 21.8476 10.9957C22.0109 11.0283 22.1686 11.1002 22.3205 11.211C22.4726 11.3225 22.6134 11.4764 22.7431 11.6738L22.8589 11.8502L20.9013 13.1353L20.6397 12.7371L21.992 11.8492C21.9314 11.7568 21.8574 11.6879 21.7704 11.6426C21.683 11.5977 21.5906 11.5781 21.4929 11.584C21.3952 11.5898 21.2997 11.6233 21.2059 11.6849C21.1084 11.7489 21.0369 11.8281 20.9912 11.9221C20.9457 12.0158 20.9265 12.1143 20.9332 12.217C20.9402 12.3199 20.9734 12.4172 21.0325 12.5093L21.2812 12.8883C21.3563 13.0029 21.4429 13.0881 21.5404 13.1435C21.6381 13.1989 21.741 13.2233 21.8492 13.2174C21.9573 13.2112 22.0655 13.1727 22.1731 13.1018C22.2446 13.0549 22.3034 13.0021 22.3493 12.9429C22.3956 12.8837 22.4266 12.8204 22.4425 12.7522C22.4582 12.6843 22.4582 12.6138 22.4419 12.5409L23.0623 12.1898C23.1261 12.3526 23.1461 12.5175 23.1229 12.6845C23.0993 12.8521 23.0337 13.0132 22.9261 13.1681C22.8182 13.323 22.6689 13.4635 22.4776 13.5888Z" fill="#00395C"/>
<path d="M25.0082 12.1095C24.7562 12.241 24.5119 12.3003 24.275 12.2874C24.0382 12.2745 23.822 12.1979 23.6253 12.0573C23.4291 11.9164 23.2661 11.722 23.1364 11.4733C23.0051 11.2213 22.9381 10.975 22.9366 10.7333C22.9348 10.492 22.9959 10.2706 23.1203 10.0694C23.2446 9.868 23.4311 9.70236 23.6798 9.57267C23.8943 9.46046 24.1024 9.40127 24.3044 9.39552C24.5062 9.38916 24.6907 9.43186 24.8581 9.52382C25.0253 9.61577 25.1638 9.754 25.2722 9.93891L24.6289 10.2748C24.5465 10.1617 24.4472 10.0875 24.3308 10.0525C24.214 10.0178 24.0933 10.0329 23.9683 10.0982C23.8627 10.1534 23.7856 10.2299 23.7369 10.328C23.6885 10.4257 23.6706 10.5407 23.6835 10.6724C23.6966 10.8042 23.7435 10.9472 23.8245 11.1022C23.9062 11.2587 23.9975 11.381 24.098 11.4682C24.1987 11.5556 24.3034 11.6076 24.4126 11.6239C24.5214 11.6404 24.6289 11.6211 24.7346 11.5659C24.8124 11.525 24.8744 11.4726 24.9199 11.408C24.9657 11.3433 24.9929 11.2698 25.0021 11.187C25.0112 11.1039 24.9995 11.0162 24.9671 10.923L25.6106 10.5872C25.698 10.7804 25.7334 10.9723 25.7165 11.1623C25.6996 11.3524 25.6319 11.5292 25.5135 11.6928C25.3953 11.8565 25.2269 11.9953 25.0082 12.1095Z" fill="#00395C"/>
<path d="M27.6661 9.56608L27.0774 8.08645L27.7918 7.80225L28.8172 10.3788L28.1312 10.6519L27.9449 10.1838L27.9179 10.1945C27.9199 10.3689 27.8717 10.5285 27.7735 10.6737C27.675 10.8191 27.5295 10.9303 27.336 11.0072C27.1636 11.0757 26.9964 11.097 26.8345 11.0707C26.6725 11.0443 26.5261 10.9736 26.3954 10.8588C26.2647 10.7436 26.1589 10.5855 26.0776 10.3847L25.4248 8.74405L26.1394 8.45964L26.7416 9.97263C26.8033 10.1246 26.8919 10.2284 27.0077 10.2848C27.1231 10.3413 27.2486 10.3424 27.3843 10.2886C27.4701 10.2541 27.5428 10.2022 27.6019 10.1327C27.6611 10.0634 27.6983 9.97998 27.7136 9.88346C27.7287 9.78654 27.713 9.68088 27.6661 9.56608Z" fill="#00395C"/>
<path d="M29.3312 10.225L28.5352 7.56817L29.2494 7.35427L29.3884 7.81782L29.4158 7.80948C29.415 7.63014 29.4587 7.48098 29.5477 7.36182C29.6362 7.24305 29.755 7.16122 29.9038 7.11673C29.9407 7.10561 29.9812 7.09608 30.0253 7.08794C30.069 7.07959 30.1087 7.07483 30.1433 7.07324L30.3391 7.72686C30.3016 7.72706 30.2507 7.73202 30.1874 7.74235C30.124 7.75268 30.0666 7.76539 30.016 7.78068C29.9075 7.81286 29.818 7.86529 29.7473 7.93739C29.6766 8.00929 29.6291 8.09429 29.6051 8.192C29.581 8.28972 29.585 8.3928 29.6176 8.50124L30.068 10.0041L29.3312 10.225Z" fill="#00395C"/>
<path d="M30.9338 6.53254C30.8226 6.55896 30.7183 6.54466 30.6214 6.48984C30.5241 6.43482 30.4633 6.35558 30.4383 6.25131C30.4136 6.14704 30.4321 6.04813 30.4943 5.95479C30.5561 5.86164 30.642 5.80186 30.7521 5.77565C30.8647 5.74923 30.9692 5.76313 31.0659 5.81815C31.1624 5.87336 31.223 5.953 31.2478 6.05688C31.2724 6.16135 31.2542 6.26005 31.1928 6.3532C31.1314 6.44615 31.0452 6.50613 30.9338 6.53254ZM31.28 9.66816L30.6389 6.97007L31.387 6.79232L32.0281 9.49041L31.28 9.66816Z" fill="#00395C"/>
<path d="M33.5413 6.37766L33.643 6.94627L31.9992 7.241L31.8975 6.67199L33.5413 6.37766ZM32.1535 5.95144L32.9106 5.8158L33.3664 8.36056C33.3789 8.43047 33.3991 8.4829 33.4275 8.51766C33.4557 8.55242 33.4905 8.57386 33.5316 8.58241C33.5727 8.59095 33.619 8.59055 33.67 8.58141C33.7056 8.57506 33.7403 8.56552 33.7749 8.55281C33.8093 8.5397 33.8355 8.52997 33.854 8.52302L34.074 9.06502C34.0381 9.08349 33.9872 9.10712 33.9215 9.13552C33.8555 9.16373 33.7739 9.18855 33.6762 9.2094C33.4947 9.24933 33.3308 9.2537 33.1841 9.22231C33.0373 9.19133 32.9153 9.12381 32.8186 9.02013C32.7217 8.91646 32.6579 8.77485 32.6272 8.5957L32.1535 5.95144Z" fill="#00395C"/>
<path d="M35.0227 10.019C34.9254 10.0283 34.8341 10.0293 34.7481 10.0223C34.6623 10.0152 34.5908 10.0039 34.5336 9.98738L34.6517 9.39752C34.791 9.42671 34.9063 9.42711 34.9971 9.39831C35.0881 9.36971 35.1546 9.29046 35.1967 9.16077L35.2307 9.03982L33.9707 6.29387L34.7761 6.21741L35.5399 8.19058L35.5687 8.1878L35.9534 6.10559L36.7643 6.0321L35.9812 9.18977C35.9439 9.34191 35.8861 9.47735 35.8084 9.59513C35.731 9.7131 35.6277 9.80883 35.4992 9.88232C35.3707 9.9552 35.2118 10.0009 35.0227 10.019Z" fill="#00395C"/>
<path d="M38.7257 5.03468L39.6876 5.10161L40.5315 7.65034L40.5746 7.65352L41.7625 5.2454L42.7245 5.31233L42.4683 9.00107L41.7118 8.94864L41.8784 6.54767L41.8481 6.54568L40.7279 8.86225L40.2125 8.82649L39.424 6.36812L39.3935 6.36594L39.2262 8.77624L38.4697 8.72361L38.7257 5.03468Z" fill="#00395C"/>
<path d="M43.7458 9.32598C43.572 9.29162 43.423 9.23064 43.2993 9.14326C43.1758 9.05547 43.0862 8.94425 43.0314 8.8086C42.9766 8.67335 42.9668 8.51585 43.0024 8.33632C43.0322 8.18517 43.0848 8.06382 43.1607 7.97187C43.2366 7.88032 43.3283 7.81239 43.4366 7.7687C43.5442 7.7252 43.6628 7.69938 43.7911 7.69164C43.9196 7.68369 44.0526 7.68667 44.1897 7.70037C44.3511 7.71507 44.4818 7.72441 44.5815 7.72877C44.6812 7.73314 44.7559 7.725 44.8056 7.70395C44.855 7.6831 44.8856 7.64357 44.8969 7.58578L44.8989 7.57525C44.9212 7.46304 44.9033 7.36929 44.8451 7.29402C44.7869 7.21875 44.6933 7.1685 44.5645 7.14308C44.4288 7.11627 44.315 7.12481 44.2229 7.1683C44.1307 7.21219 44.063 7.27654 44.0193 7.36115L43.3325 7.16671C43.4006 7.00822 43.4985 6.87913 43.6264 6.77844C43.7539 6.67794 43.9069 6.61101 44.0844 6.57804C44.2622 6.54507 44.4596 6.55004 44.6771 6.59254C44.828 6.62253 44.9696 6.669 45.1013 6.73176C45.233 6.79472 45.3458 6.87377 45.4389 6.9695C45.5325 7.06503 45.5988 7.17744 45.6385 7.30614C45.6782 7.43484 45.682 7.58002 45.65 7.74189L45.2878 9.57703L44.5724 9.43582L44.6469 9.05846L44.6256 9.05409C44.5651 9.13055 44.4918 9.19391 44.406 9.24376C44.32 9.29361 44.2223 9.32658 44.1124 9.34227C44.0026 9.35796 43.8802 9.35259 43.7458 9.32598ZM44.0644 8.84773C44.1754 8.86957 44.2779 8.86679 44.3716 8.83938C44.4655 8.81197 44.544 8.7651 44.6073 8.69897C44.6707 8.63323 44.7116 8.55219 44.7307 8.45647L44.7877 8.16789C44.7609 8.17862 44.7259 8.18616 44.683 8.19053C44.6395 8.1949 44.5914 8.19709 44.5388 8.19689C44.4862 8.19709 44.4336 8.19589 44.3813 8.19371C44.3289 8.19113 44.2816 8.18894 44.2391 8.18656C44.148 8.18219 44.0665 8.18756 43.9948 8.20285C43.9229 8.21794 43.8643 8.24595 43.8183 8.28666C43.7722 8.32738 43.742 8.38319 43.7281 8.45369C43.7078 8.55677 43.7299 8.64217 43.7942 8.71069C43.8586 8.77941 43.9488 8.82489 44.0644 8.84773Z" fill="#00395C"/>
<path d="M46.9874 8.38777L46.5187 9.92102L45.7832 9.6962L46.5943 7.04419L47.2952 7.25829L47.1522 7.72621L47.1832 7.73574C47.2891 7.5995 47.4251 7.50734 47.5907 7.45928C47.7564 7.41121 47.9377 7.41718 48.1345 7.47755C48.3188 7.53375 48.4668 7.62293 48.5792 7.74567C48.6914 7.86801 48.7631 8.01518 48.7935 8.18777C48.8237 8.35996 48.8074 8.54924 48.7447 8.7552L48.2281 10.444L47.4926 10.2187L47.9689 8.66125C48.0195 8.49959 48.017 8.35996 47.9609 8.24279C47.9047 8.12561 47.8032 8.04438 47.6559 7.9993C47.5568 7.96891 47.4632 7.96354 47.3746 7.98321C47.2863 8.00287 47.2086 8.04676 47.1419 8.11508C47.0749 8.18321 47.0235 8.27417 46.9874 8.38777Z" fill="#00395C"/>
<path d="M49.4147 10.9789C49.2519 10.9104 49.1184 10.8204 49.0149 10.7098C48.9114 10.5989 48.8465 10.4716 48.8203 10.3278C48.7939 10.1842 48.8163 10.0281 48.8874 9.85932C48.9474 9.71752 49.0235 9.60927 49.1162 9.53479C49.209 9.45992 49.3126 9.41245 49.4272 9.3916C49.542 9.37054 49.663 9.36915 49.7905 9.38782C49.9178 9.40609 50.0473 9.43608 50.179 9.477C50.3341 9.52407 50.4602 9.55981 50.5569 9.58425C50.6536 9.60887 50.7285 9.61582 50.7813 9.6053C50.8342 9.59497 50.8717 9.56259 50.8945 9.50818L50.8989 9.49825C50.9432 9.39278 50.9446 9.29745 50.9029 9.21185C50.8614 9.12625 50.78 9.05813 50.659 9.00729C50.5315 8.95347 50.4183 8.93877 50.3192 8.963C50.2203 8.98703 50.1406 9.03628 50.0807 9.11036L49.4477 8.78087C49.5464 8.63986 49.6683 8.53281 49.8141 8.46012C49.9595 8.38763 50.1226 8.35307 50.3031 8.35685C50.484 8.36022 50.6763 8.40511 50.8805 8.4913C51.0223 8.55108 51.1514 8.62497 51.2679 8.71335C51.3841 8.80133 51.4785 8.90203 51.5504 9.01464C51.6224 9.12725 51.6649 9.25039 51.6777 9.38445C51.6904 9.5185 51.6648 9.6615 51.6008 9.81364L50.8743 11.5374L50.202 11.2539L50.3516 10.8996L50.3315 10.8911C50.2568 10.9536 50.1724 11.0007 50.0781 11.0323C49.9837 11.0637 49.8813 11.0762 49.7706 11.0694C49.6598 11.0625 49.5414 11.0325 49.4147 10.9789ZM49.8239 10.5753C49.9281 10.6194 50.0288 10.6373 50.1263 10.6295C50.2239 10.6214 50.3101 10.5916 50.3855 10.54C50.4608 10.4879 50.5176 10.4172 50.5555 10.3272L50.6697 10.0561C50.6413 10.0613 50.6058 10.0615 50.5625 10.0569C50.5194 10.0526 50.4719 10.0448 50.4205 10.0343C50.3686 10.0236 50.3174 10.0119 50.2666 9.99875C50.2161 9.98584 50.17 9.97412 50.1289 9.96339C50.0405 9.94035 49.9597 9.92923 49.8864 9.92963C49.8129 9.93003 49.7498 9.94552 49.6964 9.9761C49.6431 10.0065 49.6024 10.0551 49.5744 10.1215C49.5337 10.218 49.5381 10.3062 49.5869 10.3864C49.6362 10.4667 49.7152 10.5294 49.8239 10.5753Z" fill="#00395C"/>
<path d="M51.9139 13.3024C51.6954 13.1824 51.5244 13.0501 51.4012 12.9056C51.2781 12.7612 51.1979 12.6136 51.1611 12.4629C51.1246 12.3123 51.126 12.1683 51.1657 12.0307L51.8352 12.2891C51.83 12.3439 51.837 12.4025 51.8565 12.4644C51.8759 12.5266 51.9129 12.5892 51.9669 12.6519C52.0209 12.7143 52.0972 12.7727 52.1953 12.8267C52.3421 12.9071 52.4821 12.9387 52.6157 12.9214C52.7496 12.9042 52.8602 12.816 52.9478 12.6567L53.1919 12.2118L53.1633 12.1963C53.0966 12.2478 53.0173 12.2871 52.9252 12.3145C52.833 12.3423 52.7301 12.3498 52.6163 12.3369C52.5027 12.3238 52.3816 12.2821 52.2527 12.2114C52.0702 12.1111 51.9276 11.9777 51.8249 11.8108C51.7222 11.6438 51.6751 11.4484 51.6833 11.2241C51.6916 11.0005 51.7697 10.7538 51.9172 10.4847C52.0686 10.209 52.2396 10.0037 52.4306 9.86844C52.6217 9.73319 52.8169 9.6603 53.0169 9.65037C53.2165 9.64064 53.4054 9.68473 53.5837 9.78264C53.72 9.85731 53.8213 9.94272 53.8878 10.039C53.9545 10.1352 53.9975 10.2329 54.0165 10.332C54.0354 10.4311 54.0425 10.5217 54.0372 10.6039L54.0626 10.618L54.2866 10.2094L54.9561 10.5769L53.6086 13.0319C53.4975 13.2342 53.354 13.376 53.1776 13.4573C53.0012 13.5385 52.8044 13.5645 52.5875 13.5363C52.3704 13.5077 52.1458 13.4295 51.9139 13.3024ZM52.7446 11.8223C52.8531 11.8819 52.9601 11.9052 53.0654 11.8923C53.1706 11.8793 53.2713 11.8331 53.3683 11.7536C53.4644 11.6742 53.5518 11.563 53.6302 11.4206C53.7083 11.2782 53.7561 11.1433 53.7736 11.0164C53.7911 10.8895 53.778 10.7759 53.7339 10.6764C53.6898 10.5767 53.6133 10.4966 53.5047 10.4373C53.3937 10.3765 53.2841 10.355 53.1754 10.3729C53.0668 10.391 52.9639 10.442 52.867 10.5258C52.7699 10.6102 52.6833 10.7213 52.6076 10.8593C52.5307 10.9999 52.4839 11.1318 52.4676 11.2553C52.4511 11.3789 52.4656 11.4889 52.5107 11.5858C52.5558 11.6825 52.6336 11.7614 52.7446 11.8223Z" fill="#00395C"/>
<path d="M55.0674 14.0489C54.8329 13.8864 54.6645 13.6992 54.5618 13.4866C54.4591 13.2743 54.4236 13.0489 54.4537 12.8102C54.4843 12.5715 54.5832 12.3319 54.7497 12.0914C54.9121 11.8571 55.1002 11.6829 55.3139 11.5689C55.5276 11.4545 55.7514 11.4052 55.9858 11.4211C56.2202 11.4372 56.4492 11.5226 56.6728 11.6773C56.8231 11.7816 56.9469 11.9025 57.0438 12.041C57.1405 12.179 57.2045 12.3297 57.2355 12.4934C57.2664 12.6569 57.2589 12.8298 57.2128 13.0126C57.1669 13.1951 57.077 13.3834 56.9423 13.5774L56.8221 13.751L54.897 12.4175L55.1685 12.0257L56.4986 12.947C56.5616 12.8561 56.5975 12.7617 56.6065 12.664C56.6158 12.5663 56.5991 12.4731 56.5572 12.3848C56.5153 12.2964 56.4484 12.2205 56.3562 12.1568C56.2603 12.09 56.1602 12.0535 56.0559 12.0463C55.9517 12.0394 55.8533 12.0583 55.7606 12.1031C55.668 12.1482 55.59 12.2156 55.5266 12.3045L55.2688 12.6771C55.1906 12.7901 55.1441 12.9019 55.1292 13.0134C55.1143 13.1246 55.1302 13.2292 55.1765 13.3272C55.2228 13.4251 55.2988 13.5107 55.4049 13.5842C55.475 13.6328 55.5461 13.6676 55.6184 13.688C55.6903 13.7087 55.761 13.7136 55.8299 13.7029C55.8988 13.692 55.9642 13.6656 56.0257 13.6233L56.5836 14.0668C56.4567 14.1869 56.3111 14.2674 56.1475 14.3085C55.9836 14.3492 55.8099 14.3488 55.6255 14.3071C55.4412 14.2654 55.2555 14.1792 55.0674 14.0489Z" fill="#00395C"/>
<path d="M56.4805 14.9395L58.3359 12.8779L58.8807 13.3683L58.5531 13.7321L58.5774 13.7538C58.7291 13.6716 58.8864 13.6406 59.0493 13.661C59.2123 13.6817 59.3639 13.7546 59.5035 13.8803C59.6447 14.0074 59.7335 14.1508 59.7694 14.3103C59.8054 14.4702 59.7861 14.6247 59.7116 14.7744L59.7331 14.7937C59.8814 14.7135 60.0427 14.6876 60.2171 14.7158C60.3917 14.7442 60.5545 14.8263 60.7059 14.9623C60.8981 15.1357 60.9994 15.3373 61.0097 15.5677C61.0205 15.7981 60.9251 16.0251 60.7233 16.2489L59.4759 17.6352L58.9057 17.122L60.0518 15.8483C60.1549 15.7339 60.2018 15.6205 60.1923 15.5085C60.1831 15.3965 60.1329 15.2996 60.0415 15.2173C59.9378 15.1238 59.8272 15.0841 59.7098 15.0972C59.5925 15.1107 59.4856 15.1711 59.3889 15.2785L58.2558 16.5371L57.7017 16.0386L58.8588 14.7528C58.9498 14.6515 58.9935 14.5452 58.9897 14.4334C58.9859 14.3214 58.9371 14.2233 58.8431 14.1387C58.7796 14.0815 58.7083 14.046 58.6292 14.0321C58.55 14.0185 58.4701 14.0267 58.3895 14.0571C58.3089 14.0873 58.2344 14.1407 58.1659 14.2164L57.0521 15.4539L56.4805 14.9395Z" fill="#00395C"/>
<path d="M60.5729 19.0212C60.3866 18.8052 60.2705 18.5813 60.2246 18.3501C60.1785 18.1186 60.2005 17.8914 60.2899 17.6679C60.3795 17.4445 60.535 17.2373 60.7566 17.0465C60.9727 16.8604 61.1986 16.739 61.4341 16.682C61.6696 16.6254 61.8988 16.6342 62.1217 16.7083C62.3445 16.7823 62.5447 16.9225 62.7223 17.1285C62.8416 17.2673 62.931 17.4155 62.99 17.5734C63.049 17.7315 63.073 17.8937 63.0619 18.0596C63.051 18.2256 63.0003 18.3911 62.9098 18.5565C62.8194 18.7219 62.6849 18.8816 62.5062 19.0355L62.3461 19.1734L60.8176 17.3994L61.1787 17.0882L62.2347 18.3136C62.3185 18.2415 62.3771 18.1591 62.4105 18.0669C62.4438 17.9746 62.4514 17.8806 62.4329 17.7843C62.4142 17.6884 62.3684 17.5978 62.2955 17.513C62.2192 17.4246 62.1316 17.3637 62.0325 17.3309C61.9332 17.2979 61.8333 17.2916 61.7322 17.3118C61.6315 17.3321 61.539 17.3774 61.4554 17.4481L61.112 17.7438C61.0081 17.8334 60.9348 17.9301 60.8927 18.0342C60.8504 18.138 60.8393 18.2435 60.8595 18.3499C60.8798 18.4564 60.932 18.5583 61.0162 18.656C61.0716 18.7206 61.132 18.7722 61.1968 18.8101C61.2611 18.8483 61.3282 18.8709 61.3978 18.8777C61.4671 18.8846 61.537 18.8753 61.6073 18.8496L62.0359 19.4191C61.883 19.5035 61.7219 19.5446 61.5533 19.5432C61.3845 19.5418 61.216 19.4979 61.0482 19.4109C60.8808 19.3243 60.7223 19.1942 60.5729 19.0212Z" fill="#00395C"/>
<path d="M63.4492 19.9885L62.1342 20.9055L61.6943 20.2747L63.969 18.6882L64.3883 19.2894L63.9871 19.5695L64.0057 19.5961C64.173 19.5542 64.3368 19.5653 64.4969 19.6298C64.6572 19.6942 64.796 19.811 64.9136 19.9796C65.0238 20.1375 65.0854 20.2993 65.0981 20.4654C65.111 20.6308 65.076 20.7909 64.9938 20.945C64.9114 21.0995 64.7819 21.2382 64.6053 21.3615L63.1567 22.3716L62.7168 21.7406L64.0524 20.8094C64.1926 20.7128 64.2764 20.6016 64.3047 20.4747C64.3329 20.348 64.3031 20.2215 64.2149 20.0948C64.1557 20.0102 64.0852 19.948 64.0038 19.9089C63.9219 19.8697 63.834 19.8562 63.739 19.8688C63.6445 19.8813 63.5477 19.9212 63.4492 19.9885Z" fill="#00395C"/>
<path d="M66.4899 21.2748L66.8746 21.9407L64.6359 23.2339C64.5742 23.2696 64.5322 23.3065 64.509 23.3449C64.486 23.383 64.4774 23.4231 64.4834 23.4648C64.4895 23.5065 64.5056 23.5498 64.5315 23.5945C64.5493 23.6257 64.5702 23.6555 64.594 23.6835C64.6178 23.7115 64.6363 23.7328 64.649 23.7476L64.2139 24.1387C64.1841 24.1113 64.1448 24.0716 64.0959 24.0191C64.0469 23.9671 63.9958 23.8984 63.9426 23.8136C63.8439 23.6569 63.7839 23.504 63.7632 23.3552C63.7428 23.2066 63.7648 23.0692 63.8296 22.9427C63.8941 22.8166 64.0053 22.7087 64.1634 22.6186L66.4899 21.2748ZM66.5602 22.7248L66.0599 23.014L65.2246 21.5677L65.7249 21.2788L66.5602 22.7248Z" fill="#00395C"/>
<path d="M68.0971 26.3467C68.2258 26.2772 68.3062 26.1763 68.3384 26.044C68.3704 25.912 68.3503 25.7592 68.2779 25.5861C68.2284 25.4683 68.1706 25.3759 68.1039 25.3084C68.0369 25.2411 67.966 25.1982 67.8906 25.1797C67.8147 25.161 67.7404 25.1672 67.6669 25.1976C67.605 25.221 67.5571 25.2564 67.5237 25.3038C67.49 25.3511 67.4669 25.4067 67.4552 25.4705C67.4433 25.534 67.4393 25.6035 67.4427 25.679C67.4465 25.7547 67.4554 25.8331 67.4699 25.9144L67.5247 26.2516C67.5537 26.4143 67.5664 26.5696 67.5631 26.7171C67.5597 26.8645 67.5364 27.0011 67.4935 27.1259C67.4507 27.2508 67.3847 27.3616 67.2959 27.4581C67.2074 27.5549 67.0918 27.6333 66.9504 27.6939C66.7412 27.7803 66.5382 27.8029 66.3416 27.7618C66.145 27.7207 65.9637 27.6192 65.7974 27.4573C65.6308 27.2953 65.4896 27.0756 65.3736 26.7978C65.258 26.5223 65.2 26.2653 65.1992 26.0262C65.1984 25.7872 65.257 25.5761 65.3752 25.3926C65.4938 25.2093 65.6745 25.0637 65.9176 24.9553L66.2096 25.6532C66.0985 25.7088 66.0171 25.7817 65.9653 25.872C65.9136 25.9618 65.8892 26.0643 65.8922 26.1785C65.895 26.2929 65.9224 26.4121 65.9746 26.5366C66.0258 26.6587 66.088 26.7574 66.1615 26.8331C66.235 26.9088 66.3136 26.9584 66.3978 26.9819C66.482 27.0051 66.5653 26.9997 66.6473 26.9654C66.7239 26.9334 66.7788 26.884 66.8123 26.8168C66.8457 26.7503 66.8626 26.6661 66.8634 26.5648C66.864 26.4633 66.8532 26.3443 66.8312 26.2073L66.7688 25.7968C66.7186 25.48 66.7327 25.2071 66.8117 24.9783C66.891 24.7495 67.0566 24.5829 67.309 24.4784C67.5152 24.3908 67.7188 24.3704 67.92 24.4174C68.1208 24.4645 68.3055 24.5678 68.4739 24.7269C68.6423 24.886 68.7787 25.0899 68.8828 25.3386C68.9889 25.5918 69.0379 25.8311 69.0306 26.057C69.0234 26.2822 68.9644 26.48 68.8544 26.6504C68.744 26.8204 68.5881 26.9495 68.3865 27.0379L68.0971 26.3467Z" fill="#00395C"/>
<path d="M65.2479 29.249C65.2197 29.1556 65.2006 29.0661 65.1907 28.9807C65.1807 28.8951 65.1782 28.8226 65.1831 28.7634L65.7845 28.764C65.7831 28.9064 65.8056 29.0196 65.8514 29.103C65.8973 29.1868 65.9877 29.2367 66.1233 29.2524L66.2485 29.2619L68.6957 27.4901L68.9279 28.2649L67.142 29.3995L67.1503 29.4273L69.2673 29.3975L69.4977 30.1787L66.2481 30.0275C66.0916 30.0204 65.9476 29.9904 65.8169 29.937C65.6858 29.8839 65.5718 29.8017 65.4751 29.6899C65.378 29.5783 65.3023 29.4311 65.2479 29.249Z" fill="#00395C"/>
<path d="M69.294 33.1597L69.1161 32.4773C69.1729 32.4539 69.2214 32.4179 69.2615 32.3697C69.3018 32.3212 69.3302 32.2628 69.3467 32.1939C69.3632 32.1248 69.3628 32.0467 69.3457 31.9593C69.323 31.8424 69.2789 31.7484 69.2142 31.6779C69.1497 31.6072 69.0764 31.5798 68.9947 31.5957C68.9298 31.6086 68.8801 31.6453 68.8454 31.7061C68.8104 31.7667 68.792 31.8628 68.7896 31.9947L68.787 32.5067C68.7846 32.7822 68.7358 32.9965 68.6408 33.1498C68.5457 33.3033 68.4003 33.3995 68.2041 33.438C68.0259 33.4729 67.8589 33.4513 67.704 33.3732C67.5489 33.295 67.416 33.1726 67.3054 33.0062C67.1949 32.8394 67.1163 32.638 67.07 32.4016C66.9993 32.0414 67.0186 31.7401 67.1274 31.4974C67.2363 31.2547 67.4168 31.0894 67.6696 31.0019L67.8541 31.7365C67.7485 31.7806 67.6758 31.8511 67.6355 31.9488C67.5949 32.0461 67.5878 32.1623 67.6144 32.297C67.6404 32.429 67.6867 32.5307 67.754 32.6016C67.8214 32.6723 67.8958 32.7003 67.9777 32.6857C68.046 32.671 68.0964 32.6312 68.1298 32.5657C68.163 32.5004 68.1796 32.4064 68.1804 32.2835L68.1816 31.7939C68.1828 31.5176 68.2362 31.3019 68.3419 31.1468C68.4478 30.9919 68.6023 30.8944 68.8053 30.8545C68.9802 30.8205 69.1401 30.8382 69.2851 30.9087C69.4301 30.979 69.554 31.094 69.6563 31.2537C69.7588 31.4132 69.8327 31.6094 69.8783 31.842C69.9459 32.1858 69.9262 32.4708 69.8198 32.6972C69.7133 32.9234 69.5379 33.0777 69.294 33.1597Z" fill="#00395C"/>
<path d="M70.8383 33.8149L70.9247 34.5792L68.3559 34.8705C68.2852 34.8787 68.2318 34.8956 68.1954 34.9214C68.1591 34.9474 68.1352 34.9808 68.1241 35.0213C68.113 35.062 68.1102 35.1079 68.116 35.1593C68.1203 35.1953 68.1275 35.2306 68.1382 35.266C68.1489 35.3011 68.1571 35.3281 68.1626 35.3466L67.6077 35.5313C67.5914 35.4946 67.5712 35.4423 67.5472 35.3746C67.5231 35.3073 67.5037 35.2241 67.489 35.1252C67.4608 34.9416 67.4671 34.7778 67.5076 34.6334C67.5484 34.489 67.6232 34.3714 67.7331 34.2817C67.8427 34.1917 67.9879 34.1369 68.1686 34.1176L70.8383 33.8149ZM70.3235 35.1726L69.7495 35.2376L69.5613 33.578L70.1352 33.5131L70.3235 35.1726Z" fill="#00395C"/>
<path d="M67.5987 37.1436C67.5897 36.8586 67.6404 36.6115 67.75 36.403C67.8598 36.194 68.0195 36.031 68.2298 35.914C68.44 35.7964 68.6914 35.7333 68.9834 35.7243C69.2688 35.7154 69.5206 35.7631 69.7395 35.8671C69.9581 35.9712 70.1309 36.1219 70.2572 36.3198C70.3839 36.5176 70.4515 36.7525 70.4598 37.0242C70.4656 37.2071 70.4415 37.3787 70.3881 37.5386C70.3349 37.6987 70.2517 37.8397 70.1385 37.9618C70.0255 38.084 69.8819 38.1807 69.7075 38.2526C69.5333 38.3241 69.3283 38.3636 69.0924 38.3708L68.8813 38.3775L68.809 36.0367L69.2855 36.022L69.3355 37.6391C69.4461 37.6357 69.5434 37.6085 69.6275 37.5577C69.7115 37.5068 69.7762 37.4385 69.8225 37.3521C69.8686 37.2659 69.8898 37.1666 69.8864 37.0548C69.8829 36.9382 69.8529 36.8357 69.7965 36.7478C69.7403 36.6596 69.6664 36.5918 69.575 36.5442C69.4841 36.4963 69.3836 36.4735 69.2743 36.4759L68.8211 36.4898C68.6841 36.4941 68.5663 36.5233 68.468 36.5775C68.3699 36.6316 68.295 36.7066 68.244 36.802C68.1925 36.8977 68.1689 37.0097 68.1729 37.1386C68.1754 37.2238 68.1899 37.3017 68.2163 37.3722C68.2426 37.4421 68.2805 37.5019 68.3301 37.5509C68.3798 37.6 68.4402 37.6365 68.5105 37.6608L68.4857 38.3736C68.3137 38.3426 68.1627 38.2737 68.0322 38.1662C67.9019 38.0588 67.7989 37.9188 67.723 37.746C67.6471 37.573 67.6058 37.3724 67.5987 37.1436Z" fill="#00395C"/>
<path d="M67.7216 38.8113L70.4824 39.0733L70.4133 39.8029L69.9261 39.7569L69.9231 39.7892C70.0792 39.8621 70.198 39.9702 70.2786 40.1132C70.3593 40.2562 70.3908 40.4212 70.3732 40.6083C70.3551 40.7976 70.2927 40.9543 70.1861 41.0782C70.0792 41.2025 69.9438 41.279 69.7787 41.308L69.7762 41.337C69.9289 41.4083 70.0459 41.5223 70.1273 41.6792C70.2083 41.8365 70.2395 42.0162 70.2202 42.2188C70.1958 42.4762 70.0941 42.678 69.9152 42.8238C69.7362 42.9693 69.4971 43.0277 69.1976 42.9993L67.3408 42.8232L67.4133 42.0591L69.1192 42.221C69.2725 42.2355 69.3914 42.2059 69.4759 42.1316C69.5601 42.0573 69.6081 41.9594 69.6198 41.8369C69.6332 41.6981 69.5992 41.5854 69.5186 41.499C69.4379 41.4129 69.3259 41.3632 69.1817 41.3495L67.4957 41.1892L67.5662 40.4468L69.2884 40.6103C69.4238 40.6232 69.5352 40.5946 69.6228 40.5253C69.7104 40.4556 69.7603 40.3578 69.7722 40.2319C69.7803 40.1469 69.7662 40.0685 69.7301 39.9968C69.6941 39.9251 69.6397 39.8657 69.5676 39.8188C69.4951 39.7721 69.4081 39.7439 69.3062 39.7344L67.6491 39.5769L67.7216 38.8113Z" fill="#00395C"/>
<path d="M31.0851 67.1685L30.3299 66.9333C30.3466 66.8314 30.3456 66.7355 30.327 66.6459C30.3081 66.5561 30.2739 66.4739 30.2241 66.399C30.1742 66.3244 30.1105 66.259 30.0326 66.2032C29.9548 66.1476 29.8654 66.1039 29.7641 66.0723C29.5816 66.0155 29.4084 66.011 29.2447 66.059C29.0809 66.1069 28.9349 66.2052 28.8066 66.3538C28.6785 66.5021 28.5762 66.6987 28.5 66.9436C28.4215 67.1953 28.3933 67.4183 28.4152 67.6131C28.4372 67.808 28.5022 67.9698 28.6106 68.0995C28.719 68.229 28.8622 68.3216 29.0404 68.3772C29.1405 68.4084 29.2372 68.4241 29.3309 68.4243C29.4249 68.4245 29.5133 68.4096 29.5959 68.3792C29.6783 68.3488 29.7532 68.3037 29.8205 68.2439C29.8874 68.1841 29.9444 68.1099 29.9911 68.0211L30.745 68.2596C30.6751 68.4157 30.5778 68.5565 30.4535 68.6822C30.3292 68.8082 30.1834 68.9097 30.0163 68.9867C29.8491 69.064 29.6652 69.1087 29.4638 69.121C29.2626 69.1333 29.0491 69.1043 28.8225 69.0336C28.5077 68.9355 28.2485 68.7766 28.0454 68.5571C27.8422 68.3375 27.7109 68.0701 27.6521 67.7555C27.5933 67.4409 27.6237 67.0916 27.7433 66.7079C27.863 66.3228 28.0376 66.0177 28.2666 65.7929C28.4956 65.5679 28.7562 65.4233 29.0485 65.3587C29.3411 65.294 29.6426 65.3101 29.9528 65.4068C30.1574 65.4706 30.3383 65.5585 30.4956 65.6705C30.6529 65.7828 30.7824 65.9146 30.8837 66.0668C30.9852 66.2187 31.0539 66.3873 31.09 66.5724C31.1264 66.7579 31.1246 66.9565 31.0851 67.1685Z" fill="#00395C"/>
<path d="M32.3884 69.9209C32.108 69.8679 31.8778 69.765 31.6978 69.6129C31.5179 69.4604 31.3934 69.2689 31.3245 69.0383C31.2553 68.8077 31.2482 68.5489 31.3028 68.2614C31.3558 67.9813 31.4569 67.7456 31.6061 67.5545C31.7548 67.3634 31.9397 67.2276 32.1602 67.147C32.3807 67.0661 32.6245 67.051 32.8919 67.1021C33.0716 67.136 33.2339 67.1966 33.3785 67.2834C33.523 67.3702 33.6426 67.482 33.7373 67.6189C33.8321 67.7557 33.8956 67.9168 33.9278 68.1027C33.96 68.2882 33.954 68.4969 33.9101 68.7285L33.8706 68.936L31.5699 68.4997L31.6589 68.0312L33.2482 68.3328C33.2688 68.224 33.2635 68.1231 33.2321 68.0304C33.2009 67.9372 33.1479 67.859 33.0736 67.7952C32.9993 67.7317 32.9074 67.6894 32.7973 67.6683C32.6825 67.6467 32.5761 67.6536 32.4782 67.6896C32.3799 67.7255 32.2978 67.7829 32.2313 67.8615C32.165 67.9402 32.1211 68.0331 32.0994 68.1406L32.0148 68.5859C31.9894 68.7207 31.9924 68.8419 32.024 68.9495C32.0555 69.0574 32.1125 69.1465 32.1948 69.2172C32.2768 69.288 32.3812 69.3352 32.5078 69.3594C32.5916 69.3751 32.6706 69.3779 32.7449 69.3676C32.8194 69.3571 32.8857 69.333 32.9443 69.2951C33.0029 69.2574 33.052 69.2065 33.0909 69.1428L33.781 69.3215C33.7137 69.4828 33.6134 69.6155 33.4803 69.7193C33.3475 69.8234 33.1882 69.8935 33.0031 69.9302C32.8178 69.9666 32.6128 69.9636 32.3884 69.9209Z" fill="#00395C"/>
<path d="M34.3457 70.1809L34.6287 67.4222L35.3705 67.4983L35.3211 67.9795L35.3499 67.9827C35.4178 67.8165 35.5155 67.6957 35.643 67.6198C35.7707 67.544 35.9117 67.514 36.0661 67.5299C36.1044 67.5339 36.1455 67.5404 36.1894 67.5497C36.2331 67.5591 36.2714 67.5698 36.3042 67.5815L36.2343 68.2604C36.1995 68.2461 36.1509 68.2312 36.0881 68.2165C36.0255 68.2014 35.9679 68.1913 35.9153 68.1859C35.8029 68.1744 35.7 68.1885 35.6069 68.2278C35.5141 68.2671 35.4375 68.3273 35.3779 68.4085C35.3181 68.4894 35.2825 68.5863 35.2708 68.6987L35.1107 70.2596L34.3457 70.1809Z" fill="#00395C"/>
<path d="M38.2743 67.6638L38.2562 68.2412L36.5869 68.1891L36.6048 67.6116L38.2743 67.6638ZM37.0046 66.9594L37.7734 66.9834L37.6928 69.5677C37.6906 69.6388 37.6997 69.694 37.72 69.7337C37.7406 69.7736 37.77 69.8018 37.8088 69.8187C37.8473 69.8356 37.8924 69.8447 37.9442 69.8465C37.9802 69.8475 38.0165 69.8453 38.0526 69.84C38.0892 69.8344 38.117 69.83 38.1365 69.8271L38.2393 70.4028C38.2006 70.4137 38.146 70.4261 38.0755 70.4404C38.0052 70.4543 37.9202 70.4618 37.8203 70.4622C37.6346 70.4636 37.4733 70.434 37.3363 70.373C37.1988 70.3121 37.0938 70.2211 37.0205 70.0994C36.9472 69.9778 36.914 69.8263 36.9208 69.6447L37.0046 66.9594Z" fill="#00395C"/>
<path d="M39.1017 67.2884C38.9873 67.291 38.8884 67.2553 38.805 67.1812C38.7214 67.1073 38.6785 67.0167 38.6759 66.9097C38.6735 66.8026 38.7124 66.7099 38.7925 66.6316C38.8725 66.5534 38.9692 66.5128 39.0824 66.5103C39.1978 66.5077 39.2971 66.5434 39.3799 66.6173C39.463 66.6914 39.5057 66.782 39.5083 66.889C39.5106 66.9961 39.4719 67.0888 39.3925 67.1671C39.313 67.2453 39.2161 67.2858 39.1017 67.2884ZM38.7847 70.427L38.7218 67.6545L39.4908 67.6372L39.5537 70.4095L38.7847 70.427Z" fill="#00395C"/>
<path d="M41.5611 67.5006L41.606 68.0765L39.8992 68.209L39.8545 67.633L41.5611 67.5006ZM40.4598 70.3677L40.2297 67.4028C40.2142 67.2025 40.2406 67.033 40.3091 66.895C40.3774 66.7568 40.4775 66.6495 40.609 66.5729C40.7407 66.4964 40.8936 66.4513 41.0676 66.4378C41.1854 66.4287 41.2936 66.4293 41.3927 66.4398C41.492 66.4501 41.5661 66.4609 41.6154 66.4714L41.5232 67.0579C41.4924 67.0507 41.4547 67.0448 41.4104 67.0396C41.3659 67.0346 41.3208 67.0338 41.2751 67.0374C41.1623 67.0461 41.0859 67.0783 41.0457 67.1339C41.0052 67.1897 40.9885 67.2644 40.9961 67.358L41.2249 70.3083L40.4598 70.3677Z" fill="#00395C"/>
<path d="M42.3384 67.036C42.2252 67.0513 42.1229 67.0267 42.0317 66.9625C41.9406 66.898 41.8879 66.8128 41.8736 66.7065C41.8595 66.6005 41.8879 66.5039 41.959 66.4173C42.0299 66.3308 42.1215 66.2799 42.2337 66.265C42.3481 66.2497 42.4508 66.2743 42.5413 66.3387C42.6319 66.4032 42.6843 66.4885 42.6984 66.5945C42.7125 66.7008 42.6845 66.7971 42.6142 66.8835C42.5437 66.9703 42.452 67.0209 42.3384 67.036ZM42.3684 70.1907L42.0011 67.4418L42.7636 67.3401L43.1306 70.0888L42.3684 70.1907Z" fill="#00395C"/>
<path d="M45.1519 69.7816C44.8726 69.84 44.6208 69.8336 44.396 69.7619C44.1713 69.6902 43.9829 69.5611 43.8307 69.3749C43.6784 69.1884 43.5725 68.952 43.5126 68.6656C43.454 68.3866 43.457 68.1302 43.5211 67.8964C43.5854 67.663 43.7038 67.4666 43.8764 67.3073C44.049 67.1485 44.2685 67.041 44.535 66.9852C44.7139 66.9475 44.8869 66.9413 45.0538 66.9657C45.2208 66.9906 45.3741 67.048 45.5141 67.1379C45.6542 67.2279 45.7745 67.3522 45.8754 67.5113C45.9765 67.6704 46.051 67.8654 46.0994 68.0962L46.1427 68.3032L43.8508 68.783L43.7531 68.3165L45.3364 67.985C45.3137 67.8764 45.27 67.7854 45.2055 67.7117C45.1408 67.6378 45.0619 67.5858 44.9688 67.5556C44.8758 67.5252 44.7745 67.5214 44.6649 67.5445C44.5507 67.5683 44.4552 67.6158 44.3783 67.6865C44.3014 67.7574 44.2476 67.8418 44.2166 67.9399C44.1854 68.0382 44.1805 68.1409 44.2017 68.2484L44.2945 68.692C44.3227 68.8263 44.3719 68.9369 44.4426 69.0243C44.5131 69.1117 44.5999 69.1721 44.703 69.2058C44.8061 69.2396 44.9205 69.2434 45.0466 69.217C45.1302 69.1995 45.2043 69.1719 45.2689 69.1335C45.3334 69.0956 45.3854 69.0475 45.4252 68.9902C45.4647 68.9328 45.4903 68.867 45.502 68.7933L46.2079 68.6934C46.2077 68.8682 46.166 69.0291 46.0829 69.176C46.0001 69.3232 45.8802 69.4491 45.7231 69.554C45.5662 69.6589 45.3755 69.7347 45.1519 69.7816Z" fill="#00395C"/>
<path d="M48.0893 69.0072C47.8887 69.0717 47.6907 69.0783 47.4952 69.0266C47.2996 68.9752 47.1221 68.8636 46.9624 68.6916C46.8029 68.5198 46.6758 68.2866 46.5809 67.9921C46.4837 67.6896 46.4514 67.4223 46.4839 67.1897C46.5167 66.9576 46.5981 66.7649 46.7278 66.6124C46.8577 66.4602 47.0194 66.3528 47.2132 66.2904C47.361 66.243 47.4925 66.2281 47.6077 66.2459C47.7229 66.264 47.823 66.3002 47.908 66.3544C47.9932 66.4084 48.0631 66.466 48.1181 66.5266L48.1403 66.5192L47.7145 65.1959L48.445 64.9609L49.5775 68.4811L48.8557 68.7132L48.7197 68.2902L48.6887 68.3003C48.678 68.3847 48.6527 68.4729 48.6134 68.5645C48.5741 68.6562 48.5123 68.7416 48.4283 68.8203C48.3443 68.8991 48.2313 68.9615 48.0893 69.0072ZM48.1338 68.3498C48.2517 68.3119 48.3413 68.2473 48.4025 68.1563C48.4637 68.0652 48.4974 67.9542 48.504 67.8231C48.5103 67.692 48.4883 67.5478 48.4378 67.3909C48.3874 67.234 48.3217 67.1047 48.241 67.0028C48.1602 66.9013 48.0684 66.8322 47.9658 66.7957C47.8629 66.7591 47.7524 66.7599 47.6345 66.7979C47.5141 66.8366 47.4234 66.9017 47.3618 66.9937C47.3002 67.0854 47.2669 67.1963 47.2617 67.3256C47.2565 67.4551 47.2786 67.5959 47.3274 67.7482C47.3769 67.9017 47.442 68.0304 47.5227 68.1339C47.6035 68.2376 47.6955 68.3093 47.7985 68.3488C47.9018 68.3881 48.0134 68.3885 48.1338 68.3498Z" fill="#00395C"/>
<path d="M38.9153 19.3879C39.2165 19.4256 39.5178 19.462 39.8189 19.5009C41.5337 19.7226 43.1415 20.2681 44.6506 21.1073C45.85 21.7742 46.9203 22.6093 47.8695 23.5998C48.3533 24.1047 48.7938 24.6454 49.1915 25.2206C49.2281 25.2736 49.2981 25.328 49.2617 25.3989C49.221 25.4782 49.1304 25.4472 49.0588 25.4559C48.8479 25.4817 48.7105 25.3928 48.586 25.2186C47.9158 24.2807 47.1119 23.4698 46.2114 22.7513C46.0702 22.6387 45.9533 22.6343 45.8074 22.7209C45.4869 22.911 45.1654 23.1001 44.8387 23.2793C44.6804 23.3662 44.6741 23.4444 44.7945 23.5738C45.2432 24.0561 45.6392 24.5807 45.9984 25.1321C46.0556 25.2198 46.2049 25.3154 46.086 25.4396C45.9882 25.5418 45.6726 25.4916 45.5813 25.3797C45.5128 25.2958 45.4524 25.2053 45.3894 25.1171C45.0424 24.6313 44.667 24.1688 44.2689 23.724C44.1978 23.6445 44.1311 23.6321 44.0371 23.6703C43.3777 23.9384 42.7143 24.1958 42.0279 24.3881C41.905 24.4225 41.8789 24.4842 41.9302 24.5972C42.0339 24.8255 42.1285 25.0579 42.235 25.2848C42.2936 25.4095 42.2473 25.4562 42.1285 25.4801C41.8988 25.5264 41.7997 25.4809 41.6872 25.2689C41.5951 25.0953 41.4946 24.9256 41.4115 24.7479C41.3473 24.6107 41.2507 24.5771 41.1148 24.6088C40.4934 24.7537 39.8637 24.8437 39.2282 24.8962C38.9719 24.9175 38.7161 24.9491 38.4593 24.9593C38.3015 24.9656 38.2254 25.0119 38.2253 25.1841C38.2253 25.4659 38.0828 25.5575 37.8096 25.4782C37.707 25.4484 37.6926 25.3732 37.6956 25.2891C37.7086 24.9326 37.6535 24.952 37.3263 24.9367C36.6348 24.9044 35.9492 24.8323 35.2669 24.721C35.0997 24.6937 34.9298 24.6726 34.7683 24.6247C34.5854 24.5704 34.4887 24.6372 34.4202 24.7996C34.3465 24.9743 34.2637 25.1453 34.1796 25.3153C34.1014 25.4733 33.8242 25.5576 33.6707 25.4773C33.5805 25.4301 33.6186 25.3631 33.644 25.3032C33.7365 25.0848 33.8276 24.8656 33.9297 24.6517C33.9977 24.5093 33.9792 24.4297 33.8153 24.384C33.1619 24.2016 32.5261 23.9659 31.8935 23.7228C31.7693 23.6751 31.696 23.7015 31.6125 23.7943C31.186 24.2686 30.7879 24.765 30.4271 25.2912C30.298 25.4795 30.096 25.5503 29.8822 25.4911C29.7581 25.4567 29.8023 25.3866 29.8433 25.3227C29.9823 25.1061 30.1152 24.8844 30.2687 24.6783C30.5439 24.3089 30.827 23.9449 31.1185 23.5883C31.2167 23.4681 31.1958 23.4108 31.073 23.342C30.7184 23.1432 30.365 22.9419 30.0154 22.7344C29.8902 22.6601 29.7986 22.7099 29.7007 22.7801C29.1246 23.1934 28.6276 23.6926 28.1525 24.2143C27.833 24.5652 27.5401 24.9384 27.2576 25.3199C27.1426 25.4753 26.8556 25.5512 26.6892 25.4753C26.5656 25.419 26.655 25.3497 26.6915 25.3001C26.9445 24.9563 27.1891 24.6051 27.461 24.2767C29.1303 22.2615 31.2174 20.8569 33.7035 20.0476C34.7513 19.7065 35.8269 19.4963 36.9276 19.4212C36.9805 19.4176 37.0324 19.3994 37.0848 19.3879H38.9153ZM37.6878 22.9382C37.6748 22.6439 37.7142 22.2103 37.6674 21.7776C37.6531 21.645 37.597 21.5946 37.4639 21.5821C37.2217 21.5593 36.9812 21.517 36.7405 21.48C36.6477 21.4658 36.5691 21.4743 36.5034 21.5536C35.887 22.296 35.3588 23.0974 34.8906 23.9401C34.8239 24.0601 34.8574 24.1132 34.9813 24.1348C35.2746 24.1859 35.5666 24.2463 35.8614 24.2865C36.3774 24.357 36.8945 24.4205 37.4168 24.4268C37.6084 24.4292 37.6998 24.3641 37.6916 24.1534C37.6777 23.795 37.6878 23.4356 37.6878 22.9382ZM38.2308 23.0121C38.2308 23.4115 38.2371 23.811 38.2279 24.2102C38.2238 24.3829 38.2913 24.4355 38.4552 24.4256C39.2458 24.378 40.0334 24.309 40.8086 24.1361C41.0314 24.0864 41.0382 24.0784 40.934 23.8767C40.5092 23.0543 39.9503 22.3228 39.3853 21.5954C39.3194 21.5106 39.2437 21.4845 39.1381 21.5012C38.9044 21.5381 38.6694 21.5683 38.4344 21.5958C38.2883 21.6129 38.2248 21.6789 38.2282 21.8342C38.2368 22.2267 38.2311 22.6194 38.2308 23.0121ZM40.6181 20.9686C40.4232 21.0555 40.2281 21.1483 40.0283 21.2295C39.8904 21.2855 39.8767 21.3472 39.9677 21.4667C40.5305 22.2054 41.0352 22.9836 41.5132 23.779C41.589 23.9051 41.6637 23.939 41.8083 23.903C42.4018 23.7554 42.9708 23.541 43.5351 23.3092C43.7017 23.2408 43.7139 23.1857 43.5848 23.0619C42.749 22.26 41.826 21.5797 40.7982 21.0437C40.745 21.016 40.6872 20.9971 40.6181 20.9686ZM34.1175 23.9303C34.2425 23.9481 34.2959 23.9001 34.3365 23.8319C34.8256 23.0108 35.3234 22.1955 35.9147 21.4418C35.9901 21.3456 35.9772 21.2815 35.8572 21.2237C35.2959 20.9533 35.2647 20.952 34.7245 21.2749C34.6954 21.2923 34.6659 21.3089 34.6368 21.3262C33.7941 21.8266 33.0273 22.4272 32.3112 23.0937C32.1531 23.2408 32.1614 23.2721 32.3609 23.3504C32.6257 23.4544 32.8897 23.562 33.1599 23.6502C33.4879 23.7574 33.8153 23.8695 34.1175 23.9303ZM37.839 19.8737C37.6305 19.8561 37.2868 19.9037 36.9429 19.9259C36.362 19.9635 35.7859 20.0481 35.2168 20.1738C35.1737 20.1833 35.1106 20.1807 35.1092 20.2438C35.1083 20.2872 35.1565 20.3054 35.1916 20.3248C35.3514 20.4136 35.5073 20.5105 35.6721 20.5888C36.931 21.1869 38.2273 21.2239 39.5497 20.8364C39.9092 20.7311 40.2446 20.5694 40.566 20.3796C40.6311 20.3412 40.7462 20.3165 40.7299 20.2242C40.7163 20.1472 40.6032 20.1688 40.536 20.1422C40.5113 20.1323 40.4831 20.1313 40.4566 20.1257C39.6391 19.952 38.8103 19.8921 37.839 19.8737ZM34.2793 20.4092C34.179 20.4653 34.0455 20.4032 33.9375 20.4793C33.8358 20.5511 33.7138 20.5744 33.5992 20.6145C32.5057 20.997 31.478 21.5079 30.5275 22.173C30.3873 22.271 30.3696 22.3317 30.525 22.4305C30.8231 22.6203 31.1344 22.7831 31.4527 22.9355C31.589 23.0008 31.684 22.9795 31.7938 22.874C32.1405 22.5408 32.5039 22.2256 32.8808 21.9262C33.4066 21.5084 33.9525 21.1193 34.5213 20.7618C34.5756 20.7277 34.6972 20.6946 34.6306 20.609C34.5506 20.5064 34.4401 20.4145 34.2793 20.4092ZM41.5866 20.3897C41.4218 20.4009 41.2996 20.4792 41.2473 20.6019C41.2021 20.7081 41.3436 20.7292 41.4108 20.7701C42.3811 21.3607 43.2879 22.0337 44.0959 22.8344C44.2155 22.953 44.3171 22.9797 44.4687 22.8871C44.746 22.7177 45.0351 22.5675 45.3193 22.4094C45.5322 22.291 45.5349 22.2631 45.3386 22.1295C44.4945 21.5548 43.5975 21.0813 42.6361 20.7347C42.2858 20.6084 41.9284 20.5015 41.5866 20.3897Z" fill="#00395C"/>
<path d="M36.8406 45.7881C36.4998 45.7386 36.1581 45.6941 35.8182 45.6387C33.9959 45.3416 32.2973 44.7121 30.7345 43.727C29.185 42.7502 27.8724 41.521 26.8251 40.0147C26.7627 39.9249 26.6253 39.8276 26.686 39.7242C26.7423 39.6284 26.8989 39.6914 27.0108 39.6801C27.1526 39.6658 27.2308 39.7485 27.3056 39.8553C27.9674 40.7997 28.7624 41.6188 29.6479 42.3549C29.8209 42.4987 29.9633 42.5456 30.167 42.4143C30.4686 42.22 30.7835 42.0455 31.0992 41.8745C31.2569 41.789 31.2595 41.7173 31.1471 41.5833C30.7028 41.0535 30.271 40.5133 29.9131 39.9191C29.7842 39.705 29.7892 39.7012 30.0276 39.6609C30.2084 39.6303 30.334 39.6828 30.4373 39.8445C30.7955 40.4058 31.2158 40.9195 31.6648 41.4107C31.7457 41.4993 31.8224 41.5211 31.9329 41.4776C32.5952 41.2167 33.2631 40.9709 33.9482 40.7755C34.0817 40.7375 34.097 40.6667 34.0429 40.5481C33.9418 40.3262 33.8553 40.0975 33.7534 39.876C33.6796 39.7154 33.7517 39.6615 33.8967 39.659C34.0736 39.6561 34.2255 39.688 34.3014 39.8885C34.3682 40.0649 34.4786 40.2244 34.5531 40.3985C34.6093 40.5296 34.688 40.5636 34.823 40.5371C35.4283 40.4187 36.038 40.3283 36.6525 40.2743C36.9358 40.2495 37.2194 40.2197 37.5033 40.215C37.692 40.2119 37.7745 40.1505 37.7718 39.955C37.7683 39.7048 37.9497 39.5947 38.1804 39.6901C38.2587 39.7225 38.2623 39.789 38.2684 39.8575C38.2882 40.0779 38.411 40.1947 38.6368 40.2079C39.4221 40.2542 40.201 40.3545 40.9751 40.4926C41.4367 40.5749 41.4363 40.5771 41.6491 40.1546C41.6949 40.0638 41.7481 39.9758 41.7842 39.8813C41.8434 39.7263 41.9446 39.6684 42.1121 39.6759C42.3733 39.6877 42.393 39.7004 42.2976 39.9405C42.225 40.1229 42.1394 40.3002 42.0579 40.479C41.9568 40.7006 41.9587 40.714 42.2014 40.783C42.8348 40.963 43.4529 41.1871 44.0601 41.4392C44.2273 41.5086 44.3177 41.4643 44.4245 41.3455C44.8332 40.8906 45.1975 40.4023 45.5391 39.8962C45.6732 39.6974 45.9105 39.614 46.1333 39.6829C46.2523 39.7197 46.1887 39.7907 46.1574 39.8394C46.0035 40.0789 45.8528 40.3213 45.6833 40.5494C45.4246 40.8974 45.1565 41.2387 44.8816 41.5741C44.7793 41.6988 44.7988 41.7637 44.9308 41.8378C45.3029 42.047 45.6723 42.2612 46.0397 42.4786C46.1267 42.5301 46.1876 42.5095 46.2587 42.4533C46.7701 42.0487 47.2459 41.6063 47.6855 41.1247C48.0651 40.7089 48.418 40.2713 48.7491 39.816C48.8343 39.699 49.1992 39.6237 49.3064 39.6989C49.395 39.761 49.3242 39.8225 49.2894 39.8708C49.0759 40.1679 48.8688 40.4706 48.6395 40.7553C47.344 42.3641 45.7717 43.6291 43.9026 44.5134C42.4748 45.1889 40.9717 45.6034 39.3974 45.7535C39.3445 45.7586 39.2929 45.7763 39.2407 45.7881L36.8406 45.7881ZM38.3075 42.0136C38.3075 42.4738 38.3069 42.934 38.3079 43.3942C38.3082 43.4843 38.3111 43.57 38.4358 43.5869C38.6907 43.6214 38.944 43.6682 39.1989 43.7028C39.313 43.7183 39.4289 43.7232 39.5142 43.6144C40.1048 42.8612 40.6423 42.073 41.0981 41.2301C41.1558 41.1234 41.1306 41.0637 41.0159 41.0385C40.1799 40.8553 39.3344 40.7541 38.4782 40.7456C38.3579 40.7444 38.3054 40.7993 38.307 40.9176C38.3119 41.2835 38.2452 41.647 38.3075 42.0136ZM37.7381 41.4191C37.7381 41.2635 37.7336 41.1076 37.7394 40.9522C37.7448 40.8083 37.6906 40.7434 37.5394 40.7439C36.7174 40.7464 35.9093 40.8686 35.1038 41.0163C34.9636 41.042 34.9177 41.102 34.9936 41.2393C35.4562 42.0762 35.9755 42.8745 36.5902 43.6089C36.6526 43.6835 36.7218 43.7176 36.8197 43.7026C37.0602 43.6658 37.3004 43.6222 37.5424 43.6024C37.7293 43.5871 37.7743 43.4982 37.7721 43.3256C37.7639 42.69 37.7796 42.0541 37.7381 41.4191ZM34.27 41.2193C34.2503 41.2239 34.2303 41.2279 34.2107 41.2332C33.5953 41.3976 32.9931 41.5987 32.4109 41.8595C32.2431 41.9347 32.2541 42.0003 32.3732 42.1181C33.2121 42.9489 34.1602 43.6262 35.2121 44.1602C35.2794 44.1943 35.3443 44.2275 35.4232 44.1911C35.5952 44.1119 35.7679 44.0342 35.9414 43.9582C36.0585 43.907 36.0666 43.8438 35.9931 43.7393C35.4406 42.9531 34.891 42.1646 34.4247 41.3224C34.3911 41.2617 34.3557 41.2025 34.27 41.2193ZM40.7008 44.2022C40.76 44.1787 40.8188 44.1619 40.8715 44.1337C41.8998 43.5838 42.8421 42.9178 43.6602 42.081C43.793 41.9452 43.752 41.8951 43.6053 41.8284C43.0477 41.5751 42.4687 41.3882 41.8755 41.24C41.7452 41.2074 41.6775 41.2514 41.6153 41.3626C41.4432 41.67 41.2636 41.9734 41.0819 42.2753C40.788 42.7636 40.4572 43.2269 40.1219 43.6872C40.0757 43.7506 39.9663 43.8353 40.0716 43.911C40.2589 44.0455 40.4846 44.1092 40.7008 44.2022ZM35.1581 44.9555C35.1914 44.9856 35.1995 44.9984 35.2107 45.0021C35.2427 45.0127 35.2757 45.0208 35.3087 45.028C37.115 45.4183 38.9221 45.3951 40.7295 45.0367C40.7794 45.0268 40.853 45.0288 40.8663 44.9683C40.8828 44.8927 40.8041 44.8726 40.7552 44.8431C39.4299 44.0436 38.0136 43.9484 36.5436 44.3131C36.0489 44.4359 35.5895 44.6472 35.1581 44.9555ZM41.6857 44.7934C41.882 44.731 42.0832 44.6712 42.2815 44.6032C43.4071 44.2168 44.4835 43.7311 45.4473 43.0209C45.6399 42.879 45.6402 42.8686 45.447 42.7465C45.1493 42.5584 44.8403 42.3912 44.5203 42.2428C44.398 42.186 44.3181 42.1953 44.2166 42.2902C43.7273 42.7478 43.228 43.1942 42.6882 43.5933C42.285 43.8914 41.8695 44.1703 41.4399 44.4288C41.3875 44.4603 41.2772 44.4939 41.3312 44.5656C41.4139 44.6757 41.5296 44.7669 41.6857 44.7934ZM34.3513 44.7928C34.5169 44.7778 34.6473 44.7016 34.6997 44.5848C34.7489 44.4752 34.5935 44.4542 34.5224 44.408C33.5843 43.7989 32.6787 43.1475 31.8794 42.3604C31.7414 42.2245 31.617 42.1934 31.4504 42.2915C31.1765 42.4527 30.8968 42.6038 30.6228 42.7647C30.3989 42.8962 30.399 42.908 30.6101 43.0512C31.4593 43.6274 32.3599 44.1059 33.3256 44.4561C33.6688 44.5805 34.0194 44.6845 34.3513 44.7928Z" fill="#00395C"/>
<path d="M27.7508 28.8975V36.4027H29.5008V38.3337H23.0742V36.4027H24.7865V28.8975H23.0742V26.9667H29.5008V28.8975H27.7508Z" fill="#00395C"/>
<path d="M37.2274 27.9094V26.9666H39.904V30.4061H37.2274C37.1158 29.853 36.8667 29.4369 36.4798 29.1577C36.093 28.8786 35.5927 28.739 34.9795 28.739C34.5471 28.739 34.1778 28.8271 33.8712 29.0031C33.5643 29.1792 33.4111 29.4004 33.4111 29.6669C33.4111 29.9033 33.5087 30.1069 33.7038 30.2778C33.8988 30.4488 34.1499 30.5934 34.4566 30.7116C34.7632 30.8297 35.2233 30.9869 35.8368 31.183L36.4746 31.3792C37.8615 31.8117 38.9089 32.3195 39.6165 32.9027C40.3239 33.4861 40.6778 34.2153 40.6778 35.0902C40.6778 36.1311 40.2629 36.9545 39.4335 37.5605C38.6039 38.1666 37.4887 38.4694 36.0877 38.4694C34.7215 38.4694 33.6584 38.0998 32.8988 37.3606V38.3336H30.2222V34.4717H32.8988C32.9545 35.1406 33.1932 35.6497 33.615 35.9991C34.0366 36.3486 34.6064 36.5233 35.3245 36.5233C35.8054 36.5233 36.2114 36.4052 36.5426 36.1688C36.8736 35.9325 37.0392 35.6459 37.0392 35.309C37.0392 34.9671 36.8492 34.654 36.4694 34.3699C36.0894 34.0859 35.4429 33.8003 34.5299 33.5137C32.9754 33.021 31.848 32.4906 31.1475 31.9222C30.4469 31.3539 30.0967 30.7003 30.0967 29.9611C30.0967 29.3828 30.2813 28.8549 30.6508 28.377C31.0202 27.8993 31.5307 27.5235 32.1825 27.2494C32.8343 26.9754 33.5434 26.8383 34.3102 26.8383C34.9235 26.8383 35.4813 26.9287 35.9832 27.1098C36.4851 27.2909 36.8997 27.5574 37.2274 27.9094Z" fill="#00395C"/>
<path d="M41.1396 32.6162C41.1396 31.4647 41.4037 30.4489 41.9317 29.5689C42.4597 28.6889 43.2026 28.0037 44.1606 27.5134C45.1185 27.0232 46.221 26.778 47.4682 26.778C48.7152 26.778 49.8152 27.0232 50.7682 27.5134C51.7211 28.0037 52.4603 28.6913 52.9858 29.5763C53.5112 30.4615 53.774 31.4747 53.774 32.6162C53.774 33.7729 53.5112 34.7937 52.9858 35.6787C52.4603 36.5637 51.7186 37.2501 50.7606 37.7379C49.8027 38.2256 48.7052 38.4695 47.4682 38.4695C46.2562 38.4695 45.1688 38.2256 44.2059 37.7379C43.2429 37.2501 42.491 36.5637 41.9505 35.6787C41.41 34.7937 41.1396 33.7729 41.1396 32.6162ZM50.606 32.6011C50.606 31.9123 50.4803 31.2848 50.2289 30.7192C49.9773 30.1535 49.6141 29.7035 49.1389 29.369C48.6638 29.0347 48.1068 28.8674 47.4682 28.8674C46.8295 28.8674 46.2738 29.0347 45.8012 29.369C45.3285 29.7035 44.9651 30.1535 44.7112 30.7192C44.4573 31.2848 44.3303 31.9123 44.3303 32.6011C44.3303 33.3253 44.4598 33.9752 44.7188 34.551C44.9778 35.1268 45.3436 35.5794 45.8162 35.9087C46.2889 36.238 46.8346 36.4027 47.4531 36.4027C48.0916 36.4027 48.6511 36.238 49.1314 35.9087C49.6115 35.5794 49.9773 35.1268 50.2289 34.551C50.4803 33.9752 50.606 33.3253 50.606 32.6011Z" fill="#00395C"/>
</g>
<defs>
<clipPath id="clip0_1734_11994">
<rect width="76.0678" height="76.0678" fill="white" transform="translate(0.389648)"/>
</clipPath>
</defs>
</svg>
