<svg width="25" height="25" viewBox="0 0 25 25" fill="none" xmlns="http://www.w3.org/2000/svg">
<path d="M8.83203 24.9836C8.83203 19.5676 8.83203 14.1675 8.83203 8.75142C8.83203 8.62323 8.83203 8.49504 8.83203 8.3348C10.4825 8.3348 12.1169 8.3348 13.7994 8.3348C13.7994 9.0719 13.7994 9.809 13.7994 10.5621C14.152 10.1455 14.4564 9.72888 14.825 9.37636C15.7383 8.51107 16.844 8.0624 18.0778 7.95023C19.1514 7.85409 20.225 7.9342 21.2666 8.25468C22.9651 8.7995 24.0227 9.98526 24.4713 11.6678C24.6957 12.5331 24.7758 13.4464 24.92 14.3277C24.9521 14.504 24.9681 14.6803 24.9841 14.8726C24.9841 18.2215 24.9841 21.5866 24.9841 24.9356C23.2696 24.9356 21.539 24.9356 19.7924 24.9356C19.7924 24.7913 19.7924 24.6632 19.7924 24.551C19.7924 21.7949 19.8084 19.0548 19.7764 16.2987C19.7764 15.6257 19.6802 14.9366 19.536 14.2797C19.3437 13.3823 18.8149 12.7414 17.8695 12.5331C17.4849 12.4529 17.0843 12.4369 16.6837 12.469C15.3858 12.5651 14.5365 13.2541 14.2481 14.52C14.0879 15.2411 14.0077 16.0102 14.0077 16.7473C13.9757 19.5035 13.9917 22.2435 13.9917 24.9997C12.2932 24.9836 10.5626 24.9836 8.83203 24.9836Z" fill="white"/>
<path d="M0.417969 24.9828C0.417969 21.4736 0.417969 17.9804 0.417969 14.4711C0.417969 12.5483 0.417969 10.6094 0.417969 8.68651C0.417969 8.57434 0.417969 8.46218 0.417969 8.33398C2.14855 8.33398 3.84708 8.33398 5.59369 8.33398C5.59369 8.46218 5.59369 8.59037 5.59369 8.71856C5.59369 14.0866 5.59369 19.4706 5.59369 24.8386C5.59369 24.8867 5.59369 24.9347 5.59369 24.9828C3.87913 24.9828 2.14855 24.9828 0.417969 24.9828Z" fill="white"/>
<path d="M5.9935 3.02908C5.96145 4.72762 4.58339 6.0576 2.91691 6.00953C1.31452 5.97748 -0.031487 4.56738 0.000560749 2.93294C0.0326085 1.2985 1.42669 -0.0314805 3.06112 0.000567283C4.71159 0.048639 6.02554 1.39465 5.9935 3.02908Z" fill="white"/>
</svg>
