<svg width="26" height="25" viewBox="0 0 26 25" fill="none" xmlns="http://www.w3.org/2000/svg">
<path d="M1.00073 24.9813C1.57332 24.2941 2.14591 23.6234 2.73486 22.9363C5.27061 19.9915 7.80637 17.0304 10.3421 14.0857C10.3912 14.0203 10.4403 13.9548 10.5057 13.8894C7.33194 9.27595 4.17451 4.66251 0.984375 0.0163597C1.08253 0.0163597 1.13161 0 1.19705 0C3.47105 0 5.7614 0 8.0354 0C8.199 0 8.2808 0.0654388 8.3626 0.179957C10.3748 3.10834 12.3707 6.02037 14.383 8.94875C14.432 9.01419 14.4811 9.09599 14.5466 9.17779C14.9556 8.70336 15.3645 8.22893 15.7572 7.77086C17.9167 5.26782 20.0761 2.76479 22.2193 0.245395C22.3665 0.0654388 22.5301 0 22.7591 0C23.3481 0.0163597 23.937 0 24.5914 0C21.5485 3.55005 18.522 7.05103 15.5118 10.5684C15.5609 10.6502 15.6099 10.7156 15.659 10.781C18.8492 15.4272 22.0393 20.0897 25.2458 24.7359C25.2949 24.8013 25.3276 24.8831 25.3767 24.9649C22.9554 24.9649 20.5342 24.9649 18.113 24.9649C18.0803 24.9158 18.0639 24.8667 18.0312 24.8177C15.8717 21.7093 13.7286 18.5846 11.5855 15.4599C11.5527 15.4108 11.5037 15.3618 11.4546 15.2963C11.3728 15.3781 11.3073 15.4599 11.2583 15.5254C9.52413 17.5376 7.79001 19.5498 6.07224 21.5621C5.10702 22.6909 4.12544 23.8361 3.16021 24.9649C2.42403 24.9813 1.7042 24.9813 1.00073 24.9813ZM3.91276 1.61961C3.9782 1.71777 4.01092 1.78321 4.04364 1.83229C9.03334 8.96511 14.0067 16.0979 18.9964 23.2471C19.0782 23.378 19.1764 23.4271 19.3399 23.4271C20.2888 23.4271 21.2377 23.4271 22.1865 23.4271C22.252 23.4271 22.3174 23.4107 22.4156 23.4107C22.3338 23.2962 22.2847 23.2144 22.2356 23.149C18.5874 17.9139 14.9228 12.6788 11.2746 7.46002C9.96585 5.59502 8.65707 3.71365 7.3483 1.84865C7.28286 1.76685 7.16834 1.65233 7.08654 1.65233C6.03952 1.61961 5.00886 1.61961 3.91276 1.61961Z" fill="white"/>
</svg>
