<svg width="35" height="25" viewBox="0 0 35 25" fill="none" xmlns="http://www.w3.org/2000/svg">
<path d="M17.1422 0.492188C17.5972 0.492188 18.0521 0.492188 18.5071 0.492188C18.6019 0.511144 18.6967 0.530101 18.7914 0.530101C20.5923 0.568014 22.4122 0.549058 24.2131 0.643841C26.3741 0.757582 28.5352 0.890279 30.6773 1.15567C32.5919 1.38315 33.881 2.53951 34.298 4.45415C34.6014 5.81903 34.6961 7.24079 34.8478 8.64358C34.9426 9.45872 34.9426 10.2928 34.9994 11.1269C34.9994 11.98 34.9994 12.833 34.9994 13.6861C34.9805 13.8946 34.9426 14.0842 34.9426 14.2927C34.8857 16.2452 34.772 18.1788 34.4307 20.1124C34.0516 22.2545 32.7815 23.6004 30.6204 23.9038C29.1608 24.1312 27.6632 24.226 26.1846 24.3018C21.5402 24.5293 16.8958 24.5483 12.2324 24.3966C9.8249 24.3208 7.43636 24.2639 5.04781 23.8848C3.19005 23.5815 1.9389 22.5389 1.40811 20.7001C1.2375 20.1314 1.16168 19.5437 1.08585 18.956C0.744628 16.2642 0.649845 13.5723 0.725672 10.8805C0.801499 8.83315 0.896282 6.78582 1.29437 4.77641C1.67351 2.84282 3.00048 1.45898 4.80137 1.13672C5.59755 1.00402 6.39373 0.909236 7.20887 0.871322C9.97656 0.738625 12.7442 0.662798 15.5119 0.549058C16.0427 0.530101 16.5925 0.511144 17.1422 0.492188ZM23.3411 12.5108C20.3459 10.7857 17.4076 9.09855 14.4503 7.39244C14.4503 10.8236 14.4503 14.1979 14.4503 17.6291C17.4266 15.923 20.3459 14.2358 23.3411 12.5108Z" fill="#2074E3"/>
</svg>
