<svg width="35" height="25" viewBox="0 0 35 25" fill="none" xmlns="http://www.w3.org/2000/svg">
<path d="M16.7965 0.491211C17.2515 0.491211 17.7064 0.491211 18.1614 0.491211C18.2562 0.510168 18.351 0.529124 18.4457 0.529124C20.2466 0.567038 22.0665 0.548081 23.8674 0.642865C26.0284 0.756605 28.1895 0.889302 30.3316 1.1547C32.2462 1.38218 33.5353 2.53854 33.9523 4.45317C34.2556 5.81805 34.3504 7.23981 34.5021 8.64261C34.5969 9.45775 34.5969 10.2918 34.6537 11.1259C34.6537 11.979 34.6537 12.832 34.6537 13.6851C34.6348 13.8936 34.5969 14.0832 34.5969 14.2917C34.54 16.2443 34.4263 18.1778 34.085 20.1114C33.7059 22.2535 32.4358 23.5995 30.2747 23.9028C28.8151 24.1303 27.3175 24.225 25.8389 24.3009C21.1945 24.5284 16.5501 24.5473 11.8867 24.3957C9.4792 24.3198 7.09065 24.263 4.7021 23.8838C2.84434 23.5805 1.5932 22.5379 1.06241 20.6991C0.8918 20.1304 0.815973 19.5427 0.740146 18.9551C0.398925 16.2632 0.304142 13.5714 0.379968 10.8795C0.455795 8.83217 0.550579 6.78485 0.94867 4.77543C1.32781 2.84185 2.65478 1.458 4.45567 1.13574C5.25185 1.00304 6.04803 0.908259 6.86317 0.870346C9.63085 0.737649 12.3985 0.661822 15.1662 0.548081C15.697 0.529124 16.2468 0.510168 16.7965 0.491211ZM22.9954 12.5098C20.0002 10.7847 17.0619 9.09757 14.1046 7.39146C14.1046 10.8226 14.1046 14.1969 14.1046 17.6281C17.0809 15.922 20.0002 14.2348 22.9954 12.5098Z" fill="white"/>
</svg>
