<svg width="104" height="105" viewBox="0 0 104 105" fill="none" xmlns="http://www.w3.org/2000/svg">
<path d="M53.8555 104.525C53.0921 104.058 52.8164 103.379 52.8164 102.489C52.8376 98.4385 52.8376 94.3881 52.8376 90.3378C52.8376 90.0833 52.8164 89.85 52.8588 89.5956C53.0073 88.7473 53.5374 88.2384 54.3856 88.2808C55.2127 88.3232 55.764 88.8533 55.764 89.7228C55.7852 91.5465 55.7852 93.3914 55.7852 95.2151C55.7852 97.6114 55.7428 100.008 55.8065 102.404C55.8277 103.295 55.5944 103.973 54.8946 104.503C54.5553 104.525 54.1948 104.525 53.8555 104.525Z" fill="#2A2A2A"/>
<path d="M88.1864 58.4653C90.2221 64.403 86.405 69.2168 79.7251 68.7714C79.6827 68.9199 79.6191 69.0683 79.5555 69.238C78.4528 72.6521 76.6715 73.9669 73.0877 73.9669C72.5151 73.9669 72.2818 74.1366 72.091 74.6455C71.9001 75.1757 71.6457 75.6846 71.37 76.1723C69.8219 78.8231 67.2984 79.9046 64.2448 79.2472C63.9055 79.1836 63.5662 79.0988 63.2057 79.0139C63.0148 79.3532 62.8452 79.6713 62.6755 79.9682C60.8094 83.2976 57.5649 84.4639 53.5781 83.0007C51.8817 82.3857 50.27 81.4738 48.6796 80.562C48.001 80.1591 47.6405 80.2015 47.0679 80.7104C44.6292 82.8522 41.6816 83.1703 39.2005 81.5163C38.3522 80.9437 37.6736 80.0743 37.0799 79.226C36.6982 78.6747 36.4013 78.4838 35.7439 78.5898C33.9838 78.8231 32.2025 78.6747 30.8029 77.5295C29.9122 76.8085 29.3609 75.6846 28.6399 74.7515C28.4278 74.4971 28.1309 74.1366 27.8553 74.1154C24.3775 73.7549 22.0872 72.0372 21.3662 68.4958C21.345 68.3897 21.2602 68.3261 21.2178 68.2413C15.0892 68.9199 12.5445 62.7914 15.4922 57.5535C13.3291 59.2075 11.3994 58.8258 9.38482 57.4686C7.05216 55.8782 4.63468 54.4362 2.2596 52.9094C-0.136676 51.3613 -0.666826 49.0287 0.860007 46.6324C6.41598 37.8955 11.9932 29.1586 17.5703 20.4217C19.0972 18.0255 21.4298 17.5165 23.8473 19.0434C26.3284 20.6126 28.7671 22.2243 31.2482 23.7511C33.3052 25.0022 34.2171 26.6987 33.6021 29.201C35.0653 29.6039 36.5497 29.5615 37.9917 29.3071C40.6849 28.8193 43.3568 28.1619 46.0712 27.6954C48.1706 27.3349 50.1428 27.759 51.7332 29.3707C51.9029 29.5403 52.433 29.5191 52.7087 29.4131C54.0871 28.8829 55.4231 28.2256 56.8015 27.7378C59.1765 26.9108 61.4668 27.144 63.7994 28.1619C65.3263 28.8405 66.9803 29.2222 68.592 29.71C68.9101 29.7948 69.2706 29.7312 69.6947 29.7312C69.6735 29.4555 69.6735 29.2434 69.6523 29.0526C69.4402 27.3137 70.0764 25.9141 71.5184 24.9598C74.2964 23.1573 77.0744 21.3548 79.8948 19.6159C81.9306 18.3436 84.3269 18.8737 85.6416 20.9095C91.3673 29.8372 97.0717 38.7861 102.755 47.7351C104.006 49.7284 103.476 52.1035 101.525 53.3971C98.7257 55.242 95.9053 57.0445 93.0637 58.8046C91.4309 59.7589 89.798 59.5256 88.1864 58.4653ZM59.4098 62.7489C59.8127 63.0034 60.1308 63.1943 60.4489 63.4063C64.0751 65.7814 67.7013 68.1565 71.3488 70.5103C73.3209 71.7827 75.9505 70.892 76.6291 68.7502C76.8623 68.0292 76.7563 67.5627 76.0565 67.0962C71.3064 63.9365 66.5774 60.7132 61.8485 57.5323C61.5516 57.3414 61.2335 57.1506 61.0002 56.8961C60.4701 56.3447 60.3853 55.6873 60.8094 55.0724C61.2547 54.3938 61.8909 54.1817 62.6543 54.5422C62.9724 54.6907 63.2693 54.9027 63.545 55.0936C68.2739 58.2957 73.0453 61.4342 77.7106 64.6999C79.2798 65.8026 80.8915 65.951 82.6304 65.5269C85.7265 64.7635 86.8292 61.2857 84.7298 58.8894C84.1148 58.1896 83.3302 57.5959 82.5668 57.0445C81.1035 55.9842 79.6191 54.9875 78.1347 53.9697C74.4449 51.4461 70.7974 48.8378 67.0015 46.4627C64.987 45.1904 62.7391 44.3209 60.5761 43.3242C59.6855 42.9001 58.8796 43.1334 58.0738 43.812C55.1686 46.2931 52.0937 48.5409 48.6371 50.2374C46.8558 51.1068 45.0321 51.8278 42.9963 51.8278C39.9639 51.8278 38.0765 49.7709 38.5007 46.7596C38.6703 45.4872 39.052 44.1937 39.5822 43.0273C41.1302 39.5496 43.5901 36.7504 46.3257 34.1632C47.3436 33.209 48.4039 32.2971 49.5066 31.3428C48.6583 30.537 47.6829 30.3886 46.7074 30.5582C45.223 30.7915 43.7386 31.1096 42.2541 31.4489C39.0096 32.1911 35.7863 32.9121 32.4358 32.0002C32.2237 31.9366 31.7784 32.1911 31.6299 32.4243C27.4523 38.9134 23.296 45.4236 19.182 51.9551C19.0336 52.2096 19.1608 52.6337 19.1608 52.973C19.2668 52.9942 19.3729 52.9942 19.4789 53.0154C20.8785 51.531 22.575 50.7887 24.6107 51.022C26.6041 51.2341 28.1309 52.3368 29.3185 53.8848C31.4815 52.5488 33.7081 52.0399 36.0832 52.6337C38.6491 53.2699 40.0275 55.0512 40.5577 57.5747C40.9818 57.5747 41.3211 57.5747 41.6816 57.5747C45.9652 57.6595 48.5523 60.7344 47.7889 64.9544C47.6405 65.8238 47.8101 66.1419 48.6159 66.5024C52.1149 68.0292 53.1752 70.7012 51.7332 74.2638C51.2243 75.4937 50.5245 76.6389 49.9095 77.8264C51.4575 79.0352 53.7902 80.1803 55.5291 80.562C57.6285 81.0285 59.1341 80.3287 60.152 78.505C60.4913 77.89 60.4065 77.5295 59.8127 77.1266C57.883 75.8118 55.9956 74.4547 54.1295 73.0975C53.1964 72.4189 53.0904 71.3162 53.8538 70.68C54.5324 70.1074 55.211 70.2559 55.8896 70.7224C58.1162 72.3129 60.3217 73.9669 62.6331 75.4938C64.6265 76.8085 67.6589 77.3811 69.1009 74.3062C69.5675 73.3095 69.5251 72.7158 68.486 72.228C67.9134 71.9524 67.4257 71.5494 66.8743 71.2101C63.8631 69.2592 60.873 67.287 57.7769 65.2725C58.3707 64.3606 58.8796 63.576 59.4098 62.7489ZM100.571 50.0253C100.359 49.5588 100.274 49.2195 100.083 48.9438C94.5269 40.2069 88.9498 31.4701 83.3726 22.7544C82.7152 21.7153 82.2063 21.6093 81.1884 22.2667C78.6012 23.8995 76.0141 25.5536 73.4482 27.2077C72.4303 27.865 72.3243 28.3528 72.9816 29.3919C74.0207 31.0247 75.0598 32.6576 76.0989 34.2905C80.5946 41.3309 85.0903 48.3713 89.5647 55.4117C90.2857 56.5356 90.7523 56.7052 91.6853 56.1115C94.3785 54.4362 97.0505 52.7185 99.7012 50.9796C100.062 50.7675 100.274 50.3434 100.571 50.0253ZM12.7566 55.7934C13.0959 55.4753 13.5412 55.2208 13.7745 54.8391C19.3516 46.1234 24.9288 37.3865 30.4848 28.6497C31.1422 27.6106 31.0362 27.0804 30.0395 26.4442C27.4523 24.7902 24.8864 23.1361 22.2781 21.5032C21.2602 20.8671 20.7512 20.9731 20.0939 21.991C14.5167 30.7279 8.9607 39.4647 3.38352 48.1804C2.76855 49.1559 2.87458 49.7072 3.80764 50.301C6.41598 51.9763 9.02432 53.6516 11.6539 55.3056C11.9507 55.4965 12.29 55.6025 12.7566 55.7934ZM85.1327 53.9697C80.6794 46.9929 76.2686 40.0373 71.7941 33.1029C71.6032 32.8273 71.0519 32.6152 70.6702 32.6364C68.0831 32.7848 65.5807 32.4455 63.3117 31.152C60.9578 29.816 58.6252 29.9432 56.2289 31.0035C50.2276 33.6543 45.8167 38.0227 42.5934 43.6423C42.0421 44.5966 41.724 45.7205 41.4695 46.802C41.1302 48.3076 41.7664 49.0499 43.2508 48.8166C44.5868 48.6045 45.9228 48.1804 47.1527 47.6078C50.5669 46.0386 53.5569 43.7696 56.3985 41.3309C57.7345 40.1857 59.1977 39.8677 60.8306 40.3342C61.9757 40.6523 63.1633 40.9704 64.2024 41.5429C66.7895 42.9637 69.3766 44.4057 71.8577 46.0386C75.8232 48.6681 79.7039 51.4249 83.6059 54.1605C84.1572 54.5634 84.6449 54.8179 85.1327 53.9697ZM34.1534 55.3268C32.3933 55.3692 30.4424 56.3023 30.0183 57.405C28.8307 60.6495 26.9434 63.4699 24.7592 66.1207C24.2502 66.7357 24.123 67.287 24.3139 68.0504C24.8228 70.0226 26.0739 71.0405 28.2158 71.0617C28.5975 71.0617 29.1064 70.8284 29.3185 70.5315C31.9904 66.8205 34.6412 63.0882 37.2495 59.356C37.504 58.9955 37.61 58.4441 37.5676 57.9988C37.3555 56.2175 36.1256 55.3056 34.1534 55.3268ZM44.9473 63.9365C44.9897 61.2857 42.4238 59.6317 40.1759 60.6283C39.9639 60.7132 39.7942 60.9252 39.6458 61.1161C36.9738 64.8695 34.2807 68.6442 31.6511 72.4189C31.4391 72.7158 31.3542 73.2247 31.4391 73.564C31.736 74.6243 32.457 75.3665 33.5809 75.4938C34.9169 75.6422 36.3377 76.0451 37.398 74.7727C39.4974 72.2492 41.5331 69.6833 43.6749 67.2022C44.5868 66.1843 44.8625 65.018 44.9473 63.9365ZM20.4544 65.3361C21.0269 65.124 21.7691 65.0816 22.1084 64.6787C24.0382 62.4309 25.7559 60.0134 26.901 57.2566C27.0494 56.8961 27.1979 56.4083 27.0918 56.0478C26.4769 53.9909 23.508 53.2062 21.96 54.7331C20.7512 55.9206 19.6061 57.1718 18.5882 58.5077C18.0157 59.2712 17.5279 60.2042 17.3159 61.1373C16.7645 63.576 18.0793 65.2088 20.4544 65.3361ZM49.4642 71.4434C49.3157 69.9378 48.1494 69.4076 46.9407 68.9835C46.6438 68.8775 46.0924 69.0047 45.9016 69.238C43.8234 71.6767 41.7876 74.1578 39.7942 76.6389C39.6034 76.8933 39.5398 77.4447 39.6882 77.7416C40.494 79.4805 42.8691 80.1591 44.4384 79.0352C46.7922 77.3599 48.4039 75.0696 49.3157 72.3129C49.4006 72.0372 49.4006 71.7403 49.4642 71.4434Z" fill="#2A2A2A"/>
<path d="M80.3601 3.85957C80.254 4.09283 80.1268 4.49575 79.9148 4.85625C77.8578 8.41886 75.8008 12.0027 73.7438 15.5441C73.1076 16.6468 72.3654 16.9649 71.5172 16.4983C70.6477 16.0106 70.5205 15.1836 71.1991 14.0385C73.2561 10.4758 75.2918 6.89203 77.4124 3.35062C77.7093 2.86289 78.3667 2.39635 78.9393 2.31153C79.7875 2.18429 80.254 2.82047 80.3601 3.85957Z" fill="#2A2A2A"/>
<path d="M56.0782 8.01587C56.0782 10.1577 56.0782 12.3207 56.0782 14.4625C56.0782 15.3319 55.7601 15.9893 54.8694 16.2014C53.9151 16.4135 53.1517 15.6924 53.1305 14.4837C53.1093 11.6633 53.1305 8.84291 53.1305 6.04371C53.1305 4.6017 53.1093 3.1597 53.1305 1.71769C53.1517 0.63618 53.7243 0.021206 54.5937 0C55.4632 0 56.0569 0.63618 56.0782 1.69648C56.0782 3.79588 56.0569 5.89527 56.0782 8.01587Z" fill="#2A2A2A"/>
<path d="M80.4698 99.4984C80.173 99.8801 79.9185 100.453 79.5156 100.58C79.0702 100.728 78.4553 100.58 77.9463 100.41C77.6919 100.325 77.5222 99.9438 77.3738 99.6893C75.2956 96.0843 73.1962 92.5005 71.1604 88.8742C70.9059 88.4077 70.7787 87.7079 70.9483 87.2202C71.0756 86.8384 71.7542 86.3507 72.1147 86.4143C72.6448 86.4779 73.3234 86.8809 73.5991 87.3262C75.1471 89.8497 76.5891 92.4368 78.0736 95.0028C78.7097 96.1055 79.3459 97.187 79.9609 98.3109C80.173 98.6078 80.279 98.9683 80.4698 99.4984Z" fill="#2A2A2A"/>
<path d="M30.3567 102.213C29.0419 102.234 28.3633 101.343 28.639 100.347C28.7238 100.007 28.9147 99.7106 29.1055 99.4137C31.0777 95.9783 33.071 92.5217 35.0644 89.0864C35.1704 88.8955 35.2765 88.7259 35.4037 88.5562C35.9338 87.814 36.6124 87.5595 37.4183 88.0473C38.2029 88.5138 38.3937 89.256 37.9484 90.0406C35.7642 93.8577 33.58 97.6748 31.3533 101.449C31.0989 101.831 30.5687 102.043 30.3567 102.213Z" fill="#2A2A2A"/>
<path d="M30.424 3.75403C30.6149 3.92368 31.145 4.19936 31.3995 4.64469C33.5837 8.33453 35.7255 12.0668 37.8461 15.799C38.3763 16.7321 38.1854 17.5379 37.4008 17.9833C36.6374 18.4286 35.8315 18.1741 35.2802 17.2411C33.1172 13.53 30.9754 9.81895 28.8548 6.08669C28.1974 4.89916 28.8548 3.71162 30.424 3.75403Z" fill="#2A2A2A"/>
</svg>
