<svg width="84" height="84" viewBox="0 0 84 84" fill="none" xmlns="http://www.w3.org/2000/svg">
<path d="M30.5817 0.932129C30.6629 0.997074 30.7441 1.06202 30.8253 1.12696C31.5559 1.63029 31.8319 2.2635 31.6208 2.9779C31.3935 3.741 30.809 4.16315 29.8998 4.16315C26.2791 4.17938 22.6584 4.16315 19.0377 4.16315C17.3654 4.16315 15.7742 4.50411 14.2643 5.23474C9.73434 7.4104 7.28266 12.0864 8.04577 17.1197C8.76016 21.7957 12.6731 25.5463 17.6739 26.3094C19.1027 26.5367 19.5086 26.9913 19.5248 28.4526C19.5573 30.0762 19.5735 31.6999 19.606 33.3073C19.606 33.5995 19.6385 33.8918 19.6709 34.3301C20.8562 33.4047 21.9278 32.5604 22.9831 31.7161C24.9477 30.1574 26.8798 28.55 28.8931 27.0401C29.3965 26.6666 30.0946 26.4555 30.7278 26.4068C31.9943 26.3094 33.2607 26.3744 34.5109 26.3744C34.7707 25.6113 34.933 24.8806 35.2578 24.1987C36.9626 20.5131 39.8201 18.3536 43.8954 18.2725C51.0556 18.1426 58.2158 18.2238 65.3598 18.2238C65.6845 18.2238 65.993 18.2238 66.3664 18.2238C67.1458 15.1226 66.8211 12.2163 65.165 9.53735C63.0055 6.07903 59.8395 4.24433 55.7479 4.17938C52.0948 4.11444 48.4578 4.17938 44.8047 4.16315C43.5383 4.16315 42.694 3.20521 43.0836 2.13361C43.246 1.66276 43.798 1.3218 44.1715 0.932129C48.4903 0.932129 52.8092 0.932129 57.1442 0.932129C58.1184 1.15944 59.1088 1.3218 60.0505 1.61405C66.886 3.83842 70.9451 10.5278 69.8248 17.6555C69.7923 17.8666 69.7598 18.0776 69.7274 18.3536C69.9222 18.4186 70.1008 18.516 70.2956 18.581C74.4846 19.75 77.4071 23.4194 77.5532 27.6895C77.6994 31.9759 74.9879 35.8888 70.8477 37.2851C70.2632 37.48 70.0521 37.7398 70.0683 38.3567C70.0846 39.6556 70.0196 40.9545 69.9871 42.2372C69.9384 43.7959 68.672 44.494 67.3406 43.6498C64.5318 41.88 61.7553 40.0615 58.9465 38.308C58.4919 38.032 57.9073 37.8534 57.3716 37.8372C53.2638 37.8047 49.156 37.8209 45.0482 37.8209C39.5604 37.8209 36.102 35.1907 34.6408 29.9301C34.6245 29.8489 34.5921 29.784 34.5434 29.6379C33.4068 29.6379 32.2378 29.6054 31.085 29.6541C30.809 29.6703 30.5005 29.8976 30.257 30.0925C26.6363 32.9663 23.0318 35.8401 19.4112 38.7139C18.8591 39.1523 18.3071 39.5095 17.5602 39.2335C16.7646 38.9412 16.4562 38.3567 16.4399 37.5449C16.4074 35.0932 16.3263 32.6253 16.31 30.1737C16.31 29.5891 16.1314 29.3618 15.5469 29.2157C9.11736 27.5596 4.63615 21.8282 4.65239 15.2363C4.66862 8.64436 9.18231 2.94543 15.6606 1.33804C16.2613 1.19191 16.8621 1.07826 17.4628 0.932129C21.8304 0.932129 26.2142 0.932129 30.5817 0.932129ZM66.7236 39.3959C66.7886 39.201 66.8211 39.1523 66.8211 39.1036C66.8373 38.2593 66.8698 37.4313 66.886 36.587C66.9185 35.142 67.3244 34.6873 68.7694 34.4763C72.0491 34.0054 74.5171 30.9855 74.3222 27.6733C74.1436 24.3124 71.4159 21.536 68.0875 21.5197C60.0505 21.471 51.9974 21.471 43.9604 21.5197C40.5995 21.536 37.8393 24.4098 37.7419 27.7707C37.6282 31.5862 40.5345 34.525 44.5124 34.5574C48.0195 34.5899 51.5427 34.7198 55.0335 34.5087C57.9236 34.3301 60.4077 34.9634 62.6808 36.7656C63.9148 37.756 65.3273 38.5029 66.7236 39.3959Z" fill="#2A2A2A"/>
<path d="M83.4154 82.7629C82.9284 83.6397 82.214 83.9157 81.2073 83.9157C72.0338 83.8832 62.8441 83.8995 53.6706 83.8995C52.0145 83.8995 51.4787 83.3799 51.4949 81.7238C51.5112 79.2884 51.3813 76.8529 51.6411 74.4499C52.0957 70.2772 54.4175 67.306 58.168 65.4226C58.2817 65.3576 58.4116 65.2927 58.5902 65.1953C56.8691 62.3702 56.382 59.3827 57.3725 56.2166C58.0869 53.9273 59.4669 52.0926 61.4315 50.7125C65.3282 47.9848 70.6537 48.2446 74.2257 51.2483C77.7327 54.1871 79.6162 59.7399 76.3527 65.2115C78.0412 65.9746 79.5187 67.03 80.7202 68.4588C82.0678 70.0662 82.9121 71.9009 83.2693 73.9791C83.3018 74.1577 83.3667 74.3363 83.4317 74.5149C83.4154 77.2588 83.4154 80.019 83.4154 82.7629ZM80.0383 80.6197C80.0383 78.509 80.2818 76.4145 79.9896 74.385C79.535 71.1865 77.5217 69.0757 74.4693 68.0204C74.1608 67.9067 73.6737 67.9879 73.3814 68.1665C69.436 70.5857 65.5068 70.5857 61.5614 68.1665C61.2692 67.9879 60.7821 67.9067 60.4736 68.0041C57.3887 69.0757 55.3916 71.2189 54.937 74.4499C54.6448 76.4308 54.8234 78.4765 54.7909 80.5061C54.7909 80.5386 54.8558 80.5873 54.8883 80.6197C63.2825 80.6197 71.6929 80.6197 80.0383 80.6197ZM67.5688 52.0601C63.591 51.9789 60.23 55.21 60.1326 59.2528C60.0352 63.1982 63.2825 66.6241 67.2116 66.7215C71.3357 66.8351 74.729 63.6204 74.8102 59.5288C74.9076 55.5022 71.6441 52.1413 67.5688 52.0601Z" fill="#2A2A2A"/>
<path d="M37.8754 0.932252C38.5086 1.37063 39.0769 1.85772 38.9632 2.73448C38.882 3.48135 38.265 4.08209 37.5344 4.16327C36.8363 4.24445 36.1381 3.82231 35.8621 3.15662C35.5861 2.45846 35.8134 1.69536 36.4303 1.2245C36.5765 1.11085 36.7388 1.02967 36.9012 0.916016C37.2259 0.932252 37.5506 0.932252 37.8754 0.932252Z" fill="#2A2A2A"/>
<path d="M7.49457 65.1954C4.19861 59.6751 6.14696 53.9761 9.88131 51.0374C13.6968 48.0337 19.2659 48.0824 23.0164 51.1348C26.7995 54.2197 28.4881 59.8699 25.3545 65.0817C26.4098 65.8124 27.5464 66.4618 28.5043 67.3061C31.0047 69.498 32.2711 72.3231 32.3523 75.6516C32.401 77.7785 32.3685 79.9217 32.3685 82.0486C32.3685 83.2664 31.7353 83.8996 30.5176 83.8996C21.1168 83.8996 11.7322 83.8996 2.33144 83.8996C1.24361 83.8996 0.496741 83.3475 0.480505 82.3896C0.464268 79.7269 0.318142 77.0316 0.610395 74.3851C1.06501 70.2124 3.41927 67.2412 7.16985 65.3902C7.25103 65.3415 7.34845 65.2928 7.49457 65.1954ZM3.80894 80.5874C12.2031 80.5874 20.646 80.5874 29.0888 80.5874C29.0888 78.8014 29.1538 77.0641 29.0726 75.3431C28.9102 71.9984 26.6209 69.0434 23.4711 68.0367C23.1301 67.9231 22.6105 67.988 22.3021 68.1829C18.3404 70.6021 14.4112 70.5858 10.4658 68.1666C10.1736 67.988 9.68647 67.9069 9.37798 68.0205C6.32556 69.0921 4.3285 71.2028 3.87389 74.4176C3.58163 76.4147 3.80894 78.4929 3.80894 80.5874ZM16.4895 52.0603C12.5116 51.9791 9.1182 55.2426 9.05326 59.2529C8.97207 63.2308 12.2031 66.6242 16.1485 66.7216C20.2725 66.8353 23.6334 63.6367 23.7471 59.5289C23.8607 55.5186 20.581 52.1414 16.4895 52.0603Z" fill="#2A2A2A"/>
<path d="M65.1969 26.3909C66.0737 26.3746 66.853 27.154 66.8368 28.0307C66.8205 28.8913 66.1061 29.6057 65.2294 29.6219C64.3364 29.6381 63.6382 28.9562 63.6057 28.0794C63.5895 27.154 64.3039 26.4071 65.1969 26.3909Z" fill="#2A2A2A"/>
<path d="M48.4266 28.0467C48.4104 28.9722 47.6797 29.6541 46.7543 29.6216C45.8937 29.5892 45.1793 28.8423 45.1956 27.9818C45.2118 27.1375 45.9587 26.3906 46.803 26.3906C47.7122 26.3906 48.4428 27.1375 48.4266 28.0467Z" fill="#2A2A2A"/>
<path d="M57.6492 27.9819C57.6655 28.8424 56.9836 29.5893 56.1068 29.6218C55.1976 29.6543 54.4345 28.9561 54.4182 28.0631C54.402 27.1701 55.1489 26.407 56.0419 26.407C56.8861 26.3908 57.6168 27.1214 57.6492 27.9819Z" fill="#2A2A2A"/>
</svg>
