<svg width="411" height="342" viewBox="0 0 411 342" fill="none" xmlns="http://www.w3.org/2000/svg">
<path fill-rule="evenodd" clip-rule="evenodd" d="M121.427 171.527C122.053 171.675 122.679 171.833 123.305 172C123.931 172.168 124.552 172.344 125.169 172.529L124.986 173.136C124.376 172.953 123.761 172.778 123.141 172.612C122.521 172.446 121.901 172.29 121.281 172.143L121.427 171.527ZM128.834 173.749C130.05 174.194 131.246 174.674 132.42 175.186L132.166 175.767C131.004 175.26 129.82 174.785 128.616 174.344L128.834 173.749ZM113.819 170.202C115.092 170.346 116.367 170.528 117.642 170.75L117.534 171.375C116.271 171.155 115.008 170.974 113.748 170.832L113.819 170.202ZM106.101 169.802C107.384 169.791 108.673 169.818 109.966 169.885L109.933 170.518C108.653 170.452 107.377 170.425 106.107 170.436L106.101 169.802ZM135.915 176.838C137.068 177.426 138.198 178.047 139.303 178.699L138.982 179.245C137.887 178.6 136.768 177.985 135.627 177.403L135.915 176.838ZM98.3944 170.341C99.668 170.174 100.95 170.045 102.239 169.955L102.283 170.587C101.007 170.676 99.7378 170.804 98.4768 170.969L98.3944 170.341ZM142.572 180.762C143.643 181.484 144.689 182.237 145.708 183.019L145.323 183.522C144.313 182.748 143.278 182.002 142.217 181.287L142.572 180.762ZM90.8084 171.809C92.0542 171.489 93.3118 171.205 94.5796 170.96L94.7 171.582C93.4448 171.825 92.1997 172.106 90.9663 172.423L90.8084 171.809ZM148.702 185.462C149.678 186.309 150.625 187.183 151.544 188.083L151.1 188.536C150.191 187.644 149.253 186.779 148.287 185.941L148.702 185.462ZM83.4557 174.181C84.6546 173.713 85.8686 173.28 87.0961 172.884L87.2907 173.487C86.0753 173.879 84.8732 174.308 83.6862 174.771L83.4557 174.181ZM154.221 190.87C155.086 191.827 155.921 192.809 156.726 193.814L156.231 194.21C155.435 193.215 154.608 192.243 153.751 191.295L154.221 190.87ZM76.4407 177.419C77.5757 176.81 78.7292 176.235 79.8996 175.694L80.1652 176.27C79.0063 176.805 77.8641 177.374 76.7403 177.977L76.4407 177.419ZM159.048 196.902C159.792 197.955 160.503 199.03 161.182 200.125L160.643 200.459C159.971 199.375 159.267 198.31 158.531 197.268L159.048 196.902ZM69.8642 181.474C70.9188 180.733 71.9951 180.024 73.0916 179.347L73.4242 179.887C72.3385 180.556 71.2728 181.258 70.2286 181.992L69.8642 181.474ZM163.118 203.47C163.729 204.604 164.307 205.756 164.85 206.925L164.275 207.192C163.738 206.034 163.166 204.893 162.56 203.771L163.118 203.47ZM63.8222 186.289C64.7806 185.425 65.7639 184.592 66.7706 183.79L67.1655 184.286C66.1688 185.08 65.1952 185.905 64.2462 186.759L63.8222 186.289ZM166.371 210.478C166.841 211.676 167.276 212.889 167.675 214.116L167.072 214.312C166.678 213.097 166.247 211.896 165.781 210.71L166.371 210.478ZM58.4037 191.797C59.2517 190.823 60.1276 189.878 61.0297 188.961L61.4815 189.405C60.5883 190.313 59.7211 191.249 58.8816 192.213L58.4037 191.797ZM168.757 217.826C169.08 219.071 169.366 220.328 169.613 221.596L168.991 221.717C168.746 220.462 168.463 219.218 168.144 217.985L168.757 217.826ZM53.6937 197.921C54.4176 196.85 55.172 195.806 55.9552 194.787L56.4575 195.174C55.6821 196.182 54.9353 197.216 54.2186 198.276L53.6937 197.921ZM170.238 225.41C170.408 226.683 170.539 227.965 170.63 229.254L169.998 229.299C169.907 228.023 169.778 226.754 169.61 225.493L170.238 225.41ZM170.787 233.115C170.8 234.399 170.774 235.688 170.709 236.98L170.076 236.948C170.141 235.669 170.167 234.393 170.154 233.122L170.787 233.115ZM49.7625 204.573C50.3518 203.421 50.9738 202.292 51.6269 201.186L52.1725 201.509C51.5259 202.603 50.9102 203.721 50.3267 204.862L49.7625 204.573ZM170.395 240.834C170.252 242.107 170.07 243.382 169.848 244.658L169.224 244.549C169.444 243.286 169.624 242.024 169.765 240.763L170.395 240.834ZM46.6688 211.652C47.1146 210.436 47.5947 209.241 48.1076 208.067L48.6883 208.321C48.1805 209.483 47.7052 210.666 47.2637 211.87L46.6688 211.652ZM169.073 248.443C168.925 249.069 168.767 249.695 168.6 250.321C168.432 250.947 168.255 251.568 168.07 252.184L167.463 252.002C167.647 251.392 167.821 250.777 167.987 250.157C168.154 249.537 168.31 248.917 168.456 248.297L169.073 248.443ZM44.9188 217.181C45.0865 216.555 45.263 215.934 45.448 215.317L46.0549 215.5C45.8717 216.11 45.697 216.725 45.5309 217.345C45.3649 217.964 45.2086 218.585 45.0621 219.205L44.4454 219.059C44.5934 218.433 44.7511 217.807 44.9188 217.181ZM166.85 255.85C166.404 257.065 165.924 258.261 165.411 259.434L164.83 259.181C165.338 258.018 165.813 256.835 166.255 255.631L166.85 255.85ZM43.1237 226.668C43.2664 225.395 43.4482 224.12 43.6699 222.844L44.2943 222.952C44.0747 224.215 43.8947 225.478 43.7534 226.738L43.1237 226.668ZM163.756 262.929C163.167 264.081 162.545 265.21 161.891 266.315L161.346 265.993C161.993 264.899 162.608 263.781 163.192 262.64L163.756 262.929ZM42.731 234.386C42.718 233.103 42.744 231.814 42.8098 230.521L43.4426 230.553C43.3775 231.833 43.3518 233.109 43.3647 234.38L42.731 234.386ZM159.825 269.581C159.101 270.651 158.346 271.696 157.563 272.714L157.061 272.328C157.836 271.32 158.583 270.285 159.3 269.226L159.825 269.581ZM43.28 242.092C43.1108 240.819 42.9799 239.537 42.888 238.248L43.5201 238.203C43.611 239.479 43.7407 240.748 43.9082 242.009L43.28 242.092ZM44.7612 249.676C44.4384 248.43 44.1528 247.173 43.9053 245.906L44.5272 245.784C44.7723 247.039 45.0551 248.284 45.3746 249.517L44.7612 249.676ZM155.115 275.704C154.267 276.678 153.391 277.624 152.489 278.541L152.037 278.097C152.93 277.189 153.797 276.252 154.637 275.288L155.115 275.704ZM47.1477 257.024C46.677 255.826 46.242 254.612 45.8435 253.386L46.4462 253.19C46.8407 254.405 47.2715 255.606 47.7375 256.792L47.1477 257.024ZM149.696 281.213C148.738 282.076 147.754 282.909 146.748 283.711L146.353 283.216C147.35 282.422 148.323 281.597 149.272 280.742L149.696 281.213ZM50.4006 264.032C49.789 262.898 49.2114 261.746 48.6687 260.576L49.2435 260.31C49.7809 261.467 50.3528 262.608 50.9583 263.731L50.4006 264.032ZM143.654 286.028C142.6 286.769 141.523 287.478 140.427 288.154L140.094 287.615C141.18 286.945 142.246 286.243 143.29 285.509L143.654 286.028ZM54.4699 270.599C53.7264 269.546 53.015 268.471 52.3366 267.376L52.8753 267.043C53.547 268.127 54.2514 269.191 54.9876 270.234L54.4699 270.599ZM137.078 290.083C135.943 290.692 134.789 291.267 133.619 291.807L133.353 291.232C134.512 290.697 135.654 290.127 136.778 289.524L137.078 290.083ZM59.2972 276.631C58.4321 275.674 57.597 274.693 56.7929 273.688L57.2877 273.292C58.0839 274.287 58.9107 275.259 59.7672 276.206L59.2972 276.631ZM130.063 293.321C128.864 293.789 127.65 294.221 126.422 294.617L126.228 294.014C127.443 293.622 128.645 293.194 129.832 292.73L130.063 293.321ZM64.816 282.039C63.8407 281.193 62.8933 280.319 61.9746 279.418L62.4181 278.966C63.3277 279.857 64.2657 280.723 65.2313 281.561L64.816 282.039ZM122.71 295.692C121.464 296.013 120.207 296.296 118.939 296.542L118.818 295.919C120.074 295.676 121.319 295.396 122.552 295.079L122.71 295.692ZM70.9466 286.74C69.8753 286.017 68.8296 285.264 67.8101 284.483L68.1957 283.98C69.205 284.754 70.2403 285.499 71.3009 286.214L70.9466 286.74ZM115.124 297.161C113.85 297.328 112.568 297.457 111.279 297.547L111.235 296.915C112.511 296.826 113.781 296.698 115.042 296.532L115.124 297.161ZM77.6034 290.663C76.4506 290.075 75.3208 289.454 74.2149 288.802L74.5367 288.257C75.6315 288.902 76.7501 289.516 77.8914 290.099L77.6034 290.663ZM107.418 297.699C106.134 297.711 104.845 297.683 103.553 297.616L103.585 296.984C104.865 297.05 106.141 297.077 107.412 297.065L107.418 297.699ZM99.6994 297.3C98.4266 297.156 97.1516 296.974 95.8759 296.751L95.9846 296.127C97.2478 296.347 98.5102 296.528 99.7704 296.67L99.6994 297.3ZM84.6842 293.752C83.4683 293.307 82.2729 292.828 81.0988 292.316L81.3521 291.735C82.5146 292.242 83.6982 292.716 84.9021 293.157L84.6842 293.752ZM90.2132 295.501C89.5874 295.334 88.9662 295.157 88.3498 294.972L88.5319 294.365C89.1423 294.548 89.7574 294.723 90.3772 294.889C90.997 295.055 91.617 295.212 92.2372 295.358L92.0914 295.975C91.4651 295.827 90.839 295.669 90.2132 295.501Z" fill="#2626DB"/>
<path d="M117.734 303.221C121.147 299.846 121.172 294.345 117.79 290.934C114.409 287.523 108.901 287.494 105.488 290.869C102.075 294.244 102.05 299.745 105.432 303.155C108.813 306.566 114.321 306.595 117.734 303.221Z" fill="#DE051F"/>
<path fill-rule="evenodd" clip-rule="evenodd" d="M112.278 292.611L112.683 293.099L108.021 296.959L113.408 298.724L113.211 299.327L106.732 297.204L112.278 292.611Z" fill="white"/>
<path fill-rule="evenodd" clip-rule="evenodd" d="M280.347 27.3676C280.992 27.3485 281.639 27.3389 282.289 27.3389C282.939 27.3389 283.586 27.3485 284.231 27.3676L284.202 28.3672C283.566 28.3484 282.929 28.3389 282.289 28.3389C281.649 28.3389 281.012 28.3484 280.376 28.3672L280.347 27.3676ZM288.099 27.5978C289.392 27.7137 290.674 27.8678 291.945 28.0591L291.796 29.048C290.545 28.8596 289.283 28.7079 288.009 28.5938L288.099 27.5978ZM272.633 28.0591C273.904 27.8678 275.186 27.7137 276.479 27.5978L276.569 28.5938C275.295 28.7079 274.033 28.8596 272.782 29.048L272.633 28.0591ZM295.759 28.7523C297.029 29.023 298.284 29.3311 299.525 29.6754L299.257 30.639C298.036 30.3 296.801 29.9968 295.551 29.7304L295.759 28.7523ZM265.053 29.6754C266.294 29.3311 267.549 29.023 268.819 28.7523L269.027 29.7304C267.777 29.9968 266.542 30.3 265.321 30.639L265.053 29.6754ZM257.727 32.1975C258.918 31.7049 260.126 31.2471 261.352 30.8253L261.677 31.7708C260.471 32.186 259.282 32.6367 258.11 33.1215L257.727 32.1975ZM303.226 30.8253C304.452 31.2471 305.66 31.7049 306.85 32.1975L306.468 33.1215C305.296 32.6367 304.107 32.186 302.901 31.7708L303.226 30.8253ZM250.76 35.5886C251.884 34.9549 253.028 34.354 254.193 33.7873L254.63 34.6864C253.484 35.2443 252.357 35.8358 251.251 36.4596L250.76 35.5886ZM310.385 33.7873C311.55 34.354 312.694 34.9549 313.818 35.5886L313.327 36.4596C312.221 35.8358 311.094 35.2443 309.948 34.6864L310.385 33.7873ZM244.253 39.7947C245.293 39.03 246.357 38.2959 247.443 37.5937L247.986 38.4335C246.917 39.1248 245.869 39.8475 244.846 40.6003L244.253 39.7947ZM317.135 37.5937C318.221 38.2959 319.285 39.0301 320.325 39.7947L319.732 40.6003C318.709 39.8475 317.661 39.1248 316.592 38.4335L317.135 37.5937ZM238.298 44.7519C239.24 43.8673 240.208 43.0108 241.201 42.1838L241.841 42.9523C240.863 43.7666 239.91 44.6098 238.983 45.4806L238.298 44.7519ZM323.377 42.1838C324.37 43.0108 325.338 43.8673 326.28 44.7519L325.595 45.4806C324.668 44.6098 323.715 43.7666 322.737 42.9523L323.377 42.1838ZM232.98 50.3868C233.81 49.3952 234.668 48.4289 235.555 47.4894L236.282 48.1758C235.409 49.1007 234.564 50.052 233.748 51.0283L232.98 50.3868ZM329.023 47.4894C329.91 48.4289 330.768 49.3952 331.598 50.3869L330.83 51.0283C330.014 50.052 329.169 49.1007 328.296 48.1758L329.023 47.4894ZM228.377 56.6191C229.082 55.5342 229.818 54.472 230.585 53.4337L231.389 54.0278C230.634 55.05 229.909 56.0957 229.216 57.1636L228.377 56.6191ZM333.993 53.4337C334.76 54.472 335.496 55.5342 336.201 56.6191L335.362 57.1636C334.669 56.0957 333.944 55.05 333.189 54.0278L333.993 53.4337ZM224.558 63.3617C225.127 62.1983 225.73 61.0547 226.366 59.9322L227.236 60.4251C226.61 61.53 226.016 62.6557 225.457 63.8009L224.558 63.3617ZM338.212 59.9322C338.848 61.0547 339.451 62.1983 340.02 63.3617L339.121 63.8009C338.562 62.6558 337.968 61.5301 337.342 60.4251L338.212 59.9322ZM221.585 70.5161C222.008 69.2915 222.468 68.0836 222.963 66.8939L223.886 67.2777C223.399 68.4487 222.947 69.6375 222.53 70.8429L221.585 70.5161ZM341.615 66.8939C342.11 68.0836 342.569 69.2915 342.993 70.5161L342.048 70.8429C341.631 69.6375 341.179 68.4487 340.692 67.2777L341.615 66.8939ZM344.147 74.2162C344.493 75.4563 344.803 76.7116 345.074 77.9808L344.097 78.1902C343.829 76.9409 343.524 75.7054 343.184 74.4848L344.147 74.2162ZM219.504 77.9808C219.775 76.7116 220.085 75.4563 220.431 74.2162L221.394 74.4848C221.053 75.7054 220.749 76.9409 220.481 78.1902L219.504 77.9808ZM345.771 81.7952C345.963 83.0654 346.118 84.3478 346.234 85.6412L345.238 85.7308C345.123 84.4575 344.971 83.1951 344.782 81.9448L345.771 81.7952ZM218.344 85.6412C218.46 84.3478 218.615 83.0654 218.807 81.7953L219.796 81.9448C219.607 83.1951 219.455 84.4575 219.34 85.7308L218.344 85.6412ZM346.465 89.5086C346.484 90.1537 346.494 90.8012 346.494 91.4509C346.494 92.1006 346.484 92.7481 346.465 93.3932L345.466 93.3634C345.484 92.7282 345.494 92.0907 345.494 91.4509C345.494 90.8111 345.484 90.1735 345.466 89.5384L346.465 89.5086ZM218.084 91.4509C218.084 90.8012 218.094 90.1537 218.113 89.5086L219.112 89.5384C219.094 90.1735 219.084 90.8111 219.084 91.4509C219.084 92.0907 219.094 92.7282 219.112 93.3634L218.113 93.3932C218.094 92.7481 218.084 92.1006 218.084 91.4509ZM346.234 97.2606C346.118 98.554 345.963 99.8363 345.771 101.106L344.782 100.957C344.971 99.7066 345.123 98.4443 345.238 97.171L346.234 97.2606ZM218.807 101.107C218.615 99.8363 218.46 98.554 218.344 97.2606L219.34 97.171C219.455 98.4443 219.607 99.7066 219.796 100.957L218.807 101.107ZM345.074 104.921C344.803 106.19 344.493 107.445 344.147 108.686L343.184 108.417C343.525 107.196 343.829 105.961 344.097 104.712L345.074 104.921ZM220.431 108.686C220.085 107.445 219.775 106.19 219.504 104.921L220.481 104.712C220.749 105.961 221.053 107.196 221.394 108.417L220.431 108.686ZM342.993 112.386C342.569 113.61 342.11 114.818 341.615 116.008L340.692 115.624C341.179 114.453 341.631 113.264 342.048 112.059L342.993 112.386ZM222.963 116.008C222.468 114.818 222.008 113.61 221.585 112.386L222.53 112.059C222.947 113.264 223.399 114.453 223.886 115.624L222.963 116.008ZM226.366 122.97C225.73 121.847 225.127 120.703 224.558 119.54L225.457 119.101C226.016 120.246 226.61 121.372 227.236 122.477L226.366 122.97ZM340.02 119.54C339.451 120.703 338.848 121.847 338.212 122.97L337.342 122.477C337.968 121.372 338.562 120.246 339.121 119.101L340.02 119.54ZM230.585 129.468C229.818 128.43 229.082 127.368 228.377 126.283L229.216 125.738C229.909 126.806 230.634 127.852 231.389 128.874L230.585 129.468ZM336.201 126.283C335.496 127.368 334.76 128.43 333.993 129.468L333.189 128.874C333.944 127.852 334.669 126.806 335.362 125.738L336.201 126.283ZM235.555 135.412C234.668 134.473 233.81 133.507 232.98 132.515L233.748 131.873C234.564 132.85 235.409 133.801 236.282 134.726L235.555 135.412ZM331.598 132.515C330.768 133.507 329.91 134.473 329.023 135.412L328.296 134.726C329.169 133.801 330.014 132.85 330.83 131.873L331.598 132.515ZM241.201 140.718C240.208 139.891 239.24 139.034 238.298 138.15L238.983 137.421C239.91 138.292 240.863 139.135 241.841 139.949L241.201 140.718ZM326.28 138.15C325.338 139.034 324.37 139.891 323.377 140.718L322.737 139.949C323.715 139.135 324.668 138.292 325.595 137.421L326.28 138.15ZM247.443 145.308C246.357 144.606 245.293 143.872 244.253 143.107L244.846 142.301C245.869 143.054 246.917 143.777 247.986 144.468L247.443 145.308ZM320.325 143.107C319.285 143.872 318.221 144.606 317.135 145.308L316.592 144.468C317.661 143.777 318.709 143.054 319.732 142.301L320.325 143.107ZM254.193 149.114C253.028 148.548 251.884 147.947 250.76 147.313L251.251 146.442C252.357 147.066 253.484 147.657 254.63 148.215L254.193 149.114ZM313.818 147.313C312.694 147.947 311.55 148.548 310.385 149.114L309.948 148.215C311.094 147.657 312.221 147.066 313.327 146.442L313.818 147.313ZM261.352 152.076C260.126 151.655 258.918 151.197 257.727 150.704L258.11 149.78C259.282 150.265 260.471 150.716 261.677 151.131L261.352 152.076ZM306.85 150.704C305.66 151.197 304.452 151.655 303.226 152.076L302.901 151.131C304.107 150.716 305.296 150.265 306.468 149.78L306.85 150.704ZM268.819 154.149C267.549 153.879 266.294 153.571 265.053 153.226L265.321 152.263C266.542 152.602 267.777 152.905 269.027 153.171L268.819 154.149ZM299.525 153.226C298.284 153.571 297.029 153.879 295.759 154.149L295.551 153.171C296.801 152.905 298.036 152.602 299.257 152.263L299.525 153.226ZM291.945 154.843C290.674 155.034 289.392 155.188 288.099 155.304L288.009 154.308C289.283 154.194 290.545 154.042 291.796 153.854L291.945 154.843ZM276.479 155.304C275.186 155.188 273.904 155.034 272.633 154.843L272.782 153.854C274.033 154.042 275.295 154.194 276.569 154.308L276.479 155.304ZM284.231 155.534C283.586 155.553 282.939 155.563 282.289 155.563C281.639 155.563 280.992 155.553 280.347 155.534L280.376 154.535C281.012 154.553 281.649 154.563 282.289 154.563C282.929 154.563 283.566 154.553 284.202 154.535L284.231 155.534Z" fill="#2626DB"/>
<path d="M350.55 202.223L357.014 200.414L355.201 193.96L348.738 195.77L350.55 202.223Z" fill="#EE384E"/>
<path d="M56.5172 134.616L62.9805 132.806L61.168 126.352L54.7047 128.162L56.5172 134.616Z" fill="#003EB0"/>
<path d="M391.316 26.2625C391.179 26.1257 391.042 26.1257 390.837 26.1257L387.891 26.4677C387.48 26.5361 387.138 26.2625 387.069 25.9205C386.727 24.6209 386.247 23.3213 385.494 22.1585C385.288 21.8165 385.357 21.4061 385.631 21.2009L387.754 19.5593C387.891 19.4909 387.96 19.2857 387.96 19.1489C387.96 19.0121 387.891 18.8069 387.823 18.7385L384.603 15.5237C384.466 15.3869 384.329 15.3185 384.192 15.3869C384.055 15.3869 383.85 15.4553 383.781 15.5921L382.137 17.7125C381.932 17.9861 381.452 18.0545 381.178 17.8493C380.014 17.1653 378.781 16.6181 377.411 16.2761C377 16.2077 376.794 15.8657 376.863 15.4553L377.205 12.5141C377.205 12.3773 377.205 12.1721 377.068 12.0353C376.931 11.8985 376.794 11.8301 376.657 11.8301H372.068C371.931 11.8301 371.725 11.8985 371.657 12.0353C371.52 12.1721 371.52 12.3089 371.52 12.5141L371.862 15.4553C371.931 15.7973 371.657 16.2077 371.314 16.2761C370.013 16.6181 368.711 17.0969 367.547 17.8493C367.204 18.0545 366.793 17.9861 366.588 17.7125L364.944 15.5921C364.875 15.4553 364.67 15.3869 364.533 15.3869C364.396 15.3869 364.19 15.4553 364.122 15.5237L360.902 18.7385C360.765 18.8753 360.697 19.0121 360.765 19.1489C360.765 19.2857 360.834 19.4909 360.971 19.5593L363.094 21.2009C363.368 21.4061 363.437 21.8849 363.231 22.1585C362.546 23.3213 361.998 24.5525 361.656 25.9205C361.587 26.3309 361.245 26.5361 360.834 26.4677L357.888 26.1257C357.751 26.1257 357.546 26.1257 357.409 26.2625C357.272 26.3993 357.203 26.5361 357.203 26.6729V31.2557C357.203 31.3925 357.272 31.5977 357.409 31.6661C357.546 31.8029 357.683 31.8029 357.888 31.8029L360.834 31.4609C361.176 31.3925 361.587 31.6661 361.656 32.0081C361.998 33.3077 362.478 34.6073 363.231 35.7701C363.437 36.1121 363.368 36.5225 363.094 36.7277L360.971 38.3693C360.834 38.4377 360.765 38.6429 360.765 38.7797C360.765 38.9165 360.834 39.1217 360.902 39.1901L364.122 42.4049C364.259 42.5417 364.396 42.6101 364.533 42.5417C364.67 42.5417 364.875 42.4733 364.944 42.3365L366.588 40.2161C366.793 39.9425 367.273 39.8741 367.547 40.0793C368.711 40.7633 369.944 41.3105 371.314 41.6525C371.725 41.7209 371.931 42.0629 371.862 42.4733L371.52 45.4145C371.52 45.5513 371.52 45.7565 371.657 45.8933C371.794 46.0301 371.931 46.0985 372.068 46.0985H376.657C376.794 46.0985 377 46.0301 377.068 45.8933C377.205 45.7565 377.205 45.6197 377.205 45.4145L376.863 42.4733C376.794 42.1313 377.068 41.7209 377.411 41.6525C378.712 41.3105 380.014 40.8317 381.178 40.0793C381.521 39.8741 381.932 39.9425 382.137 40.2161L383.781 42.3365C383.85 42.4733 384.055 42.5417 384.192 42.5417C384.329 42.5417 384.535 42.4733 384.603 42.4049L387.823 39.1901C387.96 39.0533 388.028 38.9165 387.96 38.7797C387.96 38.6429 387.891 38.4377 387.754 38.3693L385.631 36.7277C385.357 36.5225 385.288 36.0437 385.494 35.7701C386.179 34.6073 386.727 33.3761 387.069 32.0081C387.138 31.5977 387.48 31.3925 387.891 31.4609L390.837 31.8029C390.974 31.8029 391.179 31.8029 391.316 31.6661C391.453 31.5293 391.522 31.3925 391.522 31.2557V26.6729C391.522 26.5361 391.453 26.3993 391.316 26.2625ZM390.357 30.6401L388.097 30.3665C387.138 30.2297 386.247 30.8453 386.042 31.8029C385.768 33.0341 385.288 34.1969 384.603 35.2229C384.124 36.0437 384.261 37.1381 385.014 37.6853L386.59 38.9165L384.261 41.2421L383.028 39.6689C382.411 38.9165 381.384 38.7113 380.562 39.2585C379.466 39.8741 378.37 40.3529 377.137 40.6949C376.178 40.9001 375.561 41.7893 375.698 42.7469L375.972 45.0041H372.684L372.958 42.7469C373.095 41.7893 372.479 40.9001 371.52 40.6949C370.287 40.4213 369.122 39.9425 368.095 39.2585C367.273 38.7797 366.177 38.9165 365.629 39.6689L364.396 41.2421L362.067 38.9165L363.642 37.6853C364.396 37.0697 364.601 36.0437 364.053 35.2229C363.437 34.1285 362.957 33.0341 362.615 31.8029C362.409 30.8453 361.519 30.2297 360.56 30.3665L358.299 30.6401V27.3569L360.56 27.6305C361.519 27.7673 362.409 27.1517 362.615 26.1941C362.889 24.9629 363.368 23.8001 364.053 22.7741C364.533 21.9533 364.396 20.8589 363.642 20.3117L362.067 19.0805L364.396 16.7549L365.629 18.3281C366.245 19.0805 367.273 19.2857 368.095 18.7385C369.191 18.1229 370.287 17.6441 371.52 17.3021C372.479 17.0969 373.095 16.2077 372.958 15.2501L372.684 12.9929H375.972L375.698 15.2501C375.561 16.2077 376.178 17.0969 377.137 17.3021C378.37 17.5757 379.534 18.0545 380.562 18.7385C381.384 19.2173 382.48 19.0805 383.028 18.3281L384.261 16.7549L386.59 19.0805L385.014 20.3117C384.261 20.9273 384.055 21.9533 384.603 22.7741C385.22 23.8685 385.699 24.9629 386.042 26.1941C386.247 27.1517 387.138 27.7673 388.097 27.6305L390.357 27.3569V30.6401Z" fill="#003EB0"/>
<path d="M374.397 20.9956C370.013 20.9956 366.383 24.5524 366.383 28.9984C366.383 33.4444 369.945 37.0012 374.397 37.0012C378.781 37.0012 382.412 33.4444 382.412 28.9984C382.412 24.5524 378.781 20.9956 374.397 20.9956ZM374.397 35.8384C370.63 35.8384 367.547 32.7604 367.547 28.9984C367.547 25.2364 370.63 22.1584 374.397 22.1584C378.165 22.1584 381.247 25.2364 381.247 28.9984C381.247 32.7604 378.165 35.8384 374.397 35.8384Z" fill="#003EB0"/>
<path d="M148.098 42.9551H140.495C140.358 42.9551 140.289 43.0235 140.289 43.1603V46.3067C140.289 46.3751 140.289 46.4435 140.358 46.4435L141.248 47.3327C141.317 47.4011 141.317 47.4011 141.385 47.4011H147.208C147.276 47.4011 147.345 47.4011 147.345 47.3327L148.235 46.4435C148.304 46.3751 148.304 46.3751 148.304 46.3067V43.1603C148.372 43.0235 148.235 42.9551 148.098 42.9551ZM147.893 46.1699L147.139 46.9223H141.454L140.7 46.1699V43.3655H147.893V46.1699Z" fill="#003EB0"/>
<path d="M148.577 43.8442L140.014 44.323C139.877 44.323 139.809 44.4598 139.809 44.5282C139.809 44.665 139.946 44.7334 140.014 44.7334L148.577 44.2546C148.714 44.2546 148.782 44.1178 148.782 44.0494C148.782 43.9126 148.714 43.8442 148.577 43.8442Z" fill="#003EB0"/>
<path d="M148.577 45.1436L140.014 45.6224C139.877 45.6224 139.809 45.7592 139.809 45.8276C139.809 45.9644 139.946 46.0328 140.014 46.0328L148.577 45.554C148.714 45.554 148.782 45.4172 148.782 45.3488C148.782 45.2804 148.714 45.1436 148.577 45.1436Z" fill="#003EB0"/>
<path d="M144.33 27.7017C140.152 27.7017 136.727 31.1217 136.727 35.2941C136.727 37.9617 138.097 40.3557 140.289 41.7237V43.0917C140.289 43.2285 140.357 43.2969 140.494 43.2969H148.098C148.235 43.2969 148.303 43.2285 148.303 43.0917V41.7237C150.564 40.2873 151.865 37.8933 151.865 35.2941C151.934 31.1217 148.509 27.7017 144.33 27.7017ZM148.029 41.4501C147.961 41.5185 147.892 41.5869 147.892 41.6553V42.9549H140.7V41.6553C140.7 41.5869 140.631 41.5185 140.563 41.4501C138.371 40.1505 137.069 37.8249 137.069 35.2941C137.069 31.3269 140.289 28.1121 144.262 28.1121C148.235 28.1121 151.454 31.3269 151.454 35.2941C151.523 37.8249 150.221 40.1505 148.029 41.4501Z" fill="#003EB0"/>
<path d="M146.454 46.9902C146.317 46.9218 146.18 46.9902 146.18 47.0586C146.18 47.0586 145.769 47.811 144.331 47.811C142.961 47.811 142.55 47.0586 142.481 47.0586C142.413 46.9218 142.276 46.9218 142.207 46.9902C142.07 47.0586 142.07 47.1954 142.139 47.2638C142.139 47.3322 142.687 48.2898 144.331 48.2898C145.975 48.2898 146.523 47.3322 146.523 47.2638C146.591 47.1954 146.523 47.0586 146.454 46.9902Z" fill="#003EB0"/>
<path d="M134.672 35.0889H130.151C130.014 35.0889 129.945 35.1573 129.945 35.2941C129.945 35.4309 130.014 35.4993 130.151 35.4993H134.672C134.809 35.4993 134.877 35.4309 134.877 35.2941C134.877 35.1573 134.809 35.0889 134.672 35.0889Z" fill="#DE051F"/>
<path d="M158.441 35.0889H153.92C153.783 35.0889 153.715 35.1573 153.715 35.2941C153.715 35.4309 153.783 35.4993 153.92 35.4993H158.441C158.578 35.4993 158.647 35.4309 158.647 35.2941C158.715 35.1573 158.578 35.0889 158.441 35.0889Z" fill="#DE051F"/>
<path d="M136.11 40.0137C136.042 39.8769 135.905 39.8769 135.836 39.9453L131.932 42.2025C131.795 42.2709 131.795 42.4077 131.863 42.4761C131.932 42.5445 132 42.6129 132.069 42.6129C132.137 42.6129 132.137 42.6129 132.206 42.6129L136.11 40.3557C136.179 40.2873 136.179 40.1505 136.11 40.0137Z" fill="#DE051F"/>
<path d="M156.729 28.1124C156.661 27.9756 156.524 27.9756 156.455 28.044L152.551 30.3012C152.414 30.3696 152.414 30.5064 152.482 30.5748C152.551 30.6432 152.619 30.7116 152.688 30.7116C152.756 30.7116 152.756 30.7116 152.825 30.7116L156.729 28.4544C156.798 28.386 156.798 28.2492 156.729 28.1124Z" fill="#DE051F"/>
<path d="M151.522 22.8452C151.385 22.7768 151.248 22.8452 151.248 22.9136L148.987 26.8124C148.919 26.9492 148.987 27.086 149.056 27.086C149.124 27.086 149.124 27.086 149.193 27.086C149.261 27.086 149.33 27.0176 149.398 26.9492L151.659 23.0504C151.659 23.0504 151.59 22.9136 151.522 22.8452Z" fill="#DE051F"/>
<path d="M144.331 20.9302C144.194 20.9302 144.125 20.9986 144.125 21.1354V25.6498C144.125 25.7866 144.194 25.855 144.331 25.855C144.468 25.855 144.536 25.7866 144.536 25.6498V21.2038C144.536 21.067 144.468 20.9302 144.331 20.9302Z" fill="#DE051F"/>
<path d="M139.671 26.8124L137.411 22.9136C137.342 22.7768 137.205 22.7768 137.137 22.8452C137 22.9136 137 23.0504 137.068 23.1188L139.329 27.0176C139.397 27.086 139.466 27.1544 139.534 27.1544C139.603 27.1544 139.603 27.1544 139.671 27.1544C139.671 27.086 139.74 26.9492 139.671 26.8124Z" fill="#DE051F"/>
<path d="M156.66 42.2025L152.755 39.9453C152.618 39.8769 152.481 39.9453 152.481 40.0137C152.413 40.1505 152.481 40.2873 152.55 40.2873L156.454 42.5445C156.523 42.5445 156.523 42.5445 156.592 42.5445C156.66 42.5445 156.728 42.4761 156.797 42.4077C156.797 42.3393 156.797 42.2025 156.66 42.2025Z" fill="#DE051F"/>
<path d="M136.041 30.3012L132.136 28.044C131.999 27.9756 131.862 28.044 131.862 28.1124C131.794 28.2492 131.862 28.386 131.931 28.386L135.835 30.6432C135.904 30.6432 135.904 30.6432 135.972 30.6432C136.041 30.6432 136.109 30.5748 136.178 30.5064C136.178 30.5064 136.178 30.3696 136.041 30.3012Z" fill="#DE051F"/>
<path fill-rule="evenodd" clip-rule="evenodd" d="M147.439 32.9058C147.343 32.65 147.12 32.4693 146.728 32.4693C146.313 32.4693 146.012 32.6506 145.785 32.9345C145.552 33.2249 145.398 33.6226 145.298 34.0378C145.199 34.4507 145.157 34.8661 145.14 35.1802C145.132 35.3342 145.13 35.4628 145.129 35.5534C146.284 35.3018 147.003 34.6314 147.315 33.983C147.515 33.5684 147.543 33.1779 147.439 32.9058ZM145.132 35.9299C146.432 35.6695 147.275 34.9178 147.648 34.1432C147.876 33.6686 147.934 33.1699 147.785 32.7751C147.629 32.364 147.261 32.1001 146.728 32.1001C146.184 32.1001 145.783 32.3463 145.496 32.7037C145.215 33.0545 145.044 33.5118 144.939 33.9516C144.832 34.3937 144.789 34.8333 144.771 35.1605C144.762 35.3245 144.76 35.4615 144.76 35.5577C144.76 35.5797 144.76 35.5995 144.761 35.6171C144.56 35.643 144.348 35.6569 144.125 35.6569V36.0261C144.347 36.0261 144.56 36.0132 144.762 35.9888V42.9551H145.132V35.9299Z" fill="#003EB0"/>
<path fill-rule="evenodd" clip-rule="evenodd" d="M140.436 32.7736C140.597 32.3607 140.975 32.1001 141.521 32.1001C142.065 32.1001 142.467 32.3463 142.753 32.7037C143.034 33.0545 143.205 33.5118 143.311 33.9516C143.417 34.3937 143.461 34.8333 143.478 35.1605C143.487 35.3245 143.489 35.4615 143.489 35.5577C143.489 35.5797 143.489 35.5996 143.489 35.6172C143.69 35.643 143.901 35.6569 144.124 35.6569V36.0261C143.902 36.0261 143.69 36.0132 143.487 35.9889V42.9551H143.118V35.9303C141.812 35.6703 140.957 34.9188 140.576 34.1445C140.343 33.67 140.282 33.17 140.436 32.7736ZM143.12 35.5538C143.12 35.4632 143.118 35.3345 143.109 35.1802C143.093 34.8661 143.051 34.4507 142.952 34.0378C142.852 33.6226 142.697 33.2249 142.465 32.9345C142.237 32.6506 141.936 32.4693 141.521 32.4693C141.108 32.4693 140.879 32.6533 140.78 32.9073C140.675 33.1778 140.704 33.567 140.908 33.9817C141.227 34.6311 141.959 35.3024 143.12 35.5538Z" fill="#003EB0"/>
<path d="M266.833 39.0576C271.569 38.2473 274.75 33.7572 273.938 29.0287C273.127 24.3002 268.63 21.1239 263.895 21.9342C259.159 22.7445 255.978 27.2346 256.79 31.9631C257.601 36.6916 262.098 39.8679 266.833 39.0576Z" fill="#FCBE42"/>
<path fill-rule="evenodd" clip-rule="evenodd" d="M263.436 28.4155L270.163 29.535L265.403 34.9563L264.927 34.5382L268.935 29.9731L263.332 29.0406L263.436 28.4155Z" fill="white"/>
<path d="M334.307 221.728C371.024 228.469 388.563 205.538 396.196 189.537L390.455 188.214L398.215 184.876C400.549 179.08 401.432 175.048 401.432 175.048C319.166 173.788 334.37 221.728 334.307 221.728Z" fill="#023EA1"/>
<path fill-rule="evenodd" clip-rule="evenodd" d="M401.094 174.571L401.773 175.651L361.829 200.745L390.234 199.295L390.3 200.568L357.006 202.268L401.094 174.571Z" fill="white"/>
<path fill-rule="evenodd" clip-rule="evenodd" d="M376.101 176.97L359.951 201.854L358.881 201.159L375.031 176.276L376.101 176.97Z" fill="white"/>
<path d="M359.353 173.159C359.795 176.434 364.778 178.513 356.262 182.86C347.745 187.207 359.605 189.411 350.647 197.916C341.688 206.357 334.686 194.199 332.541 186.514C330.396 178.828 339.102 181.159 342.509 177.505C345.852 173.788 341.815 172.088 341.815 168.245C341.815 164.402 349.574 164.717 352.287 165.221C355 165.662 354.054 163.016 356.514 160.559C358.974 158.103 364.778 160.244 365.914 164.276C367.05 168.308 362.381 169.631 362.381 169.631C362.381 169.631 359.101 169.82 359.353 173.159Z" fill="#FCBE42"/>
<path fill-rule="evenodd" clip-rule="evenodd" d="M351.081 178.108C348.773 182.098 345.447 187.156 341.391 191.366C337.363 195.546 334.55 197.785 332.725 198.984C331.812 199.584 331.142 199.926 330.687 200.121C330.459 200.218 330.284 200.278 330.159 200.316C330.097 200.334 330.047 200.347 330.009 200.356C329.99 200.361 329.974 200.364 329.961 200.367L329.944 200.37L329.936 200.371L329.933 200.372L329.932 200.372C329.931 200.372 329.931 200.372 329.828 199.743C329.725 199.113 329.725 199.113 329.724 199.113L329.723 199.114L329.72 199.114L329.717 199.115L329.713 199.115C329.712 199.116 329.715 199.115 329.72 199.114C329.732 199.111 329.756 199.105 329.793 199.094C329.869 199.071 329.998 199.027 330.186 198.947C330.561 198.787 331.164 198.484 332.025 197.918C333.748 196.786 336.488 194.616 340.472 190.481C344.428 186.375 347.694 181.416 349.976 177.469C351.116 175.499 352.007 173.786 352.612 172.568C352.915 171.959 353.146 171.473 353.301 171.141C353.378 170.975 353.437 170.847 353.476 170.761C353.495 170.718 353.51 170.686 353.519 170.664L353.53 170.64L353.533 170.635L353.533 170.633L354.117 170.891C354.7 171.148 354.7 171.148 354.7 171.149L354.696 171.158L354.684 171.185C354.673 171.208 354.658 171.243 354.637 171.288C354.597 171.378 354.536 171.51 354.457 171.68C354.297 172.021 354.062 172.516 353.754 173.135C353.139 174.373 352.236 176.11 351.081 178.108Z" fill="#E5F8FF"/>
<path fill-rule="evenodd" clip-rule="evenodd" d="M348.125 193.199C356.006 185.692 365.25 175.765 370.843 165.999L372.088 166.712C366.389 176.663 357.022 186.706 349.115 194.238C345.155 198.01 341.55 201.164 338.935 203.374C337.627 204.48 336.566 205.35 335.831 205.945C335.464 206.242 335.178 206.47 334.984 206.624C334.887 206.701 334.812 206.76 334.762 206.8L334.705 206.844L334.69 206.856L334.686 206.859L334.685 206.86C334.685 206.86 334.685 206.86 334.244 206.294C333.803 205.728 333.803 205.728 333.803 205.728L333.82 205.715L333.875 205.672C333.924 205.633 333.996 205.576 334.092 205.5C334.283 205.349 334.565 205.123 334.929 204.829C335.656 204.241 336.709 203.377 338.009 202.279C340.608 200.082 344.191 196.947 348.125 193.199Z" fill="#EB4B57"/>
<path fill-rule="evenodd" clip-rule="evenodd" d="M377.123 151.854L377.284 152.89C378.259 159.187 376.621 163.233 374.662 165.713C373.69 166.943 372.654 167.768 371.857 168.289C371.458 168.549 371.118 168.734 370.873 168.855C370.75 168.915 370.651 168.96 370.581 168.991C370.546 169.006 370.518 169.018 370.497 169.026L370.472 169.036L370.464 169.039L370.461 169.04L370.46 169.041C370.459 169.041 370.459 169.041 370.203 168.371L370.459 169.041L369.686 169.336L369.503 168.529C368.281 163.12 369.955 159.068 371.937 156.385C372.923 155.05 373.984 154.054 374.799 153.392C375.207 153.06 375.555 152.811 375.803 152.642C375.928 152.558 376.028 152.494 376.098 152.45C376.133 152.429 376.161 152.412 376.181 152.4L376.204 152.386L376.212 152.381L376.214 152.38L376.215 152.379C376.215 152.379 376.216 152.379 376.575 153L376.216 152.379L377.123 151.854ZM376.017 154.258C375.918 154.334 375.813 154.416 375.704 154.506C374.959 155.111 373.989 156.021 373.091 157.238C371.415 159.506 369.981 162.841 370.724 167.303C370.832 167.24 370.949 167.168 371.073 167.087C371.766 166.635 372.678 165.909 373.536 164.824C375.123 162.816 376.577 159.51 376.017 154.258Z" fill="#EB4B57"/>
<path fill-rule="evenodd" clip-rule="evenodd" d="M358.594 183.427L359.2 183.811L358.669 184.651L358.039 183.882C353.554 178.404 352.903 174.114 353.49 171.123C353.78 169.644 354.366 168.524 354.879 167.775C355.05 167.527 355.212 167.319 355.354 167.152L355.343 167.139L355.531 166.951C355.538 166.943 355.546 166.935 355.553 166.927C355.642 166.832 355.716 166.759 355.769 166.708C355.795 166.683 355.818 166.663 355.835 166.647C355.843 166.64 355.854 166.631 355.865 166.622C355.868 166.619 355.873 166.615 355.88 166.61L355.88 166.609C355.883 166.608 355.903 166.591 355.93 166.573C355.954 166.559 356.062 166.506 356.15 166.478C356.383 166.519 356.572 166.666 356.707 166.842L356.865 166.705C360.637 171.061 361.251 175.329 360.892 178.523C360.714 180.109 360.297 181.42 359.924 182.336C359.737 182.795 359.56 183.157 359.429 183.407C359.363 183.532 359.308 183.63 359.268 183.697C359.249 183.731 359.233 183.758 359.221 183.777L359.207 183.8L359.203 183.807L359.201 183.809L359.201 183.81C359.2 183.811 359.2 183.811 358.594 183.427ZM356.297 168.266C356.223 168.361 356.144 168.468 356.063 168.587C355.638 169.207 355.143 170.146 354.898 171.399C354.439 173.734 354.817 177.311 358.464 182.105C358.506 182.008 358.55 181.905 358.595 181.795C358.93 180.973 359.305 179.792 359.466 178.362C359.769 175.671 359.315 172.063 356.297 168.266Z" fill="#EB4B57"/>
<path fill-rule="evenodd" clip-rule="evenodd" d="M344.236 181.379L344.585 182.007C347.404 187.079 347.157 191.398 346.171 194.458C345.681 195.979 345.014 197.178 344.467 197.999C344.193 198.411 343.948 198.729 343.77 198.947C343.68 199.056 343.607 199.14 343.555 199.198C343.529 199.227 343.508 199.25 343.493 199.266L343.475 199.286L343.469 199.292L343.467 199.294L343.466 199.295C343.466 199.295 343.465 199.296 342.949 198.798L343.465 199.296L342.775 200.012L342.313 199.131C339.024 192.851 339.22 188.516 340.377 185.698C340.949 184.303 341.741 183.32 342.395 182.683C342.722 182.365 343.015 182.132 343.231 181.977C343.339 181.899 343.428 181.84 343.493 181.799C343.525 181.779 343.552 181.763 343.571 181.751L343.595 181.737L343.603 181.733L343.606 181.731L343.607 181.73C343.608 181.73 343.608 181.73 343.958 182.356L343.608 181.73L344.236 181.379ZM343.712 183.423C343.614 183.507 343.508 183.603 343.396 183.711C342.855 184.238 342.189 185.062 341.704 186.243C340.801 188.444 340.476 192.029 343.087 197.474C343.146 197.39 343.208 197.3 343.272 197.204C343.762 196.468 344.364 195.388 344.805 194.019C345.636 191.439 345.91 187.796 343.712 183.423Z" fill="#EB4B57"/>
<path fill-rule="evenodd" clip-rule="evenodd" d="M347.597 196.009C350.671 195.066 354.982 194.885 359.967 197.8L359.933 197.858C360.073 197.936 360.199 198.035 360.264 198.133C360.305 198.257 360.322 198.451 360.317 198.515C360.305 198.601 360.279 198.667 360.275 198.677L360.275 198.678C360.266 198.7 360.259 198.717 360.255 198.726C360.24 198.757 360.226 198.782 360.221 198.791C360.205 198.817 360.187 198.847 360.167 198.879C360.125 198.943 360.065 199.031 359.987 199.136C359.829 199.346 359.591 199.632 359.267 199.952C358.618 200.592 357.616 201.368 356.209 201.922C353.364 203.041 349.023 203.189 342.857 199.804L341.988 199.327L342.713 198.651L343.202 199.175C342.713 198.651 342.713 198.651 342.713 198.65L342.714 198.65L342.716 198.648L342.722 198.642L342.742 198.624C342.759 198.609 342.782 198.589 342.812 198.563C342.871 198.511 342.957 198.439 343.067 198.351C343.289 198.175 343.611 197.935 344.028 197.666C344.859 197.129 346.07 196.477 347.597 196.009ZM344.523 199.06C349.865 201.745 353.456 201.463 355.683 200.586C356.879 200.116 357.722 199.46 358.26 198.93C358.362 198.829 358.453 198.733 358.534 198.644C354.239 196.369 350.607 196.587 348.018 197.381C346.643 197.802 345.551 198.39 344.806 198.872C344.705 198.937 344.611 198.999 344.523 199.06Z" fill="#EB4B57"/>
<path fill-rule="evenodd" clip-rule="evenodd" d="M375.162 181.364L377.95 182.525L375.379 179.958C375.31 179.889 375.227 179.835 375.136 179.799C369.799 177.579 365.528 178.307 362.585 179.622C361.121 180.276 359.996 181.071 359.234 181.704C358.853 182.021 358.561 182.298 358.363 182.499C358.263 182.6 358.187 182.681 358.134 182.74C358.108 182.769 358.088 182.792 358.073 182.808L358.055 182.829L358.05 182.835L358.048 182.837L358.047 182.838C358.047 182.838 358.047 182.839 358.596 183.301L358.047 182.839L357.398 183.609L358.338 183.97C364.95 186.515 369.232 185.819 371.905 184.355C373.227 183.631 374.118 182.739 374.683 182.029C374.881 181.779 375.039 181.553 375.162 181.364ZM373.8 180.816C369.239 179.147 365.65 179.824 363.17 180.932C361.85 181.522 360.835 182.239 360.151 182.807C360.065 182.879 359.983 182.949 359.907 183.016C365.604 184.976 369.125 184.241 371.216 183.097C372.338 182.482 373.088 181.729 373.56 181.136C373.65 181.023 373.729 180.916 373.8 180.816Z" fill="#EB4B57"/>
<path fill-rule="evenodd" clip-rule="evenodd" d="M70.0381 8.70035C71.1774 9.23237 71.8843 10.2508 71.9252 11.6389C71.927 11.7 71.9211 11.7611 71.9077 11.8208L71.9076 11.821L71.9075 11.8213L71.9072 11.8229L71.9046 11.835C71.9021 11.8465 71.8983 11.8647 71.8933 11.8891C71.8835 11.9379 71.8692 12.0115 71.8528 12.1057C71.8199 12.2946 71.7787 12.5644 71.7464 12.8831C71.6809 13.5296 71.6563 14.3374 71.7905 15.0688C71.9268 15.8122 72.2031 16.3537 72.6305 16.6436C73.0378 16.9198 73.7689 17.0908 75.1141 16.6682C78.0507 15.7457 80.6002 15.3722 82.5784 16.1623C84.6446 16.9876 85.848 18.9665 86.3592 22.0973L86.3617 22.1137C86.7738 25.0574 87.7617 27.1458 89.0075 28.4565C90.2423 29.7555 91.755 30.3212 93.3338 30.2065C93.6359 30.1846 93.9853 30.1506 94.3619 30.114C95.0172 30.0504 95.755 29.9787 96.4709 29.9482C97.6341 29.8986 98.9001 29.9435 100.097 30.2908C101.308 30.6422 102.451 31.3043 103.338 32.4755C104.219 33.6383 104.805 35.2466 105.01 37.4204C105.087 38.2317 105.184 39.1245 105.287 40.0765C105.705 43.9418 106.23 48.7829 105.956 53.1045C105.785 55.8028 105.301 58.377 104.24 60.4282C103.164 62.5068 101.489 64.0555 98.9963 64.6187L98.9913 64.6198C94.2457 65.6575 88.8969 64.0622 84.6904 61.4632C82.5774 60.1576 80.7184 58.5789 79.338 56.9043C77.9646 55.2382 77.0241 53.4267 76.8397 51.659L76.8396 51.6582C76.6684 49.9993 76.7552 48.4739 76.8765 47.0936C76.9055 46.7638 76.936 46.4457 76.9656 46.1373C77.062 45.1312 77.1485 44.2294 77.1395 43.3721C77.1279 42.275 76.9569 41.3343 76.4772 40.4822C75.9986 39.6322 75.1735 38.8011 73.7339 37.9967C72.3054 37.2236 71.1285 37.0208 70.0943 37.049C69.2107 37.0731 68.427 37.2617 67.603 37.4599C67.4298 37.5016 67.2548 37.5437 67.0768 37.5848C66.0844 37.8138 65.004 38.0063 63.8391 37.704C62.6625 37.3986 61.5076 36.6203 60.2652 35.1385C59.9781 34.7962 59.686 34.4524 59.3923 34.1066C57.3162 31.6627 55.1573 29.1212 54.1091 26.3128C53.4999 24.6802 53.2541 22.9384 53.598 21.0525C53.9408 19.1726 54.8605 17.1983 56.5061 15.0808C59.4174 11.3289 63.0538 9.13815 66.0512 8.48179C67.5417 8.15541 68.9517 8.19301 70.0381 8.70035ZM70.4644 11.6001C70.4177 10.8071 70.0377 10.3092 69.4213 10.0213C68.731 9.69896 67.6791 9.61775 66.3631 9.90594C63.7474 10.4787 60.3922 12.4506 57.6576 15.975L57.6572 15.9754C56.1187 17.9552 55.3233 19.7175 55.0322 21.314C54.7422 22.9046 54.9436 24.3791 55.475 25.803C56.4266 28.3529 58.3986 30.6787 60.4958 33.1523C60.7897 33.4989 61.086 33.8484 61.3823 34.2018C62.5034 35.5389 63.4164 36.0881 64.2053 36.2928C65.0058 36.5006 65.7882 36.3859 66.749 36.1642C66.9013 36.129 67.0588 36.0909 67.2212 36.0516C68.0484 35.8515 69.0037 35.6203 70.0545 35.5917C71.3458 35.5564 72.7772 35.8203 74.4325 36.717L74.4406 36.7214L74.4406 36.7215C76.0513 37.6208 77.1043 38.6244 77.7476 39.767C78.3901 40.9082 78.5842 42.1184 78.5973 43.3567C78.6072 44.2991 78.5104 45.3067 78.4121 46.3297C78.3836 46.626 78.355 46.9236 78.3288 47.2212C78.2101 48.5715 78.1329 49.9879 78.2898 51.5083C78.4338 52.8871 79.1919 54.435 80.4629 55.9769C81.727 57.5104 83.4583 58.9881 85.4567 60.2229C89.4722 62.7039 94.4294 64.124 98.6773 63.1962C100.68 62.7429 102.032 61.5222 102.945 59.7583C103.872 57.9663 104.335 55.6239 104.501 53.0123C104.766 48.8303 104.261 44.1591 103.844 40.2975C103.739 39.3261 103.639 38.406 103.559 37.5577C103.371 35.5688 102.848 34.2435 102.176 33.3557C101.51 32.4762 100.655 31.9706 99.6911 31.691C98.7136 31.4074 97.6286 31.358 96.533 31.4047C95.8394 31.4343 95.2011 31.4971 94.5858 31.5576C94.1972 31.5958 93.8178 31.6331 93.4394 31.6606C91.4073 31.8082 89.4734 31.0627 87.9508 29.4609C86.4407 27.8722 85.3612 25.473 84.9191 22.3242C84.4449 19.4294 83.4168 18.067 82.0376 17.5162C80.5691 16.9296 78.4574 17.1461 75.5511 18.0591C73.9748 18.5543 72.7282 18.4713 71.8123 17.8502C70.9164 17.2427 70.5238 16.2438 70.3565 15.3319C70.187 14.408 70.224 13.4459 70.2959 12.7361C70.3324 12.3768 70.3789 12.072 70.4165 11.8557C70.4354 11.7474 70.4521 11.6608 70.4644 11.6001Z" fill="#EA4E59"/>
<path fill-rule="evenodd" clip-rule="evenodd" d="M67.515 19.555C67.8254 19.2987 68.2849 19.3426 68.5412 19.6531L67.979 20.1172L67.4168 20.5812C67.1605 20.2707 67.2045 19.8112 67.515 19.555ZM67.979 20.1172C67.4168 20.5812 67.4165 20.5809 67.4168 20.5812L67.7518 20.986C67.9709 21.2504 68.2933 21.6388 68.707 22.1358C69.5344 23.1296 70.727 24.5572 72.1882 26.293C75.1104 29.7643 79.1076 34.4692 83.4072 39.4022C87.7061 44.3344 92.3107 49.4987 96.4467 53.8873C100.57 58.2627 104.265 61.9076 106.734 63.7688C107.055 64.0112 107.512 63.9471 107.755 63.6257C107.997 63.3042 107.933 62.8471 107.611 62.6048C105.255 60.8278 101.638 57.2697 97.5076 52.8874C93.3901 48.5183 88.7994 43.3699 84.5063 38.4443C80.2138 33.5195 76.2222 28.8213 73.3035 25.3541C71.8442 23.6206 70.6534 22.195 69.8275 21.2029C69.4145 20.7069 69.0928 20.3193 68.8744 20.0558L68.5412 19.6531C68.5409 19.6529 68.5412 19.6531 67.979 20.1172Z" fill="#EA4E59"/>
<path fill-rule="evenodd" clip-rule="evenodd" d="M94.3993 35.9799C94.7985 36.0323 95.0795 36.3984 95.0271 36.7976L93.4515 48.7942C93.4107 49.1047 93.1761 49.3544 92.8688 49.4146L82.8242 51.3812C82.4291 51.4586 82.0462 51.201 81.9688 50.8059C81.8914 50.4109 82.149 50.0279 82.5441 49.9505L92.0743 48.0846L93.5816 36.6077C93.6341 36.2086 94.0001 35.9275 94.3993 35.9799Z" fill="#EA4E59"/>
<path fill-rule="evenodd" clip-rule="evenodd" d="M78.9434 20.7269C79.3308 20.8365 79.556 21.2394 79.4464 21.6268L77.0174 30.2145C76.9506 30.4504 76.7697 30.637 76.536 30.711L68.4609 33.2677C68.0771 33.3892 67.6674 33.1765 67.5459 32.7927C67.4244 32.4089 67.637 31.9993 68.0208 31.8778L75.7214 29.4397L78.0436 21.23C78.1531 20.8426 78.556 20.6174 78.9434 20.7269Z" fill="#EA4E59"/>
<path d="M111.373 85.0163C109.01 44.1756 80.3858 31.3923 61.4784 27.459L61.544 33.949L56.095 26.4757C49.4643 25.4924 45 25.6235 45 25.6235C64.8266 113.664 111.242 84.8852 111.373 85.0163Z" fill="#023EA1"/>
<path fill-rule="evenodd" clip-rule="evenodd" d="M44.5332 26.1833L45.468 25.0645L96.8813 68.0197L73.3397 31.4596L74.5655 30.6703L103.282 75.2673L44.5332 26.1833Z" fill="white"/>
<path fill-rule="evenodd" clip-rule="evenodd" d="M53.5693 52.0977L101.297 73.3375L100.705 74.6694L52.9766 53.4296L53.5693 52.0977Z" fill="white"/>
<path d="M233.859 252.875C233.859 252.875 233.791 253.285 233.722 253.285C233.654 253.696 233.517 254.106 233.448 254.517C233.311 255.132 233.243 255.816 233.174 256.5C233.106 257.321 233.037 258.21 233.037 259.031C233.037 260.057 233.037 261.015 233.106 262.041C233.174 263.135 233.311 264.298 233.517 265.392C233.722 266.623 234.065 267.786 234.407 268.949C234.818 270.249 235.298 271.48 235.914 272.643C236.531 273.942 237.284 275.173 238.106 276.336C238.997 277.636 240.024 278.799 241.189 279.893C242.422 281.124 243.792 282.219 245.23 283.245C246.052 283.792 246.874 284.407 247.696 284.886C247.97 285.023 248.313 285.16 248.587 285.228C248.655 285.228 249.203 285.365 249.203 285.433V295.351H161.66L161.592 286.049C161.592 286.049 175.292 283.313 178.169 253.901C178.237 253.969 233.859 252.875 233.859 252.875Z" fill="#0064B7"/>
<path d="M234.133 268.675L177.826 257.252L178.237 253.969L234.27 253.285C234.202 253.217 231.119 256.842 234.133 268.675Z" fill="#023EA1"/>
<path d="M249.34 286.117H161.592V295.42H249.34V286.117Z" fill="#023EA1"/>
<path d="M329.416 69.2209H80.8983C70.4863 68.8789 70.4863 77.4973 70.4863 77.4973V118.742V208.073V249.318C70.4863 249.318 70.4863 257.936 80.8983 257.594H329.416C329.416 257.594 340.582 257.936 340.582 247.198C340.582 246.924 340.582 246.582 340.582 246.103V241.11C340.582 241.11 340.582 116.348 340.582 85.8421C340.582 83.6533 340.582 81.9433 340.582 80.8489C340.582 80.4385 340.582 80.0281 340.582 79.7545C340.513 68.8789 329.416 69.2209 329.416 69.2209ZM329.074 242.478L81.9943 243.914L81.6518 163.408L81.9943 82.9009L329.074 84.3373L329.416 163.408L329.074 242.478Z" fill="#0064B7"/>
<path d="M81.9258 82.9009L329.416 84.1321L329.074 244.94L81.9258 243.914V82.9009Z" fill="white"/>
<path d="M369.763 92.6821H213.583C210.226 92.6821 207.486 95.4181 207.486 98.7697V147.129C207.486 150.48 210.226 153.216 213.583 153.216H225.228C226.187 158.278 227.283 164.639 227.283 164.639L237.832 153.216H369.831C373.188 153.216 375.928 150.48 375.928 147.129V98.7697C375.859 95.3497 373.119 92.6821 369.763 92.6821Z" fill="#DE051F"/>
<path d="M332.34 113.762L225 113.283V110L332.34 110.479V113.762Z" fill="white"/>
<path d="M332.34 124.762L225 124.283V121L332.34 121.479V124.762Z" fill="white"/>
<path d="M285 136L225 135.491V132L285 132.509V136Z" fill="white"/>
<path d="M341.815 151.643C358.386 151.643 371.818 138.536 371.818 122.367C371.818 106.199 358.386 93.0923 341.815 93.0923C325.245 93.0923 311.812 106.199 311.812 122.367C311.812 138.536 325.245 151.643 341.815 151.643Z" fill="#E0E0E0"/>
<path d="M329.965 98.0171C333.801 94.8707 335.171 89.2619 335.171 89.2619C335.719 86.5259 335.856 84.5423 335.856 84.5423C335.308 72.4355 336.198 73.4615 343.048 67.7159C349.83 61.9703 358.05 66.6899 358.05 66.6899L362.16 83.3111C362.297 83.9267 361.954 84.3371 361.543 84.4055L360.105 84.8159L360.516 86.4575C360.653 86.8679 360.447 87.4151 360.036 87.5519L358.461 88.0991L358.598 89.8091C358.666 90.0827 358.598 90.4247 358.529 90.6299C355.173 96.9911 350.309 91.7243 350.309 91.7243C346.747 89.5355 347.569 92.4083 347.227 93.6395C347.09 94.3235 349.898 98.7011 349.898 98.7011L346.199 109.03L332.773 113.681L329.965 98.0171Z" fill="#FFBF9C"/>
<path d="M357.843 68.3316C355.925 66.9636 346.404 65.3904 346.678 70.6572C346.952 75.924 342.91 72.9144 342.91 72.9144C339.485 70.0416 338.663 71.82 338.595 73.7352C338.526 74.6928 338.732 75.924 339.143 76.8816C342.431 85.5684 337.91 87.0732 335.581 87.21C334.964 87.21 334.279 86.9364 333.8 86.4576C326.196 76.0608 332.567 68.1264 332.567 68.1264C330.375 57.3876 343.116 59.2344 343.116 59.2344C347.568 48.7692 355.925 57.7296 355.925 57.7296C365.241 53.01 364.419 63.612 364.419 63.612C364.419 63.612 368.392 62.586 365.995 68.4C364.351 72.2988 361.816 72.162 360.378 71.6148C359.83 71.4096 359.419 70.9308 359.282 70.3152C359.145 69.6996 358.802 69.0156 357.843 68.3316Z" fill="#170D54"/>
<path d="M360.516 122.231L367.229 117.99L371.407 126.95C371.202 130.986 369.558 133.243 368.599 135.432L360.516 122.231Z" fill="#F9AC85"/>
<path d="M321.198 126.267L325.65 146.923C325.65 146.923 330.788 150.412 337.295 151.301C348.118 152.806 357.64 148.839 363.668 142.409C362.503 135.227 361.476 126.677 361.544 126.267C361.544 126.198 361.544 126.13 361.544 126.13L369.285 119.221L371.819 116.691C369.97 108.483 364.216 101.574 359.9 99.1801V99.1117L359.489 98.9749C353.941 96.1021 348.05 95.4181 348.05 95.4181L342.433 101.985L332.5 94.8709C332.5 94.8709 323.869 94.3237 317.156 98.4277C315.923 99.1801 316.266 102.053 315.238 103.079L324.143 116.075L321.198 126.267Z" fill="#FCBE42"/>
<path d="M389.697 101.916C389.149 102.326 369.832 119.768 369.832 119.768L371.75 121.41L391.478 104.31L389.697 101.916Z" fill="#263238"/>
<path d="M380.176 117.237C380.382 116.348 380.039 114.159 380.039 114.159L379.149 114.912C379.012 115.185 375.587 118.195 375.244 116.622C374.97 115.049 376.683 113.612 375.861 113.133C375.039 112.655 373.395 116.348 373.395 116.348C373.121 116.895 371.819 118.605 371.819 118.605C370.929 119.426 370.381 119.905 370.107 120.179L369.833 120.452L369.49 120.657C342.022 136.389 339.419 135.842 338.049 135.569C337.501 135.432 336.953 135.227 336.542 134.885C335.651 134.269 335.035 133.79 324.691 110.397C320.239 112.723 318.047 117.921 319.622 122.778C326.541 143.913 330.377 146.581 330.856 146.855C342.981 148.428 365.86 131.875 373.6 125.377C374.148 124.898 374.97 124.146 375.861 123.188C377.025 121.889 378.395 120.315 379.354 118.674L380.176 117.237Z" fill="#FEBD96"/>
<path d="M332.157 117.853L315.58 123.393C313.114 110.945 313.183 101.574 317.087 98.2907C317.087 98.3591 325.992 92.6135 332.157 117.853Z" fill="#F79F03"/>
<path opacity="0.2" d="M33.5645 104.789V137.757C33.5645 143.708 38.428 148.565 44.3875 148.565H162.687C168.646 148.565 173.51 143.708 173.51 137.757V109.919L188.237 94.4603L44.3875 93.9814C38.428 93.9814 33.5645 98.8378 33.5645 104.789Z" fill="#0064B7"/>
<path d="M156.043 113.954L48.7031 113.476V110.192L156.043 110.671V113.954Z" fill="white"/>
<path d="M156.043 124.83L48.7031 124.351V121L156.043 121.547V124.83Z" fill="white"/>
<path d="M113.627 131.903L113.611 135.186L156.081 135.395L156.097 132.111L113.627 131.903Z" fill="white"/>
<path d="M178.443 161.629H21.0302C18.7012 161.629 16.7832 163.544 16.7832 165.87V217.033C16.7832 219.358 18.7012 221.274 21.0302 221.274H135.357L145.769 232.56C145.769 232.56 146.865 226.199 147.755 221.274H178.443C180.772 221.274 182.69 219.358 182.69 217.033V165.87C182.759 163.544 180.841 161.629 178.443 161.629Z" fill="#023EA1"/>
<path d="M162.34 176L55 175.745V174L162.34 174.255V176Z" fill="white"/>
<path d="M162.34 196L55 195.745V194L162.34 194.255V196Z" fill="white"/>
<path d="M162.34 186L55 185.745V184L162.34 184.255V186Z" fill="white"/>
<path d="M162 206L108 205.745V204L162 204.255V206Z" fill="white"/>
<path d="M54.3897 219.085C70.9599 219.085 84.3927 206.285 84.3927 190.494C84.3927 174.704 70.9599 161.903 54.3897 161.903C37.8195 161.903 24.3867 174.704 24.3867 190.494C24.3867 206.285 37.8195 219.085 54.3897 219.085Z" fill="#E0E0E0"/>
<path d="M60.2113 154.447C60.5538 156.636 65.0748 162.245 65.0748 162.245L73.7743 165.733L76.4458 186.732L75.2813 199.728C75.2813 199.728 76.4458 203.558 80.4873 203.422C84.4603 203.285 87.3373 202.601 86.1728 196.787C85.1453 190.973 87.8168 191.588 89.6663 181.465C91.5158 171.479 84.1863 168.606 81.3093 167.306C78.2953 166.007 75.4868 158.141 75.4868 158.141C74.1853 147.334 62.8143 151.506 62.8143 151.506C62.8143 151.506 59.8688 152.327 60.2113 154.447Z" fill="#170856"/>
<path d="M58.8412 150.138C58.7042 150.958 60.1427 153.831 60.1427 153.831C60.1427 153.831 65.0062 151.164 65.4857 150.822C65.9652 150.48 64.1842 148.633 64.1842 148.633C64.1842 148.633 59.0467 149.317 58.8412 150.138Z" fill="#F05051"/>
<path d="M51.1691 133.995C57.8136 135.295 56.6491 142.34 58.7041 149.522C60.3481 155.678 64.0471 160.192 65.0746 161.355C65.2116 161.697 65.2116 161.834 65.0746 162.039C64.9376 162.518 64.2526 163.544 63.2251 165.528C61.5811 168.537 54.5256 170.521 52.8816 169.7C51.2376 169.016 49.0456 163.886 49.7306 158.551C50.4156 153.216 46.0316 155.883 46.0316 155.883C41.3736 157.388 38.8391 154.036 38.8391 154.036C34.1811 149.522 33.4961 137.552 33.4961 135.021C33.4961 134.679 33.6331 134.542 33.9756 134.542C36.1676 134.337 45.6891 133.174 51.1691 133.995Z" fill="#FFBE97"/>
<path d="M27.6742 135.979C27.8112 137.142 28.4962 137.963 29.1812 138.783C31.0307 140.972 32.8802 138.305 33.8392 136.595C34.1817 135.911 34.8667 135.774 35.4832 136.116C40.3467 138.92 47.3337 137.621 47.3337 137.621C54.1837 135.774 50.1422 142.956 50.1422 142.956C50.0052 146.649 53.1562 150.617 61.3077 150.138C69.3222 149.659 65.2807 133.175 65.1437 132.491C62.3352 122.025 51.7862 118.674 45.7582 118.674C40.7577 118.674 37.0587 122.367 35.8942 123.667C35.5517 123.804 35.2092 124.009 34.8667 124.009C33.3597 124.009 31.7157 124.351 30.3457 125.514C28.7017 127.019 27.8112 129.344 27.6742 131.533C27.6742 132.217 27.6742 133.038 27.6742 133.722C27.6742 133.859 27.6742 133.859 27.6742 134.064C27.6742 134.679 27.5372 135.158 27.6742 135.979Z" fill="#170856"/>
<path opacity="0.3" d="M33.5645 204.174C33.5645 204.174 50.7579 220.521 61.0329 217.512C71.2394 214.571 74.3219 206.91 74.3219 206.91L74.596 204.174L73.5685 203.49L34.181 200.275L33.5645 204.174Z" fill="black"/>
<path d="M23.4277 188.852L26.7157 180.371L38.6347 187.826L28.0172 204.174C28.0172 204.174 23.7017 198.565 23.4277 188.852Z" fill="#F9AC85"/>
<path d="M36.853 165.391C32.5375 167.717 22.8105 182.081 22.8105 182.081L27.1945 185.774L34.935 192.683C34.935 192.683 34.935 192.751 34.935 192.82C35.0035 193.23 33.7705 202.943 32.5375 210.125C36.99 214.913 43.155 217.991 49.868 218.88C52.745 219.222 61.376 219.496 67.13 216.554C69.185 215.528 70.8975 214.366 73.432 212.45L74.254 206.226L75.213 192.751C75.213 192.751 83.022 192.067 83.5015 184.543C83.707 181.533 83.2275 178.387 82.6795 175.583C81.104 167.922 74.665 162.04 66.856 161.356C65.9655 161.287 65.486 161.287 65.486 161.287L62.1295 163.544C58.1565 166.349 51.5805 165.87 49.5255 161.698C49.5255 161.698 42.4015 162.518 36.853 165.391Z" fill="#DE051F"/>
<path d="M14.3852 160.398C14.7962 160.877 30.0032 181.26 30.0032 181.26L27.8797 182.491L12.2617 162.382L14.3852 160.398Z" fill="#263238"/>
<path d="M22.6728 183.449C22.6728 183.449 19.5218 179.482 19.3163 176.13C19.2478 175.104 20.1383 172.573 20.1383 172.573L20.9603 173.668C21.0973 174.078 24.3853 178.319 25.0703 176.54C25.7553 174.762 24.1113 172.71 25.2073 172.368C26.3033 172.026 27.3308 176.677 27.3308 176.677C28.0158 177.635 28.3583 178.114 28.5638 178.319C28.5638 178.319 36.3043 186.185 38.0168 187.621C54.9363 201.848 57.2653 201.917 58.2243 201.917C58.7038 201.917 59.1148 201.848 59.5258 201.643C60.4163 201.233 61.2383 200.891 74.3903 178.25L74.6643 178.456L74.7328 178.524C79.3223 181.876 80.4183 186.527 77.7468 191.315C69.4583 206.089 62.8138 213.203 60.8958 213.34C48.4288 212.656 30.6188 193.572 24.7278 186.253L22.6728 183.449Z" fill="#FFBE97"/>
<path d="M59.1836 192.272L76.3086 205.679C76.3086 205.679 92.7486 173.531 79.1856 171.205C66.1706 169.016 59.1836 192.272 59.1836 192.272Z" fill="#E8505B"/>
<path opacity="0.2" d="M252.559 235.296V268.265C252.559 274.216 257.422 279.072 263.382 279.072H381.681C387.641 279.072 392.504 274.216 392.504 268.265V240.426L407.232 224.968L263.382 224.489C257.422 224.489 252.559 229.277 252.559 235.296Z" fill="#0064B7"/>
<path d="M375.584 243.573L268.176 243.094V239.811L375.584 240.289V243.573Z" fill="white"/>
<path d="M375.584 254.448L268.176 253.969V250.618L375.584 251.165V254.448Z" fill="white"/>
<path d="M333.129 261.483L333.113 264.766L375.583 264.975L375.599 261.692L333.129 261.483Z" fill="white"/>
<path opacity="0.2" d="M327.978 179.55V201.438C327.978 205.405 324.759 208.62 320.786 208.62H242.353C238.38 208.62 235.161 205.405 235.161 201.438V182.97L225.365 172.71L320.786 172.437C324.759 172.368 327.978 175.583 327.978 179.55Z" fill="#DE051F"/>
<path d="M246.736 185.638L317.908 185.296V183.107L246.736 183.449V185.638Z" fill="white"/>
<path d="M246.736 192.82L317.908 192.478V190.289L246.736 190.631V192.82Z" fill="white"/>
<path d="M274.888 197.472L246.734 197.611L246.745 199.8L274.899 199.661L274.888 197.472Z" fill="white"/>
</svg>
