<svg width="385" height="297" viewBox="0 0 385 297" fill="none" xmlns="http://www.w3.org/2000/svg">
<path d="M374.436 127.221C374.436 127.221 368.337 143.191 360.899 137.248C353.46 131.38 350.336 133.757 347.212 136.431C344.088 139.105 340.517 146.162 333.005 139.551C325.492 132.94 324.153 126.627 318.872 126.329C313.591 126.032 292.466 117.862 297.821 110.656C303.177 103.451 315.971 104.417 321.252 106.274C326.533 108.131 332.93 104.268 337.021 100.109C341.113 95.9492 349.072 94.315 351.229 101.743C353.386 109.245 360.824 113.553 366.105 112.068C371.461 110.656 378.379 116.376 374.436 127.221Z" fill="#023EA1"/>
<path fill-rule="evenodd" clip-rule="evenodd" d="M290.749 105.976C290.832 105.646 291.167 105.445 291.497 105.528L363.277 123.503C363.607 123.586 363.808 123.921 363.725 124.251C363.642 124.581 363.308 124.782 362.977 124.699L291.197 106.724C290.867 106.641 290.666 106.306 290.749 105.976Z" fill="white"/>
<path fill-rule="evenodd" clip-rule="evenodd" d="M346.534 104.583C346.77 104.827 346.764 105.218 346.519 105.454L334.691 116.904L340.936 132.714C341.062 133.031 340.906 133.389 340.59 133.514C340.273 133.639 339.915 133.484 339.79 133.167L333.393 116.974C333.301 116.742 333.358 116.478 333.537 116.305L345.662 104.569C345.906 104.332 346.297 104.338 346.534 104.583Z" fill="white"/>
<path d="M359.413 73.5169C359.413 73.5169 367.744 73.3684 368.116 66.609C368.488 59.8496 360.157 54.0558 354.95 56.8784C349.743 59.7753 349.743 64.3063 345.578 62.3751C341.412 60.4438 329.139 56.8041 326.982 62.8207C324.899 68.9116 330.478 73.1456 322.965 77.528C315.453 81.9105 302.584 74.6311 301.915 87.4815C301.246 100.406 305.857 122.318 325.123 112.811C344.388 103.303 326.238 94.9094 342.454 91.6411C358.669 88.3728 351.752 83.0247 352.867 77.7509C353.909 72.477 359.413 73.5169 359.413 73.5169Z" fill="#DE051F"/>
<path fill-rule="evenodd" clip-rule="evenodd" d="M345.769 71.726C346.02 71.9564 346.036 72.3464 345.806 72.5971L345.352 72.18C345.806 72.5971 345.806 72.5969 345.806 72.5971L345.805 72.5981L345.803 72.6006L345.794 72.6099L345.761 72.6459C345.731 72.6776 345.688 72.7243 345.631 72.7855C345.516 72.908 345.346 73.0882 345.124 73.3206C344.68 73.7855 344.027 74.4594 343.189 75.298C341.513 76.975 339.096 79.3116 336.129 81.9532C330.199 87.2328 322.053 93.7465 313.22 98.6427C304.418 103.521 298.688 105.844 295.14 106.946C293.365 107.498 292.132 107.746 291.33 107.854C290.929 107.909 290.635 107.928 290.434 107.934C290.334 107.936 290.257 107.936 290.201 107.934C290.174 107.933 290.151 107.932 290.134 107.93L290.112 107.929L290.104 107.928L290.101 107.928L290.1 107.928C290.099 107.928 290.098 107.928 290.158 107.332L290.098 107.928C289.759 107.894 289.512 107.592 289.546 107.253C289.58 106.916 289.878 106.67 290.215 106.7C290.216 106.7 290.217 106.7 290.218 106.7L290.217 106.7C290.22 106.701 290.228 106.701 290.243 106.701C290.273 106.702 290.324 106.703 290.401 106.701C290.554 106.697 290.803 106.681 291.165 106.632C291.887 106.534 293.053 106.304 294.774 105.769C298.218 104.699 303.869 102.416 312.622 97.5643C321.343 92.7299 329.413 86.2818 335.309 81.0323C338.256 78.4093 340.655 76.0896 342.317 74.4264C343.148 73.5949 343.794 72.9277 344.233 72.469C344.452 72.2396 344.619 72.0624 344.731 71.9429C344.786 71.8832 344.829 71.8378 344.857 71.8076L344.888 71.7737L344.897 71.7634C344.898 71.7634 344.898 71.7629 345.085 71.9352L344.897 71.7634C345.128 71.5127 345.518 71.4957 345.769 71.726Z" fill="white"/>
<path fill-rule="evenodd" clip-rule="evenodd" d="M316.25 119.036C316.25 119.036 316.249 119.036 315.897 118.53C315.544 118.024 315.545 118.024 315.545 118.024L315.546 118.023L315.566 118.009L315.629 117.966C315.685 117.927 315.767 117.871 315.875 117.796C316.092 117.648 316.412 117.431 316.827 117.152C317.657 116.596 318.869 115.795 320.396 114.818C323.45 112.864 327.768 110.204 332.825 107.379C342.927 101.736 356.026 95.4047 367.905 92.7478L368.174 93.9511C356.474 96.568 343.501 102.827 333.427 108.456C328.396 111.266 324.099 113.913 321.061 115.857C319.542 116.828 318.337 117.624 317.514 118.176C317.102 118.453 316.785 118.668 316.572 118.814C316.465 118.887 316.384 118.943 316.33 118.98L316.269 119.022L316.25 119.036Z" fill="#FCBE42"/>
<path fill-rule="evenodd" clip-rule="evenodd" d="M366.512 93.791C370.921 96.0869 374.873 95.6962 377.779 94.698C379.314 94.1708 380.557 93.4729 381.416 92.9069C381.627 92.7678 381.815 92.6369 381.977 92.5188C376.697 90.1565 372.762 90.5723 370.136 91.5679C368.741 92.0972 367.695 92.798 367.002 93.3634C366.812 93.5185 366.648 93.6632 366.512 93.791ZM383.139 92.3842L383.555 92.8393L384.222 92.2304L383.412 91.8312C377.39 88.8623 372.805 89.2373 369.699 90.415C368.157 90.9998 366.998 91.7754 366.223 92.4077C365.835 92.7241 365.542 93.0054 365.343 93.2107C365.244 93.3133 365.168 93.3971 365.116 93.4568C365.089 93.4867 365.069 93.5106 365.055 93.5278L365.037 93.5487L365.032 93.5553L365.03 93.5576L365.03 93.5585C365.029 93.5588 365.029 93.5592 365.511 93.944L365.029 93.5592L364.582 94.1185L365.202 94.4775C370.259 97.4074 374.858 97.0052 378.179 95.8641C379.834 95.2957 381.171 94.5452 382.094 93.9366C382.557 93.6319 382.918 93.3617 383.165 93.1659C383.288 93.0679 383.384 92.9884 383.449 92.9324C383.482 92.9043 383.507 92.8821 383.525 92.8664L383.546 92.8478L383.552 92.8422L383.554 92.8404L383.555 92.8398C383.555 92.8395 383.555 92.8393 383.139 92.3842Z" fill="#FCBE42"/>
<path fill-rule="evenodd" clip-rule="evenodd" d="M347.734 101.358C351.557 106.79 355.158 108.394 357.752 108.689C359.122 108.844 360.249 108.641 361.03 108.401C361.267 108.328 361.472 108.252 361.642 108.182C358.647 103.721 355.024 102.054 352.126 101.494C350.608 101.201 349.279 101.21 348.332 101.292C348.111 101.311 347.911 101.334 347.734 101.358ZM362.536 108.428L362.865 108.95L363.385 108.622L363.059 108.101C359.798 102.892 355.683 100.926 352.36 100.284C350.708 99.9644 349.261 99.9739 348.226 100.064C347.707 100.109 347.29 100.174 347 100.228C346.854 100.256 346.741 100.281 346.661 100.299C346.622 100.308 346.591 100.316 346.569 100.321L346.542 100.328L346.534 100.33L346.532 100.331L346.531 100.331C346.53 100.331 346.53 100.331 346.692 100.926L346.53 100.331L345.707 100.556L346.179 101.267C350.343 107.543 354.45 109.554 357.613 109.914C359.181 110.092 360.481 109.86 361.392 109.579C361.848 109.439 362.208 109.287 362.457 109.168C362.582 109.108 362.679 109.056 362.748 109.018C362.782 108.999 362.809 108.984 362.829 108.972L362.852 108.958L362.86 108.953L362.863 108.951L362.864 108.951C362.864 108.95 362.865 108.95 362.536 108.428Z" fill="#FCBE42"/>
<path fill-rule="evenodd" clip-rule="evenodd" d="M327.343 112.142C332.143 116.709 335.993 117.571 338.604 117.35C339.984 117.233 341.055 116.811 341.779 116.422C341.999 116.304 342.186 116.189 342.339 116.087C338.529 112.326 334.644 111.405 331.686 111.422C330.137 111.431 328.831 111.698 327.916 111.962C327.703 112.023 327.511 112.085 327.343 112.142ZM343.268 116.154L343.691 116.602L344.141 116.178L343.715 115.729C339.496 111.286 335.068 110.17 331.679 110.189C329.994 110.199 328.574 110.489 327.574 110.777C327.074 110.922 326.677 111.066 326.402 111.176C326.265 111.23 326.158 111.277 326.083 111.31C326.046 111.327 326.017 111.34 325.997 111.35L325.972 111.362L325.965 111.365L325.962 111.366L325.961 111.367C325.961 111.367 325.961 111.367 326.234 111.92L325.961 111.367L325.193 111.747L325.797 112.354C331.098 117.686 335.527 118.848 338.708 118.578C340.286 118.445 341.52 117.961 342.363 117.508C342.785 117.281 343.109 117.061 343.332 116.895C343.443 116.812 343.529 116.743 343.589 116.692C343.619 116.667 343.643 116.646 343.66 116.631L343.68 116.612L343.687 116.606L343.689 116.604L343.69 116.603C343.691 116.603 343.691 116.602 343.268 116.154Z" fill="#FCBE42"/>
<path fill-rule="evenodd" clip-rule="evenodd" d="M355.351 84.728L355.413 85.3399C356.027 91.4321 353.969 95.4986 351.728 98.0378C350.614 99.3007 349.461 100.179 348.585 100.742C348.146 101.024 347.776 101.229 347.512 101.363C347.38 101.431 347.274 101.481 347.2 101.515C347.163 101.532 347.134 101.545 347.113 101.554L347.088 101.565L347.08 101.568L347.078 101.569L347.077 101.57C347.077 101.57 347.076 101.57 346.84 101L347.076 101.57L346.29 101.895L346.226 101.047C345.658 93.5593 347.68 89.462 349.973 87.2428C351.109 86.1429 352.285 85.5309 353.182 85.1937C353.63 85.0251 354.01 84.9248 354.282 84.8661C354.418 84.8367 354.527 84.8178 354.605 84.8059C354.643 84.7999 354.675 84.7957 354.697 84.7929L354.725 84.7897L354.734 84.7887L354.737 84.7884L354.738 84.7882C354.739 84.7882 354.739 84.7881 354.799 85.4017L354.739 84.7881L355.351 84.728ZM354.244 86.1442C354.064 86.193 353.852 86.259 353.616 86.3478C352.846 86.6373 351.823 87.1674 350.83 88.1287C348.951 89.9485 347.079 93.4123 347.397 100.023C347.553 99.9328 347.728 99.8273 347.918 99.7054C348.72 99.1895 349.78 98.3824 350.804 97.222C352.758 95.0074 354.607 91.4798 354.244 86.1442Z" fill="#FCBE42"/>
<path fill-rule="evenodd" clip-rule="evenodd" d="M95.9941 4.0307C97.9517 5.35787 99.1843 6.7104 99.9138 8.06886C100.641 9.42353 100.886 10.8176 100.818 12.2601C100.697 14.8025 99.6139 17.4403 98.4686 20.2301C98.2921 20.6601 98.1141 21.0937 97.9379 21.5311C97.3157 23.0761 96.6427 23.8664 95.964 24.3035C95.2784 24.7451 94.5164 24.8749 93.5904 24.9575C93.4358 24.9713 93.276 24.9838 93.1116 24.9966C92.3185 25.0584 91.4198 25.1284 90.4937 25.3981C89.3505 25.731 88.1651 26.363 86.9573 27.6182C85.7657 28.8565 85.1094 30.0291 84.8545 31.2049C84.5999 32.3797 84.7591 33.4982 85.0936 34.6016C85.3551 35.464 85.7361 36.3522 86.1261 37.2611C86.2279 37.4984 86.3303 37.7371 86.4314 37.9771C86.9266 39.1535 87.4083 40.402 87.7105 41.805C87.992 43.1121 87.7487 44.7447 87.0415 46.5087C86.3376 48.2645 85.1922 50.1037 83.7375 51.799C80.8167 55.2029 76.7319 57.935 72.6296 58.3198C70.6467 58.5037 69.0393 57.7882 67.6885 56.4583C66.3208 55.1118 65.2231 53.1384 64.3238 50.849C62.8424 47.0773 61.9522 42.5959 61.2303 38.9619C61.0747 38.1783 60.9268 37.4341 60.7826 36.7449L60.7813 36.7389C60.3714 34.8837 60.4541 33.5163 60.811 32.4942C61.1654 31.4794 61.8072 30.7554 62.6103 30.2115C63.4223 29.6616 64.3968 29.298 65.3982 29.0211C66.0339 28.8453 66.6377 28.7141 67.2146 28.5888C67.5686 28.512 67.9125 28.4373 68.2474 28.3558C70.0692 27.9127 71.5417 26.726 72.4267 24.8954C73.3056 23.0774 73.5938 20.6527 73.1348 17.715C72.701 14.9385 73.2255 13.3464 74.3526 12.4072C75.5335 11.423 77.5256 11.0137 80.3751 11.0137C81.8982 11.0137 82.9396 10.5955 83.5452 9.82473C84.139 9.06905 84.2061 8.10777 84.0973 7.26152C83.9873 6.40568 83.6857 5.56898 83.4217 4.95991C83.2884 4.65225 83.1616 4.39572 83.0677 4.21518C83.0206 4.1248 82.9817 4.05314 82.954 4.0033C82.9506 3.99724 82.9474 3.99148 82.9444 3.98606C82.7411 3.23464 82.9479 2.63746 83.4613 2.16845C84.0207 1.65737 84.9796 1.2744 86.2675 1.14669C88.8293 0.892618 92.4612 1.676 95.9941 4.0307ZM81.958 4.47838L81.9591 4.48034L81.9653 4.49108C81.971 4.50111 81.9799 4.51678 81.9915 4.53773C82.0148 4.57963 82.049 4.64254 82.0911 4.72341C82.1754 4.88539 82.2905 5.11815 82.4116 5.39765C82.6565 5.96292 82.9141 6.69198 83.0054 7.40191C83.0979 8.12142 83.0085 8.72592 82.6795 9.14456C82.3625 9.5481 81.7151 9.91279 80.3751 9.91279C77.4983 9.91279 75.151 10.3087 73.6478 11.5614C72.0906 12.859 71.5862 14.9352 72.0471 17.885C72.4828 20.6735 72.1895 22.8567 71.4355 24.4162C70.6876 25.9632 69.476 26.9239 67.9872 27.2861C67.7061 27.3544 67.3846 27.4246 67.0399 27.4997C66.4349 27.6317 65.7586 27.7792 65.1047 27.96C64.0537 28.2507 62.9481 28.6532 61.993 29.3C61.029 29.9528 60.2169 30.8561 59.7716 32.1312C59.3291 33.3984 59.2662 34.9827 59.7056 36.9735C59.8453 37.6409 59.9897 38.3685 60.1428 39.14C60.8637 42.7723 61.7776 47.3777 63.2991 51.2514C64.2229 53.6034 65.3899 55.7402 66.9161 57.2428C68.4592 58.762 70.3747 59.6346 72.7313 59.416C77.2181 58.9953 81.5441 56.0459 84.573 52.5159C86.0934 50.7441 87.3078 48.803 88.0634 46.9184C88.8157 45.042 89.1316 43.1741 88.7868 41.5732C88.4627 40.0684 87.949 38.7446 87.4461 37.55C87.337 37.291 87.2294 37.0399 87.1244 36.7951C86.7383 35.8946 86.3892 35.0803 86.1472 34.2822C85.8442 33.2829 85.7294 32.3659 85.9305 31.4381C86.1314 30.5114 86.6606 29.5142 87.7506 28.3815C88.8243 27.2657 89.8421 26.7345 90.8015 26.4551C91.6086 26.2201 92.3748 26.1596 93.1636 26.0973C93.3372 26.0836 93.5119 26.0699 93.6883 26.0541C94.6413 25.969 95.6352 25.8248 96.5601 25.229C97.4919 24.6289 98.284 23.6185 98.9591 21.9424C99.1293 21.5199 99.3041 21.0951 99.4795 20.6687C100.619 17.8997 101.787 15.0613 101.917 12.3124C101.994 10.7017 101.719 9.104 100.884 7.54802C100.05 5.99622 98.6776 4.51958 96.61 3.11821L96.6065 3.11585C92.8927 0.63996 89.0096 -0.231584 86.1588 0.0511385C84.7401 0.191837 83.5182 0.625311 82.7187 1.35565C81.8864 2.11604 81.5536 3.16659 81.905 4.35615L81.924 4.42049L81.958 4.47838Z" fill="#DB061F"/>
<path fill-rule="evenodd" clip-rule="evenodd" d="M88.2227 11.0265C88.2228 11.0262 88.2229 11.026 87.7121 10.8208C87.2013 10.6156 87.2012 10.6157 87.2011 10.616L87.0172 11.072C86.8965 11.3708 86.7185 11.8103 86.4897 12.3732C86.032 13.4988 85.3708 15.1175 84.5568 17.0891C82.9289 21.0324 80.6906 26.3866 78.2484 32.0308C75.806 37.6758 73.1613 43.6074 70.7205 48.7068C68.2738 53.8183 66.0492 58.0568 64.446 60.3407L65.3471 60.9732C67.0098 58.6045 69.2699 54.2872 71.7135 49.1821C74.1629 44.0648 76.8138 38.1189 79.2588 32.468C81.7042 26.8164 83.945 21.4562 85.5745 17.5092C86.3892 15.5356 87.0512 13.9151 87.5095 12.7878C87.7387 12.2242 87.917 11.7839 88.038 11.4844L88.2227 11.0265Z" fill="#DB061F"/>
<path d="M67.3139 6.97399C67.3139 6.97399 53.6246 5.6319 55.1456 13.0581C56.7561 20.5738 53.8035 21.9159 50.7615 23.258C47.7194 24.5106 41.2774 24.5106 43.3353 32.3842C45.3931 40.2577 49.5089 43.3893 47.8089 47.3261C46.1089 51.2628 44.4089 69.4258 51.5667 68.1731C58.7245 67.01 62.6613 57.347 63.1981 52.8734C63.735 48.3997 68.8349 45.1787 73.3085 43.7472C77.7821 42.3156 81.8979 37.2157 77.2453 32.921C72.5927 28.6263 72.1454 21.7369 75.1875 18.4265C78.14 15.116 76.5295 8.04766 67.3139 6.97399Z" fill="#FABC43"/>
<path fill-rule="evenodd" clip-rule="evenodd" d="M65.5515 15.7416C65.2548 15.6755 64.9606 15.8624 64.8945 16.1592L51.921 74.4057C51.8549 74.7025 52.0419 74.9966 52.3387 75.0627C52.6354 75.1288 52.9295 74.9418 52.9956 74.6451L65.9691 16.3985C66.0352 16.1018 65.8483 15.8077 65.5515 15.7416Z" fill="white"/>
<path fill-rule="evenodd" clip-rule="evenodd" d="M50.4844 29.0216C50.2581 29.2247 50.2393 29.5727 50.4424 29.799L59.837 40.2673C59.9854 40.4326 60.2186 40.4926 60.4283 40.4192L73.2229 35.9456C73.5098 35.8453 73.6611 35.5313 73.5608 35.2443C73.4605 34.9573 73.1465 34.806 72.8595 34.9064L60.4113 39.2589L51.2617 29.0637C51.0587 28.8374 50.7106 28.8186 50.4844 29.0216Z" fill="white"/>
<path fill-rule="evenodd" clip-rule="evenodd" d="M38.5555 84.3678C40.8001 84.2719 43.0275 84.4019 45.2082 84.7435L45.3682 83.7225C43.1208 83.3705 40.825 83.2364 38.5114 83.3354L38.5555 84.3678ZM28.7587 86.2594C29.8205 85.8872 30.8881 85.5708 31.9582 85.3088L31.7124 84.305C30.6103 84.5749 29.511 84.9006 28.418 85.2838C27.3231 85.6614 26.2589 86.088 25.2272 86.5604L25.6574 87.5C26.6591 87.0414 27.6925 86.6271 28.7562 86.2603L28.7587 86.2594ZM28.418 85.2838C28.4176 85.2839 28.4172 85.2841 28.4168 85.2842L28.5877 85.7718L28.4193 85.2833C28.4188 85.2835 28.4184 85.2836 28.418 85.2838ZM51.6588 86.4173C53.749 87.1854 55.7596 88.1572 57.6597 89.3174L58.1982 88.4355C56.2405 87.24 54.1689 86.2387 52.0153 85.4473L51.6588 86.4173ZM14.921 95.2844C16.418 93.6617 18.083 92.1763 19.9015 90.858L19.2949 90.0213C17.4204 91.3802 15.7043 92.9112 14.1615 94.5837L14.921 95.2844ZM62.9788 93.3321C64.6015 94.8291 66.0869 96.4941 67.4052 98.3126L68.2418 97.706C66.8829 95.8315 65.3519 94.1154 63.6795 92.5726L62.9788 93.3321ZM8.00623 106.604C8.77431 104.514 9.74607 102.504 10.9063 100.604L10.0244 100.065C8.82888 102.023 7.82764 104.094 7.03624 106.248L8.00623 106.604ZM70.7631 104.068C71.2218 105.07 71.6361 106.104 72.0029 107.167C72.3691 108.229 72.6798 109.297 72.9365 110.368L73.9414 110.126C73.677 109.024 73.357 107.924 72.9798 106.83C72.6021 105.735 72.1753 104.67 71.7027 103.638L70.7631 104.068ZM5.95671 119.708C5.86076 117.463 5.99078 115.236 6.33237 113.055L5.31141 112.895C4.95937 115.142 4.82535 117.438 4.92425 119.752L5.95671 119.708ZM73.8488 116.961C73.9367 119.203 73.8009 121.427 73.4557 123.605L74.4763 123.767C74.832 121.523 74.972 119.231 74.8814 116.921L73.8488 116.961ZM7.84833 129.505C7.47607 128.443 7.1597 127.375 6.89765 126.305L5.8939 126.551C6.16379 127.653 6.48952 128.752 6.87267 129.845C7.25028 130.94 7.67693 132.004 8.14935 133.036L9.08894 132.606C8.63029 131.604 8.21596 130.571 7.8492 129.507L7.84833 129.505ZM71.7778 130.047C71.0103 132.136 70.0413 134.145 68.8858 136.044L69.7687 136.581C70.959 134.625 71.9572 132.555 72.7478 130.404L71.7778 130.047ZM16.8733 143.342C15.2505 141.845 13.7652 140.18 12.4469 138.362L11.6102 138.968C12.9691 140.843 14.5001 142.559 16.1725 144.102L16.8733 143.342ZM64.8873 141.365C63.3954 142.991 61.7367 144.479 59.9259 145.8L60.5349 146.635C62.4016 145.274 64.1112 143.74 65.6488 142.064L64.8873 141.365ZM28.1932 150.257C26.1031 149.489 24.0924 148.517 22.1924 147.357L21.6538 148.239C23.6115 149.434 25.6832 150.436 27.8368 151.227L28.1932 150.257ZM54.1869 149.17C53.1873 149.63 52.1562 150.046 51.095 150.414L51.0934 150.415C50.0315 150.787 48.964 151.104 47.8939 151.366L48.1397 152.369C49.2417 152.099 50.3409 151.774 51.4339 151.391C51.4344 151.39 51.4348 151.39 51.4353 151.39L51.2644 150.903L51.4337 151.391C51.4337 151.391 51.4338 151.391 51.4339 151.391C52.5269 151.011 53.5893 150.583 54.6193 150.108L54.1869 149.17ZM41.2966 152.306C39.052 152.402 36.8245 152.272 34.6438 151.931L34.4839 152.952C36.7313 153.304 39.0271 153.438 41.3407 153.339L41.2966 152.306Z" fill="#DB061F"/>
<path d="M7.77516 124.498C4.77232 125.534 1.45883 123.98 0.319815 120.874C-0.715649 117.871 0.837546 114.558 3.94394 113.419C6.94678 112.383 10.2603 113.936 11.3993 117.043C12.4347 120.046 10.8816 123.359 7.77516 124.498Z" fill="#003FAE"/>
<path d="M6.5347 116.317L3.84248 120.045L8.08789 120.77L6.5347 116.317Z" fill="white"/>
<path d="M287.862 32.4083L285.229 27.7724C284.603 26.7073 283.223 26.3314 282.095 26.9579L280.591 27.835C279.65 28.3988 278.459 28.2735 277.644 27.5844C277.018 27.0832 276.391 26.582 275.701 26.1435C274.824 25.5797 274.447 24.452 274.761 23.4496L275.262 21.8208C275.638 20.6304 274.949 19.3775 273.695 19.0642L268.43 17.686C267.238 17.3727 265.922 18.1245 265.546 19.3148L265.044 20.9437C264.731 21.9461 263.791 22.6978 262.725 22.8231C261.91 22.8858 261.095 23.0111 260.28 23.1364C259.215 23.3243 258.149 22.8858 257.648 21.9461L256.833 20.5052C256.206 19.4401 254.827 19.0642 253.698 19.6907L248.871 22.3846C247.743 23.0111 247.304 24.3893 247.931 25.4544L248.746 26.8953C249.248 27.835 249.122 28.9627 248.37 29.7771C247.806 30.4036 247.304 31.0301 246.803 31.7192C246.176 32.5963 245.048 33.0348 243.982 32.7216L242.352 32.283C241.098 31.9698 239.845 32.7216 239.468 33.9119L237.901 39.1117C237.525 40.302 238.215 41.555 239.468 41.8682L241.098 42.3068C242.164 42.5574 242.916 43.4344 242.916 44.4995C242.979 45.3139 243.042 46.0657 243.167 46.8801C243.355 47.9451 242.791 49.0101 241.851 49.5113L240.346 50.3884C239.218 51.0149 238.842 52.3932 239.406 53.4582L242.039 58.0942C242.665 59.1592 244.045 59.5351 245.173 58.9086L246.677 58.0942C247.618 57.5303 248.809 57.6556 249.624 58.3447C250.251 58.8459 250.877 59.3471 251.567 59.7857C252.445 60.3495 252.821 61.4772 252.507 62.4795L252.006 64.1084C251.63 65.2987 252.319 66.5517 253.573 66.8649L258.839 68.1805C260.092 68.4938 261.346 67.742 261.722 66.5517L262.224 64.9228C262.537 63.9204 263.477 63.1687 264.543 63.0434C265.358 62.9807 266.173 62.8554 266.988 62.7301C268.053 62.5422 269.119 62.9807 269.621 63.9205L270.436 65.3614C271.062 66.4264 272.441 66.8023 273.57 66.1758L278.397 63.4819C279.525 62.8554 279.964 61.4772 279.337 60.4121L278.522 58.9712C278.021 58.0315 278.146 56.9038 278.898 56.0894C279.462 55.4629 279.964 54.8364 280.465 54.1473C281.092 53.2702 282.221 52.8317 283.286 53.1449L284.916 53.5835C286.107 53.8967 287.423 53.1449 287.8 51.9546L289.367 46.7548C289.743 45.5645 289.053 44.3115 287.8 43.9983L286.17 43.5597C285.104 43.3091 284.415 42.4321 284.352 41.3044C284.289 40.49 284.226 39.7382 284.101 38.9238C283.913 37.8587 284.415 36.7937 285.418 36.2925L286.922 35.4155C288.05 34.8516 288.426 33.4734 287.862 32.4083ZM270.498 52.957C263.979 57.2797 255.328 55.087 252.194 48.2584C249.686 42.9333 251.692 36.2925 256.833 32.9095C263.352 28.5868 272.003 30.7795 275.137 37.6081C277.582 42.9959 275.638 49.574 270.498 52.957Z" fill="#EE384E"/>
<path d="M200.31 222.365H161.373V256.518H200.31V222.365Z" fill="#033E9F"/>
<path d="M253.153 255.501H108.531V266.344H253.153V255.501Z" fill="#0064B5"/>
<path d="M253.153 263.227H108.531V266.344H253.153V263.227Z" fill="#033E9F"/>
<path d="M330.275 42.9358H30.8242V224.588H330.275V42.9358Z" fill="#0064B5"/>
<path d="M321.264 63.2537H40.4316V207.931H321.264V63.2537Z" fill="#E9EEF2"/>
<path d="M321.469 182.753H39.6328V208.074H321.469V182.753Z" fill="white"/>
<path d="M75.5279 193.443H45.5371V196.823H75.5279V193.443Z" fill="#626365"/>
<path d="M264.76 197.374H239.02V199.732H264.76V197.374Z" fill="#626365"/>
<path d="M253.898 190.299H249.805V193.836H253.898V190.299Z" fill="#626365"/>
<path d="M303.961 197.374H278.221V199.732H303.961V197.374Z" fill="#626365"/>
<path d="M293.099 190.299H289.006V193.836H293.099V190.299Z" fill="#626365"/>
<path d="M313.132 194.308C313.393 194.308 313.605 194.097 313.605 193.836C313.605 193.576 313.393 193.365 313.132 193.365C312.872 193.365 312.66 193.576 312.66 193.836C312.66 194.097 312.872 194.308 313.132 194.308Z" fill="#626365"/>
<path d="M313.132 195.723C313.393 195.723 313.605 195.512 313.605 195.251C313.605 194.991 313.393 194.78 313.132 194.78C312.872 194.78 312.66 194.991 312.66 195.251C312.66 195.512 312.872 195.723 313.132 195.723Z" fill="#626365"/>
<path d="M313.132 197.216C313.393 197.216 313.605 197.005 313.605 196.745C313.605 196.484 313.393 196.273 313.132 196.273C312.872 196.273 312.66 196.484 312.66 196.745C312.66 197.005 312.872 197.216 313.132 197.216Z" fill="#626365"/>
<path d="M164.163 202.247C167.989 202.247 171.09 199.15 171.09 195.33C171.09 191.51 167.989 188.413 164.163 188.413C160.338 188.413 157.236 191.51 157.236 195.33C157.236 199.15 160.338 202.247 164.163 202.247Z" fill="#DE051F"/>
<path d="M161.565 197.609C161.565 197.531 161.565 197.531 161.565 197.609C161.25 197.452 161.172 197.138 161.329 196.902C161.486 196.745 161.565 196.509 161.723 196.351C161.801 196.273 161.801 196.194 161.801 196.116C161.801 195.565 161.801 195.094 161.801 194.544C161.801 193.6 162.352 192.814 163.218 192.5C164.163 192.107 165.265 192.421 165.816 193.286C165.816 193.286 165.816 193.286 165.895 193.364C165.895 193.364 165.895 193.286 165.973 193.286C166.288 192.971 166.524 192.736 166.839 192.421C166.918 192.343 166.918 192.343 167.075 192.343C167.154 192.343 167.233 192.421 167.233 192.5C167.233 192.578 167.233 192.657 167.154 192.736C165.265 194.622 163.297 196.587 161.408 198.474L161.329 198.552C161.25 198.631 161.093 198.71 161.014 198.631C160.935 198.552 160.935 198.395 161.014 198.317C161.172 198.159 161.329 198.002 161.486 197.845C161.565 197.609 161.565 197.609 161.565 197.609ZM165.658 193.522C165.265 192.893 164.478 192.578 163.769 192.657C162.903 192.814 162.274 193.6 162.274 194.465C162.274 194.937 162.274 195.487 162.274 195.958C162.274 196.037 162.274 196.116 162.274 196.194C162.274 196.351 162.116 196.509 162.037 196.587C161.959 196.745 161.801 196.902 161.723 197.059C161.801 197.059 161.801 197.059 161.88 197.059C161.959 197.059 161.959 197.059 162.037 196.98C163.218 195.958 164.399 194.779 165.658 193.522Z" fill="white"/>
<path d="M165.264 197.609C165.106 198.238 164.555 198.553 164.083 198.474C163.611 198.474 163.139 198.16 163.06 197.609C162.981 197.609 162.902 197.609 162.902 197.609C162.981 197.531 163.06 197.452 163.139 197.373C163.217 197.295 163.296 197.216 163.375 197.138C163.453 197.138 163.532 197.138 163.69 197.138C164.634 197.138 165.579 197.138 166.523 197.138H166.602C166.602 197.059 166.523 197.059 166.523 196.98C166.445 196.823 166.287 196.666 166.208 196.509C166.13 196.352 166.051 196.194 166.051 195.959C166.051 195.487 166.051 194.937 166.051 194.465C166.051 194.465 166.051 194.386 166.13 194.386C166.208 194.229 166.366 194.151 166.523 193.993C166.523 194.072 166.523 194.229 166.523 194.308C166.523 194.858 166.523 195.408 166.523 195.88C166.523 196.037 166.523 196.116 166.602 196.194C166.759 196.352 166.838 196.587 166.996 196.745C167.074 196.902 167.074 197.059 166.996 197.216C166.917 197.373 166.759 197.452 166.602 197.452C166.13 197.609 165.736 197.609 165.264 197.609ZM163.532 197.609C163.611 197.845 163.926 198.081 164.162 198.081C164.398 198.081 164.713 197.845 164.792 197.609C164.319 197.609 163.926 197.609 163.532 197.609Z" fill="white"/>
<path fill-rule="evenodd" clip-rule="evenodd" d="M181.952 188.688C178.278 188.688 175.3 191.662 175.3 195.33C175.3 198.998 178.278 201.972 181.952 201.972C185.626 201.972 188.604 198.998 188.604 195.33C188.604 191.662 185.626 188.688 181.952 188.688ZM174.75 195.33C174.75 191.357 177.975 188.137 181.952 188.137C185.93 188.137 189.154 191.357 189.154 195.33C189.154 199.302 185.93 202.522 181.952 202.522C177.975 202.522 174.75 199.302 174.75 195.33Z" fill="#626365"/>
<path d="M184.471 196.902C184.314 196.902 184.157 196.823 183.999 196.745C183.842 196.666 183.606 196.509 183.448 196.43C183.212 196.273 183.055 196.037 183.055 195.723C183.055 195.644 183.055 195.566 183.055 195.566C182.346 195.172 181.638 195.172 180.929 195.566C180.929 195.644 180.929 195.723 180.929 195.801C180.929 196.116 180.772 196.352 180.536 196.509C180.378 196.587 180.221 196.666 180.063 196.745L179.906 196.823C179.591 196.98 179.198 196.98 178.961 196.745L178.804 196.587C178.646 196.43 178.646 196.273 178.646 196.037C178.646 195.88 178.646 195.723 178.646 195.644C178.646 195.487 178.725 195.33 178.804 195.172C178.961 195.015 179.198 194.858 179.355 194.701C180.221 194.151 181.165 193.836 182.189 193.915C183.291 193.993 184.314 194.465 185.101 195.251C185.259 195.408 185.259 195.566 185.259 195.723V196.194C185.259 196.352 185.259 196.43 185.18 196.587L185.101 196.666L184.944 196.823C184.865 196.823 184.865 196.902 184.786 196.902C184.708 196.823 184.629 196.902 184.471 196.902ZM181.953 194.858C182.425 194.858 182.818 194.937 183.291 195.172C183.369 195.251 183.448 195.33 183.448 195.408C183.448 195.487 183.448 195.566 183.448 195.644C183.448 195.801 183.527 195.959 183.684 196.037C183.842 196.116 184.078 196.273 184.235 196.352C184.393 196.43 184.55 196.43 184.708 196.352C184.708 196.352 184.786 196.352 184.786 196.273H184.865L184.944 196.194C184.944 196.116 185.022 196.116 185.022 196.037V195.566C185.022 195.487 185.022 195.408 184.944 195.408C184.235 194.701 183.291 194.229 182.267 194.229C181.323 194.151 180.457 194.386 179.67 194.937C179.434 195.094 179.276 195.251 179.119 195.408C179.04 195.487 179.04 195.487 179.04 195.566C179.04 195.723 179.04 195.88 179.04 195.959C179.04 196.037 179.04 196.116 179.119 196.194V196.273C179.276 196.43 179.512 196.43 179.67 196.352L179.827 196.273C179.985 196.194 180.142 196.116 180.221 196.037C180.378 195.959 180.457 195.801 180.457 195.644C180.457 195.566 180.457 195.487 180.457 195.408C180.457 195.251 180.536 195.172 180.614 195.172C181.087 194.937 181.559 194.858 181.953 194.858Z" fill="#DE051F"/>
<path d="M199.82 202.247C203.645 202.247 206.747 199.15 206.747 195.33C206.747 191.509 203.645 188.412 199.82 188.412C195.994 188.412 192.893 191.509 192.893 195.33C192.893 199.15 195.994 202.247 199.82 202.247Z" fill="#DE051F"/>
<path d="M197.537 197.452C197.064 197.373 196.828 197.059 196.828 196.666V194.072C196.828 193.6 197.143 193.286 197.615 193.286H200.843C201.315 193.286 201.63 193.6 201.63 194.072V194.465L202.811 193.836L203.283 193.6V197.059L203.125 196.98L202.26 196.509L201.709 196.194V196.273C201.709 196.43 201.709 196.587 201.709 196.745C201.709 197.059 201.472 197.295 201.158 197.452H201H197.537ZM197.615 193.758C197.379 193.758 197.3 193.836 197.3 194.072V196.666C197.3 196.902 197.379 196.98 197.615 196.98H200.843C201.079 196.98 201.158 196.902 201.158 196.666V194.072C201.158 193.836 201.079 193.758 200.843 193.758H197.615ZM201.63 195.015V195.33V195.644L202.338 196.037L202.732 196.273V194.386L201.63 195.015Z" fill="white"/>
<path d="M311.349 107.256H50.17C49.3041 107.256 48.5957 106.548 48.5957 105.683V95.1502C48.5957 94.2856 49.3041 93.5781 50.17 93.5781H311.349C312.215 93.5781 312.924 94.2856 312.924 95.1502V105.683C312.924 106.548 312.215 107.256 311.349 107.256Z" fill="white"/>
<path d="M123.141 102.382H92.4415C91.5756 102.382 90.8672 101.675 90.8672 100.81V100.495C90.8672 99.6308 91.5756 98.9233 92.4415 98.9233H123.141C124.007 98.9233 124.715 99.6308 124.715 100.495V100.81C124.715 101.675 124.007 102.382 123.141 102.382Z" fill="#DBE7F4"/>
<path d="M167.536 102.382H138.254C137.388 102.382 136.68 101.675 136.68 100.81V100.495C136.68 99.6308 137.388 98.9233 138.254 98.9233H167.536C168.402 98.9233 169.111 99.6308 169.111 100.495V100.81C169.111 101.675 168.402 102.382 167.536 102.382Z" fill="#78C8F2"/>
<path d="M213.347 102.382H184.065C183.199 102.382 182.49 101.675 182.49 100.81V100.495C182.49 99.6308 183.199 98.9233 184.065 98.9233H213.347C214.213 98.9233 214.921 99.6308 214.921 100.495V100.81C214.921 101.675 214.213 102.382 213.347 102.382Z" fill="#DBE7F4"/>
<path d="M258.452 102.382H229.17C228.304 102.382 227.596 101.675 227.596 100.81V100.495C227.596 99.6308 228.304 98.9233 229.17 98.9233H258.452C259.318 98.9233 260.027 99.6308 260.027 100.495V100.81C260.027 101.675 259.318 102.382 258.452 102.382Z" fill="#DBE7F4"/>
<path d="M304.974 102.382H275.692C274.826 102.382 274.117 101.675 274.117 100.81V100.495C274.117 99.6308 274.826 98.9233 275.692 98.9233H304.974C305.84 98.9233 306.548 99.6308 306.548 100.495V100.81C306.548 101.675 305.84 102.382 304.974 102.382Z" fill="#DBE7F4"/>
<path d="M130.46 170.543H50.0118C49.1459 170.543 48.4375 169.836 48.4375 168.971V119.371C48.4375 118.506 49.1459 117.799 50.0118 117.799H130.46C131.325 117.799 132.034 118.506 132.034 119.371V168.971C132.034 169.836 131.325 170.543 130.46 170.543Z" fill="white"/>
<path d="M125.894 148.533H55.4435C54.5776 148.533 53.8691 147.826 53.8691 146.961V123.694C53.8691 122.829 54.5776 122.122 55.4435 122.122H125.894C126.76 122.122 127.469 122.829 127.469 123.694V146.961C127.469 147.826 126.76 148.533 125.894 148.533Z" fill="#67C2EF"/>
<path d="M126.288 155.608H55.0499C54.4202 155.608 53.8691 155.058 53.8691 154.429C53.8691 153.8 54.4202 153.25 55.0499 153.25H126.288C126.918 153.25 127.469 153.8 127.469 154.429C127.469 155.058 126.918 155.608 126.288 155.608Z" fill="#DAE6F4"/>
<path d="M126.288 160.246H55.0499C54.4202 160.246 53.8691 159.696 53.8691 159.067C53.8691 158.438 54.4202 157.888 55.0499 157.888H126.288C126.918 157.888 127.469 158.438 127.469 159.067C127.469 159.696 126.918 160.246 126.288 160.246Z" fill="#DAE6F4"/>
<path d="M219.723 170.622H139.275C138.41 170.622 137.701 169.914 137.701 169.05V119.449C137.701 118.585 138.41 117.877 139.275 117.877H219.723C220.589 117.877 221.297 118.585 221.297 119.449V169.05C221.297 169.914 220.589 170.622 219.723 170.622Z" fill="white"/>
<path d="M215.158 148.612H144.707C143.841 148.612 143.133 147.905 143.133 147.04V123.773C143.133 122.908 143.841 122.2 144.707 122.2H215.158C216.024 122.2 216.732 122.908 216.732 123.773V147.04C216.732 147.905 216.024 148.612 215.158 148.612Z" fill="#EE384E"/>
<path d="M215.551 155.687H144.314C143.684 155.687 143.133 155.136 143.133 154.507C143.133 153.879 143.684 153.328 144.314 153.328H215.551C216.181 153.328 216.732 153.879 216.732 154.507C216.732 155.136 216.181 155.687 215.551 155.687Z" fill="#DAE6F4"/>
<path d="M215.551 160.324H144.314C143.684 160.324 143.133 159.774 143.133 159.145C143.133 158.517 143.684 157.966 144.314 157.966H215.551C216.181 157.966 216.732 158.517 216.732 159.145C216.732 159.774 216.181 160.324 215.551 160.324Z" fill="#DAE6F4"/>
<path d="M215.551 165.041H144.314C143.684 165.041 143.133 164.491 143.133 163.862C143.133 163.233 143.684 162.683 144.314 162.683H215.551C216.181 162.683 216.732 163.233 216.732 163.862C216.732 164.491 216.181 165.041 215.551 165.041Z" fill="#DAE6F4"/>
<path d="M310.877 170.622H230.508C229.642 170.622 228.934 169.914 228.934 169.05V119.449C228.934 118.585 229.642 117.877 230.508 117.877H310.956C311.821 117.877 312.53 118.585 312.53 119.449V169.05C312.451 169.914 311.743 170.622 310.877 170.622Z" fill="white"/>
<path d="M306.31 148.612H235.859C234.994 148.612 234.285 147.905 234.285 147.04V123.773C234.285 122.908 234.994 122.2 235.859 122.2H306.31C307.176 122.2 307.885 122.908 307.885 123.773V147.04C307.885 147.905 307.176 148.612 306.31 148.612Z" fill="#A1D2F0"/>
<path d="M306.704 155.687H235.466C234.836 155.687 234.285 155.136 234.285 154.507C234.285 153.879 234.836 153.328 235.466 153.328H306.704C307.334 153.328 307.885 153.879 307.885 154.507C307.885 155.136 307.334 155.687 306.704 155.687Z" fill="#DAE6F4"/>
<path d="M306.704 160.324H235.466C234.836 160.324 234.285 159.774 234.285 159.145C234.285 158.517 234.836 157.966 235.466 157.966H306.704C307.334 157.966 307.885 158.517 307.885 159.145C307.885 159.774 307.334 160.324 306.704 160.324Z" fill="#DAE6F4"/>
<path d="M306.704 165.041H235.466C234.836 165.041 234.285 164.491 234.285 163.862C234.285 163.233 234.836 162.683 235.466 162.683H306.704C307.334 162.683 307.885 163.233 307.885 163.862C307.885 164.491 307.334 165.041 306.704 165.041Z" fill="#DAE6F4"/>
<path d="M294.983 79.4236H77.9631C76.2313 79.4236 74.8145 80.8385 74.8145 82.5678C74.8145 84.2971 76.2313 85.712 77.9631 85.712H294.983C296.715 85.712 298.132 84.2971 298.132 82.5678C298.132 80.8385 296.715 79.4236 294.983 79.4236Z" fill="white"/>
<path d="M44.6673 84.0615L42.9355 82.3321L44.6673 80.76L44.9034 80.9958L43.4866 82.3321L44.9034 83.747L44.6673 84.0615Z" fill="#5F6367"/>
<path d="M43.2164 82.1751L43.2109 82.5681L46.2806 82.6105L46.286 82.2175L43.2164 82.1751Z" fill="#5F6367"/>
<path d="M52.8559 84.0615L52.541 83.747L53.9579 82.3321L52.541 80.9958L52.8559 80.76L54.5876 82.3321L52.8559 84.0615Z" fill="#5F6367"/>
<path d="M54.2688 82.1532L51.1992 82.1951L51.2046 82.5881L54.2742 82.5461L54.2688 82.1532Z" fill="#5F6367"/>
<path d="M70.2514 82.8824L68.6771 81.3102L67.2602 82.8824L66.9453 82.6465L68.6771 80.76L70.5662 82.5679L70.2514 82.8824Z" fill="#5F6367"/>
<path d="M60.8046 84.2187C59.7813 84.2187 58.9941 83.4326 58.9941 82.4107C58.9941 81.3888 59.7813 80.6028 60.8046 80.6028C61.1982 80.6028 61.6705 80.76 61.9853 80.9958L61.7492 81.3102C61.513 81.0744 61.1982 80.9958 60.8833 80.9958C60.0962 80.9958 59.4664 81.6247 59.4664 82.4107C59.4664 83.1968 60.0962 83.8256 60.8833 83.8256C61.5131 83.8256 61.9854 83.4326 62.2215 82.8824L62.6151 83.0396C62.3002 83.747 61.5918 84.2187 60.8046 84.2187Z" fill="#5F6367"/>
<path d="M70.0136 84.0613H67.416V82.0176H67.8096V83.6683H69.6201V82.0176H70.0136V84.0613Z" fill="#5F6367"/>
<path d="M61.2773 81.7819L62.4581 80.6028V81.8605L61.2773 81.7819Z" fill="#5F6367"/>
<path d="M303.407 81.546C303.25 81.3102 303.329 81.153 303.486 80.9958C303.644 80.9172 303.801 80.8386 303.958 80.9958C304.037 81.0744 304.116 81.153 304.116 81.2316C304.116 81.3102 304.116 81.3888 304.037 81.546C304.273 81.546 304.431 81.546 304.667 81.546C304.824 81.546 304.982 81.7033 304.982 81.8605C304.982 82.0963 304.982 82.2535 304.982 82.4893C304.982 82.4893 304.982 82.4893 304.982 82.5679C305.061 82.4893 305.218 82.4893 305.375 82.4893C305.454 82.4893 305.533 82.5679 305.533 82.6465C305.612 82.8037 305.612 82.961 305.533 83.1182C305.375 83.2754 305.218 83.2754 304.982 83.1968C304.982 83.1968 304.982 83.1968 304.982 83.2754C304.982 83.5112 304.982 83.6684 304.982 83.9042C304.982 84.14 304.824 84.2186 304.667 84.2186C304.431 84.2186 304.273 84.2186 304.037 84.2186C304.116 84.14 304.116 83.9828 304.116 83.8256C304.116 83.747 304.037 83.6684 303.958 83.6684C303.801 83.5898 303.644 83.5898 303.486 83.747C303.407 83.8256 303.329 84.0614 303.407 84.2973C303.171 84.2973 302.935 84.2973 302.778 84.2973C302.62 84.2973 302.463 84.14 302.463 83.9828C302.463 83.747 302.463 83.5898 302.463 83.354C302.463 83.354 302.463 83.354 302.463 83.2754C302.542 83.354 302.699 83.354 302.778 83.354C302.856 83.354 302.935 83.2754 303.014 83.1968C303.093 83.0395 303.093 82.8823 303.014 82.7251C302.935 82.6465 302.856 82.5679 302.778 82.5679C302.699 82.5679 302.62 82.5679 302.463 82.6465C302.463 82.4107 302.463 82.1749 302.463 81.9391C302.463 81.7819 302.542 81.7033 302.699 81.6246H302.778C302.935 81.546 303.171 81.546 303.407 81.546Z" fill="#5F6367"/>
<path d="M312.932 85.5548C314.671 85.5548 316.08 84.1471 316.08 82.4106C316.08 80.6741 314.671 79.2664 312.932 79.2664C311.193 79.2664 309.783 80.6741 309.783 82.4106C309.783 84.1471 311.193 85.5548 312.932 85.5548Z" fill="#DE051F"/>
<path d="M312.695 80.76H313.246L314.427 83.9042H313.797L313.482 83.1182H312.38L312.065 83.9042H311.436L312.695 80.76ZM313.403 82.7252L312.931 81.4675L312.459 82.7252H313.403Z" fill="white"/>
<path d="M130.232 81.4673H80.5625V83.8255H130.232V81.4673Z" fill="#626365"/>
<path d="M321.468 68.2571H40.7324V74.8626H321.468V68.2571Z" fill="#5F6367"/>
<path d="M46.6373 71.7157C46.6373 72.6589 45.8502 73.445 44.9056 73.445C43.961 73.445 43.1738 72.6589 43.1738 71.7157C43.1738 70.7724 43.961 69.9863 44.9056 69.9863C45.8502 69.9863 46.6373 70.7724 46.6373 71.7157Z" fill="#FF6158"/>
<path d="M53.6432 71.7157C53.6432 72.6589 52.856 73.445 51.9114 73.445C50.9668 73.445 50.1797 72.6589 50.1797 71.7157C50.1797 70.7724 50.9668 69.9863 51.9114 69.9863C52.856 69.9863 53.6432 70.7724 53.6432 71.7157Z" fill="#FFBF3D"/>
<path d="M60.649 71.7157C60.649 72.6589 59.8619 73.445 58.9173 73.445C57.9727 73.445 57.1855 72.6589 57.1855 71.7157C57.1855 70.7724 57.9727 69.9863 58.9173 69.9863C59.8619 69.9863 60.649 70.7724 60.649 71.7157Z" fill="#1ECA4D"/>
<path d="M46.0546 178.696H51.3209L57.0655 178.379C57.0655 178.379 57.7042 181.877 54.3531 182.354C51.002 182.672 45.8952 183.467 45.2575 183.308C43.98 182.99 46.0546 178.696 46.0546 178.696Z" fill="#FBBE9B"/>
<path d="M42.0628 153.255C42.0628 153.255 47.4885 158.661 47.9668 161.683C48.9244 164.704 47.0092 168.997 46.5309 170.428C46.211 171.7 46.3714 188.078 46.3714 188.078H24.8281V153.096L42.0628 153.255Z" fill="#0064E1"/>
<path d="M54.8304 136.877C54.8304 136.877 54.5115 141.011 53.3944 143.715V145.781C53.3944 145.941 53.235 146.1 53.0756 146.1L51.7982 145.941V147.69C51.7982 147.848 51.6387 148.007 51.4793 148.007H50.3623C50.2028 148.007 50.0434 148.167 50.0434 148.326L50.2028 149.28C50.2028 149.439 50.2028 149.598 49.8839 149.598C48.9263 149.757 47.4904 149.916 45.4158 148.485C43.3412 147.054 42.0648 147.848 42.0648 149.12C42.0648 150.393 43.1818 154.368 41.4261 155.481C39.9901 156.435 35.5221 155.8 34.5645 154.845C33.4473 153.732 34.5645 151.188 36.0004 149.757C37.1174 148.644 38.7137 136.718 41.1072 135.605C43.1818 135.128 54.8304 136.877 54.8304 136.877Z" fill="#FBBC98"/>
<path d="M29.7758 170.27L29.6161 177.584C29.6161 178.22 29.9353 178.697 30.7332 178.697C31.5311 178.697 32.0098 178.697 33.446 178.061C36.7973 176.789 44.9353 172.337 45.8929 171.542C45.8929 171.542 46.0524 171.542 46.0524 171.383C46.2118 171.064 47.3288 169.475 49.7233 169.633C52.7545 169.792 53.3932 170.588 53.0743 171.383C52.9149 172.337 52.4356 172.337 52.4356 172.337L52.7545 172.973C52.7545 172.973 52.4356 173.927 50.9997 173.927C49.7233 173.927 47.9675 173.29 47.6486 173.768C47.3288 174.086 34.2439 182.672 31.212 184.74C30.8928 184.898 30.2545 185.057 29.7758 185.375C27.8608 185.694 23.2331 186.488 22.7544 183.309C21.7969 179.333 21.7969 170.588 21.7969 170.588L29.7758 170.27Z" fill="#FBBE9B"/>
<path d="M29.7758 157.072C30.0949 156.912 30.7332 157.072 30.7332 157.39V170.746C30.7332 171.064 30.5736 171.383 30.0949 171.383C29.6162 171.383 28.8183 171.383 27.3821 171.383C25.148 171.383 23.2331 171.383 22.116 171.383C21.7969 171.383 21.7969 171.224 21.7969 171.064L21.9565 161.842C21.9565 161.683 21.9565 161.524 22.116 161.524L29.7758 157.072Z" fill="#0054A3"/>
<path d="M14.297 162.955C13.18 158.821 20.6801 152.938 20.6801 152.938C20.6801 152.938 24.1908 151.666 24.8291 147.531C25.4675 143.397 29.4569 142.125 31.2122 140.694C32.9676 139.262 34.2442 135.605 34.2442 135.605L34.4041 134.651C34.4041 134.651 37.4353 121.612 47.4895 124.951C47.4895 124.951 52.117 126.701 54.0322 130.199C54.0322 130.199 60.7343 131.312 59.2975 136.559C58.021 141.807 54.8294 138.627 54.8294 138.627C54.8294 138.627 53.5529 135.923 52.117 137.673C50.6811 139.581 47.3291 140.853 46.3725 138.944C45.2554 137.036 43.1808 135.923 42.7015 138.627V139.899C42.7015 139.899 37.5957 146.259 37.2759 148.326C36.6381 150.553 35.3616 153.733 32.808 155.005C30.4144 156.436 27.7015 162.001 26.4249 165.181C24.8292 168.52 15.5737 169.316 14.297 162.955Z" fill="#1F1952"/>
<path d="M65.2034 163.273L78.2888 163.433L62.0117 181.559L48.6074 180.924L65.2034 163.273Z" fill="#1C164F"/>
<path d="M65.9993 176.47C65.9993 176.47 67.2767 178.856 66.1597 179.651C64.8823 180.287 63.7653 180.605 63.1275 179.809C62.6482 179.174 62.1699 177.107 62.9681 177.424C63.6058 177.424 63.9257 177.583 63.9257 177.583V176.948C63.9257 176.789 63.9257 176.629 64.0851 176.629C64.7229 176.153 65.8399 175.676 65.9993 176.47Z" fill="#FBBE9B"/>
<path d="M42.9798 188.078H46.5313V290.64L38.3923 290.958L34.084 223.697L42.9798 188.078Z" fill="#DE051F"/>
<path d="M24.5099 187.627C24.5099 187.627 24.6696 191.894 24.5099 193.485C24.3504 194.439 19.4035 202.389 23.2334 212.248C23.2334 212.407 23.2334 212.566 23.3929 212.884C23.3929 215.11 24.0312 228.467 21.3184 235.304L6.79688 282.689L12.3821 286.665C12.3821 286.665 31.5313 245.64 32.01 243.732C32.4888 241.824 45.095 201.594 43.3402 190.463V187.627H24.5099Z" fill="#EE384E"/>
<path d="M46.5316 290.64C46.5316 290.64 51.6374 293.343 53.8715 293.979C55.6272 294.297 55.9461 295.728 56.1055 296.205C56.1055 296.364 56.1055 296.523 55.9461 296.523H38.3926V290.799L46.5316 290.64Z" fill="#221D56"/>
<path d="M12.2236 286.188C12.2236 286.188 13.6598 290.322 16.8513 292.867C20.0428 295.252 16.8513 297 16.8513 297L3.76597 288.891C3.60643 288.573 2.80857 287.141 3.76597 285.87C4.72346 284.439 6.79797 282.213 6.79797 282.213L12.2236 286.188Z" fill="#221D56"/>
<path d="M66.4767 252.007C66.4767 252.007 69.376 250.868 69.1689 247.554C68.9618 244.241 67.305 241.963 70.7221 242.894C74.2426 243.826 75.3816 244.241 77.9703 243.723C80.559 243.205 82.6299 242.17 81.4909 245.38C80.3519 248.693 79.2129 251.489 81.8015 252.007C84.3902 252.524 87.2895 250.557 87.6001 255.734C87.9108 260.912 83.7689 266.71 77.0384 266.917C70.3079 267.124 67.305 264.329 67.305 264.329C67.305 264.329 65.5448 261.74 68.3405 261.119C71.1363 260.497 74.0356 259.255 72.5859 258.012C71.1363 256.666 66.4767 256.563 66.4767 256.563C66.4767 256.563 60.5745 255.424 66.4767 252.007Z" fill="#649CE8"/>
<path d="M97.2287 252.835C96.7109 249.521 97.1251 247.139 103.234 246.311C109.344 245.379 112.968 249.107 113.278 252.835C113.693 256.562 108.308 258.012 108.308 258.012C108.308 258.012 104.58 259.047 106.444 262.361C108.308 265.674 109.24 268.884 104.891 269.298C100.542 269.816 95.779 268.677 93.0868 266.917C90.3946 265.157 87.7024 260.704 90.8088 258.322C90.8088 258.322 91.6372 257.701 94.5365 257.598C97.5393 257.494 97.2287 252.835 97.2287 252.835Z" fill="#023E9F"/>
<path fill-rule="evenodd" clip-rule="evenodd" d="M75.2188 252.525L75.6914 252.317C76.1641 252.108 76.1642 252.108 76.1642 252.108L76.1681 252.117L76.1794 252.143L76.2226 252.242C76.2604 252.329 76.3158 252.458 76.3864 252.624C76.5275 252.956 76.7297 253.438 76.9743 254.041C77.4636 255.247 78.1235 256.938 78.8063 258.875C80.1678 262.739 81.636 267.631 82.0046 271.632L80.9755 271.727C80.6193 267.859 79.1882 263.069 77.8316 259.219C77.1553 257.3 76.5015 255.625 76.0167 254.43C75.7744 253.832 75.5745 253.355 75.4353 253.028C75.3658 252.864 75.3114 252.738 75.2745 252.653L75.2326 252.557L75.2221 252.533L75.2188 252.525Z" fill="#023E9F"/>
<path fill-rule="evenodd" clip-rule="evenodd" d="M103.535 253.892C103.536 253.892 103.536 253.892 103.964 254.181C104.392 254.469 104.392 254.47 104.392 254.47L104.291 254.62C104.225 254.719 104.127 254.864 104.002 255.051C103.752 255.424 103.393 255.963 102.955 256.623C102.079 257.943 100.889 259.75 99.6352 261.696C97.1177 265.602 94.3703 270.021 93.353 272.208L92.416 271.773C93.4697 269.507 96.262 265.022 98.7665 261.136C100.024 259.186 101.216 257.375 102.093 256.052C102.532 255.39 102.893 254.85 103.143 254.476C103.269 254.289 103.367 254.143 103.433 254.043L103.535 253.892Z" fill="#649CE8"/>
<path d="M78.3856 270.748H98.9913C98.9913 270.748 101.269 270.955 101.062 273.958C100.855 276.754 97.3346 276.133 95.4707 276.133C93.6069 276.133 77.9714 276.133 77.9714 276.133C77.9714 276.133 75.4863 276.547 75.4863 273.648C75.3827 270.852 76.3147 270.748 78.3856 270.748Z" fill="#0055A2"/>
<path d="M77.9727 276.237L81.079 294.461H94.9543L97.3358 280.793L77.9727 276.237Z" fill="#0055A2"/>
<path d="M77.9727 276.237L97.3358 280.793L98.1642 276.237H77.9727Z" fill="#016AD3"/>
<path fill-rule="evenodd" clip-rule="evenodd" d="M87.3914 271.499L86.8754 271.473C86.3594 271.447 86.3594 271.447 86.3594 271.446L86.3602 271.431L86.3626 271.386C86.3648 271.346 86.3681 271.288 86.3727 271.211C86.3818 271.058 86.396 270.832 86.4161 270.541C86.4564 269.958 86.5206 269.112 86.6164 268.058C86.8081 265.95 87.1263 263.008 87.633 259.669C88.6445 253.003 90.4136 244.71 93.4499 238.323L94.3832 238.767C91.4138 245.013 89.6623 253.184 88.6547 259.824C88.1518 263.138 87.8358 266.059 87.6456 268.151C87.5505 269.197 87.4869 270.036 87.4471 270.612C87.4272 270.9 87.4132 271.123 87.4043 271.273C87.3998 271.348 87.3966 271.405 87.3945 271.443L87.3921 271.486L87.3914 271.499Z" fill="#FABC43"/>
<path d="M98.8849 231.194C98.8849 231.194 99.4027 237.406 93.2934 239.788C93.2934 239.788 92.0509 234.507 98.8849 231.194Z" fill="#FABC43"/>
<path d="M89.7754 250.971C89.7754 250.971 92.0534 245.69 98.8875 246.415C98.8875 246.415 98.3697 251.696 89.7754 250.971Z" fill="#FABC43"/>
<path d="M87.498 264.329C87.498 264.329 88.637 258.737 95.5746 258.012C95.5746 258.012 96.0924 263.293 87.498 264.329Z" fill="#FABC43"/>
<path d="M87.2916 264.328C87.2916 264.328 88.12 258.633 81.8036 255.734C81.8036 255.734 79.5256 260.497 87.2916 264.328Z" fill="#FABC43"/>
<path d="M89.88 250.971C89.88 250.971 91.4332 245.379 85.5311 241.755C85.5311 241.652 82.7353 246.208 89.88 250.971Z" fill="#FABC43"/>
<path d="M354.056 104.489L348.258 106.145L349.915 111.944L355.713 110.287L354.056 104.489Z" fill="#033E9F"/>
<path d="M312.521 285.56C312.521 285.56 316.934 285.78 320.243 285.78C323.442 285.78 328.627 286.442 328.627 286.442C328.627 286.442 329.95 286.442 330.061 288.097C330.171 289.751 330.171 290.413 330.171 290.413C330.171 290.413 330.281 292.399 328.737 292.399C327.193 292.399 317.265 293.502 315.058 293.502C312.852 293.502 311.198 293.943 311.198 292.399C311.087 290.854 310.977 285.449 312.521 285.56Z" fill="#160856"/>
<path d="M316.161 238.457C316.161 238.457 319.029 254.452 319.249 258.754C319.47 262.946 319.911 266.255 317.153 267.91C314.396 269.565 309.763 271.109 309.763 271.109L304.137 242.428V239.119L316.161 238.457Z" fill="#FDBD97"/>
<path d="M267.072 237.464C267.072 237.464 265.527 244.744 265.086 248.385C264.645 252.025 263.652 259.195 263.542 260.85C263.432 262.505 263.211 265.262 266.189 267.469C269.168 269.564 272.477 270.778 272.477 270.778L278.654 237.464H267.072Z" fill="#FDBD97"/>
<path d="M289.025 214.409C289.025 214.409 289.025 217.718 287.591 219.152C286.157 220.586 284.281 223.013 284.281 223.013C284.281 223.013 287.591 228.308 294.32 227.536C300.938 226.874 302.152 222.02 302.152 222.02C302.152 222.02 295.864 221.138 295.092 215.181C294.43 209.224 293.437 209.224 293.437 209.224L289.025 214.409Z" fill="#FDAE7D"/>
<path d="M284.17 201.172C284.17 201.172 284.391 208.783 288.031 214.74C291.561 220.697 295.863 217.387 297.628 214.299C299.283 211.21 303.805 201.172 302.923 198.524C301.93 195.877 288.803 194.663 288.803 194.663L284.17 201.172Z" fill="#FDBD97"/>
<path d="M301.049 205.474C301.049 205.474 302.925 204.04 302.925 205.474C302.925 206.908 301.932 209.004 300.829 209.335C299.615 209.556 299.836 208.894 300.167 207.901C300.387 206.908 301.049 205.474 301.049 205.474Z" fill="#FDBD97"/>
<path d="M284.722 208.563C285.273 208.783 285.825 208.894 285.825 208.121C285.825 206.687 284.832 204.591 283.729 204.261C282.516 204.04 282.736 204.702 283.067 205.695C283.178 206.026 283.288 206.356 283.398 206.798C283.619 207.46 284.281 208.342 284.722 208.563Z" fill="#FDBD97"/>
<path d="M284.504 204.702L284.283 202.275C284.283 202.275 286.379 202.495 288.806 200.179C288.806 200.179 293.439 201.282 297.189 200.841C301.161 200.51 302.815 199.407 302.815 199.407C302.815 199.407 302.153 203.929 301.491 205.253C301.491 205.253 303.367 204.481 304.139 202.275C304.801 200.179 304.691 197.862 304.691 197.862C304.691 197.862 307.338 195.766 308 193.34C308 193.34 300.83 191.685 298.734 190.251C296.638 188.817 295.424 187.824 295.424 187.824C295.424 187.824 292.115 185.949 288.806 188.486C285.496 191.133 283.29 192.567 283.29 197.09C283.18 197.2 280.091 201.503 284.504 204.702Z" fill="#160856"/>
<path d="M285.053 220.586C285.053 220.586 280.53 220.035 277.993 220.697C275.566 221.359 274.794 220.917 275.456 222.793C276.117 224.668 279.427 233.382 277.882 238.788C276.338 244.193 274.242 272.212 274.242 272.212C274.242 272.212 291.23 272.874 297.738 273.205C304.357 273.536 309.211 272.322 309.211 272.322C309.211 272.322 310.645 260.298 309.211 255.003C307.777 249.819 305.901 240.884 305.901 240.884C305.901 240.884 304.688 228.639 306.343 225.661C307.997 222.682 309.211 222.572 307.115 221.8C305.019 221.028 302.702 220.366 300.937 220.366C299.283 220.366 298.4 220.366 297.408 221.359C296.415 222.351 294.429 224.337 291.671 223.896C288.914 223.454 286.818 221.579 286.818 221.579C286.818 221.579 285.825 220.697 285.053 220.586Z" fill="#0181F7"/>
<path d="M277.001 221.579C277.001 221.579 275.457 220.807 273.14 222.792C270.603 224.999 268.838 229.632 267.956 232.5C267.073 235.368 266.521 238.236 266.521 238.236C266.521 238.236 269.721 239.891 273.14 240.001C276.449 240.111 278.656 240.332 278.656 240.332C278.656 240.332 280.09 231.617 279.759 227.756C279.318 223.895 278.766 222.572 277.001 221.579Z" fill="#023E9F"/>
<path d="M305.019 224.778C305.019 224.778 306.342 221.138 309.321 222.792C312.299 224.447 314.505 230.845 315.278 232.831C315.939 234.816 316.822 238.898 316.822 238.898C316.822 238.898 313.292 240.442 310.203 240.663C307.225 240.883 305.129 241.104 305.129 241.104C305.129 241.104 303.916 233.162 304.136 230.073C304.357 226.984 305.019 224.778 305.019 224.778Z" fill="#023E9F"/>
<path d="M280.42 274.749H303.254L291.451 278.39L280.42 274.749Z" fill="#BA0A28"/>
<path d="M260.123 268.241C260.123 268.241 301.82 281.257 310.976 284.456C310.976 284.456 313.955 285.229 314.065 286.773C314.175 288.317 313.844 290.524 313.513 291.627C313.182 292.73 312.19 293.612 310.535 293.281C308.88 292.95 271.485 285.449 256.703 281.588L252.511 280.265C252.511 280.265 249.423 278.831 249.974 275.08C250.526 271.329 253.284 267.91 255.269 267.689C257.255 267.579 260.123 268.241 260.123 268.241Z" fill="#EC384E"/>
<path d="M256.373 286.773C256.373 286.773 261.558 285.891 264.757 285.78C267.846 285.67 272.038 285.339 272.699 285.78C273.361 286.222 273.913 292.289 273.913 292.289C273.913 292.289 274.464 293.943 270.383 293.612C266.301 293.282 256.815 292.951 256.815 292.951C256.815 292.951 254.719 292.84 254.608 290.965C254.498 289.09 254.829 288.207 254.829 288.207C254.829 288.207 254.939 286.994 256.373 286.773Z" fill="#160856"/>
<path d="M281.191 281.478C281.191 281.478 306.453 273.756 315.498 271.109C324.544 268.461 329.508 266.034 332.486 270.226C335.354 274.418 335.134 279.161 331.824 280.485C328.515 281.809 302.151 287.986 291.23 290.193C280.309 292.399 273.139 293.833 272.146 293.392C271.153 292.95 270.05 289.751 270.271 287.986C270.491 286.221 270.602 285.559 272.697 284.677C274.793 283.684 281.191 281.478 281.191 281.478Z" fill="#DB061F"/>
<path d="M278.326 244.634H308.772C308.772 244.634 310.427 244.413 310.427 246.62C310.427 248.826 310.427 272.874 310.427 272.874C310.427 272.874 310.537 274.639 309.213 274.639C307.89 274.639 273.473 274.639 273.473 274.639C273.473 274.639 272.038 275.08 272.038 272.653C272.038 270.226 272.038 245.958 272.038 245.958C272.038 245.958 271.928 244.634 273.693 244.634C275.348 244.634 278.326 244.634 278.326 244.634Z" fill="#0064B5"/>
<path d="M293.106 259.526L290.9 257.761L289.135 259.967L291.341 261.732L293.106 259.526Z" fill="#579CD2"/>
</svg>
