<svg width="408" height="341" viewBox="0 0 408 341" fill="none" xmlns="http://www.w3.org/2000/svg">
<path d="M176.023 10.1334L170.59 4.68408L165.156 10.1334L170.59 15.5828L176.023 10.1334Z" fill="#EE384E"/>
<path d="M12.1873 281.185L6.75391 275.736L1.32056 281.185L6.75391 286.635L12.1873 281.185Z" fill="#EE384E"/>
<path d="M371.867 150.449L366.434 145L361 150.449L366.434 155.899L371.867 150.449Z" fill="#003EB0"/>
<path fill-rule="evenodd" clip-rule="evenodd" d="M107.885 49.1969C108.415 49.1871 108.947 49.1821 109.48 49.1821C110.012 49.1821 110.544 49.1871 111.075 49.1969L111.065 49.7221C110.538 49.7123 110.009 49.7074 109.48 49.7074C108.95 49.7074 108.422 49.7123 107.894 49.7221L107.885 49.1969ZM101.541 49.5496C102.593 49.4518 103.65 49.3732 104.712 49.3142L104.742 49.8387C103.686 49.8973 102.635 49.9754 101.59 50.0727L101.541 49.5496ZM114.247 49.3142C115.309 49.3732 116.366 49.4518 117.418 49.5496L117.369 50.0727C116.324 49.9754 115.274 49.8973 114.218 49.8387L114.247 49.3142ZM95.2388 50.3755C96.2799 50.199 97.3275 50.0416 98.3811 49.9035L98.4493 50.4244C97.4022 50.5616 96.3612 50.718 95.3266 50.8934L95.2388 50.3755ZM120.578 49.9035C121.632 50.0416 122.679 50.199 123.721 50.3755L123.633 50.8934C122.598 50.718 121.557 50.5616 120.51 50.4244L120.578 49.9035ZM89.0181 51.6729C90.0443 51.4181 91.0777 51.182 92.1182 50.965L92.2254 51.4793C91.1915 51.6949 90.1644 51.9295 89.1447 52.1827L89.0181 51.6729ZM126.841 50.965C127.882 51.182 128.915 51.4181 129.941 51.6729L129.815 52.1827C128.795 51.9295 127.768 51.6949 126.734 51.4793L126.841 50.965ZM82.9115 53.437C83.9153 53.1054 84.9274 52.792 85.9474 52.4974L86.0932 53.002C85.0796 53.2948 84.0738 53.6062 83.0763 53.9358L82.9115 53.437ZM133.012 52.4974C134.032 52.792 135.044 53.1054 136.048 53.437L135.883 53.9358C134.885 53.6062 133.88 53.2948 132.866 53.002L133.012 52.4974ZM76.9573 55.657C77.9339 55.2502 78.9197 54.8612 79.9143 54.4904L80.0978 54.9826C79.1094 55.3511 78.1298 55.7377 77.1593 56.1419L76.9573 55.657ZM139.045 54.4904C140.04 54.8612 141.025 55.2502 142.002 55.657L141.8 56.1419C140.83 55.7377 139.85 55.3511 138.862 54.9826L139.045 54.4904ZM71.1859 58.3206C72.1292 57.8413 73.0828 57.3792 74.046 56.9346L74.2662 57.4115C73.3089 57.8533 72.3613 58.3126 71.4238 58.7889L71.1859 58.3206ZM144.913 56.9346C145.877 57.3792 146.83 57.8413 147.773 58.3206L147.536 58.7889C146.598 58.3126 145.65 57.8533 144.693 57.4115L144.913 56.9346ZM65.6327 61.4097C66.5376 60.8609 67.4537 60.3285 68.3803 59.813L68.6357 60.272C67.7148 60.7843 66.8044 61.3134 65.9051 61.8589L65.6327 61.4097ZM150.579 59.813C151.506 60.3285 152.422 60.8609 153.327 61.4097L153.054 61.8589C152.155 61.3134 151.245 60.7843 150.324 60.272L150.579 59.813ZM60.325 64.9071C61.1868 64.2918 62.0606 63.6923 62.9459 63.1089L63.2349 63.5475C62.3551 64.1273 61.4867 64.7231 60.6302 65.3346L60.325 64.9071ZM156.013 63.1089C156.899 63.6923 157.772 64.2918 158.634 64.9071L158.329 65.3346C157.473 64.7231 156.604 64.1273 155.724 63.5475L156.013 63.1089ZM161.186 66.8017C162.025 67.4492 162.851 68.1122 163.665 68.7901L163.329 69.1937C162.52 68.5199 161.699 67.8611 160.865 67.2175L161.186 66.8017ZM55.2941 68.7901C56.1078 68.1122 56.9344 67.4492 57.7733 66.8017L58.0943 67.2175C57.2605 67.8611 56.4391 68.5199 55.6304 69.1937L55.2941 68.7901ZM166.069 70.8696C166.857 71.5777 167.632 72.3003 168.394 73.037L168.028 73.4145C167.272 72.6823 166.501 71.9641 165.718 71.2604L166.069 70.8696ZM50.5657 73.0371C51.3271 72.3003 52.1021 71.5777 52.8904 70.8696L53.2414 71.2604C52.4579 71.9641 51.6877 72.6823 50.9311 73.4145L50.5657 73.0371ZM170.636 75.2893C171.369 76.0538 172.088 76.832 172.793 77.6234L172.401 77.9727C171.7 77.1861 170.986 76.4127 170.257 75.653L170.636 75.2893ZM46.1661 77.6234C46.8708 76.832 47.59 76.0538 48.3234 75.2893L48.7024 75.653C47.9736 76.4127 47.2588 77.1861 46.5585 77.9727L46.1661 77.6234ZM174.862 80.0363C175.537 80.8528 176.196 81.6821 176.84 82.5239L176.423 82.8431C175.783 82.0065 175.127 81.1823 174.457 80.3708L174.862 80.0363ZM42.1193 82.5239C42.7633 81.6821 43.4227 80.8528 44.097 80.0363L44.502 80.3708C43.8319 81.1823 43.1766 82.0065 42.5365 82.8431L42.1193 82.5239ZM38.4481 87.7116C39.0279 86.8239 39.6239 85.9477 40.2355 85.0834L40.6643 85.3869C40.0564 86.2458 39.4642 87.1166 38.8879 87.9989L38.4481 87.7116ZM178.724 85.0834C179.335 85.9477 179.931 86.8239 180.511 87.7116L180.071 87.9989C179.495 87.1166 178.903 86.2458 178.295 85.3869L178.724 85.0834ZM35.1733 93.159C35.6854 92.2302 36.2143 91.3122 36.7596 90.4051L37.2098 90.6758C36.6679 91.5772 36.1422 92.4896 35.6333 93.4126L35.1733 93.159ZM182.2 90.4051C182.745 91.3122 183.274 92.2303 183.786 93.159L183.326 93.4126C182.817 92.4896 182.291 91.5772 181.749 90.6758L182.2 90.4051ZM32.3151 98.8346C32.7565 97.8698 33.2153 96.9147 33.6912 95.9697L34.1604 96.206C33.6875 97.1451 33.2315 98.0943 32.7928 99.0531L32.3151 98.8346ZM185.268 95.9698C185.744 96.9147 186.203 97.8698 186.644 98.8346L186.166 99.0531C185.728 98.0943 185.272 97.1452 184.799 96.206L185.268 95.9698ZM29.8892 104.711C30.2572 103.715 30.6433 102.728 31.047 101.75L31.5326 101.95C31.1314 102.922 30.7477 103.903 30.382 104.893L29.8892 104.711ZM187.912 101.75C188.316 102.728 188.702 103.715 189.07 104.711L188.577 104.893C188.212 103.903 187.828 102.922 187.427 101.95L187.912 101.75ZM27.9121 110.749C28.2044 109.728 28.5152 108.715 28.8441 107.711L29.3434 107.874C29.0165 108.872 28.7076 109.879 28.4171 110.893L27.9121 110.749ZM190.115 107.711C190.444 108.715 190.755 109.728 191.047 110.749L190.542 110.893C190.252 109.879 189.943 108.872 189.616 107.874L190.115 107.711ZM26.3925 116.923C26.6076 115.882 26.8417 114.848 27.0944 113.821L27.6045 113.947C27.3534 114.967 27.1207 115.994 26.9069 117.029L26.3925 116.923ZM191.865 113.821C192.118 114.848 192.352 115.882 192.567 116.923L192.052 117.029C191.839 115.994 191.606 114.967 191.355 113.947L191.865 113.821ZM25.3401 123.187C25.477 122.133 25.633 121.085 25.808 120.044L26.326 120.131C26.1522 121.166 25.997 122.207 25.861 123.254L25.3401 123.187ZM193.151 120.044C193.326 121.085 193.482 122.133 193.619 123.187L193.098 123.254C192.962 122.207 192.807 121.166 192.633 120.131L193.151 120.044ZM24.7559 129.518C24.8144 128.456 24.8923 127.399 24.9893 126.347L25.5124 126.395C25.416 127.441 25.3385 128.491 25.2804 129.547L24.7559 129.518ZM193.97 126.347C194.067 127.399 194.145 128.456 194.203 129.518L193.679 129.547C193.621 128.491 193.543 127.441 193.447 126.396L193.97 126.347ZM24.625 134.286C24.625 133.753 24.6299 133.221 24.6396 132.691L25.1648 132.7C25.1552 133.228 25.1503 133.756 25.1503 134.286C25.1503 134.815 25.1552 135.344 25.1648 135.871L24.6396 135.88C24.6299 135.35 24.625 134.818 24.625 134.286ZM194.32 132.691C194.329 133.221 194.334 133.753 194.334 134.286C194.334 134.818 194.329 135.35 194.32 135.88L193.794 135.871C193.804 135.344 193.809 134.815 193.809 134.286C193.809 133.756 193.804 133.228 193.794 132.7L194.32 132.691ZM24.9893 142.224C24.8923 141.172 24.8144 140.115 24.7559 139.053L25.2804 139.024C25.3385 140.08 25.416 141.13 25.5124 142.176L24.9893 142.224ZM194.203 139.053C194.145 140.115 194.067 141.172 193.97 142.224L193.447 142.176C193.543 141.13 193.621 140.08 193.679 139.024L194.203 139.053ZM25.8079 148.527C25.633 147.486 25.477 146.438 25.3401 145.384L25.861 145.317C25.997 146.364 26.1521 147.405 26.326 148.44L25.8079 148.527ZM193.619 145.385C193.482 146.438 193.326 147.486 193.151 148.527L192.633 148.44C192.807 147.405 192.962 146.364 193.098 145.317L193.619 145.385ZM27.0944 154.75C26.8417 153.723 26.6076 152.689 26.3925 151.648L26.9069 151.542C27.1207 152.577 27.3534 153.604 27.6045 154.625L27.0944 154.75ZM192.567 151.649C192.352 152.69 192.118 153.724 191.865 154.75L191.355 154.625C191.606 153.604 191.839 152.577 192.052 151.542L192.567 151.649ZM28.8441 160.861C28.5152 159.856 28.2044 158.843 27.9121 157.823L28.4171 157.678C28.7076 158.692 29.0164 159.699 29.3433 160.697L28.8441 160.861ZM191.047 157.823C190.755 158.843 190.444 159.856 190.115 160.861L189.616 160.697C189.943 159.699 190.252 158.692 190.542 157.678L191.047 157.823ZM31.047 166.821C30.6433 165.843 30.2572 164.856 29.8892 163.861L30.3819 163.678C30.7477 164.668 31.1313 165.649 31.5325 166.621L31.047 166.821ZM189.07 163.861C188.702 164.856 188.316 165.843 187.912 166.821L187.427 166.621C187.828 165.649 188.212 164.668 188.577 163.679L189.07 163.861ZM33.6912 172.601C33.2153 171.656 32.7565 170.701 32.3151 169.737L32.7928 169.518C33.2315 170.477 33.6874 171.426 34.1604 172.365L33.6912 172.601ZM186.644 169.737C186.203 170.701 185.744 171.656 185.268 172.601L184.799 172.365C185.272 171.426 185.728 170.477 186.166 169.518L186.644 169.737ZM36.7596 178.166C36.2143 177.259 35.6854 176.341 35.1733 175.412L35.6333 175.159C36.1422 176.082 36.6679 176.994 37.2098 177.895L36.7596 178.166ZM183.786 175.412C183.274 176.341 182.745 177.259 182.2 178.166L181.749 177.895C182.291 176.994 182.817 176.082 183.326 175.159L183.786 175.412ZM40.2355 183.488C39.6239 182.623 39.0279 181.747 38.4481 180.86L38.8879 180.572C39.4642 181.455 40.0564 182.325 40.6643 183.184L40.2355 183.488ZM180.511 180.86C179.931 181.747 179.335 182.623 178.724 183.488L178.295 183.184C178.903 182.325 179.495 181.455 180.071 180.572L180.511 180.86ZM44.097 188.535C43.4227 187.718 42.7633 186.889 42.1193 186.047L42.5365 185.728C43.1766 186.565 43.8319 187.389 44.502 188.2L44.097 188.535ZM176.84 186.047C176.196 186.889 175.537 187.718 174.862 188.535L174.457 188.2C175.127 187.389 175.783 186.565 176.423 185.728L176.84 186.047ZM48.3234 193.282C47.59 192.517 46.8708 191.739 46.1661 190.948L46.5585 190.598C47.2588 191.385 47.9736 192.158 48.7025 192.918L48.3234 193.282ZM172.793 190.948C172.088 191.739 171.369 192.517 170.636 193.282L170.257 192.918C170.986 192.158 171.7 191.385 172.401 190.598L172.793 190.948ZM168.394 195.534C167.632 196.271 166.857 196.993 166.069 197.702L165.718 197.311C166.501 196.607 167.272 195.889 168.028 195.157L168.394 195.534ZM52.8904 197.702C52.1021 196.993 51.3271 196.271 50.5658 195.534L50.9311 195.157C51.6877 195.889 52.458 196.607 53.2414 197.311L52.8904 197.702ZM57.7733 201.769C56.9344 201.122 56.1078 200.459 55.2941 199.781L55.6304 199.377C56.4391 200.051 57.2605 200.71 58.0943 201.354L57.7733 201.769ZM163.665 199.781C162.851 200.459 162.025 201.122 161.186 201.769L160.865 201.354C161.699 200.71 162.52 200.051 163.329 199.377L163.665 199.781ZM62.9459 205.462C62.0606 204.879 61.1868 204.279 60.325 203.664L60.6302 203.237C61.4867 203.848 62.3551 204.444 63.2349 205.024L62.9459 205.462ZM158.634 203.664C157.772 204.279 156.899 204.879 156.013 205.462L155.724 205.024C156.604 204.444 157.473 203.848 158.329 203.237L158.634 203.664ZM68.3803 208.758C67.4537 208.243 66.5376 207.71 65.6327 207.161L65.9051 206.712C66.8044 207.258 67.7148 207.787 68.6357 208.299L68.3803 208.758ZM153.327 207.161C152.422 207.71 151.506 208.243 150.579 208.758L150.324 208.299C151.245 207.787 152.155 207.258 153.054 206.712L153.327 207.161ZM74.046 211.637C73.0828 211.192 72.1292 210.73 71.1858 210.251L71.4238 209.782C72.3613 210.259 73.3089 210.718 74.2661 211.16L74.046 211.637ZM147.773 210.251C146.83 210.73 145.877 211.192 144.913 211.637L144.693 211.16C145.65 210.718 146.598 210.259 147.536 209.782L147.773 210.251ZM79.9142 214.081C78.9196 213.71 77.9339 213.321 76.9573 212.914L77.1593 212.429C78.1297 212.833 79.1094 213.22 80.0978 213.589L79.9142 214.081ZM142.002 212.914C141.025 213.321 140.04 213.71 139.045 214.081L138.862 213.589C139.85 213.22 140.83 212.833 141.8 212.429L142.002 212.914ZM85.9474 216.074C84.9274 215.779 83.9153 215.466 82.9115 215.134L83.0763 214.635C84.0738 214.965 85.0796 215.276 86.0932 215.569L85.9474 216.074ZM136.048 215.134C135.044 215.466 134.032 215.779 133.012 216.074L132.866 215.569C133.88 215.276 134.885 214.965 135.883 214.635L136.048 215.134ZM92.1182 217.606C91.0777 217.389 90.0442 217.153 89.0181 216.898L89.1447 216.388C90.1644 216.642 91.1914 216.876 92.2254 217.092L92.1182 217.606ZM129.941 216.898C128.915 217.153 127.882 217.389 126.841 217.606L126.734 217.092C127.768 216.876 128.795 216.642 129.815 216.388L129.941 216.898ZM98.381 218.668C97.3274 218.53 96.2799 218.372 95.2388 218.196L95.3266 217.678C96.3612 217.853 97.4022 218.01 98.4493 218.147L98.381 218.668ZM123.72 218.196C122.679 218.372 121.632 218.53 120.578 218.668L120.51 218.147C121.557 218.01 122.598 217.853 123.633 217.678L123.72 218.196ZM104.712 219.257C103.65 219.198 102.593 219.119 101.541 219.022L101.59 218.498C102.635 218.596 103.686 218.674 104.741 218.732L104.712 219.257ZM117.418 219.022C116.366 219.119 115.309 219.198 114.247 219.257L114.218 218.732C115.274 218.674 116.324 218.596 117.369 218.498L117.418 219.022ZM109.48 219.389C108.947 219.389 108.415 219.384 107.885 219.374L107.894 218.849C108.422 218.859 108.95 218.864 109.48 218.864C110.009 218.864 110.538 218.859 111.065 218.849L111.075 219.374C110.544 219.384 110.012 219.389 109.48 219.389Z" fill="#2626DB"/>
<path d="M29.6468 121.532C37.571 121.532 43.9948 115.09 43.9948 107.142C43.9948 99.1947 37.571 92.752 29.6468 92.752C21.7226 92.752 15.2988 99.1947 15.2988 107.142C15.2988 115.09 21.7226 121.532 29.6468 121.532Z" fill="#003EB0"/>
<path fill-rule="evenodd" clip-rule="evenodd" d="M31.528 103.54L32.4828 114.736L31.436 114.825L30.6227 105.289L24.1332 109.096L23.6016 108.189L31.528 103.54Z" fill="white"/>
<path d="M56.5752 129.375C56.5752 129.375 77.4512 123.237 77.1792 135.377C76.9072 147.517 81.8032 148.812 86.9032 149.904C92.0032 150.995 101.931 149.153 100.979 161.907C100.027 174.66 94.5872 180.866 98.3952 186.459C102.203 192.051 110.091 219.809 98.6672 220.013C87.2432 220.218 78.3352 206.373 76.1592 199.553C73.9832 192.733 65.1432 189.187 57.7992 188.232C50.4552 187.277 42.6352 180.457 48.5512 172.478C54.4672 164.498 53.1752 153.655 47.5992 149.358C42.0232 145.266 42.4992 133.74 56.5752 129.375Z" fill="#FCBE42"/>
<path d="M29.1709 197.098C29.1709 197.098 25.4989 187.141 17.2029 189.528C8.90686 191.915 5.37086 204.395 11.0829 209.51C16.7949 214.625 22.2349 212.648 21.6229 218.445C21.0109 224.242 21.7589 240.678 29.9189 240.678C38.0789 240.678 40.8669 232.085 49.2989 239.314C57.7309 246.543 54.2629 265.093 70.1069 260.456C85.9509 255.818 110.363 241.019 90.8469 221.855C71.3309 202.622 68.8829 228.061 58.1389 209.92C47.3949 191.778 43.8589 202.281 37.0589 203.236C30.2589 204.191 29.1709 197.098 29.1709 197.098Z" fill="#023EA1"/>
<path fill-rule="evenodd" clip-rule="evenodd" d="M98.4857 242.517C98.4859 242.518 98.486 242.518 98.2588 242.656C98.1607 242.715 98.105 242.749 98.0733 242.768C98.0315 242.793 98.0314 242.793 98.0313 242.793L98.0306 242.792L98.015 242.766L97.9652 242.685C97.9211 242.613 97.855 242.505 97.7678 242.364C97.5933 242.082 97.3341 241.666 96.9952 241.13C96.3174 240.057 95.3213 238.503 94.0485 236.581C91.5029 232.738 87.851 227.423 83.4263 221.537C74.5734 209.761 62.641 195.72 50.2969 186.604L50.6127 186.177C63.0205 195.339 74.9902 209.431 83.8512 221.217C88.2836 227.113 91.9416 232.437 94.4917 236.288C95.7668 238.213 96.765 239.77 97.4446 240.846C97.7844 241.384 98.0446 241.801 98.2199 242.085C98.3075 242.226 98.374 242.334 98.4185 242.407L98.4689 242.49L98.4849 242.516L98.4857 242.517Z" fill="#EB4B57"/>
<path fill-rule="evenodd" clip-rule="evenodd" d="M53.2965 188.302C53.2965 188.302 53.2966 188.302 53.0391 188.368L53.2966 188.302L53.3723 188.597L53.0695 188.632C45.8705 189.461 40.8663 186.694 37.6686 183.721C36.0719 182.236 34.9255 180.7 34.1781 179.535C33.8042 178.952 33.5297 178.462 33.3482 178.116C33.2574 177.943 33.1898 177.806 33.1447 177.712C33.1221 177.664 33.1052 177.628 33.0937 177.603L33.0806 177.574L33.0772 177.566L33.0762 177.564L33.0759 177.563C33.0758 177.563 33.0757 177.563 33.3191 177.456L33.0757 177.563L32.9199 177.208L33.3072 177.191C41.7416 176.812 46.7451 179.566 49.6395 182.442C51.0832 183.877 51.9957 185.337 52.5479 186.439C52.824 186.99 53.0103 187.452 53.1279 187.778C53.1868 187.942 53.2285 188.071 53.2557 188.16C53.2693 188.205 53.2793 188.239 53.286 188.263L53.2936 188.291L53.2957 188.299L53.2963 188.301L53.2965 188.302ZM33.7349 177.706C33.7601 177.756 33.7881 177.81 33.8189 177.869C33.9941 178.203 34.2609 178.68 34.6255 179.248C35.355 180.385 36.4739 181.884 38.0306 183.331C41.0927 186.179 45.8486 188.83 52.6905 188.139C52.6726 188.085 52.6518 188.025 52.6279 187.959C52.5165 187.65 52.3383 187.207 52.0726 186.677C51.541 185.616 50.6601 184.206 49.2647 182.819C46.5266 180.098 41.7828 177.438 33.7349 177.706Z" fill="#EB4B57"/>
<path fill-rule="evenodd" clip-rule="evenodd" d="M71.5651 205.961C71.5653 205.961 71.5655 205.962 71.3985 206.168L71.5655 205.962L71.8512 206.192L71.5426 206.392C63.5725 211.538 57.9148 211.72 54.2256 210.565C52.3865 209.99 51.0524 209.086 50.177 208.325C49.7393 207.945 49.4159 207.6 49.2009 207.348C49.0933 207.222 49.0128 207.12 48.9586 207.048C48.9315 207.012 48.9109 206.983 48.8968 206.963L48.8805 206.94L48.876 206.934L48.8746 206.931L48.8741 206.931C48.874 206.931 48.8738 206.93 49.0945 206.782L48.8738 206.93L48.7266 206.711L48.9448 206.562C55.2675 202.255 60.9204 202.092 64.9974 203.019C67.0321 203.482 68.6702 204.215 69.8004 204.832C70.3657 205.141 70.8046 205.421 71.1032 205.626C71.2526 205.728 71.3669 205.811 71.4445 205.869C71.4833 205.898 71.5129 205.92 71.5332 205.936L71.5565 205.954L71.5628 205.959L71.5646 205.961L71.5651 205.961ZM49.4752 206.846C55.5703 202.781 60.9817 202.651 64.8795 203.538C66.8568 203.987 68.4487 204.699 69.5455 205.299C70.0937 205.598 70.5176 205.869 70.8033 206.064C70.8491 206.096 70.8914 206.125 70.9301 206.152C63.2294 211.032 57.8378 211.139 54.3843 210.058C52.6279 209.508 51.3567 208.647 50.5258 207.924C50.1103 207.563 49.8052 207.237 49.6051 207.003C49.5553 206.944 49.5121 206.892 49.4752 206.846Z" fill="#EB4B57"/>
<path fill-rule="evenodd" clip-rule="evenodd" d="M89.759 229.39C89.7591 229.39 89.7592 229.39 89.5553 229.561L89.7592 229.39L89.9946 229.672L89.6536 229.808C80.8619 233.307 75.2851 232.382 71.8923 230.527C70.2012 229.603 69.0673 228.455 68.3555 227.537C67.9996 227.078 67.749 226.676 67.5865 226.387C67.5053 226.242 67.446 226.126 67.4067 226.044C67.387 226.004 67.3723 225.972 67.3623 225.949L67.3508 225.923L67.3476 225.916L67.3467 225.914L67.3464 225.913C67.3462 225.913 67.3461 225.913 67.5913 225.81L67.3461 225.913L67.2441 225.669L67.4868 225.565C74.4975 222.567 80.066 223.511 83.8838 225.218C85.7891 226.069 87.2547 227.109 88.2446 227.936C88.7397 228.35 89.1164 228.711 89.3702 228.97C89.4972 229.1 89.5934 229.203 89.6584 229.276C89.6909 229.312 89.7156 229.34 89.7324 229.359L89.7518 229.382L89.757 229.388L89.7585 229.39L89.759 229.39ZM67.9524 225.946C67.9797 225.999 68.0122 226.059 68.05 226.126C68.2013 226.395 68.4377 226.775 68.7757 227.211C69.4515 228.083 70.5319 229.178 72.1473 230.061C75.323 231.797 80.6238 232.744 89.0992 229.455C89.0662 229.42 89.0301 229.383 88.9907 229.342C88.7478 229.095 88.3839 228.746 87.9037 228.344C86.9429 227.541 85.5184 226.531 83.6668 225.703C80.0168 224.071 74.6921 223.143 67.9524 225.946Z" fill="#EB4B57"/>
<path fill-rule="evenodd" clip-rule="evenodd" d="M91.6553 207.488C87.3254 213.413 86.9632 218.832 87.6825 222.779C88.047 224.779 88.6901 226.405 89.2417 227.53C89.5174 228.093 89.7699 228.529 89.9527 228.824C89.9821 228.872 90.0098 228.916 90.0354 228.956C95.2647 221.46 95.6174 216.05 94.6865 212.536C94.2131 210.75 93.404 209.438 92.7114 208.578C92.365 208.148 92.0484 207.833 91.819 207.628C91.7574 207.573 91.7025 207.527 91.6553 207.488ZM90.0305 229.425L89.8164 229.582L90.0343 229.878L90.2472 229.579C95.7543 221.825 96.1946 216.153 95.2004 212.4C94.7048 210.53 93.8565 209.152 93.1253 208.245C92.7598 207.791 92.423 207.454 92.1727 207.231C92.0478 207.12 91.9431 207.036 91.8659 206.979C91.8279 206.951 91.7933 206.927 91.7643 206.91C91.7511 206.902 91.7317 206.891 91.7101 206.881C91.7009 206.877 91.6784 206.868 91.6493 206.862C91.635 206.859 91.6064 206.855 91.5705 206.858C91.5359 206.861 91.4665 206.875 91.4063 206.936L91.3927 206.949L91.3813 206.964C86.811 213.099 86.4081 218.751 87.1595 222.874C87.5345 224.932 88.1961 226.605 88.7644 227.764C89.0486 228.344 89.3098 228.796 89.5008 229.104C89.5963 229.258 89.6743 229.377 89.7288 229.457C89.7561 229.497 89.7775 229.528 89.7924 229.549L89.8096 229.573L89.8143 229.579L89.8157 229.581L89.8162 229.582C89.8163 229.582 89.8164 229.582 90.0305 229.425Z" fill="#EB4B57"/>
<path fill-rule="evenodd" clip-rule="evenodd" d="M70.2059 183.925L70.2033 183.93C70.2024 183.931 70.2014 183.933 70.2004 183.935C70.2024 183.932 70.2042 183.928 70.2059 183.925ZM70.3173 183.728C70.376 183.771 70.4474 183.823 70.5291 183.886C70.7895 184.085 71.1543 184.385 71.5654 184.795C72.3874 185.615 73.394 186.878 74.1198 188.669C75.5758 192.263 75.8778 197.922 71.4307 206.293L71.2577 206.619L71.0035 206.352L71.196 206.168C71.0035 206.352 71.0033 206.352 71.0032 206.351L71.0027 206.351L71.0011 206.349L70.9955 206.343L70.9754 206.322C70.958 206.303 70.9329 206.275 70.9007 206.238C70.8365 206.166 70.7442 206.058 70.63 205.917C70.4017 205.635 70.0856 205.22 69.7307 204.68C69.0211 203.6 68.1548 202.022 67.5254 200.025C66.2649 196.025 65.9612 190.358 69.7361 183.676C69.7479 183.653 69.7635 183.631 69.7837 183.611L71.1687 182.222L70.3173 183.728ZM71.141 205.702C75.3444 197.623 74.9909 192.235 73.6271 188.869C72.9334 187.156 71.9723 185.951 71.1899 185.171C70.7988 184.781 70.4523 184.497 70.2061 184.308C70.1505 184.266 70.1001 184.228 70.0552 184.195C66.5115 190.624 66.828 196.043 68.0325 199.865C68.6441 201.807 69.4863 203.34 70.1749 204.388C70.5191 204.911 70.8246 205.313 71.0431 205.583C71.078 205.626 71.1107 205.665 71.141 205.702Z" fill="#EB4B57"/>
<path fill-rule="evenodd" clip-rule="evenodd" d="M61.9785 143.112C62.1136 143.054 62.2696 143.117 62.327 143.252L99.183 230.139C99.2403 230.274 99.1772 230.43 99.0421 230.488C98.9069 230.545 98.7509 230.482 98.6936 230.347L61.8376 143.46C61.7803 143.325 61.8433 143.169 61.9785 143.112Z" fill="white"/>
<path fill-rule="evenodd" clip-rule="evenodd" d="M33.2113 214.452C33.2694 214.317 33.4258 214.255 33.5606 214.313L33.4553 214.557L33.35 214.801C33.2153 214.743 33.1531 214.587 33.2113 214.452ZM98.6128 266.383C98.6128 266.383 98.6128 266.383 98.6128 266.383C98.6472 266.525 98.7905 266.614 98.9331 266.58C99.0759 266.546 99.164 266.402 99.1298 266.259L98.8713 266.321C99.1298 266.259 99.1299 266.26 99.1298 266.259L99.1295 266.258L99.129 266.256L99.1276 266.25L99.1226 266.232C99.1207 266.225 99.1184 266.216 99.1157 266.207C99.1122 266.195 99.108 266.181 99.1031 266.165C99.0853 266.108 99.0575 266.024 99.0157 265.913C98.9321 265.691 98.7927 265.36 98.5667 264.912C98.1149 264.016 97.3161 262.653 95.9235 260.759C93.1385 256.972 87.9737 251.059 78.4446 242.526C68.904 233.982 57.6821 226.93 48.8506 222.015C44.4338 219.557 40.6126 217.632 37.8951 216.321C36.5364 215.666 35.4535 215.164 34.7099 214.826C34.3381 214.657 34.0512 214.529 33.857 214.443C33.7599 214.4 33.686 214.368 33.6362 214.346L33.5799 214.322L33.5606 214.313C33.5604 214.313 33.5606 214.313 33.4553 214.557C33.35 214.801 33.3499 214.801 33.35 214.801L33.3682 214.809L33.4234 214.833C33.4724 214.855 33.5455 214.887 33.6418 214.929C33.8345 215.015 34.1198 215.142 34.4899 215.31C35.2301 215.647 36.3094 216.147 37.6642 216.8C40.3741 218.107 44.1859 220.027 48.5921 222.479C57.4065 227.385 68.5906 234.415 78.09 242.922C87.6009 251.439 92.7382 257.325 95.4952 261.074C96.8735 262.948 97.6558 264.287 98.0921 265.152C98.3103 265.584 98.4418 265.897 98.5182 266.1C98.5563 266.202 98.5807 266.275 98.5952 266.322C98.6024 266.345 98.6071 266.362 98.6099 266.372L98.6128 266.383Z" fill="white"/>
<path fill-rule="evenodd" clip-rule="evenodd" d="M305.189 166.666C305.939 166.642 306.693 166.629 307.449 166.629C308.205 166.629 308.958 166.642 309.709 166.666L309.685 167.407C308.942 167.383 308.197 167.37 307.449 167.37C306.701 167.37 305.955 167.383 305.213 167.407L305.189 166.666ZM296.218 167.544C297.694 167.301 299.185 167.105 300.691 166.958L300.763 167.696C299.274 167.841 297.798 168.035 296.338 168.275L296.218 167.544ZM314.206 166.958C315.712 167.105 317.204 167.301 318.68 167.544L318.56 168.275C317.1 168.035 315.624 167.841 314.134 167.696L314.206 166.958ZM287.438 169.593C288.87 169.157 290.322 168.766 291.793 168.423L291.961 169.145C290.507 169.484 289.07 169.871 287.653 170.302L287.438 169.593ZM323.105 168.423C324.575 168.766 326.027 169.157 327.46 169.593L327.244 170.302C325.827 169.871 324.391 169.484 322.937 169.145L323.105 168.423ZM279.004 172.783C280.368 172.161 281.757 171.582 283.168 171.048L283.43 171.741C282.035 172.269 280.661 172.842 279.311 173.457L279.004 172.783ZM331.73 171.048C333.14 171.582 334.529 172.161 335.894 172.783L335.587 173.457C334.237 172.842 332.863 172.269 331.467 171.741L331.73 171.048ZM339.934 174.787C341.26 175.501 342.561 176.257 343.834 177.054L343.441 177.682C342.182 176.894 340.895 176.146 339.583 175.44L339.934 174.787ZM271.064 177.054C272.337 176.257 273.637 175.501 274.964 174.787L275.315 175.44C274.003 176.146 272.716 176.894 271.457 177.682L271.064 177.054ZM347.577 179.571C348.797 180.451 349.988 181.37 351.147 182.326L350.675 182.898C349.529 181.952 348.351 181.043 347.143 180.172L347.577 179.571ZM263.75 182.326C264.909 181.37 266.1 180.451 267.321 179.571L267.754 180.172C266.547 181.043 265.369 181.952 264.222 182.898L263.75 182.326ZM354.531 185.309C355.626 186.34 356.687 187.406 357.713 188.505L357.171 189.011C356.156 187.923 355.106 186.868 354.023 185.849L354.531 185.309ZM257.185 188.505C258.21 187.406 259.272 186.34 260.367 185.309L260.875 185.849C259.791 186.868 258.741 187.923 257.726 189.011L257.185 188.505ZM360.681 191.902C361.632 193.065 362.546 194.259 363.421 195.484L362.818 195.915C361.953 194.703 361.048 193.522 360.107 192.371L360.681 191.902ZM251.476 195.484C252.351 194.259 253.265 193.065 254.217 191.902L254.79 192.371C253.849 193.522 252.945 194.703 252.079 195.915L251.476 195.484ZM246.723 203.146C247.432 201.816 248.183 200.513 248.975 199.237L249.604 199.628C248.821 200.89 248.078 202.179 247.377 203.494L246.723 203.146ZM365.923 199.237C366.714 200.513 367.466 201.816 368.174 203.146L367.521 203.494C366.819 202.179 366.076 200.89 365.293 199.628L365.923 199.237ZM370.165 207.192C370.783 208.559 371.357 209.95 371.887 211.362L371.193 211.622C370.669 210.225 370.101 208.849 369.49 207.497L370.165 207.192ZM243.011 211.362C243.541 209.95 244.115 208.559 244.733 207.192L245.408 207.497C244.797 208.849 244.229 210.225 243.705 211.622L243.011 211.362ZM240.407 219.993C240.748 218.522 241.135 217.069 241.567 215.635L242.277 215.849C241.849 217.267 241.466 218.705 241.13 220.16L240.407 219.993ZM373.33 215.635C373.763 217.069 374.15 218.522 374.49 219.993L373.768 220.16C373.431 218.705 373.049 217.267 372.621 215.849L373.33 215.635ZM238.955 228.893C239.1 227.387 239.295 225.895 239.536 224.419L240.267 224.538C240.029 225.999 239.837 227.475 239.692 228.964L238.955 228.893ZM375.362 224.419C375.603 225.895 375.797 227.387 375.943 228.893L375.205 228.964C375.061 227.475 374.869 225.999 374.631 224.538L375.362 224.419ZM238.629 235.651C238.629 234.894 238.641 234.141 238.665 233.391L239.406 233.415C239.382 234.157 239.37 234.902 239.37 235.651C239.37 236.399 239.382 237.144 239.406 237.887L238.665 237.91C238.641 237.16 238.629 236.407 238.629 235.651ZM376.232 233.391C376.257 234.141 376.269 234.894 376.269 235.651C376.269 236.407 376.257 237.16 376.232 237.91L375.492 237.887C375.516 237.144 375.528 236.399 375.528 235.651C375.528 234.902 375.516 234.157 375.492 233.415L376.232 233.391ZM239.536 246.882C239.295 245.406 239.1 243.914 238.955 242.408L239.692 242.337C239.837 243.827 240.029 245.302 240.267 246.763L239.536 246.882ZM375.943 242.408C375.797 243.914 375.603 245.406 375.362 246.882L374.631 246.763C374.869 245.302 375.061 243.827 375.205 242.337L375.943 242.408ZM241.567 255.666C241.135 254.233 240.748 252.779 240.407 251.308L241.13 251.141C241.466 252.597 241.849 254.034 242.277 255.452L241.567 255.666ZM374.49 251.308C374.15 252.779 373.763 254.233 373.33 255.666L372.621 255.452C373.049 254.034 373.431 252.597 373.768 251.141L374.49 251.308ZM244.733 264.109C244.115 262.742 243.541 261.352 243.011 259.939L243.705 259.679C244.229 261.076 244.797 262.452 245.408 263.804L244.733 264.109ZM371.887 259.939C371.357 261.352 370.783 262.742 370.165 264.109L369.49 263.804C370.101 262.452 370.669 261.076 371.193 259.679L371.887 259.939ZM368.174 268.155C367.466 269.485 366.714 270.788 365.923 272.064L365.293 271.673C366.076 270.411 366.819 269.122 367.521 267.807L368.174 268.155ZM248.975 272.064C248.183 270.788 247.432 269.485 246.723 268.156L247.377 267.807C248.078 269.122 248.821 270.411 249.604 271.673L248.975 272.064ZM363.421 275.817C362.546 277.042 361.632 278.236 360.681 279.399L360.107 278.93C361.048 277.78 361.953 276.598 362.818 275.386L363.421 275.817ZM254.217 279.399C253.265 278.236 252.351 277.042 251.476 275.817L252.079 275.386C252.945 276.598 253.849 277.78 254.79 278.93L254.217 279.399ZM357.713 282.796C356.687 283.895 355.626 284.961 354.531 285.992L354.023 285.452C355.106 284.433 356.156 283.378 357.171 282.29L357.713 282.796ZM260.367 285.992C259.272 284.961 258.21 283.895 257.185 282.796L257.726 282.29C258.741 283.378 259.791 284.433 260.875 285.452L260.367 285.992ZM351.147 288.975C349.988 289.931 348.797 290.85 347.577 291.73L347.143 291.129C348.351 290.259 349.529 289.349 350.675 288.403L351.147 288.975ZM267.321 291.73C266.1 290.85 264.909 289.931 263.75 288.975L264.222 288.403C265.369 289.349 266.547 290.259 267.754 291.129L267.321 291.73ZM274.964 296.514C273.637 295.8 272.337 295.044 271.064 294.247L271.457 293.619C272.716 294.407 274.003 295.155 275.315 295.861L274.964 296.514ZM343.834 294.247C342.561 295.044 341.26 295.8 339.934 296.514L339.583 295.861C340.895 295.155 342.182 294.407 343.441 293.619L343.834 294.247ZM283.168 300.253C281.757 299.719 280.368 299.141 279.004 298.518L279.311 297.844C280.661 298.46 282.035 299.032 283.43 299.56L283.168 300.253ZM335.894 298.518C334.529 299.141 333.14 299.719 331.73 300.253L331.467 299.56C332.863 299.032 334.237 298.46 335.587 297.844L335.894 298.518ZM291.793 302.878C290.322 302.535 288.87 302.144 287.438 301.708L287.653 300.999C289.07 301.431 290.507 301.817 291.961 302.156L291.793 302.878ZM327.46 301.708C326.027 302.144 324.575 302.535 323.105 302.878L322.937 302.156C324.391 301.817 325.827 301.431 327.244 300.999L327.46 301.708ZM300.691 304.343C299.185 304.196 297.693 304 296.218 303.757L296.338 303.026C297.798 303.266 299.274 303.46 300.763 303.606L300.691 304.343ZM318.68 303.757C317.204 304 315.712 304.196 314.206 304.343L314.134 303.606C315.624 303.46 317.1 303.266 318.56 303.026L318.68 303.757ZM307.449 304.672C306.693 304.672 305.939 304.66 305.189 304.635L305.213 303.895C305.955 303.919 306.701 303.931 307.449 303.931C308.197 303.931 308.942 303.919 309.685 303.895L309.709 304.635C308.958 304.66 308.205 304.672 307.449 304.672Z" fill="#2626DB"/>
<path d="M381.405 258.358C383.353 253.547 381.069 248.074 376.304 246.134C371.539 244.193 366.097 246.521 364.15 251.332C362.202 256.143 364.486 261.616 369.251 263.557C374.016 265.497 379.457 263.169 381.405 258.358Z" fill="#FCBE42"/>
<path fill-rule="evenodd" clip-rule="evenodd" d="M368.621 252.352L369.331 252.138L371.213 258.375L375.177 253.832L375.735 254.319L370.891 259.871L368.621 252.352Z" fill="white"/>
<path d="M342.74 38.7978C342.672 38.7296 342.536 38.7296 342.468 38.7296L340.7 38.9342C340.496 38.9342 340.224 38.7978 340.224 38.5932C340.02 37.7748 339.68 37.0246 339.272 36.2744C339.136 36.0698 339.204 35.797 339.408 35.6606L340.7 34.6376C340.768 34.5694 340.836 34.5012 340.836 34.3648C340.836 34.2966 340.836 34.1602 340.768 34.092L338.796 32.1142C338.728 32.046 338.66 31.9778 338.524 32.046C338.456 32.046 338.32 32.1142 338.252 32.1824L337.232 33.4782C337.096 33.6828 336.824 33.6828 336.62 33.6146C335.94 33.2054 335.124 32.8644 334.308 32.6598C334.104 32.5916 333.9 32.387 333.968 32.1824L334.172 30.4092C334.172 30.341 334.172 30.2046 334.104 30.1364C334.036 30.0682 333.968 30 333.832 30H331.044C330.976 30 330.84 30.0682 330.772 30.1364C330.704 30.2046 330.704 30.341 330.704 30.4092L330.908 32.1824C330.908 32.387 330.772 32.6598 330.568 32.6598C329.752 32.8644 329.004 33.2054 328.256 33.6146C328.052 33.751 327.78 33.6828 327.644 33.4782L326.624 32.1824C326.556 32.1142 326.488 32.046 326.352 32.046C326.284 32.046 326.148 32.046 326.08 32.1142L324.108 34.092C324.04 34.1602 323.972 34.2284 324.04 34.3648C324.04 34.433 324.108 34.5694 324.176 34.6376L325.468 35.6606C325.672 35.797 325.672 36.0698 325.604 36.2744C325.196 36.9564 324.856 37.7748 324.652 38.5932C324.584 38.7978 324.38 39.0024 324.176 38.9342L322.408 38.7296C322.34 38.7296 322.204 38.7296 322.136 38.7978C322.068 38.866 322 38.9342 322 39.0706V41.8668C322 41.935 322.068 42.0714 322.136 42.1396C322.204 42.2078 322.34 42.2078 322.408 42.2078L324.176 42.0032C324.38 42.0032 324.652 42.1396 324.652 42.3442C324.856 43.1626 325.196 43.9128 325.604 44.663C325.74 44.8676 325.672 45.1404 325.468 45.2768L324.176 46.2998C324.108 46.368 324.04 46.4362 324.04 46.5726C324.04 46.6408 324.04 46.7772 324.108 46.8454L326.08 48.8232C326.148 48.8914 326.216 48.9596 326.352 48.8914C326.42 48.8914 326.556 48.8232 326.624 48.755L327.644 47.4592C327.78 47.2546 328.052 47.2546 328.256 47.3228C328.936 47.732 329.752 48.073 330.568 48.2776C330.772 48.3458 330.976 48.5504 330.908 48.755L330.704 50.5282C330.704 50.5964 330.704 50.7328 330.772 50.801C330.84 50.8692 330.908 50.9374 331.044 50.9374H333.832C333.9 50.9374 334.036 50.8692 334.104 50.801C334.172 50.7328 334.172 50.5964 334.172 50.5282L333.968 48.755C333.968 48.5504 334.104 48.2776 334.308 48.2776C335.124 48.073 335.872 47.732 336.62 47.3228C336.824 47.1864 337.096 47.2546 337.232 47.4592L338.252 48.755C338.32 48.8232 338.388 48.8914 338.524 48.8914C338.592 48.8914 338.728 48.8914 338.796 48.8232L340.768 46.8454C340.836 46.7772 340.904 46.709 340.836 46.5726C340.836 46.5044 340.768 46.368 340.7 46.2998L339.408 45.2768C339.204 45.1404 339.204 44.8676 339.272 44.663C339.68 43.981 340.02 43.1626 340.224 42.3442C340.292 42.1396 340.496 41.935 340.7 42.0032L342.468 42.2078C342.536 42.2078 342.672 42.2078 342.74 42.1396C342.808 42.0714 342.876 42.0032 342.876 41.8668V39.0706C342.876 39.0024 342.876 38.866 342.74 38.7978ZM342.196 41.4576L340.836 41.253C340.224 41.1848 339.68 41.594 339.544 42.1396C339.34 42.8898 339.068 43.5718 338.66 44.2538C338.32 44.7312 338.456 45.4132 338.932 45.7542L339.884 46.5044L338.456 47.9366L337.708 46.9818C337.368 46.5044 336.688 46.368 336.212 46.709C335.532 47.1182 334.852 47.391 334.104 47.5956C333.56 47.732 333.152 48.2776 333.22 48.8914L333.424 50.2554H331.452L331.656 48.8914C331.724 48.2776 331.316 47.732 330.772 47.5956C330.024 47.391 329.344 47.1182 328.664 46.709C328.188 46.368 327.508 46.5044 327.168 46.9818L326.42 47.9366L324.992 46.5044L325.944 45.7542C326.42 45.4132 326.556 44.7312 326.216 44.2538C325.808 43.5718 325.536 42.8898 325.332 42.1396C325.196 41.5258 324.652 41.1848 324.04 41.253L322.68 41.4576V39.4798L324.04 39.6844C324.652 39.7526 325.196 39.3434 325.332 38.7978C325.536 38.0476 325.808 37.3656 326.216 36.6836C326.556 36.2062 326.42 35.5242 325.944 35.1832L324.992 34.433L326.42 33.0008L327.168 33.9556C327.508 34.433 328.188 34.5694 328.664 34.2284C329.344 33.8192 330.024 33.5464 330.772 33.3418C331.316 33.2054 331.724 32.6598 331.656 32.046L331.452 30.682H333.424L333.22 32.046C333.152 32.6598 333.56 33.2054 334.104 33.3418C334.852 33.5464 335.532 33.8192 336.212 34.2284C336.688 34.5694 337.368 34.433 337.708 33.9556L338.456 33.0008L339.884 34.433L338.932 35.1832C338.456 35.5242 338.32 36.2062 338.66 36.6836C339.068 37.3656 339.34 38.0476 339.544 38.7978C339.68 39.4116 340.224 39.7526 340.836 39.6844L342.196 39.4798V41.4576Z" fill="#003EB0"/>
<path d="M332.404 35.5923C329.684 35.5923 327.508 37.7747 327.508 40.5027C327.508 43.2307 329.684 45.4131 332.404 45.4131C335.124 45.4131 337.3 43.2307 337.3 40.5027C337.3 37.7747 335.124 35.5923 332.404 35.5923ZM332.404 44.6629C330.092 44.6629 328.188 42.7533 328.188 40.4345C328.188 38.1157 330.092 36.2061 332.404 36.2061C334.716 36.2061 336.62 38.1157 336.62 40.4345C336.62 42.8215 334.716 44.6629 332.404 44.6629Z" fill="#003EB0"/>
<path d="M242.065 52.8726H230.709C230.505 52.8726 230.369 53.009 230.369 53.2136V57.9194C230.369 57.9876 230.437 58.124 230.437 58.124L231.797 59.488C231.865 59.5562 231.933 59.5562 232.001 59.5562H240.773C240.841 59.5562 240.977 59.488 240.977 59.488L242.337 58.124C242.405 58.0558 242.405 57.9876 242.405 57.9194V53.2136C242.405 53.009 242.269 52.8726 242.065 52.8726ZM241.725 57.7148L240.569 58.8742H232.137L230.981 57.7148V53.4864H241.657V57.7148H241.725Z" fill="#003EB0"/>
<path d="M242.743 54.168L230.028 54.85C229.823 54.85 229.688 54.9864 229.688 55.191C229.688 55.3956 229.823 55.532 230.028 55.532L242.743 54.85C242.947 54.85 243.083 54.7136 243.083 54.509C243.083 54.3044 242.947 54.168 242.743 54.168Z" fill="#003EB0"/>
<path d="M242.743 56.2141L230.028 56.8961C229.823 56.8961 229.688 57.0325 229.688 57.2371C229.688 57.4417 229.823 57.5781 230.028 57.5781L242.743 56.8961C242.947 56.8961 243.083 56.7597 243.083 56.5551C243.083 56.3505 242.947 56.1459 242.743 56.2141Z" fill="#003EB0"/>
<path d="M236.42 30.0254C230.164 30.0254 225.064 35.1404 225.064 41.4148C225.064 45.3704 227.036 48.985 230.436 51.0992V53.1452C230.436 53.3498 230.572 53.4862 230.776 53.4862H242.132C242.336 53.4862 242.472 53.3498 242.472 53.1452V51.0992C245.804 48.985 247.844 45.3704 247.844 41.4148C247.776 35.1404 242.676 30.0254 236.42 30.0254ZM241.928 50.6218C241.86 50.69 241.792 50.7582 241.792 50.8946V52.8042H231.116V50.8946C231.116 50.7582 231.048 50.69 230.98 50.6218C227.716 48.644 225.812 45.234 225.812 41.4148C225.812 35.4814 230.64 30.7074 236.488 30.7074C242.404 30.7074 247.164 35.5496 247.164 41.4148C247.096 45.234 245.192 48.644 241.928 50.6218Z" fill="#003EB0"/>
<path d="M239.549 58.9423C239.413 58.8741 239.209 58.9423 239.073 59.0787C239.073 59.1469 238.461 60.2381 236.353 60.2381C234.245 60.2381 233.633 59.1469 233.633 59.0787C233.565 58.9423 233.361 58.8741 233.157 58.9423C233.021 59.0105 232.953 59.2151 233.021 59.4197C233.021 59.4879 233.837 60.9201 236.353 60.9201C238.869 60.9201 239.617 59.4879 239.685 59.4197C239.821 59.2151 239.753 59.0105 239.549 58.9423Z" fill="#003EB0"/>
<path d="M222.004 41.0737H215.34C215.136 41.0737 215 41.2101 215 41.4147C215 41.6193 215.136 41.7557 215.34 41.7557H222.004C222.208 41.7557 222.344 41.6193 222.344 41.4147C222.344 41.2783 222.208 41.0737 222.004 41.0737Z" fill="#DE051F"/>
<path d="M257.5 41.0737H250.836C250.632 41.0737 250.496 41.2101 250.496 41.4147C250.496 41.6193 250.632 41.7557 250.836 41.7557H257.5C257.704 41.7557 257.84 41.6193 257.84 41.4147C257.84 41.2783 257.636 41.0737 257.5 41.0737Z" fill="#DE051F"/>
<path d="M224.249 48.5074C224.181 48.371 223.977 48.3028 223.773 48.371L217.993 51.7128C217.857 51.781 217.789 51.9856 217.857 52.1902C217.925 52.3266 218.061 52.3266 218.129 52.3266C218.197 52.3266 218.265 52.3266 218.265 52.2584L224.045 48.9166C224.249 48.8484 224.317 48.6438 224.249 48.5074Z" fill="#DE051F"/>
<path d="M254.917 30.7076C254.849 30.5712 254.645 30.503 254.441 30.5712L248.661 33.913C248.525 33.9812 248.457 34.1858 248.525 34.3904C248.593 34.5268 248.729 34.5268 248.797 34.5268C248.865 34.5268 248.933 34.5268 248.933 34.4586L254.713 31.1168C254.985 31.0486 255.053 30.844 254.917 30.7076Z" fill="#DE051F"/>
<path d="M247.097 22.8645C246.961 22.7963 246.757 22.7963 246.621 23.0009L243.289 28.7979C243.221 28.9343 243.221 29.1389 243.425 29.2753C243.493 29.2753 243.561 29.3435 243.561 29.3435C243.697 29.3435 243.765 29.2753 243.833 29.2071L247.165 23.4101C247.301 23.1373 247.301 22.9327 247.097 22.8645Z" fill="#DE051F"/>
<path d="M236.42 20C236.216 20 236.08 20.1364 236.08 20.341V27.0246C236.08 27.2292 236.216 27.3656 236.42 27.3656C236.624 27.3656 236.76 27.2292 236.76 27.0246V20.341C236.76 20.1364 236.624 20 236.42 20Z" fill="#DE051F"/>
<path d="M229.484 28.798L226.152 23.001C226.084 22.8646 225.88 22.7964 225.676 22.8646C225.54 22.9328 225.472 23.1374 225.54 23.342L228.872 29.139C228.94 29.2754 229.076 29.2754 229.144 29.2754C229.212 29.2754 229.28 29.2754 229.28 29.2072C229.552 29.139 229.62 28.9344 229.484 28.798Z" fill="#DE051F"/>
<path d="M254.847 51.7132L249.067 48.3714C248.931 48.3032 248.727 48.3032 248.591 48.5078C248.523 48.6442 248.523 48.8488 248.727 48.9852L254.507 52.327C254.575 52.327 254.643 52.3952 254.643 52.3952C254.779 52.3952 254.847 52.327 254.915 52.2588C255.051 51.986 254.983 51.7814 254.847 51.7132Z" fill="#DE051F"/>
<path d="M224.111 33.9129L218.331 30.5711C218.195 30.5029 217.991 30.5029 217.855 30.7075C217.787 30.8439 217.787 31.0485 217.991 31.1849L223.771 34.5267C223.839 34.5267 223.907 34.5949 223.907 34.5949C224.043 34.5949 224.111 34.5267 224.179 34.4585C224.315 34.2539 224.247 34.0493 224.111 33.9129Z" fill="#DE051F"/>
<path fill-rule="evenodd" clip-rule="evenodd" d="M241.091 37.842C240.948 37.4613 240.617 37.1905 240.024 37.1905C239.427 37.1905 238.988 37.4588 238.651 37.8846C238.307 38.3197 238.075 38.9154 237.922 39.5372C237.77 40.1553 237.701 40.7772 237.671 41.2472C237.657 41.4737 237.651 41.6635 237.649 41.7986C239.353 41.4203 240.427 40.4208 240.897 39.4524C241.199 38.8318 241.243 38.2481 241.091 37.842ZM237.649 42.3645C239.576 41.9732 240.834 40.8501 241.396 39.6944C241.74 38.9852 241.831 38.239 241.61 37.6476C241.378 37.0309 240.826 36.6367 240.024 36.6367C239.228 36.6367 238.639 37.0078 238.217 37.5411C237.802 38.065 237.546 38.748 237.384 39.405C237.222 40.0656 237.15 40.7225 237.118 41.2116C237.103 41.4569 237.097 41.6615 237.095 41.8054C237.095 41.839 237.095 41.8693 237.094 41.896C236.796 41.9353 236.481 41.9563 236.148 41.9563V42.5101C236.478 42.5101 236.794 42.4907 237.096 42.454V52.8724H237.649V42.3645Z" fill="#003EB0"/>
<path fill-rule="evenodd" clip-rule="evenodd" d="M230.687 37.6476C230.918 37.0309 231.471 36.6367 232.272 36.6367C233.069 36.6367 233.658 37.0078 234.08 37.5411C234.494 38.065 234.751 38.748 234.913 39.405C235.075 40.0656 235.147 40.7225 235.178 41.2116C235.194 41.4569 235.2 41.6615 235.202 41.8054C235.202 41.839 235.202 41.8693 235.202 41.896C235.501 41.9353 235.816 41.9563 236.148 41.9563V42.5101C235.818 42.5101 235.503 42.4907 235.201 42.454V52.8724H234.647V42.3645C232.721 41.9732 231.463 40.8501 230.901 39.6944C230.557 38.9852 230.465 38.239 230.687 37.6476ZM234.648 41.7986C234.646 41.6635 234.64 41.4737 234.626 41.2472C234.595 40.7772 234.527 40.1553 234.375 39.5372C234.222 38.9154 233.99 38.3197 233.646 37.8846C233.309 37.4588 232.87 37.1905 232.272 37.1905C231.68 37.1905 231.348 37.4613 231.206 37.842C231.053 38.2481 231.098 38.8318 231.399 39.4524C231.87 40.4208 232.943 41.4203 234.648 41.7986Z" fill="#003EB0"/>
<path d="M373.523 117.713L354.075 111.984C352.307 111.439 351.287 109.597 351.763 107.756L357.475 88.2509C358.019 86.4777 359.855 85.4547 361.691 85.9321L381.139 91.6609C382.907 92.2065 383.927 94.0479 383.451 95.8893L377.739 115.394C377.195 117.236 375.291 118.259 373.523 117.713Z" fill="#003EB0"/>
<path d="M373.523 109.666C373.523 109.666 373.523 109.597 373.591 109.461C373.659 109.325 373.659 109.052 373.727 108.847C373.863 108.302 374.067 107.483 374.339 106.46C374.883 104.414 375.699 101.482 376.651 98.0033L376.719 98.1397C372.435 96.9121 367.267 95.4117 361.691 93.8431C361.623 93.8431 362.099 93.6385 361.895 93.7067V93.7749V93.8431L361.827 94.0477L361.691 94.4569L361.487 95.2071C361.351 95.7527 361.215 96.2301 361.079 96.7757C360.807 97.7987 360.535 98.8217 360.195 99.7765C359.651 101.754 359.107 103.596 358.563 105.301L358.495 105.096C362.915 106.392 366.655 107.483 369.307 108.302C370.599 108.711 371.619 108.984 372.367 109.256C372.707 109.393 372.979 109.461 373.183 109.529C373.455 109.597 373.523 109.666 373.523 109.666C373.523 109.666 373.455 109.666 373.251 109.597C373.047 109.529 372.775 109.461 372.435 109.393C371.687 109.188 370.667 108.915 369.375 108.574C366.655 107.824 362.915 106.733 358.427 105.505L358.291 105.437L358.359 105.301C358.835 103.528 359.379 101.686 359.923 99.7765C360.195 98.8217 360.467 97.7987 360.807 96.7757C360.943 96.2983 361.079 95.7527 361.215 95.2071L361.419 94.4569L361.555 94.0477L361.623 93.8431V93.7749V93.7067C361.419 93.7749 361.895 93.5703 361.827 93.5703C367.403 95.2071 372.571 96.7075 376.855 97.9351L376.991 98.0033L376.923 98.1397C375.903 101.618 375.019 104.551 374.407 106.597C374.135 107.551 373.863 108.37 373.727 108.915C373.659 109.188 373.591 109.393 373.523 109.529C373.523 109.597 373.523 109.666 373.523 109.666Z" fill="#FAFAFA"/>
<path d="M367.47 92.8884C367.47 92.8884 367.946 92.9566 368.83 93.1612C369.646 93.3658 370.87 93.7068 372.298 94.116H372.366V94.1842C372.57 95.0026 372.842 95.8892 373.046 96.7758L373.114 97.0486L372.842 96.9804C372.366 96.844 371.89 96.7076 371.414 96.5712C369.034 95.8892 366.858 95.2754 365.294 94.798H365.158L365.294 94.6616C366.586 93.434 367.402 92.8202 367.47 92.8884C367.47 92.8884 367.266 93.0248 366.926 93.3658C366.518 93.775 366.042 94.2524 365.43 94.798L365.362 94.5934C366.926 95.0026 369.102 95.6164 371.482 96.2984C371.958 96.4348 372.434 96.5712 372.91 96.7076L372.706 96.9122C372.502 95.9574 372.23 95.0708 372.026 94.3206L372.094 94.457C370.666 94.0478 369.51 93.7068 368.694 93.434C367.946 93.093 367.47 92.9566 367.47 92.8884Z" fill="#FAFAFA"/>
<path d="M370.463 103.596C370.463 103.596 370.599 103.323 370.803 102.778C371.007 102.232 371.143 101.414 370.803 100.459C370.531 99.504 369.647 98.481 368.423 98.2082C367.199 97.8672 365.567 98.2764 364.683 99.5722C363.799 100.8 363.935 102.505 364.683 103.528C365.431 104.619 366.655 105.096 367.607 105.028C368.627 105.028 369.375 104.551 369.783 104.21C370.259 103.869 370.463 103.596 370.463 103.596C370.463 103.596 370.463 103.664 370.327 103.801C370.259 103.937 370.123 104.073 369.919 104.278C369.511 104.687 368.763 105.165 367.675 105.233C366.655 105.301 365.295 104.824 364.479 103.664C364.071 103.119 363.799 102.368 363.799 101.618C363.799 100.868 364.003 100.05 364.479 99.3676C364.955 98.6856 365.635 98.2082 366.383 98.0036C367.131 97.7308 367.879 97.7308 368.559 97.9354C369.919 98.3446 370.803 99.4358 371.075 100.459C371.347 101.482 371.143 102.368 370.939 102.914C370.803 103.187 370.735 103.391 370.599 103.528C370.531 103.528 370.463 103.596 370.463 103.596Z" fill="#FAFAFA"/>
<path d="M104.72 64.449L76.1595 70.587C73.8475 71.0644 71.5355 69.564 70.9915 67.2452L64.8715 38.6012C64.3955 36.2824 65.8915 33.9636 68.2035 33.418L96.7635 27.28C99.0755 26.8026 101.388 28.303 101.932 30.6218L108.052 59.2658C108.528 61.6528 107.1 63.9716 104.72 64.449Z" fill="#DE051F"/>
<path d="M81.3269 40.3064C81.3269 40.3064 81.5309 40.3746 82.0069 40.5792C82.4829 40.7838 83.0949 41.1248 83.9109 41.4658L83.9789 41.534L83.9109 41.6022C83.2989 42.7616 82.4149 44.3302 81.4629 46.1716L81.3949 45.967C83.9109 47.6038 87.1069 49.6498 90.6429 51.9686L90.3709 52.0368C91.1869 50.6728 92.0029 49.2406 92.8869 47.7402L92.9549 47.6038L93.0909 47.672C94.2469 47.9448 95.4029 48.354 96.4909 48.9678C97.5789 49.5816 98.6669 50.3318 99.2789 51.6276C99.4149 51.9686 99.5509 52.2414 99.5509 52.5824L99.6189 53.128L99.5509 53.6736C99.5509 54.0146 99.4149 54.3556 99.3469 54.6966C99.2789 55.0376 99.1429 55.3104 98.9389 55.6514C98.3269 56.879 97.3069 57.902 95.9469 58.4476C94.6549 58.9932 93.2269 59.1296 91.8669 58.8568C91.1869 58.7204 90.5749 58.5158 89.9629 58.1748C89.3509 57.8338 88.8749 57.4928 88.2629 57.1518C86.0869 55.7878 84.0469 54.4238 82.0749 53.1962C80.1029 51.9004 78.1989 50.741 76.4309 49.5816C76.0229 49.3088 75.5469 49.036 75.1389 48.7632C74.7309 48.4904 74.2549 48.2176 73.9149 47.8766C73.1669 47.1946 72.7589 46.2398 72.6909 45.285C72.6229 43.4436 73.5749 41.875 74.7309 40.9884C75.8869 40.1018 77.1109 39.7608 78.1309 39.6926C79.1509 39.6244 79.8989 39.829 80.3749 40.0336C80.6469 40.1018 80.7829 40.2382 80.9189 40.3064C81.2589 40.2382 81.3269 40.3064 81.3269 40.3064C81.3269 40.3746 80.3069 39.6926 78.3349 39.7608C77.3829 39.829 76.1589 40.17 75.0709 41.0566C74.0509 41.9432 73.0989 43.4436 73.1669 45.1486C73.1669 46.0352 73.5749 46.8536 74.3229 47.4674C74.6629 47.8084 75.0709 48.013 75.4789 48.2858C75.8869 48.5586 76.3629 48.8314 76.7709 49.1042C78.5389 50.1954 80.4429 51.423 82.4149 52.6506C84.3869 53.8782 86.4949 55.2422 88.6029 56.6062C89.1469 56.9472 89.6909 57.2882 90.2349 57.6292C90.7789 57.902 91.3909 58.1066 92.0029 58.243C93.2269 58.5158 94.5869 58.3794 95.8109 57.8338C97.0349 57.2882 97.9869 56.3334 98.5309 55.2422C98.6669 54.9694 98.8029 54.6966 98.8709 54.3556C98.9389 54.0828 99.0749 53.7418 99.0749 53.469L99.1429 52.9916L99.0749 52.5142C99.0749 52.2414 98.9389 51.9686 98.8029 51.6276C98.2589 50.5364 97.2389 49.7862 96.2189 49.1724C95.1989 48.5586 94.0429 48.1494 92.9549 47.8766L93.1589 47.8084C92.2749 49.3088 91.4589 50.741 90.6429 52.0368L90.5069 52.2414L90.3709 52.105C86.8349 49.7862 83.7069 47.672 81.1909 46.0352L81.0549 45.967L81.1229 45.8306C82.1429 43.9892 83.0269 42.4888 83.7069 41.3294L83.7749 41.4658C82.9589 41.0566 82.3469 40.7156 81.9389 40.511C81.5309 40.4428 81.3269 40.3064 81.3269 40.3064Z" fill="#FAFAFA"/>
<path d="M91.0502 45.1484C90.9822 45.1484 90.6422 43.7844 90.3022 42.1476C89.9622 40.4426 89.7582 39.0786 89.8942 39.0786C89.9622 39.0786 90.3022 40.4426 90.6422 42.0794C90.9142 43.7844 91.1182 45.1484 91.0502 45.1484Z" fill="#FAFAFA"/>
<path d="M93.5669 41.4654C93.5669 41.5336 92.2069 41.9428 90.5069 42.2838C88.8069 42.6248 87.3789 42.8976 87.3109 42.7612C87.2429 42.693 88.6709 42.2838 90.3709 41.9428C92.1389 41.5336 93.5669 41.329 93.5669 41.4654Z" fill="#FAFAFA"/>
<path d="M44.5388 33.0085C44.4708 32.9403 44.3348 32.8721 44.1988 32.9403L42.1588 33.2131C41.8868 33.2131 41.6148 33.0767 41.6148 32.8039C41.4108 31.8491 41.0028 30.9625 40.5268 30.1441C40.3908 29.9395 40.4588 29.5985 40.6628 29.4621L42.1588 28.3027C42.2268 28.2345 42.2948 28.0981 42.2948 28.0299C42.2948 27.8935 42.2268 27.8253 42.1588 27.6889L39.8468 25.3701C39.7788 25.3019 39.6428 25.2337 39.5068 25.2337C39.3708 25.2337 39.3028 25.3019 39.2348 25.3701L38.0788 26.8705C37.9428 27.0751 37.6028 27.1433 37.3988 27.0069C36.5828 26.5295 35.6988 26.1203 34.7468 25.9157C34.4748 25.8475 34.2708 25.5747 34.3388 25.3701L34.6108 23.3241C34.6108 23.1877 34.6108 23.1195 34.5428 22.9831C34.4748 22.9149 34.3388 22.8467 34.2708 22.8467H31.0748C30.9388 22.8467 30.8708 22.9149 30.8028 22.9831C30.5988 22.9831 30.5308 23.1195 30.5988 23.1877L30.8708 25.2337C30.8708 25.5065 30.7348 25.7793 30.4628 25.7793C29.5108 25.9839 28.6268 26.3931 27.8108 26.8705C27.6068 27.0069 27.2668 26.9387 27.1308 26.7341L25.9748 25.2337C25.8388 25.2337 25.7028 25.2337 25.6348 25.1655C25.4988 25.1655 25.4308 25.2337 25.2948 25.3019L22.9828 27.6207C22.9148 27.6889 22.8468 27.8253 22.8468 27.9617C22.8468 28.0981 22.9148 28.1663 22.9828 28.2345L24.4788 29.3939C24.6828 29.5303 24.7508 29.8713 24.6148 30.0759C24.1388 30.8943 23.7308 31.7809 23.5268 32.7357C23.4588 33.0085 23.1868 33.2131 22.9828 33.1449L20.9428 32.8721C20.8068 32.8721 20.7388 32.8721 20.6028 32.9403C20.5348 33.0085 20.4668 33.1449 20.4668 33.2131V36.4185C20.4668 36.5549 20.5348 36.6231 20.6028 36.6913C20.6708 36.7595 20.8068 36.8277 20.9428 36.7595L22.9828 36.4867C23.2548 36.4867 23.5268 36.6231 23.5268 36.8959C23.7308 37.8507 24.1388 38.7373 24.6148 39.5557C24.7508 39.7603 24.6828 40.1013 24.4788 40.2377L23.0508 41.6017C22.9828 41.6699 22.9148 41.8063 22.9148 41.8745C22.9148 42.0109 22.9828 42.0791 23.0508 42.2155L25.3628 44.5343C25.4308 44.6025 25.5668 44.6707 25.7028 44.6707C25.8388 44.6707 25.9068 44.6025 25.9748 44.5343L27.1308 43.0339C27.2668 42.8293 27.6068 42.7611 27.8108 42.8975C28.6268 43.3749 29.5108 43.7841 30.4628 43.9887C30.7348 44.0569 30.9388 44.3297 30.8708 44.5343L30.5988 46.5803C30.5988 46.7167 30.5988 46.7849 30.6668 46.9213C30.7348 46.9895 30.8708 47.0577 30.9388 47.0577H34.1348C34.2708 47.0577 34.3388 46.9895 34.4068 46.9213C34.4748 46.8531 34.5428 46.7167 34.4748 46.5803L34.2028 44.5343C34.2028 44.2615 34.3388 43.9887 34.6108 43.9887C35.5628 43.7841 36.4468 43.3749 37.2628 42.8975C37.4668 42.7611 37.8068 42.8293 37.9428 43.0339L39.0988 44.5343C39.1668 44.6025 39.3028 44.6707 39.3708 44.6707C39.5068 44.6707 39.5748 44.6025 39.7108 44.5343L42.0228 42.2155C42.0908 42.1473 42.1588 42.0109 42.1588 41.8745C42.1588 41.7381 42.0908 41.6699 42.0228 41.6017L40.5268 40.4423C40.3228 40.3059 40.2548 39.9649 40.3908 39.7603C40.8668 38.9419 41.2748 38.0553 41.4788 37.1005C41.5468 36.8277 41.8188 36.6913 42.0228 36.6913L44.0628 36.9641C44.1988 36.9641 44.2668 36.9641 44.4028 36.8959C44.4708 36.8277 44.5388 36.6913 44.5388 36.6231V33.4177C44.6748 33.1449 44.6068 33.0767 44.5388 33.0085ZM43.8588 36.0775L42.2268 35.8729C41.5468 35.8047 40.9348 36.2139 40.7988 36.8959C40.5948 37.7825 40.2548 38.6009 39.7788 39.3511C39.4388 39.9649 39.5748 40.7151 40.1188 41.1243L41.2748 42.0109L39.6428 43.6477L38.7588 42.4883C38.3508 41.9427 37.6028 41.8063 36.9908 42.1473C36.2428 42.6247 35.4268 42.9657 34.5428 43.1703C33.8628 43.3067 33.4548 43.9887 33.5228 44.6025L33.7268 46.2393H31.4148L31.6188 44.6025C31.6868 43.9205 31.2788 43.3067 30.5988 43.1703C29.7148 42.9657 28.8988 42.6247 28.1508 42.1473C27.5388 41.8063 26.7908 41.9427 26.3828 42.4883L25.4988 43.6477L23.8668 42.0109L25.0228 41.1243C25.5668 40.7151 25.7028 39.9649 25.3628 39.3511C24.8868 38.6009 24.5468 37.7825 24.3428 36.8959C24.2068 36.2139 23.5268 35.8047 22.9148 35.8729L21.2828 36.0775V33.7587L22.9148 33.9633C23.5948 34.0315 24.2068 33.6223 24.3428 32.9403C24.5468 32.0537 24.8868 31.2353 25.3628 30.4851C25.7028 29.8713 25.5668 29.1211 25.0228 28.7119L23.8668 27.8253L25.4988 26.1885L26.3828 27.3479C26.7908 27.8935 27.5388 28.0299 28.1508 27.6889C28.8988 27.2115 29.7148 26.8705 30.5988 26.6659C31.2788 26.5295 31.6868 25.8475 31.6188 25.2337L31.4148 23.5969H33.7268L33.5228 25.2337C33.4548 25.9157 33.8628 26.5295 34.5428 26.6659C35.4268 26.8705 36.2428 27.2115 36.9908 27.6889C37.6028 28.0299 38.3508 27.8935 38.7588 27.3479L39.6428 26.1885L41.2748 27.8253L40.1188 28.7119C39.5748 29.1211 39.4388 29.8713 39.7788 30.4851C40.2548 31.2353 40.5948 32.0537 40.7988 32.9403C40.9348 33.6223 41.6148 34.0315 42.2268 33.9633L43.8588 33.7587V36.0775Z" fill="#EE384E"/>
<path d="M32.5717 29.2573C29.4437 29.2573 26.9277 31.7807 26.9277 34.9179C26.9277 38.0551 29.4437 40.5785 32.5717 40.5785C35.6997 40.5785 38.2157 38.0551 38.2157 34.9179C38.2157 31.7807 35.6997 29.2573 32.5717 29.2573ZM32.5717 39.7601C29.9197 39.7601 27.7437 37.5777 27.7437 34.9179C27.7437 32.2581 29.9197 30.0757 32.5717 30.0757C35.2237 30.0757 37.3997 32.2581 37.3997 34.9179C37.3997 37.5777 35.2237 39.7601 32.5717 39.7601Z" fill="#EE384E"/>
<path d="M202.027 205.35L194.275 209.851C193.663 210.192 192.847 210.192 192.235 209.851L184.483 205.35C183.871 205.009 183.463 204.327 183.463 203.577V194.575C183.463 193.824 183.871 193.142 184.483 192.801L192.235 188.3C192.847 187.959 193.663 187.959 194.275 188.3L202.027 192.801C202.639 193.142 203.047 193.824 203.047 194.575V203.577C203.047 204.259 202.639 204.941 202.027 205.35Z" fill="white"/>
<path d="M193.254 199.076L200.122 195.052L193.254 191.369V199.076Z" fill="#0A489B"/>
<path d="M193.255 206.646L186.387 202.759V195.052L193.255 191.369V206.646Z" fill="#0F68DE"/>
<path d="M193.255 199.076L186.387 195.052L193.255 191.369V199.076Z" fill="#0F68DE"/>
<path d="M193.255 206.782L186.387 202.758L193.255 199.076V206.782Z" fill="#3F86E4"/>
<path d="M232.15 265.639C232.15 265.639 232.082 266.048 232.014 266.048C231.946 266.458 231.81 266.867 231.742 267.276C231.606 267.89 231.538 268.572 231.47 269.254C231.402 270.072 231.334 270.959 231.334 271.777C231.334 272.8 231.334 273.755 231.402 274.778C231.47 275.869 231.606 277.029 231.81 278.12C232.014 279.347 232.354 280.507 232.694 281.666C233.102 282.962 233.578 284.19 234.19 285.349C234.802 286.645 235.55 287.872 236.366 289.032C237.25 290.328 238.27 291.487 239.426 292.578C240.65 293.806 242.01 294.897 243.438 295.92C244.254 296.466 245.07 297.079 245.886 297.557C246.158 297.693 246.498 297.83 246.77 297.898C246.838 297.898 247.382 298.034 247.382 298.102V307.991H160.478L160.41 298.716C160.41 298.716 174.01 295.988 176.866 266.662C176.934 266.662 232.15 265.639 232.15 265.639Z" fill="#0064B7"/>
<path d="M232.423 281.325L176.527 269.936L176.935 266.662L232.559 265.98C232.491 265.98 229.431 269.526 232.423 281.325Z" fill="#023EA1"/>
<path d="M247.518 298.716H160.41V308.06H247.518V298.716Z" fill="#023EA1"/>
<path d="M327.011 82.5221H80.3067C69.9707 82.1811 69.9707 90.7743 69.9707 90.7743V131.899V220.968V262.093C69.9707 262.093 69.9707 270.686 80.3067 270.345H327.011C327.011 270.345 338.095 270.686 338.095 259.979C338.095 259.706 338.095 259.365 338.095 258.887V253.909C338.095 253.909 338.095 129.512 338.095 99.0947C338.095 96.9123 338.095 95.2073 338.095 94.1161C338.095 93.7069 338.095 93.2977 338.095 93.0249C338.027 82.1811 327.011 82.5221 327.011 82.5221ZM326.671 255.273L81.3947 256.705L81.0547 176.434L81.3947 96.1621L326.671 97.5943L327.011 176.434L326.671 255.273Z" fill="#0064B7"/>
<path d="M81.3262 96.0938L327.01 97.3214L326.67 257.66L81.3262 256.637V96.0938Z" fill="#E9EEF2"/>
<path d="M81.3262 97.2534L327.01 98.481L326.67 258.819L81.3262 257.796V97.2534Z" fill="#F6F9FB"/>
<path d="M301.714 109.598H114.238C112.742 109.598 111.518 110.825 111.518 112.326C111.518 113.826 112.742 115.054 114.238 115.054H301.714C303.21 115.054 304.434 113.826 304.434 112.326C304.434 110.825 303.21 109.598 301.714 109.598Z" fill="white"/>
<path d="M327.01 101.823H81.3262V107.824H327.01V101.823Z" fill="#023EA1"/>
<path d="M327.01 224.719H81.3262V258.819H327.01V224.719Z" fill="white"/>
<path d="M86.4939 104.824C86.4939 105.642 85.814 106.324 84.998 106.324C84.182 106.324 83.502 105.642 83.502 104.824C83.502 104.005 84.182 103.323 84.998 103.323C85.814 103.323 86.4939 104.005 86.4939 104.824Z" fill="#FF6158"/>
<path d="M92.5467 104.824C92.5467 105.642 91.8667 106.324 91.0507 106.324C90.2347 106.324 89.5547 105.642 89.5547 104.824C89.5547 104.005 90.2347 103.323 91.0507 103.323C91.8667 103.323 92.5467 104.005 92.5467 104.824Z" fill="#FFBF3D"/>
<path d="M98.5975 104.824C98.5975 105.642 97.9175 106.324 97.1015 106.324C96.2855 106.324 95.6055 105.642 95.6055 104.824C95.6055 104.005 96.2855 103.323 97.1015 103.323C97.9175 103.323 98.5975 104.005 98.5975 104.824Z" fill="#1ECA4D"/>
<path d="M85.4065 113.553L83.9785 112.121L85.4065 110.689L85.6785 110.962L84.4545 112.121L85.6785 113.349L85.4065 113.553Z" fill="#5F6367"/>
<path d="M84.2176 111.94L84.2129 112.281L86.8646 112.318L86.8693 111.977L84.2176 111.94Z" fill="#5F6367"/>
<path d="M92.4774 113.553L92.2734 113.349L93.4974 112.121L92.2734 110.962L92.4774 110.689L93.9734 112.121L92.4774 113.553Z" fill="#5F6367"/>
<path d="M93.767 111.966L91.1152 112.002L91.1199 112.343L93.7716 112.307L93.767 111.966Z" fill="#5F6367"/>
<path d="M107.575 112.599L106.215 111.235L104.923 112.599L104.719 112.326L106.147 110.689L107.779 112.326L107.575 112.599Z" fill="#5F6367"/>
<path d="M99.4136 113.758C98.5296 113.758 97.8496 113.076 97.8496 112.189C97.8496 111.303 98.5296 110.621 99.4136 110.621C99.7536 110.621 100.162 110.757 100.434 110.962L100.23 111.234C100.026 111.03 99.7536 110.962 99.4816 110.962C98.8016 110.962 98.2576 111.507 98.2576 112.189C98.2576 112.871 98.8016 113.417 99.4816 113.417C100.026 113.417 100.434 113.076 100.638 112.598L100.978 112.735C100.638 113.349 100.094 113.758 99.4136 113.758Z" fill="#5F6367"/>
<path d="M107.303 113.621H105.127V111.848H105.467V113.28H106.963V111.848H107.303V113.621Z" fill="#5F6367"/>
<path d="M99.7539 111.644L100.842 110.621V111.712L99.7539 111.644Z" fill="#5F6367"/>
<path d="M308.99 111.439C308.854 111.234 308.922 111.098 309.058 110.962C309.194 110.893 309.33 110.825 309.466 110.962C309.534 111.03 309.602 111.098 309.602 111.166C309.602 111.234 309.602 111.303 309.534 111.439C309.738 111.439 309.874 111.439 310.078 111.439C310.214 111.439 310.35 111.575 310.35 111.712C310.35 111.916 310.35 112.053 310.35 112.257C310.35 112.257 310.35 112.257 310.35 112.326C310.418 112.257 310.554 112.257 310.69 112.257C310.758 112.257 310.826 112.326 310.826 112.394C310.894 112.53 310.894 112.667 310.826 112.803C310.69 112.939 310.554 112.939 310.35 112.871C310.35 112.871 310.35 112.871 310.35 112.939C310.35 113.144 310.35 113.28 310.35 113.485C310.35 113.69 310.214 113.758 310.078 113.758C309.874 113.758 309.738 113.758 309.534 113.758C309.602 113.69 309.602 113.553 309.602 113.417C309.602 113.349 309.534 113.28 309.466 113.28C309.33 113.212 309.194 113.212 309.058 113.349C308.99 113.417 308.922 113.621 308.99 113.826C308.786 113.826 308.582 113.826 308.446 113.826C308.31 113.826 308.174 113.69 308.174 113.553C308.174 113.349 308.174 113.212 308.174 113.008C308.174 113.008 308.174 113.008 308.174 112.939C308.242 113.008 308.378 113.008 308.446 113.008C308.514 113.008 308.582 112.939 308.65 112.871C308.718 112.735 308.718 112.598 308.65 112.462C308.582 112.394 308.514 112.326 308.446 112.326C308.378 112.326 308.31 112.326 308.174 112.394C308.174 112.189 308.174 111.985 308.174 111.78C308.174 111.644 308.242 111.575 308.378 111.507H308.446C308.582 111.439 308.718 111.439 308.99 111.439C308.922 111.439 308.922 111.439 308.99 111.439Z" fill="#5F6367"/>
<path d="M317.218 114.917C318.72 114.917 319.938 113.696 319.938 112.189C319.938 110.683 318.72 109.461 317.218 109.461C315.716 109.461 314.498 110.683 314.498 112.189C314.498 113.696 315.716 114.917 317.218 114.917Z" fill="#DE051F"/>
<path d="M317.014 110.757H317.49L318.51 113.485H317.966L317.694 112.803H316.742L316.47 113.485H315.926L317.014 110.757ZM317.626 112.394L317.218 111.302L316.81 112.394H317.626Z" fill="white"/>
<path d="M159.39 111.371H116.482V113.417H159.39V111.371Z" fill="#EBF5FF"/>
<path d="M275.875 249.681H253.639V251.727H275.875V249.681Z" fill="#626365"/>
<path d="M266.491 243.542H262.955V246.611H266.491V243.542Z" fill="#DE051F"/>
<path d="M309.738 249.681H287.502V251.727H309.738V249.681Z" fill="#626365"/>
<path d="M300.354 243.542H296.818V246.611H300.354V243.542Z" fill="#DE051F"/>
<path d="M321.502 246.952C321.727 246.952 321.91 246.769 321.91 246.543C321.91 246.317 321.727 246.134 321.502 246.134C321.276 246.134 321.094 246.317 321.094 246.543C321.094 246.769 321.276 246.952 321.502 246.952Z" fill="#626365"/>
<path d="M321.502 248.248C321.727 248.248 321.91 248.065 321.91 247.839C321.91 247.613 321.727 247.43 321.502 247.43C321.276 247.43 321.094 247.613 321.094 247.839C321.094 248.065 321.276 248.248 321.502 248.248Z" fill="#626365"/>
<path d="M321.502 249.476C321.727 249.476 321.91 249.292 321.91 249.066C321.91 248.84 321.727 248.657 321.502 248.657C321.276 248.657 321.094 248.84 321.094 249.066C321.094 249.292 321.276 249.476 321.502 249.476Z" fill="#626365"/>
<path d="M188.902 253.909C192.207 253.909 194.886 251.222 194.886 247.907C194.886 244.593 192.207 241.906 188.902 241.906C185.597 241.906 182.918 244.593 182.918 247.907C182.918 251.222 185.597 253.909 188.902 253.909Z" fill="#DE051F"/>
<path d="M186.726 249.817C186.454 249.681 186.386 249.408 186.522 249.203C186.658 249.067 186.726 248.862 186.862 248.726C186.93 248.658 186.93 248.589 186.93 248.521C186.93 248.044 186.93 247.635 186.93 247.157C186.93 246.339 187.406 245.657 188.154 245.384C188.97 245.043 189.922 245.316 190.398 246.066C190.398 246.066 190.398 246.066 190.466 246.134C190.466 246.134 190.466 246.066 190.534 246.066C190.806 245.793 191.01 245.589 191.282 245.316C191.35 245.248 191.35 245.248 191.486 245.248C191.554 245.248 191.622 245.316 191.622 245.384C191.622 245.452 191.622 245.52 191.554 245.589C189.922 247.225 188.222 248.93 186.59 250.567L186.522 250.635C186.454 250.704 186.318 250.772 186.25 250.704C186.182 250.635 186.182 250.499 186.25 250.431C186.386 250.294 186.522 250.158 186.658 250.022C186.658 249.885 186.726 249.885 186.726 249.817ZM190.262 246.339C190.194 246.271 190.194 246.339 190.262 246.339C189.922 245.793 189.242 245.52 188.63 245.589C187.882 245.725 187.338 246.407 187.338 247.157C187.338 247.566 187.338 248.044 187.338 248.453C187.338 248.521 187.338 248.589 187.338 248.658C187.338 248.794 187.202 248.93 187.134 248.999C187.066 249.135 186.93 249.271 186.862 249.408C186.93 249.408 186.93 249.408 186.998 249.408C187.066 249.408 187.066 249.408 187.134 249.34C188.154 248.385 189.174 247.362 190.262 246.339C190.194 246.339 190.194 246.339 190.262 246.339Z" fill="white"/>
<path d="M189.854 249.885C189.718 250.431 189.242 250.704 188.834 250.635C188.426 250.635 188.018 250.363 187.95 249.885C187.882 249.885 187.814 249.885 187.814 249.885C187.882 249.817 187.95 249.749 188.018 249.681C188.086 249.612 188.154 249.544 188.222 249.476C188.29 249.476 188.358 249.476 188.494 249.476C189.31 249.476 190.126 249.476 190.942 249.476H191.01C191.01 249.408 190.942 249.408 190.942 249.34C190.874 249.203 190.738 249.067 190.67 248.93C190.602 248.794 190.534 248.658 190.534 248.453C190.534 248.044 190.534 247.566 190.534 247.157C190.534 247.157 190.534 247.089 190.602 247.089C190.67 246.953 190.806 246.884 190.942 246.748C190.942 246.816 190.942 246.953 190.942 247.021C190.942 247.498 190.942 247.976 190.942 248.385C190.942 248.521 190.942 248.589 191.01 248.658C191.146 248.794 191.214 248.999 191.35 249.135C191.418 249.271 191.418 249.408 191.35 249.544C191.282 249.681 191.146 249.749 191.01 249.749C190.602 249.885 190.262 249.885 189.854 249.885C189.922 249.885 189.922 249.885 189.854 249.885ZM188.358 249.885C188.426 250.09 188.698 250.294 188.902 250.294C189.106 250.294 189.378 250.09 189.446 249.885C189.106 249.885 188.766 249.885 188.358 249.885Z" fill="white"/>
<path fill-rule="evenodd" clip-rule="evenodd" d="M204.338 242.156C201.171 242.156 198.604 244.73 198.604 247.907C198.604 251.085 201.171 253.659 204.338 253.659C207.504 253.659 210.071 251.085 210.071 247.907C210.071 244.73 207.504 242.156 204.338 242.156ZM198.104 247.907C198.104 244.455 200.894 241.656 204.338 241.656C207.781 241.656 210.571 244.455 210.571 247.907C210.571 251.359 207.781 254.159 204.338 254.159C200.894 254.159 198.104 251.359 198.104 247.907Z" fill="#626365"/>
<path d="M206.514 249.203C206.378 249.203 206.242 249.135 206.106 249.067C205.97 248.998 205.766 248.862 205.63 248.794C205.426 248.657 205.29 248.453 205.29 248.18C205.29 248.112 205.29 248.044 205.29 248.044C204.678 247.703 204.066 247.703 203.454 248.044C203.454 248.112 203.454 248.18 203.454 248.248C203.454 248.521 203.318 248.726 203.114 248.862C202.978 248.93 202.842 248.998 202.706 249.067L202.57 249.135C202.298 249.271 201.958 249.271 201.754 249.067L201.618 248.93C201.482 248.794 201.482 248.657 201.482 248.453C201.482 248.316 201.482 248.18 201.482 248.112C201.482 247.975 201.55 247.839 201.618 247.703C201.754 247.566 201.958 247.43 202.094 247.293C202.842 246.816 203.658 246.543 204.542 246.611C205.494 246.68 206.378 247.089 207.058 247.771C207.194 247.907 207.194 248.044 207.194 248.18V248.589C207.194 248.726 207.194 248.794 207.126 248.93L207.058 248.998L206.922 249.135C206.854 249.135 206.854 249.203 206.786 249.203C206.718 249.203 206.582 249.203 206.514 249.203ZM204.338 247.498C204.746 247.498 205.086 247.566 205.494 247.771C205.562 247.839 205.63 247.907 205.63 247.975C205.63 248.044 205.63 248.112 205.63 248.18C205.63 248.316 205.698 248.453 205.834 248.521C205.97 248.589 206.174 248.726 206.31 248.794C206.446 248.862 206.582 248.862 206.718 248.794C206.718 248.794 206.786 248.794 206.786 248.726H206.854L206.922 248.657C206.922 248.589 206.99 248.589 206.99 248.521V248.112C206.99 248.044 206.99 247.975 206.922 247.975C206.31 247.362 205.494 246.952 204.61 246.952C203.794 246.884 203.046 247.089 202.366 247.566C202.162 247.703 202.026 247.839 201.89 247.975C201.822 248.044 201.822 248.044 201.822 248.112C201.822 248.248 201.822 248.385 201.822 248.453C201.822 248.521 201.822 248.589 201.89 248.657V248.726C202.026 248.862 202.23 248.862 202.366 248.794L202.502 248.726C202.638 248.657 202.774 248.589 202.842 248.521C202.978 248.453 203.046 248.316 203.046 248.18C203.046 248.112 203.046 248.044 203.046 247.975C203.046 247.839 203.114 247.771 203.182 247.771C203.59 247.566 203.93 247.498 204.338 247.498Z" fill="#DE051F"/>
<path d="M219.773 253.909C223.078 253.909 225.757 251.222 225.757 247.907C225.757 244.593 223.078 241.906 219.773 241.906C216.468 241.906 213.789 244.593 213.789 247.907C213.789 251.222 216.468 253.909 219.773 253.909Z" fill="#DE051F"/>
<path d="M217.801 249.749C217.393 249.681 217.189 249.408 217.189 249.067V246.816C217.189 246.407 217.461 246.134 217.869 246.134H220.657C221.065 246.134 221.337 246.407 221.337 246.816V247.157L222.357 246.612L222.765 246.407V249.408L222.629 249.34L221.881 248.93L221.405 248.658V248.726C221.405 248.862 221.405 248.999 221.405 249.135C221.405 249.408 221.201 249.612 220.929 249.749H220.793H217.801ZM217.869 246.543C217.665 246.543 217.597 246.612 217.597 246.816V249.067C217.597 249.271 217.665 249.34 217.869 249.34H220.657C220.861 249.34 220.929 249.271 220.929 249.067V246.816C220.929 246.612 220.861 246.543 220.657 246.543H217.869ZM221.337 247.635V247.907V248.18L221.949 248.521L222.289 248.726V247.089L221.337 247.635Z" fill="white"/>
<path d="M201.481 228.129V229.834H201.346V228.197H200.938V228.061H201.481V228.129Z" fill="#DE051F"/>
<path d="M201.889 229.016C201.889 228.47 202.161 228.129 202.569 228.129C202.977 228.129 203.249 228.47 203.249 229.016C203.249 229.562 202.977 229.903 202.569 229.903C202.161 229.903 201.889 229.562 201.889 229.016ZM203.113 229.016C203.113 228.539 202.909 228.266 202.569 228.266C202.229 228.266 202.025 228.539 202.025 229.016C202.025 229.493 202.229 229.766 202.569 229.766C202.909 229.766 203.113 229.493 203.113 229.016Z" fill="#DE051F"/>
<path d="M203.521 228.675C203.521 228.607 203.589 228.539 203.657 228.539C203.725 228.539 203.794 228.607 203.794 228.675C203.794 228.743 203.725 228.811 203.657 228.811C203.589 228.811 203.521 228.743 203.521 228.675ZM203.521 229.766C203.521 229.698 203.589 229.63 203.657 229.63C203.725 229.63 203.794 229.698 203.794 229.766C203.794 229.834 203.725 229.903 203.657 229.903C203.589 229.903 203.521 229.834 203.521 229.766Z" fill="#DE051F"/>
<path d="M203.998 229.016C203.998 228.47 204.27 228.129 204.678 228.129C205.086 228.129 205.358 228.47 205.358 229.016C205.358 229.562 205.086 229.903 204.678 229.903C204.27 229.903 203.998 229.562 203.998 229.016ZM205.222 229.016C205.222 228.539 205.018 228.266 204.678 228.266C204.338 228.266 204.134 228.539 204.134 229.016C204.134 229.493 204.338 229.766 204.678 229.766C205.018 229.766 205.222 229.493 205.222 229.016Z" fill="#DE051F"/>
<path d="M207.057 229.425H206.717V229.902H206.581V229.425H205.629V229.357L206.581 228.197H206.717L205.833 229.357H206.649V228.947H206.785V229.357H207.125V229.425H207.057Z" fill="#DE051F"/>
<path fill-rule="evenodd" clip-rule="evenodd" d="M89.3502 245.577C88.6716 245.577 88.1152 246.135 88.1152 246.816V250.704C88.1152 251.385 88.6716 251.943 89.3502 251.943H93.2262C93.9049 251.943 94.4612 251.385 94.4612 250.704V246.816C94.4612 246.135 93.9049 245.577 93.2262 245.577H89.3502ZM87.8652 246.816C87.8652 245.997 88.5329 245.327 89.3502 245.327H93.2262C94.0436 245.327 94.7112 245.997 94.7112 246.816V250.704C94.7112 251.522 94.0436 252.193 93.2262 252.193H89.3502C88.5329 252.193 87.8652 251.522 87.8652 250.704V246.816Z" fill="#DE051F"/>
<path fill-rule="evenodd" clip-rule="evenodd" d="M98.2584 245.577C97.5798 245.577 97.0234 246.135 97.0234 246.816V250.704C97.0234 251.385 97.5798 251.943 98.2584 251.943H102.134C102.813 251.943 103.369 251.385 103.369 250.704V246.816C103.369 246.135 102.813 245.577 102.134 245.577H98.2584ZM96.7734 246.816C96.7734 245.997 97.4411 245.327 98.2584 245.327H102.134C102.952 245.327 103.619 245.997 103.619 246.816V250.704C103.619 251.522 102.952 252.193 102.134 252.193H98.2584C97.4411 252.193 96.7734 251.522 96.7734 250.704V246.816Z" fill="#DE051F"/>
<path d="M92.4778 247.634H90.0978C89.8938 247.634 89.7578 247.771 89.7578 247.975V249.544C89.7578 249.748 89.8938 249.885 90.0978 249.885H90.3018V250.567L91.1178 249.885H92.4778C92.6818 249.885 92.8178 249.748 92.8178 249.544V247.975C92.8178 247.771 92.6138 247.634 92.4778 247.634ZM90.5058 249.066C90.3698 249.066 90.3018 248.93 90.3018 248.862C90.3018 248.725 90.4378 248.657 90.5058 248.657C90.6418 248.657 90.7098 248.794 90.7098 248.862C90.7098 248.93 90.6418 249.066 90.5058 249.066ZM91.2538 249.066C91.1178 249.066 91.0498 248.93 91.0498 248.862C91.0498 248.725 91.1858 248.657 91.2538 248.657C91.3218 248.657 91.4578 248.794 91.4578 248.862C91.4578 248.93 91.3898 249.066 91.2538 249.066ZM92.0018 249.066C91.8658 249.066 91.7978 248.93 91.7978 248.862C91.7978 248.725 91.9338 248.657 92.0018 248.657C92.0698 248.657 92.2058 248.794 92.2058 248.862C92.2738 248.93 92.1378 249.066 92.0018 249.066Z" fill="#DE051F"/>
<path d="M99.4808 249.544C99.4128 249.544 99.4128 249.544 99.4128 249.476C99.2088 247.975 100.365 247.43 100.365 247.43C100.433 247.43 100.433 247.43 100.433 247.498C100.433 247.566 100.433 247.566 100.365 247.566C100.297 247.566 99.3448 248.044 99.4808 249.408C99.5488 249.544 99.5488 249.544 99.4808 249.544Z" fill="#DE051F"/>
<path d="M99.4815 249.544L98.9375 248.93C98.9375 248.93 98.9375 248.862 98.9375 248.793C98.9375 248.793 99.0055 248.793 99.0735 248.793L99.4815 249.271L99.8215 248.793C99.8215 248.793 99.8895 248.725 99.9575 248.793C99.9575 248.793 100.026 248.862 99.9575 248.93L99.4815 249.544C99.5495 249.544 99.5495 249.544 99.4815 249.544Z" fill="#DE051F"/>
<path d="M100.23 249.953C100.23 249.953 100.162 249.953 100.162 249.885C100.162 249.817 100.162 249.817 100.23 249.817C100.298 249.817 101.25 249.339 101.114 247.975C101.114 247.907 101.114 247.907 101.182 247.907C101.25 247.907 101.25 247.907 101.25 247.975C101.454 249.476 100.298 249.953 100.23 249.953Z" fill="#DE051F"/>
<path d="M100.775 248.589C100.707 248.589 100.707 248.589 100.775 248.589C100.707 248.521 100.707 248.521 100.707 248.453L101.115 247.907H101.183H101.251L101.727 248.453C101.727 248.453 101.727 248.521 101.727 248.589C101.727 248.589 101.659 248.589 101.591 248.589L101.183 248.112L100.775 248.589Z" fill="#DE051F"/>
<path d="M216.311 235.887C216.198 235.938 216.059 235.988 215.896 236.038C215.733 236.089 215.561 236.114 215.381 236.114C215.263 236.114 215.152 236.099 215.047 236.07C214.947 236.04 214.857 235.994 214.777 235.931C214.702 235.864 214.641 235.78 214.595 235.68C214.549 235.575 214.526 235.449 214.526 235.303V233.411H214.092V232.763H214.526V231.694H215.368V232.763H216.059V233.411H215.368V235.02C215.368 235.137 215.397 235.221 215.456 235.271C215.519 235.317 215.594 235.34 215.682 235.34C215.77 235.34 215.856 235.326 215.94 235.296C216.024 235.267 216.091 235.242 216.141 235.221L216.311 235.887Z" fill="#DE051F"/>
<path d="M213.868 233.492C213.612 233.497 213.384 233.547 213.182 233.643C212.981 233.736 212.837 233.876 212.749 234.065V236.057H211.906V232.763H212.679V233.467C212.738 233.354 212.807 233.254 212.887 233.166C212.967 233.073 213.052 232.994 213.145 232.927C213.237 232.86 213.329 232.809 213.421 232.776C213.518 232.738 213.61 232.719 213.698 232.719C213.744 232.719 213.778 232.719 213.798 232.719C213.824 232.719 213.847 232.721 213.868 232.726V233.492Z" fill="#DE051F"/>
<path d="M209.615 236.12C209.347 236.12 209.106 236.074 208.893 235.982C208.679 235.89 208.496 235.766 208.346 235.611C208.199 235.452 208.086 235.269 208.006 235.064C207.927 234.859 207.887 234.643 207.887 234.416C207.887 234.186 207.927 233.968 208.006 233.763C208.086 233.557 208.199 233.377 208.346 233.222C208.496 233.063 208.679 232.937 208.893 232.845C209.106 232.753 209.347 232.707 209.615 232.707C209.884 232.707 210.123 232.753 210.332 232.845C210.546 232.937 210.726 233.063 210.873 233.222C211.024 233.377 211.139 233.557 211.219 233.763C211.298 233.968 211.338 234.186 211.338 234.416C211.338 234.643 211.298 234.859 211.219 235.064C211.139 235.269 211.026 235.452 210.879 235.611C210.732 235.766 210.552 235.89 210.338 235.982C210.125 236.074 209.884 236.12 209.615 236.12ZM208.754 234.416C208.754 234.563 208.775 234.697 208.817 234.819C208.863 234.936 208.924 235.039 208.999 235.127C209.079 235.215 209.171 235.284 209.276 235.334C209.381 235.38 209.494 235.403 209.615 235.403C209.737 235.403 209.85 235.38 209.955 235.334C210.06 235.284 210.15 235.215 210.225 235.127C210.305 235.039 210.366 234.934 210.408 234.812C210.454 234.691 210.477 234.557 210.477 234.41C210.477 234.268 210.454 234.136 210.408 234.014C210.366 233.893 210.305 233.788 210.225 233.7C210.15 233.612 210.06 233.545 209.955 233.499C209.85 233.448 209.737 233.423 209.615 233.423C209.494 233.423 209.381 233.448 209.276 233.499C209.171 233.549 209.079 233.618 208.999 233.706C208.924 233.794 208.863 233.899 208.817 234.02C208.775 234.142 208.754 234.274 208.754 234.416Z" fill="#DE051F"/>
<path d="M206.083 236.12C205.823 236.12 205.597 236.063 205.404 235.95C205.212 235.833 205.061 235.676 204.952 235.479V237.396H204.109V232.763H204.845V233.329C204.966 233.136 205.124 232.985 205.316 232.876C205.509 232.763 205.731 232.707 205.983 232.707C206.205 232.707 206.41 232.753 206.599 232.845C206.787 232.933 206.949 233.054 207.083 233.209C207.221 233.36 207.328 233.541 207.403 233.75C207.483 233.955 207.523 234.173 207.523 234.404C207.523 234.643 207.487 234.867 207.416 235.077C207.345 235.286 207.244 235.468 207.114 235.623C206.989 235.778 206.838 235.9 206.662 235.988C206.486 236.076 206.293 236.12 206.083 236.12ZM205.8 235.403C205.926 235.403 206.041 235.376 206.146 235.322C206.255 235.267 206.347 235.194 206.423 235.102C206.498 235.009 206.557 234.903 206.599 234.781C206.641 234.66 206.662 234.534 206.662 234.404C206.662 234.266 206.639 234.138 206.593 234.02C206.546 233.899 206.481 233.794 206.398 233.706C206.318 233.618 206.222 233.549 206.108 233.499C205.999 233.448 205.88 233.423 205.75 233.423C205.67 233.423 205.589 233.438 205.505 233.467C205.421 233.492 205.344 233.53 205.272 233.58C205.201 233.631 205.136 233.689 205.077 233.756C205.023 233.823 204.981 233.897 204.952 233.976V234.75C205.027 234.938 205.142 235.095 205.298 235.221C205.453 235.343 205.62 235.403 205.8 235.403Z" fill="#DE051F"/>
<path d="M202.099 236.12C201.839 236.12 201.613 236.063 201.42 235.95C201.227 235.833 201.076 235.676 200.967 235.479V237.396H200.125V232.763H200.861V233.329C200.982 233.136 201.139 232.985 201.332 232.876C201.525 232.763 201.747 232.707 201.998 232.707C202.22 232.707 202.426 232.753 202.614 232.845C202.803 232.933 202.964 233.054 203.098 233.209C203.237 233.36 203.344 233.541 203.419 233.75C203.499 233.955 203.539 234.173 203.539 234.404C203.539 234.643 203.503 234.867 203.432 235.077C203.36 235.286 203.26 235.468 203.13 235.623C203.004 235.778 202.853 235.9 202.677 235.988C202.501 236.076 202.308 236.12 202.099 236.12ZM201.816 235.403C201.942 235.403 202.057 235.376 202.162 235.322C202.271 235.267 202.363 235.194 202.438 235.102C202.514 235.009 202.573 234.903 202.614 234.781C202.656 234.66 202.677 234.534 202.677 234.404C202.677 234.266 202.654 234.138 202.608 234.02C202.562 233.899 202.497 233.794 202.413 233.706C202.334 233.618 202.237 233.549 202.124 233.499C202.015 233.448 201.896 233.423 201.766 233.423C201.686 233.423 201.604 233.438 201.521 233.467C201.437 233.492 201.359 233.53 201.288 233.58C201.217 233.631 201.152 233.689 201.093 233.756C201.039 233.823 200.997 233.897 200.967 233.976V234.75C201.043 234.938 201.158 235.095 201.313 235.221C201.468 235.343 201.636 235.403 201.816 235.403Z" fill="#DE051F"/>
<path d="M197.244 236.12C196.905 236.12 196.647 236.011 196.471 235.793C196.295 235.575 196.207 235.253 196.207 234.825V232.763H197.049V234.643C197.049 235.15 197.232 235.403 197.596 235.403C197.76 235.403 197.917 235.355 198.068 235.259C198.223 235.158 198.349 235.007 198.445 234.806V232.763H199.287V235.089C199.287 235.177 199.302 235.24 199.331 235.278C199.365 235.315 199.417 235.336 199.489 235.341V236.057C199.405 236.074 199.333 236.084 199.275 236.089C199.22 236.093 199.17 236.095 199.124 236.095C198.973 236.095 198.849 236.061 198.753 235.994C198.661 235.923 198.606 235.827 198.59 235.705L198.571 235.441C198.424 235.668 198.235 235.837 198.005 235.95C197.774 236.064 197.521 236.12 197.244 236.12Z" fill="#DE051F"/>
<path d="M195.125 232.763C195.095 232.734 195.041 232.694 194.961 232.644C194.886 232.593 194.792 232.545 194.678 232.499C194.569 232.449 194.45 232.407 194.32 232.373C194.19 232.34 194.058 232.323 193.924 232.323C193.685 232.323 193.507 232.367 193.39 232.455C193.272 232.543 193.214 232.667 193.214 232.826C193.214 232.918 193.235 232.996 193.277 233.059C193.323 233.117 193.388 233.17 193.471 233.216C193.555 233.262 193.66 233.304 193.786 233.342C193.916 233.379 194.064 233.419 194.232 233.461C194.45 233.52 194.647 233.583 194.823 233.65C195.003 233.717 195.154 233.8 195.276 233.901C195.401 234.002 195.498 234.123 195.565 234.266C195.632 234.404 195.665 234.576 195.665 234.781C195.665 235.02 195.619 235.225 195.527 235.397C195.439 235.565 195.317 235.701 195.162 235.806C195.012 235.911 194.836 235.988 194.634 236.038C194.437 236.085 194.23 236.108 194.012 236.108C193.677 236.108 193.346 236.057 193.019 235.957C192.692 235.856 192.399 235.714 192.139 235.529L192.522 234.781C192.56 234.819 192.627 234.869 192.723 234.932C192.824 234.991 192.941 235.051 193.075 235.114C193.209 235.173 193.358 235.223 193.522 235.265C193.685 235.307 193.853 235.328 194.025 235.328C194.502 235.328 194.741 235.175 194.741 234.869C194.741 234.773 194.714 234.691 194.66 234.624C194.605 234.557 194.528 234.498 194.427 234.448C194.326 234.398 194.205 234.352 194.062 234.31C193.92 234.268 193.761 234.222 193.585 234.171C193.371 234.113 193.184 234.05 193.025 233.983C192.87 233.912 192.74 233.83 192.635 233.738C192.531 233.641 192.451 233.532 192.396 233.411C192.346 233.285 192.321 233.136 192.321 232.964C192.321 232.738 192.363 232.537 192.447 232.361C192.531 232.185 192.646 232.038 192.792 231.921C192.943 231.803 193.117 231.715 193.314 231.657C193.511 231.594 193.723 231.562 193.949 231.562C194.263 231.562 194.553 231.613 194.817 231.713C195.081 231.81 195.311 231.925 195.508 232.059L195.125 232.763Z" fill="#DE051F"/>
<path d="M321.231 126.238H273.971V165.999H321.231V126.238Z" fill="#F5F5F5"/>
<path d="M321.23 165.999C321.23 165.999 321.23 165.931 321.23 165.794C321.23 165.658 321.23 165.453 321.23 165.249C321.23 164.771 321.23 164.021 321.23 163.066C321.23 161.157 321.23 158.361 321.162 154.882C321.162 147.858 321.094 137.969 321.094 126.238L321.298 126.307C306.95 126.307 290.902 126.307 274.106 126.307L274.31 126.17C274.31 141.106 274.31 154.951 274.242 165.931L274.106 165.863C288.454 165.863 300.218 165.931 308.446 165.931C312.526 165.931 315.79 165.931 317.966 165.931C319.054 165.931 319.87 165.931 320.482 165.931C320.89 165.999 321.23 165.999 321.23 165.999C321.23 165.999 320.958 165.999 320.414 165.999C319.87 165.999 318.986 165.999 317.966 165.999C315.79 165.999 312.594 165.999 308.514 165.999C300.286 165.999 288.454 165.999 274.038 166.067H273.902V165.999C273.902 155.019 273.902 141.174 273.834 126.238V126.102H274.038C290.902 126.102 306.882 126.102 321.23 126.102H321.434V126.17C321.366 137.901 321.366 147.858 321.366 154.882C321.366 158.361 321.298 161.157 321.298 163.066C321.298 164.021 321.298 164.703 321.298 165.249C321.298 165.522 321.298 165.658 321.298 165.794C321.23 165.931 321.23 165.999 321.23 165.999Z" fill="#263238"/>
<path d="M286.619 164.499C285.327 163.885 284.443 162.521 284.443 161.089C284.443 159.657 285.327 158.293 286.619 157.679C286.823 157.542 287.095 157.474 287.299 157.27C287.571 156.929 287.435 156.519 287.435 156.11C287.435 155.087 288.387 154.132 289.475 154.132L295.595 156.519V162.93L286.619 164.499Z" fill="#180857"/>
<path d="M273.971 165.931C273.971 165.931 288.931 162.385 294.507 161.498C300.083 160.68 306.271 161.498 306.271 161.498C306.271 161.498 318.443 163.68 321.231 165.113L321.299 165.999H305.183L273.971 165.931Z" fill="#FCBE42"/>
<path d="M308.583 136.196C307.971 134.559 305.251 133.195 303.755 132.377C301.511 131.149 299.471 131.49 298.247 132.649C295.867 130.808 292.807 129.035 289.951 129.921C287.095 130.808 284.851 133.809 285.463 136.741C285.803 138.446 287.095 140.015 287.095 141.788C287.095 143.016 286.483 144.107 286.007 145.198C285.531 146.289 285.191 147.585 285.667 148.676C286.143 149.699 287.163 150.313 287.775 151.268C288.251 152.018 288.387 152.973 288.727 153.86C289.951 156.997 293.759 158.702 297.091 158.02C300.423 157.338 303.075 154.746 304.571 151.677C306.067 148.608 306.475 145.198 306.543 141.788" fill="#180857"/>
<path d="M306.271 162.453L306.135 138.583L296.139 135.514C293.079 135.104 290.223 137.287 289.951 140.424C289.611 144.107 289.271 148.744 289.679 151.609C290.359 157.133 294.507 157.951 294.507 157.951C294.507 157.951 294.507 159.997 294.439 162.384C294.439 163.748 294.847 164.976 295.595 165.999H305.115C305.863 164.976 306.271 163.748 306.271 162.453Z" fill="#FFBE9D"/>
<path d="M296.07 134.696C298.994 132.65 303.074 132.377 306.134 134.15C309.262 135.991 310.894 138.651 311.098 142.948V148.472C310.962 150.995 311.506 152.496 310.214 152.905C308.514 153.519 307.222 158.088 305.726 157.747C303.958 156.315 303.89 155.497 303.822 152.632C303.754 149.563 302.802 145.88 304.026 143.903C300.082 142.743 296.886 138.924 296.274 134.559" fill="#180857"/>
<path d="M191.418 167.431C191.418 167.431 191.35 171.25 189.718 172.887C188.018 174.524 185.842 177.252 185.842 177.252C185.842 177.252 189.582 183.39 197.266 182.64C204.95 181.89 206.446 176.434 206.446 176.434C206.446 176.434 199.17 175.342 198.49 168.454C197.81 161.566 196.654 161.566 196.654 161.566L191.418 167.431Z" fill="#FFB07E"/>
<path d="M185.979 152.086C185.979 152.086 186.115 160.884 190.127 167.84C194.139 174.796 199.171 170.977 201.143 167.431C203.115 163.884 208.487 152.427 207.467 149.358C206.447 146.289 191.351 144.72 191.351 144.72L185.979 152.086Z" fill="#FFBF99"/>
<path d="M205.427 157.337C205.427 157.337 207.671 155.701 207.603 157.337C207.603 158.974 206.447 161.429 205.087 161.702C203.727 161.975 203.999 161.157 204.271 160.065C204.543 158.974 205.427 157.337 205.427 157.337Z" fill="#FFBF99"/>
<path d="M186.523 160.543C187.135 160.815 187.747 160.884 187.815 159.997C187.815 158.36 186.795 155.837 185.435 155.564C184.075 155.291 184.347 156.11 184.619 157.201C184.687 157.61 184.891 158.019 185.027 158.429C185.299 159.247 186.047 160.27 186.523 160.543Z" fill="#FFBF99"/>
<path d="M186.386 156.11L186.182 153.382C186.182 153.382 188.63 153.723 191.418 150.995C191.418 150.995 196.79 152.291 201.006 151.95C205.562 151.609 207.534 150.381 207.534 150.381C207.534 150.381 206.718 155.564 205.902 157.065C205.902 157.065 208.078 156.178 208.962 153.723C209.846 151.268 209.71 148.608 209.71 148.608C209.71 148.608 212.77 146.153 213.654 143.425C213.654 143.425 205.426 141.379 202.978 139.674C200.53 137.969 199.17 136.877 199.17 136.877C199.17 136.877 195.362 134.627 191.486 137.559C187.61 140.56 185.094 142.129 185.026 147.38C184.958 147.448 181.354 152.291 186.386 156.11Z" fill="#170856"/>
<path d="M226.233 170.773C225.485 169.682 225.077 165.249 224.125 165.453C222.901 165.794 224.601 170.5 224.737 170.909C224.873 171.319 224.261 171.523 224.125 171.114C223.989 170.568 222.697 164.976 221.541 165.385C220.929 165.59 221.337 166.817 221.337 166.817C221.337 166.817 223.241 172.205 222.697 172.41C222.153 172.614 221.065 169.409 220.725 168.318C220.385 167.227 219.841 166.954 219.433 167.431C219.025 167.977 220.045 171.182 220.385 172.273C220.725 173.365 221.677 176.297 219.977 175.206C218.345 174.115 216.645 173.842 216.169 174.115C215.693 174.388 215.829 175.138 216.441 175.206C216.917 175.274 217.733 175.683 218.277 175.956C218.753 176.229 219.161 176.57 219.569 176.979C219.841 177.252 220.385 177.798 220.861 178.616C221.405 179.571 222.289 180.253 223.377 180.526L223.853 182.572L229.497 180.457L228.545 176.57C227.797 173.637 227.797 171.523 227.593 169.682C227.321 166.749 226.913 166.817 226.641 166.886C225.757 167.158 226.913 171.796 226.233 170.773Z" fill="#FFBF99"/>
<path d="M204.134 175.342L210.798 177.183C213.314 178.138 215.49 181.139 217.054 183.39L224.602 193.961C224.534 192.256 221.406 181.821 221.202 181.344L230.45 177.524C230.45 177.524 239.97 198.803 238.678 207.942C237.59 215.58 229.838 215.648 229.838 215.648C228.138 215.512 226.506 214.83 225.214 213.67L212.702 203.031L212.838 215.239L215.286 215.444L214.606 224.514H175.914V224.31C173.534 222.264 172.038 219.195 171.562 215.853C170.61 209.783 170.27 199.962 169.454 192.938C168.842 188.027 169.93 181.685 174.282 179.366L177.682 178.07L188.29 173.91C188.29 173.91 189.31 173.228 191.282 173.637C193.254 174.046 197.674 174.455 199.102 174.114C201.21 173.637 204.134 175.342 204.134 175.342Z" fill="#0083F9"/>
<path d="M215.151 217.285L214.471 224.651H217.939C218.007 224.651 219.435 224.651 220.999 224.583C222.155 224.719 223.991 224.719 224.535 224.651C224.603 224.651 224.671 224.651 224.671 224.583C224.671 224.583 224.943 224.583 225.215 224.446C225.555 224.31 225.827 224.105 225.827 223.764C225.691 222.741 225.079 222.605 225.079 222.605C225.079 222.605 224.943 222.605 224.739 222.605V222.537C225.215 222.537 225.623 222.537 225.827 222.469C225.895 222.469 225.963 222.469 225.963 222.4C225.963 222.4 227.187 222.264 227.119 221.582C226.983 220.559 226.371 220.423 226.371 220.423C226.371 220.423 225.963 220.423 225.351 220.354C225.827 220.354 226.235 220.354 226.507 220.354C226.575 220.354 226.643 220.354 226.643 220.286C226.643 220.286 227.867 220.15 227.799 219.468C227.663 218.445 227.051 218.308 227.051 218.308C227.051 218.308 226.711 218.308 226.235 218.24C226.643 218.24 226.983 218.24 227.119 218.172C227.187 218.172 227.255 218.172 227.255 218.104C227.255 218.104 228.479 217.967 228.411 217.285C228.275 216.262 227.663 216.126 227.663 216.126C227.663 216.126 225.759 215.99 224.399 215.921C224.399 215.921 222.903 214.557 222.291 214.626C221.407 214.694 216.239 216.603 216.239 216.603L215.151 217.285Z" fill="#FFBF99"/>
<path d="M215.287 215.58C215.287 215.58 215.219 215.58 215.151 215.58C215.083 215.58 214.947 215.58 214.743 215.58C214.403 215.58 213.927 215.512 213.315 215.512C212.023 215.444 210.187 215.308 207.943 215.171C203.455 214.898 197.199 214.489 190.331 214.148C189.039 214.08 187.815 214.012 186.659 214.012H186.591V213.944C186.523 212.443 186.387 210.943 186.319 209.579C186.183 208.147 186.115 206.851 185.979 205.555C185.775 203.032 185.571 200.713 185.367 198.803C185.231 196.894 185.095 195.393 184.959 194.302C184.891 193.756 184.891 193.347 184.891 193.074C184.891 192.938 184.891 192.87 184.891 192.733C184.891 192.802 184.891 192.938 184.959 193.074C184.959 193.347 185.027 193.756 185.095 194.302C185.231 195.393 185.367 196.894 185.571 198.803C185.775 200.713 185.979 202.963 186.183 205.555C186.319 206.851 186.387 208.215 186.523 209.579C186.659 211.011 186.795 212.443 186.863 213.944L186.795 213.875C187.951 213.944 189.243 214.012 190.467 214.012C197.335 214.353 203.591 214.762 208.079 215.103C210.323 215.239 212.159 215.376 213.451 215.512C214.063 215.58 214.539 215.58 214.879 215.649C215.015 215.649 215.151 215.649 215.287 215.717C215.219 215.58 215.287 215.58 215.287 215.58Z" fill="#455A64"/>
<path d="M206.582 200.031L198.83 204.532C198.218 204.873 197.402 204.873 196.79 204.532L189.038 200.031C188.426 199.69 188.018 199.008 188.018 198.258V189.255C188.018 188.505 188.426 187.823 189.038 187.482L196.79 182.981C197.402 182.64 198.218 182.64 198.83 182.981L206.582 187.482C207.194 187.823 207.602 188.505 207.602 189.255V198.258C207.602 199.008 207.194 199.69 206.582 200.031Z" fill="white"/>
<path d="M197.809 193.756L204.677 189.733L197.809 186.05V193.756Z" fill="#0A489B"/>
<path d="M197.809 201.327L190.941 197.439V189.733L197.809 186.05V201.327Z" fill="#0F68DE"/>
<path d="M197.809 193.756L190.941 189.733L197.809 186.05V193.756Z" fill="#0F68DE"/>
<path d="M197.809 201.531L190.941 197.439L197.809 193.756V201.531Z" fill="#3F86E4"/>
</svg>
