<svg width="40" height="39" viewBox="0 0 40 39" fill="none" xmlns="http://www.w3.org/2000/svg">
<path d="M15.3859 39.0002C15.0115 38.7479 14.9464 38.4141 15.0115 37.9827C15.4429 35.3127 15.8988 32.6427 16.2407 29.9564C16.379 28.8493 16.2814 27.7097 16.2651 26.5863C16.2651 26.4805 16.0941 26.3339 15.972 26.277C14.4172 25.5525 12.8543 24.8361 11.2914 24.1198C10.6239 23.8186 10.5262 23.6151 10.746 22.915C10.8437 22.6057 10.9414 22.2964 11.039 21.987C11.2344 21.3928 11.4705 21.2544 12.0728 21.4009C13.766 21.808 15.4592 22.215 17.1605 22.6301C17.3396 22.6708 17.5268 22.7115 17.8036 22.7685C17.2094 22.1336 16.8837 21.4742 16.9244 20.6765C16.9651 19.895 17.2826 19.2356 17.9013 18.7472C18.9188 17.9332 20.3841 18.0065 21.3202 18.9019C22.3703 19.9113 22.3784 21.23 21.2876 22.7604C21.8574 22.6301 22.3784 22.5162 22.8913 22.3859C24.2588 22.0603 25.6264 21.7266 26.9939 21.4009C27.6126 21.2544 27.865 21.3928 28.044 22.0115C28.1417 22.3452 28.2394 22.6871 28.3371 23.0209C28.4918 23.5744 28.3941 23.8186 27.865 24.0547C26.2857 24.7873 24.6984 25.5199 23.111 26.2363C22.8506 26.3502 22.7773 26.4968 22.761 26.7817C22.5901 29.5005 23.1273 32.1461 23.5343 34.7998C23.7053 35.8988 23.8681 36.9896 24.0553 38.0885C24.1204 38.4874 23.9739 38.7641 23.6646 38.9839C22.6389 38.9839 21.6051 38.9839 20.5794 38.9839C20.4248 38.7153 20.2131 38.4629 20.1317 38.1699C19.9933 37.6489 19.9363 37.1117 19.8387 36.5744C19.7491 36.086 19.6514 35.5976 19.5619 35.1092C19.2933 36.0941 19.1142 37.071 18.9432 38.0559C18.8781 38.4222 18.813 38.7723 18.463 38.9839C17.4454 39.0002 16.4197 39.0002 15.3859 39.0002ZM22.6715 37.7059C22.4435 36.2488 22.2726 34.8242 22.004 33.416C21.5318 30.982 21.4097 28.5318 21.483 26.0653C21.4911 25.7316 21.6295 25.4955 21.9307 25.3653C22.24 25.2269 22.5494 25.0885 22.8506 24.942C24.1286 24.3559 25.3985 23.7616 26.6765 23.1755C26.8556 23.0941 27.0591 23.0371 26.8556 22.7604C26.0415 22.9639 25.2112 23.1674 24.3891 23.3709C23.4448 23.5988 22.5005 23.9814 21.5481 24.0221C19.4072 24.1035 17.2501 24.2175 15.158 23.5093C14.1893 23.1837 13.1718 23.0127 12.195 22.7767C11.9914 23.086 12.2357 23.1267 12.3903 23.1999C13.937 23.9163 15.4836 24.6245 17.0303 25.3327C17.3152 25.4629 17.5675 25.6257 17.5675 25.9758C17.5757 27.3596 17.6652 28.7435 17.535 30.1192C17.3559 31.9345 16.9977 33.7334 16.7209 35.5324C16.607 36.2488 16.5012 36.9651 16.3953 37.7059C16.7616 37.7059 17.071 37.6896 17.3803 37.714C17.6164 37.7303 17.7059 37.6489 17.7466 37.4128C18.1129 35.3208 18.4955 33.2369 18.87 31.1448C18.9514 30.6809 19.1549 30.4611 19.5212 30.4611C19.8956 30.4611 20.0991 30.6809 20.1806 31.1367C20.555 33.2369 20.9295 35.3452 21.3283 37.4454C21.3446 37.5512 21.5156 37.6978 21.6214 37.7059C21.9551 37.7222 22.297 37.7059 22.6715 37.7059ZM20.8318 20.8149C20.8399 20.1066 20.262 19.5205 19.5538 19.5043C18.8455 19.488 18.2513 20.0659 18.235 20.7741C18.2187 21.4986 18.8048 22.101 19.5293 22.101C20.2375 22.101 20.8236 21.5231 20.8318 20.8149Z" fill="white"/>
<path d="M39.0323 9.10116C38.9021 9.58144 38.8044 10.0699 38.6335 10.5338C37.738 12.9678 35.1739 14.5633 32.6422 14.2784C29.899 13.969 27.7744 11.9503 27.3999 9.30467C26.9522 6.12997 29.1419 3.12621 32.2352 2.68663C35.532 2.2145 38.4462 4.33911 38.9591 7.57893C38.9672 7.65219 39.0079 7.72546 39.0323 7.80686C39.0323 8.23015 39.0323 8.66973 39.0323 9.10116ZM34.368 12.8457C36.3786 12.5201 37.8927 10.3548 37.7299 8.03479C37.5671 5.78807 35.589 3.9728 33.2528 3.93209C31.2014 3.89139 29.0442 5.56015 28.8652 7.29402C29.3617 7.2696 29.8583 7.19634 30.3467 7.22076C30.8351 7.24518 31.3235 7.37543 31.8038 7.46497C32.1701 5.95902 33.0085 5.21012 34.2377 5.29152C35.3448 5.36478 36.2565 6.22765 36.3461 7.30216C36.4682 8.64531 35.7844 9.44305 34.1889 9.86635C34.2784 10.3548 34.425 10.8432 34.4575 11.3397C34.4901 11.82 34.4087 12.3166 34.368 12.8457ZM33.2446 11.6002C33.1876 9.39421 30.9979 7.86384 28.9628 8.64531C28.7675 8.71857 28.6128 8.77555 28.6454 9.06046C28.9059 11.0711 30.5827 12.7561 32.5853 12.9678C32.6992 12.9759 32.8946 12.862 32.9353 12.7643C33.0655 12.3817 33.1469 11.991 33.2446 11.6002ZM34.0749 8.44994C34.6203 8.4418 35.0518 8.00223 35.0436 7.46497C35.0355 6.93585 34.5715 6.48814 34.0424 6.50442C33.5214 6.5207 33.0899 6.96841 33.0981 7.47311C33.1144 8.03479 33.5377 8.45808 34.0749 8.44994Z" fill="white"/>
<path d="M7.56664e-05 8.43332C0.0163562 5.16908 2.63752 2.58048 5.91805 2.59676C9.14159 2.61304 11.7465 5.25862 11.7302 8.49845C11.7139 11.7139 9.06833 14.3106 5.81222 14.2943C2.59682 14.2862 -0.0162049 11.6569 7.56664e-05 8.43332ZM10.2649 7.35067C9.74397 5.12024 7.59494 3.70383 5.25055 3.97246C3.05267 4.22481 1.3188 6.23545 1.33508 8.49845C1.35136 10.5254 2.98755 12.6011 4.69701 12.7802C4.66445 12.2918 4.5749 11.7871 4.60746 11.2987C4.64003 10.794 4.78655 10.2974 4.87609 9.80089C3.42713 9.52412 2.67822 8.72637 2.70264 7.47277C2.7352 6.38198 3.57365 5.42143 4.64003 5.29118C5.19356 5.21792 5.71454 5.3156 6.19482 5.61679C6.8786 6.05637 7.19607 6.71573 7.27747 7.52976C8.26244 7.14716 9.23927 7.10646 10.2649 7.35067ZM9.06833 8.4089C6.8786 8.44961 5.34009 10.6638 6.11341 12.6907C6.19482 12.9023 6.27622 13.0163 6.54485 12.9837C8.57177 12.707 10.1998 11.0626 10.3952 9.06012C10.4033 8.94616 10.2894 8.74265 10.1917 8.71009C9.83351 8.57171 9.45092 8.49845 9.06833 8.4089ZM4.96564 8.48217C5.51103 8.49031 5.95061 8.05887 5.95875 7.52162C5.96689 6.98436 5.51917 6.54478 4.98192 6.54478C4.4528 6.54478 4.02951 6.95994 4.01323 7.48091C3.99694 8.03445 4.42024 8.47403 4.96564 8.48217Z" fill="white"/>
<path d="M19.5527 0C22.7437 0 25.373 2.62117 25.3812 5.80401C25.3893 9.05197 22.7844 11.6894 19.5609 11.6976C16.3048 11.7057 13.6836 9.07639 13.6836 5.81215C13.6917 2.61302 16.321 0 19.5527 0ZM23.4031 8.15654C24.4532 6.66688 24.3718 3.96431 22.4181 2.35254C20.554 0.814026 17.7781 1.02567 16.1501 2.82467C14.5872 4.55041 14.7744 7.06575 15.678 8.14026C16.1908 7.24483 16.9478 6.60989 17.884 6.17846C17.013 4.98998 17.0455 3.78522 17.9491 2.92235C18.7794 2.13275 20.0656 2.08391 20.9528 2.81653C21.946 3.63056 22.0274 4.84346 21.1808 6.17032C22.125 6.58547 22.874 7.24483 23.4031 8.15654ZM19.5446 10.4033C20.5051 10.387 21.4006 10.1021 22.2146 9.53225C22.4669 9.35316 22.4995 9.19036 22.3611 8.92987C21.7669 7.80651 20.847 7.17157 19.569 7.16343C18.2747 7.14715 17.3386 7.77395 16.7199 8.90545C16.549 9.21478 16.6222 9.38572 16.899 9.56481C17.6886 10.0939 18.5596 10.3788 19.5446 10.4033ZM19.4957 5.5191C20.0249 5.52724 20.4807 5.08766 20.4889 4.55041C20.497 4.02129 20.0411 3.56544 19.512 3.56544C18.991 3.56544 18.5596 3.98059 18.5515 4.50971C18.5352 5.07138 18.9503 5.51096 19.4957 5.5191Z" fill="white"/>
<path d="M15.8978 14.6114C15.8246 14.1882 15.7513 13.7893 15.6699 13.309C16.5165 13.2113 17.3387 13.1136 18.2178 13.0078C18.2504 13.4637 18.2829 13.8707 18.3155 14.3184C17.5096 14.4242 16.7282 14.5138 15.8978 14.6114Z" fill="white"/>
<path d="M0.529297 25.9926C0.838627 25.1378 1.12354 24.3401 1.43287 23.4854C1.87244 23.6889 2.23875 23.8679 2.60506 24.0389C2.32829 24.8204 2.05967 25.5611 1.7829 26.3344C1.4003 26.2286 1.00957 26.1228 0.529297 25.9926Z" fill="white"/>
<path d="M3.81866 21.9793C3.46048 21.7351 3.12673 21.5071 2.74414 21.2467C3.29768 20.5629 3.8268 19.9116 4.38033 19.2197C4.72222 19.5453 5.01527 19.8302 5.33274 20.1314C4.82805 20.742 4.33963 21.3443 3.81866 21.9793Z" fill="white"/>
<path d="M32.7495 17.4363C32.4401 17.8189 32.1878 18.1363 31.9354 18.4457C31.2679 17.9817 30.6249 17.5421 29.9492 17.0781C30.1527 16.7281 30.3644 16.3699 30.6004 15.9629C31.3249 16.4594 32.0168 16.9397 32.7495 17.4363Z" fill="white"/>
<path d="M25.5117 15.1328C25.6338 14.7177 25.7478 14.3432 25.878 13.8955C26.6921 14.1886 27.4817 14.4735 28.3038 14.7747C28.1247 15.198 27.9619 15.5643 27.791 15.9631C27.0339 15.6945 26.2932 15.4177 25.5117 15.1328Z" fill="white"/>
<path d="M13.5206 15.1491C12.7636 15.4259 12.031 15.6945 11.2495 15.9794C11.0867 15.6131 10.9239 15.2387 10.7285 14.7909C11.5344 14.4897 12.324 14.2048 13.1462 13.8955C13.2764 14.3432 13.3904 14.7258 13.5206 15.1491Z" fill="white"/>
<path d="M36.3051 21.2131C35.9143 21.4818 35.5806 21.7097 35.2387 21.9457C34.734 21.3271 34.2456 20.7247 33.7246 20.0816C34.0095 19.813 34.3107 19.5281 34.6689 19.1943C35.2061 19.87 35.7353 20.5212 36.3051 21.2131Z" fill="white"/>
<path d="M20.75 14.3109C20.7826 13.8795 20.807 13.4806 20.8477 13.0166C21.6943 13.1143 22.5164 13.2038 23.3712 13.3015C23.2979 13.7574 23.2409 14.1481 23.1758 14.5795C22.3699 14.49 21.5884 14.4004 20.75 14.3109Z" fill="white"/>
<path d="M37.2746 26.2775C36.9979 25.5204 36.7374 24.7959 36.4688 24.047C36.8188 23.8761 37.177 23.697 37.6165 23.4854C37.9259 24.2994 38.2189 25.089 38.5282 25.9356C38.0642 26.0577 37.6735 26.1635 37.2746 26.2775Z" fill="white"/>
<path d="M8.46641 15.9785C8.70247 16.3774 8.90598 16.7193 9.11763 17.0937C8.45012 17.5496 7.79076 18.0054 7.10698 18.4694C6.86277 18.1438 6.61857 17.8264 6.3418 17.46C7.04186 16.9716 7.72564 16.4914 8.46641 15.9785Z" fill="white"/>
</svg>
