<svg width="42" height="44" viewBox="0 0 42 44" fill="none" xmlns="http://www.w3.org/2000/svg">
<path d="M37.0687 0.0117188C37.3374 0.13488 37.6285 0.224452 37.8749 0.381204C38.6586 0.87385 39.0057 1.61282 39.0057 2.51974C39.0057 3.90811 39.0057 5.29647 39.0057 6.68484C39.0057 6.84159 39.0057 6.99834 39.0057 7.16629C39.3416 7.16629 39.6439 7.1215 39.9238 7.17749C41.4466 7.4462 42.1631 9.26004 41.1442 10.4245C40.2373 11.4546 39.2408 12.4175 38.2332 13.3356C37.483 14.0186 36.3409 13.9626 35.6132 13.2572C34.6839 12.3727 33.7769 11.4546 32.8812 10.5252C32.2766 9.89824 32.1758 8.96893 32.5789 8.21876C33.0156 7.40142 33.7993 7.04313 34.9078 7.18868C34.9078 6.1698 34.9078 5.15092 34.9078 4.07605C34.7398 4.07605 34.5943 4.07605 34.4375 4.07605C32.982 4.07605 31.5152 4.07605 30.0597 4.07605C29.6454 4.07605 29.3879 3.80734 29.3767 3.46024C29.3655 3.11315 29.6342 2.84444 30.0261 2.79965C30.0933 2.78845 30.1717 2.79965 30.2388 2.79965C31.9407 2.79965 33.6426 2.79965 35.3445 2.79965C35.4116 2.79965 35.49 2.79965 35.5572 2.79965C35.9827 2.84444 36.2066 3.05717 36.2178 3.49383C36.229 5.12853 36.229 6.76322 36.2066 8.38671C36.2066 8.59944 36.0162 8.91295 35.8371 8.98013C35.6356 9.0585 35.3445 8.91295 35.0981 8.83457C34.9974 8.80098 34.9302 8.67782 34.8406 8.61064C34.5047 8.36432 34.0904 8.38671 33.8329 8.66662C33.5642 8.94654 33.5418 9.372 33.8441 9.67431C34.7175 10.57 35.5908 11.4434 36.4865 12.3167C36.7776 12.5966 37.1919 12.5854 37.4942 12.2943C38.3787 11.4322 39.2408 10.5588 40.103 9.68551C40.4053 9.372 40.3941 8.96893 40.1254 8.67782C39.8567 8.37551 39.42 8.34192 39.0841 8.63303C38.793 8.89055 38.5243 9.20406 38.0764 8.99132C37.6173 8.76739 37.7181 8.31953 37.7181 7.92765C37.7069 6.181 37.7181 4.43434 37.7181 2.68769C37.7181 1.6912 37.3374 1.31051 36.3409 1.31051C31.4257 1.31051 26.5216 1.31051 21.6063 1.31051C20.6546 1.31051 20.2516 1.71359 20.2516 2.66529C20.2516 4.32238 20.2516 5.99066 20.2516 7.64774C20.2516 7.80449 20.2628 7.96124 20.2963 8.11799C20.3859 8.47628 20.6322 8.68902 21.0017 8.68902C21.3936 8.68902 21.6399 8.46509 21.7183 8.07321C21.7519 7.93885 21.7407 7.79329 21.7407 7.64774C21.7407 6.31536 21.7407 4.98297 21.7407 3.65059C21.7407 3.00119 21.9422 2.78845 22.5804 2.78845C23.98 2.78845 25.3908 2.78845 26.7903 2.78845C26.8575 2.78845 26.9359 2.78845 27.0031 2.79965C27.4061 2.85563 27.6413 3.11315 27.6189 3.48264C27.5965 3.84093 27.3613 4.06486 26.9583 4.07605C25.8386 4.08725 24.7302 4.07605 23.6105 4.08725C23.4426 4.08725 23.2746 4.08725 23.0619 4.08725C23.0507 4.26639 23.0395 4.42314 23.0395 4.5687C23.0395 5.68835 23.0507 6.79681 23.0283 7.91646C23.0059 9.00252 22.2669 9.83106 21.2592 9.97661C20.2963 10.111 19.3558 9.51756 19.0759 8.56586C18.9864 8.28594 18.964 7.97244 18.964 7.68133C18.9528 6.10262 18.964 4.53511 18.964 2.9564C18.964 1.25453 19.3558 0.672313 20.9122 0.0341118C26.2977 0.0117188 31.6832 0.0117188 37.0687 0.0117188Z" fill="white"/>
<path d="M0 21.2744C0.111498 20.9564 0.195122 20.6292 0.343786 20.3293C0.789779 19.4386 1.55168 18.9206 2.52729 18.6843C1.22648 16.7758 1.32869 15.0218 2.77816 13.8039C4.10685 12.6952 6.05807 12.7406 7.33101 13.8948C8.45529 14.9127 9.00348 16.903 7.47967 18.657C7.59117 18.6934 7.70267 18.7297 7.80488 18.7661C9.08711 19.1569 9.97909 20.2838 9.98839 21.6016C10.007 23.192 9.99768 24.7825 9.99768 26.3729C9.99768 26.8091 9.81185 26.9909 9.37514 26.9909C6.4669 26.9909 3.55865 26.9909 0.641115 27C0.334495 27 0.148664 26.8637 0.00929152 26.6365C0 24.8552 0 23.0648 0 21.2744ZM8.91057 25.9367C8.91986 25.8276 8.92915 25.7367 8.92915 25.6459C8.92915 24.3553 8.93844 23.0648 8.92915 21.7834C8.91986 20.5292 8.06504 19.684 6.78281 19.6749C5.5935 19.6658 4.41347 19.6658 3.22416 19.6749C1.95122 19.684 1.08711 20.5474 1.07782 21.7834C1.07782 23.0648 1.07782 24.3372 1.07782 25.6186C1.07782 25.7186 1.08711 25.8185 1.0964 25.9367C3.69803 25.9367 6.29036 25.9367 8.91057 25.9367ZM4.98955 18.6298C6.28107 18.6298 7.33101 17.621 7.3403 16.3668C7.34959 15.0945 6.30894 14.0493 5.00813 14.0402C3.7259 14.0311 2.63879 15.0854 2.64808 16.3486C2.65738 17.6028 3.70732 18.6298 4.98955 18.6298Z" fill="white"/>
<path d="M2.99761 36.8266C1.56446 36.961 0.646345 36.3676 0.433611 35.192C0.31045 34.5426 0.478398 33.9603 0.937454 33.4901C1.82198 32.572 2.7177 31.6651 3.63581 30.7805C4.47555 29.9856 5.66238 30.0192 6.49092 30.8253C7.34186 31.6539 8.1816 32.5048 9.01014 33.3445C9.69313 34.0387 9.84988 34.9456 9.458 35.7518C9.06612 36.5467 8.25997 36.9498 7.31947 36.849C7.25229 36.8378 7.18511 36.8266 7.09554 36.8154C7.09554 37.8567 7.09554 38.8644 7.09554 39.9057C11.0367 39.9057 14.9667 39.9057 18.9414 39.9057C18.9526 39.7489 18.9638 39.5922 18.9638 39.4466C18.9638 38.327 18.9526 37.2185 18.975 36.0989C18.9974 35.0128 19.7364 34.1843 20.7441 34.0387C21.707 33.9044 22.6475 34.4978 22.9274 35.4495C23.0058 35.7182 23.0394 36.0093 23.0394 36.2892C23.0506 37.9911 23.0506 39.693 23.0394 41.3948C23.0394 42.9847 22.0429 43.97 20.4754 43.9812C19.6916 43.9812 18.8967 43.9812 18.1129 43.9812C17.6203 43.9812 17.318 43.7349 17.318 43.343C17.318 42.9511 17.6203 42.7048 18.1129 42.7048C18.9303 42.7048 19.7476 42.7048 20.5649 42.7048C21.2815 42.6936 21.7406 42.2905 21.7518 41.574C21.7742 39.7713 21.763 37.9687 21.7518 36.166C21.7518 35.6622 21.4383 35.3263 21.0128 35.3263C20.5649 35.3151 20.2738 35.651 20.2514 36.1884C20.2514 36.2892 20.2514 36.39 20.2514 36.4907C20.2514 37.7671 20.2514 39.0436 20.2514 40.3088C20.2514 41.0365 20.0611 41.2269 19.3445 41.2269C15.1234 41.2269 10.9024 41.2269 6.68127 41.2269C5.98708 41.2269 5.79674 41.0253 5.79674 40.3312C5.79674 38.8084 5.79674 37.2969 5.79674 35.7742C5.79674 35.4495 5.84153 35.1584 6.16623 35.024C6.50212 34.8785 6.75964 35.024 7.01716 35.2591C7.17391 35.4047 7.42023 35.5838 7.59938 35.5614C7.8457 35.5278 8.13681 35.3823 8.29356 35.1808C8.52869 34.8896 8.39433 34.5538 8.14801 34.2962C7.30827 33.4565 6.47973 32.6056 5.62879 31.777C5.2705 31.4187 4.85623 31.4299 4.48675 31.777C3.63581 32.6056 2.79608 33.4453 1.96753 34.2962C1.62044 34.6433 1.62044 35.0576 1.92275 35.3711C2.21386 35.6734 2.63932 35.6622 2.99761 35.3599C3.09838 35.2815 3.17676 35.1696 3.27753 35.1024C3.6918 34.8113 4.20684 35.0352 4.28521 35.539C4.3076 35.6846 4.29641 35.819 4.29641 35.9645C4.29641 37.756 4.29641 39.5474 4.29641 41.3276C4.29641 42.3465 4.67709 42.7272 5.69597 42.7272C8.67424 42.7272 11.6525 42.7272 14.6308 42.7272C14.7763 42.7272 14.9219 42.716 15.0563 42.7384C15.3922 42.8056 15.5937 43.0183 15.5937 43.3654C15.5937 43.7125 15.3922 43.9252 15.0563 43.9924C14.9331 44.0148 14.7987 44.0036 14.6756 44.0036C11.6525 44.0036 8.62946 44.0036 5.6176 44.0036C4.0053 44.0036 3.02001 43.0295 3.02001 41.4172C3.00881 40.0624 3.02001 38.6965 3.02001 37.3417C2.99761 37.1737 2.99761 37.017 2.99761 36.8266Z" fill="white"/>
<path d="M22.6257 12.7423C22.4242 12.7423 22.2786 12.7423 22.1442 12.7423C19.569 12.7423 16.9938 12.7423 14.4186 12.7423C13.8588 12.7423 13.8476 12.7535 13.8476 13.3245C13.8476 16.2356 13.8476 19.1355 13.8476 22.0466C13.8476 22.181 13.8588 22.3041 13.8476 22.4385C13.814 22.864 13.5341 23.1327 13.1758 23.1215C12.8175 23.0991 12.5712 22.8416 12.5712 22.4161C12.5712 19.2475 12.56 16.0901 12.5824 12.9215C12.5824 12.0481 13.243 11.4659 14.1611 11.4659C15.6503 11.4547 17.1394 11.4659 18.6285 11.4659C19.9833 11.4659 21.3493 11.4771 22.7041 11.4659C23.2639 11.4659 23.7229 11.6563 24.126 12.0593C25.6935 13.6492 27.2722 15.2279 28.8621 16.7955C29.2764 17.2097 29.4668 17.6576 29.4668 18.251C29.4556 22.4497 29.4668 26.6372 29.4556 30.8359C29.4556 31.9891 28.8621 32.5713 27.6977 32.5713C23.2303 32.5713 18.7629 32.5713 14.2955 32.5713C13.131 32.5713 12.56 31.9891 12.5488 30.8247C12.5488 29.134 12.5488 27.4433 12.5488 25.7527C12.5488 25.5623 12.5488 25.3048 12.6608 25.1816C12.8063 25.0249 13.0639 24.8681 13.2654 24.8905C13.4557 24.9129 13.6573 25.1369 13.7804 25.316C13.87 25.4392 13.8364 25.6519 13.8364 25.8198C13.8364 27.4545 13.8364 29.078 13.8364 30.7127C13.8364 31.2613 13.8476 31.2837 14.3739 31.2837C18.7965 31.2837 23.2191 31.2837 27.6417 31.2949C28 31.2949 28.1568 31.2054 28.1568 30.8135C28.1456 26.7492 28.1456 22.6848 28.1456 18.6205C28.1456 18.5533 28.1344 18.4749 28.1232 18.3406C27.9776 18.3406 27.8209 18.3406 27.6753 18.3406C26.5333 18.3406 25.38 18.3406 24.238 18.3406C23.2191 18.3406 22.6145 17.7248 22.6033 16.7059C22.6145 15.3847 22.6257 14.1083 22.6257 12.7423ZM23.9133 13.7948C23.9133 14.7801 23.9021 15.7542 23.9245 16.7395C23.9245 16.829 24.0812 17.0082 24.1708 17.0082C25.1673 17.0306 26.1526 17.0194 27.1379 17.0194C26.063 15.9445 24.9993 14.8808 23.9133 13.7948Z" fill="white"/>
<path d="M34.5464 22.6628C33.8129 21.8454 33.4786 20.9282 33.6272 19.8837C33.7479 19.03 34.1472 18.3307 34.825 17.7767C36.1063 16.7232 38.0097 16.7414 39.2632 17.8312C40.6838 19.0664 40.7674 20.7556 39.4954 22.6628C39.6068 22.6991 39.7182 22.7355 39.8203 22.7718C41.1202 23.1896 41.9838 24.3157 41.993 25.6508C42.0023 27.2128 42.0023 28.784 41.993 30.3552C41.993 30.8002 41.798 31 41.3431 31C38.4461 31 35.5492 31 32.6615 31C32.188 31 32.0116 30.8093 32.0116 30.3279C32.0116 28.8657 32.0487 27.4036 32.0023 25.9414C31.9466 24.3702 32.903 23.0533 34.5464 22.6628ZM33.0794 29.9192C35.7256 29.9192 38.3161 29.9192 40.9253 29.9192C40.9253 28.4298 40.9531 26.9676 40.916 25.5054C40.8881 24.5155 40.0246 23.7072 39.0125 23.68C37.6755 23.6527 36.3291 23.6436 34.9921 23.68C33.9522 23.7072 33.1258 24.5609 33.0887 25.5781C33.0701 26.1139 33.0794 26.6498 33.0794 27.1765C33.0794 28.0847 33.0794 28.9929 33.0794 29.9192ZM36.9884 18.0401C35.6978 18.0492 34.6578 19.0664 34.6578 20.3197C34.6578 21.5911 35.7163 22.6265 37.007 22.6174C38.2883 22.6083 39.3375 21.5821 39.3468 20.3288C39.3561 19.0664 38.2883 18.031 36.9884 18.0401Z" fill="white"/>
<path d="M17.9 14.254C18.5046 14.254 19.098 14.2428 19.7026 14.254C20.1953 14.2652 20.408 14.4779 20.4192 14.9594C20.4304 15.8327 20.4304 16.706 20.4192 17.5794C20.4192 18.072 20.1729 18.3071 19.6691 18.3071C18.471 18.3183 17.2618 18.3183 16.0638 18.3071C15.5599 18.3071 15.3248 18.072 15.3248 17.5682C15.3136 16.706 15.3136 15.8551 15.3248 14.993C15.3248 14.4891 15.5487 14.254 16.0526 14.254C16.6684 14.2428 17.2842 14.254 17.9 14.254ZM19.1092 16.9971C19.1092 16.5157 19.1092 16.0454 19.1092 15.5752C18.2695 15.5752 17.4521 15.5752 16.646 15.5752C16.646 16.0678 16.646 16.5381 16.646 16.9971C17.4857 16.9971 18.2919 16.9971 19.1092 16.9971Z" fill="white"/>
<path d="M21.0462 24.0028C22.6585 24.0028 24.2819 23.9916 25.8942 24.014C26.1294 24.014 26.4317 24.1596 26.5772 24.3387C26.8571 24.7082 26.566 25.2232 26.0846 25.2792C25.8831 25.3016 25.6815 25.2904 25.48 25.2904C22.4345 25.2904 19.3891 25.2904 16.3436 25.2904C16.2205 25.2904 16.0861 25.3016 15.9629 25.2904C15.5935 25.2568 15.3359 24.9993 15.3359 24.6522C15.3359 24.2939 15.5935 24.014 15.9965 24.014C16.6795 24.0028 17.3737 24.014 18.0567 24.014C19.0532 24.0028 20.0497 24.0028 21.0462 24.0028Z" fill="white"/>
<path d="M19.5686 21.0724C18.964 21.0724 18.3705 21.0836 17.7659 21.0724C17.3405 21.0612 17.0605 20.8036 17.0605 20.4342C17.0605 20.0647 17.3405 19.796 17.7659 19.7848C18.964 19.7736 20.162 19.7736 21.36 19.7848C21.7967 19.7848 22.0654 20.0535 22.0654 20.423C22.0654 20.8036 21.8079 21.05 21.36 21.0612C20.7666 21.0836 20.1732 21.0836 19.5686 21.0724Z" fill="white"/>
<path d="M17.3635 29.2908C16.9044 29.2908 16.4453 29.302 15.9863 29.2908C15.6056 29.2796 15.3481 29.0333 15.3257 28.6974C15.3033 28.3503 15.5384 28.0368 15.9079 28.0256C16.8596 28.0032 17.8225 28.0032 18.7854 28.0256C19.1661 28.0368 19.39 28.3391 19.3788 28.6862C19.3676 29.0333 19.1213 29.2796 18.7294 29.2908C18.2816 29.302 17.8225 29.2908 17.3635 29.2908Z" fill="white"/>
<path d="M25.0988 21.0722C24.7965 21.0722 24.4942 21.0834 24.2031 21.0722C23.8336 21.061 23.6209 20.8482 23.5873 20.49C23.5537 20.1429 23.7776 19.8294 24.1471 19.8182C24.7965 19.7846 25.4571 19.7846 26.1177 19.8182C26.4648 19.8406 26.6775 20.0869 26.6775 20.4564C26.6775 20.8035 26.42 21.0386 26.0505 21.0722C26.0169 21.0722 25.9946 21.0722 25.961 21.0722C25.6699 21.0834 25.3787 21.0834 25.0988 21.0722Z" fill="white"/>
<path d="M22.4133 29.2904C22.111 29.2904 21.8087 29.3016 21.5176 29.2904C21.1481 29.2792 20.9353 29.0777 20.9018 28.7082C20.8682 28.3611 21.0921 28.0476 21.4616 28.0252C22.111 27.9916 22.7716 27.9916 23.421 28.0252C23.7793 28.0476 23.9808 28.3051 23.992 28.6634C24.0032 28.9993 23.7345 29.268 23.3538 29.2792C23.0403 29.3016 22.7268 29.2904 22.4133 29.2904Z" fill="white"/>
</svg>
