<svg width="39" height="46" viewBox="0 0 39 46" fill="none" xmlns="http://www.w3.org/2000/svg">
<path d="M7.10819 45.8484C6.45347 45.6134 6.05057 45.1433 5.71481 44.539C3.9521 41.3829 2.15582 38.2436 0.376317 35.1043C-0.311979 33.8956 -0.0601634 32.989 1.16534 32.3007C1.66897 32.0153 2.18939 31.7299 2.69302 31.4445C3.75065 30.857 4.72434 31.1256 5.3287 32.1664C5.42942 32.3511 5.54694 32.5357 5.66445 32.754C5.81554 32.67 5.96663 32.6029 6.10093 32.519C7.76292 31.5621 9.4249 30.5884 11.1037 29.6315C12.262 28.9767 13.4875 28.5067 14.8473 28.7585C15.4853 28.876 16.1064 29.1278 16.7443 29.3125C18.6917 29.9001 20.6223 30.5044 22.5697 31.0584C24.0134 31.4613 24.9368 32.989 24.5339 34.4328C24.5003 34.5671 24.4499 34.6846 24.3828 34.9364C24.7857 34.7349 25.0878 34.6006 25.3732 34.4328C27.5892 33.1569 29.7884 31.8642 31.9876 30.5884C33.0452 29.9672 34.1364 29.4468 35.3955 29.4132C36.9568 29.3629 37.9472 30.1015 38.3669 31.6124C38.3837 31.646 38.4173 31.6796 38.4509 31.7131C38.4509 32.0153 38.4509 32.3343 38.4509 32.6365C38.2326 33.4759 37.8801 34.1977 37.0911 34.6846C32.9781 37.2027 28.8651 39.7377 24.7521 42.2726C23.3251 43.1624 21.8142 43.3638 20.2026 42.9273C17.5837 42.2055 14.9481 41.5508 12.3292 40.7953C11.5737 40.5771 11.0365 40.7449 10.4825 41.215C10.6504 41.5004 10.8183 41.8026 10.9694 42.088C11.4394 42.9945 11.2044 43.9682 10.3314 44.4886C9.52563 44.9587 8.68624 45.3951 7.86364 45.8316C7.61183 45.8484 7.36001 45.8484 7.10819 45.8484ZM6.4199 34.0802C7.5111 36.0108 8.6023 37.9414 9.71029 39.8888C9.9789 39.7377 10.2475 39.6202 10.4657 39.4523C10.9862 39.0494 11.5234 39.0494 12.1613 39.2173C14.9984 40.0063 17.8691 40.7449 20.7063 41.5172C21.8478 41.8194 22.9054 41.6683 23.8959 41.0471C28.0425 38.4954 32.1723 35.9437 36.3188 33.3919C36.8728 33.0562 37.0743 32.4518 36.8896 31.7803C36.7217 31.1759 36.302 30.857 35.6305 30.857C35.3787 30.857 35.0933 30.857 34.8583 30.9409C34.1364 31.2095 33.4146 31.4781 32.743 31.8474C30.4599 33.1401 28.1936 34.4831 25.9104 35.8094C24.7521 36.4809 23.5098 36.7159 22.2171 36.4305C20.4209 36.0444 18.6414 35.5575 16.8451 35.1043C16.3414 34.97 16.14 34.6174 16.2407 34.1809C16.3414 33.7612 16.7443 33.5598 17.2312 33.6941C17.7852 33.8452 18.3224 33.9963 18.8764 34.1474C19.7158 34.3656 20.5719 34.6006 21.4281 34.8021C22.1668 34.9868 22.704 34.8021 22.9894 34.332C23.4259 33.5766 23.0062 32.7372 22.1164 32.4686C20.018 31.8474 17.9195 31.2767 15.8714 30.538C14.4612 30.0344 13.2021 30.1183 11.9431 30.8402C10.1636 31.8642 8.40085 32.8883 6.62135 33.9123C6.5542 33.9627 6.50384 34.0131 6.4199 34.0802ZM9.76065 42.9777C9.60957 42.7091 9.49205 42.4909 9.35775 42.2726C7.61183 39.1837 5.84912 36.0947 4.11998 32.989C3.90174 32.6029 3.6835 32.5357 3.31417 32.7708C2.8609 33.0562 2.37406 33.308 1.92079 33.5766C1.41716 33.862 1.40037 33.8955 1.68576 34.3992C2.55872 35.9437 3.43168 37.4713 4.30465 39.0158C5.24476 40.6946 6.20166 42.3566 7.14177 44.0353C7.25928 44.2536 7.3768 44.5054 7.69577 44.3207C8.31691 43.9682 8.93806 43.6324 9.54241 43.2799C9.62635 43.1959 9.67672 43.0784 9.76065 42.9777Z" fill="white"/>
<path d="M12.0768 2.63657C12.5468 2.83803 12.9665 2.97233 13.3527 3.19057C13.9402 3.52632 14.4606 3.57669 15.0818 3.19057C15.6022 2.85482 16.2569 2.7373 16.8277 2.48549C17.0292 2.40155 17.2138 2.21688 17.3146 2.01543C17.5328 1.56216 17.7007 1.07532 17.8685 0.60526C18.0196 0.202354 18.2882 -0.0158861 18.7415 0.00090165C19.8999 0.0176894 21.0582 0.00090165 22.1998 0.00090165C22.6195 0.00090165 22.8881 0.185567 23.0392 0.571684C23.2238 1.05853 23.3917 1.56216 23.61 2.03222C23.6939 2.21688 23.8786 2.38476 24.0632 2.4687C24.8187 2.80445 25.5909 3.12342 26.3631 3.4256C26.531 3.49275 26.7828 3.50954 26.9507 3.44239C27.4543 3.25772 27.9412 3.02269 28.428 2.78766C28.8141 2.603 29.1331 2.67015 29.4353 2.97233C30.2579 3.79493 31.0973 4.63431 31.9199 5.45691C32.2053 5.7423 32.2556 6.06127 32.0878 6.4306C31.8695 6.91744 31.6345 7.40429 31.4498 7.90792C31.3827 8.0758 31.3995 8.32761 31.4666 8.49549C31.7688 9.28451 32.1045 10.0567 32.4403 10.829C32.5074 10.9969 32.6585 11.1647 32.8096 11.2319C33.2965 11.4501 33.8001 11.6348 34.3205 11.8195C34.7066 11.9706 34.9081 12.2392 34.9081 12.6588C34.9081 13.834 34.9081 14.9923 34.9081 16.1675C34.9081 16.5872 34.7066 16.8558 34.3037 17.0069C33.8169 17.1915 33.3133 17.3594 32.8432 17.5777C32.6753 17.6616 32.5074 17.8295 32.4403 17.9973C32.0877 18.7696 31.7688 19.5418 31.4666 20.3308C31.3995 20.4987 31.3995 20.7505 31.4666 20.9184C31.6513 21.4053 31.8695 21.8753 32.0878 22.3622C32.2724 22.7651 32.2053 23.1008 31.8863 23.403C31.0805 24.2088 30.2747 25.0146 29.4689 25.8204C29.1499 26.1562 28.7974 26.2065 28.3777 26.0051C27.8572 25.7533 27.32 25.3504 26.7828 25.3336C26.2624 25.3168 25.7252 25.7197 25.188 25.9379C24.9865 26.0219 24.7851 26.1394 24.5836 26.1562C23.8618 26.2401 23.5932 26.727 23.3749 27.3481C22.7874 29.0101 22.972 28.8086 21.2597 28.8086C20.4203 28.8086 19.5977 28.7919 18.7583 28.8086C18.2882 28.8254 18.0029 28.624 17.8518 28.1875C17.6839 27.7174 17.4824 27.281 17.3313 26.8109C17.2306 26.5087 17.046 26.3912 16.7606 26.2905C16.0219 26.0219 15.3168 25.6861 14.5949 25.4007C14.3935 25.3168 14.1249 25.3168 13.9234 25.3839C13.4534 25.5518 12.9833 25.7701 12.5301 25.9883C12.1271 26.173 11.7914 26.1226 11.4892 25.8036C10.6834 24.981 9.8608 24.1584 9.03821 23.3526C8.73603 23.0504 8.66888 22.7315 8.85354 22.3454C9.07178 21.8585 9.30681 21.3717 9.49147 20.868C9.55862 20.7002 9.54184 20.4484 9.47469 20.2805C9.17251 19.5082 8.85354 18.736 8.51779 17.9806C8.43385 17.7959 8.26597 17.6112 8.08131 17.5273C7.61125 17.309 7.10762 17.1412 6.62077 16.9565C6.21787 16.8054 6.0332 16.5368 6.0332 16.1171C6.0332 14.9588 6.0332 13.8004 6.0332 12.6588C6.0332 12.2224 6.23466 11.937 6.63756 11.7859C7.1244 11.6012 7.62804 11.4333 8.09809 11.2151C8.26597 11.1312 8.43385 10.9633 8.501 10.7954C8.85354 10.0232 9.17251 9.25094 9.47469 8.46192C9.54184 8.29404 9.54184 8.0758 9.49147 7.90792C9.30681 7.42108 9.08857 6.95102 8.87033 6.46418C8.68566 6.06127 8.71924 5.70873 9.05499 5.37297C9.8608 4.58395 10.6666 3.76135 11.4724 2.95554C11.6403 2.85482 11.8753 2.77088 12.0768 2.63657ZM30.5433 6.26272C30.5097 6.21236 30.4593 6.12842 30.409 6.06127C29.8886 5.54085 29.3681 5.00364 28.8309 4.50001C28.747 4.41607 28.5288 4.39929 28.4112 4.44965C27.9412 4.63431 27.4879 4.90292 27.0179 5.03722C26.7493 5.12116 26.4135 5.08758 26.1617 4.98686C25.1376 4.60074 24.1472 4.18105 23.1567 3.74456C22.8881 3.62705 22.6363 3.37523 22.4852 3.12342C22.2501 2.70373 22.1326 2.20009 21.9312 1.76361C21.864 1.62931 21.6794 1.49501 21.5451 1.49501C20.84 1.46143 20.1349 1.46143 19.4298 1.49501C19.2955 1.49501 19.1108 1.6461 19.0605 1.7804C18.859 2.20009 18.6911 2.63657 18.5568 3.07306C18.4225 3.47596 18.1539 3.67741 17.751 3.81172C16.9284 4.09711 16.0723 4.34892 15.3168 4.7854C14.6285 5.18831 14.0577 5.25546 13.403 4.83577C13.3694 4.81898 13.3191 4.80219 13.2855 4.76862C12.3118 4.33213 12.3118 4.33213 11.5732 5.08758C11.187 5.4737 10.5995 5.80945 10.5155 6.26272C10.4316 6.6992 10.8513 7.23641 11.0695 7.74004C11.0863 7.79041 11.1367 7.85756 11.1367 7.90792C11.1199 8.2101 11.1702 8.54585 11.0695 8.81446C10.6834 9.82172 10.2805 10.8122 9.84402 11.7859C9.7265 12.0545 9.49147 12.3231 9.23966 12.4574C8.81997 12.6924 8.31633 12.8099 7.87985 13.0114C7.74555 13.0785 7.59446 13.28 7.59446 13.4311C7.56089 14.1026 7.59446 14.7909 7.57767 15.4624C7.57767 15.731 7.6784 15.8485 7.91343 15.9325C8.38348 16.1003 8.85354 16.2514 9.29002 16.4697C9.52505 16.5872 9.74329 16.839 9.8608 17.074C10.3141 18.0813 10.7338 19.1053 11.1199 20.1294C11.2206 20.398 11.2374 20.7337 11.1702 21.0023C11.0359 21.4724 10.8009 21.9089 10.5827 22.3622C10.4819 22.5636 10.4819 22.7147 10.6666 22.8826C11.1702 23.3526 11.6403 23.873 12.1439 24.3431C12.2447 24.4438 12.4965 24.4774 12.6476 24.427C13.1176 24.2592 13.5373 24.0074 14.0074 23.8563C14.276 23.7723 14.6117 23.7891 14.8803 23.8898C15.9044 24.276 16.9284 24.7124 17.9357 25.1657C18.1875 25.2832 18.4393 25.5182 18.5736 25.7533C18.7919 26.173 18.943 26.6262 19.0941 27.0795C19.178 27.3145 19.2955 27.4153 19.5641 27.4153C20.2356 27.3985 20.9239 27.3985 21.5954 27.4153C21.864 27.4153 21.9815 27.3145 22.0487 27.0795C22.1998 26.6598 22.3844 26.2569 22.5187 25.8372C22.6531 25.4175 22.9384 25.2496 23.3246 25.0986C24.2647 24.746 25.2048 24.3767 26.1281 23.9402C26.531 23.7555 26.8668 23.7052 27.2529 23.8898C27.6558 24.0913 28.0587 24.276 28.4784 24.427C28.6295 24.4774 28.8645 24.427 28.982 24.3263C29.4857 23.8563 29.9893 23.3694 30.4593 22.8658C30.5601 22.7651 30.5936 22.53 30.5433 22.3957C30.409 22.0096 30.2411 21.6235 30.0396 21.2542C29.7878 20.7841 29.8382 20.3812 30.09 19.9111C30.4593 19.2396 30.8455 18.5345 31.0133 17.8127C31.2148 16.8726 31.7016 16.4025 32.5914 16.1339C33.5315 15.8485 33.5315 15.7982 33.5147 14.8077C33.5147 14.2537 33.6826 13.5654 33.4308 13.1793C33.179 12.7931 32.4739 12.6924 31.9702 12.5078C31.5505 12.3567 31.3491 12.1049 31.198 11.6684C30.8958 10.7786 30.5769 9.90566 30.1404 9.06627C29.855 8.51228 29.7878 8.05901 30.09 7.5218C30.2075 7.13568 30.3586 6.71599 30.5433 6.26272Z" fill="white"/>
<path d="M4.07056 34.584C4.07056 34.9701 3.78517 35.2555 3.39905 35.2555C3.01293 35.2555 2.67718 34.9365 2.69396 34.5672C2.69396 34.1811 3.02972 33.8789 3.41584 33.8957C3.80195 33.9125 4.08734 34.1979 4.07056 34.584Z" fill="white"/>
<path d="M18.2942 10.855C17.3758 9.44631 17.5025 8.05314 18.5951 7.12436C19.5926 6.27297 21.081 6.25749 22.1103 7.10888C23.2187 8.02218 23.3453 9.39987 22.4586 10.8395C22.807 11.0872 23.1395 11.3348 23.5037 11.5825C23.5829 11.629 23.6937 11.629 23.7887 11.629C24.9446 11.567 25.8472 11.985 26.4172 12.9757C26.9872 13.9509 26.8922 14.9416 26.2272 15.8549C26.1955 15.8859 26.1955 15.9323 26.148 15.9942C26.2747 16.0716 26.3855 16.149 26.4964 16.2109C27.7156 16.954 28.4281 18.0221 28.6657 19.3998C28.7765 20.0189 28.4915 20.3595 27.8423 20.3595C22.8545 20.3595 17.8508 20.3595 12.863 20.3595C12.2138 20.3595 11.9447 20.0035 12.0555 19.3378C12.3088 17.9601 13.0531 16.9075 14.2723 16.1645C14.3673 16.1026 14.4623 16.0407 14.5415 16.0097C14.3673 15.5918 14.1456 15.2048 14.0348 14.7868C13.6548 13.1924 14.9215 11.629 16.5999 11.629C17.0116 11.629 17.3125 11.5516 17.6133 11.2884C17.8033 11.1181 18.0567 11.0098 18.2942 10.855ZM13.6389 18.9663C15.6815 18.9663 17.6767 18.9663 19.6876 18.9663C19.3076 17.7744 18.0567 16.9075 16.7108 16.892C15.3332 16.8766 14.0664 17.7125 13.6389 18.9663ZM27.0664 18.9973C27.0506 18.9044 27.0664 18.8735 27.0506 18.827C26.5122 17.6506 25.5621 16.9849 24.2479 16.9075C22.9178 16.8301 21.8886 17.3874 21.2077 18.5174C21.0177 18.8425 21.1127 18.9818 21.4927 18.9818C23.0287 18.9818 24.5646 18.9818 26.1005 18.9818C26.433 18.9973 26.7497 18.9973 27.0664 18.9973ZM18.6267 12.2946C18.8484 12.759 19.0542 13.2234 19.3076 13.6723C19.3551 13.7652 19.5134 13.858 19.6243 13.858C20.1151 13.8735 20.606 13.8735 21.0969 13.858C21.2077 13.858 21.3661 13.7652 21.4136 13.6723C21.6511 13.2234 21.8569 12.7744 22.0944 12.2946C21.1919 11.5825 19.5134 11.5825 18.6267 12.2946ZM16.6791 12.9757C15.9824 12.9602 15.3807 13.5484 15.3649 14.2295C15.349 14.9106 15.9349 15.5144 16.6316 15.5298C17.36 15.5453 17.9617 14.9726 17.9775 14.2605C17.9617 13.5639 17.3758 12.9912 16.6791 12.9757ZM25.3721 14.276C25.388 13.5949 24.7863 12.9912 24.0895 12.9757C23.3928 12.9602 22.7753 13.5175 22.7595 14.2141C22.7436 14.9261 23.3295 15.5298 24.0579 15.5298C24.7546 15.5298 25.3563 14.9571 25.3721 14.276ZM20.3368 7.8519C19.6243 7.86738 19.0384 8.44013 19.0542 9.13672C19.0701 9.83331 19.6718 10.4061 20.3843 10.3906C21.0969 10.3751 21.6669 9.78687 21.6669 9.09028C21.6511 8.39369 21.0652 7.83642 20.3368 7.8519ZM21.9519 15.9323C21.8727 15.793 21.7936 15.6227 21.6669 15.4834C21.5719 15.375 21.4136 15.2357 21.2869 15.2357C20.6693 15.2048 20.036 15.2202 19.4184 15.2357C19.3076 15.2357 19.1809 15.3131 19.1018 15.406C18.9592 15.5763 18.8642 15.793 18.7692 15.9478C19.3234 16.3812 19.8618 16.8147 20.3527 17.2171C20.8752 16.7837 21.3977 16.3657 21.9519 15.9323Z" fill="white"/>
</svg>
