<svg width="41" height="34" viewBox="0 0 41 34" fill="none" xmlns="http://www.w3.org/2000/svg">
<path d="M0.0115497 22.8914C0.196344 22.2793 0.300291 21.6325 0.577483 21.0666C1.5823 18.9876 3.26855 17.798 5.57849 17.671C7.21854 17.5786 8.88169 17.6132 10.5217 17.7287C11.1916 17.7749 11.515 17.6594 11.8961 17.0935C12.9934 15.5112 14.5641 14.6681 16.4929 14.6334C18.9876 14.5988 21.4708 14.5757 23.9655 14.645C25.9867 14.7027 27.5575 15.7075 28.6201 17.4169C28.828 17.7634 29.0243 17.8558 29.3939 17.7403C29.6018 17.671 29.8328 17.6594 30.0522 17.6594C31.75 17.6594 33.4709 17.567 35.1572 17.7172C37.9291 17.9597 40.1697 20.4198 40.2506 23.1917C40.3083 25.4208 40.3083 27.6499 40.2621 29.8674C40.2275 31.854 38.7607 33.263 36.7741 33.3554C36.6702 33.3554 36.5662 33.3554 36.4623 33.3554C25.5825 33.3554 14.7027 33.3554 3.82294 33.3554C2.55247 33.3554 1.50146 32.9396 0.704529 31.9117C0.311841 31.4035 0.138596 30.8029 0 30.1908C0.0115497 27.7654 0.0115497 25.3284 0.0115497 22.8914ZM13.1435 30.9762C17.8327 30.9762 22.4756 30.9762 27.1417 30.9762C27.1532 30.8376 27.1533 30.7221 27.1533 30.6066C27.1533 27.3034 27.1533 24.0117 27.1533 20.7085C27.1533 18.4564 25.6633 16.9896 23.3996 16.978C21.2283 16.978 19.0454 16.9665 16.8741 16.978C16.4929 16.978 16.1118 17.0011 15.7422 17.105C14.1137 17.567 13.132 18.8606 13.1204 20.593C13.1089 23.9655 13.1204 27.3496 13.1204 30.7221C13.132 30.8029 13.1435 30.8722 13.1435 30.9762ZM10.7527 20.0964C10.4178 20.0618 10.0944 19.9925 9.75946 19.9925C8.52365 19.9809 7.29939 19.9809 6.06357 19.9925C5.72863 19.9925 5.38214 20.0271 5.05875 20.1195C3.3725 20.5815 2.37923 21.8982 2.37923 23.6768C2.36768 25.6402 2.37923 27.6037 2.37923 29.5671C2.37923 30.572 2.80657 30.9993 3.81139 30.9993C5.98272 30.9993 8.15406 30.9993 10.3369 30.9993C10.4755 30.9993 10.6141 30.9877 10.7758 30.9762C10.7527 27.3496 10.7527 23.7461 10.7527 20.0964ZM29.5325 30.9646C29.6018 30.9877 29.6249 30.9993 29.648 30.9993C32.0272 30.9993 34.418 31.0108 36.7972 30.9877C37.444 30.9877 37.906 30.4796 37.906 29.7981C37.9175 27.7076 37.9291 25.6056 37.906 23.5151C37.8829 21.6325 36.4623 20.1195 34.7298 20.0387C33.1937 19.9694 31.6461 20.004 30.0984 20.0156C29.9136 20.0156 29.7173 20.0849 29.5325 20.1195C29.5325 23.7461 29.5325 27.3496 29.5325 30.9646Z" fill="white"/>
<path d="M20.1419 0C23.9995 0 27.141 3.12996 27.1525 6.98754C27.1641 10.8336 24.011 13.9866 20.165 13.9982C16.3305 14.0097 13.1659 10.8451 13.1543 6.99909C13.1428 3.14151 16.2727 0 20.1419 0ZM20.1303 2.35613C17.5663 2.36768 15.4874 4.44662 15.4989 7.01064C15.5105 9.55157 17.5894 11.6305 20.1303 11.6305C22.6828 11.6421 24.7848 9.54002 24.7733 6.98754C24.7848 4.42352 22.6943 2.35613 20.1303 2.35613Z" fill="white"/>
<path d="M2.63285 11.7228C2.65595 8.83536 5.03518 6.46768 7.91105 6.50233C10.81 6.53698 13.143 8.89311 13.1315 11.7459C13.1199 14.6333 10.7176 17.001 7.8533 16.9779C4.96589 16.9548 2.62131 14.5871 2.63285 11.7228ZM7.81865 8.87001C6.21325 8.92776 4.93124 10.256 5.00054 11.8036C5.06983 13.409 6.40959 14.691 7.93415 14.6217C9.528 14.5409 10.7869 13.2589 10.7523 11.7228C10.7292 10.1174 9.3894 8.81226 7.81865 8.87001Z" fill="white"/>
<path d="M37.6512 11.7345C37.6627 14.6103 35.272 16.9896 32.3961 16.978C29.5202 16.9665 27.1757 14.6103 27.1641 11.746C27.1526 8.87016 29.5433 6.49093 32.4192 6.50248C35.3066 6.51403 37.6512 8.85861 37.6512 11.7345ZM32.4076 8.87016C30.8253 8.87016 29.5202 10.1753 29.5318 11.746C29.5318 13.3052 30.86 14.6219 32.4192 14.6219C33.99 14.6219 35.2951 13.3052 35.2951 11.7345C35.2835 10.1522 33.9784 8.85861 32.4076 8.87016Z" fill="white"/>
</svg>
