<svg width="41" height="38" viewBox="0 0 41 38" fill="none" xmlns="http://www.w3.org/2000/svg">
<path d="M40.3265 19.0677C40.2954 19.1456 40.2642 19.239 40.2331 19.3169C39.8904 20.5007 39.1428 21.2639 37.9434 21.5754C37.7409 21.6222 37.6319 21.6845 37.6007 21.9181C37.4138 23.1954 36.9154 24.3324 36.1054 25.3293C36.0275 25.4227 36.0431 25.6097 36.0587 25.7498C36.1366 26.295 36.2144 26.8246 36.3079 27.3698C36.3391 27.5255 36.4014 27.7124 36.5104 27.837C36.8531 28.2576 37.2269 28.647 37.554 29.0675C37.8188 29.4102 37.7565 29.7529 37.4605 29.9554C37.1802 30.1423 36.8531 30.0644 36.6039 29.7529C36.3702 29.457 36.1366 29.161 35.8718 28.8495C35.3889 29.4881 34.9372 30.08 34.4699 30.6563C34.0805 31.1703 33.7534 31.1859 33.3017 30.7342C32.6942 30.1111 32.0712 29.4725 31.4637 28.8495C31.4482 28.8339 31.417 28.8183 31.3703 28.7872C31.3703 31.3572 31.3703 33.8961 31.3703 36.4662C33.5198 36.4662 35.6849 36.4662 37.9434 36.4662C37.8655 35.0955 37.8344 33.756 37.7098 32.4164C37.663 31.8089 37.7098 31.513 38.0992 31.4195C38.5197 31.3261 38.8157 31.5597 38.8624 32.1828C38.9558 33.2419 38.987 34.3011 39.0337 35.3603C39.0493 35.8743 39.0337 36.3883 39.0337 36.9023C39.0337 37.4942 38.8468 37.6811 38.2549 37.6811C35.6849 37.6811 33.1148 37.6811 30.5447 37.6811C28.0993 37.6811 25.6694 37.6811 23.224 37.6811C22.5698 37.6811 22.3984 37.5098 22.3984 36.8712C22.414 35.5005 22.3673 34.1298 22.4919 32.7747C22.6632 30.8276 23.5666 29.2077 24.9529 27.837C25.0775 27.7124 25.1398 27.4944 25.171 27.3074C25.2644 26.7934 25.3579 26.2794 25.4202 25.7654C25.4358 25.6252 25.4358 25.4383 25.3579 25.3137C25.062 24.7997 24.7349 24.2857 24.4078 23.7872C24.3455 23.6938 24.2364 23.5536 24.143 23.5536C23.6601 23.538 23.1772 23.538 22.6321 23.538C22.8813 24.0832 23.0994 24.5816 23.333 25.0801C23.9561 26.4819 23.2084 27.6345 21.6664 27.6345C18.0994 27.6345 14.5325 27.6034 10.95 27.6501C9.4547 27.6657 8.64474 26.295 9.29893 25.0956C9.56373 24.6128 9.75064 24.0988 9.99986 23.538C9.79737 23.538 9.65719 23.538 9.517 23.538C7.80363 23.538 6.07468 23.538 4.36131 23.538C2.27411 23.5225 0.607468 22.2764 0.124609 20.2982C0.0311522 19.9399 0 19.5661 0 19.2079C0 14.4572 0 9.70645 0 4.95573C0 2.46356 1.80683 0.656727 4.28343 0.625575C4.67283 0.625575 5.07781 0.609999 5.46721 0.625575C5.82546 0.641151 6.04353 0.859217 6.05911 1.17074C6.07468 1.49784 5.85662 1.76263 5.48279 1.79378C5.10896 1.80936 4.71956 1.79378 4.34573 1.80936C2.46102 1.82494 1.18378 3.10218 1.18378 4.98689C1.18378 9.72202 1.18378 14.4572 1.18378 19.2079C1.18378 20.9991 2.38314 22.2608 4.1744 22.3698C4.29901 22.3698 4.40804 22.3698 4.53265 22.3698C10.8565 22.3698 17.1804 22.3698 23.5043 22.3698C23.629 22.3698 23.7691 22.3698 23.8937 22.3698C23.9872 21.8247 23.8937 21.7468 23.4576 21.5599C22.9125 21.3262 22.3673 21.3418 21.8065 21.3418C16.0122 21.3418 10.2335 21.3418 4.43919 21.3418C3.27098 21.3418 2.46102 20.7343 2.25854 19.7063C2.22738 19.535 2.22738 19.3636 2.22738 19.1923C2.22738 14.4572 2.22738 9.72202 2.22738 4.97131C2.22738 3.66292 3.05292 2.83738 4.37689 2.83738C12.3986 2.83738 20.4203 2.83738 28.4264 2.83738C29.3454 2.83738 29.9996 3.24236 30.4046 4.06789C30.4513 4.16135 30.5759 4.27038 30.6694 4.28596C30.9341 4.31711 31.2145 4.30154 31.4949 4.30154C31.308 3.00872 30.1398 1.93397 28.8469 1.84051C28.6289 1.82494 28.3952 1.82494 28.1772 1.82494C21.6508 1.82494 15.1244 1.82494 8.61359 1.82494C8.44225 1.82494 8.27091 1.82494 8.09958 1.77821C7.78805 1.70033 7.63229 1.48226 7.64787 1.18631C7.66344 0.874793 7.85036 0.672303 8.16188 0.641151C8.31764 0.625575 8.45783 0.625575 8.59801 0.625575C15.0465 0.625575 21.495 0.625575 27.928 0.625575C30.6382 0.625575 31.9777 1.63802 32.7098 4.28596C32.85 4.28596 33.0058 4.28596 33.1615 4.28596C34.8749 4.28596 36.6039 4.28596 38.3172 4.28596C38.987 4.28596 39.1739 4.4573 39.1583 5.12707C39.1428 6.32643 39.1583 7.54137 39.0493 8.74073C38.9558 9.78433 38.4886 10.7189 37.8811 11.5756C37.7565 11.7469 37.6786 11.9806 37.6786 12.183C37.663 13.1955 37.663 14.2079 37.6786 15.2204C37.6786 15.345 37.8032 15.5631 37.8967 15.5786C39.1895 15.9369 39.9683 16.7624 40.2487 18.0552C40.2487 18.0708 40.2798 18.102 40.2954 18.1175C40.3265 18.4446 40.3265 18.7562 40.3265 19.0677ZM29.1273 4.33269C28.8781 3.99001 28.5666 4.02117 28.2551 4.02117C20.3268 4.02117 12.3986 4.02117 4.47034 4.02117C3.64481 4.02117 3.38002 4.28596 3.38002 5.09592C3.38002 9.75317 3.38002 14.4104 3.38002 19.0677C3.38002 19.8621 3.67596 20.158 4.47034 20.158C10.031 20.158 15.6073 20.158 21.1679 20.158C21.2925 20.158 21.4171 20.1424 21.5573 20.1424C21.495 19.9867 21.4483 19.8621 21.4016 19.7375C20.8097 18.2422 21.4327 16.4509 22.928 15.8746C23.7847 15.5475 23.9093 15.0958 23.8159 14.3637C23.8003 14.2858 23.8314 14.2079 23.8159 14.1301C23.8003 14.0522 23.7691 13.9431 23.7068 13.8964C22.6788 13.1643 22.7411 12.074 22.7878 11.0148C22.8034 10.6722 23.0994 10.4541 23.4109 10.5008C23.738 10.532 23.9405 10.7345 23.9561 11.0616C23.9716 11.3731 23.9561 11.6846 23.9561 12.0117C23.9716 12.6659 24.361 13.102 24.9373 13.1176C25.5448 13.1332 25.9498 12.6971 25.9654 12.0273C25.9809 11.451 25.9654 10.8747 25.9654 10.2983C25.9654 9.39492 25.9809 8.49151 25.9654 7.5881C25.9498 6.96505 25.5292 6.5445 24.9685 6.5445C24.3922 6.5445 23.9716 6.98063 23.9561 7.61925C23.9561 7.83731 23.9561 8.07095 23.9561 8.28902C23.9405 8.67842 23.7068 8.94322 23.3642 8.94322C23.0371 8.94322 22.7878 8.694 22.7723 8.32017C22.7567 8.00865 22.7567 7.68155 22.7723 7.37003C22.8969 6.03048 24.1118 5.11149 25.4202 5.40744C25.8252 5.5009 26.1834 5.75011 26.5884 5.93703C27.1959 5.06477 28.037 4.53518 29.1273 4.33269ZM24.9997 14.3325C24.9997 14.8154 24.9997 15.3138 24.9997 15.8123C24.9997 16.5599 24.875 16.6845 24.143 16.7157C23.1617 16.778 22.3673 17.588 22.3673 18.5693C22.3517 19.5661 23.1305 20.4695 24.1274 20.4695C24.8283 20.4695 24.9997 20.7811 25.0308 21.3729C25.171 23.6626 26.7442 25.6564 28.9248 26.3729C31.1211 27.105 33.5665 26.4352 35.0618 24.7218C35.9185 23.7249 36.4014 22.5723 36.4792 21.2639C36.5104 20.6565 36.6817 20.5318 37.2736 20.4851C37.5384 20.4695 37.8188 20.4072 38.068 20.2826C38.8468 19.9244 39.2674 19.0365 39.096 18.2266C38.9091 17.3387 38.1926 16.7468 37.2736 16.7157C36.6662 16.7001 36.4948 16.5288 36.4948 15.9369C36.4948 15.4852 36.4948 15.049 36.4948 14.5973C36.4948 14.0833 36.4948 13.5849 36.4948 13.0242C36.3235 13.1332 36.2144 13.1955 36.1054 13.2578C35.1708 13.8497 34.1428 14.2235 33.0369 14.2702C31.8687 14.317 30.7005 14.3014 29.5323 14.2858C28.6289 14.2858 27.8501 13.9431 27.1647 13.3513C27.0713 13.2734 26.9934 13.2111 26.8999 13.1332C26.3236 13.9431 26.0432 14.1145 24.9997 14.3325ZM37.9901 5.46974C37.8032 5.46974 37.663 5.46974 37.5228 5.46974C34.9839 5.46974 32.4295 5.46974 29.8905 5.46974C29.7504 5.46974 29.5946 5.46974 29.4544 5.48532C28.1149 5.62551 27.1803 6.62238 27.1492 7.9775C27.1336 8.84976 27.1336 9.70645 27.1492 10.5787C27.1647 12.0273 28.2083 13.0709 29.6725 13.102C30.6849 13.1176 31.6974 13.1176 32.7098 13.102C35.0774 13.0553 37.1179 11.4665 37.7721 9.20801C38.1303 7.99307 37.9434 6.74699 37.9901 5.46974ZM30.1398 36.4818C30.1398 33.8961 30.1398 31.3572 30.1398 28.8183C30.093 28.8339 30.0619 28.8339 30.0463 28.8495C29.4233 29.4881 28.8002 30.1267 28.1772 30.7653C27.741 31.2015 27.4139 31.1859 27.0401 30.703C26.5728 30.1111 26.1211 29.5037 25.6383 28.8806C24.6881 29.8619 23.9716 30.9834 23.8003 32.3074C23.629 33.6625 23.6757 35.0488 23.6134 36.4195C23.6134 36.435 23.6445 36.4662 23.6601 36.4818C25.8252 36.4818 27.9747 36.4818 30.1398 36.4818ZM16.3705 26.4663C18.1773 26.4663 19.9841 26.4663 21.8065 26.4663C22.3673 26.4663 22.5542 26.1704 22.3361 25.6564C22.0869 25.0801 21.8221 24.5037 21.5573 23.943C21.4483 23.6938 21.277 23.5536 20.981 23.5536C17.9125 23.5536 14.844 23.5536 11.7755 23.5536C11.4796 23.5536 11.3083 23.6782 11.1992 23.9274C10.9656 24.4726 10.7008 25.0333 10.4671 25.5785C10.1868 26.2015 10.3581 26.4663 11.0279 26.4663C12.8036 26.4663 14.5792 26.4663 16.3705 26.4663ZM32.1335 27.8526C32.6942 28.3822 33.2861 28.9429 33.8936 29.5037C34.579 28.647 35.4512 27.7903 35.0462 26.5286C34.0805 26.9648 33.1148 27.4009 32.1335 27.8526ZM26.4638 26.5131C26.0744 27.7903 26.9467 28.647 27.5853 29.4258C28.2083 28.8651 28.8002 28.3043 29.3454 27.8215C28.3952 27.4009 27.4451 26.9648 26.4638 26.5131Z" fill="white"/>
<path d="M5.18647 14.146C5.21763 13.4606 5.48242 12.9934 5.98086 12.6818C6.40141 12.417 6.41699 11.7317 5.99643 11.4825C5.18647 10.9685 4.95283 10.1118 5.42012 9.27066C5.70049 8.77223 5.98086 8.25821 6.29238 7.77535C6.75966 6.99655 7.63192 6.76291 8.44188 7.18346C8.89359 7.4171 9.50106 7.07443 9.51663 6.57599C9.54778 5.68816 10.1553 5.03396 11.0431 4.98723C11.6661 4.95608 12.2736 4.95608 12.8966 4.98723C13.8001 5.01838 14.4231 5.657 14.4698 6.57599C14.501 7.05885 15.0773 7.40153 15.5134 7.16789C16.339 6.73176 17.2112 6.9654 17.6941 7.77535C17.99 8.27379 18.286 8.77223 18.5664 9.27066C19.0181 10.0806 18.7844 10.9529 17.99 11.4669C17.5851 11.7317 17.5851 12.417 17.99 12.6818C18.7844 13.1803 19.0025 14.0525 18.5508 14.8781C18.2704 15.3765 17.99 15.8905 17.6785 16.3734C17.1957 17.1677 16.3234 17.4014 15.4979 16.9653C15.0929 16.7472 14.4854 17.0899 14.4543 17.5416C14.4231 18.5384 13.7845 19.1459 12.772 19.1615C12.2113 19.1615 11.6506 19.1615 11.0742 19.1615C10.202 19.1459 9.54778 18.4917 9.51663 17.6195C9.50106 17.0899 8.90916 16.7472 8.4263 16.9964C7.67865 17.3702 6.83754 17.2145 6.40141 16.5447C5.99643 15.9528 5.66933 15.2986 5.32666 14.6756C5.2332 14.4887 5.21763 14.2706 5.18647 14.146ZM16.3545 16.0618C16.4792 15.9372 16.6193 15.8438 16.7128 15.7192C16.8997 15.4232 17.071 15.1117 17.2424 14.8002C17.7252 13.9746 17.8343 13.9123 16.8841 13.4139C16.5415 13.2426 16.448 12.9778 16.4947 12.6039C16.5415 12.2768 16.557 11.9498 16.4947 11.6227C16.4324 11.2021 16.557 10.9062 16.9464 10.7192C17.0866 10.6569 17.2268 10.5635 17.3514 10.4856C17.6162 10.3298 17.6629 10.1118 17.5072 9.84698C17.2424 9.36412 16.962 8.89683 16.6816 8.41397C16.5259 8.14918 16.2922 8.05572 16.0586 8.24264C15.4356 8.75665 14.8592 8.70992 14.2829 8.16476C14.2518 8.13361 14.2206 8.11803 14.1739 8.10245C13.4262 7.89996 13.1614 7.4171 13.2705 6.65387C13.3172 6.34235 13.1147 6.15544 12.8032 6.15544C12.258 6.15544 11.6973 6.15544 11.1521 6.15544C10.8562 6.15544 10.6537 6.32678 10.7004 6.62272C10.825 7.40153 10.5291 7.88439 9.78143 8.10245C9.75027 8.10245 9.7347 8.11803 9.70355 8.1336C9.12723 8.67877 8.53534 8.74107 7.89672 8.21149C7.67865 8.04015 7.44501 8.11803 7.30482 8.36725C7.00888 8.86568 6.72851 9.36412 6.44814 9.86255C6.30795 10.0962 6.37026 10.3454 6.6039 10.4233C7.44501 10.7192 7.47616 11.3267 7.49174 12.1055C7.50731 12.8532 7.39828 13.3672 6.65063 13.6475C6.35468 13.7566 6.30795 14.0214 6.47929 14.3017C6.6662 14.6133 6.85312 14.9404 7.02445 15.2519C7.50731 16.1086 7.50731 16.1553 8.37958 15.6257C8.70667 15.4232 8.98704 15.4544 9.28299 15.6724C9.51663 15.8438 9.75027 16.0307 10.0151 16.1086C10.5758 16.2955 10.7627 16.6693 10.7004 17.2301C10.6848 17.3079 10.7004 17.3858 10.7004 17.4637C10.7004 17.7908 10.8718 17.931 11.1833 17.931C11.5571 17.931 11.9154 17.931 12.2892 17.931C13.2705 17.931 13.2861 17.931 13.2861 16.9341C13.2861 16.5759 13.4262 16.3422 13.7533 16.202C14.0337 16.0774 14.3452 15.9372 14.5789 15.7503C14.9994 15.4076 15.3732 15.4232 15.7938 15.7192C15.9496 15.8749 16.1209 15.9372 16.3545 16.0618Z" fill="white"/>
<path d="M30.7006 22.8059C29.875 22.7903 29.1741 22.51 28.5666 21.9336C28.2863 21.6688 28.2551 21.3106 28.4732 21.0614C28.7068 20.8122 29.0339 20.8122 29.3454 21.0458C30.3112 21.809 31.199 21.8246 32.1491 21.0458C32.4607 20.7966 32.8033 20.7966 33.0214 21.0458C33.2395 21.295 33.2083 21.6533 32.9279 21.9181C32.3205 22.5411 31.5573 22.8215 30.7006 22.8059Z" fill="white"/>
<path d="M29.3928 16.8874C29.3928 17.1522 29.4084 17.417 29.3928 17.6662C29.3617 17.9777 29.1748 18.1646 28.8633 18.1958C28.5362 18.2114 28.2869 18.04 28.2558 17.7129C28.2246 17.1522 28.2246 16.5915 28.2558 16.0307C28.2714 15.7192 28.5206 15.5479 28.8165 15.5479C29.1436 15.5479 29.3617 15.7348 29.3928 16.0774C29.4084 16.3422 29.3928 16.6226 29.3928 16.8874Z" fill="white"/>
<path d="M32.1026 16.8559C32.1026 16.6067 32.087 16.3575 32.1026 16.1083C32.1182 15.7656 32.3674 15.5164 32.6789 15.5319C33.006 15.5475 33.2397 15.7189 33.2553 16.0615C33.2864 16.5911 33.2864 17.1363 33.2553 17.6659C33.2397 18.0085 32.9593 18.2266 32.6478 18.1955C32.3207 18.1643 32.1182 17.9774 32.1026 17.6347C32.1026 17.3855 32.1182 17.1207 32.1026 16.8559Z" fill="white"/>
<path d="M9.67773 11.7409C9.67773 10.3989 10.7608 9.32764 12.1028 9.32764C13.4331 9.32764 14.5044 10.3989 14.5161 11.7292C14.5161 13.0594 13.4331 14.1543 12.1028 14.166C10.7608 14.166 9.67773 13.083 9.67773 11.7409ZM12.091 10.2223C11.2434 10.2223 10.5724 10.8816 10.5724 11.7292C10.5607 12.5768 11.2434 13.2713 12.091 13.2713C12.9269 13.2713 13.6214 12.565 13.6214 11.7292C13.6097 10.8933 12.9269 10.2223 12.091 10.2223Z" fill="white"/>
</svg>
