<svg width="36" height="36" viewBox="0 0 36 36" fill="none" xmlns="http://www.w3.org/2000/svg">
<path d="M28.1608 35.9896C27.0734 35.6265 27.039 34.7428 27.1147 33.7836C26.8119 33.7836 26.5642 33.7905 26.3164 33.7836C25.4424 33.7699 24.885 33.215 24.8781 32.3449C24.8712 31.516 24.8712 30.6802 24.8781 29.8512C24.8781 29.4265 25.0777 29.2004 25.4149 29.2072C25.7383 29.2141 25.9035 29.4265 25.9104 29.8512C25.9104 30.6596 25.9104 31.468 25.9104 32.2764C25.9104 32.6601 26.0136 32.7628 26.399 32.7628C28.0025 32.7628 29.6059 32.7628 31.2025 32.7628C31.581 32.7628 31.6705 32.6669 31.6705 32.3038C31.6705 30.2554 31.6774 28.2002 31.6636 26.1518C31.6636 26.001 31.5466 25.8503 31.4847 25.6996C31.4778 25.679 31.4503 25.6722 31.4365 25.6516C30.9341 24.946 30.2666 24.7131 29.3995 24.7816C28.436 24.8569 27.4588 24.8021 26.4816 24.8021C25.9723 24.8021 25.8966 24.8775 25.8966 25.3708C25.8966 25.9873 25.8966 26.6039 25.8966 27.2136C25.8966 27.5973 25.7108 27.8165 25.408 27.8302C25.0914 27.8439 24.8781 27.6041 24.8712 27.2136C24.8643 26.5285 24.8575 25.8435 24.8712 25.1652C24.885 24.3637 25.4218 23.8019 26.227 23.7882C27.6308 23.7676 29.0416 23.7813 30.4524 23.7882C30.6176 23.7882 30.8171 23.8088 30.9479 23.8978C31.7324 24.4185 32.455 24.994 32.7647 26.0079C32.9918 26.0079 33.2602 26.001 33.5355 26.0079C34.3475 26.0284 34.9187 26.5354 34.9256 27.3438C34.9463 29.7827 34.9394 32.2216 34.9256 34.6605C34.9256 35.3662 34.4921 35.7772 33.8589 36.0033C31.9595 35.9896 30.0601 35.9896 28.1608 35.9896ZM32.7028 27.0424C32.7028 27.1862 32.7028 27.3096 32.7028 27.4329C32.7028 29.0497 32.7028 30.6665 32.7028 32.2901C32.7028 33.2493 32.1591 33.7836 31.1888 33.7836C30.5006 33.7836 29.8124 33.7836 29.1311 33.7836C28.8145 33.7836 28.498 33.7836 28.1401 33.7836C28.1401 34.0234 28.1401 34.2221 28.1401 34.4276C28.1401 34.9072 28.1952 34.962 28.67 34.9688C30.2253 34.9688 31.7806 34.9688 33.3428 34.9688C33.8452 34.9688 33.914 34.9003 33.914 34.3934C33.914 32.2764 33.9209 30.1527 33.914 28.0357C33.9002 26.9876 34.086 26.9602 32.7028 27.0424Z" fill="white"/>
<path d="M35.9864 7.88714C35.8143 8.53798 35.3395 8.76406 34.7201 8.83257C34.321 8.87367 34.3003 8.96958 34.5274 9.30528C34.6788 9.53135 34.8302 9.76429 34.9128 10.0178C35.0298 10.374 34.8784 10.6892 34.6307 10.9495C34.3554 11.2372 34.0732 11.5181 33.7842 11.799C33.3025 12.2649 32.8207 12.3128 32.2771 11.9086C31.7403 11.4976 31.6508 11.4496 31.5338 12.2032C31.4306 12.8883 31.0659 13.1897 30.3708 13.2034C30.0129 13.2103 29.662 13.2103 29.3041 13.2034C28.609 13.1897 28.2443 12.8951 28.1342 12.2032C28.0103 11.4016 27.9071 11.525 27.3978 11.9018C26.8404 12.3128 26.3656 12.2649 25.8701 11.7784C25.6154 11.5318 25.3677 11.2852 25.1199 11.0317C24.6313 10.5384 24.5969 10.0726 25.0029 9.50395C25.4296 8.90107 25.4296 8.90107 24.6864 8.78461C24.0326 8.68185 23.7092 8.30505 23.7023 7.64051C23.6954 7.28427 23.7023 6.93487 23.7023 6.57863C23.7092 5.87984 23.9913 5.50304 24.6795 5.40028C25.4916 5.27696 25.3883 5.18105 24.9892 4.64668C24.59 4.10546 24.6382 3.63275 25.1199 3.15319C25.3746 2.89286 25.6361 2.63252 25.8976 2.37904C26.3793 1.91318 26.861 1.86522 27.4047 2.26257C27.9209 2.64622 28.031 2.76269 28.148 1.96799C28.2581 1.2555 28.6159 0.974609 29.3454 0.974609C29.7033 0.974609 30.0542 0.974609 30.4121 0.974609C31.059 0.98146 31.4444 1.2966 31.5407 1.93373C31.6577 2.74214 31.7403 2.68048 32.3115 2.24887C32.8276 1.85837 33.3162 1.91318 33.7911 2.37219C34.0595 2.63252 34.3279 2.89971 34.5894 3.16689C35.0436 3.63275 35.0917 4.11231 34.6995 4.63983C34.2659 5.22215 34.2453 5.31807 35.0023 5.39343C35.5322 5.44823 35.8281 5.77707 36.0001 6.24293C35.9864 6.79786 35.9864 7.33907 35.9864 7.88714ZM29.1596 2.02279C29.077 2.63937 29.0426 3.22855 28.3338 3.51628C27.6181 3.81087 27.1914 3.36557 26.7509 3.07098C26.4137 3.38612 26.0972 3.68071 25.7668 3.98214C25.8838 4.14657 26.0008 4.30414 26.1109 4.46171C26.6271 5.1879 26.2279 6.17443 25.3539 6.332C25.2094 6.3594 25.0511 6.3594 24.9135 6.40735C24.8378 6.43476 24.7346 6.52382 24.7346 6.59233C24.7208 6.97598 24.7277 7.35963 24.7277 7.75698C25.3539 7.85974 25.9526 7.88029 26.2417 8.58593C26.5376 9.29843 26.0972 9.72318 25.8012 10.1548C26.1247 10.4905 26.4275 10.7919 26.7441 11.1139C26.8817 11.018 27.0331 10.9015 27.1914 10.7919C27.9277 10.2781 28.8981 10.6755 29.0632 11.5592C29.0908 11.6962 29.0839 11.8401 29.1389 11.9634C29.1802 12.0525 29.2903 12.1689 29.3729 12.1689C29.7377 12.1895 30.1024 12.1758 30.4878 12.1758C30.6117 11.5798 30.5979 10.97 31.3136 10.6686C32.0431 10.3603 32.4766 10.8125 32.9308 11.1071C33.2681 10.7851 33.5709 10.4973 33.8943 10.1959C33.5571 9.70948 33.1235 9.27787 33.4263 8.56538C33.7291 7.85289 34.3347 7.85289 34.9403 7.73643C34.9403 7.51035 34.9403 7.29112 34.9403 7.07874C34.9403 6.42106 34.9403 6.36625 34.2934 6.32514C33.5709 6.27719 32.9928 5.05088 33.5158 4.48911C33.6603 4.33154 33.7704 4.13971 33.8668 4.00955C33.5502 3.67386 33.2612 3.35871 32.9515 3.02987C32.4629 3.39297 32.0293 3.79717 31.3136 3.50258C30.5979 3.208 30.6048 2.59827 30.4878 2.01594C30.0542 2.02279 29.6344 2.02279 29.1596 2.02279Z" fill="white"/>
<path d="M1.30177 35.9886C1.08843 35.8036 0.88886 35.6186 1.01273 35.2967C1.13661 34.9815 1.405 34.9473 1.69404 34.961C1.77662 34.9678 1.85232 34.961 1.98307 34.961C1.98307 34.8239 1.98307 34.7075 1.98307 34.5842C1.98307 33.1592 1.98307 31.7342 1.98307 30.3161C1.98307 30.0694 2.03813 29.8639 2.27899 29.7474C2.64373 29.5625 3.01535 29.8365 3.01535 30.3024C3.02223 31.5081 3.01535 32.7139 3.01535 33.9265C3.01535 34.2553 3.01535 34.5842 3.01535 34.9404C4.08892 34.9404 5.14873 34.9404 6.24982 34.9404C6.24982 34.4334 6.24982 33.9265 6.24982 33.4195C6.24982 32.9879 6.43563 32.7618 6.77284 32.7687C7.11005 32.7755 7.27522 32.9948 7.2821 33.4332C7.2821 33.9333 7.2821 34.4334 7.2821 34.9473C8.48643 34.9473 9.65634 34.9473 10.8607 34.9473C10.8607 34.8239 10.8607 34.7075 10.8607 34.5979C10.8607 31.604 10.8607 28.6034 10.8607 25.6095C10.8607 24.9792 10.6749 24.7943 10.0486 24.7943C7.97717 24.7943 5.90573 24.7943 3.83429 24.7943C3.20804 24.7943 3.02223 24.9792 3.02223 25.6164C3.02223 26.2878 3.02223 26.9591 3.02223 27.6305C3.02223 28.0827 2.82954 28.3293 2.49921 28.3225C2.17577 28.3156 1.99684 28.0758 1.99684 27.6442C1.99684 26.918 1.98996 26.185 1.99684 25.4588C2.00372 24.4928 2.63685 23.7872 3.60719 23.7735C5.83691 23.7461 8.06663 23.7461 10.3032 23.7735C11.2667 23.7872 11.8998 24.486 11.8998 25.4656C11.9067 28.4869 11.8998 31.5013 11.8998 34.5225C11.8998 34.6595 11.8998 34.7897 11.8998 34.9336C12.2921 34.9952 12.7532 34.8445 12.8977 35.3652C12.9803 35.6598 12.7807 35.8242 12.5811 35.9886C8.80987 35.9886 5.05926 35.9886 1.30177 35.9886Z" fill="white"/>
<path d="M8.82355 6.1332C9.19517 6.40724 9.60119 6.64702 9.94529 6.95531C10.9019 7.81852 11.3836 8.9078 11.3974 10.1889C11.4042 10.6205 11.4042 11.0521 11.3974 11.4906C11.3905 12.4566 10.7298 13.1485 9.7526 13.1965C9.23646 13.2239 8.72032 13.2102 8.21106 13.2033C7.84632 13.1965 7.61234 12.9772 7.6261 12.6758C7.63298 12.3743 7.86009 12.1894 8.24547 12.1825C8.70655 12.1757 9.16076 12.1894 9.62184 12.1825C10.1449 12.1757 10.3926 11.9359 10.372 11.4221C10.3513 10.7164 10.3857 9.9971 10.2274 9.31886C9.84206 7.70205 8.20418 6.61961 6.60759 6.81829C4.83895 7.03752 3.55205 8.41454 3.51076 10.141C3.49699 10.5726 3.50387 11.0042 3.51076 11.4426C3.51764 11.929 3.75162 12.1757 4.254 12.1825C4.72196 12.1894 5.18993 12.1825 5.66478 12.1894C6.04328 12.1962 6.2635 12.3881 6.2635 12.6963C6.2635 12.9909 6.05016 13.1965 5.6923 13.2102C5.16928 13.2239 4.63938 13.2376 4.11636 13.2033C3.13914 13.1485 2.48536 12.4566 2.49224 11.4837C2.49912 10.7712 2.46471 10.0382 2.59547 9.33941C2.83633 8.01719 3.61398 7.02381 4.79078 6.35243C4.88713 6.29762 4.99035 6.24281 5.0867 6.18801C3.72409 4.50269 3.71033 2.87903 5.03165 1.71438C6.18091 0.686753 7.93579 0.755262 9.03 1.85825C10.0348 2.87218 10.31 4.78358 8.82355 6.1332ZM6.93104 5.7701C7.97708 5.7701 8.83731 4.92745 8.83731 3.88611C8.83731 2.85163 7.97708 2.00212 6.93104 2.00212C5.89876 2.00897 5.05917 2.83793 5.05229 3.87241C5.03853 4.9206 5.88499 5.7701 6.93104 5.7701Z" fill="white"/>
<path d="M12.25 18.485C12.25 15.1212 14.9959 12.3877 18.3886 12.3877C21.7745 12.3809 24.5203 15.1144 24.5203 18.485C24.5203 21.8556 21.7745 24.5891 18.3886 24.5891C15.0027 24.5823 12.25 21.8488 12.25 18.485ZM18.3817 23.5615C21.1895 23.5683 23.4812 21.3007 23.4881 18.5124C23.4949 15.6967 21.2308 13.4153 18.4093 13.4085C15.5808 13.4016 13.296 15.6624 13.2823 18.4713C13.2685 21.2733 15.5602 23.5546 18.3817 23.5615Z" fill="white"/>
<path d="M20.1576 7.60716C19.4075 7.60716 18.6574 7.60716 17.9004 7.60716C17.0539 7.60716 16.2074 7.61401 15.361 7.60716C14.9481 7.60716 14.6934 7.34683 14.7691 6.99743C14.838 6.67544 15.0719 6.57953 15.3816 6.57953C16.8681 6.58638 18.3546 6.57953 19.8411 6.57953C19.9512 6.57953 20.0613 6.57953 20.1714 6.57953C20.1989 6.54527 20.2265 6.51102 20.2471 6.46991C20.0131 6.26439 19.7654 6.06571 19.5451 5.84648C19.2768 5.58615 19.263 5.28471 19.4832 5.06548C19.6965 4.85311 20.0062 4.87366 20.2746 5.13399C20.7908 5.64096 21.3 6.14107 21.8024 6.65489C22.0983 6.95633 22.0983 7.20981 21.8024 7.51125C21.3 8.02506 20.7908 8.53203 20.2746 9.03214C20.0062 9.29933 19.7103 9.31988 19.4901 9.1075C19.2561 8.88827 19.2768 8.57999 19.5589 8.2991C19.7654 8.09357 19.9925 7.90175 20.2127 7.70307C20.1989 7.67567 20.1783 7.64141 20.1576 7.60716Z" fill="white"/>
<path d="M16.5524 30.496C16.7795 30.7015 17.0135 30.8933 17.2268 31.1125C17.4952 31.3866 17.5159 31.6675 17.3094 31.8936C17.0892 32.1265 16.7795 32.1059 16.4974 31.8319C15.9812 31.3249 15.472 30.8248 14.9696 30.311C14.6806 30.0233 14.6806 29.7629 14.9627 29.482C15.4789 28.9614 15.995 28.4476 16.518 27.9337C16.7864 27.6734 17.0823 27.6597 17.3025 27.8789C17.5228 28.0982 17.5021 28.3859 17.2406 28.6599C17.0342 28.8723 16.8277 29.0847 16.6212 29.2971C16.6144 29.3039 16.6212 29.3176 16.6144 29.3587C16.7314 29.3656 16.8552 29.3724 16.9722 29.3724C18.4036 29.3724 19.8282 29.3724 21.2596 29.3724C21.3628 29.3724 21.4661 29.3656 21.5693 29.3793C21.8583 29.4204 22.0648 29.6533 22.0373 29.9205C22.0029 30.2014 21.8446 30.3795 21.5418 30.3932C21.2803 30.4069 21.0187 30.4001 20.7504 30.4001C19.3809 30.4001 18.0045 30.4001 16.635 30.4001C16.6006 30.4275 16.5731 30.4617 16.5524 30.496Z" fill="white"/>
<path d="M30.4387 20.3012C30.6589 20.0751 30.8723 19.8353 31.0994 19.6161C31.3471 19.3763 31.6499 19.3626 31.8564 19.575C32.0697 19.7873 32.0628 20.0888 31.822 20.3354C31.2921 20.8698 30.7622 21.4041 30.2185 21.9248C29.957 22.1783 29.6955 22.1714 29.434 21.918C28.8972 21.3904 28.3604 20.8629 27.8305 20.3286C27.5965 20.0888 27.5965 19.7736 27.8099 19.5681C28.0163 19.3694 28.3053 19.3831 28.5462 19.5955C28.6701 19.712 28.794 19.8284 28.911 19.9586C29.0142 20.0751 29.1036 20.2121 29.2 20.3354C29.2413 20.3149 29.2757 20.2943 29.317 20.2669C29.317 20.1504 29.317 20.0271 29.317 19.9107C29.317 18.4309 29.317 16.9511 29.317 15.4713C29.317 15.1082 29.489 14.889 29.7781 14.8616C30.1084 14.8273 30.3424 15.0739 30.3424 15.4781C30.3493 16.8072 30.3424 18.1431 30.3424 19.4722C30.3424 19.7325 30.3424 19.9929 30.3424 20.2532C30.3837 20.2738 30.4112 20.2875 30.4387 20.3012Z" fill="white"/>
<path d="M6.94513 25.9943C7.6402 25.9943 8.33526 25.9943 9.03721 25.9943C9.44324 25.9943 9.67723 26.1861 9.67723 26.4944C9.68411 26.8027 9.44324 27.015 9.05098 27.015C7.64708 27.0219 6.24318 27.0219 4.83928 27.015C4.44702 27.015 4.20615 26.7958 4.21303 26.4875C4.21992 26.1861 4.44702 25.9943 4.82552 25.9943C5.52747 25.9874 6.2363 25.9943 6.94513 25.9943Z" fill="white"/>
<path d="M6.9647 29.003C7.65977 29.003 8.35484 29.003 9.05678 29.003C9.43529 29.003 9.66239 29.1949 9.67615 29.4895C9.68992 29.7977 9.44217 30.0238 9.05678 30.0238C7.63912 30.0307 6.22146 30.0307 4.81068 30.0238C4.44594 30.0238 4.20508 29.8114 4.20508 29.51C4.20508 29.2086 4.43218 29.003 4.81068 29.003C5.52639 28.9962 6.24211 29.003 6.9647 29.003Z" fill="white"/>
<path d="M28.7803 27.0152C28.4156 27.0152 28.0509 27.022 27.6792 27.0152C27.3076 27.0015 27.0943 26.7959 27.108 26.4808C27.1218 26.1725 27.3214 26.0012 27.693 25.9944C28.4225 25.9875 29.1588 25.9875 29.8883 25.9944C30.2599 25.9944 30.487 26.1999 30.487 26.5082C30.4802 26.8097 30.2531 27.0083 29.8814 27.022C29.5167 27.022 29.1451 27.0152 28.7803 27.0152Z" fill="white"/>
<path d="M28.7877 29.003C29.1662 29.003 29.5447 28.9962 29.9232 29.003C30.2673 29.0099 30.4944 29.2154 30.4944 29.51C30.4944 29.8046 30.2742 30.017 29.9232 30.0238C29.1662 30.0307 28.4161 30.0375 27.6591 30.0238C27.3081 30.017 27.1085 29.7977 27.1154 29.4963C27.1223 29.2017 27.315 29.0167 27.6591 29.0099C28.0307 28.9962 28.4092 29.003 28.7877 29.003Z" fill="white"/>
<path d="M28 7.0116C27.9942 5.90181 28.8728 5.01167 29.9827 5.00011C31.0925 4.98855 31.9884 5.87291 32 6.97692C32.0058 8.09827 31.1156 8.99997 30 8.99997C28.896 9.00575 28.0058 8.12139 28 7.0116ZM31.1387 7.0116C31.1387 6.38157 30.6474 5.87869 30.0173 5.87291C29.3815 5.86713 28.8786 6.35845 28.8728 6.98848C28.8671 7.63586 29.37 8.14451 30.0116 8.14451C30.63 8.13873 31.1329 7.63586 31.1387 7.0116Z" fill="white"/>
<path d="M18.1524 18.3465C18.4885 17.9974 18.8061 17.6576 19.1422 17.3271C19.5933 16.8848 20.27 16.8941 20.6889 17.3364C21.0848 17.7507 21.1124 18.4117 20.7165 18.8307C20.1135 19.4684 19.492 20.0922 18.866 20.7021C18.4563 21.1024 17.8256 21.0977 17.4067 20.6974C17.02 20.3296 16.6471 19.9526 16.2881 19.5615C15.8876 19.1286 15.9106 18.4676 16.3203 18.0533C16.7208 17.6436 17.3607 17.6203 17.798 18.0021C17.9085 18.1045 18.0143 18.2162 18.1524 18.3465ZM20.3575 18.0859C20.2608 17.9648 20.1871 17.8298 20.0721 17.7507C19.9155 17.6436 19.7452 17.7041 19.6163 17.8345C19.2342 18.2162 18.8568 18.5979 18.4793 18.9796C18.2031 19.2543 18.0696 19.2543 17.7888 18.975C17.6645 18.8493 17.5402 18.7236 17.4159 18.5979C17.2087 18.3978 16.9786 18.3838 16.8082 18.5514C16.6379 18.7236 16.6517 18.9564 16.8543 19.1659C17.1719 19.4917 17.4896 19.8129 17.8118 20.1341C18.0328 20.3529 18.2353 20.3622 18.4517 20.1434C19.0225 19.5709 19.5887 18.9983 20.1549 18.421C20.2286 18.3419 20.27 18.2302 20.3575 18.0859Z" fill="white"/>
</svg>
