<svg width="45" height="45" viewBox="0 0 45 45" fill="none" xmlns="http://www.w3.org/2000/svg">
<path d="M45 14.751V15.1929L44.5333 15.6518L37.2797 19.14L37.2692 26.5523C37.1452 28.1334 35.9904 29.416 34.8469 30.3912C34.5991 30.6029 33.7984 31.0821 33.7518 31.323C33.6287 31.9582 33.8431 32.9308 33.7447 33.6084C35.3223 34.2709 35.5843 36.0017 34.469 37.2605C34.5296 38.4864 34.759 39.7273 34.8091 40.9515C34.8232 41.2979 34.8232 41.6831 34.4874 41.8727C34.2281 42.0189 32.342 42.0189 31.9465 41.9728C31.2803 41.8949 31.2723 41.4245 31.2899 40.8673C31.3251 39.7716 31.6626 38.3809 31.6292 37.3269C31.6213 37.0895 31.2091 36.7024 31.0886 36.3844C30.6633 35.263 31.1942 34.0123 32.3437 33.6642V32.0733C31.5079 32.4179 30.6958 32.8342 29.8406 33.1354C24.6779 34.9557 18.7259 34.775 13.7145 32.5561C11.4284 31.5436 7.94796 29.3088 7.73172 26.5532L7.69219 19.0815L0.466714 15.6518L0 15.1929V14.751L0.465831 14.2913C7.48824 11.1636 14.3103 7.55931 21.3257 4.42366C22.4446 3.9232 22.3435 3.83192 23.4984 4.33505C30.6536 7.4521 37.5645 11.2185 44.6942 14.3957L45 14.751ZM42.6261 14.929L22.4631 5.47238L2.37214 14.9716L22.4631 24.4716L31.6406 20.1861L22.0641 15.3214C21.5218 14.8688 21.825 14.0043 22.5422 14.037L33.2719 19.3429L42.6261 14.9282V14.929ZM32.3437 21.467L23.0862 25.8126L22.4587 25.9782L9.14062 19.7884V26.7258C9.14062 27.6258 11.0786 29.3044 11.787 29.8093C17.4859 33.867 26.4111 33.9662 32.3437 30.3487V21.467ZM35.8594 19.7884L33.75 20.8044V29.3327C33.9996 29.2406 34.3415 28.935 34.5322 28.749C34.8759 28.4151 35.8594 27.1679 35.8594 26.7258V19.7884ZM32.8473 34.9176C32.0379 35.0947 32.2172 36.5226 33.2473 36.2968C34.0567 36.1196 33.8774 34.6917 32.8473 34.9176ZM33.1339 37.7281C33.0284 37.59 32.973 37.7264 32.9581 37.8584C32.8544 38.7459 32.8438 39.6644 32.7823 40.5565H33.3105L33.1339 37.7281Z" fill="white"/>
</svg>
