<svg width="30" height="38" viewBox="0 0 30 38" fill="none" xmlns="http://www.w3.org/2000/svg">
<path d="M29.0665 37.7566C21.0271 37.7566 12.9878 37.7566 4.94849 37.7566C4.89662 37.7306 4.84475 37.7047 4.77992 37.6917C2.13472 37.2379 0.410156 35.241 0.410156 32.5829C0.410156 23.6488 0.410156 14.7148 0.410156 5.78079C0.410156 2.94109 2.58855 0.762695 5.41529 0.762695C12.9359 0.762695 20.4566 0.762695 27.9773 0.762695C28.1588 0.762695 28.3403 0.775662 28.5089 0.801595C29.3517 0.983128 29.7796 1.56663 30.0001 2.34463C30.0001 11.7584 30.0001 21.1722 30.0001 30.586C29.8185 30.8453 29.624 31.0917 29.4425 31.351C29.3906 31.4288 29.3647 31.5455 29.3647 31.6493C29.3647 32.4143 29.3517 33.1793 29.3647 33.9573C29.3647 34.0611 29.4166 34.1778 29.4684 34.2815C29.637 34.5538 29.8185 34.8131 30.0001 35.0725C30.0001 35.63 30.0001 36.1746 30.0001 36.7322C29.8574 37.2249 29.5333 37.5491 29.0665 37.7566ZM28.7682 27.863C28.7682 27.7074 28.7682 27.5777 28.7682 27.4481C28.7682 19.2661 28.7682 11.0712 28.7682 2.88923C28.7682 2.17606 28.5867 1.98156 27.8735 1.98156C20.703 1.98156 13.5324 1.98156 6.36185 1.98156C6.23219 1.98156 6.10252 1.98156 5.98582 1.98156C5.98582 10.6303 5.98582 19.2402 5.98582 27.85C13.5713 27.863 21.1438 27.863 28.7682 27.863ZM4.72805 2.05936C4.63729 2.07233 4.57245 2.08529 4.52059 2.09826C2.77009 2.51319 1.64199 3.99139 1.64199 5.89749C1.64199 13.6386 1.64199 21.3797 1.64199 29.1078C1.64199 29.2245 1.64199 29.3412 1.64199 29.5616C2.52372 28.6151 3.54809 28.1094 4.71509 27.9278C4.72805 19.292 4.72805 10.6952 4.72805 2.05936ZM28.7553 35.2929C28.5737 35.2929 28.4181 35.2929 28.2625 35.2929C20.7678 35.2929 13.2731 35.2929 5.77835 35.2929C5.62275 35.2929 5.46715 35.2929 5.31155 35.2929C4.05379 35.2151 3.08129 34.3334 2.91272 33.1404C2.75712 31.9994 3.43139 30.8713 4.54652 30.5082C4.89662 30.3915 5.27265 30.3656 5.64869 30.3656C13.1953 30.3526 20.7419 30.3656 28.2885 30.3656C28.4441 30.3656 28.5997 30.3656 28.7553 30.3656C28.7553 29.9377 28.7553 29.5616 28.7553 29.1337C28.5867 29.1337 28.4311 29.1337 28.2755 29.1337C20.7289 29.1337 13.1823 29.1337 5.63572 29.1337C5.41529 29.1337 5.20782 29.1467 4.98739 29.1597C2.83492 29.3153 1.24002 31.4937 1.74572 33.5813C2.16065 35.3448 3.74259 36.5247 5.70055 36.5247C13.2601 36.5247 20.8197 36.5247 28.3663 36.5247C28.4959 36.5247 28.6126 36.5247 28.7553 36.5247C28.7553 36.0968 28.7553 35.7208 28.7553 35.2929ZM28.1199 31.5974C27.9643 31.5974 27.8346 31.5974 27.7179 31.5974C20.3269 31.5974 12.9489 31.5974 5.55792 31.5974C5.46715 31.5974 5.36342 31.5974 5.27265 31.5974C4.72805 31.6233 4.27422 31.9994 4.15752 32.5051C4.02785 33.0367 4.22235 33.5813 4.71509 33.8277C4.98739 33.9703 5.33749 34.0481 5.64869 34.0481C13.0137 34.0611 20.3658 34.0611 27.7309 34.0611C27.8606 34.0611 27.9902 34.0611 28.1199 34.0611C28.1199 33.2182 28.1199 32.4273 28.1199 31.5974Z" fill="white"/>
<path d="M17.9804 16.7637C18.2787 16.673 18.4732 16.6081 18.6806 16.5563C19.1863 16.4136 19.6272 16.6081 19.8217 17.1009C19.9384 17.3732 20.0292 17.6714 20.107 17.9567C20.2366 18.4235 20.081 18.8125 19.6661 19.0329C18.6028 19.6034 17.4618 19.9406 16.2429 19.8498C14.4276 19.7201 13.2087 18.0085 13.6885 16.258C14.0515 14.8836 14.4794 13.535 14.8684 12.1735C14.8814 12.1087 14.8944 12.0439 14.9333 11.9012C14.6999 11.9661 14.5054 12.005 14.3238 12.0698C13.7014 12.2643 13.2606 12.0439 13.0401 11.4344C12.9494 11.1881 12.8586 10.9417 12.7938 10.6824C12.6771 10.2804 12.8067 9.86547 13.1568 9.67097C14.3368 9.02264 15.5946 8.62067 16.9561 8.8411C18.6547 9.12637 19.6791 10.7991 19.2123 12.4718C18.8492 13.7684 18.4602 15.0521 18.0842 16.3488C18.0453 16.4655 18.0193 16.5692 17.9804 16.7637ZM16.6449 18.6309C16.6578 18.6569 16.6578 18.6958 16.6708 18.7217C17.3191 18.5402 17.9545 18.3716 18.6028 18.1771C18.6936 18.1512 18.7455 18.0345 18.8103 17.9567C18.7066 17.9437 18.6028 17.9178 18.4991 17.9178C18.4343 17.9178 18.3565 17.9567 18.2916 17.9696C17.5136 18.0993 16.8264 17.5936 16.7616 16.8156C16.7356 16.5563 16.8134 16.271 16.8912 16.0117C17.2673 14.702 17.6692 13.4054 18.0323 12.0957C18.3046 11.1103 17.5914 10.0989 16.606 10.034C15.7761 9.98217 14.9851 10.1767 14.2201 10.5268C14.1553 10.5527 14.1293 10.6564 14.0775 10.7213C14.1553 10.7472 14.2331 10.7861 14.3109 10.7731C14.5702 10.7602 14.8425 10.6694 15.0889 10.7083C15.8539 10.838 16.2948 11.5771 16.0743 12.3421C15.6853 13.7036 15.2834 15.0651 14.8814 16.4266C14.5443 17.6714 15.3482 18.6828 16.6449 18.6309Z" fill="white"/>
<path d="M17.0591 21.1077C18.8096 21.1077 20.5731 21.1077 22.3236 21.1077C22.4532 21.1077 22.5959 21.1077 22.7255 21.1207C23.0238 21.1725 23.1923 21.38 23.2183 21.6653C23.2442 21.9376 23.1145 22.158 22.8422 22.2617C22.6996 22.3136 22.531 22.3266 22.3884 22.3266C18.8355 22.3266 15.2827 22.3266 11.7428 22.3266C11.6131 22.3266 11.4705 22.3136 11.3538 22.2877C11.0426 22.1969 10.9 21.9765 10.9129 21.6653C10.9389 21.367 11.1204 21.1596 11.4316 21.1077C11.5613 21.0947 11.6909 21.0947 11.8336 21.0947C13.5711 21.1077 15.3086 21.1077 17.0591 21.1077Z" fill="white"/>
<path d="M20.1318 6.00193C20.1318 7.19487 19.1852 8.1544 17.9923 8.1544C16.7994 8.1544 15.8398 7.20783 15.8398 6.0149C15.8398 4.82197 16.7864 3.86244 17.9793 3.86244C19.1723 3.84947 20.1188 4.79604 20.1318 6.00193ZM18.887 6.0149C18.887 5.49624 18.498 5.09427 17.9793 5.09427C17.4607 5.09427 17.0587 5.48327 17.0587 6.00193C17.0587 6.5206 17.4477 6.92257 17.9664 6.92257C18.485 6.92257 18.887 6.5206 18.887 6.0149Z" fill="white"/>
<path d="M17.0196 25.4125C16.0212 25.4125 15.0228 25.4125 14.0243 25.4125C13.5316 25.4125 13.2463 25.0235 13.4019 24.5956C13.5057 24.3103 13.7261 24.1807 14.0243 24.1807C16.0471 24.1807 18.0699 24.1807 20.0927 24.1807C20.4947 24.1807 20.754 24.453 20.767 24.7901C20.767 25.1532 20.4947 25.3995 20.0668 25.3995C19.0424 25.4255 18.031 25.4125 17.0196 25.4125Z" fill="white"/>
</svg>
