<svg width="41" height="40" viewBox="0 0 41 40" fill="none" xmlns="http://www.w3.org/2000/svg">
<path d="M20.7299 7.47651C21.1637 7.55919 21.605 7.6118 22.0313 7.73206C24.4846 8.43108 26.3246 10.5882 26.6238 13.1137C26.6836 13.6023 26.6687 14.0983 26.6911 14.5869C26.6911 14.6771 26.6911 14.7598 26.6911 14.8575C26.7734 14.865 26.8332 14.8725 26.8931 14.865C27.8579 14.8049 28.3441 15.6392 28.3441 16.3232C28.3441 17.6761 28.3516 19.0365 28.3366 20.3895C28.3366 20.6225 28.4114 20.7352 28.6134 20.8404C29.3165 21.2012 29.9971 21.6071 30.7002 21.9604C31.1864 22.2009 31.3659 22.5692 31.3509 23.1028C31.3135 24.1626 31.0069 25.1322 30.5057 26.0492C30.0794 26.8384 29.5558 27.545 28.8228 28.0861C28.7555 28.1312 28.6882 28.1763 28.6209 28.2289C28.1646 28.5747 27.7233 28.5747 27.2521 28.2365C26.8108 27.9208 26.4069 27.5675 26.0778 27.1316C25.988 27.0113 25.8908 26.9812 25.7562 26.9812C21.7321 26.9812 17.7081 26.9812 13.6766 26.9812C12.8015 26.9812 12.2928 26.5303 12.1881 25.6584C12.1806 25.6058 12.1657 25.5532 12.1582 25.5005C12.1582 24.4483 12.1582 23.3885 12.1582 22.3362C12.1732 22.2836 12.1881 22.231 12.2031 22.1859C12.2779 21.998 12.42 21.9078 12.6145 21.9228C12.8164 21.9378 12.9436 22.0506 12.981 22.246C13.0034 22.3738 12.9959 22.5015 12.9959 22.6368C12.9959 23.5538 12.9959 24.4708 13.0034 25.3878C13.0034 25.5456 13.0258 25.7035 13.0782 25.8463C13.153 26.0567 13.3175 26.162 13.5494 26.162C17.4388 26.162 21.3282 26.162 25.2176 26.162C25.27 26.162 25.3224 26.162 25.3822 26.162C25.2102 25.7561 25.0232 25.3803 24.8811 24.9819C24.6342 24.3055 24.4996 23.5989 24.522 22.8698C24.537 22.4715 24.7165 22.2009 25.0606 22.0205C25.7337 21.6597 26.3919 21.2689 27.0801 20.9382C27.4316 20.7728 27.5438 20.5699 27.5363 20.179C27.5064 18.9388 27.5288 17.6986 27.5214 16.4585C27.5214 16.3081 27.4914 16.1428 27.4391 16C27.3643 15.7895 27.1997 15.6843 26.9679 15.6843C22.5025 15.6843 18.0297 15.6843 13.5644 15.6843C13.2353 15.6843 13.0258 15.8947 13.0184 16.2706C13.0034 16.7666 13.0109 17.2552 13.0109 17.7513C13.0109 17.9918 13.0109 18.2323 13.0109 18.4728C13.0109 18.8261 12.9062 18.999 12.6668 19.0441C12.4424 19.0892 12.2779 18.9614 12.1657 18.6382C12.1657 17.8715 12.1657 17.1049 12.1657 16.3382C12.1806 16.263 12.1956 16.1954 12.2031 16.1202C12.2704 15.5114 12.7491 14.8199 13.5868 14.865C13.6691 14.8725 13.7439 14.865 13.871 14.865C13.871 14.3238 13.8336 13.7977 13.8785 13.2866C14.0879 10.7085 16.0252 8.38598 18.5084 7.71703C18.9198 7.60429 19.3461 7.55167 19.765 7.46899C20.0791 7.47651 20.4082 7.47651 20.7299 7.47651ZM23.8863 14.865C23.8863 14.4666 23.9012 14.0908 23.8863 13.715C23.7516 11.1294 20.9767 9.48336 18.673 10.6409C16.9152 11.5278 16.459 13.0912 16.631 14.8575C19.0395 14.865 21.4554 14.865 23.8863 14.865ZM15.7858 14.865C15.7858 14.7523 15.7858 14.6546 15.7858 14.5493C15.8008 14.1209 15.7709 13.6774 15.8457 13.2565C16.1523 11.5128 17.1322 10.2876 18.7926 9.70884C20.4681 9.11506 22.0089 9.47584 23.3178 10.686C24.2752 11.5729 24.724 12.7003 24.7315 14.0006C24.7315 14.2863 24.7315 14.5719 24.7315 14.8725C24.9409 14.8725 25.1204 14.8725 25.3074 14.8725C25.4869 14.8725 25.6739 14.8725 25.8459 14.8725C26.0329 12.3997 25.255 10.3703 23.1009 9.10003C21.0216 7.87487 18.8973 7.99513 16.9452 9.41571C15.1127 10.7461 14.4993 12.6477 14.6714 14.865C15.0379 14.865 15.3969 14.865 15.7858 14.865ZM25.3298 23.1254C25.4046 24.3956 25.8609 25.4404 26.534 26.4025C26.8632 26.8685 27.2521 27.2744 27.7383 27.5825C27.8729 27.6652 27.9701 27.6652 28.1048 27.5825C28.7256 27.1767 29.1893 26.628 29.5708 26.0041C30.1318 25.0871 30.5057 24.11 30.5057 23.0127C30.5057 22.8849 30.4758 22.8022 30.3561 22.7345C29.5857 22.3212 28.8228 21.9002 28.0524 21.4944C27.9776 21.4568 27.8505 21.4568 27.7757 21.5019C27.0651 21.8777 26.362 22.2685 25.6515 22.6368C25.4196 22.7646 25.255 22.8999 25.3298 23.1254Z" fill="white" stroke="white" stroke-width="0.157432" stroke-miterlimit="10"/>
<path d="M18.516 18.4501C19.092 18.4501 19.6754 18.4501 20.2513 18.4501C20.558 18.4501 20.7524 18.6155 20.745 18.871C20.7375 19.1191 20.5505 19.2769 20.2588 19.2769C19.092 19.2769 17.9326 19.2769 16.7658 19.2769C16.4591 19.2769 16.2871 19.1266 16.2871 18.871C16.2871 18.6155 16.4591 18.4576 16.7583 18.4576C17.3417 18.4426 17.9251 18.4501 18.516 18.4501Z" fill="white" stroke="white" stroke-width="0.236149" stroke-miterlimit="10"/>
<path d="M17.9401 21.4868C17.5437 21.4868 17.1547 21.4868 16.7583 21.4868C16.4591 21.4868 16.2871 21.3289 16.2871 21.0734C16.2871 20.8178 16.4591 20.6675 16.7658 20.6675C17.5512 20.6675 18.344 20.6675 19.1294 20.6675C19.436 20.6675 19.6081 20.8178 19.6155 21.0734C19.6155 21.3364 19.4435 21.4943 19.1294 21.4943C18.7255 21.4943 18.329 21.4868 17.9401 21.4868Z" fill="white" stroke="white" stroke-width="0.236149" stroke-miterlimit="10"/>
<path d="M12.9893 20.5022C12.9819 20.7277 12.7874 20.9231 12.563 20.9081C12.3461 20.9006 12.1666 20.7126 12.1741 20.4872C12.1741 20.2542 12.361 20.0738 12.5929 20.0813C12.8173 20.0888 12.9968 20.2767 12.9893 20.5022Z" fill="white" stroke="white" stroke-width="0.393581" stroke-miterlimit="10"/>
<path d="M27.5816 24.6209C28.0079 24.2526 28.4193 23.8993 28.8232 23.5385C28.9728 23.4108 29.1299 23.3582 29.3094 23.4333C29.5637 23.5385 29.6385 23.8843 29.4365 24.0872C28.9354 24.5833 28.4118 25.0719 27.8957 25.5604C27.7237 25.7183 27.5068 25.7108 27.3423 25.5529C27.1029 25.3274 26.8785 25.0944 26.6541 24.8539C26.4896 24.6735 26.5045 24.4405 26.6616 24.2827C26.8262 24.1173 27.058 24.1173 27.245 24.2902C27.3123 24.3503 27.3722 24.418 27.432 24.4781C27.4918 24.5382 27.5517 24.5983 27.5816 24.6209Z" fill="white"/>
<path d="M20.9213 0.659668C25.6858 3.48579 30.7196 5.67302 36.0376 7.1838C36.8753 7.42432 36.9875 7.57464 36.9875 8.44653C36.98 11.3328 37.0324 14.2265 36.9576 17.1128C36.808 23.1484 34.7062 28.4173 30.5999 32.8519C28.5505 35.0692 26.1869 36.8806 23.4643 38.1959C22.8061 38.5116 22.1105 38.7522 21.4074 38.9701C20.5623 39.2257 19.7619 38.9626 18.9766 38.6544C16.7252 37.7826 14.7356 36.4597 12.9106 34.9038C10.0534 32.4685 7.82444 29.5372 6.33599 26.0647C5.30381 23.6444 4.6082 21.119 4.51844 18.4958C4.39877 15.0458 4.42869 11.5958 4.40625 8.14588C4.40625 7.64229 4.60072 7.40928 5.13925 7.25144C7.53274 6.56746 9.88134 5.77825 12.1851 4.82368C14.8329 3.73382 17.3909 2.45606 19.8666 1.01293C20.0686 0.892672 20.2705 0.779928 20.4725 0.659668C20.6221 0.659668 20.7717 0.659668 20.9213 0.659668ZM35.4467 13.5426C35.4318 13.5426 35.4093 13.5426 35.3944 13.5426C35.3944 12.0543 35.3869 10.5661 35.4018 9.0779C35.4093 8.76973 35.3121 8.64947 35.0204 8.56679C30.1212 7.13118 25.4614 5.13185 21.0335 2.58383C20.7866 2.44103 20.6071 2.44103 20.3603 2.58383C18.0117 3.94428 15.6033 5.1995 13.0751 6.18413C10.8387 7.06353 8.55744 7.80013 6.2986 8.59685C6.12656 8.65698 5.99193 8.68705 5.99193 8.92757C6.04429 12.1746 6.00689 15.4291 6.149 18.6687C6.27616 21.4271 7.09892 24.0353 8.32558 26.5157C9.70183 29.2967 11.6091 31.6643 13.9577 33.6712C15.6182 35.0842 17.4208 36.2718 19.4403 37.1136C20.2182 37.4368 20.9886 37.5495 21.7814 37.1812C22.133 37.0159 22.492 36.8881 22.8361 36.7152C27.0396 34.5806 30.3232 31.4764 32.6269 27.35C34.1303 24.6591 35.0204 21.7579 35.2522 18.6762C35.3794 16.9625 35.3869 15.2488 35.4467 13.5426Z" fill="white"/>
</svg>
