<svg width="36" height="38" viewBox="0 0 36 38" fill="none" xmlns="http://www.w3.org/2000/svg">
<path d="M35.9559 32.3749C35.9046 32.5729 35.8703 32.7709 35.819 32.9508C35.2197 35.8303 32.8055 37.828 29.9976 37.774C27.2581 37.72 24.9124 35.5784 24.4502 32.7169C24.1762 31.0611 24.5358 29.5494 25.4432 28.1636C25.5117 28.0557 25.5802 27.9657 25.6487 27.8757C24.7241 26.9039 23.7995 25.932 22.875 24.9602C20.5635 26.8859 17.9953 27.3358 15.1531 26.256C14.7422 27.1018 14.3484 27.9477 13.9374 28.8115C14.999 29.6394 15.5983 30.7552 15.6667 32.141C15.7181 33.1668 15.427 34.1026 14.8449 34.9125C13.6293 36.5862 11.4548 37.0901 9.70839 36.1003C7.96198 35.1105 7.12302 32.9508 7.7394 31.0072C8.44139 28.7935 10.2392 27.8217 12.9101 28.2356C13.3039 27.4078 13.6977 26.5799 14.1258 25.6981C12.6191 24.7082 11.5404 23.3405 10.9069 21.5588C9.21186 22.0447 7.53394 22.5126 5.87314 22.9805C5.61631 25.0142 4.67462 26.13 3.13367 26.22C1.76393 26.31 0.53117 25.3561 0.188736 23.9704C-0.153697 22.5666 0.462683 21.1269 1.69544 20.479C3.06518 19.7771 4.40067 20.227 5.54782 21.7927C7.22575 21.3248 8.90367 20.8389 10.5816 20.371C10.3419 17.3475 10.6843 16.0157 12.2424 13.8201C11.2836 12.8303 10.359 11.8584 9.41732 10.8866C6.69498 13.1002 3.13367 12.3444 1.28452 9.93278C-0.581739 7.50319 -0.393401 3.9758 1.71257 1.76218C3.85278 -0.45144 7.22575 -0.595415 9.53718 1.42024C11.763 3.3639 12.4479 7.07127 10.359 9.91478C11.2836 10.8866 12.2082 11.8584 13.1499 12.8303C15.5469 10.8686 18.2007 10.4547 21.1114 11.6785C21.471 10.9946 21.8305 10.2927 22.1901 9.60883C20.6491 7.71916 20.4779 5.91947 21.6936 4.37173C22.7894 2.98597 24.6556 2.64403 26.111 3.54387C27.5834 4.44372 28.2169 6.3154 27.6348 7.98911C26.9842 9.82479 25.3919 10.6167 23.2174 10.1847C22.8578 10.8686 22.4983 11.5525 22.1216 12.2724C24.0221 13.6581 25.135 15.5478 25.4775 17.9954C27.4293 17.9234 29.3812 17.8514 31.3502 17.7614C31.3844 17.6535 31.4187 17.5635 31.4529 17.4555C31.8125 16.3937 32.7713 15.7458 33.8328 15.8538C34.8601 15.9437 35.6991 16.7536 35.8874 17.8514C35.9046 17.9234 35.9388 17.9954 35.9559 18.0674C35.9559 18.1934 35.9559 18.3193 35.9559 18.4453C35.9388 18.5353 35.9046 18.6073 35.8874 18.6973C35.682 19.7591 34.9115 20.533 33.9356 20.6589C32.8912 20.7849 31.9666 20.263 31.5214 19.2372C31.4358 19.0212 31.3331 18.9672 31.1105 18.9672C29.7408 19.0212 28.3539 19.0752 26.9842 19.1292C26.4876 19.1472 26.0082 19.1832 25.4946 19.2012C25.3919 21.0189 24.7926 22.6206 23.7139 23.9884C24.6556 24.9782 25.5802 25.95 26.5048 26.9219C26.5561 26.8859 26.6246 26.8319 26.6931 26.7779C29.5011 24.6003 33.439 25.4821 35.1683 28.6676C35.5793 29.4234 35.7676 30.2333 35.9217 31.0611C35.9559 31.5291 35.9559 31.961 35.9559 32.3749ZM17.9953 12.2004C14.4853 12.1824 11.626 15.1879 11.6089 18.8952C11.5918 22.5486 14.4511 25.5721 17.9268 25.5901C21.4539 25.6081 24.3474 22.6206 24.3646 18.9492C24.3646 15.2239 21.5395 12.2184 17.9953 12.2004ZM11.6089 29.2615C10.0337 29.2615 8.71533 30.6112 8.71533 32.2849C8.69821 33.9766 9.99946 35.3444 11.5918 35.3624C13.2012 35.3804 14.5025 34.0126 14.5025 32.3389C14.5025 30.6292 13.2183 29.2615 11.6089 29.2615ZM9.29747 9.26689C10.7871 7.59318 10.9754 4.46172 8.92079 2.48206C6.98604 0.628375 3.93839 0.844337 2.26046 2.96797C0.479805 5.19959 1.16467 8.09709 2.22622 9.12292C2.41456 8.54701 2.51729 7.88113 2.82548 7.34122C3.13367 6.78332 3.63019 6.35139 4.04111 5.86547C3.25352 4.69568 3.30488 3.4179 4.21233 2.51805C5.05129 1.69019 6.35254 1.6182 7.25999 2.39207C8.27017 3.23793 8.3729 4.51571 7.53394 5.99145C8.66397 6.71133 9.26323 7.79114 9.29747 9.26689ZM28.4395 31.5471C27.6177 30.0893 27.6862 28.8655 28.645 28.0017C29.5182 27.2278 30.7681 27.2098 31.6413 27.9837C32.0864 28.3796 32.3604 28.8835 32.446 29.4774C32.5658 30.2513 32.3433 30.9172 31.8467 31.5291C33.011 32.2849 33.5931 33.3828 33.6445 34.8405C35.3396 32.9508 35.0998 29.7294 33.1651 27.9837C31.1619 26.166 28.08 26.5079 26.4705 28.7036C24.8097 30.9892 25.5973 33.8147 26.6589 34.7865C26.7102 33.3828 27.3095 32.3029 28.4395 31.5471ZM26.676 6.71133C26.676 5.36156 25.6144 4.28175 24.3474 4.28175C23.0633 4.29974 22.036 5.39756 22.0531 6.74732C22.0702 8.07909 23.1147 9.15891 24.3646 9.15891C25.6487 9.15891 26.676 8.0611 26.676 6.71133ZM2.91108 24.9962C3.85278 24.9962 4.64037 24.1863 4.6575 23.1965C4.6575 22.1887 3.88702 21.3428 2.92821 21.3428C1.98651 21.3428 1.19892 22.1527 1.18179 23.1425C1.16467 24.1503 1.95227 24.9962 2.91108 24.9962ZM8.03047 8.52902C7.77364 7.43121 6.83195 6.69333 5.75328 6.71133C4.72598 6.72933 3.78429 7.52119 3.61307 8.52902C5.06842 8.52902 6.54088 8.52902 8.03047 8.52902ZM27.9601 34.1206C29.4326 34.1206 30.8879 34.1206 32.3604 34.1206C32.2063 33.1128 31.2132 32.3029 30.1517 32.3029C29.0901 32.3029 28.1142 33.1128 27.9601 34.1206ZM33.1137 35.3804C31.1447 35.3804 29.1757 35.3804 27.1896 35.3804C28.645 36.9461 31.7954 36.9281 33.1137 35.3804ZM8.7667 9.7888C6.79771 9.7888 4.82871 9.7888 2.8426 9.7888C4.29794 11.3545 7.46545 11.3365 8.7667 9.7888ZM5.80465 5.50554C6.43815 5.50554 6.9518 4.96563 6.96892 4.29974C6.96892 3.63386 6.47239 3.07595 5.83889 3.07595C5.18827 3.05796 4.6575 3.61586 4.6575 4.29974C4.6575 4.94763 5.17115 5.48754 5.80465 5.50554ZM31.316 29.8734C31.316 29.2075 30.8023 28.6676 30.1688 28.6496C29.5182 28.6496 28.9874 29.2075 29.0045 29.8913C29.0216 30.5572 29.5353 31.0971 30.1688 31.0791C30.8023 31.0791 31.316 30.5212 31.316 29.8734ZM33.6274 19.5071C34.2609 19.5071 34.7917 18.9672 34.7917 18.3013C34.8088 17.6175 34.278 17.0596 33.6274 17.0596C32.9939 17.0596 32.4802 17.6175 32.4802 18.2833C32.4802 18.9672 32.9939 19.5071 33.6274 19.5071Z" fill="white"/>
<path d="M16.5924 19.1472C14.6405 17.7974 14.8288 15.5478 15.839 14.396C17.0033 13.0822 18.9552 13.0822 20.1194 14.396C21.1638 15.5838 21.3008 17.8334 19.3832 19.1472C19.4859 19.2012 19.5715 19.2551 19.6571 19.2911C21.1125 20.047 21.9001 21.2708 22.0199 22.9805C22.0542 23.5384 21.8316 23.7724 21.3008 23.7724C19.075 23.7724 16.8663 23.7724 14.6405 23.7724C14.1097 23.7724 13.8871 23.5384 13.9214 22.9805C14.0241 21.3428 14.7775 20.137 16.1643 19.3631C16.2328 19.3271 16.3013 19.2911 16.3527 19.2731C16.4383 19.2371 16.4896 19.2012 16.5924 19.1472ZM20.8043 22.5486C20.5475 21.0368 19.1777 19.993 17.7224 20.137C16.4554 20.263 15.2226 21.4508 15.2226 22.5486C17.0546 22.5486 18.9209 22.5486 20.8043 22.5486ZM17.9621 14.6479C17.0204 14.6479 16.2499 15.4938 16.2499 16.4836C16.2499 17.4914 17.0546 18.3193 18.0135 18.3013C18.9552 18.2833 19.7256 17.4734 19.7256 16.4656C19.7256 15.4578 18.9209 14.6299 17.9621 14.6479Z" fill="white"/>
</svg>
