<svg width="37" height="38" viewBox="0 0 37 38" fill="none" xmlns="http://www.w3.org/2000/svg">
<path d="M15.1807 0.0834961C15.9244 0.195048 16.6681 0.306601 17.4118 0.455337C22.9894 1.7196 27.3399 6.44198 28.1208 12.094C28.1952 12.503 28.2323 12.8748 28.2323 13.2838C28.2323 13.507 28.3067 13.5813 28.5298 13.6557C32.6944 15.0315 35.4089 17.8203 36.5616 22.0221C37.4168 25.0712 37.0078 28.0459 35.4832 30.8347C35.3717 31.0578 35.3345 31.2438 35.4089 31.4669C35.8923 33.2145 36.3757 34.9622 36.8591 36.7098C36.8591 36.747 36.8962 36.8214 36.8962 36.9329C36.1154 36.7098 35.3345 36.4867 34.5908 36.3008C33.5125 36.0033 32.4713 35.7059 31.393 35.4456C31.2443 35.4084 31.0212 35.4084 30.8724 35.5199C24.1793 39.2012 15.9244 35.8918 13.6562 28.6037C13.5818 28.3806 13.5074 28.3062 13.2843 28.269C11.1277 28.1203 9.08254 27.5254 7.18615 26.447C7.07459 26.3727 6.85149 26.4098 6.70275 26.447C4.58326 27.0048 2.50095 27.5997 0.381457 28.1947C0.307089 28.1947 0.232721 28.2319 0.121168 28.269C0.418641 27.3023 0.641746 26.4842 0.86485 25.6662C1.23669 24.3275 1.60853 22.9517 1.98037 21.6131C2.01756 21.4644 1.98037 21.2412 1.90601 21.0925C0.939219 19.3449 0.344273 17.4485 0.158353 15.4777C0.158353 15.3662 0.121168 15.2546 0.0839844 15.1802C0.0839844 14.5481 0.0839844 13.8788 0.0839844 13.2467C0.195537 12.503 0.269905 11.7593 0.455825 11.0528C1.98037 5.40082 5.51286 1.86833 11.1277 0.455337C11.8342 0.269417 12.5407 0.195048 13.2472 0.0834961C13.8793 0.0834961 14.5114 0.0834961 15.1807 0.0834961ZM3.28182 25.0712C3.39337 25.034 3.46774 25.034 3.54211 24.9968C4.69481 24.6994 5.84752 24.3647 6.96304 24.0301C7.26051 23.9557 7.48362 23.9929 7.78109 24.1416C10.4955 25.8521 13.4703 26.447 16.5937 25.8149C22.9522 24.5134 27.0796 18.4153 25.9269 11.9824C24.6627 4.9918 17.4118 0.641258 10.6443 2.79794C3.35618 5.10335 0.0839847 13.507 3.87676 20.0885C4.28579 20.795 4.36016 21.3528 4.09987 22.0965C3.80239 23.0261 3.57929 24.0301 3.28182 25.0712ZM33.8471 33.8095C33.624 32.9542 33.4009 32.099 33.1406 31.3181C33.0291 30.9463 33.0663 30.6488 33.2894 30.277C36.45 25.2943 34.5536 18.7499 29.2363 16.2214C28.9017 16.0727 28.5298 15.9239 28.2323 15.8124C26.9309 22.803 22.8035 26.8932 15.8872 28.2319V28.269C15.9244 28.3434 15.9244 28.4178 15.9616 28.4921C16.5194 29.9795 17.3746 31.2438 18.5645 32.2849C21.911 35.2597 26.6334 35.6315 30.389 33.2145C30.7237 33.0286 30.984 32.9914 31.3186 33.103C32.1367 33.3633 32.9547 33.5492 33.8471 33.8095Z" fill="white"/>
<path d="M15.2921 17.4114C14.5484 17.4114 13.8791 17.4114 13.1354 17.4114C13.1354 16.5562 13.1354 15.7381 13.1354 14.8829C13.1354 14.7713 13.247 14.6598 13.3585 14.5854C14.1394 13.8417 14.9574 13.1352 15.7011 12.4288C16.3704 11.7966 16.5192 10.8298 16.1845 10.0118C15.8127 9.19373 14.9946 8.71034 14.1022 8.74752C13.0982 8.78471 12.2058 9.56558 12.0943 10.5695C12.0943 10.6811 12.0571 10.7555 12.0571 10.9042C11.6852 10.9042 11.3506 10.9042 10.9787 10.9042C10.6441 10.9042 10.2722 10.9042 9.90039 10.9042C9.93757 9.63994 10.3466 8.63597 11.239 7.78074C12.9867 6.10745 15.6639 6.18182 17.3372 7.89229C19.0105 9.63994 18.9361 12.3544 17.1885 14.0277C16.6307 14.5482 16.073 15.0316 15.5152 15.5522C15.4036 15.6638 15.2921 15.8869 15.2921 16.0356C15.2549 16.519 15.2921 16.9652 15.2921 17.4114Z" fill="white"/>
<path d="M15.2562 21.7621C14.5497 21.7621 13.8432 21.7621 13.1367 21.7621C13.1367 21.0556 13.1367 20.3491 13.1367 19.6426C13.8432 19.6426 14.5497 19.6426 15.2562 19.6426C15.2562 20.3491 15.2562 21.0556 15.2562 21.7621Z" fill="white"/>
</svg>
