<svg width="41" height="40" viewBox="0 0 41 40" fill="none" xmlns="http://www.w3.org/2000/svg">
<path d="M0.0128431 35.2379C0.179803 34.9296 0.436666 34.8012 0.796272 34.8269C1.02745 34.8397 1.25862 34.8269 1.55402 34.8269C1.55402 34.6342 1.55402 34.4801 1.55402 34.326C1.55402 33.3371 1.54117 32.361 1.55402 31.3721C1.55402 30.884 1.90078 30.6272 2.3246 30.7556C2.65852 30.8584 2.72274 31.1281 2.72274 31.4363C2.72274 32.4124 2.72274 33.3756 2.72274 34.3517C2.72274 34.493 2.72274 34.6342 2.72274 34.8012C3.13372 34.8012 3.49332 34.8012 3.9043 34.8012C3.9043 34.6086 3.9043 34.4416 3.9043 34.2875C3.9043 28.8677 3.9043 23.4479 3.9043 18.0281C3.9043 17.1805 4.03273 17.052 4.88038 17.052C5.99773 17.052 7.11508 17.052 8.23243 17.052C8.3737 17.052 8.51498 17.052 8.68194 17.052C8.68194 16.5768 8.68194 16.1402 8.68194 15.6521C8.54066 15.6521 8.41223 15.6521 8.2838 15.6521C7.15361 15.6521 6.02342 15.6521 4.89322 15.6521C3.55754 15.6521 2.72274 16.4741 2.72274 17.8098C2.70989 21.1361 2.72274 24.4497 2.72274 27.776C2.72274 27.943 2.72274 28.1228 2.69705 28.2897C2.64568 28.598 2.42735 28.7264 2.13196 28.7264C1.83656 28.7264 1.61823 28.598 1.56686 28.2897C1.54117 28.1485 1.54117 28.0072 1.54117 27.8531C1.54117 24.5524 1.54117 21.2389 1.54117 17.9382C1.54117 15.7934 2.86401 14.4834 5.00881 14.4834C6.08763 14.4834 7.16645 14.4834 8.23243 14.4834C8.3737 14.4834 8.51498 14.4834 8.70762 14.4834C8.70762 13.8412 8.70762 13.2376 8.70762 12.6468C8.72047 10.836 9.49105 9.47459 11.135 8.70401C11.7129 8.4343 12.3936 8.29303 13.0358 8.29303C17.7235 8.2545 22.4112 8.2545 27.0861 8.29303C27.6769 8.29303 27.9594 8.11322 28.2677 7.67656C29.8345 5.46755 31.4142 3.28422 33.0068 1.10089C33.8673 -0.0806747 35.4084 -0.337537 36.5643 0.458736C37.7202 1.25501 38.0284 2.79618 37.2707 3.97775C36.9496 4.47863 36.5772 4.96666 36.2176 5.4547C36.0763 5.64735 36.0377 5.77578 36.2047 5.99411C36.9111 6.95735 36.9111 8.1646 36.2176 9.15352C35.4084 10.2966 34.5736 11.4396 33.7517 12.5698C33.482 12.9422 33.1866 12.9936 32.8783 12.7753C32.5701 12.5441 32.5316 12.2487 32.7884 11.8891C33.5847 10.7717 34.3938 9.6544 35.2029 8.53705C35.6011 7.98479 35.6396 7.40685 35.3057 6.7647C35.2158 6.88029 35.1259 6.95735 35.0617 7.04725C33.9058 8.65264 32.7371 10.258 31.594 11.8634C31.4656 12.0432 31.4014 12.2872 31.3885 12.5056C31.3629 13.1477 31.3757 13.7899 31.3757 14.4834C31.5427 14.4834 31.6839 14.4834 31.8252 14.4834C33.0068 14.4834 34.1883 14.4834 35.3699 14.4834C37.4248 14.4834 38.7733 15.8191 38.7733 17.8868C38.7862 22.4204 38.7733 26.9412 38.7733 31.4748C38.7733 32.5023 38.7733 33.5169 38.7733 34.5443C38.7733 34.6342 38.7862 34.7241 38.8119 34.8654C39.1201 34.8654 39.4155 34.8654 39.7109 34.8654C40.0448 34.8783 40.276 35.0581 40.2888 35.392C40.3145 36.047 40.3402 36.7148 40.2503 37.357C40.0705 38.6413 39.1586 39.5146 37.8872 39.7715C37.8229 39.7843 37.7716 39.8228 37.7074 39.8357C36.9496 39.8357 36.179 39.8357 35.4213 39.8357C35.113 39.6559 34.9332 39.399 35.0488 39.0266C35.1644 38.6413 35.4855 38.6413 35.8194 38.6413C36.3331 38.6413 36.8469 38.6541 37.3606 38.6413C38.2596 38.6156 38.9788 38.0377 39.1073 37.1772C39.1586 36.8176 39.1201 36.4451 39.1201 36.0598C33.8544 36.0598 28.5888 36.0598 23.3359 36.0598C23.0919 37.4212 22.4369 37.9606 21.0627 37.9606C20.3306 37.9606 19.5986 37.9734 18.8537 37.9478C17.9803 37.9221 17.274 37.3441 17.0685 36.4965C17.03 36.3552 17.0043 36.2011 16.9657 36.0598C11.7001 36.0598 6.44724 36.0598 1.19441 36.0598C1.19441 36.4451 1.14304 36.8176 1.20725 37.1772C1.34853 38.1019 2.09343 38.6413 3.14656 38.6413C12.7275 38.6413 22.3085 38.6413 31.8894 38.6413C32.0435 38.6413 32.2105 38.6413 32.3646 38.6541C32.6472 38.6798 32.8013 38.8596 32.8398 39.1422C32.8912 39.4889 32.6857 39.6687 32.4417 39.8357C22.4883 39.8357 12.5477 39.8357 2.59431 39.8357C2.0549 39.5788 1.4898 39.399 1.00176 39.0651C0.410979 38.667 0.16696 37.9863 0 37.3184C0.0128431 36.5992 0.0128431 35.9185 0.0128431 35.2379ZM5.1244 18.2464C5.1244 23.769 5.1244 29.2787 5.1244 34.8012C15.1805 34.8012 25.1982 34.8012 35.2286 34.8012C35.2286 29.2658 35.2286 23.769 35.2286 18.2464C33.9443 18.2464 32.6985 18.2464 31.4014 18.2464C31.4014 18.4262 31.4014 18.5804 31.4014 18.7345C31.3885 19.5693 31.4142 20.4169 31.3629 21.2517C31.2344 23.3195 29.3979 25.0533 27.3173 25.079C26.8549 25.0918 26.6366 24.912 26.6109 24.5267C26.5981 24.1414 26.8036 23.9359 27.2531 23.8974C29.0511 23.7561 30.1941 22.5617 30.207 20.7508C30.2198 18.5675 30.207 16.397 30.207 14.2137C30.207 14.111 30.1813 14.0082 30.1685 13.8156C30.04 13.9954 29.9501 14.0981 29.8731 14.2009C29.0254 15.3824 28.1778 16.564 27.3044 17.7327C27.1632 17.9254 26.9448 18.0923 26.7265 18.1694C25.7504 18.5418 24.7615 18.8886 23.7726 19.2354C23.1561 19.4537 22.8222 19.2097 22.835 18.5675C22.8479 17.5144 22.8736 16.4741 22.9121 15.421C22.9249 15.1769 23.0148 14.9072 23.1561 14.7017C24.3248 13.0578 25.5192 11.4267 26.7008 9.78283C26.7779 9.68008 26.8421 9.5645 26.9448 9.39754C26.7393 9.39754 26.5981 9.39754 26.4696 9.39754C22.0388 9.39754 17.5951 9.39754 13.1642 9.39754C11.1735 9.42322 9.90203 10.6818 9.90203 12.6854C9.90203 14.2009 9.90203 15.7035 9.90203 17.219C9.90203 18.5033 9.8635 19.7876 9.92772 21.0719C9.99193 22.6259 11.2249 23.8075 12.7789 23.8974C13.344 23.9359 13.5238 24.1157 13.5366 24.6808C13.5366 25.6697 13.5366 26.6458 13.5366 27.6347C13.5366 27.7632 13.5495 27.8788 13.5623 28.0714C13.7036 27.9301 13.8063 27.8531 13.8962 27.7632C14.898 26.7614 15.9383 25.7982 16.8887 24.745C17.4666 24.1029 18.0831 23.8589 18.9436 23.8974C20.6132 23.9616 22.2828 23.9231 23.9395 23.9102C24.2863 23.9102 24.5817 23.9873 24.6588 24.3598C24.7615 24.7964 24.4918 25.079 23.9781 25.079C22.18 25.079 20.382 25.079 18.584 25.079C18.3271 25.079 18.1473 25.1432 17.9675 25.3358C16.4905 26.8256 15.0007 28.3026 13.5238 29.7924C13.2926 30.0236 13.0486 30.2162 12.7018 30.0749C12.3679 29.9337 12.3551 29.6254 12.3551 29.3043C12.3551 28.0329 12.3422 26.7614 12.3679 25.4899C12.3679 25.1817 12.3165 25.0533 11.9698 24.9634C10.313 24.5267 9.19566 23.4736 8.86174 21.7783C8.69478 20.9435 8.759 20.0573 8.73331 19.1968C8.72047 18.8886 8.73331 18.5804 8.73331 18.2593C7.48753 18.2464 6.30596 18.2464 5.1244 18.2464ZM24.3248 15.1127C25.0826 15.665 25.8275 16.1915 26.5852 16.7438C29.1924 13.1349 31.7995 9.53881 34.4067 5.9299C33.6232 5.3648 32.904 4.83823 32.1463 4.29882C29.5263 7.92058 26.932 11.5038 24.3248 15.1127ZM37.5918 34.8012C37.6046 34.6856 37.6175 34.5829 37.6175 34.4801C37.6175 28.9062 37.6175 23.3323 37.6175 17.7584C37.6175 16.4741 36.7698 15.6521 35.4855 15.6393C34.2526 15.6393 33.0196 15.6393 31.7867 15.6393C31.6711 15.6393 31.5555 15.6521 31.4271 15.665C31.4271 16.1273 31.4271 16.5768 31.4271 17.052C31.594 17.052 31.7353 17.052 31.8766 17.052C33.071 17.052 34.2654 17.052 35.4598 17.052C36.3203 17.052 36.4487 17.1805 36.4487 18.0281C36.4487 23.4479 36.4487 28.8677 36.4487 34.2875C36.4487 34.4544 36.4487 34.6214 36.4487 34.814C36.8469 34.8012 37.2065 34.8012 37.5918 34.8012ZM35.1002 4.96667C35.4598 4.47863 35.7937 4.00343 36.1405 3.54108C36.2176 3.43834 36.2946 3.32275 36.3588 3.20716C36.7056 2.57785 36.5129 1.80726 35.935 1.39628C35.3699 0.998146 34.5608 1.0752 34.1241 1.60177C33.6746 2.14118 33.2893 2.73196 32.8527 3.32275C33.5976 3.88784 34.3425 4.42725 35.1002 4.96667ZM22.1287 36.0213C20.8187 36.0213 19.5215 36.0213 18.2244 36.0213C18.2757 36.4965 18.5069 36.7277 18.9564 36.7405C19.7655 36.7533 20.5747 36.7533 21.3838 36.7405C21.8204 36.7277 22.0131 36.535 22.1287 36.0213ZM24.0551 17.8997C24.5303 17.7327 24.967 17.5658 25.4679 17.3859C24.9798 17.0392 24.556 16.7309 24.0551 16.3713C24.0551 16.9364 24.0551 17.3988 24.0551 17.8997Z" fill="white"/>
<path d="M17.1078 15.164C16.0804 15.164 15.0658 15.164 14.0383 15.164C13.5631 15.164 13.3063 14.9713 13.2934 14.5989C13.2806 14.2136 13.5503 13.9824 14.0383 13.9824C16.106 13.9824 18.1738 13.9824 20.2544 13.9824C20.7424 13.9824 21.0121 14.2136 20.9993 14.5989C20.9864 14.9713 20.7424 15.164 20.2544 15.164C19.2012 15.1768 18.1481 15.164 17.1078 15.164Z" fill="white"/>
<path d="M17.1463 19.3383C16.0932 19.3383 15.0529 19.3383 13.9998 19.3383C13.5503 19.3383 13.3063 19.1328 13.2934 18.7732C13.2806 18.4008 13.5503 18.1567 13.9998 18.1567C16.0932 18.1567 18.1995 18.1567 20.2929 18.1567C20.7424 18.1567 21.0121 18.4008 20.9993 18.7732C20.9864 19.1328 20.7424 19.3383 20.2929 19.3383C19.2398 19.3383 18.1866 19.3383 17.1463 19.3383Z" fill="white"/>
</svg>
