<svg width="38" height="37" viewBox="0 0 38 37" fill="none" xmlns="http://www.w3.org/2000/svg">
<path d="M33.1865 0C33.368 0.0544446 33.5313 0.108889 33.7128 0.181482C34.8743 0.617039 35.5458 1.65149 35.5458 2.99445C35.5458 9.00151 35.5458 15.0086 35.5458 21.0156C35.5458 21.1971 35.5458 21.3604 35.5458 21.5964C35.9087 21.5964 36.2354 21.5964 36.5802 21.5964C36.8887 21.5964 37.1609 21.7415 37.1609 22.0682C37.1609 22.9575 37.2154 23.8467 37.0884 24.7178C36.8524 26.1334 35.6184 27.1316 34.1846 27.1679C33.0413 27.186 31.8798 27.1679 30.7365 27.186C30.6639 27.186 30.5913 27.186 30.4461 27.2042C30.5731 27.3675 30.6639 27.4945 30.7728 27.6216C32.2791 29.4908 33.8035 31.3782 35.3098 33.2475C35.8361 33.9008 36.0176 34.6449 35.7817 35.4616C35.4913 36.4597 34.7472 36.8771 33.7672 36.9497C32.8054 37.0223 32.0613 36.6231 31.5713 35.8064C30.3554 33.7738 29.1576 31.7231 27.9598 29.6723C27.7602 29.3456 27.5605 29.0008 27.3609 28.656C27.0705 28.7286 26.7802 28.8193 26.4898 28.8738C24.2213 29.3275 22.1705 28.8556 20.3739 27.4219C20.1561 27.2405 19.9383 27.1679 19.6661 27.186C14.2035 27.186 8.72271 27.186 3.26011 27.186C1.59047 27.186 0.2838 26.1516 0.0660219 24.5727C-0.0428673 23.756 0.0115773 22.9212 0.0297255 22.1045C0.0297255 21.7778 0.2838 21.6327 0.59232 21.6327C0.918987 21.6327 1.2638 21.6327 1.62677 21.6327C1.62677 21.4149 1.62677 21.2515 1.62677 21.0701C1.62677 15.063 1.62677 9.05595 1.62677 3.0489C1.62677 1.88741 2.02603 0.980003 3.06048 0.39926C3.2964 0.181482 3.64122 0.108889 3.94974 0C13.6953 0 23.4409 0 33.1865 0ZM34.3843 21.5601C34.3843 21.3967 34.3843 21.2878 34.3843 21.1608C34.3843 15.0993 34.3843 9.01966 34.3843 2.95816C34.3843 1.85112 33.7309 1.17963 32.6239 1.17963C23.2594 1.17963 13.895 1.17963 4.53048 1.17963C3.36899 1.17963 2.7701 1.79667 2.7701 2.95816C2.7701 9.01966 2.7701 15.063 2.7701 21.1245C2.7701 21.2515 2.7701 21.3967 2.7701 21.5419C7.74271 21.5419 12.679 21.5419 17.6153 21.5419C17.7605 17.2589 21.4083 14.5004 24.7839 14.4823C26.4535 14.4823 27.9961 14.9541 29.3209 15.9886C31.1357 17.386 32.0613 19.2734 32.1883 21.5601C32.9143 21.5601 33.622 21.5601 34.3843 21.5601ZM24.9291 15.6437C21.5535 15.6437 18.8131 18.3478 18.795 21.7052C18.7768 25.0808 21.5172 27.8212 24.8928 27.8393C28.2502 27.8575 30.9906 25.099 31.0087 21.7415C31.0087 18.3841 28.3046 15.6619 24.9291 15.6437ZM19.0127 25.9882C18.3594 25.0445 17.942 24.1008 17.7787 23.0482C17.7424 22.8123 17.6516 22.7397 17.4157 22.7397C16.6172 22.7578 15.8187 22.7397 15.0201 22.7397C10.8279 22.7397 6.65382 22.7397 2.46158 22.7397C2.02603 22.7397 1.59047 22.7397 1.11862 22.7397C1.11862 23.0664 1.11862 23.3749 1.11862 23.6834C1.11862 25.1534 1.93529 25.9701 3.42344 25.9701C8.46864 25.9701 13.5138 25.9701 18.559 25.9701C18.6679 25.9882 18.795 25.9882 19.0127 25.9882ZM28.4317 28.1116C28.468 28.2023 28.5043 28.2568 28.5406 28.3293C29.8654 30.5979 31.2083 32.8664 32.5332 35.1349C32.9143 35.7883 33.622 35.9697 34.1846 35.5886C34.6565 35.262 34.8924 34.5723 34.3298 33.9008C32.9506 32.2494 31.6076 30.5434 30.2646 28.8738C29.9198 28.4564 29.575 28.0208 29.2302 27.6034C28.958 27.7668 28.7039 27.9301 28.4317 28.1116ZM36.0176 22.7578C35.9087 22.7397 35.8361 22.7215 35.7635 22.7215C34.6202 22.7397 33.4769 22.7578 32.3335 22.7941C32.2428 22.7941 32.0976 22.9393 32.0794 23.0482C31.8798 24.0101 31.535 24.9175 30.9906 25.7341C30.9543 25.8067 30.918 25.8793 30.8635 25.9882C32.0069 25.9882 33.0957 26.0245 34.1846 25.9701C35.1828 25.9156 35.9632 25.0808 36.0176 24.0645C36.0358 23.6471 36.0176 23.2297 36.0176 22.7578Z" fill="white"/>
<path d="M9.84814 8.80193C9.84814 9.87267 9.84814 10.9434 9.84814 12.0323C9.84814 12.6312 9.66666 12.8127 9.06777 12.8127C8.48702 12.8127 7.88813 12.8127 7.30739 12.8127C6.79924 12.8127 6.59961 12.6131 6.59961 12.1231C6.59961 9.90897 6.59961 7.69489 6.59961 5.49896C6.59961 5.00896 6.78109 4.80933 7.27109 4.80933C7.90628 4.80933 8.54147 4.80933 9.17665 4.80933C9.66666 4.80933 9.84814 4.99081 9.84814 5.49896C9.86629 6.5697 9.84814 7.69489 9.84814 8.80193ZM8.65036 11.6149C8.65036 9.70934 8.65036 7.84008 8.65036 5.95266C8.34184 5.95266 8.06961 5.95266 7.77924 5.95266C7.77924 7.84008 7.77924 9.70934 7.77924 11.6149C8.08776 11.6149 8.35999 11.6149 8.65036 11.6149Z" fill="white"/>
<path d="M14.3847 10.0179C14.3847 10.7075 14.3847 11.3972 14.3847 12.0687C14.3847 12.5405 14.185 12.7401 13.7313 12.7401C13.078 12.7401 12.4428 12.7401 11.7895 12.7401C11.3358 12.7401 11.1543 12.5405 11.1543 12.105C11.1543 10.6894 11.1543 9.29198 11.1543 7.87642C11.1543 7.42271 11.3358 7.22308 11.7895 7.22308C12.4428 7.20494 13.078 7.20494 13.7313 7.22308C14.2032 7.22308 14.3847 7.42271 14.3847 7.89457C14.3847 8.5842 14.3847 9.29198 14.3847 10.0179ZM12.2976 8.40272C12.2976 9.45531 12.2976 10.4898 12.2976 11.5605C12.5517 11.5605 12.7876 11.5787 13.0054 11.5424C13.078 11.5424 13.205 11.4153 13.205 11.3427C13.2232 10.3627 13.205 9.38272 13.205 8.38457C12.8965 8.40272 12.6243 8.40272 12.2976 8.40272Z" fill="white"/>
<path d="M26.6519 8.83822C27.9767 8.83822 29.3015 8.83822 30.6263 8.83822C30.9711 8.83822 31.2071 8.94711 31.2978 9.29192C31.3704 9.61859 31.1708 9.90896 30.8259 9.98155C30.7352 9.9997 30.6263 9.9997 30.5356 9.9997C27.9585 9.9997 25.3633 9.9997 22.7863 9.9997C22.4415 9.9997 22.1148 9.96341 22.0241 9.546C21.9333 9.12859 22.1874 8.83822 22.6593 8.82007C23.9841 8.83822 25.3089 8.83822 26.6519 8.83822Z" fill="white"/>
<path d="M26.6153 12.2138C25.2905 12.2138 23.9657 12.2138 22.6409 12.2138C22.1871 12.2138 21.9149 11.9415 22.0057 11.5423C22.042 11.3608 22.2416 11.1975 22.4231 11.0886C22.532 11.016 22.7134 11.0523 22.8586 11.0523C25.3812 11.0523 27.9038 11.0523 30.4264 11.0523C30.5353 11.0523 30.6442 11.0523 30.7713 11.0704C31.1161 11.1067 31.2794 11.3064 31.2975 11.633C31.3157 11.9597 31.0979 12.1956 30.735 12.2138C30.3538 12.2319 29.9546 12.2138 29.5735 12.2138C28.5935 12.2138 27.6135 12.2138 26.6153 12.2138Z" fill="white"/>
<path d="M18.9223 11.0343C18.9223 11.3973 18.9404 11.7603 18.9223 12.1232C18.9041 12.5406 18.7045 12.7403 18.2871 12.7403C17.6338 12.7403 16.9623 12.7403 16.309 12.7403C15.8915 12.7403 15.6738 12.5406 15.6738 12.1232C15.6556 11.3973 15.6556 10.6714 15.6738 9.94543C15.6738 9.52802 15.8734 9.31024 16.2908 9.31024C16.9623 9.29209 17.6338 9.29209 18.3053 9.31024C18.7045 9.31024 18.9041 9.50987 18.9223 9.90913C18.9404 10.2902 18.9223 10.6532 18.9223 11.0343ZM17.7427 10.508C17.4341 10.508 17.1438 10.508 16.8715 10.508C16.8715 10.871 16.8715 11.2158 16.8715 11.5606C17.1801 11.5606 17.4523 11.5606 17.7427 11.5606C17.7427 11.1977 17.7427 10.8528 17.7427 10.508Z" fill="white"/>
<path d="M10.5195 16.8052C9.37613 16.8052 8.25094 16.8052 7.1076 16.8052C6.63575 16.8052 6.41797 16.6056 6.41797 16.2245C6.41797 15.8433 6.63575 15.6619 7.1076 15.6619C9.41242 15.6619 11.6991 15.6619 14.0039 15.6619C14.4576 15.6619 14.6754 15.8615 14.6754 16.2245C14.6754 16.5874 14.4395 16.8052 14.0039 16.8052C12.8424 16.8052 11.6809 16.8052 10.5195 16.8052Z" fill="white"/>
<path d="M10.5376 17.9668C11.7172 17.9668 12.8787 17.9668 14.0584 17.9668C14.5302 17.9668 14.8206 18.3842 14.6028 18.7835C14.5121 18.9468 14.258 19.1101 14.0765 19.1101C11.7172 19.1283 9.35798 19.1283 6.99871 19.1283C6.6176 19.1283 6.41797 18.9105 6.41797 18.5475C6.41797 18.2027 6.63575 17.9849 7.01686 17.9849C8.19649 17.9668 9.37613 17.9668 10.5376 17.9668Z" fill="white"/>
<path d="M26.4363 7.67654C25.7103 7.67654 24.9844 7.67654 24.2585 7.67654C23.7866 7.67654 23.5688 7.47691 23.587 7.07765C23.6051 6.69654 23.8048 6.5332 24.2766 6.5332C25.7285 6.5332 27.1803 6.5332 28.6322 6.5332C29.104 6.5332 29.34 6.73283 29.34 7.11395C29.34 7.49506 29.104 7.67654 28.6322 7.67654C27.8881 7.67654 27.1622 7.67654 26.4363 7.67654Z" fill="white"/>
<path d="M18.5959 1.79671C18.9407 1.79671 19.2674 1.77856 19.6122 1.79671C19.9752 1.81486 20.1929 2.01449 20.1929 2.34116C20.2111 2.66783 19.9933 2.94005 19.6303 2.94005C18.9407 2.9582 18.2329 2.9582 17.5252 2.94005C17.144 2.9219 16.9263 2.68597 16.9444 2.34116C16.9444 1.99634 17.1622 1.77856 17.5614 1.77856C17.9063 1.79671 18.2511 1.79671 18.5959 1.79671Z" fill="white"/>
<path d="M25.4546 16.2427C26.8157 16.2608 28.3039 17.0412 29.4109 18.5293C29.6105 18.7834 29.7013 19.0738 29.4653 19.346C29.1931 19.6908 28.7757 19.6545 28.4853 19.2734C27.9953 18.6019 27.3965 18.0756 26.6161 17.7671C25.3276 17.2408 24.0753 17.3316 22.8594 17.9849C22.7505 18.0393 22.6416 18.1119 22.5327 18.1664C22.2061 18.3116 21.9157 18.239 21.7524 17.9667C21.5709 17.6764 21.6435 17.3678 21.952 17.1501C22.8594 16.5512 23.8576 16.2245 25.4546 16.2427Z" fill="white"/>
</svg>
