<svg width="38" height="35" viewBox="0 0 38 35" fill="none" xmlns="http://www.w3.org/2000/svg">
<path d="M28.4409 34.8326C27.8965 34.8326 27.3356 34.8326 26.7912 34.8326C26.7087 34.8161 26.6263 34.7831 26.5438 34.7666C24.7291 34.5687 23.1124 33.8923 21.6936 32.754C21.3802 32.5065 21.0832 32.4241 20.7038 32.4241C18.4107 32.4406 16.1341 32.4406 13.841 32.4241C12.5873 32.4241 11.7129 31.2528 12.0923 30.098C12.3728 29.2566 13.0162 28.8607 13.907 28.8112C14.039 28.0193 14.171 27.244 14.303 26.4356C14.0885 26.4356 13.94 26.4356 13.7915 26.4356C10.4426 26.4356 7.09374 26.4356 3.74483 26.4356C1.55072 26.4191 0 24.8684 0 22.6908C0 16.3724 0 10.054 0 3.73567C0 3.40573 0.0329941 3.05929 0.115479 2.72935C0.527906 1.07964 1.94665 0.00733203 3.74483 0.00733203C12.2738 0.00733203 20.8028 0.00733203 29.3153 0.00733203C30.767 0.00733203 32.2188 -0.00916503 33.6705 0.00733203C35.2212 0.0238291 36.5575 1.03015 37.0359 2.48189C37.1019 2.67986 37.1514 2.87782 37.2174 3.07579C37.2174 10.7304 37.2174 18.3851 37.2174 26.0397C37.2009 26.1387 37.1679 26.2377 37.1514 26.3366C36.706 30.1805 33.951 33.4139 30.2226 34.4532C29.6452 34.6182 29.0348 34.7006 28.4409 34.8326ZM27.5996 16.8178C22.9804 16.8178 19.2191 20.5957 19.2191 25.2313C19.2191 29.8505 22.9969 33.6283 27.6161 33.6283C32.2518 33.6283 36.0296 29.834 36.0131 25.1983C35.9966 20.5627 32.2188 16.8178 27.5996 16.8178ZM3.61286 20.3977C8.01757 20.3977 12.4058 20.3977 16.7775 20.3977C16.7775 14.7887 16.7775 9.21269 16.7775 3.63669C12.3728 3.63669 8.00107 3.63669 3.61286 3.63669C3.61286 9.22919 3.61286 14.7887 3.61286 20.3977ZM36.0131 20.4802C36.0131 20.3317 36.0131 20.2327 36.0131 20.1337C36.0131 14.6732 36.0131 9.21269 36.0131 3.73567C36.0131 2.21794 34.9903 1.21162 33.456 1.21162C23.5578 1.21162 13.6596 1.21162 3.74483 1.21162C2.19411 1.21162 1.18779 2.21794 1.18779 3.76866C1.18779 9.1797 1.18779 14.5907 1.18779 20.0018C1.18779 20.1337 1.18779 20.2657 1.18779 20.3812C1.61671 20.3812 1.99614 20.3812 2.39207 20.3812C2.39207 20.2162 2.39207 20.0678 2.39207 19.9193C2.39207 14.3763 2.39207 8.84976 2.39207 3.30674C2.39207 2.56438 2.55704 2.39941 3.28292 2.39941C13.4781 2.39941 23.6898 2.39941 33.885 2.39941C34.6438 2.39941 34.7923 2.54788 34.7923 3.32324C34.7923 8.38784 34.7923 13.4524 34.7923 18.517C34.7923 18.6655 34.7923 18.8635 34.8748 18.9789C35.2377 19.4739 35.6172 19.9523 36.0131 20.4802ZM17.8828 25.2148C18.1303 23.9611 18.3612 22.7898 18.5922 21.635C12.8512 21.635 7.04425 21.635 1.20429 21.635C1.20429 21.9649 1.20429 22.2784 1.20429 22.5753C1.20429 24.225 2.19411 25.2148 3.84382 25.2148C8.4135 25.2148 12.9997 25.2148 17.5694 25.2148C17.7013 25.2148 17.8333 25.2148 17.8828 25.2148ZM23.0629 7.71146C23.7888 8.28886 24.0527 9.04772 24.0197 9.93856C24.0032 10.417 24.0197 10.9119 24.0197 11.3903C24.4486 11.3903 24.8281 11.3903 25.2075 11.3903C25.2075 8.80026 25.2075 6.22672 25.2075 3.63669C22.8154 3.63669 20.4234 3.63669 18.0478 3.63669C18.0478 6.24322 18.0478 8.81676 18.0478 11.3903C18.4602 11.3903 18.8396 11.3903 19.2191 11.3903C19.3016 10.0705 18.8891 8.65179 20.1759 7.71146C19.6315 6.68864 19.7635 5.7978 20.5058 5.20391C21.1657 4.676 22.1061 4.676 22.7494 5.20391C23.4753 5.8143 23.5908 6.68864 23.0629 7.71146ZM33.588 11.4068C33.588 8.80026 33.588 6.21023 33.588 3.63669C31.1959 3.63669 28.8204 3.63669 26.4448 3.63669C26.4448 6.24322 26.4448 8.81676 26.4448 11.3903C26.8407 11.3903 27.2201 11.3903 27.6326 11.3903C27.6326 10.6974 27.5996 10.0375 27.6491 9.37766C27.6986 8.68478 28.0615 8.14038 28.5729 7.71146C28.045 6.70514 28.1605 5.84729 28.8699 5.2534C29.4967 4.72549 30.4041 4.6925 31.064 5.15441C31.8723 5.73181 32.0043 6.52367 31.4929 7.72796C32.2188 8.30535 32.4827 9.08072 32.4332 9.97156C32.4167 10.4335 32.4332 10.9119 32.4332 11.4068C32.8292 11.4068 33.1921 11.4068 33.588 11.4068ZM20.1594 16.7189C19.648 15.696 19.7305 14.8877 20.4234 14.2773C21.0173 13.7494 21.9081 13.6669 22.5845 14.0958C23.4093 14.6237 23.5413 15.3331 23.1289 16.6859C23.7723 16.4549 24.4156 16.2239 25.059 15.9765C25.1415 15.9435 25.2075 15.762 25.2075 15.663C25.224 14.9207 25.2075 14.1948 25.2075 13.4524C25.2075 13.1885 25.2075 12.908 25.2075 12.6441C22.7824 12.6441 20.4069 12.6441 18.0313 12.6441C18.0313 15.2341 18.0313 17.8242 18.0313 20.3977C18.4272 20.3977 18.8067 20.3977 19.2026 20.3977C19.2026 19.9688 19.2191 19.5728 19.2026 19.1769C19.1531 18.2036 19.3511 17.3292 20.1594 16.7189ZM33.588 17.6592C33.588 15.9765 33.588 14.3103 33.588 12.6276C31.1959 12.6276 28.8039 12.6276 26.4283 12.6276C26.4283 13.6504 26.4283 14.6567 26.4283 15.63C27.0222 15.63 27.5996 15.63 28.1605 15.63C28.4739 14.2608 29.3318 13.6009 30.4041 13.8484C30.899 13.9638 31.2619 14.2278 31.5259 14.6567C31.9053 15.2506 31.8723 15.861 31.6084 16.4384C32.2847 16.8673 32.9281 17.2633 33.588 17.6592ZM20.0934 31.2198C19.8295 30.8238 19.615 30.4774 19.3675 30.1475C19.3181 30.0815 19.1861 30.032 19.0871 30.032C17.3384 30.032 15.5897 30.0155 13.841 30.032C13.4616 30.032 13.2141 30.2794 13.1976 30.6259C13.1976 30.9723 13.4451 31.2198 13.8245 31.2198C15.9032 31.2198 17.9653 31.2198 20.0934 31.2198ZM15.5072 26.4356C15.3753 27.2275 15.2433 28.0028 15.1113 28.7947C16.3156 28.7947 17.4869 28.7947 18.6417 28.7947C18.4272 28.0028 18.2293 27.211 18.0313 26.4356C17.2064 26.4356 16.3816 26.4356 15.5072 26.4356ZM22.7989 11.4068C22.7989 10.7469 22.8319 10.1035 22.7989 9.47664C22.7659 8.91574 22.271 8.47032 21.7101 8.42083C21.1327 8.37134 20.5553 8.71778 20.4893 9.29518C20.4069 9.98805 20.4729 10.6974 20.4729 11.4068C21.2317 11.4068 21.9906 11.4068 22.7989 11.4068ZM31.2124 11.4068C31.2124 10.7634 31.2289 10.1695 31.2124 9.55913C31.1959 8.94874 30.7175 8.47032 30.1236 8.42083C29.5297 8.37134 28.9193 8.76727 28.8699 9.36117C28.8039 10.0375 28.8534 10.7139 28.8534 11.4068C29.6287 11.4068 30.4041 11.4068 31.2124 11.4068ZM21.6111 6.01226C21.2812 6.01226 21.0173 6.27621 21.0008 6.60616C21.0008 6.9361 21.2647 7.20005 21.5947 7.21655C21.9246 7.21655 22.1885 6.95259 22.205 6.62265C22.205 6.29271 21.9411 6.02876 21.6111 6.01226ZM30.0247 6.01226C29.6947 5.99576 29.4143 6.25972 29.4143 6.58966C29.3978 6.9196 29.6617 7.20005 29.9917 7.20005C30.3216 7.21655 30.602 6.95259 30.602 6.62265C30.6185 6.30921 30.3546 6.02876 30.0247 6.01226ZM22.205 15.63C22.2215 15.3001 21.9411 15.0197 21.6276 15.0197C21.2977 15.0032 21.0173 15.2836 21.0173 15.5971C21.0008 15.927 21.2812 16.2074 21.5947 16.2074C21.9081 16.2239 22.1885 15.96 22.205 15.63ZM30.602 15.762C30.6185 15.3166 30.3546 15.0362 30.0247 15.0197C29.7112 15.0032 29.3483 15.2836 29.4143 15.5806C29.5132 16.059 30.0082 15.828 30.3051 15.9765C30.3711 16.0095 30.5526 15.8115 30.602 15.762ZM21.8751 17.4942C21.0503 17.2468 20.2914 17.9726 20.4564 18.7975C20.9348 18.3686 21.3967 17.9231 21.8751 17.4942Z" fill="white"/>
<path d="M24.0039 25.2148C24.0039 23.8786 24.0039 22.5423 24.0039 21.2061C24.0039 20.4802 24.4328 20.2327 25.0597 20.5957C27.3528 21.9319 29.6624 23.2682 31.9555 24.621C32.5824 24.9839 32.5659 25.4788 31.9555 25.8417C29.6624 27.178 27.3693 28.5308 25.0597 29.867C24.4493 30.23 24.0039 29.966 24.0039 29.2401C24.0039 27.8874 24.0039 26.5511 24.0039 25.2148ZM25.2247 22.0804C25.2247 24.192 25.2247 26.2542 25.2247 28.3658C27.0229 27.31 28.7881 26.2872 30.6192 25.2148C28.7881 24.159 27.0229 23.1197 25.2247 22.0804Z" fill="white"/>
<path d="M12.275 11.2253C13.7598 11.9017 14.7991 12.9905 15.327 14.5247C15.6569 15.498 15.6239 16.4878 15.5909 17.4942C15.5745 17.8076 15.36 17.9891 15.0465 18.0221C14.9476 18.0386 14.8486 18.0221 14.7496 18.0221C11.7141 18.0221 8.67868 18.0221 5.64322 18.0221C4.98334 18.0221 4.80187 17.8406 4.80187 17.1807C4.80187 16.3064 4.76888 15.432 5.06583 14.5907C5.56074 13.1389 6.50107 12.0666 7.87033 11.3738C7.95281 11.3243 8.0353 11.2913 8.13428 11.2418C6.9135 9.36111 6.97948 7.82688 8.29925 6.73808C9.48704 5.74825 11.1862 5.81424 12.2915 6.87005C13.4958 8.02485 13.5123 9.57557 12.275 11.2253ZM14.4032 16.8013C14.5021 15.0526 13.9412 13.6174 12.4565 12.677C10.9553 11.7367 9.38805 11.7532 7.90332 12.7265C6.45158 13.6668 5.90717 15.0856 6.02265 16.8013C8.81066 16.8013 11.5822 16.8013 14.4032 16.8013ZM10.2129 7.21649C9.23958 7.21649 8.41473 8.00835 8.39823 8.98168C8.38173 9.9715 9.19009 10.8129 10.1799 10.8129C11.1532 10.8129 11.9781 10.021 11.9946 9.04767C12.0276 8.04134 11.2192 7.21649 10.2129 7.21649Z" fill="white"/>
</svg>
