<svg width="40" height="33" viewBox="0 0 40 33" fill="none" xmlns="http://www.w3.org/2000/svg">
<path d="M21.5487 33.0001C20.8035 32.6479 20.6545 32.3633 20.8577 31.5504C21.1829 30.2903 21.481 29.0302 21.8603 27.7973C22.0094 27.3231 22.2668 26.8488 22.592 26.4966C26.3451 22.4318 30.2472 18.5161 34.2849 14.7224C34.8268 14.2075 35.4501 13.9637 36.2495 14.0856C36.2495 13.9095 36.2495 13.7875 36.2495 13.652C36.2495 10.3054 36.2495 6.95877 36.2495 3.62569C36.2495 2.41982 35.5856 1.75592 34.3933 1.75592C24.1637 1.75592 13.9477 1.75592 3.7181 1.75592C2.52578 1.76947 1.87542 2.41982 1.87542 3.63924C1.87542 11.4435 1.87542 19.2478 1.87542 27.0656C1.87542 28.2715 2.52578 28.9354 3.73165 28.9354C8.69062 28.9354 13.6496 28.9354 18.6086 28.9354C18.7711 28.9354 18.9473 28.9354 19.0963 28.9625C19.3944 29.0167 19.5705 29.2064 19.5841 29.5045C19.6112 29.8025 19.4757 30.0329 19.1776 30.1142C19.0421 30.1548 18.8795 30.1684 18.7305 30.1684C13.7309 30.1684 8.73127 30.1684 3.73165 30.1684C1.83478 30.1684 0.628906 28.9625 0.628906 27.0656C0.642455 19.2478 0.642455 11.43 0.642455 3.59859C0.642455 1.74237 1.84833 0.522949 3.7181 0.522949C13.9477 0.522949 24.1637 0.522949 34.3933 0.522949C36.2766 0.522949 37.496 1.74237 37.496 3.62569C37.496 7.12136 37.496 10.617 37.496 14.1127C37.496 14.3837 37.5773 14.5327 37.8076 14.6818C38.7425 15.2915 39.3251 16.1586 39.6367 17.229C39.6638 17.2967 39.6909 17.3645 39.718 17.4322C39.718 17.7168 39.718 17.9877 39.718 18.2723C39.4742 18.6652 39.298 19.1123 38.9864 19.451C36.1004 22.6215 33.1196 25.6836 29.9627 28.5967C29.8814 28.678 29.8001 28.7593 29.6646 28.9083C29.8814 28.9083 30.0169 28.9083 30.1388 28.9083C31.5479 28.9083 32.957 28.9083 34.3662 28.9083C35.5991 28.9083 36.2495 28.2579 36.2495 27.025C36.2495 26.0494 36.2359 25.0739 36.2495 24.0848C36.2495 23.57 36.7101 23.2854 37.1437 23.5022C37.4147 23.6513 37.4824 23.8951 37.4824 24.1797C37.4824 25.1146 37.4824 26.063 37.4824 26.9979C37.4824 28.9354 36.2766 30.1413 34.3391 30.1413C32.5235 30.1413 30.7079 30.1548 28.8788 30.1277C28.4317 30.1277 28.0929 30.2226 27.8084 30.5613C27.0903 31.3878 26.169 31.8349 25.0986 32.0788C23.974 32.3362 22.8765 32.675 21.7519 32.973C21.6978 33.0001 21.63 33.0001 21.5487 33.0001ZM25.0037 30.9407C25.4779 30.6968 26.0199 30.5477 26.3857 30.209C28.1607 28.5967 29.9492 26.9843 31.6428 25.2907C33.8377 23.0957 35.9514 20.833 38.1057 18.611C38.3496 18.3536 38.5122 18.069 38.458 17.6897C38.2818 16.5651 37.225 15.4947 36.1004 15.3186C35.7888 15.2644 35.4907 15.305 35.2468 15.5353C34.8946 15.8741 34.5287 16.2128 34.0545 16.6599C34.19 16.7412 34.3391 16.7954 34.4339 16.8903C35.0301 17.4593 35.6127 18.0419 36.1953 18.6381C36.4527 18.8955 36.4527 19.2207 36.263 19.4646C36.0733 19.6949 35.7346 19.7627 35.4772 19.6001C35.3688 19.5323 35.2739 19.4375 35.1926 19.3562C34.5694 18.7194 33.9326 18.069 33.2958 17.4051C33.1467 17.5406 33.0519 17.6219 32.9706 17.7032C29.8543 20.8737 26.738 24.0442 23.6082 27.2011C23.1611 27.6618 23.012 28.2038 22.8765 28.7728C23.825 29.2199 24.516 29.8974 25.0037 30.9407Z" fill="white"/>
<path d="M13.623 15.3462C13.623 13.4223 13.623 11.5119 13.623 9.58788C13.623 8.68009 14.1244 8.04328 14.9373 7.8536C15.3709 7.75875 15.7774 7.8536 16.1432 8.07038C19.4356 10.0215 22.728 11.959 26.0205 13.91C27.1586 14.5875 27.145 16.0779 26.0069 16.7554C22.728 18.7064 19.4492 20.6439 16.1703 22.5815C14.9644 23.286 13.6501 22.5137 13.6366 21.1046C13.623 19.1942 13.623 17.2702 13.623 15.3462ZM14.8696 15.3462C14.8696 17.2296 14.8696 19.1129 14.8696 20.9827C14.8696 21.633 15.127 21.7821 15.669 21.4569C18.8665 19.5736 22.0506 17.6902 25.2346 15.7934C25.763 15.4817 25.763 15.1837 25.2346 14.872C22.0506 12.9887 18.8801 11.1189 15.6961 9.23561C15.0999 8.88333 14.8696 9.03237 14.8696 9.72337C14.856 11.6067 14.8696 13.4765 14.8696 15.3462Z" fill="white"/>
</svg>
