<svg width="37" height="37" viewBox="0 0 37 37" fill="none" xmlns="http://www.w3.org/2000/svg">
<path d="M9.54197 36.2422C8.93841 36.0123 8.79471 35.5237 8.85219 34.8914C8.70849 34.8914 8.56478 34.8914 8.44982 34.8914C6.81159 34.8914 5.2021 34.8914 3.56387 34.8914C1.43704 34.8914 0 33.4544 0 31.3276C0 23.5675 0 15.8362 0 8.07619C0 7.96122 0 7.84626 0.0287409 7.7313C0.0862226 7.47263 0.258668 7.30018 0.574818 7.30018C0.862226 7.30018 1.00593 7.47263 1.06341 7.7313C1.09215 7.875 1.09215 8.01871 1.09215 8.16241C1.09215 15.865 1.09215 23.5675 1.09215 31.2701C1.09215 32.9083 2.0406 33.8568 3.67883 33.8568C5.40329 33.8568 7.099 33.8568 8.82345 33.8568C9.02464 33.8568 9.16834 33.7993 9.34079 33.6268C9.57071 33.3682 9.85812 33.167 10.1455 33.0233C10.318 32.937 10.4042 32.8508 10.3755 32.6496C10.2605 31.5 11.1802 30.4941 12.5598 30.5228C14.5716 30.5803 16.5835 30.5803 18.6241 30.5228C20.0324 30.4941 20.9234 31.5575 20.8084 32.7071C20.8084 32.7646 20.8084 32.8221 20.8084 32.9083C21.297 33.0808 21.7281 33.3682 21.9868 33.8568C22.0155 33.9142 22.1017 33.943 22.1592 33.943C22.6766 33.9142 23.1939 33.9717 23.7112 33.8568C24.8321 33.6268 25.5794 32.5347 25.4357 31.385C25.3207 31.385 25.177 31.4138 25.062 31.4138C24.6022 31.4425 24.1998 31.3276 23.8549 30.9827C22.0443 29.172 20.2623 27.3901 18.4516 25.5794C18.0205 25.1483 17.9343 24.6309 18.078 24.0849C18.3654 22.9927 19.4288 22.3317 20.521 22.5903C20.636 22.6191 20.8084 22.5616 20.8946 22.5041C22.3891 21.0383 23.8837 19.5438 25.3495 18.0493C25.4357 17.963 25.4357 17.8193 25.4357 17.6756C25.4357 17.417 25.3782 17.187 25.3782 16.9284C25.3782 14.7728 25.3782 12.6172 25.3782 10.4042C25.2632 10.4042 25.1195 10.4042 24.9758 10.4042C22.9065 10.4042 20.8371 10.4042 18.7965 10.4042C17.0433 10.4042 16.0662 9.39827 16.0662 7.64507C16.0662 5.60447 16.0662 3.59261 16.0662 1.55201C16.0662 1.43704 16.0662 1.29334 16.0662 1.09215C15.4913 1.09215 14.9165 1.09215 14.3704 1.09215C10.7778 1.09215 7.18522 1.06341 3.59261 1.06341C2.12683 1.06341 1.14964 2.0406 1.14964 3.50639C1.14964 4.0812 1.14964 4.62728 1.14964 5.2021C1.14964 5.60447 0.948449 5.86314 0.603559 5.86314C0.287409 5.86314 0.0862226 5.60447 0.0862226 5.2021C0.0862226 4.45484 0.0287409 3.70757 0.114964 2.98905C0.229927 1.23586 1.63823 0 3.42016 0C7.30018 0 11.2089 0 15.089 0C15.2614 0 15.4051 0 15.5776 0C16.3248 0 16.9571 0.229927 17.5032 0.776004C20.2336 3.47765 22.964 6.17929 25.6656 8.88093C26.1829 9.39827 26.4416 10.0593 26.4416 10.8066C26.4416 12.1861 26.4416 13.537 26.4416 14.9165C26.4416 15.0315 26.4416 15.1752 26.4416 15.3189C26.5566 15.2901 26.6715 15.2614 26.7578 15.2327C27.3901 15.0602 27.9649 15.1464 28.4535 15.6638C30.1779 17.417 31.9024 19.1414 33.6556 20.8946C34.2591 21.4982 34.3741 22.2742 33.943 23.0214C33.5119 23.7974 32.5922 24.2573 31.8449 24.0561C31.5575 23.9699 31.4138 24.0274 31.2413 24.2286C31.0114 24.4872 30.724 24.7172 30.4653 24.9758C31.1551 25.5219 31.8162 26.0392 32.4485 26.5566C33.1957 27.1601 33.943 27.7637 34.6902 28.3385C35.38 28.8558 35.9548 29.4307 36.2135 30.2641C36.2135 30.5228 36.2135 30.7815 36.2135 31.0401C35.9548 31.5287 35.7824 32.0748 35.4088 32.4772C34.7477 33.1957 33.943 33.7131 32.9083 33.4544C32.1898 33.2819 31.7012 32.7646 31.2701 32.2185C30.4653 31.1839 29.6606 30.1492 28.8558 29.1433C28.4822 28.6834 28.1373 28.2235 27.7349 27.7349C27.4188 28.0511 27.1314 28.3385 26.844 28.6547C26.7865 28.7121 26.7865 28.8558 26.7865 28.9708C26.9015 29.3732 26.9302 29.833 26.7003 30.1779C26.4129 30.6378 26.4416 31.0976 26.4416 31.5862C26.4416 33.5693 24.9758 35.0351 22.964 35.0351C22.7053 35.0351 22.4179 35.0351 22.1305 35.0351C22.2454 35.6387 22.0155 36.0698 21.4982 36.2997C19.1702 36.2997 16.8134 36.2997 14.4854 36.2997C14.3704 36.1273 14.1693 36.0123 14.1118 35.8111C14.0255 35.4662 14.313 35.2363 14.7441 35.2363C16.6985 35.2363 18.6816 35.2363 20.636 35.2363C20.7509 35.2363 20.8946 35.2363 21.0096 35.2363C21.1533 34.4316 20.8371 33.9717 20.1474 33.943C17.0433 33.943 13.9393 33.943 10.8066 33.943C10.1168 33.943 9.71442 34.5178 9.94435 35.2363C10.6054 35.2363 11.2952 35.2363 11.9562 35.2363C12.2724 35.2363 12.531 35.2938 12.6172 35.61C12.7035 35.9548 12.531 36.156 12.2724 36.2997C11.3814 36.2422 10.4617 36.2422 9.54197 36.2422ZM30.724 23.1651C30.1779 22.6478 29.6606 22.1305 29.1433 21.6419C28.8846 21.3832 28.8558 21.1245 29.057 20.8946C29.287 20.6072 29.6031 20.6072 29.9193 20.9234C30.5516 21.5269 31.1551 22.1592 31.7587 22.7628C32.1036 23.1077 32.4485 23.0789 32.8221 22.7053C33.1957 22.3317 33.2245 21.9293 32.9083 21.5844C31.1839 19.8599 29.4881 18.1355 27.7637 16.411C27.4188 16.0662 27.0452 16.0949 26.6715 16.4685C26.2979 16.8422 26.2692 17.2445 26.5853 17.5894C27.0452 18.0493 27.505 18.5091 27.9649 18.969C28.2523 19.2851 28.3098 19.5725 28.0798 19.8025C27.8499 20.0611 27.5338 20.0324 27.2176 19.7162C26.8727 19.3714 26.5278 19.0265 26.1829 18.6816C24.6022 20.2623 23.0502 21.8143 21.5844 23.3089C23.0789 24.8034 24.6022 26.3266 26.0967 27.8212C27.5912 26.2979 29.1433 24.7746 30.724 23.1651ZM24.6309 9.31205C22.073 6.78285 19.6013 4.31113 17.0433 1.81068C17.0433 3.85128 17.0433 5.77692 17.0433 7.7313C17.0433 8.76597 17.5894 9.34079 18.6241 9.34079C20.4922 9.34079 22.3604 9.34079 24.2286 9.34079C24.3148 9.31205 24.4297 9.31205 24.6309 9.31205ZM29.7468 25.7518C29.3157 26.1829 28.9421 26.5566 28.5397 26.9589C28.9995 27.5338 29.4881 28.1661 29.948 28.7696C30.724 29.7468 31.5 30.7527 32.276 31.7299C32.9083 32.5059 33.6556 32.5922 34.4028 31.9311C34.5465 31.8162 34.6615 31.6724 34.7765 31.5287C35.2938 30.8677 35.2363 30.1492 34.5753 29.6318C33.0233 28.3098 31.385 27.0452 29.7468 25.7518ZM20.0611 23.5388C19.63 23.5388 19.2564 23.8262 19.0839 24.1998C18.9402 24.5447 19.1127 24.7746 19.3426 25.0046C21.0383 26.7003 22.7628 28.396 24.4297 30.1204C24.7746 30.4653 25.2345 30.3216 25.5219 30.0342C25.8955 29.6606 25.9243 29.287 25.6081 28.9421C23.8837 27.2176 22.1305 25.4644 20.406 23.74C20.2911 23.6537 20.1474 23.5963 20.0611 23.5388ZM19.63 32.7933C19.7162 31.9024 19.4001 31.5575 18.5379 31.5575C16.4973 31.5575 14.4279 31.5575 12.3873 31.5575C11.5826 31.5575 11.2377 31.9886 11.3814 32.7933C14.1405 32.7933 16.8709 32.7933 19.63 32.7933Z" fill="white"/>
<path d="M11.4678 18.9113C9.48472 18.9113 7.5016 18.9113 5.51848 18.9113C5.37477 18.9113 5.25981 18.9113 5.1161 18.9113C4.8287 18.8826 4.68499 18.6814 4.65625 18.394C4.65625 18.1353 4.79995 17.9341 5.05862 17.8766C5.17359 17.8479 5.25981 17.8479 5.37477 17.8479C9.3985 17.8479 13.4222 17.8479 17.4172 17.8479C17.5322 17.8479 17.6471 17.8479 17.7621 17.8766C18.0208 17.9629 18.1645 18.1353 18.1357 18.394C18.1357 18.6526 17.9633 18.8251 17.7046 18.8826C17.5896 18.9113 17.4459 18.9113 17.331 18.9113C15.4053 18.9113 13.4222 18.9113 11.4678 18.9113Z" fill="white"/>
<path d="M10.3475 27.4186C8.70927 27.4186 7.09978 27.4186 5.46155 27.4186C5.34659 27.4186 5.17414 27.4473 5.08792 27.3899C4.91547 27.2749 4.71429 27.1024 4.68555 26.93C4.68555 26.7576 4.85799 26.5564 5.0017 26.4127C5.08792 26.3264 5.26036 26.3552 5.40407 26.3552C8.68053 26.3552 11.9857 26.3552 15.2622 26.3552C15.3772 26.3552 15.5209 26.3552 15.6358 26.3839C15.8945 26.4414 16.0382 26.6426 16.0095 26.9013C15.9807 27.1599 15.837 27.3324 15.5783 27.3899C15.4634 27.4186 15.3197 27.4186 15.2047 27.4186C13.624 27.4186 11.9857 27.4186 10.3475 27.4186Z" fill="white"/>
<path d="M9.77211 23.1649C8.39255 23.1649 7.01299 23.1649 5.63343 23.1649C5.48972 23.1649 5.34602 23.1937 5.25979 23.1362C5.08735 23.0212 4.88616 22.8488 4.85742 22.6763C4.85742 22.5039 5.02987 22.3027 5.17357 22.159C5.25979 22.0728 5.46098 22.1015 5.60468 22.1015C8.36381 22.1015 11.1517 22.1015 13.9108 22.1015C14.0545 22.1015 14.1982 22.1015 14.3419 22.1303C14.6006 22.1877 14.7155 22.3889 14.7155 22.6476C14.6868 22.9063 14.5431 23.0787 14.2844 23.1362C14.1695 23.1649 14.0545 23.1362 13.9395 23.1362C12.5312 23.1649 11.1517 23.1649 9.77211 23.1649Z" fill="white"/>
<path d="M9.39764 10.4328C8.13305 10.4328 6.86845 10.4328 5.60385 10.4328C5.48889 10.4328 5.37392 10.4328 5.25896 10.4041C5.00029 10.3753 4.82785 10.1741 4.82785 9.91546C4.7991 9.65679 4.94281 9.45561 5.20148 9.39813C5.34518 9.36939 5.48889 9.36938 5.63259 9.36938C8.16179 9.36938 10.691 9.36938 13.2489 9.36938C13.3639 9.36938 13.5076 9.36939 13.6226 9.39813C13.91 9.45561 14.0249 9.65679 14.0249 9.9442C13.9962 10.2029 13.8525 10.3753 13.5938 10.4041C13.4789 10.4328 13.3639 10.4041 13.2489 10.4041C11.9556 10.4328 10.6622 10.4328 9.39764 10.4328Z" fill="white"/>
<path d="M9.08122 14.6862C7.87411 14.6862 6.66699 14.6862 5.48861 14.6862C5.37365 14.6862 5.25869 14.6862 5.14372 14.6575C4.88506 14.6287 4.71261 14.4275 4.71261 14.1689C4.68387 13.9102 4.82757 13.709 5.08624 13.6515C5.20121 13.6228 5.34491 13.6228 5.45987 13.6228C7.87411 13.6228 10.2883 13.6228 12.7026 13.6228C12.8175 13.6228 12.9325 13.6228 13.0475 13.6515C13.3349 13.709 13.4786 13.9102 13.4498 14.1976C13.4498 14.485 13.2774 14.6575 12.99 14.6862C12.8463 14.715 12.7026 14.6862 12.5589 14.6862C11.4092 14.6862 10.2309 14.6862 9.08122 14.6862Z" fill="white"/>
<path d="M18.337 14.6864C17.3886 14.6864 16.4401 14.6864 15.4629 14.6864C15.1755 14.6864 14.9743 14.5714 14.9169 14.284C14.8594 14.0254 14.9169 13.7954 15.1755 13.6805C15.3192 13.623 15.4917 13.5942 15.6641 13.5942C16.9287 13.5942 18.1933 13.5942 19.4579 13.5942C20.0327 13.5942 20.6363 13.5942 21.2111 13.5942C21.556 13.5942 21.7859 13.8529 21.7859 14.1403C21.7859 14.4277 21.556 14.6289 21.2111 14.6289C21.1249 14.6289 21.0099 14.6289 20.9237 14.6289C20.0615 14.6864 19.1992 14.6864 18.337 14.6864Z" fill="white"/>
</svg>
