<svg width="35" height="42" viewBox="0 0 35 42" fill="none" xmlns="http://www.w3.org/2000/svg">
<path d="M29.9312 41.6091C21.847 41.6091 13.7629 41.6091 5.67868 41.6091C5.65454 41.5971 5.64248 41.5729 5.61835 41.5609C3.89292 41.0782 3.10863 40.0526 3.09656 38.2669C3.09656 36.9034 3.09656 35.5279 3.09656 34.1644C3.09656 34.0196 3.09656 33.8869 3.09656 33.7542C2.74665 33.718 2.445 33.7301 2.16749 33.6697C1.17808 33.4163 0.623047 32.6079 0.623047 31.4496C0.623047 25.4046 0.623047 19.3475 0.623047 13.3024C0.623047 13.1697 0.623047 13.037 0.635113 12.9043C0.73164 12.0476 1.19015 11.4563 1.9865 11.1426C2.21575 11.0461 2.46914 10.9737 2.71045 10.9375C3.02417 10.8892 3.10863 10.7324 3.10863 10.4307C3.09656 8.31919 3.09656 6.20765 3.10863 4.08405C3.10863 3.7824 3.1207 3.46868 3.18103 3.1791C3.50681 1.69499 4.72547 0.765913 6.28197 0.765913C13.9076 0.765913 21.5454 0.790045 29.1711 0.741781C31.0172 0.729715 32.5857 2.05697 32.5254 4.10818C32.4651 6.13526 32.5133 8.1744 32.5133 10.2135C32.5133 10.8048 32.5133 10.8048 33.0925 10.9737C34.5163 11.3719 34.9989 11.9993 34.9989 13.4593C34.9989 19.4078 34.9989 25.3442 34.9989 31.2927C34.9989 31.4617 34.9989 31.6427 34.9868 31.8116C34.9024 32.9216 34.0457 33.7301 32.9356 33.7421C32.8029 33.7421 32.6823 33.7421 32.5254 33.7421C32.5254 33.9231 32.5254 34.0679 32.5254 34.2127C32.5254 35.733 32.5375 37.2413 32.5013 38.7616C32.4651 40.0044 31.6084 41.0782 30.4259 41.4643C30.257 41.5005 30.0881 41.5609 29.9312 41.6091ZM18.4082 31.3772C18.5048 31.3772 18.5289 31.3893 18.553 31.3772C18.6375 31.341 18.722 31.3048 18.8064 31.2686C22.5951 29.6156 26.5045 28.771 30.6431 29.4708C31.0895 29.5432 31.2705 29.3743 31.2705 28.9278C31.2826 28.4814 31.2705 28.0229 31.2705 27.5764C31.2705 27.1421 31.4998 26.8766 31.8618 26.8766C32.2117 26.8766 32.453 27.1541 32.4651 27.5764C32.4771 28.0108 32.4651 28.4572 32.4651 28.8916C32.453 30.1465 31.5963 30.8463 30.3656 30.6412C29.7261 30.5326 29.0745 30.4602 28.423 30.4361C24.9962 30.3154 21.7867 31.16 18.734 32.6321C18.0945 32.9337 17.5154 32.9337 16.8759 32.6441C15.8261 32.1736 14.7523 31.7271 13.6543 31.3772C10.9515 30.5085 8.18839 30.1706 5.3529 30.6291C3.91705 30.8584 3.13276 30.2189 3.13276 28.7589C3.13276 24.8616 3.13276 20.9643 3.13276 17.067C3.13276 16.9101 3.13276 16.7412 3.16896 16.5964C3.25342 16.2948 3.48267 16.1379 3.79639 16.1621C4.09804 16.1983 4.27903 16.3792 4.31522 16.6809C4.33936 16.8257 4.32729 16.9705 4.32729 17.1153C4.32729 21.0246 4.32729 24.934 4.32729 28.8434C4.32729 29.4105 4.49621 29.5432 5.06331 29.4708C5.71487 29.3863 6.3785 29.2777 7.04213 29.2536C10.0948 29.1209 13.0027 29.7604 15.8261 30.8704C16.2605 31.0394 16.6949 31.2324 17.1896 31.4496C17.1896 31.2565 17.1896 31.1238 17.1896 30.9911C17.1896 24.6806 17.1896 18.3581 17.2016 12.0476C17.2016 11.758 17.1172 11.6011 16.8517 11.4684C14.9091 10.5514 12.882 9.88776 10.7584 9.52579C8.80375 9.20001 6.84907 9.17587 4.89439 9.54992C4.41175 9.64645 4.32729 9.75504 4.32729 10.2497C4.32729 10.8048 4.32729 11.3719 4.32729 11.9269C4.32729 12.5905 4.32729 13.2542 4.32729 13.9178C4.32729 14.2918 4.08597 14.5452 3.76019 14.5573C3.43441 14.5693 3.18103 14.316 3.14483 13.954C3.13276 13.7971 3.14483 13.6403 3.14483 13.4713C3.14483 13.0128 3.14483 12.5543 3.14483 12.0958C2.05889 12.2527 1.82964 12.5061 1.82964 13.5075C1.82964 19.4199 1.82964 25.3442 1.82964 31.2565C1.82964 31.4013 1.82964 31.5461 1.84171 31.6909C1.8779 32.246 2.28815 32.5838 2.84318 32.5235C3.03624 32.4993 3.22929 32.439 3.42235 32.3787C5.8838 31.6065 8.36938 31.4737 10.9032 31.9322C13.1234 32.3304 15.1987 33.1268 17.1655 34.2127C17.624 34.4661 18.0342 34.4782 18.4806 34.2248C18.8788 33.9955 19.3011 33.7783 19.7234 33.5853C23.8259 31.6668 28.0489 31.0032 32.453 32.439C33.3338 32.7286 33.8165 32.3425 33.8165 31.4255C33.8165 25.4287 33.8165 19.4319 33.8165 13.4352C33.8165 12.494 33.5148 12.1803 32.5013 12.0958C32.5013 12.2527 32.5013 12.4095 32.5013 12.5664C32.5013 16.4878 32.5013 20.4093 32.5013 24.3307C32.5013 24.4634 32.5133 24.5961 32.4892 24.7289C32.4409 25.0667 32.1755 25.2839 31.8497 25.2598C31.5119 25.2236 31.3309 25.0305 31.3067 24.6806C31.2947 24.5479 31.3067 24.4152 31.3067 24.2824C31.3067 19.6129 31.3067 14.9434 31.3067 10.2859C31.3067 9.71884 31.2343 9.62231 30.6672 9.53785C30.0639 9.44133 29.4606 9.3448 28.8573 9.3086C25.3341 9.10348 22.0401 9.94809 18.8667 11.4201C18.541 11.577 18.4324 11.7459 18.4324 12.1079C18.4444 18.3822 18.4444 24.6565 18.4444 30.9308C18.4082 31.0756 18.4082 31.2203 18.4082 31.3772ZM6.3785 32.9216C5.76314 33.0544 5.22017 33.175 4.6772 33.2716C4.38762 33.3198 4.30316 33.4646 4.30316 33.7542C4.31522 35.2866 4.30316 36.8069 4.31522 38.3393C4.31522 39.6906 5.05125 40.4267 6.4147 40.4267C12.134 40.4267 17.8411 40.4267 23.5604 40.4267C25.5151 40.4267 27.4698 40.4267 29.4244 40.4267C30.4742 40.4267 31.2947 39.6906 31.3188 38.665C31.355 36.9879 31.3309 35.3107 31.3309 33.6456C31.3309 33.5491 31.2585 33.3801 31.1981 33.356C30.5707 33.1992 29.9433 33.0785 29.2676 32.9337C29.2676 33.2354 29.2676 33.4405 29.2676 33.6335C29.2676 34.9729 28.604 35.6485 27.2646 35.6485C24.5981 35.6485 21.9194 35.6485 19.2529 35.6485C15.5848 35.6485 11.9168 35.6485 8.24872 35.6485C7.13866 35.6485 6.42676 34.9367 6.40263 33.8387C6.36644 33.5491 6.3785 33.2836 6.3785 32.9216ZM4.32729 8.40365C4.96679 8.31919 5.58215 8.23473 6.19751 8.12614C6.28197 8.11407 6.3785 7.92102 6.3785 7.80036C6.39057 7.17293 6.3785 6.5455 6.39057 5.93014C6.40263 4.72354 7.09039 4.02372 8.29699 4.02372C14.6557 4.02372 21.0024 4.02372 27.3612 4.02372C28.5557 4.02372 29.2555 4.72354 29.2676 5.93014C29.2676 6.55756 29.2555 7.18499 29.2797 7.80036C29.2797 7.90895 29.3762 8.102 29.4606 8.11407C30.0639 8.22266 30.6793 8.29506 31.3188 8.39159C31.3309 8.25886 31.3429 8.1382 31.3429 8.02961C31.3429 6.67822 31.3429 5.31477 31.3429 3.96339C31.3429 2.6844 30.5828 1.94837 29.3038 1.94837C21.666 1.94837 14.0162 1.94837 6.3785 1.94837C5.09951 1.94837 4.33936 2.69646 4.33936 3.97545C4.33936 5.32684 4.33936 6.69029 4.33936 8.04168C4.30316 8.16233 4.31522 8.28299 4.32729 8.40365ZM28.0369 8.04168C28.0369 7.35392 28.0369 6.70236 28.0369 6.06286C28.0369 5.36304 27.9041 5.23031 27.1922 5.23031C20.93 5.23031 14.6799 5.23031 8.41764 5.23031C8.29699 5.23031 8.15219 5.19411 8.06773 5.24238C7.88674 5.36304 7.60923 5.53196 7.59716 5.68882C7.5489 6.46104 7.57303 7.24532 7.57303 8.04168C14.4024 8.04168 21.1955 8.04168 28.0369 8.04168ZM7.57303 32.8613C7.57303 33.175 7.57303 33.4284 7.57303 33.6939C7.58509 34.261 7.74195 34.4299 8.30905 34.4299C10.3361 34.4299 12.3753 34.4299 14.4024 34.4299C14.4868 34.4299 14.5833 34.4058 14.7764 34.3937C12.4115 33.4043 10.0827 32.8251 7.57303 32.8613ZM20.9542 34.4299C23.114 34.4299 25.2738 34.4299 27.4336 34.4299C27.7473 34.4299 27.9886 34.2972 28.0127 33.9593C28.0369 33.6094 28.0248 33.2595 28.0248 32.8613C25.5271 32.8372 23.1984 33.4043 20.9542 34.4299ZM20.6766 9.3086C18.7702 9.3086 16.8638 9.3086 14.9453 9.3086C15.8744 9.71884 16.7552 10.117 17.6481 10.4911C17.7446 10.5273 17.8894 10.5393 17.9739 10.5031C18.8547 10.117 19.7476 9.71884 20.6766 9.3086Z" fill="white"/>
<path d="M17.8173 37.2651C18.2275 37.2651 18.6378 37.2531 19.048 37.2651C19.4582 37.2772 19.7116 37.5064 19.7116 37.8564C19.7116 38.2063 19.4703 38.4476 19.0601 38.4597C18.2275 38.4717 17.395 38.4717 16.5503 38.4597C16.1401 38.4476 15.8867 38.2063 15.8867 37.8684C15.8867 37.5064 16.1401 37.2772 16.5865 37.2772C16.9968 37.2651 17.407 37.2651 17.8173 37.2651Z" fill="white"/>
<path d="M10.8778 6.64187C10.8778 6.96765 10.6365 7.22104 10.3107 7.22104C9.97283 7.2331 9.69531 6.95559 9.69531 6.62981C9.69531 6.32816 9.97283 6.05064 10.2745 6.03857C10.6003 6.03857 10.8778 6.30402 10.8778 6.64187Z" fill="white"/>
<path d="M15.7541 6.05069C16.0799 6.05069 16.3574 6.35234 16.3453 6.66605C16.3332 6.97977 16.0678 7.23315 15.742 7.23315C15.4042 7.23315 15.1387 6.9677 15.1508 6.62985C15.1749 6.30407 15.4404 6.03862 15.7541 6.05069Z" fill="white"/>
<path d="M13.0155 6.05078C13.3292 6.05078 13.5946 6.31623 13.6067 6.62995C13.6188 6.97986 13.3654 7.23324 13.0155 7.23324C12.6776 7.23324 12.4122 6.96779 12.4242 6.62995C12.4484 6.30417 12.7138 6.05078 13.0155 6.05078Z" fill="white"/>
</svg>
