<svg width="44" height="44" viewBox="0 0 44 44" fill="none" xmlns="http://www.w3.org/2000/svg">
<path d="M21.6342 43.9999C20.772 43.7632 19.8844 43.5942 19.056 43.2645C17.6697 42.7066 16.5793 41.7345 15.7255 40.5088C15.3789 40.0101 15.3789 39.6466 15.7255 39.4015C16.0721 39.1563 16.4018 39.2747 16.7568 39.7819C19.2589 43.349 24.3391 43.7801 27.3315 40.6272C29.2503 38.6069 29.7829 36.1809 28.8446 33.5605C27.8978 30.9316 25.9452 29.3847 23.1473 29.055C18.6503 28.5225 14.914 32.4531 15.6156 36.9247C15.6917 37.4066 15.5057 37.7278 15.1169 37.7954C14.7281 37.863 14.4407 37.6179 14.373 37.1276C14.3139 36.6542 14.2801 36.1809 14.2293 35.6483C14.0772 35.6483 13.9166 35.6483 13.7475 35.6483C10.1719 35.6483 6.60473 35.6483 3.02911 35.6483C1.58364 35.6483 0.789062 34.8538 0.789062 33.4083C0.789062 31.3965 0.789062 29.3847 0.789062 27.3729C0.789062 25.995 1.22017 25.4033 2.54729 24.9891C2.54729 24.5242 2.54729 24.0508 2.54729 23.5521C2.42049 23.5183 2.2937 23.476 2.15845 23.4338C1.34696 23.1633 0.797516 22.4448 0.789063 21.5995C0.789062 19.351 0.789062 17.1025 0.805969 14.8455C0.814422 13.865 1.43994 13.1887 2.55574 12.8929C2.55574 12.4279 2.55574 11.9546 2.55574 11.4558C2.38668 11.3967 2.20071 11.346 2.0232 11.2699C1.27088 10.9402 0.822875 10.3485 0.814422 9.53702C0.780609 7.26316 0.789062 4.9893 0.805969 2.70699C0.814422 1.67573 1.66817 0.838879 2.69099 0.805067C3.36723 0.779708 4.04347 0.788161 4.71971 0.805067C5.14236 0.81352 5.41285 1.08402 5.41285 1.4475C5.4044 1.81097 5.12545 2.06456 4.7028 2.06456C4.11109 2.07302 3.51938 2.06456 2.92767 2.06456C2.34441 2.07302 2.06547 2.33506 2.06547 2.90986C2.06547 5.04847 2.06547 7.18708 2.06547 9.32569C2.06547 9.9005 2.33596 10.171 2.92767 10.171C10.7298 10.171 18.5319 10.171 26.3425 10.171C26.9596 10.171 27.2216 9.9174 27.2216 9.30033C27.2216 7.18708 27.2216 5.08229 27.2216 2.96904C27.2216 2.3097 26.968 2.06456 26.3002 2.06456C20.2394 2.06456 14.1786 2.06456 8.11782 2.06456C7.96566 2.06456 7.80505 2.08147 7.6529 2.04766C7.30633 1.98003 7.11191 1.76026 7.12036 1.39678C7.13727 1.0502 7.34014 0.864238 7.66981 0.805067C7.7797 0.788161 7.89804 0.796614 8.00793 0.796614C14.0941 0.796614 20.1887 0.796614 26.2749 0.796614C27.695 0.796614 28.4895 1.5912 28.4895 3.01975C28.4895 5.03157 28.4895 7.04338 28.4895 9.0552C28.4895 10.4753 28.0838 11.0247 26.7229 11.4558C26.7229 11.9292 26.7229 12.4026 26.7229 12.8929C27.9739 13.1803 28.5487 13.9748 28.498 15.2935C28.684 15.2935 28.8446 15.2935 29.0052 15.2935C31.3636 15.2935 33.7304 15.2935 36.0888 15.2935C36.2325 15.2935 36.3762 15.2851 36.5114 15.3104C36.8073 15.3611 36.9848 15.5471 37.0186 15.8514C37.0524 16.1473 36.9341 16.3839 36.6467 16.4938C36.4776 16.553 36.2917 16.5615 36.1057 16.5615C33.7051 16.5699 31.2959 16.5615 28.8953 16.5615C28.7431 16.5615 28.591 16.5615 28.3881 16.5615C28.5487 17.0686 28.6924 17.5336 28.8361 17.99C32.9105 17.99 36.951 17.99 40.9831 17.99C41.0084 17.9478 41.0254 17.9224 41.0338 17.897C41.1099 16.553 41.1099 16.5615 39.7828 16.553C39.5968 16.553 39.4108 16.5615 39.2333 16.5276C38.9036 16.4516 38.7177 16.2318 38.7346 15.8937C38.7515 15.5386 38.9544 15.3104 39.3263 15.302C39.8842 15.2851 40.4505 15.2766 41.0084 15.3104C41.7354 15.3611 42.2764 16.0036 42.3018 16.7812C42.3187 17.1701 42.3018 17.5674 42.3018 17.99C43.1724 17.9816 43.7219 18.3958 44.0008 19.1819C44.0008 24.2706 44.0008 29.3678 44.0008 34.4565C43.6965 35.3356 43.071 35.6568 42.1496 35.6483C38.4556 35.623 34.7617 35.6399 31.0593 35.6399C30.8987 35.6399 30.7296 35.6399 30.5436 35.6399C30.5352 35.8174 30.5183 35.9611 30.5183 36.0964C30.3999 39.7058 27.9824 42.7658 24.5082 43.721C24.094 43.8308 23.6629 43.9069 23.2402 43.9999C22.7077 43.9999 22.1752 43.9999 21.6342 43.9999ZM30.4084 34.3804C30.569 34.3804 30.7127 34.3804 30.8479 34.3804C34.618 34.3804 38.3796 34.3804 42.1496 34.3804C42.7244 34.3804 42.7244 34.3804 42.7244 33.7887C42.7244 29.1649 42.7244 24.5326 42.7244 19.9089C42.7244 19.2749 42.7244 19.2749 42.1073 19.2749C37.6103 19.2749 33.1133 19.2749 28.6079 19.2749C27.9908 19.2749 27.8725 19.1903 27.6781 18.5817C27.5005 18.0238 27.3061 17.4659 27.154 16.8911C27.0779 16.6206 26.9342 16.5446 26.6722 16.5446C24.9562 16.553 23.2402 16.553 21.5243 16.5446C21.2284 16.5446 21.1016 16.6544 21.0255 16.9249C20.8734 17.4913 20.679 18.0492 20.5015 18.6155C20.3324 19.1565 20.1802 19.2664 19.6224 19.2664C19.5125 19.2664 19.3941 19.2749 19.2842 19.2664C18.8869 19.2157 18.7432 19.3679 18.7517 19.7821C18.7686 22.58 18.7601 25.3779 18.7601 28.1759C18.7601 28.2942 18.7771 28.4126 18.7855 28.5478C21.2369 27.4405 23.646 27.3982 26.0213 28.5901C28.4135 29.7989 29.8336 31.7769 30.4084 34.3804ZM27.1793 15.2935C27.2554 14.4398 27.0103 14.1693 26.2326 14.1608C18.4981 14.1608 10.7636 14.1608 3.02911 14.1608C2.28524 14.1608 2.05701 14.3975 2.05701 15.1583C2.05701 17.1954 2.05701 19.2326 2.05701 21.2782C2.05701 22.0475 2.28524 22.2757 3.07137 22.2757C7.72898 22.2757 12.3781 22.2757 17.0357 22.2757C17.1879 22.2757 17.3316 22.2588 17.5006 22.2588C17.5006 21.312 17.4922 20.416 17.5006 19.5116C17.5091 18.7931 17.9487 18.1084 18.6249 18.0999C19.4448 18.0915 19.5209 17.5843 19.6731 17.0433C19.7238 16.8573 19.7914 16.6714 19.8506 16.4769C20.1211 15.6316 20.5775 15.2935 21.4651 15.2935C23.1642 15.2935 24.8717 15.2935 26.5707 15.2935C26.7736 15.2935 26.968 15.2935 27.1793 15.2935ZM17.5006 26.2909C17.3823 26.2824 17.3147 26.274 17.2471 26.274C12.4711 26.274 7.69517 26.274 2.91922 26.274C2.31906 26.274 2.06547 26.5445 2.06547 27.17C2.06547 29.2494 2.06547 31.3289 2.06547 33.4083C2.06547 34.1437 2.30215 34.3804 3.05447 34.3804C6.69771 34.3804 10.3325 34.3804 13.9757 34.3804C14.111 34.3804 14.2462 34.3719 14.3646 34.3635C14.3984 34.3128 14.4153 34.2874 14.4238 34.2621C14.838 32.3348 15.81 30.7541 17.3316 29.5115C17.4161 29.4438 17.5006 29.3086 17.5006 29.2072C17.5091 28.2435 17.5006 27.2883 17.5006 26.2909ZM3.86596 12.8675C11.0595 12.8675 18.2276 12.8675 25.3958 12.8675C25.3958 12.3772 25.3958 11.9208 25.3958 11.4728C18.2022 11.4728 11.0256 11.4728 3.86596 11.4728C3.86596 11.9546 3.86596 12.3941 3.86596 12.8675ZM17.4753 24.9976C17.4753 24.4988 17.4753 24.0424 17.4753 23.569C12.9276 23.569 8.41367 23.569 3.88286 23.569C3.88286 24.0593 3.88286 24.5242 3.88286 24.9976C8.43058 24.9976 12.936 24.9976 17.4753 24.9976Z" fill="white"/>
<path d="M20.1105 34.34C20.5148 34.292 20.8015 34.3743 20.8971 34.7036C20.9926 35.026 20.7647 35.2112 20.5001 35.3622C20.2208 35.5268 19.9488 35.6983 19.6695 35.8561C19.2505 36.0962 18.9933 36.0413 18.7213 35.6503C18.5375 35.3965 18.3685 35.1289 18.1847 34.8751C17.9936 34.6144 17.898 34.3537 18.1627 34.0999C18.4199 33.8598 18.7066 33.8941 18.9712 34.1136C19.1623 33.8392 19.3167 33.5717 19.5225 33.3316C20.2429 32.4947 21.1764 32.0419 22.3378 32.0007C22.7494 31.987 22.9846 32.1654 22.9993 32.4809C23.014 32.7965 22.7935 33.0023 22.3892 33.0229C21.3969 33.0846 20.6765 33.5168 20.1105 34.34Z" fill="white"/>
<path d="M24.8361 37.737C24.6448 37.6891 24.4535 37.6754 24.3063 37.5931C23.9898 37.415 23.9825 36.997 24.2989 36.7845C24.6742 36.531 25.0643 36.298 25.4691 36.0787C25.7561 35.9211 26.021 36.0102 26.205 36.2569C26.4258 36.5584 26.6318 36.8668 26.8453 37.1751C27.0293 37.4287 27.0808 37.6891 26.8232 37.9152C26.5656 38.1482 26.2933 38.0934 26.0063 37.8809C25.9474 37.9837 25.8885 38.0797 25.8297 38.1756C25.1305 39.3063 24.0781 39.923 22.6798 39.9984C22.2751 40.019 22.0248 39.8408 22.0028 39.5324C21.9733 39.2172 22.1794 39.0116 22.5915 38.9842C23.5703 38.9294 24.321 38.5251 24.8361 37.737Z" fill="white"/>
<path d="M5.52295 8.11741C4.43251 8.11741 3.51114 7.18758 3.51959 6.09714C3.53649 5.01516 4.43251 4.11914 5.5145 4.11914C6.61339 4.11914 7.53476 5.04052 7.51786 6.13095C7.50095 7.22139 6.60493 8.11741 5.52295 8.11741ZM5.48914 6.84946C5.86952 6.86637 6.22455 6.55361 6.24991 6.15631C6.27527 5.76748 5.97096 5.4209 5.57367 5.38709C5.16792 5.35328 4.80445 5.68295 4.79599 6.08869C4.77909 6.47753 5.1003 6.83255 5.48914 6.84946Z" fill="white"/>
<path d="M22.0216 8.14194C21.8271 8.12504 21.6243 8.12504 21.4383 8.07432C21.1086 7.98133 20.9649 7.7362 21.0072 7.39808C21.0495 7.08532 21.2439 6.8909 21.5566 6.86554C21.8525 6.84018 22.1484 6.84863 22.4358 6.85709C22.8246 6.87399 23.0866 7.12758 23.0951 7.47415C23.0951 7.79537 22.8415 8.06586 22.4865 8.10813C22.3343 8.12504 22.1822 8.10813 22.0216 8.10813C22.0216 8.12504 22.0216 8.13349 22.0216 8.14194Z" fill="white"/>
<path d="M22.0209 5.38726C21.8519 5.37881 21.6828 5.38726 21.5222 5.3619C21.2094 5.31118 21.0319 5.10831 21.015 4.7871C20.9981 4.46588 21.1418 4.21229 21.4546 4.17003C21.8349 4.11931 22.2322 4.11931 22.6211 4.16157C22.9592 4.20384 23.1198 4.47433 23.0944 4.804C23.0691 5.12522 22.8747 5.34499 22.5281 5.37035C22.359 5.38726 22.19 5.37035 22.0294 5.37035C22.0209 5.37881 22.0209 5.37881 22.0209 5.38726Z" fill="white"/>
<path d="M15.3373 6.85737C15.6839 6.83201 16.0051 6.87428 16.1488 7.23776C16.2671 7.53361 16.1911 7.7872 15.9375 7.98162C15.6754 8.18449 14.9569 8.17604 14.6949 7.97317C14.4328 7.77875 14.3821 7.4998 14.492 7.22085C14.6526 6.84892 14.9992 6.83201 15.3373 6.85737Z" fill="white"/>
<path d="M15.3018 5.46334C15.0482 5.35345 14.7777 5.29428 14.5918 5.13367C14.3466 4.92235 14.4058 4.49124 14.6594 4.27146C14.9383 4.02633 15.7329 4.03478 16.0034 4.28837C16.2485 4.5166 16.2993 4.93925 16.0372 5.15058C15.8428 5.31118 15.5723 5.35345 15.3018 5.46334Z" fill="white"/>
<path d="M5.49753 20.2142C4.4071 20.2057 3.51953 19.3097 3.51953 18.2277C3.51953 17.1288 4.43246 16.2328 5.5398 16.2413C6.63024 16.2497 7.5178 17.1457 7.5178 18.2277C7.5178 19.3182 6.61333 20.2142 5.49753 20.2142ZM6.24985 18.2193C6.24985 17.8304 5.92018 17.5008 5.53135 17.5008C5.13405 17.4923 4.80439 17.8051 4.78748 18.2024C4.77058 18.6081 5.11715 18.9462 5.53135 18.9462C5.92864 18.9378 6.24985 18.6081 6.24985 18.2193Z" fill="white"/>
<path d="M5.5145 32.3265C4.43251 32.318 3.52804 31.422 3.51959 30.34C3.51114 29.2496 4.43251 28.3197 5.52295 28.3282C6.62184 28.3366 7.53476 29.2665 7.51786 30.3569C7.50095 31.4389 6.59648 32.3265 5.5145 32.3265ZM5.50604 29.5961C5.11721 29.6046 4.78754 29.9427 4.78754 30.3231C4.78754 30.7288 5.14257 31.067 5.54831 31.05C5.93715 31.0331 6.25836 30.6866 6.24146 30.2977C6.233 29.9173 5.89488 29.5877 5.50604 29.5961Z" fill="white"/>
</svg>
