<svg width="250" height="190" viewBox="0 0 250 190" fill="none" xmlns="http://www.w3.org/2000/svg">
<path d="M67.3086 140.849C67.3086 140.849 67.5223 142.89 68.5908 145.467L72.117 147.078L69.3388 147.508C72.4376 155.241 79.9173 166.303 97.3344 164.048C97.3344 164.477 105.883 142.46 67.3086 140.849Z" fill="#FABD41"/>
<path d="M71.9033 152.986L86.2216 154.489L67.3086 140.849" stroke="white" stroke-width="0.855665" stroke-miterlimit="10"/>
<path d="M79.4922 142.46L86.224 154.489" stroke="white" stroke-width="0.855665" stroke-miterlimit="10"/>
<path d="M78.4204 127.961C78.4204 127.961 83.1219 124.739 84.0836 127.532C85.0453 130.324 86.3275 130.217 87.7166 130.002C89.1057 129.787 91.3496 128.498 92.2045 131.506C93.0593 134.62 92.2045 136.446 93.5936 137.413C94.9827 138.379 99.2568 144.072 96.3717 145.038C93.5936 146.005 90.2811 143.642 89.1057 142.353C87.9303 140.957 85.4727 140.957 83.6562 141.387C81.626 141.816 79.1683 140.957 80.0232 138.594C80.878 136.231 79.5958 133.868 77.8861 133.439C76.0696 132.794 75.1079 130.109 78.4204 127.961Z" fill="#1C4599"/>
<path d="M80.8789 130.646L97.1206 147.079" stroke="white" stroke-width="0.855665" stroke-miterlimit="10" stroke-linecap="round" stroke-linejoin="round"/>
<path d="M88.7892 132.042L87.507 137.305L81.8438 138.164" stroke="white" stroke-width="0.855665" stroke-miterlimit="10" stroke-linecap="round" stroke-linejoin="round"/>
<path d="M74.1463 135.264C74.1463 135.264 74.1463 138.272 76.1765 137.09C78.2067 135.909 79.5958 135.801 80.4506 138.057C81.3055 140.312 82.6946 141.171 84.0836 140.742C85.4727 140.312 87.7167 139.238 88.6783 142.245C89.64 145.36 92.0977 151.16 88.7852 152.663C85.5796 154.167 80.5575 152.019 79.7027 149.871C78.8478 147.616 79.7027 145.575 77.245 144.823C74.7874 144.071 74.2531 146.649 72.1161 144.93C69.979 143.212 67.4145 141.708 69.0173 138.057C70.6201 134.727 73.8257 133.653 74.1463 135.264Z" stroke="#ED3B4E" stroke-width="0.855665" stroke-miterlimit="10"/>
<path d="M73.6133 138.487C73.6133 138.487 87.7179 149.55 92.0989 151.375" stroke="#ED3B4E" stroke-width="0.855665" stroke-miterlimit="10"/>
<path d="M85.0468 142.675L85.3674 147.294L81.7344 148.797" stroke="#ED3B4E" stroke-width="0.855665" stroke-miterlimit="10"/>
<path d="M77.8839 138.165L77.6702 141.709L74.7852 143.32" stroke="#ED3B4E" stroke-width="0.855665" stroke-miterlimit="10"/>
<path d="M84.5086 93.4861C101.859 93.4861 115.924 79.349 115.924 61.9101C115.924 44.4711 101.859 30.334 84.5086 30.334C67.1587 30.334 53.0938 44.4711 53.0938 61.9101C53.0938 79.349 67.1587 93.4861 84.5086 93.4861Z" stroke="#DD1F26" stroke-width="0.855665" stroke-miterlimit="10" stroke-dasharray="5.13 5.13"/>
<path d="M59.6137 46.9814C61.7972 46.9814 63.5673 45.2023 63.5673 43.0076C63.5673 40.8128 61.7972 39.0337 59.6137 39.0337C57.4302 39.0337 55.6602 40.8128 55.6602 43.0076C55.6602 45.2023 57.4302 46.9814 59.6137 46.9814Z" fill="#24499F"/>
<path d="M60.7862 41.3965L57.6875 42.4705L59.9314 44.2963L60.7862 41.3965Z" fill="white"/>
<path d="M135.698 7.02642C135.698 7.02642 131.958 10.1411 135.484 11.5373C139.117 12.9335 140.506 14.6519 138.69 18.0888C136.659 21.5256 137.3 24.2107 139.117 25.4995C141.147 26.7883 144.887 28.7215 141.895 33.125C138.903 37.6359 133.988 46.6576 128.752 44.1874C123.41 41.7171 120.845 32.9102 122.982 29.4734C125.119 26.0365 128.645 25.0699 126.829 21.096C125.226 17.1222 121.486 19.0554 121.379 14.4371C121.272 9.71146 120.631 4.87839 127.149 3.37477C132.706 1.97855 137.194 4.77099 135.698 7.02642Z" stroke="#1C4599" stroke-width="0.855665" stroke-miterlimit="10"/>
<path d="M130.566 10.0337C130.566 10.0337 131.208 39.7839 132.917 47.1947" stroke="#1C4599" stroke-width="0.855665" stroke-miterlimit="10"/>
<path d="M137.19 28.8291L131.527 34.1992L125.863 31.0845" stroke="#1C4599" stroke-width="0.855665" stroke-miterlimit="10"/>
<path d="M135.588 14.9741L130.994 18.3036L125.758 16.2629" stroke="#1C4599" stroke-width="0.855665" stroke-miterlimit="10"/>
<path d="M148.195 7.34868C148.195 7.34868 157.171 10.1411 154.713 14.2224C152.042 18.1962 153.538 19.9147 155.355 21.4183C156.957 22.9219 161.125 24.6403 158.026 28.7216C154.927 32.8029 151.828 33.6621 152.042 36.4545C152.256 39.247 149.371 50.5241 145.203 47.9465C140.929 45.4762 140.609 38.7099 141.25 35.7027C141.891 32.9103 139.22 29.6882 136.762 27.5402C134.304 25.4996 132.915 21.4183 136.655 20.1295C140.502 18.7333 142.318 14.7594 141.143 11.967C139.433 9.38932 142.105 5.63026 148.195 7.34868Z" fill="#FABD41"/>
<path d="M147.339 13.4702L142.852 51.5978" stroke="white" stroke-width="0.855665" stroke-miterlimit="10" stroke-linecap="round" stroke-linejoin="round"/>
<path d="M153.643 25.1773L145.416 28.9364L138.363 22.9219" stroke="white" stroke-width="0.855665" stroke-miterlimit="10" stroke-linecap="round" stroke-linejoin="round"/>
<path d="M106.093 12.6112C106.093 12.6112 102.46 9.92615 104.811 6.8115C107.055 3.69685 112.825 3.69686 114.001 6.7041C115.283 9.49654 113.573 11.6446 116.138 12.0742C118.595 12.5038 125.327 14.7592 124.045 17.9813C122.656 21.2033 118.702 21.4181 120.412 25.7142C122.015 30.0103 130.349 30.7621 126.075 36.7766C121.801 42.6836 111.864 50.8462 106.735 40.643C101.819 30.4399 112.718 32.4805 106.841 25.929C100.965 19.3775 105.88 19.1627 107.483 16.6924C108.979 13.9 106.093 12.6112 106.093 12.6112Z" fill="#ED3B4E"/>
<path d="M112.828 16.3701C112.828 16.3701 113.469 28.1843 117.53 37.9578C121.59 47.7314 124.155 49.0202 124.155 49.0202" stroke="white" stroke-width="0.855665" stroke-miterlimit="10" stroke-linecap="round" stroke-linejoin="round"/>
<path d="M90.7074 29.0449C89.532 29.0449 88.5703 29.9041 88.5703 31.1929V175.863C88.5703 177.044 89.532 178.011 90.7074 178.011H167.962C169.138 178.011 170.099 177.152 170.099 175.863V30.9781C170.099 29.7967 169.138 28.8301 167.962 28.8301H90.7074V29.0449Z" fill="#1466B1"/>
<path d="M167.502 38.4136H90.5625V168.653H167.502V38.4136Z" fill="white" stroke="#1466B1" stroke-width="1.71133" stroke-miterlimit="10"/>
<path d="M138.711 33.8777C138.711 34.5222 138.283 34.8444 137.749 34.8444H119.798C119.156 34.8444 118.836 34.4148 118.836 33.8777C118.836 33.2333 119.263 32.9111 119.798 32.9111H137.749C138.07 32.9111 138.711 33.2333 138.711 33.8777Z" fill="white"/>
<path d="M158.511 89.8431C158.511 90.6598 157.646 91.2042 156.889 91.2042H103.051C102.078 91.2042 101.43 90.4783 101.43 89.8431C101.43 89.0264 102.295 88.4819 103.051 88.4819H156.889C157.754 88.4819 158.511 89.1171 158.511 89.8431Z" fill="#DCE8F4"/>
<path d="M123.041 59.0816C123.041 59.7349 122.72 60.1705 122.439 60.1705H102.442C102.081 60.1705 101.84 59.5897 101.84 59.0816C101.84 58.4282 102.161 57.9927 102.442 57.9927H122.439C122.76 57.9927 123.041 58.5008 123.041 59.0816Z" fill="#DCE8F4"/>
<path d="M127.39 65.0704C127.39 65.7237 127.003 66.1593 126.665 66.1593H102.566C102.13 66.1593 101.84 65.5785 101.84 65.0704C101.84 64.417 102.227 63.9814 102.566 63.9814H126.665C127.052 63.9814 127.39 64.4896 127.39 65.0704Z" fill="#DCE8F4"/>
<path d="M140.207 97.7535C140.207 98.4866 139.62 98.9753 139.106 98.9753H102.531C101.87 98.9753 101.43 98.3237 101.43 97.7535C101.43 97.0203 102.017 96.5316 102.531 96.5316H139.106C139.693 96.3687 140.207 97.0203 140.207 97.7535Z" fill="#DCE8F4"/>
<path d="M140.207 121.321C140.207 122.046 139.62 122.53 139.106 122.53H102.531C101.87 122.53 101.43 121.885 101.43 121.321C101.43 120.596 102.017 120.112 102.531 120.112H139.106C139.693 119.87 140.207 120.515 140.207 121.321Z" fill="#DCE8F4"/>
<path d="M147.095 127.186C147.095 127.986 146.403 128.519 145.797 128.519H102.727C101.949 128.519 101.43 127.808 101.43 127.186C101.43 126.386 102.122 125.853 102.727 125.853H145.797C146.489 125.587 147.095 126.297 147.095 127.186Z" fill="#DCE8F4"/>
<path d="M187.98 64.3532L182.527 65.8901L184.056 71.3712L189.51 69.8343L187.98 64.3532Z" fill="#ED3B4E"/>
<path d="M51.8475 127.071L47.1328 128.4L48.4548 133.139L53.1695 131.81L51.8475 127.071Z" fill="#24499F"/>
<path d="M85.4149 18.4818C85.4149 18.4818 85.3081 18.3744 85.2012 18.4818L83.5984 18.6966C83.3847 18.6966 83.171 18.5892 82.9573 18.4818C82.8504 17.6226 82.3162 16.9782 82.1025 16.2264C81.9956 16.119 82.1025 15.7968 82.2093 15.582L83.4916 14.6154C83.4916 14.6154 83.5984 14.508 83.5984 14.4006C83.5984 14.2932 83.5984 14.2932 83.4916 14.1858L81.3545 12.1451C81.3545 12.1451 81.2476 12.0377 81.1408 12.0377C81.0339 12.0377 81.0339 12.0377 80.9271 12.1451L79.9654 13.4339C79.8586 13.5413 79.538 13.6487 79.3243 13.5413C78.5763 13.1117 77.9352 12.7895 77.0804 12.6821C76.8667 12.6821 76.653 12.4673 76.8667 12.0377L77.0804 10.4267C77.0804 10.3193 77.0804 10.3193 77.0804 10.2119C77.0804 10.2119 76.9735 10.1045 76.8667 10.1045H74.1953C74.0885 10.1045 74.0885 10.1045 73.9816 10.2119C73.9816 10.2119 73.8748 10.3193 73.9816 10.4267L74.1953 12.0377C74.1953 12.2525 74.0885 12.4673 73.9816 12.6821C73.1268 12.7895 72.4857 13.3265 71.7377 13.5413C71.6308 13.6487 71.3103 13.5413 71.0966 13.4339L70.1349 12.1451C70.1349 12.1451 70.028 12.0377 69.9212 12.0377C69.8143 12.0377 69.8143 12.0377 69.7075 12.1451L67.7841 14.2932C67.7841 14.2932 67.6773 14.4006 67.6773 14.508C67.6773 14.6154 67.6773 14.6154 67.7841 14.7228L69.0664 15.6894C69.1732 15.7968 69.2801 16.119 69.1732 16.3338C68.7458 17.0856 68.4252 17.73 68.3184 18.5892C68.3184 18.804 68.1047 19.0188 67.6773 18.804L66.0745 18.5892C65.9676 18.5892 65.9676 18.5892 65.8608 18.5892C65.8608 18.5892 65.7539 18.6966 65.7539 18.804V21.4891C65.7539 21.5965 65.7539 21.5965 65.8608 21.7039C65.8608 21.7039 65.9676 21.8113 66.0745 21.7039L67.6773 21.4891C67.891 21.4891 68.1047 21.5965 68.3184 21.7039C68.4252 22.5631 68.9595 23.2075 69.1732 23.9593C69.2801 24.0667 69.1732 24.3889 69.0664 24.6037L67.7841 25.4629C67.7841 25.4629 67.6773 25.5703 67.6773 25.6777C67.6773 25.7851 67.6773 25.7851 67.7841 25.8925L69.8143 27.9332C69.8143 27.9332 69.9212 28.0406 70.028 28.0406C70.1349 28.0406 70.1349 28.0406 70.2417 27.9332L71.2034 26.6443C71.3103 26.5369 71.6308 26.4295 71.8445 26.5369C72.5925 26.9665 73.2336 27.2888 74.0885 27.3962C74.3022 27.3962 74.5159 27.611 74.3022 28.0406L74.0885 29.6516C74.0885 29.759 74.0885 29.759 74.0885 29.8664C74.0885 29.8664 74.1953 29.9738 74.3022 29.9738H76.9735C77.0804 29.9738 77.0804 29.9738 77.1872 29.8664C77.1872 29.8664 77.2941 29.759 77.1872 29.6516L76.8667 28.148C76.8667 27.9332 76.9735 27.7184 77.0804 27.5036C77.9352 27.3962 78.5763 26.8591 79.3243 26.6443C79.4311 26.5369 79.7517 26.6443 79.9654 26.7517L80.9271 28.0406C80.9271 28.0406 81.0339 28.148 81.1408 28.148C81.2476 28.148 81.2476 28.148 81.3545 28.0406L83.3847 25.9999C83.3847 25.9999 83.4916 25.8925 83.4916 25.7851C83.4916 25.6777 83.4916 25.6777 83.3847 25.5703L82.2093 24.4963C82.1025 24.3889 81.9956 24.0667 82.1025 23.8519C82.5299 23.1001 82.8504 22.4557 82.9573 21.5965C82.9573 21.3817 83.171 21.1669 83.5984 21.3817L85.2012 21.5965C85.3081 21.5965 85.3081 21.5965 85.4149 21.5965C85.4149 21.5965 85.5218 21.4891 85.5218 21.3817V18.6966C85.4149 18.804 85.4149 18.6966 85.4149 18.4818ZM84.8807 21.2743L83.4916 21.1669C82.8504 21.1669 82.3162 21.3817 82.2093 22.0261C82.1025 22.7779 81.7819 23.4223 81.3545 24.0667C81.1408 24.7111 81.2476 25.2481 81.5682 25.4629L82.5299 26.2147L81.1408 27.611L80.3928 26.6443C80.1791 26.2147 79.4311 25.9999 79.0037 26.4295C78.3626 26.8591 77.7215 27.1813 76.9735 27.2887C76.3324 27.3962 76.0118 28.0406 76.1187 28.5776L76.2255 29.9738H74.1953L74.3022 28.5776C74.3022 27.9332 74.0885 27.3962 73.4473 27.2887C72.6994 27.1813 72.0583 26.8591 71.4171 26.4295C70.776 26.2147 70.2417 26.3221 70.028 26.6443L69.2801 27.611L67.891 26.2147L68.8527 25.4629C69.2801 25.2481 69.4938 24.4963 69.0664 24.0667C68.6389 23.4223 68.3184 22.7779 68.2115 22.0261C68.1047 21.3817 67.4636 21.0595 66.9293 21.1669L65.9676 21.2743V19.2336L67.3567 19.341C67.9978 19.341 68.5321 19.1262 68.6389 18.4818C68.7458 17.73 69.0664 17.0856 69.4938 16.4412C69.7075 15.7968 69.6006 15.2598 69.2801 15.045L68.3184 14.2932L69.9212 12.8969L70.5623 13.8635C70.776 14.2932 71.524 14.508 71.9514 14.0784C72.5925 13.6487 73.2336 13.3265 73.9816 13.2191C74.6227 13.1117 74.9433 12.4673 74.8364 11.9303L74.7296 10.5341H76.7598L76.653 11.9303C76.653 12.5747 76.8667 13.1117 77.5078 13.2191C78.2558 13.3265 78.8969 13.6487 79.538 14.0784C80.0723 14.4006 80.6065 14.2932 80.8202 13.8635L81.5682 12.8969L82.9573 14.2932L81.6751 15.045C81.2476 15.2598 81.0339 16.0116 81.4614 16.4412C81.8888 17.0856 82.2093 17.73 82.3162 18.4818C82.423 19.1262 83.0642 19.4484 83.5984 19.341L84.9875 19.2336V21.2743H84.8807Z" stroke="#24499F" stroke-width="0.855665" stroke-miterlimit="10"/>
<path d="M75.2641 15.4746C72.5927 15.4746 70.5625 17.6226 70.5625 20.2003C70.5625 22.7779 72.6996 24.926 75.2641 24.926C77.9354 24.926 79.9656 22.7779 79.9656 20.2003C79.9656 17.6226 78.0422 15.4746 75.2641 15.4746ZM75.2641 24.2815C73.0201 24.2815 71.3105 22.4557 71.3105 20.3077C71.3105 18.1596 73.127 16.3338 75.2641 16.3338C77.4011 16.3338 79.2176 18.1596 79.2176 20.3077C79.2176 22.4557 77.508 24.2815 75.2641 24.2815Z" stroke="#24499F" stroke-width="0.855665" stroke-miterlimit="10"/>
<path d="M75.7266 93.5724H79.881L84.4131 93.3193C84.4131 93.3193 84.9167 96.1032 82.273 96.4828C79.6292 96.7359 75.6007 97.3686 75.0971 97.242C74.09 96.9889 75.7266 93.5724 75.7266 93.5724Z" fill="#FBBE9B"/>
<path d="M72.5768 73.3258C72.5768 73.3258 76.8572 77.6281 77.2348 80.0323C77.9902 82.4365 76.4795 85.853 76.1018 86.9919C75.85 88.0042 75.9759 101.038 75.9759 101.038H58.9805V73.1992L72.5768 73.3258Z" fill="#0064E1"/>
<path d="M82.652 60.2923C82.652 60.2923 82.4002 63.5823 81.5189 65.7334V67.3784C81.5189 67.5049 81.393 67.6315 81.2672 67.6315L80.26 67.5049V68.8969C80.26 69.0234 80.1341 69.1499 80.0082 69.1499H79.127C79.0011 69.1499 78.8752 69.2765 78.8752 69.403L79.0011 70.1622C79.0011 70.2888 79.0011 70.4153 78.7493 70.4153C77.994 70.5419 76.8609 70.6684 75.2243 69.5296C73.5877 68.3907 72.5806 69.0234 72.5806 70.0357C72.5806 71.048 73.4618 74.2115 72.077 75.0972C70.944 75.8565 67.419 75.3503 66.6636 74.5911C65.7824 73.7053 66.6637 71.6807 67.7967 70.5419C68.6779 69.6561 69.9368 60.1657 71.8252 59.28C73.4618 58.9003 82.652 60.2923 82.652 60.2923Z" fill="#FBBC98"/>
<path d="M62.8884 86.8656L62.7625 92.6864C62.7625 93.1925 63.0143 93.5721 63.6437 93.5721C64.2732 93.5721 64.6509 93.5721 65.7839 93.066C68.4276 92.0537 74.8481 88.5106 75.6035 87.8779C75.6035 87.8779 75.7294 87.8779 75.7294 87.7514C75.8553 87.4983 76.7365 86.2329 78.6249 86.3595C81.0168 86.486 81.5204 87.1187 81.2686 87.7514C81.1427 88.5106 80.7651 88.5106 80.7651 88.5106L81.0168 89.0168C81.0168 89.0168 80.7651 89.776 79.632 89.776C78.6249 89.776 77.2401 89.2698 76.9883 89.6494C76.7365 89.9025 66.4133 96.7356 64.0214 98.3806C63.7696 98.5071 63.266 98.6337 62.8884 98.8867C61.3777 99.1398 57.7268 99.7725 57.3491 97.2417C56.5937 94.0783 56.5938 87.1187 56.5938 87.1187L62.8884 86.8656Z" fill="#FBBE9B"/>
<path d="M62.8884 76.3626C63.1401 76.2361 63.6437 76.3626 63.6437 76.6157V87.2449C63.6437 87.498 63.5178 87.7511 63.1401 87.7511C62.7625 87.7511 62.133 87.7511 61 87.7511C59.2375 87.7511 57.7268 87.7511 56.8455 87.7511C56.5938 87.7511 56.5938 87.6245 56.5938 87.498L56.7196 80.1588C56.7196 80.0322 56.7196 79.9057 56.8455 79.9057L62.8884 76.3626Z" fill="#0054A3"/>
<path d="M50.6754 81.0447C49.7942 77.7547 55.7111 73.0728 55.7111 73.0728C55.7111 73.0728 58.4808 72.0604 58.9843 68.7705C59.4879 65.4805 62.6352 64.4682 64.02 63.3293C65.4048 62.1905 66.412 59.2801 66.412 59.2801L66.5379 58.5209C66.5379 58.5209 68.9298 48.1447 76.861 50.802C76.861 50.802 80.5119 52.194 82.0226 54.9778C82.0226 54.9778 87.3101 55.8636 86.1771 60.0393C85.1699 64.2151 82.6521 61.6843 82.6521 61.6843C82.6521 61.6843 81.6449 59.5332 80.5119 60.9251C79.3789 62.4435 76.7351 63.4559 75.9798 61.9374C75.0985 60.4189 73.4619 59.5332 73.0843 61.6843V62.6966C73.0843 62.6966 69.0557 67.7581 68.8039 69.4031C68.3004 71.1747 67.2932 73.7054 65.2789 74.7178C63.3906 75.8566 61.2504 80.2854 60.2433 82.8162C58.9843 85.4735 51.6826 86.1062 50.6754 81.0447Z" fill="#1F1952"/>
<path d="M90.835 81.2983L101.158 81.4249L88.3171 95.8502L77.7422 95.3441L90.835 81.2983Z" fill="#1C164F"/>
<path d="M91.463 91.7998C91.463 91.7998 92.4701 93.6979 91.5889 94.3306C90.5817 94.8367 89.7005 95.0898 89.1969 94.4571C88.8193 93.951 88.4416 92.306 89.071 92.559C89.5746 92.559 89.8264 92.6856 89.8264 92.6856V92.1794C89.8264 92.0529 89.8264 91.9264 89.9523 91.9264C90.4559 91.5467 91.3371 91.1671 91.463 91.7998Z" fill="#FBBE9B"/>
<path d="M73.2053 101.164L76.1008 101.038V182.655L69.6803 182.908L66.2812 129.382L73.2053 101.164Z" fill="#DE051F"/>
<path d="M58.9875 101.291C58.9875 101.291 58.8617 104.074 58.7358 105.34C58.6099 106.099 54.7072 112.426 57.7286 120.271C57.7286 120.398 57.7286 120.524 57.8545 120.777C57.8545 122.549 58.3581 133.178 56.2179 138.619L44.7617 176.328L49.1679 179.491C49.1679 179.491 64.275 146.844 64.6527 145.326C65.0304 143.807 74.9759 111.793 73.591 102.936L73.3393 101.291H58.9875Z" fill="#EE384E"/>
<path d="M76.1041 182.655C76.1041 182.655 80.1326 184.806 81.8951 185.313C83.28 185.566 83.5317 186.704 83.6576 187.084C83.6576 187.211 83.6576 187.337 83.5317 187.337H69.6836V182.782L76.1041 182.655Z" fill="#221D56"/>
<path d="M49.0378 179.112C49.0378 179.112 50.1708 182.402 52.6886 184.426C55.2065 186.324 52.6886 187.716 52.6886 187.716L42.3655 181.263C42.2396 181.01 41.6101 179.871 42.3655 178.859C43.1208 177.72 44.7574 175.948 44.7574 175.948L49.0378 179.112Z" fill="#221D56"/>
<path d="M190.399 177.576C190.399 177.576 193.935 177.753 196.586 177.753C199.149 177.753 203.303 178.283 203.303 178.283C203.303 178.283 204.364 178.283 204.452 179.609C204.541 180.935 204.541 181.465 204.541 181.465C204.541 181.465 204.629 183.056 203.392 183.056C202.154 183.056 194.2 183.94 192.432 183.94C190.664 183.94 189.339 184.293 189.339 183.056C189.25 181.818 189.162 177.488 190.399 177.576Z" fill="#160856"/>
<path d="M193.321 139.836C193.321 139.836 195.619 152.652 195.796 156.099C195.973 159.457 196.326 162.109 194.117 163.435C191.907 164.76 188.195 165.998 188.195 165.998L183.688 143.018V140.366L193.321 139.836Z" fill="#FDBD97"/>
<path d="M153.985 139.04C153.985 139.04 152.747 144.873 152.394 147.79C152.04 150.707 151.245 156.452 151.156 157.778C151.068 159.103 150.891 161.313 153.277 163.081C155.664 164.76 158.315 165.732 158.315 165.732L163.265 139.04H153.985Z" fill="#FDBD97"/>
<path d="M171.578 120.568C171.578 120.568 171.578 123.22 170.429 124.369C169.28 125.518 167.777 127.462 167.777 127.462C167.777 127.462 170.429 131.705 175.82 131.086C181.123 130.556 182.096 126.667 182.096 126.667C182.096 126.667 177.058 125.96 176.439 121.187C175.909 116.414 175.113 116.414 175.113 116.414L171.578 120.568Z" fill="#FDAE7D"/>
<path d="M167.684 109.962C167.684 109.962 167.86 116.061 170.777 120.833C173.605 125.606 177.052 122.955 178.466 120.48C179.792 118.005 183.416 109.962 182.709 107.841C181.913 105.72 171.396 104.748 171.396 104.748L167.684 109.962Z" fill="#FDBD97"/>
<path d="M181.205 113.409C181.205 113.409 182.707 112.26 182.707 113.409C182.707 114.558 181.912 116.237 181.028 116.503C180.056 116.679 180.233 116.149 180.498 115.354C180.675 114.558 181.205 113.409 181.205 113.409Z" fill="#FDBD97"/>
<path d="M168.132 115.884C168.574 116.061 169.016 116.149 169.016 115.53C169.016 114.381 168.221 112.702 167.337 112.437C166.364 112.26 166.541 112.79 166.806 113.586C166.895 113.851 166.983 114.116 167.072 114.47C167.248 115 167.779 115.707 168.132 115.884Z" fill="#FDBD97"/>
<path d="M167.951 112.79L167.774 110.846C167.774 110.846 169.454 111.023 171.398 109.167C171.398 109.167 175.11 110.05 178.115 109.697C181.297 109.432 182.623 108.548 182.623 108.548C182.623 108.548 182.093 112.172 181.562 113.232C181.562 113.232 183.065 112.614 183.683 110.846C184.214 109.167 184.125 107.31 184.125 107.31C184.125 107.31 186.247 105.631 186.777 103.687C186.777 103.687 181.032 102.361 179.353 101.212C177.673 100.063 176.701 99.2675 176.701 99.2675C176.701 99.2675 174.05 97.765 171.398 99.7978C168.747 101.919 166.979 103.068 166.979 106.692C166.89 106.78 164.416 110.227 167.951 112.79Z" fill="#160856"/>
<path d="M168.392 125.517C168.392 125.517 164.768 125.075 162.736 125.605C160.791 126.136 160.172 125.782 160.703 127.285C161.233 128.787 163.885 135.77 162.647 140.101C161.41 144.431 159.73 166.881 159.73 166.881C159.73 166.881 173.342 167.411 178.556 167.676C183.859 167.942 187.748 166.969 187.748 166.969C187.748 166.969 188.897 157.335 187.748 153.093C186.599 148.939 185.097 141.78 185.097 141.78C185.097 141.78 184.125 131.969 185.45 129.583C186.776 127.196 187.748 127.108 186.069 126.489C184.39 125.871 182.534 125.34 181.119 125.34C179.794 125.34 179.087 125.34 178.291 126.136C177.496 126.931 175.905 128.522 173.695 128.169C171.486 127.815 169.806 126.313 169.806 126.313C169.806 126.313 169.011 125.605 168.392 125.517Z" fill="#0181F7"/>
<path d="M161.943 126.313C161.943 126.313 160.706 125.695 158.85 127.285C156.817 129.053 155.403 132.765 154.696 135.063C153.989 137.361 153.547 139.659 153.547 139.659C153.547 139.659 156.11 140.985 158.85 141.073C161.501 141.162 163.269 141.339 163.269 141.339C163.269 141.339 164.418 134.356 164.153 131.263C163.799 128.169 163.358 127.109 161.943 126.313Z" fill="#023E9F"/>
<path d="M184.393 128.876C184.393 128.876 185.453 125.96 187.84 127.285C190.226 128.611 191.994 133.738 192.612 135.328C193.143 136.919 193.85 140.19 193.85 140.19C193.85 140.19 191.021 141.427 188.547 141.604C186.16 141.78 184.481 141.957 184.481 141.957C184.481 141.957 183.509 135.594 183.686 133.119C183.862 130.644 184.393 128.876 184.393 128.876Z" fill="#023E9F"/>
<path d="M164.68 168.914H182.975L173.518 171.831L164.68 168.914Z" fill="#BA0A28"/>
<path d="M148.419 163.7C148.419 163.7 181.828 174.129 189.164 176.692C189.164 176.692 191.55 177.311 191.638 178.548C191.727 179.786 191.462 181.554 191.197 182.437C190.931 183.321 190.136 184.028 188.81 183.763C187.484 183.498 157.522 177.488 145.679 174.394L142.32 173.334C142.32 173.334 139.845 172.185 140.287 169.18C140.729 166.175 142.939 163.435 144.53 163.258C146.121 163.17 148.419 163.7 148.419 163.7Z" fill="#EC384E"/>
<path d="M145.413 178.548C145.413 178.548 149.567 177.841 152.13 177.753C154.605 177.665 157.963 177.399 158.494 177.753C159.024 178.106 159.466 182.968 159.466 182.968C159.466 182.968 159.908 184.293 156.637 184.028C153.367 183.763 145.766 183.498 145.766 183.498C145.766 183.498 144.087 183.409 143.999 181.907C143.91 180.404 144.175 179.697 144.175 179.697C144.175 179.697 144.264 178.725 145.413 178.548Z" fill="#160856"/>
<path d="M165.3 174.306C165.3 174.306 185.54 168.119 192.788 165.998C200.035 163.877 204.013 161.932 206.399 165.291C208.697 168.65 208.52 172.45 205.869 173.511C203.217 174.571 182.093 179.521 173.343 181.288C164.593 183.056 158.848 184.205 158.053 183.852C157.257 183.498 156.373 180.935 156.55 179.521C156.727 178.107 156.815 177.576 158.495 176.869C160.174 176.074 165.3 174.306 165.3 174.306Z" fill="#DB061F"/>
<path d="M163.004 144.785H187.398C187.398 144.785 188.724 144.608 188.724 146.376C188.724 148.144 188.724 167.412 188.724 167.412C188.724 167.412 188.812 168.826 187.751 168.826C186.691 168.826 159.115 168.826 159.115 168.826C159.115 168.826 157.966 169.179 157.966 167.235C157.966 165.29 157.966 145.846 157.966 145.846C157.966 145.846 157.878 144.785 159.292 144.785C160.617 144.785 163.004 144.785 163.004 144.785Z" fill="#0064B5"/>
<path d="M174.846 156.717L173.078 155.303L171.664 157.071L173.432 158.485L174.846 156.717Z" fill="#579CD2"/>
</svg>
