<svg width="250" height="190" viewBox="0 0 250 190" fill="none" xmlns="http://www.w3.org/2000/svg">
<path d="M28.2894 32.6316C28.2894 32.6316 137.447 3.91884 136.389 26.9378C136.389 26.9378 138.504 40.7655 124.351 46.1339C110.198 51.5023 121.423 54.8372 128.337 52.153C135.251 49.4688 185.437 24.823 194.221 30.1914C200.729 34.177 201.379 39.7081 201.298 42.3923C201.217 44.4258 202.925 46.2966 205.284 46.7033C207.724 47.11 211.628 46.7033 217.647 44.3444C232.614 38.488 243.757 41.6602 245.953 46.7846C248.068 51.909 249.125 64.9233 227.001 77.4495C204.877 89.9757 236.599 102.339 236.599 102.339C236.599 102.339 241.968 105.512 235.786 107.952C229.685 110.392 221.877 113.32 223.504 118.444C225.13 123.569 249.939 148.052 235.542 156.349C221.145 164.645 214.719 168.712 195.523 168.712C176.327 168.712 41.7917 168.712 41.7917 168.712C41.7917 168.712 37.5621 167.573 37.8061 162.205C38.0501 156.837 34.3085 157.243 34.3085 157.243C34.3085 157.243 13.7297 152.119 19.0981 137.722C24.4665 123.325 34.0645 106.162 28.4521 105.674C22.8397 105.186 6.57185 107.708 3.39961 97.8657C0.227385 88.0236 16.9833 70.2917 16.9833 70.2917C16.9833 70.2917 24.7105 59.3109 18.0407 53.9425C11.3709 48.5741 5.10774 41.5789 28.2894 32.6316Z" fill="#EDEDED"/>
<path d="M165.102 35.5534C165.102 35.5534 162.671 39.7039 166.466 39.7039C170.261 39.7039 172.218 40.7711 171.625 44.5659C171.032 48.3606 172.395 50.673 174.589 51.2066C176.783 51.7403 180.934 52.096 179.807 57.1952C178.74 62.2943 177.317 72.3148 171.565 71.7811C165.873 71.2475 160.418 64.251 161.248 60.397C162.078 56.543 164.865 54.4677 161.841 51.3252C158.817 48.1827 156.209 51.4438 154.489 47.1747C152.77 42.9057 150.576 38.7552 155.912 35.1383C160.715 31.9365 165.873 32.9445 165.102 35.5534Z" stroke="#DB061F" stroke-width="1.17671" stroke-miterlimit="10"/>
<path d="M161.605 39.9409C161.605 39.9409 172.397 66.8004 176.725 72.9669" stroke="#DB061F" stroke-width="1.17671" stroke-miterlimit="10"/>
<path d="M175.123 37.3913C175.123 37.3913 184.195 36.5019 183.187 41.4232C182.12 46.4038 184.077 47.2932 186.092 48.1825C188.108 49.0126 192.377 49.0126 191.014 54.2304C189.65 59.4481 186.923 61.5234 188.049 64.1322C189.176 66.7411 190.302 78.7775 185.559 77.9474C180.815 77.1766 178.207 70.773 177.851 67.8084C177.495 64.8437 174.115 62.7092 171.151 61.7605C168.186 60.8118 165.459 57.4322 168.542 54.5861C171.625 51.7401 171.922 47.1746 169.906 44.9807C167.949 42.7869 169.016 38.1028 175.123 37.3913Z" fill="#FABC43"/>
<path d="M176.367 43.5581L184.965 82.1576" stroke="white" stroke-width="1.17671" stroke-miterlimit="10" stroke-linecap="round" stroke-linejoin="round"/>
<path d="M186.033 52.2739L179.807 59.2112L171.328 56.2465" stroke="white" stroke-width="1.17671" stroke-miterlimit="10" stroke-linecap="round" stroke-linejoin="round"/>
<path d="M201.981 127.457C212.298 131.074 223.564 125.619 227.121 115.302C230.738 104.985 225.283 93.7194 214.966 90.1618C204.649 86.545 193.384 91.9999 189.826 102.317C186.269 112.634 191.724 123.899 201.981 127.457Z" stroke="#DB061F" stroke-width="0.588356" stroke-miterlimit="10" stroke-dasharray="3.53 3.53"/>
<path d="M226.883 112.337C228.603 112.93 230.5 112.041 231.152 110.262C231.745 108.543 230.856 106.645 229.077 105.993C227.358 105.4 225.46 106.289 224.808 108.068C224.215 109.788 225.104 111.685 226.883 112.337Z" fill="#003FAE"/>
<path d="M227.596 107.653L229.138 109.788L226.707 110.203L227.596 107.653Z" fill="white"/>
<path d="M29.0855 85.4774C31.8129 86.9004 36.4377 85.4181 38.513 81.5641C40.5882 77.7101 44.798 79.5481 46.5175 82.3349C48.2962 85.1216 51.3202 87.9677 54.4627 87.6119C57.6052 87.1969 64.7796 88.1456 66.8548 92.8297C68.93 97.4545 56.36 99.4704 53.3954 98.9961C50.4308 98.5218 49.0077 101.842 44.0272 104.629C39.1059 107.416 37.9793 103.087 36.5563 101.249C35.1333 99.4111 33.7103 97.6917 28.9076 100.063C24.1049 102.435 22.6226 92.9482 22.6226 92.9482C21.8518 86.3668 26.358 83.9951 29.0855 85.4774Z" fill="#023E9F"/>
<path d="M71.0069 90.9321L29.3242 92.4144" stroke="white" stroke-width="0.588356" stroke-miterlimit="10" stroke-linecap="round" stroke-linejoin="round"/>
<path d="M41.0014 83.9355L46.2784 91.8215L40.8828 100.004" stroke="white" stroke-width="0.588356" stroke-miterlimit="10" stroke-linecap="round" stroke-linejoin="round"/>
<path d="M40.4729 68.1043C40.4136 71.1282 36.026 73.2627 44.5641 76.9981C53.1022 80.7336 42.1331 83.2239 51.6199 90.6947C61.1067 98.2249 66.2652 86.6628 67.3917 79.4291C68.5776 72.2547 60.6324 74.745 56.9562 71.4839C53.3394 68.1636 56.9562 66.5034 56.4819 62.8865C56.0669 59.2697 48.7739 59.8626 46.2836 60.4555C43.7933 61.0484 44.3269 58.4989 41.7774 56.305C39.2278 54.1112 33.9507 56.305 33.3578 60.0998C32.7649 63.8945 37.3304 64.9618 37.3304 64.9618C37.3304 64.9618 40.4729 65.0211 40.4729 68.1043Z" fill="#EC384E"/>
<path d="M71.5407 91.7619C71.5407 91.7619 68.5761 91.4062 60.038 83.9946C51.4999 76.583 45.2148 65.8511 45.2148 65.8511" stroke="white" stroke-width="0.588356" stroke-miterlimit="10" stroke-linecap="round" stroke-linejoin="round"/>
<path d="M30.2734 74.8638C42.6656 80.5559 56.0064 94.9047 56.0064 94.9047" stroke="#FABC43" stroke-width="0.588356" stroke-miterlimit="10"/>
<path d="M31.5767 75.5161C25.5881 77.4727 22.0898 72.5515 22.0898 72.5515C29.2049 70.7134 31.5767 75.5161 31.5767 75.5161Z" stroke="#FABC43" stroke-width="0.588356" stroke-miterlimit="10"/>
<path d="M31.5195 83.8169C36.2036 79.0143 41.1249 81.5638 41.1249 81.5638C35.1957 87.3745 31.5195 83.8169 31.5195 83.8169Z" stroke="#FABC43" stroke-width="0.588356" stroke-miterlimit="10"/>
<path d="M41.2422 90.3982C46.7564 86.6035 51.0847 90.0425 51.0847 90.0425C44.1475 94.608 41.2422 90.3982 41.2422 90.3982Z" stroke="#FABC43" stroke-width="0.588356" stroke-miterlimit="10"/>
<path d="M38.5139 72.0176C36.498 78.3619 41.0635 81.5637 41.0635 81.5637C43.3759 73.5592 38.5139 72.0176 38.5139 72.0176Z" stroke="#FABC43" stroke-width="0.588356" stroke-miterlimit="10"/>
<path d="M211.879 167.361H58.8446C57.303 167.361 56.1172 166.115 56.1172 164.633V62.4721C56.1172 60.9305 57.3623 59.7446 58.8446 59.7446H211.938C213.48 59.7446 214.665 60.9898 214.665 62.4721V164.633C214.665 166.115 213.42 167.361 211.879 167.361Z" fill="#0064B5"/>
<path d="M211.113 63.48H59.6797V166.293H211.113V63.48Z" fill="#DAE6FF"/>
<path d="M230.856 170.088H39.9338C38.4515 170.088 37.2656 168.902 37.2656 167.42V165.878C37.2656 164.396 38.4515 163.21 39.9338 163.21H230.856C232.338 163.21 233.524 164.396 233.524 165.878V167.42C233.524 168.902 232.338 170.088 230.856 170.088Z" fill="#0064B5"/>
<path d="M211.113 63.48H59.6797V163.566H211.113V63.48Z" fill="white"/>
<path d="M193.272 67.6899H95.3203V159.831H193.272V67.6899Z" fill="#E7ECF0"/>
<path d="M165.402 154.435H146.962C146.903 154.435 146.844 154.375 146.844 154.316V153.427C146.844 153.367 146.903 153.308 146.962 153.308H165.402C165.462 153.308 165.521 153.367 165.521 153.427V154.316C165.58 154.375 165.462 154.435 165.402 154.435Z" fill="white"/>
<path d="M170.027 151.648H146.962C146.903 151.648 146.844 151.589 146.844 151.53V150.581C146.844 150.522 146.903 150.462 146.962 150.462H170.027C170.086 150.462 170.146 150.522 170.146 150.581V151.53C170.205 151.589 170.146 151.648 170.027 151.648Z" fill="white"/>
<path d="M184.794 85.2998H103.859V142.221H184.794V85.2998Z" fill="white"/>
<rect x="108.457" y="94.9771" width="23.9265" height="2.21541" rx="1.10771" fill="#DCE8F4"/>
<rect x="108.457" y="100.737" width="23.9265" height="2.21541" rx="1.10771" fill="#DCE8F4"/>
<rect x="108.457" y="106.498" width="57.6008" height="2.21541" rx="1.10771" fill="#DCE8F4"/>
<rect x="108.457" y="112.258" width="57.6008" height="2.21541" rx="1.10771" fill="#DCE8F4"/>
<path d="M184.871 80.4917H103.914V85.3868L184.871 85.7633V80.4917Z" fill="#0064B5"/>
<path d="M238.524 170.745H12.0863C11.9501 170.745 11.8594 170.609 11.8594 170.404V170.2C11.8594 169.995 11.9501 169.859 12.0863 169.859H238.479C238.615 169.859 238.706 169.995 238.706 170.2V170.404C238.751 170.609 238.661 170.745 238.524 170.745Z" fill="#DCE8F4"/>
<path d="M203.644 84.826C203.644 84.7667 203.644 84.5889 203.644 84.5889C203.585 84.2924 203.229 83.9366 202.992 83.6995C202.399 83.2844 201.806 83.0473 201.213 83.1065C200.976 83.1065 200.798 83.1658 200.561 83.3437C198.189 84.2331 197.24 83.1065 197.24 83.1065C197.24 83.1065 195.106 81.3278 194.216 83.3437C193.327 85.3597 194.928 86.6048 195.521 86.4269C196.114 86.3676 198.13 86.1898 198.604 87.0792C199.197 87.9685 200.324 88.6208 200.739 88.4429C201.035 88.3836 201.154 88.8579 201.154 89.0951C201.154 89.5101 200.916 89.9845 200.561 90.281C200.501 90.3402 200.324 90.5181 200.324 90.5774C200.324 90.6367 200.324 90.6367 200.324 90.8146C200.324 91.4075 200.383 91.7633 200.561 92.3562C200.62 92.7712 200.857 94.3128 201.628 94.0757C202.695 93.8385 205.185 92.7119 204.948 88.7393C204.948 88.7393 205.186 87.1977 204.237 86.3676C204 86.1305 203.525 85.9526 203.525 85.4783C203.288 85.419 203.525 85.0632 203.644 84.826Z" fill="#1F1954"/>
<path d="M195.938 85.7154C195.938 85.7154 193.803 88.3836 194.574 92.7712C194.574 92.7712 195.167 94.55 196.353 94.7279C197.42 94.7872 197.005 96.0323 197.005 96.3288C196.768 97.2181 196.709 96.7438 196.353 97.5146C196.116 98.2261 197.242 99.6491 198.31 99.6491C199.377 99.6491 201.333 98.3447 201.63 97.6925C201.926 97.0403 201.867 95.0243 201.215 93.7199C200.563 92.4155 200.978 90.3995 200.978 90.3995C200.978 90.3995 203.231 88.68 201.393 87.7313C199.733 87.0198 196.353 85.4189 195.938 85.7154Z" fill="#F9BC97"/>
<path d="M189.353 102.732L186.448 106.705C186.448 106.705 186.033 107.416 185.143 107.12C183.839 106.705 178.799 104.511 178.799 104.511C178.799 104.511 178.206 102.91 177.495 102.495C176.783 102.08 173.937 101.843 174.174 104.037C174.411 106.231 175.775 106.408 176.427 106.29C177.079 106.29 180.993 109.017 181.349 109.314C181.764 109.551 185.618 111.448 185.618 111.448C185.618 111.448 186.981 112.101 188.286 110.737C189.59 109.373 192.97 105.816 192.97 105.816L191.369 103.562L189.353 102.732Z" fill="#F9BC97"/>
<path d="M194.633 98.937C194.633 98.937 190.898 100.716 189.712 102.317L189.297 102.732L192.558 105.459L194.633 98.937Z" fill="#F39D1D"/>
<path d="M201.808 96.0918C201.808 96.329 201.808 96.3883 201.749 96.6847C201.749 96.9219 201.689 96.9812 201.511 97.2776C201.333 97.5148 201.274 97.6927 201.096 97.8706C200.859 98.1077 200.681 98.2856 200.444 98.4635C200.207 98.7007 199.851 98.76 199.555 98.8785C199.258 98.9378 198.843 99.1157 198.487 99.1157C198.428 99.1157 198.25 99.1157 198.191 99.1157C198.132 99.1157 197.954 99.0564 197.895 98.8785C197.657 98.8193 197.479 98.5821 197.242 98.2856C196.946 98.0484 196.649 97.6927 196.353 97.3962C196.353 97.3962 193.092 98.5821 192.321 105.282L192.262 120.461L208.567 120.046L204.18 98.76C204.002 98.4042 202.638 96.5661 201.808 96.0918Z" fill="#FABC43"/>
<path d="M208.147 105.4C208.147 105.4 206.605 98.1074 203.759 98.3445C200.854 98.5817 201.803 104.392 202.455 106.29L208.147 105.4Z" fill="#F39D1D"/>
<path d="M192.262 120.283L195.582 166.472L199.614 166.709L200.918 140.561L199.377 120.165L192.262 120.283Z" fill="#0053A1"/>
<path d="M197.059 120.105C197.059 120.105 197.948 138.605 201.09 144.712C204.352 150.76 208.383 162.855 210.992 164.99L214.372 162.737C214.372 162.737 207.316 143.111 207.672 137.537L208.561 119.868L197.059 120.105Z" fill="#0064DF"/>
<path d="M202.4 106.29C202.4 106.29 205.009 110.974 205.009 112.041C205.009 113.108 205.424 116.725 205.009 120.283C205.009 120.283 203.645 125.797 203.23 126.271L202.163 127.576C202.163 127.576 201.51 128.524 202.815 127.991C202.815 127.991 203.467 128.287 203.111 128.643C202.815 128.94 202.044 128.94 201.807 129.71C201.807 129.71 200.621 130.125 201.51 130.778C201.51 130.778 202.578 131.667 203.111 131.015C203.111 131.015 204.06 131.015 204.06 130.363C204.06 130.363 204.949 129.948 205.127 128.347C205.364 126.627 206.491 125.026 206.847 124.374C206.847 124.374 209.1 116.844 209.1 116.488C209.1 116.251 209.1 115.895 209.1 115.777C209.1 115.184 209.1 114.709 209.1 114.176C209.1 113.523 209.1 112.871 209.1 112.219C209.1 111.567 209.041 110.915 208.863 110.262C208.803 109.61 208.566 109.077 208.566 108.543C208.566 108.306 208.566 107.95 208.507 107.831C208.507 107.238 208.448 106.764 208.27 106.112C208.27 106.053 208.211 105.46 208.211 105.4L202.4 106.29Z" fill="#F9BC97"/>
<path d="M199.671 166.709L195.639 166.413C195.639 166.413 192.378 168.784 191.251 169.021C189.947 169.259 189.472 169.97 190.362 170.089C191.251 170.148 199.019 170.148 199.019 170.148C199.019 170.148 199.908 170.029 199.671 166.709Z" fill="#201A56"/>
<path d="M210.937 164.752C210.937 164.752 209.336 167.835 208.684 168.488C208.032 169.318 207.083 171.097 208.684 170.148C210.048 169.318 214.673 166.412 215.562 165.76C215.621 165.76 215.621 165.523 215.621 165.523C215.621 165.464 215.621 165.286 215.621 165.167C215.621 164.811 215.384 164.041 214.969 163.566C214.317 162.618 214.317 162.618 214.317 162.618L210.937 164.752Z" fill="#201A56"/>
<path d="M70.3007 166.827C70.3007 166.827 72.6724 166.946 74.4512 166.946C76.1707 166.946 78.9574 167.301 78.9574 167.301C78.9574 167.301 79.6689 167.301 79.7282 168.191C79.7875 169.08 79.7875 169.436 79.7875 169.436C79.7875 169.436 79.8468 170.503 79.0167 170.503C78.1866 170.503 72.8503 171.096 71.6645 171.096C70.4786 171.096 69.5892 171.333 69.5892 170.503C69.5299 169.673 69.4706 166.768 70.3007 166.827Z" fill="#160856"/>
<path d="M72.2559 141.509C72.2559 141.509 73.7975 150.107 73.916 152.419C74.0346 154.672 74.2718 156.451 72.7895 157.34C71.3072 158.23 68.8169 159.06 68.8169 159.06L65.793 143.644V141.865L72.2559 141.509Z" fill="#FDBD97"/>
<path d="M45.8676 140.975C45.8676 140.975 45.0375 144.888 44.8003 146.845C44.5631 148.802 44.0295 152.656 43.9702 153.545C43.9109 154.435 43.7923 155.917 45.3932 157.103C46.9941 158.229 48.7729 158.881 48.7729 158.881L52.0933 140.975H45.8676Z" fill="#FDBD97"/>
<path d="M57.6707 128.583C57.6707 128.583 57.6707 130.362 56.8999 131.133C56.1291 131.904 55.1211 133.208 55.1211 133.208C55.1211 133.208 56.8999 136.054 60.5167 135.639C64.0743 135.283 64.7265 132.674 64.7265 132.674C64.7265 132.674 61.3468 132.2 60.9318 128.998C60.576 125.796 60.0424 125.796 60.0424 125.796L57.6707 128.583Z" fill="#FDAE7D"/>
<path d="M55.0586 121.468C55.0586 121.468 55.1772 125.56 57.1338 128.761C59.0312 131.963 61.3436 130.184 62.2923 128.524C63.1817 126.864 65.6127 121.468 65.1383 120.045C64.6047 118.622 57.5489 117.97 57.5489 117.97L55.0586 121.468Z" fill="#FDBD97"/>
<path d="M64.1339 123.78C64.1339 123.78 65.1419 123.009 65.1419 123.78C65.1419 124.551 64.6083 125.677 64.0153 125.855C63.3631 125.974 63.4817 125.618 63.6596 125.085C63.7782 124.551 64.1339 123.78 64.1339 123.78Z" fill="#FDBD97"/>
<path d="M55.3576 125.441C55.654 125.559 55.9505 125.619 55.9505 125.204C55.9505 124.433 55.4168 123.306 54.8239 123.128C54.1717 123.01 54.2903 123.365 54.4682 123.899C54.5275 124.077 54.5868 124.255 54.646 124.492C54.7646 124.848 55.1204 125.322 55.3576 125.441Z" fill="#FDBD97"/>
<path d="M55.237 123.365L55.1185 122.061C55.1185 122.061 56.245 122.18 57.5495 120.934C57.5495 120.934 60.0397 121.527 62.0557 121.29C64.1902 121.112 65.0796 120.519 65.0796 120.519C65.0796 120.519 64.7239 122.95 64.3681 123.662C64.3681 123.662 65.3761 123.247 65.7911 122.061C66.1469 120.934 66.0876 119.689 66.0876 119.689C66.0876 119.689 67.5106 118.563 67.8664 117.258C67.8664 117.258 64.0123 116.369 62.8858 115.598C61.7592 114.827 61.107 114.294 61.107 114.294C61.107 114.294 59.3282 113.286 57.5495 114.649C55.7707 116.072 54.5848 116.843 54.5848 119.274C54.5255 119.334 52.8653 121.646 55.237 123.365Z" fill="#160856"/>
<path d="M55.5372 131.904C55.5372 131.904 53.1062 131.607 51.7425 131.963C50.4381 132.319 50.023 132.082 50.3788 133.09C50.7345 134.098 52.5133 138.782 51.6832 141.687C50.8531 144.592 49.7266 159.653 49.7266 159.653C49.7266 159.653 58.8576 160.008 62.3559 160.186C65.9134 160.364 68.5223 159.712 68.5223 159.712C68.5223 159.712 69.2931 153.249 68.5223 150.403C67.7515 147.616 66.7435 142.814 66.7435 142.814C66.7435 142.814 66.0913 136.232 66.9807 134.631C67.8701 133.03 68.5223 132.971 67.3957 132.556C66.2692 132.141 65.024 131.785 64.0754 131.785C63.186 131.785 62.7116 131.785 62.178 132.319C61.6444 132.852 60.5771 133.92 59.0948 133.683C57.6125 133.445 56.4859 132.437 56.4859 132.437C56.4859 132.437 55.9523 131.963 55.5372 131.904Z" fill="#0181F7"/>
<path d="M51.207 132.437C51.207 132.437 50.3769 132.022 49.1318 133.09C47.768 134.275 46.8194 136.766 46.345 138.307C45.8707 139.849 45.5742 141.391 45.5742 141.391C45.5742 141.391 47.2937 142.28 49.1318 142.339C50.9105 142.398 52.0964 142.517 52.0964 142.517C52.0964 142.517 52.8672 137.833 52.6893 135.758C52.4522 133.682 52.1557 132.971 51.207 132.437Z" fill="#023E9F"/>
<path d="M66.27 134.156C66.27 134.156 66.9815 132.2 68.5824 133.089C70.1833 133.979 71.3692 137.418 71.7842 138.485C72.14 139.552 72.6143 141.746 72.6143 141.746C72.6143 141.746 70.7169 142.576 69.0568 142.695C67.4559 142.813 66.3293 142.932 66.3293 142.932C66.3293 142.932 65.6771 138.663 65.7957 137.003C65.9142 135.342 66.27 134.156 66.27 134.156Z" fill="#023E9F"/>
<path d="M53.043 161.016H65.3165L58.9722 162.973L53.043 161.016Z" fill="#BA0A28"/>
<path d="M42.1349 157.518C42.1349 157.518 64.5475 164.515 69.4688 166.234C69.4688 166.234 71.0697 166.65 71.129 167.48C71.1882 168.31 71.0104 169.496 70.8325 170.088C70.6546 170.681 70.121 171.156 69.2316 170.978C68.3422 170.8 48.242 166.768 40.2968 164.693L38.0437 163.981C38.0437 163.981 36.3835 163.211 36.68 161.195C36.9764 159.179 38.4588 157.341 39.526 157.222C40.5933 157.163 42.1349 157.518 42.1349 157.518Z" fill="#EC384E"/>
<path d="M40.117 167.479C40.117 167.479 42.9038 167.005 44.6233 166.946C46.2835 166.886 48.5366 166.708 48.8923 166.946C49.2481 167.183 49.5445 170.444 49.5445 170.444C49.5445 170.444 49.841 171.333 47.6472 171.155C45.4534 170.977 40.3542 170.8 40.3542 170.8C40.3542 170.8 39.2276 170.74 39.1684 169.732C39.1091 168.724 39.2869 168.25 39.2869 168.25C39.2869 168.25 39.3462 167.598 40.117 167.479Z" fill="#160856"/>
<path d="M53.4595 164.633C53.4595 164.633 67.0375 160.483 71.8995 159.06C76.7615 157.637 79.4296 156.332 81.0305 158.585C82.5721 160.839 82.4535 163.388 80.6748 164.1C78.896 164.811 64.7251 168.132 58.8551 169.317C52.9851 170.503 49.1311 171.274 48.5975 171.037C48.0639 170.8 47.4709 169.08 47.5895 168.132C47.7081 167.183 47.7674 166.827 48.894 166.353C50.0205 165.819 53.4595 164.633 53.4595 164.633Z" fill="#DB061F"/>
<path d="M51.9195 144.829H68.2842C68.2842 144.829 69.1736 144.711 69.1736 145.897C69.1736 147.083 69.1736 160.008 69.1736 160.008C69.1736 160.008 69.2329 160.957 68.5214 160.957C67.8099 160.957 49.3106 160.957 49.3106 160.957C49.3106 160.957 48.5398 161.194 48.5398 159.89C48.5398 158.585 48.5398 145.541 48.5398 145.541C48.5398 145.541 48.4805 144.829 49.4292 144.829C50.3186 144.829 51.9195 144.829 51.9195 144.829Z" fill="#0064B5"/>
<path d="M59.8611 152.834L58.6752 151.885L57.7266 153.071L58.9124 154.02L59.8611 152.834Z" fill="#579CD2"/>
<path d="M11.9279 147.497C11.9279 147.497 13.4695 146.845 13.3509 145.126C13.2324 143.347 12.343 142.102 14.181 142.635C16.0784 143.169 16.6713 143.347 18.0351 143.11C19.3988 142.813 20.5253 142.28 19.9324 143.999C19.3395 145.778 18.6873 147.201 20.1103 147.497C21.5333 147.794 23.0156 146.727 23.1935 149.454C23.3714 152.181 21.1776 155.324 17.5607 155.383C14.0032 155.502 12.4023 154.02 12.4023 154.02C12.4023 154.02 11.4536 152.656 12.9359 152.3C14.4182 151.944 15.9598 151.351 15.189 150.64C14.4182 149.928 11.9279 149.869 11.9279 149.869C11.9279 149.869 8.78541 149.335 11.9279 147.497Z" fill="#649CE8"/>
<path d="M28.2907 147.972C28.0536 146.193 28.2314 144.948 31.4925 144.474C34.7536 143.999 36.651 145.956 36.8289 147.972C37.0067 149.988 34.22 150.699 34.22 150.699C34.22 150.699 32.204 151.292 33.212 153.012C34.22 154.791 34.6943 156.451 32.3819 156.747C30.0695 156.984 27.5199 156.391 26.0969 155.443C24.6739 154.494 23.2509 152.122 24.8518 150.877C24.8518 150.877 25.3261 150.581 26.8677 150.462C28.4686 150.403 28.2907 147.972 28.2907 147.972Z" fill="#023E9F"/>
<path d="M16.8477 147.675C16.8477 147.675 19.5751 153.782 19.9309 157.933" stroke="#023E9F" stroke-width="0.588356" stroke-miterlimit="10"/>
<path d="M31.8472 148.683C31.8472 148.683 27.0445 155.798 25.918 158.17" stroke="#649CE8" stroke-width="0.588356" stroke-miterlimit="10"/>
<path d="M18.2142 157.458H29.1833C29.1833 157.458 30.3692 157.518 30.3099 159.178C30.2506 160.72 28.2939 160.364 27.2859 160.364C26.278 160.364 17.977 160.364 17.977 160.364C17.977 160.364 16.6133 160.601 16.6133 159.059C16.6726 157.577 17.1469 157.458 18.2142 157.458Z" fill="#0055A2"/>
<path d="M18.0312 160.364L19.6914 170.088H27.0437L28.2889 162.795L18.0312 160.364Z" fill="#0055A2"/>
<path d="M18.0312 160.364L28.2889 162.795L28.7039 160.364H18.0312Z" fill="#016AD3"/>
<path d="M22.7227 157.814C22.7227 157.814 23.2563 147.023 26.5174 140.264" stroke="#FABC43" stroke-width="0.588356" stroke-miterlimit="10"/>
<path d="M29.1841 136.41C29.1841 136.41 29.4213 139.73 26.2195 141.034C26.2195 141.034 25.508 138.188 29.1841 136.41Z" fill="#FABC43"/>
<path d="M24.3203 146.964C24.3203 146.964 25.5062 144.118 29.1823 144.533C29.1823 144.474 28.8858 147.32 24.3203 146.964Z" fill="#FABC43"/>
<path d="M23.1367 154.02C23.1367 154.02 23.7296 150.996 27.4058 150.699C27.4058 150.699 27.643 153.486 23.1367 154.02Z" fill="#FABC43"/>
<path d="M22.9557 154.079C22.9557 154.079 23.3707 151.055 20.0503 149.514C20.0503 149.454 18.8645 152.063 22.9557 154.079Z" fill="#FABC43"/>
<path d="M24.3786 146.905C24.3786 146.905 25.2087 143.94 22.0662 141.983C22.0662 141.983 20.5246 144.414 24.3786 146.905Z" fill="#FABC43"/>
<path d="M215.977 40.5337L212.656 41.4824L213.605 44.8028L216.925 43.8541L215.977 40.5337Z" fill="#EB3B4E"/>
</svg>
