<svg width="222" height="175" viewBox="0 0 222 175" fill="none" xmlns="http://www.w3.org/2000/svg">
<rect y="171" width="222" height="4" rx="2" fill="#DBDBDB"/>
<path fill-rule="evenodd" clip-rule="evenodd" d="M77.5528 171.082H190.399C196.534 171.082 201.555 166.061 201.555 159.926V92.9897C201.555 89.5769 200.002 86.514 197.57 84.4621H197.604C196.376 83.4937 194.989 82.6277 193.641 81.7618C189.853 79.3216 158.576 61.3962 149.468 55.5647C136.824 47.4723 131.124 47.4637 118.484 55.5647C109.645 61.2299 78.0989 79.3216 74.3107 81.7618C72.967 82.6277 71.5806 83.4937 70.3477 84.4621H70.3818C67.9503 86.514 66.3975 89.5769 66.3975 92.9897V159.926C66.3975 166.061 71.4184 171.082 77.5528 171.082Z" fill="#022C70"/>
<path d="M89.0449 39.0479H184.233C188.376 39.0479 191.733 42.3996 191.733 46.541V140.892C191.733 147.944 185.96 153.714 178.911 153.714H88.7158C81.8137 153.538 76.2227 147.838 76.2227 140.896V51.8701C76.2228 44.8176 81.9924 39.048 89.0449 39.0479Z" fill="white" stroke="#0064B7"/>
<path fill-rule="evenodd" clip-rule="evenodd" d="M133.978 171.082H190.399C196.534 171.082 201.555 166.061 201.555 159.926V92.9896C201.555 92.7166 201.546 92.4436 201.525 92.1748C201.555 92.7208 201.742 99.4013 193.863 104.324C185.643 109.46 133.978 137.714 133.978 137.714C133.978 137.714 82.3095 109.465 74.0933 104.324C66.2142 99.4013 66.4019 92.7208 66.4317 92.1748C66.4104 92.4436 66.4019 92.7166 66.4019 92.9896V159.926C66.4019 166.061 71.4228 171.082 77.5572 171.082H133.978Z" fill="#0064B5"/>
<path fill-rule="evenodd" clip-rule="evenodd" d="M118.484 124.16C109.645 129.826 78.0989 147.917 74.3107 150.357C70.5226 152.798 66.3975 155.238 66.3975 159.926C66.3975 166.06 71.4184 171.081 77.5528 171.081H190.399C196.534 171.081 201.555 166.06 201.555 159.926C201.555 155.238 197.43 152.798 193.641 150.357C189.853 147.917 158.576 129.992 149.468 124.16C136.824 116.068 131.124 116.059 118.484 124.16Z" fill="#033E9F"/>
<path fill-rule="evenodd" clip-rule="evenodd" d="M88.4439 74.1001H182.776C183.275 74.1001 183.681 74.5054 183.681 75.0045C183.681 75.5036 183.275 75.9089 182.776 75.9089H88.4439C87.9448 75.9089 87.5396 75.5036 87.5396 75.0045C87.5396 74.5054 87.9448 74.1001 88.4439 74.1001Z" fill="#E8F0FD"/>
<path fill-rule="evenodd" clip-rule="evenodd" d="M88.4439 81.8086H182.776C183.275 81.8086 183.681 82.2139 183.681 82.713C183.681 83.2121 183.275 83.6173 182.776 83.6173H88.4439C87.9448 83.6173 87.5396 83.2121 87.5396 82.713C87.5396 82.2181 87.9448 81.8086 88.4439 81.8086Z" fill="#E8F0FD"/>
<path fill-rule="evenodd" clip-rule="evenodd" d="M119.414 89.5171H182.776C183.275 89.5171 183.68 89.9224 183.68 90.4215C183.68 90.9206 183.275 91.3258 182.776 91.3258H119.414C118.915 91.3258 118.51 90.9206 118.51 90.4215C118.51 89.9266 118.915 89.5171 119.414 89.5171Z" fill="#E8F0FD"/>
<path fill-rule="evenodd" clip-rule="evenodd" d="M124.559 97.2256H182.776C183.275 97.2256 183.681 97.6308 183.681 98.13C183.681 98.6291 183.275 99.0343 182.776 99.0343H124.559C124.06 99.0343 123.655 98.6291 123.655 98.13C123.655 97.6308 124.06 97.2256 124.559 97.2256Z" fill="#E8F0FD"/>
<path fill-rule="evenodd" clip-rule="evenodd" d="M119.303 104.934H182.776C183.275 104.934 183.68 105.339 183.68 105.838C183.68 106.338 183.275 106.743 182.776 106.743H119.303C118.804 106.743 118.399 106.338 118.399 105.838C118.399 105.339 118.804 104.934 119.303 104.934Z" fill="#E8F0FD"/>
<path fill-rule="evenodd" clip-rule="evenodd" d="M174.427 68.2387C179.521 68.2387 183.676 64.0837 183.676 58.9902C183.676 53.8967 179.521 49.7417 174.427 49.7417C169.334 49.7417 165.179 53.8967 165.179 58.9902C165.179 64.0837 169.334 68.2387 174.427 68.2387Z" fill="#0064B5"/>
<path fill-rule="evenodd" clip-rule="evenodd" d="M169.645 65.0563C170.959 66.0972 172.623 66.7157 174.427 66.7157C176.232 66.7157 177.895 66.0929 179.209 65.0563C179.124 62.4967 177.004 60.4278 174.427 60.4278C171.846 60.4278 169.726 62.4967 169.645 65.0563ZM174.427 52.4121C172.529 52.4121 170.993 53.9521 170.993 55.8504C170.993 57.7488 172.533 59.2845 174.427 59.2845C176.321 59.2845 177.861 57.7445 177.861 55.8504C177.861 53.9564 176.321 52.4121 174.427 52.4121Z" fill="white"/>
<path fill-rule="evenodd" clip-rule="evenodd" d="M159.889 53.7305H142.092C141.563 53.7305 141.132 54.1613 141.132 54.6903C141.132 55.2193 141.563 55.6501 142.092 55.6501H159.889C160.418 55.6501 160.849 55.2193 160.849 54.6903C160.849 54.1613 160.418 53.7305 159.889 53.7305Z" fill="#E8F0FD"/>
<path fill-rule="evenodd" clip-rule="evenodd" d="M159.889 57.9536H149.809C149.28 57.9536 148.849 58.3845 148.849 58.9134C148.849 59.4424 149.28 59.8733 149.809 59.8733H159.889C160.418 59.8733 160.849 59.4424 160.849 58.9134C160.849 58.3845 160.418 57.9536 159.889 57.9536Z" fill="#E8F0FD"/>
<path fill-rule="evenodd" clip-rule="evenodd" d="M146.383 57.9536H144.911C144.383 57.9536 143.952 58.3845 143.952 58.9134C143.952 59.4424 144.383 59.8733 144.911 59.8733H146.383C146.912 59.8733 147.343 59.4424 147.343 58.9134C147.343 58.3845 146.912 57.9536 146.383 57.9536Z" fill="#E8F0FD"/>
<path fill-rule="evenodd" clip-rule="evenodd" d="M159.889 62.335H152.155C151.626 62.335 151.195 62.7658 151.195 63.2948C151.195 63.8238 151.626 64.2546 152.155 64.2546H159.889C160.418 64.2546 160.849 63.8238 160.849 63.2948C160.849 62.7658 160.418 62.335 159.889 62.335Z" fill="#E8F0FD"/>
<path d="M90.3849 46.9517H119.278C120.848 46.9517 122.123 48.2272 122.123 49.797V66.8692C122.123 68.4391 120.848 69.7146 119.278 69.7146H90.3849C88.8151 69.7146 87.5396 68.4391 87.5396 66.8692V49.797C87.5396 48.2272 88.8151 46.9517 90.3849 46.9517Z" fill="#E8F0FD"/>
<path fill-rule="evenodd" clip-rule="evenodd" d="M112.815 57.4672C112.815 58.4058 112.666 59.2675 112.363 60.0439C112.064 60.8203 111.642 61.4303 111.096 61.8782C110.546 62.3219 109.91 62.5437 109.189 62.5437C108.707 62.5437 108.28 62.4285 107.909 62.1939C107.538 61.9635 107.274 61.6564 107.107 61.281H106.949C106.246 62.1214 105.35 62.5437 104.262 62.5437C103.106 62.5437 102.197 62.1939 101.532 61.5028C100.866 60.8075 100.534 59.8604 100.534 58.6574C100.534 57.2838 100.969 56.1747 101.843 55.3386C102.718 54.4982 103.857 54.0758 105.264 54.0758C105.823 54.0758 106.442 54.1313 107.12 54.2379C107.794 54.3446 108.349 54.4726 108.788 54.6261L108.566 59.404C108.566 60.3084 108.814 60.7605 109.309 60.7605C109.727 60.7605 110.059 60.4577 110.307 59.8476C110.554 59.2419 110.682 58.4441 110.682 57.4587C110.682 56.4093 110.46 55.4879 110.025 54.6816C109.586 53.8753 108.976 53.2653 108.182 52.8387C107.389 52.4164 106.485 52.2031 105.469 52.2031C104.151 52.2031 103.008 52.4719 102.039 53.0136C101.067 53.5554 100.32 54.3361 99.8041 55.3514C99.2879 56.3709 99.0277 57.5483 99.0277 58.8835C99.0277 60.6795 99.5097 62.0616 100.47 63.0215C101.429 63.9813 102.824 64.4591 104.65 64.4591C105.341 64.4591 106.096 64.3866 106.924 64.233C107.751 64.0794 108.571 63.8576 109.368 63.5633V65.4403C107.973 66.0332 106.425 66.3318 104.723 66.3318C102.248 66.3318 100.316 65.6834 98.9296 64.378C97.5431 63.0769 96.8521 61.2639 96.8521 58.9433C96.8521 57.335 97.2061 55.8718 97.9143 54.5622C98.6224 53.2483 99.6249 52.2202 100.935 51.4736C102.244 50.7271 103.746 50.356 105.448 50.356C106.881 50.356 108.165 50.6503 109.287 51.2347C110.418 51.8192 111.288 52.6553 111.902 53.7346C112.512 54.8181 112.819 56.0638 112.819 57.4758L112.815 57.4672ZM102.803 58.6873C102.803 60.0609 103.362 60.7477 104.484 60.7477C105.072 60.7477 105.52 60.543 105.823 60.1249C106.13 59.7111 106.318 59.0414 106.382 58.1114L106.51 55.9528C106.177 55.8846 105.802 55.8462 105.384 55.8462C104.565 55.8462 103.933 56.0979 103.481 56.6055C103.029 57.1132 102.799 57.8085 102.799 58.6873H102.803Z" fill="#FCBE42"/>
<path fill-rule="evenodd" clip-rule="evenodd" d="M202.878 132.888C206.075 136.785 207.406 140.103 206.406 142.451C204.733 146.381 196.987 146.607 185.814 143.798C175.016 141.084 160.843 135.597 145.859 127.989C137.61 123.801 129.973 119.398 123.295 115.079C119.502 112.628 116.022 110.196 112.908 107.844C111.963 107.137 111.879 106.088 112.203 105.742C112.53 105.397 113.167 105.703 113.167 105.703C116.425 108.202 120.124 110.796 124.186 113.427C130.813 117.714 138.4 122.084 146.597 126.248C161.465 133.802 175.514 139.241 186.203 141.927C196.521 144.521 203.537 144.633 204.81 141.645C205.413 140.226 204.693 138.176 202.864 135.669C202.871 135.518 202.875 135.367 202.875 135.212V132.888H202.878Z" fill="#111111"/>
<path fill-rule="evenodd" clip-rule="evenodd" d="M111.676 98.126L105.819 111.598L84.3911 87.5508L111.616 94.982L111.676 98.126Z" fill="#E89E0A"/>
<path fill-rule="evenodd" clip-rule="evenodd" d="M105.819 111.598L97.5557 102.324C97.7135 101.228 97.705 99.9478 97.705 99.9478L106.092 102.477L105.823 111.598H105.819Z" fill="#B87C03"/>
<path fill-rule="evenodd" clip-rule="evenodd" d="M84.3911 87.5508L120.34 94.6791L111.676 98.126L84.3911 87.5508Z" fill="#FCBE42"/>
<path fill-rule="evenodd" clip-rule="evenodd" d="M84.3911 87.5508L94.7616 111.828L106.088 102.477L84.3911 87.5508Z" fill="#FCBE42"/>
<path d="M39.8537 54.9457L78.6326 62.3385C80.1633 62.6359 81.6516 61.6162 81.9492 60.0867L91.3888 10.7585C91.6864 9.22894 90.6659 7.74187 89.1352 7.44445L50.3563 0.0515951C48.8256 -0.245819 47.3374 0.773887 47.0397 2.30344L37.6001 51.6316C37.3025 53.1612 38.323 54.6483 39.8537 54.9457Z" fill="#0374CF"/>
<g opacity="0.3">
<path d="M80.1633 60.639C80.2059 60.639 80.2484 60.639 80.2484 60.5965C80.3334 60.554 80.3759 60.4265 80.3334 60.2991L49.0382 1.83602C48.9957 1.75104 48.8681 1.70856 48.7405 1.75104C48.6555 1.79353 48.613 1.921 48.6555 2.04846L79.9507 60.5115C79.9933 60.5965 80.0783 60.639 80.1633 60.639Z" fill="white"/>
<path d="M39.216 52.8214C39.2586 52.8214 39.3011 52.8214 39.3436 52.7789L89.9432 9.90883C90.0283 9.82385 90.0283 9.69639 89.9857 9.61141C89.9007 9.52644 89.7731 9.52644 89.6881 9.56892L39.0885 52.439C39.0034 52.524 39.0034 52.6514 39.046 52.7364C39.0885 52.8214 39.131 52.8214 39.216 52.8214Z" fill="white"/>
</g>
<path d="M30.7468 93.9177L22.0853 165.959L15.8985 165.341L15.0049 92.0444L30.7468 93.9177Z" fill="#EE384E"/>
<path d="M21.3125 93.9177L37.57 165.959L43.774 165.341L39.512 92.0444L21.3125 93.9177Z" fill="#DE051F"/>
<path d="M33.0324 40.668C33.0324 40.668 34.8712 43.0138 34.9657 47.1985C35.0517 51.3832 34.5275 54.3734 32.7402 54.4078C30.9529 54.4422 27.344 53.3251 26.7167 52.1479C26.0894 50.9707 24.9036 50.9879 24.8435 48.6077C24.7919 46.2189 27.6533 40.7797 30.0421 40.7281C32.4395 40.6937 33.0324 40.668 33.0324 40.668Z" fill="#FFBE9B"/>
<path d="M25.7528 48.8901C25.7528 48.8901 25.2201 51.8804 24.0858 54.8965C22.9602 57.904 22.3931 59.1155 22.3931 59.1155C22.3931 59.1155 26.0708 63.2143 29.6368 62.5441C33.2028 61.8738 33.1512 59.485 33.1512 59.485C33.1512 59.485 29.8086 56.8728 29.7313 53.2896C29.654 49.715 29.654 49.715 29.654 49.715L25.7528 48.8901Z" fill="#FEBE9A"/>
<path d="M34.828 40.6331C34.828 40.6331 36.5122 35.8212 35.3006 35.2541C34.089 34.6783 31.7346 35.9243 31.1503 36.543C30.566 37.1531 29.3802 37.1788 28.7701 37.1874C28.7701 37.1874 22.8067 37.3163 21.6381 38.5365C20.4695 39.7567 20.4781 40.3496 20.4953 40.9511C20.5038 41.544 20.5554 43.8812 19.9883 45.1443C19.7391 45.6857 19.4555 48.1346 20.7015 50.5062C21.9474 52.8606 23.159 53.4364 23.7519 53.4278C24.3448 53.4192 24.8948 53.402 24.9291 52.8005C24.9807 52.156 25.1955 51.2452 25.4705 50.4031C25.7368 49.604 26.0118 48.0057 26.0118 48.0057C26.0118 48.0057 26.5446 45.0154 27.7046 43.7867C28.8646 42.5579 28.8732 42.5665 31.2448 41.9135C33.625 41.2518 34.2695 42.4376 34.828 40.6331Z" fill="#160C56"/>
<path d="M26.8706 45.1704C27.7814 46.1672 26.6214 47.9803 26.6214 47.9803C26.6214 47.9803 24.8513 48.6161 24.8083 46.8202C24.774 45.0329 25.9684 44.1651 26.8706 45.1704Z" fill="#FFBE9B"/>
<path d="M42.2154 65.0777L47.6811 72.9084C47.6811 72.9084 48.0709 73.3205 48.4606 72.9084C48.8504 72.4962 55.4768 63.8321 55.8666 62.5957C56.2564 61.3592 55.8666 60.1228 57.0359 58.053C58.2053 55.9831 59.3747 55.1588 59.3747 55.1588C59.3747 55.1588 60.544 54.3345 60.1542 55.5709C59.7645 56.8074 59.3747 58.0438 60.1542 58.4651C60.9338 58.8864 67.1704 60.1137 67.1704 60.1137C67.1704 60.1137 60.9251 62.1744 59.3573 64.6564C57.7982 67.1292 53.5019 75.3812 51.5443 77.4419C49.5953 79.5026 47.6378 80.7482 46.4684 79.5026C45.299 78.2662 37.4946 70.0142 37.4946 70.0142L42.2154 65.0777Z" fill="#FFBE9B"/>
<path d="M38.9265 51.5547C38.9265 51.5547 36.2112 53.4881 35.8245 55.43C35.4378 57.3634 33.8911 60.4654 33.8911 60.4654L35.4378 62.3988C35.4378 62.3988 38.5398 60.0787 40.4732 58.9101C42.4066 57.7415 45.8952 56.1948 45.8952 56.1948L38.9351 54.6481C38.9351 54.6481 38.5484 53.4881 38.9351 52.7147C39.3217 51.9414 38.9265 51.5547 38.9265 51.5547Z" fill="#FFBE9B"/>
<path d="M15.9064 170.05C15.9064 170.05 15.5627 171.02 17.5734 171.012C19.5841 170.995 30.5056 170.9 30.5056 170.9C30.5056 170.9 32.6022 170.462 30.6516 169.534C28.7011 168.606 22.8494 166.037 22.8494 166.037C22.8494 166.037 22.4026 165.916 22.4026 164.799L15.7861 164.859L15.9064 170.05Z" fill="#170856"/>
<path d="M37.2409 170.05C37.2409 170.05 36.8972 171.02 38.9079 171.012C40.9186 170.995 51.84 170.9 51.84 170.9C51.84 170.9 53.9367 170.462 51.9861 169.534C50.0355 168.615 44.1839 166.037 44.1839 166.037C44.1839 166.037 43.737 165.916 43.737 164.799L37.1206 164.859L37.2409 170.05Z" fill="#170856"/>
<path d="M31.1413 57.9562C31.1413 57.9562 31.7857 57.4235 32.5247 58.0164C33.2637 58.6007 35.8501 60.5169 37.1132 62.9658C38.3678 65.4234 38.806 68.8347 39.2357 76.7916C39.6739 84.7571 39.6051 93.3671 39.6051 93.3671L14.9353 93.9084C14.9353 93.9084 14.1534 79.421 16.482 70.5189C18.8106 61.6168 22.2907 58.5234 23.0641 58.1367C23.8374 57.75 24.6108 58.5234 24.6108 58.5234C24.6108 58.5234 28.0049 61.634 31.1413 57.9562Z" fill="#0083F9"/>
<path d="M43.5749 66.2654C43.5749 66.2654 40.0863 61.23 36.2281 59.6833C32.37 58.1366 30.4194 61.23 32.3528 64.332C34.2861 67.434 37.7748 71.6788 37.7748 71.6788L43.5749 66.2654Z" fill="#0064B7"/>
</svg>
