<svg width="488" height="362" viewBox="0 0 488 362" fill="none" xmlns="http://www.w3.org/2000/svg">
<path d="M74.4481 197.15C102.445 197.15 125.14 174.415 125.14 146.371C125.14 118.326 102.445 95.5918 74.4481 95.5918C46.4515 95.5918 23.7559 118.326 23.7559 146.371C23.7559 174.415 46.4515 197.15 74.4481 197.15Z" stroke="#DC051F" stroke-miterlimit="10" stroke-dasharray="6 6"/>
<path d="M34.6001 122.34C37.6693 122.34 40.1573 119.848 40.1573 116.774C40.1573 113.699 37.6693 111.207 34.6001 111.207C31.531 111.207 29.043 113.699 29.043 116.774C29.043 119.848 31.531 122.34 34.6001 122.34Z" fill="#003EAE"/>
<path d="M35.5502 114.059L31.8906 116.231L35.2791 118.132L35.5502 114.059Z" fill="white"/>
<path d="M370.426 148.765C368.854 148.732 367.564 147.491 367.524 145.893C367.067 129.693 361.205 49.2223 290.252 33.1125C211.227 15.1654 175.962 95.8012 175.962 95.8012C175.962 95.8012 78.065 59.3059 60.3588 159.831C-0.65435 175.145 -15.7407 255.259 24.425 293.955C30.7971 300.112 39.3026 303.519 48.167 303.528L431.171 303.168C442.417 303.154 452.311 295.703 455.395 284.877C466.948 244.288 481.674 150.26 370.426 148.765Z" fill="#0064E1"/>
<path opacity="0.6" d="M361.41 150.469C359.838 150.436 358.549 149.195 358.508 147.597C358.034 132.061 352.303 57.4415 285.462 42.4709C210.746 25.7348 177.392 101.016 177.392 101.016C177.392 101.016 84.8238 66.9751 68.0825 160.851C10.9621 175.02 -3.6006 248.564 33.0071 285.057C39.4308 291.46 48.1099 295.037 57.1707 295.045L417.706 294.663C428.977 294.648 438.871 287.148 441.93 276.298C452.816 237.732 465.291 151.915 361.41 150.469Z" fill="#66A2ED"/>
<path d="M248.958 135C248.958 135 224.969 152.739 192.911 146.749C192.911 146.749 180.699 231.989 245.686 255.488C245.686 255.488 247.867 256.64 252.011 255.488C318.743 237.749 304.786 146.749 304.786 146.749C272.946 152.739 248.958 135 248.958 135Z" fill="white"/>
<path d="M262.241 151.381C270.595 154.501 282.249 156.999 295.555 154.589C295.568 154.69 295.583 154.807 295.6 154.938C295.672 155.505 295.77 156.34 295.875 157.408C296.086 159.546 296.325 162.62 296.436 166.356C296.659 173.83 296.373 183.946 294.339 194.526C290.269 215.694 279.235 238.603 251.406 246.081L251.4 246.083C249.721 246.555 248.459 246.55 247.632 246.437C247.217 246.38 246.91 246.295 246.711 246.228C246.612 246.195 246.54 246.166 246.495 246.146C246.473 246.136 246.458 246.129 246.449 246.125L246.445 246.123L246.445 246.123L246.444 246.123L246.443 246.122L246.442 246.122L246.442 246.122L246.414 246.107L246.381 246.095C219.247 236.177 208.208 213.234 203.956 192.68C201.83 182.406 201.407 172.749 201.516 165.659C201.57 162.115 201.757 159.214 201.931 157.201C202.017 156.195 202.101 155.41 202.162 154.879C202.174 154.772 202.186 154.675 202.196 154.589C215.59 156.999 227.288 154.501 235.664 151.381C239.907 149.801 243.301 148.06 245.636 146.713C246.804 146.039 247.708 145.463 248.321 145.055C248.593 144.873 248.809 144.725 248.964 144.616C249.12 144.725 249.335 144.873 249.607 145.055C250.22 145.463 251.123 146.039 252.29 146.713C254.622 148.06 258.01 149.801 262.241 151.381Z" stroke="#023E9F"/>
<path d="M254.674 193.618H243.545V208.858H254.674V193.618Z" fill="white"/>
<path d="M241.5 187.704C241.727 183.609 244.907 180.197 249.222 180.197C253.311 180.197 256.717 183.609 256.944 187.704H261.487C261.26 181.107 256.036 175.875 249.449 175.875C242.863 175.875 237.412 181.107 237.412 187.704H241.5Z" fill="#033E9F"/>
<path d="M263.525 187.021H234.908C233.091 187.021 231.729 188.386 231.729 190.206V211.815C231.729 213.635 233.091 214.999 234.908 214.999H263.525C265.342 214.999 266.705 213.635 266.705 211.815V190.206C266.932 188.386 265.342 187.021 263.525 187.021ZM251.715 207.266H246.718L247.4 202.261C246.491 201.579 246.037 200.669 246.037 199.532C246.037 197.712 247.627 196.12 249.444 196.12C251.261 196.12 252.851 197.712 252.851 199.532C252.851 200.669 252.169 201.807 251.488 202.261L251.715 207.266Z" fill="#155BCC"/>
<path d="M461.427 235.912C461.427 235.912 442.207 229.024 441.581 240.202C440.946 251.397 436.261 252.313 431.365 253.023C426.47 253.733 417.241 251.43 417.227 263.259C417.2 275.092 421.853 281.112 417.855 286.04C413.86 290.981 404.421 316.056 415.197 316.954C425.969 317.839 435.327 305.619 437.882 299.461C440.437 293.302 449.013 290.605 456.013 290.162C463.014 289.72 470.852 283.935 465.858 276.212C460.851 268.493 462.857 258.575 468.425 254.982C473.967 251.395 474.363 240.788 461.427 235.912Z" fill="#FCBE42"/>
<path d="M455.238 248.433L414.203 326.284" stroke="white" stroke-miterlimit="10" stroke-linecap="round" stroke-linejoin="round"/>
<path d="M396.394 313.597C396.394 313.597 420.315 272.785 424.709 240.54" stroke="#DE051F" stroke-miterlimit="10"/>
<path d="M424.257 220.128C424.257 220.128 415.288 231.637 424.17 243.885C424.17 243.885 433.583 235.156 424.257 220.128Z" stroke="#DE051F" stroke-miterlimit="10"/>
<path d="M416.858 269.98C416.858 269.98 419.243 256.87 404.751 249.759C404.751 249.759 399.03 260.735 416.858 269.98Z" stroke="#DE051F" stroke-miterlimit="10"/>
<path d="M404.193 298.812C404.193 298.812 409.147 286.385 396.378 276.62C396.375 276.607 388.588 286.298 404.193 298.812Z" stroke="#DE051F" stroke-miterlimit="10"/>
<path d="M404.626 299.166C404.626 299.166 410.369 287.053 426.498 289.12C426.485 289.123 424.752 301.286 404.626 299.166Z" stroke="#DE051F" stroke-miterlimit="10"/>
<path d="M416.755 269.815C416.755 269.815 420.886 257.11 437.177 257.133C437.177 257.133 437.025 269.399 416.755 269.815Z" stroke="#DE051F" stroke-miterlimit="10"/>
<path d="M423.146 329.09C423.146 329.09 428.512 329.358 432.536 329.358C436.427 329.358 442.732 330.163 442.732 330.163C442.732 330.163 444.342 330.163 444.476 332.175C444.61 334.187 444.61 334.992 444.61 334.992C444.61 334.992 444.744 337.407 442.866 337.407C440.988 337.407 428.914 338.749 426.231 338.749C423.548 338.749 421.536 339.285 421.536 337.407C421.402 335.529 421.268 328.956 423.146 329.09Z" fill="#160856"/>
<path d="M427.572 271.807C427.572 271.807 431.06 291.259 431.328 296.491C431.596 301.589 432.133 305.613 428.779 307.626C425.425 309.638 419.791 311.516 419.791 311.516L412.949 276.637V272.612L427.572 271.807Z" fill="#FDBD97"/>
<path d="M367.872 270.601C367.872 270.601 365.994 279.455 365.457 283.882C364.92 288.309 363.713 297.028 363.579 299.041C363.445 301.053 363.176 304.407 366.798 307.09C370.421 309.639 374.445 311.114 374.445 311.114L381.958 270.601H367.872Z" fill="#FDBD97"/>
<path d="M394.569 242.562C394.569 242.562 394.569 246.586 392.825 248.33C391.081 250.074 388.801 253.026 388.801 253.026C388.801 253.026 392.825 259.465 401.009 258.526C409.058 257.721 410.533 251.818 410.533 251.818C410.533 251.818 402.887 250.745 401.948 243.501C401.143 236.257 399.935 236.257 399.935 236.257L394.569 242.562Z" fill="#FDAE7D"/>
<path d="M388.666 226.464C388.666 226.464 388.934 235.721 393.361 242.965C397.654 250.209 402.886 246.184 405.032 242.428C407.045 238.672 412.545 226.464 411.472 223.245C410.264 220.025 394.3 218.549 394.3 218.549L388.666 226.464Z" fill="#FDBD97"/>
<path d="M409.189 231.696C409.189 231.696 411.469 229.952 411.469 231.696C411.469 233.44 410.262 235.989 408.921 236.391C407.445 236.66 407.713 235.855 408.116 234.647C408.384 233.44 409.189 231.696 409.189 231.696Z" fill="#FDBD97"/>
<path d="M389.337 235.452C390.008 235.72 390.678 235.855 390.678 234.915C390.678 233.171 389.471 230.623 388.13 230.22C386.654 229.952 386.922 230.757 387.325 231.964C387.459 232.367 387.593 232.769 387.727 233.306C387.995 234.111 388.8 235.184 389.337 235.452Z" fill="#FDBD97"/>
<path d="M389.07 230.757L388.801 227.806C388.801 227.806 391.35 228.074 394.302 225.257C394.302 225.257 399.936 226.598 404.497 226.062C409.327 225.659 411.339 224.318 411.339 224.318C411.339 224.318 410.534 229.818 409.729 231.428C409.729 231.428 412.01 230.489 412.949 227.806C413.754 225.257 413.619 222.44 413.619 222.44C413.619 222.44 416.839 219.891 417.644 216.939C417.644 216.939 408.924 214.927 406.375 213.183C403.826 211.439 402.351 210.232 402.351 210.232C402.351 210.232 398.326 207.951 394.302 211.037C390.277 214.256 387.594 216 387.594 221.501C387.46 221.635 383.704 226.867 389.07 230.757Z" fill="#160856"/>
<path d="M389.743 250.074C389.743 250.074 384.242 249.404 381.157 250.209C378.206 251.013 377.266 250.477 378.071 252.757C378.876 255.038 382.901 265.636 381.023 272.209C379.145 278.783 376.596 312.857 376.596 312.857C376.596 312.857 397.255 313.662 405.17 314.065C413.219 314.467 419.122 312.991 419.122 312.991C419.122 312.991 420.866 298.369 419.122 291.93C417.378 285.624 415.097 274.758 415.097 274.758C415.097 274.758 413.621 259.867 415.634 256.245C417.646 252.623 419.122 252.489 416.573 251.55C414.024 250.611 411.207 249.806 409.06 249.806C407.048 249.806 405.975 249.806 404.767 251.014C403.56 252.221 401.145 254.636 397.792 254.099C394.438 253.562 391.889 251.282 391.889 251.282C391.889 251.282 390.682 250.209 389.743 250.074Z" fill="#0181F7"/>
<path d="M379.947 251.282C379.947 251.282 378.069 250.343 375.252 252.757C372.167 255.44 370.02 261.075 368.947 264.563C367.874 268.051 367.203 271.539 367.203 271.539C367.203 271.539 371.094 273.551 375.252 273.685C379.277 273.819 381.96 274.087 381.96 274.087C381.96 274.087 383.704 263.49 383.301 258.794C382.765 254.099 382.094 252.489 379.947 251.282Z" fill="#023E9F"/>
<path d="M414.02 255.173C414.02 255.173 415.63 250.746 419.252 252.758C422.874 254.77 425.557 262.551 426.496 264.966C427.301 267.38 428.374 272.344 428.374 272.344C428.374 272.344 424.081 274.222 420.325 274.49C416.703 274.759 414.154 275.027 414.154 275.027C414.154 275.027 412.678 265.368 412.947 261.612C413.215 257.856 414.02 255.173 414.02 255.173Z" fill="#023E9F"/>
<path d="M384.104 315.943H411.873L397.519 320.37L384.104 315.943Z" fill="#BA0A28"/>
<path d="M359.422 308.028C359.422 308.028 410.131 323.858 421.266 327.749C421.266 327.749 424.888 328.688 425.022 330.566C425.156 332.444 424.754 335.127 424.351 336.468C423.949 337.81 422.741 338.883 420.729 338.481C418.717 338.078 373.24 328.956 355.263 324.261L350.166 322.651C350.166 322.651 346.409 320.907 347.08 316.346C347.751 311.785 351.105 307.626 353.519 307.358C355.934 307.223 359.422 308.028 359.422 308.028Z" fill="#EC384E"/>
<path d="M354.861 330.565C354.861 330.565 361.166 329.492 365.057 329.358C368.813 329.224 373.911 328.821 374.716 329.358C375.521 329.894 376.191 337.273 376.191 337.273C376.191 337.273 376.862 339.285 371.898 338.883C366.935 338.48 355.398 338.078 355.398 338.078C355.398 338.078 352.849 337.944 352.715 335.663C352.581 333.382 352.983 332.309 352.983 332.309C352.983 332.309 353.117 330.834 354.861 330.565Z" fill="#160856"/>
<path d="M385.044 324.126C385.044 324.126 415.765 314.736 426.765 311.516C437.766 308.296 443.802 305.345 447.424 310.443C450.912 315.541 450.644 321.309 446.62 322.919C442.595 324.529 410.533 332.041 397.252 334.724C383.971 337.407 375.251 339.151 374.044 338.615C372.836 338.078 371.495 334.188 371.763 332.041C372.031 329.895 372.166 329.09 374.714 328.017C377.263 326.809 385.044 324.126 385.044 324.126Z" fill="#DB061F"/>
<path d="M381.558 279.319H418.584C418.584 279.319 420.596 279.051 420.596 281.734C420.596 284.417 420.596 313.662 420.596 313.662C420.596 313.662 420.731 315.809 419.121 315.809C417.511 315.809 375.656 315.809 375.656 315.809C375.656 315.809 373.912 316.345 373.912 313.394C373.912 310.443 373.912 280.929 373.912 280.929C373.912 280.929 373.778 279.319 375.924 279.319C377.936 279.319 381.558 279.319 381.558 279.319Z" fill="#0064B5"/>
<path d="M399.535 297.43L396.851 295.284L394.705 297.967L397.388 300.113L399.535 297.43Z" fill="#579CD2"/>
<path d="M13.706 287.548C13.706 287.548 16.9629 286.221 16.722 282.49C16.4811 278.758 14.5537 276.113 18.5334 277.19C22.5131 278.277 23.8516 278.758 26.7426 278.152C29.6337 277.547 32.034 276.344 30.7759 280.076C29.5177 283.808 28.1436 286.934 31.1239 287.54C34.0953 288.145 37.2897 285.892 37.6734 291.734C38.0571 297.577 33.3368 304.15 25.6986 304.39C18.0605 304.631 14.6876 301.469 14.6876 301.469C14.6876 301.469 12.6352 298.583 15.8297 297.88C19.0242 297.167 22.2811 295.822 20.6482 294.326C19.0242 292.839 13.7149 292.714 13.7149 292.714C13.7149 292.714 7.07615 291.396 13.706 287.548Z" fill="#649EEA"/>
<path d="M48.6124 288.51C48.077 284.787 48.4875 282.106 55.4207 281.091C62.3539 280.076 66.3961 284.235 66.8155 288.51C67.2349 292.785 61.2118 294.335 61.2118 294.335C61.2118 294.335 56.9287 295.555 59.1059 299.287C61.2832 303.019 62.2647 306.626 57.3392 307.169C52.4136 307.712 47.0241 306.412 44.0259 304.417C41.0278 302.422 37.9493 297.363 41.3847 294.718C41.3847 294.718 42.3484 294.059 45.6678 293.872C48.9693 293.685 48.6124 288.51 48.6124 288.51Z" fill="#023EA1"/>
<path d="M24.2188 287.904C24.2188 287.904 29.9741 300.899 30.7594 309.743" stroke="#023EA1" stroke-miterlimit="10"/>
<path d="M56.2244 290.042C56.2244 290.042 46.0342 305.147 43.625 310.197" stroke="#649EEA" stroke-miterlimit="10"/>
<path d="M27.2061 308.728H50.5935C50.5935 308.728 53.1544 308.906 52.9403 312.397C52.744 315.612 48.6572 314.917 46.5513 314.917C44.4455 314.917 26.6975 314.917 26.6975 314.917C26.6975 314.917 23.8242 315.407 23.8242 312.156C23.8242 308.906 24.9128 308.728 27.2061 308.728Z" fill="#0054A5"/>
<path d="M26.707 314.918L30.2495 335.545H45.9541L48.6132 320.066L26.7338 314.918H26.707Z" fill="#0054A5"/>
<path d="M26.7324 314.918L48.6118 320.066L49.4952 314.918H26.7324Z" fill="#006AD5"/>
<path d="M36.7891 309.511C36.7891 309.511 37.9758 286.622 44.8109 272.265" stroke="#FCBE42" stroke-miterlimit="10"/>
<path d="M50.4328 264C50.4328 264 50.9949 271.027 44.1242 273.77C44.1242 273.77 42.6429 267.767 50.4328 264Z" fill="#FCBE42"/>
<path d="M40.125 286.364C40.125 286.364 42.6592 280.37 50.4401 281.171C50.449 281.171 49.8422 287.139 40.125 286.364Z" fill="#FCBE42"/>
<path d="M37.5645 301.442C37.5645 301.442 38.8762 295.065 46.666 294.335C46.666 294.335 47.246 300.311 37.5645 301.442Z" fill="#FCBE42"/>
<path d="M37.2967 301.478C37.2967 301.478 38.198 295.039 31.1041 291.743C31.1041 291.743 28.561 297.185 37.2967 301.478Z" fill="#FCBE42"/>
<path d="M40.2126 286.319C40.2126 286.319 41.9348 280.04 35.3138 275.872C35.3049 275.872 32.0926 280.949 40.2126 286.319Z" fill="#FCBE42"/>
<path d="M147.908 37.28L154.812 44.1714L161.717 37.28L154.813 30.3886L147.908 37.28Z" fill="#DE051F"/>
<path d="M370.514 21.8913L377.418 28.7827L384.322 21.8913L377.418 15L370.514 21.8913Z" fill="#023E9F"/>
<path d="M409.105 124.022L398.562 119.952C398.391 119.886 398.201 119.964 398.132 120.142L396.456 124.483C396.426 124.561 396.432 124.661 396.465 124.736L397.227 126.456C397.26 126.531 397.323 126.6 397.416 126.636L405.478 129.748C405.556 129.778 405.656 129.773 405.731 129.739L407.451 128.978C407.526 128.944 407.594 128.882 407.627 128.797L409.306 124.447C409.372 124.277 409.276 124.088 409.105 124.022ZM407.05 128.422L405.589 129.07L397.79 126.059L397.143 124.597L398.651 120.69L408.574 124.521L407.066 128.428L407.05 128.422Z" fill="#003EB0"/>
<path d="M409.241 125.491L397.21 121.559C397.036 121.501 396.847 121.597 396.789 121.771C396.731 121.945 396.815 122.119 396.986 122.185C396.993 122.188 396.993 122.188 397.001 122.191L409.032 126.124C409.206 126.182 409.394 126.085 409.452 125.912C409.503 125.735 409.406 125.547 409.241 125.491Z" fill="#003EB0"/>
<path d="M408.519 127.36L396.488 123.428C396.315 123.37 396.126 123.466 396.068 123.64C396.01 123.813 396.094 123.988 396.264 124.054C396.272 124.057 396.272 124.057 396.28 124.06L408.311 127.993C408.484 128.051 408.673 127.954 408.731 127.781C408.784 127.596 408.691 127.4 408.519 127.36Z" fill="#003EB0"/>
<path d="M411.979 100.892C406.157 98.6446 399.61 101.551 397.365 107.365C395.949 111.032 396.518 115.073 398.878 118.212L398.136 120.134C398.07 120.305 398.156 120.498 398.326 120.564L408.87 124.635C409.04 124.7 409.234 124.615 409.3 124.444L410.042 122.522C413.902 121.776 417.039 119.166 418.452 115.506C420.696 109.692 417.793 103.137 411.979 100.892ZM409.74 121.897C409.626 121.915 409.522 122 409.48 122.109L408.788 123.899L398.865 120.068L399.557 118.277C399.599 118.169 399.583 118.047 399.506 117.946C397.191 114.968 396.627 111.098 397.977 107.602C400.091 102.128 406.258 99.3965 411.732 101.51C417.205 103.623 419.937 109.791 417.824 115.264C416.478 118.771 413.456 121.247 409.74 121.897Z" fill="#003EB0"/>
<path d="M404.595 128.731C404.47 128.594 404.26 128.584 404.126 128.701C404.084 128.739 403.131 129.547 401.201 128.801C399.27 128.056 399.103 126.807 399.102 126.762C399.084 126.577 398.93 126.446 398.742 126.471C398.557 126.489 398.426 126.643 398.444 126.828C398.443 126.899 398.636 128.524 400.961 129.422C403.287 130.32 404.524 129.238 404.568 129.193C404.713 129.071 404.72 128.869 404.595 128.731Z" fill="#003EB0"/>
<path d="M394.692 105.977L388.49 103.583C388.319 103.517 388.129 103.595 388.06 103.773C387.994 103.944 388.08 104.137 388.25 104.203L394.452 106.597C394.623 106.663 394.816 106.577 394.882 106.407C394.948 106.236 394.862 106.043 394.692 105.977Z" fill="#DE051F"/>
<path d="M427.563 118.668L421.361 116.273C421.19 116.207 420.997 116.293 420.931 116.463C420.865 116.634 420.951 116.827 421.121 116.893L427.323 119.288C427.494 119.354 427.687 119.268 427.753 119.097C427.827 118.93 427.733 118.733 427.563 118.668Z" fill="#DE051F"/>
<path d="M394.113 113.592C394.08 113.401 393.909 113.291 393.739 113.314L387.169 114.341C386.978 114.374 386.868 114.545 386.891 114.715C386.907 114.837 386.994 114.933 387.103 114.975C387.157 114.996 387.214 115.009 387.276 114.988L393.846 113.961C394.023 113.941 394.149 113.776 394.113 113.592Z" fill="#DE051F"/>
<path d="M428.929 108.14C428.896 107.949 428.725 107.839 428.555 107.862L421.983 108.897C421.792 108.93 421.681 109.101 421.705 109.271C421.72 109.392 421.808 109.488 421.916 109.53C421.971 109.551 422.031 109.557 422.089 109.544L428.659 108.517C428.836 108.496 428.955 108.328 428.929 108.14Z" fill="#DE051F"/>
<path d="M424.466 98.0793C424.341 97.9419 424.14 97.9089 424.003 98.034L418.828 102.209C418.675 102.328 418.657 102.535 418.782 102.673C418.828 102.717 418.873 102.761 418.919 102.779C419.028 102.821 419.157 102.809 419.251 102.729L424.426 98.5536C424.563 98.4285 424.581 98.2215 424.466 98.0793Z" fill="#DE051F"/>
<path d="M415.57 91.5894C415.399 91.5236 415.206 91.6093 415.14 91.7798L412.746 97.9818C412.68 98.1523 412.765 98.3458 412.936 98.4116C413.106 98.4774 413.3 98.3918 413.366 98.2212L415.76 92.0193C415.826 91.8487 415.74 91.6553 415.57 91.5894Z" fill="#DE051F"/>
<path d="M406.031 97.2597L405.004 90.69C404.971 90.4991 404.8 90.3885 404.63 90.4121C404.439 90.4453 404.329 90.6164 404.352 90.7858L405.379 97.3555C405.395 97.4773 405.482 97.5734 405.591 97.6153C405.645 97.6363 405.702 97.6495 405.764 97.6287C405.93 97.6128 406.056 97.4477 406.031 97.2597Z" fill="#DE051F"/>
<path d="M421.314 127.535L417.139 122.36C417.014 122.222 416.813 122.189 416.675 122.314C416.522 122.433 416.505 122.64 416.63 122.778L420.805 127.953C420.85 127.997 420.896 128.041 420.942 128.059C421.051 128.101 421.18 128.089 421.273 128.009C421.406 127.873 421.431 127.669 421.314 127.535Z" fill="#DE051F"/>
<path d="M399.193 100.089L395.018 94.9133C394.893 94.7759 394.692 94.7429 394.554 94.868C394.401 94.9871 394.384 95.1941 394.509 95.3315L398.684 100.507C398.729 100.551 398.767 100.592 398.821 100.613C398.93 100.655 399.059 100.643 399.152 100.563C399.294 100.448 399.312 100.241 399.193 100.089Z" fill="#DE051F"/>
<path d="M404.733 122.333L408.6 112.317C408.6 112.317 410.283 107.542 412.857 108.536C415.431 109.529 412.35 113.979 407.389 112.063" stroke="#003EB0" stroke-miterlimit="10"/>
<path d="M402.446 121.45L406.313 111.434C406.313 111.434 408.275 106.766 405.702 105.773C403.128 104.779 402.419 110.144 407.381 112.06" stroke="#003EB0" stroke-miterlimit="10"/>
<path d="M148.017 214.117L151.305 215.313L146.821 220.096C146.821 220.096 145.625 218.303 144.878 216.359C144.728 215.612 145.177 214.715 146.074 214.566L148.017 214.117Z" fill="#FFBE9B"/>
<path d="M152.799 220.546L150.706 222.489C149.958 223.087 148.763 223.087 148.314 222.34L146.67 220.247L151.154 215.464L153.097 219.201C153.247 219.5 153.247 220.098 152.799 220.546Z" fill="#FFBE9B"/>
<path d="M188.822 182.875C190.167 185.716 191.662 188.705 193.306 191.545C194.801 194.385 196.445 197.225 197.94 199.766C198.239 200.364 198.837 200.962 199.136 201.261C199.584 201.859 200.182 202.308 200.78 202.906C201.976 203.952 203.172 205.148 204.517 206.194C207.058 208.436 209.599 210.678 212.14 213.07L209.599 216.06C206.311 214.415 203.321 212.622 200.182 210.678C198.687 209.781 197.043 208.735 195.698 207.689C194.95 207.091 194.203 206.493 193.456 205.895C192.559 205.148 191.961 204.251 191.213 203.653C188.822 200.663 187.178 197.823 185.384 194.834C183.59 191.844 182.095 189.004 180.75 185.865L188.822 182.875Z" fill="#FFBE9B"/>
<path d="M160.572 182.428C158.629 185.268 156.686 187.959 154.593 190.799L148.614 199.02L147.867 200.066L147.717 200.216C147.717 200.216 147.717 200.365 147.568 200.365C147.418 200.664 147.269 201.262 147.269 201.86C147.119 203.205 147.269 204.7 147.418 206.195C147.717 209.185 148.465 212.473 149.063 215.612L145.176 216.957C143.532 213.818 141.888 210.679 140.841 207.391C140.393 205.747 139.944 203.953 139.795 201.86C139.795 200.814 139.795 199.767 140.094 198.572C140.243 198.273 140.243 197.974 140.393 197.525L140.692 197.077L140.841 196.927V196.778L141.589 195.582C143.233 192.593 145.176 189.752 147.119 186.763C149.063 183.923 151.006 181.083 153.098 178.243L160.572 182.428Z" fill="#FFBE9B"/>
<path d="M166.102 159.408C165.504 164.341 166.55 170.619 162.664 173.16C162.664 173.16 163.561 177.794 172.829 179.139C183.143 180.485 178.06 176.449 178.06 176.449C172.53 174.655 173.426 169.722 174.921 166.434L166.102 159.408Z" fill="#FFBE9B"/>
<path d="M162.217 176C162.067 174.206 162.217 171.366 163.562 170.918C164.907 170.469 173.427 171.067 177.762 174.505C176.268 177.196 176.417 179.886 176.417 179.886L162.217 176Z" fill="#0054A3"/>
<path d="M158.181 173.161C152.95 173.61 145.326 185.269 145.326 185.269L155.042 192.892C155.042 192.892 159.676 188.558 163.264 183.475C167 178.244 163.712 172.862 158.181 173.161Z" fill="#0054A3"/>
<path opacity="0.6" d="M158.181 173.161C152.95 173.61 145.326 185.269 145.326 185.269L155.042 192.892C155.042 192.892 159.676 188.558 163.264 183.475C167 178.244 163.712 172.862 158.181 173.161Z" fill="#0054A3"/>
<path opacity="0.2" d="M161.015 181.681L154.588 192.593L155.036 192.891C155.036 192.891 157.428 190.5 160.268 187.211L161.015 181.681Z" fill="black"/>
<path d="M185.086 199.468C184.04 204.85 182.395 211.576 180.303 219.797L150.557 215.911C150.856 212.174 155.34 195.582 154.443 177.645C154.294 175.104 156.685 173.011 159.525 173.16C161.02 173.16 162.664 173.31 164.159 173.459C167.896 173.758 173.576 174.356 176.715 175.104C181.2 176 185.086 177.645 185.086 177.645C185.086 177.645 187.179 180.335 186.132 191.845C185.833 193.938 185.534 196.479 185.086 199.468Z" fill="#0083F9"/>
<path opacity="0.6" d="M185.086 199.468C184.04 204.85 182.395 211.576 180.303 219.797L150.557 215.911C150.856 212.174 155.34 195.582 154.443 177.645C154.294 175.104 156.685 173.011 159.525 173.16C161.02 173.16 162.664 173.31 164.159 173.459C167.896 173.758 173.576 174.356 176.715 175.104C181.2 176 185.086 177.645 185.086 177.645C185.086 177.645 187.179 180.335 186.132 191.845C185.833 193.938 185.534 196.479 185.086 199.468Z" fill="#0083F9"/>
<path opacity="0.2" d="M185.084 199.468C182.692 198.123 180.45 191.994 181.496 188.706L186.28 191.546C185.831 193.937 185.532 196.478 185.084 199.468Z" fill="black"/>
<path d="M178.363 180.934C176.868 185.419 185.986 198.573 185.986 198.573L197.048 193.49C197.048 193.49 194.506 186.913 190.62 181.682C186.285 176.002 180.007 175.852 178.363 180.934Z" fill="#0054A3"/>
<path opacity="0.6" d="M178.363 180.934C176.868 185.419 185.986 198.573 185.986 198.573L197.048 193.49C197.048 193.49 194.506 186.913 190.62 181.682C186.285 176.002 180.007 175.852 178.363 180.934Z" fill="#0054A3"/>
<path d="M168.493 151.189C166.4 156.869 164.905 160.307 166.998 164.343C169.988 170.471 178.807 170.77 182.843 165.688C186.43 161.054 188.971 152.384 183.889 147.9C178.657 143.416 170.586 145.508 168.493 151.189Z" fill="#FFBE9B"/>
<path d="M178.359 140.275C182.993 141.322 186.58 143.115 187.028 145.208C191.214 146.852 192.559 150.739 189.719 152.233C187.178 153.728 183.142 152.084 183.142 152.084C183.142 152.084 185.085 160.754 179.106 157.465C178.209 160.455 176.117 165.836 171.034 166.284C168.344 166.583 163.411 165.985 162.963 163.893C162.514 161.8 164.158 162.248 163.859 160.604C163.411 158.96 161.169 153.28 163.71 149.094C163.859 149.244 167.447 136.538 178.359 140.275Z" fill="#180857"/>
<path d="M176.564 157.166C176.415 158.66 177.013 160.006 177.76 160.903C178.956 162.397 179.404 162.397 179.853 160.753C180.301 159.258 181.497 156.119 179.853 155.372C178.208 154.625 176.564 155.521 176.564 157.166Z" fill="#FFBE9B"/>
<path d="M169.689 218.601C169.689 218.601 165.055 257.166 162.215 271.217C159.076 286.614 138.149 336.24 138.149 336.24L128.283 333.998C133.365 316.808 140.839 284.82 145.473 272.563C148.911 253.878 145.473 230.559 150.555 216.06L169.689 218.601Z" fill="#EE384E"/>
<path opacity="0.2" d="M166.7 233.549C166.999 233.549 167.447 233.549 167.746 233.549C166.251 245.059 164.158 260.455 162.514 269.274C161.169 256.419 159.824 234.745 166.7 233.549Z" fill="black"/>
<path d="M180.005 219.947C180.005 219.947 182.397 261.203 182.696 276.151C182.995 291.697 178.81 338.035 178.81 338.035H169.243C169.243 338.035 165.656 295.135 167.599 274.208C165.357 258.214 160.424 217.406 160.424 217.406L180.005 219.947Z" fill="#EE384E"/>
<path d="M214.53 212.473C213.185 212.323 211.242 212.473 209.896 213.071L209.149 214.117C208.701 215.014 209 216.06 210.195 216.359L213.633 217.256L215.278 217.705C216.025 217.854 216.772 217.705 217.221 217.107L217.968 216.21C218.417 215.612 218.267 214.715 217.819 214.267L216.324 213.071C215.577 212.772 215.128 212.622 214.53 212.473Z" fill="#FFBE9B"/>
<path d="M137.999 335.943L128.881 333.701C128.433 333.551 128.283 333.701 128.134 334.149L125.144 340.427C124.845 340.876 124.995 341.623 125.742 341.922H125.892C128.881 342.669 131.123 342.968 135.01 343.865C137.252 344.314 144.427 346.257 147.417 347.004C150.556 347.752 151.751 344.762 150.406 344.164C144.875 341.473 140.84 338.783 139.345 336.69C138.896 336.391 138.448 336.092 137.999 335.943Z" fill="#170856"/>
<path d="M178.807 338.035H169.39C168.941 338.035 168.792 338.184 168.792 338.633L167.297 345.359C167.148 345.957 167.447 346.555 168.194 346.704H168.343C171.483 346.704 173.725 346.555 177.611 346.555C179.853 346.555 187.327 346.704 190.466 346.704C193.605 346.704 194.203 343.565 192.708 343.266C186.729 341.921 182.095 340.277 180.152 338.483C179.704 338.184 179.255 338.035 178.807 338.035Z" fill="#170856"/>
</svg>
