<svg width="246" height="252" viewBox="0 0 246 252" fill="none" xmlns="http://www.w3.org/2000/svg">
<path d="M170.005 24.1103C170.005 24.1103 174.637 20.8834 172.277 16.922C169.917 12.9606 162.999 12.846 161.141 16.4471C159.29 20.0501 161.042 22.6246 157.969 23.0943C154.904 23.5659 146.552 26.1664 147.666 30.3865C148.773 34.6046 153.58 34.8921 151.01 40.2018C148.441 45.5116 138.408 46.2627 142.934 53.7876C147.46 61.3125 158.42 71.9366 165.654 59.279C172.889 46.6214 159.475 48.7816 167.365 40.7822C175.254 32.7829 169.359 32.3868 167.939 29.001C166.532 25.6266 170.005 24.1103 170.005 24.1103Z" fill="#023EA1"/>
<path d="M161.581 28.668C161.581 28.668 159.364 43.4458 153.158 55.5713C146.953 67.6967 143.802 69.3908 143.802 69.3908" stroke="white" stroke-miterlimit="10" stroke-linecap="round" stroke-linejoin="round"/>
<path d="M199.729 35.8822C199.729 35.8822 191.949 26.8717 188.472 32.4917C184.985 38.1174 182.355 37.2668 179.677 36.2498C176.998 35.2329 172.979 31.4269 169.627 37.5577C166.268 43.6865 166.921 48.1248 163.504 49.5492C160.085 50.9812 148.218 61.3139 153.417 64.8287C158.618 68.3358 166.81 64.6467 169.844 62.1759C172.879 59.7051 177.981 60.7328 181.649 62.4841C185.317 64.2355 190.92 63.4532 190.576 58.0353C190.224 52.6155 194.044 48.04 197.878 47.7518C201.697 47.4599 204.897 42.0715 199.729 35.8822Z" fill="#FCBE42"/>
<path d="M193.057 40.625L150.277 69.3868" stroke="white" stroke-miterlimit="10" stroke-linecap="round" stroke-linejoin="round"/>
<path d="M144.849 57.7685C144.849 57.7685 168.494 43.3725 179.836 27.8937" stroke="#DE051F" stroke-miterlimit="10"/>
<path d="M185.381 17.1791C185.381 17.1791 177.587 20.6098 178.619 29.475C178.619 29.475 185.851 27.6113 185.381 17.1791Z" stroke="#DE051F" stroke-miterlimit="10"/>
<path d="M167.538 40.9387C167.538 40.9387 172.452 34.8151 167.129 27.0264C167.129 27.0264 161.13 31.0994 167.538 40.9387Z" stroke="#DE051F" stroke-miterlimit="10"/>
<path d="M152.977 52.3073C152.977 52.3073 158.998 47.2644 155.297 38.5875C155.299 38.5798 148.618 41.4018 152.977 52.3073Z" stroke="#DE051F" stroke-miterlimit="10"/>
<path d="M153.096 52.6133C153.096 52.6133 159.428 47.9567 167.006 53.5924C166.998 53.5905 162.682 59.4078 153.096 52.6133Z" stroke="#DE051F" stroke-miterlimit="10"/>
<path d="M167.533 40.8245C167.533 40.8245 173.216 35.4047 181.454 40.0263C181.454 40.0263 177.909 46.3445 167.533 40.8245Z" stroke="#DE051F" stroke-miterlimit="10"/>
<path d="M184.185 184.185C218.093 150.278 218.093 95.3027 184.185 61.3951C150.278 27.4876 95.3026 27.4876 61.395 61.3951C27.4875 95.3027 27.4875 150.278 61.395 184.185C95.3026 218.093 150.278 218.093 184.185 184.185Z" fill="#0064E1"/>
<path d="M182.016 105.131L183.429 108.998L186.195 107.987L184.781 104.12L182.016 105.131Z" fill="#1E88E5"/>
<path d="M192.134 103.625L193.552 107.505C193.721 107.966 193.485 108.473 193.024 108.641L187.211 110.766L186.195 107.988L190.075 106.569L189.368 104.636L192.134 103.625Z" fill="#4CAF50"/>
<path d="M190.715 99.7458L192.134 103.626L189.368 104.637L188.661 102.703L184.781 104.121L183.766 101.343L189.579 99.2177C190.04 99.0492 190.547 99.2848 190.715 99.7458Z" fill="#FBC02D"/>
<path d="M186.195 107.988L187.206 110.753L185.273 111.46C184.812 111.629 184.305 111.393 184.136 110.932L183.43 108.999L186.195 107.988Z" fill="#1565C0"/>
<path d="M183.766 101.342L184.781 104.121L182.016 105.132L183.766 101.342Z" fill="#E53935"/>
<path d="M192.416 103.523L192.991 105.969L189.368 104.637L191.278 101.282L192.416 103.523Z" fill="#2E7D32"/>
<path d="M193.228 98.8713L196.036 106.554C196.12 106.785 195.898 107.011 195.668 106.936L192.992 105.969L191.279 101.282L192.7 98.8175C192.823 98.5983 193.139 98.628 193.228 98.8713Z" fill="#4CAF50"/>
<g opacity="0.2">
<path opacity="0.4" d="M129.88 208.396H129.815L129.234 208.461L130.332 208.267C129.17 208.332 127.62 208.461 126.458 208.461L125.813 208.654L124.328 208.719C124.522 208.59 124.845 208.396 124.974 208.138C126.458 208.073 128.46 208.009 130.009 207.944L129.557 208.202L131.687 208.073L129.88 208.396Z" fill="white"/>
<path d="M115.226 207.88C114 207.815 112.321 207.621 111.03 207.492C108.061 205.878 107.932 205.814 105.479 203.232C107.351 203.425 109.804 203.619 111.676 203.748C113.419 206.524 113.483 206.653 115.226 207.88Z" fill="white"/>
<path d="M107.544 206.137C104.123 205.685 103.542 205.62 100.766 205.104C94.6976 201.553 92.1799 199.423 87.0801 191.999C92.3736 192.903 93.2128 193.032 98.119 193.613C101.411 200.262 103.09 202.715 107.544 206.137Z" fill="white"/>
<path d="M112.902 208.138C112.127 208.009 111.03 207.88 110.255 207.815L109.093 207.621L108.125 207.428C109.158 207.557 110.514 207.75 111.611 207.88L112.902 208.138Z" fill="white"/>
<path opacity="0.4" d="M123.617 208.719H122.133C119.68 208.654 119.68 208.654 118.388 208.59C115.871 208.461 115.806 208.396 114.515 208.332L113.741 208.267C112.901 208.073 111.868 207.88 111.094 207.557C112.32 207.686 113.999 207.815 115.29 207.944C118.388 208.138 120.067 208.202 124.069 208.202C123.94 208.332 123.811 208.654 123.617 208.719Z" fill="white"/>
<path d="M117.421 207.557C117.421 207.621 117.55 207.88 116.646 207.815C115.485 207.751 114.71 207.363 115.033 207.105C115.42 206.847 117.227 207.17 117.421 207.557Z" fill="white"/>
<path opacity="0.4" d="M121.294 207.686C121.294 207.686 121.229 208.009 120.261 208.009C119.228 207.944 118.712 207.621 118.905 207.428C119.293 206.976 121.294 207.234 121.294 207.686Z" fill="white"/>
<path opacity="0.4" d="M125.168 207.686C125.168 207.751 124.91 208.009 123.877 208.009C122.973 208.009 122.586 207.751 122.779 207.492C123.231 207.04 125.232 207.105 125.168 207.557C125.168 207.621 125.168 207.686 125.168 207.686Z" fill="white"/>
<path opacity="0.4" d="M134.076 200.198C131.817 200.327 128.783 200.391 126.523 200.456C126.911 196.776 126.975 196.066 127.363 191.741C130.074 191.676 133.754 191.547 136.465 191.418C135.303 196.518 135.238 196.841 134.076 200.198Z" fill="white"/>
<path opacity="0.4" d="M124.973 197.745C122.52 197.745 119.293 197.745 116.84 197.68C116.323 193.484 116.259 192.709 115.807 187.932C118.647 187.997 122.52 188.061 125.361 187.997C125.167 193.032 125.167 193.936 124.973 197.745Z" fill="white"/>
<path opacity="0.4" d="M135.948 203.167C133.947 203.296 131.236 203.425 129.234 203.555L129.686 201.941C131.817 201.812 134.722 201.682 136.852 201.553L135.948 203.167Z" fill="white"/>
<path opacity="0.4" d="M156.605 182.639C154.216 182.961 150.988 183.349 148.535 183.607L149.503 179.346C152.021 179.088 155.378 178.701 157.896 178.313L156.605 182.639Z" fill="white"/>
<path opacity="0.4" d="M125.362 187.674C122.457 187.674 118.648 187.609 115.743 187.545C115.356 181.606 115.291 181.412 115.162 177.668C118.325 177.733 122.521 177.797 125.62 177.797C125.491 184.446 125.491 184.446 125.362 187.674Z" fill="white"/>
<path d="M114.516 194.969C108.706 194.71 105.22 194.517 98.2479 193.742C96.1176 188.449 95.2138 186.318 93.4062 178.249C99.9909 178.959 103.993 179.346 112.966 179.734C113.418 185.866 113.677 188.9 114.516 194.969Z" fill="white"/>
<path opacity="0.4" d="M145.695 189.998C139.497 190.514 135.753 190.837 127.49 191.031C127.813 185.608 128.007 182.897 128.329 174.311C135.753 174.117 140.272 173.988 149.504 173.149C148.342 179.798 147.761 183.091 145.695 189.998Z" fill="white"/>
<path opacity="0.4" d="M90.7583 175.602C82.6244 174.505 79.7194 174.053 71.7146 172.245C71.0045 169.663 70.0362 166.177 69.3906 163.53C76.8145 165.144 79.6549 165.725 89.3381 167.016C89.7255 169.599 90.2419 173.02 90.7583 175.602Z" fill="white"/>
<path opacity="0.3" d="M77.7822 164.24C72.5533 163.208 68.0344 162.304 62.0954 160.561C60.6752 152.943 59.965 149.07 59.8359 139.58C64.5485 140.872 68.6154 142.034 76.1684 143.389C76.2975 150.619 76.4266 155.784 77.7822 164.24Z" fill="white"/>
<path d="M152.087 199.036C147.503 199.746 146.277 199.939 140.531 200.52L141.37 198.971C146.535 198.455 147.891 198.261 153.507 197.357L152.087 199.036Z" fill="white"/>
<path d="M147.115 203.361C143.112 204.006 142.467 204.071 138.916 204.458L139.045 204.329L137.625 204.458L138.464 203.49C142.789 203.038 143.951 202.909 148.728 202.134L147.115 203.361Z" fill="white"/>
<path d="M83.981 163.272C83.981 163.982 83.5937 165.144 81.8507 164.951C79.3976 164.434 78.3648 161.658 79.785 160.625C81.2697 159.528 83.9165 161.206 83.981 163.272Z" fill="white"/>
<path d="M142.403 193.097C142.209 193.548 141.37 194.388 139.82 194.517C138.077 194.581 137.625 193.548 138.4 192.645C139.562 191.289 142.338 191.225 142.532 192.451C142.532 192.709 142.467 192.903 142.403 193.097Z" fill="white"/>
<path d="M83.2067 155.59C83.2067 156.365 82.6903 157.591 80.9473 157.398C78.4297 156.881 77.5259 153.912 79.0752 152.75C80.6245 151.652 83.2713 153.395 83.2067 155.59Z" fill="white"/>
<path opacity="0.4" d="M173.196 191.418C170.355 192.645 169.581 192.967 165.449 194.259C167.063 192.58 169.129 190.256 170.614 188.449C174.745 187.157 175.391 186.899 178.425 185.673L179.329 185.285C177.521 187.157 175.391 189.998 173.196 191.418Z" fill="white"/>
<path opacity="0.4" d="M193.789 171.148C192.627 172.697 191.142 174.892 189.916 176.377L187.527 179.217C185.655 181.025 185.59 181.089 183.977 182.187C185.655 179.992 187.914 177.087 189.464 174.827C192.369 172.697 192.433 172.697 194.112 170.631L193.789 171.148Z" fill="white"/>
<path opacity="0.4" d="M207.28 138.289C206.441 141.904 205.215 146.746 204.182 150.297C205.215 146.746 206.441 141.904 207.216 138.289L207.474 137.192L207.28 138.289Z" fill="white"/>
<path opacity="0.4" d="M181.201 185.737C182.557 184.382 184.364 182.639 185.655 181.283L186.366 180.508C184.816 182.122 182.815 184.252 181.201 185.737Z" fill="white"/>
<path opacity="0.4" d="M174.293 191.547L175.842 190.321L176.23 189.998L174.293 191.547Z" fill="white"/>
<path opacity="0.4" d="M181.717 147.198C181.459 150.167 181.071 154.105 180.619 157.075C177.973 157.72 174.422 158.56 171.775 159.076C172.744 150.555 172.744 150.038 172.873 142.356C175.584 141.775 179.199 140.936 181.911 140.291C181.846 142.356 181.846 145.132 181.717 147.198Z" fill="white"/>
<path opacity="0.4" d="M192.562 153.137C187.01 155.267 186.881 155.332 180.555 157.075C180.942 154.105 181.394 150.168 181.652 147.198C188.43 145.261 188.56 145.261 193.853 143.196C193.595 146.165 193.078 150.167 192.562 153.137Z" fill="white"/>
<path opacity="0.4" d="M188.108 168.178C186.171 168.888 183.653 169.857 181.717 170.502C184.234 162.949 184.428 162.497 185.719 155.59C187.785 154.88 190.496 153.912 192.562 153.137C190.69 161.335 190.561 161.852 188.108 168.178Z" fill="white"/>
<path opacity="0.4" d="M202.116 135.901C199.856 137.192 196.758 138.806 194.369 139.903C193.143 126.411 193.078 125.895 190.689 114.985C192.949 113.888 195.983 112.403 198.178 111.112C201.018 124.087 201.212 124.862 202.116 135.901Z" fill="white"/>
<path opacity="0.4" d="M204.182 149.716C202.504 152.04 200.632 154.622 192.691 158.172C193.337 155.332 194.176 151.459 194.693 148.554C196.306 147.779 198.437 146.681 199.986 145.842C203.214 143.647 204.699 142.679 206.506 139.839C205.861 142.808 205.473 147.004 204.182 149.716Z" fill="white"/>
<path opacity="0.4" d="M182.491 183.542C181.716 183.994 180.619 184.575 179.844 184.963L179.263 185.221L178.359 185.608C182.426 180.444 184.621 177.603 187.849 171.019C189.334 170.309 191.27 169.34 192.626 168.566C190.625 172.374 185.46 181.218 182.491 183.542Z" fill="white"/>
<path opacity="0.4" d="M179.457 172.697C177.133 173.343 174.099 174.117 171.775 174.698C174.035 167.404 174.164 166.952 175.39 160.238C177.908 159.657 181.2 158.818 183.654 158.108C181.781 166.112 181.717 166.564 179.457 172.697Z" fill="white"/>
<path opacity="0.4" d="M158.024 196.131L156.346 196.453C159.896 191.87 160.219 191.483 162.801 186.77L164.802 186.383C160.154 194.129 158.541 195.808 158.024 196.131Z" fill="white"/>
<path opacity="0.4" d="M155.315 196.647L153.572 196.97C156.865 192.451 157.123 192.064 159.511 187.351L161.577 186.964C157.252 194.71 155.767 196.389 155.315 196.647Z" fill="white"/>
<path opacity="0.4" d="M152.409 197.164L150.537 197.422C153.571 192.838 153.765 192.58 155.895 187.932L158.09 187.609C155.379 192.967 155.185 193.419 152.409 197.164Z" fill="white"/>
<path opacity="0.4" d="M203.02 140.807C202.891 141.646 202.504 143.196 201.729 143.777C200.89 144.293 200.761 142.615 201.148 140.936C201.6 139.193 202.504 138.096 202.891 138.806C203.149 139.193 203.149 139.968 203.02 140.807Z" fill="white"/>
<path opacity="0.4" d="M195.338 162.756C194.692 164.176 193.207 166.887 191.4 167.92C189.657 168.695 189.98 166.5 190.561 164.886C191.916 161.206 195.273 157.72 195.983 159.334C196.241 159.915 195.983 161.206 195.338 162.756Z" fill="white"/>
<path opacity="0.4" d="M138.917 204.458L136.98 206.137C136.012 206.718 134.656 207.428 133.624 207.815H133.365L131.687 207.944L129.557 208.073L130.009 207.815L130.331 207.621C132.139 206.072 132.139 206.072 132.978 204.717L134.915 204.587L137.691 204.329L139.111 204.2L138.917 204.458Z" fill="white"/>
<path opacity="0.4" d="M129.234 208.461C128.201 208.525 126.91 208.59 125.877 208.654H125.812L126.458 208.461C127.62 208.396 129.169 208.332 130.331 208.267L129.234 208.461Z" fill="white"/>
<path opacity="0.4" d="M205.603 138.418C205.473 139.258 205.151 140.807 204.57 141.452C204.053 141.904 203.989 140.678 204.118 139.903C204.311 137.902 205.086 135.836 205.538 136.288C205.732 136.546 205.796 137.385 205.603 138.418Z" fill="white"/>
<path opacity="0.4" d="M207.28 135.965C207.151 136.805 206.893 138.418 206.57 138.999C206.505 139.064 206.376 139.258 206.312 138.935C206.118 137.773 206.957 133.448 207.345 133.77C207.474 133.9 207.474 134.803 207.28 135.965Z" fill="white"/>
<path d="M91.534 200.779C90.0493 200.391 88.0481 199.939 86.6279 199.488C81.528 195.55 81.2052 195.356 77.3965 191.16C79.2686 191.676 81.7217 192.322 83.5938 192.774C87.5316 197.486 87.7899 197.745 91.534 200.779Z" fill="white"/>
<path d="M82.7544 196.518C79.3976 195.421 78.4938 195.162 75.2015 193.742C73.2648 192.064 70.6181 189.804 68.8105 187.997C70.2953 188.642 72.232 189.417 73.7167 189.998C74.8142 190.385 76.2989 190.837 77.3964 191.16C78.9457 192.838 81.076 195.033 82.7544 196.518Z" fill="white"/>
<path opacity="0.7" d="M67.7117 182.316C69.3901 184.704 71.7786 187.803 73.6507 189.998C72.166 189.417 70.1647 188.642 68.7445 187.997C63.7092 182.316 63.3865 181.993 59.8359 176.506L61.8371 177.41C62.9346 177.862 64.4193 178.443 65.5813 178.83L67.7117 182.316Z" fill="white"/>
<path opacity="0.7" d="M75.7827 184.704C77.0092 186.576 78.6231 189.094 79.9142 190.966C78.1066 190.45 75.6536 189.804 73.846 189.223C72.3612 187.351 70.4891 184.833 69.1335 182.832C68.2297 181.348 67.0677 179.346 66.2285 177.797C68.2943 178.443 71.1347 179.217 73.2005 179.798C73.9751 181.283 74.8789 183.284 75.7827 184.704Z" fill="white"/>
<path d="M68.0989 175.538C68.2926 176.119 68.3571 177.087 67.1306 176.764C65.1294 176.054 63.6446 173.214 64.6775 172.762C65.5812 172.374 67.5824 173.988 68.0989 175.538Z" fill="white"/>
<path d="M59.1277 160.625C59.7733 162.949 60.677 166.113 61.4517 168.372L58.8049 167.404C56.8683 166.564 54.2215 165.467 52.3494 164.499C49.3154 155.977 49.2508 155.848 47.5078 146.682C51.7039 148.747 52.4786 149.07 57.2556 150.813C57.7721 153.783 58.3531 157.72 59.1277 160.625Z" fill="white"/>
<path d="M52.7364 167.597L50.7998 166.371C47.3783 158.56 45.9581 155.332 44.0215 144.551L46.0872 145.842C47.7657 154.493 48.4112 158.043 52.7364 167.597Z" fill="white"/>
<path d="M44.2786 157.72L43.2458 155.332L40.9863 149.135L41.3091 149.909C42.1483 152.298 43.2458 155.461 44.2786 157.72Z" fill="white"/>
<path opacity="0.7" d="M41.2456 119.504L40.2773 118.536L40.2128 118.794C38.2761 116.341 38.2761 116.341 37.8242 115.05L38.5343 110.595C38.4052 109.821 38.147 108.852 38.147 108.078L38.728 105.108V106.012C39.6963 102.332 41.1811 97.4906 42.4722 93.8755C43.0532 96.1349 43.2468 97.1678 45.9582 99.8146C43.6342 107.303 42.2785 111.37 41.2456 119.504Z" fill="white"/>
<path d="M37.8883 115.114C37.1782 123.7 37.1137 124.41 37.4365 130.026C37.3074 129.445 37.1137 128.735 37.0491 128.154L36.8555 122.602C37.2428 113.307 37.2428 113.177 38.082 108.142L38.2757 107.174L38.1466 108.078C38.2111 108.852 38.3402 109.885 38.5339 110.595L37.8883 115.114Z" fill="white"/>
<path d="M39.3087 143.196L38.9859 141.904L38.0176 136.934L38.1467 137.45L39.3087 143.196Z" fill="white"/>
<path d="M37.8245 134.803C37.8891 135.32 37.9536 136.224 37.9536 136.417C37.9536 136.417 37.8891 136.353 37.8891 136.288C37.8891 136.159 37.8245 135.901 37.6954 135.126L37.3081 132.157C37.2435 131.382 37.179 131.124 37.2435 130.995C37.3726 131.188 37.76 133.835 37.8245 134.803Z" fill="white"/>
<path d="M123.876 39.0682C124.328 39.0682 124.974 39.1328 125.749 39.2619L122.973 40.2302L123.876 39.0682Z" fill="white"/>
<path d="M103.154 40.4239L105.22 40.1656L103.154 40.4239Z" fill="white"/>
<path opacity="0.7" d="M105.154 40.1656L105.219 40.101L105.606 39.8428C113.546 39.3263 114.515 39.3263 122.907 40.1656C114.321 39.5846 113.417 39.52 105.154 40.1656Z" fill="white"/>
<path opacity="0.7" d="M105.025 47.525C104.573 47.3313 103.928 47.1376 103.411 46.944C100.894 48.3642 97.6013 50.2363 95.1482 51.7856C95.8583 52.0438 96.7621 52.3666 97.4076 52.6248L96.8267 53.0767C95.9874 52.7539 94.89 52.3666 94.0508 52.0438C101.281 47.5895 101.733 47.3313 108.124 44.5554C108.511 44.6845 108.963 44.8782 109.35 45.0073L108.64 45.3946L108.834 45.4592L105.025 47.525Z" fill="white"/>
<path opacity="0.4" d="M85.8516 52.1729C85.4642 51.7856 84.9478 51.2046 84.625 50.7527C93.0817 46.6212 93.4691 46.4275 101.538 43.7808C101.732 44.039 101.99 44.3618 102.184 44.5554C93.5336 47.9768 93.2108 48.1059 85.8516 52.1729Z" fill="white"/>
<path d="M102.25 44.62L106.252 43.3289L102.25 44.62Z" fill="white"/>
<path opacity="0.4" d="M74.4256 68.3762C71.7143 66.956 71.2624 66.7623 69.584 65.4712C79.009 56.8854 83.5924 53.5285 95.6642 47.5895C96.6971 48.2996 96.8908 48.4932 98.1173 49.0742C88.5632 54.8842 84.0443 58.0474 74.4256 68.3762Z" fill="white"/>
<path opacity="0.7" d="M107.349 44.1035C107.026 43.9099 106.639 43.6516 106.381 43.458C114.967 41.1986 115.677 41.0694 122.907 40.2302C114.644 41.7795 113.998 41.9087 107.349 44.1035Z" fill="white"/>
<path opacity="0.4" d="M71.6511 62.5662C71.1347 61.9852 70.4245 61.2106 69.9727 60.565C77.1383 55.1424 77.5902 54.8196 84.1102 51.0754C84.433 51.5273 84.9494 52.1083 85.3368 52.5602C77.8484 57.4018 77.3965 57.6601 71.6511 62.5662Z" fill="white"/>
<path opacity="0.4" d="M76.6862 55.2715C76.1698 53.9159 75.9761 53.3349 76.6217 51.6565C84.8847 47.2022 85.0784 47.1376 93.6642 44.1035C93.3414 45.0073 93.2769 45.3946 93.6642 46.4275C84.8201 50.3008 84.6265 50.3654 76.6862 55.2715Z" fill="white"/>
<path opacity="0.7" d="M110.707 44.1035C110.384 43.9744 109.868 43.7808 109.545 43.5871C117.356 41.1986 117.873 41.0694 122.972 40.2302C119.551 41.0694 115.032 42.296 111.804 43.5871C111.417 43.7808 111.03 44.1035 110.707 44.1035Z" fill="white"/>
<path opacity="0.7" d="M117.421 42.1023C117.227 42.0378 117.033 41.9732 116.84 41.9087C115.097 42.5542 112.708 43.3934 111.03 44.1681L110.771 44.1035C117.873 41.3922 118.26 41.2631 122.908 40.2302L119.293 41.2631L119.486 41.3277L117.421 42.1023Z" fill="white"/>
<path d="M97.7966 44.8781C97.1511 45.0718 95.6663 45.5882 95.4727 45.3946C95.4727 45.0072 100.121 43.5225 100.443 43.7807C100.379 44.0389 97.7966 44.8781 97.7966 44.8781Z" fill="white"/>
<path d="M97.5368 44.1681C96.7621 44.4264 95.4065 44.7491 95.2773 44.62C95.471 44.2327 99.7316 42.9416 100.313 43.1353C100.313 43.1353 100.313 43.1353 100.313 43.1998C99.9899 43.3935 97.6013 44.1036 97.5368 44.1681Z" fill="white"/>
<path d="M97.603 43.3934C96.3119 43.7161 95.6018 43.9098 95.4727 43.7807C95.7954 43.3934 99.9915 42.2314 100.443 42.425C100.379 42.6187 98.3776 43.1351 97.603 43.3934Z" fill="white"/>
<path opacity="0.4" d="M62.9355 61.7916C63.3874 61.0815 64.033 60.2423 64.5494 59.5967C70.9404 54.2386 71.3277 53.9159 77.2668 50.3008C76.8794 50.7527 76.363 51.4628 76.0402 51.9792C68.8101 56.7563 68.3582 57.0791 62.9355 61.7916Z" fill="white"/>
<path d="M42.5372 93.9401C41.2461 97.5551 39.7613 102.397 38.793 106.076V105.173L38.9221 104.011C39.6967 101.106 40.7296 97.2324 41.6334 94.3919L42.4081 92.2616L44.5384 87.2909C44.3447 88.1301 44.151 89.2921 44.151 90.1959L42.5372 93.9401Z" fill="white"/>
<path d="M47.7009 96.0058C45.5706 93.8109 44.6023 92.8426 44.1504 90.1313C44.2149 89.2275 44.3441 88.0655 44.5377 87.2263C45.8934 84.5795 47.7655 81.0936 49.2502 78.5114C48.7338 80.6417 48.1528 83.0948 52.2198 86.7744C50.7996 89.5503 48.9275 93.2299 47.7009 96.0058Z" fill="white"/>
<path opacity="0.4" d="M84.4316 47.1376C84.819 46.6857 85.3354 46.1693 85.7873 45.782L88.9505 44.4909L88.4986 44.8782C96.3098 42.296 96.4389 42.2314 100.7 41.3922C100.57 41.5859 100.312 41.7795 100.183 41.9732C91.7264 44.1681 91.2099 44.2972 84.4316 47.1376Z" fill="white"/>
<path opacity="0.4" d="M79.5254 49.5262C79.9773 49.0098 80.5583 48.4288 81.0747 47.9769L84.7544 46.2339C84.3025 46.6212 83.7215 47.2022 83.3987 47.6541L79.5254 49.5262Z" fill="white"/>
<path d="M199.728 107.303C196.113 109.691 196.049 109.691 191.207 111.886C186.495 113.694 185.914 113.887 181.524 115.179L181.007 112.855C180.039 109.11 178.683 104.204 177.521 100.525C182.621 98.9753 189.012 97.0386 194.435 93.2299C197.921 101.235 198.115 101.687 199.728 107.303Z" fill="black"/>
<path opacity="0.4" d="M49.7656 79.9316C49.8302 79.0924 49.8947 77.9949 50.153 77.2203C55.0591 70.3774 55.1237 70.2483 58.2869 66.8269C58.0932 67.537 57.9641 68.5053 57.9641 69.2154C52.4124 75.8001 52.2833 75.9292 49.7656 79.9316Z" fill="white"/>
<path opacity="0.4" d="M48.2168 80.1252L48.475 79.6733C50.3471 76.6392 52.9939 72.7014 55.1242 69.861C60.5468 63.47 60.6114 63.3409 64.0328 60.1132C63.3872 60.8233 62.6126 61.7916 62.0961 62.6308C56.028 68.8281 53.5749 71.3457 48.2168 80.1252Z" fill="white"/>
<path d="M75.0723 89.6794C74.1039 91.4869 72.1027 91.9388 71.5863 90.454C71.0699 88.9047 72.7483 86.3225 74.5558 86.7099C75.7824 87.0972 75.5887 88.6465 75.0723 89.6794ZM80.3658 93.8755C81.3987 91.0996 82.7543 87.4845 83.9163 84.7732C82.6252 84.515 80.8822 84.1277 79.5266 83.8049L81.6569 79.6088L80.2367 79.2215C79.2684 81.029 77.9773 83.4175 77.138 85.2896C75.2659 84.7732 72.7483 84.0631 70.8762 83.4175C71.9091 81.61 73.3293 79.2215 74.4267 77.4785C70.4889 76.0583 70.2952 75.9292 68.294 75.0254C63.4524 81.9328 63.065 82.5138 60.2246 87.6136C64.0979 89.3566 68.9395 91.4869 80.3658 93.8755Z" fill="white"/>
<path d="M45.8281 84.5795L46.9901 82.2555L46.9256 82.4492L45.8281 84.5795Z" fill="white"/>
<path opacity="0.4" d="M59.6434 87.2908C58.3523 86.5807 56.6094 85.5478 55.3828 84.7086C60.2244 77.1557 60.5472 76.7038 65.3888 70.9584C66.4217 71.6685 67.9065 72.5722 69.0039 73.1532C63.7104 80.3834 63.3876 80.7707 59.6434 87.2908Z" fill="white"/>
<path d="M113.871 37.3252L115.679 37.1315C116.712 37.067 118.067 37.0024 119.1 36.9379C119.487 37.0024 120.004 37.067 120.327 37.2606C118.777 37.3252 118.455 37.3898 117.099 37.5189C116.131 37.3898 114.839 37.2606 113.871 37.3252Z" fill="white"/>
<path d="M120.26 37.0024C122.196 36.9379 122.39 36.9379 123.81 36.9379L123.746 37.067C124.262 37.067 124.908 37.067 125.424 37.1315L124.65 37.7125L124.198 38.229C123.875 38.229 123.488 38.229 123.165 38.229C122.261 38.229 122.261 38.229 121.745 38.229C121.293 37.8416 120.776 37.3252 120.26 37.0024Z" fill="white"/>
<path d="M73.7811 105.366C67.1965 103.752 66.9382 103.688 61.5156 101.88C62.6131 98.9753 64.0978 95.102 65.3244 92.2616C69.8432 93.7464 70.8761 94.0691 76.8152 95.4893C75.9114 98.4589 74.6203 102.397 73.7811 105.366Z" fill="white"/>
<path opacity="0.3" d="M62.548 126.605C58.0292 125.249 54.0913 124.023 49.4434 121.828C50.8636 113.629 51.5737 109.498 54.866 100.525C58.2228 102.009 61.1278 103.301 67.0023 104.979C64.8075 113.048 63.6455 117.115 62.548 126.605Z" fill="white"/>
<path d="M129.298 37.1316L131.041 37.2607L132.784 37.4544C131.363 37.4544 129.427 37.5835 128.007 37.8417C127.49 37.7772 126.845 37.7126 126.328 37.7126C127.232 37.3898 128.394 37.067 129.298 37.1316Z" fill="white"/>
<path opacity="0.4" d="M77.9766 49.5261L79.074 48.8806L82.8182 46.8148C82.1726 47.1376 81.398 47.654 80.7524 48.0414L77.9766 49.5261Z" fill="white"/>
<path opacity="0.4" d="M82.4316 47.073C83.2063 46.6211 84.2392 46.0401 85.0138 45.5882L88.758 43.8452C86.6277 44.8135 86.4986 44.8781 85.2721 45.7173L82.4316 47.073Z" fill="white"/>
<path opacity="0.4" d="M87.1445 44.9427C88.9521 43.8452 88.9521 43.8452 91.2115 42.8769L93.8583 41.9086C91.857 42.7478 91.7925 42.8123 90.566 43.5224L90.2432 43.6516L89.7913 43.9098L87.1445 44.9427Z" fill="white"/>
<path d="M52.8011 102.655C52.4783 103.43 51.7037 104.592 50.7353 104.14C49.2506 103.107 50.4126 99.4273 51.9619 99.169C53.0593 99.0399 53.5758 100.912 52.8011 102.655Z" fill="white"/>
<path opacity="0.4" d="M67.1968 57.2728C67.0032 57.4664 66.5513 57.7892 66.2285 58.0474L69.8436 55.0779C69.8436 55.1424 68.4234 56.2399 67.1968 57.2728Z" fill="white"/>
<path d="M50.4111 110.724C50.1529 111.499 49.4427 112.726 48.4744 112.274C46.9251 111.241 47.8289 107.432 49.2491 107.174C50.3465 106.916 50.9921 108.852 50.4111 110.724Z" fill="white"/>
<path d="M48.6698 118.923C48.4761 119.697 47.8952 120.924 46.9268 120.537C45.3775 119.504 45.8939 115.566 47.2496 115.308C48.347 115.05 49.1217 117.051 48.6698 118.923Z" fill="white"/>
<path d="M102.186 41.134L100.765 41.3922C92.5669 43.3288 92.5669 43.3288 88.5645 44.8782L89.0163 44.4908L89.791 43.9098L90.2429 43.6516L90.5657 43.5225C97.9249 41.2631 98.3768 41.134 103.154 40.4239L105.155 40.1656L105.091 40.2302L104.703 40.4884L104.251 40.8112L102.186 41.134Z" fill="white"/>
<path d="M43.5042 128.542C43.5042 131.705 43.5687 135.901 43.7624 139.064C42.6004 138.16 41.0511 136.934 39.9536 135.965C39.5663 127.767 39.5018 126.282 40.2119 118.858L40.2764 118.6L41.2447 119.568C42.084 120.214 43.1814 121.118 44.0206 121.699C43.8915 123.765 43.5687 126.476 43.5042 128.542Z" fill="white"/>
<path opacity="0.3" d="M53.4473 143.906C47.9602 141.582 47.7665 141.517 43.7641 139.064C43.635 135.901 43.5059 131.705 43.5059 128.542C47.831 131.124 47.8956 131.188 53.2537 133.383C53.2537 136.546 53.2537 140.742 53.4473 143.906Z" fill="white"/>
<path d="M120.713 43.0706L121.358 42.1669C121.1 42.1669 120.777 42.1023 120.583 42.1023L118.453 44.1681H118.647L119.809 42.9415C120.067 43.0061 120.454 43.0061 120.713 43.0706Z" fill="white"/>
<path d="M123.36 40.553C123.231 40.553 123.166 40.553 122.973 40.553L122.908 40.2302L123.36 40.553Z" fill="white"/>
<path d="M125.426 42.4896C124.716 42.5542 124.651 42.5542 124.005 42.6187L123.36 41.134C123.231 41.134 123.102 41.134 123.037 41.134V40.9403C123.295 40.9403 123.489 40.9403 123.812 40.8757L125.426 42.4896Z" fill="white"/>
<path d="M120.969 41.6505C120.324 41.5859 120.001 41.5213 119.485 41.3922L119.291 41.3277L122.906 40.2948L120.969 41.6505Z" fill="white"/>
<path opacity="0.3" d="M68.4878 132.802C61.3867 131.059 61.064 130.93 55.1895 128.993L55.4477 126.282C61.7095 128.348 61.8386 128.412 68.6815 130.091L68.4878 132.802Z" fill="white"/>
<path d="M140.21 46.5566L138.402 45.6528L140.21 46.5566Z" fill="white"/>
<path d="M153.506 42.877C154.022 43.1998 154.733 43.6516 155.249 44.039C147.115 41.5859 146.663 41.4568 139.498 40.4239C139.239 40.2302 138.852 39.972 138.594 39.8429C143.758 40.2948 148.729 41.3277 153.506 42.877Z" fill="white"/>
<path opacity="0.3" d="M176.358 57.4018C176.423 57.9828 176.423 58.822 176.358 59.403C169.128 54.1095 168.676 53.7867 162.092 50.1717C162.156 49.7198 162.156 49.1388 162.092 48.6869C169.968 52.883 170.419 53.1412 176.358 57.4018Z" fill="white"/>
<path d="M148.213 44.5554C149.246 44.8782 150.344 45.3946 150.344 45.5883C150.086 45.7819 145.373 44.2326 145.373 43.9098C145.567 43.7807 147.051 44.1681 148.213 44.5554Z" fill="white"/>
<path d="M147.89 45.3301C148.923 45.7174 149.956 46.2338 149.891 46.3629C149.568 46.5566 144.92 44.8782 144.985 44.5554C145.179 44.4908 146.663 44.8782 147.89 45.3301Z" fill="white"/>
<path d="M147.245 46.0402C148.278 46.4275 149.181 46.944 149.117 47.1376C148.665 47.3313 144.534 45.6529 144.34 45.201C144.404 45.0719 145.954 45.5238 147.245 46.0402Z" fill="white"/>
<path opacity="0.4" d="M90.0483 61.5979C88.1762 63.7928 85.7231 66.6977 83.9801 68.9572C82.5599 68.5053 80.6878 67.8597 79.2676 67.4079C85.0775 61.0815 85.4649 60.6941 90.8229 56.1107C91.8558 56.498 93.276 56.9499 94.3089 57.2727C93.0178 58.4993 91.2748 60.1777 90.0483 61.5979Z" fill="white"/>
<path opacity="0.4" d="M86.5619 85.2896L83.9151 84.7732C82.624 84.515 80.881 84.1276 79.5254 83.8049L81.6557 79.6088C83.3341 76.6392 85.6581 72.7014 87.4657 69.861C89.2086 70.2483 91.4681 70.7647 93.2111 71.0875C89.4669 78.3177 89.2732 78.705 86.5619 85.2896Z" fill="white"/>
<path opacity="0.3" d="M179.459 70.2483C178.491 70.8939 177.2 71.6685 176.167 72.2495C170.357 65.5358 170.034 65.1485 164.547 60.1777C165.322 59.7259 166.354 59.1449 167.129 58.6284C173.972 64.3738 174.359 64.6966 179.459 70.2483Z" fill="white"/>
<path d="M94.4387 92.3907C91.9856 92.0679 88.6933 91.5515 86.2402 91.1642C89.1452 83.0302 89.3389 82.5783 92.1147 76.252C94.1805 76.5747 96.8918 76.9621 98.9576 77.2848C96.6982 84.1922 96.3108 85.4188 94.4387 92.3907Z" fill="white"/>
<path d="M205.151 110.337C204.312 111.305 203.15 112.467 202.246 113.307C200.116 104.527 199.987 104.011 197.211 96.9095C198.05 96.1349 199.212 95.0374 199.922 94.1337C203.279 102.526 203.473 102.978 205.151 110.337Z" fill="white"/>
<path opacity="0.4" d="M208.701 122.925L208.507 128.929L208.185 130.543C208.443 121.311 208.443 120.795 207.539 113.177C207.733 112.274 207.862 111.047 207.797 110.143C208.185 113.952 208.701 119.052 208.701 122.925Z" fill="white"/>
<path opacity="0.4" d="M80.171 79.2215C79.2027 81.029 77.9116 83.4176 77.0724 85.2897C75.2003 84.7732 72.6826 84.0631 70.8105 83.4176C71.8434 81.61 73.2636 79.2215 74.3611 77.4785C75.975 75.09 78.1698 71.9268 79.9128 69.6028C81.4621 70.0547 83.5279 70.7002 85.0772 71.1521C83.5925 73.5406 81.5912 76.7684 80.171 79.2215Z" fill="white"/>
<path d="M163.254 57.1437C162.415 57.5956 161.317 58.1766 160.478 58.5639L157.186 55.8526C157.96 55.4653 158.929 54.9489 159.703 54.5615L163.254 57.1437Z" fill="white"/>
<path opacity="0.3" d="M176.296 81.8682C174.876 82.3847 172.939 83.0302 171.454 83.4821C167.323 76.2519 165.45 72.9596 159.705 65.7295C160.803 65.4067 162.287 64.8903 163.385 64.5029C168.807 70.7002 171.26 73.5406 176.296 81.8682Z" fill="white"/>
<path opacity="0.3" d="M179.911 88.3883C178.361 88.9047 176.295 89.6148 174.746 90.0667L172.229 84.9023C173.713 84.4504 175.65 83.8049 177.135 83.2885L179.911 88.3883Z" fill="white"/>
<path opacity="0.3" d="M194.563 83.6112C193.853 84.4504 192.82 85.4833 192.045 86.1934C187.462 78.7695 187.333 78.6404 184.363 74.8317C185.073 74.1861 185.977 73.2824 186.623 72.5077" fill="white"/>
<path opacity="0.3" d="M193.273 90.6477C190.626 92.3907 188.948 93.4236 183.977 95.4248C180.233 87.2263 178.683 83.8694 172.68 75.09C175.778 73.7989 177.65 73.0242 180.297 71.1521C185.913 78.2532 188.237 81.1581 193.273 90.6477Z" fill="white"/>
<path opacity="0.7" d="M111.546 46.1693C110.255 45.8466 109.932 45.782 108.834 45.4592L108.641 45.3947L109.351 45.0074L111.029 44.2327C112.772 43.5226 115.096 42.5543 116.839 41.9733C117.033 42.0378 117.226 42.1024 117.42 42.1669C117.614 42.2315 117.872 42.296 118.066 42.3606C116.129 43.3935 113.482 44.8782 111.546 46.1693Z" fill="white"/>
<path opacity="0.3" d="M198.308 81.8037L200.309 85.7415L200.374 85.9352C199.018 83.2885 197.081 79.867 195.597 77.3494L195.016 76.252L198.308 81.8037Z" fill="white"/>
<path d="M126.91 51.6564C124.457 51.721 123.876 51.721 121.035 51.721C121.229 50.1071 121.552 47.9768 121.81 46.3629C123.359 46.3629 123.617 46.3629 125.102 46.3629C125.489 47.9122 126.006 49.9134 126.329 51.4628H126.91V51.6564Z" fill="white"/>
<path d="M121.166 47.7186C119.293 47.654 119.1 47.654 117.68 47.5249L118.131 46.7503C117.68 46.6857 117.034 46.6212 116.518 46.6212L118.583 44.1681L119.745 42.9415C120.068 42.9415 120.455 43.0061 120.714 43.0061C121.617 43.0706 121.617 43.0706 122.069 43.0706C121.811 44.4908 121.424 46.3629 121.166 47.7186Z" fill="white"/>
<path d="M102.765 61.8562C101.281 61.598 99.344 61.2752 97.9238 61.017C103.927 53.3995 107.22 49.7844 115.16 44.2327C115.612 44.2972 116.193 44.4263 116.645 44.4909C111.674 49.1388 108.769 52.0438 102.765 61.8562Z" fill="white"/>
<path d="M119.099 53.1412C118.196 53.0766 116.969 53.0121 116.001 52.9475L115.42 54.5614L114.322 54.4968C115.097 52.7539 116.194 50.4299 117.034 48.6869C117.937 48.7514 119.164 48.816 120.068 48.8806C119.809 50.1717 119.422 51.9146 119.099 53.1412Z" fill="white"/>
<path d="M123.939 42.5542L124.197 43.1352H124.068L124.713 45.1364C123.358 45.1364 123.164 45.201 121.873 45.1364C122.067 44.2327 122.26 43.0707 122.454 42.1669L122.712 41.134C122.777 41.134 122.906 41.134 122.97 41.134H123.035C123.164 41.134 123.293 41.134 123.358 41.134L123.939 42.5542Z" fill="white"/>
<path d="M75.0719 89.6794C74.6846 90.3895 73.7162 91.5515 72.4251 91.2932C70.6822 90.6477 71.6505 87.6136 73.3935 86.8389C74.8782 86.1934 75.8466 87.4845 75.201 89.2275C75.201 89.292 75.1364 89.4857 75.0719 89.6794Z" fill="white"/>
<path opacity="0.3" d="M173.325 70.3774C173.777 70.9584 174.487 72.1849 173.777 72.6368C172.357 73.0887 169.839 69.9255 170.356 68.9572C170.679 68.1825 172.228 68.9572 173.325 70.3774Z" fill="white"/>
<path d="M148.085 65.2776C144.147 65.9232 143.049 66.0523 138.079 66.5687C137.239 64.3738 136.142 61.4043 135.238 59.2094C138.789 58.8221 139.434 58.7575 142.404 58.3057L143.372 59.6613L144.341 59.4677C145.503 61.2752 147.052 63.5346 148.085 65.2776Z" fill="white"/>
<path opacity="0.3" d="M137.303 66.6332C132.913 66.956 131.88 67.0205 126.78 67.2142C126.587 64.9548 126.264 61.9852 126.07 59.7258C129.621 59.5967 130.525 59.5967 134.592 59.2739C135.431 61.4688 136.528 64.4383 137.303 66.6332Z" fill="white"/>
<path opacity="0.4" d="M149.183 75.7355C144.083 76.381 142.856 76.5102 136.788 77.0266C136.207 74.509 135.497 71.2166 134.852 68.699C139.306 68.3117 140.532 68.2471 145.568 67.6016C146.665 70.0547 148.15 73.2824 149.183 75.7355Z" fill="white"/>
<path d="M103.993 76.5748C99.2155 76.0583 97.9244 75.9292 92.6309 75.0254C93.8574 72.5723 95.5358 69.3446 96.8915 66.9561C100.765 67.6016 101.798 67.7307 106.639 68.2472C105.865 70.7648 104.767 74.0571 103.993 76.5748Z" fill="white"/>
<path opacity="0.3" d="M108.577 95.8121C105.865 95.6184 102.25 95.3602 99.5391 95.102C100.766 89.292 101.928 83.8694 104.058 76.5747C104.833 74.057 105.865 70.7647 106.705 68.3116C108.577 68.5053 111.094 68.699 113.031 68.8281C111.03 78.3177 110.062 83.8694 108.577 95.8121Z" fill="white"/>
<path opacity="0.3" d="M135.754 77.0912C130.461 77.3494 129.17 77.4139 123.037 77.4785C123.037 74.9608 123.037 71.604 123.037 69.0863C127.556 69.0218 128.783 69.0218 134.011 68.7635C134.528 71.2166 135.238 74.5735 135.754 77.0912Z" fill="white"/>
<path opacity="0.3" d="M114.709 87.8073L110.965 87.6136C111.352 84.9023 111.869 81.2872 112.256 78.5114L115.613 78.6405C115.355 81.4163 114.967 85.096 114.709 87.8073Z" fill="white"/>
<path opacity="0.3" d="M131.623 108.981C121.617 109.175 118.712 109.175 108.125 108.659C108.641 103.107 109.222 96.845 110.191 89.163C119.164 89.5503 121.617 89.6149 130.396 89.4212C130.848 94.7793 131.236 100.783 131.623 108.981Z" fill="white"/>
<path opacity="0.3" d="M126.007 67.1496C119.874 67.2142 118.131 67.1496 111.74 66.7623C113.354 60.8878 113.677 59.7258 115.484 54.626L116.065 53.0121C116.969 53.0766 118.196 53.1412 119.164 53.2058C121.875 53.2703 122.392 53.2703 124.845 53.2703C125.168 56.7563 125.555 60.7587 126.007 67.1496Z" fill="white"/>
<path opacity="0.4" d="M175.779 129.187C172.874 129.768 169 130.543 166.095 130.995C165.321 122.732 165.191 121.247 163.9 113.629C166.676 113.113 170.356 112.467 173.067 111.886C174.875 120.989 175.004 121.505 175.779 129.187Z" fill="white"/>
<path opacity="0.4" d="M163.771 157.914L163.126 158.043C155.315 159.076 154.346 159.205 147.891 159.786L148.02 157.591C148.407 146.552 148.472 139.968 147.762 127.444C155.573 126.669 156.929 126.54 163.513 125.572C164.675 139.064 164.74 145.971 163.771 157.914Z" fill="white"/>
<path opacity="0.7" d="M166.352 111.628C161.446 112.209 154.861 112.919 149.89 113.371C148.47 100.718 148.212 98.4588 146.404 87.0326C150.859 86.5807 156.862 85.9997 161.317 85.4187C164.028 97.6842 164.48 99.879 166.352 111.628Z" fill="white"/>
<path d="M137.884 160.754C126.78 160.948 120.067 161.142 105.929 160.561L103.863 160.496C103.863 156.688 103.863 151.652 103.928 147.843C104.057 143.26 104.186 137.127 104.315 132.479C117.484 132.996 122.778 133.125 137.626 132.738C137.819 144.164 137.884 147.262 137.884 160.754Z" fill="black"/>
<path d="M141.758 95.0374C138.917 95.2311 135.173 95.4248 132.333 95.5539C131.881 90.3249 131.365 84.3213 130.59 77.3493C132.914 77.2202 135.948 77.0911 138.272 76.8975C139.305 81.7391 140.531 87.2908 141.758 95.0374Z" fill="white"/>
<path d="M162.286 79.4797L160.543 79.867C156.67 72.4432 156.412 71.9913 152.797 66.3104L154.153 65.9877C158.736 72.8305 158.994 73.2178 162.286 79.4797Z" fill="white"/>
<path opacity="0.3" d="M164.934 78.8988L163.32 79.2861C159.188 71.8623 158.93 71.475 154.992 65.8587L156.283 65.5359C161.125 72.2496 161.383 72.6369 164.934 78.8988Z" fill="white"/>
<path opacity="0.3" d="M167.45 78.1886L165.901 78.5759C161.511 71.2812 161.188 70.8293 157.057 65.2776L158.283 64.9548C163.383 71.6686 163.706 72.0559 167.45 78.1886Z" fill="white"/>
<path opacity="0.7" d="M132.591 124.733C132.527 125.572 131.881 127.057 129.88 127.186C127.169 127.121 126.265 124.281 127.814 122.732C129.557 121.053 132.527 122.151 132.591 124.475C132.591 124.539 132.591 124.668 132.591 124.733Z" fill="white"/>
<path d="M142.855 102.849C142.919 104.333 142.015 107.303 138.336 107.69C133.171 107.69 131.235 101.88 134.398 98.9108C137.367 96.0704 142.726 98.4589 142.855 102.849Z" fill="white"/>
<path d="M141.757 45.9111L143.048 46.4921C150.472 50.3008 150.472 50.3008 154.087 52.7539L153.313 53.0767L152.151 53.5931L151.505 53.8514L151.182 53.5931C144.727 49.0743 144.404 48.8161 140.143 46.5566L138.4 45.6529L138.529 45.5883L139.111 45.3301L139.821 45.0073L141.757 45.9111Z" fill="white"/>
<path d="M137.304 48.3641L136.853 48.0413L134.98 46.6211L137.304 48.3641Z" fill="white"/>
<path d="M134.978 46.6212L137.561 48.5578C136.786 48.6869 135.689 48.9451 134.849 49.0743C132.977 49.3325 131.686 49.5261 129.039 49.7198C128.265 48.235 127.232 46.2338 126.328 44.7491C127.296 44.6845 129.169 44.4908 131.105 44.1035L134.978 46.6212Z" fill="white"/>
<path opacity="0.3" d="M132.074 56.3044C132.203 56.8208 132.268 57.7891 131.429 57.8537C129.879 57.8537 129.234 55.4006 129.944 54.7551C130.525 54.2386 131.687 55.2069 132.074 56.3044Z" fill="white"/>
<path opacity="0.3" d="M128.395 56.5626C128.459 57.079 128.395 58.0473 127.491 58.1119C126.071 58.0473 125.684 55.7233 126.394 55.0132C127.104 54.3677 128.201 55.4006 128.395 56.5626Z" fill="white"/>
<path opacity="0.7" d="M123.617 124.862C123.552 125.701 122.842 127.121 120.841 127.25C118.13 127.121 117.29 124.216 118.904 122.732C120.647 121.118 123.617 122.28 123.617 124.604C123.617 124.668 123.617 124.797 123.617 124.862Z" fill="white"/>
<path opacity="0.7" d="M114.708 124.733C114.579 125.572 113.868 126.992 111.932 126.992C109.285 126.734 108.51 123.893 110.189 122.409C111.932 120.859 114.837 122.086 114.772 124.474C114.772 124.539 114.772 124.668 114.708 124.733Z" fill="white"/>
</g>
<path opacity="0.8" d="M101.347 117.89C100.573 122.086 96.4411 129.833 86.5642 129.123C72.9431 126.54 72.1039 109.821 82.3036 103.365C92.0514 97.2323 103.542 106.076 101.347 117.89Z" fill="white"/>
<path d="M90.0228 105.588C89.4382 105.549 88.8134 105.833 88.8134 105.833L80.7103 109.887C80.7103 109.887 80.287 110.13 80.045 110.494L84.2169 113.269L89.5585 110.613L90.0228 105.588Z" fill="#319F4F"/>
<path d="M94.0733 108.282C94.3359 108.805 94.317 109.489 94.317 109.489L93.7691 118.443C93.7294 118.764 93.5891 119.107 93.4686 119.288L89.2363 116.473L89.6083 110.537L94.0733 108.282Z" fill="#F5BC0F"/>
<path d="M88.9225 121.664C88.3386 121.624 87.8951 121.242 87.8951 121.242L80.3978 116.255C80.0955 116.054 79.934 115.773 79.8329 115.531L84.3584 113.316L89.3162 116.614L88.9225 121.664Z" fill="#3D80B9"/>
<path d="M88.862 121.624L89.1953 116.534L93.4276 119.348C93.267 119.59 93.0861 119.731 93.0459 119.791C93.0058 119.852 92.9453 119.811 92.9052 119.872C92.9052 119.872 92.8046 119.892 92.7644 119.952C92.7644 119.952 90.8135 120.919 89.8682 121.422C89.7274 121.503 89.6268 121.523 89.5867 121.583C89.6268 121.523 89.2447 121.704 88.862 121.624Z" fill="#E84335"/>
<path d="M80.127 110.502C80.127 110.502 79.9262 110.803 79.8463 111.186C79.7665 111.568 79.6511 114.626 79.6114 114.948C79.6723 115.25 79.7734 115.491 79.7332 115.552L84.2587 113.337L80.127 110.502Z" fill="#1F64AB"/>
<path d="M89.9206 105.608C89.9206 105.608 90.2224 105.547 90.6456 105.829L90.7061 105.869C90.7061 105.869 92.5804 107.116 93.4873 107.719L93.5478 107.759C93.7292 107.88 94.0315 108.081 94.032 108.342L89.567 110.598L89.9206 105.608Z" fill="#198038"/>
<path d="M86.1746 127.896C85.7227 127.896 85.2708 127.896 84.8189 127.832C78.8153 126.67 74.6838 122.667 73.5864 117.051C72.4244 110.983 75.2002 104.721 80.4292 101.429C84.8189 98.6527 89.9833 98.7172 94.1794 101.558C98.8274 104.721 101.087 110.402 99.9894 116.341C99.2147 120.472 95.3414 127.896 86.1746 127.896ZM87.272 100.137C85.0772 100.137 82.8823 100.783 80.8165 102.074C75.8458 105.237 73.199 111.176 74.2965 116.986C75.3293 122.28 79.2672 126.089 84.8835 127.186C94.4376 127.896 98.4401 120.343 99.2147 116.276C100.248 110.66 98.1818 105.237 93.7275 102.268C91.7909 100.848 89.5315 100.137 87.272 100.137Z" fill="white"/>
<path d="M89.0154 96.135C88.9509 96.135 88.9509 96.135 88.8863 96.135C88.6927 96.0705 88.5636 95.8768 88.6281 95.6831C97.6658 67.6017 113.224 45.4593 130.331 36.5507C130.524 36.4862 130.718 36.5507 130.847 36.6798C130.912 36.8735 130.847 37.0672 130.718 37.1963C113.805 46.0403 98.3759 67.989 89.4028 95.9414C89.3382 96.0705 89.1446 96.135 89.0154 96.135Z" fill="white"/>
<path d="M83.3344 171.212C83.1407 171.212 83.0116 171.083 82.947 170.89C80.623 159.141 80.0421 146.294 81.204 132.673C81.204 132.479 81.3977 132.35 81.5914 132.35C81.785 132.35 81.9141 132.544 81.9141 132.738C80.7522 146.294 81.3331 159.076 83.6571 170.696C83.7217 170.89 83.5926 171.083 83.3989 171.148C83.3989 171.212 83.3989 171.212 83.3344 171.212Z" fill="white"/>
<path d="M99.9901 206.331C99.9255 206.331 99.7964 206.266 99.7318 206.201C93.2118 199.811 88.0474 190.192 84.7551 178.443C84.6905 178.249 84.8196 178.055 85.0133 177.991C85.207 177.926 85.4006 178.055 85.4652 178.249C88.6929 189.934 93.7928 199.423 100.248 205.685C100.377 205.814 100.377 206.072 100.248 206.201C100.184 206.266 100.119 206.331 99.9901 206.331Z" fill="white"/>
<path d="M90.5658 49.6554L85.595 45.2657C85.2722 44.9429 84.8204 44.8138 84.3685 44.9429L72.6194 47.0732C71.8448 47.2023 71.2638 47.977 71.4575 48.7517L75.2017 69.4738C75.3308 70.2485 76.1054 70.8295 76.8801 70.6358L104.574 65.6005C105.349 65.4714 105.93 64.6968 105.736 63.9221L103.089 49.4618C102.96 48.6871 102.186 48.1061 101.411 48.2998L91.7923 50.0428C91.3404 50.0428 90.8885 49.9136 90.5658 49.6554Z" fill="#407BFF"/>
<path opacity="0.3" d="M90.5658 49.6554L85.595 45.2657C85.2722 44.9429 84.8204 44.8138 84.3685 44.9429L72.6194 47.0732C71.8448 47.2023 71.2638 47.977 71.4575 48.7517L75.2017 69.4738C75.3308 70.2485 76.1054 70.8295 76.8801 70.6358L104.574 65.6005C105.349 65.4714 105.93 64.6968 105.736 63.9221L103.089 49.4618C102.96 48.6871 102.186 48.1061 101.411 48.2998L91.7923 50.0428C91.3404 50.0428 90.8885 49.9136 90.5658 49.6554Z" fill="white"/>
<path d="M89.9193 50.753L84.9485 46.3632C84.6257 46.0404 84.1739 45.9113 83.722 46.0404L71.973 48.1708C71.1983 48.2999 70.6173 49.0745 70.811 49.8492L74.5552 70.5714C74.6843 71.346 75.4589 71.927 76.2336 71.7334L103.928 66.6981C104.702 66.5689 105.283 65.7943 105.09 65.0196L102.443 50.5593C102.314 49.7846 101.539 49.2036 100.765 49.3973L91.1458 51.1403C90.6939 51.2048 90.242 51.0757 89.9193 50.753Z" fill="#407BFF"/>
<path opacity="0.6" d="M89.9193 50.753L84.9485 46.3632C84.6257 46.0404 84.1739 45.9113 83.722 46.0404L71.973 48.1708C71.1983 48.2999 70.6173 49.0745 70.811 49.8492L74.5552 70.5714C74.6843 71.346 75.4589 71.927 76.2336 71.7334L103.928 66.6981C104.702 66.5689 105.283 65.7943 105.09 65.0196L102.443 50.5593C102.314 49.7846 101.539 49.2036 100.765 49.3973L91.1458 51.1403C90.6939 51.2048 90.242 51.0757 89.9193 50.753Z" fill="#033E9F"/>
<path d="M180.428 76.1231C177.458 69.6031 170.938 65.0197 163.321 65.0197C155.833 65.0197 149.377 69.4094 146.343 75.7358C146.02 75.7358 145.697 75.6712 145.439 75.6712C138.015 75.6712 132.012 81.6749 132.012 89.0987C132.012 90.5189 132.27 91.9391 132.657 93.2302H189.982C190.369 91.9391 190.628 90.5835 190.628 89.0987C190.628 82.8369 186.303 77.5433 180.428 76.1231Z" fill="#EAF4FF"/>
<path d="M107.928 150.403C110.495 144.827 116.186 141 122.826 141C129.354 141 134.934 144.718 137.557 150.13C137.836 150.13 138.115 150.075 138.338 150.075C144.811 150.075 150 155.214 150 161.501C150 162.704 149.777 163.907 149.442 165H99.558C99.2232 163.907 99 162.704 99 161.501C99 156.144 102.794 151.606 107.928 150.403Z" fill="#EAF4FF"/>
<path d="M83.788 68.2474C83.5298 68.2474 83.2715 68.2474 83.0133 68.312C82.1095 65.2779 79.2691 63.083 75.9123 63.083C72.8782 63.083 70.2314 64.9551 69.0694 67.6019C68.8112 67.5373 68.553 67.5373 68.3593 67.5373C65.648 67.5373 63.4531 69.7322 63.4531 72.4435C63.4531 72.9599 63.5177 73.4764 63.7113 73.9283H87.984C88.1132 73.5409 88.1777 73.089 88.1777 72.6372C88.2423 70.1841 86.2411 68.2474 83.788 68.2474Z" fill="#EAF4FF"/>
<path d="M20.1605 152.571L22.6124 153.462L19.2688 157.029C19.2688 157.029 18.3772 155.691 17.8199 154.242C17.7085 153.685 18.0429 153.016 18.7116 152.905L20.1605 152.571Z" fill="#FFBE9B"/>
<path d="M23.7258 157.364L22.1655 158.813C21.6082 159.259 20.7166 159.259 20.3822 158.701L19.1562 157.141L22.4998 153.574L23.9487 156.361C24.0602 156.584 24.0602 157.029 23.7258 157.364Z" fill="#FFBE9B"/>
<path d="M50.5868 129.276C51.5899 131.394 52.7044 133.623 53.9304 135.741C55.0449 137.858 56.2709 139.976 57.3854 141.871C57.6083 142.316 58.0541 142.762 58.277 142.985C58.6114 143.431 59.0572 143.765 59.503 144.211C60.3946 144.991 61.2862 145.883 62.2893 146.663C64.184 148.335 66.0787 150.007 67.9734 151.79L66.0787 154.019C63.6267 152.793 61.3977 151.456 59.0572 150.007C57.9427 149.338 56.7167 148.558 55.7136 147.778C55.1564 147.332 54.5991 146.886 54.0418 146.44C53.3731 145.883 52.9273 145.214 52.37 144.768C50.5868 142.539 49.3608 140.422 48.0234 138.193C46.686 135.964 45.5714 133.846 44.5684 131.506L50.5868 129.276Z" fill="#FFBE9B"/>
<path d="M29.5232 128.943C28.0743 131.061 26.6254 133.067 25.0651 135.184L20.607 141.314L20.0497 142.094L19.9382 142.206C19.9382 142.206 19.9382 142.317 19.8268 142.317C19.7153 142.54 19.6039 142.986 19.6039 143.432C19.4924 144.435 19.6039 145.549 19.7153 146.664C19.9382 148.893 20.4955 151.345 20.9413 153.685L18.0435 154.688C16.8176 152.348 15.5916 150.007 14.8114 147.556C14.4771 146.33 14.1427 144.992 14.0312 143.432C14.0312 142.652 14.0312 141.871 14.2542 140.98C14.3656 140.757 14.3656 140.534 14.4771 140.2L14.7 139.865L14.8114 139.754V139.642L15.3687 138.751C16.5947 136.522 18.0435 134.404 19.4924 132.175C20.9413 130.057 22.3902 127.94 23.9505 125.822L29.5232 128.943Z" fill="#FFBE9B"/>
<path d="M33.6454 111.779C33.1996 115.457 33.9798 120.138 31.082 122.033C31.082 122.033 31.7507 125.488 38.6608 126.491C46.351 127.494 42.5616 124.485 42.5616 124.485C38.4379 123.147 39.1066 119.47 40.2211 117.018L33.6454 111.779Z" fill="#FFBE9B"/>
<path d="M30.7477 124.15C30.6363 122.812 30.7477 120.695 31.7508 120.361C32.7539 120.026 39.1067 120.472 42.3388 123.035C41.2243 125.042 41.3357 127.048 41.3357 127.048L30.7477 124.15Z" fill="#0054A3"/>
<path d="M27.7412 122.033C23.8403 122.367 18.1562 131.06 18.1562 131.06L25.4007 136.744C25.4007 136.744 28.8557 133.512 31.5306 129.723C34.3169 125.822 31.8649 121.81 27.7412 122.033Z" fill="#0054A3"/>
<path opacity="0.6" d="M27.7412 122.033C23.8403 122.367 18.1562 131.06 18.1562 131.06L25.4007 136.744C25.4007 136.744 28.8557 133.512 31.5306 129.723C34.3169 125.822 31.8649 121.81 27.7412 122.033Z" fill="#0054A3"/>
<path opacity="0.2" d="M29.8569 128.386L25.0645 136.522L25.3988 136.745C25.3988 136.745 27.1821 134.961 29.2997 132.509L29.8569 128.386Z" fill="black"/>
<path d="M47.8002 141.648C47.0201 145.66 45.7941 150.676 44.2338 156.806L22.0547 153.908C22.2776 151.122 25.6212 138.75 24.9525 125.376C24.841 123.481 26.6242 121.921 28.7418 122.032C29.8564 122.032 31.0823 122.144 32.1969 122.255C34.9832 122.478 39.2184 122.924 41.5589 123.481C44.9025 124.15 47.8002 125.376 47.8002 125.376C47.8002 125.376 49.3606 127.382 48.5804 135.964C48.3575 137.524 48.1346 139.419 47.8002 141.648Z" fill="#0083F9"/>
<path opacity="0.6" d="M47.8002 141.648C47.0201 145.66 45.7941 150.676 44.2338 156.806L22.0547 153.908C22.2776 151.122 25.6212 138.75 24.9525 125.376C24.841 123.481 26.6242 121.921 28.7418 122.032C29.8564 122.032 31.0823 122.144 32.1969 122.255C34.9832 122.478 39.2184 122.924 41.5589 123.481C44.9025 124.15 47.8002 125.376 47.8002 125.376C47.8002 125.376 49.3606 127.382 48.5804 135.964C48.3575 137.524 48.1346 139.419 47.8002 141.648Z" fill="#0083F9"/>
<path opacity="0.2" d="M47.7995 141.648C46.0162 140.645 44.3444 136.075 45.1246 133.624L48.6911 135.741C48.3567 137.524 48.1338 139.419 47.7995 141.648Z" fill="black"/>
<path d="M42.7856 127.829C41.671 131.173 48.4697 140.981 48.4697 140.981L56.7171 137.191C56.7171 137.191 54.8224 132.288 51.9247 128.387C48.6926 124.152 44.0115 124.04 42.7856 127.829Z" fill="#0054A3"/>
<path opacity="0.6" d="M42.7856 127.829C41.671 131.173 48.4697 140.981 48.4697 140.981L56.7171 137.191C56.7171 137.191 54.8224 132.288 51.9247 128.387C48.6926 124.152 44.0115 124.04 42.7856 127.829Z" fill="#0054A3"/>
<path d="M35.4285 105.65C33.8682 109.885 32.7537 112.448 34.314 115.458C36.5431 120.027 43.1188 120.25 46.128 116.461C48.8028 113.006 50.6975 106.541 46.9082 103.198C43.0073 99.8543 36.9889 101.415 35.4285 105.65Z" fill="#FFBE9B"/>
<path d="M42.786 97.5132C46.241 98.2933 48.9159 99.6308 49.2502 101.191C52.3709 102.417 53.374 105.315 51.2564 106.429C49.3617 107.544 46.3524 106.318 46.3524 106.318C46.3524 106.318 47.8013 112.782 43.3432 110.33C42.6745 112.559 41.1142 116.572 37.3248 116.906C35.3186 117.129 31.6407 116.683 31.3063 115.123C30.972 113.562 32.198 113.897 31.9751 112.671C31.6407 111.445 29.9689 107.21 31.8636 104.089C31.9751 104.2 34.6499 94.7269 42.786 97.5132Z" fill="#180857"/>
<path d="M41.4469 110.107C41.3354 111.221 41.7812 112.224 42.3385 112.893C43.2301 114.008 43.5645 114.008 43.8988 112.782C44.2332 111.667 45.1248 109.327 43.8988 108.769C42.6729 108.212 41.4469 108.881 41.4469 110.107Z" fill="#FFBE9B"/>
<path d="M36.3216 155.914C36.3216 155.914 32.8666 184.669 30.749 195.145C28.4085 206.625 12.8051 243.627 12.8051 243.627L5.44922 241.955C9.23861 229.138 14.8112 205.288 18.2663 196.148C20.8297 182.217 18.2663 164.83 22.0557 154.019L36.3216 155.914Z" fill="#EE384E"/>
<path opacity="0.2" d="M34.0904 167.059C34.3133 167.059 34.6477 167.059 34.8706 167.059C33.756 175.641 32.1957 187.121 30.9697 193.696C29.9667 184.111 28.9636 167.951 34.0904 167.059Z" fill="black"/>
<path d="M44.0104 156.917C44.0104 156.917 45.7937 187.678 46.0166 198.824C46.2395 210.415 43.1188 244.965 43.1188 244.965H35.9859C35.9859 244.965 33.311 212.978 34.7599 197.375C33.0881 185.449 29.4102 155.023 29.4102 155.023L44.0104 156.917Z" fill="#EE384E"/>
<path d="M69.7575 151.345C68.7545 151.234 67.3056 151.345 66.3025 151.791L65.7452 152.571C65.4109 153.24 65.6338 154.02 66.5254 154.243L69.0888 154.912L70.3148 155.246C70.8721 155.358 71.4293 155.246 71.7637 154.8L72.3209 154.132C72.6553 153.686 72.5438 153.017 72.2095 152.683L71.095 151.791C70.5377 151.568 70.2033 151.457 69.7575 151.345Z" fill="#FFBE9B"/>
<path d="M12.6926 243.405L5.89395 241.733C5.55959 241.622 5.44814 241.733 5.33669 242.068L3.10763 246.749C2.88473 247.083 2.99618 247.64 3.55345 247.863H3.6649C5.89395 248.42 7.56574 248.643 10.4635 249.312C12.1353 249.646 17.485 251.095 19.7141 251.652C22.0546 252.21 22.9462 249.981 21.9431 249.535C17.8194 247.529 14.8102 245.523 13.6956 243.962C13.3613 243.739 13.0269 243.516 12.6926 243.405Z" fill="#170856"/>
<path d="M43.1195 244.965H36.098C35.7636 244.965 35.6522 245.077 35.6522 245.411L34.5376 250.426C34.4262 250.872 34.6491 251.318 35.2063 251.429H35.3178C37.6583 251.429 39.3301 251.318 42.2279 251.318C43.8996 251.318 49.4723 251.429 51.8128 251.429C54.1533 251.429 54.5991 249.089 53.4846 248.866C49.0265 247.863 45.5714 246.637 44.1226 245.299C43.7882 245.077 43.4538 244.965 43.1195 244.965Z" fill="#170856"/>
<path d="M68.3334 210.662C68.3334 210.662 70.9145 209.61 70.7235 206.653C70.5326 203.695 69.0052 201.599 72.1591 202.453C75.313 203.314 76.3737 203.695 78.6649 203.215C80.9561 202.735 82.8583 201.783 81.8613 204.74C80.8642 207.697 79.7751 210.175 82.137 210.655C84.4919 211.135 87.0235 209.349 87.3276 213.979C87.6316 218.61 83.8908 223.819 77.8375 224.009C71.7843 224.2 69.1112 221.694 69.1112 221.694C69.1112 221.694 67.4848 219.407 70.0164 218.85C72.548 218.285 75.1291 217.219 73.835 216.033C72.548 214.855 68.3404 214.756 68.3404 214.756C68.3404 214.756 63.0792 213.711 68.3334 210.662Z" fill="#649EEA"/>
<path d="M95.9978 211.425C95.5735 208.474 95.8988 206.35 101.393 205.545C106.888 204.74 110.091 208.037 110.424 211.425C110.756 214.813 105.983 216.041 105.983 216.041C105.983 216.041 102.588 217.008 104.314 219.965C106.039 222.922 106.817 225.781 102.914 226.212C99.0103 226.642 94.7391 225.612 92.363 224.031C89.987 222.45 87.5473 218.44 90.2698 216.344C90.2698 216.344 91.0336 215.822 93.6642 215.674C96.2807 215.525 95.9978 211.425 95.9978 211.425Z" fill="#023EA1"/>
<path d="M76.6641 210.944C76.6641 210.944 81.2252 221.242 81.8475 228.251" stroke="#023EA1" stroke-miterlimit="10"/>
<path d="M102.028 212.638C102.028 212.638 93.9523 224.609 92.043 228.611" stroke="#649EEA" stroke-miterlimit="10"/>
<path d="M79.0336 227.447H97.5682C97.5682 227.447 99.5977 227.588 99.428 230.355C99.2724 232.903 96.0337 232.352 94.3648 232.352C92.6959 232.352 78.6306 232.352 78.6306 232.352C78.6306 232.352 76.3535 232.741 76.3535 230.164C76.3535 227.588 77.2163 227.447 79.0336 227.447Z" fill="#0054A5"/>
<path d="M78.6367 232.353L81.4441 248.7H93.8901L95.9974 236.432L78.6579 232.353H78.6367Z" fill="#0054A5"/>
<path d="M78.6582 232.353L95.9977 236.432L96.6977 232.353H78.6582Z" fill="#006AD5"/>
<path d="M86.627 228.068C86.627 228.068 87.5675 209.928 92.9843 198.55" stroke="#FCBE42" stroke-miterlimit="10"/>
<path d="M97.4403 192C97.4403 192 97.8858 197.569 92.4407 199.743C92.4407 199.743 91.2668 194.986 97.4403 192Z" fill="#FCBE42"/>
<path d="M89.2715 209.723C89.2715 209.723 91.2798 204.973 97.4462 205.609C97.4533 205.609 96.9724 210.338 89.2715 209.723Z" fill="#FCBE42"/>
<path d="M87.2422 221.673C87.2422 221.673 88.2817 216.619 94.4552 216.041C94.4552 216.041 94.9148 220.777 87.2422 221.673Z" fill="#FCBE42"/>
<path d="M87.0302 221.701C87.0302 221.701 87.7444 216.598 82.1225 213.986C82.1225 213.986 80.1071 218.299 87.0302 221.701Z" fill="#FCBE42"/>
<path d="M89.3419 209.688C89.3419 209.688 90.7067 204.712 85.4596 201.409C85.4525 201.409 82.9068 205.432 89.3419 209.688Z" fill="#FCBE42"/>
<path d="M46.9276 22.7685L51.1641 26.9971L55.4006 22.7685L51.1641 18.54L46.9276 22.7685Z" fill="#DE051F"/>
<path d="M191 219.228L195.236 223.457L199.473 219.228L195.236 215L191 219.228Z" fill="#023EA1"/>
</svg>
