<svg width="365" height="275" viewBox="0 0 365 275" fill="none" xmlns="http://www.w3.org/2000/svg">
<path d="M328.5 252.12H304.264V252.266H328.5V252.12Z" fill="#EBEBEB"/>
<path d="M241.776 254.027H235.498V254.174H241.776V254.027Z" fill="#EBEBEB"/>
<path d="M303.534 245.222H289.518V245.369H303.534V245.222Z" fill="#EBEBEB"/>
<path d="M69.7879 246.543H38.252V246.69H69.7879V246.543Z" fill="#EBEBEB"/>
<path d="M81.0294 246.543H76.3574V246.69H81.0294V246.543Z" fill="#EBEBEB"/>
<path d="M164.25 249.625H95.9219V249.772H164.25V249.625Z" fill="#EBEBEB"/>
<path d="M173.011 207.507H32.1207C29.7847 207.507 27.8867 205.599 27.8867 203.251V4.25556C27.8867 1.90753 29.7847 -0.000244141 32.1207 -0.000244141H173.011C175.347 -0.000244141 177.245 1.90753 177.245 4.25556V203.398C177.245 205.746 175.347 207.507 173.011 207.507ZM32.1207 0.146507C29.9307 0.146507 28.1787 1.90753 28.1787 4.10881V203.251C28.1787 205.452 29.9307 207.213 32.1207 207.213H173.011C175.201 207.213 176.953 205.452 176.953 203.251V4.25556C176.953 2.05428 175.201 0.293259 173.011 0.293259L32.1207 0.146507Z" fill="#EBEBEB"/>
<path d="M330.981 207.507H190.091C187.755 207.507 185.857 205.599 185.857 203.251V4.25556C185.857 1.90753 187.755 -0.000244141 190.091 -0.000244141H330.981C333.317 -0.000244141 335.215 1.90753 335.215 4.25556V203.398C335.069 205.746 333.171 207.507 330.981 207.507ZM189.945 0.146507C187.755 0.146507 186.003 1.90753 186.003 4.10881V203.251C186.003 205.452 187.755 207.213 189.945 207.213H330.835C333.025 207.213 334.777 205.452 334.777 203.251V4.25556C334.777 2.05428 333.025 0.293259 330.835 0.293259L189.945 0.146507Z" fill="#EBEBEB"/>
<path d="M365 240.232H0V240.379H365V240.232Z" fill="#EBEBEB"/>
<path d="M129.501 37.422C147.167 47.6946 164.833 57.9672 182.645 68.2399C183.229 68.5334 183.813 67.6529 183.229 67.3594C165.563 57.0867 147.897 46.8141 130.085 36.5415C129.355 36.248 128.917 37.1285 129.501 37.422Z" fill="#263238"/>
<path d="M249.367 33.0193C239.147 50.7763 229.073 68.3865 218.853 86.1435C217.393 88.6382 215.933 91.2798 214.473 93.7746C214.181 94.3616 215.057 94.9486 215.349 94.3616C225.569 76.6046 235.643 58.9944 245.863 41.2374C247.323 38.7427 248.783 36.1011 250.243 33.6063C250.681 32.8726 249.805 32.4323 249.367 33.0193Z" fill="#263238"/>
<path d="M214.474 33.6063C218.708 40.9439 222.942 48.2815 227.03 55.6191C227.322 56.2061 228.344 55.6191 227.906 55.0321C223.672 47.6945 219.438 40.3569 215.35 33.0193C215.204 32.4323 214.182 32.8726 214.474 33.6063Z" fill="#263238"/>
<path d="M155.781 68.8269C155.781 90.2527 155.781 111.678 155.781 133.104C155.781 136.186 155.781 139.268 155.781 142.35C155.781 143.083 156.949 143.083 156.949 142.35C156.949 120.924 156.949 99.498 156.949 78.0723C156.949 74.9905 156.949 71.9087 156.949 68.8269C156.803 68.0932 155.781 68.0932 155.781 68.8269Z" fill="#263238"/>
<path d="M155.781 21.5723C155.781 31.9917 155.781 42.411 155.781 52.6837C155.781 53.4174 156.949 53.4174 156.949 52.6837C156.949 42.2643 156.949 31.8449 156.949 21.5723C156.803 20.8385 155.781 20.8385 155.781 21.5723Z" fill="#263238"/>
<path d="M127.312 92.8932C134.612 97.149 142.058 101.405 149.358 105.661C149.942 105.954 150.526 105.074 149.942 104.78C142.642 100.524 135.196 96.2685 127.896 92.0127C127.312 91.5724 126.728 92.5997 127.312 92.8932Z" fill="#263238"/>
<path d="M127.896 126.207C135.196 121.951 142.642 117.695 149.942 113.439C150.526 113.146 149.942 112.119 149.358 112.559C142.058 116.815 134.612 121.07 127.312 125.326C126.728 125.62 127.312 126.647 127.896 126.207Z" fill="#263238"/>
<path d="M168.485 109.771C189.947 109.771 211.409 109.771 232.871 109.771C235.937 109.771 239.003 109.771 242.069 109.771C242.799 109.771 242.799 108.597 242.069 108.597C220.607 108.597 199.145 108.597 177.683 108.597C174.617 108.597 171.551 108.597 168.485 108.597C167.901 108.743 167.901 109.771 168.485 109.771Z" fill="#263238"/>
<path d="M257.252 119.309C257.252 125.766 257.252 132.224 257.252 138.534C257.252 139.268 258.42 139.268 258.42 138.534C258.42 132.077 258.42 125.62 258.42 119.309C258.42 118.576 257.252 118.576 257.252 119.309Z" fill="#263238"/>
<path d="M269.37 109.771C274.188 109.771 278.86 109.771 283.678 109.771C284.408 109.771 284.408 108.597 283.678 108.597C278.86 108.597 274.188 108.597 269.37 108.597C268.64 108.743 268.64 109.771 269.37 109.771Z" fill="#263238"/>
<path d="M277.692 73.5227C272.436 82.7681 267.18 91.8667 261.778 101.112C261.486 101.699 262.362 102.286 262.654 101.699C267.91 92.4537 273.166 83.3551 278.568 74.1097C279.006 73.5227 277.984 72.9357 277.692 73.5227Z" fill="#263238"/>
<path d="M172.28 112.265C171.112 111.091 170.09 110.064 168.922 108.89C168.922 109.184 168.922 109.477 168.922 109.624C170.09 108.45 171.112 107.423 172.28 106.249C172.718 105.808 171.988 104.928 171.55 105.515C170.382 106.689 169.36 107.716 168.192 108.89C168.046 109.037 168.046 109.477 168.192 109.624C169.36 110.798 170.382 111.825 171.55 112.999C171.988 113.439 172.718 112.706 172.28 112.265Z" fill="#263238"/>
<path d="M238.418 106.248C239.586 107.422 240.608 108.449 241.776 109.623C241.776 109.329 241.776 109.036 241.776 108.889C240.608 110.063 239.586 111.091 238.418 112.265C237.98 112.705 238.71 113.585 239.148 112.998C240.316 111.824 241.338 110.797 242.506 109.623C242.652 109.476 242.652 109.036 242.506 108.889C241.338 107.715 240.316 106.688 239.148 105.514C238.564 105.074 237.834 105.807 238.418 106.248Z" fill="#263238"/>
<path d="M221.044 77.6317C222.504 77.1915 224.11 76.7512 225.57 76.4577C225.278 76.311 225.132 76.1642 224.84 76.0175C225.278 77.485 225.716 79.0992 226.008 80.5668C226.154 81.3005 227.176 81.007 227.03 80.2733C226.592 78.8057 226.154 77.1915 225.862 75.724C225.716 75.4304 225.424 75.2837 225.132 75.2837C223.672 75.7239 222.066 76.1642 220.606 76.4577C220.022 76.7512 220.314 77.9252 221.044 77.6317Z" fill="#263238"/>
<path d="M206.007 133.837C219.553 133.837 230.535 122.799 230.535 109.183C230.535 95.5669 219.553 84.5288 206.007 84.5288C192.46 84.5288 181.479 95.5669 181.479 109.183C181.479 122.799 192.46 133.837 206.007 133.837Z" fill="#155BCC"/>
<path opacity="0.7" d="M206.007 133.837C219.553 133.837 230.535 122.799 230.535 109.183C230.535 95.5669 219.553 84.5288 206.007 84.5288C192.46 84.5288 181.479 95.5669 181.479 109.183C181.479 122.799 192.46 133.837 206.007 133.837Z" fill="#155BCC"/>
<path d="M206.006 130.022C217.375 130.022 226.592 120.758 226.592 109.33C226.592 97.9021 217.375 88.6379 206.006 88.6379C194.637 88.6379 185.42 97.9021 185.42 109.33C185.42 120.758 194.637 130.022 206.006 130.022Z" fill="#DBE9F8"/>
<path opacity="0.8" d="M206.006 130.022C217.375 130.022 226.592 120.758 226.592 109.33C226.592 97.9021 217.375 88.6379 206.006 88.6379C194.637 88.6379 185.42 97.9021 185.42 109.33C185.42 120.758 194.637 130.022 206.006 130.022Z" fill="#DBE9F8"/>
<path opacity="0.9" d="M206.007 124.738C214.554 124.738 221.483 117.774 221.483 109.183C221.483 100.591 214.554 93.627 206.007 93.627C197.46 93.627 190.531 100.591 190.531 109.183C190.531 117.774 197.46 124.738 206.007 124.738Z" fill="white"/>
<path d="M215.059 47.2538C222.477 47.2538 228.491 41.2091 228.491 33.7526C228.491 26.2961 222.477 20.2515 215.059 20.2515C207.641 20.2515 201.627 26.2961 201.627 33.7526C201.627 41.2091 207.641 47.2538 215.059 47.2538Z" fill="#155BCC"/>
<path opacity="0.7" d="M215.059 47.2538C222.477 47.2538 228.491 41.2091 228.491 33.7526C228.491 26.2961 222.477 20.2515 215.059 20.2515C207.641 20.2515 201.627 26.2961 201.627 33.7526C201.627 41.2091 207.641 47.2538 215.059 47.2538Z" fill="#155BCC"/>
<path d="M231.993 77.6321C239.653 77.6321 245.863 71.3903 245.863 63.6907C245.863 55.9911 239.653 49.7493 231.993 49.7493C224.333 49.7493 218.123 55.9911 218.123 63.6907C218.123 71.3903 224.333 77.6321 231.993 77.6321Z" fill="#407BFF"/>
<path opacity="0.7" d="M231.993 77.6321C239.653 77.6321 245.863 71.3903 245.863 63.6907C245.863 55.9911 239.653 49.7493 231.993 49.7493C224.333 49.7493 218.123 55.9911 218.123 63.6907C218.123 71.3903 224.333 77.6321 231.993 77.6321Z" fill="white"/>
<path d="M156.366 121.51C163.139 121.51 168.63 115.991 168.63 109.183C168.63 102.375 163.139 96.856 156.366 96.856C149.592 96.856 144.102 102.375 144.102 109.183C144.102 115.991 149.592 121.51 156.366 121.51Z" fill="#407BFF"/>
<path opacity="0.7" d="M156.366 121.51C163.139 121.51 168.63 115.991 168.63 109.183C168.63 102.375 163.139 96.856 156.366 96.856C149.592 96.856 144.102 102.375 144.102 109.183C144.102 115.991 149.592 121.51 156.366 121.51Z" fill="white"/>
<path d="M156.365 68.8266C165.154 68.8266 172.279 61.665 172.279 52.8307C172.279 43.9963 165.154 36.8347 156.365 36.8347C147.576 36.8347 140.451 43.9963 140.451 52.8307C140.451 61.665 147.576 68.8266 156.365 68.8266Z" fill="#407BFF"/>
<path opacity="0.7" d="M156.365 68.8266C165.154 68.8266 172.279 61.665 172.279 52.8307C172.279 43.9963 165.154 36.8347 156.365 36.8347C147.576 36.8347 140.451 43.9963 140.451 52.8307C140.451 61.665 147.576 68.8266 156.365 68.8266Z" fill="white"/>
<path d="M257.837 155.41C264.207 155.41 269.371 150.22 269.371 143.817C269.371 137.414 264.207 132.223 257.837 132.223C251.467 132.223 246.303 137.414 246.303 143.817C246.303 150.22 251.467 155.41 257.837 155.41Z" fill="#407BFF"/>
<path opacity="0.7" d="M257.837 155.41C264.207 155.41 269.371 150.22 269.371 143.817C269.371 137.414 264.207 132.223 257.837 132.223C251.467 132.223 246.303 137.414 246.303 143.817C246.303 150.22 251.467 155.41 257.837 155.41Z" fill="white"/>
<path d="M290.101 119.309C295.665 119.309 300.175 114.776 300.175 109.183C300.175 103.591 295.665 99.0574 290.101 99.0574C284.538 99.0574 280.027 103.591 280.027 109.183C280.027 114.776 284.538 119.309 290.101 119.309Z" fill="#407BFF"/>
<path opacity="0.7" d="M290.101 119.309C295.665 119.309 300.175 114.776 300.175 109.183C300.175 103.591 295.665 99.0574 290.101 99.0574C284.538 99.0574 280.027 103.591 280.027 109.183C280.027 114.776 284.538 119.309 290.101 119.309Z" fill="white"/>
<path d="M277.691 89.3711C286.238 89.3711 293.167 82.4066 293.167 73.8154C293.167 65.2243 286.238 58.2598 277.691 58.2598C269.144 58.2598 262.215 65.2243 262.215 73.8154C262.215 82.4066 269.144 89.3711 277.691 89.3711Z" fill="#407BFF"/>
<path opacity="0.7" d="M277.691 89.3711C286.238 89.3711 293.167 82.4066 293.167 73.8154C293.167 65.2243 286.238 58.2598 277.691 58.2598C269.144 58.2598 262.215 65.2243 262.215 73.8154C262.215 82.4066 269.144 89.3711 277.691 89.3711Z" fill="white"/>
<path d="M156.365 31.551C161.849 31.551 166.293 27.0832 166.293 21.5719C166.293 16.0606 161.849 11.5928 156.365 11.5928C150.882 11.5928 146.438 16.0606 146.438 21.5719C146.438 27.0832 150.882 31.551 156.365 31.551Z" fill="#407BFF"/>
<path opacity="0.7" d="M156.365 31.551C161.849 31.551 166.293 27.0832 166.293 21.5719C166.293 16.0606 161.849 11.5928 156.365 11.5928C150.882 11.5928 146.438 16.0606 146.438 21.5719C146.438 27.0832 150.882 31.551 156.365 31.551Z" fill="white"/>
<path d="M156.366 154.677C163.139 154.677 168.63 149.158 168.63 142.35C168.63 135.542 163.139 130.022 156.366 130.022C149.592 130.022 144.102 135.542 144.102 142.35C144.102 149.158 149.592 154.677 156.366 154.677Z" fill="#407BFF"/>
<path opacity="0.7" d="M156.366 154.677C163.139 154.677 168.63 149.158 168.63 142.35C168.63 135.542 163.139 130.022 156.366 130.022C149.592 130.022 144.102 135.542 144.102 142.35C144.102 149.158 149.592 154.677 156.366 154.677Z" fill="white"/>
<path d="M127.604 138.533C134.619 138.533 140.306 132.817 140.306 125.766C140.306 118.714 134.619 112.998 127.604 112.998C120.589 112.998 114.902 118.714 114.902 125.766C114.902 132.817 120.589 138.533 127.604 138.533Z" fill="#155BCC"/>
<path opacity="0.7" d="M127.604 138.533C134.619 138.533 140.306 132.817 140.306 125.766C140.306 118.714 134.619 112.998 127.604 112.998C120.589 112.998 114.902 118.714 114.902 125.766C114.902 132.817 120.589 138.533 127.604 138.533Z" fill="#155BCC"/>
<path d="M127.605 106.836C135.507 106.836 141.913 100.397 141.913 92.4539C141.913 84.5112 135.507 78.0723 127.605 78.0723C119.703 78.0723 113.297 84.5112 113.297 92.4539C113.297 100.397 119.703 106.836 127.605 106.836Z" fill="#407BFF"/>
<path opacity="0.7" d="M127.605 106.836C135.507 106.836 141.913 100.397 141.913 92.4539C141.913 84.5112 135.507 78.0723 127.605 78.0723C119.703 78.0723 113.297 84.5112 113.297 92.4539C113.297 100.397 119.703 106.836 127.605 106.836Z" fill="white"/>
<path d="M129.795 46.9609C135.278 46.9609 139.723 42.4931 139.723 36.9818C139.723 31.4705 135.278 27.0027 129.795 27.0027C124.312 27.0027 119.867 31.4705 119.867 36.9818C119.867 42.4931 124.312 46.9609 129.795 46.9609Z" fill="#407BFF"/>
<path opacity="0.7" d="M129.795 46.9609C135.278 46.9609 139.723 42.4931 139.723 36.9818C139.723 31.4705 135.278 27.0027 129.795 27.0027C124.312 27.0027 119.867 31.4705 119.867 36.9818C119.867 42.4931 124.312 46.9609 129.795 46.9609Z" fill="white"/>
<path d="M182.938 77.7786C188.421 77.7786 192.866 73.3107 192.866 67.7994C192.866 62.2881 188.421 57.8203 182.938 57.8203C177.455 57.8203 173.01 62.2881 173.01 67.7994C173.01 73.3107 177.455 77.7786 182.938 77.7786Z" fill="#407BFF"/>
<path opacity="0.7" d="M182.938 77.7786C188.421 77.7786 192.866 73.3107 192.866 67.7994C192.866 62.2881 188.421 57.8203 182.938 57.8203C177.455 57.8203 173.01 62.2881 173.01 67.7994C173.01 73.3107 177.455 77.7786 182.938 77.7786Z" fill="white"/>
<path d="M249.953 47.695C257.855 47.695 264.261 41.2561 264.261 33.3133C264.261 25.3705 257.855 18.9316 249.953 18.9316C242.05 18.9316 235.645 25.3705 235.645 33.3133C235.645 41.2561 242.05 47.695 249.953 47.695Z" fill="#407BFF"/>
<path opacity="0.7" d="M249.953 47.695C257.855 47.695 264.261 41.2561 264.261 33.3133C264.261 25.3705 257.855 18.9316 249.953 18.9316C242.05 18.9316 235.645 25.3705 235.645 33.3133C235.645 41.2561 242.05 47.695 249.953 47.695Z" fill="white"/>
<path d="M257.836 125.033C266.545 125.033 273.604 117.937 273.604 109.184C273.604 100.431 266.545 93.3347 257.836 93.3347C249.128 93.3347 242.068 100.431 242.068 109.184C242.068 117.937 249.128 125.033 257.836 125.033Z" fill="#407BFF"/>
<path opacity="0.7" d="M257.836 125.033C266.545 125.033 273.604 117.937 273.604 109.184C273.604 100.431 266.545 93.3347 257.836 93.3347C249.128 93.3347 242.068 100.431 242.068 109.184C242.068 117.937 249.128 125.033 257.836 125.033Z" fill="white"/>
<path d="M156.366 66.7718C164.026 66.7718 170.236 60.53 170.236 52.8303C170.236 45.1307 164.026 38.8889 156.366 38.8889C148.706 38.8889 142.496 45.1307 142.496 52.8303C142.496 60.53 148.706 66.7718 156.366 66.7718Z" fill="#407BFF"/>
<path d="M127.604 103.607C133.732 103.607 138.7 98.6134 138.7 92.4537C138.7 86.294 133.732 81.3005 127.604 81.3005C121.476 81.3005 116.508 86.294 116.508 92.4537C116.508 98.6134 121.476 103.607 127.604 103.607Z" fill="#407BFF"/>
<path d="M127.604 136.332C133.409 136.332 138.116 131.602 138.116 125.766C138.116 119.931 133.409 115.2 127.604 115.2C121.798 115.2 117.092 119.931 117.092 125.766C117.092 131.602 121.798 136.332 127.604 136.332Z" fill="#407BFF"/>
<path d="M156.366 118.428C161.446 118.428 165.564 114.289 165.564 109.183C165.564 104.077 161.446 99.9377 156.366 99.9377C151.286 99.9377 147.168 104.077 147.168 109.183C147.168 114.289 151.286 118.428 156.366 118.428Z" fill="#155BCC"/>
<path d="M156.366 152.328C161.768 152.328 166.148 147.926 166.148 142.496C166.148 137.065 161.768 132.663 156.366 132.663C150.964 132.663 146.584 137.065 146.584 142.496C146.584 147.926 150.964 152.328 156.366 152.328Z" fill="#407BFF"/>
<path d="M129.794 43.2915C133.261 43.2915 136.072 40.4663 136.072 36.9812C136.072 33.4961 133.261 30.6709 129.794 30.6709C126.326 30.6709 123.516 33.4961 123.516 36.9812C123.516 40.4663 126.326 43.2915 129.794 43.2915Z" fill="#155BCC"/>
<path d="M156.367 29.9372C160.963 29.9372 164.689 26.1921 164.689 21.5724C164.689 16.9526 160.963 13.2075 156.367 13.2075C151.771 13.2075 148.045 16.9526 148.045 21.5724C148.045 26.1921 151.771 29.9372 156.367 29.9372Z" fill="#407BFF"/>
<path d="M182.938 74.8435C186.808 74.8435 189.946 71.6898 189.946 67.7995C189.946 63.9091 186.808 60.7554 182.938 60.7554C179.067 60.7554 175.93 63.9091 175.93 67.7995C175.93 71.6898 179.067 74.8435 182.938 74.8435Z" fill="#407BFF"/>
<path d="M215.059 44.3193C220.864 44.3193 225.571 39.5886 225.571 33.7531C225.571 27.9176 220.864 23.187 215.059 23.187C209.253 23.187 204.547 27.9176 204.547 33.7531C204.547 39.5886 209.253 44.3193 215.059 44.3193Z" fill="#407BFF"/>
<path d="M249.952 45.9327C256.887 45.9327 262.508 40.2823 262.508 33.3121C262.508 26.3419 256.887 20.6914 249.952 20.6914C243.018 20.6914 237.396 26.3419 237.396 33.3121C237.396 40.2823 243.018 45.9327 249.952 45.9327Z" fill="#407BFF"/>
<path d="M257.836 121.51C264.609 121.51 270.1 115.991 270.1 109.183C270.1 102.375 264.609 96.856 257.836 96.856C251.063 96.856 245.572 102.375 245.572 109.183C245.572 115.991 251.063 121.51 257.836 121.51Z" fill="#407BFF"/>
<path d="M231.994 74.9897C238.203 74.9897 243.236 69.9305 243.236 63.6898C243.236 57.449 238.203 52.3899 231.994 52.3899C225.785 52.3899 220.752 57.449 220.752 63.6898C220.752 69.9305 225.785 74.9897 231.994 74.9897Z" fill="#155BCC"/>
<path d="M277.692 87.317C285.11 87.317 291.124 81.2723 291.124 73.8159C291.124 66.3594 285.11 60.3147 277.692 60.3147C270.273 60.3147 264.26 66.3594 264.26 73.8159C264.26 81.2723 270.273 87.317 277.692 87.317Z" fill="#407BFF"/>
<path d="M257.837 151.154C261.869 151.154 265.137 147.869 265.137 143.817C265.137 139.764 261.869 136.479 257.837 136.479C253.805 136.479 250.537 139.764 250.537 143.817C250.537 147.869 253.805 151.154 257.837 151.154Z" fill="#407BFF"/>
<path d="M156.366 66.7718C164.026 66.7718 170.236 60.53 170.236 52.8303C170.236 45.1307 164.026 38.8889 156.366 38.8889C148.706 38.8889 142.496 45.1307 142.496 52.8303C142.496 60.53 148.706 66.7718 156.366 66.7718Z" fill="#155BCC"/>
<path d="M127.604 103.607C133.732 103.607 138.7 98.6134 138.7 92.4537C138.7 86.294 133.732 81.3005 127.604 81.3005C121.476 81.3005 116.508 86.294 116.508 92.4537C116.508 98.6134 121.476 103.607 127.604 103.607Z" fill="#155BCC"/>
<path d="M127.604 136.332C133.409 136.332 138.116 131.602 138.116 125.766C138.116 119.931 133.409 115.2 127.604 115.2C121.798 115.2 117.092 119.931 117.092 125.766C117.092 131.602 121.798 136.332 127.604 136.332Z" fill="#DBE9F8"/>
<path opacity="0.4" d="M156.366 152.328C161.768 152.328 166.148 147.926 166.148 142.496C166.148 137.065 161.768 132.663 156.366 132.663C150.964 132.663 146.584 137.065 146.584 142.496C146.584 147.926 150.964 152.328 156.366 152.328Z" fill="white"/>
<path d="M156.367 29.9372C160.963 29.9372 164.689 26.1921 164.689 21.5724C164.689 16.9526 160.963 13.2075 156.367 13.2075C151.771 13.2075 148.045 16.9526 148.045 21.5724C148.045 26.1921 151.771 29.9372 156.367 29.9372Z" fill="#155BCC"/>
<path d="M182.938 74.8435C186.808 74.8435 189.946 71.6898 189.946 67.7995C189.946 63.9091 186.808 60.7554 182.938 60.7554C179.067 60.7554 175.93 63.9091 175.93 67.7995C175.93 71.6898 179.067 74.8435 182.938 74.8435Z" fill="#155BCC"/>
<path opacity="0.9" d="M215.059 44.3193C220.864 44.3193 225.571 39.5886 225.571 33.7531C225.571 27.9176 220.864 23.187 215.059 23.187C209.253 23.187 204.547 27.9176 204.547 33.7531C204.547 39.5886 209.253 44.3193 215.059 44.3193Z" fill="white"/>
<path d="M249.952 45.9327C256.887 45.9327 262.508 40.2823 262.508 33.3121C262.508 26.3419 256.887 20.6914 249.952 20.6914C243.018 20.6914 237.396 26.3419 237.396 33.3121C237.396 40.2823 243.018 45.9327 249.952 45.9327Z" fill="#155BCC"/>
<path d="M257.836 121.51C264.609 121.51 270.1 115.991 270.1 109.183C270.1 102.375 264.609 96.856 257.836 96.856C251.063 96.856 245.572 102.375 245.572 109.183C245.572 115.991 251.063 121.51 257.836 121.51Z" fill="#155BCC"/>
<path d="M277.692 87.317C285.11 87.317 291.124 81.2723 291.124 73.8159C291.124 66.3594 285.11 60.3147 277.692 60.3147C270.273 60.3147 264.26 66.3594 264.26 73.8159C264.26 81.2723 270.273 87.317 277.692 87.317Z" fill="#155BCC"/>
<path d="M257.837 151.154C261.869 151.154 265.137 147.869 265.137 143.817C265.137 139.764 261.869 136.479 257.837 136.479C253.805 136.479 250.537 139.764 250.537 143.817C250.537 147.869 253.805 151.154 257.837 151.154Z" fill="#155BCC"/>
<path d="M290.101 116.374C294.052 116.374 297.255 113.154 297.255 109.183C297.255 105.212 294.052 101.992 290.101 101.992C286.15 101.992 282.947 105.212 282.947 109.183C282.947 113.154 286.15 116.374 290.101 116.374Z" fill="#155BCC"/>
<path d="M156.366 44.0251L158.118 45.7862L160.454 45.0524L161.184 47.5472L163.52 48.1342L162.936 50.629L164.688 52.39L162.936 54.151L163.52 56.499L161.184 57.2328L160.454 59.5808L158.118 58.9938L156.366 60.7548L154.614 58.9938L152.132 59.5808L151.548 57.2328L149.066 56.499L149.65 54.151L147.898 52.39L149.65 50.629L149.066 48.1342L151.548 47.5472L152.132 45.0524L154.614 45.7862L156.366 44.0251Z" fill="white"/>
<path d="M156.512 104.488L158.264 106.836L161.038 107.863L159.286 110.211V113.146L156.512 112.265L153.738 113.146L153.592 110.211L151.986 107.863L154.76 106.836L156.512 104.488Z" fill="white"/>
<path d="M129.794 34.0459L130.816 35.5134L132.568 36.1004L131.546 37.5679L131.4 39.329L129.794 38.8887L128.042 39.329V37.5679L127.02 36.1004L128.626 35.5134L129.794 34.0459Z" fill="white"/>
<path d="M229.221 57.5261L232.725 62.0754L224.549 61.0482L229.221 57.5261Z" fill="#EE384E"/>
<path d="M227.863 65.122L227.141 70.5029L232.494 71.2294L233.217 65.8485L227.863 65.122Z" fill="white"/>
<path d="M241.046 63.5436C240.9 65.0111 239.44 66.1851 237.834 65.8916C236.374 65.7449 235.206 64.2773 235.498 62.6631C235.644 61.1956 237.104 60.0215 238.71 60.3151C240.17 60.6086 241.192 62.0761 241.046 63.5436Z" fill="white"/>
<path d="M245.717 32.7253L249.367 35.5136L242.943 36.3941L245.717 32.7253Z" fill="white"/>
<path d="M250.503 38.1609L246.314 38.7827L246.933 42.993L251.122 42.3712L250.503 38.1609Z" fill="white"/>
<path d="M242.855 29.5839L239.822 30.0342L240.27 33.083L243.303 32.6327L242.855 29.5839Z" fill="white"/>
<path d="M259.5 29.7294L256.467 30.1797L256.915 33.2285L259.948 32.7783L259.5 29.7294Z" fill="white"/>
<path d="M255.937 34.7805C256.083 35.9545 255.353 37.1285 254.039 37.2752C252.725 37.422 251.703 36.6882 251.557 35.3675C251.411 34.1935 252.141 33.0194 253.455 32.8727C254.623 32.7259 255.645 33.6064 255.937 34.7805Z" fill="white"/>
<path d="M255.353 26.2683L252.579 29.9371L251.703 23.48L255.353 26.2683Z" fill="white"/>
<path d="M249.034 24.8077L244.846 25.4294L245.464 29.6397L249.653 29.0179L249.034 24.8077Z" fill="white"/>
<path d="M255.209 105.808L256.669 109.477L260.465 109.77L257.545 112.265L258.421 116.081L255.209 114.026L251.851 116.081L252.727 112.265L249.807 109.77L253.603 109.477L255.209 105.808Z" fill="white"/>
<path d="M261.487 100.084L262.509 102.432L264.845 102.579L263.093 104.193L263.531 106.541L261.487 105.221L259.443 106.541L260.027 104.193L258.129 102.579L260.611 102.432L261.487 100.084Z" fill="white"/>
<path d="M263.676 110.798L264.26 112.265L265.72 112.412L264.552 113.439L264.99 114.907L263.676 114.026L262.362 114.907L262.654 113.439L261.486 112.412L263.092 112.265L263.676 110.798Z" fill="white"/>
<path d="M273.605 74.5505C273.605 75.4311 272.875 76.1648 271.999 76.1648C271.123 76.1648 270.393 75.4311 270.393 74.5505C270.393 73.67 271.123 72.9363 271.999 72.9363C272.875 72.9363 273.605 73.67 273.605 74.5505Z" fill="white"/>
<path d="M278.714 74.5505C278.714 75.4311 277.984 76.1648 277.108 76.1648C276.232 76.1648 275.502 75.4311 275.502 74.5505C275.502 73.67 276.232 72.9363 277.108 72.9363C277.984 72.9363 278.714 73.67 278.714 74.5505Z" fill="white"/>
<path d="M283.679 74.5505C283.679 75.4311 282.949 76.1648 282.073 76.1648C281.197 76.1648 280.467 75.4311 280.467 74.5505C280.467 73.67 281.197 72.9363 282.073 72.9363C282.949 72.9363 283.679 73.67 283.679 74.5505Z" fill="white"/>
<path d="M124.101 125.766C124.101 126.646 123.371 127.38 122.495 127.38C121.619 127.38 120.889 126.646 120.889 125.766C120.889 124.885 121.619 124.152 122.495 124.152C123.371 124.152 124.101 124.885 124.101 125.766Z" fill="#155BCC"/>
<path d="M127.604 127.38C128.491 127.38 129.21 126.657 129.21 125.766C129.21 124.874 128.491 124.152 127.604 124.152C126.717 124.152 125.998 124.874 125.998 125.766C125.998 126.657 126.717 127.38 127.604 127.38Z" fill="#155BCC"/>
<path d="M134.321 125.766C134.321 126.646 133.591 127.38 132.715 127.38C131.839 127.38 131.109 126.646 131.109 125.766C131.109 124.885 131.839 124.152 132.715 124.152C133.591 124.152 134.321 124.885 134.321 125.766Z" fill="#155BCC"/>
<path d="M209.364 35.3672C210.251 35.3672 210.97 34.6445 210.97 33.7529C210.97 32.8614 210.251 32.1387 209.364 32.1387C208.477 32.1387 207.758 32.8614 207.758 33.7529C207.758 34.6445 208.477 35.3672 209.364 35.3672Z" fill="#155BCC"/>
<path d="M214.473 35.3672C215.36 35.3672 216.079 34.6445 216.079 33.7529C216.079 32.8614 215.36 32.1387 214.473 32.1387C213.586 32.1387 212.867 32.8614 212.867 33.7529C212.867 34.6445 213.586 35.3672 214.473 35.3672Z" fill="#155BCC"/>
<path d="M221.191 33.7529C221.191 34.6334 220.461 35.3672 219.585 35.3672C218.709 35.3672 217.979 34.6334 217.979 33.7529C217.979 32.8724 218.709 32.1387 219.585 32.1387C220.461 32.1387 221.191 32.8724 221.191 33.7529Z" fill="#155BCC"/>
<path d="M288.653 105.666L286.469 110.472L291.25 112.667L293.433 107.861L288.653 105.666Z" fill="white"/>
<path d="M184.505 64.5381L179.58 66.384L181.417 71.3343L186.341 69.4884L184.505 64.5381Z" fill="white"/>
<path d="M254.186 144.55L259.442 140.441L260.756 146.898L254.186 144.55Z" fill="#EE384E"/>
<path d="M151.109 138.68L155.051 135.598L156.073 140.588L151.109 138.68Z" fill="white"/>
<path d="M159.141 142.203L159.725 137.213L163.959 140.001L159.141 142.203Z" fill="white"/>
<path d="M156.805 148.806L157.389 143.67L161.623 146.458L156.805 148.806Z" fill="white"/>
<path d="M149.941 145.431L154.175 142.496L154.905 147.632L149.941 145.431Z" fill="white"/>
<path d="M152.424 22.0121L157.68 17.7563L158.994 24.3602L152.424 22.0121Z" fill="#EE384E"/>
<path d="M126.29 93.1867C125.998 92.8932 123.078 89.8114 122.786 89.5179C122.202 88.9309 121.18 88.9309 120.45 89.5179C119.866 90.1049 119.866 91.1322 120.45 91.8659C120.742 92.1594 123.662 95.2412 123.954 95.5347C124.538 96.1217 125.56 96.1217 126.29 95.5347C127.02 94.801 127.02 93.7737 126.29 93.1867Z" fill="white"/>
<path d="M131.4 86.73C131.108 86.73 127.604 86.8767 127.312 86.8767C126.582 86.8767 125.998 87.4637 125.998 88.1975C125.998 88.9313 126.582 89.5183 127.312 89.5183C127.604 89.5183 131.108 89.3715 131.4 89.3715C132.13 89.3715 132.714 88.7845 132.714 88.0507C132.714 87.317 132.13 86.73 131.4 86.73Z" fill="white"/>
<path d="M132.129 95.0945C131.983 94.801 130.815 92.3062 130.815 92.1595C130.523 91.5725 129.939 91.4257 129.355 91.5725C128.771 91.866 128.625 92.453 128.771 93.04C128.917 93.3335 130.085 95.8283 130.085 95.975C130.377 96.562 130.961 96.7088 131.545 96.562C132.129 96.2685 132.421 95.6815 132.129 95.0945Z" fill="white"/>
<path d="M272.33 177.019L251.598 189.053L275.25 180.835L272.33 177.019Z" fill="#FFBF99"/>
<path d="M282.113 206.223C282.113 206.223 305.473 207.397 295.253 208.864C285.033 210.038 271.163 210.038 266.345 209.598C261.381 209.158 278.317 206.663 282.113 206.223Z" fill="#90A7CB"/>
<path d="M277.732 183.77L271.162 181.715L228.238 196.097C228.238 196.097 222.836 198.739 222.252 204.755C221.96 210.479 219.916 261.989 219.916 261.989H227.946L233.348 220.605L235.392 204.902L245.174 199.766L270.432 188.026L277.732 183.77Z" fill="#0054A3"/>
<path d="M295.106 184.65C296.566 189.199 298.756 202.7 291.456 205.782C291.164 205.929 290.872 206.076 290.434 206.076L251.014 211.799C250.868 211.799 250.722 211.799 250.576 211.799C249.992 211.799 247.656 211.946 248.824 214.44C249.846 217.082 261.234 246.139 264.884 254.797C265.322 256.118 267.658 260.08 266.198 260.814L262.402 264.189C260.796 265.363 257.73 259.934 256.854 258.466L231.012 216.055C231.012 215.908 230.866 215.761 230.866 215.614C230.282 214.147 227.654 206.663 236.122 202.7C244.444 198.738 269.848 186.998 274.812 184.65C275.25 184.356 277.732 183.182 278.316 183.182L292.186 185.09C293.354 185.384 294.814 183.182 295.106 184.65Z" fill="#0064E1"/>
<path d="M204.878 180.101C204.878 179.808 204.586 177.46 206.192 177.46H214.806C215.098 177.46 215.39 177.166 215.39 176.873V171.296C215.39 171.002 215.098 170.709 214.806 170.709H198.308C198.308 170.709 198.308 170.709 198.162 170.709C197.87 170.709 196.118 170.269 195.388 167.48L192.176 146.348C192.176 145.908 192.176 145.468 192.322 145.027C192.614 144.147 193.636 143.12 195.972 143.12C199.622 143.12 226.34 142.973 232.18 142.973C233.494 142.973 234.516 143.56 235.246 144.587C235.538 145.321 235.976 146.201 236.268 147.816C236.852 151.925 239.042 165.132 239.334 167.48C239.334 167.774 239.334 168.067 239.334 168.361C239.188 169.241 238.312 171.149 236.122 171.149C233.202 171.296 222.69 170.856 219.77 170.856C219.478 170.856 219.186 171.149 219.186 171.443V177.313C219.186 177.606 219.478 177.9 219.77 177.9H228.822C228.822 177.9 228.822 177.9 228.968 177.9C229.26 177.9 229.99 178.193 229.99 179.074C229.99 180.688 229.99 180.395 229.99 180.395L205.608 180.541C205.17 180.541 205.024 180.395 204.878 180.101Z" fill="#023EA1"/>
<path d="M291.455 131.526C291.455 131.526 298.025 128.885 300.945 136.956C300.945 136.956 302.989 142.386 304.157 144C305.471 145.468 309.121 146.642 309.121 146.642C309.121 146.642 312.625 148.109 312.333 152.805C312.187 157.355 311.749 161.611 309.997 164.399C308.683 166.453 309.413 167.921 309.851 168.655C309.997 168.948 310.143 169.242 310.143 169.535C310.143 170.416 309.559 172.03 307.077 172.03C303.427 172.03 298.755 173.497 299.339 170.122C299.923 166.747 301.383 150.604 301.383 150.604L298.463 144.294L294.083 141.652L292.039 140.478C292.039 140.478 287.367 134.755 287.367 133.434C287.221 132.26 291.455 131.526 291.455 131.526Z" fill="#170856"/>
<path d="M286.93 131.673L281.674 129.178L281.528 121.694L279.338 119.052L274.812 120.226L268.826 120.079H264.154C264.154 120.079 264.592 131.673 269.264 136.222C269.264 136.222 274.666 137.396 276.564 135.928C276.564 135.928 278.754 134.021 278.754 137.396C278.754 140.771 279.046 144.587 279.046 144.587C279.046 144.587 280.652 147.228 286.93 144.734C286.93 144.734 290.434 143.119 291.602 140.478" fill="#FFBF99"/>
<path d="M267.805 111.274C267.805 111.274 279.777 101.882 287.515 111.274C294.961 120.666 293.793 127.564 291.603 129.472C291.603 129.472 285.033 135.929 279.923 129.031C279.923 129.031 278.901 127.857 279.631 125.656C279.631 125.656 281.675 120.52 276.711 121.694C272.039 122.868 267.951 122.868 266.199 121.107C264.447 119.199 263.863 121.253 263.863 121.841C263.863 122.428 263.279 126.096 260.797 122.721C258.315 119.346 261.381 113.182 264.009 111.715C263.863 111.274 266.199 110.1 267.805 111.274Z" fill="#170856"/>
<path d="M290.727 129.472C290.727 129.472 291.311 131.38 291.165 131.673C291.165 131.673 288.245 133.581 287.515 133.581C287.515 133.581 286.493 132.114 286.785 131.527C286.931 131.527 290.581 129.619 290.727 129.472Z" fill="#EA4E59"/>
<path d="M291.894 140.478C291.894 140.478 292.039 140.478 292.185 140.478C293.499 140.331 301.968 139.891 301.822 149.283C302.552 158.088 297.15 180.981 295.544 186.411L268.972 182.596C269.41 180.394 270.285 175.258 270.285 174.231C270.285 174.231 271.6 164.252 271.6 161.463C271.6 161.023 271.454 160.583 271.162 160.289C269.848 159.115 267.366 155.74 269.702 152.071C269.702 152.071 275.25 143.413 279.338 141.799C279.046 141.652 283.28 148.256 291.894 140.478Z" fill="#FCBE42"/>
<path d="M287.222 163.224L296.566 166.306C296.566 166.306 293.646 174.084 292.04 177.313C290.434 180.541 284.886 178.633 284.886 178.633L256.854 172.323L250.722 170.415C249.992 170.268 249.408 170.415 249.408 172.029C249.408 172.763 247.218 170.709 247.656 169.094C247.656 169.094 247.51 165.719 255.54 167.48L279.63 171.002C279.63 171.002 283.28 171.589 283.864 170.122C284.886 168.214 287.222 163.224 287.222 163.224Z" fill="#FFBF99"/>
<path d="M299.924 143.266C300.508 143.559 300.8 144.293 300.946 144.88C301.238 146.201 301.238 147.815 301.092 149.283C300.508 151.778 297.88 165.132 296.274 167.92C296.274 167.92 290.142 164.545 285.908 164.251C285.908 164.251 289.12 154.859 291.602 148.843C291.456 148.843 294.96 139.744 299.924 143.266Z" fill="#F79F03"/>
<path d="M228.091 261.841L228.383 268.152C228.383 268.152 228.529 269.032 224.295 269.032C219.915 269.032 208.965 269.032 208.965 269.032C208.965 269.032 206.191 267.858 209.257 267.124C209.257 267.124 215.973 265.217 219.623 261.695L228.091 261.841Z" fill="#170856"/>
<path d="M257.73 176.872H247.364V172.616C247.364 172.616 246.926 171.442 248.97 171.296C251.014 171.149 256.416 171.442 256.416 171.442C256.416 171.442 257.876 171.589 257.876 173.35C257.876 174.965 257.73 176.872 257.73 176.872Z" fill="#EE384E"/>
<path d="M256.854 176.432C256.854 176.432 260.65 176.139 261.234 177.9C261.526 179.954 260.65 180.541 258.46 180.541C256.416 180.541 245.028 180.395 245.028 180.395C245.028 180.395 242.838 180.101 242.984 178.487C242.984 177.019 243.422 176.432 245.758 176.432C247.802 176.726 256.854 176.432 256.854 176.432Z" fill="#000036"/>
<path d="M230.865 180.248L260.503 180.395C260.649 180.395 260.649 180.395 260.795 180.395C261.525 180.395 263.715 180.835 263.715 182.302C263.715 184.21 262.255 184.797 259.919 184.797H191.445C190.715 184.797 189.839 184.504 189.401 184.063C188.671 183.476 187.795 181.422 189.401 180.541C189.839 180.248 190.423 180.248 191.007 180.248H230.865Z" fill="#90A7CB"/>
<path d="M212.47 184.65L193.052 200.353C193.052 200.353 189.548 203.141 189.402 209.745C189.256 216.349 188.088 269.766 188.088 269.766C188.088 269.766 187.796 272.701 194.22 272.701H235.83C235.83 272.701 237.436 272.701 237.582 270.793C237.728 268.886 236.122 269.179 234.662 269.179L191.884 269.326L192.176 210.478C192.176 210.478 190.862 205.489 198.892 199.619L216.558 184.65H212.47Z" fill="#023EA1"/>
<path d="M280.214 209.745V264.777C280.214 264.777 289.704 265.07 291.31 266.978C292.916 268.886 291.018 270.353 281.528 269.913C271.892 269.619 266.198 269.619 266.198 269.619C266.198 269.619 261.526 269.179 266.928 266.684C272.33 264.043 276.71 264.777 276.71 264.777L277.148 209.451L280.214 209.745Z" fill="#023EA1"/>
<path d="M265.615 257.146C265.615 257.146 270.871 261.842 267.659 263.896L253.789 274.169C253.789 274.169 251.745 274.609 252.183 272.555L258.461 261.548L265.615 257.146Z" fill="#180756"/>
<path d="M298.861 223.82C298.861 223.82 301.97 222.57 301.722 219.07C301.597 215.445 299.732 212.82 303.463 214.07C307.194 215.32 308.437 215.57 311.298 214.945C314.034 214.32 316.272 213.195 315.029 216.82C313.785 220.445 312.541 223.445 315.402 223.945C318.262 224.57 321.122 222.195 321.62 227.821C321.993 233.446 317.516 239.696 310.303 239.946C302.965 240.071 299.856 237.196 299.856 237.196C299.856 237.196 297.866 234.446 300.851 233.821C303.96 233.196 307.069 231.821 305.453 230.446C303.711 228.946 298.861 228.696 298.861 228.696C298.861 228.696 292.643 227.571 298.861 223.82Z" fill="#649CE8"/>
<path d="M332.316 224.695C331.943 221.07 332.316 218.445 338.783 217.57C345.374 216.57 349.105 220.445 349.602 224.695C349.975 228.821 344.13 230.321 344.13 230.321C344.13 230.321 340.026 231.571 342.141 235.071C344.13 238.696 345.001 242.196 340.399 242.571C335.674 242.946 330.45 241.696 327.714 239.821C324.854 237.946 321.994 233.196 325.227 230.446C325.227 230.446 326.098 229.821 329.331 229.571C332.565 229.571 332.316 224.695 332.316 224.695Z" fill="#033E9F"/>
<path d="M309.059 224.196C309.059 224.196 314.531 236.571 315.277 245.196" stroke="#82D8FD" stroke-width="0.5" stroke-miterlimit="10" stroke-linecap="round" stroke-linejoin="round"/>
<path d="M339.528 226.321C339.528 226.321 329.828 240.946 327.465 245.696" stroke="#579DD3" stroke-width="0.5" stroke-miterlimit="10" stroke-linecap="round" stroke-linejoin="round"/>
<path d="M321.123 245.072C321.123 245.072 322.367 222.946 328.709 209.32" stroke="#FABC42" stroke-width="0.5" stroke-miterlimit="10"/>
<path d="M334.181 201.195C334.181 201.195 334.803 207.82 328.211 210.57C327.963 210.57 326.719 204.945 334.181 201.195Z" fill="#FABC42"/>
<path d="M324.107 222.695C324.107 222.695 326.595 216.945 334.057 217.695C334.181 217.57 333.435 223.445 324.107 222.695Z" fill="#FABC42"/>
<path d="M321.744 237.071C321.744 237.071 322.988 230.821 330.325 230.196C330.45 230.321 331.071 236.071 321.744 237.071Z" fill="#FABC42"/>
<path d="M321.62 237.321C321.62 237.321 322.49 231.071 315.899 227.946C315.899 227.946 313.412 233.321 321.62 237.321Z" fill="#FABC42"/>
<path d="M324.357 222.696C324.357 222.696 326.098 216.696 319.755 212.695C319.506 212.57 316.522 217.571 324.357 222.696Z" fill="#FABC42"/>
<path d="M311.918 244.321H334.304C334.304 244.321 336.791 244.446 336.542 247.946C336.418 251.071 332.438 250.446 330.324 250.446C328.334 250.446 311.297 250.446 311.297 250.446C311.297 250.446 308.561 250.821 308.561 247.696C308.685 244.446 309.68 244.321 311.918 244.321Z" fill="#0054A3"/>
<path d="M311.297 250.071L314.779 269.947H329.703L332.314 254.946L311.297 250.071Z" fill="#0054A3"/>
<path d="M311.297 250.071L332.314 254.946L333.309 250.071H311.297Z" fill="#016AD3"/>
<path d="M77.8679 212.933C77.8679 212.933 58.3924 214.08 66.8745 215.214C75.3567 216.361 87.0313 216.361 91.1588 215.894C95.2729 215.441 81.0737 213.16 77.8679 212.933Z" fill="#0064B7"/>
<path d="M76.5204 215.507L76.2399 269.787C76.2399 269.787 67.8112 270.001 66.3152 271.975C64.8191 273.949 66.5556 275.19 75.2248 274.977C83.8939 274.763 89.1034 274.79 89.1034 274.79C89.1034 274.79 93.3244 274.31 88.3687 271.815C83.413 269.32 79.4458 270.041 79.4458 270.041L79.1653 215.574L76.5204 215.507Z" fill="#0064B7"/>
<path d="M81.7813 130.799C81.7813 130.799 79.417 124.222 85.2276 122.475C85.2276 122.475 86.9107 112.563 94.8184 117.045C95.4195 117.379 96.1008 117.432 96.7152 117.125C98.8124 116.085 103.461 111.056 106.68 118.766C106.934 119.366 107.548 119.607 108.109 119.633C110.487 119.727 116.217 120.66 111.516 127.744C111.516 127.744 109.338 130.372 105.705 130.585C105.705 130.585 88.8342 142.191 83.9319 140.23C79.0564 138.242 79.2434 132.986 81.7813 130.799Z" fill="#2C2477"/>
<path d="M97.8798 127.451C98.1202 127.371 107.097 124.489 105.681 132.48V132.493C105.694 132.706 105.948 139.87 100.204 143.992C100.124 144.045 100.044 144.112 99.9769 144.192C99.6163 144.579 98.0534 145.953 95.5288 143.659C93.1912 141.537 92.4165 143.005 92.1627 143.618C92.0959 143.779 92.0024 143.952 91.9223 144.099C91.5616 144.752 90.4529 146.313 91.1876 147.38C91.9623 148.501 92.9374 149.888 93.1912 150.262C93.2179 150.302 93.1912 150.355 93.1511 150.355C91.8421 150.275 78.7115 149.421 79.0321 146.513C79.0321 146.513 79.8202 143.298 79.8202 143.285L80.0606 143.232C80.1007 143.218 80.1408 143.205 80.1808 143.178L84.2817 140.163C84.295 140.163 84.295 140.15 84.3084 140.15C84.5755 140.177 88.516 140.524 89.9186 138.829C89.9186 138.829 91.6684 136.828 92.4833 134.241C92.7237 133.467 92.6035 132.6 92.1493 131.986C91.4681 131.079 90.7468 129.425 92.4566 128.251C92.4566 128.251 93.7923 127.264 95.0079 128.745L95.1682 128.945C95.2884 129.091 95.462 129.118 95.6089 129.011L97.8798 127.451C97.8664 127.451 97.8664 127.451 97.8798 127.451Z" fill="#FFBF9C"/>
<path d="M79.7935 143.285C79.7935 143.285 85.7777 148.835 92.5768 149.462C92.5768 149.462 96.2902 153.584 96.8379 162.575C97.3856 171.566 97.7462 191.709 97.1985 193.016C96.6509 194.324 64.726 194.11 64.726 194.11C64.726 194.11 67.0903 161.467 70.8973 154.677C70.8973 154.677 76.5208 144.819 79.7935 143.285Z" fill="#DE051F"/>
<path d="M76.9207 167.604C76.9207 167.604 77.4684 179.649 78.5503 184.038C79.6323 188.414 80.18 190.388 84.7216 191.042C89.2632 191.695 101.232 192.576 103.583 192.136C105.947 191.695 113.561 193.643 113.561 193.643C113.561 193.643 115.925 194.297 116.099 192.763C116.272 191.228 118.824 192.549 118.997 193.203C119.184 193.856 120.453 194.737 120.814 192.989C121.175 191.242 121.001 189.041 117.915 188.387C114.83 187.733 111.931 188.387 108.659 188.64C105.747 188.867 103.796 187.96 103.222 187.96L88.5285 184.679C88.5285 184.679 86.7119 184.025 86.3512 181.397C85.9906 178.769 85.9906 167.377 85.9906 167.377L76.9207 167.604Z" fill="#FFBF9C"/>
<path d="M75.4642 168.91H87.0453C87.1789 160.373 86.3641 152.262 81.8091 152.249C81.8091 152.262 75.4642 150.821 75.4642 168.91Z" fill="#EE384E"/>
<path d="M129.855 210.091C129.855 210.091 133.221 230.235 133.675 235.304C134.143 240.319 136.561 256.527 136.561 256.527L129.12 256.314L122.775 228.714L129.855 210.091Z" fill="#0064E1"/>
<path d="M64.885 191.989C64.7515 192.896 63.95 206.449 65.2724 209.878C66.4746 213.012 69.627 214.04 75.2506 214.48C80.0059 214.853 104.651 213.586 112.131 213.159C113.146 213.106 113.881 214.293 113.56 215.44L102.474 254.78L109.005 258.288C109.005 258.288 124.06 230.688 126.424 224.111C128.788 217.535 132.047 206.156 131.86 203.514C131.86 203.514 132.408 198.472 126.785 197.818C121.268 197.178 103.689 193.79 103.035 193.656C103.021 193.656 103.008 193.656 102.994 193.656L97.224 193.003C97.2106 193.003 97.1972 193.003 97.1839 193.003L64.885 191.989Z" fill="#003EB0"/>
<path d="M103.489 192.229C102.995 192.122 101.352 192.215 101.365 193.442C101.378 194.563 103.369 194.71 103.729 194.763C104.01 194.803 126.504 198.045 127.96 198.258C128 198.272 128.054 198.272 128.094 198.285C128.468 198.365 130.525 198.698 131.847 196.524C133.223 194.243 144.176 177.648 145.352 175.874C145.405 175.794 145.459 175.714 145.525 175.634C145.752 175.354 146.394 174.406 145.632 173.313C144.724 171.992 143.268 174.193 143.268 174.193L130.057 195.123C129.75 195.604 129.336 195.964 128.855 196.11H128.842C128.641 196.164 128.441 196.177 128.241 196.137" fill="#0064B7"/>
<path d="M136.509 256.274C136.522 256.274 136.549 256.274 136.562 256.287C136.963 256.661 143.027 262.264 146.18 263.531C146.487 263.651 146.781 263.784 147.075 263.918C147.315 264.024 147.542 264.144 147.769 264.278C147.943 264.385 148.116 264.491 148.29 264.611C148.41 264.705 148.53 264.798 148.651 264.905C148.731 264.985 148.811 265.065 148.891 265.158C148.945 265.225 148.985 265.292 149.025 265.372C149.051 265.425 149.078 265.478 149.092 265.532C149.105 265.599 149.105 265.652 149.092 265.719C149.092 265.785 149.092 265.839 149.092 265.905C149.092 265.972 149.092 266.039 149.092 266.105C149.092 266.132 149.065 266.159 149.038 266.159L129.015 263.557C128.962 263.544 128.908 263.531 128.868 263.504C128.654 263.357 128.08 262.824 128.227 261.583C128.387 260.182 129.015 256.928 129.122 256.394C129.135 256.354 129.162 256.327 129.202 256.314L136.509 256.274Z" fill="#2B2377"/>
<path d="M108.992 258.288C108.992 258.288 112.438 267.052 114.802 269.027C116.605 270.534 116.071 271.788 115.724 272.295C115.617 272.455 115.443 272.535 115.27 272.508C114.842 272.455 113.907 272.228 112.985 271.441C111.716 270.347 99.2003 261.143 99.2003 261.143C99.2003 261.143 98.6526 259.822 99.561 258.515C100.469 257.194 102.46 254.793 102.46 254.793L108.992 258.288Z" fill="#2B2377"/>
</svg>
