<svg width="330" height="279" viewBox="0 0 330 279" fill="none" xmlns="http://www.w3.org/2000/svg">
<path d="M299.924 33.8984C301.619 33.8984 303.313 33.8984 305.008 33.8984C305.008 33.8984 305.149 33.8984 305.29 34.0379C306.561 34.3169 307.126 35.0144 307.267 36.1304C307.408 37.2464 307.69 38.5019 307.69 39.6179C307.832 40.1759 308.82 40.5944 309.244 40.1759C310.232 39.4784 311.079 38.6414 312.209 37.9439C313.338 37.1069 314.609 37.1069 315.598 38.0834C316.727 39.1994 317.716 40.1759 318.845 41.2919C319.834 42.2684 319.834 43.5239 318.986 44.6399C318.422 45.4769 317.716 46.4534 317.151 47.1509C316.727 47.5694 316.586 48.1274 317.01 48.6854C317.151 48.8249 317.292 49.1039 317.433 49.1039C318.563 49.2434 319.975 49.5224 321.104 49.5224C322.093 49.6619 322.799 50.0804 322.94 50.9174C323.081 51.1964 323.081 51.3359 323.222 51.7544C323.222 53.4284 323.222 55.1024 323.222 56.9159C323.222 57.0554 323.081 57.1949 323.081 57.3344C322.658 58.4504 322.093 59.0084 321.104 59.1479C319.975 59.2874 318.704 59.5664 317.574 59.5664C317.01 59.5664 316.445 60.6824 317.01 61.1009C317.716 62.0774 318.563 63.0539 319.269 64.0304C320.116 65.1464 319.975 66.4019 319.128 67.3784C317.998 68.4944 317.01 69.6104 315.88 70.5869C314.892 71.5634 313.621 71.5634 312.491 70.7264C311.362 70.0289 310.514 69.1919 309.385 68.4944C308.961 68.0759 307.973 68.4944 307.832 69.0524C307.69 70.3079 307.408 71.5634 307.267 72.8189C307.126 73.7954 306.561 74.4929 305.572 74.6324C305.431 74.6324 305.149 74.7719 305.008 74.9114C303.172 74.9114 301.478 74.9114 299.783 74.9114C299.783 74.9114 299.642 74.9114 299.642 74.7719C298.512 74.4929 297.806 73.7954 297.665 72.6794C297.524 71.5634 297.242 70.3079 297.242 69.3314C297.1 68.7734 296.112 68.2154 295.547 68.7734C294.559 69.4709 293.712 70.3079 292.582 70.8659C291.452 71.7029 290.182 71.7029 289.193 70.7264C288.064 69.6104 287.075 68.6339 285.946 67.5179C284.957 66.5414 284.957 65.2859 285.804 64.1699C286.369 63.3329 287.075 62.3564 287.64 61.6589C288.064 61.2404 288.064 60.5429 287.781 60.1244C287.64 59.9849 287.499 59.7059 287.358 59.7059C286.228 59.5664 284.957 59.2874 283.969 59.2874C282.416 59.1479 281.568 58.1714 281.568 56.7764C281.568 55.2419 281.568 53.7074 281.568 52.1729C281.568 50.7779 282.416 49.8014 283.686 49.6619C284.816 49.5224 286.087 49.2434 287.216 49.2434C287.781 49.2434 288.205 48.1274 287.781 47.7089C287.075 46.7324 286.228 45.7559 285.522 44.7794C284.675 43.6634 284.675 42.4079 285.663 41.4314C286.793 40.3154 287.781 39.3389 288.911 38.2229C289.899 37.2464 291.17 37.2464 292.3 38.0834C293.429 38.7809 294.276 39.6179 295.406 40.3154C295.83 40.7339 296.818 40.3154 296.959 39.7574C297.1 38.6414 297.383 37.2464 297.524 36.1304C297.665 35.0144 298.23 34.4564 299.218 34.3169C299.501 34.0379 299.783 34.0379 299.924 33.8984ZM316.727 43.2449C315.598 42.1289 314.75 41.1524 313.48 40.0364C312.068 41.1524 310.656 42.1289 309.244 43.2449C308.961 43.3844 308.82 43.3844 308.538 43.2449C307.549 42.8264 306.702 42.4079 305.714 41.9894C305.29 41.8499 305.149 41.5709 305.149 41.2919C304.866 39.6179 304.725 37.9439 304.443 36.2699C304.443 35.9909 304.302 35.8514 304.019 35.8514C302.89 35.8514 301.619 35.8514 300.489 35.8514C300.066 35.8514 300.066 35.9909 300.066 36.2699C299.783 37.9439 299.642 39.6179 299.36 41.2919C299.36 41.7104 299.218 41.7104 298.795 41.8499C297.806 42.2684 296.959 42.5474 295.971 42.9659C295.547 43.1054 295.406 43.1054 295.124 42.9659C293.712 41.8499 292.3 40.8734 291.17 39.8969C290.04 41.0129 289.052 41.9894 287.922 43.1054C287.922 43.2449 288.064 43.3844 288.205 43.5239C289.193 44.7794 290.04 46.0349 291.029 47.2904C291.17 47.4299 291.17 47.7089 291.17 47.8484C290.746 48.9644 290.182 49.9409 289.758 51.0569C289.758 51.1964 289.476 51.4754 289.334 51.4754C288.346 51.6149 287.499 51.7544 286.51 51.8939C285.522 52.0334 284.675 52.1729 283.686 52.3124C283.686 53.8469 283.686 55.2419 283.686 56.6369C283.828 56.6369 284.11 56.7764 284.251 56.7764C285.946 57.0554 287.499 57.1949 289.193 57.4739C289.617 57.4739 289.617 57.6134 289.758 57.8924C290.182 58.8689 290.464 59.7059 290.888 60.6824C291.029 61.1009 291.029 61.2404 290.888 61.6589C289.758 63.0539 288.77 64.4489 287.781 65.5649C288.911 66.6809 289.758 67.5179 291.029 68.7734C291.17 68.7734 291.311 68.6339 291.452 68.3549C292.723 67.3784 293.994 66.5414 295.265 65.5649C295.406 65.4254 295.688 65.4254 295.83 65.4254C296.959 65.8439 297.806 66.4019 299.077 66.6809C299.501 66.8204 299.501 66.9599 299.501 67.2389C299.783 68.9129 299.924 70.5869 300.207 72.2609C300.207 72.6794 300.348 72.6794 300.63 72.6794C301.76 72.6794 303.031 72.6794 304.019 72.6794C304.443 72.6794 304.443 72.5399 304.443 72.2609C304.725 70.5869 304.866 68.9129 305.149 67.0994C305.149 66.8204 305.29 66.6809 305.572 66.5414C306.702 66.1229 307.69 65.5649 308.82 65.2859C308.961 65.2859 309.244 65.2859 309.385 65.2859C310.656 66.2624 311.926 67.0994 313.338 68.0759C313.48 68.2154 313.762 68.3549 313.762 68.3549C314.892 67.2389 315.88 66.2624 317.01 65.1464C317.01 65.0069 316.868 64.8674 316.727 64.7279C315.739 63.4724 314.892 62.2169 313.903 60.9614C313.762 60.8219 313.762 60.5429 313.762 60.5429C314.186 59.4269 314.75 58.3109 315.174 57.3344C315.174 57.1949 315.456 57.0554 315.598 57.0554C316.304 56.9159 317.01 56.7764 317.716 56.7764C318.845 56.6369 320.116 56.3579 321.246 56.3579C321.246 54.8234 321.246 53.4284 321.246 52.0334C319.41 51.7544 317.574 51.4754 315.739 51.1964C315.456 51.1964 315.315 51.0569 315.315 50.7779C314.892 49.6619 314.468 48.8249 314.044 47.8484C313.903 47.4299 313.903 47.4299 314.044 47.0114C314.75 45.7559 315.88 44.5004 316.727 43.2449Z" stroke="#003EAE" stroke-miterlimit="10"/>
<path d="M316.728 43.245C315.598 44.64 314.751 46.035 313.48 47.151C313.198 47.43 313.198 47.5695 313.48 47.988C313.904 48.9645 314.327 49.941 314.751 50.9175C314.892 51.1965 315.033 51.336 315.174 51.336C317.01 51.615 318.846 51.7545 320.681 52.173C320.681 53.568 320.681 54.963 320.681 56.4975C319.552 56.637 318.281 56.916 317.151 56.916C316.445 57.0555 315.739 57.0555 315.033 57.195C314.892 57.195 314.61 57.3345 314.61 57.474C314.186 58.59 313.621 59.5665 313.198 60.6825C313.198 60.822 313.198 61.101 313.339 61.101C314.327 62.3565 315.174 63.612 316.163 64.8675C316.304 65.007 316.445 65.1465 316.445 65.286C315.316 66.402 314.468 67.239 313.198 68.4945C313.198 68.4945 312.915 68.355 312.774 68.2155C311.503 67.239 310.232 66.402 308.82 65.4255C308.679 65.286 308.397 65.286 308.256 65.4255C307.126 65.844 306.138 66.402 305.008 66.681C304.726 66.8205 304.584 66.96 304.584 67.239C304.302 68.913 304.161 70.587 303.878 72.4005C303.878 72.819 303.737 72.819 303.455 72.819C302.325 72.819 301.054 72.819 300.066 72.819C299.642 72.819 299.642 72.6795 299.642 72.4005C299.36 70.7265 299.219 69.0525 298.936 67.3785C298.936 66.96 298.795 66.96 298.513 66.8205C297.383 66.402 296.536 65.844 295.265 65.565C295.124 65.565 294.842 65.565 294.7 65.7045C293.43 66.681 292.159 67.518 290.888 68.4945C290.747 68.634 290.464 68.7735 290.464 68.913C289.335 67.797 288.488 66.96 287.217 65.7045C288.346 64.3095 289.194 63.054 290.323 61.7985C290.606 61.38 290.606 61.2405 290.323 60.822C289.9 59.8455 289.476 59.0085 289.194 58.032C289.052 57.6135 288.911 57.6135 288.629 57.6135C286.934 57.3345 285.381 57.195 283.687 56.916C283.546 56.916 283.263 56.916 283.122 56.7765C283.122 55.3815 283.122 53.9865 283.122 52.452C284.11 52.3125 284.958 52.173 285.946 52.0335C286.934 51.894 287.782 51.7545 288.77 51.615C288.911 51.615 289.194 51.4755 289.194 51.1965C289.617 50.0805 290.182 49.104 290.606 47.988C290.606 47.8485 290.606 47.5695 290.464 47.43C289.476 46.1745 288.629 44.919 287.64 43.6635C287.499 43.524 287.358 43.3845 287.358 43.245C288.488 42.129 289.335 41.1525 290.606 40.0365C291.876 41.013 293.288 41.9895 294.559 43.1055C294.842 43.3845 294.983 43.3845 295.406 43.1055C296.395 42.687 297.242 42.2685 298.23 41.9895C298.654 41.85 298.654 41.7105 298.795 41.4315C299.078 39.7575 299.219 38.0835 299.501 36.4095C299.501 35.991 299.642 35.991 299.925 35.991C301.054 35.991 302.325 35.991 303.455 35.991C303.737 35.991 303.878 35.991 303.878 36.4095C304.161 38.0835 304.302 39.7575 304.584 41.4315C304.584 41.85 304.867 41.9895 305.149 42.129C306.138 42.5475 306.985 42.966 307.973 43.3845C308.256 43.524 308.397 43.524 308.679 43.3845C310.091 42.2685 311.503 41.292 312.915 40.176C314.751 41.013 315.88 41.9895 316.728 43.245ZM293.43 53.9865C293.43 58.869 297.383 62.775 302.325 62.775C307.408 62.775 311.221 58.869 311.221 53.9865C311.221 48.9645 307.267 45.198 302.325 45.198C297.524 45.198 293.43 49.104 293.43 53.9865Z" stroke="#003EAE" stroke-miterlimit="10"/>
<path d="M107.61 137.268C145.588 137.268 176.375 106.852 176.375 69.3315C176.375 31.8112 145.588 1.39502 107.61 1.39502C69.6326 1.39502 38.8457 31.8112 38.8457 69.3315C38.8457 106.852 69.6326 137.268 107.61 137.268Z" stroke="#DC051F" stroke-miterlimit="10" stroke-dasharray="6 6"/>
<path d="M53.5305 36.6886C57.6636 36.6886 61.0141 33.3784 61.0141 29.2951C61.0141 25.2118 57.6636 21.9016 53.5305 21.9016C49.3974 21.9016 46.0469 25.2118 46.0469 29.2951C46.0469 33.3784 49.3974 36.6886 53.5305 36.6886Z" fill="#003EAE"/>
<path d="M54.9426 25.8076L49.8594 28.5976L54.519 31.3876L54.9426 25.8076Z" fill="white"/>
<path d="M276.908 154.008C279.026 154.008 281.003 154.008 283.121 154.008C283.121 154.008 283.262 154.008 283.403 154.148C284.956 154.427 285.662 155.403 285.803 156.659C285.945 158.054 286.368 159.588 286.368 160.983C286.509 161.681 287.78 162.239 288.204 161.681C289.475 160.844 290.463 159.867 291.875 158.891C293.287 157.914 294.84 157.914 295.97 159.03C297.382 160.425 298.511 161.541 299.923 162.936C301.194 164.192 301.194 165.726 300.065 166.982C299.359 167.958 298.511 169.214 297.805 170.051C297.241 170.609 297.099 171.306 297.664 171.864C297.805 172.004 297.947 172.422 298.229 172.422C299.641 172.562 301.335 172.98 302.747 172.98C304.018 173.12 304.865 173.678 305.007 174.654C305.148 174.933 305.148 175.212 305.289 175.631C305.289 177.723 305.289 179.676 305.289 181.908C305.289 182.048 305.148 182.187 305.148 182.466C304.583 183.861 303.877 184.559 302.747 184.698C301.335 184.838 299.782 185.256 298.37 185.256C297.664 185.256 296.958 186.651 297.664 187.07C298.511 188.325 299.5 189.441 300.488 190.697C301.477 192.092 301.335 193.626 300.347 194.742C298.935 196.137 297.805 197.532 296.393 198.648C295.123 199.904 293.569 199.904 292.299 198.788C290.887 197.951 289.898 196.974 288.486 195.998C287.921 195.44 286.792 195.998 286.651 196.695C286.509 198.23 286.086 199.764 285.945 201.299C285.803 202.554 285.097 203.391 283.827 203.531C283.685 203.531 283.262 203.67 283.121 203.81C280.861 203.81 278.743 203.81 276.767 203.81C276.767 203.81 276.625 203.81 276.625 203.67C275.213 203.391 274.366 202.415 274.225 201.159C274.084 199.764 273.66 198.23 273.66 197.114C273.519 196.416 272.248 195.719 271.542 196.416C270.271 197.253 269.283 198.23 267.871 198.927C266.459 199.904 264.906 199.904 263.776 198.788C262.364 197.393 261.235 196.277 259.823 194.882C258.552 193.626 258.552 192.092 259.681 190.836C260.387 189.86 261.235 188.604 261.941 187.767C262.505 187.209 262.505 186.372 262.082 185.954C261.941 185.814 261.799 185.396 261.517 185.396C260.105 185.256 258.552 184.838 257.422 184.838C255.587 184.698 254.457 183.443 254.457 181.769C254.457 180.095 254.457 178.002 254.457 176.189C254.457 174.515 255.445 173.259 256.999 173.12C258.411 172.98 259.964 172.562 261.376 172.562C262.082 172.562 262.647 171.167 262.082 170.748C261.235 169.493 260.246 168.377 259.258 167.121C258.269 165.726 258.269 164.192 259.399 163.076C260.811 161.681 261.941 160.565 263.353 159.17C264.623 157.914 266.177 157.914 267.447 159.03C268.859 159.867 269.848 160.844 271.26 161.82C271.825 162.378 272.954 161.82 273.095 161.123C273.237 159.728 273.66 158.054 273.801 156.659C273.943 155.264 274.649 154.566 275.919 154.427C276.484 154.148 276.767 154.148 276.908 154.008ZM297.382 165.308C295.97 163.913 294.981 162.797 293.428 161.402C291.734 162.797 290.039 163.913 288.204 165.308C287.921 165.447 287.639 165.447 287.357 165.308C286.086 164.75 285.097 164.331 283.968 163.773C283.403 163.634 283.262 163.215 283.262 162.936C282.979 160.844 282.697 158.891 282.415 156.798C282.415 156.519 282.273 156.24 281.85 156.24C280.438 156.24 278.885 156.24 277.473 156.24C276.908 156.24 276.908 156.38 276.908 156.798C276.625 158.891 276.343 160.844 276.061 162.936C276.061 163.494 275.919 163.494 275.355 163.634C274.084 164.192 273.095 164.471 271.966 165.029C271.401 165.168 271.26 165.168 270.977 165.029C269.283 163.634 267.589 162.518 266.035 161.262C264.623 162.657 263.494 163.773 262.082 165.168C262.082 165.308 262.223 165.447 262.364 165.726C263.635 167.261 264.623 168.795 265.753 170.33C265.894 170.469 265.894 170.888 265.894 171.027C265.329 172.422 264.623 173.538 264.2 174.933C264.2 175.073 263.917 175.491 263.635 175.491C262.364 175.631 261.376 175.77 260.246 176.049C258.975 176.189 257.987 176.328 256.857 176.607C256.857 178.421 256.857 180.234 256.857 181.908C256.999 181.908 257.422 182.048 257.563 182.048C259.681 182.327 261.517 182.606 263.635 182.885C264.2 182.885 264.2 183.024 264.341 183.443C264.906 184.698 265.188 185.675 265.753 186.791C265.894 187.349 265.894 187.488 265.753 188.046C264.341 189.72 263.211 191.394 261.941 192.929C263.353 194.324 264.341 195.3 265.894 196.835C266.035 196.835 266.177 196.695 266.459 196.277C268.012 195.021 269.565 194.045 271.119 192.929C271.26 192.789 271.683 192.789 271.825 192.789C273.237 193.347 274.225 194.045 275.778 194.324C276.343 194.463 276.343 194.603 276.343 195.021C276.625 197.114 276.908 199.067 277.19 201.159C277.19 201.717 277.331 201.717 277.755 201.717C279.167 201.717 280.72 201.717 281.85 201.717C282.415 201.717 282.415 201.578 282.415 201.159C282.697 199.067 282.979 197.114 283.262 194.882C283.262 194.603 283.403 194.324 283.827 194.184C285.239 193.626 286.368 192.929 287.78 192.65C287.921 192.65 288.345 192.65 288.486 192.65C290.039 193.905 291.593 194.882 293.287 195.998C293.428 196.137 293.852 196.277 293.852 196.277C295.264 194.882 296.393 193.766 297.805 192.371C297.805 192.231 297.664 192.092 297.523 191.813C296.252 190.278 295.264 188.744 294.134 187.209C293.993 187.07 293.993 186.651 293.993 186.651C294.558 185.256 295.264 183.861 295.687 182.745C295.687 182.606 295.97 182.466 296.252 182.466C297.099 182.327 297.947 182.187 298.794 182.187C300.206 182.048 301.759 181.629 303.171 181.629C303.171 179.816 303.171 178.002 303.171 176.328C300.912 176.049 298.653 175.631 296.393 175.352C296.111 175.352 295.829 175.212 295.829 174.794C295.264 173.399 294.84 172.422 294.275 171.167C294.134 170.609 294.134 170.609 294.275 170.19C294.84 168.656 296.252 166.842 297.382 165.308Z" stroke="#EC384E" stroke-miterlimit="10"/>
<path d="M297.381 165.307C295.969 166.981 294.981 168.655 293.428 170.19C293.145 170.469 293.145 170.748 293.428 171.166C293.993 172.422 294.416 173.538 294.981 174.793C295.122 175.072 295.263 175.351 295.546 175.351C297.805 175.63 300.064 175.909 302.323 176.328C302.323 178.002 302.323 179.676 302.323 181.629C300.911 181.768 299.358 182.187 297.946 182.187C297.099 182.326 296.252 182.326 295.405 182.466C295.263 182.466 294.84 182.605 294.84 182.745C294.275 184.14 293.569 185.256 293.145 186.651C293.145 186.79 293.145 187.209 293.287 187.209C294.557 188.743 295.546 190.278 296.675 191.812C296.817 191.952 296.958 192.091 296.958 192.37C295.546 193.765 294.557 194.742 293.004 196.276C293.004 196.276 292.722 196.137 292.439 195.997C290.886 194.742 289.333 193.765 287.639 192.649C287.497 192.51 287.074 192.51 286.933 192.649C285.521 193.207 284.391 193.905 282.979 194.184C282.697 194.323 282.414 194.463 282.414 194.881C282.132 196.974 281.849 198.927 281.567 201.159C281.567 201.717 281.426 201.717 281.002 201.717C279.59 201.717 278.037 201.717 276.907 201.717C276.343 201.717 276.343 201.577 276.343 201.159C276.06 199.066 275.778 197.113 275.495 195.021C275.495 194.463 275.354 194.463 274.931 194.323C273.519 193.765 272.53 193.068 270.977 192.789C270.836 192.789 270.412 192.789 270.271 192.928C268.718 194.184 267.165 195.16 265.611 196.276C265.47 196.416 265.047 196.555 265.047 196.834C263.635 195.439 262.646 194.463 261.093 192.928C262.505 191.254 263.493 189.72 264.905 188.046C265.188 187.488 265.188 187.348 264.905 186.79C264.341 185.535 263.917 184.558 263.493 183.442C263.352 182.884 263.211 182.884 262.787 182.884C260.669 182.605 258.834 182.326 256.716 182.047C256.575 182.047 256.151 182.047 256.01 181.908C256.01 180.234 256.01 178.56 256.01 176.607C257.281 176.467 258.269 176.328 259.399 176.049C260.669 175.909 261.658 175.77 262.787 175.491C262.929 175.491 263.352 175.351 263.352 174.933C263.917 173.538 264.623 172.422 265.047 171.027C265.047 170.887 265.047 170.469 264.905 170.329C263.635 168.795 262.646 167.26 261.517 165.726C261.375 165.586 261.234 165.447 261.234 165.168C262.646 163.773 263.635 162.657 265.188 161.262C266.741 162.517 268.435 163.633 270.13 165.028C270.412 165.307 270.695 165.307 271.118 165.028C272.389 164.47 273.377 164.052 274.507 163.633C275.072 163.494 275.072 163.354 275.213 162.936C275.495 160.843 275.778 158.89 276.06 156.798C276.06 156.24 276.201 156.24 276.625 156.24C278.037 156.24 279.59 156.24 281.002 156.24C281.285 156.24 281.567 156.24 281.567 156.798C281.849 158.89 282.132 160.843 282.414 162.936C282.414 163.494 282.697 163.633 283.12 163.773C284.391 164.331 285.379 164.749 286.509 165.307C286.791 165.447 287.074 165.447 287.356 165.307C289.051 163.912 290.745 162.796 292.581 161.401C294.84 162.796 296.252 163.773 297.381 165.307ZM269 178.56C269 184.558 273.801 189.301 279.731 189.301C285.944 189.301 290.604 184.558 290.604 178.699C290.604 172.561 285.803 167.958 279.873 167.958C274.083 167.958 269 172.701 269 178.56Z" stroke="#EC384E" stroke-miterlimit="10"/>
<path d="M202.215 197.114H136.557V239.661H202.215V197.114Z" fill="#0064E1"/>
<path d="M269.537 64H257.235H69.039C63.3832 64 59 68.62 59 73.94V190H70.3116H268.688H280V74.36C279.859 68.48 275.193 64 269.537 64Z" fill="#0064E1"/>
<path d="M269.708 228.501H257.423H69.4861C63.8381 228.501 59.4609 223.898 59.4609 218.597V189.999H280.157V218.597C280.015 223.898 275.356 228.501 269.708 228.501Z" fill="#0054A3"/>
<path d="M251.494 239.94H70.334V249.705H251.494V239.94Z" fill="#0054A3"/>
<path d="M270.414 74.6326H66.6621V189.86H270.414V74.6326Z" fill="white"/>
<g opacity="0.5">
<path d="M302.324 49.6621H145.027V138.942H302.324V49.6621Z" fill="#BCDBFD"/>
</g>
<path d="M295.406 52.0334H148.699V59.9849H295.406V52.0334Z" fill="white"/>
<path d="M206.45 63.8911H150.676V135.036H206.45V63.8911Z" fill="white"/>
<path d="M198.967 110.065H155.336V130.711H198.967V110.065Z" fill="#DBE6F3"/>
<path d="M198.967 69.3315H155.336V72.4005H198.967V69.3315Z" fill="#DBE6F3"/>
<path d="M198.967 76.0276H155.336V79.0966H198.967V76.0276Z" fill="#DBE6F3"/>
<path d="M198.967 83.7H155.336V86.769H198.967V83.7Z" fill="#DBE6F3"/>
<path d="M198.967 90.5354H155.336V93.6044H198.967V90.5354Z" fill="#DBE6F3"/>
<path d="M295.548 63.8911H222.406V67.5181H295.548V63.8911Z" fill="#DBE6F3"/>
<path d="M295.548 70.5869H222.406V74.2139H295.548V70.5869Z" fill="#DBE6F3"/>
<path d="M295.548 78.3989H222.406V82.0259H295.548V78.3989Z" fill="#DBE6F3"/>
<path d="M128.791 62.3564H74.7109V108.67H128.791V62.3564Z" fill="#DCE8F5"/>
<path d="M125.402 67.5181H79.5117V88.3036H125.402V67.5181Z" fill="white"/>
<path d="M230.313 54.126H150.676V58.032H230.313V54.126Z" fill="#EAF4FF"/>
<path d="M292.581 54.126H261.094V58.032H292.581V54.126Z" fill="#EAF4FF"/>
<g opacity="0.5">
<path d="M239.633 119.691H82.3359V208.971H239.633V119.691Z" fill="#EAF4FF"/>
</g>
<path d="M232.713 122.342H86.0059V130.293H232.713V122.342Z" fill="white"/>
<path d="M143.899 134.06H88.125V205.205H143.899V134.06Z" fill="white"/>
<path d="M136.414 180.094H92.7832V200.74H136.414V180.094Z" fill="#DBE6F3"/>
<path d="M136.414 139.5H92.7832V142.569H136.414V139.5Z" fill="#DBE6F3"/>
<path d="M136.414 146.196H92.7832V149.265H136.414V146.196Z" fill="#DBE6F3"/>
<path d="M136.414 154.008H92.7832V157.077H136.414V154.008Z" fill="#DBE6F3"/>
<path d="M136.414 160.425H92.7832V163.494H136.414V160.425Z" fill="#DBE6F3"/>
<path d="M232.854 134.06H159.713V137.687H232.854V134.06Z" fill="#DBE6F3"/>
<path d="M232.854 140.895H159.713V144.522H232.854V140.895Z" fill="#DBE6F3"/>
<path d="M232.854 148.567H159.713V152.194H232.854V148.567Z" fill="#DBE6F3"/>
<path d="M232.854 156.938H159.713V203.252H232.854V156.938Z" fill="white"/>
<path d="M228.053 161.959H166.066V182.745H228.053V161.959Z" fill="#DBE6F3"/>
<path d="M167.762 124.434H88.125V128.34H167.762V124.434Z" fill="#DBE6F3"/>
<path d="M229.607 124.434H198.119V128.34H229.607V124.434Z" fill="#DBE6F3"/>
<path d="M125.401 273.839L125.26 272.025L124.554 265.19C124.554 264.632 124.837 264.353 125.119 264.353L153.077 263.795C153.359 263.795 153.641 264.074 153.783 264.492L154.63 271.188C154.63 271.467 154.771 271.746 155.195 271.746C155.759 272.025 156.889 272.304 157.454 272.025C157.736 272.025 158.019 271.746 158.019 271.328L142.487 129.177C142.487 128.48 141.639 127.643 140.792 127.085C139.945 126.806 139.239 127.085 139.38 127.782L140.086 134.757C140.086 135.315 139.804 135.594 139.521 135.594L111.564 136.292C111.281 136.292 110.999 136.013 110.858 135.594L110.152 128.34C110.152 127.643 109.305 126.806 108.457 126.248C107.61 125.969 106.904 126.248 107.045 126.945L116.365 214.551C116.223 214.83 116.365 215.109 116.506 215.528L122.436 270.63L122.719 273.699C122.719 274.257 123.001 274.397 123.283 274.397H124.978C125.401 274.676 125.543 274.257 125.401 273.839ZM146.581 198.23L117.494 198.788L116.082 186.093L145.169 185.535L146.581 198.23ZM139.945 138.524L141.357 151.218L112.27 151.776L110.858 139.082L139.945 138.524ZM143.334 166.842L114.247 167.4L112.835 154.706L141.922 154.148L143.334 166.842ZM144.887 182.606L115.8 183.164L114.388 170.469L143.475 169.911L144.887 182.606ZM148.276 213.993L119.189 214.551L117.777 201.857L146.864 201.299L148.276 213.993ZM149.97 229.338L120.883 229.896L119.471 217.202L148.558 216.644L149.97 229.338ZM151.523 245.102L122.436 245.66L121.024 232.965L150.253 232.407L151.523 245.102ZM124.131 261.284L122.719 248.589L151.806 248.031L153.218 260.726L124.131 261.284Z" fill="#D9D9D9"/>
<path d="M128.084 79.6545C128.084 79.6545 127.378 80.631 127.236 82.026C127.236 82.026 126.389 82.1655 126.248 83.0025C126.248 83.979 127.519 84.3975 127.66 85.374C127.66 86.6295 128.225 87.606 129.072 88.3035C129.637 88.8615 130.343 88.5825 130.343 89.001C130.343 89.28 130.484 89.838 130.484 89.838L134.861 89.9775L134.72 87.048L132.461 80.073L128.084 79.6545Z" fill="#FFB48F"/>
<path d="M106.057 89.559L103.233 86.769C103.233 86.769 102.386 86.211 102.668 87.048C102.809 87.7455 103.233 88.443 102.668 88.0245C102.103 87.7455 100.126 85.932 99.4204 86.211C98.7144 86.3505 98.432 87.606 99.7028 88.5825C101.115 89.838 103.656 90.954 105.351 90.954C106.904 91.0935 106.057 89.559 106.057 89.559Z" fill="#FFB48F"/>
<path d="M130.06 125.271L113.399 124.434L119.753 149.265H117.352L106.056 121.644C106.056 121.644 103.232 117.18 109.304 116.762C115.375 116.204 125.965 115.506 125.965 115.506L130.766 115.227L130.06 125.271Z" fill="#DE051F"/>
<path d="M130.06 77.4225L128.648 74.6325C128.648 74.6325 128.084 73.7955 127.236 74.0745C126.389 74.6325 126.954 77.1435 126.954 77.1435L130.06 77.4225Z" fill="#FFB48F"/>
<path d="M128.931 72.8189C128.931 72.6794 128.79 72.2609 128.649 72.2609L126.955 70.0289C126.813 69.7499 126.249 69.1919 125.966 69.1919C125.401 69.1919 125.26 69.1919 125.119 70.1684C124.837 71.9819 125.684 74.0744 126.107 74.7719C126.672 75.3299 127.519 76.1669 127.519 76.1669L129.637 76.8644L128.931 72.8189Z" fill="#FFB48F"/>
<path d="M136.98 116.901C136.98 116.901 138.533 137.826 138.674 140.337C138.815 142.848 140.51 147.033 140.933 151.915C141.216 156.798 141.074 163.773 141.074 163.773H138.25C138.25 163.773 136.838 156.798 135.285 149.683C133.732 142.708 129.214 125.41 129.214 125.41L127.096 114.25L136.415 114.808L136.98 116.901Z" fill="#EE384E"/>
<path d="M133.873 86.0715L139.097 92.349C139.097 92.349 140.368 94.4415 139.662 97.092C139.097 99.882 137.544 101.835 137.403 106.02C137.12 110.484 137.262 116.064 137.262 116.064H122.436C122.436 116.064 122.436 99.603 123.283 95.697C123.283 95.697 123.989 90.5355 127.236 90.117C130.343 89.559 134.72 89.28 134.72 89.28L133.873 86.0715Z" fill="#0064E1"/>
<path d="M129.072 76.8644C129.072 76.8644 129.072 77.1434 129.636 77.1434C130.201 77.1434 133.449 77.1434 134.861 78.5384C136.273 79.9334 136.555 82.8629 135.708 85.0949C134.861 87.3269 132.602 88.1639 130.907 87.3269C130.907 87.3269 128.648 86.4899 127.801 84.1184C126.954 81.7469 127.66 80.3519 127.66 80.3519C127.66 80.3519 127.801 80.0729 127.377 79.7939C126.812 79.7939 125.965 78.8174 126.53 77.5619C126.954 76.3064 128.93 76.0274 129.072 76.8644Z" fill="#170856"/>
<path d="M127.236 90.5354C125.542 90.5354 122.436 90.6749 120.318 90.8144C117.352 90.9539 115.658 91.0934 114.105 90.6749C112.834 90.1169 107.892 89.4194 105.915 89.1404C105.209 89.0009 104.644 89.0009 104.644 89.0009C104.644 89.0009 103.374 88.7219 103.232 89.5589C103.091 90.2564 103.797 91.2329 105.35 91.7909C106.762 92.3489 112.41 94.7204 112.41 94.7204C112.41 94.7204 113.964 95.4179 116.929 95.9759C119.894 96.2549 128.507 96.9524 129.354 95.8364C129.919 94.9994 130.343 93.6044 130.06 92.4884C129.354 90.8144 127.66 90.5354 127.236 90.5354Z" fill="#0054A3"/>
<path d="M120.46 150.799C120.46 150.799 120.46 151.636 119.612 151.636C118.624 151.636 112.976 151.776 112.976 151.776C112.976 151.776 111.705 151.636 113.258 151.078C114.67 150.52 117.353 149.544 117.353 149.544H119.895L120.46 150.799Z" fill="#170856"/>
<path d="M141.074 164.61C141.074 164.61 141.921 166.842 140.932 166.842C139.944 166.842 137.544 166.981 137.544 166.981C137.544 166.981 136.273 166.702 137.261 165.586C138.108 164.61 138.25 163.773 138.25 163.773H141.215L141.074 164.61Z" fill="#170856"/>
<path d="M15.403 208.61C15.403 208.61 18.2511 207.404 18.1155 204.189C17.9799 200.973 16.0811 198.829 19.743 199.633C23.2693 200.571 24.3543 200.973 26.7955 200.437C29.3724 199.901 31.4068 198.829 30.4574 202.045C29.2368 205.261 28.2874 207.94 30.7287 208.476C33.4412 209.012 36.1537 207.003 36.425 212.228C36.6962 217.32 32.6274 222.814 26.1174 223.082C19.6074 223.35 16.6236 220.67 16.6236 220.67C16.6236 220.67 14.7249 218.258 17.4374 217.588C20.2855 216.918 23.1336 215.846 21.6418 214.64C20.2855 213.3 15.6742 213.3 15.6742 213.3C15.6742 213.3 9.84233 211.96 15.403 208.61Z" fill="#649CE8"/>
<path d="M45.918 209.414C45.3755 206.198 45.7824 203.787 51.8855 202.983C57.9887 202.179 61.3793 205.796 61.6506 209.414C61.9218 213.032 56.9037 214.506 56.9037 214.506C56.9037 214.506 53.1062 215.712 54.8693 218.794C56.9037 222.01 57.7174 225.091 53.3774 225.493C49.0374 226.029 44.5618 224.823 41.8492 223.215C39.1367 221.474 36.5599 217.186 39.6792 215.042C39.6792 215.042 40.493 214.506 43.4768 214.372C46.0536 213.836 45.918 209.414 45.918 209.414Z" fill="#033E9F"/>
<path d="M24.7617 209.012C24.7617 209.012 29.7799 220 30.458 227.771" stroke="#82D8FD" stroke-miterlimit="10" stroke-linecap="round" stroke-linejoin="round"/>
<path d="M52.4282 210.754C52.4282 210.754 43.7481 223.617 41.5781 228.039" stroke="#579DD3" stroke-miterlimit="10" stroke-linecap="round" stroke-linejoin="round"/>
<path d="M27.2037 226.699H47.4119C47.4119 226.699 49.5819 226.833 49.5819 229.781C49.4463 232.595 45.7844 231.925 44.1569 231.925C42.1225 231.925 27.068 231.925 27.068 231.925C27.068 231.925 24.6268 232.461 24.6268 229.647C24.3555 227.101 25.1693 226.699 27.2037 226.699Z" fill="#0054A3"/>
<path d="M26.7969 232.059L29.9163 249.612H43.3432L45.9201 236.481L26.7969 232.059Z" fill="#0054A3"/>
<path d="M26.7969 232.059L45.9201 236.481L46.4626 232.059H26.7969Z" fill="#016AD3"/>
<path d="M35.4766 227.369C35.4766 227.369 36.4259 207.806 42.5291 195.479L35.4766 227.369Z" fill="#FABC42"/>
<path d="M47.4108 188.511C47.4108 188.511 47.9533 194.541 41.9858 196.953C41.7146 196.953 40.4939 191.727 47.4108 188.511Z" fill="#FABC42"/>
<path d="M38.3242 207.672C38.3242 207.672 40.4942 202.447 47.1399 203.117C47.4111 203.117 46.733 208.342 38.3242 207.672Z" fill="#FABC42"/>
<path d="M36.1523 220.536C36.1523 220.536 37.373 215.176 44.0186 214.238C44.0186 214.372 44.5611 219.464 36.1523 220.536Z" fill="#FABC42"/>
<path d="M35.8825 220.536C35.8825 220.536 36.6963 214.908 30.4575 212.362C30.5931 212.228 28.2875 216.65 35.8825 220.536Z" fill="#FABC42"/>
<path d="M38.4605 207.538C38.4605 207.538 39.9524 202.179 34.1205 198.695C34.2561 198.561 31.408 202.983 38.4605 207.538Z" fill="#FABC42"/>
</svg>
