<svg width="485" height="485" viewBox="0 0 485 485" fill="none" xmlns="http://www.w3.org/2000/svg">
<g clip-path="url(#clip0_2428_10546)">
<g opacity="0.5">
<path d="M478.252 114.818H289.102V124.518H478.252V114.818Z" fill="#E0E0E0"/>
<path d="M306.288 78.9707H297.959V114.819H306.288V78.9707Z" fill="#EBEBEB"/>
<path d="M346.564 78.9707H338.234V114.819H346.564V78.9707Z" fill="#EBEBEB"/>
<path d="M392.285 78.1037L384.076 79.5181L390.163 114.846L398.372 113.432L392.285 78.1037Z" fill="#EBEBEB"/>
<path d="M316.515 83.7153H308.186V114.819H316.515V83.7153Z" fill="#EBEBEB"/>
<path d="M335.599 83.7153H327.27V114.819H335.599V83.7153Z" fill="#EBEBEB"/>
<path d="M384.099 83.7153H375.77V114.819H384.099V83.7153Z" fill="#EBEBEB"/>
<path d="M357.432 82.6553L349.301 84.4619L356.047 114.825L364.178 113.018L357.432 82.6553Z" fill="#EBEBEB"/>
<path d="M323.684 77.1782H319.467V114.818H323.684V77.1782Z" fill="#EBEBEB"/>
<path d="M373.45 77.1782H369.232V114.818H373.45V77.1782Z" fill="#EBEBEB"/>
<path d="M460.221 86.3511H419.629V114.397H460.221V86.3511Z" fill="#EBEBEB"/>
<path d="M478.357 187.357H289.207V197.057H478.357V187.357Z" fill="#E0E0E0"/>
<path d="M469.712 151.51H461.383V187.358H469.712V151.51Z" fill="#EBEBEB"/>
<path d="M429.329 151.51H421V187.358H429.329V151.51Z" fill="#EBEBEB"/>
<path d="M375.179 150.615L369.092 185.943L377.3 187.358L383.387 152.03L375.179 150.615Z" fill="#EBEBEB"/>
<path d="M459.378 156.254H451.049V187.358H459.378V156.254Z" fill="#EBEBEB"/>
<path d="M440.189 156.254H431.859V187.358H440.189V156.254Z" fill="#EBEBEB"/>
<path d="M391.794 156.254H383.465V187.358H391.794V156.254Z" fill="#EBEBEB"/>
<path d="M409.971 155.16L403.225 185.523L411.356 187.33L418.102 156.967L409.971 155.16Z" fill="#EBEBEB"/>
<path d="M448.096 149.717H443.879V187.357H448.096V149.717Z" fill="#EBEBEB"/>
<path d="M398.438 149.717H394.221V187.357H398.438V149.717Z" fill="#EBEBEB"/>
<path d="M347.934 159.101H307.342V187.147H347.934V159.101Z" fill="#EBEBEB"/>
</g>
<path d="M241.235 149.19C246.534 149.19 250.83 144.894 250.83 139.596C250.83 134.297 246.534 130.001 241.235 130.001C235.936 130.001 231.641 134.297 231.641 139.596C231.641 144.894 235.936 149.19 241.235 149.19Z" stroke="#DE051F" stroke-miterlimit="10"/>
<path d="M234.593 132.426C234.593 132.426 217.723 127.998 223.522 133.902C229.321 139.807 249.143 148.347 253.044 149.296C256.945 150.245 259.475 148.558 258.21 146.449C256.945 144.34 250.83 140.861 250.83 140.861" stroke="#DE051F" stroke-miterlimit="10"/>
<path d="M393.693 271.283C390.425 270.018 388 266.855 388 263.06" stroke="#003EB0" stroke-miterlimit="10"/>
<path d="M405.396 261.478C405.502 262.005 405.502 262.638 405.502 263.27C405.502 267.488 402.55 270.967 398.648 271.811" stroke="#003EB0" stroke-miterlimit="10"/>
<path d="M389.16 258.631C390.742 256.101 393.483 254.414 396.646 254.414C399.176 254.414 401.391 255.468 403.078 257.155" stroke="#003EB0" stroke-miterlimit="10"/>
<path d="M391.479 264.43C390.952 262.322 391.69 259.897 393.693 258.526" stroke="#003EB0" stroke-miterlimit="10"/>
<path d="M400.757 266.855C400.546 267.066 400.23 267.277 399.914 267.594C397.805 269.07 394.853 268.859 393.061 267.066" stroke="#003EB0" stroke-miterlimit="10"/>
<path d="M396.33 257.577C398.228 257.472 400.02 258.315 401.18 260.002C402.129 261.267 402.34 262.849 402.024 264.325" stroke="#003EB0" stroke-miterlimit="10"/>
<path d="M396.645 266.434C398.509 266.434 400.019 264.923 400.019 263.06C400.019 261.197 398.509 259.686 396.645 259.686C394.782 259.686 393.271 261.197 393.271 263.06C393.271 264.923 394.782 266.434 396.645 266.434Z" stroke="#003EB0" stroke-miterlimit="10"/>
<path d="M42.534 51.6868L14.6953 62.1318L28.3258 98.4603L56.1644 88.0152L42.534 51.6868Z" fill="#407BFF"/>
<path d="M43.25 49.9341L12.9434 61.3052L27.4998 100.102L57.8064 88.7305L43.25 49.9341Z" fill="#E0E0E0"/>
<path d="M42.534 51.6868L14.6953 62.1318L28.3258 98.4603L56.1644 88.0152L42.534 51.6868Z" fill="white"/>
<g filter="url(#filter0_d_2428_10546)">
<path d="M26.7712 66.5513L34.276 87.322L37.8469 84.5408L30.982 66.4371L26.7712 66.5513Z" fill="url(#paint0_linear_2428_10546)"/>
<path d="M35.3142 75.4064L41.3885 69.424L37.6752 68.5925L27.8116 78.1686L41.4658 78.8041L43.6426 75.7908L35.3142 75.4064Z" fill="url(#paint1_linear_2428_10546)"/>
<path d="M26.7761 66.5632L41.3872 69.4242L39.7336 64.8764L29.4392 63.2566L26.7761 66.5632Z" fill="#3367D6"/>
<path d="M34.2772 87.3217L43.6425 75.7914L45.2938 80.0542L38.9271 88.0103L34.2772 87.3217Z" fill="#3367D6"/>
</g>
<path d="M164.084 46.3122L150.453 82.6406L178.292 93.0857L191.922 56.7572L164.084 46.3122Z" fill="#407BFF"/>
<path d="M163.4 44.5112L148.844 83.3076L179.15 94.6787L193.707 55.8823L163.4 44.5112Z" fill="#E0E0E0"/>
<path d="M164.084 46.3122L150.453 82.6406L178.292 93.0857L191.922 56.7572L164.084 46.3122Z" fill="white"/>
<path d="M172.068 57.3574C171.119 57.4629 170.381 58.0955 170.381 58.0955L159.943 66.5302C159.943 66.5302 159.416 67.0574 159.205 67.69L166.164 70.3259L173.017 64.7379L172.068 57.3574Z" fill="#319F4F"/>
<path d="M178.922 59.9927C179.555 60.7307 179.66 61.6796 179.66 61.6796L181.769 74.9644C181.874 75.4916 181.769 76.0188 181.558 76.3351L174.494 73.5938L173.123 64.8427L178.922 59.9927Z" fill="#F5BC0F"/>
<path d="M175.653 81.0796C174.81 81.185 173.966 80.8687 173.966 80.8687L161.42 76.1242C160.892 75.9133 160.576 75.597 160.26 75.2807L166.059 70.5361L174.283 73.6992L175.653 81.0796Z" fill="#3D80B9"/>
<path d="M175.652 81.0796L174.492 73.5938L181.556 76.3351C181.451 76.7568 181.24 76.9677 181.135 77.0731L181.029 77.1785C181.029 77.1785 180.924 77.284 180.818 77.284C180.818 77.284 178.288 79.2872 177.023 80.3416C176.812 80.447 176.706 80.5524 176.706 80.6579C176.706 80.6579 176.179 80.9742 175.652 81.0796Z" fill="#E84335"/>
<path d="M159.311 67.6895C159.311 67.6895 159.205 68.2166 159.205 68.7438C159.205 69.271 160.049 73.8047 160.049 74.2264C160.259 74.6482 160.47 74.9645 160.47 75.0699L166.269 70.3253L159.311 67.6895Z" fill="#1F64AB"/>
<path d="M171.963 57.3569C171.963 57.3569 172.385 57.2515 173.123 57.4624C173.123 57.4624 173.228 57.4624 173.228 57.5678C173.228 57.5678 176.391 58.7276 177.867 59.3602C177.867 59.3602 177.973 59.3602 177.973 59.4656C178.184 59.5711 178.711 59.7819 178.922 60.2037L173.123 64.9482L171.963 57.3569Z" fill="#198038"/>
<path d="M176.076 128.841C176.497 126.732 176.814 124.624 176.814 122.515C176.814 105.856 163.318 92.3607 146.659 92.3607C144.761 92.3607 142.864 92.4661 141.071 92.8878C140.333 92.7824 139.49 92.8878 138.752 92.7824C133.164 80.552 120.617 72.1172 106.278 72.1172C104.38 72.1172 96.9995 72.1172 95.2071 72.1172C75.4908 72.1172 59.5702 87.7215 59.5702 107.438C59.5702 107.649 59.5702 107.86 59.5702 108.07C45.6528 110.601 34.8984 122.62 34.8984 137.381C34.8984 153.935 48.2887 167.325 65.0528 167.325C67.4778 167.325 71.2734 167.325 76.1234 167.325C101.85 167.325 155.094 167.325 163.318 167.325C168.695 167.325 172.702 167.325 174.389 167.325C185.143 167.325 193.894 158.785 193.894 148.03C194 137.908 186.092 129.685 176.076 128.841Z" fill="#407BFF"/>
<path d="M176.076 128.841C176.497 126.732 176.814 124.624 176.814 122.515C176.814 105.856 163.318 92.3607 146.659 92.3607C144.761 92.3607 142.864 92.4661 141.071 92.8878C140.333 92.7824 139.49 92.8878 138.752 92.7824C133.164 80.552 120.617 72.1172 106.278 72.1172C104.38 72.1172 96.9995 72.1172 95.2071 72.1172C75.4908 72.1172 59.5702 87.7215 59.5702 107.438C59.5702 107.649 59.5702 107.86 59.5702 108.07C45.6528 110.601 34.8984 122.62 34.8984 137.381C34.8984 153.935 48.2887 167.325 65.0528 167.325C67.4778 167.325 71.2734 167.325 76.1234 167.325C101.85 167.325 155.094 167.325 163.318 167.325C168.695 167.325 172.702 167.325 174.389 167.325C185.143 167.325 193.894 158.785 193.894 148.03C194 137.908 186.092 129.685 176.076 128.841Z" fill="#0064E1"/>
<path opacity="0.4" d="M176.075 128.841C176.497 126.732 176.813 124.624 176.813 122.515C176.813 105.856 163.318 92.3607 146.659 92.3607C144.761 92.3607 142.863 92.4661 141.071 92.8878C140.333 92.7824 139.489 92.8878 138.751 92.7824C133.163 80.552 120.617 72.1172 106.277 72.1172C104.38 72.1172 108.175 72.1172 106.277 72.1172C86.6666 72.2226 70.6405 87.9324 70.6405 107.543C70.6405 107.754 70.6405 107.965 70.6405 108.176C56.7231 110.706 45.9688 122.726 45.9688 137.487C45.9688 154.04 59.359 167.43 76.1231 167.43C78.5481 167.43 82.3438 167.43 87.1937 167.43C112.92 167.43 155.094 167.43 163.212 167.43C168.589 167.43 172.596 167.43 174.283 167.43C185.037 167.43 193.788 158.89 193.788 148.136C193.999 137.908 186.092 129.685 176.075 128.841Z" fill="white"/>
<path d="M120.932 158.574C120.932 160.261 121.038 202.224 121.143 203.911C123.674 229.426 145.393 248.72 171.435 248.72H239.757V258.842H171.435C139.7 258.842 113.552 235.014 110.81 204.016C110.705 202.329 110.6 160.261 110.6 158.468L120.932 158.574Z" fill="#023EA1"/>
<path d="M115.767 149.928L106.91 158.785H124.518L115.767 149.928Z" fill="#023EA1"/>
<path d="M57.5684 396.857L51.5586 378.195C51.5586 378.195 60.5206 369.76 73.5945 372.29L78.6553 389.793L57.5684 396.857Z" fill="#649EEA"/>
<path opacity="0.7" d="M57.5684 396.857L51.5586 378.195C51.5586 378.195 60.5206 369.76 73.5945 372.29L78.6553 389.793L57.5684 396.857Z" fill="#649EEA"/>
<g opacity="0.2">
<path d="M54.4062 382.728C54.4062 382.728 55.2497 381.674 56.8313 380.514C57.5693 379.882 58.5182 379.249 59.5726 378.616C60.0997 378.3 60.6269 377.984 61.2595 377.773C61.8921 377.562 62.5247 377.246 63.1573 377.035C63.7899 376.824 64.4226 376.613 65.0552 376.508C65.3715 376.402 65.6878 376.402 66.0041 376.297C66.3204 376.191 66.6367 376.191 66.953 376.191C67.2693 376.191 67.5856 376.086 67.9019 376.086C68.2182 376.086 68.5345 376.086 68.7454 376.086C69.2726 376.086 69.7997 376.086 70.3269 376.191C70.7486 376.297 71.2758 376.297 71.5921 376.297C72.0139 376.402 72.3302 376.402 72.6465 376.508C73.1736 376.613 73.4899 376.719 73.4899 376.719C73.4899 376.719 73.1736 376.719 72.541 376.719C72.2247 376.719 71.9084 376.719 71.4867 376.613C71.065 376.613 70.6432 376.613 70.2215 376.719C69.7997 376.719 69.1671 376.824 68.6399 376.824C68.1128 376.824 67.5856 376.929 66.953 377.035C66.6367 377.14 66.3204 377.14 66.1095 377.14C65.7932 377.246 65.4769 377.246 65.1606 377.351C64.528 377.457 63.8954 377.667 63.3682 377.878C62.7356 377.984 62.2084 378.3 61.5758 378.511C61.0486 378.722 60.416 378.933 59.8889 379.249C59.3617 379.565 58.8345 379.776 58.3073 379.987C57.8856 380.198 57.3584 380.514 56.9367 380.725C56.0932 381.147 55.3552 381.674 54.9334 381.99C54.6171 382.517 54.4062 382.728 54.4062 382.728Z" fill="black"/>
<path d="M54.9336 384.415C54.9336 384.415 55.1445 384.204 55.6716 383.888C56.0934 383.572 56.726 383.15 57.5695 382.623C58.3075 382.201 59.3619 381.568 60.3108 381.147C61.3651 380.619 62.5249 380.198 63.6847 379.776C64.3173 379.671 64.8445 379.354 65.4771 379.249C66.1097 379.143 66.6369 378.932 67.2695 378.827C67.7966 378.722 68.4292 378.616 68.9564 378.616C69.4836 378.511 70.0108 378.511 70.4325 378.511C71.3814 378.511 72.1195 378.511 72.6466 378.616C73.1738 378.722 73.4901 378.722 73.4901 378.722C73.4901 378.722 73.1738 378.827 72.6466 378.827C72.4358 378.827 72.014 378.932 71.6977 378.932C71.276 379.038 70.9597 379.038 70.4325 379.143C69.9053 379.249 69.4836 379.354 68.9564 379.46C68.4292 379.565 67.9021 379.671 67.3749 379.881C66.8477 379.987 66.3206 380.198 65.6879 380.303C65.1608 380.409 64.5282 380.725 64.001 380.83C61.6814 381.568 59.4673 382.517 57.7803 383.255C56.9369 383.677 56.1988 383.993 55.7771 384.204C55.2499 384.204 54.9336 384.415 54.9336 384.415Z" fill="black"/>
<path d="M56.3047 387.894C56.3047 387.894 56.5156 387.684 56.9373 387.367C57.359 387.051 57.9916 386.524 58.7297 386.102C59.4677 385.575 60.3112 385.048 61.3656 384.521C62.4199 383.993 63.4742 383.466 64.634 383.044C65.7938 382.623 66.9536 382.306 68.1134 381.99C68.6406 381.885 69.1677 381.779 69.6949 381.779C70.2221 381.674 70.7493 381.674 71.171 381.674C71.5927 381.674 72.0145 381.674 72.4362 381.779C72.8579 381.779 73.1742 381.885 73.3851 381.885C73.9123 381.99 74.2286 381.99 74.2286 381.99C74.2286 381.99 73.9123 381.99 73.3851 382.096C73.1742 382.096 72.8579 382.096 72.4362 382.201C72.0145 382.306 71.6982 382.306 71.171 382.306C70.6438 382.306 70.2221 382.412 69.8003 382.517C69.3786 382.623 68.746 382.728 68.2188 382.939C67.6916 383.044 67.1645 383.255 66.6373 383.361C66.1101 383.466 65.5829 383.783 64.9503 383.888C64.4232 384.099 63.896 384.31 63.3688 384.521C62.8416 384.731 62.3145 384.942 61.7873 385.259C60.7329 385.68 59.8895 386.208 59.046 386.524C58.3079 386.946 57.5699 387.262 57.1482 387.578C56.621 387.684 56.3047 387.894 56.3047 387.894Z" fill="black"/>
<path d="M57.1484 390.214C57.1484 390.214 57.9919 389.371 59.3626 388.316C60.1006 387.789 60.9441 387.262 61.9984 386.735C62.4202 386.524 63.0528 386.313 63.58 385.997C64.1071 385.786 64.6343 385.575 65.2669 385.364C65.7941 385.259 66.4267 385.048 66.9539 384.942C67.481 384.837 68.1137 384.731 68.6408 384.731C69.168 384.626 69.6952 384.626 70.2224 384.626C70.7495 384.626 71.2767 384.626 71.6984 384.731C72.1202 384.837 72.5419 384.837 72.9637 384.837C73.3854 384.942 73.7017 384.942 73.9126 385.048C74.3343 385.153 74.6506 385.259 74.6506 385.259C74.6506 385.259 74.3343 385.259 73.9126 385.259C73.7017 385.259 73.3854 385.259 72.9637 385.153C72.5419 385.153 72.2256 385.259 71.8039 385.259C71.3821 385.259 70.855 385.364 70.4332 385.364C70.0115 385.364 69.3789 385.469 68.8517 385.575C68.3245 385.68 67.7974 385.786 67.2702 385.891C66.743 385.997 66.2158 386.208 65.6887 386.313C64.6343 386.629 63.58 387.051 62.5256 387.473C61.4713 387.894 60.6278 388.316 59.7843 388.738C59.0463 389.16 58.3082 389.476 57.8865 389.792C57.4647 390.003 57.1484 390.214 57.1484 390.214Z" fill="black"/>
<path d="M58.4121 393.377C58.4121 393.377 58.623 393.167 59.0447 392.85C59.4665 392.534 59.9936 392.007 60.7317 391.585C61.4697 391.058 62.3132 390.531 63.2621 390.004C63.6838 389.687 64.3165 389.476 64.8436 389.265C65.3708 389.055 65.898 388.844 66.4252 388.527C66.9523 388.317 67.5849 388.106 68.1121 388C68.6393 387.895 69.2719 387.684 69.7991 387.579C70.3262 387.473 70.8534 387.368 71.3806 387.368C71.9078 387.368 72.4349 387.262 72.8567 387.262C73.2784 387.262 73.7002 387.368 74.1219 387.368C74.5436 387.368 74.8599 387.473 75.0708 387.473C75.598 387.579 75.8088 387.579 75.8088 387.579C75.8088 387.579 75.4925 387.579 75.0708 387.579C74.8599 387.579 74.5436 387.579 74.1219 387.579C73.7002 387.684 73.3838 387.684 72.9621 387.684C72.5404 387.789 72.1186 387.789 71.5915 387.895C71.1697 388 70.5371 388.106 70.1154 388.211C69.5882 388.317 69.061 388.527 68.5338 388.633C68.0067 388.738 67.4795 389.055 66.9523 389.16C66.4252 389.371 65.898 389.582 65.3708 389.793C64.8436 390.004 64.3165 390.214 63.7893 390.531C62.7349 390.952 61.8915 391.48 61.1534 391.796C60.4154 392.112 59.7828 392.534 59.2556 392.85C58.623 393.167 58.4121 393.377 58.4121 393.377Z" fill="black"/>
</g>
<path d="M54.9321 396.962L67.4789 387.578C67.7952 387.368 68.2169 387.262 68.5332 387.368L82.7669 390.109C84.0321 390.32 84.3485 392.007 83.1887 392.639L71.4854 398.965C71.38 399.071 71.0637 399.071 70.8528 399.071L55.8811 399.493C54.5104 399.387 53.8778 397.7 54.9321 396.962Z" fill="#DE051F"/>
<path d="M77.3906 402.55C77.3906 402.55 96.6852 356.159 100.059 353.312C103.433 350.465 124.942 362.907 124.942 362.907L105.753 411.828L77.3906 402.55Z" fill="#FCBE42"/>
<path opacity="0.2" d="M82.8737 402.234C82.8737 402.234 101.219 357.951 104.066 355.948C106.807 354.05 122.517 362.169 122.517 362.169C122.517 362.169 106.28 352.258 101.114 353.945C96.0531 355.632 78.9727 401.18 78.9727 401.18L82.8737 402.234Z" fill="black"/>
<path d="M121.567 398.017H40.0664V446.095H121.567V398.017Z" fill="#D7DDEA"/>
<path opacity="0.4" d="M121.568 398.017H70.959V446.095H121.568V398.017Z" fill="white"/>
<path d="M70.959 398.543L90.2535 383.044L133.06 385.997L121.673 398.543H70.959Z" fill="#263238"/>
<path d="M70.9582 398.543L56.619 381.885L25.9375 385.153L40.0658 398.016L70.9582 398.543Z" fill="#263238"/>
<path d="M70.9582 398.543L56.619 381.885L25.9375 385.153L40.0658 398.016L70.9582 398.543Z" fill="#D7DDEA"/>
<path d="M70.959 398.543L90.2535 383.044L133.06 385.997L121.673 398.543H70.959Z" fill="#D7DDEA"/>
<path d="M98.2661 61.8902C97.2117 61.9956 96.1574 61.7848 95.103 61.1522L83.1889 54.9315C81.1856 53.8772 79.9204 51.8739 79.815 49.6598L79.0769 36.2696C78.9715 34.0554 80.1313 31.9467 81.9237 30.6815L93.2052 23.7228C94.1541 23.0902 95.2085 22.7739 96.2628 22.6685C97.3172 22.563 98.3715 22.7739 99.4259 23.4065L111.34 29.6272C113.343 30.6815 114.608 32.6848 114.714 34.8989L115.347 48.2891C115.452 50.5033 114.292 52.6119 112.5 53.8772L101.218 61.0467C100.48 61.4685 99.3204 61.7848 98.2661 61.8902Z" fill="#E0E0E0"/>
<path d="M111.34 53.0338L101.219 59.4653C99.3209 60.6251 97.0013 60.7305 94.9981 59.7816L84.3492 54.299C82.4513 53.2447 81.0807 51.2414 81.0807 49.1327L80.5535 37.2186C80.4481 35.0044 81.6079 32.8957 83.4002 31.736L93.522 25.199C95.4198 24.0392 97.7394 23.9338 99.7426 24.8827L110.392 30.4707C112.289 31.5251 113.66 33.5284 113.66 35.6371L114.187 47.5512C114.293 49.7653 113.133 51.874 111.34 53.0338Z" fill="white"/>
<path d="M97.3162 42.2795L108.598 35.0045L96.7891 29.2056L97.3162 42.2795Z" fill="#0A489B"/>
<path d="M97.9491 55.0371L85.9295 49.1327L85.4023 36.0588L96.7893 29.2056L97.9491 55.0371Z" fill="#0F68DE"/>
<path d="M96.8949 42.5957L86.0352 49.0272" stroke="#D9D9D9" stroke-width="0.1" stroke-miterlimit="10" stroke-linecap="square" stroke-linejoin="bevel"/>
<path d="M97.3165 42.2795L85.4023 36.0588L96.7893 29.2056L97.3165 42.2795Z" fill="#0F68DE"/>
<path d="M97.9493 55.3532L85.9297 49.1326L97.3166 42.2793L97.9493 55.3532Z" fill="#3F86E4"/>
<path d="M322.631 346.142L322.947 364.277L324.423 446.621H329.484L330.96 364.277L331.277 346.142H322.631Z" fill="#407BFF"/>
<path opacity="0.2" d="M322.631 346.142L322.947 364.699H330.96L331.277 346.142H322.631Z" fill="black"/>
<path d="M295.852 446.41L300.385 347.407H307.766L301.44 446.41H295.852Z" fill="#407BFF"/>
<path opacity="0.2" d="M307.765 347.302L307.238 356.58H299.963L300.385 347.302H307.765Z" fill="black"/>
<path d="M352.469 446.41L346.143 347.407H353.523L358.057 446.41H352.469Z" fill="#407BFF"/>
<path opacity="0.2" d="M346.143 347.302L346.67 356.58H353.945L353.523 347.302H346.143Z" fill="black"/>
<path d="M300.279 337.075H353.84C355.948 337.075 357.741 339.078 357.741 341.714V350.781H296.483V341.714C296.378 339.183 298.065 337.075 300.279 337.075Z" fill="#023EA1"/>
<path d="M295.008 344.033H359.007C359.85 344.033 360.588 344.877 360.588 345.826V348.989C360.588 350.043 359.85 350.781 359.007 350.781H295.008C294.164 350.781 293.426 349.938 293.426 348.989V345.826C293.321 344.877 294.059 344.033 295.008 344.033Z" fill="#407BFF"/>
<path opacity="0.6" d="M295.008 344.033H359.007C359.85 344.033 360.588 344.877 360.588 345.826V348.989C360.588 350.043 359.85 350.781 359.007 350.781H295.008C294.164 350.781 293.426 349.938 293.426 348.989V345.826C293.321 344.877 294.059 344.033 295.008 344.033Z" fill="#407BFF"/>
<path d="M319.257 221.94C320.417 223.838 319.468 225.103 318.835 227.212C318.835 227.212 310.084 231.851 310.084 241.34C310.084 252.2 340.133 249.88 340.133 240.602C340.133 231.324 332.436 227.106 332.436 227.106C331.698 222.678 330.327 218.882 330.538 214.454L319.257 221.94Z" fill="#FCAA81"/>
<path d="M316.621 222.784C311.665 220.464 308.713 210.448 307.026 204.965C307.026 204.965 301.016 187.885 311.982 182.508C311.982 182.508 322.209 181.242 328.851 182.191C335.388 183.14 333.912 186.725 333.912 186.725C333.912 186.725 333.701 189.15 334.966 191.153C336.232 193.051 338.235 197.268 338.235 200.537C338.13 200.431 335.388 231.218 316.621 222.784Z" fill="#FFBF99"/>
<path d="M337.496 206.441C337.18 206.336 336.547 194.632 340.448 192.84C344.349 191.048 344.244 197.585 343.506 199.588C342.979 201.486 340.765 207.706 337.496 206.441Z" fill="#FFBF99"/>
<path d="M305.761 199.377C305.761 199.377 303.441 191.153 304.285 185.987C305.128 180.82 305.55 180.399 305.55 180.399L302.387 180.293C302.387 180.293 313.352 170.488 326.004 172.702C338.551 174.811 341.292 189.782 336.969 199.272C336.969 199.272 333.385 188.517 333.068 186.303C332.752 184.194 332.33 182.402 323.368 182.613C314.301 182.718 309.978 183.245 308.08 186.936C306.182 190.52 305.761 199.377 305.761 199.377Z" fill="#333333"/>
<path d="M306.078 199.483C306.078 199.483 305.234 194 304.18 195.898C303.125 197.901 305.234 206.863 306.605 207.812C307.975 208.761 308.713 207.179 307.975 205.492C307.343 203.911 306.288 200.748 306.078 199.483Z" fill="#FFBF99"/>
<path d="M318.519 198.956C318.414 200.748 318.308 202.54 318.097 204.227C317.992 205.071 317.992 206.02 317.781 206.863L317.359 209.499L317.254 209.394C318.73 209.288 320.311 208.972 321.682 208.866C320.206 209.183 318.73 209.394 317.254 209.71H317.043V209.499L317.359 206.863C317.465 206.02 317.57 205.071 317.676 204.227C317.886 202.435 318.203 200.748 318.519 198.956Z" fill="black"/>
<path d="M314.828 214.138C318.097 216.985 323.368 216.563 327.269 213.716L314.828 214.138Z" fill="white"/>
<path d="M308.713 198.323C308.818 197.374 309.346 196.636 309.978 196.003C310.611 195.37 311.56 194.949 312.509 194.738C313.563 194.632 314.512 194.843 315.25 195.37C315.672 195.581 315.988 196.003 316.304 196.319C316.515 196.741 316.726 197.057 316.937 197.585C316.515 197.479 316.093 197.374 315.672 197.163C315.25 197.057 314.934 196.952 314.617 196.846C313.879 196.741 313.352 196.741 312.719 196.741C312.087 196.846 311.454 196.952 310.822 197.268C310.189 197.69 309.451 198.006 308.713 198.323Z" fill="black"/>
<path d="M323.475 197.479C323.58 196.53 324.107 195.792 324.74 195.16C325.372 194.527 326.321 194.105 327.27 193.895C328.325 193.789 329.274 194 330.012 194.527C330.433 194.738 330.75 195.16 331.066 195.476C331.277 195.898 331.488 196.214 331.699 196.741C331.277 196.636 330.855 196.53 330.433 196.32C330.012 196.214 329.695 196.109 329.379 196.003C328.641 195.898 328.114 195.898 327.481 195.898C326.849 196.003 326.216 196.109 325.583 196.425C325.056 196.847 324.213 197.163 323.475 197.479Z" fill="black"/>
<path d="M310.4 201.275C310.506 200.748 310.822 200.326 311.138 200.01C311.455 199.693 311.982 199.272 312.509 199.166C313.036 199.061 313.563 198.955 314.091 199.061C314.618 199.166 315.145 199.377 315.461 199.693C314.934 199.693 314.407 199.588 313.985 199.693C313.563 199.693 313.036 199.799 312.72 199.904C311.876 200.115 311.138 200.642 310.4 201.275Z" fill="black"/>
<path d="M330.748 199.904C329.799 199.483 328.956 199.166 328.112 199.061C327.691 199.061 327.269 199.061 326.847 199.166C326.425 199.272 325.898 199.377 325.477 199.588C325.793 199.166 326.215 198.85 326.742 198.639C327.163 198.428 327.796 198.323 328.323 198.323C328.85 198.428 329.378 198.534 329.905 198.744C330.116 199.166 330.537 199.483 330.748 199.904Z" fill="black"/>
<path d="M327.268 182.507C326.741 181.453 326.214 180.504 325.476 179.555C324.738 178.606 324.105 177.763 323.367 177.025C322.629 176.287 321.68 175.549 320.731 174.916C319.783 174.283 318.728 173.862 317.674 173.334C318.834 173.44 319.993 173.756 320.942 174.389C321.469 174.6 321.997 175.021 322.524 175.338C322.946 175.759 323.473 176.076 323.895 176.498C325.581 178.184 326.741 180.188 327.268 182.507Z" fill="#444444"/>
<path d="M327.27 182.507C327.586 181.769 328.113 181.242 328.64 180.61C329.167 180.082 329.8 179.555 330.538 179.133C331.276 178.712 332.014 178.395 332.752 178.29C333.49 178.185 334.334 178.185 335.177 178.395C334.439 178.501 333.596 178.606 332.963 178.817C332.225 179.028 331.592 179.344 330.96 179.766C329.695 180.504 328.429 181.453 327.27 182.507Z" fill="#444444"/>
<path d="M330.643 183.035C331.064 182.613 331.486 182.297 331.908 182.086C332.33 181.875 332.962 181.664 333.489 181.664C334.016 181.664 334.544 181.559 335.176 181.769C335.703 181.875 336.231 182.191 336.652 182.508C336.125 182.402 335.598 182.402 335.071 182.402C334.649 182.402 334.016 182.402 333.595 182.508C332.646 182.508 331.697 182.824 330.643 183.035Z" fill="#444444"/>
<path d="M323.579 182.507C323.052 181.558 322.314 180.715 321.681 179.977C320.943 179.239 320.205 178.395 319.467 177.868C318.729 177.341 317.78 176.603 316.831 176.181C315.882 175.76 314.933 175.338 313.879 175.021C314.933 175.127 315.988 175.127 317.042 175.654C317.569 175.76 318.096 176.076 318.518 176.392C318.94 176.708 319.467 176.919 319.889 177.341C321.681 178.501 323.052 180.399 323.579 182.507Z" fill="#444444"/>
<path d="M319.573 182.507C318.835 181.769 318.202 180.926 317.464 180.293C316.726 179.555 315.883 179.028 315.039 178.501C314.196 177.974 313.247 177.552 312.298 177.236C311.349 176.919 310.295 176.708 309.24 176.497C310.295 176.392 311.349 176.392 312.403 176.603C312.93 176.708 313.458 176.919 313.985 177.025C314.407 177.236 315.039 177.446 315.461 177.763C317.253 179.028 318.729 180.609 319.573 182.507Z" fill="#444444"/>
<path d="M315.778 182.824C314.934 182.086 314.091 181.559 313.247 181.137C312.298 180.61 311.349 180.188 310.506 179.872C309.557 179.555 308.608 179.345 307.554 179.134C306.499 179.028 305.55 179.028 304.496 179.028C305.55 178.712 306.605 178.501 307.659 178.607C308.186 178.607 308.713 178.712 309.241 178.712C309.768 178.817 310.295 178.923 310.822 179.134C312.72 179.766 314.618 181.032 315.778 182.824Z" fill="#444444"/>
<path d="M304.391 259.58C304.391 259.58 298.697 281.089 290.473 286.571C282.249 291.949 249.67 279.507 249.67 279.507L251.462 271.705L283.514 276.45L293.004 256.628L304.391 259.58Z" fill="#FFBF99"/>
<path d="M311.032 242.922L305.023 261.689L290.262 257.261C293.847 249.88 304.179 235.857 304.179 235.857L311.032 242.922Z" fill="#0A489B"/>
<path d="M332.119 227.001C332.119 227.001 347.196 231.429 350.359 234.909C353.417 238.388 358.899 312.719 358.899 312.719C358.899 312.719 337.075 312.719 322.841 312.719C308.607 312.719 298.802 310.189 298.802 310.189C298.38 304.917 301.754 239.021 303.968 236.174C306.182 233.222 318.834 227.212 318.834 227.212C321.997 235.436 332.119 227.001 332.119 227.001Z" fill="#0F68DE"/>
<path d="M257.895 291.316C257.895 289.735 259.16 288.47 260.741 288.47H327.271C328.852 288.47 330.117 289.735 330.117 291.316C330.117 292.898 328.852 294.163 327.271 294.163H260.741C259.16 294.163 257.895 292.898 257.895 291.316Z" fill="url(#paint2_linear_2428_10546)"/>
<path d="M231.746 247.772L236.491 291.316C236.596 292.898 237.861 294.163 239.337 294.163H293.847C295.64 294.163 296.905 292.582 296.694 290.578L291.949 247.034C291.844 245.452 290.579 244.187 289.103 244.187H234.593C232.906 244.292 231.535 245.874 231.746 247.772Z" fill="url(#paint3_linear_2428_10546)"/>
<path d="M265.381 268.226L271.391 264.431L265.064 261.373L265.381 268.226Z" fill="#D9D9D9"/>
<path d="M265.697 275.08L259.266 271.811L258.949 264.958L265.064 261.373L265.697 275.08Z" fill="#F2F2F2"/>
<path d="M265.17 268.437L259.266 271.811" stroke="#D9D9D9" stroke-width="0.1" stroke-miterlimit="10" stroke-linecap="square" stroke-linejoin="bevel"/>
<path d="M265.381 268.226L258.949 264.958L265.064 261.373L265.381 268.226Z" fill="#F2F2F2"/>
<path d="M265.697 275.185L259.266 271.811L265.381 268.226L265.697 275.185Z" fill="white"/>
<path d="M360.692 254.414C360.692 254.414 369.232 278.664 363.433 284.779C357.529 290.894 321.47 292.054 321.47 292.054L320.1 282.776L352.784 276.555L349.727 258.315L360.692 254.414Z" fill="#FFBF99"/>
<path d="M300.384 282.249C300.384 282.67 300.806 282.67 301.122 282.67C301.86 282.67 302.598 282.565 303.231 282.249C302.809 282.354 302.809 282.987 302.809 283.408C302.914 286.044 303.863 288.68 305.339 290.789C305.761 291.211 306.077 291.843 306.71 292.054C307.764 292.265 308.608 291.422 309.24 290.789C311.771 291.843 314.512 292.37 317.148 292.687C318.413 292.792 319.889 292.792 321.154 292.37C322.42 291.949 323.896 291 324.423 289.524V289.102C324.107 287.415 323.685 285.833 322.63 284.357C321.365 282.46 319.467 281.194 317.464 280.14C315.566 279.086 313.669 278.453 311.665 277.715C310.4 277.188 309.135 276.661 307.764 276.661C306.499 276.766 305.445 277.399 304.39 278.031C302.809 279.086 301.544 280.245 300.278 281.616C300.278 281.827 300.173 282.038 300.384 282.249Z" fill="#FFBF99"/>
<path d="M342.135 242.605L348.145 261.373L364.171 256.312C360.586 248.932 350.359 234.909 350.359 234.909L342.135 242.605Z" fill="#0A489B"/>
<path d="M295.639 398.754L290.368 403.288C289.735 406.135 276.134 416.784 277.61 420.158C279.086 423.637 304.918 411.828 306.499 409.192C308.081 406.451 302.914 398.965 302.914 398.965L295.639 398.754Z" fill="black"/>
<path d="M339.289 313.247C339.289 313.247 270.756 312.298 261.478 324.634C252.305 336.97 290.472 403.288 290.472 403.288L302.808 398.965L283.303 339.816C289.313 339.395 334.755 337.919 334.755 337.919L339.289 313.247Z" fill="#EE384E"/>
<path d="M239.126 370.287L232.272 369.232C229.531 370.497 212.661 366.807 210.975 370.181C209.288 373.45 234.803 385.891 237.966 385.258C241.023 384.837 243.448 375.875 243.448 375.875L239.126 370.287Z" fill="black"/>
<path d="M271.177 310.189C255.889 314.09 232.166 369.232 232.166 369.232L243.342 375.98L276.449 328.535C276.449 328.535 319.15 339.711 336.968 337.918C354.787 336.021 359.11 312.719 359.11 312.719C343.294 309.873 286.57 305.972 271.177 310.189Z" fill="#DE051F"/>
<path d="M324.527 253.465L334.965 246.928L324.211 241.656L324.527 253.465Z" fill="#D9D9D9"/>
<path d="M324.844 265.063L314.09 259.475L313.773 247.561L324.211 241.656L324.844 265.063Z" fill="#F2F2F2"/>
<path d="M324.106 253.676L314.195 259.369" stroke="#D9D9D9" stroke-width="0.1" stroke-miterlimit="10" stroke-linecap="square" stroke-linejoin="bevel"/>
<path d="M324.528 253.465L313.773 247.561L324.211 241.656L324.528 253.465Z" fill="#F2F2F2"/>
<path d="M324.95 265.274L314.09 259.475L324.528 253.465L324.95 265.274Z" fill="white"/>
<path d="M152.459 294.269V446.2H158.68V309.873H266.118V446.2H273.182V294.269H152.459Z" fill="#023EA1"/>
<path d="M219.41 294.269V446.2H225.525V309.873H332.963V446.2H340.133V294.269H219.41Z" fill="#023EA1"/>
<path d="M389.16 365.331C389.16 365.331 394.643 363.117 394.221 356.791C393.799 350.571 390.636 346.037 397.278 347.935C403.921 349.833 406.24 350.571 410.985 349.516C415.835 348.462 419.841 346.459 417.733 352.785C415.624 359.005 413.304 364.277 418.26 365.331C423.215 366.386 428.593 362.59 429.225 372.396C429.858 382.201 421.95 393.377 409.087 393.693C396.329 394.115 390.531 388.738 390.531 388.738C390.531 388.738 387.051 383.888 392.428 382.728C397.806 381.568 403.183 379.249 400.547 376.824C397.806 374.399 388.844 374.083 388.844 374.083C388.844 374.083 378.089 371.763 389.16 365.331Z" fill="#649EEA"/>
<path d="M447.992 366.913C447.043 360.692 447.781 356.159 459.379 354.472C471.082 352.785 477.83 359.743 478.673 366.913C479.411 374.082 469.289 376.718 469.289 376.718C469.289 376.718 462.12 378.722 465.705 385.048C469.289 391.268 471.082 397.384 462.752 398.332C454.529 399.281 445.356 397.067 440.295 393.693C435.234 390.319 430.068 381.779 435.867 377.456C435.867 377.456 437.448 376.402 443.036 376.086C448.624 375.559 447.992 366.913 447.992 366.913Z" fill="#023EA1"/>
<path d="M406.979 365.858C406.979 365.858 416.573 387.789 417.944 402.655" stroke="#83DAFF" stroke-miterlimit="10" stroke-linecap="round" stroke-linejoin="round"/>
<path d="M460.751 369.443C460.751 369.443 443.671 394.959 439.453 403.393" stroke="#579FD5" stroke-miterlimit="10" stroke-linecap="round" stroke-linejoin="round"/>
<path d="M430.174 404.448C430.174 404.448 433.021 349.411 449.468 314.934" stroke="#FCBE42" stroke-miterlimit="10"/>
<path d="M462.963 295.112C462.963 295.112 464.228 311.981 447.886 318.624C447.886 318.624 444.301 304.074 462.963 295.112Z" fill="#FCBE42"/>
<path d="M438.291 348.883C438.291 348.883 444.301 334.544 463.068 336.442C462.963 336.337 461.592 350.676 438.291 348.883Z" fill="#FCBE42"/>
<path d="M432.07 385.048C432.07 385.048 435.233 369.76 453.895 367.967C453.895 367.862 455.266 382.412 432.07 385.048Z" fill="#FCBE42"/>
<path d="M431.439 385.153C431.439 385.153 433.547 369.76 416.572 361.747C416.678 361.747 410.562 374.82 431.439 385.153Z" fill="#FCBE42"/>
<path d="M438.503 348.778C438.503 348.778 442.615 333.701 426.799 323.685C426.694 323.579 418.997 335.81 438.503 348.778Z" fill="#FCBE42"/>
<path d="M412.039 400.968H451.367C451.367 400.968 455.689 401.285 455.268 407.189C454.951 412.566 448.098 411.406 444.513 411.406C440.929 411.406 411.196 411.406 411.196 411.406C411.196 411.406 406.451 412.25 406.451 406.767C406.241 401.285 408.138 400.968 412.039 400.968Z" fill="#0054A5"/>
<path d="M411.195 411.406L417.1 446.2H443.458L447.992 420.157L411.195 411.406Z" fill="#0054A5"/>
<path d="M411.195 411.406L447.992 420.157L449.468 411.406H411.195Z" fill="#006AD5"/>
<path d="M47.5521 270.546H33.7401C33.5292 270.546 33.3184 270.651 33.3184 270.968V276.661C33.3184 276.767 33.4238 276.872 33.4238 276.977L35.0053 278.559C35.1108 278.664 35.1108 278.664 35.3216 278.664H45.9705C46.076 278.664 46.1814 278.559 46.2868 278.559L47.8684 276.977C47.9738 276.872 47.9738 276.872 47.9738 276.661V270.968C47.9738 270.651 47.7629 270.546 47.5521 270.546ZM47.2357 276.556L45.8651 277.926H35.6379L34.2673 276.556V271.389H47.3412L47.2357 276.556Z" fill="#003EB0"/>
<path d="M48.3952 272.127L32.7909 273.076C32.58 273.076 32.3691 273.287 32.3691 273.498C32.3691 273.709 32.4746 273.92 32.7909 273.92L48.3952 273.076C48.6061 273.076 48.817 272.865 48.817 272.655C48.817 272.444 48.6061 272.127 48.3952 272.127Z" fill="#003EB0"/>
<path d="M48.3952 274.763L32.7909 275.607C32.58 275.607 32.3691 275.818 32.3691 276.028C32.3691 276.239 32.4746 276.45 32.7909 276.45L48.3952 275.607C48.6061 275.607 48.817 275.396 48.817 275.185C48.817 274.974 48.6061 274.763 48.3952 274.763Z" fill="#003EB0"/>
<path d="M40.5932 242.711C33.0019 242.711 26.6758 248.932 26.6758 256.628C26.6758 261.478 29.1008 265.801 33.2127 268.437V270.967C33.2127 271.178 33.3182 271.389 33.6345 271.389H47.5519C47.7627 271.389 47.9736 271.284 47.9736 270.967V268.437C52.0856 265.907 54.5106 261.478 54.5106 256.628C54.616 248.932 48.2899 242.711 40.5932 242.711ZM47.341 267.804C47.2356 267.91 47.1301 268.015 47.1301 268.226V270.651H33.9508V268.226C33.9508 268.121 33.8453 267.91 33.7399 267.804C29.7334 265.379 27.4138 261.267 27.4138 256.628C27.4138 249.353 33.3182 243.554 40.4877 243.554C47.6573 243.554 53.5617 249.459 53.5617 256.628C53.878 261.267 51.3475 265.485 47.341 267.804Z" fill="#003EB0"/>
<path d="M44.4933 278.031C44.2825 277.926 44.0716 278.031 43.9661 278.137C43.9661 278.242 43.2281 279.508 40.6977 279.508C38.1672 279.508 37.4292 278.137 37.4292 278.137C37.3238 277.926 37.1129 277.821 36.902 278.031C36.6911 278.137 36.5857 278.348 36.7966 278.559C36.7966 278.664 37.8509 280.456 40.8031 280.456C43.8607 280.456 44.8096 278.664 44.8096 278.559C44.8096 278.348 44.7042 278.137 44.4933 278.031Z" fill="#003EB0"/>
<path d="M23.0909 256.207H14.7616C14.5507 256.207 14.3398 256.312 14.3398 256.628C14.3398 256.839 14.4453 257.05 14.7616 257.05H22.9855C23.1964 257.05 23.4072 256.945 23.4072 256.628C23.4072 256.417 23.3018 256.207 23.0909 256.207Z" fill="#DE051F"/>
<path d="M66.5304 256.207H58.3065C58.0956 256.207 57.8848 256.312 57.8848 256.628C57.8848 256.839 57.9902 257.05 58.3065 257.05H66.5304C66.7413 257.05 66.9522 256.945 66.9522 256.628C66.8467 256.417 66.7413 256.207 66.5304 256.207Z" fill="#DE051F"/>
<path d="M25.7269 265.168C25.6215 264.957 25.3052 264.957 25.1998 265.063L18.1356 269.175C17.9248 269.28 17.9248 269.597 18.0302 269.702C18.1356 269.807 18.2411 269.913 18.4519 269.913C18.5574 269.913 18.5574 269.913 18.6628 269.807L25.7269 265.696C25.8324 265.696 25.9378 265.485 25.7269 265.168Z" fill="#DE051F"/>
<path d="M63.473 243.554C63.3676 243.343 63.0513 243.343 62.9459 243.449L55.8817 247.561C55.6709 247.666 55.6709 247.982 55.7763 248.088C55.8817 248.193 55.9872 248.299 56.198 248.299C56.3035 248.299 56.3035 248.299 56.4089 248.193L63.473 244.081C63.473 243.976 63.473 243.66 63.473 243.554Z" fill="#DE051F"/>
<path d="M53.8783 233.854C53.6674 233.749 53.4566 233.749 53.3511 233.96L49.2392 241.024C49.1337 241.235 49.1337 241.446 49.3446 241.551C49.45 241.551 49.45 241.657 49.5555 241.657C49.6609 241.657 49.8718 241.551 49.9772 241.446L54.0892 234.382C54.0892 234.171 53.9837 233.96 53.8783 233.854Z" fill="#DE051F"/>
<path d="M40.5936 230.27C40.3827 230.27 40.1719 230.375 40.1719 230.691V238.915C40.1719 239.126 40.2773 239.337 40.5936 239.337C40.9099 239.337 41.0154 239.231 41.0154 238.915V230.691C41.0154 230.586 40.9099 230.27 40.5936 230.27Z" fill="#DE051F"/>
<path d="M32.263 241.129L28.1511 234.065C28.0456 233.854 27.7293 233.854 27.6239 233.96C27.413 234.065 27.413 234.382 27.5185 234.487L31.6304 241.551C31.7359 241.657 31.8413 241.762 32.0522 241.762C32.1576 241.762 32.1576 241.762 32.263 241.657C32.263 241.657 32.263 241.34 32.263 241.129Z" fill="#DE051F"/>
<path d="M63.2621 269.175L56.198 265.063C55.9871 264.957 55.7763 264.957 55.6708 265.168C55.5654 265.379 55.5654 265.59 55.7763 265.696L62.8404 269.807C62.9458 269.807 62.9458 269.913 63.0513 269.913C63.1567 269.913 63.3676 269.807 63.473 269.702C63.473 269.491 63.473 269.28 63.2621 269.175Z" fill="#DE051F"/>
<path d="M25.6215 247.456L18.5574 243.344C18.3465 243.238 18.1356 243.238 18.0302 243.449C17.9248 243.66 17.9248 243.871 18.1356 243.976L25.1998 248.088C25.3052 248.088 25.3052 248.194 25.4106 248.194C25.5161 248.194 25.7269 248.088 25.8324 247.983C25.9378 247.877 25.8324 247.561 25.6215 247.456Z" fill="#DE051F"/>
<path d="M41.7534 270.546V257.366C41.7534 257.366 41.648 251.146 45.0219 251.146C48.3958 251.146 46.9197 257.577 40.2773 257.577" stroke="#003EB0" stroke-miterlimit="10"/>
<path d="M38.8008 270.546V257.366C38.8008 257.366 38.9063 251.146 35.5324 251.146C32.1585 251.146 33.6345 257.577 40.2769 257.577" stroke="#003EB0" stroke-miterlimit="10"/>
<path d="M354.26 186.936C354.26 186.936 357.529 185.038 355.525 177.552C353.522 169.961 351.624 168.696 354.26 163.213C357.001 157.73 365.436 156.149 377.772 156.781C390.003 157.203 393.166 169.328 391.689 174.6C390.319 179.872 379.143 185.881 372.395 185.038C365.647 184.194 362.589 183.773 362.589 183.773C362.589 183.773 360.375 187.357 354.26 186.936Z" fill="#0064E1"/>
<path d="M367.861 172.175C368.851 172.175 369.653 171.373 369.653 170.383C369.653 169.393 368.851 168.59 367.861 168.59C366.871 168.59 366.068 169.393 366.068 170.383C366.068 171.373 366.871 172.175 367.861 172.175Z" fill="white"/>
<path d="M373.343 172.175C374.333 172.175 375.136 171.373 375.136 170.383C375.136 169.393 374.333 168.59 373.343 168.59C372.353 168.59 371.551 169.393 371.551 170.383C371.551 171.373 372.353 172.175 373.343 172.175Z" fill="white"/>
<path d="M378.826 172.175C379.815 172.175 380.618 171.373 380.618 170.383C380.618 169.393 379.815 168.59 378.826 168.59C377.836 168.59 377.033 169.393 377.033 170.383C377.033 171.373 377.836 172.175 378.826 172.175Z" fill="white"/>
</g>
<defs>
<filter id="filter0_d_2428_10546" x="-10.1315" y="35.5796" width="92.3275" height="98.5594" filterUnits="userSpaceOnUse" color-interpolation-filters="sRGB">
<feFlood flood-opacity="0" result="BackgroundImageFix"/>
<feColorMatrix in="SourceAlpha" type="matrix" values="0 0 0 0 0 0 0 0 0 0 0 0 0 0 0 0 0 0 127 0" result="hardAlpha"/>
<feOffset dy="9.22573"/>
<feGaussianBlur stdDeviation="18.4515"/>
<feComposite in2="hardAlpha" operator="out"/>
<feColorMatrix type="matrix" values="0 0 0 0 0 0 0 0 0 0 0 0 0 0 0 0 0 0 0.25 0"/>
<feBlend mode="normal" in2="BackgroundImageFix" result="effect1_dropShadow_2428_10546"/>
<feBlend mode="normal" in="SourceGraphic" in2="effect1_dropShadow_2428_10546" result="shape"/>
</filter>
<linearGradient id="paint0_linear_2428_10546" x1="28.6521" y1="65.9275" x2="37.0054" y2="87.486" gradientUnits="userSpaceOnUse">
<stop stop-color="#1043B1"/>
<stop offset="0.505208" stop-color="#3367D6"/>
<stop offset="1" stop-color="#1043B1"/>
</linearGradient>
<linearGradient id="paint1_linear_2428_10546" x1="41.8598" y1="72.4441" x2="25.6079" y2="78.7412" gradientUnits="userSpaceOnUse">
<stop stop-color="#0035AB"/>
<stop offset="0.380208" stop-color="#255CD7"/>
<stop offset="0.9999" stop-color="#255CD7"/>
<stop offset="1" stop-color="#255CD7"/>
</linearGradient>
<linearGradient id="paint2_linear_2428_10546" x1="330.117" y1="291.316" x2="257.895" y2="291.316" gradientUnits="userSpaceOnUse">
<stop stop-color="white"/>
<stop offset="1" stop-color="#CCCCCC"/>
</linearGradient>
<linearGradient id="paint3_linear_2428_10546" x1="296.717" y1="269.175" x2="231.815" y2="269.175" gradientUnits="userSpaceOnUse">
<stop stop-color="white"/>
<stop offset="1" stop-color="#CCCCCC"/>
</linearGradient>
<clipPath id="clip0_2428_10546">
<rect width="485" height="485" fill="white"/>
</clipPath>
</defs>
</svg>
