<svg width="515" height="333" viewBox="0 0 515 333" fill="none" xmlns="http://www.w3.org/2000/svg">
<path d="M86.3178 213.847C87.1194 215.228 87.9209 219.522 88.2416 223.05C89.2034 240.842 89.3638 257.254 88.8828 272.439C89.5241 272.285 90.3256 272.285 90.9669 272.132C92.8907 271.825 94.8144 271.518 96.8985 271.212C114.213 267.991 130.885 261.088 148.199 260.628C148.199 261.702 148.199 262.776 148.199 263.849L155.253 265.843C155.253 265.843 214.569 280.414 220.982 284.095C221.463 284.402 221.944 284.709 222.425 284.862C228.998 286.703 236.693 289.157 237.975 297.44C237.975 297.746 237.975 298.053 237.975 298.36H335.767C329.675 288.697 361.417 275.966 361.417 275.966L414.642 263.849C414.642 263.849 426.826 262.776 439.17 261.702C438.208 240.689 439.33 219.676 442.537 198.509C443.017 195.135 444.941 191.3 446.705 190.38C458.087 184.245 470.912 190.687 484.379 202.497C487.585 190.84 503.456 179.183 510.029 169.52C517.884 158.017 496.242 143.139 483.577 140.225C470.912 137.31 405.504 98.1983 432.437 88.5354C459.53 78.719 470.271 53.4112 467.225 49.4233C464.179 45.4355 432.918 52.7977 416.085 58.0126C399.252 63.2276 384.823 60.9269 382.419 51.7241C380.014 42.5212 376.968 25.3426 350.035 23.0419C322.942 20.7412 313.323 46.6625 291.681 54.6383C270.038 62.6141 257.373 51.2639 257.373 38.5333C257.373 25.9561 304.987 -3.49292 264.107 0.341594C223.226 4.17611 62.2706 105.407 44.636 128.721C27.0014 152.035 52.9724 156.636 52.9724 156.636C52.9724 156.636 86.6384 155.563 92.57 175.349C95.616 185.472 89.5241 199.276 82.7909 210.319C84.0734 210.933 85.3559 212.16 86.3178 213.847Z" fill="#EDEDED"/>
<path d="M130.399 32.396C130.399 32.396 122.785 38.6937 129.964 41.5169C137.36 44.34 140.188 47.8146 136.49 54.7639C132.357 61.7131 133.662 67.1422 137.36 69.7482C141.493 72.3542 149.107 76.2631 143.016 85.1669C136.925 94.2877 126.918 112.53 116.259 107.535C105.383 102.54 100.162 84.7325 104.513 77.7833C108.863 70.834 116.042 68.8795 112.344 60.8445C109.081 52.8094 101.467 56.7184 101.25 47.3803C101.032 37.8251 99.727 28.0527 112.996 25.0124C124.308 22.1893 133.444 27.8355 130.399 32.396Z" stroke="#1C4599" stroke-width="1.31185" stroke-miterlimit="10"/>
<path d="M119.949 38.4768C119.949 38.4768 121.254 98.6313 124.735 113.616" stroke="#1C4599" stroke-width="1.31185" stroke-miterlimit="10"/>
<path d="M133.439 76.48L121.91 87.3382L110.381 81.0404" stroke="#1C4599" stroke-width="1.31185" stroke-miterlimit="10"/>
<path d="M130.175 48.4666L120.821 55.1986L110.162 51.0725" stroke="#1C4599" stroke-width="1.31185" stroke-miterlimit="10"/>
<path d="M155.846 33.0482C155.846 33.0482 174.118 38.6945 169.115 46.9467C163.677 54.9818 166.722 58.4564 170.42 61.4967C173.683 64.537 182.167 68.0117 175.859 76.2639C169.55 84.5161 163.242 86.2534 163.677 91.8997C164.112 97.546 158.239 120.348 149.755 115.136C141.054 110.141 140.401 96.4601 141.706 90.3796C143.011 84.7333 137.573 78.2184 132.57 73.8751C127.567 69.749 124.739 61.4967 132.352 58.8908C140.184 56.0676 143.882 48.0326 141.489 42.3863C138.008 37.1744 143.447 29.5736 155.846 33.0482Z" fill="#FABD41"/>
<path d="M154.099 45.4268L144.963 122.52" stroke="white" stroke-width="1.31185" stroke-miterlimit="10" stroke-linecap="round" stroke-linejoin="round"/>
<path d="M166.934 69.0983L150.184 76.699L135.827 64.5378" stroke="white" stroke-width="1.31185" stroke-miterlimit="10" stroke-linecap="round" stroke-linejoin="round"/>
<path d="M70.1401 43.6894C70.1401 43.6894 62.744 38.2602 67.5297 31.9625C72.0978 25.6647 83.8445 25.6647 86.2374 31.7453C88.8478 37.3916 85.3673 41.7349 90.588 42.6035C95.5912 43.4722 109.296 48.0326 106.685 54.5476C103.857 61.0625 95.8088 61.4968 99.2893 70.1834C102.552 78.8699 119.52 80.3901 110.818 92.5513C102.117 104.495 81.8868 121 71.4452 100.369C61.4388 79.7386 83.627 83.8647 71.6628 70.6177C59.6986 57.3707 69.705 56.9364 72.968 51.9416C76.0134 46.2953 70.1401 43.6894 70.1401 43.6894Z" fill="#ED3B4E"/>
<path d="M83.8386 51.2908C83.8386 51.2908 85.1438 75.1788 93.41 94.9407C101.676 114.703 106.897 117.309 106.897 117.309" stroke="white" stroke-width="1.31185" stroke-miterlimit="10" stroke-linecap="round" stroke-linejoin="round"/>
<path d="M499.722 114.247C505.025 101.45 501.762 88.6537 492.992 78.0914C484.019 67.7321 468.928 62.8572 455.672 66.1071C453.429 52.9041 443.844 41.123 431.608 35.6387C419.372 29.9513 404.281 30.9669 392.86 38.2793C381.44 45.5917 373.69 58.1853 372.875 71.5914C363.697 73.2164 355.54 78.9038 350.85 86.8256C346.159 94.7474 345.751 105.107 349.014 113.435L499.722 114.247Z" fill="#EE384E"/>
<path d="M436.905 81.9511C436.701 81.9511 436.905 79.3105 435.273 75.8574C434.457 74.0293 433.234 71.9981 431.398 70.17C429.563 68.3419 427.32 66.92 424.465 66.1075C421.61 65.295 418.754 65.0919 416.307 65.4982C413.656 66.1075 411.617 67.1231 410.189 68.1387C406.926 70.17 405.499 72.4043 405.295 72.2012C405.295 72.2012 405.499 71.5918 406.11 70.5762C406.722 69.5606 407.946 68.545 409.373 67.3263C411.005 66.1075 413.248 65.0919 416.103 64.2794C418.754 63.67 421.813 63.6701 424.872 64.8888C427.932 65.9044 430.583 67.5294 432.214 69.5606C434.05 71.5918 435.273 73.6231 436.089 75.6543C436.905 77.6855 436.905 79.3105 437.109 80.3261C436.905 81.3417 436.905 81.9511 436.905 81.9511Z" fill="white"/>
<path d="M428.757 76.06C428.961 75.8569 432.836 78.2944 437.119 81.7475C437.119 81.7475 437.323 81.7475 437.323 81.9506L436.303 82.1537C438.138 77.0756 439.974 73.0132 440.178 73.0132C440.382 73.0132 439.362 77.2788 437.526 82.3568L437.323 83.3724L436.507 82.7631C436.507 82.7631 436.303 82.7631 436.303 82.5599C431.816 79.31 428.553 76.2631 428.757 76.06Z" fill="white"/>
<path d="M404.483 79.1062C404.687 79.1062 404.279 81.7468 405.298 85.1999C405.91 87.028 406.93 89.0592 408.154 91.0904C409.785 93.1217 411.824 94.9498 414.272 96.1685C414.883 96.3716 415.495 96.7779 416.311 96.981C416.923 97.1841 417.535 97.5904 418.35 97.5904C419.574 97.7935 421.001 98.1997 422.225 98.1997C424.876 98.1997 426.916 97.5904 428.547 96.981C430.382 96.1685 431.606 95.356 432.422 94.9498C433.442 94.3404 433.645 93.9342 434.053 93.9342C434.053 93.9342 433.849 94.5435 433.034 95.1529C432.218 95.9654 430.994 96.981 429.159 97.7935C427.323 98.8091 425.08 99.4185 422.429 99.4185C421.205 99.4185 419.574 99.4185 418.35 99.2154C417.535 99.2154 416.719 98.606 416.311 98.606C415.495 98.4029 414.679 97.9966 414.272 97.5904C411.417 96.3716 409.173 94.3404 407.542 91.9029C405.91 89.8717 404.891 87.6374 404.687 85.6061C404.483 84.5905 404.483 83.778 404.483 82.9655C404.483 82.153 404.483 81.3406 404.483 80.9343C404.279 79.9187 404.279 79.1062 404.483 79.1062Z" fill="white"/>
<path d="M412.026 86.2172C411.822 86.4203 408.152 83.5766 404.277 79.5141C404.277 79.5141 404.277 79.5141 404.073 79.311L405.093 79.1079C402.441 83.9828 400.402 87.8422 399.994 87.8422C399.79 87.639 401.218 83.7797 403.869 78.7016L404.481 77.8892L405.296 78.7016C405.296 78.7016 405.296 78.7017 405.5 78.9048C409.171 82.7641 412.23 86.0141 412.026 86.2172Z" fill="white"/>
<path d="M483.404 303.355C483.404 303.355 385.515 303.558 265.193 303.558C144.871 303.558 46.9822 303.558 46.9822 303.355C46.9822 303.355 144.871 303.151 265.193 303.151C385.719 303.354 483.404 303.355 483.404 303.355Z" fill="#263238"/>
<path d="M325.98 80.9358H73.1006C68.818 80.9358 65.1472 84.592 65.1472 88.8576V266.59C65.1472 270.856 68.818 274.512 73.1006 274.512H170.174C170.174 274.512 176.292 293.605 157.122 303.558H247.873C247.873 303.558 226.256 296.246 231.762 274.512H326.184C330.467 274.512 334.138 270.856 334.138 266.59V88.8576C333.934 84.3889 330.263 80.9358 325.98 80.9358Z" fill="#0064B7"/>
<path d="M202.797 255.823C206.468 260.698 200.757 265.98 195.863 262.73C195.659 262.73 195.659 262.527 195.251 262.12C191.58 257.245 197.29 251.964 202.185 255.214C202.593 255.62 202.797 255.62 202.797 255.823Z" fill="#E8F7FF"/>
<path d="M329.635 242.011H69.8217V94.1376C69.8217 88.4502 74.1044 84.1846 79.8145 84.1846H320.05C325.76 84.1846 330.043 88.4502 330.043 94.1376L329.635 242.011Z" fill="white"/>
<rect x="140.946" y="100.906" width="150.066" height="9.58126" rx="4.79063" fill="#DCE8F4"/>
<rect x="92.8552" y="127.733" width="107.739" height="67.0688" rx="2.53257" fill="#DCE8F4"/>
<rect x="92.8552" y="208.216" width="217.403" height="17.2463" rx="2.53257" fill="#DCE8F4"/>
<rect x="212.134" y="127.733" width="98.1198" height="67.0688" rx="2.53257" fill="#DCE8F4"/>
<rect x="92.8552" y="100.906" width="9.61959" height="9.58126" rx="4.79063" fill="#EE384E"/>
<rect x="108.244" y="100.906" width="9.61959" height="9.58126" rx="4.79063" fill="#0064B7"/>
<path d="M476.041 226.167H381.415V251.557H476.041V226.167Z" fill="#25409C"/>
<path d="M388.951 229.417H383.853V248.917H388.951V229.417Z" fill="#3864B2"/>
<path d="M394.873 233.479C394.873 234.494 394.057 235.104 393.241 235.104C392.222 235.104 391.61 234.291 391.61 233.479C391.61 232.463 392.426 231.854 393.241 231.854C394.261 231.854 394.873 232.463 394.873 233.479Z" fill="white"/>
<path d="M394.873 240.385C394.873 241.4 394.057 242.01 393.241 242.01C392.222 242.01 391.61 241.197 391.61 240.385C391.61 239.369 392.426 238.76 393.241 238.76C394.261 238.557 394.873 239.369 394.873 240.385Z" fill="white"/>
<path d="M406.289 231.854H401.191V246.885H406.289V231.854Z" fill="#3864B2"/>
<path d="M413.438 231.854H408.34V246.885H413.438V231.854Z" fill="#3864B2"/>
<path d="M420.569 231.854H415.471V246.885H420.569V231.854Z" fill="#3864B2"/>
<path d="M427.919 231.854H422.821V246.885H427.919V231.854Z" fill="#3864B2"/>
<path d="M435.056 231.854H429.958V246.885H435.056V231.854Z" fill="#3864B2"/>
<path d="M442.6 231.853H437.502V246.884H442.6V231.853Z" fill="#3864B2"/>
<path d="M449.743 231.854H444.645V246.885H449.743V231.854Z" fill="#3864B2"/>
<path d="M456.874 231.853H451.776V246.884H456.874V231.853Z" fill="#3864B2"/>
<path d="M464.218 231.854H459.119V246.885H464.218V231.854Z" fill="#3864B2"/>
<path d="M471.348 231.854H466.25V246.885H471.348V231.854Z" fill="#3864B2"/>
<path d="M492.575 226.167H475.649V251.557H492.575V226.167Z" fill="#3864B2"/>
<path d="M476.035 254.4H381.409V279.79H476.035V254.4Z" fill="#25409C"/>
<path d="M388.945 257.651H383.846V277.15H388.945V257.651Z" fill="#3864B2"/>
<path d="M394.867 261.712C394.867 262.728 394.051 263.337 393.235 263.337C392.215 263.337 391.604 262.525 391.604 261.712C391.604 260.697 392.419 260.087 393.235 260.087C394.255 260.291 394.867 260.9 394.867 261.712Z" fill="white"/>
<path d="M394.867 268.619C394.867 269.635 394.051 270.244 393.235 270.244C392.215 270.244 391.604 269.431 391.604 268.619C391.604 267.603 392.419 266.994 393.235 266.994C394.255 266.994 394.867 267.807 394.867 268.619Z" fill="white"/>
<path d="M406.283 260.29H401.184V275.321H406.283V260.29Z" fill="#3864B2"/>
<path d="M413.432 260.29H408.334V275.321H413.432V260.29Z" fill="#3864B2"/>
<path d="M420.563 260.29H415.464V275.321H420.563V260.29Z" fill="#3864B2"/>
<path d="M427.913 260.29H422.814V275.321H427.913V260.29Z" fill="#3864B2"/>
<path d="M435.05 260.29H429.951V275.321H435.05V260.29Z" fill="#3864B2"/>
<path d="M442.594 260.29H437.495V275.321H442.594V260.29Z" fill="#3864B2"/>
<path d="M449.737 260.29H444.639V275.321H449.737V260.29Z" fill="#3864B2"/>
<path d="M456.868 260.29H451.769V275.321H456.868V260.29Z" fill="#3864B2"/>
<path d="M464.211 260.29H459.113V275.321H464.211V260.29Z" fill="#3864B2"/>
<path d="M471.342 260.29H466.244V275.321H471.342V260.29Z" fill="#3864B2"/>
<path d="M492.569 254.4H475.643V279.79H492.569V254.4Z" fill="#3864B2"/>
<path d="M476.035 281.824H381.409V307.214H476.035V281.824Z" fill="#25409C"/>
<path d="M388.945 285.074H383.846V304.574H388.945V285.074Z" fill="#3864B2"/>
<path d="M394.867 289.136C394.867 290.151 394.051 290.761 393.235 290.761C392.215 290.761 391.604 289.948 391.604 289.136C391.604 288.12 392.419 287.511 393.235 287.511C394.255 287.714 394.867 288.323 394.867 289.136Z" fill="white"/>
<path d="M394.867 296.042C394.867 297.058 394.051 297.667 393.235 297.667C392.215 297.667 391.604 296.855 391.604 296.042C391.604 295.027 392.419 294.417 393.235 294.417C394.255 294.417 394.867 295.23 394.867 296.042Z" fill="white"/>
<path d="M406.283 287.714H401.184V302.745H406.283V287.714Z" fill="#3864B2"/>
<path d="M413.432 287.714H408.334V302.745H413.432V287.714Z" fill="#3864B2"/>
<path d="M420.563 287.714H415.464V302.745H420.563V287.714Z" fill="#3864B2"/>
<path d="M427.913 287.714H422.814V302.745H427.913V287.714Z" fill="#3864B2"/>
<path d="M435.05 287.714H429.951V302.745H435.05V287.714Z" fill="#3864B2"/>
<path d="M442.594 287.714H437.495V302.745H442.594V287.714Z" fill="#3864B2"/>
<path d="M449.737 287.714H444.639V302.745H449.737V287.714Z" fill="#3864B2"/>
<path d="M456.868 287.714H451.769V302.745H456.868V287.714Z" fill="#3864B2"/>
<path d="M464.211 287.714H459.113V302.745H464.211V287.714Z" fill="#3864B2"/>
<path d="M471.342 287.714H466.244V302.745H471.342V287.714Z" fill="#3864B2"/>
<path d="M492.569 281.823H475.643V307.214H492.569V281.823Z" fill="#3864B2"/>
<path d="M498.908 238.558H492.586V243.23H498.908V238.558Z" fill="#263238"/>
<path d="M415.082 118.716V113.842C415.082 113.232 415.286 113.029 415.898 113.029H420.588C421.2 113.029 421.404 113.232 421.404 113.842V118.716C421.404 120.341 420.18 121.763 418.345 121.763C416.51 121.56 415.082 120.545 415.082 118.716Z" fill="#263238"/>
<path d="M498.908 265.776H492.586V270.447H498.908V265.776Z" fill="#263238"/>
<path d="M498.908 291.776H492.586V296.448H498.908V291.776Z" fill="#263238"/>
<path d="M380.826 291.776H374.504V296.448H380.826V291.776Z" fill="#263238"/>
<path d="M513.996 253.792C513.996 253.792 513.996 253.995 513.996 254.808C513.996 255.011 513.996 255.417 513.996 255.824C513.996 256.433 513.996 256.839 513.793 257.449C513.589 258.058 513.589 258.464 513.181 259.074C513.181 259.277 512.977 259.683 512.977 260.089C512.977 260.292 512.773 260.699 512.365 261.105C511.753 262.324 510.733 263.745 509.714 264.761C508.694 265.777 507.063 266.792 506.043 267.402C505.839 267.402 505.431 267.605 505.023 268.011C504.819 268.011 504.411 268.214 504.004 268.214C503.392 268.417 502.984 268.417 502.372 268.823C501.76 268.823 501.352 269.027 500.741 269.027C500.129 269.027 499.925 269.027 499.721 269.027C499.109 269.027 498.701 269.027 498.701 269.027C498.701 269.027 499.925 269.027 501.964 268.417C502.576 268.417 502.984 268.214 503.596 267.808C503.8 267.808 504.208 267.605 504.615 267.605C504.819 267.605 505.227 267.402 505.635 266.995C506.859 266.386 508.286 265.37 509.306 264.355C510.326 263.339 511.345 262.12 511.957 260.699C511.957 260.495 512.161 260.089 512.569 259.683C512.977 259.277 512.773 259.074 512.773 258.667C512.977 258.058 513.385 257.652 513.385 257.042C513.589 255.214 513.589 253.792 513.996 253.792Z" fill="#263238"/>
<path d="M513.996 225.761C513.996 225.761 513.996 225.964 513.996 226.777C513.996 226.98 513.996 227.386 513.996 227.792C513.996 228.402 513.996 228.808 513.793 229.417C513.589 230.027 513.589 230.433 513.181 231.042C513.181 231.245 512.977 231.652 512.977 232.058C512.977 232.261 512.773 232.667 512.365 233.073C511.753 234.292 510.733 235.714 509.714 236.73C508.694 237.745 507.063 238.761 506.043 239.37C505.839 239.37 505.431 239.573 505.023 239.98C504.819 239.98 504.411 240.183 504.004 240.183C503.392 240.386 502.984 240.386 502.372 240.792C501.76 240.792 501.352 240.995 500.741 240.995C500.129 240.995 499.925 240.995 499.721 240.995C499.109 240.995 498.701 240.995 498.701 240.995C498.701 240.995 499.925 240.995 501.964 240.386C502.576 240.386 502.984 240.183 503.596 239.776C503.8 239.776 504.208 239.573 504.615 239.573C504.819 239.573 505.227 239.37 505.635 238.964C506.859 238.355 508.286 237.339 509.306 236.323C510.326 235.308 511.345 234.089 511.957 232.667C511.957 232.464 512.161 232.058 512.569 231.652C512.569 231.448 512.773 231.042 512.773 230.636C512.977 230.027 513.385 229.62 513.385 229.011C513.589 226.98 513.589 225.761 513.996 225.761Z" fill="#263238"/>
<path d="M377.552 294.011C376.94 294.011 376.736 294.011 376.328 294.011C375.309 294.011 374.289 294.011 372.454 294.011C369.191 294.011 364.296 294.011 358.178 294.011C346.146 294.011 329.627 294.011 311.477 294.011C306.787 294.011 302.504 294.011 298.221 294.011C296.182 294.011 293.939 294.011 291.899 294.011C289.86 294.011 287.821 294.011 285.781 294.011C283.742 293.808 281.906 293.401 280.071 292.792C279.459 292.792 279.255 292.183 278.847 292.183C278.236 291.979 278.032 291.573 277.624 291.573C277.012 291.37 276.808 290.964 276.604 290.761C275.992 290.558 275.788 290.151 275.584 289.948C274.973 289.745 274.769 289.339 274.565 289.136C274.361 288.933 273.953 288.526 273.545 288.12C272.933 287.511 272.525 286.901 271.914 286.089C270.894 284.87 270.078 283.245 269.67 282.026C268.447 279.183 268.039 276.339 268.039 274.105C268.039 271.87 268.039 269.839 268.039 268.011C268.039 266.386 268.039 264.964 268.039 264.152C268.039 263.542 268.039 263.339 268.039 263.136C268.039 263.339 268.039 263.745 268.039 264.152C268.039 265.167 268.039 266.183 268.039 268.011C268.039 269.636 268.039 271.667 268.039 274.105C268.039 276.339 268.651 279.183 269.67 281.823C270.282 283.042 270.894 284.667 271.914 285.886C272.525 286.698 272.933 287.104 273.545 287.714C273.749 287.917 274.157 288.323 274.565 288.729C274.769 288.933 275.177 289.339 275.584 289.542C275.788 289.745 276.4 290.151 276.604 290.354C277.216 290.558 277.42 290.964 277.624 291.167C278.236 291.37 278.44 291.776 278.847 291.776C279.459 291.979 279.663 292.386 280.071 292.386C281.906 293.198 283.742 293.401 285.781 293.604C287.821 293.604 289.86 293.604 291.899 293.604C293.939 293.604 295.978 293.604 298.221 293.604C302.504 293.604 306.991 293.604 311.477 293.604C329.831 293.604 346.146 293.604 358.178 293.604C364.092 293.604 368.987 293.604 372.454 293.604C374.085 293.604 375.513 293.604 376.328 293.604C376.94 293.604 377.144 293.604 377.348 293.604C377.552 294.011 377.552 294.011 377.552 294.011Z" fill="#263238"/>
<path d="M418.131 120.543C418.131 120.543 418.131 120.746 418.131 121.355C418.131 121.965 418.131 122.371 418.131 123.387C418.131 125.215 418.131 127.652 418.131 131.105C418.131 137.808 418.131 147.355 418.131 159.339C418.131 165.23 418.131 171.73 418.131 178.636C418.131 180.464 418.131 182.292 418.131 183.917C418.131 184.933 418.131 185.745 418.131 186.761C418.131 187.776 418.131 188.589 418.131 189.605C418.743 193.261 419.762 196.917 422.006 200.37C424.045 203.62 427.104 206.464 430.775 208.495C430.979 208.495 431.387 208.698 431.387 209.104L432.202 209.307L433.834 210.12L435.465 210.729C436.077 210.932 436.485 211.339 437.097 211.339L438.728 211.948C439.34 211.948 439.748 212.151 440.36 212.151C441.379 212.354 442.399 212.354 443.419 212.354C452.188 212.354 460.753 212.354 469.93 212.354C479.107 212.354 487.877 212.354 496.442 212.354C498.481 212.354 500.725 212.354 502.764 212.354C504.803 212.354 507.047 212.964 508.882 213.979C512.553 216.011 515 220.073 515 224.135C515 239.979 515 254.198 515 265.776C515 268.822 515 271.666 515 274.104C515 275.322 515 276.744 515 277.963C515 279.182 515 280.604 514.796 281.619C514.592 283.854 513.572 286.291 512.553 287.713C511.533 289.541 509.902 290.76 508.678 291.775C506.027 293.807 503.376 294.619 501.54 294.822C500.928 294.822 500.725 294.822 500.521 295.025C500.725 295.025 501.336 295.025 501.54 294.822C503.376 294.619 505.823 293.807 508.474 291.775C509.698 290.76 511.125 289.541 512.145 287.713C513.165 285.885 514.184 283.854 514.388 281.619C514.592 280.604 514.592 279.385 514.592 277.963C514.592 276.744 514.592 275.322 514.592 274.104C514.592 271.463 514.592 268.416 514.592 265.776C514.592 253.791 514.592 239.776 514.592 224.135C514.592 220.276 512.349 216.417 508.678 214.386C506.843 213.37 504.803 212.761 502.764 212.761C500.725 212.761 498.685 212.761 496.442 212.761C487.673 212.761 479.107 212.761 469.93 212.761C460.753 212.761 451.984 212.761 443.419 212.761C442.399 212.761 441.379 212.761 440.36 212.557C439.748 212.557 439.34 212.557 438.728 212.354L437.097 211.745C436.485 211.745 436.077 211.542 435.465 211.136L433.834 210.526L432.202 209.714L431.387 209.511C431.183 209.511 430.775 209.308 430.571 208.901C426.9 206.87 423.841 203.823 421.802 200.573C419.762 197.323 418.539 193.464 417.927 189.808C417.927 188.792 417.927 187.98 417.927 186.964C417.927 185.948 417.927 185.136 417.927 184.12C417.927 182.292 417.927 180.464 417.927 178.839C417.927 171.73 417.927 165.433 417.927 159.542C417.927 147.558 417.927 138.215 418.131 131.308C418.131 128.058 418.131 125.418 418.131 123.59C418.131 122.574 418.131 121.965 418.131 121.558C418.131 120.746 418.131 120.543 418.131 120.543Z" fill="#263238"/>
<path d="M70.3441 248.733H7.09359C3.17591 248.733 0 251.908 0 255.826V320.577C0 324.495 3.1759 327.67 7.09358 327.67H70.3441C74.2618 327.67 77.4377 324.495 77.4377 320.577V255.826C77.4377 251.908 74.2618 248.733 70.3441 248.733Z" fill="#023EA1"/>
<path d="M31.0861 156.423C31.0861 156.423 20.1158 152.395 18.8252 162.867C18.8252 162.867 16.0826 170.439 13.1787 171.727C10.4361 173.017 3.33757 175.755 5.11224 185.421C6.8869 195.248 9.46806 194.603 8.50014 200.242C7.3708 205.88 10.1134 206.525 13.9853 206.686C17.8572 206.846 18.9865 203.141 18.9865 203.141L17.8572 190.576L20.4384 170.278L28.8276 166.894C28.8276 166.894 33.1834 161.417 33.506 159.323C33.8287 157.229 31.0861 156.423 31.0861 156.423Z" fill="#170856"/>
<path d="M29.64 153.685C29.64 153.685 27.8655 155.457 28.3494 155.779C28.8334 156.101 33.5119 158.678 33.5119 158.678C33.5119 158.678 34.9639 155.94 34.8026 155.134C34.6413 154.328 29.64 153.685 29.64 153.685Z" fill="#F05051"/>
<path d="M58.8386 139.992C59.1613 139.992 59.3226 140.153 59.3226 140.475C59.3226 142.892 58.6773 154.49 54.1602 158.84C54.1602 158.84 51.7402 162.063 47.2231 160.612C47.2231 160.612 43.0284 158.035 43.6737 163.19C44.3191 168.345 42.2218 173.339 40.6086 173.983C38.9953 174.789 32.2195 172.856 30.6061 169.956C29.6382 168.023 28.9929 167.056 28.8316 166.574C28.6703 166.412 28.6703 166.251 28.8316 165.929C29.7995 164.8 33.3487 160.452 34.9621 154.49C36.8981 147.564 35.7687 140.798 42.2218 139.508C47.5457 138.703 56.7413 139.83 58.8386 139.992Z" fill="#FFBE97"/>
<path d="M64.8112 139.508C64.8112 139.346 64.8112 139.348 64.8112 139.187C64.8112 138.542 64.8112 137.736 64.8112 137.092C64.6497 134.998 63.8426 132.743 62.2297 131.292C60.9391 130.165 59.3259 129.842 57.8739 129.842C57.5512 129.842 57.2286 129.681 56.9059 129.52C55.7767 128.232 52.2273 124.687 47.3875 124.687C41.5797 124.687 31.416 127.909 28.6734 138.058C28.5121 138.703 24.6402 154.651 32.3839 155.135C40.2891 155.618 43.3542 151.752 43.1929 148.207C43.1929 148.207 39.3211 141.281 45.9355 143.053C45.9355 143.053 52.7113 144.341 57.3899 141.602C58.0352 141.281 58.6805 141.442 59.0031 142.085C59.9712 143.696 61.7457 146.274 63.5197 144.18C64.1654 143.375 64.8112 142.569 64.9726 141.442C65.134 140.636 64.9726 140.152 64.8112 139.508Z" fill="#170856"/>
<path d="M28.681 166.411C28.681 166.411 32.5529 172.694 38.0381 172.532C43.5233 172.532 43.8459 166.733 43.8459 166.733C43.8459 166.733 54.9775 176.882 54.8162 183.487C54.6549 190.092 52.5576 189.125 51.9123 191.22C51.267 193.475 55.6228 216.996 55.6228 216.996L56.2681 218.445L24.8092 222.795C24.8092 222.795 23.5185 217.8 22.7119 216.19C21.9052 214.579 17.3881 173.177 17.3881 173.177L19.4853 170.922C19.324 171.083 23.0345 166.733 28.681 166.411Z" fill="#FCBE42"/>
<path d="M14.6331 191.544C14.6331 191.544 11.5678 171.085 19.4729 169.957C27.2167 168.991 27.378 175.435 27.5393 184.939C27.862 194.443 27.7005 196.537 27.7005 196.537L15.4397 198.793L14.6331 191.544Z" fill="#F79F03"/>
<path d="M27.3954 196.698C27.5568 196.698 27.7181 196.859 27.7181 197.02L28.3634 204.914C28.3634 206.042 28.5247 207.169 29.6541 206.686C30.2994 206.364 31.106 206.042 32.0739 205.558C35.6231 203.625 46.1094 198.308 49.4973 196.859C50.1427 196.537 50.4654 196.054 50.788 195.41C51.1107 194.442 52.0786 192.993 54.0146 192.348C57.0798 191.543 62.4036 191.543 62.4036 192.026C62.5651 192.348 63.2108 194.926 62.8879 195.893C62.5651 196.698 60.1451 196.054 60.1451 196.054C60.1451 196.054 55.3052 195.248 56.7572 196.859C57.5638 197.826 58.6931 197.987 59.4998 197.987C59.8224 197.987 59.9838 198.308 59.6611 198.631C59.0157 199.114 57.8865 199.759 55.9506 200.082C52.4014 200.564 27.2341 217.158 27.2341 217.158C27.2341 217.158 22.3942 221.024 19.4903 210.874C17.3931 203.142 16.2637 200.403 15.9411 199.437C15.7797 199.276 15.9411 198.953 16.2637 198.953L27.3954 196.698Z" fill="#FEBD96"/>
<path d="M69.1649 207.652L54.8066 213.613L53.3546 204.592L59.1624 204.27L69.1649 207.652Z" fill="#FEBD96"/>
<path d="M79.0043 178.816L101.751 177.527L78.1985 207.33L56.4187 208.136L79.0043 178.816Z" fill="#012D75"/>
<path d="M79.1712 205.236C79.1712 205.236 78.3654 199.759 80.1398 198.953C81.9142 198.149 83.2043 200.082 83.0429 201.048C82.8814 202.176 79.3326 205.881 79.3326 205.881L79.1712 205.236Z" fill="#FEBD96"/>
<path d="M56.1057 218.607L100.471 235.522C100.471 235.522 105.956 236.649 107.409 251.632C108.699 266.614 109.827 316.394 109.827 316.394V318.005L98.8582 318.166L93.3722 265.164L67.2378 233.267L45.942 219.895L56.1057 218.607Z" fill="#DE051F"/>
<path d="M24.3126 221.99L45.7694 220.057L91.102 242.772C91.102 242.772 103.364 250.022 95.4579 263.232C87.5532 276.441 65.7734 316.555 65.7734 316.555L58.1916 310.917L77.5512 256.949C77.5512 256.949 78.0354 254.21 71.5822 253.727C65.6133 253.243 37.0576 250.505 33.3469 250.183C33.0243 250.183 32.7018 250.022 32.379 250.022C30.1205 249.216 21.4087 244.866 24.1513 229.563L24.474 223.119L24.3126 221.99Z" fill="#EE384E"/>
<path d="M109.825 318.168L119.505 323.483C119.989 323.806 120.472 323.967 121.118 324.128C122.087 324.289 124.022 324.771 124.022 326.222C124.022 326.222 124.345 327.994 119.666 327.511C114.988 327.027 100.307 327.188 100.307 327.188C100.307 327.188 98.371 326.706 98.6939 322.516L99.0167 318.327L109.825 318.168Z" fill="#130452"/>
<path d="M65.7776 316.554C65.7776 316.554 65.9377 319.132 68.3578 322.515C69.8107 324.448 71.2622 326.221 72.7137 328.154C73.0366 328.636 73.5209 328.959 73.8438 329.604C74.0052 329.926 74.1666 330.41 74.1666 330.731C74.1666 331.053 74.1666 331.537 73.6823 331.859C73.198 332.181 72.3909 332.02 71.7465 331.859C71.5851 331.859 71.4236 331.698 71.2622 331.698C67.552 330.41 56.2585 321.065 53.8386 319.132C53.5159 318.81 53.3546 318.487 53.3546 318.165C53.3546 317.36 53.5159 315.75 54.484 314.621C55.9359 312.85 58.1945 311.078 58.1945 311.078L65.7776 316.554Z" fill="#130452"/>
</svg>
