<svg width="274" height="212" viewBox="0 0 274 212" fill="none" xmlns="http://www.w3.org/2000/svg">
<path d="M105.44 178.112C105.331 177.993 105.112 177.873 105.002 177.754C104.673 177.515 104.345 177.277 103.906 177.038C103.687 176.918 103.468 176.68 103.249 176.56C102.92 176.321 102.592 176.083 102.263 175.844C102.044 175.725 101.825 175.486 101.606 175.366C101.277 175.128 100.948 174.889 100.62 174.531C100.401 174.411 100.181 174.292 100.072 174.053C99.7432 173.814 99.4146 173.456 99.0859 173.217C98.9763 173.098 98.7572 172.979 98.6476 172.859C98.2094 172.501 97.8807 172.262 97.552 171.904C97.4425 171.785 97.3329 171.785 97.3329 171.665C96.8947 171.307 96.4565 170.949 96.0182 170.471C85.9387 161.756 83.0902 156.026 83.0902 156.026C97.552 89.2877 115.739 76.1551 119.354 74.1255C119.354 73.8867 119.464 73.7673 119.464 73.7673C119.464 73.7673 115.082 70.4245 121.984 65.4102C121.984 65.4102 122.093 65.4102 122.093 65.2908C123.079 64.4551 127.9 62.4255 134.802 60.9928C132.94 57.053 131.515 52.9938 130.529 49.1734C130.091 49.1734 129.653 49.054 129.105 48.8153C128.229 48.3377 126.804 46.3081 126.257 44.7561C125.928 43.9204 125.709 43.0847 125.49 42.3683C125.051 40.2193 124.504 38.6673 126.914 39.1449C127.352 39.2642 127.79 39.503 128.229 39.8612C119.793 32.6979 125.928 23.3857 125.928 23.3857C125.928 13.2377 130.31 10.0142 137.213 4.04484C139.075 2.4928 140.828 1.65709 142.581 1.29892C141.047 1.06015 139.075 0.940757 136.665 0.821369C111.137 -0.730672 59.9731 37.8316 33.898 55.2622C7.82285 72.6928 52.4136 80.3336 52.4136 80.3336C52.4136 80.3336 129.105 82.1245 47.0451 115.911C-35.0149 149.698 15.2729 184.679 18.5597 188.021C21.8465 191.364 23.4899 196.617 8.80888 202.467C-5.87208 208.317 5.63166 210.705 5.63166 210.705C5.63166 210.705 20.6413 210.825 43.101 210.944H104.564C103.687 203.9 104.235 192.081 105.44 178.112Z" fill="#EDEDED"/>
<path d="M164.056 41.2943C165.151 40.6974 166.575 40.3392 166.575 42.2494C166.575 45.4729 164.603 50.2484 162.193 50.8453C161.097 51.0841 160.55 50.8453 160.44 50.3678C159.125 53.83 157.701 57.0535 156.605 59.5607C156.605 59.9188 156.715 60.3964 156.715 60.7545C160.111 61.3515 163.727 62.1872 167.233 63.5005C169.862 64.4556 171.506 65.6494 172.492 66.9627C172.601 67.0821 172.711 67.2015 172.82 67.3209C176.107 65.0525 180.928 63.2617 184.543 68.3954C190.678 76.9913 197.471 82.8413 206.893 89.527C212.262 93.3474 208.865 111.733 202.73 126.657C205.14 134.417 207.551 143.371 209.961 153.519C209.961 153.519 207.222 159.249 197.252 168.204C196.485 168.92 195.609 169.636 194.732 170.353C194.294 170.711 193.856 171.069 193.527 171.427C193.417 171.427 193.417 171.546 193.308 171.546C192.87 171.905 192.431 172.263 191.993 172.621C191.884 172.74 191.884 172.74 191.774 172.86C191.336 173.218 190.898 173.576 190.459 173.934C190.35 173.934 190.35 174.054 190.24 174.054C189.802 174.412 189.254 174.77 188.816 175.128C188.706 175.128 188.706 175.247 188.597 175.247C188.049 175.606 187.611 175.964 187.063 176.441L186.953 176.561C188.159 191.245 188.706 203.781 188.049 210.944H249.074C257.729 208.795 278.655 198.051 273.067 189.932C267.37 181.456 256.305 171.069 257.948 162.592C259.591 154.116 276.464 129.88 272.519 111.256C268.575 92.6311 227.71 78.7821 227.71 69.5892C227.71 60.3964 257.948 29.7137 261.235 23.8637C264.522 18.0137 268.247 -0.968967 248.526 5.71675C235.598 9.89532 198.567 21.1178 169.862 28.4004C169.753 30.3106 169.424 32.6984 168.767 35.0862C167.671 38.6678 165.151 40.578 164.056 41.2943Z" fill="#EDEDED"/>
<path d="M63.5887 106.957C63.5887 106.957 73.8873 106.241 73.5586 118.179C73.3395 129.999 75.6403 132.625 78.1602 135.013C80.68 137.401 85.5006 138.117 84.9528 150.414C84.2955 162.711 81.666 167.367 83.419 173.934C85.172 180.38 88.7874 209.75 83.1999 207.004C77.6124 204.258 73.4491 188.379 72.3535 181.097C71.3675 173.814 67.0946 168.084 63.4792 165.338C59.8637 162.472 56.1387 153.876 59.0968 147.549C62.0549 141.221 61.6167 130.238 58.8777 124.626C56.3578 118.896 56.6865 107.673 63.5887 106.957Z" fill="#023EA1"/>
<path d="M66.1074 122.118L82.2127 210.943" stroke="white" stroke-miterlimit="10" stroke-linecap="round" stroke-linejoin="round"/>
<path d="M78.9277 144.922L73.121 160.681L62.7129 152.085" stroke="white" stroke-miterlimit="10" stroke-linecap="round" stroke-linejoin="round"/>
<path d="M41.4587 137.878C41.4587 137.878 39.8153 127.133 35.6521 127.372C31.5984 127.611 29.7359 139.072 32.4748 145.519C35.2138 151.966 37.9528 151.488 37.5146 156.98C37.0763 162.472 37.405 178.828 41.3492 180.977C45.4029 183.007 46.8271 175.366 50.8808 184.559C54.9345 193.752 53.072 211.182 60.8507 210.705C68.6295 210.227 80.7906 201.87 71.3684 177.993C61.9463 154.115 60.5221 178.47 55.4823 157.935C50.4426 137.401 48.5801 146.832 45.1837 145.997C41.897 145.161 41.4587 137.878 41.4587 137.878Z" fill="#FCBE42"/>
<path d="M46.3867 169.277C46.3867 169.277 59.9721 178.947 71.3663 195.184C82.6509 211.301 81.5553 211.421 81.5553 211.421" stroke="white" stroke-miterlimit="10" stroke-linecap="round" stroke-linejoin="round"/>
<path d="M207.221 210.466C208.864 168.203 235.925 154.592 253.893 150.056V156.741L259.042 148.981C265.397 147.907 269.67 147.907 269.67 147.907C262.22 187.185 249.62 204.258 237.678 210.944L207.221 210.466Z" fill="#023EA1"/>
<path d="M242.059 154.116L233.404 187.903L269.559 148.027" stroke="white" stroke-miterlimit="10"/>
<path d="M262.109 176.322L233.404 187.903" stroke="white" stroke-miterlimit="10"/>
<path d="M239.323 156.503C239.323 156.503 244.91 153.041 242.171 147.788C239.433 142.535 231.106 141.46 228.805 145.758C226.504 150.056 228.586 153.519 224.861 153.757C221.136 153.996 211.166 156.145 212.371 161.637C213.686 167.129 219.383 168.084 216.206 174.412C213.029 180.739 200.977 180.5 206.346 190.409C211.604 200.438 224.642 215.123 233.516 200.08C242.391 185.037 226.285 186.112 235.817 177.038C245.349 167.965 238.337 166.771 236.694 162.353C235.16 158.055 239.323 156.503 239.323 156.503Z" stroke="#EE384E" stroke-miterlimit="10" stroke-linecap="round"/>
<path d="M229.133 161.279C229.133 161.279 226.284 179.545 218.615 193.991C210.946 208.437 207.221 210.228 207.221 210.228" stroke="#EE384E" stroke-miterlimit="10" stroke-linecap="round"/>
<path d="M128.448 40.5781C128.448 40.3394 128.338 40.1006 128.338 39.8618L128.448 40.5781Z" fill="#C5ECFF"/>
<path d="M184.213 146.475L184.323 147.072C184.213 146.953 184.213 146.833 184.104 146.714C184.213 148.147 184.432 149.579 184.542 151.012L186.733 147.191C185.966 147.072 185.09 146.833 184.213 146.475Z" fill="#C5ECFF"/>
<path d="M109.056 144.803C108.837 145.161 108.618 145.4 108.398 145.758L108.727 147.31C108.837 146.475 108.946 145.639 109.056 144.803Z" fill="#C5ECFF"/>
<path d="M184.213 146.474C185.199 146.832 185.966 147.071 186.733 147.071C186.514 146.713 185.419 145.161 183.885 143.012L184.213 146.474Z" fill="#DE051F"/>
<path d="M173.695 73.529C174.243 73.8872 174.9 74.3647 175.777 75.0811C175.777 74.9617 175.777 74.7229 175.886 74.7229L182.35 80.2147C182.35 80.2147 182.131 80.6923 181.802 81.4086C187.39 88.6913 194.95 102.182 202.619 126.537C208.754 111.494 212.15 93.1086 206.782 89.4076C197.36 82.7219 190.567 76.8719 184.432 68.276C180.816 63.1423 175.996 64.9331 172.709 67.2015C175.667 70.4249 174.462 72.6933 173.695 73.529Z" fill="#DE051F"/>
<path d="M158.139 71.2605C158.139 71.0217 158.139 70.9023 158.029 70.6636C158.139 71.0217 158.139 71.2605 158.139 71.2605Z" fill="#F79F03"/>
<path d="M129.545 71.6184C130.092 71.499 130.75 71.3797 131.407 71.3797C132.064 71.2603 132.831 71.1409 133.489 71.1409C134.036 68.8725 134.475 65.5296 134.803 62.1868C134.694 61.948 134.584 61.5898 134.365 61.3511C127.463 62.6643 122.752 64.6939 121.656 65.649C124.176 63.8582 126.915 66.9623 129.545 71.6184Z" fill="#F79F03"/>
<path d="M158.03 70.6633C159.673 70.9021 161.207 71.1409 162.851 71.3797C165.48 66.7235 168.219 63.7388 170.629 65.5297C171.287 66.0072 171.834 66.4848 172.273 66.8429C171.287 65.5297 169.534 64.3358 167.014 63.3807C163.508 62.0674 160.002 61.2317 156.496 60.6348C156.934 63.9776 157.373 67.0817 157.701 68.9919C157.92 69.5889 158.03 70.0664 158.03 70.6633Z" fill="#F79F03"/>
<path d="M156.606 60.6348C156.606 60.2766 156.497 59.9185 156.497 59.4409C156.278 59.7991 156.168 60.1572 156.059 60.5154C156.168 60.6348 156.387 60.6348 156.606 60.6348Z" fill="#FFB07E"/>
<path d="M155.18 62.1868C154.742 63.0225 154.304 63.7388 153.756 64.5746C155.618 65.1715 157.043 66.6042 157.7 69.1113C157.371 67.2011 156.933 64.097 156.495 60.7542C156.276 60.7542 156.057 60.6348 155.837 60.6348C155.618 61.1123 155.399 61.7093 155.18 62.1868Z" fill="#FFB07E"/>
<path d="M133.486 71.0215C133.486 71.0215 135.678 69.4694 138.855 67.9174C137.759 66.7235 136.554 65.2909 135.458 63.2613C135.239 62.9031 135.02 62.4255 134.801 62.0674C134.582 65.4102 134.144 68.6337 133.486 71.0215Z" fill="#FFB07E"/>
<path d="M158.139 71.2598C158.139 71.2598 158.139 71.021 158.029 70.6629C154.414 70.1853 150.799 70.0659 147.512 70.0659C145.868 70.6629 144.225 70.7822 142.472 70.1853C139.295 70.3047 136.337 70.6629 133.598 71.021C133.598 71.3792 133.707 73.0506 134.145 75.319C134.365 76.7516 134.803 78.4231 135.46 80.0945C135.898 81.2884 136.337 82.4822 136.994 83.6761C138.747 87.2578 141.596 90.8394 145.868 93.2271C145.868 93.2271 146.964 92.7496 148.498 91.6751C149.155 91.1975 149.922 90.6006 150.799 90.0037C151.018 89.8843 151.237 89.6455 151.456 89.4067C151.894 89.0486 152.223 88.571 152.661 88.2129C153.099 87.7353 153.428 87.2578 153.866 86.7802C155.071 85.2282 156.167 83.4374 156.934 81.4078C157.372 80.3333 157.701 79.2588 157.92 78.0649C158.139 77.2292 158.249 76.3935 158.249 75.5578C158.249 74.1251 158.249 72.8118 158.139 71.2598Z" fill="#FFB07E"/>
<path d="M119.793 74.6035L122.97 95.7352L128.229 83.4382L119.793 74.6035Z" fill="#FCBE42"/>
<path d="M110.589 156.742C110.589 156.742 110.37 156.622 109.822 156.264C110.37 157.1 110.918 157.935 111.575 158.891C114.643 163.308 118.587 168.561 121.983 173.217C122.312 173.695 122.641 174.172 122.969 174.65C124.065 176.202 125.16 177.515 126.147 178.828C126.256 178.948 126.366 179.186 126.475 179.306C128.885 182.41 130.419 184.44 130.419 184.44C130.419 184.559 130.419 184.678 130.419 184.917C131.624 182.291 132.172 179.186 132.063 175.485V174.889H163.287V175.485C163.287 175.485 163.397 177.873 164.054 180.858C164.383 180.38 164.821 179.783 165.259 179.186C168.984 174.053 176.106 164.263 181.145 156.861L184.432 151.13C184.323 149.698 184.103 148.265 183.994 146.832C183.884 146.713 183.775 146.594 183.775 146.474C172.381 142.057 147.62 119.612 152.55 95.2568L145.977 99.0773L141.923 96.4507L135.569 98.1222L135.35 113.404C135.897 113.881 136.336 116.508 136.116 116.747C135.788 117.105 134.692 117.105 134.035 116.866C133.377 116.627 134.363 114.359 134.802 113.643L134.583 98.4803L123.736 101.226L126.475 119.015C126.475 119.015 114.862 136.326 109.055 144.922C108.946 145.758 108.836 146.594 108.727 147.429L110.589 156.742Z" fill="#FCBE42"/>
<path d="M119.135 74.0063C119.135 74.0063 119.135 74.1257 119.025 74.3645C119.135 74.3645 119.244 74.2451 119.354 74.2451L119.135 74.0063Z" fill="#FCBE42"/>
<path d="M186.843 176.44C186.296 176.798 185.748 177.276 185.2 177.634C181.694 180.141 177.75 182.768 173.148 185.513C172.929 185.633 172.71 185.752 172.491 185.872C171.943 186.23 171.396 186.469 170.957 186.827C170.629 187.065 170.3 187.185 169.971 187.424C169.533 187.662 169.095 187.901 168.547 188.259C168.328 188.379 167.999 188.618 167.78 188.737C168.109 189.214 168.547 189.573 168.876 190.05C171.286 192.438 174.463 193.393 178.188 193.035H178.846V207.481H116.178V193.154H116.725C116.835 193.154 121.436 193.274 125.6 190.647C125.381 190.528 125.271 190.408 125.052 190.289C124.504 190.05 123.956 189.692 123.518 189.453C123.189 189.214 122.751 189.095 122.422 188.856C121.984 188.618 121.436 188.259 120.998 188.021C120.669 187.782 120.231 187.543 119.903 187.424C119.464 187.185 119.026 186.946 118.588 186.588C118.259 186.349 117.821 186.11 117.492 185.872C117.054 185.633 116.616 185.394 116.287 185.155C115.739 184.797 115.301 184.558 114.863 184.2C114.425 183.961 113.986 183.603 113.548 183.364C113 183.006 112.453 182.648 112.014 182.409C111.795 182.29 111.466 182.051 111.247 181.932C110.809 181.693 110.371 181.335 109.933 181.096C109.714 180.857 109.385 180.738 109.166 180.499C108.727 180.26 108.399 180.022 107.961 179.663C107.741 179.425 107.413 179.305 107.194 179.066C106.865 178.828 106.427 178.589 106.098 178.35C105.989 178.231 105.879 178.231 105.769 178.111C104.564 191.96 104.016 203.78 104.674 210.824H188.268C188.596 203.66 188.049 191.125 186.843 176.44Z" fill="#FCBE42"/>
<path d="M168.218 120.688C166.684 118.42 165.698 116.987 165.698 116.987L172.272 74.9624L171.943 75.3206C170.519 77.7083 168.218 80.2155 165.808 82.4838L170.08 88.9308L157.262 92.2736L156.933 113.166C157.481 113.644 157.919 116.271 157.7 116.509C157.372 116.868 156.276 116.868 155.619 116.629C154.961 116.39 155.947 114.122 156.386 113.405L156.057 92.7512L155.18 92.99L153.975 94.3032L152.551 95.1389C147.621 119.494 172.491 141.939 183.775 146.356C181.475 143.013 179.612 139.193 178.078 134.895C174.572 129.761 170.628 124.27 168.218 120.688Z" fill="#FCBE42"/>
<path d="M131.405 71.2598C130.748 71.3792 130.2 71.4985 129.543 71.4985C130.091 71.4985 130.748 71.3792 131.405 71.2598Z" fill="#FCBE42"/>
<path d="M171.831 75.4399L165.367 82.245L165.586 82.6032C168.106 80.3348 170.407 77.8277 171.831 75.4399Z" fill="#FCBE42"/>
<path d="M135.68 91.3184L135.57 98.0041L141.815 96.3326L138.419 94.3031L135.68 91.3184Z" fill="#FCBE42"/>
<path d="M134.472 90.1237H134.582L128.228 83.438L122.969 95.7349L123.736 101.107L134.582 98.2421L134.472 90.1237Z" fill="#FCBE42"/>
<path d="M157.152 90.8393V92.3914L169.971 89.0485L165.698 82.6016C164.493 83.6761 163.397 84.6311 162.192 85.7056L157.152 90.8393Z" fill="#FCBE42"/>
<path d="M155.18 92.8704L156.056 92.751V92.0347L155.18 92.8704Z" fill="#FCBE42"/>
<path d="M136.883 83.7955C136.336 82.6016 135.788 81.4077 135.35 80.2139C135.788 81.2884 136.226 82.6016 136.883 83.7955Z" fill="#FCBE42"/>
<path d="M135.35 80.2155C134.693 78.4246 134.364 76.8726 134.035 75.4399C134.364 76.7532 134.693 78.4246 135.35 80.2155Z" fill="#FCBE42"/>
<path d="M157.81 78.0649C157.591 79.2588 157.262 80.4527 156.824 81.4078C157.153 80.3333 157.482 79.2588 157.81 78.0649Z" fill="#FCBE42"/>
<path d="M165.697 82.6028L165.478 82.2446L162.191 85.7069C163.287 84.6324 164.492 83.6773 165.697 82.6028Z" fill="#FCBE42"/>
<path d="M102.263 175.844C102.044 175.724 101.825 175.486 101.605 175.366C101.825 175.486 102.044 175.605 102.263 175.844Z" fill="#FCBE42"/>
<path d="M104.017 177.039C103.798 176.919 103.578 176.68 103.359 176.561C103.469 176.68 103.688 176.919 104.017 177.039Z" fill="#FCBE42"/>
<path d="M107.851 155.071C105.55 153.639 102.154 151.37 99.6339 149.46C95.4706 146.236 103.359 118.18 108.618 114.957C113.877 111.733 107.851 143.013 107.851 143.013L108.399 145.64C108.618 145.401 108.837 145.043 109.056 144.684C113.219 111.256 118.369 78.066 119.026 74.2456C115.41 76.2752 97.3331 89.2885 82.7617 156.146C82.7617 156.146 85.6103 161.876 95.6897 170.592C98.6478 169.636 102.592 167.607 106.755 163.906C107.193 160.921 107.522 158.056 107.851 155.071Z" fill="#FCBE42"/>
<path d="M97.4437 171.904C97.3342 171.784 97.2246 171.784 97.2246 171.665C97.2246 171.784 97.3342 171.904 97.4437 171.904Z" fill="#FCBE42"/>
<path d="M98.9753 173.336C98.8658 173.217 98.6467 173.097 98.5371 172.978C98.6467 172.978 98.8658 173.097 98.9753 173.336Z" fill="#FCBE42"/>
<path d="M105.002 177.874C105.112 177.993 105.331 178.113 105.44 178.232C105.331 177.993 105.221 177.993 105.002 177.874Z" fill="#FCBE42"/>
<path d="M126.585 179.188C126.475 179.068 126.365 178.829 126.256 178.71C126.365 178.829 126.475 178.949 126.585 179.188Z" fill="#FCBE42"/>
<path d="M117.274 185.752C116.835 185.514 116.397 185.275 116.068 185.036C116.507 185.275 116.835 185.514 117.274 185.752Z" fill="#FCBE42"/>
<path d="M109.603 180.978C109.384 180.739 109.055 180.62 108.836 180.381C109.055 180.62 109.384 180.858 109.603 180.978Z" fill="#FCBE42"/>
<path d="M111.684 158.89C111.026 157.935 110.479 157.099 109.931 156.264C109.493 156.025 108.726 155.547 107.959 155.07C107.63 158.055 107.301 160.92 106.973 163.905C108.397 162.472 110.04 160.8 111.684 158.89Z" fill="#FCBE42"/>
<path d="M107.632 179.665C107.413 179.426 107.084 179.307 106.865 179.068C107.194 179.307 107.413 179.545 107.632 179.665Z" fill="#FCBE42"/>
<path d="M126.477 118.896L123.738 101.108L120.341 101.943L122.971 95.7352L119.793 74.6035L119.355 74.126C119.246 74.126 119.136 74.2454 119.027 74.2454C118.369 78.0658 113.11 111.256 109.057 144.684C114.863 136.208 126.477 118.896 126.477 118.896Z" fill="#FCBE42"/>
<path d="M111.687 182.41C111.468 182.29 111.139 182.052 110.92 181.932C111.139 182.052 111.468 182.171 111.687 182.41Z" fill="#FCBE42"/>
<path d="M122.313 188.738C121.875 188.499 121.327 188.141 120.889 187.902C121.327 188.141 121.765 188.38 122.313 188.738Z" fill="#FCBE42"/>
<path d="M119.791 187.305C119.353 187.067 118.915 186.828 118.477 186.47C118.805 186.709 119.353 186.947 119.791 187.305Z" fill="#FCBE42"/>
<path d="M120.34 101.943L123.736 101.107L122.969 95.7344L120.34 101.943Z" fill="#FCBE42"/>
<path d="M152.441 88.2139C152.003 88.6914 151.675 89.0496 151.236 89.4077C151.565 89.0496 152.003 88.6914 152.441 88.2139Z" fill="#F79F03"/>
<path d="M141.814 96.3319L145.868 98.9584L152.442 95.138C152.551 94.6604 152.661 94.0635 152.77 93.5859L141.814 96.3319Z" fill="#F79F03"/>
<path d="M153.866 94.1829C153.866 94.1829 153.975 93.8247 154.194 93.1084L152.77 93.4665C152.661 93.9441 152.551 94.541 152.441 95.0186L153.866 94.1829Z" fill="#F79F03"/>
<path d="M158.139 71.2593L160.878 75.4379C161.535 74.0052 162.193 72.6919 162.85 71.4981C161.207 71.2593 159.563 71.0205 158.029 70.7817C158.139 70.9011 158.139 71.0205 158.139 71.2593Z" fill="#F79F03"/>
<path d="M131.515 75.5582L133.487 71.0215C132.72 71.1409 132.063 71.2603 131.405 71.2603C130.748 71.3797 130.2 71.499 129.543 71.499C130.2 72.8123 130.858 74.245 131.515 75.5582Z" fill="#F79F03"/>
<path d="M153.207 92.0347C151.563 93.1092 150.577 93.7061 150.577 93.7061L138.416 94.303L141.812 96.452L152.768 93.5867C152.987 92.9898 153.097 92.5122 153.207 92.0347Z" fill="#F79F03"/>
<path d="M154.194 93.1092C154.413 92.5123 154.632 91.7959 154.961 90.8408C154.303 91.199 153.756 91.6765 153.208 91.9153C153.098 92.3929 152.879 92.8704 152.77 93.4673L154.194 93.1092Z" fill="#F79F03"/>
<path d="M138.418 94.3019L150.579 93.7049C150.579 93.7049 151.565 93.108 153.208 92.0335C154.194 88.81 155.728 85.4672 158.029 82.2437C158.905 79.9753 159.892 77.707 160.878 75.4386L158.139 71.26C158.248 72.8121 158.248 74.1253 158.139 75.4386C158.029 76.2743 157.919 77.11 157.81 77.9457C157.591 79.1396 157.262 80.3335 156.824 81.2886C155.947 83.4376 154.852 85.2284 153.756 86.661C153.318 87.1386 152.989 87.6161 152.551 88.0937C152.113 88.5712 151.784 88.9294 151.346 89.2876C151.127 89.5263 150.908 89.6457 150.689 89.8845C149.922 90.6008 149.155 91.1978 148.388 91.556C146.854 92.6304 145.758 93.108 145.758 93.108C141.486 90.8396 138.637 87.258 136.884 83.557C136.336 82.3631 135.788 81.1692 135.35 79.9753C134.693 78.1845 134.364 76.6325 134.035 75.1998C133.597 72.8121 133.488 71.1406 133.488 70.9019L131.516 75.4386C135.46 83.9151 138.418 94.3019 138.418 94.3019Z" fill="#F79F03"/>
<path d="M158.028 82.124C155.836 85.3475 154.193 88.6904 153.207 91.9138C153.755 91.5557 154.303 91.1975 154.96 90.8393C155.727 88.6904 156.713 85.4669 158.028 82.124Z" fill="#F79F03"/>
<path d="M101.605 175.366C101.276 175.127 100.948 174.888 100.619 174.53C100.948 174.769 101.276 175.008 101.605 175.366Z" fill="#FFBF99"/>
<path d="M100.072 174.054C99.7433 173.815 99.4146 173.457 99.0859 173.218C99.3051 173.576 99.6337 173.815 100.072 174.054Z" fill="#FFBF99"/>
<path d="M105.002 177.874C104.673 177.635 104.344 177.396 103.906 177.158C104.344 177.277 104.673 177.516 105.002 177.874Z" fill="#FFBF99"/>
<path d="M98.539 172.858C98.1007 172.5 97.772 172.261 97.4434 171.903C97.772 172.261 98.1007 172.62 98.539 172.858Z" fill="#FFBF99"/>
<path d="M111.686 158.891C114.753 163.308 118.697 168.562 122.094 173.218C118.588 168.562 114.753 163.308 111.686 158.891Z" fill="#FFBF99"/>
<path d="M123.41 189.335C123.081 189.096 122.643 188.977 122.314 188.738C122.643 188.857 122.972 189.096 123.41 189.335Z" fill="#FFBF99"/>
<path d="M106.863 179.187C106.534 178.948 106.096 178.709 105.768 178.471C106.096 178.59 106.534 178.829 106.863 179.187Z" fill="#FFBF99"/>
<path d="M126.255 178.709C125.269 177.515 124.283 176.082 123.078 174.53C124.283 175.963 125.269 177.396 126.255 178.709Z" fill="#FFBF99"/>
<path d="M110.918 181.814C110.48 181.575 110.042 181.217 109.604 180.978C110.042 181.336 110.48 181.575 110.918 181.814Z" fill="#FFBF99"/>
<path d="M108.836 180.501C108.398 180.262 108.069 180.023 107.631 179.665C108.069 179.904 108.398 180.262 108.836 180.501Z" fill="#FFBF99"/>
<path d="M120.889 187.901C120.56 187.662 120.122 187.424 119.793 187.304C120.122 187.424 120.45 187.662 120.889 187.901Z" fill="#FFBF99"/>
<path d="M124.939 190.17C125.159 190.29 125.268 190.409 125.487 190.529C125.378 190.409 125.159 190.29 124.939 190.17Z" fill="#FFBF99"/>
<path d="M118.369 186.469C118.04 186.23 117.602 185.992 117.273 185.753C117.712 185.992 118.04 186.23 118.369 186.469Z" fill="#FFBF99"/>
<path d="M116.069 185.038C115.521 184.679 115.083 184.441 114.645 184.083C115.083 184.441 115.521 184.799 116.069 185.038Z" fill="#FFBF99"/>
<path d="M106.862 163.905C102.699 167.726 98.755 169.636 95.7969 170.591C96.2351 170.949 96.6733 171.307 97.1116 171.785C97.2211 171.904 97.3307 171.904 97.3307 172.024C97.6594 172.382 98.0976 172.621 98.4263 172.979C98.5359 173.098 98.755 173.218 98.8645 173.337C99.1932 173.576 99.5219 173.814 99.8506 174.173C100.07 174.292 100.179 174.411 100.398 174.65C100.727 174.889 101.056 175.128 101.384 175.486C101.604 175.605 101.823 175.844 102.042 175.963C102.37 176.202 102.699 176.441 103.028 176.68C103.247 176.799 103.466 177.038 103.685 177.157C104.014 177.396 104.343 177.635 104.781 177.874C104.89 177.993 105.109 178.112 105.219 178.232C105.876 173.576 106.315 168.8 106.862 163.905Z" fill="#FFBF99"/>
<path d="M128.23 188.141C129.106 187.186 129.873 185.992 130.53 184.678C130.53 184.559 130.53 184.44 130.53 184.201C130.53 184.201 128.997 182.171 126.586 179.067C126.477 178.948 126.367 178.709 126.258 178.59C125.271 177.396 124.285 175.963 123.08 174.411C122.752 173.933 122.423 173.456 122.094 172.978C118.698 168.442 114.754 163.069 111.686 158.652C110.043 160.562 108.509 162.233 106.975 163.666C106.427 168.561 105.989 173.337 105.551 177.993C105.66 178.112 105.77 178.112 105.879 178.231C106.208 178.47 106.646 178.709 106.975 178.948C107.194 179.187 107.523 179.306 107.742 179.545C108.18 179.784 108.509 180.022 108.947 180.38C109.166 180.619 109.495 180.739 109.714 180.977C110.152 181.216 110.591 181.574 111.029 181.813C111.248 181.932 111.577 182.171 111.796 182.291C112.343 182.649 112.891 183.007 113.329 183.246C113.768 183.485 114.206 183.843 114.644 184.081C115.082 184.44 115.63 184.678 116.068 185.037C116.507 185.275 116.835 185.514 117.274 185.753C117.602 185.992 118.041 186.23 118.369 186.469C118.807 186.708 119.246 186.947 119.684 187.305C120.013 187.544 120.451 187.782 120.78 187.902C121.218 188.141 121.766 188.499 122.204 188.738C122.532 188.976 122.861 189.096 123.299 189.335C123.847 189.573 124.395 189.931 124.833 190.17C125.052 190.29 125.271 190.409 125.381 190.528C126.477 189.812 127.463 189.096 128.23 188.141Z" fill="#FFBF99"/>
<path d="M193.196 171.546C192.757 171.905 192.319 172.263 191.881 172.621C192.429 172.263 192.867 171.905 193.196 171.546Z" fill="#FCBE42"/>
<path d="M194.623 170.352C194.185 170.71 193.747 171.068 193.418 171.427C193.856 171.068 194.294 170.71 194.623 170.352Z" fill="#FCBE42"/>
<path d="M192.102 149.459C189.911 151.13 187.062 153.04 184.871 154.473C185.09 156.741 185.309 159.01 185.528 161.159C190.02 165.098 194.074 167.128 197.251 168.083C207.221 159.129 209.96 153.398 209.96 153.398C207.55 143.25 205.14 134.296 202.729 126.536C199.99 133.341 196.594 139.43 193.307 143.25C193.307 146.474 192.979 148.742 192.102 149.459Z" fill="#FCBE42"/>
<path d="M188.487 175.246C187.939 175.604 187.501 175.962 186.953 176.44C187.501 175.962 188.049 175.604 188.487 175.246Z" fill="#FCBE42"/>
<path d="M190.129 173.934C189.691 174.292 189.143 174.65 188.705 175.009C189.253 174.65 189.691 174.292 190.129 173.934Z" fill="#FCBE42"/>
<path d="M173.258 74.0073C173.806 74.2461 174.463 74.4849 175.011 74.7237C175.011 74.7237 175.12 75.7982 175.449 77.7084C175.559 76.3951 175.778 75.5594 175.778 75.0818C174.901 74.3655 174.244 73.8879 173.696 73.5298C173.367 73.7686 173.258 74.0073 173.258 74.0073Z" fill="#FCBE42"/>
<path d="M183.776 143.012C185.31 145.281 186.405 146.833 186.624 147.071C186.624 147.071 185.2 145.042 183.447 141.818V141.938C183.557 142.296 183.666 142.654 183.776 143.012Z" fill="#FCBE42"/>
<path d="M178.406 99.6748C179.064 104.928 179.831 110.658 180.597 116.867C181.255 116.15 182.131 115.553 183.117 115.076C187.39 112.807 192.868 132.745 193.306 143.371C196.593 139.67 199.989 133.462 202.728 126.656C195.059 102.182 187.5 88.8105 181.912 81.5278C180.817 83.9156 178.735 90.2432 178.406 99.6748Z" fill="#FCBE42"/>
<path d="M164.164 180.62C164.493 180.142 164.931 179.545 165.369 178.948C164.821 179.665 164.493 180.142 164.164 180.62Z" fill="#FCBE42"/>
<path d="M185.091 177.754C181.585 180.261 177.531 182.888 173.039 185.634C177.641 182.888 181.585 180.261 185.091 177.754Z" fill="#FCBE42"/>
<path d="M186.845 176.44C186.297 176.798 185.749 177.276 185.201 177.634C185.749 177.276 186.297 176.917 186.845 176.44Z" fill="#FCBE42"/>
<path d="M169.862 187.425C169.424 187.664 168.985 187.902 168.438 188.261C168.985 188.022 169.424 187.664 169.862 187.425Z" fill="#FCBE42"/>
<path d="M172.489 185.872C171.941 186.23 171.393 186.469 170.955 186.827C171.393 186.588 171.941 186.23 172.489 185.872Z" fill="#FCBE42"/>
<path d="M181.146 156.742C182.571 158.413 184.105 159.965 185.419 161.159C185.2 158.891 184.981 156.742 184.762 154.474C182.79 155.787 181.146 156.742 181.146 156.742Z" fill="#FCBE42"/>
<path d="M165.697 117.106C165.697 117.106 166.683 118.538 168.217 120.807C170.627 124.388 174.572 129.88 178.077 134.894C174.681 125.105 173.476 113.166 173.695 100.869C173.914 91.1984 174.9 82.125 175.448 77.7076C175.229 75.7974 175.01 74.7229 175.01 74.7229C174.352 74.4841 173.805 74.3648 173.147 74.126L172.161 75.2005L165.697 117.106Z" fill="#FCBE42"/>
<path d="M178.736 119.492C179.175 118.537 179.832 117.701 180.599 116.866C179.832 110.657 179.065 104.927 178.408 99.6738C178.408 100.032 178.408 100.51 178.408 100.868C178.189 107.195 177.97 112.687 178.736 119.492Z" fill="#FCBE42"/>
<path d="M190.35 173.813C190.24 173.813 190.24 173.933 190.131 173.933C190.24 173.933 190.35 173.813 190.35 173.813Z" fill="#FFBF99"/>
<path d="M191.993 172.62C191.883 172.74 191.883 172.74 191.773 172.859C191.773 172.74 191.883 172.62 191.993 172.62Z" fill="#FFBF99"/>
<path d="M188.705 175.128C188.596 175.128 188.596 175.248 188.486 175.248C188.596 175.128 188.705 175.128 188.705 175.128Z" fill="#FFBF99"/>
<path d="M186.842 176.441L186.951 176.322C186.951 176.441 186.842 176.441 186.842 176.441Z" fill="#FFBF99"/>
<path d="M167.67 188.738C167.889 188.618 168.218 188.38 168.437 188.26C168.218 188.38 167.999 188.499 167.67 188.738Z" fill="#FFBF99"/>
<path d="M165.369 178.949C169.204 173.815 176.216 164.025 181.255 156.623C176.216 164.144 169.094 173.815 165.369 178.949Z" fill="#FFBF99"/>
<path d="M170.957 186.827C170.628 187.065 170.299 187.185 169.971 187.424C170.19 187.304 170.518 187.065 170.957 186.827Z" fill="#FFBF99"/>
<path d="M185.527 161.16C186.075 166.413 186.513 171.547 186.842 176.442L186.952 176.322C187.499 175.964 187.938 175.606 188.485 175.129C188.595 175.129 188.595 175.009 188.705 175.009C189.143 174.651 189.691 174.293 190.129 173.935C190.238 173.935 190.238 173.815 190.348 173.815C190.786 173.457 191.224 173.099 191.663 172.741C191.772 172.621 191.772 172.621 191.882 172.502C192.32 172.144 192.758 171.786 193.197 171.427C193.306 171.427 193.306 171.308 193.416 171.308C193.854 170.95 194.292 170.592 194.621 170.234C195.497 169.517 196.374 168.801 197.141 168.085C194.073 167.13 189.91 165.1 185.527 161.16Z" fill="#FFBF99"/>
<path d="M185.528 161.158C184.104 159.845 182.68 158.412 181.255 156.741C176.325 164.143 169.204 173.813 165.369 179.066C164.931 179.663 164.493 180.26 164.164 180.738C164.712 183.364 165.807 186.349 167.78 188.856C167.999 188.737 168.327 188.498 168.546 188.378C168.985 188.14 169.423 187.901 169.971 187.543C170.299 187.304 170.628 187.185 170.957 186.946C171.505 186.588 172.052 186.349 172.491 185.991C172.71 185.871 172.929 185.752 173.148 185.633C177.64 182.887 181.694 180.26 185.199 177.753C185.747 177.395 186.295 176.917 186.843 176.559C186.405 171.545 185.966 166.411 185.528 161.158Z" fill="#FFBF99"/>
<path d="M158.028 70.6631C157.918 70.0662 157.809 69.5886 157.699 68.9917C157.809 69.8274 157.918 70.305 158.028 70.6631Z" fill="#FFB27D"/>
<path d="M138.855 67.917C135.787 69.469 133.486 71.0211 133.486 71.0211C136.225 70.6629 139.183 70.4241 142.361 70.1854C141.155 69.8272 140.06 68.9915 138.855 67.917Z" fill="#FFB27D"/>
<path d="M147.512 70.0663C150.908 70.0663 154.414 70.1857 158.029 70.6632C157.92 70.3051 157.92 69.7081 157.701 68.9918C157.043 66.4847 155.619 65.052 153.757 64.4551C152.223 66.9622 149.922 69.1112 147.512 70.0663Z" fill="#FFB27D"/>
<path d="M134.801 113.403C135.02 113.165 135.13 113.165 135.24 113.284L135.459 98.0024L134.473 98.2412L134.801 113.403Z" fill="white"/>
<path d="M134.582 90.1235H134.473L134.582 98.2419L135.568 98.0031L135.678 91.3174L134.582 90.1235Z" fill="white"/>
<path d="M134.803 114.001V113.285C134.365 114.001 133.379 116.27 134.036 116.509C134.693 116.747 135.789 116.747 136.118 116.389C136.337 116.15 135.899 113.524 135.351 113.046V113.763H134.803V114.001Z" fill="#F79F03"/>
<path d="M134.803 113.404V114.12H135.241V113.404C135.131 113.165 134.912 113.165 134.803 113.404Z" fill="#F79F03"/>
<path d="M156.276 113.404C156.495 113.165 156.605 113.165 156.714 113.284L157.043 92.3916L155.947 92.6304L156.276 113.404Z" fill="white"/>
<path d="M156.059 92.0347V92.751L157.154 92.3929V90.8408L156.059 92.0347Z" fill="white"/>
<path d="M156.276 114.001V113.285C155.837 114.001 154.851 116.27 155.509 116.509C156.166 116.747 157.262 116.747 157.59 116.389C157.809 116.15 157.371 113.524 156.823 113.046V113.763H156.276V114.001Z" fill="#F79F03"/>
<path d="M156.275 113.404V114.12H156.714V113.404C156.604 113.165 156.495 113.165 156.275 113.404Z" fill="#F79F03"/>
<path d="M121.765 65.5288C121.765 65.5288 121.655 65.5288 121.655 65.6482C114.753 70.6625 119.135 74.0053 119.135 74.0053C119.135 74.0053 121.655 73.289 125.709 72.3339L121.765 65.5288Z" fill="#F79F03"/>
<path d="M125.82 72.3346C126.367 72.2153 126.915 72.0959 127.463 71.9765C128.12 71.8571 128.778 71.7377 129.435 71.6183C126.806 66.9622 124.067 63.8581 121.656 65.5295L125.82 72.3346Z" fill="#F79F03"/>
<path d="M119.353 74.1263C119.572 74.0069 119.682 74.0069 119.682 74.0069L119.791 74.6038L128.228 83.4385L129.98 79.4987L125.817 72.3354C121.654 73.1712 119.244 74.0069 119.353 74.1263Z" fill="#F79F03"/>
<path d="M125.818 72.3354L129.872 79.4987V79.3793L125.818 72.3354Z" fill="#F79F03"/>
<path d="M135.679 90.1226V91.3165L138.418 94.3012L129.872 79.4971L128.229 83.4369L134.583 90.1226H135.679Z" fill="#F79F03"/>
<path d="M129.873 79.3784V79.4978L138.419 94.3019L129.873 79.3784Z" fill="#F79F03"/>
<path d="M119.355 74.1257L119.794 74.6033L119.684 74.0063C119.684 74.0063 119.575 74.1257 119.355 74.1257Z" fill="#F79F03"/>
<path d="M131.515 75.5575C130.858 74.1248 130.201 72.8116 129.543 71.6177C128.886 71.7371 128.119 71.8565 127.571 71.9758C127.023 72.0952 126.366 72.2146 125.928 72.334L129.981 79.3779L131.515 75.5575Z" fill="#F79F03"/>
<path d="M129.873 79.378L138.419 94.1821C138.419 94.1821 135.351 83.9148 131.516 75.5576L129.873 79.378Z" fill="#F79F03"/>
<path d="M135.68 90.1235H134.584L135.68 91.3174V90.1235Z" fill="#F79F03"/>
<path d="M172.71 67.3196C172.6 67.2002 172.49 67.0808 172.381 66.9614C172.381 67.0808 172.49 67.2002 172.71 67.3196Z" fill="#F79F03"/>
<path d="M172.93 73.1713C173.15 73.2907 173.369 73.4101 173.588 73.5295C174.355 72.6937 175.56 70.4254 172.602 67.3213C172.602 67.3213 172.492 67.3213 172.492 67.4407C173.697 69.1121 173.697 71.0223 172.93 73.1713Z" fill="#F79F03"/>
<path d="M162.959 71.3798C163.178 71.3798 163.397 71.4991 163.726 71.4991C164.821 71.7379 165.917 71.9767 167.122 72.2155C167.67 71.7379 168.327 71.141 168.985 70.6634C168.985 70.6634 170.519 68.8726 172.819 67.3206C172.71 67.2012 172.6 67.0818 172.491 66.9624C172.052 66.4849 171.505 66.1267 170.847 65.6491C168.327 63.7389 165.479 66.843 162.959 71.3798Z" fill="#F79F03"/>
<path d="M172.492 72.9325C172.492 72.9325 172.601 72.9325 172.93 73.1713C173.697 71.1417 173.697 69.1121 172.601 67.3213C170.41 68.8733 168.767 70.6642 168.767 70.6642C168.109 71.1417 167.562 71.7386 166.904 72.2162C168.657 72.6937 170.52 73.1713 172.273 73.6488L172.492 72.9325Z" fill="#F79F03"/>
<path d="M153.865 94.1824L155.18 92.8691L154.632 93.1079L153.865 94.1824Z" fill="#F79F03"/>
<path d="M172.27 74.7222C172.161 74.9609 172.051 75.1997 171.832 75.4385L172.161 75.0803L172.27 74.7222Z" fill="#F79F03"/>
<path d="M161.973 77.1102C163.397 75.4388 165.04 73.8868 166.903 72.2153C165.807 71.9766 164.712 71.7378 163.506 71.499L161.973 77.1102Z" fill="#F79F03"/>
<path d="M165.371 82.2446L171.835 75.4395C171.944 75.2008 172.054 74.962 172.273 74.7232L172.383 73.7681C170.63 73.1712 168.767 72.6936 167.014 72.3354C165.152 73.8875 163.508 75.5589 162.084 77.2304L165.371 82.2446Z" fill="#F79F03"/>
<path d="M155.948 90.9585L154.633 93.1075L155.181 92.8687L156.057 92.033L155.948 90.9585Z" fill="#F79F03"/>
<path d="M157.153 90.1237V90.84L162.084 85.5869C160.221 87.0196 158.468 88.4522 156.825 89.5267L156.496 90.0043L157.153 90.1237Z" fill="#F79F03"/>
<path d="M161.97 77.1104L161.861 77.229C161.97 77.229 161.97 77.1104 161.97 77.1104Z" fill="#F79F03"/>
<path d="M161.864 77.2298L159.454 85.3482L156.824 89.6461C158.468 88.4523 160.33 87.139 162.083 85.7063L165.37 82.2441L161.974 77.2298C161.974 77.1104 161.974 77.2298 161.864 77.2298Z" fill="#F79F03"/>
<path d="M154.194 93.1077C153.975 93.824 153.865 94.1822 153.865 94.1822L154.632 92.9883L154.194 93.1077Z" fill="#F79F03"/>
<path d="M161.973 76.9906L163.616 71.4988C163.397 71.4988 163.178 71.3794 162.849 71.3794C162.192 72.5733 161.425 74.0059 160.877 75.3192L161.973 76.9906Z" fill="#F79F03"/>
<path d="M155.948 90.959V90.2427C155.62 90.4815 155.291 90.7202 154.962 90.959C154.634 91.9141 154.414 92.6304 154.195 93.2274L154.634 93.108L155.948 90.959Z" fill="#F79F03"/>
<path d="M156.826 89.6465C156.606 89.8853 156.278 90.0047 156.059 90.124H156.497L156.826 89.6465Z" fill="#F79F03"/>
<path d="M161.973 76.9903L160.878 75.3188C159.892 77.4678 158.906 79.8556 158.029 82.1239C159.125 80.4525 160.44 78.7811 161.864 77.2291L161.973 76.9903Z" fill="#F79F03"/>
<path d="M155.947 90.2428C156.276 90.004 156.495 89.8846 156.714 89.6458L159.343 85.3479L161.754 77.2295C160.33 78.9009 159.015 80.453 157.919 82.1244C156.605 85.4672 155.618 88.5713 154.852 90.8397C155.29 90.7203 155.618 90.4815 155.947 90.2428Z" fill="#F79F03"/>
<path d="M173.147 74.0056C173.257 74.0056 173.367 73.7669 173.586 73.5281C173.257 73.4087 173.038 73.2893 172.928 73.1699C172.819 73.4087 172.709 73.6475 172.6 73.8862C172.819 73.8862 173.038 74.0056 173.147 74.0056Z" fill="#F79F03"/>
<path d="M172.381 73.7674C172.49 73.7674 172.6 73.8867 172.71 73.8867C172.819 73.648 172.929 73.4092 173.038 73.1704C172.71 73.051 172.6 72.9316 172.6 72.9316L172.381 73.7674Z" fill="#F79F03"/>
<path d="M173.148 74.0051C172.929 74.0051 172.819 73.8857 172.6 73.8857C172.491 74.2439 172.272 74.4827 172.162 74.8408V75.199L173.148 74.0051Z" fill="#F79F03"/>
<path d="M172.381 73.7681L172.271 74.7232C172.381 74.365 172.6 74.1262 172.71 73.7681C172.6 73.7681 172.491 73.7681 172.381 73.7681Z" fill="#F79F03"/>
<path d="M156.495 90.1235L155.947 90.9592L156.057 92.0337L157.152 90.8399V90.1235H156.495Z" fill="#F79F03"/>
<path d="M156.497 90.1235H156.059V90.8399L156.497 90.1235Z" fill="#F79F03"/>
<path d="M155.947 90.1235C155.947 90.2439 156.058 90.1235 155.947 90.1235V90.1235Z" fill="#F79F03"/>
<path d="M163.616 190.887C163.616 190.887 162.849 187.663 162.63 182.53C162.63 182.53 162.958 182.052 163.506 181.336C163.506 181.336 163.506 181.336 163.506 181.216C163.616 180.977 163.835 180.858 163.944 180.619C163.287 177.635 163.178 175.366 163.178 175.247V174.65H131.953V175.247C132.063 178.948 131.515 182.052 130.31 184.678C130.31 185.156 130.31 185.514 130.2 185.992C130.2 186.35 130.2 186.708 130.091 187.066C130.091 187.186 130.091 187.305 130.091 187.305C129.871 190.648 129.433 192.677 129.433 192.677C128.118 191.961 126.913 191.364 125.708 190.767C125.489 190.648 125.38 190.648 125.16 190.528C120.997 193.155 116.286 193.036 116.286 193.036H115.738V207.362H178.406V192.916H177.749C174.024 193.274 170.847 192.2 168.436 189.932C167.998 189.573 167.669 189.096 167.341 188.618C167.122 188.738 166.793 188.857 166.574 189.096C165.917 189.693 164.821 190.29 163.616 190.887Z" fill="#F79F03"/>
<path d="M130.528 185.992C130.528 186.35 130.528 186.709 130.418 187.067C130.418 186.709 130.418 186.35 130.528 185.992Z" fill="#F79F03"/>
<path d="M126.694 191.125C126.475 191.005 126.256 190.886 126.037 190.766C127.242 191.363 128.447 192.08 129.762 192.677C129.762 192.677 130.2 190.647 130.419 187.304C129.981 187.901 129.543 188.498 129.105 188.976C128.338 189.811 127.571 190.528 126.694 191.125Z" fill="#F79F03"/>
<path d="M125.49 190.529C125.6 190.648 125.819 190.648 126.038 190.768C125.819 190.648 125.709 190.529 125.49 190.529Z" fill="#F79F03"/>
<path d="M128.229 188.141C127.353 189.096 126.476 189.812 125.49 190.409C125.709 190.529 125.819 190.529 126.038 190.648C126.257 190.767 126.476 190.887 126.695 191.006C127.462 190.409 128.339 189.693 128.996 188.977C129.434 188.499 129.873 187.902 130.311 187.305C130.311 187.186 130.311 187.066 130.311 187.066C130.311 186.708 130.311 186.35 130.42 185.992C130.42 185.634 130.42 185.156 130.53 184.679C129.982 185.992 129.215 187.186 128.229 188.141Z" fill="#F79F03"/>
<path d="M163.615 181.217C163.725 180.978 163.944 180.859 164.053 180.62C163.944 180.859 163.834 181.098 163.615 181.217Z" fill="#F79F03"/>
<path d="M163.288 181.814C163.398 181.695 163.507 181.456 163.617 181.336C163.069 182.172 162.74 182.53 162.74 182.53C162.959 187.664 163.726 190.887 163.726 190.887C164.822 190.291 165.917 189.694 167.013 189.097C166.903 189.097 166.794 189.216 166.794 189.216C164.931 186.948 163.836 184.321 163.288 181.814Z" fill="#F79F03"/>
<path d="M166.904 189.097C167.123 188.977 167.452 188.858 167.671 188.619C167.452 188.858 167.233 188.977 166.904 189.097Z" fill="#F79F03"/>
<path d="M163.618 181.336C163.508 181.575 163.399 181.694 163.289 181.814C163.946 184.202 165.042 186.947 166.685 189.216C166.795 189.216 166.905 189.096 166.905 189.096C167.124 188.977 167.452 188.858 167.671 188.619C165.809 186.231 164.713 183.127 164.056 180.5C163.946 180.859 163.837 181.097 163.618 181.336Z" fill="#F79F03"/>
<path d="M186.625 147.071L184.434 150.892C184.434 151.13 184.434 151.25 184.543 151.489C186.077 149.101 186.953 147.429 186.625 147.071Z" fill="#F79F03"/>
<path d="M184.543 151.609C184.543 151.37 184.543 151.25 184.433 151.012L181.146 156.742C182.461 154.832 183.557 153.041 184.543 151.609Z" fill="#F79F03"/>
<path d="M186.625 147.072C186.844 147.43 185.967 149.101 184.434 151.489C184.543 152.444 184.653 153.399 184.762 154.354C187.063 152.922 189.912 151.011 191.993 149.34C192.979 148.624 193.198 146.236 193.089 143.132C191.007 145.878 188.706 147.31 186.625 147.072Z" fill="#F79F03"/>
<path d="M186.624 147.072C188.705 147.311 190.896 145.759 193.197 143.251C192.759 132.626 187.281 112.688 183.008 114.957C182.022 115.434 181.146 116.15 180.488 116.747C181.474 124.746 182.46 133.223 183.446 141.819C185.199 145.042 186.624 147.072 186.624 147.072Z" fill="#F79F03"/>
<path d="M181.146 156.743C181.146 156.743 182.68 155.787 184.762 154.474C184.652 153.519 184.543 152.564 184.433 151.609C183.557 153.042 182.461 154.832 181.146 156.743Z" fill="#F79F03"/>
<path d="M178.736 119.493C179.394 125.462 180.708 132.506 183.447 141.818C183.447 141.818 183.447 141.818 183.447 141.938C182.461 133.342 181.475 124.865 180.489 116.866C179.722 117.583 179.175 118.538 178.736 119.493Z" fill="#F79F03"/>
<path d="M108.07 153.518C108.289 151.488 108.508 149.339 108.837 147.19L108.508 145.638C107.193 147.668 106.207 148.981 105.988 149.339C105.769 149.697 106.536 151.249 108.07 153.518Z" fill="#F79F03"/>
<path d="M108.835 147.191C108.616 149.34 108.287 151.37 108.068 153.519C108.616 154.355 109.164 155.31 109.931 156.265C110.369 156.504 110.698 156.742 110.698 156.742L108.835 147.191Z" fill="#F79F03"/>
<path d="M105.989 149.34C106.208 148.982 107.194 147.668 108.509 145.639L107.961 143.012C107.961 143.012 113.987 111.733 108.728 114.956C103.469 118.18 95.5806 146.236 99.7438 149.459C102.154 151.37 105.55 153.518 107.961 155.071C108.07 154.593 108.07 154.115 108.18 153.518C106.537 151.25 105.77 149.698 105.989 149.34Z" fill="#F79F03"/>
<path d="M108.071 153.519C107.961 153.996 107.961 154.474 107.852 155.071C108.728 155.548 109.385 156.026 109.824 156.264C109.166 155.309 108.618 154.354 108.071 153.519Z" fill="#F79F03"/>
<path d="M184.213 146.474C184.104 146.474 184.104 146.474 183.994 146.355C183.994 146.474 183.994 146.594 183.994 146.594C184.104 146.713 184.104 146.833 184.213 146.952V146.474Z" fill="#DE051F"/>
<path d="M184.214 146.475L183.776 143.013C183.666 142.894 183.666 142.774 183.557 142.655C183.666 143.849 183.776 145.162 183.995 146.356C183.995 146.475 184.104 146.475 184.214 146.475Z" fill="#DE051F"/>
<path d="M181.803 81.4079C182.132 80.6916 182.351 80.214 182.351 80.214L175.887 74.7222C175.887 74.7222 175.887 74.8416 175.777 75.0803C177.311 76.2742 179.393 78.3038 181.803 81.4079Z" fill="#DE051F"/>
<path d="M183.777 146.355C183.887 146.474 183.996 146.594 183.996 146.713C183.996 146.594 183.996 146.474 183.996 146.474C183.887 146.355 183.777 146.355 183.777 146.355Z" fill="#DE051F"/>
<path d="M183.556 142.654C182.022 140.505 180.05 137.759 178.078 134.774C179.502 139.072 181.474 142.893 183.775 146.236C183.885 146.236 183.885 146.355 183.994 146.355C183.885 145.161 183.666 143.967 183.556 142.654Z" fill="#DE051F"/>
<path d="M178.409 99.674C178.738 90.2423 180.929 83.9148 181.915 81.527C179.505 78.4229 177.423 76.3933 175.889 75.0801C175.78 75.5576 175.67 76.3933 175.561 77.7066C175.999 81.6464 177.094 89.526 178.409 99.674Z" fill="#DE051F"/>
<path d="M183.776 143.012C183.666 142.654 183.557 142.295 183.447 142.057C183.447 142.295 183.447 142.534 183.557 142.773C183.666 142.773 183.666 142.892 183.776 143.012Z" fill="#DE051F"/>
<path d="M173.695 100.868C173.367 113.164 174.681 125.103 178.078 134.893C180.159 137.758 182.022 140.624 183.556 142.773C183.556 142.534 183.556 142.295 183.446 142.056V141.937C180.159 135.968 175.777 126.058 178.735 119.611C177.968 112.806 178.187 107.314 178.297 100.987C178.297 100.509 178.297 100.151 178.297 99.793C176.982 89.7645 175.887 81.8849 175.339 77.8257C174.901 82.1236 173.914 91.0777 173.695 100.868Z" fill="#DE051F"/>
<path d="M183.448 141.82C180.709 132.388 179.394 125.464 178.737 119.494C175.779 125.941 180.052 135.85 183.448 141.82Z" fill="#DE051F"/>
<path d="M161.535 30.5484C162.959 30.1902 164.493 29.8321 165.918 29.4739C166.027 28.9964 166.027 28.6382 166.027 28.6382C166.027 28.6382 164.712 29.5933 161.535 30.5484Z" fill="#FFBF99"/>
<path d="M137.211 30.1914C135.02 32.5792 132.829 33.8924 131.186 34.4894C132.5 34.9669 134.144 35.2057 136.225 35.0863C140.498 34.9669 148.386 33.5343 158.247 31.2659C157.151 31.5047 155.946 31.6241 154.522 31.7434C146.853 32.5792 137.211 30.1914 137.211 30.1914Z" fill="#FFBF99"/>
<path d="M135.57 50.368C135.57 50.368 158.249 38.071 156.386 45.1149C155.51 48.3384 155.838 54.1884 156.386 59.4415C157.482 56.9343 158.906 53.8302 160.221 50.2486C160.001 49.6516 160.33 48.6965 160.549 47.5027C160.988 45.3537 162.521 42.1302 162.521 42.1302C162.521 42.1302 162.85 41.8914 163.398 41.5333H163.288C164.384 39.1455 165.589 31.7435 165.918 29.2363C164.384 29.5945 162.96 29.9527 161.535 30.3108C160.549 30.5496 159.454 30.9078 158.139 31.1465C148.279 33.4149 140.39 34.9669 136.118 34.9669C134.036 34.9669 132.393 34.7282 131.078 34.37C129.106 35.0863 127.791 34.9669 127.791 34.9669L128.229 39.7425C128.229 39.9812 128.339 40.22 128.339 40.4588C129.873 42.2496 130.968 45.4731 130.968 47.8608C130.968 48.8159 130.64 49.1741 130.092 49.2935C131.078 53.1139 132.502 57.2925 134.365 61.1129C134.474 61.1129 134.693 60.9935 134.803 60.9935C135.46 55.621 135.57 50.368 135.57 50.368Z" fill="#FFBF99"/>
<path d="M134.911 61.1123C134.801 61.1123 134.582 61.2317 134.473 61.2317C134.582 61.4705 134.692 61.8286 134.911 62.0674C134.911 61.7092 134.911 61.4705 134.911 61.1123Z" fill="#FFBF99"/>
<path d="M156.384 45.2335C158.246 38.1896 135.568 50.4865 135.568 50.4865C135.568 50.4865 135.458 55.7396 134.91 61.2314C140.826 60.157 148.167 59.56 155.946 60.6345C156.055 60.2763 156.274 59.9182 156.384 59.56C155.836 54.1876 155.507 48.4569 156.384 45.2335Z" fill="#FFBF99"/>
<path d="M147.51 70.0659C145.757 70.0659 144.114 70.0659 142.471 70.1853C144.114 70.9016 145.867 70.7822 147.51 70.0659Z" fill="#FFBF99"/>
<path d="M138.854 67.9174C143.346 65.649 149.591 63.1419 153.864 64.5745C154.412 63.7388 154.85 63.0225 155.288 62.1867C155.507 61.7092 155.726 61.2317 156.055 60.6347C148.276 59.5602 140.936 60.0378 135.02 61.2317C135.02 61.5898 135.02 61.8286 134.91 62.1867C135.129 62.5449 135.348 63.0225 135.568 63.3806C136.554 65.1714 137.759 66.7235 138.854 67.9174Z" fill="#FFBF99"/>
<path d="M138.857 67.9173C140.063 69.1112 141.268 69.8275 142.363 70.305C144.007 70.1856 145.65 70.1856 147.403 70.1856C149.923 69.2305 152.114 67.0816 153.758 64.5744C149.594 63.0224 143.349 65.5295 138.857 67.9173Z" fill="#FFBF99"/>
<path d="M160.33 50.3678C160.44 50.8453 160.987 51.0841 162.083 50.8453C164.493 50.3678 166.465 45.4729 166.465 42.2494C166.465 40.3392 165.151 40.6973 163.946 41.2943C163.726 41.4137 163.507 41.5331 163.398 41.5331C163.398 41.5331 163.398 41.5331 163.288 41.5331C162.521 44.6371 161.426 47.6218 160.33 50.3678Z" fill="#FFBF99"/>
<path d="M162.521 42.2493C162.521 42.2493 161.097 45.4728 160.549 47.6217C160.33 48.8156 160.002 49.7707 160.221 50.3677C161.316 47.5024 162.412 44.5177 163.398 41.6523C162.96 42.0105 162.521 42.2493 162.521 42.2493Z" fill="#FFBF99"/>
<path d="M128.011 40.1C127.901 40.1 127.901 40.1 128.011 40.1C127.572 39.7418 127.134 39.503 126.696 39.3836C124.286 38.9061 124.724 40.4581 125.272 42.6071C125.491 43.3234 125.71 44.1592 126.038 44.9949C126.586 46.5469 128.011 48.5765 128.887 49.0541C129.325 49.2928 129.873 49.4122 130.311 49.4122C129.435 46.1887 128.887 43.2041 128.558 40.5775C128.23 40.3387 128.12 40.2194 128.011 40.1Z" fill="#FFBF99"/>
<path d="M131.077 47.9797C131.077 45.5919 129.981 42.2491 128.447 40.5776C128.776 43.2042 129.433 46.1889 130.2 49.4123C130.638 49.2929 131.077 48.9348 131.077 47.9797Z" fill="#FFBF99"/>
<path d="M132.83 15.1477C131.406 17.1773 124.832 26.9671 127.9 31.9814L136.884 18.013C136.884 18.013 163.945 20.6395 165.917 26.6089C166.136 27.3252 166.246 28.161 166.136 29.2354C167.341 28.9967 168.547 28.6385 169.752 28.2803C169.861 26.3701 169.752 24.9375 169.752 24.9375C169.752 24.9375 175.12 20.162 176.654 14.7895C176.654 14.7895 161.863 11.0885 157.481 7.86502C153.099 4.64155 150.579 2.49257 150.579 2.49257C150.579 2.49257 146.854 0.224206 142.143 1.2987C157.7 3.32829 137.87 8.1038 132.83 15.1477Z" fill="#170856"/>
<path d="M163.396 41.6519C163.616 41.5326 163.835 41.4132 163.944 41.2938C165.149 40.5775 167.56 38.6673 168.655 35.0856C169.422 32.6979 169.641 30.3101 169.751 28.3999C168.546 28.7581 167.341 28.9968 166.135 29.355C166.135 32.4591 165.04 36.8764 163.396 41.6519Z" fill="#170856"/>
<path d="M125.6 23.5047C125.6 23.5047 119.464 32.817 127.901 39.9802C127.901 39.9802 127.901 39.9802 128.01 40.0996C128.12 40.219 128.229 40.3384 128.339 40.4578L128.229 39.8608C127.681 35.5629 127.572 32.6976 127.572 32.6976L127.901 32.1006C124.833 26.967 131.406 17.1772 132.831 15.267C137.761 8.10369 157.701 3.44756 142.253 1.41797C140.609 1.77613 138.747 2.61185 136.884 4.16389C130.092 10.1333 125.6 13.3568 125.6 23.5047Z" fill="#170856"/>
<path d="M131.187 34.4892C132.83 33.8923 135.022 32.6984 137.213 30.1912C137.213 30.1912 146.854 32.579 154.414 31.7433C155.728 31.6239 157.043 31.3851 158.139 31.2657C159.234 31.027 160.439 30.7882 161.535 30.43C164.603 29.4749 166.027 28.5198 166.027 28.5198C166.027 28.5198 166.027 28.878 165.917 29.3555C166.027 29.3555 166.136 29.3555 166.246 29.2361C166.246 28.1616 166.246 27.3259 166.027 26.6096C164.055 20.7596 136.994 18.0137 136.994 18.0137L128.01 32.1014C128.558 33.0565 129.653 34.0116 131.187 34.4892Z" fill="#170856"/>
<path d="M131.186 34.4898C129.652 34.0123 128.666 33.1765 128.008 32.1021L127.68 32.699C127.68 32.699 127.789 35.5643 128.337 39.8623L127.899 35.0867C127.899 35.0867 129.214 35.2061 131.186 34.4898Z" fill="#170856"/>
<path d="M161.533 30.5493C160.328 30.7881 159.232 31.1463 158.137 31.385C159.451 31.0269 160.547 30.7881 161.533 30.5493Z" fill="#170856"/>
<path d="M163.396 41.6527C165.04 36.8772 166.135 32.3404 166.245 29.2363C166.135 29.2363 166.026 29.2363 165.916 29.3557C165.588 31.8629 164.492 39.2649 163.396 41.6527Z" fill="#170856"/>
<path d="M163.508 41.6509C163.617 41.6509 163.836 41.5315 164.056 41.4121C163.836 41.4121 163.617 41.5315 163.508 41.6509Z" fill="#170856"/>
</svg>
