<svg width="300" height="250" viewBox="0 0 300 250" fill="none" xmlns="http://www.w3.org/2000/svg">
<path d="M15.3785 189.01C15.9191 189.952 16.4597 192.88 16.6759 195.286C17.3246 207.419 17.4327 218.611 17.1084 228.967C17.5408 228.862 18.0814 228.862 18.5139 228.757C19.8112 228.548 21.1086 228.339 22.5141 228.13C34.1905 225.933 45.4345 221.226 57.1109 220.913C57.1109 221.645 57.1109 222.377 57.1109 223.109L61.8679 224.469C61.8679 224.469 100.913 226.456 105.237 228.967C101.13 221.017 104.913 223.318 105.237 223.423C109.67 224.678 113.59 217.775 114.455 223.423C114.455 223.632 114.455 223.841 114.455 224.051L181.362 232C177.254 225.41 200.903 231.372 200.903 231.372L236.797 223.109C236.797 223.109 245.014 222.377 253.339 221.645C252.69 207.315 253.447 192.985 255.609 178.55C255.934 176.249 257.231 173.634 258.42 173.007C266.096 168.823 266.899 178.55 277.922 178.55C290.519 184.075 287.558 150.164 277.922 146.343C283.219 138.498 279.303 131.136 270.762 129.149C262.221 127.161 233.337 120.866 251.5 114.277C269.771 107.582 277.015 90.3236 274.961 87.6041C243.468 90.9388 254.82 55.3337 243.468 58.89C232.116 62.4463 216.688 84.7257 215.066 78.4498C213.444 72.174 211.39 60.459 193.227 58.89C174.956 57.321 168.469 74.9981 153.873 80.4372C139.278 85.8763 130.737 78.1361 130.737 69.4544C130.737 60.8774 162.847 40.7945 135.277 43.4095C107.708 46.0244 28.9991 88.1011 17.1065 104C8.12891 123.5 26.1289 132.5 26.1289 132.5C26.1289 132.5 15.5948 149.263 19.595 162.756C21.6492 169.659 17.5408 179.073 13 186.604C13.8649 187.023 14.7298 187.86 15.3785 189.01Z" fill="#EDEDED"/>
<path d="M56.4581 191.814C56.4581 191.814 54.2161 190.87 54.3341 188.274C54.5111 185.678 55.8681 183.849 53.0951 184.557C50.3221 185.324 49.3781 185.619 47.3721 185.206C45.3661 184.793 43.7141 183.967 44.5401 186.563C45.4251 189.159 46.3691 191.342 44.3041 191.755C42.2391 192.168 39.9971 190.634 39.7611 194.705C39.5251 198.776 42.7701 203.378 48.0801 203.555C53.3901 203.732 55.7501 201.549 55.7501 201.549C55.7501 201.549 57.1661 199.543 54.9241 199.012C52.6821 198.54 50.4401 197.596 51.5611 196.534C52.6821 195.472 56.3991 195.413 56.3991 195.413C56.3991 195.413 61.0601 194.469 56.4581 191.814Z" fill="#649EEA"/>
<path d="M32.1475 192.463C32.5015 189.867 32.2065 187.979 27.4275 187.271C22.5895 186.563 19.8165 189.454 19.5215 192.463C19.2265 195.413 23.4155 196.534 23.4155 196.534C23.4155 196.534 26.3655 197.36 24.8905 199.956C23.3565 202.552 22.7075 205.089 26.1295 205.443C29.5515 205.797 33.3275 204.912 35.3925 203.555C37.4575 202.139 39.6405 198.658 37.2215 196.77C37.2215 196.77 36.5725 196.298 34.2715 196.18C31.9115 196.062 32.1475 192.463 32.1475 192.463Z" fill="#023EA1"/>
<path d="M49.1445 192.05C49.1445 192.05 45.1325 201.136 44.6015 207.272" stroke="#023EA1" stroke-width="0.54679" stroke-miterlimit="10"/>
<path d="M26.8418 193.525C26.8418 193.525 33.9218 204.086 35.6328 207.567" stroke="#649EEA" stroke-width="0.54679" stroke-miterlimit="10"/>
<path d="M47.0779 206.564H30.7939C30.7939 206.564 29.0239 206.682 29.1419 209.101C29.2599 211.343 32.0919 210.871 33.5669 210.871C35.0419 210.871 47.3729 210.871 47.3729 210.871C47.3729 210.871 49.3789 211.225 49.3789 208.924C49.3789 206.682 48.6709 206.564 47.0779 206.564Z" fill="#0054A5"/>
<path d="M47.3711 210.871L44.8931 225.267H33.9781L32.1491 214.47L47.3711 210.871Z" fill="#0054A5"/>
<path d="M47.3711 210.871L32.1491 214.47L31.5591 210.871H47.3711Z" fill="#006AD5"/>
<path d="M40.3555 207.095C40.3555 207.095 39.5295 191.106 34.7505 181.135" stroke="#FCBE42" stroke-width="0.54679" stroke-miterlimit="10"/>
<path d="M30.8524 175.353C30.8524 175.353 30.4394 180.25 35.2184 182.138C35.2774 182.197 36.2804 178.008 30.8524 175.353Z" fill="#FCBE42"/>
<path d="M38.0469 190.988C38.0469 190.988 36.2769 186.799 30.8489 187.389C30.8489 187.33 31.2619 191.519 38.0469 190.988Z" fill="#FCBE42"/>
<path d="M39.8203 201.49C39.8203 201.49 38.9353 197.065 33.5073 196.534C33.5073 196.534 33.0943 200.664 39.8203 201.49Z" fill="#FCBE42"/>
<path d="M39.9978 201.49C39.9978 201.49 39.3488 197.006 44.3048 194.705C44.3638 194.705 46.1338 198.481 39.9978 201.49Z" fill="#FCBE42"/>
<path d="M37.9918 190.929C37.9918 190.929 36.8118 186.563 41.4138 183.672C41.4138 183.672 43.6558 187.153 37.9918 190.929Z" fill="#FCBE42"/>
<path d="M221.467 164.534C211.162 159.331 207.274 147.51 206.063 136.57C205.866 134.739 205.372 132.85 206.012 131.121C206.653 129.392 208.51 128.008 210.261 128.562C211.706 129.021 212.512 130.474 213.471 131.691C214.718 133.292 216.449 134.503 218.342 135.148C219.576 135.571 221.077 135.732 222.125 134.932C223.558 133.845 223.44 131.629 223.166 129.815C222.668 126.42 222.139 123.072 221.65 119.716C221.376 117.902 221.093 116.049 221.435 114.262C221.739 112.485 222.769 110.67 224.403 109.946C226.077 109.214 228.345 109.899 228.961 111.598C229.2 112.32 229.168 113.101 229.329 113.84C229.491 114.579 229.95 115.375 230.701 115.455C231.46 115.574 232.097 114.946 232.578 114.352C234.196 112.246 235.111 109.724 235.949 107.218C236.786 104.713 237.606 102.129 238.996 99.9105C240.424 97.6833 242.528 95.7562 245.103 95.2339C247.678 94.7116 250.675 95.9307 251.694 98.3562C252.722 100.821 251.624 103.628 250.291 105.916C248.345 109.315 245.895 112.459 243.024 115.165C242.517 115.642 241.941 116.176 241.852 116.888C241.641 118.156 242.963 119.171 244.201 119.43C245.603 119.694 247.072 119.332 248.493 119.306C249.913 119.281 251.544 119.658 252.269 120.925C253.261 122.664 252.027 124.849 250.679 126.325C247.992 129.317 244.789 131.81 241.294 133.715C240.018 134.401 238.686 135.019 237.746 136.121C236.805 137.223 236.406 138.94 237.231 140.104C238.065 141.307 239.809 141.455 241.136 141.002C242.501 140.541 243.64 139.599 244.877 138.921C247.243 137.629 250.478 137.33 252.362 139.24C253.619 140.514 254.005 142.466 253.693 144.205C253.428 145.974 252.559 147.591 251.578 149.068C248.244 154.32 243.687 158.82 238.242 161.681C232.788 164.504 227.533 165.816 221.467 164.534Z" fill="#023EA1"/>
<path d="M223.295 157.291C224.122 151.569 225.533 145.353 227.213 138.874C227.637 137.273 228.061 135.673 228.494 134.112C228.927 132.55 229.321 130.997 229.848 129.496C230.825 126.512 232.009 123.727 233.227 121.098C234.445 118.468 235.666 116.042 236.835 113.749C238.004 111.456 239.138 109.374 240.276 107.496C242.512 103.747 244.672 100.953 246.215 99.0669C246.987 98.124 247.607 97.4181 248.036 96.9576C248.235 96.751 248.395 96.553 248.534 96.4412C248.634 96.3379 248.703 96.282 248.703 96.282C248.703 96.282 248.634 96.3379 248.542 96.4801C248.412 96.6308 248.282 96.7814 248.091 97.0269C247.671 97.5263 247.051 98.2322 246.318 99.1666C244.775 101.052 242.663 103.877 240.466 107.617C239.367 109.487 238.241 111.608 237.064 113.862C235.895 116.155 234.673 118.581 233.494 121.202C232.315 123.823 231.131 126.608 230.154 129.593C229.666 131.085 229.224 132.607 228.839 134.199C228.406 135.76 227.982 137.361 227.558 138.961C225.869 145.401 224.458 151.618 223.631 157.34" fill="#E0E0E0"/>
<path d="M229.948 129.476C229.909 129.484 229.811 129.221 229.661 128.724C229.473 128.235 229.281 127.544 228.999 126.627C228.491 124.864 227.869 122.393 227.157 119.696C226.485 116.991 225.824 114.528 225.277 112.773C225.004 111.896 224.764 111.174 224.623 110.716C224.474 110.219 224.376 109.955 224.415 109.947C224.453 109.938 224.552 110.202 224.74 110.69C224.928 111.179 225.198 111.853 225.51 112.722C226.096 114.468 226.835 116.915 227.507 119.62C228.172 122.286 228.785 124.718 229.232 126.576C229.458 127.423 229.611 128.123 229.778 128.698C229.927 129.195 229.987 129.467 229.948 129.476Z" fill="#E0E0E0"/>
<path d="M252.583 121.766C252.592 121.805 252.281 121.873 251.659 122.009C251.075 122.137 250.228 122.363 249.187 122.631C247.104 123.168 244.23 124 241.088 125.095C237.945 126.189 235.17 127.285 233.194 128.125C232.187 128.549 231.404 128.883 230.846 129.127C230.288 129.371 229.994 129.517 229.986 129.478C229.977 129.439 230.271 129.293 230.821 129.01C231.37 128.727 232.136 128.315 233.143 127.891C235.102 126.974 237.908 125.831 241.059 124.775C244.201 123.681 247.084 122.887 249.222 122.42C250.272 122.19 251.128 122.003 251.758 121.906C252.264 121.795 252.583 121.766 252.583 121.766Z" fill="#E0E0E0"/>
<path d="M223.503 156.83C223.503 156.83 223.447 156.761 223.288 156.592C223.159 156.376 222.983 156.129 222.751 155.813C222.317 155.134 221.69 154.13 220.926 152.871C219.397 150.353 217.445 146.828 215.33 142.93C213.206 138.994 211.254 135.469 209.803 132.934C209.086 131.706 208.498 130.693 208.086 129.928C207.893 129.603 207.756 129.348 207.618 129.093C207.498 128.915 207.473 128.799 207.473 128.799C207.473 128.799 207.529 128.868 207.688 129.037C207.816 129.253 207.993 129.5 208.225 129.816C208.658 130.495 209.285 131.499 210.05 132.758C211.578 135.276 213.531 138.801 215.646 142.698C217.769 146.634 219.722 150.16 221.173 152.695C221.889 153.923 222.477 154.936 222.889 155.701C223.082 156.026 223.22 156.281 223.357 156.536C223.477 156.713 223.503 156.83 223.503 156.83Z" fill="#E0E0E0"/>
<path d="M253.026 142.396C253.026 142.396 252.918 142.461 252.74 142.581C252.524 142.71 252.23 142.855 251.897 143.01C251.084 143.391 250.016 143.91 248.731 144.558C246.085 145.87 242.417 147.731 238.339 149.764C234.308 151.827 230.632 153.649 227.929 154.892C226.598 155.509 225.491 156.036 224.747 156.362C224.414 156.516 224.111 156.623 223.848 156.721C223.662 156.803 223.545 156.828 223.545 156.828C223.545 156.828 223.653 156.764 223.831 156.644C224.047 156.515 224.341 156.369 224.674 156.215C225.487 155.833 226.555 155.315 227.84 154.667C230.486 153.355 234.154 151.494 238.232 149.461C242.263 147.398 245.939 145.576 248.641 144.333C249.973 143.716 251.08 143.188 251.824 142.863C252.157 142.708 252.46 142.601 252.723 142.503C252.909 142.422 253.017 142.357 253.026 142.396Z" fill="#E0E0E0"/>
<path d="M220.389 141.499C220.389 141.499 231.294 122.268 230.574 105.073" stroke="#FCBE42" stroke-width="0.442962" stroke-miterlimit="10"/>
<path d="M228.065 93.7496C228.065 93.7496 223.567 98.8728 230.612 106.848C230.612 106.848 235.697 103.315 228.065 93.7496Z" fill="#FCBE42"/>
<path d="M228.765 120.248C228.765 120.248 228.861 113.338 218.77 107.419C218.759 107.412 216.285 112.676 228.765 120.248Z" fill="#FCBE42"/>
<path d="M223.785 134.417C223.785 134.417 225.606 128.232 216.332 121.086C216.332 121.086 212.38 125.357 223.785 134.417Z" fill="#FCBE42"/>
<path d="M224.102 134.67C224.102 134.67 226.466 128.781 237.053 132.135C237.053 132.135 237.267 138.613 224.102 134.67Z" fill="#FCBE42"/>
<path d="M228.674 120.138C228.674 120.138 229.932 113.686 240.404 115.946C240.415 115.953 241.657 122.704 228.674 120.138Z" fill="#FCBE42"/>
<path d="M140.758 193.218C143.456 187.664 143.713 182.068 140.758 176.415L142.879 173.871L200.9 175.778L198.9 194.21L142.736 194.857L140.758 193.218Z" fill="#0064B7" fill-opacity="0.22"/>
<path d="M142.737 195.132C142.674 195.132 142.612 195.109 142.562 195.068L140.584 193.429C140.487 193.348 140.457 193.212 140.512 193.097C143.319 187.321 143.32 181.905 140.515 176.541C140.464 176.443 140.477 176.324 140.548 176.238L142.669 173.694C142.724 173.63 142.805 173.592 142.889 173.596L200.91 175.504C200.987 175.506 201.058 175.541 201.109 175.598C201.158 175.655 201.182 175.732 201.174 175.808L199.175 194.24C199.16 194.377 199.044 194.483 198.905 194.484L142.741 195.132H142.737ZM141.1 193.143L142.836 194.581L198.654 193.939L200.595 176.044L143.005 174.15L141.086 176.452C143.821 181.796 143.826 187.409 141.098 193.146L141.1 193.143Z" fill="black"/>
<path d="M247.371 171.842H139.682C138.423 171.842 137.402 172.862 137.402 174.121C137.402 175.38 138.423 176.4 139.682 176.4H189.191C192.816 176.4 195.755 179.339 195.755 182.964V186.655C195.755 190.28 192.816 193.219 189.191 193.219H139.682C138.423 193.219 137.402 194.24 137.402 195.499C137.402 196.758 138.423 197.778 139.682 197.778H247.371C254.056 197.778 259.475 192.359 259.475 185.675V183.946C259.475 177.261 254.056 171.843 247.371 171.843V171.842Z" fill="#0C76CE"/>
<path d="M247.373 198.051H139.683C138.275 198.051 137.129 196.905 137.129 195.497C137.129 194.089 138.275 192.944 139.683 192.944H189.192C192.66 192.944 195.481 190.123 195.481 186.654V182.963C195.481 179.496 192.66 176.673 189.192 176.673H139.683C138.275 176.673 137.129 175.528 137.129 174.12C137.129 172.711 138.275 171.566 139.683 171.566H247.373C254.198 171.566 259.751 177.118 259.751 183.944V185.672C259.751 192.497 254.198 198.051 247.373 198.051ZM139.683 193.493C138.578 193.493 137.678 194.391 137.678 195.497C137.678 196.603 138.578 197.502 139.683 197.502H247.373C253.895 197.502 259.201 192.195 259.201 185.673V183.945C259.201 177.423 253.895 172.116 247.373 172.116H139.683C138.578 172.116 137.678 173.015 137.678 174.121C137.678 175.227 138.578 176.125 139.683 176.125H189.192C192.962 176.125 196.031 179.194 196.031 182.964V186.655C196.031 190.426 192.962 193.494 189.192 193.494H139.683V193.493Z" fill="black"/>
<path d="M173.429 181.562H169.189C169.037 181.562 168.914 181.439 168.914 181.288C168.914 181.136 169.037 181.013 169.189 181.013H173.429C173.581 181.013 173.704 181.136 173.704 181.288C173.704 181.439 173.581 181.562 173.429 181.562Z" fill="black"/>
<path d="M166.535 181.562H144.087C143.936 181.562 143.812 181.439 143.812 181.288C143.812 181.136 143.936 181.013 144.087 181.013H166.535C166.687 181.013 166.81 181.136 166.81 181.288C166.81 181.439 166.687 181.562 166.535 181.562Z" fill="black"/>
<path d="M170.849 184.308H144.29C144.139 184.308 144.016 184.185 144.016 184.033C144.016 183.881 144.139 183.758 144.29 183.758H170.849C171.001 183.758 171.124 183.881 171.124 184.033C171.124 184.185 171.001 184.308 170.849 184.308Z" fill="black"/>
<path d="M177.531 189.229H172.704C172.553 189.229 172.43 189.106 172.43 188.954C172.43 188.803 172.553 188.68 172.704 188.68H177.531C177.683 188.68 177.806 188.803 177.806 188.954C177.806 189.106 177.683 189.229 177.531 189.229Z" fill="black"/>
<path d="M170.646 189.229H144.087C143.936 189.229 143.812 189.106 143.812 188.954C143.812 188.803 143.936 188.68 144.087 188.68H170.646C170.798 188.68 170.921 188.803 170.921 188.954C170.921 189.106 170.798 189.229 170.646 189.229Z" fill="black"/>
<path d="M135.422 224.986H235.32V200.511H135.422C138.371 208.778 138.452 216.939 135.422 224.986Z" fill="#FCBE42" fill-opacity="0.22"/>
<path d="M235.321 225.261H135.423C135.333 225.261 135.248 225.216 135.197 225.143C135.146 225.068 135.134 224.974 135.166 224.89C138.118 217.051 138.118 208.882 135.165 200.605C135.135 200.52 135.148 200.427 135.2 200.354C135.251 200.28 135.335 200.237 135.425 200.237H235.323C235.474 200.237 235.597 200.36 235.597 200.512V224.985C235.597 225.137 235.474 225.26 235.323 225.26L235.321 225.261ZM135.819 224.712H235.047V200.787H135.811C138.634 208.934 138.636 216.979 135.819 224.712Z" fill="black"/>
<path d="M223.287 201.72H134.73C133.664 201.72 132.801 200.856 132.801 199.791C132.801 198.726 133.664 197.862 134.73 197.862H249.649C254.329 197.862 258.123 201.656 258.123 206.336V219.658C258.123 224.338 254.329 228.132 249.649 228.132H134.73C133.664 228.132 132.801 227.268 132.801 226.203C132.801 225.138 133.664 224.274 134.73 224.274H223.287C226.594 224.274 229.274 221.594 229.274 218.288V207.705C229.274 204.399 226.593 201.718 223.287 201.718V201.72Z" fill="#FCBE42"/>
<path d="M249.65 228.408H134.731C133.517 228.408 132.527 227.42 132.527 226.204C132.527 224.989 133.515 224.001 134.731 224.001H223.288C226.438 224.001 229 221.439 229 218.289V207.706C229 204.557 226.438 201.994 223.288 201.994H134.731C133.517 201.994 132.527 201.006 132.527 199.791C132.527 198.576 133.515 197.588 134.731 197.588H249.65C254.474 197.588 258.399 201.512 258.399 206.337V219.658C258.399 224.482 254.474 228.407 249.65 228.407V228.408ZM134.731 224.55C133.819 224.55 133.077 225.292 133.077 226.204C133.077 227.117 133.819 227.859 134.731 227.859H249.65C254.171 227.859 257.849 224.18 257.849 219.659V206.338C257.849 201.817 254.171 198.138 249.65 198.138H134.731C133.819 198.138 133.077 198.88 133.077 199.792C133.077 200.704 133.819 201.446 134.731 201.446H223.288C226.741 201.446 229.549 204.255 229.549 207.707V218.291C229.549 221.743 226.741 224.552 223.288 224.552H134.731V224.55Z" fill="black"/>
<path d="M153.386 206.599H138.634C138.482 206.599 138.359 206.476 138.359 206.324C138.359 206.172 138.482 206.049 138.634 206.049H153.386C153.537 206.049 153.66 206.172 153.66 206.324C153.66 206.476 153.537 206.599 153.386 206.599Z" fill="black"/>
<path d="M182.729 206.599H155.915C155.764 206.599 155.641 206.476 155.641 206.324C155.641 206.172 155.764 206.049 155.915 206.049H182.729C182.881 206.049 183.004 206.172 183.004 206.324C183.004 206.476 182.881 206.599 182.729 206.599Z" fill="black"/>
<path d="M175.812 209.865H138.95C138.799 209.865 138.676 209.742 138.676 209.59C138.676 209.438 138.799 209.315 138.95 209.315H175.812C175.963 209.315 176.086 209.438 176.086 209.59C176.086 209.742 175.963 209.865 175.812 209.865Z" fill="black"/>
<path d="M186.43 209.865H178.927C178.775 209.865 178.652 209.742 178.652 209.59C178.652 209.438 178.775 209.315 178.927 209.315H186.43C186.581 209.315 186.704 209.438 186.704 209.59C186.704 209.742 186.581 209.865 186.43 209.865Z" fill="black"/>
<path d="M178.039 216.682H138.95C138.799 216.682 138.676 216.559 138.676 216.408C138.676 216.256 138.799 216.133 138.95 216.133H178.039C178.19 216.133 178.314 216.256 178.314 216.408C178.314 216.559 178.19 216.682 178.039 216.682Z" fill="black"/>
<path d="M182.732 216.682H179.337C179.186 216.682 179.062 216.559 179.062 216.408C179.062 216.256 179.186 216.133 179.337 216.133H182.732C182.884 216.133 183.007 216.256 183.007 216.408C183.007 216.559 182.884 216.682 182.732 216.682Z" fill="black"/>
<path d="M117.982 41.3951L124.91 37.9423C130.547 35.1327 135.773 31.6024 140.458 27.4384L142.216 25.8745C143.131 25.0613 144.547 25.1048 145.474 25.9765C150.934 31.1047 157.091 35.4346 163.749 38.8262L168.459 41.2265C169.554 41.784 170.093 43.0488 169.719 44.1802L164.668 69.5723C162.317 76.6765 151.996 86.2706 146.234 91.2193C144.003 93.1354 140.603 92.9641 138.415 90.8331C132.854 85.418 123.063 74.9929 120.841 66.7832L116.803 44.0877C116.51 43.0025 116.999 41.8874 117.984 41.3965L117.982 41.3951Z" fill="#023EA1"/>
<path d="M142.336 99.8222C140.444 99.8222 138.529 99.0987 137.069 97.6762C130.269 91.0535 118.459 78.4553 115.763 68.4927L114.497 61.3804C114.469 61.2172 114.577 61.0608 114.741 61.0322C114.905 61.0037 115.06 61.1125 115.089 61.2756L116.349 68.3621C119.003 78.1602 130.733 90.6659 137.489 97.2465C140.002 99.6957 143.973 99.8942 146.528 97.7007C153.601 91.6274 165.881 80.1797 168.696 71.7075L174.793 41.0579C174.795 41.0457 174.798 41.0335 174.802 41.0226C175.207 39.8 174.617 38.4224 173.43 37.8186L167.742 34.9207C159.669 30.8083 152.221 25.57 145.601 19.3525C144.603 18.4155 143.053 18.3638 142.072 19.2355L139.948 21.1231C134.273 26.1683 127.932 30.4507 121.104 33.8545L112.736 38.024C111.67 38.5557 111.149 39.7483 111.467 40.926L113.566 52.715C113.594 52.8782 113.485 53.0346 113.322 53.0632C113.159 53.0931 113.003 52.9843 112.974 52.8198L110.881 41.0566C110.492 39.6246 111.142 38.1464 112.468 37.4855L120.836 33.316C127.618 29.9366 133.913 25.6828 139.549 20.673L141.674 18.7854C142.904 17.6907 144.771 17.7464 146.014 18.9146C152.592 25.094 159.994 30.2984 168.016 34.3862L173.705 37.2842C175.148 38.0199 175.866 39.698 175.38 41.1953L169.284 71.8448C169.281 71.8571 169.278 71.8693 169.274 71.8802C166.424 80.4925 154.046 92.0408 146.921 98.1576C145.623 99.2728 143.988 99.8235 142.339 99.8235L142.336 99.8222Z" fill="#0064B7"/>
<path d="M129.207 51.3837V63.8227C129.207 67.5679 135.453 70.6032 143.157 70.6032C150.861 70.6032 157.107 67.5679 157.107 63.8227V51.3837H129.207Z" fill="#FCBE42"/>
<path d="M157.889 48.6067L143.579 42.5524C143.31 42.4558 143.014 42.4558 142.745 42.5524L128.435 48.6067H122.738V49.9884C122.738 50.1597 122.835 50.3324 123.029 50.4004L142.745 57.4243C143.014 57.5209 143.31 57.5209 143.579 57.4243L163.295 50.4004C163.489 50.3311 163.586 50.1597 163.586 49.9884V48.6067H157.889Z" fill="black"/>
<path d="M163.294 48.1934L143.578 41.1695C143.309 41.0729 143.014 41.0729 142.745 41.1695L123.029 48.1934C122.641 48.3321 122.641 48.8801 123.029 49.0188L142.745 56.0427C143.014 56.1393 143.309 56.1393 143.578 56.0427L163.294 49.0188C163.682 48.8801 163.682 48.3321 163.294 48.1934Z" fill="#160856"/>
<path d="M154.354 58.7043C153.964 58.7043 153.64 59.0062 153.613 59.3965L152.855 70.371H155.851L155.094 59.3965C155.067 59.0076 154.743 58.7043 154.353 58.7043H154.354Z" fill="#160856"/>
<path d="M155.852 70.6713H152.856C152.773 70.6713 152.693 70.6373 152.636 70.5761C152.578 70.5149 152.55 70.4333 152.555 70.3503L153.313 59.3759C153.351 58.8306 153.808 58.4036 154.353 58.4036C154.898 58.4036 155.357 58.8306 155.393 59.3759L156.151 70.3503C156.156 70.4333 156.128 70.5149 156.071 70.5761C156.014 70.6373 155.935 70.6713 155.85 70.6713H155.852ZM153.178 70.0702H155.531L154.796 59.4167C154.78 59.1855 154.587 59.0046 154.356 59.0046C154.125 59.0046 153.93 59.1855 153.915 59.4167L153.181 70.0702H153.178Z" fill="black"/>
<path d="M154.356 58.8674C154.19 58.8674 154.056 58.7328 154.056 58.5669V52.9749L143.059 48.8884C142.903 48.8299 142.824 48.6572 142.883 48.5022C142.941 48.3472 143.114 48.2669 143.269 48.3254L154.461 52.484C154.579 52.5275 154.657 52.6404 154.657 52.7655V58.5669C154.657 58.7328 154.522 58.8674 154.356 58.8674Z" fill="black"/>
<path d="M94.7671 180.62H63.1405C59.0308 180.62 55.6992 183.952 55.6992 188.061V220.589C55.6992 224.699 59.0308 228.03 63.1405 228.03H94.7671C98.8769 228.03 102.208 224.699 102.208 220.589V188.061C102.208 183.952 98.8769 180.62 94.7671 180.62Z" fill="#023EA1"/>
<path d="M74.3743 125.178C74.3743 125.178 67.7855 122.759 67.0104 129.049C67.0104 129.049 65.3632 133.597 63.6191 134.37C61.9719 135.145 57.7085 136.789 58.7743 142.595C59.8402 148.497 61.3905 148.11 60.8091 151.497C60.1308 154.883 61.778 155.27 64.1035 155.367C66.429 155.463 67.1072 153.238 67.1072 153.238L66.429 145.691L67.9793 133.5L73.0178 131.467C73.0178 131.467 75.6339 128.178 75.8277 126.92C76.0215 125.662 74.3743 125.178 74.3743 125.178Z" fill="#170856"/>
<path d="M73.5012 123.534C73.5012 123.534 72.4354 124.598 72.726 124.792C73.0167 124.985 75.8266 126.533 75.8266 126.533C75.8266 126.533 76.6987 124.889 76.6018 124.404C76.5049 123.92 73.5012 123.534 73.5012 123.534Z" fill="#F05051"/>
<path d="M91.0363 115.31C91.2302 115.31 91.327 115.407 91.327 115.6C91.327 117.052 90.9395 124.018 88.2265 126.63C88.2265 126.63 86.773 128.566 84.06 127.695C84.06 127.695 81.5407 126.147 81.9283 129.243C82.3159 132.339 81.0562 135.338 80.0873 135.726C79.1184 136.21 75.0488 135.049 74.0799 133.307C73.4985 132.146 73.1109 131.565 73.0141 131.275C72.9172 131.178 72.9172 131.082 73.0141 130.888C73.5954 130.21 75.7271 127.599 76.6961 124.018C77.8588 119.858 77.1805 115.794 81.0562 115.02C84.2538 114.536 89.7767 115.213 91.0363 115.31Z" fill="#FFBE97"/>
<path d="M94.6247 115.019C94.6247 114.922 94.6247 114.923 94.6247 114.826C94.6247 114.439 94.6247 113.955 94.6247 113.569C94.5277 112.311 94.0429 110.956 93.0743 110.085C92.2991 109.408 91.3302 109.214 90.4581 109.214C90.2643 109.214 90.0705 109.117 89.8767 109.021C89.1985 108.247 87.0668 106.118 84.1599 106.118C80.6718 106.118 74.5674 108.053 72.9202 114.149C72.8234 114.536 70.4979 124.114 75.1488 124.405C79.8966 124.695 81.7376 122.373 81.6407 120.244C81.6407 120.244 79.3153 116.084 83.2879 117.148C83.2879 117.148 87.3575 117.922 90.1674 116.277C90.555 116.084 90.9426 116.181 91.1363 116.568C91.7178 117.535 92.7835 119.083 93.849 117.825C94.2368 117.342 94.6247 116.858 94.7216 116.181C94.8186 115.697 94.7216 115.407 94.6247 115.019Z" fill="#170856"/>
<path d="M72.9271 131.177C72.9271 131.177 75.2526 134.951 78.547 134.854C81.8414 134.854 82.0351 131.371 82.0351 131.371C82.0351 131.371 88.7208 137.466 88.6239 141.434C88.5271 145.401 87.2675 144.82 86.8799 146.078C86.4923 147.432 89.1084 161.559 89.1084 161.559L89.496 162.429L70.6017 165.042C70.6017 165.042 69.8265 162.042 69.3421 161.075C68.8575 160.107 66.1445 135.241 66.1445 135.241L67.4042 133.887C67.3073 133.983 69.5358 131.371 72.9271 131.177Z" fill="#FCBE42"/>
<path d="M64.488 146.272C64.488 146.272 62.6469 133.985 67.3948 133.307C72.0457 132.727 72.1426 136.597 72.2394 142.305C72.4333 148.014 72.3363 149.271 72.3363 149.271L64.9724 150.626L64.488 146.272Z" fill="#F79F03"/>
<path d="M72.1518 149.367C72.2488 149.367 72.3457 149.464 72.3457 149.561L72.7333 154.302C72.7333 154.98 72.8301 155.657 73.5084 155.366C73.896 155.173 74.3805 154.98 74.9618 154.689C77.0935 153.528 83.3916 150.335 85.4263 149.464C85.8139 149.271 86.0078 148.981 86.2015 148.594C86.3953 148.013 86.9767 147.142 88.1394 146.755C89.9804 146.272 93.1779 146.272 93.1779 146.561C93.2749 146.755 93.6627 148.303 93.4688 148.884C93.2749 149.367 91.8214 148.981 91.8214 148.981C91.8214 148.981 88.9146 148.497 89.7866 149.464C90.2711 150.045 90.9494 150.142 91.4338 150.142C91.6276 150.142 91.7245 150.335 91.5307 150.528C91.1431 150.819 90.4649 151.206 89.3022 151.4C87.1705 151.689 72.055 161.656 72.055 161.656C72.055 161.656 69.1481 163.978 67.4041 157.882C66.1445 153.238 65.4662 151.593 65.2724 151.013C65.1755 150.916 65.2724 150.722 65.4662 150.722L72.1518 149.367Z" fill="#FEBD96"/>
<path d="M97.2379 155.947L88.6142 159.527L87.7422 154.109L91.2303 153.915L97.2379 155.947Z" fill="#FEBD96"/>
<path d="M103.147 138.628L116.809 137.853L102.663 155.753L89.582 156.237L103.147 138.628Z" fill="#012D75"/>
<path d="M103.25 154.496C103.25 154.496 102.766 151.206 103.832 150.722C104.898 150.239 105.673 151.4 105.576 151.98C105.479 152.658 103.347 154.883 103.347 154.883L103.25 154.496Z" fill="#FEBD96"/>
<path d="M89.3973 162.527L116.043 172.686C116.043 172.686 119.337 173.363 120.21 182.361C120.985 191.36 121.663 221.258 121.663 221.258V222.225L115.075 222.322L111.78 190.489L96.0832 171.331L83.293 163.3L89.3973 162.527Z" fill="#DE051F"/>
<path d="M70.3011 164.558L83.1881 163.397L110.415 177.04C110.415 177.04 117.78 181.394 113.031 189.328C108.284 197.262 95.2025 221.354 95.2025 221.354L90.6489 217.968L102.276 185.555C102.276 185.555 102.567 183.91 98.6913 183.619C95.1064 183.329 77.9557 181.685 75.7271 181.491C75.5334 181.491 75.3396 181.394 75.1458 181.394C73.7893 180.91 68.557 178.298 70.2042 169.106L70.398 165.236L70.3011 164.558Z" fill="#EE384E"/>
<path d="M121.66 222.323L127.474 225.515C127.765 225.709 128.055 225.806 128.443 225.903C129.025 225.999 130.187 226.289 130.187 227.16C130.187 227.16 130.381 228.225 127.571 227.934C124.761 227.644 115.944 227.74 115.944 227.74C115.944 227.74 114.781 227.451 114.975 224.934L115.169 222.419L121.66 222.323Z" fill="#130452"/>
<path d="M95.2034 221.354C95.2034 221.354 95.2996 222.902 96.7531 224.934C97.6257 226.095 98.4975 227.16 99.3693 228.321C99.5632 228.61 99.8541 228.804 100.048 229.191C100.145 229.385 100.242 229.675 100.242 229.868C100.242 230.062 100.242 230.352 99.9511 230.546C99.6602 230.739 99.1754 230.643 98.7884 230.546C98.6914 230.546 98.5945 230.449 98.4975 230.449C96.2691 229.675 89.4863 224.063 88.0329 222.902C87.8391 222.708 87.7422 222.515 87.7422 222.321C87.7422 221.838 87.8391 220.87 88.4205 220.193C89.2925 219.129 90.649 218.064 90.649 218.064L95.2034 221.354Z" fill="#130452"/>
<path d="M220.182 167.152C220.182 167.152 223.86 167.336 226.618 167.336C229.284 167.336 233.605 167.887 233.605 167.887C233.605 167.887 234.709 167.887 234.8 169.267C234.892 170.646 234.892 171.197 234.892 171.197C234.892 171.197 234.984 172.852 233.697 172.852C232.41 172.852 224.135 173.772 222.297 173.772C220.458 173.772 219.079 174.139 219.079 172.852C218.987 171.565 218.895 167.06 220.182 167.152Z" fill="#160856"/>
<path d="M223.221 127.893C223.221 127.893 225.611 141.225 225.795 144.81C225.979 148.304 226.347 151.062 224.048 152.441C221.75 153.821 217.888 155.108 217.888 155.108L213.199 131.203V128.445L223.221 127.893Z" fill="#FDBD97"/>
<path d="M182.307 127.067C182.307 127.067 181.02 133.135 180.652 136.169C180.284 139.203 179.457 145.179 179.365 146.558C179.273 147.937 179.089 150.235 181.572 152.074C184.054 153.821 186.812 154.832 186.812 154.832L191.961 127.067H182.307Z" fill="#FDBD97"/>
<path d="M200.602 107.851C200.602 107.851 200.602 110.609 199.407 111.804C198.211 113 196.648 115.022 196.648 115.022C196.648 115.022 199.407 119.435 205.015 118.792C210.531 118.24 211.543 114.195 211.543 114.195C211.543 114.195 206.302 113.459 205.659 108.495C205.107 103.53 204.279 103.53 204.279 103.53L200.602 107.851Z" fill="#FDAE7D"/>
<path d="M196.559 96.8181C196.559 96.8181 196.742 103.162 199.776 108.127C202.719 113.091 206.304 110.333 207.775 107.759C209.154 105.185 212.924 96.8181 212.188 94.6116C211.361 92.405 200.42 91.3937 200.42 91.3937L196.559 96.8181Z" fill="#FDBD97"/>
<path d="M210.621 100.404C210.621 100.404 212.184 99.2087 212.184 100.404C212.184 101.599 211.356 103.346 210.437 103.622C209.425 103.806 209.609 103.254 209.885 102.427C210.069 101.599 210.621 100.404 210.621 100.404Z" fill="#FDBD97"/>
<path d="M197.014 102.978C197.474 103.162 197.934 103.254 197.934 102.61C197.934 101.415 197.106 99.6681 196.187 99.3922C195.175 99.2084 195.359 99.76 195.635 100.587C195.727 100.863 195.819 101.139 195.911 101.507C196.095 102.059 196.646 102.794 197.014 102.978Z" fill="#FDBD97"/>
<path d="M196.828 99.7602L196.644 97.7376C196.644 97.7376 198.391 97.9215 200.414 95.9907C200.414 95.9907 204.275 96.9101 207.401 96.5423C210.711 96.2665 212.09 95.3471 212.09 95.3471C212.09 95.3471 211.539 99.1167 210.987 100.22C210.987 100.22 212.55 99.5764 213.193 97.7376C213.745 95.9907 213.653 94.06 213.653 94.06C213.653 94.06 215.86 92.3131 216.411 90.2904C216.411 90.2904 210.435 88.9113 208.688 87.7161C206.942 86.5209 205.93 85.6934 205.93 85.6934C205.93 85.6934 203.172 84.1305 200.414 86.2451C197.656 88.4516 195.817 89.6469 195.817 93.4164C195.725 93.5083 193.151 97.094 196.828 99.7602Z" fill="#160856"/>
<path d="M197.291 112.999C197.291 112.999 193.522 112.539 191.407 113.091C189.385 113.643 188.741 113.275 189.293 114.838C189.844 116.401 192.602 123.664 191.315 128.169C190.028 132.674 188.281 156.027 188.281 156.027C188.281 156.027 202.44 156.579 207.864 156.855C213.381 157.13 217.426 156.119 217.426 156.119C217.426 156.119 218.621 146.098 217.426 141.684C216.231 137.363 214.668 129.916 214.668 129.916C214.668 129.916 213.657 119.711 215.036 117.228C216.415 114.746 217.426 114.654 215.679 114.011C213.932 113.367 212.002 112.815 210.531 112.815C209.152 112.815 208.416 112.815 207.589 113.643C206.761 114.47 205.106 116.125 202.808 115.757C200.509 115.39 198.762 113.827 198.762 113.827C198.762 113.827 197.935 113.091 197.291 112.999Z" fill="#0181F7"/>
<path d="M190.582 113.827C190.582 113.827 189.295 113.183 187.364 114.838C185.249 116.677 183.778 120.539 183.043 122.929C182.307 125.319 181.848 127.71 181.848 127.71C181.848 127.71 184.514 129.089 187.364 129.181C190.122 129.273 191.961 129.457 191.961 129.457C191.961 129.457 193.156 122.193 192.88 118.976C192.513 115.758 192.053 114.654 190.582 113.827Z" fill="#023E9F"/>
<path d="M213.93 116.493C213.93 116.493 215.033 113.459 217.515 114.838C219.998 116.217 221.837 121.55 222.48 123.205C223.032 124.86 223.767 128.261 223.767 128.261C223.767 128.261 220.825 129.548 218.251 129.732C215.769 129.916 214.022 130.1 214.022 130.1C214.022 130.1 213.01 123.48 213.194 120.906C213.378 118.332 213.93 116.493 213.93 116.493Z" fill="#023E9F"/>
<path d="M193.43 158.142H212.461L202.624 161.176L193.43 158.142Z" fill="#BA0A28"/>
<path d="M176.513 152.718C176.513 152.718 211.267 163.567 218.898 166.233C218.898 166.233 221.38 166.876 221.472 168.164C221.564 169.451 221.288 171.289 221.012 172.209C220.737 173.128 219.909 173.864 218.53 173.588C217.151 173.312 185.983 167.06 173.663 163.842L170.17 162.739C170.17 162.739 167.595 161.544 168.055 158.418C168.515 155.292 170.813 152.442 172.468 152.258C174.123 152.166 176.513 152.718 176.513 152.718Z" fill="#EC384E"/>
<path d="M173.388 168.164C173.388 168.164 177.709 167.428 180.376 167.336C182.95 167.244 186.444 166.968 186.995 167.336C187.547 167.704 188.007 172.761 188.007 172.761C188.007 172.761 188.466 174.14 185.065 173.864C181.663 173.588 173.756 173.312 173.756 173.312C173.756 173.312 172.009 173.22 171.917 171.657C171.825 170.094 172.101 169.359 172.101 169.359C172.101 169.359 172.193 168.347 173.388 168.164Z" fill="#160856"/>
<path d="M194.075 163.75C194.075 163.75 215.129 157.315 222.668 155.108C230.207 152.902 234.345 150.879 236.827 154.373C239.218 157.866 239.034 161.82 236.275 162.923C233.517 164.026 211.544 169.175 202.442 171.014C193.339 172.852 187.363 174.048 186.536 173.68C185.708 173.312 184.789 170.646 184.973 169.175C185.157 167.704 185.249 167.152 186.996 166.417C188.742 165.589 194.075 163.75 194.075 163.75Z" fill="#DB061F"/>
<path d="M191.687 133.042H217.062C217.062 133.042 218.442 132.858 218.442 134.697C218.442 136.536 218.442 156.579 218.442 156.579C218.442 156.579 218.534 158.05 217.43 158.05C216.327 158.05 187.642 158.05 187.642 158.05C187.642 158.05 186.446 158.417 186.446 156.395C186.446 154.372 186.446 134.145 186.446 134.145C186.446 134.145 186.355 133.042 187.826 133.042C189.205 133.042 191.687 133.042 191.687 133.042Z" fill="#0064B5"/>
<path d="M204.001 145.454L202.162 143.983L200.691 145.822L202.53 147.293L204.001 145.454Z" fill="#579CD2"/>
</svg>
