<svg width="338" height="220" viewBox="0 0 338 220" fill="none" xmlns="http://www.w3.org/2000/svg">
<path d="M33.8311 157.611C34.3941 158.625 34.9571 161.777 35.1823 164.367C35.8579 177.429 35.9705 189.477 35.6327 200.624C36.0831 200.512 36.6461 200.512 37.0965 200.399C38.4477 200.174 39.7989 199.949 41.2626 199.723C53.4234 197.359 65.1337 192.292 77.2945 191.954C77.2945 192.742 77.2945 193.53 77.2945 194.319L82.2488 195.782C82.2488 195.782 123.911 206.479 128.415 209.182C128.752 209.407 129.09 209.632 129.428 209.745C134.045 211.096 139.449 212.898 140.35 218.978C140.35 219.203 140.35 219.428 140.35 219.654H209.036C204.757 212.56 227.052 203.214 227.052 203.214L264.435 194.319C264.435 194.319 272.992 193.53 281.662 192.742C280.987 177.316 281.775 161.89 284.027 146.351C284.365 143.874 285.716 141.059 286.955 140.384C294.949 135.88 303.957 140.609 313.415 149.279C315.667 140.721 326.815 132.164 331.431 125.07C336.949 116.625 321.748 105.703 312.852 103.564C303.957 101.424 258.017 72.7113 276.933 65.6175C295.962 58.4111 303.507 39.8322 301.367 36.9047C299.228 33.9771 277.271 39.3818 265.448 43.2102C253.625 47.0386 243.491 45.3496 241.802 38.5936C240.113 31.8377 237.974 19.2266 219.057 17.5376C200.028 15.8486 193.272 34.8779 178.071 40.733C162.87 46.5882 153.975 38.2558 153.975 28.9101C153.975 19.6769 187.417 -1.94214 158.704 0.872841C129.991 3.68783 16.9412 78.0034 4.55524 95.1186C-7.83069 112.234 10.4104 115.612 10.4104 115.612C10.4104 115.612 34.0563 114.823 38.2225 129.349C40.3619 136.78 36.0831 146.914 31.3539 155.021C32.2547 155.472 33.1555 156.373 33.8311 157.611Z" fill="#EDEDED"/>
<path d="M283.689 123.269C282.788 122.368 282 121.58 281.212 120.566C279.635 118.652 278.284 116.513 277.383 114.035C275.807 109.531 275.244 104.464 275.469 99.7352L275.357 99.8478C272.992 102.212 270.965 104.239 269.164 105.928C268.15 106.942 267.249 107.73 266.349 108.405L266.686 98.0462L263.759 93.9927L257.904 95.3439L250.134 94.6683L244.054 94.3305C244.054 94.3305 243.829 111.108 249.459 117.976C249.459 117.976 256.553 119.891 259.255 118.202C259.255 118.202 260.493 117.188 261.394 117.639C261.845 119.778 262.07 122.706 261.169 126.084C261.056 126.421 260.944 126.759 260.944 126.984C258.467 131.376 256.215 134.754 259.367 136.78C261.845 138.357 271.303 134.979 274.906 133.628C275.807 133.29 276.37 133.065 276.37 133.065C277.046 132.839 277.834 130.25 278.172 129.574C278.735 128.561 279.185 127.435 280.086 126.759C280.761 126.196 281.324 126.084 282.113 125.858C282.901 125.746 284.59 126.083 285.153 125.633C286.054 124.958 284.365 123.944 283.689 123.269Z" fill="#FFBF99"/>
<path d="M76.2808 81.0434L66.7099 79.0166L62.8815 80.1426L57.0263 83.971L52.6349 85.5474L52.8601 92.6411C52.8601 92.6411 53.1979 96.1317 52.2971 105.027C51.3963 113.922 48.4688 116.512 48.4688 116.512L48.8065 117.075L50.0451 119.102L53.0853 121.354L59.1657 121.467L68.8492 117.075C68.8492 117.075 65.6965 113.922 63.8949 111.333C63.4445 110.657 62.8815 109.418 63.8949 108.855C64.2327 108.743 64.5705 108.63 64.7957 108.63C65.3587 108.63 65.4713 108.968 65.9217 109.306C66.2595 109.531 66.5973 109.644 66.9351 109.756C68.3988 110.319 70.0878 110.319 71.5516 110.207C71.5516 110.207 73.3532 110.544 75.38 102.437C77.5194 94.3301 76.2808 81.0434 76.2808 81.0434Z" fill="#FFBF99"/>
<path d="M78.421 83.6333C80.8982 81.8317 86.0777 77.1026 82.4745 70.6844C82.4745 70.6844 82.4745 70.6844 82.4745 70.5718C82.1367 70.1214 78.421 65.5048 75.043 68.7702C74.8178 68.9954 74.48 68.9954 74.2548 68.6576C73.1288 66.6308 69.0752 60.3253 62.4319 67.3064C62.3193 67.419 62.0941 67.5316 61.8689 67.419C60.1799 66.6308 51.3971 63.1403 50.6089 70.9096C50.6089 70.9096 50.0459 74.6254 50.1585 76.6522C50.1585 76.99 49.9333 77.2152 49.7081 77.2152C48.1317 77.2152 43.9656 78.0034 44.8663 85.0971C44.8663 85.2097 44.8663 85.4349 44.8663 85.5475C44.8663 85.9979 44.8663 86.3357 44.8663 86.6735C44.9789 87.3491 45.2041 88.0247 45.5419 88.5877C45.7671 89.0381 46.1049 89.3759 46.3301 89.8263C46.7805 91.0649 46.8931 92.6413 46.3301 93.8799C45.2041 96.0193 45.3167 104.239 52.6357 104.802C52.6357 104.802 56.8019 105.703 57.2523 97.9335C57.2523 97.9335 57.8153 94.3303 56.0137 92.5287C55.1129 91.6279 54.2121 89.4885 55.0003 87.9121C55.3381 87.2365 55.7885 86.8987 56.5767 86.8987C57.0271 86.8987 57.7027 87.1239 58.1531 87.1239C58.8287 87.1239 59.3917 87.0113 59.9547 86.7861C60.6303 86.5609 61.5311 86.1105 61.8689 85.4349C61.8689 85.4349 65.8098 79.6924 70.539 80.8184C70.539 80.8184 74.2548 81.494 76.6194 83.2955C76.8446 84.0837 77.7454 84.0837 78.421 83.6333Z" fill="#160C56"/>
<path d="M263.984 198.936H73.0156V211.096H263.984V198.936Z" fill="#0D0DD3"/>
<path d="M108.484 165.831L73.0156 199.048H264.097L228.628 165.831H108.484Z" fill="#2626DB"/>
<path d="M172.102 171.46L167.711 188.35H244.391L227.276 171.91L172.102 171.46Z" fill="white"/>
<path d="M154.313 181.708L155.213 196.571H88.2168L103.193 182.271L154.313 181.708Z" fill="white"/>
<path d="M110.287 145.563C110.174 145.225 111.075 144.099 111.188 143.874C111.751 142.748 112.314 141.622 112.989 140.383C114.115 138.244 116.03 136.442 117.268 134.303C117.606 133.627 118.507 131.375 119.295 131.263C119.52 131.263 119.633 131.375 119.858 131.488C122.11 133.515 119.52 136.217 118.394 137.906C117.944 138.582 117.719 139.37 117.381 140.158C119.295 138.919 121.209 137.681 123.123 136.555C124.249 135.879 129.654 132.163 130.442 133.515C130.893 134.19 129.992 134.978 129.542 135.316C127.627 137.005 125.488 138.582 123.236 139.933C125.15 138.807 126.952 137.681 128.866 136.555C129.767 135.992 133.257 134.19 133.933 135.541C134.158 135.879 134.046 136.442 133.708 136.667C131.231 138.694 128.416 140.158 125.601 141.509C127.74 140.496 129.992 139.482 132.131 138.356C132.694 138.131 133.82 137.681 134.496 138.244C135.172 139.032 134.271 139.933 133.708 140.271C131.343 141.96 129.204 143.198 126.614 144.437C128.753 144.099 134.609 140.946 134.046 142.748C133.933 143.311 133.483 143.649 133.032 143.986C130.442 145.901 128.866 147.139 126.276 148.941C125.15 149.729 123.349 150.742 122.11 151.305C120.646 151.981 119.408 152.544 118.056 153.332C116.03 154.458 114.453 154.458 112.201 154.909L110.287 145.563Z" fill="#FFBF99"/>
<path d="M128.414 167.069C128.639 166.732 129.878 166.394 130.216 166.281C131.342 165.718 132.58 165.155 133.706 164.705C135.958 163.692 138.548 163.579 140.8 162.678C141.476 162.453 143.615 161.214 144.291 161.552C144.516 161.665 144.516 161.89 144.516 162.003C144.966 164.93 141.25 165.493 139.336 166.169C138.548 166.394 137.872 166.957 137.197 167.295C139.449 167.52 141.701 167.745 143.953 168.083C145.304 168.195 151.835 168.758 151.61 170.335C151.497 171.123 150.371 171.123 149.695 171.123C147.106 171.236 144.516 171.123 141.926 170.898C144.065 171.236 146.317 171.461 148.457 171.799C149.47 171.911 153.411 172.699 153.073 174.163C152.961 174.614 152.623 174.839 152.173 174.951C149.02 175.064 145.867 174.388 142.827 173.6C145.191 174.163 147.556 174.726 149.921 175.289C150.484 175.402 151.722 175.852 151.835 176.64C151.947 177.654 150.596 177.766 149.921 177.766C147.106 177.654 144.628 177.203 141.813 176.64C143.728 177.654 150.258 178.892 148.682 180.018C148.232 180.356 147.669 180.356 147.106 180.244C143.84 180.131 141.926 180.018 138.661 179.906C137.309 179.793 135.17 179.568 133.931 179.23C132.355 178.892 131.117 178.555 129.428 178.217C127.176 177.766 125.937 176.753 123.91 175.74L128.414 167.069Z" fill="#FFBF99"/>
<path d="M69.8633 115.836C70.4263 117.525 71.2145 120.002 72.1153 123.155C75.3807 134.753 76.3941 143.761 76.6193 146.238C76.9571 149.166 77.1823 153.219 77.2949 158.061C68.8499 146.801 61.1932 140.721 57.027 135.091C51.5096 127.772 47.9064 121.691 47.5687 119.665C47.2309 117.638 47.6813 115.611 49.708 113.584C54.775 108.742 65.9224 117.525 65.9224 117.525L69.8633 115.836Z" fill="#D1D3D4"/>
<path d="M50.2701 126.084C61.6427 117.751 70.7632 130.137 75.8302 138.92C78.8704 144.325 82.1358 149.73 86.6397 154.008C88.5539 153.671 111.299 145.001 110.286 142.974C112.65 147.59 115.916 150.743 117.492 155.36C110.736 161.89 92.1571 172.7 85.176 175.515C78.42 178.217 62.3183 154.797 55.4497 148.716C49.1441 142.974 41.6 132.502 50.2701 126.084Z" fill="#DE051F"/>
<path d="M74.593 139.257C69.6386 129.574 62.7701 123.155 57.9283 119.44L48.6951 114.71L40.3628 128.785L37.21 141.509C35.2958 149.504 34.5076 157.836 35.0706 166.056C35.521 172.474 35.6336 179.117 35.6336 186.211C35.6336 191.165 35.4084 196.007 35.0706 200.624C49.5959 199.16 63.2205 192.404 77.408 191.841C77.7458 161.439 80.786 151.418 74.593 139.257Z" fill="#EE384E"/>
<path d="M50.7221 110.206C50.7221 110.206 69.5262 127.209 76.5074 143.085C64.234 130.812 59.2797 130.699 59.2797 130.699V122.029L54.1001 126.42L48.6953 114.71L50.7221 110.206Z" fill="#DE051F"/>
<path d="M123.235 163.354C124.812 163.241 127.402 163.354 129.991 163.579C130.104 164.142 130.217 164.818 130.329 165.381C131.005 169.885 130.667 175.402 130.78 180.018C126.613 180.131 120.758 178.893 116.479 179.343C105.895 180.356 77.7453 174.726 75.2681 172.812C67.724 167.07 60.1798 161.214 52.4104 155.697C48.1317 152.657 40.1371 146.239 40.7001 139.821C40.7001 139.37 40.8127 138.807 40.9253 138.357C43.7403 128.673 56.5766 132.614 62.3192 135.88C67.0484 138.695 70.9894 142.523 74.9303 146.464C81.3485 152.769 79.8847 155.697 88.7801 157.273C98.351 158.737 113.665 163.692 123.235 163.354Z" fill="#DE051F"/>
<path d="M261.507 124.958L259.255 126.084C256.44 127.547 254.301 129.912 253.175 132.727L240.901 163.579L208.473 169.096L209.824 177.992L241.915 177.879C244.955 177.541 247.657 175.74 249.121 173.15L259.931 160.877L261.507 124.958Z" fill="#FCBE42"/>
<path d="M258.353 132.052C258.353 132.052 262.745 136.443 274.23 132.39C273.217 155.81 271.64 166.507 271.64 166.507L257.903 171.124L253.174 155.923L258.353 132.052Z" fill="white"/>
<path d="M296.638 139.82L293.486 136.667L275.695 135.429C275.695 135.429 262.746 153.445 257.792 155.021C257.904 155.021 257.792 152.882 257.792 152.657C257.792 151.868 257.792 150.968 257.792 150.179C257.792 148.49 257.792 146.801 257.904 145.112C258.017 141.96 258.242 138.919 258.692 135.767C258.918 134.19 259.143 132.726 259.481 131.263C259.593 130.587 259.706 129.799 259.931 129.123C260.044 128.785 260.269 128.335 260.494 127.997C260.607 127.659 260.832 127.322 260.944 126.984C260.944 126.984 260.832 126.984 260.832 127.096C260.607 127.322 260.381 127.547 260.156 127.885C259.931 128.222 259.706 128.56 259.593 128.898C259.255 129.799 258.918 130.587 258.58 131.488C258.017 132.952 257.454 134.528 256.891 135.992C255.877 139.032 254.977 142.072 253.963 145.225C253.062 147.927 252.162 150.742 251.261 153.445C250.923 154.683 250.135 156.26 250.135 157.611C250.135 159.413 264.322 194.093 264.322 194.093C264.322 194.093 275.92 193.418 299.566 190.94C295.85 178.667 296.638 139.82 296.638 139.82Z" fill="#F79F03"/>
<path d="M233.019 180.919L224.462 179.118L217.143 177.767C216.467 177.654 215.679 177.654 215.003 177.992C212.526 179.005 210.049 179.568 207.685 180.807C206.108 181.708 205.433 182.271 207.347 183.397C208.585 184.185 209.937 184.072 211.175 183.284C210.725 183.622 210.162 183.96 210.162 184.635C210.162 185.874 211.4 185.536 212.189 185.423C213.765 185.198 215.341 184.86 216.805 184.635C217.706 184.523 218.719 184.635 219.507 185.086L225.475 188.351C226.151 188.801 227.052 188.914 227.84 188.914L233.47 188.801L233.019 180.919Z" fill="#D8AD95"/>
<path d="M194.175 173.375C193.612 174.163 193.274 175.064 192.936 176.078C192.598 176.978 192.035 177.767 191.81 178.78C191.697 179.456 192.148 180.131 192.936 179.906C193.274 179.793 193.499 179.568 193.724 179.456C194.062 180.469 194.738 180.019 195.188 179.456C196.089 178.217 196.314 176.641 197.89 176.528C199.016 176.415 200.142 176.528 201.268 176.528C203.183 176.528 205.097 176.528 206.898 176.528C206.898 176.528 206.335 174.276 206.223 174.051C205.885 172.7 205.66 171.799 204.196 171.799C202.394 171.799 200.48 171.799 198.679 171.911C197.778 171.911 196.877 171.911 195.976 172.249C195.075 172.249 194.512 172.7 194.175 173.375Z" fill="#D8AD95"/>
<path d="M200.254 172.7C200.592 172.7 200.93 172.925 201.268 172.925C201.606 173.038 202.056 172.925 202.281 173.038C201.943 172.925 201.718 173.038 201.38 173.15C200.705 173.376 200.029 173.263 199.354 173.263C198.678 173.263 196.426 174.164 196.989 175.177C197.552 176.078 199.016 175.853 199.804 175.74C201.268 175.515 202.732 176.303 204.083 176.754C207.799 177.88 211.289 176.528 214.667 175.628L212.19 171.011L200.592 167.746C199.466 168.083 198.34 168.421 197.214 168.872C195.638 169.322 194.287 169.998 192.935 170.898C192.372 171.236 192.147 171.912 191.922 172.475C191.584 173.263 191.134 173.939 190.796 174.727C190.458 175.29 189.22 176.979 190.008 177.654C190.458 178.105 191.246 177.542 191.584 177.204C192.372 176.191 193.048 174.164 194.174 173.488C195.75 172.7 198.34 172.475 200.254 172.7Z" fill="#E2BBA1"/>
<path d="M284.027 123.381C279.861 122.593 275.244 128.899 274.231 132.389C272.879 137.006 272.429 141.96 271.416 146.69C270.177 152.207 268.15 157.499 267.475 163.242C267.25 165.381 267.25 167.52 266.574 169.66C265.561 172.925 263.196 173.263 260.156 174.614C252.386 178.217 230.092 180.019 229.754 180.132L233.132 190.603C233.695 190.378 272.992 194.657 279.523 184.636C280.987 182.384 282.113 179.681 283.239 177.317C285.265 173.038 287.292 168.646 289.432 164.368C290.445 162.341 291.346 160.201 292.359 158.175C293.035 156.823 294.048 152.77 295.287 151.982C295.625 151.757 295.85 151.644 295.85 151.531C300.241 138.695 291.684 124.845 284.027 123.381Z" fill="#FCBE42"/>
<path d="M194.736 177.766C194.173 177.766 193.272 177.879 191.809 177.992C191.809 177.316 191.921 176.64 191.921 175.965C193.385 176.303 194.286 176.528 194.849 176.64L194.736 177.766Z" fill="#023EA1"/>
<path d="M166.474 173.376L163.434 173.15L164.672 176.979L166.924 177.091L166.474 173.376Z" fill="#023EA1"/>
<path d="M175.818 177.766L176.044 173.938C176.381 173.938 176.832 174.051 177.17 174.051L176.944 177.879C176.494 177.879 176.156 177.766 175.818 177.766Z" fill="#414042"/>
<path d="M178.635 174.164C182.576 174.614 186.405 175.177 192.147 175.853C192.147 176.641 192.035 177.316 192.035 178.105C186.292 177.992 182.464 177.992 178.41 177.879L178.635 174.164Z" fill="#FCBE42"/>
<path d="M167.037 173.713C167.037 173.713 166.924 173.038 167.712 172.587C168.501 172.024 170.077 171.912 172.104 172.137C176.383 172.587 181.675 172.813 181.675 172.813C181.675 172.813 180.661 174.502 178.522 173.488C177.058 173.376 170.64 173.15 170.527 173.15C170.527 173.15 170.077 173.15 169.739 173.376C169.627 173.488 169.401 173.601 169.627 174.164C169.739 174.502 169.627 174.727 169.514 174.839C169.176 175.065 167.487 174.164 167.037 173.713Z" fill="#FCBE42"/>
<path d="M176.945 177.88L177.171 174.052C177.621 174.052 178.071 174.164 178.522 174.164L178.297 177.88C177.846 177.88 177.396 177.88 176.945 177.88Z" fill="#023EA1"/>
<path d="M165.91 177.091C166.023 175.74 166.135 174.502 166.135 173.15C170.076 173.376 173.117 173.601 175.931 173.826L175.706 177.654C172.891 177.654 169.851 177.429 165.91 177.091Z" fill="#FCBE42"/>
<path d="M194.849 176.641C195.074 176.641 195.299 176.754 195.525 176.866C195.862 176.979 196.2 177.204 196.425 177.317C196.2 177.429 195.862 177.542 195.525 177.655C195.187 177.767 194.962 177.767 194.736 177.767C194.849 177.317 194.849 176.979 194.849 176.641Z" fill="#414042"/>
<path d="M159.829 28.2339H123.346C114.789 28.2339 107.808 34.4269 107.808 42.8718V55.0325C107.808 59.6491 109.835 63.8153 113.1 66.6303C114.226 67.5311 114.451 69.2201 113.775 70.4587L107.02 92.4155C107.02 92.4155 129.765 70.5713 131.566 70.5713H159.829C168.386 70.5713 175.367 63.5901 175.367 55.0325V42.9844C175.367 34.4269 168.386 28.2339 159.829 28.2339Z" fill="#0083F9"/>
<path d="M179.308 38.481H215.79C224.348 38.481 231.329 44.6739 231.329 53.2315V65.3922C231.329 70.0088 229.302 74.175 226.037 76.99C224.911 78.0033 224.686 79.5797 225.361 80.8183L229.415 102.437C229.415 102.437 209.26 80.8183 207.571 80.8183H179.308C170.751 80.8183 163.77 73.8372 163.77 65.2796V53.2315C163.77 44.6739 170.751 38.481 179.308 38.481Z" fill="#FCBE42"/>
<path d="M177.619 60.438H141.137C132.579 60.438 125.598 66.631 125.598 75.0759V87.2367C125.598 91.8532 127.625 96.0194 130.89 98.8344C132.016 99.8478 132.241 101.424 131.566 102.663L121.77 127.322C121.77 127.322 147.555 102.663 149.356 102.663H177.619C186.176 102.663 193.158 95.6816 193.158 87.124V75.0759C193.158 66.5184 186.176 60.438 177.619 60.438Z" fill="#DE051F"/>
<path d="M135.846 73.8366H182.575C183.588 73.8366 184.377 73.0484 184.377 72.035C184.377 71.0216 183.588 70.2334 182.575 70.2334H135.846C134.833 70.2334 134.045 71.0216 134.045 72.035C133.932 72.9358 134.833 73.8366 135.846 73.8366Z" fill="white"/>
<path d="M182.575 79.3535H135.847C134.833 79.3535 134.045 80.1417 134.045 81.1551C134.045 82.1685 134.833 82.9567 135.847 82.9567H182.575C183.589 82.9567 184.377 82.1685 184.377 81.1551C184.377 80.1417 183.589 79.3535 182.575 79.3535Z" fill="white"/>
<path d="M182.575 88.5864H135.847C134.833 88.5864 134.045 89.3746 134.045 90.388C134.045 91.4014 134.833 92.1896 135.847 92.1896H182.575C183.589 92.1896 184.377 91.4014 184.377 90.388C184.377 89.4872 183.589 88.5864 182.575 88.5864Z" fill="white"/>
<path d="M38.1098 199.499C37.772 199.499 37.5468 199.836 37.209 200.399C38.5602 200.174 39.9114 199.949 41.3752 199.724C39.2358 199.611 38.1098 199.499 38.1098 199.499Z" fill="#EE384E"/>
<path d="M278.847 113.022C278.847 113.022 287.63 109.757 290.783 121.467C290.783 121.467 292.809 129.462 294.498 131.939C296.187 134.303 300.917 136.218 300.917 136.218C300.917 136.218 305.308 138.807 304.632 145.451C303.957 152.094 303.056 158.062 300.354 162.115C298.327 165.043 299.228 167.182 299.791 168.083C300.016 168.534 300.128 168.984 300.128 169.547C299.903 170.786 299.115 172.925 295.737 172.812C290.895 172.7 284.477 174.276 285.716 169.66C286.954 165.043 290.107 141.735 290.107 141.735L287.067 132.277L281.662 128.336L279.072 126.309C279.072 126.309 273.217 117.751 273.33 115.837C273.555 113.698 278.847 113.022 278.847 113.022Z" fill="#170856"/>
<path d="M249.232 81.7182C249.232 81.7182 266.235 69.2197 275.356 83.2946C284.476 97.3696 282.112 107.166 279.297 109.981C279.297 109.981 270.063 118.763 263.983 108.404C263.983 108.404 262.744 106.715 263.87 103.337C263.87 103.337 266.798 96.0184 260.38 97.3696C253.962 98.7208 248.444 98.383 246.305 95.568C244.166 92.753 242.927 95.568 243.04 96.4688C243.152 97.3696 241.688 102.662 238.761 97.5948C235.833 92.4152 240.45 83.8576 244.166 81.7182C244.166 81.7182 247.318 80.1419 249.232 81.7182Z" fill="#170856"/>
<path d="M278.51 109.981C278.51 109.981 279.186 112.796 278.961 113.247C278.961 113.247 275.132 115.724 274.119 115.837C274.119 115.837 272.88 113.472 273.105 112.571C273.218 112.684 278.06 110.094 278.51 109.981Z" fill="#EA4E59"/>
<path d="M22.2337 218.077C20.8825 202.539 20.0943 186.662 20.3195 170.786C14.6896 177.091 -4.00194 199.273 2.52883 211.209C4.55562 214.925 7.3706 217.514 10.636 219.429H22.4589C22.3463 218.978 22.2337 218.528 22.2337 218.077Z" fill="#C5ECFF"/>
<path d="M314.542 218.979C314.542 219.204 314.43 219.317 314.43 219.542H332.108C334.022 217.628 335.824 215.263 337.062 211.885C342.017 199.837 326.14 177.88 317.695 163.805C318.708 181.596 317.47 200.062 314.542 218.979Z" fill="#C5ECFF"/>
<path d="M31.467 155.022C28.3142 152.882 24.9362 156.148 21.5582 161.778C20.8826 162.904 20.3196 165.831 20.207 168.196C20.207 169.097 20.207 169.997 20.207 170.898C21.2204 169.772 21.7834 169.209 21.7834 169.209C21.7834 169.209 26.963 162.904 31.467 155.022Z" fill="#2626DB"/>
<path d="M22.2331 218.078C22.2331 218.528 22.3457 219.091 22.4583 219.542H32.9301C33.1553 217.74 33.6057 215.826 33.9435 214.024C34.3939 209.745 34.8443 205.241 35.0695 200.625C35.2947 200.625 35.5199 200.512 35.7451 200.512C36.0829 189.365 35.9703 177.317 35.2947 164.255C35.1821 161.665 34.5065 158.513 33.9435 157.499C33.1553 156.261 32.3671 155.36 31.5789 154.797C26.9623 162.791 22.0079 168.872 22.0079 168.872C22.0079 168.872 21.4449 169.547 20.4315 170.561C20.0937 186.663 20.8819 202.539 22.2331 218.078Z" fill="#2626DB"/>
<path d="M313.077 154.008C313.528 156.26 315.329 159.75 317.806 163.804C317.694 161.665 317.581 159.638 317.469 157.498C317.243 154.909 315.667 151.418 314.091 149.842C313.865 149.616 313.64 149.391 313.302 149.166C312.852 150.855 312.739 152.431 313.077 154.008Z" fill="#2626DB"/>
<path d="M286.843 140.272C285.605 140.947 284.253 143.875 283.916 146.239C281.551 161.665 280.875 177.092 281.551 192.63C290.446 191.842 299.567 191.054 299.567 191.054C299.792 191.054 300.017 191.392 300.355 191.955C301.819 194.995 304.184 204.228 304.296 205.692C305.197 212.335 302.495 216.727 298.779 219.542H314.543C314.543 219.316 314.655 219.204 314.655 218.979C317.583 200.062 318.821 181.596 317.921 163.805C315.443 159.751 313.642 156.373 313.191 154.009C312.854 152.432 312.966 150.743 313.417 149.167C303.846 140.497 294.838 135.768 286.843 140.272Z" fill="#2626DB"/>
<path d="M277.834 219.541H284.365L284.703 216.613C282.451 217.739 280.199 218.753 277.834 219.541Z" fill="#DE051F"/>
<path d="M284.59 216.613L284.252 219.541H298.665C302.493 216.726 305.083 212.447 304.182 205.691C303.957 204.227 301.705 194.994 300.241 191.954C299.791 197.584 298.665 203.101 295.174 207.493C292.247 211.434 288.643 214.361 284.59 216.613Z" fill="#DE051F"/>
<path d="M284.591 216.613L285.267 209.97C283.803 208.506 282.452 205.466 282.227 203.214C281.889 199.723 281.664 196.233 281.551 192.629C272.881 193.418 264.323 194.206 264.323 194.206L226.94 203.101C226.94 203.101 204.646 212.447 208.924 219.541H277.835C280.2 218.752 282.452 217.739 284.591 216.613Z" fill="#EE384E"/>
<path d="M285.267 209.969L284.591 216.613C288.645 214.473 292.248 211.546 295.288 207.492C298.666 203.101 299.904 197.583 300.355 191.953C300.017 191.39 299.792 190.94 299.567 191.053C299.567 191.053 290.446 191.841 281.551 192.629C281.663 196.119 281.889 199.61 282.226 203.213C282.452 205.465 283.803 208.505 285.267 209.969Z" fill="#EE384E"/>
<path d="M138.099 219.541H140.239C140.239 219.316 140.239 219.091 140.239 218.865C139.338 212.785 133.933 210.984 129.316 209.632C134.046 212.447 138.437 216.163 138.099 219.541Z" fill="#0058B7"/>
<path d="M33.6055 219.428C33.6055 219.428 33.7181 219.428 33.7181 219.541H136.859C134.72 214.136 128.977 214.023 123.009 212.109C116.704 210.082 110.398 208.056 104.093 206.141C96.0981 203.552 87.991 201.074 79.9964 198.485C79.9964 198.485 79.0956 198.372 77.5192 198.372C77.4066 197.359 77.294 196.458 77.294 195.557H78.1948C87.5406 198.147 96.8863 200.849 106.345 203.439C113.551 205.466 120.757 207.493 127.964 209.519C128.414 209.632 128.865 209.745 129.315 209.857C128.977 209.632 128.639 209.407 128.302 209.294C123.798 206.704 82.1358 195.895 82.1358 195.895L77.1814 194.431C77.1814 193.643 77.1814 192.855 77.1814 192.066C65.0207 192.517 53.3104 197.471 41.1496 199.836C39.7984 200.061 38.4472 200.286 36.9834 200.511C36.5331 200.624 35.9701 200.624 35.5197 200.737C35.4071 205.691 35.1819 210.533 34.8441 215.262C34.8441 216.726 34.2811 218.752 33.6055 219.428Z" fill="#0064E1"/>
<path d="M33.6066 219.429C34.1696 218.753 34.8451 216.727 34.9577 215.038C35.2955 210.421 35.5207 205.579 35.6333 200.512C35.4081 200.512 35.1829 200.625 34.9577 200.625C34.6199 205.241 34.2822 209.745 33.8318 214.024C33.494 215.826 33.1562 217.627 32.8184 219.542H33.7192C33.7192 219.429 33.6066 219.429 33.6066 219.429Z" fill="#0064E1"/>
<path d="M106.457 203.214C97.1111 200.625 87.7654 197.922 78.307 195.333H77.4062C77.5188 196.233 77.5188 197.247 77.6314 198.148C79.2078 198.26 80.1086 198.26 80.1086 198.26C88.1032 200.85 96.2104 203.327 104.205 205.917C110.51 207.944 116.816 209.97 123.122 211.885C129.089 213.799 134.719 213.911 136.971 219.316H138.21C138.548 215.938 134.156 212.335 129.427 209.407C128.977 209.295 128.526 209.182 128.076 209.07C120.87 207.268 113.663 205.241 106.457 203.214Z" fill="#0064E1"/>
</svg>
