<svg width="469" height="289" viewBox="0 0 469 289" fill="none" xmlns="http://www.w3.org/2000/svg">
<path d="M63.6474 70.2701C61.8622 64.5317 62.9349 58.292 66.8889 53.5778C72.0644 47.3962 82.29 41.9846 102.389 46.2703C141.068 54.5148 146.815 64.6988 146.815 64.6988L173.475 65.6721C173.475 65.6721 201.702 48.217 207.449 38.5198C213.196 28.8225 234.109 15.7258 244.562 23.4836C255.014 31.2414 294.742 48.217 308.852 49.1831C322.961 50.1565 363.738 49.1831 362.164 76.3355C360.591 103.488 386.656 106.43 386.656 106.43C386.656 106.43 428.553 103.488 423.847 126.282C419.142 149.076 416.526 158.773 405.032 161.199C393.53 163.625 257.629 212.598 257.629 212.598C257.629 212.598 237.765 209.686 232.018 195.623C226.271 181.56 179.222 196.596 179.222 196.596C179.222 196.596 169.811 215.511 158.834 216.477C147.856 217.451 131.132 207.267 129.566 201.441C128 195.623 25.0232 161.679 25.0232 161.679C25.0232 161.679 7.77429 135.979 18.7516 118.037C29.7289 100.096 45.1535 91.5678 54.4318 96.7978C54.4318 96.7978 64.7514 98.6356 65.276 85.0594C65.5422 78.2749 64.6339 73.4227 63.6474 70.2701Z" fill="#ECF2F5"/>
<path d="M292.646 101.186C310.899 101.186 325.695 87.459 325.695 70.5255C325.695 53.5921 310.899 39.8647 292.646 39.8647C274.393 39.8647 259.597 53.5921 259.597 70.5255C259.597 87.459 274.393 101.186 292.646 101.186Z" stroke="#2626DB" stroke-miterlimit="10" stroke-dasharray="6 6"/>
<path d="M70.8522 255.557C101.135 255.557 125.684 253.859 125.684 251.765C125.684 249.671 101.135 247.974 70.8522 247.974C40.5695 247.974 16.0205 249.671 16.0205 251.765C16.0205 253.859 40.5695 255.557 70.8522 255.557Z" fill="#E9E8EE"/>
<path d="M118.927 267.864C133.127 267.864 144.639 266.378 144.639 264.544C144.639 262.711 133.127 261.225 118.927 261.225C104.726 261.225 93.2136 262.711 93.2136 264.544C93.2136 266.378 104.726 267.864 118.927 267.864Z" fill="#E9E8EE"/>
<path d="M205.438 235.626C251.993 235.626 289.733 232.657 289.733 228.994C289.733 225.332 251.993 222.362 205.438 222.362C158.883 222.362 121.143 225.332 121.143 228.994C121.143 232.657 158.883 235.626 205.438 235.626Z" fill="#ECF2F5"/>
<path d="M340.594 264.151C396.105 264.151 441.105 261.195 441.105 257.548C441.105 253.902 396.105 250.945 340.594 250.945C285.084 250.945 240.084 253.902 240.084 257.548C240.084 261.195 285.084 264.151 340.594 264.151Z" fill="#ECF2F5"/>
<path d="M39.6526 175.134C57.9053 175.134 72.702 161.406 72.702 144.473C72.702 127.539 57.9053 113.812 39.6526 113.812C21.4 113.812 6.60327 127.539 6.60327 144.473C6.60327 161.406 21.4 175.134 39.6526 175.134Z" stroke="#2626DB" stroke-miterlimit="10" stroke-dasharray="6 6"/>
<path d="M136.867 221.686C155.119 221.686 169.916 207.959 169.916 191.026C169.916 174.092 155.119 160.365 136.867 160.365C118.614 160.365 103.817 174.092 103.817 191.026C103.817 207.959 118.614 221.686 136.867 221.686Z" stroke="#63C1F1" stroke-width="1.5" stroke-miterlimit="10" stroke-dasharray="6 6"/>
<path d="M405.267 119.121C433.94 115.147 460.655 133.489 464.938 160.089C469.221 186.689 449.451 211.473 420.778 215.447" stroke="#DE051F" stroke-miterlimit="10" stroke-dasharray="6 6"/>
<path d="M360.758 92.6846C360.758 92.6846 357.509 92.5902 352.694 93.2294L348.708 98.2051L348.81 93.8686C335.124 96.5199 314.344 105.048 312.605 132.374C312.605 132.367 346.383 151.638 360.758 92.6846Z" fill="#023EA1"/>
<path d="M339.733 96.3378L320.723 123.461L360.756 92.6841" stroke="white" stroke-miterlimit="10"/>
<path d="M354.746 110.894L320.045 125.037" stroke="white" stroke-miterlimit="10"/>
<path d="M352.037 75.6656C352.037 75.6656 352.037 80.852 348.216 78.7818C344.395 76.7116 341.788 76.6389 340.167 80.467C338.546 84.3023 335.814 85.7042 333.3 85.0142C330.787 84.3241 326.418 82.3919 324.516 87.7091C322.613 93.0262 318.111 103.123 324.148 105.753C330.184 108.375 339.713 104.852 341.169 100.842C342.626 96.8325 341.06 93.3967 345.93 92.0964C350.8 90.8035 351.473 95.278 355.741 92.2708C360.008 89.2708 364.627 86.5759 361.448 80.3217C358.591 74.7213 352.82 72.8254 352.037 75.6656Z" stroke="#EA4E59" stroke-miterlimit="10" stroke-linecap="round" stroke-linejoin="round"/>
<path d="M352.958 81.6587C352.958 81.6587 326.29 100.697 318.303 104.06" stroke="#EA4E59" stroke-miterlimit="10" stroke-linecap="round" stroke-linejoin="round"/>
<path d="M331.644 88.6455L330.861 96.7447L337.649 99.4614" stroke="#EA4E59" stroke-miterlimit="10" stroke-linecap="round" stroke-linejoin="round"/>
<path d="M345.074 81.0117L345.434 86.939L350.813 89.8446" stroke="#EA4E59" stroke-miterlimit="10" stroke-linecap="round" stroke-linejoin="round"/>
<path d="M72.4744 80.2644C72.4744 80.2644 79.6308 75.7318 81.0323 79.647C82.4338 83.5622 84.4461 83.3879 86.521 83.1046C88.5958 82.8213 92.1349 81.0126 93.3563 85.2184C94.5778 89.4242 93.2859 92.0755 95.4312 93.3975C97.5766 94.7195 103.997 102.637 99.6749 104.119C95.3529 105.601 90.2792 102.259 88.6037 100.342C86.9281 98.4241 83.1463 98.3878 80.2337 98.9907C77.321 99.5936 73.5236 98.3732 74.7842 95.09C76.0448 91.7994 74.2126 88.4871 71.5661 87.8116C68.9197 87.1288 67.6748 83.3952 72.4744 80.2644Z" fill="#023EA1"/>
<path d="M76.2803 84.0566L101.022 107.337" stroke="white" stroke-miterlimit="10" stroke-linecap="round" stroke-linejoin="round"/>
<path d="M88.3446 86.0259L86.3323 93.5149L77.8918 95.0912" stroke="white" stroke-miterlimit="10" stroke-linecap="round" stroke-linejoin="round"/>
<path d="M72.5288 91.547C72.5288 91.547 72.5288 95.7455 75.6216 94.0676C78.7143 92.3896 80.8205 92.3315 82.1359 95.4332C83.4513 98.5348 85.6593 99.668 87.6951 99.116C89.723 98.5639 93.262 96.9949 94.8045 101.302C96.3469 105.61 99.9878 113.774 95.102 115.903C90.2162 118.024 82.5039 115.176 81.3295 111.929C80.155 108.682 81.4156 105.9 77.4772 104.854C73.5389 103.808 72.9908 107.426 69.5379 105C66.0849 102.566 62.3502 100.387 64.9183 95.3315C67.2281 90.7843 71.8946 89.2516 72.5288 91.547Z" stroke="#FCBE42" stroke-miterlimit="10"/>
<path d="M71.7808 96.3916C71.7808 96.3916 93.3596 111.798 99.8191 114.522" stroke="#FCBE42" stroke-miterlimit="10"/>
<path d="M89.0266 102.05L89.6608 108.602L84.1643 110.796" stroke="#FCBE42" stroke-miterlimit="10"/>
<path d="M78.1611 95.8765L77.8714 100.663L73.5181 103.024" stroke="#FCBE42" stroke-miterlimit="10"/>
<path d="M215.583 31.7505C215.583 31.7505 215.482 35.041 216.265 39.9151L222.129 43.9247L217.024 43.8376C220.203 57.6825 230.335 78.6896 262.491 80.324C262.484 80.3312 284.994 46.0385 215.583 31.7505Z" fill="#023EA1"/>
<path d="M219.978 53.0264L245.597 59.9779L215.586 31.7505" stroke="white" stroke-miterlimit="10"/>
<path d="M237.037 37.7573L245.595 59.9775" stroke="white" stroke-miterlimit="10"/>
<path d="M271.02 33.2681C271.02 33.2681 268.616 30.1083 271.56 28.1834C274.504 26.2585 279.625 27.8638 279.875 30.5877C280.134 33.3117 278.051 34.5102 280.157 35.549C282.263 36.5877 287.588 40.2559 285.481 42.653C283.375 45.0501 279.758 44.055 280.016 48.0283C280.275 52.0016 287.4 54.9072 281.77 58.5536C276.133 62.2001 264.834 66.2461 263.409 56.5052C261.984 46.7644 271.169 51.3842 267.833 44.4254C264.498 37.4666 268.953 38.6506 271.028 36.8565C273.102 35.0623 271.02 33.2681 271.02 33.2681Z" fill="#FCBE42"/>
<path d="M275.795 38.1851C275.795 38.1851 272.882 48.0421 273.712 57.1946C274.542 66.3471 276.335 68.1776 276.335 68.1776" stroke="#E5F8FF" stroke-miterlimit="10"/>
<path d="M262.849 69.1806C262.849 69.1806 255.842 46.8732 257.713 30.8491" stroke="#EB4B57" stroke-miterlimit="10"/>
<path d="M260.548 21.0586C260.548 21.0586 263.656 27.5961 257.565 32.5137C257.557 32.521 253.869 27.2692 260.548 21.0586Z" stroke="#EB4B57" stroke-miterlimit="10"/>
<path d="M257.971 45.8999C257.971 45.8999 258.425 39.3188 266.732 37.4956C266.724 37.4956 268.251 43.4157 257.971 45.8999Z" stroke="#EB4B57" stroke-miterlimit="10"/>
<path d="M260.752 61.1907C260.752 61.1907 259.812 54.6533 267.571 51.3555C267.571 51.3555 270.312 56.8905 260.752 61.1907Z" stroke="#EB4B57" stroke-miterlimit="10"/>
<path d="M260.485 61.3216C260.485 61.3216 259.1 54.8494 250.604 54.0649C250.604 54.0577 249.939 60.1157 260.485 61.3216Z" stroke="#EB4B57" stroke-miterlimit="10"/>
<path d="M258.035 45.8348C258.035 45.8348 257.549 39.2537 249.234 37.4668C249.234 37.4668 247.746 43.3941 258.035 45.8348Z" stroke="#EB4B57" stroke-miterlimit="10"/>
<path d="M157.934 44.6363C157.934 44.6363 158.882 47.244 160.714 49.4232C162.546 51.6024 160.816 53.6072 160.816 53.6072C160.816 53.6072 156.376 55.7864 155.069 53.0043C155.069 53.0043 154.701 51.4934 154.638 50.4111C154.622 50.1714 154.567 49.9389 154.45 49.721C154.199 49.2561 153.8 47.8469 152.516 49.1254C152.516 49.1254 151.005 51.813 148.726 49.5612C148.64 49.4741 148.586 49.3651 148.554 49.2489L148.398 48.5152L147.638 48.4353C147.442 48.4135 147.286 48.2537 147.286 48.0721V47.3675H146.573C146.354 47.3675 146.174 47.2077 146.166 46.9971L146.01 39.784C146.01 39.784 149.079 36.9657 152.774 38.571C156.462 40.1836 156.76 39.6678 157.934 44.6363Z" fill="#FFBF9C"/>
<path d="M145.934 41.3972C145.941 41.6515 145.8 41.8912 145.573 42.0364C145.002 42.4069 143.914 42.7556 142.731 41.3246C140.985 39.2253 142.864 39.1817 142.864 39.1817C142.864 39.1817 141.298 34.9396 146.004 35.8258C146.004 35.8258 148.619 31.3005 151.837 35.0559C151.837 35.0559 157.24 32.913 157.545 37.5619C157.545 37.5619 161.272 40.1333 159.158 45.1672C159.041 45.4432 158.774 45.6393 158.453 45.6902C157.412 45.8645 155.235 45.7773 155.65 41.8621C155.697 41.4045 155.658 40.9323 155.502 40.4965C155.235 39.7556 154.656 39.0655 153.489 40.6345C153.489 40.6345 152.049 42.2907 151.571 40.1115C151.093 37.9324 147.085 39.5885 146.388 40.3512C145.996 40.7871 145.926 41.1575 145.934 41.3972Z" fill="#170D54"/>
<path d="M154.741 51.3343C154.741 51.3343 145.346 50.3319 145.04 58.4601L144.954 60.1599L170.831 59.7168C170.831 59.7168 171.967 50.666 165.296 50.666L161.428 50.7968C161.428 50.7968 161.373 53.7386 158.147 53.775C154.921 53.8113 154.741 51.3343 154.741 51.3343Z" fill="#F79F03"/>
<path d="M232.94 199.299C232.916 199.299 232.853 199.619 232.846 199.633C232.759 199.953 232.689 200.273 232.634 200.592C232.54 201.086 232.462 201.587 232.407 202.089C232.337 202.735 232.29 203.382 232.274 204.028C232.258 204.791 232.282 205.561 232.345 206.323C232.415 207.181 232.548 208.038 232.728 208.88C232.932 209.803 233.198 210.725 233.535 211.619C233.895 212.585 234.341 213.537 234.866 214.444C235.429 215.432 236.087 216.377 236.831 217.27C237.645 218.251 238.553 219.166 239.54 220.009C240.636 220.946 241.834 221.803 243.103 222.573C243.823 223.009 244.535 223.452 245.311 223.808C245.561 223.924 245.827 224.011 246.101 224.091C246.141 224.105 246.626 224.214 246.626 224.243V231.82H169.088L169.049 224.694C169.049 224.694 181.169 222.595 183.714 200.12C183.706 200.12 232.932 199.299 232.94 199.299Z" fill="#0064B7"/>
<path d="M233.152 211.358L183.354 202.626L183.707 200.12L233.253 199.576C233.253 199.576 230.505 202.314 233.152 211.358Z" fill="#023EA1"/>
<path d="M246.617 224.692H169.04L169.024 231.818H246.617V224.692Z" fill="#023EA1"/>
<path d="M317.426 58.9894H97.6218C88.4141 58.7134 88.4141 65.2944 88.4141 65.2944V165.042L90.9587 202.858C90.9587 202.858 304.406 202.313 315.845 202.313C327.276 202.313 327.276 194.09 327.276 194.09V190.255C327.276 190.255 327.276 75.1588 327.276 66.9361C327.276 58.7134 317.426 58.9894 317.426 58.9894ZM97.9429 192.448L98.5771 69.1298H100.48H317.105L317.74 191.352L97.9429 192.448Z" fill="#0064B7"/>
<path d="M97.9425 68.855H319.329L319.015 195.74L96.9873 195.464L97.9425 68.855Z" fill="#E9EEF2"/>
<path d="M304.272 86.4979H111.394C110.533 86.4979 109.828 85.8441 109.828 85.0451V74.2946C109.828 73.4956 110.533 72.8418 111.394 72.8418H304.272C305.133 72.8418 305.838 73.4956 305.838 74.2946V85.0451C305.838 85.8441 305.141 86.4979 304.272 86.4979Z" fill="white"/>
<path d="M118.716 84.0575C121.315 84.0575 123.421 82.0932 123.421 79.6701C123.421 77.247 121.315 75.2827 118.716 75.2827C116.117 75.2827 114.01 77.247 114.01 79.6701C114.01 82.0932 116.117 84.0575 118.716 84.0575Z" fill="#EE384E"/>
<path d="M164.717 81.6171H142.762C141.901 81.6171 141.197 80.9634 141.197 80.1644V79.6559C141.197 78.8569 141.901 78.2031 142.762 78.2031H164.717C165.578 78.2031 166.283 78.8569 166.283 79.6559V80.1644C166.283 80.9707 165.578 81.6171 164.717 81.6171Z" fill="#78C8F2"/>
<path d="M197.647 81.6171H176.734C175.873 81.6171 175.168 80.9634 175.168 80.1644V79.6559C175.168 78.8569 175.873 78.2031 176.734 78.2031H197.647C198.508 78.2031 199.213 78.8569 199.213 79.6559V80.1644C199.213 80.9707 198.508 81.6171 197.647 81.6171Z" fill="#DBE7F4"/>
<path d="M231.622 81.6171H210.709C209.847 81.6171 209.143 80.9634 209.143 80.1644V79.6559C209.143 78.8569 209.847 78.2031 210.709 78.2031H231.622C232.483 78.2031 233.188 78.8569 233.188 79.6559V80.1644C233.188 80.9707 232.483 81.6171 231.622 81.6171Z" fill="#DBE7F4"/>
<path d="M265.069 81.6171H244.156C243.295 81.6171 242.59 80.9634 242.59 80.1644V79.6559C242.59 78.8569 243.295 78.2031 244.156 78.2031H265.069C265.931 78.2031 266.635 78.8569 266.635 79.6559V80.1644C266.635 80.9707 265.938 81.6171 265.069 81.6171Z" fill="#DBE7F4"/>
<path d="M299.569 81.6171H278.656C277.795 81.6171 277.09 80.9634 277.09 80.1644V79.6559C277.09 78.8569 277.795 78.2031 278.656 78.2031H299.569C300.43 78.2031 301.135 78.8569 301.135 79.6559V80.1644C301.135 80.9707 300.438 81.6171 299.569 81.6171Z" fill="#DBE7F4"/>
<path d="M304.272 130.873H111.394C110.533 130.873 109.828 130.219 109.828 129.42V91.8512C109.828 91.0522 110.533 90.3984 111.394 90.3984H304.272C305.133 90.3984 305.838 91.0522 305.838 91.8512V129.42C305.838 130.219 305.141 130.873 304.272 130.873Z" fill="white"/>
<path d="M208.101 126.37H116.101C115.24 126.37 114.535 125.716 114.535 124.917V96.1447C114.535 95.3456 115.24 94.6919 116.101 94.6919H208.101C208.962 94.6919 209.667 95.3456 209.667 96.1447V124.917C209.667 125.716 208.962 126.37 208.101 126.37Z" fill="#DBE7F4"/>
<path d="M284.716 102.043H237.495C236.633 102.043 235.929 101.39 235.929 100.591V100.082C235.929 99.2831 236.633 98.6294 237.495 98.6294H284.716C285.577 98.6294 286.282 99.2831 286.282 100.082V100.591C286.282 101.39 285.585 102.043 284.716 102.043Z" fill="#61BFEE"/>
<path d="M268.697 125.831H252.74C250.837 125.831 249.295 124.4 249.295 122.635C249.295 120.87 250.837 119.439 252.74 119.439H268.697C270.6 119.439 272.142 120.87 272.142 122.635C272.142 124.4 270.6 125.831 268.697 125.831Z" fill="#EE384E"/>
<path d="M297.07 109.125H224.027C223.447 109.125 222.978 108.689 222.978 108.152C222.978 107.614 223.447 107.178 224.027 107.178H297.07C297.65 107.178 298.12 107.614 298.12 108.152C298.12 108.689 297.65 109.125 297.07 109.125Z" fill="#DAE6F4"/>
<path d="M285.976 113.825H224.027C223.447 113.825 222.978 113.389 222.978 112.851C222.978 112.314 223.447 111.878 224.027 111.878H285.976C286.555 111.878 287.025 112.314 287.025 112.851C287.025 113.389 286.555 113.825 285.976 113.825Z" fill="#DAE6F4"/>
<path d="M170.376 188.809H111.386C110.525 188.809 109.82 188.156 109.82 187.357V136.713C109.82 135.914 110.525 135.26 111.386 135.26H170.376C171.237 135.26 171.942 135.914 171.942 136.713V187.357C171.942 188.163 171.245 188.809 170.376 188.809Z" fill="white"/>
<path d="M166.986 166.495H115.396C114.535 166.495 113.83 165.841 113.83 165.042V141.101C113.83 140.302 114.535 139.648 115.396 139.648H166.986C167.848 139.648 168.552 140.302 168.552 141.101V165.042C168.552 165.841 167.848 166.495 166.986 166.495Z" fill="#67C2EF"/>
<path d="M167.229 173.651H115.153C114.425 173.651 113.83 173.098 113.83 172.423C113.83 171.747 114.425 171.195 115.153 171.195H167.229C167.957 171.195 168.552 171.747 168.552 172.423C168.552 173.098 167.957 173.651 167.229 173.651Z" fill="#DAE6F4"/>
<path d="M167.229 178.363H115.153C114.425 178.363 113.83 177.811 113.83 177.136C113.83 176.46 114.425 175.908 115.153 175.908H167.229C167.957 175.908 168.552 176.46 168.552 177.136C168.552 177.811 167.957 178.363 167.229 178.363Z" fill="#DAE6F4"/>
<path d="M237.108 188.809H178.119C177.257 188.809 176.553 188.156 176.553 187.357V136.713C176.553 135.914 177.257 135.26 178.119 135.26H237.108C237.969 135.26 238.674 135.914 238.674 136.713V187.357C238.674 188.163 237.969 188.809 237.108 188.809Z" fill="white"/>
<path d="M233.719 166.495H182.128C181.267 166.495 180.562 165.841 180.562 165.042V141.101C180.562 140.302 181.267 139.648 182.128 139.648H233.719C234.58 139.648 235.285 140.302 235.285 141.101V165.042C235.285 165.841 234.58 166.495 233.719 166.495Z" fill="#EE384E"/>
<path d="M233.954 173.651H181.886C181.158 173.651 180.562 173.098 180.562 172.423C180.562 171.747 181.158 171.195 181.886 171.195H233.961C234.69 171.195 235.285 171.747 235.285 172.423C235.285 173.098 234.69 173.651 233.954 173.651Z" fill="#DAE6F4"/>
<path d="M233.954 178.363H181.886C181.158 178.363 180.562 177.811 180.562 177.136C180.562 176.46 181.158 175.908 181.886 175.908H233.961C234.69 175.908 235.285 176.46 235.285 177.136C235.285 177.811 234.69 178.363 233.954 178.363Z" fill="#DAE6F4"/>
<path d="M233.954 183.158H181.886C181.158 183.158 180.562 182.606 180.562 181.93C180.562 181.255 181.158 180.703 181.886 180.703H233.961C234.69 180.703 235.285 181.255 235.285 181.93C235.285 182.606 234.69 183.158 233.954 183.158Z" fill="#DAE6F4"/>
<path d="M304.275 188.809H245.286C244.424 188.809 243.72 188.156 243.72 187.357V136.713C243.72 135.914 244.424 135.26 245.286 135.26H304.275C305.136 135.26 305.841 135.914 305.841 136.713V187.357C305.841 188.163 305.144 188.809 304.275 188.809Z" fill="white"/>
<path d="M300.883 166.495H249.293C248.431 166.495 247.727 165.841 247.727 165.042V141.101C247.727 140.302 248.431 139.648 249.293 139.648H300.883C301.744 139.648 302.449 140.302 302.449 141.101V165.042C302.449 165.841 301.744 166.495 300.883 166.495Z" fill="#A1D2F0"/>
<path d="M301.125 173.651H249.05C248.322 173.651 247.727 173.098 247.727 172.423C247.727 171.747 248.322 171.195 249.05 171.195H301.125C301.854 171.195 302.449 171.747 302.449 172.423C302.449 173.098 301.854 173.651 301.125 173.651Z" fill="#DAE6F4"/>
<path d="M301.125 178.363H249.05C248.322 178.363 247.727 177.811 247.727 177.136C247.727 176.46 248.322 175.908 249.05 175.908H301.125C301.854 175.908 302.449 176.46 302.449 177.136C302.449 177.811 301.854 178.363 301.125 178.363Z" fill="#DAE6F4"/>
<path d="M301.125 183.158H249.05C248.322 183.158 247.727 182.606 247.727 181.93C247.727 181.255 248.322 180.703 249.05 180.703H301.125C301.854 180.703 302.449 181.255 302.449 181.93C302.449 182.606 301.854 183.158 301.125 183.158Z" fill="#DAE6F4"/>
<path d="M421.813 145.379H260.56C253.803 145.175 253.803 150.064 253.803 150.064V224.17V252.383C253.803 252.383 412.308 252.07 420.702 252.07C429.087 252.07 429.166 252.07 429.166 252.07L429.04 242.903C429.04 242.903 429.04 157.4 429.04 151.292C429.04 145.183 421.813 145.379 421.813 145.379Z" fill="#0064B7"/>
<path d="M421.017 247.974H262.48C261.619 247.974 260.914 247.32 260.914 246.521V152.548C260.914 151.749 261.619 151.096 262.48 151.096H421.017C421.878 151.096 422.583 151.749 422.583 152.548V246.514C422.583 247.32 421.878 247.974 421.017 247.974Z" fill="#E9EEF2"/>
<path d="M247.822 251.854L432.855 251.912L437.662 251.825C437.85 251.825 438.014 251.955 438.03 252.13C438.108 253.292 437.662 257.309 427.985 257.585C416.663 257.912 251.486 258.072 251.486 258.072C251.486 258.072 243.077 258.152 242.075 252.573L242.005 251.977C241.997 251.905 242.059 251.846 242.13 251.846H247.822V251.854Z" fill="#023EA1"/>
<path d="M416.57 165.057H265.636C264.775 165.057 264.07 164.403 264.07 163.604V155.629C264.07 154.83 264.775 154.176 265.636 154.176H416.57C417.432 154.176 418.136 154.83 418.136 155.629V163.604C418.136 164.411 417.439 165.057 416.57 165.057Z" fill="white"/>
<path d="M271.053 163.118C273.094 163.118 274.749 161.554 274.749 159.624C274.749 157.695 273.094 156.13 271.053 156.13C269.012 156.13 267.357 157.695 267.357 159.624C267.357 161.554 269.012 163.118 271.053 163.118Z" fill="#EE384E"/>
<path d="M341.745 148.961C342.242 148.961 342.646 148.577 342.646 148.104C342.646 147.63 342.242 147.247 341.745 147.247C341.248 147.247 340.845 147.63 340.845 148.104C340.845 148.577 341.248 148.961 341.745 148.961Z" fill="white"/>
<path d="M306.977 161.179H290.19C289.383 161.179 288.726 160.568 288.726 159.82C288.726 159.072 289.383 158.462 290.19 158.462H306.977C307.783 158.462 308.441 159.072 308.441 159.82C308.441 160.568 307.783 161.179 306.977 161.179Z" fill="#DBE7F4"/>
<path d="M332.861 161.179H316.896C316.089 161.179 315.432 160.568 315.432 159.82C315.432 159.072 316.089 158.462 316.896 158.462H332.861C333.667 158.462 334.325 159.072 334.325 159.82C334.325 160.568 333.667 161.179 332.861 161.179Z" fill="#78C8F2"/>
<path d="M359.56 161.179H343.595C342.788 161.179 342.131 160.568 342.131 159.82C342.131 159.072 342.788 158.462 343.595 158.462H359.56C360.366 158.462 361.024 159.072 361.024 159.82C361.024 160.568 360.374 161.179 359.56 161.179Z" fill="#DBE7F4"/>
<path d="M385.851 161.179H369.886C369.08 161.179 368.422 160.568 368.422 159.82C368.422 159.072 369.08 158.462 369.886 158.462H385.851C386.658 158.462 387.315 159.072 387.315 159.82C387.323 160.568 386.665 161.179 385.851 161.179Z" fill="#DBE7F4"/>
<path d="M412.973 161.179H397.008C396.202 161.179 395.544 160.568 395.544 159.82C395.544 159.072 396.202 158.462 397.008 158.462H412.973C413.779 158.462 414.437 159.072 414.437 159.82C414.437 160.568 413.779 161.179 412.973 161.179Z" fill="#DBE7F4"/>
<path d="M416.529 199.329H265.689C264.828 199.329 264.123 198.676 264.123 197.877V169.388C264.123 168.589 264.828 167.935 265.689 167.935H416.521C417.383 167.935 418.087 168.589 418.087 169.388V197.877C418.095 198.683 417.39 199.329 416.529 199.329Z" fill="white"/>
<path d="M340.979 195.834H269.384C268.522 195.834 267.818 195.18 267.818 194.381V172.713C267.818 171.914 268.522 171.26 269.384 171.26H340.979C341.84 171.26 342.545 171.914 342.545 172.713V194.381C342.545 195.187 341.84 195.834 340.979 195.834Z" fill="#A1D2F0"/>
<path d="M401.301 176.969H364.603C363.812 176.969 363.178 176.374 363.178 175.647C363.178 174.914 363.82 174.325 364.603 174.325H401.301C402.092 174.325 402.726 174.921 402.726 175.647C402.726 176.374 402.092 176.969 401.301 176.969Z" fill="#61BFEE"/>
<path d="M388.945 195.42H376.339C374.859 195.42 373.669 194.309 373.669 192.943C373.669 191.57 374.867 190.466 376.339 190.466H388.945C390.425 190.466 391.615 191.578 391.615 192.943C391.623 194.309 390.425 195.42 388.945 195.42Z" fill="#EE384E"/>
<path d="M411.213 182.461H353.821C353.367 182.461 353.007 182.12 353.007 181.706C353.007 181.284 353.375 180.95 353.821 180.95H411.213C411.667 180.95 412.027 181.292 412.027 181.706C412.027 182.12 411.659 182.461 411.213 182.461Z" fill="#DAE6F4"/>
<path d="M402.5 186.108H353.815C353.361 186.108 353.001 185.766 353.001 185.352C353.001 184.931 353.369 184.597 353.815 184.597H402.5C402.955 184.597 403.315 184.938 403.315 185.352C403.315 185.766 402.947 186.108 402.5 186.108Z" fill="#DAE6F4"/>
<path d="M311.131 245.454H265.562C264.701 245.454 263.996 244.8 263.996 244.001V205.045C263.996 204.246 264.701 203.592 265.562 203.592H311.131C311.992 203.592 312.697 204.246 312.697 205.045V244.001C312.697 244.807 312 245.454 311.131 245.454Z" fill="white"/>
<path d="M308.476 228.011H268.709C267.847 228.011 267.143 227.357 267.143 226.558V208.479C267.143 207.68 267.847 207.026 268.709 207.026H308.476C309.337 207.026 310.042 207.68 310.042 208.479V226.558C310.042 227.357 309.337 228.011 308.476 228.011Z" fill="#67C2EF"/>
<path d="M309.003 233.599H268.171C267.6 233.599 267.138 233.17 267.138 232.64C267.138 232.11 267.6 231.681 268.171 231.681H309.003C309.575 231.681 310.037 232.11 310.037 232.64C310.045 233.17 309.575 233.599 309.003 233.599Z" fill="#DAE6F4"/>
<path d="M309.003 237.289H268.171C267.6 237.289 267.138 236.861 267.138 236.33C267.138 235.8 267.6 235.372 268.171 235.372H309.003C309.575 235.372 310.037 235.8 310.037 236.33C310.045 236.861 309.575 237.289 309.003 237.289Z" fill="#DAE6F4"/>
<path d="M363.169 245.519H317.6C316.739 245.519 316.034 244.865 316.034 244.066V205.11C316.034 204.311 316.739 203.657 317.6 203.657H363.169C364.031 203.657 364.735 204.311 364.735 205.11V244.066C364.735 244.865 364.031 245.519 363.169 245.519Z" fill="white"/>
<path d="M360.507 228.072H320.74C319.879 228.072 319.174 227.418 319.174 226.619V208.539C319.174 207.74 319.879 207.086 320.74 207.086H360.507C361.369 207.086 362.073 207.74 362.073 208.539V226.619C362.073 227.418 361.369 228.072 360.507 228.072Z" fill="#EE384E"/>
<path d="M361.04 233.665H320.208C319.636 233.665 319.174 233.236 319.174 232.706C319.174 232.176 319.636 231.747 320.208 231.747H361.04C361.611 231.747 362.073 232.176 362.073 232.706C362.073 233.229 361.611 233.665 361.04 233.665Z" fill="#DAE6F4"/>
<path d="M361.04 237.347H320.208C319.636 237.347 319.174 236.918 319.174 236.388C319.174 235.858 319.636 235.429 320.208 235.429H361.04C361.611 235.429 362.073 235.858 362.073 236.388C362.073 236.918 361.611 237.347 361.04 237.347Z" fill="#DAE6F4"/>
<path d="M361.04 241.094H320.208C319.636 241.094 319.174 240.665 319.174 240.135C319.174 239.605 319.636 239.176 320.208 239.176H361.04C361.611 239.176 362.073 239.605 362.073 240.135C362.073 240.665 361.611 241.094 361.04 241.094Z" fill="#DAE6F4"/>
<path d="M416.311 245.519H370.742C369.88 245.519 369.176 244.865 369.176 244.066V205.11C369.176 204.311 369.88 203.657 370.742 203.657H416.311C417.172 203.657 417.877 204.311 417.877 205.11V244.066C417.877 244.865 417.172 245.519 416.311 245.519Z" fill="white"/>
<path d="M413.646 228.072H373.879C373.017 228.072 372.313 227.418 372.313 226.619V208.539C372.313 207.74 373.017 207.086 373.879 207.086H413.646C414.507 207.086 415.212 207.74 415.212 208.539V226.619C415.212 227.418 414.507 228.072 413.646 228.072Z" fill="#A1D2F0"/>
<path d="M414.178 233.665H373.346C372.775 233.665 372.313 233.236 372.313 232.706C372.313 232.176 372.775 231.747 373.346 231.747H414.178C414.75 231.747 415.212 232.176 415.212 232.706C415.212 233.229 414.75 233.665 414.178 233.665Z" fill="#DAE6F4"/>
<path d="M414.178 237.347H373.346C372.775 237.347 372.313 236.918 372.313 236.388C372.313 235.858 372.775 235.429 373.346 235.429H414.178C414.75 235.429 415.212 235.858 415.212 236.388C415.212 236.918 414.75 237.347 414.178 237.347Z" fill="#DAE6F4"/>
<path d="M414.178 241.093H373.346C372.775 241.093 372.313 240.665 372.313 240.135C372.313 239.604 372.775 239.176 373.346 239.176H414.178C414.75 239.176 415.212 239.604 415.212 240.135C415.212 240.665 414.75 241.093 414.178 241.093Z" fill="#DAE6F4"/>
<path d="M103.927 252.136H26.8035C24.6425 252.136 22.8887 250.509 22.8887 248.504V145.306C22.8887 143.301 24.6425 141.674 26.8035 141.674H103.934C106.095 141.674 107.849 143.301 107.849 145.306V248.504C107.841 250.509 106.095 252.136 103.927 252.136Z" fill="#0064B7"/>
<path d="M99.3694 248.097H31.0157C28.8547 248.097 27.1008 246.47 27.1008 244.465V149.723C27.1008 147.718 28.8547 146.091 31.0157 146.091H99.3772C101.538 146.091 103.292 147.718 103.292 149.723V244.465C103.284 246.477 101.538 248.097 99.3694 248.097Z" fill="#E9EEF2"/>
<path d="M98.5925 160.567H32.0318C31.1705 160.567 30.4658 159.914 30.4658 159.115V151.451C30.4658 150.652 31.1705 149.999 32.0318 149.999H98.5925C99.4537 149.999 100.158 150.652 100.158 151.451V159.115C100.158 159.914 99.4537 160.567 98.5925 160.567Z" fill="white"/>
<path d="M37.169 159.174C39.396 159.174 41.2014 157.499 41.2014 155.433C41.2014 153.367 39.396 151.692 37.169 151.692C34.9421 151.692 33.1367 153.367 33.1367 155.433C33.1367 157.499 34.9421 159.174 37.169 159.174Z" fill="#EE384E"/>
<path d="M96.1752 153.26H89.9114C89.5904 153.26 89.3242 153.013 89.3242 152.715C89.3242 152.417 89.5904 152.17 89.9114 152.17H96.1752C96.4963 152.17 96.7625 152.417 96.7625 152.715C96.7625 153.013 96.4963 153.26 96.1752 153.26Z" fill="#D0ECFB"/>
<path d="M96.1752 155.295H89.9114C89.5904 155.295 89.3242 155.048 89.3242 154.75C89.3242 154.452 89.5904 154.205 89.9114 154.205H96.1752C96.4963 154.205 96.7625 154.452 96.7625 154.75C96.7625 155.048 96.4963 155.295 96.1752 155.295Z" fill="#D0ECFB"/>
<path d="M96.1752 157.445H89.9114C89.5904 157.445 89.3242 157.198 89.3242 156.9C89.3242 156.602 89.5904 156.355 89.9114 156.355H96.1752C96.4963 156.355 96.7625 156.602 96.7625 156.9C96.7625 157.198 96.4963 157.445 96.1752 157.445Z" fill="#D0ECFB"/>
<path d="M98.5924 183.681H32.0708C31.2096 183.681 30.5049 183.027 30.5049 182.228V164.845C30.5049 164.046 31.2096 163.393 32.0708 163.393H98.5924C99.4536 163.393 100.158 164.046 100.158 164.845V182.228C100.158 183.034 99.4536 183.681 98.5924 183.681Z" fill="white"/>
<path d="M63.9314 180.972H34.0374C33.1761 180.972 32.4714 180.318 32.4714 179.519V166.713C32.4714 165.914 33.1761 165.26 34.0374 165.26H63.9314C64.7926 165.26 65.4973 165.914 65.4973 166.713V179.519C65.4973 180.326 64.7926 180.972 63.9314 180.972Z" fill="#A1D2F0"/>
<path d="M72.889 170.148H92.4869C93.0663 170.148 93.5361 169.713 93.5361 169.175C93.5361 168.637 93.0663 168.202 92.4869 168.202H72.889C72.3096 168.202 71.8398 168.637 71.8398 169.175C71.8477 169.72 72.3175 170.148 72.889 170.148Z" fill="#7ACAF2"/>
<path d="M72.5698 172.757H96.5288C96.8185 172.757 97.0534 172.539 97.0534 172.27C97.0534 172.001 96.8185 171.783 96.5288 171.783H72.5698C72.2801 171.783 72.0452 172.001 72.0452 172.27C72.0452 172.539 72.2801 172.757 72.5698 172.757Z" fill="#ECF2F9"/>
<path d="M72.5698 175.422H92.4965C92.7862 175.422 93.0211 175.204 93.0211 174.935C93.0211 174.667 92.7862 174.449 92.4965 174.449H72.5698C72.2801 174.449 72.0452 174.667 72.0452 174.935C72.0452 175.211 72.2801 175.422 72.5698 175.422Z" fill="#ECF2F9"/>
<path d="M62.7411 219.399H32.0171C31.1558 219.399 30.4512 218.745 30.4512 217.946V187.954C30.4512 187.155 31.1558 186.501 32.0171 186.501H62.7411C63.6023 186.501 64.307 187.155 64.307 187.954V217.946C64.307 218.753 63.6023 219.399 62.7411 219.399Z" fill="white"/>
<path d="M60.8319 205.923H34.062C33.2008 205.923 32.4961 205.269 32.4961 204.47V190.698C32.4961 189.899 33.2008 189.245 34.062 189.245H60.8319C61.6932 189.245 62.3979 189.899 62.3979 190.698V204.47C62.3979 205.269 61.6932 205.923 60.8319 205.923Z" fill="#A1D2F0"/>
<path d="M61.7854 210.259H32.925C32.6353 210.259 32.4004 210.042 32.4004 209.773C32.4004 209.504 32.6353 209.286 32.925 209.286H61.7776C62.0673 209.286 62.3022 209.504 62.3022 209.773C62.3022 210.042 62.0751 210.259 61.7854 210.259Z" fill="#D9E5F1"/>
<path d="M61.7776 213.129H32.925C32.6353 213.129 32.4004 212.911 32.4004 212.642C32.4004 212.374 32.6353 212.156 32.925 212.156H61.7776C62.0673 212.156 62.3022 212.374 62.3022 212.642C62.3022 212.911 62.0673 213.129 61.7776 213.129Z" fill="#D9E5F1"/>
<path d="M45.7893 215.955H32.925C32.6353 215.955 32.4004 215.737 32.4004 215.469C32.4004 215.2 32.6353 214.982 32.925 214.982H45.7814C46.0711 214.982 46.306 215.2 46.306 215.469C46.3139 215.737 46.079 215.955 45.7893 215.955Z" fill="#D9E5F1"/>
<path d="M62.7411 246.827H32.0171C31.1558 246.827 30.4512 246.173 30.4512 245.374V223.713C30.4512 222.914 31.1558 222.26 32.0171 222.26H62.7411C63.6023 222.26 64.307 222.914 64.307 223.713V245.374C64.307 246.173 63.6023 246.827 62.7411 246.827Z" fill="white"/>
<path d="M60.8319 241.685H34.062C33.2008 241.685 32.4961 241.031 32.4961 240.232V226.46C32.4961 225.661 33.2008 225.007 34.062 225.007H60.8319C61.6932 225.007 62.3979 225.661 62.3979 226.46V240.232C62.3979 241.038 61.6932 241.685 60.8319 241.685Z" fill="#A1D2F0"/>
<path d="M61.7854 245.534H32.925C32.6353 245.534 32.4004 245.316 32.4004 245.047C32.4004 244.778 32.6353 244.561 32.925 244.561H61.7776C62.0673 244.561 62.3022 244.778 62.3022 245.047C62.3022 245.316 62.0751 245.534 61.7854 245.534Z" fill="#D9E5F1"/>
<path d="M98.9386 246.857H68.2146C67.3534 246.857 66.6487 246.203 66.6487 245.404V223.75C66.6487 222.951 67.3534 222.297 68.2146 222.297H98.9386C99.7998 222.297 100.505 222.951 100.505 223.75V245.411C100.505 246.21 99.7998 246.857 98.9386 246.857Z" fill="white"/>
<path d="M97.027 241.712H70.2571C69.3958 241.712 68.6912 241.058 68.6912 240.259V226.487C68.6912 225.688 69.3958 225.034 70.2571 225.034H97.027C97.8883 225.034 98.593 225.688 98.593 226.487V240.259C98.593 241.066 97.8883 241.712 97.027 241.712Z" fill="#DCE8F4"/>
<path d="M97.9817 245.564H69.1213C68.8316 245.564 68.5967 245.346 68.5967 245.077C68.5967 244.808 68.8316 244.59 69.1213 244.59H97.9739C98.2636 244.59 98.4985 244.808 98.4985 245.077C98.4985 245.346 98.2714 245.564 97.9817 245.564Z" fill="#D9E5F1"/>
<path d="M98.5865 219.463H67.8626C67.0013 219.463 66.2966 218.809 66.2966 218.01V188.01C66.2966 187.211 67.0013 186.558 67.8626 186.558H98.5865C99.4478 186.558 100.152 187.211 100.152 188.01V218.003C100.152 218.809 99.4556 219.463 98.5865 219.463Z" fill="white"/>
<path d="M96.6767 205.983H69.9068C69.0455 205.983 68.3408 205.329 68.3408 204.53V190.758C68.3408 189.959 69.0455 189.305 69.9068 189.305H96.6767C97.5379 189.305 98.2426 189.959 98.2426 190.758V204.53C98.2426 205.337 97.5458 205.983 96.6767 205.983Z" fill="#EE384E"/>
<path d="M97.6314 210.318H68.7787C68.489 210.318 68.2542 210.1 68.2542 209.831C68.2542 209.562 68.489 209.344 68.7787 209.344H97.6314C97.9211 209.344 98.156 209.562 98.156 209.831C98.156 210.1 97.9211 210.318 97.6314 210.318Z" fill="#D9E5F1"/>
<path d="M97.6235 213.188H68.7787C68.489 213.188 68.2542 212.97 68.2542 212.701C68.2542 212.432 68.489 212.214 68.7787 212.214H97.6314C97.9211 212.214 98.156 212.432 98.156 212.701C98.1481 212.97 97.9132 213.188 97.6235 213.188Z" fill="#D9E5F1"/>
<path d="M81.6352 216.013H68.7787C68.489 216.013 68.2542 215.795 68.2542 215.527C68.2542 215.258 68.489 215.04 68.7787 215.04H81.6352C81.9249 215.04 82.1598 215.258 82.1598 215.527C82.1598 215.795 81.9249 216.013 81.6352 216.013Z" fill="#D9E5F1"/>
<path d="M139.16 264.53L98.2022 264.574C96.0412 264.574 94.2874 262.954 94.2795 260.949L94.1777 181.221C94.1777 179.216 95.9238 177.589 98.0848 177.582L139.042 177.538C141.203 177.538 142.957 179.158 142.965 181.163L143.067 260.891C143.075 262.896 141.321 264.53 139.16 264.53Z" fill="#0064B7"/>
<path d="M135.471 259.596L101.771 259.632C99.6103 259.632 97.8564 258.012 97.8486 256.007L97.7546 185.642C97.7546 183.638 99.5007 182.01 101.662 182.003L135.361 181.967C137.522 181.967 139.276 183.587 139.284 185.591L139.378 255.957C139.385 257.961 137.632 259.589 135.471 259.596Z" fill="#E9EEF2"/>
<path d="M134.948 193.03L102.729 193.066C101.868 193.066 101.163 192.42 101.163 191.614L101.155 186.573C101.155 185.774 101.852 185.12 102.721 185.12L134.941 185.083C135.802 185.083 136.507 185.73 136.507 186.536L136.514 191.577C136.514 192.384 135.818 193.03 134.948 193.03Z" fill="white"/>
<path d="M105.412 191.897C107.111 191.897 108.489 190.619 108.489 189.042C108.489 187.466 107.111 186.188 105.412 186.188C103.712 186.188 102.335 187.466 102.335 189.042C102.335 190.619 103.712 191.897 105.412 191.897Z" fill="#EE384E"/>
<path d="M134.713 187.916L129.17 187.923C128.943 187.923 128.755 187.749 128.755 187.538C128.755 187.328 128.943 187.153 129.17 187.153L134.713 187.146C134.94 187.146 135.128 187.32 135.128 187.531C135.128 187.742 134.948 187.916 134.713 187.916Z" fill="#D0ECFB"/>
<path d="M134.713 189.363L129.17 189.37C128.943 189.37 128.755 189.196 128.755 188.985C128.755 188.774 128.943 188.6 129.17 188.6L134.713 188.593C134.94 188.593 135.128 188.767 135.128 188.978C135.136 189.188 134.948 189.363 134.713 189.363Z" fill="#D0ECFB"/>
<path d="M134.719 190.895L129.176 190.902C128.949 190.902 128.761 190.728 128.761 190.517C128.761 190.307 128.949 190.132 129.176 190.132L134.719 190.125C134.946 190.125 135.134 190.299 135.134 190.51C135.134 190.721 134.946 190.895 134.719 190.895Z" fill="#D0ECFB"/>
<path d="M134.987 223.074L102.767 223.11C101.906 223.11 101.201 222.464 101.201 221.658L101.17 197.68C101.17 196.88 101.867 196.227 102.736 196.227L134.955 196.19C135.817 196.19 136.521 196.837 136.521 197.643L136.553 221.621C136.553 222.42 135.856 223.067 134.987 223.074Z" fill="#FCFEFF"/>
<path d="M126.85 200.121L109.468 200.142C108.889 200.142 108.419 199.707 108.419 199.176C108.419 198.639 108.889 198.203 109.461 198.203L126.843 198.181C127.422 198.181 127.892 198.617 127.892 199.147C127.9 199.685 127.43 200.121 126.85 200.121Z" fill="#90D2F3"/>
<path d="M132.716 220.749L104.654 220.778C103.793 220.778 103.088 220.131 103.088 219.325L103.08 212.098C103.08 211.299 103.777 210.645 104.646 210.645L132.708 210.616C133.569 210.616 134.274 211.262 134.274 212.068L134.282 219.296C134.282 220.102 133.577 220.749 132.716 220.749Z" fill="#A1D2F0"/>
<path d="M131.128 203.272L105.478 203.301C104.875 203.301 104.382 202.844 104.382 202.284C104.382 201.725 104.875 201.267 105.478 201.267L131.128 201.238C131.731 201.238 132.224 201.696 132.224 202.255C132.224 202.815 131.731 203.272 131.128 203.272Z" fill="#ECF2F8"/>
<path d="M121.336 209.033L115.527 209.041C114.477 209.041 113.624 208.256 113.624 207.283C113.624 206.309 114.47 205.518 115.519 205.518L121.329 205.51C122.378 205.51 123.231 206.295 123.231 207.268C123.239 208.241 122.386 209.033 121.336 209.033Z" fill="#EE384E"/>
<path d="M136.545 259.62L101.304 259.656L101.264 227.616C101.264 226.817 101.961 226.163 102.83 226.163L134.94 226.126C135.801 226.126 136.506 226.773 136.506 227.579L136.545 259.62Z" fill="white"/>
<path d="M132.992 246.623L105.079 246.652C104.217 246.652 103.513 246.005 103.513 245.199L103.497 231.318C103.497 230.519 104.194 229.865 105.063 229.865L132.976 229.836C133.837 229.836 134.542 230.482 134.542 231.289L134.558 245.17C134.558 245.976 133.853 246.623 132.992 246.623Z" fill="#67C2EF"/>
<path d="M133.735 251.576L104.349 251.612C103.895 251.612 103.52 251.271 103.52 250.842C103.52 250.421 103.888 250.072 104.349 250.072L133.735 250.036C134.189 250.036 134.564 250.378 134.564 250.806C134.564 251.235 134.189 251.576 133.735 251.576Z" fill="#DAE6F4"/>
<path d="M133.742 254.525L104.357 254.561C103.903 254.561 103.527 254.22 103.527 253.791C103.527 253.37 103.895 253.021 104.357 253.021L133.742 252.985C134.196 252.985 134.572 253.326 134.572 253.755C134.564 254.183 134.196 254.525 133.742 254.525Z" fill="#DAE6F4"/>
<path d="M117.127 257.627L104.279 257.642C103.864 257.642 103.527 257.329 103.527 256.944C103.527 256.559 103.864 256.247 104.279 256.247L117.127 256.232C117.542 256.232 117.879 256.545 117.879 256.93C117.871 257.315 117.542 257.627 117.127 257.627Z" fill="#DAE6F4"/>
<path d="M140.686 59.5069C140.686 59.5069 139.903 56.7612 141.947 56.6377C143.991 56.5142 144.124 58.0905 144.124 59.4633C144.124 59.4633 143.396 59.6667 143.168 59.4851C142.941 59.3035 142.519 59.4561 142.354 59.5142C142.19 59.5795 140.882 59.7394 140.686 59.5069Z" fill="#FFBF9C"/>
<path d="M162.205 59.2231C162.205 59.2231 161.813 57.3273 163.951 57.2038C166.088 57.0803 166.48 58.4168 166.566 59.3829C166.652 60.349 166.527 60.7921 166.128 60.6323C165.744 60.4798 165.681 60.2328 165.681 60.2328C165.681 60.2328 165.517 60.3708 165.305 60.5161C165.11 60.6468 164.585 60.5306 164.476 60.3926C164.374 60.2546 163.575 60.3926 163.473 60.5161C163.309 60.705 162.604 60.5597 162.471 60.3127C162.338 60.073 162.205 59.2231 162.205 59.2231Z" fill="#FFBF9C"/>
<path d="M122.781 180.427H114.286C113.996 180.427 113.761 180.209 113.761 179.94C113.761 179.672 113.996 179.454 114.286 179.454H122.781C123.071 179.454 123.305 179.672 123.305 179.94C123.305 180.216 123.071 180.427 122.781 180.427Z" fill="white"/>
<path d="M39.9559 104.47C39.9559 104.47 35.1954 102.901 34.663 107.026C34.663 107.026 33.4494 110.019 32.2279 110.564C31.0143 111.101 27.992 112.133 28.7359 116.012C29.4797 119.891 30.6385 119.644 30.1687 121.903C29.6989 124.162 30.8577 124.409 32.549 124.46C34.2402 124.511 34.7178 123.036 34.7178 123.036L34.2402 118.024L35.352 109.968L38.9537 108.639C38.9537 108.639 40.8093 106.482 40.9659 105.646C41.1225 104.818 39.9559 104.47 39.9559 104.47Z" fill="#170856"/>
<path d="M39.3216 103.358C39.3216 103.358 38.57 104.085 38.7422 104.216C38.9223 104.346 40.9737 105.341 40.9737 105.341C40.9737 105.341 41.5687 104.274 41.5061 103.961C41.4591 103.642 39.3216 103.358 39.3216 103.358Z" fill="#F05051"/>
<path d="M51.9202 97.968C52.0299 97.9825 52.1003 98.0624 52.1003 98.1641C52.069 99.123 51.8341 103.75 49.8845 105.464C49.8845 105.464 48.851 106.714 46.8701 106.198C46.8701 106.198 45.0849 105.203 45.3589 107.229C45.633 109.256 44.7247 111.246 44.0122 111.537C43.2997 111.835 40.3635 111.094 39.6824 109.953C39.2361 109.191 38.9933 108.806 38.8837 108.639C38.8367 108.566 38.8446 108.479 38.9072 108.413C39.3065 107.985 40.8255 106.256 41.5302 103.874C42.3445 101.113 41.906 98.4619 44.6464 97.9099C47.058 97.4305 51.0198 97.859 51.9202 97.968Z" fill="#FFBE97"/>
<path d="M54.4874 97.7421C54.4796 97.6985 54.4717 97.6622 54.4717 97.6186C54.4483 97.3498 54.4796 97.0738 54.4483 96.805C54.3543 95.9624 54.0646 95.0762 53.3521 94.5024C52.8197 94.0811 52.1306 93.9068 51.4416 93.9068C51.285 93.9068 51.1363 93.8559 51.0345 93.7469C50.5647 93.253 49.0457 91.8511 46.9474 91.8511C44.4105 91.8511 40.0728 93.1223 38.9062 97.1392C38.9062 97.1464 38.9062 97.1537 38.8984 97.161C38.8279 97.4297 37.1758 103.735 40.4878 103.931C43.8781 104.127 45.2483 102.58 45.1465 101.178C45.1465 101.178 43.4788 98.4031 46.3131 99.1149C46.3131 99.1149 49.2258 99.6234 51.2537 98.5193C51.5043 98.3813 51.8253 98.4685 51.974 98.7009C52.3812 99.3474 53.1798 100.343 53.9315 99.5072C54.2055 99.2021 54.4796 98.8389 54.5579 98.4394C54.6048 98.1924 54.5187 97.9745 54.4874 97.7421Z" fill="#170856"/>
<path d="M38.8621 108.463C38.8621 108.463 40.5142 110.933 42.8709 110.904C45.2277 110.882 45.3764 108.616 45.3764 108.616C45.3764 108.616 50.1761 112.626 50.1213 115.277C50.0665 117.928 49.119 117.485 48.8528 118.371C48.5866 119.257 50.4423 128.635 50.4423 128.635L50.7163 129.187L37.1552 130.894C37.1552 130.894 36.6228 128.882 36.2548 128.243C35.8868 127.604 33.9763 111.151 33.9763 111.151L34.8767 110.265C34.8767 110.265 36.4662 108.594 38.8621 108.463Z" fill="#DE051F"/>
<path d="M32.8623 118.416C32.8623 118.416 31.5156 110.273 34.9293 109.873C38.2648 109.481 38.3196 112.031 38.4214 115.815C38.531 119.6 38.4762 120.428 38.4762 120.428L33.1833 121.314L32.8623 118.416Z" fill="#EE384E"/>
<path d="M38.3203 120.457C38.4064 120.442 38.4847 120.5 38.4847 120.573L38.7666 123.696C38.7509 124.169 38.8371 124.612 39.3147 124.43C39.5809 124.328 39.9097 124.183 40.3247 123.965C41.8359 123.181 46.4084 121.118 47.8335 120.479C48.084 120.362 48.2719 120.159 48.3737 119.912C48.5303 119.52 48.8983 118.939 49.7517 118.713C51.075 118.372 53.3534 118.416 53.4004 118.568C53.4552 118.713 53.7214 119.745 53.6118 120.094C53.5022 120.435 52.3982 120.144 52.3982 120.144C52.3982 120.144 50.3311 119.803 50.9184 120.486C51.2551 120.885 51.7327 120.936 52.0772 120.907C52.2181 120.9 52.2886 121.067 52.1711 121.147C51.8814 121.358 51.3803 121.605 50.5425 121.713C49.0079 121.91 38.1559 128.491 38.1559 128.491C38.1559 128.491 36.0419 130.016 34.8204 125.985C33.8887 122.912 33.4345 121.822 33.2623 121.474C33.2231 121.394 33.278 121.307 33.3719 121.292L38.3203 120.457Z" fill="#FEBD96"/>
<path d="M56.3508 124.836L50.1575 127.211L49.4998 123.615L52.0209 123.47L56.3508 124.836Z" fill="#FEBD96"/>
<path d="M60.603 113.36L70.3902 112.823L60.2272 124.699L50.8628 124.997L60.603 113.36Z" fill="#0064B7"/>
<path d="M60.6517 123.871C60.6517 123.871 60.2837 121.713 61.0745 121.365C61.8653 121.023 62.3821 121.822 62.3351 122.214C62.2803 122.65 60.7221 124.118 60.7221 124.118L60.6517 123.871Z" fill="#FEBD96"/>
<path d="M50.7137 129.181L69.8104 135.922C69.8104 135.922 72.1906 136.365 72.7779 142.328C73.3573 148.292 73.8349 168.057 73.8349 168.057L73.8584 168.696L69.0979 168.769L66.7177 147.704L55.4193 135.057L46.2664 129.725L50.7137 129.181Z" fill="#003EB0"/>
<path d="M37.0364 130.509L46.3068 129.732L65.8264 138.775C65.8264 138.775 71.1036 141.659 67.7133 146.882C64.3309 152.105 54.8882 168.034 54.8882 168.034L51.6388 165.783L59.9775 144.361C59.9775 144.361 60.1811 143.257 57.4015 143.068C54.8021 142.894 42.5094 141.783 40.9277 141.637C40.7946 141.623 40.6694 141.601 40.5363 141.558C39.5732 141.231 35.8227 139.538 37.0129 133.458L37.1538 130.887L37.0364 130.509Z" fill="#0064E1"/>
<path d="M73.8601 168.702L78.0098 170.816C78.2212 170.925 78.4561 171.005 78.691 171.041C79.1373 171.106 79.9203 171.303 79.9203 171.898C79.9203 171.898 80.0299 172.588 78.0177 172.436C76.0054 172.283 69.6555 172.334 69.6555 172.334C69.6555 172.334 68.8334 172.16 68.9665 170.467L69.0996 168.775L73.8601 168.702Z" fill="#130452"/>
<path d="M54.8895 168.042C54.8895 168.042 54.9286 169.037 56.0013 170.418C56.5964 171.18 57.2384 171.914 57.9039 172.626C58.0762 172.815 58.2719 172.967 58.3581 173.2C58.4207 173.352 58.4677 173.519 58.4755 173.679C58.4833 173.839 58.4442 174.013 58.2954 174.108C58.0684 174.253 57.7317 174.173 57.489 174.115C57.4185 174.093 57.348 174.071 57.2776 174.05C55.649 173.512 50.7789 169.829 49.7453 169.045C49.6122 168.943 49.5339 168.798 49.5339 168.638C49.5339 168.297 49.5966 167.694 50.0272 167.229C50.6614 166.539 51.648 165.791 51.648 165.791L54.8895 168.042Z" fill="#130452"/>
<path d="M203.104 278.214C218.339 278.214 230.688 276.721 230.688 274.88C230.688 273.039 218.339 271.546 203.104 271.546C187.87 271.546 175.52 273.039 175.52 274.88C175.52 276.721 187.87 278.214 203.104 278.214Z" fill="#ECF2F5"/>
<path d="M215.56 204.15L218.912 204.106L222.701 203.823C222.701 203.823 223.14 205.922 220.955 206.205C218.771 206.489 215.553 206.808 214.989 206.728C214.425 206.656 215.56 204.15 215.56 204.15Z" fill="#FFBF9C"/>
<path d="M213.111 188.803C213.111 188.803 216.564 192.152 217.089 193.888C217.613 195.624 216.478 198.333 216.133 199.103C215.781 199.873 216 209.854 216 209.854L201.977 209.897L202.04 188.781L213.111 188.803Z" fill="#0064B7"/>
<path d="M221.308 178.895C221.308 178.895 220.979 181.437 220.391 183.079V184.394C220.391 184.568 220.227 184.699 220.047 184.684L219.154 184.597L219.209 185.614C219.217 185.752 219.1 185.876 218.943 185.883L218.254 185.919C218.113 185.926 218.011 186.05 218.05 186.181L218.176 186.609C218.215 186.74 218.129 186.878 217.988 186.907C217.487 187.009 216.351 187.096 215.106 186.297C213.736 185.411 212.953 185.89 212.93 186.638C212.906 187.423 213.627 189.827 212.491 190.357C211.513 190.815 208.569 190.568 208.013 190.023C207.347 189.37 208.075 187.808 208.991 186.929C209.641 186.304 210.722 179.077 212.288 178.416C213.861 177.74 221.308 178.895 221.308 178.895Z" fill="#FFBD99"/>
<path d="M205.148 198.98L205.015 203.425C205.015 203.788 205.328 204.093 205.72 204.101C206.127 204.108 206.518 204.108 207.489 203.745C209.682 202.924 214.982 200.222 215.703 199.844C215.757 199.815 215.797 199.779 215.82 199.735C215.969 199.481 216.587 198.602 218.232 198.682C220.158 198.776 220.62 199.169 220.455 199.742C220.291 200.316 220.095 200.229 220.095 200.229L220.354 200.563C220.354 200.563 220.095 201.137 219.273 201.108C218.459 201.079 217.441 200.716 217.151 200.985C216.893 201.224 208.515 206.418 206.573 207.616C206.291 207.791 205.978 207.914 205.641 207.987C204.373 208.241 201.453 208.633 200.975 206.716C200.388 204.355 200.388 198.987 200.388 198.987L205.148 198.98Z" fill="#FFBF9C"/>
<path d="M205.187 191.111C205.414 190.994 205.688 191.154 205.688 191.394L205.735 199.399C205.735 199.587 205.571 199.747 205.367 199.747C205.07 199.755 204.545 199.762 203.598 199.769C202.063 199.791 200.818 199.784 200.247 199.776C200.059 199.776 199.91 199.631 199.91 199.449L200.027 193.835C200.027 193.718 200.098 193.617 200.207 193.558L205.187 191.111Z" fill="#0083F9"/>
<path d="M207.983 177.681C207.983 177.681 209.815 169.924 216.345 171.863C216.345 171.863 219.352 172.836 220.526 175.016C220.526 175.016 224.84 175.618 223.924 178.771C223.008 181.923 221.051 179.984 221.051 179.984C221.051 179.984 220.205 178.35 219.289 179.497C218.373 180.645 216.22 181.379 215.499 180.282C214.779 179.192 213.472 178.466 213.08 180.1C212.689 181.735 206.025 192.529 202.432 193.981C198.838 195.434 196.418 192.645 197.53 188.708C198.642 184.771 207.85 178.219 207.85 178.219L207.983 177.681Z" fill="#170D54"/>
<path d="M228.106 194.817L236.687 195.02L226.101 205.851L217.308 205.567L228.106 194.817Z" fill="#14094F"/>
<path d="M228.676 202.778C228.676 202.778 229.545 204.31 228.762 204.673C227.979 205.037 227.196 205.24 226.844 204.833C226.491 204.426 226.288 203.221 226.71 203.301C227.078 203.366 227.321 203.38 227.321 203.38L227.376 203.024C227.368 202.916 227.423 202.814 227.525 202.756C227.822 202.581 228.441 202.291 228.676 202.778Z" fill="#FFBF9C"/>
<path d="M213.533 209.781L215.999 209.745L216.085 271.916L210.683 272.003L207.809 231.347L213.533 209.781Z" fill="#DE051F"/>
<path d="M201.971 209.89C201.971 209.89 201.87 212.018 201.713 212.839C201.611 213.34 198.464 218.236 200.938 224.214C200.985 224.33 201.016 224.454 201.024 224.584C201.094 225.928 201.455 233.998 199.622 238.212L190.125 266.744L193.781 269.17C193.781 269.17 206.239 244.357 206.591 243.224C206.943 242.09 214.945 217.778 213.912 210.979L213.708 209.715L201.971 209.89Z" fill="#EE384E"/>
<path d="M216.085 271.916C216.085 271.916 219.311 273.572 220.791 273.935C221.91 274.211 222.184 274.996 222.247 275.359C222.263 275.461 222.176 275.548 222.067 275.548H210.682V271.989L216.085 271.916Z" fill="#1C1457"/>
<path d="M193.779 269.17C193.779 269.17 194.734 271.676 196.738 273.172C198.743 274.669 196.738 275.635 196.738 275.635L188.376 270.768C188.345 270.753 188.329 270.732 188.313 270.702C188.212 270.521 187.828 269.744 188.251 268.966C188.728 268.08 190.122 266.744 190.122 266.744L193.779 269.17Z" fill="#1C1457"/>
<path d="M13.2865 209.676L18.1865 208.401L16.8124 203.855L11.9124 205.13L13.2865 209.676Z" fill="#EE384E"/>
<path d="M341.621 67.7899L346.521 66.5151L345.147 61.9693L340.247 63.2441L341.621 67.7899Z" fill="#003EB0"/>
<path d="M152.552 253.713L157.452 252.438L156.078 247.893L151.178 249.167L152.552 253.713Z" fill="#003EB0"/>
<path d="M150.708 121.444L155.14 114.326H172.858L168.427 121.444H150.708Z" fill="#3A77FD"/>
<path d="M150.708 121.444L155.14 114.326H159.282L150.708 121.444Z" fill="#1F4BAF"/>
<path d="M164.001 114.327H172.864L164.001 100.089H155.138L164.001 114.327Z" fill="#FED125"/>
<path d="M164.004 114.327H172.867L161.968 111.051L164.004 114.327Z" fill="#B5950B"/>
<path d="M146.275 114.327L150.707 121.445L159.57 107.208L155.139 100.089L146.275 114.327Z" fill="#00A95B"/>
<path d="M157.44 110.622L159.569 107.208L155.138 100.089L157.44 110.622Z" fill="#007541"/>
<path d="M416.731 85.6045C415.799 85.6045 415.04 86.3236 415.04 87.1953V99.9506C415.04 100.83 415.799 101.541 416.731 101.541H426.894C427.825 101.541 428.585 100.822 428.585 99.9506V89.527L424.435 85.6045H416.731Z" fill="#00A457"/>
<path d="M424.436 85.6045L424.491 89.6142L428.586 89.5197L424.436 85.6045Z" fill="#78D0A8"/>
<path d="M415.04 98.1061L419.221 94.2126L421.703 96.7986L428.585 90.479V91.6267L421.703 97.9535L419.221 95.3603L415.04 99.2538V98.1061Z" fill="white"/>
<path opacity="0.7" d="M428.586 93.536V89.519L424.436 89.6135L428.586 93.536Z" fill="#00743E"/>
<path d="M367.862 49.3066C366.931 49.3066 366.171 50.0258 366.171 50.8974V63.6528C366.171 64.5317 366.931 65.2436 367.862 65.2436H378.025C378.957 65.2436 379.717 64.5244 379.717 63.6528V53.2291L375.567 49.3066H367.862Z" fill="#DD4435"/>
<path d="M375.568 49.3066L375.615 53.3236L379.718 53.2291L375.568 49.3066Z" fill="#EF9D95"/>
<path d="M379.719 57.2392V53.2295L375.616 53.3239L379.719 57.2392Z" fill="#BB3527"/>
<path d="M371.403 59.4404C373.241 59.4404 374.731 58.0582 374.731 56.3533C374.731 54.6483 373.241 53.2661 371.403 53.2661C369.565 53.2661 368.075 54.6483 368.075 56.3533C368.075 58.0582 369.565 59.4404 371.403 59.4404Z" fill="#F9DAD6"/>
<path opacity="0.5" d="M377.666 56.3535H371.293V62.2663H377.666V56.3535Z" fill="#B80C00"/>
<path d="M32.9998 67.1851C32.0681 67.1851 31.3086 67.9042 31.3086 68.7758V81.5312C31.3086 82.4101 32.0681 83.122 32.9998 83.122H43.1628C44.0946 83.122 44.8541 82.4029 44.8541 81.5312V71.1075L40.7043 67.1851H32.9998Z" fill="#00A75B"/>
<path d="M40.707 67.1851L40.7618 71.1947L44.8568 71.1075L40.707 67.1851Z" fill="#78D0A8"/>
<path d="M44.8545 75.1171V71.1074L40.7595 71.1946L44.8545 75.1171Z" fill="#00723D"/>
<path d="M42.514 73.0752H36.031V74.034H42.514V73.0752Z" fill="white"/>
<path d="M34.0253 74.4351C34.5485 74.4351 34.9727 74.0416 34.9727 73.5562C34.9727 73.0708 34.5485 72.6772 34.0253 72.6772C33.502 72.6772 33.0779 73.0708 33.0779 73.5562C33.0779 74.0416 33.502 74.4351 34.0253 74.4351Z" fill="white"/>
<path d="M42.514 75.5679H36.031V76.5267H42.514V75.5679Z" fill="white"/>
<path d="M34.0253 76.9268C34.5485 76.9268 34.9727 76.5333 34.9727 76.0479C34.9727 75.5624 34.5485 75.1689 34.0253 75.1689C33.502 75.1689 33.0779 75.5624 33.0779 76.0479C33.0779 76.5333 33.502 76.9268 34.0253 76.9268Z" fill="white"/>
<path d="M42.514 78.0659H36.031V79.0248H42.514V78.0659Z" fill="white"/>
<path d="M34.0253 79.4253C34.5485 79.4253 34.9727 79.0318 34.9727 78.5464C34.9727 78.061 34.5485 77.6675 34.0253 77.6675C33.502 77.6675 33.0779 78.061 33.0779 78.5464C33.0779 79.0318 33.502 79.4253 34.0253 79.4253Z" fill="white"/>
<path d="M178.565 26.5043C177.634 26.5043 176.874 27.2235 176.874 28.0951V40.8505C176.874 41.7294 177.634 42.4413 178.565 42.4413H188.728C189.66 42.4413 190.419 41.7221 190.419 40.8505V30.4196L186.27 26.4971H178.565V26.5043Z" fill="#DD4435"/>
<path d="M186.276 26.5044L186.323 30.5141L190.426 30.4196L186.276 26.5044Z" fill="#EF9D95"/>
<path d="M190.426 34.4368V30.4199L186.323 30.5144L190.426 34.4368Z" fill="#BB3527"/>
<path d="M181.251 34.8736L182.966 36.8276L185.354 33.8857L188.447 37.801L178.855 37.8082L181.251 34.8736Z" fill="white"/>
<path d="M2.07209 172.624C1.14034 172.624 0.380859 173.343 0.380859 174.215V186.97C0.380859 187.849 1.14034 188.561 2.07209 188.561H12.2351C13.1668 188.561 13.9263 187.842 13.9263 186.97V176.547L9.77656 172.624H2.07209Z" fill="#00A357"/>
<path d="M9.77539 172.624L9.82237 176.634L13.9252 176.539L9.77539 172.624Z" fill="#78D0A8"/>
<path d="M13.9231 180.558V176.541L9.82031 176.635L13.9231 180.558Z" fill="#00733D"/>
<path d="M11.4765 178.254H2.21387V178.828H11.4765V178.254Z" fill="white"/>
<path d="M2.83691 184.861L2.83691 178.258L2.18703 178.258L2.18703 184.861L2.83691 184.861Z" fill="white"/>
<path d="M5.61719 184.865L5.61719 178.262L4.96731 178.262L4.96731 184.865L5.61719 184.865Z" fill="white"/>
<path d="M11.4609 184.865L11.4609 178.262L10.8111 178.262L10.8111 184.865L11.4609 184.865Z" fill="white"/>
<path d="M11.4745 180.267H2.21191V180.841H11.4745V180.267Z" fill="white"/>
<path d="M11.4588 182.28H2.21191V182.854H11.4588V182.28Z" fill="white"/>
<path d="M11.4667 184.291H2.21191V184.864H11.4667V184.291Z" fill="white"/>
<path d="M313.976 27.0635C313.045 27.0635 312.285 27.7826 312.285 28.6543V41.4096C312.285 42.2885 313.045 43.0004 313.976 43.0004H324.139C325.071 43.0004 325.831 42.2813 325.831 41.4096V30.986L321.681 27.0635H313.976Z" fill="#377FFC"/>
<path d="M321.68 27.064L321.727 31.0736L325.829 30.9865L321.68 27.064Z" fill="#9FC2FF"/>
<path d="M325.832 34.995V30.9854L321.729 31.0725L325.832 34.995Z" fill="#1E53B0"/>
<path d="M323.105 32.7378H313.905V33.624H323.105V32.7378Z" fill="white"/>
<path d="M323.113 34.7632H313.905V35.6203H323.113V34.7632Z" fill="white"/>
<path d="M323.097 36.7759H313.905V37.633H323.097V36.7759Z" fill="white"/>
<path d="M319.409 38.7876H313.905V39.6447H319.409V38.7876Z" fill="white"/>
<path d="M460.397 156.566C464.726 156.566 468.235 153.31 468.235 149.295C468.235 145.279 464.726 142.023 460.397 142.023C456.069 142.023 452.56 145.279 452.56 149.295C452.56 153.31 456.069 156.566 460.397 156.566Z" fill="#003EB0"/>
<path d="M458.432 146.391L463.529 149.659L458.432 152.209V146.391Z" fill="white"/>
<path d="M7.83758 152.664C12.1662 152.664 15.6752 149.408 15.6752 145.393C15.6752 141.377 12.1662 138.122 7.83758 138.122C3.509 138.122 0 141.377 0 145.393C0 149.408 3.509 152.664 7.83758 152.664Z" fill="#FCBE42"/>
<path d="M5.0957 143.941L8.2276 148.307L10.5844 144.667" stroke="white" stroke-width="2" stroke-miterlimit="10"/>
<path d="M113.275 28.5761C112.343 28.5761 111.584 29.2952 111.584 30.1669V42.9223C111.584 43.8012 112.343 44.513 113.275 44.513H123.438C124.37 44.513 125.129 43.7939 125.129 42.9223V32.4913L120.98 28.5688H113.275V28.5761Z" fill="#367EFC"/>
<path d="M120.984 28.5767L121.038 32.5863L125.133 32.4919L120.984 28.5767Z" fill="#9FC2FF"/>
<path d="M125.13 36.5086V32.4917L121.035 32.5861L125.13 36.5086Z" fill="#1E53B0"/>
<path d="M121.074 37.3514L117.221 33.4507V35.8187H111.584V38.8913H117.221V41.2593L121.074 37.3514Z" fill="white"/>
<path d="M236.191 0.00726403C235.26 0.00726403 234.5 0.726387 234.5 1.59805V14.3534C234.5 15.2323 235.26 15.9442 236.191 15.9442H246.354C247.286 15.9442 248.046 15.2251 248.046 14.3534V3.92249L243.896 0H236.191V0.00726403Z" fill="#F6B500"/>
<path d="M243.896 0.00585938L243.943 4.01552L248.046 3.92108L243.896 0.00585938Z" fill="#FFE25D"/>
<path d="M248.044 7.93202V3.92236L243.942 4.01679L248.044 7.93202Z" fill="#D79F00"/>
<path d="M242.636 3.99463H237.649C237.132 3.99463 236.717 4.37961 236.717 4.85903V9.12292C236.717 9.60234 237.132 9.98732 237.649 9.98732H242.636C243.153 9.98732 243.568 9.60234 243.568 9.12292V4.85903C243.568 4.37961 243.145 3.99463 242.636 3.99463ZM242.91 8.86142H237.375V5.11327H242.91V8.86142Z" fill="white"/>
<path d="M245.095 6.26172H240.108C239.591 6.26172 239.176 6.64671 239.176 7.12612V11.39C239.176 11.8694 239.591 12.2544 240.108 12.2544H245.095C245.612 12.2544 246.027 11.8694 246.027 11.39V7.12612C246.019 6.64671 245.604 6.26172 245.095 6.26172ZM245.361 11.1285H239.826V7.38036H245.361V11.1285Z" fill="white"/>
<path fill-rule="evenodd" clip-rule="evenodd" d="M16.1609 112.25C15.926 111.044 15.3544 109.998 14.454 109.097C14.0782 108.72 13.6475 108.393 13.1856 108.109C12.3165 107.586 11.3612 107.267 10.3277 107.158C10.2024 107.143 10.0772 107.143 9.95188 107.122C9.65435 107.122 9.35682 107.122 9.05929 107.122C9.05146 107.143 9.02797 107.136 9.01231 107.136C8.78525 107.158 8.55818 107.18 8.33112 107.216C6.67904 107.507 5.3245 108.262 4.27531 109.475C3.41404 110.477 2.93642 111.618 2.83464 112.904C2.78766 113.521 2.83464 114.138 2.9834 114.741C3.09302 115.192 3.25744 115.628 3.47667 116.042C3.49233 116.078 3.51582 116.114 3.53148 116.151C3.89165 116.804 4.35361 117.393 4.93301 117.894C5.23837 118.163 5.55939 118.402 5.91173 118.606C6.99223 119.238 8.1667 119.572 9.45077 119.586C9.52907 119.586 9.55256 119.608 9.55256 119.681C9.55256 120.313 9.55256 120.952 9.55256 121.584C9.55256 121.606 9.55256 121.635 9.55256 121.664C9.57605 121.657 9.59171 121.649 9.59954 121.642C10.8836 121.083 12.0659 120.371 13.1229 119.485C13.3343 119.31 13.5301 119.122 13.7258 118.933C13.8119 118.853 13.8902 118.766 13.9764 118.686C14.1016 118.562 14.2113 118.417 14.3365 118.286C14.4775 118.134 14.6027 117.967 14.7202 117.807C14.9942 117.444 15.237 117.066 15.4405 116.659C15.5423 116.456 15.6441 116.252 15.7302 116.042C15.7302 116.034 15.7381 116.034 15.7381 116.027C15.973 115.453 16.1296 114.858 16.2078 114.255C16.2392 114.044 16.2548 113.826 16.2627 113.615C16.2783 113.158 16.247 112.7 16.1609 112.25ZM7.49334 116.078C7.37589 116.107 7.25844 116.122 7.141 116.143C7.04704 116.158 6.99223 116.107 6.95308 116.034C6.95308 115.802 6.95308 115.562 6.95308 115.33C6.96091 115.257 6.92959 115.184 6.9844 115.126C7.01572 115.097 7.04704 115.076 7.09402 115.068C7.22713 115.039 7.36023 115.01 7.47768 114.945C7.69691 114.821 7.83785 114.647 7.90048 114.415C7.90831 114.378 7.91614 114.342 7.9318 114.306C7.39938 114.306 6.86696 114.306 6.33453 114.306C6.28755 114.306 6.24058 114.306 6.20143 114.291C6.06832 114.255 5.95871 114.138 5.95871 114.008C5.95871 113.26 5.95871 112.511 5.95871 111.763C5.95088 111.647 5.95871 111.531 6.06832 111.444C6.13096 111.4 6.1936 111.371 6.2719 111.371C7.05487 111.371 7.83785 111.371 8.62865 111.371C8.84005 111.371 9.00448 111.567 8.94184 111.756C8.9575 111.792 8.9575 111.829 8.9575 111.865C8.9575 112.678 8.96533 113.499 8.9575 114.313C8.94967 114.858 8.72261 115.308 8.2998 115.678C8.27631 115.7 8.25282 115.715 8.23716 115.737C8.0101 115.882 7.76738 116.005 7.49334 116.078ZM11.8388 116.02C11.831 116.02 11.8154 116.027 11.8075 116.027C11.7997 116.027 11.7997 116.034 11.7919 116.034C11.6431 116.071 11.4865 116.107 11.3299 116.129C11.2125 116.143 11.1185 116.085 11.1185 115.969C11.1185 115.889 11.1185 115.809 11.1185 115.737C11.1185 115.599 11.1185 115.453 11.1263 115.315C11.1263 115.286 11.1263 115.257 11.1263 115.221C11.1263 115.112 11.1733 115.068 11.3143 115.039C11.4943 115.003 11.6666 114.945 11.8075 114.821C11.9798 114.676 12.0659 114.487 12.1051 114.284C11.6118 114.284 11.1185 114.284 10.6252 114.284C10.5704 114.284 10.5156 114.284 10.4608 114.284C10.2572 114.284 10.1241 114.153 10.1241 113.964C10.1241 113.223 10.1241 112.482 10.1241 111.749C10.1241 111.741 10.1241 111.734 10.1241 111.727C10.1085 111.589 10.1476 111.473 10.2807 111.4C10.3355 111.371 10.3903 111.356 10.4452 111.356C11.2281 111.356 12.0033 111.356 12.7862 111.356C12.9977 111.356 13.1621 111.553 13.0994 111.741C13.1151 111.778 13.1151 111.814 13.1151 111.85C13.1151 112.664 13.1151 113.485 13.1151 114.298C13.1151 115.025 12.6218 115.715 11.8937 115.991C11.8702 116.005 11.8545 116.013 11.8388 116.02C11.8545 116.034 11.8702 116.042 11.8858 116.042C11.8623 116.042 11.8467 116.034 11.8388 116.02Z" fill="url(#paint0_linear_2294_43249)"/>
<path fill-rule="evenodd" clip-rule="evenodd" d="M11.7935 116.042C11.6447 116.078 11.4881 116.114 11.3315 116.136C11.2141 116.151 11.1201 116.092 11.1201 115.976C11.1201 115.896 11.1201 115.816 11.1201 115.744C11.1201 115.606 11.1201 115.46 11.1279 115.322C11.1749 115.228 11.2689 115.213 11.355 115.192C11.7778 115.105 12.044 114.843 12.1067 114.444C12.1145 114.393 12.1458 114.342 12.1067 114.291C11.6134 114.291 11.1201 114.291 10.6268 114.291C10.572 114.291 10.5172 114.291 10.4624 114.291C10.2588 114.291 10.1257 114.16 10.1257 113.971C10.1257 113.23 10.1257 112.49 10.1257 111.756C10.1257 111.749 10.1257 111.741 10.1257 111.734C10.1492 111.727 10.1492 111.705 10.1571 111.691C10.2275 111.582 10.3215 111.523 10.4624 111.523C11.2376 111.523 12.0127 111.523 12.78 111.523C12.9366 111.523 13.0541 111.611 13.101 111.749C13.1167 111.785 13.1167 111.821 13.1167 111.858C13.1167 112.671 13.1167 113.492 13.1167 114.305C13.1167 115.032 12.6234 115.722 11.8953 115.998C11.8796 116.005 11.8561 116.012 11.8404 116.02C11.8326 116.02 11.817 116.027 11.8091 116.027C11.8013 116.034 11.7935 116.034 11.7935 116.042Z" fill="white"/>
<path fill-rule="evenodd" clip-rule="evenodd" d="M8.22937 115.721C8.01013 115.881 7.76741 116.005 7.49337 116.07C7.37592 116.099 7.25848 116.114 7.14103 116.135C7.04708 116.15 6.99227 116.099 6.95312 116.026C6.95312 115.794 6.95312 115.554 6.95312 115.322C6.99227 115.235 7.08622 115.213 7.17235 115.191C7.60299 115.097 7.85354 114.857 7.92401 114.457C7.93184 114.407 7.96316 114.349 7.93184 114.29C7.39941 114.29 6.86699 114.29 6.33457 114.29C6.28759 114.29 6.24061 114.29 6.20146 114.276C6.06836 114.24 5.95874 114.123 5.95874 113.993C5.95874 113.244 5.95874 112.496 5.95874 111.748C6.01355 111.61 6.11534 111.516 6.28759 111.516C7.06273 111.516 7.84571 111.516 8.62868 111.516C8.77745 111.516 8.90273 111.603 8.94187 111.741C8.95753 111.777 8.95753 111.813 8.95753 111.85C8.95753 112.663 8.96536 113.484 8.95753 114.298C8.9497 114.842 8.72264 115.293 8.29984 115.663C8.27635 115.685 8.25286 115.707 8.22937 115.721Z" fill="white"/>
<path fill-rule="evenodd" clip-rule="evenodd" d="M8.94213 111.74C8.90298 111.602 8.77771 111.515 8.62894 111.515C7.8538 111.515 7.07082 111.515 6.28785 111.515C6.11559 111.515 6.02164 111.61 5.959 111.748C5.95117 111.632 5.959 111.515 6.06862 111.428C6.13125 111.385 6.19389 111.355 6.27219 111.355C7.05516 111.355 7.83814 111.355 8.62894 111.355C8.84035 111.355 9.00477 111.552 8.94213 111.74Z" fill="#50A245"/>
<path fill-rule="evenodd" clip-rule="evenodd" d="M13.0974 111.74C13.0505 111.595 12.933 111.515 12.7764 111.515C12.0013 111.515 11.2261 111.515 10.4588 111.515C10.3179 111.515 10.2239 111.573 10.1535 111.682C10.1456 111.697 10.1456 111.719 10.1221 111.726C10.1065 111.588 10.1456 111.472 10.2787 111.399C10.3335 111.37 10.3884 111.355 10.4432 111.355C11.2261 111.355 12.0013 111.355 12.7843 111.355C12.9878 111.355 13.1601 111.552 13.0974 111.74Z" fill="#50A245"/>
<path fill-rule="evenodd" clip-rule="evenodd" d="M12.0976 114.292C12.1368 114.343 12.1054 114.394 12.0976 114.445C12.035 114.844 11.7766 115.098 11.346 115.193C11.252 115.214 11.158 115.229 11.1189 115.323C11.1189 115.294 11.1189 115.265 11.1189 115.229C11.1189 115.12 11.1659 115.076 11.3068 115.047C11.4869 115.011 11.6591 114.953 11.8001 114.83C11.9723 114.684 12.0585 114.503 12.0976 114.292Z" fill="#50A245"/>
<path fill-rule="evenodd" clip-rule="evenodd" d="M7.93746 114.292C7.97661 114.35 7.94529 114.408 7.92963 114.459C7.85917 114.866 7.60861 115.106 7.17798 115.193C7.09185 115.214 6.99789 115.229 6.95874 115.323C6.96657 115.251 6.93526 115.178 6.99006 115.12C7.02138 115.091 7.0527 115.069 7.09968 115.062C7.23279 115.033 7.36589 115.004 7.48334 114.938C7.70257 114.815 7.84351 114.641 7.90614 114.408C7.9218 114.365 7.92963 114.328 7.93746 114.292Z" fill="#50A245"/>
<path fill-rule="evenodd" clip-rule="evenodd" d="M11.7908 116.043C11.8 116.043 11.8 116.034 11.8093 116.034C11.8 116.034 11.7908 116.034 11.7908 116.043Z" fill="#58AC47"/>
<path d="M398.134 140.475C398.134 140.475 400.976 140.605 403.043 140.605C405.102 140.605 408.375 141.005 408.375 141.005C408.375 141.005 409.229 141.005 409.299 141.993C409.37 142.981 409.37 143.38 409.37 143.38C409.37 143.38 409.44 144.571 408.446 144.571C407.451 144.571 401.117 145.232 399.7 145.232C398.283 145.232 397.21 145.494 397.21 144.571C397.21 143.642 397.14 140.409 398.134 140.475Z" fill="#170856"/>
<path d="M400.485 112.561C400.485 112.561 402.333 122.062 402.473 124.568C402.614 127.074 402.904 128.991 401.119 129.979C399.342 130.967 396.421 131.89 396.421 131.89L392.796 114.929V112.946L400.485 112.561Z" fill="#FFBF99"/>
<path d="M369.116 112.03C369.116 112.03 368.122 116.323 367.832 118.495C367.55 120.674 366.908 124.894 366.838 125.889C366.767 126.884 366.626 128.526 368.545 129.783C370.463 131.039 372.53 131.766 372.53 131.766L376.445 112.037H369.116V112.03Z" fill="#FFBF99"/>
<path d="M383.157 98.3742C383.157 98.3742 383.157 100.35 382.241 101.2C381.325 102.05 380.111 103.459 380.111 103.459C380.111 103.459 382.241 106.568 386.508 106.139C390.768 105.718 391.535 102.892 391.535 102.892C391.535 102.892 387.503 102.398 387.041 98.8681C386.587 95.3379 385.976 95.3379 385.976 95.3379L383.157 98.3742Z" fill="#FFB07E"/>
<path d="M380.034 90.5367C380.034 90.5367 380.183 95.0548 382.469 98.585C384.756 102.115 387.496 100.14 388.561 98.3017C389.626 96.464 392.523 90.5367 391.912 88.9822C391.301 87.4277 382.931 86.7231 382.931 86.7231L380.034 90.5367Z" fill="#FFBF99"/>
<path d="M390.845 93.0794C390.845 93.0794 392.066 92.2295 392.066 93.0794C392.066 93.9293 391.455 95.2004 390.696 95.3384C389.936 95.4765 390.085 95.0551 390.242 94.4886C390.391 93.9292 390.845 93.0794 390.845 93.0794Z" fill="#FFBF99"/>
<path d="M380.4 94.8514C380.728 94.9895 381.096 95.033 381.096 94.5682C381.096 93.7183 380.486 92.4471 379.726 92.3091C378.967 92.1711 379.116 92.5924 379.272 93.159C379.327 93.3551 379.413 93.5803 379.507 93.7982C379.687 94.1977 380.133 94.7352 380.4 94.8514Z" fill="#FFBF99"/>
<path d="M380.268 92.585L380.12 91.1758C380.12 91.1758 381.49 91.3138 383.009 89.9046C383.009 89.9046 385.984 90.5293 388.341 90.3259C390.854 90.1153 391.935 89.4761 391.935 89.4761C391.935 89.4761 391.512 92.1492 391.097 92.9191C391.097 92.9191 392.311 92.447 392.765 91.1758C393.219 89.9046 393.133 88.5535 393.133 88.5535C393.133 88.5535 394.808 87.2824 395.262 85.8732C395.262 85.8732 390.698 84.8853 389.327 84.0354C387.957 83.1855 387.198 82.6262 387.198 82.6262C387.198 82.6262 385.068 81.4931 382.938 83.0475C380.809 84.602 379.438 85.4519 379.438 88.1322C379.431 88.1322 377.45 90.6746 380.268 92.585Z" fill="#170856"/>
<path d="M380.604 102.035C380.604 102.035 377.691 101.709 376.125 102.101C374.559 102.5 374.066 102.232 374.489 103.357C374.92 104.476 377.049 109.626 376.055 112.859C375.061 116.091 373.706 132.653 373.706 132.653C373.706 132.653 384.519 133.052 388.716 133.248C392.912 133.444 396.044 132.718 396.044 132.718C396.044 132.718 396.968 125.592 396.044 122.491C395.12 119.389 393.907 114.108 393.907 114.108C393.907 114.108 393.124 106.851 394.189 105.065C395.254 103.285 396.036 103.219 394.69 102.755C393.343 102.29 391.848 101.897 390.775 101.897C389.702 101.897 389.138 101.897 388.496 102.493C387.854 103.089 386.578 104.273 384.801 104.011C383.023 103.75 381.669 102.624 381.669 102.624C381.669 102.624 381.097 102.101 380.604 102.035Z" fill="#0083F9"/>
<path d="M375.444 102.592C375.444 102.592 374.449 102.127 372.954 103.319C371.349 104.597 370.182 107.343 369.61 109.057C369.039 110.771 368.687 112.486 368.687 112.486C368.687 112.486 370.746 113.474 372.883 113.539C375.021 113.604 376.438 113.735 376.438 113.735C376.438 113.735 377.362 108.585 377.15 106.275C376.939 103.98 376.579 103.188 375.444 102.592Z" fill="#023EA1"/>
<path d="M393.375 104.512C393.375 104.512 394.228 102.333 396.146 103.32C398.065 104.308 399.49 108.071 399.92 109.262C400.351 110.454 400.915 112.829 400.915 112.829C400.915 112.829 398.636 113.751 396.718 113.882C394.8 114.013 393.445 114.144 393.445 114.144C393.445 114.144 392.662 109.458 392.803 107.613C392.944 105.768 393.375 104.512 393.375 104.512Z" fill="#023EA1"/>
<path d="M377.685 134.069H392.271L384.747 136.212L377.685 134.069Z" fill="#BC0A28"/>
<path d="M364.702 130.248C364.702 130.248 391.307 137.97 397.14 139.88C397.14 139.88 399.059 140.345 399.129 141.267C399.2 142.19 398.988 143.512 398.777 144.173C398.565 144.834 397.923 145.364 396.859 145.161C395.794 144.965 371.96 140.541 362.502 138.231L359.8 137.439C359.8 137.439 357.812 136.582 358.164 134.338C358.516 132.093 360.301 130.117 361.578 129.979C362.854 129.849 364.702 130.248 364.702 130.248Z" fill="#EE384E"/>
<path d="M362.283 141.201C362.283 141.201 365.626 140.671 367.615 140.606C369.604 140.54 372.242 140.344 372.665 140.606C373.096 140.867 373.448 144.434 373.448 144.434C373.448 144.434 373.8 145.422 371.169 145.226C368.539 145.029 362.494 144.826 362.494 144.826C362.494 144.826 361.14 144.761 361.069 143.635C360.999 142.509 361.21 141.986 361.21 141.986C361.21 141.986 361.429 141.332 362.283 141.201Z" fill="#170856"/>
<path d="M378.145 138.035C378.145 138.035 394.29 133.481 400.052 131.897C405.815 130.314 409.017 128.861 410.865 131.367C412.713 133.873 412.572 136.648 410.435 137.439C408.297 138.231 391.51 141.863 384.542 143.178C377.573 144.5 373.016 145.357 372.374 145.088C371.732 144.827 371.02 142.909 371.168 141.856C371.317 140.803 371.38 140.403 372.734 139.873C374.089 139.343 378.145 138.035 378.145 138.035Z" fill="#DE051F"/>
<path d="M376.298 116.258H395.716C395.716 116.258 396.78 116.128 396.78 117.45C396.78 118.772 396.78 133.023 396.78 133.023C396.78 133.023 396.851 134.077 395.998 134.077C395.144 134.077 373.166 134.077 373.166 134.077C373.166 134.077 372.242 134.338 372.242 132.885C372.242 131.433 372.242 117.05 372.242 117.05C372.242 117.05 372.172 116.258 373.307 116.258C374.442 116.258 376.298 116.258 376.298 116.258Z" fill="#0064B7"/>
<path d="M385.745 125.052L384.37 124.03L383.269 125.306L384.645 126.328L385.745 125.052Z" fill="#569ED4"/>
<path d="M447.021 275.162C459.159 275.162 468.999 273.851 468.999 272.234C468.999 270.618 459.159 269.307 447.021 269.307C434.883 269.307 425.043 270.618 425.043 272.234C425.043 273.851 434.883 275.162 447.021 275.162Z" fill="#ECF2F5"/>
<path d="M444.625 197.396L426.327 184.009C426.327 184.009 425.826 183.703 425.105 182.73C424.377 181.764 422.976 180.798 422.161 181.009L420.353 179.44C420.353 179.44 419.718 179.323 420.353 179.868C420.987 180.413 421.347 181.088 421.347 181.088C421.347 181.088 420.783 181.365 420.94 181.575C420.94 181.575 420.486 181.699 420.533 182.018C420.533 182.018 419.444 182.331 420.509 183.318C421.574 184.306 421.934 184.706 423.117 185.185C424.291 185.672 425.176 186.239 426.335 187.248C427.493 188.258 442.331 201.478 442.331 201.478L444.625 197.396Z" fill="#FFBE9B"/>
<path d="M453.181 194.032C453.181 194.032 457.339 193.938 457.989 189.616C458.638 185.294 455.483 183.805 453.682 182.926C451.881 182.039 450.777 182.185 449.979 180.972C449.18 179.766 448.875 179.439 448.875 179.439C448.875 179.439 445.492 182.7 447.857 185.599C450.222 188.504 453.181 194.032 453.181 194.032Z" fill="#180857"/>
<path d="M459.947 269.351C459.994 269.365 459.994 269.431 460.01 269.474C460.127 269.946 460.761 272.699 459.156 272.728C457.52 272.765 451.311 272.801 450.449 272.808C450.387 272.808 450.34 272.772 450.324 272.714C450.262 272.489 450.152 271.929 450.567 271.755C450.567 271.755 454.176 270.201 455.413 269.285C456.525 268.45 459.454 269.205 459.947 269.351Z" fill="#170856"/>
<path d="M444.343 268.938C444.39 268.96 444.398 269.018 444.405 269.069C444.523 269.585 445.157 272.621 443.552 272.694C441.908 272.767 434.321 272.701 433.334 272.694C433.264 272.694 433.209 272.658 433.185 272.592C433.115 272.389 433.037 271.909 433.686 271.641C433.686 271.641 437.883 270.086 439.794 268.997C441.516 268.009 443.889 268.771 444.343 268.938Z" fill="#170856"/>
<path d="M460.933 221.025L459.994 269.402L455.398 269.286L451.749 238.581L452.188 230.054L454.85 220.93L460.933 221.025Z" fill="#0064E1"/>
<path d="M456.094 220.953C456.094 220.953 451.757 241.502 450.434 243.892L444.397 268.996H439.801L442.651 220.88L456.094 220.953Z" fill="#003EB0"/>
<path d="M447.858 185.598C447.858 185.598 445.564 187.363 445.533 190.422C445.501 193.472 446.073 193.589 447.404 193.589C448.735 193.589 449.792 193.48 449.941 194.148C450.09 194.816 449.91 197.453 449.612 198.238C449.307 199.022 455.108 198.238 455.108 198.238C455.108 198.238 453.511 194.206 453.268 192.434C453.026 190.669 453.3 188.678 452.149 187C450.998 185.322 449.643 184.029 447.858 185.598Z" fill="#FFBE9B"/>
<path d="M449.034 199.19L444.383 196.786L441.846 201.543L447.022 205.64L449.034 199.19Z" fill="#F79F03"/>
<path d="M456.095 198.804C456.095 198.804 458.883 201.738 459.854 208.828C460.824 215.917 460.942 221.031 460.942 221.031H442.652C442.652 221.031 444.045 211.029 445.275 205.733C446.504 200.438 448.712 198.302 448.712 198.302C448.712 198.302 449.283 197.656 449.98 198.077C450.677 198.499 452.337 198.578 453.817 197.932C455.297 197.285 455.626 198.208 456.095 198.804Z" fill="#FCBE42"/>
<path d="M452.391 188.265C452.391 188.265 453.385 188.04 453.839 188.519C454.294 188.998 453.745 190.03 452.845 190.342C451.937 190.647 452.391 188.265 452.391 188.265Z" fill="#FFBE9B"/>
<path d="M449.792 207.572C449.792 207.572 447.709 221.025 446.621 224.679C445.532 228.332 443.904 231.783 443.904 231.783C443.904 231.783 443.176 233.461 443.904 234.093C444.632 234.725 446.347 235.436 446.691 234.303C447.036 233.17 447.036 230.729 447.49 230.185C447.944 229.64 451.882 221.148 453.198 216.064C454.513 210.979 454.74 208.705 454.74 208.705L449.792 207.572Z" fill="#FFBE9B"/>
<path d="M449.031 208.255C449.031 208.255 450.284 200.845 453.635 200.809C453.635 200.809 455.538 200.809 455.585 203.497C455.632 206.184 455.358 209.373 455.358 209.373L449.031 208.255Z" fill="#F79F03"/>
<path d="M75.2916 289C82.7899 289 88.8684 287.175 88.8684 284.925C88.8684 282.674 82.7899 280.85 75.2916 280.85C67.7934 280.85 61.7148 282.674 61.7148 284.925C61.7148 287.175 67.7934 289 75.2916 289Z" fill="#ECF2F5"/>
<path d="M50.3687 240.602C50.3687 240.602 53.6024 239.382 53.3597 235.939C53.1169 232.496 51.2065 230.048 55.1527 231.05C59.1067 232.053 60.4378 232.496 63.3034 231.937C66.1691 231.384 68.565 230.273 67.3044 233.716C66.0439 237.159 64.6893 240.05 67.649 240.602C70.6008 241.154 73.7718 239.084 74.1555 244.474C74.5391 249.871 69.8413 255.936 62.2543 256.154C54.6672 256.379 51.3161 253.459 51.3161 253.459C51.3161 253.459 49.2804 250.801 52.4514 250.14C55.6225 249.486 58.8561 248.237 57.2432 246.857C55.6225 245.484 50.353 245.367 50.353 245.367C50.353 245.367 43.7761 244.162 50.3687 240.602Z" fill="#649EEA"/>
<path d="M85.0451 241.495C84.5127 238.059 84.9198 235.582 91.81 234.645C98.7002 233.708 102.709 237.543 103.132 241.495C103.555 245.447 97.5648 246.87 97.5648 246.87C97.5648 246.87 93.3133 247.996 95.4665 251.439C97.6197 254.882 98.5984 258.216 93.7126 258.718C88.819 259.219 83.4635 258.02 80.4882 256.175C77.5129 254.33 74.4514 249.66 77.8652 247.219C77.8652 247.219 78.8204 246.609 82.1167 246.442C85.3974 246.275 85.0451 241.495 85.0451 241.495Z" fill="#023EA1"/>
<path d="M60.8132 240.937C60.8132 240.937 66.529 252.936 67.3119 261.108" stroke="#023EA1" stroke-miterlimit="10"/>
<path d="M92.6077 242.904C92.6077 242.904 82.4838 256.851 80.0879 261.514" stroke="#649EEA" stroke-miterlimit="10"/>
<path d="M63.7801 260.163H87.0188C87.0188 260.163 89.5635 260.33 89.3521 263.555C89.1563 266.519 85.1005 265.88 83.0021 265.88C80.9038 265.88 63.279 265.88 63.279 265.88C63.279 265.88 60.4211 266.33 60.4211 263.33C60.429 260.33 61.5016 260.163 63.7801 260.163Z" fill="#0054A5"/>
<path d="M63.28 265.88L66.8034 284.926H82.4081L85.0467 270.63L63.3113 265.88H63.28Z" fill="#0054A5"/>
<path d="M63.3125 265.88L85.0479 270.63L85.9248 265.88H63.3125Z" fill="#006AD5"/>
<path d="M73.2998 260.882C73.2998 260.882 74.4743 239.752 81.2627 226.488" stroke="#FCBE42" stroke-miterlimit="10"/>
<path d="M86.8555 218.861C86.8555 218.861 87.4192 225.348 80.5917 227.883C80.5917 227.883 79.1118 222.348 86.8555 218.861Z" fill="#FCBE42"/>
<path d="M76.6211 239.513C76.6211 239.513 79.1344 233.978 86.8702 234.719C86.8702 234.719 86.2673 240.232 76.6211 239.513Z" fill="#FCBE42"/>
<path d="M74.0771 253.431C74.0771 253.431 75.3769 247.548 83.1205 246.872C83.1205 246.872 83.6842 252.393 74.0771 253.431Z" fill="#FCBE42"/>
<path d="M73.8103 253.466C73.8103 253.466 74.7107 247.517 67.6561 244.48C67.6561 244.48 65.1271 249.5 73.8103 253.466Z" fill="#FCBE42"/>
<path d="M76.6981 239.468C76.6981 239.468 78.405 233.672 71.828 229.822C71.8358 229.829 68.6335 234.507 76.6981 239.468Z" fill="#FCBE42"/>
<defs>
<linearGradient id="paint0_linear_2294_43249" x1="9.53792" y1="121.666" x2="9.53792" y2="107.118" gradientUnits="userSpaceOnUse">
<stop stop-color="#479843"/>
<stop offset="0.4946" stop-color="#63B946"/>
</linearGradient>
</defs>
</svg>
