<svg width="450" height="330" viewBox="0 0 450 330" fill="none" xmlns="http://www.w3.org/2000/svg">
<path d="M35.8529 140.444C15.9329 128.318 9.61294 102.39 21.7729 82.4459C33.9329 62.5015 59.9329 56.2788 79.9329 68.405" stroke="#2626DB" stroke-miterlimit="10" stroke-dasharray="6 6"/>
<path d="M27.488 90.8811C29.9271 86.894 28.6938 81.7087 24.7333 79.2993C20.7729 76.8899 15.585 78.1689 13.1459 82.156C10.7068 86.1431 11.9401 91.3284 15.9006 93.7378C19.861 96.1472 25.0489 94.8682 27.488 90.8811Z" fill="#FCBE42"/>
<path d="M17.3728 83.6426L18.2528 90.0248L22.8928 86.1955" stroke="white" stroke-miterlimit="10"/>
<path d="M222.413 317.79C255.594 317.79 282.493 314.683 282.493 310.85C282.493 307.016 255.594 303.909 222.413 303.909C189.232 303.909 162.333 307.016 162.333 310.85C162.333 314.683 189.232 317.79 222.413 317.79Z" fill="#ECF2F5"/>
<path d="M115.773 329.119C134.771 329.119 150.173 327.119 150.173 324.651C150.173 322.184 134.771 320.184 115.773 320.184C96.7742 320.184 81.3728 322.184 81.3728 324.651C81.3728 327.119 96.7742 329.119 115.773 329.119Z" fill="#ECF2F5"/>
<path d="M255.293 61.3845C255.293 61.3845 273.373 37.0523 296.093 52.1303C318.813 67.2083 307.453 78.6165 337.773 71.0376C368.093 63.4587 379.453 108.852 379.453 108.852" stroke="#2626DB" stroke-miterlimit="10" stroke-dasharray="6 6"/>
<path d="M307.293 126.323H288.733L267.773 186.635" stroke="#0064B7" stroke-width="2" stroke-miterlimit="10"/>
<path d="M347.773 166.133H307.773C306.893 166.133 306.173 165.415 306.173 164.537V83.6424C306.173 82.7649 306.893 82.0469 307.773 82.0469H347.773C348.653 82.0469 349.373 82.7649 349.373 83.6424V164.537C349.373 165.415 348.653 166.133 347.773 166.133Z" fill="white" stroke="#C6D7F1" stroke-miterlimit="10"/>
<path d="M327.933 160.867C328.463 160.867 328.893 160.439 328.893 159.91C328.893 159.381 328.463 158.953 327.933 158.953C327.403 158.953 326.973 159.381 326.973 159.91C326.973 160.439 327.403 160.867 327.933 160.867Z" fill="#A2D3F3"/>
<path d="M324.173 160.867C324.703 160.867 325.133 160.439 325.133 159.91C325.133 159.381 324.703 158.953 324.173 158.953C323.643 158.953 323.213 159.381 323.213 159.91C323.213 160.439 323.643 160.867 324.173 160.867Z" fill="#EE384E"/>
<path d="M331.373 160.867C331.903 160.867 332.333 160.439 332.333 159.91C332.333 159.381 331.903 158.953 331.373 158.953C330.843 158.953 330.413 159.381 330.413 159.91C330.413 160.439 330.843 160.867 331.373 160.867Z" fill="#A2D3F3"/>
<path d="M338.333 138.051H317.133C316.173 138.051 315.373 137.253 315.373 136.296C315.373 135.339 316.173 134.541 317.133 134.541H338.333C339.293 134.541 340.093 135.339 340.093 136.296C340.093 137.253 339.293 138.051 338.333 138.051Z" fill="#023EA1"/>
<path d="M345.053 144.034H310.413C309.693 144.034 309.213 143.476 309.213 142.838C309.213 142.12 309.773 141.641 310.413 141.641H345.053C345.773 141.641 346.253 142.199 346.253 142.838C346.253 143.476 345.693 144.034 345.053 144.034Z" fill="#C6D7F1"/>
<path d="M329.213 149.778H310.733C310.173 149.778 309.693 149.3 309.693 148.741C309.693 148.183 310.173 147.704 310.733 147.704H329.213C329.773 147.704 330.253 148.183 330.253 148.741C330.253 149.3 329.773 149.778 329.213 149.778Z" fill="#C6D7F1"/>
<path d="M327.293 115.234C335.069 115.234 341.373 108.877 341.373 101.034C341.373 93.1913 335.069 86.8335 327.293 86.8335C319.517 86.8335 313.213 93.1913 313.213 101.034C313.213 108.877 319.517 115.234 327.293 115.234Z" fill="#C6D7F1"/>
<mask id="mask0_2294_42570" style="mask-type:luminance" maskUnits="userSpaceOnUse" x="313" y="86" width="29" height="30">
<path d="M327.293 115.234C335.069 115.234 341.373 108.877 341.373 101.034C341.373 93.1913 335.069 86.8335 327.293 86.8335C319.517 86.8335 313.213 93.1913 313.213 101.034C313.213 108.877 319.517 115.234 327.293 115.234Z" fill="white"/>
</mask>
<g mask="url(#mask0_2294_42570)">
<path d="M325.773 105.98C325.773 105.98 325.773 107.895 324.973 108.772C324.173 109.65 323.053 111.006 323.053 111.006C323.053 111.006 324.973 114.038 328.893 113.639C332.813 113.24 333.453 110.448 333.453 110.448C333.453 110.448 329.773 109.969 329.373 106.539C328.973 103.108 328.413 103.108 328.413 103.108L325.773 105.98Z" fill="#FFB07E"/>
<path d="M323.453 109.57C323.453 109.57 320.813 109.251 319.373 109.65C317.933 110.049 317.453 109.81 317.853 110.847C318.253 111.964 320.173 116.99 319.293 120.101C318.413 123.292 317.133 139.487 317.133 139.487C317.133 139.487 326.973 139.886 330.813 140.045C334.653 140.205 337.453 139.567 337.453 139.567C337.453 139.567 338.253 132.626 337.453 129.594C336.653 126.563 335.533 121.377 335.533 121.377C335.533 121.377 334.813 114.277 335.773 112.522C336.733 110.767 337.453 110.687 336.253 110.288C335.053 109.81 333.693 109.411 332.653 109.411C331.693 109.411 331.133 109.411 330.573 109.969C330.013 110.528 328.813 111.724 327.213 111.485C325.613 111.246 324.333 110.129 324.333 110.129C324.333 110.129 323.853 109.65 323.453 109.57Z" fill="#F7A600"/>
<path d="M318.733 110.128C318.733 110.128 317.853 109.65 316.493 110.846C315.053 112.123 314.013 114.756 313.453 116.431C312.973 118.106 312.653 119.782 312.653 119.782C312.653 119.782 314.573 120.739 316.493 120.819C318.413 120.898 319.693 120.978 319.693 120.978C319.693 120.978 320.493 115.952 320.333 113.718C320.093 111.485 319.773 110.687 318.733 110.128Z" fill="#070707"/>
<path d="M335.053 111.963C335.053 111.963 335.853 109.809 337.533 110.767C339.293 111.724 340.573 115.394 340.973 116.591C341.373 117.787 341.853 120.101 341.853 120.101C341.853 120.101 339.773 120.978 338.013 121.138C336.253 121.297 335.053 121.377 335.053 121.377C335.053 121.377 334.333 116.83 334.493 114.995C334.653 113.24 335.053 111.963 335.053 111.963Z" fill="#070707"/>
<path d="M333.213 102.31C333.373 102.709 332.653 103.826 332.413 104.225C332.493 103.587 332.653 102.709 332.733 101.672C332.733 101.752 333.133 101.911 333.213 102.31Z" fill="#FFBF99"/>
<path d="M332.893 97.1248C332.733 93.455 327.773 93.3752 327.773 93.3752C327.773 93.3752 322.813 93.455 322.653 97.1248C322.573 98.8001 322.653 100.396 322.813 101.752C322.893 102.789 323.053 103.667 323.133 104.305C323.213 104.704 323.293 105.023 323.373 105.182C323.453 105.501 323.693 105.821 323.933 106.14C324.493 106.858 325.213 107.655 325.773 107.975C326.173 108.214 327.293 108.453 327.773 108.373C328.253 108.373 329.293 108.214 329.693 107.975C330.253 107.655 330.973 106.858 331.533 106.14C331.773 105.821 332.013 105.422 332.093 105.182C332.173 105.023 332.253 104.704 332.333 104.305C332.413 103.667 332.573 102.789 332.653 101.752C332.893 100.396 332.973 98.7204 332.893 97.1248Z" fill="#FFBF99"/>
<path d="M322.813 101.752C322.893 102.789 323.053 103.667 323.133 104.305C322.813 103.906 322.173 102.789 322.333 102.39C322.413 101.911 322.813 101.752 322.813 101.752Z" fill="#FFBF99"/>
<path d="M333.693 97.1248C333.613 96.1675 333.213 94.891 332.573 94.0932C332.333 93.7741 331.133 92.4977 332.013 92.1786C331.613 91.6999 331.053 92.2583 330.973 92.6572C330.973 92.8168 330.733 93.1359 330.733 93.2157C330.573 92.2583 330.733 91.5404 329.773 90.9819C328.253 90.1044 326.653 92.1786 325.133 92.2583C324.413 92.2583 323.053 92.5775 322.893 91.5403C322.893 91.5403 322.573 91.8595 322.573 91.9392C322.493 92.0988 322.493 92.3381 322.493 92.4977C322.573 92.8168 322.813 93.3752 323.213 93.455C322.733 93.455 322.413 93.455 322.093 92.9764C322.013 93.2955 322.173 93.455 322.333 93.6943C322.093 93.6943 321.533 93.2157 321.453 92.9764C321.133 93.2955 321.373 93.7741 321.533 94.0932C321.613 94.173 322.413 94.8112 322.413 94.7315C322.333 95.6888 321.853 96.6461 321.613 97.6035C321.533 98.0821 321.373 98.6406 321.453 99.199C321.533 99.8372 321.773 100.475 321.933 101.114C322.253 102.071 322.573 102.47 322.653 102.709C322.733 102.47 322.893 102.071 322.893 101.832C323.133 100.795 322.893 99.6777 323.133 98.6406C323.533 97.1248 324.733 96.8855 326.253 97.2046C327.133 97.3641 328.173 97.2046 328.893 96.7259C329.293 96.4866 329.693 96.2472 330.013 95.8483C330.173 95.6888 330.333 95.4495 330.413 95.3697C330.493 95.7686 330.413 96.1675 330.653 96.4866C331.853 98.0023 331.933 99.8372 332.253 101.672C332.253 101.752 332.573 102.709 332.573 102.709C333.053 101.991 333.213 100.874 333.453 100.156C333.853 99.199 333.773 98.0023 333.693 97.1248Z" fill="#52331D"/>
<path d="M332.733 105.262C332.653 104.544 332.573 103.507 332.573 102.789C332.493 103.348 331.933 103.986 331.613 104.225C331.293 104.464 330.733 104.704 330.333 104.624C330.173 104.544 330.013 104.385 329.853 104.305C329.373 103.986 328.973 103.746 328.413 103.826C328.173 103.826 327.693 104.066 327.693 104.305H327.613C327.613 104.066 327.133 103.826 326.893 103.826C326.333 103.746 325.933 104.066 325.453 104.305C325.293 104.385 325.133 104.544 324.973 104.624C324.573 104.784 324.013 104.464 323.693 104.225C323.293 103.986 322.813 103.348 322.733 102.789C322.733 103.507 322.733 104.544 322.573 105.262C322.413 105.262 322.253 105.182 322.173 105.103C322.173 105.342 322.333 105.422 322.573 105.581C322.653 106.539 324.653 109.092 324.733 109.251C324.813 109.57 325.933 110.288 326.333 110.528C326.813 110.767 327.213 110.847 327.613 110.847H327.693C328.173 110.847 328.573 110.767 328.973 110.528C329.373 110.288 330.493 109.57 330.573 109.251C330.573 109.171 332.653 106.539 332.733 105.581C332.973 105.502 333.133 105.342 333.133 105.103C333.053 105.182 332.893 105.262 332.733 105.262ZM330.733 105.821C330.493 105.741 330.253 105.661 330.013 105.502C329.613 105.661 329.053 105.9 328.653 105.741C328.333 105.502 328.013 105.741 327.693 105.741V105.821C328.093 105.98 328.093 105.98 327.693 105.821H327.613C327.213 105.9 327.213 105.9 327.613 105.821C327.213 105.821 326.973 105.581 326.653 105.821C326.253 105.98 325.693 105.821 325.293 105.581C325.053 105.741 324.893 105.821 324.573 105.9C324.413 105.9 324.333 105.9 324.173 105.9C324.253 105.9 324.413 105.9 324.493 105.9C324.733 105.821 324.973 105.741 325.213 105.581C325.373 105.502 325.613 105.342 325.773 105.262C326.173 105.103 326.573 104.863 326.973 104.863C327.133 104.863 327.373 104.943 327.533 104.863H327.613C327.773 104.943 328.013 104.863 328.173 104.863C328.573 104.863 329.053 105.103 329.373 105.262C329.533 105.342 329.773 105.502 329.933 105.581C330.333 105.661 330.573 105.741 330.733 105.821Z" fill="#52331D"/>
<path d="M332.733 105.262C332.413 105.342 332.013 105.262 331.613 105.182C331.213 105.103 330.813 104.943 330.493 104.704C330.413 104.624 330.333 104.624 330.333 104.544C330.173 104.464 330.013 104.305 329.853 104.225C329.373 103.906 328.973 103.667 328.413 103.746C328.173 103.746 327.693 103.986 327.693 104.225H327.613C327.613 103.986 327.133 103.746 326.893 103.746C326.333 103.667 325.933 103.986 325.453 104.225C325.293 104.305 325.133 104.464 324.973 104.544C324.893 104.624 324.813 104.624 324.813 104.704C324.493 104.943 324.093 105.023 323.693 105.182C323.293 105.262 322.973 105.342 322.573 105.262C322.413 105.262 322.253 105.182 322.173 105.103C322.173 105.342 322.333 105.422 322.573 105.581C322.733 105.661 322.973 105.741 323.053 105.741C323.533 105.821 324.013 105.9 324.493 105.821C324.733 105.741 324.973 105.661 325.213 105.502C325.373 105.422 325.613 105.262 325.773 105.182C326.173 105.023 326.573 104.784 326.973 104.784C327.133 104.784 327.373 104.863 327.533 104.784H327.613C327.773 104.863 328.013 104.784 328.173 104.784C328.573 104.784 329.053 105.023 329.373 105.182C329.533 105.262 329.773 105.422 329.933 105.502C330.173 105.661 330.413 105.741 330.653 105.821C331.133 105.9 331.613 105.821 332.093 105.741C332.253 105.741 332.413 105.661 332.573 105.581C332.813 105.502 332.973 105.342 332.973 105.103C333.053 105.182 332.893 105.182 332.733 105.262Z" fill="#6B4732"/>
</g>
<path d="M441.053 166.133H397.853C396.973 166.133 396.253 165.415 396.253 164.537V83.6424C396.253 82.7649 396.973 82.0469 397.853 82.0469H441.053C441.933 82.0469 442.653 82.7649 442.653 83.6424V164.537C442.653 165.415 441.933 166.133 441.053 166.133Z" fill="white" stroke="#C6D7F1" stroke-miterlimit="10"/>
<path d="M421.053 119.303C428.829 119.303 435.133 112.945 435.133 105.103C435.133 97.2599 428.829 90.9021 421.053 90.9021C413.277 90.9021 406.973 97.2599 406.973 105.103C406.973 112.945 413.277 119.303 421.053 119.303Z" fill="#C6D7F1"/>
<path d="M431.613 138.051H410.413C409.453 138.051 408.653 137.253 408.653 136.296C408.653 135.339 409.453 134.541 410.413 134.541H431.613C432.573 134.541 433.373 135.339 433.373 136.296C433.373 137.253 432.573 138.051 431.613 138.051Z" fill="#023EA1"/>
<path d="M438.333 144.034H403.693C403.053 144.034 402.493 143.476 402.493 142.838C402.493 142.12 403.053 141.641 403.693 141.641H438.333C438.973 141.641 439.533 142.199 439.533 142.838C439.533 143.476 438.973 144.034 438.333 144.034Z" fill="#C6D7F1"/>
<path d="M429.693 158.554H412.893C411.213 158.554 409.853 157.198 409.853 155.522C409.853 153.847 411.213 152.491 412.893 152.491H429.693C431.373 152.491 432.733 153.847 432.733 155.522C432.733 157.198 431.373 158.554 429.693 158.554Z" fill="#EE384E"/>
<mask id="mask1_2294_42570" style="mask-type:luminance" maskUnits="userSpaceOnUse" x="406" y="90" width="30" height="30">
<path d="M421.053 119.303C428.829 119.303 435.133 112.945 435.133 105.103C435.133 97.2599 428.829 90.9021 421.053 90.9021C413.277 90.9021 406.973 97.2599 406.973 105.103C406.973 112.945 413.277 119.303 421.053 119.303Z" fill="white"/>
</mask>
<g mask="url(#mask1_2294_42570)">
<path d="M419.693 107.895C419.693 107.895 419.693 109.65 418.893 110.448C418.093 111.245 417.133 112.522 417.133 112.522C417.133 112.522 418.893 115.314 422.493 114.915C426.093 114.516 426.733 111.963 426.733 111.963C426.733 111.963 423.373 111.485 422.973 108.294C422.573 105.103 422.093 105.103 422.093 105.103L419.693 107.895Z" fill="#FFB07E"/>
<path d="M417.533 111.245C417.533 111.245 415.053 110.926 413.773 111.325C412.413 111.644 412.013 111.405 412.413 112.442C412.813 113.479 414.573 118.106 413.773 121.058C412.973 124.01 411.773 138.928 411.773 138.928C411.773 138.928 420.893 139.247 424.413 139.487C427.933 139.646 430.573 139.008 430.573 139.008C430.573 139.008 431.373 132.546 430.573 129.754C429.773 126.962 428.813 122.175 428.813 122.175C428.813 122.175 428.173 115.633 429.053 114.038C429.933 112.442 430.573 112.362 429.453 111.963C428.333 111.564 427.053 111.166 426.173 111.166C425.293 111.166 424.813 111.166 424.253 111.724C423.693 112.282 422.653 113.32 421.133 113.08C419.613 112.841 418.493 111.804 418.493 111.804C418.493 111.804 418.013 111.325 417.533 111.245Z" fill="#243641"/>
<path d="M413.213 111.724C413.213 111.724 412.413 111.325 411.133 112.362C409.773 113.479 408.813 116.032 408.333 117.548C407.853 119.064 407.533 120.659 407.533 120.659C407.533 120.659 409.293 121.537 411.053 121.617C412.813 121.696 414.013 121.776 414.013 121.776C414.013 121.776 414.813 117.149 414.653 115.075C414.493 113.001 414.173 112.283 413.213 111.724Z" fill="#8EAACF"/>
<path d="M428.333 113.479C428.333 113.479 429.053 111.485 430.653 112.362C432.253 113.24 433.453 116.67 433.853 117.707C434.253 118.824 434.653 120.898 434.653 120.898C434.653 120.898 432.733 121.776 431.133 121.856C429.533 121.936 428.413 122.095 428.413 122.095C428.413 122.095 427.773 117.867 427.853 116.192C427.933 114.596 428.333 113.479 428.333 113.479Z" fill="#8EAACF"/>
<path d="M425.693 103.986C425.933 101.353 425.853 97.2842 421.293 97.2842C416.653 97.2842 416.653 101.353 416.893 103.986C416.573 103.347 415.613 103.507 415.693 104.544C415.773 105.501 417.053 105.98 417.053 105.9C417.453 108.134 419.613 109.331 421.293 109.331C422.973 109.331 425.133 108.054 425.533 105.9C425.533 105.98 426.813 105.501 426.893 104.544C426.893 103.587 425.933 103.347 425.693 103.986Z" fill="#FFBF99"/>
<path d="M426.653 99.9169C426.573 98.9595 426.253 97.8427 425.693 97.1247C425.453 96.8055 424.493 95.6089 425.213 95.2898C424.893 94.8909 424.413 95.3695 424.253 95.7684C424.253 95.8482 424.093 96.2471 424.093 96.3269C423.933 95.4493 424.093 94.7313 423.213 94.2527C421.853 93.4549 420.493 95.3695 419.133 95.4493C418.493 95.4493 417.293 95.7684 417.133 94.8111C417.133 94.8111 416.893 95.1302 416.813 95.21C416.733 95.3695 416.733 95.5291 416.733 95.6887C416.813 96.0078 417.053 96.5662 417.373 96.5662C416.973 96.5662 416.653 96.5662 416.413 96.0875C416.333 96.3269 416.493 96.5662 416.653 96.7258C416.413 96.7258 416.013 96.3269 415.933 96.0875C415.693 96.4067 415.853 96.8055 416.013 97.1247C416.093 97.2044 416.733 97.8427 416.813 97.7629C416.733 98.6404 416.333 99.518 416.173 100.396C416.093 100.874 416.413 102.071 416.573 101.911C416.573 102.23 416.893 103.666 416.893 103.906C417.053 103.507 417.133 103.108 417.293 102.709C417.293 102.55 417.373 102.31 417.453 102.151C417.533 101.832 417.533 101.592 417.613 101.273V101.193C418.013 99.8371 419.053 99.6775 420.253 99.9169C420.253 99.9169 420.333 99.9169 420.413 99.9169C421.133 99.9967 422.013 99.8371 422.653 99.4382C423.053 99.1989 423.373 98.9595 423.613 98.6404C423.613 98.6404 423.613 98.5607 423.693 98.5607C423.773 98.4011 423.933 98.2415 424.013 98.1618C424.093 98.5607 424.013 98.8798 424.253 99.1989C424.493 99.518 424.653 99.8371 424.813 100.156C425.133 100.874 425.613 102.39 425.693 102.39C425.773 102.869 425.853 103.347 425.853 103.746C425.853 103.347 426.093 102.151 426.093 101.752C426.173 101.991 426.653 100.715 426.653 99.9169Z" fill="#915F41"/>
</g>
<path d="M398.333 160.947H350.973C350.093 160.947 349.373 160.229 349.373 159.352V78.4569C349.373 77.5793 350.093 76.8613 350.973 76.8613H398.333C399.213 76.8613 399.933 77.5793 399.933 78.4569V159.352C399.933 160.229 399.213 160.947 398.333 160.947Z" fill="white" stroke="#C6D7F1" stroke-miterlimit="10"/>
<path d="M373.853 155.682C374.383 155.682 374.813 155.253 374.813 154.724C374.813 154.196 374.383 153.767 373.853 153.767C373.323 153.767 372.893 154.196 372.893 154.724C372.893 155.253 373.323 155.682 373.853 155.682Z" fill="#A2D3F3"/>
<path d="M370.093 155.682C370.623 155.682 371.053 155.253 371.053 154.724C371.053 154.196 370.623 153.767 370.093 153.767C369.563 153.767 369.133 154.196 369.133 154.724C369.133 155.253 369.563 155.682 370.093 155.682Z" fill="#EE384E"/>
<path d="M377.293 155.682C377.823 155.682 378.253 155.253 378.253 154.724C378.253 154.196 377.823 153.767 377.293 153.767C376.763 153.767 376.333 154.196 376.333 154.724C376.333 155.253 376.763 155.682 377.293 155.682Z" fill="#A2D3F3"/>
<path d="M374.573 113.08C382.349 113.08 388.653 106.723 388.653 98.8799C388.653 91.0372 382.349 84.6794 374.573 84.6794C366.797 84.6794 360.493 91.0372 360.493 98.8799C360.493 106.723 366.797 113.08 374.573 113.08Z" fill="#C6D7F1"/>
<path d="M385.213 132.865H364.013C363.053 132.865 362.253 132.068 362.253 131.11C362.253 130.153 363.053 129.355 364.013 129.355H385.213C386.173 129.355 386.973 130.153 386.973 131.11C386.973 132.068 386.173 132.865 385.213 132.865Z" fill="#023EA1"/>
<path d="M391.933 138.849H357.293C356.573 138.849 356.093 138.29 356.093 137.652C356.093 136.934 356.653 136.455 357.293 136.455H391.933C392.653 136.455 393.133 137.014 393.133 137.652C393.133 138.29 392.573 138.849 391.933 138.849Z" fill="#C6D7F1"/>
<mask id="mask2_2294_42570" style="mask-type:luminance" maskUnits="userSpaceOnUse" x="360" y="84" width="29" height="30">
<path d="M374.573 113.08C382.349 113.08 388.653 106.723 388.653 98.8799C388.653 91.0372 382.349 84.6794 374.573 84.6794C366.797 84.6794 360.493 91.0372 360.493 98.8799C360.493 106.723 366.797 113.08 374.573 113.08Z" fill="white"/>
</mask>
<g mask="url(#mask2_2294_42570)">
<path d="M370.813 94.8113C370.813 94.8911 370.813 94.8911 370.813 94.8113C371.053 94.7315 371.293 94.572 371.533 94.4922C371.613 94.4922 371.693 94.4124 371.773 94.4124C371.853 94.4124 371.933 94.3327 372.013 94.3327C372.013 94.3327 372.013 94.3327 372.093 94.3327C372.173 94.3327 372.253 94.2529 372.333 94.2529C372.413 94.2529 372.493 94.2529 372.573 94.1731H372.653C372.733 94.1731 372.733 94.1731 372.813 94.1731H372.893C372.973 94.1731 373.053 94.1731 373.133 94.1731C373.213 94.1731 373.213 94.1731 373.293 94.1731H373.373C373.453 94.1731 373.533 94.1731 373.533 94.1731C373.533 94.1731 373.533 94.1731 373.613 94.1731C373.693 94.1731 373.773 94.1731 373.853 94.1731C374.013 94.1731 374.253 94.1731 374.413 94.1731C377.933 94.4124 378.653 96.726 378.733 99.0395C379.133 99.1193 379.533 99.2789 379.613 99.8373C379.693 101.114 379.453 100.795 378.653 102.31C378.493 102.55 378.333 102.63 378.173 102.63C377.773 103.507 377.053 104.145 375.613 105.103L375.853 108.374C376.813 108.054 377.133 108.134 377.453 108.294C379.373 109.171 381.773 109.171 380.733 109.331C379.293 109.57 380.893 110.129 382.093 109.171C384.253 107.336 382.413 104.544 382.413 104.544C382.253 106.618 379.693 106.698 379.933 104.784C380.093 102.789 383.933 98.9598 382.413 94.0135C380.893 89.0673 372.813 88.5089 370.893 91.0618C368.733 93.7742 370.813 94.8113 370.813 94.8113Z" fill="#772635"/>
<path d="M372.573 104.544C372.573 104.544 372.573 106.299 371.853 107.017C371.133 107.735 370.093 109.012 370.093 109.012C370.093 109.012 371.853 111.724 375.293 111.325C378.733 110.926 379.373 108.453 379.373 108.453C379.373 108.453 376.093 108.054 375.693 104.943C375.293 101.832 374.813 101.832 374.813 101.832L372.573 104.544Z" fill="#FFB07E"/>
<path d="M370.492 107.735C370.492 107.735 368.093 107.416 366.813 107.815C365.533 108.134 365.132 107.895 365.452 108.932C365.772 109.889 367.532 114.437 366.732 117.309C365.932 120.181 364.812 134.7 364.812 134.7C364.812 134.7 373.612 135.019 377.052 135.179C380.492 135.338 383.052 134.7 383.052 134.7C383.052 134.7 383.772 128.478 383.052 125.685C382.332 122.973 381.292 118.346 381.292 118.346C381.292 118.346 380.652 111.964 381.532 110.448C382.412 108.932 383.052 108.852 381.932 108.453C380.812 108.054 379.612 107.735 378.732 107.735C377.852 107.735 377.372 107.735 376.892 108.214C376.412 108.693 375.292 109.81 373.852 109.57C372.412 109.331 371.292 108.374 371.292 108.374C371.292 108.374 370.892 107.815 370.492 107.735Z" fill="#3E4753"/>
<path d="M366.253 108.294C366.253 108.294 365.453 107.895 364.253 108.932C362.973 110.049 362.013 112.442 361.533 113.958C361.053 115.474 360.813 116.989 360.813 116.989C360.813 116.989 362.493 117.867 364.253 117.947C366.013 118.027 367.133 118.106 367.133 118.106C367.133 118.106 367.853 113.559 367.693 111.565C367.533 109.49 367.213 108.772 366.253 108.294Z" fill="#9DCAD1"/>
<path d="M380.973 109.969C380.973 109.969 381.693 108.055 383.213 108.932C384.733 109.81 385.933 113.081 386.333 114.118C386.733 115.155 387.133 117.229 387.133 117.229C387.133 117.229 385.293 118.027 383.693 118.186C382.093 118.266 381.053 118.426 381.053 118.426C381.053 118.426 380.413 114.277 380.573 112.682C380.573 111.086 380.973 109.969 380.973 109.969Z" fill="#9DCAD1"/>
<path d="M369.773 99.1193H370.013L370.413 102.231C370.413 102.231 369.613 103.028 369.213 102.31C368.413 100.795 368.173 101.114 368.253 99.8373C368.333 98.9597 369.613 99.0395 369.613 99.0395L369.773 99.1193Z" fill="#FFB07E"/>
<path d="M378.173 99.1192H377.933L377.533 102.231C377.533 102.231 378.333 103.028 378.733 102.231C379.533 100.715 379.773 101.034 379.693 99.7574C379.613 98.8799 378.333 98.9597 378.333 98.9597L378.173 99.1192Z" fill="#FFB07E"/>
<path d="M374.013 94.0933C369.213 94.0933 369.053 97.6035 369.213 100.396C369.373 103.188 371.613 105.821 374.013 105.821C376.173 105.821 378.573 103.268 378.813 100.396C378.973 97.6035 378.813 94.0933 374.013 94.0933Z" fill="#FDCBA7"/>
<path d="M370.573 94.2528C370.573 94.2528 369.933 92.3381 373.453 92.0988C376.973 91.8594 378.493 93.5348 378.013 94.6517L370.573 94.2528Z" fill="#EE2A7B"/>
<path d="M376.253 96.8854C376.253 96.8854 372.893 100.396 368.973 100.954C368.973 100.954 367.373 95.0505 371.293 93.2156C375.213 91.3808 377.693 94.0932 377.693 94.0932C377.693 94.0932 380.973 94.891 379.213 100.475C379.293 100.475 376.253 98.481 376.253 96.8854Z" fill="#772635"/>
</g>
<path d="M372.813 144.593H354.333C353.773 144.593 353.293 144.114 353.293 143.556C353.293 142.997 353.773 142.519 354.333 142.519H372.813C373.373 142.519 373.853 142.997 373.853 143.556C373.853 144.114 373.453 144.593 372.813 144.593Z" fill="#C6D7F1"/>
<path d="M120.813 77.1008H151.293L173.133 176.743" stroke="#0064B7" stroke-width="2" stroke-miterlimit="10"/>
<path d="M124.173 95.6092H55.3728C54.8928 95.6092 54.5728 95.2901 54.5728 94.8114V40.3232C54.5728 39.8445 54.8928 39.5254 55.3728 39.5254H124.093C124.573 39.5254 124.893 39.8445 124.893 40.3232V94.8912C124.973 95.2901 124.573 95.6092 124.173 95.6092Z" fill="white" stroke="#C6D7F1" stroke-miterlimit="10"/>
<path d="M82.9727 85.7168H67.0527C66.4927 85.7168 66.0127 85.2381 66.0127 84.6796V84.2808C66.0127 83.7223 66.4927 83.2437 67.0527 83.2437H82.9727C83.5327 83.2437 84.0127 83.7223 84.0127 84.2808V84.6796C84.0127 85.2381 83.5327 85.7168 82.9727 85.7168Z" fill="#DCE8F4"/>
<path d="M110.733 63.7779H66.3328C64.5728 63.7779 63.1328 62.3419 63.1328 60.5868V60.1879C63.1328 58.4328 64.5728 56.9968 66.3328 56.9968H110.733C112.493 56.9968 113.933 58.4328 113.933 60.1879V60.5868C113.853 62.4217 112.493 63.7779 110.733 63.7779Z" stroke="#231F20" stroke-width="0.5" stroke-miterlimit="10"/>
<path d="M110.733 75.6647H66.3328C64.5728 75.6647 63.1328 74.2287 63.1328 72.4735V72.0747C63.1328 70.3195 64.5728 68.8835 66.3328 68.8835H110.733C112.493 68.8835 113.933 70.3195 113.933 72.0747V72.4735C113.853 74.2287 112.493 75.6647 110.733 75.6647Z" stroke="#231F20" stroke-width="0.5" stroke-miterlimit="10"/>
<path d="M110.013 87.3123H91.6128C89.6928 87.3123 88.1729 85.7965 88.1729 83.8818V83.4829C88.1729 81.5683 89.6928 80.0525 91.6128 80.0525H110.013C111.933 80.0525 113.453 81.5683 113.453 83.4829V83.8818C113.453 85.7167 111.933 87.3123 110.013 87.3123Z" fill="#EE384E"/>
<path d="M102.333 51.9708H73.8528C72.8928 51.9708 72.0928 51.173 72.0928 50.2157V48.6201C72.0928 47.6628 72.8928 46.865 73.8528 46.865H102.333C103.293 46.865 104.093 47.6628 104.093 48.6201V50.2157C104.093 51.173 103.293 51.9708 102.333 51.9708Z" fill="#023EA1"/>
<path d="M86.2527 143.157H124.973L180.093 196.927" stroke="#0064B7" stroke-width="2" stroke-miterlimit="10"/>
<path d="M88.1727 228.28H35.8527C34.9727 228.28 34.2527 227.562 34.2527 226.684V131.19C34.2527 130.312 34.9727 129.594 35.8527 129.594H88.1727C89.0527 129.594 89.7727 130.312 89.7727 131.19V226.684C89.7727 227.562 89.0527 228.28 88.1727 228.28Z" fill="white" stroke="#C6D7F1" stroke-miterlimit="10"/>
<path d="M73.2927 184.881H50.8927C50.0127 184.881 49.2927 184.163 49.2927 183.285V182.886C49.2927 182.009 50.0127 181.291 50.8927 181.291H73.2927C74.1727 181.291 74.8927 182.009 74.8927 182.886V183.285C74.8927 184.163 74.1727 184.881 73.2927 184.881Z" stroke="#00A9FF" stroke-miterlimit="10"/>
<path d="M80.6528 194.135H42.9728C42.1728 194.135 41.6128 193.496 41.6128 192.778V192.619C41.6128 191.821 42.2528 191.263 42.9728 191.263H80.6528C81.4528 191.263 82.0128 191.901 82.0128 192.619V192.778C82.0928 193.496 81.4528 194.135 80.6528 194.135Z" fill="#DFE8F6"/>
<path d="M62.8128 207.697H43.2128C42.3328 207.697 41.6128 206.979 41.6128 206.101V205.383C41.6128 204.506 42.3328 203.788 43.2128 203.788H62.8128C63.6928 203.788 64.4128 204.506 64.4128 205.383V206.101C64.4128 206.979 63.6928 207.697 62.8128 207.697Z" fill="#DFE8F6"/>
<path d="M80.7328 199.799H42.8928C42.1728 199.799 41.6128 199.24 41.6128 198.522V198.363C41.6128 197.645 42.1728 197.086 42.8928 197.086H80.7328C81.4528 197.086 82.0128 197.645 82.0128 198.363V198.522C82.0928 199.24 81.4528 199.799 80.7328 199.799Z" fill="#DFE8F6"/>
<path d="M71.6927 221.578H52.4927C50.7327 221.578 49.2927 220.142 49.2927 218.387V217.589C49.2927 215.834 50.7327 214.398 52.4927 214.398H71.6927C73.4527 214.398 74.8927 215.834 74.8927 217.589V218.387C74.8927 220.142 73.5327 221.578 71.6927 221.578Z" fill="#EE384E"/>
<path d="M62.4928 173.712C72.2571 173.712 80.1728 165.818 80.1728 156.081C80.1728 146.344 72.2571 138.45 62.4928 138.45C52.7284 138.45 44.8127 146.344 44.8127 156.081C44.8127 165.818 52.7284 173.712 62.4928 173.712Z" fill="#C6D7F0"/>
<path d="M193.773 64.8948C193.773 64.8948 190.733 60.5868 194.493 57.9541C198.253 55.3215 204.733 57.4755 205.053 61.225C205.373 64.9746 202.733 66.5701 205.453 68.0061C208.173 69.4421 214.893 74.4681 212.253 77.739C209.533 81.0099 204.973 79.6537 205.293 85.0786C205.613 90.5035 214.733 94.4924 207.533 99.4386C200.333 104.385 186.013 109.969 184.173 96.6464C182.333 83.3235 194.013 89.6259 189.773 80.1324C185.533 70.6388 191.213 72.2344 193.853 69.7612C196.413 67.3679 193.773 64.8948 193.773 64.8948Z" fill="#023EA1"/>
<path d="M199.853 71.5962C199.853 71.5962 196.173 85.0786 197.213 97.6037C198.253 110.129 200.573 112.602 200.573 112.602" stroke="white" stroke-miterlimit="10" stroke-linecap="round" stroke-linejoin="round"/>
<path d="M183.373 113.958C183.373 113.958 174.493 83.4828 176.813 61.5439" stroke="#EB4B57" stroke-miterlimit="10"/>
<path d="M180.413 48.1414C180.413 48.1414 184.333 57.0765 176.573 63.7778C176.573 63.8576 171.933 56.6776 180.413 48.1414Z" stroke="#EB4B57" stroke-miterlimit="10"/>
<path d="M177.133 82.1267C177.133 82.1267 177.693 73.1118 188.253 70.6387C188.253 70.6387 190.253 78.776 177.133 82.1267Z" stroke="#EB4B57" stroke-miterlimit="10"/>
<path d="M180.653 103.029C180.653 103.029 179.453 94.0935 189.373 89.5461C189.373 89.6259 192.813 97.2048 180.653 103.029Z" stroke="#EB4B57" stroke-miterlimit="10"/>
<path d="M180.333 103.268C180.333 103.268 178.573 94.4124 167.773 93.3753C167.773 93.2955 166.893 101.592 180.333 103.268Z" stroke="#EB4B57" stroke-miterlimit="10"/>
<path d="M177.213 82.0469C177.213 82.0469 176.573 73.032 166.013 70.6387C166.013 70.6387 164.093 78.6962 177.213 82.0469Z" stroke="#EB4B57" stroke-miterlimit="10"/>
<path d="M128.973 259.552C128.973 259.552 129.533 263.222 131.293 268.567L138.173 271.918L132.893 272.796C138.973 287.634 153.773 309.254 187.453 305.026C187.533 305.026 204.013 262.504 128.973 259.552Z" fill="#FCBE42"/>
<path d="M137.853 282.449L165.853 285.48L128.973 259.552" stroke="white" stroke-miterlimit="10"/>
<path d="M152.493 262.265L165.853 285.48" stroke="white" stroke-miterlimit="10"/>
<path d="M150.413 234.024C150.413 234.024 159.613 227.801 161.373 233.146C163.133 238.571 165.773 238.332 168.413 237.933C171.053 237.534 175.613 235.061 177.133 240.805C178.653 246.549 177.053 250.219 179.773 252.054C182.493 253.888 190.733 264.738 185.213 266.812C179.693 268.887 173.213 264.259 171.053 261.627C168.893 258.994 164.093 258.914 160.333 259.792C156.573 260.67 151.773 258.914 153.373 254.447C154.973 249.9 152.653 245.352 149.293 244.395C145.853 243.517 144.253 238.332 150.413 234.024Z" fill="#023EA1"/>
<path d="M155.293 239.289L186.973 271.28" stroke="white" stroke-miterlimit="10" stroke-linecap="round" stroke-linejoin="round"/>
<path d="M170.733 242.001L168.173 252.293L157.373 254.447" stroke="white" stroke-miterlimit="10" stroke-linecap="round" stroke-linejoin="round"/>
<path d="M142.173 248.304C142.173 248.304 142.173 254.048 146.093 251.814C150.013 249.501 152.733 249.421 154.413 253.729C156.093 258.037 158.893 259.553 161.533 258.835C164.093 258.037 168.653 255.883 170.653 261.866C172.653 267.85 177.293 279.018 171.053 281.97C164.813 284.922 154.893 281.013 153.373 276.466C151.853 271.918 153.453 268.169 148.413 266.733C143.373 265.297 142.653 270.243 138.253 266.892C133.853 263.542 129.053 260.51 132.333 253.569C135.373 247.267 141.373 245.113 142.173 248.304Z" stroke="#EE384E" stroke-miterlimit="10"/>
<path d="M141.213 254.926C141.213 254.926 168.893 276.146 177.133 279.896" stroke="#EE384E" stroke-miterlimit="10"/>
<path d="M163.293 262.744L164.093 271.759L157.053 274.79" stroke="#EE384E" stroke-miterlimit="10"/>
<path d="M149.373 254.208L148.973 260.829L143.453 264.1" stroke="#EE384E" stroke-miterlimit="10"/>
<path d="M308.813 203.389C308.813 203.389 297.133 195.411 294.813 202.272C292.493 209.133 289.213 208.814 285.853 208.335C282.493 207.856 276.653 204.665 274.733 212.005C272.813 219.344 274.813 224.051 271.373 226.365C267.933 228.678 257.373 242.56 264.413 245.192C271.453 247.825 279.773 241.922 282.493 238.571C285.213 235.22 291.373 235.14 296.173 236.178C300.893 237.215 307.133 235.061 305.053 229.317C302.973 223.573 306.013 217.749 310.333 216.552C314.573 215.435 316.653 208.894 308.813 203.389Z" fill="#023EA1"/>
<path d="M302.573 210.09L262.173 250.936" stroke="white" stroke-miterlimit="10" stroke-linecap="round" stroke-linejoin="round"/>
<path d="M282.893 213.521L286.173 226.684L299.933 229.397" stroke="white" stroke-miterlimit="10" stroke-linecap="round" stroke-linejoin="round"/>
<path d="M289.933 259.473C289.933 259.473 280.333 275.349 267.293 285.879C254.253 296.41 249.773 296.49 249.773 296.49" stroke="white" stroke-miterlimit="10" stroke-linecap="round" stroke-linejoin="round"/>
<path d="M308.733 238.89C308.733 238.89 304.733 239.05 298.893 240.246L294.413 247.107L294.173 241.363C277.613 245.911 252.893 258.835 253.133 294.894C253.133 294.974 296.173 317.631 308.733 238.89Z" fill="#FCBE42"/>
<path d="M283.293 245.352L276.653 274.551L308.733 238.89" stroke="white" stroke-miterlimit="10"/>
<path d="M302.973 263.302L276.653 274.551" stroke="white" stroke-miterlimit="10"/>
<path d="M300.253 171.398C300.253 171.398 300.253 178.817 295.133 175.866C290.013 172.914 286.573 172.754 284.413 178.259C282.253 183.764 278.573 185.758 275.213 184.801C271.853 183.843 266.013 181.051 263.453 188.71C260.893 196.369 254.893 210.808 262.973 214.638C271.053 218.467 283.773 213.361 285.693 207.617C287.613 201.873 285.533 196.927 292.013 195.092C298.493 193.257 299.373 199.639 305.133 195.331C310.893 191.023 316.973 187.194 312.733 178.179C308.973 170.042 301.293 167.329 300.253 171.398Z" stroke="#EE384E" stroke-miterlimit="10"/>
<path d="M301.453 179.934C301.453 179.934 265.853 207.218 255.213 212.085" stroke="#EE384E" stroke-miterlimit="10"/>
<path d="M273.053 189.986L271.933 201.634L281.053 205.463" stroke="#EE384E" stroke-miterlimit="10"/>
<path d="M290.973 179.057L291.453 187.513L298.573 191.741" stroke="#EE384E" stroke-miterlimit="10"/>
<path d="M265.933 308.696H174.573C170.173 308.696 166.573 305.106 166.573 300.718V106.22C166.573 101.832 170.173 98.2419 174.573 98.2419H265.933C270.333 98.2419 273.933 101.832 273.933 106.22V300.718C273.853 305.106 270.333 308.696 265.933 308.696Z" fill="#0064B7"/>
<path d="M263.133 296.091H177.453C174.813 296.091 172.653 293.937 172.653 291.304V113.958C172.653 111.325 174.813 109.171 177.453 109.171H263.133C265.773 109.171 267.933 111.325 267.933 113.958V291.304C267.933 293.937 265.773 296.091 263.133 296.091Z" fill="white"/>
<path d="M189.933 117.628H183.853C183.533 117.628 183.293 117.388 183.293 117.069V116.99C183.293 116.67 183.533 116.431 183.853 116.431H189.933C190.253 116.431 190.493 116.67 190.493 116.99V117.069C190.493 117.388 190.173 117.628 189.933 117.628Z" fill="#0064B7"/>
<path d="M189.933 119.543H183.853C183.533 119.543 183.293 119.303 183.293 118.984V118.904C183.293 118.585 183.533 118.346 183.853 118.346H189.933C190.253 118.346 190.493 118.585 190.493 118.904V118.984C190.493 119.303 190.173 119.543 189.933 119.543Z" fill="#0064B7"/>
<path d="M189.933 121.457H183.853C183.533 121.457 183.293 121.218 183.293 120.899V120.819C183.293 120.5 183.533 120.26 183.853 120.26H189.933C190.253 120.26 190.493 120.5 190.493 120.819V120.899C190.493 121.218 190.173 121.457 189.933 121.457Z" fill="#0064B7"/>
<path d="M219.773 128.877C212.093 128.877 205.133 131.828 199.853 136.615L206.333 144.433C209.933 140.764 214.973 138.53 220.493 138.53C231.373 138.53 240.253 147.385 240.253 158.235C240.253 160.708 239.773 163.101 238.973 165.255L247.213 169.005C248.493 165.654 249.213 162.064 249.213 158.315C249.213 142.04 236.013 128.877 219.773 128.877Z" fill="#0064B7"/>
<path d="M200.733 158.155C200.733 152.81 202.893 147.943 206.333 144.433L199.853 136.615C194.013 141.96 190.333 149.699 190.333 158.235C190.333 166.452 193.773 173.871 199.213 179.216L206.733 172.276C203.053 168.686 200.733 163.739 200.733 158.155Z" fill="#00A9FF"/>
<path d="M219.773 187.593C232.173 187.593 242.813 179.775 247.133 169.005L238.973 165.255C236.013 172.435 228.733 177.94 220.493 177.94C215.133 177.94 210.253 175.786 206.733 172.356L199.213 179.296C204.493 184.402 211.773 187.593 219.773 187.593Z" fill="#EE384E"/>
<path d="M195.373 199.639C196.433 199.639 197.293 198.782 197.293 197.725C197.293 196.667 196.433 195.81 195.373 195.81C194.312 195.81 193.453 196.667 193.453 197.725C193.453 198.782 194.312 199.639 195.373 199.639Z" fill="#00A9FF"/>
<path d="M214.253 199.639C215.313 199.639 216.173 198.782 216.173 197.725C216.173 196.667 215.313 195.81 214.253 195.81C213.192 195.81 212.333 196.667 212.333 197.725C212.333 198.782 213.192 199.639 214.253 199.639Z" fill="#EE384E"/>
<path d="M234.413 199.639C235.473 199.639 236.333 198.782 236.333 197.725C236.333 196.667 235.473 195.81 234.413 195.81C233.352 195.81 232.493 196.667 232.493 197.725C232.493 198.782 233.352 199.639 234.413 199.639Z" fill="#0064B7"/>
<path d="M206.813 198.523H200.253C199.853 198.523 199.453 198.203 199.453 197.725V197.645C199.453 197.246 199.773 196.847 200.253 196.847H206.813C207.213 196.847 207.613 197.166 207.613 197.645V197.725C207.613 198.203 207.293 198.523 206.813 198.523Z" fill="#DFE8F6"/>
<path d="M226.733 198.523H220.173C219.773 198.523 219.373 198.203 219.373 197.725V197.645C219.373 197.246 219.693 196.847 220.173 196.847H226.733C227.133 196.847 227.533 197.166 227.533 197.645V197.725C227.453 198.203 227.133 198.523 226.733 198.523Z" fill="#DFE8F6"/>
<path d="M245.773 198.523H239.213C238.813 198.523 238.413 198.203 238.413 197.725V197.645C238.413 197.246 238.733 196.847 239.213 196.847H245.773C246.173 196.847 246.573 197.166 246.573 197.645V197.725C246.573 198.203 246.173 198.523 245.773 198.523Z" fill="#DFE8F6"/>
<path d="M254.653 209.771H184.413C183.773 209.771 183.213 209.213 183.213 208.575V208.495C183.213 207.857 183.773 207.298 184.413 207.298H254.653C255.293 207.298 255.853 207.857 255.853 208.495V208.575C255.853 209.213 255.293 209.771 254.653 209.771Z" fill="#DCE8F5"/>
<path d="M254.653 216.393H184.413C183.773 216.393 183.213 215.834 183.213 215.196V215.116C183.213 214.478 183.773 213.92 184.413 213.92H254.653C255.293 213.92 255.853 214.478 255.853 215.116V215.196C255.853 215.834 255.293 216.393 254.653 216.393Z" fill="#DCE8F5"/>
<path d="M240.413 222.137H184.333C183.773 222.137 183.293 221.658 183.293 221.1V220.781C183.293 220.222 183.773 219.743 184.333 219.743H240.413C240.973 219.743 241.453 220.222 241.453 220.781V221.1C241.453 221.658 240.973 222.137 240.413 222.137Z" fill="#DCE8F5"/>
<path d="M195.373 278.46H189.373V287.634H195.373V278.46Z" fill="#C7D7F0"/>
<path d="M204.493 272.477H198.653V287.555H204.493V272.477Z" fill="#C7D7F0"/>
<path d="M213.453 267.929H207.613V287.634H213.453V267.929Z" fill="#C7D7F0"/>
<path d="M241.453 262.265H235.213V287.555H241.453V262.265Z" fill="#C7D7F0"/>
<path d="M250.413 260.35H244.173V288.033H250.413V260.35Z" fill="#C7D7F0"/>
<path d="M232.493 265.536H226.253V287.634H232.493V265.536Z" fill="#C7D7F0"/>
<path d="M222.893 263.382H217.533V287.554H222.893V263.382Z" fill="#C7D7F0"/>
<path d="M195.373 271.12H189.373V278.38H195.373V271.12Z" fill="#0064B7"/>
<path d="M204.493 266.573H198.653V272.477H204.493V266.573Z" fill="#0064B7"/>
<path d="M213.453 257.718H207.613V267.929H213.453V257.718Z" fill="#0064B7"/>
<path d="M222.893 253.091H217.533V263.382H222.893V253.091Z" fill="#0064B7"/>
<path d="M232.493 256.362H226.253V265.536H232.493V256.362Z" fill="#0064B7"/>
<path d="M241.453 250.458H235.213V262.345H241.453V250.458Z" fill="#0064B7"/>
<path d="M250.413 245.272H244.173V260.35H250.413V245.272Z" fill="#0064B7"/>
<path d="M192.253 259.313C192.253 259.313 199.373 253.091 207.613 250.458C207.613 250.458 214.253 248.065 216.173 241.044C216.173 241.044 218.333 234.024 224.253 239.927C224.253 239.927 228.733 244.475 232.573 240.486C232.573 240.486 238.813 229.716 248.813 230.513" stroke="#EE384E" stroke-miterlimit="10"/>
<path d="M365.613 173.153C365.613 173.153 372.093 170.84 372.813 176.903C372.813 176.903 374.493 181.29 376.093 182.088C377.693 182.886 381.853 184.402 380.813 190.066C379.773 195.73 378.253 195.331 378.893 198.682C379.533 201.953 377.933 202.352 375.693 202.432C373.373 202.511 372.733 200.357 372.733 200.357L373.373 193.018L371.853 181.29L366.973 179.376C366.973 179.376 364.493 176.264 364.253 174.988C364.093 173.712 365.613 173.153 365.613 173.153Z" fill="#170856"/>
<path d="M366.493 171.558C366.493 171.558 367.533 172.595 367.293 172.834C367.053 173.073 364.253 174.509 364.253 174.509C364.253 174.509 363.453 172.994 363.533 172.515C363.613 171.957 366.493 171.558 366.493 171.558Z" fill="#F05051"/>
<path d="M349.373 163.66C349.213 163.66 349.133 163.819 349.133 163.979C349.133 165.415 349.533 172.116 352.173 174.669C352.173 174.669 353.613 176.504 356.253 175.786C356.253 175.786 358.653 174.35 358.333 177.302C358.013 180.253 359.213 183.205 360.173 183.604C361.133 184.003 365.133 182.966 366.093 181.29C366.733 180.174 367.053 179.615 367.213 179.376C367.293 179.296 367.293 179.136 367.213 179.057C366.653 178.418 364.653 175.945 363.613 172.435C362.493 168.366 363.133 164.537 359.373 163.739C356.013 162.862 350.653 163.5 349.373 163.66Z" fill="#FFBF99"/>
<path d="M345.933 163.34C345.933 163.261 345.933 163.261 345.933 163.181C345.933 162.782 345.933 162.383 345.933 161.984C346.093 160.787 346.493 159.431 347.453 158.633C348.173 157.995 349.133 157.756 350.013 157.756C350.253 157.756 350.413 157.676 350.573 157.517C351.213 156.799 353.293 154.724 356.093 154.724C359.533 154.724 365.453 156.559 366.973 162.463C367.053 162.862 369.293 172.036 364.813 172.355C360.173 172.674 358.333 170.361 358.493 168.366C358.493 168.366 360.733 164.298 356.893 165.335C356.893 165.335 352.893 166.053 350.173 164.457C349.853 164.298 349.373 164.377 349.213 164.697C348.653 165.654 347.613 167.09 346.573 165.893C346.173 165.415 345.853 164.936 345.693 164.377C345.773 163.979 345.853 163.659 345.933 163.34Z" fill="#170856"/>
<path d="M367.133 178.977C367.133 178.977 364.893 182.567 361.693 182.567C358.493 182.567 358.333 179.216 358.333 179.216C358.333 179.216 351.853 185.04 351.853 188.949C351.933 192.858 353.213 192.14 353.613 193.496C354.013 194.853 351.453 208.495 351.453 208.495L351.053 209.292L369.453 211.765C369.453 211.765 370.173 208.814 370.653 207.856C371.133 206.899 373.773 182.886 373.773 182.886L372.573 181.609C372.573 181.609 370.413 179.216 367.133 178.977Z" fill="#DE051F"/>
<path d="M375.293 193.496C375.293 193.496 377.133 181.61 372.493 181.051C367.933 180.493 367.853 184.162 367.773 189.747C367.613 195.252 367.693 196.528 367.693 196.528L374.893 197.804L375.293 193.496Z" fill="#EE384E"/>
<path d="M367.853 196.528C367.773 196.528 367.613 196.608 367.613 196.688L367.213 201.235C367.213 201.953 367.133 202.591 366.493 202.272C366.093 202.112 365.693 201.873 365.133 201.554C363.053 200.437 356.893 197.406 354.893 196.448C354.573 196.289 354.333 195.97 354.173 195.65C353.933 195.092 353.453 194.214 352.333 193.895C350.573 193.417 347.453 193.496 347.373 193.656C347.293 193.895 346.973 195.411 347.053 195.89C347.133 196.368 348.733 195.97 348.733 195.97C348.733 195.97 351.533 195.491 350.733 196.448C350.253 197.007 349.613 197.086 349.133 197.086C348.973 197.086 348.813 197.326 348.973 197.406C349.373 197.725 350.093 198.044 351.213 198.203C353.293 198.522 368.013 208.096 368.013 208.096C368.013 208.096 370.893 210.33 372.573 204.426C373.853 199.958 374.493 198.363 374.653 197.804C374.733 197.725 374.653 197.565 374.493 197.565L367.853 196.528Z" fill="#FFBF99"/>
<path d="M343.373 202.91L351.773 206.341L352.653 201.155L349.213 200.916L343.373 202.91Z" fill="#FFBF99"/>
<path d="M337.613 186.157L324.333 185.359L338.093 202.671L350.813 203.15L337.613 186.157Z" fill="#170856"/>
<path d="M337.533 201.474C337.533 201.474 338.013 198.283 336.973 197.804C335.853 197.326 335.213 198.443 335.293 199.001C335.373 199.639 337.453 201.793 337.453 201.793L337.533 201.474Z" fill="#FFBF99"/>
<path d="M351.053 209.292L325.133 219.105C325.133 219.105 321.933 219.743 321.133 228.439C320.333 237.135 319.693 266.014 319.693 266.014V266.972L326.173 267.052L329.373 236.337L344.733 217.908L357.133 210.09L351.053 209.292Z" fill="#003EB0"/>
<path d="M369.613 211.207L357.053 210.09L330.573 223.253C330.573 223.253 323.373 227.482 328.013 235.061C332.653 242.719 345.453 265.935 345.453 265.935L349.853 262.664L338.493 231.391C338.493 231.391 338.253 229.795 342.013 229.476C345.533 229.237 362.253 227.561 364.413 227.402C364.573 227.402 364.733 227.322 364.973 227.322C366.253 226.843 371.373 224.37 369.773 215.515L369.613 211.765V211.207Z" fill="#0064E1"/>
<path d="M319.613 266.892L314.013 270.003C313.693 270.163 313.373 270.322 313.053 270.322C312.413 270.402 311.373 270.721 311.373 271.599C311.373 271.599 311.213 272.636 313.933 272.397C316.653 272.157 325.293 272.237 325.293 272.237C325.293 272.237 326.413 271.998 326.253 269.525L326.093 267.051L319.613 266.892Z" fill="#130452"/>
<path d="M345.373 266.014C345.373 266.014 345.293 267.45 343.853 269.524C343.053 270.641 342.173 271.678 341.293 272.716C341.053 272.955 340.813 273.194 340.653 273.513C340.573 273.753 340.493 273.992 340.493 274.231C340.493 274.471 340.493 274.71 340.733 274.87C341.053 275.109 341.533 274.949 341.853 274.87C341.933 274.87 342.013 274.79 342.173 274.79C344.413 273.992 350.973 268.647 352.413 267.45C352.573 267.291 352.733 267.051 352.733 266.812C352.733 266.333 352.653 265.456 352.093 264.738C351.213 263.701 349.853 262.664 349.853 262.664L345.373 266.014Z" fill="#130452"/>
<path d="M420.253 251.335H357.133C350.733 251.335 345.613 246.15 345.613 239.847C345.613 233.465 350.813 228.359 357.133 228.359H420.253C426.653 228.359 431.773 233.545 431.773 239.847C431.773 246.15 426.653 251.335 420.253 251.335Z" fill="#EE384E"/>
<path d="M260.573 93.2158C260.573 93.2158 263.773 93.3754 266.093 93.3754C268.413 93.3754 272.093 93.8541 272.093 93.8541C272.093 93.8541 273.053 93.8541 273.133 95.0507C273.213 96.2474 273.213 96.7261 273.213 96.7261C273.213 96.7261 273.293 98.1621 272.173 98.1621C271.053 98.1621 263.933 98.9598 262.333 98.9598C260.733 98.9598 259.533 99.2789 259.533 98.1621C259.533 96.9654 259.453 93.136 260.573 93.2158Z" fill="#170856"/>
<path d="M263.213 59.4697C263.213 59.4697 265.293 70.9577 265.453 73.9893C265.613 77.0208 265.933 79.3344 263.933 80.5311C261.933 81.7277 258.653 82.8446 258.653 82.8446L254.573 62.3417V59.9484L263.213 59.4697Z" fill="#FFBF99"/>
<path d="M228.013 58.8315C228.013 58.8315 226.893 64.0171 226.573 66.6498C226.253 69.2824 225.533 74.3882 225.453 75.5849C225.373 76.7815 225.213 78.776 227.373 80.2918C229.533 81.8075 231.853 82.6851 231.853 82.6851L236.253 58.9113L228.013 58.8315Z" fill="#FFBF99"/>
<path d="M243.773 42.3974C243.773 42.3974 243.773 44.7907 242.733 45.8278C241.693 46.8649 240.333 48.5403 240.333 48.5403C240.333 48.5403 242.733 52.2898 247.533 51.8112C252.333 51.3325 253.133 47.902 253.133 47.902C253.133 47.902 248.573 47.2638 248.093 43.0356C247.613 38.8074 246.893 38.8074 246.893 38.8074L243.773 42.3974Z" fill="#FFB07E"/>
<path d="M240.253 32.9038C240.253 32.9038 240.413 38.3287 242.973 42.6367C245.533 46.9447 248.573 44.4716 249.773 42.3176C250.973 40.1636 254.173 32.9038 253.533 31.0689C252.813 29.234 243.453 28.3564 243.453 28.3564L240.253 32.9038Z" fill="#FFBF99"/>
<path d="M252.413 36.0151C252.413 36.0151 253.773 34.978 253.773 36.0151C253.773 37.0522 253.053 38.568 252.253 38.7276C251.373 38.8871 251.533 38.4085 251.773 37.6905C251.853 36.9725 252.413 36.0151 252.413 36.0151Z" fill="#FFBF99"/>
<path d="M240.653 38.0894C241.053 38.249 241.453 38.3287 241.453 37.7703C241.453 36.7332 240.733 35.2174 239.933 35.0578C239.133 34.8983 239.213 35.377 239.453 36.095C239.533 36.3343 239.613 36.5736 239.693 36.8927C239.853 37.2916 240.333 38.0096 240.653 38.0894Z" fill="#FFBF99"/>
<path d="M240.493 35.3769L240.333 33.7016C240.333 33.7016 241.853 33.8611 243.613 32.1858C243.613 32.1858 246.973 32.9038 249.613 32.6644C252.413 32.4251 253.613 31.6273 253.613 31.6273C253.613 31.6273 253.133 34.8184 252.653 35.7758C252.653 35.7758 254.013 35.2173 254.493 33.7016C254.973 32.1858 254.893 30.5104 254.893 30.5104C254.893 30.5104 256.813 28.9947 257.293 27.2396C257.293 27.2396 252.173 26.0429 250.653 25.0058C249.133 23.9687 248.253 23.3304 248.253 23.3304C248.253 23.3304 245.853 21.9742 243.453 23.8091C241.053 25.644 239.533 26.6811 239.533 29.952C239.613 30.0318 237.373 33.0633 240.493 35.3769Z" fill="#160C56"/>
<path d="M240.893 46.7852C240.893 46.7852 237.613 46.3863 235.853 46.865C234.093 47.3437 233.533 47.0246 234.013 48.3808C234.493 49.737 236.893 55.9597 235.773 59.8688C234.653 63.7779 233.133 83.7223 233.133 83.7223C233.133 83.7223 245.293 84.201 250.013 84.4403C254.733 84.6797 258.253 83.8021 258.253 83.8021C258.253 83.8021 259.293 75.1861 258.253 71.4366C257.213 67.687 255.853 61.3048 255.853 61.3048C255.853 61.3048 254.973 52.5292 256.173 50.3752C257.373 48.2212 258.253 48.1415 256.733 47.583C255.213 47.0246 253.533 46.5459 252.333 46.5459C251.133 46.5459 250.493 46.5459 249.773 47.2639C249.053 47.9819 247.613 49.4179 245.613 49.0988C243.613 48.7797 242.093 47.4235 242.093 47.4235C242.093 47.4235 241.453 46.865 240.893 46.7852Z" fill="#0083F9"/>
<path d="M235.133 47.5031C235.133 47.5031 234.013 46.9447 232.333 48.3807C230.573 49.8965 229.213 53.2471 228.573 55.3214C227.933 57.3956 227.533 59.4698 227.533 59.4698C227.533 59.4698 229.853 60.6665 232.253 60.7462C234.653 60.826 236.253 60.9856 236.253 60.9856C236.253 60.9856 237.293 54.7629 237.053 51.9707C236.813 49.1785 236.413 48.1414 235.133 47.5031Z" fill="#0064B7"/>
<path d="M255.213 49.7369C255.213 49.7369 256.173 47.1042 258.333 48.3009C260.493 49.4976 262.093 54.0449 262.573 55.4809C263.053 56.9169 263.693 59.7889 263.693 59.7889C263.693 59.7889 261.133 60.9058 258.973 61.0653C256.813 61.2249 255.293 61.3845 255.293 61.3845C255.293 61.3845 254.413 55.7202 254.573 53.4865C254.733 51.2527 255.213 49.7369 255.213 49.7369Z" fill="#0064B7"/>
<path d="M237.613 85.4773H254.013L245.533 88.0302L237.613 85.4773Z" fill="#91051C"/>
<path d="M223.053 80.8502C223.053 80.8502 252.893 90.1842 259.453 92.4978C259.453 92.4978 261.613 93.0562 261.693 94.1731C261.773 95.29 261.533 96.8855 261.293 97.6833C261.053 98.4811 260.333 99.1193 259.133 98.88C257.933 98.6407 231.213 93.2955 220.573 90.5033L217.533 89.546C217.533 89.546 215.293 88.5089 215.693 85.7964C216.093 83.084 218.093 80.6907 219.533 80.5311C220.973 80.3715 223.053 80.8502 223.053 80.8502Z" fill="#DE051F"/>
<path d="M220.333 94.0135C220.333 94.0135 224.093 93.3753 226.333 93.2956C228.573 93.2158 231.533 92.9764 232.013 93.2956C232.493 93.6147 232.893 97.9227 232.893 97.9227C232.893 97.9227 233.293 99.1193 230.333 98.88C227.373 98.6407 220.573 98.4013 220.573 98.4013C220.573 98.4013 219.053 98.3216 218.973 96.9653C218.893 95.6091 219.133 94.9709 219.133 94.9709C219.133 94.9709 219.373 94.1731 220.333 94.0135Z" fill="#170856"/>
<path d="M238.173 90.1843C238.173 90.1843 256.333 84.6796 262.733 82.765C269.213 80.8503 272.813 79.0952 274.893 82.1267C276.973 85.1583 276.813 88.509 274.413 89.4663C272.013 90.4236 253.213 94.8114 245.373 96.407C237.533 98.0025 232.413 99.0396 231.693 98.7205C230.973 98.4014 230.173 96.0878 230.333 94.8114C230.493 93.535 230.573 93.0563 232.093 92.4181C233.613 91.7798 238.173 90.1843 238.173 90.1843Z" fill="#EE384E"/>
<path d="M236.093 63.9373H257.853C257.853 63.9373 259.053 63.7777 259.053 65.3733C259.053 66.9689 259.053 84.2008 259.053 84.2008C259.053 84.2008 259.133 85.4773 258.173 85.4773C257.213 85.4773 232.573 85.4773 232.573 85.4773C232.573 85.4773 231.533 85.7964 231.533 84.0413C231.533 82.2862 231.533 64.8946 231.533 64.8946C231.533 64.8946 231.453 63.9373 232.733 63.9373C234.013 63.9373 236.093 63.9373 236.093 63.9373Z" fill="#170856"/>
<path d="M255.853 121.617H199.213C197.773 121.617 196.653 120.5 196.653 119.064C196.653 117.628 197.773 116.511 199.213 116.511H255.853C257.293 116.511 258.413 117.628 258.413 119.064C258.413 120.5 257.293 121.617 255.853 121.617Z" fill="#DCE8F5"/>
<path d="M37.5327 318.588C46.8111 318.588 54.3327 316.802 54.3327 314.599C54.3327 312.396 46.8111 310.61 37.5327 310.61C28.2543 310.61 20.7327 312.396 20.7327 314.599C20.7327 316.802 28.2543 318.588 37.5327 318.588Z" fill="#ECF2F5"/>
<path d="M12.7327 266.972C12.7327 266.972 16.0127 265.616 15.7727 261.946C15.5327 258.196 13.6127 255.564 17.6127 256.681C21.6127 257.797 22.9727 258.276 25.7727 257.638C28.5727 257 31.0527 255.803 29.7727 259.553C28.4927 263.302 27.1327 266.414 30.0927 266.972C33.0527 267.61 36.2527 265.297 36.6527 271.12C37.0527 276.944 32.3327 283.486 24.6527 283.725C16.9727 283.965 13.6127 280.853 13.6127 280.853C13.6127 280.853 11.5327 277.981 14.7327 277.263C17.9327 276.545 21.2127 275.189 19.5327 273.673C17.9327 272.158 12.5727 272.078 12.5727 272.078C12.5727 272.078 6.09267 270.801 12.7327 266.972Z" fill="#649EEA"/>
<path d="M47.6127 267.929C47.0527 264.18 47.4527 261.547 54.4127 260.51C61.3727 259.473 65.3728 263.621 65.7728 267.929C66.1728 272.237 60.1728 273.753 60.1728 273.753C60.1728 273.753 55.9328 274.95 58.0928 278.699C60.2528 282.449 61.2127 286.039 56.3327 286.597C51.4527 287.156 46.0127 285.799 43.0527 283.805C40.0927 281.811 36.9727 276.785 40.4127 274.152C40.4127 274.152 41.3727 273.514 44.6527 273.354C47.9327 273.195 47.6127 267.929 47.6127 267.929Z" fill="#023EA1"/>
<path d="M23.2126 267.291C23.2126 267.291 28.9726 280.295 29.7726 289.07" stroke="#83DAFF" stroke-miterlimit="10" stroke-linecap="round" stroke-linejoin="round"/>
<path d="M55.2126 269.445C55.2126 269.445 45.0526 284.523 42.6526 289.549" stroke="#579FD5" stroke-miterlimit="10" stroke-linecap="round" stroke-linejoin="round"/>
<path d="M26.1727 288.113H49.5327C49.5327 288.113 52.0927 288.273 51.8527 291.783C51.6927 294.974 47.6127 294.256 45.4527 294.256C43.2927 294.256 25.6127 294.256 25.6127 294.256C25.6127 294.256 22.7327 294.735 22.7327 291.464C22.8127 288.273 23.9327 288.113 26.1727 288.113Z" fill="#0054A5"/>
<path d="M25.6926 294.336L29.2126 314.918H44.9726L47.6126 299.441L25.6926 294.336Z" fill="#0054A5"/>
<path d="M25.6926 294.336L47.6126 299.441L48.4926 294.336H25.6926Z" fill="#006AD5"/>
<path d="M35.7727 288.911C35.7727 288.911 36.9727 266.094 43.7727 251.734L35.7727 288.911Z" fill="#FCBE42"/>
<path d="M49.4528 243.438C49.4528 243.438 50.0128 250.458 43.1328 253.17C43.1328 253.25 41.6128 247.187 49.4528 243.438Z" fill="#FCBE42"/>
<path d="M39.1328 265.775C39.1328 265.775 41.6928 259.792 49.4528 260.59C49.4528 260.59 48.8128 266.573 39.1328 265.775Z" fill="#FCBE42"/>
<path d="M36.5728 280.853C36.5728 280.853 37.8528 274.471 45.6928 273.753C45.6928 273.753 46.2528 279.737 36.5728 280.853Z" fill="#FCBE42"/>
<path d="M36.2528 280.853C36.2528 280.853 37.1328 274.391 30.0928 271.12C30.0928 271.2 27.5328 276.625 36.2528 280.853Z" fill="#FCBE42"/>
<path d="M39.2128 265.775C39.2128 265.775 40.9728 259.473 34.3328 255.324C34.3328 255.324 31.0528 260.35 39.2128 265.775Z" fill="#FCBE42"/>
<path d="M400.952 48.3466L394.712 50.0913L396.462 56.3136L402.702 54.5688L400.952 48.3466Z" fill="#EE384E"/>
<path d="M379.108 273.572L372.868 275.317L374.618 281.539L380.858 279.794L379.108 273.572Z" fill="#003EB0"/>
<path d="M7.01474 212.218L0.775146 213.963L2.52475 220.185L8.76434 218.44L7.01474 212.218Z" fill="#003EB0"/>
<path d="M116.702 112.652L110.462 114.397L112.212 120.619L118.451 118.874L116.702 112.652Z" fill="#003EB0"/>
<path d="M441.373 244.794L448.973 256.122C448.973 256.122 450.733 261.467 447.133 264.499C443.533 267.53 441.133 270.961 435.053 268.567C428.973 266.174 422.173 260.191 422.173 260.191C422.173 260.191 419.053 258.436 420.013 255.643C420.973 252.851 424.813 254.686 428.093 257.558L419.453 242.799C419.453 242.799 417.693 240.486 419.853 239.369C422.013 238.252 422.733 239.369 423.693 241.124C424.653 242.879 428.653 249.979 428.653 249.979C428.653 249.979 426.573 246.309 428.813 244.953C431.053 243.597 432.413 246.309 433.213 248.065C433.213 248.065 432.413 245.591 434.333 244.714C436.173 243.836 437.933 246.549 437.933 246.549C437.933 246.549 437.693 244.554 438.973 243.677C440.253 242.799 441.373 244.794 441.373 244.794Z" stroke="#00A9FF" stroke-miterlimit="10"/>
<path d="M415.293 242.32V247.985" stroke="white" stroke-width="2" stroke-miterlimit="10"/>
<path d="M415.293 231.71V237.374" stroke="white" stroke-width="2" stroke-miterlimit="10"/>
<path d="M413.053 238.491L407.773 236.257" stroke="white" stroke-width="2" stroke-miterlimit="10"/>
<path d="M412.973 240.964L408.253 244.155" stroke="white" stroke-width="2" stroke-miterlimit="10"/>
<path d="M421.773 235.14L417.053 238.252" stroke="white" stroke-width="2" stroke-miterlimit="10"/>
<path d="M379.053 317.232C417.403 317.232 448.493 314.303 448.493 310.69C448.493 307.077 417.403 304.148 379.053 304.148C340.702 304.148 309.613 307.077 309.613 310.69C309.613 314.303 340.702 317.232 379.053 317.232Z" fill="#ECF2F5"/>
<path d="M165.933 11.5234C165.853 11.4436 165.773 11.4436 165.613 11.4436L163.613 11.6829C163.373 11.6829 163.133 11.5234 163.053 11.284C162.813 10.3267 162.493 9.52893 161.933 8.65138C161.773 8.41205 161.853 8.17271 162.013 7.93338L163.453 6.81649C163.533 6.73671 163.613 6.65694 163.613 6.49738C163.613 6.33782 163.613 6.25805 163.533 6.17827L161.293 3.94449C161.213 3.86471 161.133 3.78494 160.973 3.86471C160.893 3.86471 160.733 3.94449 160.653 4.02427L159.533 5.46027C159.373 5.6996 159.053 5.6996 158.813 5.54005C158.013 5.06138 157.133 4.66249 156.173 4.42316C155.933 4.34338 155.693 4.10405 155.773 3.86471L156.013 1.87027C156.013 1.79049 156.013 1.63094 155.933 1.55116C155.853 1.47138 155.773 1.3916 155.613 1.3916H152.413C152.333 1.3916 152.173 1.47138 152.093 1.55116C152.013 1.63094 152.013 1.71071 152.013 1.87027L152.253 3.86471C152.253 4.10405 152.093 4.34338 151.853 4.42316C150.893 4.66249 150.093 4.9816 149.213 5.54005C148.973 5.6996 148.733 5.61982 148.493 5.46027L147.373 4.02427C147.293 3.94449 147.213 3.86471 147.053 3.86471C146.893 3.86471 146.813 3.86471 146.733 3.94449L144.493 6.17827C144.413 6.25805 144.413 6.33782 144.413 6.49738C144.413 6.65694 144.493 6.73671 144.573 6.81649L146.013 7.93338C146.253 8.09293 146.253 8.41205 146.093 8.65138C145.613 9.44916 145.213 10.3267 144.973 11.284C144.893 11.5234 144.653 11.6829 144.413 11.6829L142.413 11.4436C142.333 11.4436 142.173 11.4436 142.093 11.5234C142.013 11.6032 141.933 11.6829 141.933 11.8425V15.0336C141.933 15.1134 142.013 15.2729 142.093 15.3527C142.173 15.4325 142.253 15.4325 142.413 15.4325L144.413 15.1932C144.653 15.1932 144.893 15.3527 144.973 15.592C145.213 16.5494 145.533 17.3472 146.093 18.2247C146.253 18.464 146.173 18.7832 146.013 18.8629L144.573 19.9798C144.493 20.0596 144.413 20.1394 144.413 20.2989C144.413 20.3787 144.413 20.5383 144.493 20.618L146.733 22.8518C146.813 22.9316 146.893 23.0114 147.053 22.9316C147.133 22.9316 147.293 22.8518 147.373 22.772L148.493 21.336C148.653 21.0967 148.973 21.0967 149.213 21.1765C150.013 21.6552 150.893 22.054 151.853 22.2136C152.093 22.2934 152.333 22.5327 152.253 22.772L152.013 24.7665C152.013 24.8463 152.013 25.0058 152.093 25.0856C152.173 25.1654 152.253 25.2452 152.413 25.2452H155.613C155.693 25.2452 155.853 25.1654 155.933 25.0856C156.013 25.0058 156.013 24.926 156.013 24.7665L155.773 22.772C155.773 22.5327 155.933 22.2934 156.173 22.2136C157.133 21.9743 157.933 21.6552 158.813 21.1765C159.053 21.0169 159.293 21.0967 159.533 21.336L160.653 22.772C160.733 22.8518 160.813 22.9316 160.973 22.9316C161.133 22.9316 161.213 22.9316 161.293 22.8518L163.533 20.618C163.613 20.5383 163.613 20.4585 163.613 20.2989C163.613 20.1394 163.533 20.0596 163.453 19.9798L162.013 18.8629C161.773 18.7034 161.773 18.3843 161.933 18.2247C162.413 17.4269 162.813 16.5494 163.053 15.592C163.133 15.3527 163.373 15.1932 163.613 15.1932L165.613 15.4325C165.693 15.4325 165.853 15.4325 165.933 15.3527C166.013 15.2729 166.093 15.1932 166.093 15.0336V11.8425C166.093 11.7627 166.093 11.6032 165.933 11.5234ZM165.293 14.5549L163.693 14.3954C163.053 14.3156 162.413 14.7145 162.253 15.4325C162.093 16.2303 161.693 17.1078 161.293 17.8258C160.973 18.3843 161.053 19.1023 161.613 19.5809L162.733 20.4585L161.133 22.054L160.253 20.9372C159.853 20.3787 159.133 20.2989 158.573 20.618C157.853 21.0967 157.053 21.4158 156.173 21.5754C155.533 21.7349 155.053 22.3732 155.133 23.0114L155.293 24.6069H153.053L153.213 23.0114C153.293 22.3732 152.893 21.7349 152.173 21.5754C151.293 21.4158 150.493 21.0169 149.773 20.618C149.213 20.2989 148.493 20.3787 148.093 20.9372L147.213 22.054L145.613 20.4585L146.733 19.5809C147.293 19.182 147.373 18.464 147.053 17.8258C146.573 17.1078 146.253 16.31 146.093 15.4325C145.933 14.7943 145.293 14.3156 144.653 14.3954L143.053 14.5549V12.3212L144.653 12.4807C145.293 12.5605 145.933 12.1616 146.093 11.4436C146.253 10.6458 146.653 9.76827 147.053 9.05027C147.373 8.49182 147.293 7.77382 146.733 7.37493L145.613 6.49738L147.213 4.90182L148.093 6.01871C148.493 6.57716 149.213 6.65694 149.773 6.33782C150.493 5.85916 151.293 5.54005 152.173 5.38049C152.813 5.22093 153.293 4.58271 153.213 3.94449L153.053 2.34894H155.293L155.133 3.94449C155.053 4.58271 155.453 5.22093 156.173 5.38049C157.053 5.54005 157.853 5.93894 158.573 6.33782C159.133 6.65694 159.853 6.57716 160.253 6.01871L161.133 4.90182L162.733 6.49738L161.613 7.37493C161.053 7.77382 160.973 8.49182 161.293 9.05027C161.773 9.76827 162.093 10.566 162.253 11.4436C162.413 12.0818 163.053 12.5605 163.693 12.4807L165.293 12.3212V14.5549Z" stroke="#003EB0" stroke-miterlimit="10"/>
<path d="M154.173 7.85352C151.133 7.85352 148.653 10.3266 148.653 13.438C148.653 16.5493 151.133 19.0224 154.173 19.0224C157.213 19.0224 159.693 16.5493 159.693 13.438C159.773 10.3266 157.293 7.85352 154.173 7.85352ZM154.173 18.1448C151.533 18.1448 149.453 15.9908 149.453 13.3582C149.453 10.7255 151.613 8.57152 154.173 8.57152C156.733 8.57152 158.893 10.7255 158.893 13.3582C158.893 15.9908 156.813 18.1448 154.173 18.1448Z" stroke="#003EB0" stroke-miterlimit="10"/>
<path d="M442.653 199.958C442.573 199.879 442.493 199.879 442.413 199.879L440.653 200.118C440.413 200.118 440.253 200.038 440.173 199.799C440.013 199.001 439.693 198.283 439.213 197.565C439.053 197.406 439.133 197.086 439.293 197.007L440.573 196.049C440.653 195.97 440.733 195.89 440.733 195.81C440.733 195.73 440.733 195.65 440.653 195.571L438.733 193.656C438.653 193.576 438.573 193.576 438.493 193.576C438.413 193.576 438.333 193.656 438.253 193.736L437.293 195.012C437.133 195.172 436.893 195.252 436.733 195.092C436.013 194.693 435.293 194.374 434.493 194.135C434.253 194.055 434.093 193.895 434.173 193.656L434.413 191.901C434.413 191.821 434.413 191.741 434.333 191.662C434.253 191.582 434.173 191.582 434.093 191.582H431.373C431.293 191.582 431.213 191.582 431.133 191.662C431.053 191.741 431.053 191.821 431.053 191.901L431.293 193.656C431.293 193.895 431.133 194.055 430.973 194.135C430.173 194.294 429.453 194.613 428.733 195.092C428.573 195.172 428.253 195.172 428.173 195.012L427.213 193.736C427.133 193.656 427.053 193.576 426.973 193.576C426.893 193.576 426.813 193.576 426.733 193.656L424.813 195.571C424.733 195.65 424.733 195.73 424.733 195.81C424.733 195.89 424.813 195.97 424.893 196.049L426.173 197.007C426.333 197.166 426.413 197.406 426.253 197.565C425.853 198.283 425.533 199.001 425.293 199.799C425.213 200.038 425.053 200.198 424.813 200.118L423.053 199.879C422.973 199.879 422.893 199.879 422.813 199.958C422.733 200.038 422.733 200.118 422.733 200.198V202.91C422.733 202.99 422.733 203.07 422.813 203.15C422.893 203.229 422.973 203.229 423.053 203.229L424.813 202.99C425.053 202.99 425.213 203.07 425.293 203.309C425.453 204.107 425.773 204.825 426.253 205.543C426.413 205.702 426.333 206.022 426.173 206.101L424.893 207.059C424.813 207.138 424.733 207.218 424.733 207.298C424.733 207.378 424.733 207.458 424.813 207.537L426.733 209.452C426.813 209.532 426.893 209.532 426.973 209.532C427.053 209.532 427.133 209.452 427.213 209.372L428.173 208.096C428.333 207.936 428.573 207.856 428.733 208.016C429.453 208.415 430.173 208.734 430.973 208.973C431.213 209.053 431.373 209.213 431.293 209.452L431.053 211.207C431.053 211.287 431.053 211.367 431.133 211.446C431.213 211.526 431.293 211.526 431.373 211.526H434.093C434.173 211.526 434.253 211.526 434.333 211.446C434.413 211.367 434.413 211.287 434.413 211.207L434.173 209.452C434.173 209.213 434.333 209.053 434.493 208.973C435.293 208.814 436.013 208.495 436.733 208.016C436.893 207.936 437.213 207.936 437.293 208.096L438.253 209.372C438.333 209.452 438.413 209.532 438.493 209.532C438.573 209.532 438.653 209.532 438.733 209.452L440.653 207.537C440.733 207.458 440.733 207.378 440.733 207.298C440.733 207.218 440.653 207.138 440.573 207.059L439.293 206.101C439.133 205.942 439.053 205.702 439.213 205.543C439.613 204.825 439.933 204.107 440.173 203.309C440.253 203.07 440.413 202.91 440.653 202.99L442.413 203.229C442.493 203.229 442.573 203.229 442.653 203.15C442.733 203.07 442.733 202.99 442.733 202.91V200.198C442.813 200.118 442.733 200.038 442.653 199.958ZM442.093 202.591L440.733 202.432C440.173 202.352 439.613 202.751 439.533 203.309C439.373 204.027 439.053 204.745 438.653 205.383C438.333 205.862 438.493 206.5 438.893 206.899L439.853 207.617L438.493 208.973L437.773 208.016C437.453 207.537 436.813 207.458 436.333 207.777C435.693 208.176 434.973 208.415 434.253 208.654C433.693 208.814 433.293 209.292 433.373 209.851L433.533 211.207H431.533L431.693 209.851C431.773 209.292 431.373 208.734 430.813 208.654C430.093 208.495 429.373 208.176 428.733 207.777C428.253 207.458 427.613 207.617 427.293 208.016L426.573 208.973L425.213 207.617L426.173 206.899C426.653 206.58 426.733 205.942 426.413 205.383C426.013 204.745 425.773 204.027 425.533 203.309C425.373 202.751 424.893 202.352 424.333 202.432L422.973 202.591V200.597L424.333 200.756C424.893 200.836 425.453 200.437 425.533 199.879C425.693 199.161 426.013 198.443 426.413 197.804C426.733 197.326 426.573 196.688 426.173 196.289L425.213 195.571L426.573 194.214L427.293 195.172C427.613 195.65 428.253 195.73 428.733 195.411C429.373 195.012 430.093 194.773 430.813 194.534C431.373 194.374 431.773 193.895 431.693 193.337L431.533 191.981H433.533L433.373 193.337C433.293 193.895 433.693 194.454 434.253 194.534C434.973 194.693 435.693 195.012 436.333 195.411C436.813 195.73 437.453 195.571 437.773 195.172L438.493 194.214L439.853 195.571L438.893 196.289C438.413 196.608 438.333 197.246 438.653 197.804C439.053 198.443 439.293 199.161 439.533 199.879C439.693 200.437 440.173 200.836 440.733 200.756L442.093 200.597V202.591Z" stroke="#003EB0" stroke-miterlimit="10"/>
<path d="M432.573 196.847C429.933 196.847 427.773 199.001 427.773 201.634C427.773 204.267 429.933 206.421 432.573 206.421C435.213 206.421 437.373 204.267 437.373 201.634C437.293 198.921 435.213 196.847 432.573 196.847ZM432.573 205.703C430.333 205.703 428.493 203.868 428.493 201.634C428.493 199.4 430.333 197.565 432.573 197.565C434.813 197.565 436.653 199.4 436.653 201.634C436.653 203.788 434.813 205.703 432.573 205.703Z" stroke="#003EB0" stroke-miterlimit="10"/>
<path d="M126.413 226.524L130.733 226.445L135.613 226.046C135.613 226.046 136.173 228.997 133.373 229.396C130.573 229.795 126.333 230.274 125.613 230.114C124.973 230.035 126.413 226.524 126.413 226.524Z" fill="#FFBF9C"/>
<path d="M123.213 205.144C123.213 205.144 127.693 209.851 128.333 212.244C128.973 214.638 127.533 218.467 127.053 219.504C126.573 220.541 126.893 234.502 126.893 234.502L108.733 234.582L108.813 205.144H123.213Z" fill="#0064E1"/>
<path d="M133.853 191.343C133.853 191.343 133.453 194.933 132.653 197.166V199.001C132.653 199.241 132.413 199.4 132.173 199.4L131.053 199.32L131.133 200.756C131.133 200.916 130.973 201.155 130.813 201.155L129.933 201.235C129.773 201.235 129.613 201.395 129.693 201.634L129.853 202.272C129.933 202.432 129.773 202.671 129.613 202.671C128.973 202.831 127.533 202.91 125.853 201.793C124.093 200.597 123.053 201.235 123.053 202.272C123.053 203.389 123.933 206.74 122.493 207.458C121.213 208.096 117.373 207.777 116.733 206.979C115.853 206.101 116.813 203.868 118.013 202.671C118.893 201.793 120.253 191.741 122.333 190.784C124.413 189.827 133.853 191.343 133.853 191.343Z" fill="#FFBD99"/>
<path d="M112.893 219.344L112.733 225.567C112.733 226.046 113.133 226.524 113.613 226.524C114.173 226.524 114.653 226.524 115.933 226.046C118.813 224.929 125.613 221.1 126.573 220.621C126.653 220.621 126.653 220.541 126.733 220.461C126.893 220.062 127.693 218.866 129.853 219.025C132.333 219.185 132.973 219.743 132.733 220.541C132.493 221.339 132.253 221.259 132.253 221.259L132.573 221.738C132.573 221.738 132.253 222.536 131.133 222.536C130.093 222.536 128.733 221.977 128.413 222.376C128.093 222.695 117.213 229.955 114.733 231.63C114.333 231.87 113.933 232.029 113.533 232.109C111.853 232.508 108.093 232.986 107.453 230.354C106.733 227.083 106.733 219.584 106.733 219.584L112.893 219.344Z" fill="#FFBF9C"/>
<path d="M112.973 208.415C113.293 208.255 113.613 208.495 113.613 208.814L113.693 219.983C113.693 220.222 113.453 220.461 113.213 220.461C112.813 220.461 112.173 220.461 110.893 220.461C108.893 220.461 107.293 220.461 106.573 220.461C106.333 220.461 106.093 220.222 106.173 219.983L106.333 212.164C106.333 212.005 106.413 211.845 106.573 211.765L112.973 208.415Z" fill="#003EB0"/>
<path d="M99.8529 213.281C98.9729 209.771 105.053 204.905 105.053 204.905C105.053 204.905 108.093 203.788 108.653 200.278C109.213 196.767 112.493 195.73 114.013 194.534C115.533 193.337 116.493 190.385 116.493 190.385L116.653 189.587C116.653 189.587 119.053 178.738 127.533 181.45C127.533 181.45 131.453 182.806 132.973 185.838C132.973 185.838 138.573 186.715 137.373 191.103C136.173 195.491 133.613 192.778 133.613 192.778C133.613 192.778 132.493 190.465 131.293 192.06C130.093 193.656 127.293 194.693 126.413 193.177C125.533 191.662 123.773 190.624 123.293 192.938L123.213 194.055C123.213 194.055 118.973 199.24 118.573 201.155C118.093 203.07 116.893 205.623 114.893 206.819C112.893 208.016 110.573 212.803 109.693 215.435C108.813 218.068 101.053 218.387 99.8529 213.281Z" fill="#170D54"/>
<path d="M142.653 213.521L153.773 213.84L140.093 228.918L128.653 228.519L142.653 213.521Z" fill="#14094F"/>
<path d="M143.373 224.61C143.373 224.61 144.493 226.764 143.453 227.242C142.413 227.721 141.453 228.04 140.973 227.482C140.493 226.923 140.253 225.248 140.813 225.328C141.293 225.408 141.613 225.408 141.613 225.408L141.693 224.929C141.693 224.769 141.773 224.61 141.853 224.53C142.333 224.37 143.133 223.972 143.373 224.61Z" fill="#FFBF9C"/>
<path d="M123.773 234.422L126.973 234.343L127.133 320.981L120.093 321.061L116.333 264.419L123.773 234.422Z" fill="#DE051F"/>
<path d="M108.813 234.582C108.813 234.582 108.653 237.534 108.493 238.651C108.333 239.369 104.253 246.15 107.533 254.526C107.613 254.686 107.613 254.846 107.613 255.005C107.693 256.84 108.173 268.089 105.773 273.992L93.4529 313.722L98.1729 317.072C98.1729 317.072 114.333 282.528 114.813 280.933C115.293 279.337 125.613 245.512 124.333 236.018L124.093 234.263L108.813 234.582Z" fill="#EE384E"/>
<path d="M127.133 320.981C127.133 320.981 131.293 323.295 133.213 323.773C134.653 324.172 135.053 325.289 135.133 325.768C135.133 325.927 135.053 326.007 134.893 326.007H120.173V321.061L127.133 320.981Z" fill="#1C1457"/>
<path d="M98.1729 317.152C98.1729 317.152 99.4529 320.662 102.013 322.736C104.573 324.811 102.013 326.167 102.013 326.167L91.1329 319.386C91.0529 319.386 91.0529 319.306 91.0529 319.306C90.8929 319.067 90.4129 317.95 90.9729 316.913C91.6129 315.716 93.3729 313.801 93.3729 313.801L98.1729 317.152Z" fill="#1C1457"/>
<mask id="mask3_2294_42570" style="mask-type:luminance" maskUnits="userSpaceOnUse" x="44" y="138" width="37" height="36">
<path d="M62.4928 173.712C72.2571 173.712 80.1728 165.818 80.1728 156.081C80.1728 146.344 72.2571 138.45 62.4928 138.45C52.7284 138.45 44.8127 146.344 44.8127 156.081C44.8127 165.818 52.7284 173.712 62.4928 173.712Z" fill="white"/>
</mask>
<g mask="url(#mask3_2294_42570)">
<path d="M48.2529 173.153C48.2529 173.153 47.3729 177.302 47.1329 179.456C46.8929 181.61 46.2529 185.678 46.2529 186.636C46.1729 187.593 46.0929 189.189 47.7729 190.465C49.4529 191.742 51.3729 192.38 51.3729 192.38L54.8929 173.153H48.2529Z" fill="#FFBF99"/>
<path d="M60.9729 159.83C60.9729 159.83 60.9729 161.745 60.1729 162.623C59.3729 163.42 58.2529 164.856 58.2529 164.856C58.2529 164.856 60.1729 167.888 64.0929 167.489C68.0129 167.09 68.6529 164.298 68.6529 164.298C68.6529 164.298 64.9729 163.819 64.5729 160.389C64.1729 156.958 63.6129 156.958 63.6129 156.958L60.9729 159.83Z" fill="#FFBF99"/>
<path d="M58.6528 163.42C58.6528 163.42 56.0128 163.101 54.5728 163.5C53.1328 163.899 52.7328 163.66 53.0528 164.697C53.4528 165.814 55.3728 170.84 54.4928 173.951C53.6128 177.142 52.3328 193.257 52.3328 193.257C52.3328 193.257 62.1728 193.656 65.9328 193.816C69.7728 193.975 72.5728 193.337 72.5728 193.337C72.5728 193.337 73.4528 186.396 72.5728 183.365C71.6928 180.333 70.6528 175.148 70.6528 175.148C70.6528 175.148 69.9328 168.048 70.8928 166.292C71.8528 164.537 72.5728 164.458 71.3728 164.059C70.1728 163.66 68.8128 163.181 67.8528 163.181C66.8928 163.181 66.3328 163.181 65.7728 163.74C65.2128 164.298 64.0128 165.495 62.4128 165.255C60.8128 165.016 59.5328 163.899 59.5328 163.899C59.5328 163.899 59.1328 163.5 58.6528 163.42Z" fill="#1B3A62"/>
<path d="M54.0128 163.979C54.0128 163.979 53.1328 163.5 51.7728 164.697C50.3328 165.973 49.2128 168.606 48.7328 170.281C48.2528 171.957 47.8528 173.632 47.8528 173.632C47.8528 173.632 49.6928 174.589 51.6928 174.669C53.6128 174.749 54.8928 174.829 54.8928 174.829C54.8928 174.829 55.7728 169.803 55.5328 167.569C55.2928 165.335 54.9728 164.537 54.0128 163.979Z" fill="#021E34"/>
<path d="M70.253 165.814C70.253 165.814 71.053 163.66 72.813 164.697C74.573 165.654 75.853 169.324 76.253 170.521C76.653 171.638 77.133 174.031 77.133 174.031C77.133 174.031 75.053 174.908 73.293 175.068C71.533 175.228 70.333 175.307 70.333 175.307C70.333 175.307 69.613 170.76 69.773 168.925C69.853 167.09 70.253 165.814 70.253 165.814Z" fill="#021E34"/>
<path d="M62.4929 157.996H60.1729C60.1729 157.996 60.4129 159.91 62.4929 159.91C64.6529 159.91 64.8128 157.996 64.8128 157.996H62.4929Z" fill="white"/>
<path d="M68.8929 154.246C69.0529 154.725 68.2529 156.001 67.9329 156.48C68.0929 155.762 68.1729 154.804 68.3329 153.608C68.3329 153.608 68.8129 153.767 68.8929 154.246Z" fill="#FFBF99"/>
<path d="M68.4929 148.263C68.3329 144.034 62.6529 144.034 62.6529 144.034C62.6529 144.034 56.9729 144.114 56.8129 148.263C56.7329 150.098 56.8129 152.012 56.9729 153.528C57.0529 154.725 57.2129 155.682 57.3729 156.4C57.4529 156.879 57.5329 157.198 57.6129 157.437C57.7729 157.756 57.9329 158.155 58.2529 158.554C58.8929 159.432 59.7729 160.309 60.3329 160.708C60.8129 161.027 62.0129 161.266 62.5729 161.187C63.1329 161.187 64.2529 161.027 64.8129 160.708C64.8129 160.708 64.8129 160.708 64.8929 160.708C65.5329 160.309 66.4129 159.432 66.9729 158.554C67.2929 158.155 67.5329 157.756 67.6129 157.437C67.6929 157.278 67.7729 156.879 67.8529 156.4C68.0129 155.682 68.0929 154.725 68.2529 153.528C68.4929 152.012 68.5729 150.177 68.4929 148.263Z" fill="#FFBF99"/>
<path d="M56.9728 153.608C57.0528 154.804 57.2128 155.762 57.3728 156.48C57.0528 156.001 56.2528 154.725 56.4128 154.246C56.5728 153.767 56.9728 153.608 56.9728 153.608Z" fill="#FFBF99"/>
<path d="M65.933 160.07C65.613 160.549 65.213 160.868 64.893 161.027C64.413 161.267 63.453 161.905 62.893 161.905H62.653C62.093 161.905 61.133 161.346 60.653 161.027C60.333 160.868 59.933 160.469 59.533 160.07L59.613 159.99C60.253 159.91 59.933 159.113 60.173 158.714C60.333 158.395 60.893 158.315 61.133 158.155C61.373 157.996 61.613 157.996 61.853 157.836C62.093 157.677 62.413 157.677 62.653 157.677H62.893C63.213 157.677 63.453 157.677 63.693 157.836C63.933 157.916 64.173 157.996 64.413 158.155C64.733 158.315 65.293 158.395 65.373 158.714C65.533 159.192 65.293 159.99 65.933 160.07ZM64.893 159.671C65.213 159.033 64.813 159.033 64.333 158.873C63.933 158.714 63.213 158.395 62.813 158.395H62.733C62.333 158.395 61.613 158.714 61.213 158.873C60.733 159.033 60.333 159.113 60.653 159.671C60.893 159.99 61.373 160.549 61.773 160.549C62.253 160.469 62.493 159.831 62.733 159.511H62.813C63.053 159.831 63.293 160.469 63.773 160.549C64.173 160.549 64.653 159.99 64.893 159.671Z" fill="#915F41"/>
<path d="M62.733 152.331C62.893 152.331 63.213 152.331 63.293 152.331C63.533 152.331 63.533 152.092 63.693 151.853C63.933 151.533 64.413 151.613 64.733 151.613C65.133 151.534 65.613 151.534 66.013 151.534C66.333 151.534 67.213 151.454 67.293 151.534C67.293 151.534 67.693 151.693 67.773 151.853C67.853 151.932 67.853 152.012 67.853 152.092C67.933 152.411 67.773 152.73 67.773 152.97C67.693 153.368 67.613 153.767 67.373 154.007C67.293 154.086 67.213 154.086 67.053 154.086C66.893 154.086 66.413 154.086 66.253 154.166C65.773 154.166 65.373 154.246 64.893 154.166C64.413 154.166 63.773 154.166 63.613 153.448C63.533 153.289 63.533 152.571 63.453 152.491C63.293 152.331 62.813 152.331 62.573 152.331C62.733 152.411 62.733 152.411 62.733 152.331ZM64.173 154.007C64.333 154.086 64.733 154.166 64.733 154.166C64.813 154.166 66.333 154.166 66.893 154.086C66.973 154.086 67.213 154.007 67.293 153.927C67.453 153.767 67.613 152.491 67.533 152.331C67.453 152.252 67.213 152.092 67.133 152.012C66.813 151.693 64.173 151.853 64.013 152.012C63.853 152.172 63.853 152.331 63.853 152.491C64.013 152.411 64.093 152.571 64.093 152.73C64.093 152.81 64.173 153.289 63.933 153.049L63.853 152.97C63.773 153.049 63.773 153.289 63.773 153.368C63.933 153.847 64.093 154.007 64.173 154.007Z" fill="#6B4732"/>
<path d="M62.733 152.331C62.573 152.331 62.253 152.331 62.173 152.331C61.933 152.331 61.933 152.092 61.773 151.853C61.533 151.533 61.053 151.613 60.733 151.613C60.333 151.534 59.853 151.534 59.453 151.534C59.133 151.534 58.253 151.454 58.173 151.534C58.173 151.534 57.773 151.693 57.693 151.853C57.613 151.932 57.613 152.012 57.613 152.092C57.533 152.411 57.693 152.73 57.693 152.97C57.773 153.368 57.853 153.767 58.093 154.007C58.173 154.086 58.253 154.086 58.413 154.086C58.573 154.086 59.053 154.086 59.213 154.166C59.693 154.166 60.093 154.246 60.573 154.166C61.053 154.166 61.693 154.166 61.853 153.448C61.933 153.289 61.933 152.571 62.013 152.491C62.173 152.331 62.653 152.331 62.893 152.331C62.733 152.411 62.733 152.411 62.733 152.331ZM61.293 154.007C61.133 154.086 60.733 154.166 60.733 154.166C60.653 154.166 59.133 154.166 58.573 154.086C58.493 154.086 58.253 154.007 58.173 153.927C58.013 153.767 57.853 152.491 57.933 152.331C58.013 152.252 58.253 152.092 58.333 152.012C58.653 151.693 61.293 151.853 61.453 152.012C61.613 152.172 61.613 152.331 61.613 152.491C61.453 152.411 61.373 152.571 61.373 152.73C61.373 152.81 61.293 153.289 61.533 153.049L61.613 152.97C61.693 153.049 61.693 153.289 61.693 153.368C61.453 153.847 61.293 154.007 61.293 154.007Z" fill="#6B4732"/>
</g>
<path d="M346.093 45.1099H333.373C333.133 45.1099 332.973 45.2694 332.973 45.5088V50.6943C332.973 50.7741 332.973 50.8539 333.053 50.9336L334.573 52.4494C334.653 52.5292 334.733 52.5292 334.813 52.5292H344.493C344.573 52.5292 344.653 52.4494 344.733 52.4494L346.253 50.9336C346.333 50.8539 346.333 50.7741 346.333 50.6943V45.5088C346.413 45.2694 346.253 45.1099 346.093 45.1099ZM345.693 50.5348L344.413 51.8112H334.973L333.693 50.5348V45.8279H345.693V50.5348Z" fill="#003EB0"/>
<path d="M346.813 46.6255L332.573 47.3435C332.333 47.3435 332.173 47.503 332.253 47.7424C332.253 47.9019 332.413 48.0615 332.653 48.0615L346.893 47.3435C347.133 47.3435 347.293 47.1839 347.213 46.9446C347.213 46.785 346.973 46.6255 346.813 46.6255Z" fill="#003EB0"/>
<path d="M346.813 48.8594L332.573 49.5774C332.333 49.5774 332.173 49.7369 332.253 49.9763C332.253 50.1358 332.413 50.2954 332.653 50.2954L346.893 49.5774C347.133 49.5774 347.293 49.4178 347.213 49.1785C347.213 49.0189 346.973 48.8594 346.813 48.8594Z" fill="#003EB0"/>
<path d="M339.693 19.7405C332.653 19.7405 326.973 25.4047 326.973 32.4251C326.973 36.8129 329.213 40.8018 332.973 43.1951V45.5087C332.973 45.748 333.133 45.9076 333.373 45.9076H346.093C346.333 45.9076 346.493 45.748 346.493 45.5087V43.1951C350.253 40.8816 352.493 36.8927 352.493 32.4251C352.413 25.4845 346.733 19.7405 339.693 19.7405ZM345.853 42.6367C345.773 42.7165 345.693 42.7963 345.693 42.9558V45.1098H333.693V42.9558C333.693 42.7963 333.613 42.7165 333.533 42.6367C329.933 40.4827 327.773 36.6534 327.773 32.4251C327.773 25.8834 333.133 20.4585 339.773 20.4585C346.413 20.4585 351.773 25.8036 351.773 32.4251C351.693 36.6534 349.533 40.4827 345.853 42.6367Z" fill="#003EB0"/>
<path d="M343.213 51.8909C343.053 51.8111 342.813 51.8909 342.733 52.0505C342.733 52.1303 342.013 53.3269 339.693 53.3269C337.373 53.3269 336.653 52.1303 336.653 52.0505C336.573 51.8909 336.333 51.8111 336.173 51.8909C336.013 51.9707 335.933 52.21 336.013 52.3696C336.013 52.4494 336.893 54.0449 339.693 54.0449C342.493 54.0449 343.373 52.4494 343.373 52.3696C343.533 52.21 343.453 51.9707 343.213 51.8909Z" fill="#003EB0"/>
<path d="M323.613 32.0261H316.093C315.853 32.0261 315.693 32.1857 315.693 32.425C315.693 32.6643 315.853 32.8239 316.093 32.8239H323.613C323.853 32.8239 324.013 32.6643 324.013 32.425C324.013 32.1857 323.853 32.0261 323.613 32.0261Z" fill="#DE051F"/>
<path d="M363.293 32.0261H355.773C355.533 32.0261 355.373 32.1857 355.373 32.425C355.373 32.6643 355.533 32.8239 355.773 32.8239H363.293C363.533 32.8239 363.693 32.6643 363.693 32.425C363.693 32.1857 363.453 32.0261 363.293 32.0261Z" fill="#DE051F"/>
<path d="M326.093 40.2433C326.013 40.0838 325.773 40.004 325.613 40.0838L319.133 43.8333C318.973 43.9131 318.893 44.1525 318.973 44.312C319.053 44.4716 319.133 44.4716 319.293 44.4716C319.373 44.4716 319.453 44.4716 319.453 44.3918L325.933 40.6422C326.173 40.6422 326.253 40.4827 326.093 40.2433Z" fill="#DE051F"/>
<path d="M360.413 20.5383C360.333 20.3787 360.093 20.2989 359.933 20.3787L353.453 24.1283C353.293 24.208 353.213 24.4474 353.293 24.6069C353.373 24.7665 353.453 24.7665 353.613 24.7665C353.693 24.7665 353.773 24.7665 353.773 24.6867L360.253 20.9372C360.493 20.9372 360.573 20.6978 360.413 20.5383Z" fill="#DE051F"/>
<path d="M351.693 11.7627C351.533 11.683 351.293 11.7627 351.213 11.9223L347.453 18.3843C347.373 18.5439 347.453 18.7832 347.613 18.863C347.693 18.863 347.773 18.9427 347.773 18.9427C347.933 18.9427 348.013 18.863 348.093 18.7832L351.853 12.3212C351.933 12.0819 351.853 11.9223 351.693 11.7627Z" fill="#DE051F"/>
<path d="M339.693 8.57153C339.453 8.57153 339.293 8.73109 339.293 8.97042V16.3898C339.293 16.6291 339.453 16.7886 339.693 16.7886C339.933 16.7886 340.093 16.6291 340.093 16.3898V8.89065C340.093 8.73109 339.933 8.57153 339.693 8.57153Z" fill="#DE051F"/>
<path d="M332.013 18.3843L328.253 11.9223C328.173 11.7627 327.933 11.683 327.773 11.7627C327.613 11.8425 327.533 12.0819 327.613 12.2414L331.373 18.7034C331.453 18.863 331.533 18.863 331.693 18.863C331.773 18.863 331.853 18.863 331.853 18.7832C332.013 18.7832 332.093 18.5439 332.013 18.3843Z" fill="#DE051F"/>
<path d="M360.333 43.8334L353.853 40.0838C353.693 40.0041 353.453 40.0041 353.373 40.2434C353.293 40.4827 353.373 40.6423 353.533 40.7221L360.013 44.4716C360.093 44.4716 360.173 44.5514 360.173 44.5514C360.333 44.5514 360.413 44.4716 360.493 44.3918C360.573 44.1525 360.493 43.993 360.333 43.8334Z" fill="#DE051F"/>
<path d="M326.013 24.1283L319.533 20.3787C319.373 20.2989 319.133 20.3787 319.053 20.5383C318.973 20.6978 319.053 20.9372 319.213 21.0169L325.693 24.7665C325.773 24.7665 325.773 24.8463 325.853 24.8463C326.013 24.8463 326.093 24.7665 326.173 24.6867C326.253 24.4474 326.173 24.208 326.013 24.1283Z" fill="#DE051F"/>
<path d="M340.813 45.1098V33.0634C340.813 33.0634 340.653 27.3992 343.773 27.3992C346.893 27.3992 345.453 33.3027 339.453 33.3027" stroke="#003EB0" stroke-miterlimit="10"/>
<path d="M338.013 45.1098V33.0634C338.013 33.0634 338.173 27.3992 335.053 27.3992C331.933 27.3992 333.373 33.3027 339.373 33.3027" stroke="#003EB0" stroke-miterlimit="10"/>
</svg>
