<svg width="416" height="351" viewBox="0 0 416 351" fill="none" xmlns="http://www.w3.org/2000/svg">
<path d="M305.708 350.61C334.044 350.61 357.016 347.328 357.016 343.278C357.016 339.229 334.044 335.946 305.708 335.946C277.371 335.946 254.399 339.229 254.399 343.278C254.399 347.328 277.371 350.61 305.708 350.61Z" fill="#ECF2F5"/>
<path d="M193.349 144.893C221.457 144.893 244.244 122.107 244.244 93.998C244.244 65.8895 221.457 43.103 193.349 43.103C165.24 43.103 142.454 65.8895 142.454 93.998C142.454 122.107 165.24 144.893 193.349 144.893Z" stroke="#DE051F" stroke-miterlimit="10" stroke-dasharray="6 6"/>
<path d="M205.676 45.6081C206.51 41.2153 203.608 36.9745 199.194 36.1361C194.78 35.2977 190.526 38.1792 189.691 42.572C188.857 46.9648 191.759 51.2055 196.173 52.0439C200.587 52.8823 204.841 50.0009 205.676 45.6081Z" fill="#023EA1"/>
<path d="M195.104 41.0908L197.233 46.504L201.203 42.253" stroke="white" stroke-miterlimit="10"/>
<path d="M294.148 29.445C294.148 29.445 297.565 22.4328 291.504 19.4844C285.436 16.536 276.512 21.2784 276.926 26.7696C277.339 32.2608 281.567 34.0236 278.018 36.738C274.469 39.4524 265.819 48.36 270.491 52.4862C275.163 56.6124 281.512 53.5548 282.331 61.5498C283.15 69.537 270.92 77.4696 282.518 83.0388C294.109 88.6002 316.3 93.2412 315.762 73.4292C315.224 53.6094 299.772 65.5746 303.672 50.7156C307.572 35.8566 299.733 39.5538 295.318 36.6054C290.903 33.657 294.148 29.445 294.148 29.445Z" stroke="#EE384E" stroke-miterlimit="10"/>
<path d="M286.925 40.6851C286.925 40.6851 295.505 59.4363 296.948 77.9145C298.391 96.3927 295.677 100.581 295.677 100.581" stroke="#EE384E" stroke-miterlimit="10"/>
<path d="M331.416 26.2158C331.416 26.2158 327.157 29.172 321.658 34.632V45.2712L317.345 39.195C302.556 55.8558 284.733 87.36 310.512 126.672C310.512 126.68 373.443 121.118 331.416 26.2158Z" fill="#023EA1"/>
<path d="M308.281 51.2382L321.666 87.8358L331.416 26.2158" stroke="white" stroke-miterlimit="10"/>
<path d="M342.399 57.0259L321.666 87.8359" stroke="white" stroke-miterlimit="10"/>
<path d="M390.447 123.771C390.447 123.771 390.587 117.039 396.445 117.226C402.303 117.414 407.318 124.621 404.822 128.646C402.326 132.67 398.356 132.327 400.025 135.822C401.695 139.316 404.838 149.596 399.589 150.868C394.339 152.139 390.642 147.256 386.843 153.036C383.045 158.816 389.339 169.783 378.178 169.377C367.008 168.972 348.023 163.613 356.299 148.684C364.574 133.755 371.774 149.097 374.66 136.18C377.546 123.264 382.132 129.231 386.719 128.755C391.297 128.295 390.447 123.771 390.447 123.771Z" fill="#023EA1"/>
<path d="M391.578 135.26C391.578 135.26 377.507 146.141 369.059 159.682C360.612 173.223 361.049 177.505 361.049 177.505" stroke="white" stroke-miterlimit="10" stroke-linecap="round" stroke-linejoin="round"/>
<path d="M149.325 42.1593C149.325 42.1593 151.431 34.6479 144.934 32.8383C138.437 31.0287 130.504 37.2921 131.9 42.6273C133.296 47.9625 137.774 48.9297 134.763 52.2369C131.752 55.5441 124.849 65.8557 130.192 69.0771C135.535 72.2985 141.229 68.1489 143.468 75.8631C145.706 83.5773 135.106 93.5769 147.508 96.9699C159.91 100.363 182.569 100.94 178.49 81.5415C174.402 62.1429 161.345 76.6821 162.515 61.3629C163.685 46.0437 156.634 51.0825 151.759 48.9843C146.884 46.8861 149.325 42.1593 149.325 42.1593Z" fill="#FCBE42"/>
<path d="M144.232 54.5146C144.232 54.5146 156.041 71.4172 160.776 89.3338C165.51 107.25 163.599 111.86 163.599 111.86" stroke="white" stroke-miterlimit="10" stroke-linecap="round" stroke-linejoin="round"/>
<path d="M349.91 192.231C349.91 192.231 386.609 174.346 405.399 153.153" stroke="#EE384E" stroke-miterlimit="10"/>
<path d="M415.032 138.193C415.032 138.193 403.122 142.163 403.403 155.329C403.403 155.322 414.276 153.582 415.032 138.193Z" stroke="#EE384E" stroke-miterlimit="10"/>
<path d="M385.541 170.641C385.541 170.641 393.606 162.318 386.874 150.143C386.874 150.135 377.507 155.298 385.541 170.641Z" stroke="#EE384E" stroke-miterlimit="10"/>
<path d="M362.601 185.336C362.601 185.336 372.14 178.753 367.92 165.493C367.92 165.493 357.726 168.722 362.601 185.336Z" stroke="#EE384E" stroke-miterlimit="10"/>
<path d="M362.726 185.804C362.726 185.804 372.663 179.837 382.998 189.158C382.998 189.158 375.845 197.114 362.726 185.804Z" stroke="#EE384E" stroke-miterlimit="10"/>
<path d="M385.556 170.477C385.556 170.477 394.651 163.293 406.086 171.218C406.086 171.218 400.01 180.017 385.556 170.477Z" stroke="#EE384E" stroke-miterlimit="10"/>
<path d="M8.785 148.996C8.785 148.996 0.446803 148.847 0.587203 141.64C0.727603 134.433 9.5728 128.232 14.6116 131.29C19.6426 134.347 19.2682 139.238 23.5738 137.163C27.8794 135.088 40.5622 131.188 42.2236 137.639C43.885 144.097 37.8946 148.66 45.1018 153.317C52.309 157.973 65.8108 150.181 65.4832 163.925C65.1556 177.668 58.8064 201.061 40.1878 190.928C21.5692 180.796 40.4686 171.881 24.4162 168.379C8.3638 164.876 15.6958 159.206 15.0328 153.566C14.3698 147.927 8.785 148.996 8.785 148.996Z" fill="#EE384E"/>
<path d="M22.9966 147.568C22.9966 147.568 36.6934 164.845 53.596 175.188C70.4986 185.531 75.8026 184.985 75.8026 184.985" stroke="white" stroke-miterlimit="10" stroke-linecap="round" stroke-linejoin="round"/>
<path d="M42.4421 112.234C42.4421 112.234 39.9851 120.846 46.8569 119.091C53.7287 117.336 57.7847 118.357 58.4633 125.44C59.1419 132.522 62.6909 136.056 66.8873 136.024C71.0837 135.993 78.7355 134.698 79.1489 144.378C79.5623 154.058 81.6917 172.809 71.1461 174.51C60.6005 176.21 47.5823 166.164 47.2391 158.863C46.9037 151.562 50.9441 146.531 44.0489 142.241C37.1537 137.951 33.9947 145.08 28.8389 138.208C23.6909 131.337 17.8487 124.831 25.7189 115.846C32.7857 107.781 42.5825 107.172 42.4421 112.234Z" stroke="#023EA1" stroke-miterlimit="10"/>
<path d="M38.1599 121.782C38.1599 121.782 70.2179 165.165 80.9351 174.268" stroke="#023EA1" stroke-miterlimit="10"/>
<path d="M67.6908 142.779L65.0622 156.585L53.3076 158.098" stroke="#023EA1" stroke-miterlimit="10"/>
<path d="M50.6244 124.184L47.2548 133.864L37.5906 136.329" stroke="#023EA1" stroke-miterlimit="10"/>
<path d="M72.8386 270.762C100.947 270.762 123.734 247.975 123.734 219.867C123.734 191.758 100.947 168.972 72.8386 168.972C44.7301 168.972 21.9436 191.758 21.9436 219.867C21.9436 247.975 44.7301 270.762 72.8386 270.762Z" stroke="#003EB0" stroke-miterlimit="10" stroke-dasharray="6 6"/>
<path d="M22.9965 233.049C27.4681 233.049 31.0929 229.406 31.0929 224.913C31.0929 220.42 27.4681 216.778 22.9965 216.778C18.525 216.778 14.9001 220.42 14.9001 224.913C14.9001 229.406 18.525 233.049 22.9965 233.049Z" fill="#FCBE42"/>
<path d="M19.1355 224.024L23.0199 228.868L24.9075 223.376" stroke="white" stroke-miterlimit="10"/>
<path d="M350.363 291.665C378.471 291.665 401.258 268.879 401.258 240.77C401.258 212.662 378.471 189.875 350.363 189.875C322.254 189.875 299.468 212.662 299.468 240.77C299.468 268.879 322.254 291.665 350.363 291.665Z" stroke="#003EB0" stroke-miterlimit="10" stroke-dasharray="6 6"/>
<path d="M395.726 240.774L401.252 246.301L406.779 240.774L401.252 235.248L395.726 240.774Z" fill="#EE384E"/>
<path d="M233.911 26.2202L239.437 31.7466L244.963 26.2202L239.437 20.6938L233.911 26.2202Z" fill="#EE384E"/>
<path d="M27.5083 58.3003L33.0347 63.8267L38.5611 58.3002L33.0347 52.7738L27.5083 58.3003Z" fill="#003EB0"/>
<path d="M393.068 51.9248L378.778 46.106L376.36 51.8936C375.713 50.9576 374.628 50.3414 373.404 50.3414C371.415 50.3414 369.808 51.956 369.808 53.9372C369.808 55.9262 371.423 57.533 373.404 57.533C373.614 57.533 373.825 57.5096 374.028 57.4784L371.625 63.2426L377.655 65.7308C377.639 65.5904 377.624 65.45 377.624 65.3018C377.624 63.3128 379.238 61.706 381.219 61.706C383.201 61.706 384.815 63.3206 384.815 65.3018C384.815 66.4484 384.277 67.4624 383.45 68.1176L389.191 70.4888C389.191 70.4888 392.966 61.355 394.651 56.8856C396.344 52.424 393.068 51.9248 393.068 51.9248Z" stroke="#EE384E" stroke-miterlimit="10"/>
<path d="M397.693 23.361L412.521 19.0944L410.844 13.0572C411.936 13.3926 413.16 13.2054 414.128 12.4488C415.688 11.2164 415.961 8.95438 414.728 7.39438C413.496 5.83438 411.234 5.56138 409.674 6.79378C409.51 6.92638 409.354 7.06678 409.221 7.22278L407.544 1.20898L401.273 2.98738C401.375 3.08878 401.468 3.19018 401.562 3.30718C402.794 4.86718 402.521 7.12918 400.961 8.36158C399.401 9.59398 397.139 9.32098 395.907 7.76098C395.197 6.86398 394.994 5.73298 395.236 4.70338L389.261 6.39598C389.261 6.39598 391.944 15.9042 393.38 20.4594C394.815 25.0146 397.693 23.361 397.693 23.361Z" stroke="#023EA1" stroke-miterlimit="10"/>
<path d="M375.182 79.4741H50.3667V301.298H375.182V79.4741Z" fill="#0064B7"/>
<path d="M366.649 84.3491H58.8999V292.157H366.649V84.3491Z" fill="white" stroke="#DCE8F5" stroke-miterlimit="10"/>
<path d="M366.649 84.3491H58.8999V287.282H366.649V84.3491Z" fill="white" stroke="#DCE8F5" stroke-miterlimit="10"/>
<path d="M366.649 83.3198H58.8999V281.986H366.649V83.3198Z" fill="white" stroke="#DCE8F5" stroke-miterlimit="10"/>
<path d="M117.571 149.253H84.3201C82.3935 149.253 80.8335 147.693 80.8335 145.766V142.982C80.8335 141.055 82.3935 139.495 84.3201 139.495H117.571C119.498 139.495 121.058 141.055 121.058 142.982V145.766C121.058 147.693 119.498 149.253 117.571 149.253Z" fill="#DCE8F5"/>
<path d="M158.467 122.507H141.783C140.839 122.507 140.075 121.743 140.075 120.799V119.434C140.075 118.49 140.839 117.726 141.783 117.726H158.467C159.411 117.726 160.175 118.49 160.175 119.434V120.799C160.183 121.743 159.411 122.507 158.467 122.507Z" fill="#DCE8F5"/>
<path d="M189.729 122.507H173.045C172.101 122.507 171.337 121.743 171.337 120.799V119.434C171.337 118.49 172.101 117.726 173.045 117.726H189.729C190.673 117.726 191.438 118.49 191.438 119.434V120.799C191.438 121.743 190.673 122.507 189.729 122.507Z" fill="#DCE8F5"/>
<path d="M220.812 122.507H204.128C203.184 122.507 202.42 121.743 202.42 120.799V119.434C202.42 118.49 203.184 117.726 204.128 117.726H220.812C221.756 117.726 222.521 118.49 222.521 119.434V120.799C222.521 121.743 221.756 122.507 220.812 122.507Z" fill="#DCE8F5"/>
<path d="M251.802 122.507H235.118C234.174 122.507 233.409 121.743 233.409 120.799V119.434C233.409 118.49 234.174 117.726 235.118 117.726H251.802C252.746 117.726 253.51 118.49 253.51 119.434V120.799C253.51 121.743 252.746 122.507 251.802 122.507Z" fill="#DCE8F5"/>
<path d="M283.056 122.507H266.372C265.428 122.507 264.664 121.743 264.664 120.799V119.434C264.664 118.49 265.428 117.726 266.372 117.726H283.056C284 117.726 284.765 118.49 284.765 119.434V120.799C284.772 121.743 284 122.507 283.056 122.507Z" fill="#DCE8F5"/>
<path d="M314.139 122.507H297.455C296.511 122.507 295.747 121.743 295.747 120.799V119.434C295.747 118.49 296.511 117.726 297.455 117.726H314.139C315.083 117.726 315.848 118.49 315.848 119.434V120.799C315.848 121.743 315.083 122.507 314.139 122.507Z" fill="#DCE8F5"/>
<path d="M345.129 122.507H328.445C327.501 122.507 326.736 121.743 326.736 120.799V119.434C326.736 118.49 327.501 117.726 328.445 117.726H345.129C346.073 117.726 346.837 118.49 346.837 119.434V120.799C346.837 121.743 346.073 122.507 345.129 122.507Z" fill="#DCE8F5"/>
<path d="M117.571 176.982H84.3201C82.3935 176.982 80.8335 175.422 80.8335 173.495V170.711C80.8335 168.784 82.3935 167.224 84.3201 167.224H117.571C119.498 167.224 121.058 168.784 121.058 170.711V173.495C121.058 175.422 119.498 176.982 117.571 176.982Z" fill="#DCE8F5"/>
<path d="M117.571 205.319H84.3201C82.3935 205.319 80.8335 203.759 80.8335 201.833V199.048C80.8335 197.122 82.3935 195.562 84.3201 195.562H117.571C119.498 195.562 121.058 197.122 121.058 199.048V201.833C121.058 203.759 119.498 205.319 117.571 205.319Z" fill="#DCE8F5"/>
<path d="M117.571 233.048H84.3201C82.3935 233.048 80.8335 231.488 80.8335 229.562V226.777C80.8335 224.851 82.3935 223.291 84.3201 223.291H117.571C119.498 223.291 121.058 224.851 121.058 226.777V229.562C121.058 231.488 119.498 233.048 117.571 233.048Z" fill="#DCE8F5"/>
<path d="M117.571 261.994H84.3201C82.3935 261.994 80.8335 260.434 80.8335 258.508V255.723C80.8335 253.796 82.3935 252.236 84.3201 252.236H117.571C119.498 252.236 121.058 253.796 121.058 255.723V258.508C121.058 260.434 119.498 261.994 117.571 261.994Z" fill="#DCE8F5"/>
<path d="M150.308 151.39C154.349 151.39 157.625 148.114 157.625 144.074C157.625 140.033 154.349 136.757 150.308 136.757C146.267 136.757 142.992 140.033 142.992 144.074C142.992 148.114 146.267 151.39 150.308 151.39Z" fill="#0064B7"/>
<path d="M181.391 151.39C185.432 151.39 188.708 148.114 188.708 144.074C188.708 140.033 185.432 136.757 181.391 136.757C177.35 136.757 174.075 140.033 174.075 144.074C174.075 148.114 177.35 151.39 181.391 151.39Z" fill="#0064B7"/>
<path d="M212.466 151.39C216.507 151.39 219.783 148.114 219.783 144.074C219.783 140.033 216.507 136.757 212.466 136.757C208.426 136.757 205.15 140.033 205.15 144.074C205.15 148.114 208.426 151.39 212.466 151.39Z" fill="#0064B7"/>
<path d="M274.625 151.39C278.665 151.39 281.941 148.114 281.941 144.074C281.941 140.033 278.665 136.757 274.625 136.757C270.584 136.757 267.308 140.033 267.308 144.074C267.308 148.114 270.584 151.39 274.625 151.39Z" stroke="#0064B7" stroke-miterlimit="10"/>
<path d="M305.708 151.39C309.748 151.39 313.024 148.114 313.024 144.074C313.024 140.033 309.748 136.757 305.708 136.757C301.667 136.757 298.391 140.033 298.391 144.074C298.391 148.114 301.667 151.39 305.708 151.39Z" stroke="#0064B7" stroke-miterlimit="10"/>
<path d="M336.783 151.39C340.824 151.39 344.099 148.114 344.099 144.074C344.099 140.033 340.824 136.757 336.783 136.757C332.742 136.757 329.467 140.033 329.467 144.074C329.467 148.114 332.742 151.39 336.783 151.39Z" stroke="#0064B7" stroke-miterlimit="10"/>
<path d="M150.308 179.423C154.349 179.423 157.625 176.148 157.625 172.107C157.625 168.066 154.349 164.791 150.308 164.791C146.267 164.791 142.992 168.066 142.992 172.107C142.992 176.148 146.267 179.423 150.308 179.423Z" fill="#0064B7"/>
<path d="M181.391 179.423C185.432 179.423 188.708 176.148 188.708 172.107C188.708 168.066 185.432 164.791 181.391 164.791C177.35 164.791 174.075 168.066 174.075 172.107C174.075 176.148 177.35 179.423 181.391 179.423Z" stroke="#0064B7" stroke-miterlimit="10"/>
<path d="M212.466 179.423C216.507 179.423 219.783 176.148 219.783 172.107C219.783 168.066 216.507 164.791 212.466 164.791C208.426 164.791 205.15 168.066 205.15 172.107C205.15 176.148 208.426 179.423 212.466 179.423Z" fill="#0064B7"/>
<path d="M243.55 179.423C247.59 179.423 250.866 176.148 250.866 172.107C250.866 168.066 247.59 164.791 243.55 164.791C239.509 164.791 236.233 168.066 236.233 172.107C236.233 176.148 239.509 179.423 243.55 179.423Z" stroke="#0064B7" stroke-miterlimit="10"/>
<path d="M274.625 179.423C278.665 179.423 281.941 176.148 281.941 172.107C281.941 168.066 278.665 164.791 274.625 164.791C270.584 164.791 267.308 168.066 267.308 172.107C267.308 176.148 270.584 179.423 274.625 179.423Z" stroke="#0064B7" stroke-miterlimit="10"/>
<path d="M305.708 179.423C309.748 179.423 313.024 176.148 313.024 172.107C313.024 168.066 309.748 164.791 305.708 164.791C301.667 164.791 298.391 168.066 298.391 172.107C298.391 176.148 301.667 179.423 305.708 179.423Z" stroke="#0064B7" stroke-miterlimit="10"/>
<path d="M336.783 179.423C340.824 179.423 344.099 176.148 344.099 172.107C344.099 168.066 340.824 164.791 336.783 164.791C332.742 164.791 329.467 168.066 329.467 172.107C329.467 176.148 332.742 179.423 336.783 179.423Z" stroke="#0064B7" stroke-miterlimit="10"/>
<path d="M150.308 207.457C154.349 207.457 157.625 204.181 157.625 200.14C157.625 196.099 154.349 192.824 150.308 192.824C146.267 192.824 142.992 196.099 142.992 200.14C142.992 204.181 146.267 207.457 150.308 207.457Z" fill="#0064B7"/>
<path d="M181.391 207.457C185.432 207.457 188.708 204.181 188.708 200.14C188.708 196.099 185.432 192.824 181.391 192.824C177.35 192.824 174.075 196.099 174.075 200.14C174.075 204.181 177.35 207.457 181.391 207.457Z" fill="#0064B7"/>
<path d="M212.466 207.457C216.507 207.457 219.783 204.181 219.783 200.14C219.783 196.099 216.507 192.824 212.466 192.824C208.426 192.824 205.15 196.099 205.15 200.14C205.15 204.181 208.426 207.457 212.466 207.457Z" stroke="#0064B7" stroke-miterlimit="10"/>
<path d="M243.55 207.457C247.59 207.457 250.866 204.181 250.866 200.14C250.866 196.099 247.59 192.824 243.55 192.824C239.509 192.824 236.233 196.099 236.233 200.14C236.233 204.181 239.509 207.457 243.55 207.457Z" stroke="#0064B7" stroke-miterlimit="10"/>
<path d="M274.625 207.457C278.665 207.457 281.941 204.181 281.941 200.14C281.941 196.099 278.665 192.824 274.625 192.824C270.584 192.824 267.308 196.099 267.308 200.14C267.308 204.181 270.584 207.457 274.625 207.457Z" stroke="#0064B7" stroke-miterlimit="10"/>
<path d="M305.708 207.457C309.748 207.457 313.024 204.181 313.024 200.14C313.024 196.099 309.748 192.824 305.708 192.824C301.667 192.824 298.391 196.099 298.391 200.14C298.391 204.181 301.667 207.457 305.708 207.457Z" stroke="#0064B7" stroke-miterlimit="10"/>
<path d="M336.783 207.457C340.824 207.457 344.099 204.181 344.099 200.14C344.099 196.099 340.824 192.824 336.783 192.824C332.742 192.824 329.467 196.099 329.467 200.14C329.467 204.181 332.742 207.457 336.783 207.457Z" stroke="#0064B7" stroke-miterlimit="10"/>
<path d="M150.308 235.49C154.349 235.49 157.625 232.214 157.625 228.173C157.625 224.133 154.349 220.857 150.308 220.857C146.267 220.857 142.992 224.133 142.992 228.173C142.992 232.214 146.267 235.49 150.308 235.49Z" stroke="#0064B7" stroke-miterlimit="10"/>
<path d="M181.391 235.49C185.432 235.49 188.708 232.214 188.708 228.173C188.708 224.133 185.432 220.857 181.391 220.857C177.35 220.857 174.075 224.133 174.075 228.173C174.075 232.214 177.35 235.49 181.391 235.49Z" fill="#0064B7"/>
<path d="M212.466 235.49C216.507 235.49 219.783 232.214 219.783 228.173C219.783 224.133 216.507 220.857 212.466 220.857C208.426 220.857 205.15 224.133 205.15 228.173C205.15 232.214 208.426 235.49 212.466 235.49Z" fill="#0064B7"/>
<path d="M243.55 235.49C247.59 235.49 250.866 232.214 250.866 228.173C250.866 224.133 247.59 220.857 243.55 220.857C239.509 220.857 236.233 224.133 236.233 228.173C236.233 232.214 239.509 235.49 243.55 235.49Z" stroke="#0064B7" stroke-miterlimit="10"/>
<path d="M274.625 235.49C278.665 235.49 281.941 232.214 281.941 228.173C281.941 224.133 278.665 220.857 274.625 220.857C270.584 220.857 267.308 224.133 267.308 228.173C267.308 232.214 270.584 235.49 274.625 235.49Z" stroke="#0064B7" stroke-miterlimit="10"/>
<path d="M305.708 235.49C309.748 235.49 313.024 232.214 313.024 228.173C313.024 224.133 309.748 220.857 305.708 220.857C301.667 220.857 298.391 224.133 298.391 228.173C298.391 232.214 301.667 235.49 305.708 235.49Z" stroke="#0064B7" stroke-miterlimit="10"/>
<path d="M336.783 235.49C340.824 235.49 344.099 232.214 344.099 228.173C344.099 224.133 340.824 220.857 336.783 220.857C332.742 220.857 329.467 224.133 329.467 228.173C329.467 232.214 332.742 235.49 336.783 235.49Z" stroke="#0064B7" stroke-miterlimit="10"/>
<path d="M150.308 264.131C154.349 264.131 157.625 260.856 157.625 256.815C157.625 252.774 154.349 249.499 150.308 249.499C146.267 249.499 142.992 252.774 142.992 256.815C142.992 260.856 146.267 264.131 150.308 264.131Z" fill="#0064B7"/>
<path d="M181.391 264.131C185.432 264.131 188.708 260.856 188.708 256.815C188.708 252.774 185.432 249.499 181.391 249.499C177.35 249.499 174.075 252.774 174.075 256.815C174.075 260.856 177.35 264.131 181.391 264.131Z" fill="#0064B7"/>
<path d="M212.466 264.131C216.507 264.131 219.783 260.856 219.783 256.815C219.783 252.774 216.507 249.499 212.466 249.499C208.426 249.499 205.15 252.774 205.15 256.815C205.15 260.856 208.426 264.131 212.466 264.131Z" fill="#0064B7" stroke="#0064B7" stroke-miterlimit="10"/>
<path d="M243.55 264.131C247.59 264.131 250.866 260.856 250.866 256.815C250.866 252.774 247.59 249.499 243.55 249.499C239.509 249.499 236.233 252.774 236.233 256.815C236.233 260.856 239.509 264.131 243.55 264.131Z" stroke="#0064B7" stroke-miterlimit="10"/>
<path d="M274.625 264.131C278.665 264.131 281.941 260.856 281.941 256.815C281.941 252.774 278.665 249.499 274.625 249.499C270.584 249.499 267.308 252.774 267.308 256.815C267.308 260.856 270.584 264.131 274.625 264.131Z" stroke="#0064B7" stroke-miterlimit="10"/>
<path d="M305.708 264.131C309.748 264.131 313.024 260.856 313.024 256.815C313.024 252.774 309.748 249.499 305.708 249.499C301.667 249.499 298.391 252.774 298.391 256.815C298.391 260.856 301.667 264.131 305.708 264.131Z" stroke="#0064B7" stroke-miterlimit="10"/>
<path d="M336.783 264.131C340.824 264.131 344.099 260.856 344.099 256.815C344.099 252.774 340.824 249.499 336.783 249.499C332.742 249.499 329.467 252.774 329.467 256.815C329.467 260.856 332.742 264.131 336.783 264.131Z" stroke="#0064B7" stroke-miterlimit="10"/>
<path d="M106.581 99.5825C109.106 99.5825 111.152 97.5361 111.152 95.0117C111.152 92.4873 109.106 90.4409 106.581 90.4409C104.057 90.4409 102.01 92.4873 102.01 95.0117C102.01 97.5361 104.057 99.5825 106.581 99.5825Z" fill="#023EA1"/>
<path d="M132.789 99.5825C135.314 99.5825 137.36 97.5361 137.36 95.0117C137.36 92.4873 135.314 90.4409 132.789 90.4409C130.265 90.4409 128.219 92.4873 128.219 95.0117C128.219 97.5361 130.265 99.5825 132.789 99.5825Z" fill="#023EA1"/>
<path d="M159.598 99.5825C162.123 99.5825 164.169 97.5361 164.169 95.0117C164.169 92.4873 162.123 90.4409 159.598 90.4409C157.074 90.4409 155.027 92.4873 155.027 95.0117C155.027 97.5361 157.074 99.5825 159.598 99.5825Z" fill="#023EA1"/>
<path d="M185.806 99.5825C188.33 99.5825 190.377 97.5361 190.377 95.0117C190.377 92.4873 188.33 90.4409 185.806 90.4409C183.282 90.4409 181.235 92.4873 181.235 95.0117C181.235 97.5361 183.282 99.5825 185.806 99.5825Z" fill="#023EA1"/>
<path d="M213.231 99.5825C215.755 99.5825 217.802 97.5361 217.802 95.0117C217.802 92.4873 215.755 90.4409 213.231 90.4409C210.706 90.4409 208.66 92.4873 208.66 95.0117C208.66 97.5361 210.706 99.5825 213.231 99.5825Z" fill="#023EA1"/>
<path d="M239.431 99.5825C241.955 99.5825 244.002 97.5361 244.002 95.0117C244.002 92.4873 241.955 90.4409 239.431 90.4409C236.907 90.4409 234.86 92.4873 234.86 95.0117C234.86 97.5361 236.907 99.5825 239.431 99.5825Z" fill="#023EA1"/>
<path d="M266.248 99.5825C268.772 99.5825 270.818 97.5361 270.818 95.0117C270.818 92.4873 268.772 90.4409 266.248 90.4409C263.723 90.4409 261.677 92.4873 261.677 95.0117C261.677 97.5361 263.723 99.5825 266.248 99.5825Z" fill="#023EA1"/>
<path d="M292.456 99.5825C294.98 99.5825 297.026 97.5361 297.026 95.0117C297.026 92.4873 294.98 90.4409 292.456 90.4409C289.931 90.4409 287.885 92.4873 287.885 95.0117C287.885 97.5361 289.931 99.5825 292.456 99.5825Z" fill="#023EA1"/>
<path d="M319.873 99.5825C322.397 99.5825 324.443 97.5361 324.443 95.0117C324.443 92.4873 322.397 90.4409 319.873 90.4409C317.348 90.4409 315.302 92.4873 315.302 95.0117C315.302 97.5361 317.348 99.5825 319.873 99.5825Z" fill="#023EA1"/>
<path d="M107.104 95.3159H106.059C105.341 95.3159 104.756 94.7309 104.756 94.0133V69.2015C104.756 68.4839 105.341 67.8989 106.059 67.8989H107.104C107.822 67.8989 108.407 68.4839 108.407 69.2015V94.0133C108.414 94.7309 107.829 95.3159 107.104 95.3159Z" fill="#6E839D"/>
<path d="M133.312 95.3159H132.267C131.549 95.3159 130.964 94.7309 130.964 94.0133V69.2015C130.964 68.4839 131.549 67.8989 132.267 67.8989H133.312C134.03 67.8989 134.615 68.4839 134.615 69.2015V94.0133C134.615 94.7309 134.03 95.3159 133.312 95.3159Z" fill="#6E839D"/>
<path d="M160.121 95.3159H159.075C158.358 95.3159 157.773 94.7309 157.773 94.0133V69.2015C157.773 68.4839 158.358 67.8989 159.075 67.8989H160.121C160.838 67.8989 161.423 68.4839 161.423 69.2015V94.0133C161.431 94.7309 160.846 95.3159 160.121 95.3159Z" fill="#6E839D"/>
<path d="M186.329 95.3159H185.283C184.566 95.3159 183.981 94.7309 183.981 94.0133V69.2015C183.981 68.4839 184.566 67.8989 185.283 67.8989H186.329C187.046 67.8989 187.631 68.4839 187.631 69.2015V94.0133C187.631 94.7309 187.046 95.3159 186.329 95.3159Z" fill="#6E839D"/>
<path d="M213.753 95.3159H212.708C211.991 95.3159 211.406 94.7309 211.406 94.0133V69.2015C211.406 68.4839 211.991 67.8989 212.708 67.8989H213.753C214.471 67.8989 215.056 68.4839 215.056 69.2015V94.0133C215.056 94.7309 214.471 95.3159 213.753 95.3159Z" fill="#6E839D"/>
<path d="M239.954 95.3159H238.908C238.191 95.3159 237.606 94.7309 237.606 94.0133V69.2015C237.606 68.4839 238.191 67.8989 238.908 67.8989H239.954C240.671 67.8989 241.256 68.4839 241.256 69.2015V94.0133C241.264 94.7309 240.679 95.3159 239.954 95.3159Z" fill="#6E839D"/>
<path d="M266.77 95.3159H265.725C265.007 95.3159 264.422 94.7309 264.422 94.0133V69.2015C264.422 68.4839 265.007 67.8989 265.725 67.8989H266.77C267.488 67.8989 268.073 68.4839 268.073 69.2015V94.0133C268.073 94.7309 267.488 95.3159 266.77 95.3159Z" fill="#6E839D"/>
<path d="M292.97 95.3159H291.925C291.208 95.3159 290.623 94.7309 290.623 94.0133V69.2015C290.623 68.4839 291.208 67.8989 291.925 67.8989H292.97C293.688 67.8989 294.273 68.4839 294.273 69.2015V94.0133C294.281 94.7309 293.696 95.3159 292.97 95.3159Z" fill="#6E839D"/>
<path d="M320.395 95.3159H319.35C318.632 95.3159 318.047 94.7309 318.047 94.0133V69.2015C318.047 68.4839 318.632 67.8989 319.35 67.8989H320.395C321.113 67.8989 321.698 68.4839 321.698 69.2015V94.0133C321.705 94.7309 321.12 95.3159 320.395 95.3159Z" fill="#6E839D"/>
<path d="M247.722 138.076C244.314 140.751 239.907 144.199 236.709 146.648C237.754 149.417 240.414 151.382 243.549 151.382C247.59 151.382 250.866 148.106 250.866 144.066C250.858 141.586 249.618 139.394 247.722 138.076Z" stroke="#0064B7" stroke-miterlimit="10"/>
<path d="M243.55 136.757C239.509 136.757 236.233 140.033 236.233 144.074C236.233 144.979 236.405 145.844 236.709 146.648C239.907 144.191 244.314 140.751 247.723 138.076C246.537 137.249 245.102 136.757 243.55 136.757Z" fill="#0064B7" stroke="#0064B7" stroke-miterlimit="10"/>
<path d="M74.6715 40.6226H60.7095C60.4833 40.6226 60.2961 40.802 60.2961 41.036V46.7846C60.2961 46.8938 60.3429 46.9952 60.4131 47.0732L62.0589 48.719C62.1369 48.797 62.2383 48.836 62.3475 48.836H73.0257C73.1349 48.836 73.2363 48.7892 73.3143 48.719L74.9601 47.0732C75.0381 46.9952 75.0771 46.8938 75.0771 46.7846V41.036C75.0849 40.8098 74.9055 40.6226 74.6715 40.6226ZM74.2659 46.613L72.8619 48.017H62.5269L61.1229 46.613V41.4494H74.2581V46.613H74.2659Z" fill="#003EB0"/>
<path d="M75.4749 42.2685L59.8749 43.0875C59.6487 43.1031 59.4771 43.2903 59.4849 43.5165C59.4927 43.7349 59.6799 43.9065 59.8983 43.9065C59.9061 43.9065 59.9139 43.9065 59.9217 43.9065L75.5217 43.0875C75.7479 43.0797 75.9195 42.8847 75.9117 42.6585C75.8961 42.4323 75.7011 42.2529 75.4749 42.2685Z" fill="#003EB0"/>
<path d="M75.4749 44.7334L59.8749 45.5524C59.6487 45.568 59.4771 45.7552 59.4849 45.9814C59.4927 46.1998 59.6799 46.3714 59.8983 46.3714C59.9061 46.3714 59.9139 46.3714 59.9217 46.3714L75.5217 45.5524C75.7479 45.5446 75.9195 45.3496 75.9117 45.1234C75.8961 44.8972 75.7011 44.71 75.4749 44.7334Z" fill="#003EB0"/>
<path d="M67.6905 12.7065C59.9919 12.7065 53.7285 18.9699 53.7285 26.6685C53.7285 31.5123 56.1777 35.9193 60.2961 38.4933V41.0361C60.2961 41.2623 60.4833 41.4495 60.7095 41.4495H74.6715C74.8977 41.4495 75.0849 41.2623 75.0849 41.0361V38.4933C79.2033 35.9193 81.6525 31.5201 81.6525 26.6685C81.6525 18.9699 75.3891 12.7065 67.6905 12.7065ZM74.4609 37.9083C74.3361 37.9785 74.2581 38.1189 74.2581 38.2593V40.6227H61.1229V38.2593C61.1229 38.1189 61.0449 37.9785 60.9201 37.9083C56.9343 35.5059 54.5475 31.3017 54.5475 26.6607C54.5475 19.4145 60.4443 13.5255 67.6827 13.5255C74.9289 13.5255 80.8179 19.4223 80.8179 26.6607C80.8335 31.3017 78.4545 35.5059 74.4609 37.9083Z" fill="#003EB0"/>
<path d="M71.5749 48.0638C71.3721 47.9624 71.1303 48.0404 71.0211 48.2432C70.9899 48.2978 70.2489 49.6628 67.6905 49.6628C65.1399 49.6628 64.3911 48.3056 64.3599 48.2432C64.2585 48.0404 64.0167 47.9624 63.8139 48.0638C63.6111 48.1652 63.5253 48.4148 63.6267 48.6098C63.6657 48.6878 64.5939 50.4818 67.6905 50.4818C70.7793 50.4818 71.7153 48.6878 71.7543 48.6098C71.8557 48.407 71.7777 48.1652 71.5749 48.0638Z" fill="#003EB0"/>
<path d="M50.0392 26.2549H41.8258C41.5996 26.2549 41.4124 26.4343 41.4124 26.6683C41.4124 26.8945 41.5996 27.0817 41.8258 27.0817H50.0392C50.2654 27.0817 50.4525 26.8945 50.4525 26.6683C50.4525 26.4421 50.2654 26.2549 50.0392 26.2549Z" fill="#DE051F"/>
<path d="M93.5631 26.2549H85.3497C85.1235 26.2549 84.9363 26.4421 84.9363 26.6683C84.9363 26.8945 85.1235 27.0817 85.3497 27.0817H93.5631C93.7893 27.0817 93.9765 26.8945 93.9765 26.6683C93.9687 26.4421 93.7893 26.2549 93.5631 26.2549Z" fill="#DE051F"/>
<path d="M52.7614 35.2871C52.6522 35.0921 52.3948 35.0219 52.1998 35.1389L45.0862 39.2417C44.8912 39.3587 44.821 39.6083 44.938 39.8033C45.016 39.9359 45.1486 40.0061 45.2968 40.0061C45.367 40.0061 45.4372 39.9905 45.4996 39.9515L52.6132 35.8487C52.8082 35.7395 52.8784 35.4821 52.7614 35.2871Z" fill="#DE051F"/>
<path d="M90.4509 13.5254C90.3339 13.3304 90.0843 13.2602 89.8893 13.3772L82.7757 17.48C82.5807 17.597 82.5105 17.8466 82.6275 18.0416C82.7055 18.1742 82.8381 18.2444 82.9785 18.2444C83.0487 18.2444 83.1189 18.2288 83.1813 18.1898L90.2871 14.087C90.4977 13.9778 90.5679 13.7282 90.4509 13.5254Z" fill="#DE051F"/>
<path d="M80.8336 3.90794C80.6386 3.79874 80.389 3.86114 80.272 4.05614L76.1692 11.1697C76.0522 11.3647 76.1224 11.6143 76.3174 11.7313C76.3798 11.7703 76.45 11.7859 76.5202 11.7859C76.6606 11.7859 76.801 11.7157 76.879 11.5831L80.9818 4.46954C81.0988 4.27454 81.0286 4.02494 80.8336 3.90794Z" fill="#DE051F"/>
<path d="M67.6983 0.390137C67.4721 0.390137 67.2849 0.577337 67.2849 0.803537V9.01694C67.2849 9.24314 67.4721 9.43034 67.6983 9.43034C67.9245 9.43034 68.1117 9.24314 68.1117 9.01694V0.803537C68.1039 0.577337 67.9245 0.390137 67.6983 0.390137Z" fill="#DE051F"/>
<path d="M59.2277 11.1698L55.1249 4.064C55.0157 3.869 54.7583 3.7988 54.5633 3.9158C54.3683 4.0328 54.2981 4.2824 54.4151 4.4774L58.5179 11.591C58.5959 11.7236 58.7285 11.7938 58.8767 11.7938C58.9469 11.7938 59.0171 11.7782 59.0795 11.7392C59.2667 11.6144 59.3369 11.3648 59.2277 11.1698Z" fill="#DE051F"/>
<path d="M90.3027 39.2417L83.1891 35.1389C82.9941 35.0297 82.7445 35.0921 82.6275 35.2871C82.5105 35.4821 82.5807 35.7317 82.7757 35.8487L89.8893 39.9515C89.9517 39.9905 90.0219 40.0061 90.0921 40.0061C90.2325 40.0061 90.3729 39.9359 90.4509 39.8033C90.5679 39.6083 90.4977 39.3587 90.3027 39.2417Z" fill="#DE051F"/>
<path d="M52.6132 17.48L45.4996 13.3772C45.3046 13.268 45.055 13.3304 44.938 13.5254C44.821 13.7204 44.8912 13.97 45.0862 14.087L52.1998 18.1898C52.2622 18.2288 52.3324 18.2444 52.4026 18.2444C52.543 18.2444 52.6834 18.1742 52.7614 18.0416C52.8784 17.8466 52.8082 17.597 52.6132 17.48Z" fill="#DE051F"/>
<path d="M68.8919 40.6226V27.3782C68.8919 27.3782 68.7047 21.1304 72.1133 21.1304C75.5219 21.1304 73.9463 27.6278 67.3787 27.6278" stroke="#003EB0" stroke-miterlimit="10"/>
<path d="M65.8576 40.6226V27.3782C65.8576 27.3782 66.0448 21.1304 62.6362 21.1304C59.2276 21.1304 60.8032 27.6278 67.3708 27.6278" stroke="#003EB0" stroke-miterlimit="10"/>
<path d="M113.476 349.596C123.522 349.596 131.666 346.963 131.666 343.715C131.666 340.467 123.522 337.833 113.476 337.833C103.431 337.833 95.2869 340.467 95.2869 343.715C95.2869 346.963 103.431 349.596 113.476 349.596Z" fill="#ECF2F5"/>
<path d="M80.0848 279.724C80.0848 279.724 84.4138 277.961 84.094 272.985C83.7742 268.008 81.208 264.483 86.5042 265.926C91.8004 267.369 93.5788 268.008 97.4242 267.213C101.27 266.409 104.468 264.802 102.791 269.779C101.106 274.755 99.2962 278.92 103.251 279.724C107.205 280.527 111.456 277.532 111.971 285.316C112.486 293.109 106.199 301.86 96.0358 302.18C85.8724 302.5 81.3796 298.288 81.3796 298.288C81.3796 298.288 78.6496 294.442 82.9006 293.499C87.1516 292.555 91.4806 290.753 89.32 288.764C87.1594 286.775 80.0926 286.619 80.0926 286.619C80.0926 286.619 71.263 284.864 80.0848 279.724Z" fill="#649EEA"/>
<path d="M126.542 281.011C125.824 276.05 126.378 272.47 135.605 271.128C144.833 269.786 150.207 275.317 150.768 281.011C151.33 286.705 143.312 288.772 143.312 288.772C143.312 288.772 137.618 290.394 140.504 295.37C143.39 300.347 144.7 305.159 138.148 305.877C131.596 306.602 124.428 304.871 120.426 302.203C116.433 299.536 112.338 292.796 116.916 289.271C116.916 289.271 118.203 288.389 122.61 288.148C127.017 287.906 126.542 281.011 126.542 281.011Z" fill="#023EA1"/>
<path d="M94.0779 280.207C94.0779 280.207 101.737 297.531 102.783 309.324" stroke="#023EA1" stroke-miterlimit="10"/>
<path d="M136.674 283.046C136.674 283.046 123.117 303.178 119.912 309.917" stroke="#649EEA" stroke-miterlimit="10"/>
<path d="M98.056 307.967H129.178C129.178 307.967 132.587 308.209 132.306 312.858C132.048 317.14 126.612 316.22 123.804 316.22C120.996 316.22 97.3852 316.22 97.3852 316.22C97.3852 316.22 93.5632 316.875 93.5632 312.538C93.5632 308.201 95.0062 307.967 98.056 307.967Z" fill="#0054A5"/>
<path d="M97.3853 316.22L102.104 343.715H123L126.542 323.076L97.4243 316.22H97.3853Z" fill="#0054A5"/>
<path d="M97.4241 316.22L126.541 323.076L127.719 316.22H97.4241Z" fill="#006AD5"/>
<path d="M110.809 309.005C110.809 309.005 112.385 278.491 121.479 259.35" stroke="#FCBE42" stroke-miterlimit="10"/>
<path d="M128.967 248.336C128.967 248.336 129.716 257.704 120.575 261.362C120.575 261.362 118.593 253.36 128.967 248.336Z" fill="#FCBE42"/>
<path d="M115.255 278.148C115.255 278.148 118.624 270.153 128.983 271.23C128.983 271.222 128.172 279.186 115.255 278.148Z" fill="#FCBE42"/>
<path d="M111.846 298.248C111.846 298.248 113.586 289.754 123.96 288.779C123.96 288.772 124.724 296.743 111.846 298.248Z" fill="#FCBE42"/>
<path d="M111.488 298.303C111.488 298.303 112.689 289.716 103.243 285.324C103.243 285.324 99.8578 292.57 111.488 298.303Z" fill="#FCBE42"/>
<path d="M115.364 278.086C115.364 278.086 117.65 269.716 108.843 264.163C108.843 264.163 104.561 270.925 115.364 278.086Z" fill="#FCBE42"/>
<path d="M324.318 185.414L333.054 194.805C333.054 194.805 336.065 198.073 333.054 200.99C330.044 203.915 327.961 206.013 327.961 206.013L324.318 185.414Z" fill="#FFBF99"/>
<path d="M248.245 147.404L245.14 144.94C245.14 144.94 244.626 144.472 244.119 144.69C243.612 144.908 243.573 145.439 244.345 146.024C245.109 146.617 247.41 148.496 247.41 148.496L248.245 147.404Z" fill="#0064B7"/>
<path d="M248.705 146.203L246.42 149.198L258.237 164.408L266.349 153.317L248.705 146.203Z" fill="#649EEA"/>
<path d="M266.349 153.317L293.891 174.127C291.792 177.005 288.438 181.88 286.169 185.219L258.237 164.408L266.349 153.317Z" fill="#0064B7"/>
<path d="M286.168 185.219C288.438 181.88 291.792 176.997 293.89 174.127L327.836 199.773L322.267 212.105L286.168 185.219Z" fill="#649EEA"/>
<path d="M334.248 204.625L335.152 205.311C335.152 205.311 336.619 206.396 335.41 207.917C333.928 209.781 329.763 215.849 329.763 215.849C329.763 215.849 328.788 217.222 328.015 216.629C327.251 216.029 325.457 214.492 325.457 214.492L322.267 212.121L327.836 199.789L334.248 204.625Z" fill="#0064B7"/>
<path d="M307.189 228.283L320.005 334.901L329.17 334.012L330.488 225.506L307.189 228.283Z" fill="#0064E1"/>
<path d="M321.152 228.283L297.081 334.901L287.916 334.012L294.218 225.506L321.152 228.283Z" fill="#003EB0"/>
<path d="M313.234 161.631C313.234 161.631 314.022 166.07 315.691 170.523C317.361 174.977 318.203 176.763 318.203 176.763C318.203 176.763 312.766 182.832 307.486 181.833C302.205 180.835 302.283 177.302 302.283 177.302C302.283 177.302 307.228 173.433 307.345 168.137C307.462 162.84 307.462 162.84 307.462 162.84L313.234 161.631Z" fill="#FFBF99"/>
<path d="M302.463 149.471C302.463 149.471 299.733 152.942 299.6 159.128C299.468 165.313 300.255 169.743 302.9 169.806C305.552 169.86 310.887 168.215 311.807 166.467C312.728 164.72 314.498 164.759 314.576 161.226C314.654 157.692 310.411 149.651 306.878 149.573C303.344 149.487 302.463 149.471 302.463 149.471Z" fill="#FFBF99"/>
<path d="M299.811 149.409C299.811 149.409 297.315 142.288 299.101 141.437C300.887 140.595 304.381 142.436 305.247 143.341C306.113 144.245 307.876 144.284 308.757 144.3C308.757 144.3 317.587 144.495 319.318 146.297C321.05 148.099 321.027 148.988 321.011 149.869C320.995 150.751 320.925 154.214 321.76 156.07C322.119 156.874 322.548 160.508 320.707 164.003C318.866 167.497 317.08 168.34 316.191 168.324C315.309 168.308 314.514 168.285 314.443 167.404C314.373 166.444 314.053 165.095 313.64 163.855C313.242 162.669 312.837 160.306 312.837 160.306C312.837 160.306 312.049 155.867 310.325 154.066C308.593 152.264 308.593 152.264 305.083 151.297C301.558 150.337 300.637 152.084 299.811 149.409Z" fill="#170856"/>
<path d="M311.581 156.117C310.239 157.591 311.948 160.282 311.948 160.282C311.948 160.282 314.576 161.226 314.639 158.574C314.701 155.922 312.923 154.643 311.581 156.117Z" fill="#FFBF99"/>
<path d="M329.162 340.961C329.162 340.961 329.677 342.404 326.705 342.381C323.733 342.357 307.564 342.209 307.564 342.209C307.564 342.209 304.452 341.562 307.345 340.189C310.239 338.824 318.905 335.018 318.905 335.018C318.905 335.018 319.56 334.846 319.568 333.185L329.373 333.27L329.162 340.961Z" fill="#170856"/>
<path d="M297.572 340.961C297.572 340.961 298.087 342.404 295.115 342.381C292.143 342.357 275.974 342.209 275.974 342.209C275.974 342.209 272.862 341.562 275.756 340.189C278.649 338.824 287.315 335.018 287.315 335.018C287.315 335.018 287.97 334.846 287.978 333.185L297.783 333.27L297.572 340.961Z" fill="#170856"/>
<path d="M306.604 175.048C306.604 175.048 305.645 174.26 304.545 175.134C303.445 176.007 299.623 178.823 297.751 182.473C295.879 186.124 295.248 191.163 294.608 202.948C293.968 214.734 294.07 227.479 294.07 227.479L330.589 228.275C330.589 228.275 331.744 206.841 328.304 193.659C324.864 180.477 319.708 175.898 318.562 175.321C317.415 174.751 316.269 175.89 316.269 175.89C316.269 175.89 311.253 180.5 306.604 175.048Z" fill="#FCBE42"/>
<path d="M291.527 186.194L283.478 194.906C283.478 194.906 282.807 196.248 281.465 194.236C280.124 192.223 274.757 182.84 274.757 180.157C274.757 177.473 274.757 175.461 274.086 174.119C273.416 172.778 272.074 170.765 272.074 170.765C272.074 170.765 270.732 168.753 270.732 170.095C270.732 171.436 270.732 173.449 270.062 173.449C269.391 173.449 265.366 169.424 265.366 169.424C265.366 169.424 265.366 176.132 266.708 176.803C268.049 177.473 270.062 178.815 270.062 180.827C270.062 182.84 276.099 200.273 277.44 202.956C278.782 205.639 281.465 205.639 284.148 204.298C286.832 202.956 298.227 193.573 298.227 193.573L291.527 186.194Z" fill="#FFBF99"/>
<path d="M289.413 186.49C289.413 186.49 301.48 175.094 306.846 179.111C312.213 183.136 297.463 196.544 297.463 196.544C297.463 196.544 290.084 189.165 289.413 186.49Z" fill="#F79F03"/>
</svg>
