<svg width="432" height="334" viewBox="0 0 432 334" fill="none" xmlns="http://www.w3.org/2000/svg">
<path d="M216 333.17C334.887 333.17 431.264 324.834 431.264 314.552C431.264 304.269 334.887 295.934 216 295.934C97.1131 295.934 0.736084 304.269 0.736084 314.552C0.736084 324.834 97.1131 333.17 216 333.17Z" fill="#E8E7EC"/>
<path d="M106.285 252.956C106.285 252.956 106.632 256.262 108.368 260.438L114.097 263.048L109.583 263.744C114.618 276.272 126.77 294.194 155.067 290.54C155.067 291.236 168.954 255.566 106.285 252.956Z" fill="#FABD41"/>
<path d="M113.75 272.618L137.012 275.054L106.285 252.956" stroke="white" stroke-miterlimit="10"/>
<path d="M126.075 255.566L137.012 275.054" stroke="white" stroke-miterlimit="10"/>
<path d="M124.339 232.076C124.339 232.076 131.978 226.856 133.54 231.38C135.103 235.904 137.186 235.73 139.443 235.382C141.699 235.034 145.345 232.946 146.734 237.818C148.123 242.864 146.734 245.822 148.991 247.388C151.247 248.954 158.191 258.176 153.504 259.742C148.991 261.308 143.609 257.48 141.699 255.392C139.79 253.13 135.797 253.13 132.846 253.826C129.547 254.522 125.555 253.13 126.943 249.302C128.332 245.474 126.249 241.646 123.471 240.95C120.52 239.906 118.958 235.556 124.339 232.076Z" fill="#1C4599"/>
<path d="M128.332 236.426L154.719 263.048" stroke="white" stroke-miterlimit="10" stroke-linecap="round" stroke-linejoin="round"/>
<path d="M141.179 238.688L139.095 247.214L129.895 248.606" stroke="white" stroke-miterlimit="10" stroke-linecap="round" stroke-linejoin="round"/>
<path d="M117.395 243.908C117.395 243.908 117.395 248.78 120.694 246.866C123.992 244.952 126.249 244.778 127.638 248.432C129.027 252.086 131.283 253.478 133.54 252.782C135.797 252.086 139.443 250.346 141.005 255.218C142.567 260.264 146.56 269.66 141.179 272.096C135.971 274.532 127.811 271.052 126.423 267.572C125.034 263.918 126.423 260.612 122.43 259.394C118.437 258.176 117.569 262.352 114.097 259.568C110.625 256.784 106.459 254.348 109.063 248.432C111.667 243.038 116.875 241.298 117.395 243.908Z" stroke="#ED3B4E" stroke-miterlimit="10"/>
<path d="M116.527 249.128C116.527 249.128 139.443 267.05 146.56 270.008" stroke="#ED3B4E" stroke-miterlimit="10"/>
<path d="M135.103 255.914L135.623 263.396L129.721 265.832" stroke="#ED3B4E" stroke-miterlimit="10"/>
<path d="M123.471 248.606L123.124 254.348L118.437 256.958" stroke="#ED3B4E" stroke-miterlimit="10"/>
<path d="M134.234 176.222C162.422 176.222 185.273 153.319 185.273 125.066C185.273 96.8132 162.422 73.9099 134.234 73.9099C106.047 73.9099 83.196 96.8132 83.196 125.066C83.196 153.319 106.047 176.222 134.234 176.222Z" stroke="#DD1F26" stroke-miterlimit="10" stroke-dasharray="6 6"/>
<path d="M93.7857 100.88C97.3332 100.88 100.209 97.9975 100.209 94.4419C100.209 90.8863 97.3332 88.0039 93.7857 88.0039C90.2383 88.0039 87.3625 90.8863 87.3625 94.4419C87.3625 97.9975 90.2383 100.88 93.7857 100.88Z" fill="#24499F"/>
<path d="M95.6953 91.8318L90.6609 93.5718L94.3065 96.5298L95.6953 91.8318Z" fill="white"/>
<path d="M217.389 29.54C217.389 29.54 211.313 34.586 217.042 36.848C222.944 39.11 225.201 41.894 222.25 47.462C218.951 53.03 219.993 57.38 222.944 59.468C226.242 61.556 232.318 64.688 227.458 71.822C222.597 79.13 214.611 93.746 206.105 89.744C197.425 85.742 193.258 71.474 196.73 65.906C200.202 60.338 205.931 58.772 202.98 52.334C200.376 45.896 194.3 49.028 194.126 41.546C193.953 33.89 192.911 26.06 203.501 23.624C212.528 21.362 219.819 25.886 217.389 29.54Z" stroke="#1C4599" stroke-miterlimit="10"/>
<path d="M209.056 34.4121C209.056 34.4121 210.098 82.6101 212.875 94.6161" stroke="#1C4599" stroke-miterlimit="10"/>
<path d="M219.819 64.8621L210.618 73.5621L201.417 68.5161" stroke="#1C4599" stroke-miterlimit="10"/>
<path d="M217.215 42.416L209.75 47.81L201.244 44.504" stroke="#1C4599" stroke-miterlimit="10"/>
<path d="M237.7 30.062C237.7 30.062 252.282 34.586 248.29 41.198C243.95 47.636 246.38 50.42 249.331 52.856C251.935 55.292 258.706 58.076 253.671 64.688C248.637 71.3 243.602 72.692 243.95 77.216C244.297 81.74 239.61 100.01 232.839 95.834C225.895 91.832 225.374 80.87 226.416 75.998C227.458 71.474 223.118 66.254 219.125 62.774C215.132 59.468 212.875 52.856 218.951 50.768C225.201 48.506 228.152 42.068 226.242 37.544C223.465 33.368 227.805 27.278 237.7 30.062Z" fill="#FABD41"/>
<path d="M236.311 39.98L229.02 101.75" stroke="white" stroke-miterlimit="10" stroke-linecap="round" stroke-linejoin="round"/>
<path d="M246.554 58.946L233.186 65.036L221.729 55.292" stroke="white" stroke-miterlimit="10" stroke-linecap="round" stroke-linejoin="round"/>
<path d="M169.302 38.588C169.302 38.588 163.399 34.238 167.218 29.192C170.864 24.146 180.238 24.146 182.148 29.018C184.231 33.542 181.454 37.022 185.62 37.718C189.613 38.414 200.55 42.068 198.466 47.288C196.21 52.508 189.786 52.856 192.564 59.816C195.168 66.776 208.709 67.994 201.765 77.738C194.821 87.308 178.676 100.532 170.343 84.002C162.358 67.472 180.065 70.778 170.517 60.164C160.969 49.55 168.954 49.202 171.558 45.2C173.989 40.676 169.302 38.588 169.302 38.588Z" fill="#ED3B4E"/>
<path d="M180.238 44.678C180.238 44.678 181.28 63.818 187.877 79.652C194.473 95.486 198.64 97.574 198.64 97.574" stroke="white" stroke-miterlimit="10" stroke-linecap="round" stroke-linejoin="round"/>
<path d="M144.303 71.8219C142.394 71.8219 140.831 73.2139 140.831 75.3019V309.68C140.831 311.594 142.394 313.16 144.303 313.16H269.816C271.726 313.16 273.288 311.768 273.288 309.68V74.9539C273.288 73.0399 271.726 71.4739 269.816 71.4739H144.303V71.8219Z" fill="#1466B1"/>
<path d="M269.295 86.96H142.741V298.196H269.295V86.96Z" fill="white" stroke="#1466B1" stroke-width="2" stroke-miterlimit="10"/>
<path d="M225.374 79.6518C225.374 80.6958 224.333 81.5658 223.465 81.5658C222.423 81.5658 221.555 80.5218 221.555 79.6518C221.555 78.6078 222.597 77.7378 223.465 77.7378C224.333 77.9118 225.374 78.4338 225.374 79.6518Z" fill="#012257"/>
<path d="M221.208 79.6517C221.208 80.6957 220.514 81.2177 219.646 81.2177H190.481C189.439 81.2177 188.918 80.5217 188.918 79.6517C188.918 78.6077 189.613 78.0857 190.481 78.0857H219.646C220.166 78.0857 221.208 78.6077 221.208 79.6517Z" fill="#012257"/>
<path opacity="0.05" d="M260.789 170.306C260.789 194.144 241.693 213.11 218.083 213.11C194.474 213.11 175.378 193.97 175.378 170.306C175.378 146.642 194.474 127.502 218.083 127.502C241.693 127.328 260.789 146.816 260.789 170.306Z" fill="#1466B1"/>
<path d="M250.72 167.87C250.72 191.708 231.624 210.674 208.014 210.674C184.231 210.674 165.309 191.534 165.309 167.87C165.309 144.206 184.405 125.066 208.014 125.066C231.624 125.066 250.72 144.206 250.72 167.87Z" fill="#C7D6EE"/>
<mask id="mask0_2294_42350" style="mask-type:luminance" maskUnits="userSpaceOnUse" x="165" y="125" width="86" height="86">
<path d="M207.841 210.674C231.427 210.674 250.546 191.51 250.546 167.87C250.546 144.23 231.427 125.066 207.841 125.066C184.255 125.066 165.135 144.23 165.135 167.87C165.135 191.51 184.255 210.674 207.841 210.674Z" fill="white"/>
</mask>
<g mask="url(#mask0_2294_42350)">
<path d="M183.884 196.754C186.835 192.23 191.522 190.838 191.522 190.838L202.806 186.836H213.743L225.027 190.838C225.027 190.838 229.888 192.23 232.666 196.754H183.884Z" fill="#A4DEF6"/>
</g>
<mask id="mask1_2294_42350" style="mask-type:luminance" maskUnits="userSpaceOnUse" x="165" y="125" width="86" height="86">
<path d="M207.841 210.674C231.427 210.674 250.546 191.51 250.546 167.87C250.546 144.23 231.427 125.066 207.841 125.066C184.255 125.066 165.135 144.23 165.135 167.87C165.135 191.51 184.255 210.674 207.841 210.674Z" fill="white"/>
</mask>
<g mask="url(#mask1_2294_42350)">
<path d="M223.291 218.852H240.825C240.825 215.894 240.651 211.544 240.651 211.544C239.61 193.448 226.416 190.838 226.416 190.838C216.347 188.402 221.903 204.062 221.903 204.062C221.729 207.89 222.076 213.11 223.291 218.852Z" fill="#CCCCCC"/>
</g>
<mask id="mask2_2294_42350" style="mask-type:luminance" maskUnits="userSpaceOnUse" x="165" y="125" width="86" height="86">
<path d="M207.841 210.674C231.427 210.674 250.546 191.51 250.546 167.87C250.546 144.23 231.427 125.066 207.841 125.066C184.255 125.066 165.135 144.23 165.135 167.87C165.135 191.51 184.255 210.674 207.841 210.674Z" fill="white"/>
</mask>
<g mask="url(#mask2_2294_42350)">
<path d="M215.653 176.048H200.897V190.664H215.653V176.048Z" fill="#EDEDED"/>
</g>
<mask id="mask3_2294_42350" style="mask-type:luminance" maskUnits="userSpaceOnUse" x="165" y="125" width="86" height="86">
<path d="M207.841 210.674C231.427 210.674 250.546 191.51 250.546 167.87C250.546 144.23 231.427 125.066 207.841 125.066C184.255 125.066 165.135 144.23 165.135 167.87C165.135 191.51 184.255 210.674 207.841 210.674Z" fill="white"/>
</mask>
<g mask="url(#mask3_2294_42350)">
<g opacity="0.5">
<path d="M216 183.008V176.048H201.244V179.528C205.237 183.008 210.271 183.356 216 183.008Z" fill="#CCCCCC"/>
</g>
</g>
<mask id="mask4_2294_42350" style="mask-type:luminance" maskUnits="userSpaceOnUse" x="165" y="125" width="86" height="86">
<path d="M207.841 210.674C231.427 210.674 250.546 191.51 250.546 167.87C250.546 144.23 231.427 125.066 207.841 125.066C184.255 125.066 165.135 144.23 165.135 167.87C165.135 191.51 184.255 210.674 207.841 210.674Z" fill="white"/>
</mask>
<g mask="url(#mask4_2294_42350)">
<path d="M231.624 218.852C231.798 211.196 231.798 208.934 231.624 205.976C231.45 200.06 230.235 195.014 226.069 190.49L215.479 187.01C215.479 187.01 217.736 190.838 208.014 190.838C208.014 190.838 201.765 190.664 200.723 187.01L189.96 190.49C189.96 190.49 180.759 192.752 179.197 202.322L184.752 212.24L184.578 218.33L231.624 218.852Z" fill="#CCCCCC"/>
</g>
<mask id="mask5_2294_42350" style="mask-type:luminance" maskUnits="userSpaceOnUse" x="165" y="125" width="86" height="86">
<path d="M207.841 210.674C231.427 210.674 250.546 191.51 250.546 167.87C250.546 144.23 231.427 125.066 207.841 125.066C184.255 125.066 165.135 144.23 165.135 167.87C165.135 191.51 184.255 210.674 207.841 210.674Z" fill="white"/>
</mask>
<g mask="url(#mask5_2294_42350)">
<path d="M226.069 154.472C226.069 150.992 225.895 147.512 226.069 144.38C226.069 142.118 226.242 142.814 223.812 142.466C220.166 142.118 218.951 148.556 218.778 151.688C218.43 155.516 219.125 159.866 219.993 163.52C220.166 164.912 220.166 167.522 221.555 168.392C222.944 168.74 223.986 167.348 224.854 166.478C226.242 164.216 226.069 160.562 226.242 158.126C226.069 156.734 226.069 155.516 226.069 154.472Z" fill="#B2B2B2"/>
</g>
<mask id="mask6_2294_42350" style="mask-type:luminance" maskUnits="userSpaceOnUse" x="165" y="125" width="86" height="86">
<path d="M207.841 210.674C231.427 210.674 250.546 191.51 250.546 167.87C250.546 144.23 231.427 125.066 207.841 125.066C184.255 125.066 165.135 144.23 165.135 167.87C165.135 191.51 184.255 210.674 207.841 210.674Z" fill="white"/>
</mask>
<g mask="url(#mask6_2294_42350)">
<path d="M224.68 173.96C223.291 179.876 220.687 181.442 220.687 181.442L217.042 182.138C214.958 181.964 211.486 180.92 211.486 180.92C203.327 178.31 200.897 177.44 199.682 174.482L193.432 152.384C192.39 141.074 204.369 138.812 205.931 138.464C207.841 138.116 218.951 134.81 222.423 145.772C222.25 145.772 227.11 158.3 224.68 173.96Z" fill="#EDEDED"/>
</g>
<mask id="mask7_2294_42350" style="mask-type:luminance" maskUnits="userSpaceOnUse" x="165" y="125" width="86" height="86">
<path d="M207.841 210.674C231.427 210.674 250.546 191.51 250.546 167.87C250.546 144.23 231.427 125.066 207.841 125.066C184.255 125.066 165.135 144.23 165.135 167.87C165.135 191.51 184.255 210.674 207.841 210.674Z" fill="white"/>
</mask>
<g mask="url(#mask7_2294_42350)">
<path d="M192.043 141.944C188.224 143.858 188.05 147.512 188.224 151.34C188.398 154.646 189.439 157.082 190.481 160.04C192.39 165.086 192.39 165.086 194.126 168.218C194.126 168.218 196.73 172.22 200.029 175.178C198.987 171.35 198.64 168.218 197.946 165.434C196.73 161.78 197.251 157.256 198.987 153.428C198.987 153.428 200.029 150.992 203.501 150.122L192.043 141.944Z" fill="#B2B2B2"/>
</g>
<mask id="mask8_2294_42350" style="mask-type:luminance" maskUnits="userSpaceOnUse" x="165" y="125" width="86" height="86">
<path d="M207.841 210.674C231.427 210.674 250.546 191.51 250.546 167.87C250.546 144.23 231.427 125.066 207.841 125.066C184.255 125.066 165.135 144.23 165.135 167.87C165.135 191.51 184.255 210.674 207.841 210.674Z" fill="white"/>
</mask>
<g mask="url(#mask8_2294_42350)">
<path d="M198.466 164.738C198.466 164.738 196.383 160.388 193.258 162.824C193.258 162.824 191.87 164.042 193.606 166.826C193.606 166.826 196.036 170.828 199.334 168.74L198.466 164.738Z" fill="#EDEDED"/>
</g>
<mask id="mask9_2294_42350" style="mask-type:luminance" maskUnits="userSpaceOnUse" x="165" y="125" width="86" height="86">
<path d="M207.841 210.674C231.427 210.674 250.546 191.51 250.546 167.87C250.546 144.23 231.427 125.066 207.841 125.066C184.255 125.066 165.135 144.23 165.135 167.87C165.135 191.51 184.255 210.674 207.841 210.674Z" fill="white"/>
</mask>
<g mask="url(#mask9_2294_42350)">
<path d="M198.119 154.472C198.119 154.472 198.119 162.128 199.508 166.304L197.946 166.478C197.946 166.478 196.904 160.91 194.3 160.91L198.119 154.472Z" fill="#B2B2B2"/>
</g>
<mask id="mask10_2294_42350" style="mask-type:luminance" maskUnits="userSpaceOnUse" x="165" y="125" width="86" height="86">
<path d="M207.841 210.674C231.427 210.674 250.546 191.51 250.546 167.87C250.546 144.23 231.427 125.066 207.841 125.066C184.255 125.066 165.135 144.23 165.135 167.87C165.135 191.51 184.255 210.674 207.841 210.674Z" fill="white"/>
</mask>
<g mask="url(#mask10_2294_42350)">
<path d="M227.978 137.768C240.825 150.818 202.286 150.644 202.286 150.644C202.286 150.644 198.293 152.558 191.696 142.292C191.696 142.292 189.786 134.114 208.188 131.504C208.535 131.33 220.514 129.938 227.978 137.768Z" fill="#B2B2B2"/>
</g>
<mask id="mask11_2294_42350" style="mask-type:luminance" maskUnits="userSpaceOnUse" x="165" y="125" width="86" height="86">
<path d="M207.841 210.674C231.427 210.674 250.546 191.51 250.546 167.87C250.546 144.23 231.427 125.066 207.841 125.066C184.255 125.066 165.135 144.23 165.135 167.87C165.135 191.51 184.255 210.674 207.841 210.674Z" fill="white"/>
</mask>
<g mask="url(#mask11_2294_42350)">
<path d="M194.647 218.852H178.155C178.155 218.852 178.155 215.024 178.155 214.85C178.155 211.022 178.502 207.194 179.37 203.54C180.412 197.972 183.016 193.448 188.745 191.882C191.349 191.186 193.779 192.926 194.994 195.188C194.994 195.014 197.598 198.146 194.647 218.852Z" fill="#CCCCCC"/>
</g>
<path d="M253.845 222.506C253.845 224.072 252.456 225.116 251.241 225.116H164.788C163.226 225.116 162.184 223.724 162.184 222.506C162.184 220.94 163.573 219.896 164.788 219.896H251.241C252.63 219.896 253.845 221.114 253.845 222.506Z" fill="#DEE6F5"/>
<path d="M253.845 240.254C253.845 241.82 252.456 242.864 251.241 242.864H164.788C163.226 242.864 162.184 241.472 162.184 240.254C162.184 238.688 163.573 237.644 164.788 237.644H251.241C252.63 237.296 253.845 238.688 253.845 240.254Z" fill="#DEE6F5"/>
<path d="M253.845 257.828C253.845 259.394 252.456 260.438 251.241 260.438H164.788C163.226 260.438 162.184 259.046 162.184 257.828C162.184 256.262 163.573 255.218 164.788 255.218H251.241C252.63 254.696 253.845 256.088 253.845 257.828Z" fill="#DEE6F5"/>
<path d="M369.115 268.964C369.115 268.964 372.414 267.572 372.066 263.918C371.893 260.264 369.983 257.828 373.976 258.698C377.795 259.916 379.184 260.264 381.962 259.742C384.739 259.22 386.996 257.828 385.781 261.656C384.566 265.484 383.35 268.094 386.128 268.964C389.079 269.312 392.03 267.398 392.378 272.966C392.725 278.708 388.385 284.972 380.746 285.32C373.455 285.494 369.983 282.71 369.983 282.71C369.983 282.71 367.9 280.1 371.198 279.23C374.497 278.534 377.448 277.142 375.712 275.75C374.15 274.358 368.768 274.184 368.768 274.184C368.768 274.184 362.692 272.618 369.115 268.964Z" fill="#6B9CD3"/>
<path d="M402.967 269.834C402.62 266.18 402.967 263.744 409.39 262.526C416.334 261.482 420.154 265.832 420.501 269.834C420.848 273.836 414.946 275.576 414.946 275.576C414.946 275.576 410.953 276.794 412.862 280.448C414.946 284.102 416.161 287.582 410.953 288.104C405.745 288.626 401.058 287.408 397.933 285.494C394.982 283.58 392.03 278.534 395.502 275.924C395.502 275.924 396.544 275.228 399.495 274.88C403.314 274.706 402.967 269.834 402.967 269.834Z" fill="#1C4599"/>
<path d="M379.184 269.138C379.184 269.138 384.739 282.014 385.434 290.54" stroke="#88D6F8" stroke-miterlimit="10" stroke-linecap="round" stroke-linejoin="round"/>
<path d="M410.432 271.226C410.432 271.226 400.537 285.842 398.106 290.714" stroke="#599FD2" stroke-miterlimit="10" stroke-linecap="round" stroke-linejoin="round"/>
<path d="M382.309 289.496H405.05C405.05 289.496 407.481 289.67 407.307 293.15C407.134 296.456 403.314 295.586 401.231 295.586C399.148 295.586 381.962 295.586 381.962 295.586C381.962 295.586 379.358 295.934 379.358 292.976C378.837 289.496 380.052 289.496 382.309 289.496Z" fill="#0256A4"/>
<path d="M381.788 295.586L385.086 315.596H400.537L402.967 300.632L381.788 295.586Z" fill="#0256A4"/>
<path d="M381.788 295.586L402.967 300.632L403.835 295.586H381.788Z" fill="#346BB4"/>
<path d="M391.683 290.366C391.683 290.366 392.898 268.094 399.322 254.174" stroke="#FABD41" stroke-miterlimit="10"/>
<path d="M404.703 245.996C404.703 245.996 405.05 252.956 398.627 255.566C398.627 255.566 397.238 249.476 404.703 245.996Z" fill="#FABD41"/>
<path d="M394.634 267.572C394.634 267.572 397.065 261.656 404.529 262.526C404.703 262.352 404.009 268.268 394.634 267.572Z" fill="#FABD41"/>
<path d="M392.204 282.188C392.204 282.188 393.593 276.098 401.057 275.228C401.057 275.228 401.578 281.144 392.204 282.188Z" fill="#FABD41"/>
<path d="M392.03 282.188C392.03 282.188 393.072 275.924 386.128 272.618C385.954 272.966 383.697 278.186 392.03 282.188Z" fill="#FABD41"/>
<path d="M394.634 267.572C394.634 267.572 396.197 261.482 389.773 257.48C389.947 257.306 386.822 262.352 394.634 267.572Z" fill="#FABD41"/>
<path d="M377.632 116.688L368.772 119.178L371.257 128.058L380.116 125.568L377.632 116.688Z" fill="#ED3B4E"/>
<path d="M33.1976 151.134L24.3381 153.624L26.8224 162.504L35.6818 160.014L33.1976 151.134Z" fill="#24499F"/>
<path d="M126.596 14.5759C126.596 14.5759 126.422 14.4019 126.249 14.5759L123.645 14.9239C123.298 14.9239 122.95 14.7499 122.603 14.5759C122.43 13.1839 121.562 12.1399 121.214 10.9219C121.041 10.7479 121.214 10.2259 121.388 9.87791L123.471 8.31191C123.471 8.31191 123.645 8.13791 123.645 7.96391C123.645 7.78991 123.645 7.78991 123.471 7.61591L119.999 4.30991C119.999 4.30991 119.826 4.13591 119.652 4.13591C119.478 4.13591 119.478 4.13591 119.305 4.30991L117.742 6.39791C117.569 6.57191 117.048 6.74591 116.701 6.57191C115.486 5.87591 114.444 5.35391 113.055 5.17991C112.708 5.17991 112.361 4.83191 112.708 4.13591L113.055 1.52591C113.055 1.35191 113.055 1.35191 113.055 1.17791C113.055 1.17791 112.882 1.00391 112.708 1.00391H108.368C108.194 1.00391 108.194 1.00391 108.021 1.17791C108.021 1.17791 107.847 1.35191 108.021 1.52591L108.368 4.13591C108.368 4.48391 108.194 4.83191 108.021 5.17991C106.632 5.35391 105.59 6.22391 104.375 6.57191C104.202 6.74591 103.681 6.57191 103.334 6.39791L101.771 4.30991C101.771 4.30991 101.598 4.13591 101.424 4.13591C101.25 4.13591 101.25 4.13591 101.077 4.30991L97.952 7.78991C97.952 7.78991 97.7784 7.96391 97.7784 8.13791C97.7784 8.31191 97.7784 8.31191 97.952 8.48591L100.035 10.0519C100.209 10.2259 100.382 10.7479 100.209 11.0959C99.5144 12.3139 98.9936 13.3579 98.82 14.7499C98.82 15.0979 98.4728 15.4459 97.7784 15.0979L95.1744 14.7499C95.0008 14.7499 95.0008 14.7499 94.8272 14.7499C94.8272 14.7499 94.6536 14.9239 94.6536 15.0979V19.4479C94.6536 19.6219 94.6536 19.6219 94.8272 19.7959C94.8272 19.7959 95.0008 19.9699 95.1744 19.7959L97.7784 19.4479C98.1256 19.4479 98.4728 19.6219 98.82 19.7959C98.9936 21.1879 99.8616 22.2319 100.209 23.4499C100.382 23.6239 100.209 24.1459 100.035 24.4939L97.952 25.8859C97.952 25.8859 97.7784 26.0599 97.7784 26.2339C97.7784 26.4079 97.7784 26.4079 97.952 26.5819L101.25 29.8879C101.25 29.8879 101.424 30.0619 101.598 30.0619C101.771 30.0619 101.771 30.0619 101.945 29.8879L103.507 27.7999C103.681 27.6259 104.202 27.4519 104.549 27.6259C105.764 28.3219 106.806 28.8439 108.194 29.0179C108.542 29.0179 108.889 29.3659 108.542 30.0619L108.194 32.6719C108.194 32.8459 108.194 32.8459 108.194 33.0199C108.194 33.0199 108.368 33.1939 108.542 33.1939H112.882C113.055 33.1939 113.055 33.1939 113.229 33.0199C113.229 33.0199 113.402 32.8459 113.229 32.6719L112.708 30.2359C112.708 29.8879 112.882 29.5399 113.055 29.1919C114.444 29.0179 115.486 28.1479 116.701 27.7999C116.874 27.6259 117.395 27.7999 117.742 27.9739L119.305 30.0619C119.305 30.0619 119.478 30.2359 119.652 30.2359C119.826 30.2359 119.826 30.2359 119.999 30.0619L123.298 26.7559C123.298 26.7559 123.471 26.5819 123.471 26.4079C123.471 26.2339 123.471 26.2339 123.298 26.0599L121.388 24.3199C121.214 24.1459 121.041 23.6239 121.214 23.2759C121.909 22.0579 122.43 21.0139 122.603 19.6219C122.603 19.2739 122.95 18.9259 123.645 19.2739L126.249 19.6219C126.422 19.6219 126.422 19.6219 126.596 19.6219C126.596 19.6219 126.77 19.4479 126.77 19.2739V14.9239C126.596 15.0979 126.596 14.9239 126.596 14.5759ZM125.728 19.0999L123.471 18.9259C122.43 18.9259 121.562 19.2739 121.388 20.3179C121.214 21.5359 120.694 22.5799 119.999 23.6239C119.652 24.6679 119.826 25.5379 120.346 25.8859L121.909 27.1039L119.652 29.3659L118.437 27.7999C118.09 27.1039 116.874 26.7559 116.18 27.4519C115.138 28.1479 114.097 28.6699 112.882 28.8439C111.84 29.0179 111.319 30.0619 111.493 30.9319L111.666 33.1939H108.368L108.542 30.9319C108.542 29.8879 108.194 29.0179 107.153 28.8439C105.938 28.6699 104.896 28.1479 103.854 27.4519C102.813 27.1039 101.945 27.2779 101.598 27.7999L100.382 29.3659L98.1256 27.1039L99.688 25.8859C100.382 25.5379 100.73 24.3199 100.035 23.6239C99.3408 22.5799 98.82 21.5359 98.6464 20.3179C98.4728 19.2739 97.4312 18.7519 96.5632 18.9259L95.0008 19.0999V15.7939L97.2576 15.9679C98.2992 15.9679 99.1672 15.6199 99.3408 14.5759C99.5144 13.3579 100.035 12.3139 100.73 11.2699C101.077 10.2259 100.903 9.35591 100.382 9.00791L98.82 7.78991L101.424 5.52791L102.466 7.09391C102.813 7.78991 104.028 8.13791 104.722 7.44191C105.764 6.74591 106.806 6.22391 108.021 6.04991C109.062 5.87591 109.583 4.83191 109.41 3.96191L109.236 1.69991H112.534L112.361 3.96191C112.361 5.00591 112.708 5.87591 113.75 6.04991C114.965 6.22391 116.006 6.74591 117.048 7.44191C117.916 7.96391 118.784 7.78991 119.131 7.09391L120.346 5.52791L122.603 7.78991L120.52 9.00791C119.826 9.35591 119.478 10.5739 120.173 11.2699C120.867 12.3139 121.388 13.3579 121.562 14.5759C121.735 15.6199 122.777 16.1419 123.645 15.9679L125.902 15.7939V19.0999H125.728Z" stroke="#24499F" stroke-miterlimit="10"/>
<path d="M110.104 9.70386C105.764 9.70386 102.466 13.1839 102.466 17.3599C102.466 21.5359 105.938 25.0159 110.104 25.0159C114.444 25.0159 117.742 21.5359 117.742 17.3599C117.742 13.1839 114.618 9.70386 110.104 9.70386ZM110.104 23.9719C106.458 23.9719 103.681 21.0139 103.681 17.5339C103.681 14.0539 106.632 11.0959 110.104 11.0959C113.576 11.0959 116.527 14.0539 116.527 17.5339C116.527 21.0139 113.75 23.9719 110.104 23.9719Z" stroke="#24499F" stroke-miterlimit="10"/>
<path d="M334.569 39.1099H321.722C321.549 39.1099 321.375 39.2839 321.375 39.4579V44.6779V44.8519L322.764 46.2439H322.938H332.486H332.659L334.048 44.8519V44.6779V39.4579C334.916 39.2839 334.916 39.1099 334.569 39.1099ZM334.048 44.3299L332.659 45.7219H323.632L322.243 44.3299V39.8059H334.048V44.3299Z" fill="#24499F"/>
<path d="M335.263 40.502L321.028 41.198C320.855 41.198 320.681 41.372 320.681 41.546C320.681 41.72 320.855 41.894 321.028 41.894L335.263 41.198C335.437 41.198 335.61 41.024 335.61 40.85C335.784 40.676 335.61 40.502 335.263 40.502Z" fill="#24499F"/>
<path d="M335.263 42.7639L321.028 43.4599C320.855 43.4599 320.681 43.6339 320.681 43.8079C320.681 43.9819 320.855 44.1559 321.028 44.1559L335.263 43.4599C335.437 43.4599 335.61 43.2859 335.61 43.1119C335.784 42.9379 335.61 42.7639 335.263 42.7639Z" fill="#24499F"/>
<path d="M328.319 13.8799C321.202 13.8799 315.473 19.6219 315.473 26.7559C315.473 31.1059 317.73 35.1079 321.375 37.5439V39.8059C321.375 39.9799 321.549 40.1539 321.722 40.1539H334.569C334.743 40.1539 334.916 39.9799 334.916 39.8059V37.5439C338.562 35.2819 340.818 31.2799 340.818 26.7559C340.818 19.6219 335.263 13.8799 328.319 13.8799ZM334.569 36.6739L334.395 38.9359H322.59V36.8479C322.59 36.8479 322.591 36.6739 322.417 36.6739C318.771 34.4119 316.688 30.7579 316.688 26.5819C316.688 20.1439 322.243 14.7499 328.493 14.7499C334.916 14.7499 340.298 20.3179 340.298 26.5819C340.124 30.7579 338.041 34.4119 334.569 36.6739Z" fill="#24499F"/>
<path d="M331.618 45.896C331.444 45.896 331.27 45.896 331.27 46.07C331.27 46.07 330.576 47.462 328.319 47.462C326.062 47.462 325.368 46.244 325.368 46.07C325.368 45.896 325.194 45.896 325.021 45.896C324.847 45.896 324.847 46.07 324.847 46.244C324.847 46.244 325.889 48.158 328.493 48.158C331.097 48.158 332.138 46.592 332.138 46.244C331.965 46.244 331.965 46.07 331.618 45.896Z" fill="#24499F"/>
<path d="M312.348 26.0598H304.883C304.71 26.0598 304.536 26.2338 304.536 26.4078C304.536 26.5818 304.71 26.7558 304.883 26.7558H312.348C312.522 26.7558 312.695 26.5818 312.695 26.4078C312.695 26.0598 312.695 26.0598 312.348 26.0598Z" fill="#DD1F26"/>
<path d="M351.755 26.0598H344.291C344.117 26.0598 343.943 26.2338 343.943 26.4078C343.943 26.5818 344.117 26.7558 344.291 26.7558H351.755C351.929 26.7558 352.103 26.5818 352.103 26.4078C351.929 26.0598 351.755 26.0598 351.755 26.0598Z" fill="#DD1F26"/>
<path d="M314.778 34.412C314.778 34.238 314.431 34.238 314.431 34.412L308.182 38.066C308.008 38.066 308.008 38.414 308.182 38.414C308.182 38.414 308.355 38.588 308.529 38.588C308.529 38.588 308.529 38.588 308.702 38.588L314.952 34.934C314.779 34.586 314.778 34.412 314.778 34.412Z" fill="#DD1F26"/>
<path d="M348.804 14.5758C348.804 14.4018 348.457 14.4018 348.457 14.5758L342.207 18.2298C342.034 18.2298 342.034 18.5778 342.207 18.5778C342.207 18.5778 342.381 18.7518 342.555 18.7518C342.555 18.7518 342.555 18.7518 342.728 18.7518L348.978 15.0978C348.978 14.9238 348.978 14.7498 348.804 14.5758Z" fill="#DD1F26"/>
<path d="M340.124 5.87598C339.951 5.87598 339.777 5.87598 339.777 5.87598L336.131 12.14C336.131 12.314 336.131 12.488 336.131 12.488C336.131 12.488 336.131 12.488 336.305 12.488C336.479 12.488 336.479 12.488 336.652 12.314L340.124 5.87598C340.471 6.22398 340.471 5.87598 340.124 5.87598Z" fill="#DD1F26"/>
<path d="M328.319 2.7439C328.146 2.7439 327.972 2.9179 327.972 3.0919V10.5739C327.972 10.7479 328.146 10.9219 328.319 10.9219C328.493 10.9219 328.667 10.7479 328.667 10.5739V3.0919C328.493 2.9179 328.493 2.7439 328.319 2.7439Z" fill="#DD1F26"/>
<path d="M320.507 12.488L316.862 6.22401C316.862 6.05001 316.514 6.05001 316.514 6.22401C316.341 6.22401 316.341 6.57201 316.514 6.57201L320.16 12.836C320.16 12.836 320.334 13.01 320.507 13.01C320.507 13.01 320.507 13.01 320.681 13.01C320.507 12.836 320.681 12.488 320.507 12.488Z" fill="#DD1F26"/>
<path d="M348.804 37.718L342.554 34.064C342.381 34.064 342.207 34.064 342.207 34.238C342.207 34.412 342.207 34.586 342.207 34.586L348.457 38.24C348.457 38.24 348.457 38.24 348.63 38.24C348.63 38.24 348.804 38.24 348.978 38.066C348.978 38.24 348.978 38.066 348.804 37.718Z" fill="#DD1F26"/>
<path d="M314.605 18.2299L308.355 14.5759C308.182 14.5759 308.008 14.5759 308.008 14.5759C308.008 14.7499 308.008 14.9239 308.008 14.9239L314.258 18.5779C314.258 18.5779 314.258 18.5779 314.431 18.5779C314.605 18.5779 314.605 18.5779 314.605 18.2299C314.778 18.4039 314.778 18.2299 314.605 18.2299Z" fill="#DD1F26"/>
<path d="M329.535 39.1098V27.1038C329.535 27.1038 329.361 21.3618 332.486 21.3618C335.611 21.3618 334.048 27.2778 328.146 27.2778" stroke="#24499F" stroke-miterlimit="10"/>
<path d="M326.583 39.1098V27.1038C326.583 27.1038 326.757 21.3618 323.632 21.3618C320.334 21.3618 322.07 27.2778 327.972 27.2778" stroke="#24499F" stroke-miterlimit="10"/>
<path d="M99.1674 191.012H104.896L111.146 190.664C111.146 190.664 111.84 194.492 108.195 195.014C104.549 195.362 98.9938 196.232 98.2994 196.058C96.9106 195.71 99.1674 191.012 99.1674 191.012Z" fill="#FBBE9B"/>
<path d="M94.8274 163.172C94.8274 163.172 100.73 169.088 101.251 172.394C102.292 175.7 100.209 180.398 99.6882 181.964C99.341 183.356 99.5146 201.278 99.5146 201.278H76.0786V162.998L94.8274 163.172Z" fill="#0064E1"/>
<path d="M108.715 145.25C108.715 145.25 108.368 149.774 107.153 152.732V154.994C107.153 155.168 106.979 155.342 106.806 155.342L105.417 155.168V157.082C105.417 157.256 105.243 157.43 105.07 157.43H103.854C103.681 157.43 103.507 157.604 103.507 157.778L103.681 158.822C103.681 158.996 103.681 159.17 103.334 159.17C102.292 159.344 100.73 159.518 98.4729 157.952C96.2161 156.386 94.8273 157.256 94.8273 158.648C94.8273 160.04 96.0425 164.39 94.1329 165.608C92.5705 166.652 87.7097 165.956 86.6681 164.912C85.4529 163.694 86.6681 160.91 88.2305 159.344C89.4457 158.126 91.1817 145.076 93.7857 143.858C96.0425 143.336 108.715 145.25 108.715 145.25Z" fill="#FBBC98"/>
<path d="M81.4603 181.79L81.2867 189.794C81.2867 190.49 81.6339 191.012 82.5019 191.012C83.3699 191.012 83.8907 191.012 85.4531 190.316C89.0987 188.924 97.9523 184.052 98.9939 183.182C98.9939 183.182 99.1675 183.182 99.1675 183.008C99.3411 182.66 100.556 180.92 103.16 181.094C106.459 181.268 107.153 182.138 106.806 183.008C106.632 184.052 106.111 184.052 106.111 184.052L106.459 184.748C106.459 184.748 106.111 185.792 104.549 185.792C103.16 185.792 101.251 185.096 100.903 185.618C100.556 185.966 86.3211 195.362 83.0227 197.624C82.6755 197.798 81.9811 197.972 81.4603 198.32C79.3771 198.668 74.3427 199.538 73.8219 196.058C72.7803 191.708 72.7803 182.138 72.7803 182.138L81.4603 181.79Z" fill="#FBBE9B"/>
<path d="M81.4603 167.348C81.8075 167.174 82.5019 167.348 82.5019 167.696V182.312C82.5019 182.66 82.3283 183.008 81.8075 183.008C81.2867 183.008 80.4187 183.008 78.8563 183.008C76.4259 183.008 74.3427 183.008 73.1275 183.008C72.7803 183.008 72.7803 182.834 72.7803 182.66L72.9539 172.568C72.9539 172.394 72.9539 172.22 73.1275 172.22L81.4603 167.348Z" fill="#0054A3"/>
<path d="M64.621 173.786C63.4058 169.262 71.565 162.824 71.565 162.824C71.565 162.824 75.3842 161.432 76.0786 156.908C76.773 152.384 81.113 150.992 83.0226 149.426C84.9322 147.86 86.321 143.858 86.321 143.858L86.4946 142.814C86.4946 142.814 89.793 128.546 100.73 132.2C100.73 132.2 105.764 134.114 107.847 137.942C107.847 137.942 115.139 139.16 113.576 144.902C112.187 150.644 108.715 147.164 108.715 147.164C108.715 147.164 107.327 144.206 105.764 146.12C104.202 148.208 100.556 149.6 99.5146 147.512C98.2994 145.424 96.0426 144.206 95.5218 147.164V148.556C95.5218 148.556 89.9666 155.516 89.6194 157.778C88.925 160.214 87.5362 163.694 84.7586 165.086C82.1546 166.652 79.2034 172.742 77.8146 176.222C76.0786 179.876 66.0098 180.746 64.621 173.786Z" fill="#1F1952"/>
<path d="M119.999 174.134L134.235 174.308L116.527 194.144L101.945 193.448L119.999 174.134Z" fill="#1C164F"/>
<path d="M120.867 188.576C120.867 188.576 122.256 191.186 121.041 192.056C119.652 192.752 118.437 193.1 117.743 192.23C117.222 191.534 116.701 189.272 117.569 189.62C118.263 189.62 118.611 189.794 118.611 189.794V189.098C118.611 188.924 118.611 188.75 118.784 188.75C119.479 188.228 120.694 187.706 120.867 188.576Z" fill="#FBBE9B"/>
<path d="M95.6955 201.452L99.6883 201.278V313.508L90.8347 313.856L86.1475 240.254L95.6955 201.452Z" fill="#DE051F"/>
<path d="M76.0787 201.626C76.0787 201.626 75.9051 205.454 75.7315 207.194C75.5579 208.238 70.1763 216.938 74.3427 227.726C74.3427 227.9 74.3427 228.074 74.5163 228.422C74.5163 230.858 75.2107 245.474 72.2595 252.956L56.4619 304.808L62.5379 309.158C62.5379 309.158 83.3699 264.266 83.8907 262.178C84.4115 260.09 98.1259 216.068 96.2163 203.888L95.8691 201.626H76.0787Z" fill="#EE384E"/>
<path d="M99.6883 313.508C99.6883 313.508 105.244 316.466 107.674 317.162C109.584 317.51 109.931 319.076 110.104 319.598C110.104 319.772 110.104 319.946 109.931 319.946H90.8347V313.682L99.6883 313.508Z" fill="#221D56"/>
<path d="M62.3642 308.636C62.3642 308.636 63.9266 313.16 67.3986 315.944C70.8706 318.554 67.3986 320.468 67.3986 320.468L53.1634 311.594C52.9898 311.246 52.1218 309.68 53.1634 308.288C54.205 306.722 56.4618 304.286 56.4618 304.286L62.3642 308.636Z" fill="#221D56"/>
<path d="M306.446 212.066C306.446 212.066 309.918 262.874 310.612 271.748C311.133 280.622 313.216 311.072 313.216 311.072H322.07L328.146 211.718L306.446 212.066Z" fill="#0064E1"/>
<path d="M339.951 212.588C339.951 212.588 338.909 238.166 338.562 244.604C338.041 251.216 343.249 273.314 345.853 283.232C348.457 293.15 353.144 303.59 353.144 303.59L345.853 307.94C345.853 307.94 330.576 281.144 325.368 264.962C319.987 248.954 315.994 225.29 316.688 211.544L339.951 212.588Z" fill="#0054A3"/>
<path d="M273.635 175.7H271.031C271.031 175.7 269.295 175.7 269.295 177.614C269.295 179.528 269.295 182.486 269.295 182.486C269.295 182.486 268.948 183.53 270.337 183.53C271.726 183.53 272.941 183.53 272.941 183.53C272.941 183.53 273.983 183.356 275.719 184.748C277.455 186.14 290.475 193.448 290.475 193.448C290.475 193.448 294.988 196.058 297.766 193.274C300.543 190.49 307.14 183.356 307.14 183.356L307.487 181.268L301.932 176.048L295.162 184.922C295.162 184.922 294.641 185.618 293.252 185.27C291.863 184.922 279.017 180.398 279.017 180.398C279.017 180.398 277.107 179.528 276.587 177.962C276.587 177.788 276.587 177.788 276.413 177.614C276.239 176.396 275.024 175.526 273.635 175.7Z" fill="#FFBF99"/>
<path d="M323.806 151.862C323.806 151.862 324.674 155.864 326.236 159.866C327.972 163.868 328.667 165.434 328.667 165.434C328.667 165.434 323.806 171.002 319.119 170.306C314.258 169.436 314.258 166.304 314.258 166.304C314.258 166.304 318.771 162.824 318.771 157.778C318.771 152.732 318.771 152.906 318.771 152.906L323.806 151.862Z" fill="#FFBF99"/>
<path d="M313.39 165.608C313.39 165.608 309.397 168.044 307.835 169.088C306.099 170.48 301.238 175.874 301.238 175.874L308.008 182.486L312.695 177.092L313.39 165.608Z" fill="#F59F1D"/>
<path d="M326.757 163.868C326.757 163.868 324.327 167.174 321.202 167.87C317.903 168.74 316.341 166.13 316.341 166.13L315.473 164.912C315.473 164.912 314.605 164.216 313.563 165.086C312.522 165.956 310.786 167.87 309.05 171.35C307.314 174.83 306.967 179.354 306.446 190.142C306.099 200.93 306.446 212.762 306.446 212.762H339.777L340.124 196.058C340.124 196.058 336.652 173.786 333.354 169.262C329.882 164.738 328.84 163.694 328.84 163.694C328.84 163.694 328.146 162.476 326.757 163.868Z" fill="#FCBE42"/>
<path d="M313.737 140.9C313.737 140.9 311.307 144.206 311.307 149.774C311.307 155.342 312.175 159.344 314.605 159.344C317.209 159.344 321.896 157.604 322.591 156.038C323.459 154.298 325.021 154.298 325.021 151.166C325.021 147.86 321.028 140.552 317.73 140.552C314.779 140.9 313.737 140.9 313.737 140.9Z" fill="#FFBF99"/>
<path d="M311.48 140.9C311.48 140.9 309.05 134.288 310.612 133.592C312.001 132.722 315.473 134.462 316.167 135.332C317.035 136.202 318.598 136.202 319.466 136.202C319.466 136.202 327.451 136.202 329.014 137.942C330.75 139.682 330.75 140.378 330.75 141.248C330.75 142.118 330.75 145.25 331.618 146.816C331.965 147.512 332.486 150.818 330.75 154.124C329.014 157.43 327.451 158.126 326.757 158.126C325.889 158.126 325.368 158.126 325.021 157.256C325.021 156.386 324.674 155.168 324.153 153.95C323.806 152.906 323.285 150.644 323.285 150.644C323.285 150.644 322.417 146.642 320.855 145.076C319.466 143.336 319.119 143.336 315.994 142.64C313.043 141.77 312.348 143.336 311.48 140.9Z" fill="#1A1155"/>
<path d="M322.417 146.99C321.202 148.382 322.764 150.818 322.764 150.818C322.764 150.818 325.195 151.688 325.195 149.078C325.021 146.642 323.632 145.25 322.417 146.99Z" fill="#EEBD98"/>
<path d="M338.562 181.094C338.562 181.094 341.339 192.578 341.166 200.06C340.645 207.368 338.562 213.632 336.999 218.156C335.263 222.332 334.395 223.724 334.395 226.334C334.395 229.118 333.007 232.424 331.618 233.816C329.882 235.556 328.84 236.426 328.84 236.426C328.84 236.426 326.757 237.296 327.104 235.556C327.104 235.556 325.715 235.556 326.236 234.686C326.236 234.686 324.5 234.686 325.715 233.294C327.104 231.902 329.187 230.684 329.187 230.684C329.187 230.684 330.576 228.596 328.667 229.64C326.757 230.684 325.195 230.684 326.757 228.944C328.493 227.204 330.229 224.246 332.139 218.852C333.527 213.284 335.437 202.67 333.354 194.144C331.271 185.966 328.667 183.182 328.667 183.182L338.562 181.094Z" fill="#FFBF99"/>
<path d="M345.506 307.592C345.506 307.592 343.77 312.116 342.207 314.378C340.471 316.466 338.909 317.858 338.909 317.858C338.909 317.858 336.826 321.164 339.256 320.294C341.687 319.25 354.533 310.724 354.533 310.724C354.533 310.724 356.443 309.68 355.575 308.114C354.707 306.722 352.797 303.416 352.797 303.416L345.506 307.592Z" fill="#1A1155"/>
<path d="M321.723 316.988C321.723 316.988 322.243 318.38 319.292 318.38C316.688 318.38 301.759 318.38 301.759 318.38C301.759 318.38 298.981 317.684 301.585 316.466C304.189 315.074 312.348 311.594 312.348 311.594C312.348 311.594 313.043 311.42 313.043 309.854H321.896L321.723 316.988Z" fill="#1A1155"/>
<path d="M325.889 173.264C325.889 173.264 325.195 167.696 329.187 167.174C333.18 166.652 335.784 171.872 337.173 175.178C338.562 178.658 339.256 181.268 339.256 181.268C339.256 181.268 330.75 184.748 328.493 184.748C328.319 184.748 326.41 179.18 325.889 173.264Z" fill="#F59F1D"/>
</svg>
