<svg width="354" height="391" viewBox="0 0 354 391" fill="none" xmlns="http://www.w3.org/2000/svg">
<path d="M106.61 180.859C136.934 180.859 161.516 156.468 161.516 126.38C161.516 96.2915 136.934 71.9001 106.61 71.9001C76.2856 71.9001 51.7031 96.2915 51.7031 126.38C51.7031 156.468 76.2856 180.859 106.61 180.859Z" stroke="#003EB0" stroke-miterlimit="10" stroke-dasharray="6 6"/>
<path d="M221.003 221.421C261.861 221.421 294.983 188.557 294.983 148.016C294.983 107.476 261.861 74.6113 221.003 74.6113C180.145 74.6113 147.022 107.476 147.022 148.016C147.022 188.557 180.145 221.421 221.003 221.421Z" stroke="#003EB0" stroke-miterlimit="10" stroke-dasharray="6 6"/>
<path d="M348.843 289.067C348.843 289.067 347.107 294.244 349.515 298.627C351.924 303.01 353.32 305.924 348.877 307.123C344.434 308.322 340.017 309.243 340.017 314.158C340.017 319.073 345.362 330.744 337.336 333.936C329.309 337.12 316.738 339.637 313.793 329.553C310.848 319.47 307.546 318.532 309.606 311.109C311.657 303.677 319.419 307.799 321.019 301.287C322.62 294.785 318.883 291.069 326.364 290.537C333.854 290.005 334.391 292.53 334.118 284.431C333.846 276.332 343.217 278.46 346.826 281.247C350.435 284.051 348.843 289.067 348.843 289.067Z" fill="#023EA1"/>
<path d="M338.278 295.831C338.278 295.831 320.889 318.523 314.735 335.777" stroke="white" stroke-miterlimit="10" stroke-linecap="round" stroke-linejoin="round"/>
<path d="M323.336 273.756C323.336 273.756 317.455 278.882 323.336 280.833C329.218 282.783 331.72 285.427 328.869 290.916C326.017 296.405 326.954 300.653 330.043 302.587C333.133 304.53 339.38 307.181 335.099 314.444C330.818 321.699 323.506 336.385 314.944 332.677C306.382 328.961 301.564 315.517 304.782 310.027C307.99 304.538 313.344 302.773 310.314 296.405C307.284 290.038 301.573 293.745 301.037 286.322C300.5 278.89 299.292 271.391 309.327 268.545C318.34 265.969 325.839 270.124 323.336 273.756Z" stroke="#DE051F" stroke-miterlimit="10"/>
<path d="M315.679 278.713C315.679 278.713 318.709 325.431 322.275 337.111" stroke="#DE051F" stroke-miterlimit="10"/>
<path d="M327.448 307.907L318.979 316.741L309.608 312.332" stroke="#DE051F" stroke-miterlimit="10"/>
<path d="M323.703 286.322L316.639 291.802L308.357 289.066" stroke="#DE051F" stroke-miterlimit="10"/>
<path d="M95.6463 285.647C95.6463 285.647 93.1014 280.09 97.5188 277.7C101.936 275.31 108.49 279.026 108.217 283.401C107.945 287.775 104.864 289.219 107.486 291.347C110.107 293.476 116.473 300.519 113.077 303.846C109.69 307.157 105.026 304.784 104.481 311.151C103.936 317.519 112.916 323.76 104.481 328.278C96.0463 332.796 79.8663 336.639 80.1301 320.846C80.4025 305.054 91.7651 314.479 88.8287 302.664C85.8923 290.858 91.6374 293.737 94.8462 291.364C98.0465 288.974 95.6463 285.647 95.6463 285.647Z" fill="#023EA1"/>
<path d="M100.994 294.556C100.994 294.556 94.8403 309.554 93.9041 324.291C92.9593 339.019 94.968 342.338 94.968 342.338" stroke="white" stroke-miterlimit="10" stroke-linecap="round" stroke-linejoin="round"/>
<path d="M102.144 335.262C102.144 335.262 112.059 306.954 125.967 291.415" stroke="#DE051F" stroke-miterlimit="10"/>
<path d="M136.121 283.079C136.121 283.079 134.249 292.107 124.563 293.053C124.554 293.053 124.878 284.971 136.121 283.079Z" stroke="#DE051F" stroke-miterlimit="10"/>
<path d="M114.875 307.409C114.875 307.409 120.271 300.805 129.812 304.648C129.821 304.639 126.85 311.919 114.875 307.409Z" stroke="#DE051F" stroke-miterlimit="10"/>
<path d="M106.092 325.398C106.092 325.398 110.092 317.865 120.204 319.782C120.204 319.799 118.74 327.5 106.092 325.398Z" stroke="#DE051F" stroke-miterlimit="10"/>
<path d="M105.743 325.347C105.743 325.347 109.259 317.594 101.496 310.864C101.496 310.872 96.2787 316.775 105.743 325.347Z" stroke="#DE051F" stroke-miterlimit="10"/>
<path d="M114.993 307.375C114.993 307.375 119.47 300.121 112.644 292.478C112.644 292.478 106.72 297.672 114.993 307.375Z" stroke="#DE051F" stroke-miterlimit="10"/>
<path d="M21.2739 285.646C21.2739 285.646 33.5812 281.542 33.7089 288.712C33.8451 295.882 36.79 296.54 39.8626 297.072C42.9352 297.604 48.825 296.27 48.5612 303.845C48.2888 311.404 45.2247 315.179 47.6164 318.405C50.0251 321.622 55.3958 337.812 48.5612 338.217C41.7266 338.614 36.1091 330.659 34.6452 326.673C33.1727 322.695 27.8191 320.837 23.4102 320.432C18.9928 320.035 14.1754 316.218 17.5289 311.353C20.8653 306.489 19.844 300.121 16.4139 297.74C12.9753 295.341 12.9753 288.551 21.2739 285.646Z" fill="#FCBE42"/>
<path d="M24.8838 293.754L48.9623 344.188" stroke="white" stroke-miterlimit="10" stroke-linecap="round" stroke-linejoin="round"/>
<path d="M41.0732 302.781L34.6642 314.242L21.9482 312.831" stroke="white" stroke-miterlimit="10" stroke-linecap="round" stroke-linejoin="round"/>
<path d="M341.412 323.126C326.075 314.807 310.023 327.72 310.023 327.72C290.932 311.801 266.325 325.06 266.325 325.06C259.55 316.387 247.422 321.521 247.422 321.521C240.111 313.025 225.224 314.537 225.224 314.537C218.534 299.936 203.282 303.119 203.282 303.119C203.282 290.376 190.711 289.573 190.711 289.573V244.73L174.344 252.288L162.309 244.73V289.582C162.309 289.582 149.737 290.384 149.737 303.128C149.737 303.128 134.485 299.944 127.795 314.546C127.795 314.546 112.909 313.034 105.598 321.53C105.598 321.53 93.469 316.404 86.694 325.068C86.694 325.068 62.0878 311.792 42.9969 327.728C42.9969 327.728 26.9531 314.816 11.6072 323.134C-3.73022 331.453 -3.01527 348.909 8.75588 349.111H344.281C356.026 348.892 356.741 331.444 341.412 323.126Z" fill="#ECF2F5"/>
<path d="M154.119 216.616L166.435 271.205C166.435 271.205 170.537 285.055 177.108 285.055C183.679 285.055 186.964 273.646 187.781 268.765C188.598 263.883 199.28 214.995 199.28 214.995L154.119 216.616Z" fill="#FF7D8E"/>
<path d="M162.785 219.656L167.986 242.72L169.62 249.974C169.62 249.974 170.82 254.518 171.637 255.937C172.76 257.887 174.607 260.201 176.948 260.201C180.999 260.201 183.017 254.805 183.527 251.79C184.038 248.775 190.609 218.651 190.609 218.651L162.785 219.656Z" fill="#FFA6B2"/>
<path d="M132.229 196.246C125.667 220.686 124.833 237.796 124.833 237.796C124.833 237.796 124.833 246.765 129.753 241.056C133.029 237.264 142.128 229.849 149.55 224.368C147.78 208.863 146.75 179.896 146.333 166.207C142.681 170.725 136.562 180.107 132.229 196.246Z" fill="#EE384E"/>
<path d="M156.861 182.396L149.464 162.845C149.464 162.845 148.23 163.884 146.341 166.207C146.758 179.896 147.788 208.863 149.558 224.368C153.278 221.607 156.58 219.343 158.503 218.245C164.249 214.977 156.861 182.396 156.861 182.396Z" fill="#EE384E"/>
<path d="M222.322 196.246C228.884 220.686 229.718 237.796 229.718 237.796C229.718 237.796 229.718 246.765 224.798 241.056C221.521 237.264 212.423 229.849 205.001 224.368C206.771 208.863 207.801 179.896 208.218 166.207C211.861 170.725 217.989 180.107 222.322 196.246Z" fill="#EE384E"/>
<path d="M197.688 182.396L205.085 162.846C205.085 162.846 206.319 163.884 208.208 166.207C207.791 179.896 206.761 208.863 204.991 224.368C201.272 221.607 197.969 219.344 196.046 218.246C190.292 214.977 197.688 182.396 197.688 182.396Z" fill="#EE384E"/>
<path d="M189.493 66.7065H158.86C153.2 77.0096 147.728 90.6147 145.498 107.032C141.778 134.605 148.443 182.109 152.375 206.026H196.668C204.421 164.484 204.694 145.339 205.409 131.396C206.711 106.019 197.97 82.7945 189.493 66.7065Z" fill="#ECECEC"/>
<path d="M177.927 133.516C189.721 133.516 199.282 124.03 199.282 112.327C199.282 100.625 189.721 91.1387 177.927 91.1387C166.133 91.1387 156.572 100.625 156.572 112.327C156.572 124.03 166.133 133.516 177.927 133.516Z" fill="#EE384E"/>
<path d="M173.228 54.1575L163.16 59.4948C161.755 61.6821 160.291 64.0889 158.861 66.7154H194.149C194.005 66.4451 193.868 66.1918 193.724 65.9384C189.664 62.2648 184.148 57.2568 181.842 55.0189C177.978 51.2524 173.228 54.1575 173.228 54.1575Z" fill="#EE384E"/>
<path d="M175.066 44.3016C175.066 44.3016 169.525 49.622 163.167 59.4859L173.236 54.1486C173.236 54.1486 177.994 51.2435 181.858 55.0016C184.164 57.248 189.671 62.2559 193.74 65.9211C187.016 53.3294 180.581 45.2812 179.585 44.2932C177.321 42.0636 175.066 44.3016 175.066 44.3016Z" fill="#BD4149"/>
<path d="M161.549 111.652L176.767 96.0957C168.469 96.67 161.889 103.35 161.549 111.652Z" fill="#0064E1"/>
<path d="M183.783 97.1177L162.777 118.577C162.982 119.058 163.211 119.531 163.458 119.996L185.23 97.7426C184.754 97.5146 184.277 97.295 183.783 97.1177Z" fill="#0064E1"/>
<path d="M186.183 98.2488L164.003 120.915C166.897 125.535 172.046 128.617 177.944 128.617C187.009 128.617 194.363 121.321 194.363 112.327C194.363 106.314 191.06 101.069 186.183 98.2488Z" fill="#0064E1"/>
<path d="M177.928 96.0361C177.537 96.0361 177.154 96.0699 176.762 96.0952L161.544 111.651C161.535 111.879 161.51 112.099 161.51 112.327C161.51 114.539 161.961 116.659 162.769 118.576L183.775 97.1171C181.962 96.4246 179.996 96.0361 177.928 96.0361Z" fill="#003EB0"/>
<path d="M185.228 97.7507L163.456 120.004C163.618 120.325 163.822 120.62 164.001 120.924L186.181 98.2574C185.866 98.0801 185.551 97.9027 185.228 97.7507Z" fill="#003EB0"/>
<path d="M196.396 206.026H152.384C153.337 211.811 154.12 216.21 154.563 218.626C154.81 219.969 154.946 220.686 154.946 220.686H198.039L193.851 220.273C194.762 215.408 195.613 210.654 196.396 206.026Z" fill="#0064E1"/>
<path d="M194.15 66.7065H189.494C197.963 82.7945 206.713 106.019 205.41 131.405C204.78 143.718 202.295 171.19 196.397 206.034H201.07C206.934 171.308 209.436 143.667 210.066 131.405C211.368 106.019 202.619 82.7945 194.15 66.7065Z" fill="#BDBDBD"/>
<path d="M193.784 220.686H198.048C198.976 215.678 200.27 210.789 201.078 206.026H196.406C195.614 210.654 194.695 215.814 193.784 220.686Z" fill="#023EA1"/>
<path d="M179.945 171.147C179.937 171.088 179.928 171.021 179.903 170.961C179.699 169.94 178.754 166.105 177.111 166.105C176.337 166.105 175.749 166.114 175.247 166.536C176.32 167.558 176.949 170.151 177.12 170.961C177.128 171.021 177.137 171.088 177.162 171.147C178.286 176.814 181.588 194.777 180.907 207.664C180.09 223.144 177.605 235.448 176.805 239.434C176.328 241.782 175.852 243.049 175.222 243.691C175.528 244.071 175.886 244.316 176.294 244.316C177.937 244.316 178.754 243.505 179.579 239.434C180.388 235.44 182.865 223.144 183.682 207.664C184.363 194.768 181.06 176.805 179.945 171.147Z" fill="#BA3E45"/>
<path d="M176.803 239.426C177.612 235.432 180.089 223.136 180.906 207.656C181.587 194.769 178.293 176.806 177.161 171.139C177.152 171.08 177.144 171.012 177.118 170.953C176.956 170.143 176.318 167.558 175.246 166.528C174.684 167.009 174.25 168.014 173.816 170.168C173.816 170.168 168.071 193.797 169.713 210.088C170.947 222.308 172.641 233.152 173.407 237.822C173.663 239.367 173.824 240.246 173.824 240.246C173.824 240.246 174.292 242.543 175.22 243.691C175.85 243.041 176.327 241.783 176.803 239.426Z" fill="#EE384E"/>
<path d="M56.2675 383.12C83.7053 383.12 105.948 380.557 105.948 377.394C105.948 374.232 83.7053 371.668 56.2675 371.668C28.8297 371.668 6.58691 374.232 6.58691 377.394C6.58691 380.557 28.8297 383.12 56.2675 383.12Z" fill="#ECF2F5"/>
<path d="M269 385.367C303.418 385.367 331.319 382.153 331.319 378.188C331.319 374.224 303.418 371.01 269 371.01C234.581 371.01 206.68 374.224 206.68 378.188C206.68 382.153 234.581 385.367 269 385.367Z" fill="#ECF2F5"/>
<path d="M75.0172 269.921C75.0172 269.921 71.3403 320.829 70.8126 329.856C70.2764 338.884 68.3443 369.295 68.3443 369.295H59.3138L53.2197 269.364L75.0172 269.921Z" fill="#DE051F"/>
<path d="M41.0401 270.454C41.0401 270.454 42.104 296.102 42.5806 302.605C43.0487 309.107 37.8994 331.343 34.963 341.224C32.0181 351.113 27.873 362.058 27.873 362.058L34.963 366.112C34.963 366.112 50.2748 338.902 55.7646 322.848C61.2459 306.793 65.3314 282.767 64.659 269.229L41.0401 270.454Z" fill="#EE384E"/>
<path d="M79.4665 234.03L86.3522 243.117C86.3522 243.117 86.8884 243.843 88.1651 243.514C89.4333 243.185 102.685 238.405 102.685 238.405C102.685 238.405 104.532 237.586 105.026 236.125C105.511 234.664 105.741 234.309 106.03 233.912C106.32 233.515 106.745 233.566 106.498 232.586C106.252 231.615 106.115 231.209 106.115 231.209C106.115 231.209 105.826 230.525 106.405 230.525C106.984 230.525 107.605 230.66 107.928 231.328C108.235 231.995 108.158 233.608 108.158 233.608L110.992 233.718C110.992 233.718 112.729 233.777 112.729 235.576C112.729 237.374 112.729 240.381 112.729 240.381C112.729 240.381 112.976 241.318 111.707 241.318C110.439 241.318 109.103 241.276 109.103 241.276C109.103 241.276 108.039 241.166 106.294 242.425C104.549 243.683 91.2717 251.224 91.2717 251.224C91.2717 251.224 86.6841 253.944 83.6711 251.089C80.6581 248.235 74.0448 241.175 74.0448 241.175L73.7129 238.937L79.4665 234.03Z" fill="#FFBF99"/>
<path d="M57.3043 209.691C57.3043 209.691 56.4872 213.761 54.8445 217.84C53.2019 221.919 52.3848 223.541 52.3848 223.541C52.3848 223.541 57.3043 229.241 62.2409 228.422C67.1604 227.611 67.1604 224.351 67.1604 224.351C67.1604 224.351 62.6409 220.686 62.6409 215.797C62.6409 210.907 62.6409 210.915 62.6409 210.915L57.3043 209.691Z" fill="#FFB48F"/>
<path d="M68.165 223.414C68.165 223.414 72.2505 225.669 73.9442 227.096C75.6465 228.523 80.5575 234.131 80.5575 234.131L73.8336 240.608L69.1523 235.339L68.165 223.414Z" fill="#0064B7"/>
<path d="M54.4612 221.506C54.4612 221.506 56.921 224.765 60.2063 225.576C63.4917 226.387 65.1259 223.946 65.1259 223.946L66.0281 222.781C66.0281 222.781 66.9388 222.071 67.9431 222.907C68.9475 223.727 70.8625 225.838 72.5222 229.25C74.1904 232.653 74.6756 237.315 75.0245 248.201C75.3735 259.086 75.0245 270.834 75.0245 270.834H41.0729L40.6729 253.918C40.6729 253.918 44.2817 231.42 47.8309 226.843C51.3801 222.266 52.41 221.269 52.41 221.269C52.41 221.269 53.2271 220.154 54.4612 221.506Z" fill="#0083F9"/>
<path d="M67.5779 198.687C67.5779 198.687 70.0377 201.947 70.0377 207.656C70.0377 213.356 69.2206 217.435 66.7523 217.435C64.284 217.435 59.356 215.805 58.5389 214.175C57.7218 212.545 56.0791 212.545 56.0791 209.294C56.0791 206.043 60.1816 198.704 63.4754 198.704C66.7608 198.704 67.5779 198.687 67.5779 198.687Z" fill="#FFBF99"/>
<path d="M70.0364 198.687C70.0364 198.687 72.4962 192.176 70.8535 191.348C69.2108 190.538 65.934 192.159 65.1084 192.978C64.2913 193.789 62.6486 193.789 61.823 193.789C61.823 193.789 53.6096 193.789 51.9669 195.419C50.3242 197.049 50.3242 197.86 50.3242 198.679C50.3242 199.489 50.3157 202.69 49.5071 204.379C49.1581 205.114 48.69 208.45 50.3242 211.718C51.9584 214.978 53.6096 215.789 54.4267 215.789C55.2437 215.789 55.9842 215.789 56.0693 214.978C56.163 214.1 56.4864 212.858 56.8864 211.718C57.2779 210.629 57.7035 208.458 57.7035 208.458C57.7035 208.458 58.5206 204.388 60.1633 202.758C61.806 201.128 61.806 201.128 65.0828 200.317C68.3937 199.515 69.2193 201.128 70.0364 198.687Z" fill="#170856"/>
<path d="M58.9644 204.641C60.1816 206.026 58.5389 208.466 58.5389 208.466C58.5389 208.466 56.0791 209.277 56.0791 206.836C56.0791 204.396 57.7388 203.247 58.9644 204.641Z" fill="#FFBF99"/>
<path d="M42.5187 238.927C42.5187 238.927 39.4376 250.692 39.9738 258.064C40.51 265.428 42.7144 271.813 44.3146 276.255C45.9147 280.697 46.8595 281.761 46.919 284.557C46.9786 287.352 48.2979 290.662 49.932 292.326C51.5662 293.99 52.877 294.817 52.877 294.817C52.877 294.817 54.8175 295.713 54.5111 293.922C54.5111 293.922 55.8134 294.023 55.3197 293.027C55.3197 293.027 57.056 293.061 55.7878 291.701C54.5196 290.333 52.179 289.016 52.179 289.016C52.179 289.016 50.8428 286.896 52.7493 287.96C54.6558 289.016 56.324 289.058 54.5622 287.335C52.7918 285.612 50.7491 282.597 49.2511 277.083C47.7531 271.576 45.9743 260.691 48.0936 252.33C50.2129 243.969 52.894 241.182 52.894 241.182L42.5187 238.927Z" fill="#FFBF99"/>
<path d="M35.2604 365.562C35.2604 365.562 36.8945 370.114 38.7075 372.209C40.5204 374.303 41.9503 375.832 41.9503 375.832C41.9503 375.832 44.0611 379.184 41.6779 378.188C39.3032 377.191 26.1618 368.434 26.1618 368.434C26.1618 368.434 24.2893 367.471 25.1574 365.883C26.0256 364.296 28.23 361.222 28.23 361.222L35.2604 365.562Z" fill="#170856"/>
<path d="M59.4 375.722C59.4 375.722 58.9148 377.048 61.6725 377.048C64.4302 377.048 79.4697 377.048 79.4697 377.048C79.4697 377.048 82.3635 376.473 79.6995 375.19C77.0184 373.906 69.0007 370.325 69.0007 370.325C69.0007 370.325 68.3879 370.165 68.405 368.636H59.2979L59.4 375.722Z" fill="#170856"/>
<path d="M55.3815 231.091C55.3815 231.091 55.9602 225.627 51.9514 225.103C47.9426 224.58 45.3977 229.883 44.0614 233.329C42.7251 236.775 42.0527 239.3 42.0527 239.3C42.0527 239.3 50.6747 242.745 52.9472 242.745C52.9557 242.745 54.8708 237.019 55.3815 231.091Z" fill="#0064B7"/>
<path d="M306.174 233.329C306.174 233.329 309.255 231.606 307.374 224.368C305.501 217.139 303.629 215.932 306.174 210.763C308.719 205.587 316.872 204.117 328.507 204.59C340.142 205.063 343.223 216.447 341.887 221.438C340.551 226.438 329.98 232.138 323.554 231.336C317.128 230.533 314.2 230.145 314.2 230.145C314.2 230.145 312.055 233.726 306.174 233.329Z" fill="#0064E1"/>
<path d="M319.128 219.394C320.078 219.394 320.848 218.63 320.848 217.688C320.848 216.746 320.078 215.982 319.128 215.982C318.179 215.982 317.409 216.746 317.409 217.688C317.409 218.63 318.179 219.394 319.128 219.394Z" fill="white"/>
<path d="M324.378 219.394C325.327 219.394 326.097 218.63 326.097 217.688C326.097 216.746 325.327 215.982 324.378 215.982C323.428 215.982 322.658 216.746 322.658 217.688C322.658 218.63 323.428 219.394 324.378 219.394Z" fill="white"/>
<path d="M329.596 219.394C330.546 219.394 331.316 218.63 331.316 217.688C331.316 216.746 330.546 215.982 329.596 215.982C328.647 215.982 327.877 216.746 327.877 217.688C327.877 218.63 328.647 219.394 329.596 219.394Z" fill="white"/>
<path d="M284.258 298.728L267.797 309.133L286.547 301.98L284.258 298.728Z" fill="#FFBF99"/>
<path d="M291.928 323.886C291.928 323.886 310.313 324.967 302.312 326.031C294.311 327.112 283.289 327.112 279.391 326.681C275.493 326.242 288.907 324.097 291.928 323.886Z" fill="#90A7CB"/>
<path d="M288.463 304.614L283.323 302.841L249.439 315.196C249.439 315.196 245.115 317.552 244.783 322.492C244.451 327.424 242.843 371.305 242.843 371.305H249.226L253.55 336.013L255.278 322.704L263.066 318.304L282.957 308.22L288.463 304.614Z" fill="#003EB0"/>
<path d="M302.176 305.357C303.3 309.284 305.028 320.82 299.376 323.497C299.138 323.607 298.882 323.692 298.618 323.734L267.544 328.573C267.399 328.59 267.263 328.615 267.118 328.615C266.582 328.615 264.922 328.793 265.663 330.87C266.395 332.973 275.561 357.954 278.234 365.25C278.659 366.416 280.311 369.768 279.264 370.452L276.217 373.408C274.906 374.27 272.591 369.836 271.825 368.476L251.483 332.314C251.423 332.204 251.355 332.078 251.321 331.943C250.844 330.693 248.776 324.173 255.407 320.896C262.037 317.603 282.021 307.435 285.886 305.459C286.311 305.239 288.107 304.2 288.584 304.217L299.597 305.873C300.738 305.932 301.853 304.251 302.176 305.357Z" fill="#0064E1"/>
<path d="M230.952 301.498C230.952 301.481 230.943 301.456 230.943 301.439C230.901 301.186 230.611 299.328 231.922 299.328H238.714C238.961 299.328 239.157 299.134 239.157 298.889V294.151C239.157 293.872 238.927 293.644 238.646 293.644L225.556 293.543C225.522 293.543 225.505 293.543 225.47 293.534C225.215 293.492 223.947 293.163 223.462 290.874C223.462 290.866 223.462 290.857 223.453 290.832L220.798 272.675C220.747 272.287 220.755 271.898 220.883 271.526C221.121 270.775 221.811 269.821 223.785 269.821C226.679 269.821 247.77 269.736 252.332 269.719C253.345 269.719 254.298 270.243 254.783 271.121C255.115 271.712 255.413 272.582 255.584 273.79C256.077 277.294 257.72 288.603 258.026 290.638C258.06 290.883 258.06 291.128 258.009 291.373C257.831 292.166 257.252 293.762 255.371 293.847C253.209 293.94 244.681 293.627 242.485 293.551C242.195 293.543 241.965 293.771 241.957 294.041L241.914 299.024C241.914 299.302 242.144 299.531 242.425 299.531L249.711 299.581C249.745 299.581 249.787 299.581 249.813 299.59C250.009 299.64 250.63 299.885 250.621 300.645C250.604 302.064 250.57 301.777 250.57 301.777L231.445 301.929C231.199 301.929 230.994 301.743 230.96 301.498H230.952Z" fill="#0064B7"/>
<path d="M299.142 259.872C299.142 259.872 304.257 257.659 306.496 264.449C306.496 264.449 308.002 269.094 309.092 270.462C310.181 271.813 313.05 272.751 313.05 272.751C313.05 272.751 315.714 274.102 315.569 278.046C315.424 281.973 315.058 285.553 313.628 287.986C312.539 289.81 313.135 291.034 313.484 291.524C313.662 291.769 313.73 292.065 313.713 292.369C313.654 293.137 313.237 294.379 311.254 294.429C308.368 294.505 304.64 295.679 305.219 292.901C305.798 290.114 306.853 276.272 306.853 276.272L304.691 270.834L301.372 268.689L299.789 267.608C299.789 267.608 295.984 262.743 295.984 261.62C295.984 260.48 299.142 259.872 299.142 259.872Z" fill="#170856"/>
<path d="M295.682 260.015L291.579 257.946L291.435 251.511L289.562 249.222L286.098 250.227L281.485 250.084H277.876C277.876 250.084 278.31 259.956 281.91 263.807C281.91 263.807 286.157 264.669 287.749 263.588C287.749 263.588 289.622 261.949 289.622 264.812C289.622 267.675 289.911 271.036 289.911 271.036C289.911 271.036 291.205 273.325 296.116 271.18C296.116 271.18 298.78 269.753 299.793 267.599" fill="#FFBF99"/>
<path d="M280.471 242.458C280.471 242.458 290.097 234.52 296.047 242.458C301.996 250.397 300.915 256.3 299.289 258.014C299.289 258.014 294.132 263.512 290.148 257.634C290.148 257.634 289.374 256.646 289.876 254.644C289.876 254.644 291.382 250.245 287.603 251.283C283.816 252.322 280.573 252.288 279.169 250.751C277.764 249.214 277.185 250.895 277.254 251.402C277.33 251.908 276.675 255.126 274.76 252.195C272.845 249.265 275.27 244.037 277.39 242.644C277.407 242.644 279.237 241.639 280.471 242.458Z" fill="#170856"/>
<path d="M298.82 258.098C298.82 258.098 299.331 259.711 299.212 260.024C299.212 260.024 297.007 261.637 296.437 261.704C296.437 261.704 295.612 260.378 295.756 259.846C295.748 259.855 298.565 258.174 298.82 258.098Z" fill="#EA4E59"/>
<path d="M299.648 267.591C299.707 267.532 299.809 267.599 299.894 267.591C300.797 267.489 306.737 267.152 307.444 275.082C308.108 282.547 303.673 302.224 302.499 306.759L281.459 303.55C281.85 301.633 282.421 297.242 282.421 296.38C282.421 296.38 283.348 287.927 283.527 285.478C283.561 285.106 283.425 284.743 283.161 284.473C282.208 283.459 279.995 280.554 282.038 277.404C282.038 277.404 286.472 270.107 289.604 268.554C289.613 268.528 292.873 274.153 299.648 267.591Z" fill="#FCBE42"/>
<path d="M296.216 286.153C296.463 285.241 297.476 284.76 298.344 285.157L301.715 286.677C302.157 286.871 302.481 287.259 302.583 287.732L302.728 288.34C302.813 288.678 302.77 289.041 302.617 289.354L299.042 296.693C298.94 296.912 298.855 297.132 298.804 297.36C298.625 298.086 297.842 299.86 294.531 298.998L273.653 293.762C273.593 293.745 269.133 292.141 269.082 292.124C268.631 291.946 268.197 292.124 268.078 293.559C268.027 294.167 266.461 292.36 266.827 291.085C266.827 291.085 267.925 288.594 273.764 289.987L289.799 293.188C289.841 293.196 289.884 293.205 289.927 293.222C290.352 293.348 292.957 293.99 293.646 291.921L296.114 286.381C296.165 286.297 296.182 286.221 296.216 286.153Z" fill="#FFBF99"/>
<path d="M305.761 270.31C306.161 270.597 306.391 271.07 306.502 271.535C306.782 272.59 306.833 273.882 306.595 274.955C306.17 276.88 303.948 286.804 302.842 288.864C302.842 288.864 299.292 286.347 296.194 286.204C296.194 286.204 297.888 279.296 299.599 274.634C299.607 274.617 302.203 267.743 305.761 270.31Z" fill="#F79F03"/>
<path d="M249.218 371.305L249.439 376.718C249.439 376.718 249.592 377.538 246.247 377.538C242.894 377.538 234.204 377.529 234.204 377.529C234.204 377.529 232.144 376.668 234.527 375.916C234.527 375.916 239.821 374.303 242.851 371.297L249.218 371.305Z" fill="#170856"/>
<path d="M272.633 298.678L264.309 298.728V295.08C264.309 295.08 263.926 294.067 265.551 293.949C267.177 293.847 271.501 294.05 271.501 294.05C271.501 294.05 272.692 294.151 272.692 295.545C272.684 296.947 272.633 298.678 272.633 298.678Z" fill="#EE384E"/>
<path d="M272.002 298.424C272.002 298.424 275.101 298.153 275.33 299.699C275.603 301.455 274.743 301.878 273.228 301.928C271.722 301.979 262.683 301.793 262.683 301.793C262.683 301.793 260.938 301.548 261.006 300.298C261.082 299.015 261.44 298.525 263.117 298.525C264.793 298.525 272.002 298.424 272.002 298.424Z" fill="#000036"/>
<path d="M251.209 301.641L274.453 301.785C274.547 301.785 274.632 301.793 274.726 301.802C275.347 301.81 277.024 302.174 277.024 303.508C277.024 305.079 275.866 305.509 273.849 305.509H220.33C219.7 305.509 219.096 305.273 218.628 304.851C218.015 304.31 217.334 302.663 218.67 301.836C219.045 301.599 219.487 301.506 219.93 301.506L251.209 301.641Z" fill="#023EA1"/>
<path d="M236.783 305.357L221.505 318.667C221.505 318.667 218.764 321.099 218.619 326.681C218.475 332.264 217.607 377.884 217.607 377.884C217.607 377.884 217.317 380.46 222.364 380.46H255.235C255.235 380.46 256.529 380.46 256.674 378.889C256.818 377.318 255.516 377.462 254.512 377.462L220.917 377.605L221.207 327.399C221.207 327.399 220.339 323.109 226.543 318.101L240.4 305.391L236.783 305.357Z" fill="#023EA1"/>
<path d="M290.362 326.842L290.413 373.881C290.413 373.881 297.767 374.1 299.069 375.806C300.363 377.521 298.848 378.593 291.281 378.382C283.715 378.163 279.17 378.163 279.17 378.163C279.17 378.163 275.493 377.732 279.825 375.587C284.149 373.442 287.613 374.092 287.613 374.092L288.047 326.892L290.362 326.842Z" fill="#023EA1"/>
<path d="M278.956 367.227C278.956 367.227 283.177 371.196 280.684 373.02L269.653 381.71C269.653 381.71 268.027 382.141 268.359 380.317L273.228 370.985L278.956 367.227Z" fill="#180756"/>
<path d="M124.688 43.3643C128.51 43.3643 131.608 40.2904 131.608 36.4985C131.608 32.7065 128.51 29.6326 124.688 29.6326C120.867 29.6326 117.769 32.7065 117.769 36.4985C117.769 40.2904 120.867 43.3643 124.688 43.3643Z" stroke="#003EB0" stroke-miterlimit="10"/>
<path d="M121.677 30.3758L99.2246 24.1433" stroke="#003EB0" stroke-miterlimit="10"/>
<path d="M117.71 37.166L93.8613 38.6946" stroke="#003EB0" stroke-miterlimit="10"/>
<path d="M121.839 42.9338L100.237 53.0849" stroke="#003EB0" stroke-miterlimit="10"/>
<path d="M290.147 136.202C295.685 136.202 300.174 131.748 300.174 126.253C300.174 120.759 295.685 116.305 290.147 116.305C284.61 116.305 280.121 120.759 280.121 126.253C280.121 131.748 284.61 136.202 290.147 136.202Z" stroke="#DE051F" stroke-miterlimit="10"/>
<path d="M283.244 118.906C283.244 118.906 265.737 114.269 271.797 120.384C277.857 126.498 298.275 135.298 302.378 136.227C306.48 137.139 309.051 135.467 307.765 133.271C306.48 131.084 300.063 127.511 300.063 127.511" stroke="#DE051F" stroke-miterlimit="10"/>
<path d="M229.3 141.303L231.488 136.21L234.433 140.686L239.148 141.37L236.288 144.833L236.688 150.119L232.245 147.814L227.87 150.533L228.347 145.035L224.168 141.708L229.3 141.303Z" fill="#003EB0"/>
<path d="M237.003 7.09241L239.182 2L242.127 6.48436L246.851 7.15997L243.982 10.614L244.382 15.9176L239.94 13.612L235.565 16.3229L236.041 10.8252L231.862 7.49778L237.003 7.09241Z" stroke="#DE051F" stroke-miterlimit="10"/>
<path d="M56.2684 105.318C60.8327 105.318 64.5329 101.647 64.5329 97.1177C64.5329 92.5888 60.8327 88.9175 56.2684 88.9175C51.704 88.9175 48.0039 92.5888 48.0039 97.1177C48.0039 101.647 51.704 105.318 56.2684 105.318Z" stroke="#DE051F" stroke-miterlimit="10"/>
<path d="M53.716 101.838C54.7548 101.838 55.597 101.003 55.597 99.9721C55.597 98.9413 54.7548 98.1057 53.716 98.1057C52.6771 98.1057 51.835 98.9413 51.835 99.9721C51.835 101.003 52.6771 101.838 53.716 101.838Z" stroke="#DE051F" stroke-miterlimit="10"/>
<path d="M58.4129 97.202C59.1932 97.202 59.8258 96.5743 59.8258 95.8001C59.8258 95.0258 59.1932 94.3982 58.4129 94.3982C57.6326 94.3982 57 95.0258 57 95.8001C57 96.5743 57.6326 97.202 58.4129 97.202Z" stroke="#DE051F" stroke-miterlimit="10"/>
<path d="M54.0557 94.5756C54.6668 94.5756 55.1622 94.0841 55.1622 93.4778C55.1622 92.8714 54.6668 92.3799 54.0557 92.3799C53.4446 92.3799 52.9492 92.8714 52.9492 93.4778C52.9492 94.0841 53.4446 94.5756 54.0557 94.5756Z" stroke="#DE051F" stroke-miterlimit="10"/>
<path d="M105.777 139.698C113.19 139.698 119.199 133.736 119.199 126.38C119.199 119.025 113.19 113.062 105.777 113.062C98.3639 113.062 92.3545 119.025 92.3545 126.38C92.3545 133.736 98.3639 139.698 105.777 139.698Z" stroke="#003EB0" stroke-miterlimit="10"/>
<path d="M98.5498 115.131C98.5498 115.131 99.3669 118.188 103.069 114.717C103.069 114.717 105.129 112.986 105.529 115.021C105.946 117.065 104.712 117.563 104.295 117.775C103.878 117.977 101.52 118.391 101.52 118.391C101.52 118.391 99.6733 120.122 101.316 120.832C102.959 121.541 103.571 120.418 103.571 120.418C103.571 120.418 105.316 120.114 105.631 121.229C105.946 122.343 107.07 122.504 107.989 121.279C108.908 120.055 109.427 121.279 109.632 122.141C109.836 123.002 110.202 123.205 111.019 122.85C111.836 122.487 112.193 122.039 112.406 122.183C112.611 122.335 113.172 122.749 113.377 123.712C113.581 124.674 115.223 123.712 115.683 123.458C116.151 123.205 117.326 122.647 117.326 122.647L118.041 121.735L118.245 121.271" stroke="#003EB0" stroke-miterlimit="10"/>
<path d="M93.208 122.108C93.208 122.108 94.4421 123.687 95.2167 123.89C95.9827 124.092 96.8594 123.425 97.1232 123.273C97.3785 123.121 98.5105 123.324 98.7148 124.134C98.9191 124.945 99.4298 125.3 100.153 124.996C100.868 124.692 101.277 123.366 102.307 124.033C103.328 124.7 103.481 125.199 103.328 125.764C103.175 126.33 101.021 127.445 100.349 127.546C99.6766 127.648 98.6552 128.357 98.6552 128.357C98.6552 128.357 97.4211 129.218 98.3999 130.299C99.3787 131.38 100.196 130.916 100.196 130.916C100.196 130.916 101.634 129.641 102.451 129.387C103.268 129.134 104.511 128.678 104.86 129.751C105.209 130.815 104.656 131.744 103.788 132.039C102.919 132.343 101.532 132.554 101.175 132.799C100.809 133.053 99.1659 133.264 99.634 134.53C100.102 135.806 101.379 135.907 102.409 135.696C103.43 135.493 103.43 135.645 103.43 136.608C103.43 137.571 103.328 139.201 103.328 139.201" stroke="#003EB0" stroke-miterlimit="10"/>
<path d="M119.209 126.381C119.209 126.381 113.481 127.859 112.962 128.771C112.962 128.771 111.676 129.683 112.391 130.603C112.391 130.603 112.698 132.03 114.349 131.22C115.992 130.409 117.881 130.51 118.043 130.966C118.196 131.431 118.409 130.916 118.409 130.916" stroke="#003EB0" stroke-miterlimit="10"/>
<path d="M313.827 64.3591C307.75 62.1634 303.4 56.3785 303.4 49.5886" stroke="#003EB0" stroke-miterlimit="10"/>
<path d="M334.782 46.4304C334.986 47.4438 335.105 48.4995 335.105 49.5805C335.105 57.1388 329.726 63.4474 322.56 64.959" stroke="#003EB0" stroke-miterlimit="10"/>
<path d="M305.631 41.5318C308.406 36.9377 313.461 33.8552 319.249 33.8552C323.854 33.8552 327.99 35.7976 330.884 38.9054" stroke="#003EB0" stroke-miterlimit="10"/>
<path d="M309.607 51.8768C308.594 47.9667 310.075 43.6765 313.616 41.2612" stroke="#003EB0" stroke-miterlimit="10"/>
<path d="M326.42 56.2849C325.968 56.7578 325.449 57.1885 324.887 57.5686C320.938 60.2541 315.729 59.7305 312.401 56.5974" stroke="#003EB0" stroke-miterlimit="10"/>
<path d="M318.613 39.5468C321.992 39.3273 325.405 40.8389 327.465 43.8285C329.099 46.1847 329.55 49.0054 328.963 51.6065" stroke="#003EB0" stroke-miterlimit="10"/>
<path d="M319.249 55.4749C322.624 55.4749 325.36 52.7601 325.36 49.4113C325.36 46.0624 322.624 43.3477 319.249 43.3477C315.874 43.3477 313.138 46.0624 313.138 49.4113C313.138 52.7601 315.874 55.4749 319.249 55.4749Z" stroke="#003EB0" stroke-miterlimit="10"/>
<path d="M193.112 390.476C201.484 390.476 208.27 388.298 208.27 385.611C208.27 382.925 201.484 380.747 193.112 380.747C184.74 380.747 177.953 382.925 177.953 385.611C177.953 388.298 184.74 390.476 193.112 390.476Z" fill="#ECF2F5"/>
<path d="M165.288 332.704C165.288 332.704 168.897 331.243 168.624 327.13C168.352 323.017 166.216 320.104 170.633 321.294C175.05 322.485 176.523 323.017 179.732 322.35C182.94 321.683 185.604 320.357 184.2 324.47C182.796 328.583 181.281 332.028 184.583 332.695C187.885 333.362 191.418 330.88 191.852 337.323C192.277 343.767 187.043 350.996 178.574 351.266C170.105 351.536 166.36 348.057 166.36 348.057C166.36 348.057 164.088 344.873 167.628 344.096C171.178 343.319 174.787 341.816 172.974 340.178C171.161 338.539 165.288 338.404 165.288 338.404C165.288 338.404 157.934 336.952 165.288 332.704Z" fill="#649EEA"/>
<path d="M203.998 333.776C203.402 329.671 203.862 326.715 211.547 325.601C219.233 324.494 223.719 329.072 224.178 333.776C224.646 338.488 217.965 340.194 217.965 340.194C217.965 340.194 213.216 341.537 215.624 345.649C218.033 349.762 219.122 353.74 213.658 354.339C208.202 354.931 202.219 353.512 198.891 351.299C195.563 349.095 192.15 343.521 195.963 340.608C195.963 340.608 197.027 339.881 200.712 339.67C204.389 339.476 203.998 333.776 203.998 333.776Z" fill="#023EA1"/>
<path d="M176.948 333.108C176.948 333.108 183.332 347.431 184.208 357.185" stroke="#023EA1" stroke-miterlimit="10"/>
<path d="M212.435 335.456C212.435 335.456 201.132 352.11 198.468 357.675" stroke="#649EEA" stroke-miterlimit="10"/>
<path d="M180.262 356.054H206.196C206.196 356.054 209.039 356.248 208.8 360.099C208.579 363.637 204.051 362.877 201.719 362.877C199.387 362.877 179.709 362.877 179.709 362.877C179.709 362.877 176.525 363.418 176.525 359.829C176.517 356.248 177.717 356.054 180.262 356.054Z" fill="#0054A5"/>
<path d="M179.698 362.878L183.63 385.612H201.036L203.998 368.553L179.732 362.878H179.698Z" fill="#0054A5"/>
<path d="M179.733 362.878L203.999 368.553L204.969 362.878H179.733Z" fill="#006AD5"/>
<path d="M190.894 356.915C190.894 356.915 192.204 331.69 199.788 315.855" stroke="#FCBE42" stroke-miterlimit="10"/>
<path d="M206.018 306.751C206.018 306.751 206.648 314.495 199.022 317.527C199.03 317.519 197.371 310.915 206.018 306.751Z" fill="#FCBE42"/>
<path d="M194.585 331.402C194.585 331.402 197.385 324.798 206.024 325.677C206.033 325.677 205.352 332.264 194.585 331.402Z" fill="#FCBE42"/>
<path d="M191.744 348.022C191.744 348.022 193.191 340.996 201.839 340.194C201.839 340.194 202.477 346.781 191.744 348.022Z" fill="#FCBE42"/>
<path d="M191.454 348.065C191.454 348.065 192.458 340.962 184.585 337.331C184.577 337.331 181.768 343.335 191.454 348.065Z" fill="#FCBE42"/>
<path d="M194.679 331.352C194.679 331.352 196.586 324.435 189.241 319.841C189.241 319.841 185.674 325.432 194.679 331.352Z" fill="#FCBE42"/>
</svg>
