<svg width="270" height="186" viewBox="0 0 270 186" fill="none" xmlns="http://www.w3.org/2000/svg">
<g clip-path="url(#clip0_1409_4158)">
<path d="M35.443 70.029C35.443 70.029 46.4497 65.286 47.1027 71.889C47.7556 78.585 50.4607 78.864 53.4456 79.05C56.2439 79.329 61.654 77.562 61.9338 84.63C62.3069 91.605 59.7884 95.325 62.2137 98.115C64.6389 100.905 70.8885 115.413 64.6389 116.343C58.3893 117.273 52.6993 110.298 50.9271 106.764C49.2481 103.137 44.1178 101.928 40.0136 101.928C35.9094 101.928 31.2455 98.766 33.8573 94.023C36.5623 89.28 35.1632 83.514 31.8052 81.561C28.5405 79.701 27.9808 73.284 35.443 70.029Z" fill="#EE384E"/>
<path d="M40.2939 76.167L66.4117 120.993" stroke="white" stroke-miterlimit="10" stroke-linecap="round" stroke-linejoin="round"/>
<path d="M55.9643 83.328L50.9273 94.488L39.0811 94.116" stroke="white" stroke-miterlimit="10" stroke-linecap="round" stroke-linejoin="round"/>
<path d="M56.6174 117.645C56.6174 117.645 36.2829 104.16 26.7686 90.21" stroke="#FCBE42" stroke-miterlimit="10"/>
<path d="M22.3841 80.445C22.3841 80.445 29.1934 83.7 27.9808 91.512C27.8875 91.512 21.5446 89.652 22.3841 80.445Z" stroke="#FCBE42" stroke-miterlimit="10"/>
<path d="M37.3086 101.928C37.3086 101.928 33.2044 96.348 38.2414 89.652C38.0549 89.838 43.2784 93.558 37.3086 101.928Z" stroke="#FCBE42" stroke-miterlimit="10"/>
<path d="M49.7149 112.53C49.7149 112.53 44.5846 107.88 48.1292 100.347C48.1292 100.347 53.8191 103.044 49.7149 112.53Z" stroke="#FCBE42" stroke-miterlimit="10"/>
<path d="M49.6212 112.809C49.6212 112.809 44.2111 108.531 37.3086 113.181C37.3086 113.181 40.8531 118.389 49.6212 112.809Z" stroke="#FCBE42" stroke-miterlimit="10"/>
<path d="M37.3085 101.835C37.3085 101.835 32.5513 96.906 25.0891 100.626C24.9958 100.626 27.8874 106.392 37.3085 101.835Z" stroke="#FCBE42" stroke-miterlimit="10"/>
<path d="M147.47 79.05H136.836V82.863H147.47V79.05Z" fill="#2440AB"/>
<path d="M151.667 80.91L146.257 84.165V77.841L151.667 80.91Z" fill="#2440AB"/>
<path d="M151.761 86.211H141.127V90.024H151.761V86.211Z" fill="#2440AB"/>
<path d="M136.836 88.071L142.246 91.233V85.002L136.836 88.071Z" fill="#2440AB"/>
<path d="M154.151 30.3991L127.847 30.6121L128.11 62.9761L154.415 62.7631L154.151 30.3991Z" fill="#E8E8E8"/>
<path d="M154.151 30.3991L127.847 30.6121L128.11 62.9761L154.415 62.7631L154.151 30.3991Z" fill="#DDE7F6"/>
<path d="M146.815 33.0389L129.559 33.1793L129.57 34.5743L146.826 34.4339L146.815 33.0389Z" fill="white"/>
<path d="M152.598 35.434L129.559 35.6205L129.57 37.0155L152.61 36.829L152.598 35.434Z" fill="white"/>
<path d="M152.691 41.9441L129.651 42.1306L129.663 43.5256L152.702 43.3391L152.691 41.9441Z" fill="white"/>
<path d="M152.691 44.5483L129.651 44.7347L129.663 46.1297L152.702 45.9433L152.691 44.5483Z" fill="white"/>
<path d="M152.691 38.3744L143.83 38.4462L143.841 39.8412L152.703 39.7694L152.691 38.3744Z" fill="white"/>
<path d="M146.721 47.5477L129.465 47.6873L129.476 49.0823L146.733 48.9427L146.721 47.5477Z" fill="white"/>
<path d="M152.504 50.0355L129.465 50.2219L129.476 51.6169L152.516 51.4305L152.504 50.0355Z" fill="white"/>
<path d="M152.598 56.4527L129.559 56.6392L129.57 58.0342L152.61 57.8477L152.598 56.4527Z" fill="white"/>
<path d="M152.598 59.1501L129.559 59.3359L129.57 60.7309L152.609 60.5451L152.598 59.1501Z" fill="white"/>
<path d="M152.598 52.7898L143.736 52.8616L143.748 54.2566L152.609 54.1848L152.598 52.7898Z" fill="white"/>
<path d="M232.818 53.382C232.631 53.382 232.351 53.289 232.258 53.103C231.325 51.894 229.926 51.243 228.434 51.15C226.755 51.057 225.262 51.801 224.236 53.01C223.956 53.382 223.49 53.382 223.117 53.103C222.744 52.824 222.744 52.359 223.024 51.987C224.423 50.313 226.288 49.569 228.527 49.662C230.486 49.755 232.258 50.685 233.471 52.08C233.751 52.452 233.657 52.917 233.377 53.196C233.191 53.289 233.004 53.382 232.818 53.382Z" fill="#2440AB"/>
<path d="M231.232 55.335C231.232 56.823 230.02 58.032 228.527 58.032C227.035 58.032 225.822 56.823 225.822 55.335C225.822 53.847 227.035 52.638 228.527 52.638C230.02 52.638 231.232 53.754 231.232 55.335Z" fill="#2440AB"/>
<path d="M220.972 51.987C220.785 51.987 220.692 51.894 220.506 51.801C220.132 51.522 220.039 51.057 220.319 50.685C222.278 48.081 225.356 46.593 228.527 46.686C231.326 46.779 234.031 48.174 235.71 50.313C235.99 50.685 235.896 51.15 235.616 51.429C235.243 51.708 234.777 51.615 234.497 51.336C233.005 49.476 230.766 48.36 228.341 48.267C225.636 48.174 223.024 49.476 221.345 51.615C221.438 51.801 221.252 51.987 220.972 51.987Z" fill="#2440AB"/>
<path d="M218.64 50.592C218.453 50.592 218.36 50.592 218.173 50.406C217.8 50.127 217.707 49.662 217.987 49.29C220.412 45.849 224.423 43.896 228.621 43.989C232.258 44.175 235.616 45.849 237.855 48.732C238.135 49.104 238.042 49.569 237.762 49.848C237.389 50.127 236.922 50.034 236.642 49.755C234.59 47.244 231.699 45.756 228.527 45.57C224.889 45.384 221.345 47.151 219.2 50.22C219.2 50.499 218.92 50.592 218.64 50.592Z" fill="#2440AB"/>
<path d="M72.2876 58.218L71.5413 60.45C71.4481 60.822 71.6346 61.287 72.0077 61.38L73.2203 61.752C73.2203 62.217 73.2203 62.775 73.3136 63.24L72.1943 63.798C71.8212 63.984 71.7279 64.449 71.9145 64.821L73.0338 66.96C73.2203 67.332 73.6867 67.425 74.0598 67.239L75.1792 66.681C75.5523 67.053 75.9254 67.332 76.2985 67.704L75.9254 68.913C75.8321 69.285 76.0187 69.75 76.3918 69.843L78.6304 70.587C79.0036 70.68 79.4699 70.494 79.5632 70.122L79.9363 68.913C80.4027 68.913 80.9624 68.913 81.4288 68.82L81.9884 69.936C82.175 70.308 82.6414 70.401 83.0145 70.215L85.1599 69.099C85.533 68.913 85.6263 68.448 85.4397 68.076L84.88 66.96C85.2531 66.588 85.533 66.216 85.9061 65.844L87.1187 66.216C87.4918 66.309 87.9582 66.123 88.0515 65.751L88.7977 63.519C88.891 63.147 88.7044 62.682 88.3313 62.589L87.1187 62.217C87.1187 61.752 87.1187 61.194 87.0254 60.729L88.1448 60.171C88.5179 59.985 88.6111 59.52 88.4246 59.148L87.3053 57.009C87.1187 56.637 86.6523 56.544 86.2792 56.73L85.1599 57.288C84.7868 56.916 84.4137 56.637 84.0405 56.265L84.4136 55.056C84.5069 54.684 84.3204 54.219 83.9473 54.126L81.7086 53.382C81.3355 53.289 80.8691 53.475 80.7758 53.847L80.4027 55.056C79.9363 55.056 79.3767 55.056 78.9103 55.149L78.1641 54.126C77.9775 53.754 77.5111 53.661 77.138 53.847L74.9926 54.963C74.6195 55.149 74.5262 55.614 74.7128 55.986L75.2725 57.102C74.8993 57.474 74.6195 57.846 74.2464 58.218L73.0338 57.846C72.754 57.567 72.3808 57.846 72.2876 58.218ZM76.8582 61.008C77.4178 59.241 79.1901 58.404 80.9624 58.869C82.7347 59.427 83.5742 61.194 83.1078 62.961C82.6414 64.728 80.7758 65.565 79.0036 65.1C77.2313 64.449 76.2985 62.589 76.8582 61.008Z" fill="#2440AB"/>
<path d="M74.8061 60.264C73.8734 63.054 75.4591 66.123 78.2574 67.053C81.0557 67.983 84.1339 66.402 85.0667 63.612C85.9995 60.822 84.4137 57.753 81.6154 56.823C78.7238 55.893 75.7389 57.381 74.8061 60.264ZM76.8582 61.008C77.4179 59.241 79.1902 58.404 80.9625 58.869C82.7347 59.427 83.5742 61.194 83.1079 62.961C82.6415 64.728 80.7759 65.565 79.0036 65.1C77.2314 64.449 76.2986 62.589 76.8582 61.008Z" fill="#2440AB"/>
<path d="M58.4828 31.62L57.1769 35.433C56.9904 36.084 57.3635 36.828 58.0164 37.014L60.0685 37.665C60.0685 38.502 60.0685 39.432 60.2551 40.176L58.2963 41.106C57.6433 41.385 57.4568 42.222 57.7366 42.78L59.6021 46.314C59.882 46.965 60.7215 47.151 61.2811 46.872L63.24 45.942C63.7996 46.593 64.4526 47.151 65.1988 47.616L64.5459 49.662C64.1728 50.22 64.5459 50.964 65.1988 51.15L69.0232 52.452C69.6761 52.638 70.4224 52.266 70.6089 51.615L71.2618 49.569C72.1013 49.569 73.0341 49.569 73.7803 49.383L74.7131 51.336C74.993 51.987 75.8324 52.173 76.3921 51.894L79.9367 50.034C80.5896 49.755 80.7762 48.918 80.4963 48.36L79.5636 46.407C80.2165 45.849 80.7762 45.198 81.2426 44.454L83.2947 45.105C83.9476 45.291 84.6938 44.919 84.8804 44.268L86.1863 40.455C86.3728 39.804 85.9997 39.06 85.3468 38.874L83.2947 38.223C83.2947 37.386 83.2947 36.456 83.1081 35.712L85.0669 34.782C85.7199 34.503 85.9064 33.666 85.6266 33.108L83.761 29.574C83.4812 28.923 82.6417 28.737 82.082 29.016L80.1232 29.946C79.5636 29.295 78.9106 28.737 78.1644 28.272L78.8173 26.226C79.0039 25.575 78.6308 24.831 77.9778 24.645L74.1535 23.436C73.5005 23.25 72.7543 23.622 72.5677 24.273L71.9148 26.226C71.0753 26.226 70.1425 26.226 69.3963 26.412L68.4635 24.459C68.1837 23.808 67.3442 23.622 66.7845 23.901L63.24 25.761C62.587 26.04 62.4005 26.877 62.6803 27.435L63.6131 29.388C62.9601 29.946 62.4005 30.597 61.9341 31.341L59.882 30.69C59.3223 30.597 58.5761 30.969 58.4828 31.62ZM66.3181 36.27C67.2509 33.387 70.4223 31.806 73.314 32.736C76.2056 33.666 77.7913 36.828 76.8585 39.711C75.9257 42.594 72.7543 44.175 69.8627 43.245C66.9711 42.408 65.3854 39.153 66.3181 36.27Z" fill="#2440AB"/>
<path d="M62.8672 35.154C61.2815 39.99 63.9865 45.198 68.8369 46.779C73.6874 48.36 78.9109 45.663 80.4966 40.827C82.0824 35.991 79.3773 30.783 74.5269 29.202C69.5832 27.714 64.3596 30.318 62.8672 35.154ZM66.3184 36.27C67.2512 33.387 70.4227 31.806 73.3143 32.736C76.2059 33.666 77.7916 36.828 76.8588 39.711C75.926 42.594 72.7546 44.175 69.863 43.245C66.9714 42.408 65.3857 39.153 66.3184 36.27Z" fill="#2440AB"/>
<path d="M99.711 147.312H79.2832V158.286H99.711V147.312Z" fill="#023EA1"/>
<path opacity="0.5" d="M99.711 148.893H79.2832V153.543H99.711V148.893Z" fill="#7762EF"/>
<path d="M127.321 152.241H51.766C48.9677 152.241 46.6357 149.916 46.6357 147.126V99.696C46.6357 96.906 48.9677 94.581 51.766 94.581H127.321C130.119 94.581 132.451 96.906 132.451 99.696V147.126C132.451 150.009 130.119 152.241 127.321 152.241Z" fill="#0064B7"/>
<path d="M46.6357 141.732V149.265C46.6357 150.846 48.1282 152.148 49.8072 152.148H129.093C130.865 152.148 132.265 150.846 132.265 149.265V141.732H46.6357Z" fill="#0064B7"/>
<path d="M129 141.732H49.9941V99.975C49.9941 98.487 51.2068 97.278 52.6992 97.278H126.295C127.788 97.278 129 98.487 129 99.975V141.732Z" fill="white"/>
<path d="M108.107 161.355H70.9821C70.609 161.355 70.5157 160.89 70.7955 160.704L75.5527 157.449C75.8325 157.263 76.2056 157.077 76.5787 157.077H102.417C102.79 157.077 103.163 157.17 103.443 157.449L108.2 160.704C108.573 160.89 108.48 161.355 108.107 161.355Z" fill="#7762EF"/>
<path d="M108.479 162.378V160.983L106.987 160.332V160.425L103.535 158.193C103.256 158.007 102.882 157.914 102.509 157.914H76.5782C76.2051 157.914 75.8319 158.007 75.5521 158.193L71.5412 160.611L70.6084 160.704V162.378C70.6084 162.471 70.795 162.564 70.9815 162.564H108.106C108.386 162.843 108.479 162.564 108.479 162.378Z" fill="#3864B0"/>
<path d="M108.107 161.355H70.9821C70.609 161.355 70.5157 160.89 70.7955 160.704L75.5527 157.449C75.8325 157.263 76.2056 157.077 76.5787 157.077H102.417C102.79 157.077 103.163 157.17 103.443 157.449L108.2 160.704C108.573 160.89 108.48 161.355 108.107 161.355Z" fill="#25409A"/>
<path d="M82.921 115.041H70.7949V133.362H82.921V115.041Z" fill="#BD4149"/>
<path d="M85.3775 96.1662L74.4453 122.153L95.6064 131.002L106.539 105.015L85.3775 96.1662Z" fill="#F5F5F7"/>
<path d="M86.056 98.5982L85.5869 99.7131L99.5223 105.541L99.9913 104.426L86.056 98.5982Z" fill="#DDE7F6"/>
<path d="M85.1751 100.723L84.7061 101.838L103.287 109.608L103.756 108.493L85.1751 100.723Z" fill="#DDE7F6"/>
<path d="M82.9368 105.714L82.4678 106.829L101.048 114.599L101.517 113.484L82.9368 105.714Z" fill="#DDE7F6"/>
<path d="M82.1536 108.109L81.6846 109.224L100.265 116.994L100.734 115.879L82.1536 108.109Z" fill="#DDE7F6"/>
<path d="M95.6907 107.781L95.2217 108.896L102.275 111.845L102.744 110.73L95.6907 107.781Z" fill="#DDE7F6"/>
<path d="M77.3139 104.219L72.9727 132.063L95.6459 135.577L99.9871 107.733L77.3139 104.219Z" fill="white"/>
<path d="M78.4118 106.346L78.2256 107.54L93.1567 109.855L93.343 108.66L78.4118 106.346Z" fill="#DDE7F6"/>
<path d="M78.0691 108.724L77.8828 109.919L97.791 113.005L97.9773 111.81L78.0691 108.724Z" fill="#DDE7F6"/>
<path d="M77.2253 114.199L77.0391 115.394L96.9473 118.479L97.1335 117.285L77.2253 114.199Z" fill="#DDE7F6"/>
<path d="M76.9148 116.405L76.7285 117.6L96.6367 120.686L96.823 119.491L76.9148 116.405Z" fill="#DDE7F6"/>
<path d="M89.987 112.99L89.8008 114.185L97.3585 115.356L97.5448 114.161L89.987 112.99Z" fill="#DDE7F6"/>
<path d="M102.136 117.552H70.7949V137.361H102.136V117.552Z" fill="#EE384E"/>
<path d="M250.168 164.424H19.0261C18.4664 164.424 18 164.052 18 163.494C18 162.936 18.4664 162.564 19.0261 162.564H250.168C250.728 162.564 251.194 162.936 251.194 163.494C251.194 164.052 250.728 164.424 250.168 164.424Z" fill="#1A1A1A"/>
<path d="M202.689 34.782H189.071C188.698 34.782 188.418 35.061 188.418 35.433C188.418 35.805 188.698 36.084 189.071 36.084H202.689C203.063 36.084 203.342 35.805 203.342 35.433C203.249 35.061 203.063 34.782 202.689 34.782Z" fill="#1631A4"/>
<path d="M184.688 34.782H182.076C181.703 34.782 181.423 35.061 181.423 35.433C181.423 35.805 181.703 36.084 182.076 36.084H184.688C185.061 36.084 185.341 35.805 185.341 35.433C185.247 35.061 184.967 34.782 184.688 34.782Z" fill="#1631A4"/>
<path d="M196.254 39.525C196.254 39.897 195.974 40.176 195.601 40.176H193.828C193.455 40.176 193.175 39.897 193.175 39.525C193.175 39.153 193.455 38.874 193.828 38.874H195.601C195.974 38.967 196.254 39.246 196.254 39.525ZM191.59 39.525C191.59 39.897 191.31 40.176 190.937 40.176H187.952C187.579 40.176 187.299 39.897 187.299 39.525C187.299 39.153 187.579 38.874 187.952 38.874H190.937C191.31 38.967 191.59 39.246 191.59 39.525ZM185.62 39.525C185.62 39.897 185.34 40.176 184.967 40.176H181.982C181.609 40.176 181.329 39.897 181.329 39.525C181.329 39.153 181.609 38.874 181.982 38.874H184.967C185.34 38.967 185.62 39.246 185.62 39.525Z" fill="#1631A4"/>
<path d="M172.095 68.355C174.427 68.355 174.427 64.821 172.095 64.821C169.763 64.821 169.856 68.355 172.095 68.355Z" fill="#1631A4"/>
<path d="M239.348 153.729C239.721 153.729 240.001 153.636 240.28 153.543C240.56 153.45 240.84 153.264 241.12 152.985C241.4 152.799 241.586 152.52 241.68 152.148C241.866 151.869 241.866 151.497 241.866 151.218C241.866 151.032 241.773 150.753 241.773 150.567C241.68 150.102 241.4 149.73 241.12 149.451C240.653 148.986 240.001 148.707 239.348 148.707C238.974 148.707 238.695 148.8 238.415 148.893C238.135 148.986 237.855 149.172 237.575 149.451C237.295 149.637 237.109 149.916 237.016 150.288C236.829 150.567 236.829 150.939 236.829 151.218C236.829 151.404 236.922 151.683 236.922 151.869C237.016 152.334 237.295 152.706 237.575 152.985C238.135 153.45 238.695 153.729 239.348 153.729Z" fill="#1631A4"/>
<path d="M191.59 90.489C191.59 90.489 191.776 94.395 189.817 96.627C187.858 98.859 184.594 102.858 184.594 102.858C184.594 102.858 189.444 110.205 198.958 109.275C208.473 108.252 210.245 101.37 210.245 101.37C210.245 101.37 201.29 100.347 199.985 91.698C198.959 83.235 197.466 83.235 197.466 83.235L191.59 90.489Z" fill="#EDBC9A"/>
<path d="M184.594 71.424C184.594 71.424 185.153 82.677 190.004 91.14C195.414 99.603 201.29 94.953 203.809 90.582C206.327 86.211 212.764 71.424 211.178 68.355C209.592 64.542 190.937 62.961 190.937 62.961L184.594 71.424Z" fill="#EDBC9A"/>
<path d="M209.219 77.748C209.219 77.748 211.737 75.609 211.737 77.748C211.737 79.887 210.151 83.142 208.379 83.142C206.793 83.7 206.793 82.584 207.353 81.003C208.193 79.887 209.219 77.748 209.219 77.748Z" fill="#EDBC9A"/>
<path d="M185.62 81.84C186.18 82.398 187.206 82.398 187.206 81.282C187.206 79.143 185.62 75.888 183.848 75.888C182.262 75.33 182.262 76.446 182.822 78.027C182.822 78.585 182.822 79.05 183.382 79.608C184.128 80.352 185.154 81.84 185.62 81.84Z" fill="#EDBC9A"/>
<path d="M185.153 76.446L184.593 73.098C184.593 73.098 187.951 73.656 191.03 69.75C191.03 69.75 198.025 71.331 203.249 70.773C209.219 70.215 211.178 68.634 211.178 68.634C211.178 68.634 210.151 75.051 209.032 77.097C209.032 77.097 211.551 76.074 212.856 72.726C213.883 69.378 213.883 66.309 213.883 66.309C213.883 66.309 217.707 62.961 218.733 59.892C218.733 59.892 208.472 57.381 205.488 55.521C202.13 53.382 200.637 52.173 200.637 52.173C200.637 52.173 195.787 49.662 191.123 53.196C186.459 56.73 183.194 59.148 183.194 65.379C183.661 65.472 178.717 71.796 185.153 76.446Z" fill="#1F1B54"/>
<path d="M161.088 148.986C162.114 151.125 163.886 152.706 165.751 153.915C166.125 154.194 166.684 154.473 167.057 154.659C167.897 155.217 168.736 155.682 169.483 156.24C169.949 156.519 170.509 156.891 170.975 157.17C171.348 157.449 172.001 157.263 172.094 156.798C172.188 156.24 171.721 155.868 171.441 155.496C171.068 155.217 170.788 154.845 170.415 154.566C169.762 153.915 169.016 153.357 168.27 152.706C168.177 152.613 167.99 152.427 167.804 152.334C167.99 152.427 168.177 152.613 168.363 152.706C168.83 153.078 169.296 153.357 169.762 153.636C170.322 154.008 170.882 154.473 171.441 154.845C172.001 155.217 172.561 155.682 173.12 155.961C173.493 156.24 173.867 156.612 174.24 156.798C174.613 156.984 175.172 157.17 175.452 156.798C175.546 156.612 175.546 156.333 175.546 156.147C175.546 155.868 175.266 155.496 175.079 155.31C174.893 155.124 174.706 154.938 174.52 154.752C174.053 154.194 173.4 153.729 172.841 153.264C172.188 152.706 171.628 152.241 170.975 151.683C170.415 151.311 169.949 150.846 169.389 150.381C169.109 150.195 168.923 150.009 168.643 149.73L175.732 155.31C176.199 155.682 177.411 156.333 177.878 155.496C178.064 155.217 177.971 154.566 177.784 154.287C177.598 154.008 177.318 153.729 177.131 153.543C176.572 153.078 176.105 152.613 175.546 152.148C174.426 151.218 173.307 150.195 172.188 149.451C171.908 149.265 171.721 149.079 171.441 148.8C172.281 149.544 173.307 150.195 174.053 150.846C175.172 151.59 175.825 152.241 176.572 152.706C176.758 152.799 177.131 153.078 177.411 153.078C177.784 153.078 178.344 152.985 178.53 152.706C178.81 152.334 178.53 151.59 178.157 151.218C176.012 149.358 174.613 148.242 172.654 147.033C172.654 147.033 170.975 146.01 170.788 145.917C170.788 145.917 173.96 147.684 176.012 147.312C176.012 147.312 178.717 145.917 174.333 144.987C174.333 144.987 171.908 143.871 170.322 143.034C170.322 143.034 167.337 141.36 163.699 142.476C163.699 142.476 160.808 140.616 160.062 140.151L157.356 143.685C157.73 143.778 160.528 147.405 161.088 148.986Z" fill="#EDBC9A"/>
<path d="M231.139 145.452C231.326 147.777 230.486 150.102 229.46 152.055C229.18 152.427 228.994 152.985 228.714 153.357C228.248 154.287 227.781 155.031 227.315 155.868C227.035 156.333 226.755 156.891 226.382 157.356C226.195 157.728 225.542 158.007 225.169 157.635C224.796 157.263 224.983 156.612 225.169 156.24C225.263 155.868 225.449 155.31 225.542 154.938C225.916 154.008 226.195 153.171 226.475 152.334C226.569 152.148 226.569 151.962 226.662 151.683C226.569 151.869 226.475 152.055 226.382 152.334C226.195 152.799 225.916 153.357 225.729 153.822C225.449 154.473 225.076 155.124 224.796 155.775C224.516 156.426 224.237 156.984 223.957 157.635C223.77 158.007 223.584 158.565 223.304 158.937C223.117 159.309 222.651 159.681 222.184 159.588C221.905 159.495 221.811 159.216 221.718 159.03C221.625 158.751 221.625 158.379 221.718 158.1C221.811 157.821 221.811 157.635 221.905 157.356C222.091 156.705 222.278 155.961 222.558 155.217C222.837 154.473 223.117 153.729 223.397 152.985C223.584 152.334 223.863 151.776 224.05 151.032C224.143 150.753 224.237 150.381 224.423 150.102C224.423 150.102 221.065 158.379 221.065 158.472C220.879 159.03 220.132 160.146 219.293 159.681C219.013 159.588 218.733 158.937 218.733 158.565C218.733 158.193 218.827 157.914 219.013 157.542C219.2 156.891 219.386 156.147 219.666 155.496C220.226 154.101 220.692 152.799 221.252 151.404C221.345 151.125 221.438 150.753 221.625 150.474C221.252 151.497 220.692 152.613 220.226 153.45C219.666 154.566 219.293 155.496 218.827 156.333C218.733 156.519 218.547 156.891 218.36 156.984C217.987 157.17 217.521 157.356 217.241 157.17C216.868 156.984 216.681 156.147 216.868 155.682C217.8 153.078 218.547 151.311 219.479 149.265C219.479 149.265 220.412 147.591 220.506 147.312C220.506 147.312 218.547 150.381 216.588 151.032C216.588 151.032 213.603 151.125 216.961 148.242C216.961 148.242 218.64 146.01 219.573 144.615C219.573 144.615 221.438 141.732 225.076 140.988C225.076 140.988 226.755 138.105 227.035 137.082L233.005 139.593C233.285 140.058 231.046 143.778 231.139 145.452Z" fill="#EDBC9A"/>
<path d="M236.083 136.338L227.594 114.297C225.636 108.81 220.878 105.462 215.841 103.416C213.136 102.3 210.338 101.184 207.633 100.068C198.399 110.019 186.925 100.068 186.925 100.068C185.246 100.998 183.567 102.021 181.795 102.858C177.131 105.462 171.441 107.415 168.55 112.344L155.024 135.873C155.024 135.873 156.237 144.708 159.688 147.033C159.688 147.033 160.714 141.639 167.897 142.383L166.777 136.803L178.624 124.713L180.582 145.266H212.297L214.815 124.62L224.796 136.152L220.319 144.15C227.781 141.081 231.046 146.196 231.046 146.196C231.046 146.196 234.87 141.639 236.083 136.338Z" fill="#EE384E"/>
<path d="M186.832 99.975L183.194 102.021C183.194 102.021 189.724 107.973 196.44 107.973C196.533 107.973 196.533 107.973 196.626 107.973C203.436 107.88 208.193 105.927 210.618 101.277L207.447 99.975C207.447 99.975 202.223 104.532 197.839 104.346C198.025 104.439 193.268 104.718 186.832 99.975Z" fill="#BD4149"/>
<path d="M222.557 155.031C222.557 156.333 221.531 157.356 220.225 157.356H171.441C170.135 157.356 169.109 156.333 169.109 155.031V119.598C169.109 118.296 170.135 117.273 171.441 117.273H220.225C221.531 117.273 222.557 118.296 222.557 119.598V155.031Z" fill="#25409C"/>
<path d="M169.949 120.063V139.872C169.949 148.893 170.975 156.24 172.281 156.24H219.853C221.159 156.24 222.185 148.986 222.185 139.872V120.063H169.949Z" fill="#0064B7"/>
<path d="M184.594 156.705H177.225V158.472H184.594V156.705Z" fill="#25409C"/>
<path d="M213.323 156.705H205.954V158.472H213.323V156.705Z" fill="#25409C"/>
<path d="M163.793 159.216H228.155C228.155 159.216 227.222 162.006 225.729 163.122H169.576C169.669 163.029 164.353 162.471 163.793 159.216Z" fill="#254098"/>
<path d="M164.446 132.618L150.267 128.712L136.089 132.618C136.089 132.618 131.239 156.612 150.267 161.541C169.389 156.612 164.446 132.618 164.446 132.618Z" fill="#25409A"/>
<path d="M162.487 134.385L150.267 131.037L138.048 134.385C138.048 134.385 133.85 155.217 150.267 159.402C166.777 155.124 162.487 134.385 162.487 134.385Z" fill="#FCBE42"/>
<path d="M148.589 150.939C148.309 150.939 148.123 150.846 147.936 150.66L142.153 144.615C141.78 144.243 141.78 143.685 142.153 143.313C142.526 142.941 143.086 142.941 143.459 143.313L148.589 148.614L157.077 139.779C157.45 139.407 158.01 139.407 158.383 139.779C158.756 140.151 158.756 140.709 158.383 141.081L149.242 150.66C149.055 150.846 148.776 150.939 148.589 150.939Z" fill="white"/>
</g>
<defs>
<clipPath id="clip0_1409_4158">
<rect width="233.194" height="186" fill="white" transform="translate(18)"/>
</clipPath>
</defs>
</svg>
