<svg width="270" height="186" viewBox="0 0 270 186" fill="none" xmlns="http://www.w3.org/2000/svg">
<g clip-path="url(#clip0_1409_4158)">
<path d="M211.139 73.47C211.139 73.47 209.368 72.075 209.834 69.564C210.207 67.053 208.343 65.565 207.691 64.449C206.946 63.24 207.039 61.008 207.039 61.008L207.132 60.45C207.132 60.45 208.064 52.545 201.728 52.359C201.728 52.359 198.746 52.359 196.975 53.94C196.975 53.94 192.969 53.196 192.782 56.358C192.596 58.311 193.435 58.59 194.087 58.59C194.366 56.73 194.925 55.707 195.484 55.335C196.23 57.195 197.441 58.032 199.678 58.776C202.1 59.613 202.659 61.194 202.659 61.194C203.125 60.264 204.43 60.078 205.082 60.729C205.734 61.38 205.455 62.682 204.616 63.426C203.591 64.263 202.939 63.705 202.939 63.705V68.448C202.939 68.448 202.939 68.448 202.939 68.541C202.939 69.75 203.125 71.145 204.057 72.075C205.082 73.377 205.548 77.004 205.548 79.05C205.641 81.375 210.673 83.514 212.723 80.352C214.121 78.213 211.139 73.47 211.139 73.47Z" fill="#1F1952"/>
<path d="M202.939 63.798C202.939 63.798 203.591 64.356 204.616 63.519C205.455 62.775 205.734 61.473 205.082 60.822C204.43 60.171 203.125 60.357 202.659 61.287C202.659 61.287 202.1 59.706 199.678 58.869C197.441 58.125 196.23 57.288 195.484 55.428C195.019 55.707 194.366 56.823 194.087 58.683C193.994 59.52 193.9 60.636 193.9 61.845C193.994 65.286 195.112 66.123 195.671 66.402C196.23 66.681 197.348 66.495 198.373 66.309L197.907 70.308C197.907 70.308 196.696 71.796 196.789 72.726C196.882 73.656 199.025 72.168 200.423 71.238C201.728 70.401 203.125 72.075 203.312 71.796L202.939 68.541V63.798Z" fill="#FFBF99"/>
<path d="M67.1747 171.213C104.913 190.929 166.132 190.929 203.871 171.213C241.609 151.497 241.609 119.598 203.871 99.882C166.132 80.166 104.913 80.166 67.1747 99.882C29.4366 119.598 29.4366 151.59 67.1747 171.213Z" fill="#F4F4F4"/>
<path d="M133.24 150.474L135.01 151.497C135.569 151.776 136.408 151.776 136.967 151.497L183.371 124.806C183.93 124.527 183.93 123.969 183.371 123.69L181.6 122.667C181.041 122.388 180.203 122.388 179.644 122.667L133.24 149.358C132.681 149.637 132.681 150.102 133.24 150.474Z" fill="#E0E0E0"/>
<path d="M142.557 85.374V89.931L63.5402 135.408L61.1175 136.803C60.0925 136.245 59.2539 134.757 59.2539 133.455V56.823C59.2539 56.73 59.2539 56.544 59.3471 56.451C59.4403 56.358 59.5334 56.172 59.6266 56.172L77.7037 45.756C77.89 45.663 79.1946 46.128 79.3809 46.314L79.4741 46.407C79.5673 46.5 79.6604 46.593 79.7536 46.686C79.8468 46.779 79.94 46.965 79.94 47.058L81.5241 51.801L140.135 16.926C140.321 16.833 140.694 16.833 140.88 16.926L141.998 17.577C142.091 17.67 142.185 17.763 142.278 17.856C142.371 17.949 142.371 18.135 142.371 18.228V34.224L142.557 85.374Z" fill="#033E9F"/>
<path d="M142.558 89.931L61.1182 136.803V57.381L79.8475 46.593C79.9406 46.686 80.0338 46.872 80.0338 46.965L81.6179 51.708L81.8974 52.638L142.372 17.856C142.465 17.949 142.465 18.135 142.465 18.228L142.558 89.931Z" fill="#1466B1"/>
<path d="M142.465 17.763L81.9905 52.638L81.7109 51.708L140.322 16.833C140.508 16.74 140.881 16.74 141.067 16.833L142.185 17.484C142.278 17.577 142.371 17.67 142.465 17.763Z" fill="#455A64"/>
<path d="M86.1834 104.532C85.7175 104.253 85.3447 103.602 85.3447 103.044V27.528C85.3447 26.97 85.7174 26.226 86.2765 25.947L131.003 0.185996C131.469 -0.0930044 132.308 -0.0930044 132.774 0.185996C133.24 0.464996 133.612 1.116 133.612 1.674V77.19C133.612 77.748 133.24 78.492 132.68 78.771L87.9538 104.532C87.3947 104.811 86.6493 104.811 86.1834 104.532Z" fill="#FAFAFA"/>
<path d="M87.8605 104.532L132.587 78.771C133.053 78.492 133.519 77.748 133.519 77.19V1.67398C133.519 1.11598 133.146 0.836984 132.587 1.11598L87.8605 26.877C87.3946 27.156 86.9287 27.9 86.9287 28.458V103.974C87.0219 104.532 87.3946 104.811 87.8605 104.532Z" fill="#F0F0F0"/>
<path d="M92.7996 29.946L126.531 10.509C126.997 10.23 127.37 10.416 127.37 10.974V11.253C127.37 11.718 126.997 12.369 126.531 12.648L92.7996 32.085C92.3337 32.364 91.9609 32.178 91.9609 31.62V31.341C91.9609 30.783 92.3337 30.132 92.7996 29.946Z" fill="#E0E0E0"/>
<path d="M92.7996 35.247L126.531 15.81C126.997 15.531 127.37 15.717 127.37 16.275V16.554C127.37 17.019 126.997 17.67 126.531 17.949L92.7996 37.386C92.3337 37.665 91.9609 37.479 91.9609 36.921V36.642C91.9609 36.177 92.3337 35.526 92.7996 35.247Z" fill="#E0E0E0"/>
<path d="M92.7996 40.641L126.531 21.204C126.997 20.925 127.37 21.111 127.37 21.669V21.948C127.37 22.413 126.997 23.064 126.531 23.343L92.7996 42.78C92.3337 43.059 91.9609 42.873 91.9609 42.315V42.036C91.9609 41.478 92.3337 40.827 92.7996 40.641Z" fill="#E0E0E0"/>
<path d="M92.7996 45.942L126.531 26.505C126.997 26.226 127.37 26.412 127.37 26.97V27.249C127.37 27.714 126.997 28.365 126.531 28.644L92.7996 48.081C92.3337 48.36 91.9609 48.174 91.9609 47.616V47.337C91.9609 46.872 92.3337 46.221 92.7996 45.942Z" fill="#E0E0E0"/>
<path d="M92.7996 51.336L126.531 31.899C126.997 31.62 127.37 31.806 127.37 32.364V32.643C127.37 33.108 126.997 33.759 126.531 34.038L92.7996 53.475C92.3337 53.754 91.9609 53.568 91.9609 53.01V52.731C91.9609 52.173 92.3337 51.615 92.7996 51.336Z" fill="#E0E0E0"/>
<path d="M92.7996 56.73L126.531 37.293C126.997 37.014 127.37 37.2 127.37 37.758V38.037C127.37 38.502 126.997 39.153 126.531 39.432L92.7996 58.869C92.3337 59.148 91.9609 58.962 91.9609 58.404V58.125C91.9609 57.567 92.3337 57.009 92.7996 56.73Z" fill="#E0E0E0"/>
<path d="M92.7996 62.031L126.531 42.594C126.997 42.315 127.37 42.501 127.37 43.059V43.338C127.37 43.803 126.997 44.454 126.531 44.733L92.7996 64.17C92.3337 64.449 91.9609 64.263 91.9609 63.705V63.426C91.9609 62.961 92.3337 62.31 92.7996 62.031Z" fill="#E0E0E0"/>
<path d="M92.7996 67.425L126.531 47.988C126.997 47.709 127.37 47.895 127.37 48.453V48.732C127.37 49.197 126.997 49.848 126.531 50.127L92.7996 69.564C92.3337 69.843 91.9609 69.657 91.9609 69.099V68.82C91.9609 68.262 92.3337 67.704 92.7996 67.425Z" fill="#E0E0E0"/>
<path d="M92.7996 72.726L126.531 53.289C126.997 53.01 127.37 53.196 127.37 53.754V54.033C127.37 54.498 126.997 55.149 126.531 55.428L92.7996 74.865C92.3337 75.144 91.9609 74.958 91.9609 74.4V74.121C91.9609 73.656 92.3337 73.005 92.7996 72.726Z" fill="#E0E0E0"/>
<path d="M92.7996 78.12L126.531 58.683C126.997 58.404 127.37 58.59 127.37 59.148V59.427C127.37 59.892 126.997 60.543 126.531 60.822L92.7996 80.259C92.3337 80.538 91.9609 80.352 91.9609 79.794V79.515C91.9609 78.957 92.3337 78.399 92.7996 78.12Z" fill="#E0E0E0"/>
<path d="M92.7996 83.514L126.531 64.077C126.997 63.798 127.37 63.984 127.37 64.542V64.821C127.37 65.286 126.997 65.937 126.531 66.216L92.7996 85.653C92.3337 85.932 91.9609 85.746 91.9609 85.188V84.909C91.9609 84.351 92.3337 83.7 92.7996 83.514Z" fill="#E0E0E0"/>
<path d="M92.7996 88.815L126.531 69.378C126.997 69.099 127.37 69.285 127.37 69.843V70.122C127.37 70.587 126.997 71.238 126.531 71.517L92.7996 90.954C92.3337 91.233 91.9609 91.047 91.9609 90.489V90.21C91.9609 89.745 92.3337 89.094 92.7996 88.815Z" fill="#E0E0E0"/>
<path d="M92.7996 94.209L126.531 74.772C126.997 74.493 127.37 74.679 127.37 75.237V75.516C127.37 75.981 126.997 76.632 126.531 76.911L92.7996 96.348C92.3337 96.627 91.9609 96.441 91.9609 95.883V95.604C91.9609 95.046 92.3337 94.488 92.7996 94.209Z" fill="#E0E0E0"/>
<path d="M87.7674 104.532C87.3015 104.718 86.5561 104.718 86.1834 104.532C85.7175 104.253 85.3447 103.602 85.3447 103.044V27.528C85.3447 27.249 85.4379 26.97 85.6243 26.598L87.3015 27.528C87.1152 27.9 87.022 28.179 87.022 28.458V103.974C87.022 104.532 87.3015 104.718 87.7674 104.532Z" fill="#E0E0E0"/>
<path d="M92.5203 108.066C92.0544 107.787 91.6816 107.136 91.6816 106.578V31.062C91.6816 30.504 92.0544 29.76 92.6134 29.481L137.34 3.71999C137.806 3.44099 138.645 3.44099 139.111 3.71999C139.576 3.99899 139.949 4.64999 139.949 5.20799V80.724C139.949 81.282 139.576 82.026 139.017 82.305L94.2907 108.066C93.7316 108.345 92.9862 108.345 92.5203 108.066Z" fill="#FAFAFA"/>
<path d="M94.1974 108.066L138.924 82.305C139.39 82.026 139.856 81.282 139.856 80.724V5.20798C139.856 4.64998 139.483 4.37098 138.924 4.64998L94.1974 30.411C93.7315 30.69 93.2656 31.434 93.2656 31.992V107.508C93.3588 108.159 93.7315 108.345 94.1974 108.066Z" fill="#F0F0F0"/>
<path d="M99.1365 33.48L132.868 14.043C133.334 13.764 133.706 13.95 133.706 14.508V14.787C133.706 15.252 133.334 15.903 132.868 16.182L99.1365 35.619C98.6706 35.898 98.2979 35.712 98.2979 35.154V34.875C98.2979 34.41 98.6706 33.759 99.1365 33.48Z" fill="#DBE5F4"/>
<path d="M99.1365 38.874L132.868 19.437C133.334 19.158 133.706 19.344 133.706 19.902V20.181C133.706 20.646 133.334 21.297 132.868 21.576L99.1365 41.013C98.6706 41.292 98.2979 41.106 98.2979 40.548V40.269C98.2979 39.711 98.6706 39.06 99.1365 38.874Z" fill="#DBE5F4"/>
<path d="M99.1365 44.175L132.868 24.738C133.334 24.459 133.706 24.645 133.706 25.203V25.482C133.706 25.947 133.334 26.598 132.868 26.877L99.1365 46.314C98.6706 46.593 98.2979 46.407 98.2979 45.849V45.57C98.2979 45.105 98.6706 44.454 99.1365 44.175Z" fill="#DBE5F4"/>
<path d="M99.1365 49.569L132.868 30.132C133.334 29.853 133.706 30.039 133.706 30.597V30.876C133.706 31.341 133.334 31.992 132.868 32.271L99.1365 51.708C98.6706 51.987 98.2979 51.801 98.2979 51.243V50.964C98.2979 50.406 98.6706 49.848 99.1365 49.569Z" fill="#DBE5F4"/>
<path d="M99.1365 54.87L132.868 35.433C133.334 35.154 133.706 35.34 133.706 35.898V36.27C133.706 36.735 133.334 37.386 132.868 37.665L99.1365 57.009C98.6706 57.288 98.2979 57.102 98.2979 56.544V56.265C98.2979 55.8 98.6706 55.149 99.1365 54.87Z" fill="#DBE5F4"/>
<path d="M99.1365 60.264L132.868 40.827C133.334 40.548 133.706 40.734 133.706 41.292V41.571C133.706 42.036 133.334 42.687 132.868 42.966L99.1365 62.403C98.6706 62.682 98.2979 62.496 98.2979 61.938V61.659C98.2979 61.194 98.6706 60.543 99.1365 60.264Z" fill="#E0E0E0"/>
<path d="M99.1365 65.658L132.868 46.221C133.334 45.942 133.706 46.128 133.706 46.686V46.965C133.706 47.43 133.334 48.081 132.868 48.36L99.1365 67.797C98.6706 68.076 98.2979 67.89 98.2979 67.332V67.053C98.2979 66.495 98.6706 65.937 99.1365 65.658Z" fill="#E0E0E0"/>
<path d="M99.1365 70.959L132.868 51.522C133.334 51.243 133.706 51.429 133.706 51.987V52.266C133.706 52.731 133.334 53.382 132.868 53.661L99.1365 73.098C98.6706 73.377 98.2979 73.191 98.2979 72.633V72.354C98.2979 71.889 98.6706 71.238 99.1365 70.959Z" fill="#E0E0E0"/>
<path d="M99.1365 76.353L132.868 56.916C133.334 56.637 133.706 56.823 133.706 57.381V57.66C133.706 58.125 133.334 58.776 132.868 59.055L99.1365 78.492C98.6706 78.771 98.2979 78.585 98.2979 78.027V77.748C98.2979 77.19 98.6706 76.632 99.1365 76.353Z" fill="#E0E0E0"/>
<path d="M99.1365 81.654L132.868 62.217C133.334 61.938 133.706 62.124 133.706 62.682V62.961C133.706 63.426 133.334 64.077 132.868 64.356L99.1365 83.886C98.6706 84.165 98.2979 83.979 98.2979 83.421V83.142C98.2979 82.584 98.6706 81.933 99.1365 81.654Z" fill="#E0E0E0"/>
<path d="M99.1365 87.048L132.868 67.611C133.334 67.332 133.706 67.518 133.706 68.076V68.355C133.706 68.82 133.334 69.471 132.868 69.75L99.1365 89.187C98.6706 89.466 98.2979 89.28 98.2979 88.722V88.443C98.2979 87.978 98.6706 87.327 99.1365 87.048Z" fill="#E0E0E0"/>
<path d="M99.1365 92.442L132.868 73.005C133.334 72.726 133.706 72.912 133.706 73.47V73.749C133.706 74.214 133.334 74.865 132.868 75.144L99.1365 94.581C98.6706 94.86 98.2979 94.674 98.2979 94.116V93.837C98.2979 93.279 98.6706 92.721 99.1365 92.442Z" fill="#E0E0E0"/>
<path d="M99.1365 97.743L132.868 78.306C133.334 78.027 133.706 78.213 133.706 78.771V79.05C133.706 79.515 133.334 80.166 132.868 80.445L99.1365 99.882C98.6706 100.161 98.2979 99.975 98.2979 99.417V99.138C98.2979 98.673 98.6706 98.022 99.1365 97.743Z" fill="#E0E0E0"/>
<path d="M94.1043 108.159C93.6384 108.345 92.893 108.345 92.5203 108.159C92.0544 107.88 91.6816 107.229 91.6816 106.671V31.062C91.6816 30.783 91.7748 30.504 91.9612 30.132L93.6384 31.062C93.4521 31.341 93.3589 31.62 93.3589 31.899V107.415C93.3589 108.066 93.6384 108.345 94.1043 108.159Z" fill="#E0E0E0"/>
<path d="M159.237 27.156L146.192 83.607L144.981 88.815C144.701 90.024 143.583 91.512 142.465 92.163L65.0317 136.803C64.4727 137.082 63.8204 137.268 63.1681 137.268C62.4227 137.268 61.6772 137.175 61.1182 136.803L61.4909 135.036C61.4909 134.943 61.4909 134.943 61.4909 134.85L61.9568 132.99L63.8204 124.806L75.8407 72.912C75.8407 72.819 75.8407 72.819 75.9339 72.726C75.9339 72.633 76.0271 72.633 76.0271 72.54C76.1202 72.447 76.2134 72.354 76.3066 72.261L142.465 34.131L156.908 25.761C157.094 25.668 157.467 25.668 157.746 25.761L158.771 26.412C159.144 26.598 159.237 26.877 159.237 27.156Z" fill="#1C4599"/>
<path d="M159.237 26.97C159.237 26.784 159.144 26.784 158.957 26.877L78.356 73.377C78.2629 73.47 78.1697 73.563 78.0765 73.656L76.2129 72.54C76.3061 72.447 76.3993 72.354 76.4924 72.261L157.094 25.761C157.28 25.668 157.653 25.668 157.932 25.761L158.957 26.412C159.05 26.598 159.237 26.784 159.237 26.97Z" fill="#033E9F"/>
<path d="M77.9838 73.656C77.8907 73.749 77.8907 73.842 77.8907 73.842C77.8907 73.935 77.8907 73.935 77.7975 74.028L66.3363 123.69L63.9136 134.106L63.634 135.408L63.1681 137.268C62.4227 137.268 61.6772 137.175 61.1182 136.803L61.4909 135.036C61.4909 134.943 61.4909 134.943 61.4909 134.85L61.9568 132.99L63.8204 124.806L75.8407 72.912C75.8407 72.819 75.8407 72.819 75.9339 72.726C75.9339 72.633 76.0271 72.633 76.0271 72.54L77.9838 73.656Z" fill="#033E9F"/>
<path d="M64.0061 132.06C64.1925 132.153 64.2857 132.432 64.2857 132.618L63.6334 135.408L63.2607 136.803C63.1675 137.082 62.9811 137.175 62.7016 137.175C62.1425 137.175 61.5834 136.989 61.1175 136.71C60.0925 136.152 59.2539 134.664 59.2539 133.362V130.107C59.2539 129.735 59.7198 129.456 59.9994 129.642L60.838 130.107C61.0243 130.2 61.1175 130.386 61.1175 130.572V132.153C61.1175 132.804 61.9561 132.897 62.1425 132.246L62.2357 131.688C62.3289 131.316 62.7016 131.223 62.9811 131.316L64.0061 132.06Z" fill="#263238"/>
<path d="M81.0587 119.97L76.6793 117.459C74.4429 116.25 71.4611 116.436 68.1066 118.296C65.0317 120.063 62.1431 123.039 59.9999 126.573C57.4841 130.572 55.9932 135.129 55.9932 139.314C55.9932 143.127 57.3909 145.917 59.534 147.126L64.0067 149.637C66.243 151.032 69.318 150.939 72.7657 148.893C79.4747 144.987 84.8791 135.687 84.8791 127.875C84.8791 123.969 83.4814 121.179 81.0587 119.97Z" fill="#FABD41"/>
<path opacity="0.1" d="M63.9135 149.637L59.534 147.126C57.3909 145.824 55.9932 143.127 55.9932 139.314C55.9932 135.222 57.5772 130.572 59.9999 126.573L64.659 129.27C62.1431 133.269 60.6522 137.826 60.6522 142.011C60.6522 145.638 61.8635 148.242 63.9135 149.637Z" fill="black"/>
<path opacity="0.3" d="M80.9656 119.877C78.8225 118.854 75.9339 119.133 72.7657 120.9C69.6908 122.667 66.8022 125.736 64.659 129.177L60 126.48C62.1432 123.039 64.9386 120.063 68.1067 118.203C71.4612 116.25 74.443 116.064 76.6793 117.366L80.9656 119.877Z" fill="white"/>
<path d="M74.4432 136.152V140.43C74.4432 140.616 74.35 140.802 74.2569 141.081C74.1637 141.267 74.0705 141.453 73.8841 141.546L71.5546 142.848C71.4614 142.941 71.2751 142.941 71.1819 142.848C71.0887 142.755 70.9955 142.569 70.9955 142.383V138.105L68.1069 139.779C68.0138 139.872 67.8274 139.872 67.7342 139.779C67.641 139.686 67.5479 139.5 67.5479 139.314V136.431C67.5479 136.245 67.641 136.059 67.7342 135.78C67.8274 135.594 67.9206 135.408 68.1069 135.315L70.9955 133.641V129.363C70.9955 129.177 71.0887 128.991 71.1819 128.712C71.2751 128.526 71.3683 128.34 71.5546 128.247L73.8841 126.945C73.9773 126.852 74.1637 126.852 74.2569 126.945C74.35 127.038 74.4432 127.224 74.4432 127.41V131.688L77.3318 130.014C77.425 129.921 77.6114 129.921 77.7045 130.014C77.7977 130.107 77.8909 130.293 77.8909 130.479V133.362C77.8909 133.548 77.7977 133.734 77.7045 134.013C77.6114 134.199 77.5182 134.385 77.3318 134.478L74.4432 136.152Z" fill="white"/>
<path d="M192.13 70.215L186.818 70.029C186.446 69.75 180.855 63.426 180.855 63.426C180.855 63.426 178.805 66.588 178.805 66.774C178.805 66.96 184.302 72.912 184.861 73.47C185.141 73.842 185.421 74.028 186.166 74.121C187.657 74.214 193.061 74.586 193.061 74.586L192.13 70.215Z" fill="#FFBF99"/>
<path d="M135.011 150.381C134.545 150.102 134.172 149.451 134.172 148.893V77.841C134.172 77.283 134.545 76.539 135.104 76.26L179.83 50.499C180.296 50.22 181.135 50.22 181.601 50.499C182.067 50.778 182.439 51.429 182.439 51.987V123.039C182.439 123.597 182.067 124.341 181.508 124.62L136.781 150.381C136.222 150.66 135.476 150.66 135.011 150.381Z" fill="#1466B1"/>
<path d="M136.501 150.474C136.501 150.474 136.408 150.474 136.408 150.567H136.315C136.222 150.567 136.222 150.567 136.129 150.567C136.035 150.567 135.942 150.567 135.849 150.567C135.57 150.567 135.29 150.474 135.011 150.381C134.824 150.288 134.638 150.102 134.545 149.916C134.358 149.637 134.172 149.172 134.172 148.893V77.841C134.172 77.655 134.172 77.562 134.265 77.376C134.265 77.283 134.358 77.19 134.358 77.19C134.358 77.097 134.451 77.004 134.451 77.004L136.129 77.934C136.129 77.934 136.129 77.934 136.129 78.027C136.035 78.306 135.942 78.585 135.942 78.864V149.916C135.942 150.009 135.942 150.102 135.942 150.195C135.942 150.288 136.035 150.381 136.129 150.474C136.222 150.474 136.222 150.567 136.315 150.567H136.408C136.408 150.474 136.408 150.474 136.501 150.474Z" fill="#033E9F"/>
<path d="M182.346 51.894C182.253 51.429 181.88 51.243 181.507 51.522L136.781 77.283C136.501 77.469 136.315 77.655 136.128 77.934L134.451 77.004C134.638 76.725 134.824 76.446 135.103 76.353L179.83 50.592C180.296 50.313 181.135 50.313 181.601 50.592C181.88 50.778 182.253 51.336 182.346 51.894Z" fill="#033E9F"/>
<path d="M141.626 80.259L175.357 60.822C175.823 60.543 176.196 60.729 176.196 61.287V61.566C176.196 62.031 175.823 62.682 175.357 62.961L141.626 82.398C141.16 82.677 140.787 82.491 140.787 81.933V81.654C140.88 81.096 141.16 80.538 141.626 80.259Z" fill="#FAFAFA"/>
<path d="M141.626 86.769L175.357 67.332C175.823 67.053 176.196 67.239 176.196 67.797V68.076C176.196 68.541 175.823 69.192 175.357 69.471L141.626 88.908C141.16 89.187 140.787 89.001 140.787 88.443V88.164C140.88 87.699 141.16 87.048 141.626 86.769Z" fill="#FAFAFA"/>
<path d="M141.626 93.3719L175.357 73.9349C175.823 73.6559 176.196 73.8419 176.196 74.3999V74.6789C176.196 75.1439 175.823 75.7949 175.357 76.0739L141.626 95.5109C141.16 95.7899 140.787 95.6039 140.787 95.0459V94.7669C140.88 94.2089 141.16 93.5579 141.626 93.3719Z" fill="#FAFAFA"/>
<path d="M141.626 99.882L175.357 80.445C175.823 80.166 176.196 80.352 176.196 80.91V81.189C176.196 81.654 175.823 82.305 175.357 82.584L141.626 102.021C141.16 102.3 140.787 102.114 140.787 101.556V101.277C140.88 100.719 141.16 100.161 141.626 99.882Z" fill="#FAFAFA"/>
<path d="M141.626 106.485L175.357 87.048C175.823 86.769 176.196 86.955 176.196 87.513V87.792C176.196 88.257 175.823 88.908 175.357 89.187L141.626 108.624C141.16 108.903 140.787 108.717 140.787 108.159V107.88C140.88 107.322 141.16 106.671 141.626 106.485Z" fill="#FAFAFA"/>
<path d="M141.626 112.995L175.357 93.558C175.823 93.279 176.196 93.465 176.196 94.023V94.302C176.196 94.767 175.823 95.418 175.357 95.697L141.626 115.134C141.16 115.413 140.787 115.227 140.787 114.669V114.39C140.88 113.832 141.16 113.274 141.626 112.995Z" fill="#FAFAFA"/>
<path d="M141.626 119.505L175.357 100.068C175.823 99.7889 176.196 99.9749 176.196 100.533V100.812C176.196 101.277 175.823 101.928 175.357 102.207L141.626 121.644C141.16 121.923 140.787 121.737 140.787 121.179V120.9C140.88 120.435 141.16 119.784 141.626 119.505Z" fill="#FAFAFA"/>
<path d="M141.626 126.108L175.357 106.671C175.823 106.392 176.196 106.578 176.196 107.136V107.415C176.196 107.88 175.823 108.531 175.357 108.81L141.626 128.247C141.16 128.526 140.787 128.34 140.787 127.782V127.503C140.88 126.945 141.16 126.294 141.626 126.108Z" fill="#FAFAFA"/>
<path d="M141.626 132.618L175.357 113.181C175.823 112.902 176.196 113.088 176.196 113.646V113.925C176.196 114.39 175.823 115.041 175.357 115.32L141.626 134.757C141.16 135.036 140.787 134.85 140.787 134.292V134.013C140.88 133.455 141.16 132.897 141.626 132.618Z" fill="#FAFAFA"/>
<path d="M141.626 139.221L175.357 119.784C175.823 119.505 176.196 119.691 176.196 120.249V120.528C176.196 120.993 175.823 121.644 175.357 121.923L141.626 141.36C141.16 141.639 140.787 141.453 140.787 140.895V140.616C140.88 140.058 141.16 139.407 141.626 139.221Z" fill="#FAFAFA"/>
<path d="M199.678 75.33L190.826 74.958C190.08 73.842 190.08 71.052 190.826 70.122L200.61 70.401L199.678 75.33Z" fill="#0064B7"/>
<path d="M194.273 130.107C194.367 131.037 194.367 131.316 194.367 131.874C194.367 132.432 194.367 135.315 194.367 135.315H197.442V133.269C197.442 132.339 197.535 131.409 197.628 130.479L194.273 130.107Z" fill="#DEB997"/>
<path d="M194.367 133.827V133.362C194.273 134.013 192.41 136.524 191.198 137.547C190.267 138.384 188.962 139.407 188.589 140.43C188.217 141.453 190.173 141.825 191.385 141.732C192.876 141.546 193.994 140.709 194.46 140.151C195.205 139.221 195.392 138.663 195.764 138.198C196.137 137.733 197.814 136.71 198.001 136.152C198.094 135.873 198.001 135.129 197.814 134.571C197.628 134.013 197.535 133.455 197.348 133.455C197.348 133.548 197.348 133.827 197.348 133.827C197.162 134.106 196.51 134.292 195.857 134.292C195.392 134.292 194.367 134.199 194.367 133.827Z" fill="#242155"/>
<path d="M197.349 133.734C197.162 134.013 196.51 134.199 195.858 134.199C195.392 134.199 194.367 134.106 194.367 133.827V133.362C194.274 134.013 192.41 136.524 191.199 137.547C191.012 137.733 190.733 138.012 190.453 138.198C189.987 138.756 190.08 139.221 191.292 139.314C192.503 139.407 193.528 138.663 194.46 137.547C195.299 136.617 197.349 133.734 197.349 133.734Z" fill="#DEB997"/>
<path d="M203.498 135.222C203.591 135.966 203.591 136.71 203.591 137.082V140.523H206.666V138.477C206.666 137.547 206.759 136.617 206.853 135.687L203.498 135.222Z" fill="#DEB997"/>
<path d="M203.591 139.035V138.57C203.498 139.221 201.634 141.732 200.423 142.755C199.491 143.592 198.187 144.615 197.814 145.638C197.441 146.661 199.398 147.033 200.609 146.94C202.1 146.754 203.218 145.917 203.684 145.359C204.43 144.429 204.616 143.871 204.989 143.406C205.362 142.941 207.039 141.918 207.225 141.36C207.318 141.081 207.225 140.337 207.039 139.779C206.853 139.221 206.759 138.663 206.573 138.663C206.573 138.756 206.573 139.035 206.573 139.035C206.387 139.314 205.734 139.5 205.082 139.5C204.709 139.407 203.591 139.314 203.591 139.035Z" fill="#242155"/>
<path d="M206.666 138.942C206.48 139.221 205.827 139.407 205.175 139.407C204.709 139.407 203.684 139.314 203.684 139.035V138.57C203.591 139.221 201.727 141.732 200.516 142.755C200.33 142.941 200.05 143.22 199.771 143.406C199.305 143.964 199.398 144.429 200.609 144.522C201.821 144.615 202.846 143.871 203.777 142.755C204.616 141.825 206.666 138.942 206.666 138.942Z" fill="#DEB997"/>
<path d="M209.089 91.605C210.301 96.72 208.81 103.323 208.437 107.601L206.76 135.873C205.921 136.338 204.43 136.431 203.312 135.873C203.405 136.431 200.517 99.789 200.517 99.789L197.442 131.502C196.789 132.06 195.112 132.153 194.273 131.502L193.155 92.907L209.089 91.605Z" fill="#EE384E"/>
<path d="M209.089 91.605C207.225 94.86 196.882 95.325 193.155 92.907C193.528 88.35 194.087 85.839 193.9 84.444C192.13 78.864 192.782 77.097 192.875 75.795C193.248 73.284 195.671 71.145 197.069 70.308C197.069 70.308 198.094 70.308 198.373 70.308L202.939 70.401C202.939 70.401 207.225 70.866 207.784 71.145C205.175 74.028 207.971 76.353 207.971 76.353C207.971 76.353 207.598 86.769 209.089 91.605Z" fill="#0083F9"/>
<path d="M205.082 72.354C204.057 73.377 196.509 81.189 196.509 81.189C196.509 81.189 188.123 80.352 185.234 79.515C184.303 79.236 183.557 78.027 183.371 77.004C183.184 75.981 182.346 75.888 182.346 75.888V77.934C182.253 78.492 181.973 78.771 181.228 78.771C178.339 78.864 177.035 77.934 176.662 79.515C176.475 80.538 176.848 81.654 178.805 82.212C181.507 82.956 182.998 82.584 184.582 82.956C185.887 83.235 194.646 84.909 196.323 85.281C197.255 85.467 197.907 85.374 198.932 84.444C199.957 83.421 207.411 76.539 207.411 76.539C209.648 74.307 208.995 71.889 207.784 71.238C206.946 70.773 206.107 71.238 205.082 72.354Z" fill="#FFBF99"/>
<path d="M207.691 71.145C208.25 71.331 208.902 71.982 208.995 73.47C209.089 74.958 207.877 76.353 206.573 77.934C205.268 79.515 204.802 79.98 204.802 79.98C204.802 79.98 201.448 78.771 200.889 76.26C200.889 76.26 203.405 73.563 204.15 72.726C204.989 71.889 206.386 70.587 207.691 71.145Z" fill="#0064B7"/>
<path d="M190.36 13.299L193.528 15.159C193.528 14.973 193.528 14.88 193.528 14.694V13.764C193.528 12.09 194.646 11.439 196.137 12.276C196.696 12.648 197.255 13.113 197.628 13.764C197.814 11.718 199.491 10.974 201.448 12.09C203.591 13.299 205.269 16.275 205.269 18.786V20.181C205.269 20.832 205.175 21.39 204.989 21.762L207.598 23.25C208.344 23.715 208.996 24.831 208.996 25.761C208.996 26.691 208.344 27.063 207.598 26.598L190.36 16.647C189.614 16.182 188.962 15.066 188.962 14.136C188.869 13.206 189.521 12.927 190.36 13.299Z" fill="#DBE5F4"/>
<path d="M176.662 22.599L179.084 23.994C179.084 23.901 179.084 23.808 179.084 23.715V23.064C179.084 21.855 179.923 21.297 181.041 21.948C181.507 22.227 181.88 22.599 182.159 23.064C182.346 21.483 183.557 20.925 185.048 21.762C186.632 22.692 187.936 24.924 187.936 26.784V27.807C187.936 28.272 187.843 28.644 187.657 29.016L189.614 30.132C190.173 30.504 190.732 31.341 190.732 31.992C190.732 32.643 190.266 32.922 189.614 32.643L176.568 25.11C176.009 24.738 175.45 23.901 175.45 23.25C175.637 22.506 176.102 22.227 176.662 22.599Z" fill="#DBE5F4"/>
</g>
<defs>
<clipPath id="clip0_1409_4158">
<rect width="232.951" height="186" fill="white" transform="translate(19)"/>
</clipPath>
</defs>
</svg>
