<svg width="270" height="186" viewBox="0 0 270 186" fill="none" xmlns="http://www.w3.org/2000/svg">
<path d="M134.64 179.45C184.748 179.45 225.369 158.264 225.369 132.13C225.369 105.996 184.748 84.81 134.64 84.81C84.5311 84.81 43.9102 105.996 43.9102 132.13C43.9102 158.264 84.5311 179.45 134.64 179.45Z" fill="#F4F4F4"/>
<path d="M135.735 143.05C133.636 143.05 131.445 142.959 129.346 142.777C112.551 141.412 97.5813 134.587 90.1879 125.123L89.9141 124.759L96.6686 119.481L96.9424 119.845C103.697 128.581 119.305 134.405 135.735 134.405C137.287 134.405 138.839 134.314 140.299 134.223C150.522 133.495 159.376 130.401 164.67 125.76L159.832 120.573L176.81 119.572L175.35 137.226L170.512 131.948C163.757 137.954 153.26 141.776 140.938 142.595C139.295 143.05 137.469 143.05 135.735 143.05Z" fill="#E0E0E0"/>
<path d="M115.745 98.642V91.817L124.69 86.63V93.546L115.745 98.642Z" fill="#F0F0F0"/>
<path d="M115.745 91.817L104.609 85.356V92.272L115.745 98.642V91.817Z" fill="#E6E6E6"/>
<path d="M115.746 91.817L124.873 86.539L113.464 79.987L104.336 85.265L115.746 91.817Z" fill="#FAFAFA"/>
<path d="M115.745 91.817V93.546L124.873 88.268V86.539L115.745 91.817Z" fill="#F0F0F0"/>
<path d="M115.745 93.546L124.69 88.359V88.723L115.745 93.91V93.546Z" fill="#E6E6E6"/>
<path d="M104.336 85.265L115.746 91.817V93.546L104.336 86.903V85.265Z" fill="#E6E6E6"/>
<path d="M115.745 93.546L104.609 87.085V87.449L115.745 93.91V93.546Z" fill="#E0E0E0"/>
<path d="M118.666 92.818L121.679 91.089C121.77 90.998 121.952 91.089 121.952 91.271V93.091C121.952 93.273 121.861 93.455 121.679 93.546L118.666 95.275C118.575 95.366 118.393 95.275 118.393 95.093V93.273C118.393 93.091 118.575 92.909 118.666 92.818Z" fill="#EBEBEB"/>
<path d="M118.849 93.091L121.496 91.544C121.587 91.453 121.678 91.544 121.678 91.635V93C121.678 93.091 121.587 93.182 121.496 93.273L118.849 94.82C118.757 94.911 118.666 94.82 118.666 94.729V93.364C118.666 93.182 118.757 93.091 118.849 93.091Z" fill="#FAFAFA"/>
<path d="M115.745 90.907V84.082L124.69 78.986V85.811L115.745 90.907Z" fill="#F0F0F0"/>
<path d="M115.745 84.082L104.609 77.712V84.537L115.745 90.907V84.082Z" fill="#E6E6E6"/>
<path d="M115.746 84.082L124.873 78.804L113.464 72.252L104.336 77.53L115.746 84.082Z" fill="#F5F5F5"/>
<path d="M115.745 84.082V85.811L124.873 80.533V78.804L115.745 84.082Z" fill="#F0F0F0"/>
<path d="M115.745 85.811L124.69 80.715V81.079L115.745 86.175V85.811Z" fill="#E6E6E6"/>
<path d="M104.336 77.53L115.746 84.082V85.811L104.336 79.259V77.53Z" fill="#E6E6E6"/>
<path d="M115.745 85.811L104.609 79.35V79.805L115.745 86.175V85.811Z" fill="#E0E0E0"/>
<path d="M118.666 85.174L121.679 83.445C121.77 83.354 121.952 83.445 121.952 83.627V85.447C121.952 85.629 121.861 85.811 121.679 85.902L118.666 87.631C118.575 87.722 118.393 87.631 118.393 87.449V85.629C118.393 85.356 118.575 85.174 118.666 85.174Z" fill="#EBEBEB"/>
<path d="M118.849 85.356L121.496 83.809C121.587 83.718 121.678 83.809 121.678 83.9V85.265C121.678 85.356 121.587 85.447 121.496 85.538L118.849 87.085C118.757 87.176 118.666 87.085 118.666 86.994V85.629C118.666 85.538 118.757 85.356 118.849 85.356Z" fill="#FAFAFA"/>
<path d="M124.143 86.084L115.745 90.907L105.066 84.81L104.792 84.992L115.745 91.18L124.417 86.266L124.143 86.084Z" fill="#E0E0E0"/>
<path opacity="0.5" d="M124.143 86.084L115.745 90.907L105.066 84.81L104.792 84.992L115.745 91.18L124.417 86.266L124.143 86.084Z" fill="#E0E0E0"/>
<path d="M154.447 98.642V91.817L145.502 86.63V93.546L154.447 98.642Z" fill="#F0F0F0"/>
<path d="M154.447 91.817L165.583 85.356V92.272L154.447 98.642V91.817Z" fill="#E6E6E6"/>
<path d="M154.447 91.817L145.319 86.539L156.729 79.987L165.857 85.265L154.447 91.817Z" fill="#FAFAFA"/>
<path d="M154.447 91.817V93.546L145.319 88.268V86.539L154.447 91.817Z" fill="#F0F0F0"/>
<path d="M154.447 93.546L145.502 88.359V88.723L154.447 93.91V93.546Z" fill="#E6E6E6"/>
<path d="M165.857 85.265L154.447 91.817V93.546L165.857 86.903V85.265Z" fill="#E6E6E6"/>
<path d="M154.447 93.546L165.583 87.085V87.449L154.447 93.91V93.546Z" fill="#E0E0E0"/>
<path d="M151.526 92.818L148.514 91.089C148.423 90.998 148.24 91.089 148.24 91.271V93.091C148.24 93.273 148.332 93.455 148.514 93.546L151.526 95.275C151.617 95.366 151.8 95.275 151.8 95.093V93.273C151.8 93.091 151.617 92.909 151.526 92.818Z" fill="#EBEBEB"/>
<path d="M151.343 93.091L148.696 91.544C148.605 91.453 148.514 91.544 148.514 91.635V93C148.514 93.091 148.605 93.182 148.696 93.273L151.343 94.82C151.435 94.911 151.526 94.82 151.526 94.729V93.364C151.526 93.182 151.435 93.091 151.343 93.091Z" fill="#FAFAFA"/>
<path d="M154.447 90.907V84.082L145.502 78.986V85.811L154.447 90.907Z" fill="#F0F0F0"/>
<path d="M154.447 84.082L165.583 77.712V84.537L154.447 90.907V84.082Z" fill="#E6E6E6"/>
<path d="M154.447 84.082L145.319 78.804L156.729 72.252L165.857 77.53L154.447 84.082Z" fill="#F5F5F5"/>
<path d="M154.447 84.082V85.811L145.319 80.533V78.804L154.447 84.082Z" fill="#F0F0F0"/>
<path d="M154.447 85.811L145.502 80.715V81.079L154.447 86.175V85.811Z" fill="#E6E6E6"/>
<path d="M165.857 77.53L154.447 84.082V85.811L165.857 79.259V77.53Z" fill="#E6E6E6"/>
<path d="M154.447 85.811L165.583 79.35V79.805L154.447 86.175V85.811Z" fill="#E0E0E0"/>
<path d="M151.526 85.174L148.514 83.445C148.423 83.354 148.24 83.445 148.24 83.627V85.447C148.24 85.629 148.332 85.811 148.514 85.902L151.526 87.631C151.617 87.722 151.8 87.631 151.8 87.449V85.629C151.8 85.356 151.617 85.174 151.526 85.174Z" fill="#EBEBEB"/>
<path d="M151.343 85.356L148.696 83.809C148.605 83.718 148.514 83.809 148.514 83.9V85.265C148.514 85.356 148.605 85.447 148.696 85.538L151.343 87.085C151.435 87.176 151.526 87.085 151.526 86.994V85.629C151.526 85.538 151.435 85.356 151.343 85.356Z" fill="#FAFAFA"/>
<path d="M146.05 86.084L154.448 90.907L165.127 84.81L165.401 84.992L154.448 91.18L145.776 86.266L146.05 86.084Z" fill="#E0E0E0"/>
<path opacity="0.5" d="M146.05 86.084L154.448 90.907L165.127 84.81L165.401 84.992L154.448 91.18L145.776 86.266L146.05 86.084Z" fill="#E0E0E0"/>
<path d="M214.233 127.489C214.872 127.762 215.694 127.853 216.15 127.58C216.607 127.307 217.154 126.488 217.246 125.76L225.643 82.262C225.734 81.898 225.552 81.352 225.369 80.988L223.726 81.989C223.909 82.353 224.091 82.899 224 83.263L215.603 126.761C215.329 127.398 214.781 127.671 214.233 127.489Z" fill="#3864DC"/>
<path d="M170.421 50.139C169.782 50.503 169.234 50.867 169.234 50.867C169.508 50.776 169.782 50.776 170.147 50.958L222.997 81.352C223.27 81.534 223.544 81.807 223.636 82.08L225.37 81.079C225.37 80.988 225.279 80.897 225.279 80.897C225.187 80.806 225.187 80.715 225.096 80.715C225.005 80.624 224.822 80.533 224.731 80.442L171.881 50.048C171.79 49.957 171.699 49.957 171.608 49.866C171.608 49.866 171.608 49.866 171.516 49.866C171.425 49.866 171.425 49.866 171.334 49.866C171.06 49.684 170.695 49.957 170.421 50.139Z" fill="#37474F"/>
<path d="M170.421 50.139C169.782 50.503 169.234 50.867 169.234 50.867C169.508 50.776 169.782 50.776 170.147 50.958L222.997 81.352C223.27 81.534 223.544 81.807 223.636 82.08L225.37 81.079C225.37 80.988 225.279 80.897 225.279 80.897C225.187 80.806 225.187 80.715 225.096 80.715C225.005 80.624 224.822 80.533 224.731 80.442L171.881 50.048C171.79 49.957 171.699 49.957 171.608 49.866C171.608 49.866 171.608 49.866 171.516 49.866C171.425 49.866 171.425 49.866 171.334 49.866C171.06 49.684 170.695 49.957 170.421 50.139Z" fill="#1F447F"/>
<path d="M215.512 126.761L223.909 83.263C224.092 82.535 223.635 81.716 222.997 81.352L170.147 50.958C169.508 50.594 168.869 50.867 168.778 51.595L160.38 95.093C160.198 95.821 160.654 96.64 161.293 97.004L214.143 127.398C214.69 127.762 215.329 127.489 215.512 126.761Z" fill="#27DEBF"/>
<path d="M215.512 126.761L223.909 83.263C224.092 82.535 223.635 81.716 222.997 81.352L170.147 50.958C169.508 50.594 168.869 50.867 168.778 51.595L160.38 95.093C160.198 95.821 160.654 96.64 161.293 97.004L214.143 127.398C214.69 127.762 215.329 127.489 215.512 126.761Z" fill="#37474F"/>
<path d="M215.512 126.761L223.909 83.263C224.092 82.535 223.635 81.716 222.997 81.352L170.147 50.958C169.508 50.594 168.869 50.867 168.778 51.595L160.38 95.093C160.198 95.821 160.654 96.64 161.293 97.004L214.143 127.398C214.69 127.762 215.329 127.489 215.512 126.761Z" fill="#30559E"/>
<path d="M175.441 95.184L211.313 115.841L213.503 117.115C213.503 117.115 213.594 117.115 213.594 117.206C213.686 117.206 213.686 117.297 213.777 117.297C213.868 117.297 213.96 117.388 213.96 117.388C214.051 117.388 214.051 117.388 214.142 117.388C214.233 117.388 214.233 117.388 214.325 117.388C214.507 117.388 214.781 117.388 214.872 117.297C215.237 117.115 215.603 116.478 215.694 116.023L221.718 84.719C221.718 84.628 221.718 84.537 221.718 84.537C221.718 84.446 221.718 84.446 221.718 84.355C221.718 84.264 221.718 84.173 221.627 84.082C221.627 83.991 221.536 83.9 221.536 83.809C221.536 83.718 221.444 83.718 221.444 83.627C221.444 83.536 221.353 83.536 221.353 83.445L221.262 83.354C221.262 83.354 221.17 83.263 221.079 83.263L183.017 61.332C183.017 61.332 182.925 61.332 182.925 61.241C182.925 61.241 182.834 61.241 182.834 61.15C182.834 61.15 182.834 61.15 182.743 61.15C182.651 61.15 182.651 61.15 182.56 61.15C182.286 61.15 182.104 61.332 181.921 61.423C181.465 61.696 181.1 61.878 181.1 61.878C181.008 61.878 181.008 61.969 180.917 61.969C180.826 62.06 180.826 62.151 180.735 62.242V62.333L174.71 93.637C174.619 94.274 174.984 94.911 175.441 95.184Z" fill="#27DEBF"/>
<path d="M175.441 95.184L211.313 115.841L213.503 117.115C213.503 117.115 213.594 117.115 213.594 117.206C213.686 117.206 213.686 117.297 213.777 117.297C213.868 117.297 213.96 117.388 213.96 117.388C214.051 117.388 214.051 117.388 214.142 117.388C214.233 117.388 214.233 117.388 214.325 117.388C214.507 117.388 214.781 117.388 214.872 117.297C215.237 117.115 215.603 116.478 215.694 116.023L221.718 84.719C221.718 84.628 221.718 84.537 221.718 84.537C221.718 84.446 221.718 84.446 221.718 84.355C221.718 84.264 221.718 84.173 221.627 84.082C221.627 83.991 221.536 83.9 221.536 83.809C221.536 83.718 221.444 83.718 221.444 83.627C221.444 83.536 221.353 83.536 221.353 83.445L221.262 83.354C221.262 83.354 221.17 83.263 221.079 83.263L183.017 61.332C183.017 61.332 182.925 61.332 182.925 61.241C182.925 61.241 182.834 61.241 182.834 61.15C182.834 61.15 182.834 61.15 182.743 61.15C182.651 61.15 182.651 61.15 182.56 61.15C182.286 61.15 182.104 61.332 181.921 61.423C181.465 61.696 181.1 61.878 181.1 61.878C181.008 61.878 181.008 61.969 180.917 61.969C180.826 62.06 180.826 62.151 180.735 62.242V62.333L174.71 93.637C174.619 94.274 174.984 94.911 175.441 95.184Z" fill="#27DEBF"/>
<path d="M213.504 117.115C213.96 117.297 214.508 117.388 214.873 117.206C215.238 117.024 215.603 116.387 215.695 115.932L221.719 84.628C221.81 84.355 221.719 83.991 221.536 83.718L220.258 84.446C220.441 84.719 220.441 85.083 220.441 85.356L214.417 116.66C214.325 117.115 213.96 117.297 213.504 117.115Z" fill="#E0E0E0"/>
<path d="M182.013 61.514C181.557 61.787 181.191 61.969 181.191 61.969C181.374 61.878 181.557 61.878 181.83 62.06L219.802 83.9C219.984 83.991 220.167 84.173 220.258 84.446L221.536 83.718C221.536 83.627 221.445 83.627 221.445 83.536C221.445 83.445 221.353 83.445 221.353 83.354C221.262 83.263 221.171 83.172 221.08 83.172L183.017 61.241C182.926 61.241 182.926 61.15 182.834 61.15C182.834 61.15 182.834 61.15 182.743 61.15C182.652 61.15 182.652 61.15 182.561 61.15C182.469 61.241 182.287 61.332 182.013 61.514Z" fill="#FAFAFA"/>
<path d="M214.416 116.66L220.44 85.356C220.532 84.81 220.258 84.264 219.801 83.991L181.83 62.06C181.374 61.787 180.917 61.969 180.826 62.515L174.802 93.819C174.71 94.365 174.984 94.911 175.441 95.184L213.503 117.115C213.868 117.297 214.325 117.115 214.416 116.66Z" fill="#F5F5F5"/>
<path d="M186.303 85.993C186.577 85.811 186.759 85.447 186.759 85.083V28.208C186.759 27.844 186.486 27.48 186.212 27.298L150.431 6.64102C150.157 6.45902 149.701 6.45902 149.427 6.64102C149.153 6.82302 148.971 7.18702 148.971 7.55102V64.426C148.971 64.79 149.245 65.154 149.518 65.336L185.299 85.993C185.573 86.175 186.029 86.175 186.303 85.993Z" fill="#EBEBEB"/>
<path d="M148.971 7.46002C148.971 7.18702 149.245 7.09602 149.518 7.27802L185.299 27.844C185.482 27.935 185.573 28.026 185.664 28.208L186.668 27.662C186.577 27.48 186.486 27.389 186.303 27.298L150.431 6.64102C150.157 6.45902 149.701 6.45902 149.427 6.64102C149.153 6.82302 148.971 7.09602 148.971 7.46002Z" fill="#FAFAFA"/>
<path d="M185.391 85.993C185.664 86.084 186.03 86.084 186.303 85.993C186.577 85.811 186.76 85.447 186.76 85.083V28.208C186.76 28.026 186.668 27.844 186.577 27.662L185.573 28.208C185.664 28.39 185.756 28.572 185.756 28.754V85.629C185.847 85.993 185.573 86.084 185.391 85.993Z" fill="#E0E0E0"/>
<path d="M185.298 85.993L149.427 65.336C149.153 65.154 148.879 64.79 148.879 64.426V7.55101C148.879 7.18701 149.153 7.09601 149.427 7.27801L185.298 27.844C185.572 28.026 185.846 28.39 185.846 28.754V85.629C185.846 85.993 185.572 86.175 185.298 85.993Z" fill="#F5F5F5"/>
<g opacity="0.3">
<path d="M183.2 53.779C183.2 54.234 182.834 54.325 182.287 54.052L152.439 36.853C151.983 36.58 151.526 36.034 151.526 35.579C151.526 35.124 151.891 35.033 152.439 35.306L182.287 52.505C182.834 52.778 183.2 53.324 183.2 53.779Z" fill="#DBE5F4"/>
<path d="M183.2 58.511C183.2 58.966 182.834 59.057 182.287 58.784L152.439 41.585C151.983 41.312 151.526 40.766 151.526 40.311C151.526 39.856 151.891 39.765 152.439 40.038L182.287 57.237C182.834 57.51 183.2 58.147 183.2 58.511Z" fill="#DBE5F4"/>
<path d="M183.2 63.334C183.2 63.789 182.834 63.88 182.287 63.607L152.439 46.408C151.983 46.135 151.526 45.589 151.526 45.134C151.526 44.679 151.891 44.588 152.439 44.861L182.287 62.06C182.834 62.242 183.2 62.879 183.2 63.334Z" fill="#DBE5F4"/>
<path d="M183.2 68.0659C183.2 68.5209 182.834 68.612 182.287 68.339L152.439 51.14C151.983 50.867 151.526 50.321 151.526 49.866C151.526 49.411 151.891 49.32 152.439 49.593L182.287 66.7919C182.834 67.0649 183.2 67.6109 183.2 68.0659Z" fill="#DBE5F4"/>
<path d="M183.2 39.583C183.2 40.038 182.834 40.129 182.287 39.856L152.439 22.657C151.983 22.384 151.526 21.838 151.526 21.383C151.526 20.928 151.891 20.837 152.439 21.11L182.287 38.309C182.834 38.491 183.2 39.128 183.2 39.583Z" fill="#DBE5F4"/>
<path d="M183.2 44.315C183.2 44.77 182.834 44.861 182.287 44.588L152.439 27.389C151.983 27.116 151.526 26.57 151.526 26.115C151.526 25.66 151.891 25.569 152.439 25.842L182.287 42.95C182.834 43.314 183.2 43.86 183.2 44.315Z" fill="#DBE5F4"/>
<path d="M183.2 34.76C183.2 35.215 182.834 35.306 182.287 35.033L152.439 17.834C151.983 17.561 151.526 17.015 151.526 16.56C151.526 16.105 151.891 16.014 152.439 16.287L182.287 33.486C182.834 33.759 183.2 34.396 183.2 34.76Z" fill="#DBE5F4"/>
<path d="M183.2 49.047C183.2 49.502 182.834 49.593 182.287 49.32L152.439 32.121C151.983 31.848 151.526 31.302 151.526 30.847C151.526 30.392 151.891 30.301 152.439 30.574L182.287 47.773C182.834 48.046 183.2 48.592 183.2 49.047Z" fill="#DBE5F4"/>
<path d="M183.2 72.798C183.2 73.253 182.834 73.344 182.287 73.071L152.439 55.872C151.983 55.599 151.526 55.053 151.526 54.598C151.526 54.143 151.891 54.052 152.439 54.325L182.287 71.524C182.834 71.797 183.2 72.343 183.2 72.798Z" fill="#DBE5F4"/>
<path d="M183.2 77.53C183.2 77.985 182.834 78.076 182.287 77.803L152.439 60.604C151.983 60.331 151.526 59.785 151.526 59.33C151.526 58.875 151.891 58.784 152.439 59.057L182.287 76.256C182.834 76.529 183.2 77.075 183.2 77.53Z" fill="#DBE5F4"/>
</g>
<path d="M159.103 55.599C159.103 55.235 159.194 54.962 159.468 54.871C159.468 54.871 159.468 54.871 159.559 54.78L161.293 53.779C161.476 53.688 161.841 53.688 162.115 53.87L196.344 73.526L197.348 69.522C197.439 69.249 197.621 68.976 197.804 68.885L199.63 67.884C199.903 67.702 200.36 67.702 200.725 67.884L215.329 76.256C215.968 76.62 216.516 77.53 216.516 78.258V126.761C216.516 127.125 216.425 127.398 216.242 127.489L214.416 128.581C214.234 128.672 213.96 128.672 213.595 128.49L160.38 97.823C159.741 97.459 159.194 96.549 159.194 95.821L159.103 55.599Z" fill="#3864DC"/>
<path d="M197.804 68.885C198.078 68.703 198.534 68.703 198.899 68.976L213.503 77.348C213.868 77.53 214.142 77.894 214.325 78.258L216.059 77.257C215.877 76.893 215.511 76.529 215.238 76.347L200.633 67.975C200.268 67.793 199.812 67.793 199.538 67.975L197.804 68.885Z" fill="#1F447F"/>
<path d="M159.468 54.78C159.65 54.689 159.924 54.689 160.289 54.871L194.609 74.618C195.248 74.982 195.979 74.709 196.161 73.981L196.344 73.526L162.024 53.87C161.841 53.779 161.658 53.688 161.476 53.688C161.385 53.688 161.293 53.688 161.202 53.779L159.468 54.78Z" fill="#1F447F"/>
<path d="M159.103 55.599V95.821C159.103 96.549 159.65 97.459 160.289 97.823L213.595 128.49C214.051 128.763 214.599 128.399 214.599 127.853V79.35C214.599 78.986 214.508 78.531 214.234 78.167C214.051 77.803 213.686 77.439 213.412 77.257L198.808 68.885C198.443 68.703 198.078 68.703 197.713 68.794C197.53 68.885 197.348 69.158 197.256 69.431L196.252 73.435L196.07 73.89C195.887 74.618 195.157 74.891 194.518 74.527L160.198 54.78C159.924 54.598 159.65 54.598 159.468 54.689H159.376C159.194 54.962 159.103 55.235 159.103 55.599Z" fill="#30559E"/>
<path d="M183.929 94.274C184.021 94.274 184.112 94.183 184.203 94.183C184.386 94.183 184.66 94.274 184.751 94.547L186.303 97.914V91.908C186.303 91.635 186.577 91.362 186.85 91.362C187.124 91.362 187.398 91.635 187.398 91.908V99.097L189.132 97.459C189.315 97.277 189.68 97.277 189.954 97.459C190.136 97.641 190.136 98.005 189.954 98.278L187.307 100.826C187.215 100.917 187.033 101.008 186.85 101.008C186.668 101.008 186.485 100.826 186.485 100.735L183.838 95.093C183.564 94.729 183.656 94.365 183.929 94.274Z" fill="white"/>
<path d="M190.684 95.548C190.41 95.548 190.137 95.275 190.137 95.002V91.635L183.656 87.904V90.634C183.656 90.907 183.382 91.18 183.108 91.18C182.834 91.18 182.561 90.907 182.561 90.634V86.903C182.561 86.721 182.652 86.539 182.834 86.448C182.926 86.357 183.017 86.357 183.108 86.357C183.199 86.357 183.291 86.357 183.382 86.448L191.049 90.816C191.232 90.907 191.323 91.089 191.323 91.271V95.002C191.232 95.275 190.958 95.548 190.684 95.548Z" fill="white"/>
<path d="M214.143 128.672L216.059 127.58C216.242 127.489 216.425 127.216 216.425 126.852V78.44C216.425 78.076 216.333 77.621 216.059 77.257L214.325 78.258C214.508 78.622 214.69 79.077 214.69 79.441V128.035C214.599 128.308 214.416 128.581 214.143 128.672Z" fill="#3864DC"/>
<path d="M108.991 96.913L59.1537 125.578L56.1416 127.307C56.0503 127.307 56.0503 127.398 55.959 127.398C55.8677 127.398 55.7764 127.489 55.6852 127.489C55.5939 127.489 55.5026 127.58 55.4113 127.58C55.3201 127.58 55.2288 127.58 55.2288 127.58C55.1375 127.58 55.0462 127.58 54.9549 127.58C54.6811 127.58 54.4073 127.489 54.1335 127.398C53.6771 127.125 53.1294 126.306 53.0381 125.578L44.6406 82.08C44.6406 81.989 44.6406 81.898 44.6406 81.807C44.6406 81.716 44.6406 81.625 44.6406 81.534C44.6406 81.443 44.6406 81.261 44.7319 81.17C44.7319 81.079 44.8232 80.897 44.9145 80.806C44.9145 80.715 45.0057 80.624 45.0057 80.624C45.097 80.533 45.097 80.442 45.1883 80.442C45.2796 80.351 45.2796 80.351 45.3708 80.26C45.4621 80.169 45.4621 80.169 45.5534 80.169L98.4029 49.775C98.4029 49.775 98.4942 49.684 98.5854 49.684C98.6767 49.684 98.6767 49.593 98.768 49.593C98.768 49.593 98.768 49.593 98.8593 49.593C98.9506 49.593 98.9506 49.593 99.0418 49.593C99.4069 49.593 99.6808 49.866 99.9546 50.048C100.594 50.412 101.141 50.776 101.141 50.776C101.232 50.776 101.324 50.867 101.415 50.958C101.506 51.049 101.598 51.14 101.598 51.322C101.598 51.413 101.598 51.413 101.689 51.504L110.086 95.002C109.995 95.73 109.63 96.549 108.991 96.913Z" fill="#27DEBF"/>
<path d="M108.991 96.913L59.1537 125.578L56.1416 127.307C56.0503 127.307 56.0503 127.398 55.959 127.398C55.8677 127.398 55.7764 127.489 55.6852 127.489C55.5939 127.489 55.5026 127.58 55.4113 127.58C55.3201 127.58 55.2288 127.58 55.2288 127.58C55.1375 127.58 55.0462 127.58 54.9549 127.58C54.6811 127.58 54.4073 127.489 54.1335 127.398C53.6771 127.125 53.1294 126.306 53.0381 125.578L44.6406 82.08C44.6406 81.989 44.6406 81.898 44.6406 81.807C44.6406 81.716 44.6406 81.625 44.6406 81.534C44.6406 81.443 44.6406 81.261 44.7319 81.17C44.7319 81.079 44.8232 80.897 44.9145 80.806C44.9145 80.715 45.0057 80.624 45.0057 80.624C45.097 80.533 45.097 80.442 45.1883 80.442C45.2796 80.351 45.2796 80.351 45.3708 80.26C45.4621 80.169 45.4621 80.169 45.5534 80.169L98.4029 49.775C98.4029 49.775 98.4942 49.684 98.5854 49.684C98.6767 49.684 98.6767 49.593 98.768 49.593C98.768 49.593 98.768 49.593 98.8593 49.593C98.9506 49.593 98.9506 49.593 99.0418 49.593C99.4069 49.593 99.6808 49.866 99.9546 50.048C100.594 50.412 101.141 50.776 101.141 50.776C101.232 50.776 101.324 50.867 101.415 50.958C101.506 51.049 101.598 51.14 101.598 51.322C101.598 51.413 101.598 51.413 101.689 51.504L110.086 95.002C109.995 95.73 109.63 96.549 108.991 96.913Z" fill="#30559E"/>
<path d="M55.9591 127.489C55.3202 127.762 54.4987 127.853 54.0423 127.58C53.5859 127.307 53.0383 126.488 52.947 125.76L44.5495 82.262C44.4582 81.898 44.5495 81.443 44.732 81.079L46.4663 82.08C46.2837 82.444 46.1925 82.899 46.2837 83.263L54.6812 126.761C54.8638 127.398 55.4115 127.671 55.9591 127.489Z" fill="#30559E"/>
<path d="M99.7726 50.139C100.412 50.503 100.959 50.867 100.959 50.867C100.685 50.776 100.412 50.776 100.046 50.958L47.1969 81.261C46.9231 81.443 46.6492 81.716 46.558 81.989L44.7324 80.988C44.7324 80.897 44.8237 80.806 44.8237 80.806C44.915 80.715 44.915 80.624 45.0063 80.624C45.0975 80.533 45.2801 80.442 45.3714 80.351L98.2208 49.957C98.3121 49.866 98.4034 49.866 98.4947 49.775C98.4947 49.775 98.4947 49.775 98.586 49.775C98.6772 49.775 98.6772 49.775 98.7685 49.775C99.1336 49.684 99.4987 49.957 99.7726 50.139Z" fill="#30559E"/>
<path d="M54.6812 126.761L46.2837 83.263C46.1012 82.535 46.5576 81.716 47.1965 81.352L100.046 50.958C100.685 50.594 101.324 50.867 101.415 51.595L109.813 95.093C109.995 95.821 109.539 96.64 108.9 97.004L56.0504 127.398C55.5027 127.762 54.8638 127.489 54.6812 126.761Z" fill="#27DEBF"/>
<path d="M54.6812 126.761L46.2837 83.263C46.1012 82.535 46.5576 81.716 47.1965 81.352L100.046 50.958C100.685 50.594 101.324 50.867 101.415 51.595L109.813 95.093C109.995 95.821 109.539 96.64 108.9 97.004L56.0504 127.398C55.5027 127.762 54.8638 127.489 54.6812 126.761Z" fill="#3864DC"/>
<path d="M94.7521 95.184L58.8802 115.841L56.6896 117.115C56.6896 117.115 56.5983 117.115 56.5983 117.206C56.507 117.206 56.507 117.297 56.4157 117.297C56.3244 117.297 56.2332 117.388 56.2332 117.388C56.1419 117.388 56.1419 117.388 56.0506 117.388C55.9593 117.388 55.9593 117.388 55.8681 117.388C55.6855 117.388 55.4117 117.388 55.3204 117.297C54.9553 117.115 54.5902 116.478 54.4989 116.023L48.4746 84.719C48.4746 84.628 48.4746 84.537 48.4746 84.537C48.4746 84.446 48.4746 84.446 48.4746 84.355C48.4746 84.264 48.4746 84.173 48.5659 84.082C48.5659 83.991 48.6572 83.9 48.6572 83.809C48.6572 83.718 48.7484 83.718 48.7484 83.627C48.7484 83.536 48.8397 83.536 48.8397 83.445L48.931 83.354C48.931 83.354 49.0223 83.263 49.1135 83.263L87.1761 61.332C87.1761 61.332 87.2674 61.332 87.2674 61.241C87.2674 61.241 87.3587 61.241 87.3587 61.15C87.3587 61.15 87.3587 61.15 87.45 61.15C87.5412 61.15 87.5412 61.15 87.6325 61.15C87.9063 61.15 88.0889 61.332 88.2714 61.423C88.7278 61.696 89.0929 61.878 89.0929 61.878C89.1842 61.878 89.1842 61.969 89.2755 61.969C89.3668 62.06 89.3668 62.151 89.4581 62.242V62.333L95.4823 93.637C95.5736 94.274 95.2085 94.911 94.7521 95.184Z" fill="#27DEBF"/>
<path d="M94.7521 95.184L58.8802 115.841L56.6896 117.115C56.6896 117.115 56.5983 117.115 56.5983 117.206C56.507 117.206 56.507 117.297 56.4157 117.297C56.3244 117.297 56.2332 117.388 56.2332 117.388C56.1419 117.388 56.1419 117.388 56.0506 117.388C55.9593 117.388 55.9593 117.388 55.8681 117.388C55.6855 117.388 55.4117 117.388 55.3204 117.297C54.9553 117.115 54.5902 116.478 54.4989 116.023L48.4746 84.719C48.4746 84.628 48.4746 84.537 48.4746 84.537C48.4746 84.446 48.4746 84.446 48.4746 84.355C48.4746 84.264 48.4746 84.173 48.5659 84.082C48.5659 83.991 48.6572 83.9 48.6572 83.809C48.6572 83.718 48.7484 83.718 48.7484 83.627C48.7484 83.536 48.8397 83.536 48.8397 83.445L48.931 83.354C48.931 83.354 49.0223 83.263 49.1135 83.263L87.1761 61.332C87.1761 61.332 87.2674 61.332 87.2674 61.241C87.2674 61.241 87.3587 61.241 87.3587 61.15C87.3587 61.15 87.3587 61.15 87.45 61.15C87.5412 61.15 87.5412 61.15 87.6325 61.15C87.9063 61.15 88.0889 61.332 88.2714 61.423C88.7278 61.696 89.0929 61.878 89.0929 61.878C89.1842 61.878 89.1842 61.969 89.2755 61.969C89.3668 62.06 89.3668 62.151 89.4581 62.242V62.333L95.4823 93.637C95.5736 94.274 95.2085 94.911 94.7521 95.184Z" fill="#27DEBF"/>
<path d="M56.6892 117.115C56.2328 117.297 55.6852 117.388 55.3201 117.206C54.955 117.024 54.5899 116.387 54.4986 115.932L48.4743 84.628C48.383 84.355 48.4743 83.991 48.6568 83.718L49.9347 84.446C49.7522 84.719 49.7522 85.083 49.7522 85.356L55.7765 116.66C55.8677 117.115 56.2328 117.297 56.6892 117.115Z" fill="#E0E0E0"/>
<path d="M88.1802 61.514C88.6366 61.787 89.0017 61.969 89.0017 61.969C88.8192 61.878 88.6366 61.878 88.3628 62.06L50.3915 83.9C50.2089 83.991 50.0264 84.173 49.9351 84.446L48.6572 83.718C48.6572 83.627 48.7485 83.627 48.7485 83.536C48.7485 83.445 48.8398 83.445 48.8398 83.354C48.9311 83.263 49.0223 83.172 49.1136 83.172L87.1762 61.241C87.2675 61.241 87.2675 61.15 87.3587 61.15C87.3587 61.15 87.3588 61.15 87.45 61.15C87.5413 61.15 87.5413 61.15 87.6326 61.15C87.7239 61.241 87.9064 61.332 88.1802 61.514Z" fill="#FAFAFA"/>
<path d="M55.7762 116.66L49.7519 85.356C49.6606 84.81 49.9344 84.264 50.3908 83.991L88.3621 62.06C88.8185 61.787 89.2749 61.969 89.3662 62.515L95.3904 93.819C95.4817 94.365 95.2079 94.911 94.7515 95.184L56.6889 117.115C56.3238 117.297 55.8674 117.115 55.7762 116.66Z" fill="#F5F5F5"/>
<path d="M83.89 85.993C83.6161 85.811 83.4336 85.447 83.4336 85.083V28.208C83.4336 27.844 83.7074 27.48 83.9813 27.298L119.853 6.64102C120.127 6.45902 120.583 6.45902 120.857 6.64102C121.131 6.82302 121.314 7.18702 121.314 7.55102V64.426C121.314 64.79 121.04 65.154 120.766 65.336L84.894 85.993C84.6202 86.175 84.1638 86.175 83.89 85.993Z" fill="#EBEBEB"/>
<path d="M121.222 7.46002C121.222 7.18702 120.948 7.09602 120.674 7.27802L84.8936 27.844C84.711 27.935 84.6197 28.026 84.5285 28.208L83.5244 27.662C83.6157 27.48 83.707 27.389 83.8895 27.298L119.761 6.64102C120.035 6.45902 120.492 6.45902 120.766 6.64102C121.039 6.82302 121.222 7.09602 121.222 7.46002Z" fill="#FAFAFA"/>
<path d="M84.8028 85.993C84.5289 86.084 84.1638 86.084 83.89 85.993C83.6161 85.811 83.4336 85.447 83.4336 85.083V28.208C83.4336 28.026 83.5249 27.844 83.6161 27.662L84.6202 28.208C84.5289 28.39 84.4376 28.572 84.4376 28.754V85.629C84.3464 85.993 84.6202 86.084 84.8028 85.993Z" fill="#E0E0E0"/>
<path d="M84.8943 85.993L120.766 65.336C121.04 65.154 121.314 64.79 121.314 64.426V7.55101C121.314 7.18701 121.04 7.09601 120.766 7.27801L84.8943 27.844C84.6205 28.026 84.3467 28.39 84.3467 28.754V85.629C84.3467 85.993 84.6205 86.175 84.8943 85.993Z" fill="#F5F5F5"/>
<g opacity="0.3">
<path d="M86.9932 53.779C86.9932 54.234 87.3583 54.325 87.9059 54.052L117.754 36.853C118.21 36.58 118.666 36.034 118.666 35.579C118.666 35.124 118.301 35.033 117.754 35.306L87.9059 52.505C87.3583 52.778 86.9932 53.324 86.9932 53.779Z" fill="#DBE5F4"/>
<path d="M86.9932 58.511C86.9932 58.966 87.3583 59.057 87.9059 58.784L117.754 41.585C118.21 41.312 118.666 40.766 118.666 40.311C118.666 39.856 118.301 39.765 117.754 40.038L87.9059 57.237C87.3583 57.51 86.9932 58.147 86.9932 58.511Z" fill="#DBE5F4"/>
<path d="M86.9932 63.334C86.9932 63.789 87.3583 63.88 87.9059 63.607L117.754 46.408C118.21 46.135 118.666 45.589 118.666 45.134C118.666 44.679 118.301 44.588 117.754 44.861L87.9059 61.969C87.3583 62.242 86.9932 62.879 86.9932 63.334Z" fill="#DBE5F4"/>
<path d="M86.9932 68.0659C86.9932 68.5209 87.3583 68.612 87.9059 68.339L117.754 51.14C118.21 50.867 118.666 50.321 118.666 49.866C118.666 49.411 118.301 49.32 117.754 49.593L87.9059 66.7919C87.3583 67.0649 86.9932 67.6109 86.9932 68.0659Z" fill="#DBE5F4"/>
<path d="M86.9932 39.583C86.9932 40.038 87.3583 40.129 87.9059 39.856L117.754 22.657C118.21 22.384 118.666 21.838 118.666 21.383C118.666 20.928 118.301 20.837 117.754 21.11L87.9059 38.218C87.3583 38.491 86.9932 39.128 86.9932 39.583Z" fill="#DBE5F4"/>
<path d="M86.9932 44.315C86.9932 44.77 87.3583 44.861 87.9059 44.588L117.754 27.389C118.21 27.116 118.666 26.57 118.666 26.115C118.666 25.66 118.301 25.569 117.754 25.842L87.9059 42.95C87.3583 43.314 86.9932 43.86 86.9932 44.315Z" fill="#DBE5F4"/>
<path d="M86.9932 34.76C86.9932 35.215 87.3583 35.306 87.9059 35.033L117.754 17.834C118.21 17.561 118.666 17.015 118.666 16.56C118.666 16.105 118.301 16.014 117.754 16.287L87.9059 33.486C87.3583 33.759 86.9932 34.396 86.9932 34.76Z" fill="#DBE5F4"/>
<path d="M86.9932 49.047C86.9932 49.502 87.3583 49.593 87.9059 49.32L117.754 32.121C118.21 31.848 118.666 31.302 118.666 30.847C118.666 30.392 118.301 30.301 117.754 30.574L87.9059 47.773C87.3583 48.046 86.9932 48.592 86.9932 49.047Z" fill="#DBE5F4"/>
<path d="M86.9932 72.798C86.9932 73.253 87.3583 73.344 87.9059 73.071L117.754 55.872C118.21 55.599 118.666 55.053 118.666 54.598C118.666 54.143 118.301 54.052 117.754 54.325L87.9059 71.524C87.3583 71.797 86.9932 72.343 86.9932 72.798Z" fill="#DBE5F4"/>
<path d="M86.9932 77.53C86.9932 77.985 87.3583 78.076 87.9059 77.803L117.754 60.604C118.21 60.331 118.666 59.785 118.666 59.33C118.666 58.875 118.301 58.784 117.754 59.057L87.9059 76.256C87.3583 76.529 86.9932 77.075 86.9932 77.53Z" fill="#DBE5F4"/>
</g>
<path d="M111.09 55.599C111.09 55.235 110.999 54.962 110.725 54.871C110.725 54.871 110.725 54.871 110.634 54.78L108.899 53.779C108.717 53.688 108.352 53.688 108.078 53.87L73.849 73.526L72.845 69.522C72.7537 69.249 72.5711 68.976 72.3886 68.885L70.563 67.884C70.2892 67.702 69.8328 67.702 69.4677 67.884L54.8634 76.256C54.2244 76.62 53.6768 77.53 53.6768 78.258V126.761C53.6768 127.125 53.768 127.398 53.9506 127.489L55.7761 128.581C55.9587 128.672 56.2325 128.672 56.5976 128.49L109.812 97.823C110.451 97.459 110.999 96.549 110.999 95.821L111.09 55.599Z" fill="#3864DC"/>
<path d="M72.3892 68.885C72.1154 68.703 71.659 68.703 71.2939 68.976L56.6895 77.348C56.3244 77.53 56.0506 77.894 55.8681 78.258L54.1338 77.257C54.3163 76.893 54.6815 76.529 54.9553 76.347L69.5596 67.975C69.9247 67.793 70.3811 67.793 70.655 67.975L72.3892 68.885Z" fill="#1F447F"/>
<path d="M110.726 54.78C110.543 54.689 110.269 54.689 109.904 54.871L75.5839 74.618C74.9449 74.982 74.2147 74.709 74.0322 73.981L73.8496 73.526L108.17 53.87C108.352 53.779 108.535 53.688 108.717 53.688C108.809 53.688 108.9 53.688 108.991 53.779L110.726 54.78Z" fill="#1F447F"/>
<path d="M111.09 55.599V95.821C111.09 96.549 110.543 97.459 109.904 97.823L56.5978 128.581C56.1414 128.854 55.5938 128.49 55.5938 127.944V79.35C55.5938 78.986 55.685 78.531 55.9589 78.167C56.1414 77.803 56.5065 77.439 56.7804 77.257L71.3847 68.885C71.7498 68.703 72.1149 68.703 72.48 68.794C72.6626 68.885 72.8451 69.158 72.9364 69.431L73.9405 73.435L74.123 73.89C74.3056 74.618 75.0358 74.891 75.6747 74.527L109.995 54.78C110.269 54.598 110.543 54.598 110.725 54.689H110.816C110.999 54.962 111.09 55.235 111.09 55.599Z" fill="#3864DC"/>
<path d="M80.4217 93C80.5129 93 80.6042 93.091 80.6955 93.091C80.878 93.091 81.1519 93 81.2431 92.727L82.7949 89.36V95.366C82.7949 95.639 83.0687 95.912 83.3425 95.912C83.6164 95.912 83.8902 95.639 83.8902 95.366V88.177L85.6245 89.815C85.807 89.997 86.1721 89.997 86.4459 89.815C86.6285 89.633 86.6285 89.269 86.4459 88.996L83.7989 86.448C83.7076 86.357 83.5251 86.266 83.3425 86.266C83.16 86.266 82.9774 86.448 82.9774 86.539L80.3304 92.181C80.0565 92.545 80.1478 92.818 80.4217 93Z" fill="white"/>
<path d="M87.1764 91.271C86.9026 91.271 86.6287 91.544 86.6287 91.817V95.184L80.1481 98.915V96.185C80.1481 95.912 79.8742 95.639 79.6004 95.639C79.3266 95.639 79.0527 95.912 79.0527 96.185V99.916C79.0527 100.098 79.144 100.28 79.3266 100.371C79.4178 100.462 79.5091 100.462 79.6004 100.462C79.6917 100.462 79.783 100.462 79.8742 100.371L87.5415 96.003C87.7241 95.912 87.8153 95.73 87.8153 95.548V91.817C87.7241 91.453 87.4502 91.271 87.1764 91.271Z" fill="white"/>
<path d="M55.9587 128.581L54.0419 127.489C53.8593 127.398 53.6768 127.125 53.6768 126.761V78.349C53.6768 77.985 53.768 77.53 54.0419 77.166L55.7761 78.167C55.5936 78.531 55.411 78.986 55.411 79.35V127.944C55.5023 128.217 55.6849 128.49 55.9587 128.581Z" fill="#30559E"/>
<path d="M161.02 116.751V120.391L175.076 135.588V131.948L161.02 116.751Z" fill="#27DEBF"/>
<path d="M161.02 116.751V120.391L175.076 135.588V131.948L161.02 116.751Z" fill="#1F447F"/>
<path d="M176.445 119.481V115.841L175.076 131.948V135.588L176.445 119.481Z" fill="#27DEBF"/>
<path opacity="0.2" d="M176.445 119.481V115.841L175.076 131.948V135.588L176.445 119.481Z" fill="black"/>
<path d="M129.072 141.23C112.733 139.865 97.6727 133.313 90.2793 123.758L90.5531 120.391L96.3036 119.026C103.88 128.763 122.226 134.86 140.117 133.677C150.705 132.949 159.833 129.673 165.127 124.759L170.603 127.034L170.329 130.401C163.666 136.589 153.078 140.411 140.664 141.321C136.831 141.594 132.906 141.594 129.072 141.23Z" fill="#27DEBF"/>
<path d="M129.072 141.23C112.733 139.865 97.6727 133.313 90.2793 123.758L90.5531 120.391L96.3036 119.026C103.88 128.763 122.226 134.86 140.117 133.677C150.705 132.949 159.833 129.673 165.127 124.759L170.603 127.034L170.329 130.401C163.666 136.589 153.078 140.411 140.664 141.321C136.831 141.594 132.906 141.594 129.072 141.23Z" fill="#1F447F"/>
<path d="M176.445 115.841L161.019 116.751L165.492 121.574C160.198 126.488 151.07 129.673 140.482 130.492C122.592 131.766 104.154 125.578 96.6688 115.841L90.6445 120.482C98.038 130.037 113.099 136.589 129.437 137.954C133.271 138.318 137.105 138.318 141.03 138.045C153.443 137.135 164.031 133.313 170.695 127.125L175.167 131.948L176.445 115.841Z" fill="#3864DC"/>
</svg>
