<svg width="270" height="186" viewBox="0 0 270 186" fill="none" xmlns="http://www.w3.org/2000/svg">
<g clip-path="url(#clip0_1409_4158)">
<path d="M58.511 165.036C58.511 165.036 57.9596 167.888 58.9706 170.188C59.9816 172.488 57.5919 172.672 57.5919 172.672L52.8125 164.208C52.8125 163.932 52.8125 163.012 53.7316 162.552C54.6507 162 56.489 161.356 56.489 161.356L58.511 165.036Z" fill="#221D56"/>
<path d="M101.71 172.488C101.71 172.488 104.835 174.42 106.122 174.972C107.133 175.34 107.317 176.168 107.409 176.536C107.409 176.628 107.409 176.812 107.225 176.72L96.1035 175.616L96.4712 171.936L101.71 172.488Z" fill="#221D56"/>
<path d="M249.78 176.904C249.78 177.456 198.309 177.456 134.89 177.456C71.4707 177.456 20 177.456 20 176.904C20 176.352 71.4707 176.352 134.89 176.352C198.309 176.352 249.78 176.904 249.78 176.904Z" fill="#1A1A1A"/>
<path d="M118.897 68.712C118.346 68.528 117.243 71.3801 117.151 70.7361C117.059 70.0001 118.897 67.3321 118.254 67.1481C117.518 66.9641 116.507 70.0001 116.415 70.2761C116.323 70.4601 115.864 70.368 116.14 70.184C116.323 69.908 117.886 66.4121 117.151 66.2281C116.783 66.1361 116.599 66.872 116.599 66.872C116.599 66.872 115.404 70.184 115.037 70C114.761 69.908 115.312 67.884 115.68 67.332C115.956 66.688 115.772 66.32 115.404 66.412C115.221 66.504 114.301 68.436 113.934 69.08C113.75 69.724 113.015 71.4721 112.555 70.3681C112.187 69.2641 111.544 68.528 111.176 68.344C110.809 68.16 110.625 68.8041 110.901 68.9881C111.084 69.1721 111.268 69.724 111.544 70C111.636 70.276 111.728 70.644 111.728 70.92C111.82 72.208 112.096 73.4961 112.096 73.4961L105.478 86.1L94.9999 80.764L93.5293 86.928C93.5293 86.928 107.224 93.092 108.051 92.632C109.982 91.62 115.956 74.14 115.956 74.14C116.875 72.852 117.978 71.288 118.437 70.46C119.265 68.896 119.173 68.896 118.897 68.712Z" fill="#FFBF99"/>
<path d="M89.4854 62.732C92.7942 59.144 89.2096 54.636 89.2096 54.636C89.2096 54.636 88.842 55.096 87.739 56.476C86.6361 57.948 85.3493 57.764 83.1434 58.5C80.8456 59.328 76.9853 60.892 77.2611 66.596C77.4449 72.024 82.4081 72.76 82.4081 72.76C82.4081 72.76 86.2684 66.136 89.4854 62.732Z" fill="#1B1156"/>
<path d="M84.4307 64.112C82.8682 66.228 83.052 68.712 82.5005 70.92C81.9491 73.128 79.7432 78.096 79.7432 78.096C79.7432 78.096 86.5447 79.66 86.0851 78.74C85.9932 77.82 85.9013 74.324 86.177 73.496C86.3608 72.576 87.5557 72.852 89.1182 73.036C90.7726 73.128 91.5079 73.128 91.5998 69.172C91.8755 65.308 89.3939 62.824 89.3939 62.824C87.5557 60.432 85.9932 61.996 84.4307 64.112Z" fill="#FFBF99"/>
<path d="M83.1436 68.0681C82.2245 67.6081 81.5811 66.2281 82.3164 65.6761C82.9598 65.0321 83.9708 65.4921 83.9708 65.4921C83.9708 65.4921 84.0627 68.6201 83.1436 68.0681Z" fill="#FFBF99"/>
<path d="M101.618 82.6961C98.6768 81.1321 96.4709 80.3041 94.8165 79.2921C89.6694 76.0721 88.2907 76.8081 87.1878 76.7161C86.1767 76.9921 84.7062 77.6361 84.2466 77.7281C83.6032 77.8201 81.6731 77.1761 80.2944 76.8081C77.1694 76.9921 75.3311 78.3721 72.4819 80.4881L66.6914 85.0881L73.4929 92.0801L75.515 90.4241C75.6069 93.6441 75.6988 93.6441 75.8826 96.8641L75.9745 109.468L95.0922 110.296L93.8974 97.7841L93.254 87.8481L98.6768 90.5161L101.618 82.6961Z" fill="#0083F9"/>
<path opacity="0.3" d="M93.5293 87.7561H95.2756L99.4117 89.2281L98.9521 90.4241L93.5293 87.7561Z" fill="black"/>
<g opacity="0.3">
<path d="M94.0808 94.4721C90.3124 94.9321 86.3601 94.9321 82.5918 94.6561C81.2131 94.5641 79.9263 94.4721 78.8234 93.9201C77.3528 93.2761 76.1579 91.8041 75.6064 90.3321L75.8822 95.7601L94.0808 94.4721Z" fill="black"/>
</g>
<path d="M80.8452 116.828C80.8452 116.828 80.2938 131.64 78.0879 139.368C75.882 147.096 69.8158 148.936 65.9555 151.328C62.279 153.72 53.915 158.228 53.915 158.228L58.6945 166.508C58.6945 166.508 81.6725 156.664 85.8085 147.832C89.0254 141.024 92.4262 128.604 92.4262 128.604L80.8452 116.828Z" fill="#EE384E"/>
<path d="M93.7126 110.112C93.7126 110.112 103.363 130.628 105.937 136.148C106.213 136.792 106.305 137.436 106.305 137.988L103.639 172.672L95.7347 172.12L95.8266 138.724L79.1906 117.564C77.72 115.816 76.7089 113.7 76.2494 111.4C76.0655 110.664 75.9736 109.836 75.9736 109.192L93.7126 110.112Z" fill="#EE384E"/>
<path d="M134.522 157.032L46.2865 163.656L42.0586 98.1521L129.467 91.8961L134.522 157.032Z" fill="#F7F7F7"/>
<path d="M134.522 157.032C134.522 157.032 134.522 156.572 134.43 155.928C134.338 155.1 134.338 153.904 134.154 152.524C133.97 149.488 133.511 144.98 133.143 139.368C132.316 127.96 130.937 111.768 129.559 91.9881L129.651 92.0801C105.018 93.8281 74.871 95.9441 42.1504 98.3361L42.2423 98.2441C42.2423 98.3361 42.2423 98.5201 42.2423 98.7961C43.8048 122.164 45.1835 144.244 46.4703 163.748L46.3783 163.656C72.3894 161.816 94.4483 160.068 109.981 158.964C117.702 158.412 123.86 157.952 128.088 157.584C130.11 157.492 131.765 157.308 132.959 157.308C133.511 157.308 133.879 157.216 134.154 157.216C134.246 157.032 134.522 157.032 134.522 157.032C134.522 157.032 134.43 157.032 134.154 157.032C133.879 157.032 133.419 157.124 132.959 157.124C131.856 157.216 130.294 157.308 128.18 157.584C123.952 157.86 117.886 158.32 110.165 158.964C94.6321 160.068 72.5732 161.816 46.5622 163.748H46.4703V163.656C45.2754 144.06 43.7129 121.888 42.2423 98.7041C42.2423 98.5201 42.2423 98.4281 42.2423 98.1521V98.0601H42.3342C74.963 95.7601 105.202 93.5521 129.834 91.8961H129.926V91.9881C131.397 111.676 132.592 128.052 133.511 139.46C133.879 145.072 134.246 149.58 134.43 152.616C134.522 154.088 134.614 155.192 134.614 156.02C134.338 156.664 134.522 157.032 134.522 157.032Z" fill="#263238"/>
<path d="M113.198 101.74C113.382 101.74 114.118 112.964 114.945 126.856C115.68 140.748 116.14 151.972 115.956 151.972C115.772 151.972 115.037 140.748 114.209 126.856C113.474 113.148 113.107 102.016 113.198 101.74Z" fill="#263238"/>
<path d="M105.386 101.648C105.57 101.648 106.305 112.872 107.133 126.764C107.868 140.656 108.327 151.88 108.144 151.88C107.96 151.88 107.224 140.656 106.397 126.764C105.662 113.056 105.202 101.648 105.386 101.648Z" fill="#263238"/>
<path d="M81.4884 102.108C81.6722 102.108 82.4075 113.332 83.2347 127.224C83.97 141.116 84.4295 152.34 84.2457 152.34C84.0619 152.34 83.3266 141.116 82.4994 127.224C81.6722 113.332 81.2126 102.108 81.4884 102.108Z" fill="#263238"/>
<path d="M88.9333 101.648C89.1171 101.648 89.8524 112.872 90.6796 126.764C91.4149 140.656 91.8745 151.88 91.6907 151.88C91.5068 151.88 90.7715 140.656 89.9443 126.764C89.3009 113.056 88.7495 101.648 88.9333 101.648Z" fill="#263238"/>
<path d="M96.5622 101.372C96.746 101.372 97.4813 112.596 98.3085 126.488C99.0438 140.38 99.5034 151.604 99.3196 151.604C99.1357 151.604 98.4004 140.38 97.5732 126.488C96.9299 112.596 96.3784 101.372 96.5622 101.372Z" fill="#263238"/>
<path d="M73.0327 103.12C73.2165 103.12 73.9518 114.344 74.779 128.236C75.5143 142.128 75.9739 153.352 75.7901 153.352C75.6063 153.352 74.871 142.128 74.0438 128.236C73.3085 114.528 72.8489 103.12 73.0327 103.12Z" fill="#263238"/>
<path d="M64.6687 103.672C64.8525 103.672 65.5878 114.896 66.415 128.788C67.1503 142.68 67.6098 153.904 67.426 153.904C67.2422 153.904 66.5069 142.68 65.6797 128.788C65.0363 114.896 64.4848 103.672 64.6687 103.672Z" fill="#263238"/>
<path d="M56.4884 104.132C56.6722 104.132 57.4075 115.356 58.2347 129.248C58.97 143.14 59.4295 154.364 59.2457 154.364C59.0619 154.364 58.3266 143.14 57.4994 129.248C56.6722 115.448 56.2126 104.132 56.4884 104.132Z" fill="#263238"/>
<path d="M67.2429 85.4561C67.2429 85.4561 58.3274 93 60.1657 98.704C62.4635 105.696 77.1694 111.124 77.1694 111.124C78.3643 112.136 79.7429 113.24 80.5701 113.7C82.2246 114.712 82.3165 114.62 82.3165 114.436C82.4084 113.792 79.4672 112.32 80.1106 112.228C80.8459 112.136 83.6952 114.436 83.7871 113.792C83.879 112.872 80.6621 111.492 80.4782 111.4C80.2944 111.308 80.2944 110.756 80.5701 110.94C80.8459 111.124 84.5224 113.24 84.6143 112.32C84.7062 111.768 83.879 111.584 83.879 111.584C83.879 111.584 80.4782 109.928 80.4782 109.468C80.5701 109.008 82.5003 110.02 83.2356 110.296C83.879 110.572 84.2466 110.388 84.0628 110.02C83.9709 109.744 81.8569 108.548 81.2135 108.272C80.4782 107.996 78.64 106.984 79.7429 106.616C80.8459 106.156 81.4893 105.328 81.4893 104.96C81.4893 104.5 81.1216 104.316 80.754 104.5C80.5701 104.684 80.1106 105.052 79.7429 105.236C79.5591 105.328 79.1915 105.42 78.9157 105.42C76.526 105.88 66.2319 99.716 66.2319 96.312C66.2319 95.0241 71.4709 90.1481 71.4709 90.1481L67.2429 85.4561Z" fill="#FFBF99"/>
<path d="M138.842 63.008C135.533 79.384 123.676 140.932 120.643 157.4C120.276 159.7 121.654 161.816 123.86 162.276L190.404 175.984C192.702 176.444 194.816 174.972 195.276 172.672L204.375 125.108L210.074 126.028C211.544 126.212 212.739 125.292 213.015 123.912L219.908 85.456C220.184 83.984 219.173 82.604 217.886 82.42L212.739 81.5L213.382 77.728C213.75 75.52 212.371 73.312 210.074 72.944L143.529 59.88C141.415 59.236 139.209 60.708 138.842 63.008Z" fill="#3864AE"/>
<path d="M143.713 64.572L121.838 158.688L190.037 174.696L211.544 81.04L143.713 64.572Z" fill="#E0E0E0"/>
<path d="M135.809 60.984L120.184 156.572L189.301 167.612L204.559 72.852L135.809 60.984Z" fill="#EBEBEB"/>
<path d="M125.698 65.952L122.757 162.828L192.702 164.576L195.459 68.436L125.698 65.952Z" fill="#F7F7F7"/>
<path d="M125.698 65.952C126.433 65.952 153.18 66.872 195.367 68.252H195.459V68.344C194.724 95.392 193.805 128.512 192.886 164.3V164.392H192.794C192.61 164.392 192.518 164.392 192.242 164.392C167.334 163.748 143.621 163.288 122.757 162.736H122.665V162.644C124.503 105.512 125.698 67.056 125.698 65.952C125.698 66.872 124.595 105.512 122.941 162.736L122.849 162.644C143.713 163.196 167.426 163.656 192.334 164.3C192.518 164.3 192.61 164.3 192.886 164.3L192.794 164.392C193.805 128.512 194.632 95.3 195.367 68.436L195.459 68.528C153.18 67.056 126.433 65.952 125.698 65.952Z" fill="#263238"/>
<path d="M185.533 86.652C185.533 86.836 173.493 86.836 158.695 86.652C143.897 86.468 131.856 86.1 131.856 85.916C131.856 85.732 143.897 85.732 158.695 85.916C173.493 86.192 185.533 86.56 185.533 86.652Z" fill="#263238"/>
<path d="M186.085 95.3C186.085 95.484 174.044 95.484 159.246 95.3C144.449 95.116 132.408 94.748 132.408 94.564C132.408 94.38 144.449 94.38 159.246 94.564C174.044 94.748 186.085 95.116 186.085 95.3Z" fill="#263238"/>
<path d="M186.727 121.612C186.727 121.796 174.687 121.796 159.889 121.612C145.091 121.428 133.051 121.06 133.051 120.876C133.051 120.692 145.091 120.692 159.889 120.876C174.687 121.06 186.727 121.336 186.727 121.612Z" fill="#263238"/>
<path d="M186.727 113.148C186.727 113.332 174.687 113.332 159.889 113.148C145.091 112.964 133.051 112.596 133.051 112.412C133.051 112.228 145.091 112.228 159.889 112.412C174.687 112.688 186.727 113.056 186.727 113.148Z" fill="#263238"/>
<path d="M186.727 104.868C186.727 105.052 174.687 105.052 159.889 104.868C145.091 104.684 133.051 104.316 133.051 104.132C133.051 103.948 145.091 103.948 159.889 104.132C174.687 104.316 186.727 104.776 186.727 104.868Z" fill="#263238"/>
<path d="M185.992 130.812C185.992 130.996 173.952 130.996 159.154 130.812C144.356 130.628 132.315 130.26 132.315 130.076C132.315 129.892 144.356 129.892 159.154 130.076C173.952 130.26 185.992 130.536 185.992 130.812Z" fill="#263238"/>
<path d="M185.808 139.828C185.808 140.012 173.768 140.012 158.97 139.828C144.172 139.644 132.132 139.276 132.132 139.092C132.132 138.908 144.172 138.908 158.97 139.092C173.768 139.276 185.808 139.736 185.808 139.828Z" fill="#263238"/>
<path d="M185.625 148.936C185.625 149.12 173.584 149.12 158.787 148.936C143.989 148.752 131.948 148.384 131.948 148.2C131.948 148.016 143.989 148.016 158.787 148.2C173.584 148.476 185.625 148.936 185.625 148.936Z" fill="#263238"/>
<path d="M194.265 83.892C201.067 83.892 206.582 78.2902 206.582 71.38C206.582 64.4699 201.067 58.868 194.265 58.868C187.463 58.868 181.949 64.4699 181.949 71.38C181.949 78.2902 187.463 83.892 194.265 83.892Z" fill="#E8505B"/>
<path opacity="0.5" d="M194.265 83.892C201.067 83.892 206.582 78.2902 206.582 71.38C206.582 64.4699 201.067 58.868 194.265 58.868C187.463 58.868 181.949 64.4699 181.949 71.38C181.949 78.2902 187.463 83.892 194.265 83.892Z" fill="black"/>
<path d="M192.978 83.892C199.78 83.892 205.295 78.2902 205.295 71.38C205.295 64.4699 199.78 58.868 192.978 58.868C186.176 58.868 180.662 64.4699 180.662 71.38C180.662 78.2902 186.176 83.892 192.978 83.892Z" fill="#EE384E"/>
<path d="M242.611 106.892L247.758 105.42L249.137 110.664L243.99 112.136L242.611 106.892Z" fill="#EE384E"/>
<path d="M57.1328 36.052L61.5446 34.764L62.7394 39.18L58.4196 40.468L57.1328 36.052Z" fill="#0064E1"/>
<path d="M128.456 13.328L127.353 13.42C127.261 13.42 127.169 13.42 127.169 13.236C127.077 12.776 126.985 12.408 126.617 11.948C126.617 11.856 126.617 11.764 126.617 11.764L127.261 11.212V11.028V10.844L126.158 9.74003H126.066L125.515 10.384C125.515 10.476 125.331 10.476 125.331 10.384C124.963 10.2 124.503 9.92403 124.136 9.83203C124.044 9.83203 123.952 9.74003 123.952 9.64803L124.044 8.63603V8.45203H123.86H122.481H122.389V8.54403L122.481 9.55603C122.481 9.64803 122.481 9.74003 122.298 9.74003C121.93 9.83203 121.47 9.92403 121.103 10.292C121.011 10.292 120.919 10.292 120.919 10.292L120.184 9.64803H119.908H119.816L118.713 10.752V10.844V11.028L119.356 11.58C119.448 11.58 119.448 11.764 119.356 11.764C119.173 12.224 118.989 12.592 118.805 13.052C118.805 13.144 118.713 13.236 118.621 13.236L117.61 13.144H117.426V13.236V14.708V14.8H117.518L118.529 14.708C118.621 14.708 118.713 14.708 118.713 14.892C118.805 15.352 118.897 15.72 119.264 16.18C119.264 16.272 119.264 16.364 119.264 16.364L118.621 16.916V17.1V17.192L119.724 18.296H119.816H119.908L120.459 17.652C120.459 17.56 120.643 17.56 120.643 17.652C121.011 17.836 121.47 18.112 121.838 18.204C121.93 18.204 122.022 18.296 122.022 18.388L121.93 19.4V19.492H122.022H123.492H123.584V19.4L123.492 18.388C123.492 18.296 123.492 18.204 123.676 18.204C124.044 18.112 124.503 18.02 124.871 17.652C124.963 17.652 125.055 17.652 125.055 17.652L125.606 18.296H125.698H125.79L126.893 17.192V17.1V17.008L126.25 16.456C126.158 16.456 126.158 16.272 126.25 16.272C126.434 15.812 126.617 15.444 126.801 14.984C126.801 14.892 126.893 14.8 126.985 14.8L127.996 14.892H128.088V14.8L128.456 13.328ZM128.088 14.8L127.261 14.708C127.077 14.708 126.709 14.8 126.617 15.26C126.526 15.72 126.434 16.088 126.066 16.364C125.974 16.548 125.974 17.008 126.158 17.192L126.709 17.652L125.882 18.48L125.515 17.928C125.331 17.744 124.963 17.744 124.687 17.836C124.32 18.02 123.86 18.296 123.584 18.388C123.401 18.388 123.033 18.848 123.033 19.032L123.125 19.86H122.022L122.114 19.032C122.114 18.848 122.022 18.48 121.562 18.388C121.195 18.296 120.735 18.204 120.459 17.836C120.276 17.744 119.816 17.744 119.632 17.928L119.264 18.48L118.437 17.652L118.989 17.192C119.173 17.008 119.173 16.64 119.081 16.364C118.897 15.904 118.713 15.536 118.529 15.26C118.529 15.076 118.162 14.708 117.886 14.708L117.059 14.8V13.696L117.886 13.788C118.07 13.788 118.437 13.696 118.529 13.236C118.621 12.776 118.713 12.408 119.081 12.132C119.173 11.948 119.173 11.488 118.989 11.304L118.437 10.844L119.264 10.016L119.632 10.568C119.816 10.752 120.184 10.752 120.459 10.66C120.827 10.476 121.287 10.2 121.562 10.108C121.746 10.108 122.114 9.64803 122.114 9.46403L122.022 8.63603H123.125L123.033 9.46403C123.033 9.64803 123.125 10.016 123.584 10.108C123.952 10.2 124.412 10.292 124.687 10.66C124.871 10.752 125.331 10.752 125.515 10.568L125.882 10.016L126.709 10.844L126.158 11.304C125.974 11.488 125.974 11.856 126.066 12.132C126.25 12.592 126.434 12.96 126.617 13.236C126.617 13.42 126.985 13.788 127.261 13.788L128.088 13.696C128.088 13.696 128.088 14.8 128.088 14.8Z" fill="#EE384E"/>
<path d="M122.757 11.58C121.287 11.58 120.092 12.868 120.092 14.248C120.092 15.628 121.287 16.916 122.757 16.916C124.228 16.916 125.423 15.628 125.423 14.248C125.423 12.868 124.228 11.58 122.757 11.58ZM122.757 16.548C121.562 16.548 120.368 15.444 120.368 14.156C120.368 12.868 121.47 11.764 122.757 11.764C124.044 11.764 125.147 12.868 125.147 14.156C125.055 15.536 124.044 16.548 122.757 16.548Z" fill="#EE384E"/>
<path d="M223.125 42.4L221.103 42.584C220.919 42.584 220.735 42.584 220.735 42.216C220.552 41.48 220.368 40.744 219.816 39.916C219.816 39.732 219.816 39.548 219.816 39.548L220.919 38.628V38.26V38.076L218.897 35.96H218.713H218.53L217.61 37.064C217.61 37.248 217.243 37.248 217.243 37.064C216.508 36.696 215.772 36.328 215.037 36.144C214.853 36.144 214.669 35.96 214.669 35.776L214.853 33.844V33.66H214.485H212.096H211.912V33.844L212.096 35.776C212.096 35.96 212.096 36.144 211.728 36.144C210.993 36.328 210.257 36.512 209.522 37.064C209.338 37.064 209.155 37.064 209.155 37.064L208.235 35.96H207.868H207.5L205.478 38.076V38.26V38.444L206.581 39.364C206.765 39.364 206.765 39.732 206.581 39.732C206.213 40.468 205.846 41.204 205.662 42.032C205.662 42.216 205.478 42.4 205.294 42.4L203.456 42.216H203.272V42.4V45.068V45.252H203.456L205.294 45.068C205.478 45.068 205.662 45.068 205.662 45.436C205.846 46.172 206.03 46.908 206.581 47.736C206.581 47.92 206.581 48.104 206.581 48.104L205.478 49.024V49.208V49.392L207.5 51.508H207.684H207.868L208.787 50.404C208.787 50.22 209.155 50.22 209.155 50.404C209.89 50.772 210.625 51.14 211.36 51.324C211.544 51.324 211.728 51.508 211.728 51.692L211.544 53.624V53.808H211.728H214.302H214.485V53.624L214.302 51.692C214.302 51.508 214.302 51.324 214.669 51.324C215.405 51.14 216.14 50.956 216.875 50.404C217.059 50.404 217.243 50.404 217.243 50.404L218.162 51.508H218.346H218.53L220.552 49.392V49.208V49.024L219.449 48.104C219.265 48.104 219.265 47.736 219.449 47.736C219.816 47 220.184 46.264 220.368 45.436C220.368 45.252 220.552 45.068 220.735 45.068L222.574 45.252H222.758V45.068L223.125 42.4ZM222.206 45.068L220.735 44.884C220.368 44.884 219.816 45.068 219.633 45.804C219.449 46.54 219.265 47.276 218.713 47.92C218.53 48.288 218.53 49.024 218.897 49.392L219.816 50.128L218.346 51.6L217.61 50.68C217.243 50.312 216.691 50.312 216.14 50.496C215.405 50.864 214.669 51.232 214.118 51.416C213.75 51.416 213.199 52.152 213.199 52.52L213.382 53.992H211.544L211.728 52.52C211.728 52.152 211.544 51.6 210.809 51.416C210.074 51.232 209.338 51.048 208.787 50.496C208.419 50.312 207.684 50.312 207.316 50.68L206.581 51.6L205.11 50.128L206.03 49.392C206.397 49.024 206.397 48.472 206.213 47.92C205.846 47.184 205.478 46.448 205.294 45.804C205.294 45.436 204.559 44.884 204.191 44.884L202.721 45.068V42.952L204.191 43.136C204.559 43.136 205.11 42.952 205.294 42.216C205.478 41.48 205.662 40.744 206.213 40.1C206.397 39.732 206.397 38.996 206.03 38.628L205.11 37.892L206.581 36.42L207.316 37.34C207.684 37.708 208.235 37.708 208.787 37.524C209.522 37.156 210.257 36.788 210.809 36.604C211.177 36.604 211.728 35.868 211.728 35.5L211.544 34.028H213.566L213.382 35.776C213.382 36.144 213.566 36.696 214.302 36.88C215.037 37.064 215.772 37.248 216.324 37.8C216.691 37.984 217.427 37.984 217.794 37.616L218.53 36.696L220 38.168L219.081 38.904C218.713 39.272 218.713 39.824 218.897 40.376C219.265 41.112 219.632 41.848 219.816 42.492C219.816 42.86 220.552 43.412 220.919 43.412L222.39 43.228C222.206 43.228 222.206 45.068 222.206 45.068Z" fill="#0064E1"/>
<path d="M212.923 39.1801C210.35 39.1801 208.052 41.4801 208.052 44.1481C208.052 46.8161 210.258 49.1161 212.923 49.1161C215.497 49.1161 217.794 46.8161 217.794 44.1481C217.703 41.4801 215.497 39.1801 212.923 39.1801ZM212.923 48.2881C210.717 48.2881 208.603 46.1721 208.603 43.9641C208.603 41.6641 210.625 39.6401 212.923 39.6401C215.221 39.6401 217.243 41.7561 217.243 43.9641C216.783 46.6321 215.129 48.2881 212.923 48.2881Z" fill="#0064E1"/>
<path d="M209.155 142.772C209.155 142.772 211.452 141.852 211.361 139.092C211.269 136.424 209.798 134.492 212.555 135.32C215.313 136.056 216.232 136.424 218.346 136.056C220.46 135.688 222.022 134.768 221.195 137.436C220.276 140.104 219.357 142.312 221.379 142.772C223.401 143.232 225.699 141.668 225.975 145.808C226.25 149.948 222.849 154.64 217.519 154.916C212.188 155.192 209.798 152.8 209.798 152.8C209.798 152.8 208.327 150.684 210.625 150.224C212.923 149.672 215.129 148.752 214.026 147.74C212.923 146.728 209.155 146.636 209.155 146.636C209.155 146.636 204.467 145.532 209.155 142.772Z" fill="#649EEA"/>
<path d="M233.604 143.416C233.236 140.84 233.512 138.816 238.383 138.08C243.254 137.344 246.104 140.38 246.379 143.416C246.655 146.452 242.427 147.556 242.427 147.556C242.427 147.556 239.486 148.384 240.956 151.144C242.519 153.812 243.254 156.388 239.762 156.756C236.269 157.216 232.593 156.204 230.387 154.732C228.365 153.26 226.067 149.764 228.548 147.832C228.548 147.832 229.284 147.28 231.49 147.188C233.879 147.188 233.604 143.416 233.604 143.416Z" fill="#023EA1"/>
<path d="M216.508 142.956C216.508 142.956 220.552 152.248 221.103 158.504" stroke="#023EA1" stroke-miterlimit="10"/>
<path d="M238.934 144.612C238.934 144.612 231.765 155.376 230.11 158.964" stroke="#649EEA" stroke-miterlimit="10"/>
<path d="M218.621 157.952H235.073C235.073 157.952 236.912 158.044 236.728 160.528C236.636 162.828 233.787 162.276 232.224 162.276C230.662 162.276 218.254 162.276 218.254 162.276C218.254 162.276 216.231 162.552 216.231 160.252C216.231 158.136 217.059 157.952 218.621 157.952Z" fill="#0054A5"/>
<path d="M218.254 162.276L220.736 176.996H231.765L233.603 165.956L218.254 162.276Z" fill="#0054A5"/>
<path d="M218.254 162.276L233.603 165.956L234.247 162.276H218.254Z" fill="#006AD5"/>
<path d="M225.331 158.412C225.331 158.412 226.158 142.036 231.03 131.824" stroke="#FCBE42" stroke-miterlimit="10"/>
<path d="M234.982 125.936C234.982 125.936 235.349 130.904 230.57 132.928C230.478 132.836 229.467 128.696 234.982 125.936Z" fill="#FCBE42"/>
<path d="M227.721 141.944C227.721 141.944 229.467 137.712 234.89 138.172C234.982 138.172 234.522 142.496 227.721 141.944Z" fill="#FCBE42"/>
<path d="M225.883 152.708C225.883 152.708 226.802 148.108 232.225 147.556C232.317 147.556 232.684 151.972 225.883 152.708Z" fill="#FCBE42"/>
<path d="M225.699 152.708C225.699 152.708 226.342 148.108 221.379 145.716C221.379 145.716 219.632 149.672 225.699 152.708Z" fill="#FCBE42"/>
<path d="M227.72 141.852C227.72 141.852 228.915 137.344 224.319 134.4C224.319 134.492 222.113 138.172 227.72 141.852Z" fill="#FCBE42"/>
</g>
<defs>
<clipPath id="clip0_1409_4158">
<rect width="229.78" height="184" fill="white" transform="translate(20 1)"/>
</clipPath>
</defs>
</svg>
