<svg width="340" height="270" viewBox="0 0 340 270" fill="none" xmlns="http://www.w3.org/2000/svg">
<g clip-path="url(#clip0_1409_2651)">
<path d="M36.5903 35.2499C36.5903 35.2499 34.3327 40.3039 38.7151 39.9049C43.0975 39.5059 45.3551 40.4369 45.2223 44.8259C44.9567 49.3479 46.9487 51.7419 49.4719 52.0079C52.1279 52.2739 56.9087 52.2739 56.2447 58.1259C55.5807 64.1109 55.1823 75.6819 48.6751 75.9479C42.1679 76.2139 34.9967 68.7659 35.3951 64.2439C35.7935 59.7219 38.8479 56.9289 34.9967 53.8699C31.2783 50.6779 28.6223 54.5349 26.2319 50.0129C23.7087 45.3579 20.6543 40.8359 26.3647 36.0479C31.0127 31.6589 36.9887 32.1909 36.5903 35.2499Z" stroke="#1C4599" stroke-miterlimit="10"/>
<path d="M33.0049 40.8359C33.0049 40.8359 48.8081 70.2289 54.3857 76.7459" stroke="#1C4599" stroke-width="0.5" stroke-miterlimit="10"/>
<path d="M49.2061 56.2639L46.2845 64.5099L39.1133 64.3769" stroke="#1C4599" stroke-width="0.5" stroke-miterlimit="10"/>
<path d="M40.5743 43.2299L37.6527 48.9489L31.4111 49.6139" stroke="#1C4599" stroke-width="0.5" stroke-miterlimit="10"/>
<path d="M9.76461 56.1309C9.76461 56.1309 4.71821 55.3328 5.51501 50.9438C6.17901 46.6878 12.0222 43.7618 14.6782 46.0228C17.467 48.1508 16.803 51.2098 19.5918 50.2788C22.3806 49.4808 30.2158 48.2839 30.4814 52.1409C30.747 56.1309 26.8958 58.2589 30.747 61.7169C34.5982 65.1749 43.2302 61.7168 42.035 69.8298C40.8398 77.9428 34.9966 91.2428 24.6382 83.6619C14.4126 76.0809 26.4974 72.3568 17.2014 68.8988C7.90541 65.4408 12.819 62.6478 13.0846 59.3228C13.2174 55.9978 9.76461 56.1309 9.76461 56.1309Z" fill="#ED3B4E"/>
<path d="M18.3965 56.3969C18.3965 56.3969 25.0365 67.9678 34.1997 75.5488C43.3629 83.1298 46.5501 83.2628 46.5501 83.2628" stroke="white" stroke-width="0.5" stroke-miterlimit="10" stroke-linecap="round" stroke-linejoin="round"/>
<path d="M321.893 91.7906C321.893 91.7906 315.997 91.9346 318.298 95.9676C320.743 100.001 320.887 102.737 316.572 104.61C312.114 106.482 310.675 109.507 311.538 112.1C312.545 114.836 314.702 119.446 308.662 121.462C302.478 123.623 291.116 128.664 287.808 122.326C284.5 115.989 288.527 105.618 292.985 103.89C297.444 102.161 301.758 103.89 302.909 98.7043C304.347 93.519 299.314 92.7988 302.621 88.3337C306.073 83.7245 308.95 78.5392 316.284 81.9961C322.756 84.7328 325.057 90.7823 321.893 91.7906Z" stroke="#1C4599" stroke-miterlimit="10"/>
<path d="M314.703 90.9262C314.703 90.9262 293.274 120.022 289.534 128.52" stroke="#1C4599" stroke-width="0.5" stroke-miterlimit="10"/>
<path d="M307.225 113.972L297.876 114.98L294.568 107.779" stroke="#1C4599" stroke-width="0.5" stroke-miterlimit="10"/>
<path d="M315.853 99.4244L308.95 99.1363L305.498 93.3748" stroke="#1C4599" stroke-width="0.5" stroke-miterlimit="10"/>
<path d="M333.686 101.441C333.686 101.441 340.302 110.803 334.837 112.82C329.228 114.692 329.515 117.429 330.091 120.166C330.522 122.902 333.255 127.512 327.358 129.24C321.317 130.969 317.578 129.384 315.852 132.265C313.983 135.146 302.765 143.932 300.751 138.314C298.45 132.697 303.052 125.927 305.929 123.623C308.661 121.318 308.517 116.277 307.655 112.388C306.792 108.643 308.374 103.602 312.976 105.042C317.722 106.626 322.324 104.034 323.331 100.433C323.762 96.8318 329.228 95.2474 333.686 101.441Z" fill="#FABD41"/>
<path d="M328.509 106.626L296.006 140.187" stroke="white" stroke-width="0.5" stroke-miterlimit="10" stroke-linecap="round" stroke-linejoin="round"/>
<path d="M325.921 122.758L315.134 120.166L312.833 109.075" stroke="white" stroke-width="0.5" stroke-miterlimit="10" stroke-linecap="round" stroke-linejoin="round"/>
<path d="M83.4682 66.1059C83.3354 66.1059 83.0698 66.1059 82.937 65.9729C82.5386 65.7069 82.5386 65.1749 82.8042 64.9089C82.8042 64.9089 83.3354 64.2439 84.265 63.0469C84.5306 62.6479 85.0618 62.6479 85.3274 62.9139C85.7258 63.1799 85.7258 63.7119 85.4602 63.9779C84.5306 65.0419 83.9994 65.7069 83.9994 65.7069C83.9994 65.9729 83.7338 66.1059 83.4682 66.1059Z" fill="#1466B1"/>
<path d="M88.1161 60.9189C87.8505 60.9189 87.7177 60.7859 87.5849 60.6529C87.3193 60.3869 87.3193 59.8549 87.5849 59.4559C87.8505 59.1899 88.2489 58.7909 88.5145 58.5249C88.7801 58.2589 89.3114 58.2589 89.7098 58.5249C89.9754 58.7909 89.9754 59.3229 89.7098 59.7219C89.4442 59.9879 89.0457 60.3869 88.7801 60.6529C88.5145 60.7859 88.2489 60.9189 88.1161 60.9189Z" fill="#1466B1"/>
<path d="M249.469 58.7909C249.203 58.7909 249.07 58.6579 248.937 58.5249C248.273 57.8599 247.609 57.3279 247.078 56.6629C246.813 56.3969 246.68 55.8649 247.078 55.4659C247.344 55.1999 247.875 55.0669 248.273 55.4659C248.937 56.1309 249.601 56.6629 250.265 57.3279C250.531 57.5939 250.531 58.1259 250.265 58.5249C249.867 58.6579 249.601 58.7909 249.469 58.7909ZM91.8349 57.3279C91.5693 57.3279 91.4365 57.1949 91.3037 57.0619C91.0381 56.7959 91.0381 56.2639 91.3037 55.8649C91.9677 55.3329 92.6317 54.6679 93.2957 54.1359C93.6941 53.8699 94.0925 53.8699 94.4909 54.2689C94.7565 54.6679 94.7565 55.0669 94.3581 55.4659C93.6941 55.9979 93.0301 56.6629 92.3661 57.1949C92.2333 57.1949 92.1005 57.3279 91.8349 57.3279ZM244.555 54.4019C244.422 54.4019 244.157 54.4019 244.024 54.2689C243.36 53.7369 242.696 53.0719 242.032 52.5399C241.633 52.2739 241.633 51.7419 241.899 51.4759C242.165 51.0769 242.696 51.0769 242.961 51.3429C243.625 51.8749 244.289 52.5399 244.953 53.0719C245.352 53.3379 245.352 53.8699 245.086 54.1359C245.086 54.2689 244.821 54.4019 244.555 54.4019ZM96.8813 52.9389C96.6157 52.9389 96.4829 52.8059 96.2173 52.6729C95.9517 52.2739 95.9517 51.8749 96.3501 51.6089C97.0141 51.0769 97.8109 50.5449 98.4749 49.8799C98.8733 49.6139 99.2717 49.6139 99.5373 50.0129C99.8029 50.4119 99.8029 50.8109 99.4045 51.0769C98.7405 51.6089 98.0765 52.1409 97.2797 52.6729C97.1469 52.9389 97.0141 52.9389 96.8813 52.9389ZM239.509 50.1459C239.376 50.1459 239.11 50.1459 238.977 50.0129C238.313 49.4809 237.517 48.9489 236.853 48.4169C236.454 48.1509 236.454 47.6189 236.72 47.3529C236.985 46.9539 237.517 46.9539 237.782 47.2199C238.446 47.7519 239.243 48.2839 239.907 48.8159C240.305 49.0819 240.305 49.6139 240.04 49.8799C240.04 50.1459 239.774 50.1459 239.509 50.1459ZM102.06 48.9489C101.795 48.9489 101.529 48.8159 101.396 48.6829C101.131 48.2839 101.264 47.8849 101.529 47.6189C102.193 47.0869 102.99 46.5549 103.787 46.0229C104.185 45.7569 104.584 45.8899 104.849 46.2889C105.115 46.6879 104.982 47.0869 104.584 47.3529C103.92 47.8849 103.123 48.4169 102.459 48.8159C102.326 48.9489 102.193 48.9489 102.06 48.9489ZM234.197 46.4219C234.064 46.4219 233.931 46.4219 233.798 46.2889C233.134 45.7569 232.337 45.3579 231.541 44.8259C231.142 44.5599 231.009 44.0279 231.275 43.7619C231.541 43.3629 232.072 43.2299 232.337 43.4959C233.134 44.0279 233.798 44.4269 234.595 44.9589C234.993 45.2249 234.993 45.7569 234.861 46.0229C234.728 46.2889 234.462 46.4219 234.197 46.4219ZM107.505 45.2249C107.24 45.2249 106.974 45.0919 106.841 44.8259C106.576 44.4269 106.708 43.8949 107.107 43.7619C107.904 43.2299 108.568 42.8309 109.364 42.2989C109.763 42.0329 110.294 42.1659 110.427 42.5649C110.692 42.9639 110.56 43.4959 110.161 43.6289C109.364 44.0279 108.7 44.5599 107.904 45.0919C107.771 45.2249 107.638 45.2249 107.505 45.2249ZM228.619 42.8309C228.486 42.8309 228.353 42.8309 228.221 42.6979C227.424 42.2989 226.76 41.7669 225.963 41.3679C225.565 41.1019 225.432 40.7029 225.697 40.3039C225.963 39.9049 226.361 39.7719 226.76 40.0379C227.557 40.4369 228.353 40.9689 229.15 41.3679C229.549 41.6339 229.681 42.0329 229.416 42.4319C229.15 42.6979 228.885 42.8309 228.619 42.8309ZM113.083 41.8999C112.817 41.8999 112.552 41.7669 112.419 41.5009C112.153 41.1019 112.286 40.5699 112.684 40.4369C113.481 40.0379 114.278 39.5059 115.075 39.1069C115.473 38.8409 116.004 39.1069 116.137 39.3729C116.403 39.7719 116.137 40.3039 115.872 40.4369C115.075 40.8359 114.278 41.2349 113.614 41.7669C113.348 41.8999 113.216 41.8999 113.083 41.8999ZM222.909 39.6389C222.776 39.6389 222.643 39.6389 222.51 39.5059C221.713 39.1069 220.917 38.7079 220.12 38.3089C219.721 38.1759 219.589 37.6439 219.721 37.2449C219.854 36.8459 220.385 36.7129 220.784 36.8459C221.581 37.2449 222.377 37.6439 223.174 38.0429C223.573 38.3089 223.705 38.7079 223.573 39.1069C223.44 39.5059 223.174 39.6389 222.909 39.6389ZM118.926 38.8409C118.66 38.8409 118.395 38.7079 118.262 38.4419C118.129 38.0429 118.262 37.5109 118.66 37.3779C119.457 36.9789 120.254 36.5799 121.051 36.1809C121.449 36.0479 121.98 36.1809 122.113 36.5799C122.246 36.9789 122.113 37.5109 121.715 37.6439C120.918 38.0429 120.121 38.4419 119.324 38.8409C119.192 38.8409 119.059 38.8409 118.926 38.8409ZM216.933 36.8459C216.8 36.8459 216.667 36.8459 216.667 36.7129C215.87 36.3139 215.073 36.0479 214.277 35.6489C213.878 35.5159 213.613 34.9839 213.878 34.5849C214.011 34.1859 214.542 33.9199 214.941 34.1859C215.737 34.5849 216.534 34.8509 217.464 35.2499C217.862 35.3829 217.995 35.9149 217.862 36.3139C217.597 36.7129 217.198 36.8459 216.933 36.8459ZM124.902 36.1809C124.637 36.1809 124.238 36.0479 124.105 35.6489C123.972 35.2499 124.105 34.7179 124.504 34.5849C125.3 34.1859 126.097 33.9199 127.027 33.5209C127.425 33.3879 127.956 33.5209 128.089 33.9199C128.222 34.3189 128.089 34.8509 127.691 34.9839C126.894 35.2499 126.097 35.6489 125.3 35.9149C125.168 36.0479 125.035 36.1809 124.902 36.1809ZM210.824 34.3189C210.691 34.3189 210.691 34.3189 210.558 34.3189C209.761 34.0529 208.965 33.6539 208.035 33.3879C207.637 33.2549 207.371 32.7229 207.504 32.3239C207.637 31.9249 208.168 31.6589 208.566 31.7919C209.363 32.0579 210.293 32.4569 211.089 32.7229C211.488 32.8559 211.753 33.3879 211.621 33.7869C211.488 34.1859 211.222 34.3189 210.824 34.3189ZM131.011 33.7869C130.745 33.7869 130.347 33.5209 130.214 33.2549C130.081 32.8559 130.347 32.3239 130.745 32.1909C131.542 31.9249 132.472 31.6589 133.268 31.2599C133.667 31.1269 134.198 31.3929 134.331 31.7919C134.464 32.1909 134.198 32.7229 133.8 32.8559C133.003 33.1219 132.073 33.3879 131.276 33.6539C131.276 33.7869 131.144 33.7869 131.011 33.7869ZM204.715 32.1909C204.582 32.1909 204.582 32.1909 204.449 32.1909C203.653 31.9249 202.723 31.6589 201.926 31.3929C201.528 31.2599 201.262 30.8609 201.395 30.4619C201.528 30.0629 201.926 29.7969 202.325 29.9299C203.121 30.1959 204.051 30.4619 204.848 30.7279C205.246 30.8609 205.512 31.2599 205.379 31.7919C205.379 32.0579 204.981 32.1909 204.715 32.1909ZM137.252 31.7919C136.854 31.7919 136.589 31.5259 136.456 31.2599C136.323 30.8609 136.589 30.3289 136.987 30.3289C137.784 30.0629 138.713 29.7969 139.51 29.6639C139.909 29.5309 140.44 29.7969 140.44 30.1959C140.573 30.5949 140.307 31.1269 139.908 31.1269C139.112 31.3929 138.182 31.5259 137.252 31.7919C137.385 31.7919 137.385 31.7919 137.252 31.7919ZM198.341 30.4619H198.208C197.411 30.1959 196.481 30.0629 195.685 29.7969C195.286 29.6639 195.021 29.2649 195.021 28.8659C195.153 28.4669 195.552 28.2009 195.95 28.2009C196.88 28.3339 197.677 28.5999 198.606 28.8659C199.005 28.9989 199.27 29.3979 199.137 29.7969C199.005 30.1959 198.739 30.4619 198.341 30.4619ZM143.627 30.0629C143.229 30.0629 142.963 29.7969 142.83 29.3979C142.697 28.9989 142.963 28.5999 143.494 28.4669C144.424 28.3339 145.221 28.0679 146.15 27.9349C146.549 27.8019 146.947 28.0679 147.08 28.5999C147.213 28.9989 146.947 29.3979 146.416 29.5309C145.619 29.6639 144.689 29.9299 143.892 30.0629C143.76 30.0629 143.76 30.0629 143.627 30.0629ZM191.966 29.1319H191.833C191.037 28.9989 190.107 28.8659 189.177 28.7329C188.779 28.5999 188.381 28.2009 188.513 27.8019C188.646 27.4029 189.044 27.0039 189.443 27.1369C190.373 27.2699 191.169 27.4029 192.099 27.5359C192.497 27.6689 192.763 28.0679 192.763 28.4669C192.63 28.8659 192.232 29.1319 191.966 29.1319ZM150.134 28.8659C149.736 28.8659 149.47 28.5999 149.337 28.2009C149.204 27.8019 149.603 27.4029 150.001 27.2699C150.931 27.1369 151.728 27.0039 152.657 26.8709C153.056 26.8709 153.454 27.1369 153.587 27.5359C153.587 27.9349 153.321 28.3339 152.923 28.4669C151.993 28.5999 151.197 28.7329 150.134 28.8659ZM185.459 28.0679C184.529 27.9349 183.6 27.8019 182.67 27.8019C182.272 27.8019 181.873 27.4029 182.006 26.8709C182.006 26.4719 182.405 26.0729 182.936 26.2059C183.865 26.3389 184.662 26.3389 185.592 26.4719C185.99 26.4719 186.389 26.8709 186.256 27.4029C186.123 27.8019 185.857 28.0679 185.459 28.0679ZM156.641 27.9349C156.243 27.9349 155.845 27.6689 155.845 27.2699C155.845 26.8709 156.11 26.4719 156.509 26.3389C157.438 26.2059 158.235 26.2059 159.165 26.0729C159.563 26.0729 159.961 26.3389 160.094 26.7379C160.094 27.1369 159.829 27.5359 159.43 27.6689C158.368 27.6689 157.571 27.8019 156.641 27.9349ZM178.952 27.4029C178.819 27.4029 178.819 27.4029 178.952 27.4029C178.022 27.4029 177.093 27.2699 176.296 27.2699C175.897 27.2699 175.499 26.8709 175.499 26.4719C175.499 26.0729 175.897 25.6739 176.296 25.6739C177.225 25.6739 178.022 25.8069 178.952 25.8069C179.35 25.8069 179.749 26.2059 179.749 26.6049C179.616 27.1369 179.35 27.4029 178.952 27.4029ZM163.149 27.2699C162.75 27.2699 162.352 27.0039 162.352 26.4719C162.352 26.0729 162.617 25.6739 163.149 25.6739C164.078 25.6739 164.875 25.5409 165.805 25.5409C166.203 25.5409 166.601 25.8069 166.601 26.3389C166.601 26.7379 166.336 27.1369 165.805 27.1369C164.875 27.2699 164.078 27.2699 163.149 27.2699ZM172.312 27.1369C171.382 27.1369 170.585 27.1369 169.656 27.1369C169.257 27.1369 168.859 26.7379 168.859 26.3389C168.859 25.9399 169.257 25.5409 169.656 25.5409C170.585 25.5409 171.382 25.5409 172.312 25.5409C172.71 25.5409 173.109 25.9399 173.109 26.3389C173.109 26.7379 172.843 27.1369 172.312 27.1369Z" fill="#1466B1"/>
<path d="M253.054 62.5149C252.788 62.5149 252.655 62.3819 252.522 62.2489C252.257 61.9829 251.991 61.5839 251.593 61.3179C251.327 61.0519 251.327 60.5199 251.593 60.1209C251.858 59.8549 252.39 59.8549 252.788 60.1209C253.054 60.5199 253.452 60.7859 253.718 61.0519C253.983 61.3179 253.983 61.8499 253.718 62.2489C253.452 62.5149 253.319 62.5149 253.054 62.5149Z" fill="#1466B1"/>
<path d="M256.109 66.1059C255.843 66.1059 255.578 65.9729 255.445 65.8399C255.445 65.8399 254.914 65.1749 253.984 64.1109C253.718 63.7119 253.718 63.3129 254.117 63.0469C254.515 62.7809 254.914 62.7809 255.179 63.1799C256.109 64.3769 256.64 65.0419 256.64 65.0419C256.906 65.4409 256.773 65.8399 256.507 66.1059C256.374 66.1059 256.242 66.1059 256.109 66.1059Z" fill="#1466B1"/>
<path d="M104.583 31.1269L97.8102 32.7229C97.0134 32.8559 96.615 33.6539 96.7478 34.4519L101.13 52.8059C101.396 54.0029 102.591 54.8009 103.786 54.5349L127.69 48.8159C128.487 48.6829 128.885 47.8849 128.753 47.2199L124.636 30.1959C124.503 29.5309 123.839 29.1319 123.175 29.2649L109.231 32.5899L104.583 31.1269Z" fill="#FB9001"/>
<path d="M128.62 47.2199L125.831 35.3829L98.3418 41.8999L101.131 53.7369C101.263 54.5349 102.06 54.9339 102.724 54.8009L127.558 48.8159C128.355 48.6829 128.886 47.8849 128.62 47.2199Z" fill="#FABD41"/>
<path d="M99.9354 41.5008L124.238 35.6488C123.839 33.7868 121.847 32.5898 119.988 32.9888L102.459 37.1118C100.599 37.7768 99.4042 39.6388 99.9354 41.5008Z" fill="white"/>
<path opacity="0.6" d="M121.714 34.5848L122.112 36.1808L121.05 36.4468L120.652 34.8508C120.519 34.5848 120.784 34.3188 121.05 34.1858C121.448 34.0528 121.714 34.3188 121.714 34.5848Z" fill="#D2C5E6"/>
<path opacity="0.6" d="M119.323 35.1168L119.722 36.7128L118.659 36.9788L118.261 35.3828C118.128 35.1168 118.394 34.8508 118.659 34.7178C119.058 34.7178 119.323 34.8508 119.323 35.1168Z" fill="#D2C5E6"/>
<path opacity="0.6" d="M116.934 35.6488L117.332 37.2448L116.27 37.5108L115.871 35.9148C115.738 35.6488 116.004 35.3828 116.27 35.2498C116.535 35.2498 116.934 35.3828 116.934 35.6488Z" fill="#D2C5E6"/>
<path opacity="0.6" d="M114.543 36.3138L114.941 37.9098L113.879 38.1758L113.481 36.5798C113.348 36.3138 113.613 36.0478 113.879 35.9148C114.145 35.7818 114.543 36.0478 114.543 36.3138Z" fill="#D2C5E6"/>
<path opacity="0.6" d="M112.152 36.8458L112.551 38.4418L111.488 38.7078L111.09 37.1118C110.957 36.8458 111.223 36.5798 111.488 36.4468C111.754 36.4468 112.02 36.5798 112.152 36.8458Z" fill="#D2C5E6"/>
<path opacity="0.6" d="M109.762 37.3778L110.16 38.9738L109.098 39.2398L108.699 37.6438C108.567 37.3778 108.832 37.1118 109.098 36.9788C109.363 36.9788 109.629 37.1118 109.762 37.3778Z" fill="#D2C5E6"/>
<path opacity="0.6" d="M107.372 38.0428L107.771 39.6388L106.708 39.9048L106.31 38.3088C106.177 38.0428 106.443 37.7768 106.708 37.6438C106.974 37.5108 107.239 37.7768 107.372 38.0428Z" fill="#D2C5E6"/>
<path opacity="0.6" d="M104.982 38.5748L105.38 40.1708L104.318 40.4368L103.919 38.8408C103.786 38.5748 104.052 38.3088 104.318 38.1758C104.583 38.1758 104.849 38.3088 104.982 38.5748Z" fill="#D2C5E6"/>
<path opacity="0.6" d="M102.458 39.1068L102.856 40.7028L101.794 40.9688L101.396 39.3728C101.263 39.1068 101.528 38.8408 101.794 38.7078C102.192 38.7078 102.458 38.8408 102.458 39.1068Z" fill="#D2C5E6"/>
<path d="M226.095 28.4669L219.322 26.4719C218.525 26.2059 217.729 26.7379 217.463 27.4029L212.018 45.4909C211.62 46.6879 212.284 47.8849 213.479 48.2839L237.117 55.4659C237.781 55.7319 238.578 55.3329 238.844 54.5349L243.89 37.7769C244.023 37.1119 243.757 36.4469 243.093 36.3139L229.415 31.9249L226.095 28.4669Z" fill="#FB9001"/>
<path d="M238.844 54.4018L242.297 42.6978L215.206 34.5848L211.753 46.2888C211.487 46.9538 211.886 47.7518 212.682 48.0178L237.118 55.3328C237.914 55.5988 238.578 55.1998 238.844 54.4018Z" fill="#FABD41"/>
<path d="M216.799 34.9839L240.703 42.1659C241.234 40.3039 240.172 38.3089 238.312 37.7769L221.181 32.5899C219.322 32.0579 217.463 33.1219 216.799 34.9839Z" fill="white"/>
<path opacity="0.6" d="M239.242 40.0379L238.711 41.6339L237.648 41.3679L238.18 39.7719C238.312 39.5059 238.578 39.3729 238.844 39.3729C239.109 39.3729 239.375 39.7719 239.242 40.0379Z" fill="#D2C5E6"/>
<path opacity="0.6" d="M236.851 39.2399L236.32 40.8359L235.258 40.5699L235.789 38.9739C235.922 38.7079 236.187 38.5749 236.453 38.5749C236.851 38.7079 236.984 38.9739 236.851 39.2399Z" fill="#D2C5E6"/>
<path opacity="0.6" d="M234.462 38.5749L233.931 40.1709L232.868 39.9049L233.399 38.3089C233.532 38.0429 233.798 37.9099 234.063 37.9099C234.462 38.0429 234.595 38.3089 234.462 38.5749Z" fill="#D2C5E6"/>
<path opacity="0.6" d="M232.071 37.9099L231.54 39.5059L230.478 39.2399L231.009 37.6439C231.142 37.3779 231.407 37.2449 231.673 37.2449C232.071 37.2449 232.204 37.6439 232.071 37.9099Z" fill="#D2C5E6"/>
<path opacity="0.6" d="M229.813 37.1119L229.282 38.7079L228.22 38.4419L228.751 36.8459C228.884 36.5799 229.149 36.4469 229.415 36.4469C229.681 36.5799 229.813 36.8459 229.813 37.1119Z" fill="#D2C5E6"/>
<path opacity="0.6" d="M227.423 36.4469L226.892 38.0429L225.829 37.7769L226.36 36.1809C226.493 35.9149 226.759 35.7819 227.024 35.7819C227.29 35.7819 227.423 36.1809 227.423 36.4469Z" fill="#D2C5E6"/>
<path opacity="0.6" d="M225.033 35.7819L224.502 37.3779L223.439 37.1119L223.971 35.5159C224.103 35.2499 224.369 35.1169 224.635 35.1169C224.9 35.1169 225.166 35.3829 225.033 35.7819Z" fill="#D2C5E6"/>
<path opacity="0.6" d="M222.642 34.9838L222.111 36.5798L221.049 36.3138L221.58 34.7178C221.713 34.4518 221.978 34.3188 222.244 34.3188C222.642 34.4518 222.775 34.7178 222.642 34.9838Z" fill="#D2C5E6"/>
<path opacity="0.6" d="M220.252 34.3189L219.721 35.9149L218.658 35.6489L219.189 34.0529C219.322 33.7869 219.588 33.6539 219.853 33.6539C220.252 33.6539 220.385 34.0529 220.252 34.3189Z" fill="#D2C5E6"/>
<path d="M166.335 12.6399H159.297C158.5 12.6399 157.836 13.3049 157.836 14.1029V32.9889C157.836 34.1859 158.898 35.2499 160.094 35.2499L184.662 35.1169C185.458 35.1169 185.99 34.4519 185.99 33.7869V16.2309C185.99 15.5659 185.458 15.0339 184.794 15.0339H170.452L166.335 12.6399Z" fill="#FB9001"/>
<path d="M186.122 33.7869V21.5509L157.836 21.6839V33.9199C157.836 34.7179 158.5 35.2499 159.164 35.2499L184.662 35.1169C185.591 35.1169 186.122 34.5849 186.122 33.7869Z" fill="#FABD41"/>
<path d="M159.43 21.6839L184.396 21.5509C184.396 19.5559 182.802 17.9599 180.81 18.0929H162.882C161.023 18.0929 159.43 19.6889 159.43 21.6839Z" fill="white"/>
<path opacity="0.6" d="M182.404 19.9549V21.6839H181.342V19.9549C181.342 19.6889 181.607 19.4229 181.873 19.4229C182.139 19.4229 182.404 19.5559 182.404 19.9549Z" fill="#D2C5E6"/>
<path opacity="0.6" d="M179.881 19.9549V21.6839H178.818V19.9549C178.818 19.6889 179.084 19.4229 179.35 19.4229C179.615 19.4229 179.881 19.5559 179.881 19.9549Z" fill="#D2C5E6"/>
<path opacity="0.6" d="M177.358 19.9549V21.6839H176.296V19.9549C176.296 19.6889 176.561 19.4229 176.827 19.4229C177.093 19.4229 177.358 19.5559 177.358 19.9549Z" fill="#D2C5E6"/>
<path opacity="0.6" d="M174.968 19.9549V21.6839H173.905V19.9549C173.905 19.6889 174.171 19.4229 174.436 19.4229C174.702 19.4229 174.968 19.6889 174.968 19.9549Z" fill="#D2C5E6"/>
<path opacity="0.6" d="M172.444 19.9549V21.6839H171.382V19.9549C171.382 19.6889 171.647 19.4229 171.913 19.4229C172.179 19.4229 172.444 19.6889 172.444 19.9549Z" fill="#D2C5E6"/>
<path opacity="0.6" d="M169.921 19.9549V21.6839H168.858V19.9549C168.858 19.6889 169.124 19.4229 169.39 19.4229C169.655 19.4229 169.921 19.6889 169.921 19.9549Z" fill="#D2C5E6"/>
<path opacity="0.6" d="M167.531 19.9549V21.6839H166.469V19.9549C166.469 19.6889 166.734 19.4229 167 19.4229C167.266 19.4229 167.531 19.6889 167.531 19.9549Z" fill="#D2C5E6"/>
<path opacity="0.6" d="M165.008 19.9549V21.6839H163.945V19.9549C163.945 19.6889 164.211 19.4229 164.477 19.4229C164.742 19.4229 165.008 19.6889 165.008 19.9549Z" fill="#D2C5E6"/>
<path opacity="0.6" d="M162.484 19.9549V21.6839H161.422V19.9549C161.422 19.6889 161.687 19.4229 161.953 19.4229C162.351 19.4229 162.484 19.6889 162.484 19.9549Z" fill="#D2C5E6"/>
<path d="M33.8018 73.8199V245.656C33.8018 251.109 38.1842 255.365 43.4962 255.365H128.887C131.543 255.365 134.066 254.301 135.792 252.439C137.519 250.71 138.581 248.183 138.581 245.523V73.8199C138.581 68.3669 134.199 64.1109 128.887 64.1109H43.629C42.0354 64.1109 40.5746 64.5099 39.2466 65.1749C36.0594 66.7709 33.8018 70.0959 33.8018 73.8199Z" fill="#012257"/>
<path d="M37.5195 73.8199V245.656C37.5195 251.109 41.9019 255.365 47.2139 255.365H132.604C135.26 255.365 137.784 254.301 139.51 252.439C141.236 250.71 142.299 248.183 142.299 245.523V73.8199C142.299 68.3669 137.916 64.1109 132.604 64.1109H47.2139C45.6203 64.1109 44.1595 64.5099 42.8315 65.1749C39.6443 66.7709 37.5195 70.0959 37.5195 73.8199Z" fill="#1466B1"/>
<path d="M35.6608 106.405C33.6688 106.405 32.0752 104.809 32.0752 102.814V94.5679C32.0752 92.5729 33.6688 90.9769 35.6608 90.9769V106.405Z" fill="#1466B1"/>
<path d="M35.6608 126.621C33.6688 126.621 32.0752 125.025 32.0752 123.03V114.784C32.0752 112.789 33.6688 111.193 35.6608 111.193V126.621Z" fill="#1466B1"/>
<path d="M142.432 106.405C144.025 106.405 145.22 105.075 145.22 103.612V93.7699C145.22 92.1739 143.892 90.9769 142.432 90.9769V106.405Z" fill="#18285D"/>
<path d="M42.3008 73.2879V246.321C42.3008 248.715 44.16 250.577 46.5504 250.577H133.136C134.862 250.577 136.456 249.513 137.12 247.917C137.386 247.385 137.518 246.853 137.518 246.188V73.2879C137.518 70.8939 135.659 69.0319 133.269 69.0319H46.6832C46.4176 69.0319 46.152 69.0319 45.8864 69.1649C45.6208 69.1649 45.3552 69.2979 44.9568 69.4309C43.6288 69.9629 42.6992 71.1599 42.4336 72.6229C42.4336 72.7559 42.3008 73.0219 42.3008 73.2879Z" fill="white"/>
<path d="M89.8437 213.071H83.7349V233.021C83.7349 235.681 81.6101 237.809 78.9541 237.809C76.2981 237.809 74.1733 235.681 74.1733 233.021V213.071H68.0645L73.5093 207.751L78.9541 202.431L84.3989 207.751L89.8437 213.071Z" fill="#ED3B4E"/>
<path d="M110.428 227.169H104.319V207.219C104.319 204.559 102.194 202.431 99.538 202.431C96.882 202.431 94.7572 204.559 94.7572 207.219V227.169H88.6484L94.0932 232.489L99.538 237.809L104.983 232.489L110.428 227.169Z" fill="#ED3B4E"/>
<path d="M55.1826 91.2429C55.1826 91.9079 55.7138 92.4399 56.3778 92.4399H85.0626C85.7266 92.4399 86.2578 91.9079 86.2578 91.2429C86.2578 90.5779 85.7266 90.0459 85.0626 90.0459H56.3778C55.7138 90.0459 55.1826 90.5779 55.1826 91.2429Z" fill="#D9E7F6"/>
<path d="M95.9521 91.2429C95.9521 91.9079 96.4834 92.4399 97.1474 92.4399H125.832C126.496 92.4399 127.027 91.9079 127.027 91.2429C127.027 90.5779 126.496 90.0459 125.832 90.0459H97.1474C96.4834 90.0459 95.9521 90.5779 95.9521 91.2429Z" fill="#D9E7F6"/>
<path d="M55.1826 98.0259C55.1826 98.6909 55.7138 99.2229 56.3778 99.2229H85.0626C85.7266 99.2229 86.2578 98.6909 86.2578 98.0259C86.2578 97.3609 85.7266 96.8289 85.0626 96.8289H56.3778C55.7138 96.8289 55.1826 97.3609 55.1826 98.0259Z" fill="#D9E7F6"/>
<path d="M95.9521 98.0259C95.9521 98.6909 96.4834 99.2229 97.1474 99.2229H125.832C126.496 99.2229 127.027 98.6909 127.027 98.0259C127.027 97.3609 126.496 96.8289 125.832 96.8289H97.1474C96.4834 96.8289 95.9521 97.3609 95.9521 98.0259Z" fill="#D9E7F6"/>
<path d="M55.1826 104.676C55.1826 105.341 55.7138 105.873 56.3778 105.873H85.0626C85.7266 105.873 86.2578 105.341 86.2578 104.676C86.2578 104.011 85.7266 103.479 85.0626 103.479H56.3778C55.7138 103.479 55.1826 104.011 55.1826 104.676Z" fill="#D9E7F6"/>
<path d="M95.9521 104.676C95.9521 105.341 96.4834 105.873 97.1474 105.873H125.832C126.496 105.873 127.027 105.341 127.027 104.676C127.027 104.011 126.496 103.479 125.832 103.479H97.1474C96.4834 103.479 95.9521 104.011 95.9521 104.676Z" fill="#D9E7F6"/>
<path d="M55.1826 111.459C55.1826 112.124 55.7138 112.656 56.3778 112.656H85.0626C85.7266 112.656 86.2578 112.124 86.2578 111.459C86.2578 110.794 85.7266 110.262 85.0626 110.262H56.3778C55.7138 110.262 55.1826 110.794 55.1826 111.459Z" fill="#D9E7F6"/>
<path d="M95.9521 111.459C95.9521 112.124 96.4834 112.656 97.1474 112.656H125.832C126.496 112.656 127.027 112.124 127.027 111.459C127.027 110.794 126.496 110.262 125.832 110.262H97.1474C96.4834 110.262 95.9521 110.794 95.9521 111.459Z" fill="#D9E7F6"/>
<path d="M56.3778 181.151H96.2178H98.077H125.832C126.496 181.151 127.027 180.619 127.027 179.954C127.027 179.289 126.496 178.757 125.832 178.757H98.077H56.3778C55.7138 178.757 55.1826 179.289 55.1826 179.954C55.1826 180.619 55.7138 181.151 56.3778 181.151Z" fill="#D9E7F6"/>
<path d="M125.832 185.54H96.2178H56.3778C55.7138 185.54 55.1826 186.072 55.1826 186.737C55.1826 187.402 55.7138 187.934 56.3778 187.934H96.2178H103.389H125.832C126.496 187.934 127.027 187.402 127.027 186.737C127.027 186.072 126.496 185.54 125.832 185.54Z" fill="#D9E7F6"/>
<path d="M125.832 192.19H99.405H96.2178H56.3778C55.7138 192.19 55.1826 192.722 55.1826 193.387C55.1826 194.052 55.7138 194.584 56.3778 194.584H99.2722H125.832C126.496 194.584 127.027 194.052 127.027 193.387C127.027 192.722 126.496 192.19 125.832 192.19Z" fill="#D9E7F6"/>
<path d="M129.418 158.408C129.418 160.669 128.488 162.797 126.894 164.393C125.434 165.856 123.309 166.92 120.918 166.92H60.3615C55.7135 166.92 51.9951 163.196 51.9951 158.541C51.9951 157.61 52.1279 156.546 52.5263 155.748C52.9247 154.551 53.5887 153.487 54.5183 152.556C55.7135 151.359 57.0415 150.561 58.7679 150.295C59.1663 136.995 70.1887 126.222 83.6015 126.222C92.3663 126.222 100.069 130.744 104.584 137.66C105.779 137.261 107.107 136.995 108.568 136.995C108.966 136.995 109.365 136.995 109.763 136.995C116.27 137.66 121.45 143.113 121.45 149.896C125.832 150.162 129.418 153.886 129.418 158.408Z" fill="#D9E7F6"/>
<path opacity="0.1" d="M99.006 142.98C99.8028 142.98 100.334 143.512 100.334 144.31V157.477C100.334 158.541 99.5372 159.339 98.4748 159.339H81.742C80.6796 159.339 79.8828 158.541 79.8828 157.477V142.98H99.006Z" fill="black"/>
<path d="M91.3041 143.911H84.7969V152.822H91.3041V143.911Z" fill="#033E9F"/>
<path d="M83.6023 140.453C83.7351 138.059 85.5943 136.064 88.1175 136.064C90.5079 136.064 92.4999 138.059 92.6327 140.453H95.2887C95.1559 136.596 92.1015 133.537 88.2503 133.537C84.3991 133.537 81.2119 136.596 81.2119 140.453H83.6023Z" fill="#033E9F"/>
<path d="M96.4836 140.054H79.7508C78.6884 140.054 77.8916 140.852 77.8916 141.916V154.551C77.8916 155.615 78.6884 156.413 79.7508 156.413H96.4836C97.546 156.413 98.3428 155.615 98.3428 154.551V141.916C98.4756 140.852 97.546 140.054 96.4836 140.054ZM89.578 151.891H86.6564L87.0548 148.965C86.5236 148.566 86.258 148.034 86.258 147.369C86.258 146.305 87.1876 145.374 88.25 145.374C89.3124 145.374 90.242 146.305 90.242 147.369C90.242 148.034 89.8436 148.699 89.4452 148.965L89.578 151.891Z" fill="#155BCC"/>
<path d="M122.512 68.8989L118.129 75.6819C116.934 77.5439 114.809 78.7409 112.552 78.7409H69.7901C67.5325 78.7409 65.4077 77.5439 64.2125 75.6819L59.8301 68.8989C59.8301 68.2339 60.3613 67.5689 61.1581 67.5689H121.316C121.98 67.7019 122.512 68.2339 122.512 68.8989Z" fill="#012257"/>
<path d="M106.044 73.8199H69.5243C68.7275 73.8199 68.1963 73.1549 68.1963 72.4899C68.1963 71.6919 68.8603 71.1599 69.5243 71.1599H106.044C106.841 71.1599 107.372 71.8249 107.372 72.4899C107.505 73.1549 106.841 73.8199 106.044 73.8199Z" fill="#1466B1"/>
<path d="M114.676 72.3569C114.676 73.2879 114.012 73.9529 113.083 73.9529C112.153 73.9529 111.489 73.2879 111.489 72.3569C111.489 71.4259 112.153 70.7609 113.083 70.7609C114.012 70.7609 114.676 71.4259 114.676 72.3569Z" fill="#1466B1"/>
<path d="M304.978 73.8199V245.656C304.978 251.109 300.596 255.365 295.284 255.365H209.894C207.238 255.365 204.714 254.301 202.988 252.439C201.262 250.71 200.199 248.183 200.199 245.523V73.8199C200.199 68.3669 204.582 64.1109 209.894 64.1109H295.284C296.878 64.1109 298.338 64.5099 299.666 65.1749C302.854 66.7709 304.978 70.0959 304.978 73.8199Z" fill="#012257"/>
<path d="M301.393 73.8199V245.656C301.393 251.109 297.011 255.365 291.699 255.365H206.309C203.653 255.365 201.129 254.301 199.403 252.439C197.677 250.71 196.614 248.183 196.614 245.523V73.8199C196.614 68.3669 200.997 64.1109 206.309 64.1109H291.699C293.293 64.1109 294.753 64.5099 296.081 65.1749C299.269 66.7709 301.393 70.0959 301.393 73.8199Z" fill="#1466B1"/>
<path d="M303.252 106.405C305.244 106.405 306.838 104.809 306.838 102.814V94.5679C306.838 92.5729 305.244 90.9769 303.252 90.9769V106.405Z" fill="#1466B1"/>
<path d="M196.481 106.405C194.888 106.405 193.692 105.075 193.692 103.612V93.7699C193.692 92.1739 195.02 90.9769 196.481 90.9769V106.405Z" fill="#18285D"/>
<path d="M196.481 126.488C194.888 126.488 193.692 125.158 193.692 123.695V113.72C193.692 112.124 195.02 110.927 196.481 110.927V126.488Z" fill="#18285D"/>
<path d="M296.479 73.2879V246.321C296.479 248.715 294.62 250.577 292.23 250.577H205.644C203.918 250.577 202.324 249.513 201.66 247.917C201.395 247.385 201.262 246.853 201.262 246.188V73.2879C201.262 70.8939 203.121 69.0319 205.511 69.0319H292.097C292.363 69.0319 292.628 69.0319 292.894 69.1649C293.159 69.1649 293.425 69.2979 293.823 69.4309C295.151 69.9629 296.081 71.1599 296.347 72.6229C296.479 72.7559 296.479 73.0219 296.479 73.2879Z" fill="white"/>
<path d="M213.081 91.2429C213.081 91.9079 213.612 92.4399 214.276 92.4399H242.961C243.625 92.4399 244.156 91.9079 244.156 91.2429C244.156 90.5779 243.625 90.0459 242.961 90.0459H214.276C213.612 90.0459 213.081 90.5779 213.081 91.2429Z" fill="#D9E7F6"/>
<path d="M253.718 91.2429C253.718 91.9079 254.249 92.4399 254.913 92.4399H283.598C284.262 92.4399 284.793 91.9079 284.793 91.2429C284.793 90.5779 284.262 90.0459 283.598 90.0459H254.913C254.249 90.0459 253.718 90.5779 253.718 91.2429Z" fill="#D9E7F6"/>
<path d="M213.081 98.0259C213.081 98.6909 213.612 99.2229 214.276 99.2229H242.961C243.625 99.2229 244.156 98.6909 244.156 98.0259C244.156 97.3609 243.625 96.8289 242.961 96.8289H214.276C213.612 96.8289 213.081 97.3609 213.081 98.0259Z" fill="#D9E7F6"/>
<path d="M253.718 98.0259C253.718 98.6909 254.249 99.2229 254.913 99.2229H283.598C284.262 99.2229 284.793 98.6909 284.793 98.0259C284.793 97.3609 284.262 96.8289 283.598 96.8289H254.913C254.249 96.8289 253.718 97.3609 253.718 98.0259Z" fill="#D9E7F6"/>
<path d="M213.081 104.676C213.081 105.341 213.612 105.873 214.276 105.873H242.961C243.625 105.873 244.156 105.341 244.156 104.676C244.156 104.011 243.625 103.479 242.961 103.479H214.276C213.612 103.479 213.081 104.011 213.081 104.676Z" fill="#D9E7F6"/>
<path d="M253.718 104.676C253.718 105.341 254.249 105.873 254.913 105.873H283.598C284.262 105.873 284.793 105.341 284.793 104.676C284.793 104.011 284.262 103.479 283.598 103.479H254.913C254.249 103.479 253.718 104.011 253.718 104.676Z" fill="#D9E7F6"/>
<path d="M213.081 111.459C213.081 112.124 213.612 112.656 214.276 112.656H242.961C243.625 112.656 244.156 112.124 244.156 111.459C244.156 110.794 243.625 110.262 242.961 110.262H214.276C213.612 110.262 213.081 110.794 213.081 111.459Z" fill="#D9E7F6"/>
<path d="M253.718 111.459C253.718 112.124 254.249 112.656 254.913 112.656H283.598C284.262 112.656 284.793 112.124 284.793 111.459C284.793 110.794 284.262 110.262 283.598 110.262H254.913C254.249 110.262 253.718 110.794 253.718 111.459Z" fill="#D9E7F6"/>
<path d="M214.276 213.337H254.116H255.975H283.598C284.262 213.337 284.793 212.805 284.793 212.14C284.793 211.475 284.262 210.943 283.598 210.943H255.975H214.276C213.612 210.943 213.081 211.475 213.081 212.14C213.081 212.805 213.612 213.337 214.276 213.337Z" fill="#D9E7F6"/>
<path d="M283.598 217.726H253.983H214.143C213.479 217.726 212.948 218.258 212.948 218.923C212.948 219.588 213.479 220.12 214.143 220.12H253.983H261.155H283.598C284.262 220.12 284.793 219.588 284.793 218.923C284.926 218.258 284.395 217.726 283.598 217.726Z" fill="#D9E7F6"/>
<path d="M283.598 224.376H257.171H253.983H214.143C213.479 224.376 212.948 224.908 212.948 225.573C212.948 226.238 213.479 226.77 214.143 226.77H257.038H283.465C284.129 226.77 284.66 226.238 284.66 225.573C284.926 224.908 284.395 224.376 283.598 224.376Z" fill="#D9E7F6"/>
<path d="M283.598 231.159H255.975H214.276C213.612 231.159 213.081 231.691 213.081 232.356C213.081 233.021 213.612 233.553 214.276 233.553H254.116H255.975H283.598C284.262 233.553 284.793 233.021 284.793 232.356C284.926 231.691 284.395 231.159 283.598 231.159Z" fill="#D9E7F6"/>
<path d="M270.982 198.441H235.524C233.665 198.441 232.204 196.978 232.204 195.116V136.729C232.204 134.867 233.665 133.404 235.524 133.404H270.982C272.841 133.404 274.302 134.867 274.302 136.729V195.116C274.302 196.978 272.708 198.441 270.982 198.441Z" fill="#D9E7F6"/>
<path d="M238.047 140.187C238.047 139.522 238.578 138.99 239.109 138.99H268.724C269.388 138.99 269.786 139.522 269.786 140.187C269.786 140.852 269.255 141.384 268.724 141.384H239.109C238.445 141.384 238.047 140.852 238.047 140.187Z" fill="white"/>
<path d="M238.047 145.906C238.047 145.241 238.578 144.709 239.109 144.709H268.724C269.388 144.709 269.786 145.241 269.786 145.906C269.786 146.571 269.255 147.103 268.724 147.103H239.109C238.445 147.103 238.047 146.571 238.047 145.906Z" fill="white"/>
<path d="M238.047 151.625C238.047 150.96 238.578 150.428 239.109 150.428H268.724C269.388 150.428 269.786 150.96 269.786 151.625C269.786 152.29 269.255 152.822 268.724 152.822H239.109C238.445 152.822 238.047 152.29 238.047 151.625Z" fill="white"/>
<path d="M238.047 157.344C238.047 156.679 238.578 156.147 239.109 156.147H268.724C269.388 156.147 269.786 156.679 269.786 157.344C269.786 158.009 269.255 158.541 268.724 158.541H239.109C238.445 158.541 238.047 158.009 238.047 157.344Z" fill="white"/>
<path d="M238.047 163.196C238.047 162.531 238.578 161.999 239.109 161.999H268.724C269.388 161.999 269.786 162.531 269.786 163.196C269.786 163.861 269.255 164.393 268.724 164.393H239.109C238.445 164.393 238.047 163.861 238.047 163.196Z" fill="white"/>
<path d="M238.047 168.915C238.047 168.25 238.578 167.718 239.109 167.718H268.724C269.388 167.718 269.786 168.25 269.786 168.915C269.786 169.58 269.255 170.112 268.724 170.112H239.109C238.445 170.112 238.047 169.58 238.047 168.915Z" fill="white"/>
<path d="M238.047 174.634C238.047 173.969 238.578 173.437 239.109 173.437H268.724C269.388 173.437 269.786 173.969 269.786 174.634C269.786 175.299 269.255 175.831 268.724 175.831H239.109C238.445 175.831 238.047 175.299 238.047 174.634Z" fill="white"/>
<path d="M238.047 180.353C238.047 179.688 238.578 179.156 239.109 179.156H268.724C269.388 179.156 269.786 179.688 269.786 180.353C269.786 181.018 269.255 181.55 268.724 181.55H239.109C238.445 181.55 238.047 181.018 238.047 180.353Z" fill="white"/>
<path d="M238.047 186.072C238.047 185.407 238.578 184.875 239.109 184.875H268.724C269.388 184.875 269.786 185.407 269.786 186.072C269.786 186.737 269.255 187.269 268.724 187.269H239.109C238.445 187.269 238.047 186.737 238.047 186.072Z" fill="white"/>
<path d="M238.047 191.791C238.047 191.126 238.578 190.594 239.109 190.594H268.724C269.388 190.594 269.786 191.126 269.786 191.791C269.786 192.456 269.255 192.988 268.724 192.988H239.109C238.445 192.988 238.047 192.456 238.047 191.791Z" fill="white"/>
<path opacity="0.5" d="M266.599 198.441H235.391C233.532 198.441 232.071 196.978 232.071 195.116V136.729C232.071 134.867 233.532 133.404 235.391 133.404H266.599V198.441Z" fill="#C6DEF4"/>
<path d="M261.818 132.739V191.126C261.818 192.988 260.358 194.451 258.498 194.451H223.041C221.182 194.451 219.721 192.988 219.721 191.126V132.739C219.721 130.877 221.182 129.414 223.041 129.414H258.498C260.358 129.414 261.818 130.877 261.818 132.739Z" fill="#D9E7F6"/>
<path d="M225.563 136.197C225.563 135.532 226.095 135 226.626 135H256.24C256.904 135 257.303 135.532 257.303 136.197C257.303 136.862 256.771 137.394 256.24 137.394H226.759C226.095 137.394 225.563 136.862 225.563 136.197Z" fill="white"/>
<path d="M225.563 141.916C225.563 141.251 226.095 140.719 226.626 140.719H256.24C256.904 140.719 257.303 141.251 257.303 141.916C257.303 142.581 256.771 143.113 256.24 143.113H226.759C226.095 143.113 225.563 142.581 225.563 141.916Z" fill="white"/>
<path d="M225.563 147.635C225.563 146.97 226.095 146.438 226.626 146.438H256.24C256.904 146.438 257.303 146.97 257.303 147.635C257.303 148.3 256.771 148.832 256.24 148.832H226.759C226.095 148.832 225.563 148.3 225.563 147.635Z" fill="white"/>
<path d="M225.563 153.354C225.563 152.689 226.095 152.157 226.626 152.157H256.24C256.904 152.157 257.303 152.689 257.303 153.354C257.303 154.019 256.771 154.551 256.24 154.551H226.759C226.095 154.551 225.563 154.019 225.563 153.354Z" fill="white"/>
<path d="M225.563 159.073C225.563 158.408 226.095 157.876 226.626 157.876H256.24C256.904 157.876 257.303 158.408 257.303 159.073C257.303 159.738 256.771 160.27 256.24 160.27H226.759C226.095 160.27 225.563 159.738 225.563 159.073Z" fill="white"/>
<path d="M225.563 164.792C225.563 164.127 226.095 163.595 226.626 163.595H256.24C256.904 163.595 257.303 164.127 257.303 164.792C257.303 165.457 256.771 165.989 256.24 165.989H226.759C226.095 165.989 225.563 165.457 225.563 164.792Z" fill="white"/>
<path d="M225.563 170.511C225.563 169.846 226.095 169.314 226.626 169.314H256.24C256.904 169.314 257.303 169.846 257.303 170.511C257.303 171.176 256.771 171.708 256.24 171.708H226.759C226.095 171.841 225.563 171.176 225.563 170.511Z" fill="white"/>
<path d="M225.563 176.363C225.563 175.698 226.095 175.166 226.626 175.166H256.24C256.904 175.166 257.303 175.698 257.303 176.363C257.303 177.028 256.771 177.56 256.24 177.56H226.759C226.095 177.56 225.563 177.028 225.563 176.363Z" fill="white"/>
<path d="M225.563 182.082C225.563 181.417 226.095 180.885 226.626 180.885H256.24C256.904 180.885 257.303 181.417 257.303 182.082C257.303 182.747 256.771 183.279 256.24 183.279H226.759C226.095 183.279 225.563 182.747 225.563 182.082Z" fill="white"/>
<path d="M225.563 187.801C225.563 187.136 226.095 186.604 226.626 186.604H256.24C256.904 186.604 257.303 187.136 257.303 187.801C257.303 188.466 256.771 188.998 256.24 188.998H226.759C226.095 188.998 225.563 188.466 225.563 187.801Z" fill="white"/>
<path opacity="0.2" d="M222.908 129.414V142.714C222.908 143.911 223.838 144.842 225.033 144.842H244.023C245.219 144.842 246.148 143.911 246.148 142.714V129.414H222.908Z" fill="black"/>
<path d="M235.789 127.286H228.485V137.394H235.789V127.286Z" fill="#033E9F"/>
<path d="M227.158 123.429C227.291 120.636 229.548 118.508 232.204 118.508C234.993 118.508 237.251 120.769 237.251 123.429H240.172C240.04 119.04 236.454 115.449 232.072 115.449C227.689 115.449 224.104 119.04 223.971 123.429H227.158Z" fill="#033E9F"/>
<path d="M241.766 122.897H222.775C221.58 122.897 220.65 123.828 220.65 125.025V139.389C220.65 140.586 221.58 141.517 222.775 141.517H241.766C242.961 141.517 243.89 140.586 243.89 139.389V125.025C244.023 123.828 243.094 122.897 241.766 122.897ZM234.063 136.33H230.61L231.009 133.005C230.478 132.606 230.079 131.941 230.079 131.143C230.079 129.946 231.142 128.882 232.337 128.882C233.532 128.882 234.594 129.946 234.594 131.143C234.594 131.941 234.196 132.606 233.665 133.005L234.063 136.33Z" fill="#155BCC"/>
<path d="M216.401 68.8989L220.784 75.6819C221.979 77.5439 224.104 78.7409 226.361 78.7409H268.99C271.248 78.7409 273.373 77.5439 274.568 75.6819L278.95 68.8989C278.95 68.2339 278.419 67.5689 277.622 67.5689H217.464C216.933 67.7019 216.401 68.2339 216.401 68.8989Z" fill="#012257"/>
<path d="M232.736 73.8199H269.256C270.053 73.8199 270.584 73.1549 270.584 72.4899C270.584 71.6919 269.92 71.1599 269.256 71.1599H232.736C231.939 71.1599 231.408 71.8249 231.408 72.4899C231.408 73.1549 232.072 73.8199 232.736 73.8199Z" fill="#1466B1"/>
<path d="M225.83 73.9529C226.71 73.9529 227.424 73.2384 227.424 72.3569C227.424 71.4755 226.71 70.7609 225.83 70.7609C224.95 70.7609 224.236 71.4755 224.236 72.3569C224.236 73.2384 224.95 73.9529 225.83 73.9529Z" fill="#1466B1"/>
<path d="M159.56 87.2529L149.467 103.479H158.63C158.63 103.479 160.356 93.2379 159.56 87.2529Z" fill="#0054A3"/>
<path d="M139.374 90.1789L121.845 88.7158C119.853 88.5828 118.126 90.0458 117.993 92.0408L114.142 138.99C113.877 142.049 116.134 144.842 119.321 145.108L180.675 150.029C182.534 150.162 184.128 148.832 184.393 146.97L187.979 103.213C188.112 101.617 186.917 100.154 185.323 100.021L149.467 97.0949L139.374 90.1789Z" fill="#FB9001"/>
<path d="M184.393 146.97L186.916 116.646L116.532 110.927L114.009 141.251C113.876 143.113 115.204 144.709 117.064 144.975L180.675 150.162C182.534 150.295 184.26 148.832 184.393 146.97Z" fill="#FCBE42"/>
<path d="M120.384 111.06L182.667 116.247V116.114C183.065 111.326 179.48 107.07 174.699 106.671L129.813 103.08C125.032 102.681 120.782 106.272 120.384 111.06Z" fill="white"/>
<path opacity="0.6" d="M177.754 111.592L177.355 115.848L174.566 115.582L174.965 111.326C174.965 110.528 175.629 109.996 176.426 110.129C177.222 110.129 177.886 110.794 177.754 111.592Z" fill="#D2C5E6"/>
<path opacity="0.6" d="M171.645 111.06L171.247 115.316L168.458 115.05L168.856 110.794C168.856 109.996 169.52 109.464 170.317 109.597C171.114 109.73 171.645 110.395 171.645 111.06Z" fill="#D2C5E6"/>
<path opacity="0.6" d="M165.403 110.661L165.005 114.917L162.216 114.651L162.614 110.395C162.614 109.597 163.278 109.065 164.075 109.198C164.872 109.198 165.536 109.863 165.403 110.661Z" fill="#D2C5E6"/>
<path opacity="0.6" d="M159.295 110.129L158.896 114.385L156.107 114.119L156.506 109.863C156.506 109.065 157.17 108.533 157.967 108.666C158.763 108.666 159.295 109.331 159.295 110.129Z" fill="#D2C5E6"/>
<path opacity="0.6" d="M153.053 109.597L152.655 113.853L149.866 113.587L150.265 109.331C150.265 108.533 150.929 108.001 151.725 108.134C152.522 108.134 153.186 108.799 153.053 109.597Z" fill="#D2C5E6"/>
<path opacity="0.6" d="M146.944 109.065L146.546 113.321L143.757 113.055L144.155 108.799C144.155 108.001 144.819 107.469 145.616 107.602C146.413 107.735 146.944 108.4 146.944 109.065Z" fill="#D2C5E6"/>
<path opacity="0.6" d="M140.703 108.533L140.304 112.789L137.516 112.523L137.914 108.267C137.914 107.469 138.578 106.937 139.375 107.07C140.304 107.203 140.836 107.868 140.703 108.533Z" fill="#D2C5E6"/>
<path opacity="0.6" d="M134.593 108.134L134.195 112.39L131.406 112.124L131.805 107.868C131.805 107.07 132.469 106.538 133.265 106.671C134.062 106.671 134.593 107.336 134.593 108.134Z" fill="#D2C5E6"/>
<path opacity="0.6" d="M128.485 107.602L128.087 111.858L125.298 111.592L125.696 107.336C125.696 106.538 126.36 106.006 127.157 106.139C127.954 106.139 128.485 106.804 128.485 107.602Z" fill="#D2C5E6"/>
<path d="M126.758 145.906L125.828 147.236C125.828 147.236 122.907 147.369 122.375 146.172C122.243 145.773 122.243 145.241 122.641 144.975L126.758 145.906Z" fill="#F9856B"/>
<path d="M129.547 149.763C128.086 150.162 126.625 149.63 125.696 148.433C125.297 147.768 125.032 146.97 125.164 145.773C125.696 142.315 127.289 139.788 128.617 140.32C129.148 140.586 129.281 142.448 128.75 144.044C128.75 144.044 129.547 142.448 129.68 140.586C129.945 138.724 132.203 139.389 131.937 141.65C131.672 143.911 131.406 144.31 131.406 144.31C131.406 144.31 132.203 142.448 132.203 141.384C132.203 140.32 133.929 140.32 133.929 142.581C133.929 143.645 133.796 144.709 133.796 144.709C133.796 144.709 134.062 143.246 134.328 142.448C134.46 141.65 135.523 141.118 135.788 142.714C136.054 143.911 136.585 147.369 134.992 148.167C134.062 148.566 131.273 149.364 129.547 149.763Z" fill="#F9A38F"/>
<path d="M167.395 138.325L190.369 135.399L189.174 246.587L180.011 247.518L167.395 138.325Z" fill="#EE384E"/>
<path d="M154.646 135.399L148.537 246.587L157.435 247.518L181.206 138.325L154.646 135.399Z" fill="#DE051F"/>
<path d="M168.458 57.5939C171.91 57.7269 176.027 65.9729 176.027 69.5639C176.027 73.1549 174.168 73.1549 173.371 74.8839C172.574 76.6129 167.262 78.3419 164.739 78.3419C162.083 78.2089 161.286 73.8199 161.419 67.4359C161.552 61.1849 164.341 57.5939 164.341 57.5939C164.341 57.5939 164.872 57.4609 168.458 57.5939Z" fill="#FFBE9B"/>
<path d="M168.988 71.1599C168.988 71.1599 168.988 71.1599 168.855 76.6129C168.723 82.0659 163.942 86.0559 163.942 86.0559C163.942 86.0559 163.809 89.7799 168.988 90.7109C174.167 91.6419 179.612 85.5239 179.612 85.5239C179.612 85.5239 178.683 83.7949 177.089 79.1399C175.495 74.6179 174.699 69.9629 174.699 69.9629L168.988 71.1599Z" fill="#FEBE9A"/>
<path d="M166.598 59.4559C170.051 60.3869 170.051 60.5199 171.778 62.3819C173.504 64.1109 174.301 68.7659 174.301 68.7659C174.301 68.7659 174.699 71.1599 175.098 72.4899C175.496 73.8199 175.762 75.1499 175.894 76.2139C176.027 77.1449 176.691 77.1449 177.621 77.1449C178.418 77.2779 180.277 76.3469 182.003 72.7559C183.862 69.1649 183.464 65.4409 183.066 64.6429C182.269 62.7809 182.402 59.1899 182.402 58.2589C182.402 57.3279 182.534 56.5299 180.808 54.5349C179.082 52.5399 170.45 52.4069 170.45 52.4069C169.52 52.4069 167.794 52.2739 166.997 51.4759C166.067 50.5449 162.614 48.5499 160.888 49.4809C159.162 50.4119 161.552 57.5939 161.552 57.5939C162.349 60.2539 163.278 58.3919 166.598 59.4559Z" fill="#160C56"/>
<path d="M176.159 66.9038C176.026 69.6968 173.503 68.6328 173.503 68.6328C173.503 68.6328 171.909 65.8399 173.105 64.3769C174.433 62.7809 176.159 64.1108 176.159 66.9038Z" fill="#FFBE9B"/>
<path d="M189.307 245.922L179.745 245.789C179.613 247.518 179.081 247.651 179.081 247.651C179.081 247.651 170.715 251.508 167.793 252.971C165.005 254.434 168.059 255.099 168.059 255.099C168.059 255.099 183.862 255.232 186.784 255.232C189.705 255.232 189.174 253.769 189.174 253.769L189.307 245.922Z" fill="#170856"/>
<path d="M158.232 245.922L148.67 245.789C148.537 247.518 148.006 247.651 148.006 247.651C148.006 247.651 139.64 251.508 136.718 252.971C133.929 254.434 136.984 255.099 136.984 255.099C136.984 255.099 152.787 255.232 155.709 255.232C158.63 255.232 158.099 253.769 158.099 253.769L158.232 245.922Z" fill="#170856"/>
<path d="M176.425 84.7259C176.425 84.7259 177.487 83.5289 178.682 84.0609C179.745 84.5929 185.986 82.1989 189.439 95.6319C192.892 109.065 190.502 138.192 190.502 138.192L154.513 137.394C154.513 137.394 154.38 124.36 155.044 112.257C155.708 100.154 156.505 92.5729 158.231 88.8489C159.958 85.1249 163.676 84.7259 164.738 83.7949C165.668 82.8639 166.73 83.6619 166.73 83.6619C171.511 89.2479 176.425 84.7259 176.425 84.7259Z" fill="#0083F9"/>
<path d="M153.584 151.093C153.584 149.896 156.107 150.162 157.435 149.63C158.763 149.098 161.818 146.97 161.286 146.438C160.755 145.773 159.958 145.241 159.427 144.842C158.896 144.443 158.63 143.379 159.162 143.246C159.826 143.113 161.685 144.177 162.349 144.842C162.614 145.108 163.013 145.906 163.411 146.305C163.942 146.97 164.474 147.369 165.27 147.502C165.934 146.837 166.731 146.172 167.262 145.773C168.325 145.906 171.645 148.699 170.582 150.694C169.52 151.891 168.059 153.088 168.059 153.088C162.88 157.078 159.958 156.679 158.763 156.546C157.568 156.413 157.435 155.083 157.435 155.083C156.373 154.684 156.506 153.753 156.506 153.753C154.912 153.221 155.178 152.024 155.178 152.024C155.178 152.024 153.584 152.29 153.584 151.093Z" fill="#F9A38F"/>
<path d="M185.456 86.8539C185.456 86.8539 194.221 93.9029 191.299 132.074C191.299 132.074 185.987 144.709 171.247 151.093L166.731 146.438C166.731 146.438 177.355 139.389 182.8 128.217L180.675 95.0999C180.808 94.9669 180.675 91.6419 185.456 86.8539Z" fill="#0064B7"/>
</g>
<defs>
<clipPath id="clip0_1409_2651">
<rect width="340" height="270" fill="white"/>
</clipPath>
</defs>
</svg>
