<svg width="340" height="270" viewBox="0 0 340 270" fill="none" xmlns="http://www.w3.org/2000/svg">
<path d="M167.163 188.548H124.575V203.535H167.163V188.548Z" fill="#003866"/>
<path fill-rule="evenodd" clip-rule="evenodd" d="M72.3886 99.4392H211.374C213.537 99.4392 215.295 101.194 215.295 103.355V186.253C215.295 188.413 213.537 190.168 211.374 190.168H72.3886C70.2254 190.168 68.4678 188.413 68.4678 186.253V103.355C68.603 101.194 70.3606 99.4392 72.3886 99.4392Z" fill="#033E9F"/>
<path fill-rule="evenodd" clip-rule="evenodd" d="M72.3919 102.949C72.1215 102.949 71.9863 103.084 71.9863 103.355V168.161C71.9863 168.431 72.1215 168.566 72.3919 168.566H211.378C211.648 168.566 211.783 168.431 211.783 168.161V103.355C211.783 103.084 211.648 102.949 211.378 102.949H72.3919Z" fill="white"/>
<path fill-rule="evenodd" clip-rule="evenodd" d="M129.308 152.635H178.656C180.549 152.635 182.171 154.255 182.171 156.145C182.171 158.035 180.549 159.655 178.656 159.655H129.308C127.415 159.655 125.793 158.035 125.793 156.145C125.793 154.255 127.415 152.635 129.308 152.635Z" fill="#494A71"/>
<path fill-rule="evenodd" clip-rule="evenodd" d="M78.202 106.325H170.679C171.355 106.325 171.896 106.865 171.896 107.405V107.945C171.896 108.485 171.355 109.025 170.679 109.025H78.202C77.526 109.025 76.9852 108.485 76.9852 107.945V107.405C76.85 106.73 77.526 106.325 78.202 106.325Z" fill="#DBE9F8"/>
<path fill-rule="evenodd" clip-rule="evenodd" d="M188.662 106.325H176.089C175.413 106.325 174.872 106.865 174.872 107.405V107.945C174.872 108.485 175.413 109.025 176.089 109.025H188.662C189.338 109.025 189.879 108.485 189.879 107.945V107.405C189.879 106.73 189.338 106.325 188.662 106.325Z" fill="#DBE9F8"/>
<path fill-rule="evenodd" clip-rule="evenodd" d="M188.661 111.05H96.0488C95.3728 111.05 94.832 111.59 94.832 112.13V112.671C94.832 113.211 95.3728 113.751 96.0488 113.751H188.526C189.202 113.751 189.742 113.211 189.742 112.671V112.13C189.878 111.59 189.337 111.05 188.661 111.05Z" fill="#DBE9F8"/>
<path fill-rule="evenodd" clip-rule="evenodd" d="M78.202 111.05H90.7756C91.4516 111.05 91.9924 111.59 91.9924 112.13V112.671C91.9924 113.211 91.4516 113.751 90.7756 113.751H78.202C77.526 113.751 76.9852 113.211 76.9852 112.671V112.13C76.85 111.59 77.526 111.05 78.202 111.05Z" fill="#DBE9F8"/>
<path fill-rule="evenodd" clip-rule="evenodd" d="M145.795 174.912C148.11 174.912 149.985 176.786 149.985 179.102C149.985 181.417 148.11 183.292 145.795 183.292C143.479 183.292 141.604 181.417 141.604 179.102C141.604 176.786 143.479 174.912 145.795 174.912Z" fill="white"/>
<path fill-rule="evenodd" clip-rule="evenodd" d="M84.0151 120.636H119.032C120.519 120.636 121.601 121.851 121.601 123.201V158.17C121.601 159.655 120.384 160.735 119.032 160.735H84.0151C82.5279 160.735 81.4463 159.52 81.4463 158.17V123.201C81.4463 121.851 82.6631 120.636 84.0151 120.636Z" fill="#4C4C73"/>
<path fill-rule="evenodd" clip-rule="evenodd" d="M81.4506 118.476H116.467C117.955 118.476 119.036 119.691 119.036 121.041V156.01C119.036 157.495 117.819 158.575 116.467 158.575H81.4506C79.9634 158.575 78.8818 157.36 78.8818 156.01V121.041C78.8818 119.691 79.9634 118.476 81.4506 118.476Z" fill="white"/>
<path fill-rule="evenodd" clip-rule="evenodd" d="M89.153 154.12L110.785 134.948L117.004 140.888V154.255C117.004 155.47 115.923 156.55 114.706 156.55H88.3418C88.8826 155.2 89.153 154.12 89.153 154.12Z" fill="#EE384E"/>
<path fill-rule="evenodd" clip-rule="evenodd" d="M80.9072 137.108L89.9656 129.007L116.87 154.93C116.6 155.875 115.654 156.685 114.572 156.685H83.2056C81.9888 156.685 80.9072 155.605 80.9072 154.39V137.108Z" fill="#EE384E"/>
<path fill-rule="evenodd" clip-rule="evenodd" d="M104.431 134.408C107.135 134.408 109.298 132.248 109.298 129.547C109.298 126.847 107.135 124.687 104.431 124.687C101.727 124.687 99.5635 126.847 99.5635 129.547C99.5635 132.248 101.727 134.408 104.431 134.408Z" fill="#EE384E"/>
<path fill-rule="evenodd" clip-rule="evenodd" d="M154.19 119.151C154.731 119.151 155.272 119.556 155.272 120.231V128.332C155.272 128.872 154.866 129.412 154.19 129.412C153.649 129.412 153.108 129.007 153.108 128.332V120.231C153.108 119.556 153.649 119.151 154.19 119.151Z" fill="#033E9F"/>
<path fill-rule="evenodd" clip-rule="evenodd" d="M164.194 123.201C164.6 123.607 164.6 124.282 164.194 124.687L158.516 130.357C158.11 130.762 157.434 130.762 157.029 130.357C156.623 129.952 156.623 129.277 157.029 128.872L162.707 123.201C163.113 122.796 163.789 122.796 164.194 123.201Z" fill="#033E9F"/>
<path fill-rule="evenodd" clip-rule="evenodd" d="M168.251 133.193C168.251 133.733 167.845 134.273 167.169 134.273H159.057C158.516 134.273 157.976 133.868 157.976 133.193C157.976 132.652 158.381 132.112 159.057 132.112H167.169C167.845 132.112 168.251 132.652 168.251 133.193Z" fill="#033E9F"/>
<path fill-rule="evenodd" clip-rule="evenodd" d="M164.194 143.184C163.789 143.589 163.113 143.589 162.707 143.184L157.029 137.513C156.623 137.108 156.623 136.433 157.029 136.028C157.434 135.623 158.11 135.623 158.516 136.028L164.194 141.699C164.6 142.104 164.6 142.779 164.194 143.184Z" fill="#033E9F"/>
<path fill-rule="evenodd" clip-rule="evenodd" d="M154.19 147.369C153.649 147.369 153.108 146.964 153.108 146.289V138.188C153.108 137.648 153.514 137.108 154.19 137.108C154.731 137.108 155.272 137.513 155.272 138.188V146.289C155.136 146.829 154.731 147.369 154.19 147.369Z" fill="#033E9F"/>
<path fill-rule="evenodd" clip-rule="evenodd" d="M144.184 143.184C143.778 142.779 143.778 142.104 144.184 141.699L149.862 136.028C150.268 135.623 150.944 135.623 151.35 136.028C151.755 136.433 151.755 137.108 151.35 137.513L145.671 143.184C145.266 143.589 144.59 143.589 144.184 143.184Z" fill="#033E9F"/>
<path fill-rule="evenodd" clip-rule="evenodd" d="M139.992 133.193C139.992 132.652 140.398 132.112 141.074 132.112H149.186C149.727 132.112 150.267 132.517 150.267 133.193C150.267 133.733 149.862 134.273 149.186 134.273H141.074C140.533 134.273 139.992 133.733 139.992 133.193Z" fill="#033E9F"/>
<path fill-rule="evenodd" clip-rule="evenodd" d="M144.184 123.201C144.59 122.796 145.266 122.796 145.671 123.201L151.35 128.872C151.755 129.277 151.755 129.952 151.35 130.357C150.944 130.762 150.268 130.762 149.862 130.357L144.184 124.687C143.778 124.282 143.778 123.607 144.184 123.201Z" fill="#033E9F"/>
<path fill-rule="evenodd" clip-rule="evenodd" d="M128.363 151.554H177.711C179.604 151.554 181.226 153.175 181.226 155.065C181.226 156.955 179.604 158.575 177.711 158.575H128.363C126.47 158.575 124.848 156.955 124.848 155.065C124.848 153.175 126.47 151.554 128.363 151.554Z" fill="white"/>
<path fill-rule="evenodd" clip-rule="evenodd" d="M128.361 153.445H149.723C150.669 153.445 151.48 154.255 151.48 155.2C151.48 156.145 150.669 156.955 149.723 156.955H128.361C127.415 156.955 126.604 156.145 126.604 155.2C126.604 154.12 127.415 153.445 128.361 153.445Z" fill="#EE384E"/>
<path fill-rule="evenodd" clip-rule="evenodd" d="M155.269 153.445H158.649C159.596 153.445 160.407 154.255 160.407 155.2C160.407 156.145 159.596 156.955 158.649 156.955H155.269C154.323 156.955 153.512 156.145 153.512 155.2C153.512 154.12 154.323 153.445 155.269 153.445Z" fill="#EE384E"/>
<path fill-rule="evenodd" clip-rule="evenodd" d="M164.457 153.445C165.403 153.445 166.214 154.255 166.214 155.2C166.214 156.145 165.403 156.955 164.457 156.955C163.51 156.955 162.699 156.145 162.699 155.2C162.834 154.12 163.51 153.445 164.457 153.445Z" fill="#EE384E"/>
<path fill-rule="evenodd" clip-rule="evenodd" d="M27.9051 202.59H86.5819C89.5563 202.59 91.8547 205.02 91.8547 207.855V244.039H22.4971V207.855C22.4971 205.02 24.9307 202.59 27.9051 202.59Z" fill="#033E9F"/>
<path fill-rule="evenodd" clip-rule="evenodd" d="M18.1711 203.265H67.3839C69.8175 203.265 71.8455 205.29 71.8455 207.72V244.039H13.8447V207.72C13.8447 205.29 15.7375 203.265 18.1711 203.265Z" fill="#0064B5"/>
<path fill-rule="evenodd" clip-rule="evenodd" d="M18.1691 207.855H67.3818C67.9226 207.855 68.3282 208.261 68.3282 208.801V244.039H17.2227V208.801C17.2227 208.261 17.6283 207.855 18.1691 207.855Z" fill="white"/>
<path fill-rule="evenodd" clip-rule="evenodd" d="M49.5367 223.922H36.1519C35.4759 223.922 35.0703 224.462 35.0703 225.002C35.0703 225.677 35.6111 226.082 36.1519 226.082H49.5367C50.2127 226.082 50.6183 225.542 50.6183 225.002C50.6183 224.462 50.0775 223.922 49.5367 223.922Z" fill="#282A3A"/>
<path d="M68.3282 223.922H17.2227V225.002H68.3282V223.922Z" fill="#282A3A"/>
<path fill-rule="evenodd" clip-rule="evenodd" d="M49.5367 207.855H36.1519C35.4759 207.855 35.0703 208.396 35.0703 208.936C35.0703 209.611 35.6111 210.016 36.1519 210.016H49.5367C50.2127 210.016 50.6183 209.476 50.6183 208.936C50.6183 208.396 50.0775 207.855 49.5367 207.855Z" fill="#282A3A"/>
<path fill-rule="evenodd" clip-rule="evenodd" d="M67.3818 207.855H18.1691C17.6283 207.855 17.2227 208.261 17.2227 208.801V208.936H68.3282V208.801C68.3282 208.261 67.9226 207.855 67.3818 207.855Z" fill="#282A3A"/>
<path fill-rule="evenodd" clip-rule="evenodd" d="M142.689 201.78H14.9246C13.3022 201.78 11.9502 203.13 11.9502 204.75C11.9502 206.37 13.3022 207.72 14.9246 207.72H142.689C144.311 207.72 145.663 206.37 145.663 204.75C145.663 203.13 144.311 201.78 142.689 201.78Z" fill="#0064B5"/>
<path fill-rule="evenodd" clip-rule="evenodd" d="M216.371 201.78H131.871C130.248 201.78 128.896 203.13 128.896 204.75C128.896 206.37 130.248 207.72 131.871 207.72H216.371C217.993 207.72 219.345 206.37 219.345 204.75C219.345 203.13 217.993 201.78 216.371 201.78Z" fill="#033E9F"/>
<path d="M293.591 147.35C305.538 147.35 315.223 137.679 315.223 125.748C315.223 113.818 305.538 104.146 293.591 104.146C281.644 104.146 271.959 113.818 271.959 125.748C271.959 137.679 281.644 147.35 293.591 147.35Z" fill="#E8F7FF"/>
<path fill-rule="evenodd" clip-rule="evenodd" d="M68.8729 83.7777C68.8729 77.8371 68.8729 72.4365 68.8729 72.4365H71.7121H72.6585L64.0057 60.1503H62.5185L52.2433 72.4365H53.1897H56.0289C56.0289 72.4365 56.0289 72.4365 56.0289 72.5715C56.0289 85.9379 56.4345 86.613 46.4297 86.613H60.4905H68.6025C68.8729 85.8029 68.8729 84.8578 68.8729 83.7777Z" fill="#EDE9F4"/>
<path fill-rule="evenodd" clip-rule="evenodd" d="M83.068 60.2851C90.6392 60.2851 96.8584 66.4958 96.8584 74.0565C96.8584 81.6173 90.6392 87.828 83.068 87.828H71.0352C70.0888 91.4733 67.2496 92.2834 64.6808 92.2834C61.436 92.2834 50.3496 92.2834 44.9416 92.2834C39.5336 92.2834 38.3168 87.828 38.3168 87.828H26.5544C23.4448 87.828 20.876 85.2627 20.876 82.1574C20.876 79.1871 23.1744 76.7568 26.1488 76.4868C26.1488 76.2168 26.1488 75.9467 26.1488 75.6767C26.1488 69.4661 31.1512 64.3356 37.5056 64.3356C39.128 64.3356 40.7504 64.7406 42.1024 65.2807C43.4544 55.6947 51.7016 48.4039 61.5712 48.4039C69.8184 48.4039 76.8488 53.3994 79.8232 60.6902C80.7696 60.4202 81.9864 60.2851 83.068 60.2851Z" fill="#CFC4E0"/>
<path fill-rule="evenodd" clip-rule="evenodd" d="M82.1217 59.07C89.6929 59.07 95.9121 65.2806 95.9121 72.8414C95.9121 80.4022 89.6929 86.6128 82.1217 86.6128H60.4897H25.6081C22.4985 86.6128 19.9297 84.0475 19.9297 80.9422C19.9297 77.9719 22.2281 75.5417 25.2025 75.2717C25.2025 75.0016 25.2025 74.7316 25.2025 74.4616C25.2025 68.2509 30.2049 63.1204 36.5593 63.1204C38.1817 63.1204 39.8041 63.5255 41.1561 64.0655C42.5081 54.4795 50.7553 47.1888 60.6249 47.1888C68.8721 47.1888 75.9025 52.1843 78.8769 59.475C79.8233 59.205 81.0401 59.07 82.1217 59.07Z" fill="white"/>
<path fill-rule="evenodd" clip-rule="evenodd" d="M70.3609 83.7774C70.3609 77.8368 70.3609 72.4362 70.3609 72.4362H73.2001H74.1465L64.0065 60.15L53.7313 72.4362H54.6777H57.5169C57.5169 72.4362 57.5169 72.4362 57.5169 72.5712C57.5169 85.9376 57.9225 86.6127 47.9177 86.6127H37.3721C37.3721 86.6127 38.5889 91.0681 43.9969 91.0681C49.4049 91.0681 60.4913 91.0681 63.7361 91.0681C66.3049 91.0681 69.1441 90.123 70.0905 86.6127C70.3609 85.8026 70.3609 84.8575 70.3609 83.7774Z" fill="#033E9F"/>
<path fill-rule="evenodd" clip-rule="evenodd" d="M297.245 122.719C296.483 121.964 295.394 121.425 294.195 121.425C292.997 121.425 291.908 121.856 291.145 122.719C290.383 123.473 289.838 124.551 289.838 125.737C289.838 126.923 290.274 128.002 291.145 128.756C291.908 129.511 292.997 130.05 294.195 130.05C295.394 130.05 296.483 129.619 297.245 128.756C298.008 128.002 298.553 126.923 298.553 125.737C298.553 124.551 298.008 123.473 297.245 122.719ZM296.265 118.514C296.919 118.729 297.463 118.945 298.008 119.269C298.553 119.592 299.097 119.915 299.533 120.347C299.642 120.454 299.751 120.454 299.86 120.347L301.93 119.161C302.039 119.053 302.147 119.053 302.256 119.161C302.365 119.161 302.474 119.269 302.583 119.376L303.999 121.856C304.108 121.964 304.108 122.072 303.999 122.287C303.999 122.395 303.89 122.503 303.782 122.611L301.821 123.797C301.712 123.905 301.712 124.012 301.712 124.12C301.821 124.444 301.821 124.767 301.93 124.983C301.93 125.306 302.039 125.63 302.039 125.953C302.039 126.277 302.039 126.6 301.93 126.923C301.93 127.247 301.821 127.57 301.712 127.786C301.712 127.894 301.712 128.002 301.821 128.109L303.782 129.295C303.89 129.403 303.999 129.511 303.999 129.619C303.999 129.727 303.999 129.834 303.999 129.942L302.583 132.422C302.474 132.53 302.365 132.638 302.256 132.638C302.147 132.638 302.039 132.638 301.93 132.638L299.969 131.452C299.86 131.344 299.751 131.452 299.642 131.452C299.206 131.883 298.662 132.206 298.117 132.53C297.572 132.853 297.028 133.069 296.374 133.284C296.265 133.284 296.156 133.392 296.156 133.5V135.764C296.156 135.872 296.047 135.98 296.047 136.088C295.938 136.195 295.829 136.195 295.72 136.195H292.888C292.779 136.195 292.67 136.088 292.561 136.088C292.452 135.98 292.452 135.872 292.452 135.764V133.5C292.452 133.392 292.343 133.284 292.234 133.284C291.581 133.069 291.036 132.853 290.492 132.53C289.947 132.206 289.402 131.883 288.966 131.452C288.857 131.344 288.749 131.344 288.64 131.452L286.679 132.638C286.57 132.745 286.461 132.745 286.352 132.638C286.243 132.638 286.134 132.53 286.025 132.422L284.609 129.942C284.5 129.834 284.5 129.727 284.609 129.619C284.609 129.511 284.718 129.403 284.827 129.295L286.897 128.109C287.006 128.002 287.006 127.894 287.006 127.786C286.897 127.462 286.897 127.139 286.788 126.923C286.788 126.6 286.679 126.277 286.679 125.953C286.679 125.63 286.679 125.306 286.788 124.983C286.788 124.659 286.897 124.336 287.006 124.12C287.006 124.012 287.006 123.905 286.897 123.797L284.936 122.611C284.827 122.503 284.718 122.395 284.718 122.287C284.718 122.18 284.718 122.072 284.718 121.964L286.134 119.484C286.243 119.376 286.352 119.269 286.461 119.269C286.57 119.269 286.679 119.269 286.788 119.269L288.857 120.454C288.966 120.562 289.075 120.454 289.184 120.454C289.62 120.023 290.165 119.7 290.709 119.376C291.254 119.053 291.799 118.837 292.452 118.622C292.561 118.622 292.67 118.514 292.67 118.406V116.142C292.67 116.034 292.779 115.926 292.779 115.818C292.888 115.711 292.997 115.711 293.106 115.711H295.938C296.047 115.711 296.156 115.818 296.265 115.818C296.374 115.926 296.374 116.034 296.374 116.142L296.265 118.514C296.156 118.406 296.047 118.298 296.265 118.514Z" fill="#EE384E"/>
<path d="M140.207 64.4568C141.371 65.1551 142.534 65.8534 143.698 66.5518C143.815 66.6682 143.815 66.6682 143.931 66.6682C144.048 66.6682 144.048 66.6682 144.164 66.6682C144.28 66.6682 144.397 66.5518 144.397 66.5518C144.397 66.5518 144.513 66.5518 144.513 66.4354L144.746 66.0862L147.074 62.1289C147.19 62.0125 147.19 62.0125 147.19 61.8962C147.19 61.7798 147.19 61.7798 147.19 61.6634C147.19 61.547 147.074 61.4306 147.074 61.4306C147.074 61.4306 147.074 61.3142 146.957 61.3142L146.608 61.0814L143.466 59.2192C143.349 59.2192 143.233 58.9864 143.116 58.87C143.116 58.6372 143.116 58.5208 143.116 58.288C143.116 57.9389 143.233 57.7061 143.233 57.4733C143.233 57.2405 143.349 56.8913 143.349 56.6585C143.466 56.4258 143.466 56.0766 143.466 55.8438C143.466 55.611 143.466 55.3782 143.466 55.0291C143.466 54.6799 143.466 54.4471 143.466 54.2143C143.349 53.9816 143.349 53.6324 143.349 53.3996C143.349 53.0504 143.233 52.8176 143.233 52.5849C143.233 52.2357 143.233 52.0029 143.116 51.7701L143 51.4209H143.116V51.3046C143.233 51.1882 143.349 51.0718 143.466 50.9554C144.513 50.257 145.91 49.5587 146.957 48.8603L147.074 48.744C147.19 48.6276 147.19 48.6276 147.19 48.5112C147.19 48.3948 147.19 48.3948 147.19 48.2784C147.074 48.162 147.074 48.162 147.074 48.0456C146.375 46.6489 145.444 45.0194 144.629 43.7391L144.513 43.6227C144.397 43.5063 144.397 43.5063 144.28 43.5063C144.164 43.5063 144.164 43.5063 144.048 43.5063H143.931C142.767 44.2047 141.487 44.903 140.323 45.6014C140.207 45.7178 140.09 45.7178 139.857 45.7178C139.741 45.7178 139.508 45.6014 139.392 45.485C139.043 45.1358 138.694 44.7867 138.228 44.4375C137.879 44.0883 137.413 43.7391 136.948 43.5063C136.482 43.2736 136.017 43.0408 135.551 42.808C135.085 42.5752 134.503 42.3424 134.038 42.226C133.805 42.226 133.689 42.1097 133.456 42.1097C133.34 41.9933 133.223 41.8769 133.223 41.6441V37.5704C133.223 37.454 133.223 37.3376 133.107 37.2212C133.107 37.2212 133.107 37.1048 132.99 37.1048C132.874 37.1048 132.874 37.1048 132.758 37.1048H127.753C127.636 37.1048 127.636 37.1048 127.52 37.1048L127.404 37.2212C127.404 37.2212 127.287 37.2212 127.287 37.3376C127.287 37.454 127.287 37.454 127.287 37.5704V41.6441C127.287 41.7605 127.287 41.9933 127.171 42.1097C127.054 42.3424 126.938 42.4588 126.705 42.4588C126.123 42.6916 125.658 42.808 125.192 43.0408C124.727 43.2736 124.261 43.5063 123.795 43.7391C123.33 44.0883 122.981 44.3211 122.515 44.6703C122.166 45.0194 121.7 45.3686 121.351 45.7178C121.235 45.8342 121.118 45.9506 120.886 45.9506C120.653 45.9506 120.42 45.9506 120.304 45.8342L116.812 43.7391C116.696 43.6227 116.696 43.6227 116.579 43.6227C116.463 43.6227 116.463 43.6227 116.346 43.6227C116.23 43.6227 116.114 43.7391 116.114 43.7391C116.114 43.7391 115.997 43.7391 115.997 43.8555C115.182 45.2522 114.251 46.8817 113.437 48.162C113.32 48.2784 113.32 48.2784 113.32 48.3948C113.32 48.5112 113.32 48.5112 113.32 48.6276C113.32 48.744 113.437 48.8603 113.437 48.8603L113.553 48.9767L117.045 50.9554C117.161 50.9554 117.278 51.1882 117.394 51.3046C117.394 51.5373 117.394 51.6537 117.394 51.8865C117.394 52.2357 117.278 52.4685 117.278 52.7013C117.278 52.934 117.161 53.2832 117.161 53.516C117.045 53.7488 117.045 54.0979 117.045 54.3307C117.045 54.5635 117.045 54.9127 117.045 55.1455C117.045 55.4946 117.045 55.7274 117.045 55.9602C117.161 56.193 117.161 56.5422 117.161 56.7749C117.161 57.1241 117.278 57.3569 117.278 57.5897C117.278 57.9389 117.278 58.1716 117.394 58.4044L117.51 58.7536H117.394V58.87C117.278 58.9864 117.161 59.1028 117.045 59.2192L113.553 61.3142L113.437 61.4306C113.32 61.547 113.32 61.547 113.32 61.6634C113.32 61.7798 113.32 61.7798 113.32 61.8962C113.437 62.0125 113.437 62.1289 113.437 62.1289C114.368 63.5256 115.182 65.0387 115.997 66.4354L116.114 66.5518C116.23 66.6682 116.23 66.6682 116.346 66.6682C116.463 66.6682 116.463 66.6682 116.579 66.6682C116.696 66.5518 116.696 66.5518 116.812 66.5518L120.304 64.5732C120.536 64.4568 120.653 64.4568 120.886 64.4568C121.002 64.4568 121.235 64.5731 121.351 64.6895C121.7 65.0387 122.05 65.3879 122.515 65.7371C122.864 66.0862 123.33 66.4354 123.795 66.6682C124.261 66.901 124.727 67.1338 125.192 67.3665C125.658 67.4829 126.24 67.7157 126.705 67.8321C126.938 67.9485 127.054 68.0649 127.171 68.1813C127.287 68.2977 127.404 68.4141 127.404 68.6468V72.7205C127.404 72.8369 127.404 72.8369 127.404 72.9533L127.52 73.0697C127.52 73.0697 127.52 73.1861 127.636 73.1861C127.753 73.1861 127.753 73.1861 127.869 73.1861H132.874C132.99 73.1861 132.99 73.1861 133.107 73.1861L133.223 73.0697C133.223 73.0697 133.34 73.0697 133.34 72.9533C133.34 72.8369 133.34 72.8369 133.34 72.7205V68.6468C133.34 68.5304 133.34 68.2977 133.456 68.1813C133.572 67.9485 133.689 67.8321 133.921 67.8321C134.503 67.5993 134.969 67.4829 135.435 67.2501C135.9 67.0174 136.366 66.7846 136.831 66.5518C137.297 66.2026 137.646 65.9698 138.112 65.6207C138.461 65.2715 138.926 64.9223 139.275 64.5732C139.392 64.4568 139.508 64.3404 139.741 64.3404C139.857 64.3404 140.09 64.3404 140.207 64.4568ZM140.207 64.4568C140.323 64.4568 140.323 64.4568 140.323 64.4568C141.371 65.1551 142.651 65.9698 143.815 66.5518C143.931 66.5518 144.164 66.6682 144.28 66.6682C144.397 66.6682 144.629 66.6682 144.746 66.6682C144.979 66.5518 145.095 66.5518 145.211 66.4354C145.328 66.319 145.328 66.319 145.328 66.319L148.005 61.6634C148.005 61.547 148.121 61.3142 148.121 61.1978C148.121 61.0814 148.121 60.8486 148.121 60.7322C148.005 60.4995 148.005 60.3831 147.888 60.2667C146.608 59.5683 145.328 58.7536 144.048 58.0552C144.048 57.9389 144.048 57.9389 144.048 57.9389C144.164 57.7061 144.28 57.3569 144.28 57.1241C144.28 56.8913 144.397 56.5422 144.397 56.3094C144.513 56.0766 144.513 55.7274 144.513 55.4946C144.513 55.2619 144.513 54.9127 144.513 54.6799C144.513 54.4471 144.513 54.0979 144.513 53.8652C144.513 53.6324 144.397 53.2832 144.397 53.0504C144.397 52.8176 144.28 52.4685 144.28 52.2357C144.28 52.1193 144.164 51.8865 144.164 51.7701L144.048 51.4209C144.048 51.3046 144.048 51.3046 144.048 51.3046C145.211 50.6062 146.375 49.9079 147.539 49.2095C147.656 49.0931 147.772 48.9767 147.888 48.8603C148.005 48.744 148.121 48.5112 148.121 48.3948C148.121 48.2784 148.121 48.0456 148.121 47.9292C148.121 47.8128 148.121 47.58 148.005 47.4636C147.074 46.067 146.259 44.5539 145.444 43.1572C145.328 43.0408 145.211 42.9244 145.095 42.808C144.979 42.6916 144.746 42.5752 144.629 42.5752C144.513 42.5752 144.28 42.5752 144.164 42.5752C144.048 42.5752 143.815 42.5752 143.698 42.6916C142.418 43.39 141.254 44.0883 140.09 44.7867C139.974 44.7867 139.974 44.7867 139.974 44.7867C139.625 44.4375 139.159 44.0883 138.694 43.7391C138.228 43.39 137.762 43.0408 137.297 42.808C136.831 42.5752 136.249 42.3424 135.784 42.1097C135.202 41.8769 134.736 41.6441 133.805 41.6441C133.805 41.5277 133.805 41.5277 133.805 41.5277V37.454C133.805 37.1048 133.689 36.7557 133.456 36.5229C133.34 36.4065 133.223 36.4065 133.107 36.2901C132.99 36.1737 132.758 36.1737 132.641 36.1737H127.636C127.52 36.1737 127.287 36.1737 127.171 36.2901C127.054 36.2901 126.938 36.4065 126.822 36.5229C126.705 36.6393 126.705 36.7557 126.589 36.8721C126.472 36.9884 126.472 37.2212 126.472 37.3376V41.4113C126.472 41.5277 126.472 41.5277 126.472 41.5277C125.89 41.7605 125.309 41.8769 124.843 42.1097C124.261 42.226 123.795 42.5752 123.33 42.808C122.864 43.0408 122.399 43.39 121.933 43.7391C121.468 44.0883 121.002 44.4375 120.653 44.7867C120.536 44.7867 120.536 44.7867 120.536 44.7867L117.278 42.9244L117.045 42.808C116.928 42.808 116.696 42.6916 116.579 42.6916C116.463 42.6916 116.23 42.6916 116.114 42.6916C115.881 42.808 115.764 42.808 115.648 42.9244C115.532 43.0408 115.532 43.0408 115.532 43.0408C114.717 44.5539 113.669 46.1833 112.855 47.6964C112.855 47.8128 112.738 48.0456 112.738 48.162C112.738 48.2784 112.738 48.5112 112.738 48.6276C112.855 48.8603 112.855 48.9767 112.971 49.0931C113.087 49.2095 113.204 49.3259 113.32 49.4423L116.812 51.5373C116.812 51.6537 116.812 51.6537 116.812 51.6537C116.696 51.8865 116.579 52.2357 116.579 52.4685C116.579 52.7013 116.463 53.0504 116.463 53.2832C116.346 53.516 116.346 53.8652 116.346 54.0979C116.346 54.3307 116.346 54.6799 116.346 54.9127C116.346 55.1455 116.346 55.4946 116.346 55.7274C116.346 55.9602 116.463 56.3094 116.463 56.5422C116.463 56.7749 116.579 57.1241 116.579 57.3569C116.579 57.4733 116.696 57.7061 116.696 57.8225L116.812 58.1716C116.812 58.288 116.812 58.288 116.812 58.288L113.32 60.3831C113.204 60.4995 113.087 60.6158 112.971 60.7322C112.855 60.8486 112.738 61.0814 112.738 61.1978C112.738 61.3142 112.738 61.547 112.738 61.6634V61.7798C113.553 63.2928 114.484 64.9223 115.415 66.4354C115.532 66.5518 115.648 66.6682 115.764 66.7846C115.881 66.901 116.114 67.0174 116.23 67.0174C116.346 67.0174 116.579 67.0174 116.696 67.0174C116.812 67.0174 117.045 67.0174 117.161 66.901L120.653 64.8059C120.769 64.8059 120.769 64.8059 120.769 64.8059C121.118 65.1551 121.584 65.5043 122.05 65.8535C122.515 66.2026 122.981 66.5518 123.446 66.7846C123.912 67.0174 124.494 67.2501 124.959 67.4829C125.541 67.7157 126.007 67.9485 126.589 68.0649C126.589 68.1813 126.589 68.1813 126.589 68.1813V72.255C126.589 72.3714 126.589 72.6041 127.171 72.7205C127.171 72.8369 127.287 72.9533 127.404 73.0697C127.52 73.1861 127.636 73.1861 127.753 73.3025C127.869 73.4189 128.102 73.4189 128.218 73.4189H133.223C133.34 73.4189 133.572 73.4189 133.689 73.3025C133.805 73.3025 133.921 73.1861 134.038 73.0697C134.154 72.9533 134.154 72.8369 134.271 72.7205C134.387 72.6041 134.387 72.3714 134.387 72.255V67.8321C134.387 67.7157 134.387 67.7157 134.387 67.7157C134.969 67.4829 135.551 67.3665 136.017 67.1338C136.598 67.0174 137.064 66.6682 137.53 66.4354C137.995 66.2026 138.461 65.8535 138.926 65.5043C139.392 65.1551 139.857 64.8059 140.207 64.4568ZM136.017 49.0931C135.318 48.3948 134.387 47.8128 133.456 47.3473C132.525 46.9981 131.477 46.7653 130.43 46.7653C129.382 46.7653 128.335 46.9981 127.404 47.3473C126.472 47.6964 125.541 48.3948 124.843 49.0931C124.145 49.7915 123.563 50.7226 123.097 51.6537C122.748 52.5849 122.515 53.6324 122.515 54.6799C122.515 55.7274 122.748 56.7749 123.097 57.7061C123.446 58.6372 124.145 59.5683 124.843 60.2667C125.541 60.965 126.472 61.547 127.404 62.0125C128.335 62.3617 129.382 62.5945 130.43 62.5945C131.477 62.5945 132.525 62.3617 133.456 62.0125C134.387 61.6634 135.318 60.965 136.017 60.2667C136.715 59.5683 137.297 58.6372 137.762 57.7061C138.112 56.7749 138.344 55.7274 138.344 54.6799C138.344 53.6324 138.112 52.5849 137.762 51.6537C137.297 50.7226 136.715 49.9079 136.017 49.0931ZM133.107 48.0456C134.038 48.3948 134.736 48.9767 135.435 49.6751C136.133 50.3734 136.598 51.1882 137.064 52.0029C137.413 52.8176 137.646 53.7488 137.646 54.7963C137.646 55.7274 137.413 56.6586 137.064 57.5897C136.715 58.5208 136.133 59.2192 135.435 59.9175C134.736 60.6159 133.921 61.0814 133.107 61.547C132.292 61.8962 131.361 62.1289 130.313 62.1289C129.382 62.1289 128.451 61.8962 127.52 61.547C126.589 61.1978 125.89 60.6159 125.192 59.9175C124.494 59.2192 124.028 58.4044 123.563 57.5897C123.33 56.6586 123.097 55.7274 123.097 54.7963C123.097 53.8652 123.33 52.934 123.679 52.0029C124.028 51.0718 124.61 50.3734 125.309 49.6751C126.007 48.9767 126.822 48.5112 127.636 48.0456C128.451 47.6964 129.382 47.4636 130.43 47.4636C131.361 47.58 132.292 47.6964 133.107 48.0456Z" stroke="#003EAE" stroke-width="0.5" stroke-miterlimit="10"/>
<path d="M40.6128 106.19C40.6128 105.92 40.8832 105.65 41.1536 105.65C41.424 105.65 41.6944 105.92 41.6944 106.19V108.35C41.6944 108.62 41.424 108.89 41.1536 108.89C40.8832 108.89 40.6128 108.62 40.6128 108.35V106.19ZM37.2328 107.945C37.0976 107.81 37.0976 107.405 37.2328 107.27C37.368 107.135 37.7736 107.135 37.9088 107.27L39.5312 108.89C39.6664 109.025 39.6664 109.43 39.5312 109.565C39.396 109.7 38.9904 109.7 38.8552 109.565L37.2328 107.945ZM36.1512 111.59C35.8808 111.59 35.6104 111.32 35.6104 111.05C35.6104 110.78 35.8808 110.51 36.1512 110.51H38.3144C38.5848 110.51 38.8552 110.78 38.8552 111.05C38.8552 111.32 38.5848 111.59 38.3144 111.59H36.1512ZM37.9088 114.966C37.7736 115.101 37.368 115.101 37.2328 114.966C37.0976 114.831 37.0976 114.426 37.2328 114.291L38.8552 112.67C38.9904 112.535 39.396 112.535 39.5312 112.67C39.6664 112.805 39.6664 113.21 39.5312 113.345L37.9088 114.966ZM41.5592 116.046C41.5592 116.316 41.2888 116.586 41.0184 116.586C40.748 116.586 40.4776 116.316 40.4776 116.046V113.886C40.4776 113.615 40.748 113.345 41.0184 113.345C41.2888 113.345 41.5592 113.615 41.5592 113.886V116.046ZM44.9392 114.291C45.0744 114.426 45.0744 114.831 44.9392 114.966C44.804 115.101 44.3984 115.101 44.2632 114.966L42.6408 113.345C42.5056 113.21 42.5056 112.805 42.6408 112.67C42.776 112.535 43.1816 112.535 43.3168 112.67L44.9392 114.291ZM46.0208 110.645C46.2912 110.645 46.5616 110.915 46.5616 111.185C46.5616 111.455 46.2912 111.725 46.0208 111.725H43.8576C43.5872 111.725 43.3168 111.455 43.3168 111.185C43.3168 110.915 43.5872 110.645 43.8576 110.645H46.0208ZM44.128 107.27C44.2632 107.135 44.6688 107.135 44.804 107.27C44.9392 107.405 44.9392 107.81 44.804 107.945L43.1816 109.565C43.0464 109.7 42.6408 109.7 42.5056 109.565C42.3704 109.43 42.3704 109.025 42.5056 108.89L44.128 107.27Z" stroke="#003EAE" stroke-width="0.5" stroke-miterlimit="10"/>
<path fill-rule="evenodd" clip-rule="evenodd" d="M181.849 60.923C181.849 60.653 182.119 60.3829 182.389 60.3829C182.66 60.3829 182.93 60.653 182.93 60.923V63.0832C182.93 63.3532 182.66 63.6233 182.389 63.6233C182.119 63.6233 181.849 63.3532 181.849 63.0832V60.923ZM178.604 62.8132C178.469 62.6782 178.469 62.2731 178.604 62.1381C178.739 62.0031 179.145 62.0031 179.28 62.1381L180.902 63.7583C181.037 63.8933 181.037 64.2983 180.902 64.4333C180.767 64.5684 180.361 64.5684 180.226 64.4333L178.604 62.8132ZM177.522 66.3235C177.252 66.3235 176.981 66.0535 176.981 65.7835C176.981 65.5135 177.252 65.2434 177.522 65.2434H179.685C179.956 65.2434 180.226 65.5135 180.226 65.7835C180.226 66.0535 179.956 66.3235 179.685 66.3235H177.522ZM179.28 69.6989C179.145 69.8339 178.739 69.8339 178.604 69.6989C178.469 69.5639 178.469 69.1588 178.604 69.0238L180.226 67.4037C180.361 67.2686 180.767 67.2686 180.902 67.4037C181.037 67.5387 181.037 67.9437 180.902 68.0787L179.28 69.6989ZM182.93 70.779C182.93 71.049 182.66 71.3191 182.389 71.3191C182.119 71.3191 181.849 71.049 181.849 70.779V68.6188C181.849 68.3487 182.119 68.0787 182.389 68.0787C182.66 68.0787 182.93 68.3487 182.93 68.6188V70.779ZM186.175 69.0238C186.31 69.1588 186.31 69.5639 186.175 69.6989C186.04 69.8339 185.634 69.8339 185.499 69.6989L183.877 68.0787C183.741 67.9437 183.741 67.5387 183.877 67.4037C184.012 67.2686 184.417 67.2686 184.553 67.4037L186.175 69.0238ZM187.257 65.3784C187.527 65.3784 187.797 65.6485 187.797 65.9185C187.797 66.1885 187.527 66.4586 187.257 66.4586H185.093C184.823 66.4586 184.553 66.1885 184.553 65.9185C184.553 65.6485 184.823 65.3784 185.093 65.3784H187.257ZM185.499 62.1381C185.634 62.0031 186.04 62.0031 186.175 62.1381C186.31 62.2731 186.31 62.6782 186.175 62.8132L184.553 64.4333C184.417 64.5684 184.012 64.5684 183.877 64.4333C183.741 64.2983 183.741 63.8933 183.877 63.7583L185.499 62.1381Z" fill="#EE384E"/>
<path fill-rule="evenodd" clip-rule="evenodd" d="M271.803 221.627C271.803 221.357 272.074 221.087 272.344 221.087C272.614 221.087 272.885 221.357 272.885 221.627V223.787C272.885 224.057 272.614 224.327 272.344 224.327C272.074 224.327 271.803 224.057 271.803 223.787V221.627ZM268.423 223.382C268.288 223.247 268.288 222.842 268.423 222.707C268.558 222.572 268.964 222.572 269.099 222.707L270.722 224.327C270.857 224.462 270.857 224.867 270.722 225.002C270.586 225.137 270.181 225.137 270.046 225.002L268.423 223.382ZM267.342 227.027C267.071 227.027 266.801 226.757 266.801 226.487C266.801 226.217 267.071 225.947 267.342 225.947H269.505C269.775 225.947 270.046 226.217 270.046 226.487C270.046 226.757 269.775 227.027 269.505 227.027H267.342ZM269.234 230.268C269.099 230.403 268.694 230.403 268.558 230.268C268.423 230.133 268.423 229.727 268.558 229.592L270.181 227.972C270.316 227.837 270.722 227.837 270.857 227.972C270.992 228.107 270.992 228.512 270.857 228.647L269.234 230.268ZM272.75 231.348C272.75 231.618 272.479 231.888 272.209 231.888C271.938 231.888 271.668 231.618 271.668 231.348V229.187C271.668 228.917 271.938 228.647 272.209 228.647C272.479 228.647 272.75 228.917 272.75 229.187V231.348ZM276.13 229.592C276.265 229.727 276.265 230.133 276.13 230.268C275.994 230.403 275.589 230.403 275.454 230.268L273.831 228.647C273.696 228.512 273.696 228.107 273.831 227.972C273.966 227.837 274.372 227.837 274.507 227.972L276.13 229.592ZM277.211 225.947C277.482 225.947 277.752 226.217 277.752 226.487C277.752 226.757 277.482 227.027 277.211 227.027H275.048C274.778 227.027 274.507 226.757 274.507 226.487C274.507 226.217 274.778 225.947 275.048 225.947H277.211ZM275.454 222.707C275.589 222.572 275.994 222.572 276.13 222.707C276.265 222.842 276.265 223.247 276.13 223.382L274.507 225.002C274.372 225.137 273.966 225.137 273.831 225.002C273.696 224.867 273.696 224.462 273.831 224.327L275.454 222.707Z" fill="#EE384E"/>
<path fill-rule="evenodd" clip-rule="evenodd" d="M325.889 154.525C325.889 154.255 326.159 153.985 326.429 153.985C326.7 153.985 326.97 154.255 326.97 154.525V156.685C326.97 156.955 326.7 157.225 326.429 157.225C326.159 157.225 325.889 156.955 325.889 156.685V154.525ZM322.644 156.28C322.509 156.145 322.509 155.74 322.644 155.605C322.779 155.47 323.185 155.47 323.32 155.605L324.942 157.225C325.077 157.36 325.077 157.765 324.942 157.9C324.807 158.035 324.401 158.035 324.266 157.9L322.644 156.28ZM321.562 159.925C321.292 159.925 321.021 159.655 321.021 159.385C321.021 159.115 321.292 158.845 321.562 158.845H323.725C323.996 158.845 324.266 159.115 324.266 159.385C324.266 159.655 323.996 159.925 323.725 159.925H321.562ZM323.32 163.301C323.185 163.436 322.779 163.436 322.644 163.301C322.509 163.166 322.509 162.761 322.644 162.626L324.266 161.005C324.401 160.87 324.807 160.87 324.942 161.005C325.077 161.14 325.077 161.546 324.942 161.681L323.32 163.301ZM326.97 164.381C326.97 164.651 326.7 164.921 326.429 164.921C326.159 164.921 325.889 164.651 325.889 164.381V162.221C325.889 161.951 326.159 161.681 326.429 161.681C326.7 161.681 326.97 161.951 326.97 162.221V164.381ZM330.215 162.491C330.35 162.626 330.35 163.031 330.215 163.166C330.08 163.301 329.674 163.301 329.539 163.166L327.917 161.546C327.781 161.41 327.781 161.005 327.917 160.87C328.052 160.735 328.457 160.735 328.593 160.87L330.215 162.491ZM331.297 158.98C331.567 158.98 331.837 159.25 331.837 159.52C331.837 159.79 331.567 160.06 331.297 160.06H329.133C328.863 160.06 328.593 159.79 328.593 159.52C328.593 159.25 328.863 158.98 329.133 158.98H331.297ZM329.539 155.605C329.674 155.47 330.08 155.47 330.215 155.605C330.35 155.74 330.35 156.145 330.215 156.28L328.593 157.9C328.457 158.035 328.052 158.035 327.917 157.9C327.781 157.765 327.781 157.36 327.917 157.225L329.539 155.605Z" fill="#395196"/>
<path fill-rule="evenodd" clip-rule="evenodd" d="M6.41114 121.716C6.41114 121.446 6.68154 121.176 6.95194 121.176C7.22234 121.176 7.49274 121.446 7.49274 121.716V123.877C7.49274 124.147 7.22234 124.417 6.95194 124.417C6.68154 124.417 6.41114 124.147 6.41114 123.877V121.716ZM3.16635 123.472C3.03115 123.337 3.03115 122.932 3.16635 122.797C3.30155 122.662 3.70715 122.662 3.84235 122.797L5.46474 124.417C5.59994 124.552 5.59994 124.957 5.46474 125.092C5.32954 125.227 4.92394 125.227 4.78874 125.092L3.16635 123.472ZM2.08475 127.117C1.81435 127.117 1.54395 126.847 1.54395 126.577C1.54395 126.307 1.81435 126.037 2.08475 126.037H4.24795C4.51835 126.037 4.78874 126.307 4.78874 126.577C4.78874 126.847 4.51835 127.117 4.24795 127.117H2.08475ZM3.84235 130.492C3.70715 130.627 3.30155 130.627 3.16635 130.492C3.03115 130.357 3.03115 129.952 3.16635 129.817L4.78874 128.197C4.92394 128.062 5.32954 128.062 5.46474 128.197C5.59994 128.332 5.59994 128.737 5.46474 128.872L3.84235 130.492ZM7.49274 131.572C7.49274 131.842 7.22234 132.113 6.95194 132.113C6.68154 132.113 6.41114 131.842 6.41114 131.572V129.412C6.41114 129.142 6.68154 128.872 6.95194 128.872C7.22234 128.872 7.49274 129.142 7.49274 129.412V131.572ZM10.7375 129.682C10.8727 129.817 10.8727 130.222 10.7375 130.357C10.6023 130.492 10.1967 130.492 10.0615 130.357L8.43914 128.737C8.30394 128.602 8.30394 128.197 8.43914 128.062C8.57434 127.927 8.97994 127.927 9.11514 128.062L10.7375 129.682ZM11.8191 126.172C12.0895 126.172 12.3599 126.442 12.3599 126.712C12.3599 126.982 12.0895 127.252 11.8191 127.252H9.65594C9.38554 127.252 9.11514 126.982 9.11514 126.712C9.11514 126.442 9.38554 126.172 9.65594 126.172H11.8191ZM10.0615 122.797C10.1967 122.662 10.6023 122.662 10.7375 122.797C10.8727 122.932 10.8727 123.337 10.7375 123.472L9.11514 125.092C8.97994 125.227 8.57434 125.227 8.43914 125.092C8.30394 124.957 8.30394 124.552 8.43914 124.417L10.0615 122.797Z" fill="#EE384E"/>
<path fill-rule="evenodd" clip-rule="evenodd" d="M223.886 25.5401C223.886 25.27 224.157 25 224.427 25C224.697 25 224.968 25.27 224.968 25.5401V27.7003C224.968 27.9703 224.697 28.2403 224.427 28.2403C224.157 28.2403 223.886 27.9703 223.886 27.7003V25.5401ZM220.506 27.2952C220.371 27.1602 220.371 26.7552 220.506 26.6202C220.641 26.4852 221.047 26.4852 221.182 26.6202L222.805 28.2403C222.94 28.3753 222.94 28.7804 222.805 28.9154C222.669 29.0504 222.264 29.0504 222.129 28.9154L220.506 27.2952ZM219.425 30.9406C219.154 30.9406 218.884 30.6706 218.884 30.4006C218.884 30.1305 219.154 29.8605 219.425 29.8605H221.588C221.858 29.8605 222.129 30.1305 222.129 30.4006C222.129 30.6706 221.858 30.9406 221.588 30.9406H219.425ZM221.182 34.1809C221.047 34.316 220.641 34.316 220.506 34.1809C220.371 34.0459 220.371 33.6409 220.506 33.5059L222.129 31.8857C222.264 31.7507 222.669 31.7507 222.805 31.8857C222.94 32.0207 222.94 32.4258 222.805 32.5608L221.182 34.1809ZM224.833 35.261C224.833 35.5311 224.562 35.8011 224.292 35.8011C224.021 35.8011 223.751 35.5311 223.751 35.261V33.1008C223.751 32.8308 224.021 32.5608 224.292 32.5608C224.562 32.5608 224.833 32.8308 224.833 33.1008V35.261ZM228.213 33.5059C228.348 33.6409 228.348 34.0459 228.213 34.1809C228.077 34.316 227.672 34.316 227.537 34.1809L225.914 32.5608C225.779 32.4258 225.779 32.0207 225.914 31.8857C226.049 31.7507 226.455 31.7507 226.59 31.8857L228.213 33.5059ZM229.294 29.8605C229.565 29.8605 229.835 30.1305 229.835 30.4006C229.835 30.6706 229.565 30.9406 229.294 30.9406H227.131C226.861 30.9406 226.59 30.6706 226.59 30.4006C226.59 30.1305 226.861 29.8605 227.131 29.8605H229.294ZM227.537 26.6202C227.672 26.4852 228.077 26.4852 228.213 26.6202C228.348 26.7552 228.348 27.1602 228.213 27.2952L226.59 28.9154C226.455 29.0504 226.049 29.0504 225.914 28.9154C225.779 28.7804 225.779 28.3753 225.914 28.2403L227.537 26.6202Z" fill="#395196"/>
<path fill-rule="evenodd" clip-rule="evenodd" d="M313.582 45.974H265.045C261.53 45.974 258.69 48.8093 258.69 52.3196V78.6473V80.5375V97.2792C258.69 97.5493 258.826 97.8193 259.096 97.9543C259.366 98.0893 259.637 97.9543 259.907 97.8193L270.858 86.8832H313.582C317.097 86.8832 319.936 84.0479 319.936 80.5375V52.1846C320.071 48.9443 317.097 45.974 313.582 45.974Z" fill="#F0EEF6"/>
<path fill-rule="evenodd" clip-rule="evenodd" d="M311.553 43.4088H263.017C259.501 43.4088 256.662 46.244 256.662 49.7544V76.0821V77.9723V94.714C256.662 94.984 256.797 95.254 257.068 95.3891C257.338 95.5241 257.609 95.3891 257.879 95.2541L268.83 84.3179H311.553C315.069 84.3179 317.908 81.4826 317.908 77.9723V49.6194C318.043 46.3791 315.069 43.4088 311.553 43.4088Z" fill="#0064B5"/>
<path fill-rule="evenodd" clip-rule="evenodd" d="M299.524 72.4368C299.524 68.3864 299.524 64.741 299.524 64.741H301.417H302.093L295.198 56.5052L288.303 64.741H288.979H290.872C290.872 73.787 291.142 74.192 284.382 74.192H277.352C277.352 74.192 278.163 77.1623 281.813 77.1623C285.464 77.1623 292.9 77.1623 295.063 77.1623C296.82 77.1623 298.713 76.4872 299.389 74.192C299.524 73.787 299.524 73.2469 299.524 72.4368Z" fill="white"/>
<path fill-rule="evenodd" clip-rule="evenodd" d="M275.05 54.75C275.05 58.8004 275.05 62.4457 275.05 62.4457H273.157H272.481L279.377 70.6816L286.272 62.4457H285.596H283.703C283.703 53.3998 283.433 52.9948 290.193 52.9948H297.223C297.223 52.9948 296.412 50.0245 292.761 50.0245C289.111 50.0245 281.675 50.0245 279.512 50.0245C277.754 50.0245 275.861 50.6995 275.185 52.9948C275.185 53.3998 275.05 53.9399 275.05 54.75Z" fill="white"/>
<path d="M217.198 170.265C216.24 170.505 209.414 169.548 205.102 169.069C200.671 168.352 201.629 163.688 201.629 163.688L209.414 164.046H216.36C216.24 164.166 218.755 169.667 217.198 170.265Z" fill="#FBBE9B"/>
<path d="M221.508 130.44L244.382 130.201V176.723H215.64C215.64 176.723 215.879 154.837 215.4 153.283C214.682 151.369 212.287 145.509 213.484 141.682C214.083 137.616 221.508 130.44 221.508 130.44Z" fill="#DE051F"/>
<path d="M222.824 107C226.178 108.555 228.213 124.461 229.651 125.776C231.567 127.69 233.004 131.158 231.567 132.593C230.369 133.909 224.381 134.746 222.465 133.55C220.19 132.234 221.507 126.733 221.507 125.178C221.507 123.265 219.95 122.428 217.076 124.222C214.561 126.135 212.405 125.776 211.208 125.537C210.848 125.537 210.848 125.298 210.848 125.178L211.088 123.982C211.088 123.743 210.848 123.624 210.729 123.624H209.411C209.172 123.624 209.052 123.384 209.052 123.265V120.993L207.495 121.232C207.256 121.232 207.136 120.993 207.136 120.873V118.122C205.819 114.654 205.22 109.033 205.22 109.033C205.22 109.033 219.95 106.283 222.824 107Z" fill="#FBBC98"/>
<path d="M248.213 153.163C248.213 153.163 248.213 164.764 247.015 170.265C246.297 174.571 240.189 173.614 237.674 173.016C236.956 172.657 236.357 172.298 235.758 172.059C231.926 169.309 214.561 157.947 213.962 157.349C213.603 156.632 211.207 157.588 209.531 157.588C207.615 157.588 207.255 156.392 207.255 156.392L207.615 155.436C207.615 155.436 206.896 155.436 206.657 154.24C206.297 153.044 207.016 152.087 211.088 151.967C214.441 151.728 215.758 153.881 215.998 154.24C215.998 154.479 216.237 154.479 216.237 154.479C217.555 155.436 228.333 161.415 232.764 162.97C234.68 163.927 235.279 163.927 236.237 163.927C237.195 163.927 237.554 163.568 237.554 162.611L237.315 152.924L248.213 153.163Z" fill="#FBBE9B"/>
<path d="M247.855 141.323C248.094 141.323 248.094 141.563 248.094 141.682L248.334 154.12C248.334 154.359 248.334 154.479 247.975 154.479C246.657 154.479 244.142 154.479 241.029 154.479C239.113 154.479 238.274 154.479 237.556 154.479C236.837 154.479 236.598 154.12 236.598 153.522V135.942C236.598 135.583 237.316 135.224 237.795 135.583L247.855 141.323Z" fill="#EE384E"/>
<path d="M241.988 146.227C240.431 141.921 236.958 134.626 233.605 132.593C230.252 131.038 228.695 126.733 227.737 123.624C227.377 120.873 220.551 112.382 220.551 112.382V110.827C219.832 107.359 217.078 108.674 215.641 111.186C214.324 113.697 209.773 112.143 207.857 109.631C205.94 107.359 204.384 110.827 204.384 110.827C204.384 110.827 200.072 115.132 198.515 108.076C196.599 101.14 205.461 99.7049 205.461 99.7049C207.976 95.0407 213.964 92.7684 213.964 92.7684C227.138 88.3434 231.21 105.565 231.21 105.565L231.449 106.761C231.449 106.761 233.006 111.664 235.281 113.578C237.557 115.491 242.706 117.046 243.664 122.667C244.623 128.288 249.293 129.842 249.293 129.842C249.293 129.842 258.994 137.616 257.676 142.998C256.598 151.609 244.144 150.652 241.988 146.227Z" fill="#1F1952"/>
<path d="M212.765 167.155L195.04 167.873L173.244 144.193L190.729 143.715L212.765 167.155Z" fill="#1C164F"/>
<path d="M192.285 161.056C192.525 161.056 192.525 161.296 192.525 161.415V162.372C192.525 162.372 192.764 162.133 193.722 162.133C194.68 161.894 194.081 164.405 193.483 165.481C192.884 166.438 191.207 166.199 189.65 165.242C188.333 164.286 189.89 160.937 189.89 160.937C190.01 160.1 191.327 160.937 192.285 161.056Z" fill="#FBBE9B"/>
<path d="M232.164 223.963L227.733 242.021L217.075 241.543L215.638 176.484L220.428 176.604L232.164 223.963Z" fill="#003EB0"/>
<path d="M249.531 241.423L248.932 239.271C245.219 230.181 246.178 212.482 246.178 209.372C246.417 209.013 246.417 208.655 246.417 208.415C251.447 195.38 245.1 184.736 244.86 183.54C244.621 181.387 244.501 176.723 244.501 176.723H220.429V176.962L220.07 179.713C217.795 194.662 232.166 241.064 233.004 243.696" fill="#0064E1"/>
<path fill-rule="evenodd" clip-rule="evenodd" d="M4.9208 241.022H335.079C337.242 241.022 339 241.288 339 241.654C339 241.986 337.242 242.286 335.079 242.286H321.83C320.613 242.286 319.666 242.452 319.666 242.618C319.666 242.818 320.613 242.951 321.83 242.951H326.697C328.184 242.951 329.401 243.15 329.401 243.383C329.401 243.616 328.184 243.815 326.697 243.815H13.844C12.3568 243.815 11.14 243.616 11.14 243.383C11.14 243.15 12.3568 242.951 13.844 242.951H17.6296C18.8464 242.951 19.7928 242.784 19.7928 242.618C19.7928 242.419 18.8464 242.286 17.6296 242.286H4.9208C2.7576 242.286 1 242.02 1 241.654C1 241.321 2.7576 241.022 4.9208 241.022ZM6.9488 243.815C8.436 243.815 9.5176 243.616 9.5176 243.416V243.383C9.5176 243.15 8.3008 242.984 6.9488 242.984C5.4616 242.984 4.38 243.184 4.38 243.383V243.416C4.38 243.616 5.5968 243.815 6.9488 243.815Z" fill="#283034"/>
<path d="M18.709 164.786C18.709 164.786 21.2778 163.706 21.1426 160.87C21.0074 157.9 19.385 155.875 22.765 156.685C25.8746 157.63 26.9562 157.765 29.2546 157.36C31.6882 156.955 33.1754 155.74 32.3642 158.98C31.4178 162.085 30.3362 164.246 32.7698 164.921C35.2034 165.326 37.637 163.841 37.9074 168.026C38.313 172.616 34.7978 177.747 28.5786 178.017C22.6298 178.152 19.9258 175.857 19.9258 175.857C19.9258 175.857 18.1682 173.697 20.8722 173.157C23.5762 172.616 26.0098 171.401 24.5226 170.456C23.441 169.376 18.9794 169.376 18.9794 169.376C18.9794 169.376 13.7066 167.756 18.709 164.786Z" fill="#6B9CD3"/>
<path d="M46.0188 165.731C45.6132 162.76 46.0188 160.735 51.2916 159.79C56.8348 159.115 59.9444 162.355 60.2148 165.731C60.6204 168.836 55.618 170.321 55.618 170.321C55.618 170.321 52.5084 171.266 53.8603 174.102C55.6179 177.072 56.4292 179.772 52.238 180.177C48.0468 180.582 44.2612 179.637 41.6924 178.017C39.2588 176.397 36.8252 172.481 39.6644 170.321C39.6644 170.321 40.3404 169.781 42.774 169.646C46.4244 169.646 46.0188 165.731 46.0188 165.731Z" fill="#1C4599"/>
<path d="M26.959 164.921C26.959 164.921 31.5558 175.182 32.0966 182.068" stroke="#88D6F8" stroke-width="0.5" stroke-miterlimit="10" stroke-linecap="round" stroke-linejoin="round"/>
<path d="M52.1064 166.811C52.1064 166.811 44.1296 178.422 42.1016 182.473" stroke="#599FD2" stroke-width="0.5" stroke-miterlimit="10" stroke-linecap="round" stroke-linejoin="round"/>
<path d="M29.3915 181.393H47.6435C47.6435 181.393 49.6715 181.528 49.5363 184.363C49.4011 186.928 46.4267 186.388 44.5339 186.388C42.7763 186.388 28.8507 186.388 28.8507 186.388C28.8507 186.388 26.6875 186.793 26.6875 184.228C26.6875 181.528 27.4987 181.393 29.3915 181.393Z" fill="#0256A4"/>
<path d="M28.9854 186.253L31.8245 202.319H43.9925L46.0205 190.303L28.9854 186.253Z" fill="#0256A4"/>
<path d="M28.9854 186.253L46.0205 190.303L46.8317 186.253H28.9854Z" fill="#346BB4"/>
<path d="M36.8291 182.203C36.8291 182.203 37.7755 164.381 42.9131 153.04" stroke="#FABD41" stroke-miterlimit="10"/>
<path d="M47.3749 146.694C47.3749 146.694 47.7805 152.23 42.3725 154.39C42.3725 154.12 41.4261 149.394 47.3749 146.694Z" fill="#FABD41"/>
<path d="M39.3984 163.841C39.3984 163.841 41.4264 158.98 47.3752 159.925C47.3752 159.655 46.9696 164.381 39.3984 163.841Z" fill="#FABD41"/>
<path d="M37.5039 175.587C37.5039 175.587 38.5855 170.591 44.6695 170.051C44.5343 170.051 44.9399 174.777 37.5039 175.587Z" fill="#FABD41"/>
<path d="M37.37 175.587C37.37 175.587 38.046 170.456 32.5028 167.891C32.3676 168.296 30.4748 172.482 37.37 175.587Z" fill="#FABD41"/>
<path d="M39.3996 163.841C39.3996 163.841 40.4812 158.845 35.614 155.74C35.4788 155.74 33.0452 159.655 39.3996 163.841Z" fill="#FABD41"/>
</svg>
