<svg width="340" height="270" viewBox="0 0 340 270" fill="none" xmlns="http://www.w3.org/2000/svg">
<path d="M26.3129 92.4708C26.3129 92.4708 42.6115 85.3633 43.5784 95.258C44.5453 105.292 48.5509 105.71 52.9709 105.989C57.1146 106.407 65.1258 103.759 65.5402 114.351C66.0927 124.803 62.3633 130.377 65.9546 134.558C69.5458 138.739 78.8002 160.48 69.5458 161.873C60.2915 163.267 51.8659 152.815 49.2415 147.519C46.7553 142.084 39.1584 140.272 33.081 140.272C27.0035 140.272 20.0972 135.534 23.9647 128.426C27.9703 121.319 25.8985 112.678 20.926 109.752C16.0916 106.964 15.2629 97.3485 26.3129 92.4708Z" fill="#EE384E"/>
<path d="M33.7568 101.645L72.6127 168.683" stroke="white" stroke-miterlimit="10" stroke-linecap="round" stroke-linejoin="round"/>
<path d="M57.0707 112.354L49.577 129.044L31.9531 128.488" stroke="white" stroke-miterlimit="10" stroke-linecap="round" stroke-linejoin="round"/>
<path d="M58.0424 163.676C58.0424 163.676 27.7904 143.509 13.6357 122.647" stroke="#FCBE42" stroke-miterlimit="10"/>
<path d="M7.11384 108.043C7.11384 108.043 17.2441 112.911 15.4401 124.594C15.3013 124.594 5.8649 121.812 7.11384 108.043Z" stroke="#FCBE42" stroke-miterlimit="10"/>
<path d="M29.3176 140.171C29.3176 140.171 23.2117 131.826 30.7053 121.812C30.4278 122.09 38.199 127.654 29.3176 140.171Z" stroke="#FCBE42" stroke-miterlimit="10"/>
<path d="M47.7738 156.027C47.7738 156.027 40.1414 149.072 45.4147 137.807C45.4147 137.807 53.8798 141.84 47.7738 156.027Z" stroke="#FCBE42" stroke-miterlimit="10"/>
<path d="M47.6351 156.444C47.6351 156.444 39.5864 150.046 29.3174 157C29.3174 157 34.5907 164.789 47.6351 156.444Z" stroke="#FCBE42" stroke-miterlimit="10"/>
<path d="M29.317 140.032C29.317 140.032 22.2397 132.661 11.138 138.224C10.9992 138.224 15.3011 146.848 29.317 140.032Z" stroke="#FCBE42" stroke-miterlimit="10"/>
<path d="M188.882 114.475H173.697V119.949H188.882V114.475Z" fill="#2440AB"/>
<path d="M194.876 117.145L187.15 121.818V112.74L194.876 117.145Z" fill="#2440AB"/>
<path d="M195.009 124.755H179.824V130.228H195.009V124.755Z" fill="#2440AB"/>
<path d="M173.697 127.425L181.423 131.964V123.019L173.697 127.425Z" fill="#2440AB"/>
<path d="M198.423 44.6375L160.86 44.9432L161.237 91.4012L198.799 91.0955L198.423 44.6375Z" fill="#E8E8E8"/>
<path d="M198.423 44.6375L160.86 44.9432L161.237 91.4012L198.799 91.0955L198.423 44.6375Z" fill="#DDE7F6"/>
<path d="M187.947 48.427L163.305 48.6284L163.321 50.6309L187.963 50.4295L187.947 48.427Z" fill="white"/>
<path d="M196.205 51.865L163.305 52.1326L163.321 54.1351L196.221 53.8675L196.205 51.865Z" fill="white"/>
<path d="M196.339 61.2102L163.438 61.478L163.455 63.4805L196.355 63.2127L196.339 61.2102Z" fill="white"/>
<path d="M196.339 64.9484L163.438 65.2161L163.455 67.2186L196.355 66.9509L196.339 64.9484Z" fill="white"/>
<path d="M196.34 56.0859L183.686 56.1889L183.702 58.1914L196.356 58.0884L196.34 56.0859Z" fill="white"/>
<path d="M187.814 69.2541L163.172 69.4545L163.188 71.457L187.83 71.2566L187.814 69.2541Z" fill="white"/>
<path d="M196.072 72.8252L163.172 73.0928L163.188 75.0953L196.088 74.8277L196.072 72.8252Z" fill="white"/>
<path d="M196.206 82.037L163.306 82.3047L163.322 84.3072L196.222 84.0395L196.206 82.037Z" fill="white"/>
<path d="M196.205 85.909L163.305 86.1758L163.321 88.1783L196.221 87.9115L196.205 85.909Z" fill="white"/>
<path d="M196.206 76.7791L183.552 76.8821L183.568 78.8846L196.222 78.7816L196.206 76.7791Z" fill="white"/>
<path d="M310.759 77.629C310.493 77.629 310.093 77.4955 309.96 77.2285C308.628 75.493 306.63 74.5585 304.499 74.425C302.101 74.2915 299.97 75.3595 298.505 77.095C298.105 77.629 297.439 77.629 296.906 77.2285C296.374 76.828 296.374 76.1605 296.773 75.6265C298.771 73.2235 301.435 72.1555 304.632 72.289C307.429 72.4225 309.96 73.7575 311.692 75.76C312.091 76.294 311.958 76.9615 311.558 77.362C311.292 77.4955 311.026 77.629 310.759 77.629Z" fill="#2440AB"/>
<path d="M308.495 80.4325C308.495 82.5685 306.764 84.304 304.632 84.304C302.501 84.304 300.77 82.5685 300.77 80.4325C300.77 78.2965 302.501 76.561 304.632 76.561C306.764 76.561 308.495 78.163 308.495 80.4325Z" fill="#2440AB"/>
<path d="M293.843 75.6265C293.577 75.6265 293.444 75.493 293.177 75.3595C292.645 74.959 292.511 74.2915 292.911 73.7575C295.708 70.0195 300.104 67.8835 304.633 68.017C308.629 68.1505 312.491 70.153 314.889 73.2235C315.289 73.7575 315.155 74.425 314.756 74.8255C314.223 75.226 313.557 75.0925 313.157 74.692C311.026 72.022 307.829 70.42 304.366 70.2865C300.503 70.153 296.774 72.022 294.376 75.0925C294.509 75.3595 294.243 75.6265 293.843 75.6265Z" fill="#2440AB"/>
<path d="M290.513 73.624C290.247 73.624 290.114 73.624 289.847 73.357C289.315 72.9565 289.181 72.289 289.581 71.755C293.044 66.8155 298.772 64.012 304.766 64.1455C309.961 64.4125 314.756 66.8155 317.953 70.954C318.352 71.488 318.219 72.1555 317.819 72.556C317.287 72.9565 316.621 72.823 316.221 72.4225C313.291 68.818 309.161 66.682 304.633 66.415C299.438 66.148 294.376 68.6845 291.313 73.09C291.313 73.4905 290.913 73.624 290.513 73.624Z" fill="#2440AB"/>
<path d="M81.6141 83.0531L80.6489 85.9551C80.5283 86.4388 80.7696 87.0434 81.2521 87.1643L82.8205 87.648C82.8205 88.2526 82.8205 88.9781 82.9412 89.5827L81.4934 90.3082C81.0108 90.55 80.8902 91.1546 81.1315 91.6383L82.5792 94.4194C82.8205 94.903 83.4238 95.0239 83.9063 94.7821L85.3541 94.0566C85.8367 94.5403 86.3192 94.903 86.8018 95.3867L86.3192 96.9586C86.1986 97.4423 86.4399 98.0469 86.9225 98.1678L89.818 99.1351C90.3006 99.2561 90.9038 99.0142 91.0244 98.5305L91.507 96.9586C92.1102 96.9586 92.8341 96.9586 93.4373 96.8377L94.1612 98.2887C94.4025 98.7724 95.0057 98.8933 95.4883 98.6515L98.2632 97.2005C98.7457 96.9586 98.8664 96.354 98.6251 95.8704L97.9012 94.4194C98.3838 93.9357 98.7457 93.452 99.2283 92.9684L100.797 93.452C101.279 93.5729 101.883 93.3311 102.003 92.8474L102.968 89.9454C103.089 89.4618 102.848 88.8572 102.365 88.7362L100.797 88.2526C100.797 87.648 100.797 86.9225 100.676 86.3179L102.124 85.5924C102.606 85.3506 102.727 84.746 102.486 84.2623L101.038 81.4812C100.797 80.9975 100.193 80.8766 99.7109 81.1185L98.2632 81.844C97.7806 81.3603 97.298 80.9975 96.8154 80.5139L97.298 78.9419C97.4186 78.4583 97.1773 77.8537 96.6948 77.7328L93.7993 76.7654C93.3167 76.6445 92.7135 76.8864 92.5928 77.37L92.1102 78.9419C91.507 78.9419 90.7831 78.9419 90.1799 79.0629L89.2147 77.7328C88.9735 77.2491 88.3702 77.1282 87.8876 77.37L85.1128 78.821C84.6302 79.0629 84.5096 79.6674 84.7509 80.1511L85.4747 81.6021C84.9921 82.0858 84.6302 82.5695 84.1476 83.0531L82.5792 82.5695C82.2173 82.2067 81.7347 82.5695 81.6141 83.0531ZM87.5257 86.6806C88.2496 84.3832 90.5418 83.295 92.8341 83.8996C95.1264 84.6251 96.2122 86.9225 95.609 89.2199C95.0057 91.5173 92.5928 92.6056 90.3006 92.001C88.0083 91.1546 86.8018 88.7362 87.5257 86.6806Z" fill="#EE384E"/>
<path d="M84.8721 85.7136C83.6656 89.3412 85.7166 93.3314 89.336 94.5406C92.9554 95.7498 96.9367 93.6942 98.1431 90.0667C99.3496 86.4391 97.2986 82.4489 93.6792 81.2397C89.9392 80.0305 86.0786 81.9652 84.8721 85.7136ZM87.5263 86.681C88.2502 84.3835 90.5424 83.2953 92.8347 83.8999C95.127 84.6254 96.2128 86.9228 95.6096 89.2202C95.0063 91.5177 92.5934 92.6059 90.3012 92.0013C88.0089 91.1549 86.8024 88.7366 87.5263 86.681Z" fill="#EE384E"/>
<path d="M63.759 48.471L62.0699 53.4286C61.8286 54.275 62.3112 55.2423 63.1557 55.4842L65.8099 56.3306C65.8099 57.4189 65.8099 58.628 66.0512 59.5954L63.5177 60.8045C62.6732 61.1673 62.4319 62.2556 62.7938 62.9811L65.2067 67.5759C65.5686 68.4223 66.6545 68.6642 67.3783 68.3014L69.9119 67.0922C70.6358 67.9387 71.4803 68.6642 72.4454 69.2688L71.6009 71.9289C71.1183 72.6544 71.6009 73.6218 72.4454 73.8636L77.3919 75.5565C78.2364 75.7983 79.2016 75.3146 79.4429 74.4682L80.2874 71.808C81.3732 71.808 82.5797 71.808 83.5448 71.5662L84.7513 74.1054C85.1132 74.9519 86.199 75.1937 86.9229 74.831L91.5074 72.4126C92.352 72.0499 92.5933 70.9616 92.2313 70.2361L91.0249 67.6968C91.8694 66.9713 92.5933 66.1249 93.1965 65.1576L95.8507 66.004C96.6952 66.2458 97.6604 65.7622 97.9017 64.9157L99.5907 59.9581C99.832 59.1117 99.3494 58.1444 98.5049 57.9025L95.8507 57.0561C95.8507 55.9679 95.8507 54.7587 95.6094 53.7913L98.143 52.5822C98.9875 52.2194 99.2288 51.1312 98.8668 50.4057L96.4539 45.8108C96.092 44.9644 95.0062 44.7225 94.2823 45.0853L91.7487 46.2945C91.0249 45.448 90.1803 44.7225 89.2152 44.118L90.0597 41.4578C90.301 40.6114 89.8184 39.644 88.9739 39.4022L84.0274 37.8303C83.1829 37.5884 82.2177 38.0721 81.9764 38.9185L81.1319 41.4578C80.0461 41.4578 78.8397 41.4578 77.8745 41.6996L76.668 39.1603C76.3061 38.3139 75.2203 38.0721 74.4964 38.4348L69.9119 40.8532C69.0674 41.2159 68.8261 42.3042 69.188 43.0297L70.3945 45.569C69.55 46.2945 68.8261 47.1409 68.2228 48.1082L65.5686 47.2618C64.8448 47.1409 63.8796 47.6246 63.759 48.471ZM73.8932 54.5168C75.0996 50.7684 79.2016 48.7128 82.9416 49.922C86.6816 51.1312 88.7326 55.2423 87.5261 58.9908C86.3197 62.7392 82.2177 64.7948 78.4777 63.5856C74.7377 62.4974 72.6867 58.2653 73.8932 54.5168Z" fill="#2440AB"/>
<path d="M69.4291 53.0659C67.3781 59.3536 70.8769 66.1249 77.1504 68.1805C83.424 70.2361 90.1802 66.7295 92.2311 60.4418C94.2821 54.1541 90.7834 47.3827 84.5098 45.3272C78.1156 43.3925 71.3594 46.7782 69.4291 53.0659ZM73.893 54.5169C75.0995 50.7684 79.2014 48.7128 82.9414 49.922C86.6814 51.1312 88.7324 55.2424 87.526 58.9908C86.3195 62.7392 82.2176 64.7948 78.4775 63.5857C74.7375 62.4974 72.6866 58.2653 73.893 54.5169Z" fill="#2440AB"/>
<path d="M335.535 237.028H5.4652C4.666 237.028 4 236.494 4 235.693C4 234.892 4.666 234.358 5.4652 234.358H335.535C336.334 234.358 337 234.892 337 235.693C337 236.494 336.334 237.028 335.535 237.028Z" fill="#1A1A1A"/>
<path d="M267.736 50.929H248.289C247.756 50.929 247.356 51.3295 247.356 51.8635C247.356 52.3975 247.756 52.798 248.289 52.798H267.736C268.269 52.798 268.668 52.3975 268.668 51.8635C268.535 51.3295 268.269 50.929 267.736 50.929Z" fill="#1631A4"/>
<path d="M242.028 50.929H238.299C237.766 50.929 237.366 51.3295 237.366 51.8635C237.366 52.3975 237.766 52.798 238.299 52.798H242.028C242.561 52.798 242.961 52.3975 242.961 51.8635C242.827 51.3295 242.428 50.929 242.028 50.929Z" fill="#1631A4"/>
<path d="M258.545 57.7375C258.545 58.2715 258.146 58.672 257.613 58.672H255.082C254.549 58.672 254.15 58.2715 254.15 57.7375C254.15 57.2035 254.549 56.803 255.082 56.803H257.613C258.146 56.9365 258.545 57.337 258.545 57.7375ZM251.885 57.7375C251.885 58.2715 251.486 58.672 250.953 58.672H246.691C246.158 58.672 245.758 58.2715 245.758 57.7375C245.758 57.2035 246.158 56.803 246.691 56.803H250.953C251.486 56.9365 251.885 57.337 251.885 57.7375ZM243.361 57.7375C243.361 58.2715 242.961 58.672 242.428 58.672H238.166C237.633 58.672 237.233 58.2715 237.233 57.7375C237.233 57.2035 237.633 56.803 238.166 56.803H242.428C242.961 56.9365 243.361 57.337 243.361 57.7375Z" fill="#1631A4"/>
<path d="M224.046 99.1225C227.376 99.1225 227.376 94.0495 224.046 94.0495C220.716 94.0495 220.85 99.1225 224.046 99.1225Z" fill="#1631A4"/>
<path d="M320.084 221.676C320.617 221.676 321.016 221.542 321.416 221.409C321.815 221.275 322.215 221.008 322.614 220.608C323.014 220.341 323.281 219.94 323.414 219.406C323.68 219.006 323.68 218.472 323.68 218.071C323.68 217.804 323.547 217.404 323.547 217.137C323.414 216.469 323.014 215.935 322.614 215.535C321.948 214.867 321.016 214.467 320.084 214.467C319.551 214.467 319.151 214.6 318.752 214.734C318.352 214.867 317.952 215.134 317.553 215.535C317.153 215.802 316.887 216.202 316.754 216.736C316.487 217.137 316.487 217.671 316.487 218.071C316.487 218.338 316.62 218.739 316.62 219.006C316.754 219.673 317.153 220.207 317.553 220.608C318.352 221.275 319.151 221.676 320.084 221.676Z" fill="#1631A4"/>
<path d="M251.886 130.896C251.886 130.896 252.152 136.503 249.355 139.707C246.557 142.911 241.896 148.651 241.896 148.651C241.896 148.651 248.822 159.198 262.408 157.863C275.995 156.394 278.526 146.515 278.526 146.515C278.526 146.515 265.738 145.047 263.874 132.631C262.408 120.483 260.277 120.483 260.277 120.483L251.886 130.896Z" fill="#EDBC9A"/>
<path d="M241.896 103.528C241.896 103.528 242.695 119.682 249.621 131.83C257.347 143.979 265.738 137.304 269.335 131.029C272.931 124.755 282.122 103.528 279.858 99.1225C277.593 93.649 250.953 91.3795 250.953 91.3795L241.896 103.528Z" fill="#EDBC9A"/>
<path d="M277.06 112.606C277.06 112.606 280.656 109.535 280.656 112.606C280.656 115.676 278.392 120.349 275.861 120.349C273.597 121.15 273.597 119.548 274.396 117.278C275.595 115.676 277.06 112.606 277.06 112.606Z" fill="#EDBC9A"/>
<path d="M243.361 118.48C244.16 119.281 245.625 119.281 245.625 117.679C245.625 114.609 243.361 109.936 240.83 109.936C238.565 109.135 238.565 110.737 239.365 113.007C239.365 113.808 239.365 114.475 240.164 115.276C241.229 116.344 242.695 118.48 243.361 118.48Z" fill="#EDBC9A"/>
<path d="M242.694 110.737L241.895 105.931C241.895 105.931 246.69 106.732 251.086 101.125C251.086 101.125 261.076 103.395 268.535 102.594C277.06 101.793 279.857 99.5231 279.857 99.5231C279.857 99.5231 278.392 108.735 276.793 111.672C276.793 111.672 280.39 110.203 282.254 105.397C283.72 100.591 283.72 96.1856 283.72 96.1856C283.72 96.1856 289.181 91.3796 290.646 86.9741C290.646 86.9741 275.994 83.3696 271.732 80.6995C266.936 77.629 264.805 75.8935 264.805 75.8935C264.805 75.8935 257.879 72.289 251.219 77.362C244.559 82.435 239.897 85.9061 239.897 94.8506C240.563 94.9841 233.503 104.062 242.694 110.737Z" fill="#1F1B54"/>
<path d="M208.329 214.867C209.794 217.938 212.325 220.207 214.989 221.943C215.522 222.343 216.321 222.744 216.854 223.011C218.053 223.812 219.251 224.479 220.317 225.28C220.983 225.681 221.782 226.215 222.448 226.615C222.981 227.016 223.913 226.749 224.047 226.081C224.18 225.28 223.514 224.746 223.114 224.212C222.581 223.812 222.182 223.278 221.649 222.877C220.717 221.943 219.651 221.142 218.585 220.207C218.452 220.074 218.186 219.807 217.919 219.673C218.186 219.807 218.452 220.074 218.719 220.207C219.385 220.741 220.051 221.142 220.717 221.542C221.516 222.076 222.315 222.744 223.114 223.278C223.913 223.812 224.713 224.479 225.512 224.88C226.045 225.28 226.577 225.814 227.11 226.081C227.643 226.348 228.442 226.615 228.842 226.081C228.975 225.814 228.975 225.414 228.975 225.147C228.975 224.746 228.575 224.212 228.309 223.945C228.043 223.678 227.776 223.411 227.51 223.144C226.844 222.343 225.911 221.676 225.112 221.008C224.18 220.207 223.381 219.54 222.448 218.739C221.649 218.205 220.983 217.537 220.184 216.87C219.784 216.603 219.518 216.336 219.118 215.935L229.241 223.945C229.907 224.479 231.639 225.414 232.305 224.212C232.571 223.812 232.438 222.877 232.172 222.477C231.905 222.076 231.506 221.676 231.239 221.409C230.44 220.741 229.774 220.074 228.975 219.406C227.377 218.071 225.778 216.603 224.18 215.535C223.78 215.268 223.514 215.001 223.114 214.6C224.313 215.668 225.778 216.603 226.844 217.537C228.442 218.605 229.375 219.54 230.44 220.207C230.707 220.341 231.239 220.741 231.639 220.741C232.172 220.741 232.971 220.608 233.237 220.207C233.637 219.673 233.237 218.605 232.705 218.071C229.641 215.401 227.643 213.799 224.846 212.064C224.846 212.064 222.448 210.595 222.182 210.462C222.182 210.462 226.711 212.998 229.641 212.464C229.641 212.464 233.504 210.462 227.243 209.127C227.243 209.127 223.78 207.525 221.516 206.323C221.516 206.323 217.253 203.92 212.059 205.522C212.059 205.522 207.929 202.852 206.864 202.185L203.001 207.258C203.534 207.391 207.53 212.598 208.329 214.867Z" fill="#EDBC9A"/>
<path d="M308.362 209.794C308.628 213.132 307.43 216.469 305.964 219.273C305.565 219.807 305.298 220.608 304.899 221.142C304.233 222.477 303.567 223.545 302.901 224.746C302.501 225.414 302.102 226.215 301.569 226.882C301.302 227.416 300.37 227.817 299.837 227.283C299.304 226.749 299.571 225.814 299.837 225.28C299.97 224.746 300.237 223.945 300.37 223.411C300.903 222.076 301.302 220.875 301.702 219.673C301.835 219.406 301.835 219.139 301.968 218.739C301.835 219.006 301.702 219.273 301.569 219.673C301.302 220.341 300.903 221.142 300.636 221.809C300.237 222.744 299.704 223.678 299.304 224.613C298.905 225.547 298.505 226.348 298.106 227.283C297.839 227.817 297.573 228.618 297.173 229.152C296.907 229.686 296.241 230.22 295.575 230.086C295.175 229.953 295.042 229.552 294.909 229.285C294.776 228.885 294.776 228.351 294.909 227.95C295.042 227.55 295.042 227.283 295.175 226.882C295.442 225.948 295.708 224.88 296.108 223.812C296.507 222.744 296.907 221.676 297.306 220.608C297.573 219.673 297.972 218.872 298.239 217.804C298.372 217.404 298.505 216.87 298.772 216.469C298.772 216.469 293.976 228.351 293.976 228.484C293.71 229.285 292.644 230.887 291.446 230.22C291.046 230.086 290.646 229.152 290.646 228.618C290.646 228.084 290.78 227.683 291.046 227.149C291.312 226.215 291.579 225.147 291.978 224.212C292.778 222.21 293.444 220.341 294.243 218.338C294.376 217.938 294.509 217.404 294.776 217.003C294.243 218.472 293.444 220.074 292.778 221.275C291.978 222.877 291.446 224.212 290.78 225.414C290.646 225.681 290.38 226.215 290.114 226.348C289.581 226.615 288.915 226.882 288.515 226.615C287.982 226.348 287.716 225.147 287.982 224.479C289.314 220.741 290.38 218.205 291.712 215.268C291.712 215.268 293.044 212.865 293.177 212.464C293.177 212.464 290.38 216.87 287.583 217.804C287.583 217.804 283.32 217.938 288.116 213.799C288.116 213.799 290.513 210.595 291.845 208.593C291.845 208.593 294.509 204.454 299.704 203.386C299.704 203.386 302.102 199.248 302.501 197.779L311.026 201.384C311.426 202.051 308.229 207.391 308.362 209.794Z" fill="#EDBC9A"/>
<path d="M315.422 196.711L303.301 165.072C300.503 157.195 293.71 152.389 286.517 149.452C282.655 147.85 278.659 146.248 274.796 144.646C261.609 158.93 245.225 144.646 245.225 144.646C242.828 145.981 240.43 147.449 237.899 148.651C231.239 152.389 223.114 155.193 218.985 162.268L199.671 196.044C199.671 196.044 201.402 208.726 206.331 212.064C206.331 212.064 207.796 204.321 218.053 205.389L216.454 197.379L233.371 180.024L236.168 209.527H281.456L285.052 179.89L299.305 196.444L292.911 207.925C303.567 203.519 308.229 210.862 308.229 210.862C308.229 210.862 313.69 204.321 315.422 196.711Z" fill="#EE384E"/>
<path d="M245.092 144.513L239.897 147.45C239.897 147.45 249.221 155.994 258.812 155.994C258.945 155.994 258.945 155.994 259.078 155.994C268.802 155.86 275.595 153.057 279.058 146.382L274.529 144.513C274.529 144.513 267.07 151.054 260.81 150.787C261.076 150.921 254.283 151.321 245.092 144.513Z" fill="#BD4149"/>
<path d="M296.108 223.545C296.108 225.414 294.643 226.882 292.778 226.882H223.114C221.249 226.882 219.784 225.414 219.784 223.545V172.681C219.784 170.812 221.249 169.344 223.114 169.344H292.778C294.643 169.344 296.108 170.812 296.108 172.681V223.545Z" fill="#25409C"/>
<path d="M220.982 173.349V201.784C220.982 214.733 222.448 225.28 224.312 225.28H292.244C294.109 225.28 295.574 214.867 295.574 201.784V173.349H220.982Z" fill="#0064B7"/>
<path d="M241.895 225.948H231.372V228.484H241.895V225.948Z" fill="#25409C"/>
<path d="M282.92 225.948H272.397V228.484H282.92V225.948Z" fill="#25409C"/>
<path d="M212.191 229.552H304.099C304.099 229.552 302.767 233.557 300.636 235.159H220.45C220.583 235.025 212.991 234.225 212.191 229.552Z" fill="#254098"/>
<path d="M179.318 117H38V213.071H179.318V117Z" fill="#0064B5"/>
<path d="M179.318 198.871H38V213.032H179.318V198.871Z" fill="#FFC727"/>
<path d="M179.318 198.871H38V213.032H179.318V198.871Z" fill="#033E9F"/>
<path d="M136.199 230.366H81.1191V234.97H136.199V230.366Z" fill="#FFC727"/>
<path d="M136.199 230.366H81.1191V234.97H136.199V230.366Z" fill="#033E9F"/>
<path d="M129.658 230.366H87.6611L88.7449 222.395L88.7836 222.008L88.8997 221.273L88.9385 220.886L89.0546 220.151V220.035L89.0933 219.764L89.2094 219.029L89.2481 218.642L89.9835 213.071H127.336L128.032 218.333L128.071 218.565L128.187 219.455L128.226 219.687L128.264 220.035L128.342 220.577V220.809L128.458 221.699L128.497 221.931L129.658 230.366Z" fill="#0064B5"/>
<path d="M110.962 205.023C110.962 206.299 109.917 207.344 108.64 207.344C107.362 207.344 106.317 206.299 106.317 205.023C106.317 203.746 107.362 202.701 108.64 202.701C109.917 202.662 110.962 203.707 110.962 205.023Z" fill="white"/>
<g opacity="0.16">
<path d="M128.264 220.035L89.248 218.642L89.9835 213.071H127.335L128.264 220.035Z" fill="black"/>
</g>
<path d="M173.203 123.065H44.9287V192.051H173.203V123.065Z" fill="#FDFDFD"/>
<path d="M101.134 155.62H85.5156V179.341H101.134V155.62Z" fill="#BD4149"/>
<path d="M104.297 131.182L90.2168 164.828L117.472 176.285L131.552 142.64L104.297 131.182Z" fill="#F5F5F7"/>
<path d="M105.171 134.332L104.567 135.775L122.516 143.32L123.12 141.877L105.171 134.332Z" fill="#DDE7F6"/>
<path d="M104.037 137.083L103.433 138.527L127.364 148.587L127.968 147.143L104.037 137.083Z" fill="#DDE7F6"/>
<path d="M101.155 143.545L100.551 144.988L124.482 155.048L125.086 153.605L101.155 143.545Z" fill="#DDE7F6"/>
<path d="M100.145 146.645L99.541 148.088L123.472 158.148L124.076 156.705L100.145 146.645Z" fill="#DDE7F6"/>
<path d="M117.581 146.22L116.977 147.664L126.062 151.483L126.666 150.039L117.581 146.22Z" fill="#DDE7F6"/>
<path d="M93.9117 141.609L88.3203 177.659L117.523 182.209L123.114 146.159L93.9117 141.609Z" fill="white"/>
<path d="M95.3268 144.362L95.0869 145.908L114.318 148.905L114.558 147.358L95.3268 144.362Z" fill="#DDE7F6"/>
<path d="M94.8844 147.442L94.6445 148.988L120.286 152.983L120.526 151.436L94.8844 147.442Z" fill="#DDE7F6"/>
<path d="M93.7995 154.53L93.5596 156.076L119.201 160.071L119.441 158.525L93.7995 154.53Z" fill="#DDE7F6"/>
<path d="M93.3981 157.386L93.1582 158.933L118.799 162.928L119.039 161.381L93.3981 157.386Z" fill="#DDE7F6"/>
<path d="M110.235 152.964L109.995 154.511L119.729 156.027L119.969 154.481L110.235 152.964Z" fill="#DDE7F6"/>
<path d="M125.882 158.871H85.5156V184.519H125.882V158.871Z" fill="#EE384E"/>
<path d="M201.283 191.371L181.036 185.764L160.79 191.371C160.79 191.371 153.863 225.814 181.036 232.89C208.342 225.814 201.283 191.371 201.283 191.371Z" fill="#25409A"/>
<path d="M198.485 193.908L181.036 189.102L163.587 193.908C163.587 193.908 157.593 223.812 181.036 229.819C204.612 223.678 198.485 193.908 198.485 193.908Z" fill="#FCBE42"/>
<path d="M178.639 217.671C178.24 217.671 177.973 217.537 177.707 217.27L169.448 208.592C168.916 208.058 168.916 207.258 169.448 206.724C169.981 206.19 170.78 206.19 171.313 206.724L178.639 214.333L190.76 201.651C191.293 201.116 192.092 201.116 192.625 201.651C193.158 202.185 193.158 202.985 192.625 203.519L179.572 217.27C179.305 217.537 178.906 217.671 178.639 217.671Z" fill="white"/>
</svg>
