<svg width="340" height="270" viewBox="0 0 340 270" fill="none" xmlns="http://www.w3.org/2000/svg">
<path d="M122.099 59.258C121.256 60.704 120.173 61.909 118.969 62.9935L120.052 67.3315L113.551 70.826L110.661 67.3315C109.096 67.693 107.41 67.934 105.845 67.693L103.558 71.6695L96.4541 69.38L96.8153 64.9215C95.3705 64.078 94.1665 62.9935 93.0829 61.7885L88.6281 62.9935L85.1365 56.366L88.6281 53.474C88.2669 51.9075 88.0261 50.2205 88.2669 48.654L84.4141 46.244L86.5813 39.255L91.0361 39.6165C91.8789 38.1705 92.9625 36.9655 94.1665 35.881L92.9625 31.4225L99.4641 27.928L102.354 31.4225C103.919 31.061 105.604 30.82 107.17 31.061L109.578 27.0845L116.561 29.2535L116.2 33.712C117.644 34.5555 118.848 35.64 119.932 36.845L124.387 35.64L127.878 42.147L124.387 45.039C124.748 46.6055 124.989 48.2925 124.748 49.859L128.721 52.1485L126.554 59.499L122.099 59.258ZM114.153 52.1485C115.598 47.931 113.069 43.593 109.096 42.147C104.882 40.701 100.548 43.2315 99.1029 47.208C97.6581 51.4255 100.186 55.7635 104.16 57.2095C108.253 58.6555 112.949 56.2455 114.153 52.1485Z" stroke="#023EA1" stroke-miterlimit="10"/>
<path d="M200.293 7.67392C200.293 7.67392 188.83 5.79898 189.812 12.2185C190.815 18.7262 188.347 19.6358 185.594 20.524C183.038 21.4559 177.54 21.0696 178.983 27.8412C180.316 34.5469 183.575 37.4753 181.975 40.7002C180.374 43.9252 178.017 59.178 184.099 58.5701C190.182 57.9622 193.833 49.9888 194.642 46.2138C195.34 42.3728 199.858 40.0027 203.705 39.0241C207.552 38.0455 211.161 33.9339 207.569 30.0573C203.888 26.2029 203.809 20.3995 206.485 17.7461C209.097 15.2033 208.073 8.98245 200.293 7.67392Z" fill="#EE384E"/>
<path d="M197.059 14.6802L183.256 63.3748" stroke="white" stroke-miterlimit="10" stroke-linecap="round" stroke-linejoin="round"/>
<path d="M184.024 25.2135L191.456 34.5724L202.523 31.3824" stroke="white" stroke-miterlimit="10" stroke-linecap="round" stroke-linejoin="round"/>
<path d="M191.672 57.8591C191.672 57.8591 207.576 40.2213 213.177 24.7352" stroke="#FCBE42" stroke-miterlimit="10"/>
<path d="M214.954 14.4403C214.954 14.4403 209.325 19.1531 212.348 26.2585C212.436 26.2361 217.962 22.9558 214.954 14.4403Z" stroke="#FCBE42" stroke-miterlimit="10"/>
<path d="M206.072 38.3538C206.072 38.3538 208.594 32.0879 202.238 26.9552C202.458 27.0866 198.434 31.8598 206.072 38.3538Z" stroke="#FCBE42" stroke-miterlimit="10"/>
<path d="M196.941 51.363C196.941 51.363 200.653 45.7317 195.501 39.4491C195.501 39.4491 190.792 43.3655 196.941 51.363Z" stroke="#FCBE42" stroke-miterlimit="10"/>
<path d="M197.096 51.605C197.096 51.605 201.161 46.2589 208.782 49.0076C208.782 49.0076 206.698 54.7873 197.096 51.605Z" stroke="#FCBE42" stroke-miterlimit="10"/>
<path d="M206.05 38.266C206.05 38.266 209.343 32.46 217.267 34.1942C217.355 34.1719 216.02 40.3234 206.05 38.266Z" stroke="#FCBE42" stroke-miterlimit="10"/>
<path d="M70.5684 211.208C70.5684 211.208 71.05 214.221 72.4948 218.197L77.7924 220.848L73.458 221.451C78.274 233.26 89.5916 250.13 116.2 246.635C116.561 246.876 129.324 213.498 70.5684 211.208Z" fill="#FABD41"/>
<path d="M77.5516 229.404L99.344 231.814L70.5684 211.208" stroke="white" stroke-width="0.5" stroke-miterlimit="10" stroke-linecap="round" stroke-linejoin="round"/>
<path d="M89.1104 213.257L99.3444 231.814" stroke="white" stroke-width="0.5" stroke-miterlimit="10" stroke-linecap="round" stroke-linejoin="round"/>
<path d="M87.4242 191.567C87.4242 191.567 94.6482 186.626 95.9726 190.964C97.5378 195.302 99.4642 195.061 101.511 194.82C103.678 194.338 107.049 192.41 108.253 197.23C109.578 202.05 108.253 204.701 110.421 206.147C112.588 207.714 118.969 216.149 114.755 217.715C110.421 219.282 105.364 215.546 103.678 213.618C101.993 211.449 98.1398 211.449 95.3706 212.052C92.3606 212.654 88.6282 211.449 89.8322 207.714C91.1566 203.978 89.2302 200.484 86.5814 199.881C83.8122 198.797 82.4878 194.7 87.4242 191.567Z" fill="#1C4599"/>
<path d="M91.2773 195.543L116.08 220.487" stroke="white" stroke-width="0.5" stroke-miterlimit="10" stroke-linecap="round" stroke-linejoin="round"/>
<path d="M103.317 197.712L101.39 205.665L92.8418 207.111" stroke="white" stroke-width="0.5" stroke-miterlimit="10" stroke-linecap="round" stroke-linejoin="round"/>
<path d="M81.043 202.773C81.043 202.773 81.043 207.352 84.053 205.545C87.063 203.737 89.1098 203.617 90.4342 207.111C91.7586 210.606 93.9258 211.931 95.9726 211.208C98.1398 210.606 101.511 208.798 102.956 213.618C104.521 218.438 108.013 227.114 103.197 229.404C98.2602 231.814 90.5546 228.56 89.2302 225.066C87.9058 221.571 89.2302 218.679 85.3774 217.354C81.5246 216.269 80.8022 220.125 77.5514 217.595C74.0598 214.944 70.3274 212.654 72.7354 207.111C75.7454 201.809 80.441 200.122 81.043 202.773Z" stroke="#ED3B4E" stroke-width="0.5" stroke-miterlimit="10"/>
<path d="M80.2002 207.593C80.2002 207.593 101.752 224.222 108.374 227.235" stroke="#ED3B4E" stroke-width="0.5" stroke-miterlimit="10"/>
<path d="M97.4176 213.739L98.14 220.848L92.6016 223.138" stroke="#ED3B4E" stroke-width="0.5" stroke-miterlimit="10"/>
<path d="M86.7017 207.111L86.4609 212.293L81.8857 214.823" stroke="#ED3B4E" stroke-width="0.5" stroke-miterlimit="10"/>
<path d="M115.477 39.1344C113.792 39.1344 112.227 40.4599 112.227 42.3879V262.18C112.227 263.867 113.792 265.433 115.477 265.433H233.349C235.035 265.433 236.6 264.108 236.6 262.18V42.2674C236.6 40.5804 235.035 39.0139 233.349 39.0139L115.477 39.1344Z" fill="#1466B1"/>
<path d="M234.312 53.3534H114.394V251.335H234.312V53.3534Z" fill="white" stroke="#1466B1" stroke-width="2" stroke-miterlimit="10"/>
<path d="M191.449 46.6054C191.449 47.4489 190.607 48.2924 189.764 48.2924C188.921 48.2924 188.078 47.4489 188.078 46.6054C188.078 45.7619 188.921 44.9184 189.764 44.9184C190.607 44.7979 191.449 45.5209 191.449 46.6054Z" fill="#012257"/>
<path d="M187.597 46.6054C187.597 47.4489 186.995 48.1719 186.032 48.1719H158.701C157.858 48.1719 157.136 47.5694 157.136 46.6054C157.136 45.7619 157.738 45.0389 158.701 45.0389H186.032C186.754 45.0389 187.597 45.7619 187.597 46.6054Z" fill="#012257"/>
<path d="M201.443 86.2499L200.119 84.6834L203.971 82.6349L186.152 76.7304L192.052 94.0824L194.219 91.0699C194.219 91.0699 205.777 111.555 194.219 123.846C182.781 136.016 169.176 133.486 169.176 133.486L171.825 141.921C171.825 141.921 193.135 143.487 204.573 124.207C216.011 104.807 201.443 86.2499 201.443 86.2499Z" fill="#0064E1"/>
<path d="M147.745 128.907L149.069 130.473L145.216 132.522L163.036 138.426L157.136 121.074L154.969 124.087C154.969 124.087 143.41 103.602 154.969 91.3109C166.407 79.1404 180.012 81.6709 180.012 81.6709L177.363 73.2359C177.363 73.2359 156.052 71.6694 144.614 90.9494C133.176 110.229 147.745 128.907 147.745 128.907Z" fill="#0064E1"/>
<path fill-rule="evenodd" clip-rule="evenodd" d="M184.828 97.4564C185.671 98.2999 186.394 99.3844 186.996 100.589H190.487L191.812 106.012L188.681 107.578C188.681 108.783 188.44 109.988 188.079 111.314L190.608 113.844L187.477 118.785L184.226 117.58C183.384 118.423 182.3 119.146 181.096 119.749V123.243L175.678 124.569L174.113 121.436C172.909 121.436 171.705 121.195 170.38 120.833L167.972 123.243L163.036 120.11L164.24 116.857C163.397 116.013 162.675 114.929 162.073 113.724H158.581L157.257 108.301L160.508 106.735C160.508 105.53 160.748 104.325 161.11 102.999L158.702 100.589L161.832 95.6489L165.083 96.8539C165.926 96.0104 167.009 95.2874 168.213 94.6849V91.1904L173.631 89.8649L175.196 93.1184C176.4 93.1184 177.604 93.3594 178.929 93.7209L181.337 91.3109L186.273 94.4439L184.828 97.4564ZM177.845 101.915C175.076 100.107 171.344 101.071 169.538 103.843C167.732 106.614 168.695 110.35 171.464 112.157C174.233 113.965 177.966 113.001 179.772 110.229C181.578 107.578 180.855 103.722 177.845 101.915Z" fill="#023EA1"/>
<path fill-rule="evenodd" clip-rule="evenodd" d="M177.845 101.915C175.076 100.107 171.343 101.071 169.537 103.843C167.731 106.614 168.694 110.35 171.464 112.157C174.233 113.965 177.965 113.001 179.771 110.229C181.577 107.578 180.855 103.722 177.845 101.915Z" fill="white"/>
<path d="M155.933 163.972V160.237H156.535V163.852C156.535 165.418 157.257 166.021 158.461 166.021C159.785 166.021 160.387 165.298 160.387 163.852V160.237H160.989V163.972C160.989 165.78 159.906 166.744 158.341 166.744C156.775 166.744 155.933 165.78 155.933 163.972Z" fill="#1A2E35"/>
<path d="M168.214 162.406C168.214 163.852 167.13 164.575 165.565 164.575H163.879V166.623H163.277V160.357H165.685C167.251 160.357 168.214 161.08 168.214 162.406ZM167.491 162.406C167.491 161.321 166.889 160.839 165.565 160.839H163.879V164.093H165.565C166.889 164.093 167.491 163.37 167.491 162.406Z" fill="#1A2E35"/>
<path d="M169.658 160.357H172.187C174.233 160.357 175.678 161.683 175.678 163.611C175.678 165.539 174.233 166.864 172.187 166.864H169.658V160.357ZM172.187 166.141C173.872 166.141 174.956 164.936 174.956 163.49C174.956 161.924 173.752 160.839 172.187 160.839H170.26V166.021L172.187 166.141Z" fill="#1A2E35"/>
<path d="M181.096 164.936H177.484L176.761 166.623H176.039L179.049 160.357H179.651L182.661 166.623H181.939L181.096 164.936ZM180.855 164.454L179.29 160.96L177.725 164.454H180.855Z" fill="#1A2E35"/>
<path d="M184.587 160.96H182.3V160.357H187.357V160.96H185.069V166.744H184.467L184.587 160.96Z" fill="#1A2E35"/>
<path d="M193.136 166.141V166.744H188.682V160.478H193.016V161.08H189.284V163.37H192.655V163.852H189.284V166.141H193.136Z" fill="#1A2E35"/>
<path d="M195.303 226.271H154.487C149.31 226.271 145.096 222.053 145.096 216.872C145.096 211.69 149.31 207.473 154.487 207.473H195.303C200.48 207.473 204.694 211.69 204.694 216.872C204.694 222.053 200.48 226.271 195.303 226.271Z" fill="#EE384E"/>
<path d="M167.249 218.318L167.61 217.595C167.971 217.836 168.453 217.956 169.055 217.956C169.657 217.956 169.777 217.715 169.777 217.595C169.777 216.872 167.249 217.354 167.249 215.667C167.249 214.944 167.851 214.221 169.055 214.221C169.537 214.221 170.259 214.341 170.62 214.582L170.259 215.305C169.898 215.064 169.537 214.944 169.055 214.944C168.453 214.944 168.333 215.185 168.333 215.426C168.333 216.149 170.861 215.667 170.861 217.233C170.861 217.956 170.259 218.559 169.055 218.559C168.212 218.8 167.61 218.559 167.249 218.318Z" fill="white"/>
<path d="M173.63 218.559C173.389 218.679 173.148 218.8 172.908 218.8C172.185 218.8 171.583 218.438 171.583 217.595V216.149H171.102V215.426H171.583V214.703H172.667V215.426H173.389V216.149H172.667V217.595C172.667 217.836 172.787 217.956 173.028 217.956C173.148 217.956 173.269 217.956 173.389 217.836L173.63 218.559Z" fill="white"/>
<path d="M177.002 216.872V218.8H176.159V218.438C176.039 218.8 175.677 218.8 175.075 218.8C174.353 218.8 173.751 218.438 173.751 217.715C173.751 217.113 174.112 216.631 175.196 216.631H175.918C175.918 216.269 175.677 216.028 175.196 216.028C174.835 216.028 174.473 216.149 174.353 216.39L173.992 215.787C174.353 215.546 174.835 215.426 175.437 215.426C176.52 215.305 177.002 215.908 177.002 216.872ZM176.039 217.715V217.354H175.437C175.075 217.354 174.835 217.474 174.835 217.715C174.835 217.956 175.075 218.077 175.316 218.077C175.677 218.197 175.918 218.077 176.039 217.715Z" fill="white"/>
<path d="M179.891 215.305V216.149C179.891 216.149 179.77 216.149 179.65 216.149C179.168 216.149 178.807 216.39 178.807 216.992V218.559H177.724V215.305H178.566V215.667C179.048 215.546 179.409 215.305 179.891 215.305Z" fill="white"/>
<path d="M182.78 218.559C182.54 218.679 182.299 218.8 182.058 218.8C181.336 218.8 180.734 218.438 180.734 217.595V216.149H180.252V215.426H180.734V214.703H181.817V215.426H182.54V216.149H181.817V217.595C181.817 217.836 181.938 217.956 182.178 217.956C182.299 217.956 182.419 217.956 182.54 217.836L182.78 218.559Z" fill="white"/>
<path d="M213.604 181.565C213.604 181.565 196.146 181.686 174.474 181.686C152.802 181.686 135.344 181.686 135.344 181.565C135.344 181.565 152.802 181.445 174.474 181.445C196.146 181.445 213.604 181.445 213.604 181.565Z" fill="#1A2E35"/>
<path d="M198.072 186.385C198.072 186.385 187.597 186.506 174.594 186.506C161.591 186.506 151.116 186.506 151.116 186.385C151.116 186.385 161.591 186.265 174.594 186.265C187.357 186.265 198.072 186.385 198.072 186.385Z" fill="#1A2E35"/>
<path d="M87.7456 90.5085C87.264 91.2315 86.7824 91.834 86.1804 92.4365L86.7824 94.6055L83.2908 96.413L81.7256 94.6055C80.8828 94.8465 80.04 94.8465 79.1972 94.8465L77.9932 96.895L74.2608 95.8105L74.5016 93.521C73.7792 93.039 73.1772 92.557 72.5752 91.9545L70.2876 92.557L68.4816 89.183L70.2876 87.6165C70.0468 86.773 70.0468 85.9295 70.0468 85.086L68 83.881L69.0836 80.1455L71.3712 80.3865C71.8528 79.6635 72.3344 79.061 72.9364 78.4585L72.3344 76.2895L75.7056 74.482L77.2708 76.2895C78.1136 76.0485 78.9564 76.0485 79.7992 76.0485L81.0032 74L84.7356 75.0845L84.4948 77.4945C85.2172 77.9765 85.8192 78.4585 86.4212 79.061L88.5884 78.4585L90.3944 81.8325L88.8292 83.399C89.1904 84.2425 89.1904 85.086 89.1904 85.9295L91.2372 87.1345L90.1536 90.7495L87.7456 90.5085ZM83.7724 86.773C84.4948 84.604 83.1704 82.3145 81.1236 81.712C78.9564 80.989 76.6688 82.3145 76.0668 84.363C75.3444 86.532 76.6688 88.8215 78.7156 89.424C80.7624 90.147 83.05 88.942 83.7724 86.773Z" fill="#DE051F"/>
<path d="M319.195 265.193C319.195 265.193 252.734 265.795 170.501 265.795C88.2674 265.795 21.8066 265.795 21.8066 265.193C21.8066 265.193 88.2674 264.59 170.501 264.59C252.734 264.59 319.195 264.59 319.195 265.193Z" fill="#1A1A1A"/>
<path d="M224.8 203.496C224.8 203.496 229.014 201.809 228.653 197.11C228.292 192.29 225.884 188.916 230.941 190.362C235.877 191.808 237.683 192.41 241.415 191.567C245.148 190.844 248.158 189.277 246.472 194.097C244.787 198.917 243.101 202.894 246.954 203.617C250.807 204.34 254.78 201.448 255.261 208.919C255.743 216.39 249.723 224.825 239.971 225.066C230.218 225.427 225.884 221.33 225.884 221.33C225.884 221.33 223.235 217.595 227.329 216.631C231.422 215.667 235.516 213.98 233.469 212.052C231.422 210.124 224.559 210.003 224.559 210.003C224.559 210.003 216.252 208.437 224.8 203.496Z" fill="#649EEA"/>
<path d="M269.348 204.701C268.626 199.881 269.228 196.507 278.017 195.182C286.806 193.856 292.104 199.279 292.706 204.701C293.308 210.124 285.602 212.172 285.602 212.172C285.602 212.172 280.184 213.739 282.833 218.438C285.602 223.258 286.927 227.838 280.546 228.561C274.285 229.284 267.302 227.597 263.569 224.946C259.716 222.295 255.864 215.908 260.198 212.534C260.198 212.534 261.402 211.69 265.616 211.449C269.83 211.329 269.348 204.701 269.348 204.701Z" fill="#023EA1"/>
<path d="M238.165 203.858C238.165 203.858 245.509 220.487 246.473 231.814" stroke="#023EA1" stroke-miterlimit="10"/>
<path d="M279.101 206.629C279.101 206.629 265.977 226.03 263.088 232.416" stroke="#649EEA" stroke-miterlimit="10"/>
<path d="M242.017 230.729H271.876C271.876 230.729 275.248 230.97 274.886 235.549C274.646 239.767 269.468 238.803 266.699 238.803C263.93 238.803 241.415 238.803 241.415 238.803C241.415 238.803 237.683 239.406 237.683 235.188C237.562 230.971 239.007 230.729 242.017 230.729Z" fill="#0054A5"/>
<path d="M241.295 238.562L245.87 265.072H265.977L269.348 245.189L241.415 238.562H241.295Z" fill="#0054A5"/>
<path d="M241.415 238.562L269.348 245.189L270.431 238.562H241.415Z" fill="#006AD5"/>
<path d="M254.299 231.573C254.299 231.573 255.864 202.171 264.533 183.855" stroke="#FCBE42" stroke-miterlimit="10"/>
<path d="M271.756 173.251C271.756 173.251 272.478 182.288 263.689 185.783C263.689 185.783 261.763 178.191 271.756 173.251Z" fill="#FCBE42"/>
<path d="M258.513 201.93C258.513 201.93 261.763 194.218 271.757 195.302C271.757 195.302 270.914 202.894 258.513 201.93Z" fill="#FCBE42"/>
<path d="M255.262 221.21C255.262 221.21 256.947 213.016 266.941 212.052C266.941 212.173 267.543 219.885 255.262 221.21Z" fill="#FCBE42"/>
<path d="M254.9 221.33C254.9 221.33 256.104 213.136 246.954 208.798C247.074 208.919 243.703 215.787 254.9 221.33Z" fill="#FCBE42"/>
<path d="M258.633 201.809C258.633 201.809 260.8 193.736 252.372 188.313C252.372 188.554 248.158 194.941 258.633 201.809Z" fill="#FCBE42"/>
<path d="M127.758 97.8179C127.036 101.553 127.638 106.253 124.267 108.06C124.267 108.06 124.748 111.555 132.454 113.001C140.882 114.447 136.909 111.193 136.909 111.193C132.454 109.627 133.417 105.891 134.741 103.481L127.758 97.8179Z" fill="#FFBE9B"/>
<path d="M130.045 91.7929C127.999 96.0104 126.674 98.5409 128.119 101.674C130.286 106.373 137.631 107.096 141.122 103.361C144.373 99.9869 146.901 93.6004 142.808 89.9854C138.955 86.3704 132.092 87.5754 130.045 91.7929Z" fill="#FFBE9B"/>
<path d="M138.835 83.9604C142.568 84.9244 145.457 86.4909 145.819 88.0574C149.19 89.5034 150.153 92.5159 147.745 93.4799C145.578 94.4439 142.327 93.1184 142.327 93.1184C142.327 93.1184 143.531 99.7459 138.715 96.9744C137.872 99.1434 135.825 103.12 131.611 103.24C129.324 103.361 125.351 102.638 124.989 101.071C124.749 99.5049 126.073 99.8664 125.832 98.6614C125.591 97.4564 123.906 92.9979 126.314 89.9854C126.314 90.1059 129.926 80.7069 138.835 83.9604Z" fill="#180857"/>
<path d="M136.548 96.6129C136.307 97.6974 136.788 98.7819 137.39 99.5049C138.354 100.71 138.715 100.71 139.076 99.5049C139.558 98.4204 140.641 96.1309 139.317 95.4079C137.992 94.8054 136.548 95.4079 136.548 96.6129Z" fill="#FFBE9B"/>
<path d="M160.025 118.664C160.025 118.664 163.276 115.17 163.397 115.17C163.397 115.17 166.407 111.675 167.249 111.675C168.092 111.796 167.731 112.519 166.647 113.844C165.684 115.049 165.564 115.772 165.564 115.772L167.37 116.977C167.37 116.977 168.815 116.616 168.694 117.821C168.694 118.182 168.453 118.664 168.213 119.387C168.092 119.749 167.851 120.231 167.37 120.11C167.249 119.99 167.009 119.869 167.009 119.628C167.129 118.905 167.249 118.664 167.129 118.664C167.009 118.664 165.203 122.159 165.203 122.159L160.025 118.664Z" fill="#FFBE9D"/>
<path d="M166.045 116.134C166.286 116.013 166.527 115.893 166.767 115.893C167.008 115.893 167.369 115.772 167.49 115.893C167.61 115.893 167.851 116.013 167.971 116.134C168.092 116.375 168.092 116.616 167.971 116.736C167.851 116.857 167.731 117.098 167.61 117.218" fill="#FFBE9D"/>
<path d="M165.202 115.411C165.443 115.29 165.684 115.17 165.925 115.17C166.165 115.17 166.406 115.049 166.647 115.17C166.767 115.17 166.888 115.29 167.008 115.411C167.129 115.531 167.129 115.772 167.008 116.013C166.888 116.134 166.406 116.495 166.286 116.736" fill="#FFBE9D"/>
<path d="M161.349 116.616L156.413 124.087L160.266 128.545L163.276 123.002C163.276 123.002 164.48 123.364 165.082 122.641C165.684 121.918 166.767 119.508 166.767 119.508L161.349 116.616Z" fill="#FFBE9D"/>
<path d="M164.239 116.736C164.239 116.736 164.36 116.134 164.841 115.772C165.082 115.531 165.323 115.29 165.684 115.29C165.925 115.17 166.045 115.17 166.045 115.29C166.045 115.411 165.564 115.531 165.082 116.013C164.48 116.254 164.239 116.736 164.239 116.736Z" fill="#EB996E"/>
<path d="M168.333 117.218C168.092 117.098 167.851 117.098 167.37 117.218C167.009 117.339 166.768 117.459 166.647 117.58C166.407 117.7 166.286 117.821 166.286 117.821C166.286 117.821 166.286 117.7 166.527 117.58C166.647 117.459 166.888 117.218 167.37 117.098C167.731 116.977 168.213 117.098 168.333 117.218Z" fill="#EB996E"/>
<path d="M167.37 115.893C167.37 116.013 166.768 116.013 166.286 116.254C165.804 116.495 165.443 116.977 165.443 116.977C165.323 116.977 165.564 116.495 166.166 116.134C166.406 116.013 166.768 115.893 166.888 115.893C167.129 115.772 167.37 115.772 167.37 115.893Z" fill="#EB996E"/>
<path d="M168.093 117.58C168.213 117.58 168.213 117.941 167.972 118.182C167.731 118.544 167.37 118.423 167.37 118.423C167.37 118.303 167.611 118.303 167.731 118.062C167.972 117.941 167.972 117.7 168.093 117.58Z" fill="#EB996E"/>
<path d="M160.146 118.544C160.146 118.544 160.266 116.134 160.988 115.772C161.711 115.29 163.396 116.013 163.396 116.013" fill="#FFBE9D"/>
<path d="M113.912 111.073L103.919 123.364C102.715 124.81 101.632 126.376 100.668 127.943C99.8255 129.509 99.9459 131.678 101.03 133.124L100.909 132.763C101.752 133.968 103.076 134.691 104.642 134.932H104.882C106.929 135.173 108.856 134.209 109.698 132.642L112.949 129.148L113.912 111.073Z" fill="#FCBE42"/>
<path d="M140.401 110.952C138.233 109.627 135.946 109.145 133.417 108.904C130.528 108.542 126.434 107.819 123.304 107.699C123.304 107.699 114.274 107.458 113.07 113.001L111.264 139.27L107.893 150.235L136.427 153.85L137.752 140.836C138.956 133.968 139.317 124.207 139.317 124.207C140.16 120.592 142.568 119.267 143.29 116.857C143.651 114.808 142.207 112.278 140.401 110.952Z" fill="#FCBE42"/>
<path d="M162.794 126.979L156.654 122.52L151.718 128.666C151.718 128.666 146.781 120.713 144.614 116.254C142.688 112.157 139.678 110.711 138.112 110.35C137.751 110.229 137.149 110.591 137.27 110.952L137.992 125.412C138.233 126.135 142.206 132.883 144.494 136.378C148.346 142.041 155.33 139.39 157.497 135.775C159.182 132.763 161.952 128.545 162.794 126.979Z" fill="#FCBE42"/>
<g opacity="0.3">
<path d="M134.621 116.977C134.621 116.977 134.019 122.279 135.223 124.448C136.307 126.738 138.835 131.437 138.835 131.076C138.835 130.835 139.076 127.34 139.076 127.34C139.076 127.34 134.38 119.869 134.621 116.977Z" fill="black"/>
</g>
<path d="M126.555 152.525C126.555 152.525 121.98 186.385 119.21 198.797C116.08 212.293 95.7323 255.914 95.7323 255.914L86.2207 253.865C91.1571 238.803 98.5015 210.726 102.956 199.881C106.328 183.493 103.077 163.008 108.013 150.235L126.555 152.525Z" fill="#EE384E"/>
<path opacity="0.2" d="M123.664 165.659C123.905 165.659 124.387 165.659 124.628 165.659C123.183 175.781 121.136 189.277 119.45 196.989C118.246 185.783 116.922 166.744 123.664 165.659Z" fill="black"/>
<path d="M136.548 153.73C136.548 153.73 138.715 190 138.956 203.135C139.196 216.751 134.982 257.48 134.982 257.48H125.712C125.712 257.48 122.34 219.764 124.267 201.327C122.1 187.229 117.524 151.44 117.524 151.44L136.548 153.73Z" fill="#EE384E"/>
<path d="M95.6116 255.552L86.8224 253.504C86.3408 253.383 86.2204 253.504 86.1 253.865L83.2104 259.408C82.9696 259.77 83.09 260.493 83.8124 260.734H83.9328C86.8224 261.457 88.9896 261.698 92.722 262.421C94.8892 262.782 101.752 264.59 104.642 265.192C107.652 265.915 108.856 263.264 107.531 262.662C102.234 260.252 98.2604 257.962 96.8156 256.034C96.4544 255.914 96.0932 255.673 95.6116 255.552Z" fill="#170856"/>
<path d="M134.983 257.601H125.832C125.351 257.601 125.23 257.721 125.23 258.083L123.785 263.987C123.665 264.469 123.906 265.072 124.628 265.192H124.749C127.759 265.192 129.926 265.072 133.658 265.072C135.825 265.072 143.049 265.192 146.059 265.192C149.069 265.192 149.671 262.421 148.227 262.18C142.447 260.975 137.993 259.529 136.066 257.962C135.825 257.721 135.464 257.601 134.983 257.601Z" fill="#170856"/>
</svg>
