<svg width="340" height="270" viewBox="0 0 340 270" fill="none" xmlns="http://www.w3.org/2000/svg">
<path d="M281.096 67.7206C276.912 70.1611 275.053 77.4826 278.539 83.6419C281.909 89.5689 275.982 93.7526 270.753 93.7526C265.523 93.7526 259.131 95.3796 256.923 99.9119C254.831 104.328 247.51 113.16 239.491 112.114C231.588 110.952 239.491 92.4742 242.629 88.8716C245.767 85.2689 242.513 80.5042 242.977 71.6719C243.326 62.7234 250.183 64.9314 253.785 64.5828C257.504 64.3504 260.991 63.8855 261.804 55.4019C262.618 46.9182 276.563 53.0776 276.563 53.0776C286.093 57.1451 285.396 65.1639 281.096 67.7206Z" fill="#EE384E"/>
<path d="M237.282 117.809L270.403 60.8639" stroke="white" stroke-width="0.867271" stroke-miterlimit="10" stroke-linecap="round" stroke-linejoin="round"/>
<path d="M271.914 83.5256L256.922 84.1067L250.53 69.9285" stroke="white" stroke-width="0.867271" stroke-miterlimit="10" stroke-linecap="round" stroke-linejoin="round"/>
<path d="M287.487 78.6449C275.401 96.4257 249.602 113.625 249.602 113.625" stroke="#FCBE42" stroke-width="0.867271" stroke-miterlimit="10"/>
<path d="M286.209 80.2717C284.699 70.5097 293.298 66.2098 293.298 66.2098C294.228 77.8312 286.209 80.3879 286.209 80.2717Z" stroke="#FCBE42" stroke-width="0.867271" stroke-miterlimit="10"/>
<path d="M273.077 77.9475C279.353 86.5474 274.239 93.6364 274.239 93.6364C266.685 82.9447 273.309 78.0637 273.077 77.9475Z" stroke="#FCBE42" stroke-width="0.867271" stroke-miterlimit="10"/>
<path d="M260.526 91.5446C264.942 101.074 258.55 107.117 258.55 107.117C253.088 95.031 260.526 91.6608 260.526 91.5446Z" stroke="#FCBE42" stroke-width="0.867271" stroke-miterlimit="10"/>
<path d="M274.24 107.931C265.407 102.004 258.551 107.466 258.551 107.466C269.707 114.555 274.24 107.931 274.24 107.931Z" stroke="#FCBE42" stroke-width="0.867271" stroke-miterlimit="10"/>
<path d="M289.812 92.0094C280.399 87.1284 274.239 93.5202 274.239 93.5202C286.209 99.3309 289.812 92.0094 289.812 92.0094Z" stroke="#FCBE42" stroke-width="0.867271" stroke-miterlimit="10"/>
<path d="M229.326 74.51L203.062 80.272L195.424 45.164L212.04 41.546L223.966 49.452L229.326 74.51Z" fill="#F2F2F2"/>
<path d="M224.099 49.452L214.183 51.596L212.039 41.546" fill="#DBDBDB"/>
<path d="M200.383 49.318L211.103 47.04" stroke="#DDE7F6" stroke-miterlimit="10"/>
<path d="M201.052 52.936L211.772 50.524" stroke="#DDE7F6" stroke-miterlimit="10"/>
<path d="M201.989 57.09L221.419 52.802" stroke="#DDE7F6" stroke-miterlimit="10"/>
<path d="M202.929 61.244L222.359 56.956" stroke="#DDE7F6" stroke-miterlimit="10"/>
<path d="M203.866 65.264L223.296 61.11" stroke="#DDE7F6" stroke-miterlimit="10"/>
<path d="M204.67 69.418L224.234 65.264" stroke="#DDE7F6" stroke-miterlimit="10"/>
<path d="M205.608 73.572L225.038 69.284" stroke="#DDE7F6" stroke-miterlimit="10"/>
<path d="M224.1 228.61C215.658 221.508 210.298 211.324 209.226 200.336L208.824 196.182L197.836 194.306L173.314 196.182L172.912 200.336C171.974 211.324 166.614 221.508 158.038 228.61L157.77 228.878H224.368L224.1 228.61Z" fill="#25409A"/>
<path d="M172.911 200.336C172.509 204.222 171.705 207.974 170.231 211.592H211.771C210.431 207.974 209.493 204.222 209.091 200.336L208.689 196.182L197.701 194.306L173.179 196.182L172.911 200.336Z" fill="#3864B0"/>
<path d="M267.516 203.954H114.756C110.736 203.954 107.52 200.738 107.52 196.718V97.022C107.52 93.002 110.736 89.786 114.756 89.786H267.516C271.536 89.786 274.752 93.002 274.752 97.022V196.584C274.752 200.604 271.536 203.954 267.516 203.954Z" fill="#3864B0"/>
<path d="M268.588 95.28H113.416V180.772H268.588V95.28Z" fill="white"/>
<path d="M107.386 186.802V196.182C107.386 200.47 110.87 203.954 115.158 203.954H266.98C271.268 203.954 274.752 200.47 274.752 196.182V186.802H107.386Z" fill="#25409A"/>
<path d="M191.136 198.728C193.356 198.728 195.156 196.928 195.156 194.708C195.156 192.488 193.356 190.688 191.136 190.688C188.916 190.688 187.116 192.488 187.116 194.708C187.116 196.928 188.916 198.728 191.136 198.728Z" fill="white"/>
<path d="M217.689 135.636V122.95C217.689 120.616 215.862 118.79 213.528 118.79H183.793L178.82 115.542H165.221C162.887 115.542 160.959 117.47 161.06 119.804L161.568 135.636H217.689Z" fill="#EAB842"/>
<path d="M166.946 122.138V148.017H215.354V122.24L166.946 122.138Z" fill="#F3D634"/>
<path d="M165.119 123.965V149.844H213.324V123.965H165.119Z" fill="white"/>
<path d="M159.537 131.678L163.394 161.717C163.597 163.138 164.814 164.153 166.235 164.153H213.019C214.44 164.153 215.658 163.138 215.861 161.717L220.022 131.678C220.225 130.054 218.905 128.532 217.18 128.532H162.379C160.654 128.633 159.334 130.054 159.537 131.678Z" fill="#FAED9B"/>
<path d="M159.436 132.591L163.292 162.63C163.495 164.051 164.713 165.066 166.134 165.066H212.918C214.339 165.066 215.556 164.051 215.759 162.63L219.92 132.591C220.123 130.967 218.804 129.445 217.079 129.445H162.277C160.552 129.445 159.233 130.866 159.436 132.591Z" fill="#FCBE42"/>
<path opacity="0.4" d="M216.978 153.903L219.921 132.591C220.124 130.967 218.805 129.445 217.079 129.445H176.892L216.978 153.903Z" fill="#F3D634"/>
<path opacity="0.4" d="M171.107 129.445L216.369 157.861L216.166 159.789L169.077 129.445H171.107Z" fill="#F3D634"/>
<path d="M272.742 176.758L255.322 164.698L271.402 141.516L282.39 149.154L284.132 160.276L272.742 176.758Z" fill="#F2F2F2"/>
<path d="M284.266 160.41L277.834 155.854L282.39 149.154" fill="#DBDBDB"/>
<path d="M271.67 145.664L278.772 150.622" stroke="#DDE7F6" stroke-miterlimit="10"/>
<path d="M269.929 148.076L277.031 153.034" stroke="#DDE7F6" stroke-miterlimit="10"/>
<path d="M268.052 151.7L280.916 160.678" stroke="#DDE7F6" stroke-miterlimit="10"/>
<path d="M266.175 153.57L279.039 162.414" stroke="#DDE7F6" stroke-miterlimit="10"/>
<path d="M264.301 156.25L277.165 165.228" stroke="#DDE7F6" stroke-miterlimit="10"/>
<path d="M262.424 158.93L275.288 167.908" stroke="#DDE7F6" stroke-miterlimit="10"/>
<path d="M260.548 161.744L273.412 170.588" stroke="#DDE7F6" stroke-miterlimit="10"/>
<path d="M72.2784 74.242L54.8584 62.182L70.9384 39L81.9264 46.638L83.6684 57.76L72.2784 74.242Z" fill="#D9E7F6"/>
<path d="M83.8023 57.7599L77.2363 53.2039L81.9263 46.6379" fill="#DBDBDB"/>
<path d="M71.2061 44.092L78.1741 48.916" stroke="white" stroke-miterlimit="10"/>
<path d="M69.4629 46.37L76.5649 51.328" stroke="white" stroke-miterlimit="10"/>
<path d="M67.5889 49.184L80.4529 58.028" stroke="white" stroke-miterlimit="10"/>
<path d="M65.7119 51.8641L78.5759 60.8421" stroke="white" stroke-miterlimit="10"/>
<path d="M63.835 54.678L76.699 63.522" stroke="white" stroke-miterlimit="10"/>
<path d="M61.9609 57.358L74.8249 66.336" stroke="white" stroke-miterlimit="10"/>
<path d="M60.084 60.038L72.814 69.016" stroke="white" stroke-miterlimit="10"/>
<path d="M152.41 101.042L129.094 112.834L113.416 81.88L128.022 74.51L141.154 78.932L152.41 101.042Z" fill="#F2F2F2"/>
<path d="M141.287 78.932L132.577 83.354L128.021 74.51" fill="#DBDBDB"/>
<path d="M119.044 84.694L128.424 79.87" stroke="#DDE7F6" stroke-miterlimit="10"/>
<path d="M120.652 87.776L130.032 82.952" stroke="#DDE7F6" stroke-miterlimit="10"/>
<path d="M122.527 91.394L139.679 82.684" stroke="#DDE7F6" stroke-miterlimit="10"/>
<path d="M124.404 95.146L141.556 86.302" stroke="#DDE7F6" stroke-miterlimit="10"/>
<path d="M126.146 98.764L143.432 90.054" stroke="#DDE7F6" stroke-miterlimit="10"/>
<path d="M128.021 102.382L145.173 93.6719" stroke="#DDE7F6" stroke-miterlimit="10"/>
<path d="M129.897 106L147.049 97.29" stroke="#DDE7F6" stroke-miterlimit="10"/>
<path d="M325.323 127.559L300.546 137.036L287.986 104.038L303.629 98.1007L316.303 104.038L325.323 127.559Z" fill="#F1F1F1"/>
<path d="M316.27 104.068L306.907 107.607L303.367 98.2445" fill="#DBDBDB"/>
<path d="M293.354 107.349L303.401 103.581" stroke="white" stroke-width="0.852091" stroke-miterlimit="10" stroke-linecap="round"/>
<path d="M294.592 110.476L304.64 106.594" stroke="white" stroke-width="0.852091" stroke-miterlimit="10" stroke-linecap="round"/>
<path d="M296.207 114.657L314.476 107.692" stroke="white" stroke-width="0.852091" stroke-miterlimit="10" stroke-linecap="round"/>
<path d="M297.691 118.539L315.96 111.574" stroke="white" stroke-width="0.852091" stroke-miterlimit="10" stroke-linecap="round"/>
<path d="M299.176 122.421L317.445 115.456" stroke="white" stroke-width="0.852091" stroke-miterlimit="10" stroke-linecap="round"/>
<path d="M300.659 126.303L318.928 119.338" stroke="white" stroke-width="0.852091" stroke-miterlimit="10" stroke-linecap="round"/>
<path d="M302.145 130.185L320.413 123.22" stroke="white" stroke-width="0.852091" stroke-miterlimit="10" stroke-linecap="round"/>
<path d="M102.161 215.21L91.3066 185.998L130.033 171.66L136.867 190.018L129.765 204.892L102.161 215.21Z" fill="#F2F2F2"/>
<path d="M129.898 205.026L125.744 194.172L136.866 190.018" fill="#DBDBDB"/>
<path d="M126.146 177.958L130.434 189.75" stroke="#DFF1FD" stroke-width="2.4051" stroke-miterlimit="10"/>
<path d="M122.127 179.432L126.549 191.224" stroke="#DFF1FD" stroke-width="2.4051" stroke-miterlimit="10"/>
<path d="M117.57 181.04L125.61 202.614" stroke="#DFF1FD" stroke-width="2.4051" stroke-miterlimit="10"/>
<path d="M113.014 182.782L120.92 204.356" stroke="#DFF1FD" stroke-width="2.4051" stroke-miterlimit="10"/>
<path d="M108.457 184.524L116.363 205.964" stroke="#DFF1FD" stroke-width="2.4051" stroke-miterlimit="10"/>
<path d="M103.769 186.132L111.809 207.706" stroke="#DFF1FD" stroke-width="2.4051" stroke-miterlimit="10"/>
<path d="M99.2119 187.874L107.252 209.448" stroke="#DFF1FD" stroke-width="2.4051" stroke-miterlimit="10"/>
<path d="M336.642 230.213H4.47451C3.67023 230.213 3 229.836 3 229.27C3 228.798 3.67023 228.326 4.47451 228.326H336.508C337.313 228.326 337.983 228.704 337.983 229.27C338.117 229.836 337.447 230.213 336.642 230.213Z" fill="#1A1A1A"/>
<path d="M279.308 185.334C279.308 185.334 282.256 184.128 281.988 180.778C281.72 177.428 279.978 175.016 283.596 175.954C287.214 176.892 288.42 177.428 290.966 176.758C293.512 176.222 295.79 175.15 294.584 178.5C293.378 181.85 292.172 184.664 294.852 185.2C297.532 185.736 300.346 183.726 300.748 188.952C301.15 194.178 296.862 200.208 289.894 200.342C283.06 200.61 279.978 197.662 279.978 197.662C279.978 197.662 278.102 195.116 281.05 194.446C283.998 193.776 286.812 192.57 285.338 191.23C283.864 189.89 279.04 189.756 279.04 189.756C279.04 189.756 273.278 188.818 279.308 185.334Z" fill="#649EEA"/>
<path d="M310.797 186.138C310.261 182.788 310.663 180.376 316.961 179.438C323.259 178.5 326.877 182.252 327.279 186.138C327.681 190.024 322.187 191.364 322.187 191.364C322.187 191.364 318.301 192.436 320.311 195.786C322.321 199.136 323.125 202.486 318.703 202.888C314.281 203.424 309.457 202.218 306.643 200.342C303.963 198.6 301.149 193.91 304.231 191.632C304.231 191.632 305.035 191.096 308.117 190.828C311.065 190.828 310.797 186.138 310.797 186.138Z" fill="#023EA1"/>
<path d="M288.821 185.602C288.821 185.602 294.047 197.394 294.717 205.3" stroke="#023EA1" stroke-width="0.5" stroke-miterlimit="10"/>
<path d="M317.632 187.478C317.632 187.478 308.386 201.146 306.242 205.702" stroke="#649EEA" stroke-width="0.5" stroke-miterlimit="10"/>
<path d="M291.502 204.362H312.54C312.54 204.362 314.818 204.496 314.684 207.712C314.55 210.66 310.798 209.99 308.922 209.99C307.046 209.99 290.966 209.99 290.966 209.99C290.966 209.99 288.42 210.392 288.42 207.444C288.42 204.63 289.358 204.362 291.502 204.362Z" fill="#0054A5"/>
<path d="M290.967 209.99L294.183 228.616H308.387L310.799 214.68L291.101 209.99H290.967Z" fill="#0054A5"/>
<path d="M291.101 209.99L310.799 214.68L311.603 209.99H291.101Z" fill="#006AD5"/>
<path d="M300.078 205.166C300.078 205.166 301.15 184.53 307.314 171.532" stroke="#FCBE42" stroke-width="0.5" stroke-miterlimit="10"/>
<path d="M312.407 164.028C312.407 164.028 312.943 170.326 306.779 172.872C306.779 172.872 305.439 167.378 312.407 164.028Z" fill="#FCBE42"/>
<path d="M303.16 184.262C303.16 184.262 305.438 178.902 312.406 179.572C312.406 179.572 311.87 184.932 303.16 184.262Z" fill="#FCBE42"/>
<path d="M300.748 197.796C300.748 197.796 301.954 192.034 308.922 191.364C309.056 191.364 309.592 196.858 300.748 197.796Z" fill="#FCBE42"/>
<path d="M300.614 197.93C300.614 197.93 301.418 192.168 294.986 189.086C294.986 189.086 292.708 194.044 300.614 197.93Z" fill="#FCBE42"/>
<path d="M303.161 184.128C303.161 184.128 304.769 178.5 298.739 174.748C298.739 174.748 295.925 179.304 303.161 184.128Z" fill="#FCBE42"/>
<path d="M34.2227 159.868L50.4367 166.032L36.2327 157.054L34.2227 159.868Z" fill="#FFBF99"/>
<path d="M40.3862 181.442C37.0362 181.71 27.5222 181.71 20.4202 180.906C13.3182 179.834 29.3982 178.896 29.3982 178.896C32.0782 179.298 43.7362 181.174 40.3862 181.442Z" fill="#90A7CB"/>
<path d="M37.4383 165.228L54.8583 174.072L61.5583 177.958L63.0323 189.75L66.7843 220.704H72.2783C72.2783 220.704 70.8043 182.112 70.6703 177.824C70.4023 173.268 66.6503 171.392 66.6503 171.392L37.1703 160.672L32.6143 162.146L37.4383 165.228Z" fill="#0054A3"/>
<path d="M22.5651 163.084L32.0791 161.61C32.4811 161.61 34.2231 162.548 34.4911 162.682C37.8411 164.424 55.3951 173.268 61.1571 176.216C66.9191 179.164 65.1771 184.792 64.7751 185.864C64.7751 185.998 64.6411 186.132 64.6411 186.132L46.9531 217.89C46.2831 218.962 44.1391 223.116 43.0671 222.178L40.3871 219.632C39.4491 219.096 40.9231 216.148 41.3251 215.076C43.7371 208.644 51.6431 186.802 52.3131 184.792C53.1171 182.916 51.5091 182.782 51.1071 182.782C50.9731 182.782 50.8391 182.782 50.8391 182.782L23.7711 178.494C23.5031 178.494 23.3691 178.36 23.1011 178.226C18.0091 175.948 19.6171 165.764 20.5551 162.414C20.8231 161.61 21.7611 163.352 22.5651 163.084Z" fill="#0064E1"/>
<path d="M82.5957 159.332C82.4617 159.6 82.3277 159.6 82.0597 159.6L65.3097 159.466C65.3097 159.466 65.3097 159.734 65.3097 158.528C65.3097 157.858 65.7117 157.59 65.9797 157.59C66.1137 157.59 66.1137 157.59 66.1137 157.59H72.4117C72.6797 157.59 72.8137 157.322 72.8137 157.188V152.766C72.8137 152.498 72.5457 152.364 72.4117 152.364C70.4017 152.364 63.1657 152.632 61.1557 152.632C59.6817 152.632 59.0117 151.158 59.0117 150.488C59.0117 150.22 59.0117 150.086 59.0117 149.818C59.2797 148.076 60.6197 138.16 61.1557 135.078C61.2897 133.872 61.5577 133.202 61.8257 132.666C62.2277 131.862 63.0317 131.46 63.9697 131.46C67.9897 131.46 86.3477 131.594 88.7597 131.594C90.3677 131.594 91.0377 132.398 91.3057 133.068C91.4397 133.336 91.4397 133.738 91.4397 134.006L89.2957 149.818C88.8937 151.962 87.6877 152.23 87.4197 152.23C87.2857 152.23 87.2857 152.23 87.2857 152.23H75.8957C75.6277 152.23 75.4937 152.498 75.4937 152.632V156.786C75.4937 157.054 75.7617 157.188 75.8957 157.188H81.7917C82.7297 157.322 82.5957 159.198 82.5957 159.332Z" fill="#023EA1"/>
<path d="M23.1008 123.018C23.1008 123.018 25.9148 123.554 25.9148 124.492C25.9148 125.43 22.6988 129.718 22.6988 129.718L21.2248 130.656L18.2768 132.666L16.2668 137.356C16.2668 137.356 17.2048 149.416 17.7408 151.962C18.2768 154.508 14.9268 153.436 12.5148 153.436C10.9068 153.436 10.3708 152.23 10.3708 151.56C10.3708 151.292 10.5048 151.158 10.6388 150.89C10.9068 150.354 11.4428 149.282 10.5048 147.674C9.29876 145.53 9.03076 142.448 8.89676 138.964C8.62876 135.48 11.0408 134.408 11.0408 134.408C11.0408 134.408 13.5868 133.47 14.3908 132.398C15.1948 131.192 16.5348 127.172 16.5348 127.172C18.5448 121.008 23.1008 123.018 23.1008 123.018Z" fill="#170856"/>
<path d="M22.832 129.718C23.636 131.728 26.048 132.934 26.048 132.934C30.336 134.81 31.408 132.8 31.408 132.8C31.408 132.8 31.676 129.986 31.676 127.44C31.676 124.894 33.15 126.368 33.15 126.368C34.49 127.44 38.242 126.636 38.242 126.636C41.458 123.286 41.726 114.576 41.726 114.576H38.51L34.49 114.71L31.408 113.772L29.934 115.782L29.8 121.142L26.182 123.018" fill="#FFBF99"/>
<path d="M41.9943 108.144C43.7363 109.216 45.8803 113.906 44.1383 116.452C42.5303 118.998 41.9943 116.184 41.9943 115.782C41.9943 115.38 41.5923 113.772 40.3863 115.246C39.1803 116.586 36.3663 116.586 33.1503 115.648C29.8003 114.71 31.1403 118.596 31.1403 118.596C31.5423 120.204 30.8723 121.142 30.8723 121.142C27.3883 126.368 22.8323 121.41 22.8323 121.41C21.3583 119.936 20.5543 114.844 25.6463 107.742C30.8723 100.64 39.1803 107.742 39.1803 107.742C40.5203 106.938 41.9943 107.742 41.9943 108.144Z" fill="#170856"/>
<path d="M26.3174 123.018C26.4514 123.42 25.7814 124.492 25.7814 124.492C25.2454 124.492 23.2354 123.018 23.2354 123.018C23.1014 122.884 23.5034 121.41 23.5034 121.41C23.6374 121.544 26.1834 123.018 26.3174 123.018Z" fill="#EA4E59"/>
<path d="M31.4092 130.656C34.2232 131.862 37.9752 138.294 37.9752 138.294C39.5832 141.108 37.8412 143.52 37.0372 144.458C36.7692 144.726 36.7692 144.994 36.7692 145.396C36.7692 147.54 37.7072 154.91 37.7072 154.91C37.7072 155.714 38.2432 159.466 38.6452 161.208L20.4212 164.022C19.3492 160.002 15.5972 142.85 16.1332 136.15C16.6692 129.048 21.8952 129.45 22.6992 129.584C22.8332 129.584 22.9672 129.584 22.9672 129.584C28.7292 135.48 31.5432 130.522 31.4092 130.656Z" fill="#FCBE42"/>
<path d="M25.7798 146.602L27.9238 151.426C28.4598 153.168 30.7378 152.632 31.1398 152.498L45.2098 149.684C50.4358 148.344 51.2398 150.622 51.2398 150.622C51.5078 151.694 50.1678 153.302 50.1678 152.766C50.1678 151.56 49.7658 151.426 49.2298 151.56L45.2098 153.034L27.1198 157.456C24.3058 158.26 23.5018 156.652 23.3678 155.982C23.3678 155.848 23.2338 155.714 23.0998 155.446L19.8838 149.014C19.7498 148.746 19.6158 148.478 19.7498 148.076L19.8838 147.54C20.1518 147.138 20.2858 146.87 20.8218 146.602L23.7698 145.128C24.5738 144.86 25.3778 145.128 25.6458 146.066C25.7798 146.2 25.7798 146.2 25.7798 146.602Z" fill="#FFBF99"/>
<path d="M22.6981 135.882C24.1721 139.902 25.6461 145.932 25.6461 145.932C22.9661 146.2 19.8841 148.344 19.8841 148.344C18.9461 146.468 17.0701 137.758 16.6681 136.15C16.5341 135.212 16.5341 134.006 16.8021 133.202C16.9361 132.8 17.0701 132.264 17.4721 132.13C20.5541 129.718 22.6981 135.882 22.6981 135.882Z" fill="#F79F03"/>
<path d="M66.6508 220.57L72.4128 220.436C74.9588 223.116 79.5148 224.456 79.5148 224.456C81.6588 224.992 79.7828 225.93 79.7828 225.93C79.7828 225.93 72.1448 225.93 69.1968 225.93C66.2488 225.93 66.3828 225.26 66.3828 225.26L66.6508 220.57Z" fill="#170856"/>
<path d="M46.1494 154.24C46.1494 152.9 47.0874 152.766 47.0874 152.766C47.0874 152.766 50.8394 152.498 52.3134 152.632C53.7874 152.766 53.3854 153.57 53.3854 153.57V156.786H46.2834C46.2834 156.92 46.1494 155.446 46.1494 154.24Z" fill="#EE384E"/>
<path d="M54.5903 156.652C56.0643 156.652 56.4663 157.054 56.4663 158.126C56.6003 159.332 54.9923 159.6 54.9923 159.6C54.9923 159.6 47.2203 159.734 45.7463 159.734C44.2723 159.734 43.6023 159.332 43.8703 157.724C44.1383 156.384 46.8183 156.652 46.8183 156.652C46.8183 156.652 53.1163 156.786 54.5903 156.652Z" fill="#000036"/>
<path d="M92.1119 159.466C92.5139 159.466 92.9159 159.466 93.1839 159.734C94.2559 160.404 93.7199 161.878 93.1839 162.414C92.9159 162.682 92.2459 162.95 91.7099 162.95H44.8099C43.2019 162.95 42.1299 162.548 42.1299 161.074C42.1299 160.002 43.6039 159.6 44.1399 159.6C44.2739 159.6 44.2739 159.6 44.4079 159.6L64.7759 159.466H92.1119Z" fill="#023EA1"/>
<path d="M74.5565 162.816L86.6165 174.072C92.1105 178.494 91.1725 182.246 91.1725 182.246L91.4405 226.332L62.0945 226.198C61.1565 226.198 59.9505 225.93 60.0845 227.404C60.2185 228.878 61.2905 228.878 61.2905 228.878H89.8325C94.2545 228.878 93.9865 226.734 93.9865 226.734C93.9865 226.734 93.1825 186.668 93.0485 181.71C92.9145 176.752 90.5025 174.608 90.5025 174.608L77.2365 162.816H74.5565Z" fill="#023EA1"/>
<path d="M32.9177 181.143L33.1853 225.047C33.1853 225.047 36.129 224.495 39.8754 226.566C43.6219 228.499 40.4107 228.913 40.4107 228.913C40.4107 228.913 36.3966 228.913 29.8403 229.189C23.4178 229.603 22.0798 228.361 23.1502 226.842C24.2206 225.323 30.7769 225.047 30.7769 225.047V181.281L32.9177 181.143Z" fill="#023EA1"/>
<path d="M45.7466 220.436L50.0346 228.744C50.3026 230.218 48.9626 229.95 48.9626 229.95L39.4486 222.312C37.3046 220.838 40.9226 217.22 40.9226 217.22L45.7466 220.436Z" fill="#180756"/>
</svg>
