<svg width="445" height="305" viewBox="0 0 445 305" fill="none" xmlns="http://www.w3.org/2000/svg">
<g clip-path="url(#clip0_3375_3645)">
<path fill-rule="evenodd" clip-rule="evenodd" d="M75.9769 108.846C75.9769 108.54 76.2832 108.235 76.5896 108.235C76.896 108.235 77.2023 108.54 77.2023 108.846V111.291C77.2023 111.596 76.896 111.902 76.5896 111.902C76.2832 111.902 75.9769 111.596 75.9769 111.291V108.846ZM72.3006 110.832C72.1474 110.679 72.1474 110.221 72.3006 110.069C72.4537 109.915 72.9133 109.915 73.0665 110.069L74.9047 111.902C75.0578 112.055 75.0578 112.513 74.9047 112.666C74.7514 112.819 74.2919 112.819 74.1387 112.666L72.3006 110.832ZM71.0752 114.958C70.7688 114.958 70.4624 114.653 70.4624 114.347C70.4624 114.042 70.7688 113.736 71.0752 113.736H73.526C73.8324 113.736 74.1387 114.042 74.1387 114.347C74.1387 114.653 73.8324 114.958 73.526 114.958H71.0752ZM73.0665 118.779C72.9133 118.931 72.4537 118.931 72.3006 118.779C72.1474 118.626 72.1474 118.168 72.3006 118.015L74.1387 116.181C74.2919 116.029 74.7514 116.029 74.9047 116.181C75.0578 116.334 75.0578 116.792 74.9047 116.945L73.0665 118.779ZM77.2023 120.002C77.2023 120.307 76.896 120.613 76.5896 120.613C76.2832 120.613 75.9769 120.307 75.9769 120.002V117.556C75.9769 117.251 76.2832 116.945 76.5896 116.945C76.896 116.945 77.2023 117.251 77.2023 117.556V120.002ZM80.8785 117.862C81.0316 118.015 81.0316 118.473 80.8785 118.626C80.7255 118.779 80.2663 118.779 80.1124 118.626L78.2749 116.792C78.1211 116.639 78.1211 116.181 78.2749 116.029C78.428 115.875 78.8872 115.875 79.0402 116.029L80.8785 117.862ZM82.1038 113.888C82.4107 113.888 82.7168 114.195 82.7168 114.5C82.7168 114.805 82.4107 115.112 82.1038 115.112H79.6533C79.3471 115.112 79.0402 114.805 79.0402 114.5C79.0402 114.195 79.3471 113.888 79.6533 113.888H82.1038ZM80.1124 110.069C80.2663 109.915 80.7255 109.915 80.8785 110.069C81.0316 110.221 81.0316 110.679 80.8785 110.832L79.0402 112.666C78.8872 112.819 78.428 112.819 78.2749 112.666C78.1211 112.513 78.1211 112.055 78.2749 111.902L80.1124 110.069Z" fill="#EE384E"/>
<path fill-rule="evenodd" clip-rule="evenodd" d="M212.306 0.345639C212.306 0.040008 212.613 -0.265625 212.919 -0.265625C213.225 -0.265625 213.531 0.040008 213.531 0.345639V2.79068C213.531 3.09632 213.225 3.40195 212.919 3.40195C212.613 3.40195 212.306 3.09632 212.306 2.79068V0.345639ZM208.63 2.33228C208.476 2.17942 208.476 1.72102 208.63 1.56816C208.783 1.4153 209.242 1.4153 209.396 1.56816L211.234 3.40195C211.387 3.5548 211.387 4.01329 211.234 4.16606C211.081 4.31892 210.622 4.31892 210.468 4.16606L208.63 2.33228ZM207.404 6.45833C207.098 6.45833 206.792 6.1527 206.792 5.84707C206.792 5.54144 207.098 5.23581 207.404 5.23581H209.856C210.162 5.23581 210.468 5.54144 210.468 5.84707C210.468 6.1527 210.162 6.45833 209.856 6.45833H207.404ZM209.396 10.2788C209.242 10.4316 208.783 10.4316 208.63 10.2788C208.476 10.126 208.476 9.6675 208.63 9.51464L210.468 7.68086C210.622 7.52808 211.081 7.52808 211.234 7.68086C211.387 7.83371 211.387 8.29212 211.234 8.44498L209.396 10.2788ZM213.531 11.5013C213.531 11.8069 213.225 12.1125 212.919 12.1125C212.613 12.1125 212.306 11.8069 212.306 11.5013V9.05624C212.306 8.75061 212.613 8.44498 212.919 8.44498C213.225 8.44498 213.531 8.75061 213.531 9.05624V11.5013ZM217.208 9.36187C217.361 9.51472 217.361 9.97313 217.208 10.126C217.055 10.2788 216.595 10.2788 216.442 10.126L214.604 8.29212C214.45 8.13934 214.45 7.68086 214.604 7.52808C214.757 7.37523 215.217 7.37523 215.37 7.52808L217.208 9.36187ZM218.433 5.38859C218.74 5.38859 219.046 5.69422 219.046 5.99985C219.046 6.30548 218.74 6.61111 218.433 6.61111H215.983C215.676 6.61111 215.37 6.30548 215.37 5.99985C215.37 5.69422 215.676 5.38859 215.983 5.38859H218.433ZM216.442 1.56816C216.595 1.4153 217.055 1.4153 217.208 1.56816C217.361 1.72102 217.361 2.17942 217.208 2.33228L215.37 4.16606C215.217 4.31892 214.757 4.31892 214.604 4.16606C214.45 4.01329 214.45 3.5548 214.604 3.40195L216.442 1.56816Z" fill="#395196"/>
<path d="M148.583 280.92C217.108 280.92 272.659 225.5 272.659 157.137C272.659 88.7743 217.108 33.355 148.583 33.355C80.0587 33.355 24.5083 88.7743 24.5083 157.137C24.5083 225.5 80.0587 280.92 148.583 280.92Z" stroke="#023EA1" stroke-width="1.91153" stroke-miterlimit="10" stroke-dasharray="11.47 11.47"/>
<path d="M312.486 280.92C381.011 280.92 436.561 225.5 436.561 157.137C436.561 88.7743 381.011 33.355 312.486 33.355C243.961 33.355 188.411 88.7743 188.411 157.137C188.411 225.5 243.961 280.92 312.486 280.92Z" stroke="#023EA1" stroke-width="1.91153" stroke-miterlimit="10" stroke-dasharray="11.47 11.47"/>
<path d="M151.277 117.685C151.036 117.445 150.916 117.445 150.676 117.445L146.707 117.805C146.346 117.805 145.745 117.565 145.745 116.965C145.384 115.165 144.542 113.486 143.7 111.926C143.459 111.566 143.459 110.966 143.941 110.606L146.828 108.326C147.068 108.086 147.068 107.966 147.068 107.726C147.068 107.487 147.068 107.367 146.828 107.127L142.498 102.807C142.257 102.567 142.136 102.567 141.896 102.567C141.656 102.567 141.535 102.567 141.295 102.807L139.01 105.687C138.769 106.047 138.168 106.047 137.687 105.927C136.003 104.967 134.44 104.247 132.636 103.887C132.275 103.887 131.794 103.287 131.794 102.927L132.155 98.9677C132.155 98.7278 132.155 98.6079 131.914 98.3681C131.673 98.1274 131.553 98.1274 131.313 98.1274H125.179C124.939 98.1274 124.819 98.1274 124.577 98.3681C124.337 98.6079 124.337 98.7278 124.337 98.9677L124.698 102.927C124.698 103.287 124.457 103.887 123.856 103.887C122.052 104.247 120.369 105.207 118.805 105.927C118.444 106.167 117.843 106.167 117.482 105.687L115.197 102.807C114.956 102.567 114.836 102.567 114.596 102.567C114.355 102.567 114.234 102.567 113.994 102.807L109.664 107.127C109.424 107.367 109.424 107.487 109.424 107.726C109.424 107.966 109.424 108.086 109.664 108.326L112.551 110.606C112.911 110.846 112.911 111.446 112.791 111.926C111.83 113.606 111.108 115.165 110.747 116.965C110.747 117.325 110.146 117.805 109.785 117.805L105.816 117.445C105.576 117.445 105.455 117.445 105.215 117.685C104.974 117.925 104.974 118.045 104.974 118.285V124.404C104.974 124.644 104.974 124.764 105.215 125.004C105.455 125.244 105.576 125.244 105.816 125.244L109.785 124.884C110.146 124.884 110.747 125.124 110.747 125.724C111.108 127.523 112.07 129.204 112.791 130.764C113.032 131.123 113.032 131.723 112.551 132.083L109.664 134.363C109.424 134.602 109.424 134.722 109.424 134.962C109.424 135.203 109.424 135.323 109.664 135.563L113.994 139.882C114.234 140.122 114.355 140.122 114.596 140.122C114.836 140.122 114.956 140.122 115.197 139.882L117.482 137.002C117.723 136.643 118.324 136.643 118.805 136.763C120.489 137.722 122.052 138.442 123.856 138.802C124.217 138.802 124.698 139.402 124.698 139.762L124.337 143.721C124.337 143.962 124.337 144.082 124.577 144.321C124.819 144.561 124.939 144.561 125.179 144.561H131.313C131.553 144.561 131.673 144.561 131.914 144.321C132.155 144.082 132.155 143.962 132.155 143.721L131.794 139.762C131.794 139.402 132.034 138.802 132.636 138.802C134.44 138.442 136.123 137.482 137.687 136.763C138.048 136.523 138.649 136.523 139.01 137.002L141.295 139.882C141.535 140.122 141.656 140.122 141.896 140.122C142.136 140.122 142.257 140.122 142.498 139.882L146.828 135.563C147.068 135.323 147.068 135.203 147.068 134.962C147.068 134.722 147.068 134.602 146.828 134.363L143.941 132.083C143.58 131.843 143.58 131.243 143.7 130.764C144.662 129.083 145.384 127.523 145.745 125.724C145.745 125.364 146.346 124.884 146.707 124.884L150.676 125.244C150.916 125.244 151.036 125.244 151.277 125.004C151.518 124.764 151.518 124.644 151.518 124.404V118.285C151.518 117.805 151.518 117.685 151.277 117.685ZM149.954 123.325L146.948 122.964C145.625 122.724 144.542 123.564 144.061 125.004C143.7 126.684 143.099 128.244 142.257 129.683C141.656 131.003 141.896 132.083 142.858 132.923L145.143 134.602L142.136 137.602L140.453 135.323C139.611 134.363 138.168 134.003 137.206 134.722C135.763 135.563 134.199 136.162 132.516 136.523C131.193 136.763 130.47 137.963 130.47 139.402L130.832 142.402H126.262L126.622 139.402C126.863 138.082 126.021 137.002 124.577 136.523C122.894 136.162 121.33 135.563 119.887 134.722C118.564 134.123 117.482 134.363 116.64 135.323L114.956 137.602L111.95 134.602L114.234 132.923C115.197 132.083 115.557 130.644 114.836 129.683C113.994 128.244 113.393 126.684 113.032 125.004C112.791 123.684 111.589 122.964 110.146 122.964L107.018 123.325V118.885L110.026 119.245C111.348 119.485 112.431 118.645 112.912 117.205C113.273 115.525 113.874 113.965 114.716 112.526C115.317 111.206 115.077 110.126 114.114 109.286L111.83 107.607L114.836 104.607L116.52 106.886C117.362 107.846 118.805 108.206 119.767 107.487C121.21 106.646 122.774 106.047 124.457 105.687C125.78 105.446 126.502 104.247 126.502 102.807L126.262 99.6872H130.712L130.35 102.688C130.11 104.007 130.952 105.087 132.395 105.566C134.079 105.927 135.642 106.526 137.086 107.367C138.409 107.966 139.491 107.726 140.333 106.766L142.016 104.487L145.023 107.487L142.738 109.166C141.776 110.006 141.535 111.446 142.136 112.406C142.979 113.845 143.58 115.405 143.941 117.085C144.181 118.405 145.384 119.125 146.828 119.125L149.834 118.765V123.325H149.954Z" fill="#EC384E"/>
<path d="M128.426 110.486C122.533 110.486 117.602 115.405 117.602 121.284C117.602 127.163 122.533 132.082 128.426 132.082C134.319 132.082 139.25 127.163 139.25 121.284C139.25 115.165 134.319 110.486 128.426 110.486ZM128.426 130.403C123.374 130.403 119.165 126.323 119.165 121.164C119.165 116.005 123.254 111.926 128.426 111.926C133.597 111.926 137.686 116.005 137.686 121.164C137.686 126.323 133.597 130.403 128.426 130.403Z" fill="#EC384E"/>
<path d="M121.453 157.88C121.213 157.64 120.972 157.64 120.731 157.64L114.959 158.359C114.237 158.359 113.395 157.88 113.395 157.159C112.914 154.64 111.832 152.12 110.388 149.96C110.148 149.241 110.148 148.4 110.629 147.921L114.598 144.681C114.838 144.442 115.079 144.202 115.079 143.961C115.079 143.721 115.079 143.481 114.838 143.242L108.705 136.883C108.464 136.642 108.224 136.642 107.984 136.642C107.742 136.642 107.502 136.883 107.262 137.123L104.015 141.081C103.534 141.562 102.812 141.802 101.97 141.322C99.6849 139.762 97.1591 138.802 94.7543 138.323C94.0323 138.082 93.5514 137.602 93.5514 136.762L94.2726 131.004C94.2726 130.763 94.2727 130.283 94.0323 130.283C93.7918 130.043 93.5514 130.043 93.311 130.043H84.1701C83.9297 130.043 83.6893 130.043 83.4489 130.283C83.2085 130.523 83.2085 130.763 83.2085 131.004L83.9297 136.762C83.9297 137.482 83.4489 138.323 82.7269 138.323C80.2018 138.802 77.676 139.882 75.5113 141.322C74.5491 141.682 73.8275 141.682 73.3464 141.202L70.0992 137.243C69.8586 137.003 69.6182 136.762 69.3776 136.762C69.137 136.762 68.8966 136.762 68.656 137.003L62.4021 143.242C62.1616 143.481 62.1616 143.721 62.1616 143.961C62.1616 144.202 62.4021 144.442 62.6426 144.681L66.6114 147.921C67.0925 148.4 67.333 149.121 66.852 149.96C65.2885 152.24 64.3264 154.76 63.8453 157.159C63.6048 157.88 63.1237 158.359 62.2819 158.359L56.509 157.64C56.2685 157.64 55.7874 157.64 55.7874 157.88C55.5469 158.119 55.5469 158.359 55.5469 158.599V167.358C55.5469 167.598 55.5469 167.838 55.7874 168.078C56.0279 168.318 56.2685 168.318 56.509 168.318L62.2819 167.598C63.0035 167.598 63.8453 168.078 63.8453 168.798C64.3264 171.318 65.4088 173.837 66.852 175.997C67.0925 176.717 67.0925 177.557 66.6114 178.037L62.6426 181.276C62.4021 181.516 62.1616 181.756 62.1616 181.996C62.1616 182.236 62.1616 182.476 62.4021 182.716L68.656 188.955C68.8966 189.195 69.137 189.195 69.3776 189.195C69.6182 189.195 69.8586 188.955 70.0992 188.715L73.3464 184.876C73.8275 184.396 74.5491 184.156 75.391 184.636C77.676 186.195 80.2018 187.156 82.6067 187.635C83.3287 187.875 83.8095 188.356 83.8095 189.195L83.0883 194.954C83.0883 195.194 83.0883 195.434 83.3287 195.675C83.5691 195.914 83.8095 195.914 84.0499 195.914H92.8294C93.0698 195.914 93.311 195.914 93.5514 195.675C93.7918 195.434 93.7918 195.194 93.7918 194.954L93.0698 189.195C93.0698 188.475 93.5514 187.635 94.2726 187.635C96.7985 187.156 99.3243 186.076 101.489 184.636C102.211 184.396 103.052 184.396 103.534 184.876L106.781 188.835C107.021 189.075 107.262 189.315 107.502 189.315C107.742 189.315 107.984 189.315 108.224 189.075L114.478 182.836C114.718 182.596 114.718 182.356 114.718 182.116C114.718 181.876 114.478 181.636 114.237 181.396L110.268 178.157C109.787 177.676 109.547 176.957 110.028 176.117C111.591 173.837 112.554 171.318 113.035 168.918C113.275 168.198 113.757 167.718 114.598 167.718L120.371 168.438C120.611 168.438 121.093 168.438 121.093 168.198C121.333 167.958 121.333 167.718 121.333 167.478V158.719C121.694 158.599 121.694 158.119 121.453 157.88ZM119.65 166.399L115.079 165.918C113.275 165.678 111.591 166.878 111.111 168.678C110.629 170.958 109.547 173.237 108.344 175.157C107.382 176.717 107.863 178.876 109.065 179.956L112.072 182.476L107.502 187.036L104.977 184.036C103.774 182.476 101.729 182.236 100.166 183.316C98.1215 184.516 95.9563 185.596 93.6716 186.075C91.8678 186.555 90.665 188.356 90.9054 190.035L91.3862 194.475H85.3729L85.8545 189.915C86.0949 188.115 84.8921 186.435 83.0883 185.956C80.8029 185.476 78.5182 184.396 76.5936 183.196C75.0301 182.236 72.8654 182.716 71.7829 183.916L69.2573 186.916L64.6872 182.356L67.6939 179.837C69.2573 178.637 69.4979 176.597 68.4154 175.037C67.2128 172.997 66.1304 170.838 65.6493 168.558C65.1682 166.758 63.3642 165.558 61.6805 165.798L57.1104 166.279V160.039L61.6805 160.519C63.4845 160.759 65.1682 159.559 65.6493 157.76C66.1304 155.48 67.2128 153.2 68.4154 151.28C69.3776 149.72 68.8966 147.561 67.6939 146.481L64.6872 143.961L69.2573 139.402L71.7829 142.401C72.9856 143.961 75.0301 144.202 76.5936 143.122C78.6384 141.922 80.8029 140.842 83.0883 140.362C84.8921 139.882 86.0949 138.082 85.8545 136.402L85.3729 132.203H91.6274L91.1458 136.762C90.9054 138.562 92.1082 140.242 93.912 140.722C96.1975 141.202 98.4821 142.281 100.406 143.481C101.97 144.442 104.135 143.961 105.217 142.762L107.742 139.762L112.313 144.322L109.307 146.841C107.742 148.041 107.502 150.081 108.585 151.641C109.787 153.68 110.87 155.839 111.351 158.119C111.832 159.919 113.636 161.119 115.32 160.879L119.89 160.399V166.399H119.65Z" fill="#0064B7"/>
<path d="M88.6184 147.921C80.0792 147.921 73.104 154.88 73.104 163.399C73.104 171.918 80.0792 178.876 88.6184 178.876C97.1575 178.876 104.133 171.918 104.133 163.399C104.133 154.64 97.1575 147.921 88.6184 147.921ZM88.6184 176.357C81.4022 176.357 75.3891 170.358 75.3891 163.159C75.3891 155.96 81.4022 149.961 88.6184 149.961C95.8345 149.961 101.848 155.96 101.848 163.159C101.848 170.358 95.9547 176.357 88.6184 176.357Z" fill="#0064B7"/>
<path d="M355.989 280.154C355.989 282.752 353.691 284.892 351.24 284.892H105.541C102.937 284.892 100.792 282.6 100.792 280.154V133.143C100.792 130.546 103.09 128.407 105.541 128.407H351.24C353.844 128.407 355.989 130.699 355.989 133.143V280.154Z" fill="#0064B5"/>
<path d="M340.979 144.3H115.04V270.374H340.979V144.3Z" fill="white"/>
<path d="M87.925 292.227H373.604C376.515 292.227 378.659 289.935 378.659 287.184V278.015H82.564V287.184C82.8701 289.782 85.3214 292.227 87.925 292.227Z" fill="#033E9F"/>
<path d="M327.037 156.678H128.518V270.68H327.037V156.678Z" fill="#DCE8F4"/>
<path d="M318.614 159.887H133.267V169.82H318.614V159.887Z" fill="white"/>
<path d="M206.331 174.863H135.868V265.332H206.331V174.863Z" fill="white"/>
<path d="M188.412 201.454C188.412 211.572 180.172 219.792 170.03 219.792C159.889 219.792 151.648 211.572 151.648 201.454C151.648 191.336 159.889 183.116 170.03 183.116C180.172 183.116 188.412 191.336 188.412 201.454Z" fill="#DAE2F2"/>
<path d="M183.815 213.204C181.365 218.032 176.258 221.32 170.437 221.32C164.616 221.32 158.898 218.135 156.243 213.204C159.919 210.635 165.127 209.095 170.029 209.095C175.135 209.095 179.832 210.635 183.815 213.204Z" fill="#0064B5"/>
<path d="M174.766 204.955C177.436 202.245 177.299 197.789 174.459 195.004C171.619 192.218 167.151 192.157 164.48 194.867C161.809 197.577 161.946 202.032 164.786 204.819C167.627 207.605 172.095 207.665 174.766 204.955Z" fill="#0064B5"/>
<path d="M196.988 233.698H141.844V260.136H196.988V233.698Z" fill="#DCE8F4"/>
<path d="M318.307 174.863H226.093V179.296H318.307V174.863Z" fill="white"/>
<path d="M318.307 183.421H226.093V187.852H318.307V183.421Z" fill="white"/>
<path d="M318.307 193.354H226.093V197.786H318.307V193.354Z" fill="white"/>
<path d="M318.307 203.746H226.093V262.58H318.307V203.746Z" fill="white"/>
<path d="M312.637 210.47H234.057V236.907H312.637V210.47Z" fill="#DCE8F4"/>
<path d="M236.354 162.332H135.868V167.069H236.354V162.332Z" fill="#DCE8F4"/>
<path d="M314.782 162.332H274.955V167.069H314.782V162.332Z" fill="#DCE8F4"/>
<path d="M51.9359 248.598C51.9359 248.598 55.6939 247.019 55.4962 242.875C55.2984 238.534 52.9248 235.574 57.8697 236.758C62.419 238.139 64.0013 238.337 67.3638 237.744C70.9241 237.153 73.0999 235.376 71.9131 240.112C70.5285 244.651 68.9462 247.808 72.5065 248.795C76.0668 249.387 79.6268 247.216 80.0227 253.334C80.6157 260.043 75.4734 267.541 66.3748 267.936C57.6719 268.133 53.716 264.779 53.716 264.779C53.716 264.779 51.1447 261.621 55.1006 260.832C59.0565 260.043 62.6168 258.266 60.441 256.886C58.8587 255.307 52.3314 255.307 52.3314 255.307C52.3314 255.307 44.6174 252.939 51.9359 248.598Z" fill="#6B9CD3"/>
<path d="M91.8904 249.979C91.2974 245.637 91.8904 242.678 99.6041 241.296C107.714 240.31 112.263 245.046 112.659 249.979C113.253 254.518 105.934 256.688 105.934 256.688C105.934 256.688 101.385 258.07 103.362 262.213C105.934 266.554 107.121 270.501 100.989 271.093C94.8578 271.685 89.3189 270.304 85.5614 267.936C82.001 265.568 78.4406 259.845 82.594 256.688C82.594 256.688 83.5828 255.898 87.1432 255.702C92.4842 255.702 91.8904 249.979 91.8904 249.979Z" fill="#1C4599"/>
<path d="M64.0024 248.795C64.0024 248.795 70.7274 263.792 71.5186 273.856" stroke="#88D6F8" stroke-width="1.23414" stroke-miterlimit="10" stroke-linecap="round" stroke-linejoin="round"/>
<path d="M100.791 251.558C100.791 251.558 89.1209 268.528 86.1543 274.448" stroke="#599FD2" stroke-width="1.23414" stroke-miterlimit="10" stroke-linecap="round" stroke-linejoin="round"/>
<path d="M67.5609 272.869H94.2631C94.2631 272.869 97.2297 273.066 97.0326 277.21C96.8347 280.96 92.4834 280.17 89.7139 280.17C87.1424 280.17 66.7697 280.17 66.7697 280.17C66.7697 280.17 63.605 280.762 63.605 277.013C63.605 273.066 64.7918 272.869 67.5609 272.869Z" fill="#0256A4"/>
<path d="M66.9688 279.973L71.1224 303.455H88.9237L91.891 285.893L66.9688 279.973Z" fill="#0256A4"/>
<path d="M66.9688 279.973L91.891 285.893L93.0778 279.973H66.9688Z" fill="#346BB4"/>
<path d="M78.4404 274.053C78.4404 274.053 79.8252 248.006 87.341 231.43" stroke="#FABD41" stroke-width="2.46828" stroke-miterlimit="10"/>
<path d="M93.8676 222.156C93.8676 222.156 94.4606 230.247 86.5489 233.404C86.5489 233.009 85.1642 226.103 93.8676 222.156Z" fill="#FABD41"/>
<path d="M82.1973 247.216C82.1973 247.216 85.1646 240.112 93.8672 241.494C93.8672 241.099 93.2742 248.005 82.1973 247.216Z" fill="#FABD41"/>
<path d="M79.4292 264.384C79.4292 264.384 81.0119 257.083 89.9124 256.294C89.7145 256.294 90.3083 263.2 79.4292 264.384Z" fill="#FABD41"/>
<path d="M79.2309 264.384C79.2309 264.384 80.2197 256.885 72.1104 253.136C71.9126 253.728 69.1435 259.846 79.2309 264.384Z" fill="#FABD41"/>
<path d="M82.1977 247.217C82.1977 247.217 83.7795 239.915 76.6591 235.377C76.4613 235.377 72.901 241.099 82.1977 247.217Z" fill="#FABD41"/>
<path d="M21.8382 164.739C33.8986 164.739 43.6755 154.984 43.6755 142.953C43.6755 130.921 33.8986 121.167 21.8382 121.167C9.77782 121.167 0.000976562 130.921 0.000976562 142.953C0.000976562 154.984 9.77782 164.739 21.8382 164.739Z" fill="#0064B7"/>
<mask id="mask0_3375_3645" style="mask-type:alpha" maskUnits="userSpaceOnUse" x="0" y="121" width="44" height="44">
<path d="M21.8372 164.739C33.8976 164.739 43.6745 154.985 43.6745 142.953C43.6745 130.921 33.8976 121.167 21.8372 121.167C9.77684 121.167 0 130.921 0 142.953C0 154.985 9.77684 164.739 21.8372 164.739Z" fill="#0064B7"/>
</mask>
<g mask="url(#mask0_3375_3645)">
<path d="M19.7336 147.677C19.7336 147.677 19.7336 150.564 18.4181 151.615C17.1026 152.664 15.7871 155.027 15.7871 155.027C15.7871 155.027 18.6812 159.489 24.2063 158.964C29.7314 158.439 30.7837 154.502 30.7837 154.502C30.7837 154.502 25.5218 153.714 24.9955 148.727C24.4694 143.74 23.68 143.74 23.68 143.74L19.7336 147.677Z" fill="#FFB07E"/>
<path d="M16.3116 152.926C16.3116 152.926 12.3651 152.401 10.5234 152.926C8.6817 153.452 7.89245 153.189 8.41862 154.764C8.94478 156.339 11.8389 163.688 10.5234 168.15C9.20794 172.612 7.36621 196.235 7.36621 196.235C7.36621 196.235 21.5736 196.76 27.0987 197.023C32.6238 197.286 36.8333 196.235 36.8333 196.235C36.8333 196.235 38.1488 185.999 36.8333 181.799C35.5178 177.337 33.9393 169.988 33.9393 169.988C33.9393 169.988 32.8869 159.751 34.4654 157.126C35.7809 154.501 36.8333 154.501 34.9917 153.976C33.1499 153.452 31.3083 152.664 29.7297 152.664C28.4142 152.664 27.6248 152.664 26.8356 153.452C26.0463 154.239 24.2045 156.076 21.8366 155.551C19.4688 155.027 17.6271 153.714 17.6271 153.714C17.6271 153.714 17.1009 153.189 16.3116 152.926Z" fill="#F7A600"/>
<path d="M9.73594 153.714C9.73594 153.714 8.42038 153.19 6.57873 154.765C4.47392 156.602 2.89532 160.539 2.10602 162.902C1.31672 165.263 0.790527 167.889 0.790527 167.889C0.790527 167.889 3.42153 169.2 6.31565 169.463C9.2097 169.463 11.0514 169.726 11.0514 169.726C11.0514 169.726 12.3669 162.376 11.8407 159.226C11.5776 155.551 11.0514 154.502 9.73594 153.714Z" fill="#070707"/>
<path d="M33.15 156.602C33.15 156.602 34.2024 153.452 36.8334 154.765C39.4644 156.077 41.3061 161.327 41.8323 163.164C42.3585 165.001 43.1477 168.151 43.1477 168.151C43.1477 168.151 40.2537 169.463 37.6227 169.726C34.9917 169.989 33.4131 170.251 33.4131 170.251C33.4131 170.251 32.3607 163.689 32.6238 161.064C32.6238 158.177 33.15 156.602 33.15 156.602Z" fill="#070707"/>
<path d="M30.5196 142.427C30.7828 142.952 29.7303 144.79 29.2041 145.315C29.4672 144.527 29.4672 143.215 29.7303 141.64C29.7303 141.64 30.5196 141.903 30.5196 142.427Z" fill="#FFBF99"/>
<path d="M29.9948 135.079C29.7317 129.829 22.628 129.566 22.628 129.566C22.628 129.566 15.5243 129.566 15.2612 135.079C15.2612 137.441 15.2612 139.803 15.5243 141.641C15.7875 143.215 15.7874 144.527 16.0506 145.315C16.0506 145.84 16.3136 146.365 16.3136 146.628C16.5767 147.152 16.8398 147.415 17.103 148.202C17.8922 149.252 18.9446 150.302 19.7339 150.827C20.2601 151.352 21.8387 151.352 22.628 151.352C23.4173 151.352 24.7328 151.089 25.5221 150.827C26.3114 150.302 27.3638 149.252 28.1531 148.202C28.6793 147.677 28.6793 147.152 28.9424 146.628C28.9424 146.365 29.2055 146.102 29.2055 145.315C29.4686 144.527 29.4686 143.215 29.7317 141.641C29.9948 139.54 30.2579 137.441 29.9948 135.079Z" fill="#FFBF99"/>
<path d="M15.5237 141.64C15.7868 143.215 15.7868 144.527 16.0499 145.315C15.5236 144.79 14.7344 143.215 14.7344 142.427C14.9975 141.903 15.5237 141.64 15.5237 141.64Z" fill="#FFBF99"/>
<path d="M31.31 135.078C31.0469 133.503 30.5206 131.928 29.7314 130.879C29.2051 130.354 27.6266 128.516 28.9421 127.992C28.4159 127.466 27.6266 127.992 27.3635 128.779C27.3635 129.041 27.1003 129.567 27.1003 129.567C26.8373 128.254 27.1003 127.204 25.7848 126.417C23.68 125.104 21.3121 128.254 19.2074 128.254C18.155 128.254 16.3133 128.779 16.0502 127.204L15.524 127.729C15.524 127.992 15.2609 128.254 15.524 128.516C15.524 129.041 16.0502 129.829 16.5764 129.829C15.7871 129.829 15.2609 129.829 14.9978 129.041C14.7347 129.567 15.2609 129.567 15.2609 130.091C14.7347 130.091 14.2085 129.567 13.9454 129.041C13.4192 129.567 13.6823 130.091 13.9454 130.616C13.9454 130.879 15.2609 131.666 15.2609 131.666C14.9978 132.979 14.4716 134.554 14.2085 135.866C13.9454 136.653 13.9454 137.44 13.9454 138.228C14.2085 139.015 14.4716 140.065 14.4716 140.853C14.9978 142.165 15.2609 142.953 15.524 143.215C15.524 142.953 15.7871 142.165 16.0502 141.903C16.5764 140.328 16.0502 138.753 16.3133 137.178C16.8395 135.078 18.6812 134.554 20.786 135.078C22.1015 135.341 23.417 135.078 24.7324 134.554C25.2587 134.291 25.7848 133.766 26.3111 133.241C26.5742 132.979 26.8372 132.716 26.8372 132.453C26.8372 132.979 26.8372 133.503 27.3635 134.028C29.2051 136.129 29.2051 138.753 29.7314 141.64C29.7314 141.903 30.2575 143.215 30.2575 143.215C31.0469 142.165 31.0469 140.59 31.573 139.541C31.573 137.966 31.31 136.129 31.31 135.078Z" fill="#52331D"/>
<path d="M29.731 146.627C29.4679 145.577 29.4679 144.002 29.4679 142.953C29.4679 143.74 28.6786 144.79 28.1524 145.052C27.6262 145.315 26.8369 145.839 26.3108 145.577C26.0476 145.315 25.7845 145.315 25.7845 145.052C24.9952 144.79 24.469 144.528 23.6797 144.528C23.4166 144.528 22.6273 144.79 22.6273 145.315H22.3642C22.3642 144.79 21.8381 144.79 21.3118 144.528C20.5225 144.528 19.7332 144.79 19.207 145.315C18.9439 145.577 18.6808 145.577 18.6808 145.839C18.1546 146.102 17.3653 145.577 16.8391 145.315C16.3129 145.052 15.5236 144.002 15.5236 143.215C15.5236 144.265 15.5236 145.839 15.2605 146.89C14.9975 146.89 14.7344 146.89 14.7344 146.627C14.7344 146.89 14.9975 147.152 15.2605 147.152C15.5236 148.465 18.4178 152.401 18.4178 152.401C18.6808 152.927 20.2594 153.976 20.7856 154.239C21.3118 154.764 22.1011 154.764 22.6273 154.764C23.1535 154.764 23.9428 154.764 24.469 154.239C24.9952 153.976 26.5738 152.927 26.8369 152.401C26.8369 152.139 29.731 148.465 29.9941 147.152C30.2572 146.89 30.5203 146.89 30.5203 146.627C30.2572 146.627 29.9941 146.627 29.731 146.627ZM27.1 147.414C26.8369 147.414 26.5738 147.152 26.0476 146.89C25.5214 147.152 24.7321 147.414 24.2059 147.152C23.6797 146.89 23.4166 147.152 22.8905 147.152C23.4166 147.414 23.4166 147.414 22.8905 147.152H22.6273C22.1011 147.414 22.1011 147.414 22.6273 147.152C22.1011 147.152 21.5749 146.89 21.0487 147.152C20.5226 147.414 19.7332 147.152 19.207 146.89C18.9439 147.152 18.6808 147.414 18.1547 147.414C17.8915 147.414 17.6284 147.414 17.6284 147.414C17.8915 147.414 17.8915 147.414 18.1547 147.414C18.4178 147.414 18.9439 147.152 19.207 146.89C19.4702 146.627 19.7332 146.627 19.9963 146.365C20.5225 146.102 21.0487 145.839 21.8381 145.839C22.1011 145.839 22.3642 145.839 22.6273 145.839H22.8905C23.1535 145.839 23.4166 145.839 23.6797 145.839C24.2059 145.839 24.9952 146.102 25.5214 146.365C25.7845 146.627 26.0476 146.627 26.3108 146.89C26.3108 147.152 26.8369 147.414 27.1 147.414C27.3631 147.414 27.6262 147.414 27.6262 147.414C27.3631 147.677 27.1 147.677 27.1 147.414Z" fill="#52331D"/>
<path d="M29.7311 146.627C29.2048 146.627 28.6787 146.627 28.1524 146.365C27.6262 146.102 27.1 146.102 26.5738 145.839L26.3108 145.577C26.0477 145.315 25.7845 145.315 25.7845 145.052C24.9953 144.79 24.469 144.527 23.6797 144.527C23.4166 144.527 22.6274 144.79 22.6274 145.315H22.3642C22.3642 144.79 21.8381 144.79 21.3118 144.527C20.5226 144.527 19.7332 144.79 19.2071 145.315C18.9439 145.577 18.6808 145.577 18.6808 145.839L18.4178 146.102C17.8916 146.365 17.3653 146.627 16.8392 146.627C16.3129 146.89 15.7868 146.89 15.2605 146.89C14.9975 146.89 14.7344 146.89 14.7344 146.627C14.7344 146.89 14.9975 147.152 15.2605 147.152C15.5236 147.414 15.7868 147.414 16.0499 147.414C16.576 147.677 17.3653 147.677 18.1547 147.677C18.4178 147.677 18.9439 147.414 19.2071 147.152C19.4702 146.89 19.7332 146.89 19.9963 146.627C20.5226 146.365 21.0487 146.102 21.8381 146.102C22.1011 146.102 22.3642 146.102 22.6274 146.102H22.8905C23.1535 146.102 23.4166 146.102 23.6797 146.102C24.2059 146.102 24.9953 146.365 25.5214 146.627C25.7845 146.89 26.0477 146.89 26.3108 147.152C26.5738 147.414 26.8369 147.677 27.3632 147.677C27.8893 147.677 28.9417 147.677 29.4679 147.414C29.7311 147.414 29.9941 147.414 30.2572 147.152C30.5203 146.89 30.7835 146.89 30.7835 146.627C30.2572 146.627 29.9941 146.627 29.7311 146.627Z" fill="#6B4732"/>
</g>
<path d="M423.162 225.157C435.223 225.157 445 215.403 445 203.371C445 191.339 435.223 181.585 423.162 181.585C411.102 181.585 401.326 191.339 401.326 203.371C401.326 215.403 411.102 225.157 423.162 225.157Z" fill="#0064B7"/>
<mask id="mask1_3375_3645" style="mask-type:alpha" maskUnits="userSpaceOnUse" x="401" y="181" width="44" height="45">
<path d="M423.16 225.157C435.221 225.157 444.998 215.403 444.998 203.371C444.998 191.339 435.221 181.585 423.16 181.585C411.1 181.585 401.324 191.339 401.324 203.371C401.324 215.403 411.1 225.157 423.16 225.157Z" fill="#0064B7"/>
</mask>
<g mask="url(#mask1_3375_3645)">
<path d="M432.634 206.258C431.845 202.583 432.897 201.008 433.424 195.758L423.689 195.496L413.954 195.758C414.217 201.008 415.796 202.058 414.743 206.258C413.165 211.77 409.218 219.119 423.952 219.381C438.159 219.381 433.949 211.77 432.634 206.258Z" fill="#52331D"/>
<path d="M421.32 208.095C421.32 208.095 421.32 210.72 420.004 212.032C418.689 213.344 417.374 215.445 417.374 215.445C417.374 215.445 420.004 219.644 426.056 219.119C432.107 218.594 432.896 214.657 432.896 214.657C432.896 214.657 427.634 214.132 427.108 208.883C426.582 203.895 425.53 203.895 425.53 203.895L421.32 208.095Z" fill="#F8E1CC"/>
<path d="M417.899 213.345C417.899 213.345 413.953 212.82 412.111 213.345C410.269 213.87 409.48 213.607 410.006 215.182C410.532 216.757 413.426 224.106 412.111 228.569C410.796 233.031 408.954 256.654 408.954 256.654C408.954 256.654 423.424 257.179 428.949 257.441C434.474 257.704 438.684 256.917 438.684 256.917C438.684 256.917 440 246.942 438.684 242.218C437.368 237.493 436.053 230.406 436.053 230.406C436.053 230.406 435.264 219.907 436.316 217.544C437.895 215.182 438.684 214.92 436.842 214.132C435 213.607 433.159 212.82 431.58 212.82C430.001 212.82 429.476 212.82 428.423 213.607C427.371 214.395 426.055 215.969 423.424 215.707C420.793 215.445 419.477 213.87 419.477 213.87C419.477 213.87 418.425 213.345 417.899 213.345Z" fill="#070707"/>
<path d="M410.795 213.87C410.795 213.87 409.479 213.345 407.375 214.657C405.27 216.494 403.691 220.432 403.165 222.794C402.639 225.156 401.85 227.781 401.85 227.781C401.85 227.781 404.48 229.356 407.375 229.356C410.006 229.356 411.847 229.618 411.847 229.618C411.847 229.618 413.163 222.269 412.637 218.857C412.899 215.969 412.374 214.919 410.795 213.87Z" fill="#F7A600"/>
<path d="M434.737 216.757C434.737 216.757 436.053 213.607 438.421 214.92C440.789 216.494 442.631 221.744 443.42 223.582C443.946 225.419 444.736 228.831 444.736 228.831C444.736 228.831 441.578 230.143 439.21 230.406C436.842 230.668 435.001 230.668 435.001 230.668C435.001 230.668 434.212 223.844 434.212 221.481C433.948 218.595 434.737 216.757 434.737 216.757Z" fill="#F7A600"/>
<path d="M416.321 200.221C416.321 200.221 415.531 199.434 415.005 199.697C414.742 199.959 414.215 201.009 414.742 201.796C415.005 202.583 415.268 203.633 415.531 203.633C415.794 203.896 416.846 203.896 416.846 203.896C416.846 203.633 416.321 200.221 416.321 200.221Z" fill="#F8E1CC"/>
<path d="M430.791 200.221C430.791 200.221 431.58 199.434 432.107 199.697C432.37 199.959 432.896 201.009 432.37 201.796C432.107 202.583 431.843 203.633 431.58 203.633C431.318 203.896 430.265 203.896 430.265 203.896C430.002 203.633 430.791 200.221 430.791 200.221Z" fill="#F8E1CC"/>
<path d="M431.054 193.921C429.738 189.984 425.792 188.672 423.687 188.672C421.582 188.672 417.635 189.459 416.32 193.921C415.005 197.858 416.846 203.895 418.162 206.257C419.478 208.358 422.109 210.457 423.95 210.457C425.792 210.457 428.423 208.358 429.738 206.257C430.527 203.633 432.106 197.858 431.054 193.921Z" fill="#F8E1CC"/>
<path d="M416.056 200.483C416.056 200.483 416.583 196.546 418.424 194.447C418.424 194.447 419.74 197.596 422.634 198.646C422.634 198.646 422.634 197.071 422.371 196.021C422.371 196.021 424.739 198.384 427.896 198.646C427.896 198.646 427.633 197.333 427.37 196.546C427.37 196.546 430.001 198.646 431.316 200.483C431.316 200.483 433.684 198.384 433.422 194.447C433.158 190.509 429.738 185.522 423.95 185.522C418.424 185.522 415.794 189.722 415.794 189.722C415.794 189.722 413.688 191.034 413.688 193.659C413.163 196.809 414.215 198.646 416.056 200.483Z" fill="#52331D"/>
</g>
<path d="M119.875 55.5309C131.935 55.5309 141.711 45.7776 141.711 33.7455C141.711 21.7136 131.935 11.9598 119.875 11.9598C107.814 11.9598 98.0371 21.7136 98.0371 33.7455C98.0371 45.7776 107.814 55.5309 119.875 55.5309Z" fill="#DE051F"/>
<mask id="mask2_3375_3645" style="mask-type:alpha" maskUnits="userSpaceOnUse" x="98" y="11" width="44" height="45">
<path d="M119.873 55.5309C131.933 55.5309 141.709 45.7776 141.709 33.7455C141.709 21.7136 131.933 11.9598 119.873 11.9598C107.812 11.9598 98.0352 21.7136 98.0352 33.7455C98.0352 45.7776 107.812 55.5309 119.873 55.5309Z" fill="#DE051F"/>
</mask>
<g mask="url(#mask2_3375_3645)">
<path d="M129.345 36.6331C128.556 32.9584 129.609 31.3835 130.135 26.134L120.401 25.8715L110.666 26.134C110.929 31.3835 112.507 32.4334 111.455 36.6331C109.877 42.1451 105.93 49.4945 120.664 49.7567C134.871 49.7567 130.924 42.1451 129.345 36.6331Z" fill="#4B2C61"/>
<path d="M118.032 38.4704C118.032 38.4704 118.032 41.0952 116.716 42.4075C115.4 43.7199 114.085 45.8194 114.085 45.8194C114.085 45.8194 116.716 50.0198 122.767 49.4945C128.556 48.9693 129.608 45.0323 129.608 45.0323C129.608 45.0323 124.346 44.5074 123.82 39.2578C123.294 34.2707 122.242 34.2707 122.242 34.2707L118.032 38.4704Z" fill="#F8E1CC"/>
<path d="M114.874 43.7199C114.874 43.7199 110.927 43.1949 109.086 43.7199C107.244 44.2448 106.455 43.9823 106.98 45.5572C107.507 47.1321 110.401 54.4815 109.086 58.9432C107.77 63.4058 105.928 87.0288 105.928 87.0288C105.928 87.0288 120.399 87.554 125.924 87.8162C131.449 88.0785 135.658 87.291 135.658 87.291C135.658 87.291 136.974 77.317 135.658 72.5923C134.343 67.8675 133.027 60.7812 133.027 60.7812C133.027 60.7812 132.238 50.2819 133.291 47.9196C134.87 45.5572 135.658 45.295 133.817 44.5073C131.975 43.9823 130.134 43.1949 128.555 43.1949C126.976 43.1949 126.45 43.1949 125.398 43.9823C124.608 44.7698 123.03 46.3446 120.399 46.0824C117.768 45.8194 116.452 44.2448 116.452 44.2448C116.452 44.2448 115.4 43.7199 114.874 43.7199Z" fill="#CCB4AA"/>
<path d="M107.771 44.2444C107.771 44.2444 106.455 43.7195 104.35 45.0319C102.245 46.8695 100.667 50.8068 100.14 53.1684C99.6145 55.5308 98.8252 58.1562 98.8252 58.1562C98.8252 58.1562 101.456 59.7303 104.35 59.7303C106.981 59.7303 108.823 59.9933 108.823 59.9933C108.823 59.9933 110.139 52.644 109.612 49.2319C109.875 46.6065 109.349 45.2946 107.771 44.2444Z" fill="#355D75"/>
<path d="M131.714 47.1319C131.714 47.1319 133.029 43.9821 135.397 45.2948C137.765 46.8697 139.607 52.1189 140.396 53.9561C140.922 55.794 141.711 59.2061 141.711 59.2061C141.711 59.2061 138.554 60.518 136.186 60.781C133.818 61.0432 131.977 61.0432 131.977 61.0432C131.977 61.0432 131.187 54.2191 131.187 51.8567C130.925 48.9691 131.714 47.1319 131.714 47.1319Z" fill="#355D75"/>
<path d="M113.294 30.5962C113.294 30.5962 112.505 29.8087 111.979 30.0712C111.716 30.3337 111.19 31.3836 111.716 32.171C111.979 32.9585 112.242 34.0084 112.505 34.0084C112.769 34.2709 113.821 34.2709 113.821 34.2709C113.821 34.0084 113.294 30.5962 113.294 30.5962Z" fill="#F8E1CC"/>
<path d="M127.765 30.5967C127.765 30.5967 128.554 29.8092 129.08 30.0717C129.343 30.3342 129.87 31.3841 129.343 32.1715C129.08 32.959 128.817 34.0089 128.554 34.0089C128.291 34.2714 127.238 34.2714 127.238 34.2714C126.975 34.0089 127.765 30.5967 127.765 30.5967Z" fill="#F8E1CC"/>
<path d="M128.03 24.2963C126.714 20.359 122.768 19.0466 120.663 19.0466C118.558 19.0466 114.612 19.8341 113.297 24.2963C111.981 28.2334 113.822 34.2704 115.138 36.6327C116.454 38.7325 119.085 40.8324 120.926 40.8324C122.768 40.8324 125.399 38.7325 126.714 36.6327C127.241 34.0079 129.082 28.2334 128.03 24.2963Z" fill="#F8E1CC"/>
<path d="M113.032 30.8581C113.032 30.8581 113.558 26.9209 115.4 24.8211C115.4 24.8211 116.715 27.9708 119.61 29.0207C119.61 29.0207 119.61 27.4459 119.346 26.396C119.346 26.396 121.714 28.7583 124.871 29.0207C124.871 29.0207 124.609 27.7084 124.346 26.9209C124.346 26.9209 126.977 29.0207 128.292 30.8581C128.292 30.8581 130.66 28.7583 130.397 24.8211C130.134 20.8839 126.714 15.8968 120.925 15.8968C115.4 15.8968 112.769 20.0965 112.769 20.0965C112.769 20.0965 110.664 21.4089 110.664 24.0337C110.138 27.1834 111.19 29.0207 113.032 30.8581Z" fill="#4B2C61"/>
</g>
<path d="M280.711 60.1156C292.772 60.1156 302.548 50.3614 302.548 38.3298C302.548 26.2979 292.772 16.5442 280.711 16.5442C268.65 16.5442 258.874 26.2979 258.874 38.3298C258.874 50.3614 268.65 60.1156 280.711 60.1156Z" fill="#0064B7"/>
<mask id="mask3_3375_3645" style="mask-type:alpha" maskUnits="userSpaceOnUse" x="258" y="16" width="45" height="45">
<path d="M280.711 60.1156C292.772 60.1156 302.548 50.3614 302.548 38.3298C302.548 26.2979 292.772 16.5442 280.711 16.5442C268.65 16.5442 258.874 26.2979 258.874 38.3298C258.874 50.3614 268.65 60.1156 280.711 60.1156Z" fill="#0064B7"/>
</mask>
<g mask="url(#mask3_3375_3645)">
<path d="M278.606 43.0543C278.606 43.0543 278.606 45.9412 277.554 46.9917C276.502 48.0414 274.66 50.1415 274.66 50.1415C274.66 50.1415 277.554 54.6033 283.079 54.078C288.604 53.5536 289.919 49.6163 289.919 49.6163C289.919 49.6163 284.658 49.091 283.868 44.1042C283.342 39.1171 282.553 39.1171 282.553 39.1171L278.606 43.0543Z" fill="#FFB07E"/>
<path d="M275.186 48.304C275.186 48.304 271.24 47.7788 269.135 48.304C267.03 48.8284 266.241 48.5662 266.768 49.8781C267.293 51.453 270.188 58.8024 268.872 63.5272C267.557 68.252 265.715 91.6128 265.715 91.6128C265.715 91.6128 280.185 92.1372 285.448 92.4002C290.972 92.6624 294.919 91.6128 294.919 91.6128C294.919 91.6128 295.972 81.3758 294.919 76.914C293.867 72.4515 292.025 65.1021 292.025 65.1021C292.025 65.1021 290.972 54.6029 292.288 52.2405C293.604 49.6159 294.919 49.6159 292.814 48.8284C290.709 48.041 289.131 47.7788 287.816 47.7788C286.5 47.7788 285.448 47.7788 284.658 48.5662C283.869 49.3537 282.028 51.1908 279.922 50.9286C277.554 50.6656 275.713 48.8284 275.713 48.8284C275.713 48.8284 275.713 48.304 275.186 48.304Z" fill="#1B3A62"/>
<path d="M268.346 49.0915C268.346 49.0915 267.03 48.5663 264.926 50.1412C262.558 51.7161 261.242 55.6534 260.453 58.278C259.664 60.9027 259.401 63.0028 259.401 63.0028C259.401 63.0028 262.295 64.3147 264.926 64.3147C267.557 64.3147 269.662 64.5777 269.662 64.5777C269.662 64.5777 270.714 57.2284 270.451 53.8155C270.188 51.1909 269.925 50.1412 268.346 49.0915Z" fill="#00AEEF"/>
<path d="M292.024 51.7157C292.024 51.7157 293.076 48.5658 295.707 50.1408C298.339 51.4535 300.18 56.9657 300.707 58.5406C301.232 60.1155 302.022 63.5276 302.022 63.5276C302.022 63.5276 298.864 64.8395 296.497 64.8395C293.866 65.1025 292.287 65.1025 292.287 65.1025C292.287 65.1025 291.235 58.2776 291.498 55.916C291.498 53.8159 292.024 51.7157 292.024 51.7157Z" fill="#00AEEF"/>
<path d="M290.183 33.6051C290.183 33.6051 290.71 33.8675 290.973 34.655C291.235 35.1799 290.183 37.5422 289.657 38.0672" fill="#FFB07E"/>
<path d="M290.445 25.7308C290.183 19.1689 281.764 19.1689 281.764 19.1689C281.764 19.1689 273.344 19.1689 273.081 25.7308C273.081 28.6181 273.081 31.2429 273.344 33.6052C273.608 35.18 273.608 37.0174 273.87 38.0673C273.87 38.8548 274.133 39.1173 274.133 39.3797C274.397 39.9047 274.66 40.4296 275.185 40.9546C275.975 42.267 277.553 43.5794 278.343 44.1043C279.132 44.6292 280.974 44.8918 281.764 44.8918C282.553 44.8918 284.657 44.6292 285.184 44.1043C285.973 43.5794 287.552 42.0045 288.341 40.9546C288.867 40.4296 289.13 39.9047 289.393 39.3797C289.393 39.1173 289.656 38.5923 289.656 38.0673C289.92 37.0174 290.183 35.4426 290.183 33.6052C290.445 31.5054 290.445 28.6181 290.445 25.7308Z" fill="#FFB07E"/>
<path d="M273.083 33.6051C273.346 35.1799 273.346 37.0173 273.61 38.0672C273.083 37.5422 272.031 35.4425 272.294 34.655C272.557 34.3925 273.083 33.6051 273.083 33.6051Z" fill="#FFB07E"/>
<path d="M275.449 24.6805C275.186 26.7802 275.186 27.5677 274.397 28.8801C273.87 29.93 272.818 31.5048 273.081 32.5548C272.818 31.7674 273.081 30.9799 272.554 30.1925C272.029 29.4051 271.765 28.8801 272.029 27.8302C272.029 26.7803 272.029 25.2054 272.818 24.1555C273.081 23.6305 273.607 23.3681 273.87 23.1055C273.87 22.8431 273.87 22.3182 274.133 22.0556C275.186 19.6933 279.396 19.6934 281.763 19.6934C281.763 19.6934 290.182 19.6934 290.445 26.2553C290.445 29.4051 290.445 32.5548 290.182 34.9171C290.182 34.1297 289.393 33.6047 289.13 32.5548C288.604 31.7674 288.604 30.9799 287.814 29.93C287.025 28.8801 285.184 28.3552 283.868 27.8302C280.974 27.0428 277.817 26.5178 275.449 24.6805Z" fill="#915F41"/>
<path d="M279.396 24.1555C279.921 24.4179 280.185 24.9429 280.711 25.2054C281.237 25.7303 281.5 25.9928 282.026 26.5178C282.553 26.7802 283.079 27.0427 283.605 27.3052C283.868 27.3052 284.131 27.5677 284.394 27.5677C284.657 27.5677 284.921 27.8302 285.184 28.0926C284.657 27.8302 284.131 27.5677 283.605 27.5677C283.342 27.5677 283.078 27.3052 282.816 27.3052C282.553 27.0427 282.289 27.0427 282.026 26.7802C281.5 26.5178 281.237 25.9928 280.711 25.4679C280.448 24.9429 279.921 24.4179 279.396 24.1555Z" fill="#BB8B6C"/>
<path d="M283.868 25.2059C283.868 25.4683 284.131 25.7308 284.131 25.9933C284.131 26.2558 284.394 26.5183 284.657 26.5183C284.921 27.0433 285.446 27.3057 285.71 27.5682C285.973 27.8306 286.499 28.0931 287.025 28.6181C287.289 28.8806 287.551 28.8806 287.551 29.143C287.289 28.8806 287.025 28.8806 287.025 28.6181C286.499 28.3556 286.236 28.0932 285.71 27.5682C285.446 27.0433 284.921 26.7807 284.657 26.2558C284.394 25.9933 284.394 25.7308 284.131 25.4683C284.131 25.7308 283.868 25.4683 283.868 25.2059Z" fill="#BB8B6C"/>
</g>
<path d="M409.376 92.2045C421.436 92.2045 431.213 82.4512 431.213 70.4194C431.213 58.3868 421.436 48.6335 409.376 48.6335C397.315 48.6335 387.538 58.3868 387.538 70.4194C387.538 82.4512 397.315 92.2045 409.376 92.2045Z" fill="#F79F03"/>
<mask id="mask4_3375_3645" style="mask-type:alpha" maskUnits="userSpaceOnUse" x="387" y="48" width="45" height="45">
<path d="M409.374 92.204C421.434 92.204 431.211 82.4507 431.211 70.4189C431.211 58.3863 421.434 48.633 409.374 48.633C397.313 48.633 387.536 58.3863 387.536 70.4189C387.536 82.4507 397.313 92.204 409.374 92.204Z" fill="#F79F03"/>
</mask>
<g mask="url(#mask4_3375_3645)">
<path d="M407.267 75.4054C407.267 75.4054 407.267 78.03 405.952 79.3427C404.636 80.6546 403.321 82.4926 403.321 82.4926C403.321 82.4926 405.952 86.9543 411.74 86.4298C417.528 85.9046 418.318 81.9673 418.318 81.9673C418.318 81.9673 413.056 81.4421 412.267 76.1929C411.477 70.9437 410.688 71.2059 410.688 71.2059L407.267 75.4054Z" fill="#FFBF99"/>
<path d="M403.847 80.3921C403.847 80.3921 399.9 79.8669 397.796 80.3921C395.691 80.9174 395.165 80.6543 395.691 82.2293C396.217 83.8042 398.848 91.1536 397.796 95.6161C396.48 100.078 394.901 123.439 394.901 123.439C394.901 123.439 409.109 123.963 414.634 124.226C420.159 124.488 424.106 123.439 424.106 123.439C424.106 123.439 425.421 113.465 424.106 109.002C422.79 104.54 421.475 97.191 421.475 97.191C421.475 97.191 420.685 87.2163 421.738 84.3294C423.316 81.967 424.106 81.704 422.264 81.1796C420.423 80.6543 418.317 79.8669 417.265 79.8669C415.687 79.8669 415.16 79.8669 414.371 80.6543C413.582 81.4418 412.003 83.0167 409.635 82.7545C407.267 82.4915 405.425 80.6543 405.425 80.6543C405.425 80.6543 404.373 80.3921 403.847 80.3921Z" fill="#1B3A62"/>
<path d="M397.27 81.1798C397.27 81.1798 395.955 80.6553 394.113 81.9672C392.009 83.8044 390.43 87.7417 389.641 90.1041C388.851 92.4664 388.325 94.8288 388.325 94.8288C388.325 94.8288 390.956 96.4037 393.587 96.4037C396.218 96.4037 398.323 96.666 398.323 96.666C398.323 96.666 399.638 89.5796 399.112 86.1667C399.112 83.0177 398.849 82.2302 397.27 81.1798Z" fill="#021E34"/>
<path d="M420.685 84.0676C420.685 84.0676 422.001 81.1799 424.368 82.2304C426.736 83.5423 428.841 89.0546 429.368 90.6295C429.894 92.2044 430.683 95.6165 430.683 95.6165C430.683 95.6165 427.789 96.9292 425.421 97.1914C423.053 97.4536 421.212 97.4536 421.212 97.4536C421.212 97.4536 420.423 90.8917 420.423 88.2671C420.159 85.6425 420.685 84.0676 420.685 84.0676Z" fill="#021E34"/>
<path d="M409.635 72.7805H406.479C406.479 72.7805 406.742 75.4051 409.635 75.4051C412.53 75.4051 412.793 72.7805 412.793 72.7805H409.635Z" fill="white"/>
<path d="M418.843 67.0064C419.107 67.5308 418.054 69.631 417.266 70.1562C417.528 69.3687 417.528 67.7938 417.791 65.9567C417.791 66.2189 418.581 66.4811 418.843 67.0064Z" fill="#FFBF99"/>
<path d="M418.318 58.3442C418.055 52.3068 409.899 52.0445 409.899 52.0445C409.899 52.0445 401.743 52.0445 401.48 58.3442C401.48 60.9688 401.48 63.5934 401.743 65.9558C402.006 67.7938 402.006 69.1057 402.27 70.1553C402.27 70.6806 402.533 71.468 402.533 71.7303C402.795 72.2555 403.059 73.043 403.322 73.5682C404.111 74.8801 405.427 76.1928 406.216 76.455C406.742 76.7181 408.584 77.2425 409.374 76.9803C410.162 76.9803 411.741 76.7181 412.53 76.455C413.32 75.9306 414.635 74.6179 415.425 73.5682C415.688 73.043 416.214 72.2555 416.214 71.7303C416.214 71.468 416.477 70.9428 416.477 70.1553C416.74 69.3679 416.74 67.7938 417.003 65.9558C418.318 64.1187 418.318 61.4941 418.318 58.3442Z" fill="#FFBF99"/>
<path d="M401.479 66.2191C401.742 68.0563 401.742 69.369 402.005 70.4187C401.479 69.8934 400.426 67.7941 400.426 67.2688C400.953 66.4814 401.479 66.2191 401.479 66.2191Z" fill="#FFBF99"/>
<path d="M414.372 75.6677C413.846 76.1929 413.057 76.9804 412.793 77.2426C412.267 77.5048 410.689 78.5553 409.9 78.5553H409.636C408.847 78.5553 407.532 77.7678 406.742 77.2426C406.216 76.9804 405.426 76.4551 405.164 75.6677C405.953 75.6677 405.69 74.3549 405.953 73.8305C406.216 73.3053 406.742 73.3053 407.532 73.043C407.794 72.78 408.058 72.78 408.321 72.5178C408.584 72.2556 409.11 72.2556 409.636 72.2556H409.9C410.162 72.2556 410.689 72.2556 411.215 72.5178C411.741 72.78 411.741 72.78 412.004 73.043C412.268 73.3053 413.32 73.3053 413.582 73.8305C414.109 74.0927 413.32 75.4054 414.372 75.6677ZM412.793 75.1424C413.32 74.355 412.793 74.3549 412.004 73.8305C411.478 73.5675 410.162 73.3053 409.9 73.3053C409.373 73.3053 408.058 73.8305 407.794 73.8305C407.269 74.0927 406.479 74.0927 407.005 75.1424C407.269 75.6677 407.794 76.4551 408.584 76.4551C409.11 76.4551 409.9 75.6677 410.162 74.8802C410.425 75.1424 410.689 76.4551 411.741 76.4551C412.004 76.1929 412.53 75.4054 412.793 75.1424Z" fill="#915F41"/>
<path d="M409.899 64.3814C410.162 64.3814 410.426 64.3814 410.689 64.3814C410.952 64.3814 410.952 64.1191 411.215 63.8569C411.478 63.5947 412.005 63.5939 412.794 63.5939C413.583 63.5939 414.109 63.5939 414.635 63.5939C414.898 63.5939 416.477 63.5939 416.477 63.5939C416.477 63.5939 417.003 63.8569 417.003 64.1191C417.003 64.1191 417.003 64.3814 417.266 64.3814C417.266 64.6444 417.266 65.1688 417.266 65.6941C417.266 66.2193 417.003 67.0068 416.74 67.269H416.477C416.214 67.269 415.687 67.269 415.162 67.269C414.635 67.269 413.846 67.269 413.32 67.269C412.794 67.269 411.741 67.269 411.478 65.9563C411.478 65.6941 411.215 64.6444 411.215 64.3814C410.689 64.6444 410.162 64.6444 409.899 64.3814ZM412.005 66.7437C412.267 66.7437 412.794 67.0068 412.794 67.0068C413.057 67.0068 415.162 67.0068 415.951 67.0068C416.214 67.0068 416.214 67.0068 416.477 66.7437C416.74 66.4815 417.003 64.6444 416.74 64.3814C416.74 64.1191 416.477 64.1191 416.214 63.8569C415.687 63.5947 412.005 63.5947 411.741 63.8569C411.478 64.1191 411.478 64.1191 411.478 64.3814C411.741 64.3814 411.741 64.3814 411.741 64.6444C411.741 64.9066 411.741 65.4318 411.478 65.1688C411.478 65.1688 411.478 64.9066 411.215 65.1688V65.6941C411.741 66.7437 412.005 66.7437 412.005 66.7437Z" fill="#6B4732"/>
<path d="M409.9 64.3814C409.637 64.3814 409.373 64.3814 409.111 64.3814C408.848 64.3814 408.848 64.1191 408.584 63.8569C408.321 63.5947 407.795 63.5939 407.006 63.5939C406.216 63.5939 405.69 63.5939 405.164 63.5939C404.901 63.5939 403.323 63.5939 403.323 63.5939C403.323 63.5939 402.796 63.8569 402.796 64.1191C402.796 64.1191 402.796 64.3814 402.533 64.3814C402.533 64.6444 402.533 65.1688 402.533 65.6941C402.533 66.2193 402.796 67.0068 403.059 67.269H403.323C403.585 67.269 404.112 67.269 404.638 67.269C405.164 67.269 405.953 67.269 406.48 67.269C407.005 67.269 408.058 67.269 408.321 65.9563C408.321 65.6941 408.584 64.6444 408.584 64.3814C408.848 64.6444 409.637 64.6444 409.9 64.3814ZM407.795 66.7437C407.532 66.7437 407.006 67.0068 407.006 67.0068C406.743 67.0068 404.638 67.0068 403.848 67.0068C403.585 67.0068 403.585 67.0068 403.323 66.7437C403.059 66.4815 402.796 64.6444 403.059 64.3814C403.059 64.1191 403.323 64.1191 403.585 63.8569C404.112 63.5947 407.795 63.5947 408.058 63.8569C408.321 64.1191 408.321 64.1191 408.321 64.3814C408.058 64.3814 408.058 64.3814 408.058 64.6444C408.058 64.9066 408.058 65.4318 408.321 65.1688C408.321 65.1688 408.321 64.9066 408.584 65.1688V65.6941C408.058 66.7437 407.795 66.7437 407.795 66.7437Z" fill="#6B4732"/>
</g>
<path fill-rule="evenodd" clip-rule="evenodd" d="M356.295 87.4516C356.295 87.1462 356.602 86.84 356.908 86.84C357.214 86.84 357.521 87.1462 357.521 87.4516V89.8963C357.521 90.2025 357.214 90.5079 356.908 90.5079C356.602 90.5079 356.295 90.2025 356.295 89.8963V87.4516ZM352.619 89.5909C352.465 89.4382 352.465 88.9794 352.619 88.8267C352.772 88.674 353.231 88.674 353.384 88.8267L355.223 90.6606C355.376 90.8133 355.376 91.2722 355.223 91.4249C355.07 91.5776 354.61 91.5776 354.457 91.4249L352.619 89.5909ZM351.393 93.5642C351.087 93.5642 350.781 93.2588 350.781 92.9526C350.781 92.6472 351.087 92.3419 351.393 92.3419H353.844C354.15 92.3419 354.457 92.6472 354.457 92.9526C354.457 93.2588 354.15 93.5642 353.844 93.5642H351.393ZM353.384 97.3848C353.231 97.5375 352.772 97.5375 352.619 97.3848C352.465 97.2321 352.465 96.7732 352.619 96.6205L354.457 94.7866C354.61 94.6339 355.07 94.6339 355.223 94.7866C355.376 94.9393 355.376 95.3982 355.223 95.5509L353.384 97.3848ZM357.521 98.6072C357.521 98.9126 357.214 99.2187 356.908 99.2187C356.602 99.2187 356.295 98.9126 356.295 98.6072V96.1624C356.295 95.8563 356.602 95.5509 356.908 95.5509C357.214 95.5509 357.521 95.8563 357.521 96.1624V98.6072ZM361.197 96.6205C361.35 96.7732 361.35 97.2321 361.197 97.3848C361.044 97.5375 360.584 97.5375 360.431 97.3848L358.593 95.5509C358.439 95.3982 358.439 94.9393 358.593 94.7866C358.746 94.6339 359.205 94.6339 359.358 94.7866L361.197 96.6205ZM362.422 92.4946C362.729 92.4946 363.035 92.7999 363.035 93.1061C363.035 93.4115 362.729 93.7169 362.422 93.7169H359.971C359.665 93.7169 359.358 93.4115 359.358 93.1061C359.358 92.7999 359.665 92.4946 359.971 92.4946H362.422ZM360.431 88.8267C360.584 88.674 361.044 88.674 361.197 88.8267C361.35 88.9794 361.35 89.4382 361.197 89.5909L359.358 91.4249C359.205 91.5776 358.746 91.5776 358.593 91.4249C358.439 91.2722 358.439 90.8133 358.593 90.6606L360.431 88.8267Z" fill="#EE384E"/>
</g>
<defs>
<clipPath id="clip0_3375_3645">
<rect width="445" height="305" fill="white"/>
</clipPath>
</defs>
</svg>
