<svg width="445" height="305" viewBox="0 0 445 305" fill="none" xmlns="http://www.w3.org/2000/svg">
<g clip-path="url(#clip0_3375_6170)">
<path d="M352.939 96.5873C373.113 96.5873 389.467 80.1553 389.467 59.885C389.467 39.615 373.113 23.1829 352.939 23.1829C332.764 23.1829 316.41 39.615 316.41 59.885C316.41 80.1553 332.764 96.5873 352.939 96.5873Z" stroke="#2626DB" stroke-miterlimit="10" stroke-dasharray="6 6"/>
<path d="M367.243 108.923C396.082 110.532 418.153 135.358 416.537 164.398C414.922 193.361 390.237 215.582 361.321 213.896" stroke="#DE051F" stroke-miterlimit="10" stroke-dasharray="6 6"/>
<path d="M414.461 159.8C418.793 159.8 422.305 156.301 422.305 151.985C422.305 147.669 418.793 144.169 414.461 144.169C410.129 144.169 406.617 147.669 406.617 151.985C406.617 156.301 410.129 159.8 414.461 159.8Z" fill="#003EB0"/>
<path d="M413.154 148.537L417.383 153.058L411.923 154.667L413.154 148.537Z" fill="white"/>
<path d="M73.1674 185.163C93.3414 185.163 109.696 168.731 109.696 148.46C109.696 128.191 93.3414 111.759 73.1674 111.759C52.9932 111.759 36.6387 128.191 36.6387 148.46C36.6387 168.731 52.9932 185.163 73.1674 185.163Z" stroke="#2626DB" stroke-miterlimit="10" stroke-dasharray="6 6"/>
<path d="M180.677 240.943C200.852 240.943 217.206 224.511 217.206 204.242C217.206 183.971 200.852 167.539 180.677 167.539C160.503 167.539 144.148 183.971 144.148 204.242C144.148 224.511 160.503 240.943 180.677 240.943Z" stroke="#63C1F1" stroke-width="1.5" stroke-miterlimit="10" stroke-dasharray="6 6"/>
<path d="M428.227 86.4731C428.227 86.4731 424.613 86.3963 419.307 87.1624L414.923 93.1391L415.001 87.9286C399.85 91.0704 376.857 101.337 374.934 134.055C375.011 133.979 412.309 157.042 428.227 86.4731Z" fill="#023EA1"/>
<path d="M405.003 90.8402L384.009 123.328L428.228 86.4731" stroke="white" stroke-miterlimit="10"/>
<path d="M421.614 108.234L383.24 125.243" stroke="white" stroke-miterlimit="10"/>
<path d="M418.615 66.0912C418.615 66.0912 418.615 72.2975 414.385 69.8456C410.155 67.3938 407.31 67.3171 405.464 71.8377C403.695 76.435 400.62 78.1207 397.851 77.2778C395.083 76.435 390.237 74.1366 388.161 80.4964C386.085 86.8561 381.086 98.9623 387.777 102.103C394.467 105.245 405.003 101.031 406.618 96.2036C408.233 91.3767 406.464 87.3159 411.847 85.7063C417.23 84.1741 418 89.5375 422.69 85.9365C427.381 82.3349 432.534 79.117 428.996 71.6081C425.844 64.9418 419.461 62.6432 418.615 66.0912Z" stroke="#EA4E59" stroke-miterlimit="10" stroke-linecap="round" stroke-linejoin="round"/>
<path d="M419.615 73.2938C419.615 73.2938 390.161 96.1275 381.317 100.111" stroke="#EA4E59" stroke-miterlimit="10" stroke-linecap="round" stroke-linejoin="round"/>
<path d="M396.082 81.6455L395.159 91.2999L402.696 94.5946" stroke="#EA4E59" stroke-miterlimit="10" stroke-linecap="round" stroke-linejoin="round"/>
<path d="M410.924 72.451L411.309 79.5768L417.23 83.0249" stroke="#EA4E59" stroke-miterlimit="10" stroke-linecap="round" stroke-linejoin="round"/>
<path d="M109.467 71.6081C109.467 71.6081 117.387 66.1679 118.926 70.842C120.464 75.516 122.694 75.2865 125.001 74.9795C127.308 74.6732 131.23 72.4509 132.538 77.508C133.922 82.5651 132.461 85.707 134.844 87.3159C137.228 88.9249 144.304 98.3497 139.536 100.188C134.767 101.951 129.154 97.9667 127.308 95.6677C125.462 93.3694 121.31 93.2926 118.08 94.0587C114.85 94.8248 110.697 93.2926 112.081 89.3847C113.466 85.4767 111.466 81.4927 108.544 80.6499C105.544 79.807 104.161 75.3625 109.467 71.6081Z" fill="#023EA1"/>
<path d="M113.696 76.1293L140.996 104.019" stroke="white" stroke-miterlimit="10" stroke-linecap="round" stroke-linejoin="round"/>
<path d="M127 78.5044L124.77 87.4694L115.464 89.3079" stroke="white" stroke-miterlimit="10" stroke-linecap="round" stroke-linejoin="round"/>
<path d="M109.543 85.0937C109.543 85.0937 109.543 90.1508 112.927 88.082C116.311 86.09 118.695 86.0133 120.155 89.691C121.617 93.3694 124.078 94.7481 126.308 94.1355C128.538 93.4455 132.46 91.6069 134.152 96.7408C135.844 101.874 139.92 111.682 134.46 114.21C129.076 116.739 120.541 113.368 119.233 109.46C117.926 105.552 119.31 102.257 115.004 100.955C110.697 99.6524 110.004 104.019 106.236 101.108C102.392 98.1962 98.3153 95.5909 101.161 89.5382C103.622 84.1741 108.851 82.3356 109.543 85.0937Z" stroke="#FCBE42" stroke-miterlimit="10"/>
<path d="M108.697 90.9169C108.697 90.9169 132.537 109.383 139.689 112.601" stroke="#FCBE42" stroke-miterlimit="10"/>
<path d="M127.769 97.6597L128.461 105.552L122.386 108.157" stroke="#FCBE42" stroke-miterlimit="10"/>
<path d="M115.772 90.3043L115.388 96.0507L110.62 98.8095" stroke="#FCBE42" stroke-miterlimit="10"/>
<path d="M267.732 13.4518C267.732 13.4518 267.655 17.3595 268.501 23.2594L274.961 28.0866L269.347 28.01C272.884 44.5604 284.035 69.7689 319.642 71.6848C319.565 71.6848 344.481 30.6152 267.732 13.4518Z" fill="#023EA1"/>
<path d="M272.576 38.967L300.877 47.3189L267.732 13.4518" stroke="white" stroke-miterlimit="10"/>
<path d="M291.417 20.6544L300.877 47.319" stroke="white" stroke-miterlimit="10"/>
<path d="M329.023 15.2907C329.023 15.2907 326.332 11.5362 329.639 9.23756C332.945 6.93891 338.56 8.85444 338.867 12.1492C339.174 15.444 336.868 16.8232 339.174 18.1258C341.482 19.3517 347.403 23.7958 345.096 26.6308C342.789 29.4659 338.79 28.3165 339.021 33.0671C339.328 37.8177 347.172 41.3423 340.943 45.7099C334.714 50.0773 322.179 54.9045 320.641 43.2579C319.103 31.6113 329.254 37.1281 325.562 28.7763C321.871 20.4244 326.793 21.8802 329.1 19.7348C331.331 17.4362 329.023 15.2907 329.023 15.2907Z" fill="#FCBE42"/>
<path d="M334.329 21.1906C334.329 21.1906 331.1 32.9904 332.022 43.9475C332.945 54.9045 334.944 57.1265 334.944 57.1265" stroke="#E5F8FF" stroke-miterlimit="10"/>
<path d="M319.949 58.276C319.949 58.276 312.181 31.5348 314.258 12.3792" stroke="#EB4B57" stroke-miterlimit="10"/>
<path d="M317.411 0.655914C317.411 0.655914 320.872 8.47139 314.104 14.3713C314.104 14.3713 310.029 8.08827 317.411 0.655914Z" stroke="#EB4B57" stroke-miterlimit="10"/>
<path d="M314.565 30.462C314.565 30.462 315.103 22.5699 324.255 20.4245C324.255 20.3479 325.947 27.4737 314.565 30.462Z" stroke="#EB4B57" stroke-miterlimit="10"/>
<path d="M317.641 48.7748C317.641 48.7748 316.565 40.9593 325.178 36.975C325.178 36.975 328.254 43.5645 317.641 48.7748Z" stroke="#EB4B57" stroke-miterlimit="10"/>
<path d="M317.334 48.928C317.334 48.928 315.796 41.1892 306.414 40.2697C306.414 40.1931 305.722 47.4722 317.334 48.928Z" stroke="#EB4B57" stroke-miterlimit="10"/>
<path d="M314.642 30.3853C314.642 30.3853 314.104 22.4933 304.876 20.3478C304.952 20.3478 303.261 27.3971 314.642 30.3853Z" stroke="#EB4B57" stroke-miterlimit="10"/>
<path d="M203.979 28.9298C203.979 28.9298 205.055 32.0713 207.055 34.6765C209.055 37.2816 207.132 39.657 207.132 39.657C207.132 39.657 202.21 42.2621 200.749 38.9673C200.749 38.9673 200.364 37.1284 200.287 35.8258C200.287 35.5193 200.211 35.2895 200.057 34.983C199.749 34.4466 199.365 32.7609 197.904 34.2933C197.904 34.2933 196.212 37.5115 193.751 34.8298C193.674 34.7531 193.597 34.5999 193.597 34.4466L193.443 33.6038L192.598 33.5272C192.366 33.5272 192.213 33.2973 192.213 33.0674V32.2246H191.443C191.213 32.2246 190.983 32.0713 190.983 31.7649L190.829 23.1065C190.829 23.1065 194.212 19.7351 198.288 21.6507C202.364 23.5663 202.672 22.9533 203.979 28.9298Z" fill="#FFBF9C"/>
<path d="M190.675 25.0217C190.675 25.3282 190.521 25.6347 190.29 25.788C189.675 26.2477 188.445 26.6308 187.137 24.9451C185.214 22.4166 187.291 22.4166 187.291 22.4166C187.291 22.4166 185.523 17.3595 190.752 18.4322C190.752 18.4322 193.674 12.992 197.212 17.5128C197.212 17.5128 203.21 14.9842 203.518 20.501C203.518 20.501 207.67 23.5659 205.286 29.6191C205.132 29.9255 204.825 30.1554 204.518 30.2321C203.364 30.462 200.98 30.3087 201.441 25.6347C201.518 25.0984 201.441 24.4854 201.287 24.0257C200.98 23.1062 200.364 22.34 199.057 24.1789C199.057 24.1789 197.442 26.1711 196.904 23.5659C196.366 20.9608 191.905 22.9529 191.136 23.8724C190.752 24.3321 190.675 24.7152 190.675 25.0217Z" fill="#170D54"/>
<path d="M200.441 36.9749C200.441 36.9749 190.06 35.749 189.752 45.48L189.675 47.5488L218.206 47.0124C218.206 47.0124 219.436 36.2087 212.054 36.2087L207.747 36.3619C207.747 36.3619 207.67 39.8865 204.133 39.9631C200.595 39.8865 200.441 36.9749 200.441 36.9749Z" fill="#F79F03"/>
<path d="M286.88 214.126L286.803 214.509C286.726 214.892 286.649 215.275 286.572 215.658C286.495 216.271 286.418 216.884 286.341 217.42C286.264 218.186 286.187 218.953 286.187 219.719C286.187 220.639 286.187 221.558 286.264 222.477C286.341 223.474 286.495 224.546 286.726 225.543C286.957 226.615 287.264 227.765 287.649 228.837C288.033 229.986 288.572 231.136 289.11 232.209C289.725 233.358 290.494 234.508 291.263 235.58C292.186 236.729 293.186 237.879 294.262 238.875C295.493 240.024 296.8 241.02 298.184 241.94C298.953 242.476 299.799 243.012 300.645 243.395C300.953 243.549 301.184 243.625 301.491 243.702C301.568 243.702 302.107 243.855 302.107 243.855V252.897H216.283L216.206 244.392C216.206 244.392 229.587 241.863 232.433 214.969C232.433 215.122 286.88 214.126 286.88 214.126Z" fill="#0064B7"/>
<path d="M287.11 228.608L232.048 218.11L232.433 215.122L287.187 214.432C287.264 214.432 284.188 217.727 287.11 228.608Z" fill="#023EA1"/>
<path d="M302.03 244.545H216.206V253.05H302.03V244.545Z" fill="#023EA1"/>
<path d="M380.316 46.0929H137.304C127.152 45.7864 127.152 53.6785 127.152 53.6785V173.133L129.998 218.417C129.998 218.417 366.012 217.727 378.701 217.727C391.236 217.727 391.236 207.919 391.236 207.919V203.322C391.236 203.322 391.236 65.4784 391.236 55.6707C391.236 45.863 380.316 46.0929 380.316 46.0929ZM137.611 205.927L138.304 58.2758H140.38H379.931L380.624 204.625L137.611 205.927Z" fill="#0064B7"/>
<path d="M137.612 57.8928H382.393L382.085 209.912L136.535 209.528L137.612 57.8928Z" fill="#E9EEF2"/>
<path d="M365.783 79.0403H152.532C151.609 79.0403 150.763 78.2741 150.763 77.2785V64.4057C150.763 63.4862 151.532 62.6434 152.532 62.6434H365.783C366.706 62.6434 367.552 63.4096 367.552 64.4057V77.2785C367.475 78.2741 366.706 79.0403 365.783 79.0403Z" fill="white"/>
<path d="M160.606 76.1293C163.495 76.1293 165.836 73.7621 165.836 70.842C165.836 67.9225 163.495 65.5553 160.606 65.5553C157.718 65.5553 155.377 67.9225 155.377 70.842C155.377 73.7621 157.718 76.1293 160.606 76.1293Z" fill="#EE384E"/>
<path d="M211.439 73.2171H187.138C186.215 73.2171 185.369 72.451 185.369 71.4546V70.842C185.369 69.9224 186.138 69.0796 187.138 69.0796H211.439C212.361 69.0796 213.207 69.8457 213.207 70.842V71.4546C213.207 72.451 212.439 73.2171 211.439 73.2171Z" fill="#78C8F2"/>
<path d="M247.89 73.2171H224.742C223.819 73.2171 222.973 72.451 222.973 71.4546V70.842C222.973 69.9224 223.742 69.0796 224.742 69.0796H247.89C248.813 69.0796 249.659 69.8457 249.659 70.842V71.4546C249.582 72.451 248.813 73.2171 247.89 73.2171Z" fill="#DBE7F4"/>
<path d="M285.418 73.2171H262.271C261.348 73.2171 260.502 72.451 260.502 71.4546V70.842C260.502 69.9224 261.271 69.0796 262.271 69.0796H285.418C286.341 69.0796 287.187 69.8457 287.187 70.842V71.4546C287.187 72.451 286.418 73.2171 285.418 73.2171Z" fill="#DBE7F4"/>
<path d="M322.409 73.2171H299.261C298.338 73.2171 297.492 72.451 297.492 71.4546V70.842C297.492 69.9224 298.261 69.0796 299.261 69.0796H322.409C323.332 69.0796 324.177 69.8457 324.177 70.842V71.4546C324.177 72.451 323.408 73.2171 322.409 73.2171Z" fill="#DBE7F4"/>
<path d="M360.552 73.2171H337.404C336.482 73.2171 335.636 72.451 335.636 71.4546V70.842C335.636 69.9224 336.405 69.0796 337.404 69.0796H360.552C361.475 69.0796 362.32 69.8457 362.32 70.842V71.4546C362.32 72.451 361.552 73.2171 360.552 73.2171Z" fill="#DBE7F4"/>
<path d="M365.783 132.217H152.532C151.609 132.217 150.763 131.45 150.763 130.454V85.4767C150.763 84.5571 151.532 83.7143 152.532 83.7143H365.783C366.706 83.7143 367.552 84.4811 367.552 85.4767V130.454C367.475 131.374 366.706 132.217 365.783 132.217Z" fill="white"/>
<path d="M259.425 126.776H157.683C156.76 126.776 155.914 126.01 155.914 125.014V90.5338C155.914 89.6142 156.683 88.7714 157.683 88.7714H259.425C260.348 88.7714 261.194 89.5382 261.194 90.5338V125.014C261.194 126.01 260.348 126.776 259.425 126.776Z" fill="#DBE7F4"/>
<path d="M344.172 97.6604H291.955C291.032 97.6604 290.187 96.8936 290.187 95.8979V95.2846C290.187 94.365 290.955 93.5222 291.955 93.5222H344.172C345.095 93.5222 345.941 94.289 345.941 95.2846V95.8979C345.864 96.8936 345.095 97.6604 344.172 97.6604Z" fill="#61BFEE"/>
<path d="M326.408 126.163H308.797C306.721 126.163 304.952 124.477 304.952 122.332C304.952 120.186 306.644 118.501 308.797 118.501H326.408C328.485 118.501 330.253 120.186 330.253 122.332C330.253 124.477 328.561 126.163 326.408 126.163Z" fill="#EE384E"/>
<path d="M357.784 106.165H277.036C276.421 106.165 275.883 105.629 275.883 105.016C275.883 104.402 276.421 103.867 277.036 103.867H357.784C358.4 103.867 358.938 104.402 358.938 105.016C358.938 105.629 358.476 106.165 357.784 106.165Z" fill="#DAE6F4"/>
<path d="M345.557 111.759H277.036C276.421 111.759 275.883 111.222 275.883 110.609C275.883 109.996 276.421 109.46 277.036 109.46H345.557C346.172 109.46 346.71 109.996 346.71 110.609C346.71 111.222 346.172 111.759 345.557 111.759Z" fill="#DAE6F4"/>
<path d="M217.745 201.56H152.532C151.609 201.56 150.763 200.794 150.763 199.797V139.113C150.763 138.193 151.532 137.35 152.532 137.35H217.745C218.668 137.35 219.514 138.116 219.514 139.113V199.797C219.437 200.794 218.668 201.56 217.745 201.56Z" fill="white"/>
<path d="M213.976 174.818H156.914C155.991 174.818 155.146 174.052 155.146 173.056V144.399C155.146 143.48 155.914 142.637 156.914 142.637H213.976C214.899 142.637 215.745 143.403 215.745 144.399V173.056C215.668 174.052 214.899 174.818 213.976 174.818Z" fill="#0064B7"/>
<path d="M214.207 183.401H156.683C155.914 183.401 155.222 182.711 155.222 181.945C155.222 181.102 155.914 180.489 156.683 180.489H214.283C215.052 180.489 215.744 181.179 215.744 181.945C215.667 182.787 215.052 183.401 214.207 183.401Z" fill="#DAE6F4"/>
<path d="M214.207 189.07H156.683C155.914 189.07 155.222 188.381 155.222 187.614C155.222 186.771 155.914 186.159 156.683 186.159H214.283C215.052 186.159 215.744 186.848 215.744 187.614C215.667 188.381 215.052 189.07 214.207 189.07Z" fill="#DAE6F4"/>
<path d="M291.494 201.56H226.28C225.357 201.56 224.511 200.794 224.511 199.797V139.113C224.511 138.193 225.281 137.35 226.28 137.35H291.494C292.416 137.35 293.262 138.116 293.262 139.113V199.797C293.262 200.794 292.493 201.56 291.494 201.56Z" fill="white"/>
<path d="M287.726 174.818H230.664C229.741 174.818 228.896 174.052 228.896 173.056V144.399C228.896 143.48 229.664 142.637 230.664 142.637H287.726C288.649 142.637 289.495 143.403 289.495 144.399V173.056C289.495 174.052 288.726 174.818 287.726 174.818Z" fill="#EE384E"/>
<path d="M288.034 183.401H230.433C229.665 183.401 228.973 182.711 228.973 181.945C228.973 181.102 229.665 180.489 230.433 180.489H288.034C288.803 180.489 289.495 181.179 289.495 181.945C289.495 182.787 288.803 183.401 288.034 183.401Z" fill="#DAE6F4"/>
<path d="M288.034 189.07H230.433C229.665 189.07 228.973 188.381 228.973 187.614C228.973 186.771 229.665 186.159 230.433 186.159H288.034C288.803 186.159 289.495 186.848 289.495 187.614C289.495 188.381 288.803 189.07 288.034 189.07Z" fill="#DAE6F4"/>
<path d="M288.034 194.817H230.433C229.665 194.817 228.973 194.128 228.973 193.361C228.973 192.519 229.665 191.905 230.433 191.905H288.034C288.803 191.905 289.495 192.595 289.495 193.361C289.495 194.128 288.803 194.817 288.034 194.817Z" fill="#DAE6F4"/>
<path d="M365.782 201.56H300.569C299.646 201.56 298.8 200.794 298.8 199.797V139.113C298.8 138.193 299.569 137.35 300.569 137.35H365.782C366.705 137.35 367.551 138.116 367.551 139.113V199.797C367.474 200.794 366.705 201.56 365.782 201.56Z" fill="white"/>
<path d="M362.014 174.818H304.952C304.029 174.818 303.183 174.052 303.183 173.056V144.399C303.183 143.48 303.952 142.637 304.952 142.637H362.014C362.937 142.637 363.783 143.403 363.783 144.399V173.056C363.783 174.052 363.013 174.818 362.014 174.818Z" fill="#A1D2F0"/>
<path d="M362.321 183.401H304.721C303.952 183.401 303.26 182.711 303.26 181.945C303.26 181.102 303.952 180.489 304.721 180.489H362.321C363.09 180.489 363.782 181.179 363.782 181.945C363.782 182.787 363.09 183.401 362.321 183.401Z" fill="#DAE6F4"/>
<path d="M362.321 189.07H304.721C303.952 189.07 303.26 188.381 303.26 187.614C303.26 186.771 303.952 186.159 304.721 186.159H362.321C363.09 186.159 363.782 186.848 363.782 187.614C363.782 188.381 363.09 189.07 362.321 189.07Z" fill="#DAE6F4"/>
<path d="M362.321 194.817H304.721C303.952 194.817 303.26 194.128 303.26 193.361C303.26 192.519 303.952 191.905 304.721 191.905H362.321C363.09 191.905 363.782 192.595 363.782 193.361C363.782 194.128 363.09 194.817 362.321 194.817Z" fill="#DAE6F4"/>
<path d="M144.226 277.416H58.9413C56.5573 277.416 54.6348 275.5 54.6348 273.048V149.457C54.6348 147.081 56.5573 145.089 58.9413 145.089H144.226C146.611 145.089 148.533 147.005 148.533 149.457V273.048C148.533 275.5 146.611 277.416 144.226 277.416Z" fill="#0064B7"/>
<path d="M139.227 272.589H63.6317C61.2477 272.589 59.3252 270.673 59.3252 268.222V154.743C59.3252 152.368 61.2477 150.376 63.6317 150.376H139.227C141.611 150.376 143.534 152.291 143.534 154.743V268.222C143.534 270.673 141.611 272.589 139.227 272.589Z" fill="#E9EEF2"/>
<path d="M138.304 167.77H64.7077C63.7849 167.77 62.939 167.003 62.939 166.007V156.813C62.939 155.893 63.708 155.05 64.7077 155.05H138.304C139.227 155.05 140.073 155.816 140.073 156.813V166.007C140.073 167.003 139.303 167.77 138.304 167.77Z" fill="white"/>
<path d="M70.3985 166.083C72.862 166.083 74.8593 164.094 74.8593 161.64C74.8593 159.185 72.862 157.195 70.3985 157.195C67.9354 157.195 65.9385 159.185 65.9385 161.64C65.9385 164.094 67.9354 166.083 70.3985 166.083Z" fill="#EE384E"/>
<path d="M135.689 159.034H128.768C128.383 159.034 128.152 158.728 128.152 158.345C128.152 157.962 128.46 157.655 128.768 157.655H135.689C136.074 157.655 136.304 157.962 136.304 158.345C136.304 158.728 135.997 159.034 135.689 159.034Z" fill="#D0ECFB"/>
<path d="M135.689 161.41H128.768C128.383 161.41 128.152 161.103 128.152 160.72C128.152 160.337 128.46 160.031 128.768 160.031H135.689C136.074 160.031 136.304 160.337 136.304 160.72C136.304 161.18 135.997 161.41 135.689 161.41Z" fill="#D0ECFB"/>
<path d="M135.689 164.015H128.768C128.383 164.015 128.152 163.708 128.152 163.325C128.152 162.942 128.46 162.636 128.768 162.636H135.689C136.074 162.636 136.304 162.942 136.304 163.325C136.304 163.708 135.997 164.015 135.689 164.015Z" fill="#D0ECFB"/>
<path d="M138.304 195.43H64.7844C63.8616 195.43 63.0156 194.663 63.0156 193.668V172.826C63.0156 171.907 63.7847 171.064 64.7844 171.064H138.38C139.303 171.064 140.149 171.83 140.149 172.826V193.668C140.072 194.663 139.303 195.43 138.304 195.43Z" fill="white"/>
<path d="M100.006 192.212H66.9382C66.0154 192.212 65.1694 191.446 65.1694 190.45V175.125C65.1694 174.206 65.9385 173.363 66.9382 173.363H100.006C100.929 173.363 101.775 174.129 101.775 175.125V190.45C101.775 191.446 100.929 192.212 100.006 192.212Z" fill="#0064B7"/>
<path d="M109.926 179.263H131.613C132.228 179.263 132.766 178.727 132.766 178.113C132.766 177.5 132.228 176.964 131.613 176.964H109.926C109.311 176.964 108.772 177.5 108.772 178.113C108.772 178.727 109.311 179.263 109.926 179.263Z" fill="#7ACAF2"/>
<path d="M109.543 182.328H136.074C136.382 182.328 136.689 182.097 136.689 181.714C136.689 181.408 136.458 181.102 136.074 181.102H109.543C109.235 181.102 108.928 181.331 108.928 181.714C109.005 182.097 109.235 182.328 109.543 182.328Z" fill="#ECF2F9"/>
<path d="M109.543 185.546H131.614C131.921 185.546 132.229 185.316 132.229 184.933C132.229 184.627 131.998 184.32 131.614 184.32H109.543C109.235 184.32 108.928 184.55 108.928 184.933C109.005 185.316 109.235 185.546 109.543 185.546Z" fill="#ECF2F9"/>
<path d="M98.699 238.185H64.7077C63.7849 238.185 62.939 237.419 62.939 236.423V200.487C62.939 199.568 63.708 198.725 64.7077 198.725H98.699C99.6213 198.725 100.467 199.491 100.467 200.487V236.423C100.391 237.419 99.6213 238.185 98.699 238.185Z" fill="white"/>
<path d="M96.6225 222.094H67.0148C66.092 222.094 65.2461 221.328 65.2461 220.332V203.859C65.2461 202.939 66.0151 202.096 67.0148 202.096H96.6225C97.5454 202.096 98.3914 202.862 98.3914 203.859V220.332C98.3143 221.252 97.5454 222.094 96.6225 222.094Z" fill="#A1D2F0"/>
<path d="M97.6225 227.228H65.708C65.4004 227.228 65.0928 226.999 65.0928 226.616C65.0928 226.309 65.3234 226.002 65.708 226.002H97.6225C97.9299 226.002 98.238 226.233 98.238 226.616C98.238 226.999 97.9299 227.228 97.6225 227.228Z" fill="#D9E5F1"/>
<path d="M97.6225 230.676H65.708C65.4004 230.676 65.0928 230.447 65.0928 230.064C65.0928 229.757 65.3234 229.451 65.708 229.451H97.6225C97.9299 229.451 98.238 229.68 98.238 230.064C98.238 230.447 97.9299 230.676 97.6225 230.676Z" fill="#D9E5F1"/>
<path d="M79.9349 234.048H65.708C65.4004 234.048 65.0928 233.818 65.0928 233.434C65.0928 233.128 65.3234 232.822 65.708 232.822H79.9349C80.2423 232.822 80.5504 233.051 80.5504 233.434C80.5504 233.818 80.2423 234.048 79.9349 234.048Z" fill="#D9E5F1"/>
<path d="M98.699 271.056H64.7077C63.7849 271.056 62.939 270.29 62.939 269.294V243.319C62.939 242.4 63.708 241.557 64.7077 241.557H98.699C99.6213 241.557 100.467 242.323 100.467 243.319V269.294C100.391 270.29 99.6213 271.056 98.699 271.056Z" fill="white"/>
<path d="M96.6225 264.926H67.0148C66.092 264.926 65.2461 264.16 65.2461 263.164V246.691C65.2461 245.771 66.0151 244.928 67.0148 244.928H96.6225C97.5454 244.928 98.3914 245.694 98.3914 246.691V263.164C98.3143 264.083 97.5454 264.926 96.6225 264.926Z" fill="#0064B7"/>
<path d="M97.6225 269.524H65.708C65.4004 269.524 65.0928 269.294 65.0928 268.911C65.0928 268.604 65.3234 268.298 65.708 268.298H97.6225C97.9299 268.298 98.238 268.528 98.238 268.911C98.238 269.217 97.9299 269.524 97.6225 269.524Z" fill="#D9E5F1"/>
<path d="M138.688 271.056H104.698C103.775 271.056 102.929 270.29 102.929 269.294V243.396C102.929 242.476 103.698 241.633 104.698 241.633H138.688C139.611 241.633 140.457 242.4 140.457 243.396V269.371C140.457 270.29 139.688 271.056 138.688 271.056Z" fill="white"/>
<path d="M136.612 264.926H107.004C106.081 264.926 105.235 264.16 105.235 263.164V246.691C105.235 245.771 106.004 244.928 107.004 244.928H136.612C137.535 244.928 138.381 245.694 138.381 246.691V263.164C138.304 264.16 137.535 264.926 136.612 264.926Z" fill="#DCE8F4"/>
<path d="M137.689 269.524H105.775C105.467 269.524 105.159 269.294 105.159 268.911C105.159 268.604 105.39 268.298 105.775 268.298H137.689C137.996 268.298 138.305 268.528 138.305 268.911C138.228 269.294 137.996 269.524 137.689 269.524Z" fill="#D9E5F1"/>
<path d="M138.303 238.262H104.389C103.467 238.262 102.621 237.496 102.621 236.5V200.564C102.621 199.644 103.39 198.802 104.389 198.802H138.38C139.303 198.802 140.149 199.568 140.149 200.564V236.5C140.072 237.496 139.303 238.262 138.303 238.262Z" fill="white"/>
<path d="M136.227 222.171H106.62C105.697 222.171 104.851 221.405 104.851 220.409V203.935C104.851 203.016 105.62 202.173 106.62 202.173H136.227C137.15 202.173 137.996 202.939 137.996 203.935V220.409C137.919 221.328 137.15 222.171 136.227 222.171Z" fill="#EE384E"/>
<path d="M137.304 227.305H105.389C105.082 227.305 104.774 227.075 104.774 226.692C104.774 226.385 105.005 226.079 105.389 226.079H137.304C137.612 226.079 137.919 226.309 137.919 226.692C137.842 227.075 137.612 227.305 137.304 227.305Z" fill="#D9E5F1"/>
<path d="M137.304 230.753H105.389C105.082 230.753 104.774 230.523 104.774 230.14C104.774 229.834 105.005 229.527 105.389 229.527H137.304C137.612 229.527 137.919 229.757 137.919 230.14C137.842 230.523 137.612 230.753 137.304 230.753Z" fill="#D9E5F1"/>
<path d="M119.616 234.125H105.389C105.082 234.125 104.774 233.894 104.774 233.511C104.774 233.205 105.005 232.899 105.389 232.899H119.616C119.924 232.899 120.232 233.128 120.232 233.511C120.155 233.894 119.924 234.125 119.616 234.125Z" fill="#D9E5F1"/>
<path d="M183.215 292.28L137.92 292.357C135.535 292.357 133.613 290.442 133.613 287.99L133.536 192.519C133.536 190.143 135.459 188.151 137.843 188.151L183.139 188.074C185.522 188.074 187.445 189.99 187.445 192.442L187.522 287.913C187.522 290.288 185.599 292.28 183.215 292.28Z" fill="#0064B7"/>
<path d="M179.139 286.381L141.842 286.457C139.457 286.457 137.535 284.542 137.535 282.09L137.458 197.805C137.458 195.43 139.381 193.438 141.765 193.438L178.986 193.361C181.369 193.361 183.292 195.277 183.292 197.729L183.369 282.013C183.446 284.389 181.524 286.304 179.139 286.381Z" fill="#E9EEF2"/>
<path d="M178.524 206.617L142.918 206.694C141.995 206.694 141.149 205.927 141.149 204.931V198.878C141.149 197.959 141.919 197.116 142.918 197.116L178.524 197.039C179.447 197.039 180.293 197.805 180.293 198.802V204.854C180.293 205.851 179.524 206.617 178.524 206.617Z" fill="white"/>
<path d="M145.917 205.314C147.786 205.314 149.301 203.771 149.301 201.867C149.301 199.962 147.786 198.419 145.917 198.419C144.048 198.419 142.533 199.962 142.533 201.867C142.533 203.771 144.048 205.314 145.917 205.314Z" fill="#EE384E"/>
<path d="M178.294 200.487H172.141C171.911 200.487 171.68 200.257 171.68 200.028C171.68 199.797 171.911 199.568 172.141 199.568H178.294C178.524 199.568 178.755 199.797 178.755 200.028C178.755 200.334 178.524 200.487 178.294 200.487Z" fill="#D0ECFB"/>
<path d="M178.294 202.249H172.141C171.911 202.249 171.68 202.02 171.68 201.79C171.68 201.56 171.911 201.33 172.141 201.33H178.294C178.524 201.33 178.755 201.56 178.755 201.79C178.755 202.02 178.524 202.249 178.294 202.249Z" fill="#D0ECFB"/>
<path d="M178.294 204.088H172.141C171.911 204.088 171.68 203.858 171.68 203.629C171.68 203.399 171.911 203.169 172.141 203.169H178.294C178.524 203.169 178.755 203.399 178.755 203.629C178.755 203.858 178.524 204.088 178.294 204.088Z" fill="#D0ECFB"/>
<path d="M178.601 242.63L142.995 242.707C142.073 242.707 141.227 241.94 141.227 240.944V212.21C141.227 211.291 141.995 210.448 142.995 210.448L178.601 210.371C179.524 210.371 180.37 211.138 180.37 212.134V240.867C180.293 241.864 179.524 242.63 178.601 242.63Z" fill="#FCFEFF"/>
<path d="M169.604 215.122H150.378C149.763 215.122 149.225 214.586 149.225 213.973C149.225 213.36 149.763 212.823 150.378 212.823H169.604C170.219 212.823 170.758 213.36 170.758 213.973C170.758 214.586 170.219 215.122 169.604 215.122Z" fill="#90D2F3"/>
<path d="M176.063 239.794H144.995C144.072 239.794 143.226 239.028 143.226 238.032V229.374C143.226 228.454 143.995 227.611 144.995 227.611H176.063C176.986 227.611 177.832 228.378 177.832 229.374V238.032C177.832 239.028 177.063 239.794 176.063 239.794Z" fill="#0064B7"/>
<path d="M174.294 218.877H145.918C145.225 218.877 144.688 218.34 144.688 217.651C144.688 216.961 145.225 216.425 145.918 216.425H174.294C174.987 216.425 175.525 216.961 175.525 217.651C175.525 218.34 174.987 218.877 174.294 218.877Z" fill="#ECF2F8"/>
<path d="M163.529 225.772H157.069C155.915 225.772 154.992 224.853 154.992 223.703C154.992 222.554 155.915 221.558 157.069 221.558H163.529C164.682 221.558 165.605 222.478 165.605 223.627C165.605 224.853 164.682 225.772 163.529 225.772Z" fill="#EE384E"/>
<path d="M180.293 286.381L141.304 286.457L141.227 248.07C141.227 247.15 141.995 246.307 142.995 246.307L178.524 246.231C179.447 246.231 180.293 246.997 180.293 247.993V286.381Z" fill="white"/>
<path d="M176.37 270.826H145.532C144.609 270.826 143.763 270.06 143.763 269.064V252.437C143.763 251.517 144.532 250.675 145.532 250.675H176.37C177.293 250.675 178.139 251.441 178.139 252.437V269.064C178.139 270.06 177.293 270.826 176.37 270.826Z" fill="#0064B7"/>
<path d="M177.216 276.726L144.686 276.803C144.148 276.803 143.763 276.42 143.763 275.883C143.763 275.347 144.148 274.964 144.686 274.964L177.216 274.888C177.755 274.888 178.139 275.271 178.139 275.807C178.139 276.343 177.678 276.726 177.216 276.726Z" fill="#DAE6F4"/>
<path d="M177.216 280.251L144.686 280.328C144.148 280.328 143.763 279.945 143.763 279.408C143.763 278.872 144.148 278.489 144.686 278.489L177.216 278.412C177.755 278.412 178.139 278.796 178.139 279.331C178.139 279.868 177.678 280.251 177.216 280.251Z" fill="#DAE6F4"/>
<path d="M158.837 284.005H144.609C144.148 284.005 143.763 283.622 143.763 283.163C143.763 282.703 144.148 282.32 144.609 282.32H158.837C159.297 282.32 159.682 282.703 159.682 283.163C159.682 283.622 159.297 284.005 158.837 284.005Z" fill="#DAE6F4"/>
<path d="M184.908 46.7061C184.908 46.7061 184.062 43.4113 186.292 43.258C188.523 43.1048 188.676 45.0203 188.676 46.6294C188.676 46.6294 187.907 46.8593 187.6 46.6294C187.369 46.3995 186.907 46.6294 186.677 46.6294C186.523 46.7827 185.139 47.0126 184.908 46.7061Z" fill="#FFBF9C"/>
<path d="M208.67 46.3996C208.67 46.3996 208.208 44.101 210.592 43.9477C212.976 43.7945 213.361 45.4035 213.514 46.5528C213.591 47.7022 213.438 48.2385 213.053 48.0853C212.592 47.932 212.592 47.6256 212.592 47.6256C212.592 47.6256 212.438 47.7788 212.207 47.932C211.976 48.0853 211.438 47.932 211.285 47.7788C211.208 47.6256 210.285 47.7788 210.208 47.932C210.054 48.1619 209.285 48.0087 209.131 47.7022C208.823 47.3957 208.67 46.3996 208.67 46.3996Z" fill="#FFBF9C"/>
<path d="M165.066 191.522H155.684C155.376 191.522 155.069 191.293 155.069 190.91C155.069 190.603 155.3 190.296 155.684 190.296H165.066C165.374 190.296 165.682 190.526 165.682 190.91C165.682 191.293 165.374 191.522 165.066 191.522Z" fill="white"/>
<path d="M73.4742 100.572C73.4742 100.572 68.2449 98.656 67.6297 103.636C67.6297 103.636 66.3224 107.238 64.9382 107.851C63.6308 108.464 60.2471 109.767 61.093 114.364C61.9389 119.038 63.1694 118.731 62.708 121.413C62.1696 124.095 63.477 124.401 65.3227 124.478C67.1683 124.555 67.7066 122.792 67.7066 122.792L67.1683 116.816L68.3988 107.161L72.3978 105.552C72.3978 105.552 74.4742 102.947 74.6282 101.951C74.7816 100.955 73.4742 100.572 73.4742 100.572Z" fill="#170856"/>
<path d="M72.7827 99.2693C72.7827 99.2693 71.9368 100.112 72.1672 100.265C72.3983 100.418 74.6286 101.644 74.6286 101.644C74.6286 101.644 75.3205 100.342 75.2435 99.9586C75.1665 99.5756 72.7827 99.2693 72.7827 99.2693Z" fill="#F05051"/>
<path d="M86.7019 92.7561C86.8553 92.7561 86.9323 92.8328 86.9323 92.9863C86.9323 94.1355 86.6249 99.6524 84.4716 101.721C84.4716 101.721 83.3182 103.253 81.1649 102.564C81.1649 102.564 79.1656 101.338 79.473 103.79C79.7804 106.242 78.7811 108.617 78.0115 108.924C77.2426 109.307 74.0129 108.387 73.244 107.008C72.7826 106.088 72.4751 105.629 72.3981 105.399C72.3211 105.322 72.3211 105.245 72.3981 105.093C72.8596 104.556 74.5514 102.487 75.3204 99.6524C76.2433 96.3577 75.7048 93.1391 78.7811 92.5265C81.3189 92.1435 85.702 92.6793 86.7019 92.7561Z" fill="#FFBE97"/>
<path d="M89.5471 92.5265C89.5471 92.4498 89.5471 92.4498 89.5471 92.373C89.5471 92.0667 89.5471 91.6837 89.5471 91.3767C89.4701 90.381 89.0856 89.3079 88.3167 88.6186C87.7012 88.082 86.9323 87.9292 86.2404 87.9292C86.0863 87.9292 85.933 87.8525 85.7789 87.7757C85.2404 87.1624 83.5485 85.4767 81.2418 85.4767C78.4729 85.4767 73.6284 87.0096 72.321 91.8365C72.244 92.1435 70.3981 99.7291 74.0899 99.9587C77.8581 100.188 79.3189 98.3497 79.2425 96.664C79.2425 96.664 77.3966 93.3694 80.5493 94.2122C80.5493 94.2122 83.7796 94.8248 86.0093 93.5222C86.3174 93.3694 86.6248 93.4454 86.7789 93.7524C87.2404 94.5185 88.0863 95.7444 88.9322 94.7481C89.2397 94.365 89.5471 93.982 89.6241 93.4461C89.7011 93.0624 89.6241 92.8328 89.5471 92.5265Z" fill="#170856"/>
<path d="M72.321 105.322C72.321 105.322 74.1669 108.31 76.7817 108.234C79.3959 108.234 79.5499 105.476 79.5499 105.476C79.5499 105.476 84.8566 110.302 84.7796 113.444C84.7026 116.586 83.7026 116.126 83.3952 117.122C83.0877 118.195 85.164 129.382 85.164 129.382L85.4715 130.071L70.4758 132.14C70.4758 132.14 69.8602 129.765 69.4758 128.999C69.0913 128.233 66.938 108.541 66.938 108.541L67.9377 107.468C67.8608 107.544 69.6298 105.476 72.321 105.322Z" fill="#DE051F"/>
<path d="M65.6308 117.275C65.6308 117.275 64.1696 107.544 67.9379 107.008C71.6292 106.548 71.7062 109.613 71.7832 114.134C71.9366 118.655 71.8602 119.651 71.8602 119.651L66.0153 120.724L65.6308 117.275Z" fill="#EE384E"/>
<path d="M71.7054 119.727C71.7824 119.727 71.8595 119.804 71.8595 119.881L72.1669 123.635C72.1669 124.171 72.2439 124.708 72.7824 124.478C73.0898 124.325 73.4743 124.171 73.9358 123.941C75.6276 123.022 80.6262 120.493 82.2411 119.804C82.5492 119.65 82.7025 119.421 82.8566 119.114C83.01 118.655 83.4714 117.965 84.3944 117.658C85.8559 117.275 88.3937 117.275 88.3937 117.505C88.4707 117.658 88.7781 118.884 88.6241 119.344C88.4707 119.727 87.3167 119.421 87.3167 119.421C87.3167 119.421 85.0099 119.038 85.7018 119.804C86.0863 120.264 86.6248 120.341 87.0092 120.341C87.1633 120.341 87.2396 120.493 87.0862 120.647C86.7788 120.876 86.2403 121.183 85.3174 121.336C83.6255 121.566 71.6284 129.458 71.6284 129.458C71.6284 129.458 69.3217 131.298 67.9374 126.47C66.9376 122.792 66.3993 121.49 66.2455 121.03C66.1686 120.953 66.2455 120.8 66.3993 120.8L71.7054 119.727Z" fill="#FEBD96"/>
<path d="M91.6233 124.938L84.7788 127.773L84.0869 123.482L86.8551 123.329L91.6233 124.938Z" fill="#FEBD96"/>
<path d="M96.3144 111.222L107.157 110.609L95.9299 124.784L85.5483 125.167L96.3144 111.222Z" fill="#0064B7"/>
<path d="M96.3914 123.788C96.3914 123.788 96.0069 121.183 96.8528 120.8C97.6988 120.417 98.3136 121.336 98.2366 121.796C98.1602 122.333 96.4684 124.095 96.4684 124.095L96.3914 123.788Z" fill="#FEBD96"/>
<path d="M85.3945 130.148L106.543 138.193C106.543 138.193 109.158 138.73 109.85 145.856C110.464 152.981 111.003 176.658 111.003 176.658V177.424L105.774 177.501L103.159 152.292L90.7005 137.121L80.5493 130.761L85.3945 130.148Z" fill="#003EB0"/>
<path d="M70.2445 131.757L80.4728 130.838L102.083 141.641C102.083 141.641 107.927 145.089 104.159 151.372C100.391 157.655 90.0084 176.734 90.0084 176.734L86.3943 174.053L95.6225 148.384C95.6225 148.384 95.8529 147.081 92.7773 146.852C89.9314 146.622 76.3201 145.319 74.5512 145.166C74.3972 145.166 74.2438 145.089 74.0898 145.089C73.0128 144.706 68.8601 142.638 70.1675 135.358L70.3216 132.293L70.2445 131.757Z" fill="#0064E1"/>
<path d="M111.003 177.501L115.617 180.029C115.848 180.182 116.079 180.259 116.387 180.336C116.848 180.412 117.77 180.642 117.77 181.331C117.77 181.331 117.925 182.175 115.694 181.945C113.464 181.715 106.466 181.791 106.466 181.791C106.466 181.791 105.543 181.562 105.697 179.57L105.851 177.577L111.003 177.501Z" fill="#130452"/>
<path d="M90.0084 176.734C90.0084 176.734 90.0855 177.961 91.2388 179.57C91.9307 180.489 92.6233 181.332 93.3151 182.251C93.4692 182.481 93.6996 182.634 93.8536 182.941C93.9307 183.094 94.007 183.324 94.007 183.477C94.007 183.63 94.007 183.86 93.7766 184.013C93.5456 184.167 93.1611 184.09 92.8537 184.013C92.7766 184.013 92.6996 183.937 92.6233 183.937C90.8544 183.324 85.4713 178.88 84.3173 177.961C84.1639 177.807 84.0869 177.654 84.0869 177.501C84.0869 177.118 84.1639 176.351 84.6254 175.815C85.3173 174.972 86.3936 174.129 86.3936 174.129L90.0084 176.734Z" fill="#130452"/>
<path d="M49.4046 225.007L44.0214 226.539L42.4834 221.099L47.9434 219.567L49.4046 225.007Z" fill="#EE384E"/>
<path d="M412.538 55.1344L407.078 56.6669L405.541 51.2267L411.001 49.6943L412.538 55.1344Z" fill="#003EB0"/>
<path d="M203.441 277.799L197.981 279.331L196.52 273.891L201.903 272.359L203.441 277.799Z" fill="#003EB0"/>
<path d="M201.057 95.5909C200.134 96.1275 199.519 97.1238 199.519 97.1238L191.52 110.992C191.52 110.992 191.136 111.835 191.213 112.601H200.211L205.517 103.407L201.057 95.5909Z" fill="#319F4F"/>
<path d="M209.823 95.5909C210.823 96.1275 211.438 97.1238 211.438 97.1238L219.436 110.992C219.743 111.528 219.82 112.142 219.82 112.601H210.823L205.517 103.407L209.823 95.5909Z" fill="#F5BC0F"/>
<path d="M215.284 120.417C214.361 120.876 213.361 120.876 213.361 120.876H197.288C196.596 120.876 196.289 120.8 195.904 120.57L200.134 112.601H210.747L215.284 120.417Z" fill="#3D80B9"/>
<path d="M215.284 120.417L210.747 112.601H219.744C219.744 113.061 219.59 113.444 219.59 113.597C219.59 113.674 219.513 113.751 219.513 113.827C219.513 113.904 219.436 113.98 219.359 114.057C219.359 114.057 217.437 117.428 216.437 119.114C216.284 119.344 216.207 119.497 216.13 119.574C216.207 119.574 215.822 120.187 215.284 120.417Z" fill="#E84335"/>
<path d="M191.213 112.601C191.213 112.601 191.29 113.214 191.521 113.827C191.751 114.44 194.597 119.114 194.828 119.574C195.212 119.957 195.828 120.493 195.904 120.57L200.134 112.601H191.213Z" fill="#1F64AB"/>
<path d="M200.98 95.6677C200.98 95.6677 201.364 95.3614 202.287 95.2846C202.364 95.2846 202.441 95.2846 202.441 95.2846C202.441 95.2846 206.44 95.2846 208.362 95.2846C208.439 95.2846 208.516 95.2846 208.516 95.2846C208.824 95.2846 209.516 95.3614 209.824 95.6677L205.363 103.407L200.98 95.6677Z" fill="#198038"/>
<path d="M38.023 158.345C42.8224 158.345 46.713 154.434 46.713 149.61C46.713 144.786 42.8224 140.875 38.023 140.875C33.2236 140.875 29.333 144.786 29.333 149.61C29.333 154.434 33.2236 158.345 38.023 158.345Z" fill="#FCBE42"/>
<path d="M34.9468 147.848L38.4074 153.058L41.0221 148.69" stroke="white" stroke-width="2" stroke-miterlimit="10"/>
<path d="M314.564 211.827L294.339 195.813C294.339 195.813 293.8 195.43 292.954 194.28C292.186 193.131 290.571 191.982 289.725 192.212L287.725 190.296C287.725 190.296 287.033 190.143 287.725 190.833C288.417 191.522 288.802 192.288 288.802 192.288C288.802 192.288 288.187 192.595 288.34 192.902C288.34 192.902 287.803 193.054 287.879 193.438C287.879 193.438 286.648 193.821 287.879 194.97C289.109 196.12 289.417 196.656 290.725 197.192C292.032 197.805 293.031 198.418 294.262 199.644C295.569 200.87 311.949 216.654 311.949 216.654L314.564 211.827Z" fill="#FFBE9B"/>
<path d="M324.024 207.843C324.024 207.843 328.638 207.766 329.33 202.556C330.022 197.346 326.562 195.583 324.562 194.511C322.562 193.438 321.332 193.591 320.486 192.135C319.64 190.679 319.256 190.296 319.256 190.296C319.256 190.296 315.487 194.204 318.102 197.652C320.793 201.177 324.024 207.843 324.024 207.843Z" fill="#180857"/>
<path d="M331.56 298.028C331.637 298.028 331.637 298.104 331.637 298.18C331.791 298.717 332.483 302.012 330.714 302.088C328.869 302.165 322.024 302.165 321.102 302.165C321.024 302.165 320.947 302.088 320.947 302.088C320.87 301.782 320.794 301.169 321.179 300.939C321.179 300.939 325.177 299.1 326.562 297.951C327.715 296.955 331.022 297.874 331.56 298.028Z" fill="#170856"/>
<path d="M314.257 297.568C314.334 297.568 314.334 297.644 314.334 297.721C314.488 298.334 315.18 302.012 313.411 302.088C311.566 302.165 303.183 302.088 302.106 302.088C302.029 302.088 301.952 302.012 301.952 301.935C301.875 301.705 301.799 301.092 302.491 300.786C302.491 300.786 307.105 298.947 309.258 297.644C311.181 296.418 313.795 297.338 314.257 297.568Z" fill="#170856"/>
<path d="M332.636 240.177L331.56 298.104L326.484 297.951L322.486 261.172L322.947 250.981L325.87 240.024L332.636 240.177Z" fill="#0064E1"/>
<path d="M327.254 240.101C327.254 240.101 322.486 264.697 321.024 267.608L314.334 297.568H309.258L312.412 239.948L327.254 240.101Z" fill="#003EB0"/>
<path d="M318.179 197.729C318.179 197.729 315.642 199.874 315.642 203.475C315.642 207.153 316.256 207.23 317.718 207.23C319.179 207.23 320.332 207.077 320.486 207.919C320.64 208.686 320.486 211.903 320.102 212.823C319.794 213.743 326.177 212.823 326.177 212.823C326.177 212.823 324.408 207.996 324.177 205.851C323.947 203.705 324.177 201.33 322.947 199.337C321.64 197.422 320.102 195.89 318.179 197.729Z" fill="#FFBE9B"/>
<path d="M319.487 213.972L314.334 211.137L311.489 216.808L317.256 221.711L319.487 213.972Z" fill="#F79F03"/>
<path d="M327.254 213.513C327.254 213.513 330.33 217.037 331.407 225.543C332.483 234.048 332.637 240.177 332.637 240.177H312.412C312.412 240.177 313.949 228.225 315.334 221.865C316.718 215.505 319.102 212.977 319.102 212.977C319.102 212.977 319.718 212.21 320.487 212.67C321.255 213.206 323.101 213.283 324.716 212.517C326.408 211.751 326.715 212.823 327.254 213.513Z" fill="#FCBE42"/>
<path d="M323.178 200.946C323.178 200.946 324.255 200.64 324.792 201.253C325.331 201.789 324.716 203.092 323.716 203.399C322.639 203.782 323.178 200.946 323.178 200.946Z" fill="#FFBE9B"/>
<path d="M320.332 224.01C320.332 224.01 318.025 240.101 316.795 244.468C315.564 248.836 313.795 252.974 313.795 252.974C313.795 252.974 313.026 254.966 313.795 255.732C314.564 256.498 316.487 257.341 316.872 255.962C317.256 254.583 317.256 251.671 317.718 251.058C318.179 250.445 322.562 240.254 324.024 234.125C325.484 228.071 325.715 225.313 325.715 225.313L320.332 224.01Z" fill="#FFBE9B"/>
<path d="M319.486 224.853C319.486 224.853 320.87 215.965 324.561 215.965C324.561 215.965 326.638 215.965 326.715 219.183C326.792 222.401 326.484 226.232 326.484 226.232L319.486 224.853Z" fill="#F79F03"/>
<path d="M373.472 243.472C373.472 243.472 376.394 242.246 376.164 238.875C375.933 235.503 374.241 233.051 377.779 234.048C381.393 235.044 382.623 235.503 385.161 234.891C387.776 234.354 389.929 233.282 388.776 236.653C387.623 240.024 386.392 242.859 389.083 243.472C391.775 244.009 394.62 241.94 395.005 247.303C395.389 252.59 391.083 258.567 384.162 258.797C377.24 259.026 374.241 256.115 374.241 256.115C374.241 256.115 372.396 253.51 375.241 252.82C378.163 252.207 381.086 250.982 379.624 249.602C378.163 248.223 373.318 248.146 373.318 248.146C373.318 248.146 367.474 246.997 373.472 243.472Z" fill="#649EEA"/>
<path d="M405.08 244.392C404.619 241.02 405.003 238.568 411.232 237.649C417.538 236.729 421.153 240.484 421.537 244.392C421.922 248.299 416.462 249.679 416.462 249.679C416.462 249.679 412.616 250.751 414.539 254.199C416.462 257.571 417.384 260.865 412.924 261.402C408.464 261.862 403.619 260.712 400.927 258.873C398.236 257.034 395.467 252.437 398.543 250.062C398.543 250.062 399.389 249.449 402.388 249.296C405.387 249.066 405.08 244.392 405.08 244.392Z" fill="#023EA1"/>
<path d="M383.009 243.856C383.009 243.856 388.238 255.656 388.93 263.7" stroke="#023EA1" stroke-miterlimit="10"/>
<path d="M411.924 245.771C411.924 245.771 402.695 259.486 400.542 264.084" stroke="#649EEA" stroke-miterlimit="10"/>
<path d="M385.7 262.781H406.848C406.848 262.781 409.155 262.934 409.001 266.152C408.847 269.064 405.156 268.451 403.234 268.451C401.311 268.451 385.315 268.451 385.315 268.451C385.315 268.451 382.7 268.911 382.7 265.923C382.623 262.934 383.623 262.781 385.7 262.781Z" fill="#0054A5"/>
<path d="M385.239 268.374L388.468 287.147H402.619L405.08 273.048L385.239 268.374Z" fill="#0054A5"/>
<path d="M385.239 268.374L405.08 273.048L405.849 268.374H385.239Z" fill="#006AD5"/>
<path d="M394.39 263.471C394.39 263.471 395.466 242.629 401.619 229.603" stroke="#FCBE42" stroke-miterlimit="10"/>
<path d="M406.694 222.094C406.694 222.094 407.233 228.454 401.004 230.983C401.004 230.983 399.619 225.466 406.694 222.094Z" fill="#FCBE42"/>
<path d="M397.389 242.4C397.389 242.4 399.696 236.959 406.694 237.649C406.694 237.725 406.156 243.089 397.389 242.4Z" fill="#FCBE42"/>
<path d="M395.082 256.115C395.082 256.115 396.235 250.292 403.31 249.679C403.31 249.679 403.772 255.119 395.082 256.115Z" fill="#FCBE42"/>
<path d="M394.851 256.191C394.851 256.191 395.697 250.292 389.237 247.303C389.237 247.303 386.931 252.284 394.851 256.191Z" fill="#FCBE42"/>
<path d="M397.466 242.4C397.466 242.4 399.004 236.653 393.006 232.899C393.006 232.899 390.083 237.496 397.466 242.4Z" fill="#FCBE42"/>
</g>
<defs>
<clipPath id="clip0_3375_6170">
<rect width="439.095" height="305" fill="white" transform="translate(3)"/>
</clipPath>
</defs>
</svg>
