<svg width="445" height="305" viewBox="0 0 445 305" fill="none" xmlns="http://www.w3.org/2000/svg">
<g clip-path="url(#clip0_3375_6171)">
<path d="M122.601 132.693C92.5423 114.321 83.0062 75.0378 101.355 44.82C119.704 14.6023 158.936 5.1746 189.115 23.5467" stroke="#2626DB" stroke-width="1.66312" stroke-miterlimit="10" stroke-dasharray="9.98 9.98"/>
<path d="M109.978 57.6004C113.658 51.5594 111.798 43.703 105.821 40.0524C99.8456 36.4019 92.0174 38.3402 88.3367 44.3811C84.6559 50.422 86.517 58.2777 92.4936 61.9283C98.4694 65.5789 106.298 63.6413 109.978 57.6004Z" fill="#FCBE42"/>
<path d="M94.7148 46.6334L96.0424 56.3031L103.044 50.5013" stroke="white" stroke-width="1.66312" stroke-miterlimit="10"/>
<path d="M323.226 132.693C353.285 114.321 362.821 75.0378 344.472 44.82C326.123 14.6023 286.89 5.1746 256.711 23.5467" stroke="#2626DB" stroke-width="1.66312" stroke-miterlimit="10" stroke-dasharray="9.98 9.98"/>
<path d="M182.229 97.2087C181.384 98.6593 180.297 99.8679 179.09 100.956L180.177 105.307L173.658 108.812L170.761 105.307C169.192 105.67 167.502 105.911 165.932 105.67L163.639 109.658L156.517 107.362L156.879 102.89C155.43 102.043 154.223 100.956 153.137 99.7466L148.67 100.956L145.169 94.3074L148.67 91.4068C148.308 89.8356 148.067 88.1429 148.308 86.5716L144.445 84.1544L146.618 77.1439L151.085 77.5066C151.929 76.0559 153.016 74.8473 154.223 73.7593L153.016 69.2875L159.535 65.7823L162.432 69.2875C164.001 68.9249 165.691 68.6828 167.261 68.9249L169.675 64.9356L176.676 67.1116L176.314 71.5841C177.763 72.4301 178.97 73.5181 180.057 74.7267L184.523 73.5181L188.023 80.0452L184.523 82.9458C184.885 84.517 185.127 86.209 184.885 87.781L188.868 90.0768L186.696 97.45L182.229 97.2087ZM174.262 90.0768C175.71 85.847 173.176 81.4951 169.192 80.0452C164.967 78.5946 160.621 81.1325 159.173 85.1217C157.724 89.3522 160.258 93.7034 164.243 95.1541C168.347 96.604 173.055 94.1867 174.262 90.0768Z" stroke="#023EA1" stroke-width="1.66312" stroke-miterlimit="10"/>
<path d="M250.482 121.534L249.154 119.963L253.017 117.908L235.151 111.985L241.066 129.391L243.239 126.369C243.239 126.369 254.828 146.917 243.239 159.246C231.771 171.454 218.13 168.915 218.13 168.915L220.786 177.377C220.786 177.377 242.152 178.948 253.621 159.608C265.089 140.148 250.482 121.534 250.482 121.534Z" fill="#0064E1"/>
<path d="M196.642 164.322L197.97 165.894L194.107 167.949L211.973 173.871L206.058 156.466L203.885 159.488C203.885 159.488 192.296 138.94 203.885 126.611C215.353 114.403 228.994 116.941 228.994 116.941L226.338 108.48C226.338 108.48 204.971 106.909 193.504 126.248C182.035 145.588 196.642 164.322 196.642 164.322Z" fill="#0064E1"/>
<path fill-rule="evenodd" clip-rule="evenodd" d="M233.823 132.775C234.668 133.621 235.392 134.709 235.996 135.918H239.497L240.824 141.357L237.686 142.928C237.686 144.137 237.445 145.346 237.083 146.676L239.617 149.213L236.479 154.169L233.22 152.961C232.375 153.807 231.288 154.532 230.081 155.137V158.642L224.649 159.971L223.08 156.829C221.872 156.829 220.665 156.587 219.337 156.224L216.923 158.642L211.974 155.499L213.181 152.235C212.336 151.389 211.611 150.301 211.007 149.093H207.507L206.179 143.654L209.438 142.082C209.438 140.874 209.68 139.665 210.042 138.335L207.628 135.918L210.767 130.962L214.026 132.171C214.87 131.325 215.957 130.599 217.164 129.995V126.49L222.596 125.16L224.166 128.424C225.373 128.424 226.58 128.665 227.908 129.028L230.322 126.611L235.272 129.753L233.823 132.775ZM226.821 137.247C224.045 135.435 220.303 136.401 218.492 139.181C216.681 141.962 217.647 145.708 220.424 147.522C223.2 149.335 226.943 148.367 228.753 145.588C230.564 142.928 229.839 139.06 226.821 137.247Z" fill="#023EA1"/>
<path d="M150.239 93.3406C148.79 91.1647 146.376 89.7141 143.479 89.7141H87.3459C82.8798 89.7141 79.2578 93.3406 79.2578 97.8125V101.802V161.512C79.2578 163.688 80.1034 165.622 81.431 166.951C82.8798 169.127 85.2939 170.577 88.1915 170.577H144.324C148.79 170.577 152.412 166.951 152.412 162.478V98.7798C152.412 96.7252 151.568 94.7913 150.239 93.3406Z" fill="#C3C4CA"/>
<path d="M155.672 160.787C155.672 165.259 152.051 168.885 147.584 168.885H91.4513C86.9852 168.885 83.3633 165.259 83.3633 160.787V96.9665C83.3633 92.4946 86.9852 88.868 91.4513 88.868H147.584C152.051 88.868 155.672 92.4946 155.672 96.9665V160.787Z" fill="#CBCDD2"/>
<path d="M154.827 159.699C154.827 164.171 151.205 167.797 146.739 167.797H90.6061C86.1393 167.797 82.5181 164.171 82.5181 159.699V96C82.5181 91.5274 86.1393 87.9016 90.6061 87.9016H146.859C151.326 87.9016 154.948 91.5274 154.948 96L154.827 159.699Z" fill="white"/>
<path d="M154.827 99.9885V96C154.827 91.5274 151.205 87.9016 146.739 87.9016H90.6061C86.1393 87.9016 82.5181 91.5274 82.5181 96V99.9885H154.827Z" fill="#0064B5"/>
<path d="M139.376 96.6038C139.376 96.9665 139.134 97.2085 138.772 97.2085H134.426C134.064 97.2085 133.822 96.9665 133.822 96.6038V92.2527C133.822 91.89 134.064 91.648 134.426 91.648H138.772C139.134 91.648 139.376 91.89 139.376 92.2527V96.6038Z" fill="white"/>
<path d="M147.705 96.6038C147.705 96.9665 147.464 97.2085 147.101 97.2085H142.755C142.393 97.2085 142.152 96.9665 142.152 96.6038V92.2527C142.152 91.89 142.393 91.648 142.755 91.648H147.101C147.464 91.648 147.705 91.89 147.705 92.2527V96.6038Z" fill="white"/>
<path d="M129.839 94.4288C129.839 96.0001 128.511 97.3294 126.942 97.3294H89.8819C88.3127 97.3294 86.9844 96.0001 86.9844 94.4288C86.9844 92.8575 88.3127 91.5275 89.8819 91.5275H126.942C128.632 91.5275 129.839 92.8575 129.839 94.4288Z" fill="white"/>
<path d="M122.837 124.767C122.837 134.316 115.111 142.172 105.454 142.172C95.9171 142.172 88.0708 134.437 88.0708 124.767C88.0708 115.218 95.7967 107.362 105.454 107.362C114.991 107.362 122.837 115.218 122.837 124.767Z" fill="#E9EEF2"/>
<path d="M120.061 133.349C117.405 138.547 111.973 142.052 105.695 142.052C99.4177 142.052 93.2611 138.547 90.3643 133.349C94.3477 130.569 99.9003 128.877 105.212 128.877C110.765 128.997 115.835 130.569 120.061 133.349Z" fill="#EE384E"/>
<path d="M110.532 125.279C113.337 122.422 113.182 117.716 110.186 114.768C107.192 111.819 102.49 111.745 99.6856 114.601C96.881 117.457 97.0356 122.163 100.03 125.111C103.026 128.06 107.727 128.135 110.532 125.279Z" fill="#EE384E"/>
<path d="M148.912 108.691H125.614V113.043H148.912V108.691Z" fill="#DBE9F8"/>
<path d="M148.912 116.185H125.614V118.36H148.912V116.185Z" fill="#DBE9F8"/>
<path d="M148.912 122.954H142.273H125.614V120.778H148.912V122.954Z" fill="#DBE9F8"/>
<path d="M148.912 125.25H125.614V127.426H148.912V125.25Z" fill="#DBE9F8"/>
<path d="M148.912 129.723H125.614V131.898H148.912V129.723Z" fill="#DBE9F8"/>
<path d="M148.912 134.316H125.614V136.491H148.912V134.316Z" fill="#DBE9F8"/>
<path d="M148.912 138.788H125.614V140.964H148.912V138.788Z" fill="#DBE9F8"/>
<path d="M149.032 147.974H91.3301V150.15H149.032V147.974Z" fill="#DBE9F8"/>
<path d="M149.032 153.534H91.3301V155.71H149.032V153.534Z" fill="#DBE9F8"/>
<path d="M62.9617 66.9906C61.7539 65.1773 59.7019 63.9687 57.4083 63.9687H11.0534C7.31126 63.9687 4.41406 66.9906 4.41406 70.6164V74.001V123.438C4.41406 125.25 5.13831 126.821 6.22475 128.031C7.43196 129.843 9.48413 131.052 11.7777 131.052H58.1327C61.8751 131.052 64.7719 128.031 64.7719 124.404V71.4624C64.7719 69.7705 64.0475 68.0786 62.9617 66.9906Z" fill="#D7D9DD"/>
<path d="M67.3075 121.625C67.3075 125.372 64.2895 128.272 60.6682 128.272H14.3132C10.571 128.272 7.67383 125.25 7.67383 121.625V68.8034C7.67383 65.0569 10.6917 62.1557 14.3132 62.1557H60.6682C64.4107 62.1557 67.3075 65.1776 67.3075 68.8034V121.625Z" fill="#CBCDD2"/>
<path d="M66.7044 120.779C66.7044 124.525 63.6864 127.426 60.0644 127.426H13.7097C9.9675 127.426 7.07031 124.404 7.07031 120.779V67.9574C7.07031 64.2109 10.0882 61.3096 13.7097 61.3096H60.0644C63.8069 61.3096 66.7044 64.3316 66.7044 67.9574V120.779Z" fill="white"/>
<path d="M66.7044 71.342V67.9574C66.7044 64.2109 63.6864 61.3096 60.0644 61.3096H13.7097C9.9675 61.3096 7.07031 64.3316 7.07031 67.9574V71.342H66.7044Z" fill="#0064B5"/>
<path d="M53.908 68.562C53.908 68.8033 53.6671 69.1659 53.3049 69.1659H49.6832C49.4417 69.1659 49.0796 68.9246 49.0796 68.562V64.9354C49.0796 64.6941 49.321 64.3314 49.6832 64.3314H53.3049C53.5458 64.3314 53.908 64.5734 53.908 64.9354V68.562Z" fill="white"/>
<path d="M60.7887 68.562C60.7887 68.8033 60.5478 69.1659 60.1856 69.1659H56.5636C56.3226 69.1659 55.9604 68.9246 55.9604 68.562V64.9354C55.9604 64.6941 56.2014 64.3314 56.5636 64.3314H60.1856C60.4265 64.3314 60.7887 64.5734 60.7887 64.9354V68.562Z" fill="white"/>
<path d="M46.0622 66.7487C46.0622 68.0787 44.9758 69.1659 43.6479 69.1659H13.1067C11.7788 69.1659 10.6924 68.0787 10.6924 66.7487C10.6924 65.4194 11.7788 64.3314 13.1067 64.3314H43.6479C44.9758 64.3314 46.0622 65.4194 46.0622 66.7487Z" fill="white"/>
<path d="M40.1469 91.7696C40.1469 99.7466 33.749 106.153 25.7818 106.153C17.8145 106.153 11.4165 99.7466 11.4165 91.7696C11.4165 83.7918 17.8145 77.386 25.7818 77.386C33.749 77.5067 40.1469 83.9124 40.1469 91.7696Z" fill="#E9EEF2"/>
<path d="M38.0942 99.6256C35.9213 103.856 31.4548 106.878 26.264 106.878C21.0732 106.878 16.0031 103.977 13.7095 99.7463C16.9688 97.4497 21.556 96.1204 25.9019 96.1204C30.3683 95.9998 34.4727 97.329 38.0942 99.6256Z" fill="#0064E1"/>
<path d="M30.2593 93.0224C32.5964 90.6423 32.4869 86.7402 30.0147 84.3063C27.5425 81.8723 23.6438 81.8294 21.3067 84.2096C18.9696 86.5898 19.0791 90.4918 21.5513 92.9258C24.0235 95.359 27.9222 95.4026 30.2593 93.0224Z" fill="#0064E1"/>
<path d="M61.7548 78.4729H42.5605V82.0995H61.7548V78.4729Z" fill="#DBE9F8"/>
<path d="M61.7548 84.7589H42.5605V86.5714H61.7548V84.7589Z" fill="#DBE9F8"/>
<path d="M61.7548 88.5052H42.5605V90.3185H61.7548V88.5052Z" fill="#DBE9F8"/>
<path d="M61.7548 92.2526H42.5605V94.0659H61.7548V92.2526Z" fill="#DBE9F8"/>
<path d="M61.7548 96H42.5605V97.8125H61.7548V96Z" fill="#DBE9F8"/>
<path d="M61.7548 99.7464H42.5605V101.56H61.7548V99.7464Z" fill="#DBE9F8"/>
<path d="M61.7548 103.373H42.5605V105.185H61.7548V103.373Z" fill="#DBE9F8"/>
<path d="M61.7549 111.109H14.0718V112.921H61.7549V111.109Z" fill="#DBE9F8"/>
<path d="M61.7549 115.58H14.0718V117.394H61.7549V115.58Z" fill="#DBE9F8"/>
<path d="M289.963 109.837C289.315 110.809 288.668 111.674 287.804 112.431L288.56 115.456L284.027 117.834L281.976 115.456C281.005 115.672 279.818 115.781 278.631 115.781L277.012 118.482L272.156 116.969L272.479 113.835C271.508 113.187 270.645 112.538 269.89 111.674L266.976 112.431L264.602 108L266.976 106.055C266.76 105.082 266.652 103.894 266.652 102.705L263.954 101.084L265.465 96.2216L268.595 96.5458C269.242 95.5733 269.89 94.7092 270.753 93.9526L269.998 90.9271L274.422 88.5498L276.365 90.9271C277.336 90.7105 278.523 90.6029 279.71 90.6029L281.329 87.9016L286.185 89.414L285.862 92.5478C286.833 93.1961 287.696 93.8444 288.451 94.7092L291.473 93.9526L293.847 98.3831L291.473 100.328C291.689 101.3 291.797 102.489 291.797 103.678L294.495 105.299L292.984 110.161L289.963 109.837ZM284.35 104.974C285.322 102.057 283.596 99.1396 280.681 98.1672C277.768 97.1941 274.854 98.923 273.882 101.841C272.911 104.758 274.638 107.676 277.552 108.649C280.466 109.405 283.487 107.784 284.35 104.974Z" stroke="#DE051F" stroke-width="1.48682" stroke-miterlimit="10"/>
<path d="M143.467 177.215C143.467 177.215 139.169 237.192 138.554 247.828C137.926 258.465 135.668 294.291 135.668 294.291H125.13L118.02 176.55L143.467 177.215Z" fill="#DE051F"/>
<path d="M103.8 177.844C103.8 177.844 105.043 208.062 105.598 215.725C106.141 223.388 100.13 249.581 96.7018 261.221C93.2613 272.872 88.4199 285.77 88.4199 285.77L96.7018 290.544C96.7018 290.544 114.579 258.489 120.99 239.572C127.387 220.656 132.155 192.348 131.371 176.405L103.8 177.844Z" fill="#EE384E"/>
<path d="M148.657 134.934L156.697 145.643C156.697 145.643 157.325 146.502 158.81 146.115C160.295 145.728 175.758 140.095 175.758 140.095C175.758 140.095 177.919 139.129 178.486 137.412C179.054 135.696 179.32 135.272 179.657 134.801C179.995 134.33 180.491 134.39 180.201 133.242C179.911 132.093 179.754 131.623 179.754 131.623C179.754 131.623 179.416 130.812 180.092 130.812C180.768 130.812 181.492 130.97 181.867 131.756C182.229 132.541 182.132 134.439 182.132 134.439L185.44 134.572C185.44 134.572 187.468 134.644 187.468 136.759C187.468 138.875 187.468 142.416 187.468 142.416C187.468 142.416 187.758 143.516 186.273 143.516C184.787 143.516 183.231 143.467 183.231 143.467C183.231 143.467 181.987 143.334 179.947 144.821C177.907 146.308 162.407 155.192 162.407 155.192C162.407 155.192 157.047 158.395 153.534 155.035C150.022 151.675 142.296 143.359 142.296 143.359L141.909 140.724L148.657 134.934Z" fill="#FFBF99"/>
<path d="M122.788 106.252C122.788 106.252 121.835 111.05 119.915 115.849C117.996 120.648 117.042 122.569 117.042 122.569C117.042 122.569 122.788 129.29 128.547 128.323C134.292 127.368 134.292 123.524 134.292 123.524C134.292 123.524 129.017 119.209 129.017 113.443C129.017 107.678 129.017 107.69 129.017 107.69L122.788 106.252Z" fill="#FFB48F"/>
<path d="M135.463 122.424C135.463 122.424 140.232 125.083 142.211 126.763C144.203 128.444 149.937 135.055 149.937 135.055L142.091 142.682L136.622 136.469L135.463 122.424Z" fill="#0064B7"/>
<path d="M119.468 120.176C119.468 120.176 122.341 124.02 126.18 124.975C130.019 125.929 131.926 123.052 131.926 123.052L132.976 121.675C132.976 121.675 134.038 120.841 135.21 121.82C136.381 122.786 138.614 125.276 140.557 129.29C142.501 133.303 143.068 138.79 143.479 151.615C143.889 164.439 143.479 178.278 143.479 178.278H103.835L103.364 158.347C103.364 158.347 107.578 131.84 111.718 126.449C115.859 121.058 117.066 119.886 117.066 119.886C117.066 119.886 118.02 118.581 119.468 120.176Z" fill="#0083F9"/>
<path d="M134.776 93.2942C134.776 93.2942 137.649 97.1381 137.649 103.859C137.649 110.579 136.695 115.377 133.811 115.377C130.926 115.377 125.179 113.456 124.225 111.534C123.272 109.612 121.353 109.612 121.353 105.78C121.353 101.949 126.145 93.3065 129.984 93.3065C133.822 93.3065 134.776 93.2942 134.776 93.2942Z" fill="#FFBF99"/>
<path d="M137.648 93.294C137.648 93.294 140.521 85.6186 138.602 84.652C136.683 83.697 132.856 85.607 131.89 86.5736C130.937 87.5286 129.017 87.5286 128.051 87.5286C128.051 87.5286 118.467 87.5286 116.548 89.4501C114.628 91.3725 114.628 92.3274 114.628 93.294C114.628 94.249 114.616 98.0203 113.674 100.015C113.264 100.885 112.721 104.813 114.628 108.657C116.535 112.5 118.467 113.455 119.42 113.455C120.374 113.455 121.243 113.455 121.34 112.5C121.448 111.461 121.822 109.998 122.293 108.657C122.752 107.375 123.247 104.813 123.247 104.813C123.247 104.813 124.201 100.015 126.12 98.0929C128.04 96.1706 128.04 96.1706 131.866 95.2156C135.729 94.2614 136.695 96.1706 137.648 93.294Z" fill="#170856"/>
<path d="M124.72 100.304C126.145 101.937 124.225 104.813 124.225 104.813C124.225 104.813 121.353 105.768 121.353 102.891C121.353 100.014 123.296 98.6604 124.72 100.304Z" fill="#FFBF99"/>
<path d="M105.527 140.7C105.527 140.7 101.929 154.564 102.556 163.242C103.184 171.921 105.756 179.439 107.626 184.673C109.498 189.907 110.597 191.163 110.669 194.451C110.741 197.739 112.274 201.643 114.182 203.601C116.089 205.559 117.622 206.538 117.622 206.538C117.622 206.538 119.892 207.59 119.53 205.487C119.53 205.487 121.05 205.608 120.471 204.435C120.471 204.435 122.499 204.471 121.014 202.876C119.53 201.268 116.801 199.709 116.801 199.709C116.801 199.709 115.244 197.207 117.465 198.464C119.686 199.709 121.642 199.757 119.577 197.727C117.513 195.696 115.123 192.142 113.373 185.652C111.622 179.161 109.546 166.337 112.021 156.485C114.496 146.635 117.622 143.347 117.622 143.347L105.527 140.7Z" fill="#FFBF99"/>
<path d="M97.0524 289.903C97.0524 289.903 98.9592 295.27 101.072 297.736C103.184 300.202 104.862 302.003 104.862 302.003C104.862 302.003 107.325 305.955 104.549 304.783C101.772 303.61 86.429 293.287 86.429 293.287C86.429 293.287 84.2442 292.151 85.2582 290.278C86.2722 288.404 88.8432 284.791 88.8432 284.791L97.0524 289.903Z" fill="#170856"/>
<path d="M125.227 301.87C125.227 301.87 124.659 303.429 127.882 303.429C131.105 303.429 148.657 303.429 148.657 303.429C148.657 303.429 152.038 302.752 148.923 301.241C145.796 299.73 136.429 295.512 136.429 295.512C136.429 295.512 135.716 295.318 135.729 293.517H125.094L125.227 301.87Z" fill="#170856"/>
<path d="M120.543 131.466C120.543 131.466 121.219 125.023 116.535 124.407C111.852 123.79 108.882 130.039 107.325 134.1C105.767 138.161 104.982 141.135 104.982 141.135C104.982 141.135 115.051 145.197 117.706 145.197C117.706 145.197 119.939 138.451 120.543 131.466Z" fill="#0064B7"/>
<path d="M254.22 61.2449L254.215 61.2478L226.459 77.3378L226.456 77.3393C224.367 78.5007 221.57 78.5007 219.48 77.3393L219.478 77.3378L191.722 61.2478L191.717 61.2449C189.633 60.0857 188.236 57.7608 188.236 55.1982V23.0123C188.236 20.4497 189.633 18.1241 191.717 16.9649L191.722 16.962L219.48 0.870492C221.57 -0.290164 224.367 -0.290164 226.456 0.870492L226.459 0.871944L254.215 16.962L254.22 16.9649C256.304 18.1241 257.701 20.4497 257.701 23.0123V55.1982C257.701 57.7608 256.304 60.0857 254.22 61.2449Z" fill="white" stroke="#D5D5D5" stroke-width="0.920017"/>
<path d="M223.362 39.3049L247.957 24.9192L223.362 11.7522V39.3049Z" fill="#0A489B"/>
<path d="M223.363 66.3706L198.768 52.716V24.9192L223.363 11.7522V66.3706Z" fill="#0F68DE"/>
<path d="M223.363 39.3049L198.768 24.9192L223.363 11.7522V39.3049Z" fill="#0F68DE"/>
<path d="M223.363 67.1018L198.768 52.7154L223.363 39.305V67.1018Z" fill="#3F86E4"/>
<path d="M303.427 161.614H297.116L290.063 161.056C290.063 161.056 289.321 165.33 293.219 165.888C297.302 166.445 303.242 167.189 304.169 167.003C305.469 166.631 303.427 161.614 303.427 161.614Z" fill="#EEBD9B"/>
<path d="M307.882 130.95C307.882 130.95 301.385 137.639 300.457 141.171C299.529 144.702 301.571 150.091 302.313 151.578C302.87 153.065 302.499 172.95 302.499 172.95H328.483V130.763L307.882 130.95Z" fill="#0064E1"/>
<path d="M292.662 111.064C292.662 111.064 293.218 116.082 294.332 119.427V122.029C294.332 122.401 294.518 122.587 294.889 122.587L296.559 122.401V124.445C296.559 124.631 296.744 125.003 296.93 125.003H298.23C298.415 125.003 298.6 125.189 298.6 125.56L298.415 126.49C298.415 126.675 298.415 127.047 298.786 127.047C299.715 127.232 301.756 127.418 304.169 125.746C306.768 123.888 308.252 125.003 308.252 126.49C308.252 128.162 306.953 132.993 308.994 133.923C310.85 134.852 316.233 134.294 317.347 133.366C318.646 132.065 317.347 128.905 315.491 127.232C314.192 125.931 312.336 111.622 309.366 110.135C306.396 108.649 292.662 111.064 292.662 111.064Z" fill="#EDBB98"/>
<path d="M322.544 151.206L322.73 160.126C322.73 160.87 322.173 161.427 321.431 161.427C320.688 161.427 319.947 161.427 318.09 160.684C314.007 159.012 304.17 153.622 302.87 152.878C302.87 152.878 302.685 152.878 302.685 152.693C302.5 152.135 301.2 150.463 298.231 150.463C294.704 150.649 293.776 151.392 294.147 152.693C294.333 153.808 294.704 153.622 294.704 153.622L294.333 154.179C294.333 154.179 294.704 155.294 296.375 155.294C297.859 155.294 299.715 154.551 300.272 155.109C300.644 155.48 316.234 165.888 319.761 168.303C320.317 168.675 320.874 168.861 321.431 169.047C323.659 169.604 329.226 170.348 329.969 166.445C331.082 161.799 331.082 151.02 331.082 151.02L322.544 151.206Z" fill="#EEBD9B"/>
<path d="M322.543 135.595C322.172 135.41 321.616 135.595 321.616 136.152V152.135C321.616 152.507 321.802 152.878 322.358 152.878C322.915 152.878 323.843 152.878 325.699 152.878C328.483 152.878 330.896 152.878 332.01 152.878C332.381 152.878 332.566 152.692 332.566 152.321L332.381 141.171C332.381 140.985 332.195 140.799 332.01 140.613L322.543 135.595Z" fill="#0054A3"/>
<path d="M341.29 142.657C342.404 137.64 333.866 130.763 333.866 130.763C333.866 130.763 329.598 129.091 328.855 124.073C328.113 119.055 323.287 117.569 321.245 115.71C319.018 113.852 317.719 109.763 317.719 109.763L317.534 108.649C317.534 108.649 314.192 93.2235 302.128 96.9402C302.128 96.9402 296.56 98.9846 294.333 103.259C294.333 103.259 286.352 104.56 288.022 110.692C289.692 116.825 293.404 113.109 293.404 113.109C293.404 113.109 295.075 109.763 296.745 112.179C298.416 114.41 302.499 115.896 303.798 113.852C305.098 111.808 307.51 110.135 308.253 113.48V115.152C308.253 115.152 314.378 122.587 314.935 125.374C315.492 128.162 317.162 131.878 320.132 133.551C322.916 135.224 326.257 142.1 327.556 145.816C328.669 149.348 339.62 149.905 341.29 142.657Z" fill="#1B1553"/>
<path d="M280.04 142.843L264.264 143.215L283.753 164.958L300.086 164.401L280.04 142.843Z" fill="#18114F"/>
<path d="M279.114 158.826C279.114 158.826 277.443 161.799 278.929 162.728C280.414 163.472 281.898 163.843 282.455 163.1C283.012 162.356 283.569 159.94 282.64 160.127C281.898 160.127 281.527 160.313 281.527 160.313V159.569C281.527 159.383 281.527 159.197 281.341 159.012C280.599 158.454 279.485 157.896 279.114 158.826Z" fill="#EEBD9B"/>
<path d="M307.14 172.95L302.5 172.764L302.314 297.092H312.337L317.719 215.88L307.14 172.95Z" fill="#DE051F"/>
<path d="M328.485 172.95C328.485 172.95 328.67 177.224 328.855 178.897C329.041 179.826 334.981 189.676 330.341 201.569C330.341 201.756 330.155 201.941 330.155 202.313C329.969 204.915 329.412 221.083 332.753 229.632L350.385 286.685L343.704 291.517C343.704 291.517 320.689 241.897 319.947 239.667C319.39 237.437 304.541 188.746 306.397 175.18L306.769 172.764L328.485 172.95Z" fill="#EE384E"/>
<path d="M302.313 297.092C302.313 297.092 296.374 300.438 293.59 301.181C291.548 301.738 290.991 303.411 290.991 303.969C290.991 304.154 290.991 304.34 291.362 304.34H312.335V297.092H302.313Z" fill="#201B56"/>
<path d="M343.703 291.517C343.703 291.517 341.847 296.535 338.135 299.508C334.423 302.482 338.135 304.34 338.135 304.34L353.54 294.676C353.726 294.305 354.468 292.632 353.54 291.145C352.612 289.287 350.014 286.685 350.014 286.685L343.703 291.517Z" fill="#201B56"/>
<path d="M339.763 51.6401H406.642C408.507 51.6401 410.021 53.1562 410.021 55.024V81.8586C410.021 83.7271 408.507 85.2424 406.642 85.2424H336.384V55.024C336.384 53.1562 337.897 51.6401 339.763 51.6401Z" fill="#B0E6FF"/>
<path d="M352.148 78.7921C357.52 78.7921 361.875 74.4315 361.875 69.0519C361.875 63.6731 357.52 59.3124 352.148 59.3124C346.776 59.3124 342.42 63.6731 342.42 69.0519C342.42 74.4315 346.776 78.7921 352.148 78.7921Z" fill="#0064B7"/>
<mask id="mask0_3375_6171" style="mask-type:alpha" maskUnits="userSpaceOnUse" x="342" y="59" width="20" height="20">
<path d="M352.148 78.7921C357.52 78.7921 361.875 74.4315 361.875 69.0519C361.875 63.6731 357.52 59.3124 352.148 59.3124C346.776 59.3124 342.42 63.6731 342.42 69.0519C342.42 74.4315 346.776 78.7921 352.148 78.7921Z" fill="#0064B7"/>
</mask>
<g mask="url(#mask0_3375_6171)">
<path d="M349.49 65.5917C349.496 65.5976 349.502 65.6099 349.508 65.6215C349.649 65.5212 349.813 65.4333 349.995 65.357C350.048 65.3396 350.101 65.3156 350.16 65.2981H350.166C350.212 65.2865 350.265 65.2632 350.312 65.2516C350.324 65.2451 350.341 65.2451 350.353 65.2393C350.406 65.2276 350.459 65.2102 350.518 65.1986C350.523 65.1986 350.523 65.1986 350.529 65.1986C350.582 65.1869 350.647 65.1688 350.699 65.163C350.717 65.1571 350.746 65.1571 350.769 65.1513C350.811 65.1455 350.846 65.1397 350.887 65.1339C350.916 65.1281 350.94 65.1281 350.963 65.1223C351.016 65.1164 351.081 65.1106 351.134 65.1041C351.169 65.1041 351.21 65.0983 351.239 65.0983C351.268 65.0983 351.292 65.0925 351.321 65.0925C351.362 65.0925 351.409 65.0866 351.45 65.0866C351.462 65.0866 351.479 65.0866 351.497 65.0866C351.544 65.0866 351.591 65.0866 351.644 65.0866C351.773 65.0866 351.89 65.0924 352.008 65.0983C352.008 65.0983 352.008 65.0983 352.014 65.0983C354.407 65.2393 354.883 66.8142 354.906 68.3884C355.158 68.4414 355.452 68.5701 355.481 68.9109C355.551 69.7809 355.352 69.5636 354.83 70.6087C354.742 70.7911 354.613 70.8383 354.484 70.826C354.202 71.4314 353.721 71.8485 352.723 72.536L352.9 74.7622C353.574 74.539 353.756 74.6212 353.955 74.7091C355.264 75.2971 356.866 75.2971 356.156 75.4315C355.199 75.6139 356.261 75.9664 357.053 75.3145C358.514 74.0804 357.264 72.177 357.264 72.177C357.165 73.5812 355.434 73.6517 355.557 72.318C355.686 70.9851 358.286 68.3469 357.264 64.9929C356.244 61.6381 350.799 61.2624 349.473 63.0132C348.106 64.8403 349.49 65.5917 349.49 65.5917Z" fill="#772635"/>
<path d="M350.711 72.1894C350.711 72.1894 350.711 73.3697 350.206 73.8748C349.702 74.3806 349.027 75.2208 349.027 75.2208C349.027 75.2208 350.206 77.0769 352.559 76.8182C354.912 76.566 355.334 74.8799 355.334 74.8799C355.334 74.8799 353.104 74.5797 352.853 72.483C352.6 70.3739 352.265 70.3739 352.265 70.3739L350.711 72.1894Z" fill="#FFB07E"/>
<path d="M349.297 74.3748C349.297 74.3748 347.69 74.1807 346.821 74.4155C345.953 74.6502 345.683 74.4976 345.918 75.1619C346.146 75.8254 347.332 78.8975 346.786 80.8307C346.24 82.7632 345.489 92.6328 345.489 92.6328C345.489 92.6328 351.462 92.8675 353.779 92.9852C356.097 93.1023 357.822 92.6734 357.822 92.6734C357.822 92.6734 358.338 88.4204 357.822 86.57C357.305 84.7197 356.642 81.5706 356.642 81.5706C356.642 81.5706 356.208 77.2412 356.801 76.1779C357.387 75.1146 357.822 75.0732 357.077 74.8036C356.331 74.5332 355.51 74.2861 354.912 74.2861C354.319 74.2861 354.008 74.2861 353.656 74.6386C353.304 74.9911 352.594 75.7019 351.614 75.5434C350.634 75.385 349.884 74.7149 349.884 74.7149C349.884 74.7149 349.572 74.4155 349.297 74.3748Z" fill="#3E4753"/>
<path d="M346.445 74.7091C346.445 74.7091 345.9 74.4329 345.072 75.1437C344.187 75.9017 343.535 77.5406 343.224 78.569C342.913 79.5966 342.708 80.6134 342.708 80.6134C342.708 80.6134 343.846 81.2006 345.026 81.2421C346.204 81.2828 346.991 81.3591 346.991 81.3591C346.991 81.3591 347.507 78.2928 347.384 76.912C347.273 75.526 347.079 75.0616 346.445 74.7091Z" fill="#9DCAD1"/>
<path d="M356.349 75.8545C356.349 75.8545 356.824 74.5565 357.886 75.1437C358.948 75.7317 359.734 77.9752 359.969 78.686C360.204 79.3975 360.514 80.8132 360.514 80.8132C360.514 80.8132 359.259 81.3591 358.197 81.4412C357.135 81.524 356.39 81.6003 356.39 81.6003C356.39 81.6003 355.956 78.8037 356.038 77.7056C356.114 76.5951 356.349 75.8545 356.349 75.8545Z" fill="#9DCAD1"/>
<path d="M348.78 68.4996L348.927 68.5061L349.203 70.5912C349.203 70.5912 348.663 71.1203 348.417 70.6203C347.9 69.5752 347.707 69.7867 347.783 68.9225C347.83 68.3469 348.68 68.3651 348.68 68.3651L348.78 68.4996Z" fill="#FFB07E"/>
<path d="M354.494 68.4821L354.347 68.4938L354.054 70.5796C354.054 70.5796 354.588 71.1021 354.84 70.597C355.357 69.5454 355.55 69.7627 355.492 68.8993C355.445 68.3237 354.594 68.3411 354.594 68.3411L354.494 68.4821Z" fill="#FFB07E"/>
<path d="M351.655 65.0692C348.393 65.0692 348.3 67.4428 348.423 69.3637C348.546 71.2787 350.048 73.0354 351.655 73.0354C353.111 73.0354 354.765 71.2787 354.888 69.3637C355.012 67.4428 354.918 65.0692 351.655 65.0692Z" fill="#FDCBA7"/>
<path d="M349.349 65.1928C349.349 65.1928 348.915 63.8707 351.326 63.7239C353.732 63.5829 354.723 64.7109 354.43 65.4391L349.349 65.1928Z" fill="#EE2A7B"/>
<path d="M353.198 66.961C353.198 66.961 350.904 69.3637 348.253 69.7104C348.253 69.7104 347.149 65.692 349.842 64.4522C352.541 63.213 354.196 65.0692 354.196 65.0692C354.196 65.0692 356.437 65.5917 355.222 69.4102C355.228 69.4102 353.198 68.0708 353.198 66.961Z" fill="#772635"/>
</g>
<path d="M401.126 63.4835H367.444C366.699 63.4835 366.088 62.8723 366.088 62.1259V60.6636C366.088 59.9172 366.699 59.3068 367.444 59.3068H401.126C401.871 59.3068 402.481 59.9172 402.481 60.6636V62.1259C402.481 62.8781 401.877 63.4835 401.126 63.4835Z" fill="#0064B7"/>
<path d="M401.126 70.3032H367.444C366.699 70.3032 366.088 69.692 366.088 68.9463V67.4834C366.088 66.7377 366.699 66.1265 367.444 66.1265H401.126C401.871 66.1265 402.481 66.7377 402.481 67.4834V68.9463C402.481 69.6978 401.877 70.3032 401.126 70.3032Z" fill="#0064B7"/>
<path d="M401.126 77.1234H367.444C366.699 77.1234 366.088 76.5129 366.088 75.7665V74.3042C366.088 73.5578 366.699 72.9466 367.444 72.9466H401.126C401.871 72.9466 402.481 73.5578 402.481 74.3042V75.7665C402.481 76.5245 401.877 77.1234 401.126 77.1234Z" fill="#0064B7"/>
<path d="M440.335 101.197L430.92 103.84L433.56 113.268L442.975 110.625L440.335 101.197Z" fill="#EE384E"/>
<path d="M11.4152 198.627L2 201.27L4.64003 210.698L14.0553 208.054L11.4152 198.627Z" fill="#003EB0"/>
<path d="M405.405 177.295L394.075 174.3C393.861 174.243 393.681 174.348 393.624 174.562L392.401 179.199C392.382 179.271 392.363 179.343 392.416 179.433L393.412 181.147C393.465 181.237 393.536 181.256 393.608 181.274L402.23 183.554C402.301 183.572 402.391 183.52 402.462 183.539L404.174 182.541C404.264 182.489 404.282 182.418 404.301 182.346L405.524 177.708C405.652 177.513 405.547 177.332 405.405 177.295ZM403.769 182.053L402.328 182.893L393.92 180.67L393.081 179.226L394.19 175.017L404.879 177.843L403.769 182.053Z" fill="#003EB0"/>
<path d="M405.689 178.82L392.836 176.109C392.622 176.053 392.442 176.157 392.457 176.39C392.419 176.533 392.524 176.713 392.738 176.77L405.59 179.481C405.804 179.537 405.984 179.433 405.97 179.2C406.008 179.057 405.831 178.858 405.689 178.82Z" fill="#003EB0"/>
<path d="M405.161 180.818L392.309 178.106C392.095 178.05 391.915 178.155 391.929 178.388C391.892 178.531 391.997 178.711 392.211 178.767L405.063 181.479C405.277 181.535 405.457 181.43 405.443 181.197C405.48 181.055 405.304 180.855 405.161 180.818Z" fill="#003EB0"/>
<path d="M405.687 153.099C399.417 151.441 393.022 155.169 391.366 161.448C390.332 165.372 391.386 169.467 394.171 172.493L393.625 174.562C393.568 174.776 393.673 174.956 393.887 175.013L405.216 178.008C405.43 178.065 405.611 177.96 405.667 177.746L406.213 175.677C410.107 174.493 413.043 171.453 414.097 167.458C415.663 161.231 411.958 154.757 405.687 153.099ZM405.775 175.027C405.685 175.079 405.595 175.131 405.557 175.274L405.049 177.201L394.36 174.375L394.868 172.448C394.906 172.306 394.854 172.216 394.801 172.126C392.103 169.351 391.081 165.417 392.079 161.636C393.622 155.786 399.675 152.196 405.589 153.76C411.504 155.324 415.017 161.366 413.455 167.288C412.387 171.051 409.561 173.966 405.775 175.027Z" fill="#003EB0"/>
<path d="M401.24 182.681C401.117 182.572 400.884 182.587 400.775 182.711C400.756 182.782 399.833 183.683 397.766 183.136C395.7 182.591 395.341 181.351 395.36 181.28C395.326 181.117 395.131 180.99 394.97 181.024C394.809 181.057 394.681 181.253 394.714 181.414C394.695 181.485 395.103 183.12 397.597 183.779C400.091 184.438 401.251 183.219 401.27 183.147C401.45 183.042 401.436 182.809 401.24 182.681Z" fill="#003EB0"/>
<path d="M388.467 160.3L381.769 158.529C381.555 158.473 381.375 158.577 381.318 158.792C381.262 159.005 381.367 159.186 381.58 159.242L388.278 161.013C388.493 161.07 388.673 160.965 388.729 160.751C388.786 160.537 388.681 160.356 388.467 160.3Z" fill="#DE051F"/>
<path d="M423.811 169.645L417.113 167.873C416.899 167.817 416.719 167.922 416.663 168.136C416.606 168.35 416.711 168.53 416.925 168.587L423.623 170.358C423.837 170.414 424.017 170.31 424.073 170.095C424.129 169.881 423.954 169.682 423.811 169.645Z" fill="#DE051F"/>
<path d="M388.738 168.233C388.704 168.071 388.509 167.943 388.348 167.977L381.691 169.804C381.53 169.838 381.403 170.033 381.437 170.195C381.47 170.356 381.541 170.375 381.684 170.413C381.755 170.431 381.826 170.45 381.845 170.379L388.501 168.552C388.715 168.608 388.824 168.484 388.738 168.233Z" fill="#DE051F"/>
<path d="M423.955 158.692C423.921 158.531 423.726 158.403 423.565 158.436L416.909 160.264C416.748 160.298 416.62 160.493 416.653 160.654C416.687 160.816 416.759 160.835 416.901 160.873C416.972 160.891 417.043 160.91 417.062 160.838L423.718 159.011C423.932 159.068 424.06 158.872 423.955 158.692Z" fill="#DE051F"/>
<path d="M418.258 148.79C418.134 148.681 417.902 148.696 417.793 148.82L412.92 153.714C412.811 153.837 412.826 154.07 412.949 154.18C413.021 154.198 413.073 154.289 413.073 154.289C413.216 154.326 413.306 154.273 413.396 154.221L418.269 149.328C418.397 149.132 418.363 148.971 418.258 148.79Z" fill="#DE051F"/>
<path d="M408.321 143.111C408.108 143.054 407.927 143.159 407.871 143.373L406.121 150.008C406.064 150.222 406.17 150.402 406.383 150.459C406.597 150.516 406.777 150.41 406.834 150.197L408.602 143.49C408.64 143.347 408.535 143.167 408.321 143.111Z" fill="#DE051F"/>
<path d="M399.166 150.078L397.341 143.413C397.308 143.252 397.112 143.124 396.951 143.157C396.79 143.191 396.662 143.386 396.696 143.548L398.521 150.212C398.555 150.374 398.626 150.393 398.768 150.43C398.839 150.449 398.911 150.468 398.929 150.397C399.072 150.435 399.2 150.239 399.166 150.078Z" fill="#DE051F"/>
<path d="M418.388 179.507L413.501 174.627C413.377 174.518 413.164 174.462 413.036 174.657C412.908 174.853 412.942 175.014 413.066 175.123L417.953 180.002C418.024 180.021 418.077 180.111 418.077 180.111C418.219 180.149 418.309 180.096 418.399 180.044C418.527 179.848 418.494 179.687 418.388 179.507Z" fill="#DE051F"/>
<path d="M392.468 153.802L387.581 148.922C387.457 148.813 387.225 148.828 387.116 148.952C387.007 149.076 387.021 149.309 387.146 149.418L392.033 154.297C392.104 154.316 392.086 154.387 392.157 154.406C392.299 154.444 392.389 154.391 392.479 154.339C392.607 154.144 392.592 153.911 392.468 153.802Z" fill="#DE051F"/>
<path d="M400.702 176.052L403.543 165.278C403.543 165.278 404.736 160.174 407.516 160.909C410.295 161.644 407.619 166.585 402.276 165.172" stroke="#003EB0" stroke-width="1.01536" stroke-miterlimit="10"/>
<path d="M398.208 175.392L401.049 164.619C401.049 164.619 402.527 159.59 399.748 158.855C396.97 158.121 396.859 163.74 402.204 165.153" stroke="#003EB0" stroke-width="1.01536" stroke-miterlimit="10"/>
</g>
<defs>
<clipPath id="clip0_3375_6171">
<rect width="445" height="305" fill="white"/>
</clipPath>
</defs>
</svg>
