<svg width="467" height="324" viewBox="0 0 467 324" fill="none" xmlns="http://www.w3.org/2000/svg">
<path d="M127.718 141.525C95.8857 122.068 85.7868 80.4665 105.218 48.4654C124.65 16.4643 166.198 6.48022 198.158 25.9366" stroke="#2626DB" stroke-width="1.66312" stroke-miterlimit="10" stroke-dasharray="9.98 9.98"/>
<path d="M114.35 61.9996C118.248 55.6021 116.278 47.2821 109.948 43.416C103.62 39.55 95.3295 41.6027 91.4316 48.0002C87.5336 54.3976 89.5045 62.7169 95.8338 66.5829C102.162 70.449 110.452 68.397 114.35 61.9996Z" fill="#FCBE42"/>
<path d="M98.187 50.3857L99.5929 60.6261L107.008 54.4819" stroke="white" stroke-width="1.66312" stroke-miterlimit="10"/>
<path d="M340.184 141.525C372.016 122.068 382.115 80.4665 362.684 48.4654C343.251 16.4643 301.704 6.48022 269.744 25.9366" stroke="#2626DB" stroke-width="1.66312" stroke-miterlimit="10" stroke-dasharray="9.98 9.98"/>
<path d="M190.866 103.946C189.971 105.482 188.82 106.762 187.542 107.914L188.692 112.522L181.789 116.234L178.721 112.522C177.059 112.906 175.269 113.162 173.607 112.906L171.178 117.13L163.636 114.698L164.019 109.962C162.485 109.066 161.207 107.914 160.056 106.633L155.326 107.914L151.618 100.873L155.326 97.8015C154.943 96.1375 154.687 94.345 154.943 92.6809L150.852 90.1211L153.153 82.6969L157.883 83.0809C158.778 81.5447 159.929 80.2647 161.207 79.1125L159.929 74.3768L166.832 70.6647L169.9 74.3768C171.562 73.9927 173.351 73.7365 175.014 73.9927L177.571 69.7681L184.985 72.0724L184.602 76.8089C186.136 77.7048 187.414 78.857 188.565 80.137L193.295 78.857L197.002 85.7694L193.295 88.8411C193.678 90.5051 193.934 92.2969 193.678 93.9617L197.897 96.393L195.596 104.201L190.866 103.946ZM182.429 96.393C183.962 91.9136 181.278 87.3049 177.059 85.7694C172.585 84.2331 167.982 86.9208 166.449 91.1455C164.914 95.6257 167.598 100.234 171.818 101.77C176.164 103.305 181.15 100.745 182.429 96.393Z" stroke="#023EA1" stroke-width="1.66312" stroke-miterlimit="10"/>
<path d="M263.147 129.707L261.74 128.043L265.831 125.867L246.911 119.594L253.175 138.027L255.476 134.827C255.476 134.827 267.749 156.587 255.476 169.644C243.331 182.573 228.885 179.884 228.885 179.884L231.698 188.845C231.698 188.845 254.325 190.509 266.47 170.028C278.616 149.419 263.147 129.707 263.147 129.707Z" fill="#0064E1"/>
<path d="M206.129 175.02L207.535 176.684L203.444 178.861L222.365 185.133L216.1 166.7L213.8 169.9C213.8 169.9 201.527 148.139 213.8 135.083C225.944 122.154 240.391 124.843 240.391 124.843L237.578 115.882C237.578 115.882 214.95 114.218 202.805 134.699C190.66 155.18 206.129 175.02 206.129 175.02Z" fill="#0064E1"/>
<path fill-rule="evenodd" clip-rule="evenodd" d="M245.504 141.611C246.399 142.507 247.166 143.659 247.805 144.939H251.513L252.919 150.7L249.595 152.364C249.595 153.644 249.34 154.924 248.956 156.332L251.64 159.02L248.317 164.268L244.865 162.988C243.971 163.884 242.82 164.652 241.542 165.292V169.005L235.789 170.412L234.127 167.084C232.848 167.084 231.569 166.828 230.164 166.444L227.607 169.005L222.365 165.676L223.644 162.22C222.749 161.324 221.982 160.172 221.342 158.892H217.635L216.229 153.132L219.68 151.468C219.68 150.188 219.936 148.908 220.32 147.499L217.763 144.939L221.087 139.691L224.538 140.971C225.433 140.075 226.584 139.307 227.862 138.667V134.955L233.615 133.547L235.277 137.003C236.555 137.003 237.834 137.259 239.24 137.643L241.797 135.083L247.038 138.411L245.504 141.611ZM238.089 146.347C235.149 144.428 231.186 145.451 229.269 148.395C227.351 151.34 228.373 155.308 231.314 157.228C234.254 159.148 238.218 158.124 240.135 155.18C242.053 152.364 241.286 148.267 238.089 146.347Z" fill="#023EA1"/>
<path d="M156.988 99.8494C155.454 97.545 152.897 96.0088 149.829 96.0088H90.3828C85.6531 96.0088 81.8174 99.8494 81.8174 104.585V108.81V172.044C81.8174 174.348 82.7129 176.396 84.1188 177.804C85.6531 180.108 88.2097 181.644 91.2783 181.644H150.724C155.454 181.644 159.289 177.804 159.289 173.068V105.61C159.289 103.434 158.395 101.386 156.988 99.8494Z" fill="#C3C4CA"/>
<path d="M162.741 171.276C162.741 176.012 158.906 179.852 154.176 179.852H94.7304C90.0007 179.852 86.165 176.012 86.165 171.276V103.689C86.165 98.9534 90.0007 95.1128 94.7304 95.1128H154.176C158.906 95.1128 162.741 98.9534 162.741 103.689V171.276Z" fill="#CBCDD2"/>
<path d="M161.846 170.124C161.846 174.86 158.011 178.7 153.281 178.7H93.8354C89.1049 178.7 85.27 174.86 85.27 170.124V102.666C85.27 97.9292 89.1049 94.0894 93.8354 94.0894H153.409C158.139 94.0894 161.974 97.9292 161.974 102.666L161.846 170.124Z" fill="white"/>
<path d="M161.846 106.89V102.666C161.846 97.9292 158.011 94.0894 153.281 94.0894H93.8354C89.1049 94.0894 85.27 97.9292 85.27 102.666V106.89H161.846Z" fill="#0064B5"/>
<path d="M145.483 103.305C145.483 103.689 145.227 103.945 144.844 103.945H140.242C139.858 103.945 139.602 103.689 139.602 103.305V98.697C139.602 98.3129 139.858 98.0566 140.242 98.0566H144.844C145.227 98.0566 145.483 98.3129 145.483 98.697V103.305Z" fill="white"/>
<path d="M154.303 103.305C154.303 103.689 154.048 103.945 153.664 103.945H149.062C148.678 103.945 148.423 103.689 148.423 103.305V98.697C148.423 98.3129 148.678 98.0566 149.062 98.0566H153.664C154.048 98.0566 154.303 98.3129 154.303 98.697V103.305Z" fill="white"/>
<path d="M135.383 101.002C135.383 102.666 133.978 104.073 132.316 104.073H93.0686C91.4067 104.073 90 102.666 90 101.002C90 99.3377 91.4067 97.9292 93.0686 97.9292H132.316C134.105 97.9292 135.383 99.3377 135.383 101.002Z" fill="white"/>
<path d="M127.968 133.13C127.968 143.243 119.787 151.563 109.559 151.563C99.4598 151.563 91.1504 143.371 91.1504 133.13C91.1504 123.018 99.3322 114.698 109.559 114.698C119.659 114.698 127.968 123.018 127.968 133.13Z" fill="#E9EEF2"/>
<path d="M125.028 142.219C122.216 147.723 116.463 151.435 109.815 151.435C103.167 151.435 96.6474 147.723 93.5796 142.219C97.7981 139.275 103.678 137.483 109.304 137.483C115.184 137.611 120.554 139.275 125.028 142.219Z" fill="#EE384E"/>
<path d="M114.937 133.672C117.908 130.647 117.744 125.664 114.571 122.541C111.4 119.419 106.42 119.339 103.451 122.364C100.481 125.389 100.645 130.373 103.816 133.495C106.988 136.618 111.967 136.697 114.937 133.672Z" fill="#EE384E"/>
<path d="M155.582 116.105H130.909V120.714H155.582V116.105Z" fill="#DBE9F8"/>
<path d="M155.582 124.042H130.909V126.346H155.582V124.042Z" fill="#DBE9F8"/>
<path d="M155.582 131.21H148.551H130.909V128.906H155.582V131.21Z" fill="#DBE9F8"/>
<path d="M155.582 133.642H130.909V135.946H155.582V133.642Z" fill="#DBE9F8"/>
<path d="M155.582 138.378H130.909V140.682H155.582V138.378Z" fill="#DBE9F8"/>
<path d="M155.582 143.243H130.909V145.547H155.582V143.243Z" fill="#DBE9F8"/>
<path d="M155.582 147.979H130.909V150.283H155.582V147.979Z" fill="#DBE9F8"/>
<path d="M155.71 157.707H94.6021V160.011H155.71V157.707Z" fill="#DBE9F8"/>
<path d="M155.71 163.595H94.6021V165.899H155.71V163.595Z" fill="#DBE9F8"/>
<path d="M64.5595 71.9439C63.2804 70.0236 61.1074 68.7437 58.6784 68.7437H9.58781C5.62482 68.7437 2.55664 71.9439 2.55664 75.7838V79.3681V131.722C2.55664 133.642 3.32363 135.306 4.47418 136.586C5.75265 138.506 7.92593 139.786 10.3549 139.786H59.4455C63.4088 139.786 66.4766 136.586 66.4766 132.746V76.6797C66.4766 74.8879 65.7095 73.0961 64.5595 71.9439Z" fill="#D7D9DD"/>
<path d="M69.1618 129.802C69.1618 133.771 65.9657 136.842 62.1307 136.842H13.04C9.07696 136.842 6.00879 133.642 6.00879 129.802V73.8638C6.00879 69.8962 9.20479 66.8237 13.04 66.8237H62.1307C66.094 66.8237 69.1618 70.024 69.1618 73.8638V129.802Z" fill="#CBCDD2"/>
<path d="M68.5231 128.906C68.5231 132.874 65.327 135.946 61.4913 135.946H12.4009C8.4378 135.946 5.36963 132.746 5.36963 128.906V72.9679C5.36963 69.0002 8.56563 65.9277 12.4009 65.9277H61.4913C65.4546 65.9277 68.5231 69.128 68.5231 72.9679V128.906Z" fill="white"/>
<path d="M68.5231 76.5522V72.9679C68.5231 69.0002 65.327 65.9277 61.4913 65.9277H12.4009C8.4378 65.9277 5.36963 69.128 5.36963 72.9679V76.5522H68.5231Z" fill="#0064B5"/>
<path d="M54.9713 73.6082C54.9713 73.8637 54.7161 74.2477 54.3325 74.2477H50.4971C50.2414 74.2477 49.8579 73.9922 49.8579 73.6082V69.7675C49.8579 69.512 50.1136 69.1279 50.4971 69.1279H54.3325C54.5877 69.1279 54.9713 69.3842 54.9713 69.7675V73.6082Z" fill="white"/>
<path d="M62.2583 73.6082C62.2583 73.8637 62.0031 74.2477 61.6195 74.2477H57.7838C57.5286 74.2477 57.145 73.9922 57.145 73.6082V69.7675C57.145 69.512 57.4002 69.1279 57.7838 69.1279H61.6195C61.8747 69.1279 62.2583 69.3842 62.2583 69.7675V73.6082Z" fill="white"/>
<path d="M46.6623 71.6878C46.6623 73.0963 45.5118 74.2477 44.1055 74.2477H11.7619C10.3556 74.2477 9.20508 73.0963 9.20508 71.6878C9.20508 70.2801 10.3556 69.1279 11.7619 69.1279H44.1055C45.5118 69.1279 46.6623 70.2801 46.6623 71.6878Z" fill="white"/>
<path d="M40.3982 98.1855C40.3982 106.633 33.6227 113.418 25.1852 113.418C16.7478 113.418 9.97217 106.633 9.97217 98.1855C9.97217 89.7369 16.7478 82.9531 25.1852 82.9531C33.6227 83.0809 40.3982 89.8647 40.3982 98.1855Z" fill="#E9EEF2"/>
<path d="M38.2242 106.505C35.9231 110.985 31.1929 114.186 25.6958 114.186C20.1987 114.186 14.8293 111.113 12.4004 106.633C15.8521 104.201 20.71 102.793 25.3123 102.793C30.0424 102.665 34.3889 104.073 38.2242 106.505Z" fill="#0064E1"/>
<path d="M29.927 99.5124C32.4021 96.9917 32.2861 92.8594 29.668 90.2818C27.0499 87.7042 22.9211 87.6588 20.4461 90.1794C17.9711 92.7001 18.087 96.8324 20.7051 99.41C23.3232 101.987 27.452 102.033 29.927 99.5124Z" fill="#0064E1"/>
<path d="M63.2812 84.104H42.9541V87.9446H63.2812V84.104Z" fill="#DBE9F8"/>
<path d="M63.2812 90.7612H42.9541V92.6808H63.2812V90.7612Z" fill="#DBE9F8"/>
<path d="M63.2812 94.7285H42.9541V96.6488H63.2812V94.7285Z" fill="#DBE9F8"/>
<path d="M63.2812 98.6973H42.9541V100.618H63.2812V98.6973Z" fill="#DBE9F8"/>
<path d="M63.2812 102.666H42.9541V104.585H63.2812V102.666Z" fill="#DBE9F8"/>
<path d="M63.2812 106.633H42.9541V108.553H63.2812V106.633Z" fill="#DBE9F8"/>
<path d="M63.2812 110.474H42.9541V112.393H63.2812V110.474Z" fill="#DBE9F8"/>
<path d="M63.2814 118.666H12.7842V120.586H63.2814V118.666Z" fill="#DBE9F8"/>
<path d="M63.2814 123.401H12.7842V125.322H63.2814V123.401Z" fill="#DBE9F8"/>
<path d="M304.957 117.319C304.271 118.349 303.586 119.265 302.671 120.066L303.471 123.27L298.671 125.788L296.499 123.27C295.471 123.499 294.214 123.614 292.957 123.614L291.242 126.474L286.099 124.872L286.442 121.553C285.413 120.867 284.5 120.18 283.699 119.265L280.614 120.066L278.1 115.374L280.614 113.314C280.385 112.284 280.271 111.026 280.271 109.767L277.413 108.05L279.013 102.9L282.328 103.244C283.014 102.214 283.699 101.299 284.613 100.498L283.814 97.2935L288.5 94.7759L290.557 97.2935C291.585 97.0641 292.843 96.9502 294.1 96.9502L295.814 94.0894L300.957 95.691L300.614 99.0098C301.643 99.6964 302.557 100.383 303.357 101.299L306.557 100.498L309.071 105.189L306.557 107.249C306.786 108.279 306.9 109.538 306.9 110.796L309.757 112.514L308.157 117.663L304.957 117.319ZM299.014 112.17C300.042 109.08 298.214 105.991 295.128 104.961C292.043 103.93 288.956 105.761 287.928 108.852C286.899 111.941 288.728 115.031 291.813 116.061C294.9 116.861 298.1 115.145 299.014 112.17Z" stroke="#DE051F" stroke-width="1.48682" stroke-miterlimit="10"/>
<path d="M149.816 188.674C149.816 188.674 145.264 252.19 144.613 263.454C143.948 274.719 141.557 312.659 141.557 312.659H130.397L122.867 187.97L149.816 188.674Z" fill="#DE051F"/>
<path d="M107.808 189.34C107.808 189.34 109.124 221.341 109.712 229.456C110.287 237.572 103.921 265.31 100.291 277.637C96.6471 289.976 91.52 303.635 91.52 303.635L100.291 308.691C100.291 308.691 119.223 274.744 126.012 254.711C132.787 234.678 137.837 204.7 137.006 187.816L107.808 189.34Z" fill="#EE384E"/>
<path d="M155.313 143.898L163.828 155.239C163.828 155.239 164.492 156.148 166.064 155.738C167.637 155.328 184.013 149.363 184.013 149.363C184.013 149.363 186.301 148.339 186.902 146.522C187.504 144.704 187.785 144.256 188.142 143.757C188.501 143.257 189.025 143.321 188.718 142.105C188.411 140.889 188.245 140.39 188.245 140.39C188.245 140.39 187.887 139.532 188.603 139.532C189.318 139.532 190.086 139.699 190.482 140.531C190.866 141.363 190.764 143.373 190.764 143.373L194.266 143.514C194.266 143.514 196.414 143.591 196.414 145.83C196.414 148.071 196.414 151.821 196.414 151.821C196.414 151.821 196.721 152.986 195.148 152.986C193.575 152.986 191.927 152.934 191.927 152.934C191.927 152.934 190.61 152.794 188.449 154.368C186.289 155.943 169.874 165.351 169.874 165.351C169.874 165.351 164.198 168.743 160.478 165.184C156.758 161.626 148.576 152.82 148.576 152.82L148.167 150.029L155.313 143.898Z" fill="#FFBF99"/>
<path d="M127.917 113.522C127.917 113.522 126.907 118.604 124.873 123.686C122.841 128.768 121.831 130.803 121.831 130.803C121.831 130.803 127.917 137.92 134.015 136.896C140.099 135.885 140.099 131.814 140.099 131.814C140.099 131.814 134.513 127.244 134.513 121.138C134.513 115.033 134.513 115.046 134.513 115.046L127.917 113.522Z" fill="#FFB48F"/>
<path d="M141.339 130.649C141.339 130.649 146.39 133.465 148.486 135.245C150.596 137.024 156.668 144.026 156.668 144.026L148.358 152.103L142.567 145.523L141.339 130.649Z" fill="#0064B7"/>
<path d="M124.401 128.268C124.401 128.268 127.444 132.339 131.509 133.35C135.574 134.361 137.594 131.315 137.594 131.315L138.706 129.855C138.706 129.855 139.831 128.973 141.072 130.009C142.311 131.033 144.677 133.67 146.734 137.92C148.793 142.17 149.393 147.981 149.828 161.562C150.263 175.144 149.828 189.8 149.828 189.8H107.846L107.347 168.692C107.347 168.692 111.809 140.621 116.193 134.912C120.579 129.203 121.857 127.961 121.857 127.961C121.857 127.961 122.867 126.579 124.401 128.268Z" fill="#0083F9"/>
<path d="M140.612 99.8003C140.612 99.8003 143.654 103.871 143.654 110.988C143.654 118.105 142.644 123.187 139.59 123.187C136.534 123.187 130.448 121.152 129.438 119.117C128.428 117.081 126.396 117.081 126.396 113.023C126.396 108.965 131.472 99.8134 135.536 99.8134C139.602 99.8134 140.612 99.8003 140.612 99.8003Z" fill="#FFBF99"/>
<path d="M143.654 99.7997C143.654 99.7997 146.697 91.6713 144.664 90.6476C142.632 89.6363 138.579 91.659 137.556 92.6826C136.546 93.694 134.514 93.694 133.491 93.694C133.491 93.694 123.34 93.6939 121.308 95.7289C119.275 97.7647 119.275 98.776 119.275 99.7997C119.275 100.811 119.263 104.805 118.265 106.917C117.831 107.839 117.256 111.999 119.275 116.069C121.295 120.14 123.34 121.151 124.35 121.151C125.361 121.151 126.281 121.151 126.383 120.14C126.498 119.039 126.894 117.49 127.393 116.069C127.879 114.712 128.403 111.999 128.403 111.999C128.403 111.999 129.413 106.917 131.445 104.882C133.479 102.846 133.479 102.846 137.531 101.835C141.622 100.824 142.644 102.846 143.654 99.7997Z" fill="#170856"/>
<path d="M129.963 107.224C131.472 108.953 129.438 111.999 129.438 111.999C129.438 111.999 126.396 113.011 126.396 109.963C126.396 106.917 128.455 105.483 129.963 107.224Z" fill="#FFBF99"/>
<path d="M109.636 150.003C109.636 150.003 105.826 164.686 106.491 173.876C107.156 183.067 109.879 191.029 111.86 196.571C113.842 202.114 115.006 203.445 115.082 206.927C115.159 210.409 116.782 214.543 118.802 216.617C120.822 218.691 122.446 219.727 122.446 219.727C122.446 219.727 124.849 220.841 124.466 218.614C124.466 218.614 126.076 218.742 125.463 217.5C125.463 217.5 127.61 217.538 126.038 215.849C124.466 214.146 121.576 212.495 121.576 212.495C121.576 212.495 119.927 209.846 122.28 211.176C124.632 212.495 126.703 212.546 124.516 210.396C122.33 208.245 119.799 204.482 117.946 197.608C116.092 190.734 113.893 177.153 116.514 166.721C119.135 156.288 122.446 152.807 122.446 152.807L109.636 150.003Z" fill="#FFBF99"/>
<path d="M100.662 308.012C100.662 308.012 102.682 313.695 104.919 316.307C107.156 318.918 108.933 320.826 108.933 320.826C108.933 320.826 111.541 325.011 108.601 323.77C105.66 322.528 89.4119 311.596 89.4119 311.596C89.4119 311.596 87.0982 310.393 88.172 308.409C89.2459 306.424 91.9685 302.598 91.9685 302.598L100.662 308.012Z" fill="#170856"/>
<path d="M130.499 320.685C130.499 320.685 129.898 322.336 133.312 322.336C136.725 322.336 155.313 322.336 155.313 322.336C155.313 322.336 158.892 321.619 155.594 320.019C152.283 318.419 142.363 313.952 142.363 313.952C142.363 313.952 141.608 313.746 141.621 311.839H130.358L130.499 320.685Z" fill="#170856"/>
<path d="M125.539 140.224C125.539 140.224 126.255 133.401 121.294 132.748C116.335 132.096 113.189 138.713 111.541 143.014C109.891 147.315 109.06 150.465 109.06 150.465C109.06 150.465 119.722 154.765 122.535 154.765C122.535 154.765 124.899 147.622 125.539 140.224Z" fill="#0064B7"/>
<path d="M267.105 65.8594L267.1 65.8624L237.706 82.902L237.703 82.9036C235.49 84.1335 232.529 84.1335 230.316 82.9036L230.313 82.902L200.919 65.8624L200.914 65.8594C198.707 64.6318 197.227 62.1696 197.227 59.4558V25.3704C197.227 22.6566 198.707 20.1937 200.914 18.9661L200.919 18.963L230.316 1.92186C232.529 0.692712 235.49 0.692712 237.703 1.92186L237.706 1.9234L267.1 18.963L267.105 18.9661C269.312 20.1937 270.792 22.6566 270.792 25.3704V59.4558C270.792 62.1696 269.312 64.6318 267.105 65.8594Z" fill="white" stroke="#D5D5D5" stroke-width="0.920017"/>
<path d="M234.426 42.6245L260.473 27.3898L234.426 13.4458V42.6245Z" fill="#0A489B"/>
<path d="M234.426 71.2876L208.38 56.8271V27.3898L234.426 13.4458V71.2876Z" fill="#0F68DE"/>
<path d="M234.426 42.6245L208.38 27.3898L234.426 13.4458V42.6245Z" fill="#0F68DE"/>
<path d="M234.426 72.0619L208.38 56.8264L234.426 42.6245V72.0619Z" fill="#3F86E4"/>
<path d="M319.216 172.152H312.533L305.064 171.561C305.064 171.561 304.277 176.088 308.405 176.678C312.73 177.268 319.02 178.056 320.002 177.859C321.378 177.465 319.216 172.152 319.216 172.152Z" fill="#EEBD9B"/>
<path d="M323.933 139.678C323.933 139.678 317.054 146.762 316.071 150.502C315.088 154.241 317.25 159.949 318.036 161.523C318.626 163.098 318.233 184.156 318.233 184.156H345.751V139.48L323.933 139.678Z" fill="#0064E1"/>
<path d="M307.815 118.619C307.815 118.619 308.405 123.933 309.584 127.476V130.231C309.584 130.625 309.781 130.822 310.174 130.822L311.943 130.625V132.79C311.943 132.987 312.139 133.38 312.336 133.38H313.712C313.909 133.38 314.105 133.577 314.105 133.97L313.909 134.955C313.909 135.151 313.909 135.545 314.302 135.545C315.285 135.741 317.446 135.938 320.002 134.167C322.754 132.199 324.326 133.38 324.326 134.955C324.326 136.726 322.95 141.842 325.112 142.827C327.078 143.811 332.778 143.22 333.957 142.236C335.333 140.859 333.957 137.513 331.992 135.741C330.616 134.364 328.65 119.21 325.506 117.635C322.36 116.061 307.815 118.619 307.815 118.619Z" fill="#EDBB98"/>
<path d="M339.462 161.13L339.658 170.577C339.658 171.364 339.069 171.954 338.282 171.954C337.496 171.954 336.71 171.954 334.744 171.167C330.42 169.396 320.002 163.688 318.627 162.901C318.627 162.901 318.431 162.901 318.431 162.704C318.234 162.113 316.858 160.342 313.713 160.342C309.978 160.539 308.996 161.327 309.389 162.704C309.585 163.885 309.978 163.688 309.978 163.688L309.585 164.278C309.585 164.278 309.978 165.459 311.748 165.459C313.32 165.459 315.285 164.672 315.875 165.263C316.268 165.656 332.779 176.678 336.514 179.236C337.103 179.629 337.693 179.826 338.282 180.023C340.641 180.614 346.538 181.401 347.324 177.268C348.504 172.347 348.504 160.933 348.504 160.933L339.462 161.13Z" fill="#EEBD9B"/>
<path d="M339.461 144.598C339.068 144.401 338.479 144.597 338.479 145.188V162.114C338.479 162.508 338.675 162.901 339.265 162.901C339.854 162.901 340.837 162.901 342.802 162.901C345.751 162.901 348.306 162.901 349.486 162.901C349.879 162.901 350.076 162.704 350.076 162.311L349.879 150.502C349.879 150.305 349.682 150.108 349.486 149.911L339.461 144.598Z" fill="#0054A3"/>
<path d="M359.314 152.076C360.494 146.763 351.452 139.481 351.452 139.481C351.452 139.481 346.932 137.71 346.145 132.395C345.359 127.081 340.249 125.508 338.086 123.539C335.727 121.571 334.351 117.241 334.351 117.241L334.155 116.061C334.155 116.061 330.617 99.7253 317.841 103.661C317.841 103.661 311.945 105.826 309.585 110.353C309.585 110.353 301.134 111.731 302.903 118.225C304.671 124.72 308.602 120.784 308.602 120.784C308.602 120.784 310.372 117.241 312.141 119.8C313.91 122.162 318.234 123.736 319.61 121.571C320.986 119.406 323.541 117.635 324.327 121.177V122.948C324.327 122.948 330.814 130.821 331.404 133.773C331.993 136.725 333.762 140.661 336.907 142.433C339.855 144.204 343.393 151.486 344.769 155.422C345.948 159.162 357.546 159.752 359.314 152.076Z" fill="#1B1553"/>
<path d="M294.449 152.273L277.742 152.667L298.381 175.694L315.678 175.103L294.449 152.273Z" fill="#18114F"/>
<path d="M293.469 169.199C293.469 169.199 291.699 172.347 293.272 173.332C294.845 174.119 296.417 174.512 297.006 173.725C297.597 172.938 298.186 170.379 297.203 170.576C296.417 170.576 296.024 170.773 296.024 170.773V169.986C296.024 169.789 296.024 169.592 295.827 169.396C295.041 168.805 293.862 168.214 293.469 169.199Z" fill="#EEBD9B"/>
<path d="M323.148 184.157L318.234 183.96L318.038 315.626H328.652L334.351 229.62L323.148 184.157Z" fill="#DE051F"/>
<path d="M345.753 184.157C345.753 184.157 345.949 188.683 346.145 190.455C346.342 191.439 352.632 201.87 347.718 214.466C347.718 214.663 347.521 214.859 347.521 215.253C347.325 218.008 346.735 235.13 350.273 244.184L368.946 304.605L361.87 309.721C361.87 309.721 337.497 257.173 336.711 254.811C336.121 252.45 320.396 200.886 322.362 186.518L322.755 183.96L345.753 184.157Z" fill="#EE384E"/>
<path d="M318.036 315.625C318.036 315.625 311.747 319.168 308.798 319.956C306.636 320.546 306.046 322.317 306.046 322.908C306.046 323.104 306.046 323.301 306.439 323.301H328.65V315.625H318.036Z" fill="#201B56"/>
<path d="M361.869 309.721C361.869 309.721 359.904 315.035 355.973 318.184C352.041 321.333 355.973 323.301 355.973 323.301L372.286 313.067C372.483 312.674 373.269 310.902 372.286 309.328C371.304 307.36 368.552 304.604 368.552 304.604L361.869 309.721Z" fill="#201B56"/>
<path d="M357.697 55.6875H428.522C430.497 55.6875 432.101 57.293 432.101 59.2711V87.6894C432.101 89.6682 430.497 91.2729 428.522 91.2729H354.118V59.2711C354.118 57.293 355.72 55.6875 357.697 55.6875Z" fill="#B0E6FF"/>
<path d="M370.812 84.4423C376.502 84.4423 381.114 79.8243 381.114 74.1273C381.114 68.431 376.502 63.813 370.812 63.813C365.123 63.813 360.51 68.431 360.51 74.1273C360.51 79.8243 365.123 84.4423 370.812 84.4423Z" fill="#0064B7"/>
<mask id="mask0_2974_20315" style="mask-type:alpha" maskUnits="userSpaceOnUse" x="360" y="63" width="22" height="22">
<path d="M370.812 84.4423C376.502 84.4423 381.114 79.8243 381.114 74.1273C381.114 68.431 376.502 63.813 370.812 63.813C365.123 63.813 360.51 68.431 360.51 74.1273C360.51 79.8243 365.123 84.4423 370.812 84.4423Z" fill="#0064B7"/>
</mask>
<g mask="url(#mask0_2974_20315)">
<path d="M367.998 70.4629C368.004 70.4691 368.01 70.4822 368.016 70.4945C368.165 70.3883 368.34 70.2952 368.532 70.2143C368.588 70.1959 368.644 70.1705 368.707 70.152H368.713C368.762 70.1397 368.818 70.1151 368.868 70.1027C368.88 70.0958 368.899 70.0958 368.911 70.0897C368.967 70.0773 369.023 70.0589 369.085 70.0466C369.092 70.0466 369.092 70.0466 369.098 70.0466C369.154 70.0342 369.222 70.015 369.278 70.0088C369.297 70.0027 369.328 70.0027 369.352 69.9965C369.396 69.9904 369.433 69.9842 369.477 69.9781C369.508 69.9719 369.533 69.9719 369.557 69.9657C369.614 69.9596 369.682 69.9534 369.738 69.9465C369.775 69.9465 369.819 69.9403 369.85 69.9403C369.88 69.9403 369.906 69.9342 369.936 69.9342C369.98 69.9342 370.029 69.928 370.073 69.928C370.086 69.928 370.104 69.928 370.123 69.928C370.172 69.928 370.222 69.928 370.278 69.928C370.415 69.928 370.539 69.9342 370.664 69.9403C370.664 69.9403 370.664 69.9403 370.67 69.9403C373.205 70.0897 373.708 71.7575 373.733 73.4246C374 73.4808 374.311 73.617 374.342 73.978C374.416 74.8993 374.205 74.6692 373.652 75.7759C373.559 75.9691 373.422 76.0191 373.286 76.0061C372.987 76.6472 372.478 77.089 371.421 77.8171L371.608 80.1746C372.322 79.9383 372.515 80.0252 372.726 80.1184C374.112 80.741 375.808 80.741 375.057 80.8834C374.043 81.0766 375.168 81.4499 376.007 80.7595C377.554 79.4526 376.23 77.4369 376.23 77.4369C376.125 78.9239 374.292 78.9985 374.422 77.5862C374.559 76.1746 377.312 73.3807 376.23 69.8287C375.15 66.276 369.384 65.8781 367.979 67.7322C366.532 69.6671 367.998 70.4629 367.998 70.4629Z" fill="#772635"/>
<path d="M369.29 77.45C369.29 77.45 369.29 78.6999 368.756 79.2348C368.221 79.7705 367.507 80.6602 367.507 80.6602C367.507 80.6602 368.756 82.626 371.248 82.352C373.739 82.0849 374.186 80.2993 374.186 80.2993C374.186 80.2993 371.825 79.9814 371.558 77.7609C371.291 75.5273 370.936 75.5273 370.936 75.5273L369.29 77.45Z" fill="#FFB07E"/>
<path d="M367.793 79.7643C367.793 79.7643 366.091 79.5588 365.171 79.8074C364.251 80.056 363.965 79.8944 364.215 80.5979C364.457 81.3006 365.712 84.5539 365.134 86.6012C364.556 88.6478 363.76 99.0998 363.76 99.0998C363.76 99.0998 370.086 99.3484 372.54 99.4731C374.994 99.597 376.821 99.1429 376.821 99.1429C376.821 99.1429 377.367 94.6388 376.821 92.6793C376.274 90.7197 375.572 87.3848 375.572 87.3848C375.572 87.3848 375.112 82.7999 375.74 81.6738C376.361 80.5478 376.821 80.504 376.032 80.2184C375.243 79.9321 374.373 79.6704 373.739 79.6704C373.111 79.6704 372.782 79.6704 372.409 80.0437C372.037 80.417 371.285 81.1697 370.247 81.0019C369.209 80.8341 368.415 80.1245 368.415 80.1245C368.415 80.1245 368.085 79.8074 367.793 79.7643Z" fill="#3E4753"/>
<path d="M364.773 80.1184C364.773 80.1184 364.195 79.826 363.319 80.5787C362.381 81.3814 361.692 83.117 361.362 84.2061C361.033 85.2944 360.815 86.3712 360.815 86.3712C360.815 86.3712 362.021 86.9931 363.27 87.0369C364.518 87.08 365.351 87.1608 365.351 87.1608C365.351 87.1608 365.898 83.9136 365.767 82.4513C365.65 80.9835 365.444 80.4917 364.773 80.1184Z" fill="#9DCAD1"/>
<path d="M375.261 81.3312C375.261 81.3312 375.765 79.9566 376.889 80.5785C378.014 81.2012 378.846 83.5771 379.095 84.3298C379.344 85.0833 379.673 86.5826 379.673 86.5826C379.673 86.5826 378.343 87.1607 377.218 87.2476C376.094 87.3354 375.305 87.4162 375.305 87.4162C375.305 87.4162 374.845 84.4545 374.932 83.2916C375.013 82.1155 375.261 81.3312 375.261 81.3312Z" fill="#9DCAD1"/>
<path d="M367.246 73.5424L367.401 73.5493L367.693 75.7575C367.693 75.7575 367.121 76.3178 366.861 75.7882C366.314 74.6815 366.109 74.9054 366.19 73.9903C366.239 73.3807 367.14 73.4 367.14 73.4L367.246 73.5424Z" fill="#FFB07E"/>
<path d="M373.297 73.5239L373.142 73.5362L372.832 75.7451C372.832 75.7451 373.397 76.2985 373.664 75.7636C374.211 74.6499 374.416 74.88 374.354 73.9657C374.304 73.3561 373.403 73.3746 373.403 73.3746L373.297 73.5239Z" fill="#FFB07E"/>
<path d="M370.291 69.9097C366.836 69.9097 366.737 72.4234 366.868 74.4576C366.998 76.4857 368.589 78.346 370.291 78.346C371.832 78.346 373.584 76.4857 373.714 74.4576C373.845 72.4234 373.746 69.9097 370.291 69.9097Z" fill="#FDCBA7"/>
<path d="M367.849 70.0404C367.849 70.0404 367.389 68.6404 369.943 68.4849C372.49 68.3356 373.54 69.5301 373.229 70.3013L367.849 70.0404Z" fill="#EE2A7B"/>
<path d="M371.925 71.9131C371.925 71.9131 369.495 74.4576 366.687 74.8247C366.687 74.8247 365.519 70.5692 368.371 69.2562C371.229 67.9439 372.981 69.9097 372.981 69.9097C372.981 69.9097 375.355 70.463 374.068 74.5069C374.074 74.5069 371.925 73.0884 371.925 71.9131Z" fill="#772635"/>
</g>
<path d="M422.681 68.2299H387.01C386.222 68.2299 385.575 67.5826 385.575 66.7922V65.2436C385.575 64.4531 386.222 63.8066 387.01 63.8066H422.681C423.469 63.8066 424.116 64.4531 424.116 65.2436V66.7922C424.116 67.5888 423.476 68.2299 422.681 68.2299Z" fill="#0064B7"/>
<path d="M422.681 75.4521H387.01C386.222 75.4521 385.575 74.8048 385.575 74.0151V72.4658C385.575 71.6761 386.222 71.0288 387.01 71.0288H422.681C423.469 71.0288 424.116 71.6761 424.116 72.4658V74.0151C424.116 74.8109 423.476 75.4521 422.681 75.4521Z" fill="#0064B7"/>
<path d="M422.681 82.6747H387.01C386.222 82.6747 385.575 82.0282 385.575 81.2378V79.6892C385.575 78.8987 386.222 78.2515 387.01 78.2515H422.681C423.469 78.2515 424.116 78.8987 424.116 79.6892V81.2378C424.116 82.0405 423.476 82.6747 422.681 82.6747Z" fill="#0064B7"/>
<path d="M464.204 108.169L454.234 110.969L457.03 120.953L467 118.154L464.204 108.169Z" fill="#EE384E"/>
<path d="M9.97089 211.349L0 214.148L2.79583 224.132L12.7668 221.332L9.97089 211.349Z" fill="#003EB0"/>
<path d="M427.212 188.759L415.214 185.586C414.987 185.526 414.797 185.638 414.737 185.864L413.441 190.775C413.421 190.851 413.401 190.927 413.458 191.023L414.512 192.837C414.568 192.933 414.644 192.953 414.719 192.972L423.85 195.387C423.925 195.407 424.021 195.351 424.096 195.371L425.909 194.314C426.004 194.259 426.024 194.184 426.044 194.107L427.339 189.196C427.474 188.99 427.363 188.798 427.212 188.759ZM425.48 193.797L423.954 194.687L415.049 192.332L414.161 190.804L415.336 186.346L426.656 189.339L425.48 193.797Z" fill="#003EB0"/>
<path d="M427.513 190.373L413.901 187.502C413.675 187.442 413.484 187.553 413.5 187.8C413.46 187.951 413.571 188.142 413.798 188.202L427.409 191.074C427.635 191.133 427.826 191.022 427.811 190.776C427.851 190.624 427.664 190.413 427.513 190.373Z" fill="#003EB0"/>
<path d="M426.954 192.489L413.343 189.617C413.117 189.558 412.926 189.669 412.941 189.916C412.902 190.067 413.013 190.258 413.24 190.318L426.851 193.189C427.077 193.248 427.268 193.138 427.253 192.891C427.292 192.74 427.106 192.529 426.954 192.489Z" fill="#003EB0"/>
<path d="M427.512 163.135C420.871 161.378 414.099 165.327 412.345 171.976C411.25 176.131 412.366 180.468 415.315 183.672L414.737 185.863C414.677 186.091 414.789 186.281 415.015 186.341L427.013 189.513C427.24 189.573 427.43 189.462 427.49 189.235L428.068 187.044C432.192 185.791 435.302 182.572 436.418 178.34C438.076 171.746 434.152 164.89 427.512 163.135ZM427.604 186.356C427.509 186.411 427.413 186.467 427.373 186.618L426.835 188.658L415.516 185.666L416.054 183.625C416.094 183.474 416.038 183.379 415.982 183.284C413.125 180.345 412.044 176.18 413.1 172.175C414.734 165.979 421.145 162.178 427.408 163.834C433.671 165.49 437.392 171.889 435.738 178.161C434.607 182.145 431.613 185.233 427.604 186.356Z" fill="#003EB0"/>
<path d="M422.802 194.463C422.671 194.347 422.425 194.363 422.309 194.494C422.289 194.57 421.312 195.523 419.123 194.944C416.935 194.366 416.554 193.053 416.574 192.978C416.539 192.806 416.332 192.671 416.161 192.707C415.991 192.742 415.856 192.95 415.891 193.12C415.871 193.196 416.303 194.927 418.944 195.625C421.585 196.323 422.814 195.031 422.834 194.956C423.024 194.844 423.009 194.598 422.802 194.463Z" fill="#003EB0"/>
<path d="M409.275 170.76L402.182 168.885C401.955 168.825 401.764 168.936 401.705 169.163C401.645 169.389 401.756 169.581 401.982 169.64L409.075 171.516C409.302 171.576 409.493 171.464 409.553 171.238C409.613 171.011 409.501 170.82 409.275 170.76Z" fill="#DE051F"/>
<path d="M446.704 180.656L439.611 178.781C439.385 178.721 439.194 178.832 439.134 179.059C439.074 179.286 439.186 179.476 439.412 179.537L446.505 181.412C446.732 181.471 446.922 181.361 446.982 181.134C447.042 180.907 446.856 180.696 446.704 180.656Z" fill="#DE051F"/>
<path d="M409.562 179.162C409.526 178.99 409.32 178.854 409.149 178.891L402.099 180.826C401.929 180.861 401.793 181.068 401.83 181.239C401.865 181.41 401.94 181.43 402.091 181.47C402.167 181.49 402.242 181.51 402.262 181.434L409.311 179.499C409.537 179.559 409.652 179.428 409.562 179.162Z" fill="#DE051F"/>
<path d="M446.856 169.058C446.821 168.887 446.614 168.752 446.444 168.787L439.395 170.723C439.224 170.758 439.089 170.965 439.124 171.136C439.16 171.307 439.236 171.327 439.386 171.367C439.462 171.387 439.537 171.407 439.557 171.331L446.606 169.396C446.833 169.456 446.968 169.249 446.856 169.058Z" fill="#DE051F"/>
<path d="M440.824 158.571C440.693 158.456 440.447 158.471 440.332 158.603L435.171 163.785C435.055 163.916 435.071 164.163 435.202 164.278C435.277 164.298 435.333 164.394 435.333 164.394C435.484 164.434 435.58 164.378 435.675 164.322L440.836 159.14C440.971 158.933 440.935 158.762 440.824 158.571Z" fill="#DE051F"/>
<path d="M430.301 152.557C430.075 152.497 429.883 152.607 429.824 152.834L427.971 159.862C427.911 160.088 428.022 160.279 428.248 160.339C428.475 160.399 428.666 160.287 428.725 160.061L430.598 152.958C430.638 152.807 430.527 152.616 430.301 152.557Z" fill="#DE051F"/>
<path d="M420.605 159.935L418.673 152.877C418.638 152.706 418.431 152.571 418.26 152.606C418.089 152.642 417.954 152.849 417.99 153.02L419.922 160.077C419.958 160.249 420.033 160.269 420.184 160.308C420.259 160.328 420.336 160.348 420.355 160.273C420.506 160.313 420.641 160.106 420.605 159.935Z" fill="#DE051F"/>
<path d="M440.962 191.101L435.787 185.933C435.655 185.818 435.429 185.758 435.294 185.965C435.159 186.172 435.194 186.342 435.325 186.458L440.501 191.625C440.576 191.645 440.632 191.741 440.632 191.741C440.783 191.781 440.878 191.725 440.974 191.669C441.109 191.462 441.073 191.291 440.962 191.101Z" fill="#DE051F"/>
<path d="M413.512 163.878L408.336 158.711C408.205 158.595 407.959 158.611 407.844 158.742C407.728 158.874 407.744 159.12 407.875 159.236L413.051 164.403C413.126 164.423 413.107 164.499 413.182 164.519C413.333 164.559 413.428 164.502 413.523 164.447C413.659 164.241 413.643 163.994 413.512 163.878Z" fill="#DE051F"/>
<path d="M422.232 187.442L425.241 176.032C425.241 176.032 426.504 170.628 429.448 171.406C432.391 172.184 429.557 177.416 423.898 175.92" stroke="#003EB0" stroke-width="1.01536" stroke-miterlimit="10"/>
<path d="M419.591 186.743L422.6 175.334C422.6 175.334 424.165 170.009 421.222 169.23C418.28 168.452 418.163 174.403 423.822 175.9" stroke="#003EB0" stroke-width="1.01536" stroke-miterlimit="10"/>
</svg>
