<svg width="445" height="305" viewBox="0 0 445 305" fill="none" xmlns="http://www.w3.org/2000/svg">
<path fill-rule="evenodd" clip-rule="evenodd" d="M75.9769 109.846C75.9769 109.54 76.2832 109.235 76.5896 109.235C76.896 109.235 77.2023 109.54 77.2023 109.846V112.291C77.2023 112.597 76.896 112.902 76.5896 112.902C76.2832 112.902 75.9769 112.597 75.9769 112.291V109.846ZM72.3006 111.832C72.1474 111.68 72.1474 111.222 72.3006 111.069C72.4537 110.915 72.9133 110.915 73.0665 111.069L74.9047 112.902C75.0578 113.055 75.0578 113.514 74.9047 113.666C74.7514 113.819 74.2919 113.819 74.1387 113.666L72.3006 111.832ZM71.0752 115.958C70.7688 115.958 70.4624 115.653 70.4624 115.347C70.4624 115.042 70.7688 114.736 71.0752 114.736H73.526C73.8324 114.736 74.1387 115.042 74.1387 115.347C74.1387 115.653 73.8324 115.958 73.526 115.958H71.0752ZM73.0665 119.779C72.9133 119.932 72.4537 119.932 72.3006 119.779C72.1474 119.626 72.1474 119.168 72.3006 119.015L74.1387 117.181C74.2919 117.029 74.7514 117.029 74.9047 117.181C75.0578 117.334 75.0578 117.792 74.9047 117.945L73.0665 119.779ZM77.2023 121.002C77.2023 121.307 76.896 121.613 76.5896 121.613C76.2832 121.613 75.9769 121.307 75.9769 121.002V118.556C75.9769 118.251 76.2832 117.945 76.5896 117.945C76.896 117.945 77.2023 118.251 77.2023 118.556V121.002ZM80.8785 118.862C81.0316 119.015 81.0316 119.473 80.8785 119.626C80.7255 119.779 80.2663 119.779 80.1124 119.626L78.2749 117.792C78.1211 117.64 78.1211 117.181 78.2749 117.029C78.428 116.875 78.8872 116.875 79.0402 117.029L80.8785 118.862ZM82.1038 114.889C82.4107 114.889 82.7168 115.195 82.7168 115.5C82.7168 115.806 82.4107 116.112 82.1038 116.112H79.6533C79.3471 116.112 79.0402 115.806 79.0402 115.5C79.0402 115.195 79.3471 114.889 79.6533 114.889H82.1038ZM80.1124 111.069C80.2663 110.915 80.7255 110.915 80.8785 111.069C81.0316 111.222 81.0316 111.68 80.8785 111.832L79.0402 113.666C78.8872 113.819 78.428 113.819 78.2749 113.666C78.1211 113.514 78.1211 113.055 78.2749 112.902L80.1124 111.069Z" fill="#EE384E"/>
<path fill-rule="evenodd" clip-rule="evenodd" d="M212.306 1.34564C212.306 1.04001 212.613 0.734375 212.919 0.734375C213.225 0.734375 213.531 1.04001 213.531 1.34564V3.79068C213.531 4.09632 213.225 4.40195 212.919 4.40195C212.613 4.40195 212.306 4.09632 212.306 3.79068V1.34564ZM208.63 3.33228C208.476 3.17942 208.476 2.72102 208.63 2.56816C208.783 2.4153 209.242 2.4153 209.396 2.56816L211.234 4.40195C211.387 4.5548 211.387 5.01329 211.234 5.16606C211.081 5.31892 210.622 5.31892 210.468 5.16606L208.63 3.33228ZM207.404 7.45833C207.098 7.45833 206.792 7.1527 206.792 6.84707C206.792 6.54144 207.098 6.23581 207.404 6.23581H209.856C210.162 6.23581 210.468 6.54144 210.468 6.84707C210.468 7.1527 210.162 7.45833 209.856 7.45833H207.404ZM209.396 11.2788C209.242 11.4316 208.783 11.4316 208.63 11.2788C208.476 11.126 208.476 10.6675 208.63 10.5146L210.468 8.68086C210.622 8.52808 211.081 8.52808 211.234 8.68086C211.387 8.83371 211.387 9.29212 211.234 9.44497L209.396 11.2788ZM213.531 12.5013C213.531 12.8069 213.225 13.1125 212.919 13.1125C212.613 13.1125 212.306 12.8069 212.306 12.5013V10.0562C212.306 9.75061 212.613 9.44497 212.919 9.44497C213.225 9.44497 213.531 9.75061 213.531 10.0562V12.5013ZM217.208 10.3619C217.361 10.5147 217.361 10.9731 217.208 11.126C217.055 11.2788 216.595 11.2788 216.442 11.126L214.604 9.29212C214.45 9.13934 214.45 8.68086 214.604 8.52808C214.757 8.37523 215.217 8.37523 215.37 8.52808L217.208 10.3619ZM218.433 6.38859C218.74 6.38859 219.046 6.69422 219.046 6.99985C219.046 7.30548 218.74 7.61111 218.433 7.61111H215.983C215.676 7.61111 215.37 7.30548 215.37 6.99985C215.37 6.69422 215.676 6.38859 215.983 6.38859H218.433ZM216.442 2.56816C216.595 2.4153 217.055 2.4153 217.208 2.56816C217.361 2.72102 217.361 3.17942 217.208 3.33228L215.37 5.16606C215.217 5.31892 214.757 5.31892 214.604 5.16606C214.45 5.01329 214.45 4.5548 214.604 4.40195L216.442 2.56816Z" fill="#395196"/>
<path d="M148.583 281.92C217.108 281.92 272.659 226.5 272.659 158.137C272.659 89.7743 217.108 34.355 148.583 34.355C80.0587 34.355 24.5083 89.7743 24.5083 158.137C24.5083 226.5 80.0587 281.92 148.583 281.92Z" stroke="#023EA1" stroke-width="1.91153" stroke-miterlimit="10" stroke-dasharray="11.47 11.47"/>
<path d="M312.486 281.92C381.011 281.92 436.561 226.5 436.561 158.137C436.561 89.7743 381.011 34.355 312.486 34.355C243.961 34.355 188.411 89.7743 188.411 158.137C188.411 226.5 243.961 281.92 312.486 281.92Z" stroke="#023EA1" stroke-width="1.91153" stroke-miterlimit="10" stroke-dasharray="11.47 11.47"/>
<path d="M151.277 118.685C151.036 118.445 150.916 118.445 150.676 118.445L146.707 118.805C146.346 118.805 145.745 118.565 145.745 117.965C145.384 116.165 144.542 114.486 143.7 112.926C143.459 112.566 143.459 111.966 143.941 111.606L146.828 109.326C147.068 109.086 147.068 108.966 147.068 108.726C147.068 108.487 147.068 108.367 146.828 108.127L142.498 103.807C142.257 103.567 142.136 103.567 141.896 103.567C141.656 103.567 141.535 103.567 141.295 103.807L139.01 106.687C138.769 107.047 138.168 107.047 137.687 106.927C136.003 105.967 134.44 105.247 132.636 104.887C132.275 104.887 131.794 104.287 131.794 103.927L132.155 99.9677C132.155 99.7278 132.155 99.6079 131.914 99.3681C131.673 99.1274 131.553 99.1274 131.313 99.1274H125.179C124.939 99.1274 124.819 99.1274 124.577 99.3681C124.337 99.6079 124.337 99.7278 124.337 99.9677L124.698 103.927C124.698 104.287 124.457 104.887 123.856 104.887C122.052 105.247 120.369 106.207 118.805 106.927C118.444 107.167 117.843 107.167 117.482 106.687L115.197 103.807C114.956 103.567 114.836 103.567 114.596 103.567C114.355 103.567 114.234 103.567 113.994 103.807L109.664 108.127C109.424 108.367 109.424 108.487 109.424 108.726C109.424 108.966 109.424 109.086 109.664 109.326L112.551 111.606C112.911 111.846 112.911 112.446 112.791 112.926C111.83 114.606 111.108 116.165 110.747 117.965C110.747 118.325 110.146 118.805 109.785 118.805L105.816 118.445C105.576 118.445 105.455 118.445 105.215 118.685C104.974 118.925 104.974 119.045 104.974 119.285V125.404C104.974 125.644 104.974 125.764 105.215 126.004C105.455 126.244 105.576 126.244 105.816 126.244L109.785 125.884C110.146 125.884 110.747 126.124 110.747 126.724C111.108 128.523 112.07 130.204 112.791 131.764C113.032 132.123 113.032 132.723 112.551 133.083L109.664 135.363C109.424 135.602 109.424 135.722 109.424 135.962C109.424 136.203 109.424 136.323 109.664 136.563L113.994 140.882C114.234 141.122 114.355 141.122 114.596 141.122C114.836 141.122 114.956 141.122 115.197 140.882L117.482 138.002C117.723 137.643 118.324 137.643 118.805 137.763C120.489 138.722 122.052 139.442 123.856 139.802C124.217 139.802 124.698 140.402 124.698 140.762L124.337 144.721C124.337 144.962 124.337 145.082 124.577 145.321C124.819 145.561 124.939 145.561 125.179 145.561H131.313C131.553 145.561 131.673 145.561 131.914 145.321C132.155 145.082 132.155 144.962 132.155 144.721L131.794 140.762C131.794 140.402 132.034 139.802 132.636 139.802C134.44 139.442 136.123 138.482 137.687 137.763C138.048 137.523 138.649 137.523 139.01 138.002L141.295 140.882C141.535 141.122 141.656 141.122 141.896 141.122C142.136 141.122 142.257 141.122 142.498 140.882L146.828 136.563C147.068 136.323 147.068 136.203 147.068 135.962C147.068 135.722 147.068 135.602 146.828 135.363L143.941 133.083C143.58 132.843 143.58 132.243 143.7 131.764C144.662 130.083 145.384 128.523 145.745 126.724C145.745 126.364 146.346 125.884 146.707 125.884L150.676 126.244C150.916 126.244 151.036 126.244 151.277 126.004C151.518 125.764 151.518 125.644 151.518 125.404V119.285C151.518 118.805 151.518 118.685 151.277 118.685ZM149.954 124.325L146.948 123.964C145.625 123.724 144.542 124.564 144.061 126.004C143.7 127.684 143.099 129.244 142.257 130.683C141.656 132.003 141.896 133.083 142.858 133.923L145.143 135.602L142.136 138.602L140.453 136.323C139.611 135.363 138.168 135.003 137.206 135.722C135.763 136.563 134.199 137.162 132.516 137.523C131.193 137.763 130.47 138.963 130.47 140.402L130.832 143.402H126.262L126.622 140.402C126.863 139.082 126.021 138.002 124.577 137.523C122.894 137.162 121.33 136.563 119.887 135.722C118.564 135.123 117.482 135.363 116.64 136.323L114.956 138.602L111.95 135.602L114.234 133.923C115.197 133.083 115.557 131.644 114.836 130.683C113.994 129.244 113.393 127.684 113.032 126.004C112.791 124.684 111.589 123.964 110.146 123.964L107.018 124.325V119.885L110.026 120.245C111.348 120.485 112.431 119.645 112.912 118.205C113.273 116.525 113.874 114.965 114.716 113.526C115.317 112.206 115.077 111.126 114.114 110.286L111.83 108.607L114.836 105.607L116.52 107.886C117.362 108.846 118.805 109.206 119.767 108.487C121.21 107.646 122.774 107.047 124.457 106.687C125.78 106.446 126.502 105.247 126.502 103.807L126.262 100.687H130.712L130.35 103.688C130.11 105.007 130.952 106.087 132.395 106.566C134.079 106.927 135.642 107.526 137.086 108.367C138.409 108.966 139.491 108.726 140.333 107.766L142.016 105.487L145.023 108.487L142.738 110.166C141.776 111.006 141.535 112.446 142.136 113.406C142.979 114.845 143.58 116.405 143.941 118.085C144.181 119.405 145.384 120.125 146.828 120.125L149.834 119.765V124.325H149.954Z" fill="#EC384E"/>
<path d="M128.426 111.486C122.533 111.486 117.602 116.405 117.602 122.284C117.602 128.163 122.533 133.082 128.426 133.082C134.319 133.082 139.25 128.163 139.25 122.284C139.25 116.165 134.319 111.486 128.426 111.486ZM128.426 131.403C123.374 131.403 119.165 127.323 119.165 122.164C119.165 117.004 123.254 112.926 128.426 112.926C133.597 112.926 137.686 117.004 137.686 122.164C137.686 127.323 133.597 131.403 128.426 131.403Z" fill="#EC384E"/>
<path d="M121.453 158.88C121.213 158.64 120.972 158.64 120.731 158.64L114.959 159.359C114.237 159.359 113.395 158.88 113.395 158.159C112.914 155.64 111.832 153.12 110.388 150.96C110.148 150.241 110.148 149.4 110.629 148.921L114.598 145.681C114.838 145.442 115.079 145.202 115.079 144.961C115.079 144.721 115.079 144.481 114.838 144.242L108.705 137.883C108.464 137.642 108.224 137.642 107.984 137.642C107.742 137.642 107.502 137.883 107.262 138.123L104.015 142.081C103.534 142.562 102.812 142.802 101.97 142.322C99.6849 140.762 97.1591 139.802 94.7543 139.323C94.0322 139.082 93.5514 138.602 93.5514 137.762L94.2727 132.004C94.2727 131.763 94.2727 131.283 94.0322 131.283C93.7918 131.043 93.5514 131.043 93.311 131.043H84.1701C83.9297 131.043 83.6893 131.043 83.4489 131.283C83.2085 131.523 83.2085 131.763 83.2085 132.004L83.9297 137.762C83.9297 138.482 83.4489 139.323 82.7269 139.323C80.2018 139.802 77.676 140.882 75.5113 142.322C74.5491 142.682 73.8275 142.682 73.3464 142.202L70.0992 138.243C69.8586 138.003 69.6182 137.762 69.3776 137.762C69.137 137.762 68.8966 137.762 68.656 138.003L62.4021 144.242C62.1616 144.481 62.1616 144.721 62.1616 144.961C62.1616 145.202 62.4021 145.442 62.6426 145.681L66.6114 148.921C67.0925 149.4 67.333 150.121 66.852 150.96C65.2885 153.24 64.3264 155.76 63.8453 158.159C63.6048 158.88 63.1237 159.359 62.2819 159.359L56.509 158.64C56.2685 158.64 55.7874 158.64 55.7874 158.88C55.5469 159.119 55.5469 159.359 55.5469 159.599V168.358C55.5469 168.598 55.5469 168.838 55.7874 169.078C56.0279 169.318 56.2685 169.318 56.509 169.318L62.2819 168.598C63.0035 168.598 63.8453 169.078 63.8453 169.798C64.3264 172.318 65.4088 174.837 66.852 176.997C67.0925 177.717 67.0925 178.557 66.6114 179.037L62.6426 182.276C62.4021 182.516 62.1616 182.756 62.1616 182.996C62.1616 183.236 62.1616 183.476 62.4021 183.716L68.656 189.955C68.8966 190.195 69.137 190.195 69.3776 190.195C69.6182 190.195 69.8586 189.955 70.0992 189.715L73.3464 185.876C73.8275 185.396 74.5491 185.156 75.391 185.636C77.676 187.195 80.2018 188.156 82.6067 188.635C83.3287 188.875 83.8095 189.356 83.8095 190.195L83.0883 195.954C83.0883 196.194 83.0883 196.434 83.3287 196.675C83.5691 196.914 83.8095 196.914 84.0499 196.914H92.8294C93.0698 196.914 93.311 196.914 93.5514 196.675C93.7918 196.434 93.7918 196.194 93.7918 195.954L93.0698 190.195C93.0698 189.475 93.5514 188.635 94.2727 188.635C96.7985 188.156 99.3243 187.076 101.489 185.636C102.211 185.396 103.052 185.396 103.534 185.876L106.781 189.835C107.021 190.075 107.262 190.315 107.502 190.315C107.742 190.315 107.984 190.315 108.224 190.075L114.478 183.836C114.718 183.596 114.718 183.356 114.718 183.116C114.718 182.876 114.478 182.636 114.237 182.396L110.268 179.157C109.787 178.676 109.547 177.957 110.028 177.117C111.591 174.837 112.554 172.318 113.035 169.918C113.275 169.198 113.757 168.718 114.598 168.718L120.371 169.438C120.611 169.438 121.093 169.438 121.093 169.198C121.333 168.958 121.333 168.718 121.333 168.478V159.719C121.694 159.599 121.694 159.119 121.453 158.88ZM119.65 167.399L115.079 166.918C113.275 166.678 111.591 167.878 111.111 169.678C110.629 171.958 109.547 174.237 108.344 176.157C107.382 177.717 107.863 179.876 109.065 180.956L112.072 183.476L107.502 188.036L104.977 185.036C103.774 183.476 101.729 183.236 100.166 184.316C98.1215 185.516 95.9563 186.596 93.6716 187.075C91.8678 187.555 90.665 189.356 90.9054 191.035L91.3862 195.475H85.3729L85.8545 190.915C86.0949 189.115 84.8921 187.435 83.0883 186.956C80.8029 186.476 78.5182 185.396 76.5936 184.196C75.0301 183.236 72.8654 183.716 71.7829 184.916L69.2573 187.916L64.6872 183.356L67.6939 180.837C69.2573 179.637 69.4979 177.597 68.4154 176.037C67.2128 173.997 66.1304 171.838 65.6493 169.558C65.1682 167.758 63.3642 166.558 61.6805 166.798L57.1104 167.279V161.039L61.6805 161.519C63.4845 161.759 65.1682 160.559 65.6493 158.76C66.1304 156.48 67.2128 154.2 68.4154 152.28C69.3776 150.72 68.8966 148.561 67.6939 147.481L64.6872 144.961L69.2573 140.402L71.7829 143.401C72.9856 144.961 75.0301 145.202 76.5936 144.122C78.6384 142.922 80.8029 141.842 83.0883 141.362C84.8921 140.882 86.0949 139.082 85.8545 137.402L85.3729 133.203H91.6274L91.1458 137.762C90.9054 139.562 92.1082 141.242 93.912 141.722C96.1975 142.202 98.4821 143.281 100.406 144.481C101.97 145.442 104.135 144.961 105.217 143.762L107.742 140.762L112.313 145.322L109.307 147.841C107.742 149.041 107.502 151.081 108.585 152.641C109.787 154.68 110.87 156.839 111.351 159.119C111.832 160.919 113.636 162.119 115.32 161.879L119.89 161.399V167.399H119.65Z" fill="#0064B7"/>
<path d="M88.6184 148.92C80.0792 148.92 73.104 155.88 73.104 164.399C73.104 172.918 80.0792 179.876 88.6184 179.876C97.1575 179.876 104.133 172.918 104.133 164.399C104.133 155.64 97.1575 148.92 88.6184 148.92ZM88.6184 177.357C81.4022 177.357 75.3891 171.358 75.3891 164.159C75.3891 156.96 81.4022 150.961 88.6184 150.961C95.8345 150.961 101.848 156.96 101.848 164.159C101.848 171.358 95.9547 177.357 88.6184 177.357Z" fill="#0064B7"/>
<path d="M355.989 281.154C355.989 283.752 353.691 285.892 351.24 285.892H105.541C102.937 285.892 100.792 283.6 100.792 281.154V134.143C100.792 131.546 103.09 129.407 105.541 129.407H351.24C353.844 129.407 355.989 131.699 355.989 134.143V281.154Z" fill="#0064B5"/>
<path d="M340.979 145.3H115.04V271.374H340.979V145.3Z" fill="white"/>
<path d="M87.925 293.227H373.604C376.515 293.227 378.659 290.935 378.659 288.184V279.015H82.564V288.184C82.8701 290.782 85.3214 293.227 87.925 293.227Z" fill="#033E9F"/>
<path d="M327.037 157.678H128.518V271.68H327.037V157.678Z" fill="#DCE8F4"/>
<path d="M318.614 160.887H133.267V170.82H318.614V160.887Z" fill="white"/>
<path d="M206.331 175.863H135.868V266.332H206.331V175.863Z" fill="white"/>
<path d="M188.412 202.454C188.412 212.571 180.172 220.791 170.03 220.791C159.889 220.791 151.648 212.571 151.648 202.454C151.648 192.336 159.889 184.116 170.03 184.116C180.172 184.116 188.412 192.336 188.412 202.454Z" fill="#DAE2F2"/>
<path d="M183.815 214.204C181.365 219.033 176.258 222.32 170.437 222.32C164.616 222.32 158.898 219.135 156.243 214.204C159.919 211.635 165.127 210.095 170.029 210.095C175.135 210.095 179.832 211.635 183.815 214.204Z" fill="#0064B5"/>
<path d="M174.766 205.955C177.436 203.245 177.299 198.789 174.459 196.004C171.619 193.218 167.151 193.157 164.48 195.867C161.809 198.577 161.946 203.032 164.786 205.819C167.627 208.605 172.095 208.665 174.766 205.955Z" fill="#0064B5"/>
<path d="M196.988 234.698H141.844V261.136H196.988V234.698Z" fill="#DCE8F4"/>
<path d="M318.307 175.863H226.093V180.295H318.307V175.863Z" fill="white"/>
<path d="M318.307 184.421H226.093V188.852H318.307V184.421Z" fill="white"/>
<path d="M318.307 194.354H226.093V198.786H318.307V194.354Z" fill="white"/>
<path d="M318.307 204.746H226.093V263.581H318.307V204.746Z" fill="white"/>
<path d="M312.637 211.47H234.057V237.907H312.637V211.47Z" fill="#DCE8F4"/>
<path d="M236.354 163.333H135.868V168.069H236.354V163.333Z" fill="#DCE8F4"/>
<path d="M314.782 163.333H274.955V168.069H314.782V163.333Z" fill="#DCE8F4"/>
<path d="M51.9359 249.598C51.9359 249.598 55.6939 248.019 55.4962 243.875C55.2984 239.534 52.9248 236.574 57.8697 237.758C62.419 239.139 64.0013 239.337 67.3638 238.745C70.9241 238.153 73.0999 236.377 71.9131 241.113C70.5285 245.651 68.9462 248.808 72.5065 249.795C76.0668 250.387 79.6268 248.216 80.0227 254.334C80.6157 261.043 75.4734 268.541 66.3748 268.936C57.6719 269.133 53.716 265.779 53.716 265.779C53.716 265.779 51.1447 262.621 55.1006 261.832C59.0565 261.043 62.6168 259.266 60.441 257.886C58.8587 256.307 52.3314 256.307 52.3314 256.307C52.3314 256.307 44.6174 253.939 51.9359 249.598Z" fill="#6B9CD3"/>
<path d="M91.8904 250.979C91.2974 246.637 91.8904 243.678 99.6041 242.296C107.714 241.31 112.263 246.046 112.659 250.979C113.253 255.518 105.934 257.688 105.934 257.688C105.934 257.688 101.385 259.07 103.362 263.213C105.934 267.554 107.121 271.501 100.989 272.093C94.8578 272.685 89.3189 271.304 85.5614 268.936C82.001 266.568 78.4406 260.845 82.594 257.688C82.594 257.688 83.5828 256.898 87.1432 256.702C92.4842 256.702 91.8904 250.979 91.8904 250.979Z" fill="#1C4599"/>
<path d="M64.0024 249.795C64.0024 249.795 70.7274 264.792 71.5186 274.856" stroke="#88D6F8" stroke-width="1.23414" stroke-miterlimit="10" stroke-linecap="round" stroke-linejoin="round"/>
<path d="M100.791 252.558C100.791 252.558 89.1209 269.528 86.1543 275.448" stroke="#599FD2" stroke-width="1.23414" stroke-miterlimit="10" stroke-linecap="round" stroke-linejoin="round"/>
<path d="M67.5609 273.869H94.2631C94.2631 273.869 97.2297 274.066 97.0326 278.21C96.8347 281.96 92.4834 281.17 89.7139 281.17C87.1424 281.17 66.7697 281.17 66.7697 281.17C66.7697 281.17 63.605 281.762 63.605 278.013C63.605 274.066 64.7918 273.869 67.5609 273.869Z" fill="#0256A4"/>
<path d="M66.9688 280.973L71.1224 304.455H88.9237L91.891 286.893L66.9688 280.973Z" fill="#0256A4"/>
<path d="M66.9688 280.973L91.891 286.893L93.0778 280.973H66.9688Z" fill="#346BB4"/>
<path d="M78.4404 275.053C78.4404 275.053 79.8252 249.006 87.341 232.43" stroke="#FABD41" stroke-width="2.46828" stroke-miterlimit="10"/>
<path d="M93.8676 223.156C93.8676 223.156 94.4606 231.247 86.5489 234.404C86.5489 234.009 85.1642 227.102 93.8676 223.156Z" fill="#FABD41"/>
<path d="M82.1973 248.216C82.1973 248.216 85.1646 241.112 93.8672 242.494C93.8672 242.099 93.2743 249.005 82.1973 248.216Z" fill="#FABD41"/>
<path d="M79.4292 265.384C79.4292 265.384 81.0119 258.083 89.9124 257.293C89.7145 257.293 90.3083 264.2 79.4292 265.384Z" fill="#FABD41"/>
<path d="M79.2309 265.384C79.2309 265.384 80.2197 257.885 72.1104 254.136C71.9126 254.728 69.1435 260.846 79.2309 265.384Z" fill="#FABD41"/>
<path d="M82.1977 248.217C82.1977 248.217 83.7795 240.915 76.6591 236.377C76.4613 236.377 72.901 242.099 82.1977 248.217Z" fill="#FABD41"/>
<path d="M21.8382 165.739C33.8986 165.739 43.6755 155.985 43.6755 143.953C43.6755 131.921 33.8986 122.167 21.8382 122.167C9.77782 122.167 0.000976562 131.921 0.000976562 143.953C0.000976562 155.985 9.77782 165.739 21.8382 165.739Z" fill="#0064B7"/>
<mask id="mask0_2294_44229" style="mask-type:alpha" maskUnits="userSpaceOnUse" x="0" y="122" width="44" height="44">
<path d="M21.8372 165.739C33.8976 165.739 43.6745 155.985 43.6745 143.953C43.6745 131.922 33.8976 122.167 21.8372 122.167C9.77684 122.167 0 131.922 0 143.953C0 155.985 9.77684 165.739 21.8372 165.739Z" fill="#0064B7"/>
</mask>
<g mask="url(#mask0_2294_44229)">
<path d="M19.7336 148.678C19.7336 148.678 19.7336 151.564 18.4181 152.615C17.1026 153.665 15.7871 156.027 15.7871 156.027C15.7871 156.027 18.6812 160.489 24.2063 159.964C29.7314 159.439 30.7837 155.502 30.7837 155.502C30.7837 155.502 25.5218 154.714 24.9955 149.727C24.4694 144.74 23.68 144.74 23.68 144.74L19.7336 148.678Z" fill="#FFB07E"/>
<path d="M16.3116 153.927C16.3116 153.927 12.3651 153.402 10.5234 153.927C8.6817 154.452 7.89245 154.189 8.41862 155.764C8.94478 157.339 11.8389 164.688 10.5234 169.151C9.20794 173.613 7.36621 197.236 7.36621 197.236C7.36621 197.236 21.5736 197.761 27.0987 198.023C32.6238 198.286 36.8333 197.236 36.8333 197.236C36.8333 197.236 38.1488 186.999 36.8333 182.8C35.5178 178.337 33.9393 170.988 33.9393 170.988C33.9393 170.988 32.8869 160.752 34.4654 158.126C35.7809 155.502 36.8333 155.502 34.9917 154.976C33.15 154.452 31.3083 153.665 29.7297 153.665C28.4142 153.665 27.6248 153.665 26.8356 154.452C26.0463 155.239 24.2045 157.077 21.8366 156.551C19.4688 156.027 17.6271 154.714 17.6271 154.714C17.6271 154.714 17.1009 154.189 16.3116 153.927Z" fill="#F7A600"/>
<path d="M9.73594 154.715C9.73594 154.715 8.42038 154.19 6.57873 155.765C4.47392 157.602 2.89532 161.54 2.10602 163.902C1.31672 166.264 0.790527 168.889 0.790527 168.889C0.790527 168.889 3.42153 170.201 6.31565 170.464C9.2097 170.464 11.0514 170.726 11.0514 170.726C11.0514 170.726 12.3669 163.377 11.8407 160.227C11.5776 156.552 11.0514 155.502 9.73594 154.715Z" fill="#070707"/>
<path d="M33.15 157.602C33.15 157.602 34.2024 154.452 36.8334 155.765C39.4644 157.078 41.3061 162.327 41.8323 164.164C42.3585 166.001 43.1477 169.151 43.1477 169.151C43.1477 169.151 40.2537 170.464 37.6227 170.726C34.9917 170.989 33.4131 171.251 33.4131 171.251C33.4131 171.251 32.3607 164.689 32.6238 162.065C32.6238 159.177 33.15 157.602 33.15 157.602Z" fill="#070707"/>
<path d="M30.5196 143.428C30.7828 143.953 29.7303 145.79 29.2041 146.315C29.4672 145.528 29.4672 144.215 29.7303 142.64C29.7303 142.64 30.5196 142.903 30.5196 143.428Z" fill="#FFBF99"/>
<path d="M29.9948 136.079C29.7317 130.829 22.628 130.567 22.628 130.567C22.628 130.567 15.5243 130.567 15.2612 136.079C15.2612 138.442 15.2612 140.803 15.5243 142.641C15.7875 144.216 15.7874 145.528 16.0506 146.315C16.0506 146.841 16.3136 147.365 16.3136 147.628C16.5767 148.152 16.8398 148.415 17.103 149.203C17.8922 150.253 18.9446 151.302 19.7339 151.828C20.2601 152.353 21.8387 152.353 22.628 152.353C23.4173 152.353 24.7328 152.09 25.5221 151.828C26.3114 151.302 27.3638 150.253 28.1531 149.203C28.6793 148.678 28.6793 148.152 28.9424 147.628C28.9424 147.365 29.2055 147.103 29.2055 146.315C29.4686 145.528 29.4686 144.216 29.7317 142.641C29.9948 140.541 30.2579 138.442 29.9948 136.079Z" fill="#FFBF99"/>
<path d="M15.5237 142.64C15.7868 144.215 15.7868 145.528 16.0499 146.315C15.5236 145.79 14.7344 144.215 14.7344 143.428C14.9975 142.903 15.5237 142.64 15.5237 142.64Z" fill="#FFBF99"/>
<path d="M31.31 136.078C31.0469 134.504 30.5206 132.929 29.7314 131.879C29.2051 131.355 27.6266 129.517 28.9421 128.992C28.4159 128.467 27.6266 128.992 27.3635 129.78C27.3635 130.042 27.1003 130.567 27.1003 130.567C26.8372 129.254 27.1003 128.205 25.7848 127.417C23.68 126.104 21.3121 129.254 19.2074 129.254C18.155 129.254 16.3133 129.78 16.0502 128.205L15.524 128.729C15.524 128.992 15.2609 129.254 15.524 129.517C15.524 130.042 16.0502 130.829 16.5764 130.829C15.7871 130.829 15.2609 130.829 14.9978 130.042C14.7347 130.567 15.2609 130.567 15.2609 131.091C14.7347 131.091 14.2085 130.567 13.9454 130.042C13.4192 130.567 13.6823 131.091 13.9454 131.617C13.9454 131.879 15.2609 132.666 15.2609 132.666C14.9978 133.979 14.4716 135.554 14.2085 136.866C13.9454 137.653 13.9454 138.441 13.9454 139.228C14.2085 140.016 14.4716 141.065 14.4716 141.853C14.9978 143.166 15.2609 143.953 15.524 144.215C15.524 143.953 15.7871 143.166 16.0502 142.903C16.5764 141.328 16.0502 139.754 16.3133 138.179C16.8395 136.078 18.6812 135.554 20.786 136.078C22.1015 136.341 23.417 136.078 24.7324 135.554C25.2587 135.291 25.7848 134.767 26.3111 134.241C26.5742 133.979 26.8372 133.716 26.8372 133.454C26.8372 133.979 26.8372 134.504 27.3635 135.029C29.2051 137.129 29.2051 139.754 29.7314 142.64C29.7314 142.903 30.2575 144.215 30.2575 144.215C31.0469 143.166 31.0469 141.591 31.573 140.541C31.573 138.966 31.31 137.129 31.31 136.078Z" fill="#52331D"/>
<path d="M29.731 147.627C29.4679 146.578 29.4679 145.003 29.4679 143.953C29.4679 144.741 28.6786 145.79 28.1524 146.052C27.6262 146.316 26.8369 146.84 26.3108 146.578C26.0476 146.316 25.7845 146.316 25.7845 146.052C24.9952 145.79 24.469 145.528 23.6797 145.528C23.4166 145.528 22.6273 145.79 22.6273 146.316H22.3642C22.3642 145.79 21.8381 145.79 21.3118 145.528C20.5225 145.528 19.7332 145.79 19.207 146.316C18.9439 146.578 18.6808 146.578 18.6808 146.84C18.1546 147.103 17.3653 146.578 16.8391 146.316C16.3129 146.052 15.5236 145.003 15.5236 144.215C15.5236 145.265 15.5236 146.84 15.2605 147.89C14.9975 147.89 14.7344 147.89 14.7344 147.627C14.7344 147.89 14.9975 148.153 15.2605 148.153C15.5236 149.465 18.4178 153.402 18.4178 153.402C18.6808 153.927 20.2594 154.977 20.7856 155.24C21.3118 155.764 22.1011 155.764 22.6273 155.764C23.1535 155.764 23.9428 155.764 24.469 155.24C24.9952 154.977 26.5738 153.927 26.8369 153.402C26.8369 153.14 29.731 149.465 29.9941 148.153C30.2572 147.89 30.5203 147.89 30.5203 147.627C30.2572 147.627 29.9941 147.627 29.731 147.627ZM27.1 148.415C26.8369 148.415 26.5738 148.153 26.0476 147.89C25.5214 148.153 24.7321 148.415 24.2059 148.153C23.6797 147.89 23.4166 148.153 22.8905 148.153C23.4166 148.415 23.4166 148.415 22.8905 148.153H22.6273C22.1011 148.415 22.1011 148.415 22.6273 148.153C22.1011 148.153 21.5749 147.89 21.0487 148.153C20.5226 148.415 19.7332 148.153 19.207 147.89C18.9439 148.153 18.6808 148.415 18.1547 148.415C17.8915 148.415 17.6284 148.415 17.6284 148.415C17.8915 148.415 17.8915 148.415 18.1547 148.415C18.4178 148.415 18.9439 148.153 19.207 147.89C19.4702 147.627 19.7332 147.627 19.9963 147.365C20.5225 147.103 21.0487 146.84 21.8381 146.84C22.1011 146.84 22.3642 146.84 22.6273 146.84H22.8905C23.1535 146.84 23.4166 146.84 23.6797 146.84C24.2059 146.84 24.9952 147.103 25.5214 147.365C25.7845 147.627 26.0476 147.627 26.3108 147.89C26.3108 148.153 26.8369 148.415 27.1 148.415C27.3631 148.415 27.6262 148.415 27.6262 148.415C27.3631 148.678 27.1 148.678 27.1 148.415Z" fill="#52331D"/>
<path d="M29.7311 147.627C29.2048 147.627 28.6786 147.627 28.1524 147.365C27.6262 147.103 27.1 147.103 26.5738 146.84L26.3108 146.578C26.0477 146.315 25.7845 146.315 25.7845 146.052C24.9953 145.79 24.469 145.528 23.6797 145.528C23.4166 145.528 22.6274 145.79 22.6274 146.315H22.3642C22.3642 145.79 21.8381 145.79 21.3118 145.528C20.5226 145.528 19.7332 145.79 19.2071 146.315C18.9439 146.578 18.6808 146.578 18.6808 146.84L18.4178 147.103C17.8916 147.365 17.3653 147.627 16.8392 147.627C16.3129 147.89 15.7868 147.89 15.2605 147.89C14.9975 147.89 14.7344 147.89 14.7344 147.627C14.7344 147.89 14.9975 148.152 15.2605 148.152C15.5236 148.415 15.7868 148.415 16.0499 148.415C16.576 148.678 17.3653 148.678 18.1547 148.678C18.4178 148.678 18.9439 148.415 19.2071 148.152C19.4702 147.89 19.7332 147.89 19.9963 147.627C20.5226 147.365 21.0487 147.103 21.8381 147.103C22.1011 147.103 22.3642 147.103 22.6274 147.103H22.8905C23.1535 147.103 23.4166 147.103 23.6797 147.103C24.2059 147.103 24.9953 147.365 25.5214 147.627C25.7845 147.89 26.0477 147.89 26.3108 148.152C26.5738 148.415 26.8369 148.678 27.3632 148.678C27.8893 148.678 28.9417 148.678 29.4679 148.415C29.7311 148.415 29.9941 148.415 30.2572 148.152C30.5203 147.89 30.7835 147.89 30.7835 147.627C30.2572 147.627 29.9941 147.627 29.7311 147.627Z" fill="#6B4732"/>
</g>
<path d="M423.162 226.157C435.223 226.157 445 216.403 445 204.371C445 192.339 435.223 182.585 423.162 182.585C411.102 182.585 401.326 192.339 401.326 204.371C401.326 216.403 411.102 226.157 423.162 226.157Z" fill="#0064B7"/>
<mask id="mask1_2294_44229" style="mask-type:alpha" maskUnits="userSpaceOnUse" x="401" y="182" width="44" height="45">
<path d="M423.16 226.157C435.221 226.157 444.998 216.403 444.998 204.371C444.998 192.339 435.221 182.585 423.16 182.585C411.1 182.585 401.324 192.339 401.324 204.371C401.324 216.403 411.1 226.157 423.16 226.157Z" fill="#0064B7"/>
</mask>
<g mask="url(#mask1_2294_44229)">
<path d="M432.634 207.258C431.845 203.583 432.897 202.008 433.424 196.758L423.689 196.496L413.954 196.758C414.217 202.008 415.796 203.058 414.743 207.258C413.165 212.77 409.218 220.119 423.952 220.381C438.159 220.381 433.949 212.77 432.634 207.258Z" fill="#52331D"/>
<path d="M421.32 209.095C421.32 209.095 421.32 211.719 420.004 213.031C418.689 214.344 417.374 216.444 417.374 216.444C417.374 216.444 420.004 220.644 426.056 220.119C432.107 219.594 432.896 215.657 432.896 215.657C432.896 215.657 427.634 215.132 427.108 209.882C426.582 204.895 425.53 204.895 425.53 204.895L421.32 209.095Z" fill="#F8E1CC"/>
<path d="M417.899 214.345C417.899 214.345 413.953 213.819 412.111 214.345C410.269 214.87 409.48 214.607 410.006 216.182C410.532 217.757 413.426 225.106 412.111 229.569C410.796 234.03 408.954 257.653 408.954 257.653C408.954 257.653 423.424 258.179 428.949 258.441C434.474 258.704 438.684 257.916 438.684 257.916C438.684 257.916 440 247.942 438.684 243.218C437.368 238.493 436.053 231.406 436.053 231.406C436.053 231.406 435.264 220.906 436.316 218.544C437.895 216.182 438.684 215.919 436.842 215.132C435 214.607 433.159 213.819 431.58 213.819C430.001 213.819 429.476 213.819 428.423 214.607C427.371 215.394 426.055 216.969 423.424 216.707C420.793 216.445 419.477 214.87 419.477 214.87C419.477 214.87 418.425 214.345 417.899 214.345Z" fill="#070707"/>
<path d="M410.795 214.869C410.795 214.869 409.479 214.344 407.375 215.657C405.27 217.494 403.691 221.431 403.165 223.794C402.639 226.155 401.85 228.781 401.85 228.781C401.85 228.781 404.48 230.356 407.375 230.356C410.006 230.356 411.847 230.618 411.847 230.618C411.847 230.618 413.163 223.268 412.637 219.856C412.899 216.969 412.374 215.919 410.795 214.869Z" fill="#F7A600"/>
<path d="M434.737 217.756C434.737 217.756 436.053 214.606 438.421 215.919C440.789 217.494 442.631 222.743 443.42 224.581C443.946 226.418 444.736 229.83 444.736 229.83C444.736 229.83 441.578 231.143 439.21 231.405C436.842 231.668 435.001 231.668 435.001 231.668C435.001 231.668 434.212 224.843 434.212 222.481C433.948 219.594 434.737 217.756 434.737 217.756Z" fill="#F7A600"/>
<path d="M416.321 201.221C416.321 201.221 415.531 200.433 415.005 200.696C414.742 200.959 414.215 202.008 414.742 202.796C415.005 203.583 415.268 204.633 415.531 204.633C415.794 204.896 416.846 204.896 416.846 204.896C416.846 204.633 416.321 201.221 416.321 201.221Z" fill="#F8E1CC"/>
<path d="M430.791 201.221C430.791 201.221 431.58 200.433 432.107 200.696C432.37 200.959 432.896 202.008 432.37 202.796C432.107 203.583 431.843 204.633 431.58 204.633C431.318 204.896 430.265 204.896 430.265 204.896C430.002 204.633 430.791 201.221 430.791 201.221Z" fill="#F8E1CC"/>
<path d="M431.054 194.921C429.738 190.984 425.792 189.672 423.687 189.672C421.582 189.672 417.635 190.459 416.32 194.921C415.005 198.858 416.846 204.895 418.162 207.257C419.478 209.358 422.109 211.457 423.95 211.457C425.792 211.457 428.423 209.358 429.738 207.257C430.527 204.633 432.106 198.858 431.054 194.921Z" fill="#F8E1CC"/>
<path d="M416.056 201.483C416.056 201.483 416.583 197.546 418.424 195.446C418.424 195.446 419.74 198.596 422.634 199.646C422.634 199.646 422.634 198.071 422.371 197.021C422.371 197.021 424.739 199.384 427.896 199.646C427.896 199.646 427.633 198.333 427.37 197.546C427.37 197.546 430.001 199.646 431.316 201.483C431.316 201.483 433.684 199.384 433.422 195.446C433.158 191.509 429.738 186.522 423.95 186.522C418.424 186.522 415.794 190.721 415.794 190.721C415.794 190.721 413.688 192.034 413.688 194.659C413.163 197.809 414.215 199.646 416.056 201.483Z" fill="#52331D"/>
</g>
<path d="M119.875 56.5311C131.935 56.5311 141.711 46.7778 141.711 34.7457C141.711 22.7138 131.935 12.96 119.875 12.96C107.814 12.96 98.0371 22.7138 98.0371 34.7457C98.0371 46.7778 107.814 56.5311 119.875 56.5311Z" fill="#DE051F"/>
<mask id="mask2_2294_44229" style="mask-type:alpha" maskUnits="userSpaceOnUse" x="98" y="12" width="44" height="45">
<path d="M119.873 56.5311C131.933 56.5311 141.709 46.7778 141.709 34.7457C141.709 22.7138 131.933 12.96 119.873 12.96C107.812 12.96 98.0352 22.7138 98.0352 34.7457C98.0352 46.7778 107.812 56.5311 119.873 56.5311Z" fill="#DE051F"/>
</mask>
<g mask="url(#mask2_2294_44229)">
<path d="M129.345 37.6332C128.556 33.9585 129.609 32.3836 130.135 27.134L120.401 26.8716L110.666 27.134C110.929 32.3836 112.507 33.4335 111.455 37.6332C109.877 43.1452 105.93 50.4946 120.664 50.7568C134.871 50.7568 130.924 43.1452 129.345 37.6332Z" fill="#4B2C61"/>
<path d="M118.032 39.4707C118.032 39.4707 118.032 42.0954 116.716 43.4078C115.4 44.7202 114.085 46.8197 114.085 46.8197C114.085 46.8197 116.716 51.0201 122.767 50.4948C128.556 49.9696 129.608 46.0326 129.608 46.0326C129.608 46.0326 124.346 45.5077 123.82 40.2581C123.294 35.271 122.242 35.271 122.242 35.271L118.032 39.4707Z" fill="#F8E1CC"/>
<path d="M114.874 44.7198C114.874 44.7198 110.927 44.1948 109.086 44.7198C107.244 45.2447 106.455 44.9823 106.98 46.5571C107.507 48.1321 110.401 55.4814 109.086 59.9432C107.77 64.4057 105.928 88.0287 105.928 88.0287C105.928 88.0287 120.399 88.554 125.924 88.8162C131.449 89.0784 135.658 88.291 135.658 88.291C135.658 88.291 136.974 78.317 135.658 73.5922C134.343 68.8675 133.027 61.7811 133.027 61.7811C133.027 61.7811 132.238 51.2819 133.291 48.9195C134.87 46.5571 135.658 46.2949 133.817 45.5073C131.975 44.9823 130.134 44.1948 128.555 44.1948C126.976 44.1948 126.45 44.1948 125.398 44.9823C124.608 45.7697 123.03 47.3446 120.399 47.0824C117.768 46.8193 116.452 45.2447 116.452 45.2447C116.452 45.2447 115.4 44.7198 114.874 44.7198Z" fill="#CCB4AA"/>
<path d="M107.771 45.2448C107.771 45.2448 106.455 44.7199 104.35 46.0323C102.245 47.8699 100.667 51.8072 100.14 54.1688C99.6145 56.5311 98.8252 59.1565 98.8252 59.1565C98.8252 59.1565 101.456 60.7307 104.35 60.7307C106.981 60.7307 108.823 60.9937 108.823 60.9937C108.823 60.9937 110.139 53.6443 109.612 50.2323C109.875 47.6069 109.349 46.295 107.771 45.2448Z" fill="#355D75"/>
<path d="M131.714 48.1318C131.714 48.1318 133.029 44.9819 135.397 46.2946C137.765 47.8696 139.607 53.1188 140.396 54.9559C140.922 56.7939 141.711 60.2059 141.711 60.2059C141.711 60.2059 138.554 61.5178 136.186 61.7808C133.818 62.0431 131.977 62.0431 131.977 62.0431C131.977 62.0431 131.187 55.2189 131.187 52.8566C130.925 49.9689 131.714 48.1318 131.714 48.1318Z" fill="#355D75"/>
<path d="M113.294 31.5961C113.294 31.5961 112.505 30.8087 111.979 31.0711C111.716 31.3337 111.19 32.3836 111.716 33.171C111.979 33.9584 112.242 35.0084 112.505 35.0084C112.769 35.2708 113.821 35.2708 113.821 35.2708C113.821 35.0084 113.294 31.5961 113.294 31.5961Z" fill="#F8E1CC"/>
<path d="M127.765 31.5966C127.765 31.5966 128.554 30.8092 129.08 31.0716C129.343 31.3342 129.87 32.3841 129.343 33.1715C129.08 33.9589 128.817 35.0089 128.554 35.0089C128.291 35.2713 127.238 35.2713 127.238 35.2713C126.975 35.0088 127.765 31.5966 127.765 31.5966Z" fill="#F8E1CC"/>
<path d="M128.03 25.2965C126.714 21.3593 122.768 20.0469 120.663 20.0469C118.558 20.0469 114.612 20.8343 113.297 25.2965C111.981 29.2336 113.822 35.2706 115.138 37.6329C116.454 39.7328 119.085 41.8326 120.926 41.8326C122.768 41.8326 125.399 39.7328 126.714 37.6329C127.241 35.0082 129.082 29.2336 128.03 25.2965Z" fill="#F8E1CC"/>
<path d="M113.032 31.8583C113.032 31.8583 113.558 27.921 115.4 25.8213C115.4 25.8213 116.715 28.971 119.61 30.0209C119.61 30.0209 119.61 28.446 119.346 27.3961C119.346 27.3961 121.714 29.7584 124.871 30.0209C124.871 30.0209 124.609 28.7085 124.346 27.921C124.346 27.921 126.977 30.0209 128.292 31.8583C128.292 31.8583 130.66 29.7584 130.397 25.8213C130.134 21.884 126.714 16.897 120.925 16.897C115.4 16.897 112.769 21.0967 112.769 21.0967C112.769 21.0967 110.664 22.409 110.664 25.0338C110.138 28.1836 111.19 30.0209 113.032 31.8583Z" fill="#4B2C61"/>
</g>
<path d="M280.711 61.1153C292.772 61.1153 302.548 51.3612 302.548 39.3296C302.548 27.2977 292.772 17.5439 280.711 17.5439C268.65 17.5439 258.874 27.2977 258.874 39.3296C258.874 51.3612 268.65 61.1153 280.711 61.1153Z" fill="#0064B7"/>
<mask id="mask3_2294_44229" style="mask-type:alpha" maskUnits="userSpaceOnUse" x="258" y="17" width="45" height="45">
<path d="M280.711 61.1153C292.772 61.1153 302.548 51.3612 302.548 39.3296C302.548 27.2977 292.772 17.5439 280.711 17.5439C268.65 17.5439 258.874 27.2977 258.874 39.3296C258.874 51.3612 268.65 61.1153 280.711 61.1153Z" fill="#0064B7"/>
</mask>
<g mask="url(#mask3_2294_44229)">
<path d="M278.606 44.0539C278.606 44.0539 278.606 46.9408 277.554 47.9913C276.502 49.041 274.66 51.1412 274.66 51.1412C274.66 51.1412 277.554 55.6029 283.079 55.0777C288.604 54.5532 289.919 50.6159 289.919 50.6159C289.919 50.6159 284.658 50.0907 283.868 45.1038C283.342 40.1168 282.553 40.1167 282.553 40.1167L278.606 44.0539Z" fill="#FFB07E"/>
<path d="M275.186 49.3036C275.186 49.3036 271.24 48.7783 269.135 49.3036C267.03 49.828 266.241 49.5658 266.768 50.8777C267.293 52.4526 270.188 59.802 268.872 64.5267C267.557 69.2515 265.715 92.6123 265.715 92.6123C265.715 92.6123 280.185 93.1368 285.448 93.3998C290.972 93.662 294.919 92.6123 294.919 92.6123C294.919 92.6123 295.972 82.3753 294.919 77.9136C293.867 73.451 292.025 66.1017 292.025 66.1017C292.025 66.1017 290.972 55.6025 292.288 53.2401C293.604 50.6155 294.919 50.6155 292.814 49.828C290.709 49.0405 289.131 48.7783 287.816 48.7783C286.5 48.7783 285.448 48.7783 284.658 49.5658C283.869 50.3532 282.028 52.1904 279.922 51.9282C277.554 51.6651 275.713 49.828 275.713 49.828C275.713 49.828 275.713 49.3036 275.186 49.3036Z" fill="#1B3A62"/>
<path d="M268.346 50.0909C268.346 50.0909 267.03 49.5657 264.926 51.1406C262.558 52.7155 261.242 56.6528 260.453 59.2774C259.664 61.902 259.401 64.0022 259.401 64.0022C259.401 64.0022 262.295 65.3141 264.926 65.3141C267.557 65.3141 269.662 65.5771 269.662 65.5771C269.662 65.5771 270.714 58.2278 270.451 54.8149C270.188 52.1903 269.925 51.1406 268.346 50.0909Z" fill="#00AEEF"/>
<path d="M292.024 52.7151C292.024 52.7151 293.076 49.5653 295.707 51.1402C298.339 52.4529 300.18 57.9651 300.707 59.5401C301.232 61.115 302.022 64.527 302.022 64.527C302.022 64.527 298.864 65.8389 296.497 65.8389C293.866 66.102 292.287 66.102 292.287 66.102C292.287 66.102 291.235 59.277 291.498 56.9154C291.498 54.8153 292.024 52.7151 292.024 52.7151Z" fill="#00AEEF"/>
<path d="M290.183 34.6045C290.183 34.6045 290.71 34.8669 290.973 35.6544C291.235 36.1793 290.183 38.5416 289.657 39.0666" fill="#FFB07E"/>
<path d="M290.445 26.7304C290.183 20.1685 281.764 20.1685 281.764 20.1685C281.764 20.1685 273.344 20.1685 273.081 26.7304C273.081 29.6177 273.081 32.2424 273.344 34.6047C273.608 36.1796 273.608 38.017 273.87 39.0669C273.87 39.8543 274.133 40.1168 274.133 40.3793C274.397 40.9043 274.66 41.4292 275.185 41.9541C275.975 43.2666 277.553 44.5789 278.343 45.1039C279.132 45.6288 280.974 45.8913 281.764 45.8913C282.553 45.8913 284.657 45.6288 285.184 45.1039C285.973 44.5789 287.552 43.004 288.341 41.9541C288.867 41.4292 289.13 40.9043 289.393 40.3793C289.393 40.1168 289.656 39.5918 289.656 39.0669C289.92 38.017 290.183 36.4421 290.183 34.6047C290.445 32.5049 290.445 29.6177 290.445 26.7304Z" fill="#FFB07E"/>
<path d="M273.083 34.6045C273.346 36.1793 273.346 38.0167 273.61 39.0666C273.083 38.5416 272.031 36.4419 272.294 35.6544C272.557 35.3919 273.083 34.6045 273.083 34.6045Z" fill="#FFB07E"/>
<path d="M275.449 25.6799C275.186 27.7797 275.186 28.5672 274.397 29.8795C273.87 30.9295 272.818 32.5043 273.081 33.5542C272.818 32.7668 273.081 31.9794 272.554 31.192C272.029 30.4045 271.765 29.8795 272.029 28.8296C272.029 27.7798 272.029 26.2049 272.818 25.1549C273.081 24.63 273.607 24.3676 273.87 24.105C273.87 23.8426 273.87 23.3176 274.133 23.0551C275.186 20.6928 279.396 20.6929 281.763 20.6929C281.763 20.6929 290.182 20.6929 290.445 27.2548C290.445 30.4045 290.445 33.5542 290.182 35.9165C290.182 35.1291 289.393 34.6042 289.13 33.5542C288.604 32.7668 288.604 31.9794 287.814 30.9295C287.025 29.8795 285.184 29.3546 283.868 28.8296C280.974 28.0422 277.817 27.5172 275.449 25.6799Z" fill="#915F41"/>
<path d="M279.396 25.1553C279.921 25.4177 280.185 25.9427 280.711 26.2052C281.237 26.7301 281.5 26.9926 282.026 27.5176C282.553 27.78 283.079 28.0425 283.605 28.305C283.868 28.305 284.131 28.5675 284.394 28.5675C284.657 28.5675 284.921 28.83 285.184 29.0924C284.657 28.83 284.131 28.5675 283.605 28.5675C283.342 28.5675 283.078 28.305 282.816 28.305C282.553 28.0425 282.289 28.0425 282.026 27.78C281.5 27.5176 281.237 26.9926 280.711 26.4677C280.448 25.9427 279.921 25.4177 279.396 25.1553Z" fill="#BB8B6C"/>
<path d="M283.868 26.2056C283.868 26.468 284.131 26.7305 284.131 26.993C284.131 27.2555 284.394 27.5179 284.657 27.5179C284.921 28.0429 285.446 28.3054 285.71 28.5679C285.973 28.8303 286.499 29.0928 287.025 29.6178C287.289 29.8802 287.551 29.8802 287.551 30.1427C287.289 29.8802 287.025 29.8802 287.025 29.6178C286.499 29.3553 286.236 29.0929 285.71 28.5679C285.446 28.0429 284.921 27.7804 284.657 27.2555C284.394 26.993 284.394 26.7305 284.131 26.468C284.131 26.7305 283.868 26.468 283.868 26.2056Z" fill="#BB8B6C"/>
</g>
<path d="M409.376 93.2043C421.436 93.2043 431.213 83.451 431.213 71.4192C431.213 59.3866 421.436 49.6333 409.376 49.6333C397.315 49.6333 387.538 59.3866 387.538 71.4192C387.538 83.451 397.315 93.2043 409.376 93.2043Z" fill="#F79F03"/>
<mask id="mask4_2294_44229" style="mask-type:alpha" maskUnits="userSpaceOnUse" x="387" y="49" width="45" height="45">
<path d="M409.374 93.2038C421.434 93.2038 431.211 83.4505 431.211 71.4187C431.211 59.3861 421.434 49.6328 409.374 49.6328C397.313 49.6328 387.536 59.3861 387.536 71.4187C387.536 83.4505 397.313 93.2038 409.374 93.2038Z" fill="#F79F03"/>
</mask>
<g mask="url(#mask4_2294_44229)">
<path d="M407.267 76.4053C407.267 76.4053 407.267 79.0299 405.952 80.3426C404.636 81.6545 403.321 83.4925 403.321 83.4925C403.321 83.4925 405.952 87.9542 411.74 87.4298C417.528 86.9045 418.318 82.9672 418.318 82.9672C418.318 82.9672 413.056 82.442 412.267 77.1928C411.477 71.9436 410.688 72.2058 410.688 72.2058L407.267 76.4053Z" fill="#FFBF99"/>
<path d="M403.847 81.3919C403.847 81.3919 399.9 80.8667 397.796 81.3919C395.691 81.9172 395.165 81.6542 395.691 83.2291C396.217 84.804 398.848 92.1534 397.796 96.6159C396.48 101.078 394.901 124.438 394.901 124.438C394.901 124.438 409.109 124.963 414.634 125.226C420.159 125.488 424.106 124.438 424.106 124.438C424.106 124.438 425.421 114.465 424.106 110.002C422.79 105.54 421.475 98.1908 421.475 98.1908C421.475 98.1908 420.685 88.2161 421.738 85.3292C423.316 82.9669 424.106 82.7038 422.264 82.1794C420.423 81.6542 418.317 80.8667 417.265 80.8667C415.687 80.8667 415.16 80.8667 414.371 81.6542C413.582 82.4416 412.003 84.0165 409.635 83.7543C407.267 83.4913 405.425 81.6542 405.425 81.6542C405.425 81.6542 404.373 81.3919 403.847 81.3919Z" fill="#1B3A62"/>
<path d="M397.27 82.1797C397.27 82.1797 395.955 81.6553 394.113 82.9672C392.009 84.8043 390.43 88.7416 389.641 91.104C388.851 93.4664 388.325 95.8288 388.325 95.8288C388.325 95.8288 390.956 97.4037 393.587 97.4037C396.218 97.4037 398.323 97.6659 398.323 97.6659C398.323 97.6659 399.638 90.5796 399.112 87.1667C399.112 84.0176 398.849 83.2302 397.27 82.1797Z" fill="#021E34"/>
<path d="M420.685 85.0672C420.685 85.0672 422.001 82.1796 424.368 83.2301C426.736 84.542 428.841 90.0542 429.368 91.6291C429.894 93.204 430.683 96.6161 430.683 96.6161C430.683 96.6161 427.789 97.9288 425.421 98.191C423.053 98.4532 421.212 98.4532 421.212 98.4532C421.212 98.4532 420.423 91.8913 420.423 89.2667C420.159 86.6421 420.685 85.0672 420.685 85.0672Z" fill="#021E34"/>
<path d="M409.635 73.7803H406.479C406.479 73.7803 406.742 76.4049 409.635 76.4049C412.53 76.4049 412.793 73.7803 412.793 73.7803H409.635Z" fill="white"/>
<path d="M418.843 68.0062C419.107 68.5307 418.054 70.6308 417.266 71.1561C417.528 70.3686 417.528 68.7937 417.791 66.9565C417.791 67.2188 418.581 67.481 418.843 68.0062Z" fill="#FFBF99"/>
<path d="M418.318 59.3441C418.055 53.3067 409.899 53.0444 409.899 53.0444C409.899 53.0444 401.743 53.0444 401.48 59.3441C401.48 61.9687 401.48 64.5933 401.743 66.9557C402.006 68.7937 402.006 70.1056 402.27 71.1552C402.27 71.6805 402.533 72.4679 402.533 72.7302C402.795 73.2554 403.059 74.0429 403.322 74.5681C404.111 75.88 405.427 77.1927 406.216 77.4549C406.742 77.718 408.584 78.2424 409.374 77.9802C410.162 77.9802 411.741 77.718 412.53 77.4549C413.32 76.9305 414.635 75.6178 415.425 74.5681C415.688 74.0429 416.214 73.2554 416.214 72.7302C416.214 72.4679 416.477 71.9427 416.477 71.1552C416.74 70.3678 416.74 68.7937 417.003 66.9557C418.318 65.1186 418.318 62.494 418.318 59.3441Z" fill="#FFBF99"/>
<path d="M401.479 67.2192C401.742 69.0564 401.742 70.3691 402.005 71.4188C401.479 70.8935 400.426 68.7942 400.426 68.2689C400.953 67.4815 401.479 67.2192 401.479 67.2192Z" fill="#FFBF99"/>
<path d="M414.372 76.6674C413.846 77.1927 413.057 77.9801 412.793 78.2424C412.267 78.5046 410.689 79.5551 409.9 79.5551H409.636C408.847 79.5551 407.532 78.7676 406.742 78.2424C406.216 77.9801 405.426 77.4549 405.164 76.6674C405.953 76.6674 405.69 75.3547 405.953 74.8303C406.216 74.3051 406.742 74.3051 407.532 74.0428C407.794 73.7798 408.058 73.7798 408.321 73.5176C408.584 73.2554 409.11 73.2554 409.636 73.2554H409.9C410.162 73.2554 410.689 73.2554 411.215 73.5176C411.741 73.7798 411.741 73.7798 412.004 74.0428C412.268 74.3051 413.32 74.3051 413.582 74.8303C414.109 75.0925 413.32 76.4052 414.372 76.6674ZM412.793 76.1422C413.32 75.3547 412.793 75.3547 412.004 74.8303C411.478 74.5673 410.162 74.3051 409.9 74.3051C409.373 74.3051 408.058 74.8303 407.794 74.8303C407.269 75.0925 406.479 75.0925 407.005 76.1422C407.269 76.6674 407.794 77.4549 408.584 77.4549C409.11 77.4549 409.9 76.6674 410.162 75.88C410.425 76.1422 410.689 77.4549 411.741 77.4549C412.004 77.1927 412.53 76.4052 412.793 76.1422Z" fill="#915F41"/>
<path d="M409.899 65.3812C410.162 65.3812 410.426 65.3812 410.689 65.3812C410.952 65.3812 410.952 65.119 411.215 64.8568C411.478 64.5946 412.005 64.5938 412.794 64.5938C413.583 64.5938 414.109 64.5938 414.635 64.5938C414.898 64.5938 416.477 64.5938 416.477 64.5938C416.477 64.5938 417.003 64.8568 417.003 65.119C417.003 65.119 417.003 65.3812 417.266 65.3812C417.266 65.6442 417.266 66.1687 417.266 66.6939C417.266 67.2192 417.003 68.0066 416.74 68.2688H416.477C416.214 68.2688 415.687 68.2688 415.162 68.2688C414.635 68.2688 413.846 68.2688 413.32 68.2688C412.794 68.2688 411.741 68.2688 411.478 66.9561C411.478 66.6939 411.215 65.6442 411.215 65.3812C410.689 65.6442 410.162 65.6442 409.899 65.3812ZM412.005 67.7436C412.267 67.7436 412.794 68.0066 412.794 68.0066C413.057 68.0066 415.162 68.0066 415.951 68.0066C416.214 68.0066 416.214 68.0066 416.477 67.7436C416.74 67.4814 417.003 65.6442 416.74 65.3812C416.74 65.119 416.477 65.119 416.214 64.8568C415.687 64.5946 412.005 64.5946 411.741 64.8568C411.478 65.119 411.478 65.119 411.478 65.3812C411.741 65.3812 411.741 65.3812 411.741 65.6442C411.741 65.9065 411.741 66.4317 411.478 66.1687C411.478 66.1687 411.478 65.9065 411.215 66.1687V66.6939C411.741 67.7436 412.005 67.7436 412.005 67.7436Z" fill="#6B4732"/>
<path d="M409.9 65.3812C409.637 65.3812 409.373 65.3812 409.111 65.3812C408.848 65.3812 408.848 65.119 408.584 64.8568C408.321 64.5946 407.795 64.5938 407.006 64.5938C406.216 64.5938 405.69 64.5938 405.164 64.5938C404.901 64.5938 403.323 64.5938 403.323 64.5938C403.323 64.5938 402.796 64.8568 402.796 65.119C402.796 65.119 402.796 65.3812 402.533 65.3812C402.533 65.6442 402.533 66.1687 402.533 66.6939C402.533 67.2192 402.796 68.0066 403.059 68.2688H403.323C403.585 68.2688 404.112 68.2688 404.638 68.2688C405.164 68.2688 405.953 68.2688 406.48 68.2688C407.005 68.2688 408.058 68.2688 408.321 66.9561C408.321 66.6939 408.584 65.6442 408.584 65.3812C408.848 65.6442 409.637 65.6442 409.9 65.3812ZM407.795 67.7436C407.532 67.7436 407.006 68.0066 407.006 68.0066C406.743 68.0066 404.638 68.0066 403.848 68.0066C403.585 68.0066 403.585 68.0066 403.323 67.7436C403.059 67.4814 402.796 65.6442 403.059 65.3812C403.059 65.119 403.323 65.119 403.585 64.8568C404.112 64.5946 407.795 64.5946 408.058 64.8568C408.321 65.119 408.321 65.119 408.321 65.3812C408.058 65.3812 408.058 65.3812 408.058 65.6442C408.058 65.9065 408.058 66.4317 408.321 66.1687C408.321 66.1687 408.321 65.9065 408.584 66.1687V66.6939C408.058 67.7436 407.795 67.7436 407.795 67.7436Z" fill="#6B4732"/>
</g>
<path fill-rule="evenodd" clip-rule="evenodd" d="M356.295 88.4514C356.295 88.146 356.602 87.8398 356.908 87.8398C357.214 87.8398 357.521 88.146 357.521 88.4514V90.8962C357.521 91.2023 357.214 91.5077 356.908 91.5077C356.602 91.5077 356.295 91.2023 356.295 90.8962V88.4514ZM352.619 90.5908C352.465 90.4381 352.465 89.9792 352.619 89.8265C352.772 89.6738 353.231 89.6738 353.384 89.8265L355.223 91.6604C355.376 91.8131 355.376 92.272 355.223 92.4247C355.07 92.5774 354.61 92.5774 354.457 92.4247L352.619 90.5908ZM351.393 94.564C351.087 94.564 350.781 94.2586 350.781 93.9525C350.781 93.6471 351.087 93.3417 351.393 93.3417H353.844C354.15 93.3417 354.457 93.6471 354.457 93.9525C354.457 94.2586 354.15 94.564 353.844 94.564H351.393ZM353.384 98.3846C353.231 98.5373 352.772 98.5373 352.619 98.3846C352.465 98.2319 352.465 97.773 352.619 97.6203L354.457 95.7864C354.61 95.6337 355.07 95.6337 355.223 95.7864C355.376 95.9391 355.376 96.398 355.223 96.5507L353.384 98.3846ZM357.521 99.607C357.521 99.9124 357.214 100.219 356.908 100.219C356.602 100.219 356.295 99.9124 356.295 99.607V97.1623C356.295 96.8561 356.602 96.5507 356.908 96.5507C357.214 96.5507 357.521 96.8561 357.521 97.1623V99.607ZM361.197 97.6203C361.35 97.773 361.35 98.2319 361.197 98.3846C361.044 98.5373 360.584 98.5373 360.431 98.3846L358.593 96.5507C358.439 96.398 358.439 95.9391 358.593 95.7864C358.746 95.6337 359.205 95.6337 359.358 95.7864L361.197 97.6203ZM362.422 93.4944C362.729 93.4944 363.035 93.7998 363.035 94.106C363.035 94.4113 362.729 94.7167 362.422 94.7167H359.971C359.665 94.7167 359.358 94.4113 359.358 94.106C359.358 93.7998 359.665 93.4944 359.971 93.4944H362.422ZM360.431 89.8265C360.584 89.6738 361.044 89.6738 361.197 89.8265C361.35 89.9792 361.35 90.4381 361.197 90.5908L359.358 92.4247C359.205 92.5774 358.746 92.5774 358.593 92.4247C358.439 92.272 358.439 91.8131 358.593 91.6604L360.431 89.8265Z" fill="#EE384E"/>
</svg>
