<svg width="520" height="520" viewBox="0 0 520 520" fill="none" xmlns="http://www.w3.org/2000/svg">
<g clip-path="url(#clip0_3707_4988)">
<path d="M95.9816 44.016C95.9816 44.016 90.602 37.8582 95.3063 33.117C100.011 28.3758 109.774 30.6379 111.125 36.3501C112.464 42.0624 109.099 45.067 113.254 46.8036C117.397 48.5401 128.225 55.1206 125.18 60.6615C122.147 66.2024 115.291 64.9229 117.042 73.2856C118.793 81.6483 132.632 86.2181 123.635 95.2092C114.639 104.2 95.5124 115.293 89.7779 94.9693C84.0435 74.6451 102.14 82.3795 93.8527 68.373C85.5658 54.3666 93.99 55.8746 97.172 51.6133C100.331 47.3634 95.9816 44.016 95.9816 44.016Z" fill="#023EA1"/>
<path d="M106.223 53.3735C106.223 53.3735 104.163 74.9202 108.639 94.1362C113.114 113.352 116.948 116.837 116.948 116.837" stroke="white" stroke-width="0.917146" stroke-miterlimit="10" stroke-linecap="round" stroke-linejoin="round"/>
<path d="M50.0817 50.1512C50.0817 50.1512 64.1718 40.2118 67.0905 49.3286C70.0206 58.4568 74.0153 58.1826 78.1358 57.6913C82.2564 57.2001 89.2385 53.2586 91.8024 63.0494C94.3777 72.8402 91.9054 78.8495 96.2091 82.0484C100.513 85.2587 113.573 103.938 105.034 107.057C96.4952 110.164 86.2739 102.11 82.8745 97.5743C79.475 93.0387 71.9436 92.696 66.1748 93.8727C60.406 95.0495 52.8059 91.9877 55.1867 84.4932C57.5789 76.9988 53.8131 69.2301 48.5251 67.4821C43.2599 65.7342 40.6503 57.0401 50.0817 50.1512Z" fill="#FCBE42"/>
<path d="M57.7969 59.1533L107.85 114.562" stroke="white" stroke-width="0.917146" stroke-miterlimit="10" stroke-linecap="round" stroke-linejoin="round"/>
<path d="M119.55 100.133C119.55 100.133 91.3587 71.6176 80.8398 45.8896" stroke="#DE051F" stroke-width="0.917146" stroke-miterlimit="10"/>
<path d="M76.7988 28.8906C76.7988 28.8906 86.5508 36.4422 81.9953 48.5408C81.9953 48.5408 72.4837 43.3883 76.7988 28.8906Z" stroke="#DE051F" stroke-width="0.917146" stroke-miterlimit="10"/>
<path d="M93.5562 68.5333C93.5562 68.5333 88.7947 58.2055 99.0045 49.123C99.0045 49.123 106.009 56.9489 93.5562 68.5333Z" stroke="#DE051F" stroke-width="0.917146" stroke-miterlimit="10"/>
<path d="M110.037 89.6118C110.037 89.6118 103.341 80.4151 111.582 69.5161C111.582 69.5047 119.983 75.811 110.037 89.6118Z" stroke="#DE051F" stroke-width="0.917146" stroke-miterlimit="10"/>
<path d="M109.764 90.0001C109.764 90.0001 102.496 81.2376 89.8711 86.5042C89.8825 86.5042 93.9115 96.1922 109.764 90.0001Z" stroke="#DE051F" stroke-width="0.917146" stroke-miterlimit="10"/>
<path d="M93.6009 68.3741C93.6009 68.3741 87.5117 58.7661 74.3145 62.3763C74.3145 62.3763 77.0844 72.4984 93.6009 68.3741Z" stroke="#DE051F" stroke-width="0.917146" stroke-miterlimit="10"/>
<path d="M416.203 209.039C441.584 223.692 474.038 214.996 488.691 189.616C503.344 164.235 494.648 131.782 469.268 117.128C443.887 102.475 411.434 111.171 396.78 136.551C382.127 161.932 390.823 194.386 416.203 209.039Z" stroke="#DE051F" stroke-width="0.917146" stroke-miterlimit="10" stroke-dasharray="5.5 5.5"/>
<path d="M489.439 181.423C493.728 183.899 499.211 182.429 501.687 178.141C504.163 173.853 502.694 168.369 498.405 165.894C494.117 163.418 488.634 164.887 486.158 169.175C483.682 173.464 485.151 178.947 489.439 181.423Z" fill="#003EB0"/>
<path d="M498.732 172.104L493.32 176.7L491.791 170.244L498.732 172.104Z" fill="white"/>
<path d="M448.444 310.941H103.14C100.363 310.941 98.123 308.699 98.123 305.919V69.5983C98.123 66.8192 100.363 64.5767 103.14 64.5767H448.43C451.207 64.5767 453.447 66.8192 453.447 69.5983V305.919C453.461 308.685 451.207 310.941 448.444 310.941Z" fill="#0064B7"/>
<path d="M436.526 300.623H111.755C108.979 300.623 106.738 298.381 106.738 295.602V112.139C106.738 109.36 108.979 107.117 111.755 107.117H436.539C439.316 107.117 441.556 109.36 441.556 112.139V295.602C441.542 298.381 439.302 300.623 436.526 300.623Z" fill="#D9EAFD"/>
<path d="M444.085 269.174C428.887 259.103 412.98 274.737 412.98 274.737C394.063 255.463 369.68 271.516 369.68 271.516C362.967 261.015 350.948 267.232 350.948 267.232C343.703 256.946 328.952 258.776 328.952 258.776C322.323 241.098 307.209 244.952 307.209 244.952C307.209 229.524 294.752 228.552 294.752 228.552V174.26L278.533 183.411L266.608 174.26V228.562C266.608 228.562 254.151 229.534 254.151 244.963C254.151 244.963 239.037 241.108 232.408 258.786C232.408 258.786 217.656 256.956 210.412 267.242C210.412 267.242 198.393 261.036 191.68 271.526C191.68 271.526 167.297 255.453 148.379 274.747C148.379 274.747 132.481 259.113 117.274 269.185C103.937 283.977 102.101 302.933 114.449 300.635H446.927C458.566 300.37 459.275 279.246 444.085 269.174Z" fill="#D7DDEA"/>
<path d="M453.456 96.0825V81.2376C453.456 72.0335 445.842 64.5767 436.647 64.5767H115.848C106.653 64.5767 99.0391 72.0335 99.0391 81.2376V96.0825H453.456Z" fill="#0064B7"/>
<path d="M120.736 89.6405C122.433 87.9427 122.433 85.1901 120.736 83.4923C119.04 81.7945 116.291 81.7945 114.594 83.4923C112.898 85.1901 112.898 87.9427 114.594 89.6405C116.291 91.3383 119.04 91.3383 120.736 89.6405Z" fill="#DC051F"/>
<path d="M131.355 91.1018C133.753 91.1018 135.698 89.1553 135.698 86.7543C135.698 84.3532 133.753 82.4067 131.355 82.4067C128.956 82.4067 127.012 84.3532 127.012 86.7543C127.012 89.1553 128.956 91.1018 131.355 91.1018Z" fill="#CCE5FF"/>
<path d="M144.478 91.7073C146.877 91.7073 148.821 89.7608 148.821 87.3597C148.821 84.9587 146.877 83.0122 144.478 83.0122C142.079 83.0122 140.135 84.9587 140.135 87.3597C140.135 89.7608 142.079 91.7073 144.478 91.7073Z" fill="white"/>
<path d="M229.185 289.203H120.47C119.562 289.203 118.82 288.46 118.82 287.552V120.296C118.82 119.388 119.562 118.645 120.47 118.645H229.185C230.092 118.645 230.834 119.388 230.834 120.296V287.538C230.834 288.46 230.092 289.203 229.185 289.203Z" fill="white"/>
<path d="M218.836 141.727H130.618C129.882 141.727 129.279 141.691 129.279 141.647V133.543C129.279 133.499 129.882 133.463 130.618 133.463H218.836C219.572 133.463 220.175 133.499 220.175 133.543V141.646C220.175 141.691 219.572 141.727 218.836 141.727Z" fill="#EAF4FF"/>
<path d="M218.836 159.08H130.618C129.882 159.08 129.279 159.044 129.279 159V150.897C129.279 150.853 129.882 150.817 130.618 150.817H218.836C219.572 150.817 220.175 150.853 220.175 150.897V158.999C220.175 159.044 219.572 159.08 218.836 159.08Z" fill="#EAF4FF"/>
<path d="M218.836 176.433H130.618C129.882 176.433 129.279 176.397 129.279 176.353V168.249C129.279 168.205 129.882 168.169 130.618 168.169H218.836C219.572 168.169 220.175 168.205 220.175 168.249V176.352C220.175 176.397 219.572 176.433 218.836 176.433Z" fill="#EAF4FF"/>
<path d="M218.836 193.785H130.618C129.882 193.785 129.279 193.749 129.279 193.705V185.602C129.279 185.558 129.882 185.522 130.618 185.522H218.836C219.572 185.522 220.175 185.558 220.175 185.602V193.705C220.175 193.749 219.572 193.785 218.836 193.785Z" fill="#EAF4FF"/>
<path d="M218.836 211.138H130.618C129.882 211.138 129.279 211.102 129.279 211.058V202.955C129.279 202.911 129.882 202.875 130.618 202.875H218.836C219.572 202.875 220.175 202.911 220.175 202.955V211.058C220.175 211.102 219.572 211.138 218.836 211.138Z" fill="#EAF4FF"/>
<path d="M240.046 199.525C239.392 199.525 238.855 198.988 238.855 198.333V196.163H238.396V191.825H238.855V187.487H238.396V183.148H238.855V178.81H238.396V174.472H238.855V170.133H238.396V165.795H238.855V161.457H238.396V157.118H238.855V152.78H238.396V148.442H238.855V144.103H238.396V139.765H238.855V135.427H238.396V131.088H238.855V126.75H238.396V122.411H238.855V120.242C238.855 119.587 239.392 119.05 240.046 119.05H242.393V118.591H247.086V119.05H251.78V118.591H256.473V119.05H261.167V118.591H265.86V119.05H270.554V118.591H275.248V119.05H279.941V118.591H284.635V119.05H289.328V118.591H294.022V119.05H298.715V118.591H303.409V119.05H308.103V118.591H312.796V119.05H317.49V118.591H322.183V119.05H326.877V118.591H331.571V119.05H336.264V118.591H340.958V119.05H345.651V118.591H350.345V119.05H355.038V118.591H359.732V119.05H364.426V118.591H369.119V119.05H373.813V118.591H378.506V119.05H383.2V118.591H387.893V119.05H392.587V118.591H397.281V119.05H401.974V118.591H406.668V119.05H411.361V118.591H416.055V119.05H420.748V118.591H425.442V119.05H427.789C428.442 119.05 428.98 119.587 428.98 120.242V122.411H429.438V126.75H428.98V131.088H429.438V135.427H428.98V139.765H429.438V144.103H428.98V148.442H429.438V152.78H428.98V157.118H429.438V161.457H428.98V165.795H429.438V170.133H428.98V174.472H429.438V178.81H428.98V183.148H429.438V187.487H428.98V191.825H429.438V196.163H428.98V198.333C428.98 198.988 428.442 199.525 427.789 199.525H425.442V199.984H420.749V199.525H416.055V199.984H411.361V199.525H406.668V199.984H401.974V199.525H397.281V199.984H392.587V199.525H387.893V199.984H383.2V199.525H378.506V199.984H373.813V199.525H369.119V199.984H364.426V199.525H359.732V199.984H355.038V199.525H350.345V199.984H345.651V199.525H340.958V199.984H336.264V199.525H331.571V199.984H326.877V199.525H322.183V199.984H317.49V199.525H312.796V199.984H308.103V199.525H303.409V199.984H298.715V199.525H294.022V199.984H289.328V199.525H284.635V199.984H279.941V199.525H275.248V199.984H270.554V199.525H265.86V199.984H261.167V199.525H256.473V199.984H251.78V199.525H247.086V199.984H242.393V199.525H240.046Z" fill="white" stroke="#0064B7" stroke-width="0.917146" stroke-dasharray="4.59 4.59"/>
<path d="M414.343 141.727H249.936C248.564 141.727 247.441 141.709 247.441 141.687V137.636C247.441 137.614 248.564 137.596 249.936 137.596H414.343C415.715 137.596 416.837 137.614 416.837 137.636V141.687C416.837 141.709 415.715 141.727 414.343 141.727Z" fill="#EAF4FF"/>
<path d="M414.343 154.948H249.936C248.564 154.948 247.441 154.931 247.441 154.909V150.857C247.441 150.835 248.564 150.817 249.936 150.817H414.343C415.715 150.817 416.837 150.835 416.837 150.857V154.908C416.837 154.931 415.715 154.948 414.343 154.948Z" fill="#EAF4FF"/>
<path d="M414.343 168.17H249.936C248.564 168.17 247.441 168.152 247.441 168.13V164.078C247.441 164.056 248.564 164.038 249.936 164.038H414.343C415.715 164.038 416.837 164.056 416.837 164.078V168.129C416.837 168.152 415.715 168.17 414.343 168.17Z" fill="#EAF4FF"/>
<path d="M414.343 181.391H249.936C248.564 181.391 247.441 181.373 247.441 181.351V177.3C247.441 177.278 248.564 177.26 249.936 177.26H414.343C415.715 177.26 416.837 177.278 416.837 177.3V181.351C416.837 181.373 415.715 181.391 414.343 181.391Z" fill="#EAF4FF"/>
<g filter="url(#filter0_d_3707_4988)">
<path d="M186.299 259.494L165.845 271.312C165.087 271.766 164.33 271.766 163.572 271.312L143.118 259.494C142.361 259.04 141.906 258.282 141.906 257.525V234.04C141.906 233.283 142.361 232.525 143.118 232.071L163.572 220.253C164.33 219.798 165.087 219.798 165.845 220.253L186.299 232.071C187.056 232.525 187.511 233.283 187.511 234.04V257.373C187.359 258.282 186.905 259.04 186.299 259.494Z" fill="white"/>
</g>
<path d="M164.631 245.706L180.539 236.312L164.631 227.828V245.706Z" fill="#0A489B"/>
<path d="M164.631 263.129L148.723 254.19V236.312L164.631 227.828V263.129Z" fill="#0F68DE"/>
<path d="M164.025 246.01L148.723 254.191" stroke="#D9D9D9" stroke-width="0.0917146" stroke-miterlimit="10" stroke-linecap="square" stroke-linejoin="bevel"/>
<path d="M164.631 245.706L148.723 236.312L164.631 227.828V245.706Z" fill="#0F68DE"/>
<path d="M164.631 263.585L148.723 254.191L164.631 245.707V263.585Z" fill="#3F86E4"/>
<rect x="80.8086" y="155.916" width="8.26321" height="8.26321" transform="rotate(45 80.8086 155.916)" fill="#EE384E"/>
<path d="M260.096 170.184L271.994 222.921C271.994 222.921 275.957 236.301 282.305 236.301C288.653 236.301 291.827 225.279 292.616 220.563C293.405 215.847 303.725 168.617 303.725 168.617L260.096 170.184Z" fill="#D7DDEA"/>
<path d="M268.463 173.121L273.487 195.402L275.066 202.41C275.066 202.41 276.225 206.8 277.014 208.17C278.1 210.055 279.884 212.29 282.145 212.29C286.059 212.29 288.008 207.077 288.501 204.164C288.995 201.252 295.342 172.15 295.342 172.15L268.463 173.121Z" fill="#DCE8F4"/>
<path d="M238.946 150.506C232.607 174.117 231.801 190.646 231.801 190.646C231.801 190.646 231.801 199.311 236.553 193.796C239.719 190.132 248.509 182.969 255.679 177.674C253.969 162.695 252.974 134.711 252.571 121.486C249.044 125.851 243.131 134.915 238.946 150.506Z" fill="#EE384E"/>
<path d="M262.741 137.125L255.596 118.238C255.596 118.238 254.404 119.242 252.578 121.485C252.981 134.711 253.976 162.695 255.686 177.674C259.28 175.006 262.47 172.819 264.328 171.759C269.878 168.601 262.741 137.125 262.741 137.125Z" fill="#EE384E"/>
<path d="M325.987 150.505C332.326 174.116 333.132 190.645 333.132 190.645C333.132 190.645 333.132 199.309 328.38 193.794C325.214 190.131 316.424 182.968 309.254 177.673C310.964 162.694 311.959 134.71 312.362 121.484C315.881 125.849 321.802 134.913 325.987 150.505Z" fill="#EE384E"/>
<path d="M302.19 137.125L309.336 118.238C309.336 118.238 310.528 119.241 312.353 121.485C311.95 134.71 310.955 162.694 309.245 177.673C305.652 175.005 302.462 172.819 300.603 171.758C295.045 168.601 302.19 137.125 302.19 137.125Z" fill="#EE384E"/>
<path d="M294.27 25.3608L264.677 25.3608C259.209 35.3144 253.922 48.4579 251.767 64.3183C248.174 90.9562 254.612 136.848 258.411 159.954H301.201C308.692 119.821 308.955 101.326 309.646 87.8559C310.904 63.3392 302.459 40.903 294.27 25.3608Z" fill="white"/>
<path d="M283.091 89.9033C294.485 89.9033 303.722 80.7386 303.722 69.4334C303.722 58.1281 294.485 48.9634 283.091 48.9634C271.697 48.9634 262.461 58.1281 262.461 69.4334C262.461 80.7386 271.697 89.9033 283.091 89.9033Z" fill="#EE384E"/>
<path d="M278.555 13.2357L268.828 18.3919C267.471 20.505 266.057 22.8302 264.676 25.3676H298.767C298.627 25.1065 298.495 24.8617 298.355 24.617C294.433 21.068 289.105 16.2299 286.877 14.0679C283.144 10.4291 278.555 13.2357 278.555 13.2357Z" fill="#EE384E"/>
<path d="M280.331 3.71626C280.331 3.71626 274.978 8.85619 268.836 18.3855L278.563 13.2292C278.563 13.2292 283.16 10.4226 286.893 14.0532C289.121 16.2234 294.441 21.0615 298.371 24.6023C291.876 12.4378 285.659 4.66266 284.697 3.7081C282.51 1.55422 280.331 3.71626 280.331 3.71626Z" fill="#BD4149"/>
<path d="M267.273 68.7816L281.975 53.7534C273.958 54.3082 267.602 60.7617 267.273 68.7816Z" fill="#0064E1"/>
<path d="M288.752 54.7393L268.459 75.4703C268.656 75.9354 268.878 76.3922 269.117 76.841L290.15 55.343C289.69 55.1227 289.229 54.9106 288.752 54.7393Z" fill="#0064E1"/>
<path d="M291.071 55.8325L269.643 77.7303C272.438 82.193 277.413 85.1709 283.111 85.1709C291.868 85.1709 298.972 78.1219 298.972 69.4329C298.972 63.624 295.782 58.5575 291.071 55.8325Z" fill="#0064E1"/>
<path d="M283.09 53.6948C282.712 53.6948 282.342 53.7275 281.963 53.7519L267.261 68.7801C267.253 69.0004 267.229 69.2125 267.229 69.4328C267.229 71.5704 267.664 73.6182 268.445 75.4702L288.739 54.7391C286.987 54.0701 285.088 53.6948 283.09 53.6948Z" fill="#003EB0"/>
<path d="M290.149 55.3516L269.115 76.8495C269.271 77.1596 269.469 77.4451 269.641 77.7388L291.069 55.8411C290.765 55.6698 290.461 55.4984 290.149 55.3516Z" fill="#003EB0"/>
<path d="M300.939 159.953H258.42C259.341 165.542 260.097 169.792 260.525 172.126C260.763 173.423 260.895 174.117 260.895 174.117H302.526L298.48 173.717C299.36 169.017 300.182 164.424 300.939 159.953Z" fill="#0064E1"/>
<path d="M298.765 25.3604H294.268C302.449 40.9025 310.902 63.3387 309.644 87.8636C309.035 99.7588 306.634 126.299 300.936 159.961H305.45C311.116 126.413 313.533 99.7099 314.142 87.8636C315.4 63.3387 306.947 40.9025 298.765 25.3604Z" fill="#BDBDBD"/>
<path d="M298.41 174.117H302.53C303.426 169.279 304.676 164.555 305.457 159.954H300.943C300.178 164.425 299.29 169.409 298.41 174.117Z" fill="#023EA1"/>
<path d="M285.038 126.258C285.03 126.201 285.022 126.136 284.997 126.078C284.8 125.091 283.887 121.387 282.3 121.387C281.552 121.387 280.984 121.395 280.499 121.803C281.535 122.79 282.144 125.295 282.308 126.078C282.316 126.136 282.325 126.201 282.349 126.258C283.435 131.732 286.625 149.086 285.967 161.536C285.178 176.491 282.777 188.378 282.004 192.229C281.544 194.497 281.083 195.72 280.475 196.34C280.771 196.708 281.116 196.944 281.511 196.944C283.098 196.944 283.887 196.161 284.685 192.229C285.466 188.369 287.858 176.491 288.648 161.536C289.306 149.078 286.115 131.724 285.038 126.258Z" fill="#BA3E45"/>
<path d="M282.008 192.221C282.789 188.362 285.182 176.483 285.971 161.528C286.629 149.078 283.447 131.724 282.353 126.25C282.345 126.193 282.337 126.128 282.312 126.071C282.156 125.287 281.539 122.791 280.503 121.795C279.96 122.26 279.541 123.231 279.122 125.312C279.122 125.312 273.571 148.14 275.158 163.878C276.351 175.683 277.987 186.159 278.727 190.67C278.974 192.164 279.13 193.012 279.13 193.012C279.13 193.012 279.582 195.231 280.478 196.341C281.087 195.713 281.547 194.497 282.008 192.221Z" fill="#EE384E"/>
<path d="M51.6092 373.22L78.8594 390.444L47.8189 378.603L51.6092 373.22Z" fill="#FFBF99"/>
<path d="M38.9112 414.867C38.9112 414.867 8.47663 416.657 21.7213 418.418C34.966 420.208 53.2126 420.208 59.6659 419.495C66.1191 418.768 43.9132 415.217 38.9112 414.867Z" fill="#CCE5FF"/>
<path d="M44.6491 382.965L53.1595 380.029L109.252 400.483C109.252 400.483 116.41 404.383 116.959 412.562C117.509 420.726 120.172 493.369 120.172 493.369H109.604L102.447 434.945L99.5863 412.911L86.6939 405.628L53.7654 388.935L44.6491 382.965Z" fill="#003EB0"/>
<path d="M21.9451 384.197C20.0852 390.698 17.2249 409.795 26.5808 414.227C26.9753 414.409 27.398 414.548 27.8348 414.618L79.2776 422.629C79.5171 422.657 79.7426 422.699 79.9821 422.699C80.8698 422.699 83.6174 422.993 82.3915 426.432C81.1798 429.913 66.0048 471.267 61.5805 483.346C60.876 485.276 58.1425 490.826 59.8756 491.958L64.9198 496.852C67.0897 498.278 70.9222 490.938 72.1903 488.687L105.866 428.823C105.964 428.641 106.077 428.431 106.133 428.207C106.922 426.138 110.346 415.345 99.3701 409.921C88.3939 404.469 55.3104 387.636 48.9135 384.365C48.209 384.001 45.236 382.281 44.447 382.309L26.2144 385.05C24.3263 385.147 22.4805 382.365 21.9451 384.197Z" fill="#0064E1"/>
<path d="M139.857 377.806C139.857 377.778 139.871 377.736 139.871 377.708C139.942 377.289 140.421 374.213 138.251 374.213H127.007C126.598 374.213 126.274 373.892 126.274 373.486V365.643C126.274 365.182 126.655 364.804 127.12 364.804L148.79 364.637C148.847 364.637 148.875 364.637 148.931 364.623C149.354 364.553 151.453 364.008 152.256 360.219C152.256 360.205 152.256 360.191 152.27 360.149L156.666 330.091C156.751 329.448 156.737 328.805 156.526 328.19C156.131 326.945 154.99 325.366 151.721 325.366C146.93 325.366 112.015 325.226 104.463 325.198C102.786 325.198 101.208 326.065 100.405 327.519C99.8553 328.497 99.3622 329.937 99.0804 331.936C98.2631 337.738 95.5438 356.458 95.0365 359.827C94.9802 360.233 94.9801 360.638 95.0647 361.044C95.3606 362.358 96.3187 365 99.4326 365.14C103.011 365.294 117.13 364.777 120.765 364.651C121.244 364.637 121.624 365.014 121.639 365.462L121.709 373.71C121.709 374.171 121.329 374.549 120.864 374.549L108.803 374.633C108.746 374.633 108.676 374.633 108.633 374.647C108.309 374.731 107.281 375.136 107.295 376.394C107.323 378.743 107.379 378.268 107.379 378.268L139.04 378.519C139.448 378.519 139.787 378.212 139.843 377.806H139.857Z" fill="#0064B7"/>
<path d="M26.9659 308.898C26.9659 308.898 18.4978 305.235 14.7921 316.475C14.7921 316.475 12.2982 324.165 10.4947 326.429C8.69112 328.666 3.94273 330.218 3.94273 330.218C3.94273 330.218 -0.467447 332.455 -0.227915 338.984C0.0116159 345.485 0.617487 351.413 2.98462 355.439C4.78815 358.459 3.80186 360.486 3.22417 361.297C2.92828 361.702 2.81553 362.192 2.84371 362.695C2.94234 363.967 3.63278 366.022 6.91576 366.106C11.6923 366.232 17.8637 368.175 16.9056 363.576C15.9475 358.962 14.2003 336.048 14.2003 336.048L17.7792 327.045L23.2743 323.494L25.8951 321.704C25.8951 321.704 32.1934 313.651 32.1934 311.792C32.1934 309.905 26.9659 308.898 26.9659 308.898Z" fill="#170856"/>
<path d="M32.7013 309.134L39.4927 305.708L39.7323 295.055L42.832 291.267L48.5667 292.93L56.2035 292.693H62.1777C62.1777 292.693 61.4591 309.036 55.499 315.411C55.499 315.411 48.4681 316.837 45.8332 315.047C45.8332 315.047 42.7334 312.335 42.7334 317.075C42.7334 321.814 42.2543 327.378 42.2543 327.378C42.2543 327.378 40.1127 331.167 31.9827 327.616C31.9827 327.616 27.5725 325.253 25.8958 321.688" fill="#FFBF99"/>
<path d="M57.8808 280.069C57.8808 280.069 41.945 266.927 32.096 280.069C22.2471 293.21 24.0365 302.983 26.7277 305.821C26.7277 305.821 35.2663 314.922 41.8604 305.192C41.8604 305.192 43.1426 303.556 42.3113 300.243C42.3113 300.243 39.8174 292.959 46.0734 294.678C52.3435 296.398 57.7118 296.342 60.0366 293.798C62.3615 291.253 63.3196 294.035 63.2069 294.874C63.0801 295.713 64.165 301.039 67.3353 296.188C70.5056 291.337 66.4899 282.683 62.9815 280.376C62.9533 280.376 59.9239 278.713 57.8808 280.069Z" fill="#170856"/>
<path d="M27.501 305.96C27.501 305.96 26.6556 308.631 26.8528 309.148C26.8528 309.148 30.5022 311.818 31.4462 311.93C31.4462 311.93 32.8129 309.735 32.5734 308.854C32.5875 308.868 27.9237 306.086 27.501 305.96Z" fill="#EA4E59"/>
<path d="M26.1355 321.674C26.0369 321.576 25.8678 321.687 25.7269 321.674C24.2334 321.506 14.3985 320.947 13.229 334.074C12.13 346.433 19.4709 379.008 21.4154 386.515L56.246 381.202C55.5978 378.029 54.6538 370.759 54.6538 369.333C54.6538 369.333 53.118 355.339 52.8221 351.284C52.7657 350.669 52.9912 350.068 53.428 349.621C55.0061 347.943 58.6695 343.134 55.2879 337.919C55.2879 337.919 47.947 325.84 42.7618 323.267C42.7477 323.225 37.3512 332.536 26.1355 321.674Z" fill="#FCBE42"/>
<path d="M31.8159 352.403C31.4072 350.893 29.7305 350.096 28.2933 350.753L22.7137 353.27C21.981 353.591 21.4456 354.234 21.2765 355.017L21.037 356.024C20.8961 356.583 20.9665 357.184 21.2201 357.701L27.138 369.85C27.3071 370.214 27.448 370.577 27.5325 370.955C27.8284 372.157 29.1247 375.093 34.6057 373.667L69.1687 364.999C69.2673 364.971 76.6505 362.315 76.735 362.287C77.4818 361.993 78.2004 362.287 78.3976 364.664C78.4822 365.67 81.0748 362.678 80.4689 360.567C80.4689 360.567 78.6513 356.443 68.9855 358.75L42.4398 364.049C42.3693 364.062 42.2989 364.076 42.2284 364.104C41.5239 364.314 37.2124 365.377 36.0711 361.951L31.985 352.78C31.9004 352.64 31.8722 352.515 31.8159 352.403Z" fill="#FFBF99"/>
<path d="M16.0163 326.177C15.3541 326.653 14.9736 327.436 14.7905 328.205C14.3255 329.952 14.2409 332.091 14.6354 333.867C15.34 337.054 19.0175 353.481 20.8492 356.893C20.8492 356.893 26.7247 352.726 31.8535 352.489C31.8535 352.489 29.0496 341.053 26.2175 333.335C26.2034 333.307 21.9059 321.927 16.0163 326.177Z" fill="#F79F03"/>
<path d="M109.618 493.368L109.252 502.33C109.252 502.33 108.998 503.686 114.536 503.686C120.087 503.686 134.473 503.672 134.473 503.672C134.473 503.672 137.883 502.246 133.938 501.002C133.938 501.002 125.174 498.332 120.158 493.354L109.618 493.368Z" fill="#170856"/>
<path d="M70.858 373.138L84.6381 373.222V367.183C84.6381 367.183 85.2721 365.505 82.5809 365.309C79.8897 365.141 72.732 365.477 72.732 365.477C72.732 365.477 70.7594 365.645 70.7594 367.951C70.7735 370.272 70.858 373.138 70.858 373.138Z" fill="#EE384E"/>
<path d="M71.9018 372.716C71.9018 372.716 66.773 372.268 66.3925 374.827C65.9417 377.735 67.3648 378.434 69.8728 378.517C72.3667 378.601 87.3304 378.294 87.3304 378.294C87.3304 378.294 90.2189 377.888 90.1062 375.819C89.9793 373.694 89.3876 372.883 86.6118 372.883C83.8361 372.883 71.9018 372.716 71.9018 372.716Z" fill="#000036"/>
<path d="M106.321 378.044L67.8406 378.282C67.6856 378.282 67.5447 378.296 67.3897 378.31C66.3611 378.324 63.5854 378.925 63.5854 381.134C63.5854 383.734 65.5016 384.447 68.8409 384.447H157.439C158.482 384.447 159.482 384.056 160.257 383.357C161.272 382.462 162.399 379.736 160.187 378.366C159.567 377.974 158.834 377.82 158.102 377.82L106.321 378.044Z" fill="#023EA1"/>
<path d="M130.203 384.196L155.495 406.229C155.495 406.229 160.032 410.255 160.271 419.497C160.511 428.738 161.948 504.26 161.948 504.26C161.948 504.26 162.427 508.524 154.072 508.524H99.6559C99.6559 508.524 97.5142 508.524 97.2746 505.924C97.0351 503.324 99.1908 503.561 100.853 503.561L156.467 503.799L155.988 420.685C155.988 420.685 157.425 413.583 147.153 405.292L124.215 384.252L130.203 384.196Z" fill="#023EA1"/>
<path d="M41.366 419.559L41.2821 501.5C41.2821 501.5 29.2003 501.883 27.0609 504.854C24.9354 507.841 27.4244 509.709 39.8558 509.341C52.2872 508.959 59.7543 508.959 59.7543 508.959C59.7543 508.959 65.7952 508.209 58.6776 504.472C51.574 500.735 45.8827 501.868 45.8827 501.868L45.1695 419.647L41.366 419.559Z" fill="#023EA1"/>
<path d="M60.3858 486.615C60.3858 486.615 53.3971 493.186 57.5255 496.206L75.7863 510.592C75.7863 510.592 78.4775 511.305 77.928 508.285L69.8684 492.837L60.3858 486.615Z" fill="#180756"/>
<path d="M330.658 294.267L435.459 268.898C437.429 268.406 438.537 266.066 437.922 263.603L424.498 208.185C423.883 205.722 421.789 204.121 419.819 204.614L315.141 229.86C313.171 230.352 312.062 232.692 312.678 235.155L326.101 290.573C326.594 293.159 328.688 294.76 330.658 294.267Z" fill="white" stroke="#C3ECFE" stroke-width="0.882464" stroke-miterlimit="10"/>
<path d="M343.467 270.746C351.22 270.746 357.506 264.46 357.506 256.707C357.506 248.953 351.22 242.667 343.467 242.667C335.713 242.667 329.428 248.953 329.428 256.707C329.428 264.46 335.713 270.746 343.467 270.746Z" fill="#0064B7"/>
<path d="M416.985 234.908L367.971 246.731C365.878 247.223 363.907 245.992 363.415 243.898C362.922 241.805 364.154 239.834 366.247 239.342L415.261 227.519C417.355 227.027 419.325 228.258 419.818 230.352C420.31 232.322 419.079 234.416 416.985 234.908Z" fill="#DCE8F4"/>
<path d="M401.715 254.243L371.544 261.509C369.45 262.001 367.48 260.77 366.987 258.676C366.495 256.583 367.726 254.612 369.82 254.12L399.991 246.854C402.085 246.361 404.055 247.593 404.548 249.686C405.041 251.657 403.686 253.75 401.715 254.243Z" fill="#DCE8F4"/>
<path d="M477.108 349.974L475.254 504.488L462.275 505.848L443.98 354.053L477.108 349.974Z" fill="#DC051F"/>
<path d="M425.563 349.974L416.539 504.488L429.642 505.848L463.882 354.053L425.563 349.974Z" fill="#EE384E"/>
<path d="M445.463 241.814C450.531 241.938 456.588 253.434 456.464 258.378C456.341 263.446 453.868 263.322 452.509 265.795C451.149 268.267 443.609 270.615 439.777 270.615C436.068 270.492 434.956 264.188 435.079 255.411C435.327 246.635 439.159 241.69 439.159 241.69C439.159 241.69 440.395 241.69 445.463 241.814Z" fill="#FFBE9B"/>
<path d="M446.328 260.727C446.328 260.727 446.328 260.727 446.205 268.267C446.081 275.808 439.035 281.37 439.035 281.37C439.035 281.37 438.912 286.438 446.452 287.798C453.992 289.158 461.78 280.629 461.78 280.629C461.78 280.629 460.544 278.033 458.195 271.729C455.846 265.424 454.734 259.12 454.734 259.12L446.328 260.727Z" fill="#FEBE9A"/>
<path d="M442.87 244.286C447.815 245.646 447.938 245.646 450.287 248.241C452.759 250.837 453.872 257.142 453.872 257.142C453.872 257.142 454.49 260.479 454.984 262.21C455.602 263.94 455.973 265.918 456.097 267.278C456.22 268.514 457.333 268.637 458.569 268.637C459.805 268.637 462.401 267.401 464.997 262.457C467.592 257.512 466.974 252.321 466.48 251.208C465.244 248.489 465.367 243.668 465.367 242.432C465.367 241.196 465.367 239.96 463.019 237.364C460.547 234.768 447.938 234.521 447.938 234.521C446.702 234.521 444.106 234.397 442.87 233.161C441.634 231.801 436.69 229.205 434.094 230.441C431.498 231.678 435.083 241.814 435.083 241.814C436.566 245.398 437.926 242.926 442.87 244.286Z" fill="#160C56"/>
<path d="M456.468 254.67C456.345 258.502 452.636 257.142 452.636 257.142C452.636 257.142 450.164 253.31 452.142 251.209C453.996 249.108 456.592 250.838 456.468 254.67Z" fill="#FFBE9B"/>
<path d="M429.274 304.609C429.274 304.609 412.957 320.925 410.485 323.398C408.013 325.87 403.933 323.398 399.854 319.318C395.775 315.239 386.751 298.923 383.537 293.978C380.2 289.034 367.221 284.954 367.221 284.954C367.221 284.954 380.2 282.482 381.931 281.741C383.537 280.875 382.796 278.403 381.931 276.054C381.065 273.582 383.537 275.189 383.537 275.189C383.537 275.189 386.01 276.796 388.482 280.875C390.954 284.954 390.089 287.427 390.954 289.899C391.819 292.371 405.664 309.43 406.406 310.295C407.271 311.16 408.013 310.295 408.013 310.295L419.385 294.843L429.274 304.609Z" fill="#FFBE9B"/>
<path d="M426.677 267.03C427.542 268.637 426.677 271.11 426.677 271.11L411.967 274.323C411.967 274.323 419.26 277.537 423.339 280.01C427.418 282.482 433.97 287.303 433.97 287.303L437.183 283.224C437.183 283.224 433.97 276.672 433.104 272.593C432.239 268.514 426.553 264.435 426.553 264.435C426.553 264.435 425.935 265.424 426.677 267.03Z" fill="#FFBE9B"/>
<path d="M475.504 503.376L461.536 503.252C461.536 505.601 460.547 505.848 460.547 505.848C460.547 505.848 448.186 511.287 444.106 513.265C440.027 515.243 444.354 516.108 444.354 516.108C444.354 516.108 467.345 516.355 471.548 516.355C475.751 516.355 475.009 514.377 475.009 514.377L475.504 503.376Z" fill="#170856"/>
<path d="M430.51 503.376L416.542 503.252C416.542 505.601 415.553 505.848 415.553 505.848C415.553 505.848 403.192 511.287 399.112 513.265C395.033 515.243 399.36 516.108 399.36 516.108C399.36 516.108 422.351 516.355 426.554 516.355C430.757 516.355 430.015 514.377 430.015 514.377L430.51 503.376Z" fill="#170856"/>
<path d="M456.964 279.269C456.964 279.269 458.571 277.662 460.178 278.403C461.785 279.269 469.201 285.696 474.022 304.485C478.967 323.274 477.236 353.806 477.236 353.806L425.196 352.694C425.196 352.694 425.072 334.523 425.937 317.712C426.802 300.901 427.791 293.731 430.387 288.539C433.107 283.348 438.546 279.392 440.029 278.156C441.636 276.92 442.996 278.032 442.996 278.032C449.794 285.82 456.964 279.269 456.964 279.269Z" fill="#0083F9"/>
<path d="M429.148 307.081C429.148 307.081 436.441 298.181 440.52 291.63C444.599 285.078 440.52 278.527 432.362 281.864C424.203 285.078 416.91 295.709 416.91 295.709L429.148 307.081Z" fill="#0064B7"/>
<path d="M158.256 431.58C158.256 431.58 163.134 429.571 162.776 423.975C162.417 418.378 159.547 414.361 165.502 416.011C171.457 417.661 173.466 418.378 177.843 417.446C182.147 416.513 185.806 414.719 183.869 420.316C182.004 425.912 179.923 430.647 184.372 431.508C188.82 432.441 193.627 429.069 194.201 437.822C194.775 446.575 187.672 456.476 176.264 456.835C164.785 457.194 159.762 452.458 159.762 452.458C159.762 452.458 156.677 448.153 161.484 447.077C166.291 446.001 171.17 443.992 168.731 441.768C166.291 439.544 158.327 439.329 158.327 439.329C158.327 439.329 148.283 437.391 158.256 431.58Z" fill="#649EEA"/>
<path d="M210.63 433.014C209.841 427.418 210.415 423.4 220.818 421.893C231.221 420.387 237.248 426.629 237.894 433.014C238.539 439.4 229.499 441.767 229.499 441.767C229.499 441.767 223.114 443.561 226.342 449.229C229.571 454.825 231.078 460.278 223.688 461.067C216.298 461.856 208.19 459.919 203.742 456.906C199.222 453.892 194.63 446.287 199.796 442.341C199.796 442.341 201.231 441.337 206.182 441.05C211.132 440.835 210.63 433.014 210.63 433.014Z" fill="#023EA1"/>
<path d="M174.039 432.153C174.039 432.153 182.649 451.668 183.868 465.013" stroke="#023EA1" stroke-width="0.917146" stroke-miterlimit="10"/>
<path d="M222.041 435.31C222.041 435.31 206.759 457.982 203.1 465.587" stroke="#649EEA" stroke-width="0.917146" stroke-miterlimit="10"/>
<path d="M178.489 463.435H213.573C213.573 463.435 217.447 463.722 217.088 468.959C216.801 473.766 210.703 472.762 207.474 472.762C204.317 472.762 177.699 472.762 177.699 472.762C177.699 472.762 173.395 473.479 173.395 468.6C173.466 463.65 175.045 463.435 178.489 463.435Z" fill="#0054A5"/>
<path d="M177.77 472.762L183.079 503.756H206.612L210.63 480.51L177.77 472.762Z" fill="#0054A5"/>
<path d="M177.77 472.762L210.63 480.51L211.921 472.762H177.77Z" fill="#006AD5"/>
<path d="M192.908 464.583C192.908 464.583 194.702 430.216 204.962 408.62" stroke="#FCBE42" stroke-width="0.917146" stroke-miterlimit="10"/>
<path d="M213.356 396.208C213.356 396.208 214.217 406.755 203.886 410.916C203.886 410.916 201.662 401.876 213.356 396.208Z" fill="#FCBE42"/>
<path d="M197.93 429.786C197.93 429.786 201.732 420.746 213.427 421.965C213.355 421.965 212.494 431.005 197.93 429.786Z" fill="#FCBE42"/>
<path d="M194.059 452.457C194.059 452.457 195.996 442.843 207.691 441.767C207.691 441.767 208.551 450.735 194.059 452.457Z" fill="#FCBE42"/>
<path d="M193.627 452.529C193.627 452.529 194.99 442.844 184.3 437.893C184.371 437.893 180.569 446.072 193.627 452.529Z" fill="#FCBE42"/>
<path d="M198.004 429.714C198.004 429.714 200.587 420.243 190.686 414.001C190.686 414.073 185.879 421.678 198.004 429.714Z" fill="#FCBE42"/>
</g>
<defs>
<filter id="filter0_d_3707_4988" x="140.072" y="218.995" width="49.2741" height="55.4093" filterUnits="userSpaceOnUse" color-interpolation-filters="sRGB">
<feFlood flood-opacity="0" result="BackgroundImageFix"/>
<feColorMatrix in="SourceAlpha" type="matrix" values="0 0 0 0 0 0 0 0 0 0 0 0 0 0 0 0 0 0 127 0" result="hardAlpha"/>
<feOffset dy="0.917146"/>
<feGaussianBlur stdDeviation="0.917146"/>
<feComposite in2="hardAlpha" operator="out"/>
<feColorMatrix type="matrix" values="0 0 0 0 0 0 0 0 0 0 0 0 0 0 0 0 0 0 0.2 0"/>
<feBlend mode="normal" in2="BackgroundImageFix" result="effect1_dropShadow_3707_4988"/>
<feBlend mode="normal" in="SourceGraphic" in2="effect1_dropShadow_3707_4988" result="shape"/>
</filter>
<clipPath id="clip0_3707_4988">
<rect width="520" height="520" fill="white"/>
</clipPath>
</defs>
</svg>
