<svg width="75" height="55" viewBox="0 0 75 55" fill="none" xmlns="http://www.w3.org/2000/svg">
<path d="M0.000244141 8.81439C0.0737735 8.57454 0.147303 8.34969 0.220832 8.10984C0.853185 6.1311 2.58848 4.78196 4.6326 4.78196C10.4561 4.76697 16.2797 4.76697 22.1032 4.78196C22.9561 4.78196 23.4855 5.26165 23.4708 5.99618C23.4561 6.71573 22.9267 7.16544 22.0591 7.16544C16.412 7.16544 10.7502 7.16544 5.10319 7.16544C3.20613 7.16544 2.33848 8.06487 2.33848 10.0136C2.33848 12.1872 2.33848 14.3459 2.33848 16.5195C2.33848 18.1385 3.29436 19.1278 4.8973 19.1278C17.2797 19.1278 29.662 19.1278 42.0444 19.1278C43.6914 19.1278 44.6326 18.1534 44.6326 16.4745C44.6326 14.2559 44.6326 12.0373 44.6326 9.81875C44.6326 8.13982 43.6767 7.16544 42.0444 7.16544C39.1767 7.16544 36.3238 7.16544 33.4561 7.16544C33.2649 7.16544 33.0591 7.18043 32.8679 7.16544C32.1767 7.10548 31.7061 6.5958 31.7208 5.95121C31.7355 5.32161 32.1914 4.84192 32.8385 4.79695C33.1473 4.76697 33.4708 4.78196 33.7944 4.78196C36.8826 4.78196 39.9561 4.78196 43.1326 4.78196C43.2208 4.37721 43.3091 3.89752 43.412 3.41782C43.8679 1.34914 45.4708 0 47.5591 0C48.2797 0 49.0444 0 49.7355 0.209866C51.2502 0.674571 52.2355 1.76887 52.5591 3.35786C52.8532 4.84192 53.0738 6.34096 53.3091 7.84001C53.3826 8.30472 53.5444 8.55955 54.0297 8.72445C55.0002 9.05424 55.9414 9.47397 56.8679 9.92369C57.2355 10.1036 57.4708 10.0886 57.7797 9.84873C58.8973 9.00927 60.0297 8.18479 61.1767 7.36032C63.1914 5.92123 65.2502 6.1311 67.0591 7.95993C68.9708 9.8937 69.2208 11.9624 67.7796 14.0461C67.0002 15.1853 66.2061 16.3246 65.3826 17.4489C65.1179 17.8237 65.0885 18.0935 65.2796 18.5132C65.7061 19.4276 66.1032 20.372 66.412 21.3314C66.5738 21.8561 66.8532 22.021 67.3385 22.0959C68.7649 22.3208 70.1914 22.5457 71.6032 22.8305C73.6473 23.2352 75.0002 24.8992 75.0002 26.9978C75.0002 27.7623 75.0149 28.5718 74.7944 29.2914C74.2944 31.0003 73.0885 31.9597 71.3679 32.2595C69.9708 32.4993 68.5738 32.7691 67.1767 32.964C66.7355 33.024 66.5885 33.2339 66.4414 33.6236C66.0885 34.598 65.7061 35.5724 65.2649 36.5168C65.0885 36.9065 65.0738 37.1614 65.3385 37.5211C66.162 38.6304 66.9561 39.7697 67.7502 40.909C69.1767 42.9477 68.9414 45.1962 67.1326 46.8752C66.8385 47.145 66.5444 47.3998 66.2355 47.6397C64.8532 48.719 63.3532 48.9139 61.8532 47.9845C60.4855 47.13 59.1767 46.1556 57.8679 45.1962C57.4855 44.9114 57.2061 44.8515 56.7649 45.0913C55.8973 45.541 54.9855 45.9158 54.0591 46.2306C53.5591 46.3955 53.3532 46.6503 53.2944 47.16C53.1032 48.4941 52.8679 49.8133 52.6767 51.1475C52.3532 53.2311 51.1326 54.4603 49.1914 55.015C48.3532 55.015 47.5297 55.015 46.6914 55.015C46.6179 54.97 46.5444 54.8951 46.4561 54.8651C44.7208 54.3254 43.7061 53.1412 43.3679 51.3423C43.2944 50.9526 43.2355 50.5778 43.162 50.218C35.9267 50.218 28.7649 50.218 21.5885 50.218C15.9855 50.218 10.3826 50.233 4.77966 50.218C2.54436 50.218 0.794362 48.8539 0.162009 46.6803C0.117891 46.5154 0.0590677 46.3505 0.000244141 46.2006C0.000244141 43.3074 0.000244141 40.4143 0.000244141 37.5361C0.456126 36.5617 0.912009 35.5724 1.32377 34.6729C0.897303 33.7735 0.441421 32.8141 0.000244141 31.8547C0.000244141 28.9616 0.000244141 26.0684 0.000244141 23.1902C0.456126 22.2159 0.912009 21.2265 1.3973 20.1922C1.17671 19.8773 0.809068 19.4576 0.559068 18.9479C0.309068 18.4533 0.176715 17.8836 0.000244141 17.359C0.000244141 14.4958 0.000244141 11.6476 0.000244141 8.81439ZM46.9855 39.4849C46.9855 39.8147 46.9855 40.0695 46.9855 40.3393C46.9855 42.0333 47.0002 43.7272 46.9708 45.4211C46.9561 46.4554 46.7797 47.5198 46.0444 48.2693C45.3973 48.9139 45.3679 49.5585 45.5738 50.338C45.6179 50.4879 45.6326 50.6378 45.662 50.7727C45.8679 52.0319 46.5444 52.6015 47.8385 52.6015C49.5149 52.6165 50.162 52.1668 50.3973 50.8027C50.6914 49.0638 50.9708 47.3099 51.2502 45.571C51.3679 44.8365 51.7944 44.4467 52.5149 44.2069C53.8532 43.7572 55.1914 43.2475 56.4267 42.5729C57.2797 42.1082 57.912 42.1682 58.6326 42.7078C59.8973 43.6522 61.162 44.5816 62.4414 45.511C63.5738 46.3355 64.412 46.2756 65.3679 45.3012C66.4855 44.1619 66.5885 43.3374 65.7502 42.1532C64.8091 40.819 63.8679 39.4849 62.9267 38.1507C62.4414 37.4762 62.4708 36.8466 62.8385 36.082C63.4561 34.8228 64.0002 33.5037 64.412 32.1695C64.662 31.3451 65.0591 30.8953 65.8826 30.7604C67.6032 30.4906 69.3091 30.1758 71.0149 29.876C71.8091 29.7411 72.4561 29.3064 72.5591 28.4819C72.8238 26.4282 72.4708 25.154 70.3532 24.9141C68.7355 24.7193 67.1326 24.3595 65.5149 24.0747C64.8973 23.9697 64.6032 23.58 64.3973 22.9654C63.9414 21.6013 63.4561 20.2371 62.8091 18.9779C62.3826 18.1235 62.3532 17.4639 62.8826 16.7144C63.8238 15.3802 64.7649 14.0461 65.7061 12.7119C66.5149 11.5576 66.3973 10.7632 65.2796 9.63887C64.3238 8.67948 63.5002 8.60452 62.412 9.39902C61.1032 10.3584 59.7797 11.3028 58.4708 12.2772C57.7649 12.8019 57.1179 12.7869 56.3091 12.3671C55.1032 11.7225 53.8238 11.2129 52.5297 10.7781C51.7649 10.5233 51.2944 10.1485 51.1767 9.33906C50.912 7.64513 50.6179 5.95121 50.3532 4.25729C50.162 3.02807 49.4855 2.41346 48.2797 2.38348C46.5444 2.3535 45.8973 2.78823 45.6326 4.18234C45.5591 4.57209 45.4414 4.96184 45.4414 5.35159C45.4561 5.68138 45.5738 6.02617 45.7208 6.34096C46.0885 7.13546 46.662 7.88498 46.8091 8.72445C47.0297 9.87871 46.9708 11.0929 46.9855 12.2922C47.0149 13.3565 46.9855 14.4208 46.9855 15.4851C54.3238 15.74 58.9414 21.8261 58.7061 27.9722C58.4855 33.7585 54.0149 39.245 46.9855 39.4849ZM23.5591 21.5113C17.3385 21.5113 11.1326 21.5113 4.91201 21.5113C3.30907 21.5113 2.35319 22.4707 2.33848 24.1047C2.32377 26.3532 2.33848 28.5868 2.33848 30.8354C2.33848 32.4993 3.29436 33.4737 4.94142 33.4737C17.2944 33.4737 29.6473 33.4737 42.0149 33.4737C43.6767 33.4737 44.6179 32.5143 44.6179 30.8354C44.6179 28.6618 44.6179 26.5031 44.6179 24.3295C44.6179 22.4107 43.7208 21.5113 41.8238 21.5113C35.7502 21.5113 29.662 21.5113 23.5591 21.5113ZM23.4708 35.8722C17.3238 35.8722 11.1914 35.8722 5.04436 35.8722C3.25024 35.8722 2.35319 36.8016 2.35319 38.6454C2.35319 40.834 2.35319 43.0376 2.35319 45.2262C2.35319 46.8602 3.30907 47.8346 4.91201 47.8346C17.2944 47.8346 29.6767 47.8346 42.0591 47.8346C43.7061 47.8346 44.6473 46.8602 44.6473 45.1812C44.6473 43.0076 44.6473 40.849 44.6473 38.6754C44.6473 36.7866 43.7502 35.8722 41.912 35.8722C35.7502 35.8722 29.6032 35.8722 23.4708 35.8722ZM45.4561 34.568C45.8826 35.2726 46.3238 35.8272 46.5738 36.4568C46.7797 36.9815 47.0591 37.0864 47.5444 37.1014C53.3532 37.2963 57.8973 32.2295 57.2355 26.2933C56.6914 21.3464 52.1473 17.4939 47.3091 17.8986C47.1032 17.9136 46.8238 18.0335 46.7208 18.1984C46.2944 18.903 45.912 19.6525 45.4855 20.432C46.6914 21.4963 46.9855 23.0104 47.0002 24.6143C47.0002 26.4282 46.9414 28.242 46.9855 30.0709C47.0444 31.8098 46.7355 33.3987 45.4561 34.568Z" fill="#2A2A2A"/>
<path d="M8.20713 10.7482C9.48654 10.7482 10.5454 11.8125 10.5601 13.1017C10.5748 14.4358 9.50125 15.5301 8.19243 15.5151C6.92772 15.5001 5.8689 14.4208 5.8689 13.1167C5.8836 11.8275 6.92772 10.7632 8.20713 10.7482Z" fill="#2A2A2A"/>
<path d="M15.2933 15.5301C14.0139 15.5451 12.9551 14.4808 12.9256 13.1766C12.8962 11.8425 13.9698 10.7482 15.2786 10.7482C16.558 10.7632 17.6021 11.8425 17.6021 13.1317C17.6168 14.4358 16.558 15.5151 15.2933 15.5301Z" fill="#2A2A2A"/>
<path d="M27.5448 7.15054C27.3536 7.15054 27.1477 7.16553 26.9566 7.15054C26.3095 7.09058 25.8536 6.59589 25.8536 5.98128C25.8389 5.36667 26.2948 4.84201 26.9271 4.78204C27.3683 4.73707 27.8095 4.75206 28.2507 4.78204C28.8977 4.82702 29.3536 5.3217 29.3683 5.9513C29.383 6.56591 28.9271 7.07559 28.2948 7.15054C28.0301 7.18052 27.7801 7.15054 27.5448 7.15054Z" fill="#2A2A2A"/>
<path d="M10.5577 27.4626C10.5724 28.7668 9.52833 29.8611 8.26362 29.8761C6.99892 29.9061 5.91068 28.8417 5.86657 27.5526C5.83715 26.2184 6.89598 25.1091 8.2048 25.0941C9.48421 25.1091 10.543 26.1734 10.5577 27.4626Z" fill="#2A2A2A"/>
<path d="M15.2518 25.109C16.5312 25.0941 17.6047 26.1584 17.6194 27.4625C17.6341 28.7967 16.5606 29.906 15.2518 29.891C13.987 29.876 12.9282 28.7967 12.9282 27.5075C12.9282 26.1884 13.9723 25.124 15.2518 25.109Z" fill="#2A2A2A"/>
<path d="M10.5577 41.8234C10.5724 43.1276 9.52833 44.2219 8.26362 44.2369C6.99892 44.2669 5.91068 43.2026 5.86657 41.9134C5.83715 40.5792 6.89598 39.4699 8.2048 39.455C9.48421 39.455 10.543 40.5193 10.5577 41.8234Z" fill="#2A2A2A"/>
<path d="M15.234 44.237C13.9546 44.222 12.9105 43.1277 12.9252 41.8385C12.9399 40.5043 14.0281 39.425 15.337 39.47C16.6017 39.5 17.6458 40.6093 17.6164 41.9134C17.587 43.2026 16.5134 44.2519 15.234 44.237Z" fill="#2A2A2A"/>
</svg>
