<svg width="450" height="365" viewBox="0 0 450 365" fill="none" xmlns="http://www.w3.org/2000/svg">
<g clip-path="url(#clip0_3705_1761)">
<path d="M325.804 24.5478C325.804 24.5478 339.587 34.1238 332.201 39.8342C324.815 45.5447 326.392 49.1207 328.208 52.7275C330.024 56.3343 335.958 61.3985 327.847 67.0053C319.726 72.6099 313.406 72.366 311.893 77.3632C310.377 82.3695 297.607 100.524 291.913 93.7603C286.222 86.9875 290.208 74.9673 293.245 70.3473C296.272 65.7251 294.088 58.7278 291.096 53.8408C288.104 48.9539 288.385 40.9887 296.051 40.6724C303.717 40.3561 309.583 34.3355 309.421 28.9232C309.255 23.4907 316.353 18.2129 325.804 24.5478Z" fill="#023EA1"/>
<path d="M320.111 34.5959L285.975 98.8125" stroke="white" stroke-width="0.926736" stroke-miterlimit="10" stroke-linecap="round" stroke-linejoin="round"/>
<path d="M323.169 58.408L306.239 60.6893L297.897 46.3852" stroke="white" stroke-width="0.926736" stroke-miterlimit="10" stroke-linecap="round" stroke-linejoin="round"/>
<path d="M270.917 26.2106C270.917 26.2106 272.744 18.2578 266.367 16.2881C259.997 14.3296 252.467 20.9268 253.986 26.5802C255.5 32.2516 259.876 33.3167 257.056 36.7924C254.237 40.268 247.815 51.1809 253.114 54.6236C258.402 58.073 263.819 53.7099 266.227 61.9133C268.626 70.1144 258.618 80.6522 270.781 84.331C282.944 88.0097 305.001 88.7864 300.447 68.1752C295.901 47.5662 283.629 62.9058 284.315 46.6642C284.992 30.4203 278.288 35.7197 273.486 33.4556C268.68 31.2094 270.917 26.2106 270.917 26.2106Z" fill="#EE384E"/>
<path d="M266.327 39.2802C266.327 39.2802 278.303 57.299 283.445 76.3443C288.588 95.3896 286.847 100.264 286.847 100.264" stroke="white" stroke-width="0.926736" stroke-miterlimit="10" stroke-linecap="round" stroke-linejoin="round"/>
<path d="M303.638 78.4004C303.638 78.4004 291.337 46.4566 291.904 22.7118" stroke="#FCBE42" stroke-width="0.926736" stroke-miterlimit="10"/>
<path d="M294.544 8.02075C294.544 8.02075 299.587 17.2572 291.892 25.1732C291.89 25.1822 286.222 17.8923 294.544 8.02075Z" stroke="#FCBE42" stroke-width="0.926736" stroke-miterlimit="10"/>
<path d="M294.099 44.7835C294.099 44.7835 293.902 35.0644 304.995 31.4323C304.995 31.4323 307.8 39.9527 294.099 44.7835Z" stroke="#FCBE42" stroke-width="0.926736" stroke-miterlimit="10"/>
<path d="M299.782 66.9115C299.782 66.9115 297.692 57.427 307.86 51.6927C307.86 51.6927 312.28 59.4911 299.782 66.9115Z" stroke="#FCBE42" stroke-width="0.926736" stroke-miterlimit="10"/>
<path d="M299.441 67.1309C299.441 67.1309 296.753 57.7932 285.083 57.6121C285.085 57.6032 284.934 66.5798 299.441 67.1309Z" stroke="#FCBE42" stroke-width="0.926736" stroke-miterlimit="10"/>
<path d="M294.184 44.6719C294.184 44.6719 292.704 35.063 281.154 33.3998C281.163 33.402 279.862 42.2647 294.184 44.6719Z" stroke="#FCBE42" stroke-width="0.926736" stroke-miterlimit="10"/>
<path d="M73.7425 76.5718C73.7425 76.5718 81.8822 61.8951 88.3072 68.6687C94.7323 75.4423 98.1313 73.5135 101.537 71.3432C104.943 69.1729 109.384 62.7594 115.779 70.2652C122.172 77.7802 122.566 84.0924 127.69 85.0954C132.824 86.0996 152.171 96.977 146.015 103.322C139.85 109.667 127.489 106.911 122.587 104.355C117.684 101.808 110.942 104.685 106.381 108.154C101.82 111.623 93.867 112.146 92.7805 104.55C91.6941 96.9551 85.1135 91.7256 79.745 92.4312C74.3568 93.1433 68.3912 86.6125 73.7425 76.5718Z" fill="#023EA1"/>
<path d="M84.3136 81.2227L151.641 108.721" stroke="white" stroke-width="0.926736" stroke-miterlimit="10" stroke-linecap="round" stroke-linejoin="round"/>
<path d="M107.696 75.784L111.67 92.3976L98.2783 102.137" stroke="white" stroke-width="0.926736" stroke-miterlimit="10" stroke-linecap="round" stroke-linejoin="round"/>
<path d="M80.9227 131.013C80.9227 131.013 72.8264 129.995 71.5087 136.538C70.2015 143.073 77.5232 149.9 82.995 147.82C88.4851 145.743 89.1043 141.282 92.8462 143.737C96.5881 146.193 108.092 151.483 110.984 145.864C113.883 140.256 108.997 135.306 116.916 132.084C124.834 128.871 136.326 137.768 138.761 125.296C141.197 112.825 139.749 90.8013 119.701 97.4077C99.6545 104.005 116.152 114.671 99.9235 115.623C83.6939 116.585 89.6413 122.721 87.8722 127.727C86.1214 132.735 80.9227 131.013 80.9227 131.013Z" fill="#EE384E"/>
<path d="M94.3875 134.261C94.3875 134.261 111.109 120.532 129.54 113.498C147.971 106.465 152.996 107.706 152.996 107.706" stroke="white" stroke-width="0.926736" stroke-miterlimit="10" stroke-linecap="round" stroke-linejoin="round"/>
<path d="M129.556 93.2046C129.556 93.2046 99.0129 108.659 75.3316 110.486" stroke="#FCBE42" stroke-width="0.926736" stroke-miterlimit="10"/>
<path d="M60.4467 109.337C60.4467 109.337 69.1285 103.389 77.779 110.248C77.7881 110.249 71.1059 116.622 60.4467 109.337Z" stroke="#FCBE42" stroke-width="0.926736" stroke-miterlimit="10"/>
<path d="M97.0683 106.078C97.0683 106.078 87.4185 107.253 82.6881 96.582C82.6881 96.582 90.8828 92.9333 97.0683 106.078Z" stroke="#FCBE42" stroke-width="0.926736" stroke-miterlimit="10"/>
<path d="M118.512 98.1984C118.512 98.1984 109.286 101.233 102.558 91.694C102.558 91.694 109.871 86.5116 118.512 98.1984Z" stroke="#FCBE42" stroke-width="0.926736" stroke-miterlimit="10"/>
<path d="M118.76 98.5138C118.76 98.5138 109.74 102.128 110.735 113.757C110.726 113.756 119.672 113.002 118.76 98.5138Z" stroke="#FCBE42" stroke-width="0.926736" stroke-miterlimit="10"/>
<path d="M96.9464 106.005C96.9464 106.005 87.5353 108.445 87.0433 120.103C87.0446 120.094 95.9934 120.497 96.9464 106.005Z" stroke="#FCBE42" stroke-width="0.926736" stroke-miterlimit="10"/>
<path d="M363.858 205.609C389.042 212.357 414.927 197.412 421.675 172.228C428.423 147.044 413.478 121.159 388.294 114.411C363.111 107.663 337.225 122.608 330.477 147.791C323.729 172.975 338.674 198.861 363.858 205.609Z" stroke="#DE051F" stroke-width="0.926736" stroke-miterlimit="10" stroke-dasharray="5.56 5.56"/>
<path d="M420.435 165.015C424.69 166.155 429.064 163.63 430.204 159.375C431.344 155.12 428.819 150.747 424.564 149.606C420.309 148.466 415.935 150.991 414.795 155.246C413.655 159.501 416.18 163.875 420.435 165.015Z" fill="#003EB0"/>
<path d="M426.273 154.867L422.681 160.063L419.88 154.867L426.273 154.867Z" fill="white"/>
<rect x="112.857" y="67.1016" width="278.021" height="186.274" fill="#0064B7"/>
<rect x="125.832" y="75.4424" width="252.072" height="163.105" fill="#E2EFFE"/>
<rect x="136.953" y="115.291" width="18.5347" height="15.7545" rx="1.85347" fill="white"/>
<rect x="161.975" y="116.218" width="15.7545" height="0.926736" fill="white"/>
<rect x="161.975" y="143.093" width="15.7545" height="0.926736" fill="white"/>
<rect x="161.975" y="120.851" width="29.6555" height="0.926736" fill="white"/>
<rect x="161.975" y="147.727" width="29.6555" height="0.926736" fill="white"/>
<rect x="161.975" y="125.485" width="29.6555" height="0.926736" fill="white"/>
<rect x="161.975" y="152.36" width="29.6555" height="0.926736" fill="white"/>
<rect x="161.975" y="130.118" width="29.6555" height="0.926736" fill="white"/>
<rect x="161.975" y="156.994" width="29.6555" height="0.926736" fill="white"/>
<rect x="317.668" y="115.291" width="18.5347" height="15.7545" rx="1.85347" fill="white"/>
<rect x="342.689" y="116.218" width="12.9743" height="0.926736" fill="white"/>
<rect x="342.689" y="120.851" width="24.0951" height="0.926736" fill="white"/>
<rect x="342.689" y="125.485" width="24.0951" height="0.926736" fill="white"/>
<rect x="342.689" y="130.118" width="24.0951" height="0.926736" fill="white"/>
<rect x="317.668" y="142.166" width="18.5347" height="15.7545" rx="1.85347" fill="white"/>
<rect x="342.689" y="143.093" width="12.9743" height="0.926736" fill="white"/>
<rect x="342.689" y="147.726" width="24.0951" height="0.926736" fill="white"/>
<rect x="342.689" y="152.36" width="24.0951" height="0.926736" fill="white"/>
<rect x="342.689" y="156.993" width="24.0951" height="0.926736" fill="white"/>
<rect x="136.953" y="143.092" width="18.5347" height="15.7545" rx="1.85347" fill="white"/>
<rect x="136.953" y="170.894" width="18.5347" height="15.7545" rx="1.85347" fill="white"/>
<rect x="161.975" y="171.82" width="12.9743" height="0.926736" fill="white"/>
<rect x="161.975" y="176.454" width="24.0951" height="0.926736" fill="white"/>
<rect x="161.975" y="181.088" width="24.0951" height="0.926736" fill="white"/>
<rect x="161.975" y="185.722" width="24.0951" height="0.926736" fill="white"/>
<rect x="136.953" y="198.696" width="18.5347" height="15.7545" rx="1.85347" fill="white"/>
<rect x="161.975" y="199.623" width="12.9743" height="0.926736" fill="white"/>
<rect x="161.975" y="204.256" width="24.0951" height="0.926736" fill="white"/>
<rect x="161.975" y="208.891" width="24.0951" height="0.926736" fill="white"/>
<rect x="161.975" y="213.523" width="24.0951" height="0.926736" fill="white"/>
<rect x="214.799" y="85.6348" width="74.1388" height="2.78021" rx="1.3901" fill="white"/>
<rect x="193.482" y="93.9756" width="117.695" height="2.78021" rx="1.3901" fill="white"/>
<rect x="249.09" y="118.997" width="50.9705" height="41.7031" rx="2.78021" fill="white"/>
<path d="M274.787 127.338C275.323 127.389 275.865 127.415 276.401 127.492C280.13 128.037 283.112 129.807 285.353 132.774C285.426 132.872 285.495 132.97 285.595 133.109C285.721 132.641 285.831 132.204 285.963 131.777C286.142 131.195 286.736 130.897 287.309 131.093C287.809 131.262 288.119 131.772 287.988 132.276C287.667 133.52 287.341 134.76 287.004 135.994C286.852 136.56 286.305 136.864 285.716 136.72C284.427 136.401 283.144 136.077 281.86 135.742C281.277 135.588 280.956 135.032 281.103 134.487C281.25 133.947 281.787 133.628 282.36 133.757C282.791 133.849 283.223 133.968 283.722 134.091C283.633 133.968 283.586 133.896 283.533 133.824C281.671 131.432 279.22 129.976 276.18 129.55C270.826 128.793 265.914 131.71 264.058 136.694C263.858 137.224 263.458 137.512 262.964 137.476C262.485 137.44 262.091 137.121 262.017 136.658C261.985 136.452 262.012 136.21 262.091 136.01C263.821 131.545 267.061 128.737 271.826 127.657C272.562 127.492 273.33 127.466 274.082 127.374C274.177 127.364 274.271 127.348 274.366 127.338C274.508 127.338 274.645 127.338 274.787 127.338Z" fill="#EB3B52"/>
<path d="M261.139 148.384C261.365 147.551 261.596 146.723 261.822 145.889C261.928 145.493 262.028 145.097 262.138 144.701C262.306 144.105 262.837 143.786 263.448 143.94C264.726 144.254 266.004 144.578 267.276 144.912C267.876 145.067 268.202 145.612 268.055 146.172C267.913 146.718 267.366 147.031 266.766 146.898C266.34 146.805 265.925 146.687 265.43 146.563C265.514 146.687 265.557 146.759 265.609 146.826C267.376 149.104 269.696 150.544 272.573 151.043C278.053 152 283.181 149.078 285.09 143.956C285.284 143.431 285.679 143.143 286.157 143.169C286.641 143.194 287.052 143.513 287.136 143.986C287.167 144.177 287.151 144.403 287.083 144.588C285.253 149.289 281.84 152.242 276.759 153.085C271.962 153.882 267.886 152.36 264.594 148.857C264.221 148.461 263.905 148.019 263.547 147.571C263.426 148.019 263.316 148.456 263.19 148.883C263.074 149.269 262.801 149.51 262.406 149.593C262.017 149.675 261.675 149.562 261.412 149.269C261.296 149.15 261.228 148.991 261.139 148.847C261.139 148.693 261.139 148.538 261.139 148.384Z" fill="#EB3B52"/>
<rect x="366.781" y="34.665" width="0.926736" height="33.3625" fill="#0064B7"/>
<circle cx="367.246" cy="31.4213" r="2.78021" stroke="#0064B7" stroke-width="0.926736"/>
<rect x="139.732" y="34.665" width="0.926736" height="33.3625" fill="#0064B7"/>
<circle cx="140.197" cy="31.4213" r="2.78021" stroke="#0064B7" stroke-width="0.926736"/>
<path d="M377.983 303.167C377.983 303.167 382.174 301.462 381.86 296.662C381.555 291.852 379.079 288.453 384.183 289.843C389.298 291.233 391.013 291.852 394.737 291.081C398.441 290.31 401.546 288.757 399.923 293.557C398.299 298.367 396.543 302.386 400.369 303.167C404.195 303.938 408.305 301.046 408.792 308.576C409.279 316.096 403.211 324.559 393.398 324.873C383.585 325.178 379.241 321.119 379.241 321.119C379.241 321.119 376.613 317.415 380.713 316.481C384.823 315.568 389.004 313.822 386.913 311.905C384.823 309.987 378.003 309.834 378.003 309.834C378.003 309.834 369.449 308.119 377.983 303.167Z" fill="#649EEA"/>
<path d="M422.856 304.407C422.166 299.607 422.694 296.157 431.604 294.858C440.514 293.559 445.709 298.907 446.247 304.407C446.785 309.907 439.042 311.906 439.042 311.906C439.042 311.906 433.542 313.469 436.333 318.279C439.113 323.089 440.392 327.737 434.06 328.437C427.727 329.137 420.806 327.463 416.94 324.896C413.084 322.318 409.126 315.803 413.551 312.404C413.551 312.404 414.789 311.551 419.051 311.318C423.313 311.074 422.856 304.407 422.856 304.407Z" fill="#023EA1"/>
<path d="M391.494 303.635C391.494 303.635 398.902 320.379 399.907 331.775" stroke="#023EA1" stroke-width="0.926736" stroke-miterlimit="10"/>
<path d="M432.653 306.386C432.653 306.386 419.552 325.839 416.447 332.344" stroke="#649EEA" stroke-width="0.926736" stroke-miterlimit="10"/>
<path d="M395.338 330.444H425.406C425.406 330.444 428.704 330.678 428.42 335.173C428.176 339.314 422.92 338.41 420.21 338.41C417.501 338.41 394.678 338.41 394.678 338.41C394.678 338.41 390.984 339.04 390.984 334.859C390.995 330.668 392.395 330.444 395.338 330.444Z" fill="#0054A5"/>
<path d="M394.699 338.422L399.245 364.999H419.44L422.859 345.048L394.73 338.422H394.699Z" fill="#0054A5"/>
<path d="M394.729 338.422L422.858 345.048L423.995 338.422H394.729Z" fill="#006AD5"/>
<path d="M407.66 331.45C407.66 331.45 409.182 301.97 417.97 283.471" stroke="#FCBE42" stroke-width="0.926736" stroke-miterlimit="10"/>
<path d="M425.216 272.835C425.216 272.835 425.937 281.887 417.108 285.418C417.098 285.428 415.19 277.696 425.216 272.835Z" fill="#FCBE42"/>
<path d="M411.951 301.644C411.951 301.644 415.209 293.922 425.214 294.957C425.225 294.947 424.443 302.649 411.951 301.644Z" fill="#FCBE42"/>
<path d="M408.672 321.068C408.672 321.068 410.356 312.859 420.372 311.915C420.362 311.915 421.103 319.597 408.672 321.068Z" fill="#FCBE42"/>
<path d="M408.318 321.108C408.318 321.108 409.475 312.817 400.352 308.565C400.352 308.565 397.085 315.578 408.318 321.108Z" fill="#FCBE42"/>
<path d="M412.065 301.585C412.065 301.585 414.277 293.497 405.763 288.129C405.773 288.129 401.622 294.654 412.065 301.585Z" fill="#FCBE42"/>
<path d="M7.28973 303.167C7.28973 303.167 11.4808 301.462 11.1662 296.662C10.8618 291.852 8.38568 288.453 13.49 289.843C18.6045 291.233 20.3195 291.852 24.0438 291.081C27.7477 290.31 30.853 288.757 29.2293 293.557C27.6057 298.367 25.8501 302.386 29.6758 303.167C33.5015 303.938 37.6114 301.046 38.0985 308.576C38.5856 316.096 32.5172 324.559 22.7043 324.873C12.8913 325.178 8.54805 321.119 8.54805 321.119C8.54805 321.119 5.91978 317.415 10.0195 316.481C14.1294 315.568 18.3102 313.822 16.2198 311.905C14.1293 309.987 7.31002 309.834 7.31002 309.834C7.31002 309.834 -1.24459 308.119 7.28973 303.167Z" fill="#649EEA"/>
<path d="M52.163 304.407C51.4729 299.607 52.0006 296.157 60.9104 294.858C69.8202 293.559 75.0159 298.907 75.5537 304.407C76.0915 309.907 68.3488 311.906 68.3488 311.906C68.3488 311.906 62.8486 313.469 65.6393 318.279C68.4198 323.089 69.6984 327.737 63.3662 328.437C57.0339 329.137 50.1131 327.463 46.2468 324.896C42.3906 322.318 38.433 315.803 42.8574 312.404C42.8574 312.404 44.0955 311.551 48.3575 311.318C52.6196 311.074 52.163 304.407 52.163 304.407Z" fill="#023EA1"/>
<path d="M20.8008 303.635C20.8008 303.635 28.2087 320.379 29.2133 331.775" stroke="#023EA1" stroke-width="0.926736" stroke-miterlimit="10"/>
<path d="M61.96 306.386C61.96 306.386 48.8591 325.839 45.7539 332.344" stroke="#649EEA" stroke-width="0.926736" stroke-miterlimit="10"/>
<path d="M24.6444 330.444H54.7124C54.7124 330.444 58.0105 330.678 57.7263 335.173C57.4828 339.314 52.2262 338.41 49.5167 338.41C46.8073 338.41 23.9848 338.41 23.9848 338.41C23.9848 338.41 20.291 339.04 20.291 334.859C20.3012 330.668 21.7016 330.444 24.6444 330.444Z" fill="#0054A5"/>
<path d="M24.0059 338.422L28.5521 364.999H48.7463L52.1661 345.048L24.0363 338.422H24.0059Z" fill="#0054A5"/>
<path d="M24.0352 338.422L52.1649 345.048L53.3015 338.422H24.0352Z" fill="#006AD5"/>
<path d="M36.9688 331.45C36.9688 331.45 38.4909 301.97 47.2789 283.471" stroke="#FCBE42" stroke-width="0.926736" stroke-miterlimit="10"/>
<path d="M54.525 272.835C54.525 272.835 55.2455 281.887 46.4169 285.418C46.4067 285.428 44.499 277.696 54.525 272.835Z" fill="#FCBE42"/>
<path d="M41.2598 301.644C41.2598 301.644 44.5172 293.922 54.523 294.957C54.5331 294.947 53.7517 302.649 41.2598 301.644Z" fill="#FCBE42"/>
<path d="M37.9805 321.068C37.9805 321.068 39.665 312.859 49.6809 311.915C49.6708 311.915 50.4115 319.597 37.9805 321.068Z" fill="#FCBE42"/>
<path d="M37.6268 321.108C37.6268 321.108 38.7837 312.817 29.6608 308.565C29.6608 308.565 26.3931 315.578 37.6268 321.108Z" fill="#FCBE42"/>
<path d="M41.3731 301.585C41.3731 301.585 43.5853 293.497 35.0713 288.129C35.0815 288.129 30.931 294.654 41.3731 301.585Z" fill="#FCBE42"/>
<rect x="286.709" y="191.565" width="86.5977" height="42.6298" rx="3.24357" transform="rotate(-12.1767 286.709 191.565)" fill="white" stroke="#0C6DBB" stroke-width="0.926736"/>
<ellipse cx="296.293" cy="201.822" rx="2.25578" ry="2.31684" transform="rotate(-12.1767 296.293 201.822)" fill="#9FD2F2"/>
<rect x="299.971" y="199.607" width="12.6324" height="0.926736" transform="rotate(-12.1767 299.971 199.607)" fill="#9FD2F2"/>
<rect x="300.357" y="201.419" width="16.2416" height="0.926736" transform="rotate(-12.1767 300.357 201.419)" fill="#9FD2F2"/>
<rect x="292.82" y="196.409" width="4.51157" height="0.926736" transform="rotate(-12.1767 292.82 196.409)" fill="#9FD2F2"/>
<rect x="292.232" y="193.691" width="9.02314" height="0.926736" transform="rotate(-12.1767 292.232 193.691)" fill="#9FD2F2"/>
<rect x="347.113" y="182.798" width="17.144" height="1.85347" transform="rotate(-12.1767 347.113 182.798)" fill="#9FD2F2"/>
<rect x="355.537" y="187.616" width="9.92545" height="1.85347" transform="rotate(-12.1767 355.537 187.616)" fill="#9FD2F2"/>
<rect x="349.85" y="195.479" width="17.144" height="1.85347" transform="rotate(-12.1767 349.85 195.479)" fill="#9FD2F2"/>
<rect x="351.217" y="201.821" width="17.144" height="1.85347" transform="rotate(-12.1767 351.217 201.821)" fill="#9FD2F2"/>
<rect x="352.586" y="208.162" width="17.144" height="1.85347" transform="rotate(-12.1767 352.586 208.162)" fill="#9FD2F2"/>
<rect x="353.953" y="214.503" width="17.144" height="1.85347" transform="rotate(-12.1767 353.953 214.503)" fill="#9FD2F2"/>
<rect x="326.236" y="192.991" width="9.02314" height="0.926736" transform="rotate(-12.1767 326.236 192.991)" fill="#9FD2F2"/>
<rect x="330.25" y="198.762" width="3.60926" height="0.926736" transform="rotate(-12.1767 330.25 198.762)" fill="#9FD2F2"/>
<rect x="331.619" y="205.102" width="3.60926" height="0.926736" transform="rotate(-12.1767 331.619 205.102)" fill="#9FD2F2"/>
<rect x="332.988" y="211.443" width="3.60926" height="0.926736" transform="rotate(-12.1767 332.988 211.443)" fill="#9FD2F2"/>
<rect x="334.354" y="217.784" width="3.60926" height="0.926736" transform="rotate(-12.1767 334.354 217.784)" fill="#9FD2F2"/>
<ellipse cx="298.051" cy="209.974" rx="2.25578" ry="2.31684" transform="rotate(-12.1767 298.051 209.974)" fill="#9FD2F2"/>
<rect x="301.727" y="207.76" width="12.6324" height="0.926736" transform="rotate(-12.1767 301.727 207.76)" fill="#9FD2F2"/>
<rect x="302.115" y="209.57" width="16.2416" height="0.926736" transform="rotate(-12.1767 302.115 209.57)" fill="#9FD2F2"/>
<ellipse cx="299.813" cy="218.128" rx="2.25578" ry="2.31684" transform="rotate(-12.1767 299.813 218.128)" fill="#9FD2F2"/>
<rect x="303.488" y="215.913" width="12.6324" height="0.926736" transform="rotate(-12.1767 303.488 215.913)" fill="#9FD2F2"/>
<rect x="303.877" y="217.725" width="16.2416" height="0.926736" transform="rotate(-12.1767 303.877 217.725)" fill="#9FD2F2"/>
<ellipse cx="301.569" cy="226.28" rx="2.25578" ry="2.31684" transform="rotate(-12.1767 301.569 226.28)" fill="#9FD2F2"/>
<rect x="305.244" y="224.065" width="12.6324" height="0.926736" transform="rotate(-12.1767 305.244 224.065)" fill="#9FD2F2"/>
<rect x="305.633" y="225.877" width="16.2416" height="0.926736" transform="rotate(-12.1767 305.633 225.877)" fill="#9FD2F2"/>
<path d="M398.447 264.572L397.334 357.307L389.544 358.123L378.564 267.02L398.447 264.572Z" fill="#DC051F"/>
<path d="M367.509 264.572L362.094 357.307L369.958 358.123L390.508 267.02L367.509 264.572Z" fill="#EE384E"/>
<path d="M379.454 199.658C382.496 199.732 386.131 206.632 386.057 209.599C385.983 212.641 384.499 212.567 383.683 214.051C382.867 215.534 378.341 216.944 376.041 216.944C373.816 216.87 373.148 213.086 373.222 207.819C373.371 202.551 375.67 199.584 375.67 199.584C375.67 199.584 376.412 199.584 379.454 199.658Z" fill="#FFBE9B"/>
<path d="M379.975 211.008C379.975 211.008 379.975 211.008 379.901 215.534C379.826 220.059 375.598 223.398 375.598 223.398C375.598 223.398 375.524 226.439 380.049 227.256C384.574 228.072 389.248 222.953 389.248 222.953C389.248 222.953 388.506 221.395 387.097 217.611C385.687 213.828 385.02 210.044 385.02 210.044L379.975 211.008Z" fill="#FEBE9A"/>
<path d="M377.894 201.142C380.862 201.958 380.936 201.958 382.345 203.516C383.829 205.074 384.497 208.857 384.497 208.857C384.497 208.857 384.868 210.86 385.164 211.899C385.535 212.938 385.758 214.124 385.832 214.941C385.906 215.682 386.574 215.757 387.316 215.757C388.058 215.757 389.616 215.015 391.174 212.047C392.732 209.08 392.361 205.964 392.064 205.296C391.322 203.664 391.396 200.771 391.396 200.029C391.396 199.287 391.396 198.545 389.987 196.987C388.503 195.429 380.936 195.281 380.936 195.281C380.194 195.281 378.636 195.207 377.894 194.465C377.152 193.649 374.185 192.091 372.627 192.833C371.069 193.574 373.22 199.658 373.22 199.658C374.11 201.809 374.927 200.326 377.894 201.142Z" fill="#160C56"/>
<path d="M386.057 207.374C385.983 209.673 383.757 208.857 383.757 208.857C383.757 208.857 382.273 206.557 383.46 205.296C384.573 204.035 386.131 205.074 386.057 207.374Z" fill="#FFBE9B"/>
<path d="M369.735 237.346C369.735 237.346 359.942 247.138 358.458 248.622C356.974 250.106 354.526 248.622 352.078 246.174C349.63 243.726 344.214 233.933 342.285 230.966C340.282 227.998 332.492 225.55 332.492 225.55C332.492 225.55 340.282 224.066 341.321 223.621C342.285 223.102 341.84 221.618 341.321 220.208C340.801 218.725 342.285 219.689 342.285 219.689C342.285 219.689 343.769 220.653 345.253 223.102C346.736 225.55 346.217 227.034 346.736 228.517C347.256 230.001 355.565 240.239 356.01 240.758C356.529 241.278 356.974 240.758 356.974 240.758L363.8 231.485L369.735 237.346Z" fill="#FFBE9B"/>
<path d="M368.176 214.792C368.695 215.757 368.176 217.241 368.176 217.241L359.348 219.169C359.348 219.169 363.725 221.098 366.173 222.582C368.621 224.066 372.553 226.959 372.553 226.959L374.482 224.511C374.482 224.511 372.553 220.579 372.034 218.131C371.514 215.683 368.102 213.234 368.102 213.234C368.102 213.234 367.731 213.828 368.176 214.792Z" fill="#FFBE9B"/>
<path d="M397.481 356.64L389.097 356.565C389.097 357.975 388.504 358.123 388.504 358.123C388.504 358.123 381.085 361.388 378.637 362.575C376.189 363.762 378.785 364.281 378.785 364.281C378.785 364.281 392.584 364.429 395.107 364.429C397.629 364.429 397.184 363.242 397.184 363.242L397.481 356.64Z" fill="#170856"/>
<path d="M370.475 356.64L362.092 356.565C362.092 357.975 361.498 358.123 361.498 358.123C361.498 358.123 354.079 361.388 351.631 362.575C349.183 363.762 351.779 364.281 351.779 364.281C351.779 364.281 365.578 364.429 368.101 364.429C370.623 364.429 370.178 363.242 370.178 363.242L370.475 356.64Z" fill="#170856"/>
<path d="M386.351 222.137C386.351 222.137 387.316 221.172 388.28 221.618C389.245 222.137 393.696 225.995 396.589 237.271C399.557 248.548 398.518 266.872 398.518 266.872L367.285 266.205C367.285 266.205 367.211 255.299 367.73 245.209C368.249 235.12 368.843 230.817 370.401 227.701C372.033 224.585 375.297 222.211 376.187 221.469C377.152 220.727 377.968 221.395 377.968 221.395C382.048 226.069 386.351 222.137 386.351 222.137Z" fill="#0083F9"/>
<path d="M369.659 238.83C369.659 238.83 374.036 233.488 376.484 229.556C378.933 225.624 376.484 221.692 371.588 223.695C366.692 225.624 362.314 232.004 362.314 232.004L369.659 238.83Z" fill="#0064B7"/>
<path d="M100.199 214.817L133.834 188.295C133.834 188.295 134.753 187.683 136.08 185.766C137.418 183.86 139.994 181.931 141.491 182.351L144.826 179.254C144.826 179.254 145.994 179.027 144.826 180.105C143.658 181.194 143 182.521 143 182.521C143 182.521 144.043 183.054 143.748 183.474C143.748 183.474 144.588 183.724 144.497 184.348C144.497 184.348 146.494 184.972 144.531 186.923C142.569 188.885 141.899 189.668 139.744 190.621C137.589 191.574 135.955 192.697 133.834 194.705C131.713 196.701 104.442 222.883 104.442 222.883L100.199 214.817Z" fill="#FFBE9B"/>
<path d="M84.475 208.159C84.475 208.159 76.8406 207.978 75.6381 199.413C74.447 190.849 80.2437 187.899 83.5448 186.164C86.8572 184.417 88.8764 184.689 90.3624 182.295C91.8484 179.902 92.3929 179.267 92.3929 179.267C92.3929 179.267 98.6094 185.733 94.2647 191.473C89.9087 197.201 84.475 208.159 84.475 208.159Z" fill="#180857"/>
<path d="M72.0427 357.318C71.952 357.34 71.952 357.477 71.9293 357.567C71.7024 358.509 70.5454 363.954 73.4948 364.011C76.5009 364.079 87.9241 364.158 89.5009 364.169C89.6143 364.169 89.705 364.101 89.7391 363.988C89.8525 363.546 90.0681 362.445 89.2967 362.093C89.2967 362.093 82.6605 359.008 80.3918 357.204C78.3159 355.537 72.9502 357.034 72.0427 357.318Z" fill="#170856"/>
<path d="M100.721 356.501C100.63 356.535 100.619 356.66 100.608 356.751C100.381 357.772 99.2238 363.784 102.173 363.932C105.191 364.079 119.132 363.943 120.936 363.932C121.072 363.932 121.174 363.852 121.208 363.739C121.344 363.33 121.48 362.377 120.278 361.856C120.278 361.856 112.575 358.77 109.059 356.615C105.917 354.675 101.549 356.172 100.721 356.501Z" fill="#170856"/>
<path d="M70.2278 261.623L71.9634 357.421L80.4032 357.194L87.1074 296.38L86.302 279.5L81.4128 261.43L70.2278 261.623Z" fill="#0064E1"/>
<path d="M79.1328 261.463C79.1328 261.463 87.1075 302.165 89.5464 306.895L100.652 356.604H109.092L103.851 261.305L79.1328 261.463Z" fill="#003EB0"/>
<path d="M94.2544 191.46C94.2544 191.46 98.4743 194.954 98.531 201.012C98.5878 207.069 97.5328 207.285 95.0939 207.285C92.6549 207.285 90.7151 207.058 90.4429 208.397C90.1706 209.735 90.4996 214.953 91.0555 216.507C91.6 218.062 80.9595 216.507 80.9595 216.507C80.9595 216.507 83.8975 208.521 84.3513 205.028C84.805 201.534 84.2945 197.586 86.4045 194.262C88.4804 190.893 90.9761 188.341 94.2544 191.46Z" fill="#FFBE9B"/>
<path d="M92.0891 218.367L100.642 213.603L105.305 223.029L95.8099 231.14L92.0891 218.367Z" fill="#F79F03"/>
<path d="M79.1349 217.596C79.1349 217.596 74.0075 223.404 72.2266 237.448C70.4456 251.491 70.2301 261.621 70.2301 261.621H103.842C103.842 261.621 101.289 241.804 99.032 231.322C96.7746 220.829 92.7135 216.598 92.7135 216.598C92.7135 216.598 91.6585 215.316 90.388 216.155C89.1062 216.995 86.0547 217.153 83.3435 215.872C80.6097 214.578 79.9971 216.428 79.1349 217.596Z" fill="#FCBE42"/>
<path d="M85.9308 196.724C85.9308 196.724 84.1044 196.282 83.265 197.223C82.4255 198.165 83.4351 200.218 85.0913 200.83C86.7702 201.454 85.9308 196.724 85.9308 196.724Z" fill="#FFBE9B"/>
<path d="M90.7042 234.963C90.7042 234.963 94.5384 261.598 96.5349 268.847C98.5314 276.096 101.526 282.913 101.526 282.913C101.526 282.913 102.865 286.248 101.526 287.496C100.188 288.744 97.0454 290.162 96.4101 287.916C95.7862 285.67 95.7862 280.837 94.9467 279.76C94.1073 278.671 86.8813 261.859 84.4537 251.786C82.0375 241.712 81.6291 237.22 81.6291 237.22L90.7042 234.963Z" fill="#FFBE9B"/>
<path d="M92.084 236.313C92.084 236.313 89.7812 221.634 83.6215 221.566C83.6215 221.566 80.1276 221.566 80.0369 226.887C79.9461 232.207 80.4566 238.525 80.4566 238.525L92.084 236.313Z" fill="#F79F03"/>
<path d="M230.585 246.147H235.726L241.489 245.837C241.489 245.837 242.268 249.408 238.841 249.874C235.57 250.184 230.274 250.96 229.651 250.805C228.56 250.339 230.585 246.147 230.585 246.147Z" fill="#FBBE9B"/>
<path d="M226.693 220.84C226.693 220.84 232.3 226.274 232.612 229.224C233.547 232.174 231.677 236.521 231.21 237.918C231.054 239.16 231.054 255.617 231.054 255.617H209.402V220.685L226.693 220.84Z" fill="#0064E1"/>
<path d="M239.31 204.539C239.31 204.539 238.998 208.73 237.908 211.37V213.388C237.908 213.543 237.752 213.699 237.596 213.699L236.35 213.543V215.251C236.35 215.407 236.194 215.562 236.039 215.562H234.948C234.793 215.562 234.637 215.717 234.637 215.872L234.793 216.804C234.793 216.959 234.793 217.114 234.481 217.114C233.546 217.27 232.144 217.425 230.119 216.028C228.094 214.63 226.848 215.251 226.848 216.804C226.848 218.046 227.939 221.927 226.069 223.014C224.668 223.946 220.15 223.325 219.216 222.238C218.125 221.151 219.216 218.512 220.618 217.27C221.708 216.183 223.266 204.383 225.758 203.141C227.627 202.831 239.31 204.539 239.31 204.539Z" fill="#FBBC98"/>
<path d="M214.387 237.92L214.231 245.217C214.231 245.993 214.543 246.304 215.322 246.304C216.101 246.304 216.568 246.304 217.97 245.528C221.241 244.286 229.497 239.783 230.587 239.007C230.587 239.007 230.743 239.007 230.743 238.852C230.899 238.541 231.989 236.988 234.481 237.144C237.441 237.299 238.22 238.075 237.752 238.852C237.597 239.783 236.974 239.783 236.974 239.783L237.285 240.559C237.285 240.559 236.974 241.491 235.416 241.491C234.17 241.491 232.456 240.715 232.145 241.336C231.833 241.646 218.904 250.185 215.633 252.359C215.322 252.514 214.699 252.669 214.231 253.135C212.362 253.446 207.689 254.222 207.222 251.117C206.287 247.08 206.287 238.386 206.287 238.386L214.387 237.92Z" fill="#FBBE9B"/>
<path d="M214.387 224.722C214.699 224.567 215.322 224.722 215.322 225.033V238.229C215.322 238.54 215.166 239.006 214.543 239.006C213.92 239.006 213.297 239.006 211.895 239.006C209.714 239.006 207.689 239.006 206.599 239.006C206.287 239.006 206.287 238.85 206.287 238.695L206.443 229.535C206.443 229.38 206.443 229.224 206.599 229.224L214.387 224.722Z" fill="#0054A3"/>
<path d="M198.808 230.467C197.718 226.275 205.039 220.531 205.039 220.531C205.039 220.531 208.621 219.288 209.245 215.097C210.023 210.905 213.918 209.663 215.475 208.265C217.345 206.868 218.435 203.297 218.435 203.297L218.591 202.366C218.591 202.366 221.55 189.479 231.675 192.74C231.675 192.74 236.348 194.447 238.218 197.863C238.218 197.863 244.916 198.95 243.514 204.073C242.268 209.197 239.152 206.092 239.152 206.092C239.152 206.092 237.906 203.452 236.504 205.16C235.102 207.023 231.675 208.265 230.741 206.402C229.65 204.539 227.625 203.452 227.002 206.092V207.334C227.002 207.334 221.862 213.544 221.395 215.718C220.616 217.891 219.525 221.152 217.033 222.394C214.696 223.791 211.893 229.38 210.802 232.485C209.4 236.056 200.21 236.677 198.808 230.467Z" fill="#1F1952"/>
<path d="M249.9 230.777L262.984 231.243L246.473 248.942L233.232 248.321L249.9 230.777Z" fill="#1C164F"/>
<path d="M250.679 243.974C250.679 243.974 251.926 246.303 250.835 247.079C249.589 247.855 248.499 248.011 247.876 247.234C247.253 246.458 246.941 244.595 247.72 244.906C248.499 244.906 248.654 245.061 248.654 245.061V244.284C248.654 244.129 248.654 243.974 248.81 243.974C249.433 243.819 250.368 243.198 250.679 243.974Z" fill="#FBBE9B"/>
<path d="M227.313 255.618L231.051 255.308V357.622L223.107 357.777L218.59 291.017L227.313 255.618Z" fill="#DE051F"/>
<path d="M209.401 255.774C209.401 255.774 209.245 259.345 209.09 260.743C208.934 261.674 203.949 269.592 207.844 279.373C207.844 279.529 207.844 279.684 207.999 280.15C207.999 282.323 208.778 295.675 205.974 302.507L191.332 349.549L196.94 353.586C196.94 353.586 216.099 312.754 216.722 310.735C217.345 308.872 229.807 268.816 227.938 257.793L227.626 255.774H209.401Z" fill="#EE384E"/>
<path d="M231.056 357.623C231.056 357.623 236.196 360.262 238.377 360.883C240.246 361.194 240.402 362.591 240.557 363.057C240.557 363.212 240.557 363.368 240.402 363.368H223.111V357.623H231.056Z" fill="#221D56"/>
<path d="M196.784 352.964C196.784 352.964 198.186 357.156 201.457 359.64C204.572 361.969 201.457 363.832 201.457 363.832L188.372 355.914C188.216 355.604 187.438 354.207 188.372 352.964C189.307 351.567 191.332 349.238 191.332 349.238L196.784 352.964Z" fill="#221D56"/>
<path d="M116.029 45.0365C115.969 44.9768 115.909 44.9768 115.789 44.9768L114.289 45.1561C114.109 45.1561 113.929 45.0365 113.869 44.8572C113.689 44.14 113.449 43.5424 113.029 42.885C112.909 42.7057 112.969 42.5264 113.089 42.3471L114.169 41.5104C114.229 41.4506 114.289 41.3908 114.289 41.2713C114.289 41.1518 114.289 41.092 114.229 41.0322L112.549 39.3588C112.489 39.299 112.429 39.2393 112.309 39.299C112.249 39.299 112.129 39.3588 112.069 39.4186L111.229 40.4943C111.109 40.6736 110.869 40.6736 110.689 40.5541C110.089 40.1955 109.429 39.8967 108.709 39.7174C108.529 39.6576 108.348 39.4783 108.408 39.299L108.589 37.8049C108.589 37.7451 108.589 37.6256 108.529 37.5658C108.469 37.5061 108.408 37.4463 108.288 37.4463H105.888C105.828 37.4463 105.708 37.5061 105.648 37.5658C105.588 37.6256 105.588 37.6854 105.588 37.8049L105.768 39.299C105.768 39.4783 105.648 39.6576 105.468 39.7174C104.748 39.8967 104.148 40.1357 103.488 40.5541C103.308 40.6736 103.128 40.6139 102.948 40.4943L102.108 39.4186C102.048 39.3588 101.988 39.299 101.868 39.299C101.748 39.299 101.688 39.299 101.628 39.3588L99.9476 41.0322C99.8875 41.092 99.8875 41.1518 99.8875 41.2713C99.8875 41.3908 99.9475 41.4506 100.008 41.5104L101.088 42.3471C101.268 42.4666 101.268 42.7057 101.148 42.885C100.788 43.4826 100.488 44.14 100.308 44.8572C100.248 45.0365 100.068 45.1561 99.8875 45.1561L98.3874 44.9768C98.3274 44.9768 98.2074 44.9768 98.1474 45.0365C98.0873 45.0963 98.0273 45.1561 98.0273 45.2756V47.6662C98.0273 47.726 98.0873 47.8455 98.1474 47.9053C98.2074 47.965 98.2674 47.965 98.3874 47.965L99.8875 47.7857C100.068 47.7857 100.248 47.9053 100.308 48.0846C100.488 48.8018 100.728 49.3994 101.148 50.0568C101.268 50.2361 101.208 50.4752 101.088 50.535L100.008 51.3717C99.9475 51.4315 99.8875 51.4912 99.8875 51.6108C99.8875 51.6705 99.8875 51.79 99.9476 51.8498L101.628 53.5233C101.688 53.583 101.748 53.6428 101.868 53.583C101.928 53.583 102.048 53.5233 102.108 53.4635L102.948 52.3877C103.068 52.2084 103.308 52.2084 103.488 52.2682C104.088 52.6268 104.748 52.9256 105.468 53.0451C105.648 53.1049 105.828 53.2842 105.768 53.4635L105.588 54.9576C105.588 55.0174 105.588 55.1369 105.648 55.1967C105.708 55.2565 105.768 55.3162 105.888 55.3162H108.288C108.348 55.3162 108.469 55.2565 108.529 55.1967C108.589 55.1369 108.589 55.0772 108.589 54.9576L108.408 53.4635C108.408 53.2842 108.529 53.1049 108.709 53.0451C109.429 52.8658 110.029 52.6268 110.689 52.2682C110.869 52.1486 111.049 52.2084 111.229 52.3877L112.069 53.4635C112.129 53.5233 112.189 53.583 112.309 53.583C112.429 53.583 112.489 53.583 112.549 53.5233L114.229 51.8498C114.289 51.79 114.289 51.7303 114.289 51.6108C114.289 51.4912 114.229 51.4315 114.169 51.3717L113.089 50.535C112.909 50.4154 112.909 50.1764 113.029 50.0568C113.389 49.4592 113.689 48.8018 113.869 48.0846C113.929 47.9053 114.109 47.7857 114.289 47.7857L115.789 47.965C115.849 47.965 115.969 47.965 116.029 47.9053C116.089 47.8455 116.149 47.7857 116.149 47.6662V45.2756C116.149 45.2158 116.149 45.0963 116.029 45.0365ZM115.549 47.3076L114.349 47.1881C113.869 47.1283 113.389 47.4272 113.269 47.965C113.149 48.5627 112.849 49.2201 112.549 49.758C112.309 50.1764 112.369 50.7143 112.789 51.0729L113.629 51.7303L112.429 52.9256L111.769 52.0889C111.469 51.6705 110.929 51.6108 110.509 51.8498C109.969 52.2084 109.369 52.4475 108.709 52.567C108.228 52.6865 107.868 53.1647 107.928 53.6428L108.048 54.8381H106.368L106.488 53.6428C106.548 53.1647 106.248 52.6865 105.708 52.567C105.048 52.4475 104.448 52.1486 103.908 51.8498C103.488 51.6108 102.948 51.6705 102.648 52.0889L101.988 52.9256L100.788 51.7303L101.628 51.0729C102.048 50.774 102.108 50.2361 101.868 49.758C101.508 49.2201 101.268 48.6225 101.148 47.965C101.028 47.4869 100.548 47.1283 100.068 47.1881L98.8674 47.3076V45.6342L100.068 45.7537C100.548 45.8135 101.028 45.5147 101.148 44.9768C101.268 44.3791 101.568 43.7217 101.868 43.1838C102.108 42.7654 102.048 42.2275 101.628 41.9287L100.788 41.2713L101.988 40.076L102.648 40.9127C102.948 41.3311 103.488 41.3908 103.908 41.1518C104.448 40.7932 105.048 40.5541 105.708 40.4346C106.188 40.315 106.548 39.8369 106.488 39.3588L106.368 38.1635H108.048L107.928 39.3588C107.868 39.8369 108.168 40.315 108.709 40.4346C109.369 40.5541 109.969 40.8529 110.509 41.1518C110.929 41.3908 111.469 41.3311 111.769 40.9127L112.429 40.076L113.629 41.2713L112.789 41.9287C112.369 42.2275 112.309 42.7654 112.549 43.1838C112.909 43.7217 113.149 44.3193 113.269 44.9768C113.389 45.4549 113.869 45.8135 114.349 45.7537L115.549 45.6342V47.3076Z" stroke="#003EB0" stroke-width="0.926736" stroke-miterlimit="10"/>
<path d="M107.209 42.2881C104.929 42.2881 103.068 44.1408 103.068 46.4717C103.068 48.8025 104.929 50.6553 107.209 50.6553C109.489 50.6553 111.349 48.8025 111.349 46.4717C111.409 44.1408 109.549 42.2881 107.209 42.2881ZM107.209 49.9979C105.229 49.9979 103.668 48.3842 103.668 46.4119C103.668 44.4396 105.289 42.826 107.209 42.826C109.129 42.826 110.749 44.4396 110.749 46.4119C110.749 48.3842 109.189 49.9979 107.209 49.9979Z" stroke="#003EB0" stroke-width="0.926736" stroke-miterlimit="10"/>
<rect x="402.99" y="163.481" width="9.26735" height="9.26735" transform="rotate(45 402.99 163.481)" fill="#EE384E"/>
</g>
<defs>
<clipPath id="clip0_3705_1761">
<rect width="450" height="365" fill="white"/>
</clipPath>
</defs>
</svg>
