<svg width="384" height="439" viewBox="0 0 384 439" fill="none" xmlns="http://www.w3.org/2000/svg">
<path d="M105.194 205.325C139.666 205.325 167.611 177.597 167.611 143.393C167.611 109.189 139.666 81.4614 105.194 81.4614C70.7224 81.4614 42.7773 109.189 42.7773 143.393C42.7773 177.597 70.7224 205.325 105.194 205.325Z" stroke="#003EB0" stroke-miterlimit="10" stroke-dasharray="6 6"/>
<path d="M380.559 328.334C380.559 328.334 378.585 334.219 381.323 339.201C384.061 344.184 385.648 347.496 380.597 348.859C375.547 350.222 370.525 351.269 370.525 356.856C370.525 362.443 376.601 375.711 367.477 379.34C358.353 382.959 344.062 385.82 340.715 374.357C337.367 362.895 333.613 361.829 335.954 353.39C338.286 344.942 347.11 349.627 348.929 342.225C350.748 334.833 346.501 330.609 355.005 330.004C363.52 329.399 364.129 332.27 363.82 323.063C363.51 313.856 374.163 316.276 378.265 319.444C382.368 322.631 380.559 328.334 380.559 328.334Z" fill="#023EA1"/>
<path d="M368.552 336.023C368.552 336.023 348.784 361.819 341.789 381.432" stroke="white" stroke-miterlimit="10" stroke-linecap="round" stroke-linejoin="round"/>
<path d="M351.563 310.928C351.563 310.928 344.877 316.756 351.563 318.973C358.249 321.191 361.093 324.196 357.852 330.436C354.611 336.676 355.675 341.505 359.187 343.704C362.699 345.912 369.801 348.926 364.934 357.182C360.068 365.429 351.756 382.124 342.023 377.909C332.289 373.685 326.813 358.402 330.47 352.161C334.118 345.921 340.204 343.915 336.759 336.676C333.315 329.438 326.823 333.652 326.213 325.213C325.603 316.765 324.229 308.24 335.637 305.005C345.883 302.077 354.407 306.8 351.563 310.928Z" stroke="#DE051F" stroke-miterlimit="10"/>
<path d="M342.857 316.564C342.857 316.564 346.302 369.673 350.356 382.95" stroke="#DE051F" stroke-miterlimit="10"/>
<path d="M356.235 349.752L346.608 359.794L335.955 354.782" stroke="#DE051F" stroke-miterlimit="10"/>
<path d="M351.978 325.214L343.948 331.444L334.533 328.334" stroke="#DE051F" stroke-miterlimit="10"/>
<path d="M92.73 324.446C92.73 324.446 89.837 318.129 94.8587 315.412C99.8803 312.695 107.33 316.919 107.021 321.892C106.711 326.865 103.209 328.507 106.189 330.926C109.169 333.345 116.406 341.352 112.546 345.134C108.695 348.898 103.392 346.2 102.773 353.439C102.154 360.677 112.362 367.772 102.773 372.908C93.1848 378.044 74.7916 382.412 75.0915 364.46C75.4011 346.507 88.318 357.221 84.9799 343.79C81.6419 330.369 88.1729 333.643 91.8205 330.945C95.4585 328.228 92.73 324.446 92.73 324.446Z" fill="#023EA1"/>
<path d="M98.806 334.574C98.806 334.574 91.8106 351.624 90.7462 368.376C89.6723 385.119 91.9557 388.892 91.9557 388.892" stroke="white" stroke-miterlimit="10" stroke-linecap="round" stroke-linejoin="round"/>
<path d="M100.115 380.846C100.115 380.846 111.387 348.666 127.197 331.002" stroke="#DE051F" stroke-miterlimit="10"/>
<path d="M138.739 321.526C138.739 321.526 136.611 331.789 125.6 332.864C125.59 332.864 125.958 323.677 138.739 321.526Z" stroke="#DE051F" stroke-miterlimit="10"/>
<path d="M114.588 349.185C114.588 349.185 120.722 341.678 131.568 346.046C131.578 346.036 128.201 354.312 114.588 349.185Z" stroke="#DE051F" stroke-miterlimit="10"/>
<path d="M104.605 369.633C104.605 369.633 109.153 361.07 120.648 363.249C120.648 363.268 118.983 372.024 104.605 369.633Z" stroke="#DE051F" stroke-miterlimit="10"/>
<path d="M104.207 369.576C104.207 369.576 108.203 360.763 99.3789 353.112C99.3789 353.121 93.4478 359.832 104.207 369.576Z" stroke="#DE051F" stroke-miterlimit="10"/>
<path d="M114.724 349.147C114.724 349.147 119.813 340.9 112.054 332.212C112.054 332.212 105.319 338.116 114.724 349.147Z" stroke="#DE051F" stroke-miterlimit="10"/>
<path d="M8.18608 324.446C8.18608 324.446 22.1769 319.78 22.3221 327.93C22.4769 336.081 25.8246 336.83 29.3175 337.435C32.8104 338.04 39.5058 336.523 39.2059 345.134C38.8963 353.726 35.4131 358.018 38.1319 361.685C40.8701 365.343 46.9754 383.747 39.2059 384.207C31.4364 384.659 25.0506 375.615 23.3864 371.084C21.7125 366.562 15.6266 364.45 10.6146 363.989C5.59303 363.538 0.11667 359.199 3.92884 353.669C7.72165 348.139 6.56059 340.9 2.66134 338.193C-1.24758 335.467 -1.24758 327.748 8.18608 324.446Z" fill="#FCBE42"/>
<path d="M12.2891 333.661L39.6612 390.994" stroke="white" stroke-miterlimit="10" stroke-linecap="round" stroke-linejoin="round"/>
<path d="M30.6902 343.925L23.4045 356.952L8.94922 355.349" stroke="white" stroke-miterlimit="10" stroke-linecap="round" stroke-linejoin="round"/>
<path d="M159.201 245.972L173.202 308.029C173.202 308.029 177.865 323.773 185.335 323.773C192.804 323.773 196.539 310.803 197.468 305.254C198.397 299.705 210.54 244.129 210.54 244.129L159.201 245.972Z" fill="#FF7D8E"/>
<path d="M169.053 249.428L174.964 275.647L176.822 283.893C176.822 283.893 178.186 289.058 179.115 290.671C180.392 292.889 182.492 295.519 185.153 295.519C189.758 295.519 192.052 289.385 192.632 285.957C193.213 282.53 200.682 248.286 200.682 248.286L169.053 249.428Z" fill="#FFA6B2"/>
<path d="M134.316 222.817C126.856 250.6 125.908 270.05 125.908 270.05C125.908 270.05 125.908 280.246 131.501 273.756C135.226 269.446 145.569 261.017 154.006 254.786C151.993 237.16 150.823 204.231 150.349 188.669C146.198 193.805 139.241 204.471 134.316 222.817Z" fill="#EE384E"/>
<path d="M162.318 207.072L153.91 184.848C153.91 184.848 152.507 186.028 150.359 188.668C150.833 204.231 152.004 237.16 154.017 254.786C158.245 251.646 161.999 249.074 164.186 247.826C170.717 244.11 162.318 207.072 162.318 207.072Z" fill="#EE384E"/>
<path d="M236.737 222.816C244.196 250.6 245.145 270.05 245.145 270.05C245.145 270.05 245.145 280.245 239.552 273.756C235.827 269.445 225.484 261.016 217.047 254.785C219.059 237.159 220.23 204.23 220.704 188.668C224.845 193.804 231.812 204.47 236.737 222.816Z" fill="#EE384E"/>
<path d="M208.733 207.072L217.141 184.847C217.141 184.847 218.544 186.028 220.692 188.668C220.218 204.23 219.047 237.159 217.035 254.785C212.807 251.646 209.053 249.073 206.866 247.825C200.325 244.11 208.733 207.072 208.733 207.072Z" fill="#EE384E"/>
<path d="M199.418 75.5579H164.595C158.161 87.2703 151.94 102.736 149.405 121.399C145.176 152.744 152.752 206.746 157.223 233.934H207.574C216.389 186.71 216.698 164.946 217.511 149.096C218.991 120.247 209.054 93.8465 199.418 75.5579Z" fill="white"/>
<path d="M186.266 151.505C199.673 151.505 210.542 140.721 210.542 127.418C210.542 114.115 199.673 103.331 186.266 103.331C172.859 103.331 161.99 114.115 161.99 127.418C161.99 140.721 172.859 151.505 186.266 151.505Z" fill="#EE384E"/>
<path d="M180.924 61.2911L169.478 67.3585C167.881 69.8449 166.217 72.581 164.592 75.5667H204.707C204.542 75.2595 204.387 74.9715 204.223 74.6835C199.608 70.5074 193.338 64.8144 190.716 62.2703C186.323 57.9886 180.924 61.2911 180.924 61.2911Z" fill="#EE384E"/>
<path d="M183.013 50.0881C183.013 50.0881 176.714 56.1363 169.486 67.3495L180.933 61.2821C180.933 61.2821 186.341 57.9796 190.734 62.2517C193.356 64.8054 199.616 70.4984 204.241 74.6649C196.597 60.3509 189.282 51.2018 188.15 50.0785C185.577 47.5441 183.013 50.0881 183.013 50.0881Z" fill="#BD4149"/>
<path d="M167.648 126.65L184.948 108.966C175.515 109.619 168.035 117.213 167.648 126.65Z" fill="#0064E1"/>
<path d="M192.92 110.128L169.041 134.522C169.273 135.069 169.534 135.607 169.815 136.135L194.565 110.838C194.023 110.579 193.481 110.329 192.92 110.128Z" fill="#0064E1"/>
<path d="M195.65 111.414L170.436 137.181C173.725 142.433 179.579 145.937 186.284 145.937C196.589 145.937 204.948 137.642 204.948 127.418C204.948 120.582 201.194 114.621 195.65 111.414Z" fill="#0064E1"/>
<path d="M186.266 108.899C185.821 108.899 185.385 108.938 184.94 108.967L167.64 126.65C167.631 126.91 167.602 127.159 167.602 127.418C167.602 129.934 168.114 132.343 169.034 134.523L192.913 110.128C190.852 109.341 188.617 108.899 186.266 108.899Z" fill="#003EB0"/>
<path d="M194.565 110.848L169.814 136.145C169.998 136.509 170.231 136.845 170.434 137.191L195.648 111.424C195.29 111.222 194.932 111.021 194.565 110.848Z" fill="#003EB0"/>
<path d="M207.263 233.934H157.23C158.314 240.51 159.204 245.512 159.707 248.257C159.988 249.784 160.143 250.6 160.143 250.6H209.13L204.37 250.129C205.405 244.6 206.373 239.195 207.263 233.934Z" fill="#0064E1"/>
<path d="M204.707 75.5579H199.414C209.041 93.8465 218.988 120.247 217.507 149.106C216.791 163.103 213.966 194.333 207.261 233.944H212.573C219.239 194.467 222.084 163.045 222.8 149.106C224.28 120.247 214.334 93.8465 204.707 75.5579Z" fill="#BDBDBD"/>
<path d="M204.291 250.6H209.138C210.193 244.907 211.664 239.348 212.583 233.934H207.271C206.371 239.195 205.326 245.06 204.291 250.6Z" fill="#023EA1"/>
<path d="M188.559 194.285C188.55 194.217 188.54 194.141 188.511 194.073C188.279 192.912 187.205 188.553 185.337 188.553C184.457 188.553 183.789 188.563 183.218 189.043C184.438 190.204 185.154 193.152 185.347 194.073C185.357 194.141 185.366 194.217 185.395 194.285C186.673 200.726 190.427 221.146 189.653 235.796C188.724 253.394 185.899 267.381 184.989 271.913C184.447 274.581 183.905 276.022 183.189 276.751C183.538 277.183 183.944 277.462 184.409 277.462C186.276 277.462 187.205 276.54 188.143 271.913C189.063 267.372 191.878 253.394 192.807 235.796C193.581 221.137 189.827 200.717 188.559 194.285Z" fill="#BA3E45"/>
<path d="M184.987 271.902C185.906 267.361 188.722 253.383 189.651 235.786C190.425 221.136 186.681 200.716 185.394 194.274C185.384 194.207 185.374 194.13 185.345 194.063C185.161 193.141 184.436 190.204 183.217 189.032C182.578 189.58 182.085 190.722 181.591 193.17C181.591 193.17 175.06 220.032 176.928 238.551C178.331 252.442 180.256 264.769 181.127 270.078C181.417 271.835 181.601 272.833 181.601 272.833C181.601 272.833 182.133 275.445 183.188 276.75C183.904 276.011 184.445 274.581 184.987 271.902Z" fill="#EE384E"/>
<path d="M69.2771 306.569C69.2771 306.569 65.0973 364.44 64.4974 374.703C63.8878 384.965 61.6915 419.536 61.6915 419.536H51.4257L44.498 305.936L69.2771 306.569Z" fill="#DE051F"/>
<path d="M30.6517 307.175C30.6517 307.175 31.8611 336.331 32.4029 343.724C32.9351 351.116 27.0814 376.393 23.7433 387.626C20.3956 398.868 15.6836 411.31 15.6836 411.31L23.7433 415.918C23.7433 415.918 41.1496 384.986 47.3904 366.735C53.6214 348.485 58.2657 321.172 57.5013 305.783L30.6517 307.175Z" fill="#EE384E"/>
<path d="M74.3395 265.768L82.167 276.098C82.167 276.098 82.7766 276.924 84.2279 276.549C85.6696 276.175 100.734 270.741 100.734 270.741C100.734 270.741 102.834 269.81 103.395 268.149C103.947 266.488 104.208 266.085 104.537 265.634C104.866 265.182 105.35 265.24 105.069 264.126C104.788 263.022 104.634 262.561 104.634 262.561C104.634 262.561 104.305 261.784 104.963 261.784C105.621 261.784 106.327 261.937 106.695 262.696C107.043 263.454 106.956 265.288 106.956 265.288L110.178 265.413C110.178 265.413 112.152 265.48 112.152 267.525C112.152 269.57 112.152 272.987 112.152 272.987C112.152 272.987 112.432 274.053 110.99 274.053C109.549 274.053 108.03 274.005 108.03 274.005C108.03 274.005 106.82 273.88 104.837 275.311C102.853 276.741 87.7595 285.314 87.7595 285.314C87.7595 285.314 82.5444 288.406 79.1192 285.161C75.6941 281.916 68.1762 273.89 68.1762 273.89L67.7988 271.346L74.3395 265.768Z" fill="#FFBF99"/>
<path d="M49.1432 238.101C49.1432 238.101 48.2144 242.728 46.347 247.365C44.4796 252.002 43.5508 253.845 43.5508 253.845C43.5508 253.845 49.1432 260.325 54.7551 259.394C60.3475 258.472 60.3475 254.767 60.3475 254.767C60.3475 254.767 55.2098 250.6 55.2098 245.042C55.2098 239.483 55.2098 239.493 55.2098 239.493L49.1432 238.101Z" fill="#FFB48F"/>
<path d="M61.4883 253.701C61.4883 253.701 66.1325 256.264 68.058 257.886C69.9931 259.509 75.5759 265.884 75.5759 265.884L67.9322 273.247L62.6106 267.256L61.4883 253.701Z" fill="#0064B7"/>
<path d="M45.9107 251.531C45.9107 251.531 48.707 255.237 52.4417 256.158C56.1765 257.08 58.0342 254.305 58.0342 254.305L59.0598 252.981C59.0598 252.981 60.0951 252.174 61.2368 253.125C62.3785 254.056 64.5555 256.456 66.4422 260.334C68.3386 264.203 68.8901 269.503 69.2868 281.878C69.6835 294.252 69.2868 307.606 69.2868 307.606H30.6911L30.2363 288.377C30.2363 288.377 34.3388 262.802 38.3735 257.598C42.4082 252.395 43.5789 251.262 43.5789 251.262C43.5789 251.262 44.5078 249.995 45.9107 251.531Z" fill="#0083F9"/>
<path d="M60.8178 225.591C60.8178 225.591 63.614 229.297 63.614 235.787C63.614 242.267 62.6851 246.904 59.8792 246.904C57.0733 246.904 51.4712 245.051 50.5423 243.198C49.6135 241.345 47.7461 241.345 47.7461 237.649C47.7461 233.953 52.4097 225.61 56.1541 225.61C59.8889 225.61 60.8178 225.591 60.8178 225.591Z" fill="#FFBF99"/>
<path d="M63.6158 225.59C63.6158 225.59 66.412 218.189 64.5446 217.248C62.6773 216.326 58.9522 218.169 58.0137 219.101C57.0848 220.022 55.2174 220.022 54.2789 220.022C54.2789 220.022 44.942 220.022 43.0746 221.875C41.2072 223.728 41.2072 224.65 41.2072 225.581C41.2072 226.502 41.1976 230.141 40.2784 232.061C39.8817 232.896 39.3495 236.688 41.2072 240.404C43.0649 244.109 44.942 245.031 45.8708 245.031C46.7997 245.031 47.6415 245.031 47.7382 244.109C47.8447 243.111 48.2123 241.7 48.6671 240.404C49.1122 239.165 49.5959 236.698 49.5959 236.698C49.5959 236.698 50.5248 232.071 52.3922 230.218C54.2595 228.365 54.2595 228.365 57.9846 227.443C61.7484 226.531 62.6869 228.365 63.6158 225.59Z" fill="#170856"/>
<path d="M51.0261 232.359C52.4097 233.934 50.5423 236.708 50.5423 236.708C50.5423 236.708 47.7461 237.63 47.7461 234.855C47.7461 232.081 49.6328 230.775 51.0261 232.359Z" fill="#FFBF99"/>
<path d="M32.3353 271.336C32.3353 271.336 28.8328 284.709 29.4423 293.09C30.0519 301.462 32.5579 308.719 34.3769 313.769C36.1959 318.819 37.2699 320.029 37.3376 323.206C37.4053 326.384 38.905 330.147 40.7627 332.039C42.6204 333.93 44.1105 334.871 44.1105 334.871C44.1105 334.871 46.3165 335.888 45.9682 333.853C45.9682 333.853 47.4485 333.968 46.8873 332.835C46.8873 332.835 48.8612 332.874 47.4195 331.328C45.9778 329.773 43.3171 328.275 43.3171 328.275C43.3171 328.275 41.798 325.866 43.9653 327.075C46.1327 328.275 48.0291 328.323 46.0262 326.365C44.0137 324.406 41.6916 320.979 39.9887 314.71C38.2858 308.451 36.2636 296.076 38.6728 286.572C41.082 277.067 44.1298 273.899 44.1298 273.899L32.3353 271.336Z" fill="#FFBF99"/>
<path d="M24.0819 415.293C24.0819 415.293 25.9396 420.467 28.0005 422.848C30.0614 425.229 31.6869 426.967 31.6869 426.967C31.6869 426.967 34.0864 430.778 31.3773 429.645C28.6778 428.512 13.7388 418.557 13.7388 418.557C13.7388 418.557 11.6101 417.462 12.5971 415.658C13.584 413.853 16.0899 410.358 16.0899 410.358L24.0819 415.293Z" fill="#170856"/>
<path d="M51.5224 426.842C51.5224 426.842 50.9709 428.349 54.1057 428.349C57.2406 428.349 74.3373 428.349 74.3373 428.349C74.3373 428.349 77.627 427.696 74.5985 426.237C71.5507 424.778 62.4364 420.707 62.4364 420.707C62.4364 420.707 61.7397 420.525 61.7591 418.787H51.4062L51.5224 426.842Z" fill="#170856"/>
<path d="M46.9566 262.427C46.9566 262.427 47.6145 256.216 43.0573 255.621C38.5002 255.026 35.6072 261.055 34.0881 264.972C32.5691 268.889 31.8047 271.759 31.8047 271.759C31.8047 271.759 41.606 275.676 44.1894 275.676C44.1991 275.676 46.3761 269.167 46.9566 262.427Z" fill="#0064B7"/>
<path d="M332.06 264.971C332.06 264.971 335.562 263.013 333.424 254.785C331.295 246.567 329.167 245.195 332.06 239.319C334.953 233.434 344.222 231.764 357.449 232.301C370.675 232.839 374.178 245.78 372.658 251.454C371.139 257.137 359.122 263.617 351.817 262.705C344.512 261.793 341.184 261.352 341.184 261.352C341.184 261.352 338.746 265.422 332.06 264.971Z" fill="#0064E1"/>
<path d="M346.788 249.131C347.868 249.131 348.743 248.262 348.743 247.191C348.743 246.12 347.868 245.252 346.788 245.252C345.709 245.252 344.834 246.12 344.834 247.191C344.834 248.262 345.709 249.131 346.788 249.131Z" fill="white"/>
<path d="M352.753 249.131C353.833 249.131 354.708 248.262 354.708 247.191C354.708 246.12 353.833 245.252 352.753 245.252C351.674 245.252 350.799 246.12 350.799 247.191C350.799 248.262 351.674 249.131 352.753 249.131Z" fill="white"/>
<path d="M358.687 249.131C359.766 249.131 360.641 248.262 360.641 247.191C360.641 246.12 359.766 245.252 358.687 245.252C357.607 245.252 356.732 246.12 356.732 247.191C356.732 248.262 357.607 249.131 358.687 249.131Z" fill="white"/>
<path d="M307.14 339.316L288.428 351.144L309.743 343.013L307.14 339.316Z" fill="#FFBF99"/>
<path d="M315.86 367.915C315.86 367.915 336.759 369.144 327.664 370.354C318.569 371.583 306.039 371.583 301.607 371.093C297.176 370.594 312.425 368.155 315.86 367.915Z" fill="#90A7CB"/>
<path d="M311.923 346.007L306.079 343.991L267.561 358.036C267.561 358.036 262.646 360.715 262.269 366.331C261.891 371.938 260.062 421.821 260.062 421.821H267.319L272.234 381.701L274.198 366.571L283.052 361.569L305.663 350.106L311.923 346.007Z" fill="#003EB0"/>
<path d="M327.509 346.853C328.786 351.317 330.75 364.431 324.326 367.474C324.055 367.599 323.764 367.695 323.464 367.743L288.139 373.244C287.974 373.263 287.82 373.292 287.655 373.292C287.046 373.292 285.159 373.494 286.001 375.855C286.833 378.246 297.253 406.643 300.291 414.938C300.775 416.263 302.652 420.074 301.462 420.852L297.998 424.212C296.508 425.191 293.877 420.151 293.006 418.605L269.881 377.497C269.813 377.372 269.736 377.228 269.697 377.074C269.156 375.654 266.804 368.242 274.342 364.517C281.879 360.773 304.597 349.214 308.99 346.968C309.474 346.718 311.515 345.537 312.057 345.557L324.577 347.438C325.874 347.506 327.141 345.595 327.509 346.853Z" fill="#0064E1"/>
<path d="M246.541 342.465C246.541 342.446 246.531 342.417 246.531 342.398C246.483 342.11 246.154 339.998 247.644 339.998H255.365C255.646 339.998 255.868 339.777 255.868 339.498V334.113C255.868 333.796 255.607 333.537 255.288 333.537L240.407 333.421C240.368 333.421 240.349 333.421 240.31 333.412C240.02 333.364 238.578 332.989 238.027 330.388C238.027 330.378 238.026 330.369 238.017 330.34L234.998 309.699C234.94 309.257 234.95 308.816 235.095 308.393C235.366 307.539 236.149 306.454 238.394 306.454C241.684 306.454 265.66 306.358 270.846 306.339C271.997 306.339 273.081 306.934 273.633 307.933C274.01 308.605 274.348 309.593 274.542 310.966C275.103 314.95 276.971 327.805 277.319 330.119C277.358 330.397 277.358 330.676 277.3 330.954C277.096 331.857 276.438 333.671 274.3 333.767C271.843 333.873 262.148 333.517 259.651 333.431C259.322 333.421 259.061 333.681 259.051 333.988L259.003 339.652C259.003 339.969 259.264 340.228 259.584 340.228L267.866 340.286C267.905 340.286 267.953 340.286 267.982 340.295C268.205 340.353 268.911 340.631 268.901 341.495C268.882 343.108 268.843 342.782 268.843 342.782L247.102 342.954C246.822 342.954 246.589 342.743 246.551 342.465H246.541Z" fill="#0064B7"/>
<path d="M324.066 295.146C324.066 295.146 329.881 292.631 332.426 300.349C332.426 300.349 334.138 305.63 335.377 307.185C336.615 308.721 339.876 309.786 339.876 309.786C339.876 309.786 342.904 311.323 342.74 315.806C342.576 320.27 342.159 324.341 340.534 327.105C339.296 329.179 339.973 330.571 340.369 331.128C340.573 331.406 340.65 331.742 340.631 332.088C340.563 332.962 340.089 334.373 337.835 334.43C334.554 334.517 330.317 335.851 330.975 332.693C331.632 329.525 332.832 313.79 332.832 313.79L330.375 307.607L326.601 305.169L324.802 303.94C324.802 303.94 320.477 298.41 320.477 297.133C320.477 295.837 324.066 295.146 324.066 295.146Z" fill="#170856"/>
<path d="M320.128 295.308L315.464 292.956L315.3 285.641L313.171 283.039L309.233 284.182L303.989 284.018H299.887C299.887 284.018 300.38 295.241 304.473 299.619C304.473 299.619 309.301 300.598 311.11 299.369C311.11 299.369 313.239 297.507 313.239 300.761C313.239 304.016 313.568 307.837 313.568 307.837C313.568 307.837 315.039 310.438 320.621 308C320.621 308 323.65 306.377 324.801 303.929" fill="#FFBF99"/>
<path d="M302.835 275.349C302.835 275.349 313.778 266.325 320.542 275.349C327.305 284.373 326.076 291.084 324.228 293.033C324.228 293.033 318.365 299.283 313.837 292.601C313.837 292.601 312.956 291.478 313.527 289.202C313.527 289.202 315.239 284.201 310.944 285.381C306.638 286.562 302.952 286.524 301.355 284.777C299.759 283.029 299.101 284.94 299.178 285.516C299.265 286.092 298.52 289.75 296.343 286.418C294.166 283.087 296.924 277.144 299.333 275.56C299.352 275.56 301.432 274.418 302.835 275.349Z" fill="#170856"/>
<path d="M323.694 293.13C323.694 293.13 324.274 294.963 324.139 295.318C324.139 295.318 321.633 297.152 320.985 297.229C320.985 297.229 320.046 295.722 320.211 295.117C320.201 295.126 323.404 293.216 323.694 293.13Z" fill="#EA4E59"/>
<path d="M324.634 303.92C324.702 303.853 324.818 303.93 324.914 303.92C325.94 303.805 332.694 303.421 333.497 312.435C334.251 320.922 329.21 343.291 327.875 348.446L303.957 344.798C304.402 342.619 305.051 337.627 305.051 336.647C305.051 336.647 306.105 327.038 306.308 324.253C306.347 323.831 306.192 323.418 305.892 323.111C304.809 321.959 302.293 318.656 304.615 315.076C304.615 315.076 309.656 306.781 313.217 305.014C313.226 304.986 316.932 311.379 324.634 303.92Z" fill="#FCBE42"/>
<path d="M320.736 325.021C321.017 323.985 322.168 323.437 323.155 323.889L326.987 325.617C327.49 325.837 327.857 326.279 327.974 326.817L328.138 327.508C328.235 327.892 328.186 328.305 328.012 328.66L323.949 337.003C323.832 337.252 323.736 337.502 323.678 337.761C323.474 338.587 322.584 340.603 318.821 339.623L295.086 333.671C295.019 333.652 289.949 331.828 289.891 331.809C289.378 331.607 288.884 331.809 288.749 333.441C288.691 334.132 286.911 332.078 287.327 330.628C287.327 330.628 288.575 327.796 295.212 329.38L313.441 333.018C313.489 333.028 313.538 333.038 313.586 333.057C314.07 333.201 317.031 333.93 317.814 331.578L320.62 325.281C320.678 325.185 320.698 325.098 320.736 325.021Z" fill="#FFBF99"/>
<path d="M331.582 307.011C332.037 307.338 332.298 307.875 332.424 308.403C332.743 309.604 332.801 311.072 332.531 312.292C332.047 314.48 329.521 325.761 328.264 328.103C328.264 328.103 324.229 325.242 320.707 325.079C320.707 325.079 322.632 317.226 324.577 311.927C324.587 311.908 327.538 304.093 331.582 307.011Z" fill="#F79F03"/>
<path d="M267.306 421.821L267.558 427.975C267.558 427.975 267.732 428.906 263.929 428.906C260.117 428.906 250.239 428.897 250.239 428.897C250.239 428.897 247.897 427.917 250.606 427.063C250.606 427.063 256.624 425.229 260.069 421.811L267.306 421.821Z" fill="#170856"/>
<path d="M293.925 339.259L284.463 339.316V335.169C284.463 335.169 284.027 334.017 285.875 333.883C287.723 333.767 292.638 333.998 292.638 333.998C292.638 333.998 293.993 334.113 293.993 335.697C293.983 337.291 293.925 339.259 293.925 339.259Z" fill="#EE384E"/>
<path d="M293.21 338.97C293.21 338.97 296.732 338.662 296.993 340.419C297.303 342.416 296.326 342.896 294.603 342.954C292.891 343.011 282.615 342.8 282.615 342.8C282.615 342.8 280.632 342.522 280.709 341.101C280.796 339.642 281.203 339.085 283.109 339.085C285.015 339.085 293.21 338.97 293.21 338.97Z" fill="#000036"/>
<path d="M269.571 342.628L295.995 342.791C296.101 342.791 296.198 342.801 296.304 342.81C297.011 342.82 298.917 343.233 298.917 344.749C298.917 346.535 297.601 347.025 295.308 347.025H234.468C233.752 347.025 233.065 346.756 232.533 346.276C231.836 345.661 231.062 343.789 232.581 342.849C233.007 342.58 233.51 342.474 234.013 342.474L269.571 342.628Z" fill="#023EA1"/>
<path d="M253.172 346.852L235.804 361.982C235.804 361.982 232.688 364.747 232.524 371.093C232.36 377.439 231.373 429.3 231.373 429.3C231.373 429.3 231.044 432.228 236.781 432.228H274.148C274.148 432.228 275.619 432.228 275.783 430.442C275.948 428.656 274.468 428.82 273.326 428.82L235.136 428.983L235.465 371.909C235.465 371.909 234.478 367.032 241.532 361.339L257.284 346.891L253.172 346.852Z" fill="#023EA1"/>
<path d="M314.08 371.276L314.138 424.749C314.138 424.749 322.497 424.999 323.978 426.938C325.448 428.887 323.726 430.106 315.125 429.866C306.523 429.617 301.356 429.617 301.356 429.617C301.356 429.617 297.177 429.127 302.101 426.689C307.017 424.25 310.954 424.989 310.954 424.989L311.448 371.333L314.08 371.276Z" fill="#023EA1"/>
<path d="M301.113 417.184C301.113 417.184 305.912 421.696 303.077 423.77L290.537 433.649C290.537 433.649 288.689 434.138 289.066 432.065L294.601 421.456L301.113 417.184Z" fill="#180756"/>
<path d="M125.743 49.0236C130.088 49.0236 133.609 45.5291 133.609 41.2185C133.609 36.9079 130.088 33.4135 125.743 33.4135C121.399 33.4135 117.877 36.9079 117.877 41.2185C117.877 45.5291 121.399 49.0236 125.743 49.0236Z" stroke="#003EB0" stroke-miterlimit="10"/>
<path d="M122.315 34.2577L96.791 27.1727" stroke="#003EB0" stroke-miterlimit="10"/>
<path d="M117.808 41.9768L90.6973 43.7144" stroke="#003EB0" stroke-miterlimit="10"/>
<path d="M122.5 48.5334L97.9434 60.073" stroke="#003EB0" stroke-miterlimit="10"/>
<path d="M235.233 251.435C281.68 251.435 319.333 214.075 319.333 167.989C319.333 121.903 281.68 84.5432 235.233 84.5432C188.786 84.5432 151.133 121.903 151.133 167.989C151.133 214.075 188.786 251.435 235.233 251.435Z" stroke="#003EB0" stroke-miterlimit="10" stroke-dasharray="6 6"/>
<path d="M313.833 154.557C320.128 154.557 325.231 149.494 325.231 143.248C325.231 137.002 320.128 131.939 313.833 131.939C307.539 131.939 302.436 137.002 302.436 143.248C302.436 149.494 307.539 154.557 313.833 154.557Z" stroke="#DE051F" stroke-miterlimit="10"/>
<path d="M305.987 134.896C305.987 134.896 286.084 129.626 292.973 136.576C299.862 143.527 323.074 153.531 327.737 154.587C332.401 155.623 335.323 153.723 333.862 151.226C332.401 148.74 325.105 144.679 325.105 144.679" stroke="#DE051F" stroke-miterlimit="10"/>
<path d="M244.668 160.357L247.155 154.568L250.503 159.656L255.863 160.434L252.612 164.37L253.067 170.38L248.016 167.759L243.043 170.85L243.585 164.601L238.834 160.818L244.668 160.357Z" fill="#003EB0"/>
<path d="M253.422 7.78898L255.899 2L259.247 7.09776L264.617 7.86578L261.356 11.7923L261.811 17.8213L256.76 15.2004L251.787 18.2821L252.329 12.0323L247.578 8.24979L253.422 7.78898Z" stroke="#DE051F" stroke-miterlimit="10"/>
<path d="M47.9594 119.45C53.1481 119.45 57.3544 115.277 57.3544 110.128C57.3544 104.98 53.1481 100.807 47.9594 100.807C42.7707 100.807 38.5645 104.98 38.5645 110.128C38.5645 115.277 42.7707 119.45 47.9594 119.45Z" stroke="#DE051F" stroke-miterlimit="10"/>
<path d="M45.0582 115.494C46.2392 115.494 47.1965 114.544 47.1965 113.372C47.1965 112.201 46.2392 111.251 45.0582 111.251C43.8773 111.251 42.9199 112.201 42.9199 113.372C42.9199 114.544 43.8773 115.494 45.0582 115.494Z" stroke="#DE051F" stroke-miterlimit="10"/>
<path d="M50.3991 110.223C51.2862 110.223 52.0053 109.51 52.0053 108.63C52.0053 107.75 51.2862 107.036 50.3991 107.036C49.5121 107.036 48.793 107.75 48.793 108.63C48.793 109.51 49.5121 110.223 50.3991 110.223Z" stroke="#DE051F" stroke-miterlimit="10"/>
<path d="M45.4434 107.238C46.138 107.238 46.7012 106.679 46.7012 105.99C46.7012 105.3 46.138 104.742 45.4434 104.742C44.7487 104.742 44.1855 105.3 44.1855 105.99C44.1855 106.679 44.7487 107.238 45.4434 107.238Z" stroke="#DE051F" stroke-miterlimit="10"/>
<path d="M104.249 158.533C112.676 158.533 119.507 151.755 119.507 143.393C119.507 135.032 112.676 128.254 104.249 128.254C95.8216 128.254 88.9902 135.032 88.9902 143.393C88.9902 151.755 95.8216 158.533 104.249 158.533Z" stroke="#003EB0" stroke-miterlimit="10"/>
<path d="M96.0352 130.606C96.0352 130.606 96.964 134.081 101.173 130.136C101.173 130.136 103.514 128.168 103.969 130.481C104.443 132.805 103.04 133.371 102.566 133.611C102.092 133.841 99.4119 134.312 99.4119 134.312C99.4119 134.312 97.3123 136.28 99.1797 137.086C101.047 137.893 101.744 136.616 101.744 136.616C101.744 136.616 103.727 136.27 104.085 137.538C104.443 138.805 105.72 138.987 106.765 137.595C107.81 136.203 108.4 137.595 108.633 138.574C108.865 139.554 109.281 139.784 110.21 139.381C111.139 138.968 111.545 138.459 111.787 138.622C112.019 138.795 112.658 139.266 112.89 140.36C113.122 141.455 114.99 140.36 115.512 140.072C116.044 139.784 117.379 139.15 117.379 139.15L118.192 138.114L118.424 137.586" stroke="#003EB0" stroke-miterlimit="10"/>
<path d="M89.957 138.536C89.957 138.536 91.36 140.331 92.2405 140.561C93.1113 140.792 94.1078 140.033 94.4078 139.861C94.698 139.688 95.9849 139.918 96.2171 140.84C96.4493 141.761 97.0298 142.165 97.8523 141.819C98.665 141.473 99.1294 139.966 100.3 140.725C101.461 141.483 101.635 142.05 101.461 142.693C101.287 143.336 98.8392 144.603 98.0748 144.718C97.3104 144.834 96.1494 145.64 96.1494 145.64C96.1494 145.64 94.7464 146.619 95.8591 147.848C96.9718 149.077 97.9006 148.549 97.9006 148.549C97.9006 148.549 99.5358 147.099 100.465 146.811C101.394 146.523 102.806 146.005 103.203 147.224C103.6 148.434 102.971 149.49 101.984 149.826C100.997 150.171 99.4197 150.411 99.0133 150.69C98.5973 150.978 96.7299 151.218 97.2621 152.658C97.7942 154.107 99.2456 154.223 100.416 153.983C101.577 153.752 101.577 153.925 101.577 155.02C101.577 156.114 101.461 157.967 101.461 157.967" stroke="#003EB0" stroke-miterlimit="10"/>
<path d="M119.516 143.394C119.516 143.394 113.004 145.074 112.414 146.111C112.414 146.111 110.953 147.147 111.766 148.194C111.766 148.194 112.114 149.816 113.991 148.895C115.858 147.973 118.006 148.088 118.19 148.607C118.364 149.135 118.606 148.549 118.606 148.549" stroke="#003EB0" stroke-miterlimit="10"/>
<path d="M340.753 72.889C333.845 70.3929 328.9 63.8167 328.9 56.098" stroke="#003EB0" stroke-miterlimit="10"/>
<path d="M364.572 52.507C364.804 53.6591 364.94 54.8591 364.94 56.0879C364.94 64.6802 358.825 71.8516 350.678 73.5701" stroke="#003EB0" stroke-miterlimit="10"/>
<path d="M331.436 46.9391C334.59 41.7166 340.337 38.2125 346.916 38.2125C352.151 38.2125 356.853 40.4205 360.143 43.9534" stroke="#003EB0" stroke-miterlimit="10"/>
<path d="M335.957 58.6986C334.805 54.2536 336.489 49.3767 340.514 46.631" stroke="#003EB0" stroke-miterlimit="10"/>
<path d="M355.065 63.7097C354.552 64.2473 353.962 64.7369 353.323 65.1689C348.833 68.2218 342.912 67.6266 339.129 64.0649" stroke="#003EB0" stroke-miterlimit="10"/>
<path d="M346.191 44.6822C350.033 44.4326 353.912 46.151 356.254 49.5495C358.112 52.228 358.624 55.4345 357.957 58.3914" stroke="#003EB0" stroke-miterlimit="10"/>
<path d="M346.914 62.7885C350.751 62.7885 353.861 59.7024 353.861 55.8955C353.861 52.0886 350.751 49.0025 346.914 49.0025C343.077 49.0025 339.967 52.0886 339.967 55.8955C339.967 59.7024 343.077 62.7885 346.914 62.7885Z" stroke="#003EB0" stroke-miterlimit="10"/>
<path d="M171.895 377.937C171.895 377.937 175.998 376.276 175.688 371.6C175.378 366.925 172.95 363.613 177.971 364.967C182.993 366.32 184.667 366.925 188.315 366.167C191.962 365.408 194.991 363.901 193.394 368.576C191.798 373.252 190.075 377.169 193.83 377.927C197.584 378.685 201.599 375.863 202.092 383.188C202.576 390.513 196.626 398.731 186.999 399.038C177.371 399.345 173.114 395.39 173.114 395.39C173.114 395.39 170.531 391.771 174.556 390.887C178.591 390.004 182.693 388.295 180.632 386.433C178.571 384.57 171.895 384.417 171.895 384.417C171.895 384.417 163.535 382.765 171.895 377.937Z" fill="#649EEA"/>
<path d="M215.9 379.155C215.223 374.49 215.745 371.13 224.482 369.862C233.219 368.605 238.318 373.808 238.841 379.155C239.373 384.512 231.778 386.452 231.778 386.452C231.778 386.452 226.379 387.978 229.117 392.653C231.855 397.329 233.093 401.851 226.882 402.532C220.68 403.204 213.878 401.591 210.095 399.076C206.312 396.57 202.432 390.234 206.766 386.922C206.766 386.922 207.976 386.096 212.165 385.856C216.345 385.636 215.9 379.155 215.9 379.155Z" fill="#023EA1"/>
<path d="M185.15 378.397C185.15 378.397 192.407 394.679 193.404 405.767" stroke="#023EA1" stroke-miterlimit="10"/>
<path d="M225.491 381.066C225.491 381.066 212.642 399.998 209.613 406.324" stroke="#649EEA" stroke-miterlimit="10"/>
<path d="M188.916 404.48H218.397C218.397 404.48 221.629 404.701 221.358 409.079C221.106 413.102 215.959 412.238 213.308 412.238C210.657 412.238 188.287 412.238 188.287 412.238C188.287 412.238 184.668 412.852 184.668 408.772C184.658 404.701 186.023 404.48 188.916 404.48Z" fill="#0054A5"/>
<path d="M188.273 412.24L192.744 438.084H212.53L215.897 418.692L188.312 412.24H188.273Z" fill="#0054A5"/>
<path d="M188.312 412.24L215.897 418.692L217 412.24H188.312Z" fill="#006AD5"/>
<path d="M201 405.46C201 405.46 202.49 376.784 211.111 358.784" stroke="#FCBE42" stroke-miterlimit="10"/>
<path d="M218.194 348.434C218.194 348.434 218.91 357.238 210.241 360.684C210.25 360.675 208.364 353.167 218.194 348.434Z" fill="#FCBE42"/>
<path d="M205.201 376.457C205.201 376.457 208.384 368.95 218.205 369.948C218.215 369.948 217.441 377.436 205.201 376.457Z" fill="#FCBE42"/>
<path d="M201.971 395.351C201.971 395.351 203.616 387.363 213.446 386.451C213.446 386.451 214.172 393.94 201.971 395.351Z" fill="#FCBE42"/>
<path d="M201.64 395.399C201.64 395.399 202.782 387.325 193.832 383.197C193.822 383.197 190.629 390.023 201.64 395.399Z" fill="#FCBE42"/>
<path d="M205.307 376.4C205.307 376.4 207.474 368.538 199.124 363.315C199.124 363.315 195.07 369.67 205.307 376.4Z" fill="#FCBE42"/>
</svg>
