<svg width="450" height="365" viewBox="0 0 450 365" fill="none" xmlns="http://www.w3.org/2000/svg">
<path d="M198.549 283.66C256.486 283.66 303.453 236.693 303.453 178.756C303.453 120.819 256.486 73.8516 198.549 73.8516C140.612 73.8516 93.6445 120.819 93.6445 178.756C93.6445 236.693 140.612 283.66 198.549 283.66Z" stroke="#003EB0" stroke-width="0.791849" stroke-miterlimit="10" stroke-dasharray="4.75 4.75"/>
<path d="M296.844 257.228C331.515 257.228 359.621 229.122 359.621 194.451C359.621 159.78 331.515 131.674 296.844 131.674C262.173 131.674 234.066 159.78 234.066 194.451C234.066 229.122 262.173 257.228 296.844 257.228Z" stroke="#003EB0" stroke-width="0.791849" stroke-miterlimit="10" stroke-dasharray="4.75 4.75"/>
<path d="M212.59 322.484C247.261 322.484 275.367 294.378 275.367 259.707C275.367 225.036 247.261 196.93 212.59 196.93C177.919 196.93 149.812 225.036 149.812 259.707C149.812 294.378 177.919 322.484 212.59 322.484Z" stroke="#003EB0" stroke-width="0.791849" stroke-miterlimit="10" stroke-dasharray="4.75 4.75"/>
<path d="M285.632 142.971H101.025C99.3141 142.971 97.8666 141.524 97.8666 139.813V92.1888C97.8666 90.4781 99.3141 89.0307 101.025 89.0307H285.632C287.343 89.0307 288.79 90.4781 288.79 92.1888V139.904C288.694 141.63 287.336 142.971 285.632 142.971Z" fill="#0064B7" fill-opacity="0.9" stroke="#0064B7" stroke-width="0.791849"/>
<path d="M144.911 121.916C147.959 110.863 141.471 99.4324 130.419 96.3838C119.367 93.3353 107.936 99.8236 104.887 110.876C101.839 121.928 108.327 133.359 119.379 136.408C130.431 139.456 141.862 132.968 144.911 121.916Z" fill="white"/>
<path d="M123.686 95.2363C124.575 95.2363 125.473 95.2363 126.363 95.2363C126.48 95.2615 126.606 95.2867 126.723 95.3119C127.688 95.4546 128.662 95.5385 129.618 95.74C143.078 98.6447 150.346 113.554 144.362 125.962C140.032 134.936 130.307 139.704 120.505 137.656C112.038 135.876 105.367 128.933 103.915 120.379C103.781 119.598 103.697 118.809 103.588 118.02C103.588 117.13 103.588 116.232 103.588 115.342C103.722 114.393 103.831 113.436 104.007 112.496C105.602 103.959 112.735 96.9741 121.294 95.5637C122.091 95.4378 122.888 95.3455 123.686 95.2363ZM137.892 130.52C143.171 125.743 145.604 117.684 142.76 110.062C139.839 102.254 132.01 96.9741 123.14 97.8471C114.984 98.6447 108.128 104.706 106.466 112.966C105.661 116.954 106.114 120.824 107.8 124.535C108.841 126.818 110.276 128.808 112.139 130.537C113.423 126.432 115.999 123.561 119.901 121.815C117.476 120.11 116.024 117.844 115.739 114.931C115.454 112.009 116.368 109.474 118.441 107.392C122.032 103.791 127.865 103.757 131.49 107.308C133.311 109.088 134.284 111.262 134.318 113.814C134.368 117.214 132.874 119.842 130.122 121.84C132.027 122.654 133.638 123.796 134.989 125.307C136.357 126.801 137.305 128.539 137.892 130.52ZM125.02 135.624C128.754 135.591 132.178 134.583 135.316 132.577C135.66 132.359 135.702 132.149 135.618 131.796C134.368 126.449 129.602 122.956 124.114 123.376C119.381 123.737 115.353 127.271 114.396 131.897C114.337 132.199 114.405 132.367 114.673 132.543C117.837 134.575 121.286 135.599 125.02 135.624ZM125.028 107.174C121.269 107.174 118.223 110.23 118.223 113.999C118.223 117.768 121.26 120.807 125.037 120.807C128.804 120.807 131.842 117.76 131.842 113.991C131.834 110.221 128.788 107.174 125.028 107.174Z" fill="#1663C7"/>
<path d="M278.766 95.1328H155.308C154.434 95.1328 153.725 95.8419 153.725 96.7165V100.149C153.725 101.024 154.434 101.733 155.308 101.733H278.766C279.641 101.733 280.35 101.024 280.35 100.149V96.7165C280.35 95.8419 279.641 95.1328 278.766 95.1328Z" stroke="white" stroke-width="0.690017" stroke-miterlimit="10"/>
<path d="M251.35 107.115H155.308C154.434 107.115 153.725 107.824 153.725 108.699V111.523C153.725 112.397 154.434 113.106 155.308 113.106H251.35C252.224 113.106 252.933 112.397 252.933 111.523V108.699C252.933 107.824 252.224 107.115 251.35 107.115Z" fill="white"/>
<path d="M221.496 121.332H155.308C154.434 121.332 153.725 122.041 153.725 122.916V123.505C153.725 124.38 154.434 125.089 155.308 125.089H221.496C222.37 125.089 223.079 124.38 223.079 123.505V122.916C223.079 122.041 222.37 121.332 221.496 121.332Z" fill="white"/>
<path d="M192.454 130.775H155.308C154.434 130.775 153.725 131.484 153.725 132.359V132.949C153.725 133.823 154.434 134.533 155.308 134.533H192.454C193.329 134.533 194.038 133.823 194.038 132.949V132.359C194.038 131.484 193.329 130.775 192.454 130.775Z" stroke="white" stroke-width="0.690017" stroke-miterlimit="10"/>
<path d="M283.88 295.276H99.2728C97.5621 295.276 96.1147 293.828 96.1147 292.118V244.493C96.1147 242.783 97.5621 241.335 99.2728 241.335H283.88C285.591 241.335 287.038 242.783 287.038 244.493V292.209C286.942 293.935 285.584 295.276 283.88 295.276Z" fill="#0064B7" fill-opacity="0.9" stroke="#0064B7" stroke-width="0.791849"/>
<path d="M144.738 274.414C147.894 262.975 141.178 251.143 129.738 247.987C118.298 244.832 106.467 251.548 103.311 262.987C100.156 274.427 106.871 286.259 118.311 289.415C129.751 292.57 141.583 285.854 144.738 274.414Z" fill="white"/>
<path d="M122.356 247.067C123.263 247.067 124.179 247.067 125.087 247.067C125.207 247.093 125.335 247.119 125.455 247.144C126.44 247.29 127.433 247.376 128.409 247.581C142.144 250.545 149.56 265.759 143.454 278.42C139.036 287.577 129.112 292.443 119.11 290.353C110.47 288.536 103.663 281.452 102.182 272.723C102.045 271.927 101.959 271.121 101.848 270.316C101.848 269.408 101.848 268.492 101.848 267.583C101.985 266.616 102.096 265.639 102.276 264.68C103.903 255.968 111.181 248.841 119.915 247.401C120.729 247.273 121.542 247.179 122.356 247.067ZM136.852 283.071C142.238 278.197 144.722 269.973 141.819 262.195C138.839 254.229 130.85 248.841 121.799 249.731C113.476 250.545 106.48 256.73 104.785 265.159C103.963 269.228 104.425 273.177 106.146 276.963C107.208 279.294 108.672 281.324 110.573 283.088C111.883 278.899 114.512 275.97 118.494 274.188C116.019 272.449 114.538 270.136 114.247 267.164C113.955 264.183 114.889 261.596 117.004 259.471C120.669 255.796 126.62 255.762 130.319 259.386C132.177 261.202 133.17 263.42 133.205 266.024C133.256 269.494 131.732 272.175 128.923 274.214C130.867 275.045 132.511 276.21 133.89 277.752C135.285 279.276 136.253 281.05 136.852 283.071ZM123.717 288.279C127.527 288.245 131.021 287.217 134.224 285.17C134.575 284.947 134.617 284.733 134.532 284.373C133.256 278.917 128.392 275.353 122.792 275.781C117.963 276.15 113.853 279.756 112.877 284.476C112.817 284.784 112.885 284.956 113.159 285.136C116.387 287.209 119.907 288.254 123.717 288.279ZM123.726 259.249C119.889 259.249 116.781 262.367 116.781 266.213C116.781 270.059 119.881 273.16 123.734 273.16C127.579 273.16 130.679 270.051 130.679 266.204C130.67 262.358 127.562 259.249 123.726 259.249Z" fill="#1663C7"/>
<path d="M277.013 247.439H153.554C152.68 247.439 151.971 248.148 151.971 249.023V252.456C151.971 253.331 152.68 254.04 153.554 254.04H277.013C277.887 254.04 278.596 253.331 278.596 252.456V249.023C278.596 248.148 277.887 247.439 277.013 247.439Z" stroke="white" stroke-width="0.690017" stroke-miterlimit="10"/>
<path d="M249.596 259.422H153.554C152.68 259.422 151.971 260.131 151.971 261.006V263.829C151.971 264.704 152.68 265.413 153.554 265.413H249.596C250.47 265.413 251.179 264.704 251.179 263.829V261.006C251.179 260.131 250.47 259.422 249.596 259.422Z" fill="white"/>
<path d="M219.742 273.639H153.554C152.68 273.639 151.971 274.348 151.971 275.222V275.812C151.971 276.687 152.68 277.396 153.554 277.396H219.742C220.616 277.396 221.325 276.687 221.325 275.812V275.222C221.325 274.348 220.616 273.639 219.742 273.639Z" fill="white"/>
<path d="M190.7 283.082H153.554C152.68 283.082 151.971 283.791 151.971 284.666V285.255C151.971 286.13 152.68 286.839 153.554 286.839H190.7C191.575 286.839 192.284 286.13 192.284 285.255V284.666C192.284 283.791 191.575 283.082 190.7 283.082Z" stroke="white" stroke-width="0.690017" stroke-miterlimit="10"/>
<path d="M411.675 216.497H227.068C225.357 216.497 223.91 215.049 223.91 213.338V165.714C223.91 164.004 225.357 162.556 227.068 162.556H411.675C413.386 162.556 414.833 164.004 414.833 165.714V213.429C414.737 215.155 413.379 216.497 411.675 216.497Z" fill="#0064B7" fill-opacity="0.9" stroke="#0064B7" stroke-width="0.791849"/>
<path d="M271.719 195.411C274.751 184.42 268.299 173.053 257.308 170.022C246.318 166.99 234.95 173.442 231.919 184.433C228.887 195.423 235.339 206.791 246.33 209.822C257.321 212.854 268.688 206.402 271.719 195.411Z" fill="white"/>
<path d="M250.615 168.288C251.505 168.288 252.403 168.288 253.292 168.288C253.41 168.313 253.536 168.338 253.653 168.364C254.618 168.506 255.591 168.59 256.548 168.792C270.008 171.696 277.275 186.606 271.292 199.013C266.962 207.988 257.236 212.756 247.435 210.708C238.968 208.928 232.297 201.985 230.845 193.431C230.711 192.65 230.627 191.861 230.518 191.072C230.518 190.182 230.518 189.284 230.518 188.394C230.652 187.445 230.761 186.488 230.937 185.548C232.532 177.01 239.664 170.026 248.224 168.615C249.021 168.49 249.818 168.397 250.615 168.288ZM264.822 203.572C270.1 198.795 272.534 190.736 269.689 183.113C266.769 175.306 258.94 170.026 250.07 170.899C241.913 171.696 235.057 177.758 233.396 186.018C232.59 190.006 233.043 193.876 234.73 197.586C235.771 199.87 237.206 201.859 239.069 203.589C240.352 199.484 242.929 196.612 246.831 194.866C244.406 193.162 242.954 190.896 242.669 187.983C242.383 185.061 243.298 182.526 245.371 180.444C248.962 176.842 254.794 176.809 258.419 180.36C260.24 182.14 261.214 184.314 261.247 186.866C261.298 190.266 259.804 192.894 257.052 194.892C258.956 195.706 260.568 196.848 261.919 198.359C263.287 199.853 264.235 201.591 264.822 203.572ZM251.95 208.676C255.684 208.642 259.108 207.635 262.246 205.629C262.59 205.41 262.632 205.2 262.548 204.848C261.298 199.5 256.531 196.008 251.043 196.428C246.31 196.789 242.283 200.323 241.326 204.949C241.267 205.251 241.334 205.419 241.603 205.595C244.766 207.627 248.215 208.651 251.95 208.676ZM251.958 180.226C248.199 180.226 245.152 183.281 245.152 187.051C245.152 190.82 248.19 193.859 251.966 193.859C255.734 193.859 258.772 190.812 258.772 187.042C258.763 183.273 255.717 180.226 251.958 180.226Z" fill="#1663C7"/>
<path d="M404.808 168.658H281.349C280.475 168.658 279.766 169.367 279.766 170.242V173.675C279.766 174.55 280.475 175.259 281.349 175.259H404.808C405.682 175.259 406.391 174.55 406.391 173.675V170.242C406.391 169.367 405.682 168.658 404.808 168.658Z" stroke="white" stroke-width="0.690017" stroke-miterlimit="10"/>
<path d="M377.391 180.641H281.349C280.475 180.641 279.766 181.35 279.766 182.224V185.048C279.766 185.923 280.475 186.632 281.349 186.632H377.391C378.265 186.632 378.974 185.923 378.974 185.048V182.224C378.974 181.35 378.265 180.641 377.391 180.641Z" fill="white"/>
<path d="M347.537 194.857H281.349C280.475 194.857 279.766 195.566 279.766 196.441V197.031C279.766 197.906 280.475 198.615 281.349 198.615H347.537C348.411 198.615 349.12 197.906 349.12 197.031V196.441C349.12 195.566 348.411 194.857 347.537 194.857Z" fill="white"/>
<path d="M318.495 204.301H281.349C280.475 204.301 279.766 205.01 279.766 205.884V206.474C279.766 207.349 280.475 208.058 281.349 208.058H318.495C319.37 208.058 320.079 207.349 320.079 206.474V205.884C320.079 205.01 319.37 204.301 318.495 204.301Z" stroke="white" stroke-width="0.690017" stroke-miterlimit="10"/>
<path d="M60.2752 290.549C60.2752 290.549 71.7179 286.671 71.8494 293.44C71.9809 300.144 74.743 300.801 77.5707 301.261C80.4643 301.787 85.9226 300.538 85.6595 307.57C85.3965 314.668 82.5687 318.217 84.8046 321.24C87.0405 324.263 92.0385 339.445 85.6595 339.773C79.2806 340.168 74.0853 332.676 72.7043 328.93C71.3233 325.184 66.3911 323.475 62.2481 323.08C58.1708 322.686 53.6333 319.137 56.7898 314.537C59.8807 310.002 58.96 304.022 55.7376 301.787C52.5811 299.618 52.581 293.243 60.2752 290.549Z" stroke="#023EA1" stroke-width="0.791849" stroke-miterlimit="10"/>
<path d="M63.6297 298.172L86.0547 345.425" stroke="#023EA1" stroke-width="0.791849" stroke-miterlimit="10"/>
<path d="M78.7539 306.585L72.7695 317.363L60.9323 316.049" stroke="#023EA1" stroke-width="0.791849" stroke-miterlimit="10"/>
<path d="M71.1016 339.707C71.1016 339.707 58.3437 318.677 44.5336 308.556" stroke="#DE051F" stroke-width="0.791849" stroke-miterlimit="10"/>
<path d="M34.9995 303.626C34.9995 303.626 38.0245 310.592 45.916 309.672C45.916 309.607 44.272 303.166 34.9995 303.626Z" stroke="#DE051F" stroke-width="0.791849" stroke-miterlimit="10"/>
<path d="M56.1094 319.53C56.1094 319.53 50.6511 315.127 43.7461 319.859C43.7461 319.859 47.363 325.182 56.1094 319.53Z" stroke="#DE051F" stroke-width="0.791849" stroke-miterlimit="10"/>
<path d="M66.2363 332.478C66.2363 332.478 61.7645 327.088 54.0045 330.374C54.0045 330.374 56.5035 336.289 66.2363 332.478Z" stroke="#DE051F" stroke-width="0.791849" stroke-miterlimit="10"/>
<path d="M66.5009 332.346C66.5009 332.346 62.3578 326.694 67.4215 319.99C67.4215 319.99 72.551 323.868 66.5009 332.346Z" stroke="#DE051F" stroke-width="0.791849" stroke-miterlimit="10"/>
<path d="M56.0432 319.53C56.0432 319.53 51.2425 314.47 55.3198 307.175C55.3198 307.109 60.9096 310.264 56.0432 319.53Z" stroke="#DE051F" stroke-width="0.791849" stroke-miterlimit="10"/>
<path d="M252.321 82.0434C252.321 82.0434 255.955 82.225 258.68 82.225C261.315 82.225 265.585 82.7702 265.585 82.7702C265.585 82.7702 266.675 82.7702 266.766 84.1329C266.857 85.4957 266.857 86.0408 266.857 86.0408C266.857 86.0408 266.948 87.6761 265.676 87.6761C264.404 87.6761 256.227 88.5846 254.41 88.5846C252.593 88.5846 251.231 88.948 251.231 87.6761C251.14 86.4042 251.049 81.9525 252.321 82.0434Z" fill="#160856"/>
<path d="M255.321 43.25C255.321 43.25 257.683 56.4234 257.865 59.9666C258.046 63.419 258.41 66.1445 256.138 67.5073C253.867 68.8701 250.051 70.142 250.051 70.142L245.418 46.5207V43.7951L255.321 43.25Z" fill="#FDBD97"/>
<path d="M214.893 42.4326C214.893 42.4326 213.621 48.4288 213.257 51.4269C212.894 54.425 212.076 60.3303 211.986 61.6931C211.895 63.0559 211.713 65.3271 214.166 67.1442C216.619 68.8703 219.344 69.8697 219.344 69.8697L224.432 42.4326H214.893Z" fill="#FDBD97"/>
<path d="M232.971 23.4438C232.971 23.4438 232.971 26.1694 231.79 27.3504C230.609 28.5315 229.064 30.5302 229.064 30.5302C229.064 30.5302 231.79 34.8911 237.332 34.2551C242.783 33.71 243.782 29.7126 243.782 29.7126C243.782 29.7126 238.604 28.9858 237.968 24.0798C237.423 19.1738 236.605 19.1738 236.605 19.1738L232.971 23.4438Z" fill="#FDAE7D"/>
<path d="M228.975 12.5409C228.975 12.5409 229.156 18.8096 232.154 23.7156C235.062 28.6216 238.605 25.896 240.058 23.3522C241.421 20.8083 245.146 12.5409 244.419 10.3605C243.602 8.18003 232.79 7.18066 232.79 7.18066L228.975 12.5409Z" fill="#FDBD97"/>
<path d="M242.875 16.0855C242.875 16.0855 244.419 14.9044 244.419 16.0855C244.419 17.2665 243.602 18.9927 242.693 19.2653C241.694 19.447 241.876 18.9019 242.148 18.0842C242.33 17.2665 242.875 16.0855 242.875 16.0855Z" fill="#FDBD97"/>
<path d="M229.429 18.63C229.883 18.8117 230.337 18.9025 230.337 18.2666C230.337 17.0855 229.52 15.3593 228.611 15.0868C227.612 14.9051 227.794 15.4502 228.066 16.2679C228.157 16.5404 228.248 16.813 228.339 17.1764C228.52 17.7215 229.066 18.4483 229.429 18.63Z" fill="#FDBD97"/>
<path d="M229.248 15.4498L229.066 13.451C229.066 13.451 230.793 13.6328 232.791 11.7249C232.791 11.7249 236.607 12.6334 239.696 12.27C242.967 11.9974 244.329 11.0889 244.329 11.0889C244.329 11.0889 243.784 14.8138 243.239 15.904C243.239 15.904 244.784 15.2681 245.42 13.451C245.965 11.7249 245.874 9.81699 245.874 9.81699C245.874 9.81699 248.054 8.09081 248.599 6.09209C248.599 6.09209 242.694 4.72933 240.968 3.54826C239.242 2.36719 238.242 1.54952 238.242 1.54952C238.242 1.54952 235.517 0.00505604 232.791 2.09464C230.066 4.27507 228.249 5.45612 228.249 9.18102C228.158 9.27188 225.614 12.8151 229.248 15.4498Z" fill="#160856"/>
<path d="M229.702 28.5323C229.702 28.5323 225.977 28.078 223.888 28.6231C221.889 29.1682 221.253 28.8049 221.798 30.3493C222.343 31.8938 225.069 39.071 223.797 43.5228C222.525 47.9745 220.799 71.0507 220.799 71.0507C220.799 71.0507 234.79 71.5958 240.15 71.8683C245.601 72.1409 249.599 71.1415 249.599 71.1415C249.599 71.1415 250.78 61.2387 249.599 56.8779C248.418 52.6079 246.873 45.2489 246.873 45.2489C246.873 45.2489 245.874 35.1644 247.237 32.7114C248.599 30.2585 249.599 30.1676 247.873 29.5316C246.146 28.8957 244.238 28.3506 242.785 28.3506C241.422 28.3506 240.695 28.3506 239.878 29.1682C239.06 29.9859 237.425 31.6212 235.153 31.2578C232.882 30.8944 231.156 29.35 231.156 29.35C231.156 29.35 230.338 28.6232 229.702 28.5323Z" fill="#0181F7"/>
<path d="M223.068 29.3493C223.068 29.3493 221.796 28.7133 219.889 30.3486C217.799 32.1657 216.345 35.9814 215.619 38.3435C214.892 40.7057 214.438 43.0678 214.438 43.0678C214.438 43.0678 217.072 44.4306 219.889 44.5214C222.614 44.6123 224.431 44.794 224.431 44.794C224.431 44.794 225.612 37.6167 225.34 34.4369C224.976 31.2571 224.522 30.1669 223.068 29.3493Z" fill="#023E9F"/>
<path d="M246.147 31.9837C246.147 31.9837 247.238 28.9856 249.691 30.3483C252.144 31.7111 253.961 36.9805 254.597 38.6158C255.142 40.2511 255.868 43.6126 255.868 43.6126C255.868 43.6126 252.961 44.8845 250.417 45.0662C247.964 45.2479 246.238 45.4296 246.238 45.4296C246.238 45.4296 245.239 38.8883 245.421 36.3445C245.602 33.8007 246.147 31.9837 246.147 31.9837Z" fill="#023E9F"/>
<path d="M225.883 73.1396H244.689L234.968 76.1378L225.883 73.1396Z" fill="#BA0A28"/>
<path d="M209.169 67.7799C209.169 67.7799 243.51 78.5004 251.051 81.1351C251.051 81.1351 253.504 81.771 253.595 83.0429C253.686 84.3149 253.413 86.1319 253.141 87.0404C252.868 87.9489 252.05 88.6757 250.688 88.4032C249.325 88.1306 218.526 81.9527 206.352 78.7729L202.9 77.6827C202.9 77.6827 200.356 76.5016 200.81 73.4127C201.264 70.3237 203.536 67.5073 205.171 67.3256C206.806 67.2348 209.169 67.7799 209.169 67.7799Z" fill="#EC384E"/>
<path d="M206.082 83.0433C206.082 83.0433 210.352 82.3165 212.986 82.2257C215.53 82.1348 218.982 81.8622 219.528 82.2257C220.073 82.5891 220.527 87.5859 220.527 87.5859C220.527 87.5859 220.981 88.9487 217.62 88.6761C214.258 88.4035 206.445 88.131 206.445 88.131C206.445 88.131 204.719 88.0401 204.628 86.4957C204.537 84.9512 204.81 84.2244 204.81 84.2244C204.81 84.2244 204.9 83.225 206.082 83.0433Z" fill="#160856"/>
<path d="M226.522 78.6811C226.522 78.6811 247.327 72.3215 254.776 70.1411C262.226 67.9607 266.314 65.962 268.767 69.4143C271.13 72.8667 270.948 76.7732 268.222 77.8635C265.497 78.9537 243.783 84.0413 234.789 85.8584C225.795 87.6754 219.889 88.8565 219.072 88.4931C218.254 88.1297 217.346 85.495 217.527 84.0413C217.709 82.5877 217.8 82.0426 219.526 81.3158C221.252 80.4981 226.522 78.6811 226.522 78.6811Z" fill="#DB061F"/>
<path d="M224.156 48.3371H249.231C249.231 48.3371 250.594 48.1554 250.594 49.9724C250.594 51.7894 250.594 71.595 250.594 71.595C250.594 71.595 250.685 73.0486 249.595 73.0486C248.504 73.0486 220.159 73.0486 220.159 73.0486C220.159 73.0486 218.978 73.412 218.978 71.4133C218.978 69.4146 218.978 49.4273 218.978 49.4273C218.978 49.4273 218.887 48.3371 220.34 48.3371C221.703 48.3371 224.156 48.3371 224.156 48.3371Z" fill="#0064B5"/>
<path d="M236.333 60.6021L234.516 59.1484L233.062 60.9655L234.88 62.4191L236.333 60.6021Z" fill="#579CD2"/>
<path d="M350.324 310.745C350.324 310.745 366.978 311.726 359.725 312.695C352.471 313.675 342.488 313.675 338.958 313.276C335.44 312.889 347.582 310.939 350.324 310.745Z" fill="#0064B7"/>
<path d="M351.476 312.945L351.716 359.337C351.716 359.337 358.924 359.519 360.203 361.206C361.483 362.894 359.998 363.954 352.584 363.772C345.171 363.589 340.716 363.612 340.716 363.612C340.716 363.612 337.107 363.201 341.345 361.069C345.582 358.937 348.975 359.553 348.975 359.553L349.215 313.002L351.476 312.945Z" fill="#0064B7"/>
<path d="M346.977 240.549C346.977 240.549 348.998 234.928 344.03 233.434C344.03 233.434 342.59 224.963 335.828 228.794C335.314 229.079 334.732 229.125 334.206 228.862C332.413 227.973 328.438 223.675 325.685 230.265C325.468 230.778 324.943 230.983 324.463 231.006C322.43 231.086 317.529 231.884 321.55 237.938C321.55 237.938 323.412 240.184 326.519 240.366C326.519 240.366 340.946 250.285 345.138 248.609C349.307 246.91 349.147 242.418 346.977 240.549Z" fill="#2C2477"/>
<path d="M333.212 237.687C333.007 237.618 325.331 235.156 326.542 241.985V241.996C326.53 242.179 326.313 248.301 331.225 251.824C331.293 251.87 331.362 251.927 331.419 251.995C331.727 252.326 333.064 253.5 335.223 251.539C337.222 249.726 337.884 250.98 338.101 251.505C338.158 251.642 338.238 251.79 338.307 251.915C338.615 252.474 339.563 253.808 338.935 254.72C338.273 255.678 337.439 256.863 337.222 257.183C337.199 257.217 337.222 257.262 337.256 257.262C338.375 257.194 349.604 256.464 349.33 253.979C349.33 253.979 348.656 251.231 348.656 251.22L348.45 251.174C348.416 251.163 348.381 251.151 348.347 251.129L344.84 248.552C344.829 248.552 344.829 248.541 344.818 248.541C344.589 248.563 341.22 248.86 340.02 247.412C340.02 247.412 338.524 245.702 337.827 243.49C337.621 242.829 337.724 242.088 338.113 241.563C338.695 240.788 339.312 239.374 337.85 238.371C337.85 238.371 336.708 237.527 335.668 238.793L335.531 238.964C335.428 239.089 335.28 239.112 335.154 239.021L333.212 237.687C333.224 237.687 333.224 237.687 333.212 237.687Z" fill="#FFBF9C"/>
<path d="M348.679 251.22C348.679 251.22 343.562 255.963 337.747 256.498C337.747 256.498 334.572 260.021 334.104 267.706C333.635 275.39 333.327 292.606 333.795 293.723C334.264 294.84 361.563 294.658 361.563 294.658C361.563 294.658 359.542 266.759 356.286 260.956C356.286 260.956 351.477 252.531 348.679 251.22Z" fill="#DE051F"/>
<path d="M351.135 272.004C351.135 272.004 350.666 282.3 349.741 286.051C348.816 289.79 348.347 291.478 344.464 292.036C340.58 292.595 330.345 293.347 328.335 292.971C326.313 292.595 319.802 294.259 319.802 294.259C319.802 294.259 317.781 294.818 317.632 293.507C317.484 292.196 315.302 293.324 315.153 293.883C314.994 294.442 313.908 295.194 313.6 293.701C313.292 292.207 313.44 290.326 316.079 289.767C318.717 289.209 321.196 289.767 323.995 289.984C326.485 290.178 328.152 289.402 328.643 289.402L341.208 286.598C341.208 286.598 342.762 286.039 343.07 283.793C343.379 281.547 343.379 271.811 343.379 271.811L351.135 272.004Z" fill="#FFBF9C"/>
<path d="M352.38 273.121H342.476C342.362 265.824 343.059 258.892 346.954 258.881C346.954 258.892 352.38 257.661 352.38 273.121Z" fill="#EE384E"/>
<path d="M305.867 308.317C305.867 308.317 302.988 325.533 302.6 329.866C302.2 334.152 300.133 348.005 300.133 348.005L306.495 347.822L311.921 324.233L305.867 308.317Z" fill="#005498"/>
<path d="M361.426 292.845C361.54 293.62 362.225 305.204 361.095 308.134C360.067 310.813 357.371 311.691 352.562 312.067C348.495 312.386 327.421 311.303 321.024 310.938C320.156 310.893 319.528 311.907 319.802 312.888L329.283 346.51L323.697 349.508C323.697 349.508 310.824 325.919 308.802 320.299C306.78 314.678 303.993 304.953 304.153 302.695C304.153 302.695 303.685 298.386 308.494 297.827C313.211 297.28 328.243 294.384 328.803 294.27C328.814 294.27 328.826 294.27 328.837 294.27L333.772 293.711C333.783 293.711 333.795 293.711 333.806 293.711L361.426 292.845Z" fill="#0064E1"/>
<path d="M328.414 293.05C328.837 292.959 330.242 293.039 330.23 294.087C330.219 295.045 328.517 295.171 328.208 295.216C327.969 295.25 308.733 298.021 307.488 298.203C307.454 298.215 307.408 298.215 307.374 298.226C307.054 298.294 305.295 298.579 304.164 296.721C302.987 294.771 293.621 280.588 292.616 279.072C292.57 279.004 292.524 278.935 292.467 278.867C292.273 278.627 291.725 277.818 292.376 276.883C293.153 275.754 294.398 277.636 294.398 277.636L305.695 295.524C305.957 295.934 306.311 296.242 306.723 296.368H306.734C306.905 296.413 307.077 296.425 307.248 296.39" fill="#606060"/>
<path d="M300.179 347.787C300.167 347.787 300.145 347.787 300.133 347.798C299.79 348.118 294.605 352.906 291.909 353.989C291.646 354.092 291.395 354.206 291.144 354.32C290.938 354.411 290.744 354.514 290.55 354.628C290.401 354.719 290.253 354.81 290.104 354.913C290.001 354.993 289.898 355.072 289.796 355.164C289.727 355.232 289.659 355.3 289.59 355.38C289.544 355.437 289.51 355.494 289.476 355.563C289.453 355.608 289.43 355.654 289.419 355.699C289.407 355.757 289.407 355.802 289.419 355.859C289.419 355.916 289.419 355.962 289.419 356.019C289.419 356.076 289.419 356.133 289.419 356.19C289.419 356.213 289.442 356.235 289.464 356.235L306.587 354.012C306.633 354.001 306.678 353.989 306.712 353.967C306.895 353.841 307.386 353.385 307.261 352.325C307.124 351.128 306.587 348.346 306.495 347.89C306.484 347.856 306.461 347.833 306.427 347.821L300.179 347.787Z" fill="#2B2377"/>
<path d="M323.709 349.51C323.709 349.51 320.762 357 318.74 358.687C317.198 359.976 317.655 361.047 317.952 361.481C318.043 361.618 318.192 361.686 318.34 361.663C318.706 361.618 319.505 361.424 320.293 360.751C321.379 359.816 332.081 351.949 332.081 351.949C332.081 351.949 332.55 350.821 331.773 349.703C330.996 348.575 329.294 346.522 329.294 346.522L323.709 349.51Z" fill="#2B2377"/>
<path d="M75.5467 290.108C75.5467 290.108 77.7106 289.533 77.4221 286.225C77.1336 282.917 74.9697 280.184 78.1434 278.314C81.1729 276.444 82.0385 275.869 83.6253 274.575C85.068 273.136 85.9335 271.986 90.5499 272.417C90.5499 272.417 94.3006 269.397 97.7629 272.13C101.081 274.862 100.215 282.054 100.792 283.204C101.514 284.211 106.13 288.813 106.563 292.553C106.996 296.292 104.399 298.737 100.792 298.594C97.1859 298.45 91.9925 298.594 91.9925 298.594H78.4319C78.4319 298.594 73.6713 298.881 73.3828 294.279C73.3828 291.546 75.5467 290.108 75.5467 290.108Z" fill="#180857"/>
<path d="M86.9416 295.573C86.9416 295.573 86.9416 298.45 85.7876 299.457C84.6335 300.607 82.9023 302.621 82.9023 302.621C82.9023 302.621 85.7876 307.08 91.4137 306.36C97.0399 305.785 97.9055 301.614 97.9055 301.614C97.9055 301.614 92.5678 301.039 91.9908 295.861C91.4137 290.827 90.5482 290.827 90.5482 290.827L86.9416 295.573Z" fill="#FFB07E"/>
<path d="M89.8262 297.011C93.2522 297.011 96.0295 292.374 96.0295 286.655C96.0295 280.936 93.2522 276.3 89.8262 276.3C86.4003 276.3 83.623 280.936 83.623 286.655C83.623 292.374 86.4003 297.011 89.8262 297.011Z" fill="#FFBE9B"/>
<path d="M89.8256 275.581C89.8256 275.581 88.8158 278.889 86.3633 282.053C83.9109 285.361 81.1699 287.231 80.8814 287.806C80.5929 288.381 78.429 286.799 79.1503 284.21C79.8716 281.621 84.3437 274.43 88.6715 274.286C92.9993 274.143 94.2977 271.554 96.4616 276.875C98.6255 282.197 98.337 288.094 98.337 288.094L89.8256 275.581Z" fill="#180857"/>
<path d="M83.766 285.505C83.766 285.505 81.3136 285.217 81.0251 286.512C80.7365 287.95 81.7463 289.244 83.766 289.532C85.9299 289.963 83.766 285.505 83.766 285.505Z" fill="#FFBE9B"/>
<path d="M106.993 354.11C106.993 354.11 110.599 354.254 113.34 354.254C116.081 354.254 120.265 354.685 120.265 354.685C120.265 354.685 121.274 354.685 121.419 356.124C121.563 357.562 121.563 358.137 121.563 358.137C121.563 358.137 121.707 359.863 120.409 359.863C119.111 359.863 111.032 360.726 109.012 360.726C106.993 360.726 105.839 361.014 105.839 359.863C105.694 358.569 105.694 353.823 106.993 354.11Z" fill="black"/>
<path d="M110.166 314.702C110.166 314.702 112.619 327.934 112.763 331.386C112.907 334.838 113.196 337.571 110.888 339.153C108.579 340.735 104.829 341.885 104.829 341.885L99.9238 318.154V315.277L110.166 314.702Z" fill="#FFBF99"/>
<path d="M69.1975 314.127C69.1975 314.127 68.0434 320.168 67.4664 323.188C67.1778 326.209 66.3123 332.249 66.3123 333.4C66.168 334.838 66.0238 336.996 68.6204 338.865C71.2171 340.735 73.9581 341.742 73.9581 341.742L79.1515 313.983L69.1975 314.127Z" fill="#FFBF99"/>
<path d="M83.911 300.176C83.911 300.176 80.1602 299.744 77.9963 300.32C75.8323 300.751 75.2553 300.463 75.8323 302.189C76.2651 303.915 79.1504 311.107 77.9963 315.421C76.8422 320.168 74.9668 343.18 74.9668 343.18C74.9668 343.18 89.1044 343.611 94.442 343.899C99.7797 344.187 103.819 343.18 103.819 343.18C103.819 343.18 104.973 333.256 103.819 328.797C102.665 324.339 100.934 317.147 100.934 317.147C100.934 317.147 100.068 307.08 101.222 304.491C102.665 301.902 103.675 301.902 101.799 301.326C99.9239 300.751 98.1928 300.176 96.6059 300.176C95.0191 300.176 94.442 300.176 93.5764 300.895C92.8551 301.614 90.9798 303.484 88.6716 303.052C86.2192 302.765 84.6323 301.039 84.6323 301.039C84.6323 301.039 84.6323 300.32 83.911 300.176Z" fill="#DE051F"/>
<path d="M77.4191 301.038C77.4191 301.038 76.265 300.463 74.2453 301.901C72.0814 303.771 70.6388 307.654 69.7732 310.1C69.0519 312.545 68.6191 314.99 68.6191 314.99C68.6191 314.99 71.3601 316.428 74.1011 316.428C76.9863 316.572 78.8617 316.716 78.8617 316.716C78.8617 316.716 80.0157 309.38 79.7272 306.36C79.4387 302.908 78.8617 301.901 77.4191 301.038Z" fill="#EE384E"/>
<path d="M100.501 303.628C100.501 303.628 101.511 300.607 104.108 301.902C106.704 303.34 108.58 308.518 109.157 310.387C109.59 312.113 110.311 315.565 110.311 315.565C110.311 315.565 107.281 316.716 104.829 317.003C102.232 317.147 100.501 317.291 100.501 317.291C100.501 317.291 99.6356 310.819 99.7799 308.086C100.068 305.353 100.501 303.628 100.501 303.628Z" fill="#EE384E"/>
<path d="M80.4473 345.05H99.3455L89.3915 348.07L80.4473 345.05Z" fill="#004B89"/>
<path d="M63.2824 339.728C63.2824 339.728 97.7608 350.371 105.551 353.104C105.551 353.104 108.148 353.679 108.148 355.118C108.148 356.268 108.003 358.282 107.715 359.145C107.426 360.008 106.705 360.871 105.118 360.583C103.675 360.295 72.6594 354.111 60.2529 351.09L56.7907 350.084C56.7907 350.084 54.194 348.933 54.6268 345.625C55.0596 342.461 57.512 339.728 59.0989 339.584C60.9743 339.153 63.2824 339.728 63.2824 339.728Z" fill="#0064E1"/>
<path d="M60.2521 355.118C60.2521 355.118 64.7242 354.398 67.1766 354.398C69.7733 354.255 73.2356 354.111 73.6683 354.398C74.1011 354.686 74.5339 359.864 74.5339 359.864C74.5339 359.864 74.9667 361.302 71.5044 360.871C68.0422 360.583 60.2521 360.439 60.2521 360.439C60.2521 360.439 58.3767 360.295 58.2324 358.713C58.2324 356.987 58.3767 356.268 58.3767 356.268C58.3767 356.268 59.3865 355.261 60.2521 355.118Z" fill="black"/>
<path d="M80.7392 350.515C80.7392 350.515 101.946 344.187 109.159 341.886C116.66 339.584 120.699 337.571 123.296 341.166C125.749 344.618 125.604 348.645 122.863 349.796C119.978 350.803 98.1947 355.981 89.1063 357.994C80.0179 360.008 74.1032 361.014 73.2376 360.727C72.5163 360.439 71.3622 357.706 71.5065 355.981C71.6507 354.255 71.795 353.823 73.6704 353.104C75.5458 352.529 80.7392 350.515 80.7392 350.515Z" fill="#0054A3"/>
<path d="M78.4295 320.024H103.819C103.819 320.024 105.262 319.88 105.262 321.75C105.262 323.62 105.262 343.612 105.262 343.612C105.262 343.612 105.406 345.05 104.396 345.05C103.387 345.05 74.5345 345.05 74.5345 345.05C74.5345 345.05 73.3804 345.337 73.3804 343.324C73.3804 341.31 73.3804 321.175 73.3804 321.175C73.3804 321.175 73.2361 320.168 74.823 320.168C76.2656 320.024 78.4295 320.024 78.4295 320.024Z" fill="#0064B7"/>
<path d="M89.085 330.907L87.6426 332.703L89.4446 334.141L90.887 332.345L89.085 330.907Z" fill="#569ED4"/>
<path d="M361.509 333.322C361.509 333.322 363.59 332.442 363.43 330.12C363.27 327.719 362.069 326.038 364.551 326.758C367.112 327.479 367.913 327.719 369.754 327.399C371.595 326.998 373.116 326.278 372.316 328.599C371.515 331.001 370.635 332.922 372.556 333.322C374.477 333.723 376.479 332.282 376.719 335.964C376.959 339.647 373.997 343.889 369.114 343.969C364.311 344.129 362.149 342.128 362.149 342.128C362.149 342.128 360.868 340.287 362.87 339.807C364.871 339.326 366.952 338.526 365.912 337.565C364.871 336.605 361.509 336.525 361.509 336.525C361.509 336.525 357.266 335.804 361.509 333.322Z" fill="#649CE8"/>
<path d="M383.602 333.962C383.282 331.56 383.522 329.879 387.925 329.239C392.327 328.598 394.889 331.24 395.129 333.962C395.369 336.683 391.607 337.644 391.607 337.644C391.607 337.644 388.885 338.445 390.246 340.766C391.607 343.168 392.247 345.409 389.125 345.809C386.003 346.13 382.561 345.329 380.64 344.048C378.719 342.767 376.797 339.565 378.959 337.884C378.959 337.884 379.599 337.484 381.681 337.324C383.842 337.244 383.602 333.962 383.602 333.962Z" fill="#023E9F"/>
<path d="M368.152 333.562C368.152 333.562 371.835 341.808 372.315 347.412" stroke="#023E9F" stroke-width="0.866229" stroke-miterlimit="10"/>
<path d="M388.406 334.923C388.406 334.923 381.921 344.529 380.4 347.731" stroke="#649CE8" stroke-width="0.866229" stroke-miterlimit="10"/>
<path d="M369.993 346.771H384.803C384.803 346.771 386.404 346.852 386.324 349.093C386.244 351.174 383.602 350.694 382.241 350.694C380.881 350.694 369.673 350.694 369.673 350.694C369.673 350.694 367.832 351.014 367.832 348.933C367.912 346.932 368.553 346.771 369.993 346.771Z" fill="#0055A2"/>
<path d="M369.754 350.692L371.995 363.821H381.922L383.603 353.975L369.754 350.692Z" fill="#0055A2"/>
<path d="M369.754 350.692L383.603 353.975L384.163 350.692H369.754Z" fill="#016AD3"/>
<path d="M376.078 347.252C376.078 347.252 376.799 332.683 381.201 323.557" stroke="#FABC43" stroke-width="0.866229" stroke-miterlimit="10"/>
<path d="M384.804 318.353C384.804 318.353 385.124 322.835 380.801 324.597C380.801 324.597 379.841 320.754 384.804 318.353Z" fill="#FABC43"/>
<path d="M378.24 332.602C378.24 332.602 379.841 328.759 384.805 329.32C384.805 329.239 384.404 333.082 378.24 332.602Z" fill="#FABC43"/>
<path d="M376.637 342.127C376.637 342.127 377.437 338.045 382.4 337.645C382.4 337.645 382.721 341.407 376.637 342.127Z" fill="#FABC43"/>
<path d="M376.4 342.208C376.4 342.208 376.96 338.126 372.477 336.044C372.477 335.964 370.876 339.487 376.4 342.208Z" fill="#FABC43"/>
<path d="M378.32 332.522C378.32 332.522 379.441 328.52 375.198 325.878C375.198 325.878 373.117 329.16 378.32 332.522Z" fill="#FABC43"/>
<path d="M332.954 59.8101L329.061 63.7031L332.954 67.5962L336.847 63.7031L332.954 59.8101Z" fill="#003EB0"/>
<path d="M129.752 178.756L125.859 182.649L129.752 186.542L133.645 182.649L129.752 178.756Z" fill="#003EB0"/>
<path d="M76.061 248.967L72.168 252.86L76.061 256.753L79.954 252.86L76.061 248.967Z" fill="#EE384E"/>
<path d="M200.328 38.2673C200.27 38.2093 200.212 38.2093 200.095 38.2093L198.639 38.3833C198.464 38.3833 198.289 38.2673 198.231 38.0932C198.056 37.397 197.823 36.8169 197.416 36.1787C197.299 36.0047 197.357 35.8307 197.474 35.6566L198.522 34.8444C198.581 34.7864 198.639 34.7284 198.639 34.6123C198.639 34.4963 198.639 34.4383 198.581 34.3803L196.95 32.7559C196.891 32.6979 196.833 32.6399 196.717 32.6979C196.658 32.6979 196.542 32.7559 196.484 32.8139L195.668 33.8582C195.552 34.0322 195.319 34.0322 195.144 33.9162C194.561 33.5681 193.921 33.278 193.222 33.104C193.047 33.046 192.872 32.8719 192.931 32.6979L193.105 31.2475C193.105 31.1895 193.105 31.0735 193.047 31.0154C192.989 30.9574 192.931 30.8994 192.814 30.8994H190.484C190.426 30.8994 190.309 30.9574 190.251 31.0154C190.193 31.0735 190.193 31.1315 190.193 31.2475L190.368 32.6979C190.368 32.8719 190.251 33.046 190.076 33.104C189.377 33.278 188.795 33.5101 188.154 33.9162C187.979 34.0322 187.805 33.9742 187.63 33.8582L186.814 32.8139C186.756 32.7559 186.698 32.6979 186.581 32.6979C186.465 32.6979 186.407 32.6979 186.348 32.7559L184.717 34.3803C184.659 34.4383 184.659 34.4963 184.659 34.6123C184.659 34.7284 184.717 34.7864 184.776 34.8444L185.824 35.6566C185.999 35.7726 185.999 36.0047 185.882 36.1787C185.533 36.7589 185.242 37.397 185.067 38.0932C185.009 38.2673 184.834 38.3833 184.659 38.3833L183.203 38.2093C183.145 38.2093 183.028 38.2093 182.97 38.2673C182.912 38.3253 182.854 38.3833 182.854 38.4993V40.8199C182.854 40.8779 182.912 40.994 182.97 41.052C183.028 41.11 183.087 41.11 183.203 41.11L184.659 40.9359C184.834 40.9359 185.009 41.052 185.067 41.226C185.242 41.9222 185.475 42.5023 185.882 43.1405C185.999 43.3145 185.941 43.5466 185.824 43.6046L184.776 44.4168C184.717 44.4748 184.659 44.5328 184.659 44.6489C184.659 44.7069 184.659 44.8229 184.717 44.8809L186.348 46.5053C186.407 46.5634 186.465 46.6214 186.581 46.5634C186.64 46.5634 186.756 46.5053 186.814 46.4473L187.63 45.4031C187.746 45.229 187.979 45.229 188.154 45.287C188.737 45.6351 189.377 45.9252 190.076 46.0412C190.251 46.0992 190.426 46.2733 190.368 46.4473L190.193 47.8977C190.193 47.9557 190.193 48.0717 190.251 48.1297C190.309 48.1878 190.368 48.2458 190.484 48.2458H192.814C192.872 48.2458 192.989 48.1878 193.047 48.1297C193.105 48.0717 193.105 48.0137 193.105 47.8977L192.931 46.4473C192.931 46.2733 193.047 46.0992 193.222 46.0412C193.921 45.8672 194.503 45.6351 195.144 45.287C195.319 45.171 195.493 45.229 195.668 45.4031L196.484 46.4473C196.542 46.5053 196.6 46.5634 196.717 46.5634C196.833 46.5634 196.891 46.5634 196.95 46.5053L198.581 44.8809C198.639 44.8229 198.639 44.7649 198.639 44.6489C198.639 44.5328 198.581 44.4748 198.522 44.4168L197.474 43.6046C197.299 43.4886 197.299 43.2565 197.416 43.1405C197.765 42.5603 198.056 41.9222 198.231 41.226C198.289 41.052 198.464 40.9359 198.639 40.9359L200.095 41.11C200.153 41.11 200.27 41.11 200.328 41.052C200.386 40.994 200.445 40.9359 200.445 40.8199V38.4993C200.445 38.4413 200.445 38.3253 200.328 38.2673ZM199.862 40.4718L198.697 40.3558C198.231 40.2978 197.765 40.5878 197.649 41.11C197.532 41.6901 197.241 42.3283 196.95 42.8504C196.717 43.2565 196.775 43.7786 197.183 44.1267L197.998 44.7649L196.833 45.9252L196.192 45.113C195.901 44.7069 195.377 44.6489 194.969 44.8809C194.445 45.229 193.862 45.4611 193.222 45.5771C192.756 45.6931 192.406 46.1572 192.465 46.6214L192.581 47.7817H190.95L191.067 46.6214C191.125 46.1572 190.834 45.6931 190.309 45.5771C189.669 45.4611 189.086 45.171 188.562 44.8809C188.154 44.6489 187.63 44.7069 187.339 45.113L186.698 45.9252L185.533 44.7649L186.348 44.1267C186.756 43.8367 186.814 43.3145 186.581 42.8504C186.232 42.3283 185.999 41.7481 185.882 41.11C185.766 40.6459 185.3 40.2978 184.834 40.3558L183.669 40.4718V38.8474L184.834 38.9634C185.3 39.0215 185.766 38.7314 185.882 38.2093C185.999 37.6291 186.29 36.9909 186.581 36.4688C186.814 36.0627 186.756 35.5406 186.348 35.2505L185.533 34.6123L186.698 33.4521L187.339 34.2643C187.63 34.6704 188.154 34.7284 188.562 34.4963C189.086 34.1482 189.669 33.9162 190.309 33.8001C190.775 33.6841 191.125 33.22 191.067 32.7559L190.95 31.5956H192.581L192.465 32.7559C192.406 33.22 192.698 33.6841 193.222 33.8001C193.862 33.9162 194.445 34.2062 194.969 34.4963C195.377 34.7284 195.901 34.6704 196.192 34.2643L196.833 33.4521L197.998 34.6123L197.183 35.2505C196.775 35.5406 196.717 36.0627 196.95 36.4688C197.299 36.9909 197.532 37.5711 197.649 38.2093C197.765 38.6734 198.231 39.0215 198.697 38.9634L199.862 38.8474V40.4718Z" stroke="#003EB0" stroke-width="0.791849" stroke-miterlimit="10"/>
<path d="M191.765 35.5986C189.552 35.5986 187.746 37.3971 187.746 39.6597C187.746 41.9222 189.552 43.7207 191.765 43.7207C193.979 43.7207 195.784 41.9222 195.784 39.6597C195.843 37.3971 194.037 35.5986 191.765 35.5986ZM191.765 43.0825C189.843 43.0825 188.329 41.5161 188.329 39.6016C188.329 37.6872 189.901 36.1208 191.765 36.1208C193.629 36.1208 195.202 37.6872 195.202 39.6016C195.202 41.5161 193.687 43.0825 191.765 43.0825Z" stroke="#003EB0" stroke-width="0.791849" stroke-miterlimit="10"/>
</svg>
