<svg width="67" height="68" viewBox="0 0 67 68" fill="none" xmlns="http://www.w3.org/2000/svg">
<path d="M0.00439453 57.2785C0.315592 55.6591 0.64032 54.0262 0.937986 52.4069C1.39802 49.8698 1.84452 47.3328 2.30455 44.7957C2.46691 43.8646 3.08931 43.4867 3.96878 43.7971C7.89257 45.1601 11.8028 46.5501 15.7266 47.9266C16.552 48.2234 16.8632 48.8037 16.6196 49.465C16.3761 50.1262 15.7672 50.3421 14.9283 50.0452C12.1682 49.0736 9.4215 48.102 6.67484 47.1304C6.44483 47.0494 6.21481 46.9819 5.99833 46.9144C5.9442 46.9549 5.90361 47.0089 5.84949 47.0494C6.66131 48.4259 7.39195 49.8698 8.29848 51.1788C13.1288 58.2231 19.7587 62.609 28.1475 64.2419C44.5056 67.4132 60.6067 56.7252 64.0028 40.4639C64.3817 38.6556 64.4899 36.7798 64.6928 34.931C64.7876 34.0943 65.207 33.568 65.8835 33.595C66.5736 33.622 67.0201 34.1753 66.9795 35.0119C66.5194 44.2829 62.9339 52.1235 56.0876 58.4256C51.6496 62.528 46.4269 65.227 40.4871 66.3741C32.0442 68.0069 24.0613 66.59 16.6873 62.1502C11.3157 58.9249 7.22958 54.4716 4.3341 48.9252C4.26644 48.7902 4.18526 48.6418 4.10408 48.5203C4.09055 48.4933 4.03643 48.4798 3.95525 48.4394C3.4411 51.2868 2.94047 54.1342 2.43985 56.9681C2.42632 57.0761 2.39926 57.184 2.38573 57.3055C2.30455 57.9532 2.061 58.493 1.3439 58.6145C0.640319 58.7225 0.288531 58.2636 0.0179248 57.7103C0.00439453 57.5484 0.00439453 57.4135 0.00439453 57.2785Z" fill="#2A2A2A"/>
<path d="M35.9263 0.964355C37.1441 1.12629 38.3753 1.24775 39.593 1.47716C49.7273 3.40693 57.4125 8.80488 62.6622 17.6575C62.784 17.8734 62.9193 18.0759 63.0411 18.2918C63.0546 18.3053 63.0817 18.3053 63.1629 18.3458C63.447 16.7399 63.7176 15.134 64.0017 13.5416C64.2318 12.2191 64.4482 10.8831 64.6783 9.5606C64.8406 8.65644 65.3142 8.2246 66.0448 8.33256C66.7619 8.44052 67.1137 9.0208 66.9649 9.92496C66.5048 12.5969 66.0313 15.2689 65.5577 17.9409C65.3142 19.3309 65.0842 20.7209 64.8271 22.1108C64.6512 23.0825 64.0423 23.4468 63.1223 23.1364C59.1985 21.787 55.2747 20.424 51.3509 19.0475C50.5661 18.7776 50.2279 18.2108 50.4444 17.5766C50.6744 16.9018 51.2968 16.6184 52.0951 16.9018C55.0041 17.9004 57.8996 18.926 60.8086 19.9382C60.9574 19.9921 61.1063 20.0191 61.4174 20.1136C60.9168 19.2364 60.538 18.4672 60.0644 17.752C53.5428 7.88723 44.3557 2.89412 32.4896 3.25849C18.2557 3.70382 6.13257 14.2973 3.5618 28.278C3.30473 29.641 3.23708 31.031 3.08824 32.4209C3.06118 32.7043 3.06118 33.0012 3.02059 33.2981C2.92588 33.9593 2.42526 34.4047 1.84345 34.3642C1.24812 34.3237 0.761029 33.8379 0.81515 33.1766C0.936923 31.5708 0.991044 29.9379 1.28871 28.359C3.1153 18.6157 8.24329 11.072 16.6727 5.82251C21.1106 3.05606 25.9951 1.53114 31.2178 1.0993C31.4343 1.08581 31.6507 1.01834 31.8808 0.97785C33.2203 0.964355 34.5733 0.964355 35.9263 0.964355Z" fill="#2A2A2A"/>
<path d="M34.5056 22.5293C39.4983 22.5293 44.491 22.5293 49.4837 22.5293C50.3496 22.5293 50.8638 23.0016 50.8638 23.8113C50.8502 28.7774 50.8367 33.7301 50.8232 38.6962C50.8232 39.3709 50.8367 40.0592 50.7014 40.7069C50.1331 43.4869 47.8195 45.3761 44.9104 45.4031C41.7849 45.4301 38.6594 45.4166 35.5339 45.4166C30.2706 45.4166 25.0073 45.4166 19.744 45.4166C18.391 45.4166 18.0663 45.1062 18.0663 43.7702C18.0663 37.4007 18.1069 31.0176 18.0392 24.648C18.0122 22.5698 18.594 22.5293 20.1364 22.5428C24.9262 22.5563 29.7159 22.5293 34.5056 22.5293ZM48.523 26.0785C48.2118 26.3214 48.0089 26.4698 47.8195 26.6182C43.7062 29.857 39.6066 33.1093 35.4933 36.3481C34.6545 37.0093 34.2485 37.0093 33.4097 36.3481C30.0812 33.7166 26.7392 31.0851 23.4108 28.4536C22.4366 27.6843 21.4489 26.9151 20.3664 26.065C20.3664 31.8138 20.3664 37.4276 20.3664 43.109C20.637 43.109 20.8806 43.109 21.1241 43.109C28.9041 43.109 36.6975 43.109 44.4775 43.109C47.1294 43.109 48.5636 41.692 48.5636 39.0335C48.5636 34.9716 48.5636 30.9096 48.5636 26.8477C48.5636 26.6452 48.5501 26.4293 48.523 26.0785ZM34.4515 34.2698C38.4159 31.139 42.3397 28.0352 46.3852 24.8504C38.3753 24.8504 30.5277 24.8504 22.5313 24.8504C26.5633 28.0487 30.4871 31.139 34.4515 34.2698Z" fill="#2A2A2A"/>
</svg>
