<svg width="406" height="444" viewBox="0 0 406 444" fill="none" xmlns="http://www.w3.org/2000/svg">
<path d="M219.468 35.9369C219.468 35.9369 253.023 51.0286 287.081 31.108C321.139 11.1874 369.797 4.66876 397.169 62.2514C424.541 119.834 381.359 159.051 361.283 164.485C341.206 169.919 312.624 174.143 315.662 210.95C318.71 247.758 281.595 251.982 272.48 261.784C263.356 271.595 259.399 285.036 257.27 295.51C255.142 305.984 230.692 340.084 199.275 338.577C167.859 337.069 182.15 305.993 151.439 293.014C120.729 280.034 105.519 288.29 100.652 265.605C95.7856 242.919 90.2899 215.165 58.0703 208.224C25.8507 201.283 -3.34038 188.908 6.38355 148.779C16.1075 108.65 50.4944 86.0217 59.0088 79.0807C67.5233 72.1397 77.8278 49.8094 78.1568 38.3466C78.4857 26.8839 77.2666 -3.00188 122.268 4.24635C167.269 11.4946 219.468 35.9369 219.468 35.9369Z" fill="#E5F8FF"/>
<path d="M121.215 205.325C155.687 205.325 183.632 177.597 183.632 143.393C183.632 109.189 155.687 81.4614 121.215 81.4614C86.7429 81.4614 58.7979 109.189 58.7979 143.393C58.7979 177.597 86.7429 205.325 121.215 205.325Z" stroke="#003EB0" stroke-miterlimit="10" stroke-dasharray="6 6"/>
<path d="M396.581 328.333C396.581 328.333 394.607 334.218 397.345 339.201C400.084 344.183 401.67 347.496 396.62 348.859C391.569 350.222 386.547 351.269 386.547 356.856C386.547 362.443 392.624 375.711 383.5 379.34C374.376 382.959 360.085 385.82 356.737 374.357C353.389 362.894 349.635 361.829 351.977 353.39C354.309 344.942 363.133 349.627 364.952 342.225C366.771 334.833 362.523 330.609 371.028 330.004C379.542 329.399 380.152 332.27 379.842 323.063C379.533 313.856 390.185 316.275 394.288 319.444C398.39 322.631 396.581 328.333 396.581 328.333Z" fill="#023EA1"/>
<path d="M384.574 336.023C384.574 336.023 364.807 361.819 357.812 381.432" stroke="white" stroke-miterlimit="10" stroke-linecap="round" stroke-linejoin="round"/>
<path d="M367.583 310.928C367.583 310.928 360.898 316.756 367.583 318.973C374.269 321.191 377.114 324.196 373.872 330.436C370.631 336.676 371.695 341.505 375.208 343.704C378.72 345.912 385.822 348.926 380.955 357.182C376.088 365.429 367.777 382.124 358.043 377.909C348.31 373.685 342.833 358.402 346.491 352.161C350.138 345.921 356.224 343.915 352.78 336.676C349.335 329.438 342.843 333.652 342.233 325.213C341.624 316.765 340.25 308.24 351.657 305.005C361.904 302.077 370.428 306.8 367.583 310.928Z" stroke="#DE051F" stroke-miterlimit="10"/>
<path d="M358.877 316.564C358.877 316.564 362.321 369.673 366.376 382.95" stroke="#DE051F" stroke-miterlimit="10"/>
<path d="M372.256 349.752L362.628 359.794L351.976 354.783" stroke="#DE051F" stroke-miterlimit="10"/>
<path d="M367.999 325.214L359.968 331.444L350.554 328.334" stroke="#DE051F" stroke-miterlimit="10"/>
<path d="M108.753 324.446C108.753 324.446 105.86 318.129 110.881 315.412C115.903 312.695 123.353 316.919 123.043 321.892C122.734 326.865 119.231 328.507 122.211 330.926C125.191 333.345 132.429 341.352 128.568 345.135C124.717 348.898 119.415 346.2 118.796 353.439C118.176 360.677 128.384 367.772 118.796 372.908C109.207 378.044 90.814 382.412 91.114 364.46C91.4236 346.507 104.34 357.221 101.002 343.79C97.6643 330.369 104.195 333.643 107.843 330.945C111.481 328.228 108.753 324.446 108.753 324.446Z" fill="#023EA1"/>
<path d="M114.828 334.574C114.828 334.574 107.833 351.624 106.769 368.376C105.695 385.119 107.978 388.892 107.978 388.892" stroke="white" stroke-miterlimit="10" stroke-linecap="round" stroke-linejoin="round"/>
<path d="M116.135 380.847C116.135 380.847 127.407 348.667 143.217 331.002" stroke="#DE051F" stroke-miterlimit="10"/>
<path d="M154.759 321.526C154.759 321.526 152.63 331.789 141.619 332.864C141.61 332.864 141.977 323.677 154.759 321.526Z" stroke="#DE051F" stroke-miterlimit="10"/>
<path d="M130.608 349.185C130.608 349.185 136.743 341.678 147.589 346.046C147.599 346.036 144.222 354.312 130.608 349.185Z" stroke="#DE051F" stroke-miterlimit="10"/>
<path d="M120.625 369.633C120.625 369.633 125.172 361.07 136.667 363.249C136.667 363.268 135.003 372.024 120.625 369.633Z" stroke="#DE051F" stroke-miterlimit="10"/>
<path d="M120.228 369.576C120.228 369.576 124.224 360.763 115.399 353.112C115.399 353.121 109.468 359.832 120.228 369.576Z" stroke="#DE051F" stroke-miterlimit="10"/>
<path d="M130.745 349.147C130.745 349.147 135.834 340.9 128.074 332.212C128.074 332.212 121.34 338.116 130.745 349.147Z" stroke="#DE051F" stroke-miterlimit="10"/>
<path d="M24.2076 324.446C24.2076 324.446 38.1984 319.78 38.3435 327.93C38.4984 336.081 41.8461 336.83 45.339 337.435C48.8318 338.04 55.5273 336.523 55.2274 345.134C54.9178 353.726 51.4346 358.018 54.1534 361.685C56.8916 365.343 62.9968 383.747 55.2274 384.207C47.4579 384.659 41.072 375.615 39.4079 371.084C37.734 366.562 31.6481 364.45 26.6361 363.989C21.6145 363.538 16.1382 359.199 19.9503 353.669C23.7431 348.139 22.5821 340.9 18.6828 338.193C14.7739 335.467 14.7739 327.748 24.2076 324.446Z" fill="#FCBE42"/>
<path d="M28.3105 333.661L55.6827 390.994" stroke="white" stroke-miterlimit="10" stroke-linecap="round" stroke-linejoin="round"/>
<path d="M46.7107 343.925L39.425 356.952L24.9697 355.349" stroke="white" stroke-miterlimit="10" stroke-linecap="round" stroke-linejoin="round"/>
<path d="M388.134 367.052C370.699 357.596 352.451 372.275 352.451 372.275C330.749 354.178 302.776 369.251 302.776 369.251C295.075 359.391 281.287 365.228 281.287 365.228C272.976 355.57 256.053 357.289 256.053 357.289C248.448 340.69 231.11 344.309 231.11 344.309C231.11 329.822 216.819 328.91 216.819 328.91V277.933L198.213 286.525L184.532 277.933V328.92C184.532 328.92 170.241 329.832 170.241 344.319C170.241 344.319 152.902 340.699 145.297 357.298C145.297 357.298 128.375 355.58 120.063 365.238C120.063 365.238 106.276 359.41 98.5741 369.26C98.5741 369.26 70.602 354.169 48.8998 372.284C48.8998 372.284 30.6614 357.605 13.2164 367.062C-4.21898 376.518 -3.40623 396.362 9.97505 396.592H391.395C404.747 396.343 405.56 376.508 388.134 367.052Z" fill="#E5F8FF"/>
<path d="M175.223 245.972L189.223 308.028C189.223 308.028 193.887 323.773 201.356 323.773C208.826 323.773 212.561 310.803 213.489 305.254C214.418 299.705 226.561 244.129 226.561 244.129L175.223 245.972Z" fill="#FF7D8E"/>
<path d="M185.073 249.429L190.985 275.647L192.843 283.894C192.843 283.894 194.207 289.059 195.136 290.671C196.413 292.889 198.513 295.52 201.173 295.52C205.779 295.52 208.072 289.385 208.653 285.958C209.233 282.53 216.703 248.286 216.703 248.286L185.073 249.429Z" fill="#FFA6B2"/>
<path d="M150.339 222.817C142.879 250.6 141.931 270.051 141.931 270.051C141.931 270.051 141.931 280.246 147.523 273.756C151.248 269.446 161.591 261.017 170.028 254.786C168.016 237.16 166.845 204.231 166.371 188.669C162.22 193.805 155.264 204.471 150.339 222.817Z" fill="#EE384E"/>
<path d="M178.34 207.072L169.932 184.848C169.932 184.848 168.529 186.028 166.381 188.669C166.855 204.231 168.026 237.16 170.038 254.786C174.266 251.647 178.021 249.074 180.207 247.826C186.738 244.11 178.34 207.072 178.34 207.072Z" fill="#EE384E"/>
<path d="M252.758 222.817C260.218 250.6 261.166 270.05 261.166 270.05C261.166 270.05 261.166 280.246 255.574 273.756C251.849 269.445 241.505 261.016 233.068 254.786C235.081 237.16 236.252 204.231 236.726 188.668C240.867 193.805 247.833 204.471 252.758 222.817Z" fill="#EE384E"/>
<path d="M224.756 207.072L233.164 184.847C233.164 184.847 234.567 186.028 236.715 188.668C236.241 204.23 235.07 237.159 233.057 254.785C228.829 251.646 225.075 249.073 222.888 247.825C216.348 244.11 224.756 207.072 224.756 207.072Z" fill="#EE384E"/>
<path d="M215.438 75.5581H180.616C174.182 87.2705 167.96 102.737 165.425 121.4C161.197 152.745 168.773 206.746 173.243 233.934H223.595C232.409 186.71 232.719 164.947 233.531 149.096C235.012 120.248 225.075 93.8467 215.438 75.5581Z" fill="white"/>
<path d="M202.287 151.505C215.694 151.505 226.563 140.721 226.563 127.418C226.563 114.115 215.694 103.331 202.287 103.331C188.879 103.331 178.011 114.115 178.011 127.418C178.011 140.721 188.879 151.505 202.287 151.505Z" fill="#EE384E"/>
<path d="M196.945 61.2913L185.498 67.3587C183.902 69.8452 182.238 72.5812 180.612 75.5669H220.727C220.563 75.2597 220.408 74.9717 220.243 74.6837C215.628 70.5076 209.358 64.8146 206.736 62.2705C202.344 57.9888 196.945 61.2913 196.945 61.2913Z" fill="#EE384E"/>
<path d="M199.034 50.0881C199.034 50.0881 192.735 56.1363 185.508 67.3495L196.954 61.2821C196.954 61.2821 202.363 57.9796 206.755 62.2517C209.377 64.8054 215.637 70.4984 220.262 74.6649C212.619 60.3509 205.304 51.2018 204.172 50.0785C201.598 47.5441 199.034 50.0881 199.034 50.0881Z" fill="#BD4149"/>
<path d="M183.669 126.65L200.969 108.966C191.535 109.619 184.056 117.213 183.669 126.65Z" fill="#0064E1"/>
<path d="M208.943 110.128L185.063 134.522C185.296 135.07 185.557 135.607 185.838 136.135L210.588 110.838C210.046 110.579 209.504 110.33 208.943 110.128Z" fill="#0064E1"/>
<path d="M211.672 111.414L186.458 137.181C189.748 142.433 195.601 145.937 202.307 145.937C212.611 145.937 220.971 137.642 220.971 127.418C220.971 120.582 217.217 114.621 211.672 111.414Z" fill="#0064E1"/>
<path d="M202.288 108.899C201.843 108.899 201.408 108.938 200.963 108.967L183.663 126.65C183.653 126.91 183.624 127.159 183.624 127.418C183.624 129.934 184.137 132.343 185.056 134.523L208.935 110.128C206.874 109.341 204.639 108.899 202.288 108.899Z" fill="#003EB0"/>
<path d="M210.586 110.848L185.836 136.144C186.02 136.509 186.252 136.845 186.455 137.191L211.67 111.424C211.312 111.222 210.954 111.02 210.586 110.848Z" fill="#003EB0"/>
<path d="M223.283 233.934H173.251C174.335 240.51 175.225 245.512 175.728 248.257C176.009 249.784 176.163 250.6 176.163 250.6H225.151L220.39 250.129C221.426 244.6 222.393 239.195 223.283 233.934Z" fill="#0064E1"/>
<path d="M220.728 75.5581H215.436C225.063 93.8467 235.009 120.247 233.529 149.106C232.813 163.103 229.988 194.333 223.282 233.944H228.594C235.261 194.467 238.105 163.046 238.821 149.106C240.302 120.247 230.355 93.8467 220.728 75.5581Z" fill="#BDBDBD"/>
<path d="M220.312 250.6H225.16C226.215 244.907 227.685 239.348 228.604 233.934H223.293C222.393 239.195 221.348 245.06 220.312 250.6Z" fill="#023EA1"/>
<path d="M204.581 194.285C204.571 194.217 204.562 194.141 204.532 194.073C204.3 192.912 203.226 188.553 201.359 188.553C200.478 188.553 199.811 188.563 199.24 189.043C200.459 190.204 201.175 193.152 201.369 194.073C201.378 194.141 201.388 194.217 201.417 194.285C202.694 200.726 206.448 221.146 205.674 235.796C204.745 253.394 201.92 267.381 201.011 271.913C200.469 274.582 199.927 276.022 199.211 276.751C199.559 277.183 199.966 277.462 200.43 277.462C202.297 277.462 203.226 276.54 204.165 271.913C205.084 267.372 207.9 253.394 208.828 235.796C209.602 221.137 205.848 200.717 204.581 194.285Z" fill="#BA3E45"/>
<path d="M201.01 271.902C201.929 267.361 204.744 253.383 205.673 235.786C206.447 221.136 202.703 200.716 201.416 194.274C201.406 194.207 201.397 194.13 201.368 194.063C201.184 193.141 200.458 190.203 199.239 189.032C198.601 189.579 198.107 190.722 197.614 193.17C197.614 193.17 191.083 220.032 192.95 238.551C194.353 252.442 196.278 264.769 197.149 270.078C197.439 271.835 197.623 272.833 197.623 272.833C197.623 272.833 198.155 275.445 199.21 276.75C199.926 276.011 200.468 274.581 201.01 271.902Z" fill="#EE384E"/>
<path d="M63.985 435.251C95.1759 435.251 120.461 432.337 120.461 428.742C120.461 425.148 95.1759 422.233 63.985 422.233C32.794 422.233 7.50879 425.148 7.50879 428.742C7.50879 432.337 32.794 435.251 63.985 435.251Z" fill="#F2F2F2"/>
<path d="M305.813 437.806C344.939 437.806 376.657 434.152 376.657 429.646C376.657 425.139 344.939 421.485 305.813 421.485C266.687 421.485 234.969 425.139 234.969 429.646C234.969 434.152 266.687 437.806 305.813 437.806Z" fill="#F2F2F2"/>
<path d="M85.2986 306.569C85.2986 306.569 81.1188 364.44 80.5189 374.703C79.9093 384.965 77.713 419.536 77.713 419.536H67.4472L60.5195 305.936L85.2986 306.569Z" fill="#DE051F"/>
<path d="M46.6732 307.175C46.6732 307.175 47.8826 336.331 48.4244 343.724C48.9566 351.116 43.1029 376.393 39.7648 387.626C36.4171 398.868 31.7051 411.31 31.7051 411.31L39.7648 415.918C39.7648 415.918 57.1711 384.986 63.4119 366.736C69.6429 348.485 74.2872 321.172 73.5228 305.783L46.6732 307.175Z" fill="#EE384E"/>
<path d="M90.362 265.768L98.1895 276.098C98.1895 276.098 98.799 276.923 100.25 276.549C101.692 276.175 116.757 270.741 116.757 270.741C116.757 270.741 118.856 269.81 119.418 268.149C119.969 266.488 120.23 266.085 120.559 265.633C120.888 265.182 121.372 265.24 121.092 264.126C120.811 263.022 120.656 262.561 120.656 262.561C120.656 262.561 120.327 261.784 120.985 261.784C121.643 261.784 122.349 261.937 122.717 262.696C123.065 263.454 122.978 265.288 122.978 265.288L126.2 265.413C126.2 265.413 128.174 265.48 128.174 267.525C128.174 269.57 128.174 272.987 128.174 272.987C128.174 272.987 128.455 274.053 127.013 274.053C125.571 274.053 124.052 274.005 124.052 274.005C124.052 274.005 122.843 273.88 120.859 275.311C118.876 276.741 103.782 285.314 103.782 285.314C103.782 285.314 98.5668 288.405 95.1417 285.16C91.7165 281.916 84.1986 273.89 84.1986 273.89L83.8213 271.346L90.362 265.768Z" fill="#FFBF99"/>
<path d="M65.1647 238.101C65.1647 238.101 64.2359 242.728 62.3685 247.365C60.5011 252.002 59.5723 253.845 59.5723 253.845C59.5723 253.845 65.1647 260.325 70.7766 259.394C76.369 258.472 76.369 254.767 76.369 254.767C76.369 254.767 71.2313 250.6 71.2313 245.042C71.2313 239.483 71.2313 239.493 71.2313 239.493L65.1647 238.101Z" fill="#FFB48F"/>
<path d="M77.5098 253.701C77.5098 253.701 82.154 256.264 84.0795 257.886C86.0146 259.509 91.5974 265.883 91.5974 265.883L83.9537 273.247L78.6321 267.256L77.5098 253.701Z" fill="#0064B7"/>
<path d="M61.9332 251.531C61.9332 251.531 64.7294 255.237 68.4642 256.158C72.1989 257.08 74.0566 254.306 74.0566 254.306L75.0822 252.981C75.0822 252.981 76.1175 252.174 77.2592 253.125C78.401 254.056 80.578 256.456 82.4647 260.335C84.3611 264.203 84.9126 269.503 85.3093 281.878C85.706 294.252 85.3093 307.606 85.3093 307.606H46.7135L46.2588 288.377C46.2588 288.377 50.3612 262.802 54.3959 257.598C58.4306 252.395 59.6014 251.262 59.6014 251.262C59.6014 251.262 60.5302 249.995 61.9332 251.531Z" fill="#0083F9"/>
<path d="M76.8392 225.591C76.8392 225.591 79.6355 229.297 79.6355 235.787C79.6355 242.267 78.7066 246.904 75.9007 246.904C73.0948 246.904 67.4927 245.051 66.5638 243.198C65.635 241.345 63.7676 241.345 63.7676 237.649C63.7676 233.953 68.4312 225.611 72.1756 225.611C75.9104 225.611 76.8392 225.591 76.8392 225.591Z" fill="#FFBF99"/>
<path d="M79.6373 225.59C79.6373 225.59 82.4335 218.189 80.5661 217.248C78.6987 216.326 74.9737 218.169 74.0351 219.101C73.1063 220.022 71.2389 220.022 70.3004 220.022C70.3004 220.022 60.9635 220.022 59.0961 221.875C57.2287 223.728 57.2287 224.65 57.2287 225.581C57.2287 226.502 57.219 230.141 56.2999 232.061C55.9032 232.896 55.371 236.688 57.2287 240.404C59.0864 244.109 60.9635 245.031 61.8923 245.031C62.8212 245.031 63.663 245.031 63.7597 244.109C63.8661 243.111 64.2338 241.7 64.6886 240.404C65.1336 239.165 65.6174 236.698 65.6174 236.698C65.6174 236.698 66.5463 232.071 68.4136 230.218C70.281 228.365 70.281 228.365 74.0061 227.443C77.7699 226.531 78.7084 228.365 79.6373 225.59Z" fill="#170856"/>
<path d="M67.0476 232.359C68.4312 233.934 66.5638 236.708 66.5638 236.708C66.5638 236.708 63.7676 237.63 63.7676 234.855C63.7676 232.081 65.6543 230.775 67.0476 232.359Z" fill="#FFBF99"/>
<path d="M48.3558 271.336C48.3558 271.336 44.8533 284.709 45.4628 293.09C46.0724 301.462 48.5784 308.72 50.3974 313.769C52.2164 318.819 53.2904 320.029 53.3581 323.206C53.4258 326.384 54.9255 330.147 56.7832 332.039C58.6409 333.93 60.131 334.871 60.131 334.871C60.131 334.871 62.337 335.888 61.9887 333.853C61.9887 333.853 63.469 333.968 62.9079 332.835C62.9079 332.835 64.8817 332.874 63.44 331.328C61.9984 329.773 59.3376 328.275 59.3376 328.275C59.3376 328.275 57.8185 325.866 59.9858 327.075C62.1532 328.275 64.0496 328.323 62.0467 326.365C60.0342 324.406 57.7121 320.979 56.0092 314.71C54.3063 308.451 52.2841 296.076 54.6933 286.572C57.1025 277.067 60.1503 273.899 60.1503 273.899L48.3558 271.336Z" fill="#FFBF99"/>
<path d="M40.1044 415.293C40.1044 415.293 41.9621 420.468 44.023 422.848C46.0839 425.229 47.7094 426.967 47.7094 426.967C47.7094 426.967 50.1089 430.778 47.3997 429.645C44.7003 428.513 29.7612 418.557 29.7612 418.557C29.7612 418.557 27.6326 417.463 28.6195 415.658C29.6064 413.853 32.1124 410.358 32.1124 410.358L40.1044 415.293Z" fill="#170856"/>
<path d="M67.5438 426.842C67.5438 426.842 66.9923 428.349 70.1272 428.349C73.2621 428.349 90.3588 428.349 90.3588 428.349C90.3588 428.349 93.6485 427.696 90.62 426.237C87.5722 424.778 78.4579 420.707 78.4579 420.707C78.4579 420.707 77.7612 420.525 77.7806 418.787H67.4277L67.5438 426.842Z" fill="#170856"/>
<path d="M62.9781 262.428C62.9781 262.428 63.636 256.216 59.0788 255.621C54.5216 255.026 51.6287 261.055 50.1096 264.972C48.5905 268.889 47.8262 271.759 47.8262 271.759C47.8262 271.759 57.6275 275.676 60.2109 275.676C60.2206 275.676 62.3975 269.167 62.9781 262.428Z" fill="#0064B7"/>
<path d="M348.08 264.971C348.08 264.971 351.583 263.013 349.445 254.785C347.316 246.567 345.187 245.195 348.08 239.319C350.973 233.434 360.243 231.764 373.469 232.301C386.695 232.839 390.198 245.78 388.679 251.454C387.16 257.137 375.143 263.618 367.838 262.706C360.533 261.793 357.204 261.352 357.204 261.352C357.204 261.352 354.766 265.422 348.08 264.971Z" fill="#0064E1"/>
<path d="M362.808 249.13C363.887 249.13 364.762 248.262 364.762 247.191C364.762 246.12 363.887 245.252 362.808 245.252C361.729 245.252 360.854 246.12 360.854 247.191C360.854 248.262 361.729 249.13 362.808 249.13Z" fill="white"/>
<path d="M368.773 249.13C369.852 249.13 370.727 248.262 370.727 247.191C370.727 246.12 369.852 245.252 368.773 245.252C367.693 245.252 366.818 246.12 366.818 247.191C366.818 248.262 367.693 249.13 368.773 249.13Z" fill="white"/>
<path d="M374.706 249.13C375.786 249.13 376.661 248.262 376.661 247.191C376.661 246.12 375.786 245.252 374.706 245.252C373.627 245.252 372.752 246.12 372.752 247.191C372.752 248.262 373.627 249.13 374.706 249.13Z" fill="white"/>
<path d="M323.162 339.316L304.449 351.144L325.764 343.013L323.162 339.316Z" fill="#FFBF99"/>
<path d="M331.881 367.916C331.881 367.916 352.78 369.144 343.685 370.354C334.59 371.583 322.06 371.583 317.629 371.093C313.198 370.594 328.446 368.156 331.881 367.916Z" fill="#90A7CB"/>
<path d="M327.945 346.007L322.101 343.991L283.583 358.036C283.583 358.036 278.667 360.715 278.29 366.331C277.913 371.938 276.084 421.821 276.084 421.821H283.341L288.256 381.701L290.22 366.571L299.073 361.569L321.685 350.107L327.945 346.007Z" fill="#003EB0"/>
<path d="M343.529 346.853C344.806 351.317 346.771 364.431 340.346 367.474C340.075 367.599 339.785 367.695 339.485 367.743L304.159 373.244C303.995 373.263 303.84 373.292 303.676 373.292C303.066 373.292 301.179 373.494 302.021 375.855C302.853 378.246 313.274 406.644 316.312 414.938C316.796 416.263 318.673 420.074 317.483 420.852L314.019 424.212C312.529 425.191 309.897 420.151 309.026 418.606L285.902 377.497C285.834 377.372 285.757 377.228 285.718 377.075C285.176 375.654 282.825 368.242 290.362 364.517C297.899 360.773 320.618 349.215 325.01 346.968C325.494 346.719 327.536 345.538 328.077 345.557L340.598 347.439C341.894 347.506 343.162 345.595 343.529 346.853Z" fill="#0064E1"/>
<path d="M262.563 342.465C262.563 342.446 262.554 342.417 262.554 342.398C262.505 342.11 262.176 339.998 263.666 339.998H271.388C271.668 339.998 271.891 339.777 271.891 339.498V334.113C271.891 333.796 271.629 333.537 271.31 333.537L256.429 333.421C256.39 333.421 256.371 333.421 256.332 333.412C256.042 333.364 254.6 332.989 254.049 330.388C254.049 330.378 254.049 330.368 254.039 330.34L251.021 309.699C250.962 309.257 250.972 308.816 251.117 308.393C251.388 307.539 252.172 306.454 254.417 306.454C257.706 306.454 281.682 306.358 286.868 306.339C288.02 306.339 289.103 306.934 289.655 307.933C290.032 308.605 290.371 309.593 290.564 310.966C291.126 314.95 292.993 327.805 293.341 330.119C293.38 330.397 293.38 330.676 293.322 330.954C293.119 331.856 292.461 333.671 290.323 333.767C287.865 333.873 278.17 333.517 275.674 333.431C275.345 333.421 275.084 333.681 275.074 333.988L275.026 339.652C275.026 339.969 275.287 340.228 275.606 340.228L283.888 340.286C283.927 340.286 283.975 340.286 284.004 340.295C284.227 340.353 284.933 340.631 284.924 341.495C284.904 343.108 284.866 342.782 284.866 342.782L263.125 342.954C262.844 342.954 262.612 342.743 262.573 342.465H262.563Z" fill="#0064B7"/>
<path d="M340.088 295.146C340.088 295.146 345.903 292.631 348.447 300.349C348.447 300.349 350.16 305.63 351.398 307.185C352.637 308.721 355.898 309.786 355.898 309.786C355.898 309.786 358.926 311.323 358.761 315.806C358.597 320.27 358.181 324.341 356.555 327.105C355.317 329.179 355.994 330.571 356.391 331.128C356.594 331.406 356.672 331.742 356.652 332.088C356.585 332.962 356.11 334.373 353.856 334.43C350.576 334.517 346.338 335.851 346.996 332.693C347.654 329.525 348.854 313.79 348.854 313.79L346.396 307.607L342.623 305.169L340.823 303.94C340.823 303.94 336.498 298.41 336.498 297.133C336.498 295.837 340.088 295.146 340.088 295.146Z" fill="#170856"/>
<path d="M336.148 295.308L331.485 292.956L331.32 285.641L329.192 283.039L325.254 284.182L320.01 284.018H315.907C315.907 284.018 316.401 295.241 320.493 299.619C320.493 299.619 325.322 300.598 327.131 299.369C327.131 299.369 329.26 297.507 329.26 300.761C329.26 304.016 329.588 307.837 329.588 307.837C329.588 307.837 331.059 310.438 336.642 308C336.642 308 339.67 306.377 340.822 303.929" fill="#FFBF99"/>
<path d="M318.857 275.349C318.857 275.349 329.8 266.325 336.563 275.349C343.326 284.373 342.098 291.084 340.25 293.033C340.25 293.033 334.386 299.283 329.858 292.601C329.858 292.601 328.978 291.478 329.548 289.202C329.548 289.202 331.261 284.201 326.965 285.381C322.659 286.562 318.973 286.524 317.377 284.777C315.78 283.029 315.122 284.94 315.2 285.516C315.287 286.092 314.542 289.75 312.365 286.418C310.188 283.087 312.945 277.144 315.354 275.56C315.374 275.56 317.454 274.418 318.857 275.349Z" fill="#170856"/>
<path d="M339.716 293.129C339.716 293.129 340.297 294.963 340.161 295.318C340.161 295.318 337.656 297.152 337.007 297.229C337.007 297.229 336.069 295.721 336.233 295.117C336.224 295.126 339.426 293.216 339.716 293.129Z" fill="#EA4E59"/>
<path d="M340.654 303.92C340.722 303.853 340.838 303.93 340.935 303.92C341.961 303.805 348.714 303.421 349.517 312.435C350.272 320.922 345.231 343.291 343.896 348.446L319.978 344.798C320.423 342.619 321.071 337.627 321.071 336.647C321.071 336.647 322.126 327.038 322.329 324.253C322.368 323.831 322.213 323.418 321.913 323.111C320.829 321.959 318.314 318.656 320.636 315.076C320.636 315.076 325.677 306.781 329.237 305.014C329.247 304.986 332.953 311.379 340.654 303.92Z" fill="#FCBE42"/>
<path d="M336.759 325.021C337.039 323.984 338.191 323.437 339.178 323.888L343.009 325.616C343.512 325.837 343.88 326.279 343.996 326.816L344.161 327.508C344.257 327.892 344.209 328.305 344.035 328.66L339.971 337.002C339.855 337.252 339.758 337.502 339.7 337.761C339.497 338.586 338.607 340.602 334.843 339.623L311.109 333.671C311.041 333.652 305.971 331.828 305.913 331.809C305.4 331.607 304.907 331.809 304.771 333.441C304.713 334.132 302.933 332.077 303.349 330.628C303.349 330.628 304.597 327.796 311.235 329.38L329.463 333.018C329.512 333.028 329.56 333.037 329.609 333.057C330.092 333.201 333.053 333.93 333.837 331.578L336.643 325.28C336.701 325.184 336.72 325.098 336.759 325.021Z" fill="#FFBF99"/>
<path d="M347.604 307.012C348.059 307.338 348.32 307.876 348.446 308.404C348.765 309.604 348.823 311.072 348.552 312.292C348.068 314.481 345.543 325.761 344.285 328.103C344.285 328.103 340.25 325.242 336.729 325.079C336.729 325.079 338.654 317.226 340.599 311.927C340.608 311.908 343.559 304.093 347.604 307.012Z" fill="#F79F03"/>
<path d="M283.328 421.821L283.579 427.975C283.579 427.975 283.753 428.906 279.951 428.906C276.139 428.906 266.26 428.897 266.26 428.897C266.26 428.897 263.919 427.917 266.628 427.063C266.628 427.063 272.646 425.229 276.09 421.812L283.328 421.821Z" fill="#170856"/>
<path d="M309.947 339.259L300.484 339.317V335.169C300.484 335.169 300.049 334.017 301.897 333.883C303.745 333.768 308.66 333.998 308.66 333.998C308.66 333.998 310.015 334.113 310.015 335.697C310.005 337.291 309.947 339.259 309.947 339.259Z" fill="#EE384E"/>
<path d="M309.231 338.97C309.231 338.97 312.752 338.663 313.014 340.419C313.323 342.416 312.346 342.896 310.624 342.954C308.911 343.012 298.636 342.8 298.636 342.8C298.636 342.8 296.652 342.522 296.73 341.101C296.817 339.642 297.223 339.085 299.129 339.085C301.035 339.085 309.231 338.97 309.231 338.97Z" fill="#000036"/>
<path d="M285.592 342.628L312.016 342.791C312.123 342.791 312.22 342.801 312.326 342.81C313.032 342.82 314.938 343.233 314.938 344.749C314.938 346.535 313.622 347.025 311.329 347.025H250.49C249.774 347.025 249.087 346.756 248.554 346.276C247.858 345.661 247.084 343.789 248.603 342.849C249.028 342.58 249.532 342.474 250.035 342.474L285.592 342.628Z" fill="#023EA1"/>
<path d="M269.193 346.852L251.826 361.982C251.826 361.982 248.71 364.747 248.545 371.093C248.381 377.439 247.394 429.299 247.394 429.299C247.394 429.299 247.065 432.228 252.803 432.228H290.17C290.17 432.228 291.64 432.228 291.805 430.442C291.969 428.656 290.489 428.819 289.347 428.819L251.158 428.983L251.487 371.909C251.487 371.909 250.5 367.032 257.553 361.339L273.305 346.89L269.193 346.852Z" fill="#023EA1"/>
<path d="M330.1 371.276L330.158 424.75C330.158 424.75 338.518 424.999 339.998 426.938C341.469 428.887 339.747 430.107 331.145 429.867C322.544 429.617 317.377 429.617 317.377 429.617C317.377 429.617 313.197 429.127 318.122 426.689C323.037 424.25 326.975 424.99 326.975 424.99L327.468 371.333L330.1 371.276Z" fill="#023EA1"/>
<path d="M317.133 417.184C317.133 417.184 321.932 421.696 319.097 423.77L306.558 433.649C306.558 433.649 304.71 434.138 305.087 432.065L310.621 421.456L317.133 417.184Z" fill="#180756"/>
<path d="M141.766 49.0237C146.11 49.0237 149.632 45.5292 149.632 41.2186C149.632 36.908 146.11 33.4136 141.766 33.4136C137.421 33.4136 133.899 36.908 133.899 41.2186C133.899 45.5292 137.421 49.0237 141.766 49.0237Z" stroke="#003EB0" stroke-miterlimit="10"/>
<path d="M138.339 34.2579L112.814 27.1729" stroke="#003EB0" stroke-miterlimit="10"/>
<path d="M133.831 41.9771L106.72 43.7147" stroke="#003EB0" stroke-miterlimit="10"/>
<path d="M138.522 48.5337L113.966 60.0733" stroke="#003EB0" stroke-miterlimit="10"/>
<path d="M251.255 251.435C297.702 251.435 335.355 214.075 335.355 167.989C335.355 121.903 297.702 84.543 251.255 84.543C204.808 84.543 167.155 121.903 167.155 167.989C167.155 214.075 204.808 251.435 251.255 251.435Z" stroke="#003EB0" stroke-miterlimit="10" stroke-dasharray="6 6"/>
<path d="M329.856 154.557C336.151 154.557 341.254 149.494 341.254 143.248C341.254 137.002 336.151 131.939 329.856 131.939C323.561 131.939 318.458 137.002 318.458 143.248C318.458 149.494 323.561 154.557 329.856 154.557Z" stroke="#DE051F" stroke-miterlimit="10"/>
<path d="M322.009 134.897C322.009 134.897 302.106 129.626 308.995 136.577C315.884 143.527 339.096 153.531 343.76 154.587C348.423 155.624 351.345 153.723 349.884 151.227C348.423 148.74 341.128 144.679 341.128 144.679" stroke="#DE051F" stroke-miterlimit="10"/>
<path d="M260.69 160.357L263.176 154.568L266.524 159.657L271.884 160.434L268.633 164.37L269.088 170.38L264.038 167.759L259.064 170.85L259.606 164.601L254.855 160.818L260.69 160.357Z" fill="#003EB0"/>
<path d="M269.445 7.78898L271.922 2L275.269 7.09776L280.639 7.86578L277.379 11.7923L277.833 17.8213L272.783 15.2004L267.809 18.2821L268.351 12.0323L263.601 8.24979L269.445 7.78898Z" stroke="#DE051F" stroke-miterlimit="10"/>
<path d="M63.9809 119.45C69.1696 119.45 73.3758 115.277 73.3758 110.129C73.3758 104.98 69.1696 100.807 63.9809 100.807C58.7922 100.807 54.5859 104.98 54.5859 110.129C54.5859 115.277 58.7922 119.45 63.9809 119.45Z" stroke="#DE051F" stroke-miterlimit="10"/>
<path d="M61.0807 115.494C62.2616 115.494 63.219 114.544 63.219 113.373C63.219 112.201 62.2616 111.251 61.0807 111.251C59.8997 111.251 58.9424 112.201 58.9424 113.373C58.9424 114.544 59.8997 115.494 61.0807 115.494Z" stroke="#DE051F" stroke-miterlimit="10"/>
<path d="M66.4206 110.223C67.3076 110.223 68.0267 109.51 68.0267 108.63C68.0267 107.75 67.3076 107.036 66.4206 107.036C65.5336 107.036 64.8145 107.75 64.8145 108.63C64.8145 109.51 65.5336 110.223 66.4206 110.223Z" stroke="#DE051F" stroke-miterlimit="10"/>
<path d="M61.4648 107.238C62.1595 107.238 62.7227 106.679 62.7227 105.99C62.7227 105.3 62.1595 104.742 61.4648 104.742C60.7702 104.742 60.207 105.3 60.207 105.99C60.207 106.679 60.7702 107.238 61.4648 107.238Z" stroke="#DE051F" stroke-miterlimit="10"/>
<path d="M120.27 158.533C128.697 158.533 135.528 151.755 135.528 143.394C135.528 135.032 128.697 128.254 120.27 128.254C111.843 128.254 105.012 135.032 105.012 143.394C105.012 151.755 111.843 158.533 120.27 158.533Z" stroke="#003EB0" stroke-miterlimit="10"/>
<path d="M112.056 130.607C112.056 130.607 112.985 134.082 117.193 130.136C117.193 130.136 119.535 128.168 119.99 130.482C120.464 132.805 119.061 133.371 118.587 133.611C118.113 133.842 115.432 134.312 115.432 134.312C115.432 134.312 113.333 136.28 115.2 137.087C117.068 137.893 117.764 136.616 117.764 136.616C117.764 136.616 119.748 136.271 120.106 137.538C120.464 138.805 121.741 138.988 122.786 137.596C123.831 136.203 124.421 137.596 124.653 138.575C124.885 139.554 125.301 139.784 126.23 139.381C127.159 138.968 127.566 138.46 127.807 138.623C128.04 138.796 128.678 139.266 128.91 140.36C129.143 141.455 131.01 140.36 131.533 140.072C132.065 139.784 133.4 139.151 133.4 139.151L134.213 138.114L134.445 137.586" stroke="#003EB0" stroke-miterlimit="10"/>
<path d="M105.978 138.536C105.978 138.536 107.38 140.331 108.261 140.562C109.132 140.792 110.128 140.034 110.428 139.861C110.719 139.688 112.005 139.919 112.238 140.84C112.47 141.762 113.05 142.165 113.873 141.819C114.686 141.474 115.15 139.967 116.321 140.725C117.482 141.483 117.656 142.05 117.482 142.693C117.308 143.336 114.86 144.604 114.095 144.719C113.331 144.834 112.17 145.64 112.17 145.64C112.17 145.64 110.767 146.62 111.88 147.848C112.992 149.077 113.921 148.549 113.921 148.549C113.921 148.549 115.556 147.1 116.485 146.812C117.414 146.524 118.827 146.005 119.223 147.224C119.62 148.434 118.991 149.49 118.004 149.826C117.017 150.172 115.44 150.412 115.034 150.69C114.618 150.978 112.75 151.218 113.283 152.658C113.815 154.108 115.266 154.223 116.437 153.983C117.598 153.753 117.598 153.925 117.598 155.02C117.598 156.114 117.482 157.967 117.482 157.967" stroke="#003EB0" stroke-miterlimit="10"/>
<path d="M135.536 143.394C135.536 143.394 129.025 145.074 128.434 146.111C128.434 146.111 126.973 147.148 127.786 148.194C127.786 148.194 128.134 149.817 130.011 148.895C131.879 147.973 134.027 148.089 134.211 148.607C134.385 149.135 134.627 148.549 134.627 148.549" stroke="#003EB0" stroke-miterlimit="10"/>
<path d="M356.774 72.8891C349.866 70.393 344.922 63.8168 344.922 56.0981" stroke="#003EB0" stroke-miterlimit="10"/>
<path d="M380.592 52.5068C380.825 53.6589 380.96 54.8589 380.96 56.0877C380.96 64.68 374.845 71.8514 366.698 73.5699" stroke="#003EB0" stroke-miterlimit="10"/>
<path d="M347.457 46.9391C350.611 41.7165 356.359 38.2124 362.938 38.2124C368.172 38.2124 372.875 40.4205 376.164 43.9534" stroke="#003EB0" stroke-miterlimit="10"/>
<path d="M351.978 58.6984C350.827 54.2535 352.51 49.3765 356.535 46.6309" stroke="#003EB0" stroke-miterlimit="10"/>
<path d="M371.087 63.7095C370.574 64.2471 369.984 64.7367 369.345 65.1687C364.856 68.2216 358.935 67.6264 355.151 64.0647" stroke="#003EB0" stroke-miterlimit="10"/>
<path d="M362.214 44.682C366.055 44.4324 369.935 46.1509 372.276 49.5494C374.134 52.2279 374.647 55.4344 373.979 58.3913" stroke="#003EB0" stroke-miterlimit="10"/>
<path d="M362.935 62.7885C366.772 62.7885 369.882 59.7024 369.882 55.8955C369.882 52.0886 366.772 49.0024 362.935 49.0024C359.099 49.0024 355.988 52.0886 355.988 55.8955C355.988 59.7024 359.099 62.7885 362.935 62.7885Z" stroke="#003EB0" stroke-miterlimit="10"/>
<path d="M219.547 443.614C229.064 443.614 236.779 441.138 236.779 438.084C236.779 435.03 229.064 432.554 219.547 432.554C210.03 432.554 202.314 435.03 202.314 438.084C202.314 441.138 210.03 443.614 219.547 443.614Z" fill="#F2F2F2"/>
<path d="M187.918 377.937C187.918 377.937 192.02 376.276 191.71 371.6C191.401 366.925 188.972 363.613 193.994 364.967C199.015 366.32 200.689 366.925 204.337 366.167C207.985 365.408 211.013 363.901 209.417 368.576C207.82 373.252 206.098 377.169 209.852 377.927C213.606 378.685 217.621 375.863 218.115 383.188C218.599 390.513 212.648 398.731 203.021 399.038C193.394 399.345 189.137 395.39 189.137 395.39C189.137 395.39 186.553 391.771 190.578 390.887C194.613 390.004 198.715 388.295 196.655 386.433C194.594 384.57 187.918 384.417 187.918 384.417C187.918 384.417 179.558 382.766 187.918 377.937Z" fill="#649EEA"/>
<path d="M231.923 379.155C231.246 374.49 231.769 371.129 240.506 369.862C249.243 368.605 254.342 373.808 254.864 379.155C255.396 384.512 247.801 386.452 247.801 386.452C247.801 386.452 242.402 387.978 245.14 392.653C247.878 397.329 249.117 401.85 242.905 402.532C236.703 403.204 229.901 401.591 226.118 399.076C222.335 396.57 218.455 390.234 222.79 386.922C222.79 386.922 223.999 386.096 228.189 385.856C232.368 385.636 231.923 379.155 231.923 379.155Z" fill="#023EA1"/>
<path d="M201.174 378.396C201.174 378.396 208.43 394.679 209.427 405.767" stroke="#023EA1" stroke-miterlimit="10"/>
<path d="M241.514 381.065C241.514 381.065 228.665 399.997 225.637 406.324" stroke="#649EEA" stroke-miterlimit="10"/>
<path d="M204.937 404.48H234.418C234.418 404.48 237.65 404.701 237.379 409.079C237.128 413.102 231.98 412.238 229.329 412.238C226.678 412.238 204.308 412.238 204.308 412.238C204.308 412.238 200.69 412.852 200.69 408.772C200.68 404.701 202.044 404.48 204.937 404.48Z" fill="#0054A5"/>
<path d="M204.296 412.24L208.766 438.084H228.552L231.92 418.692L204.335 412.24H204.296Z" fill="#0054A5"/>
<path d="M204.335 412.24L231.92 418.692L233.023 412.24H204.335Z" fill="#006AD5"/>
<path d="M217.023 405.46C217.023 405.46 218.513 376.784 227.134 358.783" stroke="#FCBE42" stroke-miterlimit="10"/>
<path d="M234.217 348.434C234.217 348.434 234.933 357.238 226.264 360.684C226.274 360.674 224.387 353.167 234.217 348.434Z" fill="#FCBE42"/>
<path d="M221.223 376.457C221.223 376.457 224.406 368.949 234.227 369.948C234.236 369.948 233.462 377.436 221.223 376.457Z" fill="#FCBE42"/>
<path d="M217.993 395.351C217.993 395.351 219.638 387.363 229.468 386.451C229.468 386.451 230.194 393.939 217.993 395.351Z" fill="#FCBE42"/>
<path d="M217.663 395.399C217.663 395.399 218.804 387.325 209.854 383.197C209.845 383.197 206.652 390.023 217.663 395.399Z" fill="#FCBE42"/>
<path d="M221.328 376.4C221.328 376.4 223.495 368.538 215.145 363.315C215.145 363.315 211.091 369.67 221.328 376.4Z" fill="#FCBE42"/>
</svg>
