<svg width="460" height="422" viewBox="0 0 460 422" fill="none" xmlns="http://www.w3.org/2000/svg">
<path d="M246.033 304.214C246.033 304.214 246.178 298.629 250.721 298.422C255.264 298.205 259.146 303.843 257.184 307.343C255.222 310.843 252.135 310.802 253.426 313.59C254.716 316.377 257.112 324.679 253.023 326.072C248.945 327.466 246.085 323.656 243.111 328.674C240.138 333.703 244.98 342.375 236.307 342.758C227.634 343.14 212.89 339.928 219.395 327.033C225.889 314.157 231.434 326.392 233.715 315.51C235.997 304.627 239.559 309.284 243.121 308.592C246.684 307.901 246.033 304.214 246.033 304.214Z" stroke="#023EA1" stroke-miterlimit="10"/>
<path d="M246.868 313.651C246.868 313.651 235.882 323.553 229.264 335.302C222.646 347.052 222.955 350.573 222.955 350.573" stroke="#023EA1" stroke-miterlimit="10"/>
<path d="M215.317 293.073C215.317 293.073 215.337 297.337 218.208 299.981C221.078 302.624 222.833 304.431 219.87 306.423C216.907 308.416 213.902 310.213 215.141 313.837C216.38 317.471 223.236 324.761 218.156 329.118C213.076 333.475 204.476 338.472 199.788 331.75C195.101 325.029 192.447 325.163 192.075 319.154C191.704 313.145 198.436 314.25 197.981 309.046C197.527 303.832 193.841 302.025 199.21 299.764C204.569 297.503 205.601 299.227 203.361 293.311C201.13 287.395 208.523 286.62 211.879 287.787C215.224 288.943 215.317 293.073 215.317 293.073Z" stroke="#DE051F" stroke-miterlimit="10"/>
<path d="M209.267 300.714C209.267 300.714 202.215 321.828 202.039 336.128" stroke="#DE051F" stroke-miterlimit="10"/>
<path d="M214.26 348.126C214.26 348.126 219.608 318.442 230.893 300.807" stroke="#FCBE42" stroke-miterlimit="10"/>
<path d="M239.597 290.957C239.597 290.957 239.163 300.229 229.757 302.666C229.747 302.666 228.807 294.581 239.597 290.957Z" fill="#FCBE42"/>
<path d="M222.457 318.452C222.457 318.452 226.752 311.049 236.767 313.383C236.757 313.383 234.971 321.075 222.457 318.452Z" fill="#FCBE42"/>
<path d="M216.611 337.708C216.611 337.708 219.368 329.603 229.662 329.934C229.652 329.934 229.404 337.842 216.611 337.708Z" fill="#FCBE42"/>
<path d="M216.251 337.719C216.251 337.719 218.502 329.459 209.788 323.986C209.798 323.986 205.575 330.667 216.251 337.719Z" fill="#FCBE42"/>
<path d="M222.571 318.402C222.571 318.402 225.854 310.483 217.914 303.947C217.914 303.957 212.886 310.049 222.571 318.402Z" fill="#FCBE42"/>
<path d="M283.263 333.093H145.074C141.791 333.093 139.127 335.757 139.127 339.04V380.371C139.127 383.654 141.791 386.318 145.074 386.318H289.21V339.04C289.21 335.757 286.546 333.093 283.263 333.093Z" fill="#B0E6FF"/>
<path d="M172.142 376.097C180.662 376.097 187.568 369.191 187.568 360.672C187.568 352.152 180.662 345.246 172.142 345.246C163.623 345.246 156.717 352.152 156.717 360.672C156.717 369.191 163.623 376.097 172.142 376.097Z" fill="#0064B7"/>
<mask id="mask0_2139_41093" style="mask-type:luminance" maskUnits="userSpaceOnUse" x="156" y="345" width="32" height="32">
<path d="M172.142 376.098C180.662 376.098 187.568 369.191 187.568 360.672C187.568 352.153 180.662 345.247 172.142 345.247C163.623 345.247 156.717 352.153 156.717 360.672C156.717 369.191 163.623 376.098 172.142 376.098Z" fill="white"/>
</mask>
<g mask="url(#mask0_2139_41093)">
<path d="M184.899 375.694C184.899 375.694 186.396 383.965 186.51 386.154C186.634 388.332 186.851 389.995 185.415 390.872C183.97 391.729 181.616 392.534 181.616 392.534L178.684 377.759V376.035L184.899 375.694Z" fill="#FFBF99"/>
<path d="M159.554 375.23C159.554 375.23 158.749 378.967 158.522 380.857C158.295 382.746 157.768 386.432 157.716 387.3C157.654 388.157 157.551 389.602 159.1 390.696C160.649 391.791 162.311 392.421 162.311 392.421L165.481 375.23H159.554Z" fill="#FFBF99"/>
<path d="M170.912 363.346C170.912 363.346 170.912 365.07 170.179 365.814C169.446 366.557 168.455 367.775 168.455 367.775C168.455 367.775 170.179 370.48 173.618 370.109C177.056 369.737 177.675 367.28 177.675 367.28C177.675 367.28 174.413 366.846 174.041 363.78C173.669 360.713 173.184 360.713 173.184 360.713L170.912 363.346Z" fill="#FFB07E"/>
<path d="M168.835 366.526C168.835 366.526 166.481 366.237 165.221 366.588C163.961 366.929 163.559 366.712 163.899 367.682C164.24 368.653 165.975 373.144 165.159 375.953C164.354 378.771 163.27 393.185 163.27 393.185C163.27 393.185 172.004 393.526 175.401 393.701C178.798 393.866 181.318 393.236 181.318 393.236C181.318 393.236 182.071 387.031 181.318 384.336C180.564 381.631 179.593 377.037 179.593 377.037C179.593 377.037 178.963 370.718 179.82 369.169C180.677 367.62 181.318 367.558 180.223 367.156C179.129 366.753 177.921 366.402 177.053 366.402C176.186 366.402 175.732 366.402 175.215 366.918C174.699 367.434 173.667 368.467 172.232 368.24C170.786 368.013 169.712 367.042 169.712 367.042C169.712 367.042 169.237 366.588 168.835 366.526Z" fill="#243641"/>
<path d="M164.664 367.021C164.664 367.021 163.858 366.619 162.65 367.651C161.349 368.756 160.41 371.151 159.945 372.648C159.481 374.146 159.191 375.632 159.191 375.632C159.191 375.632 160.854 376.489 162.588 376.551C164.313 376.613 165.459 376.716 165.459 376.716C165.459 376.716 166.212 372.225 166.027 370.222C165.861 368.209 165.583 367.527 164.664 367.021Z" fill="#8EAACF"/>
<path d="M179.162 368.683C179.162 368.683 179.854 366.794 181.402 367.651C182.951 368.508 184.108 371.791 184.448 372.834C184.789 373.866 185.254 375.942 185.254 375.942C185.254 375.942 183.416 376.747 181.857 376.861C180.298 376.964 179.214 377.088 179.214 377.088C179.214 377.088 178.584 373.009 178.697 371.399C178.811 369.778 179.162 368.683 179.162 368.683Z" fill="#8EAACF"/>
<path d="M176.613 359.556C176.819 356.985 176.778 353.062 172.359 353.062H172.348H172.338C167.909 353.062 167.888 356.985 168.084 359.556C167.774 358.947 166.886 359.143 166.948 360.093C167.021 361.023 168.28 361.497 168.27 361.394C168.631 363.511 170.707 364.729 172.328 364.729H172.338H172.348C173.969 364.729 176.055 363.501 176.406 361.394C176.396 361.497 177.655 361.023 177.728 360.093C177.81 359.123 176.912 358.947 176.613 359.556Z" fill="#FFBF99"/>
<path d="M168.12 359.486C168.12 359.475 168.12 359.464 168.12 359.453C168.12 359.464 168.12 359.464 168.109 359.475C168.109 359.464 168.12 359.486 168.12 359.486Z" fill="#915F41"/>
<path d="M177.548 355.643C177.476 354.756 177.135 353.671 176.619 352.969C176.392 352.67 175.442 351.544 176.154 351.235C175.824 350.822 175.349 351.307 175.266 351.679C175.246 351.803 175.081 352.112 175.091 352.205C174.957 351.348 175.07 350.698 174.255 350.202C172.943 349.418 171.622 351.266 170.341 351.317C169.722 351.348 168.607 351.596 168.442 350.688C168.431 350.657 168.183 351.008 168.163 351.059C168.101 351.214 168.08 351.4 168.111 351.555C168.163 351.854 168.4 352.381 168.731 352.381C168.297 352.381 168.039 352.36 167.812 351.927C167.719 352.185 167.905 352.36 168.018 352.546C167.791 352.567 167.368 352.143 167.296 351.916C167.058 352.205 167.203 352.629 167.358 352.928C167.409 353.021 168.08 353.599 168.091 353.506C167.998 354.363 167.626 355.2 167.44 356.046C167.337 356.5 167.688 357.698 167.812 357.533C167.822 357.791 168.101 359.195 168.122 359.453C168.266 359.092 168.38 358.72 168.462 358.318C168.493 358.142 168.555 357.956 168.596 357.781C168.648 357.471 168.689 357.223 168.762 356.913C168.772 356.882 168.772 356.841 168.782 356.821C169.144 355.53 170.166 355.385 171.343 355.623C171.374 355.633 171.426 355.633 171.467 355.643C172.179 355.747 172.964 355.592 173.573 355.21C173.934 354.983 174.255 354.766 174.523 354.435C174.533 354.415 174.554 354.384 174.575 354.363C174.668 354.219 174.781 354.043 174.884 353.971C174.957 354.343 174.874 354.673 175.101 354.993C175.328 355.292 175.504 355.612 175.648 355.943C175.948 356.614 176.381 358.101 176.474 358.121C176.547 358.596 176.598 359.061 176.619 359.443L176.629 359.567C176.629 359.536 176.64 359.495 176.64 359.464C176.671 359.071 176.867 357.967 176.887 357.523C177.094 357.605 177.61 356.418 177.548 355.643Z" fill="#915F41"/>
</g>
<path d="M188.016 218.486H305.71C308.993 218.486 311.657 221.15 311.657 224.433V271.598C311.657 274.881 308.993 277.545 305.71 277.545H182.068V224.433C182.068 221.15 184.732 218.486 188.016 218.486Z" fill="#B0E6FF"/>
<path d="M209.808 266.208C219.263 266.208 226.927 258.543 226.927 249.089C226.927 239.635 219.263 231.97 209.808 231.97C200.354 231.97 192.689 239.635 192.689 249.089C192.689 258.543 200.354 266.208 209.808 266.208Z" fill="#0064B7"/>
<mask id="mask1_2139_41093" style="mask-type:luminance" maskUnits="userSpaceOnUse" x="192" y="231" width="35" height="36">
<path d="M209.808 266.207C219.263 266.207 226.927 258.543 226.927 249.088C226.927 239.634 219.263 231.97 209.808 231.97C200.354 231.97 192.689 239.634 192.689 249.088C192.689 258.543 200.354 266.207 209.808 266.207Z" fill="white"/>
</mask>
<g mask="url(#mask1_2139_41093)">
<path d="M205.133 243.007C205.144 243.017 205.154 243.038 205.164 243.059C205.412 242.883 205.701 242.728 206.021 242.594C206.114 242.563 206.207 242.522 206.31 242.491H206.321C206.403 242.47 206.496 242.429 206.579 242.408C206.599 242.398 206.63 242.398 206.651 242.387C206.744 242.367 206.837 242.336 206.94 242.315C206.95 242.315 206.95 242.315 206.961 242.315C207.054 242.295 207.167 242.264 207.26 242.253C207.291 242.243 207.343 242.243 207.384 242.233C207.456 242.222 207.518 242.212 207.591 242.202C207.642 242.191 207.683 242.191 207.725 242.181C207.818 242.171 207.931 242.16 208.024 242.15C208.086 242.15 208.158 242.14 208.21 242.14C208.262 242.14 208.303 242.129 208.355 242.129C208.427 242.129 208.509 242.119 208.582 242.119C208.602 242.119 208.633 242.119 208.664 242.119C208.747 242.119 208.83 242.119 208.922 242.119C209.15 242.119 209.356 242.129 209.563 242.14C209.563 242.14 209.563 242.14 209.573 242.14C213.786 242.387 214.622 245.155 214.663 247.922C215.107 248.015 215.623 248.242 215.675 248.841C215.799 250.369 215.448 249.987 214.529 251.824C214.374 252.145 214.147 252.227 213.92 252.206C213.424 253.27 212.578 254.003 210.822 255.211L211.132 259.124C212.319 258.732 212.639 258.876 212.991 259.031C215.293 260.064 218.112 260.064 216.862 260.301C215.179 260.621 217.048 261.241 218.442 260.095C221.013 257.927 218.814 254.581 218.814 254.581C218.638 257.049 215.592 257.173 215.809 254.829C216.036 252.485 220.61 247.849 218.814 241.954C217.017 236.058 207.436 235.398 205.102 238.474C202.697 241.685 205.133 243.007 205.133 243.007Z" fill="#772635"/>
<path d="M207.28 254.602C207.28 254.602 207.28 256.678 206.392 257.566C205.504 258.453 204.316 259.93 204.316 259.93C204.316 259.93 206.392 263.193 210.532 262.738C214.672 262.294 215.416 259.331 215.416 259.331C215.416 259.331 211.492 258.805 211.048 255.119C210.604 251.412 210.016 251.412 210.016 251.412L207.28 254.602Z" fill="#FFB07E"/>
<path d="M204.795 258.443C204.795 258.443 201.966 258.102 200.438 258.515C198.909 258.928 198.434 258.66 198.847 259.827C199.25 260.993 201.336 266.393 200.376 269.79C199.415 273.187 198.094 290.533 198.094 290.533C198.094 290.533 208.605 290.946 212.683 291.153C216.761 291.359 219.797 290.605 219.797 290.605C219.797 290.605 220.705 283.13 219.797 279.878C218.888 276.625 217.721 271.091 217.721 271.091C217.721 271.091 216.957 263.482 218 261.613C219.033 259.744 219.797 259.672 218.486 259.197C217.174 258.722 215.729 258.288 214.676 258.288C213.633 258.288 213.086 258.288 212.466 258.908C211.847 259.527 210.597 260.777 208.873 260.498C207.149 260.219 205.827 259.042 205.827 259.042C205.827 259.042 205.28 258.515 204.795 258.443Z" fill="#3E4753"/>
<path d="M199.772 259.032C199.772 259.032 198.812 258.546 197.356 259.796C195.797 261.128 194.651 264.008 194.104 265.815C193.557 267.622 193.195 269.408 193.195 269.408C193.195 269.408 195.198 270.441 197.274 270.513C199.349 270.585 200.733 270.72 200.733 270.72C200.733 270.72 201.641 265.33 201.424 262.904C201.228 260.467 200.887 259.651 199.772 259.032Z" fill="#9DCAD1"/>
<path d="M217.202 261.045C217.202 261.045 218.038 258.764 219.907 259.796C221.776 260.828 223.16 264.773 223.573 266.022C223.986 267.271 224.533 269.76 224.533 269.76C224.533 269.76 222.323 270.72 220.455 270.864C218.586 271.009 217.274 271.143 217.274 271.143C217.274 271.143 216.51 266.228 216.655 264.298C216.789 262.346 217.202 261.045 217.202 261.045Z" fill="#9DCAD1"/>
<path d="M203.883 248.118L204.141 248.128L204.626 251.793C204.626 251.793 203.677 252.723 203.243 251.845C202.334 250.007 201.994 250.379 202.128 248.861C202.21 247.849 203.708 247.88 203.708 247.88L203.883 248.118Z" fill="#FFB07E"/>
<path d="M213.938 248.087L213.68 248.108L213.164 251.773C213.164 251.773 214.104 252.692 214.548 251.804C215.456 249.956 215.797 250.338 215.694 248.82C215.611 247.808 214.114 247.839 214.114 247.839L213.938 248.087Z" fill="#FFB07E"/>
<path d="M208.945 242.088C203.204 242.088 203.039 246.26 203.256 249.636C203.472 253.002 206.116 256.089 208.945 256.089C211.505 256.089 214.417 253.002 214.634 249.636C214.85 246.26 214.685 242.088 208.945 242.088Z" fill="#FDCBA7"/>
<path d="M204.886 242.305C204.886 242.305 204.122 239.982 208.365 239.724C212.598 239.476 214.343 241.458 213.827 242.739L204.886 242.305Z" fill="#EE2A7B"/>
<path d="M211.656 245.413C211.656 245.413 207.619 249.636 202.952 250.245C202.952 250.245 201.011 243.183 205.75 241.005C210.5 238.826 213.411 242.089 213.411 242.089C213.411 242.089 217.355 243.008 215.218 249.719C215.229 249.719 211.656 247.365 211.656 245.413Z" fill="#772635"/>
</g>
<path d="M317.892 204.837H147.655C141.088 204.837 135.75 199.509 135.75 192.932V147.296C135.75 140.729 141.078 135.391 147.655 135.391H329.818V192.932C329.797 199.509 324.48 204.837 317.892 204.837Z" fill="#B0E6FF"/>
<path d="M172.425 193.642C185.414 193.642 195.945 183.112 195.945 170.122C195.945 157.132 185.414 146.602 172.425 146.602C159.435 146.602 148.904 157.132 148.904 170.122C148.904 183.112 159.435 193.642 172.425 193.642Z" fill="#0064B7"/>
<mask id="mask2_2139_41093" style="mask-type:luminance" maskUnits="userSpaceOnUse" x="148" y="146" width="48" height="48">
<path d="M172.419 193.641C185.409 193.641 195.939 183.111 195.939 170.121C195.939 157.131 185.409 146.601 172.419 146.601C159.429 146.601 148.898 157.131 148.898 170.121C148.898 183.111 159.429 193.641 172.419 193.641Z" fill="white"/>
</mask>
<g mask="url(#mask2_2139_41093)">
<path d="M170.235 175.419C170.235 175.419 170.235 178.454 168.934 179.766C167.633 181.067 165.898 183.245 165.898 183.245C165.898 183.245 168.934 188.015 175.015 187.365C181.086 186.714 182.181 182.378 182.181 182.378C182.181 182.378 176.43 181.614 175.779 176.183C175.129 170.752 174.251 170.752 174.251 170.752L170.235 175.419Z" fill="#FFB07E"/>
<path d="M166.59 181.045C166.59 181.045 162.439 180.529 160.199 181.148C157.958 181.768 157.256 181.355 157.865 183.079C158.474 184.803 161.52 192.712 160.095 197.668C158.681 202.634 156.75 228.085 156.75 228.085C156.75 228.085 172.165 228.694 178.143 229.004C184.132 229.314 188.582 228.199 188.582 228.199C188.582 228.199 189.903 217.244 188.582 212.484C187.26 207.725 185.536 199.609 185.536 199.609C185.536 199.609 184.421 188.458 185.939 185.722C187.467 182.986 188.571 182.893 186.651 182.17C184.72 181.458 182.593 180.849 181.076 180.849C179.558 180.849 178.742 180.849 177.823 181.768C176.904 182.687 175.087 184.504 172.547 184.101C170.007 183.698 168.087 181.974 168.087 181.974C168.087 181.974 167.302 181.138 166.59 181.045Z" fill="#F7A600"/>
<path d="M159.239 181.902C159.239 181.902 157.824 181.19 155.687 183.017C153.405 184.979 151.732 189.212 150.927 191.835C150.122 194.468 149.605 197.111 149.605 197.111C149.605 197.111 152.548 198.639 155.594 198.732C158.64 198.835 160.663 199.042 160.663 199.042C160.663 199.042 161.985 191.133 161.675 187.591C161.366 184.04 160.87 182.821 159.239 181.902Z" fill="#070707"/>
<path d="M184.793 184.845C184.793 184.845 186.011 181.5 188.748 183.028C191.484 184.556 193.507 190.328 194.116 192.155C194.726 193.993 195.531 197.628 195.531 197.628C195.531 197.628 192.279 199.042 189.543 199.249C186.806 199.455 184.876 199.651 184.876 199.651C184.876 199.651 183.761 192.455 183.957 189.615C184.163 186.786 184.793 184.845 184.793 184.845Z" fill="#070707"/>
<path d="M181.943 169.605C182.17 170.235 181.065 172.042 180.621 172.662C180.807 171.67 181.013 170.307 181.158 168.707C181.158 168.717 181.726 168.996 181.943 169.605Z" fill="#FFBF99"/>
<path d="M181.365 161.48C181.107 155.708 173.374 155.636 173.374 155.636H173.363C173.363 155.636 165.63 155.708 165.372 161.48C165.248 164.05 165.372 166.59 165.578 168.717C165.723 170.328 165.919 171.691 166.115 172.672C166.239 173.312 166.353 173.777 166.445 174.055C166.611 174.51 166.941 175.057 167.354 175.625C168.201 176.791 169.398 178.03 170.245 178.526C170.927 178.939 172.568 179.249 173.363 179.208H173.374C174.148 179.259 175.707 178.96 176.419 178.567C176.44 178.557 176.471 178.547 176.492 178.536C177.338 178.02 178.536 176.802 179.383 175.635C179.796 175.067 180.116 174.52 180.291 174.066C180.384 173.808 180.508 173.333 180.622 172.682C180.807 171.691 181.014 170.328 181.159 168.728C181.365 166.58 181.468 164.04 181.365 161.48Z" fill="#FFBF99"/>
<path d="M165.569 168.718C165.714 170.329 165.91 171.691 166.106 172.672C165.662 172.053 164.557 170.256 164.784 169.616C165.011 168.997 165.569 168.718 165.569 168.718Z" fill="#FFBF99"/>
<path d="M182.66 161.48C182.515 159.911 181.885 158.021 180.925 156.762C180.512 156.225 178.726 154.253 180.068 153.705C179.449 152.972 178.561 153.829 178.416 154.49C178.365 154.697 178.055 155.254 178.096 155.419C177.859 153.922 178.065 152.756 176.547 151.909C174.121 150.525 171.653 153.767 169.258 153.871C168.102 153.933 166.037 154.346 165.706 152.776C165.696 152.714 165.231 153.334 165.19 153.416C165.097 153.674 165.045 154.025 165.097 154.294C165.19 154.82 165.634 155.719 166.243 155.75C165.448 155.75 164.952 155.719 164.529 154.965C164.364 155.43 164.694 155.698 164.911 156.059C164.498 156.111 163.693 155.357 163.569 154.955C163.125 155.471 163.393 156.214 163.693 156.731C163.786 156.896 165.035 157.908 165.066 157.763C164.901 159.271 164.199 160.737 163.848 162.213C163.662 163.008 163.476 163.875 163.6 164.712C163.734 165.662 164.054 166.756 164.323 167.675C164.767 169.141 165.334 169.854 165.489 170.163C165.582 169.823 165.83 169.131 165.923 168.769C166.336 167.128 165.892 165.404 166.305 163.762C166.924 161.336 168.876 161.036 171.127 161.48C172.521 161.738 174.09 161.47 175.298 160.768C175.969 160.375 176.547 159.993 177.064 159.415C177.28 159.178 177.508 158.744 177.745 158.61C177.879 159.25 177.724 159.849 178.148 160.406C180.006 162.791 180.223 165.651 180.636 168.553C180.657 168.708 181.101 170.174 181.09 170.184C181.916 169.11 182.071 167.355 182.464 166.116C182.846 164.763 182.784 162.833 182.66 161.48Z" fill="#52331D"/>
<path d="M181.151 174.283C180.975 173.127 180.944 171.475 180.944 170.36C180.841 171.206 179.994 172.26 179.437 172.642C178.921 172.982 178.053 173.416 177.403 173.209C177.155 173.034 176.918 172.827 176.649 172.673C175.937 172.218 175.245 171.754 174.388 171.878C174.016 171.929 173.314 172.218 173.273 172.642H173.128C173.077 172.229 172.375 171.94 172.013 171.878C171.156 171.754 170.464 172.239 169.752 172.673C169.494 172.838 169.256 173.034 168.998 173.209C168.327 173.395 167.46 172.972 166.964 172.642C166.407 172.26 165.56 171.217 165.457 170.36C165.457 171.496 165.436 173.137 165.25 174.283C165.023 174.232 164.786 174.149 164.559 174.035C164.559 174.356 164.848 174.593 165.178 174.748C165.188 174.748 165.188 174.758 165.199 174.758C165.364 176.255 168.523 180.334 168.565 180.499C168.709 181.015 170.433 182.079 171.115 182.461C171.838 182.874 172.447 182.956 173.159 182.956H173.242C173.954 182.956 174.563 182.874 175.286 182.461C175.978 182.079 177.692 181.005 177.836 180.499C177.888 180.334 181.037 176.266 181.202 174.758C181.213 174.758 181.213 174.748 181.223 174.748C181.553 174.593 181.843 174.356 181.843 174.035C181.615 174.159 181.388 174.242 181.151 174.283ZM178.074 175.151C177.702 175.078 177.351 174.892 177.01 174.676C176.401 174.985 175.503 175.316 174.894 175.006C174.873 174.996 174.842 174.985 174.822 174.954C174.305 174.614 173.861 174.903 173.324 174.934V174.996C173.934 175.233 173.903 175.223 173.324 174.996C173.304 174.985 173.294 174.985 173.263 174.975H173.118C172.54 175.151 172.509 175.161 173.118 174.975V174.944C172.56 174.944 172.096 174.624 171.569 174.965C171.549 174.975 171.518 174.985 171.497 175.016C170.888 175.326 169.99 174.996 169.38 174.686C169.04 174.903 168.689 175.089 168.317 175.161C168.11 175.192 167.914 175.213 167.697 175.213C167.883 175.213 168.069 175.192 168.245 175.161C168.637 175.089 169.019 174.903 169.391 174.686C169.7 174.51 170 174.314 170.279 174.159C170.877 173.839 171.569 173.54 172.23 173.509C172.55 173.488 172.86 173.592 173.139 173.478H173.283C173.541 173.602 173.861 173.488 174.192 173.509C174.863 173.54 175.534 173.85 176.143 174.159C176.432 174.314 176.721 174.5 177.031 174.686C177.403 174.903 177.785 175.089 178.177 175.161C178.353 175.192 178.539 175.213 178.724 175.213C178.477 175.202 178.27 175.192 178.074 175.151Z" fill="#52331D"/>
<path d="M181.158 174.252C180.611 174.355 180.053 174.273 179.444 174.097C178.835 173.922 178.246 173.736 177.709 173.395C177.606 173.323 177.503 173.251 177.399 173.178C177.152 173.003 176.914 172.796 176.646 172.641C175.933 172.187 175.242 171.722 174.385 171.846C174.013 171.898 173.311 172.187 173.269 172.61H173.125C173.073 172.197 172.371 171.908 172.01 171.846C171.153 171.722 170.461 172.208 169.749 172.641C169.491 172.807 169.253 173.003 168.995 173.178C168.902 173.251 168.788 173.323 168.685 173.395C168.148 173.736 167.549 173.932 166.951 174.097C166.331 174.273 165.784 174.355 165.237 174.252C165.01 174.2 164.772 174.118 164.545 174.004C164.545 174.324 164.834 174.562 165.164 174.717C165.454 174.861 165.784 174.934 165.97 174.975C166.682 175.119 167.508 175.254 168.241 175.119C168.634 175.047 169.016 174.861 169.387 174.644C169.697 174.469 169.996 174.273 170.275 174.118C170.874 173.798 171.566 173.498 172.227 173.467C172.547 173.447 172.856 173.55 173.135 173.436H173.28C173.538 173.56 173.858 173.447 174.188 173.467C174.86 173.498 175.531 173.808 176.14 174.118C176.429 174.273 176.718 174.459 177.028 174.644C177.399 174.861 177.781 175.047 178.174 175.119C178.907 175.254 179.723 175.109 180.445 174.975C180.652 174.944 180.972 174.851 181.251 174.717C181.581 174.562 181.87 174.324 181.87 174.004C181.622 174.118 181.385 174.2 181.158 174.252Z" fill="#6B4732"/>
</g>
<path d="M305.331 73.1512C305.331 73.1512 291.31 68.4327 291.155 76.672C291 84.901 287.645 85.6547 284.145 86.2742C280.634 86.8833 273.933 85.3552 274.243 94.0489C274.553 102.742 278.053 107.069 275.317 110.775C272.581 114.482 266.458 133.067 274.243 133.521C282.028 133.975 288.429 124.828 290.112 120.264C291.795 115.69 297.887 113.563 302.926 113.098C307.964 112.644 313.447 108.256 309.626 102.67C305.817 97.0844 306.983 89.7743 310.896 87.0279C314.768 84.2918 314.768 76.4964 305.331 73.1512Z" stroke="#023EA1" stroke-miterlimit="10"/>
<path d="M301.211 82.4645L273.777 140.387" stroke="#023EA1" stroke-miterlimit="10"/>
<path d="M282.762 92.8305L290.061 105.995L304.568 104.374" stroke="#023EA1" stroke-miterlimit="10"/>
<path d="M289.121 133.397C289.121 133.397 304.784 107.616 321.665 95.2362" stroke="#DE051F" stroke-miterlimit="10"/>
<path d="M333.333 89.1651C333.333 89.1651 329.596 97.6626 319.932 96.5578C319.942 96.5475 321.966 88.6695 333.333 89.1651Z" stroke="#DE051F" stroke-miterlimit="10"/>
<path d="M307.449 108.648C307.449 108.648 314.129 103.279 322.627 109.061C322.627 109.072 318.187 115.607 307.449 108.648Z" stroke="#DE051F" stroke-miterlimit="10"/>
<path d="M295.061 124.528C295.061 124.528 300.564 117.962 310.021 121.968C310.042 121.968 306.965 129.247 295.061 124.528Z" stroke="#DE051F" stroke-miterlimit="10"/>
<path d="M294.728 124.404C294.728 124.404 299.798 117.497 293.644 109.268C293.644 109.257 287.315 113.986 294.728 124.404Z" stroke="#DE051F" stroke-miterlimit="10"/>
<path d="M307.573 108.648C307.573 108.648 313.479 102.443 308.43 93.4914C308.43 93.481 301.533 97.3632 307.573 108.648Z" stroke="#DE051F" stroke-miterlimit="10"/>
<path d="M331.131 362.21C392.459 362.21 442.175 312.493 442.175 251.165C442.175 189.837 392.459 140.12 331.131 140.12C269.802 140.12 220.086 189.837 220.086 251.165C220.086 312.493 269.802 362.21 331.131 362.21Z" stroke="#2626DB" stroke-miterlimit="10" stroke-dasharray="6 6"/>
<path d="M121.967 317.09C183.295 317.09 233.011 267.373 233.011 206.045C233.011 144.717 183.295 95.0001 121.967 95.0001C60.6383 95.0001 10.9219 144.717 10.9219 206.045C10.9219 267.373 60.6383 317.09 121.967 317.09Z" stroke="#2626DB" stroke-miterlimit="10" stroke-dasharray="6 6"/>
<path d="M37.8816 247.652C38.0487 237.274 29.7718 228.727 19.3946 228.56C9.01743 228.392 0.469631 236.669 0.302541 247.047C0.135452 257.424 8.41235 265.972 18.7895 266.139C29.1667 266.306 37.7145 258.029 37.8816 247.652Z" fill="#003EB0"/>
<path d="M440.432 295.531C450.81 295.531 459.223 287.118 459.223 276.74C459.223 266.362 450.81 257.948 440.432 257.948C430.054 257.948 421.641 266.362 421.641 276.74C421.641 287.118 430.054 295.531 440.432 295.531Z" fill="#FCBE42"/>
<path d="M12.4961 243.587L20.0127 254.872L25.6604 245.476" stroke="white" stroke-width="2" stroke-miterlimit="10"/>
<path d="M435.73 269.223L447.945 277.679L435.73 284.267V269.223Z" fill="white"/>
<path d="M182.26 29.1273L175.609 35.7783L182.26 42.4293L188.911 35.7783L182.26 29.1273Z" fill="#EE384E"/>
<path d="M18.5377 372.326L11.8867 378.977L18.5377 385.628L25.1887 378.977L18.5377 372.326Z" fill="#EE384E"/>
<path d="M332.339 107.5L325.688 114.151L332.338 120.802L338.99 114.151L332.339 107.5Z" fill="#003EB0"/>
<path d="M410.71 375.489L404.059 382.14L410.71 388.791L417.361 382.14L410.71 375.489Z" fill="#003EB0"/>
<path d="M312.016 159.241H209.448C208.136 159.241 207.062 158.167 207.062 156.855V149.318C207.062 148.007 208.136 146.933 209.448 146.933H312.016C313.327 146.933 314.401 148.007 314.401 149.318V156.855C314.401 158.177 313.327 159.241 312.016 159.241Z" stroke="#0064B7" stroke-miterlimit="10"/>
<path d="M312.016 176.267H209.448C208.136 176.267 207.062 175.193 207.062 173.882V166.344C207.062 165.033 208.136 163.959 209.448 163.959H312.016C313.327 163.959 314.401 165.033 314.401 166.344V173.882C314.401 175.203 313.327 176.267 312.016 176.267Z" stroke="#0064B7" stroke-miterlimit="10"/>
<path d="M312.016 193.282H209.448C208.136 193.282 207.062 192.208 207.062 190.897V183.36C207.062 182.049 208.136 180.975 209.448 180.975H312.016C313.327 180.975 314.401 182.049 314.401 183.36V190.897C314.401 192.219 313.327 193.282 312.016 193.282Z" stroke="#0064B7" stroke-miterlimit="10"/>
<path d="M296.004 239.301H236.729C235.418 239.301 234.344 238.227 234.344 236.916V234.345C234.344 233.033 235.418 231.96 236.729 231.96H296.004C297.316 231.96 298.389 233.033 298.389 234.345V236.916C298.389 238.237 297.326 239.301 296.004 239.301Z" fill="#0064B7"/>
<path d="M296.004 251.289H236.729C235.418 251.289 234.344 250.215 234.344 248.904V246.333C234.344 245.022 235.418 243.948 236.729 243.948H296.004C297.316 243.948 298.389 245.022 298.389 246.333V248.904C298.389 250.225 297.326 251.289 296.004 251.289Z" fill="#0064B7"/>
<path d="M296.004 263.276H236.729C235.418 263.276 234.344 262.202 234.344 260.891V258.32C234.344 257.009 235.418 255.935 236.729 255.935H296.004C297.316 255.935 298.389 257.009 298.389 258.32V260.891C298.389 262.223 297.326 263.276 296.004 263.276Z" fill="#0064B7"/>
<path d="M402.329 134.957H358.334C357.023 134.957 355.949 136.03 355.949 137.342V154.801C355.949 156.112 357.023 157.186 358.334 157.186H404.714V137.342C404.714 136.02 403.64 134.957 402.329 134.957Z" fill="#B0E6FF"/>
<path d="M366.607 152.913C370.165 152.913 373.05 150.028 373.05 146.47C373.05 142.912 370.165 140.027 366.607 140.027C363.049 140.027 360.164 142.912 360.164 146.47C360.164 150.028 363.049 152.913 366.607 152.913Z" fill="#0064B7"/>
<mask id="mask3_2139_41093" style="mask-type:luminance" maskUnits="userSpaceOnUse" x="360" y="140" width="14" height="13">
<path d="M366.605 152.912C370.163 152.912 373.048 150.027 373.048 146.469C373.048 142.911 370.163 140.026 366.605 140.026C363.047 140.026 360.162 142.911 360.162 146.469C360.162 150.027 363.047 152.912 366.605 152.912Z" fill="white"/>
</mask>
<g mask="url(#mask3_2139_41093)">
<path d="M366 147.925C366 147.925 366 148.762 365.639 149.113C365.278 149.464 364.803 150.063 364.803 150.063C364.803 150.063 365.639 151.374 367.301 151.198C368.964 151.023 369.263 149.825 369.263 149.825C369.263 149.825 367.694 149.619 367.518 148.132C367.343 146.645 367.105 146.645 367.105 146.645L366 147.925Z" fill="#FFBF99"/>
<path d="M365.011 149.454C365.011 149.454 363.865 149.31 363.266 149.475C362.657 149.64 362.461 149.537 362.626 150.001C362.791 150.476 363.628 152.645 363.235 153.997C362.843 155.35 362.316 162.329 362.316 162.329C362.316 162.329 366.529 162.495 368.171 162.577C369.812 162.66 371.031 162.35 371.031 162.35C371.031 162.35 371.392 159.345 371.031 158.055C370.669 156.744 370.194 154.534 370.194 154.534C370.194 154.534 369.885 151.478 370.298 150.734C370.711 150.001 371.02 149.96 370.483 149.754C369.957 149.568 369.379 149.392 368.955 149.392C368.542 149.392 368.315 149.392 368.067 149.64C367.82 149.888 367.314 150.394 366.632 150.28C365.94 150.177 365.404 149.702 365.404 149.702C365.404 149.702 365.197 149.485 365.011 149.454Z" fill="#1B3A62"/>
<path d="M363.001 149.692C363.001 149.692 362.609 149.506 362.02 150.002C361.39 150.539 360.936 151.695 360.709 152.418C360.482 153.141 360.348 153.863 360.348 153.863C360.348 153.863 361.153 154.276 361.989 154.307C362.826 154.328 363.383 154.39 363.383 154.39C363.383 154.39 363.745 152.222 363.662 151.251C363.579 150.281 363.435 149.95 363.001 149.692Z" fill="#021E34"/>
<path d="M370 150.497C370 150.497 370.33 149.578 371.084 150.001C371.838 150.414 372.395 152.004 372.56 152.5C372.726 152.995 372.953 153.997 372.953 153.997C372.953 153.997 372.065 154.389 371.311 154.441C370.557 154.503 370.041 154.544 370.041 154.544C370.041 154.544 369.731 152.572 369.793 151.798C369.835 151.034 370 150.497 370 150.497Z" fill="#021E34"/>
<path d="M366.662 147.141H365.66C365.66 147.141 365.743 147.946 366.662 147.946C367.581 147.946 367.663 147.141 367.663 147.141H366.662Z" fill="white"/>
<path d="M369.419 145.489C369.491 145.696 369.14 146.253 369.006 146.45C369.068 146.14 369.13 145.717 369.171 145.211C369.171 145.211 369.347 145.304 369.419 145.489Z" fill="#FFBF99"/>
<path d="M369.233 142.949C369.151 141.142 366.724 141.111 366.724 141.111C366.724 141.111 364.298 141.132 364.215 142.949C364.184 143.754 364.215 144.559 364.277 145.22C364.329 145.716 364.38 146.15 364.442 146.459C364.473 146.666 364.515 146.8 364.546 146.893C364.597 147.037 364.701 147.203 364.835 147.378C365.093 147.75 365.475 148.132 365.743 148.297C365.96 148.431 366.466 148.524 366.724 148.514C366.962 148.524 367.447 148.431 367.674 148.307C367.684 148.307 367.684 148.297 367.695 148.297C367.953 148.142 368.335 147.75 368.603 147.378C368.738 147.203 368.841 147.017 368.892 146.893C368.923 146.81 368.965 146.666 368.996 146.459C369.058 146.15 369.12 145.726 369.161 145.22C369.244 144.539 369.264 143.744 369.233 142.949Z" fill="#FFBF99"/>
<path d="M364.275 145.21C364.327 145.705 364.379 146.139 364.441 146.449C364.296 146.263 363.955 145.685 364.028 145.488C364.1 145.303 364.275 145.21 364.275 145.21Z" fill="#FFBF99"/>
<path d="M368.129 148.008L368.14 148.019C367.974 148.194 367.809 148.349 367.665 148.432C367.458 148.556 367.035 148.814 366.808 148.803H366.715C366.488 148.814 366.064 148.556 365.858 148.432C365.713 148.349 365.548 148.194 365.383 148.019L365.393 148.008C365.672 147.988 365.548 147.626 365.62 147.471C365.693 147.327 365.92 147.296 366.054 147.224C366.157 147.162 366.26 147.141 366.364 147.089C366.488 147.027 366.591 147.027 366.704 147.027H366.797C366.932 147.027 367.024 147.027 367.138 147.089C367.241 147.141 367.345 147.162 367.448 147.224C367.582 147.296 367.809 147.327 367.881 147.471C367.974 147.626 367.85 147.977 368.129 148.008ZM367.675 147.843C367.83 147.585 367.654 147.564 367.437 147.502C367.272 147.44 366.952 147.296 366.787 147.286H366.756C366.591 147.286 366.271 147.44 366.106 147.502C365.899 147.575 365.713 147.595 365.868 147.843C365.951 147.988 366.168 148.235 366.353 148.215C366.57 148.194 366.663 147.915 366.756 147.781H366.787C366.88 147.915 366.973 148.184 367.19 148.215C367.376 148.235 367.582 147.977 367.675 147.843Z" fill="#915F41"/>
<path d="M366.758 144.694C366.82 144.694 366.964 144.694 367.005 144.704C367.129 144.704 367.098 144.611 367.171 144.518C367.264 144.394 367.48 144.425 367.615 144.425C367.8 144.415 367.986 144.405 368.172 144.405C368.306 144.405 368.699 144.384 368.73 144.394C368.74 144.394 368.895 144.477 368.947 144.549C368.967 144.58 368.978 144.621 368.998 144.652C369.019 144.787 368.988 144.942 368.978 145.045C368.957 145.21 368.926 145.375 368.812 145.478C368.781 145.499 368.73 145.509 368.688 145.509C368.626 145.52 368.399 145.52 368.348 145.53C368.162 145.54 367.966 145.551 367.78 145.54C367.563 145.53 367.315 145.551 367.233 145.22C367.212 145.138 367.181 144.849 367.15 144.818C367.078 144.745 366.871 144.735 366.789 144.735C366.747 144.704 366.747 144.725 366.758 144.694ZM367.367 145.406C367.418 145.437 367.604 145.468 367.604 145.468C367.656 145.468 368.286 145.478 368.544 145.437C368.596 145.427 368.678 145.406 368.709 145.375C368.792 145.313 368.864 144.766 368.802 144.683C368.771 144.632 368.668 144.559 368.637 144.529C368.492 144.405 367.346 144.467 367.305 144.529C367.243 144.601 367.243 144.663 367.243 144.745C367.315 144.694 367.346 144.766 367.367 144.849C367.367 144.9 367.388 145.086 367.305 145.003C367.295 144.993 367.284 144.952 367.253 144.983C367.222 145.014 367.233 145.127 367.233 145.158C367.284 145.334 367.357 145.396 367.367 145.406Z" fill="#6B4732"/>
<path d="M366.747 144.694C366.685 144.694 366.541 144.694 366.5 144.704C366.376 144.704 366.407 144.611 366.334 144.518C366.242 144.394 366.025 144.425 365.89 144.425C365.705 144.415 365.519 144.405 365.333 144.405C365.199 144.405 364.806 144.384 364.775 144.394C364.765 144.394 364.61 144.477 364.559 144.549C364.538 144.58 364.528 144.621 364.507 144.652C364.486 144.787 364.517 144.942 364.528 145.045C364.548 145.21 364.579 145.375 364.693 145.478C364.724 145.499 364.775 145.509 364.817 145.509C364.879 145.52 365.106 145.52 365.157 145.53C365.343 145.54 365.539 145.551 365.725 145.54C365.942 145.53 366.19 145.551 366.273 145.22C366.293 145.138 366.324 144.849 366.355 144.818C366.427 144.745 366.634 144.735 366.716 144.735C366.747 144.704 366.758 144.725 366.747 144.694ZM366.138 145.406C366.087 145.437 365.901 145.468 365.901 145.468C365.849 145.468 365.219 145.478 364.961 145.437C364.91 145.427 364.827 145.406 364.796 145.375C364.713 145.313 364.641 144.766 364.703 144.683C364.734 144.632 364.837 144.559 364.868 144.529C365.013 144.405 366.159 144.467 366.2 144.529C366.262 144.601 366.262 144.663 366.262 144.745C366.19 144.694 366.159 144.766 366.138 144.849C366.138 144.9 366.118 145.086 366.2 145.003C366.211 144.993 366.221 144.952 366.252 144.983C366.283 145.014 366.273 145.127 366.273 145.158C366.211 145.334 366.149 145.396 366.138 145.406Z" fill="#6B4732"/>
</g>
<path d="M399.347 142.784H376.447C376.116 142.784 375.848 142.526 375.848 142.185V140.616C375.848 140.285 376.106 140.017 376.447 140.017H399.347C399.678 140.017 399.946 140.275 399.946 140.616V142.185C399.936 142.515 399.667 142.784 399.347 142.784Z" fill="#0064B7"/>
<path d="M399.347 147.296H376.447C376.116 147.296 375.848 147.038 375.848 146.697V145.128C375.848 144.797 376.106 144.529 376.447 144.529H399.347C399.678 144.529 399.946 144.787 399.946 145.128V146.697C399.936 147.028 399.667 147.296 399.347 147.296Z" fill="#0064B7"/>
<path d="M399.347 151.797H376.447C376.116 151.797 375.848 151.538 375.848 151.198V149.628C375.848 149.298 376.106 149.029 376.447 149.029H399.347C399.678 149.029 399.946 149.288 399.946 149.628V151.198C399.936 151.538 399.667 151.797 399.347 151.797Z" fill="#0064B7"/>
<path d="M74.9785 110.993H27.8968C26.5855 110.993 25.5117 112.067 25.5117 113.378V132.241C25.5117 133.553 26.5855 134.627 27.8968 134.627H77.3636V113.378C77.3636 112.067 76.3001 110.993 74.9785 110.993Z" fill="#B0E6FF"/>
<path d="M36.8454 130.093C40.6261 130.093 43.6909 127.028 43.6909 123.247C43.6909 119.467 40.6261 116.402 36.8454 116.402C33.0648 116.402 30 119.467 30 123.247C30 127.028 33.0648 130.093 36.8454 130.093Z" fill="#0064B7"/>
<mask id="mask4_2139_41093" style="mask-type:luminance" maskUnits="userSpaceOnUse" x="29" y="116" width="15" height="15">
<path d="M36.8415 130.093C40.6222 130.093 43.687 127.028 43.687 123.247C43.687 119.467 40.6222 116.402 36.8415 116.402C33.0609 116.402 29.9961 119.467 29.9961 123.247C29.9961 127.028 33.0609 130.093 36.8415 130.093Z" fill="white"/>
</mask>
<g mask="url(#mask4_2139_41093)">
<path d="M36.1971 124.776C36.1971 124.776 36.1971 125.653 35.8151 126.035C35.4331 126.417 34.9375 127.047 34.9375 127.047C34.9375 127.047 35.8151 128.441 37.591 128.245C39.3669 128.059 39.6766 126.789 39.6766 126.789C39.6766 126.789 37.9937 126.562 37.8078 124.992C37.622 123.413 37.3639 123.413 37.3639 123.413L36.1971 124.776Z" fill="#FFB07E"/>
<path d="M35.1477 126.427C35.1477 126.427 33.9293 126.283 33.2892 126.448C32.649 126.613 32.4322 126.51 32.6077 127.006C32.7833 127.501 33.6712 129.814 33.2582 131.259C32.8452 132.715 32.2773 140.118 32.2773 140.118C32.2773 140.118 36.7687 140.294 38.5033 140.376C40.2379 140.459 41.5388 140.139 41.5388 140.139C41.5388 140.139 41.9208 136.948 41.5388 135.565C41.1568 134.171 40.6612 131.817 40.6612 131.817C40.6612 131.817 40.3411 128.565 40.7851 127.77C41.2291 126.975 41.5491 126.944 40.9916 126.737C40.434 126.531 39.8146 126.355 39.3706 126.355C38.9266 126.355 38.6891 126.355 38.431 126.613C38.1729 126.871 37.636 127.408 36.8926 127.295C36.1595 127.171 35.5917 126.675 35.5917 126.675C35.5917 126.675 35.3439 126.448 35.1477 126.427Z" fill="#1B3A62"/>
<path d="M33.0017 126.675C33.0017 126.675 32.5887 126.469 31.9693 126.995C31.2981 127.563 30.8129 128.792 30.5754 129.566C30.3379 130.33 30.1934 131.105 30.1934 131.105C30.1934 131.105 31.0503 131.549 31.9279 131.58C32.8056 131.6 33.4044 131.662 33.4044 131.662C33.4044 131.662 33.7864 129.36 33.7038 128.327C33.6212 127.295 33.4767 126.933 33.0017 126.675Z" fill="#00AEEF"/>
<path d="M40.4435 127.532C40.4435 127.532 40.8049 126.551 41.5999 126.995C42.3949 127.439 42.9938 129.122 43.159 129.649C43.3242 130.175 43.572 131.239 43.572 131.239C43.572 131.239 42.6324 131.652 41.8374 131.714C41.0424 131.776 40.4848 131.838 40.4848 131.838C40.4848 131.838 40.1648 129.742 40.2267 128.906C40.268 128.09 40.4435 127.532 40.4435 127.532Z" fill="#00AEEF"/>
<path d="M39.8865 121.863C39.8865 121.863 40.0723 121.956 40.1652 122.173C40.2478 122.4 39.8555 123.019 39.7109 123.236" fill="#FFB07E"/>
<path d="M39.9594 119.355C39.8664 117.352 37.182 117.321 37.182 117.321C37.182 117.321 34.4871 117.342 34.4045 119.355C34.3736 120.243 34.4045 121.131 34.4768 121.864C34.5284 122.421 34.6007 122.896 34.6627 123.237C34.7143 123.464 34.7453 123.619 34.7866 123.712C34.8485 123.867 34.9518 124.053 35.0963 124.259C35.3957 124.662 35.8087 125.096 36.0978 125.271C36.3353 125.416 36.9032 125.519 37.182 125.509C37.4607 125.519 38.0286 125.416 38.2661 125.271C38.5655 125.096 38.9785 124.662 39.2676 124.259C39.4121 124.053 39.5257 123.867 39.5773 123.712C39.6083 123.619 39.6496 123.454 39.7012 123.237C39.7632 122.896 39.8355 122.411 39.8871 121.864C39.9594 121.121 39.9903 120.243 39.9594 119.355Z" fill="#FFB07E"/>
<path d="M34.4675 121.863C34.5191 122.421 34.5914 122.896 34.6534 123.236C34.4985 123.019 34.1165 122.39 34.1991 122.173C34.2817 121.956 34.4675 121.863 34.4675 121.863Z" fill="#FFB07E"/>
<path d="M35.2584 118.963L35.1965 119.035C35.1965 119.53 35.1758 119.84 34.9074 120.264C34.7009 120.584 34.4118 121.017 34.4737 121.42C34.4221 121.172 34.4531 120.924 34.2982 120.708C34.133 120.46 34.0711 120.295 34.0917 119.954C34.1227 119.582 34.1227 119.148 34.3292 118.808C34.4221 118.653 34.5873 118.56 34.6596 118.415C34.6906 118.333 34.6699 118.178 34.7319 118.054C35.1242 117.321 36.4355 117.342 37.1582 117.321C37.1582 117.321 39.853 117.342 39.9356 119.355C39.9873 120.336 39.9253 121.286 39.853 122.07C39.8221 121.812 39.6052 121.606 39.471 121.368C39.3265 121.079 39.2645 120.811 39.0374 120.563C38.7483 120.233 38.2114 120.078 37.7984 119.943C36.9208 119.675 35.9605 119.53 35.2584 118.963Z" fill="#915F41"/>
<path d="M36.4805 118.796C36.6457 118.92 36.7902 119.044 36.9348 119.188C37.0793 119.323 37.2239 119.477 37.3684 119.591C37.5233 119.715 37.6988 119.798 37.8847 119.87C37.9776 119.901 38.0705 119.942 38.1634 119.973C38.2564 120.004 38.339 120.056 38.4216 120.118C38.246 120.025 38.0499 119.963 37.8743 119.901C37.7814 119.87 37.6885 119.829 37.5956 119.798C37.5026 119.746 37.42 119.705 37.3478 119.632C37.1929 119.498 37.0587 119.354 36.9141 119.219C36.7696 119.064 36.6353 118.93 36.4805 118.796Z" fill="#BB8B6C"/>
<path d="M37.8711 119.138C37.8814 119.22 37.9227 119.303 37.964 119.375C38.0156 119.448 38.0569 119.52 38.1086 119.592C38.2118 119.726 38.3357 119.871 38.4493 119.984C38.5732 120.108 38.7074 120.212 38.852 120.315C38.9242 120.366 38.9965 120.418 39.0585 120.48C39.1204 120.542 39.1824 120.614 39.2237 120.687C39.172 120.614 39.0998 120.552 39.0481 120.501C38.9759 120.439 38.9036 120.397 38.8313 120.346C38.6868 120.253 38.5319 120.16 38.4183 120.026C38.3047 119.892 38.1808 119.768 38.0879 119.623C38.0363 119.551 37.995 119.479 37.9537 119.396C37.9021 119.303 37.8814 119.22 37.8711 119.138Z" fill="#BB8B6C"/>
</g>
<path d="M71.6981 119.324H47.259C46.9286 119.324 46.6602 119.066 46.6602 118.726V116.981C46.6602 116.65 46.9183 116.382 47.259 116.382H71.6878C72.0182 116.382 72.2867 116.64 72.2867 116.981V118.726C72.297 119.056 72.0182 119.324 71.6981 119.324Z" fill="#0064B7"/>
<path d="M71.6981 124.126H47.259C46.9286 124.126 46.6602 123.868 46.6602 123.528V121.783C46.6602 121.452 46.9183 121.184 47.259 121.184H71.6878C72.0182 121.184 72.2867 121.442 72.2867 121.783V123.528C72.297 123.848 72.0182 124.126 71.6981 124.126Z" fill="#0064B7"/>
<path d="M71.6981 128.927H47.259C46.9286 128.927 46.6602 128.669 46.6602 128.328V126.583C46.6602 126.253 46.9183 125.984 47.259 125.984H71.6878C72.0182 125.984 72.2867 126.243 72.2867 126.583V128.328C72.297 128.648 72.0182 128.927 71.6981 128.927Z" fill="#0064B7"/>
<path d="M278.234 351.854H194.87C194.54 351.854 194.271 351.596 194.271 351.255V345.834C194.271 345.504 194.53 345.235 194.87 345.235H278.234C278.564 345.235 278.833 345.494 278.833 345.834V351.255C278.833 351.596 278.554 351.854 278.234 351.854Z" stroke="#0064B7" stroke-miterlimit="10"/>
<path d="M278.234 362.663H194.87C194.54 362.663 194.271 362.405 194.271 362.064V356.644C194.271 356.313 194.53 356.045 194.87 356.045H278.234C278.564 356.045 278.833 356.303 278.833 356.644V362.064C278.833 362.395 278.554 362.663 278.234 362.663Z" stroke="#0064B7" stroke-miterlimit="10"/>
<path d="M278.234 373.473H194.87C194.54 373.473 194.271 373.215 194.271 372.875V367.454C194.271 367.124 194.53 366.855 194.87 366.855H278.234C278.564 366.855 278.833 367.113 278.833 367.454V372.875C278.833 373.205 278.554 373.473 278.234 373.473Z" stroke="#0064B7" stroke-miterlimit="10"/>
<path d="M112.483 169.773H67.1464C66.4959 169.773 65.959 170.309 65.959 170.96V190.33C65.959 190.98 66.4959 191.517 67.1464 191.517H113.681V170.96C113.671 170.309 113.144 169.773 112.483 169.773Z" fill="#B0E6FF"/>
<path d="M76.373 187.346C79.8571 187.346 82.6815 184.521 82.6815 181.037C82.6815 177.553 79.8571 174.729 76.373 174.729C72.8889 174.729 70.0645 177.553 70.0645 181.037C70.0645 184.521 72.8889 187.346 76.373 187.346Z" fill="#0064B7"/>
<mask id="mask5_2139_41093" style="mask-type:luminance" maskUnits="userSpaceOnUse" x="70" y="174" width="13" height="14">
<path d="M76.3789 187.346C79.863 187.346 82.6874 184.521 82.6874 181.037C82.6874 177.553 79.863 174.729 76.3789 174.729C72.8947 174.729 70.0703 177.553 70.0703 181.037C70.0703 184.521 72.8947 187.346 76.3789 187.346Z" fill="white"/>
</mask>
<g mask="url(#mask5_2139_41093)">
<path d="M79.1078 181.967C78.8187 180.872 79.2317 180.47 79.3453 178.983L76.4749 178.89L73.6046 178.983C73.7285 180.47 74.1312 180.872 73.8421 181.967C73.4291 183.588 72.283 185.725 76.4749 185.725C80.6669 185.725 79.5311 183.588 79.1078 181.967Z" fill="#4B2C61"/>
<path d="M75.8023 182.461C75.8023 182.461 75.8023 183.266 75.4616 183.628C75.1209 183.968 74.6562 184.557 74.6562 184.557C74.6562 184.557 75.4616 185.827 77.0929 185.662C78.7243 185.496 79.0134 184.33 79.0134 184.33C79.0134 184.33 77.475 184.123 77.2994 182.678C77.1239 181.232 76.8968 181.222 76.8968 181.222L75.8023 182.461Z" fill="#F8E1CC"/>
<path d="M74.8237 183.969C74.8237 183.969 73.7086 183.835 73.1098 183.99C72.5109 184.155 72.3251 184.052 72.4903 184.506C72.6555 184.971 73.4711 187.087 73.0891 188.419C72.7071 189.751 72.2012 196.576 72.2012 196.576C72.2012 196.576 76.3311 196.741 77.9418 196.824C79.5525 196.906 80.7399 196.607 80.7399 196.607C80.7399 196.607 81.1013 193.675 80.7399 192.394C80.3785 191.124 79.9346 188.946 79.9346 188.946C79.9346 188.946 79.6351 185.962 80.0378 185.219C80.4405 184.486 80.7399 184.455 80.2236 184.269C79.7074 184.083 79.1395 183.907 78.7265 183.907C78.3135 183.907 78.107 183.907 77.8592 184.155C77.6114 184.403 77.1262 184.888 76.4447 184.775C75.7633 184.671 75.2574 184.207 75.2574 184.207C75.2574 184.207 75.0199 184 74.8237 183.969Z" fill="#CCB4AA"/>
<path d="M72.8605 184.207C72.8605 184.207 72.4785 184.021 71.9106 184.506C71.2911 185.033 70.8472 186.158 70.6407 186.871C70.4238 187.573 70.2793 188.285 70.2793 188.285C70.2793 188.285 71.064 188.688 71.89 188.729C72.6953 188.75 73.2426 188.812 73.2426 188.812C73.2426 188.812 73.6039 186.695 73.5213 185.745C73.4387 184.785 73.2942 184.444 72.8605 184.207Z" fill="#355D75"/>
<path d="M79.7077 184.991C79.7077 184.991 80.0278 184.103 80.7712 184.506C81.5043 184.909 82.0412 186.457 82.2064 186.943C82.3716 187.428 82.5884 188.409 82.5884 188.409C82.5884 188.409 81.7211 188.791 80.9777 188.853C80.2446 188.915 79.7284 188.956 79.7284 188.956C79.7284 188.956 79.429 187.025 79.4806 186.261C79.5322 185.497 79.7077 184.991 79.7077 184.991Z" fill="#355D75"/>
<path d="M74.4006 180.149C74.4006 180.149 74.1734 179.922 74.0392 179.973C73.9153 180.025 73.812 180.293 73.905 180.572C73.9979 180.851 74.0908 181.068 74.1837 181.13C74.2663 181.192 74.5658 181.233 74.5658 181.212C74.5761 181.181 74.4006 180.149 74.4006 180.149Z" fill="#F8E1CC"/>
<path d="M78.6188 180.149C78.6188 180.149 78.8562 179.922 78.9801 179.974C79.104 180.025 79.2073 180.294 79.1144 180.572C79.0214 180.851 78.9285 181.068 78.8356 181.13C78.7427 181.192 78.4536 181.233 78.4536 181.213C78.4432 181.182 78.6188 180.149 78.6188 180.149Z" fill="#F8E1CC"/>
<path d="M78.6745 178.291C78.2822 177.103 77.1774 176.825 76.5166 176.825C75.8558 176.825 74.7407 177.103 74.3484 178.291C73.956 179.478 74.4929 181.182 74.844 181.791C75.2054 182.4 75.9901 183.009 76.5063 183.009C77.0329 183.009 77.8176 182.41 78.1686 181.791C78.53 181.192 79.0669 179.488 78.6745 178.291Z" fill="#F8E1CC"/>
<path d="M74.2926 180.294C74.2926 180.294 74.4991 179.148 75.0153 178.497C75.0153 178.497 75.3251 179.375 76.2337 179.736C76.2337 179.736 76.2337 179.272 76.1304 178.931C76.1304 178.931 76.8532 179.623 77.7205 179.767C77.7205 179.767 77.6689 179.385 77.5346 179.117C77.5346 179.117 78.3606 179.726 78.7117 180.283C78.7117 180.283 79.4138 179.705 79.3621 178.549C79.3002 177.392 78.278 176.029 76.6467 175.988C75.0153 175.957 74.2616 177.217 74.2616 177.217C74.2616 177.217 73.6628 177.599 73.6111 178.404C73.5389 179.199 73.7557 179.726 74.2926 180.294Z" fill="#4B2C61"/>
</g>
<path d="M108.416 177.444H86.0207C85.6903 177.444 85.4219 177.186 85.4219 176.845V175.338C85.4219 175.007 85.68 174.739 86.0207 174.739H108.416C108.746 174.739 109.014 174.997 109.014 175.338V176.845C109.014 177.165 108.736 177.444 108.416 177.444Z" fill="#0064B7"/>
<path d="M108.416 181.863H86.0207C85.6903 181.863 85.4219 181.605 85.4219 181.265V179.757C85.4219 179.427 85.68 179.158 86.0207 179.158H108.416C108.746 179.158 109.014 179.416 109.014 179.757V181.265C109.014 181.585 108.736 181.863 108.416 181.863Z" fill="#0064B7"/>
<path d="M108.416 186.272H86.0207C85.6903 186.272 85.4219 186.014 85.4219 185.673V184.165C85.4219 183.835 85.68 183.567 86.0207 183.567H108.416C108.746 183.567 109.014 183.825 109.014 184.165V185.673C109.014 186.003 108.736 186.272 108.416 186.272Z" fill="#0064B7"/>
<path d="M170.547 230.794C170.547 230.794 182.648 226.488 184.001 237.794C184.001 237.794 187.098 246.002 190.196 247.479C193.293 248.955 200.954 251.784 199.075 262.419C197.196 273.054 194.233 272.383 195.441 278.567C196.659 284.762 193.696 285.433 189.38 285.567C185.064 285.702 183.867 281.665 183.867 281.665L185.085 267.943L182.266 245.878L173.108 242.244C173.108 242.244 168.39 236.328 167.987 234.036C167.584 231.733 170.547 230.794 170.547 230.794Z" fill="#170856"/>
<path d="M172.164 227.738C172.164 227.738 174.085 229.73 173.63 230.081C173.176 230.443 167.952 233.169 167.952 233.169C167.952 233.169 166.444 230.236 166.599 229.379C166.733 228.522 172.164 227.738 172.164 227.738Z" fill="#F05051"/>
<path d="M140.125 212.962C139.846 212.993 139.66 213.241 139.66 213.509C139.732 216.142 140.342 228.821 145.298 233.519C145.298 233.519 147.92 236.947 152.959 235.543C152.959 235.543 157.502 232.817 156.789 238.362C156.087 243.906 158.41 249.358 160.217 250.173C162.034 250.979 169.499 248.955 171.213 245.827C172.359 243.741 172.958 242.688 173.237 242.223C173.361 242.017 173.33 241.779 173.175 241.614C172.153 240.437 168.302 235.708 166.526 229.183C164.45 221.615 165.565 214.346 158.596 212.828C152.494 211.486 142.417 212.663 140.125 212.962Z" fill="#FFBE97"/>
<path d="M133.62 212.343C133.63 212.239 133.651 212.115 133.651 212.012C133.713 211.279 133.64 210.525 133.713 209.772C133.95 207.459 134.704 205.022 136.511 203.463C137.853 202.296 139.619 201.842 141.363 201.842C141.756 201.842 142.138 201.698 142.396 201.398C143.583 200.056 147.445 196.205 152.772 196.205C159.226 196.205 170.242 199.695 173.226 210.701C173.237 210.722 173.237 210.732 173.237 210.763C173.412 211.496 177.614 228.78 169.189 229.306C160.568 229.843 157.088 225.6 157.346 221.769C157.346 221.769 161.58 214.16 154.383 216.111C154.383 216.111 146.97 217.505 141.818 214.48C141.178 214.098 140.362 214.335 140.001 214.975C138.978 216.751 136.934 219.487 135.014 217.185C134.311 216.338 133.63 215.368 133.434 214.253C133.32 213.582 133.506 212.983 133.62 212.343Z" fill="#170856"/>
<path d="M173.342 241.717C173.342 241.717 169.14 248.48 163.151 248.408C157.163 248.335 156.781 242.13 156.781 242.13C156.781 242.13 144.577 253.116 144.711 260.374C144.845 267.633 147.272 266.435 147.933 268.851C148.614 271.267 143.895 296.976 143.895 296.976L143.193 298.484L177.679 303.161C177.679 303.161 179.021 297.647 179.96 295.902C180.9 294.157 185.742 249.079 185.742 249.079L183.461 246.663C183.471 246.673 179.434 242.089 173.342 241.717Z" fill="#FCBE42"/>
<path d="M188.572 269.006C188.572 269.006 191.999 246.694 183.327 245.589C174.85 244.515 174.705 251.505 174.447 261.871C174.168 272.227 174.313 274.53 174.313 274.53L187.766 276.946L188.572 269.006Z" fill="#F79F03"/>
<path d="M174.706 274.602C174.489 274.571 174.304 274.726 174.273 274.933L173.571 283.482C173.622 284.783 173.385 285.98 172.177 285.495C171.506 285.216 170.669 284.814 169.606 284.225C165.765 282.078 154.139 276.419 150.515 274.664C149.875 274.354 149.4 273.787 149.142 273.115C148.749 272.042 147.81 270.441 145.642 269.832C142.276 268.893 136.483 269.027 136.359 269.429C136.225 269.832 135.554 272.651 135.823 273.601C136.101 274.54 138.92 273.735 138.92 273.735C138.92 273.735 144.165 272.795 142.689 274.675C141.832 275.769 140.603 275.914 139.736 275.841C139.374 275.821 139.209 276.275 139.488 276.492C140.211 277.06 141.512 277.751 143.628 278.051C147.531 278.588 175.109 296.625 175.109 296.625C175.109 296.625 180.488 300.797 183.586 289.759C185.94 281.344 187.117 278.361 187.55 277.39C187.643 277.173 187.52 276.936 187.272 276.894L174.706 274.602Z" fill="#FEBD96"/>
<path d="M128.875 286.599L144.61 293.104L146.283 283.254L139.871 282.861L128.875 286.599Z" fill="#FEBD96"/>
<path d="M118.072 255.15L93.168 253.663L119.011 286.228L142.831 287.033L118.072 255.15Z" fill="#0064B7"/>
<path d="M117.927 283.946C117.927 283.946 118.867 278.029 116.853 277.079C114.84 276.13 113.529 278.339 113.653 279.413C113.797 280.611 117.752 284.617 117.752 284.617L117.927 283.946Z" fill="#FEBD96"/>
<path d="M143.204 298.514L94.6559 316.975C94.6559 316.975 88.5951 318.194 87.1186 334.538C85.6422 350.893 84.4238 405.057 84.4238 405.057L84.3516 406.802L96.4524 407.009L102.523 349.272L131.258 314.621L154.541 300.011L143.204 298.514Z" fill="#0064E1"/>
<path d="M177.98 302.139L154.408 300.023L104.787 324.813C104.787 324.813 91.385 332.701 99.9857 347.022C108.586 361.342 132.592 404.996 132.592 404.996L140.852 398.822L119.655 340.125C119.655 340.125 119.138 337.099 126.211 336.573C132.819 336.088 164.062 333.052 168.099 332.66C168.44 332.629 168.77 332.556 169.091 332.433C171.527 331.524 181.078 326.909 178.042 310.234L177.681 303.172L177.98 302.139Z" fill="#003EB0"/>
<path d="M84.3606 406.803L73.8189 412.595C73.282 412.894 72.6831 413.111 72.0843 413.204C70.9382 413.38 68.9558 413.906 68.9558 415.548C68.9558 415.548 68.677 417.427 73.7982 417.024C78.9194 416.622 95.0573 416.746 95.0573 416.746C95.0573 416.746 97.1429 416.271 96.8022 411.624L96.4718 406.978L84.3606 406.803Z" fill="#130452"/>
<path d="M132.587 404.985C132.587 404.985 132.494 407.721 129.769 411.5C128.261 413.596 126.63 415.599 124.937 417.551C124.482 418.067 124.007 418.49 123.78 419.13C123.625 419.564 123.501 419.998 123.491 420.452C123.481 420.896 123.563 421.361 123.956 421.619C124.534 422.011 125.401 421.804 126.01 421.629C126.186 421.577 126.372 421.526 126.547 421.453C130.698 419.977 143.067 409.9 145.7 407.732C146.03 407.453 146.237 407.05 146.237 406.617C146.247 405.687 146.082 404.035 144.988 402.745C143.367 400.866 140.868 398.801 140.868 398.801L132.587 404.985Z" fill="#130452"/>
<path d="M263.758 142.205C263.758 142.205 270.2 142.525 274.867 142.525C279.534 142.525 286.937 143.486 286.937 143.486C286.937 143.486 288.868 143.486 289.033 145.902C289.198 148.318 289.198 149.278 289.198 149.278C289.198 149.278 289.363 152.169 287.102 152.169C284.851 152.169 270.52 153.78 267.309 153.78C264.098 153.78 261.682 154.42 261.682 152.169C261.672 149.928 261.507 142.04 263.758 142.205Z" fill="#170856"/>
<path d="M269.074 74.1224C269.074 74.1224 273.266 97.3019 273.586 103.414C273.906 109.537 274.546 114.204 270.529 116.62C266.503 119.036 259.915 121.287 259.915 121.287L251.707 79.925V75.1032L269.074 74.1224Z" fill="#FFBF99"/>
<path d="M198.101 72.8322C198.101 72.8322 195.85 83.2913 195.21 88.6087C194.57 93.9157 193.114 104.23 192.959 106.626C192.794 109.042 192.474 113.068 196.831 116.125C201.178 119.181 205.844 120.957 205.844 120.957L214.703 72.8322H198.101Z" fill="#FFBF99"/>
<path d="M229.87 39.5235C229.87 39.5235 229.87 44.3453 227.794 46.4206C225.719 48.4959 222.973 51.9341 222.973 51.9341C222.973 51.9341 227.794 59.5126 237.438 58.4801C247.081 57.4476 248.806 50.5506 248.806 50.5506C248.806 50.5506 239.678 49.3529 238.636 40.7315C237.603 32.1205 236.22 32.1205 236.22 32.1205L229.87 39.5235Z" fill="#FFB07E"/>
<path d="M222.811 20.4123C222.811 20.4123 223.151 31.4394 228.324 40.0401C233.497 48.6407 239.692 43.8293 242.108 39.3483C244.524 34.8776 251.06 20.402 249.686 16.6128C248.303 12.8235 229.367 11.0992 229.367 11.0992L222.811 20.4123Z" fill="#FFBF99"/>
<path d="M247.26 26.5968C247.26 26.5968 250.017 24.5215 250.017 26.5968C250.017 28.6721 248.633 31.7593 246.919 32.1103C245.195 32.451 245.535 31.4186 245.887 30.035C246.238 28.6721 247.26 26.5968 247.26 26.5968Z" fill="#FFBF99"/>
<path d="M223.644 30.9229C224.398 31.2533 225.224 31.3669 225.224 30.2311C225.224 28.1558 223.84 25.0687 222.126 24.7176C220.402 24.3769 220.743 25.4094 221.094 26.7929C221.217 27.2679 221.414 27.8151 221.62 28.3417C222.012 29.3432 223.024 30.6441 223.644 30.9229Z" fill="#FFBF99"/>
<path d="M223.326 25.3991L222.985 21.9609C222.985 21.9609 226.083 22.3017 229.531 18.8635C229.531 18.8635 236.253 20.3709 241.591 19.896C247.269 19.3797 249.737 17.8206 249.737 17.8206C249.737 17.8206 248.787 24.3357 247.848 26.2251C247.848 26.2251 250.584 25.0791 251.616 21.9713C252.649 18.8635 252.453 15.5801 252.453 15.5801C252.453 15.5801 256.242 12.4826 257.274 9.03411C257.274 9.03411 246.939 6.61808 243.831 4.56341C240.723 2.50875 239.009 1.12521 239.009 1.12521C239.009 1.12521 234.188 -1.63155 229.366 2.1577C224.544 5.95728 221.436 8.01194 221.436 14.558C221.426 14.558 216.955 20.7426 223.326 25.3991Z" fill="#170856"/>
<path d="M224.09 48.4548C224.09 48.4548 217.493 47.6495 213.951 48.62C210.4 49.6009 209.284 48.9401 210.245 51.6762C211.205 54.4123 216.037 66.9571 213.776 74.8557C211.525 82.744 208.469 123.135 208.469 123.135C208.469 123.135 232.929 124.095 242.427 124.591C251.926 125.087 259.009 123.3 259.009 123.3C259.009 123.3 261.105 105.923 259.009 98.3553C256.913 90.7871 254.177 77.9119 254.177 77.9119C254.177 77.9119 252.401 60.2149 254.817 55.8681C257.233 51.5213 259.009 51.3561 255.953 50.241C252.897 49.1053 249.51 48.1451 247.094 48.1451C244.678 48.1451 243.388 48.1451 241.942 49.6009C240.486 51.0567 237.595 53.9477 233.579 53.3075C229.552 52.6674 226.496 49.9313 226.496 49.9313C226.496 49.9313 225.216 48.6097 224.09 48.4548Z" fill="#0083F9"/>
<path d="M212.422 49.8276C212.422 49.8276 210.171 48.6919 206.794 51.6035C203.16 54.7217 200.517 61.4225 199.237 65.6041C197.946 69.7857 197.141 73.9673 197.141 73.9673C197.141 73.9673 201.807 76.3834 206.64 76.5383C211.472 76.6931 214.683 77.0235 214.683 77.0235C214.683 77.0235 216.779 64.4684 216.293 58.831C215.798 53.2039 215.003 51.2628 212.422 49.8276Z" fill="#0064B7"/>
<path d="M252.978 54.4949C252.978 54.4949 254.908 49.1879 259.255 51.604C263.602 54.02 266.813 63.1989 267.794 66.0898C268.775 68.9808 270.045 74.7834 270.045 74.7834C270.045 74.7834 264.893 77.0343 260.546 77.3544C256.199 77.6744 253.143 77.9945 253.143 77.9945C253.143 77.9945 251.367 66.5648 251.687 62.0528C252.007 57.5511 252.978 54.4949 252.978 54.4949Z" fill="#0064B7"/>
<path d="M217.48 126.573H250.489L233.463 131.818L217.48 126.573Z" fill="#BC0A28"/>
<path d="M188.127 117.26C188.127 117.26 248.322 136.093 261.527 140.76C261.527 140.76 265.874 141.896 266.039 144.136C266.205 146.387 265.719 149.608 265.234 151.219C264.749 152.83 263.303 154.11 260.887 153.635C258.471 153.15 204.565 142.37 183.14 136.733L177.018 134.802C177.018 134.802 172.506 132.706 173.311 127.244C174.116 121.772 178.143 116.95 181.034 116.63C183.935 116.29 188.127 117.26 188.127 117.26Z" fill="#EE384E"/>
<path d="M182.644 143.982C182.644 143.982 190.201 142.691 194.713 142.526C199.225 142.361 205.173 141.886 206.143 142.526C207.103 143.166 207.919 151.859 207.919 151.859C207.919 151.859 208.724 154.275 202.767 153.79C196.82 153.305 183.129 152.83 183.129 152.83C183.129 152.83 180.073 152.665 179.918 149.939C179.763 147.213 180.238 145.912 180.238 145.912C180.238 145.912 180.723 144.302 182.644 143.982Z" fill="#170856"/>
<path d="M218.532 136.259C218.532 136.259 255.062 125.149 268.102 121.298C281.133 117.426 288.391 113.895 292.562 120.007C296.754 126.13 296.434 132.882 291.602 134.813C286.77 136.744 248.784 145.603 233.008 148.814C217.231 152.025 206.938 154.121 205.492 153.481C204.047 152.841 202.436 148.174 202.756 145.592C203.076 143.021 203.241 142.061 206.287 140.76C209.354 139.47 218.532 136.259 218.532 136.259Z" fill="#DE051F"/>
<path d="M214.342 83.147H258.274C258.274 83.147 260.69 82.827 260.69 86.038C260.69 89.2491 260.69 124.023 260.69 124.023C260.69 124.023 260.856 126.594 258.914 126.594C256.984 126.594 207.248 126.594 207.248 126.594C207.248 126.594 205.153 127.235 205.153 123.703C205.153 120.172 205.153 85.0778 205.153 85.0778C205.153 85.0778 204.987 83.147 207.569 83.147C210.15 83.147 214.342 83.147 214.342 83.147Z" fill="#0064B7"/>
<path d="M232.632 102.086L230.148 105.19L233.252 107.674L235.736 104.57L232.632 102.086Z" fill="#569ED4"/>
<path d="M169.323 183C171.625 183 171.625 179.427 169.323 179.427C167.03 179.427 167.02 183 169.323 183Z" fill="#FFB07E"/>
</svg>
