<svg width="450" height="365" viewBox="0 0 450 365" fill="none" xmlns="http://www.w3.org/2000/svg">
<path d="M315.877 323.601C365.769 323.601 406.178 283.103 406.178 233.123C406.178 183.143 365.769 142.645 315.877 142.645C265.986 142.645 225.576 183.143 225.576 233.123C225.576 283.103 265.986 323.601 315.877 323.601Z" stroke="#0054A3" stroke-width="0.907984" stroke-miterlimit="10" stroke-dasharray="5.45 5.45"/>
<path d="M149.72 282.838C199.789 282.838 240.376 242.163 240.376 191.917C240.376 141.759 199.789 100.995 149.72 100.995C99.6514 100.995 59.0646 141.67 59.0646 191.917C58.976 242.163 99.6514 282.838 149.72 282.838Z" stroke="#0054A3" stroke-width="0.907984" stroke-miterlimit="10" stroke-dasharray="5.45 5.45"/>
<path d="M49.3169 298.877L41.873 306.321L49.3169 313.765L56.7608 306.321L49.3169 298.877Z" fill="#EE384E"/>
<path d="M349.198 158.685L343.615 164.267L349.198 169.85L354.781 164.267L349.198 158.685Z" fill="#003EB0"/>
<path d="M403.875 323.689L395.279 332.374L403.875 341.058L412.471 332.374L403.875 323.689Z" fill="#003EB0"/>
<path d="M289.381 106.223L284.33 111.274L289.381 116.325L294.432 111.274L289.381 106.223Z" fill="#003EB0"/>
<path d="M341.399 238.618C341.399 238.618 346.628 224.35 358.502 227.806C370.377 231.263 375.428 249.163 367.275 256.43C359.211 263.697 351.236 260.949 352.21 269.191C353.097 277.521 352.033 301.004 340.247 301.004C328.461 301.004 324.473 288.775 312.421 299.055C300.369 309.335 305.243 336.008 282.646 329.362C259.96 322.804 224.956 301.536 252.87 274.065C280.873 246.593 284.33 282.927 299.749 256.962C315.168 230.997 320.131 246.062 329.968 247.391C339.804 248.632 341.399 238.618 341.399 238.618Z" fill="#1F3C6E"/>
<path d="M335.286 263.606C335.286 263.606 298.422 279.469 271.127 304.016C243.833 328.563 241.529 337.779 241.529 337.779" fill="#EE384E"/>
<path d="M188.532 280.356C188.532 280.356 155.567 225.945 120.031 199.803" stroke="#FCBE42" stroke-width="0.494306" stroke-miterlimit="10"/>
<path d="M95.4863 186.953C95.4863 186.953 103.285 204.854 123.755 202.55C123.755 202.55 119.413 185.89 95.4863 186.953Z" stroke="#FCBE42" stroke-width="0.494306" stroke-miterlimit="10"/>
<path d="M149.984 228.072C149.984 228.072 135.983 216.729 118.082 228.958C118.082 228.958 127.387 242.782 149.984 228.072Z" stroke="#FCBE42" stroke-width="0.494306" stroke-miterlimit="10"/>
<path d="M176.041 261.57C176.041 261.57 164.432 247.657 144.582 256.164C144.582 256.164 150.962 271.495 176.041 261.57Z" stroke="#FCBE42" stroke-width="0.494306" stroke-miterlimit="10"/>
<path d="M176.747 261.303C176.747 261.303 166.025 246.682 178.963 229.312C179.052 229.312 192.433 239.326 176.747 261.303Z" stroke="#FCBE42" stroke-width="0.494306" stroke-miterlimit="10"/>
<path d="M149.722 228.071C149.722 228.071 137.315 215.044 147.949 196.08C147.949 196.08 162.483 204.233 149.722 228.071Z" stroke="#FCBE42" stroke-width="0.494306" stroke-miterlimit="10"/>
<path d="M336.793 212.031C336.793 212.031 323.235 211.234 328.197 220.893C333.16 230.552 332.894 236.844 322.614 240.212C312.335 243.579 308.347 250.048 309.765 256.252C311.183 262.455 315.702 273.355 301.523 277.165C287.345 280.976 260.316 290.369 254.29 275.393C248.264 260.328 258.81 237.73 269.444 234.717C280.167 231.793 288.851 236.047 293.016 224.438C297.092 212.829 285.484 210.436 293.902 200.6C302.321 190.675 310.119 179.863 325.893 188.548C340.249 196.258 344.326 210.614 336.793 212.031Z" fill="#EE384E"/>
<path d="M321.281 208.842C321.281 208.842 267.756 270.785 257.92 289.661" stroke="white" stroke-width="0.494306" stroke-miterlimit="10"/>
<path d="M300.014 259.619L278.658 260.328L272.543 243.402" stroke="#FCBE42" stroke-width="0.494306" stroke-miterlimit="10"/>
<path d="M321.904 228.16L306.396 226.388L299.572 212.829" stroke="white" stroke-width="0.494306" stroke-miterlimit="10"/>
<path d="M97.8799 233.744C97.8799 233.744 92.6515 219.476 80.7768 222.932C68.902 226.389 63.8508 244.289 72.0036 251.556C80.0678 258.823 88.0434 256.075 87.0686 264.317C86.1824 272.647 87.2458 296.13 99.0319 296.13C110.818 296.13 114.806 283.901 126.858 294.181C138.91 304.46 134.036 331.134 156.633 324.488C179.231 317.842 214.323 296.662 186.409 269.191C158.406 241.719 154.95 278.052 139.53 252.088C124.111 226.123 119.148 241.188 109.312 242.517C99.475 243.758 97.8799 233.744 97.8799 233.744Z" fill="#EE384E"/>
<path d="M103.994 258.733C103.994 258.733 140.859 274.596 168.153 299.143C195.447 323.69 197.751 332.906 197.751 332.906" stroke="white" stroke-width="0.494306" stroke-miterlimit="10" stroke-linecap="round" stroke-linejoin="round"/>
<path d="M270.594 248.631L296.559 288.243C296.559 288.243 301.698 296.307 308.876 294.003C316.941 291.522 367.718 271.76 373.035 269.279C378.441 266.886 389.518 261.658 391.291 253.948C393.063 246.327 387.391 243.402 387.391 243.402C387.391 243.402 385.619 242.073 384.024 244.643C382.429 247.124 378.884 254.214 378.884 254.214C378.884 254.214 376.314 257.05 376.935 253.328C377.555 249.606 378.264 245.795 375.251 249.074C372.149 252.441 371.263 258.379 361.338 261.569C351.324 264.848 314.459 274.33 314.459 274.33C314.459 274.33 310.649 276.102 307.37 272.114C304.003 268.038 288.406 237.908 288.406 237.908L270.594 248.631Z" fill="#FDC09B"/>
<path d="M173.557 247.392L147.769 286.561C147.769 286.561 142.629 294.447 135.451 292.232C127.387 289.839 76.964 270.255 71.6469 267.774C66.2413 265.381 55.2527 260.241 53.4804 252.531C51.708 244.999 57.2909 242.075 57.2909 242.075C57.2909 242.075 59.0633 240.834 60.6584 243.227C62.2535 245.708 65.7982 252.709 65.7982 252.709C65.7982 252.709 68.3681 255.544 67.7478 251.823C67.1274 248.101 66.5071 244.379 69.4315 247.658C72.3559 251.025 73.3307 256.874 83.2558 260.064C93.2696 263.343 129.869 272.736 129.869 272.736C129.869 272.736 133.59 274.509 136.958 270.521C140.325 266.533 155.833 236.669 155.833 236.669L173.557 247.392Z" fill="#FDC09B"/>
<path d="M175.42 150.532C175.42 150.532 180.914 149.025 179.939 137.771C178.965 126.516 172.23 117.211 182.332 111.451C192.434 105.691 195.713 103.653 200.41 98.8677C205.107 94.0823 207.854 90.2718 223.982 91.8669C223.982 91.8669 236.743 81.4986 248.086 90.8035C259.429 100.108 255.885 124.212 258.366 128.023C260.847 131.833 276.178 146.898 277.773 159.748C279.457 172.597 270.861 180.573 258.366 179.953C245.871 179.332 229.033 179.953 229.033 179.953L189.51 173.04C189.51 172.863 176.749 165.774 175.42 150.532Z" fill="#180857"/>
<path d="M212.106 164.534C212.106 164.534 212.372 177.118 209.625 181.283C206.966 185.448 201.826 186.954 201.826 186.954C201.826 186.954 207.32 204.323 216.271 203.969C225.221 203.614 235.146 198.12 238.78 196.082C242.413 194.043 241.438 188.017 241.438 188.017C241.438 188.017 235.235 186.334 232.665 178.624C230.095 171.003 230.184 159.571 230.184 159.571L212.106 164.534Z" fill="#FFB07E"/>
<path d="M282.202 339.819C282.202 339.819 294.697 340.439 303.736 340.439C312.686 340.439 327.131 342.3 327.131 342.3C327.131 342.3 330.942 342.3 331.207 346.908C331.473 351.516 331.473 353.377 331.473 353.377C331.473 353.377 331.739 358.96 327.397 358.96C323.055 358.96 295.317 362.062 289.114 362.062C282.911 362.062 278.214 363.302 278.214 358.96C278.214 354.706 277.948 339.464 282.202 339.819Z" fill="#160758"/>
<path d="M223.627 319.879L177.9 305.08" stroke="#B70B28" stroke-width="0.123577" stroke-miterlimit="10"/>
<path d="M135.718 291.876C135.718 291.876 252.338 328.12 277.86 336.982C277.86 336.982 286.279 339.109 286.544 343.451C286.81 347.794 285.924 353.997 285.038 357.098C284.152 360.2 281.227 362.681 276.619 361.706C271.923 360.82 167.531 340.084 126.058 329.272L114.184 325.551C114.184 325.551 105.499 321.474 107.006 311.017C108.512 300.472 116.399 291.167 121.893 290.547C127.653 290.015 135.718 291.876 135.718 291.876Z" fill="#003EB0"/>
<path d="M125.173 343.275C125.173 343.275 139.795 340.883 148.568 340.44C157.252 340.174 168.772 339.199 170.722 340.44C172.583 341.68 174.178 358.34 174.178 358.34C174.178 358.34 175.685 362.948 164.164 362.062C152.644 361.176 126.148 360.201 126.148 360.201C126.148 360.201 120.21 359.935 119.944 354.618C119.678 349.39 120.565 346.909 120.565 346.909C120.565 346.909 121.362 343.807 125.173 343.275Z" fill="#160758"/>
<path d="M194.649 328.386C194.649 328.386 265.455 307.029 290.71 299.674C315.966 292.319 329.968 285.406 338.121 297.281C346.185 308.979 345.565 322.094 336.26 325.727C326.866 329.449 253.314 346.464 222.741 352.667C192.168 358.87 172.229 362.858 169.393 361.706C166.646 360.465 163.456 351.515 164.076 346.552C164.697 341.59 164.962 339.729 170.9 337.248C176.837 334.5 194.649 328.386 194.649 328.386Z" fill="#0064E1"/>
<path d="M257.921 294.978H186.407L177.988 305.08L224.069 319.613L265.631 307.207L257.921 294.978Z" fill="#0064B7"/>
<path d="M290.798 237.996L274.227 204.765C274.227 204.765 264.213 182.433 239.223 184.826L244.362 196.701L270.15 250.757L290.798 237.996Z" fill="#F79F03"/>
<path d="M153.355 236.933L169.838 203.968C169.838 203.968 179.763 181.902 204.665 184.295L199.525 195.992L173.826 249.517L153.355 236.933Z" fill="#F79F03"/>
<path d="M221.233 174.724C232.754 174.724 242.058 158.95 242.058 139.454C242.058 119.958 232.754 104.185 221.233 104.185C209.713 104.185 200.408 119.958 200.408 139.454C200.408 158.95 209.713 174.724 221.233 174.724Z" fill="#FFBE9B"/>
<path d="M201.827 135.29C201.827 135.29 193.94 134.493 192.788 139.278C191.725 144.063 195.269 148.405 201.827 149.38C208.385 150.355 201.827 135.29 201.827 135.29Z" fill="#FFBE9B"/>
<path d="M186.407 294.978H258.01C258.01 294.978 259.516 232.237 256.858 215.222C255.086 203.879 251.364 192.536 244.097 186.599C244.097 186.599 241.97 184.561 239.4 185.004C238.603 185.181 237.717 185.624 236.83 186.599C233.463 190.409 228.057 197.144 218.575 195.992C209.182 194.929 207.055 187.13 207.055 187.13C207.055 187.13 204.662 181.548 200.231 185.89C195.712 190.232 183.926 194.929 183.926 230.553L186.407 294.978Z" fill="#FCBE42"/>
<path d="M223.982 128.555C236.743 123.592 244.984 114.199 242.414 107.552C239.844 100.906 227.438 99.4882 214.677 104.451C201.916 109.413 193.675 118.807 196.245 125.453C198.815 132.099 211.221 133.517 223.982 128.555Z" fill="#180857"/>
<path d="M235.059 230.996L223.095 237.908C222.652 238.174 222.209 238.174 221.766 237.908L209.803 230.996C209.36 230.73 209.094 230.287 209.094 229.844V216.108C209.094 215.665 209.36 215.222 209.803 214.956L221.766 208.044C222.209 207.778 222.652 207.778 223.095 208.044L235.059 214.956C235.502 215.222 235.768 215.665 235.768 216.108V229.755C235.679 230.287 235.413 230.73 235.059 230.996Z" fill="white"/>
<path d="M222.385 222.932L231.69 217.438L222.385 212.476V222.932Z" fill="#0A489B"/>
<path d="M222.385 233.123L213.08 227.895V217.438L222.385 212.476V233.123Z" fill="#0F68DE"/>
<path d="M222.03 223.109L213.08 227.895" stroke="#D9D9D9" stroke-width="0.0907984" stroke-miterlimit="10" stroke-linecap="square" stroke-linejoin="bevel"/>
<path d="M222.385 222.932L213.08 217.438L222.385 212.476V222.932Z" fill="#0F68DE"/>
<path d="M222.385 233.389L213.08 227.895L222.385 222.933V233.389Z" fill="#3F86E4"/>
<path d="M226.958 15.3551L219.78 2.9487C220.046 2.68285 220.312 2.59423 220.577 2.41699C218.451 3.12593 217.476 5.42998 217.476 5.42998L204.36 28.0274C204.183 28.7364 204.095 29.3567 204.183 29.977H218.539L226.958 15.3551Z" fill="#34A853"/>
<path d="M226.955 15.3573L235.462 30.0678H249.818C249.818 29.5361 249.818 28.8272 249.641 28.1182L236.437 5.5208C236.437 5.5208 235.462 3.21675 233.336 2.50781C233.601 2.59643 233.867 2.77366 234.133 3.03952L226.955 15.3573Z" fill="#FBBC05"/>
<path d="M226.955 15.3566L234.133 2.95015C233.867 2.6843 233.601 2.59568 233.335 2.41844C232.981 2.32983 232.715 2.24121 232.36 2.24121H232.006H221.992H221.638C221.283 2.24121 220.929 2.32983 220.663 2.41844C220.397 2.50706 220.131 2.6843 219.865 2.95015L226.955 15.3566Z" fill="#188038"/>
<path d="M218.449 30.0674L211.36 42.2966C211.36 42.2966 211.094 42.208 210.828 41.9421C211.803 42.7397 212.778 42.8283 212.778 42.8283H240.692C242.199 42.8283 242.553 42.2966 242.553 42.2966L235.464 30.0674H218.449Z" fill="#4285F4"/>
<path d="M218.448 30.0674H204.092C204.18 31.7511 204.889 32.7259 204.889 32.7259L205.421 33.6121C205.421 33.7007 205.51 33.7007 205.51 33.7007L206.662 35.7389L209.32 40.2584C209.409 40.4356 209.497 40.6128 209.586 40.7901C209.586 40.8787 209.675 40.8787 209.675 40.9673C209.675 40.9673 209.675 40.9673 209.675 41.0559C210.029 41.499 210.384 41.8535 210.738 42.1193C211.093 42.3852 211.27 42.4738 211.27 42.4738L218.448 30.0674Z" fill="#1967D2"/>
<path d="M235.463 30.0674H249.819C249.73 31.7511 249.021 32.7259 249.021 32.7259L248.49 33.6121C248.49 33.7007 248.401 33.7007 248.401 33.7007L247.249 35.7389L244.59 40.2584C244.502 40.4356 244.413 40.6128 244.325 40.7901C244.325 40.8787 244.236 40.8787 244.236 40.9673C244.236 40.9673 244.236 40.9673 244.236 41.0559C243.882 41.499 243.527 41.8535 243.173 42.1193C242.818 42.3852 242.641 42.4738 242.641 42.4738L235.463 30.0674Z" fill="#EA4335"/>
<path d="M294.288 55.5286L294.32 63.7125L294.342 69.4266C294.347 70.7905 295.458 71.8922 296.785 71.887L320.489 71.7945L320.457 63.6105L302.467 63.6807L302.435 55.4968L294.288 55.5286Z" fill="#FBC02D"/>
<path d="M328.609 55.3954L328.641 63.5794L320.457 63.6113L320.425 55.4274L328.609 55.3954Z" fill="#4CAF50"/>
<path d="M320.458 63.611L328.642 63.579L328.665 69.2931C328.67 70.657 327.568 71.7673 326.204 71.7726L320.49 71.7949L320.458 63.611Z" fill="#2E7D32"/>
<path d="M320.392 47.2778L320.424 55.4249L302.434 55.4951L302.402 47.348L320.392 47.2778Z" fill="#1E88E5"/>
<path d="M320.426 55.4238L320.394 47.2399L326.108 47.2176C327.472 47.2123 328.582 48.3139 328.587 49.6779L328.61 55.3919L320.426 55.4238Z" fill="#1565C0"/>
<path d="M302.404 47.3465L302.436 55.4936L294.289 55.5254L302.404 47.3465Z" fill="#E53935"/>
<path d="M116.068 54.5371L116.124 65.3961L123.891 65.3561L123.835 54.4971L116.068 54.5371Z" fill="#1E88E5"/>
<path d="M142.523 59.8286L142.579 70.7236C142.586 72.018 141.548 73.0661 140.254 73.0728L123.93 73.1569L123.889 65.3543L134.784 65.2981L134.756 59.8687L142.523 59.8286Z" fill="#4CAF50"/>
<path d="M142.467 48.9373L142.523 59.8322L134.756 59.8723L134.728 54.4428L123.833 54.4989L123.793 46.6963L140.117 46.6122C141.412 46.6055 142.46 47.6429 142.467 48.9373Z" fill="#FBC02D"/>
<path d="M123.888 65.3555L123.928 73.1222L118.498 73.1501C117.204 73.1568 116.156 72.1194 116.149 70.825L116.121 65.3955L123.888 65.3555Z" fill="#1565C0"/>
<path d="M123.794 46.6944L123.834 54.497L116.068 54.537L123.794 46.6944Z" fill="#E53935"/>
<path d="M143.314 59.826L142.557 66.4102L134.757 59.8701L142.489 53.25L143.314 59.826Z" fill="#2E7D32"/>
<path d="M149.482 49.0086L149.594 70.5827C149.597 71.2299 148.844 71.5934 148.338 71.2005L142.56 66.4119L142.493 53.2517L148.221 48.4038C148.722 47.9697 149.479 48.3254 149.482 49.0086Z" fill="#4CAF50"/>
<path d="M380.678 107.2L381.528 108.41L382.836 107.461V114.33H384.243V105.303H383.065L380.678 107.2Z" fill="#1E88E5"/>
<path d="M378.418 109.559C378.941 109.101 379.269 108.414 379.269 107.695C379.269 106.256 377.993 105.078 376.456 105.078C375.148 105.078 374.003 105.896 373.708 107.106L375.082 107.466C375.213 106.91 375.802 106.517 376.456 106.517C377.241 106.517 377.862 107.04 377.862 107.695C377.862 108.349 377.241 108.872 376.456 108.872H375.638V110.311H376.456C377.339 110.311 378.091 110.933 378.091 111.652C378.091 112.404 377.372 112.993 376.488 112.993C375.704 112.993 375.017 112.502 374.919 111.816L373.545 112.045C373.774 113.385 375.049 114.399 376.521 114.399C378.189 114.399 379.53 113.157 379.53 111.619C379.497 110.802 379.072 110.049 378.418 109.559Z" fill="#1E88E5"/>
<path d="M387.548 124.568H371.064V117.994H387.548V124.568Z" fill="#FBC02D"/>
<path d="M394.121 117.998V101.514H387.547V117.998H394.121Z" fill="#4CAF50"/>
<path d="M387.548 101.512V94.9385H366.943C365.569 94.9385 364.457 96.0505 364.457 97.4241V118.029H371.031V101.512H387.548Z" fill="#1E88E5"/>
<path d="M387.545 117.996V124.57L394.119 117.996H387.545Z" fill="#E53935"/>
<path d="M391.666 94.9385H387.545V101.512H394.119V97.3914C394.119 96.0178 393.04 94.9385 391.666 94.9385Z" fill="#1565C0"/>
<path d="M366.943 124.568H371.064V117.994H364.49V122.115C364.49 123.489 365.57 124.568 366.943 124.568Z" fill="#1565C0"/>
<path d="M72.7441 102.476L64.6791 108.787L56.4297 102.476V102.477L56.4397 102.486V111.323L64.5861 117.77L72.7441 111.572V102.476Z" fill="#EA4335"/>
<path d="M75.0105 100.962L72.7422 102.506V111.654L79.8797 106.494V103.386C79.8797 103.386 79.0134 98.9469 75.0105 100.962Z" fill="#FBBC05"/>
<path d="M72.7422 111.808V123.889H78.2114C78.2114 123.889 79.7678 123.735 79.8797 122.034V106.555L72.7422 111.808Z" fill="#34A853"/>
<path d="M56.4286 102.548L54.1694 100.975C50.1605 98.9104 49.291 103.457 49.291 103.457V106.641L56.4286 111.654V102.548Z" fill="#C5221F"/>
<path d="M49.291 106.555V122.034C49.4013 123.737 50.9594 123.889 50.9594 123.889H56.4286L56.4161 111.534L49.291 106.555Z" fill="#4285F4"/>
<path d="M47.7055 166.1L34.4772 179.328C34.0315 179.774 33.7812 180.378 33.7812 181.008V195.068C33.7812 195.942 34.4899 196.651 35.3648 196.651H62.2853C63.1602 196.651 63.8688 195.942 63.8688 195.068V181.008C63.8688 180.378 63.6186 179.774 63.1729 179.329L49.9446 166.1C49.3262 165.481 48.3238 165.481 47.7055 166.1Z" fill="#FAFAFA"/>
<path d="M39.3242 190.317H58.3269V196.652H39.3242V190.317Z" fill="#43A047"/>
<path d="M40.1155 181.608V196.652H35.3648C34.4939 196.652 33.7812 195.94 33.7812 195.069V181.608H40.1155Z" fill="#FBC02D"/>
<path d="M63.1728 179.328L53.2518 169.407L48.8574 173.802L57.5353 182.479V196.652H62.286C63.1569 196.652 63.8695 195.94 63.8695 195.069V181.007C63.8695 180.381 63.6162 179.772 63.1728 179.328Z" fill="#1E88E5"/>
<path d="M53.2511 169.407L33.7812 188.876V181.006C33.7812 180.381 34.0346 179.771 34.478 179.328L47.7086 166.097C48.3262 165.479 49.3239 165.479 49.9414 166.097L53.2511 169.407Z" fill="#E64A19"/>
<path d="M405.815 173.207L396.249 167.684L385.203 186.377L394.769 191.9L405.815 173.207Z" fill="#FFC107"/>
<path d="M407.294 191.901C408.82 194.542 412.263 195.422 414.839 193.922C417.476 192.387 418.386 189.019 416.861 186.377L405.814 167.684C404.289 165.042 400.856 164.163 398.27 165.662C395.63 167.193 394.723 170.565 396.248 173.207L407.294 191.901Z" fill="#1E88E5"/>
<path d="M389.986 194.662C393.036 194.662 395.509 192.189 395.509 189.138C395.509 186.088 393.036 183.615 389.986 183.615C386.936 183.615 384.463 186.088 384.463 189.138C384.463 192.189 386.936 194.662 389.986 194.662Z" fill="#43A047"/>
</svg>
