<svg width="450" height="365" viewBox="0 0 450 365" fill="none" xmlns="http://www.w3.org/2000/svg">
<g clip-path="url(#clip0_3705_1126)">
<path d="M52.2391 14.2692C52.2391 14.2692 47.1643 8.46028 51.6021 3.98771C56.0399 -0.484854 65.2501 1.64903 66.5243 7.03767C67.7876 12.4263 64.6131 15.2607 68.5326 16.8989C72.4413 18.537 82.6558 24.7447 79.7836 29.9717C76.9223 35.1987 70.4546 33.9916 72.1066 41.8806C73.7586 49.7696 86.8128 54.0805 78.326 62.5622C69.8391 71.0439 51.7964 81.5086 46.3869 62.3358C40.9773 43.1631 58.0482 50.4593 50.2308 37.2464C42.4134 24.0334 50.3604 25.456 53.3621 21.4361C56.3422 17.427 52.2391 14.2692 52.2391 14.2692Z" fill="#023EA1"/>
<path d="M61.9017 23.0967C61.9017 23.0967 59.9581 43.4226 64.18 61.55C68.4018 79.6774 72.019 82.9644 72.019 82.9644" stroke="white" stroke-miterlimit="10" stroke-linecap="round" stroke-linejoin="round"/>
<path d="M8.93987 20.0574C8.93987 20.0574 22.2316 10.6812 24.985 19.2814C27.7492 27.8925 31.5175 27.6338 35.4046 27.1704C39.2917 26.7069 45.8782 22.9888 48.2969 32.2249C50.7263 41.461 48.394 47.1299 52.4539 50.1475C56.5138 53.1759 68.8338 70.7968 60.7788 73.739C52.7238 76.6704 43.0817 69.0724 39.8748 64.7938C36.6679 60.5152 29.5631 60.1919 24.1212 61.302C18.6792 62.4121 11.5097 59.5238 13.7556 52.4539C16.0122 45.384 12.4599 38.0554 7.4714 36.4065C2.50454 34.7576 0.0427013 26.5561 8.93987 20.0574Z" fill="#FCBE42"/>
<path d="M16.2168 28.5488L63.4344 80.8186" stroke="white" stroke-miterlimit="10" stroke-linecap="round" stroke-linejoin="round"/>
<path d="M74.4704 67.2066C74.4704 67.2066 47.8761 40.3065 37.9531 16.0361" stroke="#DE051F" stroke-miterlimit="10"/>
<path d="M34.1414 0C34.1414 0 43.3409 7.12379 39.0435 18.5369C39.0435 18.5369 30.0708 13.6764 34.1414 0Z" stroke="#DE051F" stroke-miterlimit="10"/>
<path d="M49.9485 37.3965C49.9485 37.3965 45.4567 27.6539 55.0881 19.0859C55.0881 19.0859 61.6962 26.4684 49.9485 37.3965Z" stroke="#DE051F" stroke-miterlimit="10"/>
<path d="M65.4968 57.2814C65.4968 57.2814 59.1803 48.6057 66.9545 38.3242C66.9545 38.3135 74.8798 44.2625 65.4968 57.2814Z" stroke="#DE051F" stroke-miterlimit="10"/>
<path d="M65.2407 57.6471C65.2407 57.6471 58.3843 49.3809 46.4746 54.3492C46.4854 54.3492 50.2861 63.4883 65.2407 57.6471Z" stroke="#DE051F" stroke-miterlimit="10"/>
<path d="M49.9927 37.2467C49.9927 37.2467 44.2484 28.183 31.7988 31.5886C31.7988 31.5886 34.4118 41.1372 49.9927 37.2467Z" stroke="#DE051F" stroke-miterlimit="10"/>
<path d="M354.317 169.943C378.259 183.766 408.875 175.563 422.698 151.62C436.521 127.678 428.318 97.0624 404.375 83.2392C380.433 69.4159 349.817 77.6193 335.994 101.562C322.171 125.504 330.374 156.12 354.317 169.943Z" stroke="#DE051F" stroke-miterlimit="10" stroke-dasharray="6 6"/>
<path d="M423.406 143.891C427.451 146.227 432.624 144.841 434.96 140.795C437.295 136.75 435.909 131.577 431.864 129.242C427.818 126.906 422.646 128.292 420.31 132.337C417.975 136.383 419.361 141.555 423.406 143.891Z" fill="#003EB0"/>
<path d="M432.172 135.1L427.066 139.435L425.624 133.345L432.172 135.1Z" fill="white"/>
<path d="M384.734 266.072H58.9921C56.3731 266.072 54.2598 263.957 54.2598 261.335V38.4022C54.2598 35.7805 56.3731 33.665 58.9921 33.665H384.721C387.34 33.665 389.453 35.7805 389.453 38.4022V261.335C389.466 263.944 387.34 266.072 384.734 266.072Z" fill="#0064B7"/>
<path d="M373.493 256.338H67.121C64.502 256.338 62.3887 254.223 62.3887 251.601V78.5321C62.3887 75.9104 64.502 73.7949 67.121 73.7949H373.505C376.124 73.7949 378.238 75.9104 378.238 78.5321V251.601C378.225 254.223 376.112 256.338 373.493 256.338Z" fill="#CCE5FF"/>
<path d="M389.465 63.3859V49.3821C389.465 40.6994 382.282 33.665 373.608 33.665H70.9836C62.3098 33.665 55.127 40.6994 55.127 49.3821V63.3859H389.465Z" fill="#0064B7"/>
<path d="M75.5954 57.3092C77.1954 55.7075 77.1954 53.1108 75.5954 51.5092C73.9954 49.9076 71.4013 49.9076 69.8013 51.5092C68.2013 53.1108 68.2013 55.7075 69.8013 57.3092C71.4013 58.9108 73.9954 58.9108 75.5954 57.3092Z" fill="white"/>
<path d="M85.6107 58.6878C87.8735 58.6878 89.7078 56.8516 89.7078 54.5866C89.7078 52.3215 87.8735 50.4854 85.6107 50.4854C83.348 50.4854 81.5137 52.3215 81.5137 54.5866C81.5137 56.8516 83.348 58.6878 85.6107 58.6878Z" fill="white"/>
<path d="M97.9916 59.2591C100.254 59.2591 102.089 57.4229 102.089 55.1579C102.089 52.8928 100.254 51.0566 97.9916 51.0566C95.7288 51.0566 93.8945 52.8928 93.8945 55.1579C93.8945 57.4229 95.7288 59.2591 97.9916 59.2591Z" fill="white"/>
<path d="M177.897 245.565H75.341C74.4853 245.565 73.7852 244.864 73.7852 244.008V86.2273C73.7852 85.3708 74.4853 84.6699 75.341 84.6699H177.897C178.753 84.6699 179.453 85.3708 179.453 86.2273V243.995C179.453 244.864 178.753 245.565 177.897 245.565Z" fill="white"/>
<path d="M168.136 106.444H84.9149C84.2205 106.444 83.6523 106.411 83.6523 106.369V98.7249C83.6523 98.6834 84.2205 98.6494 84.9149 98.6494H168.136C168.83 98.6494 169.398 98.6834 169.398 98.7249V106.368C169.398 106.411 168.83 106.444 168.136 106.444Z" fill="#EAF4FF"/>
<path d="M168.136 122.815H84.9149C84.2205 122.815 83.6523 122.781 83.6523 122.739V115.095C83.6523 115.053 84.2205 115.02 84.9149 115.02H168.136C168.83 115.02 169.398 115.053 169.398 115.095V122.739C169.398 122.781 168.83 122.815 168.136 122.815Z" fill="#EAF4FF"/>
<path d="M168.136 139.184H84.9149C84.2205 139.184 83.6523 139.15 83.6523 139.108V131.464C83.6523 131.423 84.2205 131.389 84.9149 131.389H168.136C168.83 131.389 169.398 131.423 169.398 131.464V139.108C169.398 139.15 168.83 139.184 168.136 139.184Z" fill="#EAF4FF"/>
<path d="M168.136 155.553H84.9149C84.2205 155.553 83.6523 155.519 83.6523 155.477V147.833C83.6523 147.792 84.2205 147.758 84.9149 147.758H168.136C168.83 147.758 169.398 147.792 169.398 147.833V155.477C169.398 155.519 168.83 155.553 168.136 155.553Z" fill="#EAF4FF"/>
<path d="M168.136 171.923H84.9149C84.2205 171.923 83.6523 171.889 83.6523 171.848V164.203C83.6523 164.162 84.2205 164.128 84.9149 164.128H168.136C168.83 164.128 169.398 164.162 169.398 164.203V171.847C169.398 171.889 168.83 171.923 168.136 171.923Z" fill="#EAF4FF"/>
<path d="M365.247 161.4H188.14C187.284 161.4 186.584 160.699 186.584 159.843V86.1766C186.584 85.32 187.284 84.6191 188.14 84.6191H365.247C366.102 84.6191 366.803 85.32 366.803 86.1766V159.843C366.803 160.699 366.102 161.4 365.247 161.4Z" fill="white"/>
<path d="M352.567 106.444H197.474C196.18 106.444 195.121 106.427 195.121 106.407V102.585C195.121 102.564 196.18 102.547 197.474 102.547H352.567C353.861 102.547 354.92 102.564 354.92 102.585V106.406C354.92 106.427 353.861 106.444 352.567 106.444Z" fill="#EAF4FF"/>
<path d="M352.567 118.917H197.474C196.18 118.917 195.121 118.9 195.121 118.879V115.057C195.121 115.037 196.18 115.02 197.474 115.02H352.567C353.861 115.02 354.92 115.037 354.92 115.057V118.879C354.92 118.9 353.861 118.917 352.567 118.917Z" fill="#EAF4FF"/>
<path d="M352.567 131.389H197.474C196.18 131.389 195.121 131.372 195.121 131.351V127.529C195.121 127.508 196.18 127.491 197.474 127.491H352.567C353.861 127.491 354.92 127.508 354.92 127.529V131.351C354.92 131.372 353.861 131.389 352.567 131.389Z" fill="#EAF4FF"/>
<path d="M352.567 143.861H197.474C196.18 143.861 195.121 143.844 195.121 143.824V140.002C195.121 139.981 196.18 139.964 197.474 139.964H352.567C353.861 139.964 354.92 139.981 354.92 140.002V143.823C354.92 143.844 353.861 143.861 352.567 143.861Z" fill="#EAF4FF"/>
<path d="M364.456 242.931H187.349C186.493 242.931 185.793 242.23 185.793 241.374V172.107C185.793 171.251 186.493 170.55 187.349 170.55H364.456C365.311 170.55 366.011 171.251 366.011 172.107V241.374C366.011 242.23 365.311 242.931 364.456 242.931Z" fill="white"/>
<path d="M340.762 193.749H229.549C228.621 193.749 227.861 193.732 227.861 193.711V189.889C227.861 189.869 228.621 189.852 229.549 189.852H340.762C341.69 189.852 342.449 189.869 342.449 189.889V193.711C342.449 193.732 341.69 193.749 340.762 193.749Z" fill="#EAF4FF"/>
<path d="M340.762 204.662H229.549C228.621 204.662 227.861 204.645 227.861 204.624V200.802C227.861 200.782 228.621 200.765 229.549 200.765H340.762C341.69 200.765 342.449 200.782 342.449 200.802V204.624C342.449 204.645 341.69 204.662 340.762 204.662Z" fill="#EAF4FF"/>
<path d="M340.762 215.575H229.549C228.621 215.575 227.861 215.558 227.861 215.538V211.715C227.861 211.695 228.621 211.678 229.549 211.678H340.762C341.69 211.678 342.449 211.695 342.449 211.715V215.537C342.449 215.558 341.69 215.575 340.762 215.575Z" fill="#EAF4FF"/>
<path d="M340.762 226.488H229.549C228.621 226.488 227.861 226.471 227.861 226.451V222.629C227.861 222.608 228.621 222.591 229.549 222.591H340.762C341.69 222.591 342.449 222.608 342.449 222.629V226.45C342.449 226.471 341.69 226.488 340.762 226.488Z" fill="#EAF4FF"/>
<circle cx="204.085" cy="192.58" r="8.96433" fill="#EAF4FF"/>
<path d="M187.172 309.141C187.172 309.141 169.992 310.153 177.476 311.155C184.951 312.167 195.255 312.167 198.896 311.762C202.527 311.358 190.002 309.343 187.172 309.141Z" fill="#023EA1"/>
<path d="M185.984 311.406L185.733 359.254C185.733 359.254 178.297 359.447 176.974 361.182C175.651 362.927 177.177 364.016 184.835 363.833C192.493 363.65 197.08 363.659 197.08 363.659C197.08 363.659 200.798 363.235 196.433 361.037C192.068 358.84 188.563 359.476 188.563 359.476L188.321 311.454L185.984 311.406Z" fill="#023EA1"/>
<path d="M179.222 249.987C179.222 249.987 172.143 247.471 171.361 254.064C171.361 254.064 169.555 258.855 167.74 259.713C165.934 260.58 161.453 262.228 162.554 268.426C163.655 274.624 165.383 274.239 164.678 277.844C163.973 281.458 165.702 281.844 168.213 281.921C170.724 281.998 171.438 279.646 171.438 279.646L170.733 271.636L172.385 258.768L177.735 256.647C177.735 256.647 180.487 253.197 180.719 251.857C180.951 250.536 179.222 249.987 179.222 249.987Z" fill="#170856"/>
<path d="M178.275 248.204C178.275 248.204 177.155 249.37 177.416 249.573C177.676 249.775 180.728 251.366 180.728 251.366C180.728 251.366 181.617 249.66 181.52 249.158C181.443 248.657 178.275 248.204 178.275 248.204Z" fill="#F05051"/>
<path d="M196.991 239.587C197.155 239.606 197.262 239.741 197.262 239.905C197.223 241.437 196.866 248.84 193.969 251.578C193.969 251.578 192.433 253.583 189.488 252.754C189.488 252.754 186.832 251.163 187.247 254.402C187.663 257.641 186.301 260.821 185.239 261.284C184.176 261.756 179.811 260.58 178.807 258.749C178.141 257.535 177.783 256.918 177.619 256.648C177.552 256.532 177.561 256.397 177.658 256.291C178.256 255.607 180.507 252.85 181.55 249.043C182.757 244.628 182.11 240.387 186.175 239.51C189.768 238.729 195.659 239.413 196.991 239.587Z" fill="#FFBE97"/>
<path d="M200.806 239.23C200.796 239.162 200.786 239.095 200.786 239.037C200.758 238.603 200.796 238.17 200.748 237.736C200.613 236.396 200.168 234.969 199.116 234.054C198.324 233.379 197.3 233.109 196.277 233.109C196.045 233.109 195.823 233.022 195.678 232.849C194.983 232.068 192.723 229.822 189.613 229.822C185.847 229.822 179.406 231.856 177.667 238.276C177.667 238.285 177.658 238.295 177.658 238.314C177.551 238.748 175.099 248.821 180.024 249.129C185.055 249.447 187.102 246.97 186.948 244.734C186.948 244.734 184.476 240.3 188.676 241.437C188.676 241.437 193.003 242.247 196.016 240.483C196.393 240.261 196.866 240.396 197.078 240.772C197.677 241.804 198.874 243.404 199.995 242.064C200.41 241.572 200.806 241.003 200.922 240.358C200.98 239.943 200.864 239.596 200.806 239.23Z" fill="#170856"/>
<path d="M177.592 256.359C177.592 256.359 180.045 260.302 183.551 260.263C187.047 260.225 187.269 256.6 187.269 256.6C187.269 256.6 194.396 263.001 194.319 267.242C194.241 271.483 192.822 270.77 192.435 272.187C192.04 273.604 194.792 288.592 194.792 288.592L195.207 289.479L175.062 292.207C175.062 292.207 174.28 288.987 173.73 287.966C173.179 286.944 170.35 260.658 170.35 260.658L171.682 259.241C171.673 259.241 174.039 256.581 177.592 256.359Z" fill="#0083F9"/>
<path d="M168.688 272.273C168.688 272.273 166.689 259.26 171.759 258.614C176.713 257.988 176.79 262.065 176.944 268.109C177.099 274.152 177.022 275.482 177.022 275.482L169.161 276.899L168.688 272.273Z" fill="#0064B7"/>
<path d="M176.788 275.531C176.914 275.511 177.03 275.598 177.039 275.723L177.455 280.707C177.426 281.468 177.561 282.162 178.266 281.883C178.662 281.728 179.154 281.487 179.772 281.14C182.013 279.887 188.811 276.591 190.926 275.559C191.303 275.376 191.583 275.049 191.728 274.653C191.96 274.027 192.51 273.092 193.775 272.735C195.745 272.186 199.125 272.263 199.203 272.504C199.28 272.745 199.676 274.384 199.521 274.933C199.367 275.482 197.715 275.01 197.715 275.01C197.715 275.01 194.644 274.461 195.513 275.559C196.016 276.196 196.73 276.282 197.242 276.234C197.445 276.215 197.551 276.485 197.387 276.61C196.962 276.938 196.209 277.343 194.963 277.516C192.684 277.834 176.566 288.35 176.566 288.35C176.566 288.35 173.418 290.779 171.612 284.35C170.231 279.444 169.546 277.699 169.294 277.14C169.236 277.015 169.314 276.87 169.449 276.851L176.788 275.531Z" fill="#FEBD96"/>
<path d="M203.578 282.538L194.375 286.336L193.4 280.581L197.146 280.359L203.578 282.538Z" fill="#FEBD96"/>
<path d="M209.882 264.185L224.436 263.327L209.332 282.316L195.416 282.788L209.882 264.185Z" fill="#09015D"/>
<path d="M209.972 280.985C209.972 280.985 209.421 277.535 210.6 276.985C211.778 276.436 212.541 277.718 212.463 278.344C212.376 279.038 210.068 281.381 210.068 281.381L209.972 280.985Z" fill="#FEBD96"/>
<path d="M195.205 289.479L223.568 300.255C223.568 300.255 227.102 300.959 227.971 310.501C228.84 320.034 229.545 351.631 229.545 351.631L229.584 352.653L222.505 352.768L218.971 319.099L202.187 298.886L188.58 290.365L195.205 289.479Z" fill="#EE384E"/>
<path d="M174.878 291.599L188.649 290.365L217.65 304.824C217.65 304.824 225.482 309.431 220.46 317.779C215.429 326.126 201.406 351.592 201.406 351.592L196.578 347.997L208.968 313.759C208.968 313.759 209.267 311.995 205.134 311.696C201.271 311.417 183.019 309.643 180.653 309.412C180.451 309.393 180.267 309.354 180.074 309.277C178.645 308.756 173.073 306.058 174.84 296.332L175.052 292.216L174.878 291.599Z" fill="#DE051F"/>
<path d="M229.584 352.643L235.745 356.026C236.064 356.199 236.402 356.325 236.759 356.383C237.426 356.479 238.585 356.797 238.585 357.751C238.585 357.751 238.739 358.85 235.755 358.619C232.771 358.387 223.336 358.465 223.336 358.465C223.336 358.465 222.119 358.195 222.312 355.486L222.505 352.778L229.584 352.643Z" fill="#130452"/>
<path d="M201.395 351.582C201.395 351.582 201.443 353.182 203.046 355.38C203.925 356.594 204.881 357.77 205.866 358.907C206.127 359.206 206.407 359.457 206.542 359.833C206.629 360.083 206.696 360.344 206.706 360.604C206.716 360.855 206.658 361.134 206.436 361.288C206.098 361.52 205.595 361.394 205.238 361.298C205.132 361.269 205.026 361.23 204.929 361.202C202.505 360.334 195.272 354.464 193.737 353.201C193.543 353.037 193.427 352.806 193.418 352.546C193.418 352.006 193.505 351.042 194.152 350.29C195.098 349.191 196.556 347.996 196.556 347.996L201.395 351.582Z" fill="#130452"/>
<path d="M113.073 291.107C113.099 291.107 113.125 291.107 113.151 291.107L145.033 291.081C145.824 291.081 146.459 290.445 146.459 289.653C146.459 288.862 145.811 288.213 145.033 288.226L113.151 288.252C112.36 288.252 111.725 288.888 111.725 289.679C111.712 290.445 112.308 291.068 113.073 291.107Z" fill="url(#paint0_linear_3705_1126)"/>
<path d="M157.364 259.855C157.351 259.881 157.338 259.894 157.325 259.92L143.906 288.862C143.569 289.576 143.88 290.432 144.593 290.757C145.306 291.094 146.162 290.783 146.486 290.056L159.905 261.114C160.242 260.4 159.931 259.543 159.218 259.219C158.531 258.907 157.714 259.193 157.364 259.855Z" fill="url(#paint1_linear_3705_1126)"/>
<path d="M133.426 294.948C133.31 295.532 121.783 346.071 118.853 358.893C118.516 360.373 119.735 361.736 121.317 361.658C122.419 361.606 123.339 360.84 123.56 359.802L137.977 294.598L133.426 294.948Z" fill="#023EA1"/>
<path d="M104.956 361.309C99.4073 361.309 96.9439 360.829 95.8418 360.4C96.0492 361.309 96.8661 362.036 97.8903 362.036H117.546C118.207 362.036 118.622 361.4 118.466 360.829C116.236 360.997 111.478 361.309 104.956 361.309Z" fill="url(#paint2_linear_3705_1126)"/>
<path d="M118.468 360.816C118.442 360.699 118.39 360.582 118.312 360.478C116.821 358.57 113.813 355.559 109.716 355.624C103.726 355.715 101.562 357.367 96.9073 356.666L95.8822 359.31C95.7655 359.686 95.7655 360.05 95.8433 360.4C96.9453 360.841 99.3958 361.309 104.958 361.309C111.48 361.309 116.238 360.997 118.468 360.816Z" fill="#170856"/>
<path d="M98.3289 351.73L96.9805 356.325C96.9805 356.325 99.9625 357.688 102.594 356.597L103.113 352.626L98.3289 351.73Z" fill="url(#paint3_linear_3705_1126)"/>
<path d="M139.056 358.415C134.726 361.893 132.509 363.074 131.381 363.424C132.12 363.995 133.196 364.047 134 363.411L149.312 351.095C149.831 350.679 149.753 349.927 149.273 349.576C147.652 351.108 144.139 354.326 139.056 358.415Z" fill="url(#paint4_linear_3705_1126)"/>
<path d="M149.285 349.563C149.194 349.498 149.078 349.433 148.948 349.407C146.588 348.862 142.374 348.421 139.224 351.029C134.608 354.858 133.377 356.662 129.318 359.05L130.732 362.567C130.874 362.931 131.108 363.216 131.38 363.437C132.508 363.086 134.725 361.918 139.055 358.427C144.138 354.326 147.651 351.107 149.285 349.563Z" fill="#170856"/>
<path d="M69.4818 299.439C69.4818 299.439 102.738 302.152 109.558 305.371C116.377 308.589 102.751 356.666 102.751 356.666C102.751 356.666 101.04 357.951 96.9044 356.666C96.9044 356.666 102.245 319.997 99.0947 312.794L63.0898 306.902L69.4818 299.439Z" fill="#DE051F"/>
<path d="M84.5007 239.562C84.5007 239.562 83.0868 243.596 80.8298 247.521C78.5728 251.446 77.5082 252.983 77.5082 252.983C77.5082 252.983 81.7112 259.497 86.8618 259.366C91.9939 259.242 88.33 257.278 88.33 257.278C88.33 257.278 88.3735 251.536 89.0711 246.55C89.7688 241.564 89.7676 241.572 89.7676 241.572L84.5007 239.562Z" fill="#FFB48F"/>
<path d="M96.5493 229.808C96.5493 229.808 98.5923 233.483 97.7778 239.304C96.9644 245.116 95.5493 249.159 93.0324 248.807C90.5156 248.455 85.7231 246.09 85.1225 244.311C84.5219 242.533 82.8469 242.298 83.3108 238.983C83.7747 235.667 89.005 228.77 92.3637 229.24C95.7137 229.708 96.5493 229.808 96.5493 229.808Z" fill="#FFBF99"/>
<path d="M99.056 230.159C99.056 230.159 102.493 223.871 100.936 222.792C99.3769 221.731 95.8042 222.917 94.8455 223.635C93.8966 224.345 92.2216 224.11 91.3798 223.992C91.3798 223.992 83.0048 222.821 81.0972 224.248C79.1896 225.676 79.0739 226.502 78.9571 227.338C78.8414 228.164 78.376 231.427 77.3106 233.034C76.8499 233.733 75.8966 237.068 77.0966 240.634C78.2978 244.191 79.8658 245.253 80.699 245.37C81.5322 245.486 82.2872 245.592 82.4897 244.777C82.7105 243.895 83.2174 242.675 83.788 241.57C84.3426 240.515 85.0862 238.363 85.0862 238.363C85.0862 238.363 86.5002 234.328 88.4078 232.901C90.3153 231.473 90.3153 231.473 93.7723 231.114C97.2629 230.768 97.8746 232.531 99.056 230.159Z" fill="#170856"/>
<path d="M86.9168 234.65C87.9603 236.236 85.937 238.49 85.937 238.49C85.937 238.49 83.3132 238.966 83.6614 236.477C84.0096 233.989 85.8659 233.054 86.9168 234.65Z" fill="#FFBF99"/>
<path d="M126.012 352.716C126.323 353.001 129.318 359.049 129.318 359.049C129.318 359.049 132.65 358.322 133.337 356.22L130.342 350.756L126.012 352.716Z" fill="url(#paint5_linear_3705_1126)"/>
<path d="M49.4511 299.153C49.4511 299.153 48.362 301.762 48.4139 305.227C48.4787 310.029 52.3294 313.923 57.1137 314.157L96.4246 315.948C97.2544 315.987 97.9545 316.558 98.162 317.362C99.0825 320.944 103.607 331.924 125.674 353.845C126.258 354.429 128.944 359.835 129.645 359.393L133.932 357.055C134.256 356.847 131.457 351.47 131.25 351.132L108.366 312.002C107.16 310.016 105.228 308.576 102.985 308.005L69.4826 299.426L49.4511 299.153Z" fill="#EE384E"/>
<path d="M48.7383 299.439C48.7383 299.439 59.3569 302.022 69.4829 299.439C69.4829 299.439 83.654 280.361 89.1384 275.169C89.1384 275.169 97.89 288.991 117.351 290.938L118.44 288.511C118.44 288.511 102.946 281.36 98.1622 270.367C93.391 259.374 91.4721 254.689 87.1287 251.821C84.419 250.03 82.8113 248.81 81.9685 248.148C81.5147 247.784 80.8794 247.745 80.3738 248.044C75.784 250.86 54.1059 265.734 48.7383 299.439Z" fill="#0083F9"/>
<path d="M88.5672 275.261C88.256 275.261 87.9449 275.118 87.7504 274.858C84.3405 270.407 82.4346 265.501 82.3568 265.293C82.1494 264.761 82.4216 264.164 82.9532 263.956C83.4848 263.749 84.0812 264.021 84.2886 264.553C84.3016 264.605 86.1686 269.394 89.384 273.6C89.7341 274.054 89.6433 274.703 89.1895 275.053C89.008 275.183 88.7876 275.261 88.5672 275.261Z" fill="#0064B7"/>
<path d="M116.184 287.253L118.375 286.669L125.026 285.124C125.83 284.942 126.673 285.085 127.36 285.513L133.077 289.121L117.273 289.096L116.184 287.253Z" fill="url(#paint6_linear_3705_1126)"/>
<path d="M218.598 294.858C218.714 295.442 230.241 345.981 233.171 358.804C233.508 360.283 232.289 361.646 230.707 361.568C229.605 361.516 228.685 360.75 228.464 359.712L214.047 294.508L218.598 294.858Z" fill="#023EA1"/>
<path d="M62.0261 359.844H65.2285V322.427H62.0261L62.0261 359.844Z" fill="#023EA1"/>
<path d="M49.6191 360.515H77.6503V358.75C77.6503 358.581 77.5076 358.438 77.3391 358.438H49.9303C49.7618 358.438 49.6191 358.581 49.6191 358.75V360.515Z" fill="#023EA1"/>
<path d="M45.457 320.347C45.457 322.242 46.9999 323.786 48.8929 323.786H77.2611C79.154 323.786 80.6969 322.242 80.6969 320.347V317.232C80.6969 315.337 79.154 313.793 77.2611 313.793H48.8929C46.9999 313.793 45.457 315.337 45.457 317.232V320.347Z" fill="#023EA1"/>
<path d="M125.117 293.911C124.974 294.521 110.881 347.395 107.316 360.802C106.901 362.347 108.055 363.865 109.636 363.865C110.738 363.865 111.698 363.099 111.97 362.022L129.694 293.794L125.117 293.911Z" fill="#023EA1"/>
<path d="M227.62 295.286C227.762 295.896 241.856 348.771 245.421 362.178C245.836 363.722 244.682 365.241 243.1 365.241C241.998 365.241 241.039 364.475 240.766 363.398L223.613 295.286H227.62Z" fill="#023EA1"/>
<path d="M107.043 290.496H248.676C250.66 290.496 252.811 290.837 253.303 291.512L254.861 294.325C254.861 295.701 253.486 296.233 250.634 296.22L105.305 295.921C102.492 295.921 100.43 294.987 101.117 294.026L102.842 291.638C103.322 290.963 105.046 290.496 107.043 290.496Z" fill="#1047A2"/>
<path d="M333.41 259.942C333.41 259.942 336.934 308.741 337.44 317.395C337.954 326.05 339.806 355.201 339.806 355.201H348.463L354.305 259.407L333.41 259.942Z" fill="#DE051F"/>
<path d="M365.98 260.452C365.98 260.452 364.96 285.038 364.503 291.272C364.054 297.505 368.99 318.821 371.805 328.293C374.628 337.772 378.602 348.264 378.602 348.264L371.805 352.15C371.805 352.15 357.127 326.066 351.865 310.677C346.61 295.287 342.694 272.255 343.339 259.278L365.98 260.452Z" fill="#EE384E"/>
<path d="M329.141 225.535L322.54 234.246C322.54 234.246 322.026 234.942 320.802 234.627C319.587 234.311 306.883 229.729 306.883 229.729C306.883 229.729 305.113 228.944 304.639 227.543C304.174 226.143 303.954 225.803 303.677 225.422C303.399 225.042 302.991 225.09 303.228 224.151C303.465 223.22 303.595 222.832 303.595 222.832C303.595 222.832 303.872 222.176 303.318 222.176C302.763 222.176 302.167 222.305 301.857 222.945C301.563 223.584 301.637 225.131 301.637 225.131L298.92 225.236C298.92 225.236 297.256 225.293 297.256 227.017C297.256 228.741 297.256 231.623 297.256 231.623C297.256 231.623 297.019 232.522 298.235 232.522C299.45 232.522 300.731 232.481 300.731 232.481C300.731 232.481 301.751 232.376 303.424 233.582C305.096 234.789 317.824 242.018 317.824 242.018C317.824 242.018 322.222 244.625 325.11 241.888C327.999 239.152 334.338 232.384 334.338 232.384L334.656 230.239L329.141 225.535Z" fill="#FFBF99"/>
<path d="M350.388 202.205C350.388 202.205 351.171 206.107 352.746 210.017C354.32 213.927 355.104 215.482 355.104 215.482C355.104 215.482 350.388 220.946 345.655 220.161C340.94 219.384 340.94 216.259 340.94 216.259C340.94 216.259 345.272 212.745 345.272 208.058C345.272 203.371 345.272 203.379 345.272 203.379L350.388 202.205Z" fill="#FFB48F"/>
<path d="M339.977 215.361C339.977 215.361 336.06 217.523 334.437 218.891C332.805 220.259 328.097 225.635 328.097 225.635L334.543 231.844L339.03 226.792L339.977 215.361Z" fill="#F79F03"/>
<path d="M353.113 213.53C353.113 213.53 350.755 216.654 347.605 217.432C344.456 218.209 342.889 215.869 342.889 215.869L342.025 214.752C342.025 214.752 341.152 214.072 340.189 214.873C339.226 215.659 337.39 217.683 335.799 220.953C334.2 224.216 333.735 228.684 333.4 239.12C333.066 249.555 333.4 260.816 333.4 260.816H365.947L366.33 244.6C366.33 244.6 362.871 223.034 359.468 218.646C356.066 214.258 355.079 213.303 355.079 213.303C355.079 213.303 354.296 212.234 353.113 213.53Z" fill="#FCBE42"/>
<path d="M340.538 191.656C340.538 191.656 338.18 194.781 338.18 200.254C338.18 205.718 338.963 209.628 341.329 209.628C343.695 209.628 348.419 208.066 349.203 206.503C349.986 204.941 351.561 204.941 351.561 201.824C351.561 198.707 347.628 191.672 344.47 191.672C341.321 191.672 340.538 191.656 340.538 191.656Z" fill="#FFBF99"/>
<path d="M338.181 191.657C338.181 191.657 335.823 185.415 337.398 184.622C338.973 183.845 342.114 185.399 342.905 186.184C343.688 186.962 345.263 186.962 346.055 186.962C346.055 186.962 353.928 186.962 355.503 188.524C357.077 190.086 357.077 190.864 357.077 191.649C357.077 192.426 357.085 195.494 357.861 197.113C358.195 197.818 358.644 201.015 357.077 204.148C355.511 207.273 353.928 208.05 353.145 208.05C352.361 208.05 351.652 208.05 351.57 207.273C351.48 206.431 351.17 205.241 350.787 204.148C350.411 203.104 350.003 201.023 350.003 201.023C350.003 201.023 349.22 197.121 347.645 195.559C346.071 193.997 346.071 193.997 342.93 193.219C339.756 192.45 338.964 193.997 338.181 191.657Z" fill="#170856"/>
<path d="M348.795 197.365C347.628 198.692 349.203 201.032 349.203 201.032C349.203 201.032 351.561 201.809 351.561 199.47C351.561 197.13 349.97 196.029 348.795 197.365Z" fill="#FFBF99"/>
<path d="M364.561 230.231C364.561 230.231 367.514 241.509 367 248.576C366.486 255.635 364.373 261.755 362.839 266.014C361.306 270.272 360.4 271.292 360.343 273.972C360.286 276.651 359.021 279.825 357.454 281.419C355.888 283.014 354.631 283.808 354.631 283.808C354.631 283.808 352.771 284.666 353.065 282.949C353.065 282.949 351.817 283.047 352.29 282.091C352.29 282.091 350.625 282.124 351.841 280.82C353.057 279.509 355.301 278.246 355.301 278.246C355.301 278.246 356.581 276.214 354.754 277.234C352.926 278.246 351.327 278.286 353.016 276.635C354.713 274.983 356.671 272.093 358.107 266.807C359.543 261.529 361.248 251.094 359.217 243.079C357.185 235.064 354.615 232.393 354.615 232.393L364.561 230.231Z" fill="#FFBF99"/>
<path d="M371.519 351.623C371.519 351.623 369.952 355.986 368.215 357.994C366.477 360.002 365.106 361.467 365.106 361.467C365.106 361.467 363.083 364.681 365.367 363.726C367.643 362.771 380.241 354.375 380.241 354.375C380.241 354.375 382.036 353.453 381.204 351.931C380.371 350.409 378.258 347.462 378.258 347.462L371.519 351.623Z" fill="#170856"/>
<path d="M348.381 361.363C348.381 361.363 348.846 362.634 346.202 362.634C343.559 362.634 329.142 362.634 329.142 362.634C329.142 362.634 326.368 362.084 328.921 360.853C331.492 359.623 339.177 356.19 339.177 356.19C339.177 356.19 339.765 356.037 339.748 354.571H348.479L348.381 361.363Z" fill="#170856"/>
<path d="M352.231 222.719C352.231 222.719 351.676 217.481 355.519 216.979C359.362 216.477 361.801 221.561 363.082 224.864C364.363 228.167 365.008 230.587 365.008 230.587C365.008 230.587 356.743 233.89 354.564 233.89C354.556 233.89 352.72 228.402 352.231 222.719Z" fill="#F79F03"/>
<path d="M253.675 322.32C253.675 322.32 256.363 321.225 256.164 318.144C255.965 315.064 254.374 312.88 257.66 313.77C260.945 314.667 262.05 315.064 264.436 314.564C266.823 314.064 268.804 313.071 267.766 316.152C266.727 319.232 265.593 321.813 268.053 322.313C270.506 322.813 273.143 320.953 273.459 325.776C273.776 330.599 269.88 336.024 263.574 336.223C257.269 336.421 254.485 333.811 254.485 333.811C254.485 333.811 252.791 331.429 255.428 330.848C258.065 330.26 260.753 329.15 259.405 327.915C258.065 326.687 253.682 326.584 253.682 326.584C253.682 326.584 248.202 325.496 253.675 322.32Z" fill="#649EEA"/>
<path d="M282.489 323.114C282.047 320.041 282.386 317.828 288.109 316.99C293.833 316.152 297.169 319.585 297.516 323.114C297.862 326.643 292.89 327.922 292.89 327.922C292.89 327.922 289.354 328.93 291.152 332.01C292.949 335.091 293.759 338.068 289.693 338.517C285.627 338.965 281.178 337.892 278.703 336.245C276.228 334.598 273.687 330.422 276.523 328.239C276.523 328.239 277.318 327.694 280.059 327.54C282.784 327.386 282.489 323.114 282.489 323.114Z" fill="#023EA1"/>
<path d="M262.352 322.613C262.352 322.613 267.103 333.34 267.751 340.641" stroke="#023EA1" stroke-miterlimit="10"/>
<path d="M288.774 324.378C288.774 324.378 280.362 336.847 278.373 341.016" stroke="#649EEA" stroke-miterlimit="10"/>
<path d="M264.819 339.803H284.125C284.125 339.803 286.239 339.95 286.062 342.832C285.9 345.486 282.527 344.912 280.788 344.912C279.05 344.912 264.399 344.912 264.399 344.912C264.399 344.912 262.027 345.317 262.027 342.633C262.027 339.95 262.926 339.803 264.819 339.803Z" fill="#0054A5"/>
<path d="M264.406 344.913L267.331 361.94H280.294L282.49 349.163L264.428 344.913H264.406Z" fill="#0054A5"/>
<path d="M264.43 344.913L282.491 349.163L283.22 344.913H264.43Z" fill="#006AD5"/>
<path d="M272.73 340.45C272.73 340.45 273.71 321.556 279.352 309.704" stroke="#FCBE42" stroke-miterlimit="10"/>
<path d="M283.994 302.881C283.994 302.881 284.458 308.682 278.786 310.946C278.786 310.946 277.563 305.991 283.994 302.881Z" fill="#FCBE42"/>
<path d="M275.486 321.342C275.486 321.342 277.578 316.394 284.001 317.056C284.009 317.056 283.508 321.982 275.486 321.342Z" fill="#FCBE42"/>
<path d="M273.371 333.789C273.371 333.789 274.454 328.525 280.884 327.922C280.884 327.922 281.363 332.855 273.371 333.789Z" fill="#FCBE42"/>
<path d="M273.15 333.818C273.15 333.818 273.894 328.502 268.038 325.782C268.038 325.782 265.939 330.274 273.15 333.818Z" fill="#FCBE42"/>
<path d="M275.558 321.306C275.558 321.306 276.979 316.122 271.514 312.682C271.506 312.682 268.855 316.872 275.558 321.306Z" fill="#FCBE42"/>
<rect x="32.9648" y="228.514" width="7.79507" height="7.79507" transform="rotate(45 32.9648 228.514)" fill="#EE384E"/>
<rect x="315.223" y="283.393" width="7.79507" height="7.79507" transform="rotate(45 315.223 283.393)" fill="#023EA1"/>
</g>
<defs>
<linearGradient id="paint0_linear_3705_1126" x1="133.365" y1="202.873" x2="130.561" y2="259.567" gradientUnits="userSpaceOnUse">
<stop stop-color="#09005D"/>
<stop offset="1" stop-color="#1A0F91"/>
</linearGradient>
<linearGradient id="paint1_linear_3705_1126" x1="77.4386" y1="235.739" x2="27.243" y2="209.335" gradientUnits="userSpaceOnUse">
<stop stop-color="#09005D"/>
<stop offset="1" stop-color="#1A0F91"/>
</linearGradient>
<linearGradient id="paint2_linear_3705_1126" x1="95.8478" y1="361.212" x2="118.505" y2="361.212" gradientUnits="userSpaceOnUse">
<stop stop-color="#09005D"/>
<stop offset="1" stop-color="#1A0F91"/>
</linearGradient>
<linearGradient id="paint3_linear_3705_1126" x1="96.9773" y1="354.377" x2="103.108" y2="354.377" gradientUnits="userSpaceOnUse">
<stop stop-color="#FEBBBA"/>
<stop offset="1" stop-color="#FF928E"/>
</linearGradient>
<linearGradient id="paint4_linear_3705_1126" x1="131.385" y1="356.717" x2="149.678" y2="356.717" gradientUnits="userSpaceOnUse">
<stop stop-color="#09005D"/>
<stop offset="1" stop-color="#1A0F91"/>
</linearGradient>
<linearGradient id="paint5_linear_3705_1126" x1="126.015" y1="354.892" x2="133.334" y2="354.892" gradientUnits="userSpaceOnUse">
<stop stop-color="#FEBBBA"/>
<stop offset="1" stop-color="#FF928E"/>
</linearGradient>
<linearGradient id="paint6_linear_3705_1126" x1="116.188" y1="287.078" x2="133.093" y2="287.078" gradientUnits="userSpaceOnUse">
<stop stop-color="#FEBBBA"/>
<stop offset="1" stop-color="#FF928E"/>
</linearGradient>
<clipPath id="clip0_3705_1126">
<rect width="450" height="365" fill="white"/>
</clipPath>
</defs>
</svg>
