<svg width="450" height="365" viewBox="0 0 450 365" fill="none" xmlns="http://www.w3.org/2000/svg">
<path d="M90.5986 212.207C127.857 212.207 158.061 182.003 158.061 144.745C158.061 107.487 127.857 77.2832 90.5986 77.2832C53.3404 77.2832 23.1367 107.487 23.1367 144.745C23.1367 182.003 53.3404 212.207 90.5986 212.207Z" stroke="#2626DB" stroke-width="0.846646" stroke-miterlimit="10" stroke-dasharray="5.08 5.08"/>
<path d="M27.132 133.336C33.4376 133.336 38.5492 128.225 38.5492 121.919C38.5492 115.614 33.4376 110.502 27.132 110.502C20.8265 110.502 15.7148 115.614 15.7148 121.919C15.7148 128.225 20.8265 133.336 27.132 133.336Z" fill="#FCBE42"/>
<path d="M23.1367 119.631L27.7017 126.483L31.1325 120.765" stroke="white" stroke-width="1.69329" stroke-miterlimit="10"/>
<path d="M368.609 250.093C392.496 250.093 411.86 230.728 411.86 206.841C411.86 182.954 392.496 163.59 368.609 163.59C344.722 163.59 325.357 182.954 325.357 206.841C325.357 230.728 344.722 250.093 368.609 250.093Z" stroke="#DE051F" stroke-width="0.846646" stroke-miterlimit="10" stroke-dasharray="5.08 5.08"/>
<path d="M425.368 144.206C425.368 144.206 419.343 160.002 411.97 154.163C404.598 148.324 401.483 150.732 398.396 153.382C395.31 156.032 391.795 163.061 384.348 156.487C376.901 149.905 375.608 143.666 370.355 143.397C365.093 143.127 344.248 135.038 349.483 127.833C354.726 120.627 367.445 121.613 372.698 123.463C377.951 125.304 384.264 121.473 388.318 117.364C392.372 113.255 400.228 111.6 402.394 119.019C404.56 126.438 411.868 130.715 417.121 129.246C422.393 127.768 429.273 133.43 425.368 144.206Z" fill="#023EA1"/>
<path d="M414.169 141.074L343.109 123.251" stroke="white" stroke-width="0.846646" stroke-miterlimit="10" stroke-linecap="round" stroke-linejoin="round"/>
<path d="M391.626 149.831L385.295 133.83L397.261 122.208" stroke="white" stroke-width="0.846646" stroke-miterlimit="10" stroke-linecap="round" stroke-linejoin="round"/>
<path d="M410.449 90.9416C410.449 90.9416 418.668 90.8021 419.049 84.0894C419.421 77.386 411.146 71.6216 405.986 74.4759C400.807 77.3302 400.826 81.8673 396.744 79.9521C392.663 78.0368 380.437 74.4015 378.354 80.4169C376.262 86.4231 381.841 90.6627 374.403 95.0046C366.965 99.3371 354.237 92.1038 353.586 104.888C352.935 117.672 357.519 139.428 376.569 129.981C395.619 120.544 377.648 112.261 393.695 108.997C409.742 105.724 402.937 100.453 403.987 95.2091C405.019 89.9654 410.449 90.9416 410.449 90.9416Z" fill="#EE384E"/>
<path d="M396.558 89.6211C396.558 89.6211 381.84 105.696 364.463 115.338C347.086 124.979 341.898 124.458 341.898 124.458" stroke="white" stroke-width="0.846646" stroke-miterlimit="10" stroke-linecap="round" stroke-linejoin="round"/>
<path d="M133.141 23.9142C133.141 23.9142 127.572 33.3789 136.256 33.4068C144.94 33.4347 149.44 35.9078 148.064 44.5265C146.688 53.1359 149.811 58.4168 154.795 59.6813C159.778 60.9364 169.252 61.7639 166.77 73.367C164.288 84.9795 161.024 107.879 147.989 106.652C134.954 105.415 122.607 89.4794 124.457 80.712C126.308 71.9445 132.648 67.2308 125.796 60.016C118.944 52.8012 112.984 60.2856 108.996 50.5419C105.007 40.7983 100.089 31.2777 112.194 23.0495C123.054 15.6581 134.852 17.9546 133.141 23.9142Z" stroke="#DE051F" stroke-width="0.846646" stroke-miterlimit="10"/>
<path d="M125.109 33.9277C125.109 33.9277 149.766 95.272 159.668 109.376" stroke="#DE051F" stroke-width="0.846646" stroke-miterlimit="10"/>
<path d="M153.659 67.9395L146.286 83.5033L131.885 81.681" stroke="#DE051F" stroke-width="0.846646" stroke-miterlimit="10"/>
<path d="M139.148 40.6143L132.175 51.0645L119.939 51.0087" stroke="#DE051F" stroke-width="0.846646" stroke-miterlimit="10"/>
<path d="M367.346 135.577C367.346 135.577 395.6 115.811 418.956 110.613" stroke="#FCBE42" stroke-width="0.846646" stroke-miterlimit="10"/>
<path d="M433.959 109.637C433.959 109.637 426.149 116.805 416.545 111.199C416.536 111.199 422.291 103.891 433.959 109.637Z" stroke="#FCBE42" stroke-width="0.846646" stroke-miterlimit="10"/>
<path d="M397.904 118.108C397.904 118.108 407.36 115.56 413.598 125.527C413.598 125.527 405.947 130.334 397.904 118.108Z" stroke="#FCBE42" stroke-width="0.846646" stroke-miterlimit="10"/>
<path d="M377.646 129.023C377.646 129.023 386.414 124.681 394.484 133.235C394.484 133.235 387.929 139.445 377.646 129.023Z" stroke="#FCBE42" stroke-width="0.846646" stroke-miterlimit="10"/>
<path d="M377.348 128.742C377.348 128.742 385.827 123.852 383.177 112.397C383.187 112.397 374.373 114.424 377.348 128.742Z" stroke="#FCBE42" stroke-width="0.846646" stroke-miterlimit="10"/>
<path d="M398.033 118.163C398.033 118.163 407.071 114.389 405.899 102.692C405.899 102.702 396.918 103.576 398.033 118.163Z" stroke="#FCBE42" stroke-width="0.846646" stroke-miterlimit="10"/>
<path d="M156.005 28.0636C156.005 28.0636 176.747 25.9717 174.376 37.3331C172.005 48.6946 176.384 50.7865 181.015 52.7296C185.645 54.6635 195.333 54.6728 192.19 66.5177C189.048 78.3625 182.874 83.2158 185.487 89.1661C188.099 95.1165 190.684 122.581 179.852 120.768C169.012 118.955 163.08 104.386 162.206 97.5803C161.332 90.7746 153.624 85.9306 146.856 83.7271C140.097 81.533 133.914 73.7789 140.906 67.308C147.888 60.837 148.557 50.4146 144.048 45.4219C139.539 40.4106 141.975 29.7093 156.005 28.0636Z" fill="#FCBE42"/>
<path d="M158.744 42.1504L178.324 130.327" stroke="white" stroke-width="0.846646" stroke-miterlimit="10" stroke-linecap="round" stroke-linejoin="round"/>
<path d="M180.847 62.1572L166.696 77.9721L147.283 71.2036" stroke="white" stroke-width="0.846646" stroke-miterlimit="10" stroke-linecap="round" stroke-linejoin="round"/>
<path d="M409.052 200.751C413.088 200.751 416.36 197.479 416.36 193.443C416.36 189.408 413.088 186.136 409.052 186.136C405.016 186.136 401.744 189.408 401.744 193.443C401.744 197.479 405.016 200.751 409.052 200.751Z" fill="#003EB0"/>
<path d="M407.223 190.515L411.983 193.806L407.223 196.372V190.515Z" fill="white"/>
<path d="M393.828 51.9478L389.791 55.9844L393.828 60.0209L397.864 55.9844L393.828 51.9478Z" fill="#003EB0"/>
<path d="M38.5483 224.199L34.5117 228.235L38.5483 232.272L42.5848 228.235L38.5483 224.199Z" fill="#003EB0"/>
<path d="M209.927 60.272L205.891 64.3086L209.927 68.3451L213.964 64.3086L209.927 60.272Z" fill="#EE384E"/>
<path d="M304.782 37.0781H292.138C291.933 37.0781 291.766 37.2362 291.766 37.45V42.6566C291.766 42.7495 291.812 42.8518 291.877 42.9169L293.365 44.4045C293.43 44.4696 293.523 44.516 293.634 44.516H303.304C303.397 44.516 303.499 44.4696 303.564 44.4045L305.052 42.9169C305.117 42.8518 305.163 42.7588 305.163 42.6566V37.4407C305.163 37.2362 304.987 37.0781 304.782 37.0781ZM304.41 42.4985L303.146 43.763H293.792L292.528 42.4985V37.8126H304.429V42.4985H304.41Z" fill="#003EB0"/>
<path d="M305.518 38.5561L291.377 39.2998C291.173 39.3091 291.015 39.4858 291.024 39.6903C291.033 39.8949 291.191 40.0436 291.396 40.0436C291.405 40.0436 291.405 40.0436 291.414 40.0436L305.556 39.2998C305.76 39.2906 305.918 39.1139 305.909 38.9094C305.89 38.7048 305.714 38.5468 305.518 38.5561Z" fill="#003EB0"/>
<path d="M305.518 40.796L291.377 41.5398C291.173 41.5491 291.015 41.7258 291.024 41.9303C291.033 42.1348 291.191 42.2836 291.396 42.2836C291.405 42.2836 291.405 42.2836 291.414 42.2836L305.556 41.5398C305.76 41.5305 305.918 41.3539 305.909 41.1493C305.89 40.9355 305.714 40.7681 305.518 40.796Z" fill="#003EB0"/>
<path d="M298.459 11.7783C291.477 11.7783 285.814 17.4497 285.814 24.4228C285.814 28.8204 288.037 32.809 291.765 35.1334V37.4391C291.765 37.6437 291.932 37.811 292.137 37.811H304.781C304.986 37.811 305.153 37.6437 305.153 37.4391V35.1334C308.881 32.7997 311.103 28.8111 311.103 24.4228C311.103 17.4497 305.432 11.7783 298.459 11.7783ZM304.586 34.6034C304.474 34.6685 304.4 34.7987 304.4 34.9288V37.0765H292.499V34.9288C292.499 34.7987 292.434 34.6778 292.313 34.6034C288.697 32.4278 286.549 28.6159 286.549 24.4228C286.549 17.8588 291.886 12.5221 298.45 12.5221C305.014 12.5221 310.35 17.8588 310.35 24.4228C310.36 28.6252 308.203 32.4278 304.586 34.6034Z" fill="#003EB0"/>
<path d="M301.971 43.8078C301.785 43.7149 301.562 43.7893 301.469 43.9659C301.441 44.0217 300.772 45.2489 298.457 45.2489C296.142 45.2489 295.463 44.0124 295.444 43.9659C295.351 43.78 295.137 43.7056 294.952 43.8078C294.766 43.9008 294.691 44.1147 294.784 44.3006C294.812 44.375 295.667 45.9927 298.457 45.9927C301.246 45.9927 302.101 44.3657 302.129 44.3006C302.231 44.1147 302.157 43.9008 301.971 43.8078Z" fill="#003EB0"/>
<path d="M282.46 24.0518H275.022C274.818 24.0518 274.65 24.2098 274.65 24.4237C274.65 24.6282 274.818 24.7955 275.022 24.7955H282.46C282.665 24.7955 282.832 24.6282 282.832 24.4237C282.832 24.2191 282.665 24.0518 282.46 24.0518Z" fill="#DE051F"/>
<path d="M321.882 24.0518H314.444C314.24 24.0518 314.072 24.2191 314.072 24.4237C314.072 24.6282 314.24 24.7955 314.444 24.7955H321.882C322.087 24.7955 322.254 24.6282 322.254 24.4237C322.263 24.2191 322.087 24.0518 321.882 24.0518Z" fill="#DE051F"/>
<path d="M284.922 32.2348C284.811 32.0488 284.587 32.0023 284.42 32.0953L277.977 35.8143C277.791 35.9258 277.745 36.149 277.838 36.3163C277.903 36.4372 278.033 36.5023 278.163 36.5023C278.228 36.5023 278.293 36.493 278.349 36.4465L284.792 32.7275C284.969 32.6346 285.034 32.4114 284.922 32.2348Z" fill="#DE051F"/>
<path d="M319.065 12.5151C318.953 12.3291 318.73 12.2826 318.563 12.3756L312.12 16.1038C311.934 16.2154 311.887 16.4385 311.98 16.6059C312.045 16.7268 312.175 16.7919 312.305 16.7919C312.371 16.7919 312.436 16.7733 312.491 16.7361L318.935 13.0171C319.111 12.9241 319.167 12.701 319.065 12.5151Z" fill="#DE051F"/>
<path d="M310.352 3.81211C310.166 3.71914 309.943 3.76563 309.85 3.95157L306.131 10.3947C306.019 10.5806 306.084 10.8038 306.27 10.8967C306.335 10.9246 306.401 10.9525 306.456 10.9525C306.587 10.9525 306.717 10.8874 306.782 10.7666L310.501 4.32347C310.594 4.13752 310.529 3.91438 310.352 3.81211Z" fill="#DE051F"/>
<path d="M298.45 0.623047C298.245 0.623047 298.078 0.7904 298.078 0.994942V8.43286C298.078 8.6374 298.245 8.80475 298.45 8.80475C298.655 8.80475 298.822 8.6374 298.822 8.43286V0.994942C298.822 0.7904 298.655 0.623047 298.45 0.623047Z" fill="#DE051F"/>
<path d="M290.78 10.3849L287.061 3.94181C286.949 3.75586 286.726 3.70937 286.559 3.80235C286.373 3.91391 286.327 4.13705 286.42 4.30441L290.138 10.7475C290.204 10.8684 290.334 10.9334 290.464 10.9334C290.529 10.9334 290.594 10.9242 290.65 10.8777C290.817 10.794 290.882 10.5709 290.78 10.3849Z" fill="#DE051F"/>
<path d="M318.934 35.824L312.49 32.1051C312.304 32.0121 312.081 32.0586 311.988 32.2445C311.877 32.4305 311.942 32.6536 312.128 32.7466L318.571 36.4656C318.636 36.4934 318.701 36.5213 318.757 36.5213C318.887 36.5213 319.017 36.4563 319.082 36.3354C319.166 36.1402 319.11 35.917 318.934 35.824Z" fill="#DE051F"/>
<path d="M284.785 16.0945L278.342 12.3756C278.156 12.2826 277.933 12.3291 277.84 12.5151C277.728 12.701 277.793 12.9241 277.979 13.0171L284.422 16.7361C284.488 16.764 284.543 16.7919 284.608 16.7919C284.739 16.7919 284.869 16.7268 284.934 16.6059C285.036 16.4293 284.971 16.2061 284.785 16.0945Z" fill="#DE051F"/>
<path d="M299.535 37.0767V25.0645C299.535 25.0645 299.367 19.4023 302.454 19.4023C305.541 19.4023 304.118 25.2876 298.168 25.2876" stroke="#003EB0" stroke-width="0.846646" stroke-miterlimit="10"/>
<path d="M296.79 37.0767V25.0645C296.79 25.0645 296.958 19.4023 293.871 19.4023C290.784 19.4023 292.207 25.2876 298.157 25.2876" stroke="#003EB0" stroke-width="0.846646" stroke-miterlimit="10"/>
<path d="M106.108 91.248H375.249L374.858 270.028L104.955 269.646L106.108 91.248Z" fill="#E9EEF2"/>
<path d="M270.213 275.057C270.195 275.057 270.102 275.503 270.093 275.531C270 275.977 269.907 276.433 269.832 276.879C269.711 277.576 269.628 278.283 269.553 278.98C269.47 279.891 269.414 280.802 269.395 281.714C269.377 282.792 269.405 283.871 269.479 284.94C269.563 286.148 269.73 287.348 269.953 288.556C270.204 289.867 270.52 291.15 270.929 292.415C271.366 293.772 271.915 295.12 272.547 296.403C273.235 297.798 274.035 299.128 274.937 300.392C275.922 301.768 277.028 303.06 278.228 304.25C279.567 305.58 281.017 306.779 282.56 307.867C283.425 308.481 284.308 309.104 285.238 309.615C285.536 309.773 285.87 309.903 286.196 310.015C286.251 310.033 286.828 310.201 286.828 310.229V320.902H192.562L192.506 310.861C192.506 310.861 207.242 307.904 210.329 276.237C210.366 276.21 270.213 275.057 270.213 275.057Z" fill="#0064B7"/>
<path d="M270.465 292.045L209.93 279.735L210.357 276.211L270.595 275.439C270.595 275.439 267.248 279.298 270.465 292.045Z" fill="#023EA1"/>
<path d="M286.846 310.834H192.533L192.523 320.875H286.846V310.834Z" fill="#023EA1"/>
<path d="M372.93 77.3557H105.723C94.5195 76.9652 94.5195 86.244 94.5195 86.244V130.639V226.793V271.188C94.5195 271.188 94.5195 280.457 105.723 280.076H372.921C372.921 280.076 384.896 280.467 384.896 268.873C384.896 268.585 384.896 268.194 384.896 267.729V262.327C384.896 262.327 384.896 127.999 384.896 95.1231C384.896 92.7801 384.896 90.9392 384.896 89.7213C384.896 89.2471 384.896 88.8659 384.896 88.5777C384.887 76.9745 372.93 77.3557 372.93 77.3557ZM372.54 263.852L106.876 265.386L106.485 178.707L106.876 92.027L372.54 93.5611L372.93 178.707L372.54 263.852Z" fill="#0064B7"/>
<path d="M117.933 175.51H187.18C190.137 175.51 192.536 173.111 192.536 170.154V103.994C192.536 101.037 190.137 98.6387 187.18 98.6387H117.933C114.977 98.6387 112.578 101.037 112.578 103.994V170.154C112.569 173.111 114.968 175.51 117.933 175.51Z" stroke="#003EB0" stroke-width="0.846646" stroke-miterlimit="10" stroke-dasharray="5.08 5.08"/>
<path d="M204.74 175.51H360.63C363.586 175.51 365.985 173.111 365.985 170.154V103.994C365.985 101.037 363.586 98.6387 360.63 98.6387H204.74C201.784 98.6387 199.385 101.037 199.385 103.994V170.154C199.375 173.111 201.784 175.51 204.74 175.51Z" fill="white"/>
<path d="M351.556 121.854H210.068C207.242 121.854 204.945 119.558 204.945 116.731C204.945 113.905 207.242 111.608 210.068 111.608H351.556C354.382 111.608 356.679 113.905 356.679 116.731C356.679 119.558 354.382 121.854 351.556 121.854Z" fill="#EE384E"/>
<path d="M293.029 133.486H207.8C206.228 133.486 204.945 132.212 204.945 130.632C204.945 129.06 206.219 127.777 207.8 127.777H293.029C294.6 127.777 295.883 129.051 295.883 130.632C295.874 132.212 294.591 133.486 293.029 133.486Z" fill="#DBE9F8"/>
<path d="M213.926 158.792C217.839 158.792 221.011 155.62 221.011 151.708C221.011 147.795 217.839 144.623 213.926 144.623C210.014 144.623 206.842 147.795 206.842 151.708C206.842 155.62 210.014 158.792 213.926 158.792Z" fill="#395196"/>
<path d="M233.012 158.792C236.925 158.792 240.097 155.62 240.097 151.708C240.097 147.795 236.925 144.623 233.012 144.623C229.1 144.623 225.928 147.795 225.928 151.708C225.928 155.62 229.1 158.792 233.012 158.792Z" fill="#3D83D9"/>
<path d="M251.227 158.792C255.14 158.792 258.312 155.62 258.312 151.708C258.312 147.795 255.14 144.623 251.227 144.623C247.314 144.623 244.143 147.795 244.143 151.708C244.143 155.62 247.314 158.792 251.227 158.792Z" fill="#00A9FF"/>
<path d="M270.317 158.792C274.23 158.792 277.402 155.62 277.402 151.708C277.402 147.795 274.23 144.623 270.317 144.623C266.404 144.623 263.232 147.795 263.232 151.708C263.232 155.62 266.404 158.792 270.317 158.792Z" fill="#DD4B39"/>
<path d="M365.995 184.138C365.995 182.976 365.065 182.046 363.903 182.046H114.658C113.496 182.046 112.566 182.976 112.566 184.138V223.196C112.566 223.326 112.576 223.447 112.594 223.568C112.576 223.689 112.566 223.819 112.566 223.94V254.64C112.566 255.802 113.496 256.732 114.658 256.732H363.903C365.065 256.732 365.995 255.802 365.995 254.64V223.94C365.995 223.81 365.985 223.689 365.967 223.568C365.985 223.447 365.995 223.317 365.995 223.196V184.138Z" fill="white"/>
<path d="M185.311 237.757H147.824C146.903 237.757 146.15 237.004 146.15 236.084C146.15 235.163 146.903 234.41 147.824 234.41H185.311C186.231 234.41 186.985 235.163 186.985 236.084C186.994 237.004 186.241 237.757 185.311 237.757Z" fill="#DBE9F8"/>
<path d="M167.23 245.196H147.836C146.915 245.196 146.162 244.443 146.162 243.522C146.162 242.602 146.915 241.849 147.836 241.849H167.23C168.15 241.849 168.904 242.602 168.904 243.522C168.904 244.443 168.15 245.196 167.23 245.196Z" fill="#DBE9F8"/>
<path d="M136.141 235.182C135.574 234.633 134.961 234.14 134.254 233.778C133.231 233.266 132.144 233.034 131.028 232.95C129.819 232.857 128.601 232.876 127.393 233.025C125.719 233.239 124.259 233.889 123.051 235.079C122.828 235.303 122.614 235.554 122.511 235.86C122.484 235.953 122.456 236.065 122.428 236.158C122.428 236.595 122.428 237.023 122.428 237.469C122.66 238.073 122.865 238.222 123.534 238.222C124.018 238.222 124.51 238.222 124.994 238.222C125.626 238.222 125.979 237.869 125.989 237.236C125.989 236.846 126.1 236.483 126.295 236.158C126.658 235.572 127.179 235.182 127.82 234.949C128.518 234.698 129.233 234.68 129.949 234.717C130.535 234.735 131.112 234.838 131.632 235.117C132.534 235.6 133.11 236.307 133.12 237.376C133.12 237.85 133.529 238.222 134.012 238.222C134.589 238.222 135.156 238.222 135.742 238.222C136.29 238.222 136.653 237.859 136.653 237.302C136.653 237.023 136.643 236.734 136.653 236.455C136.671 235.953 136.495 235.526 136.141 235.182Z" fill="#DBE9F8"/>
<path d="M133.343 238.576C133.185 238.344 132.934 238.241 132.646 238.232C132.507 238.232 132.367 238.232 132.209 238.232C132.209 237.879 132.2 237.535 132.209 237.2C132.218 236.902 132.079 236.707 131.837 236.577C131.623 236.456 131.391 236.428 131.149 236.465C130.647 236.549 130.443 236.8 130.433 237.302C130.433 237.6 130.433 237.916 130.433 238.223C129.829 238.223 129.253 238.223 128.658 238.223C128.658 237.869 128.648 237.535 128.658 237.191C128.667 236.912 128.527 236.717 128.295 236.577C128.072 236.456 127.83 236.419 127.588 236.456C127.096 236.54 126.891 236.791 126.891 237.293C126.891 237.59 126.891 237.907 126.891 238.223C126.742 238.223 126.621 238.223 126.491 238.223C126.166 238.223 125.915 238.362 125.729 238.632C125.608 238.799 125.506 238.976 125.394 239.143C124.762 240.138 124.148 241.161 123.683 242.248C123.432 242.816 123.293 243.392 123.33 244.015C123.349 244.443 123.33 244.861 123.33 245.289C123.33 245.847 123.702 246.218 124.26 246.218C127.784 246.218 131.298 246.218 134.831 246.218C135.389 246.218 135.77 245.847 135.77 245.279C135.77 244.833 135.761 244.378 135.77 243.931C135.789 243.355 135.677 242.797 135.463 242.267C134.943 240.928 134.171 239.729 133.343 238.576ZM129.532 245.335C128.072 245.326 126.882 244.127 126.882 242.667C126.891 241.189 128.09 239.999 129.587 240.008C131.047 240.017 132.237 241.216 132.228 242.685C132.209 244.154 131.01 245.345 129.532 245.335Z" fill="#DBE9F8"/>
<path d="M129.551 240.891C128.566 240.891 127.775 241.681 127.775 242.685C127.775 243.652 128.575 244.452 129.542 244.452C130.527 244.452 131.318 243.661 131.318 242.657C131.327 241.69 130.527 240.891 129.551 240.891Z" fill="#DBE9F8"/>
<path d="M136.659 229.37C134.586 229.37 132.922 231.044 132.922 233.108C132.922 235.172 134.595 236.845 136.659 236.845C138.733 236.845 140.397 235.172 140.397 233.108C140.397 231.053 138.723 229.37 136.659 229.37ZM136.659 234.549C135.869 234.549 135.237 233.907 135.237 233.126C135.237 232.336 135.878 231.704 136.659 231.704C137.44 231.704 138.082 232.345 138.082 233.126C138.082 233.907 137.45 234.549 136.659 234.549Z" fill="#2626DB"/>
<path d="M269.458 237.756H231.97C231.05 237.756 230.297 237.003 230.297 236.083C230.297 235.162 231.05 234.409 231.97 234.409H269.458C270.378 234.409 271.131 235.162 271.131 236.083C271.14 237.003 270.387 237.756 269.458 237.756Z" fill="#DBE9F8"/>
<path d="M251.365 245.195H231.97C231.05 245.195 230.297 244.442 230.297 243.521C230.297 242.601 231.05 241.848 231.97 241.848H251.365C252.285 241.848 253.038 242.601 253.038 243.521C253.048 244.442 252.295 245.195 251.365 245.195Z" fill="#DBE9F8"/>
<path d="M202.666 235.461V244.061C202.666 245.223 203.596 246.153 204.758 246.153H221.707C222.869 246.153 223.799 245.223 223.799 244.061V235.461L213.228 240.807L202.666 235.461Z" fill="#DBE9F8"/>
<path d="M223.799 232.829H202.666L213.237 238.175L223.799 232.829Z" fill="#DBE9F8"/>
<path d="M224.181 229.37C222.108 229.37 220.443 231.044 220.443 233.108C220.443 235.172 222.117 236.845 224.181 236.845C226.245 236.845 227.918 235.172 227.918 233.108C227.937 231.053 226.254 229.37 224.181 229.37ZM224.181 234.549C223.391 234.549 222.758 233.907 222.758 233.126C222.758 232.336 223.4 231.704 224.181 231.704C224.971 231.704 225.603 232.345 225.603 233.126C225.603 233.907 224.971 234.549 224.181 234.549Z" fill="#2626DB"/>
<path d="M353.582 237.756H316.095C315.175 237.756 314.422 237.003 314.422 236.083C314.422 235.162 315.175 234.409 316.095 234.409H353.582C354.503 234.409 355.256 235.162 355.256 236.083C355.256 237.003 354.503 237.756 353.582 237.756Z" fill="#DBE9F8"/>
<path d="M335.49 245.195H316.095C315.175 245.195 314.422 244.442 314.422 243.521C314.422 242.601 315.175 241.848 316.095 241.848H335.49C336.41 241.848 337.163 242.601 337.163 243.521C337.163 244.442 336.41 245.195 335.49 245.195Z" fill="#DBE9F8"/>
<path d="M303.889 239.04C303.675 235.721 301.016 233.053 297.678 232.83V232.82H297.241H296.804V232.83C293.485 233.043 290.816 235.712 290.593 239.04H290.584V239.477V239.914H290.593C290.807 243.233 293.475 245.892 296.804 246.125V246.134H297.241H297.678V246.125C300.997 245.911 303.656 243.252 303.889 239.914H303.898V239.477V239.04H303.889ZM294.749 234.28C294.322 234.847 293.968 235.563 293.699 236.381H292.369C292.946 235.47 293.773 234.745 294.749 234.28ZM291.904 237.274H293.466C293.345 237.832 293.271 238.436 293.252 239.05H291.486C291.532 238.417 291.672 237.822 291.904 237.274ZM291.477 239.933H293.243C293.262 240.556 293.336 241.141 293.457 241.709H291.895C291.672 241.169 291.532 240.565 291.477 239.933ZM292.369 242.601H293.699C293.959 243.419 294.312 244.135 294.749 244.702C293.773 244.238 292.946 243.512 292.369 242.601ZM296.795 245.214C295.884 244.963 295.093 243.996 294.619 242.61H296.795V245.214ZM296.795 241.709H294.368C294.238 241.151 294.163 240.565 294.145 239.933H296.804V241.709H296.795ZM296.795 239.04H294.136C294.154 238.417 294.247 237.822 294.359 237.264H296.785V239.04H296.795ZM296.795 236.381H294.619C295.103 234.996 295.884 234.01 296.795 233.778V236.381ZM302.113 236.381H300.783C300.523 235.563 300.17 234.847 299.733 234.28C300.709 234.745 301.527 235.47 302.113 236.381ZM297.678 233.769C298.589 234.02 299.379 234.987 299.853 236.372H297.678V233.769ZM297.678 237.274H300.105C300.235 237.832 300.309 238.417 300.337 239.05H297.678V237.274ZM297.678 239.933H300.337C300.318 240.556 300.225 241.151 300.105 241.709H297.678V239.933ZM297.678 245.214V242.61H299.853C299.389 243.986 298.589 244.972 297.678 245.214ZM299.733 244.702C300.16 244.135 300.514 243.419 300.783 242.601H302.113C301.527 243.512 300.709 244.238 299.733 244.702ZM302.568 241.709H301.006C301.127 241.151 301.202 240.546 301.22 239.933H302.987C302.959 240.565 302.81 241.169 302.568 241.709ZM301.23 239.04C301.211 238.417 301.137 237.832 301.016 237.264H302.578C302.81 237.822 302.95 238.408 303.005 239.04H301.23Z" fill="#DBE9F8"/>
<path d="M304.083 229.37C302.01 229.37 300.346 231.044 300.346 233.108C300.346 235.172 302.019 236.845 304.083 236.845C306.157 236.845 307.821 235.172 307.821 233.108C307.83 231.053 306.147 229.37 304.083 229.37ZM304.083 234.549C303.293 234.549 302.661 233.907 302.661 233.126C302.661 232.336 303.302 231.704 304.083 231.704C304.874 231.704 305.506 232.345 305.506 233.126C305.515 233.907 304.874 234.549 304.083 234.549Z" fill="#023EA1"/>
<path d="M78.1324 175.511L68.7607 253.461L62.0665 252.791L61.0996 173.484L78.1324 175.511Z" fill="#EE384E"/>
<path d="M67.9258 175.511L85.5165 253.461L92.2292 252.791L87.6177 173.484L67.9258 175.511Z" fill="#DE051F"/>
<path d="M125.372 141.91L70.3404 129.023C64.576 127.675 60.9965 121.902 62.3446 116.137L75.2308 61.106C76.5789 55.3416 82.3526 51.7621 88.117 53.1102L143.148 65.9964C148.913 67.3446 152.492 73.1182 151.144 78.8826L138.258 133.914C136.9 139.678 131.136 143.258 125.372 141.91Z" fill="white" stroke="#0055DB" stroke-width="2.53994" stroke-miterlimit="10"/>
<path d="M80.6053 117.894C80.6053 117.894 82.5949 120.432 82.6972 124.96C82.7902 129.487 82.2231 132.723 80.2892 132.76C78.3553 132.797 74.4504 131.589 73.7717 130.315C73.093 129.041 71.81 129.06 71.7449 126.484C71.6891 123.9 74.7851 118.014 77.3698 117.959C79.9638 117.921 80.6053 117.894 80.6053 117.894Z" fill="#FFBE9B"/>
<path d="M72.729 126.791C72.729 126.791 72.1526 130.027 70.9253 133.29C69.7074 136.544 69.0938 137.855 69.0938 137.855C69.0938 137.855 73.073 142.29 76.9315 141.565C80.7899 140.839 80.7341 138.255 80.7341 138.255C80.7341 138.255 77.1174 135.428 77.0337 131.551C76.95 127.684 76.95 127.684 76.95 127.684L72.729 126.791Z" fill="#FEBE9A"/>
<path d="M82.5485 117.855C82.5485 117.855 84.3708 112.649 83.0598 112.035C81.7489 111.412 79.2014 112.76 78.5692 113.43C77.937 114.09 76.6539 114.118 75.9938 114.127C75.9938 114.127 69.5414 114.267 68.277 115.587C67.0125 116.907 67.0218 117.549 67.0404 118.199C67.0497 118.841 67.1055 121.37 66.4919 122.737C66.2222 123.322 65.9154 125.972 67.2635 128.538C68.6117 131.086 69.9226 131.709 70.5641 131.699C71.2056 131.69 71.8007 131.671 71.8379 131.021C71.8936 130.323 72.1261 129.338 72.4236 128.427C72.7118 127.562 73.0093 125.833 73.0093 125.833C73.0093 125.833 73.5858 122.597 74.8409 121.268C76.0961 119.938 76.1054 119.947 78.6714 119.241C81.2468 118.525 81.9441 119.808 82.5485 117.855Z" fill="#160C56"/>
<path d="M73.9372 122.767C74.9228 123.845 73.6676 125.807 73.6676 125.807C73.6676 125.807 71.7523 126.495 71.7059 124.552C71.6687 122.618 72.961 121.679 73.9372 122.767Z" fill="#FFBE9B"/>
<path d="M90.7546 145.172L96.6212 153.122C96.6212 153.122 97.0396 153.54 97.458 153.122C97.8764 152.703 104.989 143.908 105.407 142.653C105.826 141.398 105.407 140.143 106.662 138.041C107.918 135.94 109.173 135.103 109.173 135.103C109.173 135.103 110.428 134.267 110.009 135.522C109.591 136.777 109.173 138.032 110.009 138.46C110.846 138.887 117.54 140.133 117.54 140.133C117.54 140.133 110.837 142.225 109.154 144.745C107.481 147.255 102.869 155.632 100.768 157.724C98.676 159.816 96.5747 161.08 95.3196 159.816C94.0645 158.561 85.6875 150.184 85.6875 150.184L90.7546 145.172Z" fill="#FFBE9B"/>
<path d="M86.9834 129.673C86.9834 129.673 84.0455 131.765 83.6271 133.866C83.2087 135.958 81.5352 139.314 81.5352 139.314L83.2087 141.406C83.2087 141.406 86.5651 138.896 88.657 137.631C90.7489 136.367 94.5236 134.693 94.5236 134.693L86.9927 133.02C86.9927 133.02 86.5743 131.765 86.9927 130.928C87.4111 130.091 86.9834 129.673 86.9834 129.673Z" fill="#FFBE9B"/>
<path d="M62.0755 257.885C62.0755 257.885 61.7036 258.935 63.8792 258.926C66.0548 258.908 77.8718 258.805 77.8718 258.805C77.8718 258.805 80.1403 258.331 78.0298 257.327C75.9193 256.323 69.5878 253.543 69.5878 253.543C69.5878 253.543 69.1043 253.413 69.1043 252.204L61.9453 252.269L62.0755 257.885Z" fill="#170856"/>
<path d="M85.1595 257.885C85.1595 257.885 84.7876 258.935 86.9632 258.926C89.1387 258.908 100.956 258.805 100.956 258.805C100.956 258.805 103.224 258.331 101.114 257.327C99.0033 256.332 92.6718 253.543 92.6718 253.543C92.6718 253.543 92.1883 253.413 92.1883 252.204L85.0293 252.269L85.1595 257.885Z" fill="#170856"/>
<path d="M78.5582 136.601C78.5582 136.601 79.2555 136.025 80.0551 136.666C80.8546 137.299 83.6531 139.372 85.0199 142.022C86.3773 144.681 86.8514 148.372 87.3163 156.981C87.7905 165.6 87.7161 174.916 87.7161 174.916L61.0233 175.502C61.0233 175.502 60.1772 159.826 62.6968 150.194C65.2164 140.562 68.9819 137.215 69.8186 136.796C70.6554 136.378 71.4922 137.215 71.4922 137.215C71.4922 137.215 75.1646 140.581 78.5582 136.601Z" fill="#0083F9"/>
<path d="M116.908 327.939L105.677 275.716L102.172 259.445H57.9531L73.7866 327.939" stroke="#96AABE" stroke-width="2.53994" stroke-miterlimit="10"/>
<path d="M61.8047 276.088L105.679 275.716" stroke="#96AABE" stroke-width="2.53994" stroke-miterlimit="10"/>
<path d="M65.502 292.145L109.125 291.773" stroke="#96AABE" stroke-width="2.53994" stroke-miterlimit="10"/>
<path d="M69.3066 309.158L112.781 308.786" stroke="#96AABE" stroke-width="2.53994" stroke-miterlimit="10"/>
<path d="M42.8184 327.94L54.0589 275.717L57.564 259.446H101.764L85.9397 327.94" stroke="#2626DB" stroke-width="2.53994" stroke-miterlimit="10"/>
<path d="M97.9237 276.089L54.0586 275.717" stroke="#2626DB" stroke-width="2.53994" stroke-miterlimit="10"/>
<path d="M94.2342 292.146L50.6016 291.774" stroke="#2626DB" stroke-width="2.53994" stroke-miterlimit="10"/>
<path d="M90.4234 309.159L46.9395 308.787" stroke="#2626DB" stroke-width="2.53994" stroke-miterlimit="10"/>
<path d="M393.833 242.591L366.266 220.854C366.266 220.854 365.513 220.352 364.425 218.781C363.328 217.219 361.218 215.638 359.99 215.982L357.257 213.444C357.257 213.444 356.299 213.258 357.257 214.141C358.215 215.034 358.754 216.122 358.754 216.122C358.754 216.122 357.899 216.559 358.14 216.903C358.14 216.903 357.452 217.107 357.527 217.619C357.527 217.619 355.89 218.13 357.499 219.729C359.107 221.338 359.656 221.979 361.422 222.76C363.189 223.541 364.528 224.461 366.266 226.107C368.005 227.743 390.356 249.202 390.356 249.202L393.833 242.591Z" fill="#FFBE9B"/>
<path d="M406.721 237.134C406.721 237.134 412.978 236.985 413.964 229.965C414.94 222.946 410.189 220.528 407.483 219.106C404.769 217.674 403.114 217.897 401.896 215.936C400.678 213.974 400.231 213.453 400.231 213.453C400.231 213.453 395.136 218.753 398.697 223.457C402.268 228.152 406.721 237.134 406.721 237.134Z" fill="#180857"/>
<path d="M416.908 359.384C416.982 359.403 416.982 359.514 417.001 359.588C417.187 360.36 418.135 364.823 415.718 364.869C413.254 364.925 403.892 364.99 402.599 365C402.506 365 402.432 364.944 402.404 364.851C402.311 364.488 402.134 363.586 402.767 363.298C402.767 363.298 408.206 360.769 410.065 359.291C411.766 357.924 416.164 359.152 416.908 359.384Z" fill="#170856"/>
<path d="M393.405 358.715C393.48 358.743 393.489 358.845 393.498 358.92C393.684 359.756 394.632 364.684 392.215 364.805C389.742 364.926 378.316 364.814 376.837 364.805C376.726 364.805 376.642 364.74 376.614 364.647C376.503 364.312 376.391 363.531 377.377 363.103C377.377 363.103 383.689 360.575 386.572 358.808C389.147 357.218 392.727 358.445 393.405 358.715Z" fill="#170856"/>
<path d="M418.393 280.951L416.971 359.468L410.053 359.282L404.559 309.438L405.219 295.604L409.226 280.793L418.393 280.951Z" fill="#0064E1"/>
<path d="M411.101 280.821C411.101 280.821 404.565 314.18 402.566 318.057L393.464 358.798H386.547L390.842 280.69L411.101 280.821Z" fill="#003EB0"/>
<path d="M398.706 223.447C398.706 223.447 395.247 226.31 395.201 231.275C395.155 236.24 396.019 236.417 398.018 236.417C400.017 236.417 401.607 236.231 401.83 237.328C402.053 238.425 401.784 242.702 401.328 243.976C400.882 245.249 409.603 243.976 409.603 243.976C409.603 243.976 407.195 237.43 406.823 234.567C406.451 231.703 406.869 228.467 405.14 225.743C403.438 222.982 401.393 220.89 398.706 223.447Z" fill="#FFBE9B"/>
<path d="M400.478 245.501L393.468 241.596L389.646 249.322L397.428 255.969L400.478 245.501Z" fill="#F79F03"/>
<path d="M411.097 244.868C411.097 244.868 415.3 249.629 416.76 261.139C418.219 272.649 418.396 280.952 418.396 280.952H390.848C390.848 280.952 392.94 264.709 394.79 256.118C396.64 247.518 399.968 244.05 399.968 244.05C399.968 244.05 400.833 243 401.874 243.688C402.925 244.376 405.426 244.506 407.648 243.455C409.889 242.395 410.391 243.911 411.097 244.868Z" fill="#FCBE42"/>
<path d="M405.527 227.761C405.527 227.761 407.024 227.398 407.712 228.17C408.4 228.942 407.573 230.624 406.215 231.127C404.839 231.638 405.527 227.761 405.527 227.761Z" fill="#FFBE9B"/>
<path d="M401.617 259.104C401.617 259.104 398.475 280.934 396.838 286.875C395.202 292.816 392.747 298.404 392.747 298.404C392.747 298.404 391.65 301.137 392.747 302.16C393.844 303.182 396.42 304.345 396.94 302.504C397.452 300.663 397.452 296.702 398.14 295.819C398.828 294.926 404.75 281.148 406.74 272.892C408.72 264.635 409.055 260.954 409.055 260.954L401.617 259.104Z" fill="#FFBE9B"/>
<path d="M277.289 285.907C277.289 285.907 281.129 284.345 280.84 279.948C280.561 275.541 278.293 272.426 282.969 273.7C287.655 274.973 289.227 275.541 292.639 274.834C296.032 274.127 298.877 272.705 297.39 277.103C295.902 281.509 294.294 285.191 297.799 285.907C301.304 286.614 305.069 283.964 305.516 290.863C305.962 297.752 300.402 305.506 291.411 305.794C282.421 306.073 278.442 302.354 278.442 302.354C278.442 302.354 276.034 298.961 279.79 298.105C283.555 297.269 287.386 295.669 285.47 293.912C283.555 292.155 277.307 292.016 277.307 292.016C277.307 292.016 269.47 290.444 277.289 285.907Z" fill="#649EEA"/>
<path d="M318.403 287.041C317.771 282.643 318.254 279.482 326.418 278.292C334.581 277.102 339.341 282.001 339.834 287.041C340.326 292.08 333.233 293.911 333.233 293.911C333.233 293.911 328.193 295.343 330.75 299.75C333.298 304.157 334.469 308.415 328.668 309.057C322.866 309.698 316.525 308.164 312.983 305.812C309.45 303.451 305.824 297.482 309.877 294.367C309.877 294.367 311.012 293.586 314.917 293.372C318.822 293.149 318.403 287.041 318.403 287.041Z" fill="#023EA1"/>
<path d="M289.666 286.334C289.666 286.334 296.453 301.675 297.374 312.116" stroke="#023EA1" stroke-width="0.846646" stroke-miterlimit="10"/>
<path d="M327.375 288.854C327.375 288.854 315.372 306.678 312.527 312.637" stroke="#649EEA" stroke-width="0.846646" stroke-miterlimit="10"/>
<path d="M293.186 310.898H320.734C320.734 310.898 323.756 311.112 323.495 315.231C323.272 319.024 318.456 318.197 315.974 318.197C313.491 318.197 292.582 318.197 292.582 318.197C292.582 318.197 289.197 318.773 289.197 314.943C289.207 311.103 290.49 310.898 293.186 310.898Z" fill="#0054A5"/>
<path d="M292.605 318.207L296.771 342.557H315.273L318.406 324.278L292.633 318.207H292.605Z" fill="#0054A5"/>
<path d="M292.631 318.207L318.403 324.278L319.445 318.207H292.631Z" fill="#006AD5"/>
<path d="M304.479 311.819C304.479 311.819 305.873 284.81 313.925 267.861" stroke="#FCBE42" stroke-width="0.846646" stroke-miterlimit="10"/>
<path d="M320.561 258.117C320.561 258.117 321.221 266.41 313.133 269.646C313.123 269.655 311.376 262.571 320.561 258.117Z" fill="#FCBE42"/>
<path d="M308.408 284.513C308.408 284.513 311.393 277.438 320.56 278.386C320.569 278.377 319.853 285.434 308.408 284.513Z" fill="#FCBE42"/>
<path d="M305.406 302.309C305.406 302.309 306.95 294.788 316.126 293.923C316.117 293.923 316.796 300.961 305.406 302.309Z" fill="#FCBE42"/>
<path d="M305.08 302.344C305.08 302.344 306.14 294.748 297.782 290.853C297.782 290.853 294.788 297.277 305.08 302.344Z" fill="#FCBE42"/>
<path d="M308.51 284.458C308.51 284.458 310.537 277.048 302.736 272.13C302.746 272.13 298.943 278.108 308.51 284.458Z" fill="#FCBE42"/>
<path d="M121.549 109.461C121.317 105.416 120.145 101.734 117.403 98.6663C116.91 98.1084 116.343 97.6064 115.794 97.0578C114.437 98.8522 112.856 100.256 110.941 101.251C107.994 102.785 105.056 102.952 102.164 101.112C100.175 99.8378 98.8729 97.9969 98.0269 95.812C97.6829 94.9473 97.4411 94.0362 97.1436 93.1064C95.2748 93.4783 92.7088 94.8637 91.0445 96.4163C87.1954 100.005 85.2894 104.561 84.4713 109.656C84.3132 110.66 84.6758 111.283 85.6335 111.673C86.2192 111.906 86.8421 112.082 87.465 112.222C97.2831 114.379 107.092 116.508 116.91 118.656C117.375 118.749 117.83 118.851 118.304 118.916C119.727 119.121 120.489 118.591 120.833 117.205C121.438 114.639 121.698 112.064 121.549 109.461Z" fill="#C6D7F0"/>
<path d="M101.874 97.6622C103.631 99.8843 106.011 100.693 108.475 99.9587C109.861 99.5403 111.051 98.7872 112.111 97.8482C114.426 95.7748 116.043 93.246 117.001 90.2987C118.033 87.1004 117.94 83.9486 116.425 80.9176C113.924 75.9621 108.196 74.6047 103.743 77.896C101.335 79.6903 99.931 82.1263 99.2615 85.0271C98.8711 86.7285 98.8339 88.4578 99.0384 90.1964C99.3638 92.9019 100.145 95.4773 101.874 97.6622Z" fill="#C6D7F0"/>
<path d="M130.913 210.162L122.434 205.383V195.909L130.913 191.354V210.162Z" fill="#023EA1"/>
<path d="M130.912 200.884L139.391 195.91L130.912 191.363V200.884Z" fill="#DBE9F8"/>
<path d="M221.529 205.521H152.44C150.07 205.521 148.154 203.606 148.154 201.235V200.296C148.154 197.925 150.07 196.01 152.44 196.01H221.529C223.9 196.01 225.815 197.925 225.815 200.296V201.235C225.825 203.606 223.9 205.521 221.529 205.521Z" fill="#EE384E"/>
<path d="M351.442 211.325H149.828C148.907 211.325 148.154 210.572 148.154 209.651C148.154 208.731 148.907 207.978 149.828 207.978H351.451C352.372 207.978 353.125 208.731 353.125 209.651C353.115 210.572 352.362 211.325 351.442 211.325Z" fill="#DBE9F8"/>
<path d="M272.511 217.201H150.213C149.292 217.201 148.539 216.447 148.539 215.527C148.539 214.607 149.292 213.854 150.213 213.854H272.511C273.431 213.854 274.184 214.607 274.184 215.527C274.184 216.447 273.44 217.201 272.511 217.201Z" fill="#DBE9F8"/>
<path d="M92.0108 145.591C92.0108 145.591 88.236 140.143 84.0615 138.469C79.8869 136.796 77.7764 140.143 79.8683 143.499C81.9603 146.856 85.735 151.449 85.735 151.449L92.0108 145.591Z" fill="#0064B7"/>
<path d="M400.482 260.209C400.482 260.209 402.37 248.178 407.418 248.122C407.418 248.122 410.282 248.122 410.356 252.483C410.431 256.843 410.012 262.022 410.012 262.022L400.482 260.209Z" fill="#F79F03"/>
</svg>
