<svg width="55" height="57" viewBox="0 0 55 57" fill="none" xmlns="http://www.w3.org/2000/svg">
<path d="M22.2921 0.192383L30.227 8.06728C30.3082 8.18518 30.4973 8.57892 30.4973 8.68459V17.1768H46.7409L47.187 17.5071C49.2969 20.0531 52.6282 22.3978 54.6158 24.9449C54.7982 25.1796 54.8416 25.3887 55.0007 25.6145V52.1455C54.7938 54.587 53.1165 56.5212 50.6072 56.7948C43.7011 56.4545 36.2845 57.2943 29.4373 56.8138C27.1327 56.6514 25.4554 55.2944 24.867 53.0643L24.7302 52.091V39.8249H4.49571C2.13435 39.8249 0.0377171 36.9074 0.221242 34.6684C0.632783 25.0228 -0.3082 14.9467 0.221242 5.35111C0.356939 2.89187 1.67943 0.530514 4.32998 0.192383H22.2921ZM20.9618 2.07991H4.60693C3.66484 2.07991 2.24447 3.46914 2.22222 4.46685L2.21777 35.2223C2.2111 36.1866 2.81395 37.1243 3.65817 37.5547C3.81722 37.6359 4.60693 37.9374 4.71705 37.9374H24.7313V21.7849C24.7313 21.3945 24.9704 20.5726 25.1217 20.1777C25.6845 18.7062 26.9603 17.6173 28.5019 17.2891V9.62891H23.3465C23.193 9.62891 22.43 9.27965 22.2565 9.1662C21.5824 8.72685 20.9629 7.59456 20.9629 6.79817V2.07991H20.9618ZM27.1705 7.74138L22.9572 3.52253V7.13074C22.9572 7.30314 23.5523 7.74138 23.678 7.74138H27.1705ZM45.4663 19.0643H29.1114C28.0948 19.0643 26.7823 20.4146 26.7267 21.4501L26.7223 52.4269C26.8724 53.9107 28.146 54.8128 29.5563 54.9184C36.2166 54.5291 43.4809 55.4434 50.0711 54.924C51.1177 54.8417 52.1833 54.4101 52.696 53.4447C52.7661 53.3123 53.0053 52.7373 53.0053 52.6438V26.6122H47.8499C47.7798 26.6122 46.8867 26.2307 46.7587 26.1506C46.1158 25.7446 45.4652 24.6513 45.4652 23.8927V19.0632L45.4663 19.0643ZM51.675 24.7258L47.4617 20.5069V24.1152C47.4617 24.3376 48.1146 24.7258 48.2937 24.7258H51.675Z" fill="black"/>
<path d="M37.5934 4.85537H46.5194C48.4003 4.85537 50.438 6.37696 50.9552 8.18552C51.3567 9.59032 51.4268 14.6089 51.2221 16.1127C51.0241 17.5731 49.3969 17.5953 49.2378 16.0104C49.0276 13.9204 49.5871 10.8872 49.1878 8.95632C49.0265 8.17884 47.8809 6.85413 47.0745 6.85413H37.5946C38.0784 7.65496 40.2451 9.05865 40.125 9.98851C40.0048 10.9184 39.0505 10.994 38.3676 10.4657C37.5145 9.80499 35.41 7.66052 34.7082 6.80185C34.3089 6.31245 34.0453 6.05107 34.3345 5.42486C34.5414 4.97661 37.8281 1.66537 38.3676 1.24716C39.0505 0.717717 40.0004 0.754422 40.125 1.72432C40.2495 2.69423 38.0784 4.05787 37.5946 4.85871L37.5934 4.85537Z" fill="black"/>
<path d="M17.7446 51.1466C17.3042 50.3914 15.282 48.9999 15.1274 48.2647C14.9728 47.5295 15.7459 46.9411 16.4477 47.1736L20.8 51.4725C21.156 51.9819 21.0336 52.3523 20.6855 52.815C20.1482 53.528 17.4588 56.2275 16.748 56.7547C15.9038 57.3831 14.8894 56.7491 15.153 55.8315C15.3577 55.1185 17.3075 53.7916 17.7446 53.0341H8.26471C6.74424 53.0341 4.9012 51.4191 4.38511 50.0354C3.86901 48.6518 3.80228 44.1193 4.02473 42.6833C4.23829 41.3041 5.83551 41.3886 5.99123 42.7656C6.19255 44.5408 5.55967 48.3592 6.34382 49.7396C6.71643 50.3969 7.84316 51.1466 8.59728 51.1466H17.7446Z" fill="black"/>
<path d="M31.1295 30.4106L48.7623 30.4718C49.6232 30.8144 49.3418 32.2537 48.4053 32.277H31.3252C30.2819 32.1625 30.1095 30.7377 31.1295 30.4106Z" fill="black"/>
<path d="M31.1295 36.0723L48.7623 36.1334C49.6232 36.476 49.3418 37.9153 48.4053 37.9387H31.3252C30.2819 37.8241 30.1095 36.3993 31.1295 36.0723Z" fill="black"/>
<path d="M31.1295 41.7339L48.7623 41.7951C49.6232 42.1376 49.3418 43.5769 48.4053 43.6003H31.3252C30.2819 43.4857 30.1095 42.0609 31.1295 41.7339Z" fill="black"/>
<path d="M31.1277 47.395L46.8764 47.4562C47.7896 47.9845 47.437 49.1791 46.4092 49.2614L31.438 49.2592C30.3102 49.228 30.0544 47.771 31.1288 47.395H31.1277Z" fill="black"/>
<path d="M31.1302 24.7489L40.9694 24.7322C42.0716 24.9068 41.9515 26.5318 40.867 26.6153L31.2247 26.6064C30.2737 26.4573 30.1592 25.0102 31.1302 24.7489Z" fill="black"/>
<path d="M48.983 50.8911C49.6715 50.3083 48.6337 47.6922 49.9818 47.393C51.7503 47.0015 51.3143 50.3761 50.9205 51.3327C50.1942 53.0979 48.0809 53.2558 46.4192 53.0222C45.2702 52.861 45.2657 51.3805 46.2101 51.1681C46.9386 51.0046 48.4046 51.3783 48.9819 50.89L48.983 50.8911Z" fill="black"/>
<path d="M6.62744 13.4263L24.2603 13.4874C25.1212 13.83 24.8398 15.2693 23.9033 15.2927H6.82209C5.78434 15.2693 5.68646 13.6376 6.62633 13.4263H6.62744Z" fill="black"/>
<path d="M6.62744 19.0879L22.375 19.1491C23.2359 19.4916 22.9545 20.9309 22.018 20.9543H6.82209C5.78434 20.9309 5.68646 19.2992 6.62633 19.0879H6.62744Z" fill="black"/>
<path d="M6.62744 24.749L22.375 24.8102C23.2359 25.1528 22.9545 26.5921 22.018 26.6154H6.82209C5.78434 26.5921 5.68646 24.9604 6.62633 24.749H6.62744Z" fill="black"/>
<path d="M6.62744 30.4106L22.375 30.4718C23.2359 30.8144 22.9545 32.2537 22.018 32.277H6.82209C5.78434 32.2537 5.68646 30.622 6.62633 30.4106H6.62744Z" fill="black"/>
<path d="M6.62878 7.76487L16.4668 7.74707C17.3833 7.89278 17.5235 9.1452 16.7215 9.54339L6.72221 9.62125C5.74564 9.46887 5.74786 7.96174 6.62878 7.76487Z" fill="black"/>
</svg>
