<svg width="69" height="62" viewBox="0 0 69 62" fill="none" xmlns="http://www.w3.org/2000/svg">
<path d="M69.003 54.7192C68.9229 54.991 68.8269 55.2629 68.7468 55.5347C67.7864 59.1485 64.4566 61.5151 60.7267 61.2433C57.0768 60.9874 54.0993 58.0612 53.6991 54.3514C53.2989 50.7536 55.6361 47.3156 59.1899 46.2762C59.4461 46.1963 59.7022 46.1323 60.0063 46.0524C60.0063 41.3672 60.0063 36.682 60.0063 31.9488C58.7097 31.9488 57.445 31.9488 56.1163 31.9488C55.6681 34.0116 54.6276 35.7226 52.8507 36.9219C51.506 37.8333 50.0172 38.281 48.4164 38.2491C44.7985 38.1691 42.3172 36.0584 40.9565 31.9488C39.2757 31.9488 37.5788 31.9488 35.8339 31.9488C35.8339 36.666 35.8339 41.3512 35.8339 46.0364C40.8605 47.1877 42.5253 51.4412 42.1251 54.4793C41.5968 58.429 38.3952 61.2593 34.5052 61.2593C30.6472 61.2593 27.4936 58.4769 26.9013 54.5593C26.325 50.6896 28.7742 47.3476 33.1925 46.0364C33.1925 41.3832 33.1925 36.714 33.1925 31.9808C31.4636 31.9808 29.7507 31.9808 28.0379 31.9808C26.6772 36.1383 23.9878 38.345 20.3539 38.2651C16.9441 38.1851 13.7585 35.9624 12.878 31.9648C11.6134 31.9648 10.3487 31.9648 9.00403 31.9648C9.00403 36.634 9.00403 41.3192 9.00403 46.0684C11.3252 46.5641 13.1662 47.7953 14.3508 49.9221C15.2793 51.5851 15.5354 53.36 15.1512 55.2309C14.4148 58.8607 11.0691 61.4192 7.24313 61.2593C3.54522 61.0994 0.439616 58.1571 0.0554178 54.3674C-0.312772 50.8175 1.89637 47.0118 6.4107 46.0524C6.4107 45.7965 6.4107 45.5087 6.4107 45.2209C6.4107 40.5197 6.4107 35.8185 6.4107 31.1013C6.4107 29.7582 6.8109 29.3584 8.1716 29.3584C9.74041 29.3584 11.3092 29.3584 12.878 29.3584C13.6784 25.9524 15.7435 23.8737 19.1853 23.0582C19.1853 22.8023 19.1853 22.5145 19.1853 22.2267C19.1853 17.5255 19.1853 12.8243 19.1853 8.10714C19.1853 6.79592 19.5855 6.38017 20.8822 6.38017C22.8832 6.38017 24.8682 6.38017 26.9173 6.38017C26.9653 6.22027 27.0133 6.07636 27.0453 5.93244C27.9738 2.68639 30.0869 0.719568 33.4326 0.127923C33.5287 0.111933 33.6087 0.0479712 33.7048 0C34.233 0 34.7773 0 35.3056 0C35.4016 0.0479712 35.4817 0.111933 35.5777 0.127923C38.9395 0.719568 41.0366 2.68639 41.965 5.93244C42.0131 6.07636 42.0451 6.22027 42.0931 6.38017C44.1422 6.38017 46.1272 6.38017 48.1282 6.38017C49.4249 6.38017 49.8251 6.79592 49.8251 8.10714C49.8251 12.8083 49.8251 17.5095 49.8251 22.2107C49.8251 22.4985 49.8251 22.7863 49.8251 23.0422C53.2669 23.8417 55.3319 25.9364 56.1323 29.3424C57.7012 29.3424 59.27 29.3424 60.8388 29.3424C62.1995 29.3424 62.5997 29.7422 62.5997 31.0854C62.5997 35.7865 62.5997 40.4877 62.5997 45.1889C62.5997 45.4767 62.5997 45.7486 62.5997 46.0204C65.5932 46.692 67.5943 48.387 68.6028 51.2013C68.7468 51.617 68.8589 52.0488 68.987 52.4805C69.003 53.2321 69.003 53.9836 69.003 54.7192ZM28.0379 29.3264C32.3601 29.3264 36.6663 29.3264 40.9885 29.3264C41.7729 25.9364 43.87 23.8577 47.2318 23.0742C47.2318 18.357 47.2318 13.6718 47.2318 8.98661C45.4708 8.98661 43.774 8.98661 42.0931 8.98661C41.0366 13.4 37.7068 15.1589 34.7933 15.2708C33.2405 15.3348 31.7998 14.935 30.4711 14.1195C28.5501 12.9203 27.4295 11.1453 26.9493 9.0026C25.1884 9.0026 23.4915 9.0026 21.7946 9.0026C21.7946 13.7358 21.7946 18.421 21.7946 23.0902C25.1884 23.8897 27.2374 25.9844 28.0379 29.3264ZM39.6118 7.69139C39.6278 4.87708 37.3226 2.55847 34.5052 2.57446C31.6717 2.57446 29.3986 4.86108 29.3986 7.69139C29.3986 10.4737 31.6877 12.7603 34.4732 12.7763C37.2906 12.7923 39.6118 10.5057 39.6118 7.69139ZM7.62732 48.4989C4.80987 48.5149 2.5367 50.8335 2.55271 53.6638C2.56871 56.4462 4.8739 58.7008 7.65934 58.7008C10.4768 58.7008 12.782 56.3982 12.766 53.5839C12.766 50.7696 10.4608 48.4829 7.62732 48.4989ZM34.5052 58.7008C37.2906 58.7008 39.5958 56.4302 39.6118 53.6638C39.6278 50.8335 37.3707 48.5149 34.5372 48.4989C31.7198 48.4829 29.3986 50.7536 29.3825 53.5839C29.3825 56.3982 31.6717 58.7008 34.5052 58.7008ZM20.4339 35.7386C23.2674 35.7386 25.5566 33.4519 25.5726 30.6376C25.5726 27.8233 23.2674 25.5367 20.4499 25.5367C17.6645 25.5367 15.3753 27.8233 15.3593 30.6056C15.3273 33.42 17.6165 35.7386 20.4339 35.7386ZM53.6671 30.6216C53.6671 27.8073 51.3619 25.5207 48.5284 25.5367C45.743 25.5527 43.4538 27.8233 43.4538 30.6056C43.4378 33.436 45.743 35.7386 48.5604 35.7386C51.3779 35.7386 53.6671 33.4519 53.6671 30.6216ZM66.4417 53.5519C66.4257 50.7376 64.1045 48.4669 61.271 48.4989C58.4856 48.5309 56.2284 50.8175 56.2284 53.5999C56.2284 56.4142 58.5496 58.7168 61.367 58.7008C64.1845 58.6848 66.4577 56.3822 66.4417 53.5519Z" fill="#2A2A2A"/>
</svg>
