<svg width="494" height="445" viewBox="0 0 494 445" fill="none" xmlns="http://www.w3.org/2000/svg">
<path d="M220.186 184.826C258.491 184.826 289.544 153.773 289.544 115.468C289.544 77.1628 258.491 46.1103 220.186 46.1103C181.881 46.1103 150.828 77.1628 150.828 115.468C150.828 153.773 181.881 184.826 220.186 184.826Z" stroke="#003EB0" stroke-miterlimit="10" stroke-dasharray="6 6"/>
<path d="M88.194 264.203C132.075 264.203 167.648 228.63 167.648 184.749C167.648 140.868 132.075 105.295 88.194 105.295C44.3129 105.295 8.74023 140.868 8.74023 184.749C8.74023 228.63 44.3129 264.203 88.194 264.203Z" stroke="#2626DB" stroke-miterlimit="10" stroke-dasharray="6 6"/>
<path d="M13.4467 171.315C20.8731 171.315 26.8934 165.294 26.8934 157.868C26.8934 150.442 20.8731 144.421 13.4467 144.421C6.02029 144.421 0 150.442 0 157.868C0 165.294 6.02029 171.315 13.4467 171.315Z" fill="#FCBE42"/>
<path d="M8.74023 155.173L14.1167 163.243L18.1573 156.509" stroke="white" stroke-width="2" stroke-miterlimit="10"/>
<path d="M415.623 308.825C443.757 308.825 466.563 286.018 466.563 257.885C466.563 229.752 443.757 206.945 415.623 206.945C387.49 206.945 364.684 229.752 364.684 257.885C364.684 286.018 387.49 308.825 415.623 308.825Z" stroke="#DE051F" stroke-miterlimit="10" stroke-dasharray="6 6"/>
<path d="M482.473 184.116C482.473 184.116 475.377 202.72 466.693 195.843C458.01 188.967 454.342 191.803 450.706 194.923C447.071 198.044 442.932 206.322 434.161 198.581C425.39 190.828 423.868 183.481 417.681 183.163C411.483 182.845 386.933 173.319 393.098 164.833C399.274 156.346 414.254 157.507 420.44 159.686C426.627 161.854 434.062 157.343 438.837 152.503C443.611 147.663 452.864 145.714 455.415 154.452C457.966 163.19 466.573 168.227 472.76 166.497C478.969 164.756 487.072 171.425 482.473 184.116Z" fill="#023EA1"/>
<path d="M469.277 180.426L385.586 159.434" stroke="white" stroke-miterlimit="10" stroke-linecap="round" stroke-linejoin="round"/>
<path d="M442.727 190.74L435.27 171.895L449.362 158.207" stroke="white" stroke-miterlimit="10" stroke-linecap="round" stroke-linejoin="round"/>
<path d="M464.899 121.382C464.899 121.382 474.579 121.218 475.028 113.312C475.466 105.417 465.72 98.6281 459.643 101.99C453.544 105.351 453.566 110.695 448.759 108.439C443.952 106.184 429.552 101.902 427.099 108.987C424.636 116.061 431.206 121.054 422.446 126.168C413.686 131.27 398.695 122.751 397.928 137.807C397.162 152.864 402.56 178.487 424.997 167.362C447.434 156.247 426.267 146.491 445.167 142.647C464.067 138.793 456.051 132.584 457.289 126.408C458.504 120.233 464.899 121.382 464.899 121.382Z" fill="#EE384E"/>
<path d="M448.54 119.827C448.54 119.827 431.206 138.759 410.74 150.115C390.274 161.47 384.164 160.857 384.164 160.857" stroke="white" stroke-miterlimit="10" stroke-linecap="round" stroke-linejoin="round"/>
<path d="M138.299 42.4429C138.299 42.4429 131.74 53.59 141.967 53.6229C152.195 53.6557 157.494 56.5684 155.874 66.7192C154.253 76.8589 157.932 83.0786 163.802 84.5678C169.671 86.046 180.829 87.0206 177.905 100.686C174.982 114.363 171.138 141.333 155.786 139.888C140.434 138.431 125.893 119.663 128.072 109.337C130.251 99.0109 137.719 93.4592 129.648 84.962C121.578 76.4647 114.559 85.2795 109.862 73.8039C105.164 62.3282 99.3715 51.1153 113.628 41.4245C126.418 32.7192 140.314 35.4239 138.299 42.4429Z" stroke="#DE051F" stroke-miterlimit="10"/>
<path d="M128.84 54.2348C128.84 54.2348 157.879 126.483 169.541 143.095" stroke="#DE051F" stroke-miterlimit="10"/>
<path d="M162.465 94.2914L153.782 112.622L136.82 110.476" stroke="#DE051F" stroke-miterlimit="10"/>
<path d="M145.373 62.1081L137.16 74.416L122.75 74.3503" stroke="#DE051F" stroke-miterlimit="10"/>
<path d="M414.131 173.952C414.131 173.952 447.408 150.672 474.915 144.551" stroke="#FCBE42" stroke-miterlimit="10"/>
<path d="M492.588 143.402C492.588 143.402 483.39 151.844 472.078 145.241C472.067 145.241 478.845 136.635 492.588 143.402Z" stroke="#FCBE42" stroke-miterlimit="10"/>
<path d="M450.125 153.378C450.125 153.378 461.261 150.377 468.609 162.116C468.609 162.116 459.597 167.777 450.125 153.378Z" stroke="#FCBE42" stroke-miterlimit="10"/>
<path d="M426.262 166.233C426.262 166.233 436.588 161.12 446.092 171.194C446.092 171.194 438.372 178.508 426.262 166.233Z" stroke="#FCBE42" stroke-miterlimit="10"/>
<path d="M425.914 165.904C425.914 165.904 435.9 160.145 432.78 146.654C432.791 146.654 422.41 149.041 425.914 165.904Z" stroke="#FCBE42" stroke-miterlimit="10"/>
<path d="M450.277 153.444C450.277 153.444 460.921 148.998 459.541 135.223C459.541 135.234 448.963 136.263 450.277 153.444Z" stroke="#FCBE42" stroke-miterlimit="10"/>
<path d="M165.224 47.3273C165.224 47.3273 189.654 44.8635 186.862 58.2445C184.069 71.6255 189.227 74.0892 194.68 76.3778C200.133 78.6554 211.543 78.6664 207.842 92.6168C204.141 106.567 196.87 112.283 199.947 119.291C203.024 126.299 206.068 158.646 193.311 156.51C180.543 154.375 173.557 137.216 172.528 129.201C171.499 121.185 162.421 115.481 154.449 112.885C146.489 110.301 139.207 101.169 147.441 93.5475C155.665 85.9263 156.453 73.6512 151.142 67.7711C145.832 61.869 148.701 49.2654 165.224 47.3273Z" fill="#FCBE42"/>
<path d="M168.453 63.9171L191.514 167.768" stroke="white" stroke-miterlimit="10" stroke-linecap="round" stroke-linejoin="round"/>
<path d="M194.483 87.4811L177.817 106.107L154.953 98.1355" stroke="white" stroke-miterlimit="10" stroke-linecap="round" stroke-linejoin="round"/>
<path d="M463.255 250.714C468.009 250.714 471.862 246.86 471.862 242.107C471.862 237.353 468.009 233.5 463.255 233.5C458.502 233.5 454.648 237.353 454.648 242.107C454.648 246.86 458.502 250.714 463.255 250.714Z" fill="#003EB0"/>
<path d="M461.098 238.657L466.704 242.533L461.098 245.555V238.657Z" fill="white"/>
<path d="M445.324 75.4589L440.57 80.213L445.324 84.9671L450.078 80.213L445.324 75.4589Z" fill="#003EB0"/>
<path d="M26.8908 278.327L22.1367 283.081L26.8908 287.835L31.6449 283.081L26.8908 278.327Z" fill="#003EB0"/>
<path d="M228.735 85.2614L223.98 90.0155L228.735 94.7696L233.489 90.0155L228.735 85.2614Z" fill="#EE384E"/>
<path d="M287.475 43.8229H272.583C272.342 43.8229 272.145 44.009 272.145 44.2609V50.3929C272.145 50.5024 272.199 50.6229 272.276 50.6995L274.028 52.4515C274.105 52.5282 274.214 52.5829 274.345 52.5829H285.734C285.843 52.5829 285.964 52.5282 286.04 52.4515L287.792 50.6995C287.869 50.6229 287.924 50.5134 287.924 50.3929V44.2499C287.924 44.009 287.716 43.8229 287.475 43.8229ZM287.037 50.2068L285.547 51.696H274.532L273.042 50.2068V44.6879H287.059V50.2068H287.037Z" fill="#003EB0"/>
<path d="M288.341 45.5636L271.686 46.4396C271.445 46.4505 271.259 46.6586 271.27 46.8995C271.281 47.1404 271.467 47.3156 271.708 47.3156C271.719 47.3156 271.719 47.3156 271.73 47.3156L288.385 46.4396C288.626 46.4286 288.812 46.2206 288.801 45.9797C288.779 45.7388 288.571 45.5526 288.341 45.5636Z" fill="#003EB0"/>
<path d="M288.341 48.202L271.686 49.078C271.445 49.0889 271.259 49.297 271.27 49.5379C271.281 49.7788 271.467 49.954 271.708 49.954C271.719 49.954 271.719 49.954 271.73 49.954L288.385 49.078C288.626 49.067 288.812 48.859 288.801 48.6181C288.779 48.3662 288.571 48.1691 288.341 48.202Z" fill="#003EB0"/>
<path d="M280.029 14.0262C271.805 14.0262 265.137 20.7058 265.137 28.9183C265.137 34.0977 267.754 38.7953 272.145 41.5328V44.2484C272.145 44.4893 272.342 44.6864 272.583 44.6864H287.475C287.716 44.6864 287.913 44.4893 287.913 44.2484V41.5328C292.304 38.7844 294.921 34.0868 294.921 28.9183C294.921 20.7058 288.241 14.0262 280.029 14.0262ZM287.245 40.9087C287.114 40.9853 287.026 41.1386 287.026 41.2919V43.8214H273.01V41.2919C273.01 41.1386 272.933 40.9963 272.791 40.9087C268.531 38.3464 266.002 33.8568 266.002 28.9183C266.002 21.1876 272.287 14.9022 280.018 14.9022C287.749 14.9022 294.034 21.1876 294.034 28.9183C294.045 33.8678 291.505 38.3464 287.245 40.9087Z" fill="#003EB0"/>
<path d="M284.168 51.7493C283.949 51.6398 283.686 51.7274 283.576 51.9354C283.544 52.0011 282.755 53.4465 280.029 53.4465C277.302 53.4465 276.503 51.9902 276.481 51.9354C276.371 51.7164 276.119 51.6288 275.9 51.7493C275.681 51.8588 275.594 52.1106 275.703 52.3296C275.736 52.4172 276.744 54.3225 280.029 54.3225C283.314 54.3225 284.321 52.4063 284.354 52.3296C284.474 52.1106 284.387 51.8588 284.168 51.7493Z" fill="#003EB0"/>
<path d="M261.19 28.4816H252.43C252.189 28.4816 251.992 28.6677 251.992 28.9196C251.992 29.1605 252.189 29.3576 252.43 29.3576H261.19C261.431 29.3576 261.628 29.1605 261.628 28.9196C261.628 28.6787 261.431 28.4816 261.19 28.4816Z" fill="#DE051F"/>
<path d="M307.62 28.4816H298.86C298.619 28.4816 298.422 28.6787 298.422 28.9196C298.422 29.1605 298.619 29.3576 298.86 29.3576H307.62C307.861 29.3576 308.058 29.1605 308.058 28.9196C308.069 28.6787 307.861 28.4816 307.62 28.4816Z" fill="#DE051F"/>
<path d="M264.09 38.1178C263.959 37.8988 263.696 37.8441 263.499 37.9536L255.91 42.3336C255.691 42.465 255.637 42.7278 255.746 42.9249C255.823 43.0672 255.976 43.1439 256.129 43.1439C256.206 43.1439 256.283 43.1329 256.348 43.0782L263.937 38.6982C264.145 38.5887 264.222 38.3259 264.09 38.1178Z" fill="#DE051F"/>
<path d="M304.301 14.8932C304.17 14.6742 303.907 14.6194 303.71 14.7289L296.121 19.1199C295.902 19.2513 295.848 19.5141 295.957 19.7112C296.034 19.8536 296.187 19.9302 296.34 19.9302C296.417 19.9302 296.494 19.9083 296.559 19.8645L304.148 15.4845C304.356 15.375 304.421 15.1122 304.301 14.8932Z" fill="#DE051F"/>
<path d="M294.04 4.64252C293.821 4.53302 293.558 4.58777 293.448 4.80677L289.068 12.3952C288.937 12.6142 289.014 12.877 289.233 12.9865C289.309 13.0193 289.386 13.0522 289.452 13.0522C289.605 13.0522 289.758 12.9755 289.835 12.8332L294.215 5.24477C294.324 5.02577 294.248 4.76297 294.04 4.64252Z" fill="#DE051F"/>
<path d="M280.024 0.887573C279.783 0.887573 279.586 1.08467 279.586 1.32558V10.0856C279.586 10.3265 279.783 10.5236 280.024 10.5236C280.265 10.5236 280.462 10.3265 280.462 10.0856V1.32558C280.462 1.08467 280.265 0.887573 280.024 0.887573Z" fill="#DE051F"/>
<path d="M270.991 12.3852L266.611 4.79676C266.48 4.57776 266.217 4.52301 266.02 4.63251C265.801 4.76391 265.746 5.02671 265.856 5.22381L270.236 12.8122C270.312 12.9546 270.466 13.0312 270.619 13.0312C270.695 13.0312 270.772 13.0203 270.838 12.9655C271.035 12.867 271.112 12.6042 270.991 12.3852Z" fill="#DE051F"/>
<path d="M304.147 42.3451L296.558 37.965C296.339 37.8555 296.076 37.9103 295.967 38.1293C295.835 38.3483 295.912 38.6111 296.131 38.7206L303.719 43.1006C303.796 43.1335 303.873 43.1663 303.938 43.1663C304.092 43.1663 304.245 43.0897 304.322 42.9473C304.42 42.7174 304.355 42.4546 304.147 42.3451Z" fill="#DE051F"/>
<path d="M263.928 19.109L256.339 14.7289C256.12 14.6194 255.858 14.6742 255.748 14.8932C255.617 15.1122 255.693 15.375 255.912 15.4845L263.501 19.8645C263.577 19.8974 263.643 19.9302 263.72 19.9302C263.873 19.9302 264.026 19.8536 264.103 19.7112C264.223 19.5032 264.147 19.2404 263.928 19.109Z" fill="#DE051F"/>
<path d="M281.301 43.8222V29.6747C281.301 29.6747 281.104 23.0061 284.739 23.0061C288.375 23.0061 286.699 29.9375 279.691 29.9375" stroke="#003EB0" stroke-miterlimit="10"/>
<path d="M278.07 43.8222V29.6747C278.07 29.6747 278.267 23.0061 274.631 23.0061C270.996 23.0061 272.671 29.9375 279.679 29.9375" stroke="#003EB0" stroke-miterlimit="10"/>
<path d="M106.459 121.743H423.442L422.982 332.302L105.102 331.853L106.459 121.743Z" fill="#E9EEF2"/>
<path d="M299.736 338.226C299.714 338.226 299.604 338.752 299.593 338.785C299.484 339.31 299.374 339.847 299.287 340.372C299.144 341.194 299.046 342.026 298.958 342.847C298.86 343.92 298.794 344.993 298.772 346.066C298.75 347.337 298.783 348.607 298.87 349.866C298.969 351.29 299.166 352.702 299.429 354.126C299.725 355.67 300.097 357.181 300.579 358.67C301.093 360.269 301.739 361.856 302.484 363.368C303.294 365.01 304.236 366.576 305.298 368.065C306.459 369.686 307.762 371.208 309.175 372.609C310.751 374.175 312.46 375.588 314.277 376.869C315.296 377.592 316.336 378.325 317.431 378.928C317.781 379.114 318.175 379.267 318.559 379.398C318.624 379.42 319.303 379.617 319.303 379.65V392.221H208.281L208.215 380.395C208.215 380.395 225.571 376.913 229.206 339.617C229.25 339.584 299.736 338.226 299.736 338.226Z" fill="#0064B7"/>
<path d="M300.032 358.233L228.736 343.735L229.24 339.585L300.186 338.676C300.186 338.676 296.244 343.22 300.032 358.233Z" fill="#023EA1"/>
<path d="M319.327 380.362H208.249L208.238 392.189H319.327V380.362Z" fill="#023EA1"/>
<path d="M420.714 105.384H106.009C92.8145 104.924 92.8145 115.852 92.8145 115.852V168.139V281.384V333.671C92.8145 333.671 92.8145 344.588 106.009 344.139H420.703C420.703 344.139 434.807 344.599 434.807 330.944C434.807 330.605 434.807 330.145 434.807 329.597V323.235C434.807 323.235 434.807 165.029 434.807 126.309C434.807 123.55 434.807 121.382 434.807 119.947C434.807 119.389 434.807 118.94 434.807 118.6C434.796 104.935 420.714 105.384 420.714 105.384ZM420.255 325.031L107.367 326.838L106.907 224.75L107.367 122.663L420.255 124.47L420.714 224.75L420.255 325.031Z" fill="#0064B7"/>
<path d="M120.389 220.984H201.945C205.428 220.984 208.253 218.159 208.253 214.677V136.756C208.253 133.274 205.428 130.449 201.945 130.449H120.389C116.907 130.449 114.082 133.274 114.082 136.756V214.677C114.071 218.159 116.896 220.984 120.389 220.984Z" stroke="#003EB0" stroke-miterlimit="10" stroke-dasharray="6 6"/>
<path d="M222.628 220.984H406.227C409.71 220.984 412.535 218.159 412.535 214.677V136.756C412.535 133.274 409.71 130.449 406.227 130.449H222.628C219.145 130.449 216.32 133.274 216.32 136.756V214.677C216.309 218.159 219.145 220.984 222.628 220.984Z" fill="white"/>
<path d="M395.539 157.791H228.901C225.572 157.791 222.867 155.087 222.867 151.758C222.867 148.429 225.572 145.724 228.901 145.724H395.539C398.868 145.724 401.572 148.429 401.572 151.758C401.572 155.087 398.868 157.791 395.539 157.791Z" fill="#EE384E"/>
<path d="M326.608 171.49H226.229C224.378 171.49 222.867 169.99 222.867 168.128C222.867 166.277 224.367 164.766 226.229 164.766H326.608C328.459 164.766 329.97 166.267 329.97 168.128C329.959 169.99 328.448 171.49 326.608 171.49Z" fill="#DBE9F8"/>
<path d="M233.446 201.294C238.054 201.294 241.789 197.559 241.789 192.951C241.789 188.342 238.054 184.607 233.446 184.607C228.837 184.607 225.102 188.342 225.102 192.951C225.102 197.559 228.837 201.294 233.446 201.294Z" fill="#395196"/>
<path d="M255.922 201.294C260.53 201.294 264.266 197.559 264.266 192.951C264.266 188.342 260.53 184.607 255.922 184.607C251.314 184.607 247.578 188.342 247.578 192.951C247.578 197.559 251.314 201.294 255.922 201.294Z" fill="#3D83D9"/>
<path d="M277.375 201.294C281.983 201.294 285.719 197.559 285.719 192.951C285.719 188.342 281.983 184.607 277.375 184.607C272.767 184.607 269.031 188.342 269.031 192.951C269.031 197.559 272.767 201.294 277.375 201.294Z" fill="#00A9FF"/>
<path d="M299.858 201.294C304.466 201.294 308.202 197.559 308.202 192.951C308.202 188.342 304.466 184.607 299.858 184.607C295.249 184.607 291.514 188.342 291.514 192.951C291.514 197.559 295.249 201.294 299.858 201.294Z" fill="#DD4B39"/>
<path d="M412.545 231.145C412.545 229.776 411.45 228.681 410.082 228.681H116.532C115.163 228.681 114.068 229.776 114.068 231.145V277.146C114.068 277.3 114.079 277.442 114.101 277.584C114.079 277.727 114.068 277.88 114.068 278.022V314.18C114.068 315.548 115.163 316.643 116.532 316.643H410.082C411.45 316.643 412.545 315.548 412.545 314.18V278.022C412.545 277.869 412.534 277.727 412.513 277.584C412.534 277.442 412.545 277.289 412.545 277.146V231.145Z" fill="white"/>
<path d="M199.741 294.295H155.59C154.506 294.295 153.619 293.408 153.619 292.324C153.619 291.24 154.506 290.353 155.59 290.353H199.741C200.825 290.353 201.712 291.24 201.712 292.324C201.723 293.408 200.836 294.295 199.741 294.295Z" fill="#DBE9F8"/>
<path d="M178.444 303.055H155.602C154.518 303.055 153.631 302.168 153.631 301.084C153.631 300 154.518 299.113 155.602 299.113H178.444C179.528 299.113 180.415 300 180.415 301.084C180.415 302.168 179.528 303.055 178.444 303.055Z" fill="#DBE9F8"/>
<path d="M141.829 291.262C141.161 290.616 140.438 290.035 139.606 289.608C138.402 289.006 137.121 288.732 135.807 288.634C134.383 288.524 132.949 288.546 131.525 288.721C129.554 288.973 127.835 289.74 126.411 291.141C126.149 291.404 125.897 291.7 125.776 292.061C125.743 292.17 125.711 292.302 125.678 292.411C125.678 292.926 125.678 293.43 125.678 293.955C125.951 294.667 126.192 294.842 126.981 294.842C127.55 294.842 128.131 294.842 128.7 294.842C129.445 294.842 129.861 294.426 129.872 293.682C129.872 293.222 130.003 292.795 130.233 292.411C130.66 291.722 131.273 291.262 132.029 290.988C132.85 290.692 133.693 290.67 134.536 290.714C135.226 290.736 135.905 290.856 136.518 291.185C137.58 291.754 138.259 292.587 138.27 293.846C138.27 294.404 138.752 294.842 139.322 294.842C140 294.842 140.668 294.842 141.358 294.842C142.004 294.842 142.431 294.415 142.431 293.758C142.431 293.43 142.42 293.09 142.431 292.762C142.453 292.17 142.245 291.667 141.829 291.262Z" fill="#DBE9F8"/>
<path d="M138.533 295.258C138.346 294.985 138.051 294.864 137.711 294.853C137.547 294.853 137.383 294.853 137.197 294.853C137.197 294.437 137.186 294.032 137.197 293.638C137.208 293.287 137.043 293.057 136.759 292.904C136.507 292.762 136.233 292.729 135.948 292.773C135.357 292.871 135.116 293.167 135.105 293.758C135.105 294.109 135.105 294.481 135.105 294.842C134.394 294.842 133.715 294.842 133.014 294.842C133.014 294.426 133.003 294.032 133.014 293.627C133.025 293.298 132.861 293.068 132.587 292.904C132.324 292.762 132.039 292.718 131.755 292.762C131.174 292.86 130.933 293.156 130.933 293.747C130.933 294.098 130.933 294.47 130.933 294.842C130.758 294.842 130.616 294.842 130.462 294.842C130.079 294.842 129.784 295.006 129.565 295.324C129.422 295.521 129.302 295.729 129.17 295.926C128.426 297.098 127.703 298.302 127.156 299.584C126.86 300.252 126.696 300.93 126.739 301.664C126.761 302.168 126.739 302.661 126.739 303.164C126.739 303.821 127.177 304.259 127.834 304.259C131.985 304.259 136.124 304.259 140.285 304.259C140.942 304.259 141.391 303.821 141.391 303.153C141.391 302.628 141.38 302.091 141.391 301.566C141.413 300.887 141.281 300.23 141.029 299.605C140.416 298.029 139.507 296.616 138.533 295.258ZM134.043 303.219C132.324 303.208 130.922 301.795 130.922 300.076C130.933 298.335 132.346 296.934 134.109 296.945C135.828 296.956 137.23 298.368 137.219 300.098C137.197 301.828 135.784 303.23 134.043 303.219Z" fill="#DBE9F8"/>
<path d="M134.064 297.985C132.903 297.985 131.973 298.915 131.973 300.098C131.973 301.237 132.914 302.179 134.053 302.179C135.214 302.179 136.145 301.248 136.145 300.065C136.156 298.926 135.214 297.985 134.064 297.985Z" fill="#DBE9F8"/>
<path d="M142.441 284.417C139.999 284.417 138.039 286.388 138.039 288.819C138.039 291.25 140.01 293.221 142.441 293.221C144.883 293.221 146.843 291.25 146.843 288.819C146.843 286.399 144.872 284.417 142.441 284.417ZM142.441 290.517C141.51 290.517 140.766 289.761 140.766 288.841C140.766 287.91 141.521 287.166 142.441 287.166C143.361 287.166 144.116 287.921 144.116 288.841C144.116 289.761 143.372 290.517 142.441 290.517Z" fill="#2626DB"/>
<path d="M298.848 294.294H254.698C253.614 294.294 252.727 293.407 252.727 292.323C252.727 291.239 253.614 290.352 254.698 290.352H298.848C299.932 290.352 300.819 291.239 300.819 292.323C300.83 293.407 299.943 294.294 298.848 294.294Z" fill="#DBE9F8"/>
<path d="M277.539 303.054H254.698C253.614 303.054 252.727 302.167 252.727 301.083C252.727 299.999 253.614 299.112 254.698 299.112H277.539C278.623 299.112 279.51 299.999 279.51 301.083C279.521 302.167 278.634 303.054 277.539 303.054Z" fill="#DBE9F8"/>
<path d="M220.184 291.59V301.718C220.184 303.087 221.279 304.182 222.647 304.182H242.609C243.978 304.182 245.073 303.087 245.073 301.718V291.59L232.623 297.886L220.184 291.59Z" fill="#DBE9F8"/>
<path d="M245.073 288.491H220.184L232.634 294.787L245.073 288.491Z" fill="#DBE9F8"/>
<path d="M245.523 284.417C243.081 284.417 241.121 286.388 241.121 288.819C241.121 291.25 243.092 293.221 245.523 293.221C247.954 293.221 249.925 291.25 249.925 288.819C249.947 286.399 247.965 284.417 245.523 284.417ZM245.523 290.516C244.592 290.516 243.848 289.761 243.848 288.841C243.848 287.91 244.603 287.166 245.523 287.166C246.454 287.166 247.198 287.921 247.198 288.841C247.198 289.761 246.454 290.516 245.523 290.516Z" fill="#2626DB"/>
<path d="M397.926 294.294H353.776C352.692 294.294 351.805 293.407 351.805 292.323C351.805 291.239 352.692 290.352 353.776 290.352H397.926C399.01 290.352 399.897 291.239 399.897 292.323C399.897 293.407 399.01 294.294 397.926 294.294Z" fill="#DBE9F8"/>
<path d="M376.618 303.054H353.776C352.692 303.054 351.805 302.167 351.805 301.083C351.805 299.999 352.692 299.112 353.776 299.112H376.618C377.702 299.112 378.589 299.999 378.589 301.083C378.589 302.167 377.702 303.054 376.618 303.054Z" fill="#DBE9F8"/>
<path d="M339.4 295.806C339.148 291.897 336.016 288.755 332.085 288.492V288.481H331.571H331.056V288.492C327.147 288.744 324.004 291.886 323.741 295.806H323.73V296.321V296.836H323.741C323.993 300.745 327.136 303.877 331.056 304.15V304.161H331.571H332.085V304.15C335.995 303.898 339.126 300.767 339.4 296.836H339.411V296.321V295.806H339.4ZM328.636 290.2C328.132 290.868 327.716 291.711 327.399 292.675H325.833C326.512 291.602 327.486 290.747 328.636 290.2ZM325.285 293.726H327.125C326.983 294.383 326.895 295.095 326.873 295.817H324.793C324.847 295.073 325.012 294.372 325.285 293.726ZM324.782 296.858H326.862C326.884 297.591 326.972 298.281 327.114 298.949H325.274C325.012 298.314 324.847 297.602 324.782 296.858ZM325.833 300H327.399C327.705 300.964 328.121 301.807 328.636 302.475C327.486 301.927 326.512 301.073 325.833 300ZM331.045 303.077C329.972 302.782 329.041 301.643 328.483 300.011H331.045V303.077ZM331.045 298.949H328.187C328.034 298.292 327.946 297.602 327.924 296.858H331.056V298.949H331.045ZM331.045 295.806H327.913C327.935 295.073 328.045 294.372 328.176 293.715H331.034V295.806H331.045ZM331.045 292.675H328.483C329.052 291.043 329.972 289.882 331.045 289.609V292.675ZM337.309 292.675H335.743C335.436 291.711 335.02 290.868 334.505 290.2C335.655 290.747 336.619 291.602 337.309 292.675ZM332.085 289.598C333.158 289.893 334.089 291.032 334.648 292.664H332.085V289.598ZM332.085 293.726H334.943C335.097 294.383 335.184 295.073 335.217 295.817H332.085V293.726ZM332.085 296.858H335.217C335.195 297.591 335.086 298.292 334.943 298.949H332.085V296.858ZM332.085 303.077V300.011H334.648C334.1 301.632 333.158 302.793 332.085 303.077ZM334.505 302.475C335.009 301.807 335.425 300.964 335.743 300H337.309C336.619 301.073 335.655 301.927 334.505 302.475ZM337.845 298.949H336.006C336.148 298.292 336.235 297.58 336.257 296.858H338.338C338.305 297.602 338.13 298.314 337.845 298.949ZM336.268 295.806C336.246 295.073 336.159 294.383 336.016 293.715H337.856C338.13 294.372 338.294 295.062 338.36 295.806H336.268Z" fill="#DBE9F8"/>
<path d="M339.629 284.417C337.187 284.417 335.227 286.388 335.227 288.819C335.227 291.25 337.198 293.221 339.629 293.221C342.07 293.221 344.03 291.25 344.03 288.819C344.041 286.399 342.059 284.417 339.629 284.417ZM339.629 290.516C338.698 290.516 337.953 289.761 337.953 288.841C337.953 287.91 338.709 287.166 339.629 287.166C340.559 287.166 341.304 287.921 341.304 288.841C341.315 289.761 340.559 290.516 339.629 290.516Z" fill="#023EA1"/>
<path d="M73.5137 220.984L62.476 312.79L54.5919 312.001L53.4531 218.597L73.5137 220.984Z" fill="#EE384E"/>
<path d="M61.4883 220.985L82.2058 312.79L90.1118 312.002L84.6805 218.597L61.4883 220.985Z" fill="#DE051F"/>
<path d="M373.742 73.8913L381.188 85.2246C381.188 85.2246 382.656 87.5132 384.725 86.878C387.047 86.1663 401.566 80.5161 403.121 79.8262C404.676 79.1363 407.83 77.6252 408.344 75.4352C408.848 73.2343 407.249 72.4021 407.249 72.4021C407.249 72.4021 406.746 72.0188 406.286 72.7525C405.826 73.4752 404.808 75.479 404.808 75.479C404.808 75.479 404.063 76.2893 404.238 75.2162C404.413 74.1431 404.621 73.0481 403.756 74.0117C402.902 74.9753 402.628 76.6616 399.77 77.5924C396.902 78.5231 386.346 81.2607 386.346 81.2607C386.346 81.2607 385.273 81.7644 384.309 80.6146C383.345 79.4648 378.867 70.8033 378.867 70.8033L373.742 73.8913Z" fill="#FDC09B"/>
<path d="M345.924 73.5412L338.51 84.7541C338.51 84.7541 337.043 87.0098 334.984 86.3856C332.674 85.6739 318.231 80.0893 316.687 79.3885C315.143 78.6987 312 77.2204 311.497 75.0414C310.993 72.8732 312.592 72.052 312.592 72.052C312.592 72.052 313.095 71.6906 313.555 72.3914C314.015 73.1141 315.023 75.0961 315.023 75.0961C315.023 75.0961 315.767 75.8955 315.581 74.8333C315.395 73.7711 315.198 72.6871 316.063 73.6507C316.917 74.6143 317.191 76.2787 320.027 77.1985C322.885 78.1183 333.375 80.8339 333.375 80.8339C333.375 80.8339 334.437 81.3376 335.39 80.1988C336.353 79.06 340.788 70.508 340.788 70.508L345.924 73.5412Z" fill="#FDC09B"/>
<path d="M346.087 45.9366C346.087 45.9366 348.058 45.3672 347.773 42.1588C347.499 38.9395 345.561 36.2896 348.452 34.647C351.343 33.0045 352.285 32.4023 353.631 31.0335C354.978 29.6648 355.778 28.5807 360.399 29.0297C360.399 29.0297 364.056 26.0512 367.308 28.7121C370.56 31.362 369.542 38.2715 370.254 39.3556C370.965 40.4396 375.345 44.7321 375.838 48.4332C376.32 52.1343 373.856 54.3791 370.254 54.2148C366.673 54.0506 361.844 54.2148 361.844 54.2148H348.627C348.627 54.2148 344.225 54.4776 343.842 50.1085C343.59 47.3491 346.087 45.9366 346.087 45.9366Z" fill="#180857"/>
<path d="M356.996 49.823C356.996 49.823 357.073 53.4365 356.285 54.6081C355.507 55.7908 354.051 56.2397 354.051 56.2397C354.051 56.2397 355.617 61.222 358.19 61.1015C360.763 60.9701 363.621 59.4152 364.64 58.8239C365.658 58.2436 365.395 56.5354 365.395 56.5354C365.395 56.5354 363.599 56.0536 362.855 53.8635C362.11 51.6845 362.132 48.4214 362.132 48.4214L356.996 49.823Z" fill="#FDC09B"/>
<path d="M377.111 99.9531C377.111 99.9531 380.68 100.128 383.275 100.128C385.86 100.128 389.977 100.654 389.977 100.654C389.977 100.654 391.05 100.654 391.138 101.979C391.225 103.304 391.225 103.829 391.225 103.829C391.225 103.829 391.313 105.417 390.064 105.417C388.816 105.417 380.866 106.304 379.071 106.304C377.275 106.304 375.939 106.655 375.939 105.417C375.928 104.202 375.84 99.8655 377.111 99.9531Z" fill="#170856"/>
<path d="M360.28 94.2482L347.217 90.0215" stroke="#B70B28" stroke-width="0.25" stroke-miterlimit="10"/>
<path d="M335.111 86.2429C335.111 86.2429 368.531 96.5907 375.845 99.153C375.845 99.153 378.254 99.7662 378.342 101.004C378.429 102.241 378.167 104.004 377.904 104.891C377.641 105.778 376.831 106.479 375.495 106.216C374.159 105.953 344.221 100.018 332.33 96.9192L328.946 95.868C328.946 95.868 326.449 94.7182 326.887 91.7179C327.326 88.7176 329.559 86.0677 331.18 85.8815C332.79 85.7173 335.111 86.2429 335.111 86.2429Z" fill="#0064E1"/>
<path d="M332.064 100.927C332.064 100.927 336.269 100.215 338.765 100.128C341.262 100.04 344.569 99.7775 345.116 100.128C345.642 100.478 346.102 105.253 346.102 105.253C346.102 105.253 346.54 106.577 343.244 106.315C339.937 106.052 332.348 105.789 332.348 105.789C332.348 105.789 330.662 105.701 330.553 104.201C330.454 102.701 330.728 101.989 330.728 101.989C330.728 101.989 330.991 101.124 332.064 100.927Z" fill="#170856"/>
<path d="M352.003 96.69C352.003 96.69 372.293 90.5798 379.52 88.4555C386.758 86.3312 390.777 84.393 393.099 87.7438C395.42 91.1054 395.245 94.8285 392.573 95.8906C389.901 96.9528 368.8 101.826 360.051 103.589C351.291 105.351 345.575 106.501 344.776 106.151C343.966 105.8 343.09 103.238 343.265 101.826C343.44 100.413 343.528 99.8764 345.236 99.1756C346.9 98.4529 352.003 96.69 352.003 96.69Z" fill="#003EB0"/>
<path d="M370.124 87.1294H349.615L347.217 90.0202L360.401 94.1593L372.292 90.6005L370.124 87.1294Z" fill="#0054A3"/>
<path d="M379.554 70.8584L374.812 61.3428C374.812 61.3428 371.954 54.9589 364.793 55.6597L366.26 59.0542L373.663 74.5157L379.554 70.8584Z" fill="#EE384E"/>
<path d="M340.143 70.5298L344.851 61.1127C344.851 61.1127 347.676 54.8055 354.827 55.4953L353.37 58.857L346.023 74.1542L340.143 70.5298Z" fill="#EE384E"/>
<path d="M359.626 52.7678C362.94 52.7678 365.626 48.2526 365.626 42.6828C365.626 37.113 362.94 32.5978 359.626 32.5978C356.312 32.5978 353.625 37.113 353.625 42.6828C353.625 48.2526 356.312 52.7678 359.626 52.7678Z" fill="#FFBE9B"/>
<path d="M359.624 32.0404C359.624 32.0404 358.529 35.2049 356.295 38.3914C354.062 41.556 351.434 43.2861 351.16 43.8555C350.886 44.4249 348.871 42.8043 349.638 40.2858C350.393 37.7454 354.576 30.7702 358.956 30.6388C363.336 30.5074 364.3 28.0217 366.358 33.0916C368.406 38.1505 368.045 43.976 368.045 43.976L359.624 32.0404Z" fill="#180857"/>
<path d="M354.051 41.4579C354.051 41.4579 351.773 41.217 351.467 42.5858C351.149 43.9546 352.189 45.2029 354.051 45.4766C355.912 45.7504 354.051 41.4579 354.051 41.4579Z" fill="#FFBE9B"/>
<path d="M349.615 87.1305H370.124C370.124 87.1305 370.551 69.1833 369.785 64.3105C369.27 61.0583 368.219 57.8171 366.139 56.1199C366.139 56.1199 365.503 55.5176 364.803 55.6599C364.562 55.7147 364.299 55.8461 364.058 56.1199C363.094 57.2039 361.518 59.1421 358.835 58.8136C356.141 58.496 355.539 56.2732 355.539 56.2732C355.539 56.2732 354.86 54.6744 353.568 55.9118C352.276 57.1601 348.914 58.4851 348.914 68.6905L349.615 87.1305Z" fill="#DE051F"/>
<path d="M129.149 181.41L64.3356 166.233C57.5466 164.646 53.3308 157.846 54.9186 151.057L70.0954 86.2432C71.6831 79.4542 78.4831 75.2384 85.2722 76.8261L150.086 92.0029C156.875 93.5907 161.09 100.391 159.503 107.18L144.326 171.993C142.727 178.782 135.938 182.998 129.149 181.41Z" fill="white" stroke="#0055DB" stroke-width="3" stroke-miterlimit="10"/>
<path d="M76.4246 153.126C76.4246 153.126 78.7679 156.116 78.8883 161.448C78.9978 166.781 78.3299 170.592 76.0523 170.635C73.7747 170.679 69.1756 169.256 68.3763 167.756C67.5769 166.255 66.0658 166.277 65.9892 163.244C65.9235 160.2 69.5698 153.269 72.614 153.203C75.669 153.159 76.4246 153.126 76.4246 153.126Z" fill="#FFBE9B"/>
<path d="M67.1487 163.605C67.1487 163.605 66.4698 167.416 65.0243 171.259C63.5899 175.092 62.8672 176.636 62.8672 176.636C62.8672 176.636 67.5538 181.859 72.0981 181.005C76.6424 180.151 76.5767 177.107 76.5767 177.107C76.5767 177.107 72.3171 173.778 72.2185 169.212C72.12 164.657 72.12 164.657 72.12 164.657L67.1487 163.605Z" fill="#FEBE9A"/>
<path d="M78.7099 153.083C78.7099 153.083 80.8561 146.951 79.3121 146.228C77.7682 145.494 74.7678 147.082 74.0232 147.87C73.2786 148.648 71.7675 148.681 70.9901 148.692C70.9901 148.692 63.3907 148.856 61.9015 150.411C60.4123 151.966 60.4232 152.721 60.4451 153.488C60.4561 154.243 60.5218 157.222 59.7991 158.831C59.4815 159.521 59.1202 162.642 60.7079 165.664C62.2957 168.665 63.8397 169.398 64.5952 169.387C65.3508 169.376 66.0516 169.354 66.0954 168.588C66.1611 167.767 66.4348 166.606 66.7852 165.533C67.1247 164.515 67.4751 162.478 67.4751 162.478C67.4751 162.478 68.154 158.667 69.6323 157.101C71.1105 155.535 71.1215 155.546 74.1437 154.714C77.1768 153.871 77.9981 155.382 78.7099 153.083Z" fill="#160C56"/>
<path d="M68.5703 158.865C69.7311 160.135 68.2528 162.446 68.2528 162.446C68.2528 162.446 65.9971 163.256 65.9423 160.968C65.8985 158.69 67.4206 157.584 68.5703 158.865Z" fill="#FFBE9B"/>
<path d="M88.3799 185.254L95.2894 194.616C95.2894 194.616 95.7821 195.109 96.2749 194.616C96.7677 194.124 105.144 183.765 105.637 182.286C106.13 180.808 105.637 179.33 107.115 176.855C108.594 174.381 110.072 173.395 110.072 173.395C110.072 173.395 111.55 172.41 111.057 173.888C110.565 175.366 110.072 176.844 111.057 177.348C112.043 177.852 119.927 179.319 119.927 179.319C119.927 179.319 112.032 181.783 110.05 184.75C108.079 187.707 102.648 197.573 100.173 200.037C97.7094 202.5 95.2346 203.99 93.7564 202.5C92.2781 201.022 82.4121 191.156 82.4121 191.156L88.3799 185.254Z" fill="#FFBE9B"/>
<path d="M83.9363 167C83.9363 167 80.4761 169.463 79.9833 171.938C79.4905 174.402 77.5195 178.355 77.5195 178.355L79.4905 180.819C79.4905 180.819 83.4435 177.862 85.9073 176.373C88.3711 174.884 92.8168 172.913 92.8168 172.913L83.9472 170.942C83.9472 170.942 83.4545 169.463 83.9472 168.478C84.44 167.492 83.9363 167 83.9363 167Z" fill="#FFBE9B"/>
<path d="M54.5986 318.002C54.5986 318.002 54.1606 319.239 56.7229 319.228C59.2852 319.206 73.2028 319.086 73.2028 319.086C73.2028 319.086 75.8746 318.528 73.3889 317.345C70.9033 316.162 63.4463 312.888 63.4463 312.888C63.4463 312.888 62.8769 312.735 62.8769 311.311L54.4453 311.388L54.5986 318.002Z" fill="#170856"/>
<path d="M81.7881 318.002C81.7881 318.002 81.3501 319.239 83.9124 319.228C86.4747 319.207 100.392 319.086 100.392 319.086C100.392 319.086 103.064 318.528 100.578 317.345C98.0927 316.173 90.6357 312.888 90.6357 312.888C90.6357 312.888 90.0663 312.735 90.0663 311.311L81.6348 311.388L81.7881 318.002Z" fill="#170856"/>
<path d="M74.0119 175.158C74.0119 175.158 74.8332 174.479 75.7749 175.235C76.7166 175.979 80.0125 178.421 81.6222 181.542C83.2209 184.674 83.7794 189.021 84.3269 199.161C84.8853 209.311 84.7977 220.283 84.7977 220.283L53.3601 220.973C53.3601 220.973 52.3636 202.511 55.3311 191.167C58.2985 179.823 62.7333 175.881 63.7188 175.388C64.7043 174.895 65.6898 175.881 65.6898 175.881C65.6898 175.881 70.0151 179.845 74.0119 175.158Z" fill="#0083F9"/>
<path d="M119.18 400.509L105.953 339.003L101.825 319.84H49.7461L68.3941 400.509" stroke="#96AABE" stroke-width="3" stroke-miterlimit="10"/>
<path d="M54.2812 339.441L105.955 339.003" stroke="#96AABE" stroke-width="3" stroke-miterlimit="10"/>
<path d="M58.6367 358.352L110.014 357.914" stroke="#96AABE" stroke-width="3" stroke-miterlimit="10"/>
<path d="M63.1172 378.39L114.32 377.952" stroke="#96AABE" stroke-width="3" stroke-miterlimit="10"/>
<path d="M31.9219 400.509L45.1605 339.003L49.2887 319.84H101.345L82.7083 400.509" stroke="#2626DB" stroke-width="3" stroke-miterlimit="10"/>
<path d="M96.8226 339.441L45.1602 339.003" stroke="#2626DB" stroke-width="3" stroke-miterlimit="10"/>
<path d="M92.4785 358.352L41.0898 357.914" stroke="#2626DB" stroke-width="3" stroke-miterlimit="10"/>
<path d="M87.9889 378.39L36.7754 377.952" stroke="#2626DB" stroke-width="3" stroke-miterlimit="10"/>
<path d="M445.33 299.989L412.863 274.388C412.863 274.388 411.976 273.797 410.694 271.946C409.402 270.106 406.917 268.245 405.471 268.65L402.252 265.661C402.252 265.661 401.124 265.442 402.252 266.482C403.38 267.533 404.015 268.814 404.015 268.814C404.015 268.814 403.007 269.329 403.292 269.734C403.292 269.734 402.482 269.975 402.569 270.577C402.569 270.577 400.642 271.18 402.537 273.063C404.431 274.957 405.077 275.713 407.158 276.633C409.238 277.552 410.815 278.637 412.863 280.575C414.91 282.502 441.234 307.775 441.234 307.775L445.33 299.989Z" fill="#FFBE9B"/>
<path d="M460.509 293.562C460.509 293.562 467.878 293.386 469.039 285.119C470.189 276.852 464.593 274.005 461.407 272.329C458.209 270.643 456.26 270.906 454.826 268.595C453.391 266.285 452.866 265.672 452.866 265.672C452.866 265.672 446.865 271.913 451.059 277.454C455.264 282.984 460.509 293.562 460.509 293.562Z" fill="#180857"/>
<path d="M472.507 437.543C472.595 437.565 472.595 437.696 472.616 437.784C472.835 438.693 473.952 443.949 471.105 444.004C468.204 444.069 457.177 444.146 455.655 444.157C455.545 444.157 455.458 444.091 455.425 443.982C455.315 443.555 455.107 442.492 455.852 442.153C455.852 442.153 462.258 439.175 464.448 437.433C466.452 435.824 471.631 437.269 472.507 437.543Z" fill="#170856"/>
<path d="M444.826 436.755C444.914 436.788 444.925 436.909 444.936 436.996C445.155 437.982 446.272 443.785 443.425 443.928C440.512 444.07 427.054 443.939 425.313 443.928C425.182 443.928 425.083 443.851 425.051 443.742C424.919 443.347 424.788 442.427 425.949 441.924C425.949 441.924 433.384 438.945 436.778 436.865C439.811 434.992 444.027 436.438 444.826 436.755Z" fill="#170856"/>
<path d="M474.259 345.17L472.583 437.643L464.436 437.424L457.965 378.721L458.742 362.427L463.462 344.983L474.259 345.17Z" fill="#0064E1"/>
<path d="M465.667 345.015C465.667 345.015 457.969 384.304 455.615 388.87L444.895 436.853H436.748L441.807 344.862L465.667 345.015Z" fill="#003EB0"/>
<path d="M451.068 277.442C451.068 277.442 446.994 280.814 446.94 286.662C446.885 292.509 447.903 292.717 450.257 292.717C452.612 292.717 454.484 292.498 454.747 293.79C455.01 295.082 454.692 300.119 454.156 301.619C453.63 303.12 463.901 301.619 463.901 301.619C463.901 301.619 461.065 293.911 460.627 290.538C460.189 287.165 460.682 283.355 458.645 280.146C456.641 276.894 454.232 274.43 451.068 277.442Z" fill="#FFBE9B"/>
<path d="M453.159 303.416L444.903 298.817L440.402 307.917L449.568 315.746L453.159 303.416Z" fill="#F79F03"/>
<path d="M465.666 302.671C465.666 302.671 470.615 308.278 472.334 321.834C474.053 335.39 474.261 345.169 474.261 345.169H441.816C441.816 345.169 444.28 326.039 446.459 315.921C448.638 305.792 452.558 301.708 452.558 301.708C452.558 301.708 453.577 300.471 454.803 301.281C456.041 302.091 458.986 302.244 461.603 301.007C464.242 299.759 464.833 301.544 465.666 302.671Z" fill="#FCBE42"/>
<path d="M459.105 282.522C459.105 282.522 460.868 282.095 461.678 283.004C462.488 283.913 461.514 285.895 459.915 286.486C458.295 287.089 459.105 282.522 459.105 282.522Z" fill="#FFBE9B"/>
<path d="M454.497 319.436C454.497 319.436 450.796 345.147 448.869 352.144C446.942 359.141 444.051 365.722 444.051 365.722C444.051 365.722 442.759 368.941 444.051 370.146C445.343 371.35 448.376 372.719 448.989 370.551C449.592 368.383 449.592 363.718 450.402 362.678C451.212 361.627 458.187 345.399 460.531 335.675C462.863 325.951 463.257 321.615 463.257 321.615L454.497 319.436Z" fill="#FFBE9B"/>
<path d="M308.07 351.004C308.07 351.004 312.592 349.165 312.253 343.985C311.924 338.795 309.252 335.127 314.76 336.627C320.279 338.127 322.13 338.795 326.148 337.963C330.145 337.131 333.496 335.455 331.744 340.635C329.992 345.825 328.097 350.161 332.225 351.004C336.354 351.837 340.788 348.716 341.314 356.841C341.84 364.955 335.292 374.087 324.703 374.427C314.114 374.755 309.427 370.375 309.427 370.375C309.427 370.375 306.591 366.378 311.015 365.371C315.45 364.385 319.961 362.502 317.706 360.432C315.45 358.363 308.092 358.199 308.092 358.199C308.092 358.199 298.861 356.348 308.07 351.004Z" fill="#649EEA"/>
<path d="M356.49 352.341C355.746 347.162 356.315 343.439 365.929 342.037C375.544 340.636 381.15 346.406 381.73 352.341C382.311 358.276 373.956 360.433 373.956 360.433C373.956 360.433 368.021 362.12 371.032 367.31C374.032 372.5 375.412 377.516 368.579 378.271C361.746 379.027 354.278 377.22 350.106 374.45C345.945 371.668 341.675 364.638 346.449 360.97C346.449 360.97 347.785 360.05 352.384 359.798C356.983 359.536 356.49 352.341 356.49 352.341Z" fill="#023EA1"/>
<path d="M322.648 351.509C322.648 351.509 330.642 369.577 331.726 381.874" stroke="#023EA1" stroke-miterlimit="10"/>
<path d="M367.061 354.476C367.061 354.476 352.925 375.468 349.574 382.487" stroke="#649EEA" stroke-miterlimit="10"/>
<path d="M326.795 380.439H359.24C359.24 380.439 362.799 380.69 362.492 385.541C362.23 390.009 356.558 389.034 353.634 389.034C350.71 389.034 326.083 389.034 326.083 389.034C326.083 389.034 322.098 389.713 322.098 385.202C322.109 380.68 323.62 380.439 326.795 380.439Z" fill="#0054A5"/>
<path d="M326.105 389.046L331.011 417.724H352.802L356.492 396.196L326.138 389.046H326.105Z" fill="#0054A5"/>
<path d="M326.139 389.046L356.492 396.196L357.719 389.046H326.139Z" fill="#006AD5"/>
<path d="M340.094 381.522C340.094 381.522 341.736 349.712 351.219 329.751" stroke="#FCBE42" stroke-miterlimit="10"/>
<path d="M359.037 318.274C359.037 318.274 359.815 328.042 350.288 331.853C350.277 331.863 348.219 323.52 359.037 318.274Z" fill="#FCBE42"/>
<path d="M344.723 349.362C344.723 349.362 348.238 341.029 359.034 342.146C359.045 342.135 358.202 350.446 344.723 349.362Z" fill="#FCBE42"/>
<path d="M341.186 370.321C341.186 370.321 343.003 361.462 353.811 360.444C353.8 360.444 354.599 368.733 341.186 370.321Z" fill="#FCBE42"/>
<path d="M340.803 370.364C340.803 370.364 342.052 361.418 332.207 356.83C332.207 356.83 328.681 364.396 340.803 370.364Z" fill="#FCBE42"/>
<path d="M344.845 349.297C344.845 349.297 347.232 340.57 338.045 334.777C338.056 334.777 333.578 341.818 344.845 349.297Z" fill="#FCBE42"/>
<path d="M124.645 143.196C124.371 138.433 122.991 134.096 119.761 130.483C119.18 129.826 118.513 129.235 117.866 128.588C116.268 130.702 114.406 132.355 112.151 133.527C108.679 135.334 105.219 135.531 101.814 133.363C99.4703 131.863 97.9373 129.694 96.9409 127.121C96.5357 126.103 96.251 125.03 95.9006 123.935C93.6997 124.373 90.6774 126.004 88.7174 127.833C84.184 132.06 81.9393 137.425 80.9757 143.426C80.7895 144.608 81.2166 145.342 82.3444 145.802C83.0343 146.076 83.7679 146.284 84.5016 146.448C96.0649 148.988 107.617 151.496 119.18 154.025C119.728 154.135 120.265 154.255 120.823 154.332C122.498 154.573 123.396 153.949 123.801 152.317C124.513 149.295 124.82 146.262 124.645 143.196Z" fill="#C6D7F0"/>
<path d="M101.472 129.3C103.542 131.917 106.345 132.869 109.247 132.004C110.878 131.512 112.28 130.625 113.528 129.519C116.255 127.077 118.16 124.098 119.288 120.627C120.503 116.86 120.394 113.148 118.609 109.579C115.663 103.742 108.918 102.143 103.673 106.02C100.837 108.133 99.1836 111.002 98.3952 114.418C97.9353 116.422 97.8915 118.459 98.1324 120.507C98.5157 123.693 99.4355 126.726 101.472 129.3Z" fill="#C6D7F0"/>
<path d="M135.676 261.796L125.689 256.168V245.01L135.676 239.644V261.796Z" fill="#023EA1"/>
<path d="M135.676 250.869L145.662 245.011L135.676 239.656V250.869Z" fill="#DBE9F8"/>
<path d="M242.4 256.33H161.03C158.238 256.33 155.982 254.075 155.982 251.282V250.176C155.982 247.384 158.238 245.128 161.03 245.128H242.4C245.193 245.128 247.448 247.384 247.448 250.176V251.282C247.459 254.075 245.193 256.33 242.4 256.33Z" fill="#EE384E"/>
<path d="M395.406 263.164H157.953C156.869 263.164 155.982 262.277 155.982 261.193C155.982 260.109 156.869 259.222 157.953 259.222H395.417C396.501 259.222 397.388 260.109 397.388 261.193C397.377 262.277 396.49 263.164 395.406 263.164Z" fill="#DBE9F8"/>
<path d="M302.442 270.085H158.405C157.321 270.085 156.434 269.198 156.434 268.114C156.434 267.029 157.321 266.143 158.405 266.143H302.442C303.526 266.143 304.413 267.029 304.413 268.114C304.413 269.198 303.537 270.085 302.442 270.085Z" fill="#DBE9F8"/>
<path d="M89.8574 185.746C89.8574 185.746 85.4117 179.329 80.4951 177.358C75.5785 175.387 73.0929 179.329 75.5566 183.282C78.0204 187.235 82.4661 192.644 82.4661 192.644L89.8574 185.746Z" fill="#0064B7"/>
<path d="M453.162 320.739C453.162 320.739 455.385 306.57 461.331 306.504C461.331 306.504 464.703 306.504 464.791 311.64C464.879 316.775 464.386 322.875 464.386 322.875L453.162 320.739Z" fill="#F79F03"/>
</svg>
