<svg width="482" height="442" viewBox="0 0 482 442" fill="none" xmlns="http://www.w3.org/2000/svg">
<path d="M257.82 318.624C257.82 318.624 257.971 312.771 262.732 312.554C267.493 312.327 271.561 318.235 269.505 321.903C267.449 325.57 264.214 325.527 265.567 328.448C266.919 331.37 269.429 340.069 265.145 341.529C260.871 342.99 257.874 338.997 254.758 344.256C251.642 349.525 256.716 358.613 247.628 359.014C238.539 359.414 223.089 356.049 229.905 342.536C236.711 329.043 242.521 341.865 244.912 330.461C247.303 319.057 251.036 323.937 254.769 323.212C258.502 322.487 257.82 318.624 257.82 318.624Z" stroke="#023EA1" stroke-miterlimit="10"/>
<path d="M258.697 328.513C258.697 328.513 247.185 338.889 240.25 351.202C233.315 363.514 233.639 367.204 233.639 367.204" stroke="#023EA1" stroke-miterlimit="10"/>
<path d="M225.632 306.949C225.632 306.949 225.654 311.418 228.662 314.188C231.669 316.957 233.509 318.851 230.404 320.939C227.298 323.027 224.15 324.91 225.448 328.707C226.747 332.516 233.931 340.155 228.608 344.72C223.284 349.286 214.272 354.523 209.36 347.479C204.447 340.436 201.667 340.577 201.277 334.28C200.888 327.983 207.942 329.14 207.466 323.687C206.99 318.223 203.127 316.33 208.754 313.96C214.369 311.591 215.451 313.398 213.103 307.198C210.766 300.999 218.513 300.187 222.029 301.41C225.535 302.621 225.632 306.949 225.632 306.949Z" stroke="#DE051F" stroke-miterlimit="10"/>
<path d="M219.292 314.956C219.292 314.956 211.903 337.082 211.719 352.067" stroke="#DE051F" stroke-miterlimit="10"/>
<path d="M224.523 364.64C224.523 364.64 230.128 333.534 241.954 315.054" stroke="#FCBE42" stroke-miterlimit="10"/>
<path d="M251.075 304.732C251.075 304.732 250.621 314.448 240.764 317.002C240.753 317.002 239.769 308.53 251.075 304.732Z" fill="#FCBE42"/>
<path d="M233.113 333.545C233.113 333.545 237.614 325.787 248.109 328.232C248.098 328.232 246.227 336.293 233.113 333.545Z" fill="#FCBE42"/>
<path d="M226.988 353.723C226.988 353.723 229.877 345.229 240.664 345.575C240.653 345.575 240.394 353.863 226.988 353.723Z" fill="#FCBE42"/>
<path d="M226.612 353.734C226.612 353.734 228.97 345.078 219.839 339.344C219.85 339.344 215.424 346.344 226.612 353.734Z" fill="#FCBE42"/>
<path d="M233.235 333.491C233.235 333.491 236.676 325.192 228.356 318.344C228.356 318.354 223.086 324.738 233.235 333.491Z" fill="#FCBE42"/>
<path d="M296.834 348.886H152.025C148.584 348.886 145.793 351.678 145.793 355.118V398.429C145.793 401.87 148.584 404.661 152.025 404.661H303.066V355.118C303.066 351.678 300.275 348.886 296.834 348.886Z" fill="#B0E6FF"/>
<path d="M180.391 393.95C189.318 393.95 196.555 386.713 196.555 377.786C196.555 368.859 189.318 361.621 180.391 361.621C171.464 361.621 164.227 368.859 164.227 377.786C164.227 386.713 171.464 393.95 180.391 393.95Z" fill="#0064B7"/>
<mask id="mask0_2139_41823" style="mask-type:luminance" maskUnits="userSpaceOnUse" x="164" y="361" width="33" height="33">
<path d="M180.391 393.951C189.318 393.951 196.555 386.714 196.555 377.787C196.555 368.859 189.318 361.622 180.391 361.622C171.464 361.622 164.227 368.859 164.227 377.787C164.227 386.714 171.464 393.951 180.391 393.951Z" fill="white"/>
</mask>
<g mask="url(#mask0_2139_41823)">
<path d="M193.759 393.528C193.759 393.528 195.328 402.195 195.447 404.489C195.577 406.771 195.804 408.513 194.3 409.433C192.786 410.331 190.319 411.175 190.319 411.175L187.246 395.692V393.885L193.759 393.528Z" fill="#FFBF99"/>
<path d="M167.198 393.041C167.198 393.041 166.354 396.958 166.116 398.938C165.878 400.918 165.327 404.781 165.272 405.689C165.208 406.587 165.099 408.102 166.722 409.249C168.345 410.396 170.087 411.056 170.087 411.056L173.409 393.041H167.198Z" fill="#FFBF99"/>
<path d="M179.1 380.588C179.1 380.588 179.1 382.395 178.332 383.174C177.564 383.953 176.525 385.23 176.525 385.23C176.525 385.23 178.332 388.065 181.935 387.675C185.538 387.286 186.187 384.711 186.187 384.711C186.187 384.711 182.768 384.256 182.379 381.043C181.989 377.829 181.481 377.829 181.481 377.829L179.1 380.588Z" fill="#FFB07E"/>
<path d="M176.924 383.921C176.924 383.921 174.457 383.618 173.137 383.986C171.817 384.343 171.395 384.115 171.752 385.132C172.109 386.149 173.927 390.856 173.072 393.799C172.228 396.753 171.092 411.857 171.092 411.857C171.092 411.857 180.245 412.214 183.805 412.398C187.364 412.571 190.004 411.911 190.004 411.911C190.004 411.911 190.794 405.408 190.004 402.584C189.215 399.75 188.198 394.935 188.198 394.935C188.198 394.935 187.538 388.313 188.436 386.69C189.334 385.068 190.004 385.003 188.858 384.581C187.711 384.159 186.445 383.791 185.536 383.791C184.627 383.791 184.151 383.791 183.61 384.332C183.069 384.873 181.987 385.955 180.483 385.717C178.968 385.479 177.843 384.462 177.843 384.462C177.843 384.462 177.346 383.986 176.924 383.921Z" fill="#243641"/>
<path d="M172.555 384.44C172.555 384.44 171.711 384.018 170.445 385.1C169.082 386.257 168.097 388.768 167.61 390.336C167.123 391.905 166.82 393.463 166.82 393.463C166.82 393.463 168.562 394.361 170.38 394.426C172.187 394.491 173.388 394.599 173.388 394.599C173.388 394.599 174.178 389.893 173.983 387.794C173.81 385.684 173.518 384.97 172.555 384.44Z" fill="#8EAACF"/>
<path d="M187.743 386.181C187.743 386.181 188.468 384.201 190.091 385.099C191.714 385.997 192.926 389.438 193.283 390.531C193.64 391.613 194.127 393.788 194.127 393.788C194.127 393.788 192.201 394.631 190.567 394.75C188.934 394.859 187.798 394.988 187.798 394.988C187.798 394.988 187.138 390.715 187.257 389.027C187.376 387.328 187.743 386.181 187.743 386.181Z" fill="#8EAACF"/>
<path d="M185.074 376.617C185.29 373.923 185.247 369.812 180.616 369.812H180.605H180.594C175.953 369.812 175.931 373.923 176.137 376.617C175.812 375.979 174.882 376.185 174.947 377.18C175.022 378.154 176.342 378.651 176.331 378.543C176.71 380.761 178.885 382.038 180.584 382.038H180.594H180.605C182.304 382.038 184.489 380.75 184.857 378.543C184.847 378.651 186.166 378.154 186.242 377.18C186.329 376.163 185.387 375.979 185.074 376.617Z" fill="#FFBF99"/>
<path d="M176.175 376.543C176.175 376.532 176.175 376.521 176.175 376.509C176.175 376.521 176.175 376.521 176.164 376.532C176.164 376.521 176.175 376.543 176.175 376.543Z" fill="#915F41"/>
<path d="M186.055 372.517C185.979 371.586 185.622 370.45 185.081 369.715C184.843 369.401 183.848 368.222 184.595 367.897C184.248 367.464 183.751 367.973 183.664 368.362C183.642 368.492 183.469 368.817 183.48 368.914C183.339 368.016 183.458 367.334 182.604 366.815C181.23 365.993 179.845 367.929 178.503 367.984C177.854 368.016 176.685 368.276 176.512 367.324C176.501 367.291 176.242 367.659 176.22 367.713C176.155 367.875 176.134 368.07 176.166 368.232C176.22 368.546 176.469 369.098 176.815 369.098C176.361 369.098 176.09 369.076 175.852 368.622C175.755 368.892 175.95 369.076 176.069 369.271C175.831 369.293 175.387 368.849 175.311 368.611C175.062 368.914 175.214 369.358 175.376 369.671C175.43 369.769 176.134 370.375 176.144 370.277C176.047 371.175 175.658 372.052 175.463 372.939C175.355 373.415 175.722 374.67 175.852 374.497C175.863 374.767 176.155 376.239 176.177 376.509C176.328 376.131 176.447 375.741 176.534 375.319C176.566 375.135 176.631 374.941 176.675 374.757C176.729 374.432 176.772 374.172 176.848 373.848C176.859 373.815 176.859 373.772 176.869 373.75C177.248 372.398 178.319 372.246 179.553 372.495C179.585 372.506 179.639 372.506 179.682 372.517C180.429 372.625 181.251 372.463 181.89 372.063C182.268 371.825 182.604 371.597 182.885 371.251C182.896 371.229 182.917 371.197 182.939 371.175C183.037 371.024 183.156 370.84 183.264 370.764C183.339 371.154 183.253 371.5 183.491 371.835C183.729 372.149 183.913 372.484 184.064 372.831C184.378 373.534 184.833 375.092 184.93 375.114C185.006 375.611 185.06 376.098 185.081 376.499L185.092 376.628C185.092 376.596 185.103 376.553 185.103 376.52C185.136 376.109 185.341 374.951 185.363 374.486C185.579 374.573 186.12 373.328 186.055 372.517Z" fill="#915F41"/>
</g>
<path d="M197.023 228.789H320.355C323.796 228.789 326.588 231.581 326.588 235.021V284.445C326.588 287.886 323.796 290.677 320.355 290.677H190.791V235.021C190.791 231.581 193.582 228.789 197.023 228.789Z" fill="#B0E6FF"/>
<path d="M219.857 278.797C229.764 278.797 237.796 270.765 237.796 260.858C237.796 250.95 229.764 242.919 219.857 242.919C209.949 242.919 201.918 250.95 201.918 260.858C201.918 270.765 209.949 278.797 219.857 278.797Z" fill="#0064B7"/>
<mask id="mask1_2139_41823" style="mask-type:luminance" maskUnits="userSpaceOnUse" x="201" y="242" width="37" height="37">
<path d="M219.857 278.796C229.764 278.796 237.796 270.765 237.796 260.857C237.796 250.95 229.764 242.918 219.857 242.918C209.949 242.918 201.918 250.95 201.918 260.857C201.918 270.765 209.949 278.796 219.857 278.796Z" fill="white"/>
</mask>
<g mask="url(#mask1_2139_41823)">
<path d="M214.957 254.484C214.968 254.495 214.979 254.517 214.989 254.539C215.249 254.355 215.552 254.192 215.888 254.052C215.985 254.019 216.082 253.976 216.19 253.944H216.201C216.288 253.922 216.385 253.879 216.472 253.857C216.493 253.846 216.526 253.846 216.548 253.835C216.645 253.814 216.742 253.781 216.85 253.76C216.861 253.76 216.861 253.76 216.872 253.76C216.969 253.738 217.089 253.705 217.186 253.695C217.218 253.684 217.272 253.684 217.316 253.673C217.391 253.662 217.456 253.651 217.532 253.641C217.586 253.63 217.629 253.63 217.673 253.619C217.77 253.608 217.889 253.597 217.987 253.586C218.051 253.586 218.127 253.576 218.181 253.576C218.235 253.576 218.279 253.565 218.333 253.565C218.408 253.565 218.495 253.554 218.571 253.554C218.592 253.554 218.625 253.554 218.657 253.554C218.744 253.554 218.83 253.554 218.928 253.554C219.166 253.554 219.382 253.565 219.599 253.576C219.599 253.576 219.599 253.576 219.609 253.576C224.024 253.835 224.9 256.735 224.944 259.635C225.409 259.732 225.95 259.97 226.004 260.598C226.134 262.199 225.766 261.799 224.803 263.724C224.641 264.06 224.403 264.146 224.165 264.125C223.645 265.239 222.758 266.007 220.919 267.273L221.243 271.374C222.487 270.963 222.823 271.114 223.191 271.276C225.603 272.358 228.557 272.358 227.248 272.607C225.484 272.943 227.443 273.592 228.903 272.391C231.598 270.119 229.293 266.613 229.293 266.613C229.109 269.199 225.917 269.329 226.144 266.873C226.383 264.417 231.176 259.559 229.293 253.381C227.41 247.203 217.37 246.51 214.925 249.735C212.404 253.1 214.957 254.484 214.957 254.484Z" fill="#772635"/>
<path d="M217.207 266.636C217.207 266.636 217.207 268.81 216.276 269.741C215.346 270.671 214.102 272.219 214.102 272.219C214.102 272.219 216.276 275.638 220.615 275.162C224.954 274.696 225.733 271.591 225.733 271.591C225.733 271.591 221.621 271.039 221.156 267.177C220.691 263.292 220.074 263.292 220.074 263.292L217.207 266.636Z" fill="#FFB07E"/>
<path d="M214.604 270.66C214.604 270.66 211.639 270.303 210.038 270.736C208.437 271.168 207.939 270.887 208.372 272.11C208.794 273.332 210.979 278.991 209.973 282.551C208.967 286.11 207.582 304.287 207.582 304.287C207.582 304.287 218.596 304.72 222.87 304.936C227.144 305.153 230.325 304.363 230.325 304.363C230.325 304.363 231.277 296.529 230.325 293.121C229.373 289.713 228.15 283.914 228.15 283.914C228.15 283.914 227.349 275.94 228.442 273.981C229.524 272.023 230.325 271.947 228.951 271.45C227.577 270.952 226.062 270.498 224.958 270.498C223.865 270.498 223.292 270.498 222.643 271.147C221.994 271.796 220.685 273.105 218.878 272.813C217.071 272.521 215.686 271.287 215.686 271.287C215.686 271.287 215.112 270.736 214.604 270.66Z" fill="#3E4753"/>
<path d="M209.341 271.277C209.341 271.277 208.335 270.768 206.81 272.078C205.176 273.473 203.975 276.492 203.401 278.385C202.828 280.279 202.449 282.151 202.449 282.151C202.449 282.151 204.548 283.233 206.723 283.308C208.898 283.384 210.348 283.525 210.348 283.525C210.348 283.525 211.3 277.877 211.072 275.334C210.867 272.781 210.51 271.926 209.341 271.277Z" fill="#9DCAD1"/>
<path d="M227.604 273.387C227.604 273.387 228.481 270.996 230.439 272.078C232.397 273.16 233.847 277.293 234.28 278.602C234.713 279.911 235.286 282.519 235.286 282.519C235.286 282.519 232.971 283.525 231.012 283.676C229.054 283.828 227.68 283.969 227.68 283.969C227.68 283.969 226.879 278.819 227.031 276.795C227.171 274.75 227.604 273.387 227.604 273.387Z" fill="#9DCAD1"/>
<path d="M213.648 259.84L213.919 259.851L214.427 263.692C214.427 263.692 213.432 264.665 212.977 263.746C212.025 261.82 211.668 262.209 211.809 260.619C211.895 259.558 213.464 259.591 213.464 259.591L213.648 259.84Z" fill="#FFB07E"/>
<path d="M224.186 259.808L223.916 259.83L223.375 263.671C223.375 263.671 224.36 264.634 224.825 263.703C225.777 261.766 226.134 262.167 226.026 260.576C225.939 259.516 224.37 259.548 224.37 259.548L224.186 259.808Z" fill="#FFB07E"/>
<path d="M218.952 253.522C212.936 253.522 212.763 257.893 212.991 261.431C213.218 264.958 215.988 268.193 218.952 268.193C221.635 268.193 224.687 264.958 224.914 261.431C225.141 257.893 224.968 253.522 218.952 253.522Z" fill="#FDCBA7"/>
<path d="M214.701 253.749C214.701 253.749 213.9 251.314 218.347 251.044C222.783 250.784 224.611 252.862 224.07 254.203L214.701 253.749Z" fill="#EE2A7B"/>
<path d="M221.795 257.006C221.795 257.006 217.565 261.431 212.674 262.069C212.674 262.069 210.64 254.669 215.606 252.386C220.583 250.103 223.634 253.522 223.634 253.522C223.634 253.522 227.767 254.485 225.528 261.517C225.539 261.517 221.795 259.051 221.795 257.006Z" fill="#772635"/>
</g>
<path d="M333.12 214.485H154.727C147.846 214.485 142.252 208.902 142.252 202.01V154.188C142.252 147.307 147.835 141.713 154.727 141.713H345.617V202.01C345.595 208.902 340.023 214.485 333.12 214.485Z" fill="#B0E6FF"/>
<path d="M180.686 202.756C194.298 202.756 205.333 191.721 205.333 178.109C205.333 164.496 194.298 153.462 180.686 153.462C167.074 153.462 156.039 164.496 156.039 178.109C156.039 191.721 167.074 202.756 180.686 202.756Z" fill="#0064B7"/>
<mask id="mask2_2139_41823" style="mask-type:luminance" maskUnits="userSpaceOnUse" x="156" y="153" width="50" height="50">
<path d="M180.682 202.754C194.294 202.754 205.329 191.72 205.329 178.107C205.329 164.495 194.294 153.46 180.682 153.46C167.07 153.46 156.035 164.495 156.035 178.107C156.035 191.72 167.07 202.754 180.682 202.754Z" fill="white"/>
</mask>
<g mask="url(#mask2_2139_41823)">
<path d="M178.392 183.659C178.392 183.659 178.392 186.84 177.029 188.214C175.665 189.577 173.848 191.86 173.848 191.86C173.848 191.86 177.029 196.859 183.401 196.177C189.763 195.496 190.91 190.951 190.91 190.951C190.91 190.951 184.884 190.151 184.202 184.46C183.52 178.768 182.601 178.768 182.601 178.768L178.392 183.659Z" fill="#FFB07E"/>
<path d="M174.573 189.555C174.573 189.555 170.223 189.014 167.875 189.663C165.528 190.312 164.792 189.879 165.43 191.686C166.069 193.493 169.26 201.781 167.767 206.974C166.285 212.178 164.262 238.849 164.262 238.849C164.262 238.849 180.415 239.487 186.68 239.811C192.955 240.136 197.618 238.968 197.618 238.968C197.618 238.968 199.003 227.488 197.618 222.5C196.234 217.512 194.427 209.008 194.427 209.008C194.427 209.008 193.258 197.323 194.849 194.456C196.45 191.589 197.608 191.491 195.595 190.734C193.572 189.987 191.343 189.349 189.753 189.349C188.162 189.349 187.307 189.349 186.344 190.312C185.382 191.275 183.477 193.179 180.816 192.757C178.154 192.335 176.142 190.528 176.142 190.528C176.142 190.528 175.319 189.652 174.573 189.555Z" fill="#F7A600"/>
<path d="M166.868 190.453C166.868 190.453 165.386 189.706 163.146 191.621C160.755 193.677 159.002 198.113 158.158 200.861C157.314 203.62 156.773 206.39 156.773 206.39C156.773 206.39 159.857 207.991 163.049 208.089C166.241 208.197 168.361 208.413 168.361 208.413C168.361 208.413 169.746 200.126 169.422 196.414C169.097 192.692 168.578 191.416 166.868 190.453Z" fill="#070707"/>
<path d="M193.647 193.537C193.647 193.537 194.923 190.031 197.791 191.633C200.658 193.234 202.778 199.282 203.417 201.197C204.055 203.123 204.899 206.932 204.899 206.932C204.899 206.932 201.491 208.414 198.624 208.63C195.757 208.847 193.733 209.052 193.733 209.052C193.733 209.052 192.565 201.511 192.77 198.536C192.987 195.571 193.647 193.537 193.647 193.537Z" fill="#070707"/>
<path d="M190.662 177.567C190.9 178.227 189.743 180.12 189.277 180.769C189.472 179.731 189.688 178.302 189.84 176.625C189.84 176.636 190.435 176.928 190.662 177.567Z" fill="#FFBF99"/>
<path d="M190.055 169.052C189.785 163.003 181.681 162.928 181.681 162.928H181.67C181.67 162.928 173.566 163.003 173.296 169.052C173.166 171.746 173.296 174.407 173.512 176.636C173.664 178.324 173.869 179.752 174.075 180.78C174.205 181.451 174.324 181.938 174.421 182.23C174.594 182.706 174.941 183.279 175.373 183.874C176.261 185.097 177.516 186.395 178.403 186.915C179.117 187.348 180.837 187.672 181.67 187.629H181.681C182.493 187.683 184.126 187.369 184.873 186.958C184.895 186.947 184.927 186.936 184.949 186.926C185.836 186.385 187.091 185.108 187.978 183.885C188.411 183.29 188.746 182.717 188.93 182.241C189.028 181.97 189.157 181.472 189.276 180.791C189.471 179.752 189.688 178.324 189.839 176.647C190.055 174.396 190.164 171.735 190.055 169.052Z" fill="#FFBF99"/>
<path d="M173.503 176.637C173.654 178.325 173.86 179.753 174.065 180.781C173.6 180.131 172.442 178.249 172.68 177.578C172.918 176.929 173.503 176.637 173.503 176.637Z" fill="#FFBF99"/>
<path d="M191.412 169.052C191.26 167.408 190.6 165.428 189.594 164.108C189.161 163.545 187.289 161.479 188.696 160.905C188.047 160.137 187.116 161.035 186.965 161.727C186.911 161.944 186.586 162.528 186.629 162.701C186.381 161.132 186.597 159.91 185.007 159.023C182.464 157.573 179.878 160.97 177.368 161.078C176.156 161.143 173.992 161.576 173.646 159.931C173.635 159.867 173.148 160.516 173.105 160.602C173.008 160.873 172.954 161.241 173.008 161.522C173.105 162.074 173.57 163.015 174.209 163.047C173.375 163.047 172.856 163.015 172.413 162.225C172.239 162.712 172.586 162.993 172.813 163.372C172.38 163.426 171.536 162.636 171.406 162.214C170.941 162.755 171.222 163.534 171.536 164.075C171.634 164.248 172.943 165.309 172.975 165.157C172.802 166.737 172.066 168.273 171.698 169.821C171.504 170.654 171.309 171.562 171.439 172.439C171.579 173.434 171.915 174.581 172.196 175.544C172.661 177.08 173.256 177.827 173.419 178.152C173.516 177.795 173.776 177.07 173.873 176.691C174.306 174.971 173.841 173.164 174.273 171.443C174.923 168.901 176.968 168.587 179.326 169.052C180.787 169.323 182.431 169.041 183.697 168.306C184.401 167.895 185.007 167.494 185.547 166.888C185.775 166.64 186.013 166.185 186.262 166.044C186.402 166.715 186.24 167.343 186.684 167.927C188.631 170.426 188.858 173.423 189.291 176.464C189.313 176.626 189.778 178.162 189.767 178.173C190.633 177.048 190.795 175.209 191.206 173.91C191.606 172.493 191.542 170.47 191.412 169.052Z" fill="#52331D"/>
<path d="M189.832 182.468C189.648 181.257 189.616 179.526 189.616 178.357C189.508 179.244 188.621 180.348 188.036 180.748C187.495 181.105 186.587 181.56 185.905 181.343C185.645 181.159 185.396 180.943 185.115 180.781C184.368 180.305 183.644 179.818 182.746 179.947C182.356 180.002 181.62 180.305 181.577 180.748H181.426C181.371 180.315 180.636 180.012 180.257 179.947C179.359 179.818 178.634 180.326 177.888 180.781C177.617 180.954 177.368 181.159 177.098 181.343C176.394 181.538 175.486 181.094 174.966 180.748C174.382 180.348 173.495 179.255 173.387 178.357C173.387 179.547 173.365 181.267 173.17 182.468C172.932 182.414 172.683 182.328 172.445 182.209C172.445 182.544 172.748 182.793 173.094 182.955C173.105 182.955 173.105 182.966 173.116 182.966C173.289 184.535 176.6 188.809 176.643 188.982C176.795 189.523 178.602 190.637 179.316 191.038C180.073 191.47 180.711 191.557 181.458 191.557H181.545C182.291 191.557 182.929 191.47 183.687 191.038C184.412 190.637 186.208 189.512 186.359 188.982C186.413 188.809 189.713 184.546 189.886 182.966C189.897 182.966 189.897 182.955 189.908 182.955C190.254 182.793 190.557 182.544 190.557 182.209C190.319 182.339 190.081 182.425 189.832 182.468ZM186.608 183.377C186.219 183.302 185.851 183.107 185.494 182.88C184.855 183.204 183.914 183.55 183.276 183.226C183.254 183.215 183.222 183.204 183.2 183.172C182.659 182.815 182.194 183.118 181.631 183.15V183.215C182.269 183.464 182.237 183.453 181.631 183.215C181.61 183.204 181.599 183.204 181.566 183.193H181.415C180.809 183.377 180.776 183.388 181.415 183.193V183.161C180.83 183.161 180.344 182.825 179.792 183.183C179.77 183.193 179.738 183.204 179.716 183.237C179.078 183.561 178.136 183.215 177.498 182.89C177.141 183.118 176.773 183.312 176.384 183.388C176.167 183.421 175.962 183.442 175.734 183.442C175.929 183.442 176.124 183.421 176.308 183.388C176.719 183.312 177.119 183.118 177.509 182.89C177.833 182.706 178.147 182.501 178.439 182.339C179.067 182.003 179.792 181.689 180.484 181.657C180.82 181.635 181.144 181.744 181.436 181.625H181.588C181.858 181.754 182.194 181.635 182.54 181.657C183.243 181.689 183.947 182.014 184.585 182.339C184.888 182.501 185.191 182.696 185.515 182.89C185.905 183.118 186.305 183.312 186.716 183.388C186.9 183.421 187.095 183.442 187.29 183.442C187.03 183.431 186.814 183.421 186.608 183.377Z" fill="#52331D"/>
<path d="M189.838 182.436C189.265 182.545 188.681 182.458 188.042 182.274C187.404 182.09 186.787 181.895 186.225 181.538C186.116 181.463 186.008 181.387 185.9 181.311C185.64 181.127 185.392 180.911 185.11 180.748C184.364 180.272 183.639 179.786 182.741 179.915C182.351 179.97 181.616 180.272 181.572 180.716H181.421C181.367 180.283 180.631 179.98 180.252 179.915C179.354 179.786 178.629 180.294 177.883 180.748C177.612 180.922 177.363 181.127 177.093 181.311C176.996 181.387 176.877 181.463 176.768 181.538C176.206 181.895 175.578 182.101 174.951 182.274C174.301 182.458 173.728 182.545 173.155 182.436C172.917 182.382 172.668 182.296 172.43 182.177C172.43 182.512 172.733 182.761 173.079 182.923C173.382 183.075 173.728 183.15 173.923 183.194C174.669 183.345 175.535 183.486 176.303 183.345C176.714 183.269 177.115 183.075 177.504 182.847C177.829 182.664 178.142 182.458 178.435 182.296C179.062 181.96 179.787 181.647 180.479 181.614C180.815 181.592 181.139 181.701 181.432 181.582H181.583C181.854 181.711 182.189 181.592 182.535 181.614C183.238 181.647 183.942 181.971 184.58 182.296C184.883 182.458 185.186 182.653 185.511 182.847C185.9 183.075 186.3 183.269 186.712 183.345C187.48 183.486 188.334 183.334 189.092 183.194C189.308 183.161 189.644 183.064 189.936 182.923C190.282 182.761 190.585 182.512 190.585 182.177C190.325 182.296 190.076 182.382 189.838 182.436Z" fill="#6B4732"/>
</g>
<path d="M319.96 76.4914C319.96 76.4914 305.267 71.5468 305.105 80.1808C304.943 88.804 301.426 89.5939 297.758 90.243C294.08 90.8814 287.058 89.2801 287.382 98.3902C287.707 107.5 291.375 112.034 288.508 115.918C285.64 119.802 279.224 139.277 287.382 139.753C295.54 140.229 302.248 130.643 304.012 125.861C305.776 121.068 312.159 118.839 317.439 118.352C322.719 117.876 328.464 113.278 324.461 107.425C320.469 101.571 321.691 93.9109 325.792 91.0329C329.849 88.1657 329.849 79.9969 319.96 76.4914Z" stroke="#023EA1" stroke-miterlimit="10"/>
<path d="M315.642 86.25L286.895 146.948" stroke="#023EA1" stroke-miterlimit="10"/>
<path d="M296.309 97.1133L303.958 110.908L319.16 109.21" stroke="#023EA1" stroke-miterlimit="10"/>
<path d="M302.975 139.623C302.975 139.623 319.388 112.607 337.078 99.6343" stroke="#DE051F" stroke-miterlimit="10"/>
<path d="M349.306 93.2725C349.306 93.2725 345.389 102.177 335.262 101.019C335.273 101.009 337.393 92.7532 349.306 93.2725Z" stroke="#DE051F" stroke-miterlimit="10"/>
<path d="M322.18 113.689C322.18 113.689 329.18 108.063 338.084 114.122C338.084 114.133 333.432 120.981 322.18 113.689Z" stroke="#DE051F" stroke-miterlimit="10"/>
<path d="M309.199 130.33C309.199 130.33 314.966 123.449 324.877 127.647C324.898 127.647 321.674 135.275 309.199 130.33Z" stroke="#DE051F" stroke-miterlimit="10"/>
<path d="M308.85 130.2C308.85 130.2 314.163 122.962 307.714 114.338C307.714 114.328 301.082 119.283 308.85 130.2Z" stroke="#DE051F" stroke-miterlimit="10"/>
<path d="M322.313 113.689C322.313 113.689 328.501 107.187 323.211 97.8062C323.211 97.7954 315.983 101.864 322.313 113.689Z" stroke="#DE051F" stroke-miterlimit="10"/>
<path d="M346.993 379.398C411.26 379.398 463.358 327.299 463.358 263.033C463.358 198.767 411.26 146.668 346.993 146.668C282.727 146.668 230.629 198.767 230.629 263.033C230.629 327.299 282.727 379.398 346.993 379.398Z" stroke="#2626DB" stroke-miterlimit="10" stroke-dasharray="6 6"/>
<path d="M127.81 332.116C192.076 332.116 244.174 280.018 244.174 215.751C244.174 151.485 192.076 99.3867 127.81 99.3867C63.5435 99.3867 11.4453 151.485 11.4453 215.751C11.4453 280.018 63.5435 332.116 127.81 332.116Z" stroke="#2626DB" stroke-miterlimit="10" stroke-dasharray="6 6"/>
<path d="M39.6964 259.352C39.8715 248.477 31.198 239.52 20.3237 239.345C9.44943 239.17 0.492129 247.843 0.317035 258.718C0.141942 269.592 8.81536 278.549 19.6897 278.724C30.564 278.899 39.5213 270.226 39.6964 259.352Z" fill="#003EB0"/>
<path d="M461.531 309.524C472.407 309.524 481.223 300.708 481.223 289.833C481.223 278.957 472.407 270.141 461.531 270.141C450.656 270.141 441.84 278.957 441.84 289.833C441.84 300.708 450.656 309.524 461.531 309.524Z" fill="#FCBE42"/>
<path d="M13.0957 255.092L20.9724 266.918L26.8907 257.072" stroke="white" stroke-width="2" stroke-miterlimit="10"/>
<path d="M456.605 281.957L469.405 290.818L456.605 297.721V281.957Z" fill="white"/>
<path d="M190.993 30.3585L184.023 37.3281L190.993 44.2978L197.963 37.3281L190.993 30.3585Z" fill="#EE384E"/>
<path d="M19.4247 389.998L12.4551 396.968L19.4247 403.938L26.3943 396.968L19.4247 389.998Z" fill="#EE384E"/>
<path d="M348.259 112.485L341.289 119.455L348.259 126.425L355.228 119.455L348.259 112.485Z" fill="#003EB0"/>
<path d="M430.388 393.313L423.418 400.283L430.388 407.252L437.357 400.283L430.388 393.313Z" fill="#003EB0"/>
<path d="M326.965 166.705H219.484C218.11 166.705 216.984 165.58 216.984 164.206V156.307C216.984 154.933 218.11 153.808 219.484 153.808H326.965C328.34 153.808 329.465 154.933 329.465 156.307V164.206C329.465 165.591 328.34 166.705 326.965 166.705Z" stroke="#0064B7" stroke-miterlimit="10"/>
<path d="M326.965 184.547H219.484C218.11 184.547 216.984 183.422 216.984 182.048V174.149C216.984 172.775 218.11 171.65 219.484 171.65H326.965C328.34 171.65 329.465 172.775 329.465 174.149V182.048C329.465 183.432 328.34 184.547 326.965 184.547Z" stroke="#0064B7" stroke-miterlimit="10"/>
<path d="M326.965 202.377H219.484C218.11 202.377 216.984 201.252 216.984 199.878V191.98C216.984 190.605 218.11 189.48 219.484 189.48H326.965C328.34 189.48 329.465 190.605 329.465 191.98V199.878C329.465 201.263 328.34 202.377 326.965 202.377Z" stroke="#0064B7" stroke-miterlimit="10"/>
<path d="M310.185 250.6H248.07C246.696 250.6 245.57 249.475 245.57 248.101V245.407C245.57 244.033 246.696 242.908 248.07 242.908H310.185C311.559 242.908 312.684 244.033 312.684 245.407V248.101C312.684 249.486 311.57 250.6 310.185 250.6Z" fill="#0064B7"/>
<path d="M310.185 263.163H248.07C246.696 263.163 245.57 262.038 245.57 260.664V257.97C245.57 256.596 246.696 255.47 248.07 255.47H310.185C311.559 255.47 312.684 256.596 312.684 257.97V260.664C312.684 262.049 311.57 263.163 310.185 263.163Z" fill="#0064B7"/>
<path d="M310.185 275.725H248.07C246.696 275.725 245.57 274.6 245.57 273.226V270.532C245.57 269.157 246.696 268.032 248.07 268.032H310.185C311.559 268.032 312.684 269.157 312.684 270.532V273.226C312.684 274.621 311.57 275.725 310.185 275.725Z" fill="#0064B7"/>
<path d="M421.604 141.258H375.501C374.127 141.258 373.002 142.383 373.002 143.757V162.053C373.002 163.427 374.127 164.552 375.501 164.552H424.103V143.757C424.103 142.372 422.978 141.258 421.604 141.258Z" fill="#B0E6FF"/>
<path d="M384.169 160.074C387.898 160.074 390.921 157.051 390.921 153.323C390.921 149.594 387.898 146.571 384.169 146.571C380.441 146.571 377.418 149.594 377.418 153.323C377.418 157.051 380.441 160.074 384.169 160.074Z" fill="#0064B7"/>
<mask id="mask3_2139_41823" style="mask-type:luminance" maskUnits="userSpaceOnUse" x="377" y="146" width="14" height="15">
<path d="M384.171 160.073C387.9 160.073 390.923 157.05 390.923 153.322C390.923 149.593 387.9 146.57 384.171 146.57C380.443 146.57 377.42 149.593 377.42 153.322C377.42 157.05 380.443 160.073 384.171 160.073Z" fill="white"/>
</mask>
<g mask="url(#mask3_2139_41823)">
<path d="M383.538 154.847C383.538 154.847 383.538 155.723 383.16 156.091C382.781 156.459 382.283 157.087 382.283 157.087C382.283 157.087 383.16 158.461 384.902 158.277C386.644 158.093 386.957 156.838 386.957 156.838C386.957 156.838 385.313 156.621 385.129 155.063C384.945 153.505 384.696 153.505 384.696 153.505L383.538 154.847Z" fill="#FFBF99"/>
<path d="M382.5 156.449C382.5 156.449 381.299 156.298 380.671 156.471C380.033 156.644 379.827 156.536 380 157.023C380.173 157.52 381.05 159.792 380.639 161.21C380.228 162.627 379.676 169.941 379.676 169.941C379.676 169.941 384.09 170.114 385.81 170.201C387.531 170.287 388.807 169.963 388.807 169.963C388.807 169.963 389.186 166.814 388.807 165.462C388.429 164.088 387.931 161.772 387.931 161.772C387.931 161.772 387.607 158.57 388.039 157.791C388.472 157.023 388.797 156.979 388.234 156.763C387.682 156.568 387.076 156.384 386.633 156.384C386.2 156.384 385.962 156.384 385.702 156.644C385.443 156.904 384.912 157.434 384.198 157.315C383.473 157.207 382.911 156.709 382.911 156.709C382.911 156.709 382.694 156.482 382.5 156.449Z" fill="#1B3A62"/>
<path d="M380.394 156.698C380.394 156.698 379.983 156.504 379.366 157.023C378.706 157.586 378.23 158.797 377.992 159.555C377.754 160.312 377.613 161.069 377.613 161.069C377.613 161.069 378.457 161.502 379.334 161.535C380.21 161.556 380.794 161.621 380.794 161.621C380.794 161.621 381.173 159.349 381.086 158.332C381 157.315 380.848 156.969 380.394 156.698Z" fill="#021E34"/>
<path d="M387.731 157.542C387.731 157.542 388.077 156.579 388.867 157.023C389.657 157.456 390.241 159.122 390.414 159.641C390.587 160.161 390.825 161.21 390.825 161.21C390.825 161.21 389.895 161.621 389.105 161.675C388.315 161.74 387.774 161.784 387.774 161.784C387.774 161.784 387.45 159.717 387.514 158.906C387.558 158.105 387.731 157.542 387.731 157.542Z" fill="#021E34"/>
<path d="M384.233 154.025H383.184C383.184 154.025 383.27 154.869 384.233 154.869C385.196 154.869 385.283 154.025 385.283 154.025H384.233Z" fill="white"/>
<path d="M387.12 152.294C387.196 152.51 386.828 153.095 386.688 153.3C386.752 152.976 386.817 152.532 386.861 152.002C386.861 152.002 387.045 152.099 387.12 152.294Z" fill="#FFBF99"/>
<path d="M386.927 149.632C386.841 147.739 384.298 147.706 384.298 147.706C384.298 147.706 381.756 147.728 381.669 149.632C381.637 150.476 381.669 151.32 381.734 152.012C381.788 152.532 381.842 152.986 381.907 153.311C381.939 153.527 381.983 153.668 382.015 153.765C382.069 153.917 382.177 154.09 382.318 154.274C382.589 154.663 382.989 155.063 383.27 155.236C383.497 155.377 384.028 155.475 384.298 155.464C384.547 155.475 385.055 155.377 385.294 155.247C385.304 155.247 385.304 155.236 385.315 155.236C385.586 155.074 385.986 154.663 386.267 154.274C386.408 154.09 386.516 153.895 386.57 153.765C386.603 153.678 386.646 153.527 386.678 153.311C386.743 152.986 386.808 152.542 386.852 152.012C386.938 151.298 386.96 150.465 386.927 149.632Z" fill="#FFBF99"/>
<path d="M381.731 152.001C381.785 152.521 381.839 152.975 381.904 153.3C381.753 153.105 381.396 152.499 381.471 152.294C381.547 152.099 381.731 152.001 381.731 152.001Z" fill="#FFBF99"/>
<path d="M385.769 154.934L385.779 154.945C385.606 155.129 385.433 155.291 385.282 155.378C385.065 155.508 384.622 155.778 384.384 155.767H384.286C384.048 155.778 383.605 155.508 383.388 155.378C383.237 155.291 383.064 155.129 382.891 154.945L382.901 154.934C383.194 154.912 383.064 154.534 383.139 154.372C383.215 154.22 383.453 154.188 383.594 154.112C383.702 154.047 383.81 154.025 383.918 153.971C384.048 153.906 384.157 153.906 384.276 153.906H384.373C384.514 153.906 384.611 153.906 384.73 153.971C384.838 154.025 384.946 154.047 385.055 154.112C385.195 154.188 385.433 154.22 385.509 154.372C385.606 154.534 385.477 154.902 385.769 154.934ZM385.293 154.761C385.455 154.491 385.271 154.469 385.044 154.404C384.871 154.339 384.535 154.188 384.362 154.177H384.33C384.157 154.177 383.821 154.339 383.648 154.404C383.432 154.48 383.237 154.501 383.399 154.761C383.486 154.912 383.713 155.172 383.908 155.151C384.135 155.129 384.232 154.837 384.33 154.696H384.362C384.459 154.837 384.557 155.118 384.784 155.151C384.979 155.172 385.195 154.902 385.293 154.761Z" fill="#915F41"/>
<path d="M384.332 151.461C384.397 151.461 384.549 151.461 384.592 151.472C384.722 151.472 384.689 151.375 384.765 151.277C384.862 151.148 385.09 151.18 385.23 151.18C385.425 151.169 385.62 151.158 385.814 151.158C385.955 151.158 386.366 151.137 386.399 151.148C386.41 151.148 386.572 151.234 386.626 151.31C386.648 151.342 386.658 151.386 386.68 151.418C386.702 151.559 386.669 151.721 386.658 151.829C386.637 152.002 386.604 152.175 386.485 152.284C386.453 152.305 386.399 152.316 386.355 152.316C386.291 152.327 386.053 152.327 385.998 152.338C385.804 152.349 385.598 152.359 385.403 152.349C385.176 152.338 384.916 152.359 384.83 152.013C384.808 151.927 384.776 151.624 384.743 151.591C384.668 151.515 384.451 151.505 384.365 151.505C384.321 151.472 384.321 151.494 384.332 151.461ZM384.971 152.208C385.025 152.24 385.219 152.273 385.219 152.273C385.273 152.273 385.933 152.284 386.204 152.24C386.258 152.23 386.345 152.208 386.377 152.175C386.464 152.111 386.539 151.537 386.474 151.451C386.442 151.396 386.334 151.321 386.301 151.288C386.15 151.158 384.949 151.223 384.906 151.288C384.841 151.364 384.841 151.429 384.841 151.515C384.916 151.461 384.949 151.537 384.971 151.624C384.971 151.678 384.992 151.872 384.906 151.786C384.895 151.775 384.884 151.732 384.852 151.764C384.819 151.797 384.83 151.916 384.83 151.948C384.884 152.132 384.96 152.197 384.971 152.208Z" fill="#6B4732"/>
<path d="M384.322 151.461C384.257 151.461 384.106 151.461 384.062 151.472C383.932 151.472 383.965 151.375 383.889 151.277C383.792 151.148 383.565 151.18 383.424 151.18C383.229 151.169 383.034 151.158 382.84 151.158C382.699 151.158 382.288 151.137 382.255 151.148C382.245 151.148 382.082 151.234 382.028 151.31C382.007 151.342 381.996 151.386 381.974 151.418C381.952 151.559 381.985 151.721 381.996 151.829C382.017 152.002 382.05 152.175 382.169 152.284C382.201 152.305 382.255 152.316 382.299 152.316C382.364 152.327 382.602 152.327 382.656 152.338C382.85 152.349 383.056 152.359 383.251 152.349C383.478 152.338 383.738 152.359 383.824 152.013C383.846 151.927 383.878 151.624 383.911 151.591C383.986 151.515 384.203 151.505 384.289 151.505C384.322 151.472 384.333 151.494 384.322 151.461ZM383.684 152.208C383.629 152.24 383.435 152.273 383.435 152.273C383.381 152.273 382.721 152.284 382.45 152.24C382.396 152.23 382.309 152.208 382.277 152.175C382.19 152.111 382.115 151.537 382.18 151.451C382.212 151.396 382.32 151.321 382.353 151.288C382.504 151.158 383.705 151.223 383.748 151.288C383.813 151.364 383.813 151.429 383.813 151.515C383.738 151.461 383.705 151.537 383.684 151.624C383.684 151.678 383.662 151.872 383.748 151.786C383.759 151.775 383.77 151.732 383.803 151.764C383.835 151.797 383.824 151.916 383.824 151.948C383.759 152.132 383.694 152.197 383.684 152.208Z" fill="#6B4732"/>
</g>
<path d="M418.477 149.46H394.479C394.133 149.46 393.852 149.189 393.852 148.832V147.188C393.852 146.841 394.122 146.56 394.479 146.56H418.477C418.823 146.56 419.104 146.831 419.104 147.188V148.832C419.094 149.178 418.812 149.46 418.477 149.46Z" fill="#0064B7"/>
<path d="M418.477 154.188H394.479C394.133 154.188 393.852 153.918 393.852 153.561V151.916C393.852 151.57 394.122 151.289 394.479 151.289H418.477C418.823 151.289 419.104 151.559 419.104 151.916V153.561C419.094 153.907 418.812 154.188 418.477 154.188Z" fill="#0064B7"/>
<path d="M418.477 158.905H394.479C394.133 158.905 393.852 158.634 393.852 158.277V156.632C393.852 156.286 394.122 156.005 394.479 156.005H418.477C418.823 156.005 419.104 156.275 419.104 156.632V158.277C419.094 158.634 418.812 158.905 418.477 158.905Z" fill="#0064B7"/>
<path d="M78.571 116.146H29.2337C27.8596 116.146 26.7344 117.271 26.7344 118.645V138.413C26.7344 139.787 27.8596 140.912 29.2337 140.912H81.0703V118.645C81.0703 117.271 79.9559 116.146 78.571 116.146Z" fill="#B0E6FF"/>
<path d="M38.6109 136.162C42.5726 136.162 45.7843 132.95 45.7843 128.988C45.7843 125.027 42.5726 121.815 38.6109 121.815C34.6491 121.815 31.4375 125.027 31.4375 128.988C31.4375 132.95 34.6491 136.162 38.6109 136.162Z" fill="#0064B7"/>
<mask id="mask4_2139_41823" style="mask-type:luminance" maskUnits="userSpaceOnUse" x="31" y="121" width="15" height="16">
<path d="M38.605 136.162C42.5668 136.162 45.7784 132.95 45.7784 128.988C45.7784 125.027 42.5668 121.815 38.605 121.815C34.6433 121.815 31.4316 125.027 31.4316 128.988C31.4316 132.95 34.6433 136.162 38.605 136.162Z" fill="white"/>
</mask>
<g mask="url(#mask4_2139_41823)">
<path d="M37.9294 130.59C37.9294 130.59 37.9294 131.509 37.529 131.91C37.1287 132.31 36.6094 132.97 36.6094 132.97C36.6094 132.97 37.529 134.431 39.39 134.225C41.251 134.03 41.5756 132.7 41.5756 132.7C41.5756 132.7 39.812 132.462 39.6172 130.817C39.4225 129.162 39.152 129.162 39.152 129.162L37.9294 130.59Z" fill="#FFB07E"/>
<path d="M36.8282 132.321C36.8282 132.321 35.5514 132.169 34.8806 132.342C34.2098 132.516 33.9826 132.407 34.1665 132.927C34.3505 133.446 35.281 135.87 34.8482 137.384C34.4154 138.91 33.8203 146.668 33.8203 146.668C33.8203 146.668 38.5268 146.852 40.3445 146.938C42.1622 147.025 43.5255 146.689 43.5255 146.689C43.5255 146.689 43.9258 143.346 43.5255 141.896C43.1252 140.436 42.6058 137.969 42.6058 137.969C42.6058 137.969 42.2704 134.561 42.7356 133.727C43.2009 132.894 43.5363 132.862 42.952 132.645C42.3678 132.429 41.7186 132.245 41.2534 132.245C40.7881 132.245 40.5393 132.245 40.2688 132.516C39.9983 132.786 39.4357 133.349 38.6567 133.23C37.8885 133.1 37.2934 132.581 37.2934 132.581C37.2934 132.581 37.0337 132.342 36.8282 132.321Z" fill="#1B3A62"/>
<path d="M34.5796 132.58C34.5796 132.58 34.1469 132.364 33.4977 132.916C32.7944 133.511 32.2859 134.798 32.037 135.61C31.7882 136.411 31.6367 137.222 31.6367 137.222C31.6367 137.222 32.5347 137.687 33.4544 137.72C34.3741 137.741 35.0016 137.806 35.0016 137.806C35.0016 137.806 35.4019 135.393 35.3154 134.312C35.2288 133.23 35.0773 132.851 34.5796 132.58Z" fill="#00AEEF"/>
<path d="M42.3781 133.479C42.3781 133.479 42.7568 132.451 43.5899 132.916C44.423 133.382 45.0506 135.145 45.2237 135.697C45.3968 136.249 45.6565 137.363 45.6565 137.363C45.6565 137.363 44.6719 137.796 43.8388 137.861C43.0057 137.926 42.4214 137.991 42.4214 137.991C42.4214 137.991 42.086 135.794 42.1509 134.918C42.1942 134.063 42.3781 133.479 42.3781 133.479Z" fill="#00AEEF"/>
<path d="M41.7953 127.538C41.7953 127.538 41.99 127.635 42.0874 127.863C42.1739 128.101 41.7628 128.75 41.6113 128.977" fill="#FFB07E"/>
<path d="M41.8706 124.91C41.7732 122.811 38.9601 122.778 38.9601 122.778C38.9601 122.778 36.1362 122.8 36.0496 124.91C36.0172 125.84 36.0496 126.771 36.1254 127.539C36.1795 128.123 36.2552 128.621 36.3201 128.978C36.3742 129.216 36.4067 129.378 36.45 129.476C36.5149 129.638 36.6231 129.833 36.7746 130.049C37.0883 130.471 37.5211 130.925 37.8241 131.109C38.0729 131.261 38.668 131.369 38.9601 131.358C39.2522 131.369 39.8473 131.261 40.0962 131.109C40.4099 130.925 40.8427 130.471 41.1457 130.049C41.2971 129.833 41.4162 129.638 41.4703 129.476C41.5027 129.378 41.546 129.205 41.6001 128.978C41.665 128.621 41.7407 128.112 41.7948 127.539C41.8706 126.76 41.903 125.84 41.8706 124.91Z" fill="#FFB07E"/>
<path d="M36.1157 127.538C36.1698 128.122 36.2455 128.62 36.3104 128.977C36.1481 128.75 35.7478 128.09 35.8344 127.863C35.9209 127.635 36.1157 127.538 36.1157 127.538Z" fill="#FFB07E"/>
<path d="M36.9454 124.499L36.8805 124.574C36.8805 125.094 36.8588 125.418 36.5775 125.862C36.3611 126.197 36.0582 126.652 36.1231 127.074C36.069 126.814 36.1015 126.554 35.9392 126.327C35.766 126.067 35.7011 125.894 35.7228 125.537C35.7552 125.148 35.7552 124.693 35.9716 124.336C36.069 124.174 36.2421 124.077 36.3178 123.925C36.3503 123.839 36.3287 123.676 36.3936 123.547C36.8047 122.778 38.1788 122.8 38.9362 122.778C38.9362 122.778 41.7601 122.8 41.8466 124.91C41.9007 125.938 41.8358 126.933 41.7601 127.755C41.7276 127.485 41.5004 127.268 41.3598 127.02C41.2083 126.717 41.1434 126.435 40.9053 126.176C40.6024 125.829 40.0398 125.667 39.607 125.526C38.6873 125.245 37.6811 125.094 36.9454 124.499Z" fill="#915F41"/>
<path d="M38.2246 124.324C38.3977 124.454 38.5492 124.584 38.7007 124.735C38.8521 124.876 39.0036 125.038 39.1551 125.157C39.3174 125.287 39.5013 125.374 39.6961 125.449C39.7934 125.482 39.8908 125.525 39.9882 125.558C40.0856 125.59 40.1721 125.644 40.2587 125.709C40.0748 125.612 39.8692 125.547 39.6853 125.482C39.5879 125.449 39.4905 125.406 39.3931 125.374C39.2957 125.32 39.2092 125.276 39.1335 125.201C38.9712 125.06 38.8305 124.908 38.679 124.768C38.5276 124.606 38.3869 124.465 38.2246 124.324Z" fill="#BB8B6C"/>
<path d="M39.6836 124.683C39.6944 124.769 39.7377 124.856 39.781 124.931C39.8351 125.007 39.8783 125.083 39.9324 125.159C40.0406 125.299 40.1705 125.451 40.2895 125.57C40.4193 125.7 40.56 125.808 40.7115 125.916C40.7872 125.97 40.8629 126.024 40.9278 126.089C40.9928 126.154 41.0577 126.23 41.101 126.306C41.0469 126.23 40.9711 126.165 40.917 126.111C40.8413 126.046 40.7656 126.003 40.6898 125.949C40.5383 125.851 40.376 125.754 40.257 125.613C40.138 125.472 40.0082 125.343 39.9108 125.191C39.8567 125.115 39.8134 125.04 39.7702 124.953C39.7161 124.856 39.6944 124.769 39.6836 124.683Z" fill="#BB8B6C"/>
</g>
<path d="M75.132 124.877H49.5221C49.1758 124.877 48.8945 124.607 48.8945 124.25V122.421C48.8945 122.075 49.165 121.793 49.5221 121.793H75.1212C75.4674 121.793 75.7487 122.064 75.7487 122.421V124.25C75.7596 124.596 75.4674 124.877 75.132 124.877Z" fill="#0064B7"/>
<path d="M75.132 129.909H49.5221C49.1758 129.909 48.8945 129.638 48.8945 129.281V127.453C48.8945 127.107 49.165 126.825 49.5221 126.825H75.1212C75.4674 126.825 75.7487 127.096 75.7487 127.453V129.281C75.7596 129.617 75.4674 129.909 75.132 129.909Z" fill="#0064B7"/>
<path d="M75.132 134.94H49.5221C49.1758 134.94 48.8945 134.669 48.8945 134.312V132.483C48.8945 132.137 49.165 131.856 49.5221 131.856H75.1212C75.4674 131.856 75.7487 132.126 75.7487 132.483V134.312C75.7596 134.647 75.4674 134.94 75.132 134.94Z" fill="#0064B7"/>
<path d="M291.563 368.546H204.206C203.859 368.546 203.578 368.275 203.578 367.918V362.238C203.578 361.892 203.849 361.61 204.206 361.61H291.563C291.909 361.61 292.19 361.881 292.19 362.238V367.918C292.19 368.275 291.898 368.546 291.563 368.546Z" stroke="#0064B7" stroke-miterlimit="10"/>
<path d="M291.563 379.873H204.206C203.859 379.873 203.578 379.603 203.578 379.246V373.566C203.578 373.219 203.849 372.938 204.206 372.938H291.563C291.909 372.938 292.19 373.208 292.19 373.566V379.246C292.19 379.592 291.898 379.873 291.563 379.873Z" stroke="#0064B7" stroke-miterlimit="10"/>
<path d="M291.563 391.201H204.206C203.859 391.201 203.578 390.93 203.578 390.573V384.893C203.578 384.547 203.849 384.266 204.206 384.266H291.563C291.909 384.266 292.19 384.536 292.19 384.893V390.573C292.19 390.92 291.898 391.201 291.563 391.201Z" stroke="#0064B7" stroke-miterlimit="10"/>
<path d="M117.874 177.742H70.3653C69.6837 177.742 69.1211 178.304 69.1211 178.986V199.283C69.1211 199.965 69.6837 200.528 70.3653 200.528H119.129V178.986C119.118 178.304 118.567 177.742 117.874 177.742Z" fill="#B0E6FF"/>
<path d="M80.0346 196.157C83.6856 196.157 86.6454 193.197 86.6454 189.546C86.6454 185.895 83.6856 182.935 80.0346 182.935C76.3836 182.935 73.4238 185.895 73.4238 189.546C73.4238 193.197 76.3836 196.157 80.0346 196.157Z" fill="#0064B7"/>
<mask id="mask5_2139_41823" style="mask-type:luminance" maskUnits="userSpaceOnUse" x="73" y="182" width="14" height="15">
<path d="M80.0405 196.157C83.6915 196.157 86.6512 193.197 86.6512 189.546C86.6512 185.895 83.6915 182.935 80.0405 182.935C76.3894 182.935 73.4297 185.895 73.4297 189.546C73.4297 193.197 76.3894 196.157 80.0405 196.157Z" fill="white"/>
</mask>
<g mask="url(#mask5_2139_41823)">
<path d="M82.9016 190.52C82.5986 189.373 83.0314 188.951 83.1505 187.393L80.1426 187.295L77.1348 187.393C77.2646 188.951 77.6866 189.373 77.3836 190.52C76.9508 192.218 75.7499 194.458 80.1426 194.458C84.5354 194.458 83.3452 192.218 82.9016 190.52Z" fill="#4B2C61"/>
<path d="M79.4393 191.038C79.4393 191.038 79.4393 191.882 79.0822 192.261C78.7252 192.618 78.2383 193.234 78.2383 193.234C78.2383 193.234 79.0822 194.565 80.7917 194.392C82.5012 194.219 82.8041 192.996 82.8041 192.996C82.8041 192.996 81.192 192.78 81.0081 191.265C80.8242 189.751 80.5861 189.74 80.5861 189.74L79.4393 191.038Z" fill="#F8E1CC"/>
<path d="M78.4122 192.619C78.4122 192.619 77.2437 192.478 76.6162 192.641C75.9886 192.814 75.7939 192.705 75.967 193.181C76.1401 193.668 76.9949 195.886 76.5945 197.282C76.1942 198.678 75.6641 205.83 75.6641 205.83C75.6641 205.83 79.9919 206.003 81.6797 206.089C83.3676 206.176 84.6119 205.862 84.6119 205.862C84.6119 205.862 84.9905 202.789 84.6119 201.448C84.2332 200.117 83.7679 197.834 83.7679 197.834C83.7679 197.834 83.4542 194.707 83.8761 193.928C84.2981 193.16 84.6119 193.127 84.0709 192.933C83.5299 192.738 82.9348 192.554 82.502 192.554C82.0693 192.554 81.8529 192.554 81.5932 192.814C81.3335 193.073 80.825 193.582 80.1109 193.463C79.3968 193.355 78.8667 192.868 78.8667 192.868C78.8667 192.868 78.6178 192.651 78.4122 192.619Z" fill="#CCB4AA"/>
<path d="M76.3533 192.867C76.3533 192.867 75.953 192.672 75.3579 193.181C74.7088 193.733 74.2435 194.912 74.0271 195.659C73.7999 196.394 73.6484 197.141 73.6484 197.141C73.6484 197.141 74.4707 197.563 75.3363 197.606C76.1802 197.628 76.7537 197.693 76.7537 197.693C76.7537 197.693 77.1323 195.475 77.0458 194.479C76.9592 193.473 76.8078 193.116 76.3533 192.867Z" fill="#355D75"/>
<path d="M83.5295 193.689C83.5295 193.689 83.8649 192.759 84.6439 193.181C85.4121 193.603 85.9747 195.226 86.1478 195.734C86.3209 196.243 86.5481 197.271 86.5481 197.271C86.5481 197.271 85.6393 197.671 84.8603 197.736C84.0921 197.801 83.5511 197.844 83.5511 197.844C83.5511 197.844 83.2373 195.821 83.2914 195.02C83.3455 194.22 83.5295 193.689 83.5295 193.689Z" fill="#355D75"/>
<path d="M77.967 188.615C77.967 188.615 77.729 188.377 77.5883 188.431C77.4585 188.485 77.3503 188.767 77.4477 189.059C77.5451 189.351 77.6424 189.578 77.7398 189.643C77.8264 189.708 78.1401 189.751 78.1401 189.729C78.151 189.697 77.967 188.615 77.967 188.615Z" fill="#F8E1CC"/>
<path d="M82.3884 188.615C82.3884 188.615 82.6373 188.377 82.7671 188.431C82.8969 188.485 83.0051 188.766 82.9078 189.058C82.8104 189.351 82.713 189.578 82.6156 189.643C82.5183 189.708 82.2153 189.751 82.2153 189.729C82.2045 189.697 82.3884 188.615 82.3884 188.615Z" fill="#F8E1CC"/>
<path d="M82.447 186.668C82.0358 185.424 80.8781 185.132 80.1857 185.132C79.4932 185.132 78.3247 185.424 77.9136 186.668C77.5024 187.912 78.065 189.698 78.4329 190.336C78.8116 190.974 79.6339 191.613 80.1749 191.613C80.7267 191.613 81.549 190.985 81.9168 190.336C82.2955 189.709 82.8581 187.923 82.447 186.668Z" fill="#F8E1CC"/>
<path d="M77.8571 188.767C77.8571 188.767 78.0735 187.566 78.6145 186.884C78.6145 186.884 78.9391 187.804 79.8912 188.182C79.8912 188.182 79.8912 187.696 79.783 187.339C79.783 187.339 80.5404 188.063 81.4492 188.215C81.4492 188.215 81.3951 187.815 81.2545 187.533C81.2545 187.533 82.1201 188.172 82.4879 188.756C82.4879 188.756 83.2236 188.15 83.1695 186.938C83.1046 185.726 82.0335 184.298 80.324 184.255C78.6145 184.223 77.8247 185.543 77.8247 185.543C77.8247 185.543 77.1971 185.943 77.143 186.787C77.0673 187.62 77.2945 188.172 77.8571 188.767Z" fill="#4B2C61"/>
</g>
<path d="M113.613 185.781H90.1451C89.7989 185.781 89.5176 185.511 89.5176 185.153V183.574C89.5176 183.228 89.7881 182.946 90.1451 182.946H113.613C113.959 182.946 114.24 183.217 114.24 183.574V185.153C114.24 185.489 113.948 185.781 113.613 185.781Z" fill="#0064B7"/>
<path d="M113.613 190.412H90.1451C89.7989 190.412 89.5176 190.141 89.5176 189.784V188.205C89.5176 187.858 89.7881 187.577 90.1451 187.577H113.613C113.959 187.577 114.24 187.848 114.24 188.205V189.784C114.24 190.12 113.948 190.412 113.613 190.412Z" fill="#0064B7"/>
<path d="M113.613 195.032H90.1451C89.7989 195.032 89.5176 194.761 89.5176 194.404V192.824C89.5176 192.478 89.7881 192.197 90.1451 192.197H113.613C113.959 192.197 114.24 192.467 114.24 192.824V194.404C114.24 194.75 113.948 195.032 113.613 195.032Z" fill="#0064B7"/>
<path d="M178.717 241.686C178.717 241.686 191.397 237.174 192.815 249.021C192.815 249.021 196.061 257.623 199.306 259.17C202.552 260.717 210.58 263.682 208.611 274.826C206.642 285.97 203.537 285.267 204.803 291.748C206.08 298.24 202.974 298.943 198.452 299.083C193.929 299.224 192.674 294.994 192.674 294.994L193.951 280.615L190.997 257.493L181.4 253.685C181.4 253.685 176.456 247.485 176.034 245.083C175.612 242.67 178.717 241.686 178.717 241.686Z" fill="#170856"/>
<path d="M180.412 238.483C180.412 238.483 182.424 240.572 181.948 240.939C181.472 241.318 175.997 244.175 175.997 244.175C175.997 244.175 174.418 241.102 174.58 240.204C174.721 239.306 180.412 238.483 180.412 238.483Z" fill="#F05051"/>
<path d="M146.838 223C146.546 223.032 146.352 223.292 146.352 223.573C146.427 226.332 147.066 239.619 152.259 244.541C152.259 244.541 155.007 248.134 160.287 246.662C160.287 246.662 165.048 243.806 164.301 249.616C163.566 255.426 166 261.139 167.893 261.993C169.798 262.837 177.62 260.717 179.416 257.438C180.617 255.253 181.245 254.149 181.537 253.662C181.667 253.446 181.634 253.197 181.472 253.024C180.401 251.791 176.365 246.835 174.504 239.997C172.329 232.066 173.498 224.45 166.195 222.859C159.8 221.452 149.24 222.686 146.838 223Z" fill="#FFBE97"/>
<path d="M140.021 222.351C140.032 222.243 140.053 222.113 140.053 222.005C140.118 221.237 140.043 220.447 140.118 219.657C140.367 217.233 141.157 214.68 143.05 213.046C144.457 211.823 146.307 211.347 148.136 211.347C148.547 211.347 148.947 211.196 149.218 210.882C150.462 209.476 154.508 205.44 160.091 205.44C166.854 205.44 178.398 209.097 181.525 220.631C181.536 220.652 181.536 220.663 181.536 220.696C181.72 221.464 186.123 239.576 177.294 240.128C168.26 240.69 164.614 236.243 164.884 232.229C164.884 232.229 169.32 224.255 161.779 226.3C161.779 226.3 154.011 227.761 148.612 224.591C147.941 224.19 147.086 224.439 146.707 225.11C145.636 226.971 143.494 229.838 141.482 227.425C140.746 226.538 140.032 225.521 139.826 224.353C139.707 223.649 139.902 223.022 140.021 222.351Z" fill="#170856"/>
<path d="M181.648 253.133C181.648 253.133 177.244 260.22 170.969 260.144C164.694 260.068 164.293 253.566 164.293 253.566C164.293 253.566 151.505 265.078 151.645 272.684C151.786 280.29 154.328 279.035 155.021 281.567C155.735 284.098 150.79 311.039 150.79 311.039L150.055 312.619L186.192 317.52C186.192 317.52 187.599 311.742 188.583 309.914C189.568 308.085 194.642 260.847 194.642 260.847L192.251 258.315C192.262 258.326 188.031 253.522 181.648 253.133Z" fill="#FCBE42"/>
<path d="M197.606 281.729C197.606 281.729 201.198 258.348 192.11 257.19C183.227 256.065 183.075 263.39 182.805 274.253C182.513 285.105 182.664 287.517 182.664 287.517L196.762 290.049L197.606 281.729Z" fill="#F79F03"/>
<path d="M183.076 287.593C182.849 287.561 182.654 287.723 182.622 287.94L181.886 296.898C181.94 298.261 181.691 299.516 180.425 299.008C179.722 298.716 178.846 298.294 177.731 297.677C173.706 295.427 161.523 289.498 157.726 287.658C157.055 287.334 156.557 286.739 156.287 286.035C155.876 284.91 154.891 283.233 152.619 282.595C149.092 281.61 143.022 281.751 142.892 282.173C142.751 282.595 142.048 285.548 142.329 286.544C142.622 287.528 145.575 286.684 145.575 286.684C145.575 286.684 151.072 285.7 149.524 287.669C148.626 288.816 147.339 288.967 146.43 288.892C146.051 288.87 145.878 289.346 146.17 289.573C146.928 290.168 148.291 290.893 150.509 291.207C154.599 291.77 183.498 310.671 183.498 310.671C183.498 310.671 189.135 315.043 192.381 303.476C194.848 294.658 196.081 291.532 196.536 290.515C196.633 290.287 196.503 290.039 196.243 289.995L183.076 287.593Z" fill="#FEBD96"/>
<path d="M135.047 300.165L151.536 306.981L153.289 296.659L146.57 296.248L135.047 300.165Z" fill="#FEBD96"/>
<path d="M123.73 267.209L97.6328 265.651L124.714 299.776L149.675 300.62L123.73 267.209Z" fill="#0064B7"/>
<path d="M123.578 297.384C123.578 297.384 124.562 291.185 122.452 290.189C120.343 289.194 118.968 291.509 119.098 292.634C119.25 293.89 123.394 298.088 123.394 298.088L123.578 297.384Z" fill="#FEBD96"/>
<path d="M150.064 312.651L99.1905 331.996C99.1905 331.996 92.8394 333.273 91.2922 350.4C89.745 367.539 88.4683 424.298 88.4683 424.298L88.3926 426.127L101.073 426.343L107.435 365.84L137.546 329.529L161.944 314.22L150.064 312.651Z" fill="#0064E1"/>
<path d="M186.507 316.449L161.806 314.231L109.807 340.209C109.807 340.209 95.7633 348.475 104.776 363.482C113.789 378.489 138.944 424.234 138.944 424.234L147.6 417.764L125.387 356.255C125.387 356.255 124.846 353.085 132.258 352.533C139.182 352.024 171.922 348.843 176.153 348.432C176.51 348.4 176.856 348.324 177.191 348.194C179.745 347.242 189.753 342.406 186.572 324.932L186.193 317.531L186.507 316.449Z" fill="#003EB0"/>
<path d="M88.4034 426.127L77.3566 432.197C76.794 432.51 76.1665 432.738 75.539 432.835C74.338 433.019 72.2606 433.571 72.2606 435.291C72.2606 435.291 71.9685 437.26 77.335 436.838C82.7015 436.416 99.6125 436.546 99.6125 436.546C99.6125 436.546 101.798 436.049 101.441 431.18L101.095 426.311L88.4034 426.127Z" fill="#130452"/>
<path d="M138.939 424.222C138.939 424.222 138.842 427.09 135.985 431.05C134.406 433.246 132.696 435.345 130.922 437.39C130.446 437.931 129.948 438.374 129.71 439.045C129.548 439.5 129.418 439.954 129.407 440.43C129.396 440.895 129.483 441.382 129.894 441.653C130.5 442.064 131.409 441.847 132.047 441.664C132.231 441.609 132.426 441.555 132.61 441.48C136.959 439.932 149.921 429.372 152.68 427.1C153.026 426.808 153.243 426.386 153.243 425.932C153.253 424.958 153.08 423.227 151.933 421.875C150.235 419.905 147.616 417.741 147.616 417.741L138.939 424.222Z" fill="#130452"/>
<path d="M276.392 148.854C276.392 148.854 283.144 149.189 288.034 149.189C292.925 149.189 300.682 150.195 300.682 150.195C300.682 150.195 302.706 150.195 302.879 152.727C303.052 155.259 303.052 156.265 303.052 156.265C303.052 156.265 303.225 159.295 300.855 159.295C298.497 159.295 283.479 160.983 280.114 160.983C276.749 160.983 274.218 161.653 274.218 159.295C274.207 156.947 274.034 148.681 276.392 148.854Z" fill="#170856"/>
<path d="M281.964 77.5088C281.964 77.5088 286.357 101.799 286.692 108.204C287.028 114.62 287.699 119.51 283.49 122.042C279.27 124.574 272.367 126.933 272.367 126.933L263.766 83.5894V78.5366L281.964 77.5088Z" fill="#FFBF99"/>
<path d="M207.593 76.1567C207.593 76.1567 205.234 87.117 204.564 92.6891C203.893 98.2503 202.367 109.059 202.205 111.569C202.032 114.101 201.696 118.321 206.262 121.523C210.817 124.726 215.708 126.587 215.708 126.587L224.991 76.1567H207.593Z" fill="#FFBF99"/>
<path d="M240.884 41.2523C240.884 41.2523 240.884 46.305 238.709 48.4797C236.534 50.6545 233.656 54.2574 233.656 54.2574C233.656 54.2574 238.709 62.199 248.814 61.117C258.92 60.0351 260.727 52.8076 260.727 52.8076C260.727 52.8076 251.162 51.5525 250.07 42.5182C248.988 33.4946 247.538 33.4946 247.538 33.4946L240.884 41.2523Z" fill="#FFB07E"/>
<path d="M233.484 21.2256C233.484 21.2256 233.841 32.7809 239.262 41.7936C244.683 50.8063 251.174 45.7644 253.706 41.0687C256.238 36.3838 263.087 21.2147 261.648 17.244C260.198 13.2732 240.355 11.4663 240.355 11.4663L233.484 21.2256Z" fill="#FFBF99"/>
<path d="M259.105 27.7068C259.105 27.7068 261.994 25.532 261.994 27.7068C261.994 29.8815 260.544 33.1166 258.748 33.4844C256.941 33.8415 257.298 32.7595 257.666 31.3097C258.034 29.8815 259.105 27.7068 259.105 27.7068Z" fill="#FFBF99"/>
<path d="M234.358 32.2397C235.148 32.5859 236.013 32.7049 236.013 31.5148C236.013 29.34 234.563 26.105 232.767 25.7371C230.96 25.3801 231.317 26.462 231.685 27.9118C231.815 28.4095 232.021 28.983 232.237 29.5348C232.648 30.5843 233.709 31.9475 234.358 32.2397Z" fill="#FFBF99"/>
<path d="M234.025 26.4516L233.668 22.8487C233.668 22.8487 236.914 23.2057 240.528 19.6028C240.528 19.6028 247.571 21.1824 253.165 20.6847C259.116 20.1438 261.702 18.51 261.702 18.51C261.702 18.51 260.706 25.3372 259.722 27.3171C259.722 27.3171 262.589 26.1162 263.671 22.8595C264.753 19.6028 264.547 16.1622 264.547 16.1622C264.547 16.1622 268.518 12.9163 269.6 9.30254C269.6 9.30254 258.769 6.77075 255.513 4.61766C252.256 2.46456 250.46 1.01474 250.46 1.01474C250.46 1.01474 245.407 -1.87409 240.355 2.0967C235.302 6.0783 232.045 8.2314 232.045 15.091C232.034 15.091 227.349 21.5719 234.025 26.4516Z" fill="#170856"/>
<path d="M234.825 50.6118C234.825 50.6118 227.911 49.7679 224.2 50.7849C220.478 51.8128 219.31 51.1203 220.316 53.9875C221.322 56.8547 226.386 70.0005 224.016 78.2775C221.658 86.5436 218.455 128.87 218.455 128.87C218.455 128.87 244.087 129.876 254.041 130.395C263.995 130.915 271.417 129.043 271.417 129.043C271.417 129.043 273.613 110.834 271.417 102.903C269.221 94.9721 266.353 81.4801 266.353 81.4801C266.353 81.4801 264.492 62.9353 267.024 58.3803C269.556 53.8252 271.417 53.6521 268.214 52.4836C265.012 51.2934 261.463 50.2872 258.931 50.2872C256.399 50.2872 255.047 50.2872 253.532 51.8128C252.007 53.3383 248.977 56.3678 244.768 55.697C240.549 55.0262 237.346 52.159 237.346 52.159C237.346 52.159 236.004 50.7741 234.825 50.6118Z" fill="#0083F9"/>
<path d="M222.599 52.0504C222.599 52.0504 220.24 50.8602 216.702 53.9113C212.894 57.1788 210.124 64.2007 208.782 68.5827C207.43 72.9646 206.586 77.3465 206.586 77.3465C206.586 77.3465 211.476 79.8783 216.54 80.0406C221.604 80.2029 224.968 80.5491 224.968 80.5491C224.968 80.5491 227.165 67.3925 226.656 61.485C226.137 55.5884 225.304 53.5543 222.599 52.0504Z" fill="#0064B7"/>
<path d="M265.098 56.9411C265.098 56.9411 267.121 51.3798 271.676 53.9116C276.231 56.4434 279.596 66.062 280.624 69.0915C281.652 72.121 282.983 78.2016 282.983 78.2016C282.983 78.2016 277.584 80.5602 273.029 80.8956C268.474 81.2311 265.271 81.5665 265.271 81.5665C265.271 81.5665 263.41 69.5892 263.746 64.861C264.081 60.1437 265.098 56.9411 265.098 56.9411Z" fill="#0064B7"/>
<path d="M227.902 132.472H262.493L244.651 137.969L227.902 132.472Z" fill="#BC0A28"/>
<path d="M197.141 122.714C197.141 122.714 260.219 142.448 274.057 147.339C274.057 147.339 278.612 148.529 278.785 150.877C278.958 153.236 278.45 156.611 277.941 158.299C277.433 159.987 275.918 161.329 273.386 160.831C270.854 160.322 214.365 149.027 191.915 143.119L185.499 141.096C185.499 141.096 180.771 138.9 181.615 133.176C182.458 127.442 186.678 122.389 189.708 122.054C192.748 121.696 197.141 122.714 197.141 122.714Z" fill="#EE384E"/>
<path d="M191.395 150.715C191.395 150.715 199.315 149.362 204.043 149.189C208.771 149.016 215.003 148.518 216.02 149.189C217.026 149.86 217.881 158.97 217.881 158.97C217.881 158.97 218.725 161.502 212.482 160.993C206.25 160.485 191.903 159.987 191.903 159.987C191.903 159.987 188.701 159.814 188.538 156.958C188.376 154.101 188.874 152.738 188.874 152.738C188.874 152.738 189.382 151.05 191.395 150.715Z" fill="#170856"/>
<path d="M229.003 142.622C229.003 142.622 267.283 130.98 280.948 126.945C294.602 122.887 302.208 119.187 306.579 125.592C310.972 132.008 310.637 139.084 305.573 141.107C300.51 143.131 260.704 152.414 244.172 155.779C227.64 159.144 216.853 161.34 215.338 160.669C213.823 159.998 212.135 155.108 212.471 152.403C212.806 149.709 212.979 148.703 216.171 147.339C219.384 145.987 229.003 142.622 229.003 142.622Z" fill="#DE051F"/>
<path d="M224.612 86.9663H270.649C270.649 86.9663 273.181 86.6309 273.181 89.9958C273.181 93.3607 273.181 129.801 273.181 129.801C273.181 129.801 273.354 132.495 271.32 132.495C269.297 132.495 217.179 132.495 217.179 132.495C217.179 132.495 214.983 133.166 214.983 129.466C214.983 125.765 214.983 88.9896 214.983 88.9896C214.983 88.9896 214.81 86.9663 217.514 86.9663C220.219 86.9663 224.612 86.9663 224.612 86.9663Z" fill="#0064B7"/>
<path d="M243.779 106.812L241.176 110.064L244.428 112.667L247.031 109.415L243.779 106.812Z" fill="#569ED4"/>
<path d="M177.434 191.602C179.847 191.602 179.847 187.859 177.434 187.859C175.032 187.859 175.022 191.602 177.434 191.602Z" fill="#FFB07E"/>
</svg>
