<svg width="783" height="100" viewBox="0 0 783 100" fill="none" xmlns="http://www.w3.org/2000/svg">
<path d="M408.441 7.54102H417.649L399.329 76.0645H390.313L375.542 30.8926H375.159L360.388 76.0645H351.372L332.285 7.54102H341.493L355.976 61.4219H356.36L371.226 16.7285H379.475L394.341 61.4219H394.725L408.441 7.54102Z" fill="#5F6368"/>
<mask id="mask0_1734_13303" style="mask-type:luminance" maskUnits="userSpaceOnUse" x="0" y="0" width="783" height="100">
<path d="M782.188 0H0V100H782.188V0Z" fill="white"/>
</mask>
<g mask="url(#mask0_1734_13303)">
<path d="M416.814 52.6172C416.814 45.4089 419.084 39.4434 423.624 34.7207C428.228 29.9994 434.015 27.6387 440.985 27.6387C447.955 27.6387 453.709 29.9994 458.249 34.7207C462.853 39.4434 465.155 45.4089 465.155 52.6172C465.155 59.8906 462.853 65.8561 458.249 70.5137C453.708 75.2363 447.953 77.597 440.985 77.5957C434.016 77.5944 428.23 75.2318 423.624 70.5078C419.083 65.7878 416.813 59.8223 416.814 52.6113M425.639 52.6113C425.639 57.653 427.109 61.7363 430.051 64.8613C432.992 67.9863 436.637 69.5488 440.985 69.5488C445.333 69.5488 448.978 67.9863 451.919 64.8613C454.86 61.7363 456.331 57.653 456.331 52.6113C456.331 47.6348 454.86 43.5833 451.919 40.457C448.918 37.2682 445.273 35.6732 440.985 35.6719C436.697 35.6706 433.051 37.2676 430.047 40.4629C427.104 43.5879 425.633 47.6393 425.635 52.6172" fill="#5F6368"/>
<path d="M480.241 76.0645H471.417V29.1699H479.857V36.8262H480.249C481.144 34.3379 482.983 32.2161 485.765 30.4609C488.547 28.7057 491.28 27.8288 493.965 27.8301C496.521 27.8301 498.695 28.2129 500.487 28.9785L497.793 37.5C496.705 37.0547 494.979 36.8314 492.614 36.8301C489.289 36.8301 486.396 38.1699 483.935 40.8496C481.474 43.5293 480.242 46.6543 480.241 50.2246V76.0645Z" fill="#5F6368"/>
<path d="M545.902 76.0645H535.256L520.581 53.957L513.388 61.0391V76.0645H504.563V7.54102H513.388V49.7461L533.721 29.1699H545.039V29.5527L526.72 47.7363L545.902 75.6816V76.0645Z" fill="#5F6368"/>
<path d="M584.085 63.0488C584.085 67.1335 582.294 70.5788 578.714 73.3848C575.133 76.1908 570.625 77.5944 565.19 77.5957C560.458 77.5957 556.302 76.3672 552.721 73.9102C549.214 71.5471 546.532 68.152 545.048 64.1973L552.913 60.8477C554.064 63.6563 555.743 65.8412 557.949 67.4024C560.052 68.9325 562.589 69.7535 565.192 69.7461C568.007 69.7461 570.355 69.14 572.238 67.9277C574.122 66.7155 575.064 65.28 575.067 63.6211C575.067 60.6263 572.765 58.4251 568.161 57.0176L560.104 55.0078C550.963 52.7109 546.392 48.3073 546.391 41.7969C546.391 37.5234 548.133 34.0938 551.619 31.5078C555.104 28.9219 559.564 27.6302 564.998 27.6328C569.156 27.6328 572.912 28.6217 576.269 30.5996C579.625 32.5775 581.974 35.2253 583.316 38.543L575.453 41.7969C574.551 39.8118 573.017 38.1797 571.089 37.1543C569.017 36.0242 566.688 35.4476 564.327 35.4805C562.141 35.4479 559.993 36.0461 558.141 37.2031C556.314 38.3516 555.401 39.7552 555.401 41.4141C555.401 44.0938 557.926 46.0078 562.978 47.1563L570.076 48.9746C579.411 51.2715 584.079 55.959 584.079 63.0371" fill="#5F6368"/>
<path d="M614.728 77.5957C611.276 77.5957 608.127 76.862 605.282 75.3945C602.437 73.9271 600.247 71.9811 598.711 69.5566H598.319L598.711 76.0645V96.7363H589.887V29.1699H598.327V35.6777H598.719C600.253 33.2546 602.444 31.3086 605.29 29.8398C608.136 28.3711 611.285 27.6374 614.736 27.6387C620.937 27.6387 626.181 30.0632 630.466 34.9121C634.878 39.8262 637.084 45.7279 637.084 52.6172C637.084 59.5729 634.878 65.4746 630.466 70.3223C626.182 75.1712 620.939 77.5957 614.736 77.5957M613.298 69.5566C617.518 69.5566 621.067 67.9616 623.944 64.7715C626.815 61.6465 628.25 57.5951 628.25 52.6172C628.25 47.7057 626.815 43.6543 623.944 40.4629C621.073 37.2715 617.524 35.6764 613.298 35.6777C609.013 35.6777 605.433 37.2728 602.555 40.4629C599.74 43.6543 598.334 47.7057 598.335 52.6172C598.335 57.5938 599.742 61.6771 602.555 64.8672C605.426 67.9922 609.007 69.5547 613.298 69.5547" fill="#5F6368"/>
<path d="M661.246 27.6387C667.771 27.6387 672.918 29.377 676.688 32.8535C680.458 36.3301 682.345 41.0996 682.347 47.1621V76.0684H673.907V69.5566H673.515C669.871 74.916 665.011 77.5957 658.937 77.5957C653.757 77.5957 649.425 76.0645 645.939 73.002C642.454 69.9395 640.712 66.1113 640.713 61.5176C640.713 56.6699 642.551 52.8099 646.227 49.9375C649.903 47.0651 654.811 45.6296 660.951 45.6309C666.193 45.6309 670.509 46.5879 673.899 48.502V46.4844C673.899 43.4219 672.684 40.8216 670.254 38.6836C667.915 36.5809 664.866 35.4364 661.718 35.4785C656.793 35.4785 652.893 37.5521 650.017 41.6992L642.248 36.8164C646.53 30.6966 652.859 27.6367 661.235 27.6367M649.833 61.7188C649.833 64.0156 650.807 65.9297 652.757 67.4609C654.707 68.9922 656.99 69.7578 659.608 69.7578C663.315 69.7578 666.624 68.3861 669.534 65.6426C672.444 62.8991 673.899 59.6771 673.899 55.9766C671.148 53.8086 667.312 52.724 662.389 52.7227C658.807 52.7227 655.818 53.584 653.42 55.3066C651.023 57.0293 649.827 59.1667 649.833 61.7188Z" fill="#5F6368"/>
<path d="M712.263 77.5957C705.292 77.5957 699.505 75.235 694.903 70.5137C690.361 65.666 688.091 59.7005 688.093 52.6172C688.093 45.4089 690.363 39.4434 694.903 34.7207C699.507 29.9994 705.293 27.6387 712.263 27.6387C717.059 27.6387 721.247 28.8346 724.828 31.2266C728.409 33.6185 731.094 36.9206 732.885 41.1328L724.836 44.4824C722.342 38.6126 717.962 35.6777 711.695 35.6777C707.667 35.6777 704.182 37.3053 701.241 40.5605C698.363 43.8158 696.925 47.8353 696.925 52.6191C696.925 57.403 698.363 61.4225 701.241 64.6777C704.181 67.9329 707.666 69.5606 711.695 69.5606C718.154 69.5606 722.694 66.6257 725.315 60.7559L733.18 64.1055C731.454 68.3164 728.752 71.6178 725.074 74.0098C721.397 76.4017 717.129 77.5983 712.271 77.5996" fill="#5F6368"/>
<path d="M759.748 77.5957C752.842 77.5957 747.151 75.235 742.675 70.5137C738.199 65.7923 735.961 59.8268 735.961 52.6172C735.961 45.4727 738.135 39.5228 742.483 34.7676C746.831 30.0124 752.394 27.6361 759.172 27.6387C766.141 27.6387 771.687 29.8874 775.81 34.3848C779.934 38.8822 781.994 45.1829 781.992 53.2871L781.896 54.2441H744.977C745.107 58.8379 746.642 62.5384 749.581 65.3457C752.519 68.153 756.036 69.5566 760.131 69.5566C765.757 69.5566 770.169 66.7494 773.367 61.1348L781.232 64.9629C779.226 68.8096 776.187 72.0237 772.455 74.2461C768.714 76.4779 764.478 77.5944 759.748 77.5957ZM745.654 46.9707H772.596C772.335 43.7155 771.008 41.0195 768.615 38.8828C766.221 36.7461 763.009 35.6777 758.976 35.6777C755.65 35.6777 752.788 36.6986 750.391 38.7402C747.994 40.7819 746.412 43.5254 745.644 46.9707" fill="#5F6368"/>
</g>
<mask id="mask1_1734_13303" style="mask-type:luminance" maskUnits="userSpaceOnUse" x="0" y="0" width="783" height="100">
<path d="M782.188 0H0V100H782.188V0Z" fill="white"/>
</mask>
<g mask="url(#mask1_1734_13303)">
<path d="M39.6183 46.0117V35.4141H75.1652C75.5599 37.5574 75.7519 39.733 75.7387 41.9121C75.7387 49.8574 73.5601 59.6973 66.5388 66.6973C59.7133 73.793 50.9929 77.5781 39.4285 77.5781C18.0083 77.5781 0 60.1699 0 38.7891C0 17.4082 18.0083 0 39.4324 0C51.2846 0 59.7172 4.63672 66.069 10.6914L58.5799 18.1641C54.025 13.9082 47.8689 10.5957 39.4324 10.5957C23.7925 10.5957 11.5645 23.1777 11.5645 38.7891C11.5645 54.4004 23.7925 66.9922 39.4324 66.9922C49.5758 66.9922 55.358 62.9238 59.0536 59.2344C62.0661 56.2285 64.0509 51.916 64.8202 46.0215L39.6183 46.0117Z" fill="#4285F4"/>
<path d="M129.902 52.6016C129.902 66.9922 118.62 77.5781 104.785 77.5781C90.9496 77.5781 79.667 66.9922 79.667 52.6016C79.667 38.127 90.9477 27.625 104.789 27.625C118.63 27.625 129.906 38.127 129.906 52.6016M118.911 52.6016C118.911 43.6172 112.372 37.4648 104.789 37.4648C97.2055 37.4648 90.6638 43.6133 90.6638 52.6016C90.6638 61.4941 97.2036 67.7383 104.789 67.7383C112.374 67.7383 118.911 61.4883 118.911 52.6016Z" fill="#EA4335"/>
<path d="M184.701 52.6016C184.701 66.9922 173.428 77.5781 159.584 77.5781C145.739 77.5781 134.464 66.9922 134.464 52.6016C134.464 38.127 145.743 27.625 159.584 27.625C173.424 27.625 184.701 38.127 184.701 52.6016ZM173.706 52.6016C173.706 43.6172 167.167 37.4648 159.584 37.4648C152 37.4648 145.459 43.6133 145.459 52.6016C145.459 61.4941 151.999 67.7383 159.584 67.7383C167.169 67.7383 173.706 61.4883 173.706 52.6016Z" fill="#FBBC04"/>
<path d="M237.227 29.1387V73.9824C237.227 92.4316 226.326 100 213.434 100C201.298 100 194.001 91.8633 191.252 85.2422L200.832 81.2676C202.537 85.3359 206.704 90.1602 213.44 90.1602C221.687 90.1602 226.805 85.0508 226.805 75.4961V71.9023H226.425C223.961 74.9297 219.222 77.5781 213.25 77.5781C200.736 77.5781 189.268 66.6973 189.268 52.6973C189.268 38.5996 200.736 27.625 213.25 27.625C219.222 27.625 223.961 30.2734 226.425 33.207H226.805V29.1387H237.227ZM227.557 52.6973C227.557 43.8984 221.685 37.4629 214.192 37.4629C206.608 37.4629 200.257 43.8965 200.257 52.6973C200.257 61.4004 206.608 67.7363 214.192 67.7363C221.681 67.7363 227.557 61.3984 227.557 52.6973Z" fill="#4285F4"/>
<path d="M255.849 2.89453H244.854V76.0645H255.849V2.89453Z" fill="#34A853"/>
<path d="M298.312 60.832L306.843 66.5078C304.102 70.5762 297.459 77.5781 285.988 77.5781C271.769 77.5781 261.152 66.6035 261.152 52.6016C261.152 37.7578 271.865 27.625 284.755 27.625C297.743 27.625 304.092 37.9375 306.179 43.5195L307.316 46.3574L273.844 60.1699C276.405 65.1836 280.386 67.7383 285.98 67.7383C291.575 67.7383 295.46 65.0039 298.312 60.832ZM272.053 51.8477L294.425 42.5781C293.192 39.4531 289.496 37.2813 285.135 37.2813C279.542 37.2813 271.769 42.2012 272.053 51.8516" fill="#EA4335"/>
</g>
</svg>
