<svg width="168" height="56" viewBox="0 0 168 56" fill="none" xmlns="http://www.w3.org/2000/svg">
<path d="M22.0488 26.0377V20.2597H41.4292C41.6444 21.4283 41.7491 22.6144 41.7419 23.8025C41.7419 28.1344 40.5541 33.4992 36.7261 37.3156C33.0047 41.1843 28.2503 43.248 21.9452 43.248C10.2668 43.248 0.448486 33.7569 0.448486 22.0998C0.448486 10.4428 10.2668 0.95166 21.9474 0.95166C28.4093 0.95166 33.0068 3.47964 36.4699 6.78071L32.3868 10.8549C29.9034 8.53454 26.547 6.72853 21.9474 6.72853C13.4204 6.72853 6.75355 13.5884 6.75355 22.0998C6.75355 30.6112 13.4204 37.4764 21.9474 37.4764C27.4776 37.4764 30.6302 35.2583 32.6451 33.2468C34.2875 31.608 35.3696 29.2567 35.7891 26.043L22.0488 26.0377Z" fill="#4285F4"/>
<path d="M71.2727 29.6306C71.2727 37.4765 65.1213 43.2481 57.5783 43.2481C50.0352 43.2481 43.8839 37.4765 43.8839 29.6306C43.8839 21.7389 50.0342 16.0132 57.5804 16.0132C65.1266 16.0132 71.2748 21.7389 71.2748 29.6306M65.2803 29.6306C65.2803 24.7323 61.7148 21.378 57.5804 21.378C53.446 21.378 49.8794 24.7301 49.8794 29.6306C49.8794 34.479 53.445 37.8833 57.5804 37.8833C61.7158 37.8833 65.2803 34.4758 65.2803 29.6306Z" fill="#EA4335"/>
<path d="M101.149 29.6306C101.149 37.4765 95.003 43.2481 87.4547 43.2481C79.9063 43.2481 73.7592 37.4765 73.7592 29.6306C73.7592 21.7389 79.9085 16.0132 87.4547 16.0132C95.0009 16.0132 101.149 21.7389 101.149 29.6306ZM95.1546 29.6306C95.1546 24.7323 91.5891 21.378 87.4547 21.378C83.3203 21.378 79.7537 24.7301 79.7537 29.6306C79.7537 34.479 83.3193 37.8833 87.4547 37.8833C91.5901 37.8833 95.1546 34.4758 95.1546 29.6306Z" fill="#FBBC04"/>
<path d="M129.787 16.8385V41.2877C129.787 51.3464 123.843 55.4727 116.815 55.4727C110.198 55.4727 106.219 51.0365 104.721 47.4266L109.944 45.2596C110.874 47.4777 113.146 50.1079 116.818 50.1079C121.314 50.1079 124.105 47.3222 124.105 42.1129V40.1536H123.898C122.554 41.8041 119.97 43.2481 116.714 43.2481C109.892 43.2481 103.639 37.3157 103.639 29.6828C103.639 21.9966 109.892 16.0132 116.714 16.0132C119.97 16.0132 122.554 17.4571 123.898 19.0566H124.105V16.8385H129.787ZM124.515 29.6828C124.515 24.8856 121.313 21.3769 117.228 21.3769C113.093 21.3769 109.63 24.8845 109.63 29.6828C109.63 34.4278 113.093 37.8822 117.228 37.8822C121.311 37.8822 124.515 34.4268 124.515 29.6828Z" fill="#4285F4"/>
<path d="M139.94 2.52979H133.945V42.4227H139.94V2.52979Z" fill="#34A853"/>
<path d="M163.091 34.118L167.742 37.2124C166.248 39.4306 162.626 43.2481 156.372 43.2481C148.62 43.2481 142.831 37.2646 142.831 29.6306C142.831 21.5377 148.672 16.0132 155.699 16.0132C162.78 16.0132 166.242 21.6357 167.38 24.679L168 26.2263L149.751 33.757C151.147 36.4905 153.317 37.8833 156.367 37.8833C159.418 37.8833 161.536 36.3925 163.091 34.118ZM148.774 29.2196L160.971 24.1658C160.299 22.462 158.284 21.2779 155.906 21.2779C152.857 21.2779 148.62 23.9602 148.774 29.2217" fill="#EA4335"/>
</svg>
