<svg width="480" height="365" viewBox="0 0 480 365" fill="none" xmlns="http://www.w3.org/2000/svg">
<path d="M143.756 287.751C143.756 287.751 144.125 291.262 145.966 295.697L152.042 298.469L147.255 299.208C152.594 312.513 165.483 331.546 195.494 327.665C195.494 328.404 210.224 290.523 143.756 287.751Z" fill="#FABD41"/>
<path d="M151.674 308.632L176.346 311.219L143.756 287.751" stroke="white" stroke-width="0.93674" stroke-miterlimit="10"/>
<path d="M164.746 290.523L176.346 311.219" stroke="white" stroke-width="0.93674" stroke-miterlimit="10"/>
<path d="M162.905 265.577C162.905 265.577 171.007 260.034 172.664 264.838C174.321 269.643 176.53 269.458 178.924 269.088C181.317 268.719 185.184 266.501 186.657 271.675C188.13 277.034 186.657 280.175 189.05 281.838C191.444 283.501 198.809 293.295 193.838 294.958C189.05 296.621 183.343 292.556 181.317 290.339C179.292 287.936 175.057 287.936 171.927 288.675C168.429 289.415 164.194 287.936 165.667 283.871C167.14 279.806 164.931 275.74 161.985 275.001C158.855 273.893 157.197 269.273 162.905 265.577Z" fill="#1C4599"/>
<path d="M167.14 270.197L195.126 298.469" stroke="white" stroke-width="0.93674" stroke-miterlimit="10" stroke-linecap="round" stroke-linejoin="round"/>
<path d="M180.765 272.599L178.555 281.654L168.797 283.132" stroke="white" stroke-width="0.93674" stroke-miterlimit="10" stroke-linecap="round" stroke-linejoin="round"/>
<path d="M155.54 278.143C155.54 278.143 155.54 283.317 159.038 281.284C162.537 279.251 164.93 279.066 166.403 282.947C167.876 286.827 170.27 288.306 172.663 287.567C175.057 286.827 178.924 284.98 180.581 290.154C182.238 295.512 186.473 305.491 180.765 308.078C175.241 310.665 166.587 306.969 165.114 303.273C163.642 299.393 165.114 295.882 160.88 294.588C156.645 293.295 155.724 297.73 152.042 294.773C148.359 291.817 143.941 289.23 146.702 282.947C149.464 277.219 154.988 275.371 155.54 278.143Z" stroke="#ED3B4E" stroke-width="0.93674" stroke-miterlimit="10"/>
<path d="M154.62 283.686C154.62 283.686 178.924 302.719 186.473 305.86" stroke="#ED3B4E" stroke-width="0.93674" stroke-miterlimit="10"/>
<path d="M174.321 290.893L174.873 298.839L168.613 301.426" stroke="#ED3B4E" stroke-width="0.93674" stroke-miterlimit="10"/>
<path d="M161.985 283.132L161.616 289.23L156.645 292.002" stroke="#ED3B4E" stroke-width="0.93674" stroke-miterlimit="10"/>
<path d="M173.4 206.261C203.296 206.261 227.532 181.938 227.532 151.934C227.532 121.93 203.296 97.6069 173.4 97.6069C143.504 97.6069 119.269 121.93 119.269 151.934C119.269 181.938 143.504 206.261 173.4 206.261Z" stroke="#DD1F26" stroke-width="0.93674" stroke-miterlimit="10" stroke-dasharray="5.62 5.62"/>
<path d="M130.5 126.249C134.262 126.249 137.312 123.188 137.312 119.412C137.312 115.636 134.262 112.575 130.5 112.575C126.738 112.575 123.688 115.636 123.688 119.412C123.688 123.188 126.738 126.249 130.5 126.249Z" fill="#24499F"/>
<path d="M132.525 116.64L127.186 118.488L131.052 121.629L132.525 116.64Z" fill="white"/>
<path d="M261.594 50.4866C261.594 50.4866 255.15 55.8454 261.226 58.2476C267.486 60.6498 269.88 63.6064 266.75 69.5195C263.252 75.4326 264.356 80.0523 267.486 82.2697C270.985 84.4871 277.429 87.8133 272.274 95.3895C267.118 103.15 258.649 118.672 249.627 114.422C240.421 110.172 236.002 95.0199 239.684 89.1068C243.366 83.1936 249.442 81.5306 246.312 74.6935C243.551 67.8564 237.106 71.1826 236.922 63.2368C236.738 55.1062 235.633 46.7909 246.865 44.2039C256.439 41.8017 264.172 46.6061 261.594 50.4866Z" stroke="#1C4599" stroke-width="0.93674" stroke-miterlimit="10"/>
<path d="M252.757 55.6611C252.757 55.6611 253.862 106.847 256.807 119.597" stroke="#1C4599" stroke-width="0.93674" stroke-miterlimit="10"/>
<path d="M264.172 87.9985L254.414 97.2378L244.655 91.879" stroke="#1C4599" stroke-width="0.93674" stroke-miterlimit="10"/>
<path d="M261.41 64.1611L253.493 69.8895L244.471 66.3786" stroke="#1C4599" stroke-width="0.93674" stroke-miterlimit="10"/>
<path d="M283.136 51.0412C283.136 51.0412 298.602 55.8457 294.368 62.8675C289.765 69.7046 292.342 72.6611 295.472 75.2481C298.234 77.8351 305.415 80.7917 300.075 87.8136C294.736 94.8354 289.396 96.3137 289.765 101.118C290.133 105.923 285.162 125.325 277.981 120.89C270.616 116.64 270.064 104.999 271.168 99.8246C272.273 95.0202 267.67 89.4766 263.435 85.7809C259.201 82.27 256.807 75.2481 263.251 73.0307C269.88 70.6285 273.01 63.7914 270.984 58.987C268.038 54.5522 272.641 48.0847 283.136 51.0412Z" fill="#FABD41"/>
<path d="M281.663 61.5742L273.93 127.173" stroke="white" stroke-width="0.93674" stroke-miterlimit="10" stroke-linecap="round" stroke-linejoin="round"/>
<path d="M292.527 81.716L278.349 88.1834L266.197 77.8354" stroke="white" stroke-width="0.93674" stroke-miterlimit="10" stroke-linecap="round" stroke-linejoin="round"/>
<path d="M210.593 60.0956C210.593 60.0956 204.333 55.476 208.383 50.1172C212.25 44.7584 222.192 44.7584 224.218 49.9324C226.427 54.7368 223.481 58.4325 227.9 59.1717C232.135 59.9108 243.735 63.7913 241.525 69.3349C239.132 74.8785 232.319 75.248 235.265 82.6395C238.027 90.0309 252.388 91.3244 245.023 101.672C237.659 111.836 220.535 125.879 211.697 108.325C203.228 90.77 222.008 94.281 211.882 83.009C201.755 71.7371 210.224 71.3675 212.986 67.1175C215.564 62.313 210.593 60.0956 210.593 60.0956Z" fill="#ED3B4E"/>
<path d="M222.192 66.5635C222.192 66.5635 223.297 86.8899 230.294 103.705C237.29 120.521 241.709 122.738 241.709 122.738" stroke="white" stroke-width="0.93674" stroke-miterlimit="10" stroke-linecap="round" stroke-linejoin="round"/>
<path d="M184.079 95.3896C182.054 95.3896 180.397 96.8679 180.397 99.0853V347.991C180.397 350.024 182.054 351.687 184.079 351.687H317.199C319.224 351.687 320.881 350.209 320.881 347.991V98.7157C320.881 96.6831 319.224 95.02 317.199 95.02H184.079V95.3896Z" fill="#1466B1"/>
<path d="M316.402 111.509H183.827V335.588H316.402V111.509Z" fill="white" stroke="#1466B1" stroke-width="1.87348" stroke-miterlimit="10"/>
<path d="M266.792 103.705C266.792 104.814 266.055 105.368 265.135 105.368H234.203C233.098 105.368 232.545 104.629 232.545 103.705C232.545 102.596 233.282 102.042 234.203 102.042H265.135C265.687 102.042 266.792 102.596 266.792 103.705Z" fill="white"/>
<path d="M250.205 150.447C250.263 151.043 250.302 151.644 250.321 152.25L250.087 152.258C250.097 152.556 250.102 152.856 250.102 153.157C250.102 153.458 250.097 153.758 250.088 154.056L250.322 154.064C250.302 154.671 250.264 155.273 250.207 155.869L249.974 155.846C249.916 156.446 249.84 157.04 249.745 157.627L249.976 157.664C249.879 158.263 249.763 158.856 249.628 159.441L249.4 159.388C249.266 159.974 249.112 160.552 248.941 161.122L249.166 161.19C248.992 161.77 248.799 162.342 248.589 162.905L248.369 162.823C248.159 163.385 247.931 163.939 247.686 164.482L247.9 164.579C247.651 165.13 247.385 165.672 247.102 166.203L246.895 166.093C246.613 166.622 246.315 167.14 246 167.648L246.199 167.771C245.88 168.285 245.545 168.787 245.194 169.276L245.004 169.14C244.655 169.627 244.291 170.102 243.912 170.564L244.093 170.712C243.71 171.179 243.312 171.633 242.899 172.073L242.728 171.913C242.319 172.349 241.896 172.773 241.459 173.181L241.619 173.352C241.179 173.764 240.725 174.162 240.258 174.545L240.109 174.364C239.647 174.743 239.172 175.107 238.685 175.455L238.822 175.646C238.331 175.996 237.829 176.331 237.316 176.65L237.192 176.451C236.685 176.766 236.166 177.064 235.637 177.346L235.747 177.553C235.216 177.836 234.675 178.102 234.123 178.35L234.027 178.137C233.483 178.382 232.93 178.61 232.368 178.82L232.45 179.04C231.886 179.25 231.314 179.443 230.734 179.617L230.667 179.393C230.097 179.564 229.518 179.718 228.933 179.853L228.986 180.081C228.4 180.216 227.808 180.332 227.209 180.429L227.172 180.198C226.584 180.293 225.991 180.37 225.391 180.428L225.414 180.661C224.818 180.718 224.216 180.757 223.609 180.776L223.602 180.542C223.303 180.552 223.003 180.556 222.702 180.556C222.401 180.556 222.101 180.552 221.803 180.542L221.795 180.776C221.188 180.757 220.586 180.718 219.99 180.661L220.013 180.428C219.413 180.371 218.819 180.294 218.232 180.199L218.195 180.43C217.596 180.333 217.003 180.217 216.418 180.083L216.471 179.855C215.885 179.72 215.307 179.567 214.737 179.396L214.669 179.62C214.089 179.446 213.517 179.254 212.954 179.043L213.036 178.824C212.474 178.614 211.92 178.386 211.377 178.141L211.28 178.354C210.729 178.106 210.187 177.84 209.656 177.557L209.766 177.35C209.237 177.068 208.719 176.769 208.211 176.454L208.088 176.653C207.574 176.335 207.072 175.999 206.582 175.649L206.719 175.458C206.232 175.11 205.757 174.745 205.295 174.366L205.147 174.547C204.68 174.164 204.226 173.766 203.786 173.354L203.946 173.183C203.51 172.774 203.086 172.351 202.678 171.914L202.507 172.074C202.094 171.633 201.697 171.179 201.314 170.713L201.495 170.564C201.116 170.102 200.752 169.627 200.404 169.14L200.213 169.276C199.863 168.786 199.528 168.284 199.209 167.77L199.408 167.647C199.093 167.139 198.795 166.621 198.513 166.092L198.306 166.202C198.023 165.671 197.757 165.129 197.508 164.578L197.722 164.482C197.477 163.938 197.249 163.384 197.039 162.822L196.819 162.904C196.609 162.341 196.416 161.769 196.242 161.189L196.466 161.122C196.295 160.551 196.141 159.973 196.006 159.388L195.778 159.44C195.643 158.855 195.527 158.263 195.43 157.664L195.661 157.626C195.566 157.039 195.489 156.445 195.431 155.846L195.198 155.868C195.141 155.272 195.102 154.67 195.083 154.064L195.317 154.056C195.307 153.758 195.303 153.458 195.303 153.157C195.303 152.856 195.307 152.556 195.317 152.258L195.083 152.25C195.102 151.644 195.141 151.043 195.199 150.447L195.432 150.469C195.49 149.87 195.568 149.277 195.664 148.69L195.433 148.653C195.53 148.054 195.647 147.462 195.783 146.878L196.011 146.931C196.147 146.346 196.301 145.768 196.473 145.198L196.249 145.131C196.424 144.551 196.618 143.98 196.829 143.417L197.049 143.5C197.26 142.938 197.489 142.386 197.735 141.843L197.521 141.746C197.771 141.196 198.038 140.655 198.322 140.124L198.528 140.235C198.811 139.707 199.11 139.189 199.426 138.682L199.227 138.558C199.546 138.046 199.881 137.544 200.233 137.055L200.423 137.191C200.772 136.705 201.136 136.231 201.515 135.769L201.334 135.62C201.717 135.154 202.115 134.701 202.527 134.261L202.698 134.421C203.107 133.985 203.53 133.562 203.966 133.153L203.806 132.982C204.246 132.57 204.7 132.172 205.166 131.789L205.315 131.97C205.776 131.591 206.25 131.226 206.737 130.877L206.6 130.687C207.09 130.336 207.591 130.001 208.104 129.681L208.227 129.88C208.734 129.565 209.252 129.265 209.78 128.983L209.67 128.776C210.2 128.492 210.741 128.225 211.291 127.976L211.388 128.189C211.931 127.943 212.484 127.714 213.045 127.503L212.963 127.284C213.525 127.072 214.097 126.879 214.676 126.704L214.744 126.928C215.314 126.755 215.891 126.601 216.476 126.466L216.423 126.238C217.008 126.102 217.6 125.985 218.198 125.887L218.236 126.118C218.823 126.022 219.416 125.945 220.015 125.887L219.992 125.654C220.588 125.596 221.189 125.557 221.796 125.537L221.803 125.772C222.102 125.762 222.401 125.757 222.702 125.757C223.003 125.757 223.303 125.762 223.601 125.772L223.608 125.537C224.215 125.557 224.816 125.596 225.412 125.654L225.39 125.887C225.989 125.945 226.582 126.022 227.169 126.118L227.206 125.887C227.805 125.985 228.397 126.102 228.981 126.238L228.928 126.466C229.513 126.601 230.091 126.755 230.661 126.928L230.728 126.704C231.308 126.879 231.879 127.072 232.441 127.284L232.359 127.503C232.92 127.714 233.473 127.943 234.016 128.189L234.113 127.976C234.663 128.225 235.204 128.492 235.735 128.776L235.624 128.983C236.152 129.265 236.67 129.565 237.177 129.88L237.301 129.681C237.813 130.001 238.315 130.336 238.804 130.687L238.668 130.877C239.154 131.226 239.628 131.591 240.09 131.97L240.238 131.789C240.705 132.172 241.158 132.57 241.598 132.982L241.438 133.153C241.874 133.562 242.297 133.985 242.706 134.421L242.877 134.261C243.289 134.701 243.687 135.154 244.07 135.62L243.889 135.769C244.268 136.231 244.633 136.705 244.982 137.191L245.172 137.055C245.523 137.544 245.858 138.046 246.178 138.558L245.979 138.682C246.294 139.189 246.594 139.707 246.876 140.235L247.083 140.124C247.367 140.655 247.634 141.196 247.883 141.746L247.67 141.843C247.916 142.386 248.145 142.938 248.356 143.5L248.575 143.417C248.786 143.98 248.98 144.551 249.155 145.131L248.931 145.198C249.103 145.768 249.258 146.346 249.393 146.931L249.621 146.878C249.757 147.462 249.874 148.054 249.972 148.653L249.741 148.69C249.837 149.277 249.914 149.87 249.972 150.469L250.205 150.447Z" fill="#DCE8F4" stroke="#2A2A2A" stroke-width="0.46837" stroke-dasharray="1.87 1.87"/>
<path d="M300.92 199.994C300.92 201.399 299.429 202.336 298.125 202.336H205.356C203.68 202.336 202.562 201.087 202.562 199.994C202.562 198.589 204.052 197.652 205.356 197.652H298.125C299.616 197.652 300.92 198.745 300.92 199.994Z" fill="#DCE8F4"/>
<path d="M293.426 147.068C293.426 148.192 292.872 148.942 292.388 148.942H257.931C257.308 148.942 256.893 147.943 256.893 147.068C256.893 145.944 257.447 145.195 257.931 145.195H292.388C292.942 145.195 293.426 146.069 293.426 147.068Z" fill="#DCE8F4"/>
<path d="M300.92 157.372C300.92 158.496 300.253 159.245 299.669 159.245H258.144C257.393 159.245 256.893 158.246 256.893 157.372C256.893 156.248 257.56 155.499 258.144 155.499H299.669C300.336 155.499 300.92 156.373 300.92 157.372Z" fill="#DCE8F4"/>
<path d="M269.38 213.604C269.38 214.865 268.368 215.706 267.482 215.706H204.46C203.321 215.706 202.562 214.585 202.562 213.604C202.562 212.342 203.574 211.501 204.46 211.501H267.482C268.494 211.221 269.38 212.342 269.38 213.604Z" fill="#DCE8F4"/>
<path d="M269.38 254.151C269.38 255.399 268.368 256.231 267.482 256.231H204.46C203.321 256.231 202.562 255.122 202.562 254.151C202.562 252.903 203.574 252.071 204.46 252.071H267.482C268.494 251.656 269.38 252.765 269.38 254.151Z" fill="#DCE8F4"/>
<path d="M281.248 264.242C281.248 265.618 280.056 266.535 279.013 266.535H204.797C203.456 266.535 202.562 265.312 202.562 264.242C202.562 262.866 203.754 261.949 204.797 261.949H279.013C280.205 261.49 281.248 262.713 281.248 264.242Z" fill="#DCE8F4"/>
<path d="M281.278 310.066C281.278 310.066 284.776 308.588 284.408 304.707C284.224 300.827 282.199 298.24 286.434 299.164C290.484 300.457 291.957 300.827 294.903 300.273C297.849 299.718 300.243 298.24 298.954 302.305C297.665 306.37 296.376 309.142 299.322 310.066C302.452 310.436 305.582 308.403 305.95 314.316C306.319 320.414 301.716 327.066 293.614 327.436C285.881 327.621 282.199 324.664 282.199 324.664C282.199 324.664 279.989 321.892 283.488 320.969C286.986 320.229 290.116 318.751 288.275 317.273C286.618 315.795 280.91 315.61 280.91 315.61C280.91 315.61 274.466 313.947 281.278 310.066Z" fill="#6B9CD3"/>
<path d="M317.181 310.99C316.813 307.109 317.181 304.522 323.994 303.229C331.359 302.12 335.409 306.74 335.778 310.99C336.146 315.24 329.886 317.088 329.886 317.088C329.886 317.088 325.651 318.381 327.676 322.262C329.886 326.142 331.175 329.838 325.651 330.392C320.127 330.947 315.156 329.653 311.842 327.621C308.712 325.588 305.582 320.229 309.264 317.457C309.264 317.457 310.369 316.718 313.499 316.349C317.55 316.164 317.181 310.99 317.181 310.99Z" fill="#1C4599"/>
<path d="M291.957 310.251C291.957 310.251 297.849 323.925 298.585 332.98" stroke="#88D6F8" stroke-width="0.93674" stroke-miterlimit="10" stroke-linecap="round" stroke-linejoin="round"/>
<path d="M325.098 312.468C325.098 312.468 314.604 327.99 312.026 333.164" stroke="#599FD2" stroke-width="0.93674" stroke-miterlimit="10" stroke-linecap="round" stroke-linejoin="round"/>
<path d="M295.271 331.871H319.391C319.391 331.871 321.969 332.056 321.785 335.752C321.6 339.263 317.55 338.339 315.34 338.339C313.131 338.339 294.903 338.339 294.903 338.339C294.903 338.339 292.141 338.708 292.141 335.567C291.589 331.871 292.878 331.871 295.271 331.871Z" fill="#0256A4"/>
<path d="M294.719 338.338L298.217 359.589H314.604L317.182 343.697L294.719 338.338Z" fill="#0256A4"/>
<path d="M294.719 338.338L317.182 343.697L318.102 338.338H294.719Z" fill="#346BB4"/>
<path d="M305.214 332.795C305.214 332.795 306.503 309.142 313.315 294.359" stroke="#FABD41" stroke-width="0.93674" stroke-miterlimit="10"/>
<path d="M319.023 285.674C319.023 285.674 319.391 293.066 312.579 295.838C312.579 295.838 311.106 289.37 319.023 285.674Z" fill="#FABD41"/>
<path d="M308.344 308.588C308.344 308.588 310.921 302.305 318.839 303.229C319.023 303.044 318.286 309.327 308.344 308.588Z" fill="#FABD41"/>
<path d="M305.766 324.11C305.766 324.11 307.239 317.643 315.156 316.719C315.156 316.719 315.709 323.001 305.766 324.11Z" fill="#FABD41"/>
<path d="M305.582 324.11C305.582 324.11 306.687 317.458 299.322 313.947C299.138 314.316 296.744 319.86 305.582 324.11Z" fill="#FABD41"/>
<path d="M308.344 308.588C308.344 308.588 310.001 302.12 303.188 297.87C303.373 297.686 300.058 303.044 308.344 308.588Z" fill="#FABD41"/>
<path d="M371.336 106.198L361.939 108.843L364.574 118.273L373.971 115.629L371.336 106.198Z" fill="#ED3B4E"/>
<path d="M90.2753 140.182L80.8789 142.827L83.5137 152.257L92.9101 149.613L90.2753 140.182Z" fill="#24499F"/>
<path d="M176.272 45.2106C176.272 45.2106 176.088 45.0259 175.904 45.2106L173.142 45.5802C172.774 45.5802 172.406 45.3954 172.038 45.2106C171.853 43.7324 170.933 42.6236 170.565 41.3301C170.38 41.1454 170.565 40.591 170.749 40.2214L172.958 38.5584C172.958 38.5584 173.142 38.3736 173.142 38.1888C173.142 38.004 173.142 38.004 172.958 37.8192L169.276 34.3083C169.276 34.3083 169.092 34.1235 168.907 34.1235C168.723 34.1235 168.723 34.1235 168.539 34.3083L166.882 36.5257C166.698 36.7105 166.146 36.8953 165.777 36.7105C164.489 35.9714 163.384 35.417 161.911 35.2322C161.543 35.2322 161.174 34.8626 161.543 34.1235L161.911 31.3517C161.911 31.1669 161.911 31.1669 161.911 30.9821C161.911 30.9821 161.727 30.7974 161.543 30.7974H156.94C156.755 30.7974 156.755 30.7974 156.571 30.9821C156.571 30.9821 156.387 31.1669 156.571 31.3517L156.94 34.1235C156.94 34.4931 156.755 34.8626 156.571 35.2322C155.098 35.417 153.994 36.3409 152.705 36.7105C152.521 36.8953 151.968 36.7105 151.6 36.5257L149.943 34.3083C149.943 34.3083 149.759 34.1235 149.575 34.1235C149.391 34.1235 149.391 34.1235 149.207 34.3083L145.892 38.004C145.892 38.004 145.708 38.1888 145.708 38.3736C145.708 38.5584 145.708 38.5584 145.892 38.7431L148.102 40.4062C148.286 40.591 148.47 41.1454 148.286 41.5149C147.549 42.8084 146.997 43.9171 146.813 45.3954C146.813 45.765 146.445 46.1346 145.708 45.765L142.946 45.3954C142.762 45.3954 142.762 45.3954 142.578 45.3954C142.578 45.3954 142.394 45.5802 142.394 45.765V50.3846C142.394 50.5694 142.394 50.5694 142.578 50.7542C142.578 50.7542 142.762 50.939 142.946 50.7542L145.708 50.3846C146.076 50.3846 146.445 50.5694 146.813 50.7542C146.997 52.2325 147.918 53.3412 148.286 54.6347C148.47 54.8195 148.286 55.3738 148.102 55.7434L145.892 57.2217C145.892 57.2217 145.708 57.4065 145.708 57.5913C145.708 57.7761 145.708 57.7761 145.892 57.9608L149.391 61.4718C149.391 61.4718 149.575 61.6566 149.759 61.6566C149.943 61.6566 149.943 61.6566 150.127 61.4718L151.784 59.2543C151.968 59.0696 152.521 58.8848 152.889 59.0696C154.178 59.8087 155.283 60.3631 156.756 60.5478C157.124 60.5478 157.492 60.9174 157.124 61.6566L156.756 64.4283C156.756 64.6131 156.756 64.6131 156.756 64.7979C156.756 64.7979 156.94 64.9827 157.124 64.9827H161.727C161.911 64.9827 161.911 64.9827 162.095 64.7979C162.095 64.7979 162.279 64.6131 162.095 64.4283L161.543 61.8413C161.543 61.4718 161.727 61.1022 161.911 60.7326C163.384 60.5478 164.489 59.6239 165.777 59.2543C165.962 59.0696 166.514 59.2543 166.882 59.4391L168.539 61.6566C168.539 61.6566 168.723 61.8413 168.907 61.8413C169.092 61.8413 169.092 61.8413 169.276 61.6566L172.774 58.1456C172.774 58.1456 172.958 57.9608 172.958 57.7761C172.958 57.5913 172.958 57.5913 172.774 57.4065L170.749 55.5586C170.565 55.3738 170.38 54.8195 170.565 54.4499C171.301 53.1564 171.853 52.0477 172.038 50.5694C172.038 50.1999 172.406 49.8303 173.142 50.1998L175.904 50.5694C176.088 50.5694 176.088 50.5694 176.272 50.5694C176.272 50.5694 176.456 50.3846 176.456 50.1998V45.5802C176.272 45.765 176.272 45.5802 176.272 45.2106ZM175.352 50.0151L172.958 49.8303C171.853 49.8303 170.933 50.1998 170.749 51.3086C170.565 52.6021 170.012 53.7108 169.276 54.8195C168.907 55.9282 169.092 56.8521 169.644 57.2217L171.301 58.5152L168.907 60.9174L167.619 59.2543C167.25 58.5152 165.962 58.1456 165.225 58.8848C164.12 59.6239 163.016 60.1783 161.727 60.3631C160.622 60.5478 160.07 61.6566 160.254 62.5805L160.438 64.9827H156.94L157.124 62.5805C157.124 61.4718 156.755 60.5478 155.651 60.3631C154.362 60.1783 153.257 59.6239 152.152 58.8848C151.048 58.5152 150.127 58.7 149.759 59.2543L148.47 60.9174L146.076 58.5152L147.734 57.2217C148.47 56.8521 148.838 55.5586 148.102 54.8195C147.365 53.7108 146.813 52.6021 146.629 51.3086C146.445 50.1998 145.34 49.6455 144.419 49.8303L142.762 50.0151V46.5041L145.156 46.6889C146.261 46.6889 147.181 46.3194 147.365 45.2106C147.549 43.9171 148.102 42.8084 148.838 41.6997C149.207 40.591 149.022 39.6671 148.47 39.2975L146.813 38.004L149.575 35.6018L150.679 37.2649C151.048 38.004 152.337 38.3736 153.073 37.6344C154.178 36.8953 155.283 36.3409 156.571 36.1561C157.676 35.9714 158.228 34.8626 158.044 33.9387L157.86 31.5365H161.359L161.174 33.9387C161.174 35.0474 161.543 35.9714 162.647 36.1561C163.936 36.3409 165.041 36.8953 166.146 37.6344C167.066 38.1888 167.987 38.004 168.355 37.2649L169.644 35.6018L172.038 38.004L169.828 39.2975C169.092 39.6671 168.723 40.9606 169.46 41.6997C170.196 42.8084 170.749 43.9171 170.933 45.2106C171.117 46.3194 172.222 46.8737 173.142 46.6889L175.536 46.5041V50.0151H175.352Z" stroke="#24499F" stroke-width="0.93674" stroke-miterlimit="10"/>
<path d="M158.781 40.0371C154.178 40.0371 150.68 43.7328 150.68 48.1677C150.68 52.6025 154.362 56.2982 158.781 56.2982C163.384 56.2982 166.882 52.6025 166.882 48.1677C166.882 43.7328 163.568 40.0371 158.781 40.0371ZM158.781 55.1895C154.914 55.1895 151.969 52.0482 151.969 48.3525C151.969 44.6567 155.099 41.5154 158.781 41.5154C162.463 41.5154 165.594 44.6567 165.594 48.3525C165.594 52.0482 162.648 55.1895 158.781 55.1895Z" stroke="#24499F" stroke-width="0.93674" stroke-miterlimit="10"/>
<path d="M336.52 46.0542H322.895C322.71 46.0542 322.526 46.239 322.526 46.4238V51.9673V52.1521L323.999 53.6304H324.183H334.31H334.494L335.967 52.1521V51.9673V46.4238C336.888 46.239 336.888 46.0542 336.52 46.0542ZM335.967 51.5978L334.494 53.0761H324.92L323.447 51.5978V46.7933H335.967V51.5978Z" fill="#24499F"/>
<path d="M337.256 47.5327L322.158 48.2719C321.974 48.2719 321.79 48.4566 321.79 48.6414C321.79 48.8262 321.974 49.011 322.158 49.011L337.256 48.2719C337.44 48.2719 337.624 48.0871 337.624 47.9023C337.808 47.7175 337.624 47.5327 337.256 47.5327Z" fill="#24499F"/>
<path d="M337.256 49.9351L322.158 50.6742C321.974 50.6742 321.79 50.859 321.79 51.0438C321.79 51.2286 321.974 51.4133 322.158 51.4133L337.256 50.6742C337.44 50.6742 337.624 50.4894 337.624 50.3046C337.808 50.1198 337.624 49.9351 337.256 49.9351Z" fill="#24499F"/>
<path d="M329.891 19.2603C322.342 19.2603 316.266 25.3582 316.266 32.9344C316.266 37.554 318.66 41.8041 322.526 44.3911V46.7933C322.526 46.9781 322.71 47.1629 322.894 47.1629H336.519C336.704 47.1629 336.888 46.9781 336.888 46.7933V44.3911C340.754 41.9889 343.148 37.7388 343.148 32.9344C343.148 25.3582 337.256 19.2603 329.891 19.2603ZM336.519 43.4672L336.335 45.8694H323.815V43.652C323.815 43.652 323.815 43.4672 323.631 43.4672C319.764 41.065 317.555 37.1845 317.555 32.7496C317.555 25.9125 323.447 20.1842 330.075 20.1842C336.888 20.1842 342.595 26.0973 342.595 32.7496C342.411 37.1845 340.202 41.065 336.519 43.4672Z" fill="#24499F"/>
<path d="M333.389 53.2612C333.205 53.2612 333.021 53.2612 333.021 53.446C333.021 53.446 332.284 54.9243 329.891 54.9243C327.497 54.9243 326.761 53.6308 326.761 53.446C326.761 53.2612 326.577 53.2612 326.393 53.2612C326.209 53.2612 326.208 53.446 326.208 53.6308C326.208 53.6308 327.313 55.6634 330.075 55.6634C332.837 55.6634 333.942 54.0004 333.942 53.6308C333.757 53.6308 333.757 53.446 333.389 53.2612Z" fill="#24499F"/>
<path d="M312.952 32.1953H305.035C304.851 32.1953 304.667 32.3801 304.667 32.5649C304.667 32.7497 304.851 32.9345 305.035 32.9345H312.952C313.136 32.9345 313.32 32.7497 313.32 32.5649C313.32 32.1953 313.32 32.1953 312.952 32.1953Z" fill="#DD1F26"/>
<path d="M354.748 32.1953H346.831C346.647 32.1953 346.462 32.3801 346.462 32.5649C346.462 32.7497 346.647 32.9345 346.831 32.9345H354.748C354.932 32.9345 355.116 32.7497 355.116 32.5649C354.932 32.1953 354.748 32.1953 354.748 32.1953Z" fill="#DD1F26"/>
<path d="M315.53 41.0649C315.53 40.8801 315.162 40.8801 315.162 41.0649L308.534 44.9454C308.349 44.9454 308.349 45.3149 308.534 45.3149C308.534 45.3149 308.718 45.4997 308.902 45.4997C308.902 45.4997 308.902 45.4997 309.086 45.4997L315.714 41.6192C315.53 41.2496 315.53 41.0649 315.53 41.0649Z" fill="#DD1F26"/>
<path d="M351.618 19.9994C351.618 19.8146 351.249 19.8146 351.249 19.9994L344.621 23.8799C344.437 23.8799 344.437 24.2495 344.621 24.2495C344.621 24.2495 344.805 24.4343 344.989 24.4343C344.989 24.4343 344.989 24.4343 345.173 24.4343L351.802 20.5538C351.802 20.369 351.802 20.1842 351.618 19.9994Z" fill="#DD1F26"/>
<path d="M342.412 10.7603C342.227 10.7603 342.043 10.7603 342.043 10.7603L338.177 17.4125C338.177 17.5973 338.177 17.7821 338.177 17.7821C338.177 17.7821 338.177 17.7821 338.361 17.7821C338.545 17.7821 338.545 17.7821 338.729 17.5973L342.412 10.7603C342.78 11.1298 342.78 10.7603 342.412 10.7603Z" fill="#DD1F26"/>
<path d="M329.892 7.43408C329.708 7.43408 329.523 7.61887 329.523 7.80365V15.7494C329.523 15.9342 329.708 16.119 329.892 16.119C330.076 16.119 330.26 15.9342 330.26 15.7494V7.80365C330.076 7.61887 330.076 7.43408 329.892 7.43408Z" fill="#DD1F26"/>
<path d="M321.606 17.7821L317.739 11.1298C317.739 10.945 317.371 10.945 317.371 11.1298C317.187 11.1298 317.187 11.4994 317.371 11.4994L321.238 18.1517C321.238 18.1517 321.422 18.3364 321.606 18.3364C321.606 18.3364 321.606 18.3364 321.79 18.3364C321.606 18.1517 321.79 17.7821 321.606 17.7821Z" fill="#DD1F26"/>
<path d="M351.617 44.5758L344.989 40.6953C344.805 40.6953 344.621 40.6953 344.621 40.8801C344.621 41.0649 344.621 41.2497 344.621 41.2497L351.249 45.1302C351.249 45.1302 351.249 45.1302 351.433 45.1302C351.433 45.1302 351.617 45.1302 351.801 44.9454C351.801 45.1302 351.801 44.9454 351.617 44.5758Z" fill="#DD1F26"/>
<path d="M315.346 23.88L308.717 19.9995C308.533 19.9995 308.349 19.9995 308.349 19.9995C308.349 20.1843 308.349 20.3691 308.349 20.3691L314.977 24.2496C314.977 24.2496 314.977 24.2496 315.162 24.2496C315.346 24.2496 315.346 24.2496 315.346 23.88C315.53 24.0648 315.53 23.88 315.346 23.88Z" fill="#DD1F26"/>
<path d="M331.18 46.0542V33.304C331.18 33.304 330.996 27.2061 334.31 27.2061C337.624 27.2061 335.967 33.4888 329.707 33.4888" stroke="#24499F" stroke-width="0.93674" stroke-miterlimit="10"/>
<path d="M328.05 46.0542V33.304C328.05 33.304 328.234 27.2061 324.92 27.2061C321.422 27.2061 323.263 33.4888 329.523 33.4888" stroke="#24499F" stroke-width="0.93674" stroke-miterlimit="10"/>
<path d="M136.208 221.968H142.284L148.912 221.598C148.912 221.598 149.649 225.663 145.782 226.218C141.916 226.587 136.024 227.511 135.287 227.326C133.814 226.957 136.208 221.968 136.208 221.968Z" fill="#FBBE9B"/>
<path d="M131.605 192.403C131.605 192.403 137.865 198.685 138.417 202.196C139.522 205.707 137.313 210.696 136.76 212.359C136.392 213.838 136.576 232.871 136.576 232.871H111.72V192.218L131.605 192.403Z" fill="#0064E1"/>
<path d="M146.334 173.369C146.334 173.369 145.966 178.173 144.677 181.315V183.717C144.677 183.902 144.493 184.087 144.309 184.087L142.836 183.902V185.934C142.836 186.119 142.652 186.304 142.468 186.304H141.179C140.995 186.304 140.811 186.489 140.811 186.674L140.995 187.782C140.995 187.967 140.995 188.152 140.626 188.152C139.522 188.337 137.865 188.521 135.471 186.858C133.077 185.195 131.604 186.119 131.604 187.597C131.604 189.076 132.893 193.695 130.868 194.989C129.211 196.098 124.056 195.358 122.951 194.25C121.662 192.956 122.951 190 124.608 188.337C125.897 187.043 127.738 173.184 130.5 171.891C132.893 171.336 146.334 173.369 146.334 173.369Z" fill="#FBBC98"/>
<path d="M117.427 212.174L117.243 220.675C117.243 221.414 117.611 221.968 118.532 221.968C119.453 221.968 120.005 221.968 121.662 221.229C125.529 219.751 134.919 214.577 136.023 213.653C136.023 213.653 136.208 213.653 136.208 213.468C136.392 213.098 137.681 211.251 140.442 211.435C143.941 211.62 144.677 212.544 144.309 213.468C144.125 214.577 143.572 214.577 143.572 214.577L143.941 215.316C143.941 215.316 143.572 216.425 141.915 216.425C140.442 216.425 138.417 215.685 138.049 216.24C137.681 216.609 122.583 226.588 119.084 228.99C118.716 229.175 117.98 229.36 117.427 229.729C115.218 230.099 109.878 231.023 109.326 227.327C108.221 222.707 108.221 212.544 108.221 212.544L117.427 212.174Z" fill="#FBBE9B"/>
<path d="M117.427 196.837C117.795 196.652 118.532 196.837 118.532 197.207V212.729C118.532 213.098 118.348 213.468 117.795 213.468C117.243 213.468 116.323 213.468 114.665 213.468C112.088 213.468 109.878 213.468 108.589 213.468C108.221 213.468 108.221 213.283 108.221 213.098L108.405 202.381C108.405 202.196 108.405 202.011 108.589 202.011L117.427 196.837Z" fill="#0054A3"/>
<path d="M99.5674 203.674C98.2786 198.87 106.932 192.033 106.932 192.033C106.932 192.033 110.983 190.554 111.719 185.75C112.456 180.945 117.059 179.467 119.084 177.804C121.11 176.141 122.583 171.891 122.583 171.891L122.767 170.782C122.767 170.782 126.265 155.63 137.865 159.51C137.865 159.51 143.204 161.543 145.414 165.608C145.414 165.608 153.147 166.902 151.49 173C150.017 179.098 146.334 175.402 146.334 175.402C146.334 175.402 144.861 172.26 143.204 174.293C141.547 176.511 137.681 177.989 136.576 175.771C135.287 173.554 132.893 172.26 132.341 175.402V176.88C132.341 176.88 126.449 184.272 126.081 186.674C125.344 189.261 123.871 192.956 120.925 194.435C118.164 196.098 115.034 202.565 113.561 206.261C111.719 210.142 101.04 211.065 99.5674 203.674Z" fill="#1F1952"/>
<path d="M158.302 204.043L173.4 204.228L154.62 225.294L139.154 224.555L158.302 204.043Z" fill="#1C164F"/>
<path d="M159.223 219.381C159.223 219.381 160.696 222.153 159.407 223.077C157.934 223.816 156.645 224.185 155.908 223.261C155.356 222.522 154.804 220.12 155.724 220.49C156.461 220.49 156.829 220.674 156.829 220.674V219.935C156.829 219.75 156.829 219.566 157.013 219.566C157.75 219.011 159.038 218.457 159.223 219.381Z" fill="#FBBE9B"/>
<path d="M132.525 233.055L136.76 232.87V352.057L127.37 352.426L122.398 274.262L132.525 233.055Z" fill="#DE051F"/>
<path d="M111.72 233.24C111.72 233.24 111.536 237.305 111.352 239.153C111.167 240.262 105.46 249.501 109.879 260.958C109.879 261.142 109.879 261.327 110.063 261.697C110.063 264.284 110.799 279.806 107.669 287.751L90.9141 342.818L97.3583 347.437C97.3583 347.437 119.453 299.763 120.005 297.545C120.558 295.328 135.103 248.577 133.078 235.642L132.71 233.24H111.72Z" fill="#EE384E"/>
<path d="M136.76 352.057C136.76 352.057 142.652 355.198 145.23 355.938C147.255 356.307 147.623 357.97 147.808 358.525C147.808 358.709 147.808 358.894 147.623 358.894H127.37V352.242L136.76 352.057Z" fill="#221D56"/>
<path d="M97.1738 346.883C97.1738 346.883 98.8309 351.688 102.513 354.644C106.196 357.416 102.513 359.449 102.513 359.449L87.4154 350.025C87.2313 349.655 86.3107 347.992 87.4154 346.514C88.5201 344.851 90.9137 342.264 90.9137 342.264L97.1738 346.883Z" fill="#221D56"/>
<path d="M356.048 244.327C356.048 244.327 359.731 298.284 360.467 307.709C361.02 317.133 363.229 349.47 363.229 349.47H372.619L379.063 243.958L356.048 244.327Z" fill="#0064E1"/>
<path d="M391.584 244.882C391.584 244.882 390.479 272.045 390.111 278.882C389.558 285.904 395.082 309.372 397.844 319.905C400.606 330.437 405.577 341.525 405.577 341.525L397.844 346.144C397.844 346.144 381.641 317.687 376.117 300.502C370.41 283.502 366.175 258.371 366.911 243.773L391.584 244.882Z" fill="#0054A3"/>
<path d="M321.249 205.707H318.488C318.488 205.707 316.646 205.707 316.646 207.74C316.646 209.772 316.646 212.914 316.646 212.914C316.646 212.914 316.278 214.022 317.751 214.022C319.224 214.022 320.513 214.022 320.513 214.022C320.513 214.022 321.618 213.838 323.459 215.316C325.3 216.794 339.109 224.555 339.109 224.555C339.109 224.555 343.896 227.327 346.842 224.37C349.788 221.414 356.785 213.838 356.785 213.838L357.153 211.62L351.261 206.077L344.08 215.501C344.08 215.501 343.528 216.24 342.055 215.87C340.582 215.501 326.957 210.696 326.957 210.696C326.957 210.696 324.932 209.772 324.379 208.109C324.379 207.925 324.379 207.925 324.195 207.74C324.011 206.446 322.722 205.522 321.249 205.707Z" fill="#FFBF99"/>
<path d="M374.461 180.391C374.461 180.391 375.381 184.641 377.038 188.891C378.88 193.141 379.616 194.804 379.616 194.804C379.616 194.804 374.461 200.718 369.489 199.978C364.334 199.054 364.334 195.728 364.334 195.728C364.334 195.728 369.121 192.033 369.121 186.674C369.121 181.315 369.121 181.5 369.121 181.5L374.461 180.391Z" fill="#FFBF99"/>
<path d="M363.413 194.989C363.413 194.989 359.179 197.576 357.521 198.685C355.68 200.163 350.525 205.892 350.525 205.892L357.706 212.913L362.677 207.185L363.413 194.989Z" fill="#F59F1D"/>
<path d="M377.591 193.141C377.591 193.141 375.013 196.652 371.699 197.391C368.2 198.315 366.543 195.543 366.543 195.543L365.623 194.25C365.623 194.25 364.702 193.511 363.597 194.435C362.493 195.359 360.651 197.391 358.81 201.087C356.969 204.783 356.601 209.587 356.048 221.044C355.68 232.501 356.048 245.066 356.048 245.066H391.4L391.768 227.327C391.768 227.327 388.086 203.674 384.587 198.87C380.905 194.065 379.8 192.956 379.8 192.956C379.8 192.956 379.064 191.663 377.591 193.141Z" fill="#FCBE42"/>
<path d="M363.781 168.749C363.781 168.749 361.204 172.26 361.204 178.174C361.204 184.087 362.124 188.337 364.702 188.337C367.464 188.337 372.435 186.489 373.171 184.826C374.092 182.978 375.749 182.978 375.749 179.652C375.749 176.141 371.514 168.38 368.016 168.38C364.886 168.749 363.781 168.749 363.781 168.749Z" fill="#FFBF99"/>
<path d="M361.388 168.75C361.388 168.75 358.81 161.728 360.467 160.989C361.94 160.065 365.623 161.913 366.359 162.836C367.28 163.76 368.937 163.76 369.857 163.76C369.857 163.76 378.327 163.76 379.984 165.608C381.825 167.456 381.825 168.195 381.825 169.119C381.825 170.043 381.825 173.369 382.746 175.032C383.114 175.771 383.666 179.282 381.825 182.793C379.984 186.304 378.327 187.043 377.59 187.043C376.67 187.043 376.118 187.043 375.749 186.119C375.749 185.196 375.381 183.902 374.829 182.609C374.46 181.5 373.908 179.098 373.908 179.098C373.908 179.098 372.987 174.848 371.33 173.184C369.857 171.337 369.489 171.337 366.175 170.597C363.045 169.674 362.308 171.337 361.388 168.75Z" fill="#1A1155"/>
<path d="M372.987 175.217C371.699 176.695 373.356 179.282 373.356 179.282C373.356 179.282 375.933 180.206 375.933 177.434C375.749 174.847 374.276 173.369 372.987 175.217Z" fill="#EEBD98"/>
<path d="M390.111 211.435C390.111 211.435 393.057 223.631 392.873 231.577C392.32 239.338 390.111 245.99 388.454 250.794C386.612 255.229 385.692 256.708 385.692 259.479C385.692 262.436 384.219 265.947 382.746 267.425C380.905 269.273 379.8 270.197 379.8 270.197C379.8 270.197 377.59 271.121 377.959 269.273C377.959 269.273 376.486 269.273 377.038 268.349C377.038 268.349 375.197 268.349 376.486 266.871C377.959 265.392 380.168 264.099 380.168 264.099C380.168 264.099 381.641 261.882 379.616 262.99C377.59 264.099 375.933 264.099 377.59 262.251C379.432 260.403 381.273 257.262 383.298 251.534C384.771 245.62 386.797 234.348 384.587 225.294C382.378 216.609 379.616 213.652 379.616 213.652L390.111 211.435Z" fill="#FFBF99"/>
<path d="M397.476 345.774C397.476 345.774 395.634 350.578 393.977 352.98C392.136 355.198 390.479 356.676 390.479 356.676C390.479 356.676 388.27 360.187 390.847 359.263C393.425 358.154 407.05 349.1 407.05 349.1C407.05 349.1 409.075 347.991 408.155 346.328C407.234 344.85 405.209 341.339 405.209 341.339L397.476 345.774Z" fill="#1A1155"/>
<path d="M372.251 355.752C372.251 355.752 372.803 357.231 369.673 357.231C366.911 357.231 351.077 357.231 351.077 357.231C351.077 357.231 348.131 356.492 350.893 355.198C353.655 353.72 362.308 350.024 362.308 350.024C362.308 350.024 363.045 349.839 363.045 348.176H372.435L372.251 355.752Z" fill="#1A1155"/>
<path d="M376.67 203.12C376.67 203.12 375.934 197.207 380.168 196.652C384.403 196.098 387.165 201.642 388.638 205.153C390.111 208.848 390.847 211.62 390.847 211.62C390.847 211.62 381.826 215.316 379.432 215.316C379.248 215.316 377.223 209.403 376.67 203.12Z" fill="#F59F1D"/>
</svg>
