<svg width="480" height="365" viewBox="0 0 480 365" fill="none" xmlns="http://www.w3.org/2000/svg">
<path d="M53.9554 219.176C77.8722 219.176 97.2606 199.788 97.2606 175.871C97.2606 151.954 77.8722 132.566 53.9554 132.566C30.0386 132.566 10.6501 151.954 10.6501 175.871C10.6501 199.788 30.0386 219.176 53.9554 219.176Z" stroke="#2626DB" stroke-width="0.96841" stroke-miterlimit="10" stroke-dasharray="5.81 5.81"/>
<path d="M181.335 284.928C205.251 284.928 224.64 265.539 224.64 241.623C224.64 217.706 205.251 198.317 181.335 198.317C157.418 198.317 138.029 217.706 138.029 241.623C138.029 265.539 157.418 284.928 181.335 284.928Z" stroke="#63C1F1" stroke-width="1.45262" stroke-miterlimit="10" stroke-dasharray="5.81 5.81"/>
<path d="M474.71 102.727C474.71 102.727 470.452 102.593 464.143 103.496L458.921 110.524L459.054 104.399C441.12 108.144 413.892 120.188 411.614 158.784C411.614 158.774 455.874 185.993 474.71 102.727Z" fill="#023EA1"/>
<path d="M447.161 107.887L422.251 146.196L474.708 102.727" stroke="white" stroke-width="0.96841" stroke-miterlimit="10"/>
<path d="M466.829 128.445L421.359 148.421" stroke="white" stroke-width="0.96841" stroke-miterlimit="10"/>
<path d="M463.285 78.6898C463.285 78.6898 463.285 86.0151 458.279 83.0911C453.272 80.1672 449.856 80.0646 447.732 85.4713C445.608 90.8883 442.028 92.8684 438.735 91.8937C435.441 90.9191 429.716 88.1901 427.223 95.7C424.73 103.21 418.831 117.471 426.741 121.185C434.651 124.888 447.137 119.912 449.045 114.249C450.954 108.586 448.902 103.733 455.283 101.897C461.664 100.071 462.547 106.39 468.138 102.143C473.73 97.9058 479.783 94.0995 475.617 85.2661C471.873 77.3561 464.311 74.6784 463.285 78.6898Z" stroke="#EA4E59" stroke-width="0.96841" stroke-miterlimit="10" stroke-linecap="round" stroke-linejoin="round"/>
<path d="M464.496 87.1543C464.496 87.1543 429.552 114.044 419.087 118.795" stroke="#EA4E59" stroke-width="0.96841" stroke-miterlimit="10" stroke-linecap="round" stroke-linejoin="round"/>
<path d="M436.57 97.0225L435.544 108.462L444.439 112.299" stroke="#EA4E59" stroke-width="0.96841" stroke-miterlimit="10" stroke-linecap="round" stroke-linejoin="round"/>
<path d="M454.168 86.2402L454.64 94.612L461.688 98.7157" stroke="#EA4E59" stroke-width="0.96841" stroke-miterlimit="10" stroke-linecap="round" stroke-linejoin="round"/>
<path d="M96.9632 85.1844C96.9632 85.1844 106.34 78.7825 108.177 84.3124C110.013 89.8422 112.65 89.596 115.369 89.1959C118.087 88.7957 122.725 86.2411 124.325 92.1814C125.926 98.1216 124.233 101.866 127.044 103.734C129.855 105.601 138.268 116.784 132.605 118.877C126.941 120.969 120.293 116.25 118.098 113.542C115.902 110.833 110.947 110.782 107.13 111.633C103.314 112.485 98.338 110.761 99.9898 106.124C101.642 101.476 99.2408 96.7981 95.7731 95.844C92.3054 94.8796 90.6742 89.6063 96.9632 85.1844Z" fill="#023EA1"/>
<path d="M101.949 90.542L134.369 123.424" stroke="white" stroke-width="0.96841" stroke-miterlimit="10" stroke-linecap="round" stroke-linejoin="round"/>
<path d="M117.756 93.3232L115.12 103.901L104.06 106.127" stroke="white" stroke-width="0.96841" stroke-miterlimit="10" stroke-linecap="round" stroke-linejoin="round"/>
<path d="M97.036 101.121C97.036 101.121 97.036 107.051 101.088 104.681C105.141 102.311 107.901 102.229 109.624 106.61C111.348 110.991 114.241 112.591 116.909 111.812C119.566 111.032 124.203 108.816 126.224 114.9C128.245 120.984 133.016 132.515 126.614 135.521C120.212 138.517 110.107 134.495 108.568 129.909C107.029 125.323 108.68 121.394 103.52 119.917C98.3595 118.439 97.6413 123.549 93.1169 120.122C88.5924 116.685 83.6987 113.607 87.0638 106.467C90.0903 100.044 96.205 97.8794 97.036 101.121Z" stroke="#FCBE42" stroke-width="0.96841" stroke-miterlimit="10"/>
<path d="M96.0513 107.962C96.0513 107.962 124.326 129.723 132.79 133.57" stroke="#FCBE42" stroke-width="0.96841" stroke-miterlimit="10"/>
<path d="M118.65 115.956L119.481 125.21L112.279 128.308" stroke="#FCBE42" stroke-width="0.96841" stroke-miterlimit="10"/>
<path d="M104.411 107.235L104.031 113.996L98.3267 117.33" stroke="#FCBE42" stroke-width="0.96841" stroke-miterlimit="10"/>
<path d="M307.225 253.309C307.194 253.309 307.112 253.76 307.102 253.781C306.989 254.232 306.897 254.684 306.825 255.135C306.702 255.833 306.599 256.541 306.527 257.249C306.435 258.162 306.374 259.075 306.353 259.988C306.333 261.065 306.363 262.153 306.445 263.23C306.538 264.441 306.712 265.651 306.948 266.841C307.215 268.144 307.564 269.447 308.005 270.709C308.477 272.074 309.062 273.418 309.749 274.7C310.488 276.095 311.349 277.429 312.324 278.691C313.391 280.076 314.581 281.369 315.874 282.559C317.31 283.882 318.88 285.093 320.542 286.18C321.486 286.796 322.419 287.422 323.435 287.925C323.763 288.089 324.112 288.212 324.471 288.325C324.523 288.345 325.159 288.499 325.159 288.54V299.241H223.559L223.508 289.176C223.508 289.176 239.389 286.211 242.724 254.468C242.714 254.468 307.215 253.309 307.225 253.309Z" fill="#0064B7"/>
<path d="M307.501 270.34L242.251 258.008L242.713 254.468L307.635 253.699C307.635 253.699 304.033 257.567 307.501 270.34Z" fill="#023EA1"/>
<path d="M325.148 289.174H223.498L223.477 299.239H325.148V289.174Z" fill="#023EA1"/>
<path d="M417.931 55.1345H129.917C117.852 54.7446 117.852 64.0397 117.852 64.0397V204.923L121.186 258.334C121.186 258.334 400.87 257.564 415.859 257.564C430.838 257.564 430.838 245.95 430.838 245.95V240.533C430.838 240.533 430.838 77.9721 430.838 66.3584C430.838 54.7446 417.931 55.1345 417.931 55.1345ZM130.338 243.632L131.169 69.4567H133.662H417.511L418.342 242.083L130.338 243.632Z" fill="#0064B7"/>
<path d="M130.337 69.0684H420.424L420.013 248.281L129.085 247.891L130.337 69.0684Z" fill="#F2F2F2"/>
<path d="M400.687 93.987H147.956C146.827 93.987 145.904 93.0637 145.904 91.9351V76.7511C145.904 75.6226 146.827 74.6992 147.956 74.6992H400.687C401.816 74.6992 402.739 75.6226 402.739 76.7511V91.9351C402.739 93.0637 401.826 93.987 400.687 93.987Z" fill="white"/>
<path d="M157.793 88.27C159.821 88.27 161.465 86.6261 161.465 84.5982C161.465 82.5702 159.821 80.9263 157.793 80.9263C155.766 80.9263 154.122 82.5702 154.122 84.5982C154.122 86.6261 155.766 88.27 157.793 88.27Z" fill="#EE384E"/>
<path d="M217.826 87.0944H189.058C187.93 87.0944 187.006 86.1711 187.006 85.0425V84.3244C187.006 83.1958 187.93 82.2725 189.058 82.2725H217.826C218.954 82.2725 219.878 83.1958 219.878 84.3244V85.0425C219.878 86.1813 218.954 87.0944 217.826 87.0944Z" fill="#00A9FF"/>
<path d="M260.975 87.0944H233.572C232.443 87.0944 231.52 86.1711 231.52 85.0425V84.3244C231.52 83.1958 232.443 82.2725 233.572 82.2725H260.975C262.103 82.2725 263.027 83.1958 263.027 84.3244V85.0425C263.027 86.1813 262.103 87.0944 260.975 87.0944Z" fill="#DCE8F4"/>
<path d="M305.496 87.0944H278.093C276.965 87.0944 276.042 86.1711 276.042 85.0425V84.3244C276.042 83.1958 276.965 82.2725 278.093 82.2725H305.496C306.625 82.2725 307.548 83.1958 307.548 84.3244V85.0425C307.548 86.1813 306.625 87.0944 305.496 87.0944Z" fill="#DCE8F4"/>
<path d="M349.317 87.0944H321.914C320.786 87.0944 319.862 86.1711 319.862 85.0425V84.3244C319.862 83.1958 320.786 82.2725 321.914 82.2725H349.317C350.446 82.2725 351.369 83.1958 351.369 84.3244V85.0425C351.369 86.1813 350.456 87.0944 349.317 87.0944Z" fill="#DCE8F4"/>
<path d="M394.523 87.0944H367.12C365.991 87.0944 365.068 86.1711 365.068 85.0425V84.3244C365.068 83.1958 365.991 82.2725 367.12 82.2725H394.523C395.651 82.2725 396.575 83.1958 396.575 84.3244V85.0425C396.575 86.1813 395.662 87.0944 394.523 87.0944Z" fill="#DCE8F4"/>
<path d="M400.687 156.663H147.956C146.827 156.663 145.904 155.74 145.904 154.611V101.549C145.904 100.421 146.827 99.4976 147.956 99.4976H400.687C401.816 99.4976 402.739 100.421 402.739 101.549V154.611C402.739 155.74 401.826 156.663 400.687 156.663Z" fill="white"/>
<path d="M154.125 150.06C154.004 150.06 153.886 150.049 153.772 150.026L153.725 150.263C153.457 150.21 153.207 150.103 152.986 149.955L153.121 149.754C152.924 149.622 152.754 149.452 152.622 149.254L152.421 149.389C152.273 149.169 152.166 148.919 152.113 148.651L152.35 148.603C152.327 148.489 152.315 148.371 152.315 148.251V147.767H152.073V146.799H152.315V145.832H152.073V144.864H152.315V143.897H152.073V142.929H152.315V141.962H152.073V140.994H152.315V140.026H152.073V139.059H152.315V138.091H152.073V137.124H152.315V136.156H152.073V135.189H152.315V134.221H152.073V133.253H152.315V132.286H152.073V131.318H152.315V130.351H152.073V129.383H152.315V128.416H152.073V127.448H152.315V126.48H152.073V125.513H152.315V124.545H152.073V123.578H152.315V122.61H152.073V121.643H152.315V120.675H152.073V119.708H152.315V118.74H152.073V117.772H152.315V116.805H152.073V115.837H152.315V114.87H152.073V113.902H152.315V112.935H152.073V111.967H152.315V110.999H152.073V110.032H152.315V109.064H152.073V108.097H152.315V107.613C152.315 107.492 152.327 107.374 152.35 107.26L152.113 107.213C152.166 106.944 152.273 106.694 152.421 106.474L152.622 106.609C152.754 106.412 152.924 106.242 153.121 106.109L152.986 105.908C153.207 105.76 153.457 105.654 153.725 105.6L153.772 105.838C153.886 105.815 154.004 105.803 154.125 105.803H154.611V105.561H155.583V105.803H156.556V105.561H157.528V105.803H158.5V105.561H159.472V105.803H160.444V105.561H161.416V105.803H162.389V105.561H163.361V105.803H164.333V105.561H165.305V105.803H166.277V105.561H167.249V105.803H168.222V105.561H169.194V105.803H170.166V105.561H171.138V105.803H172.11V105.561H173.082V105.803H174.055V105.561H175.027V105.803H175.999V105.561H176.971V105.803H177.943V105.561H178.915V105.803H179.888V105.561H180.86V105.803H181.832V105.561H182.804V105.803H183.776V105.561H184.748V105.803H185.721V105.561H186.693V105.803H187.665V105.561H188.637V105.803H189.609V105.561H190.581V105.803H191.554V105.561H192.526V105.803H193.498V105.561H194.47V105.803H195.442V105.561H196.414V105.803H197.387V105.561H198.359V105.803H199.331V105.561H200.303V105.803H201.275V105.561H202.247V105.803H203.22V105.561H204.192V105.803H205.164V105.561H206.136V105.803H207.108V105.561H208.08V105.803H209.053V105.561H210.025V105.803H210.997V105.561H211.969V105.803H212.941V105.561H213.913V105.803H214.886V105.561H215.858V105.803H216.83V105.561H217.802V105.803H218.774V105.561H219.746V105.803H220.719V105.561H221.691V105.803H222.663V105.561H223.635V105.803H224.607V105.561H225.579V105.803H226.552V105.561H227.524V105.803H228.496V105.561H229.468V105.803H230.44V105.561H231.412V105.803H232.385V105.561H233.357V105.803H234.329V105.561H235.301V105.803H236.273V105.561H237.245V105.803H238.218V105.561H239.19V105.803H240.162V105.561H241.134V105.803H242.106V105.561H243.078V105.803H244.051V105.561H245.023V105.803H245.995V105.561H246.967V105.803H247.939V105.561H248.912V105.803H249.884V105.561H250.856V105.803H251.828V105.561H252.8V105.803H253.772V105.561H254.745V105.803H255.717V105.561H256.689V105.803H257.661V105.561H258.633V105.803H259.605V105.561H260.578V105.803H261.55V105.561H262.522V105.803H263.494V105.561H264.466V105.803H265.438V105.561H266.411V105.803H267.383V105.561H268.355V105.803H269.327V105.561H270.299V105.803H271.271V105.561H272.244V105.803H273.216V105.561H274.188V105.803H274.674C274.795 105.803 274.913 105.815 275.027 105.838L275.074 105.6C275.343 105.654 275.593 105.76 275.813 105.908L275.678 106.109C275.875 106.242 276.045 106.412 276.178 106.609L276.379 106.474C276.526 106.694 276.633 106.944 276.686 107.213L276.449 107.26C276.472 107.374 276.484 107.492 276.484 107.613V108.097H276.726V109.064H276.484V110.032H276.726V110.999H276.484V111.967H276.726V112.935H276.484V113.902H276.726V114.87H276.484V115.837H276.726V116.805H276.484V117.772H276.726V118.74H276.484V119.708H276.726V120.675H276.484V121.643H276.726V122.61H276.484V123.578H276.726V124.545H276.484V125.513H276.726V126.48H276.484V127.448H276.726V128.416H276.484V129.383H276.726V130.351H276.484V131.318H276.726V132.286H276.484V133.253H276.726V134.221H276.484V135.189H276.726V136.156H276.484V137.124H276.726V138.091H276.484V139.059H276.726V140.026H276.484V140.994H276.726V141.962H276.484V142.929H276.726V143.897H276.484V144.864H276.726V145.832H276.484V146.799H276.726V147.767H276.484V148.251C276.484 148.371 276.472 148.489 276.449 148.603L276.686 148.651C276.633 148.919 276.526 149.169 276.379 149.389L276.178 149.254C276.045 149.452 275.875 149.622 275.678 149.754L275.813 149.955C275.592 150.103 275.343 150.21 275.074 150.263L275.027 150.026C274.913 150.049 274.795 150.06 274.674 150.06H274.188V150.303H273.216V150.06H272.244V150.303H271.271V150.06H270.299V150.303H269.327V150.06H268.355V150.303H267.383V150.06H266.411V150.303H265.438V150.06H264.466V150.303H263.494V150.06H262.522V150.303H261.55V150.06H260.578V150.303H259.605V150.06H258.633V150.303H257.661V150.06H256.689V150.303H255.717V150.06H254.745V150.303H253.772V150.06H252.8V150.303H251.828V150.06H250.856V150.303H249.884V150.06H248.911V150.303H247.939V150.06H246.967V150.303H245.995V150.06H245.023V150.303H244.051V150.06H243.078V150.303H242.106V150.06H241.134V150.303H240.162V150.06H239.19V150.303H238.218V150.06H237.245V150.303H236.273V150.06H235.301V150.303H234.329V150.06H233.357V150.303H232.385V150.06H231.412V150.303H230.44V150.06H229.468V150.303H228.496V150.06H227.524V150.303H226.552V150.06H225.579V150.303H224.607V150.06H223.635V150.303H222.663V150.06H221.691V150.303H220.719V150.06H219.746V150.303H218.774V150.06H217.802V150.303H216.83V150.06H215.858V150.303H214.886V150.06H213.913V150.303H212.941V150.06H211.969V150.303H210.997V150.06H210.025V150.303H209.053V150.06H208.08V150.303H207.108V150.06H206.136V150.303H205.164V150.06H204.192V150.303H203.22V150.06H202.247V150.303H201.275V150.06H200.303V150.303H199.331V150.06H198.359V150.303H197.387V150.06H196.414V150.303H195.442V150.06H194.47V150.303H193.498V150.06H192.526V150.303H191.554V150.06H190.581V150.303H189.609V150.06H188.637V150.303H187.665V150.06H186.693V150.303H185.721V150.06H184.748V150.303H183.776V150.06H182.804V150.303H181.832V150.06H180.86V150.303H179.888V150.06H178.915V150.303H177.943V150.06H176.971V150.303H175.999V150.06H175.027V150.303H174.055V150.06H173.082V150.303H172.11V150.06H171.138V150.303H170.166V150.06H169.194V150.303H168.222V150.06H167.249V150.303H166.277V150.06H165.305V150.303H164.333V150.06H163.361V150.303H162.389V150.06H161.416V150.303H160.444V150.06H159.472V150.303H158.5V150.06H157.528V150.303H156.556V150.06H155.583V150.303H154.611V150.06H154.125Z" fill="white" stroke="#2A2A2A" stroke-width="0.484205" stroke-dasharray="0.97 0.97"/>
<path d="M375.061 115.944H313.186C312.058 115.944 311.134 115.02 311.134 113.892V113.173C311.134 112.045 312.058 111.122 313.186 111.122H375.061C376.19 111.122 377.113 112.045 377.113 113.173V113.892C377.113 115.02 376.2 115.944 375.061 115.944Z" fill="#00A9FF"/>
<path d="M354.07 149.542H333.161C330.668 149.542 328.647 147.52 328.647 145.027C328.647 142.534 330.668 140.513 333.161 140.513H354.07C356.563 140.513 358.584 142.534 358.584 145.027C358.584 147.52 356.563 149.542 354.07 149.542Z" fill="#EE384E"/>
<path d="M391.253 125.947H295.543C294.784 125.947 294.168 125.331 294.168 124.572C294.168 123.813 294.784 123.197 295.543 123.197H391.253C392.013 123.197 392.628 123.813 392.628 124.572C392.628 125.331 392.013 125.947 391.253 125.947Z" fill="#DCE8F4"/>
<path d="M376.716 132.584H295.543C294.784 132.584 294.168 131.968 294.168 131.209C294.168 130.45 294.784 129.834 295.543 129.834H376.716C377.475 129.834 378.09 130.45 378.09 131.209C378.09 131.968 377.475 132.584 376.716 132.584Z" fill="#DCE8F4"/>
<path d="M225.24 238.492H147.945C146.817 238.492 145.894 237.568 145.894 236.44V164.911C145.894 163.782 146.817 162.859 147.945 162.859H225.24C226.369 162.859 227.292 163.782 227.292 164.911V236.44C227.292 237.579 226.379 238.492 225.24 238.492Z" fill="white"/>
<path d="M220.802 206.976H153.202C152.074 206.976 151.15 206.053 151.15 204.924V171.109C151.15 169.98 152.074 169.057 153.202 169.057H220.802C221.93 169.057 222.854 169.98 222.854 171.109V204.924C222.854 206.053 221.93 206.976 220.802 206.976Z" fill="#268DFF"/>
<path d="M221.12 217.083H152.884C151.93 217.083 151.15 216.303 151.15 215.349C151.15 214.395 151.93 213.615 152.884 213.615H221.12C222.074 213.615 222.854 214.395 222.854 215.349C222.854 216.303 222.074 217.083 221.12 217.083Z" fill="#DCE8F4"/>
<path d="M221.12 223.738H152.884C151.93 223.738 151.15 222.958 151.15 222.004C151.15 221.05 151.93 220.271 152.884 220.271H221.12C222.074 220.271 222.854 221.05 222.854 222.004C222.854 222.958 222.074 223.738 221.12 223.738Z" fill="#DCE8F4"/>
<path d="M312.684 238.492H235.389C234.261 238.492 233.337 237.568 233.337 236.44V164.911C233.337 163.782 234.261 162.859 235.389 162.859H312.684C313.813 162.859 314.736 163.782 314.736 164.911V236.44C314.736 237.579 313.813 238.492 312.684 238.492Z" fill="white"/>
<path d="M308.243 206.976H240.644C239.515 206.976 238.592 206.053 238.592 204.924V171.109C238.592 169.98 239.515 169.057 240.644 169.057H308.243C309.372 169.057 310.295 169.98 310.295 171.109V204.924C310.295 206.053 309.372 206.976 308.243 206.976Z" fill="#EE384E"/>
<path d="M308.551 217.083H240.326C239.372 217.083 238.592 216.303 238.592 215.349C238.592 214.395 239.372 213.615 240.326 213.615H308.561C309.516 213.615 310.295 214.395 310.295 215.349C310.295 216.303 309.516 217.083 308.551 217.083Z" fill="#DCE8F4"/>
<path d="M308.551 223.738H240.326C239.372 223.738 238.592 222.958 238.592 222.004C238.592 221.05 239.372 220.271 240.326 220.271H308.561C309.516 220.271 310.295 221.05 310.295 222.004C310.295 222.958 309.516 223.738 308.551 223.738Z" fill="#DCE8F4"/>
<path d="M308.551 230.511H240.326C239.372 230.511 238.592 229.731 238.592 228.777C238.592 227.823 239.372 227.043 240.326 227.043H308.561C309.516 227.043 310.295 227.823 310.295 228.777C310.295 229.731 309.516 230.511 308.551 230.511Z" fill="#DCE8F4"/>
<path d="M400.695 238.492H323.4C322.271 238.492 321.348 237.568 321.348 236.44V164.911C321.348 163.782 322.271 162.859 323.4 162.859H400.695C401.823 162.859 402.747 163.782 402.747 164.911V236.44C402.747 237.579 401.834 238.492 400.695 238.492Z" fill="white"/>
<path d="M328.647 206.734C328.526 206.734 328.408 206.722 328.294 206.699L328.247 206.937C327.979 206.883 327.729 206.777 327.508 206.629L327.643 206.428C327.446 206.295 327.276 206.125 327.143 205.928L326.943 206.063C326.795 205.843 326.688 205.593 326.635 205.324L326.872 205.277C326.849 205.163 326.837 205.045 326.837 204.924V204.427H326.595V203.432H326.837V202.438H326.595V201.443H326.837V200.449H326.595V199.454H326.837V198.46H326.595V197.465H326.837V196.47H326.595V195.476H326.837V194.481H326.595V193.487H326.837V192.492H326.595V191.498H326.837V190.503H326.595V189.508H326.837V188.514H326.595V187.519H326.837V186.525H326.595V185.53H326.837V184.536H326.595V183.541H326.837V182.547H326.595V181.552H326.837V180.557H326.595V179.563H326.837V178.568H326.595V177.574H326.837V176.579H326.595V175.585H326.837V174.59H326.595V173.595H326.837V172.601H326.595V171.606H326.837V171.109C326.837 170.988 326.849 170.87 326.872 170.756L326.635 170.709C326.688 170.44 326.795 170.19 326.943 169.97L327.143 170.105C327.276 169.908 327.446 169.738 327.643 169.605L327.508 169.404C327.729 169.257 327.979 169.15 328.247 169.097L328.294 169.334C328.408 169.311 328.526 169.299 328.647 169.299H329.13V169.057H330.096V169.299H331.061V169.057H332.027V169.299H332.993V169.057H333.959V169.299H334.924V169.057H335.89V169.299H336.856V169.057H337.821V169.299H338.787V169.057H339.753V169.299H340.718V169.057H341.684V169.299H342.65V169.057H343.616V169.299H344.581V169.057H345.547V169.299H346.513V169.057H347.478V169.299H348.444V169.057H349.41V169.299H350.376V169.057H351.341V169.299H352.307V169.057H353.273V169.299H354.238V169.057H355.204V169.299H356.17V169.057H357.136V169.299H358.101V169.057H359.067V169.299H360.033V169.057H360.998V169.299H361.964V169.057H362.93V169.299H363.896V169.057H364.861V169.299H365.827V169.057H366.793V169.299H367.758V169.057H368.724V169.299H369.69V169.057H370.655V169.299H371.621V169.057H372.587V169.299H373.553V169.057H374.518V169.299H375.484V169.057H376.45V169.299H377.415V169.057H378.381V169.299H379.347V169.057H380.313V169.299H381.278V169.057H382.244V169.299H383.21V169.057H384.175V169.299H385.141V169.057H386.107V169.299H387.073V169.057H388.038V169.299H389.004V169.057H389.97V169.299H390.935V169.057H391.901V169.299H392.867V169.057H393.833V169.299H394.798V169.057H395.764V169.299H396.247C396.368 169.299 396.485 169.311 396.599 169.334L396.647 169.097C396.915 169.15 397.165 169.257 397.385 169.404L397.25 169.605C397.448 169.738 397.618 169.908 397.75 170.105L397.951 169.97C398.099 170.19 398.206 170.44 398.259 170.709L398.022 170.756C398.045 170.87 398.057 170.988 398.057 171.109V171.606H398.299V172.601H398.057V173.595H398.299V174.59H398.057V175.585H398.299V176.579H398.057V177.574H398.299V178.568H398.057V179.563H398.299V180.557H398.057V181.552H398.299V182.547H398.057V183.541H398.299V184.536H398.057V185.53H398.299V186.525H398.057V187.519H398.299V188.514H398.057V189.508H398.299V190.503H398.057V191.498H398.299V192.492H398.057V193.487H398.299V194.481H398.057V195.476H398.299V196.47H398.057V197.465H398.299V198.46H398.057V199.454H398.299V200.449H398.057V201.443H398.299V202.438H398.057V203.432H398.299V204.427H398.057V204.924C398.057 205.045 398.045 205.163 398.022 205.277L398.259 205.324C398.206 205.593 398.099 205.843 397.951 206.063L397.75 205.928C397.618 206.125 397.448 206.295 397.25 206.428L397.385 206.629C397.165 206.777 396.915 206.883 396.647 206.937L396.599 206.699C396.485 206.722 396.368 206.734 396.247 206.734H395.764V206.976H394.798V206.734H393.832V206.976H392.867V206.734H391.901V206.976H390.935V206.734H389.97V206.976H389.004V206.734H388.038V206.976H387.073V206.734H386.107V206.976H385.141V206.734H384.175V206.976H383.21V206.734H382.244V206.976H381.278V206.734H380.313V206.976H379.347V206.734H378.381V206.976H377.415V206.734H376.45V206.976H375.484V206.734H374.518V206.976H373.553V206.734H372.587V206.976H371.621V206.734H370.655V206.976H369.69V206.734H368.724V206.976H367.758V206.734H366.793V206.976H365.827V206.734H364.861V206.976H363.895V206.734H362.93V206.976H361.964V206.734H360.998V206.976H360.033V206.734H359.067V206.976H358.101V206.734H357.136V206.976H356.17V206.734H355.204V206.976H354.238V206.734H353.273V206.976H352.307V206.734H351.341V206.976H350.376V206.734H349.41V206.976H348.444V206.734H347.478V206.976H346.513V206.734H345.547V206.976H344.581V206.734H343.616V206.976H342.65V206.734H341.684V206.976H340.718V206.734H339.753V206.976H338.787V206.734H337.821V206.976H336.856V206.734H335.89V206.976H334.924V206.734H333.958V206.976H332.993V206.734H332.027V206.976H331.061V206.734H330.096V206.976H329.13V206.734H328.647Z" fill="white" stroke="#2A2A2A" stroke-width="0.484205" stroke-dasharray="0.97 0.97"/>
<path d="M396.565 217.083H328.329C327.375 217.083 326.595 216.303 326.595 215.349C326.595 214.395 327.375 213.615 328.329 213.615H396.565C397.519 213.615 398.299 214.395 398.299 215.349C398.299 216.303 397.519 217.083 396.565 217.083Z" fill="#DCE8F4"/>
<path d="M396.565 223.738H328.329C327.375 223.738 326.595 222.958 326.595 222.004C326.595 221.05 327.375 220.271 328.329 220.271H396.565C397.519 220.271 398.299 221.05 398.299 222.004C398.299 222.958 397.519 223.738 396.565 223.738Z" fill="#DCE8F4"/>
<path d="M396.565 230.511H328.329C327.375 230.511 326.595 229.731 326.595 228.777C326.595 227.823 327.375 227.043 328.329 227.043H396.565C397.519 227.043 398.299 227.823 398.299 228.777C398.299 229.731 397.519 230.511 396.565 230.511Z" fill="#DCE8F4"/>
<path d="M449.789 182.211C450.441 182.211 450.969 181.669 450.969 181C450.969 180.332 450.441 179.79 449.789 179.79C449.138 179.79 448.609 180.332 448.609 181C448.609 181.669 449.138 182.211 449.789 182.211Z" fill="white"/>
<path d="M136.129 325.639H39.3896C36.679 325.639 34.479 323.426 34.479 320.7V180.364C34.479 177.638 36.679 175.425 39.3896 175.425H136.139C138.849 175.425 141.049 177.638 141.049 180.364V320.7C141.04 323.426 138.849 325.639 136.129 325.639Z" fill="#0064B7"/>
<path d="M132.2 322.231H42.6349C39.8032 322.231 37.5051 319.933 37.5051 317.101V183.287C37.5051 180.455 39.8032 178.157 42.6349 178.157H132.21C135.042 178.157 137.34 180.455 137.34 183.287V317.101C137.33 319.943 135.042 322.231 132.2 322.231Z" fill="#E9EEF2"/>
<path d="M131.184 198.604H43.9686C42.8401 198.604 41.9167 197.68 41.9167 196.552V185.728C41.9167 184.6 42.8401 183.676 43.9686 183.676H131.184C132.313 183.676 133.236 184.6 133.236 185.728V196.552C133.236 197.68 132.313 198.604 131.184 198.604Z" fill="white"/>
<path d="M50.7842 195.279C52.8121 195.279 54.4561 193.635 54.4561 191.607C54.4561 189.58 52.8121 187.936 50.7842 187.936C48.7563 187.936 47.1123 189.58 47.1123 191.607C47.1123 193.635 48.7563 195.279 50.7842 195.279Z" fill="#EE384E"/>
<path d="M128.015 188.283H119.807C119.386 188.283 119.038 187.934 119.038 187.513C119.038 187.092 119.386 186.744 119.807 186.744H128.015C128.435 186.744 128.784 187.092 128.784 187.513C128.784 187.934 128.435 188.283 128.015 188.283Z" fill="#D0ECFB"/>
<path d="M128.015 191.157H119.807C119.386 191.157 119.038 190.808 119.038 190.387C119.038 189.966 119.386 189.618 119.807 189.618H128.015C128.435 189.618 128.784 189.966 128.784 190.387C128.784 190.808 128.435 191.157 128.015 191.157Z" fill="#D0ECFB"/>
<path d="M128.015 194.192H119.807C119.386 194.192 119.038 193.843 119.038 193.422C119.038 193.002 119.386 192.653 119.807 192.653H128.015C128.435 192.653 128.784 193.002 128.784 193.422C128.784 193.843 128.435 194.192 128.015 194.192Z" fill="#D0ECFB"/>
<path d="M131.181 231.249H44.0165C42.888 231.249 41.9646 230.326 41.9646 229.198V204.647C41.9646 203.518 42.888 202.595 44.0165 202.595H131.181C132.309 202.595 133.233 203.518 133.233 204.647V229.198C133.233 230.336 132.309 231.249 131.181 231.249Z" fill="white"/>
<path d="M85.7643 227.423H46.5936C45.4651 227.423 44.5417 226.499 44.5417 225.371V207.283C44.5417 206.155 45.4651 205.231 46.5936 205.231H85.7643C86.8928 205.231 87.8162 206.155 87.8162 207.283V225.371C87.8162 226.51 86.8928 227.423 85.7643 227.423Z" fill="#268DFF"/>
<path d="M97.5007 212.136H123.18C123.939 212.136 124.555 211.521 124.555 210.761C124.555 210.002 123.939 209.387 123.18 209.387H97.5007C96.7415 209.387 96.126 210.002 96.126 210.761C96.1362 211.531 96.7518 212.136 97.5007 212.136Z" fill="#00A9FF"/>
<path d="M97.0834 215.819H128.477C128.857 215.819 129.165 215.511 129.165 215.131C129.165 214.752 128.857 214.444 128.477 214.444H97.0834C96.7038 214.444 96.396 214.752 96.396 215.131C96.396 215.511 96.7038 215.819 97.0834 215.819Z" fill="#ECF2F9"/>
<path d="M97.0834 219.585H123.194C123.573 219.585 123.881 219.277 123.881 218.897C123.881 218.518 123.573 218.21 123.194 218.21H97.0834C96.7038 218.21 96.396 218.518 96.396 218.897C96.396 219.287 96.7038 219.585 97.0834 219.585Z" fill="#ECF2F9"/>
<path d="M84.2048 281.697H43.9467C42.8181 281.697 41.8948 280.774 41.8948 279.645V237.284C41.8948 236.155 42.8181 235.232 43.9467 235.232H84.2048C85.3334 235.232 86.2567 236.155 86.2567 237.284V279.645C86.2567 280.784 85.3334 281.697 84.2048 281.697Z" fill="white"/>
<path d="M46.6242 262.423C46.5034 262.423 46.3855 262.411 46.2714 262.388L46.224 262.625C45.9556 262.572 45.7056 262.465 45.4855 262.317L45.6204 262.116C45.4232 261.984 45.253 261.814 45.1205 261.616L44.9196 261.751C44.7717 261.531 44.6653 261.281 44.6117 261.013L44.8491 260.965C44.8263 260.851 44.8144 260.734 44.8144 260.613V260.126H44.5723V259.154H44.8144V258.181H44.5723V257.209H44.8144V256.236H44.5723V255.263H44.8144V254.291H44.5723V253.318H44.8144V252.346H44.5723V251.373H44.8144V250.4H44.5723V249.428H44.8144V248.455H44.5723V247.483H44.8144V246.51H44.5723V245.537H44.8144V244.565H44.5723V243.592H44.8144V242.62H44.5723V241.647H44.8144V241.161C44.8144 241.04 44.8263 240.922 44.8491 240.808L44.6117 240.761C44.6653 240.492 44.7717 240.242 44.9196 240.022L45.1205 240.157C45.253 239.96 45.4232 239.79 45.6204 239.657L45.4855 239.456C45.7056 239.308 45.9556 239.202 46.224 239.148L46.2714 239.386C46.3855 239.363 46.5034 239.351 46.6242 239.351H47.1113V239.109H48.0857V239.351H49.0601V239.109H50.0344V239.351H51.0088V239.109H51.9832V239.351H52.9575V239.109H53.9319V239.351H54.9063V239.109H55.8806V239.351H56.855V239.109H57.8294V239.351H58.8037V239.109H59.7781V239.351H60.7524V239.109H61.7268V239.351H62.7012V239.109H63.6755V239.351H64.6499V239.109H65.6243V239.351H66.5986V239.109H67.573V239.351H68.5474V239.109H69.5217V239.351H70.4961V239.109H71.4705V239.351H72.4448V239.109H73.4192V239.351H74.3936V239.109H75.3679V239.351H76.3423V239.109H77.3167V239.351H78.291V239.109H79.2654V239.351H80.2397V239.109H81.2141V239.351H81.7013C81.8221 239.351 81.94 239.363 82.054 239.386L82.1014 239.148C82.3699 239.202 82.6198 239.308 82.84 239.456L82.705 239.657C82.9023 239.79 83.0724 239.96 83.2049 240.157L83.4059 240.022C83.5537 240.242 83.6601 240.492 83.7137 240.761L83.4763 240.808C83.4991 240.922 83.5111 241.04 83.5111 241.161V241.647H83.7532V242.62H83.5111V243.592H83.7532V244.565H83.5111V245.537H83.7532V246.51H83.5111V247.483H83.7532V248.455H83.5111V249.428H83.7532V250.4H83.5111V251.373H83.7532V252.346H83.5111V253.318H83.7532V254.291H83.5111V255.263H83.7532V256.236H83.5111V257.209H83.7532V258.181H83.5111V259.154H83.7532V260.126H83.5111V260.613C83.5111 260.734 83.4991 260.851 83.4763 260.965L83.7137 261.013C83.6601 261.281 83.5537 261.531 83.4059 261.751L83.2049 261.616C83.0724 261.814 82.9023 261.984 82.705 262.116L82.84 262.317C82.6198 262.465 82.3699 262.572 82.1014 262.625L82.054 262.388C81.94 262.411 81.8221 262.423 81.7013 262.423H81.2141V262.665H80.2397V262.423H79.2654V262.665H78.291V262.423H77.3166V262.665H76.3423V262.423H75.3679V262.665H74.3936V262.423H73.4192V262.665H72.4448V262.423H71.4705V262.665H70.4961V262.423H69.5217V262.665H68.5474V262.423H67.573V262.665H66.5986V262.423H65.6243V262.665H64.6499V262.423H63.6755V262.665H62.7012V262.423H61.7268V262.665H60.7524V262.423H59.7781V262.665H58.8037V262.423H57.8294V262.665H56.855V262.423H55.8806V262.665H54.9063V262.423H53.9319V262.665H52.9575V262.423H51.9832V262.665H51.0088V262.423H50.0344V262.665H49.0601V262.423H48.0857V262.665H47.1113V262.423H46.6242Z" fill="white" stroke="#2A2A2A" stroke-width="0.484205" stroke-dasharray="0.97 0.97"/>
<path d="M82.954 268.789H45.1376C44.758 268.789 44.4502 268.481 44.4502 268.101C44.4502 267.722 44.758 267.414 45.1376 267.414H82.9437C83.3233 267.414 83.6311 267.722 83.6311 268.101C83.6311 268.481 83.3336 268.789 82.954 268.789Z" fill="#D9E5F1"/>
<path d="M82.9437 272.842H45.1376C44.758 272.842 44.4502 272.534 44.4502 272.155C44.4502 271.775 44.758 271.467 45.1376 271.467H82.9437C83.3233 271.467 83.6311 271.775 83.6311 272.155C83.6311 272.534 83.3233 272.842 82.9437 272.842Z" fill="#D9E5F1"/>
<path d="M61.9939 276.834H45.1376C44.758 276.834 44.4502 276.526 44.4502 276.146C44.4502 275.767 44.758 275.459 45.1376 275.459H61.9836C62.3632 275.459 62.671 275.767 62.671 276.146C62.6813 276.526 62.3735 276.834 61.9939 276.834Z" fill="#D9E5F1"/>
<path d="M84.2048 320.435H43.9467C42.8181 320.435 41.8948 319.512 41.8948 318.383V287.79C41.8948 286.661 42.8181 285.738 43.9467 285.738H84.2048C85.3334 285.738 86.2567 286.661 86.2567 287.79V318.383C86.2567 319.512 85.3334 320.435 84.2048 320.435Z" fill="white"/>
<path d="M81.7013 313.172H46.6242C45.4956 313.172 44.5723 312.249 44.5723 311.121V291.669C44.5723 290.54 45.4956 289.617 46.6242 289.617H81.7013C82.8298 289.617 83.7532 290.54 83.7532 291.669V311.121C83.7532 312.259 82.8298 313.172 81.7013 313.172Z" fill="#DCE8F4"/>
<path d="M82.954 318.611H45.1376C44.758 318.611 44.4502 318.303 44.4502 317.923C44.4502 317.544 44.758 317.236 45.1376 317.236H82.9437C83.3233 317.236 83.6311 317.544 83.6311 317.923C83.6311 318.303 83.3336 318.611 82.954 318.611Z" fill="#D9E5F1"/>
<path d="M131.634 320.477H91.3761C90.2476 320.477 89.3242 319.554 89.3242 318.425V287.842C89.3242 286.713 90.2476 285.79 91.3761 285.79H131.634C132.763 285.79 133.686 286.713 133.686 287.842V318.436C133.686 319.564 132.763 320.477 131.634 320.477Z" fill="white"/>
<path d="M94.0534 312.969C93.9326 312.969 93.8147 312.957 93.7006 312.935L93.6532 313.172C93.3848 313.118 93.1348 313.012 92.9147 312.864L93.0496 312.663C92.8524 312.531 92.6822 312.361 92.5497 312.163L92.3488 312.298C92.2009 312.078 92.0945 311.828 92.0409 311.56L92.2783 311.512C92.2555 311.398 92.2436 311.28 92.2436 311.16V310.673H92.0015V309.701H92.2436V308.728H92.0015V307.756H92.2436V306.783H92.0015V305.81H92.2436V304.838H92.0015V303.865H92.2436V302.893H92.0015V301.92H92.2436V300.947H92.0015V299.975H92.2436V299.002H92.0015V298.03H92.2436V297.057H92.0015V296.084H92.2436V295.112H92.0015V294.139H92.2436V293.167H92.0015V292.194H92.2436V291.708C92.2436 291.587 92.2555 291.469 92.2783 291.355L92.0409 291.308C92.0945 291.039 92.2009 290.789 92.3488 290.569L92.5497 290.704C92.6822 290.507 92.8524 290.337 93.0496 290.204L92.9147 290.003C93.1348 289.855 93.3848 289.749 93.6532 289.695L93.7006 289.933C93.8147 289.91 93.9326 289.898 94.0534 289.898H94.5405V289.656H95.5149V289.898H96.4893V289.656H97.4636V289.898H98.438V289.656H99.4124V289.898H100.387V289.656H101.361V289.898H102.335V289.656H103.31V289.898H104.284V289.656H105.259V289.898H106.233V289.656H107.207V289.898H108.182V289.656H109.156V289.898H110.13V289.656H111.105V289.898H112.079V289.656H113.053V289.898H114.028V289.656H115.002V289.898H115.977V289.656H116.951V289.898H117.925V289.656H118.9V289.898H119.874V289.656H120.848V289.898H121.823V289.656H122.797V289.898H123.771V289.656H124.746V289.898H125.72V289.656H126.695V289.898H127.669V289.656H128.643V289.898H129.13C129.251 289.898 129.369 289.91 129.483 289.933L129.531 289.695C129.799 289.749 130.049 289.855 130.269 290.003L130.134 290.204C130.331 290.337 130.502 290.507 130.634 290.704L130.835 290.569C130.983 290.789 131.089 291.039 131.143 291.308L130.906 291.355C130.928 291.469 130.94 291.587 130.94 291.708V292.194H131.182V293.167H130.94V294.139H131.182V295.112H130.94V296.084H131.182V297.057H130.94V298.03H131.182V299.002H130.94V299.975H131.182V300.947H130.94V301.92H131.182V302.893H130.94V303.865H131.182V304.838H130.94V305.81H131.182V306.783H130.94V307.756H131.182V308.728H130.94V309.701H131.182V310.673H130.94V311.16C130.94 311.281 130.928 311.399 130.906 311.513L131.143 311.56C131.09 311.83 130.984 312.08 130.837 312.3L130.636 312.165C130.504 312.363 130.333 312.533 130.136 312.665L130.271 312.866C130.05 313.013 129.8 313.119 129.531 313.172L129.484 312.935C129.37 312.958 129.252 312.969 129.13 312.969H128.643V313.212H127.669V312.969H126.695V313.212H125.72V312.969H124.746V313.212H123.771V312.969H122.797V313.212H121.823V312.969H120.848V313.212H119.874V312.969H118.9V313.212H117.925V312.969H116.951V313.212H115.977V312.969H115.002V313.212H114.028V312.969H113.053V313.212H112.079V312.969H111.105V313.212H110.13V312.969H109.156V313.212H108.182V312.969H107.207V313.212H106.233V312.969H105.259V313.212H104.284V312.969H103.31V313.212H102.335V312.969H101.361V313.212H100.387V312.969H99.4124V313.212H98.438V312.969H97.4636V313.212H96.4893V312.969H95.5149V313.212H94.5405V312.969H94.0534Z" fill="white" stroke="#2A2A2A" stroke-width="0.484205" stroke-dasharray="0.97 0.97"/>
<path d="M130.383 318.654H92.5668C92.1872 318.654 91.8794 318.346 91.8794 317.967C91.8794 317.587 92.1872 317.279 92.5668 317.279H130.373C130.753 317.279 131.06 317.587 131.06 317.967C131.06 318.346 130.763 318.654 130.383 318.654Z" fill="#D9E5F1"/>
<path d="M131.176 281.787H90.9179C89.7893 281.787 88.866 280.864 88.866 279.736V237.364C88.866 236.235 89.7893 235.312 90.9179 235.312H131.176C132.305 235.312 133.228 236.235 133.228 237.364V279.725C133.228 280.864 132.315 281.787 131.176 281.787Z" fill="white"/>
<path d="M128.669 262.749H93.5922C92.4636 262.749 91.5403 261.825 91.5403 260.697V241.245C91.5403 240.116 92.4636 239.193 93.5922 239.193H128.669C129.798 239.193 130.721 240.116 130.721 241.245V260.697C130.721 261.836 129.808 262.749 128.669 262.749Z" fill="#EE384E"/>
<path d="M129.925 268.87H92.1193C91.7397 268.87 91.4319 268.562 91.4319 268.183C91.4319 267.803 91.7397 267.495 92.1193 267.495H129.925C130.305 267.495 130.613 267.803 130.613 268.183C130.613 268.562 130.305 268.87 129.925 268.87Z" fill="#D9E5F1"/>
<path d="M129.915 272.925H92.1193C91.7397 272.925 91.4319 272.617 91.4319 272.237C91.4319 271.858 91.7397 271.55 92.1193 271.55H129.925C130.305 271.55 130.613 271.858 130.613 272.237C130.603 272.617 130.295 272.925 129.915 272.925Z" fill="#D9E5F1"/>
<path d="M108.965 276.916H92.1193C91.7397 276.916 91.4319 276.609 91.4319 276.229C91.4319 275.849 91.7397 275.542 92.1193 275.542H108.965C109.345 275.542 109.653 275.849 109.653 276.229C109.653 276.609 109.345 276.916 108.965 276.916Z" fill="#D9E5F1"/>
<path d="M182.871 342.834L131.853 342.893C129.162 342.893 126.977 340.683 126.967 337.948L126.84 229.168C126.84 226.433 129.015 224.213 131.707 224.203L182.725 224.144C185.416 224.144 187.601 226.354 187.611 229.089L187.738 337.869C187.747 340.604 185.563 342.834 182.871 342.834Z" fill="#0064B7"/>
<path d="M179.507 338.472L135.351 338.523C132.519 338.523 130.221 336.236 130.211 333.404L130.087 234.02C130.087 231.189 132.375 228.891 135.207 228.88L179.364 228.829C182.195 228.829 184.493 231.117 184.504 233.949L184.627 333.332C184.637 336.164 182.339 338.462 179.507 338.472Z" fill="#E9EEF2"/>
<path d="M178.82 244.453L136.603 244.505C135.474 244.505 134.551 243.592 134.551 242.453L134.541 235.333C134.541 234.204 135.454 233.281 136.592 233.281L178.81 233.229C179.939 233.229 180.862 234.143 180.862 235.281L180.872 242.401C180.872 243.54 179.959 244.453 178.82 244.453Z" fill="white"/>
<path d="M139.958 241.44C141.407 241.44 142.581 240.266 142.581 238.818C142.581 237.369 141.407 236.195 139.958 236.195C138.51 236.195 137.335 237.369 137.335 238.818C137.335 240.266 138.51 241.44 139.958 241.44Z" fill="#EE384E"/>
<path d="M178.512 237.231L171.248 237.241C170.95 237.241 170.704 236.995 170.704 236.697C170.704 236.4 170.95 236.153 171.248 236.153L178.512 236.143C178.809 236.143 179.055 236.389 179.055 236.687C179.055 236.984 178.819 237.231 178.512 237.231Z" fill="#D0ECFB"/>
<path d="M178.512 239.275L171.248 239.285C170.95 239.285 170.704 239.039 170.704 238.741C170.704 238.444 170.95 238.198 171.248 238.198L178.512 238.188C178.809 238.188 179.055 238.434 179.055 238.731C179.066 239.029 178.819 239.275 178.512 239.275Z" fill="#D0ECFB"/>
<path d="M178.518 241.439L171.255 241.449C170.957 241.449 170.711 241.203 170.711 240.906C170.711 240.608 170.957 240.362 171.255 240.362L178.518 240.352C178.816 240.352 179.062 240.598 179.062 240.895C179.062 241.193 178.816 241.439 178.518 241.439Z" fill="#D0ECFB"/>
<path d="M178.872 286.887L136.654 286.939C135.525 286.939 134.602 286.025 134.602 284.887L134.561 251.02C134.561 249.892 135.474 248.968 136.613 248.968L178.831 248.917C179.959 248.917 180.883 249.83 180.883 250.969L180.924 284.835C180.924 285.964 180.01 286.877 178.872 286.887Z" fill="#FCFEFF"/>
<path d="M168.213 254.469L145.437 254.5C144.678 254.5 144.062 253.884 144.062 253.135C144.062 252.376 144.678 251.76 145.427 251.76L168.203 251.729C168.962 251.729 169.577 252.345 169.577 253.094C169.588 253.853 168.972 254.469 168.213 254.469Z" fill="#00A9FF"/>
<path d="M137.317 281.593L137.317 281.593L137.316 281.082L137.074 281.083L137.073 280.062L137.315 280.062L137.314 279.041L137.072 279.041L137.071 278.02L137.313 278.02L137.312 276.999L137.07 276.999L137.069 275.979L137.311 275.978L137.31 274.958L137.068 274.958L137.067 273.937L137.309 273.937L137.308 272.916L137.066 272.916L137.065 271.895L137.307 271.895L137.307 271.385C137.307 271.385 137.307 271.385 137.307 271.385C137.307 271.264 137.318 271.146 137.341 271.031L137.104 270.984C137.157 270.716 137.263 270.465 137.41 270.245L137.611 270.379C137.743 270.182 137.913 270.012 138.111 269.88L137.976 269.678C138.196 269.531 138.446 269.425 138.716 269.372L138.763 269.609C138.877 269.587 138.995 269.575 139.116 269.575L139.117 269.575L139.6 269.575L139.6 269.332L140.568 269.331L140.568 269.574L141.536 269.572L141.535 269.33L142.503 269.329L142.503 269.571L143.471 269.57L143.471 269.328L144.438 269.327L144.439 269.569L145.406 269.568L145.406 269.326L146.374 269.325L146.374 269.567L147.341 269.566L147.341 269.324L148.309 269.323L148.309 269.565L149.277 269.564L149.276 269.322L150.244 269.321L150.244 269.563L151.212 269.562L151.212 269.32L152.179 269.318L152.18 269.561L153.147 269.559L153.147 269.317L154.115 269.316L154.115 269.558L155.083 269.557L155.082 269.315L156.05 269.314L156.05 269.556L157.018 269.555L157.018 269.313L157.985 269.312L157.985 269.554L158.953 269.553L158.953 269.311L159.92 269.31L159.921 269.552L160.888 269.551L160.888 269.309L161.856 269.308L161.856 269.55L162.824 269.549L162.823 269.307L163.791 269.305L163.791 269.548L164.759 269.547L164.759 269.304L165.726 269.303L165.726 269.545L166.694 269.544L166.694 269.302L167.661 269.301L167.662 269.543L168.629 269.542L168.629 269.3L169.597 269.299L169.597 269.541L170.565 269.54L170.564 269.298L171.532 269.297L171.532 269.539L172.5 269.538L172.5 269.296L173.467 269.295L173.467 269.537L174.435 269.536L174.435 269.294L175.402 269.293L175.403 269.535L175.886 269.534C175.886 269.534 175.886 269.534 175.886 269.534C176.007 269.534 176.126 269.546 176.24 269.569L176.287 269.331C176.556 269.384 176.806 269.49 177.026 269.638L176.892 269.839C177.089 269.971 177.259 270.141 177.392 270.338L177.593 270.204C177.74 270.424 177.846 270.674 177.899 270.943L177.662 270.99C177.684 271.104 177.696 271.223 177.696 271.344V271.344L177.697 271.855L177.939 271.854L177.94 272.875L177.698 272.875L177.699 273.896L177.941 273.896L177.942 274.917L177.7 274.917L177.701 275.938L177.943 275.938L177.944 276.958L177.702 276.959L177.703 277.979L177.945 277.979L177.946 279L177.704 279L177.705 280.021L177.947 280.021L177.948 281.042L177.706 281.042L177.706 281.552C177.706 281.552 177.706 281.552 177.706 281.552C177.706 281.674 177.694 281.792 177.672 281.906L177.91 281.953C177.856 282.222 177.75 282.472 177.603 282.692L177.402 282.558C177.27 282.755 177.1 282.925 176.902 283.057L177.037 283.258C176.816 283.406 176.566 283.512 176.297 283.565L176.25 283.327C176.136 283.35 176.018 283.362 175.897 283.362H175.896L175.412 283.362L175.413 283.605L174.445 283.606L174.445 283.363L173.477 283.365L173.477 283.607L172.51 283.608L172.51 283.366L171.542 283.367L171.542 283.609L170.575 283.61L170.574 283.368L169.607 283.369L169.607 283.611L168.639 283.612L168.639 283.37L167.671 283.371L167.672 283.613L166.704 283.614L166.704 283.372L165.736 283.373L165.736 283.615L164.769 283.616L164.769 283.374L163.801 283.375L163.801 283.617L162.834 283.619L162.833 283.376L161.866 283.378L161.866 283.62L160.898 283.621L160.898 283.379L159.93 283.38L159.931 283.622L158.963 283.623L158.963 283.381L157.995 283.382L157.995 283.624L157.028 283.625L157.028 283.383L156.06 283.384L156.06 283.626L155.093 283.627L155.092 283.385L154.125 283.386L154.125 283.628L153.157 283.629L153.157 283.387L152.189 283.388L152.19 283.63L151.222 283.632L151.222 283.389L150.254 283.39L150.254 283.633L149.287 283.634L149.286 283.392L148.319 283.393L148.319 283.635L147.351 283.636L147.351 283.394L146.384 283.395L146.384 283.637L145.416 283.638L145.416 283.396L144.448 283.397L144.449 283.639L143.481 283.64L143.481 283.398L142.513 283.399L142.513 283.641L141.546 283.642L141.545 283.4L140.578 283.401L140.578 283.643L139.61 283.644L139.61 283.402L139.127 283.403C139.127 283.403 139.126 283.403 139.126 283.403C139.126 283.403 139.126 283.403 139.126 283.403C139.005 283.403 138.887 283.391 138.773 283.368L138.726 283.606C138.457 283.553 138.207 283.447 137.986 283.299L138.121 283.098C137.924 282.966 137.753 282.796 137.621 282.599L137.42 282.733C137.273 282.513 137.167 282.263 137.114 281.994L137.351 281.947C137.329 281.833 137.317 281.714 137.317 281.593Z" fill="white" stroke="#2A2A2A" stroke-width="0.484205" stroke-dasharray="0.97 0.97"/>
<path d="M173.813 258.92L140.203 258.961C139.413 258.961 138.767 258.314 138.767 257.524C138.767 256.734 139.413 256.088 140.203 256.088L173.813 256.047C174.603 256.047 175.249 256.693 175.249 257.483C175.249 258.273 174.603 258.92 173.813 258.92Z" fill="#ECF2F8"/>
<path d="M160.987 267.056L153.375 267.067C152 267.067 150.882 265.959 150.882 264.584C150.882 263.209 151.99 262.091 153.365 262.091L160.977 262.081C162.352 262.081 163.47 263.189 163.47 264.563C163.48 265.938 162.362 267.056 160.987 267.056Z" fill="#EE384E"/>
<path d="M180.913 338.506L134.735 338.557L134.684 293.303C134.684 292.174 135.597 291.251 136.735 291.251L178.81 291.2C179.938 291.2 180.861 292.113 180.861 293.252L180.913 338.506Z" fill="white"/>
<path d="M176.257 320.148L139.682 320.189C138.553 320.189 137.63 319.276 137.63 318.137L137.609 298.531C137.609 297.402 138.522 296.479 139.661 296.479L176.236 296.438C177.365 296.438 178.288 297.351 178.288 298.49L178.309 318.096C178.309 319.235 177.385 320.148 176.257 320.148Z" fill="#268DFF"/>
<path d="M177.229 327.144L138.725 327.195C138.13 327.195 137.637 326.713 137.637 326.108C137.637 325.512 138.119 325.02 138.725 325.02L177.229 324.969C177.824 324.969 178.316 325.451 178.316 326.056C178.316 326.662 177.824 327.144 177.229 327.144Z" fill="#DAE6F4"/>
<path d="M177.239 331.31L138.735 331.361C138.14 331.361 137.648 330.879 137.648 330.274C137.648 329.679 138.13 329.186 138.735 329.186L177.239 329.135C177.834 329.135 178.327 329.617 178.327 330.222C178.316 330.828 177.834 331.31 177.239 331.31Z" fill="#DAE6F4"/>
<path d="M155.469 335.691L138.633 335.711C138.089 335.711 137.648 335.27 137.648 334.726C137.648 334.182 138.089 333.741 138.633 333.741L155.469 333.721C156.012 333.721 156.454 334.162 156.454 334.706C156.443 335.249 156.012 335.691 155.469 335.691Z" fill="#DAE6F4"/>
<path d="M274.479 34.6643C274.479 34.6643 275.721 38.3474 278.121 41.4253C280.522 44.5031 278.255 47.3347 278.255 47.3347C278.255 47.3347 272.438 50.4125 270.724 46.4832C270.724 46.4832 270.242 44.3492 270.16 42.8205C270.139 42.482 270.068 42.1537 269.914 41.8459C269.585 41.1893 269.062 39.1989 267.38 41.0046C267.38 41.0046 265.4 44.8006 262.414 41.6202C262.301 41.4971 262.229 41.3432 262.188 41.179L261.983 40.1428L260.988 40.03C260.731 39.9992 260.526 39.7735 260.526 39.517V38.5218H259.593C259.305 38.5218 259.069 38.2961 259.059 37.9986L258.854 27.8109C258.854 27.8109 262.876 23.8303 267.718 26.0976C272.55 28.3752 272.94 27.6468 274.479 34.6643Z" fill="#FFBF9C"/>
<path d="M258.757 30.0904C258.767 30.4495 258.582 30.7881 258.285 30.9933C257.536 31.5165 256.11 32.0089 254.56 29.9878C252.273 27.0228 254.735 26.9613 254.735 26.9613C254.735 26.9613 252.683 20.9698 258.849 22.2214C258.849 22.2214 262.276 15.8298 266.492 21.1339C266.492 21.1339 273.571 18.1074 273.971 24.6734C273.971 24.6734 278.855 28.3053 276.085 35.4151C275.931 35.805 275.582 36.082 275.161 36.1538C273.797 36.4 270.945 36.2769 271.489 30.747C271.55 30.1007 271.499 29.4338 271.294 28.8182C270.945 27.7718 270.186 26.7971 268.657 29.0132C268.657 29.0132 266.769 31.3523 266.143 28.2745C265.518 25.1967 260.265 27.5358 259.352 28.6131C258.839 29.2286 258.746 29.7519 258.757 30.0904Z" fill="#170D54"/>
<path d="M270.295 44.125C270.295 44.125 257.983 42.7092 257.583 54.1896L257.47 56.5903L291.378 55.9645C291.378 55.9645 292.865 43.1812 284.124 43.1812L279.056 43.3658C279.056 43.3658 278.984 47.5209 274.757 47.5722C270.531 47.6235 270.295 44.125 270.295 44.125Z" fill="#F79F03"/>
<path d="M251.883 55.6686C251.883 55.6686 250.857 51.7905 253.534 51.6161C256.212 51.4417 256.386 53.668 256.386 55.607C256.386 55.607 255.432 55.8943 255.135 55.6378C254.837 55.3813 254.283 55.5968 254.068 55.6788C253.852 55.7712 252.139 55.9969 251.883 55.6686Z" fill="#FFBF9C"/>
<path d="M280.077 55.2677C280.077 55.2677 279.564 52.59 282.365 52.4156C285.166 52.2412 285.679 54.1289 285.791 55.4934C285.904 56.8579 285.74 57.4837 285.217 57.258C284.714 57.0426 284.632 56.6938 284.632 56.6938C284.632 56.6938 284.417 56.8887 284.14 57.0939C283.883 57.2786 283.196 57.1144 283.052 56.9195C282.919 56.7245 281.872 56.9195 281.739 57.0939C281.523 57.3606 280.6 57.1554 280.426 56.8066C280.251 56.4681 280.077 55.2677 280.077 55.2677Z" fill="#FFBF9C"/>
<path d="M161.561 227.188H153.343C153.063 227.188 152.835 226.961 152.835 226.68C152.835 226.4 153.063 226.173 153.343 226.173H161.561C161.841 226.173 162.069 226.4 162.069 226.68C162.069 226.968 161.841 227.188 161.561 227.188Z" fill="white"/>
<path d="M15.3409 233.925L21.7615 232.124L19.9609 225.703L13.5404 227.504L15.3409 233.925Z" fill="#EE384E"/>
<path d="M449.634 67.5662L456.054 65.7656L454.254 59.345L447.833 61.1456L449.634 67.5662Z" fill="#003EB0"/>
<path d="M464.361 193.01L470.781 191.209L468.981 184.788L462.56 186.589L464.361 193.01Z" fill="#EE384E"/>
<path d="M200.103 142.526L205.593 133.02H227.546L222.055 142.526H200.103Z" fill="#3A77FD"/>
<path d="M200.103 142.526L205.593 133.02H210.725L200.103 142.526Z" fill="#1F4BAF"/>
<path d="M216.576 133.021H227.557L216.576 114.008H205.594L216.576 133.021Z" fill="#FED125"/>
<path d="M216.578 133.021H227.56L214.056 128.646L216.578 133.021Z" fill="#B5950B"/>
<path d="M194.612 133.021L200.102 142.528L211.084 123.515L205.593 114.008L194.612 133.021Z" fill="#00A95B"/>
<path d="M208.446 128.074L211.085 123.515L205.594 114.008L208.446 128.074Z" fill="#007541"/>
<path d="M12.27 187.441C17.9418 187.441 22.5397 182.843 22.5397 177.172C22.5397 171.5 17.9418 166.902 12.27 166.902C6.59816 166.902 2.00024 171.5 2.00024 177.172C2.00024 182.843 6.59816 187.441 12.27 187.441Z" fill="#FCBE42"/>
<path d="M8.67651 175.121L12.7803 181.287L15.8684 176.147" stroke="white" stroke-width="1.93682" stroke-miterlimit="10"/>
<path d="M430.724 219.28L402.1 196.707C402.1 196.707 401.316 196.192 400.19 194.551C399.051 192.922 396.858 191.293 395.584 191.648L392.755 189.002C392.755 189.002 391.763 188.806 392.755 189.725C393.747 190.644 394.311 191.783 394.311 191.783C394.311 191.783 393.429 192.248 393.674 192.603C393.674 192.603 392.963 192.812 393.037 193.35C393.037 193.35 391.334 193.877 393 195.543C394.666 197.209 395.229 197.882 397.079 198.691C398.916 199.511 400.3 200.467 402.113 202.169C403.925 203.872 427.136 226.163 427.136 226.163L430.724 219.28Z" fill="#FFBE9B"/>
<path d="M444.111 213.61C444.111 213.61 450.615 213.45 451.631 206.163C452.648 198.875 447.712 196.364 444.895 194.882C442.078 193.388 440.351 193.633 439.102 191.587C437.852 189.554 437.374 189.003 437.374 189.003C437.374 189.003 432.083 194.502 435.782 199.389C439.481 204.289 444.111 213.61 444.111 213.61Z" fill="#180857"/>
<path d="M454.693 340.611C454.766 340.635 454.766 340.746 454.791 340.819C454.974 341.615 455.966 346.257 453.455 346.306C450.896 346.367 441.183 346.429 439.836 346.441C439.738 346.441 439.664 346.38 439.64 346.282C439.542 345.902 439.37 344.959 440.019 344.665C440.019 344.665 445.666 342.044 447.601 340.501C449.34 339.092 453.921 340.366 454.693 340.611Z" fill="#170856"/>
<path d="M430.283 339.915C430.357 339.952 430.369 340.05 430.381 340.136C430.565 341.005 431.557 346.125 429.046 346.247C426.474 346.37 414.606 346.26 413.062 346.247C412.952 346.247 412.866 346.186 412.83 346.076C412.719 345.733 412.597 344.925 413.614 344.471C413.614 344.471 420.179 341.85 423.167 340.013C425.862 338.347 429.573 339.633 430.283 339.915Z" fill="#170856"/>
<path d="M456.235 259.123L454.766 340.695L447.576 340.499L441.868 288.726L442.554 274.347L446.718 258.963L456.235 259.123Z" fill="#0064E1"/>
<path d="M448.666 259.001C448.666 259.001 441.881 293.651 439.811 297.681L430.367 340.01H423.178L427.636 258.878L448.666 259.001Z" fill="#003EB0"/>
<path d="M435.781 199.386C435.781 199.386 432.192 202.362 432.143 207.518C432.094 212.663 432.988 212.859 435.07 212.859C437.152 212.859 438.806 212.675 439.039 213.802C439.271 214.929 438.99 219.375 438.524 220.697C438.047 222.02 447.123 220.697 447.123 220.697C447.123 220.697 444.624 213.9 444.244 210.911C443.864 207.935 444.293 204.579 442.493 201.75C440.692 198.92 438.573 196.74 435.781 199.386Z" fill="#FFBE9B"/>
<path d="M437.618 222.305L430.343 218.251L426.375 226.274L434.471 233.182L437.618 222.305Z" fill="#F79F03"/>
<path d="M448.669 221.654C448.669 221.654 453.029 226.602 454.548 238.557C456.067 250.511 456.25 259.134 456.25 259.134H427.639C427.639 259.134 429.819 242.268 431.742 233.339C433.665 224.41 437.119 220.809 437.119 220.809C437.119 220.809 438.013 219.719 439.103 220.429C440.193 221.14 442.79 221.274 445.105 220.184C447.419 219.094 447.934 220.65 448.669 221.654Z" fill="#FCBE42"/>
<path d="M442.869 203.884C442.869 203.884 444.424 203.504 445.134 204.313C445.845 205.121 444.987 206.86 443.579 207.387C442.158 207.901 442.869 203.884 442.869 203.884Z" fill="#FFBE9B"/>
<path d="M438.807 236.44C438.807 236.44 435.549 259.124 433.847 265.284C432.144 271.445 429.597 277.263 429.597 277.263C429.597 277.263 428.458 280.092 429.597 281.158C430.736 282.224 433.418 283.424 433.957 281.513C434.496 279.603 434.496 275.487 435.206 274.569C435.917 273.65 442.077 259.332 444.135 250.758C446.193 242.184 446.548 238.351 446.548 238.351L438.807 236.44Z" fill="#FFBE9B"/>
<path d="M437.621 237.591C437.621 237.591 439.581 225.097 444.823 225.036C444.823 225.036 447.799 225.036 447.873 229.568C447.946 234.1 447.518 239.477 447.518 239.477L437.621 237.591Z" fill="#F79F03"/>
<path d="M342.463 296.78C342.463 296.78 345.532 295.532 345.302 292.009C345.072 288.487 343.258 285.982 347.004 287.008C350.757 288.033 352.02 288.487 354.74 287.914C357.46 287.35 359.734 286.213 358.537 289.735C357.341 293.258 356.055 296.215 358.864 296.78C361.666 297.345 364.676 295.227 365.04 300.741C365.404 306.263 360.945 312.468 353.744 312.691C346.543 312.921 343.362 309.934 343.362 309.934C343.362 309.934 341.43 307.214 344.44 306.538C347.45 305.869 350.519 304.591 348.988 303.179C347.45 301.774 342.448 301.655 342.448 301.655C342.448 301.655 336.206 300.421 342.463 296.78Z" fill="#649EEA"/>
<path d="M375.375 297.694C374.87 294.179 375.256 291.645 381.796 290.686C388.336 289.727 392.14 293.651 392.542 297.694C392.943 301.737 387.258 303.193 387.258 303.193C387.258 303.193 383.223 304.345 385.266 307.868C387.31 311.39 388.239 314.801 383.602 315.314C378.957 315.827 373.874 314.6 371.05 312.713C368.226 310.825 365.32 306.047 368.56 303.55C368.56 303.55 369.467 302.926 372.596 302.755C375.709 302.584 375.375 297.694 375.375 297.694Z" fill="#023EA1"/>
<path d="M352.376 297.122C352.376 297.122 357.801 309.399 358.544 317.759" stroke="#023EA1" stroke-width="0.96841" stroke-miterlimit="10"/>
<path d="M382.555 299.136C382.555 299.136 372.946 313.405 370.672 318.176" stroke="#649EEA" stroke-width="0.96841" stroke-miterlimit="10"/>
<path d="M355.192 316.793H377.249C377.249 316.793 379.664 316.964 379.463 320.264C379.277 323.296 375.428 322.642 373.436 322.642C371.445 322.642 354.716 322.642 354.716 322.642C354.716 322.642 352.004 323.103 352.004 320.034C352.011 316.964 353.029 316.793 355.192 316.793Z" fill="#0054A5"/>
<path d="M354.718 322.641L358.062 342.126H372.873L375.377 327.501L354.747 322.641H354.718Z" fill="#0054A5"/>
<path d="M354.748 322.641L375.378 327.501L376.21 322.641H354.748Z" fill="#006AD5"/>
<path d="M364.227 317.528C364.227 317.528 365.342 295.91 371.785 282.34" stroke="#FCBE42" stroke-width="0.96841" stroke-miterlimit="10"/>
<path d="M377.096 274.538C377.096 274.538 377.631 281.174 371.15 283.768C371.15 283.768 369.746 278.105 377.096 274.538Z" fill="#FCBE42"/>
<path d="M367.381 295.665C367.381 295.665 369.767 290.002 377.109 290.76C377.109 290.76 376.537 296.401 367.381 295.665Z" fill="#FCBE42"/>
<path d="M364.966 309.905C364.966 309.905 366.199 303.886 373.549 303.195C373.549 303.195 374.084 308.843 364.966 309.905Z" fill="#FCBE42"/>
<path d="M364.711 309.94C364.711 309.94 365.566 303.853 358.87 300.747C358.87 300.747 356.47 305.882 364.711 309.94Z" fill="#FCBE42"/>
<path d="M367.451 295.62C367.451 295.62 369.071 289.69 362.829 285.751C362.836 285.758 359.797 290.544 367.451 295.62Z" fill="#FCBE42"/>
<path d="M94.5786 170.508C94.5786 170.508 97.9977 170.679 100.562 170.679C103.041 170.679 107.058 171.191 107.058 171.191C107.058 171.191 108.084 171.191 108.169 172.474C108.255 173.756 108.255 174.269 108.255 174.269C108.255 174.269 108.34 175.807 107.144 175.807C105.947 175.807 98.2541 176.662 96.5446 176.662C94.8351 176.662 93.5529 177.004 93.5529 175.807C93.4675 174.61 93.382 170.422 94.5786 170.508Z" fill="#160856"/>
<path d="M97.3989 134.009C97.3989 134.009 99.6213 146.403 99.7922 149.737C99.9632 152.985 100.305 155.549 98.1682 156.831C96.0313 158.113 92.4413 159.31 92.4413 159.31L88.082 137.086V134.522L97.3989 134.009Z" fill="#FDBD97"/>
<path d="M59.3629 133.24C59.3629 133.24 58.1663 138.882 57.8244 141.702C57.4825 144.523 56.7132 150.079 56.6277 151.361C56.5422 152.643 56.3713 154.78 58.6791 156.49C60.987 158.114 63.5512 159.054 63.5512 159.054L68.3379 133.24H59.3629Z" fill="#FDBD97"/>
<path d="M76.3725 115.376C76.3725 115.376 76.3725 117.941 75.2613 119.052C74.1501 120.163 72.697 122.043 72.697 122.043C72.697 122.043 75.2613 126.146 80.4753 125.548C85.6039 125.035 86.5441 121.274 86.5441 121.274C86.5441 121.274 81.672 120.59 81.0737 115.975C80.5608 111.359 79.7915 111.359 79.7915 111.359L76.3725 115.376Z" fill="#FDAE7D"/>
<path d="M72.6108 105.118C72.6108 105.118 72.7818 111.016 75.6025 115.632C78.3377 120.247 81.6713 117.683 83.0389 115.29C84.321 112.897 87.8255 105.118 87.1417 103.067C86.3724 101.015 76.2008 100.075 76.2008 100.075L72.6108 105.118Z" fill="#FDBD97"/>
<path d="M85.6896 108.453C85.6896 108.453 87.1427 107.342 87.1427 108.453C87.1427 109.565 86.3735 111.189 85.5187 111.445C84.5785 111.616 84.7494 111.103 85.0058 110.334C85.1768 109.565 85.6896 108.453 85.6896 108.453Z" fill="#FDBD97"/>
<path d="M73.0385 110.846C73.4659 111.017 73.8932 111.103 73.8932 110.505C73.8932 109.393 73.1239 107.769 72.2692 107.513C71.329 107.342 71.4999 107.855 71.7563 108.624C71.8418 108.881 71.9273 109.137 72.0128 109.479C72.1837 109.992 72.6966 110.676 73.0385 110.846Z" fill="#FDBD97"/>
<path d="M72.8674 107.855L72.6965 105.975C72.6965 105.975 74.3205 106.146 76.201 104.351C76.201 104.351 79.791 105.205 82.6972 104.863C85.7743 104.607 87.0564 103.752 87.0564 103.752C87.0564 103.752 86.5436 107.257 86.0307 108.282C86.0307 108.282 87.4838 107.684 88.0821 105.975C88.595 104.351 88.5095 102.556 88.5095 102.556C88.5095 102.556 90.5609 100.932 91.0738 99.0511C91.0738 99.0511 85.5179 97.7689 83.8938 96.6577C82.2698 95.5466 81.3295 94.7773 81.3295 94.7773C81.3295 94.7773 78.7653 93.3242 76.201 95.2901C73.6367 97.3415 71.9272 98.4527 71.9272 101.957C71.8417 102.043 69.4484 105.376 72.8674 107.855Z" fill="#160856"/>
<path d="M73.2948 120.163C73.2948 120.163 69.7903 119.736 67.8244 120.249C65.9439 120.761 65.3456 120.42 65.8584 121.873C66.3713 123.326 68.9356 130.078 67.7389 134.267C66.5423 138.455 64.9182 160.166 64.9182 160.166C64.9182 160.166 78.0815 160.679 83.1246 160.935C88.2531 161.192 92.0141 160.251 92.0141 160.251C92.0141 160.251 93.1252 150.934 92.0141 146.832C90.9029 142.814 89.4498 135.891 89.4498 135.891C89.4498 135.891 88.5095 126.403 89.7917 124.095C91.0738 121.787 92.014 121.702 90.39 121.103C88.766 120.505 86.971 119.992 85.6034 119.992C84.3212 119.992 83.6374 119.992 82.8681 120.761C82.0989 121.531 80.5603 123.069 78.4234 122.727C76.2865 122.386 74.6625 120.932 74.6625 120.932C74.6625 120.932 73.8932 120.249 73.2948 120.163Z" fill="#0181F7"/>
<path d="M67.0555 120.933C67.0555 120.933 65.8588 120.335 64.0639 121.873C62.0979 123.583 60.7303 127.173 60.0465 129.395C59.3627 131.617 58.9353 133.84 58.9353 133.84C58.9353 133.84 61.4141 135.122 64.0639 135.207C66.6281 135.293 68.3376 135.464 68.3376 135.464C68.3376 135.464 69.4488 128.711 69.1924 125.72C68.8505 122.728 68.4231 121.702 67.0555 120.933Z" fill="#023E9F"/>
<path d="M88.7666 123.41C88.7666 123.41 89.7923 120.589 92.1001 121.871C94.408 123.153 96.1175 128.111 96.7158 129.65C97.2287 131.188 97.9125 134.351 97.9125 134.351C97.9125 134.351 95.1773 135.547 92.784 135.718C90.4761 135.889 88.8521 136.06 88.8521 136.06C88.8521 136.06 87.9118 129.906 88.0828 127.513C88.2537 125.119 88.7666 123.41 88.7666 123.41Z" fill="#023E9F"/>
<path d="M69.7048 162.132H87.3983L78.2524 164.953L69.7048 162.132Z" fill="#BA0A28"/>
<path d="M53.9771 157.089C53.9771 157.089 86.287 167.175 93.3815 169.654C93.3815 169.654 95.6893 170.252 95.7748 171.449C95.8603 172.645 95.6039 174.355 95.3474 175.21C95.091 176.064 94.3217 176.748 93.0396 176.492C91.7575 176.235 62.7812 170.423 51.3274 167.431L48.0793 166.406C48.0793 166.406 45.686 165.295 46.1134 162.388C46.5407 159.482 48.6776 156.832 50.2162 156.661C51.7548 156.576 53.9771 157.089 53.9771 157.089Z" fill="#EC384E"/>
<path d="M51.0723 171.448C51.0723 171.448 55.0897 170.765 57.5685 170.679C59.9618 170.594 63.2099 170.337 63.7227 170.679C64.2356 171.021 64.663 175.722 64.663 175.722C64.663 175.722 65.0903 177.004 61.9277 176.748C58.7651 176.492 51.4142 176.235 51.4142 176.235C51.4142 176.235 49.7902 176.15 49.7047 174.697C49.6192 173.243 49.8756 172.56 49.8756 172.56C49.8756 172.56 49.9611 171.619 51.0723 171.448Z" fill="#160856"/>
<path d="M70.303 167.345C70.303 167.345 89.877 161.362 96.886 159.311C103.895 157.259 107.741 155.379 110.049 158.627C112.272 161.875 112.101 165.55 109.536 166.576C106.972 167.602 86.5434 172.388 78.0813 174.098C69.6192 175.807 64.0633 176.919 63.294 176.577C62.5247 176.235 61.67 173.756 61.8409 172.388C62.0119 171.021 62.0973 170.508 63.7214 169.824C65.3454 169.055 70.303 167.345 70.303 167.345Z" fill="#DB061F"/>
<path d="M68.0814 138.797H91.6728C91.6728 138.797 92.9549 138.626 92.9549 140.336C92.9549 142.045 92.9549 160.679 92.9549 160.679C92.9549 160.679 93.0404 162.047 92.0147 162.047C90.989 162.047 64.3205 162.047 64.3205 162.047C64.3205 162.047 63.2093 162.389 63.2093 160.508C63.2093 158.628 63.2093 139.823 63.2093 139.823C63.2093 139.823 63.1238 138.797 64.4914 138.797C65.7736 138.797 68.0814 138.797 68.0814 138.797Z" fill="#0064B5"/>
<path d="M79.5342 150.336L77.8246 148.969L76.457 150.678L78.1665 152.046L79.5342 150.336Z" fill="#579CD2"/>
</svg>
