<svg width="440" height="310" viewBox="0 0 440 310" fill="none" xmlns="http://www.w3.org/2000/svg">
<path d="M204.845 128.142C229.51 128.142 249.505 108.148 249.505 83.4825C249.505 58.8175 229.51 38.8225 204.845 38.8225C180.18 38.8225 160.185 58.8175 160.185 83.4825C160.185 108.148 180.18 128.142 204.845 128.142Z" stroke="#DE051F" stroke-width="0.957265" stroke-miterlimit="10" stroke-dasharray="5.74 5.74"/>
<path d="M215.662 41.0209C216.394 37.1662 213.847 33.445 209.974 32.7093C206.101 31.9736 202.367 34.502 201.635 38.3567C200.903 42.2114 203.449 45.9326 207.323 46.6683C211.196 47.404 214.929 44.8755 215.662 41.0209Z" fill="#023EA1"/>
<path d="M206.385 37.057L208.253 41.807L211.737 38.0768" stroke="white" stroke-width="0.957265" stroke-miterlimit="10"/>
<path d="M166.214 37.9944C166.214 37.9944 168.062 31.4032 162.361 29.8153C156.659 28.2274 149.699 33.7235 150.924 38.4051C152.149 43.0867 156.078 43.9354 153.436 46.8374C150.794 49.7395 144.736 58.7878 149.425 61.6146C154.113 64.4413 159.11 60.8001 161.074 67.5692C163.038 74.3384 153.737 83.113 164.619 86.0903C175.502 89.0676 195.385 89.5741 191.806 72.552C188.219 55.5299 176.761 68.2879 177.788 54.8454C178.815 41.4029 172.627 45.8244 168.35 43.9833C164.072 42.1421 166.214 37.9944 166.214 37.9944Z" fill="#FCBE42"/>
<path d="M161.745 48.8361C161.745 48.8361 172.107 63.668 176.262 79.3897C180.416 95.1113 178.739 99.1564 178.739 99.1564" stroke="white" stroke-width="0.957265" stroke-miterlimit="10" stroke-linecap="round" stroke-linejoin="round"/>
<path d="M377.797 109.608C377.797 109.608 377.92 103.701 383.06 103.866C388.2 104.03 392.601 110.354 390.411 113.886C388.221 117.418 384.737 117.116 386.202 120.183C387.666 123.249 390.425 132.27 385.818 133.386C381.212 134.501 377.968 130.217 374.634 135.288C371.301 140.36 376.825 149.983 367.03 149.627C357.229 149.272 340.57 144.569 347.832 131.469C355.094 118.369 361.411 131.832 363.943 120.498C366.476 109.163 370.5 114.399 374.525 113.982C378.543 113.578 377.797 109.608 377.797 109.608Z" fill="#023EA1"/>
<path d="M378.789 119.69C378.789 119.69 366.442 129.238 359.029 141.12C351.617 153.002 352 156.759 352 156.759" stroke="white" stroke-width="0.957265" stroke-miterlimit="10" stroke-linecap="round" stroke-linejoin="round"/>
<path d="M342.226 169.682C342.226 169.682 374.429 153.987 390.917 135.391" stroke="#EE384E" stroke-width="0.957265" stroke-miterlimit="10"/>
<path d="M399.371 122.263C399.371 122.263 388.919 125.747 389.165 137.3C389.165 137.294 398.707 135.767 399.371 122.263Z" stroke="#EE384E" stroke-width="0.957265" stroke-miterlimit="10"/>
<path d="M373.491 150.736C373.491 150.736 380.569 143.433 374.662 132.749C374.662 132.742 366.442 137.273 373.491 150.736Z" stroke="#EE384E" stroke-width="0.957265" stroke-miterlimit="10"/>
<path d="M353.362 163.631C353.362 163.631 361.733 157.854 358.03 146.219C358.03 146.219 349.084 149.052 353.362 163.631Z" stroke="#EE384E" stroke-width="0.957265" stroke-miterlimit="10"/>
<path d="M353.472 164.042C353.472 164.042 362.192 158.805 371.26 166.985C371.26 166.985 364.984 173.966 353.472 164.042Z" stroke="#EE384E" stroke-width="0.957265" stroke-miterlimit="10"/>
<path d="M373.505 150.592C373.505 150.592 381.486 144.289 391.52 151.243C391.52 151.243 386.188 158.963 373.505 150.592Z" stroke="#EE384E" stroke-width="0.957265" stroke-miterlimit="10"/>
<path d="M42.8913 131.742C42.8913 131.742 35.5746 131.612 35.6978 125.288C35.821 118.964 43.5826 113.523 48.0041 116.206C52.4188 118.889 52.0903 123.18 55.8684 121.359C59.6465 119.539 70.7756 116.117 72.2335 121.777C73.6913 127.444 68.4348 131.448 74.7591 135.534C81.0833 139.62 92.9311 132.783 92.6436 144.843C92.3561 156.903 86.7848 177.429 70.4471 168.538C54.1094 159.647 70.6935 151.824 56.6076 148.751C42.5217 145.678 48.9555 140.702 48.3737 135.753C47.792 130.805 42.8913 131.742 42.8913 131.742Z" fill="#EE384E"/>
<path d="M55.3618 130.49C55.3618 130.49 67.3807 145.651 82.2126 154.726C97.0445 163.802 101.699 163.323 101.699 163.323" stroke="white" stroke-width="0.957265" stroke-miterlimit="10" stroke-linecap="round" stroke-linejoin="round"/>
<path d="M72.4249 99.4848C72.4249 99.4848 70.2689 107.041 76.2989 105.501C82.3288 103.961 85.8879 104.858 86.4834 111.072C87.0789 117.287 90.1931 120.388 93.8754 120.36C97.5577 120.333 104.272 119.197 104.635 127.691C104.998 136.185 106.866 152.639 97.6124 154.131C88.3588 155.623 76.9354 146.807 76.6342 140.401C76.3399 133.995 79.8853 129.58 73.8349 125.815C67.7844 122.051 65.0124 128.307 60.4882 122.277C55.9709 116.247 50.8444 110.539 57.7504 102.654C63.9515 95.5767 72.5481 95.0428 72.4249 99.4848Z" stroke="#023EA1" stroke-width="0.957265" stroke-miterlimit="10"/>
<path d="M68.667 107.863C68.667 107.863 96.7977 145.932 106.202 153.919" stroke="#023EA1" stroke-width="0.957265" stroke-miterlimit="10"/>
<path d="M94.5801 126.288L92.2736 138.403L81.959 139.73" stroke="#023EA1" stroke-width="0.957265" stroke-miterlimit="10"/>
<path d="M79.6045 109.971L76.6477 118.465L68.1675 120.628" stroke="#023EA1" stroke-width="0.957265" stroke-miterlimit="10"/>
<path d="M99.098 238.591C123.763 238.591 143.758 218.597 143.758 193.931C143.758 169.266 123.763 149.271 99.098 149.271C74.4329 149.271 54.438 169.266 54.438 193.931C54.438 218.597 74.4329 238.591 99.098 238.591Z" stroke="#003EB0" stroke-width="0.957265" stroke-miterlimit="10" stroke-dasharray="5.74 5.74"/>
<path d="M55.3619 205.499C59.2856 205.499 62.4664 202.302 62.4664 198.36C62.4664 194.417 59.2856 191.221 55.3619 191.221C51.4381 191.221 48.2573 194.417 48.2573 198.36C48.2573 202.302 51.4381 205.499 55.3619 205.499Z" fill="#FCBE42"/>
<path d="M51.9736 197.58L55.3822 201.83L57.0385 197.011" stroke="white" stroke-width="0.957265" stroke-miterlimit="10"/>
<path d="M342.623 256.934C367.288 256.934 387.283 236.939 387.283 212.274C387.283 187.609 367.288 167.614 342.623 167.614C317.958 167.614 297.963 187.609 297.963 212.274C297.963 236.939 317.958 256.934 342.623 256.934Z" stroke="#003EB0" stroke-width="0.957265" stroke-miterlimit="10" stroke-dasharray="5.74 5.74"/>
<path d="M382.429 212.278L387.278 217.127L392.128 212.278L387.278 207.428L382.429 212.278Z" fill="#EE384E"/>
<path d="M240.437 24.0079L245.287 28.8573L250.136 24.0079L245.287 19.1585L240.437 24.0079Z" fill="#EE384E"/>
<path d="M59.3205 52.1579L64.1699 57.0073L69.0193 52.1579L64.1699 47.3086L59.3205 52.1579Z" fill="#003EB0"/>
<path d="M380.097 46.5635L367.558 41.4575L365.436 46.5361C364.868 45.7148 363.916 45.1741 362.842 45.1741C361.096 45.1741 359.687 46.5909 359.687 48.3293C359.687 50.0747 361.103 51.4846 362.842 51.4846C363.027 51.4846 363.211 51.4641 363.389 51.4367L361.281 56.4948L366.572 58.6781C366.558 58.5549 366.545 58.4317 366.545 58.3017C366.545 56.5564 367.961 55.1464 369.7 55.1464C371.438 55.1464 372.855 56.5632 372.855 58.3017C372.855 59.3078 372.383 60.1976 371.657 60.7725L376.695 62.8533C376.695 62.8533 380.008 54.8384 381.486 50.9165C382.971 47.0015 380.097 46.5635 380.097 46.5635Z" stroke="#EE384E" stroke-width="0.957265" stroke-miterlimit="10"/>
<path d="M341.399 34.1881L354.41 30.4442L352.939 25.1466C353.897 25.4409 354.971 25.2766 355.82 24.6127C357.189 23.5313 357.429 21.5464 356.347 20.1775C355.266 18.8086 353.281 18.5691 351.912 19.6505C351.768 19.7669 351.631 19.8901 351.515 20.0269L350.043 14.7499L344.54 16.3104C344.629 16.3994 344.712 16.4884 344.794 16.591C345.875 17.9599 345.636 19.9448 344.267 21.0262C342.898 22.1077 340.913 21.8681 339.831 20.4992C339.209 19.7121 339.031 18.7197 339.243 17.8162L334 19.3014C334 19.3014 336.355 27.6448 337.614 31.642C338.873 35.6391 341.399 34.1881 341.399 34.1881Z" stroke="#023EA1" stroke-width="0.957265" stroke-miterlimit="10"/>
<path d="M364.402 70.7378H79.3789V265.387H364.402V70.7378Z" fill="#0064B7"/>
<path d="M356.914 75.0156H86.8667V257.365H356.914V75.0156Z" fill="white" stroke="#DCE8F5" stroke-width="0.957265" stroke-miterlimit="10"/>
<path d="M356.914 75.0156H86.8667V253.088H356.914V75.0156Z" fill="white" stroke="#DCE8F5" stroke-width="0.957265" stroke-miterlimit="10"/>
<path d="M356.914 74.1124H86.8667V248.44H356.914V74.1124Z" fill="white" stroke="#DCE8F5" stroke-width="0.957265" stroke-miterlimit="10"/>
<path d="M138.351 131.968H109.173C107.482 131.968 106.113 130.599 106.113 128.909V126.465C106.113 124.775 107.482 123.406 109.173 123.406H138.351C140.041 123.406 141.41 124.775 141.41 126.465V128.909C141.41 130.599 140.041 131.968 138.351 131.968Z" fill="#DCE8F5"/>
<path d="M174.236 108.499H159.596C158.768 108.499 158.097 107.828 158.097 107V105.802C158.097 104.974 158.768 104.303 159.596 104.303H174.236C175.065 104.303 175.735 104.974 175.735 105.802V107C175.742 107.828 175.065 108.499 174.236 108.499Z" fill="#DCE8F5"/>
<path d="M201.669 108.499H187.028C186.2 108.499 185.529 107.828 185.529 107V105.802C185.529 104.974 186.2 104.303 187.028 104.303H201.669C202.497 104.303 203.167 104.974 203.167 105.802V107C203.167 107.828 202.497 108.499 201.669 108.499Z" fill="#DCE8F5"/>
<path d="M228.944 108.499H214.304C213.475 108.499 212.805 107.828 212.805 107V105.802C212.805 104.974 213.475 104.303 214.304 104.303H228.944C229.772 104.303 230.443 104.974 230.443 105.802V107C230.443 107.828 229.772 108.499 228.944 108.499Z" fill="#DCE8F5"/>
<path d="M256.137 108.499H241.496C240.668 108.499 239.998 107.828 239.998 107V105.802C239.998 104.974 240.668 104.303 241.496 104.303H256.137C256.965 104.303 257.636 104.974 257.636 105.802V107C257.636 107.828 256.965 108.499 256.137 108.499Z" fill="#DCE8F5"/>
<path d="M283.563 108.499H268.922C268.094 108.499 267.423 107.828 267.423 107V105.802C267.423 104.974 268.094 104.303 268.922 104.303H283.563C284.391 104.303 285.061 104.974 285.061 105.802V107C285.068 107.828 284.391 108.499 283.563 108.499Z" fill="#DCE8F5"/>
<path d="M310.837 108.499H296.197C295.369 108.499 294.698 107.828 294.698 107V105.802C294.698 104.974 295.369 104.303 296.197 104.303H310.837C311.666 104.303 312.336 104.974 312.336 105.802V107C312.336 107.828 311.666 108.499 310.837 108.499Z" fill="#DCE8F5"/>
<path d="M338.03 108.499H323.39C322.562 108.499 321.891 107.828 321.891 107V105.802C321.891 104.974 322.562 104.303 323.39 104.303H338.03C338.858 104.303 339.529 104.974 339.529 105.802V107C339.529 107.828 338.858 108.499 338.03 108.499Z" fill="#DCE8F5"/>
<path d="M138.351 156.3H109.173C107.482 156.3 106.113 154.931 106.113 153.241V150.797C106.113 149.107 107.482 147.738 109.173 147.738H138.351C140.041 147.738 141.41 149.107 141.41 150.797V153.241C141.41 154.931 140.041 156.3 138.351 156.3Z" fill="#DCE8F5"/>
<path d="M138.351 181.166H109.173C107.482 181.166 106.113 179.797 106.113 178.107V175.663C106.113 173.973 107.482 172.604 109.173 172.604H138.351C140.041 172.604 141.41 173.973 141.41 175.663V178.107C141.41 179.797 140.041 181.166 138.351 181.166Z" fill="#DCE8F5"/>
<path d="M138.351 205.498H109.173C107.482 205.498 106.113 204.129 106.113 202.439V199.995C106.113 198.305 107.482 196.936 109.173 196.936H138.351C140.041 196.936 141.41 198.305 141.41 199.995V202.439C141.41 204.129 140.041 205.498 138.351 205.498Z" fill="#DCE8F5"/>
<path d="M138.351 230.898H109.173C107.482 230.898 106.113 229.529 106.113 227.838V225.395C106.113 223.704 107.482 222.335 109.173 222.335H138.351C140.041 222.335 141.41 223.704 141.41 225.395V227.838C141.41 229.529 140.041 230.898 138.351 230.898Z" fill="#DCE8F5"/>
<path d="M167.077 133.844C170.623 133.844 173.497 130.969 173.497 127.424C173.497 123.878 170.623 121.003 167.077 121.003C163.531 121.003 160.657 123.878 160.657 127.424C160.657 130.969 163.531 133.844 167.077 133.844Z" fill="#0064B7"/>
<path d="M194.352 133.844C197.897 133.844 200.772 130.969 200.772 127.424C200.772 123.878 197.897 121.003 194.352 121.003C190.806 121.003 187.932 123.878 187.932 127.424C187.932 130.969 190.806 133.844 194.352 133.844Z" fill="#0064B7"/>
<path d="M221.62 133.844C225.166 133.844 228.04 130.969 228.04 127.424C228.04 123.878 225.166 121.003 221.62 121.003C218.075 121.003 215.2 123.878 215.2 127.424C215.2 130.969 218.075 133.844 221.62 133.844Z" fill="#0064B7"/>
<path d="M276.163 133.844C279.709 133.844 282.583 130.969 282.583 127.424C282.583 123.878 279.709 121.003 276.163 121.003C272.618 121.003 269.743 123.878 269.743 127.424C269.743 130.969 272.618 133.844 276.163 133.844Z" stroke="#0064B7" stroke-width="0.957265" stroke-miterlimit="10"/>
<path d="M303.439 133.844C306.984 133.844 309.859 130.969 309.859 127.424C309.859 123.878 306.984 121.003 303.439 121.003C299.893 121.003 297.019 123.878 297.019 127.424C297.019 130.969 299.893 133.844 303.439 133.844Z" stroke="#0064B7" stroke-width="0.957265" stroke-miterlimit="10"/>
<path d="M330.707 133.844C334.253 133.844 337.127 130.969 337.127 127.424C337.127 123.878 334.253 121.003 330.707 121.003C327.161 121.003 324.287 123.878 324.287 127.424C324.287 130.969 327.161 133.844 330.707 133.844Z" stroke="#0064B7" stroke-width="0.957265" stroke-miterlimit="10"/>
<path d="M167.077 158.443C170.623 158.443 173.497 155.568 173.497 152.022C173.497 148.477 170.623 145.602 167.077 145.602C163.531 145.602 160.657 148.477 160.657 152.022C160.657 155.568 163.531 158.443 167.077 158.443Z" fill="#0064B7"/>
<path d="M194.352 158.443C197.897 158.443 200.772 155.568 200.772 152.022C200.772 148.477 197.897 145.602 194.352 145.602C190.806 145.602 187.932 148.477 187.932 152.022C187.932 155.568 190.806 158.443 194.352 158.443Z" stroke="#0064B7" stroke-width="0.957265" stroke-miterlimit="10"/>
<path d="M221.62 158.443C225.166 158.443 228.04 155.568 228.04 152.022C228.04 148.477 225.166 145.602 221.62 145.602C218.075 145.602 215.2 148.477 215.2 152.022C215.2 155.568 218.075 158.443 221.62 158.443Z" fill="#0064B7"/>
<path d="M248.896 158.443C252.441 158.443 255.316 155.568 255.316 152.022C255.316 148.477 252.441 145.602 248.896 145.602C245.35 145.602 242.476 148.477 242.476 152.022C242.476 155.568 245.35 158.443 248.896 158.443Z" stroke="#0064B7" stroke-width="0.957265" stroke-miterlimit="10"/>
<path d="M276.163 158.443C279.709 158.443 282.583 155.568 282.583 152.022C282.583 148.477 279.709 145.602 276.163 145.602C272.618 145.602 269.743 148.477 269.743 152.022C269.743 155.568 272.618 158.443 276.163 158.443Z" stroke="#0064B7" stroke-width="0.957265" stroke-miterlimit="10"/>
<path d="M303.439 158.443C306.984 158.443 309.859 155.568 309.859 152.022C309.859 148.477 306.984 145.602 303.439 145.602C299.893 145.602 297.019 148.477 297.019 152.022C297.019 155.568 299.893 158.443 303.439 158.443Z" stroke="#0064B7" stroke-width="0.957265" stroke-miterlimit="10"/>
<path d="M330.707 158.443C334.253 158.443 337.127 155.568 337.127 152.022C337.127 148.477 334.253 145.602 330.707 145.602C327.161 145.602 324.287 148.477 324.287 152.022C324.287 155.568 327.161 158.443 330.707 158.443Z" stroke="#0064B7" stroke-width="0.957265" stroke-miterlimit="10"/>
<path d="M167.077 183.041C170.623 183.041 173.497 180.167 173.497 176.621C173.497 173.076 170.623 170.201 167.077 170.201C163.531 170.201 160.657 173.076 160.657 176.621C160.657 180.167 163.531 183.041 167.077 183.041Z" fill="#0064B7"/>
<path d="M194.352 183.041C197.897 183.041 200.772 180.167 200.772 176.621C200.772 173.076 197.897 170.201 194.352 170.201C190.806 170.201 187.932 173.076 187.932 176.621C187.932 180.167 190.806 183.041 194.352 183.041Z" fill="#0064B7"/>
<path d="M221.62 183.041C225.166 183.041 228.04 180.167 228.04 176.621C228.04 173.076 225.166 170.201 221.62 170.201C218.075 170.201 215.2 173.076 215.2 176.621C215.2 180.167 218.075 183.041 221.62 183.041Z" stroke="#0064B7" stroke-width="0.957265" stroke-miterlimit="10"/>
<path d="M248.896 183.041C252.441 183.041 255.316 180.167 255.316 176.621C255.316 173.076 252.441 170.201 248.896 170.201C245.35 170.201 242.476 173.076 242.476 176.621C242.476 180.167 245.35 183.041 248.896 183.041Z" stroke="#0064B7" stroke-width="0.957265" stroke-miterlimit="10"/>
<path d="M276.163 183.041C279.709 183.041 282.583 180.167 282.583 176.621C282.583 173.076 279.709 170.201 276.163 170.201C272.618 170.201 269.743 173.076 269.743 176.621C269.743 180.167 272.618 183.041 276.163 183.041Z" stroke="#0064B7" stroke-width="0.957265" stroke-miterlimit="10"/>
<path d="M303.439 183.041C306.984 183.041 309.859 180.167 309.859 176.621C309.859 173.076 306.984 170.201 303.439 170.201C299.893 170.201 297.019 173.076 297.019 176.621C297.019 180.167 299.893 183.041 303.439 183.041Z" stroke="#0064B7" stroke-width="0.957265" stroke-miterlimit="10"/>
<path d="M330.707 183.041C334.253 183.041 337.127 180.167 337.127 176.621C337.127 173.076 334.253 170.201 330.707 170.201C327.161 170.201 324.287 173.076 324.287 176.621C324.287 180.167 327.161 183.041 330.707 183.041Z" stroke="#0064B7" stroke-width="0.957265" stroke-miterlimit="10"/>
<path d="M167.077 207.64C170.623 207.64 173.497 204.766 173.497 201.22C173.497 197.675 170.623 194.8 167.077 194.8C163.531 194.8 160.657 197.675 160.657 201.22C160.657 204.766 163.531 207.64 167.077 207.64Z" stroke="#0064B7" stroke-width="0.957265" stroke-miterlimit="10"/>
<path d="M194.352 207.64C197.897 207.64 200.772 204.766 200.772 201.22C200.772 197.675 197.897 194.8 194.352 194.8C190.806 194.8 187.932 197.675 187.932 201.22C187.932 204.766 190.806 207.64 194.352 207.64Z" fill="#0064B7"/>
<path d="M221.62 207.64C225.166 207.64 228.04 204.766 228.04 201.22C228.04 197.675 225.166 194.8 221.62 194.8C218.075 194.8 215.2 197.675 215.2 201.22C215.2 204.766 218.075 207.64 221.62 207.64Z" fill="#0064B7"/>
<path d="M248.896 207.64C252.441 207.64 255.316 204.766 255.316 201.22C255.316 197.675 252.441 194.8 248.896 194.8C245.35 194.8 242.476 197.675 242.476 201.22C242.476 204.766 245.35 207.64 248.896 207.64Z" stroke="#0064B7" stroke-width="0.957265" stroke-miterlimit="10"/>
<path d="M276.163 207.64C279.709 207.64 282.583 204.766 282.583 201.22C282.583 197.675 279.709 194.8 276.163 194.8C272.618 194.8 269.743 197.675 269.743 201.22C269.743 204.766 272.618 207.64 276.163 207.64Z" stroke="#0064B7" stroke-width="0.957265" stroke-miterlimit="10"/>
<path d="M303.439 207.64C306.984 207.64 309.859 204.766 309.859 201.22C309.859 197.675 306.984 194.8 303.439 194.8C299.893 194.8 297.019 197.675 297.019 201.22C297.019 204.766 299.893 207.64 303.439 207.64Z" stroke="#0064B7" stroke-width="0.957265" stroke-miterlimit="10"/>
<path d="M330.707 207.64C334.253 207.64 337.127 204.766 337.127 201.22C337.127 197.675 334.253 194.8 330.707 194.8C327.161 194.8 324.287 197.675 324.287 201.22C324.287 204.766 327.161 207.64 330.707 207.64Z" stroke="#0064B7" stroke-width="0.957265" stroke-miterlimit="10"/>
<path d="M167.077 232.773C170.623 232.773 173.497 229.899 173.497 226.353C173.497 222.807 170.623 219.933 167.077 219.933C163.531 219.933 160.657 222.807 160.657 226.353C160.657 229.899 163.531 232.773 167.077 232.773Z" fill="#0064B7"/>
<path d="M194.352 232.773C197.897 232.773 200.772 229.899 200.772 226.353C200.772 222.807 197.897 219.933 194.352 219.933C190.806 219.933 187.932 222.807 187.932 226.353C187.932 229.899 190.806 232.773 194.352 232.773Z" fill="#0064B7"/>
<path d="M221.62 232.773C225.166 232.773 228.04 229.899 228.04 226.353C228.04 222.807 225.166 219.933 221.62 219.933C218.075 219.933 215.2 222.807 215.2 226.353C215.2 229.899 218.075 232.773 221.62 232.773Z" fill="#0064B7" stroke="#0064B7" stroke-width="0.957265" stroke-miterlimit="10"/>
<path d="M248.896 232.773C252.441 232.773 255.316 229.899 255.316 226.353C255.316 222.807 252.441 219.933 248.896 219.933C245.35 219.933 242.476 222.807 242.476 226.353C242.476 229.899 245.35 232.773 248.896 232.773Z" stroke="#0064B7" stroke-width="0.957265" stroke-miterlimit="10"/>
<path d="M276.163 232.773C279.709 232.773 282.583 229.899 282.583 226.353C282.583 222.807 279.709 219.933 276.163 219.933C272.618 219.933 269.743 222.807 269.743 226.353C269.743 229.899 272.618 232.773 276.163 232.773Z" stroke="#0064B7" stroke-width="0.957265" stroke-miterlimit="10"/>
<path d="M303.439 232.773C306.984 232.773 309.859 229.899 309.859 226.353C309.859 222.807 306.984 219.933 303.439 219.933C299.893 219.933 297.019 222.807 297.019 226.353C297.019 229.899 299.893 232.773 303.439 232.773Z" stroke="#0064B7" stroke-width="0.957265" stroke-miterlimit="10"/>
<path d="M330.707 232.773C334.253 232.773 337.127 229.899 337.127 226.353C337.127 222.807 334.253 219.933 330.707 219.933C327.161 219.933 324.287 222.807 324.287 226.353C324.287 229.899 327.161 232.773 330.707 232.773Z" stroke="#0064B7" stroke-width="0.957265" stroke-miterlimit="10"/>
<path d="M128.707 88.3828C130.922 88.3828 132.717 86.5871 132.717 84.3719C132.717 82.1568 130.922 80.3611 128.707 80.3611C126.492 80.3611 124.696 82.1568 124.696 84.3719C124.696 86.5871 126.492 88.3828 128.707 88.3828Z" fill="#023EA1"/>
<path d="M151.704 88.3828C153.919 88.3828 155.715 86.5871 155.715 84.3719C155.715 82.1568 153.919 80.3611 151.704 80.3611C149.489 80.3611 147.693 82.1568 147.693 84.3719C147.693 86.5871 149.489 88.3828 151.704 88.3828Z" fill="#023EA1"/>
<path d="M175.229 88.3828C177.444 88.3828 179.239 86.5871 179.239 84.3719C179.239 82.1568 177.444 80.3611 175.229 80.3611C173.013 80.3611 171.218 82.1568 171.218 84.3719C171.218 86.5871 173.013 88.3828 175.229 88.3828Z" fill="#023EA1"/>
<path d="M198.226 88.3828C200.441 88.3828 202.237 86.5871 202.237 84.3719C202.237 82.1568 200.441 80.3611 198.226 80.3611C196.011 80.3611 194.215 82.1568 194.215 84.3719C194.215 86.5871 196.011 88.3828 198.226 88.3828Z" fill="#023EA1"/>
<path d="M222.291 88.3828C224.506 88.3828 226.302 86.5871 226.302 84.3719C226.302 82.1568 224.506 80.3611 222.291 80.3611C220.076 80.3611 218.28 82.1568 218.28 84.3719C218.28 86.5871 220.076 88.3828 222.291 88.3828Z" fill="#023EA1"/>
<path d="M245.281 88.3828C247.496 88.3828 249.292 86.5871 249.292 84.3719C249.292 82.1568 247.496 80.3611 245.281 80.3611C243.066 80.3611 241.271 82.1568 241.271 84.3719C241.271 86.5871 243.066 88.3828 245.281 88.3828Z" fill="#023EA1"/>
<path d="M268.813 88.3828C271.028 88.3828 272.823 86.5871 272.823 84.3719C272.823 82.1568 271.028 80.3611 268.813 80.3611C266.597 80.3611 264.802 82.1568 264.802 84.3719C264.802 86.5871 266.597 88.3828 268.813 88.3828Z" fill="#023EA1"/>
<path d="M291.81 88.3828C294.025 88.3828 295.821 86.5871 295.821 84.3719C295.821 82.1568 294.025 80.3611 291.81 80.3611C289.595 80.3611 287.799 82.1568 287.799 84.3719C287.799 86.5871 289.595 88.3828 291.81 88.3828Z" fill="#023EA1"/>
<path d="M315.868 88.3828C318.083 88.3828 319.879 86.5871 319.879 84.3719C319.879 82.1568 318.083 80.3611 315.868 80.3611C313.653 80.3611 311.857 82.1568 311.857 84.3719C311.857 86.5871 313.653 88.3828 315.868 88.3828Z" fill="#023EA1"/>
<path d="M129.165 84.6389H128.248C127.618 84.6389 127.105 84.1256 127.105 83.4959V61.7237C127.105 61.094 127.618 60.5807 128.248 60.5807H129.165C129.795 60.5807 130.308 61.094 130.308 61.7237V83.4959C130.315 84.1256 129.802 84.6389 129.165 84.6389Z" fill="#6E839D"/>
<path d="M152.163 84.6389H151.246C150.616 84.6389 150.103 84.1256 150.103 83.4959V61.7237C150.103 61.094 150.616 60.5807 151.246 60.5807H152.163C152.792 60.5807 153.306 61.094 153.306 61.7237V83.4959C153.306 84.1256 152.792 84.6389 152.163 84.6389Z" fill="#6E839D"/>
<path d="M175.687 84.6389H174.77C174.14 84.6389 173.627 84.1256 173.627 83.4959V61.7237C173.627 61.094 174.14 60.5807 174.77 60.5807H175.687C176.317 60.5807 176.83 61.094 176.83 61.7237V83.4959C176.837 84.1256 176.324 84.6389 175.687 84.6389Z" fill="#6E839D"/>
<path d="M198.684 84.6389H197.767C197.137 84.6389 196.624 84.1256 196.624 83.4959V61.7237C196.624 61.094 197.137 60.5807 197.767 60.5807H198.684C199.314 60.5807 199.827 61.094 199.827 61.7237V83.4959C199.827 84.1256 199.314 84.6389 198.684 84.6389Z" fill="#6E839D"/>
<path d="M222.75 84.6389H221.832C221.203 84.6389 220.689 84.1256 220.689 83.4959V61.7237C220.689 61.094 221.203 60.5807 221.832 60.5807H222.75C223.379 60.5807 223.893 61.094 223.893 61.7237V83.4959C223.893 84.1256 223.379 84.6389 222.75 84.6389Z" fill="#6E839D"/>
<path d="M245.74 84.6389H244.823C244.193 84.6389 243.68 84.1256 243.68 83.4959V61.7237C243.68 61.094 244.193 60.5807 244.823 60.5807H245.74C246.37 60.5807 246.883 61.094 246.883 61.7237V83.4959C246.89 84.1256 246.376 84.6389 245.74 84.6389Z" fill="#6E839D"/>
<path d="M269.271 84.6389H268.354C267.724 84.6389 267.211 84.1256 267.211 83.4959V61.7237C267.211 61.094 267.724 60.5807 268.354 60.5807H269.271C269.901 60.5807 270.414 61.094 270.414 61.7237V83.4959C270.414 84.1256 269.901 84.6389 269.271 84.6389Z" fill="#6E839D"/>
<path d="M292.262 84.6389H291.345C290.715 84.6389 290.202 84.1256 290.202 83.4959V61.7237C290.202 61.094 290.715 60.5807 291.345 60.5807H292.262C292.892 60.5807 293.405 61.094 293.405 61.7237V83.4959C293.412 84.1256 292.898 84.6389 292.262 84.6389Z" fill="#6E839D"/>
<path d="M316.327 84.6389H315.41C314.78 84.6389 314.267 84.1256 314.267 83.4959V61.7237C314.267 61.094 314.78 60.5807 315.41 60.5807H316.327C316.956 60.5807 317.47 61.094 317.47 61.7237V83.4959C317.477 84.1256 316.963 84.6389 316.327 84.6389Z" fill="#6E839D"/>
<path d="M252.557 122.16C249.566 124.508 245.699 127.533 242.893 129.682C243.81 132.112 246.144 133.837 248.895 133.837C252.441 133.837 255.315 130.962 255.315 127.417C255.308 125.24 254.22 123.317 252.557 122.16Z" stroke="#0064B7" stroke-width="0.957265" stroke-miterlimit="10"/>
<path d="M248.896 121.003C245.35 121.003 242.476 123.878 242.476 127.424C242.476 128.217 242.626 128.977 242.893 129.682C245.699 127.526 249.566 124.508 252.557 122.16C251.517 121.435 250.258 121.003 248.896 121.003Z" fill="#0064B7" stroke="#0064B7" stroke-width="0.957265" stroke-miterlimit="10"/>
<path d="M100.706 36.6458H88.4546C88.2561 36.6458 88.0918 36.8032 88.0918 37.0085V42.0529C88.0918 42.1487 88.1329 42.2377 88.1945 42.3061L89.6386 43.7503C89.7071 43.8187 89.7961 43.853 89.8919 43.853H99.2619C99.3578 43.853 99.4467 43.8119 99.5152 43.7503L100.959 42.3061C101.028 42.2377 101.062 42.1487 101.062 42.0529V37.0085C101.069 36.81 100.911 36.6458 100.706 36.6458ZM100.35 41.9023L99.1182 43.1343H90.0493L88.8173 41.9023V37.3713H100.343V41.9023H100.35Z" fill="#003EB0"/>
<path d="M101.411 38.0901L87.7218 38.8087C87.5234 38.8224 87.3728 38.9867 87.3796 39.1852C87.3865 39.3768 87.5507 39.5274 87.7424 39.5274C87.7492 39.5274 87.7561 39.5274 87.7629 39.5274L101.452 38.8087C101.65 38.8019 101.801 38.6308 101.794 38.4323C101.78 38.2338 101.609 38.0764 101.411 38.0901Z" fill="#003EB0"/>
<path d="M101.411 40.253L87.7218 40.9716C87.5234 40.9853 87.3728 41.1496 87.3796 41.3481C87.3865 41.5397 87.5507 41.6903 87.7424 41.6903C87.7492 41.6903 87.7561 41.6903 87.7629 41.6903L101.452 40.9716C101.65 40.9648 101.801 40.7937 101.794 40.5952C101.78 40.3967 101.609 40.2324 101.411 40.253Z" fill="#003EB0"/>
<path d="M94.5802 12.1497C87.8247 12.1497 82.3286 17.6457 82.3286 24.4012C82.3286 28.6516 84.4778 32.5187 88.0916 34.7774V37.0087C88.0916 37.2072 88.2559 37.3714 88.4544 37.3714H100.706C100.904 37.3714 101.069 37.2072 101.069 37.0087V34.7774C104.683 32.5187 106.832 28.6585 106.832 24.4012C106.832 17.6457 101.336 12.1497 94.5802 12.1497ZM100.521 34.2641C100.412 34.3257 100.343 34.4489 100.343 34.5721V36.6459H88.8171V34.5721C88.8171 34.4489 88.7487 34.3257 88.6392 34.2641C85.1417 32.156 83.0473 28.4668 83.0473 24.3944C83.0473 18.0359 88.2217 12.8683 94.5733 12.8683C100.932 12.8683 106.099 18.0427 106.099 24.3944C106.113 28.4668 104.025 32.156 100.521 34.2641Z" fill="#003EB0"/>
<path d="M97.9885 43.1754C97.8106 43.0864 97.5984 43.1548 97.5026 43.3328C97.4752 43.3807 96.825 44.5785 94.58 44.5785C92.3419 44.5785 91.6848 43.3875 91.6574 43.3328C91.5684 43.1548 91.3563 43.0864 91.1783 43.1754C91.0004 43.2643 90.9251 43.4834 91.014 43.6545C91.0483 43.7229 91.8627 45.2971 94.58 45.2971C97.2904 45.2971 98.1117 43.7229 98.146 43.6545C98.2349 43.4765 98.1665 43.2643 97.9885 43.1754Z" fill="#003EB0"/>
<path d="M79.0914 24.0382H71.8842C71.6858 24.0382 71.5215 24.1956 71.5215 24.401C71.5215 24.5995 71.6858 24.7637 71.8842 24.7637H79.0914C79.2899 24.7637 79.4542 24.5995 79.4542 24.401C79.4542 24.2025 79.2899 24.0382 79.0914 24.0382Z" fill="#DE051F"/>
<path d="M117.283 24.0382H110.076C109.878 24.0382 109.713 24.2025 109.713 24.401C109.713 24.5995 109.878 24.7637 110.076 24.7637H117.283C117.482 24.7637 117.646 24.5995 117.646 24.401C117.639 24.2025 117.482 24.0382 117.283 24.0382Z" fill="#DE051F"/>
<path d="M81.4803 31.9639C81.3845 31.7928 81.1587 31.7312 80.9876 31.8339L74.7454 35.4341C74.5743 35.5367 74.5127 35.7557 74.6154 35.9269C74.6838 36.0432 74.8002 36.1048 74.9302 36.1048C74.9918 36.1048 75.0534 36.0911 75.1082 36.0569L81.3503 32.4567C81.5214 32.3609 81.583 32.135 81.4803 31.9639Z" fill="#DE051F"/>
<path d="M114.553 12.8682C114.45 12.6971 114.231 12.6355 114.06 12.7382L107.818 16.3384C107.647 16.441 107.585 16.66 107.688 16.8312C107.756 16.9475 107.872 17.0091 107.996 17.0091C108.057 17.0091 108.119 16.9954 108.174 16.9612L114.409 13.361C114.594 13.2652 114.655 13.0462 114.553 12.8682Z" fill="#DE051F"/>
<path d="M106.114 4.42898C105.943 4.33316 105.723 4.38791 105.621 4.55902L102.021 10.8012C101.918 10.9723 101.98 11.1913 102.151 11.294C102.205 11.3282 102.267 11.3419 102.329 11.3419C102.452 11.3419 102.575 11.2803 102.643 11.1639L106.244 4.92178C106.346 4.75067 106.285 4.53165 106.114 4.42898Z" fill="#DE051F"/>
<path d="M94.5874 1.34204C94.3889 1.34204 94.2246 1.50631 94.2246 1.7048V8.912C94.2246 9.11048 94.3889 9.27475 94.5874 9.27475C94.7859 9.27475 94.9501 9.11048 94.9501 8.912V1.7048C94.9433 1.50631 94.7859 1.34204 94.5874 1.34204Z" fill="#DE051F"/>
<path d="M87.1543 10.8011L83.5541 4.56585C83.4583 4.39474 83.2324 4.33314 83.0613 4.43581C82.8902 4.53847 82.8286 4.7575 82.9313 4.92861L86.5315 11.1707C86.5999 11.2871 86.7163 11.3487 86.8463 11.3487C86.9079 11.3487 86.9695 11.335 87.0243 11.3008C87.1885 11.1913 87.2501 10.9722 87.1543 10.8011Z" fill="#DE051F"/>
<path d="M114.423 35.4341L108.18 31.8339C108.009 31.7381 107.79 31.7928 107.688 31.9639C107.585 32.135 107.647 32.3541 107.818 32.4567L114.06 36.0569C114.115 36.0911 114.176 36.1048 114.238 36.1048C114.361 36.1048 114.484 36.0432 114.553 35.9269C114.655 35.7558 114.594 35.5367 114.423 35.4341Z" fill="#DE051F"/>
<path d="M81.3503 16.3384L75.1082 12.7382C74.9371 12.6424 74.718 12.6971 74.6154 12.8682C74.5127 13.0393 74.5743 13.2584 74.7454 13.361L80.9876 16.9612C81.0423 16.9954 81.1039 17.0091 81.1655 17.0091C81.2887 17.0091 81.4119 16.9475 81.4803 16.8312C81.583 16.6601 81.5214 16.441 81.3503 16.3384Z" fill="#DE051F"/>
<path d="M95.6345 36.6456V25.0238C95.6345 25.0238 95.4702 19.5414 98.4612 19.5414C101.452 19.5414 100.07 25.2428 94.3066 25.2428" stroke="#003EB0" stroke-width="0.957265" stroke-miterlimit="10"/>
<path d="M92.9719 36.6458V25.0239C92.9719 25.0239 93.1362 19.5415 90.1452 19.5415C87.1542 19.5415 88.5367 25.2429 94.2998 25.2429" stroke="#003EB0" stroke-width="0.957265" stroke-miterlimit="10"/>
<path d="M105.456 246.456C105.456 246.456 109.255 244.909 108.974 240.542C108.694 236.175 106.442 233.082 111.089 234.348C115.737 235.614 117.297 236.175 120.671 235.477C124.046 234.772 126.852 233.362 125.38 237.729C123.902 242.096 122.314 245.751 125.784 246.456C129.254 247.161 132.985 244.532 133.436 251.363C133.888 258.201 128.371 265.88 119.453 266.161C110.535 266.441 106.592 262.745 106.592 262.745C106.592 262.745 104.197 259.371 107.927 258.543C111.657 257.715 115.456 256.134 113.56 254.388C111.664 252.643 105.463 252.506 105.463 252.506C105.463 252.506 97.7152 250.966 105.456 246.456Z" fill="#649EEA"/>
<path d="M146.222 247.585C145.592 243.232 146.078 240.09 154.175 238.913C162.272 237.736 166.988 242.588 167.481 247.585C167.973 252.581 160.937 254.395 160.937 254.395C160.937 254.395 155.941 255.819 158.473 260.185C161.006 264.552 162.156 268.775 156.406 269.405C150.657 270.041 144.367 268.522 140.856 266.181C137.351 263.84 133.758 257.927 137.776 254.833C137.776 254.833 138.905 254.06 142.772 253.847C146.639 253.635 146.222 247.585 146.222 247.585Z" fill="#023EA1"/>
<path d="M117.735 246.88C117.735 246.88 124.456 262.081 125.373 272.43" stroke="#023EA1" stroke-width="0.957265" stroke-miterlimit="10"/>
<path d="M155.113 249.371C155.113 249.371 143.217 267.037 140.404 272.95" stroke="#649EEA" stroke-width="0.957265" stroke-miterlimit="10"/>
<path d="M121.226 271.239H148.535C148.535 271.239 151.526 271.451 151.28 275.531C151.054 279.288 146.283 278.481 143.819 278.481C141.355 278.481 120.637 278.481 120.637 278.481C120.637 278.481 117.283 279.056 117.283 275.25C117.283 271.444 118.549 271.239 121.226 271.239Z" fill="#0054A5"/>
<path d="M120.637 278.481L124.778 302.607H143.114L146.222 284.497L120.671 278.481H120.637Z" fill="#0054A5"/>
<path d="M120.671 278.481L146.222 284.497L147.255 278.481H120.671Z" fill="#006AD5"/>
<path d="M132.417 272.15C132.417 272.15 133.799 245.374 141.78 228.578" stroke="#FCBE42" stroke-width="0.957265" stroke-miterlimit="10"/>
<path d="M148.35 218.914C148.35 218.914 149.008 227.134 140.986 230.344C140.986 230.344 139.247 223.321 148.35 218.914Z" fill="#FCBE42"/>
<path d="M136.317 245.073C136.317 245.073 139.274 238.058 148.364 239.002C148.364 238.995 147.652 245.983 136.317 245.073Z" fill="#FCBE42"/>
<path d="M133.327 262.711C133.327 262.711 134.853 255.257 143.956 254.402C143.956 254.395 144.627 261.39 133.327 262.711Z" fill="#FCBE42"/>
<path d="M133.012 262.759C133.012 262.759 134.066 255.224 125.777 251.37C125.777 251.37 122.807 257.729 133.012 262.759Z" fill="#FCBE42"/>
<path d="M136.414 245.018C136.414 245.018 138.419 237.674 130.692 232.801C130.692 232.801 126.934 238.735 136.414 245.018Z" fill="#FCBE42"/>
<path d="M319.77 163.699L327.435 171.94C327.435 171.94 330.077 174.807 327.435 177.367C324.793 179.934 322.966 181.775 322.966 181.775L319.77 163.699Z" fill="#FFBF99"/>
<path d="M253.015 130.346L250.291 128.183C250.291 128.183 249.84 127.773 249.395 127.964C248.95 128.156 248.916 128.621 249.593 129.135C250.264 129.655 252.283 131.304 252.283 131.304L253.015 130.346Z" fill="#0064B7"/>
<path d="M253.419 129.292L251.414 131.92L261.783 145.267L268.902 135.534L253.419 129.292Z" fill="#649EEA"/>
<path d="M268.901 135.534L293.069 153.795C291.228 156.321 288.285 160.598 286.293 163.528L261.783 145.267L268.901 135.534Z" fill="#0064B7"/>
<path d="M286.293 163.528C288.285 160.598 291.228 156.314 293.069 153.795L322.856 176.299L317.97 187.12L286.293 163.528Z" fill="#649EEA"/>
<path d="M328.482 180.557L329.276 181.159C329.276 181.159 330.563 182.11 329.502 183.445C328.202 185.081 324.547 190.406 324.547 190.406C324.547 190.406 323.691 191.61 323.014 191.09C322.343 190.563 320.769 189.215 320.769 189.215L317.969 187.134L322.856 176.313L328.482 180.557Z" fill="#0064B7"/>
<path d="M304.739 201.316L315.984 294.873L324.026 294.093L325.183 198.88L304.739 201.316Z" fill="#0064E1"/>
<path d="M316.991 201.316L295.869 294.873L287.827 294.093L293.357 198.88L316.991 201.316Z" fill="#003EB0"/>
<path d="M310.043 142.83C310.043 142.83 310.735 146.725 312.199 150.633C313.664 154.541 314.403 156.108 314.403 156.108C314.403 156.108 309.633 161.433 304.999 160.557C300.365 159.681 300.434 156.581 300.434 156.581C300.434 156.581 304.773 153.186 304.876 148.538C304.978 143.891 304.978 143.891 304.978 143.891L310.043 142.83Z" fill="#FFBF99"/>
<path d="M300.592 132.16C300.592 132.16 298.196 135.206 298.08 140.633C297.963 146.061 298.655 149.948 300.975 150.003C303.302 150.051 307.984 148.607 308.791 147.074C309.599 145.541 311.153 145.575 311.221 142.474C311.289 139.374 307.566 132.317 304.466 132.249C301.365 132.173 300.592 132.16 300.592 132.16Z" fill="#FFBF99"/>
<path d="M298.264 132.105C298.264 132.105 296.074 125.856 297.641 125.11C299.209 124.371 302.275 125.986 303.035 126.78C303.794 127.574 305.341 127.608 306.115 127.622C306.115 127.622 313.863 127.793 315.382 129.374C316.902 130.955 316.881 131.736 316.867 132.509C316.854 133.282 316.792 136.321 317.524 137.95C317.839 138.655 318.216 141.845 316.6 144.911C314.985 147.977 313.418 148.717 312.637 148.703C311.864 148.689 311.166 148.669 311.104 147.895C311.043 147.053 310.762 145.869 310.399 144.781C310.05 143.741 309.694 141.667 309.694 141.667C309.694 141.667 309.003 137.772 307.49 136.191C305.971 134.61 305.971 134.61 302.891 133.761C299.797 132.92 298.99 134.453 298.264 132.105Z" fill="#170856"/>
<path d="M308.593 137.992C307.415 139.285 308.914 141.647 308.914 141.647C308.914 141.647 311.221 142.475 311.276 140.148C311.33 137.82 309.77 136.698 308.593 137.992Z" fill="#FFBF99"/>
<path d="M324.02 300.191C324.02 300.191 324.472 301.457 321.864 301.437C319.256 301.416 305.068 301.286 305.068 301.286C305.068 301.286 302.337 300.718 304.876 299.513C307.415 298.315 315.019 294.975 315.019 294.975C315.019 294.975 315.594 294.825 315.601 293.367L324.205 293.442L324.02 300.191Z" fill="#170856"/>
<path d="M296.3 300.191C296.3 300.191 296.752 301.457 294.144 301.437C291.536 301.416 277.348 301.286 277.348 301.286C277.348 301.286 274.617 300.718 277.156 299.513C279.695 298.315 287.3 294.975 287.3 294.975C287.3 294.975 287.875 294.825 287.881 293.367L296.485 293.442L296.3 300.191Z" fill="#170856"/>
<path d="M304.226 154.603C304.226 154.603 303.384 153.912 302.419 154.678C301.454 155.445 298.1 157.916 296.457 161.119C294.815 164.322 294.26 168.744 293.699 179.086C293.138 189.428 293.227 200.611 293.227 200.611L325.273 201.309C325.273 201.309 326.286 182.501 323.267 170.934C320.249 159.367 315.725 155.349 314.718 154.843C313.712 154.343 312.706 155.342 312.706 155.342C312.706 155.342 308.305 159.387 304.226 154.603Z" fill="#FCBE42"/>
<path d="M290.995 164.384L283.932 172.029C283.932 172.029 283.343 173.206 282.166 171.44C280.989 169.674 276.28 161.441 276.28 159.086C276.28 156.732 276.28 154.966 275.691 153.788C275.103 152.611 273.925 150.845 273.925 150.845C273.925 150.845 272.748 149.079 272.748 150.257C272.748 151.434 272.748 153.2 272.159 153.2C271.571 153.2 268.039 149.668 268.039 149.668C268.039 149.668 268.039 155.554 269.216 156.143C270.394 156.732 272.159 157.909 272.159 159.675C272.159 161.441 277.457 176.738 278.634 179.092C279.811 181.447 282.166 181.447 284.52 180.27C286.875 179.092 296.875 170.858 296.875 170.858L290.995 164.384Z" fill="#FFBF99"/>
<path d="M289.141 164.643C289.141 164.643 299.729 154.644 304.438 158.169C309.147 161.7 296.204 173.466 296.204 173.466C296.204 173.466 289.729 166.991 289.141 164.643Z" fill="#F79F03"/>
</svg>
