<svg width="480" height="365" viewBox="0 0 480 365" fill="none" xmlns="http://www.w3.org/2000/svg">
<g clip-path="url(#clip0_3706_3458)">
<path d="M222.434 150.695C251.203 150.695 274.525 127.39 274.525 98.6406C274.525 69.8916 251.203 46.5859 222.434 46.5859C193.664 46.5859 170.342 69.8916 170.342 98.6406C170.342 127.39 193.664 150.695 222.434 150.695Z" stroke="#DE051F" stroke-width="0.965326" stroke-miterlimit="10" stroke-dasharray="5.79 5.79"/>
<path d="M235.05 49.1479C235.904 44.655 232.934 40.3176 228.416 39.4601C223.898 38.6026 219.544 41.5497 218.69 46.0426C217.836 50.5355 220.806 54.8729 225.324 55.7304C229.841 56.5879 234.196 53.6408 235.05 49.1479Z" fill="#023EA1"/>
<path d="M224.229 44.5278L226.409 50.0644L230.472 45.7165" stroke="white" stroke-width="0.965326" stroke-miterlimit="10"/>
<path d="M424.164 129.092C424.164 129.092 424.308 122.207 430.304 122.398C436.299 122.59 441.432 129.961 438.878 134.078C436.323 138.194 432.26 137.843 433.968 141.417C435.676 144.991 438.894 155.506 433.521 156.806C428.148 158.107 424.364 153.113 420.476 159.024C416.588 164.936 423.031 176.152 411.607 175.738C400.175 175.323 380.743 169.842 389.213 154.573C397.684 139.303 405.052 154.995 408.006 141.784C410.96 128.573 415.654 134.676 420.348 134.19C425.035 133.719 424.164 129.092 424.164 129.092Z" fill="#023EA1"/>
<path d="M425.322 140.843C425.322 140.843 410.92 151.972 402.274 165.821C393.628 179.67 394.075 184.05 394.075 184.05" stroke="white" stroke-width="0.965326" stroke-miterlimit="10" stroke-linecap="round" stroke-linejoin="round"/>
<path d="M177.375 45.6206C177.375 45.6206 179.531 37.9381 172.881 36.0872C166.231 34.2364 158.112 40.6425 159.541 46.0993C160.97 51.5561 165.552 52.5453 162.47 55.9278C159.389 59.3104 152.324 69.857 157.792 73.1518C163.261 76.4466 169.089 72.2024 171.38 80.0924C173.671 87.9824 162.822 98.2098 175.515 101.68C188.209 105.15 211.4 105.741 207.225 85.9002C203.042 66.0596 189.678 80.9301 190.875 65.2618C192.073 49.5935 184.856 54.7471 179.866 52.6011C174.877 50.4551 177.375 45.6206 177.375 45.6206Z" fill="#FCBE42"/>
<path d="M172.162 58.2573C172.162 58.2573 184.249 75.5451 189.095 93.8699C193.941 112.195 191.985 116.91 191.985 116.91" stroke="white" stroke-width="0.965326" stroke-miterlimit="10" stroke-linecap="round" stroke-linejoin="round"/>
<path d="M382.674 199.113C382.674 199.113 420.236 180.82 439.468 159.145" stroke="#EE384E" stroke-width="0.965326" stroke-miterlimit="10"/>
<path d="M449.327 143.843C449.327 143.843 437.137 147.903 437.424 161.37C437.424 161.362 448.553 159.583 449.327 143.843Z" stroke="#EE384E" stroke-width="0.965326" stroke-miterlimit="10"/>
<path d="M419.142 177.03C419.142 177.03 427.397 168.518 420.507 156.065C420.507 156.057 410.919 161.338 419.142 177.03Z" stroke="#EE384E" stroke-width="0.965326" stroke-miterlimit="10"/>
<path d="M395.663 192.06C395.663 192.06 405.427 185.327 401.108 171.765C401.108 171.765 390.674 175.068 395.663 192.06Z" stroke="#EE384E" stroke-width="0.965326" stroke-miterlimit="10"/>
<path d="M395.791 192.539C395.791 192.539 405.961 186.436 416.539 195.969C416.539 195.969 409.218 204.106 395.791 192.539Z" stroke="#EE384E" stroke-width="0.965326" stroke-miterlimit="10"/>
<path d="M419.158 176.863C419.158 176.863 428.466 169.516 440.17 177.621C440.17 177.621 433.951 186.62 419.158 176.863Z" stroke="#EE384E" stroke-width="0.965326" stroke-miterlimit="10"/>
<path d="M33.5319 154.891C33.5319 154.891 24.9977 154.74 25.1414 147.368C25.2851 139.997 34.3382 133.655 39.4955 136.782C44.6447 139.909 44.2615 144.911 48.6683 142.789C53.0751 140.667 66.056 136.678 67.7565 143.276C69.4569 149.881 63.3257 154.548 70.7023 159.311C78.0789 164.074 91.8981 156.104 91.5628 170.161C91.2275 184.217 84.729 208.143 65.6728 197.78C46.6166 187.417 65.9602 178.298 49.5305 174.716C33.1008 171.134 40.6052 165.334 39.9266 159.566C39.248 153.798 33.5319 154.891 33.5319 154.891Z" fill="#EE384E"/>
<path d="M48.0771 153.432C48.0771 153.432 62.0959 171.102 79.3958 181.681C96.6956 192.259 102.124 191.701 102.124 191.701" stroke="white" stroke-width="0.965326" stroke-miterlimit="10" stroke-linecap="round" stroke-linejoin="round"/>
<path d="M67.9799 117.293C67.9799 117.293 65.4652 126.1 72.4985 124.305C79.5318 122.51 83.6831 123.555 84.3777 130.799C85.0722 138.043 88.7047 141.657 92.9997 141.625C97.2947 141.593 105.126 140.269 105.549 150.169C105.973 160.069 108.152 179.248 97.3586 180.987C86.5651 182.726 73.2409 172.451 72.8897 164.984C72.5464 157.516 76.6818 152.371 69.6245 147.983C62.5672 143.595 59.334 150.887 54.057 143.859C48.788 136.83 42.8085 130.177 50.8637 120.986C58.0966 112.737 68.1236 112.115 67.9799 117.293Z" stroke="#023EA1" stroke-width="0.965326" stroke-miterlimit="10"/>
<path d="M63.5967 127.058C63.5967 127.058 96.4082 171.43 107.377 180.74" stroke="#023EA1" stroke-width="0.965326" stroke-miterlimit="10"/>
<path d="M93.8218 148.534L91.1315 162.655L79.1006 164.202" stroke="#023EA1" stroke-width="0.965326" stroke-miterlimit="10"/>
<path d="M76.3543 129.515L72.9055 139.415L63.0142 141.936" stroke="#023EA1" stroke-width="0.965326" stroke-miterlimit="10"/>
<path d="M99.0912 279.432C127.86 279.432 151.182 256.126 151.182 227.377C151.182 198.628 127.86 175.323 99.0912 175.323C70.322 175.323 47 198.628 47 227.377C47 256.126 70.322 279.432 99.0912 279.432Z" stroke="#003EB0" stroke-width="0.965326" stroke-miterlimit="10" stroke-dasharray="5.79 5.79"/>
<path d="M48.0772 240.86C52.6538 240.86 56.3639 237.134 56.3639 232.539C56.3639 227.944 52.6538 224.218 48.0772 224.218C43.5006 224.218 39.7905 227.944 39.7905 232.539C39.7905 237.134 43.5006 240.86 48.0772 240.86Z" fill="#FCBE42"/>
<path d="M44.126 231.629L48.1017 236.584L50.0336 230.967" stroke="white" stroke-width="0.965326" stroke-miterlimit="10"/>
<path d="M383.138 300.812C411.907 300.812 435.229 277.506 435.229 248.757C435.229 220.008 411.907 196.703 383.138 196.703C354.369 196.703 331.047 220.008 331.047 248.757C331.047 277.506 354.369 300.812 383.138 300.812Z" stroke="#003EB0" stroke-width="0.965326" stroke-miterlimit="10" stroke-dasharray="5.79 5.79"/>
<path d="M429.567 248.761L435.224 254.414L440.88 248.761L435.224 243.109L429.567 248.761Z" fill="#EE384E"/>
<path d="M263.949 29.3184L269.605 34.9707L275.261 29.3184L269.605 23.666L263.949 29.3184Z" fill="#EE384E"/>
<path d="M52.6953 62.1299L58.3516 67.7822L64.0079 62.1299L58.3516 56.4776L52.6953 62.1299Z" fill="#003EB0"/>
<path d="M426.847 55.6091L412.221 49.6577L409.747 55.5772C409.084 54.6199 407.974 53.9896 406.721 53.9896C404.685 53.9896 403.041 55.641 403.041 57.6674C403.041 59.7017 404.693 61.3451 406.721 61.3451C406.936 61.3451 407.152 61.3212 407.36 61.2892L404.901 67.1848L411.072 69.7297C411.056 69.5861 411.04 69.4425 411.04 69.2909C411.04 67.2566 412.692 65.6132 414.72 65.6132C416.748 65.6132 418.4 67.2646 418.4 69.2909C418.4 70.4636 417.85 71.5007 417.003 72.1709L422.879 74.5961C422.879 74.5961 426.743 65.2542 428.467 60.6829C430.2 56.1197 426.847 55.6091 426.847 55.6091Z" stroke="#EE384E" stroke-width="0.965326" stroke-miterlimit="10"/>
<path d="M381.71 41.1841L396.886 36.8203L395.17 30.6455C396.287 30.9886 397.541 30.7971 398.53 30.0233C400.127 28.7628 400.407 26.4492 399.145 24.8537C397.884 23.2581 395.569 22.9789 393.972 24.2394C393.804 24.375 393.645 24.5186 393.509 24.6782L391.793 18.5273L385.374 20.3463C385.478 20.45 385.574 20.5537 385.669 20.6734C386.931 22.2689 386.651 24.5824 385.055 25.8429C383.458 27.1034 381.143 26.8242 379.881 25.2286C379.155 24.3112 378.947 23.1544 379.195 22.1014L373.08 23.8325C373.08 23.8325 375.826 33.5574 377.295 38.2164C378.764 42.8754 381.71 41.1841 381.71 41.1841Z" stroke="#023EA1" stroke-width="0.965326" stroke-miterlimit="10"/>
<path d="M408.541 83.7856H76.0908V310.664H408.541V83.7856Z" fill="#0064B7"/>
<path d="M399.807 88.772H84.8247V301.315H399.807V88.772Z" fill="white" stroke="#DCE8F5" stroke-width="0.965326" stroke-miterlimit="10"/>
<path d="M399.807 88.772H84.8247V296.329H399.807V88.772Z" fill="white" stroke="#DCE8F5" stroke-width="0.965326" stroke-miterlimit="10"/>
<path d="M399.807 87.7192H84.8247V290.912H399.807V87.7192Z" fill="white" stroke="#DCE8F5" stroke-width="0.965326" stroke-miterlimit="10"/>
<path d="M144.875 155.154H110.842C108.871 155.154 107.274 153.559 107.274 151.588V148.74C107.274 146.77 108.871 145.174 110.842 145.174H144.875C146.847 145.174 148.444 146.77 148.444 148.74V151.588C148.444 153.559 146.847 155.154 144.875 155.154Z" fill="#DCE8F5"/>
<path d="M186.732 127.799H169.656C168.69 127.799 167.907 127.017 167.907 126.052V124.656C167.907 123.691 168.69 122.909 169.656 122.909H186.732C187.698 122.909 188.48 123.691 188.48 124.656V126.052C188.488 127.017 187.698 127.799 186.732 127.799Z" fill="#DCE8F5"/>
<path d="M218.729 127.799H201.653C200.687 127.799 199.904 127.017 199.904 126.052V124.656C199.904 123.691 200.687 122.909 201.653 122.909H218.729C219.695 122.909 220.477 123.691 220.477 124.656V126.052C220.477 127.017 219.695 127.799 218.729 127.799Z" fill="#DCE8F5"/>
<path d="M250.542 127.799H233.466C232.5 127.799 231.718 127.017 231.718 126.052V124.656C231.718 123.691 232.5 122.909 233.466 122.909H250.542C251.508 122.909 252.291 123.691 252.291 124.656V126.052C252.291 127.017 251.508 127.799 250.542 127.799Z" fill="#DCE8F5"/>
<path d="M282.26 127.799H265.184C264.218 127.799 263.436 127.017 263.436 126.052V124.656C263.436 123.691 264.218 122.909 265.184 122.909H282.26C283.226 122.909 284.009 123.691 284.009 124.656V126.052C284.009 127.017 283.226 127.799 282.26 127.799Z" fill="#DCE8F5"/>
<path d="M314.25 127.799H297.173C296.207 127.799 295.425 127.017 295.425 126.052V124.656C295.425 123.691 296.207 122.909 297.173 122.909H314.25C315.216 122.909 315.998 123.691 315.998 124.656V126.052C316.006 127.017 315.216 127.799 314.25 127.799Z" fill="#DCE8F5"/>
<path d="M346.063 127.799H328.987C328.021 127.799 327.238 127.017 327.238 126.052V124.656C327.238 123.691 328.021 122.909 328.987 122.909H346.063C347.029 122.909 347.811 123.691 347.811 124.656V126.052C347.811 127.017 347.029 127.799 346.063 127.799Z" fill="#DCE8F5"/>
<path d="M377.781 127.799H360.705C359.739 127.799 358.957 127.017 358.957 126.052V124.656C358.957 123.691 359.739 122.909 360.705 122.909H377.781C378.747 122.909 379.53 123.691 379.53 124.656V126.052C379.53 127.017 378.747 127.799 377.781 127.799Z" fill="#DCE8F5"/>
<path d="M144.875 183.515H110.842C108.871 183.515 107.274 181.92 107.274 179.949V177.101C107.274 175.131 108.871 173.535 110.842 173.535H144.875C146.847 173.535 148.444 175.131 148.444 177.101V179.949C148.444 181.92 146.847 183.515 144.875 183.515Z" fill="#DCE8F5"/>
<path d="M144.875 212.499H110.842C108.871 212.499 107.274 210.903 107.274 208.933V206.085C107.274 204.114 108.871 202.519 110.842 202.519H144.875C146.847 202.519 148.444 204.114 148.444 206.085V208.933C148.444 210.903 146.847 212.499 144.875 212.499Z" fill="#DCE8F5"/>
<path d="M144.875 240.86H110.842C108.871 240.86 107.274 239.264 107.274 237.293V234.445C107.274 232.475 108.871 230.879 110.842 230.879H144.875C146.847 230.879 148.444 232.475 148.444 234.445V237.293C148.444 239.264 146.847 240.86 144.875 240.86Z" fill="#DCE8F5"/>
<path d="M144.875 270.465H110.842C108.871 270.465 107.274 268.869 107.274 266.898V264.05C107.274 262.08 108.871 260.484 110.842 260.484H144.875C146.847 260.484 148.444 262.08 148.444 264.05V266.898C148.444 268.869 146.847 270.465 144.875 270.465Z" fill="#DCE8F5"/>
<path d="M178.381 157.34C182.517 157.34 185.87 153.99 185.87 149.857C185.87 145.724 182.517 142.374 178.381 142.374C174.246 142.374 170.893 145.724 170.893 149.857C170.893 153.99 174.246 157.34 178.381 157.34Z" fill="#0064B7"/>
<path d="M210.195 157.34C214.331 157.34 217.683 153.99 217.683 149.857C217.683 145.724 214.331 142.374 210.195 142.374C206.059 142.374 202.707 145.724 202.707 149.857C202.707 153.99 206.059 157.34 210.195 157.34Z" fill="#0064B7"/>
<path d="M242.001 157.34C246.136 157.34 249.489 153.99 249.489 149.857C249.489 145.724 246.136 142.374 242.001 142.374C237.865 142.374 234.512 145.724 234.512 149.857C234.512 153.99 237.865 157.34 242.001 157.34Z" fill="#0064B7"/>
<path d="M305.62 157.34C309.755 157.34 313.108 153.99 313.108 149.857C313.108 145.724 309.755 142.374 305.62 142.374C301.484 142.374 298.131 145.724 298.131 149.857C298.131 153.99 301.484 157.34 305.62 157.34Z" stroke="#0064B7" stroke-width="0.965326" stroke-miterlimit="10"/>
<path d="M337.433 157.34C341.569 157.34 344.922 153.99 344.922 149.857C344.922 145.724 341.569 142.374 337.433 142.374C333.297 142.374 329.945 145.724 329.945 149.857C329.945 153.99 333.297 157.34 337.433 157.34Z" stroke="#0064B7" stroke-width="0.965326" stroke-miterlimit="10"/>
<path d="M369.239 157.34C373.375 157.34 376.728 153.99 376.728 149.857C376.728 145.724 373.375 142.374 369.239 142.374C365.104 142.374 361.751 145.724 361.751 149.857C361.751 153.99 365.104 157.34 369.239 157.34Z" stroke="#0064B7" stroke-width="0.965326" stroke-miterlimit="10"/>
<path d="M178.381 186.013C182.517 186.013 185.87 182.662 185.87 178.529C185.87 174.397 182.517 171.046 178.381 171.046C174.246 171.046 170.893 174.397 170.893 178.529C170.893 182.662 174.246 186.013 178.381 186.013Z" fill="#0064B7"/>
<path d="M210.195 186.013C214.331 186.013 217.683 182.662 217.683 178.529C217.683 174.397 214.331 171.046 210.195 171.046C206.059 171.046 202.707 174.397 202.707 178.529C202.707 182.662 206.059 186.013 210.195 186.013Z" stroke="#0064B7" stroke-width="0.965326" stroke-miterlimit="10"/>
<path d="M242.001 186.013C246.136 186.013 249.489 182.662 249.489 178.529C249.489 174.397 246.136 171.046 242.001 171.046C237.865 171.046 234.512 174.397 234.512 178.529C234.512 182.662 237.865 186.013 242.001 186.013Z" fill="#0064B7"/>
<path d="M273.815 186.013C277.95 186.013 281.303 182.662 281.303 178.529C281.303 174.397 277.95 171.046 273.815 171.046C269.679 171.046 266.326 174.397 266.326 178.529C266.326 182.662 269.679 186.013 273.815 186.013Z" stroke="#0064B7" stroke-width="0.965326" stroke-miterlimit="10"/>
<path d="M305.62 186.013C309.755 186.013 313.108 182.662 313.108 178.529C313.108 174.397 309.755 171.046 305.62 171.046C301.484 171.046 298.131 174.397 298.131 178.529C298.131 182.662 301.484 186.013 305.62 186.013Z" stroke="#0064B7" stroke-width="0.965326" stroke-miterlimit="10"/>
<path d="M337.433 186.013C341.569 186.013 344.922 182.662 344.922 178.529C344.922 174.397 341.569 171.046 337.433 171.046C333.297 171.046 329.945 174.397 329.945 178.529C329.945 182.662 333.297 186.013 337.433 186.013Z" stroke="#0064B7" stroke-width="0.965326" stroke-miterlimit="10"/>
<path d="M369.239 186.013C373.375 186.013 376.728 182.662 376.728 178.529C376.728 174.397 373.375 171.046 369.239 171.046C365.104 171.046 361.751 174.397 361.751 178.529C361.751 182.662 365.104 186.013 369.239 186.013Z" stroke="#0064B7" stroke-width="0.965326" stroke-miterlimit="10"/>
<path d="M178.381 214.684C182.517 214.684 185.87 211.334 185.87 207.201C185.87 203.069 182.517 199.718 178.381 199.718C174.246 199.718 170.893 203.069 170.893 207.201C170.893 211.334 174.246 214.684 178.381 214.684Z" fill="#0064B7"/>
<path d="M210.195 214.684C214.331 214.684 217.683 211.334 217.683 207.201C217.683 203.069 214.331 199.718 210.195 199.718C206.059 199.718 202.707 203.069 202.707 207.201C202.707 211.334 206.059 214.684 210.195 214.684Z" fill="#0064B7"/>
<path d="M242.001 214.684C246.136 214.684 249.489 211.334 249.489 207.201C249.489 203.069 246.136 199.718 242.001 199.718C237.865 199.718 234.512 203.069 234.512 207.201C234.512 211.334 237.865 214.684 242.001 214.684Z" stroke="#0064B7" stroke-width="0.965326" stroke-miterlimit="10"/>
<path d="M273.815 214.684C277.95 214.684 281.303 211.334 281.303 207.201C281.303 203.069 277.95 199.718 273.815 199.718C269.679 199.718 266.326 203.069 266.326 207.201C266.326 211.334 269.679 214.684 273.815 214.684Z" stroke="#0064B7" stroke-width="0.965326" stroke-miterlimit="10"/>
<path d="M305.62 214.684C309.755 214.684 313.108 211.334 313.108 207.201C313.108 203.069 309.755 199.718 305.62 199.718C301.484 199.718 298.131 203.069 298.131 207.201C298.131 211.334 301.484 214.684 305.62 214.684Z" stroke="#0064B7" stroke-width="0.965326" stroke-miterlimit="10"/>
<path d="M337.433 214.684C341.569 214.684 344.922 211.334 344.922 207.201C344.922 203.069 341.569 199.718 337.433 199.718C333.297 199.718 329.945 203.069 329.945 207.201C329.945 211.334 333.297 214.684 337.433 214.684Z" stroke="#0064B7" stroke-width="0.965326" stroke-miterlimit="10"/>
<path d="M369.239 214.684C373.375 214.684 376.728 211.334 376.728 207.201C376.728 203.069 373.375 199.718 369.239 199.718C365.104 199.718 361.751 203.069 361.751 207.201C361.751 211.334 365.104 214.684 369.239 214.684Z" stroke="#0064B7" stroke-width="0.965326" stroke-miterlimit="10"/>
<path d="M178.381 243.356C182.517 243.356 185.87 240.006 185.87 235.873C185.87 231.74 182.517 228.39 178.381 228.39C174.246 228.39 170.893 231.74 170.893 235.873C170.893 240.006 174.246 243.356 178.381 243.356Z" stroke="#0064B7" stroke-width="0.965326" stroke-miterlimit="10"/>
<path d="M210.195 243.356C214.331 243.356 217.683 240.006 217.683 235.873C217.683 231.74 214.331 228.39 210.195 228.39C206.059 228.39 202.707 231.74 202.707 235.873C202.707 240.006 206.059 243.356 210.195 243.356Z" fill="#0064B7"/>
<path d="M242.001 243.356C246.136 243.356 249.489 240.006 249.489 235.873C249.489 231.74 246.136 228.39 242.001 228.39C237.865 228.39 234.512 231.74 234.512 235.873C234.512 240.006 237.865 243.356 242.001 243.356Z" fill="#0064B7"/>
<path d="M273.815 243.356C277.95 243.356 281.303 240.006 281.303 235.873C281.303 231.74 277.95 228.39 273.815 228.39C269.679 228.39 266.326 231.74 266.326 235.873C266.326 240.006 269.679 243.356 273.815 243.356Z" stroke="#0064B7" stroke-width="0.965326" stroke-miterlimit="10"/>
<path d="M305.62 243.356C309.755 243.356 313.108 240.006 313.108 235.873C313.108 231.74 309.755 228.39 305.62 228.39C301.484 228.39 298.131 231.74 298.131 235.873C298.131 240.006 301.484 243.356 305.62 243.356Z" stroke="#0064B7" stroke-width="0.965326" stroke-miterlimit="10"/>
<path d="M337.433 243.356C341.569 243.356 344.922 240.006 344.922 235.873C344.922 231.74 341.569 228.39 337.433 228.39C333.297 228.39 329.945 231.74 329.945 235.873C329.945 240.006 333.297 243.356 337.433 243.356Z" stroke="#0064B7" stroke-width="0.965326" stroke-miterlimit="10"/>
<path d="M369.239 243.356C373.375 243.356 376.728 240.006 376.728 235.873C376.728 231.74 373.375 228.39 369.239 228.39C365.104 228.39 361.751 231.74 361.751 235.873C361.751 240.006 365.104 243.356 369.239 243.356Z" stroke="#0064B7" stroke-width="0.965326" stroke-miterlimit="10"/>
<path d="M178.381 272.65C182.517 272.65 185.87 269.3 185.87 265.167C185.87 261.034 182.517 257.684 178.381 257.684C174.246 257.684 170.893 261.034 170.893 265.167C170.893 269.3 174.246 272.65 178.381 272.65Z" fill="#0064B7"/>
<path d="M210.195 272.65C214.331 272.65 217.683 269.3 217.683 265.167C217.683 261.034 214.331 257.684 210.195 257.684C206.059 257.684 202.707 261.034 202.707 265.167C202.707 269.3 206.059 272.65 210.195 272.65Z" fill="#0064B7"/>
<path d="M242.001 272.65C246.136 272.65 249.489 269.3 249.489 265.167C249.489 261.034 246.136 257.684 242.001 257.684C237.865 257.684 234.512 261.034 234.512 265.167C234.512 269.3 237.865 272.65 242.001 272.65Z" fill="#0064B7" stroke="#0064B7" stroke-width="0.965326" stroke-miterlimit="10"/>
<path d="M273.815 272.65C277.95 272.65 281.303 269.3 281.303 265.167C281.303 261.034 277.95 257.684 273.815 257.684C269.679 257.684 266.326 261.034 266.326 265.167C266.326 269.3 269.679 272.65 273.815 272.65Z" stroke="#0064B7" stroke-width="0.965326" stroke-miterlimit="10"/>
<path d="M305.62 272.65C309.755 272.65 313.108 269.3 313.108 265.167C313.108 261.034 309.755 257.684 305.62 257.684C301.484 257.684 298.131 261.034 298.131 265.167C298.131 269.3 301.484 272.65 305.62 272.65Z" stroke="#0064B7" stroke-width="0.965326" stroke-miterlimit="10"/>
<path d="M337.433 272.65C341.569 272.65 344.922 269.3 344.922 265.167C344.922 261.034 341.569 257.684 337.433 257.684C333.297 257.684 329.945 261.034 329.945 265.167C329.945 269.3 333.297 272.65 337.433 272.65Z" stroke="#0064B7" stroke-width="0.965326" stroke-miterlimit="10"/>
<path d="M369.239 272.65C373.375 272.65 376.728 269.3 376.728 265.167C376.728 261.034 373.375 257.684 369.239 257.684C365.104 257.684 361.751 261.034 361.751 265.167C361.751 269.3 365.104 272.65 369.239 272.65Z" stroke="#0064B7" stroke-width="0.965326" stroke-miterlimit="10"/>
<path d="M133.626 104.352C136.21 104.352 138.305 102.259 138.305 99.6774C138.305 97.0955 136.21 95.0024 133.626 95.0024C131.043 95.0024 128.948 97.0955 128.948 99.6774C128.948 102.259 131.043 104.352 133.626 104.352Z" fill="#023EA1"/>
<path d="M160.451 104.352C163.034 104.352 165.129 102.259 165.129 99.6774C165.129 97.0955 163.034 95.0024 160.451 95.0024C157.867 95.0024 155.772 97.0955 155.772 99.6774C155.772 102.259 157.867 104.352 160.451 104.352Z" fill="#023EA1"/>
<path d="M187.89 104.352C190.473 104.352 192.568 102.259 192.568 99.6774C192.568 97.0955 190.473 95.0024 187.89 95.0024C185.306 95.0024 183.211 97.0955 183.211 99.6774C183.211 102.259 185.306 104.352 187.89 104.352Z" fill="#023EA1"/>
<path d="M214.713 104.352C217.297 104.352 219.392 102.259 219.392 99.6774C219.392 97.0955 217.297 95.0024 214.713 95.0024C212.13 95.0024 210.035 97.0955 210.035 99.6774C210.035 102.259 212.13 104.352 214.713 104.352Z" fill="#023EA1"/>
<path d="M242.783 104.352C245.366 104.352 247.461 102.259 247.461 99.6774C247.461 97.0955 245.366 95.0024 242.783 95.0024C240.199 95.0024 238.104 97.0955 238.104 99.6774C238.104 102.259 240.199 104.352 242.783 104.352Z" fill="#023EA1"/>
<path d="M269.599 104.352C272.183 104.352 274.277 102.259 274.277 99.6774C274.277 97.0955 272.183 95.0024 269.599 95.0024C267.015 95.0024 264.921 97.0955 264.921 99.6774C264.921 102.259 267.015 104.352 269.599 104.352Z" fill="#023EA1"/>
<path d="M297.046 104.352C299.63 104.352 301.724 102.259 301.724 99.6774C301.724 97.0955 299.63 95.0024 297.046 95.0024C294.462 95.0024 292.368 97.0955 292.368 99.6774C292.368 102.259 294.462 104.352 297.046 104.352Z" fill="#023EA1"/>
<path d="M323.87 104.352C326.453 104.352 328.548 102.259 328.548 99.6774C328.548 97.0955 326.453 95.0024 323.87 95.0024C321.286 95.0024 319.191 97.0955 319.191 99.6774C319.191 102.259 321.286 104.352 323.87 104.352Z" fill="#023EA1"/>
<path d="M351.931 104.352C354.515 104.352 356.609 102.259 356.609 99.6774C356.609 97.0955 354.515 95.0024 351.931 95.0024C349.347 95.0024 347.253 97.0955 347.253 99.6774C347.253 102.259 349.347 104.352 351.931 104.352Z" fill="#023EA1"/>
<path d="M134.161 99.9885H133.092C132.357 99.9885 131.758 99.3902 131.758 98.6562V73.2791C131.758 72.5451 132.357 71.9468 133.092 71.9468H134.161C134.896 71.9468 135.495 72.5451 135.495 73.2791V98.6562C135.502 99.3902 134.904 99.9885 134.161 99.9885Z" fill="#6E839D"/>
<path d="M160.985 99.9885H159.916C159.181 99.9885 158.583 99.3902 158.583 98.6562V73.2791C158.583 72.5451 159.181 71.9468 159.916 71.9468H160.985C161.72 71.9468 162.319 72.5451 162.319 73.2791V98.6562C162.319 99.3902 161.72 99.9885 160.985 99.9885Z" fill="#6E839D"/>
<path d="M188.424 99.9885H187.354C186.62 99.9885 186.021 99.3902 186.021 98.6562V73.2791C186.021 72.5451 186.62 71.9468 187.354 71.9468H188.424C189.158 71.9468 189.757 72.5451 189.757 73.2791V98.6562C189.765 99.3902 189.166 99.9885 188.424 99.9885Z" fill="#6E839D"/>
<path d="M215.248 99.9885H214.178C213.444 99.9885 212.845 99.3902 212.845 98.6562V73.2791C212.845 72.5451 213.444 71.9468 214.178 71.9468H215.248C215.983 71.9468 216.581 72.5451 216.581 73.2791V98.6562C216.581 99.3902 215.983 99.9885 215.248 99.9885Z" fill="#6E839D"/>
<path d="M243.318 99.9885H242.248C241.513 99.9885 240.915 99.3902 240.915 98.6562V73.2791C240.915 72.5451 241.513 71.9468 242.248 71.9468H243.318C244.052 71.9468 244.651 72.5451 244.651 73.2791V98.6562C244.651 99.3902 244.052 99.9885 243.318 99.9885Z" fill="#6E839D"/>
<path d="M270.134 99.9885H269.064C268.33 99.9885 267.731 99.3902 267.731 98.6562V73.2791C267.731 72.5451 268.33 71.9468 269.064 71.9468H270.134C270.868 71.9468 271.467 72.5451 271.467 73.2791V98.6562C271.475 99.3902 270.876 99.9885 270.134 99.9885Z" fill="#6E839D"/>
<path d="M297.58 99.9885H296.51C295.776 99.9885 295.177 99.3902 295.177 98.6562V73.2791C295.177 72.5451 295.776 71.9468 296.51 71.9468H297.58C298.315 71.9468 298.913 72.5451 298.913 73.2791V98.6562C298.913 99.3902 298.315 99.9885 297.58 99.9885Z" fill="#6E839D"/>
<path d="M324.397 99.9885H323.327C322.592 99.9885 321.994 99.3902 321.994 98.6562V73.2791C321.994 72.5451 322.592 71.9468 323.327 71.9468H324.397C325.131 71.9468 325.73 72.5451 325.73 73.2791V98.6562C325.738 99.3902 325.139 99.9885 324.397 99.9885Z" fill="#6E839D"/>
<path d="M352.466 99.9885H351.396C350.662 99.9885 350.063 99.3902 350.063 98.6562V73.2791C350.063 72.5451 350.662 71.9468 351.396 71.9468H352.466C353.2 71.9468 353.799 72.5451 353.799 73.2791V98.6562C353.807 99.3902 353.208 99.9885 352.466 99.9885Z" fill="#6E839D"/>
<path d="M278.085 143.723C274.596 146.459 270.086 149.985 266.812 152.49C267.882 155.322 270.605 157.333 273.814 157.333C277.949 157.333 281.302 153.982 281.302 149.85C281.294 147.313 280.025 145.071 278.085 143.723Z" stroke="#0064B7" stroke-width="0.965326" stroke-miterlimit="10"/>
<path d="M273.815 142.374C269.679 142.374 266.326 145.725 266.326 149.857C266.326 150.783 266.502 151.668 266.813 152.49C270.086 149.977 274.597 146.459 278.086 143.722C276.872 142.877 275.403 142.374 273.815 142.374Z" fill="#0064B7" stroke="#0064B7" stroke-width="0.965326" stroke-miterlimit="10"/>
<path d="M100.967 44.0488H86.677C86.4455 44.0488 86.2539 44.2323 86.2539 44.4716V50.3512C86.2539 50.4629 86.3018 50.5666 86.3737 50.6464L88.0581 52.3297C88.138 52.4095 88.2418 52.4494 88.3535 52.4494H99.2827C99.3945 52.4494 99.4983 52.4015 99.5781 52.3297L101.263 50.6464C101.342 50.5666 101.382 50.4629 101.382 50.3512V44.4716C101.39 44.2403 101.207 44.0488 100.967 44.0488ZM100.552 50.1757L99.1151 51.6117H88.5371L87.1001 50.1757V44.8945H100.544V50.1757H100.552Z" fill="#003EB0"/>
<path d="M101.789 45.7319L85.8228 46.5696C85.5913 46.5855 85.4156 46.777 85.4236 47.0084C85.4316 47.2317 85.6232 47.4072 85.8467 47.4072C85.8547 47.4072 85.8627 47.4072 85.8707 47.4072L101.837 46.5696C102.069 46.5616 102.244 46.3622 102.237 46.1308C102.221 45.8995 102.021 45.716 101.789 45.7319Z" fill="#003EB0"/>
<path d="M101.789 48.2535L85.8228 49.0912C85.5913 49.1071 85.4156 49.2986 85.4236 49.5299C85.4316 49.7533 85.6232 49.9288 85.8467 49.9288C85.8547 49.9288 85.8627 49.9288 85.8707 49.9288L101.837 49.0912C102.069 49.0832 102.244 48.8837 102.237 48.6524C102.221 48.421 102.021 48.2296 101.789 48.2535Z" fill="#003EB0"/>
<path d="M93.8219 15.4966C85.9424 15.4966 79.5317 21.9027 79.5317 29.7767C79.5317 34.7309 82.0385 39.2383 86.2537 41.871V44.4717C86.2537 44.7031 86.4453 44.8945 86.6768 44.8945H100.967C101.199 44.8945 101.39 44.7031 101.39 44.4717V41.871C105.605 39.2383 108.112 34.7389 108.112 29.7767C108.112 21.9027 101.701 15.4966 93.8219 15.4966ZM100.751 41.2726C100.624 41.3444 100.544 41.488 100.544 41.6316V44.0489H87.0999V41.6316C87.0999 41.488 87.0201 41.3444 86.8924 41.2726C82.8129 38.8155 80.37 34.5155 80.37 29.7687C80.37 22.3574 86.4054 16.3342 93.8139 16.3342C101.23 16.3342 107.258 22.3654 107.258 29.7687C107.274 34.5155 104.839 38.8155 100.751 41.2726Z" fill="#003EB0"/>
<path d="M97.7979 51.6596C97.5903 51.5559 97.3428 51.6356 97.2311 51.8431C97.1991 51.8989 96.4407 53.295 93.8222 53.295C91.2116 53.295 90.4452 51.9069 90.4133 51.8431C90.3095 51.6356 90.062 51.5559 89.8545 51.6596C89.6469 51.7633 89.5591 52.0186 89.6629 52.218C89.7028 52.2978 90.6528 54.1327 93.8222 54.1327C96.9836 54.1327 97.9416 52.2978 97.9815 52.218C98.0853 52.0106 98.0054 51.7633 97.7979 51.6596Z" fill="#003EB0"/>
<path d="M75.7553 29.3535H67.3489C67.1174 29.3535 66.9258 29.537 66.9258 29.7763C66.9258 30.0077 67.1174 30.1992 67.3489 30.1992H75.7553C75.9869 30.1992 76.1785 30.0077 76.1785 29.7763C76.1785 29.545 75.9869 29.3535 75.7553 29.3535Z" fill="#DE051F"/>
<path d="M120.302 29.3535H111.896C111.664 29.3535 111.473 29.545 111.473 29.7763C111.473 30.0077 111.664 30.1992 111.896 30.1992H120.302C120.534 30.1992 120.725 30.0077 120.725 29.7763C120.717 29.545 120.534 29.3535 120.302 29.3535Z" fill="#DE051F"/>
<path d="M78.5416 38.5921C78.4298 38.3927 78.1664 38.3209 77.9668 38.4405L70.686 42.6368C70.4864 42.7565 70.4146 43.0118 70.5343 43.2112C70.6142 43.3468 70.7499 43.4186 70.9016 43.4186C70.9734 43.4186 71.0453 43.4027 71.1091 43.3628L78.3899 39.1665C78.5895 39.0548 78.6614 38.7916 78.5416 38.5921Z" fill="#DE051F"/>
<path d="M117.117 16.3343C116.998 16.1349 116.742 16.0631 116.542 16.1827L109.262 20.379C109.062 20.4987 108.99 20.754 109.11 20.9534C109.19 21.089 109.326 21.1608 109.469 21.1608C109.541 21.1608 109.613 21.1449 109.677 21.105L116.95 16.9087C117.165 16.797 117.237 16.5417 117.117 16.3343Z" fill="#DE051F"/>
<path d="M107.274 6.49803C107.074 6.38634 106.819 6.45016 106.699 6.6496L102.5 13.9253C102.38 14.1247 102.452 14.38 102.651 14.4997C102.715 14.5396 102.787 14.5555 102.859 14.5555C103.003 14.5555 103.146 14.4837 103.226 14.3481L107.425 7.07242C107.545 6.87298 107.473 6.61769 107.274 6.49803Z" fill="#DE051F"/>
<path d="M93.8299 2.8999C93.5983 2.8999 93.4067 3.09137 93.4067 3.32272V11.7233C93.4067 11.9546 93.5983 12.1461 93.8299 12.1461C94.0614 12.1461 94.253 11.9546 94.253 11.7233V3.32272C94.245 3.09137 94.0614 2.8999 93.8299 2.8999Z" fill="#DE051F"/>
<path d="M85.1602 13.9253L80.961 6.65754C80.8492 6.4581 80.5858 6.3863 80.3862 6.50597C80.1866 6.62563 80.1148 6.88092 80.2345 7.08036L84.4338 14.3561C84.5136 14.4917 84.6493 14.5635 84.801 14.5635C84.8728 14.5635 84.9447 14.5475 85.0086 14.5076C85.2002 14.38 85.272 14.1247 85.1602 13.9253Z" fill="#DE051F"/>
<path d="M116.966 42.6367L109.685 38.4404C109.485 38.3287 109.23 38.3925 109.11 38.592C108.99 38.7914 109.062 39.0467 109.262 39.1664L116.542 43.3627C116.606 43.4026 116.678 43.4185 116.75 43.4185C116.894 43.4185 117.037 43.3467 117.117 43.2111C117.237 43.0116 117.165 42.7564 116.966 42.6367Z" fill="#DE051F"/>
<path d="M78.3899 20.3789L71.1091 16.1826C70.9095 16.0709 70.6541 16.1347 70.5343 16.3342C70.4146 16.5336 70.4864 16.7889 70.686 16.9086L77.9668 21.1049C78.0307 21.1447 78.1025 21.1607 78.1744 21.1607C78.3181 21.1607 78.4618 21.0889 78.5416 20.9533C78.6614 20.7538 78.5895 20.4985 78.3899 20.3789Z" fill="#DE051F"/>
<path d="M95.0512 44.0491V30.503C95.0512 30.503 94.8596 24.1128 98.3483 24.1128C101.837 24.1128 100.224 30.7582 93.5024 30.7582" stroke="#003EB0" stroke-width="0.965326" stroke-miterlimit="10"/>
<path d="M91.9456 44.0491V30.503C91.9456 30.503 92.1372 24.1128 88.6485 24.1128C85.1597 24.1128 86.7724 30.7582 93.4943 30.7582" stroke="#003EB0" stroke-width="0.965326" stroke-miterlimit="10"/>
<path d="M106.507 288.598C106.507 288.598 110.938 286.795 110.611 281.706C110.284 276.616 107.657 273.01 113.078 274.486C118.498 275.962 120.319 276.616 124.254 275.802C128.19 274.98 131.463 273.337 129.747 278.427C128.023 283.517 126.17 287.777 130.218 288.598C134.266 289.42 138.616 286.357 139.143 294.318C139.67 302.288 133.236 311.239 122.833 311.566C112.431 311.893 107.833 307.585 107.833 307.585C107.833 307.585 105.039 303.652 109.389 302.687C113.74 301.722 118.171 299.879 115.96 297.845C113.748 295.81 106.515 295.651 106.515 295.651C106.515 295.651 97.4783 293.856 106.507 288.598Z" fill="#649EEA"/>
<path d="M154.056 289.914C153.322 284.84 153.889 281.179 163.333 279.806C172.777 278.434 178.278 284.09 178.852 289.914C179.427 295.738 171.22 297.852 171.22 297.852C171.22 297.852 165.393 299.511 168.346 304.601C171.3 309.691 172.641 314.613 165.935 315.347C159.229 316.089 151.893 314.318 147.797 311.59C143.71 308.861 139.519 301.969 144.205 298.363C144.205 298.363 145.522 297.461 150.033 297.214C154.543 296.967 154.056 289.914 154.056 289.914Z" fill="#023EA1"/>
<path d="M120.829 289.093C120.829 289.093 128.669 306.811 129.738 318.874" stroke="#023EA1" stroke-width="0.965326" stroke-miterlimit="10"/>
<path d="M164.427 291.997C164.427 291.997 150.552 312.587 147.271 319.48" stroke="#649EEA" stroke-width="0.965326" stroke-miterlimit="10"/>
<path d="M124.901 317.485H156.754C156.754 317.485 160.243 317.733 159.955 322.487C159.692 326.867 154.128 325.926 151.254 325.926C148.38 325.926 124.214 325.926 124.214 325.926C124.214 325.926 120.302 326.596 120.302 322.16C120.302 317.725 121.779 317.485 124.901 317.485Z" fill="#0054A5"/>
<path d="M124.214 325.926L129.044 354.047H150.432L154.056 332.938L124.254 325.926H124.214Z" fill="#0054A5"/>
<path d="M124.254 325.926L154.056 332.938L155.262 325.926H124.254Z" fill="#006AD5"/>
<path d="M137.954 318.547C137.954 318.547 139.566 287.338 148.875 267.761" stroke="#FCBE42" stroke-width="0.965326" stroke-miterlimit="10"/>
<path d="M156.539 256.496C156.539 256.496 157.305 266.077 147.949 269.818C147.949 269.818 145.921 261.633 156.539 256.496Z" fill="#FCBE42"/>
<path d="M142.504 286.987C142.504 286.987 145.953 278.81 156.555 279.911C156.555 279.903 155.724 288.048 142.504 286.987Z" fill="#FCBE42"/>
<path d="M139.015 307.545C139.015 307.545 140.795 298.857 151.413 297.86C151.413 297.852 152.196 306.005 139.015 307.545Z" fill="#FCBE42"/>
<path d="M138.648 307.601C138.648 307.601 139.878 298.818 130.21 294.326C130.21 294.326 126.745 301.737 138.648 307.601Z" fill="#FCBE42"/>
<path d="M142.616 286.923C142.616 286.923 144.955 278.363 135.942 272.683C135.942 272.683 131.559 279.599 142.616 286.923Z" fill="#FCBE42"/>
<path d="M356.481 192.139L365.423 201.744C365.423 201.744 368.504 205.087 365.423 208.07C362.341 211.062 360.21 213.208 360.21 213.208L356.481 192.139Z" fill="#FFBF99"/>
<path d="M278.62 153.264L275.442 150.743C275.442 150.743 274.915 150.264 274.396 150.488C273.877 150.711 273.838 151.253 274.628 151.852C275.41 152.458 277.765 154.381 277.765 154.381L278.62 153.264Z" fill="#0064B7"/>
<path d="M279.091 152.035L276.752 155.099L288.847 170.655L297.149 159.311L279.091 152.035Z" fill="#649EEA"/>
<path d="M297.149 159.311L325.338 180.596C323.191 183.539 319.758 188.525 317.435 191.94L288.847 170.655L297.149 159.311Z" fill="#0064B7"/>
<path d="M317.435 191.94C319.758 188.525 323.191 183.531 325.339 180.595L360.082 206.826L354.382 219.439L317.435 191.94Z" fill="#649EEA"/>
<path d="M366.644 211.788L367.57 212.491C367.57 212.491 369.071 213.599 367.834 215.155C366.317 217.062 362.054 223.268 362.054 223.268C362.054 223.268 361.056 224.673 360.266 224.066C359.483 223.452 357.647 221.88 357.647 221.88L354.382 219.455L360.082 206.842L366.644 211.788Z" fill="#0064B7"/>
<path d="M338.95 235.985L352.067 345.033L361.447 344.123L362.796 233.145L338.95 235.985Z" fill="#0064E1"/>
<path d="M353.24 235.985L328.604 345.033L319.223 344.123L325.674 233.145L353.24 235.985Z" fill="#003EB0"/>
<path d="M345.137 167.814C345.137 167.814 345.943 172.354 347.652 176.909C349.36 181.464 350.222 183.291 350.222 183.291C350.222 183.291 344.658 189.498 339.253 188.477C333.848 187.456 333.928 183.842 333.928 183.842C333.928 183.842 338.99 179.885 339.109 174.468C339.229 169.051 339.229 169.051 339.229 169.051L345.137 167.814Z" fill="#FFBF99"/>
<path d="M334.112 155.378C334.112 155.378 331.318 158.928 331.182 165.254C331.047 171.581 331.853 176.112 334.559 176.176C337.274 176.232 342.734 174.548 343.676 172.761C344.618 170.974 346.43 171.014 346.51 167.4C346.59 163.786 342.247 155.561 338.631 155.482C335.014 155.394 334.112 155.378 334.112 155.378Z" fill="#FFBF99"/>
<path d="M331.398 155.314C331.398 155.314 328.843 148.03 330.671 147.161C332.5 146.299 336.076 148.182 336.962 149.107C337.848 150.033 339.653 150.072 340.555 150.088C340.555 150.088 349.592 150.288 351.364 152.131C353.136 153.974 353.113 154.883 353.097 155.784C353.081 156.686 353.009 160.228 353.863 162.127C354.23 162.948 354.669 166.666 352.785 170.24C350.901 173.814 349.073 174.676 348.163 174.66C347.261 174.644 346.446 174.62 346.375 173.718C346.303 172.737 345.975 171.357 345.552 170.089C345.145 168.876 344.73 166.459 344.73 166.459C344.73 166.459 343.924 161.919 342.159 160.076C340.387 158.234 340.387 158.234 336.795 157.244C333.186 156.263 332.244 158.05 331.398 155.314Z" fill="#170856"/>
<path d="M343.445 162.175C342.072 163.683 343.82 166.435 343.82 166.435C343.82 166.435 346.51 167.4 346.574 164.688C346.638 161.975 344.818 160.667 343.445 162.175Z" fill="#FFBF99"/>
<path d="M361.439 351.231C361.439 351.231 361.966 352.707 358.924 352.683C355.882 352.659 339.333 352.507 339.333 352.507C339.333 352.507 336.148 351.845 339.109 350.441C342.071 349.045 350.941 345.152 350.941 345.152C350.941 345.152 351.611 344.976 351.619 343.277L361.654 343.365L361.439 351.231Z" fill="#170856"/>
<path d="M329.106 351.231C329.106 351.231 329.633 352.707 326.592 352.683C323.55 352.659 307 352.507 307 352.507C307 352.507 303.815 351.845 306.777 350.441C309.739 349.045 318.608 345.152 318.608 345.152C318.608 345.152 319.279 344.976 319.287 343.277L329.322 343.365L329.106 351.231Z" fill="#170856"/>
<path d="M338.351 181.537C338.351 181.537 337.369 180.731 336.243 181.624C335.118 182.518 331.206 185.398 329.29 189.131C327.374 192.865 326.727 198.019 326.072 210.073C325.418 222.127 325.522 235.163 325.522 235.163L362.9 235.977C362.9 235.977 364.081 214.054 360.561 200.571C357.04 187.089 351.763 182.406 350.589 181.816C349.416 181.233 348.242 182.398 348.242 182.398C348.242 182.398 343.109 187.113 338.351 181.537Z" fill="#FCBE42"/>
<path d="M322.92 192.937L314.681 201.848C314.681 201.848 313.994 203.221 312.621 201.162C311.248 199.104 305.755 189.507 305.755 186.763C305.755 184.018 305.755 181.96 305.069 180.588C304.382 179.216 303.009 177.157 303.009 177.157C303.009 177.157 301.636 175.099 301.636 176.471C301.636 177.843 301.636 179.902 300.95 179.902C300.263 179.902 296.144 175.785 296.144 175.785C296.144 175.785 296.144 182.646 297.517 183.332C298.89 184.018 300.95 185.39 300.95 187.449C300.95 189.507 307.129 207.337 308.502 210.081C309.875 212.826 312.621 212.826 315.367 211.454C318.114 210.081 329.777 200.484 329.777 200.484L322.92 192.937Z" fill="#FFBF99"/>
<path d="M320.756 193.24C320.756 193.24 333.107 181.584 338.599 185.693C344.092 189.809 328.995 203.523 328.995 203.523C328.995 203.523 321.443 195.976 320.756 193.24Z" fill="#F79F03"/>
</g>
<defs>
<clipPath id="clip0_3706_3458">
<rect width="479" height="358.998" fill="white" transform="translate(1 2.50098)"/>
</clipPath>
</defs>
</svg>
