<svg width="440" height="310" viewBox="0 0 440 310" fill="none" xmlns="http://www.w3.org/2000/svg">
<g clip-path="url(#clip0_3366_1022)">
<path d="M85.2867 292.605C122.167 292.605 152.065 290.376 152.065 287.627C152.065 284.878 122.167 282.649 85.2867 282.649C48.406 282.649 18.5083 284.878 18.5083 287.627C18.5083 290.376 48.406 292.605 85.2867 292.605Z" fill="white"/>
<path d="M143.838 308.761C161.133 308.761 175.153 306.809 175.153 304.403C175.153 301.996 161.133 300.045 143.838 300.045C126.543 300.045 112.522 301.996 112.522 304.403C112.522 306.809 126.543 308.761 143.838 308.761Z" fill="white"/>
<path d="M249.195 266.44C305.894 266.44 351.857 262.542 351.857 257.734C351.857 252.926 305.894 249.028 249.195 249.028C192.497 249.028 146.534 252.926 146.534 257.734C146.534 262.542 192.497 266.44 249.195 266.44Z" fill="white"/>
<path d="M47.2897 187.028C69.5192 187.028 87.5399 169.007 87.5399 146.778C87.5399 124.548 69.5192 106.528 47.2897 106.528C25.0602 106.528 7.03955 124.548 7.03955 146.778C7.03955 169.007 25.0602 187.028 47.2897 187.028Z" stroke="#2626DB" stroke-width="0.995959" stroke-miterlimit="10" stroke-dasharray="5.98 5.98"/>
<path d="M165.683 248.141C187.913 248.141 205.933 230.12 205.933 207.89C205.933 185.661 187.913 167.64 165.683 167.64C143.454 167.64 125.433 185.661 125.433 207.89C125.433 230.12 143.454 248.141 165.683 248.141Z" stroke="#63C1F1" stroke-width="1.49394" stroke-miterlimit="10" stroke-dasharray="5.98 5.98"/>
<path d="M438.362 78.7931C438.362 78.7931 434.404 78.6691 428.54 79.5082L423.686 86.0402L423.81 80.3474C407.142 83.8279 381.834 95.0228 379.717 130.896C379.717 130.887 420.854 156.185 438.362 78.7931Z" fill="#023EA1"/>
<path d="M412.757 83.5899L389.604 119.196L438.36 78.7935" stroke="white" stroke-width="0.995959" stroke-miterlimit="10"/>
<path d="M431.037 102.698L388.775 121.264" stroke="white" stroke-width="0.995959" stroke-miterlimit="10"/>
<path d="M427.743 56.4526C427.743 56.4526 427.743 63.261 423.09 60.5434C418.437 57.8257 415.261 57.7303 413.287 62.7556C411.313 67.7905 407.985 69.6309 404.924 68.725C401.864 67.8191 396.543 65.2826 394.225 72.2627C391.908 79.2429 386.425 92.4975 393.777 95.9494C401.129 99.3918 412.734 94.7669 414.508 89.5032C416.281 84.2395 414.374 79.7292 420.306 78.0223C426.237 76.3249 427.057 82.1989 432.254 78.2511C437.451 74.3129 443.077 70.7751 439.205 62.5649C435.725 55.2129 428.697 52.7241 427.743 56.4526Z" stroke="#EA4E59" stroke-width="0.995959" stroke-miterlimit="10" stroke-linecap="round" stroke-linejoin="round"/>
<path d="M428.868 64.3196C428.868 64.3196 396.389 89.3126 386.663 93.7277" stroke="#EA4E59" stroke-width="0.995959" stroke-miterlimit="10" stroke-linecap="round" stroke-linejoin="round"/>
<path d="M402.913 73.4916L401.959 84.1239L410.226 87.6902" stroke="#EA4E59" stroke-width="0.995959" stroke-miterlimit="10" stroke-linecap="round" stroke-linejoin="round"/>
<path d="M419.269 63.4702L419.707 71.2513L426.258 75.0656" stroke="#EA4E59" stroke-width="0.995959" stroke-miterlimit="10" stroke-linecap="round" stroke-linejoin="round"/>
<path d="M87.2645 62.4883C87.2645 62.4883 95.9802 56.538 97.6871 61.6778C99.3939 66.8175 101.845 66.5887 104.372 66.2168C106.899 65.8449 111.209 63.4705 112.696 68.9917C114.184 74.5128 112.61 77.9933 115.223 79.7288C117.836 81.4643 125.655 91.8582 120.392 93.8035C115.128 95.7488 108.949 91.3624 106.908 88.845C104.867 86.3275 100.262 86.2799 96.7144 87.0713C93.1671 87.8628 88.5423 86.2608 90.0776 81.9507C91.6128 77.631 89.3815 73.2827 86.1584 72.3959C82.9353 71.4995 81.4192 66.5982 87.2645 62.4883Z" fill="#023EA1"/>
<path d="M91.8989 67.4679L122.032 98.0298" stroke="white" stroke-width="0.995959" stroke-miterlimit="10" stroke-linecap="round" stroke-linejoin="round"/>
<path d="M106.591 70.0533L104.141 79.8846L93.8613 81.9539" stroke="white" stroke-width="0.995959" stroke-miterlimit="10" stroke-linecap="round" stroke-linejoin="round"/>
<path d="M87.3321 77.3004C87.3321 77.3004 87.3321 82.812 91.0987 80.6093C94.8653 78.4066 97.4304 78.3303 99.0324 82.402C100.634 86.4737 103.323 87.9613 105.803 87.2366C108.272 86.5119 112.583 84.4522 114.461 90.1068C116.34 95.7615 120.774 106.48 114.824 109.274C108.873 112.058 99.4806 108.32 98.0502 104.058C96.6199 99.7951 98.1551 96.1429 93.3587 94.7698C88.5622 93.3966 87.8947 98.1454 83.6895 94.9605C79.4842 91.766 74.9357 88.9053 78.0634 82.2685C80.8764 76.2992 86.5597 74.2871 87.3321 77.3004Z" stroke="#FCBE42" stroke-width="0.995959" stroke-miterlimit="10"/>
<path d="M86.418 83.6594C86.418 83.6594 112.698 103.885 120.565 107.461" stroke="#FCBE42" stroke-width="0.995959" stroke-miterlimit="10"/>
<path d="M107.423 91.0883L108.195 99.6895L101.501 102.569" stroke="#FCBE42" stroke-width="0.995959" stroke-miterlimit="10"/>
<path d="M94.1874 82.9827L93.8346 89.2667L88.5327 92.3658" stroke="#FCBE42" stroke-width="0.995959" stroke-miterlimit="10"/>
<path d="M282.692 218.752C282.663 218.752 282.587 219.172 282.577 219.191C282.472 219.611 282.386 220.03 282.32 220.45C282.205 221.098 282.11 221.756 282.043 222.414C281.957 223.263 281.9 224.111 281.881 224.96C281.862 225.961 281.891 226.972 281.967 227.973C282.053 229.099 282.215 230.224 282.434 231.33C282.682 232.541 283.006 233.752 283.416 234.925C283.855 236.193 284.398 237.442 285.037 238.634C285.724 239.931 286.525 241.171 287.431 242.344C288.423 243.631 289.529 244.832 290.73 245.939C292.065 247.169 293.524 248.294 295.069 249.305C295.946 249.877 296.814 250.458 297.758 250.926C298.063 251.078 298.387 251.193 298.721 251.298C298.769 251.317 299.36 251.46 299.36 251.498V261.444H204.928L204.88 252.089C204.88 252.089 219.642 249.333 222.741 219.83C222.731 219.83 282.682 218.752 282.692 218.752Z" fill="#0064B7"/>
<path d="M282.949 234.581L222.302 223.119L222.731 219.829L283.073 219.114C283.073 219.114 279.726 222.709 282.949 234.581Z" fill="#023EA1"/>
<path d="M299.351 252.087H204.871L204.852 261.442H299.351V252.087Z" fill="#023EA1"/>
<path d="M385.588 34.5583H117.892C106.678 34.196 106.678 42.8353 106.678 42.8353V173.779L109.777 223.422C109.777 223.422 369.73 222.707 383.662 222.707C397.584 222.707 397.584 211.913 397.584 211.913V206.878C397.584 206.878 397.584 55.7848 397.584 44.9904C397.584 34.196 385.588 34.5583 385.588 34.5583ZM118.283 209.758L119.056 47.8702H121.373H385.197L385.969 208.318L118.283 209.758Z" fill="#0064B7"/>
<path d="M118.283 47.5096H387.905L387.523 214.079L117.12 213.717L118.283 47.5096Z" fill="#F2F2F2"/>
<path d="M369.56 70.6703H134.658C133.609 70.6703 132.751 69.812 132.751 68.7631V54.6503C132.751 53.6014 133.609 52.7432 134.658 52.7432H369.56C370.609 52.7432 371.467 53.6014 371.467 54.6503V68.7631C371.467 69.812 370.619 70.6703 369.56 70.6703Z" fill="white"/>
<path d="M143.802 65.3563C145.687 65.3563 147.215 63.8284 147.215 61.9435C147.215 60.0586 145.687 58.5306 143.802 58.5306C141.917 58.5306 140.389 60.0586 140.389 61.9435C140.389 63.8284 141.917 65.3563 143.802 65.3563Z" fill="#EE384E"/>
<path d="M199.599 64.2638H172.861C171.812 64.2638 170.954 63.4055 170.954 62.3566V61.6891C170.954 60.6402 171.812 59.782 172.861 59.782H199.599C200.648 59.782 201.506 60.6402 201.506 61.6891V62.3566C201.506 63.4151 200.648 64.2638 199.599 64.2638Z" fill="#00A9FF"/>
<path d="M239.705 64.2638H214.235C213.186 64.2638 212.328 63.4055 212.328 62.3566V61.6891C212.328 60.6402 213.186 59.782 214.235 59.782H239.705C240.754 59.782 241.612 60.6402 241.612 61.6891V62.3566C241.612 63.4151 240.754 64.2638 239.705 64.2638Z" fill="#DCE8F4"/>
<path d="M281.085 64.2638H255.615C254.566 64.2638 253.708 63.4055 253.708 62.3566V61.6891C253.708 60.6402 254.566 59.782 255.615 59.782H281.085C282.134 59.782 282.992 60.6402 282.992 61.6891V62.3566C282.992 63.4151 282.134 64.2638 281.085 64.2638Z" fill="#DCE8F4"/>
<path d="M321.814 64.2638H296.345C295.296 64.2638 294.438 63.4055 294.438 62.3566V61.6891C294.438 60.6402 295.296 59.782 296.345 59.782H321.814C322.863 59.782 323.722 60.6402 323.722 61.6891V62.3566C323.722 63.4151 322.873 64.2638 321.814 64.2638Z" fill="#DCE8F4"/>
<path d="M363.831 64.2638H338.361C337.312 64.2638 336.454 63.4055 336.454 62.3566V61.6891C336.454 60.6402 337.312 59.782 338.361 59.782H363.831C364.88 59.782 365.738 60.6402 365.738 61.6891V62.3566C365.738 63.4151 364.89 64.2638 363.831 64.2638Z" fill="#DCE8F4"/>
<path d="M369.56 128.925H134.658C133.609 128.925 132.751 128.067 132.751 127.018V77.6993C132.751 76.6503 133.609 75.7921 134.658 75.7921H369.56C370.609 75.7921 371.467 76.6503 371.467 77.6993V127.018C371.467 128.067 370.619 128.925 369.56 128.925Z" fill="white"/>
<path d="M140.392 122.764C140.282 122.764 140.174 122.753 140.069 122.732L140.021 122.976C139.771 122.927 139.539 122.828 139.334 122.69L139.473 122.484C139.292 122.362 139.136 122.206 139.015 122.026L138.808 122.164C138.671 121.96 138.572 121.727 138.522 121.478L138.766 121.429C138.745 121.325 138.734 121.217 138.734 121.106V120.609H138.485V119.615H138.734V118.621H138.485V117.627H138.734V116.633H138.485V115.639H138.734V114.645H138.485V113.651H138.734V112.657H138.485V111.663H138.734V110.669H138.485V109.675H138.734V108.681H138.485V107.687H138.734V106.693H138.485V105.699H138.734V104.705H138.485V103.712H138.734V102.718H138.485V101.724H138.734V100.73H138.485V99.7356H138.734V98.7417H138.485V97.7477H138.734V96.7537H138.485V95.7597H138.734V94.7658H138.485V93.7718H138.734V92.7778H138.485V91.7839H138.734V90.7899H138.485V89.7959H138.734V88.8019H138.485V87.808H138.734V86.814H138.485V85.82H138.734V84.8261H138.485V83.8321H138.734V83.3351C138.734 83.2245 138.745 83.1164 138.766 83.012L138.522 82.9632C138.572 82.7137 138.671 82.4814 138.808 82.2768L139.015 82.4156C139.136 82.2348 139.292 82.0789 139.473 81.9575L139.334 81.7508C139.539 81.6134 139.771 81.5145 140.021 81.4646L140.069 81.7088C140.174 81.6879 140.282 81.677 140.392 81.677H140.893V81.428H141.893V81.677H142.893V81.428H143.894V81.677H144.894V81.428H145.895V81.677H146.895V81.428H147.895V81.677H148.896V81.428H149.896V81.677H150.897V81.428H151.897V81.677H152.897V81.428H153.898V81.677H154.898V81.428H155.899V81.677H156.899V81.428H157.899V81.677H158.9V81.428H159.9V81.677H160.901V81.428H161.901V81.677H162.901V81.428H163.902V81.677H164.902V81.428H165.903V81.677H166.903V81.428H167.903V81.677H168.904V81.428H169.904V81.677H170.905V81.428H171.905V81.677H172.905V81.428H173.906V81.677H174.906V81.428H175.907V81.677H176.907V81.428H177.907V81.677H178.908V81.428H179.908V81.677H180.909V81.428H181.909V81.677H182.909V81.428H183.91V81.677H184.91V81.428H185.911V81.677H186.911V81.428H187.911V81.677H188.912V81.428H189.912V81.677H190.913V81.428H191.913V81.677H192.913V81.428H193.914V81.677H194.914V81.428H195.915V81.677H196.915V81.428H197.915V81.677H198.916V81.428H199.916V81.677H200.916V81.428H201.917V81.677H202.917V81.428H203.918V81.677H204.918V81.428H205.918V81.677H206.919V81.428H207.919V81.677H208.92V81.428H209.92V81.677H210.92V81.428H211.921V81.677H212.921V81.428H213.922V81.677H214.922V81.428H215.922V81.677H216.923V81.428H217.923V81.677H218.924V81.428H219.924V81.677H220.924V81.428H221.925V81.677H222.925V81.428H223.926V81.677H224.926V81.428H225.926V81.677H226.927V81.428H227.927V81.677H228.928V81.428H229.928V81.677H230.928V81.428H231.929V81.677H232.929V81.428H233.93V81.677H234.93V81.428H235.93V81.677H236.931V81.428H237.931V81.677H238.932V81.428H239.932V81.677H240.932V81.428H241.933V81.677H242.933V81.428H243.934V81.677H244.934V81.428H245.934V81.677H246.935V81.428H247.935V81.677H248.936V81.428H249.936V81.677H250.936V81.428H251.937V81.677H252.437C252.548 81.677 252.656 81.6879 252.76 81.7088L252.809 81.4646C253.058 81.5145 253.291 81.6134 253.495 81.7508L253.356 81.9575C253.537 82.0789 253.693 82.2348 253.815 82.4156L254.021 82.2768C254.159 82.4814 254.258 82.7137 254.307 82.9632L254.063 83.012C254.084 83.1164 254.095 83.2245 254.095 83.3351V83.8321H254.344V84.8261H254.095V85.82H254.344V86.814H254.095V87.808H254.344V88.802H254.095V89.7959H254.344V90.7899H254.095V91.7839H254.344V92.7778H254.095V93.7718H254.344V94.7658H254.095V95.7598H254.344V96.7537H254.095V97.7477H254.344V98.7417H254.095V99.7356H254.344V100.73H254.095V101.724H254.344V102.718H254.095V103.712H254.344V104.705H254.095V105.699H254.344V106.693H254.095V107.687H254.344V108.681H254.095V109.675H254.344V110.669H254.095V111.663H254.344V112.657H254.095V113.651H254.344V114.645H254.095V115.639H254.344V116.633H254.095V117.627H254.344V118.621H254.095V119.615H254.344V120.609H254.095V121.106C254.095 121.217 254.084 121.325 254.063 121.429L254.307 121.478C254.258 121.727 254.159 121.96 254.021 122.164L253.815 122.026C253.693 122.206 253.537 122.362 253.356 122.484L253.495 122.69C253.291 122.828 253.058 122.927 252.809 122.976L252.76 122.732C252.656 122.753 252.548 122.764 252.437 122.764H251.937V123.013H250.936V122.764H249.936V123.013H248.936V122.764H247.935V123.013H246.935V122.764H245.934V123.013H244.934V122.764H243.934V123.013H242.933V122.764H241.933V123.013H240.932V122.764H239.932V123.013H238.932V122.764H237.931V123.013H236.931V122.764H235.93V123.013H234.93V122.764H233.93V123.013H232.929V122.764H231.929V123.013H230.928V122.764H229.928V123.013H228.928V122.764H227.927V123.013H226.927V122.764H225.926V123.013H224.926V122.764H223.926V123.013H222.925V122.764H221.925V123.013H220.924V122.764H219.924V123.013H218.924V122.764H217.923V123.013H216.923V122.764H215.922V123.013H214.922V122.764H213.922V123.013H212.921V122.764H211.921V123.013H210.92V122.764H209.92V123.013H208.92V122.764H207.919V123.013H206.919V122.764H205.918V123.013H204.918V122.764H203.918V123.013H202.917V122.764H201.917V123.013H200.916V122.764H199.916V123.013H198.916V122.764H197.915V123.013H196.915V122.764H195.914V123.013H194.914V122.764H193.914V123.013H192.913V122.764H191.913V123.013H190.912V122.764H189.912V123.013H188.912V122.764H187.911V123.013H186.911V122.764H185.911V123.013H184.91V122.764H183.91V123.013H182.909V122.764H181.909V123.013H180.909V122.764H179.908V123.013H178.908V122.764H177.907V123.013H176.907V122.764H175.907V123.013H174.906V122.764H173.906V123.013H172.905V122.764H171.905V123.013H170.905V122.764H169.904V123.013H168.904V122.764H167.903V123.013H166.903V122.764H165.903V123.013H164.902V122.764H163.902V123.013H162.901V122.764H161.901V123.013H160.901V122.764H159.9V123.013H158.9V122.764H157.899V123.013H156.899V122.764H155.899V123.013H154.898V122.764H153.898V123.013H152.897V122.764H151.897V123.013H150.897V122.764H149.896V123.013H148.896V122.764H147.895V123.013H146.895V122.764H145.895V123.013H144.894V122.764H143.894V123.013H142.893V122.764H141.893V123.013H140.893V122.764H140.392Z" fill="white" stroke="#2A2A2A" stroke-width="0.497979" stroke-dasharray="1 1"/>
<path d="M345.742 91.0775H288.232C287.183 91.0775 286.325 90.2193 286.325 89.1703V88.5028C286.325 87.4539 287.183 86.5957 288.232 86.5957H345.742C346.791 86.5957 347.649 87.4539 347.649 88.5028V89.1703C347.649 90.2193 346.801 91.0775 345.742 91.0775Z" fill="#00A9FF"/>
<path d="M326.232 122.305H306.798C304.481 122.305 302.603 120.427 302.603 118.11C302.603 115.793 304.481 113.914 306.798 113.914H326.232C328.549 113.914 330.428 115.793 330.428 118.11C330.428 120.427 328.549 122.305 326.232 122.305Z" fill="#EE384E"/>
<path d="M360.792 100.375H271.834C271.128 100.375 270.556 99.8031 270.556 99.0975C270.556 98.3919 271.128 97.8197 271.834 97.8197H360.792C361.498 97.8197 362.07 98.3919 362.07 99.0975C362.07 99.8031 361.498 100.375 360.792 100.375Z" fill="#DCE8F4"/>
<path d="M347.28 106.544H271.834C271.128 106.544 270.556 105.972 270.556 105.266C270.556 104.561 271.128 103.989 271.834 103.989H347.28C347.986 103.989 348.558 104.561 348.558 105.266C348.558 105.972 347.986 106.544 347.28 106.544Z" fill="#DCE8F4"/>
<path d="M206.491 204.98H134.649C133.6 204.98 132.742 204.122 132.742 203.073V136.59C132.742 135.542 133.6 134.683 134.649 134.683H206.491C207.54 134.683 208.398 135.542 208.398 136.59V203.073C208.398 204.132 207.55 204.98 206.491 204.98Z" fill="white"/>
<path d="M202.365 175.688H139.535C138.486 175.688 137.627 174.83 137.627 173.781V142.352C137.627 141.303 138.486 140.445 139.535 140.445H202.365C203.414 140.445 204.272 141.303 204.272 142.352V173.781C204.272 174.83 203.414 175.688 202.365 175.688Z" fill="#268DFF"/>
<path d="M202.661 185.082H139.239C138.352 185.082 137.627 184.357 137.627 183.471C137.627 182.584 138.352 181.859 139.239 181.859H202.661C203.548 181.859 204.272 182.584 204.272 183.471C204.272 184.357 203.548 185.082 202.661 185.082Z" fill="#DCE8F4"/>
<path d="M202.661 191.268H139.239C138.352 191.268 137.627 190.543 137.627 189.657C137.627 188.77 138.352 188.045 139.239 188.045H202.661C203.548 188.045 204.272 188.77 204.272 189.657C204.272 190.543 203.548 191.268 202.661 191.268Z" fill="#DCE8F4"/>
<path d="M287.766 204.98H215.924C214.875 204.98 214.017 204.122 214.017 203.073V136.59C214.017 135.542 214.875 134.683 215.924 134.683H287.766C288.815 134.683 289.673 135.542 289.673 136.59V203.073C289.673 204.132 288.815 204.98 287.766 204.98Z" fill="white"/>
<path d="M283.638 175.688H220.807C219.758 175.688 218.9 174.83 218.9 173.781V142.352C218.9 141.303 219.758 140.445 220.807 140.445H283.638C284.687 140.445 285.545 141.303 285.545 142.352V173.781C285.545 174.83 284.687 175.688 283.638 175.688Z" fill="#EE384E"/>
<path d="M283.924 185.082H220.511C219.625 185.082 218.9 184.357 218.9 183.471C218.9 182.584 219.625 181.859 220.511 181.859H283.933C284.82 181.859 285.545 182.584 285.545 183.471C285.545 184.357 284.82 185.082 283.924 185.082Z" fill="#DCE8F4"/>
<path d="M283.924 191.268H220.511C219.625 191.268 218.9 190.543 218.9 189.657C218.9 188.77 219.625 188.045 220.511 188.045H283.933C284.82 188.045 285.545 188.77 285.545 189.657C285.545 190.543 284.82 191.268 283.924 191.268Z" fill="#DCE8F4"/>
<path d="M283.924 197.562H220.511C219.625 197.562 218.9 196.838 218.9 195.951C218.9 195.064 219.625 194.339 220.511 194.339H283.933C284.82 194.339 285.545 195.064 285.545 195.951C285.545 196.838 284.82 197.562 283.924 197.562Z" fill="#DCE8F4"/>
<path d="M369.567 204.98H297.725C296.677 204.98 295.818 204.122 295.818 203.073V136.59C295.818 135.542 296.677 134.683 297.725 134.683H369.567C370.616 134.683 371.475 135.542 371.475 136.59V203.073C371.475 204.132 370.626 204.98 369.567 204.98Z" fill="white"/>
<path d="M302.602 175.439C302.492 175.439 302.384 175.429 302.279 175.408L302.231 175.652C301.981 175.602 301.749 175.503 301.544 175.366L301.683 175.159C301.502 175.038 301.346 174.882 301.225 174.701L301.018 174.84C300.881 174.635 300.782 174.403 300.732 174.153L300.976 174.104C300.955 174 300.944 173.892 300.944 173.781V173.29H300.695V172.308H300.944V171.326H300.695V170.344H300.944V169.362H300.695V168.379H300.944V167.397H300.695V166.415H300.944V165.433H300.695V164.451H300.944V163.469H300.695V162.486H300.944V161.504H300.695V160.522H300.944V159.54H300.695V158.558H300.944V157.575H300.695V156.593H300.944V155.611H300.695V154.629H300.944V153.647H300.695V152.665H300.944V151.682H300.695V150.7H300.944V149.718H300.695V148.736H300.944V147.754H300.695V146.772H300.944V145.789H300.695V144.807H300.944V143.825H300.695V142.843H300.944V142.352C300.944 142.241 300.955 142.133 300.976 142.029L300.732 141.98C300.782 141.73 300.881 141.498 301.018 141.293L301.225 141.432C301.346 141.251 301.502 141.095 301.683 140.974L301.544 140.767C301.749 140.63 301.981 140.531 302.231 140.481L302.279 140.725C302.384 140.705 302.492 140.694 302.602 140.694H303.093V140.445H304.075V140.694H305.057V140.445H306.039V140.694H307.02V140.445H308.002V140.694H308.984V140.445H309.965V140.694H310.947V140.445H311.929V140.694H312.911V140.445H313.892V140.694H314.874V140.445H315.856V140.694H316.838V140.445H317.819V140.694H318.801V140.445H319.783V140.694H320.764V140.445H321.746V140.694H322.728V140.445H323.71V140.694H324.691V140.445H325.673V140.694H326.655V140.445H327.637V140.694H328.618V140.445H329.6V140.694H330.582V140.445H331.563V140.694H332.545V140.445H333.527V140.694H334.509V140.445H335.49V140.694H336.472V140.445H337.454V140.694H338.436V140.445H339.417V140.694H340.399V140.445H341.381V140.694H342.362V140.445H343.344V140.694H344.326V140.445H345.308V140.694H346.289V140.445H347.271V140.694H348.253V140.445H349.235V140.694H350.216V140.445H351.198V140.694H352.18V140.445H353.161V140.694H354.143V140.445H355.125V140.694H356.107V140.445H357.088V140.694H358.07V140.445H359.052V140.694H360.034V140.445H361.015V140.694H361.997V140.445H362.979V140.694H363.96V140.445H364.942V140.694H365.433C365.544 140.694 365.652 140.705 365.756 140.725L365.805 140.481C366.055 140.531 366.287 140.63 366.491 140.767L366.353 140.974C366.533 141.095 366.689 141.251 366.811 141.432L367.017 141.293C367.155 141.498 367.254 141.73 367.304 141.98L367.059 142.029C367.08 142.133 367.091 142.241 367.091 142.352V142.843H367.34V143.825H367.091V144.807H367.34V145.789H367.091V146.772H367.34V147.754H367.091V148.736H367.34V149.718H367.091V150.7H367.34V151.682H367.091V152.665H367.34V153.647H367.091V154.629H367.34V155.611H367.091V156.593H367.34V157.575H367.091V158.558H367.34V159.54H367.091V160.522H367.34V161.504H367.091V162.486H367.34V163.468H367.091V164.451H367.34V165.433H367.091V166.415H367.34V167.397H367.091V168.379H367.34V169.362H367.091V170.344H367.34V171.326H367.091V172.308H367.34V173.29H367.091V173.781C367.091 173.892 367.08 174 367.059 174.104L367.304 174.153C367.254 174.403 367.155 174.635 367.017 174.84L366.811 174.701C366.689 174.882 366.533 175.038 366.353 175.159L366.491 175.366C366.287 175.503 366.055 175.602 365.805 175.652L365.756 175.408C365.652 175.429 365.544 175.439 365.433 175.439H364.942V175.688H363.961V175.439H362.979V175.688H361.997V175.439H361.015V175.688H360.034V175.439H359.052V175.688H358.07V175.439H357.088V175.688H356.107V175.439H355.125V175.688H354.143V175.439H353.162V175.688H352.18V175.439H351.198V175.688H350.216V175.439H349.235V175.688H348.253V175.439H347.271V175.688H346.289V175.439H345.308V175.688H344.326V175.439H343.344V175.688H342.362V175.439H341.381V175.688H340.399V175.439H339.417V175.688H338.436V175.439H337.454V175.688H336.472V175.439H335.49V175.688H334.509V175.439H333.527V175.688H332.545V175.439H331.563V175.688H330.582V175.439H329.6V175.688H328.618V175.439H327.637V175.688H326.655V175.439H325.673V175.688H324.691V175.439H323.71V175.688H322.728V175.439H321.746V175.688H320.764V175.439H319.783V175.688H318.801V175.439H317.819V175.688H316.838V175.439H315.856V175.688H314.874V175.439H313.892V175.688H312.911V175.439H311.929V175.688H310.947V175.439H309.965V175.688H308.984V175.439H308.002V175.688H307.02V175.439H306.039V175.688H305.057V175.439H304.075V175.688H303.093V175.439H302.602Z" fill="white" stroke="#2A2A2A" stroke-width="0.497979" stroke-dasharray="1 1"/>
<path d="M365.729 185.082H302.307C301.42 185.082 300.695 184.357 300.695 183.471C300.695 182.584 301.42 181.859 302.307 181.859H365.729C366.616 181.859 367.34 182.584 367.34 183.471C367.34 184.357 366.616 185.082 365.729 185.082Z" fill="#DCE8F4"/>
<path d="M365.729 191.268H302.307C301.42 191.268 300.695 190.543 300.695 189.657C300.695 188.77 301.42 188.045 302.307 188.045H365.729C366.616 188.045 367.34 188.77 367.34 189.657C367.34 190.543 366.616 191.268 365.729 191.268Z" fill="#DCE8F4"/>
<path d="M365.729 197.562H302.307C301.42 197.562 300.695 196.838 300.695 195.951C300.695 195.064 301.42 194.339 302.307 194.339H365.729C366.616 194.339 367.34 195.064 367.34 195.951C367.34 196.838 366.616 197.562 365.729 197.562Z" fill="#DCE8F4"/>
<path d="M415.198 152.67C415.804 152.67 416.295 152.166 416.295 151.545C416.295 150.923 415.804 150.42 415.198 150.42C414.593 150.42 414.102 150.923 414.102 151.545C414.102 152.166 414.593 152.67 415.198 152.67Z" fill="white"/>
<path d="M123.666 285.98H33.7517C31.2323 285.98 29.1875 283.923 29.1875 281.389V150.954C29.1875 148.42 31.2323 146.364 33.7517 146.364H123.675C126.195 146.364 128.24 148.42 128.24 150.954V281.389C128.231 283.923 126.195 285.98 123.666 285.98Z" fill="#0064B7"/>
<path d="M120.014 282.812H36.7678C34.136 282.812 32 280.676 32 278.045V153.671C32 151.039 34.136 148.903 36.7678 148.903H120.024C122.656 148.903 124.792 151.039 124.792 153.671V278.045C124.782 280.686 122.656 282.812 120.014 282.812Z" fill="#E9EEF2"/>
<path d="M119.07 167.906H38.0072C36.9583 167.906 36.1001 167.048 36.1001 165.999V155.939C36.1001 154.89 36.9583 154.032 38.0072 154.032H119.07C120.119 154.032 120.977 154.89 120.977 155.939V165.999C120.977 167.048 120.119 167.906 119.07 167.906Z" fill="white"/>
<path d="M44.342 164.817C46.2269 164.817 47.7549 163.289 47.7549 161.404C47.7549 159.519 46.2269 157.991 44.342 157.991C42.4572 157.991 40.9292 159.519 40.9292 161.404C40.9292 163.289 42.4572 164.817 44.342 164.817Z" fill="#EE384E"/>
<path d="M116.124 158.313H108.496C108.105 158.313 107.781 157.989 107.781 157.598C107.781 157.207 108.105 156.883 108.496 156.883H116.124C116.515 156.883 116.84 157.207 116.84 157.598C116.84 157.989 116.515 158.313 116.124 158.313Z" fill="#D0ECFB"/>
<path d="M116.124 160.984H108.496C108.105 160.984 107.781 160.66 107.781 160.269C107.781 159.878 108.105 159.554 108.496 159.554H116.124C116.515 159.554 116.84 159.878 116.84 160.269C116.84 160.66 116.515 160.984 116.124 160.984Z" fill="#D0ECFB"/>
<path d="M116.124 163.806H108.496C108.105 163.806 107.781 163.482 107.781 163.091C107.781 162.7 108.105 162.376 108.496 162.376H116.124C116.515 162.376 116.84 162.7 116.84 163.091C116.84 163.482 116.515 163.806 116.124 163.806Z" fill="#D0ECFB"/>
<path d="M119.067 198.249H38.0517C37.0027 198.249 36.1445 197.391 36.1445 196.342V173.523C36.1445 172.474 37.0027 171.616 38.0517 171.616H119.067C120.116 171.616 120.974 172.474 120.974 173.523V196.342C120.974 197.4 120.116 198.249 119.067 198.249Z" fill="white"/>
<path d="M76.854 194.692H40.4467C39.3978 194.692 38.5396 193.834 38.5396 192.785V175.974C38.5396 174.925 39.3978 174.067 40.4467 174.067H76.854C77.9029 174.067 78.7611 174.925 78.7611 175.974V192.785C78.7611 193.844 77.9029 194.692 76.854 194.692Z" fill="#268DFF"/>
<path d="M87.7626 180.484H111.63C112.336 180.484 112.908 179.912 112.908 179.206C112.908 178.501 112.336 177.928 111.63 177.928H87.7626C87.057 177.928 86.4849 178.501 86.4849 179.206C86.4944 179.921 87.0665 180.484 87.7626 180.484Z" fill="#00A9FF"/>
<path d="M87.3747 183.907H116.554C116.907 183.907 117.193 183.621 117.193 183.268C117.193 182.915 116.907 182.629 116.554 182.629H87.3747C87.0219 182.629 86.7358 182.915 86.7358 183.268C86.7358 183.621 87.0219 183.907 87.3747 183.907Z" fill="#ECF2F9"/>
<path d="M87.3747 187.407H111.643C111.996 187.407 112.282 187.121 112.282 186.768C112.282 186.415 111.996 186.129 111.643 186.129H87.3747C87.0219 186.129 86.7358 186.415 86.7358 186.768C86.7358 187.131 87.0219 187.407 87.3747 187.407Z" fill="#ECF2F9"/>
<path d="M75.4048 245.137H37.9867C36.9378 245.137 36.0796 244.279 36.0796 243.23V203.857C36.0796 202.809 36.9378 201.95 37.9867 201.95H75.4048C76.4537 201.95 77.3119 202.809 77.3119 203.857V243.23C77.3119 244.289 76.4537 245.137 75.4048 245.137Z" fill="white"/>
<path d="M40.4755 227.199C40.3648 227.199 40.2568 227.188 40.1523 227.167L40.1036 227.411C39.8541 227.361 39.6217 227.263 39.4171 227.125L39.556 226.918C39.3752 226.797 39.2192 226.641 39.0979 226.46L38.8912 226.599C38.7538 226.395 38.6548 226.162 38.605 225.913L38.8492 225.864C38.8283 225.759 38.8173 225.651 38.8173 225.541V225.039H38.5684V224.034H38.8173V223.03H38.5684V222.025H38.8173V221.021H38.5684V220.016H38.8173V219.012H38.5684V218.008H38.8173V217.003H38.5684V215.999H38.8173V214.994H38.5684V213.99H38.8173V212.985H38.5684V211.981H38.8173V210.977H38.5684V209.972H38.8173V208.968H38.5684V207.963H38.8173V207.461C38.8173 207.35 38.8283 207.242 38.8492 207.138L38.605 207.089C38.6548 206.84 38.7538 206.607 38.8912 206.403L39.0979 206.542C39.2192 206.361 39.3752 206.205 39.556 206.083L39.4171 205.877C39.6217 205.739 39.8541 205.64 40.1036 205.591L40.1523 205.835C40.2568 205.814 40.3648 205.803 40.4755 205.803H40.9849V205.554H42.0037V205.803H43.0226V205.554H44.0414V205.803H45.0602V205.554H46.0791V205.803H47.0979V205.554H48.1167V205.803H49.1355V205.554H50.1544V205.803H51.1732V205.554H52.192V205.803H53.2109V205.554H54.2297V205.803H55.2485V205.554H56.2673V205.803H57.2862V205.554H58.305V205.803H59.3238V205.554H60.3427V205.803H61.3615V205.554H62.3803V205.803H63.3992V205.554H64.418V205.803H65.4368V205.554H66.4556V205.803H67.4745V205.554H68.4933V205.803H69.5121V205.554H70.531V205.803H71.5498V205.554H72.5686V205.803H73.078C73.1887 205.803 73.2967 205.814 73.4012 205.835L73.4499 205.591C73.6994 205.64 73.9318 205.739 74.1364 205.877L73.9976 206.083C74.1783 206.205 74.3343 206.361 74.4557 206.542L74.6624 206.403C74.7998 206.607 74.8987 206.84 74.9485 207.089L74.7043 207.138C74.7252 207.242 74.7362 207.35 74.7362 207.461V207.963H74.9852V208.968H74.7362V209.972H74.9852V210.977H74.7362V211.981H74.9852V212.985H74.7362V213.99H74.9852V214.994H74.7362V215.999H74.9852V217.003H74.7362V218.008H74.9852V219.012H74.7362V220.016H74.9852V221.021H74.7362V222.025H74.9852V223.03H74.7362V224.034H74.9852V225.039H74.7362V225.541C74.7362 225.651 74.7252 225.759 74.7043 225.864L74.9485 225.913C74.8987 226.162 74.7998 226.395 74.6624 226.599L74.4557 226.46C74.3343 226.641 74.1783 226.797 73.9976 226.918L74.1364 227.125C73.9318 227.263 73.6994 227.361 73.4499 227.411L73.4012 227.167C73.2967 227.188 73.1887 227.199 73.078 227.199H72.5686V227.448H71.5498V227.199H70.531V227.448H69.5121V227.199H68.4933V227.448H67.4745V227.199H66.4556V227.448H65.4368V227.199H64.418V227.448H63.3992V227.199H62.3803V227.448H61.3615V227.199H60.3427V227.448H59.3238V227.199H58.305V227.448H57.2862V227.199H56.2673V227.448H55.2485V227.199H54.2297V227.448H53.2109V227.199H52.192V227.448H51.1732V227.199H50.1544V227.448H49.1355V227.199H48.1167V227.448H47.0979V227.199H46.0791V227.448H45.0602V227.199H44.0414V227.448H43.0226V227.199H42.0037V227.448H40.9849V227.199H40.4755Z" fill="white" stroke="#2A2A2A" stroke-width="0.497979" stroke-dasharray="1 1"/>
<path d="M74.2425 233.14H39.094C38.7411 233.14 38.4551 232.854 38.4551 232.501C38.4551 232.148 38.7411 231.862 39.094 231.862H74.233C74.5858 231.862 74.8719 232.148 74.8719 232.501C74.8719 232.854 74.5953 233.14 74.2425 233.14Z" fill="#D9E5F1"/>
<path d="M74.233 236.907H39.094C38.7411 236.907 38.4551 236.621 38.4551 236.268C38.4551 235.915 38.7411 235.629 39.094 235.629H74.233C74.5858 235.629 74.8719 235.915 74.8719 236.268C74.8719 236.621 74.5858 236.907 74.233 236.907Z" fill="#D9E5F1"/>
<path d="M54.7611 240.618H39.094C38.7411 240.618 38.4551 240.332 38.4551 239.979C38.4551 239.626 38.7411 239.34 39.094 239.34H54.7516C55.1044 239.34 55.3905 239.626 55.3905 239.979C55.4 240.332 55.1139 240.618 54.7611 240.618Z" fill="#D9E5F1"/>
<path d="M75.4048 281.143H37.9867C36.9378 281.143 36.0796 280.285 36.0796 279.236V250.801C36.0796 249.752 36.9378 248.894 37.9867 248.894H75.4048C76.4537 248.894 77.3119 249.752 77.3119 250.801V279.236C77.3119 280.285 76.4537 281.143 75.4048 281.143Z" fill="white"/>
<path d="M73.078 274.393H40.4755C39.4266 274.393 38.5684 273.534 38.5684 272.485V254.406C38.5684 253.357 39.4266 252.499 40.4755 252.499H73.078C74.127 252.499 74.9852 253.357 74.9852 254.406V272.485C74.9852 273.544 74.127 274.393 73.078 274.393Z" fill="#DCE8F4"/>
<path d="M74.2425 279.447H39.094C38.7411 279.447 38.4551 279.161 38.4551 278.808C38.4551 278.455 38.7411 278.169 39.094 278.169H74.233C74.5858 278.169 74.8719 278.455 74.8719 278.808C74.8719 279.161 74.5953 279.447 74.2425 279.447Z" fill="#D9E5F1"/>
<path d="M119.488 281.182H82.0702C81.0213 281.182 80.1631 280.324 80.1631 279.275V250.849C80.1631 249.8 81.0213 248.942 82.0702 248.942H119.488C120.537 248.942 121.395 249.8 121.395 250.849V279.285C121.395 280.334 120.537 281.182 119.488 281.182Z" fill="white"/>
<path d="M84.559 274.18C84.4483 274.18 84.3403 274.169 84.2358 274.148L84.1871 274.392C83.9376 274.342 83.7052 274.243 83.5006 274.106L83.6395 273.899C83.4587 273.778 83.3027 273.622 83.1814 273.441L82.9746 273.58C82.8372 273.375 82.7383 273.143 82.6885 272.893L82.9327 272.845C82.9118 272.74 82.9008 272.632 82.9008 272.521V272.019H82.6519V271.015H82.9008V270.01H82.6519V269.006H82.9008V268.002H82.6519V266.997H82.9008V265.993H82.6519V264.988H82.9008V263.984H82.6519V262.979H82.9008V261.975H82.6519V260.971H82.9008V259.966H82.6519V258.962H82.9008V257.957H82.6519V256.953H82.9008V255.948H82.6519V254.944H82.9008V254.442C82.9008 254.331 82.9118 254.223 82.9327 254.119L82.6885 254.07C82.7383 253.82 82.8372 253.588 82.9746 253.383L83.1814 253.522C83.3027 253.342 83.4587 253.186 83.6395 253.064L83.5006 252.857C83.7052 252.72 83.9376 252.621 84.1871 252.571L84.2358 252.815C84.3403 252.795 84.4483 252.784 84.559 252.784H85.0684V252.535H86.0872V252.784H87.1061V252.535H88.1249V252.784H89.1437V252.535H90.1626V252.784H91.1814V252.535H92.2002V252.784H93.219V252.535H94.2379V252.784H95.2567V252.535H96.2755V252.784H97.2944V252.535H98.3132V252.784H99.332V252.535H100.351V252.784H101.37V252.535H102.388V252.784H103.407V252.535H104.426V252.784H105.445V252.535H106.464V252.784H107.483V252.535H108.501V252.784H109.52V252.535H110.539V252.784H111.558V252.535H112.577V252.784H113.596V252.535H114.614V252.784H115.633V252.535H116.652V252.784H117.162C117.272 252.784 117.38 252.795 117.485 252.815L117.533 252.571C117.783 252.621 118.015 252.72 118.22 252.857L118.081 253.064C118.262 253.186 118.418 253.342 118.539 253.522L118.746 253.383C118.883 253.588 118.982 253.82 119.032 254.07L118.788 254.119C118.809 254.223 118.82 254.331 118.82 254.442V254.944H119.069V255.948H118.82V256.953H119.069V257.957H118.82V258.962H119.069V259.966H118.82V260.971H119.069V261.975H118.82V262.979H119.069V263.984H118.82V264.988H119.069V265.993H118.82V266.997H119.069V268.002H118.82V269.006H119.069V270.01H118.82V271.015H119.069V272.019H118.82V272.521C118.82 272.633 118.809 272.741 118.788 272.846L119.032 272.894C118.983 273.144 118.885 273.377 118.748 273.581L118.541 273.443C118.42 273.624 118.264 273.779 118.083 273.9L118.221 274.107C118.016 274.244 117.784 274.343 117.534 274.392L117.485 274.148C117.381 274.169 117.272 274.18 117.162 274.18H116.652V274.429H115.633V274.18H114.614V274.429H113.596V274.18H112.577V274.429H111.558V274.18H110.539V274.429H109.52V274.18H108.501V274.429H107.483V274.18H106.464V274.429H105.445V274.18H104.426V274.429H103.407V274.18H102.388V274.429H101.37V274.18H100.351V274.429H99.332V274.18H98.3132V274.429H97.2944V274.18H96.2755V274.429H95.2567V274.18H94.2379V274.429H93.219V274.18H92.2002V274.429H91.1814V274.18H90.1625V274.429H89.1437V274.18H88.1249V274.429H87.1061V274.18H86.0872V274.429H85.0684V274.18H84.559Z" fill="white" stroke="#2A2A2A" stroke-width="0.497979" stroke-dasharray="1 1"/>
<path d="M118.326 279.487H83.177C82.8242 279.487 82.5381 279.201 82.5381 278.848C82.5381 278.495 82.8242 278.209 83.177 278.209H118.316C118.669 278.209 118.955 278.495 118.955 278.848C118.955 279.201 118.678 279.487 118.326 279.487Z" fill="#D9E5F1"/>
<path d="M119.063 245.221H81.6444C80.5955 245.221 79.7373 244.363 79.7373 243.314V203.932C79.7373 202.883 80.5955 202.025 81.6444 202.025H119.063C120.111 202.025 120.97 202.883 120.97 203.932V243.305C120.97 244.363 120.121 245.221 119.063 245.221Z" fill="white"/>
<path d="M116.732 227.526H84.1298C83.0809 227.526 82.2227 226.668 82.2227 225.619V207.539C82.2227 206.49 83.0809 205.632 84.1298 205.632H116.732C117.781 205.632 118.639 206.49 118.639 207.539V225.619C118.639 226.677 117.791 227.526 116.732 227.526Z" fill="#EE384E"/>
<path d="M117.899 233.216H82.7605C82.4077 233.216 82.1216 232.93 82.1216 232.577C82.1216 232.224 82.4077 231.938 82.7605 231.938H117.899C118.252 231.938 118.538 232.224 118.538 232.577C118.538 232.93 118.252 233.216 117.899 233.216Z" fill="#D9E5F1"/>
<path d="M117.89 236.984H82.7605C82.4077 236.984 82.1216 236.698 82.1216 236.345C82.1216 235.992 82.4077 235.706 82.7605 235.706H117.899C118.252 235.706 118.538 235.992 118.538 236.345C118.529 236.698 118.243 236.984 117.89 236.984Z" fill="#D9E5F1"/>
<path d="M98.4181 240.695H82.7605C82.4077 240.695 82.1216 240.408 82.1216 240.056C82.1216 239.703 82.4077 239.417 82.7605 239.417H98.4181C98.7709 239.417 99.057 239.703 99.057 240.056C99.057 240.408 98.7709 240.695 98.4181 240.695Z" fill="#D9E5F1"/>
<path d="M167.111 301.961L119.692 302.016C117.19 302.016 115.16 299.962 115.151 297.42L115.033 196.314C115.033 193.772 117.054 191.709 119.556 191.699L166.975 191.644C169.476 191.644 171.507 193.698 171.516 196.241L171.634 297.346C171.643 299.889 169.612 301.961 167.111 301.961Z" fill="#0064B7"/>
<path d="M163.984 297.907L122.942 297.955C120.31 297.955 118.174 295.828 118.165 293.196L118.05 200.824C118.05 198.192 120.177 196.056 122.809 196.047L163.85 195.999C166.482 195.999 168.618 198.126 168.628 200.757L168.742 293.13C168.752 295.761 166.616 297.897 163.984 297.907Z" fill="#E9EEF2"/>
<path d="M163.346 210.521L124.106 210.569C123.057 210.569 122.199 209.72 122.199 208.662L122.189 202.044C122.189 200.995 123.038 200.137 124.097 200.137L163.336 200.089C164.385 200.089 165.243 200.938 165.243 201.996L165.253 208.614C165.253 209.673 164.404 210.521 163.346 210.521Z" fill="white"/>
<path d="M127.225 207.721C128.572 207.721 129.663 206.63 129.663 205.283C129.663 203.937 128.572 202.845 127.225 202.845C125.879 202.845 124.788 203.937 124.788 205.283C124.788 206.63 125.879 207.721 127.225 207.721Z" fill="#EE384E"/>
<path d="M163.058 203.809L156.307 203.818C156.031 203.818 155.802 203.589 155.802 203.313C155.802 203.036 156.031 202.807 156.307 202.807L163.058 202.798C163.335 202.798 163.564 203.027 163.564 203.303C163.564 203.58 163.344 203.809 163.058 203.809Z" fill="#D0ECFB"/>
<path d="M163.058 205.708L156.307 205.718C156.031 205.718 155.802 205.489 155.802 205.212C155.802 204.936 156.031 204.707 156.307 204.707L163.058 204.697C163.335 204.697 163.564 204.926 163.564 205.203C163.573 205.479 163.344 205.708 163.058 205.708Z" fill="#D0ECFB"/>
<path d="M163.065 207.72L156.313 207.73C156.037 207.73 155.808 207.501 155.808 207.225C155.808 206.948 156.037 206.719 156.313 206.719L163.065 206.71C163.341 206.71 163.57 206.938 163.57 207.215C163.57 207.492 163.341 207.72 163.065 207.72Z" fill="#D0ECFB"/>
<path d="M163.393 249.962L124.154 250.009C123.105 250.009 122.247 249.161 122.247 248.102L122.208 216.625C122.208 215.576 123.057 214.718 124.116 214.718L163.355 214.67C164.404 214.67 165.262 215.519 165.262 216.577L165.3 248.054C165.3 249.103 164.452 249.952 163.393 249.962Z" fill="#FCFEFF"/>
<path d="M153.486 219.83L132.317 219.859C131.611 219.859 131.039 219.287 131.039 218.591C131.039 217.885 131.611 217.313 132.307 217.313L153.477 217.284C154.182 217.284 154.754 217.856 154.754 218.552C154.764 219.258 154.192 219.83 153.486 219.83Z" fill="#00A9FF"/>
<path d="M124.794 245.041L124.794 245.04L124.794 244.566L124.545 244.566L124.544 243.618L124.793 243.617L124.792 242.668L124.543 242.669L124.542 241.72L124.791 241.72L124.79 240.771L124.541 240.771L124.54 239.822L124.789 239.822L124.788 238.873L124.539 238.874L124.538 237.925L124.787 237.924L124.786 236.976L124.537 236.976L124.536 236.027L124.785 236.027L124.785 235.553C124.785 235.553 124.785 235.553 124.785 235.553C124.785 235.442 124.796 235.333 124.816 235.229L124.572 235.18C124.621 234.931 124.72 234.698 124.857 234.493L125.064 234.631C125.185 234.451 125.341 234.295 125.522 234.173L125.383 233.967C125.587 233.83 125.82 233.731 126.071 233.682L126.119 233.926C126.223 233.905 126.332 233.895 126.443 233.895L126.443 233.895L126.946 233.894L126.945 233.645L127.951 233.644L127.951 233.893L128.956 233.892L128.956 233.643L129.961 233.642L129.961 233.891L130.966 233.89L130.966 233.641L131.971 233.639L131.972 233.888L132.977 233.887L132.976 233.638L133.982 233.637L133.982 233.886L134.987 233.885L134.987 233.636L135.992 233.635L135.992 233.884L136.997 233.883L136.997 233.634L138.002 233.633L138.003 233.882L139.008 233.881L139.007 233.632L140.013 233.63L140.013 233.879L141.018 233.878L141.018 233.629L142.023 233.628L142.023 233.877L143.028 233.876L143.028 233.627L144.033 233.626L144.034 233.875L145.039 233.874L145.039 233.625L146.044 233.624L146.044 233.873L147.049 233.872L147.049 233.623L148.054 233.621L148.054 233.87L149.059 233.869L149.059 233.62L150.064 233.619L150.065 233.868L151.07 233.867L151.07 233.618L152.075 233.617L152.075 233.866L153.08 233.865L153.08 233.616L154.085 233.615L154.085 233.864L155.091 233.863L155.09 233.614L156.095 233.612L156.096 233.861L157.101 233.86L157.101 233.611L158.106 233.61L158.106 233.859L159.111 233.858L159.111 233.609L160.116 233.608L160.116 233.857L160.619 233.856C160.619 233.856 160.619 233.856 160.619 233.856C160.73 233.856 160.838 233.867 160.943 233.888L160.991 233.644C161.241 233.693 161.474 233.792 161.678 233.929L161.54 234.136C161.721 234.257 161.877 234.412 161.998 234.593L162.205 234.455C162.342 234.659 162.44 234.892 162.49 235.142L162.245 235.191C162.266 235.295 162.277 235.403 162.277 235.515V235.515L162.277 235.989L162.526 235.989L162.527 236.938L162.278 236.938L162.279 237.887L162.528 237.887L162.529 238.835L162.28 238.836L162.281 239.784L162.53 239.784L162.531 240.733L162.282 240.733L162.283 241.682L162.532 241.682L162.533 242.631L162.284 242.631L162.285 243.58L162.534 243.579L162.535 244.528L162.286 244.528L162.286 245.003C162.286 245.003 162.286 245.003 162.286 245.003C162.286 245.114 162.276 245.222 162.255 245.327L162.499 245.375C162.45 245.625 162.351 245.858 162.214 246.062L162.008 245.924C161.886 246.105 161.73 246.261 161.55 246.382L161.688 246.589C161.483 246.726 161.25 246.824 161 246.873L160.952 246.629C160.847 246.65 160.739 246.661 160.628 246.661H160.628L160.125 246.661L160.126 246.91L159.12 246.911L159.12 246.662L158.115 246.664L158.115 246.913L157.11 246.914L157.11 246.665L156.105 246.666L156.105 246.915L155.1 246.916L155.1 246.667L154.094 246.668L154.095 246.917L153.089 246.918L153.089 246.669L152.084 246.67L152.084 246.919L151.079 246.92L151.079 246.671L150.074 246.673L150.074 246.922L149.069 246.923L149.068 246.674L148.063 246.675L148.064 246.924L147.058 246.925L147.058 246.676L146.053 246.677L146.053 246.926L145.048 246.927L145.048 246.678L144.043 246.679L144.043 246.928L143.038 246.929L143.037 246.68L142.032 246.681L142.033 246.93L141.027 246.932L141.027 246.683L140.022 246.684L140.022 246.933L139.017 246.934L139.017 246.685L138.012 246.686L138.012 246.935L137.007 246.936L137.006 246.687L136.001 246.688L136.001 246.937L134.996 246.938L134.996 246.689L133.991 246.69L133.991 246.939L132.986 246.941L132.986 246.692L131.981 246.693L131.981 246.942L130.976 246.943L130.975 246.694L129.97 246.695L129.97 246.944L128.965 246.945L128.965 246.696L127.96 246.697L127.96 246.946L126.955 246.947L126.955 246.698L126.452 246.699C126.452 246.699 126.452 246.699 126.452 246.699C126.452 246.699 126.452 246.699 126.452 246.699C126.341 246.699 126.233 246.688 126.128 246.667L126.08 246.912C125.83 246.862 125.597 246.764 125.393 246.627L125.531 246.42C125.35 246.299 125.194 246.143 125.073 245.962L124.866 246.101C124.729 245.896 124.631 245.664 124.581 245.413L124.826 245.365C124.805 245.26 124.794 245.152 124.794 245.041Z" fill="white" stroke="#2A2A2A" stroke-width="0.497979" stroke-dasharray="1 1"/>
<path d="M158.692 223.967L127.453 224.005C126.718 224.005 126.118 223.405 126.118 222.67C126.118 221.936 126.718 221.335 127.453 221.335L158.692 221.297C159.426 221.297 160.027 221.898 160.027 222.632C160.027 223.366 159.426 223.967 158.692 223.967Z" fill="#ECF2F8"/>
<path d="M146.771 231.53L139.695 231.54C138.417 231.54 137.378 230.51 137.378 229.232C137.378 227.954 138.408 226.915 139.686 226.915L146.761 226.905C148.039 226.905 149.078 227.935 149.078 229.213C149.088 230.491 148.048 231.53 146.771 231.53Z" fill="#EE384E"/>
<path d="M165.29 297.939L122.37 297.986L122.322 255.924C122.322 254.876 123.171 254.017 124.229 254.017L163.335 253.97C164.384 253.97 165.242 254.818 165.242 255.877L165.29 297.939Z" fill="white"/>
<path d="M160.963 280.876L126.968 280.914C125.919 280.914 125.061 280.065 125.061 279.007L125.042 260.784C125.042 259.735 125.891 258.877 126.949 258.877L160.944 258.839C161.993 258.839 162.851 259.688 162.851 260.746L162.87 278.969C162.87 280.027 162.012 280.876 160.963 280.876Z" fill="#268DFF"/>
<path d="M161.866 287.378L126.078 287.426C125.525 287.426 125.067 286.977 125.067 286.415C125.067 285.862 125.516 285.404 126.078 285.404L161.866 285.356C162.419 285.356 162.876 285.805 162.876 286.367C162.876 286.93 162.419 287.378 161.866 287.378Z" fill="#DAE6F4"/>
<path d="M161.876 291.251L126.088 291.298C125.535 291.298 125.078 290.85 125.078 290.287C125.078 289.734 125.526 289.277 126.088 289.277L161.876 289.229C162.429 289.229 162.887 289.677 162.887 290.24C162.877 290.802 162.429 291.251 161.876 291.251Z" fill="#DAE6F4"/>
<path d="M141.641 295.322L125.993 295.341C125.488 295.341 125.078 294.931 125.078 294.426C125.078 293.92 125.488 293.51 125.993 293.51L141.641 293.491C142.147 293.491 142.557 293.901 142.557 294.407C142.547 294.912 142.147 295.322 141.641 295.322Z" fill="#DAE6F4"/>
<path d="M252.256 15.5325C252.256 15.5325 253.41 18.9558 255.641 21.8165C257.872 24.6772 255.765 27.3091 255.765 27.3091C255.765 27.3091 250.358 30.1698 248.766 26.5176C248.766 26.5176 248.318 24.5342 248.241 23.1134C248.222 22.7987 248.155 22.4935 248.012 22.2075C247.707 21.5972 247.221 19.7473 245.657 21.4256C245.657 21.4256 243.817 24.9538 241.042 21.9977C240.937 21.8833 240.87 21.7402 240.832 21.5877L240.641 20.6246L239.716 20.5197C239.478 20.4911 239.287 20.2813 239.287 20.0429V19.1179H238.419C238.152 19.1179 237.933 18.9081 237.924 18.6316L237.733 9.16265C237.733 9.16265 241.471 5.4628 245.972 7.57019C250.463 9.68712 250.825 9.01008 252.256 15.5325Z" fill="#FFBF9C"/>
<path d="M237.642 11.2812C237.652 11.615 237.48 11.9297 237.204 12.1204C236.508 12.6067 235.182 13.0644 233.742 11.1859C231.616 8.43007 233.904 8.37286 233.904 8.37286C233.904 8.37286 231.997 2.80401 237.728 3.96737C237.728 3.96737 240.913 -1.97337 244.832 2.95659C244.832 2.95659 251.412 0.143555 251.784 6.2464C251.784 6.2464 256.323 9.62203 253.748 16.2303C253.605 16.5926 253.281 16.8501 252.89 16.9168C251.622 17.1457 248.971 17.0313 249.476 11.8915C249.533 11.2908 249.486 10.671 249.295 10.0988C248.971 9.12618 248.265 8.22029 246.844 10.28C246.844 10.28 245.09 12.4541 244.508 9.59343C243.926 6.73272 239.044 8.90686 238.195 9.90811C237.719 10.4802 237.633 10.9666 237.642 11.2812Z" fill="#170D54"/>
<path d="M248.367 24.3254C248.367 24.3254 236.924 23.0095 236.552 33.6799L236.447 35.9113L267.963 35.3296C267.963 35.3296 269.345 23.4481 261.221 23.4481L256.51 23.6198C256.51 23.6198 256.444 27.4817 252.515 27.5294C248.586 27.5771 248.367 24.3254 248.367 24.3254Z" fill="#F79F03"/>
<path d="M231.253 35.055C231.253 35.055 230.299 31.4505 232.788 31.2884C235.277 31.1263 235.439 33.1955 235.439 34.9978C235.439 34.9978 234.552 35.2648 234.276 35.0264C233.999 34.788 233.484 34.9882 233.284 35.0645C233.084 35.1503 231.491 35.3601 231.253 35.055Z" fill="#FFBF9C"/>
<path d="M257.459 34.6819C257.459 34.6819 256.982 32.1931 259.586 32.031C262.189 31.8689 262.666 33.6234 262.77 34.8917C262.875 36.1599 262.723 36.7416 262.236 36.5318C261.769 36.3316 261.693 36.0074 261.693 36.0074C261.693 36.0074 261.493 36.1885 261.235 36.3793C260.997 36.5509 260.358 36.3983 260.224 36.2171C260.1 36.036 259.128 36.2171 259.004 36.3793C258.804 36.6272 257.945 36.4365 257.783 36.1123C257.621 35.7976 257.459 34.6819 257.459 34.6819Z" fill="#FFBF9C"/>
<path d="M147.304 194.474H139.666C139.405 194.474 139.194 194.263 139.194 194.003C139.194 193.742 139.405 193.531 139.666 193.531H147.304C147.564 193.531 147.776 193.742 147.776 194.003C147.776 194.27 147.564 194.474 147.304 194.474Z" fill="white"/>
<path d="M11.3996 200.735L17.3672 199.062L15.6937 193.094L9.72605 194.768L11.3996 200.735Z" fill="#EE384E"/>
<path d="M415.054 46.113L421.022 44.4395L419.348 38.4718L413.381 40.1453L415.054 46.113Z" fill="#003EB0"/>
<path d="M428.742 162.706L434.71 161.033L433.036 155.065L427.069 156.739L428.742 162.706Z" fill="#EE384E"/>
<path d="M183.126 115.785L188.23 106.949H208.634L203.531 115.785H183.126Z" fill="#3A77FD"/>
<path d="M183.126 115.785L188.23 106.949H192.999L183.126 115.785Z" fill="#1F4BAF"/>
<path d="M198.438 106.95H208.644L198.438 89.2783H188.231L198.438 106.95Z" fill="#FED125"/>
<path d="M198.44 106.95H208.647L196.096 102.884L198.44 106.95Z" fill="#B5950B"/>
<path d="M178.023 106.95L183.127 115.787L193.333 98.1144L188.23 89.2783L178.023 106.95Z" fill="#00A95B"/>
<path d="M190.882 102.352L193.334 98.1144L188.231 89.2783L190.882 102.352Z" fill="#007541"/>
<path d="M8.54523 157.531C13.8169 157.531 18.0905 153.258 18.0905 147.986C18.0905 142.715 13.8169 138.441 8.54523 138.441C3.27354 138.441 -1 142.715 -1 147.986C-1 153.258 3.27354 157.531 8.54523 157.531Z" fill="#FCBE42"/>
<path d="M5.20557 146.08L9.01984 151.811L11.8901 147.034" stroke="white" stroke-width="1.99192" stroke-miterlimit="10"/>
<path d="M400.963 309.001C418.612 309.001 432.919 306.947 432.919 304.413C432.919 301.879 418.612 299.825 400.963 299.825C383.315 299.825 369.008 301.879 369.008 304.413C369.008 306.947 383.315 309.001 400.963 309.001Z" fill="white"/>
<path d="M397.479 187.124L370.874 166.143C370.874 166.143 370.145 165.665 369.098 164.14C368.039 162.626 366.002 161.112 364.818 161.442L362.188 158.983C362.188 158.983 361.266 158.801 362.188 159.655C363.11 160.508 363.634 161.567 363.634 161.567C363.634 161.567 362.814 162 363.042 162.33C363.042 162.33 362.382 162.523 362.45 163.024C362.45 163.024 360.867 163.514 362.416 165.062C363.964 166.61 364.488 167.236 366.207 167.988C367.914 168.75 369.201 169.638 370.885 171.221C372.57 172.803 394.143 193.522 394.143 193.522L397.479 187.124Z" fill="#FFBE9B"/>
<path d="M409.921 181.854C409.921 181.854 415.966 181.706 416.911 174.932C417.856 168.159 413.268 165.825 410.65 164.447C408.031 163.059 406.426 163.286 405.265 161.385C404.104 159.495 403.66 158.983 403.66 158.983C403.66 158.983 398.742 164.094 402.18 168.637C405.618 173.19 409.921 181.854 409.921 181.854Z" fill="#180857"/>
<path d="M419.756 299.895C419.824 299.918 419.824 300.021 419.847 300.089C420.018 300.829 420.94 305.143 418.606 305.189C416.227 305.246 407.199 305.303 405.947 305.314C405.856 305.314 405.788 305.257 405.765 305.166C405.674 304.813 405.515 303.937 406.118 303.664C406.118 303.664 411.366 301.227 413.165 299.793C414.781 298.484 419.039 299.668 419.756 299.895Z" fill="#170856"/>
<path d="M397.069 299.249C397.137 299.283 397.149 299.374 397.16 299.454C397.331 300.262 398.253 305.021 395.919 305.135C393.528 305.248 382.497 305.146 381.063 305.135C380.96 305.135 380.881 305.078 380.847 304.975C380.744 304.656 380.63 303.905 381.575 303.484C381.575 303.484 387.677 301.048 390.455 299.34C392.959 297.792 396.409 298.987 397.069 299.249Z" fill="#170856"/>
<path d="M421.19 224.156L419.824 299.974L413.141 299.792L407.836 251.672L408.474 238.307L412.345 224.008L421.19 224.156Z" fill="#0064E1"/>
<path d="M414.155 224.043C414.155 224.043 407.848 256.249 405.924 259.994L397.147 299.337H390.464L394.608 223.929L414.155 224.043Z" fill="#003EB0"/>
<path d="M402.178 168.633C402.178 168.633 398.842 171.4 398.797 176.192C398.751 180.974 399.582 181.156 401.517 181.156C403.453 181.156 404.99 180.985 405.206 182.033C405.422 183.08 405.16 187.212 404.728 188.442C404.284 189.671 412.719 188.442 412.719 188.442C412.719 188.442 410.397 182.124 410.044 179.346C409.691 176.58 410.09 173.46 408.416 170.831C406.743 168.201 404.773 166.174 402.178 168.633Z" fill="#FFBE9B"/>
<path d="M403.886 189.936L397.123 186.168L393.435 193.625L400.96 200.045L403.886 189.936Z" fill="#F79F03"/>
<path d="M414.157 189.331C414.157 189.331 418.21 193.93 419.622 205.041C421.033 216.152 421.204 224.166 421.204 224.166H394.611C394.611 224.166 396.637 208.49 398.425 200.191C400.212 191.892 403.422 188.546 403.422 188.546C403.422 188.546 404.253 187.532 405.266 188.193C406.28 188.853 408.693 188.978 410.845 187.965C412.996 186.952 413.474 188.398 414.157 189.331Z" fill="#FCBE42"/>
<path d="M408.766 172.814C408.766 172.814 410.212 172.461 410.872 173.213C411.533 173.964 410.736 175.581 409.426 176.07C408.106 176.548 408.766 172.814 408.766 172.814Z" fill="#FFBE9B"/>
<path d="M404.991 203.074C404.991 203.074 401.963 224.157 400.381 229.883C398.798 235.61 396.431 241.017 396.431 241.017C396.431 241.017 395.372 243.647 396.431 244.637C397.489 245.628 399.982 246.743 400.483 244.967C400.984 243.191 400.984 239.366 401.644 238.512C402.305 237.659 408.031 224.351 409.943 216.382C411.856 208.413 412.186 204.85 412.186 204.85L404.991 203.074Z" fill="#FFBE9B"/>
<path d="M403.889 204.142C403.889 204.142 405.71 192.531 410.583 192.474C410.583 192.474 413.349 192.474 413.417 196.686C413.485 200.898 413.087 205.896 413.087 205.896L403.889 204.142Z" fill="#F79F03"/>
<path d="M337.43 305.178C344.044 305.178 349.407 303.443 349.407 301.303C349.407 299.163 344.044 297.428 337.43 297.428C330.815 297.428 325.453 299.163 325.453 301.303C325.453 303.443 330.815 305.178 337.43 305.178Z" fill="white"/>
<path d="M315.444 259.156C315.444 259.156 318.297 257.996 318.082 254.722C317.868 251.448 316.183 249.12 319.664 250.073C323.152 251.026 324.326 251.448 326.855 250.916C329.383 250.391 331.496 249.334 330.384 252.608C329.272 255.882 328.077 258.631 330.688 259.156C333.292 259.681 336.089 257.713 336.428 262.838C336.766 267.97 332.622 273.737 325.929 273.944C319.236 274.159 316.28 271.382 316.28 271.382C316.28 271.382 314.484 268.854 317.281 268.225C320.079 267.604 322.931 266.416 321.508 265.103C320.079 263.798 315.43 263.687 315.43 263.687C315.43 263.687 309.628 262.541 315.444 259.156Z" fill="#649EEA"/>
<path d="M346.034 260.006C345.565 256.739 345.924 254.383 352.002 253.492C358.08 252.601 361.617 256.248 361.99 260.006C362.363 263.763 357.079 265.117 357.079 265.117C357.079 265.117 353.328 266.188 355.228 269.462C357.127 272.736 357.991 275.906 353.681 276.383C349.364 276.859 344.639 275.719 342.014 273.965C339.39 272.211 336.689 267.769 339.7 265.449C339.7 265.449 340.543 264.868 343.451 264.709C346.345 264.551 346.034 260.006 346.034 260.006Z" fill="#023EA1"/>
<path d="M324.657 259.474C324.657 259.474 329.699 270.885 330.39 278.656" stroke="#023EA1" stroke-width="0.995959" stroke-miterlimit="10"/>
<path d="M352.707 261.346C352.707 261.346 343.776 274.608 341.663 279.043" stroke="#649EEA" stroke-width="0.995959" stroke-miterlimit="10"/>
<path d="M327.275 277.758H347.776C347.776 277.758 350.021 277.916 349.834 280.983C349.661 283.801 346.083 283.194 344.232 283.194C342.381 283.194 326.833 283.194 326.833 283.194C326.833 283.194 324.312 283.622 324.312 280.769C324.319 277.916 325.265 277.758 327.275 277.758Z" fill="#0054A5"/>
<path d="M326.834 283.193L329.942 301.303H343.708L346.036 287.71L326.862 283.193H326.834Z" fill="#0054A5"/>
<path d="M326.862 283.193L346.037 287.71L346.81 283.193H326.862Z" fill="#006AD5"/>
<path d="M335.673 278.441C335.673 278.441 336.709 258.348 342.697 245.735" stroke="#FCBE42" stroke-width="0.995959" stroke-miterlimit="10"/>
<path d="M347.633 238.483C347.633 238.483 348.131 244.651 342.108 247.062C342.108 247.062 340.802 241.799 347.633 238.483Z" fill="#FCBE42"/>
<path d="M338.604 258.12C338.604 258.12 340.822 252.857 347.646 253.561C347.646 253.561 347.114 258.804 338.604 258.12Z" fill="#FCBE42"/>
<path d="M336.359 271.355C336.359 271.355 337.506 265.761 344.337 265.118C344.337 265.118 344.834 270.368 336.359 271.355Z" fill="#FCBE42"/>
<path d="M336.123 271.388C336.123 271.388 336.917 265.731 330.694 262.844C330.694 262.844 328.463 267.616 336.123 271.388Z" fill="#FCBE42"/>
<path d="M338.669 258.078C338.669 258.078 340.175 252.566 334.373 248.905C334.38 248.912 331.555 253.36 338.669 258.078Z" fill="#FCBE42"/>
<path d="M85.0476 138.176C85.0476 138.176 88.2254 138.335 90.6088 138.335C92.9127 138.335 96.6467 138.811 96.6467 138.811C96.6467 138.811 97.6 138.811 97.6795 140.003C97.7589 141.195 97.7589 141.671 97.7589 141.671C97.7589 141.671 97.8384 143.101 96.7261 143.101C95.6139 143.101 88.4638 143.896 86.8748 143.896C85.2859 143.896 84.0942 144.214 84.0942 143.101C84.0148 141.989 83.9354 138.096 85.0476 138.176Z" fill="#160856"/>
<path d="M87.6694 104.252C87.6694 104.252 89.7349 115.772 89.8938 118.87C90.0527 121.889 90.3705 124.273 88.3844 125.464C86.3982 126.656 83.0615 127.768 83.0615 127.768L79.0098 107.112V104.729L87.6694 104.252Z" fill="#FDBD97"/>
<path d="M52.3162 103.537C52.3162 103.537 51.204 108.781 50.8862 111.403C50.5684 114.024 49.8534 119.188 49.7739 120.38C49.6945 121.572 49.5356 123.558 51.6806 125.147C53.8257 126.656 56.209 127.53 56.209 127.53L60.658 103.537H52.3162Z" fill="#FDBD97"/>
<path d="M68.1256 86.9332C68.1256 86.9332 68.1256 89.3165 67.0928 90.3493C66.06 91.3821 64.7095 93.1299 64.7095 93.1299C64.7095 93.1299 67.0928 96.9433 71.939 96.3872C76.7058 95.9105 77.5797 92.4149 77.5797 92.4149C77.5797 92.4149 73.0513 91.7794 72.4952 87.4893C72.0185 83.1992 71.3035 83.1992 71.3035 83.1992L68.1256 86.9332Z" fill="#FDAE7D"/>
<path d="M64.6299 77.3995C64.6299 77.3995 64.7888 82.8812 67.4105 87.1713C69.9527 91.4613 73.0511 89.078 74.3223 86.8535C75.5139 84.629 78.7712 77.3995 78.1357 75.4928C77.4206 73.5861 67.9666 72.7122 67.9666 72.7122L64.6299 77.3995Z" fill="#FDBD97"/>
<path d="M76.7856 80.4987C76.7856 80.4987 78.1362 79.4659 78.1362 80.4987C78.1362 81.5315 77.4212 83.041 76.6267 83.2793C75.7528 83.4382 75.9117 82.9615 76.1501 82.2465C76.3089 81.5315 76.7856 80.4987 76.7856 80.4987Z" fill="#FDBD97"/>
<path d="M65.0268 82.7232C65.424 82.8821 65.8213 82.9616 65.8213 82.4055C65.8213 81.3727 65.1062 79.8632 64.3118 79.6249C63.4379 79.466 63.5968 79.9427 63.8351 80.6577C63.9146 80.896 63.994 81.1343 64.0734 81.4521C64.2323 81.9288 64.709 82.5643 65.0268 82.7232Z" fill="#FDBD97"/>
<path d="M64.8682 79.9424L64.7093 78.1946C64.7093 78.1946 66.2188 78.3535 67.9666 76.6851C67.9666 76.6851 71.3033 77.4795 74.0044 77.1618C76.8645 76.9234 78.0562 76.129 78.0562 76.129C78.0562 76.129 77.5795 79.3862 77.1028 80.3396C77.1028 80.3396 78.4534 79.7835 79.0095 78.1946C79.4862 76.6851 79.4067 75.0167 79.4067 75.0167C79.4067 75.0167 81.3134 73.5073 81.7901 71.7595C81.7901 71.7595 76.6261 70.5678 75.1167 69.535C73.6072 68.5022 72.7333 67.7872 72.7333 67.7872C72.7333 67.7872 70.3499 66.4366 67.9666 68.2639C65.5832 70.1706 63.9943 71.2033 63.9943 74.4606C63.9148 74.5401 61.6903 77.6384 64.8682 79.9424Z" fill="#160856"/>
<path d="M65.2657 91.3824C65.2657 91.3824 62.0084 90.9852 60.1811 91.4618C58.4333 91.9385 57.8772 91.6207 58.3539 92.9713C58.8306 94.3219 61.2139 100.598 60.1017 104.491C58.9895 108.384 57.48 128.563 57.48 128.563C57.48 128.563 69.7146 129.04 74.4019 129.278C79.1687 129.516 82.6643 128.642 82.6643 128.642C82.6643 128.642 83.6971 119.983 82.6643 116.169C81.6315 112.436 80.2809 106 80.2809 106C80.2809 106 79.407 97.1819 80.5987 95.0369C81.7904 92.8919 82.6643 92.8124 81.1548 92.2563C79.6453 91.7002 77.977 91.2235 76.7058 91.2235C75.5142 91.2235 74.8786 91.2235 74.1636 91.9385C73.4486 92.6535 72.0185 94.0836 70.0324 93.7658C68.0463 93.448 66.5368 92.0974 66.5368 92.0974C66.5368 92.0974 65.8218 91.4619 65.2657 91.3824Z" fill="#0181F7"/>
<path d="M59.4663 92.0979C59.4663 92.0979 58.354 91.5418 56.6857 92.9718C54.8584 94.5607 53.5873 97.8974 52.9517 99.963C52.3162 102.029 51.9189 104.094 51.9189 104.094C51.9189 104.094 54.2229 105.286 56.6857 105.365C59.0691 105.445 60.658 105.604 60.658 105.604C60.658 105.604 61.6908 99.3275 61.4524 96.5469C61.1347 93.7663 60.7374 92.8129 59.4663 92.0979Z" fill="#023E9F"/>
<path d="M79.6456 94.4005C79.6456 94.4005 80.5989 91.7788 82.744 92.9705C84.889 94.1622 86.4779 98.77 87.0341 100.2C87.5107 101.63 88.1463 104.57 88.1463 104.57C88.1463 104.57 85.604 105.682 83.3795 105.841C81.2345 106 79.7251 106.158 79.7251 106.158C79.7251 106.158 78.8511 100.438 79.01 98.2139C79.1689 95.9894 79.6456 94.4005 79.6456 94.4005Z" fill="#023E9F"/>
<path d="M61.9287 130.39H78.374L69.8733 133.012L61.9287 130.39Z" fill="#BA0A28"/>
<path d="M47.3106 125.703C47.3106 125.703 77.3411 135.078 83.9351 137.381C83.9351 137.381 86.0801 137.938 86.1596 139.05C86.239 140.162 86.0007 141.751 85.7623 142.545C85.524 143.34 84.809 143.975 83.6173 143.737C82.4256 143.499 55.4935 138.096 44.8478 135.316L41.8289 134.362C41.8289 134.362 39.6044 133.33 40.0016 130.629C40.3988 127.927 42.385 125.465 43.815 125.306C45.245 125.226 47.3106 125.703 47.3106 125.703Z" fill="#EC384E"/>
<path d="M44.6101 139.05C44.6101 139.05 48.344 138.415 50.648 138.335C52.8725 138.256 55.8914 138.017 56.3681 138.335C56.8447 138.653 57.242 143.022 57.242 143.022C57.242 143.022 57.6392 144.214 54.6997 143.976C51.7602 143.737 44.9279 143.499 44.9279 143.499C44.9279 143.499 43.4184 143.42 43.339 142.069C43.2595 140.719 43.4979 140.083 43.4979 140.083C43.4979 140.083 43.5773 139.209 44.6101 139.05Z" fill="#160856"/>
<path d="M62.4848 135.236C62.4848 135.236 80.6778 129.675 87.1924 127.768C93.7069 125.861 97.282 124.114 99.427 127.133C101.493 130.151 101.334 133.568 98.9503 134.521C96.567 135.474 77.5794 139.923 69.7143 141.512C61.8492 143.101 56.6852 144.134 55.9702 143.816C55.2552 143.498 54.4607 141.194 54.6196 139.923C54.7785 138.652 54.858 138.175 56.3674 137.54C57.8769 136.825 62.4848 135.236 62.4848 135.236Z" fill="#DB061F"/>
<path d="M60.4195 108.702H82.3465C82.3465 108.702 83.5382 108.543 83.5382 110.132C83.5382 111.721 83.5382 129.04 83.5382 129.04C83.5382 129.04 83.6177 130.311 82.6643 130.311C81.711 130.311 56.9239 130.311 56.9239 130.311C56.9239 130.311 55.8911 130.629 55.8911 128.881C55.8911 127.133 55.8911 109.655 55.8911 109.655C55.8911 109.655 55.8117 108.702 57.0828 108.702C58.2745 108.702 60.4195 108.702 60.4195 108.702Z" fill="#0064B5"/>
<path d="M71.0651 119.427L69.4762 118.156L68.2051 119.744L69.794 121.016L71.0651 119.427Z" fill="#579CD2"/>
</g>
<defs>
<clipPath id="clip0_3366_1022">
<rect width="440" height="310" fill="white"/>
</clipPath>
</defs>
</svg>
