<svg width="480" height="365" viewBox="0 0 480 365" fill="none" xmlns="http://www.w3.org/2000/svg">
<g clip-path="url(#clip0_3706_4150)">
<path d="M355.3 19.3083C355.3 19.3083 352.196 13.8468 356.465 10.9997C360.734 8.15254 367.737 11.3542 367.877 15.8618C368.008 20.3677 365.014 22.113 367.875 24.0581C370.728 26.0015 377.869 32.6175 374.726 36.3214C371.592 40.0271 366.627 38.0114 366.662 44.5759C366.697 51.1403 376.413 56.7048 368.26 62.0925C360.107 67.4801 344.006 72.8953 342.808 56.7146C341.611 40.5339 354.047 49.1343 349.959 37.3179C345.87 25.5015 351.981 27.93 355.03 25.2104C358.061 22.4959 355.3 19.3083 355.3 19.3083Z" fill="#023EA1"/>
<path d="M361.577 27.9237C361.577 27.9237 356.718 43.8282 357.138 58.9814C357.557 74.1346 359.909 77.3463 359.909 77.3463" stroke="white" stroke-width="0.893265" stroke-miterlimit="10" stroke-linecap="round" stroke-linejoin="round"/>
<path d="M319.806 16.8804C319.806 16.8804 331.939 11.5608 332.737 18.8721C333.541 26.1938 336.591 26.6005 339.768 26.8632C342.945 27.1259 348.807 25.2305 349.234 32.9948C349.67 40.7608 346.886 44.9052 349.635 47.974C352.382 51.0514 359.346 67.1181 352.44 68.1554C345.534 69.184 339.076 61.5516 337.213 57.6153C335.35 53.679 329.733 52.2649 325.21 52.2652C320.686 52.2656 315.434 48.794 318.377 43.5174C321.329 38.2427 319.686 31.8162 315.974 29.6886C312.278 27.5645 311.648 20.6188 319.806 16.8804Z" fill="#FCBE42"/>
<path d="M324.232 24.8418L353.408 74.238" stroke="white" stroke-width="0.893265" stroke-miterlimit="10" stroke-linecap="round" stroke-linejoin="round"/>
<path d="M364.428 65.1718C364.428 65.1718 347.582 39.3773 343.612 18.394" stroke="#DE051F" stroke-width="0.893265" stroke-miterlimit="10"/>
<path d="M343.179 4.97561C343.179 4.97561 349.362 12.1576 344.075 20.5663C344.075 20.5663 337.705 15.2274 343.179 4.97561Z" stroke="#DE051F" stroke-width="0.893265" stroke-miterlimit="10"/>
<path d="M349.707 37.392C349.707 37.392 347.708 28.8862 356.788 23.6159C356.788 23.6159 360.861 30.5826 349.707 37.392Z" stroke="#DE051F" stroke-width="0.893265" stroke-miterlimit="10"/>
<path d="M358.882 55.7899C358.882 55.7899 355.253 47.8386 363.13 40.8987C363.132 40.8901 368.489 46.9272 358.882 55.7899Z" stroke="#DE051F" stroke-width="0.893265" stroke-miterlimit="10"/>
<path d="M358.616 56.0403C358.616 56.0403 354.49 48.328 344.177 50.3549C344.186 50.3566 345.731 58.2684 358.616 56.0403Z" stroke="#DE051F" stroke-width="0.893265" stroke-miterlimit="10"/>
<path d="M349.767 37.2785C349.767 37.2785 346.658 29.1107 336.169 29.8027C336.169 29.8027 336.7 37.848 349.767 37.2785Z" stroke="#DE051F" stroke-width="0.893265" stroke-miterlimit="10"/>
<path d="M380.644 185.149C402.685 192.876 426.752 181.222 434.352 159.181C442.079 137.141 430.425 113.073 408.385 105.473C386.344 97.7462 362.277 109.4 354.677 131.441C347.076 153.481 358.73 177.549 380.644 185.149Z" stroke="#DB061F" stroke-width="0.893265" stroke-miterlimit="10" stroke-dasharray="5.36 5.36"/>
<path d="M433.846 152.848C437.519 154.115 441.573 152.215 442.966 148.415C444.233 144.741 442.333 140.688 438.533 139.295C434.859 138.028 430.806 139.928 429.412 143.728C428.146 147.402 430.046 151.455 433.846 152.848Z" fill="#003FAE"/>
<path d="M435.364 142.841L438.658 147.401L433.464 148.288L435.364 142.841Z" fill="white"/>
<path d="M34.8547 112.37C40.6815 115.411 50.5618 112.244 54.9953 104.01C59.4287 95.7767 68.4223 99.7035 72.0958 105.657C75.8959 111.61 82.3561 117.691 89.0696 116.931C95.7831 116.044 111.11 118.071 115.544 128.078C119.977 137.958 93.1231 142.265 86.7895 141.251C80.456 140.238 77.4159 147.332 66.7756 153.285C56.262 159.239 53.8552 149.992 50.8151 146.065C47.775 142.138 44.735 138.465 34.4747 143.531C24.2143 148.598 21.0476 128.331 21.0476 128.331C19.4009 114.271 29.0278 109.204 34.8547 112.37Z" fill="#023E9F"/>
<path d="M124.41 124.024L35.3604 127.191" stroke="white" stroke-width="0.893265" stroke-miterlimit="10" stroke-linecap="round" stroke-linejoin="round"/>
<path d="M60.3154 109.077L71.589 125.924L60.062 143.405" stroke="white" stroke-width="0.893265" stroke-miterlimit="10" stroke-linecap="round" stroke-linejoin="round"/>
<path d="M59.1748 75.2563C59.0481 81.7165 49.6745 86.2766 67.9151 94.2569C86.1556 102.237 62.7216 107.557 82.9888 123.518C103.256 139.605 114.276 114.904 116.683 99.4504C119.217 84.1232 102.243 89.4434 94.3892 82.4765C86.6623 75.383 94.3892 71.8362 93.3758 64.1093C92.4891 56.3824 76.9087 57.6491 71.5885 58.9158C66.2683 60.1825 67.4084 54.7357 61.9615 50.0489C56.5147 45.3621 45.241 50.0489 43.9743 58.1558C42.7076 66.2627 52.4613 68.5428 52.4613 68.5428C52.4613 68.5428 59.1748 68.6694 59.1748 75.2563Z" fill="#EC384E"/>
<path d="M125.551 125.798C125.551 125.798 119.217 125.038 100.977 109.204C82.7361 93.3702 69.3091 70.4429 69.3091 70.4429" stroke="white" stroke-width="0.893265" stroke-miterlimit="10" stroke-linecap="round" stroke-linejoin="round"/>
<path d="M37.3877 89.6968C63.8618 101.857 92.3627 132.511 92.3627 132.511" stroke="#FABC43" stroke-width="0.893265" stroke-miterlimit="10"/>
<path d="M40.1745 91.0903C27.3808 95.2704 19.9072 84.7568 19.9072 84.7568C35.1077 80.83 40.1745 91.0903 40.1745 91.0903Z" stroke="#FABC43" stroke-width="0.893265" stroke-miterlimit="10"/>
<path d="M40.0483 108.824C50.0553 98.564 60.5689 104.011 60.5689 104.011C47.9019 116.425 40.0483 108.824 40.0483 108.824Z" stroke="#FABC43" stroke-width="0.893265" stroke-miterlimit="10"/>
<path d="M60.8218 122.884C72.6021 114.777 81.8491 122.124 81.8491 122.124C67.0286 131.878 60.8218 122.884 60.8218 122.884Z" stroke="#FABC43" stroke-width="0.893265" stroke-miterlimit="10"/>
<path d="M54.9944 83.6162C50.6876 97.1699 60.4412 104.01 60.4412 104.01C65.3814 86.9097 54.9944 83.6162 54.9944 83.6162Z" stroke="#FABC43" stroke-width="0.893265" stroke-miterlimit="10"/>
<path d="M401.795 308.698H74.8591C71.5656 308.698 69.0322 306.038 69.0322 302.872V84.6184C69.0322 81.3249 71.6923 78.7915 74.8591 78.7915H401.922C405.216 78.7915 407.749 81.4516 407.749 84.6184V302.872C407.749 306.038 405.089 308.698 401.795 308.698Z" fill="#0064B5"/>
<path d="M400.149 86.7715H76.6323V306.418H400.149V86.7715Z" fill="#DAE6FF"/>
<path d="M442.33 314.525H34.4516C31.2849 314.525 28.7515 311.992 28.7515 308.825V305.532C28.7515 302.365 31.2849 299.832 34.4516 299.832H442.33C445.497 299.832 448.031 302.365 448.031 305.532V308.825C448.031 311.992 445.497 314.525 442.33 314.525Z" fill="#0064B5"/>
<path d="M400.149 86.7715H76.6323V300.591H400.149V86.7715Z" fill="#FDFDFD"/>
<path d="M376.469 270.686H106.348C103.601 270.686 101.26 268.262 101.26 265.128V43.2771C101.26 40.1428 103.601 37.7189 106.348 37.7189H376.469C379.216 37.7189 381.557 40.1428 381.557 43.2771V265.128C381.557 268.262 379.216 270.686 376.469 270.686Z" fill="#DBEFFF" stroke="#0064B7" stroke-width="1.78653"/>
<circle cx="160.002" cy="115.392" r="36.6935" fill="white" stroke="#2A2A2A" stroke-width="0.446633" stroke-dasharray="2.68 2.68"/>
<path d="M304.937 83.2085H219.531C218.544 83.2085 217.744 84.0084 217.744 84.995V87.1015C217.744 88.0882 218.544 88.888 219.531 88.888H304.937C305.923 88.888 306.723 88.0882 306.723 87.1015V84.995C306.723 84.0084 305.923 83.2085 304.937 83.2085Z" fill="white"/>
<path d="M304.937 117.285H219.531C218.544 117.285 217.744 118.085 217.744 119.072V121.178C217.744 122.165 218.544 122.965 219.531 122.965H304.937C305.923 122.965 306.723 122.165 306.723 121.178V119.072C306.723 118.085 305.923 117.285 304.937 117.285Z" fill="white"/>
<path d="M304.937 152.309H219.531C218.544 152.309 217.744 153.109 217.744 154.096V156.202C217.744 157.189 218.544 157.989 219.531 157.989H304.937C305.923 157.989 306.723 157.189 306.723 156.202V154.096C306.723 153.109 305.923 152.309 304.937 152.309Z" fill="white"/>
<path d="M357.946 94.5674H219.531C218.544 94.5674 217.744 95.3672 217.744 96.3539V98.4604C217.744 99.447 218.544 100.247 219.531 100.247H357.946C358.932 100.247 359.732 99.447 359.732 98.4604V96.3539C359.732 95.3672 358.932 94.5674 357.946 94.5674Z" fill="white"/>
<path d="M357.946 128.645H219.531C218.544 128.645 217.744 129.444 217.744 130.431V132.538C217.744 133.524 218.544 134.324 219.531 134.324H357.946C358.932 134.324 359.732 133.524 359.732 132.538V130.431C359.732 129.444 358.932 128.645 357.946 128.645Z" fill="white"/>
<path d="M357.946 163.668H219.531C218.544 163.668 217.744 164.468 217.744 165.454V167.561C217.744 168.548 218.544 169.347 219.531 169.347H357.946C358.932 169.347 359.732 168.548 359.732 167.561V165.454C359.732 164.468 358.932 163.668 357.946 163.668Z" fill="white"/>
<path d="M382.449 65.2233H100.367V46.1645C100.367 41.0186 102.33 36.8257 104.739 36.8257H378.969C380.843 36.8257 382.449 40.0657 382.449 44.2586V65.2233Z" fill="#0064B7"/>
<path d="M375.67 51.0392C375.67 52.5558 374.421 53.8939 372.815 53.8939C371.299 53.8939 369.96 52.645 369.96 51.0392C369.96 49.5227 371.209 48.1846 372.815 48.1846C374.421 48.1846 375.67 49.4335 375.67 51.0392Z" fill="white"/>
<path d="M367.731 51.0392C367.731 52.5558 366.482 53.8939 364.876 53.8939C363.36 53.8939 362.021 52.645 362.021 51.0392C362.021 49.5227 363.27 48.1846 364.876 48.1846C366.482 48.1846 367.731 49.4335 367.731 51.0392Z" fill="white"/>
<path d="M359.702 51.0392C359.702 52.5558 358.453 53.8939 356.847 53.8939C355.33 53.8939 353.992 52.645 353.992 51.0392C353.992 49.5227 355.241 48.1846 356.847 48.1846C358.453 48.1846 359.702 49.4335 359.702 51.0392Z" fill="white"/>
<path d="M199.119 206.91H123.725C121.753 206.91 120.246 205.286 120.246 203.43V171.881C120.246 169.909 121.869 168.401 123.725 168.401H199.119C201.091 168.401 202.599 170.025 202.599 171.881V203.43C202.599 205.402 201.091 206.91 199.119 206.91Z" fill="white"/>
<path d="M186.243 176.869H137.644V180H186.243V176.869Z" fill="#0064B7"/>
<path d="M192.276 186.611H129.293V189.743H192.276V186.611Z" fill="#DCE8F4"/>
<path d="M160.378 194.847H129.293V197.979H160.378V194.847Z" fill="#DCE8F4"/>
<path d="M133.584 178.492C133.584 179.652 132.656 180.58 131.496 180.58C130.336 180.58 129.408 179.652 129.408 178.492C129.408 177.332 130.336 176.404 131.496 176.404C132.656 176.288 133.584 177.216 133.584 178.492Z" fill="#0064B7"/>
<path d="M199.119 253.293H123.725C121.753 253.293 120.246 251.669 120.246 249.813V218.264C120.246 216.292 121.869 214.784 123.725 214.784H199.119C201.091 214.784 202.599 216.408 202.599 218.264V249.813C202.599 251.785 201.091 253.293 199.119 253.293Z" fill="white"/>
<path d="M186.243 223.251H137.644V226.383H186.243V223.251Z" fill="#DCE8F4"/>
<path d="M192.276 232.995H129.293V236.126H192.276V232.995Z" fill="#DCE8F4"/>
<path d="M160.378 241.23H129.293V244.362H160.378V241.23Z" fill="#DCE8F4"/>
<path d="M133.584 224.875C133.584 226.035 132.656 226.963 131.496 226.963C130.336 226.963 129.408 226.035 129.408 224.875C129.408 223.716 130.336 222.788 131.496 222.788C132.656 222.672 133.584 223.6 133.584 224.875Z" fill="#DCE8F4"/>
<path d="M447.407 316.069H28.8462C28.5945 316.069 28.4268 315.778 28.4268 315.341V314.904C28.4268 314.467 28.5945 314.176 28.8462 314.176H447.323C447.575 314.176 447.743 314.467 447.743 314.904V315.341C447.826 315.778 447.659 316.069 447.407 316.069Z" fill="#DCE8F4"/>
<path d="M442.596 182.142C442.596 182.015 442.596 181.635 442.596 181.635C442.469 181.002 441.709 180.242 441.202 179.735C439.936 178.849 438.669 178.342 437.402 178.469C436.895 178.469 436.515 178.595 436.009 178.975C430.942 180.875 428.915 178.469 428.915 178.469C428.915 178.469 424.355 174.669 422.455 178.975C420.555 183.282 423.975 185.942 425.242 185.562C426.508 185.436 430.815 185.056 431.829 186.956C433.095 188.856 435.502 190.249 436.389 189.869C437.022 189.742 437.275 190.756 437.275 191.262C437.275 192.149 436.769 193.162 436.009 193.796C435.882 193.922 435.502 194.302 435.502 194.429C435.502 194.556 435.502 194.556 435.502 194.936C435.502 196.203 435.629 196.963 436.009 198.229C436.135 199.116 436.642 202.409 438.289 201.903C440.569 201.396 445.889 198.989 445.382 190.502C445.382 190.502 445.889 187.209 443.862 185.436C443.356 184.929 442.342 184.549 442.342 183.535C441.836 183.409 442.342 182.649 442.596 182.142Z" fill="#1F1954"/>
<path d="M426.127 184.042C426.127 184.042 421.567 189.742 423.213 199.116C423.213 199.116 424.48 202.916 427.014 203.296C429.294 203.423 428.407 206.083 428.407 206.716C427.9 208.616 427.774 207.603 427.014 209.25C426.507 210.77 428.914 213.81 431.194 213.81C433.474 213.81 437.654 211.023 438.287 209.63C438.921 208.236 438.794 203.929 437.401 201.143C436.007 198.356 436.894 194.049 436.894 194.049C436.894 194.049 441.707 190.376 437.781 188.349C434.234 186.829 427.014 183.409 426.127 184.042Z" fill="#F9BC97"/>
<path d="M412.067 220.397L405.86 228.884C405.86 228.884 404.973 230.404 403.073 229.77C400.287 228.884 389.52 224.197 389.52 224.197C389.52 224.197 388.253 220.777 386.733 219.89C385.213 219.003 379.133 218.497 379.639 223.183C380.146 227.87 383.059 228.25 384.453 227.997C385.846 227.997 394.206 233.824 394.966 234.457C395.853 234.964 404.087 239.017 404.087 239.017C404.087 239.017 407 240.411 409.787 237.497C412.574 234.584 419.794 226.984 419.794 226.984L416.374 222.17L412.067 220.397Z" fill="#F9BC97"/>
<path d="M423.34 212.29C423.34 212.29 415.36 216.09 412.827 219.51L411.94 220.396L418.907 226.223L423.34 212.29Z" fill="#F39D1D"/>
<path d="M438.667 206.209C438.667 206.716 438.667 206.843 438.54 207.476C438.54 207.983 438.414 208.11 438.034 208.743C437.654 209.25 437.527 209.63 437.147 210.01C436.64 210.516 436.26 210.896 435.753 211.276C435.247 211.783 434.487 211.91 433.853 212.163C433.22 212.29 432.333 212.67 431.573 212.67C431.447 212.67 431.067 212.67 430.94 212.67C430.813 212.67 430.433 212.543 430.307 212.163C429.8 212.036 429.42 211.53 428.913 210.896C428.28 210.39 427.647 209.63 427.013 208.996C427.013 208.996 420.046 211.53 418.4 225.843L418.273 258.271L453.107 257.384L443.734 211.91C443.354 211.15 440.44 207.223 438.667 206.209Z" fill="#FABC43"/>
<path d="M452.222 226.097C452.222 226.097 448.929 210.516 442.849 211.023C436.642 211.53 438.669 223.943 440.062 227.997L452.222 226.097Z" fill="#F39D1D"/>
<path d="M418.273 257.891L425.367 356.567L433.98 357.074L436.767 301.212L433.473 257.638L418.273 257.891Z" fill="#0053A1"/>
<path d="M428.535 257.511C428.535 257.511 430.435 297.032 437.148 310.079C444.115 323 452.729 348.84 458.302 353.401L465.522 348.587C465.522 348.587 450.449 306.659 451.209 294.752L453.109 257.004L428.535 257.511Z" fill="#0064DF"/>
<path d="M439.935 227.997C439.935 227.997 445.508 238.004 445.508 240.284C445.508 242.564 446.395 250.291 445.508 257.891C445.508 257.891 442.595 269.671 441.708 270.685L439.428 273.471C439.428 273.471 438.035 275.498 440.821 274.358C440.821 274.358 442.215 274.991 441.455 275.752C440.821 276.385 439.175 276.385 438.668 278.032C438.668 278.032 436.135 278.918 438.035 280.312C438.035 280.312 440.315 282.212 441.455 280.818C441.455 280.818 443.482 280.818 443.482 279.425C443.482 279.425 445.382 278.538 445.762 275.118C446.268 271.445 448.675 268.025 449.435 266.631C449.435 266.631 454.249 250.544 454.249 249.784C454.249 249.277 454.249 248.517 454.249 248.264C454.249 246.997 454.249 245.984 454.249 244.844C454.249 243.451 454.249 242.057 454.249 240.664C454.249 239.27 454.122 237.877 453.742 236.484C453.615 235.09 453.109 233.95 453.109 232.81C453.109 232.304 453.109 231.544 452.982 231.29C452.982 230.023 452.855 229.01 452.475 227.617C452.475 227.49 452.349 226.223 452.349 226.097L439.935 227.997Z" fill="#F9BC97"/>
<path d="M434.107 357.074L425.494 356.441C425.494 356.441 418.527 361.508 416.12 362.014C413.333 362.521 412.32 364.041 414.22 364.295C416.12 364.421 432.714 364.421 432.714 364.421C432.714 364.421 434.614 364.168 434.107 357.074Z" fill="#201A56"/>
<path d="M458.174 352.894C458.174 352.894 454.754 359.48 453.361 360.874C451.968 362.647 449.941 366.447 453.361 364.421C456.274 362.647 466.155 356.44 468.055 355.047C468.181 355.047 468.181 354.54 468.181 354.54C468.181 354.414 468.181 354.034 468.181 353.78C468.181 353.02 467.675 351.374 466.788 350.36C465.395 348.334 465.395 348.333 465.395 348.333L458.174 352.894Z" fill="#201A56"/>
<path d="M83.2861 345.764C83.2861 345.764 88.353 346.017 92.1531 346.017C95.8265 346.017 101.78 346.777 101.78 346.777C101.78 346.777 103.3 346.777 103.427 348.678C103.553 350.578 103.553 351.338 103.553 351.338C103.553 351.338 103.68 353.618 101.907 353.618C100.133 353.618 88.733 354.884 86.1996 354.884C83.6662 354.884 81.7661 355.391 81.7661 353.618C81.6394 351.844 81.5128 345.637 83.2861 345.764Z" fill="#160856"/>
<path d="M87.4663 291.676C87.4663 291.676 90.7597 310.043 91.013 314.983C91.2664 319.797 91.7731 323.597 88.6063 325.497C85.4395 327.397 80.1194 329.17 80.1194 329.17L73.6592 296.236V292.436L87.4663 291.676Z" fill="#FDBD97"/>
<path d="M31.0979 290.537C31.0979 290.537 29.3245 298.897 28.8178 303.077C28.3112 307.257 27.1711 315.491 27.0444 317.391C26.9178 319.291 26.6644 322.458 30.0845 324.991C33.5046 327.398 37.3047 328.791 37.3047 328.791L44.3983 290.537H31.0979Z" fill="#FDBD97"/>
<path d="M56.3052 264.062C56.3052 264.062 56.3052 267.863 54.6585 269.509C53.0118 271.156 50.8584 273.943 50.8584 273.943C50.8584 273.943 54.6585 280.023 62.3854 279.136C69.9856 278.376 71.379 272.803 71.379 272.803C71.379 272.803 64.1588 271.789 63.2721 264.949C62.5121 258.109 61.372 258.109 61.372 258.109L56.3052 264.062Z" fill="#FDAE7D"/>
<path d="M50.7314 248.862C50.7314 248.862 50.9848 257.602 55.1649 264.442C59.2184 271.282 64.1585 267.482 66.1852 263.936C68.0853 260.389 73.2788 248.862 72.2654 245.822C71.1254 242.782 56.0516 241.388 56.0516 241.388L50.7314 248.862Z" fill="#FDBD97"/>
<path d="M70.1119 253.802C70.1119 253.802 72.2653 252.155 72.2653 253.802C72.2653 255.448 71.1252 257.855 69.8585 258.235C68.4651 258.489 68.7185 257.728 69.0985 256.588C69.3519 255.448 70.1119 253.802 70.1119 253.802Z" fill="#FDBD97"/>
<path d="M51.3653 257.349C51.9986 257.602 52.632 257.729 52.632 256.842C52.632 255.195 51.4919 252.789 50.2252 252.409C48.8318 252.155 49.0852 252.915 49.4652 254.055C49.5919 254.435 49.7185 254.815 49.8452 255.322C50.0985 256.082 50.8586 257.095 51.3653 257.349Z" fill="#FDBD97"/>
<path d="M51.1124 252.915L50.8591 250.129C50.8591 250.129 53.2658 250.382 56.0526 247.722C56.0526 247.722 61.3727 248.989 65.6795 248.482C70.2396 248.102 72.1397 246.835 72.1397 246.835C72.1397 246.835 71.3797 252.029 70.6197 253.549C70.6197 253.549 72.773 252.662 73.6597 250.129C74.4198 247.722 74.2931 245.062 74.2931 245.062C74.2931 245.062 77.3332 242.655 78.0932 239.868C78.0932 239.868 69.8596 237.968 67.4529 236.321C65.0462 234.675 63.6528 233.535 63.6528 233.535C63.6528 233.535 59.8527 231.381 56.0526 234.295C52.2524 237.335 49.719 238.982 49.719 244.175C49.5924 244.302 46.0456 249.242 51.1124 252.915Z" fill="#160856"/>
<path d="M51.7452 271.155C51.7452 271.155 46.5518 270.522 43.6383 271.282C40.8516 272.042 39.9649 271.535 40.7249 273.689C41.4849 275.842 45.2851 285.849 43.5117 292.056C41.7383 298.263 39.3315 330.437 39.3315 330.437C39.3315 330.437 58.8388 331.197 66.3123 331.577C73.9126 331.957 79.4861 330.564 79.4861 330.564C79.4861 330.564 81.1328 316.757 79.4861 310.676C77.8394 304.723 75.686 294.463 75.686 294.463C75.686 294.463 74.2926 280.402 76.1926 276.982C78.0927 273.562 79.4861 273.435 77.0793 272.549C74.6726 271.662 72.0125 270.902 69.9858 270.902C68.0857 270.902 67.0724 270.902 65.9323 272.042C64.7923 273.182 62.5122 275.462 59.3455 274.955C56.1787 274.449 53.772 272.295 53.772 272.295C53.772 272.295 52.6319 271.282 51.7452 271.155Z" fill="#0181F7"/>
<path d="M42.4985 272.296C42.4985 272.296 40.7251 271.409 38.0651 273.69C35.1517 276.223 33.1249 281.543 32.1116 284.837C31.0982 288.13 30.4648 291.423 30.4648 291.423C30.4648 291.423 34.1383 293.323 38.0651 293.45C41.8652 293.577 44.3986 293.83 44.3986 293.83C44.3986 293.83 46.0453 283.823 45.6653 279.39C45.1586 274.956 44.5253 273.436 42.4985 272.296Z" fill="#023E9F"/>
<path d="M74.6726 275.969C74.6726 275.969 76.1926 271.789 79.6127 273.689C83.0328 275.589 85.5662 282.935 86.4529 285.216C87.2129 287.496 88.2263 292.182 88.2263 292.182C88.2263 292.182 84.1729 293.956 80.6261 294.209C77.206 294.463 74.7993 294.716 74.7993 294.716C74.7993 294.716 73.4059 285.596 73.6592 282.049C73.9125 278.502 74.6726 275.969 74.6726 275.969Z" fill="#023E9F"/>
<path d="M46.4248 333.351H72.6456L59.0918 337.531L46.4248 333.351Z" fill="#BA0A28"/>
<path d="M23.1176 325.878C23.1176 325.878 70.999 340.825 81.5127 344.498C81.5127 344.498 84.9328 345.385 85.0595 347.158C85.1861 348.932 84.8061 351.465 84.4261 352.732C84.0461 353.998 82.9061 355.012 81.006 354.632C79.1059 354.252 36.1647 345.638 19.1908 341.205L14.3774 339.685C14.3774 339.685 10.8306 338.038 11.4639 333.731C12.0973 329.424 15.264 325.498 17.5441 325.244C19.8242 325.118 23.1176 325.878 23.1176 325.878Z" fill="#EC384E"/>
<path d="M18.8114 347.158C18.8114 347.158 24.7649 346.144 28.4383 346.018C31.9851 345.891 36.7986 345.511 37.5586 346.018C38.3186 346.524 38.952 353.491 38.952 353.491C38.952 353.491 39.5853 355.391 34.8985 355.011C30.2117 354.631 19.318 354.251 19.318 354.251C19.318 354.251 16.9113 354.125 16.7846 351.971C16.658 349.818 17.038 348.805 17.038 348.805C17.038 348.805 17.1646 347.411 18.8114 347.158Z" fill="#160856"/>
<path d="M47.3118 341.078C47.3118 341.078 76.3194 332.211 86.7063 329.171C97.0933 326.13 102.793 323.344 106.214 328.157C109.507 332.971 109.254 338.418 105.454 339.938C101.653 341.458 71.3792 348.551 58.8388 351.085C46.2985 353.618 38.0649 355.265 36.9249 354.758C35.7848 354.251 34.5181 350.578 34.7715 348.551C35.0248 346.524 35.1515 345.764 37.5582 344.751C39.9649 343.611 47.3118 341.078 47.3118 341.078Z" fill="#DB061F"/>
<path d="M44.0182 298.77H78.9792C78.9792 298.77 80.8793 298.516 80.8793 301.05C80.8793 303.583 80.8793 331.197 80.8793 331.197C80.8793 331.197 81.0059 333.224 79.4859 333.224C77.9658 333.224 38.4447 333.224 38.4447 333.224C38.4447 333.224 36.798 333.731 36.798 330.944C36.798 328.157 36.798 300.29 36.798 300.29C36.798 300.29 36.6713 298.77 38.698 298.77C40.5981 298.77 44.0182 298.77 44.0182 298.77Z" fill="#0064B5"/>
<path d="M60.9923 315.87L58.4588 313.844L56.4321 316.377L58.9655 318.404L60.9923 315.87Z" fill="#579CD2"/>
<path d="M338.105 308.518C338.105 308.518 341.399 307.125 341.145 303.451C340.892 299.651 338.992 296.991 342.919 298.131C346.972 299.271 348.239 299.651 351.152 299.144C354.066 298.511 356.473 297.371 355.206 301.044C353.939 304.845 352.546 307.885 355.586 308.518C358.626 309.151 361.793 306.871 362.173 312.698C362.553 318.525 357.866 325.238 350.139 325.365C342.539 325.619 339.119 322.452 339.119 322.452C339.119 322.452 337.092 319.538 340.259 318.778C343.426 318.018 346.719 316.752 345.072 315.232C343.426 313.711 338.105 313.585 338.105 313.585C338.105 313.585 331.392 312.445 338.105 308.518Z" fill="#649CE8"/>
<path d="M373.067 309.531C372.561 305.731 372.941 303.071 379.907 302.058C386.874 301.044 390.928 305.224 391.308 309.531C391.688 313.838 385.734 315.358 385.734 315.358C385.734 315.358 381.428 316.625 383.581 320.298C385.734 324.098 386.748 327.645 381.808 328.278C376.867 328.785 371.421 327.518 368.38 325.492C365.34 323.465 362.3 318.398 365.72 315.738C365.72 315.738 366.734 315.105 370.027 314.851C373.447 314.725 373.067 309.531 373.067 309.531Z" fill="#023E9F"/>
<path d="M348.62 308.898C348.62 308.898 354.446 321.946 355.206 330.812" stroke="#023E9F" stroke-width="0.893265" stroke-miterlimit="10"/>
<path d="M380.666 311.052C380.666 311.052 370.405 326.252 367.999 331.319" stroke="#649CE8" stroke-width="0.893265" stroke-miterlimit="10"/>
<path d="M351.531 329.799H374.965C374.965 329.799 377.499 329.926 377.372 333.472C377.246 336.766 373.065 336.006 370.912 336.006C368.759 336.006 351.025 336.006 351.025 336.006C351.025 336.006 348.111 336.512 348.111 333.219C348.238 330.052 349.251 329.799 351.531 329.799Z" fill="#0055A2"/>
<path d="M351.151 336.006L354.698 356.78H370.405L373.065 341.199L351.151 336.006Z" fill="#0055A2"/>
<path d="M351.151 336.006L373.065 341.199L373.952 336.006H351.151Z" fill="#016AD3"/>
<path d="M361.159 330.559C361.159 330.559 362.299 307.505 369.266 293.064" stroke="#FABC43" stroke-width="0.893265" stroke-miterlimit="10"/>
<path d="M374.967 284.831C374.967 284.831 375.474 291.925 368.634 294.711C368.634 294.711 367.113 288.631 374.967 284.831Z" fill="#FABC43"/>
<path d="M364.58 307.379C364.58 307.379 367.113 301.298 374.967 302.185C374.967 302.058 374.334 308.139 364.58 307.379Z" fill="#FABC43"/>
<path d="M362.046 322.452C362.046 322.452 363.313 315.992 371.167 315.358C371.167 315.358 371.673 321.312 362.046 322.452Z" fill="#FABC43"/>
<path d="M361.665 322.579C361.665 322.579 362.551 316.118 355.458 312.825C355.458 312.698 352.924 318.272 361.665 322.579Z" fill="#FABC43"/>
<path d="M364.706 307.251C364.706 307.251 366.479 300.918 359.766 296.738C359.766 296.738 356.472 301.931 364.706 307.251Z" fill="#FABC43"/>
<path d="M409.421 45.3452L402.327 47.3719L404.354 54.4655L411.447 52.4387L409.421 45.3452Z" fill="#EB3B4E"/>
</g>
<defs>
<clipPath id="clip0_3706_4150">
<rect width="480" height="365" fill="white"/>
</clipPath>
</defs>
</svg>
