<svg width="440" height="310" viewBox="0 0 440 310" fill="none" xmlns="http://www.w3.org/2000/svg">
<path d="M317.134 17.3657C317.134 17.3657 314.515 12.7583 318.117 10.3564C321.719 7.9545 327.626 10.6555 327.744 14.4582C327.855 18.2595 325.329 19.7319 327.743 21.3728C330.149 23.0123 336.174 28.5937 333.523 31.7184C330.879 34.8446 326.69 33.1442 326.719 38.6821C326.749 44.22 334.945 48.9143 328.067 53.4595C321.189 58.0046 307.606 62.573 306.596 48.9226C305.586 35.2722 316.077 42.5277 312.628 32.5591C309.179 22.5905 314.334 24.6392 316.907 22.3449C319.463 20.0549 317.134 17.3657 317.134 17.3657Z" fill="#023EA1"/>
<path d="M322.428 24.6344C322.428 24.6344 318.329 38.0518 318.683 50.8354C319.037 63.619 321.02 66.3285 321.02 66.3285" stroke="white" stroke-width="0.902605" stroke-miterlimit="10" stroke-linecap="round" stroke-linejoin="round"/>
<path d="M287.19 15.3179C287.19 15.3179 297.425 10.8301 298.099 16.9981C298.777 23.1748 301.35 23.518 304.03 23.7396C306.711 23.9612 311.656 22.3622 312.016 28.9123C312.384 35.4639 310.035 38.9602 312.354 41.5491C314.672 44.1453 320.547 57.6996 314.721 58.5746C308.895 59.4424 303.447 53.0035 301.875 49.6828C300.303 46.362 295.565 45.169 291.749 45.1693C287.932 45.1696 283.502 42.2409 285.985 37.7895C288.474 33.3396 287.089 27.918 283.957 26.1231C280.839 24.3312 280.308 18.4717 287.19 15.3179Z" fill="#FCBE42"/>
<path d="M290.923 22.0344L315.536 63.7062" stroke="white" stroke-width="0.902605" stroke-miterlimit="10" stroke-linecap="round" stroke-linejoin="round"/>
<path d="M324.834 56.0574C324.834 56.0574 310.622 34.2965 307.273 16.5946" stroke="#DE051F" stroke-width="0.902605" stroke-miterlimit="10"/>
<path d="M306.909 5.27482C306.909 5.27482 312.124 11.3337 307.664 18.4275C307.664 18.4275 302.291 13.9234 306.909 5.27482Z" stroke="#DE051F" stroke-width="0.902605" stroke-miterlimit="10"/>
<path d="M312.417 32.6219C312.417 32.6219 310.731 25.4461 318.391 21C318.391 21 321.826 26.8773 312.417 32.6219Z" stroke="#DE051F" stroke-width="0.902605" stroke-miterlimit="10"/>
<path d="M320.155 48.1431C320.155 48.1431 317.094 41.4352 323.739 35.5805C323.74 35.5733 328.259 40.6663 320.155 48.1431Z" stroke="#DE051F" stroke-width="0.902605" stroke-miterlimit="10"/>
<path d="M319.932 48.3541C319.932 48.3541 316.451 41.8478 307.751 43.5578C307.758 43.5592 309.062 50.2338 319.932 48.3541Z" stroke="#DE051F" stroke-width="0.902605" stroke-miterlimit="10"/>
<path d="M312.468 32.5264C312.468 32.5264 309.845 25.6359 300.996 26.2196C300.996 26.2196 301.444 33.0068 312.468 32.5264Z" stroke="#DE051F" stroke-width="0.902605" stroke-miterlimit="10"/>
<path d="M338.511 157.273C357.105 163.792 377.409 153.961 383.821 135.367C390.339 116.773 380.508 96.4688 361.914 90.0571C343.32 83.5385 323.016 93.3698 316.605 111.964C310.193 130.558 320.024 150.862 338.511 157.273Z" stroke="#DB061F" stroke-width="0.902605" stroke-miterlimit="10" stroke-dasharray="5.42 5.42"/>
<path d="M383.393 130.024C386.492 131.092 389.912 129.489 391.087 126.283C392.156 123.184 390.553 119.765 387.347 118.589C384.248 117.521 380.828 119.124 379.653 122.33C378.584 125.429 380.187 128.848 383.393 130.024Z" fill="#003FAE"/>
<path d="M384.676 121.581L387.455 125.428L383.073 126.176L384.676 121.581Z" fill="white"/>
<path d="M46.7977 95.8754C51.7134 98.4401 60.0486 95.7685 63.7888 88.8225C67.529 81.8764 75.1162 85.1892 78.2152 90.2117C81.421 95.2342 86.871 100.364 92.5347 99.7224C98.1984 98.9744 111.129 100.684 114.869 109.126C118.609 117.462 95.9543 121.095 90.6112 120.24C85.2681 119.385 82.7034 125.369 73.727 130.392C64.8574 135.414 62.827 127.613 60.2623 124.301C57.6976 120.988 55.133 117.889 46.4771 122.163C37.8213 126.438 35.1497 109.34 35.1497 109.34C33.7605 97.4783 41.882 93.2038 46.7977 95.8754Z" fill="#023E9F"/>
<path d="M122.349 105.707L47.2246 108.378" stroke="white" stroke-width="0.902605" stroke-miterlimit="10" stroke-linecap="round" stroke-linejoin="round"/>
<path d="M68.2772 93.0969L77.7879 107.31L68.0635 122.057" stroke="white" stroke-width="0.902605" stroke-miterlimit="10" stroke-linecap="round" stroke-linejoin="round"/>
<path d="M67.3147 64.5649C67.2079 70.0148 59.3001 73.8619 74.6882 80.5942C90.0764 87.3265 70.3069 91.8147 87.4048 105.279C104.503 118.851 113.8 98.0127 115.83 84.9755C117.967 72.0452 103.648 76.5334 97.0224 70.656C90.5038 64.6717 97.0224 61.6796 96.1675 55.161C95.4195 48.6424 82.2754 49.711 77.7872 50.7796C73.299 51.8483 74.2608 47.2532 69.6657 43.2993C65.0706 39.3454 55.5599 43.2993 54.4913 50.1385C53.4226 56.9777 61.651 58.9012 61.651 58.9012C61.651 58.9012 67.3147 59.008 67.3147 64.5649Z" fill="#EC384E"/>
<path d="M123.311 107.203C123.311 107.203 117.968 106.562 102.58 93.2038C87.1916 79.8461 75.8643 60.504 75.8643 60.504" stroke="white" stroke-width="0.902605" stroke-miterlimit="10" stroke-linecap="round" stroke-linejoin="round"/>
<path d="M48.9346 76.7471C71.2688 87.0058 95.3127 112.866 95.3127 112.866" stroke="#FABC43" stroke-width="0.902605" stroke-miterlimit="10"/>
<path d="M51.2854 77.9225C40.4924 81.4489 34.1875 72.5794 34.1875 72.5794C47.011 69.2667 51.2854 77.9225 51.2854 77.9225Z" stroke="#FABC43" stroke-width="0.902605" stroke-miterlimit="10"/>
<path d="M51.1787 92.8834C59.6208 84.2275 68.4904 88.8226 68.4904 88.8226C57.8042 99.2951 51.1787 92.8834 51.1787 92.8834Z" stroke="#FABC43" stroke-width="0.902605" stroke-miterlimit="10"/>
<path d="M68.7041 104.745C78.6423 97.9057 86.4432 104.104 86.4432 104.104C73.9403 112.332 68.7041 104.745 68.7041 104.745Z" stroke="#FABC43" stroke-width="0.902605" stroke-miterlimit="10"/>
<path d="M63.7885 71.6178C60.1552 83.052 68.3836 88.8226 68.3836 88.8226C72.5512 74.3962 63.7885 71.6178 63.7885 71.6178Z" stroke="#FABC43" stroke-width="0.902605" stroke-miterlimit="10"/>
<path d="M356.356 261.502H80.5446C77.7662 261.502 75.6289 259.258 75.6289 256.587V72.4633C75.6289 69.6849 77.873 67.5476 80.5446 67.5476H356.463C359.241 67.5476 361.378 69.7917 361.378 72.4633V256.587C361.378 259.258 359.134 261.502 356.356 261.502Z" fill="#0064B5"/>
<path d="M354.967 74.2799H82.041V259.579H354.967V74.2799Z" fill="#DAE6FF"/>
<path d="M390.552 266.418H46.4563C43.7847 266.418 41.6475 264.281 41.6475 261.609V258.831C41.6475 256.159 43.7847 254.022 46.4563 254.022H390.552C393.224 254.022 395.361 256.159 395.361 258.831V261.609C395.361 264.281 393.224 266.418 390.552 266.418Z" fill="#0064B5"/>
<path d="M354.967 74.2799H82.041V254.663H354.967V74.2799Z" fill="#FDFDFD"/>
<path d="M334.991 229.285H107.111C104.886 229.285 102.968 227.317 102.968 224.745V37.5863C102.968 35.0137 104.886 33.0464 107.111 33.0464H334.991C337.216 33.0464 339.134 35.0137 339.134 37.5863V224.745C339.134 227.317 337.216 229.285 334.991 229.285Z" fill="#DBEFFF" stroke="#0064B7" stroke-width="1.80521"/>
<path d="M183.255 94.3566C183.371 95.248 183.45 96.1511 183.489 97.0645L183.264 97.0742C183.283 97.5218 183.293 97.9719 183.293 98.4243C183.293 98.8767 183.283 99.3268 183.264 99.7745L183.489 99.7842C183.45 100.698 183.371 101.601 183.255 102.492L183.031 102.463C182.914 103.361 182.758 104.247 182.566 105.119L182.786 105.168C182.59 106.058 182.355 106.933 182.085 107.792L181.87 107.725C181.598 108.586 181.29 109.432 180.947 110.259L181.155 110.346C180.807 111.186 180.423 112.007 180.005 112.808L179.805 112.704C179.388 113.503 178.937 114.282 178.454 115.038L178.644 115.16C178.156 115.925 177.635 116.667 177.084 117.384L176.905 117.247C176.357 117.961 175.778 118.65 175.17 119.312L175.336 119.465C174.724 120.133 174.083 120.774 173.415 121.386L173.262 121.22C172.6 121.827 171.911 122.406 171.197 122.955L171.334 123.134C170.617 123.685 169.875 124.206 169.11 124.694L168.988 124.504C168.232 124.987 167.453 125.438 166.654 125.855L166.758 126.055C165.957 126.473 165.136 126.857 164.296 127.205L164.209 126.997C163.382 127.34 162.536 127.648 161.675 127.919L161.742 128.135C160.883 128.405 160.008 128.64 159.118 128.836L159.069 128.616C158.197 128.808 157.311 128.964 156.413 129.081L156.442 129.305C155.551 129.421 154.648 129.5 153.734 129.539L153.725 129.314C153.277 129.333 152.827 129.343 152.374 129.343C151.922 129.343 151.472 129.333 151.024 129.314L151.015 129.539C150.101 129.5 149.198 129.421 148.307 129.305L148.336 129.081C147.438 128.964 146.552 128.808 145.679 128.616L145.631 128.836C144.741 128.64 143.866 128.405 143.006 128.135L143.074 127.919C142.212 127.648 141.367 127.34 140.539 126.997L140.453 127.205C139.613 126.857 138.792 126.473 137.991 126.055L138.095 125.855C137.296 125.438 136.517 124.987 135.76 124.504L135.639 124.694C134.874 124.206 134.132 123.685 133.414 123.134L133.552 122.955C132.838 122.406 132.149 121.827 131.486 121.22L131.334 121.386C130.666 120.774 130.025 120.133 129.412 119.465L129.579 119.312C128.971 118.65 128.392 117.961 127.844 117.247L127.665 117.384C127.114 116.667 126.593 115.925 126.104 115.16L126.295 115.038C125.812 114.282 125.361 113.503 124.944 112.704L124.744 112.808C124.326 112.007 123.942 111.186 123.594 110.346L123.802 110.259C123.459 109.432 123.151 108.586 122.879 107.725L122.664 107.792C122.393 106.933 122.159 106.058 121.963 105.168L122.183 105.119C121.99 104.247 121.835 103.361 121.717 102.463L121.494 102.492C121.377 101.601 121.299 100.698 121.26 99.7842L121.485 99.7745C121.466 99.3268 121.456 98.8767 121.456 98.4243C121.456 97.9719 121.466 97.5218 121.485 97.0742L121.26 97.0645C121.299 96.1511 121.377 95.248 121.494 94.3566L121.717 94.3858C121.835 93.4876 121.99 92.6015 122.183 91.7293L121.963 91.6806C122.159 90.791 122.393 89.9156 122.664 89.0563L122.879 89.1241C123.151 88.2623 123.459 87.4167 123.802 86.5892L123.594 86.5028C123.942 85.6629 124.326 84.8416 124.744 84.0407L124.944 84.1451C125.361 83.3456 125.812 82.5667 126.295 81.8102L126.104 81.6888C126.593 80.9239 127.114 80.1818 127.665 79.4644L127.844 79.6019C128.392 78.8881 128.971 78.1989 129.579 77.5363L129.412 77.3838C130.025 76.7159 130.666 76.0747 131.334 75.4624L131.486 75.6287C132.149 75.0212 132.838 74.4422 133.552 73.8937L133.414 73.7147C134.132 73.1634 134.874 72.6427 135.639 72.1544L135.76 72.3446C136.517 71.8616 137.296 71.4107 138.095 70.9937L137.991 70.7936C138.792 70.3759 139.613 69.9919 140.453 69.6436L140.539 69.8521C141.367 69.5089 142.212 69.2007 143.074 68.9292L143.006 68.714C143.866 68.4433 144.741 68.2089 145.631 68.0125L145.679 68.2328C146.552 68.0403 147.438 67.8846 148.336 67.7674L148.307 67.5436C149.198 67.4274 150.101 67.3488 151.015 67.3095L151.024 67.535C151.472 67.5158 151.922 67.506 152.374 67.506C152.827 67.506 153.277 67.5158 153.725 67.535L153.734 67.3095C154.648 67.3488 155.551 67.4274 156.442 67.5436L156.413 67.7674C157.311 67.8846 158.197 68.0403 159.069 68.2328L159.118 68.0125C160.008 68.2089 160.883 68.4433 161.742 68.714L161.675 68.9292C162.536 69.2007 163.382 69.5089 164.209 69.8521L164.296 69.6436C165.136 69.9919 165.957 70.3759 166.758 70.7936L166.654 70.9937C167.453 71.4107 168.232 71.8616 168.988 72.3446L169.11 72.1544C169.875 72.6427 170.617 73.1634 171.334 73.7148L171.197 73.8937C171.911 74.4422 172.6 75.0212 173.262 75.6287L173.415 75.4624C174.083 76.0747 174.724 76.7159 175.336 77.3838L175.17 77.5363C175.778 78.1989 176.357 78.8881 176.905 79.6019L177.084 79.4644C177.635 80.1818 178.156 80.9239 178.644 81.6888L178.454 81.8102C178.937 82.5667 179.388 83.3457 179.805 84.1451L180.005 84.0407C180.423 84.8416 180.807 85.6629 181.155 86.5028L180.947 86.5892C181.29 87.4167 181.598 88.2623 181.87 89.1241L182.085 89.0563C182.355 89.9156 182.59 90.791 182.786 91.6806L182.566 91.7293C182.758 92.6015 182.914 93.4876 183.031 94.3858L183.255 94.3566Z" fill="white" stroke="#2A2A2A" stroke-width="0.451302" stroke-dasharray="2.71 2.71"/>
<path d="M274.347 71.2733H202.892C201.895 71.2733 201.087 72.0815 201.087 73.0785V74.2595C201.087 75.2565 201.895 76.0647 202.892 76.0647H274.347C275.344 76.0647 276.152 75.2565 276.152 74.2595V73.0785C276.152 72.0815 275.344 71.2733 274.347 71.2733Z" fill="white"/>
<path d="M274.347 100.021H202.892C201.895 100.021 201.087 100.83 201.087 101.827V103.008C201.087 104.005 201.895 104.813 202.892 104.813H274.347C275.344 104.813 276.152 104.005 276.152 103.008V101.827C276.152 100.83 275.344 100.021 274.347 100.021Z" fill="white"/>
<path d="M274.347 129.568H202.892C201.895 129.568 201.087 130.376 201.087 131.373V132.554C201.087 133.551 201.895 134.36 202.892 134.36H274.347C275.344 134.36 276.152 133.551 276.152 132.554V131.373C276.152 130.376 275.344 129.568 274.347 129.568Z" fill="white"/>
<path d="M319.066 80.8561H202.892C201.895 80.8561 201.087 81.6643 201.087 82.6613V83.8422C201.087 84.8392 201.895 85.6475 202.892 85.6475H319.066C320.063 85.6475 320.871 84.8392 320.871 83.8422V82.6613C320.871 81.6643 320.063 80.8561 319.066 80.8561Z" fill="white"/>
<path d="M319.066 109.604H202.892C201.895 109.604 201.087 110.412 201.087 111.409V112.59C201.087 113.587 201.895 114.396 202.892 114.396H319.066C320.063 114.396 320.871 113.587 320.871 112.59V111.409C320.871 110.412 320.063 109.604 319.066 109.604Z" fill="white"/>
<path d="M319.066 139.151H202.892C201.895 139.151 201.087 139.959 201.087 140.956V142.137C201.087 143.134 201.895 143.942 202.892 143.942H319.066C320.063 143.942 320.871 143.134 320.871 142.137V140.956C320.871 139.959 320.063 139.151 319.066 139.151Z" fill="white"/>
<path d="M340.037 56.1007H102.065V40.0222C102.065 35.6811 103.722 32.1438 105.754 32.1438H337.101C338.682 32.1438 340.037 34.8771 340.037 38.4144V56.1007Z" fill="#0064B7"/>
<path d="M334.318 44.1347C334.318 45.4141 333.264 46.543 331.909 46.543C330.63 46.543 329.501 45.4894 329.501 44.1347C329.501 42.8553 330.555 41.7264 331.909 41.7264C333.264 41.7264 334.318 42.7801 334.318 44.1347Z" fill="white"/>
<path d="M327.619 44.1347C327.619 45.4141 326.566 46.543 325.211 46.543C323.932 46.543 322.803 45.4894 322.803 44.1347C322.803 42.8553 323.856 41.7264 325.211 41.7264C326.566 41.7264 327.619 42.7801 327.619 44.1347Z" fill="white"/>
<path d="M320.846 44.1347C320.846 45.4141 319.792 46.543 318.438 46.543C317.158 46.543 316.029 45.4894 316.029 44.1347C316.029 42.8553 317.083 41.7264 318.438 41.7264C319.792 41.7264 320.846 42.7801 320.846 44.1347Z" fill="white"/>
<path d="M185.374 175.631H121.771C120.107 175.631 118.835 174.261 118.835 172.695V146.08C118.835 144.416 120.205 143.144 121.771 143.144H185.374C187.038 143.144 188.31 144.514 188.31 146.08V172.695C188.31 174.359 187.038 175.631 185.374 175.631Z" fill="white"/>
<path d="M174.513 150.287H133.513V152.929H174.513V150.287Z" fill="#0064B7"/>
<path d="M179.601 158.507H126.468V161.149H179.601V158.507Z" fill="#DCE8F4"/>
<path d="M152.692 165.454H126.468V168.096H152.692V165.454Z" fill="#DCE8F4"/>
<path d="M130.088 151.657C130.088 152.636 129.305 153.419 128.327 153.419C127.348 153.419 126.565 152.636 126.565 151.657C126.565 150.679 127.348 149.896 128.327 149.896C129.305 149.798 130.088 150.581 130.088 151.657Z" fill="#0064B7"/>
<path d="M185.374 214.76H121.771C120.107 214.76 118.835 213.39 118.835 211.825V185.209C118.835 183.546 120.205 182.274 121.771 182.274H185.374C187.038 182.274 188.31 183.643 188.31 185.209V211.825C188.31 213.488 187.038 214.76 185.374 214.76Z" fill="white"/>
<path d="M174.513 189.417H133.513V192.059H174.513V189.417Z" fill="#DCE8F4"/>
<path d="M179.601 197.636H126.468V200.278H179.601V197.636Z" fill="#DCE8F4"/>
<path d="M152.692 204.584H126.468V207.226H152.692V204.584Z" fill="#DCE8F4"/>
<path d="M130.088 190.787C130.088 191.765 129.305 192.548 128.327 192.548C127.348 192.548 126.565 191.765 126.565 190.787C126.565 189.808 127.348 189.025 128.327 189.025C129.305 188.927 130.088 189.71 130.088 190.787Z" fill="#DCE8F4"/>
<path d="M394.836 267.72H41.7278C41.5155 267.72 41.374 267.474 41.374 267.106V266.737C41.374 266.368 41.5155 266.123 41.7278 266.123H394.765C394.977 266.123 395.119 266.368 395.119 266.737V267.106C395.189 267.474 395.048 267.72 394.836 267.72Z" fill="#DCE8F4"/>
<path d="M390.776 154.736C390.776 154.629 390.776 154.309 390.776 154.309C390.669 153.775 390.028 153.133 389.601 152.706C388.532 151.958 387.463 151.53 386.395 151.637C385.967 151.637 385.647 151.744 385.219 152.065C380.945 153.668 379.235 151.637 379.235 151.637C379.235 151.637 375.388 148.431 373.785 152.065C372.182 155.698 375.067 157.942 376.136 157.622C377.205 157.515 380.838 157.194 381.693 158.797C382.761 160.4 384.792 161.575 385.54 161.255C386.074 161.148 386.288 162.003 386.288 162.43C386.288 163.178 385.86 164.033 385.219 164.568C385.112 164.675 384.792 164.995 384.792 165.102C384.792 165.209 384.792 165.209 384.792 165.529C384.792 166.598 384.899 167.239 385.219 168.308C385.326 169.056 385.754 171.834 387.143 171.407C389.066 170.979 393.554 168.949 393.127 161.789C393.127 161.789 393.555 159.011 391.845 157.515C391.417 157.087 390.562 156.767 390.562 155.912C390.135 155.805 390.562 155.164 390.776 154.736Z" fill="#1F1954"/>
<path d="M376.885 156.339C376.885 156.339 373.038 161.148 374.427 169.056C374.427 169.056 375.496 172.262 377.633 172.582C379.557 172.689 378.809 174.933 378.809 175.468C378.381 177.071 378.274 176.216 377.633 177.605C377.206 178.887 379.236 181.452 381.16 181.452C383.083 181.452 386.61 179.101 387.144 177.925C387.678 176.75 387.572 173.117 386.396 170.766C385.221 168.415 385.969 164.781 385.969 164.781C385.969 164.781 390.029 161.682 386.717 159.973C383.724 158.69 377.633 155.805 376.885 156.339Z" fill="#F9BC97"/>
<path d="M365.023 187.009L359.786 194.168C359.786 194.168 359.038 195.451 357.435 194.916C355.084 194.168 346.001 190.215 346.001 190.215C346.001 190.215 344.932 187.329 343.65 186.581C342.368 185.833 337.238 185.406 337.666 189.36C338.093 193.314 340.551 193.634 341.727 193.42C342.902 193.42 349.955 198.336 350.596 198.87C351.344 199.298 358.29 202.717 358.29 202.717C358.29 202.717 360.748 203.893 363.099 201.435C365.45 198.977 371.541 192.565 371.541 192.565L368.656 188.505L365.023 187.009Z" fill="#F9BC97"/>
<path d="M374.534 180.169C374.534 180.169 367.801 183.375 365.664 186.26L364.916 187.008L370.793 191.924L374.534 180.169Z" fill="#F39D1D"/>
<path d="M387.464 175.04C387.464 175.467 387.464 175.574 387.357 176.109C387.357 176.536 387.25 176.643 386.929 177.177C386.609 177.605 386.502 177.925 386.181 178.246C385.754 178.673 385.433 178.994 385.006 179.315C384.578 179.742 383.937 179.849 383.403 180.063C382.869 180.169 382.12 180.49 381.479 180.49C381.372 180.49 381.052 180.49 380.945 180.49C380.838 180.49 380.518 180.383 380.411 180.063C379.983 179.956 379.663 179.528 379.235 178.994C378.701 178.566 378.167 177.925 377.632 177.391C377.632 177.391 371.755 179.528 370.366 191.604L370.259 218.96L399.646 218.212L391.738 179.849C391.418 179.208 388.96 175.895 387.464 175.04Z" fill="#FABC43"/>
<path d="M398.898 191.817C398.898 191.817 396.12 178.673 390.99 179.101C385.754 179.528 387.464 190.001 388.639 193.42L398.898 191.817Z" fill="#F39D1D"/>
<path d="M370.259 218.64L376.243 301.885L383.51 302.313L385.861 255.186L383.082 218.426L370.259 218.64Z" fill="#0053A1"/>
<path d="M378.915 218.319C378.915 218.319 380.518 251.66 386.182 262.667C392.059 273.567 399.326 295.367 404.028 299.214L410.119 295.153C410.119 295.153 397.402 259.782 398.043 249.737L399.646 217.892L378.915 218.319Z" fill="#0064DF"/>
<path d="M388.532 193.421C388.532 193.421 393.234 201.863 393.234 203.786C393.234 205.71 393.982 212.228 393.234 218.64C393.234 218.64 390.776 228.578 390.028 229.433L388.105 231.784C388.105 231.784 386.929 233.494 389.28 232.532C389.28 232.532 390.456 233.066 389.814 233.708C389.28 234.242 387.891 234.242 387.463 235.631C387.463 235.631 385.326 236.379 386.929 237.555C386.929 237.555 388.853 239.158 389.814 237.982C389.814 237.982 391.524 237.982 391.524 236.807C391.524 236.807 393.127 236.059 393.448 233.173C393.875 230.074 395.906 227.189 396.547 226.014C396.547 226.014 400.607 212.442 400.607 211.801C400.607 211.373 400.607 210.732 400.607 210.519C400.607 209.45 400.607 208.595 400.607 207.633C400.607 206.458 400.607 205.282 400.607 204.107C400.607 202.931 400.501 201.756 400.18 200.58C400.073 199.405 399.646 198.443 399.646 197.481C399.646 197.054 399.646 196.413 399.539 196.199C399.539 195.13 399.432 194.275 399.111 193.1C399.111 192.993 399.005 191.924 399.005 191.818L388.532 193.421Z" fill="#F9BC97"/>
<path d="M383.617 302.313L376.35 301.779C376.35 301.779 370.473 306.053 368.443 306.48C366.092 306.908 365.237 308.19 366.84 308.404C368.443 308.511 382.441 308.511 382.441 308.511C382.441 308.511 384.044 308.297 383.617 302.313Z" fill="#201A56"/>
<path d="M403.92 298.786C403.92 298.786 401.035 304.343 399.86 305.519C398.684 307.015 396.974 310.221 399.86 308.511C402.317 307.015 410.653 301.779 412.256 300.603C412.363 300.603 412.363 300.176 412.363 300.176C412.363 300.069 412.363 299.748 412.363 299.535C412.363 298.893 411.935 297.504 411.187 296.649C410.012 294.939 410.012 294.939 410.012 294.939L403.92 298.786Z" fill="#201A56"/>
<path d="M87.6549 292.772C87.6549 292.772 91.9294 292.986 95.1353 292.986C98.2343 292.986 103.257 293.627 103.257 293.627C103.257 293.627 104.539 293.627 104.646 295.23C104.753 296.833 104.753 297.474 104.753 297.474C104.753 297.474 104.86 299.398 103.364 299.398C101.868 299.398 92.25 300.466 90.1127 300.466C87.9755 300.466 86.3726 300.894 86.3726 299.398C86.2657 297.902 86.1588 292.666 87.6549 292.772Z" fill="#160856"/>
<path d="M91.1812 247.142C91.1812 247.142 93.9596 262.637 94.1733 266.805C94.387 270.866 94.8145 274.071 92.1429 275.674C89.4714 277.277 84.9832 278.773 84.9832 278.773L79.5332 250.989V247.783L91.1812 247.142Z" fill="#FDBD97"/>
<path d="M43.6277 246.181C43.6277 246.181 42.1317 253.234 41.7042 256.76C41.2768 260.287 40.315 267.233 40.2082 268.836C40.1013 270.439 39.8876 273.11 42.7729 275.247C45.6581 277.278 48.864 278.453 48.864 278.453L54.8483 246.181H43.6277Z" fill="#FDBD97"/>
<path d="M64.8939 223.847C64.8939 223.847 64.8939 227.052 63.5047 228.442C62.1155 229.831 60.2988 232.182 60.2988 232.182C60.2988 232.182 63.5047 237.311 70.0233 236.563C76.435 235.922 77.6105 231.22 77.6105 231.22C77.6105 231.22 71.5194 230.365 70.7713 224.595C70.1301 218.824 69.1684 218.824 69.1684 218.824L64.8939 223.847Z" fill="#FDAE7D"/>
<path d="M60.1914 211.023C60.1914 211.023 60.4051 218.396 63.9316 224.167C67.3512 229.937 71.5188 226.732 73.2286 223.739C74.8315 220.747 79.2129 211.023 78.358 208.458C77.3962 205.894 64.6796 204.718 64.6796 204.718L60.1914 211.023Z" fill="#FDBD97"/>
<path d="M76.5409 215.191C76.5409 215.191 78.3576 213.801 78.3576 215.191C78.3576 216.58 77.3958 218.61 76.3272 218.931C75.1517 219.145 75.3654 218.503 75.686 217.542C75.8997 216.58 76.5409 215.191 76.5409 215.191Z" fill="#FDBD97"/>
<path d="M60.7255 218.183C61.2598 218.397 61.7941 218.504 61.7941 217.755C61.7941 216.366 60.8323 214.336 59.7637 214.015C58.5882 213.802 58.8019 214.443 59.1225 215.405C59.2294 215.725 59.3362 216.046 59.4431 216.473C59.6568 217.114 60.298 217.969 60.7255 218.183Z" fill="#FDBD97"/>
<path d="M60.5126 214.443L60.2989 212.092C60.2989 212.092 62.3292 212.305 64.6802 210.061C64.6802 210.061 69.1684 211.13 72.8017 210.702C76.6488 210.382 78.2517 209.313 78.2517 209.313C78.2517 209.313 77.6105 213.695 76.9694 214.977C76.9694 214.977 78.786 214.229 79.534 212.092C80.1752 210.061 80.0684 207.817 80.0684 207.817C80.0684 207.817 82.6331 205.787 83.2742 203.436C83.2742 203.436 76.3282 201.833 74.2978 200.444C72.2674 199.055 71.0919 198.093 71.0919 198.093C71.0919 198.093 67.8861 196.276 64.6802 198.734C61.4744 201.299 59.3371 202.688 59.3371 207.069C59.2302 207.176 56.2381 211.344 60.5126 214.443Z" fill="#160856"/>
<path d="M61.0467 229.831C61.0467 229.831 56.6654 229.296 54.2075 229.938C51.8566 230.579 51.1085 230.151 51.7497 231.968C52.3909 233.785 55.5967 242.227 54.1007 247.463C52.6046 252.699 50.5742 279.842 50.5742 279.842C50.5742 279.842 67.031 280.483 73.3358 280.804C79.7476 281.124 84.4495 279.949 84.4495 279.949C84.4495 279.949 85.8387 268.301 84.4495 263.172C83.0603 258.149 81.2437 249.493 81.2437 249.493C81.2437 249.493 80.0682 237.632 81.6711 234.746C83.274 231.861 84.4495 231.754 82.4191 231.006C80.3888 230.258 78.1447 229.617 76.4349 229.617C74.8319 229.617 73.977 229.617 73.0153 230.579C72.0535 231.54 70.13 233.464 67.4584 233.037C64.7869 232.609 62.7565 230.792 62.7565 230.792C62.7565 230.792 61.7947 229.938 61.0467 229.831Z" fill="#0181F7"/>
<path d="M53.2457 230.793C53.2457 230.793 51.7496 230.045 49.5055 231.968C47.0476 234.105 45.3379 238.594 44.483 241.372C43.6281 244.15 43.0938 246.929 43.0938 246.929C43.0938 246.929 46.1928 248.532 49.5055 248.639C52.7113 248.745 54.8486 248.959 54.8486 248.959C54.8486 248.959 56.2378 240.517 55.9172 236.777C55.4898 233.037 54.9554 231.754 53.2457 230.793Z" fill="#023E9F"/>
<path d="M80.3887 233.891C80.3887 233.891 81.671 230.365 84.5563 231.968C87.4416 233.571 89.5788 239.769 90.3269 241.692C90.968 243.616 91.8229 247.57 91.8229 247.57C91.8229 247.57 88.4033 249.066 85.4112 249.279C82.5259 249.493 80.4956 249.707 80.4956 249.707C80.4956 249.707 79.3201 242.013 79.5338 239.021C79.7475 236.029 80.3887 233.891 80.3887 233.891Z" fill="#023E9F"/>
<path d="M56.5586 282.3H78.6791L67.2448 285.826L56.5586 282.3Z" fill="#BA0A28"/>
<path d="M36.8952 275.995C36.8952 275.995 77.2891 288.605 86.1587 291.704C86.1587 291.704 89.044 292.452 89.1508 293.948C89.2577 295.444 88.9371 297.581 88.6165 298.65C88.2959 299.719 87.3342 300.574 85.7312 300.253C84.1283 299.932 47.902 292.666 33.5825 288.926L29.5217 287.643C29.5217 287.643 26.5296 286.254 27.0639 282.621C27.5982 278.987 30.2698 275.675 32.1933 275.461C34.1168 275.354 36.8952 275.995 36.8952 275.995Z" fill="#EC384E"/>
<path d="M33.2629 293.948C33.2629 293.948 38.2854 293.093 41.3844 292.987C44.3765 292.88 48.4373 292.559 49.0784 292.987C49.7196 293.414 50.2539 299.291 50.2539 299.291C50.2539 299.291 50.7882 300.894 46.8343 300.574C42.8804 300.253 33.6903 299.933 33.6903 299.933C33.6903 299.933 31.6599 299.826 31.5531 298.009C31.4462 296.192 31.7668 295.338 31.7668 295.338C31.7668 295.338 31.8736 294.162 33.2629 293.948Z" fill="#160856"/>
<path d="M57.3062 288.819C57.3062 288.819 81.7776 281.338 90.5403 278.774C99.303 276.209 104.112 273.858 106.997 277.919C109.775 281.98 109.562 286.575 106.356 287.857C103.15 289.139 77.61 295.124 67.0306 297.261C56.4513 299.398 49.5052 300.787 48.5435 300.36C47.5817 299.932 46.5131 296.833 46.7268 295.124C46.9405 293.414 47.0474 292.773 49.0778 291.918C51.1081 290.956 57.3062 288.819 57.3062 288.819Z" fill="#DB061F"/>
<path d="M54.527 253.127H84.021C84.021 253.127 85.6239 252.913 85.6239 255.05C85.6239 257.187 85.6239 280.483 85.6239 280.483C85.6239 280.483 85.7308 282.193 84.4484 282.193C83.1661 282.193 49.8251 282.193 49.8251 282.193C49.8251 282.193 48.4359 282.621 48.4359 280.27C48.4359 277.919 48.4359 254.409 48.4359 254.409C48.4359 254.409 48.329 253.127 50.0388 253.127C51.6418 253.127 54.527 253.127 54.527 253.127Z" fill="#0064B5"/>
<path d="M68.847 267.553L66.7098 265.843L65 267.981L67.1372 269.69L68.847 267.553Z" fill="#579CD2"/>
<path d="M302.627 261.35C302.627 261.35 305.405 260.175 305.191 257.076C304.978 253.87 303.375 251.626 306.687 252.588C310.107 253.549 311.176 253.87 313.633 253.442C316.091 252.908 318.122 251.946 317.053 255.045C315.984 258.251 314.809 260.816 317.374 261.35C319.938 261.885 322.61 259.961 322.93 264.877C323.251 269.792 319.297 275.456 312.778 275.563C306.367 275.777 303.481 273.105 303.481 273.105C303.481 273.105 301.772 270.647 304.443 270.006C307.115 269.365 309.893 268.296 308.504 267.014C307.115 265.732 302.627 265.625 302.627 265.625C302.627 265.625 296.963 264.663 302.627 261.35Z" fill="#649CE8"/>
<path d="M332.12 262.205C331.693 258.999 332.013 256.755 337.891 255.9C343.768 255.045 347.188 258.572 347.508 262.205C347.829 265.839 342.806 267.121 342.806 267.121C342.806 267.121 339.173 268.19 340.99 271.289C342.806 274.494 343.661 277.487 339.494 278.021C335.326 278.448 330.731 277.38 328.166 275.67C325.602 273.96 323.037 269.686 325.922 267.442C325.922 267.442 326.777 266.907 329.555 266.693C332.441 266.587 332.12 262.205 332.12 262.205Z" fill="#023E9F"/>
<path d="M311.496 261.671C311.496 261.671 316.412 272.678 317.053 280.158" stroke="#023E9F" stroke-width="0.902605" stroke-miterlimit="10"/>
<path d="M338.533 263.488C338.533 263.488 329.877 276.311 327.847 280.586" stroke="#649CE8" stroke-width="0.902605" stroke-miterlimit="10"/>
<path d="M313.954 279.303H333.723C333.723 279.303 335.86 279.41 335.754 282.402C335.647 285.181 332.12 284.54 330.304 284.54C328.487 284.54 313.526 284.54 313.526 284.54C313.526 284.54 311.068 284.967 311.068 282.189C311.175 279.517 312.03 279.303 313.954 279.303Z" fill="#0055A2"/>
<path d="M313.634 284.54L316.626 302.065H329.877L332.121 288.921L313.634 284.54Z" fill="#0055A2"/>
<path d="M313.634 284.54L332.121 288.921L332.869 284.54H313.634Z" fill="#016AD3"/>
<path d="M322.075 279.944C322.075 279.944 323.037 260.495 328.914 248.313" stroke="#FABC43" stroke-width="0.902605" stroke-miterlimit="10"/>
<path d="M333.724 241.367C333.724 241.367 334.152 247.351 328.381 249.702C328.381 249.702 327.099 244.573 333.724 241.367Z" fill="#FABC43"/>
<path d="M324.961 260.389C324.961 260.389 327.098 255.259 333.724 256.008C333.724 255.901 333.189 261.03 324.961 260.389Z" fill="#FABC43"/>
<path d="M322.824 273.105C322.824 273.105 323.893 267.655 330.518 267.121C330.518 267.121 330.946 272.143 322.824 273.105Z" fill="#FABC43"/>
<path d="M322.503 273.212C322.503 273.212 323.251 267.762 317.266 264.984C317.266 264.877 315.129 269.579 322.503 273.212Z" fill="#FABC43"/>
<path d="M325.067 260.282C325.067 260.282 326.563 254.939 320.899 251.412C320.899 251.412 318.121 255.794 325.067 260.282Z" fill="#FABC43"/>
<path d="M362.79 39.3309L356.806 41.0407L358.515 47.025L364.5 45.3152L362.79 39.3309Z" fill="#EB3B4E"/>
</svg>
