<svg width="440" height="310" viewBox="0 0 440 310" fill="none" xmlns="http://www.w3.org/2000/svg">
<path d="M91.2744 172.215C72.3787 160.712 66.3837 136.117 77.9184 117.198C89.4532 98.2795 114.116 92.3768 133.088 103.88" stroke="#2626DB" stroke-width="1.13659" stroke-miterlimit="10" stroke-dasharray="6.82 6.82"/>
<path d="M83.3394 125.2C85.6531 121.418 84.4832 116.499 80.7264 114.214C76.9695 111.928 72.0484 113.141 69.7347 116.924C67.421 120.706 68.5909 125.624 72.3478 127.91C76.1046 130.195 81.0257 128.982 83.3394 125.2Z" fill="#FCBE42"/>
<path d="M73.7446 118.334L74.5794 124.388L78.9808 120.755" stroke="white" stroke-width="1.13659" stroke-miterlimit="10"/>
<path d="M171.865 112.128H200.778L221.495 206.647" stroke="#0064B7" stroke-width="2.27318" stroke-miterlimit="10"/>
<path d="M175.052 129.685H109.79C109.335 129.685 109.031 129.382 109.031 128.928V77.2417C109.031 76.7877 109.335 76.485 109.79 76.485H174.977C175.432 76.485 175.735 76.7877 175.735 77.2417V129.004C175.811 129.382 175.432 129.685 175.052 129.685Z" fill="white" stroke="#C6D7F1" stroke-width="1.13659" stroke-miterlimit="10"/>
<path d="M135.971 120.301H120.869C120.338 120.301 119.883 119.847 119.883 119.317V118.939C119.883 118.409 120.338 117.955 120.869 117.955H135.971C136.502 117.955 136.957 118.409 136.957 118.939V119.317C136.957 119.847 136.502 120.301 135.971 120.301Z" fill="#DCE8F4"/>
<path d="M162.303 99.4907H120.186C118.517 99.4907 117.151 98.1285 117.151 96.4636V96.0853C117.151 94.4204 118.517 93.0582 120.186 93.0582H162.303C163.973 93.0582 165.339 94.4204 165.339 96.0853V96.4636C165.263 98.2042 163.973 99.4907 162.303 99.4907Z" stroke="#231F20" stroke-width="0.568296" stroke-miterlimit="10"/>
<path d="M162.303 110.766H120.186C118.517 110.766 117.151 109.404 117.151 107.739V107.36C117.151 105.696 118.517 104.333 120.186 104.333H162.303C163.973 104.333 165.339 105.696 165.339 107.36V107.739C165.263 109.404 163.973 110.766 162.303 110.766Z" stroke="#231F20" stroke-width="0.568296" stroke-miterlimit="10"/>
<path d="M161.621 121.815H144.167C142.346 121.815 140.904 120.377 140.904 118.561V118.182C140.904 116.366 142.346 114.928 144.167 114.928H161.621C163.442 114.928 164.884 116.366 164.884 118.182V118.561C164.884 120.301 163.442 121.815 161.621 121.815Z" fill="#EE384E"/>
<path d="M154.335 88.2905H127.32C126.409 88.2905 125.65 87.5337 125.65 86.6256V85.1121C125.65 84.204 126.409 83.4473 127.32 83.4473H154.335C155.246 83.4473 156.005 84.204 156.005 85.1121V86.6256C156.005 87.5337 155.246 88.2905 154.335 88.2905Z" fill="#023EA1"/>
<path d="M139.082 174.788H175.811L228.097 225.793" stroke="#0064B7" stroke-width="2.27318" stroke-miterlimit="10"/>
<path d="M140.904 255.534H91.2741C90.4393 255.534 89.7563 254.853 89.7563 254.02V163.436C89.7563 162.604 90.4393 161.923 91.2741 161.923H140.904C141.739 161.923 142.422 162.604 142.422 163.436V254.02C142.422 254.853 141.739 255.534 140.904 255.534Z" fill="white" stroke="#C6D7F1" stroke-width="1.13659" stroke-miterlimit="10"/>
<path d="M126.788 214.366H105.54C104.705 214.366 104.022 213.685 104.022 212.852V212.474C104.022 211.642 104.705 210.96 105.54 210.96H126.788C127.623 210.96 128.306 211.642 128.306 212.474V212.852C128.306 213.685 127.623 214.366 126.788 214.366Z" stroke="#00A9FF" stroke-width="1.13659" stroke-miterlimit="10"/>
<path d="M133.77 223.144H98.0274C97.2685 223.144 96.7373 222.539 96.7373 221.858V221.707C96.7373 220.95 97.3444 220.42 98.0274 220.42H133.77C134.529 220.42 135.06 221.026 135.06 221.707V221.858C135.136 222.539 134.529 223.144 133.77 223.144Z" fill="#DFE8F6"/>
<path d="M116.847 236.009H98.255C97.4203 236.009 96.7373 235.328 96.7373 234.496V233.815C96.7373 232.982 97.4203 232.301 98.255 232.301H116.847C117.682 232.301 118.365 232.982 118.365 233.815V234.496C118.365 235.328 117.682 236.009 116.847 236.009Z" fill="#DFE8F6"/>
<path d="M133.846 228.518H97.9515C97.2685 228.518 96.7373 227.988 96.7373 227.307V227.155C96.7373 226.474 97.2685 225.945 97.9515 225.945H133.846C134.529 225.945 135.06 226.474 135.06 227.155V227.307C135.136 227.988 134.529 228.518 133.846 228.518Z" fill="#DFE8F6"/>
<path d="M125.271 248.244H107.058C105.388 248.244 104.022 246.882 104.022 245.217V244.46C104.022 242.795 105.388 241.433 107.058 241.433H125.271C126.94 241.433 128.306 242.795 128.306 244.46V245.217C128.306 246.882 127.016 248.244 125.271 248.244Z" fill="#EE384E"/>
<path d="M116.544 203.772C125.806 203.772 133.315 196.284 133.315 187.047C133.315 177.811 125.806 170.323 116.544 170.323C107.282 170.323 99.7729 177.811 99.7729 187.047C99.7729 196.284 107.282 203.772 116.544 203.772Z" fill="#C6D7F0"/>
<path d="M241.074 77.7349C241.074 77.7349 238.191 73.6484 241.757 71.1511C245.324 68.6538 251.471 70.6971 251.774 74.2538C252.078 77.8106 249.574 79.3241 252.154 80.6863C254.734 82.0484 261.108 86.816 258.604 89.9187C256.024 93.0214 251.698 91.7349 252.002 96.8809C252.305 102.027 260.957 105.811 254.127 110.502C247.297 115.194 233.713 120.492 231.968 107.854C230.223 95.216 241.302 101.194 237.28 92.189C233.258 83.1836 238.646 84.6971 241.15 82.3511C243.579 80.0809 241.074 77.7349 241.074 77.7349Z" fill="#023EA1"/>
<path d="M246.842 84.0919C246.842 84.0919 243.351 96.8811 244.337 108.762C245.324 120.643 247.524 122.989 247.524 122.989" stroke="white" stroke-width="1.13659" stroke-miterlimit="10" stroke-linecap="round" stroke-linejoin="round"/>
<path d="M231.209 124.276C231.209 124.276 222.786 95.3674 224.986 74.5566" stroke="#EB4B57" stroke-width="1.13659" stroke-miterlimit="10"/>
<path d="M228.401 61.8429C228.401 61.8429 232.119 70.3186 224.758 76.6753C224.758 76.751 220.357 69.9402 228.401 61.8429Z" stroke="#EB4B57" stroke-width="1.13659" stroke-miterlimit="10"/>
<path d="M225.29 94.0811C225.29 94.0811 225.821 85.5298 235.838 83.1838C235.838 83.1838 237.735 90.9028 225.29 94.0811Z" stroke="#EB4B57" stroke-width="1.13659" stroke-miterlimit="10"/>
<path d="M228.629 113.908C228.629 113.908 227.49 105.433 236.9 101.119C236.9 101.195 240.163 108.384 228.629 113.908Z" stroke="#EB4B57" stroke-width="1.13659" stroke-miterlimit="10"/>
<path d="M228.325 114.135C228.325 114.135 226.655 105.735 216.411 104.752C216.411 104.676 215.576 112.546 228.325 114.135Z" stroke="#EB4B57" stroke-width="1.13659" stroke-miterlimit="10"/>
<path d="M225.365 94.0055C225.365 94.0055 224.758 85.4541 214.741 83.1838C214.741 83.1838 212.92 90.8271 225.365 94.0055Z" stroke="#EB4B57" stroke-width="1.13659" stroke-miterlimit="10"/>
<path d="M179.606 262.383C179.606 262.383 180.137 265.865 181.807 270.935L188.333 274.113L183.324 274.946C189.092 289.021 203.131 309.529 235.079 305.519C235.155 305.519 250.787 265.183 179.606 262.383Z" fill="#FCBE42"/>
<path d="M188.029 284.102L214.59 286.978L179.606 262.383" stroke="white" stroke-width="1.13659" stroke-miterlimit="10"/>
<path d="M201.917 264.957L214.59 286.978" stroke="white" stroke-width="1.13659" stroke-miterlimit="10"/>
<path d="M199.943 238.168C199.943 238.168 208.67 232.265 210.34 237.335C212.009 242.481 214.514 242.254 217.018 241.876C219.522 241.497 223.848 239.151 225.289 244.6C226.731 250.049 225.214 253.53 227.794 255.27C230.374 257.011 238.19 267.303 232.954 269.27C227.718 271.238 221.571 266.849 219.522 264.351C217.473 261.854 212.92 261.778 209.353 262.611C205.787 263.443 201.233 261.778 202.751 257.541C204.269 253.227 202.068 248.914 198.881 248.006C195.618 247.173 194.1 242.254 199.943 238.168Z" fill="#023EA1"/>
<path d="M204.572 243.162L234.623 273.508" stroke="white" stroke-width="1.13659" stroke-miterlimit="10" stroke-linecap="round" stroke-linejoin="round"/>
<path d="M219.218 245.735L216.79 255.498L206.545 257.541" stroke="white" stroke-width="1.13659" stroke-miterlimit="10" stroke-linecap="round" stroke-linejoin="round"/>
<path d="M192.127 251.714C192.127 251.714 192.127 257.162 195.845 255.043C199.564 252.849 202.144 252.773 203.738 256.86C205.331 260.946 207.987 262.384 210.492 261.703C212.92 260.946 217.245 258.903 219.143 264.578C221.04 270.254 225.441 280.849 219.522 283.649C213.603 286.449 204.193 282.741 202.751 278.427C201.309 274.114 202.827 270.557 198.046 269.195C193.265 267.833 192.582 272.524 188.409 269.346C184.235 266.168 179.682 263.292 182.793 256.708C185.677 250.73 191.368 248.687 192.127 251.714Z" stroke="#EE384E" stroke-width="1.13659" stroke-miterlimit="10"/>
<path d="M191.216 257.995C191.216 257.995 217.473 278.124 225.289 281.681" stroke="#EE384E" stroke-width="1.13659" stroke-miterlimit="10"/>
<path d="M212.161 265.411L212.92 273.962L206.242 276.838" stroke="#EE384E" stroke-width="1.13659" stroke-miterlimit="10"/>
<path d="M198.956 257.313L198.577 263.594L193.341 266.697" stroke="#EE384E" stroke-width="1.13659" stroke-miterlimit="10"/>
<path d="M309.523 309H222.861C218.687 309 215.272 305.595 215.272 301.433V116.935C215.272 112.773 218.687 109.368 222.861 109.368H309.523C313.697 109.368 317.112 112.773 317.112 116.935V301.433C317.036 305.595 313.697 309 309.523 309Z" fill="#0064B7"/>
<path d="M306.868 297.043H225.593C223.089 297.043 221.04 294.999 221.04 292.502V124.275C221.04 121.778 223.089 119.734 225.593 119.734H306.868C309.372 119.734 311.421 121.778 311.421 124.275V292.502C311.421 294.999 309.372 297.043 306.868 297.043Z" fill="white"/>
<path d="M237.431 127.756H231.664C231.36 127.756 231.132 127.529 231.132 127.227V127.151C231.132 126.848 231.36 126.621 231.664 126.621H237.431C237.734 126.621 237.962 126.848 237.962 127.151V127.227C237.962 127.529 237.659 127.756 237.431 127.756Z" fill="#0064B7"/>
<path d="M237.431 129.573H231.664C231.36 129.573 231.132 129.346 231.132 129.043V128.968C231.132 128.665 231.36 128.438 231.664 128.438H237.431C237.734 128.438 237.962 128.665 237.962 128.968V129.043C237.962 129.346 237.659 129.573 237.431 129.573Z" fill="#0064B7"/>
<path d="M237.431 131.389H231.664C231.36 131.389 231.132 131.162 231.132 130.859V130.783C231.132 130.48 231.36 130.253 231.664 130.253H237.431C237.734 130.253 237.962 130.48 237.962 130.783V130.859C237.962 131.162 237.659 131.389 237.431 131.389Z" fill="#0064B7"/>
<path d="M265.737 138.427C258.452 138.427 251.85 141.227 246.841 145.768L252.988 153.184C256.403 149.703 261.184 147.584 266.42 147.584C276.741 147.584 285.164 155.984 285.164 166.276C285.164 168.622 284.709 170.892 283.95 172.935L291.766 176.492C292.98 173.313 293.663 169.908 293.663 166.351C293.663 150.913 281.142 138.427 265.737 138.427Z" fill="#0064B7"/>
<path d="M247.676 166.2C247.676 161.129 249.725 156.513 252.988 153.184L246.841 145.767C241.301 150.838 237.811 158.178 237.811 166.275C237.811 174.07 241.074 181.108 246.234 186.178L253.367 179.594C249.876 176.189 247.676 171.497 247.676 166.2Z" fill="#00A9FF"/>
<path d="M265.737 194.124C277.5 194.124 287.592 186.708 291.69 176.492L283.95 172.935C281.142 179.746 274.236 184.967 266.42 184.967C261.336 184.967 256.707 182.924 253.368 179.67L246.234 186.254C251.243 191.097 258.149 194.124 265.737 194.124Z" fill="#EE384E"/>
<path d="M242.592 205.551C243.598 205.551 244.413 204.738 244.413 203.735C244.413 202.732 243.598 201.918 242.592 201.918C241.586 201.918 240.771 202.732 240.771 203.735C240.771 204.738 241.586 205.551 242.592 205.551Z" fill="#00A9FF"/>
<path d="M260.501 205.551C261.507 205.551 262.322 204.738 262.322 203.735C262.322 202.732 261.507 201.918 260.501 201.918C259.495 201.918 258.68 202.732 258.68 203.735C258.68 204.738 259.495 205.551 260.501 205.551Z" fill="#EE384E"/>
<path d="M279.624 205.551C280.63 205.551 281.445 204.738 281.445 203.735C281.445 202.732 280.63 201.918 279.624 201.918C278.618 201.918 277.803 202.732 277.803 203.735C277.803 204.738 278.618 205.551 279.624 205.551Z" fill="#0064B7"/>
<path d="M253.443 204.492H247.22C246.841 204.492 246.461 204.189 246.461 203.735V203.659C246.461 203.281 246.765 202.902 247.22 202.902H253.443C253.822 202.902 254.202 203.205 254.202 203.659V203.735C254.202 204.189 253.898 204.492 253.443 204.492Z" fill="#DFE8F6"/>
<path d="M272.339 204.492H266.117C265.737 204.492 265.358 204.189 265.358 203.735V203.659C265.358 203.281 265.661 202.902 266.117 202.902H272.339C272.719 202.902 273.098 203.205 273.098 203.659V203.735C273.022 204.189 272.719 204.492 272.339 204.492Z" fill="#DFE8F6"/>
<path d="M290.4 204.492H284.177C283.798 204.492 283.418 204.189 283.418 203.735V203.659C283.418 203.281 283.722 202.902 284.177 202.902H290.4C290.779 202.902 291.159 203.205 291.159 203.659V203.735C291.159 204.189 290.779 204.492 290.4 204.492Z" fill="#DFE8F6"/>
<path d="M298.823 215.162H232.195C231.588 215.162 231.057 214.632 231.057 214.027V213.951C231.057 213.346 231.588 212.816 232.195 212.816H298.823C299.43 212.816 299.962 213.346 299.962 213.951V214.027C299.962 214.632 299.43 215.162 298.823 215.162Z" fill="#DCE8F5"/>
<path d="M298.823 221.443H232.195C231.588 221.443 231.057 220.913 231.057 220.308V220.232C231.057 219.627 231.588 219.097 232.195 219.097H298.823C299.43 219.097 299.962 219.627 299.962 220.232V220.308C299.962 220.913 299.43 221.443 298.823 221.443Z" fill="#DCE8F5"/>
<path d="M285.315 226.891H232.119C231.588 226.891 231.132 226.437 231.132 225.908V225.605C231.132 225.075 231.588 224.621 232.119 224.621H285.315C285.846 224.621 286.302 225.075 286.302 225.605V225.908C286.302 226.437 285.846 226.891 285.315 226.891Z" fill="#DCE8F5"/>
<path d="M242.591 280.318H236.9V289.021H242.591V280.318Z" fill="#C7D7F0"/>
<path d="M251.243 274.643H245.703V288.946H251.243V274.643Z" fill="#C7D7F0"/>
<path d="M259.742 270.329H254.202V289.021H259.742V270.329Z" fill="#C7D7F0"/>
<path d="M286.302 264.957H280.383V288.946H286.302V264.957Z" fill="#C7D7F0"/>
<path d="M294.801 263.14H288.882V289.4H294.801V263.14Z" fill="#C7D7F0"/>
<path d="M277.803 268.059H271.884V289.021H277.803V268.059Z" fill="#C7D7F0"/>
<path d="M268.697 266.016H263.612V288.946H268.697V266.016Z" fill="#C7D7F0"/>
<path d="M242.591 273.356H236.9V280.243H242.591V273.356Z" fill="#0064B7"/>
<path d="M251.243 269.043H245.703V274.643H251.243V269.043Z" fill="#0064B7"/>
<path d="M259.742 260.643H254.202V270.329H259.742V260.643Z" fill="#0064B7"/>
<path d="M268.697 256.254H263.612V266.016H268.697V256.254Z" fill="#0064B7"/>
<path d="M277.803 259.357H271.884V268.059H277.803V259.357Z" fill="#0064B7"/>
<path d="M286.302 253.757H280.383V265.032H286.302V253.757Z" fill="#0064B7"/>
<path d="M294.801 248.838H288.882V263.141H294.801V248.838Z" fill="#0064B7"/>
<path d="M239.632 262.157C239.632 262.157 246.386 256.254 254.202 253.757C254.202 253.757 260.501 251.486 262.322 244.827C262.322 244.827 264.371 238.167 269.986 243.767C269.986 243.767 274.236 248.081 277.879 244.297C277.879 244.297 283.798 234.081 293.284 234.838" stroke="#EE384E" stroke-width="1.13659" stroke-miterlimit="10"/>
<path d="M302.185 104.89C302.185 104.89 305.06 105.033 307.144 105.033C309.228 105.033 312.535 105.463 312.535 105.463C312.535 105.463 313.397 105.463 313.469 106.538C313.541 107.614 313.541 108.044 313.541 108.044C313.541 108.044 313.613 109.334 312.606 109.334C311.6 109.334 305.204 110.05 303.766 110.05C302.329 110.05 301.251 110.337 301.251 109.334C301.251 108.259 301.179 104.818 302.185 104.89Z" fill="#170856"/>
<path d="M304.556 74.5721C304.556 74.5721 306.425 84.8931 306.569 87.6166C306.712 90.3402 307 92.4187 305.203 93.4938C303.406 94.5689 300.459 95.5723 300.459 95.5723L296.794 77.1524V75.0022L304.556 74.5721Z" fill="#FFBF99"/>
<path d="M272.933 73.9988C272.933 73.9988 271.926 78.6575 271.639 81.0227C271.351 83.3879 270.704 87.975 270.633 89.0501C270.561 90.1252 270.417 91.917 272.358 93.2788C274.298 94.6406 276.382 95.429 276.382 95.429L280.335 74.0705L272.933 73.9988Z" fill="#FFBF99"/>
<path d="M287.091 59.2344C287.091 59.2344 287.091 61.3846 286.157 62.3164C285.222 63.2481 284 64.7533 284 64.7533C284 64.7533 286.157 68.1219 290.469 67.6918C294.781 67.2618 295.5 64.1799 295.5 64.1799C295.5 64.1799 291.403 63.6065 290.972 59.8078C290.541 56.0092 289.894 56.0092 289.894 56.0092L287.091 59.2344Z" fill="#FFB07E"/>
<path d="M283.929 50.7051C283.929 50.7051 284.073 55.5789 286.373 59.4492C288.673 63.3195 291.404 61.0977 292.482 59.1625C293.56 57.2273 296.435 50.7051 295.86 49.0566C295.213 47.4082 286.804 46.6198 286.804 46.6198L283.929 50.7051Z" fill="#FFBF99"/>
<path d="M294.854 53.5005C294.854 53.5005 296.075 52.5688 296.075 53.5005C296.075 54.4323 295.429 55.7941 294.71 55.9374C293.919 56.0808 294.063 55.6507 294.279 55.0057C294.351 54.3606 294.854 53.5005 294.854 53.5005Z" fill="#FFBF99"/>
<path d="M284.289 55.3639C284.648 55.5072 285.008 55.5789 285.008 55.0772C285.008 54.1454 284.361 52.7836 283.642 52.6403C282.923 52.4969 282.995 52.927 283.211 53.572C283.283 53.7871 283.355 54.0021 283.426 54.2888C283.57 54.6471 284.001 55.2922 284.289 55.3639Z" fill="#FFBF99"/>
<path d="M284.145 52.9274L284.001 51.4223C284.001 51.4223 285.367 51.5656 286.948 50.0605C286.948 50.0605 289.967 50.7055 292.338 50.4905C294.854 50.2755 295.932 49.5588 295.932 49.5588C295.932 49.5588 295.501 52.4257 295.069 53.2858C295.069 53.2858 296.291 52.7841 296.723 51.4223C297.154 50.0605 297.082 48.5553 297.082 48.5553C297.082 48.5553 298.807 47.1936 299.238 45.6168C299.238 45.6168 294.638 44.5417 293.273 43.6099C291.907 42.6782 291.116 42.1048 291.116 42.1048C291.116 42.1048 288.96 40.8863 286.804 42.5348C284.648 44.1833 283.282 45.115 283.282 48.0536C283.354 48.1253 281.342 50.8489 284.145 52.9274Z" fill="#160C56"/>
<path d="M284.504 63.1764C284.504 63.1764 281.557 62.8181 279.976 63.2481C278.395 63.6782 277.892 63.3915 278.323 64.6099C278.754 65.8283 280.91 71.4188 279.904 74.9308C278.898 78.4428 277.532 96.361 277.532 96.361C277.532 96.361 288.457 96.7911 292.697 97.0061C296.938 97.2211 300.1 96.4327 300.1 96.4327C300.1 96.4327 301.035 88.692 300.1 85.3234C299.166 81.9548 297.944 76.2209 297.944 76.2209C297.944 76.2209 297.153 68.3369 298.232 66.4017C299.31 64.4666 300.1 64.3949 298.735 63.8932C297.369 63.3915 295.86 62.9614 294.782 62.9614C293.704 62.9614 293.129 62.9614 292.482 63.6065C291.835 64.2515 290.541 65.5416 288.744 65.255C286.948 64.9683 285.582 63.7498 285.582 63.7498C285.582 63.7498 285.007 63.2481 284.504 63.1764Z" fill="#0083F9"/>
<path d="M279.329 63.8214C279.329 63.8214 278.323 63.3197 276.814 64.6098C275.233 65.9716 274.011 68.9818 273.436 70.8453C272.861 72.7088 272.501 74.5723 272.501 74.5723C272.501 74.5723 274.586 75.6474 276.742 75.7191C278.898 75.7908 280.336 75.9341 280.336 75.9341C280.336 75.9341 281.27 70.3436 281.054 67.8351C280.839 65.3265 280.479 64.3948 279.329 63.8214Z" fill="#0064B7"/>
<path d="M297.369 65.8283C297.369 65.8283 298.232 63.463 300.172 64.5381C302.113 65.6132 303.55 69.6986 303.982 70.9887C304.413 72.2788 304.988 74.859 304.988 74.859C304.988 74.859 302.688 75.8625 300.747 76.0058C298.807 76.1492 297.441 76.2925 297.441 76.2925C297.441 76.2925 296.651 71.2037 296.794 69.1969C296.938 67.19 297.369 65.8283 297.369 65.8283Z" fill="#0064B7"/>
<path d="M281.557 97.9377H296.291L288.673 100.231L281.557 97.9377Z" fill="#91051C"/>
<path d="M268.477 93.7805C268.477 93.7805 295.285 102.166 301.179 104.245C301.179 104.245 303.119 104.747 303.191 105.75C303.263 106.753 303.047 108.187 302.832 108.904C302.616 109.62 301.969 110.194 300.891 109.979C299.813 109.764 275.808 104.962 266.248 102.453L263.517 101.593C263.517 101.593 261.505 100.661 261.864 98.2243C262.224 95.7874 264.02 93.6372 265.314 93.4939C266.608 93.3505 268.477 93.7805 268.477 93.7805Z" fill="#DE051F"/>
<path d="M266.033 105.607C266.033 105.607 269.411 105.033 271.423 104.962C273.436 104.89 276.095 104.675 276.526 104.962C276.958 105.248 277.317 109.119 277.317 109.119C277.317 109.119 277.676 110.194 275.017 109.979C272.358 109.764 266.249 109.549 266.249 109.549C266.249 109.549 264.883 109.477 264.811 108.259C264.739 107.04 264.955 106.467 264.955 106.467C264.955 106.467 265.17 105.75 266.033 105.607Z" fill="#170856"/>
<path d="M282.061 102.167C282.061 102.167 298.376 97.2211 304.125 95.501C309.947 93.7808 313.181 92.204 315.05 94.9276C316.919 97.6511 316.775 100.661 314.619 101.521C312.463 102.382 295.573 106.324 288.529 107.757C281.486 109.19 276.886 110.122 276.239 109.836C275.592 109.549 274.873 107.47 275.017 106.324C275.161 105.177 275.233 104.747 276.598 104.173C277.964 103.6 282.061 102.167 282.061 102.167Z" fill="#EE384E"/>
<path d="M280.192 78.5856H299.741C299.741 78.5856 300.819 78.4423 300.819 79.8758C300.819 81.3092 300.819 96.7906 300.819 96.7906C300.819 96.7906 300.891 97.9373 300.029 97.9373C299.166 97.9373 277.029 97.9373 277.029 97.9373C277.029 97.9373 276.095 98.224 276.095 96.6472C276.095 95.0704 276.095 79.4457 276.095 79.4457C276.095 79.4457 276.023 78.5856 277.173 78.5856C278.323 78.5856 280.192 78.5856 280.192 78.5856Z" fill="#170856"/>
<path d="M299.962 131.541H246.234C244.868 131.541 243.806 130.481 243.806 129.119C243.806 127.757 244.868 126.697 246.234 126.697H299.962C301.328 126.697 302.39 127.757 302.39 129.119C302.39 130.481 301.328 131.541 299.962 131.541Z" fill="#DCE8F5"/>
<path d="M332.574 145.829L326.655 147.484L328.315 153.386L334.234 151.731L332.574 145.829Z" fill="#EE384E"/>
<path d="M164.679 234.413L158.76 236.068L160.42 241.97L166.339 240.315L164.679 234.413Z" fill="#EE384E"/>
<path d="M167.966 145.852L162.047 147.507L163.707 153.409L169.625 151.754L167.966 145.852Z" fill="#003EB0"/>
<path d="M370.253 96.9133C370.177 96.8376 370.101 96.8376 369.949 96.8376L368.052 97.0647C367.824 97.0647 367.597 96.9133 367.521 96.6863C367.293 95.7782 366.99 95.0214 366.458 94.189C366.307 93.9619 366.383 93.7349 366.534 93.5079L367.9 92.4484C367.976 92.3728 368.052 92.2971 368.052 92.1457C368.052 91.9944 368.052 91.9187 367.976 91.843L365.851 89.7241C365.775 89.6484 365.7 89.5728 365.548 89.6484C365.472 89.6484 365.32 89.7241 365.244 89.7998L364.182 91.1619C364.03 91.389 363.727 91.389 363.499 91.2376C362.74 90.7836 361.905 90.4052 360.995 90.1782C360.767 90.1025 360.539 89.8755 360.615 89.6484L360.843 87.7565C360.843 87.6809 360.843 87.5295 360.767 87.4538C360.691 87.3782 360.615 87.3025 360.463 87.3025H357.428C357.352 87.3025 357.2 87.3782 357.124 87.4538C357.049 87.5295 357.049 87.6052 357.049 87.7565L357.276 89.6484C357.276 89.8755 357.124 90.1025 356.897 90.1782C355.986 90.4052 355.227 90.7079 354.392 91.2376C354.165 91.389 353.937 91.3133 353.71 91.1619L352.647 89.7998C352.571 89.7241 352.495 89.6484 352.344 89.6484C352.192 89.6484 352.116 89.6484 352.04 89.7241L349.915 91.843C349.839 91.9187 349.839 91.9944 349.839 92.1457C349.839 92.2971 349.915 92.3728 349.991 92.4484L351.357 93.5079C351.585 93.6592 351.585 93.9619 351.433 94.189C350.978 94.9457 350.598 95.7782 350.37 96.6863C350.295 96.9133 350.067 97.0647 349.839 97.0647L347.942 96.8376C347.866 96.8376 347.714 96.8376 347.639 96.9133C347.563 96.989 347.487 97.0647 347.487 97.216V100.243C347.487 100.319 347.563 100.47 347.639 100.546C347.714 100.621 347.79 100.621 347.942 100.621L349.839 100.394C350.067 100.394 350.295 100.546 350.37 100.773C350.598 101.681 350.902 102.438 351.433 103.27C351.585 103.497 351.509 103.8 351.357 103.875L349.991 104.935C349.915 105.011 349.839 105.086 349.839 105.238C349.839 105.313 349.839 105.465 349.915 105.54L352.04 107.659C352.116 107.735 352.192 107.811 352.344 107.735C352.419 107.735 352.571 107.659 352.647 107.584L353.71 106.221C353.861 105.994 354.165 105.994 354.392 106.07C355.151 106.524 355.986 106.902 356.897 107.054C357.124 107.13 357.352 107.357 357.276 107.584L357.049 109.475C357.049 109.551 357.049 109.702 357.124 109.778C357.2 109.854 357.276 109.93 357.428 109.93H360.463C360.539 109.93 360.691 109.854 360.767 109.778C360.843 109.702 360.843 109.627 360.843 109.475L360.615 107.584C360.615 107.357 360.767 107.13 360.995 107.054C361.905 106.827 362.664 106.524 363.499 106.07C363.727 105.919 363.954 105.994 364.182 106.221L365.244 107.584C365.32 107.659 365.396 107.735 365.548 107.735C365.7 107.735 365.775 107.735 365.851 107.659L367.976 105.54C368.052 105.465 368.052 105.389 368.052 105.238C368.052 105.086 367.976 105.011 367.9 104.935L366.534 103.875C366.307 103.724 366.307 103.421 366.458 103.27C366.914 102.513 367.293 101.681 367.521 100.773C367.597 100.546 367.824 100.394 368.052 100.394L369.949 100.621C370.025 100.621 370.177 100.621 370.253 100.546C370.329 100.47 370.405 100.394 370.405 100.243V97.216C370.405 97.1403 370.405 96.989 370.253 96.9133ZM369.646 99.789L368.128 99.6376C367.521 99.5619 366.914 99.9403 366.762 100.621C366.61 101.378 366.231 102.211 365.851 102.892C365.548 103.421 365.624 104.102 366.155 104.557L367.217 105.389L365.7 106.902L364.865 105.843C364.485 105.313 363.802 105.238 363.271 105.54C362.588 105.994 361.829 106.297 360.995 106.448C360.388 106.6 359.932 107.205 360.008 107.811L360.16 109.324H358.035L358.187 107.811C358.263 107.205 357.883 106.6 357.2 106.448C356.366 106.297 355.607 105.919 354.924 105.54C354.392 105.238 353.71 105.313 353.33 105.843L352.495 106.902L350.978 105.389L352.04 104.557C352.571 104.178 352.647 103.497 352.344 102.892C351.888 102.211 351.585 101.454 351.433 100.621C351.281 100.016 350.674 99.5619 350.067 99.6376L348.549 99.789V97.6701L350.067 97.8214C350.674 97.8971 351.281 97.5187 351.433 96.8376C351.585 96.0809 351.964 95.2484 352.344 94.5674C352.647 94.0376 352.571 93.3565 352.04 92.9782L350.978 92.1457L352.495 90.6322L353.33 91.6917C353.71 92.2214 354.392 92.2971 354.924 91.9944C355.607 91.5403 356.366 91.2376 357.2 91.0863C357.807 90.9349 358.263 90.3295 358.187 89.7241L358.035 88.2106H360.16L360.008 89.7241C359.932 90.3295 360.312 90.9349 360.995 91.0863C361.829 91.2376 362.588 91.616 363.271 91.9944C363.802 92.2971 364.485 92.2214 364.865 91.6917L365.7 90.6322L367.217 92.1457L366.155 92.9782C365.624 93.3565 365.548 94.0376 365.851 94.5674C366.307 95.2484 366.61 96.0052 366.762 96.8376C366.914 97.443 367.521 97.8971 368.128 97.8214L369.646 97.6701V99.789Z" stroke="#003EB0" stroke-width="1.13659" stroke-miterlimit="10"/>
<path d="M359.097 93.4321C356.214 93.4321 353.861 95.7781 353.861 98.7294C353.861 101.681 356.214 104.027 359.097 104.027C361.981 104.027 364.334 101.681 364.334 98.7294C364.41 95.7781 362.057 93.4321 359.097 93.4321ZM359.097 103.194C356.593 103.194 354.62 101.151 354.62 98.6537C354.62 96.1565 356.669 94.1132 359.097 94.1132C361.526 94.1132 363.575 96.1565 363.575 98.6537C363.575 101.151 361.602 103.194 359.097 103.194Z" stroke="#003EB0" stroke-width="1.13659" stroke-miterlimit="10"/>
<path d="M348.641 213.798L344.543 213.722L339.914 213.344C339.914 213.344 339.383 216.144 342.039 216.522C344.695 216.901 348.717 217.355 349.4 217.203C350.007 217.128 348.641 213.798 348.641 213.798Z" fill="#FFBF9C"/>
<path d="M351.676 193.517C351.676 193.517 347.427 197.982 346.819 200.252C346.212 202.522 347.578 206.155 348.034 207.138C348.489 208.122 348.185 221.365 348.185 221.365L365.412 221.441L365.336 193.517H351.676Z" fill="#0064E1"/>
<path d="M341.583 180.425C341.583 180.425 341.963 183.831 342.722 185.95V187.69C342.722 187.917 342.949 188.068 343.177 188.068L344.239 187.993L344.164 189.355C344.164 189.506 344.315 189.733 344.467 189.733L345.302 189.809C345.454 189.809 345.605 189.96 345.53 190.187L345.378 190.793C345.302 190.944 345.454 191.171 345.605 191.171C346.213 191.323 347.578 191.398 349.172 190.339C350.842 189.204 351.828 189.809 351.828 190.793C351.828 191.852 350.993 195.031 352.359 195.712C353.574 196.317 357.216 196.014 357.823 195.258C358.658 194.425 357.747 192.306 356.609 191.171C355.774 190.339 354.484 180.804 352.511 179.895C350.538 178.987 341.583 180.425 341.583 180.425Z" fill="#FFBD99"/>
<path d="M361.466 206.987L361.618 212.89C361.618 213.344 361.238 213.798 360.783 213.798C360.252 213.798 359.796 213.798 358.582 213.344C355.85 212.284 349.4 208.652 348.489 208.198C348.413 208.198 348.413 208.122 348.337 208.047C348.186 207.668 347.427 206.533 345.378 206.684C343.025 206.836 342.418 207.366 342.646 208.122C342.874 208.879 343.101 208.803 343.101 208.803L342.798 209.257C342.798 209.257 343.101 210.014 344.164 210.014C345.15 210.014 346.44 209.484 346.744 209.863C347.047 210.166 357.368 217.052 359.72 218.641C360.1 218.868 360.479 219.02 360.859 219.095C362.452 219.474 366.019 219.928 366.626 217.43C367.309 214.328 367.309 207.214 367.309 207.214L361.466 206.987Z" fill="#FFBF9C"/>
<path d="M361.39 196.62C361.086 196.468 360.783 196.695 360.783 196.998L360.707 207.593C360.707 207.82 360.934 208.047 361.162 208.047C361.542 208.047 362.149 208.047 363.363 208.047C365.26 208.047 366.778 208.047 367.461 208.047C367.688 208.047 367.916 207.82 367.84 207.593L367.688 200.176C367.688 200.025 367.612 199.874 367.461 199.798L361.39 196.62Z" fill="#003EB0"/>
<path d="M373.835 201.236C374.67 197.906 368.902 193.29 368.902 193.29C368.902 193.29 366.019 192.231 365.487 188.901C364.956 185.571 361.845 184.587 360.403 183.452C358.961 182.317 358.05 179.517 358.05 179.517L357.899 178.76C357.899 178.76 355.622 168.469 347.578 171.041C347.578 171.041 343.86 172.328 342.418 175.204C342.418 175.204 337.106 176.036 338.244 180.198C339.382 184.36 341.811 181.787 341.811 181.787C341.811 181.787 342.873 179.593 344.012 181.106C345.15 182.62 347.806 183.604 348.641 182.166C349.475 180.728 351.145 179.744 351.6 181.939L351.676 182.998C351.676 182.998 355.698 187.917 356.077 189.733C356.533 191.55 357.671 193.971 359.568 195.106C361.465 196.241 363.666 200.782 364.501 203.279C365.336 205.777 372.697 206.079 373.835 201.236Z" fill="#170D54"/>
<path d="M333.236 201.463L322.688 201.766L335.664 216.069L346.516 215.69L333.236 201.463Z" fill="#14094F"/>
<path d="M332.553 211.982C332.553 211.982 331.49 214.025 332.477 214.479C333.464 214.933 334.374 215.236 334.83 214.706C335.285 214.176 335.512 212.587 334.981 212.663C334.526 212.739 334.222 212.739 334.222 212.739L334.147 212.284C334.147 212.133 334.071 211.982 333.995 211.906C333.539 211.755 332.781 211.376 332.553 211.982Z" fill="#FFBF9C"/>
<path d="M351.145 221.29L348.11 221.214L347.958 303.398L354.636 303.473L358.203 249.744L351.145 221.29Z" fill="#DE051F"/>
<path d="M365.336 221.441C365.336 221.441 365.488 224.241 365.64 225.301C365.791 225.982 369.662 232.414 366.55 240.36C366.474 240.512 366.474 240.663 366.474 240.814C366.398 242.555 365.943 253.225 368.22 258.825L379.906 296.512L375.429 299.69C375.429 299.69 360.1 266.923 359.645 265.409C359.189 263.896 349.4 231.809 350.614 222.804L350.842 221.139L365.336 221.441Z" fill="#EE384E"/>
<path d="M347.958 303.398C347.958 303.398 344.012 305.593 342.191 306.047C340.825 306.425 340.446 307.484 340.37 307.938C340.37 308.09 340.446 308.166 340.597 308.166H354.561V303.474L347.958 303.398Z" fill="#1C1457"/>
<path d="M375.429 299.766C375.429 299.766 374.215 303.096 371.786 305.063C369.358 307.031 371.786 308.317 371.786 308.317L382.107 301.885C382.183 301.885 382.183 301.809 382.183 301.809C382.335 301.582 382.79 300.523 382.259 299.539C381.652 298.404 379.982 296.587 379.982 296.587L375.429 299.766Z" fill="#1C1457"/>
<mask id="mask0_3366_1378" style="mask-type:luminance" maskUnits="userSpaceOnUse" x="99" y="170" width="35" height="34">
<path d="M116.544 203.772C125.806 203.772 133.315 196.284 133.315 187.047C133.315 177.811 125.806 170.323 116.544 170.323C107.282 170.323 99.7729 177.811 99.7729 187.047C99.7729 196.284 107.282 203.772 116.544 203.772Z" fill="white"/>
</mask>
<g mask="url(#mask0_3366_1378)">
<path d="M130.052 203.771C130.052 203.771 131.645 212.55 131.797 214.896C131.949 217.242 132.176 218.982 130.659 219.89C129.141 220.799 126.637 221.631 126.637 221.631L123.525 205.89V204.074L130.052 203.771Z" fill="#FFBF99"/>
<path d="M103.036 203.242C103.036 203.242 102.201 207.177 101.974 209.22C101.746 211.263 101.139 215.123 101.139 216.031C101.063 216.939 100.987 218.453 102.581 219.663C104.174 220.874 105.996 221.48 105.996 221.48L109.335 203.242H103.036Z" fill="#FFBF99"/>
<path d="M115.102 190.604C115.102 190.604 115.102 192.42 114.343 193.253C113.584 194.009 112.521 195.372 112.521 195.372C112.521 195.372 114.343 198.247 118.061 197.869C121.78 197.491 122.387 194.842 122.387 194.842C122.387 194.842 118.896 194.388 118.517 191.134C118.137 187.88 117.606 187.88 117.606 187.88L115.102 190.604Z" fill="#FFBF99"/>
<path d="M112.901 194.009C112.901 194.009 110.397 193.707 109.031 194.085C107.665 194.463 107.286 194.236 107.589 195.22C107.969 196.28 109.79 201.047 108.955 203.998C108.12 207.025 106.906 222.312 106.906 222.312C106.906 222.312 116.24 222.69 119.807 222.842C123.449 222.993 126.106 222.388 126.106 222.388C126.106 222.388 126.94 215.804 126.106 212.928C125.271 210.052 124.284 205.134 124.284 205.134C124.284 205.134 123.601 198.398 124.512 196.734C125.423 195.069 126.106 194.993 124.967 194.615C123.829 194.236 122.539 193.782 121.628 193.782C120.718 193.782 120.186 193.782 119.655 194.312C119.124 194.842 117.986 195.977 116.468 195.75C114.95 195.523 113.736 194.463 113.736 194.463C113.736 194.463 113.357 194.085 112.901 194.009Z" fill="#1B3A62"/>
<path d="M108.5 194.539C108.5 194.539 107.665 194.085 106.375 195.22C105.009 196.431 103.946 198.928 103.491 200.517C103.036 202.107 102.656 203.696 102.656 203.696C102.656 203.696 104.402 204.604 106.299 204.68C108.12 204.755 109.334 204.831 109.334 204.831C109.334 204.831 110.169 200.063 109.941 197.944C109.714 195.826 109.41 195.069 108.5 194.539Z" fill="#021E34"/>
<path d="M123.905 196.28C123.905 196.28 124.664 194.236 126.333 195.22C128.003 196.128 129.217 199.609 129.597 200.745C129.976 201.804 130.431 204.074 130.431 204.074C130.431 204.074 128.458 204.907 126.789 205.058C125.119 205.209 123.981 205.285 123.981 205.285C123.981 205.285 123.298 200.972 123.45 199.231C123.526 197.49 123.905 196.28 123.905 196.28Z" fill="#021E34"/>
<path d="M116.543 188.864H114.343C114.343 188.864 114.57 190.68 116.543 190.68C118.592 190.68 118.744 188.864 118.744 188.864H116.543Z" fill="white"/>
<path d="M122.615 185.307C122.767 185.761 122.008 186.971 121.704 187.425C121.856 186.744 121.932 185.836 122.084 184.701C122.084 184.701 122.539 184.853 122.615 185.307Z" fill="#FFBF99"/>
<path d="M122.235 179.631C122.083 175.62 116.695 175.62 116.695 175.62C116.695 175.62 111.308 175.696 111.156 179.631C111.08 181.372 111.156 183.188 111.308 184.626C111.383 185.761 111.535 186.669 111.687 187.35C111.763 187.804 111.839 188.107 111.915 188.334C112.066 188.637 112.218 189.015 112.522 189.393C113.129 190.226 113.964 191.058 114.495 191.437C114.95 191.739 116.088 191.966 116.62 191.891C117.151 191.891 118.213 191.739 118.744 191.437C118.744 191.437 118.744 191.437 118.82 191.437C119.427 191.058 120.262 190.226 120.793 189.393C121.097 189.015 121.325 188.637 121.4 188.334C121.476 188.183 121.552 187.804 121.628 187.35C121.78 186.669 121.856 185.761 122.008 184.626C122.235 183.188 122.311 181.447 122.235 179.631Z" fill="#FFBF99"/>
<path d="M111.307 184.701C111.383 185.836 111.535 186.744 111.687 187.425C111.383 186.971 110.624 185.761 110.776 185.307C110.928 184.853 111.307 184.701 111.307 184.701Z" fill="#FFBF99"/>
<path d="M119.807 190.831C119.504 191.285 119.124 191.588 118.821 191.739C118.365 191.966 117.455 192.572 116.924 192.572H116.696C116.165 192.572 115.254 192.042 114.799 191.739C114.495 191.588 114.116 191.209 113.736 190.831L113.812 190.755C114.419 190.68 114.116 189.923 114.343 189.545C114.495 189.242 115.026 189.166 115.254 189.015C115.482 188.863 115.709 188.863 115.937 188.712C116.165 188.561 116.468 188.561 116.696 188.561H116.924C117.227 188.561 117.455 188.561 117.682 188.712C117.91 188.788 118.138 188.863 118.365 189.015C118.669 189.166 119.2 189.242 119.276 189.545C119.428 189.999 119.2 190.755 119.807 190.831ZM118.821 190.453C119.124 189.847 118.745 189.847 118.29 189.696C117.91 189.545 117.227 189.242 116.848 189.242H116.772C116.392 189.242 115.709 189.545 115.33 189.696C114.875 189.847 114.495 189.923 114.799 190.453C115.026 190.755 115.482 191.285 115.861 191.285C116.316 191.209 116.544 190.604 116.772 190.301H116.848C117.075 190.604 117.303 191.209 117.758 191.285C118.138 191.285 118.593 190.755 118.821 190.453Z" fill="#915F41"/>
<path d="M116.772 183.49C116.924 183.49 117.227 183.49 117.303 183.49C117.531 183.49 117.531 183.263 117.683 183.036C117.91 182.734 118.366 182.809 118.669 182.809C119.048 182.734 119.504 182.734 119.883 182.734C120.187 182.734 121.022 182.658 121.097 182.734C121.097 182.734 121.477 182.885 121.553 183.036C121.629 183.112 121.629 183.188 121.629 183.263C121.705 183.566 121.553 183.869 121.553 184.096C121.477 184.474 121.401 184.853 121.173 185.08C121.097 185.155 121.022 185.155 120.87 185.155C120.718 185.155 120.263 185.155 120.111 185.231C119.656 185.231 119.276 185.307 118.821 185.231C118.366 185.231 117.758 185.231 117.607 184.55C117.531 184.399 117.531 183.717 117.455 183.642C117.303 183.49 116.848 183.49 116.62 183.49C116.772 183.566 116.772 183.566 116.772 183.49ZM118.138 185.08C118.29 185.155 118.669 185.231 118.669 185.231C118.745 185.231 120.187 185.231 120.718 185.155C120.794 185.155 121.022 185.08 121.097 185.004C121.249 184.853 121.401 183.642 121.325 183.49C121.249 183.415 121.022 183.263 120.946 183.188C120.642 182.885 118.138 183.036 117.986 183.188C117.834 183.339 117.834 183.49 117.834 183.642C117.986 183.566 118.062 183.717 118.062 183.869C118.062 183.945 118.138 184.399 117.91 184.172L117.834 184.096C117.758 184.172 117.758 184.399 117.758 184.474C117.91 184.928 118.062 185.08 118.138 185.08Z" fill="#6B4732"/>
<path d="M116.772 183.49C116.62 183.49 116.316 183.49 116.24 183.49C116.013 183.49 116.013 183.263 115.861 183.036C115.633 182.734 115.178 182.809 114.874 182.809C114.495 182.734 114.04 182.734 113.66 182.734C113.357 182.734 112.522 182.658 112.446 182.734C112.446 182.734 112.067 182.885 111.991 183.036C111.915 183.112 111.915 183.188 111.915 183.263C111.839 183.566 111.991 183.869 111.991 184.096C112.067 184.474 112.142 184.853 112.37 185.08C112.446 185.155 112.522 185.155 112.674 185.155C112.825 185.155 113.281 185.155 113.433 185.231C113.888 185.231 114.267 185.307 114.723 185.231C115.178 185.231 115.785 185.231 115.937 184.55C116.013 184.399 116.013 183.717 116.089 183.642C116.24 183.49 116.696 183.49 116.923 183.49C116.772 183.566 116.772 183.566 116.772 183.49ZM115.406 185.08C115.254 185.155 114.874 185.231 114.874 185.231C114.798 185.231 113.357 185.231 112.825 185.155C112.75 185.155 112.522 185.08 112.446 185.004C112.294 184.853 112.142 183.642 112.218 183.49C112.294 183.415 112.522 183.263 112.598 183.188C112.901 182.885 115.406 183.036 115.557 183.188C115.709 183.339 115.709 183.49 115.709 183.642C115.557 183.566 115.481 183.717 115.481 183.869C115.481 183.945 115.406 184.399 115.633 184.172L115.709 184.096C115.785 184.172 115.785 184.399 115.785 184.474C115.557 184.928 115.406 185.08 115.406 185.08Z" fill="#6B4732"/>
</g>
<path d="M209.018 30.1058H198.886C198.695 30.1058 198.567 30.2329 198.567 30.4236V34.5543C198.567 34.6178 198.567 34.6814 198.631 34.7449L199.842 35.9523C199.906 36.0159 199.969 36.0159 200.033 36.0159H207.744C207.808 36.0159 207.871 35.9523 207.935 35.9523L209.146 34.7449C209.21 34.6814 209.21 34.6178 209.21 34.5543V30.4236C209.273 30.2329 209.146 30.1058 209.018 30.1058ZM208.7 34.4272L207.68 35.444H200.161L199.141 34.4272V30.6778H208.7V34.4272Z" fill="#003EB0"/>
<path d="M209.592 31.3131L198.249 31.8851C198.057 31.8851 197.93 32.0122 197.994 32.2028C197.994 32.3299 198.121 32.457 198.312 32.457L209.655 31.8851C209.847 31.8851 209.974 31.758 209.91 31.5673C209.91 31.4402 209.719 31.3131 209.592 31.3131Z" fill="#003EB0"/>
<path d="M209.592 33.0925L198.249 33.6645C198.057 33.6645 197.93 33.7916 197.994 33.9822C197.994 34.1093 198.121 34.2364 198.312 34.2364L209.655 33.6645C209.847 33.6645 209.974 33.5374 209.91 33.3467C209.91 33.2196 209.719 33.0925 209.592 33.0925Z" fill="#003EB0"/>
<path d="M203.92 9.89709C198.312 9.89709 193.788 14.4091 193.788 20.0014C193.788 23.4966 195.572 26.674 198.567 28.5805V30.4234C198.567 30.6141 198.695 30.7412 198.886 30.7412H209.018C209.209 30.7412 209.337 30.6141 209.337 30.4234V28.5805C212.332 26.7376 214.116 23.5601 214.116 20.0014C214.052 14.4726 209.528 9.89709 203.92 9.89709ZM208.827 28.1357C208.763 28.1992 208.699 28.2628 208.699 28.3899V30.1057H199.141V28.3899C199.141 28.2628 199.077 28.1992 199.013 28.1357C196.145 26.4198 194.425 23.3695 194.425 20.0014C194.425 14.7904 198.695 10.469 203.984 10.469C209.273 10.469 213.543 14.7268 213.543 20.0014C213.479 23.3695 211.758 26.4198 208.827 28.1357Z" fill="#003EB0"/>
<path d="M206.724 35.5074C206.597 35.4438 206.406 35.5074 206.342 35.6345C206.342 35.698 205.768 36.6512 203.92 36.6512C202.072 36.6512 201.499 35.698 201.499 35.6345C201.435 35.5074 201.244 35.4438 201.116 35.5074C200.989 35.5709 200.925 35.7615 200.989 35.8886C200.989 35.9522 201.69 37.2232 203.92 37.2232C206.151 37.2232 206.852 35.9522 206.852 35.8886C206.979 35.7615 206.915 35.5709 206.724 35.5074Z" fill="#003EB0"/>
<path d="M191.112 19.6835H185.121C184.93 19.6835 184.803 19.8106 184.803 20.0012C184.803 20.1919 184.93 20.319 185.121 20.319H191.112C191.303 20.319 191.43 20.1919 191.43 20.0012C191.43 19.8106 191.303 19.6835 191.112 19.6835Z" fill="#DE051F"/>
<path d="M222.719 19.6835H216.729C216.538 19.6835 216.41 19.8106 216.41 20.0012C216.41 20.1919 216.538 20.319 216.729 20.319H222.719C222.91 20.319 223.038 20.1919 223.038 20.0012C223.038 19.8106 222.846 19.6835 222.719 19.6835Z" fill="#DE051F"/>
<path d="M193.086 26.2292C193.023 26.1021 192.831 26.0385 192.704 26.1021L187.542 29.0889C187.415 29.1524 187.351 29.3431 187.415 29.4702C187.478 29.5973 187.542 29.5973 187.67 29.5973C187.733 29.5973 187.797 29.5973 187.797 29.5337L192.959 26.5469C193.15 26.5469 193.214 26.4198 193.086 26.2292Z" fill="#DE051F"/>
<path d="M220.425 10.5324C220.361 10.4053 220.17 10.3418 220.043 10.4053L214.881 13.3921C214.754 13.4557 214.69 13.6463 214.754 13.7734C214.817 13.9005 214.881 13.9005 215.008 13.9005C215.072 13.9005 215.136 13.9005 215.136 13.837L220.298 10.8501C220.489 10.8501 220.553 10.6595 220.425 10.5324Z" fill="#DE051F"/>
<path d="M213.479 3.54226C213.352 3.47872 213.161 3.54226 213.097 3.66936L210.102 8.81684C210.038 8.94393 210.102 9.13458 210.229 9.19813C210.293 9.19813 210.357 9.26168 210.357 9.26168C210.484 9.26168 210.548 9.19813 210.611 9.13458L213.607 3.98711C213.67 3.79646 213.607 3.66936 213.479 3.54226Z" fill="#DE051F"/>
<path d="M203.92 1.00024C203.729 1.00024 203.602 1.12734 203.602 1.31799V7.22805C203.602 7.4187 203.729 7.5458 203.92 7.5458C204.111 7.5458 204.239 7.4187 204.239 7.22805V1.25444C204.239 1.12734 204.111 1.00024 203.92 1.00024Z" fill="#DE051F"/>
<path d="M197.803 8.81683L194.808 3.66936C194.744 3.54226 194.553 3.47872 194.425 3.54226C194.298 3.60581 194.234 3.79646 194.298 3.92356L197.293 9.07103C197.357 9.19813 197.421 9.19813 197.548 9.19813C197.612 9.19813 197.675 9.19813 197.675 9.13458C197.803 9.13458 197.867 8.94393 197.803 8.81683Z" fill="#DE051F"/>
<path d="M220.361 29.0891L215.199 26.1023C215.072 26.0388 214.881 26.0388 214.817 26.2294C214.753 26.4201 214.817 26.5472 214.944 26.6107L220.106 29.5975C220.17 29.5975 220.234 29.6611 220.234 29.6611C220.361 29.6611 220.425 29.5975 220.489 29.534C220.552 29.3433 220.489 29.2162 220.361 29.0891Z" fill="#DE051F"/>
<path d="M193.023 13.3921L187.861 10.4053C187.734 10.3418 187.542 10.4053 187.479 10.5324C187.415 10.6595 187.479 10.8501 187.606 10.9137L192.768 13.9005C192.832 13.9005 192.832 13.964 192.895 13.964C193.023 13.964 193.087 13.9005 193.15 13.837C193.214 13.6463 193.15 13.4557 193.023 13.3921Z" fill="#DE051F"/>
<path d="M204.812 30.1058V20.5099C204.812 20.5099 204.685 15.9979 207.17 15.9979C209.656 15.9979 208.508 20.7006 203.729 20.7006" stroke="#003EB0" stroke-width="0.954459" stroke-miterlimit="10"/>
<path d="M202.582 30.1059V20.51C202.582 20.51 202.709 15.998 200.224 15.998C197.739 15.998 198.886 20.7007 203.665 20.7007" stroke="#003EB0" stroke-width="0.954459" stroke-miterlimit="10"/>
</svg>
