<svg width="260" height="46" viewBox="0 0 260 46" fill="none" xmlns="http://www.w3.org/2000/svg">
<g clip-path="url(#clip0_4552_16314)">
<path d="M0 17.2827C0.290074 17.2453 0.580148 17.1704 0.860865 17.1704C6.13834 17.1611 11.4158 17.1611 16.6933 17.1611C17.8723 17.1611 18.2279 16.9084 18.5928 15.7856C20.2397 10.7327 21.8772 5.67976 23.5334 0.636212C23.6083 0.411638 23.7954 0.215136 23.9264 0.00927734C24.0574 0.224494 24.2259 0.430353 24.3007 0.664283C25.957 5.71719 27.5945 10.7701 29.232 15.8136C29.5876 16.8991 29.9619 17.1704 31.1034 17.1704C36.3903 17.1704 41.6865 17.1704 46.9733 17.1798C47.2353 17.1798 47.5067 17.2734 47.7687 17.3202C47.5909 17.5354 47.4412 17.788 47.2166 17.9471C42.931 21.0724 38.636 24.1884 34.3504 27.3043C33.4615 27.95 33.3211 28.3991 33.6673 29.4658C35.3048 34.5187 36.9517 39.5716 38.5799 44.6245C38.6547 44.8585 38.636 45.1205 38.6641 45.3731C38.4208 45.2796 38.1401 45.2234 37.9342 45.0737C33.6112 41.9484 29.2975 38.8137 24.9744 35.6697C24.1417 35.0708 23.6551 35.0708 22.8223 35.679C18.518 38.8043 14.2136 41.9297 9.89995 45.0456C9.68473 45.2047 9.3853 45.2608 9.13266 45.3638C9.17009 45.1018 9.16073 44.821 9.24494 44.5684C10.8731 39.5249 12.5106 34.4907 14.1481 29.4565C14.4943 28.3991 14.3446 27.95 13.4463 27.295C9.17009 24.179 4.89383 21.0724 0.617577 17.9658C0.402361 17.8067 0.205859 17.6383 0 17.4699C0 17.4044 0 17.3482 0 17.2827Z" fill="#FABD41"/>
<path d="M106.111 17.2832C106.401 17.2458 106.691 17.1709 106.972 17.1709C112.249 17.1616 117.527 17.1616 122.804 17.1616C123.983 17.1616 124.339 16.9089 124.704 15.7861C126.351 10.7331 127.988 5.68025 129.644 0.6367C129.719 0.412127 129.906 0.215625 130.037 0.00976562C130.168 0.224982 130.337 0.430841 130.412 0.664772C132.068 5.71768 133.705 10.7706 135.343 15.8141C135.698 16.8996 136.073 17.1709 137.214 17.1709C142.501 17.1709 147.797 17.1709 153.084 17.1803C153.346 17.1803 153.618 17.2739 153.88 17.3206C153.702 17.5359 153.552 17.7885 153.327 17.9476C149.042 21.0729 144.747 24.1888 140.461 27.3048C139.572 27.9505 139.432 28.3996 139.778 29.4663C141.416 34.5192 143.063 39.5721 144.691 44.625C144.766 44.859 144.747 45.121 144.775 45.3736C144.532 45.28 144.251 45.2239 144.045 45.0742C139.722 41.9489 135.408 38.8142 131.085 35.6702C130.253 35.0713 129.766 35.0713 128.933 35.6795C124.629 38.8048 120.325 41.9302 116.011 45.0461C115.796 45.2052 115.496 45.2613 115.244 45.3643C115.281 45.1023 115.272 44.8215 115.356 44.5689C116.984 39.5253 118.622 34.4912 120.259 29.457C120.605 28.3996 120.456 27.9505 119.557 27.2954C115.281 24.1888 110.995 21.0822 106.719 17.9663C106.504 17.8072 106.307 17.6388 106.102 17.4704C106.111 17.4049 106.111 17.3487 106.111 17.2832Z" fill="#FABD41"/>
<path d="M53.0543 17.2832C53.3444 17.2458 53.6344 17.1709 53.9151 17.1709C59.1926 17.1616 64.4701 17.1616 69.7476 17.1616C70.9266 17.1616 71.2822 16.9089 71.6471 15.7861C73.294 10.7331 74.9315 5.68025 76.5877 0.6367C76.6626 0.412127 76.8497 0.215625 76.9807 0.00976562C77.1117 0.224982 77.2801 0.430841 77.355 0.664772C79.0112 5.71768 80.6488 10.7706 82.2863 15.8141C82.6418 16.8996 83.0161 17.1709 84.1577 17.1709C89.4445 17.1709 94.7407 17.1709 100.028 17.1803C100.29 17.1803 100.561 17.2739 100.823 17.3206C100.645 17.5359 100.495 17.7885 100.271 17.9476C95.9852 21.0729 91.6903 24.1888 87.4047 27.3048C86.5157 27.9505 86.3754 28.3996 86.7216 29.4663C88.3591 34.5192 90.006 39.5721 91.6341 44.625C91.709 44.859 91.6903 45.121 91.7184 45.3736C91.4751 45.28 91.1944 45.2239 90.9885 45.0742C86.6655 41.9489 82.3518 38.8142 78.0287 35.6702C77.1959 35.0713 76.7094 35.0713 75.8766 35.6795C71.5722 38.8048 67.2679 41.9302 62.9542 45.0461C62.739 45.2052 62.4396 45.2613 62.1869 45.3643C62.2244 45.1023 62.215 44.8215 62.2992 44.5689C63.9274 39.5253 65.5649 34.4912 67.2024 29.457C67.5486 28.3996 67.3989 27.9505 66.5006 27.2954C62.2244 24.1888 57.9388 21.0822 53.6625 17.9663C53.4473 17.8072 53.2508 17.6388 53.0449 17.4704C53.0543 17.4049 53.0543 17.3487 53.0543 17.2832Z" fill="#FABD41"/>
<path d="M212.222 17.2827C212.512 17.2453 212.802 17.1704 213.083 17.1704C218.36 17.1611 223.638 17.1611 228.906 17.1611C230.085 17.1611 230.44 16.9084 230.805 15.7856C232.452 10.7327 234.09 5.67976 235.746 0.636212C235.821 0.411638 236.008 0.215136 236.139 0.00927734C236.27 0.224494 236.438 0.430353 236.513 0.664283C238.169 5.71719 239.807 10.7701 241.444 15.8136C241.8 16.8991 242.174 17.1704 243.316 17.1704C248.603 17.1704 253.899 17.1704 259.186 17.1798C259.448 17.1798 259.719 17.2734 259.981 17.3202C259.803 17.5354 259.654 17.788 259.429 17.9471C255.143 21.0724 250.848 24.1884 246.563 27.3043C245.674 27.95 245.534 28.3991 245.88 29.4658C247.517 34.5187 249.164 39.5716 250.792 44.6245C250.867 44.8585 250.848 45.1205 250.877 45.3731C250.633 45.2796 250.353 45.2234 250.147 45.0737C245.824 41.9484 241.51 38.8137 237.187 35.6697C236.354 35.0708 235.868 35.0708 235.035 35.679C230.73 38.8043 226.426 41.9297 222.112 45.0456C221.897 45.2047 221.598 45.2608 221.345 45.3638C221.383 45.1018 221.373 44.821 221.457 44.5684C223.086 39.5249 224.723 34.4907 226.361 29.4565C226.707 28.3991 226.557 27.95 225.659 27.295C221.383 24.1884 217.097 21.0818 212.821 17.9658C212.605 17.8067 212.409 17.6383 212.203 17.4699C212.222 17.4044 212.222 17.3482 212.222 17.2827Z" fill="#FABD41"/>
<path d="M159.168 17.2827C159.458 17.2453 159.748 17.1704 160.028 17.1704C165.306 17.1611 170.583 17.1611 175.861 17.1611C177.04 17.1611 177.395 16.9084 177.76 15.7856C179.407 10.7327 181.045 5.67976 182.701 0.636212C182.776 0.411638 182.963 0.215136 183.094 0.00927734C183.225 0.224494 183.393 0.430353 183.468 0.664283C185.125 5.71719 186.762 10.7701 188.4 15.8136C188.755 16.8991 189.129 17.1704 190.271 17.1704C195.558 17.1704 200.854 17.1704 206.141 17.1798C206.403 17.1798 206.674 17.2734 206.936 17.3202C206.758 17.5354 206.609 17.788 206.384 17.9471C202.099 21.0724 197.804 24.1884 193.518 27.3043C192.629 27.95 192.489 28.3991 192.835 29.4658C194.472 34.5187 196.119 39.5716 197.747 44.6245C197.822 44.8585 197.804 45.1205 197.832 45.3731C197.588 45.2796 197.308 45.2234 197.102 45.0737C192.779 41.9484 188.465 38.8137 184.142 35.6697C183.309 35.0708 182.823 35.0708 181.99 35.679C177.686 38.8043 173.381 41.9297 169.068 45.0456C168.852 45.2047 168.553 45.2608 168.3 45.3638C168.338 45.1018 168.328 44.821 168.413 44.5684C170.041 39.5249 171.678 34.4907 173.316 29.4565C173.662 28.3991 173.512 27.95 172.614 27.295C168.338 24.1884 164.052 21.0818 159.776 17.9658C159.561 17.8067 159.364 17.6383 159.158 17.4699C159.168 17.4044 159.168 17.3482 159.168 17.2827Z" fill="#FABD41"/>
</g>
<defs>
<clipPath id="clip0_4552_16314">
<rect width="260" height="45.3638" fill="white"/>
</clipPath>
</defs>
</svg>
