<svg width="214" height="38" viewBox="0 0 214 38" fill="none" xmlns="http://www.w3.org/2000/svg">
<path d="M206.136 22.4719C208.605 20.0866 211.032 17.5757 213.46 15.1485C213.5 15 213.78 15 213.46 14.5C212.5 13 211.367 12.0518 209.526 11.9263C207.392 11.8007 205.257 11.2985 203.123 11.0893C201.282 10.9219 200.152 10.1268 199.441 8.36918C198.562 6.19309 197.474 4.1007 196.26 2.092C195.716 1.21319 194.586 0.166992 193.707 0.166992C192.829 0.166992 191.657 1.17134 191.113 2.05015C189.732 4.35178 188.728 6.86266 187.388 9.20614C187.012 9.91756 186.091 10.5871 185.296 10.7545C182.576 11.2985 179.814 11.5078 177.094 12.0936C176.131 12.3029 174.792 12.9725 174.541 13.7257C174.248 14.5627 174.708 16.0274 175.378 16.7806C177.178 18.8312 179.354 20.5888 181.237 22.6393C181.823 23.267 182.241 24.4388 182.157 25.3176C181.864 27.9959 181.153 30.5904 180.86 33.2687C180.776 34.273 181.028 35.7796 181.697 36.3236C182.367 36.8258 183.957 36.7421 184.878 36.3236C187.347 35.2355 189.648 33.7709 192.117 32.6828C192.954 32.3062 194.293 32.3062 195.13 32.6828C197.683 33.8127 200.026 35.2774 202.579 36.4073C203.458 36.7839 204.923 36.8676 205.592 36.3654C206.262 35.8214 206.638 34.4404 206.555 33.4779C206.262 30.8415 205.76 28.2051 205.174 25.5687C204.881 24.2714 205.174 23.3926 206.136 22.4719Z" fill="#FCBE42"/>
<path d="M93.6496 33.4364C94.0681 30.9255 94.6121 28.0798 94.9469 25.1923C95.0306 24.3972 94.6958 23.3092 94.1518 22.7233C92.2687 20.6728 90.1344 18.9152 88.2931 16.8646C87.6235 16.1113 86.9958 14.6467 87.2888 13.8516C87.5817 13.0146 88.9627 12.3032 90.0089 12.0939C92.729 11.5081 95.491 11.2988 98.2111 10.7548C98.9643 10.6293 99.8431 9.95969 100.178 9.33198C101.517 6.9048 102.563 4.35207 103.986 1.96674C104.488 1.12978 105.618 0.125433 106.455 0.167281C107.376 0.209129 108.548 1.12978 109.092 2.00859C110.431 4.22653 111.519 6.65371 112.649 9.03904C113.151 10.1271 113.737 10.7967 115.076 10.9222C117.754 11.1733 120.474 11.5499 123.111 12.1358C124.157 12.345 125.538 13.0983 125.831 13.8934C126.124 14.6885 125.496 16.1532 124.826 16.9064C122.985 18.957 120.809 20.7565 118.926 22.7652C118.382 23.351 118.047 24.4391 118.131 25.2342C118.465 28.1217 119.093 30.9255 119.386 33.813C119.679 36.7005 117.963 37.7886 115.369 36.4913C112.9 35.2358 110.473 33.813 107.962 32.6831C107.167 32.3065 105.911 32.3065 105.116 32.6831C102.605 33.813 100.22 35.2777 97.7089 36.4913C95.0306 37.7049 93.4404 36.6587 93.6496 33.4364Z" fill="#FCBE42"/>
<path d="M6.39644 33.9381C6.85677 31.218 7.27525 28.4142 7.86112 25.6522C8.15406 24.2713 7.86112 23.3088 6.81492 22.3881C4.80622 20.5886 2.83937 18.7473 1.03991 16.7386C0.370343 16.0272 -0.215528 14.6462 0.0774078 13.9348C0.454039 13.0979 1.70948 12.3027 2.71383 12.0517C5.39209 11.4658 8.1959 11.2984 10.916 10.7125C11.753 10.5451 12.7155 9.79187 13.134 9.03861C14.4312 6.77882 15.4356 4.30979 16.7747 2.05C17.3188 1.1712 18.4486 0.125 19.3275 0.125C20.2063 0.125 21.4198 1.12935 21.922 2.00816C23.303 4.30979 24.3074 6.82067 25.6465 9.16415C26.065 9.87557 26.9438 10.5451 27.7389 10.7125C30.459 11.2565 33.221 11.4658 35.9411 12.0517C36.9454 12.2609 38.3264 13.0142 38.5775 13.8511C38.8704 14.6881 38.2427 16.1109 37.5731 16.8642C35.7737 18.8729 33.6394 20.5886 31.8818 22.5973C31.2541 23.3088 30.8356 24.5642 30.9193 25.4848C31.2123 28.205 31.9237 30.8832 32.2585 33.6033C32.384 34.4821 32.0074 35.8213 31.3797 36.3235C30.7519 36.8256 29.371 36.8675 28.5758 36.5327C25.9813 35.4028 23.4704 34.0218 21.0014 32.6408C19.8296 32.0131 18.909 31.9713 17.7372 32.6408C15.2682 34.0218 12.7573 35.361 10.1628 36.5745C7.98666 37.6207 6.22905 36.3653 6.39644 33.9381Z" fill="#FCBE42"/>
<path d="M52.7213 36.9933C50.7963 36.9933 49.6245 35.5286 49.9175 33.8547C50.3778 31.2183 50.8381 28.5819 51.3403 25.9455C51.6332 24.4808 51.424 23.3509 50.2104 22.2629C48.3273 20.6308 46.6115 18.7895 44.812 17.0737C43.7658 16.1112 42.9289 14.8976 43.6821 13.6422C44.1843 12.8052 45.4816 12.2193 46.5278 12.0101C49.0805 11.4661 51.7169 11.0895 54.3534 10.8384C55.6925 10.7128 56.2784 10.0433 56.7805 8.99706C57.8686 6.69542 58.9148 4.35194 60.2539 2.17585C60.8398 1.25519 62.0115 0.208993 62.974 0.167145C63.811 0.125297 64.9827 1.25519 65.4849 2.134C66.8659 4.43563 67.8702 6.94651 69.2094 9.28999C69.586 9.95956 70.4648 10.5873 71.1762 10.7128C73.8963 11.2568 76.7001 11.4242 79.3784 12.052C80.4665 12.303 81.7219 13.0982 82.2241 13.977C82.5589 14.6047 81.8474 16.0694 81.1779 16.7808C79.2947 18.8313 77.1605 20.5889 75.2773 22.6395C74.6914 23.2672 74.3567 24.4389 74.4404 25.3177C74.7333 27.9123 75.4447 30.465 75.6958 33.0596C75.8213 34.1477 75.5284 35.7797 74.7751 36.3238C74.0637 36.8678 72.4317 36.6167 71.3855 36.1982C69.2094 35.3194 67.117 34.1895 65.1083 32.9341C63.4762 31.9297 62.0952 32.0134 60.505 32.9759C58.4126 34.2314 56.2365 35.2776 54.0604 36.3656C53.6001 36.7004 53.0142 36.8678 52.7213 36.9933Z" fill="#FCBE42"/>
<path d="M169.521 15.1071C169.311 15.4419 168.935 16.237 168.307 16.8647C166.466 18.7479 164.624 20.631 162.616 22.3468C161.528 23.3093 161.318 24.3555 161.528 25.6528C162.03 28.2892 162.616 30.9256 162.867 33.6039C162.951 34.5245 162.574 35.8637 161.862 36.4077C161.277 36.868 159.854 36.8262 159.017 36.4495C156.464 35.3196 154.037 33.9805 151.61 32.6414C150.438 31.9718 149.517 31.9718 148.346 32.6414C146.128 33.8968 143.868 35.1523 141.524 36.1566C140.52 36.5751 138.846 36.868 138.135 36.3658C137.381 35.8218 137.089 34.1898 137.172 33.1017C137.381 30.5908 137.842 28.0381 138.469 25.5691C138.846 24.1044 138.428 23.2674 137.381 22.3049C135.456 20.5473 133.49 18.7479 131.732 16.781C131.062 16.0696 130.351 14.6049 130.644 13.9772C131.104 13.0565 132.36 12.2196 133.448 11.9685C136.084 11.3826 138.762 11.006 141.483 10.7549C142.822 10.6294 143.408 9.9598 143.91 8.87176C145.04 6.48643 146.128 4.1011 147.467 1.84131C147.969 1.00435 149.099 0 149.894 0C150.815 0.0418479 152.028 0.962502 152.572 1.79946C153.995 4.18479 155.041 6.73751 156.38 9.16469C156.757 9.83426 157.636 10.4201 158.347 10.5875C161.067 11.1315 163.829 11.4663 166.591 11.843C168.6 12.2614 169.521 13.0565 169.521 15.1071Z" fill="#FCBE42"/>
</svg>
