<svg width="596" height="447" viewBox="0 0 596 447" fill="none" xmlns="http://www.w3.org/2000/svg">
<g clip-path="url(#clip0_565_9961)">
<path d="M305.301 103.78C305.301 103.78 351.532 116.388 390.057 91.1723C428.583 65.9569 430.786 49.7114 487.952 53.3597C547.508 57.1534 606.809 106.545 601.884 160.374C597.341 209.952 526.997 234.232 560.167 270.673C560.167 270.673 614.925 299.765 605.095 336.705C588.638 398.569 504.704 429.386 448.007 439.801C391.31 450.215 146.176 444.125 96.4305 406.312C46.685 368.499 10.2741 301.626 22.0423 242.994C33.8105 184.363 86.3756 178.324 110.441 188.188C134.506 198.052 175.352 167.91 178.671 134.483C181.99 101.057 195.363 73.0975 222.649 67.0691C249.936 61.0407 275.068 99.6744 305.301 103.78Z" fill="#ECF2F5"/>
<path d="M549.244 336.658C549.857 337.188 551.862 336.99 553.846 335.598C556.038 334.071 557.295 334.902 557.326 336.19C557.368 337.551 555.778 342.101 557.596 343.005C559.165 343.784 567.444 342.475 568.338 341.541C569.408 340.408 566.364 337.541 564.899 336.035C563.86 334.954 560.848 323.184 558.344 322.031C555.841 320.878 543.936 322.862 543.936 322.862C543.936 322.862 544.455 327.246 545.4 330.061C545.39 330.072 547.301 334.985 549.244 336.658Z" fill="#FFBD99"/>
<path d="M565.221 320.774C565.221 320.774 562.302 307.415 551.861 310.749C551.861 310.749 547.062 312.422 545.182 316.182C545.182 316.182 538.294 317.232 539.749 322.654C541.213 328.088 544.34 324.742 544.34 324.742C544.34 324.742 545.701 321.927 547.156 323.911C548.62 325.896 552.059 327.153 553.212 325.272C554.365 323.392 556.453 322.135 557.076 324.961C557.7 327.776 570.488 344.792 576.222 347.296C581.967 349.799 583.702 346.569 581.925 339.785C580.149 333.001 565.429 321.719 565.429 321.719L565.221 320.774Z" fill="#170D54"/>
<path d="M451.041 385.058C480.135 385.058 503.72 381.704 503.72 377.568C503.72 373.431 480.135 370.078 451.041 370.078C421.947 370.078 398.361 373.431 398.361 377.568C398.361 381.704 421.947 385.058 451.041 385.058Z" fill="#E9E8EE"/>
<path d="M324.937 341.135C347.083 341.135 365.036 338.586 365.036 335.442C365.036 332.298 347.083 329.75 324.937 329.75C302.791 329.75 284.838 332.298 284.838 335.442C284.838 338.586 302.791 341.135 324.937 341.135Z" fill="#E9E8EE"/>
<path d="M470.312 333.115C470.312 333.115 485.458 334.009 478.861 334.892C472.265 335.785 463.185 335.785 459.975 335.421C456.776 335.068 467.818 333.292 470.312 333.115Z" fill="#0064B7"/>
<path d="M471.361 335.12L471.579 377.39C471.579 377.39 478.134 377.557 479.297 379.094C480.461 380.632 479.11 381.598 472.368 381.432C465.626 381.265 461.575 381.286 461.575 381.286C461.575 381.286 458.292 380.912 462.146 378.97C466 377.027 469.086 377.588 469.086 377.588L469.304 335.172L471.361 335.12Z" fill="#0064B7"/>
<path d="M467.268 269.154C467.268 269.154 469.106 264.033 464.588 262.672C464.588 262.672 463.279 254.953 457.129 258.444C456.661 258.703 456.131 258.745 455.654 258.506C454.023 257.696 450.407 253.779 447.904 259.784C447.706 260.251 447.229 260.438 446.792 260.459C444.943 260.532 440.486 261.259 444.143 266.775C444.143 266.775 445.836 268.822 448.662 268.988C448.662 268.988 461.783 278.026 465.595 276.499C469.387 274.951 469.242 270.858 467.268 269.154Z" fill="#2C2477"/>
<path d="M454.749 266.546C454.562 266.484 447.581 264.24 448.682 270.463V270.473C448.672 270.639 448.474 276.218 452.941 279.428C453.004 279.469 453.066 279.521 453.118 279.584C453.399 279.885 454.614 280.955 456.577 279.168C458.395 277.516 458.998 278.659 459.195 279.137C459.247 279.262 459.32 279.397 459.382 279.511C459.663 280.02 460.525 281.235 459.954 282.067C459.351 282.939 458.593 284.02 458.395 284.31C458.375 284.342 458.395 284.383 458.427 284.383C459.445 284.321 469.656 283.656 469.407 281.391C469.407 281.391 468.794 278.888 468.794 278.877L468.607 278.836C468.576 278.825 468.545 278.815 468.514 278.794L465.324 276.446C465.314 276.446 465.314 276.436 465.304 276.436C465.096 276.457 462.031 276.727 460.94 275.408C460.94 275.408 459.58 273.849 458.946 271.834C458.759 271.231 458.852 270.556 459.206 270.078C459.735 269.372 460.296 268.084 458.967 267.17C458.967 267.17 457.928 266.401 456.983 267.554L456.858 267.71C456.764 267.824 456.629 267.845 456.515 267.762L454.749 266.546C454.759 266.546 454.759 266.546 454.749 266.546Z" fill="#FFBF9C"/>
<path d="M468.814 278.878C468.814 278.878 464.16 283.2 458.872 283.688C458.872 283.688 455.984 286.898 455.559 293.9C455.133 300.901 454.852 316.588 455.278 317.606C455.704 318.624 480.532 318.458 480.532 318.458C480.532 318.458 478.694 293.037 475.733 287.75C475.733 287.75 471.359 280.073 468.814 278.878Z" fill="#DE051F"/>
<path d="M471.048 297.816C471.048 297.816 470.622 307.197 469.781 310.614C468.939 314.022 468.513 315.559 464.981 316.068C461.449 316.577 452.141 317.263 450.313 316.92C448.474 316.577 442.553 318.094 442.553 318.094C442.553 318.094 440.714 318.603 440.579 317.408C440.444 316.214 438.46 317.242 438.325 317.751C438.179 318.26 437.192 318.946 436.912 317.585C436.631 316.224 436.766 314.51 439.166 314.001C441.566 313.492 443.82 314.001 446.365 314.198C448.63 314.375 450.147 313.668 450.593 313.668L462.021 311.113C462.021 311.113 463.433 310.604 463.714 308.557C463.994 306.511 463.994 297.639 463.994 297.639L471.048 297.816Z" fill="#FFBF9C"/>
<path d="M472.181 298.833H463.174C463.07 292.185 463.704 285.869 467.247 285.858C467.247 285.869 472.181 284.747 472.181 298.833Z" fill="#EE384E"/>
<path d="M429.879 330.903C429.879 330.903 427.261 346.589 426.908 350.537C426.544 354.443 424.664 367.065 424.664 367.065L430.45 366.899L435.385 345.405L429.879 330.903Z" fill="#0064E1"/>
<path d="M480.407 316.806C480.511 317.512 481.135 328.067 480.106 330.737C479.171 333.178 476.719 333.978 472.346 334.32C468.648 334.611 449.481 333.624 443.664 333.292C442.874 333.25 442.303 334.175 442.552 335.068L451.174 365.704L446.094 368.436C446.094 368.436 434.387 346.942 432.548 341.821C430.709 336.699 428.174 327.838 428.32 325.781C428.32 325.781 427.894 321.854 432.268 321.345C436.558 320.847 450.229 318.208 450.738 318.104C450.748 318.104 450.759 318.104 450.769 318.104L455.257 317.595C455.267 317.595 455.278 317.595 455.288 317.595L480.407 316.806Z" fill="#003EB0"/>
<path d="M450.385 316.992C450.769 316.909 452.047 316.982 452.037 317.938C452.026 318.81 450.478 318.925 450.198 318.966C449.98 318.997 432.486 321.522 431.353 321.688C431.322 321.698 431.281 321.698 431.25 321.709C430.959 321.771 429.359 322.031 428.33 320.338C427.26 318.561 418.742 305.638 417.828 304.256C417.786 304.194 417.745 304.132 417.693 304.069C417.516 303.851 417.017 303.114 417.61 302.262C418.316 301.233 419.448 302.947 419.448 302.947L429.722 319.247C429.961 319.621 430.283 319.901 430.657 320.015H430.668C430.824 320.057 430.979 320.067 431.135 320.036" fill="#0064B7"/>
<path d="M424.706 366.868C424.695 366.868 424.675 366.868 424.664 366.878C424.353 367.169 419.636 371.532 417.185 372.519C416.946 372.612 416.717 372.716 416.489 372.82C416.302 372.903 416.125 372.997 415.948 373.101C415.813 373.184 415.678 373.267 415.543 373.36C415.45 373.433 415.356 373.506 415.263 373.589C415.2 373.651 415.138 373.714 415.076 373.786C415.034 373.838 415.003 373.89 414.972 373.953C414.951 373.994 414.93 374.036 414.92 374.077C414.91 374.129 414.91 374.171 414.92 374.223C414.92 374.275 414.92 374.316 414.92 374.368C414.92 374.42 414.92 374.472 414.92 374.524C414.92 374.545 414.941 374.565 414.961 374.565L430.534 372.54C430.575 372.529 430.617 372.519 430.648 372.498C430.814 372.384 431.261 371.968 431.147 371.002C431.022 369.911 430.534 367.377 430.451 366.961C430.44 366.93 430.419 366.909 430.388 366.899L424.706 366.868Z" fill="#2B2377"/>
<path d="M446.106 368.436C446.106 368.436 443.425 375.261 441.587 376.799C440.184 377.973 440.6 378.949 440.87 379.344C440.953 379.469 441.088 379.531 441.223 379.51C441.555 379.469 442.283 379.292 442.999 378.679C443.986 377.827 453.72 370.659 453.72 370.659C453.72 370.659 454.146 369.631 453.44 368.613C452.733 367.584 451.185 365.714 451.185 365.714L446.106 368.436Z" fill="#2B2377"/>
<path d="M216.439 445.964C267.662 445.964 309.187 404.44 309.187 353.217C309.187 301.994 267.662 260.469 216.439 260.469C165.216 260.469 123.691 301.994 123.691 353.217C123.691 404.44 165.216 445.964 216.439 445.964Z" stroke="#003EB0" stroke-miterlimit="10" stroke-dasharray="6 6"/>
<path d="M364.713 452.686C392.298 452.686 414.66 450.09 414.66 446.889C414.66 443.688 392.298 441.092 364.713 441.092C337.128 441.092 314.766 443.688 314.766 446.889C314.766 450.09 337.128 452.686 364.713 452.686Z" fill="#E9E8EE"/>
<path d="M524.007 451.709C552.631 451.709 575.835 449.421 575.835 446.598C575.835 443.775 552.631 441.487 524.007 441.487C495.384 441.487 472.18 443.775 472.18 446.598C472.18 449.421 495.384 451.709 524.007 451.709Z" fill="#ECF2F5"/>
<path d="M169.724 439.441C206.788 439.441 236.833 435.952 236.833 431.649C236.833 427.346 206.788 423.858 169.724 423.858C132.661 423.858 102.615 427.346 102.615 431.649C102.615 435.952 132.661 439.441 169.724 439.441Z" fill="#ECF2F5"/>
<path d="M103.84 346.943C103.84 346.943 98.9572 341.343 103.227 337.032C107.496 332.721 116.358 334.778 117.584 339.972C118.799 345.166 115.745 347.898 119.516 349.477C123.276 351.056 133.104 357.04 130.341 362.079C127.588 367.117 121.365 365.953 122.954 373.558C124.544 381.162 137.103 385.317 128.938 393.493C120.773 401.669 103.414 411.756 98.2092 393.275C93.0046 374.794 109.429 381.827 101.907 369.091C94.3863 356.355 102.032 357.726 104.92 353.851C107.787 349.987 103.84 346.943 103.84 346.943Z" fill="#023EA1"/>
<path d="M113.137 355.451C113.137 355.451 111.267 375.043 115.329 392.516C119.391 409.99 122.871 413.158 122.871 413.158" stroke="white" stroke-miterlimit="10" stroke-linecap="round" stroke-linejoin="round"/>
<path d="M62.1816 352.521C62.1816 352.521 74.9697 343.483 77.6187 351.773C80.2782 360.073 83.9037 359.824 87.6435 359.377C91.3834 358.931 97.7203 355.347 100.047 364.249C102.385 373.152 100.141 378.617 104.047 381.525C107.953 384.444 119.806 401.429 112.056 404.266C104.307 407.091 95.0297 399.767 91.9443 395.643C88.859 391.519 82.0234 391.207 76.7877 392.277C71.5519 393.347 64.654 390.563 66.8148 383.748C68.986 376.934 65.5682 369.87 60.7688 368.28C55.9901 366.691 53.6216 358.785 62.1816 352.521Z" fill="#FCBE42"/>
<path d="M69.1836 360.707L114.612 411.091" stroke="white" stroke-miterlimit="10" stroke-linecap="round" stroke-linejoin="round"/>
<path d="M125.229 397.971C125.229 397.971 99.6426 372.041 90.0957 348.646" stroke="#DE051F" stroke-miterlimit="10"/>
<path d="M86.4294 333.188C86.4294 333.188 95.2803 340.055 91.1457 351.057C91.1457 351.057 82.513 346.371 86.4294 333.188Z" stroke="#DE051F" stroke-miterlimit="10"/>
<path d="M101.635 369.236C101.635 369.236 97.3138 359.845 106.58 351.586C106.58 351.586 112.938 358.702 101.635 369.236Z" stroke="#DE051F" stroke-miterlimit="10"/>
<path d="M116.596 388.403C116.596 388.403 110.519 380.04 117.999 370.129C117.999 370.119 125.624 375.853 116.596 388.403Z" stroke="#DE051F" stroke-miterlimit="10"/>
<path d="M116.348 388.756C116.348 388.756 109.751 380.788 98.293 385.577C98.3034 385.577 101.96 394.386 116.348 388.756Z" stroke="#DE051F" stroke-miterlimit="10"/>
<path d="M101.678 369.091C101.678 369.091 96.1516 360.354 84.1738 363.637C84.1738 363.637 86.6878 372.841 101.678 369.091Z" stroke="#DE051F" stroke-miterlimit="10"/>
<path d="M374.28 324.991C433.845 324.991 482.132 276.704 482.132 217.139C482.132 157.574 433.845 109.287 374.28 109.287C314.715 109.287 266.428 157.574 266.428 217.139C266.428 276.704 314.715 324.991 374.28 324.991Z" stroke="#003EB0" stroke-miterlimit="10" stroke-dasharray="6 6"/>
<path d="M155.298 296.466C156.362 290.863 152.66 285.455 147.03 284.385C141.399 283.316 135.971 286.99 134.907 292.593C133.843 298.196 137.545 303.604 143.176 304.674C148.807 305.743 154.234 302.069 155.298 296.466Z" fill="#F79F03"/>
<path d="M141.809 290.709L144.53 297.618L149.6 292.185" stroke="#EEF9FF" stroke-miterlimit="10"/>
<path d="M505.601 128.112L512.939 135.45L520.278 128.112L512.939 120.774L505.601 128.112Z" fill="#0064E1"/>
<path d="M68.9293 301.159L76.2676 308.497L83.6059 301.159L76.2676 293.82L68.9293 301.159Z" fill="#DE051F"/>
<path d="M394.314 213.566L401.652 220.904L408.991 213.566L401.652 206.227L394.314 213.566Z" fill="#DE051F"/>
<path d="M147.284 238.612L124.929 229.512L121.158 238.55C120.14 237.085 118.446 236.129 116.535 236.129C113.429 236.129 110.904 238.653 110.904 241.76C110.904 244.866 113.429 247.39 116.535 247.39C116.867 247.39 117.189 247.359 117.511 247.297L113.751 256.314L123.173 260.199C123.152 259.981 123.131 259.763 123.131 259.534C123.131 256.428 125.656 253.904 128.762 253.904C131.868 253.904 134.392 256.428 134.392 259.534C134.392 261.321 133.551 262.91 132.252 263.939L141.228 267.637C141.228 267.637 147.129 253.353 149.767 246.362C152.416 239.391 147.284 238.612 147.284 238.612Z" stroke="#EE384E" stroke-miterlimit="10"/>
<path d="M94.354 226.489L117.541 219.809L114.913 210.366C116.616 210.885 118.538 210.595 120.045 209.41C122.486 207.488 122.912 203.946 120.99 201.505C119.068 199.063 115.526 198.638 113.084 200.559C112.825 200.767 112.586 200.996 112.378 201.235L109.76 191.823L99.9534 194.596C100.109 194.752 100.255 194.919 100.4 195.095C102.322 197.536 101.906 201.079 99.4547 203.001C97.0135 204.923 93.471 204.507 91.5492 202.055C90.448 200.653 90.1156 198.887 90.4999 197.266L81.1504 199.915C81.1504 199.915 85.3473 214.792 87.6016 221.908C89.8455 229.044 94.354 226.489 94.354 226.489Z" stroke="#023EA1" stroke-miterlimit="10"/>
<path d="M201.917 403.123C201.917 398.884 198.478 395.446 194.24 395.446H123.65V410.81H194.24C198.478 410.8 201.917 407.361 201.917 403.123Z" fill="#0064E1"/>
<path d="M149.85 403.123C149.85 398.884 146.412 395.446 142.173 395.446H100.09V398.635H142.184C144.666 398.635 146.671 400.65 146.671 403.123C146.671 405.606 144.656 407.611 142.184 407.611H100.09V410.8H142.173C146.412 410.8 149.85 407.361 149.85 403.123Z" fill="#003EB0"/>
<path d="M102.822 407.61H142.163C144.646 407.61 146.651 405.605 146.651 403.123C146.651 400.64 144.636 398.635 142.163 398.635H102.822C105.305 398.635 107.31 400.65 107.31 403.123C107.31 405.605 105.305 407.61 102.822 407.61Z" fill="#DCE8F5"/>
<path d="M119.475 432.293H177.608V410.8H119.475C113.543 410.8 108.723 415.61 108.723 421.541C108.723 424.513 109.928 427.203 111.87 429.135C113.813 431.088 116.504 432.293 119.475 432.293Z" fill="#EE384E"/>
<path d="M178.023 432.293H220.117V429.104H178.023C173.847 429.104 170.47 425.717 170.47 421.541C170.47 417.365 173.857 413.989 178.023 413.989H220.117V410.799H178.023C172.091 410.799 167.281 415.609 167.281 421.541C167.281 427.483 172.091 432.293 178.023 432.293Z" fill="#DE051F"/>
<path d="M178.023 429.104H218.153C213.977 429.104 210.601 425.717 210.601 421.541C210.601 417.365 213.988 413.989 218.153 413.989H178.023C173.847 413.989 170.471 417.375 170.471 421.541C170.471 425.717 173.847 429.104 178.023 429.104Z" fill="#D2DBEA"/>
<path d="M189.502 372.332H145.123V381.993H189.502C192.172 381.993 194.333 379.832 194.333 377.162C194.333 374.492 192.162 372.332 189.502 372.332Z" fill="#003EB0"/>
<path d="M156.758 372.332H130.299V374.337H156.758C158.316 374.337 159.584 375.604 159.584 377.162C159.584 378.72 158.316 379.988 156.758 379.988H130.299V381.993H156.758C159.428 381.993 161.589 379.832 161.589 377.162C161.589 374.492 159.428 372.332 156.758 372.332Z" fill="#0064E1"/>
<path d="M156.768 374.336H132.033C133.591 374.336 134.859 375.604 134.859 377.162C134.859 378.72 133.591 379.988 132.033 379.988H156.768C158.326 379.988 159.594 378.72 159.594 377.162C159.583 375.604 158.326 374.336 156.768 374.336Z" fill="white"/>
<path d="M131.431 360.8C130.206 362.016 129.447 363.709 129.447 365.579C129.447 369.308 132.47 372.331 136.21 372.331H172.756V358.816H136.21C134.34 358.816 132.647 359.574 131.431 360.8Z" fill="#DE051F"/>
<path d="M166.264 365.579C166.264 369.308 169.287 372.331 173.016 372.331H199.475V370.326H173.016C170.388 370.326 168.269 368.197 168.269 365.579C168.269 362.95 170.398 360.831 173.016 360.831H199.475V358.826H173.016C169.287 358.816 166.264 361.849 166.264 365.579Z" fill="#EE384E"/>
<path d="M198.25 360.831H173.017C170.389 360.831 168.27 362.961 168.27 365.579C168.27 368.207 170.399 370.326 173.017 370.326H198.24C195.612 370.326 193.493 368.196 193.493 365.579C193.493 362.95 195.622 360.831 198.25 360.831Z" fill="#D2DBEA"/>
<path d="M120.617 383.967C119.391 385.182 118.633 386.875 118.633 388.745C118.633 392.475 121.656 395.498 125.396 395.498H168.32V381.982H125.396C123.526 381.993 121.843 382.751 120.617 383.967Z" fill="#F79F03"/>
<path d="M161.838 388.745C161.838 392.475 164.861 395.498 168.59 395.498H206.456V393.493H168.58C165.952 393.493 163.832 391.363 163.832 388.745C163.832 386.127 165.962 383.998 168.58 383.998H206.456V381.993H168.59C164.861 381.993 161.838 385.016 161.838 388.745Z" fill="#FCBE42"/>
<path d="M205.229 383.998H168.589C165.961 383.998 163.842 386.127 163.842 388.745C163.842 391.363 165.971 393.493 168.589 393.493H205.229C202.601 393.493 200.482 391.363 200.482 388.745C200.482 386.127 202.601 383.998 205.229 383.998Z" fill="#D2DBEA"/>
<path d="M137.561 329.926H181.94V320.265H137.561C134.891 320.265 132.73 322.425 132.73 325.095C132.73 327.765 134.891 329.926 137.561 329.926Z" fill="#DE051F"/>
<path d="M170.294 329.926H196.753V327.921H170.294C168.735 327.921 167.468 326.654 167.468 325.095C167.468 323.537 168.735 322.27 170.294 322.27H196.753V320.265H170.294C167.624 320.265 165.463 322.425 165.463 325.095C165.463 327.765 167.624 329.926 170.294 329.926Z" fill="#EE384E"/>
<path d="M170.294 327.921H195.029C193.471 327.921 192.204 326.653 192.204 325.095C192.204 323.537 193.471 322.27 195.029 322.27H170.294C168.736 322.27 167.469 323.537 167.469 325.095C167.469 326.653 168.736 327.921 170.294 327.921Z" fill="white"/>
<path d="M195.622 341.457C196.848 340.241 197.606 338.548 197.606 336.678C197.606 332.949 194.583 329.926 190.843 329.926H154.297V343.441H190.843C192.713 343.441 194.406 342.683 195.622 341.457Z" fill="#FCBE42"/>
<path d="M160.788 336.688C160.788 332.959 157.765 329.936 154.035 329.936H127.576V331.941H154.035C156.664 331.941 158.783 334.071 158.783 336.688C158.783 339.317 156.653 341.436 154.035 341.436H127.576V343.441H154.035C157.765 343.441 160.788 340.418 160.788 336.688Z" fill="#F79F03"/>
<path d="M128.814 341.436H154.037C156.666 341.436 158.785 339.307 158.785 336.689C158.785 334.061 156.655 331.941 154.037 331.941H128.814C131.443 331.941 133.562 334.071 133.562 336.689C133.562 339.307 131.432 341.436 128.814 341.436Z" fill="#D2DBEA"/>
<path d="M127.41 358.816H157.11V356.811V345.384V343.379H127.41C123.151 343.379 119.691 346.838 119.691 351.097C119.691 355.367 123.151 358.816 127.41 358.816Z" fill="#0064E1"/>
<path d="M127.409 356.811H155.676V345.384H127.409C124.251 345.384 121.695 347.939 121.695 351.097C121.695 354.255 124.251 356.811 127.409 356.811Z" fill="#DCE8F5"/>
<path d="M155.21 356.811H191.559C188.401 356.811 185.845 354.255 185.845 351.097C185.845 347.939 188.401 345.384 191.559 345.384H155.21C152.052 345.384 149.496 347.939 149.496 351.097C149.496 354.255 152.052 356.811 155.21 356.811Z" fill="#EEF9FF"/>
<path d="M192.681 356.811H157.111V358.816H192.681V356.811Z" fill="#003EB0"/>
<path d="M192.681 343.379H157.111V345.384H192.681V343.379Z" fill="#003EB0"/>
<path d="M552.639 369.62L536.859 379.676L554.831 372.757L552.639 369.62Z" fill="#FFBF99"/>
<path d="M556.658 375.303L551.734 373.589L519.26 385.525C519.26 385.525 515.115 387.8 514.803 392.568C514.492 397.337 512.934 439.721 512.934 439.721H519.052L523.197 405.627L524.859 392.776L532.318 388.527L551.391 378.783L556.658 375.303Z" fill="#003EB0"/>
<path d="M569.8 376.02C570.88 379.822 572.542 390.958 567.119 393.545C566.891 393.649 566.652 393.732 566.392 393.773L536.609 398.448C536.474 398.469 536.339 398.479 536.203 398.479C535.694 398.479 534.105 398.646 534.801 400.661C535.507 402.697 544.286 426.829 546.852 433.873C547.257 434.995 548.846 438.236 547.838 438.89L544.909 441.747C543.652 442.578 541.429 438.298 540.691 436.979L521.203 402.043C521.14 401.928 521.088 401.814 521.036 401.689C520.579 400.474 518.606 394.189 524.953 391.01C531.311 387.831 550.467 378.004 554.175 376.092C554.591 375.885 556.305 374.867 556.762 374.898L567.317 376.497C568.428 376.57 569.498 374.95 569.8 376.02Z" fill="#0064E1"/>
<path d="M501.538 372.29C501.538 372.269 501.538 372.249 501.527 372.228C501.486 371.979 501.205 370.181 502.462 370.181H508.976C509.215 370.181 509.402 369.984 509.402 369.755V365.174C509.402 364.904 509.183 364.696 508.924 364.686L496.374 364.582C496.354 364.582 496.323 364.582 496.302 364.572C496.052 364.53 494.847 364.218 494.38 362.006C494.38 361.995 494.38 361.985 494.37 361.964L491.824 344.429C491.772 344.055 491.783 343.67 491.907 343.317C492.136 342.6 492.801 341.676 494.692 341.676C497.465 341.676 517.691 341.593 522.055 341.572C523.021 341.572 523.935 342.081 524.402 342.933C524.714 343.514 525.005 344.335 525.171 345.509C525.639 348.896 527.228 359.824 527.508 361.788C527.54 362.027 527.54 362.265 527.488 362.504C527.321 363.263 526.761 364.811 524.963 364.894C522.896 364.987 514.72 364.686 512.612 364.603C512.341 364.592 512.113 364.811 512.113 365.081L512.071 369.901C512.071 370.171 512.29 370.389 512.549 370.389L519.53 370.441C519.561 370.441 519.593 370.441 519.624 370.451C519.811 370.503 520.413 370.732 520.403 371.48C520.382 372.851 520.351 372.571 520.351 372.571L502.015 372.727C501.776 372.727 501.579 372.55 501.548 372.311L501.538 372.29Z" fill="#0064B7"/>
<path d="M567.39 339.536C567.442 339.484 567.545 339.546 567.628 339.536C568.491 339.442 574.194 339.11 574.859 346.766C575.493 353.986 571.244 372.997 570.122 377.37L549.947 374.264C550.321 372.415 550.862 368.166 550.862 367.335C550.862 367.335 551.755 359.17 551.921 356.801C551.952 356.438 551.817 356.095 551.578 355.825C550.664 354.838 548.545 352.033 550.498 348.989C550.498 348.989 554.747 341.946 557.749 340.439C557.76 340.439 560.897 345.883 567.39 339.536Z" fill="#FCBE42"/>
<path d="M564.096 357.466C564.335 356.583 565.312 356.126 566.143 356.5L569.374 357.965C569.8 358.152 570.101 358.536 570.205 358.983L570.34 359.575C570.413 359.907 570.381 360.25 570.226 360.551L566.797 367.647C566.694 367.854 566.621 368.073 566.569 368.291C566.392 368.987 565.644 370.711 562.476 369.88L542.468 364.831C542.416 364.811 538.136 363.263 538.084 363.242C537.648 363.065 537.232 363.242 537.118 364.624C537.066 365.205 535.57 363.46 535.923 362.234C535.923 362.234 536.983 359.835 542.572 361.175L557.946 364.27C557.988 364.281 558.03 364.291 558.071 364.302C558.476 364.416 560.98 365.039 561.645 363.045L564.013 357.695C564.044 357.611 564.065 357.539 564.096 357.466Z" fill="#FFBF99"/>
<path d="M573.238 342.164C573.622 342.445 573.841 342.902 573.955 343.338C574.225 344.356 574.267 345.603 574.048 346.642C573.643 348.501 571.514 358.079 570.454 360.074C570.454 360.074 567.057 357.643 564.086 357.508C564.086 357.508 565.717 350.838 567.348 346.33C567.348 346.33 569.841 339.681 573.238 342.164Z" fill="#F79F03"/>
<path d="M519.051 439.731L519.259 444.957C519.259 444.957 519.405 445.757 516.195 445.757C512.985 445.757 504.653 445.746 504.653 445.746C504.653 445.746 502.679 444.915 504.965 444.188C504.965 444.188 510.045 442.63 512.943 439.731H519.051Z" fill="#170856"/>
<path d="M541.492 369.569L533.513 369.621V366.099C533.513 366.099 533.15 365.112 534.708 365.008C536.266 364.904 540.411 365.112 540.411 365.112C540.411 365.112 541.554 365.216 541.554 366.566C541.544 367.906 541.492 369.569 541.492 369.569Z" fill="#EE384E"/>
<path d="M540.878 369.319C540.878 369.319 543.849 369.059 544.078 370.545C544.337 372.238 543.517 372.643 542.062 372.695C540.608 372.747 531.944 372.56 531.944 372.56C531.944 372.56 530.271 372.321 530.334 371.106C530.406 369.859 530.749 369.392 532.359 369.392C533.97 369.392 540.878 369.319 540.878 369.319Z" fill="#000036"/>
<path d="M520.952 372.435L543.235 372.571C543.318 372.571 543.401 372.581 543.484 372.581C544.087 372.591 545.687 372.934 545.687 374.222C545.687 375.739 544.586 376.155 542.643 376.155H491.345C490.742 376.155 490.161 375.926 489.714 375.521C489.132 375.001 488.478 373.412 489.756 372.612C490.119 372.384 490.545 372.29 490.961 372.29L520.952 372.435Z" fill="#023EA1"/>
<path d="M507.126 376.03L492.479 388.88C492.479 388.88 489.85 391.228 489.715 396.62C489.58 402.011 488.749 446.089 488.749 446.089C488.749 446.089 488.469 448.572 493.31 448.572H524.818C524.818 448.572 526.064 448.572 526.199 447.055C526.334 445.539 525.098 445.674 524.122 445.674L491.928 445.809L492.208 397.305C492.208 397.305 491.377 393.16 497.32 388.319L510.606 376.04L507.126 376.03Z" fill="#023EA1"/>
<path d="M558.486 396.776L558.538 442.225C558.538 442.225 565.581 442.433 566.827 444.095C568.074 445.757 566.62 446.786 559.369 446.578C552.118 446.37 547.765 446.37 547.765 446.37C547.765 446.37 544.243 445.955 548.388 443.887C552.533 441.81 555.847 442.433 555.847 442.433L556.263 396.828L558.486 396.776Z" fill="#023EA1"/>
<path d="M547.547 435.794C547.547 435.794 551.588 439.628 549.209 441.394L538.634 449.788C538.634 449.788 537.075 450.203 537.387 448.437L542.051 439.42L547.547 435.794Z" fill="#180756"/>
<path d="M558.393 394.615C558.393 394.615 574.672 395.571 567.587 396.527C560.502 397.482 550.727 397.482 547.278 397.098C543.839 396.714 555.713 394.802 558.393 394.615Z" fill="#023EA1"/>
<path d="M508.737 223.975C508.737 223.975 511.833 222.23 509.943 214.895C508.062 207.561 506.182 206.356 508.737 201.11C511.293 195.864 519.5 194.378 531.197 194.846C542.895 195.324 545.99 206.855 544.64 211.914C543.3 216.973 532.662 222.749 526.211 221.949C519.76 221.149 516.799 220.744 516.799 220.744C516.799 220.744 514.648 224.37 508.737 223.975Z" fill="#0064E1"/>
<path d="M521.764 209.867C522.722 209.867 523.499 209.09 523.499 208.132C523.499 207.174 522.722 206.397 521.764 206.397C520.806 206.397 520.029 207.174 520.029 208.132C520.029 209.09 520.806 209.867 521.764 209.867Z" fill="white"/>
<path d="M527.032 209.867C527.99 209.867 528.767 209.09 528.767 208.132C528.767 207.174 527.99 206.397 527.032 206.397C526.074 206.397 525.297 207.174 525.297 208.132C525.297 209.09 526.074 209.867 527.032 209.867Z" fill="white"/>
<path d="M532.288 209.867C533.246 209.867 534.022 209.09 534.022 208.132C534.022 207.174 533.246 206.397 532.288 206.397C531.329 206.397 530.553 207.174 530.553 208.132C530.553 209.09 531.329 209.867 532.288 209.867Z" fill="white"/>
<path d="M407.711 128.111C414.601 128.111 420.187 122.525 420.187 115.634C420.187 108.744 414.601 103.158 407.711 103.158C400.82 103.158 395.234 108.744 395.234 115.634C395.234 122.525 400.82 128.111 407.711 128.111Z" stroke="#DE051F" stroke-miterlimit="10"/>
<path d="M403.856 122.823C405.422 122.823 406.692 121.553 406.692 119.987C406.692 118.421 405.422 117.151 403.856 117.151C402.289 117.151 401.02 118.421 401.02 119.987C401.02 121.553 402.289 122.823 403.856 122.823Z" stroke="#DE051F" stroke-miterlimit="10"/>
<path d="M410.962 115.78C412.144 115.78 413.102 114.821 413.102 113.64C413.102 112.458 412.144 111.5 410.962 111.5C409.78 111.5 408.822 112.458 408.822 113.64C408.822 114.821 409.78 115.78 410.962 115.78Z" stroke="#DE051F" stroke-miterlimit="10"/>
<path d="M404.365 111.759C405.283 111.759 406.027 111.015 406.027 110.097C406.027 109.179 405.283 108.435 404.365 108.435C403.447 108.435 402.703 109.179 402.703 110.097C402.703 111.015 403.447 111.759 404.365 111.759Z" stroke="#DE051F" stroke-miterlimit="10"/>
<path d="M299.556 246.84H180.64C179.497 246.84 178.562 245.905 178.562 244.762V103.459C178.562 101.163 180.422 99.3037 182.718 99.3037H297.478C299.774 99.3037 301.634 101.163 301.634 103.459V244.762C301.634 245.915 300.699 246.84 299.556 246.84Z" fill="white" stroke="#003EB0" stroke-miterlimit="10"/>
<path d="M298.142 107.49H182.052C180.328 107.49 178.936 106.098 178.936 104.374V102.4C178.936 100.675 180.328 99.2832 182.052 99.2832H298.153C299.877 99.2832 301.269 100.675 301.269 102.4V104.374C301.259 106.088 299.867 107.49 298.142 107.49Z" fill="white" stroke="#003EB0" stroke-miterlimit="10"/>
<path d="M277.399 172.147L274.874 170.142C274.874 170.142 274.459 169.758 274.043 169.935C273.628 170.111 273.597 170.537 274.22 171.015C274.843 171.493 276.713 173.03 276.713 173.03L277.399 172.147Z" fill="#023EA1"/>
<path d="M277.772 171.171L275.912 173.602L285.511 185.964L292.108 176.947L277.772 171.171Z" fill="#023EA1"/>
<path d="M291.994 176.22L350.19 219.228L342.409 229.98L284.764 186.785L291.994 176.22Z" fill="#0064E1"/>
<path d="M350.211 213.566C350.211 213.566 351.769 219.228 350.751 220.796C349.733 222.365 347.042 219.404 347.042 219.404L343.895 215.238L350.211 213.566Z" fill="#FFC39E"/>
<path d="M316.023 277.86L311.827 329.386L307.193 333.282L318.195 332.814L318.153 329.49C318.143 329.334 318.153 329.189 318.174 329.033L327.523 277.735L316.023 277.86Z" fill="#FFC39E"/>
<path d="M331.107 277.61L334.275 329.21C334.296 329.511 334.161 329.812 333.932 329.999L329.818 333.355L341.027 332.565L342.108 276.25L329.87 277.61" fill="#FFC39E"/>
<path d="M222.122 246.84L201.355 290.585" stroke="#023EA1" stroke-width="2" stroke-miterlimit="10"/>
<path d="M256.965 246.84L277.721 290.585" stroke="#023EA1" stroke-width="2" stroke-miterlimit="10"/>
<path d="M201.729 294.284C203.571 294.284 205.064 292.791 205.064 290.949C205.064 289.107 203.571 287.614 201.729 287.614C199.888 287.614 198.395 289.107 198.395 290.949C198.395 292.791 199.888 294.284 201.729 294.284Z" fill="#023EA1"/>
<path d="M277.358 294.284C279.2 294.284 280.693 292.791 280.693 290.949C280.693 289.107 279.2 287.614 277.358 287.614C275.516 287.614 274.023 289.107 274.023 290.949C274.023 292.791 275.516 294.284 277.358 294.284Z" fill="#023EA1"/>
<path d="M316.698 210.449L317.757 226.084L338.887 225.71L340.072 212.163C340.082 211.966 340.321 211.873 340.466 212.008L344.767 215.498C344.944 215.654 345.203 215.706 345.432 215.602L350.211 213.555C350.398 213.472 350.47 213.254 350.356 213.078L343.697 202.44L321.466 189.132C321.466 189.132 310.35 200.134 308.865 202.357C307.473 204.445 304.117 208.496 303.099 208.985C303.006 209.026 302.975 209.13 303.016 209.213L306.403 216.662C306.517 216.911 306.849 216.963 307.036 216.765" fill="#EE384E"/>
<path d="M314.423 168.625C314.423 168.625 312.937 181.975 316.646 181.975C320.355 181.975 321.092 184.198 321.092 184.198L321.466 189.143L324.801 185.683L322.578 179.751L324.063 175.305L321.103 171.597L314.423 168.625Z" fill="#FFC39E"/>
<path d="M313.227 168.968C312.936 168.459 312.905 167.847 313.071 167.275C313.508 165.727 315.274 161.655 321.829 160.46C328.239 159.297 330.524 162.247 331.21 163.567C331.397 163.93 331.771 164.169 332.176 164.211C333.921 164.377 338.253 165.218 338.191 169.384C338.18 169.81 338.44 170.194 338.845 170.34C340.943 171.129 344.444 172.688 344.268 177.954C344.257 178.193 344.05 178.38 344.018 178.609C343.883 179.71 343.593 182.951 344.808 184.167C344.808 184.167 348.714 188.073 346.148 191.615C345.701 192.228 345.629 193.049 346.044 193.682C346.449 194.295 347.187 194.95 348.506 195.282C351.467 196.02 352.121 200.56 348.475 202.398C348.091 202.596 347.654 202.668 347.228 202.627C346.086 202.513 343.468 202.44 342.689 203.905C342.523 204.216 342.273 204.466 342.003 204.694C340.414 206.055 335.936 209.348 333.942 204.86C333.775 204.497 333.734 204.092 333.817 203.697C334.014 202.72 333.983 200.643 329.973 201.214C329.973 201.214 326.265 201.214 327.013 197.505C327.574 194.721 325.621 194.451 324.613 194.482C324.177 194.493 323.751 194.368 323.418 194.098C322.192 193.122 319.813 190.545 322.359 186.691C322.494 186.483 322.598 186.255 322.618 186.005C322.733 185.081 322.847 182.712 321.393 181.445C321.122 181.206 320.956 180.884 320.863 180.541C320.603 179.627 320.312 178.006 321.154 177.165C321.735 176.583 322.182 175.877 322.192 175.056C322.213 174.204 321.86 173.415 320.343 173.799C320.343 173.799 318.858 173.799 318.858 172.314C318.858 171.171 316.23 170.475 315.014 170.205C314.36 170.059 313.747 169.716 313.352 169.166C313.321 169.124 313.279 169.052 313.227 168.968Z" fill="#1D1154"/>
<path d="M318.225 329.781L315.087 329.739C314.984 329.739 314.89 329.76 314.807 329.812C314.08 330.248 310.288 332.419 306.455 332.752C302.195 333.126 301.915 334.975 301.915 334.975C301.915 334.975 301.634 335.806 303.722 335.806C305.613 335.806 311.514 335.65 312.625 335.629C312.74 335.629 312.844 335.567 312.916 335.474L314.059 333.926C314.111 333.853 314.194 333.812 314.288 333.801L315.191 333.739C315.347 333.728 315.482 333.853 315.472 334.019L315.399 335.661C315.399 335.713 315.441 335.754 315.493 335.754H318.11C318.173 335.754 318.225 335.702 318.225 335.64V329.781Z" fill="#1F105A"/>
<path d="M341.205 329.781H336.613C336.613 329.781 332.811 332.471 329.985 332.793C327.159 333.115 324.978 333.998 324.936 335.017C324.895 336.035 326.609 335.993 326.609 335.993L335.127 335.858C335.252 335.858 335.366 335.806 335.449 335.713L337.589 333.489L338.057 333.396V335.536C338.057 335.629 338.13 335.713 338.233 335.713H340.976C341.08 335.713 341.163 335.629 341.163 335.526L341.205 329.781Z" fill="#1A0E47"/>
<path d="M350.189 219.228L358.905 225.897L351.394 236.181L342.408 229.98L350.189 219.228Z" fill="#0064E1"/>
<path d="M350.188 219.228L342.407 229.98L338.418 226.915L339.602 211.405L350.188 219.228Z" fill="#023EA1"/>
<path d="M303.391 210.055C303.391 210.055 301.999 210.325 300.243 207.271L292.182 194.202C292.182 194.202 291.901 192.259 291.995 191.511C292.057 190.982 292.036 189.569 292.016 188.79C292.005 188.478 290.707 187.065 290.52 188.914C290.333 190.763 290.333 190.763 290.333 190.763C290.333 190.763 289.865 191.408 289.315 190.95C288.754 190.483 288.39 189.558 288.39 189.558L286.634 188.26C286.634 188.26 285.897 191.595 287.195 193.631C288.494 195.667 289.886 195.21 289.886 195.21L298.778 216.059C298.778 216.059 299.984 219.3 302.02 218.189C304.056 217.077 306.227 216.246 306.227 216.246L303.391 210.055Z" fill="#FFC39E"/>
<path d="M313.924 278.868L317.757 226.084L338.513 225.689L341.235 229.907C344.32 234.478 344.196 246.716 344.196 246.716C344.196 246.716 343.209 277.434 343.209 279.169L313.924 278.868Z" fill="#003EB0"/>
<path d="M289.138 123.717H186.365V126.2H289.138V123.717Z" fill="#023EA1"/>
<path d="M282.458 131.342H186.365V133.669H282.458V131.342Z" fill="#023EA1"/>
<path d="M289.138 138.801H186.365V141.284H289.138V138.801Z" fill="#023EA1"/>
<path d="M276.453 146.488H186.365V148.669H276.453V146.488Z" fill="#023EA1"/>
<path d="M289.138 153.874H186.365V156.357H289.138V153.874Z" fill="#023EA1"/>
<path d="M289.138 161.416H186.365V163.899H289.138V161.416Z" fill="#023EA1"/>
<path d="M273.898 168.958H186.365V171.441H273.898V168.958Z" fill="#023EA1"/>
<path d="M255.979 450.618C264.769 450.618 271.894 448.316 271.894 445.476C271.894 442.636 264.769 440.334 255.979 440.334C247.19 440.334 240.064 442.636 240.064 445.476C240.064 448.316 247.19 450.618 255.979 450.618Z" fill="#ECF2F5"/>
<path d="M228.096 390.376C228.096 390.376 231.888 388.829 231.607 384.476C231.327 380.123 229.083 377.038 233.716 378.295C238.349 379.562 239.907 380.123 243.273 379.417C246.639 378.71 249.434 377.308 247.969 381.661C246.504 386.013 244.904 389.66 248.374 390.366C251.833 391.072 255.552 388.444 255.999 395.259C256.446 402.074 250.95 409.74 242.058 410.021C233.165 410.301 229.238 406.613 229.238 406.613C229.238 406.613 226.849 403.248 230.568 402.427C234.287 401.596 238.079 400.027 236.178 398.282C234.287 396.547 228.106 396.402 228.106 396.402C228.106 396.402 220.377 394.864 228.096 390.376Z" fill="#649EEA"/>
<path d="M268.735 391.498C268.112 387.156 268.59 384.029 276.662 382.845C284.733 381.661 289.439 386.512 289.928 391.498C290.416 396.485 283.404 398.292 283.404 398.292C283.404 398.292 278.417 399.716 280.952 404.068C283.487 408.421 284.63 412.628 278.895 413.262C273.161 413.896 266.886 412.379 263.396 410.052C259.905 407.725 256.321 401.824 260.321 398.739C260.321 398.739 261.443 397.97 265.307 397.752C269.151 397.534 268.735 391.498 268.735 391.498Z" fill="#023EA1"/>
<path d="M240.334 390.792C240.334 390.792 247.035 405.948 247.949 416.264" stroke="#023EA1" stroke-miterlimit="10"/>
<path d="M277.596 393.285C277.596 393.285 265.733 410.903 262.928 416.794" stroke="#649EEA" stroke-miterlimit="10"/>
<path d="M243.814 415.08H271.042C271.042 415.08 274.024 415.287 273.774 419.36C273.546 423.11 268.788 422.3 266.336 422.3C263.885 422.3 243.222 422.3 243.222 422.3C243.222 422.3 239.877 422.871 239.877 419.079C239.877 415.287 241.144 415.08 243.814 415.08Z" fill="#0054A5"/>
<path d="M243.232 422.3L247.357 446.359H265.64L268.736 428.304L243.264 422.3H243.232Z" fill="#0054A5"/>
<path d="M243.264 422.3L268.736 428.304L269.764 422.3H243.264Z" fill="#006AD5"/>
<path d="M254.971 415.994C254.971 415.994 256.352 389.296 264.31 372.55" stroke="#FCBE42" stroke-miterlimit="10"/>
<path d="M270.856 362.909C270.856 362.909 271.511 371.106 263.512 374.305C263.512 374.305 261.787 367.303 270.856 362.909Z" fill="#FCBE42"/>
<path d="M258.857 388.995C258.857 388.995 261.808 382.003 270.866 382.938C270.877 382.938 270.17 389.898 258.857 388.995Z" fill="#FCBE42"/>
<path d="M255.875 406.582C255.875 406.582 257.402 399.144 266.471 398.292C266.471 398.292 267.146 405.263 255.875 406.582Z" fill="#FCBE42"/>
<path d="M255.564 406.624C255.564 406.624 256.613 399.113 248.354 395.269C248.354 395.269 245.393 401.616 255.564 406.624Z" fill="#FCBE42"/>
<path d="M258.959 388.942C258.959 388.942 260.964 381.619 253.256 376.757C253.245 376.757 249.506 382.678 258.959 388.942Z" fill="#FCBE42"/>
<path d="M389.189 390.968C389.189 390.968 407.67 392.059 399.619 393.139C391.578 394.23 380.494 394.23 376.577 393.794C372.671 393.358 386.145 391.186 389.189 390.968Z" fill="#023EA1"/>
<path d="M390.466 393.409L390.736 444.977C390.736 444.977 398.735 445.185 400.158 447.055C401.581 448.935 399.94 450.109 391.702 449.912C383.464 449.714 378.529 449.725 378.529 449.725C378.529 449.725 374.53 449.268 379.225 446.899C383.921 444.53 387.692 445.216 387.692 445.216L387.952 393.461L390.466 393.409Z" fill="#023EA1"/>
<path d="M397.739 327.215C397.739 327.215 405.353 324.504 406.195 331.609C406.195 331.609 408.137 336.772 410.09 337.697C412.033 338.632 416.853 340.408 415.669 347.088C414.485 353.768 412.625 353.352 413.384 357.237C414.142 361.133 412.282 361.549 409.581 361.632C406.88 361.715 406.112 359.18 406.112 359.18L406.87 350.547L405.094 336.679L399.338 334.393C399.338 334.393 396.378 330.674 396.128 329.23C395.879 327.807 397.739 327.215 397.739 327.215Z" fill="#170856"/>
<path d="M398.756 325.293C398.756 325.293 399.961 326.55 399.681 326.768C399.4 326.986 396.118 328.7 396.118 328.7C396.118 328.7 395.162 326.862 395.266 326.321C395.349 325.781 398.756 325.293 398.756 325.293Z" fill="#F05051"/>
<path d="M378.623 316.006C378.446 316.027 378.332 316.172 378.332 316.349C378.374 318.001 378.758 325.979 381.874 328.929C381.874 328.929 383.526 331.09 386.695 330.197C386.695 330.197 389.551 328.482 389.105 331.973C388.658 335.463 390.123 338.892 391.266 339.39C392.408 339.899 397.104 338.632 398.184 336.658C398.901 335.349 399.285 334.684 399.462 334.393C399.535 334.269 399.524 334.123 399.42 334.009C398.776 333.271 396.356 330.3 395.234 326.197C393.935 321.439 394.631 316.868 390.258 315.923C386.393 315.081 380.057 315.819 378.623 316.006Z" fill="#FFBE97"/>
<path d="M374.521 315.621C374.531 315.549 374.541 315.476 374.541 315.414C374.573 314.946 374.531 314.479 374.583 314.011C374.728 312.567 375.206 311.03 376.339 310.043C377.19 309.316 378.292 309.025 379.393 309.025C379.642 309.025 379.881 308.931 380.037 308.744C380.785 307.903 383.216 305.482 386.561 305.482C390.612 305.482 397.541 307.674 399.411 314.593C399.411 314.603 399.422 314.614 399.422 314.635C399.536 315.102 402.174 325.958 396.876 326.29C391.464 326.633 389.262 323.963 389.428 321.553C389.428 321.553 392.087 316.775 387.568 318C387.568 318 382.914 318.873 379.673 316.972C379.268 316.733 378.759 316.878 378.53 317.284C377.886 318.395 376.598 320.12 375.393 318.676C374.946 318.146 374.521 317.533 374.396 316.837C374.334 316.39 374.458 316.016 374.521 315.621Z" fill="#170856"/>
<path d="M399.493 334.082C399.493 334.082 396.855 338.33 393.084 338.289C389.323 338.247 389.084 334.341 389.084 334.341C389.084 334.341 381.418 341.239 381.501 345.81C381.584 350.381 383.111 349.612 383.526 351.139C383.952 352.666 380.992 368.82 380.992 368.82L380.545 369.776L402.215 372.716C402.215 372.716 403.057 369.246 403.649 368.145C404.241 367.044 407.285 338.715 407.285 338.715L405.851 337.188C405.861 337.188 403.316 334.32 399.493 334.082Z" fill="#003EB0"/>
<path d="M409.072 351.233C409.072 351.233 411.222 337.209 405.768 336.513C400.439 335.837 400.356 340.232 400.19 346.745C400.024 353.259 400.107 354.692 400.107 354.692L408.563 356.219L409.072 351.233Z" fill="#0064E1"/>
<path d="M400.356 354.744C400.221 354.724 400.096 354.817 400.086 354.952L399.639 360.323C399.67 361.144 399.525 361.892 398.766 361.59C398.34 361.424 397.811 361.165 397.146 360.791C394.736 359.44 387.422 355.887 385.147 354.776C384.742 354.578 384.441 354.225 384.285 353.799C384.036 353.124 383.443 352.116 382.083 351.732C379.963 351.14 376.327 351.223 376.244 351.483C376.161 351.742 375.735 353.508 375.901 354.1C376.068 354.693 377.844 354.184 377.844 354.184C377.844 354.184 381.148 353.591 380.213 354.776C379.672 355.461 378.904 355.555 378.353 355.503C378.135 355.482 378.021 355.773 378.197 355.908C378.654 356.261 379.465 356.698 380.805 356.885C383.256 357.227 400.595 368.561 400.595 368.561C400.595 368.561 403.981 371.179 405.924 364.25C407.409 358.962 408.147 357.082 408.417 356.479C408.479 356.344 408.396 356.188 408.251 356.168L400.356 354.744Z" fill="#FEBD96"/>
<path d="M371.539 362.297L381.439 366.39L382.488 360.188L378.458 359.949L371.539 362.297Z" fill="#FEBD96"/>
<path d="M364.755 342.517L349.1 341.593L365.347 362.058L380.317 362.567L364.755 342.517Z" fill="#0064B7"/>
<path d="M364.661 360.624C364.661 360.624 365.253 356.905 363.985 356.312C362.718 355.72 361.897 357.102 361.98 357.777C362.074 358.525 364.557 361.05 364.557 361.05L364.661 360.624Z" fill="#FEBD96"/>
<path d="M380.545 369.776L350.034 381.391C350.034 381.391 346.232 382.149 345.297 392.433C344.362 402.708 343.604 436.761 343.604 436.761L343.562 437.862L351.177 437.987L354.979 401.7L373.034 379.915L387.672 370.732L380.545 369.776Z" fill="#EE384E"/>
<path d="M402.413 372.062L387.6 370.732L356.403 386.315C356.403 386.315 347.978 391.28 353.38 400.277C358.793 409.273 373.876 436.719 373.876 436.719L379.071 432.844L365.742 395.945C365.742 395.945 365.42 394.043 369.867 393.721C374.022 393.42 393.656 391.509 396.201 391.259C396.419 391.239 396.617 391.197 396.824 391.114C398.362 390.553 404.356 387.644 402.455 377.162L402.226 372.726L402.413 372.062Z" fill="#DE051F"/>
<path d="M343.562 437.852L336.935 441.498C336.592 441.685 336.228 441.82 335.844 441.882C335.127 441.986 333.88 442.329 333.88 443.357C333.88 443.357 333.714 444.542 336.924 444.292C340.134 444.043 350.284 444.126 350.284 444.126C350.284 444.126 351.593 443.835 351.385 440.916L351.177 437.997L343.562 437.852Z" fill="#130452"/>
<path d="M373.887 436.708C373.887 436.708 373.835 438.433 372.11 440.801C371.165 442.11 370.136 443.378 369.077 444.603C368.796 444.925 368.495 445.196 368.35 445.601C368.256 445.871 368.183 446.151 368.173 446.432C368.163 446.702 368.225 447.003 368.464 447.169C368.827 447.419 369.368 447.284 369.752 447.18C369.866 447.149 369.981 447.107 370.084 447.076C372.692 446.141 380.473 439.814 382.125 438.454C382.332 438.277 382.457 438.028 382.467 437.747C382.467 437.165 382.374 436.126 381.678 435.316C380.66 434.132 379.091 432.844 379.091 432.844L373.887 436.708Z" fill="#130452"/>
</g>
<defs>
<clipPath id="clip0_565_9961">
<rect width="596" height="447" fill="white" transform="translate(0 0.00195312)"/>
</clipPath>
</defs>
</svg>
