<svg width="552" height="362" viewBox="0 0 552 362" fill="none" xmlns="http://www.w3.org/2000/svg">
<path d="M344.433 128.37C365.916 128.37 383.331 110.955 383.331 89.4723C383.331 67.9895 365.916 50.5743 344.433 50.5743C322.95 50.5743 305.535 67.9895 305.535 89.4723C305.535 110.955 322.95 128.37 344.433 128.37Z" stroke="#2626DB" stroke-miterlimit="10" stroke-dasharray="6 6"/>
<path d="M46.6675 222.184C68.1503 222.184 85.5655 204.769 85.5655 183.286C85.5655 161.803 68.1503 144.388 46.6675 144.388C25.1848 144.388 7.76953 161.803 7.76953 183.286C7.76953 204.769 25.1848 222.184 46.6675 222.184Z" stroke="#2626DB" stroke-miterlimit="10" stroke-dasharray="6 6"/>
<path d="M161.084 281.243C182.566 281.243 199.982 263.828 199.982 242.345C199.982 220.862 182.566 203.447 161.084 203.447C139.601 203.447 122.186 220.862 122.186 242.345C122.186 263.828 139.601 281.243 161.084 281.243Z" stroke="#63C1F1" stroke-width="1.5" stroke-miterlimit="10" stroke-dasharray="6 6"/>
<path d="M476.984 151.123C510.731 146.082 542.174 169.351 547.215 203.098C552.255 236.844 528.987 268.287 495.24 273.328" stroke="#DE051F" stroke-miterlimit="10" stroke-dasharray="6 6"/>
<path d="M424.598 117.585C424.598 117.585 420.774 117.466 415.106 118.276L410.416 124.589L410.536 119.087C394.427 122.451 369.97 133.27 367.924 167.938C367.924 167.929 407.679 192.377 424.598 117.585Z" fill="#023EA1"/>
<path d="M399.855 122.22L377.48 156.63L424.599 117.585" stroke="white" stroke-miterlimit="10"/>
<path d="M417.522 140.687L376.68 158.629" stroke="white" stroke-miterlimit="10"/>
<path d="M414.334 95.9944C414.334 95.9944 414.335 102.574 409.837 99.9478C405.34 97.3214 402.272 97.2293 400.364 102.086C398.456 106.951 395.24 108.73 392.282 107.855C389.324 106.979 384.182 104.528 381.943 111.273C379.703 118.019 374.404 130.828 381.509 134.164C388.614 137.491 399.83 133.022 401.544 127.935C403.258 122.848 401.415 118.489 407.147 116.84C412.878 115.199 413.671 120.876 418.693 117.061C423.716 113.255 429.153 109.836 425.411 101.901C422.048 94.7964 415.256 92.3912 414.334 95.9944Z" stroke="#EA4E59" stroke-miterlimit="10" stroke-linecap="round" stroke-linejoin="round"/>
<path d="M415.42 103.598C415.42 103.598 384.032 127.751 374.633 132.018" stroke="#EA4E59" stroke-miterlimit="10" stroke-linecap="round" stroke-linejoin="round"/>
<path d="M390.334 112.462L389.412 122.737L397.402 126.184" stroke="#EA4E59" stroke-miterlimit="10" stroke-linecap="round" stroke-linejoin="round"/>
<path d="M406.141 102.777L406.565 110.297L412.895 113.983" stroke="#EA4E59" stroke-miterlimit="10" stroke-linecap="round" stroke-linejoin="round"/>
<path d="M85.2972 101.828C85.2972 101.828 93.72 96.0778 95.3696 101.045C97.0191 106.012 99.3875 105.791 101.83 105.431C104.272 105.072 108.437 102.777 109.875 108.113C111.312 113.449 109.792 116.812 112.317 118.489C114.842 120.167 122.398 130.211 117.311 132.091C112.224 133.971 106.253 129.732 104.281 127.299C102.309 124.867 97.8577 124.82 94.4296 125.585C91.0015 126.35 86.5321 124.802 88.0157 120.637C89.4994 116.462 87.343 112.26 84.2282 111.403C81.1134 110.537 79.6482 105.8 85.2972 101.828Z" fill="#023EA1"/>
<path d="M89.7773 106.639L118.898 136.174" stroke="white" stroke-miterlimit="10" stroke-linecap="round" stroke-linejoin="round"/>
<path d="M103.978 109.137L101.61 118.638L91.6758 120.638" stroke="white" stroke-miterlimit="10" stroke-linecap="round" stroke-linejoin="round"/>
<path d="M85.3604 116.142C85.3604 116.142 85.3604 121.468 89.0005 119.339C92.6405 117.21 95.1194 117.137 96.6676 121.072C98.2158 125.007 100.815 126.444 103.211 125.744C105.597 125.044 109.763 123.053 111.578 128.518C113.393 133.982 117.679 144.34 111.928 147.041C106.178 149.731 97.1007 146.119 95.7184 142C94.3361 137.881 95.8198 134.351 91.1845 133.024C86.5492 131.697 85.9041 136.286 81.8401 133.208C77.7761 130.121 73.3804 127.357 76.4031 120.943C79.1216 115.174 84.6139 113.229 85.3604 116.142Z" stroke="#FCBE42" stroke-miterlimit="10"/>
<path d="M84.4727 122.287C84.4727 122.287 109.87 141.833 117.473 145.289" stroke="#FCBE42" stroke-miterlimit="10"/>
<path d="M104.774 129.466L105.52 137.778L99.0508 140.561" stroke="#FCBE42" stroke-miterlimit="10"/>
<path d="M91.9823 121.633L91.6413 127.706L86.5176 130.701" stroke="#FCBE42" stroke-miterlimit="10"/>
<path d="M253.732 40.2808C253.732 40.2808 253.612 44.4554 254.533 50.6389L261.436 55.7258L255.427 55.6152C259.169 73.1796 271.093 99.8304 308.941 101.904C308.932 101.913 335.426 58.4074 253.732 40.2808Z" fill="#023EA1"/>
<path d="M258.904 67.2726L289.057 76.0917L253.734 40.2808" stroke="white" stroke-miterlimit="10"/>
<path d="M278.982 47.9014L289.055 76.0911" stroke="white" stroke-miterlimit="10"/>
<path d="M318.977 42.2056C318.977 42.2056 316.148 38.1969 319.613 35.7548C323.078 33.3127 329.105 35.3493 329.4 38.8051C329.704 42.2608 327.253 43.7814 329.732 45.0992C332.211 46.417 338.477 51.0707 335.998 54.1118C333.519 57.1529 329.262 55.8904 329.566 60.9312C329.87 65.9719 338.256 69.6581 331.63 74.2842C324.995 78.9103 311.697 84.0433 310.02 71.6855C308.343 59.3277 319.152 65.1886 315.227 56.3603C311.301 47.532 316.545 49.0341 318.987 46.7579C321.429 44.4817 318.977 42.2056 318.977 42.2056Z" fill="#FCBE42"/>
<path d="M324.599 48.4436C324.599 48.4436 321.171 60.9488 322.148 72.5602C323.125 84.1715 325.235 86.4938 325.235 86.4938" stroke="#E5F8FF" stroke-miterlimit="10"/>
<path d="M309.359 87.7663C309.359 87.7663 301.111 59.466 303.313 39.1369" stroke="#EB4B57" stroke-miterlimit="10"/>
<path d="M306.648 26.7158C306.648 26.7158 310.307 35.0096 303.137 41.2484C303.128 41.2576 298.788 34.5949 306.648 26.7158Z" stroke="#EB4B57" stroke-miterlimit="10"/>
<path d="M303.617 58.2313C303.617 58.2313 304.152 49.8822 313.929 47.5692C313.92 47.5692 315.717 55.0797 303.617 58.2313Z" stroke="#EB4B57" stroke-miterlimit="10"/>
<path d="M306.892 77.6298C306.892 77.6298 305.786 69.3359 314.918 65.1522C314.918 65.1522 318.144 72.1743 306.892 77.6298Z" stroke="#EB4B57" stroke-miterlimit="10"/>
<path d="M306.575 77.7956C306.575 77.7956 304.944 69.5847 294.945 68.5895C294.945 68.5802 294.162 76.2658 306.575 77.7956Z" stroke="#EB4B57" stroke-miterlimit="10"/>
<path d="M303.692 58.1482C303.692 58.1482 303.121 49.7991 293.334 47.5321C293.334 47.5321 291.583 55.0518 303.692 58.1482Z" stroke="#EB4B57" stroke-miterlimit="10"/>
<path d="M185.881 56.6275C185.881 56.6275 186.996 59.9359 189.152 62.7005C191.309 65.4651 189.272 68.0085 189.272 68.0085C189.272 68.0085 184.047 70.7731 182.508 67.2436C182.508 67.2436 182.075 65.3268 182.001 63.9538C181.983 63.6497 181.918 63.3548 181.78 63.0783C181.485 62.4885 181.015 60.7007 179.504 62.3226C179.504 62.3226 177.725 65.7323 175.043 62.8756C174.942 62.765 174.878 62.6267 174.841 62.4793L174.656 61.5486L173.762 61.4472C173.532 61.4195 173.348 61.2168 173.348 60.9864V60.0925H172.509C172.251 60.0925 172.039 59.8898 172.03 59.6225L171.846 50.4717C171.846 50.4717 175.458 46.8961 179.808 48.9327C184.148 50.9785 184.498 50.3242 185.881 56.6275Z" fill="#FFBF9C"/>
<path d="M171.757 52.5187C171.766 52.8412 171.6 53.1453 171.333 53.3296C170.66 53.7996 169.379 54.242 167.988 52.4265C165.933 49.7633 168.144 49.708 168.144 49.708C168.144 49.708 166.301 44.3262 171.84 45.4505C171.84 45.4505 174.918 39.7093 178.705 44.4737C178.705 44.4737 185.064 41.7552 185.423 47.653C185.423 47.653 189.81 50.9152 187.322 57.3015C187.183 57.6516 186.87 57.9005 186.492 57.965C185.266 58.1861 182.705 58.0755 183.193 53.1085C183.248 52.5279 183.202 51.9289 183.018 51.376C182.705 50.436 182.023 49.5606 180.65 51.5511C180.65 51.5511 178.954 53.6522 178.392 50.8876C177.83 48.123 173.111 50.2241 172.291 51.1917C171.831 51.7446 171.748 52.2146 171.757 52.5187Z" fill="#170D54"/>
<path d="M182.121 65.1254C182.121 65.1254 171.062 63.8537 170.703 74.1657L170.602 76.3221L201.058 75.7599C201.058 75.7599 202.395 64.2776 194.543 64.2776L189.991 64.4435C189.991 64.4435 189.926 68.1757 186.129 68.2218C182.333 68.2679 182.121 65.1254 182.121 65.1254Z" fill="#F79F03"/>
<path d="M274.16 252.842C274.133 252.842 274.059 253.248 274.05 253.266C273.948 253.671 273.865 254.077 273.801 254.482C273.69 255.109 273.598 255.745 273.534 256.381C273.451 257.201 273.395 258.021 273.377 258.841C273.358 259.809 273.386 260.786 273.46 261.753C273.543 262.841 273.699 263.928 273.911 264.997C274.151 266.167 274.464 267.338 274.861 268.471C275.284 269.697 275.81 270.904 276.427 272.056C277.091 273.309 277.865 274.507 278.74 275.641C279.699 276.885 280.768 278.046 281.929 279.115C283.219 280.304 284.629 281.391 286.122 282.368C286.97 282.921 287.808 283.483 288.72 283.935C289.015 284.082 289.329 284.193 289.651 284.294C289.697 284.312 290.269 284.451 290.269 284.488V294.099H199.009L198.963 285.059C198.963 285.059 213.228 282.396 216.223 253.883C216.214 253.883 274.151 252.842 274.16 252.842Z" fill="#0064B7"/>
<path d="M274.408 268.14L215.799 257.063L216.214 253.883L274.528 253.192C274.528 253.192 271.294 256.666 274.408 268.14Z" fill="#023EA1"/>
<path d="M290.258 285.057H198.952L198.934 294.097H290.258V285.057Z" fill="#023EA1"/>
<path d="M373.6 74.837H114.898C104.061 74.4868 104.061 82.8359 104.061 82.8359V209.381L107.056 257.356C107.056 257.356 358.275 256.665 371.739 256.665C385.193 256.665 385.193 246.233 385.193 246.233V241.368C385.193 241.368 385.193 95.3504 385.193 84.9186C385.193 74.4868 373.6 74.837 373.6 74.837ZM115.276 244.151L116.022 87.7016H118.261H373.223L373.969 242.759L115.276 244.151Z" fill="#0064B7"/>
<path d="M115.277 87.3531H375.841L375.472 248.327L114.152 247.977L115.277 87.3531Z" fill="#E9EEF2"/>
<path d="M358.116 109.736H131.105C130.091 109.736 129.262 108.906 129.262 107.893V94.2538C129.262 93.2401 130.091 92.4107 131.105 92.4107H358.116C359.129 92.4107 359.959 93.2401 359.959 94.2538V107.893C359.959 108.906 359.139 109.736 358.116 109.736Z" fill="white"/>
<path d="M139.722 106.64C142.781 106.64 145.26 104.148 145.26 101.074C145.26 97.9999 142.781 95.5079 139.722 95.5079C136.663 95.5079 134.184 97.9999 134.184 101.074C134.184 104.148 136.663 106.64 139.722 106.64Z" fill="#EE384E"/>
<path d="M193.863 103.544H168.023C167.009 103.544 166.18 102.714 166.18 101.701V101.056C166.18 100.042 167.009 99.2125 168.023 99.2125H193.863C194.876 99.2125 195.706 100.042 195.706 101.056V101.701C195.706 102.724 194.876 103.544 193.863 103.544Z" fill="#78C8F2"/>
<path d="M232.621 103.544H208.007C206.993 103.544 206.164 102.714 206.164 101.701V101.056C206.164 100.042 206.993 99.2125 208.007 99.2125H232.621C233.635 99.2125 234.464 100.042 234.464 101.056V101.701C234.464 102.724 233.635 103.544 232.621 103.544Z" fill="#DBE7F4"/>
<path d="M272.608 103.544H247.993C246.98 103.544 246.15 102.714 246.15 101.701V101.056C246.15 100.042 246.98 99.2125 247.993 99.2125H272.608C273.621 99.2125 274.451 100.042 274.451 101.056V101.701C274.451 102.724 273.621 103.544 272.608 103.544Z" fill="#DBE7F4"/>
<path d="M311.975 103.544H287.361C286.347 103.544 285.518 102.714 285.518 101.701V101.056C285.518 100.042 286.347 99.2125 287.361 99.2125H311.975C312.989 99.2125 313.818 100.042 313.818 101.056V101.701C313.818 102.724 312.998 103.544 311.975 103.544Z" fill="#DBE7F4"/>
<path d="M352.578 103.544H327.964C326.95 103.544 326.121 102.714 326.121 101.701V101.056C326.121 100.042 326.95 99.2125 327.964 99.2125H352.578C353.592 99.2125 354.421 100.042 354.421 101.056V101.701C354.421 102.724 353.601 103.544 352.578 103.544Z" fill="#DBE7F4"/>
<path d="M358.116 166.033H131.105C130.091 166.033 129.262 165.203 129.262 164.19V116.528C129.262 115.514 130.091 114.685 131.105 114.685H358.116C359.129 114.685 359.959 115.514 359.959 116.528V164.19C359.959 165.203 359.139 166.033 358.116 166.033Z" fill="white"/>
<path d="M244.924 160.32H136.644C135.63 160.32 134.801 159.491 134.801 158.477V121.975C134.801 120.961 135.63 120.132 136.644 120.132H244.924C245.938 120.132 246.767 120.961 246.767 121.975V158.477C246.767 159.491 245.938 160.32 244.924 160.32Z" fill="#DBE7F4"/>
<path d="M335.097 129.458H279.519C278.505 129.458 277.676 128.628 277.676 127.615V126.97C277.676 125.956 278.505 125.127 279.519 125.127H335.097C336.11 125.127 336.94 125.956 336.94 126.97V127.615C336.94 128.628 336.12 129.458 335.097 129.458Z" fill="#61BFEE"/>
<path d="M316.242 159.636H297.461C295.222 159.636 293.406 157.821 293.406 155.581C293.406 153.342 295.222 151.527 297.461 151.527H316.242C318.481 151.527 320.297 153.342 320.297 155.581C320.297 157.821 318.481 159.636 316.242 159.636Z" fill="#EE384E"/>
<path d="M349.638 138.442H263.668C262.987 138.442 262.434 137.889 262.434 137.207C262.434 136.525 262.987 135.972 263.668 135.972H349.638C350.32 135.972 350.873 136.525 350.873 137.207C350.873 137.889 350.32 138.442 349.638 138.442Z" fill="#DAE6F4"/>
<path d="M336.58 144.405H263.668C262.987 144.405 262.434 143.852 262.434 143.17C262.434 142.488 262.987 141.935 263.668 141.935H336.58C337.262 141.935 337.815 142.488 337.815 143.17C337.815 143.852 337.262 144.405 336.58 144.405Z" fill="#DAE6F4"/>
<path d="M200.525 239.535H131.097C130.083 239.535 129.254 238.705 129.254 237.691V173.442C129.254 172.428 130.083 171.599 131.097 171.599H200.525C201.539 171.599 202.369 172.428 202.369 173.442V237.691C202.369 238.714 201.548 239.535 200.525 239.535Z" fill="white"/>
<path d="M196.534 211.225H135.814C134.8 211.225 133.971 210.396 133.971 209.382V179.008C133.971 177.995 134.8 177.165 135.814 177.165H196.534C197.547 177.165 198.377 177.995 198.377 179.008V209.382C198.377 210.396 197.547 211.225 196.534 211.225Z" fill="#67C2EF"/>
<path d="M196.819 220.303H135.528C134.671 220.303 133.971 219.602 133.971 218.745C133.971 217.888 134.671 217.188 135.528 217.188H196.819C197.676 217.188 198.377 217.888 198.377 218.745C198.377 219.602 197.676 220.303 196.819 220.303Z" fill="#DAE6F4"/>
<path d="M196.819 226.282H135.528C134.671 226.282 133.971 225.582 133.971 224.725C133.971 223.868 134.671 223.167 135.528 223.167H196.819C197.676 223.167 198.377 223.868 198.377 224.725C198.377 225.582 197.676 226.282 196.819 226.282Z" fill="#DAE6F4"/>
<path d="M279.066 239.534H209.638C208.624 239.534 207.795 238.705 207.795 237.691V173.442C207.795 172.428 208.624 171.599 209.638 171.599H279.066C280.08 171.599 280.91 172.428 280.91 173.442V237.691C280.91 238.714 280.08 239.534 279.066 239.534Z" fill="white"/>
<path d="M275.077 211.225H214.357C213.343 211.225 212.514 210.396 212.514 209.382V179.008C212.514 177.995 213.343 177.165 214.357 177.165H275.077C276.09 177.165 276.92 177.995 276.92 179.008V209.382C276.92 210.396 276.09 211.225 275.077 211.225Z" fill="#EE384E"/>
<path d="M275.353 220.303H214.071C213.214 220.303 212.514 219.602 212.514 218.745C212.514 217.888 213.214 217.188 214.071 217.188H275.362C276.219 217.188 276.92 217.888 276.92 218.745C276.92 219.602 276.219 220.303 275.353 220.303Z" fill="#DAE6F4"/>
<path d="M275.353 226.282H214.071C213.214 226.282 212.514 225.582 212.514 224.725C212.514 223.868 213.214 223.167 214.071 223.167H275.362C276.219 223.167 276.92 223.868 276.92 224.725C276.92 225.582 276.219 226.282 275.353 226.282Z" fill="#DAE6F4"/>
<path d="M275.353 232.364H214.071C213.214 232.364 212.514 231.664 212.514 230.807C212.514 229.95 213.214 229.249 214.071 229.249H275.362C276.219 229.249 276.92 229.95 276.92 230.807C276.92 231.664 276.219 232.364 275.353 232.364Z" fill="#DAE6F4"/>
<path d="M358.117 239.535H288.689C287.675 239.535 286.846 238.705 286.846 237.691V173.442C286.846 172.428 287.675 171.599 288.689 171.599H358.117C359.131 171.599 359.96 172.428 359.96 173.442V237.691C359.96 238.714 359.14 239.535 358.117 239.535Z" fill="white"/>
<path d="M354.126 211.225H293.406C292.392 211.225 291.562 210.396 291.562 209.382V179.008C291.562 177.995 292.392 177.165 293.406 177.165H354.126C355.139 177.165 355.969 177.995 355.969 179.008V209.382C355.969 210.396 355.139 211.225 354.126 211.225Z" fill="#A1D2F0"/>
<path d="M354.411 220.303H293.12C292.263 220.303 291.562 219.602 291.562 218.745C291.562 217.888 292.263 217.188 293.12 217.188H354.411C355.268 217.188 355.969 217.888 355.969 218.745C355.969 219.602 355.268 220.303 354.411 220.303Z" fill="#DAE6F4"/>
<path d="M354.411 226.282H293.12C292.263 226.282 291.562 225.582 291.562 224.725C291.562 223.868 292.263 223.167 293.12 223.167H354.411C355.268 223.167 355.969 223.868 355.969 224.725C355.969 225.582 355.268 226.282 354.411 226.282Z" fill="#DAE6F4"/>
<path d="M354.411 232.364H293.12C292.263 232.364 291.562 231.664 291.562 230.807C291.562 229.95 292.263 229.249 293.12 229.249H354.411C355.268 229.249 355.969 229.95 355.969 230.807C355.969 231.664 355.268 232.364 354.411 232.364Z" fill="#DAE6F4"/>
<path d="M496.458 184.435H306.668C298.715 184.177 298.715 190.379 298.715 190.379V284.394V320.187C298.715 320.187 485.27 319.79 495.149 319.79C505.019 319.79 505.111 319.79 505.111 319.79L504.964 308.161C504.964 308.161 504.964 199.687 504.964 191.937C504.964 184.187 496.458 184.435 496.458 184.435Z" fill="#0064B7"/>
<path d="M495.52 314.593H308.927C307.913 314.593 307.084 313.764 307.084 312.75V193.531C307.084 192.518 307.913 191.688 308.927 191.688H495.52C496.533 191.688 497.363 192.518 497.363 193.531V312.741C497.363 313.764 496.533 314.593 495.52 314.593Z" fill="#E9EEF2"/>
<path d="M291.674 319.516L509.451 319.589L515.109 319.479C515.331 319.479 515.524 319.645 515.543 319.866C515.635 321.34 515.109 326.436 503.719 326.787C490.394 327.201 295.987 327.404 295.987 327.404C295.987 327.404 286.089 327.505 284.91 320.428L284.827 319.672C284.818 319.58 284.891 319.506 284.974 319.506H291.674V319.516Z" fill="#023EA1"/>
<path d="M490.284 209.4H312.64C311.626 209.4 310.797 208.571 310.797 207.557V197.439C310.797 196.425 311.626 195.596 312.64 195.596H490.284C491.298 195.596 492.127 196.425 492.127 197.439V207.557C492.127 208.58 491.307 209.4 490.284 209.4Z" fill="white"/>
<path d="M319.018 206.941C321.42 206.941 323.367 204.956 323.367 202.508C323.367 200.06 321.42 198.076 319.018 198.076C316.615 198.076 314.668 200.06 314.668 202.508C314.668 204.956 316.615 206.941 319.018 206.941Z" fill="#EE384E"/>
<path d="M402.222 188.98C402.807 188.98 403.282 188.493 403.282 187.893C403.282 187.292 402.807 186.805 402.222 186.805C401.637 186.805 401.162 187.292 401.162 187.893C401.162 188.493 401.637 188.98 402.222 188.98Z" fill="white"/>
<path d="M361.295 204.48H341.538C340.589 204.48 339.814 203.706 339.814 202.757C339.814 201.807 340.589 201.033 341.538 201.033H361.295C362.245 201.033 363.019 201.807 363.019 202.757C363.019 203.706 362.245 204.48 361.295 204.48Z" fill="#DBE7F4"/>
<path d="M391.761 204.48H372.971C372.022 204.48 371.248 203.706 371.248 202.757C371.248 201.807 372.022 201.033 372.971 201.033H391.761C392.711 201.033 393.485 201.807 393.485 202.757C393.485 203.706 392.711 204.48 391.761 204.48Z" fill="#78C8F2"/>
<path d="M423.187 204.48H404.397C403.448 204.48 402.674 203.706 402.674 202.757C402.674 201.807 403.448 201.033 404.397 201.033H423.187C424.136 201.033 424.91 201.807 424.91 202.757C424.91 203.706 424.146 204.48 423.187 204.48Z" fill="#DBE7F4"/>
<path d="M454.132 204.48H435.342C434.393 204.48 433.619 203.706 433.619 202.757C433.619 201.807 434.393 201.033 435.342 201.033H454.132C455.082 201.033 455.856 201.807 455.856 202.757C455.865 203.706 455.091 204.48 454.132 204.48Z" fill="#DBE7F4"/>
<path d="M486.054 204.48H467.264C466.315 204.48 465.541 203.706 465.541 202.757C465.541 201.807 466.315 201.033 467.264 201.033H486.054C487.004 201.033 487.778 201.807 487.778 202.757C487.778 203.706 487.004 204.48 486.054 204.48Z" fill="#DBE7F4"/>
<path d="M490.238 252.88H312.704C311.691 252.88 310.861 252.051 310.861 251.037V214.895C310.861 213.881 311.691 213.052 312.704 213.052H490.229C491.243 213.052 492.072 213.881 492.072 214.895V251.037C492.081 252.06 491.252 252.88 490.238 252.88Z" fill="white"/>
<path d="M401.317 248.446H317.052C316.038 248.446 315.209 247.616 315.209 246.603V219.113C315.209 218.099 316.038 217.27 317.052 217.27H401.317C402.331 217.27 403.16 218.099 403.16 219.113V246.603C403.16 247.625 402.331 248.446 401.317 248.446Z" fill="#A1D2F0"/>
<path d="M472.315 224.513H429.123C428.192 224.513 427.445 223.757 427.445 222.836C427.445 221.905 428.201 221.159 429.123 221.159H472.315C473.246 221.159 473.992 221.914 473.992 222.836C473.992 223.757 473.246 224.513 472.315 224.513Z" fill="#61BFEE"/>
<path d="M457.772 247.921H442.935C441.194 247.921 439.793 246.511 439.793 244.778C439.793 243.037 441.203 241.636 442.935 241.636H457.772C459.514 241.636 460.915 243.046 460.915 244.778C460.924 246.511 459.514 247.921 457.772 247.921Z" fill="#EE384E"/>
<path d="M483.98 231.48H416.431C415.897 231.48 415.473 231.047 415.473 230.522C415.473 229.987 415.906 229.564 416.431 229.564H483.98C484.514 229.564 484.938 229.997 484.938 230.522C484.938 231.047 484.505 231.48 483.98 231.48Z" fill="#DAE6F4"/>
<path d="M473.724 236.106H416.423C415.889 236.106 415.465 235.673 415.465 235.148C415.465 234.614 415.898 234.19 416.423 234.19H473.724C474.259 234.19 474.683 234.623 474.683 235.148C474.683 235.673 474.25 236.106 473.724 236.106Z" fill="#DAE6F4"/>
<path d="M366.189 311.396H312.556C311.542 311.396 310.713 310.567 310.713 309.553V260.131C310.713 259.118 311.542 258.288 312.556 258.288H366.189C367.203 258.288 368.032 259.118 368.032 260.131V309.553C368.032 310.576 367.212 311.396 366.189 311.396Z" fill="white"/>
<path d="M363.064 289.268H316.259C315.245 289.268 314.416 288.438 314.416 287.425V264.488C314.416 263.474 315.245 262.645 316.259 262.645H363.064C364.078 262.645 364.907 263.474 364.907 264.488V287.425C364.907 288.438 364.078 289.268 363.064 289.268Z" fill="#67C2EF"/>
<path d="M363.685 296.356H315.627C314.954 296.356 314.41 295.813 314.41 295.14C314.41 294.467 314.954 293.924 315.627 293.924H363.685C364.357 293.924 364.901 294.467 364.901 295.14C364.91 295.813 364.357 296.356 363.685 296.356Z" fill="#DAE6F4"/>
<path d="M363.685 301.038H315.627C314.954 301.038 314.41 300.494 314.41 299.822C314.41 299.149 314.954 298.605 315.627 298.605H363.685C364.357 298.605 364.901 299.149 364.901 299.822C364.91 300.494 364.357 301.038 363.685 301.038Z" fill="#DAE6F4"/>
<path d="M427.433 311.479H373.8C372.786 311.479 371.957 310.649 371.957 309.636V260.214C371.957 259.2 372.786 258.371 373.8 258.371H427.433C428.447 258.371 429.277 259.2 429.277 260.214V309.636C429.277 310.649 428.447 311.479 427.433 311.479Z" fill="white"/>
<path d="M424.302 289.345H377.497C376.484 289.345 375.654 288.515 375.654 287.502V264.565C375.654 263.551 376.484 262.722 377.497 262.722H424.302C425.316 262.722 426.145 263.551 426.145 264.565V287.502C426.145 288.515 425.316 289.345 424.302 289.345Z" fill="#EE384E"/>
<path d="M424.929 296.44H376.871C376.198 296.44 375.654 295.897 375.654 295.224C375.654 294.551 376.198 294.007 376.871 294.007H424.929C425.601 294.007 426.145 294.551 426.145 295.224C426.145 295.887 425.601 296.44 424.929 296.44Z" fill="#DAE6F4"/>
<path d="M424.929 301.112H376.871C376.198 301.112 375.654 300.568 375.654 299.895C375.654 299.222 376.198 298.679 376.871 298.679H424.929C425.601 298.679 426.145 299.222 426.145 299.895C426.145 300.568 425.601 301.112 424.929 301.112Z" fill="#DAE6F4"/>
<path d="M424.929 305.865H376.871C376.198 305.865 375.654 305.322 375.654 304.649C375.654 303.976 376.198 303.432 376.871 303.432H424.929C425.601 303.432 426.145 303.976 426.145 304.649C426.145 305.322 425.601 305.865 424.929 305.865Z" fill="#DAE6F4"/>
<path d="M489.98 311.479H436.347C435.333 311.479 434.504 310.649 434.504 309.636V260.214C434.504 259.2 435.333 258.371 436.347 258.371H489.98C490.994 258.371 491.823 259.2 491.823 260.214V309.636C491.823 310.649 490.994 311.479 489.98 311.479Z" fill="white"/>
<path d="M486.845 289.345H440.04C439.027 289.345 438.197 288.515 438.197 287.502V264.565C438.197 263.551 439.027 262.722 440.04 262.722H486.845C487.859 262.722 488.688 263.551 488.688 264.565V287.502C488.688 288.515 487.859 289.345 486.845 289.345Z" fill="#A1D2F0"/>
<path d="M487.472 296.44H439.414C438.741 296.44 438.197 295.897 438.197 295.224C438.197 294.551 438.741 294.007 439.414 294.007H487.472C488.144 294.007 488.688 294.551 488.688 295.224C488.688 295.887 488.144 296.44 487.472 296.44Z" fill="#DAE6F4"/>
<path d="M487.472 301.112H439.414C438.741 301.112 438.197 300.568 438.197 299.895C438.197 299.222 438.741 298.679 439.414 298.679H487.472C488.144 298.679 488.688 299.222 488.688 299.895C488.688 300.568 488.144 301.112 487.472 301.112Z" fill="#DAE6F4"/>
<path d="M487.472 305.865H439.414C438.741 305.865 438.197 305.322 438.197 304.649C438.197 303.976 438.741 303.432 439.414 303.432H487.472C488.144 303.432 488.688 303.976 488.688 304.649C488.688 305.322 488.144 305.865 487.472 305.865Z" fill="#DAE6F4"/>
<path d="M122.314 319.874H31.5432C28.9998 319.874 26.9355 317.809 26.9355 315.266V184.344C26.9355 181.8 28.9998 179.736 31.5432 179.736H122.324C124.867 179.736 126.931 181.8 126.931 184.344V315.266C126.922 317.809 124.867 319.874 122.314 319.874Z" fill="#0064B7"/>
<path d="M116.95 314.75H36.5003C33.9568 314.75 31.8926 312.686 31.8926 310.143V189.947C31.8926 187.404 33.9568 185.339 36.5003 185.339H116.96C119.503 185.339 121.567 187.404 121.567 189.947V310.143C121.558 312.695 119.503 314.75 116.95 314.75Z" fill="#E9EEF2"/>
<path d="M116.04 203.705H37.7005C36.6868 203.705 35.8574 202.876 35.8574 201.862V192.14C35.8574 191.126 36.6868 190.297 37.7005 190.297H116.04C117.054 190.297 117.883 191.126 117.883 192.14V201.862C117.883 202.876 117.054 203.705 116.04 203.705Z" fill="white"/>
<path d="M43.744 201.937C46.365 201.937 48.4899 199.812 48.4899 197.191C48.4899 194.57 46.365 192.445 43.744 192.445C41.1229 192.445 38.998 194.57 38.998 197.191C38.998 199.812 41.1229 201.937 43.744 201.937Z" fill="#EE384E"/>
<path d="M113.192 194.434H105.82C105.442 194.434 105.129 194.121 105.129 193.743C105.129 193.365 105.442 193.052 105.82 193.052H113.192C113.57 193.052 113.883 193.365 113.883 193.743C113.883 194.121 113.57 194.434 113.192 194.434Z" fill="#D0ECFB"/>
<path d="M113.192 197.016H105.82C105.442 197.016 105.129 196.702 105.129 196.324C105.129 195.947 105.442 195.633 105.82 195.633H113.192C113.57 195.633 113.883 195.947 113.883 196.324C113.883 196.702 113.57 197.016 113.192 197.016Z" fill="#D0ECFB"/>
<path d="M113.192 199.742H105.82C105.442 199.742 105.129 199.429 105.129 199.051C105.129 198.673 105.442 198.36 105.82 198.36H113.192C113.57 198.36 113.883 198.673 113.883 199.051C113.883 199.429 113.57 199.742 113.192 199.742Z" fill="#D0ECFB"/>
<path d="M116.039 233.028H37.7454C36.7317 233.028 35.9023 232.198 35.9023 231.184V209.132C35.9023 208.118 36.7317 207.289 37.7454 207.289H116.039C117.053 207.289 117.882 208.118 117.882 209.132V231.184C117.882 232.207 117.053 233.028 116.039 233.028Z" fill="white"/>
<path d="M75.2421 229.591H40.0579C39.0442 229.591 38.2148 228.762 38.2148 227.748V211.501C38.2148 210.488 39.0442 209.658 40.0579 209.658H75.2421C76.2558 209.658 77.0852 210.488 77.0852 211.501V227.748C77.0852 228.771 76.2558 229.591 75.2421 229.591Z" fill="#A1D2F0"/>
<path d="M85.7837 215.86H108.85C109.532 215.86 110.085 215.307 110.085 214.625C110.085 213.943 109.532 213.39 108.85 213.39H85.7837C85.1017 213.39 84.5488 213.943 84.5488 214.625C84.558 215.316 85.111 215.86 85.7837 215.86Z" fill="#7ACAF2"/>
<path d="M85.4084 219.169H113.607C113.948 219.169 114.225 218.892 114.225 218.551C114.225 218.21 113.948 217.934 113.607 217.934H85.4084C85.0675 217.934 84.791 218.21 84.791 218.551C84.791 218.892 85.0675 219.169 85.4084 219.169Z" fill="#ECF2F9"/>
<path d="M85.4084 222.551H108.862C109.202 222.551 109.479 222.274 109.479 221.933C109.479 221.592 109.202 221.316 108.862 221.316H85.4084C85.0675 221.316 84.791 221.592 84.791 221.933C84.791 222.283 85.0675 222.551 85.4084 222.551Z" fill="#ECF2F9"/>
<path d="M73.84 278.341H37.679C36.6653 278.341 35.8359 277.512 35.8359 276.498V238.448C35.8359 237.434 36.6653 236.605 37.679 236.605H73.84C74.8537 236.605 75.6831 237.434 75.6831 238.448V276.498C75.6831 277.521 74.8537 278.341 73.84 278.341Z" fill="white"/>
<path d="M71.5925 261.246H40.0853C39.0716 261.246 38.2422 260.416 38.2422 259.403V241.93C38.2422 240.917 39.0716 240.087 40.0853 240.087H71.5925C72.6062 240.087 73.4356 240.917 73.4356 241.93V259.403C73.4356 260.416 72.6062 261.246 71.5925 261.246Z" fill="#A1D2F0"/>
<path d="M72.7161 266.747H38.7483C38.4073 266.747 38.1309 266.471 38.1309 266.13C38.1309 265.789 38.4073 265.512 38.7483 265.512H72.7069C73.0478 265.512 73.3243 265.789 73.3243 266.13C73.3243 266.471 73.057 266.747 72.7161 266.747Z" fill="#D9E5F1"/>
<path d="M72.7069 270.388H38.7483C38.4073 270.388 38.1309 270.111 38.1309 269.77C38.1309 269.429 38.4073 269.153 38.7483 269.153H72.7069C73.0478 269.153 73.3243 269.429 73.3243 269.77C73.3243 270.111 73.0478 270.388 72.7069 270.388Z" fill="#D9E5F1"/>
<path d="M53.8891 273.973H38.7483C38.4073 273.973 38.1309 273.697 38.1309 273.356C38.1309 273.015 38.4073 272.738 38.7483 272.738H53.8799C54.2209 272.738 54.4973 273.015 54.4973 273.356C54.5065 273.697 54.2301 273.973 53.8891 273.973Z" fill="#D9E5F1"/>
<path d="M73.84 313.138H37.679C36.6653 313.138 35.8359 312.309 35.8359 311.295V283.815C35.8359 282.801 36.6653 281.972 37.679 281.972H73.84C74.8537 281.972 75.6831 282.801 75.6831 283.815V311.295C75.6831 312.309 74.8537 313.138 73.84 313.138Z" fill="white"/>
<path d="M71.5925 306.615H40.0853C39.0716 306.615 38.2422 305.785 38.2422 304.772V287.299C38.2422 286.285 39.0716 285.456 40.0853 285.456H71.5925C72.6062 285.456 73.4356 286.285 73.4356 287.299V304.772C73.4356 305.794 72.6062 306.615 71.5925 306.615Z" fill="#A1D2F0"/>
<path d="M72.7161 311.498H38.7483C38.4073 311.498 38.1309 311.221 38.1309 310.881C38.1309 310.54 38.4073 310.263 38.7483 310.263H72.7069C73.0478 310.263 73.3243 310.54 73.3243 310.881C73.3243 311.221 73.057 311.498 72.7161 311.498Z" fill="#D9E5F1"/>
<path d="M116.444 313.176H80.2825C79.2688 313.176 78.4395 312.347 78.4395 311.333V283.862C78.4395 282.848 79.2688 282.019 80.2825 282.019H116.444C117.457 282.019 118.287 282.848 118.287 283.862V311.342C118.287 312.356 117.457 313.176 116.444 313.176Z" fill="white"/>
<path d="M114.196 306.649H82.6888C81.6751 306.649 80.8457 305.82 80.8457 304.806V287.334C80.8457 286.32 81.6751 285.491 82.6888 285.491H114.196C115.21 285.491 116.039 286.32 116.039 287.334V304.806C116.039 305.829 115.21 306.649 114.196 306.649Z" fill="#DCE8F4"/>
<path d="M115.322 311.536H81.3538C81.0128 311.536 80.7363 311.26 80.7363 310.919C80.7363 310.578 81.0128 310.301 81.3538 310.301H115.312C115.653 310.301 115.93 310.578 115.93 310.919C115.93 311.26 115.663 311.536 115.322 311.536Z" fill="#D9E5F1"/>
<path d="M116.03 278.423H79.8685C78.8548 278.423 78.0254 277.593 78.0254 276.58V238.52C78.0254 237.507 78.8548 236.677 79.8685 236.677H116.03C117.043 236.677 117.873 237.507 117.873 238.52V276.57C117.873 277.593 117.052 278.423 116.03 278.423Z" fill="white"/>
<path d="M113.78 261.322H82.2728C81.2591 261.322 80.4297 260.492 80.4297 259.479V242.006C80.4297 240.993 81.2591 240.163 82.2728 240.163H113.78C114.794 240.163 115.623 240.993 115.623 242.006V259.479C115.623 260.502 114.803 261.322 113.78 261.322Z" fill="#EE384E"/>
<path d="M114.906 266.821H80.9475C80.6065 266.821 80.3301 266.544 80.3301 266.203C80.3301 265.862 80.6065 265.586 80.9475 265.586H114.906C115.247 265.586 115.524 265.862 115.524 266.203C115.524 266.544 115.247 266.821 114.906 266.821Z" fill="#D9E5F1"/>
<path d="M114.897 270.462H80.9475C80.6065 270.462 80.3301 270.186 80.3301 269.845C80.3301 269.504 80.6065 269.227 80.9475 269.227H114.906C115.247 269.227 115.524 269.504 115.524 269.845C115.514 270.186 115.238 270.462 114.897 270.462Z" fill="#D9E5F1"/>
<path d="M96.0791 274.046H80.9475C80.6065 274.046 80.3301 273.77 80.3301 273.429C80.3301 273.088 80.6065 272.812 80.9475 272.812H96.0791C96.4201 272.812 96.6965 273.088 96.6965 273.429C96.6965 273.77 96.4201 274.046 96.0791 274.046Z" fill="#D9E5F1"/>
<path d="M163.784 335.598L115.578 335.653C113.035 335.653 110.971 333.598 110.962 331.055L110.842 229.907C110.842 227.363 112.897 225.299 115.44 225.29L163.646 225.235C166.189 225.235 168.253 227.29 168.263 229.833L168.382 330.981C168.392 333.524 166.327 335.598 163.784 335.598Z" fill="#0064B7"/>
<path d="M159.443 329.337L119.78 329.384C117.237 329.384 115.173 327.329 115.163 324.785L115.053 235.516C115.053 232.973 117.108 230.908 119.651 230.899L159.314 230.853C161.858 230.853 163.922 232.908 163.931 235.451L164.042 324.721C164.051 327.264 161.987 329.328 159.443 329.337Z" fill="#E9EEF2"/>
<path d="M158.826 244.889L120.905 244.935C119.891 244.935 119.062 244.115 119.062 243.092L119.053 236.696C119.053 235.683 119.873 234.853 120.896 234.853L158.817 234.807C159.831 234.807 160.66 235.627 160.66 236.65L160.669 243.046C160.669 244.068 159.849 244.889 158.826 244.889Z" fill="white"/>
<path d="M124.067 243.451C126.067 243.451 127.689 241.83 127.689 239.829C127.689 237.829 126.067 236.208 124.067 236.208C122.067 236.208 120.445 237.829 120.445 239.829C120.445 241.83 122.067 243.451 124.067 243.451Z" fill="#EE384E"/>
<path d="M158.55 238.401L152.026 238.41C151.758 238.41 151.537 238.189 151.537 237.921C151.537 237.654 151.758 237.433 152.026 237.433L158.55 237.424C158.817 237.424 159.038 237.645 159.038 237.912C159.038 238.179 158.826 238.401 158.55 238.401Z" fill="#D0ECFB"/>
<path d="M158.55 240.236L152.026 240.246C151.758 240.246 151.537 240.024 151.537 239.757C151.537 239.49 151.758 239.269 152.026 239.269L158.55 239.26C158.817 239.26 159.038 239.481 159.038 239.748C159.048 240.015 158.826 240.236 158.55 240.236Z" fill="#D0ECFB"/>
<path d="M158.558 242.18L152.033 242.189C151.766 242.189 151.545 241.968 151.545 241.701C151.545 241.434 151.766 241.213 152.033 241.213L158.558 241.203C158.825 241.203 159.046 241.425 159.046 241.692C159.046 241.959 158.825 242.18 158.558 242.18Z" fill="#D0ECFB"/>
<path d="M158.873 283.004L120.952 283.05C119.939 283.05 119.109 282.23 119.109 281.207L119.072 250.787C119.072 249.773 119.892 248.944 120.915 248.944L158.837 248.898C159.85 248.898 160.68 249.718 160.68 250.741L160.716 281.161C160.716 282.174 159.896 282.995 158.873 283.004Z" fill="#FCFEFF"/>
<path d="M149.296 253.884L128.838 253.911C128.156 253.911 127.604 253.359 127.604 252.686C127.604 252.004 128.156 251.451 128.829 251.451L149.287 251.423C149.969 251.423 150.522 251.976 150.522 252.649C150.531 253.331 149.978 253.884 149.296 253.884Z" fill="#90D2F3"/>
<path d="M156.2 280.055L123.173 280.092C122.159 280.092 121.33 279.271 121.33 278.248L121.32 269.079C121.32 268.066 122.14 267.236 123.163 267.236L156.191 267.199C157.205 267.199 158.034 268.019 158.034 269.042L158.044 278.212C158.044 279.235 157.214 280.055 156.2 280.055Z" fill="#A1D2F0"/>
<path d="M154.329 257.883L124.14 257.919C123.43 257.919 122.85 257.339 122.85 256.629C122.85 255.92 123.43 255.339 124.14 255.339L154.329 255.302C155.039 255.302 155.619 255.883 155.619 256.592C155.619 257.302 155.039 257.883 154.329 257.883Z" fill="#ECF2F8"/>
<path d="M142.808 265.191L135.97 265.201C134.735 265.201 133.73 264.205 133.73 262.97C133.73 261.736 134.726 260.731 135.961 260.731L142.798 260.722C144.033 260.722 145.038 261.717 145.038 262.952C145.047 264.187 144.042 265.191 142.808 265.191Z" fill="#EE384E"/>
<path d="M160.706 329.369L119.228 329.415L119.182 288.766C119.182 287.752 120.002 286.923 121.025 286.923L158.817 286.877C159.831 286.877 160.66 287.697 160.66 288.72L160.706 329.369Z" fill="white"/>
<path d="M156.523 312.879L123.67 312.916C122.656 312.916 121.827 312.096 121.827 311.073L121.809 293.462C121.809 292.449 122.629 291.619 123.652 291.619L156.504 291.582C157.518 291.582 158.347 292.402 158.347 293.425L158.366 311.036C158.366 312.059 157.537 312.879 156.523 312.879Z" fill="#67C2EF"/>
<path d="M157.398 319.163L122.813 319.209C122.278 319.209 121.836 318.776 121.836 318.232C121.836 317.698 122.269 317.256 122.813 317.256L157.398 317.21C157.932 317.21 158.375 317.643 158.375 318.186C158.375 318.73 157.932 319.163 157.398 319.163Z" fill="#DAE6F4"/>
<path d="M157.408 322.905L122.823 322.951C122.288 322.951 121.846 322.518 121.846 321.974C121.846 321.439 122.279 320.997 122.823 320.997L157.408 320.951C157.942 320.951 158.385 321.384 158.385 321.928C158.375 322.472 157.942 322.905 157.408 322.905Z" fill="#DAE6F4"/>
<path d="M137.853 326.84L122.73 326.859C122.242 326.859 121.846 326.462 121.846 325.974C121.846 325.486 122.242 325.089 122.73 325.089L137.853 325.071C138.341 325.071 138.737 325.467 138.737 325.956C138.728 326.444 138.341 326.84 137.853 326.84Z" fill="#DAE6F4"/>
<path d="M165.58 75.4937C165.58 75.4937 164.658 72.0103 167.063 71.8537C169.469 71.697 169.625 73.6967 169.625 75.4384C169.625 75.4384 168.768 75.6965 168.501 75.4661C168.234 75.2357 167.736 75.4292 167.543 75.5029C167.349 75.5859 165.81 75.7886 165.58 75.4937Z" fill="#FFBF9C"/>
<path d="M190.904 75.1338C190.904 75.1338 190.443 72.7286 192.959 72.5719C195.475 72.4153 195.936 74.1109 196.037 75.3366C196.139 76.5622 195.991 77.1243 195.521 76.9216C195.07 76.7281 194.996 76.4148 194.996 76.4148C194.996 76.4148 194.802 76.5898 194.553 76.7741C194.323 76.94 193.706 76.7926 193.577 76.6175C193.457 76.4424 192.517 76.6175 192.397 76.7741C192.204 77.0137 191.374 76.8294 191.218 76.5161C191.061 76.212 190.904 75.1338 190.904 75.1338Z" fill="#FFBF9C"/>
<path d="M144.505 228.9H134.506C134.165 228.9 133.889 228.624 133.889 228.283C133.889 227.942 134.165 227.665 134.506 227.665H144.505C144.846 227.665 145.122 227.942 145.122 228.283C145.122 228.633 144.846 228.9 144.505 228.9Z" fill="white"/>
<path d="M47.026 132.536C47.026 132.536 41.4231 130.545 40.7964 135.78C40.7964 135.78 39.3681 139.576 37.9305 140.268C36.5021 140.949 32.945 142.258 33.8204 147.179C34.6959 152.1 36.0597 151.787 35.5068 154.653C34.9539 157.519 36.3178 157.832 38.3083 157.897C40.2988 157.961 40.8609 156.09 40.8609 156.09L40.2988 149.732L41.6074 139.512L45.8464 137.825C45.8464 137.825 48.0305 135.089 48.2148 134.029C48.3991 132.978 47.026 132.536 47.026 132.536Z" fill="#170856"/>
<path d="M46.2805 131.126C46.2805 131.126 45.3958 132.048 45.5986 132.214C45.8105 132.38 48.2249 133.642 48.2249 133.642C48.2249 133.642 48.9253 132.287 48.8516 131.891C48.7963 131.486 46.2805 131.126 46.2805 131.126Z" fill="#F05051"/>
<path d="M61.1076 124.288C61.2366 124.306 61.3196 124.408 61.3196 124.537C61.2827 125.753 61.0063 131.623 58.7116 133.798C58.7116 133.798 57.4952 135.383 55.1637 134.729C55.1637 134.729 53.0626 133.466 53.3852 136.037C53.7077 138.609 52.6387 141.134 51.8001 141.502C50.9615 141.88 47.5058 140.94 46.704 139.493C46.1788 138.526 45.8931 138.037 45.7641 137.825C45.7088 137.733 45.718 137.623 45.7917 137.54C46.2617 136.996 48.0495 134.803 48.8789 131.78C49.8372 128.278 49.3212 124.915 52.5466 124.214C55.3849 123.606 60.0479 124.15 61.1076 124.288Z" fill="#FFBE97"/>
<path d="M64.1281 124.001C64.1189 123.946 64.1096 123.9 64.1096 123.845C64.082 123.504 64.1189 123.153 64.082 122.813C63.9714 121.744 63.6305 120.619 62.7919 119.891C62.1652 119.357 61.3543 119.136 60.5433 119.136C60.359 119.136 60.1839 119.071 60.0641 118.933C59.5112 118.306 57.7234 116.528 55.2537 116.528C52.2679 116.528 47.1626 118.14 45.7895 123.236C45.7895 123.246 45.7895 123.255 45.7803 123.264C45.6974 123.605 43.7529 131.604 47.651 131.853C51.6413 132.102 53.254 130.139 53.1342 128.36C53.1342 128.36 51.1713 124.84 54.5073 125.743C54.5073 125.743 57.9354 126.388 60.3221 124.987C60.617 124.812 60.9949 124.923 61.1699 125.218C61.6491 126.038 62.5891 127.3 63.4738 126.241C63.7963 125.854 64.1189 125.393 64.211 124.886C64.2663 124.573 64.1649 124.296 64.1281 124.001Z" fill="#170856"/>
<path d="M45.7367 137.603C45.7367 137.603 47.6811 140.736 50.455 140.699C53.2288 140.672 53.4039 137.796 53.4039 137.796C53.4039 137.796 59.0529 142.883 58.9884 146.247C58.9239 149.61 57.8088 149.048 57.4955 150.173C57.1822 151.297 59.3662 163.194 59.3662 163.194L59.6887 163.894L43.7278 166.06C43.7278 166.06 43.1011 163.507 42.668 162.696C42.2349 161.885 39.9863 141.013 39.9863 141.013L41.0461 139.888C41.0461 139.888 42.9168 137.769 45.7367 137.603Z" fill="#DE051F"/>
<path d="M38.6774 150.228C38.6774 150.228 37.0924 139.898 41.1103 139.391C45.036 138.894 45.1005 142.128 45.2203 146.929C45.3494 151.731 45.2848 152.781 45.2848 152.781L39.0553 153.905L38.6774 150.228Z" fill="#EE384E"/>
<path d="M45.101 152.818C45.2023 152.8 45.2945 152.874 45.2945 152.966L45.6262 156.928C45.6078 157.527 45.7092 158.09 46.2713 157.859C46.5846 157.73 46.9717 157.546 47.4601 157.269C49.2387 156.274 54.6204 153.657 56.2976 152.846C56.5925 152.699 56.8137 152.441 56.9335 152.127C57.1178 151.63 57.5509 150.892 58.5554 150.607C60.1128 150.174 62.7944 150.229 62.8497 150.422C62.9142 150.607 63.2276 151.915 63.0986 152.358C62.9695 152.791 61.6702 152.422 61.6702 152.422C61.6702 152.422 59.2373 151.989 59.9285 152.855C60.3247 153.362 60.8869 153.427 61.2924 153.39C61.4582 153.381 61.5412 153.592 61.4029 153.694C61.062 153.961 60.4722 154.274 59.4861 154.413C57.6799 154.661 44.9075 163.011 44.9075 163.011C44.9075 163.011 42.4193 164.946 40.9817 159.831C39.8851 155.933 39.3506 154.551 39.1479 154.109C39.1018 154.007 39.1663 153.897 39.2769 153.878L45.101 152.818Z" fill="#FEBD96"/>
<path d="M66.3232 158.374L59.0339 161.387L58.2598 156.826L61.2271 156.641L66.3232 158.374Z" fill="#FEBD96"/>
<path d="M71.3252 143.815L82.8444 143.133L70.8829 158.2L59.8613 158.578L71.3252 143.815Z" fill="#0064B7"/>
<path d="M71.3819 157.149C71.3819 157.149 70.9488 154.412 71.8795 153.97C72.8103 153.536 73.4185 154.55 73.3632 155.048C73.2987 155.601 71.4648 157.462 71.4648 157.462L71.3819 157.149Z" fill="#FEBD96"/>
<path d="M59.6874 163.886L82.1637 172.438C82.1637 172.438 84.9652 173 85.6563 180.566C86.3382 188.131 86.9004 213.206 86.9004 213.206L86.928 214.017L81.3251 214.11L78.5236 187.385L65.2259 171.341L54.4531 164.577L59.6874 163.886Z" fill="#003EB0"/>
<path d="M43.5885 165.571L54.4994 164.585L77.4733 176.058C77.4733 176.058 83.6845 179.716 79.6942 186.342C75.7132 192.968 64.5995 213.177 64.5995 213.177L60.7751 210.321L70.5894 183.145C70.5894 183.145 70.829 181.744 67.5576 181.504C64.4981 181.283 50.03 179.873 48.1685 179.689C48.0118 179.67 47.8644 179.643 47.7077 179.587C46.5742 179.173 42.1601 177.026 43.5608 169.312L43.7267 166.05L43.5885 165.571Z" fill="#0064E1"/>
<path d="M86.9291 214.025L91.8132 216.707C92.062 216.845 92.3385 216.946 92.615 216.992C93.1402 217.075 94.0618 217.324 94.0618 218.08C94.0618 218.08 94.1908 218.955 91.8224 218.762C89.4541 218.568 81.9805 218.633 81.9805 218.633C81.9805 218.633 81.0128 218.412 81.1695 216.264L81.3262 214.117L86.9291 214.025Z" fill="#130452"/>
<path d="M64.6002 213.188C64.6002 213.188 64.6463 214.451 65.9088 216.202C66.6091 217.169 67.3648 218.1 68.1481 219.003C68.3508 219.243 68.5812 219.436 68.6826 219.731C68.7563 219.925 68.8116 220.137 68.8208 220.339C68.83 220.542 68.7839 220.763 68.6089 220.883C68.3416 221.067 67.9453 220.966 67.6597 220.892C67.5767 220.865 67.4938 220.837 67.4109 220.809C65.4941 220.127 59.7621 215.455 58.5457 214.46C58.389 214.331 58.2969 214.147 58.2969 213.944C58.2969 213.511 58.3706 212.746 58.8774 212.156C59.6239 211.281 60.785 210.331 60.785 210.331L64.6002 213.188Z" fill="#130452"/>
<path d="M253.705 258.996L257.649 258.941L262.11 258.581C262.11 258.581 262.626 261.245 260.055 261.604C257.484 261.963 253.696 262.369 253.032 262.268C252.369 262.175 253.705 258.996 253.705 258.996Z" fill="#FFBF9C"/>
<path d="M250.821 239.526C250.821 239.526 254.885 243.775 255.502 245.977C256.12 248.18 254.784 251.617 254.378 252.594C253.963 253.571 254.221 266.232 254.221 266.232L237.717 266.288L237.791 239.499L250.821 239.526Z" fill="#0064B7"/>
<path d="M260.469 226.957C260.469 226.957 260.082 230.182 259.391 232.265V233.933C259.391 234.154 259.197 234.32 258.985 234.301L257.935 234.191L257.999 235.481C258.008 235.656 257.87 235.813 257.686 235.822L256.875 235.868C256.709 235.877 256.589 236.034 256.635 236.2L256.783 236.743C256.829 236.909 256.727 237.084 256.562 237.121C255.972 237.25 254.636 237.361 253.17 236.347C251.558 235.223 250.636 235.831 250.608 236.78C250.581 237.775 251.429 240.826 250.092 241.498C248.941 242.079 245.476 241.766 244.821 241.075C244.038 240.245 244.895 238.264 245.973 237.149C246.738 236.356 248.01 227.187 249.853 226.348C251.705 225.491 260.469 226.957 260.469 226.957Z" fill="#FFBD99"/>
<path d="M241.453 252.437L241.296 258.077C241.296 258.537 241.664 258.924 242.125 258.934C242.604 258.943 243.065 258.943 244.208 258.482C246.788 257.441 253.027 254.013 253.875 253.533C253.939 253.496 253.985 253.45 254.013 253.395C254.188 253.073 254.916 251.958 256.851 252.059C259.118 252.179 259.662 252.676 259.469 253.404C259.275 254.132 259.045 254.022 259.045 254.022L259.349 254.446C259.349 254.446 259.045 255.174 258.077 255.137C257.119 255.1 255.921 254.639 255.58 254.98C255.276 255.284 245.415 261.873 243.13 263.394C242.798 263.615 242.429 263.772 242.033 263.864C240.54 264.186 237.103 264.684 236.541 262.251C235.85 259.256 235.85 252.446 235.85 252.446L241.453 252.437Z" fill="#FFBF9C"/>
<path d="M241.496 242.454C241.764 242.307 242.086 242.509 242.086 242.813L242.141 252.969C242.141 253.208 241.948 253.411 241.708 253.411C241.358 253.42 240.741 253.43 239.626 253.439C237.819 253.466 236.354 253.457 235.681 253.448C235.46 253.448 235.285 253.264 235.285 253.033L235.423 245.91C235.423 245.762 235.506 245.633 235.635 245.56L241.496 242.454Z" fill="#0083F9"/>
<path d="M244.785 225.416C244.785 225.416 246.942 215.574 254.627 218.035C254.627 218.035 258.166 219.27 259.548 222.034C259.548 222.034 264.626 222.799 263.548 226.799C262.47 230.798 260.166 228.338 260.166 228.338C260.166 228.338 259.171 226.264 258.092 227.72C257.014 229.176 254.48 230.107 253.632 228.716C252.784 227.333 251.245 226.412 250.785 228.485C250.324 230.559 242.482 244.253 238.252 246.096C234.022 247.939 231.174 244.4 232.483 239.405C233.791 234.411 244.629 226.098 244.629 226.098L244.785 225.416Z" fill="#170D54"/>
<path d="M268.468 247.155L278.568 247.413L266.109 261.154L255.76 260.794L268.468 247.155Z" fill="#14094F"/>
<path d="M269.143 257.255C269.143 257.255 270.166 259.199 269.244 259.66C268.323 260.121 267.401 260.379 266.987 259.863C266.572 259.347 266.332 257.817 266.83 257.919C267.263 258.002 267.549 258.02 267.549 258.02L267.613 257.568C267.604 257.43 267.669 257.301 267.788 257.227C268.139 257.006 268.867 256.638 269.143 257.255Z" fill="#FFBF9C"/>
<path d="M251.32 266.14L254.223 266.094L254.325 344.968L247.966 345.078L244.584 293.5L251.32 266.14Z" fill="#DE051F"/>
<path d="M237.71 266.278C237.71 266.278 237.591 268.978 237.406 270.019C237.286 270.655 233.582 276.866 236.494 284.45C236.549 284.598 236.586 284.754 236.595 284.92C236.678 286.625 237.102 296.863 234.946 302.208L223.768 338.406L228.071 341.484C228.071 341.484 242.733 310.005 243.147 308.567C243.562 307.129 252.98 276.286 251.764 267.66L251.524 266.057L237.71 266.278Z" fill="#EE384E"/>
<path d="M254.323 344.968C254.323 344.968 258.12 347.069 259.862 347.529C261.18 347.88 261.502 348.875 261.576 349.336C261.594 349.465 261.493 349.575 261.364 349.575H247.965V345.06L254.323 344.968Z" fill="#1C1457"/>
<path d="M228.069 341.484C228.069 341.484 229.193 344.664 231.552 346.562C233.911 348.46 231.552 349.686 231.552 349.686L221.71 343.512C221.673 343.493 221.655 343.466 221.636 343.429C221.517 343.198 221.065 342.212 221.563 341.226C222.125 340.102 223.765 338.406 223.765 338.406L228.069 341.484Z" fill="#1C1457"/>
<path d="M15.6391 266.008L21.4062 264.39L19.789 258.623L14.0218 260.24L15.6391 266.008Z" fill="#EE384E"/>
<path d="M402.079 86.0025L407.846 84.3852L406.228 78.618L400.461 80.2353L402.079 86.0025Z" fill="#003EB0"/>
<path d="M179.549 321.875L185.316 320.258L183.699 314.49L177.932 316.108L179.549 321.875Z" fill="#003EB0"/>
<path d="M177.379 154.071L182.595 145.04H203.449L198.233 154.071H177.379Z" fill="#3A77FD"/>
<path d="M177.379 154.071L182.595 145.04H187.47L177.379 154.071Z" fill="#1F4BAF"/>
<path d="M193.026 145.042H203.457L193.026 126.979H182.594L193.026 145.042Z" fill="#FED125"/>
<path d="M193.027 145.042H203.459L190.631 140.885L193.027 145.042Z" fill="#B5950B"/>
<path d="M172.162 145.042L177.378 154.073L187.81 136.01L182.594 126.979L172.162 145.042Z" fill="#00A95B"/>
<path d="M185.303 140.342L187.81 136.01L182.594 126.979L185.303 140.342Z" fill="#007541"/>
<path d="M490.479 108.603C489.382 108.603 488.488 109.516 488.488 110.621V126.804C488.488 127.919 489.382 128.822 490.479 128.822H502.44C503.537 128.822 504.431 127.909 504.431 126.804V113.58L499.547 108.603H490.479Z" fill="#00A457"/>
<path d="M499.547 108.603L499.611 113.69L504.431 113.57L499.547 108.603Z" fill="#78D0A8"/>
<path d="M488.488 124.463L493.409 119.523L496.331 122.804L504.431 114.786V116.242L496.331 124.269L493.409 120.979L488.488 125.919V124.463Z" fill="white"/>
<path opacity="0.7" d="M504.431 118.665V113.569L499.547 113.689L504.431 118.665Z" fill="#00743E"/>
<path d="M432.961 62.5532C431.865 62.5532 430.971 63.4655 430.971 64.5713V80.7535C430.971 81.8685 431.865 82.7716 432.961 82.7716H444.923C446.019 82.7716 446.913 81.8593 446.913 80.7535V67.5295L442.029 62.5532H432.961Z" fill="#DD4435"/>
<path d="M442.029 62.5532L442.085 67.6493L446.913 67.5295L442.029 62.5532Z" fill="#EF9D95"/>
<path d="M446.915 72.6169V67.53L442.086 67.6498L446.915 72.6169Z" fill="#BB3527"/>
<path d="M437.129 75.4094C439.292 75.4094 441.046 73.6559 441.046 71.4928C441.046 69.3298 439.292 67.5763 437.129 67.5763C434.966 67.5763 433.213 69.3298 433.213 71.4928C433.213 73.6559 434.966 75.4094 437.129 75.4094Z" fill="#F9DAD6"/>
<path opacity="0.5" d="M444.499 71.4931H436.998V78.9944H444.499V71.4931Z" fill="#B80C00"/>
<path d="M38.844 85.2344C37.7474 85.2344 36.8535 86.1467 36.8535 87.2525V103.435C36.8535 104.55 37.7474 105.453 38.844 105.453H50.8056C51.9022 105.453 52.7961 104.541 52.7961 103.435V90.2107L47.9119 85.2344H38.844Z" fill="#00A75B"/>
<path d="M47.9121 85.2344L47.9766 90.3213L52.7962 90.2107L47.9121 85.2344Z" fill="#78D0A8"/>
<path d="M52.7962 95.2976V90.2108L47.9766 90.3213L52.7962 95.2976Z" fill="#00723D"/>
<path d="M50.0444 92.7068H42.4141V93.9233H50.0444V92.7068Z" fill="white"/>
<path d="M40.0526 94.4316C40.6684 94.4316 41.1676 93.9324 41.1676 93.3166C41.1676 92.7008 40.6684 92.2015 40.0526 92.2015C39.4367 92.2015 38.9375 92.7008 38.9375 93.3166C38.9375 93.9324 39.4367 94.4316 40.0526 94.4316Z" fill="white"/>
<path d="M50.0444 95.8697H42.4141V97.0861H50.0444V95.8697Z" fill="white"/>
<path d="M40.0526 97.5938C40.6684 97.5938 41.1676 97.0946 41.1676 96.4788C41.1676 95.8629 40.6684 95.3637 40.0526 95.3637C39.4367 95.3637 38.9375 95.8629 38.9375 96.4788C38.9375 97.0946 39.4367 97.5938 40.0526 97.5938Z" fill="white"/>
<path d="M50.0444 99.0384H42.4141V100.255H50.0444V99.0384Z" fill="white"/>
<path d="M40.0526 100.763C40.6684 100.763 41.1676 100.264 41.1676 99.6481C41.1676 99.0323 40.6684 98.5331 40.0526 98.5331C39.4367 98.5331 38.9375 99.0323 38.9375 99.6481C38.9375 100.264 39.4367 100.763 40.0526 100.763Z" fill="white"/>
<path d="M210.164 33.6252C209.068 33.6252 208.174 34.5375 208.174 35.6434V51.8255C208.174 52.9406 209.068 53.8437 210.164 53.8437H222.126C223.222 53.8437 224.116 52.9314 224.116 51.8255V38.5923L219.232 33.616H210.164V33.6252Z" fill="#DD4435"/>
<path d="M219.242 33.6255L219.297 38.7124L224.126 38.5926L219.242 33.6255Z" fill="#EF9D95"/>
<path d="M224.128 43.6892V38.5931L219.299 38.7129L224.128 43.6892Z" fill="#BB3527"/>
<path d="M213.328 44.2427L215.346 46.7217L218.157 42.9894L221.797 47.9565L210.508 47.9657L213.328 44.2427Z" fill="white"/>
<path d="M2.43388 219.001C1.33725 219.001 0.443359 219.914 0.443359 221.02V237.202C0.443359 238.317 1.33725 239.22 2.43388 239.22H14.3954C15.492 239.22 16.3859 238.308 16.3859 237.202V223.978L11.5018 219.001H2.43388Z" fill="#00A357"/>
<path d="M11.502 219.001L11.5572 224.088L16.3861 223.968L11.502 219.001Z" fill="#78D0A8"/>
<path d="M16.3855 229.066V223.97L11.5566 224.09L16.3855 229.066Z" fill="#00733D"/>
<path d="M13.5033 226.144H2.60156V226.872H13.5033V226.144Z" fill="white"/>
<path d="M3.33594 234.525L3.33594 226.148L2.57105 226.148L2.57105 234.525L3.33594 234.525Z" fill="white"/>
<path d="M6.60742 234.53L6.60742 226.153L5.84253 226.153L5.84253 234.53L6.60742 234.53Z" fill="white"/>
<path d="M13.4863 234.531L13.4863 226.154L12.7214 226.154L12.7214 234.531L13.4863 234.531Z" fill="white"/>
<path d="M13.5033 228.697H2.60156V229.425H13.5033V228.697Z" fill="white"/>
<path d="M13.4849 231.251H2.60156V231.979H13.4849V231.251Z" fill="white"/>
<path d="M13.4941 233.802H2.60156V234.53H13.4941V233.802Z" fill="white"/>
<path d="M369.535 34.3345C368.439 34.3345 367.545 35.2468 367.545 36.3527V52.5348C367.545 53.6499 368.439 54.553 369.535 54.553H381.497C382.594 54.553 383.488 53.6407 383.488 52.5348V39.3108L378.603 34.3345H369.535Z" fill="#377FFC"/>
<path d="M378.604 34.3348L378.659 39.4217L383.488 39.3111L378.604 34.3348Z" fill="#9FC2FF"/>
<path d="M383.489 44.397V39.3101L378.66 39.4207L383.489 44.397Z" fill="#1E53B0"/>
<path d="M380.285 41.5329H369.457V42.6571H380.285V41.5329Z" fill="white"/>
<path d="M380.294 44.1022H369.457V45.1896H380.294V44.1022Z" fill="white"/>
<path d="M380.276 46.6566H369.457V47.744H380.276V46.6566Z" fill="white"/>
<path d="M375.935 49.2083H369.457V50.2957H375.935V49.2083Z" fill="white"/>
<path d="M541.871 198.628C546.966 198.628 551.096 194.498 551.096 189.403C551.096 184.309 546.966 180.179 541.871 180.179C536.776 180.179 532.646 184.309 532.646 189.403C532.646 194.498 536.776 198.628 541.871 198.628Z" fill="#003EB0"/>
<path d="M539.559 185.719L545.558 189.866L539.559 193.101V185.719Z" fill="white"/>
<path d="M9.22457 193.678C14.3192 193.678 18.4491 189.548 18.4491 184.454C18.4491 179.359 14.3192 175.229 9.22457 175.229C4.12998 175.229 0 179.359 0 184.454C0 189.548 4.12998 193.678 9.22457 193.678Z" fill="#FCBE42"/>
<path d="M6 182.611L9.68614 188.15L12.46 183.533" stroke="white" stroke-width="2" stroke-miterlimit="10"/>
<path d="M133.321 36.2534C132.224 36.2534 131.33 37.1657 131.33 38.2715V54.4537C131.33 55.5688 132.224 56.4719 133.321 56.4719H145.282C146.379 56.4719 147.273 55.5596 147.273 54.4537V41.2205L142.389 36.2442H133.321V36.2534Z" fill="#367EFC"/>
<path d="M142.389 36.2535L142.453 41.3403L147.273 41.2205L142.389 36.2535Z" fill="#9FC2FF"/>
<path d="M147.273 46.3167V41.2206L142.453 41.3404L147.273 46.3167Z" fill="#1E53B0"/>
<path d="M142.499 47.3859L137.965 42.4372V45.4414H131.33V49.3395H137.965V52.3437L142.499 47.3859Z" fill="white"/>
<path d="M277.989 0.00921556C276.892 0.00921556 275.998 0.921536 275.998 2.02738V18.2095C275.998 19.3246 276.892 20.2277 277.989 20.2277H289.95C291.047 20.2277 291.941 19.3154 291.941 18.2095V4.97629L287.056 0H277.989V0.00921556Z" fill="#F6B500"/>
<path d="M287.055 0.00793457L287.11 5.09481L291.939 4.97501L287.055 0.00793457Z" fill="#FFE25D"/>
<path d="M291.938 10.0628V4.97595L287.109 5.09575L291.938 10.0628Z" fill="#D79F00"/>
<path d="M285.574 5.0677H279.704C279.096 5.0677 278.607 5.55612 278.607 6.16433V11.5737C278.607 12.182 279.096 12.6704 279.704 12.6704H285.574C286.182 12.6704 286.671 12.182 286.671 11.5737V6.16433C286.671 5.55612 286.173 5.0677 285.574 5.0677ZM285.897 11.242H279.382V6.48687H285.897V11.242Z" fill="white"/>
<path d="M288.467 7.94395H282.597C281.988 7.94395 281.5 8.43237 281.5 9.04058V14.45C281.5 15.0582 281.988 15.5466 282.597 15.5466H288.467C289.075 15.5466 289.563 15.0582 289.563 14.45V9.04058C289.554 8.43237 289.066 7.94395 288.467 7.94395ZM288.78 14.1182H282.265V9.36312H288.78V14.1182Z" fill="white"/>
<path fill-rule="evenodd" clip-rule="evenodd" d="M19.0196 142.406C18.7431 140.876 18.0704 139.549 17.0106 138.407C16.5683 137.927 16.0615 137.513 15.5177 137.153C14.4948 136.49 13.3706 136.084 12.1541 135.946C12.0067 135.928 11.8592 135.928 11.7118 135.9C11.3616 135.9 11.0114 135.9 10.6613 135.9C10.652 135.928 10.6244 135.919 10.606 135.919C10.3387 135.946 10.0715 135.974 9.80423 136.02C7.85979 136.389 6.26553 137.347 5.03067 138.886C4.01698 140.158 3.45485 141.604 3.33505 143.236C3.27975 144.019 3.33505 144.802 3.51014 145.567C3.63915 146.138 3.83268 146.691 4.09071 147.217C4.10914 147.263 4.13678 147.309 4.15521 147.355C4.57912 148.184 5.12282 148.931 5.80476 149.566C6.16416 149.907 6.54199 150.212 6.95668 150.47C8.2284 151.271 9.6107 151.695 11.122 151.714C11.2142 151.714 11.2418 151.741 11.2418 151.833C11.2418 152.635 11.2418 153.446 11.2418 154.248C11.2418 154.276 11.2418 154.312 11.2418 154.349C11.2695 154.34 11.2879 154.331 11.2971 154.322C12.8084 153.612 14.1999 152.709 15.444 151.585C15.6928 151.363 15.9232 151.124 16.1536 150.884C16.255 150.783 16.3471 150.672 16.4485 150.571C16.5959 150.414 16.725 150.23 16.8724 150.064C17.0383 149.871 17.1857 149.659 17.324 149.456C17.6465 148.995 17.9322 148.516 18.1718 148C18.2916 147.742 18.4114 147.484 18.5127 147.217C18.5127 147.207 18.522 147.207 18.522 147.198C18.7984 146.47 18.9827 145.714 19.0749 144.95C19.1117 144.682 19.1302 144.406 19.1394 144.139C19.1578 143.558 19.1209 142.977 19.0196 142.406ZM8.81818 147.263C8.67995 147.299 8.54172 147.318 8.40349 147.346C8.29291 147.364 8.2284 147.299 8.18232 147.207C8.18232 146.912 8.18232 146.608 8.18232 146.313C8.19154 146.221 8.15468 146.129 8.21918 146.055C8.25605 146.019 8.29291 145.991 8.3482 145.982C8.50486 145.945 8.66152 145.908 8.79975 145.825C9.05778 145.668 9.22366 145.447 9.29738 145.152C9.3066 145.106 9.31581 145.06 9.33424 145.014C8.7076 145.014 8.08095 145.014 7.45431 145.014C7.39902 145.014 7.34373 145.014 7.29765 144.996C7.14099 144.95 7.01197 144.802 7.01197 144.636C7.01197 143.687 7.01197 142.738 7.01197 141.789C7.00276 141.641 7.01197 141.494 7.14099 141.383C7.21471 141.328 7.28843 141.291 7.38059 141.291C8.30212 141.291 9.22366 141.291 10.1544 141.291C10.4032 141.291 10.5967 141.54 10.523 141.779C10.5415 141.826 10.5415 141.872 10.5415 141.918C10.5415 142.95 10.5507 143.991 10.5415 145.023C10.5322 145.714 10.265 146.286 9.76736 146.756C9.73972 146.783 9.71207 146.802 9.69364 146.829C9.4264 147.014 9.14072 147.17 8.81818 147.263ZM13.9327 147.189C13.9235 147.189 13.9051 147.198 13.8958 147.198C13.8866 147.198 13.8866 147.207 13.8774 147.207C13.7023 147.253 13.518 147.299 13.3337 147.327C13.1955 147.346 13.0849 147.272 13.0849 147.124C13.0849 147.023 13.0849 146.922 13.0849 146.829C13.0849 146.654 13.0849 146.47 13.0941 146.295C13.0941 146.258 13.0941 146.221 13.0941 146.175C13.0941 146.037 13.1494 145.982 13.3153 145.945C13.5272 145.899 13.73 145.825 13.8958 145.668C14.0986 145.484 14.1999 145.244 14.246 144.986C13.6655 144.986 13.0849 144.986 12.5043 144.986C12.4398 144.986 12.3753 144.986 12.3108 144.986C12.0712 144.986 11.9145 144.821 11.9145 144.581C11.9145 143.641 11.9145 142.701 11.9145 141.77C11.9145 141.761 11.9145 141.752 11.9145 141.743C11.8961 141.568 11.9422 141.42 12.0988 141.328C12.1634 141.291 12.2279 141.273 12.2924 141.273C13.2139 141.273 14.1262 141.273 15.0478 141.273C15.2966 141.273 15.4901 141.521 15.4164 141.761C15.4348 141.807 15.4348 141.853 15.4348 141.899C15.4348 142.931 15.4348 143.973 15.4348 145.005C15.4348 145.926 14.8542 146.802 13.9972 147.152C13.9696 147.17 13.9511 147.18 13.9327 147.189C13.9511 147.207 13.9696 147.217 13.988 147.217C13.9604 147.217 13.9419 147.207 13.9327 147.189Z" fill="url(#paint0_linear_2106_37524)"/>
<path fill-rule="evenodd" clip-rule="evenodd" d="M13.8769 147.217C13.7018 147.263 13.5175 147.309 13.3332 147.337C13.195 147.355 13.0844 147.281 13.0844 147.134C13.0844 147.033 13.0844 146.931 13.0844 146.839C13.0844 146.664 13.0844 146.48 13.0936 146.305C13.1489 146.185 13.2595 146.166 13.3609 146.139C13.8585 146.028 14.1718 145.696 14.2455 145.19C14.2548 145.125 14.2916 145.061 14.2455 144.996C13.665 144.996 13.0844 144.996 12.5038 144.996C12.4393 144.996 12.3748 144.996 12.3103 144.996C12.0707 144.996 11.9141 144.83 11.9141 144.591C11.9141 143.651 11.9141 142.711 11.9141 141.78C11.9141 141.771 11.9141 141.761 11.9141 141.752C11.9417 141.743 11.9417 141.715 11.9509 141.697C12.0339 141.559 12.1444 141.485 12.3103 141.485C13.2226 141.485 14.135 141.485 15.0381 141.485C15.2224 141.485 15.3606 141.596 15.4159 141.771C15.4343 141.817 15.4343 141.863 15.4343 141.909C15.4343 142.941 15.4343 143.982 15.4343 145.014C15.4343 145.936 14.8538 146.811 13.9967 147.162C13.9783 147.171 13.9507 147.18 13.9322 147.189C13.923 147.189 13.9046 147.199 13.8954 147.199C13.8861 147.208 13.8769 147.208 13.8769 147.217Z" fill="white"/>
<path fill-rule="evenodd" clip-rule="evenodd" d="M9.68612 146.811C9.42809 147.013 9.14242 147.17 8.81988 147.253C8.68165 147.29 8.54342 147.308 8.40519 147.336C8.29461 147.354 8.2301 147.29 8.18402 147.198C8.18402 146.903 8.18402 146.599 8.18402 146.304C8.2301 146.193 8.34068 146.165 8.44205 146.138C8.9489 146.018 9.24379 145.714 9.32673 145.207C9.33594 145.143 9.3728 145.069 9.33594 144.995C8.7093 144.995 8.08265 144.995 7.45601 144.995C7.40072 144.995 7.34542 144.995 7.29935 144.977C7.14269 144.931 7.01367 144.783 7.01367 144.617C7.01367 143.668 7.01367 142.719 7.01367 141.77C7.07818 141.595 7.19798 141.475 7.40072 141.475C8.31304 141.475 9.23457 141.475 10.1561 141.475C10.3312 141.475 10.4786 141.585 10.5247 141.761C10.5432 141.807 10.5432 141.853 10.5432 141.899C10.5432 142.931 10.5524 143.972 10.5432 145.004C10.5339 145.696 10.2667 146.267 9.76906 146.737C9.74142 146.765 9.71377 146.792 9.68612 146.811Z" fill="white"/>
<path fill-rule="evenodd" clip-rule="evenodd" d="M10.5234 141.76C10.4773 141.585 10.3299 141.475 10.1548 141.475C9.24249 141.475 8.32095 141.475 7.39941 141.475C7.19668 141.475 7.08609 141.594 7.01237 141.77C7.00315 141.622 7.01237 141.475 7.14138 141.364C7.21511 141.309 7.28883 141.272 7.38098 141.272C8.30252 141.272 9.22405 141.272 10.1548 141.272C10.4036 141.272 10.5971 141.521 10.5234 141.76Z" fill="#50A245"/>
<path fill-rule="evenodd" clip-rule="evenodd" d="M15.4158 141.76C15.3605 141.576 15.2223 141.475 15.038 141.475C14.1257 141.475 13.2133 141.475 12.3102 141.475C12.1444 141.475 12.0338 141.548 11.9508 141.687C11.9416 141.705 11.9416 141.733 11.914 141.742C11.8955 141.567 11.9416 141.419 12.0983 141.327C12.1628 141.29 12.2273 141.272 12.2918 141.272C13.2133 141.272 14.1257 141.272 15.0472 141.272C15.2868 141.272 15.4895 141.521 15.4158 141.76Z" fill="#50A245"/>
<path fill-rule="evenodd" clip-rule="evenodd" d="M14.2359 144.997C14.282 145.061 14.2451 145.126 14.2359 145.19C14.1622 145.697 13.8581 146.02 13.3512 146.14C13.2406 146.167 13.1301 146.186 13.084 146.305C13.084 146.269 13.084 146.232 13.084 146.186C13.084 146.047 13.1393 145.992 13.3052 145.955C13.5171 145.909 13.7198 145.835 13.8857 145.679C14.0885 145.494 14.1898 145.264 14.2359 144.997Z" fill="#50A245"/>
<path fill-rule="evenodd" clip-rule="evenodd" d="M9.34368 144.997C9.38975 145.071 9.35289 145.144 9.33446 145.209C9.25152 145.725 8.95663 146.029 8.44979 146.14C8.34842 146.167 8.23783 146.186 8.19176 146.305C8.20097 146.213 8.16411 146.121 8.22862 146.047C8.26548 146.011 8.30234 145.983 8.35763 145.974C8.51429 145.937 8.67096 145.9 8.80919 145.817C9.06722 145.66 9.23309 145.439 9.30681 145.144C9.32525 145.089 9.33446 145.043 9.34368 144.997Z" fill="#50A245"/>
<path fill-rule="evenodd" clip-rule="evenodd" d="M13.877 147.217C13.887 147.217 13.887 147.207 13.897 147.207C13.887 147.207 13.877 147.207 13.877 147.217Z" fill="#58AC47"/>
<path d="M468.591 178.214C468.591 178.214 471.936 178.38 474.369 178.38C476.792 178.38 480.644 178.887 480.644 178.887C480.644 178.887 481.649 178.887 481.732 180.14C481.815 181.394 481.815 181.901 481.815 181.901C481.815 181.901 481.898 183.412 480.727 183.412C479.557 183.412 472.102 184.251 470.434 184.251C468.766 184.251 467.503 184.582 467.503 183.412C467.503 182.232 467.42 178.132 468.591 178.214Z" fill="#170856"/>
<path d="M471.356 142.8C471.356 142.8 473.531 154.854 473.697 158.033C473.863 161.213 474.204 163.645 472.103 164.899C470.011 166.152 466.573 167.322 466.573 167.322L462.307 145.805V143.289L471.356 142.8Z" fill="#FFBF99"/>
<path d="M434.439 142.127C434.439 142.127 433.268 147.574 432.927 150.329C432.596 153.094 431.84 158.448 431.757 159.71C431.674 160.973 431.508 163.055 433.766 164.65C436.024 166.244 438.456 167.166 438.456 167.166L443.064 142.137H434.439V142.127Z" fill="#FFBF99"/>
<path d="M450.964 124.803C450.964 124.803 450.964 127.31 449.885 128.388C448.807 129.466 447.379 131.254 447.379 131.254C447.379 131.254 449.885 135.198 454.908 134.654C459.921 134.12 460.824 130.535 460.824 130.535C460.824 130.535 456.078 129.908 455.534 125.43C455 120.951 454.281 120.951 454.281 120.951L450.964 124.803Z" fill="#FFB07E"/>
<path d="M447.287 114.86C447.287 114.86 447.462 120.592 450.153 125.07C452.844 129.549 456.069 127.042 457.323 124.711C458.576 122.379 461.986 114.86 461.267 112.888C460.548 110.916 450.697 110.022 450.697 110.022L447.287 114.86Z" fill="#FFBF99"/>
<path d="M460.011 118.085C460.011 118.085 461.449 117.007 461.449 118.085C461.449 119.164 460.73 120.776 459.836 120.951C458.942 121.127 459.117 120.592 459.301 119.873C459.476 119.164 460.011 118.085 460.011 118.085Z" fill="#FFBF99"/>
<path d="M447.72 120.334C448.107 120.509 448.54 120.564 448.54 119.975C448.54 118.896 447.822 117.284 446.928 117.109C446.034 116.934 446.209 117.468 446.393 118.187C446.458 118.436 446.559 118.721 446.67 118.998C446.882 119.505 447.407 120.187 447.72 120.334Z" fill="#FFBF99"/>
<path d="M447.563 117.459L447.388 115.671C447.388 115.671 449 115.846 450.788 114.058C450.788 114.058 454.29 114.851 457.064 114.593C460.022 114.325 461.293 113.514 461.293 113.514C461.293 113.514 460.796 116.906 460.307 117.882C460.307 117.882 461.736 117.283 462.27 115.671C462.805 114.058 462.703 112.344 462.703 112.344C462.703 112.344 464.676 110.731 465.21 108.944C465.21 108.944 459.837 107.69 458.225 106.612C456.612 105.534 455.718 104.824 455.718 104.824C455.718 104.824 453.212 103.387 450.705 105.359C448.198 107.331 446.586 108.409 446.586 111.81C446.577 111.81 444.245 115.035 447.563 117.459Z" fill="#170856"/>
<path d="M447.959 129.448C447.959 129.448 444.53 129.033 442.687 129.531C440.844 130.038 440.264 129.697 440.761 131.125C441.268 132.544 443.775 139.078 442.604 143.179C441.434 147.28 439.84 168.291 439.84 168.291C439.84 168.291 452.566 168.797 457.506 169.046C462.445 169.295 466.131 168.374 466.131 168.374C466.131 168.374 467.219 159.333 466.131 155.398C465.044 151.463 463.615 144.764 463.615 144.764C463.615 144.764 462.694 135.558 463.947 133.291C465.2 131.033 466.122 130.95 464.537 130.36C462.952 129.77 461.192 129.273 459.929 129.273C458.667 129.273 458.003 129.273 457.248 130.029C456.492 130.784 454.99 132.286 452.898 131.955C450.806 131.623 449.212 130.194 449.212 130.194C449.212 130.194 448.539 129.531 447.959 129.448Z" fill="#0083F9"/>
<path d="M441.886 130.155C441.886 130.155 440.716 129.565 438.956 131.076C437.067 132.698 435.694 136.182 435.021 138.357C434.348 140.531 433.934 142.706 433.934 142.706C433.934 142.706 436.357 143.959 438.873 144.042C441.389 144.125 443.057 144.291 443.057 144.291C443.057 144.291 444.144 137.758 443.895 134.827C443.647 131.915 443.223 130.911 441.886 130.155Z" fill="#023EA1"/>
<path d="M462.988 132.589C462.988 132.589 463.992 129.825 466.25 131.078C468.508 132.331 470.185 137.105 470.692 138.616C471.198 140.127 471.862 143.141 471.862 143.141C471.862 143.141 469.18 144.311 466.923 144.477C464.665 144.643 463.071 144.809 463.071 144.809C463.071 144.809 462.149 138.865 462.315 136.524C462.481 134.184 462.988 132.589 462.988 132.589Z" fill="#023EA1"/>
<path d="M444.521 170.088H461.69L452.834 172.807L444.521 170.088Z" fill="#BC0A28"/>
<path d="M429.242 165.24C429.242 165.24 460.556 175.036 467.421 177.46C467.421 177.46 469.679 178.05 469.762 179.22C469.845 180.39 469.596 182.067 469.347 182.906C469.099 183.745 468.343 184.417 467.09 184.159C465.836 183.911 437.785 178.298 426.653 175.368L423.473 174.363C423.473 174.363 421.133 173.276 421.547 170.428C421.962 167.581 424.063 165.074 425.565 164.899C427.067 164.733 429.242 165.24 429.242 165.24Z" fill="#EE384E"/>
<path d="M426.395 179.137C426.395 179.137 430.329 178.464 432.67 178.381C435.011 178.298 438.116 178.049 438.614 178.381C439.121 178.713 439.536 183.237 439.536 183.237C439.536 183.237 439.95 184.491 436.854 184.242C433.758 183.993 426.643 183.735 426.643 183.735C426.643 183.735 425.049 183.652 424.966 182.224C424.883 180.795 425.132 180.132 425.132 180.132C425.132 180.132 425.39 179.302 426.395 179.137Z" fill="#170856"/>
<path d="M445.064 175.119C445.064 175.119 464.066 169.341 470.849 167.332C477.631 165.323 481.401 163.48 483.575 166.659C485.75 169.838 485.584 173.359 483.069 174.363C480.553 175.368 460.795 179.975 452.593 181.643C444.392 183.32 439.028 184.408 438.273 184.067C437.517 183.735 436.678 181.302 436.854 179.966C437.029 178.63 437.102 178.123 438.697 177.45C440.291 176.778 445.064 175.119 445.064 175.119Z" fill="#DE051F"/>
<path d="M442.89 147.492H465.744C465.744 147.492 466.997 147.326 466.997 149.003C466.997 150.68 466.997 168.761 466.997 168.761C466.997 168.761 467.08 170.097 466.076 170.097C465.071 170.097 439.204 170.097 439.204 170.097C439.204 170.097 438.116 170.429 438.116 168.586C438.116 166.743 438.116 148.496 438.116 148.496C438.116 148.496 438.033 147.492 439.37 147.492C440.706 147.492 442.89 147.492 442.89 147.492Z" fill="#0064B7"/>
<path d="M454.009 158.647L452.391 157.352L451.095 158.97L452.714 160.266L454.009 158.647Z" fill="#569ED4"/>
<path d="M523.312 250.427L501.776 233.443C501.776 233.443 501.186 233.056 500.338 231.821C499.481 230.596 497.832 229.37 496.873 229.637L494.745 227.647C494.745 227.647 493.998 227.499 494.745 228.191C495.491 228.882 495.915 229.739 495.915 229.739C495.915 229.739 495.251 230.089 495.436 230.356C495.436 230.356 494.901 230.513 494.956 230.918C494.956 230.918 493.676 231.315 494.929 232.568C496.182 233.821 496.606 234.328 497.998 234.936C499.38 235.554 500.421 236.273 501.785 237.553C503.149 238.834 520.612 255.606 520.612 255.606L523.312 250.427Z" fill="#FFBE9B"/>
<path d="M533.383 246.16C533.383 246.16 538.277 246.04 539.041 240.557C539.806 235.074 536.093 233.185 533.973 232.07C531.853 230.945 530.554 231.13 529.614 229.591C528.674 228.061 528.315 227.646 528.315 227.646C528.315 227.646 524.334 231.784 527.117 235.461C529.9 239.147 533.383 246.16 533.383 246.16Z" fill="#180857"/>
<path d="M541.347 341.714C541.402 341.732 541.402 341.815 541.421 341.87C541.559 342.469 542.306 345.962 540.416 345.999C538.49 346.045 531.183 346.091 530.169 346.1C530.095 346.1 530.04 346.054 530.022 345.981C529.948 345.695 529.819 344.985 530.307 344.764C530.307 344.764 534.555 342.792 536.012 341.631C537.32 340.571 540.767 341.53 541.347 341.714Z" fill="#170856"/>
<path d="M522.979 341.19C523.034 341.218 523.043 341.291 523.053 341.356C523.191 342.01 523.937 345.862 522.048 345.954C520.113 346.047 511.183 345.964 510.022 345.954C509.939 345.954 509.875 345.908 509.847 345.825C509.764 345.567 509.672 344.959 510.437 344.618C510.437 344.618 515.376 342.646 517.625 341.264C519.652 340.011 522.444 340.978 522.979 341.19Z" fill="#170856"/>
<path d="M542.509 280.405L541.403 341.779L535.994 341.631L531.699 302.678L532.215 291.859L535.349 280.285L542.509 280.405Z" fill="#0064E1"/>
<path d="M536.812 280.313C536.812 280.313 531.707 306.383 530.149 309.415L523.044 341.263H517.635L520.989 280.22L536.812 280.313Z" fill="#003EB0"/>
<path d="M527.117 235.46C527.117 235.46 524.417 237.699 524.38 241.579C524.343 245.449 525.016 245.597 526.583 245.597C528.149 245.597 529.393 245.459 529.569 246.306C529.744 247.154 529.532 250.499 529.182 251.495C528.822 252.49 535.651 251.495 535.651 251.495C535.651 251.495 533.771 246.38 533.485 244.132C533.199 241.892 533.522 239.367 532.167 237.239C530.813 235.11 529.218 233.469 527.117 235.46Z" fill="#FFBE9B"/>
<path d="M528.501 252.703L523.027 249.653L520.041 255.689L526.132 260.887L528.501 252.703Z" fill="#F79F03"/>
<path d="M536.813 252.213C536.813 252.213 540.094 255.936 541.236 264.93C542.379 273.925 542.517 280.412 542.517 280.412H520.99C520.99 280.412 522.631 267.723 524.077 261.005C525.524 254.287 528.123 251.577 528.123 251.577C528.123 251.577 528.796 250.757 529.616 251.292C530.436 251.826 532.39 251.927 534.131 251.107C535.873 250.287 536.26 251.458 536.813 252.213Z" fill="#FCBE42"/>
<path d="M532.454 238.843C532.454 238.843 533.624 238.557 534.159 239.166C534.693 239.774 534.048 241.082 532.988 241.479C531.919 241.866 532.454 238.843 532.454 238.843Z" fill="#FFBE9B"/>
<path d="M529.393 263.337C529.393 263.337 526.942 280.404 525.661 285.04C524.38 289.675 522.463 294.052 522.463 294.052C522.463 294.052 521.606 296.181 522.463 296.983C523.32 297.784 525.338 298.687 525.744 297.25C526.149 295.812 526.149 292.716 526.684 292.025C527.218 291.334 531.853 280.561 533.402 274.11C534.95 267.659 535.217 264.775 535.217 264.775L529.393 263.337Z" fill="#FFBE9B"/>
<path d="M528.5 264.204C528.5 264.204 529.974 254.804 533.919 254.758C533.919 254.758 536.158 254.758 536.213 258.167C536.269 261.577 535.946 265.623 535.946 265.623L528.5 264.204Z" fill="#F79F03"/>
<path d="M59.2815 305.242C59.2815 305.242 63.0874 303.694 62.8018 299.326C62.5161 294.958 60.2675 291.852 64.9121 293.124C69.5658 294.395 71.1324 294.958 74.5053 294.248C77.8781 293.548 80.698 292.138 79.2143 296.506C77.7306 300.874 76.1364 304.542 79.6198 305.242C83.094 305.942 86.8262 303.316 87.2777 310.154C87.7293 317.001 82.2001 324.696 73.2704 324.972C64.3407 325.258 60.3966 321.553 60.3966 321.553C60.3966 321.553 58.0006 318.18 61.7328 317.342C65.465 316.512 69.2709 314.927 67.3726 313.176C65.465 311.435 59.2631 311.287 59.2631 311.287C59.2631 311.287 51.5222 309.757 59.2815 305.242Z" fill="#649EEA"/>
<path d="M100.095 306.375C99.4686 302.016 99.9478 298.873 108.057 297.685C116.167 296.496 120.885 301.361 121.383 306.375C121.88 311.388 114.831 313.194 114.831 313.194C114.831 313.194 109.827 314.622 112.361 318.99C114.895 323.358 116.047 327.588 110.297 328.224C104.537 328.86 98.2337 327.34 94.7319 324.999C91.23 322.658 87.6268 316.733 91.6447 313.636C91.6447 313.636 92.769 312.862 96.6487 312.65C100.51 312.438 100.095 306.375 100.095 306.375Z" fill="#023EA1"/>
<path d="M71.5742 305.666C71.5742 305.666 78.3014 320.889 79.223 331.257" stroke="#023EA1" stroke-miterlimit="10"/>
<path d="M108.999 308.162C108.999 308.162 97.0836 325.856 94.2637 331.772" stroke="#649EEA" stroke-miterlimit="10"/>
<path d="M75.0667 330.058H102.418C102.418 330.058 105.413 330.27 105.164 334.362C104.934 338.121 100.16 337.31 97.6904 337.31C95.2207 337.31 74.4769 337.31 74.4769 337.31C74.4769 337.31 71.1133 337.882 71.1133 334.076C71.1225 330.27 72.385 330.058 75.0667 330.058Z" fill="#0054A5"/>
<path d="M74.4766 337.311L78.6235 361.474H96.9897L100.095 343.338L74.5134 337.311H74.4766Z" fill="#0054A5"/>
<path d="M74.5137 337.311L100.095 343.338L101.128 337.311H74.5137Z" fill="#006AD5"/>
<path d="M86.2715 330.971C86.2715 330.971 87.6538 304.163 95.6435 287.336" stroke="#FCBE42" stroke-miterlimit="10"/>
<path d="M102.224 277.66C102.224 277.66 102.888 285.89 94.8519 289.106C94.8519 289.106 93.1102 282.084 102.224 277.66Z" fill="#FCBE42"/>
<path d="M90.1797 303.86C90.1797 303.86 93.1378 296.838 102.243 297.778C102.243 297.778 101.533 304.773 90.1797 303.86Z" fill="#FCBE42"/>
<path d="M87.1836 321.518C87.1836 321.518 88.7133 314.054 97.8273 313.197C97.8273 313.197 98.4908 320.2 87.1836 321.518Z" fill="#FCBE42"/>
<path d="M86.8712 321.561C86.8712 321.561 87.9309 314.014 79.6279 310.162C79.6279 310.162 76.6513 316.53 86.8712 321.561Z" fill="#FCBE42"/>
<path d="M90.2714 303.803C90.2714 303.803 92.2804 296.45 84.5395 291.565C84.5487 291.575 80.7796 297.509 90.2714 303.803Z" fill="#FCBE42"/>
<defs>
<linearGradient id="paint0_linear_2106_37524" x1="11.2246" y1="154.352" x2="11.2246" y2="135.896" gradientUnits="userSpaceOnUse">
<stop stop-color="#479843"/>
<stop offset="0.4946" stop-color="#63B946"/>
</linearGradient>
</defs>
</svg>
