<svg width="542" height="406" viewBox="0 0 542 406" fill="none" xmlns="http://www.w3.org/2000/svg">
<path d="M264.234 62.4789C264.234 62.4789 303.981 73.0439 337.106 51.9139C370.231 30.7838 375.741 1.84957 421.269 20.2188C466.797 38.5881 541.295 74.1988 519.218 109.9C497.14 145.601 454.837 171.792 483.347 202.332C483.347 202.332 530.419 226.71 521.973 257.675C507.827 309.516 475.948 336.06 427.204 344.793C378.461 353.518 127.406 347.698 84.6423 316.012C41.8785 284.326 10.578 228.28 20.6953 179.145C30.8126 130.01 76.0064 124.949 96.7018 133.213C117.397 141.477 152.51 116.215 155.364 88.2013C158.219 60.1873 169.718 36.7565 193.169 31.7041C216.619 26.6517 238.236 59.0324 264.234 62.4789Z" fill="#ECF2F5"/>
<path d="M380.683 405.549C413.5 405.549 440.104 401.752 440.104 397.068C440.104 392.384 413.5 388.587 380.683 388.587C347.866 388.587 321.262 392.384 321.262 397.068C321.262 401.752 347.866 405.549 380.683 405.549Z" fill="#ECF2F5"/>
<path d="M250.558 167.597C283.111 167.597 309.5 141.24 309.5 108.727C309.5 76.2139 283.111 49.8569 250.558 49.8569C218.005 49.8569 191.615 76.2139 191.615 108.727C191.615 141.24 218.005 167.597 250.558 167.597Z" stroke="#DE051F" stroke-miterlimit="10" stroke-dasharray="6 6"/>
<path d="M264.834 52.7545C265.8 47.6734 262.439 42.7681 257.328 41.7983C252.216 40.8285 247.288 44.1615 246.322 49.2426C245.356 54.3238 248.716 59.229 253.828 60.1988C258.94 61.1686 263.868 57.8357 264.834 52.7545Z" fill="#023EA1"/>
<path d="M252.59 47.5293L255.056 53.7907L259.654 48.8736" stroke="white" stroke-miterlimit="10"/>
<path d="M367.295 34.0589C367.295 34.0589 371.251 25.9479 364.232 22.5375C357.204 19.1271 346.87 24.6126 347.349 30.9643C347.828 37.3159 352.724 39.3549 348.614 42.4947C344.503 45.6344 334.485 55.9378 339.896 60.7105C345.307 65.4833 352.661 61.9466 353.609 71.1944C354.558 80.4331 340.393 89.6087 353.826 96.0506C367.249 102.483 392.949 107.852 392.326 84.9352C391.703 62.0097 373.808 75.8498 378.324 58.6625C382.841 41.4752 373.762 45.7517 368.65 42.3413C363.537 38.9309 367.295 34.0589 367.295 34.0589Z" stroke="#EE384E" stroke-miterlimit="10"/>
<path d="M358.93 47.0598C358.93 47.0598 368.866 68.7492 370.538 90.1229C372.209 111.497 369.065 116.341 369.065 116.341" stroke="#EE384E" stroke-miterlimit="10"/>
<path d="M410.457 30.3237C410.457 30.3237 405.525 33.7432 399.156 40.0587V52.365L394.161 45.3367C377.034 64.6082 356.393 101.049 386.248 146.521C386.248 146.53 459.129 140.097 410.457 30.3237Z" fill="#023EA1"/>
<path d="M383.664 59.267L399.165 101.599L410.457 30.3237" stroke="white" stroke-miterlimit="10"/>
<path d="M423.177 65.9614L399.166 101.599" stroke="white" stroke-miterlimit="10"/>
<path d="M478.82 143.165C478.82 143.165 478.983 135.378 485.767 135.595C492.551 135.812 498.359 144.148 495.469 148.804C492.578 153.459 487.98 153.062 489.913 157.104C491.846 161.146 495.487 173.037 489.407 174.508C483.328 175.978 479.046 170.331 474.647 177.016C470.248 183.701 477.537 196.387 464.611 195.918C451.675 195.448 429.688 189.25 439.272 171.982C448.857 154.713 457.194 172.46 460.537 157.519C463.879 142.578 469.191 149.48 474.502 148.93C479.805 148.398 478.82 143.165 478.82 143.165Z" fill="#023EA1"/>
<path d="M480.13 156.454C480.13 156.454 463.834 169.04 454.051 184.703C444.268 200.365 444.774 205.319 444.774 205.319" stroke="white" stroke-miterlimit="10" stroke-linecap="round" stroke-linejoin="round"/>
<path d="M199.573 48.7652C199.573 48.7652 202.012 40.0768 194.487 37.9836C186.962 35.8904 177.775 43.1353 179.392 49.3065C181.009 55.4777 186.194 56.5965 182.708 60.4219C179.221 64.2473 171.226 76.1747 177.414 79.9008C183.602 83.627 190.196 78.8272 192.789 87.7502C195.381 96.6732 183.105 108.24 197.468 112.164C211.831 116.089 238.073 116.757 233.348 94.3184C228.615 71.8801 213.493 88.6975 214.848 70.9779C216.203 53.2582 208.037 59.0866 202.391 56.6596C196.745 54.2326 199.573 48.7652 199.573 48.7652Z" fill="#FCBE42"/>
<path d="M193.674 63.0564C193.674 63.0564 207.35 82.6076 212.834 103.332C218.317 124.056 216.104 129.388 216.104 129.388" stroke="white" stroke-miterlimit="10" stroke-linecap="round" stroke-linejoin="round"/>
<path d="M431.875 222.353C431.875 222.353 474.377 201.665 496.138 177.151" stroke="#EE384E" stroke-miterlimit="10"/>
<path d="M507.295 159.847C507.295 159.847 493.501 164.439 493.826 179.669C493.826 179.659 506.418 177.648 507.295 159.847Z" stroke="#EE384E" stroke-miterlimit="10"/>
<path d="M473.139 197.379C473.139 197.379 482.479 187.752 474.683 173.669C474.683 173.66 463.834 179.632 473.139 197.379Z" stroke="#EE384E" stroke-miterlimit="10"/>
<path d="M446.572 214.377C446.572 214.377 457.62 206.762 452.733 191.425C452.733 191.425 440.926 195.16 446.572 214.377Z" stroke="#EE384E" stroke-miterlimit="10"/>
<path d="M446.717 214.918C446.717 214.918 458.225 208.016 470.194 218.798C470.194 218.798 461.911 228 446.717 214.918Z" stroke="#EE384E" stroke-miterlimit="10"/>
<path d="M473.158 197.19C473.158 197.19 483.691 188.88 496.934 198.047C496.934 198.047 489.897 208.224 473.158 197.19Z" stroke="#EE384E" stroke-miterlimit="10"/>
<path d="M36.8105 172.342C36.8105 172.342 27.1539 172.171 27.3165 163.835C27.4791 155.498 37.7229 148.325 43.5584 151.862C49.3849 155.399 48.9513 161.056 53.9377 158.656C58.9241 156.256 73.6123 151.745 75.5364 159.206C77.4605 166.677 70.5229 171.955 78.8697 177.341C87.2165 182.727 102.853 173.714 102.474 189.611C102.094 205.508 94.7413 232.566 73.1787 220.846C51.6162 209.126 73.5039 198.814 54.9133 194.763C36.3227 190.712 44.814 184.153 44.0462 177.63C43.2784 171.106 36.8105 172.342 36.8105 172.342Z" fill="#EE384E"/>
<path d="M53.2695 170.691C53.2695 170.691 69.1321 190.676 88.7073 202.639C108.283 214.603 114.425 213.971 114.425 213.971" stroke="white" stroke-miterlimit="10" stroke-linecap="round" stroke-linejoin="round"/>
<path d="M75.7899 129.821C75.7899 129.821 72.9443 139.781 80.9027 137.751C88.8611 135.721 93.5584 136.903 94.3443 145.095C95.1302 153.288 99.2404 157.375 104.1 157.339C108.96 157.303 117.822 155.805 118.301 167.001C118.779 178.198 121.246 199.887 109.033 201.854C96.8194 203.821 81.7428 192.2 81.3454 183.756C80.9569 175.311 85.6362 169.492 77.6507 164.529C69.6652 159.567 66.0067 167.813 60.0357 159.865C54.0737 151.916 47.3078 144.392 56.4224 133.998C64.6066 124.669 75.9525 123.965 75.7899 129.821Z" stroke="#023EA1" stroke-miterlimit="10"/>
<path d="M70.832 140.864C70.832 140.864 107.959 191.046 120.371 201.575" stroke="#023EA1" stroke-miterlimit="10"/>
<path d="M105.032 165.152L101.988 181.121L88.375 182.871" stroke="#023EA1" stroke-miterlimit="10"/>
<path d="M85.2666 143.643L81.3642 154.839L70.1719 157.69" stroke="#023EA1" stroke-miterlimit="10"/>
<path d="M110.991 313.188C143.544 313.188 169.934 286.831 169.934 254.318C169.934 221.805 143.544 195.448 110.991 195.448C78.4383 195.448 52.0488 221.805 52.0488 254.318C52.0488 286.831 78.4383 313.188 110.991 313.188Z" stroke="#003EB0" stroke-miterlimit="10" stroke-dasharray="6 6"/>
<path d="M53.2692 269.566C58.4477 269.566 62.6458 265.353 62.6458 260.156C62.6458 254.959 58.4477 250.746 53.2692 250.746C48.0906 250.746 43.8926 254.959 43.8926 260.156C43.8926 265.353 48.0906 269.566 53.2692 269.566Z" fill="#FCBE42"/>
<path d="M48.7969 259.127L53.2955 264.73L55.4815 258.378" stroke="white" stroke-miterlimit="10"/>
<path d="M432.398 337.368C464.951 337.368 491.34 311.011 491.34 278.498C491.34 245.985 464.951 219.628 432.398 219.628C399.845 219.628 373.455 245.985 373.455 278.498C373.455 311.011 399.845 337.368 432.398 337.368Z" stroke="#003EB0" stroke-miterlimit="10" stroke-dasharray="6 6"/>
<path d="M484.934 278.502L491.334 284.895L497.734 278.502L491.334 272.11L484.934 278.502Z" fill="#EE384E"/>
<path d="M297.533 30.3286L303.934 36.7209L310.334 30.3286L303.934 23.9362L297.533 30.3286Z" fill="#EE384E"/>
<path d="M58.4943 67.4353L64.8945 73.8276L71.2948 67.4353L64.8945 61.0429L58.4943 67.4353Z" fill="#003EB0"/>
<path d="M481.855 60.0609L465.306 53.3303L462.506 60.0248C461.756 58.9421 460.501 58.2294 459.082 58.2294C456.779 58.2294 454.918 60.097 454.918 62.3886C454.918 64.6893 456.788 66.5479 459.082 66.5479C459.326 66.5479 459.57 66.5208 459.805 66.4847L457.023 73.1521L464.005 76.0302C463.987 75.8678 463.969 75.7054 463.969 75.534C463.969 73.2333 465.839 71.3748 468.134 71.3748C470.428 71.3748 472.298 73.2424 472.298 75.534C472.298 76.8603 471.675 78.0332 470.717 78.791L477.366 81.5338C477.366 81.5338 481.738 70.9688 483.689 65.799C485.649 60.6383 481.855 60.0609 481.855 60.0609Z" stroke="#EE384E" stroke-miterlimit="10"/>
<path d="M487.212 27.0215L504.385 22.0864L502.443 15.1032C503.707 15.4911 505.125 15.2746 506.246 14.3995C508.052 12.9739 508.368 10.3575 506.941 8.55306C505.514 6.74861 502.894 6.43284 501.088 7.85835C500.898 8.01173 500.717 8.17413 500.564 8.35457L498.621 1.39844L491.359 3.4555C491.476 3.57279 491.584 3.69008 491.693 3.82542C493.12 5.62986 492.804 8.2463 490.997 9.67182C489.191 11.0973 486.571 10.7815 485.144 8.9771C484.322 7.93955 484.087 6.63133 484.367 5.44039L477.447 7.39821C477.447 7.39821 480.555 18.3963 482.217 23.6653C483.879 28.9343 487.212 27.0215 487.212 27.0215Z" stroke="#023EA1" stroke-miterlimit="10"/>
<path d="M461.142 91.9275H84.9668V348.51H461.142V91.9275Z" fill="#0064B7"/>
<path d="M451.26 97.5664H94.8496V337.936H451.26V97.5664Z" fill="white" stroke="#DCE8F5" stroke-miterlimit="10"/>
<path d="M451.26 97.5664H94.8496V332.298H451.26V97.5664Z" fill="white" stroke="#DCE8F5" stroke-miterlimit="10"/>
<path d="M451.26 96.3755H94.8496V326.171H451.26V96.3755Z" fill="white" stroke="#DCE8F5" stroke-miterlimit="10"/>
<path d="M162.799 172.64H124.29C122.059 172.64 120.252 170.836 120.252 168.607V165.386C120.252 163.158 122.059 161.354 124.29 161.354H162.799C165.03 161.354 166.837 163.158 166.837 165.386V168.607C166.837 170.836 165.03 172.64 162.799 172.64Z" fill="#DCE8F5"/>
<path d="M210.16 141.703H190.838C189.745 141.703 188.859 140.819 188.859 139.727V138.148C188.859 137.057 189.745 136.172 190.838 136.172H210.16C211.253 136.172 212.138 137.057 212.138 138.148V139.727C212.147 140.819 211.253 141.703 210.16 141.703Z" fill="#DCE8F5"/>
<path d="M246.367 141.703H227.045C225.952 141.703 225.066 140.819 225.066 139.727V138.148C225.066 137.057 225.952 136.172 227.045 136.172H246.367C247.46 136.172 248.345 137.057 248.345 138.148V139.727C248.345 140.819 247.46 141.703 246.367 141.703Z" fill="#DCE8F5"/>
<path d="M282.363 141.703H263.041C261.948 141.703 261.062 140.819 261.062 139.727V138.148C261.062 137.057 261.948 136.172 263.041 136.172H282.363C283.456 136.172 284.341 137.057 284.341 138.148V139.727C284.341 140.819 283.456 141.703 282.363 141.703Z" fill="#DCE8F5"/>
<path d="M318.254 141.703H298.931C297.838 141.703 296.953 140.819 296.953 139.727V138.148C296.953 137.057 297.838 136.172 298.931 136.172H318.254C319.347 136.172 320.232 137.057 320.232 138.148V139.727C320.232 140.819 319.347 141.703 318.254 141.703Z" fill="#DCE8F5"/>
<path d="M354.449 141.703H335.127C334.034 141.703 333.148 140.819 333.148 139.727V138.148C333.148 137.057 334.034 136.172 335.127 136.172H354.449C355.542 136.172 356.427 137.057 356.427 138.148V139.727C356.436 140.819 355.542 141.703 354.449 141.703Z" fill="#DCE8F5"/>
<path d="M390.447 141.703H371.125C370.032 141.703 369.146 140.819 369.146 139.727V138.148C369.146 137.057 370.032 136.172 371.125 136.172H390.447C391.54 136.172 392.425 137.057 392.425 138.148V139.727C392.425 140.819 391.54 141.703 390.447 141.703Z" fill="#DCE8F5"/>
<path d="M426.338 141.703H407.015C405.922 141.703 405.037 140.819 405.037 139.727V138.148C405.037 137.057 405.922 136.172 407.015 136.172H426.338C427.431 136.172 428.316 137.057 428.316 138.148V139.727C428.316 140.819 427.431 141.703 426.338 141.703Z" fill="#DCE8F5"/>
<path d="M162.799 204.714H124.29C122.059 204.714 120.252 202.91 120.252 200.681V197.46C120.252 195.232 122.059 193.427 124.29 193.427H162.799C165.03 193.427 166.837 195.232 166.837 197.46V200.681C166.837 202.91 165.03 204.714 162.799 204.714Z" fill="#DCE8F5"/>
<path d="M162.799 237.492H124.29C122.059 237.492 120.252 235.688 120.252 233.459V230.238C120.252 228.01 122.059 226.205 124.29 226.205H162.799C165.03 226.205 166.837 228.01 166.837 230.238V233.459C166.837 235.688 165.03 237.492 162.799 237.492Z" fill="#DCE8F5"/>
<path d="M162.799 269.566H124.29C122.059 269.566 120.252 267.762 120.252 265.533V262.312C120.252 260.084 122.059 258.279 124.29 258.279H162.799C165.03 258.279 166.837 260.084 166.837 262.312V265.533C166.837 267.762 165.03 269.566 162.799 269.566Z" fill="#DCE8F5"/>
<path d="M162.799 303.048H124.29C122.059 303.048 120.252 301.243 120.252 299.015V295.794C120.252 293.565 122.059 291.761 124.29 291.761H162.799C165.03 291.761 166.837 293.565 166.837 295.794V299.015C166.837 301.243 165.03 303.048 162.799 303.048Z" fill="#DCE8F5"/>
<path d="M200.712 175.112C205.391 175.112 209.185 171.324 209.185 166.65C209.185 161.976 205.391 158.187 200.712 158.187C196.032 158.187 192.238 161.976 192.238 166.65C192.238 171.324 196.032 175.112 200.712 175.112Z" fill="#0064B7"/>
<path d="M236.71 175.112C241.389 175.112 245.183 171.324 245.183 166.65C245.183 161.976 241.389 158.187 236.71 158.187C232.03 158.187 228.236 161.976 228.236 166.65C228.236 171.324 232.03 175.112 236.71 175.112Z" fill="#0064B7"/>
<path d="M272.698 175.112C277.378 175.112 281.171 171.324 281.171 166.65C281.171 161.976 277.378 158.187 272.698 158.187C268.018 158.187 264.225 161.976 264.225 166.65C264.225 171.324 268.018 175.112 272.698 175.112Z" fill="#0064B7"/>
<path d="M344.684 175.112C349.364 175.112 353.157 171.324 353.157 166.65C353.157 161.976 349.364 158.187 344.684 158.187C340.005 158.187 336.211 161.976 336.211 166.65C336.211 171.324 340.005 175.112 344.684 175.112Z" stroke="#0064B7" stroke-miterlimit="10"/>
<path d="M380.682 175.112C385.362 175.112 389.155 171.324 389.155 166.65C389.155 161.976 385.362 158.187 380.682 158.187C376.003 158.187 372.209 161.976 372.209 166.65C372.209 171.324 376.003 175.112 380.682 175.112Z" stroke="#0064B7" stroke-miterlimit="10"/>
<path d="M416.672 175.112C421.352 175.112 425.146 171.324 425.146 166.65C425.146 161.976 421.352 158.187 416.672 158.187C411.993 158.187 408.199 161.976 408.199 166.65C408.199 171.324 411.993 175.112 416.672 175.112Z" stroke="#0064B7" stroke-miterlimit="10"/>
<path d="M200.712 207.538C205.391 207.538 209.185 203.749 209.185 199.075C209.185 194.401 205.391 190.613 200.712 190.613C196.032 190.613 192.238 194.401 192.238 199.075C192.238 203.749 196.032 207.538 200.712 207.538Z" fill="#0064B7"/>
<path d="M236.71 207.538C241.389 207.538 245.183 203.749 245.183 199.075C245.183 194.401 241.389 190.613 236.71 190.613C232.03 190.613 228.236 194.401 228.236 199.075C228.236 203.749 232.03 207.538 236.71 207.538Z" stroke="#0064B7" stroke-miterlimit="10"/>
<path d="M272.698 207.538C277.378 207.538 281.171 203.749 281.171 199.075C281.171 194.401 277.378 190.613 272.698 190.613C268.018 190.613 264.225 194.401 264.225 199.075C264.225 203.749 268.018 207.538 272.698 207.538Z" fill="#0064B7"/>
<path d="M308.696 207.538C313.376 207.538 317.169 203.749 317.169 199.075C317.169 194.401 313.376 190.613 308.696 190.613C304.016 190.613 300.223 194.401 300.223 199.075C300.223 203.749 304.016 207.538 308.696 207.538Z" stroke="#0064B7" stroke-miterlimit="10"/>
<path d="M344.684 207.538C349.364 207.538 353.157 203.749 353.157 199.075C353.157 194.401 349.364 190.613 344.684 190.613C340.005 190.613 336.211 194.401 336.211 199.075C336.211 203.749 340.005 207.538 344.684 207.538Z" stroke="#0064B7" stroke-miterlimit="10"/>
<path d="M380.682 207.538C385.362 207.538 389.155 203.749 389.155 199.075C389.155 194.401 385.362 190.613 380.682 190.613C376.003 190.613 372.209 194.401 372.209 199.075C372.209 203.749 376.003 207.538 380.682 207.538Z" stroke="#0064B7" stroke-miterlimit="10"/>
<path d="M416.672 207.538C421.352 207.538 425.146 203.749 425.146 199.075C425.146 194.401 421.352 190.613 416.672 190.613C411.993 190.613 408.199 194.401 408.199 199.075C408.199 203.749 411.993 207.538 416.672 207.538Z" stroke="#0064B7" stroke-miterlimit="10"/>
<path d="M200.712 239.964C205.391 239.964 209.185 236.175 209.185 231.501C209.185 226.827 205.391 223.038 200.712 223.038C196.032 223.038 192.238 226.827 192.238 231.501C192.238 236.175 196.032 239.964 200.712 239.964Z" fill="#0064B7"/>
<path d="M236.71 239.964C241.389 239.964 245.183 236.175 245.183 231.501C245.183 226.827 241.389 223.038 236.71 223.038C232.03 223.038 228.236 226.827 228.236 231.501C228.236 236.175 232.03 239.964 236.71 239.964Z" fill="#0064B7"/>
<path d="M272.698 239.964C277.378 239.964 281.171 236.175 281.171 231.501C281.171 226.827 277.378 223.038 272.698 223.038C268.018 223.038 264.225 226.827 264.225 231.501C264.225 236.175 268.018 239.964 272.698 239.964Z" stroke="#0064B7" stroke-miterlimit="10"/>
<path d="M308.696 239.964C313.376 239.964 317.169 236.175 317.169 231.501C317.169 226.827 313.376 223.038 308.696 223.038C304.016 223.038 300.223 226.827 300.223 231.501C300.223 236.175 304.016 239.964 308.696 239.964Z" stroke="#0064B7" stroke-miterlimit="10"/>
<path d="M344.684 239.964C349.364 239.964 353.157 236.175 353.157 231.501C353.157 226.827 349.364 223.038 344.684 223.038C340.005 223.038 336.211 226.827 336.211 231.501C336.211 236.175 340.005 239.964 344.684 239.964Z" stroke="#0064B7" stroke-miterlimit="10"/>
<path d="M380.682 239.964C385.362 239.964 389.155 236.175 389.155 231.501C389.155 226.827 385.362 223.038 380.682 223.038C376.003 223.038 372.209 226.827 372.209 231.501C372.209 236.175 376.003 239.964 380.682 239.964Z" stroke="#0064B7" stroke-miterlimit="10"/>
<path d="M416.672 239.964C421.352 239.964 425.146 236.175 425.146 231.501C425.146 226.827 421.352 223.038 416.672 223.038C411.993 223.038 408.199 226.827 408.199 231.501C408.199 236.175 411.993 239.964 416.672 239.964Z" stroke="#0064B7" stroke-miterlimit="10"/>
<path d="M200.712 272.39C205.391 272.39 209.185 268.601 209.185 263.927C209.185 259.253 205.391 255.464 200.712 255.464C196.032 255.464 192.238 259.253 192.238 263.927C192.238 268.601 196.032 272.39 200.712 272.39Z" stroke="#0064B7" stroke-miterlimit="10"/>
<path d="M236.71 272.39C241.389 272.39 245.183 268.601 245.183 263.927C245.183 259.253 241.389 255.464 236.71 255.464C232.03 255.464 228.236 259.253 228.236 263.927C228.236 268.601 232.03 272.39 236.71 272.39Z" fill="#0064B7"/>
<path d="M272.698 272.39C277.378 272.39 281.171 268.601 281.171 263.927C281.171 259.253 277.378 255.464 272.698 255.464C268.018 255.464 264.225 259.253 264.225 263.927C264.225 268.601 268.018 272.39 272.698 272.39Z" fill="#0064B7"/>
<path d="M308.696 272.39C313.376 272.39 317.169 268.601 317.169 263.927C317.169 259.253 313.376 255.464 308.696 255.464C304.016 255.464 300.223 259.253 300.223 263.927C300.223 268.601 304.016 272.39 308.696 272.39Z" stroke="#0064B7" stroke-miterlimit="10"/>
<path d="M344.684 272.39C349.364 272.39 353.157 268.601 353.157 263.927C353.157 259.253 349.364 255.464 344.684 255.464C340.005 255.464 336.211 259.253 336.211 263.927C336.211 268.601 340.005 272.39 344.684 272.39Z" stroke="#0064B7" stroke-miterlimit="10"/>
<path d="M380.682 272.39C385.362 272.39 389.155 268.601 389.155 263.927C389.155 259.253 385.362 255.464 380.682 255.464C376.003 255.464 372.209 259.253 372.209 263.927C372.209 268.601 376.003 272.39 380.682 272.39Z" stroke="#0064B7" stroke-miterlimit="10"/>
<path d="M416.672 272.39C421.352 272.39 425.146 268.601 425.146 263.927C425.146 259.253 421.352 255.464 416.672 255.464C411.993 255.464 408.199 259.253 408.199 263.927C408.199 268.601 411.993 272.39 416.672 272.39Z" stroke="#0064B7" stroke-miterlimit="10"/>
<path d="M200.712 305.519C205.391 305.519 209.185 301.73 209.185 297.057C209.185 292.383 205.391 288.594 200.712 288.594C196.032 288.594 192.238 292.383 192.238 297.057C192.238 301.73 196.032 305.519 200.712 305.519Z" fill="#0064B7"/>
<path d="M236.71 305.519C241.389 305.519 245.183 301.73 245.183 297.057C245.183 292.383 241.389 288.594 236.71 288.594C232.03 288.594 228.236 292.383 228.236 297.057C228.236 301.73 232.03 305.519 236.71 305.519Z" fill="#0064B7"/>
<path d="M272.698 305.519C277.378 305.519 281.171 301.73 281.171 297.057C281.171 292.383 277.378 288.594 272.698 288.594C268.018 288.594 264.225 292.383 264.225 297.057C264.225 301.73 268.018 305.519 272.698 305.519Z" fill="#0064B7" stroke="#0064B7" stroke-miterlimit="10"/>
<path d="M308.696 305.519C313.376 305.519 317.169 301.73 317.169 297.057C317.169 292.383 313.376 288.594 308.696 288.594C304.016 288.594 300.223 292.383 300.223 297.057C300.223 301.73 304.016 305.519 308.696 305.519Z" stroke="#0064B7" stroke-miterlimit="10"/>
<path d="M344.684 305.519C349.364 305.519 353.157 301.73 353.157 297.057C353.157 292.383 349.364 288.594 344.684 288.594C340.005 288.594 336.211 292.383 336.211 297.057C336.211 301.73 340.005 305.519 344.684 305.519Z" stroke="#0064B7" stroke-miterlimit="10"/>
<path d="M380.682 305.519C385.362 305.519 389.155 301.73 389.155 297.057C389.155 292.383 385.362 288.594 380.682 288.594C376.003 288.594 372.209 292.383 372.209 297.057C372.209 301.73 376.003 305.519 380.682 305.519Z" stroke="#0064B7" stroke-miterlimit="10"/>
<path d="M416.672 305.519C421.352 305.519 425.146 301.73 425.146 297.057C425.146 292.383 421.352 288.594 416.672 288.594C411.993 288.594 408.199 292.383 408.199 297.057C408.199 301.73 411.993 305.519 416.672 305.519Z" stroke="#0064B7" stroke-miterlimit="10"/>
<path d="M150.071 115.187C152.994 115.187 155.364 112.82 155.364 109.9C155.364 106.98 152.994 104.613 150.071 104.613C147.147 104.613 144.777 106.98 144.777 109.9C144.777 112.82 147.147 115.187 150.071 115.187Z" fill="#023EA1"/>
<path d="M180.422 115.187C183.346 115.187 185.716 112.82 185.716 109.9C185.716 106.98 183.346 104.613 180.422 104.613C177.499 104.613 175.129 106.98 175.129 109.9C175.129 112.82 177.499 115.187 180.422 115.187Z" fill="#023EA1"/>
<path d="M211.469 115.187C214.393 115.187 216.763 112.82 216.763 109.9C216.763 106.98 214.393 104.613 211.469 104.613C208.546 104.613 206.176 106.98 206.176 109.9C206.176 112.82 208.546 115.187 211.469 115.187Z" fill="#023EA1"/>
<path d="M241.823 115.187C244.746 115.187 247.116 112.82 247.116 109.9C247.116 106.98 244.746 104.613 241.823 104.613C238.899 104.613 236.529 106.98 236.529 109.9C236.529 112.82 238.899 115.187 241.823 115.187Z" fill="#023EA1"/>
<path d="M273.583 115.187C276.506 115.187 278.876 112.82 278.876 109.9C278.876 106.98 276.506 104.613 273.583 104.613C270.659 104.613 268.289 106.98 268.289 109.9C268.289 112.82 270.659 115.187 273.583 115.187Z" fill="#023EA1"/>
<path d="M303.926 115.187C306.85 115.187 309.22 112.82 309.22 109.9C309.22 106.98 306.85 104.613 303.926 104.613C301.003 104.613 298.633 106.98 298.633 109.9C298.633 112.82 301.003 115.187 303.926 115.187Z" fill="#023EA1"/>
<path d="M334.983 115.187C337.907 115.187 340.277 112.82 340.277 109.9C340.277 106.98 337.907 104.613 334.983 104.613C332.059 104.613 329.689 106.98 329.689 109.9C329.689 112.82 332.059 115.187 334.983 115.187Z" fill="#023EA1"/>
<path d="M365.335 115.187C368.258 115.187 370.628 112.82 370.628 109.9C370.628 106.98 368.258 104.613 365.335 104.613C362.411 104.613 360.041 106.98 360.041 109.9C360.041 112.82 362.411 115.187 365.335 115.187Z" fill="#023EA1"/>
<path d="M397.086 115.187C400.01 115.187 402.38 112.82 402.38 109.9C402.38 106.98 400.01 104.613 397.086 104.613C394.163 104.613 391.793 106.98 391.793 109.9C391.793 112.82 394.163 115.187 397.086 115.187Z" fill="#023EA1"/>
<path d="M150.676 110.252H149.466C148.635 110.252 147.957 109.575 147.957 108.745V80.0453C147.957 79.2152 148.635 78.5386 149.466 78.5386H150.676C151.507 78.5386 152.185 79.2152 152.185 80.0453V108.745C152.194 109.575 151.516 110.252 150.676 110.252Z" fill="#6E839D"/>
<path d="M181.028 110.252H179.817C178.986 110.252 178.309 109.575 178.309 108.745V80.0453C178.309 79.2152 178.986 78.5386 179.817 78.5386H181.028C181.859 78.5386 182.536 79.2152 182.536 80.0453V108.745C182.536 109.575 181.859 110.252 181.028 110.252Z" fill="#6E839D"/>
<path d="M212.076 110.252H210.866C210.035 110.252 209.357 109.575 209.357 108.745V80.0453C209.357 79.2152 210.035 78.5386 210.866 78.5386H212.076C212.908 78.5386 213.585 79.2152 213.585 80.0453V108.745C213.594 109.575 212.917 110.252 212.076 110.252Z" fill="#6E839D"/>
<path d="M242.428 110.252H241.218C240.386 110.252 239.709 109.575 239.709 108.745V80.0453C239.709 79.2152 240.386 78.5386 241.218 78.5386H242.428C243.259 78.5386 243.937 79.2152 243.937 80.0453V108.745C243.937 109.575 243.259 110.252 242.428 110.252Z" fill="#6E839D"/>
<path d="M274.188 110.252H272.977C272.146 110.252 271.469 109.575 271.469 108.745V80.0453C271.469 79.2152 272.146 78.5386 272.977 78.5386H274.188C275.019 78.5386 275.696 79.2152 275.696 80.0453V108.745C275.696 109.575 275.019 110.252 274.188 110.252Z" fill="#6E839D"/>
<path d="M304.532 110.252H303.321C302.49 110.252 301.812 109.575 301.812 108.745V80.0453C301.812 79.2152 302.49 78.5386 303.321 78.5386H304.532C305.363 78.5386 306.04 79.2152 306.04 80.0453V108.745C306.049 109.575 305.372 110.252 304.532 110.252Z" fill="#6E839D"/>
<path d="M335.588 110.252H334.378C333.547 110.252 332.869 109.575 332.869 108.745V80.0453C332.869 79.2152 333.547 78.5386 334.378 78.5386H335.588C336.419 78.5386 337.097 79.2152 337.097 80.0453V108.745C337.097 109.575 336.419 110.252 335.588 110.252Z" fill="#6E839D"/>
<path d="M365.932 110.252H364.721C363.89 110.252 363.213 109.575 363.213 108.745V80.0453C363.213 79.2152 363.89 78.5386 364.721 78.5386H365.932C366.763 78.5386 367.441 79.2152 367.441 80.0453V108.745C367.45 109.575 366.772 110.252 365.932 110.252Z" fill="#6E839D"/>
<path d="M397.692 110.252H396.481C395.65 110.252 394.973 109.575 394.973 108.745V80.0453C394.973 79.2152 395.65 78.5386 396.481 78.5386H397.692C398.523 78.5386 399.2 79.2152 399.2 80.0453V108.745C399.209 109.575 398.532 110.252 397.692 110.252Z" fill="#6E839D"/>
<path d="M313.528 159.711C309.581 162.806 304.477 166.794 300.773 169.627C301.984 172.83 305.064 175.103 308.696 175.103C313.375 175.103 317.169 171.314 317.169 166.64C317.16 163.771 315.724 161.236 313.528 159.711Z" stroke="#0064B7" stroke-miterlimit="10"/>
<path d="M308.696 158.187C304.017 158.187 300.223 161.976 300.223 166.65C300.223 167.696 300.421 168.698 300.774 169.627C304.477 166.785 309.581 162.806 313.529 159.712C312.156 158.755 310.494 158.187 308.696 158.187Z" fill="#0064B7" stroke="#0064B7" stroke-miterlimit="10"/>
<path d="M113.115 46.9878H96.9456C96.6836 46.9878 96.4668 47.1953 96.4668 47.466V54.1153C96.4668 54.2417 96.521 54.3589 96.6023 54.4492L98.5083 56.3529C98.5987 56.4431 98.7161 56.4882 98.8426 56.4882H111.209C111.336 56.4882 111.453 56.4341 111.543 56.3529L113.449 54.4492C113.54 54.3589 113.585 54.2417 113.585 54.1153V47.466C113.594 47.2043 113.386 46.9878 113.115 46.9878ZM112.645 53.9169L111.019 55.5409H99.0503L97.4243 53.9169V47.9441H112.636V53.9169H112.645Z" fill="#003EB0"/>
<path d="M114.046 48.8915L95.9793 49.8388C95.7173 49.8569 95.5186 50.0734 95.5276 50.335C95.5367 50.5877 95.7535 50.7861 96.0064 50.7861C96.0154 50.7861 96.0245 50.7861 96.0335 50.7861L114.1 49.8388C114.362 49.8298 114.561 49.6042 114.552 49.3426C114.534 49.0809 114.308 48.8734 114.046 48.8915Z" fill="#003EB0"/>
<path d="M114.046 51.7425L95.9793 52.6899C95.7173 52.7079 95.5186 52.9244 95.5276 53.1861C95.5367 53.4387 95.7535 53.6372 96.0064 53.6372C96.0154 53.6372 96.0245 53.6372 96.0335 53.6372L114.1 52.6899C114.362 52.6808 114.561 52.4553 114.552 52.1936C114.534 51.932 114.308 51.7155 114.046 51.7425Z" fill="#003EB0"/>
<path d="M105.031 14.6973C96.1151 14.6973 88.8613 21.9421 88.8613 30.847C88.8613 36.4498 91.6978 41.5474 96.4674 44.5247V47.466C96.4674 47.7276 96.6842 47.9442 96.9462 47.9442H113.116C113.378 47.9442 113.595 47.7276 113.595 47.466V44.5247C118.364 41.5474 121.201 36.4589 121.201 30.847C121.201 21.9421 113.947 14.6973 105.031 14.6973ZM112.872 43.8481C112.727 43.9293 112.637 44.0917 112.637 44.2541V46.9878H97.4249V44.2541C97.4249 44.0917 97.3346 43.9293 97.1901 43.8481C92.574 41.0692 89.8098 36.2062 89.8098 30.838C89.8098 22.4564 96.639 15.6446 105.022 15.6446C113.414 15.6446 120.234 22.4654 120.234 30.838C120.252 36.2062 117.497 41.0692 112.872 43.8481Z" fill="#003EB0"/>
<path d="M109.53 55.5949C109.295 55.4777 109.015 55.5679 108.888 55.8025C108.852 55.8656 107.994 57.4445 105.031 57.4445C102.077 57.4445 101.21 55.8746 101.174 55.8025C101.057 55.5679 100.777 55.4777 100.542 55.5949C100.307 55.7122 100.207 56.0009 100.325 56.2265C100.37 56.3167 101.445 58.3918 105.031 58.3918C108.608 58.3918 109.692 56.3167 109.738 56.2265C109.855 55.9919 109.765 55.7122 109.53 55.5949Z" fill="#003EB0"/>
<path d="M84.5885 30.3689H75.0764C74.8145 30.3689 74.5977 30.5764 74.5977 30.8471C74.5977 31.1087 74.8145 31.3253 75.0764 31.3253H84.5885C84.8505 31.3253 85.0673 31.1087 85.0673 30.8471C85.0673 30.5854 84.8505 30.3689 84.5885 30.3689Z" fill="#DE051F"/>
<path d="M134.995 30.3689H125.483C125.221 30.3689 125.004 30.5854 125.004 30.8471C125.004 31.1087 125.221 31.3253 125.483 31.3253H134.995C135.257 31.3253 135.474 31.1087 135.474 30.8471C135.465 30.5854 135.257 30.3689 134.995 30.3689Z" fill="#DE051F"/>
<path d="M87.7416 40.8166C87.6151 40.591 87.317 40.5098 87.0912 40.6452L78.8528 45.3909C78.6269 45.5262 78.5456 45.8149 78.6811 46.0405C78.7715 46.1938 78.925 46.275 79.0967 46.275C79.178 46.275 79.2593 46.257 79.3315 46.2119L87.57 41.4662C87.7958 41.3399 87.8771 41.0422 87.7416 40.8166Z" fill="#DE051F"/>
<path d="M131.39 15.6445C131.255 15.4189 130.965 15.3377 130.74 15.4731L122.501 20.2187C122.275 20.3541 122.194 20.6428 122.33 20.8683C122.42 21.0217 122.573 21.1029 122.736 21.1029C122.817 21.1029 122.899 21.0849 122.971 21.0398L131.2 16.2941C131.444 16.1678 131.526 15.8791 131.39 15.6445Z" fill="#DE051F"/>
<path d="M120.253 4.52008C120.027 4.39376 119.738 4.46594 119.603 4.6915L114.851 12.9198C114.716 13.1453 114.797 13.434 115.023 13.5694C115.095 13.6145 115.176 13.6325 115.258 13.6325C115.42 13.6325 115.583 13.5513 115.673 13.3979L120.425 5.16967C120.56 4.94412 120.479 4.65541 120.253 4.52008Z" fill="#DE051F"/>
<path d="M105.039 0.451172C104.777 0.451172 104.561 0.667705 104.561 0.92935V10.4297C104.561 10.6914 104.777 10.9079 105.039 10.9079C105.301 10.9079 105.518 10.6914 105.518 10.4297V0.92935C105.509 0.667705 105.301 0.451172 105.039 0.451172Z" fill="#DE051F"/>
<path d="M95.2293 12.9199L90.4778 4.70063C90.3513 4.47508 90.0532 4.39388 89.8274 4.52921C89.6016 4.66454 89.5203 4.95326 89.6558 5.17881L94.4073 13.4071C94.4976 13.5605 94.6512 13.6417 94.8228 13.6417C94.9041 13.6417 94.9854 13.6236 95.0577 13.5785C95.2745 13.4341 95.3558 13.1454 95.2293 12.9199Z" fill="#DE051F"/>
<path d="M131.218 45.3908L122.98 40.6451C122.754 40.5188 122.465 40.5909 122.33 40.8165C122.194 41.0421 122.275 41.3308 122.501 41.4661L130.74 46.2118C130.812 46.2569 130.893 46.2749 130.974 46.2749C131.137 46.2749 131.3 46.1937 131.39 46.0404C131.526 45.8148 131.444 45.5261 131.218 45.3908Z" fill="#DE051F"/>
<path d="M87.57 20.2189L79.3315 15.4732C79.1057 15.3469 78.8166 15.4191 78.6811 15.6446C78.5456 15.8702 78.6269 16.1589 78.8528 16.2942L87.0912 21.0399C87.1635 21.085 87.2447 21.1031 87.326 21.1031C87.4886 21.1031 87.6512 21.0219 87.7416 20.8685C87.8771 20.6429 87.7958 20.3542 87.57 20.2189Z" fill="#DE051F"/>
<path d="M106.422 46.9877V31.668C106.422 31.668 106.206 24.4412 110.153 24.4412C114.101 24.4412 112.276 31.9567 104.67 31.9567" stroke="#003EB0" stroke-miterlimit="10"/>
<path d="M102.907 46.9877V31.668C102.907 31.668 103.124 24.4412 99.1767 24.4412C95.2292 24.4412 97.0539 31.9567 104.66 31.9567" stroke="#003EB0" stroke-miterlimit="10"/>
<path d="M158.056 404.376C169.69 404.376 179.122 401.33 179.122 397.573C179.122 393.816 169.69 390.771 158.056 390.771C146.422 390.771 136.99 393.816 136.99 397.573C136.99 401.33 146.422 404.376 158.056 404.376Z" fill="#ECF2F5"/>
<path d="M119.384 323.555C119.384 323.555 124.398 321.516 124.027 315.76C123.657 310.004 120.685 305.926 126.819 307.595C132.952 309.264 135.012 310.004 139.465 309.083C143.919 308.154 147.622 306.295 145.68 312.052C143.729 317.808 141.633 322.626 146.213 323.555C150.793 324.484 155.716 321.02 156.312 330.024C156.909 339.037 149.628 349.16 137.857 349.53C126.087 349.9 120.884 345.028 120.884 345.028C120.884 345.028 117.722 340.58 122.645 339.488C127.568 338.396 132.582 336.312 130.08 334.012C127.577 331.711 119.393 331.531 119.393 331.531C119.393 331.531 109.167 329.501 119.384 323.555Z" fill="#649EEA"/>
<path d="M173.187 325.044C172.356 319.305 172.997 315.164 183.683 313.612C194.37 312.061 200.594 318.457 201.244 325.044C201.895 331.63 192.608 334.021 192.608 334.021C192.608 334.021 186.014 335.897 189.356 341.654C192.699 347.41 194.216 352.976 186.628 353.806C179.04 354.646 170.739 352.643 166.105 349.557C161.48 346.471 156.737 338.676 162.04 334.598C162.04 334.598 163.53 333.579 168.634 333.299C173.738 333.019 173.187 325.044 173.187 325.044Z" fill="#023EA1"/>
<path d="M135.59 324.114C135.59 324.114 144.461 344.153 145.671 357.794" stroke="#023EA1" stroke-miterlimit="10"/>
<path d="M184.92 327.398C184.92 327.398 169.221 350.685 165.508 358.48" stroke="#649EEA" stroke-miterlimit="10"/>
<path d="M140.197 356.224H176.24C176.24 356.224 180.188 356.504 179.863 361.881C179.565 366.835 173.268 365.77 170.016 365.77C166.764 365.77 139.42 365.77 139.42 365.77C139.42 365.77 134.994 366.528 134.994 361.511C134.994 356.495 136.665 356.224 140.197 356.224Z" fill="#0054A5"/>
<path d="M139.42 365.77L144.885 397.573H169.085L173.187 373.701L139.465 365.77H139.42Z" fill="#0054A5"/>
<path d="M139.465 365.77L173.186 373.701L174.55 365.77H139.465Z" fill="#006AD5"/>
<path d="M154.967 357.424C154.967 357.424 156.792 322.129 167.324 299.989" stroke="#FCBE42" stroke-miterlimit="10"/>
<path d="M175.997 287.25C175.997 287.25 176.864 298.085 166.277 302.317C166.277 302.317 163.982 293.06 175.997 287.25Z" fill="#FCBE42"/>
<path d="M160.115 321.733C160.115 321.733 164.018 312.485 176.014 313.73C176.014 313.721 175.074 322.932 160.115 321.733Z" fill="#FCBE42"/>
<path d="M156.168 344.983C156.168 344.983 158.182 335.158 170.197 334.03C170.197 334.021 171.082 343.241 156.168 344.983Z" fill="#FCBE42"/>
<path d="M155.753 345.046C155.753 345.046 157.144 335.112 146.205 330.033C146.205 330.033 142.284 338.415 155.753 345.046Z" fill="#FCBE42"/>
<path d="M160.242 321.66C160.242 321.66 162.889 311.979 152.69 305.556C152.69 305.556 147.731 313.378 160.242 321.66Z" fill="#FCBE42"/>
<path d="M402.236 214.467L412.354 225.33C412.354 225.33 415.841 229.11 412.354 232.485C408.867 235.868 406.455 238.295 406.455 238.295L402.236 214.467Z" fill="#FFBF99"/>
<path d="M314.134 170.502L310.539 167.651C310.539 167.651 309.942 167.11 309.355 167.362C308.768 167.615 308.723 168.228 309.617 168.905C310.503 169.591 313.167 171.765 313.167 171.765L314.134 170.502Z" fill="#0064B7"/>
<path d="M314.666 169.113L312.02 172.577L325.705 190.17L335.1 177.341L314.666 169.113Z" fill="#649EEA"/>
<path d="M335.1 177.341L366.996 201.412C364.566 204.741 360.682 210.38 358.053 214.242L325.705 190.17L335.1 177.341Z" fill="#0064B7"/>
<path d="M358.055 214.242C360.683 210.38 364.568 204.732 366.998 201.412L406.311 231.077L399.861 245.341L358.055 214.242Z" fill="#649EEA"/>
<path d="M413.735 236.689L414.782 237.483C414.782 237.483 416.481 238.737 415.081 240.496C413.364 242.653 408.54 249.672 408.54 249.672C408.54 249.672 407.411 251.26 406.517 250.574C405.632 249.879 403.554 248.102 403.554 248.102L399.859 245.359L406.309 231.095L413.735 236.689Z" fill="#0064B7"/>
<path d="M382.398 264.053L397.24 387.378L407.854 386.35L409.381 260.842L382.398 264.053Z" fill="#0064E1"/>
<path d="M398.569 264.053L370.692 387.378L360.078 386.35L367.377 260.842L398.569 264.053Z" fill="#003EB0"/>
<path d="M389.4 186.958C389.4 186.958 390.312 192.092 392.245 197.244C394.178 202.396 395.154 204.462 395.154 204.462C395.154 204.462 388.858 211.481 382.742 210.326C376.627 209.171 376.717 205.084 376.717 205.084C376.717 205.084 382.444 200.609 382.579 194.483C382.715 188.357 382.715 188.357 382.715 188.357L389.4 186.958Z" fill="#FFBF99"/>
<path d="M376.925 172.893C376.925 172.893 373.764 176.908 373.61 184.062C373.456 191.217 374.369 196.342 377.431 196.414C380.502 196.477 386.681 194.573 387.747 192.552C388.813 190.531 390.864 190.576 390.954 186.489C391.044 182.402 386.13 173.1 382.038 173.01C377.946 172.911 376.925 172.893 376.925 172.893Z" fill="#FFBF99"/>
<path d="M373.853 172.821C373.853 172.821 370.962 164.583 373.031 163.6C375.1 162.626 379.147 164.755 380.149 165.801C381.152 166.848 383.194 166.893 384.214 166.911C384.214 166.911 394.44 167.137 396.445 169.221C398.451 171.305 398.424 172.334 398.406 173.353C398.388 174.373 398.306 178.378 399.273 180.526C399.688 181.455 400.185 185.659 398.053 189.701C395.921 193.743 393.853 194.718 392.823 194.7C391.802 194.682 390.881 194.654 390.8 193.635C390.718 192.525 390.348 190.964 389.869 189.53C389.408 188.159 388.939 185.425 388.939 185.425C388.939 185.425 388.026 180.291 386.03 178.207C384.025 176.123 384.025 176.123 379.96 175.004C375.877 173.894 374.811 175.915 373.853 172.821Z" fill="#170856"/>
<path d="M387.484 180.58C385.93 182.285 387.909 185.398 387.909 185.398C387.909 185.398 390.953 186.489 391.025 183.422C391.097 180.354 389.038 178.875 387.484 180.58Z" fill="#FFBF99"/>
<path d="M407.845 394.388C407.845 394.388 408.441 396.058 405 396.031C401.558 396.003 382.832 395.832 382.832 395.832C382.832 395.832 379.228 395.083 382.579 393.495C385.93 391.916 395.966 387.514 395.966 387.514C395.966 387.514 396.725 387.315 396.734 385.393L408.089 385.493L407.845 394.388Z" fill="#170856"/>
<path d="M371.261 394.388C371.261 394.388 371.857 396.058 368.416 396.031C364.974 396.003 346.248 395.832 346.248 395.832C346.248 395.832 342.644 395.083 345.995 393.495C349.346 391.916 359.382 387.514 359.382 387.514C359.382 387.514 360.141 387.315 360.15 385.393L371.505 385.493L371.261 394.388Z" fill="#170856"/>
<path d="M381.721 202.477C381.721 202.477 380.61 201.565 379.336 202.576C378.062 203.586 373.636 206.843 371.468 211.066C369.3 215.288 368.568 221.117 367.827 234.749C367.087 248.382 367.204 263.124 367.204 263.124L409.498 264.044C409.498 264.044 410.835 239.251 406.851 224.004C402.868 208.756 396.897 203.46 395.569 202.793C394.241 202.134 392.913 203.451 392.913 203.451C392.913 203.451 387.105 208.783 381.721 202.477Z" fill="#FCBE42"/>
<path d="M364.261 215.369L354.938 225.447C354.938 225.447 354.161 226.999 352.608 224.671C351.054 222.344 344.839 211.49 344.839 208.386C344.839 205.283 344.839 202.955 344.062 201.403C343.285 199.851 341.732 197.523 341.732 197.523C341.732 197.523 340.178 195.196 340.178 196.748C340.178 198.299 340.178 200.627 339.401 200.627C338.624 200.627 333.963 195.972 333.963 195.972C333.963 195.972 333.963 203.731 335.517 204.507C337.07 205.283 339.401 206.834 339.401 209.162C339.401 211.49 346.393 231.655 347.946 234.758C349.5 237.862 352.608 237.862 355.715 236.31C358.823 234.758 372.02 223.904 372.02 223.904L364.261 215.369Z" fill="#FFBF99"/>
<path d="M361.812 215.712C361.812 215.712 375.787 202.531 382.002 207.177C388.217 211.833 371.135 227.342 371.135 227.342C371.135 227.342 362.589 218.807 361.812 215.712Z" fill="#F79F03"/>
</svg>
