<svg width="471" height="314" viewBox="0 0 471 314" fill="none" xmlns="http://www.w3.org/2000/svg">
<path d="M441.185 212.505C441.733 212.978 443.526 212.802 445.3 211.559C447.261 210.196 448.385 210.938 448.413 212.088C448.45 213.303 447.028 217.364 448.654 218.171C450.057 218.866 457.461 217.698 458.26 216.863C459.217 215.853 456.495 213.293 455.185 211.949C454.256 210.984 451.562 200.478 449.323 199.449C447.084 198.42 436.438 200.191 436.438 200.191C436.438 200.191 436.902 204.104 437.747 206.617C437.738 206.626 439.448 211.012 441.185 212.505Z" fill="#FFBD99"/>
<path d="M455.474 198.327C455.474 198.327 452.863 186.402 443.527 189.378C443.527 189.378 439.234 190.871 437.553 194.228C437.553 194.228 431.393 195.165 432.694 200.005C434.004 204.855 436.8 201.869 436.8 201.869C436.8 201.869 438.017 199.356 439.318 201.127C440.628 202.898 443.703 204.02 444.734 202.342C445.766 200.664 447.633 199.542 448.19 202.064C448.748 204.577 460.184 219.766 465.312 222C470.45 224.235 472.001 221.351 470.413 215.296C468.824 209.241 455.66 199.171 455.66 199.171L455.474 198.327Z" fill="#170D54"/>
<path d="M370.596 209.343C370.596 209.343 384.141 210.141 378.241 210.929C372.342 211.726 364.222 211.726 361.352 211.402C358.49 211.086 368.366 209.501 370.596 209.343Z" fill="#0064B7"/>
<path d="M371.532 211.133L371.727 248.864C371.727 248.864 377.59 249.012 378.63 250.385C379.671 251.757 378.463 252.62 372.433 252.471C366.404 252.323 362.781 252.341 362.781 252.341C362.781 252.341 359.845 252.008 363.292 250.274C366.738 248.54 369.498 249.04 369.498 249.04L369.693 211.179L371.532 211.133Z" fill="#0064B7"/>
<path d="M367.875 152.25C367.875 152.25 369.519 147.678 365.478 146.464C365.478 146.464 364.307 139.574 358.807 142.69C358.389 142.921 357.915 142.959 357.488 142.745C356.03 142.022 352.797 138.526 350.558 143.886C350.381 144.303 349.954 144.47 349.564 144.489C347.91 144.553 343.924 145.203 347.195 150.126C347.195 150.126 348.709 151.953 351.236 152.102C351.236 152.102 362.969 160.169 366.379 158.806C369.77 157.424 369.64 153.771 367.875 152.25Z" fill="#2C2477"/>
<path d="M356.679 149.922C356.512 149.867 350.269 147.864 351.254 153.418V153.428C351.244 153.576 351.068 158.555 355.063 161.421C355.118 161.458 355.174 161.504 355.221 161.56C355.472 161.829 356.558 162.784 358.314 161.189C359.94 159.715 360.479 160.735 360.655 161.161C360.702 161.272 360.767 161.393 360.823 161.495C361.074 161.949 361.845 163.034 361.334 163.776C360.795 164.555 360.117 165.519 359.94 165.779C359.922 165.807 359.94 165.844 359.968 165.844C360.878 165.788 370.011 165.195 369.788 163.173C369.788 163.173 369.24 160.939 369.24 160.929L369.073 160.892C369.045 160.883 369.017 160.874 368.989 160.855L366.137 158.759C366.127 158.759 366.127 158.75 366.118 158.75C365.932 158.769 363.192 159.01 362.216 157.832C362.216 157.832 360.999 156.441 360.433 154.642C360.265 154.104 360.349 153.502 360.665 153.075C361.139 152.445 361.64 151.295 360.451 150.479C360.451 150.479 359.522 149.793 358.677 150.822L358.565 150.961C358.482 151.063 358.361 151.081 358.259 151.007L356.679 149.922C356.689 149.922 356.689 149.922 356.679 149.922Z" fill="#FFBF9C"/>
<path d="M369.257 160.929C369.257 160.929 365.095 164.787 360.367 165.223C360.367 165.223 357.784 168.088 357.403 174.338C357.022 180.588 356.771 194.59 357.152 195.499C357.533 196.407 379.737 196.259 379.737 196.259C379.737 196.259 378.093 173.568 375.445 168.848C375.445 168.848 371.534 161.996 369.257 160.929Z" fill="#DE051F"/>
<path d="M371.255 177.834C371.255 177.834 370.874 186.207 370.121 189.258C369.369 192.299 368.988 193.672 365.829 194.126C362.671 194.58 354.346 195.192 352.711 194.886C351.067 194.58 345.771 195.934 345.771 195.934C345.771 195.934 344.127 196.389 344.006 195.322C343.886 194.256 342.111 195.174 341.99 195.628C341.86 196.083 340.978 196.695 340.727 195.48C340.476 194.265 340.597 192.735 342.743 192.281C344.889 191.826 346.905 192.281 349.181 192.457C351.206 192.615 352.563 191.984 352.962 191.984L363.181 189.703C363.181 189.703 364.445 189.249 364.696 187.422C364.947 185.595 364.947 177.676 364.947 177.676L371.255 177.834Z" fill="#FFBF9C"/>
<path d="M372.269 178.742H364.214C364.121 172.808 364.688 167.17 367.856 167.161C367.856 167.17 372.269 166.168 372.269 178.742Z" fill="#EE384E"/>
<path d="M334.439 207.368C334.439 207.368 332.098 221.37 331.782 224.894C331.457 228.38 329.775 239.647 329.775 239.647L334.95 239.498L339.363 220.313L334.439 207.368Z" fill="#0064E1"/>
<path d="M379.625 194.785C379.718 195.415 380.275 204.836 379.355 207.22C378.519 209.399 376.327 210.113 372.416 210.419C369.108 210.678 351.968 209.797 346.765 209.501C346.059 209.464 345.548 210.289 345.771 211.086L353.482 238.432L348.939 240.871C348.939 240.871 338.469 221.685 336.824 217.114C335.18 212.542 332.913 204.632 333.043 202.796C333.043 202.796 332.662 199.291 336.574 198.837C340.411 198.392 352.637 196.037 353.092 195.944C353.101 195.944 353.11 195.944 353.12 195.944L357.133 195.489C357.142 195.489 357.152 195.489 357.161 195.489L379.625 194.785Z" fill="#003EB0"/>
<path d="M352.777 194.951C353.121 194.877 354.264 194.942 354.255 195.795C354.245 196.574 352.861 196.676 352.61 196.713C352.415 196.741 336.77 198.994 335.758 199.143C335.73 199.152 335.693 199.152 335.665 199.161C335.405 199.217 333.974 199.449 333.054 197.937C332.097 196.351 324.479 184.816 323.662 183.583C323.624 183.527 323.587 183.471 323.541 183.416C323.383 183.221 322.937 182.563 323.467 181.802C324.098 180.884 325.111 182.414 325.111 182.414L334.299 196.963C334.513 197.297 334.801 197.548 335.135 197.65H335.144C335.284 197.687 335.423 197.696 335.563 197.668" fill="#0064B7"/>
<path d="M329.811 239.471C329.802 239.471 329.783 239.471 329.774 239.48C329.495 239.74 325.277 243.634 323.085 244.515C322.871 244.599 322.667 244.691 322.463 244.784C322.295 244.858 322.137 244.942 321.979 245.034C321.859 245.109 321.738 245.183 321.617 245.266C321.534 245.331 321.45 245.396 321.366 245.47C321.311 245.526 321.255 245.582 321.199 245.646C321.162 245.693 321.134 245.739 321.106 245.795C321.088 245.832 321.069 245.869 321.06 245.906C321.05 245.952 321.05 245.99 321.06 246.036C321.06 246.082 321.06 246.119 321.06 246.166C321.06 246.212 321.06 246.258 321.06 246.305C321.06 246.323 321.078 246.342 321.097 246.342L335.023 244.534C335.06 244.524 335.097 244.515 335.125 244.497C335.274 244.395 335.673 244.024 335.571 243.161C335.46 242.188 335.023 239.925 334.949 239.554C334.939 239.526 334.921 239.508 334.893 239.499L329.811 239.471Z" fill="#2B2377"/>
<path d="M348.949 240.871C348.949 240.871 346.552 246.963 344.908 248.335C343.653 249.383 344.025 250.255 344.267 250.607C344.341 250.718 344.462 250.774 344.582 250.756C344.88 250.718 345.53 250.561 346.171 250.014C347.054 249.253 355.759 242.855 355.759 242.855C355.759 242.855 356.14 241.937 355.508 241.028C354.876 240.11 353.492 238.441 353.492 238.441L348.949 240.871Z" fill="#2B2377"/>
<path d="M143.561 310.074C189.369 310.074 226.505 273.009 226.505 227.286C226.505 181.563 189.369 144.498 143.561 144.498C97.7524 144.498 60.6172 181.563 60.6172 227.286C60.6172 273.009 97.7524 310.074 143.561 310.074Z" stroke="#003EB0" stroke-miterlimit="10" stroke-dasharray="6 6"/>
<path d="M42.8632 221.685C42.8632 221.685 38.4968 216.687 42.3151 212.839C46.1334 208.99 54.058 210.826 55.1543 215.463C56.2412 220.099 53.5099 222.538 56.8823 223.948C60.2453 225.357 69.034 230.698 66.5627 235.196C64.1008 239.693 58.5359 238.654 59.9573 245.442C61.3788 252.23 72.6107 255.939 65.3086 263.237C58.0064 270.534 42.4823 279.538 37.8279 263.042C33.1734 246.546 47.8614 252.823 41.1352 241.455C34.4091 230.086 41.2467 231.31 43.8294 227.851C46.3935 224.402 42.8632 221.685 42.8632 221.685Z" fill="#023EA1"/>
<path d="M51.1772 229.28C51.1772 229.28 49.505 246.768 53.1375 262.365C56.77 277.962 59.8822 280.79 59.8822 280.79" stroke="white" stroke-miterlimit="10" stroke-linecap="round" stroke-linejoin="round"/>
<path d="M5.60876 226.665C5.60876 226.665 17.0451 218.597 19.4141 225.997C21.7925 233.406 25.0348 233.183 28.3793 232.785C31.7238 232.386 37.3909 229.187 39.4719 237.134C41.5622 245.081 39.5555 249.958 43.0486 252.554C46.5418 255.16 57.142 270.321 50.2115 272.853C43.2809 275.375 34.9847 268.838 32.2255 265.156C29.4662 261.475 23.3532 261.197 18.6709 262.152C13.9886 263.107 7.81985 260.622 9.75223 254.539C11.6939 248.456 8.6374 242.15 4.34528 240.732C0.0717463 239.313 -2.04644 232.256 5.60876 226.665Z" fill="#FCBE42"/>
<path d="M11.8711 233.971L52.4975 278.945" stroke="white" stroke-miterlimit="10" stroke-linecap="round" stroke-linejoin="round"/>
<path d="M61.992 267.234C61.992 267.234 39.11 244.089 30.5723 223.206" stroke="#DE051F" stroke-miterlimit="10"/>
<path d="M27.2924 209.408C27.2924 209.408 35.2077 215.537 31.5102 225.357C31.5102 225.357 23.7899 221.175 27.2924 209.408Z" stroke="#DE051F" stroke-miterlimit="10"/>
<path d="M40.8923 241.585C40.8923 241.585 37.0275 233.202 45.3145 225.83C45.3145 225.83 51.0001 232.182 40.8923 241.585Z" stroke="#DE051F" stroke-miterlimit="10"/>
<path d="M54.2702 258.693C54.2702 258.693 48.8354 251.229 55.5244 242.382C55.5244 242.373 62.3435 247.492 54.2702 258.693Z" stroke="#DE051F" stroke-miterlimit="10"/>
<path d="M54.0489 259.008C54.0489 259.008 48.1495 251.896 37.9023 256.171C37.9116 256.171 41.1818 264.034 54.0489 259.008Z" stroke="#DE051F" stroke-miterlimit="10"/>
<path d="M40.9295 241.455C40.9295 241.455 35.9871 233.657 25.2754 236.587C25.2754 236.587 27.5236 244.802 40.9295 241.455Z" stroke="#DE051F" stroke-miterlimit="10"/>
<path d="M284.717 202.092C337.986 202.092 381.169 158.99 381.169 105.821C381.169 52.6517 337.986 9.5498 284.717 9.5498C231.449 9.5498 188.266 52.6517 188.266 105.821C188.266 158.99 231.449 202.092 284.717 202.092Z" stroke="#003EB0" stroke-miterlimit="10" stroke-dasharray="6 6"/>
<path d="M88.8823 176.629C89.834 171.628 86.5234 166.8 81.4878 165.846C76.4523 164.891 71.5987 168.171 70.647 173.172C69.6953 178.173 73.0059 183.001 78.0415 183.956C83.077 184.91 87.9306 181.63 88.8823 176.629Z" fill="#F79F03"/>
<path d="M76.8203 171.491L79.2544 177.657L83.788 172.807" stroke="#EEF9FF" stroke-miterlimit="10"/>
<path d="M402.156 26.3533L408.719 32.9036L415.281 26.3533L408.719 19.803L402.156 26.3533Z" fill="#0064E1"/>
<path d="M11.6425 180.818L18.2051 187.368L24.7677 180.818L18.2051 174.268L11.6425 180.818Z" fill="#DE051F"/>
<path d="M302.633 102.631L309.195 109.181L315.758 102.631L309.195 96.0803L302.633 102.631Z" fill="#DE051F"/>
<path d="M81.7143 124.988L61.7216 116.865L58.3492 124.932C57.4388 123.625 55.9244 122.772 54.215 122.772C51.4372 122.772 49.1797 125.025 49.1797 127.797C49.1797 130.57 51.4372 132.823 54.215 132.823C54.5123 132.823 54.8003 132.796 55.0883 132.74L51.7252 140.789L60.1515 144.257C60.1329 144.062 60.1144 143.867 60.1144 143.663C60.1144 140.891 62.3719 138.637 65.1497 138.637C67.9275 138.637 70.185 140.891 70.185 143.663C70.185 145.258 69.4325 146.677 68.2712 147.595L76.2981 150.896C76.2981 150.896 81.5749 138.146 83.9347 131.905C86.3037 125.683 81.7143 124.988 81.7143 124.988Z" stroke="#EE384E" stroke-miterlimit="10"/>
<path d="M34.3802 114.166L55.1162 108.204L52.7657 99.7747C54.2893 100.238 56.008 99.9787 57.3551 98.9216C59.5383 97.2061 59.9192 94.0441 58.2005 91.865C56.4818 89.6858 53.3138 89.3057 51.1306 91.0211C50.8984 91.2066 50.6847 91.4106 50.4989 91.6239L48.1577 83.2227L39.3877 85.6985C39.5271 85.8376 39.6571 85.986 39.7872 86.1436C41.5059 88.3227 41.1343 91.4848 38.9418 93.2003C36.7585 94.9157 33.5906 94.5448 31.8719 92.3564C30.8871 91.1046 30.5898 89.5282 30.9335 88.0816L22.5723 90.4462C22.5723 90.4462 26.3255 103.725 28.3415 110.077C30.3482 116.447 34.3802 114.166 34.3802 114.166Z" stroke="#023EA1" stroke-miterlimit="10"/>
<path d="M130.573 271.833C130.573 268.049 127.498 264.98 123.708 264.98H60.5801V278.695H123.708C127.498 278.685 130.573 275.616 130.573 271.833Z" fill="#0064E1"/>
<path d="M84.0103 271.833C84.0103 268.049 80.9352 264.98 77.1447 264.98H39.5098V267.827H77.154C79.3744 267.827 81.1674 269.626 81.1674 271.833C81.1674 274.049 79.3651 275.839 77.154 275.839H39.5098V278.685H77.1447C80.9352 278.685 84.0103 275.616 84.0103 271.833Z" fill="#003EB0"/>
<path d="M41.9531 275.839H77.1355C79.3558 275.839 81.1489 274.049 81.1489 271.833C81.1489 269.617 79.3466 267.827 77.1355 267.827H41.9531C44.1735 267.827 45.9665 269.626 45.9665 271.833C45.9665 274.049 44.1735 275.839 41.9531 275.839Z" fill="#DCE8F5"/>
<path d="M56.844 297.871H108.832V278.685H56.844C51.5392 278.685 47.2285 282.979 47.2285 288.273C47.2285 290.926 48.3062 293.327 50.0435 295.052C51.7808 296.795 54.187 297.871 56.844 297.871Z" fill="#EE384E"/>
<path d="M109.206 297.871H146.85V295.024H109.206C105.471 295.024 102.452 292.001 102.452 288.273C102.452 284.546 105.48 281.532 109.206 281.532H146.85V278.685H109.206C103.901 278.685 99.5996 282.978 99.5996 288.273C99.5996 293.577 103.901 297.871 109.206 297.871Z" fill="#DE051F"/>
<path d="M109.205 295.024H145.094C141.359 295.024 138.34 292.001 138.34 288.273C138.34 284.546 141.368 281.532 145.094 281.532H109.205C105.471 281.532 102.451 284.555 102.451 288.273C102.451 292.001 105.471 295.024 109.205 295.024Z" fill="#D2DBEA"/>
<path d="M119.471 244.348H79.7832V252.972H119.471C121.859 252.972 123.791 251.043 123.791 248.66C123.791 246.277 121.85 244.348 119.471 244.348Z" fill="#003EB0"/>
<path d="M90.1878 244.348H66.5254V246.138H90.1878C91.5813 246.138 92.7147 247.269 92.7147 248.66C92.7147 250.051 91.5813 251.182 90.1878 251.182H66.5254V252.972H90.1878C92.5754 252.972 94.5077 251.043 94.5077 248.66C94.5077 246.277 92.5754 244.348 90.1878 244.348Z" fill="#0064E1"/>
<path d="M90.1964 246.137H68.0762C69.4697 246.137 70.6031 247.269 70.6031 248.66C70.6031 250.051 69.4697 251.182 68.0762 251.182H90.1964C91.5899 251.182 92.7233 250.051 92.7233 248.66C92.714 247.269 91.5899 246.137 90.1964 246.137Z" fill="white"/>
<path d="M67.5401 234.055C66.4438 235.14 65.7656 236.651 65.7656 238.32C65.7656 241.649 68.4691 244.348 71.8136 244.348H104.497V232.284H71.8136C70.1414 232.284 68.627 232.961 67.5401 234.055Z" fill="#DE051F"/>
<path d="M98.6914 238.32C98.6914 241.649 101.395 244.348 104.73 244.348H128.392V242.558H104.73C102.38 242.558 100.484 240.657 100.484 238.32C100.484 235.974 102.389 234.083 104.73 234.083H128.392V232.293H104.73C101.395 232.284 98.6914 234.991 98.6914 238.32Z" fill="#EE384E"/>
<path d="M127.294 234.083H104.728C102.378 234.083 100.482 235.983 100.482 238.32C100.482 240.666 102.387 242.558 104.728 242.558H127.285C124.934 242.558 123.039 240.657 123.039 238.32C123.039 235.974 124.944 234.083 127.294 234.083Z" fill="#D2DBEA"/>
<path d="M57.8682 254.734C56.7719 255.818 56.0938 257.33 56.0938 258.999C56.0938 262.328 58.7972 265.026 62.1417 265.026H100.529V252.962H62.1417C60.4695 252.972 58.9644 253.649 57.8682 254.734Z" fill="#F79F03"/>
<path d="M94.7305 258.999C94.7305 262.328 97.4339 265.026 100.769 265.026H134.632V263.237H100.76C98.4094 263.237 96.5142 261.336 96.5142 258.999C96.5142 256.662 98.4187 254.761 100.76 254.761H134.632V252.971H100.769C97.4339 252.971 94.7305 255.67 94.7305 258.999Z" fill="#FCBE42"/>
<path d="M133.536 254.761H100.769C98.4187 254.761 96.5234 256.662 96.5234 258.999C96.5234 261.336 98.428 263.237 100.769 263.237H133.536C131.186 263.237 129.29 261.336 129.29 258.999C129.29 256.662 131.186 254.761 133.536 254.761Z" fill="#D2DBEA"/>
<path d="M73.0192 206.496H112.707V197.872H73.0192C70.6316 197.872 68.6992 199.801 68.6992 202.184C68.6992 204.567 70.6316 206.496 73.0192 206.496Z" fill="#DE051F"/>
<path d="M102.293 206.496H125.955V204.706H102.293C100.899 204.706 99.7657 203.575 99.7657 202.184C99.7657 200.793 100.899 199.662 102.293 199.662H125.955V197.872H102.293C99.905 197.872 97.9727 199.801 97.9727 202.184C97.9727 204.567 99.905 206.496 102.293 206.496Z" fill="#EE384E"/>
<path d="M102.293 204.706H124.413C123.019 204.706 121.886 203.575 121.886 202.184C121.886 200.793 123.019 199.662 124.413 199.662H102.293C100.899 199.662 99.7656 200.793 99.7656 202.184C99.7656 203.575 100.899 204.706 102.293 204.706Z" fill="white"/>
<path d="M124.943 216.788C126.039 215.704 126.718 214.192 126.718 212.523C126.718 209.194 124.014 206.496 120.67 206.496H87.9863V218.56H120.67C122.342 218.56 123.856 217.883 124.943 216.788Z" fill="#FCBE42"/>
<path d="M93.7909 212.532C93.7909 209.204 91.0874 206.505 87.7522 206.505H64.0898V208.295H87.7522C90.1026 208.295 91.9979 210.196 91.9979 212.532C91.9979 214.879 90.0934 216.77 87.7522 216.77H64.0898V218.56H87.7522C91.0874 218.56 93.7909 215.861 93.7909 212.532Z" fill="#F79F03"/>
<path d="M65.1973 216.77H87.7541C90.1045 216.77 91.9998 214.869 91.9998 212.532C91.9998 210.186 90.0953 208.295 87.7541 208.295H65.1973C67.5477 208.295 69.4429 210.196 69.4429 212.532C69.4429 214.869 67.5384 216.77 65.1973 216.77Z" fill="#D2DBEA"/>
<path d="M63.9418 232.284H90.5027V230.494V220.294V218.504H63.9418C60.1327 218.504 57.0391 221.592 57.0391 225.394C57.0391 229.205 60.1327 232.284 63.9418 232.284Z" fill="#0064E1"/>
<path d="M63.9417 230.494H89.2206V220.294H63.9417C61.1174 220.294 58.832 222.575 58.832 225.394C58.832 228.213 61.1174 230.494 63.9417 230.494Z" fill="#DCE8F5"/>
<path d="M88.803 230.494H121.31C118.486 230.494 116.2 228.213 116.2 225.394C116.2 222.575 118.486 220.294 121.31 220.294H88.803C85.9788 220.294 83.6934 222.575 83.6934 225.394C83.6934 228.213 85.9788 230.494 88.803 230.494Z" fill="#EEF9FF"/>
<path d="M122.314 230.494H90.5039V232.284H122.314V230.494Z" fill="#003EB0"/>
<path d="M122.314 218.504H90.5039V220.294H122.314V218.504Z" fill="#003EB0"/>
<path d="M444.223 241.928L430.111 250.904L446.184 244.728L444.223 241.928Z" fill="#FFBF99"/>
<path d="M447.818 247L443.414 245.47L414.373 256.125C414.373 256.125 410.666 258.155 410.387 262.412C410.108 266.668 408.715 304.501 408.715 304.501H414.187L417.894 274.068L419.38 262.597L426.051 258.805L443.107 250.107L447.818 247Z" fill="#003EB0"/>
<path d="M459.569 247.64C460.535 251.034 462.021 260.974 457.172 263.283C456.967 263.376 456.754 263.45 456.521 263.487L429.886 267.66C429.765 267.679 429.645 267.688 429.524 267.688C429.069 267.688 427.647 267.836 428.27 269.635C428.901 271.453 436.752 292.994 439.046 299.281C439.409 300.282 440.83 303.175 439.929 303.759L437.309 306.309C436.185 307.051 434.197 303.231 433.537 302.053L416.109 270.869C416.053 270.767 416.006 270.665 415.96 270.553C415.551 269.468 413.786 263.858 419.462 261.021C425.148 258.183 442.279 249.411 445.596 247.705C445.968 247.52 447.5 246.611 447.909 246.639L457.348 248.067C458.342 248.132 459.299 246.685 459.569 247.64Z" fill="#0064E1"/>
<path d="M398.523 244.311C398.523 244.292 398.523 244.274 398.514 244.255C398.477 244.033 398.226 242.429 399.35 242.429H405.175C405.389 242.429 405.556 242.252 405.556 242.048V237.959C405.556 237.718 405.361 237.533 405.129 237.523L393.906 237.43C393.887 237.43 393.86 237.43 393.841 237.421C393.618 237.384 392.54 237.106 392.122 235.131C392.122 235.122 392.122 235.112 392.113 235.094L389.837 219.441C389.79 219.107 389.8 218.764 389.911 218.449C390.116 217.809 390.71 216.984 392.401 216.984C394.882 216.984 412.97 216.91 416.872 216.891C417.736 216.891 418.553 217.345 418.971 218.106C419.25 218.625 419.51 219.358 419.659 220.406C420.077 223.428 421.498 233.184 421.749 234.936C421.777 235.149 421.777 235.363 421.73 235.576C421.582 236.253 421.08 237.635 419.473 237.709C417.624 237.792 410.313 237.523 408.427 237.449C408.185 237.44 407.981 237.635 407.981 237.876L407.944 242.178C407.944 242.419 408.139 242.614 408.371 242.614L414.614 242.66C414.642 242.66 414.67 242.66 414.698 242.67C414.865 242.716 415.404 242.92 415.394 243.588C415.376 244.812 415.348 244.561 415.348 244.561L398.951 244.7C398.737 244.7 398.56 244.543 398.533 244.33L398.523 244.311Z" fill="#0064B7"/>
<path d="M457.414 215.074C457.46 215.027 457.553 215.083 457.628 215.074C458.399 214.99 463.499 214.694 464.094 221.528C464.66 227.972 460.861 244.942 459.857 248.846L441.816 246.073C442.15 244.422 442.633 240.63 442.633 239.888C442.633 239.888 443.432 232.6 443.581 230.485C443.609 230.161 443.488 229.855 443.274 229.614C442.457 228.733 440.561 226.229 442.308 223.512C442.308 223.512 446.108 217.225 448.793 215.881C448.802 215.881 451.608 220.74 457.414 215.074Z" fill="#FCBE42"/>
<path d="M454.47 231.079C454.684 230.291 455.557 229.883 456.3 230.217L459.19 231.524C459.57 231.691 459.84 232.034 459.933 232.433L460.054 232.961C460.119 233.258 460.091 233.564 459.951 233.833L456.886 240.166C456.793 240.352 456.728 240.547 456.681 240.741C456.523 241.363 455.854 242.902 453.021 242.16L435.128 237.653C435.081 237.635 431.254 236.253 431.207 236.235C430.817 236.077 430.445 236.235 430.343 237.468C430.297 237.987 428.959 236.429 429.275 235.335C429.275 235.335 430.222 233.193 435.221 234.389L448.97 237.153C449.007 237.162 449.045 237.171 449.082 237.18C449.444 237.282 451.683 237.839 452.278 236.058L454.396 231.283C454.424 231.209 454.442 231.144 454.47 231.079Z" fill="#FFBF99"/>
<path d="M462.646 217.42C462.989 217.67 463.185 218.078 463.287 218.468C463.528 219.377 463.565 220.489 463.37 221.417C463.008 223.076 461.104 231.626 460.156 233.406C460.156 233.406 457.118 231.236 454.461 231.116C454.461 231.116 455.919 225.163 457.378 221.138C457.378 221.138 459.608 215.204 462.646 217.42Z" fill="#F79F03"/>
<path d="M414.186 304.51L414.372 309.175C414.372 309.175 414.502 309.889 411.631 309.889C408.76 309.889 401.31 309.879 401.31 309.879C401.31 309.879 399.544 309.138 401.588 308.489C401.588 308.489 406.131 307.098 408.723 304.51H414.186Z" fill="#170856"/>
<path d="M434.254 241.882L427.119 241.928V238.785C427.119 238.785 426.794 237.904 428.187 237.811C429.581 237.718 433.288 237.904 433.288 237.904C433.288 237.904 434.31 237.997 434.31 239.202C434.3 240.398 434.254 241.882 434.254 241.882Z" fill="#EE384E"/>
<path d="M433.705 241.659C433.705 241.659 436.362 241.427 436.566 242.753C436.798 244.265 436.064 244.626 434.764 244.673C433.463 244.719 425.715 244.552 425.715 244.552C425.715 244.552 424.219 244.339 424.275 243.254C424.34 242.141 424.647 241.724 426.087 241.724C427.527 241.724 433.705 241.659 433.705 241.659Z" fill="#000036"/>
<path d="M415.887 244.441L435.815 244.561C435.889 244.561 435.963 244.571 436.038 244.571C436.577 244.58 438.007 244.886 438.007 246.036C438.007 247.39 437.022 247.761 435.285 247.761H389.41C388.871 247.761 388.351 247.557 387.951 247.195C387.431 246.731 386.846 245.313 387.988 244.598C388.313 244.394 388.694 244.311 389.066 244.311L415.887 244.441Z" fill="#023EA1"/>
<path d="M403.521 247.649L390.422 259.12C390.422 259.12 388.071 261.216 387.951 266.028C387.83 270.841 387.087 310.186 387.087 310.186C387.087 310.186 386.836 312.402 391.165 312.402H419.343C419.343 312.402 420.457 312.402 420.578 311.048C420.699 309.694 419.593 309.815 418.72 309.815L389.93 309.935L390.18 266.64C390.18 266.64 389.437 262.94 394.751 258.619L406.633 247.659L403.521 247.649Z" fill="#023EA1"/>
<path d="M449.453 266.167L449.499 306.736C449.499 306.736 455.798 306.922 456.913 308.405C458.028 309.889 456.727 310.807 450.243 310.622C443.758 310.436 439.865 310.436 439.865 310.436C439.865 310.436 436.716 310.065 440.423 308.22C444.13 306.365 447.093 306.922 447.093 306.922L447.465 266.214L449.453 266.167Z" fill="#023EA1"/>
<path d="M439.67 300.996C439.67 300.996 443.284 304.418 441.156 305.994L431.699 313.487C431.699 313.487 430.305 313.858 430.584 312.281L434.755 304.232L439.67 300.996Z" fill="#180756"/>
<path d="M449.368 264.239C449.368 264.239 463.926 265.092 457.59 265.945C451.254 266.798 442.511 266.798 439.427 266.455C436.352 266.112 446.971 264.406 449.368 264.239Z" fill="#023EA1"/>
<path d="M404.962 111.922C404.962 111.922 407.73 110.364 406.039 103.818C404.358 97.271 402.676 96.1953 404.962 91.5125C407.247 86.8297 414.586 85.5037 425.047 85.921C435.508 86.3475 438.277 96.6404 437.069 101.156C435.87 105.672 426.357 110.828 420.588 110.114C414.819 109.4 412.171 109.038 412.171 109.038C412.171 109.038 410.248 112.274 404.962 111.922Z" fill="#0064E1"/>
<path d="M416.612 99.3296C417.469 99.3296 418.164 98.6362 418.164 97.781C418.164 96.9257 417.469 96.2324 416.612 96.2324C415.755 96.2324 415.061 96.9257 415.061 97.781C415.061 98.6362 415.755 99.3296 416.612 99.3296Z" fill="white"/>
<path d="M421.321 99.3296C422.178 99.3296 422.873 98.6362 422.873 97.781C422.873 96.9257 422.178 96.2324 421.321 96.2324C420.464 96.2324 419.77 96.9257 419.77 97.781C419.77 98.6362 420.464 99.3296 421.321 99.3296Z" fill="white"/>
<path d="M426.022 99.3296C426.879 99.3296 427.574 98.6362 427.574 97.781C427.574 96.9257 426.879 96.2324 426.022 96.2324C425.165 96.2324 424.471 96.9257 424.471 97.781C424.471 98.6362 425.165 99.3296 426.022 99.3296Z" fill="white"/>
<path d="M314.615 26.3523C320.777 26.3523 325.772 21.3662 325.772 15.2156C325.772 9.06493 320.777 4.07886 314.615 4.07886C308.452 4.07886 303.457 9.06493 303.457 15.2156C303.457 21.3662 308.452 26.3523 314.615 26.3523Z" stroke="#DE051F" stroke-miterlimit="10"/>
<path d="M311.167 21.6326C312.568 21.6326 313.703 20.4992 313.703 19.1011C313.703 17.703 312.568 16.5696 311.167 16.5696C309.766 16.5696 308.631 17.703 308.631 19.1011C308.631 20.4992 309.766 21.6326 311.167 21.6326Z" stroke="#DE051F" stroke-miterlimit="10"/>
<path d="M317.523 15.3453C318.58 15.3453 319.437 14.4901 319.437 13.4351C319.437 12.3801 318.58 11.5249 317.523 11.5249C316.466 11.5249 315.609 12.3801 315.609 13.4351C315.609 14.4901 316.466 15.3453 317.523 15.3453Z" stroke="#DE051F" stroke-miterlimit="10"/>
<path d="M311.623 11.7569C312.444 11.7569 313.11 11.0926 313.11 10.2732C313.11 9.45381 312.444 8.78955 311.623 8.78955C310.802 8.78955 310.137 9.45381 310.137 10.2732C310.137 11.0926 310.802 11.7569 311.623 11.7569Z" stroke="#DE051F" stroke-miterlimit="10"/>
<path d="M217.892 132.332H111.546C110.524 132.332 109.688 131.498 109.688 130.478V4.34806C109.688 2.29876 111.35 0.638916 113.404 0.638916H216.034C218.087 0.638916 219.75 2.29876 219.75 4.34806V130.478C219.75 131.507 218.913 132.332 217.892 132.332Z" fill="white" stroke="#003EB0" stroke-miterlimit="10"/>
<path d="M216.628 7.94592H112.809C111.266 7.94592 110.021 6.70336 110.021 5.16407V3.40222C110.021 1.86292 111.266 0.620361 112.809 0.620361H216.637C218.179 0.620361 219.424 1.86292 219.424 3.40222V5.16407C219.415 6.69409 218.17 7.94592 216.628 7.94592Z" fill="white" stroke="#003EB0" stroke-miterlimit="10"/>
<path d="M198.077 65.6603L195.819 63.8707C195.819 63.8707 195.447 63.5276 195.076 63.6852C194.704 63.8429 194.676 64.223 195.234 64.6496C195.791 65.0761 197.463 66.4485 197.463 66.4485L198.077 65.6603Z" fill="#023EA1"/>
<path d="M198.411 64.7886L196.748 66.9584L205.332 77.9931L211.232 69.9443L198.411 64.7886Z" fill="#023EA1"/>
<path d="M211.128 69.2952L263.172 107.685L256.214 117.282L204.662 78.7257L211.128 69.2952Z" fill="#0064E1"/>
<path d="M263.191 102.631C263.191 102.631 264.585 107.685 263.675 109.085C262.764 110.485 260.358 107.842 260.358 107.842L257.543 104.124L263.191 102.631Z" fill="#FFC39E"/>
<path d="M232.617 160.021L228.864 206.014L224.721 209.491L234.559 209.074L234.522 206.107C234.513 205.968 234.522 205.838 234.541 205.699L242.902 159.909L232.617 160.021Z" fill="#FFC39E"/>
<path d="M246.107 159.798L248.941 205.857C248.959 206.125 248.838 206.394 248.634 206.561L244.955 209.556L254.979 208.852L255.945 158.583L245.002 159.798" fill="#FFC39E"/>
<path d="M148.644 132.332L130.072 171.38" stroke="#023EA1" stroke-width="2" stroke-miterlimit="10"/>
<path d="M179.803 132.332L198.365 171.38" stroke="#023EA1" stroke-width="2" stroke-miterlimit="10"/>
<path d="M130.406 174.681C132.053 174.681 133.388 173.349 133.388 171.705C133.388 170.061 132.053 168.728 130.406 168.728C128.759 168.728 127.424 170.061 127.424 171.705C127.424 173.349 128.759 174.681 130.406 174.681Z" fill="#023EA1"/>
<path d="M198.041 174.681C199.688 174.681 201.023 173.349 201.023 171.705C201.023 170.061 199.688 168.728 198.041 168.728C196.394 168.728 195.059 170.061 195.059 171.705C195.059 173.349 196.394 174.681 198.041 174.681Z" fill="#023EA1"/>
<path d="M233.22 99.8492L234.168 113.805L253.064 113.471L254.123 101.379C254.133 101.203 254.346 101.12 254.476 101.24L258.323 104.356C258.481 104.495 258.713 104.541 258.917 104.449L263.191 102.622C263.358 102.548 263.423 102.353 263.321 102.195L257.366 92.6998L237.484 80.8213C237.484 80.8213 227.544 90.6412 226.215 92.6256C224.97 94.4895 221.97 98.1059 221.059 98.5417C220.976 98.5788 220.948 98.6716 220.985 98.7457L224.014 105.394C224.116 105.617 224.413 105.663 224.58 105.487" fill="#EE384E"/>
<path d="M231.187 62.5166C231.187 62.5166 229.858 74.4322 233.175 74.4322C236.491 74.4322 237.151 76.4166 237.151 76.4166L237.485 80.8305L240.468 77.7426L238.48 72.4478L239.808 68.479L237.16 65.1686L231.187 62.5166Z" fill="#FFC39E"/>
<path d="M230.118 62.8224C229.858 62.3681 229.83 61.821 229.979 61.311C230.369 59.9293 231.948 56.2944 237.81 55.228C243.543 54.1894 245.586 56.8229 246.2 58.0006C246.367 58.3251 246.701 58.5384 247.064 58.5755C248.624 58.7239 252.498 59.475 252.443 63.1934C252.433 63.5736 252.666 63.9167 253.028 64.0465C254.905 64.7512 258.035 66.1421 257.877 70.8435C257.868 71.0568 257.682 71.2237 257.655 71.4277C257.534 72.4106 257.274 75.3037 258.361 76.3887C258.361 76.3887 261.854 79.8752 259.559 83.0373C259.16 83.5844 259.095 84.3169 259.466 84.8826C259.828 85.4297 260.488 86.0139 261.668 86.3106C264.316 86.969 264.901 91.0212 261.64 92.6625C261.296 92.8387 260.906 92.9036 260.525 92.8665C259.503 92.7645 257.162 92.6996 256.465 94.0071C256.317 94.2853 256.094 94.5078 255.852 94.7118C254.431 95.9266 250.427 98.8661 248.643 94.8602C248.494 94.5356 248.457 94.174 248.531 93.8216C248.708 92.95 248.68 91.0954 245.094 91.6054C245.094 91.6054 241.777 91.6054 242.446 88.295C242.948 85.8099 241.201 85.5688 240.3 85.5966C239.91 85.6059 239.529 85.4946 239.232 85.2535C238.136 84.3819 236.008 82.0822 238.284 78.642C238.405 78.4565 238.498 78.2525 238.517 78.03C238.619 77.2047 238.721 75.0905 237.42 73.9592C237.179 73.7459 237.03 73.4584 236.946 73.1524C236.714 72.3364 236.454 70.8898 237.207 70.1387C237.727 69.6195 238.126 68.9889 238.136 68.2563C238.154 67.496 237.838 66.7912 236.482 67.1343C236.482 67.1343 235.153 67.1343 235.153 65.8083C235.153 64.7883 232.803 64.167 231.716 63.9259C231.131 63.7961 230.583 63.4901 230.23 62.9986C230.202 62.9615 230.165 62.8966 230.118 62.8224Z" fill="#1D1154"/>
<path d="M234.585 206.367L231.78 206.33C231.687 206.33 231.603 206.348 231.529 206.395C230.878 206.784 227.488 208.722 224.059 209.019C220.25 209.353 220 211.003 220 211.003C220 211.003 219.749 211.745 221.616 211.745C223.307 211.745 228.584 211.606 229.578 211.587C229.68 211.587 229.773 211.532 229.838 211.448L230.86 210.067C230.906 210.002 230.981 209.965 231.064 209.955L231.873 209.9C232.012 209.89 232.133 210.002 232.123 210.15L232.058 211.615C232.058 211.661 232.095 211.699 232.142 211.699H234.483C234.539 211.699 234.585 211.652 234.585 211.597V206.367Z" fill="#1F105A"/>
<path d="M255.137 206.367H251.031C251.031 206.367 247.631 208.768 245.104 209.056C242.577 209.343 240.626 210.131 240.589 211.04C240.551 211.949 242.084 211.912 242.084 211.912L249.702 211.791C249.814 211.791 249.916 211.745 249.99 211.661L251.904 209.677L252.322 209.594V211.504C252.322 211.587 252.387 211.661 252.48 211.661H254.933C255.026 211.661 255.1 211.587 255.1 211.495L255.137 206.367Z" fill="#1A0E47"/>
<path d="M263.173 107.685L270.968 113.638L264.251 122.818L256.215 117.282L263.173 107.685Z" fill="#0064E1"/>
<path d="M263.172 107.685L256.214 117.282L252.646 114.547L253.706 100.702L263.172 107.685Z" fill="#023EA1"/>
<path d="M221.32 99.4968C221.32 99.4968 220.075 99.7379 218.505 97.0116L211.296 85.3464C211.296 85.3464 211.045 83.6124 211.129 82.9447C211.185 82.4718 211.166 81.2107 211.147 80.5152C211.138 80.237 209.977 78.9759 209.81 80.6265C209.642 82.2771 209.642 82.2771 209.642 82.2771C209.642 82.2771 209.224 82.852 208.732 82.444C208.23 82.0267 207.905 81.2014 207.905 81.2014L206.335 80.0423C206.335 80.0423 205.675 83.0189 206.837 84.8364C207.998 86.6539 209.243 86.2459 209.243 86.2459L217.195 104.856C217.195 104.856 218.273 107.75 220.094 106.757C221.915 105.765 223.856 105.023 223.856 105.023L221.32 99.4968Z" fill="#FFC39E"/>
<path d="M230.74 160.92L234.168 113.805L252.73 113.453L255.164 117.217C257.924 121.297 257.812 132.221 257.812 132.221C257.812 132.221 256.93 159.641 256.93 161.189L230.74 160.92Z" fill="#003EB0"/>
<path d="M208.575 22.4302H116.666V24.6464H208.575V22.4302Z" fill="#023EA1"/>
<path d="M202.601 29.2363H116.666V31.3134H202.601V29.2363Z" fill="#023EA1"/>
<path d="M208.575 35.8943H116.666V38.1105H208.575V35.8943Z" fill="#023EA1"/>
<path d="M197.231 42.7561H116.666V44.7034H197.231V42.7561Z" fill="#023EA1"/>
<path d="M208.575 49.3491H116.666V51.5653H208.575V49.3491Z" fill="#023EA1"/>
<path d="M208.575 56.0813H116.666V58.2975H208.575V56.0813Z" fill="#023EA1"/>
<path d="M194.946 62.8132H116.666V65.0294H194.946V62.8132Z" fill="#023EA1"/>
<path d="M153.985 260.455C153.985 260.455 157.376 259.073 157.126 255.188C156.875 251.303 154.868 248.549 159.011 249.671C163.155 250.802 164.548 251.303 167.558 250.672C170.569 250.042 173.068 248.79 171.758 252.675C170.448 256.56 169.017 259.815 172.12 260.446C175.214 261.076 178.54 258.73 178.939 264.813C179.339 270.896 174.424 277.74 166.472 277.99C158.519 278.24 155.007 274.948 155.007 274.948C155.007 274.948 152.871 271.944 156.196 271.211C159.522 270.47 162.913 269.069 161.213 267.512C159.522 265.963 153.995 265.833 153.995 265.833C153.995 265.833 147.083 264.461 153.985 260.455Z" fill="#649EEA"/>
<path d="M190.33 261.457C189.772 257.58 190.199 254.789 197.418 253.732C204.637 252.675 208.845 257.006 209.282 261.457C209.718 265.907 203.447 267.521 203.447 267.521C203.447 267.521 198.988 268.791 201.255 272.677C203.522 276.562 204.544 280.318 199.415 280.883C194.287 281.449 188.676 280.095 185.554 278.018C182.433 275.941 179.228 270.674 182.804 267.92C182.804 267.92 183.808 267.233 187.264 267.039C190.701 266.844 190.33 261.457 190.33 261.457Z" fill="#023EA1"/>
<path d="M164.93 260.826C164.93 260.826 170.922 274.355 171.739 283.563" stroke="#023EA1" stroke-miterlimit="10"/>
<path d="M198.253 263.051C198.253 263.051 187.643 278.778 185.135 284.036" stroke="#649EEA" stroke-miterlimit="10"/>
<path d="M168.043 282.506H192.392C192.392 282.506 195.059 282.691 194.836 286.326C194.631 289.674 190.376 288.95 188.184 288.95C185.991 288.95 167.513 288.95 167.513 288.95C167.513 288.95 164.521 289.46 164.521 286.076C164.521 282.691 165.655 282.506 168.043 282.506Z" fill="#0054A5"/>
<path d="M167.521 288.95L171.21 310.426H187.561L190.329 294.31L167.549 288.95H167.521Z" fill="#0054A5"/>
<path d="M167.549 288.95L190.329 294.31L191.248 288.95H167.549Z" fill="#006AD5"/>
<path d="M178.02 283.322C178.02 283.322 179.255 259.491 186.371 244.543" stroke="#FCBE42" stroke-miterlimit="10"/>
<path d="M192.226 235.938C192.226 235.938 192.812 243.254 185.658 246.11C185.658 246.11 184.116 239.86 192.226 235.938Z" fill="#FCBE42"/>
<path d="M181.496 259.222C181.496 259.222 184.135 252.981 192.236 253.816C192.245 253.816 191.613 260.028 181.496 259.222Z" fill="#FCBE42"/>
<path d="M178.828 274.921C178.828 274.921 180.194 268.281 188.304 267.521C188.304 267.521 188.908 273.743 178.828 274.921Z" fill="#FCBE42"/>
<path d="M178.55 274.958C178.55 274.958 179.488 268.253 172.103 264.823C172.103 264.823 169.455 270.488 178.55 274.958Z" fill="#FCBE42"/>
<path d="M181.587 259.175C181.587 259.175 183.38 252.638 176.486 248.298C176.477 248.298 173.133 253.584 181.587 259.175Z" fill="#FCBE42"/>
<path d="M298.049 260.983C298.049 260.983 314.576 261.957 307.376 262.921C300.186 263.895 290.273 263.895 286.771 263.506C283.277 263.116 295.327 261.178 298.049 260.983Z" fill="#023EA1"/>
<path d="M299.19 263.162L299.432 309.193C299.432 309.193 306.585 309.378 307.858 311.047C309.131 312.726 307.663 313.774 300.296 313.597C292.929 313.421 288.516 313.431 288.516 313.431C288.516 313.431 284.939 313.023 289.138 310.908C293.338 308.794 296.71 309.406 296.71 309.406L296.942 263.209L299.19 263.162Z" fill="#023EA1"/>
<path d="M305.695 204.076C305.695 204.076 312.505 201.656 313.257 207.998C313.257 207.998 314.995 212.607 316.741 213.432C318.478 214.267 322.789 215.853 321.73 221.815C320.671 227.777 319.008 227.406 319.686 230.875C320.364 234.352 318.701 234.723 316.286 234.797C313.87 234.871 313.183 232.609 313.183 232.609L313.861 224.903L312.272 212.524L307.126 210.484C307.126 210.484 304.478 207.164 304.255 205.875C304.032 204.605 305.695 204.076 305.695 204.076Z" fill="#170856"/>
<path d="M306.605 202.361C306.605 202.361 307.683 203.483 307.432 203.677C307.181 203.872 304.245 205.402 304.245 205.402C304.245 205.402 303.391 203.761 303.484 203.279C303.558 202.796 306.605 202.361 306.605 202.361Z" fill="#F05051"/>
<path d="M288.6 194.071C288.442 194.089 288.34 194.219 288.34 194.377C288.377 195.851 288.721 202.973 291.508 205.606C291.508 205.606 292.985 207.535 295.819 206.737C295.819 206.737 298.373 205.207 297.974 208.323C297.574 211.439 298.884 214.499 299.906 214.944C300.928 215.398 305.127 214.267 306.094 212.505C306.735 211.337 307.078 210.743 307.236 210.484C307.301 210.372 307.292 210.243 307.199 210.141C306.623 209.482 304.458 206.83 303.455 203.167C302.294 198.92 302.916 194.84 299.005 193.996C295.549 193.245 289.882 193.904 288.6 194.071Z" fill="#FFBE97"/>
<path d="M284.931 193.728C284.941 193.663 284.95 193.598 284.95 193.542C284.978 193.125 284.941 192.708 284.987 192.29C285.117 191.001 285.545 189.629 286.557 188.748C287.319 188.099 288.304 187.839 289.289 187.839C289.511 187.839 289.725 187.756 289.865 187.589C290.533 186.838 292.707 184.677 295.699 184.677C299.322 184.677 305.519 186.634 307.191 192.81C307.191 192.819 307.2 192.828 307.2 192.847C307.302 193.264 309.662 202.954 304.924 203.251C300.084 203.557 298.114 201.174 298.263 199.022C298.263 199.022 300.641 194.757 296.6 195.851C296.6 195.851 292.438 196.63 289.539 194.933C289.177 194.72 288.722 194.85 288.517 195.211C287.941 196.203 286.789 197.743 285.712 196.454C285.312 195.981 284.931 195.434 284.82 194.812C284.764 194.414 284.876 194.08 284.931 193.728Z" fill="#170856"/>
<path d="M307.264 210.206C307.264 210.206 304.904 213.998 301.532 213.961C298.169 213.924 297.955 210.437 297.955 210.437C297.955 210.437 291.099 216.595 291.173 220.675C291.247 224.755 292.613 224.068 292.985 225.432C293.366 226.795 290.718 241.214 290.718 241.214L290.318 242.067L309.698 244.691C309.698 244.691 310.45 241.594 310.98 240.611C311.51 239.628 314.232 214.341 314.232 214.341L312.949 212.978C312.959 212.978 310.683 210.419 307.264 210.206Z" fill="#003EB0"/>
<path d="M315.831 225.515C315.831 225.515 317.754 212.997 312.877 212.375C308.111 211.772 308.036 215.695 307.888 221.509C307.739 227.323 307.813 228.603 307.813 228.603L315.376 229.966L315.831 225.515Z" fill="#0064E1"/>
<path d="M308.036 228.649C307.916 228.631 307.804 228.714 307.795 228.835L307.395 233.629C307.423 234.361 307.293 235.029 306.615 234.76C306.234 234.612 305.76 234.38 305.166 234.046C303.01 232.841 296.47 229.669 294.435 228.677C294.073 228.501 293.804 228.186 293.664 227.806C293.441 227.203 292.912 226.303 291.695 225.96C289.799 225.432 286.548 225.506 286.473 225.738C286.399 225.969 286.018 227.546 286.167 228.074C286.316 228.603 287.904 228.149 287.904 228.149C287.904 228.149 290.859 227.62 290.022 228.677C289.539 229.289 288.852 229.373 288.359 229.326C288.164 229.308 288.062 229.567 288.22 229.688C288.629 230.003 289.353 230.393 290.552 230.56C292.744 230.866 308.25 240.982 308.25 240.982C308.25 240.982 311.279 243.319 313.016 237.134C314.344 232.414 315.004 230.736 315.246 230.198C315.301 230.077 315.227 229.938 315.097 229.92L308.036 228.649Z" fill="#FEBD96"/>
<path d="M282.266 235.39L291.119 239.044L292.058 233.508L288.453 233.295L282.266 235.39Z" fill="#FEBD96"/>
<path d="M276.198 217.735L262.197 216.91L276.727 235.177L290.115 235.632L276.198 217.735Z" fill="#0064B7"/>
<path d="M276.115 233.897C276.115 233.897 276.644 230.578 275.511 230.049C274.378 229.521 273.644 230.754 273.718 231.357C273.802 232.024 276.022 234.278 276.022 234.278L276.115 233.897Z" fill="#FEBD96"/>
<path d="M290.32 242.067L263.034 252.434C263.034 252.434 259.634 253.111 258.798 262.291C257.961 271.462 257.283 301.858 257.283 301.858L257.246 302.841L264.056 302.953L267.456 270.562L283.603 251.117L296.693 242.92L290.32 242.067Z" fill="#EE384E"/>
<path d="M309.875 244.107L296.627 242.92L268.728 256.829C268.728 256.829 261.194 261.262 266.025 269.292C270.865 277.322 284.355 301.821 284.355 301.821L289 298.363L277.08 265.425C277.08 265.425 276.792 263.728 280.769 263.441C284.485 263.172 302.043 261.466 304.32 261.243C304.515 261.225 304.691 261.188 304.877 261.114C306.252 260.613 311.612 258.016 309.912 248.66L309.708 244.701L309.875 244.107Z" fill="#DE051F"/>
<path d="M257.246 302.832L251.319 306.087C251.012 306.254 250.687 306.374 250.343 306.43C249.702 306.523 248.587 306.829 248.587 307.747C248.587 307.747 248.439 308.804 251.309 308.581C254.18 308.359 263.257 308.433 263.257 308.433C263.257 308.433 264.427 308.173 264.241 305.568L264.056 302.962L257.246 302.832Z" fill="#130452"/>
<path d="M284.365 301.812C284.365 301.812 284.318 303.351 282.776 305.465C281.93 306.634 281.011 307.765 280.063 308.859C279.812 309.147 279.543 309.388 279.413 309.749C279.329 309.99 279.264 310.241 279.255 310.491C279.246 310.732 279.301 311.001 279.515 311.15C279.84 311.372 280.323 311.252 280.667 311.159C280.769 311.131 280.871 311.094 280.964 311.066C283.296 310.232 290.255 304.584 291.732 303.37C291.918 303.212 292.029 302.989 292.038 302.739C292.038 302.22 291.955 301.293 291.332 300.569C290.422 299.512 289.019 298.362 289.019 298.362L284.365 301.812Z" fill="#130452"/>
</svg>
