<svg width="570" height="379" viewBox="0 0 570 379" fill="none" xmlns="http://www.w3.org/2000/svg">
<path d="M77.3537 92.056C75.184 84.5385 76.4877 76.3643 81.2932 70.1885C87.5832 62.0905 100.011 55.0012 124.438 60.6156C171.447 71.4161 178.431 84.7573 178.431 84.7573L210.833 86.0325C210.833 86.0325 245.138 63.1658 252.122 50.4621C259.107 37.7584 284.524 20.6013 297.227 30.7643C309.931 40.9272 358.215 63.1658 375.362 64.4314C392.51 65.7066 442.068 64.4314 440.156 100.002C438.243 135.572 469.921 139.426 469.921 139.426C469.921 139.426 520.841 135.572 515.122 165.433C509.403 195.294 506.224 207.997 492.255 211.176C478.276 214.354 313.109 278.51 313.109 278.51C313.109 278.51 288.968 274.694 281.983 256.271C274.998 237.849 217.817 257.546 217.817 257.546C217.817 257.546 206.379 282.326 193.038 283.591C179.697 284.867 159.371 271.525 157.468 263.894C155.565 256.271 30.4119 211.804 30.4119 211.804C30.4119 211.804 9.4484 178.137 22.7897 154.632C36.1309 131.128 54.8772 119.957 66.1535 126.808C66.1535 126.808 78.6954 129.215 79.333 111.43C79.6565 102.542 78.5527 96.1859 77.3537 92.056Z" fill="#ECF2F5"/>
<path d="M355.667 132.556C377.85 132.556 395.833 114.573 395.833 92.39C395.833 70.2067 377.85 52.2235 355.667 52.2235C333.483 52.2235 315.5 70.2067 315.5 92.39C315.5 114.573 333.483 132.556 355.667 132.556Z" stroke="#2626DB" stroke-miterlimit="10" stroke-dasharray="6 6"/>
<path d="M86.1103 334.786C122.914 334.786 152.75 332.562 152.75 329.819C152.75 327.076 122.914 324.852 86.1103 324.852C49.3063 324.852 19.4707 327.076 19.4707 329.819C19.4707 332.562 49.3063 334.786 86.1103 334.786Z" fill="#E9E8EE"/>
<path d="M144.537 350.909C161.796 350.909 175.787 348.962 175.787 346.56C175.787 344.158 161.796 342.211 144.537 342.211C127.278 342.211 113.287 344.158 113.287 346.56C113.287 348.962 127.278 350.909 144.537 350.909Z" fill="#E9E8EE"/>
<path d="M249.678 308.677C306.259 308.677 352.126 304.787 352.126 299.989C352.126 295.191 306.259 291.301 249.678 291.301C193.098 291.301 147.23 295.191 147.23 299.989C147.23 304.787 193.098 308.677 249.678 308.677Z" fill="#ECF2F5"/>
<path d="M413.94 346.045C481.405 346.045 536.096 342.173 536.096 337.395C536.096 332.618 481.405 328.745 413.94 328.745C346.476 328.745 291.785 332.618 291.785 337.395C291.785 342.173 346.476 346.045 413.94 346.045Z" fill="#ECF2F5"/>
<path d="M48.1919 229.429C70.3752 229.429 88.3584 211.446 88.3584 189.263C88.3584 167.08 70.3752 149.096 48.1919 149.096C26.0085 149.096 8.02539 167.08 8.02539 189.263C8.02539 211.446 26.0085 229.429 48.1919 229.429Z" stroke="#2626DB" stroke-miterlimit="10" stroke-dasharray="6 6"/>
<path d="M166.34 290.415C188.524 290.415 206.507 272.432 206.507 250.248C206.507 228.065 188.524 210.082 166.34 210.082C144.157 210.082 126.174 228.065 126.174 250.248C126.174 272.432 144.157 290.415 166.34 290.415Z" stroke="#63C1F1" stroke-width="1.5" stroke-miterlimit="10" stroke-dasharray="6 6"/>
<path d="M492.541 156.051C527.388 150.846 559.856 174.874 565.061 209.721C570.267 244.568 546.239 277.036 511.392 282.241" stroke="#DE051F" stroke-miterlimit="10" stroke-dasharray="6 6"/>
<path d="M438.446 121.42C438.446 121.42 434.497 121.296 428.645 122.133L423.801 128.652L423.925 122.971C407.291 126.444 382.036 137.616 379.924 173.414C379.924 173.405 420.975 198.65 438.446 121.42Z" fill="#023EA1"/>
<path d="M412.894 126.205L389.789 161.737L438.444 121.419" stroke="white" stroke-miterlimit="10"/>
<path d="M431.139 145.274L388.965 163.802" stroke="white" stroke-miterlimit="10"/>
<path d="M427.848 99.1245C427.848 99.1245 427.848 105.919 423.204 103.207C418.56 100.495 415.391 100.4 413.422 105.415C411.452 110.439 408.131 112.275 405.076 111.371C402.022 110.467 396.712 107.936 394.399 114.902C392.087 121.867 386.615 135.095 393.952 138.539C401.289 141.974 412.87 137.359 414.64 132.107C416.41 126.854 414.506 122.353 420.425 120.649C426.344 118.956 427.163 124.817 432.349 120.878C437.535 116.948 443.149 113.417 439.286 105.224C435.812 97.8874 428.799 95.4038 427.848 99.1245Z" stroke="#EA4E59" stroke-miterlimit="10" stroke-linecap="round" stroke-linejoin="round"/>
<path d="M428.967 106.976C428.967 106.976 396.556 131.917 386.85 136.323" stroke="#EA4E59" stroke-miterlimit="10" stroke-linecap="round" stroke-linejoin="round"/>
<path d="M403.063 116.129L402.111 126.739L410.362 130.298" stroke="#EA4E59" stroke-miterlimit="10" stroke-linecap="round" stroke-linejoin="round"/>
<path d="M419.385 106.128L419.822 113.893L426.36 117.699" stroke="#EA4E59" stroke-miterlimit="10" stroke-linecap="round" stroke-linejoin="round"/>
<path d="M88.082 105.149C88.082 105.149 96.7795 99.2109 98.4829 104.34C100.186 109.469 102.632 109.241 105.153 108.869C107.675 108.498 111.976 106.129 113.461 111.639C114.945 117.148 113.375 120.622 115.983 122.353C118.59 124.085 126.393 134.458 121.14 136.399C115.887 138.34 109.721 133.963 107.685 131.451C105.648 128.938 101.052 128.891 97.5122 129.681C93.9723 130.471 89.3571 128.872 90.8892 124.571C92.4212 120.26 90.1945 115.921 86.9782 115.036C83.7618 114.141 82.2488 109.25 88.082 105.149Z" fill="#023EA1"/>
<path d="M92.707 110.117L122.777 140.615" stroke="white" stroke-miterlimit="10" stroke-linecap="round" stroke-linejoin="round"/>
<path d="M107.37 112.696L104.924 122.507L94.666 124.572" stroke="white" stroke-miterlimit="10" stroke-linecap="round" stroke-linejoin="round"/>
<path d="M88.1481 119.929C88.1481 119.929 88.1481 125.429 91.9068 123.231C95.6656 121.033 98.2254 120.957 99.8241 125.02C101.423 129.083 104.106 130.568 106.58 129.845C109.045 129.121 113.346 127.066 115.221 132.709C117.095 138.352 121.52 149.048 115.582 151.836C109.644 154.614 100.271 150.884 98.8439 146.631C97.4165 142.377 98.9486 138.732 94.1621 137.362C89.3756 135.992 88.7095 140.731 84.513 137.552C80.3165 134.365 75.7774 131.51 78.8987 124.887C81.7058 118.93 87.3773 116.922 88.1481 119.929Z" stroke="#FCBE42" stroke-miterlimit="10"/>
<path d="M87.2383 126.276C87.2383 126.276 113.464 146.459 121.315 150.027" stroke="#FCBE42" stroke-miterlimit="10"/>
<path d="M108.198 133.688L108.969 142.272L102.289 145.146" stroke="#FCBE42" stroke-miterlimit="10"/>
<path d="M94.9925 125.6L94.6404 131.871L89.3496 134.964" stroke="#FCBE42" stroke-miterlimit="10"/>
<path d="M262.009 41.5942C262.009 41.5942 261.885 45.9049 262.837 52.2901L269.964 57.5428L263.76 57.4286C267.624 75.5659 279.937 103.086 319.019 105.227C319.009 105.236 346.367 60.312 262.009 41.5942Z" fill="#023EA1"/>
<path d="M267.35 69.4662L298.486 78.5729L262.012 41.5942" stroke="white" stroke-miterlimit="10"/>
<path d="M288.082 49.4633L298.483 78.5723" stroke="white" stroke-miterlimit="10"/>
<path d="M329.383 43.5817C329.383 43.5817 326.461 39.4423 330.039 36.9206C333.617 34.3989 339.841 36.5019 340.145 40.0703C340.459 43.6388 337.928 45.2089 340.488 46.5697C343.047 47.9304 349.518 52.7359 346.959 55.8762C344.399 59.0164 340.002 57.7127 340.316 62.9179C340.63 68.1231 349.29 71.9295 342.448 76.7064C335.597 81.4834 321.865 86.7837 320.133 74.023C318.401 61.2622 329.564 67.3143 325.51 58.1981C321.456 49.0819 326.871 50.6329 329.392 48.2825C331.914 45.9321 329.383 43.5817 329.383 43.5817Z" fill="#FCBE42"/>
<path d="M335.187 50.0232C335.187 50.0232 331.647 62.9362 332.655 74.9262C333.664 86.9162 335.843 89.3142 335.843 89.3142" stroke="#E5F8FF" stroke-miterlimit="10"/>
<path d="M319.453 90.6282C319.453 90.6282 310.936 61.405 313.21 40.413" stroke="#EB4B57" stroke-miterlimit="10"/>
<path d="M316.656 27.5869C316.656 27.5869 320.433 36.1512 313.03 42.5934C313.02 42.603 308.538 35.723 316.656 27.5869Z" stroke="#EB4B57" stroke-miterlimit="10"/>
<path d="M313.523 60.13C313.523 60.13 314.075 51.5086 324.172 49.1201C324.162 49.1201 326.018 56.8756 313.523 60.13Z" stroke="#EB4B57" stroke-miterlimit="10"/>
<path d="M316.903 80.161C316.903 80.161 315.761 71.5967 325.191 67.2765C325.191 67.2765 328.522 74.5276 316.903 80.161Z" stroke="#EB4B57" stroke-miterlimit="10"/>
<path d="M316.58 80.3323C316.58 80.3323 314.895 71.8537 304.571 70.8259C304.571 70.8164 303.762 78.7527 316.58 80.3323Z" stroke="#EB4B57" stroke-miterlimit="10"/>
<path d="M313.601 60.0444C313.601 60.0444 313.011 51.4231 302.905 49.0822C302.905 49.0822 301.097 56.8471 313.601 60.0444Z" stroke="#EB4B57" stroke-miterlimit="10"/>
<path d="M191.946 58.4742C191.946 58.4742 193.097 61.8904 195.324 64.7452C197.551 67.5999 195.448 70.2263 195.448 70.2263C195.448 70.2263 190.052 73.0811 188.463 69.4365C188.463 69.4365 188.016 67.4572 187.94 66.0393C187.921 65.7253 187.854 65.4208 187.711 65.1353C187.407 64.5263 186.921 62.6802 185.361 64.355C185.361 64.355 183.524 67.8759 180.755 64.926C180.65 64.8118 180.584 64.669 180.546 64.5168L180.355 63.5557L179.432 63.451C179.195 63.4224 179.004 63.2131 179.004 62.9752V62.0522H178.138C177.872 62.0522 177.653 61.8428 177.643 61.5668L177.453 52.1176C177.453 52.1176 181.183 48.4254 185.675 50.5284C190.157 52.641 190.518 51.9653 191.946 58.4742Z" fill="#FFBF9C"/>
<path d="M177.361 54.2311C177.371 54.5641 177.2 54.8781 176.924 55.0685C176.229 55.5538 174.906 56.0105 173.469 54.1359C171.347 51.3858 173.631 51.3287 173.631 51.3287C173.631 51.3287 171.728 45.7715 177.447 46.9324C177.447 46.9324 180.625 41.004 184.536 45.9237C184.536 45.9237 191.102 43.1165 191.473 49.2067C191.473 49.2067 196.003 52.5753 193.434 59.1698C193.291 59.5314 192.967 59.7883 192.577 59.8549C191.312 60.0833 188.666 59.9691 189.171 54.8401C189.228 54.2406 189.18 53.622 188.99 53.0511C188.666 52.0805 187.962 51.1765 186.544 53.2319C186.544 53.2319 184.793 55.4015 184.213 52.5468C183.632 49.692 178.76 51.8616 177.913 52.8608C177.437 53.4317 177.352 53.917 177.361 54.2311Z" fill="#170D54"/>
<path d="M188.065 67.249C188.065 67.249 176.646 65.9358 176.275 76.5841L176.17 78.8108L207.62 78.2303C207.62 78.2303 209 66.3735 200.892 66.3735L196.191 66.5448C196.191 66.5448 196.125 70.3987 192.204 70.4463C188.284 70.4939 188.065 67.249 188.065 67.249Z" fill="#F79F03"/>
<path d="M283.103 261.087C283.074 261.087 282.998 261.506 282.988 261.525C282.884 261.944 282.798 262.363 282.731 262.781C282.617 263.428 282.522 264.085 282.456 264.741C282.37 265.588 282.313 266.435 282.294 267.282C282.275 268.281 282.303 269.29 282.379 270.289C282.465 271.412 282.627 272.535 282.846 273.639C283.093 274.847 283.417 276.056 283.826 277.226C284.264 278.492 284.806 279.739 285.444 280.928C286.129 282.222 286.928 283.459 287.832 284.63C288.822 285.914 289.925 287.113 291.124 288.217C292.457 289.445 293.913 290.568 295.454 291.576C296.33 292.147 297.196 292.728 298.138 293.194C298.442 293.346 298.766 293.46 299.099 293.565C299.146 293.584 299.736 293.727 299.736 293.765V303.69H205.501L205.453 294.355C205.453 294.355 220.184 291.605 223.276 262.163C223.267 262.163 283.093 261.087 283.103 261.087Z" fill="#0064B7"/>
<path d="M283.361 276.884L222.84 265.446L223.268 262.163L283.484 261.449C283.484 261.449 280.144 265.037 283.361 276.884Z" fill="#023EA1"/>
<path d="M299.726 294.353H205.443L205.424 303.688H299.726V294.353Z" fill="#023EA1"/>
<path d="M385.785 77.2773H118.646C107.455 76.9157 107.455 85.5371 107.455 85.5371V216.209L110.548 265.749C110.548 265.749 369.96 265.035 383.863 265.035C397.756 265.035 397.756 254.263 397.756 254.263V249.239C397.756 249.239 397.756 98.4596 397.756 87.6877C397.756 76.9157 385.785 77.2773 385.785 77.2773ZM119.036 252.112L119.807 90.5615H122.119H385.395L386.165 250.675L119.036 252.112Z" fill="#0064B7"/>
<path d="M119.036 90.2015H388.097L387.717 256.425L117.875 256.063L119.036 90.2015Z" fill="#E9EEF2"/>
<path d="M369.798 113.314H135.384C134.337 113.314 133.48 112.457 133.48 111.411V97.3273C133.48 96.2805 134.337 95.4241 135.384 95.4241H369.798C370.844 95.4241 371.701 96.2805 371.701 97.3273V111.411C371.701 112.457 370.854 113.314 369.798 113.314Z" fill="white"/>
<path d="M144.282 110.117C147.44 110.117 150.001 107.544 150.001 104.37C150.001 101.195 147.44 98.6222 144.282 98.6222C141.123 98.6222 138.562 101.195 138.562 104.37C138.562 107.544 141.123 110.117 144.282 110.117Z" fill="#EE384E"/>
<path d="M200.189 106.92H173.507C172.46 106.92 171.604 106.064 171.604 105.017V104.351C171.604 103.304 172.46 102.448 173.507 102.448H200.189C201.236 102.448 202.092 103.304 202.092 104.351V105.017C202.092 106.073 201.236 106.92 200.189 106.92Z" fill="#78C8F2"/>
<path d="M240.211 106.92H214.794C213.747 106.92 212.891 106.064 212.891 105.017V104.351C212.891 103.304 213.747 102.448 214.794 102.448H240.211C241.257 102.448 242.114 103.304 242.114 104.351V105.017C242.114 106.073 241.257 106.92 240.211 106.92Z" fill="#DBE7F4"/>
<path d="M281.502 106.92H256.085C255.038 106.92 254.182 106.064 254.182 105.017V104.351C254.182 103.304 255.038 102.448 256.085 102.448H281.502C282.548 102.448 283.405 103.304 283.405 104.351V105.017C283.405 106.073 282.548 106.92 281.502 106.92Z" fill="#DBE7F4"/>
<path d="M322.152 106.92H296.735C295.688 106.92 294.832 106.064 294.832 105.017V104.351C294.832 103.304 295.688 102.448 296.735 102.448H322.152C323.199 102.448 324.055 103.304 324.055 104.351V105.017C324.055 106.073 323.208 106.92 322.152 106.92Z" fill="#DBE7F4"/>
<path d="M364.082 106.92H338.665C337.618 106.92 336.762 106.064 336.762 105.017V104.351C336.762 103.304 337.618 102.448 338.665 102.448H364.082C365.129 102.448 365.985 103.304 365.985 104.351V105.017C365.985 106.073 365.138 106.92 364.082 106.92Z" fill="#DBE7F4"/>
<path d="M369.798 171.447H135.384C134.337 171.447 133.48 170.59 133.48 169.544V120.327C133.48 119.281 134.337 118.424 135.384 118.424H369.798C370.844 118.424 371.701 119.281 371.701 120.327V169.544C371.701 170.59 370.854 171.447 369.798 171.447Z" fill="white"/>
<path d="M252.916 165.548H141.104C140.058 165.548 139.201 164.691 139.201 163.644V125.952C139.201 124.905 140.058 124.049 141.104 124.049H252.916C253.963 124.049 254.819 124.905 254.819 125.952V163.644C254.819 164.691 253.963 165.548 252.916 165.548Z" fill="#DBE7F4"/>
<path d="M346.03 133.679H288.64C287.593 133.679 286.736 132.823 286.736 131.776V131.11C286.736 130.063 287.593 129.207 288.64 129.207H346.03C347.076 129.207 347.933 130.063 347.933 131.11V131.776C347.933 132.823 347.086 133.679 346.03 133.679Z" fill="#61BFEE"/>
<path d="M326.561 164.842H307.167C304.855 164.842 302.98 162.967 302.98 160.655C302.98 158.342 304.855 156.468 307.167 156.468H326.561C328.873 156.468 330.748 158.342 330.748 160.655C330.748 162.967 328.873 164.842 326.561 164.842Z" fill="#EE384E"/>
<path d="M361.045 142.956H272.271C271.567 142.956 270.996 142.385 270.996 141.681C270.996 140.977 271.567 140.406 272.271 140.406H361.045C361.749 140.406 362.32 140.977 362.32 141.681C362.32 142.385 361.749 142.956 361.045 142.956Z" fill="#DAE6F4"/>
<path d="M347.561 149.113H272.271C271.567 149.113 270.996 148.542 270.996 147.838C270.996 147.134 271.567 146.563 272.271 146.563H347.561C348.265 146.563 348.836 147.134 348.836 147.838C348.836 148.542 348.265 149.113 347.561 149.113Z" fill="#DAE6F4"/>
<path d="M207.066 247.345H135.374C134.327 247.345 133.471 246.489 133.471 245.442V179.098C133.471 178.051 134.327 177.194 135.374 177.194H207.066C208.113 177.194 208.97 178.051 208.97 179.098V245.442C208.97 246.498 208.123 247.345 207.066 247.345Z" fill="white"/>
<path d="M202.947 218.113H140.247C139.2 218.113 138.344 217.256 138.344 216.21V184.845C138.344 183.799 139.2 182.942 140.247 182.942H202.947C203.994 182.942 204.85 183.799 204.85 184.845V216.21C204.85 217.256 203.994 218.113 202.947 218.113Z" fill="#67C2EF"/>
<path d="M203.242 227.487H139.952C139.067 227.487 138.344 226.763 138.344 225.878C138.344 224.993 139.067 224.27 139.952 224.27H203.242C204.127 224.27 204.85 224.993 204.85 225.878C204.85 226.763 204.127 227.487 203.242 227.487Z" fill="#DAE6F4"/>
<path d="M203.242 233.661H139.952C139.067 233.661 138.344 232.937 138.344 232.053C138.344 231.168 139.067 230.444 139.952 230.444H203.242C204.127 230.444 204.85 231.168 204.85 232.053C204.85 232.937 204.127 233.661 203.242 233.661Z" fill="#DAE6F4"/>
<path d="M288.17 247.345H216.477C215.431 247.345 214.574 246.489 214.574 245.442V179.098C214.574 178.051 215.431 177.194 216.477 177.194H288.17C289.217 177.194 290.073 178.051 290.073 179.098V245.442C290.073 246.498 289.217 247.345 288.17 247.345Z" fill="white"/>
<path d="M284.051 218.113H221.35C220.304 218.113 219.447 217.256 219.447 216.21V184.845C219.447 183.799 220.304 182.942 221.35 182.942H284.051C285.097 182.942 285.954 183.799 285.954 184.845V216.21C285.954 217.256 285.097 218.113 284.051 218.113Z" fill="#EE384E"/>
<path d="M284.336 227.487H221.055C220.17 227.487 219.447 226.763 219.447 225.878C219.447 224.993 220.17 224.27 221.055 224.27H284.345C285.23 224.27 285.954 224.993 285.954 225.878C285.954 226.763 285.23 227.487 284.336 227.487Z" fill="#DAE6F4"/>
<path d="M284.336 233.661H221.055C220.17 233.661 219.447 232.937 219.447 232.053C219.447 231.168 220.17 230.444 221.055 230.444H284.345C285.23 230.444 285.954 231.168 285.954 232.053C285.954 232.937 285.23 233.661 284.336 233.661Z" fill="#DAE6F4"/>
<path d="M284.336 239.941H221.055C220.17 239.941 219.447 239.218 219.447 238.333C219.447 237.448 220.17 236.725 221.055 236.725H284.345C285.23 236.725 285.954 237.448 285.954 238.333C285.954 239.218 285.23 239.941 284.336 239.941Z" fill="#DAE6F4"/>
<path d="M369.801 247.345H298.108C297.062 247.345 296.205 246.489 296.205 245.442V179.098C296.205 178.051 297.062 177.194 298.108 177.194H369.801C370.848 177.194 371.704 178.051 371.704 179.098V245.442C371.704 246.498 370.857 247.345 369.801 247.345Z" fill="white"/>
<path d="M365.677 218.113H302.977C301.931 218.113 301.074 217.256 301.074 216.21V184.845C301.074 183.799 301.931 182.942 302.977 182.942H365.677C366.724 182.942 367.581 183.799 367.581 184.845V216.21C367.581 217.256 366.724 218.113 365.677 218.113Z" fill="#A1D2F0"/>
<path d="M365.972 227.487H302.682C301.797 227.487 301.074 226.763 301.074 225.878C301.074 224.993 301.797 224.27 302.682 224.27H365.972C366.857 224.27 367.581 224.993 367.581 225.878C367.581 226.763 366.857 227.487 365.972 227.487Z" fill="#DAE6F4"/>
<path d="M365.972 233.661H302.682C301.797 233.661 301.074 232.937 301.074 232.053C301.074 231.168 301.797 230.444 302.682 230.444H365.972C366.857 230.444 367.581 231.168 367.581 232.053C367.581 232.937 366.857 233.661 365.972 233.661Z" fill="#DAE6F4"/>
<path d="M365.972 239.941H302.682C301.797 239.941 301.074 239.218 301.074 238.333C301.074 237.448 301.797 236.725 302.682 236.725H365.972C366.857 236.725 367.581 237.448 367.581 238.333C367.581 239.218 366.857 239.941 365.972 239.941Z" fill="#DAE6F4"/>
<path d="M512.651 190.449H316.671C308.459 190.183 308.459 196.587 308.459 196.587V293.668V330.628C308.459 330.628 501.098 330.218 511.299 330.218C521.491 330.218 521.586 330.218 521.586 330.218L521.434 318.209C521.434 318.209 521.434 206.198 521.434 198.195C521.434 190.192 512.651 190.449 512.651 190.449Z" fill="#0064B7"/>
<path d="M511.682 324.852H319.005C317.958 324.852 317.102 323.996 317.102 322.949V199.842C317.102 198.795 317.958 197.939 319.005 197.939H511.682C512.729 197.939 513.585 198.795 513.585 199.842V322.939C513.585 323.996 512.729 324.852 511.682 324.852Z" fill="#E9EEF2"/>
<path d="M301.19 329.935L526.069 330.011L531.912 329.897C532.14 329.897 532.34 330.068 532.359 330.297C532.454 331.819 531.912 337.081 520.15 337.443C506.39 337.871 305.644 338.081 305.644 338.081C305.644 338.081 295.424 338.185 294.206 330.877L294.12 330.097C294.11 330.002 294.187 329.926 294.272 329.926H301.19V329.935Z" fill="#023EA1"/>
<path d="M506.278 216.229H322.841C321.794 216.229 320.938 215.372 320.938 214.326V203.877C320.938 202.83 321.794 201.974 322.841 201.974H506.278C507.325 201.974 508.181 202.83 508.181 203.877V214.326C508.181 215.382 507.334 216.229 506.278 216.229Z" fill="white"/>
<path d="M329.425 213.689C331.906 213.689 333.917 211.64 333.917 209.112C333.917 206.584 331.906 204.535 329.425 204.535C326.945 204.535 324.934 206.584 324.934 209.112C324.934 211.64 326.945 213.689 329.425 213.689Z" fill="#EE384E"/>
<path d="M415.34 195.142C415.945 195.142 416.435 194.64 416.435 194.02C416.435 193.399 415.945 192.897 415.34 192.897C414.736 192.897 414.246 193.399 414.246 194.02C414.246 194.64 414.736 195.142 415.34 195.142Z" fill="white"/>
<path d="M373.084 211.148H352.682C351.702 211.148 350.902 210.349 350.902 209.368C350.902 208.388 351.702 207.589 352.682 207.589H373.084C374.064 207.589 374.863 208.388 374.863 209.368C374.863 210.349 374.064 211.148 373.084 211.148Z" fill="#DBE7F4"/>
<path d="M404.542 211.148H385.139C384.159 211.148 383.359 210.349 383.359 209.368C383.359 208.388 384.159 207.589 385.139 207.589H404.542C405.522 207.589 406.321 208.388 406.321 209.368C406.321 210.349 405.522 211.148 404.542 211.148Z" fill="#78C8F2"/>
<path d="M436.991 211.148H417.588C416.608 211.148 415.809 210.349 415.809 209.368C415.809 208.388 416.608 207.589 417.588 207.589H436.991C437.971 207.589 438.77 208.388 438.77 209.368C438.77 210.349 437.981 211.148 436.991 211.148Z" fill="#DBE7F4"/>
<path d="M468.944 211.148H449.541C448.561 211.148 447.762 210.349 447.762 209.368C447.762 208.388 448.561 207.589 449.541 207.589H468.944C469.924 207.589 470.724 208.388 470.724 209.368C470.733 210.349 469.934 211.148 468.944 211.148Z" fill="#DBE7F4"/>
<path d="M501.907 211.148H482.504C481.524 211.148 480.725 210.349 480.725 209.368C480.725 208.388 481.524 207.589 482.504 207.589H501.907C502.887 207.589 503.686 208.388 503.686 209.368C503.686 210.349 502.887 211.148 501.907 211.148Z" fill="#DBE7F4"/>
<path d="M506.228 261.127H322.905C321.858 261.127 321.002 260.27 321.002 259.223V221.902C321.002 220.855 321.858 219.999 322.905 219.999H506.219C507.266 219.999 508.122 220.855 508.122 221.902V259.223C508.132 260.28 507.275 261.127 506.228 261.127Z" fill="white"/>
<path d="M414.408 256.547H327.395C326.349 256.547 325.492 255.691 325.492 254.644V226.258C325.492 225.211 326.349 224.355 327.395 224.355H414.408C415.455 224.355 416.312 225.211 416.312 226.258V254.644C416.312 255.7 415.455 256.547 414.408 256.547Z" fill="#A1D2F0"/>
<path d="M487.721 231.834H443.121C442.159 231.834 441.389 231.054 441.389 230.103C441.389 229.141 442.169 228.371 443.121 228.371H487.721C488.683 228.371 489.453 229.151 489.453 230.103C489.453 231.054 488.683 231.834 487.721 231.834Z" fill="#61BFEE"/>
<path d="M472.704 256.005H457.384C455.585 256.005 454.139 254.55 454.139 252.761C454.139 250.962 455.595 249.516 457.384 249.516H472.704C474.503 249.516 475.949 250.972 475.949 252.761C475.959 254.55 474.503 256.005 472.704 256.005Z" fill="#EE384E"/>
<path d="M499.768 239.029H430.017C429.465 239.029 429.027 238.582 429.027 238.039C429.027 237.487 429.475 237.049 430.017 237.049H499.768C500.32 237.049 500.758 237.497 500.758 238.039C500.758 238.582 500.311 239.029 499.768 239.029Z" fill="#DAE6F4"/>
<path d="M489.179 243.806H430.009C429.457 243.806 429.02 243.358 429.02 242.816C429.02 242.264 429.467 241.826 430.009 241.826H489.179C489.731 241.826 490.168 242.274 490.168 242.816C490.168 243.358 489.721 243.806 489.179 243.806Z" fill="#DAE6F4"/>
<path d="M378.133 321.551H322.751C321.704 321.551 320.848 320.694 320.848 319.648V268.614C320.848 267.567 321.704 266.711 322.751 266.711H378.133C379.18 266.711 380.036 267.567 380.036 268.614V319.648C380.036 320.704 379.189 321.551 378.133 321.551Z" fill="white"/>
<path d="M374.906 298.7H326.575C325.528 298.7 324.672 297.844 324.672 296.797V273.112C324.672 272.066 325.528 271.209 326.575 271.209H374.906C375.953 271.209 376.809 272.066 376.809 273.112V296.797C376.809 297.844 375.953 298.7 374.906 298.7Z" fill="#67C2EF"/>
<path d="M375.547 306.021H325.922C325.227 306.021 324.666 305.459 324.666 304.765C324.666 304.07 325.227 303.508 325.922 303.508H375.547C376.242 303.508 376.803 304.07 376.803 304.765C376.813 305.459 376.242 306.021 375.547 306.021Z" fill="#DAE6F4"/>
<path d="M375.547 310.855H325.922C325.227 310.855 324.666 310.293 324.666 309.599C324.666 308.904 325.227 308.343 325.922 308.343H375.547C376.242 308.343 376.803 308.904 376.803 309.599C376.813 310.293 376.242 310.855 375.547 310.855Z" fill="#DAE6F4"/>
<path d="M441.377 321.636H385.995C384.948 321.636 384.092 320.779 384.092 319.733V268.699C384.092 267.652 384.948 266.796 385.995 266.796H441.377C442.424 266.796 443.28 267.652 443.28 268.699V319.733C443.28 320.779 442.424 321.636 441.377 321.636Z" fill="white"/>
<path d="M438.142 298.78H389.811C388.765 298.78 387.908 297.923 387.908 296.877V273.192C387.908 272.145 388.765 271.289 389.811 271.289H438.142C439.189 271.289 440.046 272.145 440.046 273.192V296.877C440.046 297.923 439.189 298.78 438.142 298.78Z" fill="#EE384E"/>
<path d="M438.79 306.107H389.164C388.47 306.107 387.908 305.545 387.908 304.851C387.908 304.156 388.47 303.595 389.164 303.595H438.79C439.484 303.595 440.046 304.156 440.046 304.851C440.046 305.536 439.484 306.107 438.79 306.107Z" fill="#DAE6F4"/>
<path d="M438.79 310.931H389.164C388.47 310.931 387.908 310.369 387.908 309.675C387.908 308.98 388.47 308.419 389.164 308.419H438.79C439.484 308.419 440.046 308.98 440.046 309.675C440.046 310.369 439.484 310.931 438.79 310.931Z" fill="#DAE6F4"/>
<path d="M438.79 315.839H389.164C388.47 315.839 387.908 315.278 387.908 314.583C387.908 313.888 388.47 313.327 389.164 313.327H438.79C439.484 313.327 440.046 313.888 440.046 314.583C440.046 315.278 439.484 315.839 438.79 315.839Z" fill="#DAE6F4"/>
<path d="M505.963 321.636H450.581C449.534 321.636 448.678 320.779 448.678 319.733V268.699C448.678 267.652 449.534 266.796 450.581 266.796H505.963C507.01 266.796 507.866 267.652 507.866 268.699V319.733C507.866 320.779 507.01 321.636 505.963 321.636Z" fill="white"/>
<path d="M502.724 298.78H454.393C453.347 298.78 452.49 297.923 452.49 296.877V273.192C452.49 272.145 453.347 271.289 454.393 271.289H502.724C503.771 271.289 504.628 272.145 504.628 273.192V296.877C504.628 297.923 503.771 298.78 502.724 298.78Z" fill="#A1D2F0"/>
<path d="M503.372 306.107H453.746C453.052 306.107 452.49 305.545 452.49 304.851C452.49 304.156 453.052 303.595 453.746 303.595H503.372C504.066 303.595 504.628 304.156 504.628 304.851C504.628 305.536 504.066 306.107 503.372 306.107Z" fill="#DAE6F4"/>
<path d="M503.372 310.931H453.746C453.052 310.931 452.49 310.369 452.49 309.675C452.49 308.98 453.052 308.419 453.746 308.419H503.372C504.066 308.419 504.628 308.98 504.628 309.675C504.628 310.369 504.066 310.931 503.372 310.931Z" fill="#DAE6F4"/>
<path d="M503.372 315.839H453.746C453.052 315.839 452.49 315.278 452.49 314.583C452.49 313.888 453.052 313.327 453.746 313.327H503.372C504.066 313.327 504.628 313.888 504.628 314.583C504.628 315.278 504.066 315.839 503.372 315.839Z" fill="#DAE6F4"/>
<path d="M126.308 330.305H32.5763C29.9499 330.305 27.8184 328.173 27.8184 325.547V190.355C27.8184 187.728 29.9499 185.597 32.5763 185.597H126.317C128.944 185.597 131.075 187.728 131.075 190.355V325.547C131.066 328.173 128.943 330.305 126.308 330.305Z" fill="#0064B7"/>
<path d="M120.769 325.014H37.6954C35.0691 325.014 32.9375 322.883 32.9375 320.256V196.141C32.9375 193.515 35.0691 191.383 37.6954 191.383H120.778C123.405 191.383 125.536 193.515 125.536 196.141V320.256C125.527 322.892 123.405 325.014 120.769 325.014Z" fill="#E9EEF2"/>
<path d="M119.825 210.348H38.9305C37.8838 210.348 37.0273 209.491 37.0273 208.444V198.405C37.0273 197.358 37.8838 196.502 38.9305 196.502H119.825C120.872 196.502 121.728 197.358 121.728 198.405V208.444C121.728 209.491 120.872 210.348 119.825 210.348Z" fill="white"/>
<path d="M45.1741 208.522C47.8807 208.522 50.0748 206.328 50.0748 203.621C50.0748 200.915 47.8807 198.721 45.1741 198.721C42.4675 198.721 40.2734 200.915 40.2734 203.621C40.2734 206.328 42.4675 208.522 45.1741 208.522Z" fill="#EE384E"/>
<path d="M116.887 200.774H109.274C108.884 200.774 108.561 200.451 108.561 200.061C108.561 199.67 108.884 199.347 109.274 199.347H116.887C117.277 199.347 117.601 199.67 117.601 200.061C117.601 200.451 117.277 200.774 116.887 200.774Z" fill="#D0ECFB"/>
<path d="M116.887 203.44H109.274C108.884 203.44 108.561 203.116 108.561 202.726C108.561 202.336 108.884 202.012 109.274 202.012H116.887C117.277 202.012 117.601 202.336 117.601 202.726C117.601 203.116 117.277 203.44 116.887 203.44Z" fill="#D0ECFB"/>
<path d="M116.887 206.256H109.274C108.884 206.256 108.561 205.932 108.561 205.542C108.561 205.152 108.884 204.828 109.274 204.828H116.887C117.277 204.828 117.601 205.152 117.601 205.542C117.601 205.932 117.277 206.256 116.887 206.256Z" fill="#D0ECFB"/>
<path d="M119.824 240.626H38.9774C37.9306 240.626 37.0742 239.77 37.0742 238.723V215.952C37.0742 214.905 37.9306 214.049 38.9774 214.049H119.824C120.871 214.049 121.727 214.905 121.727 215.952V238.723C121.727 239.78 120.871 240.626 119.824 240.626Z" fill="white"/>
<path d="M77.6996 237.078H41.368C40.3213 237.078 39.4648 236.221 39.4648 235.175V218.398C39.4648 217.351 40.3213 216.495 41.368 216.495H77.6996C78.7464 216.495 79.6028 217.351 79.6028 218.398V235.175C79.6028 236.231 78.7464 237.078 77.6996 237.078Z" fill="#A1D2F0"/>
<path d="M88.5857 222.899H112.404C113.108 222.899 113.679 222.328 113.679 221.624C113.679 220.92 113.108 220.349 112.404 220.349H88.5857C87.8815 220.349 87.3105 220.92 87.3105 221.624C87.3201 222.337 87.891 222.899 88.5857 222.899Z" fill="#7ACAF2"/>
<path d="M88.1981 226.316H117.317C117.669 226.316 117.954 226.03 117.954 225.678C117.954 225.326 117.669 225.041 117.317 225.041H88.1981C87.846 225.041 87.5605 225.326 87.5605 225.678C87.5605 226.03 87.846 226.316 88.1981 226.316Z" fill="#ECF2F9"/>
<path d="M88.1981 229.808H112.416C112.768 229.808 113.054 229.522 113.054 229.17C113.054 228.818 112.768 228.532 112.416 228.532H88.1981C87.846 228.532 87.5605 228.818 87.5605 229.17C87.5605 229.532 87.846 229.808 88.1981 229.808Z" fill="#ECF2F9"/>
<path d="M76.2532 287.418H38.9129C37.8662 287.418 37.0098 286.561 37.0098 285.515V246.224C37.0098 245.177 37.8662 244.321 38.9129 244.321H76.2532C77.3 244.321 78.1564 245.177 78.1564 246.224V285.515C78.1564 286.571 77.3 287.418 76.2532 287.418Z" fill="white"/>
<path d="M73.9321 269.765H41.3973C40.3506 269.765 39.4941 268.908 39.4941 267.862V249.819C39.4941 248.773 40.3506 247.916 41.3973 247.916H73.9321C74.9788 247.916 75.8352 248.773 75.8352 249.819V267.862C75.8352 268.908 74.9788 269.765 73.9321 269.765Z" fill="#A1D2F0"/>
<path d="M75.092 275.446H40.0165C39.6644 275.446 39.3789 275.16 39.3789 274.808C39.3789 274.456 39.6644 274.17 40.0165 274.17H75.0824C75.4345 274.17 75.72 274.456 75.72 274.808C75.72 275.16 75.4441 275.446 75.092 275.446Z" fill="#D9E5F1"/>
<path d="M75.0824 279.205H40.0165C39.6644 279.205 39.3789 278.919 39.3789 278.567C39.3789 278.215 39.6644 277.93 40.0165 277.93H75.0824C75.4345 277.93 75.72 278.215 75.72 278.567C75.72 278.919 75.4345 279.205 75.0824 279.205Z" fill="#D9E5F1"/>
<path d="M55.651 282.907H40.0165C39.6644 282.907 39.3789 282.621 39.3789 282.269C39.3789 281.917 39.6644 281.632 40.0165 281.632H55.6415C55.9936 281.632 56.2791 281.917 56.2791 282.269C56.2886 282.621 56.0031 282.907 55.651 282.907Z" fill="#D9E5F1"/>
<path d="M76.2532 323.349H38.9129C37.8662 323.349 37.0098 322.493 37.0098 321.446V293.07C37.0098 292.023 37.8662 291.167 38.9129 291.167H76.2532C77.3 291.167 78.1564 292.023 78.1564 293.07V321.446C78.1564 322.493 77.3 323.349 76.2532 323.349Z" fill="white"/>
<path d="M73.9321 316.613H41.3973C40.3506 316.613 39.4941 315.757 39.4941 314.71V296.668C39.4941 295.621 40.3506 294.765 41.3973 294.765H73.9321C74.9788 294.765 75.8352 295.621 75.8352 296.668V314.71C75.8352 315.766 74.9788 316.613 73.9321 316.613Z" fill="#A1D2F0"/>
<path d="M75.092 321.656H40.0165C39.6644 321.656 39.3789 321.37 39.3789 321.018C39.3789 320.666 39.6644 320.38 40.0165 320.38H75.0824C75.4345 320.38 75.72 320.666 75.72 321.018C75.72 321.37 75.4441 321.656 75.092 321.656Z" fill="#D9E5F1"/>
<path d="M120.245 323.388H82.9051C81.8584 323.388 81.002 322.532 81.002 321.485V293.119C81.002 292.072 81.8584 291.215 82.9051 291.215H120.245C121.292 291.215 122.149 292.072 122.149 293.119V321.495C122.149 322.542 121.292 323.388 120.245 323.388Z" fill="white"/>
<path d="M117.922 316.649H85.3875C84.3408 316.649 83.4844 315.792 83.4844 314.746V296.704C83.4844 295.657 84.3408 294.8 85.3875 294.8H117.922C118.969 294.8 119.825 295.657 119.825 296.704V314.746C119.825 315.802 118.969 316.649 117.922 316.649Z" fill="#DCE8F4"/>
<path d="M119.082 321.695H84.0067C83.6546 321.695 83.3691 321.41 83.3691 321.058C83.3691 320.706 83.6546 320.42 84.0067 320.42H119.073C119.425 320.42 119.71 320.706 119.71 321.058C119.71 321.41 119.434 321.695 119.082 321.695Z" fill="#D9E5F1"/>
<path d="M119.818 287.502H82.4774C81.4306 287.502 80.5742 286.646 80.5742 285.599V246.298C80.5742 245.251 81.4306 244.395 82.4774 244.395H119.818C120.864 244.395 121.721 245.251 121.721 246.298V285.589C121.721 286.645 120.874 287.502 119.818 287.502Z" fill="white"/>
<path d="M117.497 269.843H84.9618C83.915 269.843 83.0586 268.987 83.0586 267.94V249.898C83.0586 248.851 83.915 247.995 84.9618 247.995H117.497C118.543 247.995 119.4 248.851 119.4 249.898V267.94C119.4 268.996 118.553 269.843 117.497 269.843Z" fill="#EE384E"/>
<path d="M118.657 275.521H83.5907C83.2386 275.521 82.9531 275.236 82.9531 274.884C82.9531 274.532 83.2386 274.246 83.5907 274.246H118.657C119.009 274.246 119.294 274.532 119.294 274.884C119.294 275.236 119.009 275.521 118.657 275.521Z" fill="#D9E5F1"/>
<path d="M118.647 279.282H83.5907C83.2386 279.282 82.9531 278.996 82.9531 278.644C82.9531 278.292 83.2386 278.006 83.5907 278.006H118.657C119.009 278.006 119.294 278.292 119.294 278.644C119.285 278.996 118.999 279.282 118.647 279.282Z" fill="#D9E5F1"/>
<path d="M99.2157 282.983H83.5907C83.2386 282.983 82.9531 282.697 82.9531 282.345C82.9531 281.993 83.2386 281.708 83.5907 281.708H99.2157C99.5678 281.708 99.8533 281.993 99.8533 282.345C99.8533 282.697 99.5678 282.983 99.2157 282.983Z" fill="#D9E5F1"/>
<path d="M169.128 346.542L119.35 346.599C116.724 346.599 114.592 344.477 114.583 341.85L114.459 237.404C114.459 234.778 116.581 232.646 119.207 232.637L168.985 232.579C171.611 232.579 173.743 234.701 173.752 237.328L173.876 341.774C173.886 344.4 171.754 346.542 169.128 346.542Z" fill="#0064B7"/>
<path d="M164.645 340.077L123.688 340.125C121.062 340.125 118.93 338.003 118.921 335.377L118.807 243.196C118.807 240.57 120.929 238.438 123.555 238.429L164.511 238.381C167.138 238.381 169.269 240.503 169.279 243.13L169.393 335.31C169.403 337.936 167.271 340.068 164.645 340.077Z" fill="#E9EEF2"/>
<path d="M164.01 252.874L124.852 252.922C123.805 252.922 122.949 252.075 122.949 251.019L122.939 244.415C122.939 243.368 123.786 242.511 124.843 242.511L164 242.464C165.047 242.464 165.904 243.311 165.904 244.367L165.913 250.971C165.913 252.027 165.066 252.874 164.01 252.874Z" fill="white"/>
<path d="M128.113 251.39C130.178 251.39 131.853 249.716 131.853 247.65C131.853 245.585 130.178 243.91 128.113 243.91C126.047 243.91 124.373 245.585 124.373 247.65C124.373 249.716 126.047 251.39 128.113 251.39Z" fill="#EE384E"/>
<path d="M163.724 246.175L156.987 246.184C156.711 246.184 156.482 245.956 156.482 245.68C156.482 245.404 156.711 245.176 156.987 245.176L163.724 245.166C164 245.166 164.228 245.394 164.228 245.67C164.228 245.946 164.009 246.175 163.724 246.175Z" fill="#D0ECFB"/>
<path d="M163.724 248.07L156.987 248.08C156.711 248.08 156.482 247.851 156.482 247.575C156.482 247.3 156.711 247.071 156.987 247.071L163.724 247.062C164 247.062 164.228 247.29 164.228 247.566C164.238 247.842 164.009 248.07 163.724 248.07Z" fill="#D0ECFB"/>
<path d="M163.732 250.078L156.995 250.087C156.719 250.087 156.49 249.859 156.49 249.583C156.49 249.307 156.719 249.078 156.995 249.078L163.732 249.069C164.008 249.069 164.236 249.297 164.236 249.573C164.236 249.849 164.008 250.078 163.732 250.078Z" fill="#D0ECFB"/>
<path d="M164.056 292.232L124.898 292.28C123.852 292.28 122.995 291.433 122.995 290.377L122.957 258.965C122.957 257.918 123.804 257.062 124.86 257.062L164.018 257.014C165.065 257.014 165.921 257.861 165.921 258.917L165.959 290.329C165.959 291.376 165.112 292.223 164.056 292.232Z" fill="#FCFEFF"/>
<path d="M154.168 262.163L133.043 262.191C132.339 262.191 131.768 261.62 131.768 260.926C131.768 260.222 132.339 259.651 133.033 259.651L154.158 259.622C154.863 259.622 155.434 260.193 155.434 260.888C155.443 261.592 154.872 262.163 154.168 262.163Z" fill="#90D2F3"/>
<path d="M161.297 289.187L127.192 289.225C126.145 289.225 125.289 288.378 125.289 287.322L125.279 277.853C125.279 276.807 126.126 275.95 127.182 275.95L161.287 275.912C162.334 275.912 163.191 276.759 163.191 277.815L163.2 287.284C163.2 288.34 162.344 289.187 161.297 289.187Z" fill="#A1D2F0"/>
<path d="M159.368 266.292L128.194 266.33C127.461 266.33 126.861 265.73 126.861 264.998C126.861 264.265 127.461 263.666 128.194 263.666L159.368 263.627C160.1 263.627 160.7 264.227 160.7 264.96C160.7 265.692 160.1 266.292 159.368 266.292Z" fill="#ECF2F8"/>
<path d="M147.467 273.839L140.406 273.849C139.131 273.849 138.094 272.821 138.094 271.546C138.094 270.271 139.121 269.233 140.397 269.233L147.457 269.224C148.733 269.224 149.77 270.252 149.77 271.527C149.779 272.802 148.742 273.839 147.467 273.839Z" fill="#EE384E"/>
<path d="M165.951 340.109L123.12 340.157L123.072 298.182C123.072 297.135 123.919 296.279 124.975 296.279L164 296.231C165.047 296.231 165.903 297.078 165.903 298.135L165.951 340.109Z" fill="white"/>
<path d="M161.631 323.082L127.707 323.12C126.661 323.12 125.804 322.273 125.804 321.217L125.785 303.032C125.785 301.985 126.632 301.129 127.688 301.129L161.612 301.091C162.659 301.091 163.516 301.937 163.516 302.994L163.535 321.179C163.535 322.235 162.678 323.082 161.631 323.082Z" fill="#67C2EF"/>
<path d="M162.534 329.571L126.821 329.619C126.269 329.619 125.812 329.171 125.812 328.61C125.812 328.058 126.26 327.601 126.821 327.601L162.534 327.554C163.086 327.554 163.543 328.001 163.543 328.562C163.543 329.124 163.086 329.571 162.534 329.571Z" fill="#DAE6F4"/>
<path d="M162.544 333.435L126.831 333.482C126.279 333.482 125.822 333.035 125.822 332.473C125.822 331.922 126.27 331.465 126.831 331.465L162.544 331.417C163.096 331.417 163.553 331.864 163.553 332.426C163.543 332.987 163.096 333.435 162.544 333.435Z" fill="#DAE6F4"/>
<path d="M142.351 337.499L126.736 337.518C126.231 337.518 125.822 337.108 125.822 336.604C125.822 336.1 126.231 335.691 126.736 335.691L142.351 335.672C142.856 335.672 143.265 336.081 143.265 336.585C143.255 337.089 142.856 337.499 142.351 337.499Z" fill="#DAE6F4"/>
<path d="M170.984 77.9553C170.984 77.9553 170.032 74.3583 172.516 74.1966C174.999 74.0348 175.161 76.0997 175.161 77.8982C175.161 77.8982 174.276 78.1647 174 77.9268C173.724 77.6889 173.211 77.8887 173.011 77.9648C172.811 78.0505 171.222 78.2598 170.984 77.9553Z" fill="#FFBF9C"/>
<path d="M197.136 77.5838C197.136 77.5838 196.66 75.1002 199.258 74.9384C201.856 74.7767 202.331 76.5276 202.436 77.7932C202.541 79.0588 202.389 79.6393 201.903 79.4299C201.437 79.2301 201.361 78.9065 201.361 78.9065C201.361 78.9065 201.161 79.0873 200.904 79.2777C200.666 79.4489 200.029 79.2967 199.895 79.1159C199.772 78.9351 198.801 79.1159 198.677 79.2777C198.477 79.5251 197.621 79.3348 197.459 79.0112C197.298 78.6972 197.136 77.5838 197.136 77.5838Z" fill="#FFBF9C"/>
<path d="M149.222 236.364H138.897C138.545 236.364 138.26 236.079 138.26 235.727C138.26 235.375 138.545 235.089 138.897 235.089H149.222C149.574 235.089 149.86 235.375 149.86 235.727C149.86 236.088 149.574 236.364 149.222 236.364Z" fill="white"/>
<path d="M48.5607 136.858C48.5607 136.858 42.7751 134.802 42.128 140.207C42.128 140.207 40.653 144.128 39.1686 144.842C37.6936 145.546 34.0205 146.897 34.9245 151.979C35.8285 157.06 37.2368 156.736 36.6659 159.696C36.0949 162.655 37.5033 162.979 39.5587 163.046C41.6141 163.112 42.1946 161.18 42.1946 161.18L41.6141 154.614L42.9654 144.061L47.3427 142.32C47.3427 142.32 49.598 139.494 49.7883 138.399C49.9786 137.315 48.5607 136.858 48.5607 136.858Z" fill="#170856"/>
<path d="M47.79 135.402C47.79 135.402 46.8765 136.354 47.0859 136.525C47.3047 136.696 49.7979 138 49.7979 138C49.7979 138 50.5211 136.601 50.445 136.192C50.3879 135.773 47.79 135.402 47.79 135.402Z" fill="#F05051"/>
<path d="M63.1013 128.341C63.2346 128.36 63.3202 128.464 63.3202 128.598C63.2821 129.854 62.9967 135.915 60.6272 138.161C60.6272 138.161 59.3711 139.798 56.9636 139.122C56.9636 139.122 54.794 137.819 55.127 140.473C55.4601 143.128 54.3562 145.736 53.4903 146.116C52.6244 146.507 49.0559 145.536 48.228 144.042C47.6856 143.043 47.3906 142.538 47.2574 142.32C47.2003 142.224 47.2098 142.11 47.286 142.025C47.7713 141.463 49.6173 139.198 50.4738 136.077C51.4634 132.461 50.9305 128.988 54.2611 128.265C57.192 127.637 62.007 128.198 63.1013 128.341Z" fill="#FFBE97"/>
<path d="M66.2212 128.045C66.2116 127.988 66.2021 127.94 66.2021 127.883C66.1736 127.531 66.2116 127.169 66.1736 126.817C66.0594 125.713 65.7073 124.553 64.8414 123.801C64.1943 123.249 63.3569 123.021 62.5195 123.021C62.3292 123.021 62.1484 122.954 62.0247 122.811C61.4537 122.164 59.6076 120.328 57.0574 120.328C53.9742 120.328 48.7024 121.993 47.2846 127.255C47.2846 127.265 47.2846 127.274 47.2751 127.284C47.1894 127.636 45.1816 135.895 49.2068 136.152C53.3272 136.409 54.9924 134.382 54.8687 132.546C54.8687 132.546 52.8418 128.911 56.2866 129.843C56.2866 129.843 59.8265 130.509 62.2911 129.063C62.5956 128.882 62.9858 128.996 63.1666 129.301C63.6614 130.148 64.632 131.452 65.5455 130.357C65.8786 129.958 66.2116 129.482 66.3068 128.958C66.3639 128.635 66.2592 128.349 66.2212 128.045Z" fill="#170856"/>
<path d="M47.2309 142.09C47.2309 142.09 49.2387 145.325 52.103 145.287C54.9673 145.259 55.1481 142.29 55.1481 142.29C55.1481 142.29 60.9813 147.543 60.9147 151.016C60.8481 154.489 59.6967 153.909 59.3731 155.07C59.0496 156.231 61.3048 168.516 61.3048 168.516L61.6379 169.239L45.1564 171.475C45.1564 171.475 44.5093 168.839 44.0621 168.002C43.6148 167.164 41.293 145.611 41.293 145.611L42.3873 144.45C42.3873 144.45 44.319 142.261 47.2309 142.09Z" fill="#DE051F"/>
<path d="M39.9394 155.127C39.9394 155.127 38.3027 144.46 42.4516 143.937C46.5054 143.423 46.572 146.763 46.6957 151.721C46.8289 156.678 46.7623 157.763 46.7623 157.763L40.3296 158.924L39.9394 155.127Z" fill="#EE384E"/>
<path d="M46.5729 157.802C46.6776 157.783 46.7728 157.859 46.7728 157.954L47.1153 162.046C47.0963 162.664 47.201 163.245 47.7815 163.007C48.105 162.874 48.5047 162.683 49.009 162.398C50.8456 161.37 56.4028 158.668 58.1347 157.83C58.4392 157.678 58.6676 157.412 58.7913 157.088C58.9816 156.574 59.4289 155.813 60.4661 155.518C62.0743 155.071 64.8434 155.128 64.9005 155.328C64.9671 155.518 65.2907 156.869 65.1574 157.326C65.0242 157.773 63.6825 157.393 63.6825 157.393C63.6825 157.393 61.1703 156.945 61.884 157.84C62.2932 158.363 62.8736 158.43 63.2923 158.392C63.4636 158.382 63.5493 158.601 63.4065 158.706C63.0544 158.982 62.4454 159.305 61.4272 159.448C59.5621 159.705 46.3731 168.326 46.3731 168.326C46.3731 168.326 43.8038 170.325 42.3193 165.043C41.187 161.018 40.635 159.591 40.4257 159.134C40.3781 159.029 40.4447 158.915 40.5589 158.896L46.5729 157.802Z" fill="#FEBD96"/>
<path d="M68.4865 163.538L60.9595 166.65L60.1602 161.94L63.2243 161.749L68.4865 163.538Z" fill="#FEBD96"/>
<path d="M73.6542 148.505L85.549 147.8L73.1974 163.359L61.8164 163.749L73.6542 148.505Z" fill="#0064B7"/>
<path d="M73.7133 162.274C73.7133 162.274 73.2661 159.447 74.2272 158.991C75.1883 158.543 75.8163 159.59 75.7592 160.104C75.6926 160.675 73.7989 162.597 73.7989 162.597L73.7133 162.274Z" fill="#FEBD96"/>
<path d="M61.6355 169.23L84.8447 178.061C84.8447 178.061 87.7375 178.641 88.4512 186.454C89.1554 194.266 89.7358 220.159 89.7358 220.159L89.7644 220.997L83.9787 221.092L81.0859 193.496L67.3545 176.929L56.2305 169.944L61.6355 169.23Z" fill="#003EB0"/>
<path d="M45.0123 170.97L56.2791 169.952L80.0021 181.799C80.0021 181.799 86.4158 185.577 82.2955 192.419C78.1846 199.261 66.7085 220.129 66.7085 220.129L62.7594 217.179L72.8938 189.117C72.8938 189.117 73.1412 187.67 69.7631 187.423C66.6038 187.195 51.6639 185.739 49.7417 185.548C49.5799 185.529 49.4276 185.501 49.2659 185.444C48.0954 185.016 43.5373 182.798 44.9837 174.834L45.155 171.465L45.0123 170.97Z" fill="#0064E1"/>
<path d="M89.7659 221.004L94.8093 223.773C95.0663 223.916 95.3517 224.021 95.6372 224.068C96.1796 224.154 97.1312 224.411 97.1312 225.191C97.1312 225.191 97.2644 226.095 94.8188 225.895C92.3733 225.696 84.6559 225.762 84.6559 225.762C84.6559 225.762 83.6567 225.534 83.8185 223.317L83.9803 221.099L89.7659 221.004Z" fill="#130452"/>
<path d="M66.71 220.14C66.71 220.14 66.7576 221.444 68.0613 223.252C68.7845 224.251 69.5648 225.212 70.3736 226.145C70.583 226.392 70.8209 226.592 70.9256 226.897C71.0017 227.096 71.0588 227.315 71.0683 227.525C71.0778 227.734 71.0302 227.962 70.8494 228.086C70.5735 228.276 70.1643 228.172 69.8693 228.095C69.7837 228.067 69.698 228.038 69.6124 228.01C67.6331 227.306 61.7142 222.481 60.4581 221.453C60.2963 221.32 60.2012 221.13 60.2012 220.921C60.2012 220.473 60.2773 219.683 60.8007 219.074C61.5715 218.17 62.7705 217.19 62.7705 217.19L66.71 220.14Z" fill="#130452"/>
<path d="M246.843 364.468C265.358 364.468 280.367 362.512 280.367 360.1C280.367 357.688 265.358 355.732 246.843 355.732C228.328 355.732 213.318 357.688 213.318 360.1C213.318 362.512 228.328 364.468 246.843 364.468Z" fill="#ECF2F5"/>
<path d="M261.981 267.442L266.054 267.385L270.66 267.013C270.66 267.013 271.193 269.764 268.538 270.135C265.883 270.506 261.972 270.924 261.287 270.82C260.601 270.725 261.981 267.442 261.981 267.442Z" fill="#FFBF9C"/>
<path d="M259.004 247.337C259.004 247.337 263.201 251.724 263.838 253.998C264.476 256.272 263.096 259.822 262.677 260.83C262.249 261.839 262.516 274.914 262.516 274.914L245.473 274.971L245.549 247.308L259.004 247.337Z" fill="#0064B7"/>
<path d="M268.966 234.357C268.966 234.357 268.566 237.688 267.852 239.838V241.561C267.852 241.789 267.652 241.96 267.434 241.941L266.349 241.827L266.415 243.159C266.425 243.34 266.282 243.502 266.092 243.512L265.254 243.559C265.083 243.569 264.959 243.73 265.007 243.902L265.159 244.463C265.207 244.634 265.102 244.815 264.931 244.853C264.322 244.987 262.942 245.101 261.429 244.054C259.764 242.893 258.812 243.521 258.784 244.501C258.755 245.529 259.631 248.679 258.251 249.373C257.061 249.973 253.483 249.649 252.808 248.936C251.999 248.079 252.884 246.033 253.997 244.882C254.787 244.063 256.1 234.595 258.003 233.729C259.916 232.844 268.966 234.357 268.966 234.357Z" fill="#FFBD99"/>
<path d="M249.327 260.668L249.165 266.492C249.165 266.968 249.546 267.368 250.021 267.377C250.516 267.387 250.992 267.387 252.172 266.911C254.836 265.836 261.279 262.296 262.154 261.801C262.221 261.763 262.268 261.715 262.297 261.658C262.478 261.325 263.229 260.174 265.228 260.278C267.569 260.402 268.13 260.916 267.93 261.668C267.73 262.419 267.492 262.305 267.492 262.305L267.806 262.743C267.806 262.743 267.492 263.495 266.493 263.457C265.504 263.419 264.267 262.943 263.914 263.295C263.6 263.609 253.418 270.413 251.059 271.983C250.716 272.211 250.335 272.373 249.926 272.468C248.385 272.801 244.835 273.315 244.255 270.803C243.541 267.71 243.541 260.678 243.541 260.678L249.327 260.668Z" fill="#FFBF9C"/>
<path d="M249.375 250.36C249.651 250.208 249.984 250.417 249.984 250.731L250.041 261.218C250.041 261.465 249.841 261.675 249.594 261.675C249.232 261.684 248.594 261.694 247.443 261.703C245.578 261.732 244.065 261.722 243.37 261.713C243.142 261.713 242.961 261.522 242.961 261.285L243.104 253.929C243.104 253.777 243.189 253.643 243.323 253.567L249.375 250.36Z" fill="#0083F9"/>
<path d="M252.771 232.767C252.771 232.767 254.998 222.604 262.934 225.145C262.934 225.145 266.588 226.42 268.016 229.275C268.016 229.275 273.259 230.065 272.146 234.194C271.032 238.324 268.653 235.784 268.653 235.784C268.653 235.784 267.626 233.642 266.512 235.146C265.399 236.65 262.782 237.611 261.907 236.174C261.031 234.746 259.442 233.795 258.966 235.936C258.49 238.077 250.392 252.217 246.025 254.121C241.657 256.024 238.716 252.37 240.068 247.212C241.419 242.055 252.609 233.471 252.609 233.471L252.771 232.767Z" fill="#170D54"/>
<path d="M277.228 255.215L287.657 255.482L274.792 269.67L264.105 269.299L277.228 255.215Z" fill="#14094F"/>
<path d="M277.921 265.644C277.921 265.644 278.977 267.652 278.026 268.128C277.074 268.603 276.123 268.87 275.694 268.337C275.266 267.804 275.019 266.224 275.533 266.329C275.98 266.415 276.275 266.434 276.275 266.434L276.341 265.968C276.332 265.825 276.398 265.692 276.522 265.615C276.884 265.387 277.636 265.006 277.921 265.644Z" fill="#FFBF9C"/>
<path d="M259.517 274.818L262.514 274.771L262.619 356.217L256.053 356.331L252.561 303.071L259.517 274.818Z" fill="#DE051F"/>
<path d="M245.466 274.961C245.466 274.961 245.342 277.749 245.152 278.824C245.028 279.481 241.203 285.895 244.21 293.726C244.267 293.879 244.305 294.04 244.314 294.212C244.4 295.972 244.838 306.544 242.611 312.063L231.068 349.442L235.512 352.62C235.512 352.62 250.652 320.114 251.08 318.629C251.508 317.145 261.234 285.295 259.978 276.388L259.73 274.733L245.466 274.961Z" fill="#EE384E"/>
<path d="M262.619 356.217C262.619 356.217 266.539 358.386 268.338 358.862C269.698 359.224 270.032 360.252 270.108 360.727C270.127 360.861 270.022 360.975 269.889 360.975H256.053V356.312L262.619 356.217Z" fill="#1C1457"/>
<path d="M235.509 352.62C235.509 352.62 236.67 355.903 239.106 357.863C241.542 359.823 239.106 361.089 239.106 361.089L228.943 354.713C228.905 354.694 228.886 354.666 228.867 354.628C228.743 354.39 228.277 353.372 228.791 352.353C229.371 351.192 231.065 349.442 231.065 349.442L235.509 352.62Z" fill="#1C1457"/>
<path d="M16.1483 274.682L22.1035 273.012L20.4335 267.057L14.4783 268.727L16.1483 274.682Z" fill="#EE384E"/>
<path d="M415.189 88.8069L421.145 87.1368L419.474 81.1816L413.519 82.8517L415.189 88.8069Z" fill="#003EB0"/>
<path d="M185.404 332.371L191.359 330.701L189.689 324.746L183.734 326.416L185.404 332.371Z" fill="#003EB0"/>
<path d="M183.162 159.095L188.548 149.77H210.083L204.697 159.095H183.162Z" fill="#3A77FD"/>
<path d="M183.162 159.095L188.548 149.77H193.582L183.162 159.095Z" fill="#1F4BAF"/>
<path d="M199.319 149.771H210.091L199.319 131.12H188.547L199.319 149.771Z" fill="#FED125"/>
<path d="M199.322 149.771H210.094L196.848 145.479L199.322 149.771Z" fill="#B5950B"/>
<path d="M177.775 149.771L183.161 159.097L193.933 140.445L188.547 131.12L177.775 149.771Z" fill="#00A95B"/>
<path d="M191.345 144.918L193.933 140.445L188.547 131.12L191.345 144.918Z" fill="#007541"/>
<path d="M506.473 112.145C505.341 112.145 504.418 113.087 504.418 114.229V130.938C504.418 132.09 505.341 133.022 506.473 133.022H518.825C519.957 133.022 520.88 132.08 520.88 130.938V117.283L515.837 112.145H506.473Z" fill="#00A457"/>
<path d="M515.838 112.144L515.905 117.397L520.881 117.273L515.838 112.144Z" fill="#78D0A8"/>
<path d="M504.418 128.521L509.499 123.421L512.516 126.808L520.88 118.53V120.033L512.516 128.321L509.499 124.924L504.418 130.025V128.521Z" fill="white"/>
<path opacity="0.7" d="M520.881 122.535V117.272L515.838 117.396L520.881 122.535Z" fill="#00743E"/>
<path d="M447.081 64.593C445.948 64.593 445.025 65.5351 445.025 66.677V83.3869C445.025 84.5383 445.948 85.4708 447.081 85.4708H459.432C460.565 85.4708 461.488 84.5288 461.488 83.3869V69.7316L456.444 64.593H447.081Z" fill="#DD4435"/>
<path d="M456.445 64.593L456.502 69.8553L461.489 69.7316L456.445 64.593Z" fill="#EF9D95"/>
<path d="M461.49 74.9851V69.7323L456.504 69.856L461.49 74.9851Z" fill="#BB3527"/>
<path d="M451.384 77.8685C453.618 77.8685 455.428 76.0578 455.428 73.8243C455.428 71.5907 453.618 69.78 451.384 69.78C449.151 69.78 447.34 71.5907 447.34 73.8243C447.34 76.0578 449.151 77.8685 451.384 77.8685Z" fill="#F9DAD6"/>
<path opacity="0.5" d="M458.996 73.8245H451.25V81.5704H458.996V73.8245Z" fill="#B80C00"/>
<path d="M40.1062 88.0139C38.9738 88.0139 38.0508 88.956 38.0508 90.0979V106.808C38.0508 107.959 38.9738 108.892 40.1062 108.892H52.4578C53.5902 108.892 54.5132 107.95 54.5132 106.808V93.1525L49.4698 88.0139H40.1062Z" fill="#00A75B"/>
<path d="M49.4727 88.0139L49.5393 93.2667L54.5161 93.1525L49.4727 88.0139Z" fill="#78D0A8"/>
<path d="M54.5139 98.4055V93.1527L49.5371 93.2669L54.5139 98.4055Z" fill="#00723D"/>
<path d="M51.6702 95.7302H43.791V96.9863H51.6702V95.7302Z" fill="white"/>
<path d="M41.3526 97.5113C41.9885 97.5113 42.504 96.9958 42.504 96.3599C42.504 95.724 41.9885 95.2085 41.3526 95.2085C40.7167 95.2085 40.2012 95.724 40.2012 96.3599C40.2012 96.9958 40.7167 97.5113 41.3526 97.5113Z" fill="white"/>
<path d="M51.6702 98.9962H43.791V100.252H51.6702V98.9962Z" fill="white"/>
<path d="M41.3526 100.776C41.9885 100.776 42.504 100.261 42.504 99.625C42.504 98.9891 41.9885 98.4736 41.3526 98.4736C40.7167 98.4736 40.2012 98.9891 40.2012 99.625C40.2012 100.261 40.7167 100.776 41.3526 100.776Z" fill="white"/>
<path d="M51.6702 102.268H43.791V103.524H51.6702V102.268Z" fill="white"/>
<path d="M41.3526 104.049C41.9885 104.049 42.504 103.534 42.504 102.898C42.504 102.262 41.9885 101.746 41.3526 101.746C40.7167 101.746 40.2012 102.262 40.2012 102.898C40.2012 103.534 40.7167 104.049 41.3526 104.049Z" fill="white"/>
<path d="M217.018 34.7218C215.886 34.7218 214.963 35.6639 214.963 36.8058V53.5156C214.963 54.6671 215.886 55.5996 217.018 55.5996H229.37C230.502 55.5996 231.425 54.6575 231.425 53.5156V39.8508L226.382 34.7123H217.018V34.7218Z" fill="#DD4435"/>
<path d="M226.391 34.7219L226.448 39.9747L231.434 39.851L226.391 34.7219Z" fill="#EF9D95"/>
<path d="M231.434 45.1137V39.8514L226.447 39.9752L231.434 45.1137Z" fill="#BB3527"/>
<path d="M220.283 45.6854L222.367 48.2452L225.269 44.3912L229.028 49.5203L217.371 49.5298L220.283 45.6854Z" fill="white"/>
<path d="M2.51832 226.143C1.38593 226.143 0.462891 227.085 0.462891 228.227V244.936C0.462891 246.088 1.38593 247.02 2.51832 247.02H14.8699C16.0023 247.02 16.9253 246.078 16.9253 244.936V231.281L11.8819 226.143H2.51832Z" fill="#00A357"/>
<path d="M11.8809 226.143L11.938 231.395L16.9243 231.272L11.8809 226.143Z" fill="#78D0A8"/>
<path d="M16.9219 236.536V231.274L11.9355 231.397L16.9219 236.536Z" fill="#00733D"/>
<path d="M13.9487 233.518H2.69141V234.27H13.9487V233.518Z" fill="white"/>
<path d="M3.44922 242.172L3.44922 233.522L2.65939 233.522L2.65939 242.172L3.44922 242.172Z" fill="white"/>
<path d="M6.82617 242.178L6.82617 233.528L6.03634 233.528L6.03634 242.178L6.82617 242.178Z" fill="white"/>
<path d="M13.9297 242.179L13.9297 233.529L13.1399 233.529L13.1399 242.179L13.9297 242.179Z" fill="white"/>
<path d="M13.9467 236.155H2.68945V236.907H13.9467V236.155Z" fill="white"/>
<path d="M13.9277 238.791H2.68945V239.543H13.9277V238.791Z" fill="white"/>
<path d="M13.9372 241.426H2.68945V242.178H13.9372V241.426Z" fill="white"/>
<path d="M381.591 35.454C380.458 35.454 379.535 36.396 379.535 37.538V54.2478C379.535 55.3992 380.458 56.3318 381.591 56.3318H393.942C395.075 56.3318 395.998 55.3897 395.998 54.2478V40.5926L390.954 35.454H381.591Z" fill="#377FFC"/>
<path d="M390.953 35.4542L391.01 40.707L395.997 40.5928L390.953 35.4542Z" fill="#9FC2FF"/>
<path d="M396 45.8444V40.5917L391.014 40.7059L396 45.8444Z" fill="#1E53B0"/>
<path d="M392.685 42.8872H381.504V44.0481H392.685V42.8872Z" fill="white"/>
<path d="M392.695 45.5404H381.504V46.6633H392.695V45.5404Z" fill="white"/>
<path d="M392.676 48.1779H381.504V49.3007H392.676V48.1779Z" fill="white"/>
<path d="M388.194 50.8129H381.504V51.9357H388.194V50.8129Z" fill="white"/>
<path d="M559.543 205.105C564.804 205.105 569.068 200.841 569.068 195.58C569.068 190.319 564.804 186.054 559.543 186.054C554.282 186.054 550.018 190.319 550.018 195.58C550.018 200.841 554.282 205.105 559.543 205.105Z" fill="#003EB0"/>
<path d="M557.154 191.776L563.349 196.058L557.154 199.398V191.776Z" fill="white"/>
<path d="M9.52539 199.994C14.7861 199.994 19.0508 195.729 19.0508 190.468C19.0508 185.208 14.7861 180.943 9.52539 180.943C4.26466 180.943 0 185.208 0 190.468C0 195.729 4.26466 199.994 9.52539 199.994Z" fill="#FCBE42"/>
<path d="M6.19336 188.566L9.99971 194.285L12.864 189.518" stroke="white" stroke-width="2" stroke-miterlimit="10"/>
<path d="M137.669 37.4354C136.536 37.4354 135.613 38.3775 135.613 39.5194V56.2293C135.613 57.3807 136.536 58.3132 137.669 58.3132H150.02C151.153 58.3132 152.076 57.3712 152.076 56.2293V42.5645L147.032 37.4259H137.669V37.4354Z" fill="#367EFC"/>
<path d="M147.037 37.4357L147.104 42.6884L152.081 42.5647L147.037 37.4357Z" fill="#9FC2FF"/>
<path d="M152.076 47.8269V42.5646L147.1 42.6883L152.076 47.8269Z" fill="#1E53B0"/>
<path d="M147.147 48.9308L142.465 43.8208V46.923H135.613V50.9482H142.465V54.0504L147.147 48.9308Z" fill="white"/>
<path d="M287.055 0.00939402C285.923 0.00939402 285 0.951466 285 2.09337V18.8032C285 19.9547 285.923 20.8872 287.055 20.8872H299.407C300.539 20.8872 301.462 19.9451 301.462 18.8032V5.13845L296.419 -0.00012207H287.055V0.00939402Z" fill="#F6B500"/>
<path d="M296.418 0.0078125L296.475 5.26057L301.461 5.13687L296.418 0.0078125Z" fill="#FFE25D"/>
<path d="M301.461 10.3911V5.13831L296.475 5.26201L301.461 10.3911Z" fill="#D79F00"/>
<path d="M294.887 5.23291H288.826C288.198 5.23291 287.693 5.73725 287.693 6.3653V11.9511C287.693 12.5792 288.198 13.0835 288.826 13.0835H294.887C295.515 13.0835 296.02 12.5792 296.02 11.9511V6.3653C296.02 5.73725 295.506 5.23291 294.887 5.23291ZM295.22 11.6085H288.493V6.69836H295.22V11.6085Z" fill="white"/>
<path d="M297.876 8.203H291.814C291.186 8.203 290.682 8.70735 290.682 9.33539V14.9212C290.682 15.5493 291.186 16.0536 291.814 16.0536H297.876C298.504 16.0536 299.008 15.5493 299.008 14.9212V9.33539C298.999 8.70735 298.494 8.203 297.876 8.203ZM298.199 14.5786H291.471V9.66845H298.199V14.5786Z" fill="white"/>
<path fill-rule="evenodd" clip-rule="evenodd" d="M19.6411 147.05C19.3556 145.47 18.661 144.1 17.5666 142.92C17.1099 142.425 16.5865 141.997 16.0251 141.626C14.9688 140.941 13.8079 140.522 12.5518 140.379C12.3995 140.36 12.2473 140.36 12.095 140.332C11.7334 140.332 11.3718 140.332 11.0102 140.332C11.0007 140.36 10.9721 140.351 10.9531 140.351C10.6772 140.379 10.4012 140.408 10.1252 140.455C8.11739 140.836 6.47114 141.826 5.19601 143.415C4.14927 144.728 3.5688 146.222 3.44509 147.906C3.388 148.715 3.44509 149.524 3.62589 150.314C3.75912 150.904 3.95895 151.475 4.22539 152.017C4.24443 152.065 4.27297 152.112 4.29201 152.16C4.72974 153.016 5.29117 153.787 5.99535 154.444C6.36647 154.796 6.75662 155.11 7.18483 155.376C8.49802 156.204 9.9254 156.642 11.486 156.661C11.5812 156.661 11.6097 156.69 11.6097 156.785C11.6097 157.613 11.6097 158.45 11.6097 159.278C11.6097 159.306 11.6097 159.345 11.6097 159.383C11.6383 159.373 11.6573 159.364 11.6668 159.354C13.2274 158.621 14.6643 157.689 15.9489 156.528C16.2059 156.299 16.4438 156.052 16.6817 155.805C16.7863 155.7 16.8815 155.586 16.9862 155.481C17.1384 155.319 17.2717 155.129 17.4239 154.958C17.5952 154.758 17.7474 154.539 17.8902 154.33C18.2232 153.854 18.5182 153.359 18.7656 152.826C18.8894 152.56 19.0131 152.293 19.1177 152.017C19.1177 152.008 19.1273 152.008 19.1273 151.998C19.4127 151.247 19.603 150.466 19.6982 149.676C19.7363 149.4 19.7553 149.115 19.7648 148.839C19.7838 148.239 19.7458 147.64 19.6411 147.05ZM9.10704 152.065C8.9643 152.103 8.82156 152.122 8.67882 152.151C8.56463 152.17 8.49802 152.103 8.45044 152.008C8.45044 151.703 8.45044 151.389 8.45044 151.085C8.45996 150.99 8.42189 150.894 8.4885 150.818C8.52657 150.78 8.56463 150.752 8.62173 150.742C8.7835 150.704 8.94527 150.666 9.08801 150.58C9.35445 150.419 9.52574 150.19 9.60186 149.886C9.61138 149.838 9.62089 149.791 9.63993 149.743C8.99285 149.743 8.34577 149.743 7.69869 149.743C7.64159 149.743 7.5845 149.743 7.53692 149.724C7.37515 149.676 7.24193 149.524 7.24193 149.353C7.24193 148.373 7.24193 147.393 7.24193 146.412C7.23241 146.26 7.24193 146.108 7.37515 145.994C7.45127 145.937 7.5274 145.899 7.62256 145.899C8.57415 145.899 9.52574 145.899 10.4868 145.899C10.7438 145.899 10.9436 146.156 10.8675 146.403C10.8865 146.45 10.8865 146.498 10.8865 146.546C10.8865 147.611 10.896 148.687 10.8865 149.753C10.877 150.466 10.601 151.056 10.0872 151.541C10.0586 151.57 10.0301 151.589 10.011 151.618C9.73508 151.808 9.44009 151.97 9.10704 152.065ZM14.3883 151.989C14.3788 151.989 14.3598 151.998 14.3503 151.998C14.3408 151.998 14.3408 152.008 14.3313 152.008C14.1504 152.055 13.9601 152.103 13.7698 152.131C13.6271 152.151 13.5129 152.074 13.5129 151.922C13.5129 151.817 13.5129 151.713 13.5129 151.618C13.5129 151.437 13.5129 151.247 13.5224 151.066C13.5224 151.028 13.5224 150.99 13.5224 150.942C13.5224 150.799 13.5795 150.742 13.7508 150.704C13.9696 150.657 14.179 150.58 14.3503 150.419C14.5596 150.228 14.6643 149.981 14.7119 149.714C14.1124 149.714 13.5129 149.714 12.9134 149.714C12.8468 149.714 12.7802 149.714 12.7136 149.714C12.4661 149.714 12.3044 149.543 12.3044 149.296C12.3044 148.325 12.3044 147.355 12.3044 146.393C12.3044 146.384 12.3044 146.374 12.3044 146.365C12.2853 146.184 12.3329 146.032 12.4947 145.937C12.5613 145.899 12.6279 145.88 12.6945 145.88C13.6461 145.88 14.5882 145.88 15.5398 145.88C15.7967 145.88 15.9965 146.136 15.9204 146.384C15.9394 146.431 15.9394 146.479 15.9394 146.527C15.9394 147.592 15.9394 148.668 15.9394 149.733C15.9394 150.685 15.3399 151.589 14.455 151.951C14.4264 151.97 14.4074 151.979 14.3883 151.989C14.4074 152.008 14.4264 152.017 14.4454 152.017C14.4169 152.017 14.3979 152.008 14.3883 151.989Z" fill="url(#paint0_linear_565_8297)"/>
<path fill-rule="evenodd" clip-rule="evenodd" d="M14.3335 152.018C14.1527 152.065 13.9624 152.113 13.7721 152.141C13.6293 152.16 13.5152 152.084 13.5152 151.932C13.5152 151.827 13.5152 151.723 13.5152 151.627C13.5152 151.447 13.5152 151.256 13.5247 151.076C13.5818 150.952 13.696 150.933 13.8006 150.904C14.3145 150.79 14.638 150.447 14.7142 149.924C14.7237 149.858 14.7617 149.791 14.7142 149.724C14.1147 149.724 13.5152 149.724 12.9157 149.724C12.849 149.724 12.7824 149.724 12.7158 149.724C12.4684 149.724 12.3066 149.553 12.3066 149.306C12.3066 148.335 12.3066 147.364 12.3066 146.403C12.3066 146.394 12.3066 146.384 12.3066 146.375C12.3352 146.365 12.3352 146.337 12.3447 146.318C12.4303 146.175 12.5445 146.099 12.7158 146.099C13.6579 146.099 14.6 146.099 15.5325 146.099C15.7228 146.099 15.8656 146.213 15.9227 146.394C15.9417 146.441 15.9417 146.489 15.9417 146.536C15.9417 147.602 15.9417 148.678 15.9417 149.743C15.9417 150.695 15.3422 151.599 14.4572 151.961C14.4382 151.97 14.4096 151.98 14.3906 151.989C14.3811 151.989 14.3621 151.999 14.3526 151.999C14.343 152.008 14.3335 152.008 14.3335 152.018Z" fill="white"/>
<path fill-rule="evenodd" clip-rule="evenodd" d="M10.0018 151.598C9.73535 151.807 9.44035 151.969 9.1073 152.055C8.96456 152.093 8.82182 152.112 8.67908 152.14C8.56489 152.159 8.49828 152.093 8.4507 151.998C8.4507 151.693 8.4507 151.379 8.4507 151.075C8.49828 150.96 8.61247 150.932 8.71715 150.903C9.24052 150.78 9.54503 150.466 9.63067 149.942C9.64019 149.876 9.67825 149.799 9.64019 149.723C8.99311 149.723 8.34603 149.723 7.69895 149.723C7.64185 149.723 7.58476 149.723 7.53718 149.704C7.37541 149.657 7.24219 149.504 7.24219 149.333C7.24219 148.353 7.24219 147.373 7.24219 146.393C7.3088 146.212 7.4325 146.088 7.64185 146.088C8.58393 146.088 9.53551 146.088 10.4871 146.088C10.6679 146.088 10.8202 146.202 10.8677 146.383C10.8868 146.431 10.8868 146.478 10.8868 146.526C10.8868 147.592 10.8963 148.667 10.8868 149.733C10.8772 150.447 10.6013 151.037 10.0874 151.522C10.0589 151.55 10.0303 151.579 10.0018 151.598Z" fill="white"/>
<path fill-rule="evenodd" clip-rule="evenodd" d="M10.8685 146.383C10.8209 146.202 10.6686 146.088 10.4878 146.088C9.54576 146.088 8.59418 146.088 7.64259 146.088C7.43324 146.088 7.31905 146.212 7.24292 146.393C7.23341 146.24 7.24292 146.088 7.37615 145.974C7.45227 145.917 7.5284 145.879 7.62356 145.879C8.57515 145.879 9.52673 145.879 10.4878 145.879C10.7448 145.879 10.9446 146.136 10.8685 146.383Z" fill="#50A245"/>
<path fill-rule="evenodd" clip-rule="evenodd" d="M15.9188 146.383C15.8617 146.193 15.719 146.088 15.5287 146.088C14.5866 146.088 13.6445 146.088 12.712 146.088C12.5407 146.088 12.4265 146.164 12.3408 146.307C12.3313 146.326 12.3313 146.355 12.3028 146.364C12.2837 146.183 12.3313 146.031 12.4931 145.936C12.5597 145.898 12.6263 145.879 12.6929 145.879C13.6445 145.879 14.5866 145.879 15.5382 145.879C15.7856 145.879 15.9949 146.136 15.9188 146.383Z" fill="#50A245"/>
<path fill-rule="evenodd" clip-rule="evenodd" d="M14.7032 149.725C14.7507 149.792 14.7127 149.858 14.7032 149.925C14.627 150.448 14.313 150.781 13.7896 150.905C13.6754 150.934 13.5613 150.953 13.5137 151.076C13.5137 151.038 13.5137 151 13.5137 150.953C13.5137 150.81 13.5708 150.753 13.7421 150.715C13.9609 150.667 14.1703 150.591 14.3416 150.429C14.5509 150.239 14.6556 150.001 14.7032 149.725Z" fill="#50A245"/>
<path fill-rule="evenodd" clip-rule="evenodd" d="M9.64694 149.725C9.69452 149.801 9.65646 149.877 9.63742 149.944C9.55178 150.477 9.24727 150.791 8.7239 150.905C8.61923 150.934 8.50504 150.953 8.45746 151.076C8.46697 150.981 8.42891 150.886 8.49552 150.81C8.53358 150.772 8.57165 150.743 8.62874 150.734C8.79051 150.696 8.95228 150.658 9.09502 150.572C9.36146 150.41 9.53275 150.182 9.60888 149.877C9.62791 149.82 9.63743 149.773 9.64694 149.725Z" fill="#50A245"/>
<path fill-rule="evenodd" clip-rule="evenodd" d="M14.3301 152.019C14.3413 152.019 14.3413 152.007 14.3526 152.007C14.3413 152.007 14.3301 152.007 14.3301 152.019Z" fill="#58AC47"/>
<path d="M483.87 184.026C483.87 184.026 487.325 184.197 489.837 184.197C492.339 184.197 496.317 184.721 496.317 184.721C496.317 184.721 497.354 184.721 497.44 186.015C497.526 187.309 497.526 187.832 497.526 187.832C497.526 187.832 497.611 189.393 496.403 189.393C495.194 189.393 487.496 190.259 485.773 190.259C484.051 190.259 482.747 190.602 482.747 189.393C482.747 188.175 482.662 183.94 483.87 184.026Z" fill="#170856"/>
<path d="M486.727 147.457C486.727 147.457 488.973 159.904 489.144 163.187C489.316 166.47 489.668 168.982 487.498 170.276C485.338 171.57 481.789 172.779 481.789 172.779L477.383 150.559V147.961L486.727 147.457Z" fill="#FFBF99"/>
<path d="M448.603 146.762C448.603 146.762 447.395 152.386 447.043 155.231C446.7 158.086 445.92 163.615 445.834 164.918C445.749 166.222 445.577 168.373 447.909 170.019C450.24 171.665 452.752 172.617 452.752 172.617L457.51 146.772H448.603V146.762Z" fill="#FFBF99"/>
<path d="M465.668 128.873C465.668 128.873 465.668 131.461 464.555 132.575C463.442 133.688 461.967 135.534 461.967 135.534C461.967 135.534 464.555 139.607 469.741 139.045C474.918 138.494 475.85 134.792 475.85 134.792C475.85 134.792 470.95 134.145 470.388 129.52C469.836 124.895 469.094 124.895 469.094 124.895L465.668 128.873Z" fill="#FFB07E"/>
<path d="M461.873 118.605C461.873 118.605 462.054 124.524 464.832 129.149C467.611 133.774 470.942 131.185 472.236 128.778C473.53 126.37 477.051 118.605 476.309 116.569C475.566 114.533 465.394 113.61 465.394 113.61L461.873 118.605Z" fill="#FFBF99"/>
<path d="M475.012 121.936C475.012 121.936 476.496 120.823 476.496 121.936C476.496 123.05 475.754 124.715 474.831 124.896C473.908 125.077 474.089 124.525 474.279 123.783C474.46 123.05 475.012 121.936 475.012 121.936Z" fill="#FFBF99"/>
<path d="M462.317 124.258C462.717 124.439 463.164 124.496 463.164 123.887C463.164 122.774 462.422 121.108 461.499 120.928C460.576 120.747 460.757 121.299 460.947 122.041C461.013 122.298 461.118 122.593 461.232 122.878C461.451 123.402 461.994 124.106 462.317 124.258Z" fill="#FFBF99"/>
<path d="M462.158 121.289L461.977 119.443C461.977 119.443 463.642 119.624 465.488 117.778C465.488 117.778 469.104 118.596 471.969 118.33C475.023 118.054 476.336 117.216 476.336 117.216C476.336 117.216 475.823 120.718 475.318 121.727C475.318 121.727 476.793 121.108 477.345 119.443C477.897 117.778 477.792 116.008 477.792 116.008C477.792 116.008 479.829 114.342 480.381 112.496C480.381 112.496 474.833 111.202 473.168 110.089C471.502 108.975 470.579 108.243 470.579 108.243C470.579 108.243 467.991 106.758 465.403 108.795C462.814 110.831 461.149 111.944 461.149 115.456C461.14 115.456 458.732 118.786 462.158 121.289Z" fill="#170856"/>
<path d="M462.565 133.669C462.565 133.669 459.025 133.241 457.122 133.755C455.219 134.278 454.619 133.926 455.133 135.401C455.657 136.867 458.245 143.613 457.036 147.848C455.828 152.082 454.182 173.779 454.182 173.779C454.182 173.779 467.323 174.302 472.424 174.559C477.524 174.816 481.33 173.864 481.33 173.864C481.33 173.864 482.453 164.529 481.33 160.466C480.208 156.403 478.733 149.485 478.733 149.485C478.733 149.485 477.781 139.978 479.075 137.637C480.369 135.306 481.321 135.22 479.684 134.611C478.047 134.002 476.23 133.488 474.926 133.488C473.623 133.488 472.937 133.488 472.157 134.269C471.377 135.049 469.826 136.6 467.666 136.258C465.506 135.915 463.859 134.44 463.859 134.44C463.859 134.44 463.165 133.755 462.565 133.669Z" fill="#0083F9"/>
<path d="M456.294 134.399C456.294 134.399 455.086 133.79 453.268 135.351C451.317 137.026 449.9 140.623 449.205 142.868C448.51 145.114 448.082 147.36 448.082 147.36C448.082 147.36 450.585 148.654 453.183 148.74C455.78 148.825 457.503 148.997 457.503 148.997C457.503 148.997 458.626 142.25 458.369 139.224C458.112 136.217 457.674 135.18 456.294 134.399Z" fill="#023EA1"/>
<path d="M478.086 136.913C478.086 136.913 479.124 134.059 481.455 135.353C483.786 136.647 485.518 141.576 486.042 143.137C486.565 144.697 487.25 147.809 487.25 147.809C487.25 147.809 484.481 149.018 482.15 149.189C479.818 149.36 478.172 149.531 478.172 149.531C478.172 149.531 477.22 143.394 477.392 140.977C477.563 138.56 478.086 136.913 478.086 136.913Z" fill="#023EA1"/>
<path d="M459.018 175.635H476.746L467.601 178.442L459.018 175.635Z" fill="#BC0A28"/>
<path d="M443.239 170.629C443.239 170.629 475.574 180.744 482.663 183.247C482.663 183.247 484.994 183.856 485.08 185.064C485.166 186.273 484.909 188.005 484.652 188.871C484.395 189.737 483.615 190.431 482.32 190.165C481.026 189.908 452.06 184.113 440.565 181.087L437.282 180.05C437.282 180.05 434.865 178.927 435.293 175.986C435.721 173.046 437.891 170.458 439.442 170.277C440.993 170.105 443.239 170.629 443.239 170.629Z" fill="#EE384E"/>
<path d="M440.299 184.978C440.299 184.978 444.362 184.284 446.779 184.198C449.196 184.112 452.403 183.855 452.917 184.198C453.44 184.54 453.869 189.213 453.869 189.213C453.869 189.213 454.297 190.507 451.1 190.25C447.902 189.993 440.556 189.727 440.556 189.727C440.556 189.727 438.91 189.641 438.824 188.166C438.738 186.691 438.995 186.006 438.995 186.006C438.995 186.006 439.262 185.15 440.299 184.978Z" fill="#170856"/>
<path d="M459.577 180.829C459.577 180.829 479.199 174.863 486.202 172.789C493.206 170.714 497.098 168.811 499.344 172.094C501.59 175.377 501.418 179.012 498.821 180.049C496.223 181.086 475.821 185.844 467.352 187.567C458.882 189.299 453.344 190.421 452.564 190.069C451.784 189.727 450.918 187.215 451.098 185.835C451.279 184.455 451.355 183.932 453.002 183.237C454.648 182.542 459.577 180.829 459.577 180.829Z" fill="#DE051F"/>
<path d="M457.333 152.302H480.932C480.932 152.302 482.226 152.131 482.226 153.862C482.226 155.594 482.226 174.264 482.226 174.264C482.226 174.264 482.312 175.644 481.275 175.644C480.237 175.644 453.526 175.644 453.526 175.644C453.526 175.644 452.403 175.987 452.403 174.084C452.403 172.18 452.403 153.339 452.403 153.339C452.403 153.339 452.318 152.302 453.698 152.302C455.077 152.302 457.333 152.302 457.333 152.302Z" fill="#0064B7"/>
<path d="M468.814 163.821L467.143 162.483L465.805 164.155L467.476 165.493L468.814 163.821Z" fill="#569ED4"/>
<path d="M543.287 360.469C558.039 360.469 569.998 358.752 569.998 356.634C569.998 354.516 558.039 352.799 543.287 352.799C528.535 352.799 516.576 354.516 516.576 356.634C516.576 358.752 528.535 360.469 543.287 360.469Z" fill="#ECF2F5"/>
<path d="M540.375 258.594L518.136 241.056C518.136 241.056 517.527 240.656 516.652 239.381C515.767 238.116 514.063 236.85 513.074 237.126L510.876 235.071C510.876 235.071 510.105 234.918 510.876 235.632C511.646 236.346 512.084 237.231 512.084 237.231C512.084 237.231 511.399 237.592 511.589 237.868C511.589 237.868 511.037 238.03 511.094 238.449C511.094 238.449 509.772 238.858 511.066 240.152C512.36 241.446 512.798 241.97 514.235 242.598C515.662 243.235 516.737 243.977 518.146 245.3C519.554 246.623 537.587 263.942 537.587 263.942L540.375 258.594Z" fill="#FFBE9B"/>
<path d="M550.774 254.187C550.774 254.187 555.827 254.063 556.617 248.401C557.407 242.739 553.572 240.789 551.383 239.637C549.194 238.476 547.853 238.667 546.882 237.078C545.912 235.498 545.54 235.07 545.54 235.07C545.54 235.07 541.43 239.342 544.303 243.139C547.177 246.945 550.774 254.187 550.774 254.187Z" fill="#180857"/>
<path d="M558.996 352.857C559.053 352.876 559.053 352.962 559.072 353.019C559.215 353.637 559.986 357.244 558.035 357.282C556.046 357.33 548.5 357.377 547.453 357.387C547.377 357.387 547.32 357.339 547.301 357.263C547.225 356.968 547.092 356.235 547.596 356.007C547.596 356.007 551.983 353.971 553.487 352.772C554.838 351.677 558.397 352.667 558.996 352.857Z" fill="#170856"/>
<path d="M540.032 352.316C540.089 352.345 540.099 352.421 540.108 352.488C540.251 353.163 541.022 357.141 539.071 357.236C537.073 357.331 527.852 357.246 526.653 357.236C526.567 357.236 526.5 357.189 526.472 357.103C526.386 356.837 526.291 356.208 527.081 355.856C527.081 355.856 532.181 353.82 534.503 352.393C536.597 351.098 539.48 352.098 540.032 352.316Z" fill="#170856"/>
<path d="M560.195 289.549L559.053 352.924L553.468 352.772L549.033 312.548L549.566 301.377L552.802 289.425L560.195 289.549Z" fill="#0064E1"/>
<path d="M554.314 289.454C554.314 289.454 549.042 316.374 547.434 319.505L540.098 352.392H534.512L537.975 289.359L554.314 289.454Z" fill="#003EB0"/>
<path d="M544.304 243.138C544.304 243.138 541.516 245.451 541.478 249.457C541.44 253.454 542.135 253.606 543.752 253.606C545.37 253.606 546.655 253.463 546.835 254.339C547.016 255.214 546.797 258.668 546.436 259.696C546.065 260.724 553.116 259.696 553.116 259.696C553.116 259.696 551.175 254.415 550.88 252.093C550.585 249.78 550.918 247.173 549.519 244.975C548.12 242.777 546.474 241.083 544.304 243.138Z" fill="#FFBE9B"/>
<path d="M545.734 260.944L540.081 257.794L536.998 264.027L543.288 269.394L545.734 260.944Z" fill="#F79F03"/>
<path d="M554.315 260.438C554.315 260.438 557.703 264.282 558.883 273.57C560.063 282.857 560.206 289.556 560.206 289.556H537.977C537.977 289.556 539.67 276.453 541.164 269.516C542.658 262.579 545.342 259.781 545.342 259.781C545.342 259.781 546.037 258.934 546.883 259.486C547.73 260.038 549.748 260.143 551.546 259.296C553.345 258.449 553.744 259.658 554.315 260.438Z" fill="#FCBE42"/>
<path d="M549.814 246.632C549.814 246.632 551.022 246.337 551.574 246.965C552.126 247.593 551.46 248.944 550.366 249.353C549.262 249.753 549.814 246.632 549.814 246.632Z" fill="#FFBE9B"/>
<path d="M546.655 271.925C546.655 271.925 544.123 289.548 542.801 294.335C541.478 299.121 539.499 303.641 539.499 303.641C539.499 303.641 538.614 305.839 539.499 306.667C540.384 307.495 542.468 308.428 542.886 306.943C543.305 305.459 543.305 302.262 543.857 301.548C544.409 300.834 549.195 289.71 550.794 283.049C552.393 276.388 552.669 273.409 552.669 273.409L546.655 271.925Z" fill="#FFBE9B"/>
<path d="M545.73 272.819C545.73 272.819 547.253 263.113 551.326 263.065C551.326 263.065 553.638 263.065 553.695 266.586C553.752 270.107 553.419 274.285 553.419 274.285L545.73 272.819Z" fill="#F79F03"/>
<path d="M91.5064 378.598C100.619 378.598 108.007 376.208 108.007 373.26C108.007 370.311 100.619 367.921 91.5064 367.921C82.3934 367.921 75.0059 370.311 75.0059 373.26C75.0059 376.208 82.3934 378.598 91.5064 378.598Z" fill="#ECF2F5"/>
<path d="M61.2164 315.196C61.2164 315.196 65.1464 313.597 64.8514 309.087C64.5565 304.576 62.2346 301.369 67.0306 302.683C71.8361 303.996 73.4538 304.576 76.9366 303.844C80.4194 303.12 83.3313 301.664 81.7992 306.175C80.2672 310.685 78.6209 314.473 82.2179 315.196C85.8054 315.919 89.6593 313.207 90.1256 320.268C90.5919 327.338 84.8824 335.284 75.6615 335.569C66.4406 335.864 62.3678 332.039 62.3678 332.039C62.3678 332.039 59.8937 328.556 63.7476 327.69C67.6015 326.834 71.5316 325.197 69.5713 323.389C67.6015 321.591 61.1973 321.438 61.1973 321.438C61.1973 321.438 53.204 319.859 61.2164 315.196Z" fill="#649EEA"/>
<path d="M103.36 316.366C102.713 311.865 103.208 308.62 111.582 307.392C119.956 306.165 124.828 311.189 125.342 316.366C125.856 321.542 118.576 323.407 118.576 323.407C118.576 323.407 113.409 324.882 116.026 329.393C118.643 333.903 119.832 338.271 113.894 338.928C107.947 339.584 101.438 338.014 97.8219 335.597C94.2059 333.18 90.4851 327.061 94.6341 323.864C94.6341 323.864 95.795 323.065 99.8012 322.846C103.788 322.627 103.36 316.366 103.36 316.366Z" fill="#023EA1"/>
<path d="M73.9102 315.634C73.9102 315.634 80.8567 331.354 81.8083 342.059" stroke="#023EA1" stroke-miterlimit="10"/>
<path d="M112.552 318.212C112.552 318.212 100.248 336.482 97.3359 342.591" stroke="#649EEA" stroke-miterlimit="10"/>
<path d="M77.5159 340.821H105.759C105.759 340.821 108.852 341.04 108.595 345.265C108.357 349.148 103.428 348.31 100.877 348.31C98.3271 348.31 76.9069 348.31 76.9069 348.31C76.9069 348.31 73.4336 348.9 73.4336 344.97C73.4431 341.04 74.7468 340.821 77.5159 340.821Z" fill="#0054A5"/>
<path d="M76.9082 348.311L81.1903 373.261H100.155L103.362 354.534L76.9463 348.311H76.9082Z" fill="#0054A5"/>
<path d="M76.9473 348.311L103.363 354.534L104.429 348.311H76.9473Z" fill="#006AD5"/>
<path d="M89.0859 341.763C89.0859 341.763 90.5133 314.082 98.7636 296.706" stroke="#FCBE42" stroke-miterlimit="10"/>
<path d="M105.561 286.715C105.561 286.715 106.246 295.213 97.9481 298.534C97.9481 298.534 96.1496 291.282 105.561 286.715Z" fill="#FCBE42"/>
<path d="M93.123 313.769C93.123 313.769 96.1776 306.518 105.579 307.489C105.579 307.489 104.847 314.711 93.123 313.769Z" fill="#FCBE42"/>
<path d="M90.0312 332.003C90.0312 332.003 91.6109 324.295 101.022 323.41C101.022 323.41 101.707 330.642 90.0312 332.003Z" fill="#FCBE42"/>
<path d="M89.7065 332.048C89.7065 332.048 90.8008 324.254 82.227 320.277C82.227 320.277 79.1534 326.852 89.7065 332.048Z" fill="#FCBE42"/>
<path d="M93.2165 313.711C93.2165 313.711 95.291 306.117 87.2977 301.074C87.3072 301.083 83.4152 307.211 93.2165 313.711Z" fill="#FCBE42"/>
<defs>
<linearGradient id="paint0_linear_565_8297" x1="11.5919" y1="159.385" x2="11.5919" y2="140.328" gradientUnits="userSpaceOnUse">
<stop stop-color="#479843"/>
<stop offset="0.4946" stop-color="#63B946"/>
</linearGradient>
</defs>
</svg>
