<svg width="459" height="378" viewBox="0 0 459 378" fill="none" xmlns="http://www.w3.org/2000/svg">
<path d="M213.075 159.341C244.006 159.341 269.081 134.282 269.081 103.371C269.081 72.4594 244.006 47.4008 213.075 47.4008C182.143 47.4008 157.068 72.4594 157.068 103.371C157.068 134.282 182.143 159.341 213.075 159.341Z" stroke="#DE051F" stroke-miterlimit="10" stroke-dasharray="6 6"/>
<path d="M226.639 50.1557C227.557 45.3249 224.364 40.6613 219.507 39.7393C214.649 38.8173 209.967 41.986 209.049 46.8169C208.131 51.6477 211.324 56.3113 216.182 57.2333C221.039 58.1553 225.721 54.9866 226.639 50.1557Z" fill="#023EA1"/>
<path d="M215.006 45.1877L217.349 51.1407L221.718 46.4658" stroke="white" stroke-miterlimit="10"/>
<path d="M323.998 32.3811C323.998 32.3811 327.758 24.6697 321.088 21.4273C314.411 18.1849 304.591 23.4002 305.046 29.4389C305.501 35.4777 310.153 37.4163 306.248 40.4013C302.342 43.3864 292.823 53.1822 297.965 57.7199C303.106 62.2575 310.093 58.895 310.994 67.6872C311.896 76.4709 298.437 85.1945 311.2 91.319C323.955 97.435 348.375 102.539 347.783 80.7512C347.19 58.9551 330.187 72.1134 334.478 55.7727C338.77 39.432 330.144 43.4979 325.286 40.2555C320.428 37.0131 323.998 32.3811 323.998 32.3811Z" stroke="#EE384E" stroke-miterlimit="10"/>
<path d="M316.051 44.7417C316.051 44.7417 325.492 65.3627 327.08 85.6834C328.668 106.004 325.681 110.61 325.681 110.61" stroke="#EE384E" stroke-miterlimit="10"/>
<path d="M365.009 28.8299C365.009 28.8299 360.322 32.0809 354.271 38.0853V49.7854L349.525 43.1033C333.251 61.4255 313.638 96.0711 342.006 139.303C342.006 139.312 411.256 133.196 365.009 28.8299Z" fill="#023EA1"/>
<path d="M339.551 56.3474L354.28 96.5944L365.009 28.8299" stroke="white" stroke-miterlimit="10"/>
<path d="M377.094 62.7122L354.279 96.5944" stroke="white" stroke-miterlimit="10"/>
<path d="M429.967 136.112C429.967 136.112 430.122 128.71 436.568 128.915C443.014 129.121 448.533 137.047 445.786 141.473C443.04 145.899 438.671 145.522 440.508 149.365C442.345 153.208 445.804 164.513 440.027 165.911C434.25 167.31 430.182 161.94 426.002 168.296C421.822 174.652 428.749 186.712 416.466 186.266C404.174 185.82 383.283 179.927 392.39 163.51C401.496 147.092 409.419 163.964 412.595 149.759C415.771 135.555 420.818 142.117 425.865 141.593C430.903 141.087 429.967 136.112 429.967 136.112Z" fill="#023EA1"/>
<path d="M431.213 148.747C431.213 148.747 415.728 160.713 406.433 175.604C397.137 190.495 397.618 195.204 397.618 195.204" stroke="white" stroke-miterlimit="10" stroke-linecap="round" stroke-linejoin="round"/>
<path d="M164.631 46.3629C164.631 46.3629 166.948 38.1025 159.798 36.1124C152.649 34.1224 143.919 41.0104 145.456 46.8776C146.992 52.7448 151.919 53.8084 148.606 57.4454C145.293 61.0824 137.696 72.4222 143.576 75.9648C149.455 79.5074 155.721 74.944 158.185 83.4275C160.648 91.9109 148.983 102.908 162.631 106.639C176.278 110.37 201.213 111.005 196.724 89.6721C192.226 68.3392 177.858 84.3281 179.145 67.4814C180.433 50.6346 172.673 56.1759 167.309 53.8684C161.944 51.561 164.631 46.3629 164.631 46.3629Z" fill="#FCBE42"/>
<path d="M159.025 59.9501C159.025 59.9501 172.021 78.5381 177.231 98.2413C182.441 117.944 180.338 123.014 180.338 123.014" stroke="white" stroke-miterlimit="10" stroke-linecap="round" stroke-linejoin="round"/>
<path d="M385.359 211.399C385.359 211.399 425.744 191.731 446.421 168.425" stroke="#EE384E" stroke-miterlimit="10"/>
<path d="M457.022 151.972C457.022 151.972 443.915 156.339 444.224 170.818C444.224 170.809 456.189 168.896 457.022 151.972Z" stroke="#EE384E" stroke-miterlimit="10"/>
<path d="M424.568 187.656C424.568 187.656 433.443 178.504 426.036 165.114C426.036 165.105 415.727 170.784 424.568 187.656Z" stroke="#EE384E" stroke-miterlimit="10"/>
<path d="M399.324 203.817C399.324 203.817 409.821 196.577 405.178 181.995C405.178 181.995 393.959 185.546 399.324 203.817Z" stroke="#EE384E" stroke-miterlimit="10"/>
<path d="M399.461 204.331C399.461 204.331 410.396 197.769 421.769 208.02C421.769 208.02 413.898 216.769 399.461 204.331Z" stroke="#EE384E" stroke-miterlimit="10"/>
<path d="M424.586 187.476C424.586 187.476 434.594 179.576 447.177 188.291C447.177 188.291 440.491 197.967 424.586 187.476Z" stroke="#EE384E" stroke-miterlimit="10"/>
<path d="M9.97614 163.853C9.97614 163.853 0.800554 163.69 0.955054 155.764C1.10955 147.838 10.8431 141.019 16.3879 144.381C21.9241 147.744 21.5121 153.122 26.2501 150.84C30.9881 148.559 44.9446 144.27 46.7729 151.363C48.6011 158.466 42.0091 163.484 49.9401 168.605C57.8711 173.726 72.7289 165.157 72.3684 180.271C72.0079 195.385 65.0211 221.109 44.5326 209.967C24.0442 198.824 44.8416 189.02 27.1771 185.168C9.51264 181.317 17.581 175.081 16.8514 168.879C16.1218 162.678 9.97614 163.853 9.97614 163.853Z" fill="#EE384E"/>
<path d="M25.6152 162.283C25.6152 162.283 40.6876 181.283 59.2876 192.657C77.8877 204.031 83.7244 203.431 83.7244 203.431" stroke="white" stroke-miterlimit="10" stroke-linecap="round" stroke-linejoin="round"/>
<path d="M47.0135 123.426C47.0135 123.426 44.3098 132.896 51.8717 130.966C59.4336 129.036 63.897 130.159 64.6437 137.948C65.3905 145.736 69.2959 149.622 73.9137 149.588C78.5315 149.554 86.9518 148.13 87.4067 158.775C87.8616 169.42 90.2049 190.041 78.6002 191.911C66.9955 193.781 52.67 182.732 52.2923 174.704C51.9232 166.675 56.3694 161.142 48.7817 156.424C41.194 151.707 37.7178 159.547 32.0442 151.99C26.3792 144.433 19.9503 137.279 28.6109 127.397C36.3874 118.528 47.168 117.859 47.0135 123.426Z" stroke="#023EA1" stroke-miterlimit="10"/>
<path d="M42.3008 133.925C42.3008 133.925 77.5783 181.634 89.3718 191.645" stroke="#023EA1" stroke-miterlimit="10"/>
<path d="M74.7964 157.016L71.9038 172.199L58.9688 173.863" stroke="#023EA1" stroke-miterlimit="10"/>
<path d="M56.0166 136.567L52.3086 147.212L41.6738 149.922" stroke="#023EA1" stroke-miterlimit="10"/>
<path d="M80.4613 297.76C111.393 297.76 136.468 272.702 136.468 241.79C136.468 210.879 111.393 185.82 80.4613 185.82C49.5299 185.82 24.4551 210.879 24.4551 241.79C24.4551 272.702 49.5299 297.76 80.4613 297.76Z" stroke="#003EB0" stroke-miterlimit="10" stroke-dasharray="6 6"/>
<path d="M25.6146 256.287C30.5352 256.287 34.5241 252.281 34.5241 247.34C34.5241 242.399 30.5352 238.394 25.6146 238.394C20.694 238.394 16.7051 242.399 16.7051 247.34C16.7051 252.281 20.694 256.287 25.6146 256.287Z" fill="#FCBE42"/>
<path d="M21.3652 246.362L25.6397 251.689L27.7169 245.65" stroke="white" stroke-miterlimit="10"/>
<path d="M385.858 320.749C416.789 320.749 441.864 295.69 441.864 264.779C441.864 233.867 416.789 208.809 385.858 208.809C354.926 208.809 329.852 233.867 329.852 264.779C329.852 295.69 354.926 320.749 385.858 320.749Z" stroke="#003EB0" stroke-miterlimit="10" stroke-dasharray="6 6"/>
<path d="M435.776 264.783L441.857 270.86L447.939 264.783L441.857 258.705L435.776 264.783Z" fill="#EE384E"/>
<path d="M257.71 28.8346L263.791 34.9121L269.872 28.8346L263.791 22.7571L257.71 28.8346Z" fill="#EE384E"/>
<path d="M30.5787 64.1134L36.6602 70.1909L42.7416 64.1134L36.6602 58.0359L30.5787 64.1134Z" fill="#003EB0"/>
<path d="M432.851 57.1023L417.127 50.7032L414.466 57.068C413.753 56.0386 412.56 55.361 411.213 55.361C409.024 55.361 407.256 57.1366 407.256 59.3153C407.256 61.5027 409.033 63.2697 411.213 63.2697C411.445 63.2697 411.676 63.244 411.899 63.2096L409.256 69.5486L415.891 72.2849C415.873 72.1305 415.856 71.9761 415.856 71.8132C415.856 69.6258 417.633 67.8588 419.813 67.8588C421.993 67.8588 423.77 69.6344 423.77 71.8132C423.77 73.0741 423.178 74.1892 422.268 74.9097L428.585 77.5174C428.585 77.5174 432.74 67.4728 434.594 62.5577C436.456 57.6512 432.851 57.1023 432.851 57.1023Z" stroke="#EE384E" stroke-miterlimit="10"/>
<path d="M437.941 25.6904L454.258 20.9984L452.412 14.3592C453.614 14.728 454.961 14.5222 456.026 13.6901C457.742 12.3348 458.043 9.84729 456.687 8.13174C455.331 6.41618 452.841 6.11596 451.125 7.47125C450.944 7.61707 450.773 7.77147 450.627 7.94303L448.781 1.32956L441.88 3.28529C441.992 3.3968 442.095 3.50831 442.198 3.63698C443.554 5.35254 443.254 7.84009 441.537 9.19538C439.82 10.5507 437.331 10.2504 435.975 8.53489C435.194 7.54845 434.971 6.30467 435.237 5.1724L428.662 7.03378C428.662 7.03378 431.615 17.4901 433.194 22.4995C434.773 27.5089 437.941 25.6904 437.941 25.6904Z" stroke="#023EA1" stroke-miterlimit="10"/>
<path d="M413.17 87.399H55.7344V331.342H413.17V87.399Z" fill="#0064B7"/>
<path d="M403.78 92.7601H65.125V321.289H403.78V92.7601Z" fill="white" stroke="#DCE8F5" stroke-miterlimit="10"/>
<path d="M403.78 92.7601H65.125V315.928H403.78V92.7601Z" fill="white" stroke="#DCE8F5" stroke-miterlimit="10"/>
<path d="M403.78 91.6278H65.125V310.104H403.78V91.6278Z" fill="white" stroke="#DCE8F5" stroke-miterlimit="10"/>
<path d="M129.687 164.136H93.0965C90.9764 164.136 89.2598 162.42 89.2598 160.302V157.239C89.2598 155.121 90.9764 153.405 93.0965 153.405H129.687C131.807 153.405 133.524 155.121 133.524 157.239V160.302C133.524 162.42 131.807 164.136 129.687 164.136Z" fill="#DCE8F5"/>
<path d="M174.691 134.723H156.331C155.292 134.723 154.451 133.882 154.451 132.844V131.343C154.451 130.305 155.292 129.464 156.331 129.464H174.691C175.729 129.464 176.57 130.305 176.57 131.343V132.844C176.579 133.882 175.729 134.723 174.691 134.723Z" fill="#DCE8F5"/>
<path d="M209.093 134.723H190.733C189.695 134.723 188.854 133.882 188.854 132.844V131.343C188.854 130.305 189.695 129.464 190.733 129.464H209.093C210.132 129.464 210.973 130.305 210.973 131.343V132.844C210.973 133.882 210.132 134.723 209.093 134.723Z" fill="#DCE8F5"/>
<path d="M243.296 134.723H224.936C223.898 134.723 223.057 133.882 223.057 132.844V131.343C223.057 130.305 223.898 129.464 224.936 129.464H243.296C244.335 129.464 245.176 130.305 245.176 131.343V132.844C245.176 133.882 244.335 134.723 243.296 134.723Z" fill="#DCE8F5"/>
<path d="M277.398 134.723H259.038C257.999 134.723 257.158 133.882 257.158 132.844V131.343C257.158 130.305 257.999 129.464 259.038 129.464H277.398C278.436 129.464 279.277 130.305 279.277 131.343V132.844C279.277 133.882 278.436 134.723 277.398 134.723Z" fill="#DCE8F5"/>
<path d="M311.792 134.723H293.432C292.394 134.723 291.553 133.882 291.553 132.844V131.343C291.553 130.305 292.394 129.464 293.432 129.464H311.792C312.831 129.464 313.672 130.305 313.672 131.343V132.844C313.681 133.882 312.831 134.723 311.792 134.723Z" fill="#DCE8F5"/>
<path d="M345.997 134.723H327.638C326.599 134.723 325.758 133.882 325.758 132.844V131.343C325.758 130.305 326.599 129.464 327.638 129.464H345.997C347.036 129.464 347.877 130.305 347.877 131.343V132.844C347.877 133.882 347.036 134.723 345.997 134.723Z" fill="#DCE8F5"/>
<path d="M380.099 134.723H361.739C360.701 134.723 359.859 133.882 359.859 132.844V131.343C359.859 130.305 360.701 129.464 361.739 129.464H380.099C381.137 129.464 381.979 130.305 381.979 131.343V132.844C381.979 133.882 381.137 134.723 380.099 134.723Z" fill="#DCE8F5"/>
<path d="M129.687 194.63H93.0965C90.9764 194.63 89.2598 192.914 89.2598 190.796V187.733C89.2598 185.615 90.9764 183.899 93.0965 183.899H129.687C131.807 183.899 133.524 185.615 133.524 187.733V190.796C133.524 192.914 131.807 194.63 129.687 194.63Z" fill="#DCE8F5"/>
<path d="M129.687 225.793H93.0965C90.9764 225.793 89.2598 224.077 89.2598 221.959V218.896C89.2598 216.778 90.9764 215.062 93.0965 215.062H129.687C131.807 215.062 133.524 216.778 133.524 218.896V221.959C133.524 224.077 131.807 225.793 129.687 225.793Z" fill="#DCE8F5"/>
<path d="M129.687 256.287H93.0965C90.9764 256.287 89.2598 254.571 89.2598 252.453V249.39C89.2598 247.272 90.9764 245.556 93.0965 245.556H129.687C131.807 245.556 133.524 247.272 133.524 249.39V252.453C133.524 254.571 131.807 256.287 129.687 256.287Z" fill="#DCE8F5"/>
<path d="M129.687 288.119H93.0965C90.9764 288.119 89.2598 286.403 89.2598 284.285V281.222C89.2598 279.104 90.9764 277.388 93.0965 277.388H129.687C131.807 277.388 133.524 279.104 133.524 281.222V284.285C133.524 286.403 131.807 288.119 129.687 288.119Z" fill="#DCE8F5"/>
<path d="M165.711 166.486C170.158 166.486 173.762 162.884 173.762 158.44C173.762 153.996 170.158 150.394 165.711 150.394C161.265 150.394 157.66 153.996 157.66 158.44C157.66 162.884 161.265 166.486 165.711 166.486Z" fill="#0064B7"/>
<path d="M199.916 166.486C204.363 166.486 207.968 162.884 207.968 158.44C207.968 153.996 204.363 150.394 199.916 150.394C195.47 150.394 191.865 153.996 191.865 158.44C191.865 162.884 195.47 166.486 199.916 166.486Z" fill="#0064B7"/>
<path d="M234.114 166.486C238.56 166.486 242.165 162.884 242.165 158.44C242.165 153.996 238.56 150.394 234.114 150.394C229.667 150.394 226.062 153.996 226.062 158.44C226.062 162.884 229.667 166.486 234.114 166.486Z" fill="#0064B7"/>
<path d="M302.514 166.486C306.961 166.486 310.565 162.884 310.565 158.44C310.565 153.996 306.961 150.394 302.514 150.394C298.068 150.394 294.463 153.996 294.463 158.44C294.463 162.884 298.068 166.486 302.514 166.486Z" stroke="#0064B7" stroke-miterlimit="10"/>
<path d="M336.717 166.486C341.164 166.486 344.768 162.884 344.768 158.44C344.768 153.996 341.164 150.394 336.717 150.394C332.271 150.394 328.666 153.996 328.666 158.44C328.666 162.884 332.271 166.486 336.717 166.486Z" stroke="#0064B7" stroke-miterlimit="10"/>
<path d="M370.914 166.486C375.361 166.486 378.966 162.884 378.966 158.44C378.966 153.996 375.361 150.394 370.914 150.394C366.468 150.394 362.863 153.996 362.863 158.44C362.863 162.884 366.468 166.486 370.914 166.486Z" stroke="#0064B7" stroke-miterlimit="10"/>
<path d="M165.711 197.315C170.158 197.315 173.762 193.712 173.762 189.269C173.762 184.825 170.158 181.223 165.711 181.223C161.265 181.223 157.66 184.825 157.66 189.269C157.66 193.712 161.265 197.315 165.711 197.315Z" fill="#0064B7"/>
<path d="M199.916 197.315C204.363 197.315 207.968 193.712 207.968 189.269C207.968 184.825 204.363 181.223 199.916 181.223C195.47 181.223 191.865 184.825 191.865 189.269C191.865 193.712 195.47 197.315 199.916 197.315Z" stroke="#0064B7" stroke-miterlimit="10"/>
<path d="M234.114 197.315C238.56 197.315 242.165 193.712 242.165 189.269C242.165 184.825 238.56 181.223 234.114 181.223C229.667 181.223 226.062 184.825 226.062 189.269C226.062 193.712 229.667 197.315 234.114 197.315Z" fill="#0064B7"/>
<path d="M268.317 197.315C272.763 197.315 276.368 193.712 276.368 189.269C276.368 184.825 272.763 181.223 268.317 181.223C263.87 181.223 260.266 184.825 260.266 189.269C260.266 193.712 263.87 197.315 268.317 197.315Z" stroke="#0064B7" stroke-miterlimit="10"/>
<path d="M302.514 197.315C306.961 197.315 310.565 193.712 310.565 189.269C310.565 184.825 306.961 181.223 302.514 181.223C298.068 181.223 294.463 184.825 294.463 189.269C294.463 193.712 298.068 197.315 302.514 197.315Z" stroke="#0064B7" stroke-miterlimit="10"/>
<path d="M336.717 197.315C341.164 197.315 344.768 193.712 344.768 189.269C344.768 184.825 341.164 181.223 336.717 181.223C332.271 181.223 328.666 184.825 328.666 189.269C328.666 193.712 332.271 197.315 336.717 197.315Z" stroke="#0064B7" stroke-miterlimit="10"/>
<path d="M370.914 197.315C375.361 197.315 378.966 193.712 378.966 189.269C378.966 184.825 375.361 181.223 370.914 181.223C366.468 181.223 362.863 184.825 362.863 189.269C362.863 193.712 366.468 197.315 370.914 197.315Z" stroke="#0064B7" stroke-miterlimit="10"/>
<path d="M165.711 228.143C170.158 228.143 173.762 224.541 173.762 220.097C173.762 215.654 170.158 212.051 165.711 212.051C161.265 212.051 157.66 215.654 157.66 220.097C157.66 224.541 161.265 228.143 165.711 228.143Z" fill="#0064B7"/>
<path d="M199.916 228.143C204.363 228.143 207.968 224.541 207.968 220.097C207.968 215.654 204.363 212.051 199.916 212.051C195.47 212.051 191.865 215.654 191.865 220.097C191.865 224.541 195.47 228.143 199.916 228.143Z" fill="#0064B7"/>
<path d="M234.114 228.143C238.56 228.143 242.165 224.541 242.165 220.097C242.165 215.654 238.56 212.051 234.114 212.051C229.667 212.051 226.062 215.654 226.062 220.097C226.062 224.541 229.667 228.143 234.114 228.143Z" stroke="#0064B7" stroke-miterlimit="10"/>
<path d="M268.317 228.143C272.763 228.143 276.368 224.541 276.368 220.097C276.368 215.654 272.763 212.051 268.317 212.051C263.87 212.051 260.266 215.654 260.266 220.097C260.266 224.541 263.87 228.143 268.317 228.143Z" stroke="#0064B7" stroke-miterlimit="10"/>
<path d="M302.514 228.143C306.961 228.143 310.565 224.541 310.565 220.097C310.565 215.654 306.961 212.051 302.514 212.051C298.068 212.051 294.463 215.654 294.463 220.097C294.463 224.541 298.068 228.143 302.514 228.143Z" stroke="#0064B7" stroke-miterlimit="10"/>
<path d="M336.717 228.143C341.164 228.143 344.768 224.541 344.768 220.097C344.768 215.654 341.164 212.051 336.717 212.051C332.271 212.051 328.666 215.654 328.666 220.097C328.666 224.541 332.271 228.143 336.717 228.143Z" stroke="#0064B7" stroke-miterlimit="10"/>
<path d="M370.914 228.143C375.361 228.143 378.966 224.541 378.966 220.097C378.966 215.654 375.361 212.051 370.914 212.051C366.468 212.051 362.863 215.654 362.863 220.097C362.863 224.541 366.468 228.143 370.914 228.143Z" stroke="#0064B7" stroke-miterlimit="10"/>
<path d="M165.711 258.972C170.158 258.972 173.762 255.369 173.762 250.926C173.762 246.482 170.158 242.88 165.711 242.88C161.265 242.88 157.66 246.482 157.66 250.926C157.66 255.369 161.265 258.972 165.711 258.972Z" stroke="#0064B7" stroke-miterlimit="10"/>
<path d="M199.916 258.972C204.363 258.972 207.968 255.369 207.968 250.926C207.968 246.482 204.363 242.88 199.916 242.88C195.47 242.88 191.865 246.482 191.865 250.926C191.865 255.369 195.47 258.972 199.916 258.972Z" fill="#0064B7"/>
<path d="M234.114 258.972C238.56 258.972 242.165 255.369 242.165 250.926C242.165 246.482 238.56 242.88 234.114 242.88C229.667 242.88 226.062 246.482 226.062 250.926C226.062 255.369 229.667 258.972 234.114 258.972Z" fill="#0064B7"/>
<path d="M268.317 258.972C272.763 258.972 276.368 255.369 276.368 250.926C276.368 246.482 272.763 242.88 268.317 242.88C263.87 242.88 260.266 246.482 260.266 250.926C260.266 255.369 263.87 258.972 268.317 258.972Z" stroke="#0064B7" stroke-miterlimit="10"/>
<path d="M302.514 258.972C306.961 258.972 310.565 255.369 310.565 250.926C310.565 246.482 306.961 242.88 302.514 242.88C298.068 242.88 294.463 246.482 294.463 250.926C294.463 255.369 298.068 258.972 302.514 258.972Z" stroke="#0064B7" stroke-miterlimit="10"/>
<path d="M336.717 258.972C341.164 258.972 344.768 255.369 344.768 250.926C344.768 246.482 341.164 242.88 336.717 242.88C332.271 242.88 328.666 246.482 328.666 250.926C328.666 255.369 332.271 258.972 336.717 258.972Z" stroke="#0064B7" stroke-miterlimit="10"/>
<path d="M370.914 258.972C375.361 258.972 378.966 255.369 378.966 250.926C378.966 246.482 375.361 242.88 370.914 242.88C366.468 242.88 362.863 246.482 362.863 250.926C362.863 255.369 366.468 258.972 370.914 258.972Z" stroke="#0064B7" stroke-miterlimit="10"/>
<path d="M165.711 290.469C170.158 290.469 173.762 286.867 173.762 282.423C173.762 277.98 170.158 274.377 165.711 274.377C161.265 274.377 157.66 277.98 157.66 282.423C157.66 286.867 161.265 290.469 165.711 290.469Z" fill="#0064B7"/>
<path d="M199.916 290.469C204.363 290.469 207.968 286.867 207.968 282.423C207.968 277.98 204.363 274.377 199.916 274.377C195.47 274.377 191.865 277.98 191.865 282.423C191.865 286.867 195.47 290.469 199.916 290.469Z" fill="#0064B7"/>
<path d="M234.114 290.469C238.56 290.469 242.165 286.867 242.165 282.423C242.165 277.98 238.56 274.377 234.114 274.377C229.667 274.377 226.062 277.98 226.062 282.423C226.062 286.867 229.667 290.469 234.114 290.469Z" fill="#0064B7" stroke="#0064B7" stroke-miterlimit="10"/>
<path d="M268.317 290.469C272.763 290.469 276.368 286.867 276.368 282.423C276.368 277.98 272.763 274.377 268.317 274.377C263.87 274.377 260.266 277.98 260.266 282.423C260.266 286.867 263.87 290.469 268.317 290.469Z" stroke="#0064B7" stroke-miterlimit="10"/>
<path d="M302.514 290.469C306.961 290.469 310.565 286.867 310.565 282.423C310.565 277.98 306.961 274.377 302.514 274.377C298.068 274.377 294.463 277.98 294.463 282.423C294.463 286.867 298.068 290.469 302.514 290.469Z" stroke="#0064B7" stroke-miterlimit="10"/>
<path d="M336.717 290.469C341.164 290.469 344.768 286.867 344.768 282.423C344.768 277.98 341.164 274.377 336.717 274.377C332.271 274.377 328.666 277.98 328.666 282.423C328.666 286.867 332.271 290.469 336.717 290.469Z" stroke="#0064B7" stroke-miterlimit="10"/>
<path d="M370.914 290.469C375.361 290.469 378.966 286.867 378.966 282.423C378.966 277.98 375.361 274.377 370.914 274.377C366.468 274.377 362.863 277.98 362.863 282.423C362.863 286.867 366.468 290.469 370.914 290.469Z" stroke="#0064B7" stroke-miterlimit="10"/>
<path d="M117.594 109.512C120.372 109.512 122.624 107.262 122.624 104.486C122.624 101.71 120.372 99.4593 117.594 99.4593C114.816 99.4593 112.564 101.71 112.564 104.486C112.564 107.262 114.816 109.512 117.594 109.512Z" fill="#023EA1"/>
<path d="M146.434 109.512C149.212 109.512 151.464 107.262 151.464 104.486C151.464 101.71 149.212 99.4593 146.434 99.4593C143.656 99.4593 141.404 101.71 141.404 104.486C141.404 107.262 143.656 109.512 146.434 109.512Z" fill="#023EA1"/>
<path d="M175.934 109.512C178.712 109.512 180.964 107.262 180.964 104.486C180.964 101.71 178.712 99.4593 175.934 99.4593C173.156 99.4593 170.904 101.71 170.904 104.486C170.904 107.262 173.156 109.512 175.934 109.512Z" fill="#023EA1"/>
<path d="M204.774 109.512C207.552 109.512 209.804 107.262 209.804 104.486C209.804 101.71 207.552 99.4593 204.774 99.4593C201.996 99.4593 199.744 101.71 199.744 104.486C199.744 107.262 201.996 109.512 204.774 109.512Z" fill="#023EA1"/>
<path d="M234.954 109.512C237.732 109.512 239.983 107.262 239.983 104.486C239.983 101.71 237.732 99.4593 234.954 99.4593C232.176 99.4593 229.924 101.71 229.924 104.486C229.924 107.262 232.176 109.512 234.954 109.512Z" fill="#023EA1"/>
<path d="M263.786 109.512C266.564 109.512 268.816 107.262 268.816 104.486C268.816 101.71 266.564 99.4593 263.786 99.4593C261.008 99.4593 258.756 101.71 258.756 104.486C258.756 107.262 261.008 109.512 263.786 109.512Z" fill="#023EA1"/>
<path d="M293.295 109.512C296.073 109.512 298.325 107.262 298.325 104.486C298.325 101.71 296.073 99.4593 293.295 99.4593C290.518 99.4593 288.266 101.71 288.266 104.486C288.266 107.262 290.518 109.512 293.295 109.512Z" fill="#023EA1"/>
<path d="M322.135 109.512C324.913 109.512 327.165 107.262 327.165 104.486C327.165 101.71 324.913 99.4593 322.135 99.4593C319.357 99.4593 317.105 101.71 317.105 104.486C317.105 107.262 319.357 109.512 322.135 109.512Z" fill="#023EA1"/>
<path d="M352.305 109.512C355.083 109.512 357.335 107.262 357.335 104.486C357.335 101.71 355.083 99.4593 352.305 99.4593C349.527 99.4593 347.275 101.71 347.275 104.486C347.275 107.262 349.527 109.512 352.305 109.512Z" fill="#023EA1"/>
<path d="M118.17 104.82H117.019C116.23 104.82 115.586 104.177 115.586 103.388V76.1021C115.586 75.3129 116.23 74.6696 117.019 74.6696H118.17C118.959 74.6696 119.603 75.3129 119.603 76.1021V103.388C119.612 104.177 118.968 104.82 118.17 104.82Z" fill="#6E839D"/>
<path d="M147.009 104.82H145.859C145.07 104.82 144.426 104.177 144.426 103.388V76.1021C144.426 75.3129 145.07 74.6696 145.859 74.6696H147.009C147.799 74.6696 148.443 75.3129 148.443 76.1021V103.388C148.443 104.177 147.799 104.82 147.009 104.82Z" fill="#6E839D"/>
<path d="M176.509 104.82H175.359C174.57 104.82 173.926 104.177 173.926 103.388V76.1021C173.926 75.3129 174.57 74.6696 175.359 74.6696H176.509C177.299 74.6696 177.943 75.3129 177.943 76.1021V103.388C177.951 104.177 177.308 104.82 176.509 104.82Z" fill="#6E839D"/>
<path d="M205.349 104.82H204.199C203.409 104.82 202.766 104.177 202.766 103.388V76.1021C202.766 75.3129 203.409 74.6696 204.199 74.6696H205.349C206.139 74.6696 206.783 75.3129 206.783 76.1021V103.388C206.783 104.177 206.139 104.82 205.349 104.82Z" fill="#6E839D"/>
<path d="M235.529 104.82H234.379C233.589 104.82 232.945 104.177 232.945 103.388V76.1021C232.945 75.3129 233.589 74.6696 234.379 74.6696H235.529C236.319 74.6696 236.962 75.3129 236.962 76.1021V103.388C236.962 104.177 236.319 104.82 235.529 104.82Z" fill="#6E839D"/>
<path d="M264.361 104.82H263.211C262.421 104.82 261.777 104.177 261.777 103.388V76.1021C261.777 75.3129 262.421 74.6696 263.211 74.6696H264.361C265.151 74.6696 265.794 75.3129 265.794 76.1021V103.388C265.803 104.177 265.159 104.82 264.361 104.82Z" fill="#6E839D"/>
<path d="M293.871 104.82H292.721C291.931 104.82 291.287 104.177 291.287 103.388V76.1021C291.287 75.3129 291.931 74.6696 292.721 74.6696H293.871C294.66 74.6696 295.304 75.3129 295.304 76.1021V103.388C295.304 104.177 294.66 104.82 293.871 104.82Z" fill="#6E839D"/>
<path d="M322.701 104.82H321.551C320.761 104.82 320.117 104.177 320.117 103.388V76.1021C320.117 75.3129 320.761 74.6696 321.551 74.6696H322.701C323.49 74.6696 324.134 75.3129 324.134 76.1021V103.388C324.143 104.177 323.499 104.82 322.701 104.82Z" fill="#6E839D"/>
<path d="M352.88 104.82H351.73C350.941 104.82 350.297 104.177 350.297 103.388V76.1021C350.297 75.3129 350.941 74.6696 351.73 74.6696H352.88C353.67 74.6696 354.314 75.3129 354.314 76.1021V103.388C354.322 104.177 353.679 104.82 352.88 104.82Z" fill="#6E839D"/>
<path d="M272.909 151.844C269.158 154.786 264.308 158.577 260.789 161.271C261.939 164.316 264.866 166.478 268.317 166.478C272.763 166.478 276.368 162.875 276.368 158.432C276.359 155.704 274.994 153.293 272.909 151.844Z" stroke="#0064B7" stroke-miterlimit="10"/>
<path d="M268.317 150.394C263.871 150.394 260.266 153.997 260.266 158.44C260.266 159.435 260.454 160.387 260.789 161.271C264.308 158.569 269.158 154.786 272.909 151.844C271.604 150.935 270.025 150.394 268.317 150.394Z" fill="#0064B7" stroke="#0064B7" stroke-miterlimit="10"/>
<path d="M82.4792 44.6731H67.1151C66.8662 44.6731 66.6602 44.8704 66.6602 45.1277V51.4495C66.6602 51.5696 66.7117 51.6811 66.7889 51.7669L68.6 53.5768C68.6858 53.6626 68.7974 53.7055 68.9176 53.7055H80.6682C80.7883 53.7055 80.8999 53.654 80.9857 53.5768L82.7968 51.7669C82.8827 51.6811 82.9256 51.5696 82.9256 51.4495V45.1277C82.9342 44.8789 82.7367 44.6731 82.4792 44.6731ZM82.0329 51.2608L80.4879 52.8048H69.115L67.57 51.2608V45.5823H82.0243V51.2608H82.0329Z" fill="#003EB0"/>
<path d="M83.3637 46.483L66.197 47.3836C65.9481 47.4008 65.7593 47.6067 65.7679 47.8554C65.7764 48.0956 65.9824 48.2843 66.2228 48.2843C66.2314 48.2843 66.2399 48.2843 66.2485 48.2843L83.4152 47.3836C83.6641 47.3751 83.8529 47.1606 83.8444 46.9119C83.8272 46.6631 83.6126 46.4658 83.3637 46.483Z" fill="#003EB0"/>
<path d="M83.3637 49.1936L66.197 50.0942C65.9481 50.1114 65.7593 50.3172 65.7679 50.566C65.7764 50.8062 65.9824 50.9949 66.2228 50.9949C66.2314 50.9949 66.2399 50.9949 66.2485 50.9949L83.4152 50.0942C83.6641 50.0856 83.8529 49.8712 83.8444 49.6224C83.8272 49.3737 83.6126 49.1678 83.3637 49.1936Z" fill="#003EB0"/>
<path d="M74.7978 13.9732C66.326 13.9732 59.4336 20.8612 59.4336 29.3274C59.4336 34.6542 62.1288 39.5007 66.6608 42.3313V45.1277C66.6608 45.3765 66.8668 45.5823 67.1157 45.5823H82.4798C82.7288 45.5823 82.9348 45.3765 82.9348 45.1277V42.3313C87.4668 39.5007 90.1619 34.6628 90.1619 29.3274C90.1619 20.8612 83.2695 13.9732 74.7978 13.9732ZM82.2481 41.688C82.1108 41.7652 82.0249 41.9196 82.0249 42.074V44.6731H67.5706V42.074C67.5706 41.9196 67.4848 41.7652 67.3474 41.688C62.9613 39.0461 60.3348 34.4226 60.3348 29.3189C60.3348 21.3501 66.8238 14.8739 74.7892 14.8739C82.7631 14.8739 89.2435 21.3587 89.2435 29.3189C89.2607 34.4226 86.6428 39.0461 82.2481 41.688Z" fill="#003EB0"/>
<path d="M79.0727 52.8563C78.8495 52.7448 78.5835 52.8305 78.4633 53.0536C78.429 53.1136 77.6135 54.6147 74.7982 54.6147C71.9915 54.6147 71.1675 53.1222 71.1331 53.0536C71.0215 52.8305 70.7555 52.7448 70.5323 52.8563C70.3091 52.9678 70.2147 53.2423 70.3263 53.4567C70.3692 53.5425 71.3906 55.5154 74.7982 55.5154C78.1972 55.5154 79.2272 53.5425 79.2701 53.4567C79.3817 53.2337 79.2959 52.9678 79.0727 52.8563Z" fill="#003EB0"/>
<path d="M55.374 28.8728H46.3358C46.0869 28.8728 45.8809 29.0701 45.8809 29.3274C45.8809 29.5762 46.0869 29.782 46.3358 29.782H55.374C55.6229 29.782 55.8289 29.5762 55.8289 29.3274C55.8289 29.0787 55.6229 28.8728 55.374 28.8728Z" fill="#DE051F"/>
<path d="M103.269 28.8728H94.2303C93.9814 28.8728 93.7754 29.0787 93.7754 29.3274C93.7754 29.5762 93.9814 29.782 94.2303 29.782H103.269C103.517 29.782 103.723 29.5762 103.723 29.3274C103.715 29.0787 103.517 28.8728 103.269 28.8728Z" fill="#DE051F"/>
<path d="M58.369 38.8059C58.2488 38.5914 57.9656 38.5142 57.751 38.6429L49.923 43.1548C49.7084 43.2835 49.6311 43.558 49.7599 43.7724C49.8457 43.9182 49.9916 43.9954 50.1547 43.9954C50.232 43.9954 50.3092 43.9783 50.3779 43.9354L58.2059 39.4235C58.4205 39.3034 58.4977 39.0203 58.369 38.8059Z" fill="#DE051F"/>
<path d="M99.8436 14.8739C99.7148 14.6594 99.4402 14.5822 99.2256 14.7109L91.3976 19.2228C91.183 19.3515 91.1058 19.626 91.2345 19.8404C91.3203 19.9862 91.4663 20.0634 91.6208 20.0634C91.698 20.0634 91.7753 20.0463 91.8439 20.0034L99.6633 15.4915C99.8951 15.3714 99.9723 15.0969 99.8436 14.8739Z" fill="#DE051F"/>
<path d="M89.2619 4.29749C89.0473 4.1774 88.7726 4.24602 88.6439 4.46046L84.129 12.2834C84.0003 12.4978 84.0775 12.7723 84.2921 12.901C84.3608 12.9439 84.438 12.961 84.5153 12.961C84.6698 12.961 84.8243 12.8838 84.9101 12.738L89.425 4.91509C89.5537 4.70064 89.4764 4.42615 89.2619 4.29749Z" fill="#DE051F"/>
<path d="M74.8065 0.428894C74.5576 0.428894 74.3516 0.634761 74.3516 0.883516V9.91592C74.3516 10.1647 74.5576 10.3705 74.8065 10.3705C75.0554 10.3705 75.2614 10.1647 75.2614 9.91592V0.883516C75.2528 0.634761 75.0554 0.428894 74.8065 0.428894Z" fill="#DE051F"/>
<path d="M65.4855 12.2834L60.9707 4.46904C60.8505 4.25459 60.5673 4.17739 60.3527 4.30606C60.1381 4.43473 60.0608 4.70921 60.1896 4.92366L64.7044 12.7466C64.7903 12.8924 64.9362 12.9696 65.0992 12.9696C65.1765 12.9696 65.2538 12.9525 65.3224 12.9096C65.5284 12.7723 65.6057 12.4978 65.4855 12.2834Z" fill="#DE051F"/>
<path d="M99.6805 43.1548L91.8525 38.6429C91.6379 38.5228 91.3633 38.5914 91.2345 38.8059C91.1058 39.0203 91.183 39.2948 91.3976 39.4235L99.2256 43.9354C99.2943 43.9783 99.3715 43.9954 99.4488 43.9954C99.6033 43.9954 99.7578 43.9182 99.8436 43.7724C99.9723 43.5579 99.8951 43.2835 99.6805 43.1548Z" fill="#DE051F"/>
<path d="M58.2059 19.2228L50.3779 14.7109C50.1633 14.5908 49.8886 14.6594 49.7599 14.8739C49.6311 15.0883 49.7084 15.3628 49.923 15.4915L57.751 20.0034C57.8196 20.0463 57.8969 20.0634 57.9741 20.0634C58.1286 20.0634 58.2831 19.9862 58.369 19.8404C58.4977 19.6259 58.4205 19.3515 58.2059 19.2228Z" fill="#DE051F"/>
<path d="M76.1202 44.6731V30.108C76.1202 30.108 75.9142 23.2372 79.6652 23.2372C83.4161 23.2372 81.6822 30.3825 74.4551 30.3825" stroke="#003EB0" stroke-miterlimit="10"/>
<path d="M72.781 44.6731V30.108C72.781 30.108 72.987 23.2372 69.236 23.2372C65.4851 23.2372 67.219 30.3825 74.4461 30.3825" stroke="#003EB0" stroke-miterlimit="10"/>
<path d="M88.4373 307.616C88.4373 307.616 93.2011 305.678 92.8492 300.205C92.4972 294.732 89.6733 290.855 95.5014 292.442C101.329 294.029 103.286 294.732 107.518 293.857C111.75 292.974 115.269 291.207 113.423 296.68C111.569 302.152 109.578 306.733 113.93 307.616C118.282 308.5 122.959 305.206 123.526 313.767C124.092 322.336 117.174 331.96 105.99 332.312C94.8062 332.663 89.8622 328.031 89.8622 328.031C89.8622 328.031 86.858 323.803 91.5359 322.765C96.2138 321.727 100.978 319.745 98.6 317.558C96.2224 315.371 88.4459 315.199 88.4459 315.199C88.4459 315.199 78.7296 313.269 88.4373 307.616Z" fill="#649EEA"/>
<path d="M139.56 309.032C138.77 303.576 139.38 299.639 149.534 298.164C159.688 296.688 165.602 302.77 166.22 309.032C166.838 315.293 158.014 317.566 158.014 317.566C158.014 317.566 151.748 319.351 154.924 324.823C158.1 330.296 159.542 335.588 152.332 336.378C145.122 337.175 137.234 335.271 132.831 332.337C128.436 329.404 123.93 321.993 128.968 318.115C128.968 318.115 130.384 317.146 135.234 316.88C140.083 316.614 139.56 309.032 139.56 309.032Z" fill="#023EA1"/>
<path d="M103.836 308.148C103.836 308.148 112.265 327.199 113.415 340.169" stroke="#023EA1" stroke-miterlimit="10"/>
<path d="M150.709 311.27C150.709 311.27 135.791 333.41 132.264 340.821" stroke="#649EEA" stroke-miterlimit="10"/>
<path d="M108.214 338.676H142.461C142.461 338.676 146.212 338.942 145.903 344.055C145.62 348.764 139.637 347.752 136.547 347.752C133.457 347.752 107.475 347.752 107.475 347.752C107.475 347.752 103.27 348.472 103.27 343.703C103.27 338.934 104.857 338.676 108.214 338.676Z" fill="#0054A5"/>
<path d="M107.475 347.752L112.668 377.988H135.662L139.559 355.292L107.518 347.752H107.475Z" fill="#0054A5"/>
<path d="M107.518 347.752L139.559 355.292L140.855 347.752H107.518Z" fill="#006AD5"/>
<path d="M122.246 339.817C122.246 339.817 123.98 306.261 133.988 285.211" stroke="#FCBE42" stroke-miterlimit="10"/>
<path d="M142.228 273.099C142.228 273.099 143.052 283.401 132.993 287.424C132.993 287.424 130.813 278.623 142.228 273.099Z" fill="#FCBE42"/>
<path d="M127.139 305.884C127.139 305.884 130.847 297.091 142.245 298.275C142.245 298.267 141.353 307.024 127.139 305.884Z" fill="#FCBE42"/>
<path d="M123.389 327.989C123.389 327.989 125.303 318.647 136.719 317.575C136.719 317.567 137.56 326.333 123.389 327.989Z" fill="#FCBE42"/>
<path d="M122.993 328.049C122.993 328.049 124.315 318.604 113.92 313.775C113.92 313.775 110.195 321.744 122.993 328.049Z" fill="#FCBE42"/>
<path d="M127.259 305.815C127.259 305.815 129.774 296.611 120.084 290.504C120.084 290.504 115.371 297.941 127.259 305.815Z" fill="#FCBE42"/>
<path d="M357.197 203.902L366.811 214.23C366.811 214.23 370.124 217.824 366.811 221.032C363.497 224.249 361.206 226.556 361.206 226.556L357.197 203.902Z" fill="#FFBF99"/>
<path d="M273.484 162.103L270.068 159.392C270.068 159.392 269.501 158.878 268.943 159.118C268.385 159.358 268.343 159.941 269.192 160.585C270.033 161.237 272.566 163.304 272.566 163.304L273.484 162.103Z" fill="#0064B7"/>
<path d="M273.99 160.782L271.475 164.076L284.478 180.802L293.405 168.605L273.99 160.782Z" fill="#649EEA"/>
<path d="M293.405 168.605L323.713 191.49C321.404 194.656 317.713 200.017 315.215 203.688L284.479 180.802L293.405 168.605Z" fill="#0064B7"/>
<path d="M315.217 203.688C317.715 200.017 321.405 194.647 323.714 191.49L361.069 219.694L354.94 233.256L315.217 203.688Z" fill="#649EEA"/>
<path d="M368.123 225.029L369.119 225.784C369.119 225.784 370.733 226.977 369.402 228.649C367.772 230.699 363.188 237.373 363.188 237.373C363.188 237.373 362.115 238.883 361.265 238.231C360.424 237.57 358.45 235.88 358.45 235.88L354.939 233.273L361.068 219.711L368.123 225.029Z" fill="#0064B7"/>
<path d="M338.348 251.046L352.45 368.295L362.535 367.318L363.986 247.992L338.348 251.046Z" fill="#0064E1"/>
<path d="M353.712 251.046L327.224 368.295L317.139 367.318L324.074 247.992L353.712 251.046Z" fill="#003EB0"/>
<path d="M345 177.749C345 177.749 345.867 182.629 347.704 187.527C349.541 192.425 350.468 194.39 350.468 194.39C350.468 194.39 344.485 201.063 338.674 199.965C332.863 198.867 332.949 194.981 332.949 194.981C332.949 194.981 338.391 190.727 338.52 184.903C338.649 179.078 338.649 179.078 338.649 179.078L345 177.749Z" fill="#FFBF99"/>
<path d="M333.146 164.376C333.146 164.376 330.142 168.193 329.996 174.995C329.85 181.797 330.717 186.67 333.627 186.738C336.545 186.798 342.416 184.988 343.429 183.067C344.442 181.146 346.39 181.188 346.476 177.303C346.562 173.417 341.892 164.573 338.004 164.487C334.116 164.393 333.146 164.376 333.146 164.376Z" fill="#FFBF99"/>
<path d="M330.228 164.307C330.228 164.307 327.481 156.476 329.447 155.541C331.413 154.614 335.258 156.639 336.211 157.634C337.163 158.629 339.103 158.672 340.073 158.689C340.073 158.689 349.789 158.903 351.695 160.885C353.6 162.866 353.575 163.844 353.558 164.813C353.54 165.783 353.463 169.591 354.382 171.633C354.776 172.516 355.248 176.514 353.223 180.356C351.197 184.199 349.232 185.126 348.253 185.108C347.283 185.091 346.408 185.066 346.33 184.096C346.253 183.041 345.901 181.557 345.446 180.193C345.009 178.89 344.562 176.291 344.562 176.291C344.562 176.291 343.695 171.41 341.798 169.428C339.893 167.447 339.893 167.447 336.03 166.383C332.151 165.328 331.138 167.25 330.228 164.307Z" fill="#170856"/>
<path d="M343.181 171.684C341.705 173.305 343.584 176.265 343.584 176.265C343.584 176.265 346.477 177.303 346.546 174.386C346.614 171.47 344.657 170.063 343.181 171.684Z" fill="#FFBF99"/>
<path d="M362.527 374.96C362.527 374.96 363.094 376.547 359.823 376.522C356.553 376.496 338.76 376.333 338.76 376.333C338.76 376.333 335.335 375.621 338.52 374.111C341.704 372.61 351.24 368.424 351.24 368.424C351.24 368.424 351.961 368.235 351.97 366.408L362.759 366.503L362.527 374.96Z" fill="#170856"/>
<path d="M327.765 374.96C327.765 374.96 328.332 376.547 325.062 376.522C321.792 376.496 303.998 376.333 303.998 376.333C303.998 376.333 300.573 375.621 303.758 374.111C306.942 372.61 316.478 368.424 316.478 368.424C316.478 368.424 317.199 368.235 317.208 366.408L327.997 366.503L327.765 374.96Z" fill="#170856"/>
<path d="M337.704 192.502C337.704 192.502 336.648 191.636 335.438 192.597C334.228 193.558 330.022 196.654 327.962 200.669C325.902 204.683 325.207 210.224 324.503 223.185C323.799 236.146 323.911 250.162 323.911 250.162L364.098 251.037C364.098 251.037 365.368 227.466 361.583 212.969C357.798 198.473 352.124 193.437 350.862 192.803C349.601 192.177 348.339 193.429 348.339 193.429C348.339 193.429 342.82 198.498 337.704 192.502Z" fill="#FCBE42"/>
<path d="M321.113 204.76L312.255 214.342C312.255 214.342 311.517 215.817 310.04 213.604C308.564 211.391 302.659 201.072 302.659 198.121C302.659 195.17 302.659 192.957 301.92 191.482C301.182 190.006 299.706 187.793 299.706 187.793C299.706 187.793 298.23 185.58 298.23 187.056C298.23 188.531 298.23 190.744 297.491 190.744C296.753 190.744 292.324 186.318 292.324 186.318C292.324 186.318 292.324 193.695 293.801 194.432C295.277 195.17 297.491 196.646 297.491 198.859C297.491 201.072 304.135 220.243 305.611 223.194C307.088 226.145 310.04 226.145 312.993 224.669C315.946 223.194 328.486 212.875 328.486 212.875L321.113 204.76Z" fill="#FFBF99"/>
<path d="M318.787 205.086C318.787 205.086 332.066 192.554 337.971 196.972C343.876 201.398 327.645 216.143 327.645 216.143C327.645 216.143 319.525 208.028 318.787 205.086Z" fill="#F79F03"/>
</svg>
