<svg width="298" height="60" viewBox="0 0 298 60" fill="none" xmlns="http://www.w3.org/2000/svg">
<path d="M56.0136 29.8763C56.0136 25.0997 57.5178 21.1466 60.5262 18.0172C63.577 14.8885 67.4116 13.3242 72.0302 13.3242C76.6487 13.3242 80.4622 14.8885 83.4706 18.0172C86.5213 21.1466 88.0467 25.0997 88.0467 29.8763C88.0467 34.6961 86.5213 38.6492 83.4706 41.7355C80.4613 44.865 76.6478 46.4293 72.0302 46.4284C67.4125 46.4276 63.5779 44.862 60.5262 41.7316C57.517 38.6039 56.0127 34.6508 56.0136 29.8724M61.8609 29.8724C61.8609 33.2133 62.8355 35.9192 64.7846 37.99C66.7337 40.0607 69.1489 41.0961 72.0302 41.0961C74.9114 41.0961 77.3267 40.0607 79.2758 37.99C81.2249 35.9192 82.1994 33.2133 82.1994 29.8724C82.1994 26.5747 81.2249 23.89 79.2758 21.8184C77.2869 19.7053 74.8717 18.6483 72.0302 18.6475C69.1887 18.6466 66.7726 19.7048 64.782 21.8222C62.832 23.893 61.8575 26.5777 61.8583 29.8763" fill="#5F6368"/>
<path d="M50.4648 0.00585938H56.5664L44.4268 45.4132H38.4524L28.6645 15.4799H28.4103L18.6224 45.4132H12.648L0 0.00585938H6.10153L15.6987 35.7102H15.953L25.8044 6.09399H31.2704L41.1218 35.7102H41.3761L50.4648 0.00585938Z" fill="#5F6368"/>
<path d="M98.0435 45.4129H92.1962V14.338H97.7892V19.4115H98.0486C98.6419 17.7626 99.8603 16.3566 101.704 15.1935C103.547 14.0305 105.359 13.4493 107.137 13.4502C108.831 13.4502 110.272 13.7039 111.459 14.2112L109.675 19.858C108.953 19.5629 107.809 19.4149 106.242 19.4141C104.039 19.4141 102.122 20.3019 100.491 22.0776C98.8602 23.8533 98.0443 25.9241 98.0435 28.29V45.4129Z" fill="#5F6368"/>
<path d="M141.555 45.4132H134.5L124.775 30.7636L120.009 35.4565V45.4132H114.161V0.00585938H120.009V27.9732L133.483 14.3383H140.983V14.592L128.843 26.6414L141.555 45.1595V45.4132Z" fill="#5F6368"/>
<path d="M166.856 36.7879C166.856 39.4946 165.669 41.7776 163.297 43.637C160.924 45.4964 157.937 46.4266 154.335 46.4274C151.199 46.4274 148.445 45.6134 146.072 43.9852C143.748 42.4193 141.971 40.1695 140.988 37.5489L146.2 35.3293C146.962 37.1904 148.075 38.6382 149.537 39.6728C150.93 40.6867 152.612 41.2308 154.336 41.2259C156.201 41.2259 157.758 40.8242 159.006 40.0209C160.254 39.2176 160.878 38.2664 160.88 37.1671C160.88 35.1826 159.355 33.724 156.304 32.7913L150.965 31.4595C144.908 29.9375 141.878 27.0194 141.878 22.7052C141.878 19.8734 143.032 17.6007 145.342 15.8871C147.652 14.1735 150.607 13.3176 154.208 13.3193C156.963 13.3193 159.452 13.9747 161.676 15.2853C163.901 16.5959 165.457 18.3505 166.346 20.549L161.136 22.7052C160.538 21.3898 159.522 20.3082 158.244 19.6288C156.871 18.8799 155.328 18.4978 153.763 18.5196C152.315 18.498 150.892 18.8944 149.664 19.6611C148.453 20.4222 147.848 21.3523 147.848 22.4515C147.848 24.2272 149.522 25.4956 152.869 26.2566L157.572 27.4616C163.759 28.9836 166.852 32.0898 166.852 36.7801" fill="#5F6368"/>
<path d="M187.162 46.4284C184.874 46.4284 182.787 45.9422 180.902 44.9698C179.017 43.9974 177.566 42.7079 176.548 41.1013H176.288L176.548 45.4137V59.112H170.7V14.3389H176.294V18.6513H176.553C177.57 17.0456 179.021 15.7561 180.907 14.7828C182.793 13.8096 184.88 13.3234 187.167 13.3242C191.276 13.3242 194.751 14.9308 197.591 18.144C200.514 21.4003 201.976 25.3111 201.976 29.8763C201.976 34.4856 200.514 38.3963 197.591 41.6087C194.752 44.8218 191.277 46.4284 187.167 46.4284M186.214 41.1013C189.01 41.1013 191.362 40.0444 193.269 37.9304C195.171 35.8596 196.122 33.1749 196.122 29.8763C196.122 26.6217 195.171 23.937 193.269 21.8222C191.366 19.7074 189.015 18.6505 186.214 18.6513C183.375 18.6513 181.002 19.7083 179.095 21.8222C177.23 23.937 176.298 26.6217 176.299 29.8763C176.299 33.1741 177.231 35.8799 179.095 37.9938C180.998 40.0646 183.37 41.1 186.214 41.1" fill="#5F6368"/>
<path d="M217.987 13.324C222.311 13.324 225.722 14.4759 228.22 16.7797C230.718 19.0834 231.968 22.244 231.97 26.2613V45.4162H226.377V41.1012H226.118C223.702 44.6526 220.482 46.4283 216.457 46.4283C213.025 46.4283 210.154 45.4136 207.844 43.3842C205.534 41.3548 204.38 38.8181 204.381 35.774C204.381 32.5617 205.599 30.0039 208.035 28.1005C210.471 26.197 213.723 25.2458 217.791 25.2466C221.265 25.2466 224.125 25.8808 226.372 27.1492V25.8122C226.372 23.7828 225.567 22.0598 223.957 20.643C222.406 19.2497 220.386 18.4912 218.3 18.5191C215.036 18.5191 212.452 19.8932 210.546 22.6413L205.398 19.4057C208.236 15.3504 212.43 13.3228 217.98 13.3228M210.424 35.9073C210.424 37.4294 211.07 38.6977 212.362 39.7124C213.654 40.7271 215.167 41.2345 216.902 41.2345C219.358 41.2345 221.551 40.3255 223.479 38.5075C225.408 36.6895 226.372 34.5544 226.372 32.1023C224.549 30.6656 222.007 29.9469 218.745 29.946C216.371 29.946 214.39 30.5168 212.802 31.6583C211.213 32.7999 210.421 34.2162 210.424 35.9073Z" fill="#5F6368"/>
<path d="M251.794 46.4284C247.174 46.4284 243.339 44.8641 240.29 41.7355C237.28 38.5232 235.776 34.5701 235.777 29.8763C235.777 25.0997 237.281 21.1466 240.29 18.0172C243.34 14.8885 247.175 13.3242 251.794 13.3242C254.971 13.3242 257.747 14.1167 260.12 15.7017C262.492 17.2868 264.272 19.4749 265.458 22.2662L260.125 24.4858C258.472 20.5962 255.57 18.6513 251.417 18.6513C248.748 18.6513 246.439 19.7299 244.49 21.8869C242.583 24.044 241.629 26.7076 241.629 29.8776C241.629 33.0477 242.583 35.7112 244.49 37.8683C246.438 40.0254 248.747 41.1039 251.417 41.1039C255.697 41.1039 258.705 39.1591 260.443 35.2694L265.654 37.4891C264.51 40.2795 262.72 42.4672 260.283 44.0522C257.846 45.6372 255.018 46.4302 251.799 46.431" fill="#5F6368"/>
<path d="M283.26 46.4284C278.684 46.4284 274.913 44.8641 271.947 41.7355C268.98 38.6069 267.497 34.6538 267.497 29.8763C267.497 25.142 268.938 21.1993 271.819 18.0482C274.701 14.8972 278.387 13.3225 282.878 13.3242C287.496 13.3242 291.171 14.8143 293.904 17.7945C296.636 20.7748 298.002 24.95 298 30.3203L297.936 30.9544H273.472C273.558 33.9985 274.575 36.4507 276.523 38.3109C278.47 40.1712 280.801 41.1013 283.514 41.1013C287.242 41.1013 290.166 39.2411 292.285 35.5205L297.497 38.0573C296.167 40.6063 294.153 42.7361 291.681 44.2088C289.201 45.6877 286.394 46.4276 283.26 46.4284ZM273.921 26.1347H291.774C291.601 23.9776 290.722 22.1911 289.136 20.7752C287.55 19.3593 285.421 18.6513 282.749 18.6513C280.545 18.6513 278.648 19.3278 277.06 20.6807C275.471 22.0336 274.423 23.8516 273.914 26.1347" fill="#5F6368"/>
</svg>
