<?xml version="1.0" encoding="utf-8"?>
<!-- Generator: Adobe Illustrator 27.7.0, SVG Export Plug-In . SVG Version: 6.00 Build 0)  -->
<svg version="1.2" baseProfile="tiny-ps" id="Layer_1" xmlns="http://www.w3.org/2000/svg" xmlns:xlink="http://www.w3.org/1999/xlink"
	 viewBox="0 0 500 500" overflow="visible" xml:space="preserve">
	 <title>Patronum Logo</title>
<g>
	<g>
		<rect fill="#FFFFFF" width="500" height="500"/>
	</g>
	<g>
		<path fill="#FFFFFF" d="M219.62,20.38l-153.29,88.5c-18.8,10.85-30.38,30.91-30.38,52.62v177c0,21.71,11.58,41.76,30.38,52.62
			l153.29,88.5c18.8,10.85,41.96,10.85,60.76,0l153.29-88.5c18.8-10.85,30.38-30.91,30.38-52.62v-177
			c0-21.71-11.58-41.76-30.38-52.62l-153.29-88.5C261.58,9.53,238.42,9.53,219.62,20.38z"/>
		<path fill="none" stroke="#CCCCCC" stroke-miterlimit="10" d="M219.62,20.38l-153.29,88.5c-18.8,10.85-30.38,30.91-30.38,52.62
			v177c0,21.71,11.58,41.76,30.38,52.62l153.29,88.5c18.8,10.85,41.96,10.85,60.76,0l153.29-88.5
			c18.8-10.85,30.38-30.91,30.38-52.62v-177c0-21.71-11.58-41.76-30.38-52.62l-153.29-88.5C261.58,9.53,238.42,9.53,219.62,20.38z"
			/>
	</g>
	<g>
		<polygon fill="#0A489B" points="249.99,250.04 400.06,162.05 250,81.5 		"/>
	</g>
	<g>
		<polygon fill="#0F68DE" points="250.01,414.38 99.94,330.49 99.94,162 250.01,81.51 		"/>
	</g>
	<g>
		<path fill="none" stroke="#06727D" stroke-width="0.25" stroke-miterlimit="10" d="M247.92,244.09"/>
	</g>
	<g>
		<path fill="none" stroke="#06727D" stroke-width="0.25" stroke-miterlimit="10" d="M247.92,244.09"/>
	</g>
	<g>
		<g>
			
				<line fill="none" stroke="#D9D9D9" stroke-width="0.1" stroke-linecap="square" stroke-linejoin="bevel" stroke-miterlimit="10" x1="244.01" y1="253.36" x2="100.78" y2="329.91"/>
		</g>
	</g>
	<g>
		<polygon fill="#0F68DE" points="250.03,250.02 99.96,161.98 250.02,81.49 		"/>
	</g>
	<g>
		<polygon fill="#3F86E4" points="250.01,418.51 99.94,330.49 250.01,250.03 		"/>
	</g>
</g>
</svg>
