<svg width="340" height="270" viewBox="0 0 340 270" fill="none" xmlns="http://www.w3.org/2000/svg">
<g clip-path="url(#clip0_1409_2651)">
<path d="M97.6551 256.931H100.345V221.069H97.6551V256.931Z" fill="#023EA1"/>
<path d="M85.4951 257.828H112.389V256.134C112.389 255.972 112.252 255.835 112.091 255.835H85.7937C85.632 255.835 85.4951 255.972 85.4951 256.134V257.828Z" fill="#023EA1"/>
<path d="M81.5176 218.292C81.5176 219.822 83.0092 221.069 84.8392 221.069H112.265C114.095 221.069 115.587 219.822 115.587 218.292V215.777C115.587 214.247 114.095 213 112.265 213H84.8392C83.0092 213 81.5176 214.247 81.5176 215.777V218.292Z" fill="#023EA1"/>
<path d="M332.552 233.54H8V233.67H332.552V233.54Z" fill="#EBEBEB"/>
<path d="M309.574 244.72H286.466V244.85H309.574V244.72Z" fill="#EBEBEB"/>
<path d="M226.878 246.67H220.776V246.8H226.878V246.67Z" fill="#EBEBEB"/>
<path d="M285.816 238.22H272.444V238.35H285.816V238.22Z" fill="#EBEBEB"/>
<path d="M62.7844 239.39H32.666V239.52H62.7844V239.39Z" fill="#EBEBEB"/>
<path d="M73.2996 239.39H68.8857V239.52H73.2996V239.39Z" fill="#EBEBEB"/>
<path d="M153.01 242.38H87.71V242.51H153.01V242.38Z" fill="#EBEBEB"/>
<path d="M161.189 202.34H26.6944C24.4874 202.34 22.6699 200.52 22.6699 198.31V9.03C22.6699 6.82 24.4874 5 26.6944 5H161.189C163.396 5 165.213 6.82 165.213 9.03V198.44C165.213 200.52 163.396 202.34 161.189 202.34ZM26.6944 5.13C24.6172 5.13 22.9296 6.82 22.9296 8.9V198.31C22.9296 200.39 24.6172 202.08 26.6944 202.08H161.189C163.266 202.08 164.953 200.39 164.953 198.31V9.03C164.953 6.95 163.266 5.26 161.189 5.26H26.6944V5.13Z" fill="#EBEBEB"/>
<path d="M311.91 202.34H177.416C175.209 202.34 173.392 200.52 173.392 198.31V9.03C173.392 6.82 175.209 5 177.416 5H311.91C314.117 5 315.935 6.82 315.935 9.03V198.44C315.935 200.52 314.117 202.34 311.91 202.34ZM177.416 5.13C175.339 5.13 173.651 6.82 173.651 8.9V198.31C173.651 200.39 175.339 202.08 177.416 202.08H311.91C313.987 202.08 315.675 200.39 315.675 198.31V9.03C315.675 6.95 313.987 5.26 311.91 5.26H177.416V5.13Z" fill="#EBEBEB"/>
<path d="M64.6019 125.64C64.6019 125.38 64.7317 125.12 64.7317 124.73C64.7317 121.61 62.2651 119.01 59.0196 119.01C58.76 119.01 58.3705 119.01 58.1109 119.14C56.9425 117.32 54.9952 116.02 52.5286 116.02C49.5427 116.02 47.0761 117.97 46.2972 120.7C45.9077 120.57 45.5183 120.57 44.999 120.57C42.6622 120.57 40.8447 122.39 40.8447 124.73C40.8447 124.99 40.8447 125.38 40.9745 125.64H64.6019Z" fill="#F0F0F0"/>
<path d="M299.187 41.01C299.187 40.62 299.317 40.23 299.317 39.84C299.317 35.55 295.812 31.91 291.398 31.91C291.009 31.91 290.489 31.91 290.1 32.04C288.542 29.44 285.686 27.62 282.441 27.62C278.286 27.62 274.911 30.35 273.872 34.12C273.353 33.99 272.704 33.86 272.185 33.86C268.939 33.86 266.343 36.46 266.343 39.71C266.343 40.1 266.343 40.49 266.473 40.88H299.187V41.01Z" fill="#FAFAFA"/>
<path d="M178.065 38.02C178.195 37.5 178.195 36.98 178.195 36.46C178.195 31 173.781 26.45 168.199 26.45C167.679 26.45 167.16 26.45 166.641 26.58C164.693 23.33 161.059 20.99 156.904 20.99C151.711 20.99 147.298 24.5 145.999 29.31C145.35 29.05 144.571 28.92 143.792 28.92C139.768 28.92 136.393 32.17 136.393 36.33C136.393 36.85 136.393 37.37 136.522 37.89H178.065V38.02Z" fill="#FAFAFA"/>
<path d="M125.228 91.19C125.228 90.93 125.358 90.67 125.358 90.28C125.358 87.16 122.891 84.56 119.646 84.56C119.386 84.56 118.997 84.56 118.737 84.69C117.568 82.87 115.621 81.57 113.155 81.57C110.169 81.57 107.702 83.52 106.923 86.25C106.534 86.12 106.144 86.12 105.625 86.12C103.288 86.12 101.471 87.94 101.471 90.28C101.471 90.54 101.471 90.93 101.601 91.19H125.228Z" fill="#FAFAFA"/>
<path d="M93.2922 126.16H75.377V211.96H93.2922V126.16Z" fill="#F5F5F5"/>
<path d="M121.983 109.26H104.067V211.96H121.983V109.26Z" fill="#FAFAFA"/>
<path d="M265.175 120.05H247.26V212.09H265.175V120.05Z" fill="#F0F0F0"/>
<path d="M150.543 142.54H132.628V212.09H150.543V142.54Z" fill="#F0F0F0"/>
<path d="M236.485 121.74H218.569V211.96H236.485V121.74Z" fill="#FAFAFA"/>
<path d="M207.924 108.74H190.009V211.96H207.924V108.74Z" fill="#F5F5F5"/>
<path d="M64.7317 149.17H46.8164V211.31H64.7317V149.17Z" fill="#FAFAFA"/>
<path d="M293.736 58.04H275.82V211.31H293.736V58.04Z" fill="#F5F5F5"/>
<path d="M179.234 122.39H161.318V212.09H179.234V122.39Z" fill="#FAFAFA"/>
<path d="M28.512 173.74L27.084 172.31L102.64 97.56L165.862 131.23L206.756 91.71L255.958 112.38L311.521 24.89L313.209 25.93L256.737 114.85L207.145 94.18L166.252 133.7L165.603 133.44L102.899 100.03L28.512 173.74Z" fill="#407BFF"/>
<g opacity="0.1">
<path d="M28.512 173.74L27.084 172.31L102.64 97.56L165.862 131.23L206.756 91.71L255.958 112.38L311.521 24.89L313.209 25.93L256.737 114.85L207.145 94.18L166.252 133.7L165.603 133.44L102.899 100.03L28.512 173.74Z" fill="#0054A3"/>
</g>
<path d="M27.7329 178.03C30.5291 178.03 32.7959 175.76 32.7959 172.96C32.7959 170.16 30.5291 167.89 27.7329 167.89C24.9367 167.89 22.6699 170.16 22.6699 172.96C22.6699 175.76 24.9367 178.03 27.7329 178.03Z" fill="#0064E1"/>
<path d="M105.236 99.25C105.236 101.33 103.548 102.89 101.601 102.89C99.5237 102.89 97.9658 101.2 97.9658 99.25C97.9658 97.3 99.6535 95.61 101.601 95.61C103.548 95.48 105.236 97.17 105.236 99.25Z" fill="#0064E1"/>
<path d="M207.145 96.78C208.866 96.78 210.261 95.3831 210.261 93.66C210.261 91.9368 208.866 90.54 207.145 90.54C205.424 90.54 204.029 91.9368 204.029 93.66C204.029 95.3831 205.424 96.78 207.145 96.78Z" fill="#0064E1"/>
<path d="M170.925 132.53C170.925 135.13 168.718 137.34 166.122 137.34C163.525 137.34 161.318 135.13 161.318 132.53C161.318 129.93 163.525 127.72 166.122 127.72C168.718 127.72 170.925 129.93 170.925 132.53Z" fill="#0064E1"/>
<path d="M259.982 113.68C259.982 115.63 258.424 117.32 256.347 117.32C254.4 117.32 252.712 115.76 252.712 113.68C252.712 111.6 254.27 110.04 256.347 110.04C258.294 110.04 259.982 111.6 259.982 113.68Z" fill="#0064E1"/>
<path d="M315.804 18L299.058 32.95L311.131 39.97L315.804 18Z" fill="#0064E1"/>
<path d="M261.53 148.993L257.103 155.089C257.103 155.089 256.412 156.197 255.167 155.782C253.23 155.089 245.482 151.764 245.482 151.764C245.482 151.764 244.652 149.27 243.546 148.578C242.439 147.885 238.15 147.608 238.427 150.933C238.704 154.258 240.917 154.535 241.885 154.396C242.854 154.396 248.803 158.691 249.494 158.968C250.186 159.245 256.135 162.293 256.135 162.293C256.135 162.293 258.21 163.263 260.285 161.185C262.36 159.107 267.479 153.565 267.479 153.565L264.989 150.102L261.53 148.993Z" fill="#FBBE99"/>
<path d="M269.555 143.036C269.555 143.036 263.744 145.807 261.946 148.301L261.254 148.993L266.234 153.288L269.555 143.036Z" fill="#F59F1D"/>
<path d="M108.611 244.59L111.078 246.28L109.131 250.31V252.52L112.766 262.01L102.77 250.83L108.611 244.59Z" fill="#171B23"/>
<path d="M101.341 191.03C101.341 191.03 126.786 197.27 135.744 201.56C138.47 202.86 140.028 206.76 136.782 213C132.498 220.54 110.039 250.05 110.039 250.05L106.534 247.06L123.281 211.05L86.1523 202.34L101.341 191.03Z" fill="#DE051F"/>
<path d="M108.871 159.31L132.238 162.04L141.456 132.01L138.989 131.23L128.214 153.2L107.442 151.9C107.442 151.9 98.2252 151.38 100.173 155.67C101.081 157.62 104.067 158.79 108.871 159.31Z" fill="#0064B7"/>
<path d="M243.885 231.72V215.34C243.885 215.21 243.755 215.21 243.755 215.08V201.56V193.89V193.63H222.075C220.257 192.85 219.478 190.51 220.517 188.69C223.503 184.01 224.152 178.03 218.699 174.91C214.285 172.31 208.184 174 205.717 178.55C203.64 182.32 205.328 185.57 207.275 188.95C208.314 190.77 207.405 192.98 205.717 193.76H184.297V194.02V202.34V214.95C184.816 217.16 187.413 218.33 189.36 217.03C194.033 214.04 200.005 213.39 203.121 218.85C205.717 223.27 203.77 229.25 199.226 231.72C195.461 233.8 192.476 232.11 189.1 230.29C186.893 229.12 184.556 230.03 184.167 232.37V253.3H199.226H231.552H243.625V232.11C243.755 231.85 243.755 231.85 243.885 231.72Z" fill="#F59F1D"/>
<path d="M203.121 218.72C199.875 213.26 194.033 213.91 189.36 216.9C187.023 218.33 184.167 216.64 184.167 214.04V194.28H163.006C161.059 194.93 160.15 197.27 161.189 199.22C163.136 202.6 164.694 205.85 162.746 209.62C160.28 214.17 154.178 215.86 149.764 213.26C144.312 210.01 144.961 204.16 147.947 199.48C149.115 197.53 148.206 195.19 146.129 194.41H132.628H124.969V194.28H124.709V193.89H124.579V195.84V215.6V231.98V252.52V253.43H124.839H128.863H133.277H145.87H163.266H174.95H184.167V233.41C184.167 230.81 187.023 229.12 189.23 230.42C192.605 232.37 195.851 233.93 199.615 231.98C204.029 229.25 205.717 223.14 203.121 218.72Z" fill="#FCBE42"/>
<path d="M250.635 183.1L269.848 127.98L269.589 127.85L213.636 108.35L207.015 127.59C206.107 130.19 202.861 130.71 201.173 128.63C197.668 124.34 192.346 121.74 187.542 125.77C183.648 129.15 183.258 135.39 186.633 139.29C189.489 142.41 193.124 141.89 196.889 141.24C199.486 140.72 201.563 143.19 200.784 145.79L194.163 164.77L213.896 171.66C216.103 171.79 217.92 169.84 217.531 167.63C216.882 163.86 216.362 160.22 219.478 157.36C223.243 153.85 229.604 154.24 232.979 158.27C237.134 163.08 234.537 168.41 230.253 171.92C228.436 173.48 228.695 176.21 230.513 177.38L242.456 181.54L250.375 184.27L250.635 184.4V183.1Z" fill="#EE384E"/>
<path d="M181.57 164.51C180.791 162.17 178.454 161.52 176.377 163.08C173.261 165.29 170.535 167.24 166.511 165.68C161.707 163.73 159.111 158.01 161.188 153.33C163.785 147.48 169.627 147.48 174.69 149.82C176.896 150.86 179.233 149.43 179.493 147.09L177.935 134.61L176.896 126.29V126.03L170.146 126.81L120.295 132.79L117.698 133.05V133.31L118.607 140.98L120.165 154.37C120.165 154.5 120.165 154.5 120.035 154.63L121.982 171.01C121.982 171.14 122.112 171.14 122.112 171.27L124.709 192.33H124.968V192.46L132.628 191.55L145.999 189.99C148.076 190.38 149.374 192.72 148.336 194.8C145.999 199.87 145.999 205.72 151.841 208.32C156.515 210.4 162.357 207.93 164.304 203.12C165.862 199.22 163.785 196.1 161.578 192.98C160.279 191.16 160.929 188.82 162.746 187.91L183.777 185.31L182.738 176.6L181.57 164.51Z" fill="#DE051F"/>
<path d="M155.736 251.87L158.463 249.79L162.747 252.78L165.213 253.56L177.676 251.61L161.708 260.58L155.736 251.87Z" fill="#171B23"/>
<path d="M84.3347 202.34C84.3347 202.34 84.075 211.05 93.8116 213.78C93.8116 213.78 103.029 213.52 119.516 214.04L156.904 253.56L160.41 251.09L135.484 211.31C135.484 211.31 131.979 205.07 129.772 204.03C123.021 200 96.0185 196.23 96.0185 196.23L84.3347 202.34Z" fill="#EE384E"/>
<path d="M81.0889 159.57C81.0889 159.57 101.601 151.51 104.067 151.51C106.534 151.51 104.586 163.73 105.365 166.72C106.144 171.01 108.092 177.25 107.313 182.45C106.534 187.65 109.26 190.25 109.26 190.25L83.2958 205.72L82.1274 182.84L81.0889 159.57Z" fill="#0083F9"/>
<path d="M124.579 171.01C124.579 171.01 128.604 167.76 129.772 168.02C130.81 168.28 133.537 171.01 125.747 172.83L124.579 171.01Z" fill="#FFC190"/>
<path d="M83.8157 170.36L98.7451 188.56L126.007 173.09L124.969 170.62L102.25 179.07L88.0998 163.6C88.0998 163.6 81.8684 156.84 80.3106 161.13C79.1422 163.6 80.8299 166.59 83.8157 170.36Z" fill="#0064B7"/>
<path d="M92.1241 146.05C92.1241 146.05 91.6048 149.3 90.1768 152.29C88.8786 155.54 88.2295 156.58 88.2295 156.58C88.2295 156.58 91.9943 160.87 95.7591 160.35C99.5239 159.83 99.5239 157.1 99.5239 157.1C99.5239 157.1 96.0187 154.11 96.0187 150.6C96.0187 147.09 96.0187 146.83 96.0187 146.83L92.1241 146.05Z" fill="#FFB48F"/>
<path d="M100.043 137.6C100.043 137.6 101.99 140.07 101.99 144.62C101.99 149.17 101.471 152.16 99.5234 152.16C97.5761 152.16 93.8113 150.86 93.292 149.69C92.7728 148.39 91.3447 148.39 91.3447 145.92C91.3447 143.45 94.5902 137.86 97.0568 137.86C99.5234 137.86 100.043 137.6 100.043 137.6Z" fill="#FFBF99"/>
<path d="M101.861 137.6C101.861 137.6 103.808 132.4 102.38 131.88C101.082 131.36 98.615 132.4 98.0957 133.18C97.5764 133.7 96.1484 133.7 95.6291 133.7C95.6291 133.7 89.3977 133.7 88.0995 135C86.8013 136.3 86.8013 136.95 86.8013 137.47C86.8013 137.99 86.8013 140.72 86.282 141.76C86.0224 142.28 85.7628 145.01 86.8013 147.48C88.0995 149.95 89.2679 150.73 90.0468 150.73C90.5661 150.73 91.0854 150.73 91.345 150.21C91.345 149.43 91.6047 148.52 91.8643 147.74C92.124 146.96 92.3836 145.27 92.3836 145.27C92.3836 145.27 92.9029 142.02 94.3309 140.98C95.6291 139.68 95.6291 139.68 98.0957 139.03C100.562 138.77 101.341 139.55 101.861 137.6Z" fill="#170856"/>
<path d="M93.2919 142.28C94.0708 143.32 93.0323 145.27 93.0323 145.27C93.0323 145.27 91.085 145.79 91.085 143.97C91.085 142.15 92.3832 141.11 93.2919 142.28Z" fill="#FFBF99"/>
<path d="M269.871 141.276L283.242 142.251L281.195 169.966L264.414 168.712C264.414 168.712 265.506 155.621 265.369 154.646C265.096 153.532 264.005 149.911 264.823 147.682C265.369 145.315 269.871 141.276 269.871 141.276Z" fill="#FCBE42"/>
<path d="M272.304 128.013C274.217 129.095 274.806 138.42 275.688 139.231C276.718 140.447 277.454 142.475 276.571 143.286C275.835 144.096 271.863 144.232 270.833 143.421C269.361 142.475 270.538 139.501 270.686 138.555C270.833 137.474 269.803 136.798 267.89 137.879C266.124 138.826 264.947 138.555 264.211 138.42C263.917 138.42 263.917 138.285 263.917 138.15L264.064 137.474C264.064 137.339 263.917 137.204 263.77 137.204H262.887C262.74 137.204 262.593 137.069 262.593 136.933L262.74 135.582H261.71C261.563 135.582 261.416 135.447 261.416 135.312L261.563 133.69C260.827 131.662 260.827 128.284 260.827 128.284C260.827 128.284 270.538 127.473 272.304 128.013Z" fill="#FBBC98"/>
<path d="M272.483 197.033L264.736 249.759L258.138 249.204L264.593 168.172L267.605 168.45L272.483 197.033Z" fill="#0064E1"/>
<path d="M266.986 169.069L266.574 170.721C264.513 179.396 271.795 211.615 272.069 213.13C272.344 214.644 284.846 247.966 284.846 247.966L289.517 245.212L280.999 207.209C279.213 201.702 280.587 191.237 280.725 189.447C280.862 189.172 280.862 189.034 280.862 188.896C284.434 181.461 281.137 174.852 280.999 174.164C280.999 172.924 280.999 170.17 280.999 170.17L266.986 169.069Z" fill="#0054A3"/>
<path d="M274.673 154.812L269.969 161.184C269.969 161.184 268.862 162.431 267.479 162.016C265.265 161.323 256.55 157.998 256.55 157.998C256.55 157.998 255.443 155.227 254.198 154.535C252.953 153.842 248.111 153.704 248.664 157.444C249.079 161.184 251.569 161.323 252.676 161.184C253.783 161.184 260.562 165.618 261.392 165.895C262.222 166.172 268.862 169.219 268.862 169.219C268.862 169.219 271.214 170.189 273.428 167.834C275.641 165.34 281.037 157.721 281.037 157.721L277.855 155.643L274.673 154.812Z" fill="#FBBE99"/>
<path d="M283.942 151.348C284.081 151.348 283.942 151.487 283.942 151.626L280.76 158.275C280.76 158.414 280.622 158.552 280.345 158.414C279.654 157.998 278.27 157.305 276.61 156.474C275.642 155.92 275.088 155.782 274.812 155.505C274.397 155.366 274.397 154.95 274.535 154.812L279.239 145.391C279.377 145.114 279.792 145.253 279.93 145.391L283.942 151.348Z" fill="#F59F1D"/>
<path d="M264.414 250.466L263.975 255.138L249.319 254.005C249.173 254.005 249.173 253.864 249.173 253.722C249.319 253.298 249.759 252.165 251.225 252.024C253.13 251.599 257.526 249.759 257.526 249.759L264.414 250.466Z" fill="#221D56"/>
<path d="M289.957 246.172C289.957 246.172 291.435 247.92 291.973 248.919C292.51 249.793 291.973 250.791 291.838 251.041L281.492 256.034C281.492 256.034 279.208 254.661 281.761 253.038C284.314 251.416 285.657 248.544 285.657 248.544L289.957 246.172Z" fill="#221D56"/>
<path d="M281.589 152.458C280.738 149.949 279.036 145.208 277.191 143.953C275.347 142.838 274.496 140.189 274.07 138.376C273.929 136.703 270.24 131.405 270.24 131.405L270.382 130.429C270.098 128.338 268.396 129.035 267.403 130.429C266.41 131.963 263.856 130.708 262.863 129.035C261.87 127.501 260.735 129.592 260.735 129.592C260.735 129.592 258.04 131.963 257.33 127.64C256.479 123.318 262.012 122.9 262.012 122.9C263.856 120.251 267.545 119.135 267.545 119.135C275.773 117.044 277.475 127.64 277.475 127.64L277.617 128.338C277.617 128.338 278.326 131.266 279.745 132.52C281.022 133.775 284.143 134.891 284.427 138.376C284.71 141.723 287.548 142.977 287.548 142.977C287.548 142.977 293.08 147.997 292.087 151.343C290.101 156.223 282.582 155.108 281.589 152.458Z" fill="#1F1952"/>
</g>
<defs>
<clipPath id="clip0_1409_2651">
<rect width="324.552" height="260" fill="white" transform="translate(8 5)"/>
</clipPath>
</defs>
</svg>
