<svg width="340" height="270" viewBox="0 0 340 270" fill="none" xmlns="http://www.w3.org/2000/svg">
<g clip-path="url(#clip0_1409_2651)">
<path d="M340.075 227.773H0V227.909H340.075V227.773Z" fill="#EBEBEB"/>
<path d="M305.999 238.715H283.486V238.851H305.999V238.715Z" fill="#EBEBEB"/>
<path d="M225.265 240.55H219.348V240.686H225.265V240.55Z" fill="#EBEBEB"/>
<path d="M282.806 232.394H269.747V232.53H282.806V232.394Z" fill="#EBEBEB"/>
<path d="M65.0905 233.55H35.708V233.686H65.0905V233.55Z" fill="#EBEBEB"/>
<path d="M75.4285 233.55H71.1436V233.686H75.4285V233.55Z" fill="#EBEBEB"/>
<path d="M153.17 236.404H89.4404V236.54H153.17V236.404Z" fill="#EBEBEB"/>
<path d="M161.195 197.462H29.8583C27.7498 197.462 25.9814 195.695 25.9814 193.588V9.07056C25.9814 6.96373 27.7498 5.19672 29.8583 5.19672H161.195C163.304 5.19672 165.072 6.96373 165.072 9.07056V193.52C165.072 195.695 163.372 197.462 161.195 197.462ZM29.8583 5.4006C27.8178 5.4006 26.1175 7.03169 26.1175 9.13852V193.588C26.1175 195.627 27.7498 197.326 29.8583 197.326H161.195C163.236 197.326 164.936 195.695 164.936 193.588V9.07056C164.936 7.03169 163.304 5.33264 161.195 5.33264H29.8583V5.4006Z" fill="#EBEBEB"/>
<path d="M308.311 197.462H176.975C174.866 197.462 173.098 195.695 173.098 193.588V9.07056C173.098 6.96373 174.866 5.19672 176.975 5.19672H308.311C310.42 5.19672 312.188 6.96373 312.188 9.07056V193.52C312.188 195.695 310.488 197.462 308.311 197.462ZM176.975 5.4006C174.934 5.4006 173.234 7.03169 173.234 9.13852V193.588C173.234 195.627 174.866 197.326 176.975 197.326H308.311C310.352 197.326 312.052 195.695 312.052 193.588V9.07056C312.052 7.03169 310.42 5.33264 308.311 5.33264H176.975V5.4006Z" fill="#EBEBEB"/>
<path d="M198.794 68.7874L198.454 59.8843L203.963 58.1173C204.167 55.059 204.711 52.0687 205.46 49.1463L200.835 45.7482L203.963 37.3889L209.745 37.8646C211.105 35.1461 212.737 32.5635 214.506 30.1169L211.513 25.1557L217.634 18.6313L222.803 21.2818C225.116 19.3109 227.564 17.5439 230.149 15.9808L229.333 10.272L237.495 6.60199L241.236 10.9516C244.092 10.0001 247.017 9.32048 250.077 8.91271L251.438 3.33981L260.416 3L262.184 8.50494C265.245 8.77679 268.237 9.25252 271.162 10.0001L274.631 5.37868L282.997 8.50494L282.521 14.2817C285.241 15.641 287.826 17.2721 290.274 19.107L295.239 16.1167L301.769 22.2333L299.116 27.3984C301.089 29.7091 302.857 32.1558 304.421 34.7383L310.135 33.8548L313.875 42.0103L309.455 45.7482C310.407 48.6026 311.087 51.593 311.495 54.5833L317.14 56.0105L317.48 64.9135L311.971 66.6806C311.767 69.7389 311.223 72.7292 310.475 75.6516L315.1 79.0497L311.971 87.409L306.19 86.9333C304.829 89.6518 303.197 92.2343 301.429 94.681L304.421 99.6422L298.3 106.167L293.131 103.516C290.818 105.487 288.37 107.254 285.785 108.817L286.669 114.526L278.508 118.196L274.767 113.846C271.91 114.798 268.986 115.477 265.925 115.885L264.565 121.458L255.587 121.798L253.818 116.293C250.758 116.021 247.765 115.545 244.84 114.798L241.44 119.419L233.074 116.293L233.482 110.516C230.761 109.157 228.177 107.526 225.728 105.691L220.763 108.681L214.234 102.565L216.886 97.3995C214.914 95.0887 213.145 92.6421 211.581 90.0595L205.8 90.9431L202.059 82.7876L206.48 79.0497C205.528 76.1953 204.847 73.2729 204.439 70.2146L198.794 68.7874ZM259.191 97.6713C278.78 96.9917 294.083 80.6128 293.403 61.0397C292.723 41.4666 276.331 26.1751 256.743 26.7868C237.155 27.3984 221.851 43.8453 222.531 63.4184C223.212 83.0594 239.603 98.3509 259.191 97.6713Z" fill="#0064E1"/>
<path d="M81.4817 182.918L81.3457 178.908L83.7942 178.093C83.8623 176.733 84.1343 175.374 84.4744 174.015L82.3659 172.452L83.7942 168.646L86.3788 168.85C86.9909 167.626 87.7391 166.471 88.5553 165.384L87.195 163.141L89.9836 160.219L92.2961 161.374C93.3163 160.49 94.4726 159.675 95.6289 158.995L95.2208 156.413L98.8936 154.714L100.594 156.685C101.886 156.277 103.179 155.937 104.607 155.733L105.219 153.219L109.232 153.083L110.048 155.529C111.408 155.665 112.769 155.869 114.061 156.209L115.625 154.102L119.434 155.529L119.23 158.112C120.454 158.723 121.611 159.471 122.699 160.287L124.943 158.927L127.868 161.646L126.712 163.957C127.596 164.976 128.412 166.131 129.092 167.287L131.677 166.879L133.377 170.549L131.405 172.248C131.813 173.539 132.153 174.898 132.357 176.258L134.873 176.869L135.01 180.879L132.493 181.695C132.425 183.054 132.153 184.413 131.813 185.704L133.921 187.268L132.493 191.073L129.908 190.87C129.296 192.093 128.548 193.248 127.732 194.336L129.092 196.578L126.304 199.501L123.991 198.345C122.971 199.229 121.815 200.044 120.658 200.724L121.066 203.307L117.394 205.006L115.693 203.035C114.401 203.443 113.109 203.782 111.68 203.986L111.068 206.501L107.055 206.637L106.239 204.19C104.879 204.054 103.519 203.85 102.226 203.511L100.662 205.617L96.8531 204.19L97.0572 201.608C95.8329 200.996 94.6766 200.248 93.5884 199.433L91.3439 200.792L88.4193 198.074L89.5755 195.763C88.6913 194.743 87.8751 193.588 87.195 192.433L84.6104 192.84L82.91 189.17L84.8825 187.471C84.4744 186.18 84.1343 184.889 83.9303 183.462L81.4817 182.918ZM108.688 195.967C117.53 195.695 124.399 188.287 124.127 179.452C123.855 170.617 116.441 163.685 107.599 164.024C98.7575 164.296 91.888 171.704 92.1601 180.539C92.5002 189.374 99.8458 196.307 108.688 195.967Z" fill="#0083F9"/>
<path d="M64.4785 44.4688C64.2064 44.4688 64.0024 44.3329 63.8663 44.129L61.9619 41.4105C61.0097 41.1387 60.1255 40.7989 59.2413 40.3911L56.5207 41.0707C56.2487 41.1387 55.9766 41.0707 55.7726 40.8668L51.1475 36.5173C50.9435 36.3134 50.8755 36.0415 50.9435 35.8376L51.4196 33.1192C50.9435 32.3036 50.5354 31.4201 50.1953 30.4686L47.3387 28.7696C47.1347 28.6336 46.9986 28.3618 46.9306 28.1579L46.7266 21.7695C46.7266 21.4976 46.8626 21.2258 47.0666 21.0898L49.7872 19.1869C50.0593 18.3034 50.3994 17.3519 50.8075 16.4684L50.1273 13.7499C50.0593 13.4781 50.1273 13.2062 50.3314 13.0023L54.6843 8.38092C54.8884 8.17703 55.1604 8.10907 55.3645 8.17703L58.1531 8.65277C58.9693 8.17703 59.8534 7.76926 60.8057 7.42945L62.506 4.57504C62.6421 4.37115 62.9141 4.23523 63.1182 4.16726L69.4436 3.96338C69.7156 3.96338 69.9877 4.0993 70.1237 4.30319L72.0281 7.02168C72.9803 7.29353 73.8645 7.63334 74.7487 8.04111L77.4693 7.36149C77.7414 7.29353 78.0134 7.36149 78.2175 7.56537L82.8425 11.915C83.0466 12.1188 83.1146 12.3907 83.0466 12.5946L82.5704 15.381C83.0466 16.1966 83.4546 17.0801 83.7947 18.0315L86.6513 19.7306C86.8554 19.8665 86.9914 20.1384 87.0594 20.3423L87.2635 26.6627C87.2635 26.9346 87.1275 27.2064 86.9234 27.3424L84.2028 29.2453C83.9307 30.1968 83.5907 31.1482 83.1826 31.9638L83.8627 34.6823C83.9307 34.9541 83.8627 35.226 83.6587 35.4299L79.3057 40.0513C79.1017 40.2552 78.8296 40.3231 78.6256 40.2552L75.905 39.7794C75.0208 40.2552 74.1366 40.663 73.2524 41.0028L71.552 43.8572C71.416 44.0611 71.1439 44.197 70.9399 44.2649L64.4785 44.4688ZM59.3093 38.76C59.4454 38.76 59.5814 38.76 59.6494 38.828C60.6016 39.3037 61.6218 39.7115 62.6421 39.9833C62.8461 40.0513 62.9821 40.1193 63.0502 40.3231L64.8866 42.9737L70.3958 42.7698L72.0281 40.0513C72.0961 39.9154 72.3002 39.7794 72.4362 39.7115C73.3884 39.3717 74.4087 38.8959 75.2928 38.3522C75.4289 38.2843 75.6329 38.2163 75.837 38.2843L78.4215 38.76L82.1624 34.7502L81.4822 32.1677C81.4142 31.9638 81.4822 31.7599 81.5502 31.624C82.0263 30.7405 82.4344 29.721 82.7065 28.6336C82.7745 28.4298 82.8425 28.2938 83.0466 28.2259L85.6991 26.3909L85.4951 20.886L82.7745 19.2549C82.6385 19.1869 82.5024 18.983 82.4344 18.8471C82.0943 17.8277 81.6182 16.8762 81.0741 15.9927C80.9381 15.8568 80.9381 15.6529 80.9381 15.449L81.4142 12.7985L77.4013 9.06054L74.8167 9.74016C74.6127 9.80813 74.4767 9.74016 74.2726 9.6722C73.3204 9.19647 72.3002 8.78869 71.348 8.51684C71.1439 8.44888 71.0079 8.38092 70.8719 8.17703L69.0355 5.52651L63.5263 5.7304L61.8939 8.44888C61.8259 8.58481 61.6899 8.65277 61.6218 8.72073C61.5538 8.72073 61.4858 8.78869 61.4858 8.78869C60.5336 9.1285 59.5814 9.53628 58.6292 10.1479C58.4932 10.2159 58.2891 10.2839 58.0851 10.2159L55.4325 9.74016L51.6917 13.7499L52.3718 16.3325C52.4398 16.5364 52.3718 16.6723 52.3038 16.8762C51.8277 17.8277 51.4196 18.8471 51.1475 19.7986C51.0795 20.0025 51.0115 20.1384 50.8075 20.2063L48.1549 22.0413L48.3589 27.5463L51.0795 29.1773C51.2156 29.2453 51.3516 29.4492 51.4196 29.5851C51.7597 30.6045 52.2358 31.556 52.7799 32.4395C52.8479 32.5755 52.9159 32.7793 52.8479 32.9832L52.3718 35.6337L56.3847 39.3717L58.9693 38.692C59.1733 38.76 59.2413 38.76 59.3093 38.76ZM66.995 35.8376C64.0704 35.8376 61.2818 34.7502 59.1053 32.7114C56.8608 30.6045 55.5685 27.7501 55.4325 24.6918C55.2964 21.6335 56.4527 18.6432 58.5612 16.4005C60.6696 14.1577 63.5263 12.8664 66.655 12.7305C69.7156 12.5946 72.7083 13.7499 74.9528 15.8568C77.1973 17.9636 78.4896 20.818 78.6256 23.9443C78.7616 27.0026 77.6054 29.9929 75.4969 32.2356C73.3884 34.4784 70.5318 35.7697 67.4031 35.9056C67.2671 35.8376 67.1311 35.8376 66.995 35.8376ZM66.995 14.2257C66.859 14.2257 66.791 14.2257 66.655 14.2257C64.0024 14.2936 61.4858 15.449 59.6494 17.4199C57.813 19.3908 56.8608 21.9054 56.9288 24.6239C56.9968 27.2744 58.1531 29.789 60.1255 31.624C62.0979 33.459 64.6145 34.4104 67.3351 34.3425C69.9877 34.2745 72.5042 33.1191 74.3406 31.1482C76.177 29.1773 77.1293 26.6627 77.0612 23.9443C76.9932 21.2937 75.837 18.7791 73.8645 16.9442C71.9601 15.1771 69.5116 14.2257 66.995 14.2257Z" fill="#0374CF"/>
<path d="M66.0731 141.95C91.4323 141.95 111.99 121.316 111.99 95.8619C111.99 70.4081 91.4323 49.7737 66.0731 49.7737C40.7139 49.7737 20.1562 70.4081 20.1562 95.8619C20.1562 121.316 40.7139 141.95 66.0731 141.95Z" stroke="#DC051F" stroke-miterlimit="10" stroke-dasharray="6 6"/>
<path d="M29.978 74.0501C32.758 74.0501 35.0117 71.788 35.0117 68.9976C35.0117 66.2072 32.758 63.9452 29.978 63.9452C27.198 63.9452 24.9443 66.2072 24.9443 68.9976C24.9443 71.788 27.198 74.0501 29.978 74.0501Z" fill="#003EAE"/>
<path d="M30.8373 66.5331L27.5225 68.5048L30.5918 70.2301L30.8373 66.5331Z" fill="white"/>
<path d="M283.215 188.626H56.8611C51.2839 188.626 46.7949 184.141 46.7949 178.568V33.9445C46.7949 28.3716 51.2839 23.8861 56.8611 23.8861H283.215C288.792 23.8861 293.281 28.3716 293.281 33.9445V178.568C293.281 184.141 288.792 188.626 283.215 188.626Z" fill="white"/>
<path d="M283.215 189.034H56.861C51.0798 189.034 46.3867 184.345 46.3867 178.568V33.9445C46.3867 28.1677 51.0798 23.4783 56.861 23.4783H283.215C288.996 23.4783 293.689 28.1677 293.689 33.9445V178.568C293.689 184.345 288.996 189.034 283.215 189.034ZM56.861 24.2939C51.4878 24.2939 47.1349 28.6435 47.1349 34.0125V178.636C47.1349 184.005 51.4878 188.355 56.861 188.355H283.215C288.588 188.355 292.941 184.005 292.941 178.636V33.9445C292.941 28.5755 288.588 24.2259 283.215 24.2259H56.861V24.2939Z" fill="#0064B5" stroke="#0064B5" stroke-width="2"/>
<path opacity="0.5" d="M129.092 154.577H125.691V153.83H129.092V154.577ZM122.223 154.577H118.822V153.83H122.223V154.577ZM115.353 154.577H111.952V153.83H115.353V154.577ZM108.484 154.577H105.083V153.83H108.484V154.577ZM101.682 154.577H98.2813V153.83H101.682V154.577ZM94.8126 154.577H91.4118V153.83H94.8126V154.577ZM87.9431 154.577H84.5423V153.83H87.9431V154.577ZM81.0735 154.577H77.6728V153.83H81.0735V154.577ZM74.204 154.577H70.8033V153.83H74.204V154.577ZM67.3345 154.577H66.0422C65.2261 154.577 64.4779 154.373 63.7977 154.034L64.1378 153.354C64.75 153.626 65.3621 153.83 66.0422 153.83H67.3345V154.577ZM132.493 153.218L132.017 152.674C132.765 151.927 133.309 150.975 133.377 149.888L134.125 149.956C133.989 151.247 133.445 152.403 132.493 153.218ZM61.4172 151.383C61.2132 150.839 61.0771 150.228 61.0771 149.616V147.917H61.8253V149.616C61.8253 150.16 61.8933 150.636 62.0974 151.179L61.4172 151.383ZM134.125 146.558H133.377V143.16H134.125V146.558ZM61.8253 144.451H61.0771V141.053H61.8253V144.451ZM134.125 139.694H133.377V136.296H134.125V139.694ZM61.8253 137.587H61.0771V134.189H61.8253V137.587ZM134.125 132.829H133.377V129.431H134.125V132.829ZM61.8253 130.723H61.0771V127.325H61.8253V130.723ZM134.125 125.965H133.377V122.567H134.125V125.965ZM61.8253 123.858H61.0771V120.46H61.8253V123.858ZM134.125 119.101H133.377V115.703H134.125V119.101ZM61.8253 116.994H61.0771V113.596H61.8253V116.994ZM134.125 112.237H133.377V108.839H134.125V112.237ZM61.8253 110.198H61.0771V106.8H61.8253V110.198ZM134.125 105.441H133.377V102.043H134.125V105.441ZM61.8253 103.334H61.0771V99.9358H61.8253V103.334ZM134.125 98.5765H133.377V95.1784H134.125V98.5765ZM61.8253 96.4697H61.0771V93.0716H61.8253V96.4697ZM134.125 91.7124H133.377V88.3142H134.125V91.7124ZM61.8253 89.6055H61.0771V86.2074H61.8253V89.6055ZM134.125 84.8482H133.377V81.4501H134.125V84.8482ZM61.8253 82.7414H61.0771V79.3432H61.8253V82.7414ZM134.125 77.984H133.377V74.5859H134.125V77.984ZM61.8253 75.8772H61.0771V72.4791H61.8253V75.8772ZM134.125 71.1198H133.377V69.4208C133.377 68.8771 133.309 68.3334 133.105 67.8576L133.785 67.5858C133.989 68.1975 134.125 68.8091 134.125 69.4208V71.1198ZM61.8253 69.081L61.0771 69.013C61.2132 67.7897 61.7573 66.6343 62.6415 65.7508L63.1176 66.2945C62.3694 67.0421 61.8933 67.9936 61.8253 69.081ZM130.997 65.6149C130.384 65.343 129.772 65.2071 129.092 65.2071H127.8V64.4595H129.092C129.84 64.4595 130.588 64.6634 131.337 65.0032L130.997 65.6149ZM124.331 65.2071H120.93V64.4595H124.331V65.2071ZM117.53 65.2071H114.129V64.4595H117.53V65.2071ZM110.66 65.2071H107.259V64.4595H110.66V65.2071ZM103.791 65.2071H100.39V64.4595H103.791V65.2071ZM96.921 65.2071H93.5203V64.4595H96.921V65.2071ZM90.0515 65.2071H86.6508V64.4595H90.0515V65.2071ZM83.182 65.2071H79.7813V64.4595H83.182V65.2071ZM76.3125 65.2071H72.9117V64.4595H76.3125V65.2071ZM69.511 65.2071H66.1103V64.4595H69.511V65.2071Z" fill="#407BFF"/>
<path d="M66.2472 34.4885C66.2472 36.2555 64.8189 37.7507 62.9825 37.7507C61.1461 37.7507 59.7178 36.3235 59.7178 34.4885C59.7178 32.7215 61.1461 31.2263 62.9825 31.2263C64.8189 31.2263 66.2472 32.7215 66.2472 34.4885Z" fill="#0064B5"/>
<path opacity="0.2" d="M87.6031 36.3913H71.6876C70.6674 36.3913 69.7832 35.5078 69.7832 34.4883C69.7832 33.4689 70.6674 32.5854 71.6876 32.5854H87.6031C88.6234 32.5854 89.5075 33.4689 89.5075 34.4883C89.5075 35.5757 88.6234 36.3913 87.6031 36.3913Z" fill="#407BFF"/>
<path d="M164.392 35.5758H153.238C152.694 35.5758 152.218 35.1001 152.218 34.5564C152.218 34.0127 152.694 33.5369 153.238 33.5369H164.392C164.937 33.5369 165.413 34.0127 165.413 34.5564C165.413 35.1001 164.937 35.5758 164.392 35.5758Z" fill="#DCE8F5"/>
<path d="M189.422 35.5758H178.267C177.723 35.5758 177.247 35.1001 177.247 34.5564C177.247 34.0127 177.723 33.5369 178.267 33.5369H189.422C189.966 33.5369 190.442 34.0127 190.442 34.5564C190.51 35.1001 190.034 35.5758 189.422 35.5758Z" fill="#DCE8F5"/>
<path d="M214.519 35.5758H203.365C202.821 35.5758 202.345 35.1001 202.345 34.5564C202.345 34.0127 202.821 33.5369 203.365 33.5369H214.519C215.064 33.5369 215.54 34.0127 215.54 34.5564C215.54 35.1001 215.064 35.5758 214.519 35.5758Z" fill="#DCE8F5"/>
<path d="M239.617 35.5758H228.463C227.918 35.5758 227.442 35.1001 227.442 34.5564C227.442 34.0127 227.918 33.5369 228.463 33.5369H239.617C240.161 33.5369 240.637 34.0127 240.637 34.5564C240.637 35.1001 240.161 35.5758 239.617 35.5758Z" fill="#DCE8F5"/>
<path d="M271.719 36.3234H254.784C253.763 36.3234 252.947 35.5079 252.947 34.4884C252.947 33.469 253.763 32.6534 254.784 32.6534H271.719C272.74 32.6534 273.556 33.469 273.556 34.4884C273.556 35.5079 272.672 36.3234 271.719 36.3234Z" fill="#0064B5"/>
<path d="M187.722 160.558H156.027C153.85 160.558 152.082 158.791 152.082 156.617V155.733C152.082 153.558 153.85 151.791 156.027 151.791H187.722C189.898 151.791 191.667 153.558 191.667 155.733V156.617C191.667 158.791 189.898 160.558 187.722 160.558Z" fill="#0064B5"/>
<path d="M271.448 113.121V80.091C271.448 79.5473 271.924 79.0715 272.468 79.0715C273.013 79.0715 273.489 79.5473 273.489 80.091V113.121C273.489 113.664 273.013 114.14 272.468 114.14C271.924 114.14 271.448 113.664 271.448 113.121Z" fill="#DCE8F5"/>
<path opacity="0.2" d="M272.468 123.519C273.032 123.519 273.489 123.062 273.489 122.499C273.489 121.936 273.032 121.48 272.468 121.48C271.905 121.48 271.448 121.936 271.448 122.499C271.448 123.062 271.905 123.519 272.468 123.519Z" fill="#407BFF"/>
<path opacity="0.2" d="M272.468 138.266C273.032 138.266 273.489 137.81 273.489 137.247C273.489 136.684 273.032 136.227 272.468 136.227C271.905 136.227 271.448 136.684 271.448 137.247C271.448 137.81 271.905 138.266 272.468 138.266Z" fill="#407BFF"/>
<path opacity="0.2" d="M272.468 152.946C273.032 152.946 273.489 152.49 273.489 151.927C273.489 151.364 273.032 150.907 272.468 150.907C271.905 150.907 271.448 151.364 271.448 151.927C271.448 152.49 271.905 152.946 272.468 152.946Z" fill="#407BFF"/>
<path d="M241.045 81.5183H160.515C155.89 81.5183 152.149 77.7803 152.149 73.1589C152.149 68.5375 155.89 64.7996 160.515 64.7996H241.113C245.738 64.7996 249.479 68.5375 249.479 73.1589C249.411 77.7803 245.67 81.5183 241.045 81.5183Z" fill="#DCE8F5"/>
<path d="M211.526 105.712H160.515C155.89 105.712 152.149 101.974 152.149 97.3531C152.149 92.7316 155.89 88.9937 160.515 88.9937H211.526C216.151 88.9937 219.892 92.7316 219.892 97.3531C219.824 101.974 216.083 105.712 211.526 105.712Z" fill="#DCE8F5"/>
<path d="M226.49 125.218H154.122C153.034 125.218 152.149 124.335 152.149 123.247C152.149 122.16 153.034 121.276 154.122 121.276H226.49C227.578 121.276 228.462 122.16 228.462 123.247C228.462 124.335 227.578 125.218 226.49 125.218Z" fill="#EBEBEB"/>
<path d="M243.562 125.218H236.148C235.06 125.218 234.176 124.335 234.176 123.247C234.176 122.16 235.06 121.276 236.148 121.276H243.562C244.65 121.276 245.534 122.16 245.534 123.247C245.466 124.335 244.582 125.218 243.562 125.218Z" fill="#EBEBEB"/>
<path d="M186.021 129.432H217.172C218.26 129.432 219.145 130.315 219.145 131.403C219.145 132.49 218.26 133.374 217.172 133.374H186.021C184.933 133.374 184.049 132.49 184.049 131.403C184.049 130.315 184.933 129.432 186.021 129.432Z" fill="#EBEBEB"/>
<path d="M154.122 129.432H176.431C177.519 129.432 178.403 130.315 178.403 131.403C178.403 132.49 177.519 133.374 176.431 133.374H154.122C153.034 133.374 152.149 132.49 152.149 131.403C152.149 130.315 153.034 129.432 154.122 129.432Z" fill="#EBEBEB"/>
<path d="M197.992 141.393H154.122C153.034 141.393 152.149 140.509 152.149 139.422C152.149 138.334 153.034 137.451 154.122 137.451H197.992C199.08 137.451 199.964 138.334 199.964 139.422C199.896 140.509 199.012 141.393 197.992 141.393Z" fill="#EBEBEB"/>
<path d="M229.891 141.393H207.582C206.494 141.393 205.609 140.509 205.609 139.422C205.609 138.334 206.494 137.451 207.582 137.451H229.891C230.979 137.451 231.863 138.334 231.863 139.422C231.795 140.509 230.911 141.393 229.891 141.393Z" fill="#EBEBEB"/>
<path d="M149.566 141.937L87.5359 153.762C85.0874 154.238 82.7069 152.607 82.2307 150.16L67.1314 71.2562C66.6553 68.8095 68.2877 66.4309 70.7362 65.9551L132.766 54.1297C135.214 53.654 137.595 55.2851 138.071 57.7317L153.17 136.636C153.646 139.082 152.014 141.461 149.566 141.937Z" fill="#0374CF"/>
<g opacity="0.2">
<path d="M85.0868 151.044C85.0188 151.044 84.9508 151.044 84.9508 150.976C84.8148 150.908 84.7468 150.704 84.8148 150.5L134.874 56.9839C134.942 56.848 135.146 56.78 135.35 56.848C135.486 56.916 135.554 57.1199 135.486 57.3237L85.4269 150.84C85.3589 150.976 85.2229 151.044 85.0868 151.044Z" fill="black"/>
<path d="M150.586 138.539C150.518 138.539 150.45 138.539 150.382 138.471L69.4437 69.8971C69.3077 69.7612 69.3077 69.5573 69.3757 69.4214C69.5118 69.2855 69.7158 69.2855 69.8518 69.3534L150.79 137.927C150.926 138.063 150.926 138.267 150.858 138.403C150.79 138.539 150.722 138.539 150.586 138.539Z" fill="black"/>
</g>
<path d="M152.217 184.347L161.39 260.649L167.943 259.994L168.89 182.363L152.217 184.347Z" fill="#EE384E"/>
<path d="M162.209 184.347L144.99 260.649L138.419 259.994L142.933 182.363L162.209 184.347Z" fill="#DE051F"/>
<path d="M149.796 127.948C149.796 127.948 147.848 130.433 147.748 134.865C147.657 139.297 148.212 142.464 150.105 142.501C151.998 142.537 155.821 141.354 156.485 140.107C157.149 138.86 158.405 138.878 158.469 136.357C158.524 133.827 155.493 128.067 152.963 128.012C150.424 127.976 149.796 127.948 149.796 127.948Z" fill="#FFBE9B"/>
<path d="M157.506 136.657C157.506 136.657 158.07 139.824 159.272 143.018C160.464 146.204 161.064 147.487 161.064 147.487C161.064 147.487 157.169 151.828 153.392 151.118C149.615 150.408 149.67 147.878 149.67 147.878C149.67 147.878 153.21 145.111 153.292 141.316C153.374 137.53 153.374 137.53 153.374 137.53L157.506 136.657Z" fill="#FEBE9A"/>
<path d="M147.894 127.911C147.894 127.911 146.111 122.815 147.394 122.214C148.677 121.604 151.171 122.924 151.79 123.579C152.408 124.225 153.664 124.253 154.311 124.262C154.311 124.262 160.627 124.398 161.864 125.691C163.102 126.983 163.093 127.611 163.075 128.248C163.066 128.876 163.011 131.351 163.612 132.689C163.876 133.263 164.176 135.856 162.856 138.368C161.537 140.862 160.253 141.472 159.626 141.463C158.998 141.453 158.415 141.435 158.379 140.798C158.324 140.116 158.097 139.151 157.805 138.259C157.523 137.413 157.232 135.72 157.232 135.72C157.232 135.72 156.668 132.553 155.439 131.251C154.21 129.95 154.201 129.959 151.69 129.267C149.169 128.567 148.486 129.822 147.894 127.911Z" fill="#160C56"/>
<path d="M156.322 132.717C155.357 133.773 156.586 135.693 156.586 135.693C156.586 135.693 158.461 136.367 158.506 134.464C158.542 132.572 157.277 131.652 156.322 132.717Z" fill="#FFBE9B"/>
<path d="M140.07 153.802L134.281 162.095C134.281 162.095 133.869 162.532 133.456 162.095C133.043 161.659 126.025 152.482 125.612 151.173C125.199 149.863 125.612 148.554 124.373 146.361C123.135 144.169 121.896 143.296 121.896 143.296C121.896 143.296 120.658 142.423 121.071 143.733C121.484 145.042 121.896 146.352 121.071 146.798C120.245 147.244 113.64 148.544 113.64 148.544C113.64 148.544 120.254 150.727 121.915 153.355C123.566 155.974 128.116 164.714 130.19 166.897C132.254 169.08 134.327 170.399 135.566 169.08C136.804 167.77 145.07 159.03 145.07 159.03L140.07 153.802Z" fill="#FFBE9B"/>
<path d="M143.553 139.479C143.553 139.479 146.428 141.526 146.838 143.583C147.248 145.631 148.886 148.916 148.886 148.916L147.248 150.964C147.248 150.964 143.962 148.507 141.914 147.269C139.867 146.031 136.172 144.393 136.172 144.393L143.544 142.755C143.544 142.755 143.953 141.526 143.544 140.707C143.134 139.888 143.553 139.479 143.553 139.479Z" fill="#FFBE9B"/>
<path d="M167.934 264.981C167.934 264.981 168.298 266.009 166.169 266C164.039 265.982 152.472 265.882 152.472 265.882C152.472 265.882 150.251 265.418 152.317 264.435C154.383 263.452 160.581 260.731 160.581 260.731C160.581 260.731 161.054 260.603 161.054 259.42L168.062 259.484L167.934 264.981Z" fill="#170856"/>
<path d="M145.338 264.981C145.338 264.981 145.702 266.009 143.573 266C141.443 265.982 129.876 265.882 129.876 265.882C129.876 265.882 127.655 265.418 129.721 264.435C131.787 263.461 137.985 260.731 137.985 260.731C137.985 260.731 138.458 260.603 138.458 259.42L145.466 259.484L145.338 264.981Z" fill="#170856"/>
<path d="M151.799 146.259C151.799 146.259 151.116 145.695 150.333 146.323C149.551 146.941 146.811 148.971 145.474 151.565C144.145 154.168 143.681 157.781 143.226 166.208C142.761 174.645 142.834 183.764 142.834 183.764L168.963 184.337C168.963 184.337 169.791 168.993 167.325 159.564C164.858 150.136 161.173 146.86 160.354 146.45C159.534 146.04 158.715 146.86 158.715 146.86C158.715 146.86 155.121 150.154 151.799 146.259Z" fill="#0083F9"/>
<path d="M138.629 155.06C138.629 155.06 142.324 149.726 146.411 148.088C150.497 146.45 152.563 149.726 150.515 153.012C148.467 156.297 144.772 160.793 144.772 160.793L138.629 155.06Z" fill="#0064B7"/>
<path d="M186.4 222.404C186.4 222.404 189.071 221.429 188.95 218.138C188.828 214.848 187.007 212.776 190.649 213.751C193.928 214.604 195.02 215.092 197.57 214.482C199.998 213.995 201.941 212.776 201.091 216.189C200.119 219.357 198.905 222.038 201.334 222.525C203.883 223.013 206.554 221.063 206.797 226.181C207.04 231.178 203.033 236.662 196.841 236.905C190.528 237.149 187.493 234.468 187.493 234.468C187.493 234.468 185.672 232.031 188.343 231.422C191.014 230.812 193.806 229.594 192.349 228.497C191.014 227.278 186.521 227.156 186.521 227.156C186.521 227.156 180.937 225.572 186.4 222.404Z" fill="#649CE8"/>
<path d="M216.025 223.135C215.661 219.966 215.904 217.651 221.853 216.798C227.802 216.067 231.08 219.479 231.444 223.135C231.809 226.791 226.709 228.131 226.709 228.131C226.709 228.131 223.067 229.106 224.767 232.274C226.709 235.443 227.438 238.489 223.31 238.977C219.182 239.343 214.568 238.368 212.019 236.661C209.469 234.834 206.919 230.69 209.833 228.375C209.833 228.375 210.562 227.887 213.476 227.765C216.268 227.522 216.025 223.135 216.025 223.135Z" fill="#033E9F"/>
<path d="M195.385 222.647C195.385 222.647 200.241 233.737 200.848 241.17" stroke="#82D8FD" stroke-miterlimit="10" stroke-linecap="round" stroke-linejoin="round"/>
<path d="M222.459 224.476C222.459 224.476 213.839 237.271 211.896 241.658" stroke="#579DD3" stroke-miterlimit="10" stroke-linecap="round" stroke-linejoin="round"/>
<path d="M197.934 240.317H217.602C217.602 240.317 219.788 240.439 219.666 243.364C219.545 246.045 216.024 245.557 214.324 245.557C212.382 245.557 197.691 245.557 197.691 245.557C197.691 245.557 195.263 245.923 195.263 243.242C195.141 240.561 195.87 240.317 197.934 240.317Z" fill="#0054A3"/>
<path d="M197.568 245.557L200.482 262.984H213.716L216.023 250.066L197.568 245.557Z" fill="#0054A3"/>
<path d="M197.568 245.557L216.023 250.066L216.63 245.557H197.568Z" fill="#016AD3"/>
<path d="M205.948 241.048C205.948 241.048 206.798 221.794 212.747 209.486Z" fill="#FABC42"/>
<path d="M217.36 202.418C217.36 202.418 217.724 208.389 212.018 210.826C212.14 210.704 210.925 205.708 217.36 202.418Z" fill="#FABC42"/>
<path d="M208.861 221.429C208.861 221.429 211.047 216.31 217.603 217.042C217.36 216.92 216.874 222.038 208.861 221.429Z" fill="#FABC42"/>
<path d="M206.676 234.103C206.676 234.103 207.647 228.741 214.446 228.009C214.203 228.253 214.689 233.371 206.676 234.103Z" fill="#FABC42"/>
<path d="M206.433 234.103C206.433 234.103 207.162 228.619 201.213 225.816C201.091 225.938 198.906 230.569 206.433 234.103Z" fill="#FABC42"/>
<path d="M208.982 221.307C208.982 221.307 210.439 215.945 204.854 212.411C204.733 212.533 201.94 216.798 208.982 221.307Z" fill="#FABC42"/>
</g>
<defs>
<clipPath id="clip0_1409_2651">
<rect width="340" height="270" fill="white"/>
</clipPath>
</defs>
</svg>
