<svg width="445" height="305" viewBox="0 0 445 305" fill="none" xmlns="http://www.w3.org/2000/svg">
<g clip-path="url(#clip0_3375_6172)">
<path d="M362.636 61.022C358.015 61.022 354.269 57.271 354.269 52.6436C354.269 48.0161 358.015 44.2652 362.636 44.2652C367.257 44.2652 371.004 48.0161 371.004 52.6436C371.004 57.271 367.257 61.022 362.636 61.022Z" stroke="#DE051F" stroke-miterlimit="10"/>
<path d="M368.429 46.3828C368.429 46.3828 383.142 42.5159 378.084 47.6718C373.027 52.8278 355.74 60.2855 352.338 61.1141C348.935 61.9427 346.729 60.4696 347.832 58.6282C348.935 56.7868 354.269 53.7485 354.269 53.7485" stroke="#DE051F" stroke-miterlimit="10"/>
<path d="M52.9927 71.5852C55.8432 70.4804 57.9581 67.7182 57.9581 64.4037" stroke="#003EB0" stroke-miterlimit="10"/>
<path d="M42.7858 63.0226C42.6938 63.483 42.6938 64.0354 42.6938 64.5878C42.6938 68.2707 45.2685 71.309 48.6707 72.0456" stroke="#003EB0" stroke-miterlimit="10"/>
<path d="M56.9468 60.5367C55.5675 58.327 53.1767 56.8539 50.4182 56.8539C48.2113 56.8539 46.2803 57.7746 44.8091 59.2477" stroke="#003EB0" stroke-miterlimit="10"/>
<path d="M54.9237 65.6007C55.3834 63.7592 54.7398 61.6416 52.9927 60.4447" stroke="#003EB0" stroke-miterlimit="10"/>
<path d="M46.832 67.7182C47.0159 67.9023 47.2918 68.0864 47.5676 68.3627C49.4067 69.6516 51.9813 69.4675 53.5445 67.9023" stroke="#003EB0" stroke-miterlimit="10"/>
<path d="M50.6939 59.616C49.0387 59.5239 47.4755 60.2605 46.4641 61.7336C45.6365 62.8384 45.4526 64.2195 45.7285 65.5085" stroke="#003EB0" stroke-miterlimit="10"/>
<path d="M50.418 67.3499C48.7929 67.3499 47.4756 66.0305 47.4756 64.4036C47.4756 62.7768 48.7929 61.4574 50.418 61.4574C52.0431 61.4574 53.3605 62.7768 53.3605 64.4036C53.3605 66.0305 52.0431 67.3499 50.418 67.3499Z" stroke="#003EB0" stroke-miterlimit="10"/>
<path d="M192.634 182.722C192.634 189.348 187.34 194.65 180.722 194.65H98.2185C91.6008 194.65 86.3062 189.348 86.3062 182.722V88.7743C86.3062 82.1471 91.6008 76.8466 98.2185 76.8466H180.869C187.487 76.8466 192.781 82.1471 192.781 88.7743L192.634 182.722Z" fill="#CBCDD2"/>
<path d="M191.458 181.249C191.458 187.876 186.163 193.177 179.545 193.177H97.0423C90.4245 193.177 85.1299 187.876 85.1299 181.249V87.3012C85.1299 80.6749 90.4245 75.3734 97.0423 75.3734H179.693C186.31 75.3734 191.605 80.6749 191.605 87.3012L191.458 181.249Z" fill="white"/>
<path d="M191.458 93.1918V87.3012C191.458 80.6749 186.163 75.3734 179.545 75.3734H97.0423C90.4245 75.3734 85.1299 80.6749 85.1299 87.3012V93.1918H191.458Z" fill="#0064B7"/>
<path d="M168.663 88.1851C168.663 88.7743 168.222 89.2153 167.633 89.2153H161.163C160.574 89.2153 160.133 88.7743 160.133 88.1851V81.7061C160.133 81.1168 160.574 80.6749 161.163 80.6749H167.633C168.222 80.6749 168.663 81.1168 168.663 81.7061V88.1851Z" fill="white"/>
<path d="M180.869 88.1851C180.869 88.7743 180.428 89.2153 179.84 89.2153H173.369C172.781 89.2153 172.339 88.7743 172.339 88.1851V81.7061C172.339 81.1168 172.781 80.6749 173.369 80.6749H179.84C180.428 80.6749 180.869 81.1168 180.869 81.7061V88.1851Z" fill="white"/>
<path d="M154.692 84.9451C154.692 87.3012 152.781 89.2153 150.427 89.2153H95.8658C93.5128 89.2153 91.6011 87.3012 91.6011 84.9451C91.6011 82.589 93.5128 80.6749 95.8658 80.6749H150.427C152.781 80.6749 154.692 82.589 154.692 84.9451Z" fill="white"/>
<path d="M144.25 129.711C144.25 143.847 132.779 155.333 118.66 155.333C104.543 155.333 93.0718 143.847 93.0718 129.711C93.0718 115.574 104.543 104.088 118.66 104.088C132.779 104.088 144.25 115.574 144.25 129.711Z" fill="#E9EEF2"/>
<path d="M138.514 145.761C134.984 152.682 127.631 157.394 119.249 157.394C110.866 157.394 102.63 152.83 98.8066 145.761C104.101 142.08 111.601 139.871 118.66 139.871C126.013 139.871 132.778 142.08 138.514 145.761Z" fill="#FCBE42"/>
<path d="M125.756 134.931C129.514 131.104 129.322 124.812 125.325 120.877C121.329 116.943 115.042 116.857 111.284 120.684C107.526 124.511 107.719 130.804 111.715 134.738C115.711 138.672 121.998 138.758 125.756 134.931Z" fill="#FCBE42"/>
<path d="M182.781 106.003H148.514V112.482H182.781V106.003Z" fill="#DBE9F8"/>
<path d="M182.781 117.194H148.514V120.434H182.781V117.194Z" fill="#DBE9F8"/>
<path d="M182.781 123.82H148.514V127.06H182.781V123.82Z" fill="#DBE9F8"/>
<path d="M182.781 130.447H148.514V133.686H182.781V130.447Z" fill="#DBE9F8"/>
<path d="M182.781 137.074H148.514V140.313H182.781V137.074Z" fill="#DBE9F8"/>
<path d="M182.781 143.7H148.514V146.939H182.781V143.7Z" fill="#DBE9F8"/>
<path d="M182.781 150.326H148.514V153.565H182.781V150.326Z" fill="#DBE9F8"/>
<path d="M182.634 164.021H97.7773V167.26H182.634V164.021Z" fill="#DBE9F8"/>
<path d="M182.634 171.972H97.7773V175.212H182.634V171.972Z" fill="#DBE9F8"/>
<path d="M367.641 122.642C365.876 119.992 362.935 118.225 359.405 118.225H291.021C285.579 118.225 281.167 122.642 281.167 128.091V132.951V205.694C281.167 208.344 282.196 210.7 283.814 212.32C285.579 214.971 288.52 216.737 292.05 216.737H360.434C365.876 216.737 370.288 212.32 370.288 206.871V129.269C370.288 126.765 369.258 124.409 367.641 122.642Z" fill="#C3C4CA"/>
<path d="M374.259 204.81C374.259 210.259 369.847 214.676 364.406 214.676H296.021C290.58 214.676 286.168 210.259 286.168 204.81V127.06C286.168 121.612 290.58 117.194 296.021 117.194H364.406C369.847 117.194 374.259 121.612 374.259 127.06V204.81Z" fill="#CBCDD2"/>
<path d="M373.23 203.485C373.23 208.934 368.818 213.351 363.376 213.351H294.991C289.55 213.351 285.138 208.934 285.138 203.485V125.882C285.138 120.434 289.55 116.016 294.991 116.016H363.523C368.965 116.016 373.377 120.434 373.377 125.882L373.23 203.485Z" fill="white"/>
<path d="M373.23 130.741V125.882C373.23 120.434 368.818 116.016 363.376 116.016H294.991C289.55 116.016 285.138 120.434 285.138 125.882V130.741H373.23Z" fill="#0064B5"/>
<path d="M354.406 126.618C354.406 127.06 354.111 127.355 353.67 127.355H348.376C347.935 127.355 347.641 127.06 347.641 126.618V121.318C347.641 120.876 347.935 120.581 348.376 120.581H353.67C354.111 120.581 354.406 120.876 354.406 121.318V126.618Z" fill="white"/>
<path d="M364.553 126.618C364.553 127.06 364.259 127.355 363.818 127.355H358.523C358.082 127.355 357.788 127.06 357.788 126.618V121.318C357.788 120.876 358.082 120.581 358.523 120.581H363.818C364.259 120.581 364.553 120.876 364.553 121.318V126.618Z" fill="white"/>
<path d="M342.788 123.967C342.788 125.882 341.17 127.502 339.259 127.502H294.109C292.197 127.502 290.58 125.882 290.58 123.967C290.58 122.053 292.197 120.434 294.109 120.434H339.259C341.317 120.434 342.788 122.053 342.788 123.967Z" fill="white"/>
<path d="M334.258 160.928C334.258 172.561 324.846 182.133 313.08 182.133C301.462 182.133 291.903 172.709 291.903 160.928C291.903 149.295 301.315 139.724 313.08 139.724C324.698 139.724 334.258 149.295 334.258 160.928Z" fill="#E9EEF2"/>
<path d="M330.875 171.384C327.64 177.715 321.021 181.986 313.375 181.986C305.727 181.986 298.226 177.715 294.697 171.384C299.55 167.996 306.315 165.935 312.786 165.935C319.551 166.082 325.727 167.996 330.875 171.384Z" fill="#EE384E"/>
<path d="M319.267 161.551C322.684 158.072 322.495 152.34 318.847 148.747C315.197 145.155 309.469 145.064 306.053 148.544C302.636 152.023 302.825 157.756 306.474 161.348C310.122 164.94 315.85 165.032 319.267 161.551Z" fill="#EE384E"/>
<path d="M366.023 141.344H337.64V146.644H366.023V141.344Z" fill="#DBE9F8"/>
<path d="M366.023 150.473H337.64V153.124H366.023V150.473Z" fill="#DBE9F8"/>
<path d="M366.023 158.719H357.934H337.64V156.069H366.023V158.719Z" fill="#DBE9F8"/>
<path d="M366.023 161.517H337.64V164.168H366.023V161.517Z" fill="#DBE9F8"/>
<path d="M366.023 166.966H337.64V169.617H366.023V166.966Z" fill="#DBE9F8"/>
<path d="M366.023 172.561H337.64V175.212H366.023V172.561Z" fill="#DBE9F8"/>
<path d="M366.023 178.01H337.64V180.661H366.023V178.01Z" fill="#DBE9F8"/>
<path d="M366.171 189.201H295.874V191.852H366.171V189.201Z" fill="#DBE9F8"/>
<path d="M366.171 195.975H295.874V198.625H366.171V195.975Z" fill="#DBE9F8"/>
<path d="M310.286 29.8722C308.816 27.6634 306.315 26.1908 303.521 26.1908H247.048C242.49 26.1908 238.959 29.8722 238.959 34.2898V38.4127V98.6396C238.959 100.848 239.842 102.763 241.165 104.236C242.637 106.444 245.137 107.917 247.93 107.917H304.404C308.963 107.917 312.492 104.236 312.492 99.8181V35.3209C312.492 33.2586 311.61 31.1971 310.286 29.8722Z" fill="#D7D9DD"/>
<path d="M315.581 96.4309C315.581 100.996 311.903 104.529 307.492 104.529H251.019C246.46 104.529 242.93 100.848 242.93 96.4309V32.081C242.93 27.5161 246.607 23.982 251.019 23.982H307.492C312.051 23.982 315.581 27.6634 315.581 32.081V96.4309Z" fill="#CBCDD2"/>
<path d="M314.845 95.4006C314.845 99.9655 311.169 103.499 306.757 103.499H250.283C245.724 103.499 242.195 99.8182 242.195 95.4006V31.0498C242.195 26.4854 245.872 22.9513 250.283 22.9513H306.757C311.316 22.9513 314.845 26.6326 314.845 31.0498V95.4006Z" fill="white"/>
<path d="M314.845 35.1736V31.0498C314.845 26.4854 311.169 22.9513 306.757 22.9513H250.283C245.724 22.9513 242.195 26.6326 242.195 31.0498V35.1736H314.845Z" fill="#0064B5"/>
<path d="M299.256 31.7864C299.256 32.081 298.962 32.5229 298.521 32.5229H294.109C293.814 32.5229 293.374 32.2283 293.374 31.7864V27.3688C293.374 27.0742 293.667 26.6326 294.109 26.6326H298.521C298.815 26.6326 299.256 26.9269 299.256 27.3688V31.7864Z" fill="white"/>
<path d="M307.639 31.7864C307.639 32.081 307.345 32.5229 306.904 32.5229H302.492C302.198 32.5229 301.756 32.2283 301.756 31.7864V27.3688C301.756 27.0742 302.051 26.6326 302.492 26.6326H306.904C307.198 26.6326 307.639 26.9269 307.639 27.3688V31.7864Z" fill="white"/>
<path d="M289.697 29.5776C289.697 31.1971 288.374 32.5229 286.756 32.5229H249.549C247.931 32.5229 246.607 31.1971 246.607 29.5776C246.607 27.9581 247.931 26.6326 249.549 26.6326H286.756C288.374 26.6326 289.697 27.9581 289.697 29.5776Z" fill="white"/>
<path d="M282.49 60.0594C282.49 69.7783 274.697 77.5822 264.99 77.5822C255.284 77.5822 247.49 69.7783 247.49 60.0594C247.49 50.3404 255.284 42.5365 264.99 42.5365C274.697 42.6829 282.49 50.4877 282.49 60.0594Z" fill="#E9EEF2"/>
<path d="M279.99 69.631C277.344 74.7842 271.902 78.4661 265.578 78.4661C259.254 78.4661 253.078 74.9315 250.283 69.7783C254.255 66.9803 259.843 65.3599 265.137 65.3599C270.579 65.2135 275.578 66.833 279.99 69.631Z" fill="#0064E1"/>
<path d="M270.445 61.5859C273.292 58.6866 273.159 53.9321 270.147 50.9674C267.135 48.0018 262.385 47.9493 259.538 50.8486C256.691 53.7489 256.825 58.5025 259.836 61.468C262.848 64.4327 267.598 64.4852 270.445 61.5859Z" fill="#0064E1"/>
<path d="M308.815 43.8614H285.432V48.279H308.815V43.8614Z" fill="#DBE9F8"/>
<path d="M308.815 51.5189H285.432V53.7277H308.815V51.5189Z" fill="#DBE9F8"/>
<path d="M308.815 56.0837H285.432V58.2925H308.815V56.0837Z" fill="#DBE9F8"/>
<path d="M308.815 60.6486H285.432V62.8574H308.815V60.6486Z" fill="#DBE9F8"/>
<path d="M308.815 65.2134H285.432V67.4222H308.815V65.2134Z" fill="#DBE9F8"/>
<path d="M308.815 69.7783H285.432V71.9871H308.815V69.7783Z" fill="#DBE9F8"/>
<path d="M308.815 74.1959H285.432V76.4046H308.815V74.1959Z" fill="#DBE9F8"/>
<path d="M308.815 83.6202H250.725V85.829H308.815V83.6202Z" fill="#DBE9F8"/>
<path d="M308.815 89.068H250.725V91.2768H308.815V89.068Z" fill="#DBE9F8"/>
<path d="M216.458 162.99C216.458 162.99 216.9 170.5 213.223 174.476C209.546 178.599 203.517 186.108 203.517 186.108C203.517 186.108 212.635 200.098 230.577 198.183C248.371 196.269 251.754 183.311 251.754 183.311C251.754 183.311 234.989 181.397 232.488 164.905C230.577 149.001 227.635 149.001 227.635 149.001L216.458 162.99Z" fill="#FFBE9B"/>
<path d="M203.517 126.765C203.517 126.765 204.546 147.97 213.664 164.021C223.812 179.924 234.841 171.236 239.695 162.99C244.548 154.744 256.46 126.765 253.666 121.023C250.724 113.807 215.576 110.862 215.576 110.862L203.517 126.765Z" fill="#FFBE9B"/>
<path d="M249.696 138.84C249.696 138.84 254.548 134.865 254.548 138.84C254.548 142.816 251.608 149.001 248.225 149.001C245.284 150.032 245.284 147.97 246.313 145.025C247.931 142.816 249.696 138.84 249.696 138.84Z" fill="#FFBE9B"/>
<path d="M205.43 146.498C206.458 147.528 208.371 147.528 208.371 145.467C208.371 141.491 205.43 135.307 202.047 135.307C199.106 134.276 199.106 136.337 200.135 139.282C200.135 140.313 200.135 141.196 201.165 142.228C202.488 143.7 204.547 146.498 205.43 146.498Z" fill="#FFBE9B"/>
<path d="M204.546 136.484L203.517 130.153C203.517 130.153 209.841 131.183 215.576 123.821C215.576 123.821 228.665 126.765 238.665 125.735C249.842 124.704 253.519 121.759 253.519 121.759C253.519 121.759 251.607 133.834 249.548 137.663C249.548 137.663 254.401 135.748 256.754 129.416C258.666 123.084 258.666 117.341 258.666 117.341C258.666 117.341 265.873 111.009 267.784 105.267C267.784 105.267 248.519 100.407 242.784 97.0201C236.459 93.0445 233.666 90.6884 233.666 90.6884C233.666 90.6884 224.547 85.8289 215.87 92.6026C207.193 99.3762 201.017 103.794 201.017 115.721C201.605 115.721 192.34 127.649 204.546 136.484Z" fill="#1A1455"/>
<path d="M159.251 273.577C161.163 277.554 164.546 280.645 168.075 282.854C168.81 283.296 169.692 283.885 170.428 284.18C171.898 285.21 173.516 286.094 175.134 287.125C176.017 287.566 177.046 288.303 177.928 288.745C178.663 289.187 179.84 289.04 180.134 288.156C180.429 287.124 179.546 286.389 178.81 285.8C178.223 285.358 177.487 284.622 176.899 284.18C175.575 283.002 174.398 281.971 172.928 280.793C172.634 280.498 172.487 280.351 172.045 280.057C172.487 280.351 172.634 280.498 173.075 280.793C173.957 281.382 174.693 282.119 175.575 282.56C176.604 283.296 177.781 284.033 178.663 284.769C179.693 285.505 180.723 286.242 181.752 286.978C182.487 287.419 183.075 288.156 183.958 288.45C184.546 288.892 185.722 289.04 186.164 288.45C186.458 288.008 186.458 287.566 186.458 287.125C186.458 286.683 186.016 285.8 185.575 285.652C185.135 285.21 184.84 285.063 184.546 284.622C183.663 283.591 182.487 282.707 181.457 281.824C180.281 280.793 179.252 279.91 178.075 278.879C177.046 278.142 176.163 277.406 175.134 276.523C174.693 276.081 174.251 275.786 173.811 275.345L187.193 285.8C188.075 286.536 190.281 287.714 191.311 286.242C191.752 285.8 191.458 284.622 191.164 284.033C190.87 283.443 190.281 283.002 189.841 282.707C188.811 281.824 187.928 280.94 186.899 280.057C184.693 278.289 182.782 276.523 180.576 274.903C180.134 274.461 179.693 274.166 179.252 273.725C180.723 275.05 182.634 276.228 184.252 277.554C186.311 278.879 187.488 280.057 189.105 280.94C189.547 281.235 190.134 281.529 190.575 281.529C191.311 281.529 192.194 281.382 192.634 280.793C193.076 280.057 192.634 278.584 191.9 277.995C187.928 274.608 185.135 272.252 181.605 270.044C181.605 270.044 178.516 268.129 178.223 267.835C178.223 267.835 184.105 271.074 188.075 270.338C188.075 270.338 193.223 267.835 184.988 266.068C184.988 266.068 180.281 263.859 177.34 262.533C177.34 262.533 171.604 259.442 164.986 261.503C164.986 261.503 159.545 258.116 158.221 256.938L153.075 263.712C152.78 263.565 157.927 270.633 159.251 273.577Z" fill="#FFBE9B"/>
<path d="M291.021 266.804C291.462 271.221 289.844 275.64 287.933 279.173C287.491 279.91 287.05 280.793 286.608 281.529C285.727 283.149 284.844 284.622 283.962 286.389C283.521 287.272 282.932 288.303 282.344 289.187C281.903 289.922 280.873 290.512 280.138 289.628C279.403 288.745 279.697 287.714 280.138 286.978C280.432 286.242 280.579 285.358 280.873 284.622C281.462 283.002 282.049 281.382 282.491 279.615C282.638 279.173 282.785 278.879 282.932 278.437C282.785 278.879 282.491 279.173 282.491 279.615C282.049 280.498 281.609 281.529 281.168 282.413C280.726 283.591 279.991 284.769 279.55 285.947C279.109 287.125 278.52 288.156 278.079 289.334C277.638 290.07 277.344 290.954 276.903 291.69C276.462 292.279 275.579 293.015 274.844 292.868C274.403 292.721 274.256 292.279 273.961 291.837C273.667 291.396 273.814 290.512 273.961 290.07C274.108 289.628 274.256 289.187 274.403 288.745C274.844 287.419 275.137 286.094 275.726 284.769C276.167 283.443 276.756 281.971 277.197 280.645C277.638 279.468 278.079 278.437 278.52 277.112C278.815 276.67 278.962 275.933 279.109 275.492L272.638 291.248C272.197 292.279 270.873 294.34 269.402 293.457C268.961 293.162 268.372 292.131 268.372 291.396C268.372 290.806 268.667 290.07 268.814 289.481C269.255 288.156 269.549 286.978 270.138 285.652C271.167 283.149 272.05 280.498 273.079 277.996C273.373 277.554 273.52 276.817 273.667 276.375C273.079 278.289 272.05 280.351 271.167 282.119C270.138 284.327 269.549 285.947 268.667 287.566C268.372 288.008 268.225 288.598 267.785 288.892C267.196 289.334 266.314 289.481 265.726 289.334C264.99 288.892 264.696 287.419 264.99 286.536C266.755 281.529 268.079 278.142 269.991 274.461C269.991 274.461 271.755 271.368 271.903 270.927C271.903 270.927 268.372 276.817 264.549 277.996C264.549 277.996 258.814 278.289 265.138 272.694C265.138 272.694 268.225 268.571 270.138 265.921C270.138 265.921 273.52 260.472 280.432 259C280.432 259 283.521 253.404 284.109 251.637L295.286 256.496C295.139 256.496 290.727 263.565 291.021 266.804Z" fill="#FFBE9B"/>
<path d="M300.138 249.575L284.256 207.755C280.726 197.447 271.608 191.115 262.195 187.287C257.048 185.078 251.901 183.164 246.754 180.955C229.4 199.803 207.782 180.955 207.782 180.955C204.693 182.722 201.311 184.489 198.222 186.256C189.399 191.263 178.809 194.797 173.369 204.074L147.779 248.692C147.779 248.692 149.985 265.331 156.603 269.749C156.603 269.749 158.515 259.442 172.045 261.061L169.839 250.606L192.193 227.634L195.722 266.51H255.578L260.284 227.634L279.108 249.428L270.578 264.595C284.696 258.705 290.726 268.424 290.726 268.424C290.726 268.424 298.079 259.589 300.138 249.575Z" fill="#EE384E"/>
<path opacity="0.6" d="M207.635 180.955L200.723 184.784C200.723 184.784 212.929 195.975 225.576 195.975C225.724 195.975 225.871 195.975 226.018 195.975C238.812 195.827 247.783 192.146 252.489 183.311L246.607 180.955C246.607 180.955 236.9 189.496 228.518 189.348C228.665 189.496 219.694 189.79 207.635 180.955Z" fill="#606060"/>
<path d="M274.844 284.917C274.844 287.272 272.931 289.187 270.578 289.187H178.81C176.457 289.187 174.545 287.272 174.545 284.917V217.769C174.545 215.413 176.457 213.498 178.81 213.498H270.578C272.931 213.498 274.844 215.413 274.844 217.769V284.917Z" fill="#023EA1"/>
<path d="M175.722 218.799V256.202C175.722 273.283 177.634 287.125 179.987 287.125H269.402C271.755 287.125 273.667 273.283 273.667 256.202V218.799H175.722Z" fill="#0064B7"/>
<path d="M203.37 288.156H189.399V291.396H203.37V288.156Z" fill="#023EA1"/>
<path d="M257.489 288.156H243.518V291.396H257.489V288.156Z" fill="#023EA1"/>
<path d="M164.251 292.721H285.58C285.58 292.721 283.962 298.022 280.873 300.083H175.134C175.134 300.083 165.28 299.052 164.251 292.721Z" fill="#033E9D"/>
<path d="M62.0332 225.151C62.0332 225.151 66.4566 223.286 66.1074 218.158C65.7582 213.029 63.1973 209.299 68.5519 210.815C74.023 212.33 75.8855 213.029 79.7269 212.097C83.6847 211.281 86.9441 209.649 85.1979 214.777C83.4519 219.906 81.5894 224.218 85.6636 225.151C89.7379 225.967 94.0446 222.82 94.6271 230.979C95.2089 239.021 88.6899 248.113 78.2136 248.462C67.7371 248.812 63.1973 244.383 63.1973 244.383C63.1973 244.383 60.4036 240.419 64.7105 239.371C69.134 238.438 73.5574 236.573 71.3457 234.475C69.134 232.377 61.8004 232.261 61.8004 232.261C61.8004 232.261 52.9535 230.513 62.0332 225.151Z" fill="#649EEA"/>
<path d="M109.876 226.55C109.178 221.421 109.76 217.692 119.188 216.293C128.733 214.894 134.205 220.605 134.787 226.55C135.369 232.494 127.104 234.592 127.104 234.592C127.104 234.592 121.283 236.224 124.194 241.469C127.104 246.597 128.501 251.609 121.75 252.425C114.998 253.124 107.664 251.376 103.59 248.579C99.5155 245.781 95.3252 238.788 99.9818 235.174C99.9818 235.174 101.262 234.242 105.802 234.009C110.341 233.66 109.876 226.55 109.876 226.55Z" fill="#023EA1"/>
<path d="M76.4673 225.733C76.4673 225.733 84.3829 243.683 85.4306 255.922" stroke="#023EA1" stroke-miterlimit="10"/>
<path d="M120.236 228.648C120.236 228.648 106.267 249.511 103.008 256.504" stroke="#649EEA" stroke-miterlimit="10"/>
<path d="M80.5417 254.523H112.554C112.554 254.523 116.045 254.756 115.812 259.652C115.58 264.08 109.992 263.148 107.082 263.148C104.172 263.148 79.9596 263.148 79.9596 263.148C79.9596 263.148 76.0018 263.847 76.0018 259.302C75.8855 254.756 77.3987 254.523 80.5417 254.523Z" fill="#0054A5"/>
<path d="M79.8433 263.032L84.7323 291.588H106.151L109.876 270.142L79.8433 263.032Z" fill="#0054A5"/>
<path d="M79.8433 263.032L109.876 270.142L111.04 263.032H79.8433Z" fill="#006AD5"/>
<path d="M93.6953 255.572C93.6953 255.572 95.3251 223.869 104.637 204.054" stroke="#FCBE42" stroke-miterlimit="10"/>
<path d="M112.32 192.632C112.32 192.632 113.135 202.306 103.706 206.152C103.706 206.152 101.61 197.761 112.32 192.632Z" fill="#FCBE42"/>
<path d="M98.2354 223.519C98.2354 223.519 101.728 215.243 112.32 216.293C112.32 216.409 111.505 224.568 98.2354 223.519Z" fill="#FCBE42"/>
<path d="M94.7432 244.383C94.7432 244.383 96.4893 235.525 107.199 234.592C107.199 234.592 107.897 242.868 94.7432 244.383Z" fill="#FCBE42"/>
<path d="M94.394 244.499C94.394 244.499 95.6739 235.525 85.896 230.978C85.896 230.978 82.4038 238.554 94.394 244.499Z" fill="#FCBE42"/>
<path d="M98.3517 223.519C98.3517 223.519 100.68 214.777 91.6 209.066C91.6 209.066 87.1765 216.06 98.3517 223.519Z" fill="#FCBE42"/>
</g>
<defs>
<clipPath id="clip0_3375_6172">
<rect width="445" height="305" fill="white"/>
</clipPath>
</defs>
</svg>
