<svg width="445" height="305" viewBox="0 0 445 305" fill="none" xmlns="http://www.w3.org/2000/svg">
<path d="M323.085 259.761C376.975 259.761 420.661 216.014 420.661 162.05C420.661 108.085 376.975 64.3387 323.085 64.3387C269.196 64.3387 225.509 108.085 225.509 162.05C225.509 216.014 269.196 259.761 323.085 259.761Z" stroke="#0054A3" stroke-miterlimit="10" stroke-dasharray="6 6"/>
<path d="M137.053 258.848C192.957 258.848 238.277 213.261 238.277 157.027C238.277 100.793 192.957 55.2068 137.053 55.2068C81.1489 55.2068 35.8296 100.793 35.8296 157.027C35.8296 213.261 81.1489 258.848 137.053 258.848Z" stroke="#0054A3" stroke-miterlimit="10" stroke-dasharray="6 6"/>
<path d="M41.2985 188.443C41.4674 177.914 33.0994 169.241 22.608 169.072C12.1166 168.903 3.47467 177.3 3.30574 187.829C3.13681 198.357 11.5048 207.03 21.9963 207.2C32.4877 207.37 41.1295 198.971 41.2985 188.443Z" fill="#003EB0"/>
<path d="M369.593 41.509C377.148 41.509 383.272 35.3759 383.272 27.8112C383.272 20.2458 377.148 14.1134 369.593 14.1134C362.039 14.1134 355.915 20.2458 355.915 27.8112C355.915 35.3759 362.039 41.509 369.593 41.509Z" fill="#FCBE42"/>
<path d="M15.6382 184.317L23.2375 195.767L28.9474 186.234" stroke="white" stroke-width="2" stroke-miterlimit="10"/>
<path d="M29.6165 248.275L24.9209 252.987L29.6165 257.699L34.3121 252.987L29.6165 248.275Z" fill="#EE384E"/>
<path d="M314.532 79.6161L307.808 86.3643L314.532 93.1124L321.256 86.3643L314.532 79.6161Z" fill="#003EB0"/>
<path d="M428.847 230.539L423.397 236.008L428.847 241.476L434.297 236.008L428.847 230.539Z" fill="#003EB0"/>
<path d="M417.307 62.5123H360.803C359.118 62.5123 357.739 63.8964 357.739 65.5865V88.0905C357.739 89.7807 359.118 91.1647 360.803 91.1647H420.37V65.5865C420.37 63.8831 418.992 62.5123 417.307 62.5123Z" fill="#D9F3FF"/>
<path d="M371.424 85.6549C375.994 85.6549 379.698 81.937 379.698 77.3506C379.698 72.7644 375.994 69.0464 371.424 69.0464C366.854 69.0464 363.149 72.7644 363.149 77.3506C363.149 81.937 366.854 85.6549 371.424 85.6549Z" fill="#0064B7"/>
<mask id="mask0_3375_3645" style="mask-type:alpha" maskUnits="userSpaceOnUse" x="363" y="69" width="17" height="17">
<path d="M371.424 85.6549C375.994 85.6549 379.698 81.937 379.698 77.3506C379.698 72.7644 375.994 69.0464 371.424 69.0464C366.854 69.0464 363.149 72.7644 363.149 77.3506C363.149 81.937 366.854 85.6549 371.424 85.6549Z" fill="#0064B7"/>
</mask>
<g mask="url(#mask0_3375_3645)">
<path d="M370.654 79.227C370.654 79.227 370.654 80.305 370.191 80.7574C369.726 81.21 369.117 81.9818 369.117 81.9818C369.117 81.9818 370.191 83.672 372.326 83.4457C374.46 83.2194 374.845 81.6757 374.845 81.6757C374.845 81.6757 372.83 81.4095 372.604 79.4932C372.379 77.5768 372.074 77.5768 372.074 77.5768L370.654 79.227Z" fill="#FFBF99"/>
<path d="M369.382 81.1967C369.382 81.1967 367.91 81.0104 367.141 81.2233C366.358 81.4363 366.106 81.3032 366.318 81.902C366.53 82.5142 367.604 85.3089 367.101 87.0523C366.597 88.7956 365.92 97.792 365.92 97.792C365.92 97.792 371.331 98.0048 373.439 98.1112C375.548 98.2178 377.113 97.8186 377.113 97.8186C377.113 97.8186 377.577 93.9459 377.113 92.2824C376.648 90.5922 376.039 87.7443 376.039 87.7443C376.039 87.7443 375.641 83.8051 376.171 82.8469C376.701 81.902 377.099 81.8488 376.41 81.5826C375.734 81.3431 374.99 81.1169 374.448 81.1169C373.916 81.1169 373.625 81.1169 373.307 81.4363C372.988 81.7557 372.339 82.4078 371.463 82.2613C370.575 82.1283 369.886 81.5161 369.886 81.5161C369.886 81.5161 369.62 81.2366 369.382 81.1967Z" fill="#1B3A62"/>
<path d="M366.796 81.5029C366.796 81.5029 366.292 81.2634 365.536 81.9022C364.727 82.5942 364.144 84.0847 363.852 85.0162C363.56 85.9478 363.388 86.8794 363.388 86.8794C363.388 86.8794 364.423 87.4117 365.497 87.4516C366.571 87.4782 367.287 87.5581 367.287 87.5581C367.287 87.5581 367.75 84.7634 367.645 83.5124C367.539 82.2615 367.353 81.8356 366.796 81.5029Z" fill="#021E34"/>
<path d="M375.787 82.5409C375.787 82.5409 376.211 81.3564 377.18 81.9021C378.147 82.4344 378.864 84.4838 379.075 85.1226C379.288 85.7615 379.58 87.0523 379.58 87.0523C379.58 87.0523 378.44 87.558 377.471 87.6246C376.503 87.7044 375.841 87.7576 375.841 87.7576C375.841 87.7576 375.443 85.2158 375.522 84.2177C375.575 83.2329 375.787 82.5409 375.787 82.5409Z" fill="#021E34"/>
<path d="M371.503 78.2156H370.217C370.217 78.2156 370.324 79.2536 371.503 79.2536C372.684 79.2536 372.79 78.2156 372.79 78.2156H371.503Z" fill="white"/>
<path d="M375.044 76.0864C375.137 76.3526 374.686 77.0712 374.514 77.324C374.593 76.9248 374.673 76.3792 374.726 75.7271C374.726 75.7271 374.951 75.8468 375.044 76.0864Z" fill="#FFBF99"/>
<path d="M374.806 72.8126C374.7 70.4836 371.584 70.4437 371.584 70.4437C371.584 70.4437 368.467 70.4703 368.361 72.8126C368.322 73.8506 368.361 74.8886 368.441 75.7403C368.506 76.3791 368.573 76.9381 368.652 77.3373C368.692 77.6035 368.745 77.7765 368.785 77.8963C368.852 78.0826 368.984 78.2955 369.157 78.5217C369.488 79.0009 369.978 79.4932 370.324 79.7062C370.602 79.8791 371.252 79.999 371.584 79.9856C371.888 79.999 372.512 79.8791 372.803 79.7195C372.816 79.7195 372.816 79.7062 372.83 79.7062C373.161 79.5065 373.652 79.0009 373.997 78.5217C374.169 78.2955 374.302 78.0559 374.368 77.8963C374.408 77.7898 374.461 77.6035 374.5 77.3373C374.581 76.9381 374.66 76.3924 374.713 75.7403C374.819 74.862 374.846 73.8373 374.806 72.8126Z" fill="#FFBF99"/>
<path d="M373.791 70.7859L374.44 71.22C374.962 71.5693 375.484 73.3151 374.962 73.8389C374.898 73.9039 374.79 73.9362 374.65 73.9423C372.414 74.039 368.177 75.0374 368.177 72.7913C368.177 72.1844 368.543 71.7241 368.876 71.45C369.089 71.2749 369.32 71.1203 369.514 70.925C369.996 70.4432 370.647 70.1724 371.326 70.1724H371.772C372.492 70.1724 373.194 70.3859 373.791 70.7859Z" fill="#915F41"/>
<path d="M368.441 75.7271C368.506 76.3659 368.573 76.9248 368.652 77.324C368.467 77.0845 368.029 76.3393 368.122 76.0864C368.215 75.8468 368.441 75.7271 368.441 75.7271Z" fill="#FFBF99"/>
<path d="M371.623 75.0618C371.703 75.0618 371.888 75.0618 371.942 75.0751C372.1 75.0751 372.061 74.9552 372.154 74.8355C372.273 74.6759 372.551 74.7158 372.724 74.7158C372.963 74.7025 373.201 74.6892 373.44 74.6892C373.612 74.6892 374.116 74.6626 374.156 74.6759C374.169 74.6759 374.368 74.7823 374.434 74.8754C374.461 74.9153 374.474 74.9687 374.5 75.0086C374.527 75.1815 374.488 75.3812 374.474 75.5142C374.448 75.7272 374.408 75.9401 374.262 76.0732C374.223 76.0998 374.156 76.1131 374.102 76.1131C374.023 76.1264 373.732 76.1264 373.665 76.1397C373.426 76.153 373.175 76.1663 372.935 76.153C372.658 76.1397 372.339 76.1663 372.233 75.7405C372.207 75.634 372.167 75.2613 372.126 75.2214C372.035 75.1283 371.768 75.115 371.663 75.115C371.61 75.0751 371.61 75.1017 371.623 75.0618ZM372.405 75.98C372.472 76.0199 372.71 76.0599 372.71 76.0599C372.777 76.0599 373.586 76.0732 373.917 76.0199C373.983 76.0066 374.09 75.98 374.13 75.9401C374.235 75.8602 374.328 75.1549 374.249 75.0485C374.209 74.982 374.076 74.8887 374.037 74.8488C373.851 74.6892 372.379 74.769 372.326 74.8488C372.246 74.9419 372.247 75.0219 372.247 75.1283C372.339 75.0618 372.379 75.1549 372.405 75.2613C372.405 75.3279 372.432 75.5674 372.326 75.461C372.312 75.4477 372.3 75.3945 372.26 75.4344C372.219 75.4743 372.233 75.6207 372.233 75.6606C372.3 75.8868 372.393 75.9667 372.405 75.98Z" fill="#6B4732"/>
<path d="M371.61 75.0618C371.53 75.0618 371.345 75.0618 371.291 75.0751C371.133 75.0751 371.172 74.9552 371.079 74.8355C370.96 74.6759 370.682 74.7158 370.51 74.7158C370.27 74.7025 370.031 74.6892 369.793 74.6892C369.62 74.6892 369.117 74.6626 369.077 74.6759C369.064 74.6759 368.864 74.7823 368.799 74.8754C368.772 74.9153 368.759 74.9687 368.732 75.0086C368.706 75.1815 368.745 75.3812 368.759 75.5142C368.785 75.7272 368.825 75.9401 368.971 76.0732C369.011 76.0998 369.077 76.1131 369.13 76.1131C369.21 76.1264 369.501 76.1264 369.568 76.1397C369.806 76.153 370.059 76.1663 370.297 76.153C370.575 76.1397 370.894 76.1663 371 75.7405C371.026 75.634 371.066 75.2613 371.106 75.2214C371.198 75.1283 371.464 75.115 371.57 75.115C371.61 75.0751 371.623 75.1017 371.61 75.0618ZM370.828 75.98C370.761 76.0199 370.522 76.0599 370.522 76.0599C370.456 76.0599 369.647 76.0732 369.315 76.0199C369.25 76.0066 369.143 75.98 369.103 75.9401C368.997 75.8602 368.904 75.1549 368.984 75.0485C369.024 74.982 369.157 74.8887 369.196 74.8488C369.382 74.6892 370.854 74.769 370.907 74.8488C370.987 74.9419 370.987 75.0219 370.987 75.1283C370.894 75.0618 370.854 75.1549 370.828 75.2613C370.828 75.3279 370.801 75.5674 370.907 75.461C370.92 75.4477 370.933 75.3945 370.973 75.4344C371.013 75.4743 371 75.6207 371 75.6606C370.92 75.8868 370.84 75.9667 370.828 75.98Z" fill="#6B4732"/>
</g>
<path d="M413.474 72.6001H384.061C383.636 72.6001 383.292 72.2674 383.292 71.8282V69.8054C383.292 69.3795 383.624 69.0335 384.061 69.0335H413.474C413.899 69.0335 414.244 69.3662 414.244 69.8054V71.8282C414.23 72.2541 413.886 72.6001 413.474 72.6001Z" fill="#0064B7"/>
<path d="M413.474 78.4154H384.061C383.636 78.4154 383.292 78.0827 383.292 77.6435V75.6207C383.292 75.1948 383.624 74.8488 384.061 74.8488H413.474C413.899 74.8488 414.244 75.1815 414.244 75.6207V77.6435C414.23 78.0694 413.886 78.4154 413.474 78.4154Z" fill="#0064B7"/>
<path d="M413.474 84.2178H384.061C383.636 84.2178 383.292 83.8851 383.292 83.4459V81.4231C383.292 80.9972 383.624 80.6512 384.061 80.6512H413.474C413.899 80.6512 414.244 80.9839 414.244 81.4231V83.4459C414.23 83.8851 413.886 84.2178 413.474 84.2178Z" fill="#0064B7"/>
<path d="M229.637 57.6173H174.075C172.418 57.6173 171.062 58.9783 171.062 60.6402V82.7691C171.062 84.4311 172.418 85.7921 174.075 85.7921H232.65V60.6402C232.65 58.9652 231.294 57.6173 229.637 57.6173Z" fill="#D9F3FF"/>
<path d="M184.519 80.3744C189.013 80.3744 192.656 76.7185 192.656 72.2086C192.656 67.6987 189.013 64.0426 184.519 64.0426C180.025 64.0426 176.382 67.6987 176.382 72.2086C176.382 76.7185 180.025 80.3744 184.519 80.3744Z" fill="#0064B7"/>
<mask id="mask1_3375_3645" style="mask-type:alpha" maskUnits="userSpaceOnUse" x="176" y="64" width="17" height="17">
<path d="M184.519 80.3744C189.013 80.3744 192.656 76.7185 192.656 72.2086C192.656 67.6987 189.013 64.0426 184.519 64.0426C180.025 64.0426 176.382 67.6987 176.382 72.2086C176.382 76.7185 180.025 80.3744 184.519 80.3744Z" fill="#3B00B7"/>
</mask>
<g mask="url(#mask1_3375_3645)">
<path d="M183.763 74.0536C183.763 74.0536 183.763 75.1136 183.306 75.5586C182.85 76.0035 182.25 76.7624 182.25 76.7624C182.25 76.7624 183.306 78.4244 185.406 78.202C187.506 77.9795 187.884 76.4615 187.884 76.4615C187.884 76.4615 185.901 76.1998 185.68 74.3153C185.458 72.4309 185.158 72.4309 185.158 72.4309L183.763 74.0536Z" fill="#FFDEC6"/>
<path d="M182.511 75.9904C182.511 75.9904 181.063 75.8072 180.307 76.0166C179.538 76.2259 179.29 76.095 179.498 76.684C179.707 77.2859 180.763 80.034 180.268 81.7483C179.773 83.4626 179.108 92.309 179.108 92.309C179.108 92.309 184.427 92.5183 186.501 92.6231C188.575 92.7277 190.113 92.3352 190.113 92.3352C190.113 92.3352 190.57 88.5271 190.113 86.8913C189.657 85.2293 189.057 82.4288 189.057 82.4288C189.057 82.4288 188.666 78.5552 189.187 77.6131C189.709 76.684 190.1 76.6316 189.422 76.3698C188.757 76.1343 188.027 75.9118 187.492 75.9118C186.97 75.9118 186.683 75.9118 186.371 76.2259C186.058 76.5399 185.419 77.1813 184.558 77.0373C183.684 76.9064 183.007 76.3044 183.007 76.3044C183.007 76.3044 182.746 76.0297 182.511 75.9904Z" fill="#1B3A62"/>
<path d="M179.968 76.2915C179.968 76.2915 179.472 76.0559 178.729 76.684C177.933 77.3645 177.36 78.8301 177.073 79.7462C176.786 80.6622 176.617 81.5783 176.617 81.5783C176.617 81.5783 177.634 82.1018 178.69 82.141C179.747 82.1672 180.45 82.2457 180.45 82.2457C180.45 82.2457 180.907 79.4975 180.803 78.2675C180.699 77.0373 180.516 76.6186 179.968 76.2915Z" fill="#021E34"/>
<path d="M188.809 77.3122C188.809 77.3122 189.227 76.1475 190.178 76.6841C191.13 77.2076 191.835 79.2228 192.043 79.851C192.252 80.4791 192.539 81.7484 192.539 81.7484C192.539 81.7484 191.417 82.2457 190.465 82.3112C189.513 82.3897 188.862 82.442 188.862 82.442C188.862 82.442 188.47 79.9425 188.548 78.9611C188.601 77.9927 188.809 77.3122 188.809 77.3122Z" fill="#021E34"/>
<path d="M184.598 73.0591H183.333C183.333 73.0591 183.437 74.0797 184.598 74.0797C185.758 74.0797 185.862 73.0591 185.862 73.0591H184.598Z" fill="white"/>
<path d="M188.079 70.9652C188.17 71.2269 187.727 71.9336 187.557 72.1823C187.635 71.7896 187.713 71.2531 187.765 70.6118C187.765 70.6118 187.988 70.7296 188.079 70.9652Z" fill="#FFDEC6"/>
<path d="M187.844 67.7461C187.74 65.456 184.676 65.4167 184.676 65.4167C184.676 65.4167 181.611 65.4429 181.507 67.7461C181.468 68.7668 181.507 69.7875 181.585 70.625C181.65 71.2532 181.716 71.8028 181.794 72.1955C181.833 72.4571 181.885 72.6273 181.924 72.745C181.989 72.9282 182.12 73.1376 182.29 73.3601C182.615 73.8312 183.098 74.3154 183.437 74.5248C183.71 74.695 184.349 74.8127 184.676 74.7996C184.976 74.8127 185.588 74.695 185.875 74.5378C185.888 74.5378 185.888 74.5248 185.901 74.5248C186.227 74.3285 186.709 73.8312 187.049 73.3601C187.219 73.1376 187.349 72.902 187.414 72.745C187.453 72.6404 187.505 72.4571 187.545 72.1955C187.623 71.8028 187.701 71.2663 187.753 70.625C187.858 69.7613 187.884 68.7538 187.844 67.7461Z" fill="#FFDEC6"/>
<path d="M181.585 70.6118C181.651 71.24 181.715 71.7896 181.794 72.1823C181.611 71.9467 181.181 71.2138 181.272 70.9652C181.364 70.7296 181.585 70.6118 181.585 70.6118Z" fill="#FFDEC6"/>
<path d="M184.714 69.9576C184.793 69.9576 184.975 69.9576 185.028 69.9707C185.184 69.9707 185.144 69.853 185.236 69.7352C185.353 69.5782 185.627 69.6174 185.797 69.6174C186.032 69.6044 186.267 69.5913 186.5 69.5913C186.671 69.5913 187.166 69.5651 187.205 69.5782C187.219 69.5782 187.414 69.6829 187.479 69.7744C187.505 69.8137 187.518 69.8661 187.544 69.9054C187.57 70.0755 187.531 70.2717 187.518 70.4026C187.492 70.612 187.452 70.8214 187.309 70.9522C187.27 70.9784 187.205 70.9915 187.153 70.9915C187.075 71.0046 186.788 71.0046 186.723 71.0177C186.488 71.0308 186.241 71.0439 186.006 71.0308C185.731 71.0177 185.419 71.0439 185.315 70.625C185.289 70.5204 185.249 70.154 185.21 70.1147C185.118 70.0231 184.857 70.01 184.754 70.01C184.702 69.9707 184.702 69.9969 184.714 69.9576ZM185.484 70.8606C185.549 70.8999 185.783 70.9391 185.783 70.9391C185.849 70.9391 186.645 70.9522 186.97 70.8999C187.036 70.8868 187.14 70.8606 187.179 70.8214C187.283 70.7429 187.374 70.0493 187.297 69.9445C187.257 69.8792 187.127 69.7875 187.088 69.7483C186.905 69.5913 185.458 69.6698 185.405 69.7483C185.327 69.8399 185.327 69.9185 185.327 70.0231C185.419 69.9576 185.458 70.0493 185.484 70.1539C185.484 70.2194 185.51 70.4549 185.405 70.3503C185.393 70.3372 185.379 70.2848 185.341 70.3241C185.301 70.3634 185.315 70.5073 185.315 70.5466C185.379 70.769 185.471 70.8475 185.484 70.8606Z" fill="#ECECEC"/>
<path d="M184.702 69.9576C184.624 69.9576 184.441 69.9576 184.389 69.9707C184.232 69.9707 184.271 69.853 184.18 69.7352C184.062 69.5782 183.789 69.6174 183.62 69.6174C183.385 69.6044 183.15 69.5913 182.915 69.5913C182.746 69.5913 182.25 69.5651 182.211 69.5782C182.198 69.5782 182.003 69.6829 181.937 69.7744C181.911 69.8137 181.898 69.8661 181.872 69.9054C181.846 70.0755 181.885 70.2717 181.898 70.4026C181.924 70.612 181.963 70.8214 182.107 70.9522C182.146 70.9784 182.211 70.9915 182.264 70.9915C182.342 71.0046 182.628 71.0046 182.694 71.0177C182.929 71.0308 183.176 71.0439 183.411 71.0308C183.684 71.0177 183.997 71.0439 184.102 70.625C184.128 70.5204 184.167 70.154 184.206 70.1147C184.297 70.0231 184.558 70.01 184.662 70.01C184.702 69.9707 184.715 69.9969 184.702 69.9576ZM183.933 70.8606C183.867 70.8999 183.632 70.9391 183.632 70.9391C183.567 70.9391 182.772 70.9522 182.445 70.8999C182.38 70.8868 182.276 70.8606 182.237 70.8214C182.133 70.7429 182.041 70.0493 182.12 69.9445C182.159 69.8792 182.29 69.7875 182.328 69.7483C182.511 69.5913 183.959 69.6698 184.011 69.7483C184.088 69.8399 184.088 69.9185 184.088 70.0231C183.997 69.9576 183.959 70.0493 183.933 70.1539C183.933 70.2194 183.907 70.4549 184.011 70.3503C184.024 70.3372 184.037 70.2848 184.076 70.3241C184.114 70.3634 184.102 70.5073 184.102 70.5466C184.024 70.769 183.945 70.8475 183.933 70.8606Z" fill="#ECECEC"/>
</g>
<path d="M225.869 67.5367H196.947C196.529 67.5367 196.19 67.2096 196.19 66.7778V64.7886C196.19 64.3699 196.517 64.0297 196.947 64.0297H225.869C226.287 64.0297 226.626 64.3568 226.626 64.7886V66.7778C226.612 67.1966 226.273 67.5367 225.869 67.5367Z" fill="#0064B7"/>
<path d="M225.869 73.2555H196.947C196.529 73.2555 196.19 72.9282 196.19 72.4964V70.5073C196.19 70.0886 196.517 69.7484 196.947 69.7484H225.869C226.287 69.7484 226.626 70.0755 226.626 70.5073V72.4964C226.612 72.9153 226.273 73.2555 225.869 73.2555Z" fill="#0064B7"/>
<path d="M225.869 78.9611H196.947C196.529 78.9611 196.19 78.6339 196.19 78.202V76.2129C196.19 75.7942 196.517 75.4539 196.947 75.4539H225.869C226.287 75.4539 226.626 75.7811 226.626 76.2129V78.202C226.612 78.6339 226.273 78.9611 225.869 78.9611Z" fill="#0064B7"/>
<path d="M147.115 241.991H80.714C78.735 241.991 77.1143 243.617 77.1143 245.603V272.048C77.1143 274.034 78.735 275.661 80.714 275.661H150.714V245.603C150.714 243.602 149.094 241.991 147.115 241.991Z" fill="#D9F3FF"/>
<path d="M93.1962 269.187C98.5665 269.187 102.92 264.817 102.92 259.428C102.92 254.038 98.5665 249.669 93.1962 249.669C87.8257 249.669 83.4722 254.038 83.4722 259.428C83.4722 264.817 87.8257 269.187 93.1962 269.187Z" fill="#0064B7"/>
<mask id="mask2_3375_3645" style="mask-type:alpha" maskUnits="userSpaceOnUse" x="83" y="249" width="20" height="21">
<path d="M93.1962 269.187C98.5665 269.187 102.92 264.817 102.92 259.428C102.92 254.038 98.5665 249.669 93.1962 249.669C87.8257 249.669 83.4722 254.038 83.4722 259.428C83.4722 264.817 87.8257 269.187 93.1962 269.187Z" fill="#0064B7"/>
</mask>
<g mask="url(#mask2_3375_3645)">
<path d="M92.292 261.633C92.292 261.633 92.292 262.899 91.7466 263.431C91.2012 263.962 90.4844 264.87 90.4844 264.87C90.4844 264.87 91.7466 266.856 94.2555 266.59C96.7645 266.325 97.2163 264.51 97.2163 264.51C97.2163 264.51 94.8477 264.197 94.5828 261.946C94.3179 259.694 93.9594 259.694 93.9594 259.694L92.292 261.633Z" fill="#FFBF99"/>
<path d="M90.7958 263.947C90.7958 263.947 89.066 263.728 88.1622 263.978C87.2428 264.229 86.9467 264.072 87.1961 264.776C87.4453 265.495 88.7076 268.779 88.1155 270.828C87.5233 272.877 86.7285 283.448 86.7285 283.448C86.7285 283.448 93.0865 283.699 95.5643 283.824C98.042 283.949 99.8809 283.48 99.8809 283.48C99.8809 283.48 100.426 278.929 99.8809 276.974C99.3354 274.988 98.6186 271.641 98.6186 271.641C98.6186 271.641 98.1511 267.012 98.7744 265.887C99.3978 264.776 99.8652 264.714 99.0548 264.4C98.2602 264.12 97.3875 263.853 96.7486 263.853C96.1253 263.853 95.7825 263.853 95.4084 264.229C95.0344 264.604 94.2708 265.37 93.2423 265.199C92.1982 265.041 91.3879 264.323 91.3879 264.323C91.3879 264.323 91.0763 263.994 90.7958 263.947Z" fill="#1B3A62"/>
<path d="M87.7573 264.307C87.7573 264.307 87.1652 264.025 86.2769 264.776C85.3264 265.589 84.6407 267.341 84.2979 268.436C83.9551 269.53 83.7524 270.625 83.7524 270.625C83.7524 270.625 84.9679 271.25 86.2303 271.298C87.4925 271.329 88.334 271.422 88.334 271.422C88.334 271.422 88.8794 268.138 88.7547 266.668C88.63 265.199 88.4118 264.698 87.7573 264.307Z" fill="#021E34"/>
<path d="M98.323 265.526C98.323 265.526 98.8216 264.135 99.9592 264.776C101.097 265.402 101.938 267.81 102.188 268.56C102.437 269.311 102.78 270.828 102.78 270.828C102.78 270.828 101.44 271.422 100.302 271.501C99.1645 271.595 98.3853 271.657 98.3853 271.657C98.3853 271.657 97.9179 268.67 98.0114 267.497C98.0737 266.34 98.323 265.526 98.323 265.526Z" fill="#021E34"/>
<path d="M93.2893 260.444H91.7778C91.7778 260.444 91.9025 261.664 93.2893 261.664C94.6763 261.664 94.801 260.444 94.801 260.444H93.2893Z" fill="white"/>
<path d="M97.4499 257.942C97.559 258.254 97.0293 259.099 96.8267 259.396C96.9202 258.927 97.0136 258.286 97.0759 257.52C97.0759 257.52 97.3409 257.66 97.4499 257.942Z" fill="#FFBF99"/>
<path d="M97.1695 254.094C97.0448 251.358 93.3827 251.311 93.3827 251.311C93.3827 251.311 89.7206 251.342 89.596 254.094C89.5492 255.315 89.596 256.534 89.6895 257.536C89.7674 258.286 89.8454 258.942 89.9388 259.412C89.9856 259.725 90.0479 259.928 90.0946 260.069C90.1725 260.288 90.3284 260.538 90.531 260.804C90.9205 261.367 91.4972 261.946 91.9023 262.195C92.2295 262.399 92.9931 262.54 93.3827 262.524C93.7412 262.54 94.4735 262.399 94.8163 262.211C94.832 262.211 94.832 262.195 94.8475 262.195C95.2371 261.962 95.8137 261.367 96.2189 260.804C96.4215 260.538 96.5773 260.256 96.6552 260.069C96.702 259.944 96.7643 259.725 96.811 259.412C96.9046 258.942 96.998 258.301 97.0603 257.536C97.1851 256.503 97.2162 255.299 97.1695 254.094Z" fill="#FFBF99"/>
<path d="M89.6898 257.52C89.7678 258.27 89.8456 258.927 89.9392 259.396C89.721 259.114 89.2067 258.239 89.3158 257.942C89.4249 257.66 89.6898 257.52 89.6898 257.52Z" fill="#FFBF99"/>
<path d="M95.5021 261.757L95.5177 261.773C95.2683 262.039 95.019 262.274 94.8008 262.398C94.4891 262.587 93.8502 262.978 93.5074 262.962H93.3672C93.0243 262.978 92.3854 262.587 92.0738 262.398C91.8556 262.274 91.6062 262.039 91.3569 261.773L91.3725 261.757C91.7933 261.727 91.6062 261.179 91.7153 260.944C91.8244 260.725 92.1673 260.678 92.3699 260.569C92.5256 260.475 92.6815 260.444 92.8373 260.366C93.0243 260.272 93.1801 260.272 93.3516 260.272H93.4918C93.6944 260.272 93.8346 260.272 94.006 260.366C94.1619 260.444 94.3177 260.475 94.4736 260.569C94.6761 260.678 95.019 260.725 95.1281 260.944C95.2683 261.179 95.0813 261.711 95.5021 261.757ZM94.8164 261.508C95.0501 261.116 94.7853 261.085 94.458 260.992C94.2087 260.897 93.7256 260.678 93.4763 260.663H93.4295C93.1801 260.663 92.697 260.897 92.4478 260.992C92.1361 261.1 91.8556 261.132 92.0893 261.508C92.2139 261.727 92.5412 262.102 92.8218 262.071C93.149 262.039 93.2892 261.617 93.4295 261.414H93.4763C93.6165 261.617 93.7568 262.023 94.084 262.071C94.3645 262.102 94.6761 261.711 94.8164 261.508Z" fill="#915F41"/>
<path d="M93.4296 256.737C93.523 256.737 93.7412 256.737 93.8035 256.753C93.9906 256.753 93.9438 256.613 94.0529 256.472C94.1932 256.285 94.5203 256.331 94.723 256.331C95.0034 256.315 95.284 256.299 95.5645 256.299C95.767 256.299 96.3592 256.269 96.406 256.285C96.4215 256.285 96.6553 256.409 96.7332 256.518C96.7644 256.566 96.78 256.628 96.8111 256.676C96.8423 256.879 96.7955 257.113 96.78 257.27C96.7488 257.52 96.702 257.77 96.5306 257.926C96.4838 257.958 96.406 257.973 96.3437 257.973C96.2501 257.989 95.9073 257.989 95.8294 258.005C95.549 258.021 95.2528 258.036 94.9723 258.021C94.6451 258.005 94.2711 258.036 94.1464 257.536C94.1152 257.41 94.0685 256.972 94.0218 256.926C93.9127 256.816 93.601 256.8 93.4764 256.8C93.4139 256.753 93.4139 256.785 93.4296 256.737ZM94.3489 257.817C94.4269 257.864 94.7074 257.911 94.7074 257.911C94.7854 257.911 95.7359 257.926 96.1255 257.864C96.2035 257.848 96.328 257.817 96.3748 257.77C96.4995 257.676 96.6086 256.847 96.5151 256.723C96.4683 256.644 96.3125 256.534 96.2658 256.488C96.0476 256.299 94.3178 256.394 94.2555 256.488C94.162 256.597 94.162 256.691 94.162 256.816C94.2711 256.737 94.3178 256.847 94.3489 256.972C94.3489 257.051 94.3802 257.332 94.2555 257.207C94.2399 257.191 94.2243 257.129 94.1776 257.175C94.1309 257.222 94.1464 257.394 94.1464 257.441C94.2243 257.707 94.3334 257.802 94.3489 257.817Z" fill="#6B4732"/>
<path d="M93.4141 256.737C93.3205 256.737 93.1024 256.737 93.04 256.753C92.853 256.753 92.8998 256.613 92.7907 256.472C92.6505 256.285 92.3232 256.331 92.1206 256.331C91.8401 256.315 91.5596 256.299 91.2792 256.299C91.0765 256.299 90.4844 256.269 90.4376 256.285C90.422 256.285 90.1883 256.409 90.1104 256.518C90.0792 256.566 90.0637 256.628 90.0325 256.676C90.0013 256.879 90.048 257.113 90.0636 257.27C90.0948 257.52 90.1416 257.77 90.313 257.926C90.3597 257.958 90.4376 257.973 90.4999 257.973C90.5935 257.989 90.9364 257.989 91.0142 258.005C91.2947 258.021 91.5908 258.036 91.8713 258.021C92.1986 258.005 92.5725 258.036 92.6972 257.536C92.7284 257.41 92.7751 256.972 92.8219 256.926C92.931 256.816 93.2426 256.8 93.3673 256.8C93.4141 256.753 93.4296 256.785 93.4141 256.737ZM92.4946 257.817C92.4167 257.864 92.1362 257.911 92.1362 257.911C92.0583 257.911 91.1078 257.926 90.7182 257.864C90.6402 257.848 90.5156 257.817 90.4688 257.77C90.3442 257.676 90.2351 256.847 90.3285 256.723C90.3753 256.644 90.5311 256.534 90.5779 256.488C90.7961 256.299 92.5257 256.394 92.5882 256.488C92.6816 256.597 92.6816 256.691 92.6816 256.816C92.5725 256.737 92.5257 256.847 92.4946 256.972C92.4946 257.051 92.4634 257.332 92.5882 257.207C92.6037 257.191 92.6193 257.129 92.666 257.175C92.7128 257.222 92.6972 257.394 92.6972 257.441C92.6037 257.707 92.5102 257.802 92.4946 257.817Z" fill="#6B4732"/>
</g>
<path d="M142.612 253.845H108.047C107.548 253.845 107.144 253.454 107.144 252.938V250.561C107.144 250.06 107.533 249.654 108.047 249.654H142.612C143.109 249.654 143.515 250.044 143.515 250.561V252.938C143.499 253.439 143.094 253.845 142.612 253.845Z" fill="#0064B7"/>
<path d="M142.612 260.678H108.047C107.548 260.678 107.144 260.288 107.144 259.772V257.394C107.144 256.894 107.533 256.488 108.047 256.488H142.612C143.109 256.488 143.515 256.879 143.515 257.394V259.772C143.499 260.272 143.094 260.678 142.612 260.678Z" fill="#0064B7"/>
<path d="M142.612 267.497H108.047C107.548 267.497 107.144 267.106 107.144 266.59V264.213C107.144 263.713 107.533 263.306 108.047 263.306H142.612C143.109 263.306 143.515 263.697 143.515 264.213V266.59C143.499 267.106 143.094 267.497 142.612 267.497Z" fill="#0064B7"/>
<path d="M112.969 55.2068H37.8126C35.7194 55.2068 34.0054 56.9269 34.0054 59.0275V89.2464C34.0054 91.347 35.7194 93.0671 37.8126 93.0671H116.776V59.0275C116.776 56.9269 115.079 55.2068 112.969 55.2068Z" fill="#D9F3FF"/>
<path d="M52.1026 85.8063C58.1376 85.8063 63.0299 80.8967 63.0299 74.8402C63.0299 68.7838 58.1376 63.8741 52.1026 63.8741C46.0677 63.8741 41.1753 68.7838 41.1753 74.8402C41.1753 80.8967 46.0677 85.8063 52.1026 85.8063Z" fill="#0064B7"/>
<mask id="mask3_3375_3645" style="mask-type:alpha" maskUnits="userSpaceOnUse" x="41" y="63" width="23" height="23">
<path d="M52.1025 85.8063C58.1375 85.8063 63.0299 80.8967 63.0299 74.8402C63.0299 68.7838 58.1375 63.8741 52.1025 63.8741C46.0676 63.8741 41.1753 68.7838 41.1753 74.8402C41.1753 80.8967 46.0676 85.8063 52.1025 85.8063Z" fill="#0064B7"/>
</mask>
<g mask="url(#mask3_3375_3645)">
<path d="M51.0811 77.2882C51.0811 77.2882 51.0811 78.6941 50.4713 79.3061C49.8615 79.9181 49.0703 80.927 49.0703 80.927C49.0703 80.927 50.4713 83.1599 53.3061 82.8457C56.1409 82.5479 56.6354 80.5136 56.6354 80.5136C56.6354 80.5136 53.9489 80.1496 53.6522 77.6356C53.3556 75.1049 52.9436 75.1049 52.9436 75.1049L51.0811 77.2882Z" fill="#FFB07E"/>
<path d="M49.4003 79.9345C49.4003 79.9345 47.4554 79.703 46.4335 79.9676C45.4117 80.2322 45.0655 80.0668 45.3457 80.8607C45.626 81.6547 47.0434 85.3596 46.3842 87.6753C45.7248 90.0075 44.8184 101.867 44.8184 101.867C44.8184 101.867 51.9878 102.148 54.7568 102.28C57.5257 102.413 59.6024 101.9 59.6024 101.9C59.6024 101.9 60.2122 96.7889 59.6024 94.5725C58.9925 92.3396 58.2014 88.5684 58.2014 88.5684C58.2014 88.5684 57.6905 83.3583 58.3992 82.0847C59.1079 80.8111 59.6189 80.7615 58.7289 80.4307C57.8389 80.0999 56.8499 79.8187 56.1412 79.8187C55.4326 79.8187 55.0534 79.8187 54.6414 80.2322C54.2294 80.6458 53.3723 81.5058 52.1856 81.3239C51.0155 81.1253 50.109 80.3315 50.109 80.3315C50.109 80.3315 49.7133 79.9676 49.4003 79.9345Z" fill="#1B3A62"/>
<path d="M45.9717 80.3315C45.9717 80.3315 45.3124 80.0007 44.3236 80.8442C43.2523 81.7539 42.4776 83.7222 42.0986 84.9627C41.7195 86.1867 41.4888 87.4272 41.4888 87.4272C41.4888 87.4272 42.8567 88.1384 44.2576 88.1881C45.6586 88.2212 46.6145 88.3204 46.6145 88.3204C46.6145 88.3204 47.2244 84.6319 47.0925 82.9779C46.9607 81.3239 46.7299 80.745 45.9717 80.3315Z" fill="#00AEEF"/>
<path d="M57.8549 81.7042C57.8549 81.7042 58.4318 80.1329 59.7009 80.8442C60.9699 81.5554 61.9259 84.2514 62.1896 85.095C62.4533 85.9385 62.8489 87.6422 62.8489 87.6422C62.8489 87.6422 61.3491 88.3037 60.0799 88.403C58.8108 88.5022 57.9208 88.6014 57.9208 88.6014C57.9208 88.6014 57.4099 85.2438 57.5088 83.9041C57.5748 82.5974 57.8549 81.7042 57.8549 81.7042Z" fill="#00AEEF"/>
<path d="M56.9647 72.6238C56.9647 72.6238 57.2614 72.7727 57.4097 73.12C57.5416 73.484 56.9153 74.4763 56.6846 74.8237" fill="#FFB07E"/>
<path d="M57.0805 68.6045C56.9322 65.3957 52.6469 65.3461 52.6469 65.3461C52.6469 65.3461 48.3453 65.3792 48.2134 68.6045C48.164 70.027 48.2134 71.4494 48.3288 72.6238C48.4112 73.5169 48.5266 74.2778 48.6255 74.8236C48.7078 75.1875 48.7573 75.4356 48.8233 75.5844C48.9221 75.8325 49.0869 76.1303 49.3176 76.461C49.7956 77.1061 50.4549 77.8008 50.9164 78.082C51.2954 78.3136 52.2019 78.479 52.6469 78.4624C53.0919 78.479 53.9984 78.3136 54.3775 78.082C54.8555 77.8008 55.5147 77.1061 55.9762 76.461C56.207 76.1303 56.3883 75.8325 56.4707 75.5844C56.5202 75.4356 56.586 75.171 56.6685 74.8236C56.7674 74.2778 56.8827 73.5004 56.9652 72.6238C57.0805 71.4328 57.13 70.027 57.0805 68.6045Z" fill="#FFB07E"/>
<path d="M48.3123 72.6238C48.3946 73.517 48.51 74.2778 48.6089 74.8237C48.3617 74.4763 47.7518 73.4674 47.8837 73.12C48.0156 72.7727 48.3123 72.6238 48.3123 72.6238Z" fill="#FFB07E"/>
<path d="M49.5814 67.9759L49.4826 68.0917C49.4826 68.8856 49.4496 69.3819 49.0211 70.0601C48.6914 70.5728 48.23 71.2675 48.3288 71.9125C48.2464 71.5156 48.2959 71.1186 48.0486 70.7713C47.785 70.3743 47.6861 70.1096 47.719 69.5638C47.7685 68.9684 47.7685 68.2737 48.0981 67.7279C48.2464 67.4798 48.5101 67.3309 48.6255 67.0993C48.675 66.967 48.642 66.719 48.7409 66.5204C49.3671 65.3461 51.4604 65.3791 52.6141 65.3461C52.6141 65.3461 56.9157 65.3792 57.0477 68.6045C57.13 70.1758 57.0312 71.6975 56.9157 72.9545C56.8663 72.541 56.5202 72.2102 56.3059 71.8298C56.0752 71.3667 55.9763 70.9367 55.6137 70.5397C55.1522 70.0104 54.2952 69.7624 53.6359 69.5473C52.2349 69.1173 50.7022 68.8856 49.5814 67.9759Z" fill="#915F41"/>
<path d="M51.5264 67.7114C51.79 67.9099 52.0208 68.1084 52.2515 68.34C52.4822 68.555 52.713 68.8031 52.9437 68.9851C53.191 69.1835 53.4712 69.3159 53.7679 69.4316C53.9162 69.4812 54.0645 69.5474 54.2129 69.597C54.3612 69.6466 54.493 69.7294 54.6249 69.8286C54.3447 69.6797 54.0315 69.5805 53.7514 69.4812C53.603 69.4316 53.4547 69.3654 53.3064 69.3158C53.158 69.2331 53.0262 69.1669 52.9108 69.0512C52.6636 68.8362 52.4494 68.6046 52.2186 68.3896C51.9879 68.1415 51.7736 67.9265 51.5264 67.7114Z" fill="#BB8B6C"/>
<path d="M53.751 68.2572C53.7675 68.3895 53.8333 68.5218 53.8993 68.6376C53.9817 68.7534 54.0476 68.8692 54.13 68.985C54.2948 69.2 54.4926 69.4315 54.674 69.6135C54.8718 69.812 55.086 69.9774 55.3168 70.1428C55.4321 70.2255 55.5475 70.3081 55.6463 70.4074C55.7453 70.5066 55.8441 70.6224 55.9101 70.7383C55.8276 70.6224 55.7123 70.5232 55.6298 70.4404C55.5145 70.3412 55.3991 70.2751 55.2838 70.1924C55.053 70.0435 54.8058 69.8947 54.6245 69.6797C54.4432 69.4646 54.2455 69.2661 54.0971 69.0346C54.0147 68.9188 53.9488 68.803 53.8828 68.6707C53.8005 68.5218 53.7675 68.3895 53.751 68.2572Z" fill="#BB8B6C"/>
</g>
<path d="M107.728 68.5546H68.7157C68.1883 68.5546 67.7598 68.141 67.7598 67.5952V64.7999C67.7598 64.2707 68.1718 63.8406 68.7157 63.8406H107.711C108.239 63.8406 108.667 64.2541 108.667 64.7999V67.5952C108.684 68.1246 108.239 68.5546 107.728 68.5546Z" fill="#0064B7"/>
<path d="M107.728 76.2458H68.7157C68.1883 76.2458 67.7598 75.8323 67.7598 75.2864V72.4912C67.7598 71.9619 68.1718 71.5318 68.7157 71.5318H107.711C108.239 71.5318 108.667 71.9453 108.667 72.4912V75.2864C108.684 75.7992 108.239 76.2458 107.728 76.2458Z" fill="#0064B7"/>
<path d="M107.728 83.937H68.7157C68.1883 83.937 67.7598 83.5235 67.7598 82.9776V80.1824C67.7598 79.6532 68.1718 79.223 68.7157 79.223H107.711C108.239 79.223 108.667 79.6366 108.667 80.1824V82.9776C108.684 83.4904 108.239 83.937 107.728 83.937Z" fill="#0064B7"/>
<path d="M405.594 232.125H333.7C332.668 232.125 331.816 232.98 331.816 234.015V264.839C331.816 265.875 332.668 266.729 333.7 266.729H407.493V234.015C407.478 232.98 406.643 232.125 405.594 232.125Z" fill="#D9F3FF"/>
<path d="M348.337 260.091C353.862 260.091 358.341 255.597 358.341 250.052C358.341 244.507 353.862 240.012 348.337 240.012C342.812 240.012 338.333 244.507 338.333 250.052C338.333 255.597 342.812 260.091 348.337 260.091Z" fill="#0064B7"/>
<mask id="mask4_3375_3645" style="mask-type:alpha" maskUnits="userSpaceOnUse" x="338" y="240" width="21" height="21">
<path d="M348.337 260.091C353.862 260.091 358.341 255.597 358.341 250.052C358.341 244.507 353.862 240.012 348.337 240.012C342.812 240.012 338.333 244.507 338.333 250.052C338.333 255.597 342.812 260.091 348.337 260.091Z" fill="#0064B7"/>
</mask>
<g mask="url(#mask4_3375_3645)">
<path d="M352.659 251.53C352.201 249.789 352.856 249.148 353.036 246.781L348.485 246.634L343.932 246.781C344.129 249.148 344.768 249.789 344.309 251.53C343.655 254.11 341.836 257.512 348.485 257.512C355.132 257.512 353.331 254.11 352.659 251.53Z" fill="#4B2C61"/>
<path d="M347.42 252.319C347.42 252.319 347.42 253.601 346.881 254.176C346.34 254.718 345.603 255.654 345.603 255.654C345.603 255.654 346.881 257.676 349.467 257.413C352.054 257.15 352.512 255.293 352.512 255.293C352.512 255.293 350.073 254.964 349.795 252.664C349.516 250.364 349.156 250.347 349.156 250.347L347.42 252.319Z" fill="#F8E1CC"/>
<path d="M345.865 254.718C345.865 254.718 344.097 254.504 343.147 254.751C342.198 255.013 341.902 254.85 342.164 255.572C342.426 256.312 343.72 259.68 343.114 261.8C342.509 263.92 341.706 274.781 341.706 274.781C341.706 274.781 348.255 275.044 350.81 275.175C353.364 275.307 355.247 274.83 355.247 274.83C355.247 274.83 355.82 270.163 355.247 268.126C354.674 266.105 353.969 262.637 353.969 262.637C353.969 262.637 353.494 257.889 354.133 256.706C354.772 255.539 355.247 255.49 354.429 255.194C353.609 254.899 352.709 254.619 352.054 254.619C351.399 254.619 351.072 254.619 350.679 255.013C350.286 255.408 349.516 256.18 348.436 256C347.354 255.835 346.553 255.096 346.553 255.096C346.553 255.096 346.176 254.767 345.865 254.718Z" fill="#CCB4AA"/>
<path d="M342.754 255.096C342.754 255.096 342.149 254.8 341.248 255.573C340.266 256.411 339.561 258.201 339.234 259.335C338.89 260.452 338.661 261.587 338.661 261.587C338.661 261.587 339.905 262.227 341.215 262.293C342.492 262.325 343.36 262.425 343.36 262.425C343.36 262.425 343.933 259.056 343.802 257.544C343.671 256.016 343.442 255.474 342.754 255.096Z" fill="#355D75"/>
<path d="M353.609 256.345C353.609 256.345 354.117 254.931 355.296 255.572C356.458 256.214 357.31 258.677 357.572 259.451C357.834 260.223 358.177 261.784 358.177 261.784C358.177 261.784 356.802 262.391 355.624 262.49C354.461 262.588 353.643 262.654 353.643 262.654C353.643 262.654 353.168 259.582 353.249 258.365C353.332 257.15 353.609 256.345 353.609 256.345Z" fill="#355D75"/>
<path d="M345.194 248.639C345.194 248.639 344.834 248.277 344.621 248.359C344.424 248.441 344.261 248.868 344.408 249.312C344.555 249.755 344.702 250.101 344.85 250.2C344.981 250.298 345.456 250.364 345.456 250.33C345.472 250.281 345.194 248.639 345.194 248.639Z" fill="#F8E1CC"/>
<path d="M351.89 248.639C351.89 248.639 352.267 248.277 352.463 248.359C352.659 248.441 352.823 248.868 352.676 249.312C352.529 249.755 352.382 250.101 352.234 250.2C352.086 250.298 351.628 250.364 351.628 250.33C351.611 250.281 351.89 248.639 351.89 248.639Z" fill="#F8E1CC"/>
<path d="M351.972 245.68C351.35 243.79 349.598 243.347 348.551 243.347C347.503 243.347 345.734 243.79 345.112 245.68C344.49 247.57 345.341 250.281 345.898 251.251C346.471 252.22 347.715 253.189 348.534 253.189C349.369 253.189 350.613 252.237 351.17 251.251C351.743 250.298 352.594 247.587 351.972 245.68Z" fill="#F8E1CC"/>
<path d="M345.03 248.868C345.03 248.868 345.357 247.044 346.176 246.009C346.176 246.009 346.667 247.406 348.108 247.981C348.108 247.981 348.108 247.241 347.944 246.7C347.944 246.7 349.09 247.801 350.466 248.03C350.466 248.03 350.384 247.422 350.171 246.995C350.171 246.995 351.481 247.964 352.037 248.851C352.037 248.851 353.151 247.932 353.069 246.091C352.971 244.251 351.35 242.082 348.762 242.016C346.176 241.967 344.981 243.972 344.981 243.972C344.981 243.972 344.031 244.579 343.949 245.862C343.834 247.127 344.179 247.964 345.03 248.868Z" fill="#4B2C61"/>
</g>
<path d="M399.143 244.333H363.629C363.106 244.333 362.68 243.922 362.68 243.38V240.981C362.68 240.455 363.089 240.029 363.629 240.029H399.143C399.667 240.029 400.093 240.439 400.093 240.981V243.38C400.093 243.89 399.651 244.333 399.143 244.333Z" fill="#0064B7"/>
<path d="M399.143 251.365H363.629C363.106 251.365 362.68 250.955 362.68 250.413V248.014C362.68 247.488 363.089 247.061 363.629 247.061H399.143C399.667 247.061 400.093 247.472 400.093 248.014V250.413C400.093 250.922 399.651 251.365 399.143 251.365Z" fill="#0064B7"/>
<path d="M399.143 258.382H363.629C363.106 258.382 362.68 257.971 362.68 257.429V255.03C362.68 254.504 363.089 254.077 363.629 254.077H399.143C399.667 254.077 400.093 254.488 400.093 255.03V257.429C400.093 257.955 399.651 258.382 399.143 258.382Z" fill="#0064B7"/>
<path d="M277.799 117.91L274.625 121.096L277.799 124.282L280.974 121.096L277.799 117.91Z" fill="#003EB0"/>
<path d="M341.166 251.365L337.992 254.551L341.166 257.737L344.34 254.551L341.166 251.365Z" fill="#003EB0"/>
<path d="M310.689 201.698C310.689 201.698 313.984 192.688 321.485 194.854C328.988 197.022 332.169 208.37 327.055 212.99C321.94 217.61 316.939 215.841 317.508 221.089C318.076 226.335 317.394 241.22 309.95 241.22C302.506 241.22 300.005 233.464 292.39 239.965C284.775 246.466 287.844 263.347 273.58 259.127C259.26 254.964 237.096 241.505 254.77 224.111C272.444 206.717 274.66 229.7 284.377 213.275C294.095 196.851 297.277 206.374 303.471 207.23C309.666 208.029 310.689 201.698 310.689 201.698Z" fill="#EE384E"/>
<path d="M306.824 217.495C306.824 217.495 283.525 227.532 266.249 243.045C248.973 258.556 247.553 264.431 247.553 264.431" fill="#EE384E"/>
<path d="M214.093 228.096C214.093 228.096 193.236 193.65 170.789 177.112" stroke="#FCBE42" stroke-width="0.544397" stroke-miterlimit="10"/>
<path d="M155.275 169.013C155.275 169.013 160.22 180.362 173.12 178.879C173.12 178.879 170.392 168.329 155.275 169.013Z" stroke="#FCBE42" stroke-width="0.544397" stroke-miterlimit="10"/>
<path d="M189.714 195.019C189.714 195.019 180.848 187.832 169.54 195.589C169.54 195.589 175.45 204.315 189.714 195.019Z" stroke="#FCBE42" stroke-width="0.544397" stroke-miterlimit="10"/>
<path d="M206.193 216.233C206.193 216.233 198.863 207.451 186.304 212.812C186.304 212.812 190.339 222.507 206.193 216.233Z" stroke="#FCBE42" stroke-width="0.544397" stroke-miterlimit="10"/>
<path d="M206.648 216.062C206.648 216.062 199.886 206.824 208.069 195.817C208.069 195.817 216.535 202.147 206.648 216.062Z" stroke="#FCBE42" stroke-width="0.544397" stroke-miterlimit="10"/>
<path d="M189.543 195.019C189.543 195.019 181.701 186.749 188.407 174.773C188.407 174.773 197.612 179.963 189.543 195.019Z" stroke="#FCBE42" stroke-width="0.544397" stroke-miterlimit="10"/>
<path d="M307.791 184.874C307.791 184.874 299.21 184.361 302.335 190.463C305.46 196.566 305.29 200.557 298.812 202.668C292.334 204.778 289.776 208.884 290.685 212.819C291.595 216.754 294.436 223.654 285.458 226.05C276.478 228.445 259.43 234.433 255.623 224.909C251.815 215.386 258.464 201.071 265.227 199.189C271.989 197.364 277.501 200.044 280.115 192.688C282.673 185.331 275.342 183.847 280.684 177.575C286.026 171.302 290.913 164.458 300.914 169.933C309.95 174.894 312.564 183.962 307.791 184.874Z" stroke="#FCBE42" stroke-width="0.544397" stroke-miterlimit="10"/>
<path d="M297.959 182.878C297.959 182.878 264.147 222.058 257.896 234.033" stroke="#FCBE42" stroke-width="0.544397" stroke-miterlimit="10"/>
<path d="M284.548 214.987L271.079 215.442L267.215 204.72" stroke="#FCBE42" stroke-width="0.544397" stroke-miterlimit="10"/>
<path d="M298.357 195.083L288.583 193.942L284.264 185.387" stroke="#FCBE42" stroke-width="0.544397" stroke-miterlimit="10"/>
<path d="M156.81 198.612C156.81 198.612 153.514 189.601 146.013 191.768C138.512 193.935 135.329 205.284 140.444 209.904C145.558 214.522 150.559 212.755 149.991 218.001C149.422 223.248 150.104 238.133 157.549 238.133C164.994 238.133 167.494 230.376 175.109 236.879C182.724 243.38 179.655 260.26 193.919 256.04C208.183 251.82 230.402 238.418 212.729 221.024C195.055 203.63 192.839 226.612 183.121 210.189C173.404 193.764 170.221 203.288 164.027 204.143C157.777 204.941 156.81 198.612 156.81 198.612Z" fill="#EE384E"/>
<path d="M160.674 214.408C160.674 214.408 183.974 224.446 201.249 239.957C218.525 255.47 219.946 261.344 219.946 261.344" stroke="white" stroke-width="0.544397" stroke-miterlimit="10" stroke-linecap="round" stroke-linejoin="round"/>
<path d="M265.916 208.049L282.339 233.143C282.339 233.143 285.579 238.218 290.125 236.793C295.239 235.196 327.289 222.706 330.7 221.166C334.109 219.627 341.099 216.319 342.235 211.472C343.372 206.624 339.792 204.799 339.792 204.799C339.792 204.799 338.655 203.944 337.689 205.597C336.666 207.195 334.45 211.643 334.45 211.643C334.45 211.643 332.802 213.411 333.2 211.073C333.597 208.735 334.053 206.282 332.12 208.392C330.188 210.502 329.619 214.266 323.312 216.319C317.004 218.372 293.704 224.417 293.704 224.417C293.704 224.417 291.318 225.557 289.216 222.991C287.112 220.425 277.225 201.32 277.225 201.32L265.916 208.049Z" fill="#FDC09B"/>
<path d="M204.599 207.251L188.289 232.059C188.289 232.059 185.05 237.078 180.504 235.652C175.389 234.112 143.566 221.737 140.156 220.197C136.747 218.657 129.813 215.407 128.678 210.56C127.541 205.769 131.064 203.944 131.064 203.944C131.064 203.944 132.201 203.145 133.166 204.685C134.189 206.282 136.405 210.673 136.405 210.673C136.405 210.673 138.054 212.441 137.656 210.103C137.258 207.765 136.86 205.37 138.735 207.48C140.611 209.589 141.179 213.297 147.487 215.35C153.795 217.402 176.924 223.391 176.924 223.391C176.924 223.391 179.254 224.531 181.413 221.965C183.516 219.455 193.347 200.522 193.347 200.522L204.599 207.251Z" fill="#FDC09B"/>
<path d="M205.798 145.935C205.798 145.935 209.259 144.975 208.633 137.847C208.008 130.718 203.746 124.844 210.168 121.195C216.532 117.544 218.636 116.232 221.59 113.21C224.545 110.188 226.307 107.792 236.48 108.762C236.48 108.762 244.549 102.203 251.709 108.077C258.869 113.952 256.653 129.236 258.188 131.63C259.779 134.026 269.439 143.55 270.462 151.705C271.542 159.86 266.087 164.878 258.188 164.479C250.289 164.08 239.661 164.479 239.661 164.479L214.671 160.077C214.671 160.077 206.651 155.573 205.798 145.935Z" fill="#180857"/>
<path d="M228.978 154.841C228.978 154.841 229.149 162.826 227.387 165.449C225.682 168.072 222.443 169.042 222.443 169.042C222.443 169.042 225.91 180.048 231.592 179.821C237.275 179.592 243.526 176.113 245.799 174.802C248.072 173.49 247.504 169.726 247.504 169.726C247.504 169.726 243.583 168.642 241.935 163.795C240.287 158.948 240.344 151.762 240.344 151.762L228.978 154.841Z" fill="#FFB07E"/>
<path d="M273.304 265.763C273.304 265.763 281.203 266.162 286.885 266.162C292.568 266.162 301.66 267.361 301.66 267.361C301.66 267.361 304.048 267.361 304.218 270.269C304.388 273.177 304.388 274.375 304.388 274.375C304.388 274.375 304.558 277.911 301.83 277.911C299.103 277.911 281.543 279.85 277.622 279.85C273.701 279.85 270.746 280.648 270.746 277.911C270.746 275.174 270.576 265.535 273.304 265.763Z" fill="#160758"/>
<path d="M236.252 253.103L207.383 243.751" stroke="#B70B28" stroke-width="0.136099" stroke-miterlimit="10"/>
<path d="M180.731 235.424C180.731 235.424 254.437 258.35 270.575 263.996C270.575 263.996 275.918 265.364 276.088 268.101C276.258 270.839 275.69 274.774 275.122 276.713C274.553 278.653 272.735 280.249 269.78 279.622C266.825 279.052 200.848 265.935 174.651 259.091L167.149 256.753C167.149 256.753 161.637 254.187 162.603 247.571C163.569 240.898 168.514 235.024 172.037 234.625C175.617 234.226 180.731 235.424 180.731 235.424Z" fill="#003EB0"/>
<path d="M174.025 267.931C174.025 267.931 183.289 266.391 188.801 266.162C194.313 265.992 201.587 265.364 202.781 266.162C203.974 266.961 204.94 277.512 204.94 277.512C204.94 277.512 205.906 280.42 198.632 279.85C191.359 279.279 174.594 278.653 174.594 278.653C174.594 278.653 170.844 278.481 170.672 275.116C170.502 271.809 171.071 270.212 171.071 270.212C171.071 270.212 171.639 268.273 174.025 267.931Z" fill="#160758"/>
<path d="M217.953 258.52C217.953 258.52 262.676 245.005 278.645 240.328C294.614 235.652 303.479 231.318 308.594 238.788C313.708 246.202 313.31 254.471 307.4 256.81C301.49 259.148 255.005 269.926 235.684 273.862C216.362 277.797 203.746 280.306 201.985 279.565C200.223 278.767 198.235 273.12 198.632 269.984C199.03 266.847 199.2 265.649 202.951 264.11C206.701 262.398 217.953 258.52 217.953 258.52Z" fill="#0064E1"/>
<path d="M257.96 237.363H212.725L207.383 243.751L236.479 252.932L262.734 245.062L257.96 237.363Z" fill="#0064B7"/>
<path d="M278.702 201.32L268.247 180.276C268.247 180.276 261.938 166.133 246.14 167.673L249.38 175.201L265.689 209.419L278.702 201.32Z" fill="#F79F03"/>
<path d="M191.869 200.636L202.269 179.763C202.269 179.763 208.519 165.791 224.261 167.33L221.022 174.744L204.769 208.62L191.869 200.636Z" fill="#F79F03"/>
<path d="M234.774 161.286C242.056 161.286 247.958 151.303 247.958 138.987C247.958 126.672 242.056 116.689 234.774 116.689C227.493 116.689 221.59 126.672 221.59 138.987C221.59 151.303 227.493 161.286 234.774 161.286Z" fill="#FFBE9B"/>
<path d="M222.499 136.307C222.499 136.307 217.499 135.793 216.76 138.816C216.078 141.839 218.351 144.576 222.499 145.204C226.648 145.831 222.499 136.307 222.499 136.307Z" fill="#FFBE9B"/>
<path d="M212.725 237.363H257.96C257.96 237.363 258.925 197.67 257.221 186.892C256.084 179.706 253.754 172.52 249.152 168.756C249.152 168.756 247.787 167.445 246.197 167.73C245.685 167.844 245.116 168.129 244.548 168.756C242.446 171.152 238.979 175.429 233.013 174.688C227.102 174.003 225.738 169.099 225.738 169.099C225.738 169.099 224.205 165.563 221.42 168.301C218.578 171.038 211.133 174.003 211.133 196.587L212.725 237.363Z" fill="#FCBE42"/>
<path d="M236.463 132.039C244.516 128.904 249.723 122.944 248.093 118.728C246.463 114.511 238.614 113.635 230.561 116.77C222.508 119.905 217.301 125.864 218.931 130.081C220.561 134.297 228.41 135.174 236.463 132.039Z" fill="#180857"/>
<path d="M255.739 18.6793L251.043 23.3913L255.739 28.1033L260.435 23.3913L255.739 18.6793Z" fill="#EE384E"/>
</svg>
