<svg width="370" height="251" viewBox="0 0 370 251" fill="none" xmlns="http://www.w3.org/2000/svg">
<path d="M223.248 58.1719C223.248 58.1719 222.649 33.9091 230.592 33.8003C238.589 33.6915 237.065 47.4005 237.065 47.4005C237.065 47.4005 239.84 21.5058 247.565 22.3762C254.963 23.1922 251.754 33.4195 251.754 33.4195C251.754 33.4195 262.253 6.98074 272.045 18.8401C281.892 30.6995 259.098 40.274 259.098 40.274C259.098 40.274 269.706 36.4116 271.284 44.4085C272.861 52.4598 248.218 56.9207 248.218 56.9207C248.218 56.9207 262.144 53.711 261.763 62.0887C261.383 70.4665 222.704 73.7849 222.704 73.7849L223.248 58.1719Z" fill="#02752C"/>
<path d="M214.815 82.1087L214.38 81.5647C227.762 70.1405 265.136 25.8583 265.517 25.3687L266.061 25.8039C265.625 26.2935 228.252 70.6301 214.815 82.1087Z" fill="white"/>
<path d="M229.993 65.8431C232.06 57.1934 231.136 43.1036 231.136 42.9404L231.843 42.886C231.843 43.0492 232.713 57.2478 230.646 66.0063L229.993 65.8431Z" fill="white"/>
<path d="M245.44 48.7068C246.855 43.9195 247.181 31.7338 247.181 31.5706H247.888C247.888 32.0602 247.562 43.9739 246.093 48.87L245.44 48.7068Z" fill="white"/>
<path d="M230.589 66.4957L230.317 65.8429C238.64 62.4156 252.785 61.0556 252.948 61.0012L253.002 61.7084C252.839 61.7628 238.804 63.1229 230.589 66.4957Z" fill="white"/>
<path d="M245.767 49.1966L245.44 48.5438C250.01 46.3678 261.706 44.1374 262.25 44.0286L262.359 44.7358C262.25 44.7902 250.282 47.075 245.767 49.1966Z" fill="white"/>
<path d="M120.623 85.6963C116.587 80.1979 113.487 73.9976 111.264 67.5048C108.924 60.8366 107.52 53.8758 106.643 46.8566C106.175 42.7621 105.824 38.726 105.648 34.573C105.648 34.105 104.83 34.0465 104.888 34.5145C105.18 41.8262 105.941 49.1964 107.403 56.3911C108.807 63.2348 110.971 69.9616 114.013 76.2204C115.709 79.6715 117.698 83.0056 119.979 86.1643C120.33 86.5737 120.915 86.0473 120.623 85.6963Z" fill="#02752C"/>
<path d="M113.603 74.2324C113.603 74.2324 99.2139 57.7372 95.2364 62.0658C91.2003 66.3943 106.877 75.2268 113.603 74.2324Z" fill="#02752C"/>
<path d="M109.744 64.2299C109.744 64.2299 99.3904 47.5008 95.2374 50.7764C91.0259 54.0521 103.66 64.2299 109.744 64.2299Z" fill="#02752C"/>
<path d="M107.577 53.7593C107.577 53.7593 98.5106 39.1359 94.8255 41.9436C91.1989 44.8098 102.254 53.7008 107.577 53.7593Z" fill="#02752C"/>
<path d="M105.706 43.874C105.706 43.874 100.559 30.128 97.0492 31.8828C93.5395 33.6961 101.261 42.9381 105.706 43.874Z" fill="#02752C"/>
<path d="M114.183 75.9867C114.183 75.9867 117.166 54.2856 122.898 55.748C128.631 57.1518 120.383 73.179 114.183 75.9867Z" fill="#02752C"/>
<path d="M110.44 65.867C110.44 65.867 112.955 46.3887 118.102 47.617C123.25 48.9039 115.938 63.3518 110.44 65.867Z" fill="#02752C"/>
<path d="M106.872 53.1159C106.872 53.1159 111.668 36.5622 115.997 38.317C120.267 40.1303 112.019 51.6536 106.872 53.1159Z" fill="#02752C"/>
<path d="M105.646 43.6402C105.646 43.6402 108.161 29.1923 111.963 30.3037C115.765 31.415 109.857 41.9439 105.646 43.6402Z" fill="#02752C"/>
<path d="M105.648 36.8549C105.648 36.8549 109.801 22.758 105.941 22.0561C102.08 21.4126 102.665 33.4623 105.648 36.8549Z" fill="#02752C"/>
<path d="M227.897 81.6613C234.156 79.497 240.824 78.4441 247.434 78.2102C254.278 77.9762 261.18 78.6781 267.907 79.9065C271.826 80.6084 275.687 81.5443 279.547 82.5387C280.015 82.6557 280.308 81.9537 279.84 81.8368C272.937 80.0235 265.918 78.5611 258.84 77.8592C252.114 77.2158 245.212 77.2158 238.543 78.2687C234.858 78.8536 231.173 79.731 227.605 80.9594C227.137 81.1348 227.429 81.7783 227.897 81.6613Z" fill="#FABC43"/>
<path d="M240.536 78.4438C240.536 78.4438 260.014 69.9037 257.148 64.9318C254.282 59.9598 241.531 71.8925 240.536 78.4438Z" fill="#FABC43"/>
<path d="M250.887 77.7419C250.887 77.7419 269.371 72.9455 267.558 68.149C265.745 63.3525 252.701 72.1265 250.887 77.7419Z" fill="#FABC43"/>
<path d="M261.24 78.7948C261.24 78.7948 277.443 74.5833 275.864 70.3718C274.285 66.1602 262.878 73.8229 261.24 78.7948Z" fill="#FABC43"/>
<path d="M270.949 79.9064C270.949 79.9064 285.163 79.146 284.578 75.344C283.934 71.5419 273.113 76.0459 270.949 79.9064Z" fill="#FABC43"/>
<path d="M238.72 78.502C238.72 78.502 257.964 87.51 254.981 92.4234C251.998 97.2784 239.539 85.0532 238.72 78.502Z" fill="#FABC43"/>
<path d="M249.193 77.9172C249.193 77.9172 266.566 85.9308 263.933 90.3179C261.243 94.7049 249.954 83.7666 249.193 77.9172Z" fill="#FABC43"/>
<path d="M262.062 78.3269C262.062 78.3269 276.042 87.5689 273.118 91.02C270.251 94.4711 261.945 83.4743 262.062 78.3269Z" fill="#FABC43"/>
<path d="M271.184 79.906C271.184 79.906 283.877 86.4573 281.771 89.6159C279.607 92.8331 271.593 84.293 271.184 79.906Z" fill="#FABC43"/>
<path d="M277.446 81.8949C277.446 81.8949 289.262 89.85 291.075 86.4574C292.889 83.0063 281.541 80.0816 277.446 81.8949Z" fill="#FABC43"/>
<path d="M229.015 163.41C256.633 135.793 256.633 91.0167 229.015 63.3996C201.398 35.7825 156.622 35.7826 129.005 63.3996C101.388 91.0167 101.388 135.793 129.005 163.41C156.622 191.027 201.398 191.027 229.015 163.41Z" fill="#92DEFF"/>
<path d="M229.015 163.41C256.633 135.793 256.633 91.0167 229.015 63.3996C201.398 35.7825 156.622 35.7826 129.005 63.3996C101.388 91.0167 101.388 135.793 129.005 163.41C156.622 191.027 201.398 191.027 229.015 163.41Z" fill="#023E9F"/>
<path d="M183.213 42.8213C194.327 52.5312 201.346 66.8036 201.346 82.7139C201.346 112.019 177.598 135.767 148.292 135.767C132.382 135.767 118.11 128.748 108.4 117.634C110.623 154.719 141.332 184.142 179.002 184.142C218.075 184.142 249.72 152.497 249.72 113.423C249.72 75.7531 220.298 44.9855 183.213 42.8213Z" fill="#023EA1"/>
<path d="M214.8 52.4141C221 62.9429 224.51 75.168 224.51 88.2121C224.51 127.286 192.865 158.931 153.791 158.931C140.747 158.931 128.463 155.363 117.993 149.221C130.277 170.103 152.972 184.141 179.002 184.141C218.075 184.141 249.72 152.496 249.72 113.423C249.72 87.3932 235.682 64.6977 214.8 52.4141Z" fill="#034B8B"/>
<path d="M248.256 127.754C241.413 124.478 235.037 121.612 238.196 118.278C242.875 113.247 244.279 121.787 249.192 121.963C249.543 119.155 249.719 116.289 249.719 113.423C249.719 86.6912 234.861 63.4107 212.985 51.4196C212.107 51.0686 211.23 50.7177 210.353 50.3667C201.462 54.0518 205.907 59.8426 208.305 60.954C215.617 64.3466 240.067 59.1992 222.812 71.0734C214.974 76.4548 204.62 75.9869 207.954 83.474C211.932 92.4235 217.547 90.7857 223.104 94.8218C228.72 98.9163 223.221 103.947 214.798 100.496C206.375 97.0445 199.414 95.2897 191.693 105.643C184.031 115.996 170.577 135.182 185.961 135.182C201.286 135.182 203.86 134.656 201.579 148.109C199.297 161.563 199.414 154.017 208.598 163.961C211.581 167.178 211.347 171.975 210.177 176.888C229.48 167.412 243.811 149.396 248.256 127.754Z" fill="#0181F7"/>
<path d="M167.418 148.285C167.418 148.285 170.811 144.892 157.299 137.756C143.787 130.561 148.466 131.029 140.394 133.545C132.38 136.06 130.275 136.937 121.384 127.637C112.551 118.336 124.776 119.623 134.486 120.033C144.196 120.442 131.094 108.626 142.5 103.128C153.906 97.6296 151.8 93.0086 151.8 93.0086C161.92 93.418 164.435 87.1007 158.527 82.4797C152.619 77.8588 153.438 76.5719 146.302 66.0431C139.107 55.5142 133.199 70.6641 126.882 75.3435C124.542 77.0398 122.846 75.1681 121.618 72.0679C113.195 83.7081 108.223 98.039 108.223 113.481C108.223 121.904 109.685 130.035 112.434 137.522C113.195 137.99 114.014 138.4 114.715 138.809C122.729 143.371 128.578 150.917 130.86 159.867C131.737 163.259 132.673 166.125 133.609 166.886C136.124 168.992 138.698 169.811 142.909 171.975C143.728 172.384 144.021 173.437 143.962 174.958C149.929 178.351 156.421 180.924 163.324 182.445C163.733 181.451 164.025 180.807 164.025 180.807C164.025 180.807 172.858 177.415 173.326 176.186C173.735 174.899 182.509 160.101 182.509 154.953C182.509 147.817 167.418 148.285 167.418 148.285Z" fill="#0181F7"/>
<path d="M190.17 43.5817C186.543 42.9968 182.741 42.7043 178.939 42.7043C171.452 42.7043 164.257 43.8742 157.531 46.0385C158.7 47.6178 159.578 49.4311 159.753 51.4199C160.514 59.8429 164.491 63.9375 174.084 61.2468C180.284 59.492 186.602 52.2388 190.17 43.5817Z" fill="#0181F7"/>
<path d="M201.871 146.77C201.871 146.77 199.707 127.175 182.569 125.595C182.569 125.595 184.733 135.071 191.109 139.283C197.484 143.494 200.234 143.962 201.871 146.77Z" fill="#64CF41"/>
<path d="M203.975 144.313C203.975 144.313 203.039 124.192 216.727 118.635C216.727 118.635 217.253 128.286 212.281 134.136C207.251 139.985 204.794 141.213 203.975 144.313Z" fill="#64CF41"/>
<path d="M203.977 156.305C203.86 156.305 203.802 156.188 203.802 156.13C203.158 141.916 189.88 131.562 189.763 131.445C189.705 131.387 189.646 131.27 189.705 131.153C189.763 131.095 189.88 131.036 189.997 131.095C190.114 131.212 203.568 141.623 204.211 156.071C204.211 156.188 204.153 156.305 203.977 156.305Z" fill="white"/>
<path d="M203.508 152.502C203.391 152.502 203.333 152.444 203.333 152.327C203.333 152.21 201.812 138.405 212.341 126.473C212.399 126.414 212.516 126.356 212.633 126.473C212.692 126.531 212.75 126.648 212.633 126.765C202.221 138.581 203.684 152.21 203.742 152.327C203.684 152.385 203.625 152.502 203.508 152.502Z" fill="white"/>
<path d="M234.977 153.081C235.035 153.081 235.093 153.023 235.152 153.023C235.035 153.198 234.977 153.256 234.977 153.256V153.081Z" fill="#5CADE5"/>
<path d="M138.907 105.447C138.907 104.745 137.328 104.16 135.398 104.16C133.467 104.16 131.888 104.745 131.888 105.447C131.888 106.149 133.467 106.734 135.398 106.734C137.328 106.734 138.907 106.149 138.907 105.447Z" fill="#1AAA8E"/>
<path d="M134.578 98.0187C134.578 98.0187 134.753 82.9274 121.885 80.1782C121.885 80.1782 122.645 87.5484 127.091 91.3505C131.536 95.1526 133.583 95.7375 134.578 98.0187Z" fill="#64CF41"/>
<path d="M136.394 96.381C136.394 96.381 137.564 81.0557 148.444 78.0725C148.444 78.0725 147.976 85.4427 143.647 89.4202C139.319 93.3978 137.271 94.0997 136.394 96.381Z" fill="#64CF41"/>
<path d="M135.281 105.447C135.223 105.447 135.164 105.389 135.164 105.272C135.983 94.3921 126.858 85.3841 126.799 85.2671C126.741 85.2086 126.741 85.0916 126.799 85.0331C126.858 84.9746 126.975 84.9746 127.033 85.0331C127.15 85.1501 136.334 94.2751 135.515 105.272C135.457 105.389 135.398 105.447 135.281 105.447Z" fill="white"/>
<path d="M135.222 102.523C135.164 102.523 135.105 102.465 135.105 102.348C135.105 102.231 135.222 91.6433 144.347 83.5712C144.406 83.5127 144.523 83.5127 144.581 83.5712C144.64 83.6297 144.64 83.7467 144.581 83.8052C135.573 91.8188 135.456 102.289 135.456 102.406C135.456 102.465 135.339 102.523 135.222 102.523C135.281 102.523 135.281 102.523 135.222 102.523Z" fill="white"/>
<path d="M176.544 52.8826C176.544 52.1806 174.965 51.5957 173.035 51.5957C171.104 51.5957 169.525 52.1806 169.525 52.8826C169.525 53.5845 171.104 54.1694 173.035 54.1694C174.965 54.1694 176.544 53.5845 176.544 52.8826Z" fill="#023E9F"/>
<path d="M172.33 46.565C172.33 46.565 172.447 33.9889 161.684 31.6492C161.684 31.6492 162.327 37.791 166.071 41.0081C169.814 44.2253 171.511 44.6932 172.33 46.565Z" fill="#64CF41"/>
<path d="M173.851 45.2196C173.851 45.2196 174.787 32.4095 183.912 29.8943C183.912 29.8943 183.503 36.0946 179.876 39.3702C176.25 42.7044 174.612 43.2893 173.851 45.2196Z" fill="#64CF41"/>
<path d="M172.914 52.8238C172.856 52.8238 172.797 52.7653 172.797 52.7068C173.499 43.6403 165.895 36.0946 165.778 35.9777C165.72 35.9192 165.72 35.8607 165.778 35.8022C165.836 35.7437 165.895 35.7437 165.953 35.8022C166.012 35.8607 173.733 43.5233 173.031 52.7068C173.09 52.7653 173.031 52.8238 172.914 52.8238Z" fill="white"/>
<path d="M172.915 50.3668C172.857 50.3668 172.798 50.3083 172.798 50.2498C172.798 50.1328 172.915 41.3003 180.519 34.5151C180.578 34.4566 180.636 34.4566 180.695 34.5151C180.753 34.5736 180.753 34.632 180.695 34.6905C173.208 41.4173 173.091 50.1328 173.091 50.1913C173.032 50.3083 172.974 50.3668 172.915 50.3668Z" fill="white"/>
<path d="M235.354 154.341C235.51 154.729 235.821 155.118 236.133 155.506C236.288 155.895 236.6 156.361 236.911 156.749C237.378 157.604 237.846 158.537 238.313 159.391C239.169 161.101 239.948 162.888 240.493 164.675L240.649 165.374C240.649 165.374 240.649 165.374 240.649 165.297V165.219C240.649 165.219 240.649 165.141 240.727 165.064C240.727 164.986 240.804 164.908 240.804 164.908C240.882 164.753 240.96 164.597 241.194 164.52C241.505 164.364 241.583 164.364 241.505 164.442C241.427 164.52 241.116 164.52 240.727 164.52C240.337 164.52 239.87 164.52 239.325 164.442C237.456 164.131 235.432 163.665 233.485 163.199L232.317 165.685C233.252 166.307 234.264 166.851 235.276 167.239C236.21 167.705 237.301 168.172 238.391 168.483C239.014 168.638 239.559 168.871 240.104 168.949C240.415 169.026 240.804 169.026 241.194 169.026C241.583 169.026 241.972 169.026 242.44 168.949C242.907 168.871 243.53 168.793 244.153 168.172C244.464 168.016 244.698 167.55 245.009 167.239C245.087 167.084 245.165 166.851 245.321 166.618C245.398 166.462 245.398 166.229 245.476 165.996V165.685V165.53C245.476 165.374 245.476 165.219 245.476 165.064C245.476 164.908 245.476 164.753 245.476 164.675V164.52V164.442L245.321 163.587C245.165 162.422 244.698 161.256 244.386 160.168C243.997 159.08 243.608 158.07 243.14 157.06C242.673 156.05 242.206 155.04 241.583 154.107C241.272 153.641 240.96 153.175 240.727 152.631C240.493 152.087 240.104 151.699 239.792 151.155L235.354 154.341Z" fill="#FFBE9D"/>
<path d="M234.264 154.885C234.653 155.74 234.965 156.594 235.354 157.372C235.977 158.77 236.6 159.858 237.067 160.79C237.456 161.567 237.768 161.956 237.768 161.956L244.776 158.459C244.776 158.459 241.973 150.301 239.014 149.446C235.899 148.591 232.707 151 234.264 154.885Z" fill="#F79F03"/>
<path d="M231.457 174.932C231.457 174.932 233.949 197.233 235.584 205.314C237.375 214.25 249.288 242.922 249.288 242.922L255.05 241.679C252.169 231.733 248.042 213.24 245.395 206.169C243.448 195.446 245.628 181.926 242.748 173.611L231.457 174.932Z" fill="#0054A3"/>
<path d="M225.539 175.632C225.539 175.632 223.982 199.409 223.748 208.034C223.514 217.047 225.772 243.777 225.772 243.777H231.301C231.301 243.777 233.637 218.99 232.547 206.946C233.948 197.777 236.985 174.233 236.985 174.233L225.539 175.632Z" fill="#0181F7"/>
<path d="M249.602 242.689L254.897 241.446C255.052 241.368 255.208 241.446 255.286 241.757L256.999 245.409C257.232 245.72 256.999 246.108 256.61 246.341H256.532C254.741 246.652 253.495 246.963 251.237 247.351C249.835 247.585 245.786 248.672 243.996 249.139C242.127 249.605 241.504 247.818 242.283 247.507C245.475 245.953 247.889 244.399 248.745 243.155C248.979 243.078 249.212 242.922 249.602 242.689Z" fill="#170856"/>
<path d="M225.852 243.854H231.302C231.536 243.854 231.614 243.932 231.614 244.243L232.392 248.128C232.392 248.517 232.237 248.827 231.847 248.905H231.769C229.979 248.827 228.733 248.827 226.397 248.75C224.995 248.672 220.713 248.827 218.922 248.75C217.131 248.672 216.819 246.885 217.676 246.729C221.18 246.03 223.827 245.098 224.995 244.088C225.307 243.932 225.618 243.854 225.852 243.854Z" fill="#170856"/>
<path d="M220.331 135.614C220.331 135.614 221.343 144.783 223.445 147.037C224.613 148.902 228.351 147.037 228.351 147.037L229.285 150.689L234.113 148.979L230.064 134.604L220.331 135.614Z" fill="#FFBE9D"/>
<path d="M233.646 145.328C233.256 146.027 232.4 146.338 231.621 146.338C230.453 146.26 229.285 145.561 228.351 145.172C228.117 145.095 227.962 144.939 227.806 144.861C227.261 144.551 226.171 144.162 226.015 143.23C226.015 142.686 226.326 142.297 226.404 141.753C226.482 141.287 226.249 140.743 225.781 140.665C225.003 140.355 224.38 141.132 224.536 141.753C224.613 141.986 224.691 142.297 224.536 142.375C224.302 142.453 224.146 142.297 223.991 142.142C223.757 141.676 223.601 141.132 223.445 140.588C223.368 140.044 223.056 139.5 222.511 139.189C222.2 138.956 221.81 139.034 221.421 139.034C221.187 139.034 221.11 139.034 220.954 139.034C219.864 139.034 218.851 138.334 218.54 137.247C218.229 136.159 218.929 135.149 218.929 135.149C218.929 135.149 218.774 133.517 220.642 133.206C222.745 132.973 222.978 133.672 225.626 132.584C227.494 131.807 229.597 133.517 229.597 133.517C231.232 133.051 232.011 134.061 232.011 134.061C232.867 134.605 233.179 135.77 233.334 136.78C233.49 137.868 233.334 138.878 233.49 139.888C233.568 140.899 233.801 141.831 233.957 142.763C234.113 143.774 234.113 144.784 233.646 145.638" fill="#170856"/>
<path d="M236.208 150.767C236.286 149.757 236.208 148.125 235.429 147.892C234.65 147.659 229.745 147.97 227.253 149.912C228.11 151.466 228.032 153.02 228.032 153.02L236.208 150.767Z" fill="#F79F03"/>
<path opacity="0.2" d="M237.064 153.953L240.723 160.247L240.412 160.48C240.412 160.48 239.01 159.081 237.375 157.138L237.064 153.953Z" fill="black"/>
<path d="M222.818 164.054C223.441 167.163 224.376 171.048 225.544 175.788L242.674 173.69C242.518 171.514 240.026 161.956 240.649 151.7C240.727 150.301 239.404 149.135 237.768 149.135C236.99 149.135 235.978 149.213 235.121 149.291C232.941 149.446 229.748 149.757 227.88 150.223C225.232 150.69 223.052 151.622 223.052 151.622C223.052 151.622 221.806 153.098 222.429 159.781C222.663 160.946 222.741 162.345 222.818 164.054Z" fill="#0083F9"/>
<path d="M222.818 164.054C223.441 167.163 224.376 171.048 225.544 175.788L242.674 173.69C242.518 171.514 240.026 161.956 240.649 151.7C240.727 150.301 239.404 149.135 237.768 149.135C236.99 149.135 235.978 149.213 235.121 149.291C232.941 149.446 229.748 149.757 227.88 150.223C225.232 150.69 223.052 151.622 223.052 151.622C223.052 151.622 221.806 153.098 222.429 159.781C222.663 160.946 222.741 162.345 222.818 164.054Z" fill="#FCBE42"/>
<path d="M221.494 154.342C221.338 154.653 221.105 155.041 220.793 155.508C220.482 155.896 220.171 156.285 219.937 156.751C219.314 157.528 218.769 158.383 218.068 159.237C216.822 160.791 215.421 162.345 214.019 163.744C213.63 164.055 213.318 164.366 212.929 164.599L212.851 164.754H212.773C212.851 164.754 212.929 164.754 212.929 164.677C213.085 164.677 213.318 164.677 213.318 164.677C213.396 164.754 213.163 164.677 212.851 164.521C212.54 164.366 212.15 164.055 211.917 163.744C210.515 162.501 209.27 160.714 208.024 159.082L205.61 160.247C205.999 161.413 206.389 162.423 206.856 163.433C207.011 163.977 207.323 164.521 207.634 164.987C207.946 165.454 208.257 166.075 208.569 166.541C208.88 167.008 209.347 167.474 209.97 168.095C210.282 168.251 210.593 168.562 210.905 168.872C211.294 169.028 211.683 169.339 212.306 169.494C212.929 169.65 213.552 169.65 214.253 169.494C214.642 169.416 214.954 169.339 215.187 169.106L215.265 169.028L215.577 168.717L215.732 168.639C216.277 168.251 216.822 167.94 217.29 167.552C219.236 165.997 220.871 164.366 222.351 162.579C223.129 161.724 223.83 160.791 224.453 159.859C224.842 159.393 225.154 158.927 225.387 158.383C225.699 157.916 226.01 157.45 226.322 156.673L221.494 154.342Z" fill="#FFBE9D"/>
<path d="M208.103 158.849L206.234 156.129L203.976 159.392C203.976 159.392 205.689 160.946 207.247 160.791L208.103 158.849Z" fill="#FFBE9D"/>
<path d="M202.652 154.808L202.107 157.916L203.976 159.393L206.234 156.129L202.652 154.808Z" fill="#FFBE9D"/>
<path d="M228.58 154.653C228.502 157.761 222.195 164.754 222.195 164.754L215.499 160.403C215.499 160.403 217.679 156.44 220.326 153.565C224.531 149.213 228.814 150.923 228.58 154.653Z" fill="#F79F03"/>
<path d="M110.115 132.313L102.879 192.495L97.7109 191.979L96.9644 130.748L110.115 132.313Z" fill="#EE384E"/>
<path d="M102.229 132.313L115.81 192.495L120.993 191.979L117.432 130.748L102.229 132.313Z" fill="#DE051F"/>
<path d="M112.024 87.8291C112.024 87.8291 113.56 89.7888 113.639 93.2846C113.711 96.7804 113.273 99.2784 111.78 99.3071C110.287 99.3358 107.272 98.4027 106.748 97.4192C106.224 96.4358 105.233 96.4502 105.183 94.4618C105.14 92.4663 107.53 87.9224 109.526 87.8793C111.529 87.8506 112.024 87.8291 112.024 87.8291Z" fill="#FFBE9B"/>
<path d="M105.94 94.699C105.94 94.699 105.495 97.197 104.547 99.7166C103.607 102.229 103.133 103.241 103.133 103.241C103.133 103.241 106.206 106.665 109.185 106.105C112.164 105.545 112.12 103.55 112.12 103.55C112.12 103.55 109.328 101.368 109.264 98.3742C109.199 95.3881 109.199 95.3881 109.199 95.3881L105.94 94.699Z" fill="#FEBE9A"/>
<path d="M113.52 87.8007C113.52 87.8007 114.927 83.7808 113.915 83.3071C112.903 82.8261 110.936 83.867 110.448 84.3838C109.96 84.8935 108.969 84.915 108.46 84.9222C108.46 84.9222 103.478 85.0298 102.502 86.0492C101.525 87.0685 101.532 87.5638 101.547 88.0662C101.554 88.5615 101.597 90.514 101.123 91.5692C100.915 92.0215 100.678 94.0673 101.719 96.0485C102.76 98.0153 103.772 98.4963 104.267 98.4891C104.763 98.4819 105.222 98.4676 105.251 97.9651C105.294 97.4267 105.473 96.6658 105.703 95.9623C105.926 95.2948 106.155 93.9596 106.155 93.9596C106.155 93.9596 106.6 91.4616 107.569 90.4351C108.538 89.4086 108.546 89.4158 110.527 88.8702C112.515 88.3175 113.054 89.3081 113.52 87.8007Z" fill="#160C56"/>
<path d="M106.872 91.5914C107.633 92.4241 106.664 93.9387 106.664 93.9387C106.664 93.9387 105.185 94.4699 105.15 92.9696C105.121 91.4765 106.119 90.7515 106.872 91.5914Z" fill="#FFBE9B"/>
<path d="M119.858 108.891L124.388 115.028C124.388 115.028 124.711 115.351 125.034 115.028C125.357 114.705 130.848 107.914 131.171 106.945C131.494 105.976 131.171 105.007 132.14 103.385C133.11 101.763 134.079 101.116 134.079 101.116C134.079 101.116 135.048 100.47 134.725 101.439C134.402 102.409 134.079 103.378 134.725 103.708C135.371 104.038 140.539 105 140.539 105C140.539 105 135.363 106.615 134.064 108.56C132.772 110.498 129.212 116.966 127.589 118.581C125.974 120.196 124.352 121.173 123.383 120.196C122.414 119.227 115.946 112.76 115.946 112.76L119.858 108.891Z" fill="#FFBE9B"/>
<path d="M97.7174 195.913C97.7174 195.913 97.4303 196.724 99.11 196.717C100.79 196.702 109.913 196.623 109.913 196.623C109.913 196.623 111.665 196.257 110.035 195.482C108.406 194.707 103.517 192.56 103.517 192.56C103.517 192.56 103.144 192.46 103.144 191.527L97.6169 191.577L97.7174 195.913Z" fill="#170856"/>
<path d="M115.538 195.913C115.538 195.913 115.251 196.724 116.931 196.717C118.61 196.702 127.734 196.623 127.734 196.623C127.734 196.623 129.485 196.257 127.856 195.482C126.226 194.714 121.338 192.56 121.338 192.56C121.338 192.56 120.965 192.46 120.965 191.527L115.438 191.577L115.538 195.913Z" fill="#170856"/>
<path d="M110.442 102.272C110.442 102.272 110.981 101.827 111.598 102.323C112.215 102.811 114.376 104.411 115.431 106.457C116.479 108.51 116.845 111.36 117.204 118.007C117.57 124.661 117.513 131.854 117.513 131.854L96.9043 132.306C96.9043 132.306 96.251 120.204 98.1964 112.767C100.142 105.33 103.049 102.746 103.695 102.423C104.341 102.1 104.987 102.746 104.987 102.746C104.987 102.746 107.822 105.345 110.442 102.272Z" fill="#FCBE42"/>
<path d="M140.051 250L131.38 209.679L128.673 197.117H94.5337L106.758 250" stroke="#96AABE" stroke-width="3.22958" stroke-miterlimit="10"/>
<path d="M97.5066 209.967L131.381 209.68" stroke="#96AABE" stroke-width="3.22958" stroke-miterlimit="10"/>
<path d="M100.365 222.364L134.045 222.077" stroke="#96AABE" stroke-width="3.22958" stroke-miterlimit="10"/>
<path d="M103.301 235.499L136.867 235.212" stroke="#96AABE" stroke-width="3.22958" stroke-miterlimit="10"/>
<path d="M82.8486 250L91.5271 209.68L94.2334 197.118H128.359L116.141 250" stroke="#023E9F" stroke-width="3.22958" stroke-miterlimit="10"/>
<path d="M125.392 209.966L91.5249 209.679" stroke="#023E9F" stroke-width="3.22958" stroke-miterlimit="10"/>
<path d="M122.545 222.364L88.8569 222.077" stroke="#023E9F" stroke-width="3.22958" stroke-miterlimit="10"/>
<path d="M119.603 235.5L86.0303 235.212" stroke="#023E9F" stroke-width="3.22958" stroke-miterlimit="10"/>
<path d="M120.827 109.213C120.827 109.213 117.913 105.007 114.69 103.714C111.467 102.422 109.837 105.007 111.452 107.598C113.067 110.189 115.982 113.735 115.982 113.735L120.827 109.213Z" fill="#F79F03"/>
<path d="M258.108 218.57C258.108 218.57 260.032 217.756 259.884 215.61C259.736 213.39 258.626 211.836 260.92 212.502C263.288 213.168 264.028 213.39 265.73 213.094C267.432 212.724 268.838 212.058 268.098 214.204C267.358 216.424 266.544 218.2 268.32 218.57C270.096 218.94 271.946 217.608 272.168 221.012C272.39 224.416 269.652 228.338 265.138 228.412C260.698 228.56 258.7 226.71 258.7 226.71C258.7 226.71 257.516 225.008 259.366 224.564C261.216 224.12 263.14 223.38 262.178 222.492C261.216 221.604 258.108 221.53 258.108 221.53C258.108 221.53 254.186 220.864 258.108 218.57Z" fill="#649CE8"/>
<path d="M278.532 219.162C278.236 216.942 278.458 215.388 282.528 214.796C286.598 214.204 288.966 216.646 289.188 219.162C289.41 221.678 285.932 222.566 285.932 222.566C285.932 222.566 283.416 223.306 284.674 225.452C285.932 227.672 286.524 229.744 283.638 230.114C280.752 230.41 277.57 229.67 275.794 228.486C274.018 227.302 272.242 224.342 274.24 222.788C274.24 222.788 274.832 222.418 276.756 222.27C278.754 222.196 278.532 219.162 278.532 219.162Z" fill="#023E9F"/>
<path d="M264.249 218.792C264.249 218.792 267.653 226.414 268.097 231.594" stroke="#023E9F" stroke-width="0.926912" stroke-miterlimit="10"/>
<path d="M282.97 220.05C282.97 220.05 276.976 228.93 275.57 231.89" stroke="#649CE8" stroke-width="0.926912" stroke-miterlimit="10"/>
<path d="M265.952 231.002H279.642C279.642 231.002 281.122 231.076 281.048 233.148C280.974 235.072 278.532 234.628 277.274 234.628C276.016 234.628 265.656 234.628 265.656 234.628C265.656 234.628 263.954 234.924 263.954 233C264.028 231.15 264.62 231.002 265.952 231.002Z" fill="#0055A2"/>
<path d="M265.727 234.628L267.799 246.764H276.975L278.529 237.662L265.727 234.628Z" fill="#0055A2"/>
<path d="M265.727 234.628L278.529 237.662L279.047 234.628H265.727Z" fill="#016AD3"/>
<path d="M271.577 231.446C271.577 231.446 272.243 217.978 276.313 209.542" stroke="#FABC43" stroke-width="0.926912" stroke-miterlimit="10"/>
<path d="M279.644 204.732C279.644 204.732 279.94 208.876 275.944 210.504C275.944 210.504 275.056 206.952 279.644 204.732Z" fill="#FABC43"/>
<path d="M273.576 217.904C273.576 217.904 275.056 214.352 279.644 214.87C279.644 214.796 279.274 218.348 273.576 217.904Z" fill="#FABC43"/>
<path d="M272.095 226.71C272.095 226.71 272.835 222.936 277.423 222.566C277.423 222.566 277.719 226.044 272.095 226.71Z" fill="#FABC43"/>
<path d="M271.87 226.784C271.87 226.784 272.388 223.01 268.244 221.086C268.244 221.012 266.764 224.268 271.87 226.784Z" fill="#FABC43"/>
<path d="M273.646 217.83C273.646 217.83 274.682 214.13 270.76 211.688C270.76 211.688 268.836 214.722 273.646 217.83Z" fill="#FABC43"/>
<path d="M207.415 0L202.755 1.33154L204.086 5.99195L208.747 4.6604L207.415 0Z" fill="#FABC43"/>
<path d="M140.138 23.2559L135.478 24.5874L136.809 29.2478L141.469 27.9163L140.138 23.2559Z" fill="#023EA1"/>
<path d="M275.472 141.493C275.139 141.975 274.806 142.377 274.389 142.779L274.806 144.226L272.348 145.432L271.265 144.226C270.682 144.387 270.098 144.387 269.515 144.387L268.682 145.753L266.058 145.03L266.224 143.502C265.724 143.181 265.308 142.859 264.891 142.457L263.308 142.859L262.059 140.568L263.308 139.523C263.142 138.96 263.142 138.398 263.142 137.835L261.725 137.031L262.475 134.499L264.058 134.659C264.391 134.177 264.725 133.775 265.141 133.373L264.725 131.926L267.099 130.72L268.182 131.926C268.765 131.765 269.349 131.765 269.932 131.765L270.765 130.399L273.389 131.122L273.223 132.73C273.722 133.052 274.139 133.373 274.556 133.775L276.055 133.373L277.305 135.664L276.222 136.709C276.472 137.272 276.472 137.835 276.472 138.398L277.888 139.201L277.138 141.653L275.472 141.493ZM272.681 139.001C273.181 137.553 272.264 135.986 270.848 135.584C269.349 135.102 267.724 135.986 267.307 137.352C266.807 138.8 267.724 140.367 269.14 140.769C270.557 141.251 272.181 140.448 272.681 139.001Z" fill="#EE384E"/>
</svg>
