<svg width="371" height="233" viewBox="0 0 371 233" fill="none" xmlns="http://www.w3.org/2000/svg">
<path d="M241.446 4.53171C241.446 4.53171 237.896 10.5923 243.437 10.5923C248.979 10.5923 251.836 12.1507 250.97 17.6919C250.104 23.233 252.095 26.6096 255.299 27.3888C258.502 28.168 264.563 28.6875 262.918 36.1334C261.359 43.5793 259.282 58.2113 250.883 57.4321C242.572 56.6528 234.606 46.4364 235.818 40.8087C237.031 35.181 241.1 32.1507 236.684 27.562C232.269 22.9732 228.459 27.7351 225.948 21.5014C223.437 15.2676 220.234 9.20703 228.026 3.92565C235.039 -0.749666 242.572 0.722191 241.446 4.53171Z" stroke="#DB061F" stroke-width="2" stroke-miterlimit="10"/>
<path d="M236.337 10.9387C236.337 10.9387 252.094 50.1594 258.415 59.1637" stroke="#DB061F" stroke-width="2" stroke-miterlimit="10"/>
<path d="M256.078 7.2155C256.078 7.2155 269.325 5.9168 267.853 13.1029C266.295 20.3757 269.152 21.6743 272.095 22.973C275.039 24.1852 281.273 24.1852 279.282 31.8042C277.29 39.4232 273.308 42.4535 274.953 46.263C276.598 50.0726 278.243 67.6483 271.316 66.4362C264.39 65.3106 260.58 55.96 260.061 51.631C259.541 47.302 254.606 44.1851 250.277 42.7998C245.948 41.4146 241.966 36.4795 246.468 32.3237C250.97 28.1678 251.403 21.5012 248.459 18.2977C245.602 15.0943 247.16 8.25446 256.078 7.2155Z" fill="#FABC43"/>
<path d="M257.896 16.2201L270.451 72.5836" stroke="white" stroke-width="2" stroke-miterlimit="10" stroke-linecap="round" stroke-linejoin="round"/>
<path d="M272.009 28.9474L262.918 39.0773L250.537 34.7483" stroke="white" stroke-width="2" stroke-miterlimit="10" stroke-linecap="round" stroke-linejoin="round"/>
<path d="M297.759 158.438C315.194 164.55 334.232 155.332 340.244 137.897C346.356 120.462 337.137 101.425 319.703 95.4126C302.268 89.3005 283.231 98.5188 277.219 115.953C271.207 133.388 280.425 152.426 297.759 158.438Z" stroke="#DB061F" stroke-miterlimit="10" stroke-dasharray="6 6"/>
<path d="M339.843 132.887C342.749 133.889 345.956 132.386 347.058 129.38C348.06 126.474 346.557 123.268 343.551 122.166C340.645 121.164 337.439 122.667 336.336 125.672C335.334 128.578 336.837 131.785 339.843 132.887Z" fill="#003FAE"/>
<path d="M341.046 124.971L343.651 128.578L339.543 129.28L341.046 124.971Z" fill="white"/>
<path d="M11.7982 90.4362C16.0078 92.6325 23.1458 90.3447 26.3487 84.3964C29.5516 78.4481 36.049 81.285 38.7028 85.586C41.4482 89.8871 46.1153 94.2797 50.9655 93.7306C55.8157 93.09 66.8886 94.5542 70.0916 101.784C73.2945 108.922 53.8939 112.033 49.3183 111.301C44.7427 110.569 42.5464 115.694 34.8593 119.995C27.2638 124.296 25.5251 117.615 23.3288 114.778C21.1325 111.942 18.9362 109.288 11.5237 112.948C4.1112 116.609 1.82339 101.967 1.82339 101.967C0.633732 91.8089 7.58867 88.1484 11.7982 90.4362Z" fill="#023E9F"/>
<path d="M76.4992 98.8552L12.166 101.143" stroke="white" stroke-miterlimit="10" stroke-linecap="round" stroke-linejoin="round"/>
<path d="M30.1938 88.0573L38.3384 100.228L30.0107 112.857" stroke="white" stroke-miterlimit="10" stroke-linecap="round" stroke-linejoin="round"/>
<path d="M29.3701 63.6234C29.2786 68.2905 22.5067 71.585 35.6845 77.3502C48.8622 83.1155 31.9325 86.959 46.5744 98.4896C61.2164 110.112 69.178 92.2667 70.9167 81.1022C72.7469 70.0292 60.4843 73.8728 54.8105 68.8396C49.2283 63.7149 54.8105 61.1525 54.0784 55.5703C53.4378 49.988 42.1818 50.9032 38.3383 51.8183C34.4948 52.7334 35.3184 48.7984 31.3834 45.4124C27.4484 42.0265 19.3038 45.4124 18.3886 51.2692C17.4735 57.126 24.52 58.7732 24.52 58.7732C24.52 58.7732 29.3701 58.8647 29.3701 63.6234Z" fill="#EC384E"/>
<path d="M77.3219 100.137C77.3219 100.137 72.7463 99.5875 59.5685 88.1485C46.3907 76.7095 36.6904 60.1458 36.6904 60.1458" stroke="white" stroke-miterlimit="10" stroke-linecap="round" stroke-linejoin="round"/>
<path d="M13.6279 74.0559C32.754 82.8411 53.3443 104.987 53.3443 104.987" stroke="#FABC43" stroke-miterlimit="10"/>
<path d="M15.642 75.0622C6.39923 78.0821 1 70.4866 1 70.4866C11.9815 67.6497 15.642 75.0622 15.642 75.0622Z" stroke="#FABC43" stroke-miterlimit="10"/>
<path d="M15.5518 87.8742C22.7812 80.4617 30.3768 84.3968 30.3768 84.3968C21.2255 93.365 15.5518 87.8742 15.5518 87.8742Z" stroke="#FABC43" stroke-miterlimit="10"/>
<path d="M30.5576 98.032C39.0683 92.1752 45.7487 97.4829 45.7487 97.4829C35.0417 104.529 30.5576 98.032 30.5576 98.032Z" stroke="#FABC43" stroke-miterlimit="10"/>
<path d="M26.3498 69.6634C23.2384 79.4552 30.2848 84.3969 30.2848 84.3969C33.8538 72.0427 26.3498 69.6634 26.3498 69.6634Z" stroke="#FABC43" stroke-miterlimit="10"/>
<path d="M314.49 225.872H55.8767C53.2716 225.872 51.2676 223.767 51.2676 221.262V48.6198C51.2676 46.0147 53.3718 44.0107 55.8767 44.0107H314.59C317.195 44.0107 319.199 46.1149 319.199 48.6198V221.262C319.199 223.767 317.095 225.872 314.49 225.872Z" fill="#0064B5"/>
<path d="M313.188 50.3234H57.2803V224.068H313.188V50.3234Z" fill="#DAE6FF"/>
<path d="M346.553 230.481H23.9132C21.4083 230.481 19.4043 228.477 19.4043 225.972V223.367C19.4043 220.862 21.4083 218.858 23.9132 218.858H346.553C349.058 218.858 351.062 220.862 351.062 223.367V225.972C351.062 228.477 349.058 230.481 346.553 230.481Z" fill="#0064B5"/>
<path d="M313.243 50.3889H57.335V219.525H313.243V50.3889Z" fill="white"/>
<path d="M285.709 66.4371H84.8896V202.777H285.709V66.4371Z" fill="white" stroke="#D3D2D2" stroke-width="0.788592" stroke-miterlimit="10"/>
<rect x="94.9619" y="84.1954" width="52.8533" height="30.3417" fill="#DCE8F4"/>
<rect x="94.9619" y="133.134" width="88.0889" height="2.9363" fill="#DCE8F4"/>
<rect x="94.9619" y="175.221" width="68.5136" height="2.9363" fill="#DCE8F4"/>
<rect x="94.9619" y="140.964" width="182.05" height="1.95753" fill="#DCE8F4"/>
<rect x="94.9619" y="147.815" width="182.05" height="1.95753" fill="#DCE8F4"/>
<rect x="94.9619" y="154.666" width="182.05" height="1.95753" fill="#DCE8F4"/>
<rect x="94.9619" y="161.518" width="150.73" height="1.95753" fill="#DCE8F4"/>
<rect x="94.9619" y="182.072" width="182.05" height="1.95753" fill="#DCE8F4"/>
<rect x="94.9619" y="188.923" width="182.05" height="1.95753" fill="#DCE8F4"/>
<rect x="159.561" y="84.1954" width="52.8533" height="30.3417" fill="#EBF5FF"/>
<rect x="224.159" y="84.1954" width="52.8533" height="30.3417" fill="#EBF5FF"/>
<path d="M285.82 63.6408H85.1729V70.4922H285.82V63.6408Z" fill="#0064B5"/>
<path d="M89.082 67.4036C89.082 67.876 88.7277 68.2303 88.2554 68.2303C87.783 68.2303 87.4287 67.876 87.4287 67.4036C87.4287 66.9312 87.783 66.577 88.2554 66.577C88.6687 66.577 89.082 66.9312 89.082 67.4036Z" fill="#C7C7C7"/>
<path d="M92.4463 67.4037C92.4463 67.8761 92.092 68.2304 91.6196 68.2304C91.1473 68.2304 90.793 67.8761 90.793 67.4037C90.793 66.9314 91.1473 66.5771 91.6196 66.5771C92.092 66.5771 92.4463 66.9314 92.4463 67.4037Z" fill="white"/>
<path d="M95.0454 68.2304C95.502 68.2304 95.8721 67.8603 95.8721 67.4037C95.8721 66.9472 95.502 66.5771 95.0454 66.5771C94.5889 66.5771 94.2188 66.9472 94.2188 67.4037C94.2188 67.8603 94.5889 68.2304 95.0454 68.2304Z" fill="#FFC727"/>
<path d="M359.848 231.989H16.9373C16.7312 231.989 16.5938 231.687 16.5938 231.236V230.784C16.5938 230.332 16.7312 230.031 16.9373 230.031H359.779C359.985 230.031 360.122 230.332 360.122 230.784V231.236C360.191 231.687 360.054 231.989 359.848 231.989Z" fill="#2D3554"/>
<path d="M75.218 224.969C75.218 224.969 79.2259 225.17 82.2319 225.17C85.1377 225.17 89.847 225.771 89.847 225.771C89.847 225.771 91.0494 225.771 91.1496 227.274C91.2498 228.777 91.2498 229.378 91.2498 229.378C91.2498 229.378 91.35 231.182 89.9472 231.182C88.5444 231.182 79.5265 232.184 77.5226 232.184C75.5186 232.184 74.0156 232.585 74.0156 231.182C73.9154 229.779 73.8152 224.869 75.218 224.969Z" fill="#160856"/>
<path d="M78.5242 182.185C78.5242 182.185 81.1294 196.714 81.3298 200.621C81.5302 204.429 81.931 207.435 79.426 208.938C76.921 210.441 72.7127 211.844 72.7127 211.844L67.6025 185.792V182.786L78.5242 182.185Z" fill="#FDBD97"/>
<path d="M33.9357 181.283C33.9357 181.283 32.5329 187.896 32.1321 191.203C31.7313 194.509 30.8295 201.022 30.7293 202.525C30.6291 204.028 30.4287 206.533 33.1341 208.537C35.8395 210.441 38.8454 211.543 38.8454 211.543L44.4566 181.283H33.9357Z" fill="#FDBD97"/>
<path d="M53.8759 160.341C53.8759 160.341 53.8759 163.347 52.5733 164.65C51.2708 165.952 49.5674 168.157 49.5674 168.157C49.5674 168.157 52.5734 172.966 58.6855 172.265C64.6974 171.664 65.7996 167.255 65.7996 167.255C65.7996 167.255 60.0883 166.453 59.3869 161.043C58.7857 155.632 57.8839 155.632 57.8839 155.632L53.8759 160.341Z" fill="#FDAE7D"/>
<path d="M49.4668 148.317C49.4668 148.317 49.6672 155.231 52.9738 160.642C56.1801 166.053 60.0879 163.047 61.6911 160.241C63.194 157.436 67.3022 148.317 66.5006 145.913C65.5988 143.508 53.6751 142.406 53.6751 142.406L49.4668 148.317Z" fill="#FDBD97"/>
<path d="M64.7961 152.226C64.7961 152.226 66.4995 150.923 66.4995 152.226C66.4995 153.528 65.5977 155.432 64.5957 155.733C63.4935 155.933 63.6939 155.332 63.9945 154.43C64.1949 153.528 64.7961 152.226 64.7961 152.226Z" fill="#FDBD97"/>
<path d="M49.9672 155.031C50.4682 155.231 50.9692 155.332 50.9692 154.63C50.9692 153.328 50.0674 151.424 49.0654 151.123C47.9632 150.923 48.1636 151.524 48.4642 152.426C48.5644 152.726 48.6646 153.027 48.7648 153.428C48.9652 154.029 49.5664 154.831 49.9672 155.031Z" fill="#FDBD97"/>
<path d="M49.7681 151.524L49.5677 149.319C49.5677 149.319 51.4714 149.52 53.6758 147.416C53.6758 147.416 57.8842 148.418 61.2909 148.017C64.8981 147.716 66.4011 146.714 66.4011 146.714C66.4011 146.714 65.7999 150.822 65.1987 152.025C65.1987 152.025 66.9021 151.323 67.6034 149.319C68.2046 147.416 68.1044 145.312 68.1044 145.312C68.1044 145.312 70.5092 143.408 71.1104 141.203C71.1104 141.203 64.5975 139.7 62.6937 138.398C60.7899 137.095 59.6877 136.193 59.6877 136.193C59.6877 136.193 56.6818 134.49 53.6758 136.795C50.6698 139.199 48.6659 140.502 48.6659 144.61C48.5657 144.71 45.7601 148.618 49.7681 151.524Z" fill="#160856"/>
<path d="M50.2687 165.953C50.2687 165.953 46.1606 165.452 43.856 166.053C41.6516 166.654 40.9502 166.253 41.5514 167.957C42.1526 169.66 45.1586 177.576 43.7558 182.485C42.353 187.395 40.4492 212.846 40.4492 212.846C40.4492 212.846 55.8798 213.447 61.7916 213.747C67.8035 214.048 72.2123 212.946 72.2123 212.946C72.2123 212.946 73.5148 202.024 72.2123 197.215C70.9097 192.505 69.2063 184.389 69.2063 184.389C69.2063 184.389 68.1041 173.267 69.6071 170.562C71.1101 167.856 72.2122 167.756 70.3085 167.055C68.4047 166.353 66.3005 165.752 64.6973 165.752C63.1944 165.752 62.3928 165.752 61.491 166.654C60.5892 167.556 58.7856 169.359 56.2806 168.959C53.7757 168.558 51.8719 166.854 51.8719 166.854C51.8719 166.854 50.9701 166.053 50.2687 165.953Z" fill="#0181F7"/>
<path d="M42.9544 166.854C42.9544 166.854 41.5517 166.153 39.4475 167.956C37.1429 169.96 35.5397 174.169 34.7381 176.774C33.9365 179.379 33.4355 181.984 33.4355 181.984C33.4355 181.984 36.3413 183.487 39.4475 183.587C42.4534 183.688 44.4574 183.888 44.4574 183.888C44.4574 183.888 45.76 175.972 45.4594 172.465C45.0586 168.958 44.5576 167.756 42.9544 166.854Z" fill="#023E9F"/>
<path d="M68.4031 169.76C68.4031 169.76 69.6055 166.453 72.3108 167.956C75.0162 169.459 77.0202 175.271 77.7216 177.074C78.3228 178.878 79.1244 182.585 79.1244 182.585C79.1244 182.585 75.918 183.988 73.1124 184.188C70.4071 184.389 68.5033 184.589 68.5033 184.589C68.5033 184.589 67.4011 177.375 67.6015 174.569C67.8019 171.764 68.4031 169.76 68.4031 169.76Z" fill="#023E9F"/>
<path d="M46.0596 215.15H66.8007L56.0795 218.457L46.0596 215.15Z" fill="#BA0A28"/>
<path d="M27.6229 209.238C27.6229 209.238 65.4981 221.062 73.8146 223.968C73.8146 223.968 76.52 224.669 76.6202 226.072C76.7204 227.475 76.4198 229.479 76.1192 230.481C75.8186 231.483 74.9168 232.284 73.4138 231.984C71.9108 231.683 37.9434 224.869 24.5168 221.362L20.7092 220.16C20.7092 220.16 17.9036 218.857 18.4046 215.451C18.9056 212.044 21.4106 208.938 23.2142 208.737C25.0178 208.637 27.6229 209.238 27.6229 209.238Z" fill="#EC384E"/>
<path d="M24.2164 226.072C24.2164 226.072 28.9257 225.27 31.8315 225.17C34.6371 225.07 38.4446 224.769 39.0458 225.17C39.647 225.571 40.148 231.082 40.148 231.082C40.148 231.082 40.649 232.585 36.9417 232.284C33.2343 231.984 24.6172 231.683 24.6172 231.683C24.6172 231.683 22.7134 231.583 22.6132 229.879C22.513 228.176 22.8136 227.374 22.8136 227.374C22.8136 227.374 22.9138 226.272 24.2164 226.072Z" fill="#160856"/>
<path d="M46.761 221.262C46.761 221.262 69.7065 214.248 77.9228 211.844C86.1391 209.439 90.6481 207.234 93.3534 211.042C95.9586 214.85 95.7582 219.158 92.7523 220.36C89.7463 221.563 65.7988 227.174 55.8791 229.178C45.9594 231.182 39.4465 232.485 38.5447 232.084C37.6429 231.683 36.6409 228.777 36.8413 227.174C37.0417 225.571 37.1419 224.97 39.0457 224.168C40.9494 223.266 46.761 221.262 46.761 221.262Z" fill="#DB061F"/>
<path d="M44.1559 187.796H71.8108C71.8108 187.796 73.3138 187.595 73.3138 189.599C73.3138 191.603 73.3138 213.447 73.3138 213.447C73.3138 213.447 73.414 215.05 72.2116 215.05C71.0092 215.05 39.7472 215.05 39.7472 215.05C39.7472 215.05 38.4446 215.451 38.4446 213.246C38.4446 211.042 38.4446 188.998 38.4446 188.998C38.4446 188.998 38.3444 187.796 39.9476 187.796C41.4506 187.796 44.1559 187.796 44.1559 187.796Z" fill="#0064B5"/>
<path d="M57.5827 201.323L55.5788 199.719L53.9756 201.723L55.9796 203.327L57.5827 201.323Z" fill="#579CD2"/>
<path d="M325.687 189.399C325.687 189.399 328.492 188.297 328.292 185.091C328.092 181.884 326.488 179.68 329.795 180.582C333.202 181.483 334.304 181.884 336.809 181.383C339.314 180.882 341.318 179.88 340.216 182.986C339.113 186.193 338.011 188.898 340.516 189.399C343.021 189.9 345.827 187.996 346.127 193.006C346.428 198.016 342.42 203.627 335.907 203.828C329.394 204.028 326.488 201.323 326.488 201.323C326.488 201.323 324.785 198.818 327.49 198.217C330.196 197.615 333.001 196.413 331.599 195.211C330.196 193.908 325.687 193.808 325.687 193.808C325.687 193.808 319.975 192.706 325.687 189.399Z" fill="#649CE8"/>
<path d="M355.445 190.201C354.944 186.994 355.345 184.69 361.256 183.888C367.168 182.986 370.675 186.593 370.976 190.201C371.377 193.808 366.166 195.211 366.166 195.211C366.166 195.211 362.559 196.213 364.363 199.419C366.166 202.625 367.068 205.731 362.86 206.132C358.651 206.633 354.042 205.531 351.437 203.828C348.832 202.124 346.227 197.816 349.233 195.511C349.233 195.511 350.034 194.91 352.84 194.81C355.745 194.71 355.445 190.201 355.445 190.201Z" fill="#023E9F"/>
<path d="M334.604 189.699C334.604 189.699 339.514 200.821 340.216 208.437" stroke="#023E9F" stroke-miterlimit="10"/>
<path d="M361.96 191.503C361.96 191.503 353.242 204.429 351.238 208.737" stroke="#649CE8" stroke-miterlimit="10"/>
<path d="M337.21 207.535H357.149C357.149 207.535 359.354 207.735 359.153 210.641C358.953 213.347 355.546 212.745 353.742 212.745C351.939 212.745 336.809 212.745 336.809 212.745C336.809 212.745 334.404 213.146 334.404 210.341C334.304 207.635 335.206 207.535 337.21 207.535Z" fill="#0055A2"/>
<path d="M336.81 212.846L339.816 230.481H353.242L355.547 217.254L336.81 212.846Z" fill="#0055A2"/>
<path d="M336.81 212.846L355.547 217.254L356.348 212.846H336.81Z" fill="#016AD3"/>
<path d="M345.425 208.237C345.425 208.237 346.427 188.598 352.238 176.373" stroke="#FABC43" stroke-miterlimit="10"/>
<path d="M357.048 169.259C357.048 169.259 357.549 175.271 351.637 177.576C351.637 177.576 350.435 172.465 357.048 169.259Z" fill="#FABC43"/>
<path d="M348.231 188.397C348.231 188.397 350.436 183.287 357.049 183.989C357.049 183.989 356.548 189.099 348.231 188.397Z" fill="#FABC43"/>
<path d="M346.027 201.323C346.027 201.323 347.13 195.912 353.843 195.211C353.843 195.211 354.344 200.321 346.027 201.323Z" fill="#FABC43"/>
<path d="M345.828 201.323C345.828 201.323 346.629 195.812 340.517 193.006C340.517 193.006 338.313 197.615 345.828 201.323Z" fill="#FABC43"/>
<path d="M348.331 188.397C348.331 188.397 349.834 182.986 344.123 179.48C344.123 179.379 341.418 183.788 348.331 188.397Z" fill="#FABC43"/>
<path d="M321.406 11.5461L315.795 13.1493L317.398 18.7604L323.009 17.1572L321.406 11.5461Z" fill="#EB3B4E"/>
</svg>
