<svg width="370" height="273" viewBox="0 0 370 273" fill="none" xmlns="http://www.w3.org/2000/svg">
<path d="M101.138 64.9054C109.355 58.2223 110.523 46.8647 109.464 36.8217C109.282 35.1418 109.355 33.3523 108.442 31.9281C107.529 30.5038 105.593 29.6273 104.132 30.4673C102.927 31.1612 102.489 32.6219 101.868 33.9001C101.065 35.58 99.75 37.0043 98.1796 37.9538C97.1571 38.5747 95.8424 39.0129 94.7468 38.5016C93.2495 37.8078 92.9208 35.7992 92.8112 34.1193C92.5921 30.9786 92.4095 27.8744 92.1904 24.7702C92.0808 23.0903 91.9713 21.3738 91.3139 19.84C90.6931 18.3062 89.4149 16.8819 87.808 16.5532C86.1646 16.2246 84.2656 17.2836 84.0465 18.927C83.9734 19.6209 84.156 20.3148 84.156 21.0087C84.156 21.7025 83.9004 22.506 83.243 22.7251C82.5857 22.9807 81.8918 22.5425 81.344 22.1042C79.4815 20.5339 78.1668 18.4523 76.9251 16.3706C75.6834 14.289 74.4418 12.1343 72.7619 10.4179C71.0454 8.70148 68.7812 7.38677 66.3709 7.42329C63.9606 7.45981 61.5138 9.13972 61.0755 11.5135C60.6373 13.9238 62.1711 16.2246 63.8145 18.014C66.2248 20.68 69.0368 23.0172 72.141 24.8797C72.6888 25.2084 73.3097 25.5736 73.5288 26.1945C73.967 27.2901 72.981 28.4587 71.9219 28.9334C70.7168 29.4447 69.329 29.4082 68.0508 29.6638C66.7726 29.9195 65.3849 30.5768 64.9831 31.855C64.4353 33.608 65.9692 35.3244 67.4665 36.3835C70.4611 38.5381 73.8209 40.145 77.3268 41.1676C78.605 41.5328 79.9197 41.8249 80.9788 42.6284C82.0379 43.4318 82.7318 44.8926 82.2205 46.0977C81.7092 47.3394 80.1754 47.8142 78.8972 47.6681C77.5825 47.522 76.3773 46.9012 75.1356 46.536C72.7619 45.8421 69.8037 46.2073 68.489 48.2889C67.6126 49.6767 67.6491 51.5027 68.2699 53C68.8542 54.5338 69.9498 55.812 71.1185 56.9441C75.1356 60.9978 80.1023 64.1385 85.5438 65.6358C90.9852 67.0966 95.9519 67.2427 101.138 64.9054Z" fill="#023EA1"/>
<path d="M98.0771 58.7692C96.2146 53.8025 93.7313 48.5071 90.9558 43.0291C90.2619 41.6779 89.5681 40.3267 88.8742 39.012C88.1803 37.6973 87.5229 36.3825 86.756 35.1409C85.2952 32.6575 83.6884 30.3933 82.0815 28.2751C80.4746 26.157 78.9043 24.2214 77.407 22.3955C75.9096 20.5695 74.4854 18.9261 73.0976 17.4653C70.3586 14.5437 67.8753 12.4621 66.1223 11.0743C65.2459 10.3804 64.552 9.86917 64.0772 9.54049C63.8581 9.39441 63.6755 9.24833 63.5294 9.17529C63.4199 9.10225 63.3468 9.06573 63.3468 9.06573C63.3468 9.06573 63.4199 9.10226 63.5294 9.21181C63.6755 9.32137 63.8216 9.43093 64.0407 9.61353C64.5155 9.97873 65.2094 10.49 66.0493 11.1839C67.8023 12.5716 70.2491 14.6898 72.9515 17.6114C74.3028 19.0722 75.727 20.7521 77.2244 22.5415C78.7217 24.3675 80.292 26.3031 81.8624 28.4212C83.4327 30.5394 85.0396 32.8036 86.5004 35.2869C87.2308 36.5286 87.9246 37.8068 88.582 39.158C89.2759 40.4728 89.9698 41.824 90.6636 43.1752C93.4391 48.6167 95.9225 53.912 97.785 58.8787" fill="#E0E0E0"/>
<path d="M86.676 35.1407C86.7125 35.1407 86.749 34.8851 86.7856 34.4103C86.8586 33.9355 86.8951 33.2782 86.9682 32.4017C87.0777 30.7218 87.1508 28.3845 87.2603 25.8281C87.3334 23.2718 87.4429 20.9345 87.589 19.2546C87.662 18.4146 87.7351 17.7208 87.7716 17.2825C87.8081 16.8078 87.8446 16.5521 87.8081 16.5521C87.7716 16.5521 87.7351 16.8078 87.662 17.2825C87.589 17.7573 87.4794 18.4146 87.3699 19.2546C87.1873 20.9345 87.0047 23.2718 86.9316 25.8281C86.8586 28.348 86.7856 30.6488 86.749 32.4017C86.7125 33.2051 86.7125 33.8625 86.676 34.4103C86.6395 34.8851 86.6395 35.1407 86.676 35.1407Z" fill="#E0E0E0"/>
<path d="M64.8934 32.6575C64.8934 32.694 65.1855 32.694 65.7699 32.694C66.3177 32.694 67.1211 32.7306 68.1071 32.7671C70.0792 32.8401 72.8182 33.0227 75.8493 33.3879C78.8805 33.7531 81.5829 34.1913 83.5185 34.5565C84.5045 34.7391 85.2714 34.8852 85.8192 34.9948C86.367 35.1043 86.6592 35.1774 86.6592 35.1409C86.6592 35.1043 86.367 35.0313 85.8192 34.8852C85.2714 34.7391 84.5045 34.52 83.5185 34.3374C81.5829 33.8992 78.8439 33.4244 75.8128 33.0958C72.7817 32.7306 70.0427 32.5845 68.0341 32.5845C67.0481 32.5845 66.2446 32.5845 65.6603 32.621C65.1855 32.621 64.8934 32.6575 64.8934 32.6575Z" fill="#E0E0E0"/>
<path d="M97.7927 58.4025C97.7927 58.4025 97.8292 58.3295 97.9388 58.1469C98.0118 57.9278 98.1214 57.6721 98.2674 57.3435C98.5231 56.6496 98.8883 55.627 99.3265 54.3489C100.203 51.7925 101.262 48.25 102.394 44.3424C103.526 40.3983 104.585 36.8559 105.389 34.2995C105.791 33.0578 106.119 32.0353 106.338 31.2683C106.448 30.9397 106.521 30.684 106.594 30.4284C106.667 30.2458 106.667 30.1362 106.667 30.1362C106.667 30.1362 106.63 30.2093 106.521 30.3919C106.448 30.611 106.338 30.8666 106.192 31.1953C105.937 31.8892 105.571 32.9117 105.133 34.1899C104.257 36.7463 103.198 40.2887 102.066 44.1963C100.933 48.1405 99.8743 51.6829 99.0709 54.2393C98.6692 55.481 98.3405 56.5035 98.1214 57.2704C98.0118 57.5991 97.9388 57.8548 97.8657 58.1104C97.7927 58.293 97.7927 58.4025 97.7927 58.4025Z" fill="#E0E0E0"/>
<path d="M68.4976 51.246C68.4976 51.246 68.6072 51.2825 68.7898 51.3555C69.0089 51.4286 69.3011 51.5016 69.6298 51.5746C70.4332 51.7572 71.4923 52.0129 72.7705 52.3416C75.3999 52.9989 79.0519 53.9484 83.1056 54.971C87.1227 56.0301 90.7747 56.943 93.4407 57.5274C94.7554 57.8195 95.851 58.0752 96.5814 58.2212C96.91 58.2943 97.2022 58.3308 97.4578 58.3673C97.6404 58.4038 97.75 58.4038 97.75 58.4038C97.75 58.4038 97.6404 58.3673 97.4578 58.2943C97.2387 58.2212 96.9466 58.1482 96.6179 58.0752C95.8144 57.8926 94.7554 57.6369 93.4772 57.3082C90.8478 56.6509 87.1958 55.7014 83.1421 54.6788C79.1249 53.6197 75.4729 52.7068 72.807 52.1224C71.4923 51.8303 70.3967 51.5746 69.6663 51.4286C69.3376 51.3555 69.0454 51.319 68.7898 51.2825C68.6072 51.246 68.4976 51.2094 68.4976 51.246Z" fill="#E0E0E0"/>
<path d="M97.5976 44.0433C97.5976 44.0433 84.054 28.9437 81.3289 13.3903" stroke="#FCBE42" stroke-width="0.422263" stroke-miterlimit="10"/>
<path d="M81.3554 2.75088C81.3554 2.75088 86.391 6.4613 81.6399 14.9902C81.6399 14.9902 76.39 12.8203 81.3554 2.75088Z" fill="#FCBE42"/>
<path d="M85.9235 26.6378C85.9235 26.6378 84.4832 20.4634 92.368 13.1804C92.3764 13.1715 95.6255 17.405 85.9235 26.6378Z" fill="#FCBE42"/>
<path d="M93.1619 38.3622C93.1619 38.3622 90.318 33.1757 97.2297 24.9526C97.2297 24.9526 101.609 28.0063 93.1619 38.3622Z" fill="#FCBE42"/>
<path d="M92.9289 38.6506C92.9289 38.6506 89.6562 33.8361 80.8243 38.917C80.8243 38.917 81.9023 44.7646 92.9289 38.6506Z" fill="#FCBE42"/>
<path d="M85.9792 26.5228C85.9792 26.5228 83.587 20.986 74.6437 25.064C74.6353 25.0729 74.8453 31.3669 85.9792 26.5228Z" fill="#FCBE42"/>
<path d="M306.734 188.722H90.6827C88.9456 188.722 87.5439 187.319 87.5439 185.58V37.718C87.5439 35.9791 88.9456 34.576 90.6827 34.576H306.725C308.462 34.576 309.864 35.9791 309.864 37.718V185.58C309.872 187.31 308.462 188.722 306.734 188.722Z" fill="#0064B7"/>
<path d="M299.278 182.266H96.0743C94.3372 182.266 92.9355 180.863 92.9355 179.124V64.3346C92.9355 62.5958 94.3372 61.1926 96.0743 61.1926H299.286C301.023 61.1926 302.425 62.5958 302.425 64.3346V179.124C302.416 180.863 301.015 182.266 299.278 182.266Z" fill="#CCE5FF"/>
<path d="M309.87 54.2884V45.0002C309.87 39.2414 305.106 34.5757 299.353 34.5757H98.6352C92.8822 34.5757 88.1182 39.2414 88.1182 45.0002V54.2884H309.87Z" fill="#0064B7"/>
<path d="M101.692 50.258C102.753 49.1957 102.753 47.4734 101.692 46.4111C100.631 45.3488 98.9104 45.3488 97.8492 46.4111C96.788 47.4734 96.788 49.1957 97.8492 50.258C98.9104 51.3202 100.631 51.3202 101.692 50.258Z" fill="white"/>
<path d="M108.336 51.172C109.836 51.172 111.053 49.9542 111.053 48.4519C111.053 46.9496 109.836 45.7317 108.336 45.7317C106.835 45.7317 105.618 46.9496 105.618 48.4519C105.618 49.9542 106.835 51.172 108.336 51.172Z" fill="white"/>
<path d="M116.547 51.5512C118.047 51.5512 119.264 50.3333 119.264 48.831C119.264 47.3287 118.047 46.1108 116.547 46.1108C115.046 46.1108 113.829 47.3287 113.829 48.831C113.829 50.3333 115.046 51.5512 116.547 51.5512Z" fill="white"/>
<path d="M169.548 175.121H101.527C100.959 175.121 100.495 174.656 100.495 174.088V69.4386C100.495 68.8704 100.959 68.4056 101.527 68.4056H169.548C170.116 68.4056 170.58 68.8704 170.58 69.4386V174.079C170.58 174.656 170.116 175.121 169.548 175.121Z" fill="white"/>
<path d="M163.072 82.8475H107.875C107.415 82.8475 107.038 82.825 107.038 82.7975V77.7274C107.038 77.6999 107.415 77.6774 107.875 77.6774H163.072C163.533 77.6774 163.91 77.6999 163.91 77.7274V82.797C163.91 82.825 163.533 82.8475 163.072 82.8475Z" fill="#EAF4FF"/>
<path d="M163.072 93.7049H107.875C107.415 93.7049 107.038 93.6824 107.038 93.6549V88.5848C107.038 88.5573 107.415 88.5348 107.875 88.5348H163.072C163.533 88.5348 163.91 88.5573 163.91 88.5848V93.6545C163.91 93.6824 163.533 93.7049 163.072 93.7049Z" fill="#EAF4FF"/>
<path d="M163.072 104.562H107.875C107.415 104.562 107.038 104.539 107.038 104.512V99.4418C107.038 99.4142 107.415 99.3917 107.875 99.3917H163.072C163.533 99.3917 163.91 99.4142 163.91 99.4418V104.511C163.91 104.539 163.533 104.562 163.072 104.562Z" fill="#EAF4FF"/>
<path d="M163.072 115.419H107.875C107.415 115.419 107.038 115.397 107.038 115.369V110.299C107.038 110.272 107.415 110.249 107.875 110.249H163.072C163.533 110.249 163.91 110.272 163.91 110.299V115.369C163.91 115.397 163.533 115.419 163.072 115.419Z" fill="#EAF4FF"/>
<path d="M163.072 126.277H107.875C107.415 126.277 107.038 126.254 107.038 126.227V121.157C107.038 121.129 107.415 121.107 107.875 121.107H163.072C163.533 121.107 163.91 121.129 163.91 121.157V126.226C163.91 126.254 163.533 126.277 163.072 126.277Z" fill="#EAF4FF"/>
<path d="M293.809 119.297H176.341C175.774 119.297 175.31 118.833 175.31 118.264V69.4046C175.31 68.8365 175.774 68.3716 176.341 68.3716H293.809C294.377 68.3716 294.841 68.8365 294.841 69.4046V118.264C294.841 118.833 294.377 119.297 293.809 119.297Z" fill="white"/>
<path d="M285.398 82.8477H182.531C181.673 82.8477 180.971 82.8364 180.971 82.8227V80.2877C180.971 80.2739 181.673 80.2626 182.531 80.2626H285.398C286.256 80.2626 286.959 80.2739 286.959 80.2877V82.8225C286.959 82.8364 286.256 82.8477 285.398 82.8477Z" fill="#EAF4FF"/>
<path d="M285.398 91.1199H182.531C181.673 91.1199 180.971 91.1086 180.971 91.0948V88.5598C180.971 88.5461 181.673 88.5348 182.531 88.5348H285.398C286.256 88.5348 286.959 88.5461 286.959 88.5598V91.0946C286.959 91.1086 286.256 91.1199 285.398 91.1199Z" fill="#EAF4FF"/>
<path d="M285.398 99.392H182.531C181.673 99.392 180.971 99.3808 180.971 99.367V96.832C180.971 96.8182 181.673 96.8069 182.531 96.8069H285.398C286.256 96.8069 286.959 96.8182 286.959 96.832V99.3668C286.959 99.3808 286.256 99.392 285.398 99.392Z" fill="#EAF4FF"/>
<path d="M285.398 107.665H182.531C181.673 107.665 180.971 107.653 180.971 107.64V105.105C180.971 105.091 181.673 105.08 182.531 105.08H285.398C286.256 105.08 286.959 105.091 286.959 105.105V107.639C286.959 107.653 286.256 107.665 285.398 107.665Z" fill="#EAF4FF"/>
<path d="M293.285 173.373H175.817C175.25 173.373 174.785 172.909 174.785 172.34V126.399C174.785 125.831 175.25 125.366 175.817 125.366H293.285C293.852 125.366 294.317 125.831 294.317 126.399V172.34C294.317 172.909 293.852 173.373 293.285 173.373Z" fill="white"/>
<path d="M277.569 140.753H203.806C203.19 140.753 202.687 140.742 202.687 140.728V138.193C202.687 138.179 203.19 138.168 203.806 138.168H277.569C278.184 138.168 278.688 138.179 278.688 138.193V140.728C278.688 140.742 278.184 140.753 277.569 140.753Z" fill="#EAF4FF"/>
<path d="M277.569 147.992H203.806C203.19 147.992 202.687 147.98 202.687 147.966V145.431C202.687 145.418 203.19 145.406 203.806 145.406H277.569C278.184 145.406 278.688 145.418 278.688 145.431V147.966C278.688 147.98 278.184 147.992 277.569 147.992Z" fill="#EAF4FF"/>
<path d="M277.569 155.229H203.806C203.19 155.229 202.687 155.218 202.687 155.204V152.669C202.687 152.656 203.19 152.644 203.806 152.644H277.569C278.184 152.644 278.688 152.656 278.688 152.669V155.204C278.688 155.218 278.184 155.229 277.569 155.229Z" fill="#EAF4FF"/>
<path d="M277.569 162.468H203.806C203.19 162.468 202.687 162.457 202.687 162.443V159.908C202.687 159.894 203.19 159.883 203.806 159.883H277.569C278.184 159.883 278.688 159.894 278.688 159.908V162.443C278.688 162.457 278.184 162.468 277.569 162.468Z" fill="#EAF4FF"/>
<path d="M167.035 187.677L171.624 265.977H178.508C178.508 265.977 180.128 242.105 180.533 235.012C180.938 228.055 183.772 188.086 183.772 188.086L167.035 187.677Z" fill="#DE051F"/>
<path d="M175.94 187.54C176.48 198.181 173.241 216.869 169.192 229.419C165.007 241.968 153.13 263.249 153.13 263.249L147.596 259.975C147.596 259.975 150.835 251.517 153.13 243.605C155.289 235.966 159.204 218.369 158.934 213.322C158.529 208.139 157.719 188.086 157.719 188.086L175.94 187.54Z" fill="#EE384E"/>
<path d="M182.823 163.942L183.093 165.715C183.093 165.715 188.222 171.308 190.517 173.354C192.811 175.536 196.321 173.49 196.321 173.49C196.321 173.49 206.579 167.761 207.929 166.806C209.413 165.851 210.088 165.988 210.088 165.988C210.088 165.988 211.033 165.988 212.248 165.988C213.193 165.988 212.923 165.306 212.923 165.306C212.923 165.306 212.923 162.987 212.923 161.486C212.923 159.986 211.573 159.986 211.573 159.986L209.413 159.849C209.413 159.849 209.548 158.485 209.278 158.076C209.008 157.667 208.603 157.394 208.064 157.394C207.389 157.394 207.794 157.939 207.794 157.939C207.794 157.939 207.794 158.212 208.064 158.894C208.199 159.576 207.929 159.576 207.659 159.849C207.389 160.122 207.254 160.395 206.984 161.623C206.714 162.85 205.229 163.532 205.229 163.532C205.229 163.532 195.241 167.215 194.161 167.488C193.216 167.761 192.676 167.215 192.676 167.215L187.412 159.986L182.823 163.942Z" fill="#FFBF99"/>
<path d="M174.457 141.843C174.457 141.843 174.457 141.843 174.457 145.663C174.457 149.482 178.102 152.347 178.102 152.347C178.102 152.347 178.102 154.802 174.322 155.621C170.543 156.303 166.764 151.801 166.764 151.801C166.764 151.801 167.304 150.437 168.518 147.299C169.733 144.026 170.273 141.025 170.273 141.025L174.457 141.843Z" fill="#FFBF99"/>
<path d="M179.181 160.804L182.825 165.033L188.089 159.849C188.089 159.849 184.31 155.348 182.96 154.257C181.61 153.302 178.506 151.392 178.506 151.392L179.181 160.804Z" fill="#0064B7"/>
<path d="M166.362 149.891C166.362 149.891 165.687 150.573 162.718 154.257C160.018 157.94 157.184 175.4 157.184 175.4L157.454 188.632H183.639C183.639 188.632 183.909 179.493 183.639 171.035C183.369 162.714 182.964 158.894 181.614 156.303C180.264 153.711 178.915 151.938 177.97 151.255C177.295 150.573 176.485 151.119 176.485 151.119L175.945 151.938C175.945 151.938 174.73 153.984 172.166 153.302C169.466 152.756 167.712 150.028 167.712 150.028C167.037 149.073 166.362 149.891 166.362 149.891Z" fill="#0083F9"/>
<path d="M175 132.158C172.301 132.158 169.331 137.887 169.331 140.343C169.331 142.798 170.546 142.798 171.086 144.162C171.626 145.526 175.54 146.89 177.295 146.89C179.049 146.89 179.994 143.616 179.994 139.251C179.994 134.886 177.969 132.021 177.969 132.021C177.969 132.021 177.295 132.158 175 132.158Z" fill="#FFBF99"/>
<path d="M176.075 133.522C173.646 134.068 173.376 134.068 172.296 135.295C171.081 136.523 170.541 139.797 170.541 139.797C170.541 139.797 170.228 141.707 169.958 142.661C169.553 143.48 169.626 144.826 169.192 145.253C169.057 145.935 168.517 145.935 167.842 145.935C167.302 145.935 166.087 145.253 164.602 142.661C163.253 139.933 163.793 137.341 163.928 136.932C164.602 135.568 164.602 133.113 164.602 132.431C164.602 131.749 164.602 131.066 165.952 129.702C167.167 128.338 173.511 128.338 173.511 128.338C174.186 128.338 175.535 128.338 176.21 127.656C176.885 126.974 179.45 125.61 180.664 126.292C181.879 126.974 180.125 132.021 180.125 132.021C179.315 134.204 178.775 132.703 176.075 133.522Z" fill="#1A1155"/>
<path d="M169.331 138.569C169.331 140.615 171.086 139.933 171.086 139.933C171.086 139.933 172.301 137.887 171.356 136.932C170.546 135.704 169.331 136.659 169.331 138.569Z" fill="#EEBD98"/>
<path d="M167.035 165.715C167.035 165.715 164.875 167.897 163.39 174.309C161.636 180.856 163.12 189.45 164.2 193.679C165.55 198.044 167.035 200.363 168.384 201.727C169.734 203.091 168.384 203.091 166.9 202.273C165.415 201.455 166.495 202.955 166.495 202.955C166.495 202.955 168.249 203.91 169.194 205.138C170.004 206.093 168.789 206.093 168.789 206.093C169.194 206.775 168.114 206.775 168.114 206.775C168.384 208.139 166.765 207.457 166.765 207.457C166.765 207.457 165.82 206.775 164.47 205.41C163.12 204.046 162.175 201.591 162.175 199.408C162.04 197.226 161.501 196.135 160.016 192.861C158.666 189.178 157.046 184.403 156.506 178.537C156.102 172.808 158.531 163.532 158.531 163.532L167.035 165.715Z" fill="#FFBF99"/>
<path d="M147.733 259.429C147.733 259.429 145.978 261.885 145.438 263.112C144.763 264.34 146.113 265.159 146.113 265.159C146.113 265.159 156.236 271.843 158.126 272.798C160.015 273.752 158.396 271.024 158.396 271.024C158.396 271.024 157.181 269.796 155.966 268.16C154.616 266.386 153.267 262.84 153.267 262.84L147.733 259.429Z" fill="#1A1155"/>
<path d="M171.622 265.158H178.506C178.506 266.386 179.046 266.522 179.046 266.522C179.046 266.522 185.12 269.251 187.279 270.342C189.439 271.16 187.144 271.842 187.144 271.842C187.144 271.842 175.401 271.842 173.242 271.842C171.082 271.842 171.487 270.887 171.487 270.887L171.622 265.158Z" fill="#1A1155"/>
<path d="M166.761 166.806C165.006 166.806 158.527 164.078 158.527 164.078C158.527 164.078 159.067 162.032 160.147 159.44C161.092 156.712 163.116 152.756 166.221 153.165C169.19 153.574 168.92 157.803 168.92 157.803C168.381 162.032 166.896 166.67 166.761 166.806Z" fill="#0064B7"/>
<path d="M250.33 129.655C250.324 129.556 250.303 129.261 250.303 129.261C250.17 128.776 249.539 128.226 249.118 127.859C248.085 127.239 247.073 126.913 246.095 127.08C245.702 127.107 245.413 127.226 245.04 127.549C241.204 129.3 239.499 127.538 239.499 127.538C239.499 127.538 235.749 124.831 234.505 128.281C233.261 131.731 236.063 133.614 237.027 133.25C238.005 133.083 241.332 132.555 242.222 133.977C243.309 135.386 245.255 136.339 245.923 135.996C246.409 135.863 246.661 136.637 246.688 137.031C246.736 137.72 246.397 138.535 245.84 139.068C245.749 139.174 245.474 139.49 245.481 139.588C245.487 139.686 245.487 139.686 245.508 139.982C245.576 140.966 245.716 141.55 246.08 142.514C246.226 143.197 246.798 145.729 248.05 145.246C249.795 144.729 253.8 142.571 252.948 136.002C252.948 136.002 253.164 133.415 251.493 132.146C251.072 131.78 250.264 131.539 250.209 130.751C249.808 130.68 250.161 130.062 250.33 129.655Z" fill="#1F1954"/>
<path d="M237.71 132.016C237.71 132.016 234.366 136.7 236.191 143.894C236.191 143.894 237.411 146.777 239.46 146.932C241.293 146.903 240.727 149.02 240.761 149.512C240.458 151.017 240.301 150.237 239.782 151.559C239.458 152.769 241.55 154.998 243.375 154.871C245.201 154.744 248.398 152.345 248.83 151.227C249.262 150.109 248.928 146.768 247.662 144.68C246.396 142.591 246.873 139.195 246.873 139.195C246.873 139.195 250.53 136.072 247.275 134.715C244.353 133.731 238.386 131.474 237.71 132.016Z" fill="#F9BC97"/>
<path d="M249.54 187.163L244.951 265.463H238.067C238.067 265.463 236.447 241.591 236.043 234.497C235.638 227.541 232.803 187.572 232.803 187.572L249.54 187.163Z" fill="#0064B7"/>
<path d="M240.635 187.026C240.095 197.667 243.334 216.355 247.383 228.905C251.568 241.454 263.446 262.735 263.446 262.735L268.979 259.461C268.979 259.461 265.74 251.003 263.446 243.091C261.286 235.452 257.372 217.855 257.642 212.808C258.047 207.625 258.856 187.572 258.856 187.572L240.635 187.026Z" fill="#0083F9"/>
<path d="M233.752 163.428L233.482 165.201C233.482 165.201 228.353 170.794 226.058 172.84C223.764 175.023 220.254 172.977 220.254 172.977C220.254 172.977 209.996 167.247 208.647 166.292C207.162 165.338 206.487 165.474 206.487 165.474C206.487 165.474 205.542 165.474 204.327 165.474C203.383 165.474 203.653 164.792 203.653 164.792C203.653 164.792 203.653 162.473 203.653 160.972C203.653 159.472 205.002 159.472 205.002 159.472L207.162 159.336C207.162 159.336 207.027 157.971 207.297 157.562C207.567 157.153 207.972 156.88 208.512 156.88C209.186 156.88 208.782 157.426 208.782 157.426C208.782 157.426 208.782 157.699 208.512 158.381C208.377 159.063 208.647 159.063 208.917 159.336C209.186 159.608 209.321 159.881 209.591 161.109C209.861 162.337 211.346 163.019 211.346 163.019C211.346 163.019 221.334 166.702 222.414 166.975C223.359 167.247 223.899 166.702 223.899 166.702L229.163 159.472L233.752 163.428Z" fill="#FFBF99"/>
<path d="M237.392 160.29L233.748 164.519L228.484 159.335C228.484 159.335 232.263 154.834 233.613 153.742C234.963 152.788 238.267 150.979 238.267 150.979L237.392 160.29Z" fill="#F79F03"/>
<path d="M250.213 149.377C250.213 149.377 250.888 150.059 253.858 153.742C256.557 157.425 259.392 174.886 259.392 174.886L259.122 188.118H232.936C232.936 188.118 232.667 178.978 232.936 170.521C233.206 162.2 233.611 158.38 234.961 155.789C236.311 153.197 237.661 151.423 238.605 150.741C239.28 150.059 240.09 150.605 240.09 150.605L240.63 151.423C240.63 151.423 241.845 153.47 244.409 152.787C247.109 152.242 248.864 149.514 248.864 149.514C249.538 148.559 250.213 149.377 250.213 149.377Z" fill="#FCBE42"/>
<path d="M249.541 165.201C249.541 165.201 251.7 167.383 253.185 173.795C254.94 180.342 253.455 188.936 252.375 193.165C251.025 197.53 249.541 199.849 248.191 201.213C246.841 202.577 248.191 202.577 249.676 201.759C251.16 200.94 250.081 202.441 250.081 202.441C250.081 202.441 248.326 203.396 247.381 204.623C246.571 205.578 247.786 205.578 247.786 205.578C247.381 206.26 248.461 206.26 248.461 206.26C248.191 207.625 249.811 206.942 249.811 206.942C249.811 206.942 250.755 206.26 252.105 204.896C253.455 203.532 254.4 201.077 254.4 198.894C254.535 196.712 255.075 195.62 256.559 192.346C257.909 188.663 259.529 183.889 260.069 178.023C260.474 172.294 258.044 163.018 258.044 163.018L249.541 165.201Z" fill="#FFBF99"/>
<path d="M268.843 258.915C268.843 258.915 270.597 261.371 271.137 262.598C271.812 263.826 270.462 264.645 270.462 264.645C270.462 264.645 260.339 271.329 258.45 272.284C256.56 273.238 258.18 270.51 258.18 270.51C258.18 270.51 259.394 269.283 260.609 267.646C261.959 265.872 263.309 262.326 263.309 262.326L268.843 258.915Z" fill="#1A1155"/>
<path d="M244.953 264.645H238.069C238.069 265.872 237.529 266.009 237.529 266.009C237.529 266.009 231.456 268.737 229.296 269.828C227.136 270.647 229.431 271.329 229.431 271.329C229.431 271.329 241.174 271.329 243.333 271.329C245.493 271.329 245.088 270.374 245.088 270.374L244.953 264.645Z" fill="#1A1155"/>
<path d="M249.814 166.292C251.569 166.292 258.048 163.564 258.048 163.564C258.048 163.564 257.508 161.518 256.428 158.926C255.483 156.198 253.459 152.242 250.354 152.651C247.385 153.06 247.655 157.289 247.655 157.289C248.195 161.518 249.679 166.156 249.814 166.292Z" fill="#F79F03"/>
<path d="M94.9413 232.243C94.9413 232.243 97.2489 231.266 97.0714 228.692C96.8939 226.03 95.5626 224.166 98.314 224.965C101.154 225.763 102.042 226.03 104.083 225.675C106.125 225.231 107.811 224.432 106.923 227.006C106.036 229.669 105.059 231.799 107.19 232.243C109.32 232.686 111.539 231.089 111.805 235.172C112.071 239.254 108.787 243.958 103.373 244.047C98.0477 244.225 95.6513 242.006 95.6513 242.006C95.6513 242.006 94.2312 239.964 96.4501 239.432C98.669 238.899 100.977 238.012 99.8229 236.947C98.669 235.882 94.9413 235.793 94.9413 235.793C94.9413 235.793 90.2372 234.994 94.9413 232.243Z" fill="#649CE8"/>
<path d="M119.439 232.953C119.084 230.29 119.35 228.426 124.232 227.716C129.113 227.006 131.954 229.935 132.22 232.953C132.486 235.971 128.315 237.036 128.315 237.036C128.315 237.036 125.297 237.923 126.806 240.497C128.315 243.16 129.025 245.645 125.563 246.089C122.102 246.444 118.285 245.556 116.155 244.136C114.025 242.716 111.895 239.166 114.291 237.302C114.291 237.302 115.001 236.858 117.309 236.681C119.705 236.592 119.439 232.953 119.439 232.953Z" fill="#023E9F"/>
<path d="M102.307 232.509C102.307 232.509 106.389 241.651 106.922 247.864" stroke="#023E9F" stroke-width="0.682893" stroke-miterlimit="10"/>
<path d="M124.762 234.018C124.762 234.018 117.573 244.669 115.887 248.219" stroke="#649CE8" stroke-width="0.682893" stroke-miterlimit="10"/>
<path d="M104.35 247.154H120.769C120.769 247.154 122.545 247.243 122.456 249.728C122.367 252.035 119.438 251.503 117.929 251.503C116.42 251.503 103.995 251.503 103.995 251.503C103.995 251.503 101.953 251.858 101.953 249.55C102.042 247.331 102.752 247.154 104.35 247.154Z" fill="#0055A2"/>
<path d="M104.084 251.503L106.569 266.059H117.575L119.439 255.142L104.084 251.503Z" fill="#0055A2"/>
<path d="M104.084 251.503L119.439 255.142L120.06 251.503H104.084Z" fill="#016AD3"/>
<path d="M111.097 247.686C111.097 247.686 111.895 231.533 116.777 221.414" stroke="#FABC43" stroke-width="0.682893" stroke-miterlimit="10"/>
<path d="M120.769 215.646C120.769 215.646 121.124 220.616 116.331 222.568C116.331 222.568 115.266 218.308 120.769 215.646Z" fill="#FABC43"/>
<path d="M113.491 231.444C113.491 231.444 115.266 227.184 120.769 227.805C120.769 227.716 120.325 231.977 113.491 231.444Z" fill="#FABC43"/>
<path d="M111.716 242.006C111.716 242.006 112.603 237.479 118.106 237.036C118.106 237.036 118.461 241.207 111.716 242.006Z" fill="#FABC43"/>
<path d="M111.45 242.095C111.45 242.095 112.072 237.568 107.101 235.261C107.101 235.172 105.326 239.077 111.45 242.095Z" fill="#FABC43"/>
<path d="M113.578 231.355C113.578 231.355 114.821 226.918 110.117 223.989C110.117 223.989 107.809 227.628 113.578 231.355Z" fill="#FABC43"/>
<path d="M295.104 13.3571C294.703 13.9379 294.301 14.4218 293.8 14.9058L294.301 16.648L291.342 18.0999L290.038 16.648C289.336 16.8416 288.634 16.8416 287.932 16.8416L286.929 18.487L283.769 17.6159L283.969 15.7769C283.368 15.3897 282.866 15.0026 282.364 14.5186L280.459 15.0026L278.954 12.244L280.459 10.9857C280.258 10.3082 280.258 9.63068 280.258 8.95314L278.553 7.98523L279.456 4.93633L281.361 5.12991C281.763 4.54916 282.164 4.06521 282.665 3.58125L282.164 1.83902L285.023 0.387162L286.327 1.83902C287.029 1.64544 287.731 1.64544 288.433 1.64544L289.436 0L292.596 0.871116L292.395 2.80693C292.997 3.19409 293.499 3.58125 294 4.06521L295.806 3.58125L297.311 6.33979L296.007 7.59807C296.307 8.27561 296.308 8.95314 296.308 9.63067L298.013 10.5986L297.11 13.5507L295.104 13.3571ZM291.743 10.3566C292.345 8.61437 291.242 6.72695 289.537 6.243C287.731 5.66225 285.775 6.72695 285.273 8.3724C284.672 10.1146 285.775 12.002 287.48 12.486C289.186 13.0667 291.142 12.0988 291.743 10.3566Z" fill="#EE384E"/>
<path d="M296.093 230.432L290.634 231.992L292.194 237.451L297.653 235.891L296.093 230.432Z" fill="#EE384E"/>
<path d="M157.926 2.74939L152.467 4.30928L154.027 9.76893L159.486 8.20902L157.926 2.74939Z" fill="#023EA1"/>
</svg>
