<svg width="363" height="265" viewBox="0 0 363 265" fill="none" xmlns="http://www.w3.org/2000/svg">
<path d="M78.1152 106.605L55.8636 117.767C54.1966 118.492 53.1094 120.086 53.1094 121.898V132.263C53.1094 141.54 55.7187 150.745 61.0098 158.863C64.9962 164.952 70.3598 172.78 79.13 177.201H83.1889C93.0462 174.229 100.367 166.184 104.861 159.371C110.224 151.253 112.761 142.048 112.761 132.77V121.826C112.761 120.014 111.674 118.419 110.007 117.694L84.711 106.895C83.5513 106.46 79.2024 106.097 78.1152 106.605Z" fill="#FF725E"/>
<path d="M78.1152 106.605L55.8636 117.767C54.1966 118.492 53.1094 120.086 53.1094 121.898V132.263C53.1094 141.54 55.7187 150.745 61.0098 158.863C64.9962 164.952 70.3598 172.78 79.13 177.201H83.1889C93.0462 174.229 100.367 166.184 104.861 159.371C110.224 151.253 112.761 142.048 112.761 132.77V121.826C112.761 120.014 111.674 118.419 110.007 117.694L84.711 106.895C83.5513 106.46 79.2024 106.097 78.1152 106.605Z" fill="#042F53"/>
<path d="M77.175 106.966L51.8793 117.766C50.2122 118.491 49.125 120.085 49.125 121.897V132.262C49.125 141.54 51.7343 150.745 57.0254 158.862C61.5192 165.676 68.4774 172.779 79.132 177.2C88.9894 174.228 96.3099 166.183 100.804 159.37C106.167 151.252 108.704 142.047 108.704 132.769V121.825C108.704 120.013 107.617 118.418 105.95 117.693L80.6541 106.894C79.5669 106.459 78.3347 106.459 77.175 106.966Z" fill="#DE151F"/>
<path d="M84.984 154.099C93.5303 150.785 97.7713 141.169 94.4565 132.623C91.1418 124.077 81.5265 119.836 72.9803 123.15C64.434 126.465 60.193 136.08 63.5077 144.627C66.8225 153.173 76.4377 157.414 84.984 154.099Z" fill="white"/>
<path d="M78.9853 139.583C82.7881 139.583 85.8709 136.5 85.8709 132.697C85.8709 128.894 82.7881 125.812 78.9853 125.812C75.1824 125.812 72.0996 128.894 72.0996 132.697C72.0996 136.5 75.1824 139.583 78.9853 139.583Z" fill="#0064E1"/>
<path d="M66.373 149.441C66.373 149.441 69.5622 141.758 78.6948 141.758C87.8273 141.758 91.5239 149.441 91.5239 149.441C91.5239 149.441 87.4649 155.457 78.4773 155.239C70.287 155.022 66.373 149.441 66.373 149.441Z" fill="#0064E1"/>
<path d="M95.5831 138.641C95.5831 138.641 95.5831 138.568 95.5831 138.351C95.5831 138.134 95.5831 137.916 95.5106 137.554C95.5106 137.409 95.5106 137.191 95.4381 136.974C95.4381 136.756 95.3657 136.539 95.2932 136.249C95.2207 135.742 95.1482 135.162 94.9308 134.51C94.6409 133.205 94.061 131.755 93.1188 130.088C92.1765 128.494 90.7994 126.827 88.9149 125.449C87.0304 124.072 84.711 122.84 81.9567 122.405C79.2749 121.97 76.2308 122.043 73.3315 123.13C72.6067 123.347 71.8819 123.71 71.1571 124.072C70.5048 124.507 69.78 124.87 69.1276 125.377C68.4753 125.812 67.8955 126.392 67.2431 126.972C66.6633 127.551 66.0834 128.204 65.6486 128.856C64.7063 130.233 63.8365 131.755 63.3292 133.35C62.8218 135.017 62.5319 136.756 62.4594 138.496C62.4594 140.308 62.7493 142.047 63.3292 143.642C63.8365 145.309 64.7063 146.831 65.6486 148.136C66.1559 148.861 66.7358 149.441 67.2431 150.02C67.823 150.6 68.4028 151.18 69.1276 151.615C69.78 152.122 70.4323 152.485 71.1571 152.92C71.8819 153.282 72.5342 153.644 73.3315 153.862C76.2308 154.949 79.2749 155.022 81.9567 154.587C84.6385 154.079 87.0304 152.92 88.9149 151.542C90.7994 150.165 92.1765 148.498 93.1188 146.904C94.061 145.309 94.6409 143.787 94.9308 142.482C95.1482 141.83 95.2207 141.25 95.2932 140.743C95.3657 140.525 95.3657 140.235 95.4381 140.018C95.4381 139.801 95.4381 139.583 95.5106 139.438C95.5106 139.076 95.5831 138.858 95.5831 138.641C95.5831 138.641 95.5831 138.713 95.5831 138.931C95.5831 139.148 95.5831 139.366 95.5831 139.728C95.5831 139.873 95.5831 140.091 95.5831 140.308C95.5831 140.525 95.5106 140.743 95.5106 141.033C95.4381 141.54 95.3657 142.12 95.2207 142.772C94.9308 144.077 94.3509 145.599 93.4087 147.266C92.4664 148.861 91.0893 150.6 89.2048 152.05C87.3203 153.499 84.9284 154.732 82.1742 155.239C79.4199 155.746 76.3032 155.674 73.3315 154.514C72.6067 154.297 71.8819 153.934 71.1571 153.572C70.4323 153.137 69.7075 152.775 69.1276 152.267C68.4753 151.832 67.823 151.18 67.2431 150.673C66.6633 150.02 66.0835 149.441 65.5761 148.716C64.5614 147.339 63.6916 145.816 63.1842 144.077C62.6044 142.41 62.3145 140.598 62.3145 138.786C62.3145 136.974 62.6044 135.162 63.1842 133.495C63.6916 131.828 64.5614 130.233 65.5761 128.856C66.0835 128.131 66.6633 127.551 67.2431 126.899C67.8955 126.319 68.4753 125.739 69.1276 125.304C69.78 124.797 70.5048 124.435 71.1571 124C71.8819 123.637 72.6067 123.275 73.3315 123.058C76.3032 121.97 79.4199 121.898 82.1742 122.333C84.9284 122.84 87.3203 124.072 89.2048 125.522C91.0893 126.972 92.4664 128.639 93.4087 130.306C94.3509 131.9 94.9308 133.495 95.2207 134.799C95.4381 135.452 95.4381 136.032 95.5106 136.539C95.5106 136.756 95.5831 137.046 95.5831 137.264C95.5831 137.481 95.5831 137.699 95.5831 137.844C95.5831 138.206 95.5831 138.423 95.5831 138.641Z" fill="#263238"/>
<path d="M108.703 130.016C108.703 130.016 108.704 130.161 108.776 130.523C108.776 130.885 108.776 131.32 108.848 131.9C108.848 132.48 108.921 133.205 108.848 134.075C108.848 134.509 108.848 134.944 108.776 135.452C108.776 135.959 108.776 136.466 108.703 136.974C108.631 138.061 108.559 139.221 108.341 140.453C108.269 141.105 108.196 141.757 108.051 142.41C107.906 143.062 107.761 143.714 107.616 144.439C106.964 147.194 106.022 150.165 104.717 153.209C103.34 156.181 101.818 158.863 100.151 161.255C99.281 162.414 98.5562 163.502 97.6864 164.444C97.2515 164.951 96.8891 165.386 96.5267 165.821C96.0919 166.256 95.7295 166.618 95.367 167.053C94.6422 167.851 93.9174 168.503 93.2651 169.083C92.6853 169.663 92.1054 170.17 91.5981 170.532C91.1632 170.895 90.8008 171.185 90.5108 171.402C90.2934 171.62 90.1484 171.692 90.1484 171.692C90.1484 171.692 90.2934 171.547 90.5108 171.33C90.8008 171.112 91.0907 170.822 91.5256 170.387C91.9605 170.025 92.5403 169.518 93.1201 168.938C93.7 168.358 94.4248 167.706 95.1496 166.908C95.512 166.546 95.8744 166.111 96.3093 165.676C96.6717 165.241 97.0341 164.734 97.469 164.299C98.2663 163.357 99.0636 162.27 99.8609 161.11C101.455 158.79 102.978 156.109 104.355 153.137C105.659 150.165 106.602 147.194 107.254 144.439C107.399 143.787 107.544 143.062 107.689 142.41C107.834 141.757 107.906 141.105 107.979 140.525C108.196 139.293 108.269 138.133 108.414 137.046C108.486 136.539 108.486 136.032 108.559 135.524C108.559 135.017 108.631 134.582 108.631 134.147C108.704 133.277 108.703 132.552 108.703 131.973C108.703 131.393 108.703 130.958 108.703 130.595C108.703 130.161 108.703 130.016 108.703 130.016Z" fill="#263238"/>
<path d="M248.25 248.814H118.549C115.039 248.814 112.188 245.853 112.188 242.233L112.242 44.0351C112.242 40.4156 115.094 37.4541 118.604 37.4541H248.25C251.76 37.4541 254.612 40.4156 254.612 44.0351V242.233C254.612 245.853 251.76 248.814 248.25 248.814Z" fill="#0064B7"/>
<path d="M185.903 239.214C185.903 242.504 183.216 245.137 179.87 245.137C176.525 245.137 173.838 242.504 173.838 239.214C173.838 235.923 176.525 233.291 179.87 233.291C183.216 233.291 185.903 235.923 185.903 239.214Z" fill="white"/>
<path d="M198 48.6338H168.933C167.837 48.6338 166.904 47.7015 166.904 46.5498C166.904 45.3981 167.837 44.4658 168.933 44.4658H198C199.096 44.4658 200.029 45.3981 200.029 46.5498C200.029 47.7015 199.151 48.6338 198 48.6338Z" fill="#FDFDFD"/>
<path d="M249.692 52.5264H116.262V229.062H249.692V52.5264Z" fill="white"/>
<path d="M154.59 65.2129C155.077 65.2129 155.502 65.3083 155.884 65.4992C156.255 65.6901 156.541 65.9553 156.743 66.2946C156.944 66.634 157.05 67.037 157.05 67.4931C157.05 67.9597 156.944 68.3627 156.743 68.7021C156.53 69.0521 156.244 69.3172 155.873 69.5081C155.502 69.699 155.077 69.7838 154.59 69.7838H152.659V72.6367H151.737V65.2129H154.59ZM152.659 68.9354H154.505C154.993 68.9354 155.374 68.8081 155.671 68.543C155.958 68.2885 156.106 67.9385 156.106 67.4931C156.106 67.0582 155.958 66.7082 155.671 66.4537C155.385 66.1992 155.003 66.0613 154.515 66.0613H152.659V68.9354ZM160.653 67.2279V68.0764H160.219C159.699 68.0764 159.328 68.2566 159.105 68.596C158.882 68.946 158.776 69.3702 158.776 69.8793V72.6367H157.907V67.2279H158.66L158.776 68.0445C158.925 67.8006 159.126 67.5991 159.381 67.4506C159.625 67.3022 159.964 67.2279 160.409 67.2279H160.653ZM162.286 65.2977C162.392 65.4038 162.445 65.5416 162.445 65.7007C162.445 65.8704 162.392 65.9977 162.286 66.1037C162.18 66.2098 162.042 66.2628 161.883 66.2628C161.714 66.2628 161.586 66.2098 161.48 66.1037C161.374 65.9977 161.321 65.8704 161.321 65.7007C161.321 65.5416 161.374 65.4038 161.48 65.2977C161.586 65.1917 161.714 65.1386 161.883 65.1386C162.042 65.1386 162.18 65.1917 162.286 65.2977ZM161.449 67.2279H162.318V72.6367H161.449V67.2279ZM162.969 67.2279H163.902L165.535 71.6504L167.158 67.2279H168.07L166.044 72.6367H164.994L162.969 67.2279ZM173.571 71.8413V72.6367H173.094C172.744 72.6367 172.5 72.5731 172.351 72.4246C172.203 72.2867 172.118 72.0746 172.118 71.7989C171.694 72.4034 171.089 72.7004 170.304 72.7004C169.7 72.7004 169.212 72.5625 168.851 72.2761C168.491 72.0004 168.311 71.608 168.311 71.1201C168.311 70.5793 168.491 70.1656 168.862 69.8687C169.233 69.5823 169.774 69.4339 170.485 69.4339H172.075V69.0627C172.075 68.7127 171.948 68.4369 171.715 68.2354C171.482 68.0445 171.153 67.9385 170.729 67.9385C170.347 67.9385 170.039 68.0233 169.795 68.193C169.551 68.3627 169.403 68.5748 169.35 68.8506H168.48C168.544 68.3203 168.777 67.9067 169.18 67.6097C169.583 67.3128 170.113 67.1643 170.771 67.1643C171.46 67.1643 171.991 67.334 172.372 67.6733C172.754 68.0127 172.945 68.49 172.945 69.1157V71.4489C172.945 71.714 173.062 71.8413 173.306 71.8413H173.571ZM172.075 70.1656H170.4C169.594 70.1656 169.191 70.4732 169.191 71.0671C169.191 71.3428 169.297 71.555 169.509 71.714C169.721 71.8837 170.007 71.958 170.368 71.958C170.898 71.958 171.312 71.8201 171.619 71.5444C171.916 71.2686 172.075 70.8974 172.075 70.4308V70.1656ZM178.269 72.1913C177.845 72.5307 177.315 72.7004 176.679 72.7004C176.148 72.7004 175.692 72.5837 175.3 72.3504C174.897 72.117 174.589 71.7989 174.377 71.3747C174.155 70.9504 174.048 70.4732 174.048 69.9217C174.048 69.3808 174.155 68.9036 174.377 68.4794C174.6 68.0657 174.918 67.7476 175.321 67.5143C175.724 67.2809 176.18 67.1643 176.71 67.1643C177.347 67.1643 177.866 67.334 178.28 67.6733C178.694 68.0127 178.959 68.4794 179.065 69.0733H178.185C178.1 68.7339 177.92 68.4582 177.654 68.246C177.379 68.0445 177.06 67.9385 176.679 67.9385C176.159 67.9385 175.735 68.1294 175.417 68.49C175.098 68.8612 174.939 69.3384 174.939 69.9217C174.939 70.5156 175.098 71.0035 175.417 71.3747C175.735 71.7459 176.159 71.9262 176.679 71.9262C177.071 71.9262 177.4 71.8307 177.676 71.6186C177.941 71.4171 178.11 71.1307 178.195 70.7702H179.065C178.948 71.3747 178.683 71.8519 178.269 72.1913ZM180.245 67.2279L181.91 71.6398L183.522 67.2279H184.445L181.952 73.5488C181.825 73.8776 181.709 74.1215 181.613 74.2806C181.507 74.4503 181.39 74.5669 181.242 74.6412C181.093 74.726 180.892 74.7578 180.648 74.7578H179.609V73.9624H180.383C180.553 73.9624 180.68 73.9518 180.765 73.9094C180.85 73.8776 180.913 73.8245 180.966 73.7397C181.019 73.6548 181.083 73.517 181.168 73.3261L181.443 72.6791L179.322 67.2279H180.245ZM190.849 65.2129C191.337 65.2129 191.761 65.3083 192.143 65.4992C192.514 65.6901 192.801 65.9553 193.002 66.2946C193.204 66.634 193.31 67.037 193.31 67.4931C193.31 67.9597 193.204 68.3627 193.002 68.7021C192.79 69.0521 192.504 69.3172 192.133 69.5081C191.761 69.699 191.337 69.7838 190.849 69.7838H188.919V72.6367H187.996V65.2129H190.849ZM188.919 68.9354H190.764C191.252 68.9354 191.634 68.8081 191.931 68.543C192.217 68.2885 192.366 67.9385 192.366 67.4931C192.366 67.0582 192.217 66.7082 191.931 66.4537C191.645 66.1992 191.263 66.0613 190.775 66.0613H188.919V68.9354ZM194.979 72.3504C194.576 72.117 194.258 71.7989 194.035 71.3747C193.802 70.961 193.696 70.4838 193.696 69.9323C193.696 69.3914 193.802 68.9142 194.035 68.49C194.258 68.0764 194.576 67.7476 194.979 67.5143C195.382 67.2809 195.849 67.1643 196.379 67.1643C196.898 67.1643 197.365 67.2809 197.768 67.5143C198.171 67.7476 198.489 68.0764 198.723 68.49C198.945 68.9142 199.062 69.3914 199.062 69.9323C199.062 70.4838 198.945 70.961 198.723 71.3747C198.489 71.7989 198.171 72.117 197.768 72.3504C197.365 72.5837 196.898 72.7004 196.379 72.7004C195.849 72.7004 195.382 72.5837 194.979 72.3504ZM197.312 71.6716C197.588 71.5019 197.8 71.2686 197.948 70.961C198.097 70.6641 198.171 70.3141 198.171 69.9323C198.171 69.5505 198.097 69.2111 197.948 68.9036C197.8 68.6066 197.588 68.3627 197.312 68.193C197.036 68.0233 196.729 67.9385 196.379 67.9385C196.018 67.9385 195.711 68.0233 195.435 68.193C195.159 68.3627 194.958 68.6066 194.809 68.9036C194.661 69.2111 194.586 69.5505 194.586 69.9323C194.586 70.3141 194.661 70.6641 194.809 70.961C194.958 71.2686 195.159 71.5019 195.435 71.6716C195.711 71.8413 196.018 71.9262 196.379 71.9262C196.729 71.9262 197.036 71.8413 197.312 71.6716ZM200.059 65.2129H200.929V72.6367H200.059V65.2129ZM202.958 65.2977C203.064 65.4038 203.117 65.5416 203.117 65.7007C203.117 65.8704 203.064 65.9977 202.958 66.1037C202.852 66.2098 202.714 66.2628 202.555 66.2628C202.385 66.2628 202.258 66.2098 202.152 66.1037C202.046 65.9977 201.993 65.8704 201.993 65.7007C201.993 65.5416 202.046 65.4038 202.152 65.2977C202.258 65.1917 202.385 65.1386 202.555 65.1386C202.714 65.1386 202.852 65.1917 202.958 65.2977ZM202.12 67.2279H202.99V72.6367H202.12V67.2279ZM208.211 72.1913C207.787 72.5307 207.257 72.7004 206.621 72.7004C206.09 72.7004 205.634 72.5837 205.242 72.3504C204.839 72.117 204.531 71.7989 204.319 71.3747C204.096 70.9504 203.99 70.4732 203.99 69.9217C203.99 69.3808 204.096 68.9036 204.319 68.4794C204.542 68.0657 204.86 67.7476 205.263 67.5143C205.666 67.2809 206.122 67.1643 206.652 67.1643C207.289 67.1643 207.808 67.334 208.222 67.6733C208.636 68.0127 208.901 68.4794 209.007 69.0733H208.127C208.042 68.7339 207.861 68.4582 207.596 68.246C207.321 68.0445 207.002 67.9385 206.621 67.9385C206.101 67.9385 205.677 68.1294 205.358 68.49C205.04 68.8612 204.881 69.3384 204.881 69.9217C204.881 70.5156 205.04 71.0035 205.358 71.3747C205.677 71.7459 206.101 71.9262 206.621 71.9262C207.013 71.9262 207.342 71.8307 207.617 71.6186C207.883 71.4171 208.052 71.1307 208.137 70.7702H209.007C208.89 71.3747 208.625 71.8519 208.211 72.1913ZM210.187 67.2279L211.852 71.6398L213.464 67.2279H214.387L211.894 73.5488C211.767 73.8776 211.65 74.1215 211.555 74.2806C211.449 74.4503 211.332 74.5669 211.184 74.6412C211.035 74.726 210.834 74.7578 210.59 74.7578H209.551V73.9624H210.325C210.494 73.9624 210.622 73.9518 210.707 73.9094C210.791 73.8776 210.855 73.8245 210.908 73.7397C210.961 73.6548 211.025 73.517 211.11 73.3261L211.385 72.6791L209.264 67.2279H210.187Z" fill="#1A1A1A"/>
<path d="M249.993 52.5244H244.289V229.06H249.993V52.5244Z" fill="#F5F5F5"/>
<path d="M247.142 115.921C246.155 115.921 245.387 115.154 245.387 114.167V75.1192C245.387 74.132 246.155 73.3643 247.142 73.3643C248.129 73.3643 248.897 74.132 248.897 75.1192V114.167C248.951 115.154 248.129 115.921 247.142 115.921Z" fill="#CCE5FF"/>
<path d="M232.605 92.6684H134.219C132.683 92.6684 131.367 91.407 131.367 89.8166C131.367 88.281 132.629 86.9648 134.219 86.9648H232.605C234.141 86.9648 235.457 88.2262 235.457 89.8166C235.457 91.407 234.141 92.6684 232.605 92.6684Z" fill="#EAF4FF"/>
<path d="M218.622 104.076H148.205C146.67 104.076 145.354 102.814 145.354 101.224C145.354 99.6883 146.615 98.3721 148.205 98.3721H218.622C220.158 98.3721 221.474 99.6334 221.474 101.224C221.474 102.814 220.213 104.076 218.622 104.076Z" fill="#EAF4FF"/>
<path d="M186.813 153.707H132.629C131.094 153.707 129.777 152.446 129.777 150.856C129.777 149.32 131.039 148.004 132.629 148.004H186.813C188.348 148.004 189.665 149.265 189.665 150.856C189.665 152.446 188.403 153.707 186.813 153.707Z" fill="#EAF4FF"/>
<path d="M231.015 141.862H132.629C131.094 141.862 129.777 140.6 129.777 139.01C129.777 137.474 131.039 136.158 132.629 136.158H231.015C232.551 136.158 233.867 137.42 233.867 139.01C233.867 140.6 232.551 141.862 231.015 141.862Z" fill="#EAF4FF"/>
<path d="M231.014 180.031H144.912C143.377 180.031 142.061 178.769 142.061 177.179C142.061 175.643 143.322 174.327 144.912 174.327H231.014C232.549 174.327 233.866 175.589 233.866 177.179C233.866 178.769 232.549 180.031 231.014 180.031Z" fill="#EAF4FF"/>
<path d="M231.015 192.151H132.629C131.094 192.151 129.777 190.889 129.777 189.299C129.777 187.763 131.039 186.447 132.629 186.447H231.015C232.551 186.447 233.867 187.709 233.867 189.299C233.867 190.889 232.551 192.151 231.015 192.151Z" fill="#EAF4FF"/>
<path d="M231.015 204.435H132.629C131.094 204.435 129.777 203.174 129.777 201.583C129.777 200.048 131.039 198.731 132.629 198.731H231.015C232.551 198.731 233.867 199.993 233.867 201.583C233.867 203.174 232.551 204.435 231.015 204.435Z" fill="#EAF4FF"/>
<path d="M137.071 177.233C137.071 178.878 135.755 180.194 134.11 180.194C132.465 180.194 131.148 178.878 131.148 177.233C131.148 175.588 132.465 174.271 134.11 174.271C135.755 174.271 137.071 175.588 137.071 177.233Z" fill="#EC384E"/>
<path d="M231.014 130.838H144.912C143.377 130.838 142.061 129.577 142.061 127.987C142.061 126.451 143.322 125.135 144.912 125.135H231.014C232.549 125.135 233.866 126.396 233.866 127.987C233.866 129.577 232.549 130.838 231.014 130.838Z" fill="#EAF4FF"/>
<path d="M134.163 130.947C135.798 130.947 137.124 129.621 137.124 127.986C137.124 126.35 135.798 125.024 134.163 125.024C132.527 125.024 131.201 126.35 131.201 127.986C131.201 129.621 132.527 130.947 134.163 130.947Z" fill="#EC384E"/>
<path d="M228.272 222.423H206.226C203.758 222.423 201.729 220.394 201.729 217.926C201.729 215.458 203.758 213.429 206.226 213.429H228.272C230.74 213.429 232.769 215.458 232.769 217.926C232.769 220.394 230.74 222.423 228.272 222.423Z" fill="#0064E1"/>
<path d="M105.954 2.30633L75.6575 17.5273C73.4106 18.4695 71.9609 20.7164 71.9609 23.1808V37.3145C71.9609 49.9262 75.5125 62.4653 82.7606 73.5549C88.1966 81.8902 95.4447 92.4723 107.476 98.5607H112.913C126.321 94.5018 136.251 83.6297 142.412 74.2797C149.66 63.1901 153.212 50.7235 153.212 38.0393V23.1083C153.212 20.644 151.762 18.3971 149.515 17.4548L114.942 2.8137C113.42 2.16137 107.476 1.65401 105.954 2.30633Z" fill="#FF725E"/>
<path d="M105.954 2.30633L75.6575 17.5273C73.4106 18.4695 71.9609 20.7164 71.9609 23.1808V37.3145C71.9609 49.9262 75.5125 62.4653 82.7606 73.5549C88.1966 81.8902 95.4447 92.4723 107.476 98.5607H112.913C126.321 94.5018 136.251 83.6297 142.412 74.2797C149.66 63.1901 153.212 50.7235 153.212 38.0393V23.1083C153.212 20.644 151.762 18.3971 149.515 17.4548L114.942 2.8137C113.42 2.16137 107.476 1.65401 105.954 2.30633Z" fill="#042F53"/>
<path d="M104.723 2.81249L70.2219 17.5261C67.975 18.4683 66.5254 20.7152 66.5254 23.1796V37.3133C66.5254 49.925 70.0769 62.4641 77.325 73.5537C83.4134 82.8312 92.9084 92.4711 107.477 98.5595C120.886 94.5006 130.816 83.6285 136.977 74.2785C144.225 63.1889 147.776 50.7222 147.776 38.0381V23.1071C147.776 20.6427 146.327 18.3958 144.08 17.4536L109.506 2.81249C107.984 2.16016 106.245 2.16016 104.723 2.81249Z" fill="#DE151F"/>
<path d="M147.561 34.125C147.561 34.125 147.561 34.1975 147.561 34.27C147.561 34.4149 147.561 34.5599 147.561 34.7773C147.561 35.2122 147.634 35.8645 147.634 36.6618C147.634 37.4591 147.706 38.4738 147.634 39.6335C147.634 40.2134 147.561 40.8657 147.561 41.518C147.561 41.8804 147.561 42.1704 147.561 42.5328C147.561 42.8952 147.489 43.2576 147.489 43.62C147.344 45.0696 147.271 46.6642 146.909 48.3312C146.764 49.201 146.692 50.0708 146.474 50.9405C146.257 51.8103 146.112 52.7525 145.894 53.6948C145.025 57.4638 143.72 61.5227 141.908 65.5816C140.096 69.6406 137.921 73.3371 135.747 76.4537C134.587 77.9758 133.573 79.4979 132.413 80.8026C131.833 81.4549 131.326 82.1072 130.818 82.6871C130.239 83.2669 129.731 83.8468 129.224 84.3541C128.282 85.4414 127.267 86.3111 126.397 87.1084C125.962 87.4708 125.6 87.9057 125.237 88.1956C124.875 88.4855 124.513 88.7755 124.223 89.0654C123.643 89.5728 123.135 89.9352 122.773 90.2251C122.628 90.37 122.483 90.4425 122.411 90.515C122.338 90.5875 122.266 90.5875 122.266 90.5875C122.266 90.5875 122.266 90.515 122.411 90.4425C122.483 90.37 122.628 90.2251 122.773 90.0801C123.135 89.7902 123.57 89.3553 124.15 88.8479C124.44 88.558 124.802 88.2681 125.165 87.9782C125.527 87.6158 125.89 87.2534 126.325 86.891C127.122 86.0937 128.137 85.2239 129.079 84.1367C129.586 83.6293 130.094 83.0495 130.601 82.4696C131.108 81.8898 131.616 81.2375 132.195 80.5851C133.283 79.2805 134.37 77.8309 135.457 76.2363C137.632 73.0471 139.733 69.4231 141.545 65.3642C143.358 61.3053 144.59 57.2463 145.532 53.5498C145.749 52.6076 145.967 51.6653 146.112 50.7956C146.329 49.9258 146.402 49.056 146.547 48.1863C146.837 46.5192 146.982 44.9246 147.127 43.475C147.199 43.1126 147.199 42.7502 147.271 42.3878C147.271 42.0254 147.271 41.7355 147.344 41.3731C147.344 40.7207 147.416 40.1409 147.416 39.5611C147.489 38.4014 147.489 37.3866 147.489 36.5893C147.489 35.7921 147.489 35.2122 147.489 34.7048C147.489 34.4874 147.489 34.3424 147.489 34.1975C147.561 34.1975 147.561 34.125 147.561 34.125Z" fill="#263238"/>
<path d="M120.738 53.1883H117.114V33.1836C117.114 28.4723 113.273 24.6309 108.562 24.6309C103.85 24.6309 100.009 28.4723 100.009 33.1836V53.1883H96.3125V33.1836C96.3125 26.4429 101.821 21.0068 108.489 21.0068C115.157 21.0068 120.738 26.4429 120.738 33.1836V53.1883Z" fill="#F5F5F5"/>
<path d="M120.814 65.3637H96.3152C93.9958 65.3637 92.1113 63.4792 92.1113 61.1598V43.7644C92.1113 41.445 93.9958 39.5605 96.3152 39.5605H120.814C123.133 39.5605 125.018 41.445 125.018 43.7644V61.1598C125.018 63.4792 123.133 65.3637 120.814 65.3637Z" fill="white"/>
<path d="M120.812 65.3624C120.812 65.3624 121.175 65.3624 121.9 65.1449C122.552 64.9275 123.639 64.4201 124.364 63.2604C124.726 62.6806 124.944 61.9558 124.944 61.086C124.944 60.2162 124.944 59.3465 124.944 58.3317C124.944 56.3748 124.944 54.1279 124.944 51.591C124.944 49.1267 124.944 46.3724 124.871 43.4732C124.799 42.0961 123.857 40.6464 122.479 40.0666C121.755 39.7767 121.03 39.7042 120.233 39.7042C119.435 39.7042 118.638 39.7042 117.768 39.7042C111.172 39.7042 103.924 39.7042 96.3139 39.7042C95.3717 39.7042 94.5019 39.9941 93.7771 40.574C93.0523 41.1538 92.5449 41.9511 92.3999 42.8209C92.3275 43.2558 92.255 43.6906 92.255 44.1255C92.255 44.5604 92.255 45.0678 92.255 45.5027C92.255 46.4449 92.255 47.3147 92.255 48.1844C92.255 51.736 92.255 55.2151 92.255 58.5492C92.3275 60.2162 91.9651 61.8833 92.8348 63.188C93.6321 64.4926 95.0817 65.2174 96.5313 65.1449C99.4306 65.1449 102.185 65.1449 104.649 65.1449C109.65 65.1449 113.637 65.2174 116.464 65.2174C117.841 65.2174 118.928 65.2174 119.653 65.2174C120.015 65.2174 120.305 65.2174 120.522 65.2174C120.667 65.3624 120.812 65.3624 120.812 65.3624C120.812 65.3624 120.74 65.3624 120.522 65.3624C120.305 65.3624 120.015 65.3624 119.653 65.3624C118.928 65.3624 117.841 65.3624 116.464 65.3624C113.637 65.3624 109.65 65.3624 104.649 65.4349C102.185 65.4349 99.4306 65.4349 96.5313 65.4349C95.0092 65.5073 93.4147 64.71 92.5449 63.3329C92.11 62.6806 91.8926 61.8108 91.8926 61.0135C91.8926 60.2162 91.8926 59.419 91.8926 58.5492C91.8926 55.2876 91.8926 51.8085 91.8926 48.1844C91.8926 47.3147 91.8926 46.3724 91.8926 45.5027C91.8926 45.0678 91.8926 44.5604 91.8926 44.1255C91.8926 43.6906 91.8926 43.1833 92.0375 42.6759C92.255 41.7337 92.8348 40.8639 93.5596 40.284C94.3569 39.6317 95.2992 39.3418 96.3139 39.3418C103.924 39.3418 111.172 39.3418 117.768 39.3418C118.565 39.3418 119.435 39.3418 120.233 39.3418C121.03 39.3418 121.9 39.4143 122.624 39.7042C124.146 40.3565 125.089 41.8786 125.161 43.4007C125.161 46.3724 125.161 49.0542 125.161 51.591C125.161 54.0554 125.161 56.3023 125.161 58.3317C125.161 59.3465 125.161 60.2162 125.161 61.086C125.161 61.9558 124.871 62.7531 124.509 63.3329C123.784 64.5651 122.624 65.0724 121.972 65.2174C121.175 65.4349 120.812 65.3624 120.812 65.3624Z" fill="#263238"/>
<path d="M111.099 53.1872C111.751 52.5349 112.113 51.6651 112.113 50.6504C112.113 48.6209 110.519 47.0264 108.489 47.0264C106.46 47.0264 104.865 48.6209 104.865 50.6504C104.865 52.3175 105.952 53.6946 107.475 54.1295L106.677 57.5361H110.156L109.432 54.1295C110.084 53.912 110.664 53.6221 111.099 53.1872Z" fill="#DE051F"/>
<path d="M275.17 165.903C274.373 166.047 269.807 165.616 266.691 165.184C263.574 164.824 264.227 161.804 264.227 161.804L269.59 162.163L274.373 162.235C274.373 162.235 276.04 165.831 275.17 165.903Z" fill="#F9BC97"/>
<path d="M293.582 140.586L293.654 170.362L273.797 170.29C273.797 170.29 274.087 156.193 273.652 155.114C273.145 154.108 271.623 150.224 272.275 147.778C272.927 145.333 277.928 140.658 277.928 140.658L293.582 140.586Z" fill="#0064E1"/>
<path d="M278.939 125.985C281.185 126.92 282.635 137.133 283.577 137.997C284.954 139.147 285.968 141.377 285.026 142.312C284.229 143.103 280.098 143.391 278.721 142.815C277.054 142.024 278.069 138.644 278.069 137.565C278.069 136.558 276.982 135.839 274.953 137.062C273.141 138.14 271.546 138.068 270.822 137.925C270.677 137.925 270.532 137.709 270.604 137.565L270.749 136.918C270.749 136.702 270.677 136.558 270.459 136.558L269.517 136.486C269.3 136.486 269.155 136.342 269.155 136.127L269.227 134.688L267.995 134.832C267.778 134.904 267.488 134.688 267.488 134.472V132.602C266.691 130.301 266.256 126.705 266.256 126.705C266.256 126.705 276.837 124.978 278.939 125.985Z" fill="#F9BC97"/>
<path d="M295.822 155.043C295.822 155.043 295.822 162.667 294.953 165.976C294.228 168.709 290.097 168.205 288.285 167.774C287.778 167.63 287.343 167.486 286.908 167.199C284.227 165.472 272.341 158.136 271.906 157.848C271.544 157.489 270.095 157.92 268.863 157.992C267.775 157.992 267.341 157.201 267.341 157.201L267.703 156.698C267.703 156.698 267.486 156.77 267.196 155.978C266.978 155.187 267.558 154.612 270.384 154.468C272.704 154.396 273.573 155.547 273.791 155.978C273.791 156.05 273.863 156.122 273.936 156.122C274.95 156.698 282.487 160.438 285.604 161.66C287.053 162.164 287.56 162.164 288.14 162.164C288.72 162.164 289.155 161.804 289.155 161.229L289.01 154.972L295.822 155.043Z" fill="#F9BC97"/>
<path d="M296.259 147.131C296.404 147.203 296.477 147.347 296.477 147.491L296.622 155.402C296.622 155.618 296.404 155.906 296.114 155.906C295.317 155.906 293.505 155.906 291.331 155.906C289.954 155.906 289.157 155.906 288.795 155.906C288.505 155.906 288.215 155.69 288.215 155.402L288.287 144.182C288.287 143.894 288.65 143.607 289.012 143.822L296.259 147.131Z" fill="#003EB0"/>
<path d="M292.784 151.087C291.77 148.498 289.306 143.607 287.059 142.456C284.812 141.305 283.508 138.716 283.001 136.702C282.493 134.688 277.927 129.438 277.927 129.438L277.855 128.359C277.275 125.986 275.463 126.993 274.449 128.575C273.434 130.157 270.39 129.078 269.086 127.496C267.709 125.914 266.549 128.215 266.549 128.215C266.549 128.215 263.795 130.876 262.491 126.489C261.259 122.102 267.346 121.239 267.346 121.239C269.013 118.074 273.289 116.779 273.289 116.779C282.566 114.046 285.175 124.979 285.175 124.979L285.32 125.77C285.32 125.77 286.334 128.647 288.001 129.941C289.668 131.164 293.219 132.171 293.871 135.767C294.451 139.363 297.785 140.514 297.785 140.514C297.785 140.514 304.452 145.405 303.51 148.929C302.133 154.036 293.871 153.604 292.784 151.087Z" fill="#170D54"/>
<path d="M271.91 164.249L259.518 164.609L244.443 149.361L256.619 149.073L271.91 164.249Z" fill="#140B4F"/>
<path d="M257.346 160.22C257.491 160.292 257.563 160.436 257.563 160.58L257.635 161.083C257.635 161.083 257.925 161.083 258.505 161.011C259.157 160.939 258.795 162.666 258.36 163.241C257.925 163.816 256.766 163.529 255.679 163.025C254.592 162.522 255.824 160.364 255.824 160.364C256.186 159.573 257.056 160.076 257.346 160.22Z" fill="#F9BC97"/>
<path d="M285.391 200.571L281.332 257.894L273.65 257.822L273.795 170.147L277.346 170.219L285.391 200.571Z" fill="#DE151F"/>
<path d="M277.054 170.147L276.764 171.946C275.242 181.511 286.693 215.819 287.128 217.401C287.635 218.984 305.246 253.938 305.246 253.938L310.464 250.558L296.984 210.281C294.375 204.383 294.955 193.019 295.027 191.077C295.1 190.861 295.1 190.718 295.172 190.502C298.651 182.087 294.23 175.182 294.085 174.463C293.868 173.312 293.723 170.291 293.723 170.291L277.054 170.147Z" fill="#EC384E"/>
<path d="M281.332 257.894V262.928H265.171C265.026 262.928 264.953 262.856 264.953 262.712C265.026 262.137 265.46 261.058 266.982 260.699C269.012 260.195 273.65 257.894 273.65 257.894H281.332Z" fill="#1D1457"/>
<path d="M310.394 250.485C310.394 250.485 312.351 252.355 313.076 253.65C313.728 254.729 313.148 255.88 313.003 256.095C313.003 256.095 313.003 256.167 312.931 256.167L301.045 263C301.045 263 298.219 261.634 301.045 259.548C303.872 257.39 305.249 253.866 305.249 253.866L310.394 250.485Z" fill="#1D1457"/>
</svg>
