<svg width="370" height="251" viewBox="0 0 370 251" fill="none" xmlns="http://www.w3.org/2000/svg">
<path d="M76.8671 84.6738C76.4582 85.2656 76.0493 85.7588 75.5382 86.252L76.0493 88.0275L73.0336 89.5071L71.7047 88.0275C70.9892 88.2248 70.2736 88.2248 69.558 88.2248L68.5358 89.9017L65.3157 89.0139L65.5201 87.1398C64.9068 86.7452 64.3957 86.3507 63.8845 85.8575L61.9423 86.3507L60.4089 83.5395L61.9423 82.2572C61.7378 81.5667 61.7378 80.8762 61.7378 80.1857L60 79.1993L60.92 76.0922L62.8623 76.2895C63.2712 75.6977 63.6801 75.2045 64.1912 74.7113L63.6801 72.9358L66.5935 71.4562L67.9224 72.9358C68.638 72.7385 69.3536 72.7385 70.0691 72.7385L71.0914 71.0616L74.3115 71.9494L74.107 73.9222C74.7204 74.3167 75.2315 74.7113 75.7426 75.2045L77.5826 74.7113L79.116 77.5225L77.7871 78.8048C78.0938 79.4953 78.0938 80.1857 78.0938 80.8762L79.8316 81.8626L78.9116 84.8711L76.8671 84.6738ZM73.4425 81.616C74.0559 79.8405 72.9314 77.917 71.1936 77.4238C69.3536 76.832 67.3602 77.917 66.8491 79.5939C66.2357 81.3694 67.3602 83.2929 69.098 83.7861C70.8358 84.3779 72.8292 83.3915 73.4425 81.616Z" fill="#EE384E"/>
<path d="M93.9233 20.9607L88.3594 22.5504L89.9491 28.1143L95.513 26.5246L93.9233 20.9607Z" fill="#023EA1"/>
<path d="M251.789 88.077L246.225 89.6667L247.814 95.2306L253.378 93.6409L251.789 88.077Z" fill="#EE384E"/>
<path d="M115.251 215.644C125.981 206.916 127.507 192.085 126.124 178.97C125.886 176.776 125.981 174.439 124.789 172.579C123.597 170.719 121.069 169.575 119.161 170.672C117.588 171.578 117.015 173.485 116.205 175.154C115.155 177.348 113.439 179.208 111.388 180.448C110.053 181.259 108.336 181.831 106.905 181.163C104.95 180.257 104.52 177.634 104.377 175.441C104.091 171.339 103.853 167.286 103.567 163.232C103.424 161.038 103.28 158.797 102.422 156.794C101.611 154.791 99.9421 152.931 97.8438 152.502C95.6977 152.072 93.2178 153.455 92.9317 155.601C92.8363 156.508 93.0747 157.414 93.0747 158.32C93.0747 159.226 92.7409 160.275 91.8825 160.561C91.024 160.895 90.1179 160.323 89.4026 159.75C86.9704 157.7 85.2535 154.981 83.6321 152.263C82.0106 149.545 80.3891 146.731 78.1953 144.49C75.9539 142.248 72.9971 140.531 69.8495 140.579C66.702 140.627 63.5067 142.82 62.9344 145.92C62.3621 149.068 64.3651 152.072 66.5112 154.409C69.6588 157.891 73.3309 160.943 77.3846 163.375C78.1 163.804 78.9107 164.281 79.1969 165.092C79.7691 166.523 78.4815 168.049 77.0985 168.669C75.5247 169.336 73.7125 169.289 72.0433 169.622C70.3741 169.956 68.5619 170.815 68.0373 172.484C67.3219 174.773 69.3249 177.014 71.2802 178.397C75.1908 181.211 79.5784 183.31 84.1566 184.645C85.8258 185.122 87.5426 185.503 88.9257 186.552C90.3087 187.602 91.2148 189.509 90.5472 191.083C89.8795 192.705 87.8765 193.324 86.2073 193.134C84.4905 192.943 82.9167 192.132 81.2952 191.655C78.1953 190.749 74.3324 191.226 72.6156 193.944C71.471 195.757 71.5187 198.141 72.3294 200.097C73.0925 202.1 74.5232 203.769 76.0493 205.247C81.2952 210.541 87.7811 214.642 94.887 216.597C101.993 218.505 108.479 218.696 115.251 215.644Z" fill="#023EA1"/>
<path d="M111.254 207.631C108.822 201.145 105.579 194.23 101.954 187.077C101.048 185.312 100.142 183.547 99.236 181.831C98.3298 180.114 97.4714 178.397 96.4699 176.775C94.5623 173.532 92.4639 170.576 90.3655 167.81C88.2672 165.044 86.2165 162.516 84.2612 160.131C82.3059 157.747 80.446 155.601 78.6337 153.693C75.057 149.878 71.814 147.16 69.5249 145.347C68.3803 144.441 67.4742 143.774 66.8542 143.344C66.5681 143.154 66.3296 142.963 66.1389 142.868C65.9958 142.772 65.9004 142.724 65.9004 142.724C65.9004 142.724 65.9958 142.772 66.1389 142.915C66.3296 143.058 66.5204 143.201 66.8065 143.44C67.4265 143.917 68.3326 144.584 69.4295 145.491C71.7186 147.303 74.9139 150.069 78.443 153.884C80.2075 155.792 82.0674 157.985 84.0227 160.322C85.978 162.707 88.0287 165.234 90.0794 168C92.1301 170.766 94.2285 173.723 96.1361 176.966C97.0899 178.588 97.996 180.257 98.8544 182.021C99.7605 183.738 100.667 185.503 101.573 187.267C105.197 194.373 108.44 201.288 110.872 207.774" fill="#E0E0E0"/>
<path d="M96.3651 176.775C96.4128 176.775 96.4605 176.441 96.5082 175.821C96.6036 175.201 96.6513 174.343 96.7467 173.198C96.8897 171.005 96.9851 167.953 97.1282 164.614C97.2236 161.276 97.3666 158.224 97.5574 156.03C97.6528 154.933 97.7482 154.027 97.7958 153.455C97.8435 152.835 97.8912 152.501 97.8435 152.501C97.7958 152.501 97.7481 152.835 97.6528 153.455C97.5574 154.075 97.4143 154.933 97.2712 156.03C97.0328 158.224 96.7943 161.276 96.6989 164.614C96.6036 167.905 96.5082 170.909 96.4605 173.198C96.4128 174.248 96.4128 175.106 96.3651 175.821C96.3174 176.441 96.3174 176.775 96.3651 176.775Z" fill="#E0E0E0"/>
<path d="M67.9184 173.532C67.9184 173.58 68.2999 173.58 69.0629 173.58C69.7783 173.58 70.8275 173.628 72.1151 173.675C74.6904 173.771 78.2672 174.009 82.2255 174.486C86.1838 174.963 89.7129 175.535 92.2404 176.012C93.5281 176.251 94.5296 176.442 95.2449 176.585C95.9603 176.728 96.3418 176.823 96.3418 176.775C96.3418 176.728 95.9603 176.632 95.2449 176.442C94.5296 176.251 93.5281 175.965 92.2404 175.726C89.7129 175.154 86.1361 174.534 82.1778 174.105C78.2195 173.628 74.6427 173.437 72.0197 173.437C70.7321 173.437 69.6829 173.437 68.9199 173.485C68.2999 173.485 67.9184 173.532 67.9184 173.532Z" fill="#E0E0E0"/>
<path d="M110.882 207.151C110.882 207.151 110.93 207.056 111.073 206.818C111.168 206.531 111.311 206.198 111.502 205.768C111.836 204.862 112.313 203.527 112.885 201.858C114.03 198.519 115.413 193.893 116.891 188.791C118.369 183.64 119.752 179.014 120.802 175.676C121.326 174.054 121.755 172.719 122.042 171.717C122.185 171.288 122.28 170.954 122.375 170.621C122.471 170.382 122.471 170.239 122.471 170.239C122.471 170.239 122.423 170.334 122.28 170.573C122.185 170.859 122.041 171.193 121.851 171.622C121.517 172.528 121.04 173.863 120.468 175.533C119.323 178.871 117.94 183.497 116.462 188.6C114.983 193.75 113.6 198.376 112.551 201.715C112.027 203.336 111.597 204.671 111.311 205.673C111.168 206.102 111.073 206.436 110.977 206.77C110.882 207.008 110.882 207.151 110.882 207.151Z" fill="#E0E0E0"/>
<path d="M72.6262 197.808C72.6262 197.808 72.7693 197.855 73.0077 197.951C73.2939 198.046 73.6754 198.142 74.1046 198.237C75.1538 198.475 76.5368 198.809 78.206 199.238C81.6397 200.097 86.4087 201.337 91.7023 202.672C96.9483 204.055 101.717 205.247 105.199 206.01C106.916 206.392 108.346 206.726 109.3 206.917C109.729 207.012 110.111 207.06 110.445 207.107C110.683 207.155 110.826 207.155 110.826 207.155C110.826 207.155 110.683 207.107 110.445 207.012C110.159 206.917 109.777 206.821 109.348 206.726C108.299 206.487 106.916 206.154 105.246 205.724C101.813 204.866 97.0437 203.626 91.75 202.291C86.5041 200.908 81.7351 199.715 78.2537 198.952C76.5368 198.571 75.1061 198.237 74.1523 198.046C73.7231 197.951 73.3416 197.903 73.0077 197.855C72.7693 197.808 72.6262 197.76 72.6262 197.808Z" fill="#E0E0E0"/>
<path d="M110.632 188.401C110.632 188.401 92.9454 168.683 89.3867 148.372" stroke="#FCBE42" stroke-width="0.430325" stroke-miterlimit="10"/>
<path d="M89.4201 134.478C89.4201 134.478 95.996 139.324 89.7917 150.461C89.7917 150.461 82.9359 147.628 89.4201 134.478Z" fill="#FCBE42"/>
<path d="M95.3874 165.671C95.3874 165.671 93.5065 157.608 103.803 148.098C103.814 148.086 108.057 153.614 95.3874 165.671Z" fill="#FCBE42"/>
<path d="M104.836 180.982C104.836 180.982 101.123 174.209 110.148 163.471C110.148 163.471 115.867 167.458 104.836 180.982Z" fill="#FCBE42"/>
<path d="M104.536 181.359C104.536 181.359 100.262 175.071 88.7287 181.706C88.7287 181.706 90.1365 189.343 104.536 181.359Z" fill="#FCBE42"/>
<path d="M95.4584 165.521C95.4584 165.521 92.3344 158.291 80.6556 163.616C80.6446 163.628 80.9189 171.847 95.4584 165.521Z" fill="#FCBE42"/>
<path d="M306.435 189.224H244.623C242.897 189.224 241.498 190.618 241.498 192.338V234.32C241.498 236.04 242.897 237.434 244.623 237.434H306.435C308.161 237.434 309.56 236.04 309.56 234.32V192.338C309.56 190.618 308.161 189.224 306.435 189.224Z" fill="#25409C"/>
<path d="M262.622 122.345C262.622 122.345 264.634 121.77 264.289 118.551C264.002 115.389 262.104 112.687 264.979 111.135C267.853 109.468 268.773 108.893 270.153 107.571C271.532 106.191 272.28 105.156 276.821 105.559C276.821 105.559 280.443 102.627 283.72 105.214C286.939 107.801 285.847 114.699 286.594 115.792C287.284 116.884 291.595 121.138 292.113 124.76C292.573 128.381 290.101 130.681 286.594 130.451C283.03 130.221 278.258 130.451 278.258 130.451H265.209C265.209 130.451 260.782 130.738 260.437 126.427C260.15 123.725 262.622 122.345 262.622 122.345Z" fill="#180857"/>
<path d="M273.486 127.576C273.486 127.576 273.486 130.278 272.337 131.371C271.187 132.463 269.635 134.417 269.635 134.417C269.635 134.417 272.337 138.614 277.625 137.982C282.914 137.349 283.892 133.67 283.892 133.67C283.892 133.67 278.89 132.98 278.315 128.266C277.74 123.552 276.993 123.552 276.993 123.552L273.486 127.576Z" fill="#FFB07E"/>
<path d="M275.96 129.071C279.237 129.071 281.881 124.587 281.881 119.126C281.881 113.607 279.237 109.18 275.96 109.18C272.683 109.18 270.039 113.664 270.039 119.126C270.039 124.644 272.683 129.071 275.96 129.071Z" fill="#FFBE9B"/>
<path d="M275.961 108.606C275.961 108.606 274.869 111.767 272.684 114.872C270.5 118.034 267.856 119.758 267.568 120.276C267.281 120.85 265.326 119.241 266.073 116.711C266.821 114.182 270.96 107.283 275.271 107.168C279.583 107.054 280.56 104.582 282.572 109.583C284.642 114.584 284.239 120.333 284.239 120.333L275.961 108.606Z" fill="#180857"/>
<path d="M270.439 117.919C270.439 117.919 268.197 117.631 267.909 119.011C267.564 120.391 268.656 121.598 270.439 121.885C272.336 122.173 270.439 117.919 270.439 117.919Z" fill="#FFBE9B"/>
<path d="M292.402 183.396C292.402 183.396 295.966 183.626 298.495 183.626C301.025 183.626 305.106 184.201 305.106 184.201C305.106 184.201 306.199 184.201 306.256 185.523C306.371 186.846 306.371 187.363 306.371 187.363C306.371 187.363 306.486 188.915 305.221 188.915C303.957 188.915 296.138 189.835 294.356 189.835C292.574 189.835 291.252 190.18 291.252 188.915C291.309 187.651 291.137 183.339 292.402 183.396Z" fill="#170856"/>
<path d="M295.273 146.087C295.273 146.087 297.63 158.792 297.745 162.126C297.975 165.518 298.32 168.047 296.02 169.312C293.836 170.634 290.157 171.841 290.157 171.841L285.615 149.191V146.49L295.273 146.087Z" fill="#FFBF99"/>
<path d="M256.353 145.397C256.353 145.397 255.088 151.146 254.743 154.021C254.398 156.895 253.593 162.586 253.478 163.908C253.363 165.231 253.191 167.473 255.605 169.14C258.02 170.864 260.549 171.842 260.549 171.842L265.435 145.455L256.353 145.397Z" fill="#FFBF99"/>
<path d="M270.669 132.061C270.669 132.061 267.047 131.601 265.093 132.175C263.196 132.75 262.563 132.405 263.023 133.9C263.598 135.395 266.185 142.293 264.92 146.605C263.655 150.916 261.988 173.049 261.988 173.049C261.988 173.049 275.383 173.624 280.614 173.854C285.846 174.141 289.697 173.106 289.697 173.106C289.697 173.106 290.847 163.564 289.697 159.424C288.547 155.228 286.995 148.214 286.995 148.214C286.995 148.214 286.018 138.557 287.34 136.142C288.662 133.728 289.697 133.67 287.973 133.038C286.248 132.405 284.408 131.888 283.086 131.888C281.764 131.888 281.017 131.888 280.269 132.693C279.464 133.498 277.855 135.107 275.67 134.762C273.486 134.417 271.761 132.923 271.761 132.923C271.761 132.923 271.186 132.175 270.669 132.061Z" fill="#DE051F"/>
<path d="M264.173 132.807C264.173 132.807 262.909 132.175 261.069 133.785C259.057 135.509 257.62 139.189 256.872 141.488C256.125 143.845 255.723 146.087 255.723 146.087C255.723 146.087 258.252 147.409 260.954 147.524C263.656 147.639 265.381 147.812 265.381 147.812C265.381 147.812 266.53 140.971 266.3 137.866C266.013 134.705 265.553 133.612 264.173 132.807Z" fill="#EE384E"/>
<path d="M286.481 135.337C286.481 135.337 287.573 132.405 289.93 133.785C292.344 135.107 294.126 140.166 294.586 141.776C295.161 143.328 295.851 146.605 295.851 146.605C295.851 146.605 293.034 147.812 290.62 148.042C288.205 148.272 286.538 148.387 286.538 148.387C286.538 148.387 285.561 142.121 285.733 139.649C285.906 137.062 286.481 135.337 286.481 135.337Z" fill="#EE384E"/>
<path d="M266.932 174.888H285.098L275.727 177.705L266.932 174.888Z" fill="#004B89"/>
<path d="M250.838 169.714C250.838 169.714 283.836 180.005 291.079 182.649C291.079 182.649 293.494 183.281 293.551 184.489C293.666 185.696 293.321 187.535 293.091 188.398C292.804 189.318 291.999 189.95 290.677 189.72C289.355 189.433 259.806 183.569 248.021 180.465L244.629 179.372C244.629 179.372 242.158 178.222 242.56 175.176C243.02 172.129 245.262 169.542 246.814 169.312C248.596 169.254 250.838 169.714 250.838 169.714Z" fill="#0064E1"/>
<path d="M247.851 184.374C247.851 184.374 252.047 183.626 254.462 183.569C256.934 183.454 260.211 183.224 260.728 183.569C261.245 183.914 261.705 188.743 261.705 188.743C261.705 188.743 262.165 190.065 258.888 189.835C255.612 189.548 248.081 189.26 248.081 189.26C248.081 189.26 246.356 189.145 246.299 187.708C246.241 186.213 246.529 185.523 246.529 185.523C246.529 185.523 246.816 184.546 247.851 184.374Z" fill="#170856"/>
<path d="M267.565 180.177C267.565 180.177 287.628 174.084 294.756 171.957C301.827 169.83 305.909 167.933 308.151 171.209C310.508 174.601 310.278 178.28 307.576 179.315C304.874 180.407 284.064 185.236 275.441 187.018C266.818 188.8 261.126 189.95 260.322 189.548C259.517 189.203 258.597 186.616 258.827 185.236C259.057 183.799 259.114 183.339 260.724 182.534C262.449 181.902 267.565 180.177 267.565 180.177Z" fill="#0054A3"/>
<path d="M265.209 151.031H289.353C289.353 151.031 290.676 150.801 290.676 152.584C290.676 154.366 290.676 173.394 290.676 173.394C290.676 173.394 290.79 174.831 289.698 174.831C288.606 174.831 261.357 174.831 261.357 174.831C261.357 174.831 260.207 175.176 260.207 173.279C260.207 171.382 260.207 152.124 260.207 152.124C260.207 152.124 260.092 151.031 261.529 151.031C262.967 151.031 265.209 151.031 265.209 151.031Z" fill="#0064B7"/>
<path d="M275.386 161.436L274.006 163.161L275.73 164.541L277.11 162.816L275.386 161.436Z" fill="#569ED4"/>
<path d="M226.895 9.31012V230.638C226.895 234.105 224.054 236.944 220.583 236.944H109.908C106.437 236.944 103.6 234.105 103.6 230.638V9.31012C103.6 5.83943 106.437 3.00024 109.908 3.00024H220.583C224.054 3.00024 226.895 5.83943 226.895 9.31012Z" fill="#1466B1"/>
<path d="M178.678 11.8564H146.629C145.943 11.8564 145.381 11.2947 145.381 10.6088C145.381 9.92279 145.943 9.36108 146.629 9.36108H178.678C179.364 9.36108 179.926 9.92279 179.926 10.6088C179.926 11.2947 179.364 11.8564 178.678 11.8564Z" fill="white"/>
<path d="M184.232 11.8564C183.546 11.8564 182.984 11.2947 182.984 10.6088C182.984 9.92279 183.546 9.36108 184.232 9.36108C184.918 9.36108 185.48 9.92279 185.48 10.6088C185.48 11.2947 184.918 11.8564 184.232 11.8564Z" fill="white"/>
<path d="M220.067 17.4124H110.734V212.023H220.067V17.4124Z" fill="white"/>
<path d="M211.973 179.677H130.204C128.746 179.677 127.496 178.479 127.496 176.969C127.496 175.51 128.694 174.26 130.204 174.26H211.973C213.431 174.26 214.681 175.458 214.681 176.969C214.681 178.479 213.431 179.677 211.973 179.677Z" fill="#EAF4FF"/>
<path d="M211.971 191.187H118.536C117.078 191.187 115.828 189.989 115.828 188.478C115.828 187.02 117.026 185.77 118.536 185.77H211.971C213.43 185.77 214.68 186.968 214.68 188.478C214.68 189.989 213.43 191.187 211.971 191.187Z" fill="#EAF4FF"/>
<path d="M211.971 202.853H118.536C117.078 202.853 115.828 201.655 115.828 200.145C115.828 198.687 117.026 197.437 118.536 197.437H211.971C213.43 197.437 214.68 198.635 214.68 200.145C214.68 201.655 213.43 202.853 211.971 202.853Z" fill="#EAF4FF"/>
<path d="M122.756 177.02C122.756 178.583 121.506 179.833 119.943 179.833C118.381 179.833 117.131 178.583 117.131 177.02C117.131 175.458 118.381 174.208 119.943 174.208C121.506 174.208 122.756 175.458 122.756 177.02Z" fill="#EC384E"/>
<path d="M139.583 43.4838H146.457C146.013 43.146 145.563 42.802 145.119 42.4643C146.132 45.7981 147.145 49.1382 148.158 52.472L152.987 68.353C153.356 69.5727 153.731 70.7986 154.101 72.0183C154.276 72.6 154.82 73.0378 155.439 73.0378C162 73.0191 168.555 73.0003 175.117 72.9816C176.055 72.9816 176.993 72.9815 177.938 72.9753C179.72 72.9753 179.727 70.1981 177.938 70.1981C171.376 70.2169 164.821 70.2357 158.26 70.2545C157.322 70.2545 156.384 70.2544 155.445 70.2607C155.889 70.5985 156.34 70.9425 156.784 71.2802C155.771 67.9464 154.757 64.6063 153.744 61.2725L148.915 45.3915C148.546 44.1718 148.171 42.9459 147.802 41.7262C147.627 41.1383 147.083 40.7067 146.463 40.7067H139.589C137.807 40.7067 137.8 43.4838 139.589 43.4838H139.583Z" fill="#DDE7F6"/>
<path d="M182.327 47.0179C181.032 52.8224 179.737 58.6268 178.443 64.4313C178.255 65.2632 178.067 66.1013 177.886 66.9332C178.218 66.6768 178.555 66.4266 178.887 66.1702C176.078 66.1451 173.27 66.1139 170.462 66.0888C165.958 66.0451 161.455 66.0013 156.951 65.9575C155.919 65.945 154.893 65.9387 153.861 65.9262C154.193 66.1827 154.531 66.4328 154.862 66.6893C153.054 60.9411 151.247 55.1929 149.445 49.4448C149.189 48.6316 148.939 47.8248 148.682 47.0116C148.351 47.4495 148.013 47.8873 147.682 48.3314H183.334C184.673 48.3314 184.673 46.2485 183.334 46.2485H147.682C147.025 46.2485 146.474 46.9178 146.681 47.5683C148.488 53.3165 150.296 59.0647 152.097 64.8128C152.354 65.626 152.604 66.4329 152.861 67.246C152.998 67.6901 153.392 68.0028 153.861 68.0091C156.67 68.0341 159.478 68.0654 162.287 68.0904C166.79 68.1342 171.293 68.1779 175.797 68.2217C176.829 68.2342 177.855 68.2405 178.887 68.253C179.325 68.253 179.794 67.9278 179.888 67.4899C181.182 61.6854 182.477 55.881 183.772 50.0765C183.959 49.2446 184.147 48.4064 184.329 47.5746C184.623 46.2673 182.615 45.7106 182.321 47.0241L182.327 47.0179Z" fill="#DDE7F6"/>
<path d="M154.773 47.9061C155.868 54.2547 157.263 60.5534 158.357 66.902C158.583 68.2218 160.59 67.6588 160.365 66.3516C159.271 60.0029 157.876 53.7043 156.781 47.3557C156.556 46.0359 154.548 46.5988 154.773 47.9061Z" fill="#DDE7F6"/>
<path d="M165.764 47.6308C165.87 54.142 165.989 60.6533 166.095 67.1708C166.114 68.5094 168.197 68.5156 168.178 67.1708C168.072 60.6595 167.953 54.1483 167.847 47.6308C167.828 46.2922 165.745 46.286 165.764 47.6308Z" fill="#DDE7F6"/>
<path d="M175.914 67.4023C176.796 61.6166 177.678 55.8372 178.554 50.0514C178.679 49.2258 178.804 48.3939 178.929 47.5683C179.017 47.0116 178.785 46.4549 178.204 46.286C177.71 46.1484 177.009 46.4549 176.921 47.0116C176.04 52.7973 175.158 58.5768 174.282 64.3625C174.157 65.1881 174.032 66.02 173.907 66.8456C173.819 67.4023 174.05 67.959 174.632 68.1279C175.126 68.2655 175.827 67.959 175.914 67.4023Z" fill="#DDE7F6"/>
<path d="M149.945 54.4236H181.426C182.764 54.4236 182.764 52.3407 181.426 52.3407H149.945C148.607 52.3407 148.607 54.4236 149.945 54.4236Z" fill="#DDE7F6"/>
<path d="M152.896 61.7356H180.161C181.5 61.7356 181.5 59.6527 180.161 59.6527H152.896C151.558 59.6527 151.558 61.7356 152.896 61.7356Z" fill="#DDE7F6"/>
<path d="M177.929 82.17C179.974 82.17 181.632 80.5122 181.632 78.4671C181.632 76.4221 179.974 74.7643 177.929 74.7643C175.884 74.7643 174.227 76.4221 174.227 78.4671C174.227 80.5122 175.884 82.17 177.929 82.17Z" fill="#DDE7F6"/>
<path d="M157.562 82.17C159.607 82.17 161.265 80.5122 161.265 78.4671C161.265 76.4221 159.607 74.7643 157.562 74.7643C155.517 74.7643 153.859 76.4221 153.859 78.4671C153.859 80.5122 155.517 82.17 157.562 82.17Z" fill="#DDE7F6"/>
<path d="M212.376 159.752H118.92C116.881 159.752 115.223 158.092 115.223 156.054V102.91C115.223 100.871 116.882 99.2128 118.92 99.2128H212.378C214.417 99.2128 216.075 100.872 216.075 102.91V156.054C216.075 158.094 214.416 159.752 212.378 159.752H212.376Z" fill="#DDE7F6"/>
<path d="M146.963 147.54L125.414 147.709C124.501 147.716 123.751 146.975 123.742 146.064V145.857C123.734 144.944 124.474 144.194 125.385 144.187L146.934 144.018C147.846 144.012 148.597 144.752 148.606 145.663V145.87C148.614 146.783 147.874 147.533 146.963 147.54Z" fill="white"/>
<path d="M175.362 147.319L153.812 147.488C152.9 147.494 152.149 146.754 152.143 145.843V145.636C152.134 144.723 152.875 143.973 153.785 143.966L175.334 143.797C176.247 143.79 176.997 144.531 177.006 145.442V145.649C177.015 146.562 176.274 147.312 175.363 147.319H175.362Z" fill="white"/>
<path d="M146.221 111.281L125.133 111.445C124.22 111.451 123.47 110.711 123.463 109.8C123.456 108.888 124.197 108.137 125.107 108.13L146.195 107.967C147.108 107.96 147.858 108.701 147.867 109.611C147.874 110.524 147.133 111.274 146.222 111.283L146.221 111.281Z" fill="white"/>
<path d="M209.848 110.881L200.162 111.024C199.742 111.03 199.398 110.379 199.395 109.579C199.391 108.777 199.732 108.117 200.15 108.111L209.837 107.967C210.256 107.961 210.601 108.612 210.605 109.413C210.608 110.215 210.268 110.875 209.849 110.882L209.848 110.881Z" fill="white"/>
<path d="M166.496 152.314C166.496 152.314 163.23 197.468 162.761 205.476C162.285 213.483 160.569 240.458 160.569 240.458H152.546L147.133 151.819L166.496 152.314Z" fill="#DE051F"/>
<path d="M136.454 152.9C136.454 152.9 137.417 175.516 137.848 181.251C138.271 186.985 133.612 206.594 130.956 215.307C128.291 224.028 124.541 233.68 124.541 233.68L130.956 237.254C130.956 237.254 144.809 213.259 149.776 199.102C154.735 184.945 158.432 163.758 157.823 151.819L136.454 152.9Z" fill="#EE384E"/>
<path d="M170.492 120.728L176.564 128.715C176.564 128.715 177.037 129.354 178.163 129.064C179.281 128.775 190.967 124.573 190.967 124.573C190.967 124.573 192.596 123.853 193.032 122.568C193.46 121.285 193.662 120.972 193.917 120.624C194.172 120.275 194.548 120.319 194.331 119.459C194.112 118.605 193.993 118.248 193.993 118.248C193.993 118.248 193.738 117.647 194.248 117.647C194.758 117.647 195.306 117.766 195.592 118.352C195.861 118.938 195.794 120.357 195.794 120.357L198.294 120.453C198.294 120.453 199.825 120.505 199.825 122.086C199.825 123.668 199.825 126.31 199.825 126.31C199.825 126.31 200.042 127.134 198.924 127.134C197.806 127.134 196.627 127.097 196.627 127.097C196.627 127.097 195.689 127.001 194.15 128.106C192.612 129.212 180.902 135.842 180.902 135.842C180.902 135.842 176.857 138.232 174.2 135.722C171.543 133.214 165.711 127.008 165.711 127.008L165.418 125.041L170.492 120.728Z" fill="#FFBF99"/>
<path d="M151.431 98.4238C151.431 98.4238 150.717 102.121 149.282 105.826C147.847 109.531 147.133 111.004 147.133 111.004C147.133 111.004 151.431 116.182 155.744 115.437C160.042 114.701 160.042 111.741 160.042 111.741C160.042 111.741 156.093 108.412 156.093 103.97C156.093 99.5281 156.093 99.5358 156.093 99.5358L151.431 98.4238Z" fill="#FFB48F"/>
<path d="M161.115 111.239C161.115 111.239 164.662 113.2 166.132 114.441C167.61 115.682 171.873 120.558 171.873 120.558L166.036 126.19L161.972 121.608L161.115 111.239Z" fill="#0064B7"/>
<path d="M148.411 109.688C148.411 109.688 150.558 112.543 153.426 113.253C156.293 113.963 157.72 111.826 157.72 111.826L158.507 110.805C158.507 110.805 159.302 110.184 160.179 110.917C161.056 111.633 162.727 113.483 164.176 116.471C165.632 119.451 166.056 123.533 166.36 133.067C166.665 142.6 166.36 152.888 166.36 152.888H136.724L136.375 138.074C136.375 138.074 139.525 118.371 142.623 114.362C145.721 110.354 146.62 109.482 146.62 109.482C146.62 109.482 147.334 108.505 148.411 109.688Z" fill="#0083F9"/>
<path d="M160.105 88.8131C160.105 88.8131 162.191 91.7839 162.191 96.9864C162.191 102.182 161.498 105.9 159.405 105.9C157.313 105.9 153.135 104.414 152.443 102.929C151.75 101.443 150.357 101.443 150.357 98.48C150.357 95.5169 153.835 88.8285 156.628 88.8285C159.413 88.8285 160.105 88.8131 160.105 88.8131Z" fill="#FFBF99"/>
<path d="M162.065 88.9527C162.065 88.9527 164.205 83.3137 162.776 82.5968C161.346 81.8943 158.495 83.2983 157.777 84.0085C157.066 84.71 155.636 84.71 154.918 84.71C154.918 84.71 147.771 84.71 146.341 86.1216C144.912 87.5333 144.912 88.2358 144.912 88.945C144.912 89.6475 144.905 92.4197 144.201 93.8825C143.897 94.5185 143.49 97.4074 144.912 100.238C146.334 103.062 147.771 103.763 148.482 103.763C149.193 103.763 149.837 103.763 149.911 103.062C149.993 102.301 150.274 101.226 150.622 100.238C150.963 99.2951 151.333 97.4151 151.333 97.4151C151.333 97.4151 152.044 93.8892 153.474 92.4776C154.903 91.0659 154.903 91.0659 157.754 90.3644C160.635 89.6696 161.354 91.0659 162.065 88.9527Z" fill="#170856"/>
<path d="M152.219 94.5755C153.004 95.5497 151.945 97.2659 151.945 97.2659C151.945 97.2659 150.357 97.8354 150.357 96.1192C150.357 94.403 151.428 93.5955 152.219 94.5755Z" fill="#FFBF99"/>
<path d="M137.704 125.123C137.704 125.123 134.864 135.422 135.359 141.876C135.853 148.322 137.885 153.911 139.359 157.8C140.834 161.689 141.705 162.621 141.76 165.068C141.815 167.515 143.031 170.414 144.537 171.87C146.043 173.327 147.251 174.051 147.251 174.051C147.251 174.051 149.04 174.835 148.757 173.267C148.757 173.267 149.958 173.356 149.503 172.484C149.503 172.484 151.103 172.514 149.934 171.323C148.765 170.125 146.608 168.971 146.608 168.971C146.608 168.971 145.376 167.116 147.133 168.047C148.891 168.971 150.428 169.009 148.804 167.501C147.173 165.992 145.29 163.353 143.909 158.525C142.529 153.705 140.889 144.175 142.842 136.855C144.796 129.536 147.267 127.096 147.267 127.096L137.704 125.123Z" fill="#FFBF99"/>
<path d="M131.713 236.767C131.713 236.767 133.187 240.735 134.823 242.561C136.459 244.386 137.749 245.719 137.749 245.719C137.749 245.719 139.653 248.641 137.503 247.773C135.36 246.904 123.504 239.27 123.504 239.27C123.504 239.27 121.815 238.431 122.598 237.046C123.381 235.663 125.37 232.983 125.37 232.983L131.713 236.767Z" fill="#170856"/>
<path d="M152.604 245.688C152.604 245.688 152.167 246.867 154.648 246.867C157.128 246.867 170.655 246.867 170.655 246.867C170.655 246.867 173.257 246.356 170.861 245.215C168.45 244.074 161.239 240.893 161.239 240.893C161.239 240.893 160.687 240.75 160.703 239.391H152.512L152.604 245.688Z" fill="#170856"/>
<path d="M149.257 117.765C149.257 117.765 149.769 112.814 146.218 112.339C142.667 111.865 140.412 116.671 139.229 119.794C138.045 122.916 137.449 125.203 137.449 125.203C137.449 125.203 145.087 128.326 147.1 128.326C147.108 128.326 148.804 123.137 149.257 117.765Z" fill="#0064B7"/>
</svg>
