<svg width="274" height="225" viewBox="0 0 274 225" fill="none" xmlns="http://www.w3.org/2000/svg">
<path d="M45.0704 11.3665C45.0704 11.3665 41.3996 16.0745 46.0812 16.8235C50.7628 17.5725 52.8908 19.124 51.614 23.725C50.1776 28.433 51.614 31.429 54.2208 32.392C56.934 33.355 61.9348 34.639 59.7536 40.5775C57.5192 46.6765 54.0612 58.7675 47.1984 57.3765C40.2824 55.932 34.6964 46.195 36.2924 41.5405C37.8884 36.886 41.8252 34.746 38.58 30.5195C35.4944 26.186 31.7172 29.5565 30.3872 24.153C28.9508 18.6425 26.876 13.0785 34.1112 9.49397C40.1228 6.12347 46.2408 8.20997 45.0704 11.3665Z" stroke="#1C4599" stroke-miterlimit="10"/>
<path d="M39.8564 16.2885C39.8564 16.2885 48.794 51.3309 52.9436 59.6769" stroke="#1C4599" stroke-width="0.5" stroke-miterlimit="10"/>
<path d="M52.8378 36.7789L47.6242 44.6969L40.123 42.6639" stroke="#1C4599" stroke-width="0.5" stroke-miterlimit="10"/>
<path d="M47.1451 20.7825L42.6231 26.0255L35.9199 25.116" stroke="#1C4599" stroke-width="0.5" stroke-miterlimit="10"/>
<path d="M11.5014 26.293C11.5014 26.293 6.3942 24.153 8.4158 19.7125C10.2246 15.4325 17.0874 13.881 19.3218 16.9305C21.7158 19.873 20.2262 22.9225 23.365 22.7085C26.5038 22.6015 35.0158 23.404 34.271 27.5235C33.5262 31.8035 28.951 33.034 32.0898 37.6885C35.2286 42.343 45.1238 40.952 41.7722 49.1375C38.4206 57.3765 28.8446 69.842 19.9602 59.142C11.2354 48.4955 24.8546 47.7465 15.9702 41.6475C7.0858 35.5485 13.0442 33.9435 14.1614 30.5195C15.1722 27.0955 11.5014 26.293 11.5014 26.293Z" fill="#ED3B4E"/>
<path d="M20.4922 28.861C20.4922 28.861 24.429 42.771 32.0898 53.15C39.7506 63.529 43.049 64.492 43.049 64.492" stroke="white" stroke-width="0.5" stroke-miterlimit="10" stroke-linecap="round" stroke-linejoin="round"/>
<path d="M256.593 70.163C203.447 124.305 221.641 160.203 221.641 160.203C273.511 138.322 260.637 80.3815 258.03 70.591C257.87 69.949 257.072 69.735 256.593 70.163Z" fill="#DE051F"/>
<path opacity="0.5" d="M253.987 80.328C253.987 80.2745 254.04 80.221 254.146 80.1675C254.199 80.1675 254.306 80.221 254.306 80.328C253.987 83.6985 253.508 87.1225 253.029 90.493C252.55 93.8635 251.965 97.2875 251.22 100.604C249.837 107.345 248.135 113.979 246.06 120.506C243.932 127.033 241.378 133.453 238.186 139.499C237.441 141.05 236.537 142.548 235.633 143.993C234.728 145.437 233.771 146.882 232.813 148.273C230.845 151.055 228.61 153.676 226.11 156.084C226.003 156.191 225.791 156.191 225.684 156.084C225.578 155.977 225.578 155.763 225.684 155.656C228.131 153.302 230.366 150.734 232.334 147.952C233.345 146.561 234.303 145.116 235.154 143.672C236.005 142.281 236.856 140.783 237.654 139.231C240.899 133.239 243.4 126.819 245.528 120.346C247.656 113.872 249.358 107.238 250.741 100.497C251.433 97.127 252.018 93.7565 252.55 90.386C253.242 87.1225 253.667 83.6985 253.987 80.328Z" fill="white"/>
<path d="M265.265 111.304C229.249 135.005 235.101 157.207 235.101 157.207C266.542 151.269 266.329 117.51 266.01 111.732C266.01 111.358 265.531 111.09 265.265 111.304Z" fill="#F79F03"/>
<path opacity="0.5" d="M262.605 116.494C262.605 116.44 262.712 116.387 262.765 116.494C262.818 116.494 262.871 116.601 262.871 116.654C262.286 118.473 261.648 120.239 260.956 122.058C260.264 123.877 259.573 125.589 258.828 127.354C258.083 129.12 257.285 130.832 256.434 132.544C255.583 134.256 254.732 135.968 253.774 137.626C251.912 140.943 249.837 144.207 247.55 147.256C247.284 147.684 246.964 148.005 246.645 148.38L246.166 148.915C246.007 149.075 245.847 149.289 245.688 149.45C245.422 149.824 245.102 150.199 244.783 150.52L243.826 151.59C242.496 152.981 241.112 154.265 239.623 155.495C239.516 155.602 239.304 155.603 239.197 155.442C239.091 155.335 239.091 155.121 239.25 155.014C240.74 153.837 242.123 152.553 243.4 151.162L244.358 150.092C244.677 149.718 244.943 149.343 245.262 149.022C245.422 148.862 245.581 148.648 245.741 148.487L246.22 147.952C246.486 147.578 246.805 147.203 247.124 146.882C249.465 143.886 251.486 140.622 253.348 137.359C254.306 135.7 255.157 133.988 256.008 132.33C256.86 130.564 257.658 128.906 258.402 127.141C259.147 125.429 259.892 123.663 260.584 121.897C261.328 120.132 261.967 118.313 262.605 116.494Z" fill="white"/>
<path d="M170.144 36.993C170.144 35.0135 171.74 33.355 173.708 33.355C175.676 33.355 177.326 34.96 177.326 36.9395C177.326 38.919 175.73 40.5775 173.761 40.5775C171.793 40.5775 170.197 38.9725 170.144 36.993ZM171.261 36.993C171.261 38.384 172.431 39.5075 173.814 39.5075C176.049 39.5075 177.219 36.779 175.57 35.174C173.974 33.569 171.261 34.6925 171.261 36.993Z" fill="white"/>
<path d="M119.338 158.171L114.763 200.81H167.058L160.249 158.171H119.338Z" fill="#0064B7"/>
<path d="M238.346 164.163H43.5812C38.1016 164.163 33.5264 160.257 33.5264 155.389V43.6805C33.5264 38.8655 37.9952 34.9065 43.5812 34.9065H238.346C243.826 34.9065 248.401 38.812 248.401 43.6805V155.495C248.348 160.257 243.879 164.163 238.346 164.163Z" fill="#023EA1"/>
<path d="M43.5808 155.709C42.6232 155.709 41.9316 154.907 41.9316 154.051V45.0715C41.9316 44.162 42.6764 43.413 43.5276 43.413C43.5276 43.413 43.5276 43.413 43.5808 43.413H238.346C238.346 43.413 238.346 43.413 238.399 43.413C239.304 43.413 239.995 44.2155 239.995 45.0715V154.051C239.995 154.96 239.25 155.709 238.399 155.709H43.5808Z" fill="white"/>
<path d="M102.846 196.637H178.975C180.358 196.637 180.411 198.135 180.411 198.135C180.411 198.135 180.411 205.357 180.411 206.588C180.411 207.818 178.975 207.925 178.975 207.925H102.846C102.846 207.925 101.356 207.765 101.356 206.534C101.356 205.304 101.356 198.028 101.356 198.028C101.356 198.028 101.25 196.637 102.846 196.637Z" fill="#023EA1"/>
<path d="M150.78 106.757C150.78 109.913 148.918 112.481 146.63 112.481C144.342 112.481 142.48 109.913 142.48 106.757C142.48 103.6 144.342 101.033 146.63 101.033C148.864 101.033 150.78 103.6 150.78 106.757Z" fill="#20B8C4"/>
<path d="M106.464 93.4355H48.21V61.6565H106.464C106.464 61.6565 106.517 61.6565 106.517 61.71V93.4355H106.464Z" fill="#C6EAF7"/>
<path opacity="0.7" d="M56.8284 54.0595H48.21V51.1705H56.8284V54.0595Z" fill="#F78494"/>
<path opacity="0.7" d="M65.6594 54.0595H57.041V51.1705H65.6594V54.0595Z" fill="#FCFCBE"/>
<path opacity="0.7" d="M74.4905 54.0595H65.8721V51.1705H74.4905V54.0595Z" fill="#ABEAA7"/>
<path d="M234.037 54.0595H74.5967V51.1705H233.984V54.0595H234.037Z" fill="#C7DBE2"/>
<g opacity="0.6">
<path d="M165.942 134.47H48.21V130.885H165.888V134.47H165.942Z" fill="#C7DBE2"/>
<path d="M234.41 139.338H48.21V137.894H234.41V139.338Z" fill="#C7DBE2"/>
<path d="M234.41 142.655H48.21V141.211H234.41V142.655Z" fill="#C7DBE2"/>
<path d="M234.41 145.919H48.21V144.475H234.41V145.919Z" fill="#C7DBE2"/>
<path d="M119.551 149.236H48.21V147.792H119.551V149.236Z" fill="#C7DBE2"/>
</g>
<g opacity="0.6">
<path d="M165.942 109.699H48.21V106.115H165.888V109.699H165.942Z" fill="#C7DBE2"/>
<path d="M234.41 114.622H48.21V113.177H234.41V114.622Z" fill="#C7DBE2"/>
<path d="M234.41 117.885H48.21V116.44H234.41V117.885Z" fill="#C7DBE2"/>
<path d="M234.41 121.149H48.21V119.704H234.41V121.149Z" fill="#C7DBE2"/>
<path d="M119.551 124.465H48.21V123.021H119.551V124.465Z" fill="#C7DBE2"/>
</g>
<path d="M170.623 93.4355H112.369V61.6565H170.623C170.623 61.6565 170.676 61.6565 170.676 61.71V93.4355H170.623Z" fill="#F9D4DC"/>
<path d="M233.665 93.4355H175.411V61.6565H233.665C233.665 61.6565 233.718 61.6565 233.718 61.71V93.4355H233.665Z" fill="#C6EAF7"/>
<path d="M79.8626 122.379C79.8626 122.379 97.8442 104.991 99.2274 103.654C100.611 102.263 101.621 101.568 103.058 100.926C104.494 100.284 104.92 99.7485 106.197 98.518C107.58 97.127 106.197 96.806 106.197 96.806C106.303 96.4315 105.771 96.271 105.771 96.271C106.037 96.0035 105.345 95.629 105.345 95.629C105.345 95.629 105.771 94.7195 106.516 94.024C107.207 93.3285 106.516 93.489 106.516 93.489L104.281 95.5755C103.271 95.308 101.568 96.592 100.717 97.8225C99.8126 99.1065 99.1742 99.4275 99.1742 99.4275L77.043 116.976L79.8626 122.379Z" fill="#FFBF99"/>
<path d="M73.1067 101.514C75.9795 97.7155 71.8299 93.4355 71.8299 93.4355C71.8299 93.4355 71.4575 93.8635 70.4467 95.415C69.4359 96.9665 68.1059 96.806 65.9247 97.983C63.6903 99.16 59.8599 101.139 60.7111 106.757C61.5091 112.428 66.5631 112.588 66.5631 112.588C66.5631 112.588 70.1807 105.259 73.1067 101.514Z" fill="#1B1156"/>
<path d="M64.0096 211.617C65.446 212.901 69.8616 214.88 69.8616 214.88C70.2872 215.148 70.234 215.897 70.1276 216.164C70.0212 216.271 70.0212 216.271 69.968 216.271C68.8508 216.271 61.456 216.164 59.4344 216.164C57.466 216.057 58.1576 212.58 58.3172 211.884C58.3172 211.777 58.4236 211.724 58.4236 211.724C59.062 211.403 62.52 210.493 64.0096 211.617Z" fill="#1A1155"/>
<path d="M82.8416 211.242C85.1824 212.687 90.2364 214.666 90.2364 214.666C91.0344 215.041 90.928 215.683 90.8748 215.95C90.8748 216.057 90.7684 216.057 90.7152 216.057C89.5448 216.057 80.3944 216.164 78.3728 216.057C76.4044 215.95 77.096 212.098 77.2556 211.349C77.2556 211.242 77.2556 211.189 77.362 211.189C77.894 210.921 80.7668 209.905 82.8416 211.242Z" fill="#1A1155"/>
<path d="M64.6477 147.898L67.8929 159.936L68.4249 171.117L63.9029 211.617L58.4233 211.67L57.2529 148.005L64.6477 147.898Z" fill="#0064E1"/>
<path d="M79.4901 147.898L82.8949 211.189H77.3089L70.0205 178.179C68.4245 174.916 63.2109 147.952 63.2109 147.952L79.4901 147.898Z" fill="#003EB0"/>
<path d="M67.893 103.279C66.5098 105.526 66.7758 108.148 66.5098 110.395C66.1374 112.749 64.2754 117.992 64.2754 117.992C64.2754 117.992 71.2978 119.008 70.9254 117.992C70.553 116.975 70.3934 113.551 70.553 112.642C70.7126 111.732 71.9894 111.946 73.6386 111.946C75.2346 111.946 75.873 111.786 75.873 107.773C75.873 103.707 73.0534 101.407 73.0534 101.407C70.9254 99.4275 69.2762 101.139 67.893 103.279Z" fill="#FFBF99"/>
<path d="M74.0639 127.729L80.3415 122.486L77.3091 116.066L71.6699 119.329L74.0639 127.729Z" fill="#F79F03"/>
<path d="M65.9773 117.778C67.6797 118.58 69.7545 118.473 70.5525 117.938C71.3505 117.403 72.0953 118.206 72.0953 118.206C72.0953 118.206 74.7021 121.095 76.2449 128.05C77.6813 134.898 79.3837 148.112 79.3837 148.112H57.3057C57.3057 148.112 57.4653 141.425 58.6889 132.009C59.8593 122.593 63.2109 118.794 63.2109 118.794C63.7429 118.045 64.1685 116.868 65.9773 117.778Z" fill="#FCBE42"/>
<path d="M66.9888 107.666C65.8716 107.292 65.18 105.954 65.8184 105.312C66.4568 104.67 67.6272 104.938 67.6272 104.938C67.6272 104.938 68.1592 108.094 66.9888 107.666Z" fill="#FFBF99"/>
<path d="M64.7539 131.848C64.7539 131.848 65.0199 134.844 66.6159 141.532C68.2119 148.112 72.9467 159.347 73.5319 160.043C74.1703 160.738 74.1703 163.895 74.5427 165.446C74.9151 166.998 76.9367 165.981 77.8943 165.179C78.7987 164.483 77.8943 162.183 77.8943 162.183C77.8943 162.183 75.9259 157.582 74.5427 152.767C73.2659 147.952 70.7655 130.243 70.7655 130.243L64.7539 131.848Z" fill="#FFBF99"/>
<path d="M64.0092 132.544C64.0092 132.544 63.7432 128.371 63.7432 124.84C63.8496 121.309 66.084 121.309 66.084 121.309C70.1272 121.416 71.67 131.153 71.67 131.153L64.0092 132.544Z" fill="#F79F03"/>
</svg>
