<svg width="150" height="150" viewBox="0 0 150 150" fill="none" xmlns="http://www.w3.org/2000/svg">
<g clip-path="url(#clip0_4005_1625)">
<path d="M72.3607 150C69.3676 149.178 66.2866 148.592 63.4109 147.447C58.5986 145.51 54.8133 142.136 51.8497 137.881C50.6466 136.15 50.6466 134.888 51.8497 134.037C53.0527 133.186 54.1971 133.597 55.4296 135.358C64.1152 147.741 81.7505 149.237 92.1381 138.292C98.799 131.279 100.648 122.857 97.3905 113.761C94.1041 104.635 87.3258 99.2654 77.6131 98.121C62.0025 96.2724 49.0327 109.917 51.4682 125.44C51.7323 127.112 51.0867 128.227 49.737 128.462C48.3872 128.697 47.3895 127.846 47.1547 126.144C46.9493 124.501 46.832 122.857 46.6559 121.009C46.1277 121.009 45.5702 121.009 44.9833 121.009C32.5711 121.009 20.1882 121.009 7.77598 121.009C2.75827 121.009 0 118.251 0 113.233C0 106.249 0 99.2654 0 92.2817C0 87.4987 1.49651 85.4447 6.10341 84.0068C6.10341 82.393 6.10341 80.7497 6.10341 79.0185C5.66326 78.9011 5.22311 78.7544 4.75362 78.6077C1.93666 77.6687 0.0293433 75.1745 0 72.2402C0 64.4348 0 56.6295 0.0586867 48.7948C0.08803 45.391 2.25944 43.0435 6.13276 42.0165C6.13276 40.4026 6.13276 38.7594 6.13276 37.0282C5.54589 36.8228 4.90034 36.6467 4.28413 36.3826C1.67257 35.2382 0.117373 33.1842 0.08803 30.3672C-0.0293433 22.4739 0 14.5805 0.0586867 6.65781C0.08803 3.07792 3.05171 0.172932 6.60225 0.0555584C8.94972 -0.0324716 11.2972 -0.00312826 13.6447 0.0555584C15.1118 0.0849017 16.0508 1.02389 16.0508 2.28565C16.0215 3.54742 15.0531 4.42772 13.586 4.42772C11.5319 4.45706 9.4779 4.42772 7.42386 4.42772C5.39917 4.45706 4.43084 5.3667 4.43084 7.36205C4.43084 14.7859 4.43084 22.2098 4.43084 29.6336C4.43084 31.629 5.36983 32.568 7.42386 32.568C34.5078 32.568 61.5917 32.568 88.7049 32.568C90.847 32.568 91.7566 31.6877 91.7566 29.5456C91.7566 22.2098 91.7566 14.9033 91.7566 7.56745C91.7566 5.27867 90.8763 4.42772 88.5582 4.42772C67.519 4.42772 46.4798 4.42772 25.4407 4.42772C24.9125 4.42772 24.355 4.4864 23.8268 4.36903C22.6237 4.13428 21.9488 3.37136 21.9782 2.10959C22.0368 0.906515 22.7411 0.260962 23.8855 0.0555584C24.2669 -0.00312826 24.6777 0.0262151 25.0592 0.0262151C46.1864 0.0262151 67.343 0.0262151 88.4702 0.0262151C93.3998 0.0262151 96.1581 2.78449 96.1581 7.74351C96.1581 14.7272 96.1581 21.7109 96.1581 28.6947C96.1581 33.6243 94.7496 35.5316 90.0253 37.0282C90.0253 38.6714 90.0253 40.3146 90.0253 42.0165C94.3682 43.0142 96.3635 45.7725 96.1874 50.35C96.833 50.35 97.3905 50.35 97.948 50.35C106.135 50.35 114.351 50.35 122.538 50.35C123.037 50.35 123.535 50.3207 124.005 50.4087C125.032 50.5848 125.648 51.2303 125.766 52.2867C125.883 53.3137 125.472 54.1353 124.474 54.5168C123.888 54.7222 123.242 54.7515 122.596 54.7515C114.263 54.7809 105.9 54.7515 97.5666 54.7515C97.0384 54.7515 96.5102 54.7515 95.806 54.7515C96.3635 56.5121 96.8623 58.126 97.3612 59.7106C111.505 59.7106 125.531 59.7106 139.528 59.7106C139.616 59.5638 139.674 59.4758 139.704 59.3878C139.968 54.7222 139.968 54.7515 135.361 54.7222C134.715 54.7222 134.07 54.7515 133.453 54.6342C132.309 54.3701 131.664 53.6071 131.722 52.4334C131.781 51.201 132.485 50.4087 133.776 50.3794C135.713 50.3207 137.679 50.2913 139.616 50.4087C142.139 50.5848 144.017 52.8149 144.105 55.5145C144.164 56.8643 144.105 58.2434 144.105 59.7106C147.127 59.6812 149.035 61.119 150.003 63.848C150.003 81.5127 150.003 99.2067 150.003 116.871C148.947 119.923 146.775 121.038 143.577 121.009C130.754 120.921 117.931 120.979 105.078 120.979C104.521 120.979 103.934 120.979 103.289 120.979C103.259 121.596 103.201 122.094 103.201 122.564C102.79 135.094 94.3975 145.716 82.3374 149.032C80.8996 149.413 79.4031 149.677 77.9359 150C76.0873 150 74.2386 150 72.3607 150ZM102.819 116.607C103.377 116.607 103.875 116.607 104.345 116.607C117.432 116.607 130.49 116.607 143.577 116.607C145.572 116.607 145.572 116.607 145.572 114.553C145.572 98.5024 145.572 82.4223 145.572 66.3715C145.572 64.1707 145.572 64.1707 143.43 64.1707C127.82 64.1707 112.209 64.1707 96.5689 64.1707C94.4269 64.1707 94.016 63.8773 93.3411 61.7646C92.7249 59.8279 92.05 57.8913 91.5219 55.8959C91.2578 54.9569 90.7589 54.6928 89.8493 54.6928C83.8926 54.7222 77.9359 54.7222 71.9792 54.6928C70.9522 54.6928 70.512 55.0743 70.2479 56.0133C69.7198 57.9793 69.0449 59.916 68.4287 61.882C67.8418 63.7599 67.3136 64.1414 65.3769 64.1414C64.9955 64.1414 64.5847 64.1707 64.2032 64.1414C62.8241 63.9653 62.3252 64.4935 62.3546 65.9313C62.4133 75.644 62.3839 85.3566 62.3839 95.0693C62.3839 95.4801 62.4426 95.8909 62.472 96.3604C70.9815 92.5164 79.3444 92.3697 87.5899 96.5071C95.894 100.703 100.824 107.57 102.819 116.607ZM91.6099 50.35C91.874 47.3864 91.023 46.4474 88.3234 46.418C61.4743 46.418 34.6251 46.418 7.77598 46.418C5.19377 46.418 4.4015 47.2396 4.4015 49.8805C4.4015 56.9523 4.4015 64.024 4.4015 71.1251C4.4015 73.7954 5.19377 74.5876 7.9227 74.5876C24.0909 74.5876 40.2297 74.5876 56.3979 74.5876C56.9261 74.5876 57.4249 74.5289 58.0118 74.5289C58.0118 71.2425 57.9824 68.1321 58.0118 64.9924C58.0411 62.4982 59.567 60.1214 61.9144 60.092C64.7607 60.0627 65.0248 58.3021 65.553 56.4241C65.7291 55.7785 65.9638 55.133 66.1692 54.4581C67.1082 51.5238 68.6927 50.35 71.7738 50.35C77.6718 50.35 83.5992 50.35 89.4972 50.35C90.2014 50.35 90.8763 50.35 91.6099 50.35ZM58.0118 88.5257C57.601 88.4964 57.3662 88.467 57.1315 88.467C40.5525 88.467 23.9735 88.467 7.39452 88.467C5.31114 88.467 4.43084 89.406 4.43084 91.5774C4.43084 98.7959 4.43084 106.014 4.43084 113.233C4.43084 115.786 5.25246 116.607 7.86401 116.607C20.511 116.607 33.1286 116.607 45.7756 116.607C46.2451 116.607 46.7146 116.578 47.1254 116.549C47.2428 116.373 47.3015 116.285 47.3308 116.196C48.7686 109.506 52.1431 104.019 57.4249 99.7055C57.7183 99.4708 58.0118 99.0013 58.0118 98.6492C58.0411 95.304 58.0118 91.9882 58.0118 88.5257ZM10.681 41.9285C35.6522 41.9285 60.5353 41.9285 85.4184 41.9285C85.4184 40.2266 85.4184 38.642 85.4184 37.0868C60.4473 37.0868 35.5348 37.0868 10.681 37.0868C10.681 38.7594 10.681 40.2853 10.681 41.9285ZM57.9237 84.0362C57.9237 82.3049 57.9237 80.7204 57.9237 79.0772C42.137 79.0772 26.4677 79.0772 10.7397 79.0772C10.7397 80.7791 10.7397 82.393 10.7397 84.0362C26.5264 84.0362 42.1664 84.0362 57.9237 84.0362Z" fill="#2A2A2A"/>
<path d="M65.644 115.345C67.2579 115.14 68.4023 115.492 68.7838 116.901C69.1652 118.28 68.2556 119.072 67.1992 119.718C66.0842 120.422 64.9985 121.155 63.8834 121.83C62.2109 122.857 61.1839 122.623 60.0982 120.95C59.3646 119.864 58.6897 118.72 57.9561 117.634C57.1932 116.519 56.8117 115.404 57.8681 114.318C58.8951 113.291 60.0395 113.438 61.0958 114.377C61.8588 113.203 62.475 112.059 63.2966 111.032C66.1722 107.452 69.8988 105.515 74.5351 105.339C76.1783 105.281 77.1173 106.044 77.176 107.393C77.2347 108.743 76.3544 109.623 74.7405 109.711C70.7791 109.976 67.9035 111.824 65.644 115.345Z" fill="#2A2A2A"/>
<path d="M84.1871 128.433C83.4242 128.227 82.6613 128.169 82.0744 127.817C80.8126 127.054 80.7833 125.264 82.0451 124.354C83.5416 123.268 85.0968 122.271 86.7107 121.332C87.855 120.657 88.9114 121.038 89.645 122.095C90.5253 123.386 91.3469 124.706 92.1979 126.027C92.9314 127.112 93.1368 128.227 92.1098 129.196C91.0828 130.193 89.9971 129.959 88.8527 129.049C88.618 129.489 88.3832 129.9 88.1485 130.311C85.3609 135.152 81.1648 137.793 75.5895 138.116C73.9756 138.204 72.978 137.441 72.8899 136.121C72.7726 134.771 73.5942 133.891 75.2374 133.773C79.1401 133.538 82.1331 131.807 84.1871 128.433Z" fill="#2A2A2A"/>
<path d="M16.4311 25.4377C12.6458 25.4377 9.44742 22.21 9.47676 18.4247C9.53545 14.6687 12.6458 11.5583 16.4018 11.5583C20.2164 11.5583 23.4148 14.7568 23.3562 18.5421C23.2975 22.3274 20.1871 25.4377 16.4311 25.4377ZM16.3138 21.0362C17.6342 21.0949 18.8666 20.0092 18.9547 18.6301C19.0427 17.2803 17.9863 16.0772 16.6072 15.9599C15.1987 15.8425 13.937 16.9869 13.9076 18.3953C13.8489 19.7451 14.964 20.9776 16.3138 21.0362Z" fill="#2A2A2A"/>
<path d="M42.2504 18.5126C42.2504 22.3272 39.1987 25.4082 35.4134 25.4376C31.5988 25.4669 28.4297 22.2978 28.4297 18.4832C28.4297 14.6979 31.5107 11.6169 35.296 11.5582C39.14 11.4995 42.2504 14.6392 42.2504 18.5126ZM37.8489 18.5126C37.8489 17.1334 36.7925 15.989 35.4134 15.9597C34.0636 15.9303 32.8899 17.016 32.8312 18.3952C32.7725 19.8037 33.9756 21.0361 35.3547 21.0361C36.7339 21.0361 37.8489 19.8917 37.8489 18.5126Z" fill="#2A2A2A"/>
<path d="M72.6517 25.5257C71.9768 25.467 71.2725 25.467 70.627 25.2909C69.4826 24.9681 68.9838 24.1172 69.1305 22.9434C69.2772 21.8577 69.9521 21.1828 71.0378 21.0948C72.0648 21.0068 73.0918 21.0361 74.0895 21.0655C75.4393 21.1242 76.3489 22.0045 76.3783 23.2075C76.3783 24.3226 75.498 25.2616 74.2656 25.4083C73.7374 25.467 73.2092 25.4083 72.6517 25.4083C72.6517 25.467 72.6517 25.4963 72.6517 25.5257Z" fill="#2A2A2A"/>
<path d="M61.2973 21.0653C61.8254 21.0653 62.3536 21.0359 62.9111 21.0653C64.1729 21.1533 64.8771 21.9162 64.9358 23.1193C64.9945 24.3517 64.2609 25.2027 63.0579 25.3494C61.9135 25.4961 60.7104 25.4668 59.566 25.3494C58.3042 25.2027 57.5707 24.205 57.688 23.0019C57.8347 21.7402 58.5683 21.124 59.8301 21.0653C60.3289 21.0359 60.7984 21.0653 61.2973 21.0653Z" fill="#2A2A2A"/>
<path d="M72.6566 15.9598C72.0698 15.9304 71.4829 15.9598 70.9254 15.8718C69.8397 15.6957 69.2235 14.9915 69.1648 13.8764C69.1061 12.7614 69.6049 11.8811 70.6906 11.7344C72.0111 11.5583 73.3902 11.5583 74.74 11.705C75.9138 11.8517 76.4713 12.7907 76.3832 13.9351C76.2952 15.0501 75.6203 15.8131 74.4172 15.9011C73.8304 15.9598 73.2435 15.9011 72.686 15.9011C72.6566 15.9304 72.6566 15.9304 72.6566 15.9598Z" fill="#2A2A2A"/>
<path d="M61.2365 15.8715C60.6497 15.8715 60.0628 15.9302 59.5053 15.8422C58.4196 15.6661 57.774 14.9912 57.7153 13.8762C57.6566 12.7025 58.1848 11.8222 59.3586 11.6461C60.5323 11.47 61.7941 11.47 62.9678 11.5581C64.2002 11.6461 64.8751 12.4677 64.9338 13.7001C64.9925 14.8445 64.0828 15.7542 62.8211 15.8715C62.2929 15.9302 61.7647 15.8715 61.2072 15.8715C61.2365 15.9009 61.2365 15.9009 61.2365 15.8715Z" fill="#2A2A2A"/>
<path d="M83.3641 15.9302C82.2784 16.0182 81.0167 15.8128 80.7232 14.4337C80.5765 13.7294 80.8993 12.7024 81.3688 12.1156C82.0143 11.2646 84.7726 11.1766 85.5942 11.9688C86.1517 12.497 86.5625 13.436 86.5332 14.1989C86.5039 15.4607 85.4475 15.9302 83.3641 15.9302Z" fill="#2A2A2A"/>
<path d="M50.5025 21.0655C51.7055 20.9775 52.8206 21.1242 53.3194 22.386C53.7302 23.413 53.4661 24.2933 52.5858 24.9682C51.6762 25.6724 49.182 25.6431 48.2724 24.9388C47.3627 24.2639 47.1867 23.2956 47.5681 22.3273C48.1256 21.0362 49.3287 20.9775 50.5025 21.0655Z" fill="#2A2A2A"/>
<path d="M83.772 21.0947C84.0068 21.0947 84.4763 20.9479 84.7697 21.124C85.4153 21.5348 86.3543 22.0337 86.4716 22.6205C86.589 23.3541 86.2075 24.4105 85.65 24.968C84.8577 25.7896 82.0995 25.7309 81.4246 24.88C80.9257 24.2637 80.603 23.178 80.779 22.4445C81.0725 21.0653 82.3636 20.9773 83.772 21.0947Z" fill="#2A2A2A"/>
<path d="M50.386 16.2238C49.5057 15.8423 48.5667 15.6369 47.9211 15.0794C47.0702 14.3458 47.2756 12.8493 48.1559 12.0864C49.1242 11.2354 51.8825 11.2647 52.8215 12.145C53.6724 12.9373 53.8485 14.4045 52.9389 15.1381C52.264 15.6956 51.325 15.8423 50.386 16.2238Z" fill="#2A2A2A"/>
<path d="M42.2504 60.4735C42.2504 64.3175 39.2574 67.3692 35.4427 67.3986C31.5694 67.4279 28.4297 64.3762 28.4297 60.5029C28.4297 56.6295 31.5107 53.5485 35.3841 53.5778C39.228 53.6365 42.2504 56.6589 42.2504 60.4735ZM35.3254 58.0087C33.9462 58.038 32.8312 59.1531 32.8312 60.5029C32.8312 61.9407 34.0343 63.0557 35.4721 62.9971C36.8806 62.9384 37.8782 61.8233 37.8489 60.4148C37.8196 59.0357 36.7339 57.9793 35.3254 58.0087Z" fill="#2A2A2A"/>
<path d="M16.3429 67.4278C12.5576 67.3985 9.47656 64.2881 9.47656 60.5321C9.47656 56.7175 12.6456 53.6071 16.4896 53.6364C20.2749 53.6658 23.356 56.7762 23.356 60.5321C23.356 64.3174 20.2162 67.4278 16.3429 67.4278ZM18.9545 60.5028C18.9545 59.153 17.8101 58.0086 16.4603 58.0086C15.0811 57.9792 13.9367 59.065 13.8781 60.4441C13.8194 61.8526 15.0225 63.0263 16.4603 63.0263C17.8394 62.997 18.9545 61.8526 18.9545 60.5028Z" fill="#2A2A2A"/>
<path d="M16.4018 109.477C12.6458 109.448 9.50611 106.338 9.47676 102.582C9.44742 98.7963 12.6458 95.5685 16.4311 95.5979C20.2458 95.6272 23.4148 98.855 23.3562 102.64C23.2975 106.396 20.1577 109.477 16.4018 109.477ZM16.3724 99.9994C15.0227 100.029 13.8783 101.202 13.8783 102.523C13.8783 103.931 15.1107 105.105 16.5192 105.046C17.869 104.988 18.984 103.785 18.9253 102.435C18.896 101.114 17.7222 99.97 16.3724 99.9994Z" fill="#2A2A2A"/>
<path d="M42.2504 102.523C42.2504 106.396 39.1107 109.536 35.296 109.477C31.5107 109.418 28.4297 106.337 28.4297 102.552C28.4297 98.7372 31.5988 95.5388 35.4134 95.5975C39.1987 95.6268 42.2504 98.7079 42.2504 102.523ZM35.3547 99.999C34.0049 99.999 32.8605 101.173 32.8605 102.523C32.8312 103.931 34.0343 105.134 35.4721 105.075C36.8512 105.017 37.9076 103.902 37.8782 102.493C37.8196 101.114 36.7045 99.9696 35.3547 99.999Z" fill="#2A2A2A"/>
</g>
<defs>
<clipPath id="clip0_4005_1625">
<rect width="150" height="150" fill="white"/>
</clipPath>
</defs>
</svg>
