<svg width="150" height="150" viewBox="0 0 150 150" fill="none" xmlns="http://www.w3.org/2000/svg">
<g clip-path="url(#clip0_4005_1618)">
<path d="M76.797 0C78.8269 0 80.8265 0 82.8564 0C83.1896 0.0908901 83.5229 0.212077 83.8562 0.27267C95.2174 1.96929 103.428 8.02863 108.366 18.3598C108.942 19.5717 109.517 19.7837 110.729 19.602C126.09 17.36 138.845 31.8418 134.633 46.7478C134.028 48.9292 132.967 50.9894 132.058 53.201C134.088 53.201 136.118 53.1404 138.178 53.201C142.086 53.3525 145.358 54.9279 147.54 58.1697C148.6 59.7451 149.176 61.6841 149.964 63.4716C149.964 88.8602 149.964 114.279 149.964 139.668C149.842 140.031 149.691 140.425 149.6 140.789C148.206 146.121 143.541 149.908 138.027 149.938C120.182 149.969 102.337 149.999 84.5227 149.938C78.7057 149.908 73.7371 145.818 72.8585 140.062C72.404 137.093 72.6161 134.033 72.5858 131.033C72.5555 127.731 72.5858 124.398 72.5858 121.066C69.2531 121.066 66.072 121.066 62.8908 121.066C61.8002 137.486 47.0154 151.029 29.5948 149.938C13.6284 148.939 1.5097 136.456 0.146351 121.49C-0.520177 114.279 1.08555 107.553 5.05442 101.494C10.6896 92.92 18.7788 88.2846 28.9282 87.1636C28.9282 78.9532 28.9282 70.864 28.9282 62.7445C28.4738 62.6536 28.0799 62.5627 27.7164 62.4718C19.7483 60.5328 14.3858 53.7161 14.507 45.6874C14.5979 37.78 20.1725 31.1147 28.1102 29.3878C28.9888 29.206 29.2009 28.8122 29.3524 28.0245C31.4731 18.0568 41.6225 12.2096 51.2266 15.421C52.2264 15.7543 52.6808 15.6331 53.2565 14.6939C57.0133 8.75575 62.1637 4.45362 68.7987 2.09047C71.4042 1.18157 74.1309 0.696824 76.797 0ZM33.8969 33.8717C32.8062 33.8717 31.9579 33.8414 31.1096 33.8717C24.6261 34.0535 19.3848 39.416 19.3848 45.8995C19.3545 52.4739 24.5958 57.9879 31.1702 58.0182C45.4702 58.1091 59.8006 58.0485 74.1006 58.0182C74.5854 58.0182 75.2216 57.8061 75.5246 57.4426C78.221 54.4432 81.5839 53.1707 85.6134 53.1707C98.3986 53.2313 111.214 53.1707 123.999 53.2313C125.12 53.2313 125.878 52.8678 126.575 52.0497C131.119 46.7478 131.907 39.0828 128.544 32.9931C125.06 26.7217 118.122 23.2679 111.123 24.4494C109.396 24.7524 107.73 25.2978 106.003 25.7219C102.398 13.6335 94.6721 5.96845 81.9172 5.02925C68.829 4.05976 59.9521 10.725 54.5592 22.6013C50.0753 19.299 45.3187 18.0871 40.2592 20.8441C35.1693 23.6011 33.4727 28.1759 33.8969 33.8717ZM72.6161 62.9869C59.74 62.9869 46.8336 62.9869 33.9272 62.9869C33.9272 71.0761 33.9272 79.0744 33.9272 86.9818C50.651 89.6783 60.2853 99.3429 62.9514 115.946C66.1326 115.946 69.344 115.946 72.6161 115.946C72.6161 98.2522 72.6161 80.6498 72.6161 62.9869ZM77.403 101.524C77.403 113.249 77.403 125.004 77.403 136.729C77.403 142.304 80.1903 145.121 85.7346 145.121C102.761 145.121 119.788 145.121 136.815 145.121C142.268 145.121 145.146 142.304 145.146 136.85C145.146 113.31 145.146 89.7994 145.146 66.2589C145.146 60.8964 142.299 58.0182 136.966 58.0182C119.849 58.0182 102.701 58.0182 85.5831 58.0182C80.3114 58.0182 77.4333 60.8964 77.4333 66.1074C77.403 77.9534 77.403 89.7388 77.403 101.524ZM22.8083 106.493C22.4447 109.704 22.0812 112.825 21.7176 116.006C28.3223 116.006 34.6543 116.006 41.1984 116.006C40.8045 112.764 40.441 109.644 40.0774 106.493C34.2302 106.493 28.6859 106.493 22.8083 106.493ZM22.8083 130.549C28.7161 130.549 34.2907 130.549 40.0774 130.549C40.441 127.367 40.8045 124.217 41.1681 120.944C37.684 120.944 34.5331 120.944 31.3823 120.944C28.2314 120.944 25.0805 120.944 21.6873 120.944C22.0812 124.277 22.4447 127.398 22.8083 130.549ZM17.8396 106.432C14.6585 106.432 11.5379 106.402 8.41735 106.463C8.11438 106.463 7.65993 106.766 7.50845 107.038C6.1148 109.856 5.2362 112.795 4.99382 116.036C8.99299 116.036 12.9013 116.036 16.8398 116.036C17.2034 112.825 17.5064 109.704 17.8396 106.432ZM4.78175 121.035C5.35738 123.277 5.75124 125.428 6.44807 127.519C7.47815 130.67 7.53875 130.639 10.8108 130.639C13.1436 130.639 15.4765 130.639 17.8396 130.639C17.5064 127.307 17.1731 124.216 16.8701 121.035C12.9619 121.035 9.05358 121.035 4.78175 121.035ZM58.0737 116.036C57.5889 113.976 57.2254 112.007 56.6194 110.129C55.4681 106.432 55.4076 106.432 51.5902 106.432C49.4088 106.432 47.2274 106.432 45.0158 106.432C45.349 109.765 45.6823 112.855 45.9853 116.036C49.9238 116.036 53.8321 116.036 58.0737 116.036ZM45.0461 130.609C48.2575 130.609 51.4084 130.609 54.5895 130.579C54.8319 130.579 55.1955 130.367 55.3167 130.185C56.7103 127.307 57.7101 124.277 57.8616 121.066C53.8018 121.066 49.8936 121.066 46.0459 121.066C45.6823 124.277 45.3793 127.367 45.0461 130.609ZM38.6838 135.487C33.806 135.487 29.0797 135.487 24.2019 135.487C25.2017 138.547 26.3227 141.425 28.595 143.697C30.5037 145.606 32.3518 145.606 34.2604 143.697C36.563 141.455 37.6537 138.547 38.6838 135.487ZM24.2019 101.555C29.0797 101.555 33.806 101.555 38.6535 101.555C37.7143 98.6764 36.6539 95.98 34.6543 93.7683C32.4426 91.3143 30.3522 91.3143 28.1405 93.7986C26.2318 95.9497 25.1714 98.6158 24.2019 101.555ZM10.932 101.585C13.6587 101.585 16.0218 101.615 18.3547 101.555C18.6576 101.555 19.1121 101.252 19.2333 100.979C20.2028 98.5855 21.0814 96.192 22.0509 93.6471C17.7487 95.3134 14.1737 97.8281 10.932 101.585ZM51.9234 101.585C48.712 97.8281 45.137 95.3134 40.8045 93.6774C41.774 96.192 42.6526 98.5552 43.6221 100.918C43.7433 101.252 44.3493 101.555 44.7431 101.555C46.9851 101.615 49.2573 101.585 51.9234 101.585ZM10.932 135.457C14.1737 139.183 17.7487 141.758 22.0812 143.364C21.142 140.88 20.2634 138.547 19.2939 136.244C19.1424 135.911 18.6273 135.517 18.2638 135.487C15.9612 135.426 13.6587 135.457 10.932 135.457ZM51.7114 135.457C50.2571 135.457 49.0149 135.426 47.7728 135.457C46.47 135.487 44.9249 135.123 43.9857 135.699C43.1677 136.184 43.1071 137.82 42.6526 138.941C42.0467 140.365 41.4105 141.789 40.7439 143.334C44.834 142.001 49.8027 138.456 51.7114 135.457Z" fill="#2A2A2A"/>
<path d="M45.8962 48.3839C45.8962 50.0199 45.8962 51.5045 45.8962 53.2314C45.1085 53.2314 44.3208 53.2314 43.5331 53.2314C39.443 53.2314 35.3833 53.292 31.2932 53.2011C27.4758 53.1405 24.3553 50.0805 24.2038 46.3237C24.022 42.5366 26.779 39.2646 30.5661 38.7495C30.8085 38.7193 31.0509 38.7495 31.3841 38.7495C31.3841 40.2947 31.3841 41.8095 31.3841 43.4455C31.2326 43.5061 31.0206 43.5667 30.8085 43.6576C29.5663 44.1121 28.8695 45.021 29.1119 46.3237C29.3542 47.6871 30.2934 48.3839 31.6871 48.3839C35.868 48.3839 40.049 48.3839 44.2299 48.3839C44.745 48.3839 45.2903 48.3839 45.8962 48.3839Z" fill="#2A2A2A"/>
<path d="M85.2187 10.4524C84.8248 11.9672 84.431 13.4214 84.0674 14.9363C76.0085 13.482 69.7371 16.0875 65.1017 22.9043C63.7989 22.1469 62.4659 21.3895 61.1328 20.6321C64.5866 13.3305 75.3117 7.54387 85.2187 10.4524Z" fill="#2A2A2A"/>
<path d="M125.705 41.0823C124.1 41.0823 122.585 41.0823 121.04 41.0823C120.525 36.7499 118.101 34.2959 113.738 33.7808C113.738 32.2357 113.738 30.7511 113.738 29.2666C118.555 28.4789 125.857 33.4173 125.705 41.0823Z" fill="#2A2A2A"/>
<path d="M88.375 16.6631C89.1324 15.3604 89.8898 14.0273 90.829 12.4519C92.7074 13.997 94.4646 15.4513 96.2824 16.9661C94.9494 18.1477 93.7981 19.1475 92.6771 20.1776C91.2229 18.9657 89.8292 17.8447 88.375 16.6631Z" fill="#2A2A2A"/>
<path d="M55.529 53.1403C53.9233 53.1403 52.4387 53.1403 50.8633 53.1403C50.8633 51.5952 50.8633 50.1106 50.8633 48.4746C52.3478 48.4746 53.893 48.4746 55.529 48.4746C55.529 49.9894 55.529 51.5043 55.529 53.1403Z" fill="#2A2A2A"/>
<path d="M82.2478 101.433C82.2478 90.4357 82.2478 79.4683 82.2478 68.4706C82.2478 64.7744 84.1262 62.8657 87.7921 62.8657C103.456 62.8657 119.119 62.8657 134.813 62.8657C138.418 62.8657 140.296 64.7744 140.296 68.3797C140.296 90.4963 140.296 112.613 140.296 134.73C140.296 138.335 138.418 140.244 134.813 140.244C119.089 140.244 103.365 140.244 87.6407 140.244C84.1565 140.244 82.2478 138.305 82.2478 134.79C82.2175 123.702 82.2478 112.583 82.2478 101.433ZM87.1256 86.9819C103.274 86.9819 119.331 86.9819 135.328 86.9819C135.328 80.4984 135.328 74.1361 135.328 67.8041C119.21 67.8041 103.213 67.8041 87.1256 67.8041C87.1256 74.227 87.1256 80.5287 87.1256 86.9819ZM87.1559 111.159C103.304 111.159 119.331 111.159 135.358 111.159C135.358 104.705 135.358 98.3432 135.358 91.9809C119.24 91.9809 103.243 91.9809 87.1559 91.9809C87.1559 98.4038 87.1559 104.736 87.1559 111.159ZM135.358 135.396C135.358 128.913 135.358 122.55 135.358 116.218C119.21 116.218 103.183 116.218 87.1559 116.218C87.1559 122.671 87.1559 129.003 87.1559 135.396C103.213 135.396 119.24 135.396 135.358 135.396Z" fill="#2A2A2A"/>
<path d="M92.0039 72.6208C93.6096 72.6208 95.0942 72.6208 96.6696 72.6208C96.6696 75.7717 96.6696 78.8923 96.6696 82.1037C95.1851 82.1037 93.6399 82.1037 92.0039 82.1037C92.0039 79.0135 92.0039 75.8929 92.0039 72.6208Z" fill="#2A2A2A"/>
<path d="M101.707 72.6208C103.313 72.6208 104.797 72.6208 106.373 72.6208C106.373 75.7717 106.373 78.8923 106.373 82.1037C104.888 82.1037 103.343 82.1037 101.707 82.1037C101.707 79.0135 101.707 75.8929 101.707 72.6208Z" fill="#2A2A2A"/>
<path d="M116.034 82.1645C114.489 82.1645 113.004 82.1645 111.398 82.1645C111.398 79.044 111.398 75.8931 111.398 72.6514C112.913 72.6514 114.428 72.6514 116.034 72.6514C116.034 75.8325 116.034 78.9531 116.034 82.1645Z" fill="#2A2A2A"/>
<path d="M106.52 96.8284C108.125 96.8284 109.61 96.8284 111.185 96.8284C111.185 100.01 111.185 103.1 111.185 106.311C109.67 106.311 108.156 106.311 106.52 106.311C106.52 103.191 106.52 100.07 106.52 96.8284Z" fill="#2A2A2A"/>
<path d="M120.877 96.8284C120.877 99.9792 120.877 103.1 120.877 106.311C119.362 106.311 117.847 106.311 116.211 106.311C116.211 103.191 116.211 100.07 116.211 96.8284C117.695 96.8284 119.21 96.8284 120.877 96.8284Z" fill="#2A2A2A"/>
<path d="M130.545 96.8584C130.545 100.009 130.545 103.1 130.545 106.341C129.03 106.341 127.515 106.341 125.879 106.341C125.879 103.221 125.879 100.1 125.879 96.8584C127.424 96.8584 128.939 96.8584 130.545 96.8584Z" fill="#2A2A2A"/>
<path d="M111.371 121.005C112.947 121.005 114.431 121.005 116.006 121.005C116.006 124.217 116.006 127.337 116.006 130.549C114.461 130.549 112.977 130.549 111.371 130.549C111.371 127.398 111.371 124.277 111.371 121.005Z" fill="#2A2A2A"/>
<path d="M101.707 121.005C103.313 121.005 104.797 121.005 106.373 121.005C106.373 124.186 106.373 127.277 106.373 130.488C104.858 130.488 103.343 130.488 101.707 130.488C101.707 127.398 101.707 124.247 101.707 121.005Z" fill="#2A2A2A"/>
<path d="M92.0469 121.005C93.6223 121.005 95.1068 121.005 96.6823 121.005C96.6823 124.217 96.6823 127.337 96.6823 130.549C95.1371 130.549 93.6526 130.549 92.0469 130.549C92.0469 127.398 92.0469 124.277 92.0469 121.005Z" fill="#2A2A2A"/>
</g>
<defs>
<clipPath id="clip0_4005_1618">
<rect width="150" height="150" fill="white"/>
</clipPath>
</defs>
</svg>
