<svg width="150" height="150" viewBox="0 0 150 150" fill="none" xmlns="http://www.w3.org/2000/svg">
<g clip-path="url(#clip0_4005_1611)">
<path d="M0 129.072C0 89.5672 0 50.0626 0 10.5287C0.821822 7.65457 1.87845 4.80977 4.40262 3.07942C6.28107 1.789 8.48238 0.997147 10.5369 0C50.0725 0 89.6374 0 129.173 0C137.186 1.70101 140.15 7.83053 140.062 15.0159C139.857 38.3901 140.003 61.7351 139.945 85.1094C139.945 86.3998 140.267 87.3676 141.119 88.3941C148.104 96.8405 151.157 106.577 149.572 117.399C147.458 131.829 139.446 142.152 125.798 147.343C112.208 152.505 99.5286 150.041 88.2285 140.862C87.4067 140.216 86.6729 139.894 85.6163 139.894C69.6495 139.923 53.6826 139.923 37.7451 139.923C29.4389 139.923 21.1619 139.952 12.8557 139.923C8.59978 139.923 4.96029 138.339 2.55352 134.791C1.35014 133.09 0.821822 130.978 0 129.072ZM82.2703 134.908C72.291 118.954 72.1736 103.527 83.6204 88.4234C98.9709 72.2051 116.2 71.0614 134.896 82.0006C134.896 63.1135 134.896 44.1091 134.896 25.046C91.5745 25.046 48.3408 25.046 4.98964 25.046C4.98964 25.7205 4.98964 26.2777 4.98964 26.8643C4.98964 59.9754 4.98964 93.1159 4.98964 126.227C4.98964 131.946 7.92472 134.879 13.6188 134.879C35.9254 134.879 58.232 134.879 80.568 134.879C81.0963 134.908 81.6246 134.908 82.2703 134.908ZM112.384 144.88C130.288 144.938 144.964 130.392 144.993 112.502C145.052 94.6116 130.494 79.977 112.59 79.9184C94.6857 79.8597 80.0396 94.4063 79.9809 112.296C79.9516 130.216 94.4509 144.821 112.384 144.88ZM5.01899 19.8256C48.4288 19.8256 91.6626 19.8256 135.014 19.8256C135.014 17.6847 135.014 15.6904 135.014 13.6961C135.014 7.88919 132.079 4.98573 126.267 4.98573C88.7275 4.98573 51.1878 4.98573 13.6481 4.98573C13.1492 4.98573 12.6795 4.98573 12.1806 4.98573C8.42368 5.19103 5.28314 8.06516 5.04834 11.8484C4.87223 14.4586 5.01899 17.0981 5.01899 19.8256Z" fill="#2A2A2A"/>
<path d="M51.2795 82.4405C58.7933 82.4405 66.3071 82.4405 73.8209 82.4405C74.3492 82.4405 74.9069 82.4112 75.4352 82.4991C76.6386 82.7044 77.343 83.467 77.4311 84.6694C77.5485 85.8718 77.0202 86.781 75.8755 87.1916C75.2885 87.3969 74.6427 87.4262 73.997 87.4262C58.8227 87.4262 43.6189 87.4262 28.4446 87.4262C27.8576 87.4262 27.2705 87.3969 26.7129 87.2209C25.5389 86.869 24.9518 85.9598 25.0399 84.7867C25.1279 83.5549 25.8324 82.7044 27.1238 82.4991C27.6521 82.4112 28.1804 82.4405 28.7381 82.4405C36.2225 82.4405 43.7363 82.4405 51.2795 82.4405Z" fill="#2A2A2A"/>
<path d="M46.2002 97.4272C40.242 97.4272 34.3131 97.4272 28.3549 97.4272C27.7385 97.4272 27.0635 97.3685 26.5058 97.1339C25.4492 96.694 24.9502 95.7848 25.0676 94.6703C25.185 93.4972 25.8894 92.7054 27.0928 92.4708C27.3863 92.4121 27.6798 92.4121 27.9733 92.4121C40.1539 92.4121 52.3638 92.4121 64.5444 92.4121C66.687 92.4121 67.9491 93.8492 67.3621 95.6088C66.8925 97.0459 65.7185 97.3978 64.339 97.3978C58.2927 97.4272 52.2464 97.4272 46.2002 97.4272Z" fill="#2A2A2A"/>
<path d="M97.4745 47.3644C94.4807 44.6662 91.6043 42.056 88.728 39.4459C87.7887 38.5954 86.8202 37.7742 85.9103 36.8943C84.7656 35.7799 84.6776 34.4601 85.6168 33.375C86.556 32.2605 88.0529 32.1432 89.2563 33.2284C93.248 36.8357 97.2103 40.4137 101.085 44.109C103.081 46.0153 103.022 48.9774 100.997 50.9131C97.1517 54.5497 93.1893 58.1277 89.2563 61.7057C88.141 62.7322 86.6441 62.6735 85.7048 61.7057C84.6776 60.6499 84.7069 59.1835 85.9103 58.0691C89.2856 54.9016 92.7197 51.7929 96.1537 48.6841C96.5646 48.2442 96.9755 47.863 97.4745 47.3644Z" fill="#2A2A2A"/>
<path d="M42.5013 47.5404C46.0821 50.7958 49.5161 53.8752 52.9501 56.9839C53.361 57.3359 53.772 57.6878 54.1242 58.0691C55.1808 59.1835 55.2395 60.5619 54.3003 61.6177C53.361 62.6149 51.8935 62.7322 50.7488 61.735C48.6356 59.8581 46.5517 57.9224 44.4678 56.0161C42.7361 54.4324 41.0044 52.8487 39.302 51.265C36.8659 48.9774 36.8072 46.0153 39.2433 43.7277C42.9415 40.2671 46.6984 36.865 50.4553 33.4337C51.8348 32.2019 53.3023 32.1726 54.3296 33.3457C55.3276 34.4895 55.1808 35.8679 53.86 37.0703C50.6021 40.0911 47.3148 43.0825 44.0568 46.074C43.5872 46.5139 43.0883 46.9831 42.5013 47.5404Z" fill="#2A2A2A"/>
<path d="M42.4461 117.399C37.6326 117.399 32.7897 117.399 27.9762 117.399C26.1564 117.399 25.0117 116.373 25.0117 114.877C25.0411 113.44 26.1564 112.413 27.8881 112.413C37.6326 112.413 47.377 112.413 57.1215 112.413C58.501 112.413 59.4989 112.941 59.9098 114.29C60.2327 115.405 59.8218 116.373 58.8825 116.93C58.3249 117.252 57.5911 117.37 56.9454 117.37C52.1025 117.399 47.2596 117.399 42.4461 117.399Z" fill="#2A2A2A"/>
<path d="M79.9794 35.1937C79.8326 35.5457 79.6859 36.1029 79.3924 36.6015C74.5495 44.696 69.6773 52.8198 64.805 60.8849C63.8952 62.41 62.545 62.8206 61.2242 62.0874C59.8741 61.3249 59.6099 59.8878 60.5492 58.2748C65.3627 50.2096 70.2056 42.1444 75.0485 34.1086C75.7235 32.9648 76.6628 32.2316 78.0422 32.6129C79.2456 32.9355 79.862 33.7567 79.9794 35.1937Z" fill="#2A2A2A"/>
<path d="M39.921 77.4255C36.1054 77.4255 32.3191 77.4255 28.5035 77.4255C27.9165 77.4255 27.3001 77.4255 26.7718 77.2495C25.5978 76.8976 25.0108 76.0177 25.0401 74.8153C25.0695 73.7008 25.6858 72.8503 26.8012 72.557C27.3588 72.4104 27.9458 72.4104 28.5329 72.4104C36.1934 72.4104 43.854 72.4104 51.5145 72.4104C51.7493 72.4104 52.0135 72.4104 52.2483 72.4104C53.9213 72.4984 54.9779 73.4369 55.0073 74.8446C55.0366 76.311 53.9506 77.3668 52.2189 77.3961C48.1098 77.4548 44.0007 77.4255 39.921 77.4255Z" fill="#2A2A2A"/>
<path d="M35.1377 102.413C37.4858 102.413 39.8045 102.384 42.1526 102.413C43.8843 102.442 44.9996 103.41 44.9996 104.876C44.9996 106.343 43.8843 107.369 42.1819 107.399C37.3978 107.428 32.6429 107.428 27.8587 107.399C26.1564 107.399 25.0117 106.372 25.0117 104.906C25.0117 103.469 26.1271 102.442 27.8294 102.413C30.2655 102.413 32.7016 102.413 35.1377 102.413Z" fill="#2A2A2A"/>
<path d="M33.7001 127.371C31.7043 127.371 29.7084 127.4 27.7126 127.371C26.0983 127.342 25.0123 126.345 25.0123 124.937C24.9829 123.529 26.0689 122.444 27.6539 122.415C31.7043 122.385 35.7253 122.385 39.7758 122.415C41.39 122.415 42.4467 123.47 42.476 124.878C42.5054 126.374 41.4194 127.371 39.6877 127.371C37.6918 127.371 35.696 127.371 33.7001 127.371Z" fill="#2A2A2A"/>
<path d="M66.1871 77.4254C64.9544 77.4254 63.751 77.4841 62.5183 77.4254C60.9627 77.3375 60.0234 76.3403 60.0234 74.9326C60.0234 73.5248 60.992 72.5277 62.5476 72.469C64.9837 72.4104 67.4198 72.4104 69.856 72.469C71.4409 72.4984 72.4095 73.4955 72.4095 74.9032C72.4388 76.3696 71.4703 77.3668 69.7973 77.4548C68.6232 77.4841 67.3905 77.4254 66.1871 77.4254Z" fill="#2A2A2A"/>
<path d="M56.3495 102.442C57.5235 102.442 58.6975 102.413 59.8716 102.442C61.4565 102.501 62.4251 103.41 62.4545 104.847C62.4838 106.255 61.5152 107.369 60.0183 107.398C57.4942 107.457 54.9406 107.457 52.4165 107.398C50.9783 107.369 50.0391 106.284 50.0391 104.935C50.0391 103.498 51.0076 102.53 52.5339 102.471C53.796 102.383 55.0874 102.442 56.3495 102.442Z" fill="#2A2A2A"/>
<path d="M19.9564 114.965C19.927 116.373 18.7823 117.429 17.4029 117.37C16.1114 117.311 14.9961 116.197 14.9961 114.906C14.9961 113.557 16.1701 112.384 17.5203 112.414C18.8998 112.414 19.9857 113.557 19.9564 114.965Z" fill="#2A2A2A"/>
<path d="M19.9564 104.964C19.927 106.343 18.753 107.457 17.4029 107.399C16.1114 107.34 14.9961 106.196 14.9961 104.906C14.9961 103.557 16.1408 102.413 17.5203 102.413C18.9291 102.442 19.9857 103.557 19.9564 104.964Z" fill="#2A2A2A"/>
<path d="M15.0007 94.7288C15.1181 93.3504 16.3215 92.3532 17.701 92.4706C19.1098 92.5879 20.0784 93.7317 19.9316 95.1687C19.8142 96.4885 18.6402 97.4856 17.3487 97.427C15.9986 97.3097 14.8833 96.0486 15.0007 94.7288Z" fill="#2A2A2A"/>
<path d="M17.5203 127.342C16.1408 127.342 14.9961 126.227 14.9961 124.878C14.9961 123.529 16.1995 122.356 17.5496 122.386C18.8704 122.415 19.927 123.5 19.9564 124.82C19.9857 126.257 18.9291 127.342 17.5203 127.342Z" fill="#2A2A2A"/>
<path d="M19.9564 84.8747C19.9857 86.2531 18.8998 87.4262 17.5203 87.4262C16.1701 87.4262 14.9961 86.2531 14.9961 84.9334C14.9961 83.6136 16.0821 82.5285 17.4029 82.4992C18.841 82.4112 19.927 83.4376 19.9564 84.8747Z" fill="#2A2A2A"/>
<path d="M19.9569 74.9033C19.9569 76.3111 18.9003 77.3962 17.4915 77.3962C16.112 77.3962 14.9673 76.2231 14.9966 74.874C15.026 73.5542 16.112 72.4691 17.4328 72.4398C18.8123 72.4105 19.9276 73.4956 19.9569 74.9033Z" fill="#2A2A2A"/>
<path d="M102.521 102.296C102.521 99.7734 102.492 97.3392 102.521 94.905C102.58 89.5966 106.483 85.4027 111.737 84.9335C116.786 84.4936 121.394 88.1009 122.362 93.2333C122.421 93.4679 122.45 93.7025 122.45 93.9665C122.597 95.9901 121.746 97.2805 120.161 97.4272C118.664 97.5445 117.695 96.4887 117.461 94.465C117.167 91.8549 114.966 89.8606 112.412 89.9192C109.771 89.9779 107.599 92.0895 107.511 94.7583C107.452 97.2512 107.511 99.7147 107.511 102.413C108.098 102.413 108.626 102.413 109.125 102.413C113.469 102.413 117.813 102.413 122.157 102.413C126.794 102.442 129.964 105.551 129.993 110.214C130.023 116.637 130.023 123.089 129.993 129.512C129.964 134.175 126.824 137.284 122.157 137.313C115.729 137.342 109.272 137.342 102.844 137.313C98.0891 137.284 95.0072 134.146 94.9779 129.395C94.9485 123.294 94.9779 117.194 94.9779 111.123C94.9779 105.844 97.1792 103.175 102.521 102.296ZM112.412 132.357C115.641 132.357 118.84 132.386 122.069 132.357C124.035 132.357 124.974 131.477 124.974 129.512C125.004 123.118 125.004 116.725 124.974 110.361C124.974 108.337 124.035 107.457 121.981 107.428C115.641 107.428 109.301 107.428 102.961 107.428C100.907 107.428 99.9969 108.308 99.9675 110.361C99.9382 116.696 99.9382 123.03 99.9675 129.365C99.9675 131.506 100.877 132.327 103.049 132.357C106.161 132.357 109.301 132.357 112.412 132.357Z" fill="#2A2A2A"/>
<path d="M70.0035 14.9572C65.0432 14.9572 60.0536 14.9866 55.0933 14.9572C53.567 14.9572 52.5398 13.9014 52.4811 12.5523C52.4517 11.2033 53.5083 10.1475 54.9759 10.0008C55.3281 9.9715 55.651 10.0008 56.0032 10.0008C65.3074 10.0008 74.6116 10.0008 83.9451 10.0008C84.2386 10.0008 84.5321 10.0008 84.8256 10.0008C86.4106 10.0888 87.4966 11.1153 87.4966 12.523C87.4966 13.9308 86.4106 14.9572 84.7963 14.9572C79.8654 14.9866 74.9344 14.9572 70.0035 14.9572Z" fill="#2A2A2A"/>
<path d="M14.9687 12.4353C14.998 13.843 13.912 14.9282 12.5032 14.9282C11.1237 14.9282 9.97901 13.7844 10.0084 12.4353C10.0377 11.1449 11.153 10.0304 12.4445 9.97176C13.7653 9.94243 14.9393 11.0569 14.9687 12.4353Z" fill="#2A2A2A"/>
<path d="M24.953 12.4939C24.953 13.9017 23.8671 14.9868 22.4582 14.9575C21.0787 14.9281 19.9634 13.755 19.9928 12.4059C20.0515 11.1155 21.1668 10.0011 22.4582 10.0011C23.8377 9.97173 24.953 11.0862 24.953 12.4939Z" fill="#2A2A2A"/>
<path d="M34.9609 12.4642C34.9609 13.872 33.9042 14.9571 32.466 14.9571C31.0865 14.9571 29.9712 13.8133 30.0006 12.4349C30.0299 11.1152 31.1159 10.03 32.4367 10.0007C33.8162 9.94204 34.9609 11.0858 34.9609 12.4642Z" fill="#2A2A2A"/>
<path d="M112.507 127.371C108.339 127.371 104.934 123.969 104.993 119.833C105.052 115.727 108.398 112.413 112.477 112.413C116.645 112.413 120.05 115.845 119.991 119.951C119.932 124.056 116.616 127.341 112.507 127.371ZM114.972 119.951C115.002 118.572 113.916 117.428 112.536 117.399C111.215 117.37 110.129 118.426 110.041 119.745C109.953 121.153 111.01 122.297 112.419 122.355C113.798 122.414 114.914 121.358 114.972 119.951Z" fill="#2A2A2A"/>
</g>
<defs>
<clipPath id="clip0_4005_1611">
<rect width="150" height="150" fill="white"/>
</clipPath>
</defs>
</svg>
