<svg width="200" height="200" viewBox="0 0 200 200" fill="none" xmlns="http://www.w3.org/2000/svg">
<g clip-path="url(#clip0_1813_530)">
<path d="M100.51 181.137C145.297 181.137 181.604 144.83 181.604 100.044C181.604 55.2571 145.297 18.9504 100.51 18.9504C55.7237 18.9504 19.417 55.2571 19.417 100.044C19.417 144.83 55.7237 181.137 100.51 181.137Z" fill="white"/>
<path d="M100 0C80.2219 0 60.8879 5.8649 44.443 16.853C27.9981 27.8412 15.1809 43.459 7.61209 61.7317C0.0433289 80.0043 -1.93701 100.111 1.92152 119.509C5.78004 138.907 15.3041 156.725 29.2894 170.711C43.2746 184.696 61.0929 194.22 80.491 198.079C99.8891 201.937 119.996 199.957 138.268 192.388C156.541 184.819 172.159 172.002 183.147 155.557C194.135 139.112 200 119.778 200 100C199.969 73.4878 189.424 48.0704 170.677 29.3234C151.93 10.5765 126.512 0.030864 100 0ZM100 175.802C85.0079 175.802 70.3524 171.356 57.8868 163.027C45.4213 154.698 35.7056 142.859 29.9684 129.008C24.2311 115.157 22.73 99.9159 25.6548 85.2118C28.5796 70.5077 35.7991 57.0011 46.4001 46.4001C57.0012 35.799 70.5078 28.5796 85.2119 25.6548C99.916 22.7299 115.157 24.2311 129.008 29.9683C142.859 35.7056 154.698 45.4213 163.027 57.8868C171.356 70.3523 175.802 85.0078 175.802 100C175.783 120.098 167.79 139.367 153.579 153.579C139.367 167.79 120.098 175.782 100 175.802Z" fill="#00559A"/>
<path d="M166.181 74.8688L166.531 72.7114V72.3615C166.439 72.5515 166.336 72.7365 166.224 72.9154L164.942 74.9562L164.373 72.9154C164.314 72.7349 164.27 72.5496 164.242 72.3615V72.7114L163.892 74.8688H163.484L164.009 71.6326H164.49L165.014 73.5714C165.014 73.7609 165.131 74.0233 165.16 74.1545C165.16 74.0233 165.379 73.7609 165.481 73.5714L166.662 71.6326H167.128L166.589 74.8688H166.181ZM162.289 71.9533L161.807 74.8688H161.37L161.851 71.9533H160.802V71.6181H163.324V71.9533H162.289ZM43.0757 87.5802C44.0363 88.4283 45.1494 89.0862 46.3556 89.5189C47.9286 90.1003 49.535 90.5871 51.1661 90.9767C52.2011 91.2245 53.0465 91.4577 53.7171 91.6764C54.256 91.8588 54.7779 92.0881 55.2769 92.3615C55.5916 92.5291 55.8578 92.7751 56.0495 93.0758C56.1821 93.326 56.2282 93.613 56.1807 93.8921C56.1511 94.2326 56.0334 94.5595 55.8392 94.8406C55.6449 95.1218 55.3808 95.3475 55.0728 95.4956C53.9999 95.8611 52.8661 96.0146 51.7346 95.9475C50.954 95.943 50.1765 95.8501 49.4168 95.6705C48.5869 95.4942 47.7727 95.2504 46.9824 94.9417C46.2065 94.643 45.4473 94.3024 44.7084 93.9213C44.0573 93.5811 43.4335 93.1912 42.8425 92.7551L37.5801 99.6939C39.3153 100.893 41.2223 101.822 43.2361 102.449C45.5901 103.208 48.0513 103.583 50.5247 103.557C52.3294 103.571 54.1296 103.375 55.8891 102.974C57.4384 102.615 58.9165 101.999 60.2623 101.152C61.5403 100.325 62.6284 99.2371 63.4547 97.9592C64.3329 96.5396 64.8994 94.9495 65.1165 93.2944C65.3314 92.0054 65.2818 90.6862 64.9707 89.4169C64.6844 88.3381 64.0981 87.3626 63.2798 86.6035C62.8343 86.1922 62.3456 85.8306 61.8221 85.5248H41.6034C41.942 86.307 42.444 87.0079 43.0757 87.5802ZM50.1165 80.1749C50.1491 79.8867 50.241 79.6084 50.3866 79.3575C50.5321 79.1066 50.728 78.8886 50.962 78.7172C51.7957 78.2665 52.7445 78.0737 53.688 78.1632C55.2189 78.1477 56.7401 78.4094 58.1777 78.9358C59.1694 79.3099 60.1137 79.7991 60.9912 80.3936C61.4722 80.7143 62.0845 81.2245 62.0845 81.2245L62.755 80.3936L67.4052 74.344C65.842 73.1448 64.0875 72.2182 62.2156 71.6035C59.9416 70.9265 57.5762 70.6069 55.204 70.656C53.4137 70.6344 51.6302 70.8801 49.9124 71.3848C48.3857 71.8193 46.9456 72.5147 45.6559 73.4402C44.4549 74.2923 43.4385 75.3781 42.6675 76.6326C41.9379 77.8094 41.4428 79.1162 41.2098 80.481H50.0728L50.1165 80.1749ZM75.7288 103.499H84.5772L87.0553 85.9183H78.2069L75.7288 103.499ZM87.9882 79.2857H96.9241L98.0028 71.5743H71.2827L70.204 79.2857H79.1398L78.9066 80.9038H87.755L87.9882 79.2857ZM111.618 80.7872V80.9038H119.533L117.463 71.5743H108.498L103.805 80.9038H111.574L111.618 80.7872ZM129.082 103.499H137.828L139.286 92.7405H142.857L146.531 103.499H156.443L151.764 91.3265C153.587 90.5679 155.198 89.3772 156.458 87.8571C156.928 87.2584 157.329 86.6079 157.653 85.9183H131.56L129.082 103.499ZM141.224 78.7172H146.589C147.116 78.6431 147.653 78.6914 148.159 78.8582C148.664 79.025 149.125 79.306 149.504 79.6793C149.774 80.0178 149.955 80.4189 150.029 80.8455H158.892C159.027 79.5877 158.918 78.3157 158.571 77.0991C158.21 75.8507 157.49 74.7358 156.501 73.8921C155.426 73.0167 154.164 72.3985 152.813 72.0845C151.172 71.6883 149.487 71.4973 147.799 71.516H133.571L132.259 80.8455H141.006L141.224 78.7172ZM120.612 86.0058H101.268L92.4197 103.499H101.91L104.431 97.9446H114.009L114.956 103.499H124.533L120.612 86.0058ZM112.857 90.2624L113.411 95.0583L109.956 92.1428L105.393 95.0583L107.872 90.379L104.344 87.551H109.14L109.825 86.0058H112.245L112.507 87.4635H117.318L112.857 90.2624ZM111.633 82.2303L109.825 85.9912H112.245L111.633 82.2303Z" fill="#00559A"/>
<path d="M16.2682 88.3819C17.0666 87.6264 17.6028 86.6356 17.7988 85.5539C18.0175 84.3878 17.6239 83.4548 16.5452 83.2653C15.4664 83.0758 14.8396 84.1691 14.2419 85.3936C13.6443 86.6181 12.7842 87.9883 10.9766 87.6676C10.5719 87.6021 10.1863 87.4494 9.84646 87.2201C9.50663 86.9907 9.22074 86.6902 9.00858 86.3394C8.79642 85.9886 8.66308 85.5958 8.6178 85.1884C8.57251 84.7809 8.61637 84.3684 8.74632 83.9796C8.91501 82.9786 9.34212 82.039 9.98538 81.2537L11.3556 81.5015C10.62 82.247 10.1141 83.1881 9.89792 84.2128C9.70842 85.3207 10.0583 86.1808 11.0641 86.3703C12.3032 86.5889 12.7113 85.4665 13.2653 84.3149C13.8192 83.1633 14.723 81.6327 16.6472 81.9679C17.0668 82.0345 17.4668 82.1919 17.8192 82.4292C18.1715 82.6666 18.4678 82.978 18.6872 83.3418C18.9066 83.7056 19.0438 84.113 19.0893 84.5354C19.1347 84.9578 19.0873 85.385 18.9504 85.7872C18.7692 86.8304 18.3224 87.8093 17.653 88.6297L16.2682 88.3819ZM11.9242 76.0642L11.0058 79.3149L9.85419 78.9942L12.0262 71.2245L13.1778 71.5452L12.274 74.7959L20.8163 77.2595L20.4664 78.5277L11.9242 76.0642ZM13.4548 67.3761L13.9067 66.1953L24.7813 65.933L24.2711 67.2595H21.239L19.621 71.4869L21.8659 73.6152L21.3848 74.8688L13.4548 67.3761ZM18.7317 70.6997L20.0291 67.3178H15.1166C15.7774 67.9009 16.448 68.5131 17.1282 69.1545L18.7317 70.6997ZM16.3994 60.3353L17.653 57.9155C18.0344 57.0217 18.6362 56.2392 19.4023 55.6414C19.7969 55.363 20.262 55.2017 20.7443 55.1759C21.2265 55.1501 21.7062 55.2609 22.1282 55.4956C22.5456 55.7106 22.8996 56.0307 23.1553 56.4245C23.4109 56.8182 23.5594 57.2718 23.586 57.7405C23.6139 58.1505 23.5594 58.5619 23.4256 58.9504L28.8484 58.1487L28.1049 59.6064L22.8571 60.3353L22.0699 61.793L25.9038 63.7755L25.2915 64.9563L16.3994 60.3353ZM21.9387 59.7959C22.3197 59.2135 22.4989 58.5221 22.4489 57.828C22.4132 57.5889 22.3185 57.3625 22.1734 57.1691C22.0284 56.9757 21.8375 56.8214 21.618 56.7201C21.3614 56.5775 21.0702 56.5089 20.7768 56.5217C20.4835 56.5346 20.1994 56.6285 19.9562 56.793C19.3885 57.2591 18.9473 57.8607 18.6734 58.5423L18.0612 59.7085L21.1516 61.312L21.9387 59.7959ZM23.207 48.4257L23.965 47.3469L31.2536 52.5073L34.0233 48.6443L35 49.3295L31.4577 54.2857L23.207 48.4257ZM28.2361 41.6472L32.0408 37.2741L32.9446 38.0467L30.0291 41.4577L32.3323 43.4548L34.9125 40.5394L35.7871 41.2828L33.207 44.1983L35.8309 46.4577L38.8484 42.9738L39.7521 43.7464L35.86 48.2216L28.2361 41.6472ZM33.1632 35.9621L34.1836 34.9854L39.621 37.6239C40.4664 38.0175 41.2973 38.4257 42.1866 38.8776C41.793 37.9738 41.4285 37.0991 41.0495 36.2099L38.7755 30.6123L39.7667 29.6793L43.8775 39.6502L42.9008 40.5831L33.1632 35.9621ZM41.4577 28.3965L46.0495 24.7813L46.793 25.7289L43.2361 28.4694L45.102 30.9038L48.2215 28.484L48.9212 29.4023L45.8017 31.8076L47.9154 34.5481L51.5743 31.7347L52.3032 32.6822L47.6093 36.4432L41.4577 28.3965ZM48.2798 23.3236L49.4023 22.6093L54.1545 30.102L58.1632 27.551L58.8046 28.5569L53.6734 31.8076L48.2798 23.3236ZM63.1049 15.0437C63.7256 14.7666 64.3956 14.6169 65.0752 14.6038C65.7548 14.5906 66.4301 14.7141 67.061 14.9671C67.692 15.22 68.2656 15.5971 68.7479 16.076C69.2303 16.555 69.6114 17.126 69.8688 17.7551C70.2589 18.6855 70.3653 19.7105 70.1746 20.7012C69.9838 21.6919 69.5044 22.604 68.7967 23.3231C68.089 24.0421 67.1845 24.5358 66.197 24.7422C65.2094 24.9486 64.1829 24.8584 63.2464 24.483C62.31 24.1076 61.5054 23.4638 60.9339 22.6324C60.3623 21.801 60.0493 20.8193 60.0342 19.8105C60.0191 18.8017 60.3025 17.811 60.8489 16.9628C61.3952 16.1147 62.1801 15.447 63.1049 15.0437ZM66.7492 23.4257C67.2189 23.223 67.6427 22.9273 67.9951 22.5564C68.3474 22.1855 68.6211 21.7472 68.7995 21.2678C68.9779 20.7883 69.0575 20.2777 69.0333 19.7667C69.0091 19.2557 68.8817 18.7549 68.6589 18.2945C68.4835 17.8044 68.2095 17.3556 67.8537 16.9757C67.498 16.5958 67.0681 16.2929 66.5906 16.0858C66.1131 15.8787 65.5982 15.7718 65.0777 15.7716C64.5572 15.7715 64.0423 15.8781 63.5647 16.085C63.0871 16.2918 62.657 16.5944 62.301 16.9741C61.945 17.3538 61.6708 17.8025 61.4951 18.2924C61.3195 18.7824 61.2463 19.3031 61.2799 19.8225C61.3136 20.3419 61.4535 20.8488 61.6909 21.312C61.8763 21.7891 62.156 22.2239 62.5133 22.5903C62.8706 22.9568 63.2982 23.2474 63.7705 23.4448C64.2427 23.6421 64.75 23.7421 65.2618 23.7389C65.7736 23.7356 66.2795 23.629 66.7492 23.4257ZM73.3673 21.8659L70.6122 12.2012L71.8221 11.8659L77.4052 16.035C78.1827 16.6181 78.9553 17.2157 79.723 17.828C79.4606 16.9971 79.1691 16.0204 78.9067 15.0729L77.551 10.2041L78.7172 9.88339L81.4723 19.5773L80.2769 19.9271L74.6793 15.6851C73.9212 15.1166 73.1341 14.5044 72.3761 13.9067L73.1924 16.6618L74.6501 21.5306L73.3673 21.8659ZM81.9825 9.25657L87.7113 8.29447L87.9154 9.47523L83.5422 10.2187L84.0379 13.2362L87.93 12.5948L88.1195 13.7318L84.2419 14.3732L84.8105 17.7988L89.3586 17.0408L89.5626 18.207L83.7317 19.1983L81.9825 9.25657ZM90.6268 12.0117C90.6104 11.834 90.647 11.6555 90.7319 11.4986C90.8168 11.3417 90.9463 11.2135 91.104 11.13C91.2616 11.0466 91.4405 11.0116 91.6179 11.0296C91.7954 11.0476 91.9636 11.1178 92.1013 11.2312C92.239 11.3446 92.3401 11.4962 92.3918 11.6669C92.4435 11.8377 92.4435 12.0199 92.3918 12.1906C92.3401 12.3614 92.2391 12.513 92.1014 12.6264C91.9637 12.7398 91.7955 12.81 91.618 12.828C91.4992 12.8401 91.3792 12.8285 91.265 12.7939C91.1507 12.7593 91.0444 12.7024 90.9522 12.6265C90.8601 12.5506 90.7838 12.4572 90.728 12.3516C90.6721 12.2461 90.6377 12.1306 90.6268 12.0117ZM91.9387 16.3848C92.0575 16.3728 92.1775 16.3844 92.2918 16.419C92.4061 16.4536 92.5124 16.5105 92.6046 16.5864C92.6967 16.6623 92.7729 16.7557 92.8288 16.8612C92.8847 16.9667 92.919 17.0823 92.93 17.2012C92.9532 17.4409 92.8802 17.68 92.7271 17.8659C92.574 18.0518 92.3534 18.1692 92.1137 18.1924C91.874 18.2156 91.6349 18.1427 91.449 17.9896C91.2631 17.8365 91.1456 17.6158 91.1224 17.3761C91.104 17.2539 91.1109 17.1293 91.1425 17.0099C91.1742 16.8905 91.23 16.7789 91.3065 16.6819C91.383 16.5849 91.4786 16.5046 91.5873 16.446C91.6961 16.3874 91.8157 16.3517 91.9387 16.3411V16.3848ZM98.3819 15.4956C99.2579 16.1579 100.317 16.5345 101.414 16.5744C102.609 16.5744 103.455 16.0641 103.484 14.9563C103.513 13.8484 102.318 13.4985 101.006 13.0321C99.6938 12.5656 98.2215 11.9971 98.2507 10.1166C98.2798 8.23616 99.5918 7.33237 101.56 7.36152C102.586 7.3607 103.594 7.63775 104.475 8.16327V9.621C103.619 9.01947 102.606 8.68012 101.56 8.64432C100.437 8.64432 99.6355 9.09622 99.621 10.102C99.621 11.3557 100.773 11.5598 101.982 11.9534C103.44 12.3907 104.898 12.9883 104.898 14.8688C104.898 16.7493 103.513 17.7843 101.487 17.7843C100.427 17.7545 99.3905 17.4641 98.4694 16.9388L98.3819 15.4956ZM107.449 7.79884L113.28 8.42566L113.149 9.621L108.673 9.12537L108.338 12.172L112.259 12.6093L112.128 13.7464L108.222 13.3236L107.872 16.7639L112.464 17.2741L112.332 18.4548L106.414 17.8134L107.449 7.79884ZM115.904 8.86298L117.201 9.12537L115.423 17.8717L120.087 18.8192L119.854 20L113.892 18.7755L115.904 8.86298ZM124.154 10.6851L129.854 12.4053L129.519 13.5569L125.146 12.2158L124.213 15.3353L128.12 16.516L127.784 17.6093L123.878 16.4432L122.449 20.7143L121.239 20.4082L124.154 10.6851ZM130.277 17.3615L133.367 18.5714L132.959 19.6064L129.869 18.4111L130.277 17.3615ZM139.767 16.5015L140.904 17.0554L140.262 27.93L138.98 27.3178L139.198 24.3003L135.117 22.3178L132.857 24.344L131.647 23.7609L139.767 16.5015ZM136.035 21.4723L139.286 23.0612L139.461 20.8163C139.461 19.9563 139.592 19.0233 139.679 18.1633L137.697 20.0146L136.035 21.4723ZM142.026 26.6472C142.438 27.6696 143.15 28.5436 144.067 29.1545C145.087 29.7813 146.093 29.7668 146.676 28.8338C147.259 27.9009 146.472 26.9242 145.554 25.9184C144.636 24.9125 143.703 23.6006 144.679 22.0408C144.893 21.6925 145.179 21.3949 145.519 21.1685C145.859 20.9422 146.245 20.7926 146.648 20.7302C147.052 20.6678 147.464 20.694 147.857 20.807C148.249 20.9201 148.613 21.1173 148.921 21.3848C149.788 21.9056 150.498 22.6511 150.977 23.5423L150.248 24.723C149.827 23.77 149.138 22.9597 148.265 22.3907C147.303 21.793 146.37 21.793 145.831 22.6676C145.292 23.5423 146.05 24.519 146.895 25.4665C147.74 26.414 148.848 27.8571 147.828 29.4752C147.608 29.8341 147.313 30.1411 146.964 30.3751C146.614 30.6092 146.218 30.7649 145.802 30.8313C145.387 30.8978 144.962 30.8736 144.557 30.7603C144.151 30.647 143.776 30.4473 143.455 30.1749C142.55 29.6175 141.806 28.8337 141.297 27.9009L142.026 26.6472ZM148.688 30.9184C149.016 31.9569 149.658 32.8683 150.525 33.5277C151.472 34.2566 152.478 34.3295 153.149 33.4548C153.819 32.5802 153.149 31.5452 152.303 30.4373C151.458 29.3295 150.671 27.9592 151.793 26.5015C152.039 26.1762 152.353 25.908 152.712 25.7153C153.071 25.5225 153.468 25.4098 153.876 25.3849C154.283 25.36 154.69 25.4234 155.071 25.5708C155.451 25.7183 155.795 25.9462 156.079 26.2391C156.889 26.8497 157.523 27.6646 157.915 28.6006L157.085 29.6939C156.748 28.7066 156.136 27.8365 155.321 27.1866C154.431 26.5015 153.499 26.414 152.872 27.1866C152.245 27.9592 152.872 29.0525 153.688 30.102C154.504 31.1516 155.394 32.6531 154.227 34.1837C153.974 34.512 153.653 34.7826 153.287 34.9772C152.921 35.1718 152.517 35.286 152.103 35.3122C151.69 35.3384 151.275 35.276 150.887 35.1292C150.499 34.9823 150.147 34.7544 149.854 34.4606C148.991 33.8478 148.299 33.0249 147.843 32.07L148.688 30.9184ZM160.583 30.1166L164.854 34.0379L164.052 34.9271L160.743 31.8805L158.673 34.1399L161.589 36.793L160.802 37.6531L157.886 34.9854L155.539 37.5365L158.892 40.656L158.076 41.5306L153.703 37.5219L160.583 30.1166ZM160.656 41.1225C160.772 42.2008 161.214 43.2181 161.924 44.0379C162.726 44.9271 163.703 45.1895 164.519 44.4461C165.335 43.7026 164.854 42.5656 164.242 41.3265C163.63 40.0875 163.105 38.586 164.461 37.3615C164.768 37.0983 165.127 36.902 165.515 36.7852C165.902 36.6683 166.31 36.6335 166.712 36.6829C167.114 36.7322 167.501 36.8647 167.848 37.0719C168.196 37.2791 168.497 37.5565 168.732 37.8863C169.451 38.6204 169.956 39.5382 170.189 40.5394L169.154 41.4723C169.013 40.4401 168.572 39.472 167.886 38.6881C167.128 37.8426 166.239 37.5802 165.481 38.2799C164.723 38.9796 165.175 40.1166 165.743 41.1953C166.414 42.5656 166.939 44.0233 165.525 45.3207C165.214 45.6006 164.848 45.8105 164.449 45.9363C164.051 46.062 163.63 46.1006 163.215 46.0495C162.8 45.9983 162.401 45.8586 162.045 45.6398C161.689 45.421 161.385 45.1283 161.152 44.7813C160.444 43.9875 159.943 43.0311 159.694 41.9971L160.656 41.1225ZM165.904 47.07C165.912 48.1634 166.259 49.2275 166.895 50.1166C167.609 51.0787 168.557 51.4286 169.431 50.7726C170.306 50.1166 169.942 48.9213 169.431 47.6385C168.921 46.3557 168.542 44.8105 170.015 43.7172C170.339 43.4684 170.714 43.2934 171.114 43.2044C171.513 43.1155 171.927 43.1147 172.327 43.2021C172.726 43.2895 173.102 43.4631 173.428 43.7107C173.754 43.9582 174.022 44.2739 174.213 44.6356C174.831 45.4417 175.223 46.3976 175.35 47.4053L174.227 48.2362C174.188 47.1885 173.844 46.1752 173.236 45.3207C172.551 44.4169 171.691 44.0816 170.86 44.6939C170.029 45.3061 170.394 46.5015 170.86 47.6968C171.399 49.1545 171.793 50.6123 170.262 51.7639C169.926 52.026 169.535 52.211 169.119 52.3058C168.703 52.4006 168.271 52.4029 167.854 52.3125C167.437 52.2222 167.045 52.0413 166.705 51.7828C166.366 51.5243 166.087 51.1944 165.889 50.8163C165.249 49.9651 164.846 48.9589 164.723 47.9009L165.904 47.07ZM175.408 54.0233C175.743 53.2945 176.093 52.5656 176.458 51.8513C175.947 52.172 175.292 52.5656 174.577 52.9738L169.665 55.8892L169.023 54.7814L177.77 49.7376L178.396 50.8455L175.758 56.5015L181.982 57.0408L182.609 58.1341L173.863 63.1779L173.192 62.0262L178.12 59.1983C178.819 58.7755 179.49 58.4111 180.015 58.1195C179.213 58.1195 178.411 58.0175 177.624 57.9446L173.79 57.6093L175.408 54.0233ZM183.936 61.0641L186.239 66.414L185.131 66.8805L183.353 62.7551L180.539 63.965L182.099 67.5802L181.035 68.0321L179.49 64.4169L176.297 65.7872L178.12 69.9709L177.026 70.4519L174.679 64.9854L183.936 61.0641ZM177.624 71.9825L187.245 69.0671L187.609 70.2624L183.499 75.9184C182.93 76.7056 182.347 77.4927 181.749 78.2653C182.58 78.0029 183.542 77.6822 184.475 77.4053L189.315 75.9475L189.694 77.172L180.058 80.0875L179.694 78.8921L183.819 73.2362C184.373 72.449 184.971 71.6618 185.554 70.8892C184.723 71.1662 183.746 71.4723 182.828 71.7493L177.974 73.207L177.624 71.9825ZM189.694 83.0904L189.096 79.7668L190.277 79.5627L191.735 87.5073L190.568 87.726L189.956 84.4023L181.21 85.9767L180.977 84.6647L189.694 83.0904ZM9.81046 115.16C9.3453 116.156 9.2026 117.272 9.40229 118.353C9.63553 119.534 10.3352 120.248 11.414 120.029C12.4927 119.811 12.6676 118.571 12.7696 117.201C12.8717 115.831 13.1924 114.286 14.9854 113.907C16.7784 113.528 18.0029 114.621 18.3819 116.545C18.5887 117.514 18.5334 118.52 18.2215 119.461L16.8659 119.738C17.2619 118.774 17.3781 117.718 17.2011 116.691C16.9679 115.583 16.3411 114.913 15.3352 115.117C14.3294 115.321 14.1253 116.574 14.0379 117.813C13.9067 119.271 13.6297 120.86 11.7492 121.239C11.3353 121.328 10.9069 121.327 10.4938 121.234C10.0807 121.141 9.69278 120.959 9.35704 120.701C9.02131 120.443 8.74582 120.115 8.54972 119.739C8.35362 119.364 8.24163 118.951 8.22154 118.528C8.00238 117.486 8.06273 116.405 8.39646 115.394L9.81046 115.16ZM19.2711 121.297L20.9329 126.822L19.7959 127.172L18.5131 122.799L15.5976 123.673L16.7347 127.449L15.6268 127.784L14.5043 124.009L11.1807 125L12.5073 129.373L11.3556 129.708L9.66469 124.023L19.2711 121.297ZM23.3236 132.653C23.7026 133.575 23.8478 134.577 23.7463 135.569L22.4052 136.122C22.6504 135.123 22.5739 134.073 22.1866 133.12C21.9974 132.634 21.7111 132.191 21.3452 131.82C20.9793 131.448 20.5414 131.155 20.0584 130.959C19.5753 130.762 19.0573 130.666 18.5359 130.677C18.0146 130.688 17.5009 130.804 17.0262 131.02C16.5316 131.208 16.0809 131.495 15.7023 131.864C15.3237 132.233 15.0252 132.677 14.8255 133.166C14.6258 133.656 14.5291 134.182 14.5416 134.71C14.5541 135.239 14.6754 135.759 14.8979 136.239C15.3092 137.208 16.0467 138.002 16.9825 138.484L15.6268 139.052C14.8032 138.418 14.1682 137.572 13.79 136.604C13.4954 135.975 13.3331 135.293 13.3133 134.6C13.2936 133.906 13.4167 133.216 13.6751 132.572C13.9336 131.928 14.3217 131.344 14.8154 130.856C15.3092 130.369 15.898 129.988 16.5452 129.738C17.1796 129.466 17.8627 129.325 18.553 129.326C19.2433 129.326 19.9263 129.467 20.5604 129.74C21.1946 130.012 21.7665 130.411 22.2416 130.912C22.7166 131.413 23.0847 132.005 23.3236 132.653ZM20.2915 139.286L24.9417 136.706L25.5831 137.857L21.0495 140.364C20.2307 140.722 19.5106 141.272 18.9504 141.968C18.7054 142.373 18.5833 142.841 18.5988 143.315C18.6143 143.788 18.7668 144.247 19.0379 144.636C19.2257 145.065 19.5333 145.43 19.9237 145.689C20.3141 145.947 20.7708 146.088 21.239 146.093C22.1024 145.992 22.9281 145.682 23.6443 145.19L28.2361 142.668L28.8484 143.79L24.3294 146.283C23.3368 146.966 22.1668 147.346 20.9621 147.376C20.3147 147.286 19.6998 147.037 19.173 146.65C18.6462 146.263 18.224 145.751 17.9446 145.16C17.5909 144.613 17.3814 143.985 17.3355 143.335C17.2896 142.686 17.4089 142.035 17.6822 141.443C18.3301 140.491 19.235 139.743 20.2915 139.286ZM29.8833 145.335L31.4577 147.566C32.0774 148.307 32.4943 149.196 32.6676 150.146C32.7396 150.624 32.6736 151.112 32.4773 151.554C32.281 151.995 31.9627 152.372 31.5597 152.638C31.1803 152.923 30.7317 153.102 30.2602 153.156C29.7887 153.21 29.3114 153.137 28.8775 152.945C28.4965 152.785 28.1536 152.547 27.8717 152.245L26.1078 157.434L25.1749 156.137L26.9242 151.137L25.9475 149.679L22.4198 152.172L21.6618 151.093L29.8833 145.335ZM27.8134 150.51C28.1407 151.104 28.6524 151.575 29.2711 151.851C29.5009 151.93 29.7465 151.949 29.9858 151.909C30.2251 151.868 30.4504 151.768 30.6414 151.618C30.8801 151.462 31.0715 151.244 31.1949 150.987C31.3182 150.73 31.3688 150.444 31.3411 150.16C31.1859 149.437 30.8499 148.765 30.3644 148.207L29.6064 147.128L26.6909 149.14L27.8134 150.51ZM35.102 152.434L35.9475 153.455L28.1632 159.84L27.3323 158.819L35.102 152.434ZM38.1487 157.755L35.8163 155.292L36.6909 154.475L42.274 160.35L41.414 161.181L39.0816 158.717L32.6384 164.825L31.7347 163.863L38.1487 157.755ZM41.7638 167.23L42.3906 160.51L43.5568 161.516L43.2653 164.432C43.1778 165.19 43.1049 165.889 43.0029 166.735L45.2478 166.122L48.1632 165.364L49.2857 166.327L42.7842 168.003L39.8688 171.472L38.8629 170.612L41.7638 167.23ZM53.688 170.831L50.8454 168.994L51.5014 167.988L58.2944 172.362L57.653 173.367L54.8105 171.531L49.9854 178.994L48.8775 178.28L53.688 170.831ZM59.2857 172.901L61.7201 174.14C62.6149 174.506 63.3987 175.099 63.9941 175.86C64.2762 176.25 64.44 176.714 64.4658 177.194C64.4917 177.675 64.3785 178.153 64.1399 178.571C63.9334 178.989 63.6192 179.345 63.2298 179.601C62.8403 179.857 62.3897 180.005 61.9242 180.029C61.5104 180.061 61.0944 180.011 60.6997 179.883L61.5743 185.306L60.1166 184.577L59.3294 179.329L57.7988 178.557L55.8454 182.405L54.6647 181.808L59.2857 172.901ZM59.8688 178.44C60.4507 178.82 61.145 178.99 61.8367 178.921C62.0773 178.884 62.3047 178.787 62.4982 178.64C62.6917 178.492 62.8452 178.298 62.9446 178.076C63.0854 177.821 63.1519 177.531 63.1364 177.24C63.1209 176.949 63.0242 176.668 62.8571 176.429C62.3811 175.862 61.7692 175.426 61.0787 175.16L59.9271 174.563L58.309 177.668L59.8688 178.44ZM65.0728 181.72L66.9387 176.72L68.1778 177.187L66.3702 182.055C65.99 182.856 65.8004 183.735 65.8163 184.621C65.8975 185.09 66.1127 185.525 66.4361 185.875C66.7595 186.224 67.1771 186.472 67.6384 186.589C68.0602 186.801 68.5346 186.885 69.0034 186.83C69.4722 186.776 69.9149 186.586 70.2769 186.283C70.8649 185.645 71.29 184.875 71.516 184.038L73.3527 179.125L74.5626 179.563L72.7405 184.417C72.4372 185.581 71.7985 186.63 70.9038 187.434C70.3473 187.767 69.7239 187.972 69.0785 188.034C68.4331 188.096 67.782 188.014 67.1723 187.794C66.5626 187.573 66.0095 187.22 65.5532 186.76C65.0968 186.299 64.7485 185.743 64.5335 185.131C64.3847 183.966 64.5718 182.783 65.0728 181.72ZM74.067 187.726C74.748 188.59 75.688 189.214 76.7492 189.504C77.9154 189.811 78.8629 189.504 79.1399 188.426C79.4169 187.347 78.3819 186.589 77.2594 185.962C76.137 185.335 74.7959 184.3 75.2624 182.522C75.3619 182.126 75.5463 181.757 75.8028 181.439C76.0593 181.122 76.3819 180.864 76.748 180.684C77.1141 180.503 77.5151 180.405 77.9231 180.395C78.3311 180.385 78.7364 180.464 79.1108 180.627C80.0991 180.861 81.0026 181.366 81.7201 182.085L81.3702 183.426C80.6733 182.623 79.7475 182.054 78.7172 181.793C77.6239 181.501 76.7347 181.793 76.4723 182.77C76.1516 183.98 77.2303 184.475 78.3382 185.117C79.446 185.758 80.8892 186.822 80.4081 188.673C80.307 189.084 80.1177 189.468 79.8533 189.798C79.5889 190.129 79.2559 190.397 78.8772 190.586C78.4986 190.775 78.0835 190.879 77.6606 190.891C77.2378 190.903 76.8173 190.823 76.4285 190.656C75.407 190.408 74.4645 189.907 73.688 189.198L74.067 187.726ZM86.0058 183.455L82.6676 182.93L82.8571 181.749L90.8454 183.018L90.6559 184.198L87.274 183.673L85.8163 192.42L84.5189 192.216L86.0058 183.455ZM98.309 183.411H99.5772L103.571 193.615H102.114L101.035 190.787L96.5014 190.714L95.3207 193.499H93.965L98.309 183.411ZM97.0262 189.504H100.583L99.7959 187.405C99.4752 186.604 99.1691 185.729 98.8629 184.898C98.5422 185.714 98.1924 186.56 97.828 187.42L97.0262 189.504ZM105.087 191.312C106.02 191.891 107.113 192.156 108.207 192.07C109.402 191.968 110.204 191.356 110.102 190.262C110 189.169 108.79 188.805 107.434 188.601C106.079 188.397 104.519 187.857 104.402 186.035C104.286 184.213 105.452 183.12 107.405 182.945C108.404 182.85 109.41 183.021 110.321 183.44L110.437 184.898C109.548 184.404 108.537 184.172 107.522 184.227C106.399 184.329 105.656 184.883 105.743 185.904C105.86 187.157 107.041 187.259 108.294 187.493C109.752 187.784 111.21 188.236 111.443 190.146C111.676 192.055 110.35 193.178 108.338 193.353C107.28 193.445 106.216 193.264 105.248 192.828L105.087 191.312ZM113.353 190.496C114.338 190.978 115.449 191.141 116.531 190.962C117.711 190.743 118.455 190.073 118.251 188.98C118.047 187.886 116.793 187.697 115.452 187.522C114.111 187.347 112.536 187.055 112.201 185.248C111.866 183.44 112.974 182.332 114.913 181.91C115.886 181.722 116.893 181.798 117.828 182.128L118.076 183.499C117.126 183.072 116.071 182.935 115.044 183.105C113.921 183.294 113.236 183.921 113.411 184.927C113.644 186.166 114.869 186.166 116.093 186.283C117.551 186.429 119.125 186.749 119.475 188.644C119.825 190.539 118.659 191.749 116.676 192.114C115.633 192.301 114.558 192.215 113.557 191.866L113.353 190.496ZM120.991 186.356L119.533 181.239L120.802 180.875L122.259 185.845C122.441 186.716 122.82 187.534 123.367 188.236C123.715 188.56 124.147 188.779 124.615 188.867C125.082 188.955 125.564 188.908 126.006 188.732C126.468 188.646 126.896 188.429 127.238 188.105C127.579 187.782 127.82 187.367 127.93 186.91C128.019 186.044 127.899 185.169 127.58 184.359L126.122 179.329L127.347 178.965L128.805 183.936C129.252 185.05 129.369 186.27 129.14 187.449C128.876 188.038 128.488 188.563 128.001 188.988C127.515 189.412 126.942 189.726 126.323 189.908C125.703 190.089 125.052 190.134 124.413 190.04C123.774 189.945 123.164 189.712 122.624 189.359C121.806 188.533 121.239 187.491 120.991 186.356ZM129.009 178.309L131.531 177.259C132.392 176.822 133.35 176.612 134.315 176.647C134.797 176.683 135.259 176.855 135.646 177.144C136.034 177.434 136.33 177.828 136.501 178.28C136.698 178.711 136.775 179.187 136.727 179.659C136.678 180.13 136.505 180.58 136.224 180.962C135.974 181.29 135.668 181.571 135.321 181.793L140 184.708L138.542 185.321L134.038 182.536L132.464 183.192L134.111 187.099L132.886 187.609L129.009 178.309ZM133.615 181.458C134.278 181.254 134.857 180.84 135.262 180.277C135.39 180.055 135.458 179.804 135.458 179.548C135.458 179.292 135.39 179.041 135.262 178.819C135.172 178.541 135 178.296 134.769 178.116C134.537 177.937 134.257 177.831 133.965 177.813C133.223 177.81 132.492 177.991 131.837 178.338L130.627 178.834L131.968 182.041L133.615 181.458ZM139.723 173.469L140.831 172.857L149.344 179.65L148.09 180.335L145.758 178.426L141.793 180.612L142.143 183.63L140.962 184.271L139.723 173.469ZM141.633 179.3L144.796 177.551L143.076 176.093C142.405 175.539 141.618 174.942 141.035 174.373C141.166 175.248 141.283 176.152 141.385 177.07L141.633 179.3ZM151.05 178.455L145.219 170.277L146.239 169.548L152.915 171.633C153.848 171.91 154.781 172.216 155.7 172.522C155.189 171.822 154.577 171.064 154.009 170.204L151.093 166.093L152.143 165.35L157.974 173.528L156.953 174.257L150.262 172.187C149.344 171.895 148.411 171.604 147.478 171.283C148.003 171.983 148.615 172.741 149.184 173.601L152.099 177.711L151.05 178.455ZM156.91 160.816C157.634 160.145 158.517 159.668 159.475 159.432L160.452 160.496C159.437 160.608 158.484 161.036 157.726 161.72C156.953 162.437 156.496 163.432 156.456 164.486C156.417 165.54 156.797 166.566 157.515 167.34C158.232 168.113 159.227 168.57 160.281 168.609C161.334 168.649 162.361 168.268 163.134 167.551C163.929 166.857 164.447 165.9 164.592 164.854L165.583 165.933C165.271 166.926 164.691 167.814 163.907 168.499C163.405 168.958 162.818 169.314 162.179 169.547C161.54 169.779 160.861 169.884 160.181 169.854C158.809 169.794 157.517 169.191 156.589 168.178C155.661 167.165 155.174 165.825 155.234 164.453C155.294 163.08 155.897 161.788 156.91 160.86V160.816ZM160.233 157.784L164.125 153.411L165.015 154.213L162.012 157.551L164.286 159.592L166.91 156.676L167.77 157.449L165.146 160.364L167.726 162.682L170.802 159.257L171.691 160.044L167.726 164.417L160.233 157.784ZM174.927 145.423L177.332 148.484L180.51 147.872L179.636 149.184L177.974 149.504C178.157 150.047 178.202 150.628 178.106 151.192C178.009 151.757 177.773 152.289 177.42 152.741C177.084 153.299 176.57 153.729 175.96 153.961C175.351 154.193 174.682 154.215 174.059 154.022C173.436 153.829 172.896 153.432 172.525 152.896C172.154 152.36 171.973 151.715 172.012 151.064V150.685H171.574C171.189 150.793 170.786 150.82 170.389 150.764C169.993 150.709 169.612 150.573 169.271 150.364C168.722 149.972 168.349 149.379 168.231 148.714C168.114 148.049 168.262 147.365 168.643 146.808C169.025 146.251 169.61 145.865 170.272 145.735C170.935 145.604 171.622 145.738 172.187 146.108C172.555 146.378 172.847 146.739 173.036 147.155C173.225 147.571 173.304 148.029 173.265 148.484V149.169L176.02 148.644L174.213 146.385L174.927 145.423ZM171.516 149.606L172.128 149.49V148.688C172.153 148.411 172.108 148.131 171.995 147.877C171.883 147.622 171.708 147.399 171.487 147.23C171.346 147.134 171.186 147.068 171.018 147.037C170.85 147.007 170.677 147.011 170.511 147.051C170.345 147.091 170.189 147.165 170.053 147.269C169.918 147.372 169.805 147.503 169.723 147.653C169.621 147.785 169.548 147.936 169.507 148.098C169.467 148.259 169.46 148.427 169.487 148.591C169.515 148.755 169.576 148.912 169.666 149.052C169.757 149.191 169.876 149.311 170.015 149.402C170.229 149.531 170.468 149.615 170.716 149.65C170.963 149.685 171.216 149.67 171.458 149.606H171.516ZM176.72 149.796L173.178 150.481V151.093C173.044 151.542 173.095 152.025 173.317 152.436C173.54 152.848 173.917 153.154 174.366 153.287C174.814 153.421 175.297 153.37 175.709 153.148C176.12 152.925 176.426 152.548 176.56 152.099C176.794 151.765 176.929 151.37 176.947 150.962C176.965 150.554 176.866 150.15 176.662 149.796H176.72ZM173.98 138.746L175.146 136.283C175.49 135.379 176.062 134.581 176.808 133.965C177.189 133.67 177.647 133.49 178.127 133.446C178.607 133.403 179.09 133.497 179.519 133.717C179.953 133.906 180.328 134.207 180.607 134.588C180.887 134.97 181.059 135.419 181.108 135.889C181.149 136.301 181.11 136.717 180.991 137.114L186.385 136.108L185.7 137.566L180.481 138.484L179.752 140.044L183.673 141.866L183.105 143.061L173.98 138.746ZM179.504 138.018C179.857 137.42 180.005 136.724 179.927 136.035C179.883 135.797 179.779 135.573 179.626 135.385C179.474 135.196 179.276 135.049 179.052 134.956C178.794 134.818 178.502 134.757 178.21 134.78C177.918 134.804 177.638 134.91 177.405 135.087C176.854 135.579 176.433 136.2 176.181 136.895L175.627 138.076L178.761 139.534L179.504 138.018ZM177.595 130.729L178.061 129.49L187.449 133.134L186.982 134.373L177.595 130.729ZM186.37 130.16C187.254 129.511 187.916 128.605 188.265 127.566C188.615 126.429 188.353 125.452 187.303 125.117C186.254 124.781 185.496 125.802 184.752 126.953C184.009 128.105 182.974 129.329 181.224 128.776C180.834 128.656 180.474 128.454 180.17 128.183C179.865 127.911 179.622 127.577 179.459 127.203C179.296 126.829 179.215 126.425 179.223 126.017C179.231 125.609 179.327 125.207 179.504 124.84C179.791 123.868 180.335 122.992 181.079 122.303L182.42 122.711C181.594 123.358 180.98 124.236 180.656 125.233C180.321 126.297 180.554 127.201 181.531 127.507C182.507 127.813 183.28 126.822 183.965 125.758C184.65 124.694 185.787 123.28 187.624 123.863C188.028 123.985 188.401 124.193 188.716 124.474C189.032 124.754 189.283 125.099 189.452 125.486C189.621 125.873 189.704 126.291 189.696 126.713C189.687 127.135 189.587 127.551 189.402 127.93C189.092 128.946 188.524 129.865 187.755 130.598L186.37 130.16ZM181.006 120.306L181.283 119.009L185.743 119.942L182.216 114.679L182.551 113.076L186.195 118.455L192.42 114.752L192.07 116.443L186.02 119.985L191.108 121.05L190.831 122.332L181.006 120.306Z" fill="white"/>
<path d="M38.3965 110.991H40.5685V125.569H48.4111V127.536H38.3965V110.991ZM51.1662 110.991H60.758V112.959H53.3382V118.076H59.8396V119.971H53.3382V125.685H60.9621V127.653H51.1662V110.991ZM62.2886 110.991H64.621L68.1632 120.306L69.7813 124.679C70.3353 123.222 70.8892 121.764 71.4577 120.204L75.0146 110.962H77.2595L70.9038 127.595H68.688L62.2886 110.991ZM79.4898 110.991H89.067V112.959H81.6326V118.076H88.1195V119.971H81.6326V125.685H89.2565V127.653H79.4898V110.991ZM92.3469 110.991H94.5335V125.569H102.376V127.536H92.3469V110.991ZM118.396 110.787C120.094 110.764 121.759 111.246 123.182 112.172C124.604 113.098 125.719 114.426 126.385 115.988C127.05 117.549 127.236 119.273 126.92 120.941C126.603 122.608 125.797 124.144 124.605 125.352C123.413 126.561 121.889 127.387 120.226 127.727C118.563 128.067 116.836 127.904 115.266 127.26C113.696 126.616 112.352 125.519 111.407 124.11C110.461 122.7 109.956 121.041 109.956 119.344C109.927 118.222 110.124 117.106 110.536 116.062C110.948 115.018 111.567 114.068 112.355 113.269C113.143 112.47 114.085 111.839 115.123 111.412C116.161 110.986 117.274 110.773 118.396 110.787ZM118.396 125.875C119.702 125.933 120.996 125.599 122.11 124.915C123.225 124.232 124.109 123.23 124.649 122.039C125.189 120.849 125.36 119.524 125.14 118.235C124.92 116.947 124.319 115.753 123.415 114.809C122.511 113.865 121.345 113.213 120.067 112.938C118.789 112.662 117.458 112.776 116.245 113.264C115.032 113.752 113.993 114.592 113.262 115.675C112.531 116.759 112.141 118.037 112.143 119.344C112.114 120.184 112.253 121.022 112.554 121.807C112.855 122.592 113.311 123.308 113.895 123.913C114.478 124.518 115.177 125 115.951 125.329C116.724 125.659 117.556 125.829 118.396 125.831V125.875ZM129.84 127.595V110.991H131.91L138.863 120.219C139.825 121.472 140.787 122.784 141.778 124.096V110.991H143.892V127.595H141.764L134.825 118.382C133.863 117.114 132.901 115.816 131.91 114.504V127.566L129.84 127.595ZM147.784 110.991H157.434V112.959H150.029V118.076H156.516V119.971H150.029V125.685H157.638V127.653H147.857L147.784 110.991Z" fill="#00559A"/>
</g>
<defs>
<clipPath id="clip0_1813_530">
<rect width="200" height="200" fill="white"/>
</clipPath>
</defs>
</svg>
