<svg width="200" height="200" viewBox="0 0 200 200" fill="none" xmlns="http://www.w3.org/2000/svg">
<g clip-path="url(#clip0_4005_804)">
<g clip-path="url(#clip1_4005_804)">
<path d="M99.9957 199.245C154.808 199.245 199.241 154.811 199.241 99.9996C199.241 45.1877 154.808 0.753906 99.9957 0.753906C45.1838 0.753906 0.75 45.1877 0.75 99.9996C0.75 154.811 45.1838 199.245 99.9957 199.245Z" fill="white"/>
<path d="M100 200C44.8596 200 0 155.14 0 100C0 44.8601 44.8596 0 100 0C155.14 0 200 44.8598 200 100C200 155.14 155.14 200 100 200ZM100 3.20831C46.6288 3.20832 3.20832 46.629 3.20832 100C3.20832 153.371 46.6288 196.792 100 196.792C153.371 196.792 196.792 153.371 196.792 100C196.792 46.629 153.371 3.20831 100 3.20831Z" fill="#00395C"/>
<path d="M99.9938 165.681C63.7769 165.681 34.3125 136.217 34.3125 99.9998C34.3125 63.783 63.7769 34.3184 99.9938 34.3184C136.211 34.3184 165.676 63.783 165.676 99.9998C165.676 136.217 136.211 165.681 99.9938 165.681ZM99.9938 37.5267C65.5461 37.5267 37.5208 65.5519 37.5208 99.9998C37.5208 134.448 65.5461 162.473 99.9938 162.473C134.441 162.473 162.467 134.447 162.467 99.9998C162.467 65.5522 134.442 37.5267 99.9938 37.5267Z" fill="#00395C"/>
<path d="M64.1864 136.83V135.443L67.4271 132.443C67.7028 132.176 67.9347 131.936 68.1227 131.722C68.3112 131.509 68.4543 131.299 68.5519 131.093C68.6496 130.888 68.6987 130.664 68.6987 130.425C68.6987 130.158 68.6381 129.927 68.5164 129.733C68.3947 129.539 68.2287 129.39 68.0182 129.284C67.8078 129.179 67.5697 129.126 67.3028 129.126C67.024 129.126 66.7812 129.183 66.5739 129.295C66.366 129.408 66.2062 129.569 66.0935 129.78C65.9812 129.99 65.9248 130.241 65.9248 130.531H64.0977C64.0977 129.935 64.2324 129.418 64.5024 128.98C64.7718 128.541 65.1499 128.202 65.6355 127.961C66.1217 127.722 66.682 127.602 67.3159 127.602C67.9681 127.602 68.5363 127.716 69.0208 127.946C69.5054 128.176 69.8825 128.493 70.1524 128.9C70.4219 129.305 70.5566 129.771 70.5566 130.296C70.5566 130.639 70.4892 130.979 70.3545 131.313C70.2198 131.649 69.9801 132.02 69.6365 132.427C69.2929 132.834 68.8083 133.323 68.1827 133.892L66.8538 135.194V135.256H70.6767V136.83L64.1864 136.83Z" fill="#00395C"/>
<path d="M72.431 136.83L76.2049 129.362V129.3H71.8086V127.726H78.1965V129.322L74.418 136.83L72.431 136.83Z" fill="#00395C"/>
<path d="M82.8911 137.03C82.1266 137.027 81.4692 136.839 80.9198 136.466C80.37 136.092 79.9475 135.551 79.6525 134.843C79.358 134.135 79.2118 133.283 79.2149 132.287C79.2149 131.294 79.3622 130.448 79.6572 129.749C79.9522 129.049 80.3741 128.516 80.924 128.15C81.4739 127.784 82.1292 127.602 82.8911 127.602C83.653 127.602 84.3083 127.785 84.8582 128.153C85.408 128.52 85.831 129.053 86.1276 129.751C86.4237 130.449 86.5704 131.294 86.5673 132.287C86.5673 133.286 86.4201 134.139 86.125 134.847C85.8305 135.556 85.4086 136.097 84.8603 136.47C84.312 136.844 83.6556 137.03 82.8911 137.03ZM82.8911 135.434C83.4127 135.434 83.8289 135.172 84.1402 134.647C84.4514 134.123 84.6054 133.336 84.6028 132.287C84.6028 131.596 84.5323 131.021 84.3913 130.562C84.2509 130.103 84.0519 129.758 83.796 129.526C83.5396 129.295 83.2378 129.18 82.8911 129.18C82.3726 129.18 81.9574 129.439 81.6462 129.958C81.3355 130.476 81.1783 131.253 81.1752 132.287C81.1752 132.986 81.2457 133.57 81.3862 134.036C81.5271 134.503 81.7266 134.853 81.9841 135.086C82.242 135.318 82.5443 135.434 82.8911 135.434Z" fill="#00395C"/>
<path d="M91.5122 137.03C90.7477 137.027 90.0903 136.839 89.5409 136.466C88.9911 136.092 88.5686 135.551 88.2736 134.843C87.9791 134.135 87.8329 133.283 87.836 132.287C87.836 131.294 87.9833 130.448 88.2783 129.749C88.5733 129.049 88.9952 128.516 89.5451 128.15C90.095 127.784 90.7503 127.602 91.5122 127.602C92.2741 127.602 92.9294 127.785 93.4793 128.153C94.0291 128.52 94.4521 129.053 94.7487 129.751C95.0448 130.449 95.1915 131.294 95.1884 132.287C95.1884 133.286 95.0411 134.139 94.7461 134.847C94.4516 135.556 94.0297 136.097 93.4814 136.47C92.9331 136.844 92.2767 137.03 91.5122 137.03ZM91.5122 135.434C92.0338 135.434 92.45 135.172 92.7613 134.647C93.0725 134.123 93.2265 133.336 93.2239 132.287C93.2239 131.596 93.1534 131.021 93.0124 130.562C92.872 130.103 92.673 129.758 92.4171 129.526C92.1607 129.295 91.8589 129.18 91.5122 129.18C90.9936 129.18 90.5785 129.439 90.2673 129.958C89.9566 130.476 89.7994 131.253 89.7963 132.287C89.7963 132.986 89.8668 133.57 90.0072 134.036C90.1482 134.503 90.3477 134.853 90.6052 135.086C90.8631 135.318 91.1654 135.434 91.5122 135.434Z" fill="#00395C"/>
<path d="M100.512 127.726V136.83H98.5876V129.553H98.5343L96.4492 130.86V129.153L98.703 127.726L100.512 127.726Z" fill="#00395C"/>
<path d="M103.801 132.167C103.508 132.167 103.257 132.063 103.048 131.854C102.839 131.645 102.734 131.394 102.734 131.1C102.734 130.81 102.839 130.561 103.048 130.353C103.257 130.146 103.508 130.042 103.801 130.042C104.086 130.042 104.335 130.146 104.548 130.353C104.762 130.561 104.868 130.81 104.868 131.1C104.868 131.296 104.818 131.474 104.719 131.636C104.62 131.798 104.49 131.927 104.33 132.023C104.17 132.119 103.994 132.167 103.801 132.167ZM103.801 136.946C103.508 136.946 103.257 136.841 103.048 136.632C102.839 136.424 102.734 136.172 102.734 135.879C102.734 135.589 102.839 135.34 103.048 135.132C103.257 134.925 103.508 134.821 103.801 134.821C104.086 134.821 104.335 134.925 104.548 135.132C104.762 135.34 104.868 135.589 104.868 135.879C104.868 136.075 104.818 136.253 104.719 136.415C104.62 136.576 104.49 136.705 104.33 136.802C104.17 136.898 103.994 136.946 103.801 136.946Z" fill="#00395C"/>
<path d="M106.409 136.83V135.443L109.65 132.443C109.925 132.176 110.157 131.936 110.345 131.722C110.534 131.509 110.677 131.299 110.775 131.093C110.872 130.888 110.921 130.664 110.921 130.425C110.921 130.158 110.861 129.927 110.739 129.733C110.617 129.539 110.451 129.39 110.241 129.284C110.03 129.179 109.792 129.126 109.525 129.126C109.247 129.126 109.004 129.183 108.797 129.295C108.589 129.408 108.429 129.569 108.316 129.78C108.204 129.99 108.147 130.241 108.147 130.531H106.32C106.32 129.935 106.455 129.418 106.725 128.98C106.994 128.541 107.373 128.202 107.858 127.961C108.344 127.722 108.905 127.602 109.539 127.602C110.191 127.602 110.759 127.716 111.243 127.946C111.728 128.176 112.105 128.493 112.375 128.9C112.645 129.305 112.779 129.771 112.779 130.296C112.779 130.639 112.712 130.979 112.577 131.313C112.442 131.649 112.203 132.02 111.859 132.427C111.516 132.834 111.031 133.323 110.405 133.892L109.076 135.194V135.256H112.899V136.83L106.409 136.83Z" fill="#00395C"/>
<path d="M117.864 137.03C117.099 137.027 116.442 136.839 115.892 136.466C115.343 136.092 114.92 135.551 114.625 134.843C114.331 134.135 114.184 133.283 114.188 132.287C114.188 131.294 114.335 130.448 114.63 129.749C114.925 129.049 115.347 128.516 115.897 128.15C116.447 127.784 117.102 127.602 117.864 127.602C118.626 127.602 119.281 127.785 119.831 128.153C120.381 128.52 120.804 129.053 121.1 129.751C121.396 130.449 121.543 131.294 121.54 132.287C121.54 133.286 121.393 134.139 121.098 134.847C120.803 135.556 120.381 136.097 119.833 136.47C119.285 136.844 118.628 137.03 117.864 137.03ZM117.864 135.434C118.385 135.434 118.802 135.172 119.113 134.647C119.424 134.123 119.578 133.336 119.575 132.287C119.575 131.596 119.505 131.021 119.364 130.562C119.224 130.103 119.025 129.758 118.769 129.526C118.512 129.295 118.21 129.18 117.864 129.18C117.345 129.18 116.93 129.439 116.619 129.958C116.308 130.476 116.151 131.253 116.148 132.287C116.148 132.986 116.218 133.57 116.359 134.036C116.5 134.503 116.699 134.853 116.957 135.086C117.215 135.318 117.517 135.434 117.864 135.434Z" fill="#00395C"/>
<path d="M126.868 127.726V136.83H124.943V129.553H124.89L122.805 130.86V129.153L125.058 127.726L126.868 127.726Z" fill="#00395C"/>
<path d="M132.392 136.954C131.728 136.954 131.137 136.84 130.62 136.61C130.103 136.381 129.695 136.063 129.398 135.659C129.1 135.254 128.946 134.787 128.938 134.256H130.876C130.887 134.479 130.961 134.674 131.096 134.841C131.23 135.008 131.411 135.138 131.636 135.23C131.861 135.322 132.114 135.368 132.396 135.368C132.689 135.368 132.948 135.316 133.174 135.212C133.399 135.109 133.576 134.964 133.703 134.781C133.83 134.597 133.894 134.385 133.894 134.145C133.894 133.902 133.827 133.687 133.692 133.498C133.557 133.31 133.364 133.163 133.114 133.056C132.863 132.949 132.566 132.896 132.223 132.896H131.374V131.482H132.223C132.513 131.482 132.77 131.432 132.994 131.331C133.218 131.23 133.392 131.09 133.516 130.911C133.641 130.732 133.703 130.522 133.703 130.282C133.703 130.054 133.649 129.853 133.541 129.68C133.433 129.506 133.281 129.371 133.087 129.273C132.893 129.175 132.667 129.126 132.41 129.126C132.148 129.126 131.91 129.173 131.694 129.266C131.477 129.36 131.304 129.492 131.174 129.664C131.043 129.836 130.974 130.038 130.965 130.269H129.12C129.129 129.744 129.278 129.282 129.569 128.882C129.859 128.481 130.251 128.168 130.744 127.942C131.238 127.715 131.796 127.602 132.418 127.602C133.047 127.602 133.596 127.715 134.067 127.944C134.538 128.172 134.906 128.479 135.168 128.866C135.43 129.253 135.559 129.687 135.557 130.167C135.559 130.676 135.402 131.102 135.083 131.442C134.765 131.783 134.351 131.999 133.841 132.091V132.162C134.51 132.249 135.021 132.48 135.372 132.858C135.723 133.236 135.897 133.708 135.895 134.274C135.897 134.793 135.748 135.254 135.448 135.657C135.147 136.059 134.733 136.377 134.205 136.608C133.678 136.839 133.073 136.954 132.392 136.954Z" fill="#00395C"/>
<path d="M14.1602 111.372L23.7836 109.989L24.0755 112.024L14.4526 113.407L14.1602 111.372Z" fill="#00395C"/>
<path d="M19.1914 106.801L23.3982 106.521L23.5324 108.538L16.2573 109.024L16.1288 107.101L17.4129 107.015L17.4071 106.93C16.9732 106.797 16.6196 106.55 16.346 106.188C16.0729 105.825 15.9189 105.374 15.8823 104.834C15.8489 104.328 15.9298 103.881 16.1251 103.49C16.322 103.099 16.617 102.786 17.0123 102.551C17.4076 102.315 17.8875 102.178 18.4525 102.141L23.0854 101.832L23.2191 103.849L18.947 104.134C18.5016 104.161 18.1606 104.298 17.9256 104.545C17.6896 104.792 17.5852 105.118 17.6123 105.522C17.6306 105.794 17.7053 106.029 17.8358 106.228C17.9664 106.427 18.1465 106.577 18.3773 106.677C18.6071 106.778 18.8792 106.819 19.1914 106.801Z" fill="#00395C"/>
<path d="M23.1342 99.9798L15.3166 99.8414C14.7886 99.832 14.3526 99.7208 14.0074 99.5072C13.6633 99.2941 13.4075 99.0048 13.2398 98.6414C13.0717 98.2774 12.9918 97.866 13.0007 97.4069C13.0064 97.0978 13.0346 96.8137 13.0863 96.5573C13.1385 96.2994 13.1845 96.1077 13.2247 95.9824L14.7375 96.3699C14.7103 96.4482 14.6852 96.5453 14.6612 96.6602C14.6372 96.7751 14.6241 96.8936 14.6221 97.0137C14.6168 97.3109 14.6811 97.5197 14.8168 97.6388C14.9526 97.7579 15.1442 97.8205 15.3902 97.8242L23.1697 97.9626L23.1342 99.9798ZM15.9051 96.3808L17.4241 96.4075L17.3442 100.907L15.8257 100.881L15.9051 96.3808Z" fill="#00395C"/>
<path d="M23.6607 92.4519C23.5892 93.1866 23.3704 93.8044 23.0049 94.3078C22.6393 94.8111 22.1615 95.1798 21.5709 95.4148C20.9803 95.6498 20.3135 95.7312 19.5699 95.6581C18.8206 95.585 18.1788 95.3761 17.6446 95.0315C17.1109 94.6868 16.713 94.232 16.4519 93.6675C16.1908 93.1031 16.0958 92.4535 16.1678 91.7203C16.2389 90.9861 16.4582 90.3673 16.8237 89.8639C17.1887 89.3611 17.6676 88.9919 18.2582 88.7569C18.8482 88.5219 19.5187 88.441 20.2681 88.5146C21.0117 88.5872 21.6498 88.7955 22.184 89.1407C22.7177 89.4853 23.1156 89.9402 23.3767 90.5041C23.6372 91.0686 23.7323 91.7177 23.6607 92.4519ZM22.1025 92.29C22.1354 91.9563 22.067 91.6686 21.8989 91.4263C21.7297 91.184 21.4853 90.9887 21.1662 90.842C20.8472 90.6947 20.4759 90.5997 20.054 90.559C19.6321 90.5172 19.2503 90.5386 18.9078 90.6211C18.5663 90.7041 18.288 90.8472 18.0744 91.0524C17.8603 91.2577 17.7365 91.5261 17.7041 91.8608C17.6707 92.1976 17.7397 92.4895 17.9094 92.7365C18.0796 92.984 18.324 93.1809 18.643 93.3281C18.9631 93.4759 19.3334 93.5704 19.7553 93.6106C20.1783 93.6524 20.56 93.632 20.9015 93.549C21.2441 93.4665 21.5208 93.3203 21.7339 93.1104C21.9469 92.9005 22.0696 92.6268 22.1025 92.29Z" fill="#00395C"/>
<path d="M24.091 87.772L16.9219 86.443L17.2785 84.5156L18.5297 84.7469L18.5433 84.6723C18.1229 84.4592 17.8268 84.1777 17.6545 83.8268C17.4832 83.4764 17.4347 83.1005 17.5088 82.6989C17.5276 82.5997 17.5537 82.4937 17.5871 82.3809C17.6211 82.2676 17.6571 82.1699 17.6947 82.0869L19.4592 82.4138C19.4143 82.5021 19.3652 82.6263 19.313 82.7872C19.2608 82.948 19.2216 83.0973 19.1965 83.2347C19.1422 83.5266 19.1568 83.7981 19.2404 84.0509C19.3245 84.3031 19.466 84.5156 19.6654 84.6895C19.8649 84.8639 20.1109 84.9772 20.4038 85.031L24.4591 85.783L24.091 87.772Z" fill="#00395C"/>
<path d="M24.9285 82.6169L17.9531 80.4953L18.5134 78.6514L19.7442 79.0253L19.7693 78.9439C19.4048 78.6739 19.1557 78.334 19.0226 77.923C18.8894 77.512 18.8951 77.0708 19.0387 76.5982C19.1844 76.1204 19.4267 75.7486 19.7667 75.4849C20.1066 75.2212 20.4967 75.0953 20.9364 75.1063L20.9583 75.0337C20.6017 74.7695 20.3604 74.4144 20.2335 73.9674C20.1061 73.5194 20.1202 73.0405 20.2764 72.5288C20.4743 71.8776 20.8419 71.4113 21.3792 71.1298C21.916 70.8479 22.5635 70.8228 23.3202 71.0531L28.012 72.4797L27.4246 74.4097L23.1144 73.099C22.727 72.9815 22.4048 72.9961 22.1489 73.1423C21.8925 73.2896 21.7171 73.5178 21.6236 73.8269C21.5165 74.1778 21.5442 74.4854 21.7071 74.7501C21.8695 75.0149 22.1327 75.2018 22.4962 75.3125L26.7562 76.6081L26.1859 78.4843L21.8345 77.1611C21.493 77.0561 21.1902 77.0713 20.9285 77.2055C20.6659 77.3381 20.4868 77.5642 20.3902 77.8822C20.3244 78.0969 20.3197 78.3068 20.375 78.5099C20.4304 78.7146 20.539 78.8953 20.7014 79.053C20.8633 79.2122 21.0722 79.3308 21.3301 79.4086L25.5176 80.6822L24.9285 82.6169Z" fill="#00395C"/>
<path d="M29.5873 69.4651C29.3972 69.8896 29.1528 70.2343 28.8557 70.4996C28.5576 70.7648 28.2192 70.9278 27.8395 70.9878C27.4604 71.0484 27.0516 70.98 26.6129 70.7831C26.2427 70.6165 25.9633 70.4097 25.7727 70.1612C25.5827 69.9121 25.4641 69.6369 25.4156 69.3346C25.3675 69.0317 25.3717 68.7137 25.4281 68.38C25.4845 68.0463 25.5707 67.7079 25.6866 67.3643C25.8192 66.9591 25.921 66.6307 25.9921 66.3774C26.062 66.1242 26.085 65.9283 26.0605 65.7889C26.0365 65.65 25.9534 65.5487 25.8124 65.485L25.7869 65.4735C25.5122 65.3503 25.2615 65.3409 25.0339 65.4453C24.8067 65.5492 24.6224 65.7591 24.4814 66.0735C24.332 66.4056 24.2861 66.7022 24.344 66.9643C24.4015 67.2254 24.5258 67.438 24.7169 67.5998L23.8119 69.2437C23.4469 68.9758 23.1728 68.6489 22.9916 68.2609C22.8099 67.8745 22.7284 67.4437 22.7493 66.969C22.7702 66.4944 22.8997 65.991 23.1378 65.4599C23.3044 65.0907 23.5065 64.7555 23.7456 64.4547C23.9848 64.155 24.2548 63.9132 24.5545 63.731C24.8548 63.5487 25.1822 63.4448 25.5352 63.4187C25.8882 63.3936 26.2626 63.4704 26.6584 63.6474L31.145 65.6631L30.3586 67.4119L29.4364 66.9978L29.4135 67.05C29.5733 67.2505 29.6913 67.475 29.7686 67.7247C29.8453 67.9743 29.8719 68.2442 29.8469 68.5346C29.8223 68.826 29.7356 69.1356 29.5873 69.4651ZM28.5518 68.3649C28.674 68.0938 28.7273 67.8296 28.7127 67.5732C28.6975 67.3168 28.6244 67.0881 28.4928 66.886C28.3612 66.685 28.1785 66.5315 27.9445 66.4265L27.2385 66.1101C27.25 66.1842 27.249 66.2782 27.2343 66.3915C27.2202 66.5048 27.1973 66.6296 27.1659 66.7638C27.1346 66.8991 27.1007 67.0333 27.0636 67.1659C27.0265 67.298 26.9926 67.4181 26.9618 67.5257C26.896 67.7565 26.862 67.968 26.8578 68.1612C26.8547 68.3539 26.8913 68.5215 26.9685 68.6636C27.0453 68.8056 27.1701 68.9153 27.3435 68.9925C27.5947 69.1058 27.827 69.1001 28.0411 68.9758C28.2547 68.8515 28.4249 68.6479 28.5518 68.3649Z" fill="#00395C"/>
<path d="M24.125 59.6636L25.102 57.8928L31.0544 61.1774C31.2179 61.2677 31.3589 61.3126 31.4753 61.3126C31.5933 61.3126 31.6951 61.2771 31.7808 61.2066C31.8664 61.1367 31.9427 61.0416 32.0085 60.9231C32.0539 60.8395 32.092 60.7523 32.1223 60.6609C32.1531 60.569 32.1766 60.4991 32.1928 60.45L33.6643 60.8991C33.6429 61.003 33.6069 61.1455 33.5557 61.3267C33.504 61.5079 33.4189 61.7158 33.3004 61.9507C33.0816 62.3862 32.8194 62.7278 32.5119 62.9768C32.2053 63.2249 31.8659 63.3617 31.4931 63.3878C31.1213 63.4139 30.727 63.31 30.3098 63.0761L24.125 59.6636ZM27.2947 57.5356L28.6252 58.2698L26.5036 62.1142L25.173 61.38L27.2947 57.5356Z" fill="#00395C"/>
<path d="M27.8729 54.8108C27.7126 55.0657 27.4907 55.2317 27.2082 55.3074C26.9241 55.3837 26.6635 55.3471 26.4249 55.1983C26.1868 55.0479 26.039 54.8286 25.9831 54.5398C25.9267 54.25 25.9779 53.98 26.1366 53.7278C26.298 53.4709 26.5199 53.3043 26.8024 53.2291C27.0849 53.154 27.345 53.191 27.5836 53.3414C27.8223 53.4908 27.97 53.7095 28.0264 53.9973C28.0833 54.285 28.0322 54.5565 27.8729 54.8108ZM34.3031 60.0489L28.1262 56.1753L29.2008 54.4615L35.3783 58.3361L34.3031 60.0489Z" fill="#00395C"/>
<path d="M38.1892 54.5363C37.7511 55.1306 37.2467 55.5499 36.6754 55.7948C36.1036 56.0402 35.5047 56.1128 34.877 56.012C34.2493 55.9113 33.6342 55.6397 33.0332 55.1969C32.4264 54.7504 31.982 54.2423 31.7 53.6726C31.418 53.1035 31.3094 52.5092 31.3731 51.8904C31.4379 51.2721 31.6891 50.6653 32.1261 50.0716C32.5632 49.4784 33.0682 49.0586 33.6399 48.8137C34.2112 48.5683 34.8107 48.4962 35.4384 48.5965C36.066 48.6967 36.6827 48.9703 37.2895 49.4173C37.8911 49.8602 38.3323 50.3662 38.6148 50.9359C38.8973 51.505 39.006 52.0993 38.9412 52.7176C38.8775 53.3364 38.6258 53.9426 38.1892 54.5363ZM36.9329 53.5995C37.1318 53.3301 37.2211 53.0471 37.1997 52.7531C37.1793 52.4586 37.0691 52.1666 36.8702 51.8763C36.6707 51.586 36.4007 51.3155 36.0592 51.0638C35.7177 50.8121 35.3788 50.6346 35.043 50.5306C34.7062 50.4267 34.394 50.4079 34.1057 50.4742C33.8169 50.5411 33.5726 50.7087 33.3741 50.9792C33.1731 51.2518 33.0827 51.5379 33.1021 51.8366C33.1214 52.1364 33.231 52.4309 33.43 52.7212C33.629 53.0105 33.8995 53.282 34.2404 53.5332C34.582 53.7849 34.9208 53.9624 35.2566 54.0664C35.5934 54.1703 35.9057 54.187 36.196 54.116C36.4864 54.045 36.7318 53.8726 36.9329 53.5995Z" fill="#00395C"/>
<path d="M39.1409 46.4011L42.2574 49.2397L40.8955 50.7347L35.5039 45.8256L36.8021 44.4006L37.7524 45.2669L37.8104 45.2032C37.6057 44.799 37.5394 44.3714 37.6115 43.9238C37.6835 43.4758 37.9018 43.0518 38.2658 42.6518C38.6067 42.2769 38.9859 42.0257 39.4031 41.8962C39.8203 41.7667 40.2511 41.7625 40.695 41.8842C41.1383 42.0059 41.5696 42.257 41.9884 42.6387L45.4213 45.764L44.0605 47.2596L40.8944 44.3771C40.566 44.0742 40.2313 43.9228 39.8897 43.9249C39.5477 43.9259 39.2412 44.0768 38.9686 44.3761C38.7848 44.5776 38.6668 44.7943 38.6141 45.0262C38.5608 45.2585 38.5785 45.4925 38.6652 45.728C38.7524 45.964 38.9112 46.188 39.1409 46.4011Z" fill="#00395C"/>
<path d="M48.2995 34.0266C48.0274 33.7545 47.713 33.6271 47.3559 33.6454C46.9982 33.6647 46.629 33.8292 46.2472 34.1425C45.9877 34.3545 45.7977 34.5702 45.6781 34.7895C45.559 35.0077 45.5042 35.2192 45.5141 35.4239C45.524 35.6281 45.595 35.8114 45.7266 35.9728C45.8326 36.1117 45.958 36.2057 46.1026 36.2547C46.2473 36.3044 46.4039 36.32 46.5736 36.3023C46.7423 36.284 46.9209 36.2422 47.1083 36.1764C47.2963 36.1111 47.4869 36.0286 47.6812 35.9315L48.4895 35.5393C48.878 35.3446 49.2587 35.1963 49.6331 35.0939C50.0081 34.9921 50.3689 34.9482 50.7156 34.9623C51.0629 34.977 51.3918 35.06 51.7015 35.2104C52.0117 35.3618 52.2958 35.5937 52.5553 35.9044C52.9297 36.3665 53.1391 36.861 53.1835 37.3868C53.2268 37.9132 53.1078 38.4469 52.8247 38.9874C52.5417 39.5278 52.0931 40.0495 51.4811 40.5503C50.8738 41.0479 50.2697 41.3873 49.6681 41.5685C49.0665 41.7513 48.49 41.7612 47.9391 41.6009C47.3882 41.4406 46.8859 41.0944 46.43 40.5633L47.9694 39.3038C48.1929 39.5414 48.4378 39.6918 48.7041 39.7544C48.9694 39.8166 49.2456 39.8014 49.5308 39.7085C49.8169 39.6161 50.0973 39.4563 50.3715 39.2328C50.6409 39.0114 50.8435 38.7811 50.9788 38.5388C51.1135 38.297 51.1793 38.0615 51.1756 37.8312C51.1715 37.602 51.0952 37.3963 50.9469 37.2151C50.8086 37.0459 50.6425 36.9446 50.4493 36.9111C50.2555 36.8767 50.031 36.8976 49.7757 36.9717C49.5187 37.0464 49.2274 37.1628 48.8984 37.3211L47.9109 37.7858C47.1506 38.1514 46.4525 38.32 45.8164 38.2929C45.1804 38.2652 44.6363 37.9728 44.1836 37.4151C43.8086 36.9608 43.6039 36.4637 43.5715 35.9216C43.5392 35.3796 43.6598 34.837 43.935 34.2929C44.2091 33.7488 44.6212 33.2527 45.1695 32.8036C45.7277 32.3462 46.2942 32.0433 46.8676 31.8919C47.4415 31.741 47.9846 31.7405 48.4958 31.8903C49.007 32.0407 49.4498 32.3363 49.8237 32.7786L48.2995 34.0266Z" fill="#00395C"/>
<path d="M58.0774 35.728C57.4503 36.14 56.8273 36.3667 56.2085 36.4069C55.5902 36.4476 55.0049 36.3134 54.4529 36.0032C53.9015 35.6936 53.4148 35.2168 52.9924 34.5745C52.5809 33.9474 52.3412 33.3176 52.2743 32.6842C52.2065 32.0508 52.3078 31.456 52.5767 30.8999C52.8467 30.3448 53.2801 29.8712 53.878 29.4785C54.2801 29.2148 54.6973 29.0325 55.1297 28.9323C55.5615 28.8325 55.9923 28.8252 56.421 28.9103C56.8503 28.996 57.2649 29.185 57.6644 29.4764C58.0644 29.7693 58.4346 30.174 58.7756 30.6931L59.08 31.1568L53.9328 34.5359L53.2451 33.4889L56.8007 31.1542C56.6414 30.9114 56.4466 30.7302 56.2179 30.6111C55.9882 30.4931 55.7453 30.4414 55.4884 30.4571C55.2315 30.4722 54.9803 30.5604 54.7339 30.7223C54.4775 30.8905 54.2895 31.0988 54.1694 31.3458C54.0498 31.5923 53.9991 31.8513 54.0169 32.1213C54.0352 32.3918 54.1224 32.6476 54.278 32.8899L54.9318 33.8863C55.1292 34.1876 55.3569 34.4116 55.6133 34.5573C55.8702 34.703 56.1407 34.7672 56.4253 34.7515C56.7093 34.7353 56.9939 34.634 57.2769 34.4476C57.4649 34.3244 57.6195 34.1855 57.7401 34.0299C57.8618 33.8742 57.9433 33.7077 57.985 33.5286C58.0263 33.35 58.0263 33.1646 57.9835 32.973L59.6148 32.0497C59.7824 32.4779 59.8351 32.9113 59.774 33.3505C59.7119 33.7912 59.5396 34.2147 59.2566 34.622C58.973 35.0293 58.5803 35.3985 58.0774 35.728Z" fill="#00395C"/>
<path d="M64.7244 31.8394C64.0617 32.1851 63.4194 32.3413 62.7965 32.3073C62.174 32.2734 61.6054 32.0718 61.0884 31.7021C60.5725 31.3319 60.1438 30.8207 59.8028 30.1669C59.4576 29.5042 59.2816 28.8567 59.2774 28.2212C59.2727 27.5868 59.4336 27.0045 59.7605 26.4756C60.0874 25.9461 60.5777 25.5105 61.2315 25.1696C61.7954 24.8745 62.3427 24.7189 62.8738 24.7038C63.4043 24.6871 63.8894 24.7993 64.3296 25.0411C64.7693 25.2829 65.1333 25.6463 65.4184 26.1325L63.727 27.0155C63.5103 26.7184 63.2492 26.5231 62.9432 26.4312C62.6361 26.3398 62.3187 26.3795 61.9902 26.5513C61.7124 26.6964 61.5098 26.8975 61.3818 27.1554C61.2544 27.4124 61.2074 27.7147 61.2414 28.0609C61.2758 28.4077 61.3991 28.7836 61.6121 29.1909C61.8267 29.6024 62.0669 29.9241 62.3312 30.1533C62.5959 30.3831 62.8711 30.5199 63.1583 30.5627C63.4445 30.6061 63.727 30.5554 64.0048 30.4102C64.2095 30.3027 64.3724 30.1648 64.492 29.9951C64.6126 29.8249 64.6841 29.6317 64.7082 29.4139C64.7322 29.1956 64.7014 28.9648 64.6163 28.7199L66.3082 27.8369C66.5379 28.345 66.6309 28.8494 66.5865 29.3492C66.5421 29.8489 66.364 30.3136 66.0528 30.7439C65.7421 31.1742 65.2993 31.5392 64.7244 31.8394Z" fill="#00395C"/>
<path d="M71.7132 25.1522L70.1654 21.2619L72.0437 20.5146L74.7398 27.289L72.9362 28.007L72.4463 26.7762L72.3753 26.8044C72.3806 27.2629 72.2537 27.6827 71.9957 28.0644C71.7367 28.4467 71.3539 28.7391 70.8453 28.9412C70.3921 29.1213 69.9524 29.1772 69.5268 29.1083C69.1007 29.0388 68.7158 28.8529 68.3722 28.5511C68.0286 28.2482 67.7503 27.8326 67.5367 27.3047L65.8203 22.9909L67.6991 22.2431L69.2824 26.2211C69.4448 26.6206 69.6777 26.8937 69.9821 27.042C70.2855 27.1903 70.6156 27.1934 70.9722 27.0519C71.1978 26.9611 71.3889 26.8248 71.5445 26.642C71.7001 26.4597 71.7978 26.2404 71.838 25.9866C71.8777 25.7318 71.8364 25.454 71.7132 25.1522Z" fill="#00395C"/>
<path d="M76.1007 26.8842L74.0078 19.899L75.8856 19.3366L76.2511 20.5553L76.3232 20.5334C76.3211 20.0619 76.436 19.6697 76.6699 19.3564C76.9028 19.0441 77.2151 18.829 77.6062 18.712C77.7033 18.6828 77.8099 18.6577 77.9258 18.6363C78.0407 18.6144 78.1451 18.6018 78.236 18.5977L78.7508 20.3162C78.6521 20.3167 78.5185 20.3297 78.3519 20.3569C78.1853 20.384 78.0344 20.4175 77.9012 20.4577C77.6161 20.5423 77.3806 20.6801 77.1947 20.8697C77.0088 21.0587 76.884 21.2822 76.8208 21.5391C76.7576 21.7961 76.7681 22.0671 76.8537 22.3522L78.0381 26.3036L76.1007 26.8842Z" fill="#00395C"/>
<path d="M80.3071 17.1764C80.0147 17.2459 79.7406 17.2083 79.4857 17.0642C79.2299 16.9195 79.0701 16.7112 79.0043 16.437C78.9395 16.1629 78.9881 15.9028 79.1515 15.6574C79.3139 15.4125 79.54 15.2553 79.8293 15.1864C80.1254 15.1169 80.4001 15.1535 80.6544 15.2981C80.9082 15.4433 81.0674 15.6527 81.1327 15.9258C81.1975 16.2005 81.1494 16.46 80.9881 16.7049C80.8267 16.9493 80.6001 17.107 80.3071 17.1764ZM81.2173 25.4207L79.5317 18.3268L81.4988 17.8595L83.1844 24.9534L81.2173 25.4207Z" fill="#00395C"/>
<path d="M87.162 16.7688L87.4294 18.2638L83.1072 19.0387L82.8398 17.5426L87.162 16.7688ZM83.513 15.6482L85.5035 15.2915L86.702 21.9823C86.7349 22.1661 86.7881 22.304 86.8628 22.3953C86.9369 22.4867 87.0283 22.5431 87.1364 22.5656C87.2445 22.588 87.3662 22.587 87.5004 22.563C87.5939 22.5462 87.6852 22.5212 87.7761 22.4878C87.8664 22.4533 87.9353 22.4277 87.9839 22.4094L88.5625 23.8345C88.468 23.883 88.3343 23.9452 88.1615 24.0199C87.9881 24.094 87.7735 24.1593 87.5166 24.2141C87.0393 24.3191 86.6085 24.3305 86.2226 24.248C85.8367 24.1666 85.5161 23.989 85.2618 23.7165C85.0069 23.4439 84.8393 23.0716 84.7584 22.6005L83.513 15.6482Z" fill="#00395C"/>
<path d="M91.059 26.3427C90.8031 26.3673 90.5629 26.3699 90.3368 26.3516C90.1112 26.3328 89.9232 26.303 89.7728 26.2597L90.0835 24.7088C90.4496 24.7856 90.753 24.7866 90.9916 24.7109C91.2308 24.6357 91.4057 24.4273 91.5164 24.0864L91.6057 23.7683L88.293 16.5486L90.4104 16.3476L92.4188 21.5355L92.4945 21.5282L93.506 16.0536L95.6381 15.8604L93.5791 24.1626C93.4809 24.5626 93.329 24.9187 93.1248 25.2284C92.9211 25.5386 92.6496 25.7903 92.3117 25.9835C91.9739 26.1751 91.5561 26.2952 91.059 26.3427Z" fill="#00395C"/>
<path d="M100.786 13.2378L103.315 13.4138L105.534 20.115L105.647 20.1234L108.771 13.7919L111.3 13.9678L110.627 23.6664L108.637 23.5285L109.076 17.2158L108.996 17.2106L106.051 23.3014L104.695 23.2074L102.622 16.7438L102.542 16.738L102.102 23.0753L100.113 22.9369L100.786 13.2378Z" fill="#00395C"/>
<path d="M113.994 24.5208C113.537 24.4305 113.145 24.2702 112.82 24.0404C112.495 23.8096 112.26 23.5172 112.116 23.1605C111.972 22.8049 111.946 22.3908 112.039 21.9188C112.118 21.5214 112.256 21.2023 112.456 20.9606C112.655 20.7198 112.896 20.5412 113.181 20.4264C113.464 20.312 113.776 20.2441 114.113 20.2237C114.451 20.2029 114.801 20.2107 115.161 20.2467C115.586 20.2854 115.929 20.3099 116.191 20.3214C116.454 20.3329 116.65 20.3115 116.78 20.2561C116.91 20.2013 116.991 20.0974 117.021 19.9454L117.026 19.9177C117.084 19.6227 117.037 19.3762 116.884 19.1783C116.731 18.9804 116.485 18.8483 116.146 18.7815C115.79 18.711 115.491 18.7334 115.248 18.8478C115.006 18.9632 114.828 19.1324 114.713 19.3548L112.907 18.8436C113.086 18.4269 113.344 18.0875 113.68 17.8227C114.015 17.5585 114.418 17.3825 114.884 17.2958C115.352 17.2092 115.871 17.2222 116.443 17.334C116.839 17.4128 117.212 17.535 117.558 17.7C117.904 17.8656 118.201 18.0734 118.446 18.3251C118.692 18.5763 118.866 18.8718 118.97 19.2102C119.075 19.5486 119.085 19.9303 119.001 20.3559L118.048 25.1809L116.167 24.8096L116.363 23.8175L116.307 23.806C116.148 24.007 115.955 24.1736 115.73 24.3047C115.504 24.4357 115.247 24.5224 114.958 24.5637C114.669 24.6049 114.348 24.5908 113.994 24.5208ZM114.832 23.2634C115.123 23.3208 115.393 23.3135 115.639 23.2414C115.886 23.1694 116.093 23.0461 116.259 22.8723C116.426 22.6994 116.533 22.4864 116.584 22.2347L116.733 21.4759C116.663 21.5041 116.571 21.524 116.458 21.5355C116.344 21.547 116.217 21.5527 116.079 21.5522C115.941 21.5527 115.802 21.5496 115.665 21.5438C115.527 21.537 115.403 21.5313 115.291 21.525C115.051 21.5135 114.837 21.5276 114.649 21.5679C114.46 21.6075 114.306 21.6812 114.185 21.7882C114.063 21.8953 113.984 22.042 113.947 22.2274C113.894 22.4984 113.952 22.7229 114.121 22.9031C114.291 23.0838 114.528 23.2033 114.832 23.2634Z" fill="#00395C"/>
<path d="M122.506 22.0546L121.274 26.0858L119.34 25.4947L121.472 18.522L123.315 19.0849L122.939 20.3152L123.021 20.3402C123.299 19.982 123.657 19.7397 124.092 19.6133C124.528 19.487 125.005 19.5026 125.522 19.6614C126.007 19.8092 126.396 20.0436 126.691 20.3663C126.986 20.688 127.175 21.0749 127.255 21.5287C127.334 21.9815 127.291 22.4791 127.126 23.0206L125.768 27.4608L123.834 26.8686L125.087 22.7736C125.22 22.3486 125.213 21.9815 125.066 21.6734C124.918 21.3653 124.651 21.1517 124.264 21.0332C124.003 20.9533 123.757 20.9392 123.524 20.9909C123.292 21.0426 123.088 21.158 122.912 21.3376C122.736 21.5167 122.601 21.7559 122.506 22.0546Z" fill="#00395C"/>
<path d="M128.904 28.8663C128.475 28.6862 128.124 28.4496 127.852 28.1588C127.58 27.8674 127.41 27.5327 127.341 27.1546C127.271 26.7771 127.33 26.3666 127.517 25.9228C127.675 25.5499 127.875 25.2653 128.119 25.0695C128.363 24.8726 128.635 24.7478 128.936 24.693C129.238 24.6377 129.556 24.634 129.892 24.6831C130.226 24.7311 130.567 24.81 130.913 24.9175C131.321 25.0413 131.652 25.1353 131.907 25.1995C132.161 25.2643 132.358 25.2826 132.497 25.2549C132.636 25.2277 132.734 25.1426 132.794 24.9995L132.806 24.9734C132.922 24.6961 132.926 24.4455 132.816 24.2204C132.707 23.9954 132.493 23.8163 132.175 23.6826C131.84 23.5411 131.542 23.5024 131.282 23.5661C131.022 23.6293 130.812 23.7588 130.654 23.9536L128.99 23.0873C129.25 22.7165 129.57 22.4351 129.954 22.2439C130.336 22.0533 130.765 21.9625 131.239 21.9724C131.715 21.9813 132.221 22.0993 132.757 22.3259C133.13 22.4831 133.47 22.6774 133.776 22.9097C134.082 23.1411 134.33 23.4058 134.519 23.7019C134.708 23.998 134.82 24.3217 134.853 24.6742C134.887 25.0267 134.819 25.4027 134.651 25.8027L132.741 30.3347L130.974 29.5896L131.367 28.658L131.314 28.6355C131.118 28.8 130.896 28.9238 130.648 29.0068C130.4 29.0893 130.13 29.1222 129.839 29.1045C129.548 29.0862 129.237 29.0073 128.904 28.8663ZM129.979 27.8053C130.253 27.9212 130.518 27.9682 130.775 27.9478C131.031 27.9264 131.258 27.8481 131.456 27.7123C131.654 27.5755 131.803 27.3896 131.903 27.153L132.203 26.4403C132.129 26.4538 132.035 26.4544 131.921 26.4424C131.808 26.4309 131.683 26.4105 131.548 26.3828C131.412 26.3546 131.277 26.3238 131.143 26.2894C131.011 26.2554 130.889 26.2246 130.781 26.1964C130.549 26.1358 130.336 26.1066 130.144 26.1076C129.951 26.1087 129.785 26.1494 129.644 26.2298C129.504 26.3097 129.397 26.4377 129.323 26.6121C129.216 26.8658 129.228 27.0977 129.356 27.3086C129.486 27.5196 129.694 27.6846 129.979 27.8053Z" fill="#00395C"/>
<path d="M135.459 34.9756C134.884 34.6602 134.435 34.3124 134.111 33.9322C133.787 33.5526 133.576 33.1646 133.479 32.7683C133.383 32.3725 133.387 31.9939 133.491 31.632L135.252 32.3114C135.238 32.4555 135.256 32.6095 135.308 32.7724C135.359 32.9359 135.456 33.1004 135.598 33.2654C135.74 33.4293 135.941 33.5829 136.198 33.7249C136.584 33.9364 136.953 34.0194 137.304 33.974C137.656 33.9286 137.947 33.6967 138.177 33.2779L138.819 32.1082L138.744 32.0675C138.568 32.2028 138.36 32.3061 138.118 32.3782C137.875 32.4513 137.605 32.4712 137.306 32.4372C137.007 32.4028 136.688 32.2931 136.349 32.1072C135.87 31.8435 135.495 31.4926 135.225 31.0539C134.955 30.6148 134.831 30.1009 134.852 29.5114C134.874 28.9234 135.079 28.2748 135.467 27.5673C135.865 26.8425 136.315 26.3026 136.817 25.9469C137.32 25.5913 137.833 25.3997 138.359 25.3736C138.884 25.348 139.38 25.4639 139.849 25.7214C140.207 25.9177 140.474 26.1422 140.649 26.3955C140.824 26.6482 140.937 26.9052 140.987 27.1657C141.037 27.4263 141.055 27.6644 141.041 27.8806L141.108 27.9177L141.697 26.8435L143.457 27.8096L139.914 34.2643C139.622 34.7964 139.245 35.1693 138.781 35.3828C138.318 35.5964 137.8 35.6648 137.23 35.5907C136.659 35.5155 136.068 35.3098 135.459 34.9756ZM137.643 31.0842C137.928 31.2409 138.209 31.302 138.486 31.268C138.763 31.2341 139.028 31.1124 139.283 30.9035C139.535 30.6947 139.765 30.4022 139.971 30.0278C140.177 29.6534 140.302 29.2989 140.348 28.9652C140.394 28.6315 140.36 28.3328 140.244 28.0712C140.128 27.8091 139.927 27.5986 139.641 27.4425C139.349 27.2827 139.061 27.2263 138.775 27.2733C138.49 27.3208 138.219 27.455 137.965 27.6754C137.709 27.8973 137.482 28.1892 137.283 28.5522C137.08 28.9219 136.957 29.2686 136.914 29.5934C136.871 29.9182 136.909 30.2075 137.028 30.4623C137.146 30.7166 137.351 30.9239 137.643 31.0842Z" fill="#00395C"/>
<path d="M143.762 36.9372C143.145 36.5101 142.702 36.0176 142.432 35.4589C142.162 34.9007 142.069 34.308 142.148 33.6803C142.229 33.0526 142.489 32.4229 142.926 31.7905C143.354 31.1743 143.848 30.7164 144.41 30.4167C144.972 30.1159 145.56 29.9864 146.177 30.0281C146.793 30.0704 147.395 30.295 147.983 30.7018C148.378 30.9759 148.703 31.2939 148.958 31.6579C149.213 32.0208 149.381 32.4172 149.462 32.8474C149.544 33.2772 149.524 33.732 149.403 34.2124C149.282 34.6923 149.045 35.1873 148.691 35.6975L148.375 36.1539L143.314 32.648L144.028 31.6177L147.525 34.0401C147.69 33.801 147.785 33.5529 147.808 33.296C147.833 33.0391 147.789 32.7942 147.679 32.5618C147.569 32.3294 147.393 32.13 147.15 31.9623C146.898 31.7869 146.635 31.6908 146.361 31.672C146.087 31.6537 145.828 31.7033 145.584 31.8213C145.341 31.9399 145.136 32.1169 144.969 32.3508L144.291 33.3305C144.086 33.6276 143.964 33.9216 143.924 34.2145C143.885 34.5069 143.927 34.7821 144.049 35.0396C144.17 35.297 144.37 35.5221 144.649 35.7153C144.834 35.8432 145.02 35.9346 145.211 35.9884C145.4 36.0427 145.585 36.0557 145.767 36.0275C145.948 35.9988 146.12 35.9294 146.282 35.8181L147.748 36.9842C147.415 37.3001 147.032 37.5116 146.602 37.6197C146.171 37.7267 145.714 37.7257 145.229 37.616C144.745 37.5064 144.256 37.2798 143.762 36.9372Z" fill="#00395C"/>
<path d="M147.473 39.2802L152.351 33.8599L153.783 35.1491L152.922 36.1058L152.986 36.1627C153.385 35.9465 153.798 35.8651 154.227 35.9188C154.655 35.9732 155.054 36.1648 155.421 36.4953C155.792 36.8295 156.026 37.2066 156.12 37.6259C156.215 38.0462 156.164 38.4525 155.968 38.8462L156.025 38.8969C156.415 38.6859 156.839 38.618 157.297 38.6922C157.756 38.7669 158.184 38.9825 158.582 39.3402C159.088 39.7961 159.354 40.3261 159.381 40.9318C159.409 41.5376 159.159 42.1344 158.628 42.7229L155.348 46.3678L153.849 45.0185L156.863 41.6697C157.134 41.3689 157.257 41.0707 157.232 40.7762C157.208 40.4817 157.076 40.2269 156.835 40.0107C156.563 39.7648 156.272 39.6603 155.963 39.6948C155.655 39.7303 155.374 39.889 155.12 40.1716L152.14 43.4807L150.684 42.17L153.726 38.7893C153.965 38.523 154.08 38.2436 154.07 37.9497C154.06 37.6551 153.932 37.3972 153.685 37.1747C153.518 37.0243 153.33 36.9309 153.122 36.8943C152.914 36.8588 152.704 36.8802 152.492 36.9601C152.28 37.0395 152.084 37.18 151.904 37.3789L148.976 40.6327L147.473 39.2802Z" fill="#00395C"/>
<path d="M158.235 50.0126C157.745 49.4445 157.44 48.856 157.319 48.2482C157.198 47.6393 157.256 47.0419 157.491 46.4545C157.727 45.867 158.136 45.3223 158.718 44.8205C159.286 44.3312 159.88 44.0122 160.499 43.8623C161.119 43.7135 161.721 43.7365 162.307 43.9312C162.893 44.126 163.42 44.4947 163.886 45.0362C164.2 45.4012 164.435 45.7907 164.59 46.2059C164.745 46.6215 164.809 47.0482 164.779 47.4842C164.751 47.9207 164.617 48.3557 164.379 48.7907C164.142 49.2257 163.788 49.6455 163.318 50.0502L162.897 50.4126L158.879 45.7484L159.828 44.9302L162.604 48.1521C162.825 47.9625 162.979 47.7458 163.067 47.5035C163.154 47.2607 163.174 47.0137 163.126 46.7604C163.076 46.5082 162.956 46.2701 162.764 46.0471C162.564 45.8148 162.333 45.6544 162.073 45.5683C161.812 45.4816 161.549 45.4649 161.283 45.5182C161.019 45.5714 160.775 45.6905 160.555 45.8764L159.653 46.6539C159.379 46.8894 159.187 47.1437 159.076 47.4174C158.965 47.6905 158.936 47.9677 158.989 48.2476C159.042 48.5275 159.179 48.7954 159.401 49.0523C159.546 49.222 159.705 49.3578 159.875 49.4576C160.045 49.5578 160.221 49.6173 160.404 49.6351C160.586 49.6534 160.77 49.6288 160.955 49.5615L162.082 51.0586C161.68 51.2805 161.256 51.3886 160.813 51.3849C160.369 51.3813 159.926 51.2659 159.485 51.0372C159.045 50.8095 158.628 50.4675 158.235 50.0126Z" fill="#00395C"/>
<path d="M165.798 52.554L162.34 54.9649L161.184 53.3065L167.164 49.1353L168.267 50.7159L167.212 51.4522L167.261 51.5222C167.701 51.412 168.131 51.4412 168.552 51.6109C168.974 51.7801 169.339 52.0872 169.648 52.5305C169.938 52.9456 170.099 53.3712 170.133 53.8078C170.167 54.2428 170.075 54.6636 169.859 55.0689C169.642 55.4751 169.302 55.8396 168.837 56.1639L165.028 58.8197L163.872 57.1608L167.384 54.7122C167.752 54.4584 167.973 54.166 168.047 53.8323C168.121 53.4992 168.043 53.1665 167.811 52.8334C167.655 52.6109 167.47 52.4475 167.256 52.3446C167.04 52.2417 166.809 52.2062 166.56 52.2391C166.311 52.272 166.057 52.377 165.798 52.554Z" fill="#00395C"/>
<path d="M173.794 55.937L174.805 57.6879L168.919 61.0879C168.757 61.1819 168.647 61.279 168.586 61.3798C168.525 61.48 168.503 61.5855 168.518 61.6952C168.534 61.8048 168.577 61.9187 168.645 62.0362C168.692 62.1182 168.747 62.1965 168.809 62.2701C168.872 62.3437 168.92 62.3996 168.954 62.4388L167.81 63.4669C167.731 63.3949 167.628 63.2905 167.5 63.1526C167.371 63.0158 167.236 62.8351 167.096 62.6121C166.837 62.2001 166.679 61.798 166.625 61.4069C166.571 61.0163 166.629 60.655 166.799 60.3223C166.969 59.9908 167.261 59.7072 167.677 59.4701L173.794 55.937ZM173.979 59.7495L172.663 60.5098L170.467 56.7073L171.782 55.9475L173.979 59.7495Z" fill="#00395C"/>
<path d="M178.018 69.2715C178.356 69.0888 178.568 68.8235 178.652 68.4757C178.736 68.1285 178.683 67.7269 178.493 67.2716C178.363 66.9619 178.211 66.7191 178.035 66.5415C177.859 66.3645 177.673 66.2517 177.475 66.2032C177.275 66.1541 177.08 66.1703 176.887 66.2502C176.724 66.3118 176.598 66.4047 176.51 66.5295C176.421 66.6538 176.361 66.8 176.33 66.9677C176.299 67.1348 176.288 67.3175 176.297 67.5159C176.307 67.7149 176.331 67.9212 176.369 68.1347L176.513 69.0214C176.589 69.4491 176.622 69.8574 176.614 70.2454C176.605 70.6329 176.544 70.9921 176.431 71.3201C176.318 71.6485 176.145 71.9399 175.911 72.1937C175.678 72.448 175.374 72.6543 175.003 72.8135C174.453 73.0407 173.919 73.1002 173.402 72.9921C172.885 72.884 172.408 72.6172 171.971 72.1916C171.533 71.7655 171.162 71.188 170.857 70.4574C170.553 69.7332 170.401 69.0575 170.398 68.4287C170.396 67.8005 170.55 67.2454 170.861 66.7629C171.173 66.281 171.648 65.8982 172.287 65.6131L173.055 67.4481C172.763 67.5943 172.549 67.7859 172.413 68.0235C172.277 68.2595 172.213 68.529 172.22 68.8292C172.228 69.13 172.3 69.4433 172.437 69.7707C172.572 70.0919 172.735 70.3514 172.928 70.5504C173.122 70.7493 173.328 70.8799 173.55 70.9415C173.771 71.0026 173.99 70.9885 174.206 70.8982C174.407 70.8141 174.551 70.6841 174.64 70.5076C174.727 70.3326 174.772 70.1112 174.774 69.8449C174.775 69.5781 174.747 69.2653 174.689 68.905L174.525 67.8256C174.393 66.9927 174.43 66.2752 174.638 65.6737C174.846 65.0721 175.282 64.634 175.946 64.3593C176.488 64.129 177.023 64.0753 177.552 64.199C178.08 64.3228 178.565 64.5943 179.008 65.0126C179.451 65.4309 179.81 65.9672 180.083 66.6209C180.362 67.2867 180.491 67.916 180.472 68.5097C180.453 69.1019 180.298 69.622 180.009 70.07C179.718 70.517 179.309 70.8564 178.779 71.0888L178.018 69.2715Z" fill="#00395C"/>
<path d="M170.524 76.9033C170.45 76.6579 170.4 76.4224 170.374 76.1978C170.348 75.9728 170.341 75.7822 170.354 75.6266L171.935 75.6281C171.932 76.0025 171.991 76.3002 172.111 76.5195C172.232 76.7398 172.47 76.8709 172.826 76.9122L173.155 76.9372L179.59 72.2788L180.2 74.3159L175.504 77.2991L175.526 77.3722L181.092 77.2939L181.698 79.3477L173.154 78.9503C172.743 78.9315 172.364 78.8526 172.02 78.7122C171.676 78.5727 171.376 78.3566 171.122 78.0626C170.866 77.7691 170.667 77.3821 170.524 76.9033Z" fill="#00395C"/>
<path d="M181.168 87.1855L180.7 85.3913C180.85 85.3297 180.977 85.2352 181.082 85.1083C181.188 84.9809 181.263 84.8274 181.306 84.6462C181.35 84.4644 181.349 84.2592 181.304 84.0295C181.244 83.7219 181.128 83.4749 180.958 83.2895C180.788 83.1036 180.596 83.0316 180.381 83.0733C180.21 83.1073 180.08 83.2039 179.988 83.3637C179.897 83.5229 179.848 83.7757 179.842 84.1224L179.835 85.4686C179.829 86.1929 179.7 86.7563 179.451 87.1594C179.2 87.5631 178.818 87.8158 178.302 87.9171C177.834 88.009 177.395 87.9521 176.987 87.7469C176.58 87.5412 176.23 87.2195 175.939 86.7819C175.649 86.3433 175.442 85.8138 175.321 85.1923C175.135 84.2451 175.185 83.4529 175.471 82.8148C175.758 82.1767 176.232 81.7423 176.897 81.512L177.382 83.4435C177.104 83.5595 176.913 83.7448 176.807 84.0018C176.701 84.2576 176.682 84.5631 176.752 84.9172C176.82 85.2644 176.942 85.5318 177.119 85.7182C177.296 85.9041 177.492 85.9777 177.707 85.9391C177.887 85.9005 178.019 85.796 178.107 85.6237C178.194 85.4519 178.238 85.2049 178.24 84.8817L178.243 83.5945C178.246 82.8681 178.387 82.301 178.665 81.8932C178.943 81.4859 179.349 81.2295 179.883 81.1245C180.343 81.0352 180.763 81.0817 181.145 81.2671C181.526 81.4519 181.852 81.7543 182.121 82.1741C182.39 82.5934 182.584 83.1093 182.704 83.7208C182.882 84.6247 182.83 85.3741 182.55 85.9694C182.27 86.5641 181.809 86.9699 181.168 87.1855Z" fill="#00395C"/>
<path d="M185.223 88.9085L185.45 90.9178L178.696 91.6839C178.51 91.7053 178.37 91.7497 178.274 91.8176C178.178 91.886 178.116 91.9737 178.086 92.0802C178.057 92.1873 178.05 92.3079 178.065 92.4432C178.077 92.5377 178.095 92.6306 178.124 92.7236C178.152 92.816 178.173 92.887 178.188 92.9356L176.729 93.4212C176.686 93.3246 176.633 93.1873 176.57 93.0092C176.506 92.8322 176.455 92.6134 176.417 92.3533C176.342 91.8708 176.359 91.44 176.466 91.0604C176.573 90.6808 176.77 90.3716 177.058 90.1356C177.347 89.8991 177.728 89.7549 178.203 89.7043L185.223 88.9085ZM183.869 92.4781L182.36 92.6489L181.865 88.2855L183.374 88.1147L183.869 92.4781Z" fill="#00395C"/>
<path d="M176.706 97.6596C176.682 96.9103 176.815 96.2607 177.104 95.7124C177.392 95.1631 177.812 94.7343 178.365 94.4268C178.918 94.1176 179.579 93.9516 180.346 93.9281C181.097 93.9046 181.759 94.0299 182.334 94.3035C182.909 94.5772 183.364 94.9735 183.696 95.4936C184.029 96.0137 184.206 96.6314 184.228 97.3458C184.244 97.8267 184.18 98.2779 184.04 98.6983C183.9 99.1192 183.681 99.4899 183.384 99.811C183.086 100.132 182.709 100.387 182.25 100.576C181.792 100.764 181.254 100.867 180.633 100.886L180.078 100.904L179.888 94.7495L181.141 94.7109L181.272 98.9625C181.563 98.9536 181.819 98.8821 182.04 98.7484C182.261 98.6147 182.431 98.4351 182.553 98.2079C182.674 97.9813 182.73 97.7202 182.721 97.4262C182.711 97.1197 182.633 96.8503 182.484 96.6189C182.337 96.3871 182.142 96.209 181.902 96.0837C181.663 95.9578 181.399 95.8978 181.111 95.904L179.92 95.9406C179.56 95.9521 179.25 96.0288 178.991 96.1714C178.733 96.3134 178.537 96.5108 178.402 96.7615C178.267 97.0132 178.205 97.3077 178.215 97.6466C178.222 97.8706 178.26 98.0753 178.33 98.2607C178.399 98.4445 178.498 98.6017 178.629 98.7307C178.76 98.8596 178.918 98.9557 179.103 99.0194L179.038 100.894C178.586 100.812 178.189 100.631 177.846 100.348C177.503 100.066 177.232 99.6977 177.033 99.2435C176.833 98.7886 176.725 98.2612 176.706 97.6596Z" fill="#00395C"/>
<path d="M177.032 102.045L184.291 102.734L184.109 104.653L182.829 104.532L182.821 104.617C183.231 104.808 183.543 105.092 183.755 105.468C183.967 105.844 184.05 106.278 184.004 106.77C183.956 107.268 183.793 107.68 183.512 108.006C183.231 108.333 182.875 108.534 182.441 108.61L182.434 108.686C182.836 108.874 183.143 109.173 183.358 109.586C183.571 109.999 183.653 110.472 183.602 111.005C183.538 111.681 183.27 112.212 182.8 112.595C182.329 112.978 181.701 113.131 180.913 113.057L176.031 112.594L176.222 110.585L180.707 111.01C181.11 111.048 181.423 110.971 181.645 110.775C181.866 110.58 181.993 110.323 182.023 110C182.058 109.635 181.969 109.339 181.757 109.112C181.545 108.886 181.251 108.755 180.871 108.719L176.439 108.298L176.624 106.346L181.152 106.775C181.508 106.809 181.801 106.734 182.031 106.552C182.261 106.369 182.393 106.112 182.424 105.781C182.445 105.557 182.408 105.351 182.313 105.162C182.219 104.974 182.076 104.818 181.886 104.694C181.695 104.572 181.467 104.498 181.199 104.473L176.842 104.058L177.032 102.045Z" fill="#00395C"/>
<path d="M80.7079 176.601L78.7225 175.983C78.7664 175.715 78.7638 175.463 78.7147 175.227C78.6651 174.991 78.5753 174.775 78.4442 174.578C78.3131 174.382 78.1455 174.21 77.9408 174.063C77.7361 173.917 77.5011 173.802 77.2348 173.719C76.7549 173.57 76.2996 173.558 75.8693 173.684C75.4385 173.81 75.0547 174.069 74.7174 174.459C74.3805 174.849 74.1116 175.366 73.9111 176.01C73.7048 176.672 73.6307 177.258 73.6881 177.77C73.7461 178.283 73.9168 178.708 74.202 179.049C74.4871 179.39 74.8636 179.633 75.332 179.779C75.5952 179.861 75.8495 179.902 76.0959 179.903C76.3429 179.904 76.5753 179.864 76.7925 179.784C77.0092 179.705 77.2061 179.586 77.3831 179.429C77.5591 179.272 77.709 179.076 77.8317 178.843L79.8139 179.47C79.6301 179.881 79.3742 180.251 79.0474 180.581C78.7205 180.912 78.3372 181.179 77.898 181.382C77.4583 181.585 76.9748 181.702 76.4453 181.735C75.9163 181.767 75.355 181.691 74.7591 181.505C73.9315 181.247 73.25 180.829 72.7158 180.252C72.1816 179.675 71.8365 178.972 71.6819 178.145C71.5273 177.318 71.6072 176.399 71.9216 175.39C72.2365 174.378 72.6955 173.576 73.2976 172.985C73.8996 172.393 74.5847 172.013 75.3534 171.843C76.1226 171.673 76.9153 171.715 77.7309 171.969C78.2688 172.137 78.7445 172.368 79.1581 172.663C79.5716 172.958 79.9121 173.305 80.1784 173.705C80.4453 174.104 80.6259 174.547 80.721 175.034C80.8165 175.522 80.8118 176.044 80.7079 176.601Z" fill="#00395C"/>
<path d="M84.137 183.839C83.3996 183.699 82.7944 183.429 82.3213 183.029C81.8482 182.628 81.5208 182.124 81.3396 181.518C81.1579 180.912 81.1391 180.231 81.2827 179.475C81.4221 178.739 81.6879 178.119 82.0801 177.617C82.4712 177.115 82.9574 176.757 83.537 176.545C84.1166 176.333 84.7579 176.293 85.4607 176.427C85.9333 176.517 86.3599 176.676 86.7401 176.904C87.1202 177.132 87.4346 177.426 87.6837 177.786C87.9328 178.146 88.0999 178.569 88.1845 179.058C88.2691 179.546 88.2534 180.095 88.138 180.704L88.0341 181.249L81.985 180.102L82.219 178.87L86.3975 179.663C86.4518 179.377 86.4377 179.112 86.3552 178.868C86.2732 178.623 86.1338 178.417 85.9385 178.25C85.7432 178.083 85.5014 177.971 85.2121 177.916C84.9103 177.859 84.6304 177.877 84.373 177.972C84.1145 178.066 83.8988 178.217 83.7239 178.424C83.5495 178.631 83.4341 178.875 83.3772 179.158L83.1547 180.329C83.0879 180.683 83.0957 181.002 83.1788 181.285C83.2618 181.568 83.4116 181.803 83.6278 181.989C83.8435 182.175 84.1182 182.299 84.4508 182.362C84.6712 182.404 84.879 182.411 85.0743 182.384C85.2701 182.356 85.4445 182.293 85.5986 182.193C85.7526 182.094 85.8816 181.96 85.984 181.793L87.7985 182.263C87.6215 182.687 87.3578 183.036 87.008 183.309C86.6586 183.582 86.2398 183.767 85.7531 183.863C85.2659 183.959 84.727 183.951 84.137 183.839Z" fill="#00395C"/>
<path d="M89.2813 184.523L90.0254 177.27L91.9758 177.47L91.8457 178.735L91.9215 178.743C92.1 178.306 92.357 177.989 92.6922 177.789C93.028 177.59 93.3987 177.511 93.8045 177.553C93.9052 177.563 94.0133 177.58 94.1287 177.605C94.2436 177.629 94.3444 177.658 94.4305 177.688L94.2467 179.473C94.1554 179.436 94.0274 179.396 93.8624 179.358C93.6979 179.318 93.5465 179.291 93.4081 179.277C93.1125 179.247 92.8421 179.284 92.5971 179.388C92.3533 179.491 92.1517 179.649 91.9951 179.863C91.8379 180.075 91.7444 180.33 91.7136 180.626L91.2927 184.73L89.2813 184.523Z" fill="#00395C"/>
<path d="M99.6006 177.904L99.5531 179.422L95.1641 179.285L95.2111 177.767L99.6006 177.904ZM96.2622 176.052L98.2836 176.115L98.0716 182.91C98.0659 183.097 98.0899 183.242 98.1431 183.346C98.1975 183.451 98.2747 183.525 98.3766 183.57C98.4779 183.614 98.5964 183.638 98.7327 183.643C98.8272 183.645 98.9228 183.64 99.0178 183.626C99.1139 183.611 99.187 183.599 99.2382 183.592L99.5087 185.105C99.4069 185.134 99.2633 185.167 99.0779 185.204C98.893 185.241 98.6695 185.261 98.4069 185.262C97.9186 185.265 97.4946 185.187 97.1343 185.027C96.7729 184.867 96.4967 184.628 96.304 184.308C96.1113 183.988 96.0241 183.59 96.0419 183.112L96.2622 176.052Z" fill="#00395C"/>
<path d="M101.78 176.917C101.479 176.924 101.219 176.83 101 176.635C100.78 176.441 100.667 176.203 100.66 175.922C100.654 175.64 100.757 175.396 100.967 175.191C101.177 174.985 101.432 174.878 101.729 174.871C102.033 174.865 102.294 174.959 102.512 175.153C102.73 175.348 102.842 175.586 102.849 175.867C102.855 176.149 102.753 176.393 102.544 176.598C102.336 176.804 102.081 176.911 101.78 176.917ZM100.947 185.17L100.781 177.88L102.803 177.834L102.969 185.124L100.947 185.17Z" fill="#00395C"/>
<path d="M108.249 177.474L108.367 178.989L103.879 179.337L103.762 177.822L108.249 177.474ZM105.353 185.012L104.748 177.217C104.707 176.69 104.777 176.245 104.957 175.882C105.137 175.519 105.4 175.237 105.746 175.035C106.092 174.834 106.494 174.715 106.951 174.68C107.261 174.656 107.545 174.657 107.806 174.685C108.067 174.712 108.262 174.741 108.391 174.768L108.149 176.31C108.068 176.291 107.969 176.276 107.853 176.262C107.736 176.249 107.617 176.247 107.497 176.256C107.2 176.279 106.999 176.364 106.894 176.51C106.787 176.657 106.743 176.853 106.763 177.099L107.365 184.856L105.353 185.012Z" fill="#00395C"/>
<path d="M110.301 176.254C110.004 176.294 109.735 176.229 109.495 176.06C109.256 175.891 109.117 175.667 109.08 175.387C109.042 175.108 109.117 174.855 109.304 174.627C109.49 174.399 109.731 174.266 110.026 174.226C110.327 174.186 110.597 174.251 110.835 174.42C111.073 174.59 111.211 174.814 111.248 175.093C111.285 175.372 111.212 175.625 111.027 175.852C110.841 176.081 110.6 176.214 110.301 176.254ZM110.38 184.548L109.415 177.32L111.419 177.053L112.384 184.28L110.38 184.548Z" fill="#00395C"/>
<path d="M117.69 183.472C116.956 183.626 116.293 183.609 115.702 183.42C115.112 183.232 114.616 182.893 114.216 182.403C113.816 181.912 113.537 181.291 113.38 180.538C113.226 179.804 113.233 179.13 113.402 178.516C113.571 177.902 113.882 177.386 114.336 176.967C114.79 176.549 115.367 176.266 116.068 176.12C116.538 176.021 116.993 176.004 117.432 176.069C117.871 176.134 118.274 176.285 118.642 176.521C119.01 176.758 119.327 177.085 119.592 177.503C119.858 177.921 120.054 178.434 120.181 179.041L120.295 179.585L114.269 180.847L114.012 179.62L118.175 178.748C118.115 178.463 118 178.224 117.831 178.03C117.66 177.836 117.453 177.699 117.208 177.619C116.964 177.54 116.698 177.53 116.409 177.59C116.109 177.653 115.858 177.778 115.656 177.964C115.454 178.15 115.312 178.372 115.231 178.63C115.149 178.888 115.136 179.158 115.192 179.441L115.435 180.607C115.51 180.96 115.639 181.251 115.825 181.481C116.01 181.711 116.239 181.87 116.51 181.958C116.781 182.047 117.081 182.057 117.413 181.988C117.633 181.942 117.828 181.869 117.997 181.768C118.167 181.669 118.304 181.542 118.408 181.391C118.512 181.24 118.58 181.067 118.61 180.874L120.466 180.611C120.466 181.071 120.356 181.494 120.138 181.88C119.92 182.267 119.605 182.598 119.192 182.874C118.779 183.149 118.278 183.349 117.69 183.472Z" fill="#00395C"/>
<path d="M125.421 181.436C124.894 181.606 124.373 181.623 123.859 181.487C123.345 181.352 122.878 181.058 122.458 180.606C122.039 180.154 121.705 179.541 121.455 178.767C121.2 177.972 121.115 177.269 121.2 176.657C121.286 176.047 121.5 175.54 121.841 175.139C122.183 174.739 122.608 174.457 123.118 174.293C123.506 174.168 123.852 174.129 124.155 174.176C124.458 174.223 124.721 174.318 124.944 174.461C125.168 174.603 125.352 174.754 125.497 174.914L125.555 174.894L124.436 171.415L126.356 170.797L129.334 180.053L127.436 180.663L127.078 179.551L126.997 179.577C126.969 179.799 126.902 180.031 126.799 180.272C126.696 180.513 126.533 180.738 126.312 180.945C126.092 181.152 125.794 181.316 125.421 181.436ZM125.538 179.707C125.848 179.608 126.084 179.438 126.245 179.199C126.405 178.959 126.494 178.667 126.511 178.323C126.528 177.978 126.47 177.599 126.337 177.186C126.205 176.774 126.032 176.434 125.82 176.166C125.607 175.899 125.366 175.717 125.096 175.621C124.826 175.525 124.535 175.527 124.225 175.627C123.909 175.729 123.67 175.9 123.508 176.142C123.346 176.383 123.259 176.675 123.245 177.015C123.232 177.355 123.289 177.725 123.418 178.126C123.548 178.529 123.719 178.868 123.931 179.14C124.144 179.412 124.386 179.601 124.657 179.705C124.928 179.808 125.222 179.809 125.538 179.707Z" fill="#00395C"/>
<path d="M101.284 50.9756C102.076 51.0745 102.868 51.1703 103.66 51.2727C108.169 51.8555 112.396 53.2896 116.364 55.4962C119.517 57.2497 122.331 59.4454 124.827 62.0495C126.099 63.3769 127.257 64.7986 128.303 66.3111C128.399 66.4505 128.583 66.5935 128.487 66.7799C128.38 66.9884 128.142 66.9068 127.954 66.9297C127.399 66.9975 127.038 66.7637 126.711 66.3058C124.949 63.8397 122.835 61.7078 120.467 59.8187C120.096 59.5225 119.789 59.5111 119.405 59.7386C118.562 60.2385 117.717 60.7358 116.858 61.207C116.442 61.4354 116.426 61.641 116.742 61.9811C117.922 63.2492 118.963 64.6286 119.907 66.0783C120.058 66.309 120.45 66.5602 120.138 66.8869C119.88 67.1555 119.051 67.0235 118.811 66.7293C118.631 66.5088 118.472 66.2709 118.306 66.0389C117.394 64.7617 116.407 63.5455 115.36 62.376C115.173 62.1672 114.998 62.1344 114.751 62.2348C113.017 62.9398 111.273 63.6166 109.468 64.1221C109.145 64.2128 109.076 64.375 109.211 64.672C109.484 65.2721 109.732 65.8833 110.013 66.4799C110.166 66.8076 110.045 66.9303 109.732 66.9933C109.128 67.1151 108.868 66.9954 108.572 66.4379C108.33 65.9815 108.066 65.5355 107.847 65.0682C107.678 64.7075 107.424 64.6192 107.067 64.7025C105.433 65.0834 103.778 65.32 102.107 65.4582C101.433 65.514 100.76 65.5973 100.085 65.624C99.6703 65.6405 99.4703 65.7624 99.4701 66.215C99.4699 66.956 99.0952 67.1969 98.3769 66.9884C98.1072 66.9101 98.0693 66.7122 98.0773 66.4912C98.1114 65.5538 97.9666 65.6048 97.1063 65.5646C95.2883 65.4796 93.4855 65.29 91.6916 64.9974C91.2521 64.9257 90.8054 64.8703 90.3808 64.7442C89.8999 64.6014 89.6456 64.777 89.4654 65.2041C89.2716 65.6633 89.0539 66.1131 88.8329 66.5601C88.6274 66.9755 87.8986 67.1971 87.495 66.9861C87.2577 66.862 87.3579 66.6857 87.4246 66.5283C87.6678 65.9541 87.9074 65.3776 88.1759 64.8151C88.3547 64.4409 88.306 64.2316 87.8751 64.1114C86.1571 63.6317 84.4855 63.0122 82.8222 62.373C82.4958 62.2475 82.3028 62.317 82.0834 62.561C80.9619 63.8081 79.9154 65.1132 78.9667 66.4967C78.6274 66.9916 78.0962 67.178 77.534 67.0221C77.2078 66.9318 77.3239 66.7475 77.4318 66.5795C77.7973 66.0099 78.1466 65.427 78.5502 64.8851C79.2739 63.9139 80.0181 62.9568 80.7846 62.0192C81.0427 61.7034 80.9878 61.5525 80.665 61.3717C79.7325 60.8491 78.8035 60.3197 77.8843 59.7743C77.5551 59.579 77.3142 59.7098 77.0568 59.8944C75.5421 60.9811 74.2355 62.2935 72.9864 63.6652C72.1462 64.5877 71.3761 65.5692 70.6333 66.5722C70.3309 66.9807 69.5763 67.1803 69.1388 66.9808C68.8139 66.8327 69.0491 66.6504 69.145 66.5201C69.8102 65.6162 70.4531 64.6927 71.1682 63.8294C75.5572 58.5307 81.0446 54.8379 87.5812 52.71C90.3361 51.8131 93.164 51.2606 96.0581 51.063C96.1972 51.0535 96.3336 51.0056 96.4714 50.9756H101.284ZM98.0567 60.31C98.0226 59.5362 98.1261 58.3963 98.0033 57.2585C97.9656 56.9099 97.818 56.7773 97.4682 56.7445C96.8313 56.6847 96.199 56.5734 95.566 56.4762C95.3222 56.4388 95.1156 56.4612 94.9427 56.6695C93.3222 58.6214 91.9332 60.7287 90.7024 62.9443C90.5271 63.2599 90.6151 63.3995 90.9409 63.4562C91.712 63.5905 92.4798 63.7493 93.2547 63.8551C94.6115 64.0404 95.971 64.2073 97.3442 64.224C97.8481 64.2302 98.0883 64.059 98.0668 63.5052C98.0301 62.5628 98.0567 61.618 98.0567 60.31ZM99.4845 60.5043C99.4845 61.5544 99.5011 62.605 99.4767 63.6545C99.4662 64.1086 99.6434 64.2468 100.074 64.2209C102.153 64.0956 104.224 63.9143 106.262 63.4597C106.848 63.3291 106.866 63.3079 106.592 62.7776C105.475 60.6153 104.005 58.692 102.52 56.7794C102.347 56.5567 102.148 56.4879 101.87 56.5318C101.255 56.6288 100.638 56.7084 100.02 56.7806C99.6357 56.8255 99.4688 56.999 99.4777 57.4074C99.5002 58.4393 99.4852 59.472 99.4845 60.5043ZM105.761 55.1314C105.249 55.3599 104.736 55.6039 104.21 55.8174C103.848 55.9647 103.812 56.127 104.051 56.4411C105.531 58.3833 106.858 60.4293 108.115 62.5206C108.314 62.8523 108.51 62.9414 108.891 62.8468C110.451 62.4586 111.947 61.895 113.431 61.2855C113.869 61.1056 113.901 60.9609 113.561 60.6352C111.364 58.5269 108.937 56.7381 106.235 55.329C106.095 55.2561 105.943 55.2065 105.761 55.1314ZM88.6697 62.9187C88.9984 62.9653 89.1387 62.839 89.2454 62.6598C90.5314 60.501 91.8403 58.3573 93.3948 56.3757C93.5931 56.1228 93.5592 55.9542 93.2437 55.8021C91.768 55.0912 91.6859 55.0877 90.2656 55.9369C90.1892 55.9826 90.1116 56.0263 90.035 56.0718C87.8193 57.3873 85.8032 58.9664 83.9204 60.7189C83.5047 61.1058 83.5265 61.1881 84.0511 61.3939C84.7473 61.6672 85.4414 61.9502 86.1518 62.1822C87.0143 62.4639 87.8751 62.7588 88.6697 62.9187ZM98.4543 52.2529C97.9062 52.2064 97.0024 52.3316 96.0984 52.39C94.571 52.4889 93.0563 52.7113 91.5598 53.0418C91.4468 53.0668 91.2806 53.0599 91.2771 53.2259C91.2747 53.34 91.4014 53.3877 91.4936 53.4389C91.9137 53.6723 92.3237 53.9271 92.7569 54.1329C96.067 55.7055 99.4753 55.8028 102.952 54.784C103.897 54.507 104.779 54.0821 105.624 53.5829C105.795 53.482 106.098 53.417 106.055 53.1742C106.019 52.9717 105.722 53.0288 105.545 52.9586C105.48 52.9328 105.406 52.9302 105.337 52.9154C103.187 52.4587 101.008 52.3012 98.4543 52.2529ZM89.0951 53.6608C88.8312 53.8083 88.4804 53.6449 88.1965 53.8451C87.929 54.0338 87.6082 54.0952 87.3068 54.2006C84.4319 55.2063 81.7299 56.5496 79.2307 58.298C78.8621 58.5559 78.8156 58.7153 79.224 58.9753C80.0079 59.4742 80.8264 59.9023 81.6631 60.303C82.0216 60.4746 82.2715 60.4186 82.56 60.1414C83.4717 59.2652 84.4272 58.4365 85.4181 57.6491C86.8006 56.5507 88.2359 55.5277 89.7312 54.5878C89.874 54.498 90.1938 54.411 90.0186 54.1861C89.8084 53.9163 89.5178 53.6748 89.0951 53.6608ZM108.308 53.6094C107.874 53.6389 107.553 53.8446 107.416 54.1673C107.297 54.4465 107.669 54.5022 107.845 54.6097C110.397 56.1625 112.781 57.9319 114.905 60.0372C115.22 60.3489 115.487 60.4191 115.885 60.1756C116.615 59.7303 117.375 59.3353 118.122 58.9196C118.681 58.6085 118.689 58.535 118.173 58.1837C115.953 56.6727 113.595 55.4277 111.067 54.5166C110.146 54.1845 109.206 53.9033 108.308 53.6094Z" fill="#00395C"/>
<path d="M95.8402 120.388C94.9439 120.257 94.0456 120.14 93.1519 119.995C88.3608 119.214 83.8948 117.559 79.7857 114.968C75.7117 112.4 72.2605 109.168 69.5069 105.208C69.3429 104.972 68.9818 104.716 69.1414 104.444C69.2893 104.192 69.7011 104.358 69.9953 104.328C70.368 104.291 70.5736 104.508 70.7703 104.789C72.5103 107.272 74.6005 109.426 76.9289 111.361C77.3837 111.739 77.7579 111.862 78.2937 111.517C79.0866 111.006 79.9146 110.547 80.7445 110.098C81.1593 109.873 81.166 109.685 80.8706 109.332C79.7024 107.939 78.567 106.519 77.626 104.956C77.2871 104.394 77.3002 104.384 77.9271 104.278C78.4026 104.197 78.7328 104.335 79.0043 104.761C79.946 106.236 81.0512 107.587 82.2317 108.878C82.4445 109.111 82.6459 109.169 82.9365 109.054C84.6781 108.368 86.4339 107.722 88.2354 107.208C88.5863 107.108 88.6265 106.922 88.4844 106.61C88.2183 106.027 87.991 105.426 87.7231 104.843C87.5291 104.421 87.7185 104.279 88.0999 104.273C88.5649 104.265 88.9644 104.349 89.164 104.876C89.3396 105.34 89.6298 105.759 89.8259 106.217C89.9735 106.562 90.1805 106.651 90.5355 106.582C92.1268 106.27 93.7298 106.033 95.3456 105.891C96.0903 105.825 96.8361 105.747 97.5824 105.735C98.0788 105.726 98.2956 105.565 98.2885 105.051C98.2793 104.393 98.7563 104.104 99.3626 104.355C99.5685 104.44 99.578 104.614 99.5941 104.794C99.6461 105.374 99.969 105.681 100.563 105.716C102.628 105.838 104.675 106.101 106.711 106.464C107.924 106.681 107.923 106.687 108.483 105.576C108.603 105.337 108.743 105.106 108.838 104.857C108.994 104.45 109.26 104.297 109.7 104.317C110.387 104.348 110.439 104.382 110.188 105.013C109.997 105.492 109.772 105.959 109.558 106.429C109.292 107.011 109.297 107.046 109.935 107.228C111.6 107.701 113.225 108.291 114.822 108.953C115.261 109.136 115.499 109.019 115.78 108.707C116.855 107.511 117.812 106.227 118.71 104.896C119.063 104.374 119.687 104.155 120.273 104.336C120.586 104.432 120.418 104.619 120.336 104.747C119.932 105.377 119.535 106.014 119.09 106.614C118.409 107.529 117.704 108.426 116.982 109.308C116.713 109.636 116.764 109.806 117.111 110.001C118.09 110.551 119.061 111.114 120.027 111.686C120.255 111.821 120.416 111.767 120.603 111.62C121.947 110.556 123.198 109.392 124.354 108.126C125.352 107.033 126.28 105.883 127.15 104.686C127.374 104.378 128.334 104.18 128.616 104.378C128.849 104.541 128.662 104.702 128.571 104.83C128.01 105.611 127.465 106.407 126.862 107.155C123.456 111.385 119.322 114.711 114.408 117.036C110.654 118.812 106.702 119.902 102.563 120.297C102.424 120.31 102.288 120.357 102.15 120.388L95.8402 120.388ZM99.6968 110.463C99.6968 111.673 99.6952 112.883 99.6981 114.093C99.6987 114.33 99.7065 114.556 100.034 114.6C100.704 114.691 101.37 114.814 102.041 114.905C102.341 114.946 102.645 114.958 102.87 114.672C104.423 112.692 105.836 110.62 107.034 108.404C107.186 108.123 107.12 107.966 106.818 107.9C104.62 107.418 102.397 107.152 100.146 107.13C99.8295 107.127 99.6915 107.271 99.6956 107.582C99.7085 108.544 99.5332 109.5 99.6968 110.463ZM98.1999 108.9C98.1999 108.491 98.1881 108.082 98.2034 107.673C98.2175 107.294 98.075 107.124 97.6774 107.125C95.5161 107.132 93.3916 107.453 91.2737 107.841C90.9051 107.909 90.7843 108.067 90.9839 108.428C92.2002 110.628 93.5655 112.727 95.1817 114.658C95.3458 114.854 95.5277 114.944 95.7852 114.904C96.4174 114.807 97.049 114.693 97.6853 114.641C98.1767 114.601 98.2951 114.367 98.2892 113.913C98.2676 112.242 98.3088 110.57 98.1999 108.9ZM89.0815 108.375C89.0295 108.387 88.9771 108.398 88.9256 108.412C87.3075 108.844 85.7241 109.373 84.1933 110.058C83.7523 110.256 83.7811 110.428 84.0941 110.738C86.2998 112.923 88.7927 114.703 91.5584 116.107C91.7352 116.197 91.906 116.284 92.1134 116.189C92.5656 115.98 93.0198 115.776 93.4759 115.576C93.7838 115.442 93.8051 115.276 93.6119 115.001C92.1591 112.934 90.7142 110.861 89.4881 108.646C89.3999 108.487 89.3067 108.331 89.0815 108.375ZM105.99 116.218C106.145 116.156 106.3 116.112 106.438 116.038C109.142 114.592 111.619 112.841 113.77 110.641C114.12 110.284 114.012 110.152 113.626 109.977C112.16 109.311 110.638 108.819 109.078 108.429C108.735 108.344 108.558 108.46 108.394 108.752C107.941 109.56 107.469 110.358 106.991 111.151C106.219 112.435 105.349 113.654 104.467 114.864C104.346 115.031 104.058 115.253 104.335 115.452C104.828 115.806 105.421 115.973 105.99 116.218ZM91.4164 118.198C91.5039 118.278 91.5253 118.311 91.5546 118.321C91.6388 118.349 91.7256 118.37 91.8124 118.389C96.5615 119.415 101.313 119.354 106.065 118.412C106.196 118.386 106.39 118.391 106.424 118.232C106.468 118.033 106.261 117.98 106.132 117.903C102.648 115.801 98.9241 115.551 95.0592 116.51C93.7584 116.832 92.5506 117.388 91.4164 118.198ZM108.579 117.772C109.095 117.608 109.624 117.451 110.145 117.272C113.105 116.256 115.935 114.979 118.469 113.112C118.975 112.739 118.976 112.711 118.468 112.39C117.686 111.896 116.873 111.456 116.032 111.066C115.71 110.917 115.5 110.941 115.233 111.191C113.947 112.394 112.634 113.568 111.215 114.617C110.155 115.401 109.062 116.134 107.933 116.814C107.795 116.896 107.505 116.985 107.647 117.173C107.864 117.463 108.168 117.703 108.579 117.772ZM89.2952 117.771C89.7306 117.731 90.0735 117.531 90.2113 117.224C90.3406 116.936 89.932 116.88 89.7451 116.759C87.2786 115.157 84.8975 113.445 82.796 111.375C82.433 111.018 82.1061 110.936 81.668 111.194C80.948 111.618 80.2124 112.015 79.492 112.438C78.9033 112.784 78.9036 112.815 79.4586 113.192C81.6915 114.707 84.0594 115.965 86.5985 116.885C87.5007 117.212 88.4226 117.486 89.2952 117.771Z" fill="#00395C"/>
<path d="M71.9326 75.979V95.7118H76.5336V100.789H59.6367V95.7118H64.1386V75.979H59.6367V70.9023H76.5336V75.979H71.9326Z" fill="#00395C"/>
<path d="M96.8421 73.3816V70.9029H103.88V79.9462H96.8421C96.5487 78.4919 95.8938 77.3978 94.8764 76.6639C93.8594 75.93 92.5442 75.563 90.9318 75.563C89.795 75.563 88.8239 75.7944 88.0177 76.2574C87.2109 76.7203 86.8081 77.3019 86.8081 78.0026C86.8081 78.6243 87.0647 79.1595 87.5778 79.6088C88.0905 80.0585 88.7505 80.4387 89.557 80.7493C90.3632 81.0598 91.5728 81.4732 93.1859 81.9889L94.8629 82.5045C98.5093 83.6418 101.263 84.9769 103.124 86.5103C104.984 88.0441 105.914 89.9613 105.914 92.2618C105.914 94.9984 104.823 97.1634 102.642 98.7568C100.461 100.35 97.5292 101.146 93.8455 101.146C90.2536 101.146 87.4583 100.175 85.4611 98.2311V100.789H78.4237V90.6357H85.4611C85.6077 92.3941 86.2352 93.7329 87.3442 94.6514C88.4527 95.5704 89.951 96.0297 91.8388 96.0297C93.1033 96.0297 94.1708 95.7191 95.0416 95.0975C95.9117 94.4764 96.3473 93.7229 96.3473 92.837C96.3473 91.938 95.8478 91.115 94.849 90.3678C93.8499 89.6211 92.1502 88.8704 89.7496 88.1169C85.6625 86.8213 82.6984 85.4266 80.8565 83.9324C79.0147 82.4381 78.0938 80.7197 78.0938 78.7761C78.0938 77.2555 78.5791 75.8677 79.5508 74.6112C80.5218 73.3552 81.8641 72.3671 83.578 71.6463C85.2915 70.926 87.1561 70.5654 89.1722 70.5654C90.7846 70.5654 92.2511 70.8033 93.5707 71.2794C94.8903 71.7555 95.9805 72.4562 96.8421 73.3816Z" fill="#00395C"/>
<path d="M107.137 85.7563C107.137 82.7287 107.831 80.058 109.219 77.7443C110.607 75.4306 112.561 73.629 115.08 72.3398C117.598 71.0511 120.497 70.4062 123.776 70.4062C127.055 70.4062 129.947 71.0511 132.452 72.3398C134.958 73.629 136.901 75.437 138.283 77.7639C139.664 80.0912 140.355 82.7551 140.355 85.7563C140.355 88.7976 139.664 91.4814 138.283 93.8083C136.901 96.1352 134.951 97.9401 132.433 99.2224C129.914 100.505 127.028 101.146 123.776 101.146C120.589 101.146 117.73 100.505 115.199 99.2224C112.667 97.9401 110.69 96.1352 109.269 93.8083C107.847 91.4814 107.137 88.7976 107.137 85.7563ZM132.026 85.7168C132.026 83.9055 131.695 82.2558 131.034 80.7688C130.373 79.2813 129.418 78.0981 128.169 77.2186C126.919 76.3396 125.455 75.8999 123.776 75.8999C122.097 75.8999 120.636 76.3396 119.393 77.2186C118.15 78.0981 117.195 79.2813 116.527 80.7688C115.859 82.2558 115.526 83.9055 115.526 85.7168C115.526 87.6207 115.866 89.3296 116.547 90.8434C117.228 92.3573 118.19 93.5473 119.433 94.4131C120.675 95.2789 122.11 95.7119 123.736 95.7119C125.415 95.7119 126.886 95.2789 128.149 94.4131C129.411 93.5473 130.373 92.3573 131.034 90.8434C131.695 89.3296 132.026 87.6207 132.026 85.7168Z" fill="#00395C"/>
</g>
</g>
<defs>
<clipPath id="clip0_4005_804">
<rect width="200" height="200" fill="white"/>
</clipPath>
<clipPath id="clip1_4005_804">
<rect width="200" height="200" fill="white"/>
</clipPath>
</defs>
</svg>
