<svg width="200" height="200" viewBox="0 0 200 200" fill="none" xmlns="http://www.w3.org/2000/svg">
<g clip-path="url(#clip0_4005_877)">
<g clip-path="url(#clip1_4005_877)">
<path d="M100.01 199.268C154.833 199.268 199.277 154.824 199.277 100C199.277 45.1764 154.833 0.73291 100.01 0.73291C45.1857 0.73291 0.742188 45.1764 0.742188 100C0.742188 154.824 45.1857 199.268 100.01 199.268Z" fill="white"/>
<path d="M100 200C44.8107 200 0 155.189 0 100C0 44.8107 44.8107 0 100 0C155.189 0 200 44.8107 200 100C200 155.189 155.189 200 100 200ZM100 3.1746C46.6422 3.1746 3.1746 46.6422 3.1746 100C3.1746 153.358 46.6422 196.825 100 196.825C153.358 196.825 196.825 153.358 196.825 100C196.825 46.6422 153.358 3.1746 100 3.1746Z" fill="#00395C"/>
<path d="M99.9946 165.689C63.7308 165.689 34.3047 136.263 34.3047 99.9994C34.3047 63.7357 63.7308 34.3096 99.9946 34.3096C136.258 34.3096 165.684 63.7357 165.684 99.9994C165.684 136.263 136.258 165.689 99.9946 165.689ZM99.9946 37.4842C65.5623 37.4842 37.4793 65.5672 37.4793 99.9994C37.4793 134.432 65.5623 162.515 99.9946 162.515C134.427 162.515 162.51 134.432 162.51 99.9994C162.51 65.5672 134.427 37.4842 99.9946 37.4842Z" fill="#00395C"/>
<path d="M80.7129 176.679L78.7593 176.068C78.7593 175.824 78.7593 175.58 78.7593 175.335C78.7593 175.091 78.6372 174.847 78.5151 174.725C78.393 174.481 78.2709 174.359 78.0267 174.237C77.7825 174.114 77.5383 173.992 77.2941 173.87C76.8057 173.748 76.3173 173.748 75.951 173.87C75.4626 173.992 75.0963 174.237 74.8521 174.603C74.4858 174.969 74.2416 175.458 73.9974 176.19C73.7532 176.801 73.7532 177.411 73.7532 177.9C73.7532 178.388 73.9974 178.876 74.2416 179.121C74.4858 179.487 74.8521 179.731 75.3405 179.853C75.5847 179.975 75.8289 179.975 76.0731 179.975C76.3173 179.975 76.5615 179.975 76.8057 179.853C77.0499 179.731 77.172 179.609 77.4162 179.487C77.5383 179.365 77.7825 179.121 77.9046 178.876L79.8582 179.487C79.614 179.853 79.3698 180.219 79.1256 180.586C78.7593 180.952 78.393 181.196 78.0267 181.44C77.5383 181.685 77.0499 181.807 76.5615 181.807C76.0731 181.807 75.4626 181.807 74.8521 181.563C73.9974 181.318 73.3869 180.83 72.7764 180.342C72.288 179.731 71.9217 179.121 71.7996 178.266C71.6775 177.411 71.6775 176.556 72.0438 175.458C72.4101 174.481 72.7764 173.626 73.3869 173.016C73.9974 172.405 74.73 172.039 75.4626 171.917C76.1952 171.795 77.0499 171.795 77.7825 172.039C78.2709 172.161 78.7593 172.405 79.2477 172.771C79.614 173.016 79.9803 173.382 80.2245 173.87C80.4687 174.237 80.7129 174.725 80.7129 175.213C80.835 175.58 80.835 176.068 80.7129 176.679Z" fill="#00395C"/>
<path d="M84.1251 183.882C83.3925 183.76 82.782 183.516 82.2936 183.028C81.8052 182.661 81.4389 182.173 81.3168 181.562C81.1947 180.952 81.0726 180.219 81.3168 179.487C81.4389 178.754 81.6831 178.144 82.1715 177.655C82.5378 177.167 83.0262 176.801 83.6367 176.556C84.2472 176.312 84.8577 176.312 85.5903 176.434C86.0787 176.556 86.445 176.678 86.8113 176.923C87.1776 177.167 87.5439 177.411 87.7881 177.777C88.0323 178.144 88.1544 178.51 88.2765 178.998C88.3986 179.487 88.3986 179.975 88.2765 180.586L88.1544 181.074L82.0494 179.975L82.2936 178.754L86.445 179.487C86.445 179.243 86.445 178.876 86.445 178.632C86.3229 178.388 86.2008 178.144 86.0787 178.022C85.8345 177.899 85.5903 177.777 85.3461 177.655C85.1019 177.655 84.7356 177.655 84.4914 177.655C84.2472 177.777 84.003 177.899 83.8809 178.144C83.7588 178.388 83.6367 178.632 83.5146 178.876L83.2704 180.097C83.1483 180.464 83.2704 180.83 83.2704 181.074C83.3925 181.318 83.5146 181.562 83.7588 181.807C84.003 182.051 84.2472 182.173 84.6135 182.173C84.8577 182.173 85.1019 182.173 85.224 182.173C85.4682 182.173 85.5903 182.051 85.7124 181.929C85.8345 181.807 85.9566 181.685 86.0787 181.562L87.9102 182.051C87.7881 182.417 87.4218 182.783 87.1776 183.15C86.8113 183.394 86.445 183.638 85.9566 183.76C85.224 184.004 84.7356 184.004 84.1251 183.882Z" fill="#00395C"/>
<path d="M89.2578 184.616L89.9904 177.412L91.944 177.656L91.8219 178.877H91.944C92.0661 178.388 92.4324 178.144 92.6766 177.9C93.0429 177.656 93.4092 177.656 93.7755 177.656C93.8976 177.656 94.0197 177.656 94.1418 177.656C94.2639 177.656 94.386 177.656 94.386 177.778L94.1418 179.609C94.0197 179.609 93.8976 179.487 93.7755 179.487C93.6534 179.487 93.4092 179.365 93.2871 179.365C93.0429 179.365 92.6766 179.365 92.4324 179.487C92.1882 179.609 91.944 179.732 91.8219 179.976C91.6998 180.22 91.5777 180.464 91.5777 180.708L91.2114 184.86L89.2578 184.616Z" fill="#00395C"/>
<path d="M99.6417 177.9V179.365L95.2461 179.243V177.778L99.6417 177.9ZM96.345 176.068L98.4207 176.19L98.1765 183.028C98.1765 183.272 98.1765 183.394 98.2986 183.516C98.2986 183.639 98.4207 183.639 98.5428 183.761C98.6649 183.761 98.787 183.883 98.9091 183.883C99.0312 183.883 99.1533 183.883 99.1533 183.883C99.2754 183.883 99.2754 183.883 99.3975 183.883L99.6417 185.348C99.5196 185.348 99.3975 185.47 99.1533 185.47C98.9091 185.47 98.787 185.47 98.5428 185.47C98.0544 185.47 97.6881 185.348 97.3218 185.226C96.9555 185.104 96.7113 184.86 96.4671 184.493C96.2229 184.127 96.2229 183.761 96.2229 183.272L96.345 176.068Z" fill="#00395C"/>
<path d="M101.829 176.923C101.585 176.923 101.219 176.801 101.097 176.679C100.853 176.435 100.73 176.191 100.73 175.947C100.73 175.702 100.853 175.458 101.097 175.214C101.341 174.97 101.585 174.848 101.829 174.848C102.074 174.848 102.44 174.97 102.562 175.092C102.806 175.336 102.928 175.58 102.928 175.824C102.928 176.069 102.806 176.313 102.684 176.557C102.562 176.801 102.074 176.923 101.829 176.923ZM100.975 185.226L100.853 177.9H102.928L103.05 185.226H100.975Z" fill="#00395C"/>
<path d="M108.311 177.533L108.433 178.998L103.915 179.364L103.793 177.899L108.311 177.533ZM105.38 185.103L104.77 177.289C104.77 176.8 104.77 176.312 105.014 175.946C105.136 175.579 105.502 175.335 105.747 175.091C106.113 174.847 106.479 174.725 106.968 174.725C107.334 174.725 107.578 174.725 107.822 174.725C108.066 174.725 108.311 174.725 108.433 174.847L108.189 176.434C108.066 176.434 108.066 176.434 107.944 176.434C107.822 176.434 107.7 176.434 107.578 176.434C107.334 176.434 107.09 176.556 106.968 176.678C106.845 176.8 106.845 177.045 106.845 177.289L107.456 185.103H105.38Z" fill="#00395C"/>
<path d="M110.26 176.313C110.016 176.313 109.65 176.313 109.405 176.068C109.161 175.946 109.039 175.702 109.039 175.336C109.039 175.092 109.039 174.847 109.283 174.603C109.527 174.359 109.65 174.237 110.016 174.237C110.26 174.237 110.626 174.237 110.871 174.481C111.115 174.603 111.237 174.847 111.237 175.214C111.237 175.458 111.237 175.702 110.993 175.946C110.871 176.068 110.626 176.19 110.26 176.313ZM110.382 184.615L109.405 177.411L111.359 177.167L112.336 184.371L110.382 184.615Z" fill="#00395C"/>
<path d="M117.705 183.516C116.972 183.638 116.362 183.638 115.751 183.516C115.141 183.272 114.652 183.027 114.286 182.539C113.92 182.051 113.554 181.44 113.431 180.707C113.309 179.975 113.309 179.242 113.431 178.632C113.554 178.021 113.92 177.533 114.408 177.044C114.897 176.678 115.385 176.312 116.118 176.19C116.606 176.068 117.094 176.068 117.461 176.19C117.949 176.312 118.315 176.434 118.682 176.678C119.048 176.922 119.414 177.289 119.659 177.655C119.903 178.021 120.147 178.632 120.269 179.242L120.391 179.731L114.408 180.952L114.164 179.731L118.315 178.876C118.315 178.632 118.193 178.388 117.949 178.143C117.827 177.899 117.583 177.777 117.339 177.777C117.094 177.655 116.85 177.655 116.484 177.777C116.24 177.899 115.873 178.021 115.751 178.143C115.507 178.388 115.385 178.51 115.385 178.754C115.263 178.998 115.263 179.242 115.385 179.609L115.629 180.83C115.751 181.196 115.873 181.44 115.996 181.684C116.24 181.928 116.362 182.051 116.728 182.173C117.094 182.295 117.339 182.295 117.583 182.173C117.827 182.173 117.949 182.051 118.193 181.928C118.315 181.806 118.56 181.684 118.56 181.562C118.682 181.44 118.682 181.196 118.804 181.074L120.635 180.83C120.635 181.318 120.513 181.684 120.269 182.051C120.025 182.417 119.781 182.783 119.292 183.027C118.804 183.149 118.315 183.394 117.705 183.516Z" fill="#00395C"/>
<path d="M125.41 181.441C124.922 181.563 124.311 181.685 123.823 181.441C123.335 181.318 122.846 180.952 122.48 180.586C122.114 180.097 121.747 179.487 121.503 178.754C121.259 177.9 121.137 177.289 121.259 176.679C121.381 176.068 121.503 175.58 121.869 175.213C122.236 174.847 122.602 174.481 123.09 174.359C123.457 174.237 123.823 174.237 124.067 174.237C124.311 174.237 124.678 174.359 124.8 174.481C125.044 174.603 125.166 174.725 125.41 174.969L124.311 171.428L126.265 170.818L129.195 180.097L127.242 180.708L126.875 179.609H126.753C126.753 179.853 126.631 180.097 126.509 180.342C126.387 180.586 126.265 180.83 126.021 181.074C126.143 181.196 125.777 181.318 125.41 181.441ZM125.532 179.731C125.899 179.609 126.021 179.487 126.265 179.243C126.387 178.999 126.509 178.754 126.509 178.388C126.509 178.022 126.509 177.655 126.387 177.289C126.265 176.923 126.021 176.557 125.899 176.312C125.654 176.068 125.41 175.824 125.166 175.824C124.922 175.702 124.556 175.702 124.311 175.824C123.945 175.946 123.701 176.068 123.579 176.312C123.457 176.557 123.335 176.801 123.335 177.167C123.335 177.533 123.335 177.9 123.457 178.266C123.579 178.632 123.701 178.999 123.945 179.243C124.189 179.487 124.433 179.731 124.678 179.853C124.922 179.853 125.288 179.853 125.532 179.731Z" fill="#00395C"/>
<path d="M101.338 51.0381C102.071 51.1602 102.925 51.2823 103.658 51.2823C108.176 51.8928 112.449 53.358 116.356 55.5559C119.531 57.2653 122.339 59.4631 124.781 62.1493C126.002 63.4924 127.223 64.9576 128.2 66.4228C128.322 66.5449 128.444 66.667 128.444 66.9112C128.322 67.1554 128.078 67.0333 127.956 67.0333C127.345 67.1554 126.979 66.9112 126.735 66.4228C125.025 63.9808 122.828 61.783 120.508 59.9515C120.141 59.7073 119.775 59.5852 119.409 59.8294C118.554 60.3178 117.699 60.8062 116.845 61.2946C116.478 61.5388 116.356 61.783 116.723 62.0272C117.944 63.2482 118.92 64.7134 119.897 66.1786C120.019 66.4228 120.386 66.667 120.141 67.0333C119.897 67.2775 119.043 67.1554 118.798 66.9112C118.676 66.667 118.432 66.4228 118.31 66.1786C117.455 64.9576 116.356 63.7366 115.38 62.5156C115.135 62.2714 115.013 62.2714 114.769 62.3935C113.06 63.1261 111.35 63.7366 109.519 64.225C109.152 64.3471 109.152 64.4692 109.275 64.8355C109.519 65.446 109.763 66.0565 110.129 66.667C110.251 67.0333 110.129 67.1554 109.885 67.1554C109.275 67.2775 109.03 67.1554 108.664 66.5449C108.42 66.0565 108.176 65.6902 107.931 65.2018C107.687 64.7134 107.443 64.5913 107.077 64.7134C105.489 65.0797 103.78 65.3239 102.071 65.446C101.338 65.446 100.728 65.5681 99.995 65.5681C99.6287 65.5681 99.3845 65.6902 99.3845 66.1786C99.3845 66.9112 99.0182 67.1554 98.2856 66.9112C98.0414 66.7891 97.9193 66.667 98.0414 66.4228C98.0414 65.446 97.9192 65.5681 97.0645 65.446C95.233 65.3239 93.4015 65.2018 91.6921 64.8355C91.2037 64.7134 90.8374 64.7134 90.349 64.5913C89.8606 64.4692 89.6164 64.5913 89.4943 65.0797C89.2501 65.5681 89.128 65.9344 88.8838 66.4228C88.6396 66.7891 87.907 67.0333 87.5407 66.7891C87.2965 66.667 87.4186 66.5449 87.4186 66.3007C87.6628 65.6902 87.907 65.2018 88.1512 64.5913C88.2733 64.225 88.2733 63.9808 87.907 63.8587C86.1976 63.3703 84.4882 62.7598 82.9009 62.1493C82.5346 62.0272 82.4125 62.1493 82.1683 62.3935C81.0694 63.6145 79.9705 64.9576 78.9937 66.3007C78.6274 66.7891 78.139 67.0333 77.5285 66.7891C77.1622 66.667 77.2843 66.5449 77.4064 66.3007C77.7727 65.6902 78.139 65.2018 78.5053 64.5913C79.2379 63.6145 79.9705 62.6377 80.7031 61.783C80.9473 61.4167 80.9473 61.2946 80.581 61.1725C79.6042 60.6841 78.7495 60.0736 77.7727 59.5852C77.4064 59.341 77.1622 59.4631 76.918 59.7073C75.4528 60.8062 74.1097 62.1493 72.8887 63.4924C72.034 64.4692 71.3014 65.446 70.5688 66.4228C70.3246 66.7891 69.4699 67.0333 69.1036 66.7891C68.7373 66.667 68.9815 66.4228 69.1036 66.3007C69.7141 65.446 70.4467 64.4692 71.1793 63.6145C75.5749 58.3642 81.0694 54.5791 87.5407 52.5033C90.349 51.6486 93.1573 51.0381 95.9656 50.916C96.0877 50.916 96.2099 50.916 96.332 50.7939H101.338V51.0381ZM98.0414 60.3178C98.0414 59.5852 98.1635 58.3642 98.0414 57.2653C98.0414 56.899 97.7972 56.7769 97.553 56.7769C96.9425 56.7769 96.332 56.6548 95.5994 56.5327C95.3552 56.5327 95.111 56.5327 94.9889 56.7769C93.4015 58.7305 91.9363 60.8062 90.7153 63.004C90.5932 63.3703 90.5932 63.4924 90.9595 63.4924C91.6921 63.6145 92.5468 63.7366 93.2794 63.8587C94.6225 64.1029 95.9656 64.225 97.3087 64.225C97.7971 64.225 98.0414 64.1029 98.0414 63.4924C98.0414 62.5156 98.0414 61.6609 98.0414 60.3178ZM99.5066 60.562C99.5066 61.6609 99.5066 62.6377 99.5066 63.7366C99.5066 64.225 99.6287 64.3471 100.117 64.3471C102.193 64.225 104.268 63.9808 106.344 63.6145C106.955 63.4924 106.955 63.4924 106.71 62.8819C105.612 60.6841 104.146 58.8526 102.681 56.8989C102.559 56.6547 102.315 56.6548 102.071 56.6548C101.46 56.7769 100.85 56.7768 100.239 56.8989C99.8729 56.8989 99.6286 57.1432 99.7507 57.5095C99.5065 58.4863 99.5066 59.4631 99.5066 60.562ZM105.734 55.1896C105.245 55.4338 104.757 55.6779 104.146 55.9222C103.78 56.0443 103.78 56.2885 104.024 56.5327C105.489 58.4863 106.833 60.562 108.054 62.6377C108.298 63.004 108.42 63.004 108.786 63.004C110.373 62.6377 111.839 62.0272 113.304 61.4167C113.792 61.2946 113.792 61.0504 113.426 60.8062C111.228 58.7305 108.786 56.899 106.1 55.5559C106.1 55.3117 105.978 55.1896 105.734 55.1896ZM88.6396 62.8819C89.0059 62.8819 89.128 62.7598 89.2501 62.6377C90.5932 60.4399 91.8142 58.3642 93.4015 56.4106C93.6457 56.1664 93.5236 56.0443 93.2794 55.8001C91.8142 55.0675 91.6921 55.0674 90.349 55.9222C90.2269 55.9222 90.2269 56.0443 90.1048 56.0443C87.907 57.3874 85.8313 58.9747 83.9998 60.6841C83.6335 61.0504 83.6335 61.1725 84.1219 61.4167C84.8545 61.6609 85.465 62.0272 86.1976 62.1493C87.0523 62.5156 87.907 62.7598 88.6396 62.8819ZM98.5297 52.2591C98.0413 52.2591 97.0646 52.3813 96.2099 52.3813C94.6226 52.5034 93.1573 52.7476 91.6921 52.9918C91.57 52.9918 91.4479 52.9917 91.4479 53.2359C91.4479 53.358 91.57 53.358 91.6921 53.4801C92.0584 53.7243 92.5468 53.9686 92.9131 54.2128C96.2098 55.8001 99.6287 55.9222 103.17 54.8233C104.146 54.5791 105.001 54.0907 105.856 53.6023C105.978 53.4802 106.344 53.4801 106.344 53.2359C106.344 52.9917 105.978 53.1139 105.856 52.9918C105.734 52.9918 105.734 52.9918 105.612 52.9918C103.17 52.5034 100.972 52.2591 98.5297 52.2591ZM89.128 53.7243C88.8838 53.8464 88.5175 53.7244 88.2733 53.9686C88.0291 54.2128 87.6628 54.2127 87.4186 54.3348C84.4882 55.3117 81.802 56.6548 79.36 58.4863C78.9937 58.7305 78.9937 58.8526 79.36 59.2189C80.0926 59.7073 80.9473 60.1957 81.802 60.562C82.1683 60.6841 82.4125 60.6841 82.6567 60.4399C83.5114 59.5852 84.4882 58.7305 85.465 57.9979C86.8081 56.899 88.2733 55.9222 89.7385 54.9454C89.8606 54.8233 90.2269 54.8233 89.9827 54.5791C89.8606 53.9686 89.4943 53.7243 89.128 53.7243ZM108.298 53.6023C107.809 53.6023 107.565 53.8465 107.443 54.2128C107.321 54.457 107.687 54.579 107.931 54.7011C110.496 56.2885 112.815 57.9979 115.013 60.0736C115.38 60.4399 115.624 60.4399 115.99 60.1957C116.723 59.7073 117.455 59.341 118.188 58.9747C118.798 58.6084 118.798 58.6084 118.188 58.2421C115.99 56.7769 113.548 55.4338 111.106 54.5791C110.129 54.2128 109.275 53.9686 108.298 53.6023Z" fill="#00395C"/>
<path d="M95.8416 120.391C94.9869 120.269 94.0101 120.147 93.1554 120.025C88.3935 119.293 83.8758 117.583 79.8465 115.019C75.8172 112.455 72.2763 109.158 69.5901 105.251C69.468 105.007 69.1017 104.763 69.2238 104.518C69.3459 104.274 69.8343 104.396 70.0785 104.396C70.4448 104.396 70.689 104.518 70.8111 104.885C72.5205 107.327 74.5962 109.525 76.9161 111.478C77.4045 111.844 77.7708 111.967 78.2592 111.6C78.9918 111.112 79.8465 110.623 80.7012 110.135C81.0675 109.891 81.0675 109.769 80.8233 109.402C79.6023 108.059 78.5034 106.594 77.5266 105.007C77.1603 104.396 77.1603 104.396 77.7708 104.274C78.2592 104.152 78.6255 104.274 78.8697 104.763C79.8465 106.228 80.9454 107.571 82.0443 108.914C82.2885 109.158 82.4106 109.158 82.7769 109.036C84.4863 108.304 86.3178 107.693 88.0272 107.205C88.3935 107.083 88.3935 106.96 88.2714 106.594C88.0272 105.984 87.783 105.373 87.5388 104.885C87.2946 104.518 87.5388 104.274 87.9051 104.274C88.3935 104.274 88.7598 104.396 89.004 104.885C89.1261 105.373 89.4924 105.739 89.6145 106.228C89.7366 106.594 89.9808 106.716 90.3471 106.594C91.9344 106.228 93.5217 106.106 95.109 105.862C95.8416 105.739 96.5742 105.739 97.3068 105.739C97.7952 105.739 98.0394 105.617 98.0394 105.007C98.0394 104.396 98.5278 104.03 99.1383 104.274C99.3825 104.396 99.3825 104.518 99.3825 104.763C99.3825 105.373 99.7488 105.617 100.359 105.739C102.435 105.862 104.511 106.106 106.464 106.472C107.685 106.716 107.685 106.716 108.296 105.617C108.418 105.373 108.54 105.129 108.662 104.885C108.784 104.518 109.028 104.274 109.517 104.396C110.249 104.396 110.249 104.518 110.005 105.129C109.761 105.617 109.639 106.106 109.395 106.594C109.151 107.205 109.151 107.205 109.761 107.449C111.47 107.937 113.058 108.548 114.645 109.158C115.133 109.28 115.378 109.28 115.622 108.914C116.721 107.693 117.698 106.472 118.552 105.129C118.919 104.641 119.529 104.396 120.14 104.518C120.506 104.641 120.262 104.763 120.262 104.885C119.895 105.495 119.407 106.106 119.041 106.716C118.308 107.571 117.698 108.548 116.965 109.402C116.721 109.769 116.721 109.891 117.087 110.135C118.064 110.746 119.041 111.234 120.017 111.844C120.262 111.967 120.384 111.967 120.628 111.722C121.971 110.623 123.192 109.525 124.413 108.181C125.39 107.083 126.367 105.984 127.221 104.763C127.466 104.396 128.442 104.274 128.687 104.396C128.931 104.518 128.687 104.763 128.687 104.885C128.076 105.617 127.588 106.472 126.977 107.205C123.558 111.478 119.407 114.775 114.523 117.095C110.738 118.926 106.831 119.903 102.679 120.391C102.557 120.391 102.435 120.391 102.313 120.514L95.8416 120.391ZM99.7488 110.501C99.7488 111.722 99.7488 112.943 99.7488 114.164C99.7488 114.409 99.7488 114.653 100.115 114.653C100.726 114.775 101.458 114.897 102.069 114.897C102.313 114.897 102.679 114.897 102.923 114.653C104.511 112.699 105.854 110.623 107.075 108.426C107.197 108.181 107.197 107.937 106.831 107.937C104.633 107.449 102.435 107.205 100.115 107.205C99.7488 107.205 99.6267 107.327 99.6267 107.693C99.7488 108.548 99.5046 109.525 99.7488 110.501ZM98.1615 108.914C98.1615 108.548 98.1615 108.059 98.1615 107.693C98.1615 107.327 98.0394 107.205 97.6731 107.205C95.4753 107.205 93.3996 107.571 91.3239 107.937C90.9576 108.059 90.8355 108.181 91.0797 108.548C92.3007 110.746 93.6438 112.821 95.2311 114.775C95.3532 115.019 95.5974 115.019 95.8416 115.019C96.4521 114.897 97.0626 114.775 97.7952 114.775C98.2836 114.775 98.4057 114.531 98.4057 114.042C98.2836 112.211 98.2836 110.623 98.1615 108.914ZM89.1261 108.426H89.004C87.4167 108.914 85.8294 109.402 84.2421 110.013C83.7537 110.257 83.8758 110.379 84.12 110.746C86.3178 112.943 88.7598 114.653 91.5681 116.118C91.6902 116.24 91.9344 116.24 92.1786 116.24C92.667 115.996 93.0333 115.874 93.5217 115.63C93.888 115.507 93.888 115.385 93.6438 115.019C92.1786 112.943 90.7134 110.868 89.4924 108.67C89.3703 108.548 89.3703 108.304 89.1261 108.426ZM105.976 116.24C106.098 116.118 106.342 116.118 106.464 116.118C109.151 114.653 111.593 112.943 113.79 110.746C114.157 110.379 114.035 110.257 113.668 110.135C112.203 109.525 110.738 109.036 109.151 108.548C108.784 108.426 108.662 108.548 108.418 108.914C107.93 109.769 107.441 110.501 107.075 111.356C106.342 112.699 105.488 113.798 104.511 115.019C104.389 115.141 104.144 115.385 104.389 115.63C104.877 115.874 105.488 115.996 105.976 116.24ZM91.446 118.194C91.5681 118.316 91.5681 118.316 91.5681 118.316C91.6902 118.316 91.6902 118.316 91.8123 118.438C96.5742 119.415 101.336 119.415 106.098 118.438C106.22 118.438 106.464 118.438 106.464 118.316C106.464 118.072 106.342 118.072 106.22 117.949C102.679 115.874 99.0162 115.63 95.109 116.606C93.7659 116.851 92.5449 117.461 91.446 118.194ZM108.54 117.827C109.028 117.705 109.639 117.461 110.127 117.339C113.058 116.362 115.866 115.019 118.43 113.188C118.919 112.821 118.919 112.821 118.43 112.455C117.698 111.967 116.843 111.478 115.988 111.112C115.622 110.99 115.5 110.99 115.133 111.234C113.79 112.455 112.569 113.554 111.104 114.653C110.005 115.385 108.906 116.118 107.807 116.851C107.685 116.973 107.319 116.973 107.563 117.217C107.93 117.461 108.174 117.705 108.54 117.827ZM89.2482 117.827C89.7366 117.827 89.9808 117.583 90.225 117.339C90.3471 117.095 89.9808 116.973 89.7366 116.851C87.2946 115.263 84.8526 113.554 82.7769 111.478C82.4106 111.112 82.0443 110.99 81.678 111.356C80.9454 111.722 80.2128 112.211 79.4802 112.577C78.8697 112.943 78.8697 112.943 79.4802 113.31C81.678 114.775 84.12 116.118 86.562 116.973C87.5388 117.217 88.3935 117.461 89.2482 117.827Z" fill="#00395C"/>
<path d="M71.9092 75.9466V95.7268H76.549V100.855H59.6992V95.7268H64.2169V75.9466H59.6992V70.8184H76.549V75.9466H71.9092Z" fill="#00395C"/>
<path d="M96.8141 73.3825V70.9405H103.896V79.9759H96.8141C96.5699 78.5107 95.8373 77.4118 94.8605 76.6792C93.8837 75.9466 92.5406 75.5803 90.9533 75.5803C89.8544 75.5803 88.8776 75.8245 88.0229 76.3129C87.1682 76.8013 86.8019 77.4118 86.8019 78.0223C86.8019 78.6328 87.0461 79.1212 87.5345 79.6096C88.0229 80.098 88.7555 80.4643 89.4881 80.7085C90.3428 81.0748 91.5638 81.4411 93.1511 81.9295L94.8605 82.4179C98.5235 83.5168 101.21 84.8599 103.163 86.4472C104.995 88.0345 105.972 89.866 105.972 92.1859C105.972 94.8721 104.873 97.0699 102.675 98.6572C100.477 100.245 97.5467 101.099 93.8837 101.099C90.3428 101.099 87.5345 100.122 85.4588 98.1688V100.733H78.377V90.5986H85.4588C85.5809 92.308 86.1914 93.6511 87.2903 94.6279C88.3892 95.6047 89.8544 95.971 91.808 95.971C93.029 95.971 94.1279 95.6047 94.9826 94.9942C95.8373 94.3837 96.3257 93.6511 96.3257 92.6743C96.3257 91.8196 95.8373 90.9649 94.8605 90.2323C93.8837 89.4997 92.1743 88.7671 89.7323 88.0345C85.703 86.6914 82.6505 85.3483 80.819 83.8831C78.9875 82.4179 78.1328 80.7085 78.1328 78.7549C78.1328 77.2897 78.6212 75.8245 79.598 74.6035C80.5748 73.3825 81.9179 72.4057 83.6273 71.6731C85.3367 70.9405 87.1682 70.5742 89.2439 70.5742C90.8312 70.5742 92.2964 70.8184 93.6395 71.3068C94.8605 71.7952 95.9594 72.5278 96.8141 73.3825Z" fill="#00395C"/>
<path d="M107.199 85.7147C107.199 82.6622 107.932 79.976 109.275 77.6561C110.618 75.3362 112.572 73.5047 115.136 72.2837C117.7 70.9406 120.508 70.3301 123.805 70.3301C127.102 70.3301 130.032 70.9406 132.474 72.2837C135.038 73.6268 136.87 75.3362 138.335 77.6561C139.678 79.976 140.41 82.6622 140.41 85.5926C140.41 88.6451 139.678 91.3313 138.335 93.6512C136.992 95.9711 135.038 97.8026 132.474 99.0236C129.91 100.367 127.102 100.977 123.805 100.977C120.63 100.977 117.7 100.367 115.258 99.0236C112.694 97.6805 110.74 95.9711 109.275 93.6512C107.81 91.4534 107.199 88.7672 107.199 85.7147ZM132.108 85.7147C132.108 83.8832 131.741 82.2959 131.131 80.7086C130.52 79.2434 129.544 78.0224 128.323 77.1677C127.102 76.313 125.636 75.8246 123.927 75.8246C122.218 75.8246 120.752 76.313 119.531 77.1677C118.31 78.0224 117.334 79.2434 116.723 80.7086C116.113 82.1738 115.746 83.8832 115.746 85.7147C115.746 87.6683 116.113 89.3777 116.723 90.8429C117.334 92.3081 118.31 93.5291 119.653 94.3838C120.997 95.2385 122.34 95.7269 123.927 95.7269C125.636 95.7269 127.102 95.2385 128.323 94.3838C129.544 93.5291 130.52 92.3081 131.253 90.8429C131.741 89.3777 132.108 87.6683 132.108 85.7147Z" fill="#00395C"/>
<path d="M25.2835 111.234L15.6376 112.455L15.0271 108.67C14.905 107.937 15.0271 107.327 15.1492 106.716C15.3934 106.106 15.7597 105.74 16.126 105.373C16.6144 105.007 17.1028 104.885 17.8354 104.763C18.4459 104.641 19.0564 104.763 19.5448 105.007C20.0332 105.251 20.5216 105.617 20.8879 106.106C21.2542 106.594 21.4984 107.205 21.4984 107.937L21.8647 110.379L20.2774 110.624L20.0332 108.548C20.0332 108.182 19.9111 107.815 19.6669 107.571C19.4227 107.327 19.3006 107.205 19.0564 107.083C18.8122 106.961 18.4459 106.961 18.2017 106.961C17.8354 106.961 17.5912 107.083 17.347 107.205C17.1028 107.327 16.9807 107.571 16.8586 107.815C16.7365 108.059 16.7365 108.426 16.7365 108.792L16.8586 110.135L24.9172 109.158L25.2835 111.234Z" fill="#00395C"/>
<path d="M24.3056 102.931L16.9796 103.175L16.8575 101.222H18.0785V101.1C17.5901 100.978 17.2238 100.733 16.9796 100.489C16.7354 100.245 16.6133 99.8787 16.6133 99.3903C16.6133 99.2682 16.6133 99.1461 16.6133 99.024C16.6133 98.9019 16.6133 98.7798 16.6133 98.6577H18.4448C18.4448 98.7798 18.4448 98.9019 18.3227 99.024C18.3227 99.1461 18.3227 99.3903 18.3227 99.5124C18.3227 99.7566 18.4448 100.123 18.5669 100.245C18.689 100.489 18.9332 100.611 19.1774 100.733C19.4216 100.856 19.6658 100.978 20.0321 100.856L24.1835 100.733L24.3056 102.931Z" fill="#00395C"/>
<path d="M16.0015 96.3377C16.0015 96.5819 15.8794 96.9482 15.6352 97.0703C15.391 97.3145 15.1468 97.4366 14.9026 97.3145C14.6584 97.3145 14.4142 97.1924 14.17 96.9482C13.9258 96.704 13.9258 96.4598 13.9258 96.2156C13.9258 95.9714 14.0479 95.6051 14.2921 95.483C14.5363 95.2388 14.7805 95.1167 15.0247 95.2388C15.2689 95.2388 15.5131 95.3609 15.7573 95.6051C16.0015 95.8493 16.0015 95.9714 16.0015 96.3377ZM24.1822 97.5587L16.8562 97.3145V95.2388L24.1822 95.483V97.5587Z" fill="#00395C"/>
<path d="M17.718 86.4478L24.7998 89.7445L24.4335 92.0644L16.8633 93.8959L17.1075 91.8202L22.4799 90.8434V90.7213L17.4738 88.6456L17.718 86.4478Z" fill="#00395C"/>
<path d="M25.6499 84.6157C25.5278 85.1041 25.4057 85.4704 25.1615 85.8367C24.9173 86.203 24.6731 86.4472 24.3068 86.5693C23.9405 86.6914 23.5742 86.6914 23.0858 86.6914C22.7195 86.5693 22.3532 86.4472 22.109 86.3251C21.8648 86.203 21.7427 85.8367 21.6206 85.5925C21.4985 85.3483 21.4985 84.982 21.3764 84.6157C21.2543 84.2494 21.3764 83.8831 21.3764 83.5168C21.3764 83.1505 21.4985 82.7842 21.4985 82.54C21.4985 82.2958 21.4985 82.0516 21.3764 81.9295C21.3764 81.8074 21.2543 81.6853 21.0101 81.6853C20.7659 81.6853 20.5217 81.6853 20.2775 81.8074C20.0333 81.9295 19.9112 82.1737 19.9112 82.54C19.7891 82.9063 19.9112 83.1505 20.0333 83.3947C20.1554 83.6389 20.2775 83.761 20.5217 83.8831L20.0333 85.7146C19.667 85.5925 19.3007 85.2262 19.0565 84.982C18.8123 84.6157 18.5681 84.2494 18.5681 83.761C18.446 83.2726 18.446 82.7842 18.5681 82.1737C18.6902 81.8074 18.8123 81.4411 18.9344 81.0748C19.0565 80.7085 19.3007 80.4643 19.5449 80.2201C19.7891 79.9759 20.1554 79.8538 20.3996 79.7317C20.7659 79.6096 21.1322 79.6096 21.4985 79.7317L26.3825 80.7085L26.0162 82.54L25.0394 82.2958C25.2836 82.4179 25.4057 82.6621 25.5278 82.9063C25.6499 83.1505 25.772 83.3947 25.772 83.6389C25.772 83.8831 25.6499 84.2494 25.6499 84.6157ZM24.4289 83.761C24.4289 83.5168 24.4289 83.1505 24.4289 82.9063C24.3068 82.6621 24.1847 82.4179 24.0626 82.2958C23.9405 82.1737 23.6963 82.0516 23.4521 81.9295L22.5974 81.8074C22.5974 81.9295 22.5974 81.9295 22.5974 82.0516C22.5974 82.1737 22.5974 82.2958 22.5974 82.4179C22.5974 82.54 22.5974 82.6621 22.5974 82.7842C22.5974 82.9063 22.5974 83.0284 22.5974 83.1505C22.5974 83.3947 22.5974 83.6389 22.5974 83.761C22.5974 83.8831 22.7195 84.1273 22.8416 84.2494C22.9637 84.3715 23.0858 84.4936 23.33 84.4936C23.5742 84.4936 23.8184 84.4936 24.0626 84.3715C24.1847 84.2494 24.3068 84.0052 24.4289 83.761Z" fill="#00395C"/>
<path d="M27.7245 76.0692C27.4803 76.8018 27.114 77.4123 26.7477 77.7786C26.2593 78.1449 25.7709 78.5112 25.1604 78.5112C24.5499 78.6334 23.8173 78.5112 23.2068 78.3891C22.4742 78.1449 21.8637 77.7786 21.4974 77.4123C21.009 76.9239 20.7648 76.4355 20.6427 75.825C20.5206 75.2145 20.5206 74.604 20.7648 73.8714C21.009 73.2609 21.2532 72.7725 21.6195 72.4062C21.9858 72.0399 22.3521 71.7957 22.8405 71.5515C23.3289 71.4294 23.8173 71.4294 24.4278 71.5515L23.8173 73.383C23.451 73.383 23.0847 73.383 22.8405 73.5051C22.5963 73.6272 22.3521 73.8714 22.23 74.2377C22.1079 74.4819 22.1079 74.8482 22.23 75.0924C22.3521 75.3366 22.4742 75.5808 22.7184 75.825C22.9626 76.0692 23.3289 76.1913 23.8173 76.3134C24.3057 76.4355 24.672 76.5576 25.0383 76.4355C25.4046 76.4355 25.6488 76.3134 25.893 76.1913C26.1372 76.0692 26.2593 75.825 26.3814 75.4587C26.5035 75.2145 26.5035 74.9703 26.3814 74.8482C26.2593 74.7261 26.2593 74.4819 26.1372 74.2377C26.0151 74.1156 25.7709 73.8714 25.5267 73.8714L26.1372 72.0399C26.6256 72.2841 27.114 72.5283 27.3582 72.8946C27.7245 73.2609 27.8466 73.7493 27.9687 74.2377C27.9687 74.8482 27.9687 75.4587 27.7245 76.0692Z" fill="#00395C"/>
<path d="M31.9888 71.7957C31.8667 72.0399 31.7446 72.2841 31.6225 72.4062C31.5004 72.6504 31.3783 72.7725 31.2562 72.8946L30.0352 71.9178C30.1573 71.6736 30.2794 71.5515 30.4015 71.4294C30.5236 71.1852 30.5236 70.941 30.5236 70.8189C30.5236 70.6968 30.4015 70.4526 30.1573 70.3305L29.9131 70.0863L21.9766 69.5979L22.8313 67.6443L28.3258 68.3769V68.2548L24.0523 64.7139L24.907 62.7603L31.2562 68.499C31.6225 68.7432 31.8667 69.1095 31.9888 69.3537C32.1109 69.72 32.233 70.0863 32.233 70.4526C32.233 70.941 32.233 71.3073 31.9888 71.7957Z" fill="#00395C"/>
<path d="M26.0159 55.5557L34.5629 60.3176L33.5861 62.1491L25.0391 57.3872L26.0159 55.5557Z" fill="#00395C"/>
<path d="M32.8544 54.9455L36.3953 57.2654L35.2964 58.9748L29.1914 54.8234L30.2903 53.2361L31.3892 53.9687V53.8466C31.145 53.4803 31.0229 53.114 31.0229 52.6256C31.0229 52.1372 31.145 51.7709 31.5113 51.2825C31.7555 50.9162 32.1218 50.5499 32.4881 50.3057C32.8544 50.0615 33.3428 50.0615 33.7091 50.0615C34.0754 50.0615 34.6859 50.3057 35.0522 50.672L38.9594 53.2361L37.8605 55.0676L34.3196 52.6256C33.9533 52.3814 33.587 52.2593 33.2207 52.3814C32.8544 52.3814 32.6102 52.6256 32.366 52.9919C32.2439 53.2361 32.1218 53.4803 32.1218 53.7245C32.1218 53.9687 32.1218 54.2129 32.2439 54.4571C32.4881 54.5792 32.6102 54.8234 32.8544 54.9455Z" fill="#00395C"/>
<path d="M40.2967 52.015L34.1916 47.131C33.8253 46.7647 33.459 46.3984 33.3369 46.0321C33.2148 45.6658 33.2148 45.2995 33.2148 44.8111C33.3369 44.4448 33.459 44.0785 33.8253 43.7122C34.0695 43.468 34.1916 43.2238 34.4358 43.1017C34.68 42.9796 34.8021 42.8575 34.9242 42.7354L35.901 43.9564C35.7789 43.9564 35.7789 44.0785 35.6568 44.0785C35.5347 44.2006 35.5347 44.2006 35.4126 44.3227C35.1684 44.5669 35.1684 44.8111 35.1684 44.9332C35.1684 45.0553 35.2905 45.2995 35.5347 45.4216L41.6397 50.3056L40.2967 52.015ZM36.7557 44.689L37.9767 45.6658L35.1684 49.2067L33.9474 48.2299L36.7557 44.689Z" fill="#00395C"/>
<path d="M45.3015 46.3988C44.8131 46.8872 44.2026 47.2535 43.5921 47.4977C42.9816 47.6198 42.3711 47.6198 41.7606 47.4977C41.1501 47.3756 40.5396 47.0093 40.0512 46.3988C39.5628 45.9104 39.0744 45.2999 38.9523 44.6894C38.7081 44.0789 38.7081 43.4684 38.8302 42.8579C38.9523 42.2474 39.3186 41.6369 39.807 41.1485C40.2954 40.6601 40.9059 40.2938 41.5164 40.0496C42.1269 39.9275 42.7374 39.9275 43.3479 40.0496C43.9584 40.1717 44.5689 40.538 45.0573 41.1485C45.5457 41.6369 46.0341 42.2474 46.1562 42.8579C46.4004 43.4684 46.4004 44.0789 46.2783 44.6894C46.1562 45.2999 45.7899 45.7883 45.3015 46.3988ZM44.2026 45.2999C44.4468 45.0557 44.5689 44.8115 44.5689 44.4452C44.5689 44.201 44.5689 43.8347 44.3247 43.4684C44.2026 43.1021 43.9584 42.8579 43.5921 42.6137C43.2258 42.3695 42.9816 42.1253 42.6153 42.0032C42.249 41.8811 42.0048 41.759 41.6385 41.8811C41.3943 41.8811 41.028 42.0032 40.7838 42.2474C40.5396 42.4916 40.4175 42.7358 40.4175 43.1021C40.4175 43.3463 40.4175 43.7126 40.6617 44.0789C40.7838 44.4452 41.028 44.6894 41.3943 44.9336C41.7606 45.1778 42.0048 45.422 42.3711 45.5441C42.7374 45.6662 42.9816 45.7883 43.3479 45.6662C43.7142 45.5441 43.9584 45.5441 44.2026 45.2999Z" fill="#00395C"/>
<path d="M48.6028 42.8585L43.7188 37.364L45.184 36.0209L46.0387 36.9977C45.7945 36.5093 45.7945 36.143 45.9166 35.7767C46.0387 35.4104 46.1608 35.0441 46.5271 34.7999C46.6492 34.6778 46.6492 34.6778 46.7713 34.5557C46.8934 34.4336 47.0155 34.4336 47.0155 34.4336L48.2365 35.7767C48.1144 35.7767 47.9923 35.8988 47.8702 36.0209C47.7481 36.143 47.626 36.2651 47.5039 36.2651C47.2597 36.5093 47.1376 36.6314 47.0155 36.8756C46.8934 37.1198 46.8934 37.364 46.8934 37.6082C46.8934 37.8524 47.0155 38.0966 47.2597 38.3408L50.068 41.5154L48.6028 42.8585Z" fill="#00395C"/>
<path d="M52.5147 39.3175L48.3633 33.3346L49.9506 32.2357L50.6832 33.3346H50.8053C50.6832 32.8462 50.6832 32.4799 50.8053 32.1136C50.9274 31.7473 51.2937 31.381 51.66 31.1368C52.0263 30.8926 52.5147 30.7705 52.881 30.7705C53.3694 30.7705 53.7357 30.8926 53.9799 31.2589H54.102C53.9799 30.7705 53.9799 30.4042 54.2241 29.9158C54.3462 29.4274 54.7125 29.0611 55.2009 28.8169C55.8114 28.4506 56.2998 28.3285 56.9103 28.4506C57.5208 28.5727 58.0092 28.939 58.4976 29.5495L61.3059 33.5788L59.5965 34.6777L57.0324 30.8926C56.7882 30.5263 56.544 30.4042 56.2998 30.2821C56.0556 30.2821 55.6893 30.2821 55.4451 30.5263C55.2009 30.7705 54.9567 31.0147 54.9567 31.2589C54.9567 31.6252 54.9567 31.8694 55.2009 32.2357L57.765 35.8987L56.1777 36.9976L53.6136 33.2125C53.3694 32.9683 53.1252 32.7241 52.881 32.7241C52.6368 32.7241 52.2705 32.7241 52.0263 32.9683C51.7821 33.0904 51.66 33.2125 51.66 33.4567C51.5379 33.7009 51.5379 33.823 51.5379 34.0672C51.5379 34.3114 51.66 34.5556 51.7821 34.7998L54.2241 38.4628L52.5147 39.3175Z" fill="#00395C"/>
<path d="M64.3544 31.8691C63.9881 32.1133 63.4997 32.2354 63.1334 32.2354C62.7671 32.2354 62.4008 32.1133 62.0345 31.9912C61.6682 31.8691 61.424 31.5028 61.1798 31.0144C60.9356 30.6481 60.9356 30.2818 60.9356 30.0376C60.9356 29.6713 61.0577 29.4271 61.1798 29.1829C61.3019 28.9387 61.5461 28.6945 61.7903 28.4503C62.0345 28.2061 62.2787 27.9619 62.645 27.8398C63.0113 27.5956 63.2555 27.3514 63.4997 27.2293C63.7439 27.1072 63.866 26.9851 63.866 26.863C63.9881 26.7409 63.9881 26.6188 63.866 26.4967C63.7439 26.2525 63.4997 26.0083 63.2555 26.0083C63.0113 26.0083 62.7671 26.0083 62.4008 26.1304C62.0345 26.2525 61.9124 26.4967 61.7903 26.7409C61.6682 26.9851 61.6682 27.2293 61.6682 27.4735L59.9588 28.084C59.8367 27.5956 59.8367 27.2293 59.9588 26.7409C60.0809 26.3746 60.3251 25.8862 60.5693 25.5199C60.8135 25.1536 61.3019 24.7873 61.7903 24.5431C62.1566 24.2989 62.5229 24.1768 62.8892 24.1768C63.2555 24.1768 63.6218 24.0547 63.9881 24.1768C64.3544 24.1768 64.5986 24.2989 64.9649 24.5431C65.2091 24.7873 65.4533 25.0315 65.6975 25.3978L67.8953 29.7934L66.1859 30.6481L65.6975 29.7934C65.6975 30.0376 65.6975 30.2818 65.5754 30.526C65.4533 30.7702 65.3312 31.0144 65.087 31.2586C64.9649 31.6249 64.7207 31.747 64.3544 31.8691ZM64.2323 30.4039C64.4765 30.2818 64.7207 30.0376 64.8428 29.9155C64.9649 29.6713 65.087 29.4271 65.087 29.1829C65.087 28.9387 65.087 28.6945 64.9649 28.4503L64.5986 27.7177C64.5986 27.8398 64.4765 27.8398 64.4765 27.9619C64.3544 28.084 64.3544 28.084 64.2323 28.2061C64.1102 28.3282 63.9881 28.3282 63.866 28.4503C63.7439 28.5724 63.6218 28.5724 63.4997 28.6945C63.2555 28.8166 63.1334 28.9387 63.0113 29.1829C62.8892 29.4271 62.7671 29.4271 62.7671 29.6713C62.7671 29.7934 62.7671 30.0376 62.8892 30.1597C63.0113 30.4039 63.2555 30.526 63.4997 30.526C63.7439 30.6481 63.9881 30.526 64.2323 30.4039Z" fill="#00395C"/>
<path d="M70.085 21.1243L70.6955 22.5895L66.6662 24.2989L65.9336 22.8337L70.085 21.1243ZM66.1778 20.758L68.0093 20.0254L70.5734 26.3746C70.6955 26.4967 70.6955 26.6188 70.8176 26.7409C70.9397 26.863 71.0618 26.863 71.0618 26.863C71.1839 26.863 71.306 26.863 71.4281 26.7409C71.5502 26.7409 71.5502 26.6188 71.6723 26.6188C71.7944 26.6188 71.7944 26.4967 71.9165 26.4967L72.7712 27.7177C72.6491 27.8398 72.527 27.8398 72.4049 27.9619C72.2828 28.084 72.0386 28.2061 71.7944 28.3282C71.306 28.5724 70.9397 28.5724 70.5734 28.6945C70.2071 28.6945 69.8408 28.5724 69.4745 28.3282C69.1082 28.084 68.864 27.8398 68.7419 27.3514L66.1778 20.758Z" fill="#00395C"/>
<path d="M72.2905 19.4153C72.0463 19.5374 71.68 19.5374 71.4358 19.4153C71.1916 19.2932 70.9474 19.049 70.9474 18.8048C70.8253 18.5606 70.8253 18.3164 71.0695 18.0722C71.3137 17.828 71.4358 17.5838 71.68 17.5838C71.9242 17.4617 72.2905 17.4617 72.5347 17.5838C72.7789 17.7059 73.0231 17.9501 73.0231 18.1943C73.1452 18.4385 73.1452 18.6827 72.901 18.9269C72.7789 19.049 72.5347 19.2932 72.2905 19.4153ZM73.9999 27.4739L71.5579 20.5142L73.5115 19.9037L75.9535 26.8634L73.9999 27.4739Z" fill="#00395C"/>
<path d="M80.4778 25.642C79.7452 25.8862 79.1347 25.8862 78.5242 25.642C77.9137 25.5199 77.4253 25.1536 76.9369 24.6652C76.4485 24.1768 76.2043 23.5663 75.9601 22.8337C75.7159 22.1011 75.7159 21.3685 75.838 20.758C75.9601 20.1475 76.3264 19.6591 76.6927 19.1707C77.1811 18.6823 77.6695 18.4381 78.4021 18.1939C79.1347 17.9497 79.7452 17.9497 80.3557 18.1939C80.9662 18.316 81.4546 18.6823 81.943 19.1707C82.3093 19.6591 82.6756 20.2696 82.9198 21.0022C83.164 21.7348 83.164 22.3453 83.0419 23.0779C82.9198 23.6884 82.5535 24.1768 82.1872 24.6652C81.8209 25.1536 81.2104 25.3978 80.4778 25.642ZM80.1115 24.1768C80.4778 24.0547 80.722 23.9326 80.8441 23.6884C80.9662 23.4442 81.0883 23.2 81.0883 22.8337C81.0883 22.4674 81.0883 22.1011 80.9662 21.7348C80.8441 21.3685 80.722 21.0022 80.4778 20.6359C80.2336 20.3917 79.9894 20.1475 79.7452 20.0254C79.501 19.9033 79.1347 19.9033 78.8905 19.9033C78.5242 20.0254 78.28 20.1475 78.1579 20.3917C78.0358 20.6359 77.9137 20.8801 77.9137 21.2464C77.9137 21.6127 77.9137 21.979 78.0358 22.3453C78.1579 22.7116 78.28 23.0779 78.5242 23.4442C78.7684 23.6884 79.0126 23.9326 79.2568 24.0547C79.501 24.1768 79.8673 24.1768 80.1115 24.1768Z" fill="#00395C"/>
<path d="M86.4508 19.9025L87.0613 24.0539L84.9856 24.4202L83.8867 17.0942L85.8403 16.85L86.0845 18.071H86.2066C86.3287 17.5826 86.5729 17.2163 86.8171 16.9721C87.0613 16.7279 87.5497 16.4837 88.1602 16.3616C88.6486 16.2395 89.137 16.3616 89.5033 16.4837C89.8696 16.6058 90.2359 16.9721 90.4801 17.3384C90.7243 17.7047 90.9685 18.1931 90.9685 18.8036L91.7011 23.4434L89.7475 23.8097L89.137 19.5362C89.0149 19.0478 88.8928 18.8036 88.6486 18.5594C88.4044 18.3152 88.0381 18.3152 87.6718 18.3152C87.4276 18.3152 87.1834 18.4373 86.9392 18.5594C86.695 18.6815 86.5729 18.9257 86.5729 19.1699C86.3287 19.292 86.3287 19.5362 86.4508 19.9025Z" fill="#00395C"/>
<path d="M96.3419 13.1875H98.906L101.47 19.7809H101.592L104.4 13.3096H106.965L106.72 23.0776H104.767L104.889 16.7284H104.767L102.081 22.9555H100.737L98.2955 16.6063H98.1734L98.0513 22.9555H96.0977L96.3419 13.1875Z" fill="#00395C"/>
<path d="M110.142 23.8102C109.653 23.6881 109.287 23.566 108.921 23.3218C108.555 23.0776 108.31 22.8334 108.188 22.4671C108.066 22.1008 107.944 21.7345 108.066 21.2461C108.188 20.8798 108.31 20.5135 108.433 20.2693C108.677 20.0251 108.799 19.7809 109.165 19.6588C109.531 19.5367 109.776 19.4146 110.142 19.4146C110.508 19.4146 110.875 19.4146 111.241 19.4146C111.729 19.4146 111.973 19.4146 112.218 19.4146C112.462 19.4146 112.706 19.4146 112.828 19.2925C112.95 19.2925 113.072 19.1704 113.072 18.9262C113.072 18.682 113.072 18.4378 112.95 18.1936C112.828 17.9494 112.584 17.8273 112.218 17.8273C111.851 17.8273 111.607 17.8273 111.363 17.9494C111.119 18.0715 110.997 18.1936 110.875 18.4378L109.043 17.9494C109.165 17.5831 109.409 17.2168 109.776 16.8505C110.142 16.6063 110.508 16.3621 110.997 16.24C111.485 16.1179 111.973 16.1179 112.584 16.24C112.95 16.3621 113.317 16.3621 113.683 16.6063C114.049 16.7284 114.293 16.9726 114.66 17.2168C115.026 17.461 115.148 17.7052 115.27 18.0715C115.392 18.4378 115.392 18.8041 115.392 19.1704L114.66 24.0544H112.34L112.462 23.0776C112.34 23.3218 112.096 23.4439 111.851 23.566C111.607 23.6881 111.363 23.8102 111.119 23.8102C110.752 23.9323 110.386 23.9323 110.142 23.8102ZM110.875 22.5892C111.119 22.5892 111.485 22.5892 111.729 22.5892C111.973 22.5892 112.218 22.345 112.34 22.2229C112.462 22.1008 112.584 21.8566 112.584 21.6124L112.706 20.8798C112.584 20.8798 112.584 20.8798 112.462 21.0019C112.34 21.0019 112.218 21.0019 112.096 21.0019C111.973 21.0019 111.851 21.0019 111.729 21.0019C111.607 21.0019 111.485 21.0019 111.363 21.0019C111.119 21.0019 110.874 21.0019 110.752 21.124C110.508 21.124 110.386 21.2461 110.264 21.3682C110.142 21.4903 110.02 21.6124 110.02 21.8566C110.02 22.1008 110.02 22.345 110.264 22.4671C110.386 22.4671 110.508 22.4671 110.875 22.5892Z" fill="#00395C"/>
<path d="M118.56 21.0023L117.461 25.1537L115.508 24.6653L117.339 17.5835L119.171 18.0719L118.805 19.2929H118.927C119.171 18.9266 119.537 18.6824 120.026 18.5603C120.514 18.4382 120.88 18.4382 121.491 18.5603C121.979 18.6824 122.345 18.9266 122.712 19.1708C123.078 19.5371 123.2 19.9034 123.322 20.2697C123.444 20.636 123.444 21.2465 123.2 21.7349L121.979 26.2526L120.026 25.7642L121.124 21.6128C121.247 21.1244 121.247 20.7581 121.002 20.5139C120.88 20.2697 120.514 20.0255 120.148 19.9034C119.903 19.7813 119.659 19.7813 119.415 19.9034C119.171 19.9034 118.927 20.1476 118.805 20.2697C118.682 20.3918 118.682 20.7581 118.56 21.0023Z" fill="#00395C"/>
<path d="M125.28 27.595C124.791 27.4729 124.425 27.2287 124.181 26.8624C123.936 26.6182 123.692 26.2519 123.57 25.8856C123.448 25.5193 123.57 25.153 123.692 24.6646C123.814 24.2983 124.059 23.932 124.303 23.8099C124.547 23.5657 124.791 23.4436 125.157 23.4436C125.524 23.4436 125.768 23.3215 126.134 23.4436C126.501 23.4436 126.867 23.5657 127.111 23.6878C127.477 23.8099 127.844 23.932 128.088 23.932C128.332 23.932 128.576 24.0541 128.698 23.932C128.82 23.8099 128.943 23.8099 128.943 23.6878C129.065 23.4436 129.065 23.1994 128.943 22.9552C128.82 22.711 128.576 22.5889 128.332 22.4668C127.966 22.3447 127.722 22.3447 127.477 22.3447C127.233 22.4668 126.989 22.5889 126.867 22.711L125.157 21.8563C125.402 21.49 125.768 21.1237 126.134 21.0016C126.501 20.7574 126.989 20.6353 127.355 20.6353C127.844 20.6353 128.332 20.7574 128.943 20.8795C129.309 21.0016 129.675 21.2458 130.041 21.3679C130.408 21.49 130.652 21.8563 130.774 22.1005C131.018 22.3447 131.14 22.711 131.14 23.0773C131.14 23.4436 131.14 23.8099 131.018 24.1762L129.309 28.816L127.477 28.0834L127.844 27.1066C127.599 27.2287 127.477 27.3508 127.233 27.4729C126.989 27.595 126.745 27.595 126.378 27.595C125.89 27.8392 125.646 27.7171 125.28 27.595ZM126.256 26.4961C126.501 26.6182 126.745 26.6182 127.111 26.6182C127.355 26.6182 127.599 26.4961 127.844 26.374C128.088 26.2519 128.21 26.0077 128.332 25.7635L128.576 25.0309C128.454 25.0309 128.454 25.0309 128.332 25.0309C128.21 25.0309 128.088 25.0309 127.966 25.0309C127.844 25.0309 127.722 25.0309 127.599 24.9088C127.477 24.7867 127.355 24.9088 127.233 24.7867C126.989 24.7867 126.745 24.6646 126.623 24.6646C126.378 24.6646 126.256 24.6646 126.134 24.7867C126.012 24.9088 125.89 25.0309 125.768 25.153C125.646 25.3972 125.646 25.6414 125.768 25.8856C125.768 26.2519 126.012 26.374 126.256 26.4961Z" fill="#00395C"/>
<path d="M131.998 33.578C131.388 33.3338 130.899 32.9675 130.655 32.6012C130.289 32.2349 130.045 31.8686 130.045 31.5023C129.923 31.136 129.923 30.7697 130.045 30.2813L131.876 30.8918C131.876 31.0139 131.876 31.2581 131.876 31.3802C131.876 31.5023 131.998 31.7465 132.12 31.8686C132.242 31.9907 132.487 32.2349 132.731 32.357C133.097 32.6012 133.464 32.6012 133.83 32.6012C134.196 32.4791 134.44 32.2349 134.685 31.8686L135.295 30.6476H135.173C135.051 30.7697 134.807 30.8918 134.562 31.0139C134.318 31.136 134.074 31.136 133.708 31.136C133.464 31.136 133.097 31.0139 132.731 30.8918C132.242 30.6476 131.876 30.2813 131.51 29.915C131.266 29.4266 131.022 28.9382 131.022 28.3277C131.022 27.7172 131.144 27.1067 131.51 26.3741C131.876 25.6415 132.365 25.031 132.853 24.6647C133.341 24.2984 133.83 24.0542 134.44 24.0542C134.929 24.0542 135.417 24.0542 135.906 24.2984C136.272 24.5426 136.516 24.6647 136.76 24.9089C137.004 25.1531 137.127 25.3973 137.127 25.6415C137.127 25.8857 137.249 26.1299 137.249 26.3741H137.371L137.981 25.2752L139.813 26.1299L136.516 32.7233C136.272 33.3338 135.906 33.7001 135.417 33.9443C134.929 34.1885 134.44 34.3106 133.83 34.1885C133.219 34.0664 132.609 33.8222 131.998 33.578ZM134.074 29.5487C134.318 29.6708 134.685 29.7929 134.929 29.6708C135.173 29.5487 135.417 29.5487 135.661 29.3045C135.906 29.0603 136.15 28.8161 136.272 28.4498C136.516 28.0835 136.638 27.7172 136.638 27.3509C136.638 26.9846 136.638 26.7404 136.516 26.4962C136.394 26.252 136.15 26.0078 135.906 25.8857C135.661 25.7636 135.295 25.6415 135.051 25.7636C134.807 25.7636 134.44 26.0078 134.196 26.252C133.952 26.4962 133.708 26.7404 133.586 27.1067C133.341 27.473 133.341 27.8393 133.219 28.2056C133.219 28.5719 133.219 28.8161 133.341 29.0603C133.586 29.1824 133.83 29.4266 134.074 29.5487Z" fill="#00395C"/>
<path d="M140.42 35.1653C139.81 34.799 139.321 34.3106 139.077 33.7001C138.833 33.0896 138.711 32.6012 138.711 31.8686C138.711 31.2581 138.955 30.6476 139.444 29.915C139.81 29.3045 140.298 28.8161 140.909 28.4498C141.519 28.0835 142.008 27.9614 142.618 27.9614C143.229 27.9614 143.839 28.2056 144.45 28.5719C144.816 28.8161 145.182 29.1824 145.426 29.5487C145.671 29.915 145.915 30.2813 145.915 30.7697C145.915 31.2581 146.037 31.6244 145.915 32.1128C145.793 32.6012 145.549 33.0896 145.304 33.578L145.06 34.0664L139.81 30.7697L140.542 29.6708L144.083 31.9907C144.205 31.7465 144.328 31.5023 144.328 31.2581C144.328 31.0139 144.328 30.7697 144.205 30.5255C144.083 30.2813 143.961 30.1592 143.595 29.915C143.351 29.7929 143.107 29.6708 142.74 29.6708C142.496 29.6708 142.252 29.6708 142.008 29.7929C141.763 29.915 141.519 30.1592 141.397 30.4034L140.787 31.3802C140.542 31.6244 140.42 31.9907 140.42 32.2349C140.42 32.4791 140.42 32.8454 140.542 33.0896C140.665 33.3338 140.909 33.578 141.153 33.7001C141.397 33.8222 141.519 33.9443 141.763 33.9443C142.008 33.9443 142.13 33.9443 142.374 33.9443C142.496 33.9443 142.74 33.8222 142.862 33.7001L144.328 34.799C143.961 35.1653 143.595 35.4095 143.229 35.5316C142.862 35.6537 142.374 35.6537 141.886 35.5316C141.519 35.7758 141.031 35.5316 140.42 35.1653Z" fill="#00395C"/>
<path d="M144.328 37.4862L149.09 31.8696L150.555 33.0906L149.701 34.0674H149.823C150.189 33.8232 150.677 33.7011 151.044 33.8232C151.532 33.8232 151.898 34.0674 152.265 34.3116C152.631 34.6779 152.875 35.0442 152.997 35.4105C153.119 35.7768 153.119 36.2652 152.875 36.6315C153.241 36.3873 153.73 36.3873 154.096 36.3873C154.462 36.3873 154.951 36.6315 155.439 36.9978C155.928 37.4862 156.294 37.9746 156.294 38.5851C156.294 39.1956 156.05 39.8061 155.561 40.4166L152.387 44.2017L150.799 42.8586L153.73 39.4398C153.974 39.0735 154.096 38.8293 154.096 38.5851C154.096 38.3409 153.974 38.0967 153.73 37.8525C153.486 37.6083 153.119 37.4862 152.875 37.6083C152.509 37.6083 152.265 37.8525 152.02 38.0967L149.09 41.5155L147.625 40.2945L150.555 36.7536C150.799 36.5094 150.922 36.1431 150.922 35.8989C150.922 35.6547 150.799 35.2884 150.555 35.1663C150.433 35.0442 150.189 34.9221 149.945 34.9221C149.701 34.9221 149.578 34.9221 149.334 35.0442C149.09 35.1663 148.968 35.2884 148.724 35.5326L145.915 38.9514L144.328 37.4862Z" fill="#00395C"/>
<path d="M155.44 47.8641C154.951 47.2536 154.585 46.7652 154.463 46.1547C154.341 45.5442 154.341 44.9337 154.585 44.3232C154.829 43.7127 155.196 43.2243 155.806 42.6138C156.417 42.1254 156.905 41.7591 157.516 41.637C158.126 41.5149 158.737 41.5149 159.347 41.637C159.958 41.7591 160.446 42.1254 160.934 42.7359C161.301 43.1022 161.545 43.4685 161.667 43.8348C161.789 44.2011 161.911 44.6895 161.911 45.0558C161.911 45.5442 161.789 45.9105 161.545 46.3989C161.301 46.8873 160.934 47.2536 160.568 47.742L160.202 48.1083L156.05 43.5906L157.027 42.7359L159.958 45.9105C160.202 45.6663 160.324 45.5442 160.446 45.3C160.568 45.0558 160.568 44.8116 160.446 44.5674C160.446 44.3232 160.324 44.079 160.08 43.8348C159.835 43.5906 159.591 43.4685 159.347 43.3464C159.103 43.2243 158.859 43.2243 158.614 43.3464C158.37 43.3464 158.126 43.5906 157.882 43.7127L157.027 44.5674C156.783 44.8116 156.539 45.0558 156.417 45.3C156.295 45.5442 156.295 45.9105 156.295 46.1547C156.295 46.3989 156.539 46.6431 156.783 47.0094C156.905 47.1315 157.149 47.2536 157.271 47.3757C157.393 47.4978 157.638 47.4978 157.76 47.4978C158.004 47.4978 158.126 47.4978 158.37 47.3757L159.591 48.8409C159.225 49.0851 158.737 49.2072 158.37 49.2072C157.882 49.2072 157.516 49.0851 157.027 48.8409C156.295 48.7188 155.806 48.3525 155.44 47.8641Z" fill="#00395C"/>
<path d="M163.132 50.306L159.713 52.8701L158.492 51.2828L164.353 47.0093L165.452 48.5966L164.353 49.3292V49.4513C164.841 49.3292 165.208 49.3292 165.696 49.4513C166.184 49.5734 166.551 49.9397 166.795 50.306C167.039 50.6723 167.283 51.1607 167.283 51.527C167.283 52.0154 167.283 52.3817 167.039 52.748C166.795 53.1143 166.551 53.4806 166.062 53.8469L162.277 56.6552L161.056 55.0679L164.475 52.5038C164.841 52.2596 165.086 51.8933 165.086 51.6491C165.208 51.2828 165.086 51.0386 164.841 50.6723C164.719 50.4281 164.475 50.306 164.231 50.1839C163.987 50.0618 163.742 50.0618 163.498 50.0618C163.62 49.9397 163.376 50.0618 163.132 50.306Z" fill="#00395C"/>
<path d="M171.191 53.481L172.29 55.1904L166.429 58.7313C166.307 58.8534 166.185 58.9755 166.063 58.9755C165.941 58.9755 165.941 59.2197 166.063 59.3418C166.185 59.4639 166.185 59.586 166.185 59.7081C166.185 59.8302 166.307 59.8302 166.307 59.9523C166.429 60.0744 166.429 60.0744 166.429 60.0744L165.33 61.1733C165.208 61.0512 165.086 61.0512 164.964 60.807C164.842 60.6849 164.72 60.4407 164.598 60.3186C164.353 59.9523 164.109 59.4639 164.109 59.0976C163.987 58.7313 164.109 58.365 164.231 57.9987C164.353 57.6324 164.72 57.3882 165.086 57.144L171.191 53.481ZM171.557 57.2661L170.214 57.9987L167.894 54.2136L169.237 53.481L171.557 57.2661Z" fill="#00395C"/>
<path d="M175.706 66.9114C176.072 66.6672 176.194 66.423 176.316 66.0567C176.439 65.6904 176.316 65.3241 176.194 64.8357C176.072 64.4694 175.95 64.2252 175.706 64.1031C175.584 63.981 175.34 63.8589 175.095 63.7368C174.851 63.7368 174.729 63.7368 174.485 63.7368C174.363 63.8589 174.241 63.8589 174.119 63.981C173.997 64.1031 173.997 64.2252 173.997 64.4694C173.997 64.5915 173.997 64.8357 173.997 65.0799C173.997 65.3241 173.997 65.4462 174.119 65.6904L174.241 66.5451C174.363 67.0335 174.363 67.3998 174.363 67.7661C174.363 68.1324 174.363 68.4987 174.241 68.865C174.119 69.2313 173.997 69.4755 173.752 69.7197C173.508 69.9639 173.264 70.2081 172.898 70.3302C172.409 70.5744 171.799 70.6965 171.31 70.5744C170.822 70.4523 170.334 70.2081 169.845 69.8418C169.357 69.4755 168.99 68.865 168.746 68.1324C168.38 67.3998 168.258 66.7893 168.258 66.0567C168.258 65.4462 168.38 64.8357 168.746 64.3473C168.99 63.8589 169.479 63.4926 170.211 63.1263L171.066 64.9578C170.822 65.0799 170.578 65.3241 170.456 65.5683C170.334 65.8125 170.211 66.0567 170.334 66.423C170.334 66.6672 170.456 67.0335 170.578 67.3998C170.7 67.7661 170.944 68.0103 171.066 68.1324C171.31 68.3766 171.432 68.4987 171.677 68.4987C171.921 68.4987 172.165 68.4987 172.287 68.4987C172.531 68.3766 172.653 68.2545 172.776 68.1324C172.898 68.0103 172.898 67.7661 172.898 67.5219C172.898 67.2777 172.898 66.9114 172.776 66.5451L172.531 65.4462C172.409 64.5915 172.409 63.8589 172.653 63.2484C172.898 62.6379 173.264 62.1495 173.997 61.9053C174.485 61.6611 175.095 61.6611 175.584 61.6611C176.072 61.7832 176.561 62.0274 177.049 62.3937C177.537 62.76 177.904 63.3705 178.148 63.981C178.392 64.5915 178.636 65.3241 178.514 65.8125C178.514 66.423 178.392 66.9114 178.026 67.3998C177.66 67.8882 177.293 68.2545 176.805 68.4987L175.706 66.9114Z" fill="#00395C"/>
<path d="M168.38 74.7258C168.258 74.4816 168.258 74.2374 168.258 73.9932C168.258 73.749 168.258 73.6269 168.258 73.3827H169.845C169.845 73.6269 169.845 73.8711 169.967 73.9932C169.967 74.2374 170.089 74.3595 170.211 74.4816C170.334 74.6037 170.578 74.6037 170.822 74.7258H171.188L177.537 69.9639L178.148 72.0396L173.508 75.0921V75.2142L179.125 75.0921L179.735 77.1678L171.188 76.9236C170.822 76.9236 170.334 76.8015 170.089 76.6794C169.723 76.5573 169.479 76.3131 169.113 76.0689C168.746 75.5805 168.502 75.0921 168.38 74.7258Z" fill="#00395C"/>
<path d="M179.256 84.8611L178.767 83.0296C178.889 82.9075 179.011 82.9075 179.134 82.7854C179.256 82.6633 179.256 82.5412 179.378 82.297C179.378 82.0528 179.378 81.9307 179.378 81.6865C179.256 81.3202 179.134 81.076 179.011 80.9539C178.889 80.7097 178.645 80.7097 178.401 80.7097C178.279 80.7097 178.157 80.8318 178.035 80.9539C177.913 81.076 177.913 81.3202 177.913 81.6865V83.0296C177.913 83.7622 177.79 84.3727 177.546 84.739C177.302 85.1053 176.936 85.3495 176.447 85.4716C175.959 85.5937 175.593 85.4716 175.104 85.3495C174.738 85.1053 174.372 84.8611 174.005 84.3727C173.761 83.8843 173.517 83.3959 173.395 82.7854C173.151 81.8086 173.273 81.076 173.517 80.3434C173.761 79.7329 174.25 79.2445 174.982 79.0003L175.471 80.9539C175.226 81.076 174.982 81.3202 174.86 81.5644C174.738 81.8086 174.738 82.1749 174.86 82.5412C174.982 82.9075 175.104 83.1517 175.226 83.3959C175.348 83.518 175.593 83.6401 175.837 83.6401C175.959 83.6401 176.203 83.518 176.203 83.2738C176.325 83.1517 176.325 82.9075 176.325 82.5412V81.1981C176.325 80.4655 176.447 79.855 176.692 79.4887C176.936 79.1224 177.424 78.7561 177.913 78.7561C178.401 78.634 178.767 78.7561 179.134 78.8782C179.5 79.0003 179.866 79.3666 180.11 79.7329C180.355 80.0992 180.599 80.7097 180.721 81.3202C180.965 82.1749 180.843 83.0296 180.599 83.6401C180.355 84.2506 179.866 84.6169 179.256 84.8611Z" fill="#00395C"/>
<path d="M183.279 86.5696L183.523 88.5232L176.808 89.3778C176.564 89.3778 176.442 89.5 176.442 89.5C176.319 89.6221 176.319 89.6221 176.197 89.7442C176.197 89.8663 176.197 89.9884 176.197 90.1105C176.197 90.2326 176.197 90.3547 176.319 90.3547C176.319 90.4768 176.319 90.4767 176.442 90.5988L174.976 91.0873C174.976 90.9652 174.854 90.8431 174.854 90.721C174.732 90.5989 174.732 90.3547 174.732 90.1105C174.61 89.6221 174.61 89.1336 174.732 88.7673C174.854 88.401 174.976 88.0348 175.343 87.7906C175.587 87.5464 175.953 87.4242 176.442 87.3021L183.279 86.5696ZM182.058 90.1105L180.593 90.3547L179.982 85.959L181.448 85.7148L182.058 90.1105Z" fill="#00395C"/>
<path d="M174.852 95.4833C174.852 94.7507 174.974 94.0181 175.218 93.5297C175.462 92.9192 175.95 92.5529 176.439 92.1866C177.049 91.8203 177.66 91.6982 178.392 91.6982C179.125 91.6982 179.858 91.8203 180.346 92.0645C180.957 92.3087 181.445 92.675 181.689 93.2855C182.055 93.7739 182.178 94.3844 182.3 95.117C182.3 95.6054 182.3 96.0938 182.178 96.4601C182.055 96.8264 181.811 97.3149 181.567 97.5591C181.323 97.9254 180.957 98.1696 180.468 98.2917C179.98 98.5359 179.491 98.5359 178.881 98.658H178.27L178.026 92.4308H179.247L179.369 96.7043C179.613 96.7043 179.98 96.5822 180.102 96.4601C180.346 96.338 180.468 96.0938 180.59 95.9717C180.712 95.8496 180.712 95.4833 180.712 95.2391C180.712 94.8728 180.59 94.6287 180.468 94.3845C180.346 94.1403 180.102 94.0181 179.858 93.896C179.613 93.7739 179.369 93.7739 179.003 93.7739H177.782C177.416 93.7739 177.049 93.896 176.805 94.0181C176.561 94.1402 176.317 94.3844 176.195 94.6286C176.073 94.8728 175.95 95.2391 176.073 95.4833C176.073 95.7275 176.073 95.9717 176.195 96.0938C176.317 96.338 176.317 96.4601 176.561 96.5822C176.683 96.7043 176.805 96.8265 177.049 96.8265V98.658C176.561 98.5359 176.195 98.4138 175.828 98.1696C175.462 97.9254 175.218 97.559 174.974 97.0706C174.974 96.5822 174.852 96.0938 174.852 95.4833Z" fill="#00395C"/>
<path d="M175.227 99.8789L182.553 100.489L182.431 102.443L181.088 102.321V102.443C181.454 102.687 181.82 102.931 182.064 103.298C182.309 103.664 182.309 104.152 182.309 104.641C182.309 105.129 182.064 105.618 181.82 105.862C181.576 106.228 181.21 106.35 180.721 106.472V106.594C181.088 106.839 181.454 107.083 181.698 107.449C181.942 107.815 181.942 108.304 181.942 108.914C181.942 109.647 181.576 110.135 181.088 110.502C180.599 110.868 179.989 110.99 179.134 110.99L174.25 110.502L174.372 108.426L178.89 108.792C179.256 108.792 179.622 108.792 179.867 108.548C180.111 108.304 180.233 108.06 180.233 107.815C180.233 107.449 180.233 107.205 179.989 106.961C179.745 106.717 179.5 106.594 179.134 106.594L174.738 106.228L174.861 104.275L179.378 104.641C179.745 104.641 179.989 104.641 180.233 104.397C180.477 104.152 180.599 103.908 180.599 103.664C180.599 103.42 180.599 103.176 180.477 103.054C180.355 102.809 180.233 102.687 179.989 102.565C179.745 102.443 179.622 102.321 179.256 102.321L174.861 101.955L175.227 99.8789Z" fill="#00395C"/>
<path d="M65.1924 137.607V136.264L68.367 133.334C68.6112 133.09 68.8554 132.845 69.0996 132.601C69.3438 132.357 69.4659 132.235 69.4659 131.991C69.588 131.746 69.588 131.624 69.588 131.38C69.588 131.136 69.588 130.892 69.4659 130.648C69.3438 130.403 69.2217 130.281 68.9775 130.159C68.7333 130.037 68.4891 130.037 68.2449 130.037C68.0007 130.037 67.7565 130.037 67.5123 130.159C67.2681 130.281 67.146 130.403 67.0239 130.648C66.9018 130.892 66.9018 131.136 66.9018 131.38H65.0703C65.0703 130.77 65.1924 130.281 65.4366 129.793C65.6808 129.304 66.0471 129.06 66.5355 128.816C67.0239 128.572 67.5123 128.45 68.2449 128.45C68.8554 128.45 69.4659 128.572 69.9543 128.816C70.4427 129.06 70.809 129.304 71.0532 129.793C71.2974 130.159 71.4195 130.648 71.4195 131.136C71.4195 131.502 71.2974 131.869 71.1753 132.113C71.0532 132.479 70.809 132.845 70.4427 133.212C70.0764 133.578 69.588 134.066 68.9775 134.677L67.6344 135.898V136.02H71.4195V137.607H65.1924Z" fill="#00395C"/>
<path d="M73.2511 137.607L76.9141 130.281H72.6406V128.694H78.9898V130.281L75.3268 137.729H73.2511V137.607Z" fill="#00395C"/>
<path d="M80.8175 137.607L84.4805 130.281H80.207V128.694H86.5562V130.281L82.8932 137.729H80.8175V137.607Z" fill="#00395C"/>
<path d="M91.1982 137.729C90.4656 137.729 89.8551 137.485 89.2446 137.119C88.6341 136.753 88.2678 136.264 88.0236 135.532C87.7794 134.799 87.5352 133.944 87.5352 132.967C87.5352 131.991 87.6573 131.136 88.0236 130.525C88.2678 129.793 88.7562 129.304 89.2446 128.938C89.733 128.572 90.4656 128.45 91.1982 128.45C91.9308 128.45 92.5413 128.572 93.1518 128.938C93.6402 129.304 94.1286 129.793 94.3728 130.525C94.617 131.258 94.8612 131.991 94.8612 132.967C94.8612 133.944 94.7391 134.799 94.3728 135.532C94.0065 136.264 93.6402 136.753 93.1518 137.119C92.5413 137.607 91.9308 137.729 91.1982 137.729ZM91.1982 136.142C91.6866 136.142 92.175 135.898 92.4192 135.409C92.6634 134.921 92.9076 134.066 92.9076 133.09C92.9076 132.357 92.7855 131.869 92.6634 131.38C92.5413 130.892 92.2971 130.648 92.0529 130.403C91.8087 130.159 91.5645 130.037 91.1982 130.037C90.7098 130.037 90.2214 130.281 89.9772 130.77C89.733 131.258 89.4888 131.991 89.4888 133.09C89.4888 133.822 89.6109 134.311 89.733 134.799C89.8551 135.287 90.0993 135.654 90.3435 135.776C90.5877 135.898 90.8319 136.142 91.1982 136.142Z" fill="#00395C"/>
<path d="M99.9942 128.572V137.485H98.0406V130.281L95.9648 131.624V129.915L98.1626 128.45H99.9942V128.572Z" fill="#00395C"/>
<path d="M103.29 132.967C103.046 132.967 102.802 132.845 102.558 132.601C102.314 132.357 102.191 132.113 102.191 131.868C102.191 131.624 102.314 131.38 102.558 131.136C102.802 130.892 103.046 130.892 103.29 130.892C103.535 130.892 103.779 131.014 104.023 131.136C104.267 131.258 104.389 131.624 104.389 131.868C104.389 132.113 104.389 132.235 104.267 132.357C104.145 132.479 104.023 132.601 103.901 132.723C103.657 132.967 103.412 132.967 103.29 132.967ZM103.29 137.729C103.046 137.729 102.802 137.607 102.558 137.363C102.314 137.119 102.191 136.875 102.191 136.63C102.191 136.386 102.314 136.142 102.558 135.898C102.802 135.654 103.046 135.531 103.29 135.531C103.535 135.531 103.779 135.654 104.023 135.898C104.267 136.142 104.389 136.386 104.389 136.63C104.389 136.875 104.389 136.997 104.267 137.119C104.145 137.241 104.023 137.363 103.901 137.485C103.657 137.607 103.412 137.729 103.29 137.729Z" fill="#00395C"/>
<path d="M105.853 137.607V136.264L109.027 133.334C109.271 133.09 109.516 132.845 109.76 132.601C110.004 132.357 110.126 132.235 110.126 131.991C110.126 131.746 110.248 131.624 110.248 131.38C110.248 131.136 110.248 130.892 110.126 130.648C110.004 130.403 109.882 130.281 109.638 130.159C109.393 130.037 109.149 130.037 108.905 130.037C108.661 130.037 108.417 130.037 108.172 130.159C107.928 130.281 107.806 130.403 107.684 130.648C107.562 130.892 107.562 131.136 107.562 131.38H105.73C105.73 130.77 105.853 130.281 106.097 129.793C106.341 129.304 106.707 129.06 107.196 128.816C107.684 128.572 108.172 128.45 108.905 128.45C109.516 128.45 110.126 128.572 110.614 128.816C111.103 129.06 111.469 129.304 111.713 129.793C111.958 130.159 112.08 130.648 112.08 131.136C112.08 131.502 111.958 131.869 111.835 132.113C111.713 132.479 111.469 132.845 111.103 133.212C110.737 133.578 110.248 134.066 109.638 134.677L108.295 135.898V136.02H112.08V137.607H105.853Z" fill="#00395C"/>
<path d="M117.085 137.729C116.352 137.729 115.742 137.485 115.131 137.119C114.521 136.753 114.154 136.264 113.91 135.532C113.666 134.799 113.422 133.944 113.422 132.967C113.422 131.991 113.544 131.136 113.91 130.525C114.154 129.793 114.643 129.304 115.131 128.938C115.62 128.572 116.352 128.45 117.085 128.45C117.817 128.45 118.428 128.572 119.038 128.938C119.527 129.304 120.015 129.793 120.259 130.525C120.504 131.258 120.748 131.991 120.748 132.967C120.748 133.944 120.626 134.799 120.259 135.532C120.015 136.264 119.527 136.753 119.038 137.119C118.55 137.607 117.817 137.729 117.085 137.729ZM117.085 136.142C117.573 136.142 118.062 135.898 118.306 135.409C118.55 134.921 118.794 134.066 118.794 133.09C118.794 132.357 118.672 131.869 118.55 131.38C118.428 130.892 118.184 130.648 117.94 130.403C117.695 130.159 117.329 130.037 117.085 130.037C116.596 130.037 116.108 130.281 115.864 130.77C115.62 131.258 115.375 131.991 115.375 133.09C115.375 133.822 115.498 134.311 115.62 134.799C115.742 135.287 115.986 135.654 116.23 135.776C116.474 135.898 116.719 136.142 117.085 136.142Z" fill="#00395C"/>
<path d="M125.998 128.572V137.485H124.044V130.281L121.969 131.624V129.915L124.167 128.45H125.998V128.572Z" fill="#00395C"/>
<path d="M131.363 128.45C131.852 128.45 132.218 128.572 132.706 128.694C133.195 128.816 133.561 129.06 133.805 129.427C134.171 129.793 134.416 130.159 134.66 130.77C134.904 131.38 134.904 131.991 134.904 132.845C134.904 133.578 134.782 134.311 134.66 134.921C134.538 135.532 134.294 136.02 133.927 136.386C133.561 136.753 133.195 137.119 132.828 137.363C132.34 137.607 131.852 137.729 131.363 137.729C130.753 137.729 130.264 137.607 129.776 137.363C129.287 137.119 128.921 136.875 128.677 136.386C128.433 136.02 128.189 135.532 128.189 135.043H130.02C130.142 135.409 130.264 135.654 130.508 135.776C130.753 135.898 130.997 136.02 131.363 136.02C131.974 136.02 132.34 135.776 132.706 135.287C132.95 134.799 133.195 134.066 133.195 133.212H133.073C132.95 133.456 132.706 133.7 132.584 133.944C132.462 134.188 132.096 134.311 131.852 134.433C131.607 134.555 131.241 134.555 130.875 134.555C130.386 134.555 129.898 134.433 129.41 134.188C129.043 133.944 128.677 133.578 128.433 133.212C128.189 132.723 128.066 132.235 128.066 131.746C128.066 131.136 128.189 130.648 128.433 130.159C128.677 129.671 129.043 129.304 129.654 129.06C130.142 128.572 130.631 128.45 131.363 128.45ZM131.363 130.037C131.119 130.037 130.753 130.159 130.631 130.281C130.386 130.403 130.264 130.648 130.142 130.892C130.02 131.136 129.898 131.38 129.898 131.624C129.898 131.869 130.02 132.235 130.142 132.479C130.264 132.723 130.508 132.845 130.631 133.09C130.753 133.334 131.119 133.334 131.363 133.334C131.607 133.334 131.729 133.334 131.974 133.212C132.218 133.09 132.34 132.967 132.462 132.845C132.584 132.723 132.706 132.479 132.828 132.357C132.95 132.235 132.95 131.991 132.95 131.746C132.95 131.502 132.828 131.258 132.706 131.014C132.584 130.77 132.34 130.648 132.218 130.403C131.852 130.037 131.607 130.037 131.363 130.037Z" fill="#00395C"/>
</g>
</g>
<defs>
<clipPath id="clip0_4005_877">
<rect width="200" height="200" fill="white"/>
</clipPath>
<clipPath id="clip1_4005_877">
<rect width="200" height="200" fill="white"/>
</clipPath>
</defs>
</svg>
