<svg width="200" height="200" viewBox="0 0 200 200" fill="none" xmlns="http://www.w3.org/2000/svg">
<g clip-path="url(#clip0_4005_950)">
<g clip-path="url(#clip1_4005_950)">
<path d="M99.9918 200.536C154.804 200.536 199.237 155.592 199.237 100.15C199.237 44.7082 154.804 -0.236328 99.9918 -0.236328C45.1799 -0.236328 0.746094 44.7082 0.746094 100.15C0.746094 155.592 45.1799 200.536 99.9918 200.536Z" fill="white"/>
<path d="M100 201.299C44.8596 201.299 0 155.923 0 100.15C0 44.3757 44.8596 -1 100 -1C155.14 -1 200 44.3754 200 100.15C200 155.924 155.14 201.299 100 201.299ZM100 2.24519C46.6288 2.2452 3.20832 46.1649 3.20832 100.15C3.20832 154.134 46.6288 198.054 100 198.054C153.371 198.054 196.792 154.134 196.792 100.15C196.792 46.1649 153.371 2.24519 100 2.24519Z" fill="#00395C"/>
<path d="M100.006 166.585C63.7887 166.585 34.3242 136.782 34.3242 100.149C34.3242 63.5162 63.7887 33.7129 100.006 33.7129C136.222 33.7129 165.687 63.5162 165.687 100.149C165.687 136.782 136.222 166.585 100.006 166.585ZM100.006 36.9581C65.5578 36.9581 37.5325 65.3055 37.5325 100.149C37.5325 134.993 65.5578 163.34 100.006 163.34C134.453 163.34 162.479 134.993 162.479 100.149C162.479 65.3057 134.454 36.9581 100.006 36.9581Z" fill="#00395C"/>
<path d="M64.0497 138.196V136.793L67.2904 133.758C67.5661 133.488 67.798 133.245 67.9865 133.029C68.175 132.813 68.3175 132.601 68.4152 132.393C68.5134 132.185 68.5624 131.959 68.5624 131.716C68.5624 131.446 68.5013 131.213 68.3797 131.017C68.2585 130.82 68.0925 130.669 67.882 130.563C67.6716 130.457 67.4329 130.403 67.1661 130.403C66.8878 130.403 66.645 130.46 66.4371 130.574C66.2298 130.688 66.0695 130.851 65.9573 131.064C65.8445 131.277 65.7886 131.53 65.7886 131.824H63.9609C63.9609 131.221 64.0957 130.698 64.3656 130.255C64.6356 129.811 65.0131 129.468 65.4993 129.225C65.9849 128.982 66.5458 128.861 67.1797 128.861C67.8314 128.861 68.3995 128.977 68.8841 129.209C69.3687 129.442 69.7457 129.763 70.0157 130.174C70.2857 130.584 70.4204 131.055 70.4204 131.586C70.4204 131.933 70.3525 132.277 70.2178 132.615C70.0831 132.954 69.8439 133.33 69.5003 133.742C69.1567 134.154 68.6721 134.648 68.0465 135.223L66.7171 136.541V136.604H70.5405V138.196L64.0497 138.196Z" fill="#00395C"/>
<path d="M71.9325 138.196V136.793L75.1732 133.758C75.4489 133.488 75.6808 133.245 75.8693 133.029C76.0578 132.814 76.2003 132.601 76.298 132.393C76.3962 132.185 76.4453 131.959 76.4453 131.717C76.4453 131.447 76.3842 131.214 76.2625 131.017C76.1413 130.821 75.9753 130.67 75.7648 130.563C75.5544 130.457 75.3158 130.404 75.0489 130.404C74.7706 130.404 74.5278 130.461 74.3199 130.574C74.1126 130.688 73.9523 130.852 73.8401 131.064C73.7273 131.277 73.6714 131.531 73.6714 131.824H71.8438C71.8438 131.222 71.9785 130.699 72.2484 130.255C72.5184 129.812 72.896 129.468 73.3821 129.225C73.8678 128.983 74.4286 128.861 75.0625 128.861C75.7142 128.861 76.2824 128.978 76.7669 129.21C77.2515 129.442 77.6285 129.763 77.8985 130.174C78.1685 130.585 78.3032 131.055 78.3032 131.586C78.3032 131.934 78.2353 132.277 78.1006 132.616C77.9659 132.955 77.7267 133.33 77.3831 133.742C77.0395 134.154 76.5549 134.648 75.9294 135.224L74.5999 136.541V136.604H78.4233V138.196L71.9325 138.196Z" fill="#00395C"/>
<path d="M83.1881 138.322C82.5244 138.322 81.9338 138.205 81.4169 137.974C80.8999 137.741 80.4926 137.42 80.1944 137.011C79.8962 136.602 79.7433 136.129 79.7344 135.593H81.6727C81.6842 135.818 81.7573 136.015 81.8926 136.184C82.0273 136.353 82.2074 136.484 82.433 136.577C82.6576 136.67 82.9114 136.717 83.1928 136.717C83.4863 136.717 83.7458 136.664 83.9709 136.559C84.1959 136.455 84.3724 136.309 84.4998 136.123C84.6273 135.937 84.691 135.723 84.691 135.48C84.691 135.234 84.6236 135.016 84.4884 134.826C84.3536 134.635 84.1615 134.487 83.9108 134.378C83.6602 134.271 83.3636 134.217 83.0195 134.217H82.1704V132.787H83.0195C83.3098 132.787 83.5672 132.736 83.7907 132.634C84.0142 132.532 84.1886 132.39 84.3129 132.209C84.4372 132.028 84.4999 131.815 84.4999 131.573C84.4999 131.342 84.4455 131.139 84.3375 130.964C84.2294 130.788 84.0779 130.651 83.8842 130.552C83.69 130.453 83.4638 130.404 83.2059 130.404C82.9453 130.404 82.7067 130.451 82.4905 130.545C82.2743 130.64 82.1009 130.774 81.9704 130.948C81.8398 131.121 81.7704 131.325 81.7615 131.559H79.9166C79.9255 131.028 80.0748 130.561 80.3657 130.156C80.656 129.751 81.0482 129.434 81.5411 129.205C82.0351 128.976 82.5928 128.861 83.2153 128.861C83.8435 128.861 84.3933 128.976 84.8644 129.207C85.3354 129.438 85.7019 129.749 85.9646 130.141C86.2267 130.531 86.3568 130.97 86.3536 131.456C86.3568 131.971 86.1985 132.402 85.88 132.746C85.5615 133.091 85.1474 133.31 84.6377 133.403V133.475C85.3072 133.562 85.8179 133.796 86.1688 134.179C86.5202 134.56 86.6941 135.038 86.6915 135.611C86.6941 136.135 86.5453 136.601 86.245 137.009C85.9437 137.416 85.5296 137.738 85.0022 137.971C84.4748 138.205 83.8701 138.322 83.1881 138.322Z" fill="#00395C"/>
<path d="M91.6411 138.398C90.8766 138.395 90.2192 138.205 89.6698 137.827C89.12 137.45 88.6975 136.902 88.403 136.186C88.1074 135.47 87.9618 134.608 87.9649 133.601C87.9649 132.596 88.1122 131.74 88.4072 131.033C88.7017 130.325 89.1247 129.787 89.674 129.416C90.2239 129.046 90.8792 128.861 91.6411 128.861C92.403 128.861 93.0588 129.047 93.6082 129.419C94.158 129.79 94.581 130.329 94.8771 131.035C95.1737 131.742 95.3204 132.596 95.3178 133.601C95.3178 134.611 95.17 135.474 94.875 136.19C94.5805 136.907 94.1586 137.454 93.6103 137.832C93.062 138.21 92.4061 138.398 91.6411 138.398ZM91.6411 136.784C92.1627 136.784 92.5795 136.519 92.8907 135.988C93.2014 135.458 93.3554 134.662 93.3523 133.601C93.3523 132.902 93.2823 132.32 93.1413 131.856C93.0003 131.391 92.8019 131.042 92.546 130.808C92.2891 130.574 91.9878 130.458 91.6411 130.458C91.1225 130.458 90.7079 130.72 90.3967 131.245C90.0855 131.769 89.9278 132.554 89.9252 133.601C89.9252 134.308 89.9957 134.898 90.1367 135.37C90.2771 135.842 90.4761 136.196 90.7341 136.431C90.992 136.666 91.2943 136.784 91.6411 136.784Z" fill="#00395C"/>
<path d="M100.652 128.987V138.196H98.7277V130.835H98.6744L96.5898 132.157V130.431L98.8436 128.987L100.652 128.987Z" fill="#00395C"/>
<path d="M103.942 133.479C103.649 133.479 103.397 133.373 103.188 133.162C102.979 132.951 102.875 132.697 102.875 132.4C102.875 132.106 102.979 131.854 103.188 131.644C103.397 131.434 103.649 131.33 103.942 131.33C104.226 131.33 104.476 131.434 104.689 131.644C104.902 131.854 105.009 132.106 105.009 132.4C105.009 132.597 104.96 132.778 104.86 132.941C104.761 133.105 104.631 133.235 104.471 133.332C104.311 133.43 104.135 133.479 103.942 133.479ZM103.942 138.312C103.649 138.312 103.397 138.207 103.188 137.995C102.979 137.784 102.875 137.53 102.875 137.233C102.875 136.939 102.979 136.688 103.188 136.478C103.397 136.268 103.649 136.163 103.942 136.163C104.226 136.163 104.476 136.268 104.689 136.478C104.902 136.688 105.009 136.939 105.009 137.233C105.009 137.431 104.96 137.612 104.86 137.775C104.761 137.938 104.631 138.069 104.471 138.166C104.311 138.264 104.135 138.312 103.942 138.312Z" fill="#00395C"/>
<path d="M106.538 138.196V136.793L109.779 133.758C110.054 133.488 110.286 133.245 110.474 133.029C110.662 132.813 110.805 132.601 110.903 132.393C111.001 132.185 111.05 131.959 111.05 131.716C111.05 131.446 110.989 131.213 110.868 131.017C110.746 130.82 110.58 130.669 110.37 130.563C110.159 130.457 109.921 130.403 109.654 130.403C109.376 130.403 109.132 130.46 108.925 130.574C108.718 130.688 108.558 130.851 108.445 131.064C108.332 131.277 108.276 131.53 108.276 131.824H106.449C106.449 131.221 106.584 130.698 106.853 130.255C107.123 129.811 107.501 129.468 107.987 129.225C108.473 128.982 109.033 128.861 109.667 128.861C110.32 128.861 110.888 128.977 111.372 129.209C111.857 129.442 112.234 129.763 112.503 130.174C112.773 130.584 112.908 131.055 112.908 131.586C112.908 131.933 112.841 132.277 112.706 132.615C112.571 132.954 112.332 133.33 111.988 133.742C111.644 134.154 111.159 134.648 110.534 135.223L109.205 136.541V136.604H113.028V138.196L106.538 138.196Z" fill="#00395C"/>
<path d="M118.004 138.398C117.24 138.395 116.582 138.205 116.033 137.827C115.483 137.45 115.061 136.902 114.766 136.186C114.471 135.47 114.325 134.608 114.328 133.601C114.328 132.596 114.475 131.74 114.77 131.033C115.065 130.325 115.488 129.787 116.037 129.416C116.587 129.046 117.243 128.861 118.004 128.861C118.766 128.861 119.422 129.047 119.971 129.419C120.521 129.79 120.944 130.329 121.24 131.035C121.537 131.742 121.684 132.596 121.681 133.601C121.681 134.611 121.533 135.474 121.238 136.19C120.944 136.907 120.522 137.454 119.974 137.832C119.425 138.21 118.769 138.398 118.004 138.398ZM118.004 136.784C118.526 136.784 118.943 136.519 119.254 135.988C119.565 135.458 119.719 134.662 119.716 133.601C119.716 132.902 119.646 132.32 119.505 131.856C119.364 131.391 119.165 131.042 118.909 130.808C118.652 130.574 118.351 130.458 118.004 130.458C117.486 130.458 117.071 130.72 116.76 131.245C116.449 131.769 116.291 132.554 116.288 133.601C116.288 134.308 116.359 134.898 116.5 135.37C116.64 135.842 116.839 136.196 117.097 136.431C117.355 136.666 117.658 136.784 118.004 136.784Z" fill="#00395C"/>
<path d="M127.008 128.987V138.196H125.083V130.835H125.03L122.945 132.157V130.43L125.199 128.987L127.008 128.987Z" fill="#00395C"/>
<path d="M132.463 128.834C132.931 128.834 133.383 128.913 133.817 129.07C134.251 129.228 134.64 129.482 134.982 129.832C135.324 130.183 135.595 130.647 135.795 131.224C135.995 131.801 136.096 132.511 136.1 133.353C136.096 134.135 136.009 134.833 135.835 135.446C135.662 136.059 135.413 136.58 135.091 137.009C134.767 137.437 134.378 137.763 133.924 137.987C133.469 138.21 132.96 138.321 132.396 138.321C131.789 138.321 131.253 138.203 130.787 137.964C130.322 137.726 129.948 137.401 129.665 136.988C129.382 136.576 129.211 136.112 129.151 135.596H131.049C131.124 135.932 131.279 136.192 131.516 136.377C131.753 136.561 132.047 136.653 132.396 136.653C132.989 136.653 133.44 136.392 133.748 135.868C134.056 135.346 134.212 134.628 134.214 133.717H134.153C134.016 133.987 133.832 134.218 133.601 134.412C133.37 134.605 133.105 134.754 132.808 134.859C132.51 134.964 132.194 135.016 131.858 135.016C131.323 135.016 130.843 134.889 130.42 134.635C129.998 134.38 129.665 134.028 129.423 133.58C129.18 133.132 129.059 132.62 129.063 132.044C129.059 131.421 129.2 130.867 129.484 130.383C129.77 129.899 130.168 129.519 130.678 129.243C131.19 128.967 131.784 128.831 132.463 128.834ZM132.477 130.363C132.177 130.363 131.912 130.434 131.679 130.579C131.446 130.722 131.262 130.917 131.127 131.163C130.993 131.409 130.927 131.685 130.93 131.99C130.927 132.296 130.991 132.57 131.123 132.813C131.255 133.056 131.436 133.249 131.667 133.391C131.899 133.533 132.162 133.605 132.459 133.605C132.681 133.605 132.886 133.563 133.075 133.479C133.263 133.395 133.427 133.279 133.568 133.13C133.709 132.982 133.819 132.81 133.899 132.613C133.979 132.417 134.02 132.207 134.023 131.982C134.02 131.685 133.952 131.414 133.819 131.168C133.686 130.922 133.502 130.726 133.268 130.581C133.034 130.435 132.77 130.363 132.477 130.363Z" fill="#00395C"/>
<path d="M23.7423 110.654L14.0573 111.515L13.7168 107.593C13.6541 106.872 13.7074 106.261 13.8771 105.762C14.0463 105.261 14.3069 104.873 14.6599 104.597C15.0118 104.322 15.4317 104.163 15.9173 104.119C16.2948 104.086 16.6337 104.133 16.9319 104.261C17.2311 104.388 17.4823 104.577 17.687 104.828C17.8912 105.078 18.0457 105.37 18.1512 105.704L18.2457 105.696C18.229 105.322 18.3026 104.962 18.4671 104.618C18.6306 104.274 18.8765 103.985 19.2039 103.75C19.5308 103.515 19.9329 103.376 20.4097 103.335C20.9235 103.289 21.3919 103.376 21.817 103.597C22.2405 103.818 22.5909 104.169 22.8681 104.649C23.1449 105.128 23.3151 105.735 23.3783 106.468L23.7423 110.654ZM17.9303 109.083L17.7972 107.548C17.7721 107.264 17.7006 107.016 17.582 106.803C17.4635 106.59 17.3074 106.428 17.1131 106.315C16.9194 106.202 16.6943 106.157 16.439 106.179C16.0891 106.211 15.8176 106.361 15.6249 106.63C15.4327 106.899 15.3559 107.264 15.3956 107.723L15.533 109.297L17.9303 109.083ZM21.8885 108.731L21.7418 107.043C21.6911 106.466 21.5454 106.055 21.3031 105.81C21.0608 105.564 20.7575 105.458 20.3914 105.491C20.1235 105.514 19.8927 105.601 19.6995 105.75C19.5058 105.899 19.3611 106.099 19.2656 106.35C19.1695 106.601 19.1361 106.892 19.1648 107.224L19.3157 108.961L21.8885 108.731Z" fill="#00395C"/>
<path d="M20.0728 97.2508L15.887 97.1657L15.9272 95.1211L23.2169 95.2679L23.1783 97.2317L21.854 97.2048L21.8524 97.2824C22.2759 97.4567 22.6143 97.7398 22.8665 98.1307C23.1182 98.5221 23.2383 98.9938 23.2274 99.5478C23.2174 100.041 23.0984 100.472 22.8691 100.842C22.6409 101.212 22.3198 101.498 21.9073 101.699C21.4947 101.9 21.0044 101.997 20.4347 101.989L15.793 101.895L15.8332 99.8494L20.1146 99.9366C20.5449 99.9413 20.8874 99.832 21.1417 99.607C21.3966 99.3809 21.5271 99.0746 21.535 98.6874C21.5397 98.4413 21.4885 98.2094 21.3799 97.9923C21.2723 97.7758 21.1089 97.5993 20.8895 97.4615C20.6707 97.3247 20.3981 97.2539 20.0728 97.2508Z" fill="#00395C"/>
<path d="M18.8747 87.1504L18.7692 89.0234C18.6078 89.0366 18.4579 89.0878 18.3185 89.1776C18.1791 89.2669 18.0606 89.392 17.9634 89.5526C17.8663 89.7137 17.8042 89.9118 17.777 90.1468C17.7399 90.4616 17.7739 90.7352 17.8783 90.9666C17.9833 91.1984 18.1446 91.3278 18.3619 91.3532C18.5342 91.3743 18.6882 91.322 18.8245 91.1969C18.9603 91.0711 19.0846 90.843 19.1963 90.5107L19.6161 89.2177C19.8449 88.5226 20.1394 88.0198 20.5018 87.7087C20.8626 87.3976 21.3044 87.2729 21.826 87.3358C22.3007 87.3928 22.7002 87.584 23.026 87.9083C23.3508 88.2327 23.5843 88.6504 23.7273 89.1628C23.8694 89.6746 23.9033 90.2488 23.8281 90.8842C23.7143 91.8539 23.4234 92.6013 22.955 93.1268C22.4871 93.6529 21.9012 93.9228 21.1984 93.9381L21.33 91.9284C21.6287 91.903 21.8683 91.7837 22.048 91.5697C22.2276 91.3558 22.3388 91.068 22.3816 90.7051C22.4239 90.3496 22.3884 90.0544 22.2777 89.8204C22.1665 89.5864 22.0031 89.4544 21.7869 89.4253C21.6036 89.4063 21.4443 89.466 21.3091 89.6049C21.1728 89.7427 21.0548 89.9672 20.9545 90.2778L20.5556 91.5159C20.33 92.2141 20.0224 92.7165 19.6329 93.0228C19.2428 93.3286 18.7775 93.4496 18.2376 93.3841C17.7723 93.3281 17.3864 93.1522 17.0809 92.8554C16.7739 92.5596 16.5577 92.1677 16.4298 91.6801C16.3024 91.1921 16.2752 90.6354 16.3494 90.0089C16.458 89.0836 16.7368 88.379 17.1859 87.8925C17.635 87.4066 18.1979 87.1594 18.8747 87.1504Z" fill="#00395C"/>
<path d="M16.4196 83.9381C16.3632 84.2371 16.2169 84.4742 15.9809 84.6501C15.7449 84.826 15.4885 84.8878 15.2117 84.8345C14.935 84.7811 14.7177 84.629 14.5611 84.3771C14.4039 84.1246 14.3527 83.8515 14.4086 83.5552C14.4655 83.2531 14.6117 83.0154 14.8472 82.8406C15.0833 82.6663 15.3397 82.6055 15.6164 82.6588C15.8937 82.7122 16.1104 82.8643 16.2676 83.1147C16.4248 83.365 16.4759 83.6386 16.4196 83.9381ZM24.3145 86.5104L17.1522 85.1297L17.5302 83.1205L24.6931 84.5007L24.3145 86.5104Z" fill="#00395C"/>
<path d="M21.3833 79.9738L25.4527 81.0857L24.9258 83.06L17.8867 81.1364L18.3885 79.2544L19.6308 79.5946L19.6533 79.5111C19.2862 79.2418 19.0319 78.8884 18.8914 78.4521C18.7499 78.0158 18.7504 77.5336 18.8919 77.0049C19.0235 76.51 19.2454 76.1085 19.5577 75.799C19.87 75.49 20.2512 75.2872 20.7008 75.1916C21.1509 75.0955 21.6496 75.1224 22.1963 75.2719L26.6788 76.4962L26.1514 78.4711L22.0172 77.3413C21.588 77.2209 21.2214 77.2405 20.9175 77.3994C20.6146 77.5584 20.4104 77.8362 20.3044 78.2313C20.2334 78.497 20.2277 78.7469 20.2867 78.9803C20.3457 79.2132 20.4679 79.4161 20.6533 79.5877C20.8381 79.7594 21.0815 79.8877 21.3833 79.9738Z" fill="#00395C"/>
<path d="M28.4387 72.1111C28.1687 72.8189 27.7953 73.3724 27.3159 73.7707C26.8376 74.1689 26.2836 74.404 25.6543 74.4742C25.0256 74.545 24.3525 74.4404 23.6345 74.161C22.9343 73.8885 22.3729 73.5124 21.9489 73.0317C21.5249 72.5506 21.2601 72.0028 21.1547 71.387C21.0502 70.7721 21.1265 70.1262 21.3834 69.4511C21.5557 68.9969 21.7891 68.6013 22.081 68.2648C22.374 67.9273 22.7202 67.6674 23.1181 67.4847C23.517 67.3025 23.964 67.2132 24.4591 67.2174C24.9541 67.2217 25.4909 67.3357 26.0705 67.5618L26.5886 67.7636L24.3766 73.5752L23.2063 73.1199L24.7353 69.1052C24.4632 68.9985 24.1995 68.9652 23.9447 69.0027C23.6894 69.0407 23.4617 69.1416 23.2622 69.3059C23.0627 69.4696 22.9097 69.6904 22.8043 69.9688C22.6936 70.2582 22.6622 70.5403 22.7082 70.8139C22.7552 71.0875 22.8648 71.3299 23.0371 71.5412C23.21 71.7519 23.4293 71.912 23.6967 72.0192L24.8089 72.4523C25.1452 72.5828 25.4611 72.633 25.7541 72.6013C26.0476 72.5701 26.305 72.4634 26.5264 72.2828C26.7483 72.1011 26.9201 71.8507 27.0413 71.5312C27.1222 71.3188 27.1671 71.1128 27.1749 70.9142C27.1828 70.7151 27.1514 70.5297 27.0815 70.3575C27.011 70.1864 26.9024 70.0348 26.7562 69.9022L27.5431 68.1814C27.929 68.4344 28.2245 68.7592 28.4308 69.1575C28.6371 69.5552 28.7446 70.0047 28.7514 70.5065C28.7587 71.0083 28.6548 71.5438 28.4387 72.1111Z" fill="#00395C"/>
<path d="M28.0391 60.0587L27.3096 61.7827C27.1545 61.7393 26.9952 61.7362 26.8338 61.7721C26.6725 61.808 26.519 61.8857 26.3738 62.0029C26.2286 62.1212 26.1033 62.286 25.9983 62.4973C25.8574 62.7809 25.7973 63.0493 25.8182 63.3033C25.8391 63.5574 25.9461 63.7343 26.1414 63.8331C26.2976 63.9123 26.46 63.9165 26.6297 63.8447C26.8004 63.7739 26.9936 63.6023 27.2104 63.3287L28.0412 62.257C28.4892 61.6823 28.9362 61.3115 29.3806 61.1436C29.826 60.9756 30.2829 61.0105 30.7524 61.2497C31.179 61.4668 31.4907 61.7842 31.6871 62.201C31.8834 62.6183 31.9633 63.0915 31.9241 63.6218C31.8855 64.1526 31.7241 64.7036 31.439 65.275C31.0061 66.1476 30.4803 66.7503 29.8636 67.0836C29.2464 67.4158 28.6051 67.4691 27.9388 67.241L28.7388 65.396C29.0286 65.4752 29.2944 65.4456 29.5357 65.3062C29.7764 65.1678 29.978 64.9349 30.1393 64.6085C30.2991 64.2889 30.3654 63.9995 30.3404 63.7406C30.3142 63.4824 30.2046 63.3017 30.0109 63.1998C29.8458 63.119 29.6761 63.1205 29.5012 63.204C29.3273 63.288 29.1409 63.4575 28.9425 63.7153L28.1503 64.7415C27.7028 65.321 27.2448 65.687 26.7749 65.8402C26.3054 65.9939 25.8276 65.9463 25.3415 65.6992C24.9227 65.4868 24.6193 65.1884 24.4313 64.8044C24.2433 64.4204 24.1718 63.9767 24.2156 63.4744C24.2605 62.9721 24.4219 62.4397 24.7023 61.8756C25.1164 61.0432 25.6161 60.4759 26.2015 60.1743C26.7879 59.8722 27.4004 59.8336 28.0391 60.0587Z" fill="#00395C"/>
<path d="M32.1242 53.3493L31.2354 54.9968C31.0845 54.9381 30.9273 54.9196 30.7634 54.9397C30.5994 54.9603 30.4391 55.0221 30.2835 55.1251C30.1279 55.2286 29.9869 55.3807 29.8626 55.5815C29.6965 55.8498 29.6109 56.1112 29.6078 56.3664C29.6046 56.6209 29.695 56.8079 29.8798 56.9246C30.0281 57.0187 30.189 57.0382 30.3649 56.9833C30.5409 56.9294 30.7498 56.7767 30.9921 56.5253L31.919 55.5387C32.4198 55.0094 32.8991 54.6835 33.3576 54.5583C33.8161 54.4342 34.2678 54.514 34.7127 54.7966C35.1174 55.0538 35.3973 55.3992 35.5545 55.8334C35.7106 56.2676 35.7445 56.7461 35.6568 57.2711C35.568 57.7946 35.3555 58.328 35.0187 58.8705C34.5049 59.6966 33.9247 60.2459 33.2798 60.5179C32.6344 60.7899 31.9905 60.781 31.3488 60.4899L32.319 58.7305C32.5994 58.8367 32.8668 58.8335 33.12 58.7178C33.3728 58.6027 33.5952 58.3904 33.7874 58.0814C33.9754 57.7782 34.0694 57.4961 34.0683 57.2363C34.0673 56.9769 33.9748 56.7868 33.7916 56.6669C33.6349 56.5702 33.4652 56.556 33.284 56.622C33.1028 56.688 32.9017 56.8396 32.6793 57.0768L31.7942 58.0222C31.295 58.5557 30.8036 58.8763 30.3221 58.9841C29.8402 59.0913 29.3691 58.9989 28.9081 58.7057C28.5117 58.4543 28.2376 58.1279 28.0867 57.727C27.9357 57.3266 27.9055 56.8782 27.9968 56.3827C28.0877 55.8868 28.2997 55.3723 28.6313 54.8383C29.1211 54.0492 29.672 53.5326 30.284 53.2886C30.8955 53.044 31.5091 53.0641 32.1242 53.3493Z" fill="#00395C"/>
<path d="M39.8036 41.9087L38.447 43.5022C38.2188 43.3538 37.9864 43.255 37.7504 43.2054C37.5143 43.1568 37.2804 43.1531 37.048 43.1954C36.8151 43.2381 36.5911 43.3253 36.3755 43.4557C36.1593 43.5862 35.9598 43.7589 35.7786 43.9723C35.4501 44.3579 35.258 44.7757 35.2026 45.2257C35.1473 45.6762 35.2319 46.1358 35.4564 46.6059C35.6799 47.0765 36.0475 47.5339 36.5582 47.9786C37.083 48.436 37.5922 48.7413 38.0851 48.894C38.5775 49.0461 39.0365 49.0582 39.4626 48.9315C39.8887 48.8037 40.2621 48.5522 40.5817 48.1762C40.7618 47.9649 40.9007 47.7452 40.9994 47.5159C41.0981 47.2878 41.1535 47.0564 41.1671 46.823C41.1801 46.5895 41.1493 46.3592 41.0757 46.1316C41.0015 45.905 40.8819 45.6873 40.7164 45.4798L42.0809 43.8926C42.3838 44.228 42.6219 44.6146 42.7958 45.0503C42.9686 45.4866 43.061 45.9499 43.0725 46.439C43.084 46.9286 42.9994 47.4251 42.8193 47.9295C42.6386 48.4334 42.3446 48.9246 41.9378 49.4021C41.3718 50.0666 40.7174 50.5303 39.9749 50.7939C39.2323 51.058 38.4512 51.095 37.6303 50.9059C36.8104 50.7173 35.999 50.2736 35.1984 49.5759C34.3953 48.876 33.8413 48.1281 33.5384 47.3316C33.2355 46.5346 33.1593 45.7449 33.3081 44.9632C33.4585 44.1815 33.8126 43.4631 34.3703 42.8087C34.7379 42.3766 35.1389 42.028 35.5734 41.7624C36.0094 41.4972 36.4627 41.3208 36.9358 41.2342C37.4078 41.1476 37.8867 41.1581 38.3718 41.2659C38.8564 41.3736 39.3336 41.5876 39.8036 41.9087Z" fill="#00395C"/>
<path d="M47.9698 43.1201C47.4283 43.625 46.8534 43.9457 46.2456 44.0788C45.6377 44.2129 45.0356 44.1696 44.4383 43.9494C43.8409 43.7291 43.2889 43.3414 42.7829 42.7868C42.2722 42.2264 41.9323 41.6364 41.7631 41.0168C41.5939 40.3968 41.6002 39.7867 41.7809 39.184C41.961 38.5824 42.3229 38.0278 42.8649 37.5229C43.4069 37.0163 43.9819 36.6973 44.5897 36.5626C45.1975 36.4295 45.8001 36.4728 46.397 36.6926C46.9933 36.9128 47.5479 37.3031 48.0586 37.863C48.5646 38.4187 48.903 39.0055 49.0716 39.6256C49.2408 40.2452 49.2351 40.8563 49.0544 41.4579C48.8732 42.06 48.5119 42.6141 47.9698 43.1201ZM46.915 41.9486C47.1615 41.7183 47.3025 41.4552 47.338 41.1589C47.373 40.8626 47.3202 40.5505 47.1803 40.2251C47.0393 39.8981 46.8252 39.5775 46.5385 39.2622C46.2508 38.9474 45.9516 38.706 45.6414 38.5375C45.3312 38.3701 45.0278 38.2914 44.7323 38.302C44.4357 38.3125 44.1646 38.4329 43.9182 38.6627C43.6691 38.8951 43.5255 39.1618 43.4873 39.4624C43.4503 39.7635 43.5014 40.0767 43.6419 40.4036C43.7824 40.73 43.9965 41.0501 44.2842 41.366C44.5714 41.6813 44.8701 41.9227 45.1808 42.0901C45.4905 42.2586 45.7949 42.3341 46.0941 42.3193C46.3918 42.3046 46.6659 42.181 46.915 41.9486Z" fill="#00395C"/>
<path d="M50.4454 35.2234L52.9681 38.6392L51.3483 39.8636L46.9844 33.9547L48.529 32.7874L49.2982 33.83L49.3671 33.7783C49.2423 33.3372 49.2585 32.901 49.4136 32.47C49.5697 32.039 49.8642 31.6592 50.2976 31.3317C50.7029 31.0248 51.1227 30.8474 51.5577 30.7988C51.9916 30.7507 52.4151 30.8299 52.8276 31.0354C53.2402 31.2403 53.6167 31.5731 53.9551 32.0321L56.7336 35.7949L55.1133 37.0182L52.5509 33.5485C52.2867 33.1851 51.9864 32.9712 51.6506 32.9078C51.3149 32.8434 50.9843 32.9337 50.66 33.1788C50.4423 33.3436 50.2851 33.5364 50.1896 33.7572C50.093 33.9774 50.0653 34.213 50.1065 34.4634C50.1478 34.7148 50.2606 34.9678 50.4454 35.2234Z" fill="#00395C"/>
<path d="M53.5508 27.0362L55.2677 25.9556L58.8599 31.7931C58.9586 31.9537 59.0588 32.0625 59.1617 32.1206C59.2646 32.1787 59.3706 32.1977 59.4802 32.1776C59.5883 32.1581 59.7011 32.1121 59.8165 32.0398C59.8969 31.9891 59.9726 31.9305 60.0442 31.8644C60.1162 31.7995 60.1706 31.7488 60.2087 31.7134L61.2739 32.8358C61.2045 32.9166 61.1032 33.0249 60.97 33.1595C60.8363 33.2948 60.6609 33.4363 60.4431 33.5847C60.0395 33.862 59.6426 34.0337 59.2536 34.1018C58.8656 34.1689 58.5016 34.1224 58.1648 33.9619C57.8265 33.8008 57.533 33.515 57.2834 33.102L53.5508 27.0362ZM57.3554 26.7225L58.158 28.0271L54.4301 30.3739L53.6275 29.0692L57.3554 26.7225Z" fill="#00395C"/>
<path d="M59.2058 24.6024C58.9415 24.7482 58.6674 24.7857 58.3828 24.7133C58.0987 24.6404 57.8883 24.4799 57.7535 24.2295C57.6183 23.9797 57.5964 23.7135 57.6893 23.4309C57.7812 23.1478 57.9577 22.9339 58.2188 22.7897C58.4851 22.6418 58.7598 22.6048 59.0434 22.6782C59.3264 22.7511 59.5358 22.9122 59.6705 23.1625C59.8063 23.4124 59.8282 23.6781 59.7373 23.9606C59.6465 24.2422 59.4695 24.4561 59.2058 24.6024ZM62.2637 32.4016L58.7614 25.9318L60.5358 24.9499L64.037 31.4187L62.2637 32.4016Z" fill="#00395C"/>
<path d="M65.3656 25.9664L67.1066 29.8497L65.2643 30.6948L62.2539 23.9767L64.009 23.1723L64.54 24.357L64.6179 24.3211C64.5902 23.8632 64.6978 23.4401 64.9411 23.0529C65.1844 22.6658 65.5521 22.3589 66.045 22.1328C66.5066 21.9215 66.9546 21.8391 67.3891 21.8856C67.823 21.9326 68.2204 22.1016 68.5797 22.3916C68.9395 22.6821 69.2361 23.0883 69.4695 23.6102L71.3865 27.8869L69.5447 28.7315L67.7766 24.7864C67.5954 24.3739 67.3473 24.1008 67.0335 23.9651C66.7186 23.8299 66.3776 23.8468 66.0085 24.0158C65.7604 24.1299 65.5662 24.2836 65.4257 24.478C65.2857 24.6729 65.2085 24.8968 65.1954 25.1504C65.1824 25.4044 65.2392 25.6759 65.3656 25.9664Z" fill="#00395C"/>
<path d="M76.1261 22.9168L74.8092 18.8963L76.7287 18.2529L79.0222 25.2541L77.1799 25.8715L76.7632 24.6007L76.6906 24.6245C76.6687 25.0872 76.5183 25.5034 76.2379 25.8736C75.9575 26.245 75.5575 26.5164 75.0379 26.6907C74.5752 26.8466 74.1335 26.8761 73.7121 26.7811C73.2907 26.6865 72.9178 26.4763 72.592 26.1499C72.2672 25.8235 72.0134 25.3877 71.8311 24.8421L70.3711 20.3847L72.2907 19.7408L73.6374 23.8523C73.7758 24.2643 73.9925 24.5542 74.2875 24.7211C74.5825 24.8891 74.912 24.9118 75.275 24.7903C75.5063 24.7127 75.7052 24.5865 75.8713 24.4106C76.0363 24.2357 76.147 24.0208 76.2024 23.7662C76.2572 23.5116 76.2321 23.2279 76.1261 22.9168Z" fill="#00395C"/>
<path d="M79.419 16.6079C79.1276 16.6819 78.8535 16.647 78.596 16.5033C78.3391 16.3612 78.1767 16.151 78.1088 15.8748C78.0404 15.598 78.0864 15.335 78.2467 15.0852C78.407 14.8348 78.631 14.6737 78.9203 14.6013C79.2153 14.5274 79.49 14.5617 79.7454 14.7049C80.0012 14.8491 80.1626 15.0587 80.231 15.335C80.2989 15.6112 80.254 15.8737 80.0947 16.1236C79.936 16.3729 79.7109 16.5345 79.419 16.6079ZM80.4185 24.9364L78.6561 17.7805L80.6185 17.2861L82.3808 24.4425L80.4185 24.9364Z" fill="#00395C"/>
<path d="M86.2664 16.1223L86.551 17.6319L82.2372 18.4622L81.9531 16.9526L86.2664 16.1223ZM82.6053 15.0284L84.5928 14.6455L85.8628 21.401C85.8983 21.5864 85.9531 21.7243 86.0283 21.8162C86.1035 21.9076 86.1954 21.9636 86.304 21.9852C86.4126 22.0069 86.5343 22.0048 86.668 21.9789C86.7609 21.9614 86.8528 21.935 86.9426 21.8991C87.033 21.8637 87.1019 21.8363 87.1494 21.8173L87.7437 23.2529C87.6497 23.3036 87.5165 23.3675 87.3442 23.4451C87.1719 23.5217 86.9583 23.5899 86.7014 23.6495C86.2262 23.7599 85.7954 23.7763 85.409 23.6971C85.021 23.6189 84.6993 23.443 84.4419 23.1699C84.1839 22.8969 84.0126 22.5224 83.926 22.047L82.6053 15.0284Z" fill="#00395C"/>
<path d="M90.2689 25.7623C90.0146 25.7892 89.7744 25.7951 89.5478 25.7787C89.3217 25.7628 89.1331 25.7338 88.9828 25.6926L89.2762 24.1207C89.6439 24.1936 89.9462 24.1915 90.1848 24.1128C90.4235 24.0341 90.5963 23.8217 90.7034 23.4752L90.789 23.1525L87.3984 15.8857L89.5138 15.6601L91.578 20.8861L91.6537 20.8776L92.6062 15.329L94.7357 15.1108L92.766 23.5302C92.672 23.9364 92.5242 24.2971 92.3232 24.613C92.1227 24.9293 91.8543 25.1866 91.5185 25.3852C91.1827 25.5832 90.766 25.709 90.2689 25.7623Z" fill="#00395C"/>
<path d="M99.7955 12.4468L102.327 12.5757L104.672 19.3122L104.785 19.3175L107.789 12.8556L110.321 12.985L109.83 22.8067L107.839 22.7042L108.158 16.3116L108.077 16.3079L105.248 22.5241L103.892 22.4544L101.697 15.9577L101.617 15.9534L101.296 22.3699L99.3047 22.2685L99.7955 12.4468Z" fill="#00395C"/>
<path d="M113.164 23.6775C112.707 23.5914 112.314 23.434 111.986 23.2043C111.658 22.975 111.42 22.6814 111.272 22.3227C111.124 21.9646 111.094 21.5457 111.182 21.0672C111.256 20.6647 111.392 20.3394 111.588 20.0937C111.785 19.8476 112.024 19.6643 112.306 19.545C112.59 19.4261 112.9 19.3543 113.237 19.33C113.575 19.3057 113.925 19.3089 114.286 19.3416C114.711 19.3759 115.054 19.3976 115.317 19.4066C115.579 19.4155 115.775 19.3913 115.905 19.3342C116.034 19.2772 116.113 19.1715 116.141 19.0168L116.147 18.9888C116.202 18.6898 116.152 18.4416 115.997 18.243C115.842 18.0438 115.595 17.9129 115.256 17.8495C114.898 17.7813 114.599 17.8077 114.358 17.9266C114.117 18.0454 113.94 18.2181 113.828 18.4447L112.017 17.9477C112.191 17.5241 112.445 17.1771 112.778 16.9061C113.112 16.6346 113.511 16.4534 113.977 16.3605C114.443 16.2675 114.963 16.2749 115.536 16.3827C115.934 16.4577 116.306 16.577 116.655 16.7403C117.003 16.9029 117.301 17.111 117.55 17.363C117.798 17.6144 117.976 17.9118 118.083 18.2519C118.191 18.5937 118.206 18.9793 118.127 19.4103L117.226 24.3008L115.34 23.9458L115.526 22.9407L115.47 22.9301C115.313 23.1345 115.122 23.3046 114.897 23.4398C114.673 23.5755 114.417 23.6653 114.129 23.7102C113.84 23.7557 113.519 23.7446 113.164 23.6775ZM113.989 22.3977C114.281 22.4516 114.55 22.441 114.796 22.366C115.042 22.29 115.247 22.1637 115.412 21.9863C115.576 21.8088 115.682 21.5922 115.729 21.3371L115.871 20.5686C115.801 20.5976 115.71 20.6182 115.596 20.6309C115.483 20.6441 115.357 20.651 115.218 20.6526C115.079 20.6547 114.941 20.6526 114.804 20.6478C114.666 20.6431 114.541 20.6383 114.429 20.6341C114.189 20.6246 113.976 20.641 113.788 20.6837C113.6 20.7265 113.445 20.8026 113.326 20.9124C113.205 21.0207 113.128 21.1702 113.094 21.3593C113.043 21.6329 113.103 21.86 113.275 22.0407C113.446 22.2208 113.684 22.3396 113.989 22.3977Z" fill="#00395C"/>
<path d="M121.672 21.0929L120.483 25.1837L118.543 24.6069L120.6 17.5308L122.449 18.0801L122.086 19.3292L122.168 19.3535C122.442 18.9875 122.797 18.7387 123.231 18.6056C123.666 18.4736 124.142 18.4841 124.662 18.6384C125.148 18.7831 125.54 19.0166 125.838 19.3393C126.138 19.6609 126.329 20.0513 126.414 20.5087C126.499 20.9656 126.462 21.4695 126.302 22.0193L124.993 26.5242L123.052 25.9475L124.259 21.7922C124.389 21.3601 124.377 20.9883 124.227 20.6793C124.076 20.3687 123.806 20.1564 123.418 20.0402C123.156 19.9625 122.91 19.9509 122.679 20.0059C122.446 20.0603 122.244 20.1791 122.07 20.3624C121.896 20.5467 121.764 20.7897 121.672 21.0929Z" fill="#00395C"/>
<path d="M128.125 27.9132C127.695 27.7353 127.342 27.5002 127.066 27.2086C126.791 26.9166 126.617 26.5801 126.544 26.1988C126.47 25.8179 126.524 25.4012 126.707 24.9512C126.86 24.5719 127.058 24.282 127.299 24.0807C127.541 23.88 127.812 23.7506 128.113 23.6909C128.414 23.6318 128.732 23.626 129.068 23.6708C129.403 23.7163 129.744 23.7918 130.092 23.8969C130.501 24.0173 130.832 24.1093 131.088 24.1716C131.343 24.2339 131.54 24.2503 131.679 24.2212C131.817 24.1917 131.915 24.1045 131.974 23.9592L131.985 23.9323C132.099 23.6513 132.099 23.3967 131.988 23.1707C131.875 22.9451 131.66 22.7661 131.341 22.6335C131.003 22.4946 130.705 22.4587 130.445 22.5263C130.186 22.5933 129.978 22.7265 129.823 22.9251L128.149 22.0667C128.404 21.6886 128.722 21.4007 129.104 21.2032C129.484 21.0061 129.911 20.9095 130.387 20.9137C130.861 20.919 131.369 21.0325 131.908 21.2549C132.283 21.4102 132.624 21.603 132.933 21.8343C133.241 22.0657 133.491 22.3303 133.684 22.6277C133.877 22.925 133.991 23.252 134.029 23.608C134.066 23.9645 134.003 24.3453 133.839 24.7505L131.979 29.3558L130.203 28.6221L130.585 27.6756L130.533 27.6534C130.338 27.8214 130.118 27.9492 129.871 28.0358C129.624 28.1224 129.355 28.1583 129.063 28.1436C128.772 28.1282 128.459 28.0516 128.125 27.9132ZM129.19 26.8284C129.464 26.9424 129.73 26.9873 129.986 26.963C130.242 26.9393 130.468 26.8569 130.665 26.7174C130.862 26.5775 131.008 26.3878 131.106 26.1475L131.399 25.4228C131.324 25.4371 131.23 25.4392 131.117 25.4281C131.003 25.4176 130.878 25.3991 130.742 25.3716C130.606 25.3452 130.471 25.3151 130.337 25.2824C130.203 25.2496 130.082 25.219 129.974 25.1915C129.741 25.1334 129.528 25.1059 129.335 25.1091C129.142 25.1123 128.976 25.1556 128.837 25.238C128.698 25.3199 128.592 25.4508 128.52 25.6283C128.416 25.8861 128.43 26.1211 128.561 26.3329C128.693 26.5442 128.902 26.7095 129.19 26.8284Z" fill="#00395C"/>
<path d="M134.757 34.0173C134.18 33.7046 133.727 33.3576 133.399 32.9773C133.07 32.5959 132.856 32.2067 132.756 31.8063C132.655 31.407 132.654 31.0246 132.755 30.6575L134.523 31.3256C134.511 31.4709 134.531 31.6267 134.583 31.791C134.636 31.9558 134.735 32.1206 134.879 32.2859C135.023 32.4512 135.225 32.6039 135.485 32.7438C135.872 32.9535 136.242 33.0338 136.593 32.9842C136.944 32.9345 137.232 32.6968 137.457 32.2706L138.087 31.0806L138.011 31.0399C137.838 31.1778 137.63 31.286 137.388 31.3621C137.147 31.4387 136.877 31.4609 136.578 31.4297C136.278 31.3985 135.959 31.2908 135.618 31.1065C135.135 30.845 134.757 30.4943 134.482 30.0538C134.207 29.6127 134.077 29.0941 134.093 28.4983C134.109 27.9019 134.306 27.2443 134.687 26.5244C135.077 25.7871 135.521 25.2362 136.019 24.8706C136.517 24.5051 137.029 24.3065 137.554 24.2743C138.079 24.2426 138.576 24.3536 139.048 24.6087C139.408 24.8041 139.678 25.0286 139.855 25.2826C140.033 25.5372 140.148 25.795 140.201 26.058C140.255 26.3205 140.276 26.5614 140.264 26.7806L140.33 26.8165L140.908 25.7242L142.679 26.6823L139.206 33.2493C138.919 33.7912 138.546 34.1726 138.085 34.3934C137.624 34.6136 137.107 34.6892 136.536 34.6194C135.964 34.5502 135.371 34.349 134.757 34.0173ZM136.9 30.0569C137.187 30.2122 137.469 30.2719 137.745 30.2344C138.022 30.1974 138.286 30.0712 138.537 29.8567C138.788 29.6428 139.015 29.3449 139.216 28.9636C139.418 28.5833 139.54 28.2231 139.582 27.885C139.625 27.547 139.587 27.2454 139.468 26.9813C139.349 26.7177 139.146 26.508 138.859 26.3527C138.565 26.1943 138.276 26.1404 137.991 26.1906C137.706 26.2418 137.438 26.3802 137.185 26.6068C136.932 26.8334 136.709 27.1313 136.513 27.501C136.314 27.8766 136.195 28.2283 136.156 28.5574C136.116 28.887 136.157 29.1791 136.278 29.4352C136.399 29.6914 136.607 29.8985 136.9 30.0569Z" fill="#00395C"/>
<path d="M143.085 35.9216C142.464 35.4959 142.016 35.0021 141.739 34.4406C141.464 33.8781 141.363 33.2796 141.438 32.6437C141.511 32.0083 141.764 31.3687 142.195 30.7248C142.617 30.0962 143.106 29.6272 143.664 29.3187C144.223 29.0087 144.811 28.8724 145.427 28.9078C146.043 28.9437 146.648 29.1645 147.24 29.5702C147.638 29.8427 147.967 30.1623 148.226 30.5262C148.484 30.8912 148.656 31.2899 148.742 31.7241C148.828 32.1578 148.813 32.6183 148.697 33.1053C148.581 33.5923 148.349 34.0957 148.001 34.6154L147.69 35.0808L142.592 31.5878L143.295 30.5383L146.817 32.9506C146.98 32.7076 147.072 32.4551 147.093 32.1958C147.114 31.9354 147.068 31.6882 146.956 31.4547C146.843 31.2207 146.665 31.02 146.421 30.8531C146.167 30.6788 145.902 30.5843 145.629 30.5679C145.355 30.5521 145.096 30.6059 144.854 30.7274C144.611 30.85 144.408 31.0306 144.244 31.2699L143.576 32.2671C143.374 32.5697 143.254 32.8692 143.218 33.1655C143.183 33.4613 143.227 33.7392 143.351 33.9985C143.476 34.2578 143.678 34.4834 143.959 34.6751C144.145 34.8029 144.333 34.8938 144.523 34.9461C144.713 34.9989 144.899 35.0105 145.08 34.9799C145.261 34.9492 145.431 34.8769 145.592 34.7628L147.072 35.9264C146.74 36.2496 146.36 36.4673 145.931 36.5813C145.501 36.6944 145.044 36.6981 144.559 36.5924C144.074 36.4857 143.583 36.2623 143.085 35.9216Z" fill="#00395C"/>
<path d="M146.828 38.2476L151.65 32.7148L153.096 34.0042L152.245 34.9797L152.309 35.0373C152.705 34.8144 153.119 34.7283 153.548 34.7779C153.977 34.8281 154.376 35.0183 154.747 35.3484C155.122 35.6822 155.359 36.062 155.458 36.485C155.558 36.9081 155.511 37.3206 155.318 37.7205L155.375 37.7712C155.764 37.5541 156.187 37.4801 156.646 37.5504C157.106 37.6212 157.536 37.8351 157.938 38.1932C158.448 38.6485 158.72 39.182 158.754 39.7941C158.787 40.4074 158.543 41.0137 158.02 41.6132L154.777 45.3349L153.264 43.9853L156.242 40.5669C156.51 40.26 156.63 39.9568 156.603 39.6589C156.576 39.3616 156.441 39.1049 156.198 38.8888C155.923 38.6432 155.631 38.5397 155.323 38.5788C155.015 38.6179 154.736 38.7811 154.484 39.07L151.539 42.4483L150.069 41.1373L153.076 37.6861C153.313 37.4157 153.425 37.1305 153.411 36.8331C153.399 36.5357 153.268 36.2759 153.018 36.054C152.85 35.9035 152.661 35.8111 152.453 35.7767C152.244 35.7419 152.034 35.7667 151.823 35.8496C151.612 35.932 151.418 36.0752 151.24 36.2796L148.346 39.6003L146.828 38.2476Z" fill="#00395C"/>
<path d="M157.682 48.9815C157.186 48.4121 156.875 47.8205 156.748 47.2062C156.621 46.5925 156.671 45.9877 156.902 45.3909C157.131 44.7945 157.533 44.2394 158.111 43.7255C158.674 43.2242 159.264 42.8952 159.882 42.7372C160.499 42.5804 161.102 42.5968 161.69 42.7879C162.277 42.9786 162.808 43.3457 163.281 43.8892C163.598 44.2542 163.837 44.6461 163.996 45.0644C164.157 45.4838 164.224 45.9138 164.199 46.3553C164.175 46.7969 164.047 47.239 163.814 47.6806C163.58 48.1227 163.23 48.5521 162.765 48.9662L162.348 49.337L158.281 44.6625L159.222 43.8243L162.031 47.0541C162.25 46.8592 162.402 46.639 162.487 46.3928C162.572 46.1462 162.589 45.8963 162.538 45.6412C162.487 45.3861 162.364 45.1463 162.169 44.9234C161.966 44.6894 161.734 44.531 161.472 44.4459C161.212 44.3614 160.948 44.3477 160.683 44.4032C160.419 44.4602 160.177 44.5833 159.958 44.7739L159.064 45.5699C158.793 45.8108 158.603 46.0701 158.495 46.3479C158.387 46.6252 158.361 46.9057 158.417 47.1883C158.473 47.4714 158.613 47.7413 158.837 47.998C158.986 48.1686 159.145 48.3033 159.316 48.4031C159.487 48.5024 159.664 48.5605 159.846 48.5769C160.029 48.5927 160.213 48.5663 160.397 48.4966L161.54 49.9993C161.14 50.2275 160.718 50.3421 160.274 50.3426C159.829 50.3437 159.386 50.2312 158.943 50.0051C158.5 49.7791 158.079 49.4378 157.682 48.9815Z" fill="#00395C"/>
<path d="M165.286 51.4835L161.853 53.9581L160.68 52.2932L166.616 48.0117L167.735 49.5989L166.688 50.3548L166.737 50.425C167.177 50.3088 167.608 50.3342 168.031 50.5011C168.452 50.668 168.821 50.9743 169.136 51.4196C169.429 51.8369 169.596 52.2658 169.634 52.7063C169.672 53.1462 169.585 53.5725 169.373 53.985C169.16 54.3986 168.823 54.7709 168.362 55.1032L164.581 57.8292L163.408 56.1643L166.894 53.6496C167.259 53.3897 167.477 53.0913 167.548 52.7538C167.619 52.4158 167.537 52.0793 167.302 51.746C167.143 51.5221 166.956 51.3583 166.741 51.2564C166.525 51.155 166.293 51.1217 166.044 51.1576C165.796 51.193 165.543 51.3023 165.286 51.4835Z" fill="#00395C"/>
<path d="M173.305 54.814L174.335 56.5744L168.484 60.0763C168.324 60.1724 168.214 60.2717 168.154 60.3742C168.095 60.4772 168.074 60.5834 168.091 60.6943C168.108 60.8047 168.151 60.9198 168.22 61.0376C168.269 61.1205 168.325 61.1992 168.388 61.2732C168.451 61.3461 168.5 61.4026 168.534 61.4422L167.401 62.4938C167.321 62.422 167.217 62.3179 167.088 62.1796C166.957 62.0422 166.821 61.8611 166.678 61.6376C166.414 61.223 166.253 60.8184 166.195 60.4233C166.136 60.0288 166.19 59.6622 166.357 59.3247C166.524 58.9872 166.813 58.6967 167.226 58.4527L173.305 54.814ZM173.53 58.6687L172.223 59.4509L169.987 55.629L171.294 54.8462L173.53 58.6687Z" fill="#00395C"/>
<path d="M177.668 68.252C178.004 68.0634 178.213 67.7925 178.293 67.4397C178.374 67.0879 178.317 66.6822 178.12 66.2232C177.988 65.9121 177.833 65.6676 177.656 65.4901C177.478 65.3132 177.29 65.2012 177.091 65.1542C176.891 65.1066 176.696 65.1251 176.504 65.2086C176.342 65.2725 176.217 65.3681 176.13 65.4949C176.042 65.6216 175.985 65.7701 175.955 65.9396C175.926 66.1092 175.917 66.2946 175.928 66.4953C175.94 66.696 175.965 66.9046 176.006 67.1206L176.16 68.0149C176.241 68.4474 176.279 68.8594 176.274 69.2519C176.269 69.6443 176.212 70.0077 176.103 70.3415C175.993 70.6748 175.823 70.9711 175.592 71.2305C175.362 71.4898 175.062 71.7021 174.691 71.8675C174.143 72.1025 173.61 72.1685 173.092 72.0655C172.574 71.962 172.095 71.6974 171.653 71.2706C171.211 70.8449 170.833 70.2644 170.519 69.5297C170.209 68.8003 170.048 68.1184 170.039 67.483C170.031 66.847 170.178 66.2835 170.485 65.7928C170.79 65.3021 171.261 64.9091 171.897 64.6138L172.685 66.4614C172.395 66.6125 172.183 66.809 172.05 67.0499C171.917 67.2912 171.855 67.5638 171.866 67.868C171.877 68.1717 171.952 68.4881 172.092 68.8172C172.231 69.141 172.397 69.4019 172.592 69.601C172.787 69.7996 172.996 69.929 173.218 69.9892C173.44 70.0489 173.658 70.032 173.873 69.939C174.074 69.8508 174.217 69.7183 174.303 69.5392C174.389 69.3602 174.431 69.1367 174.429 68.8663C174.428 68.5969 174.397 68.2805 174.335 67.9171L174.16 66.8275C174.018 65.9861 174.048 65.2603 174.249 64.6498C174.451 64.0392 174.882 63.5913 175.543 63.306C176.082 63.0673 176.616 63.0081 177.146 63.1265C177.676 63.2464 178.165 63.5147 178.612 63.933C179.06 64.3519 179.423 64.8896 179.705 65.5482C179.991 66.2185 180.127 66.8533 180.113 67.4534C180.101 68.0534 179.952 68.5811 179.667 69.0369C179.382 69.4922 178.976 69.8413 178.448 70.0811L177.668 68.252Z" fill="#00395C"/>
<path d="M170.266 76.0572C170.191 75.8094 170.138 75.5723 170.109 75.3446C170.081 75.1175 170.072 74.9253 170.083 74.7673L171.665 74.752C171.665 75.1302 171.727 75.4302 171.85 75.6515C171.972 75.8728 172.212 76.0022 172.568 76.0413L172.898 76.063L179.282 71.2808L179.914 73.3344L175.251 76.4031L175.273 76.4766L180.839 76.3371L181.467 78.4071L172.919 78.0981C172.507 78.0838 172.128 78.0078 171.782 77.8705C171.437 77.7326 171.135 77.5171 170.876 77.2224C170.618 76.9282 170.415 76.5399 170.266 76.0572Z" fill="#00395C"/>
<path d="M181.013 86.3421L180.526 84.5309C180.674 84.4681 180.801 84.3709 180.906 84.2414C181.01 84.111 181.082 83.9546 181.124 83.7714C181.166 83.587 181.163 83.3794 181.115 83.1476C181.051 82.837 180.933 82.5888 180.762 82.4028C180.589 82.2169 180.396 82.1461 180.182 82.191C180.012 82.2264 179.881 82.3257 179.792 82.4889C179.703 82.6511 179.657 82.9078 179.654 83.2574L179.661 84.6196C179.663 85.3517 179.541 85.9227 179.295 86.3341C179.05 86.7451 178.67 87.0044 178.155 87.1127C177.688 87.2104 177.248 87.1576 176.839 86.9548C176.428 86.7514 176.076 86.4297 175.781 85.9898C175.485 85.5498 175.273 85.0163 175.145 84.3893C174.949 83.4333 174.99 82.631 175.269 81.9824C175.549 81.3338 176.019 80.8896 176.681 80.6492L177.187 82.5982C176.911 82.7181 176.722 82.9083 176.618 83.1687C176.514 83.4291 176.499 83.7375 176.573 84.0951C176.644 84.4459 176.77 84.7142 176.949 84.9017C177.127 85.0876 177.324 85.1605 177.539 85.1188C177.718 85.0776 177.85 84.9698 177.936 84.795C178.021 84.6202 178.062 84.3693 178.06 84.0434L178.05 82.7409C178.045 82.0062 178.179 81.4315 178.453 81.0158C178.726 80.6006 179.13 80.3365 179.663 80.2251C180.121 80.1295 180.542 80.1728 180.926 80.3556C181.309 80.5378 181.637 80.8404 181.912 81.2614C182.185 81.684 182.386 82.2026 182.512 82.8206C182.699 83.7323 182.656 84.4907 182.382 85.0955C182.108 85.7014 181.653 86.116 181.013 86.3421Z" fill="#00395C"/>
<path d="M185.093 88.0249L185.342 90.0542L178.597 90.9036C178.412 90.9268 178.272 90.9733 178.176 91.043C178.081 91.1138 178.02 91.2025 177.992 91.3113C177.964 91.4201 177.958 91.5421 177.975 91.6784C177.986 91.7735 178.007 91.8686 178.036 91.961C178.065 92.0545 178.087 92.1258 178.103 92.1755L176.649 92.683C176.605 92.5848 176.55 92.4464 176.485 92.2679C176.42 92.0888 176.367 91.868 176.325 91.605C176.246 91.1185 176.258 90.6828 176.36 90.2972C176.463 89.9116 176.657 89.5979 176.943 89.3555C177.229 89.1125 177.609 88.9635 178.084 88.907L185.093 88.0249ZM183.779 91.6499L182.271 91.8395L181.729 87.4312L183.237 87.2427L183.779 91.6499Z" fill="#00395C"/>
<path d="M176.673 96.9776C176.641 96.2197 176.768 95.5621 177.051 95.0038C177.333 94.4455 177.749 94.0076 178.299 93.6902C178.848 93.3722 179.507 93.1968 180.275 93.1651C181.025 93.1334 181.688 93.2533 182.266 93.5238C182.844 93.7937 183.302 94.1903 183.64 94.7132C183.978 95.2351 184.162 95.8584 184.192 96.5815C184.212 97.0674 184.154 97.5243 184.018 97.9511C183.881 98.3778 183.667 98.755 183.373 99.083C183.079 99.411 182.704 99.6724 182.249 99.8678C181.792 100.063 181.254 100.174 180.634 100.2L180.079 100.223L179.825 94.0007L181.077 93.9484L181.253 98.2468C181.544 98.2347 181.799 98.1597 182.018 98.0229C182.237 97.8855 182.406 97.7012 182.525 97.4704C182.644 97.239 182.697 96.9755 182.685 96.6776C182.673 96.3675 182.591 96.0966 182.44 95.8636C182.29 95.6312 182.093 95.4532 181.853 95.3286C181.612 95.2039 181.347 95.1464 181.06 95.1553L179.869 95.205C179.508 95.2203 179.2 95.3011 178.943 95.4485C178.686 95.5948 178.492 95.796 178.359 96.0517C178.228 96.3073 178.168 96.6063 178.182 96.948C178.192 97.1746 178.231 97.3816 178.303 97.5681C178.374 97.7535 178.475 97.9114 178.607 98.0408C178.739 98.1692 178.898 98.2658 179.084 98.3282L179.039 100.224C178.586 100.147 178.186 99.9671 177.841 99.6851C177.495 99.403 177.22 99.0333 177.016 98.5759C176.812 98.1185 176.698 97.5856 176.673 96.9776Z" fill="#00395C"/>
<path d="M177.039 101.409L184.305 102.031L184.142 103.974L182.86 103.864L182.853 103.95C183.266 104.14 183.58 104.424 183.796 104.802C184.012 105.18 184.099 105.618 184.058 106.116C184.015 106.62 183.856 107.039 183.579 107.371C183.302 107.704 182.947 107.912 182.514 107.993L182.507 108.07C182.911 108.255 183.222 108.556 183.44 108.971C183.658 109.387 183.744 109.864 183.698 110.403C183.641 111.088 183.379 111.628 182.913 112.019C182.446 112.412 181.819 112.574 181.031 112.506L176.145 112.088L176.315 110.055L180.804 110.439C181.207 110.473 181.519 110.392 181.739 110.192C181.959 109.992 182.082 109.73 182.11 109.404C182.141 109.035 182.049 108.735 181.835 108.509C181.621 108.281 181.324 108.152 180.946 108.119L176.509 107.74L176.675 105.763L181.206 106.151C181.562 106.181 181.854 106.103 182.083 105.916C182.312 105.728 182.439 105.467 182.468 105.131C182.486 104.905 182.448 104.697 182.351 104.507C182.254 104.317 182.111 104.162 181.918 104.039C181.727 103.917 181.497 103.844 181.23 103.821L176.868 103.447L177.039 101.409Z" fill="#00395C"/>
<path d="M80.7079 177.632L78.7225 177.006C78.7664 176.735 78.7638 176.48 78.7147 176.242C78.6651 176.003 78.5753 175.785 78.4442 175.585C78.3131 175.387 78.1455 175.213 77.9408 175.065C77.7361 174.917 77.5011 174.801 77.2348 174.717C76.7549 174.566 76.2996 174.553 75.8693 174.681C75.4385 174.809 75.0547 175.07 74.7174 175.465C74.3805 175.86 74.1116 176.383 73.9111 177.034C73.7048 177.703 73.6307 178.296 73.6881 178.814C73.7461 179.332 73.9168 179.763 74.202 180.108C74.4871 180.452 74.8636 180.698 75.332 180.846C75.5952 180.929 75.8495 180.971 76.0959 180.971C76.3429 180.972 76.5753 180.932 76.7925 180.852C77.0092 180.771 77.2061 180.651 77.3831 180.492C77.5591 180.333 77.709 180.135 77.8317 179.899L79.8139 180.534C79.6301 180.949 79.3742 181.323 79.0474 181.658C78.7205 181.992 78.3372 182.262 77.898 182.467C77.4583 182.673 76.9748 182.792 76.4453 182.824C75.9163 182.857 75.355 182.78 74.7591 182.592C73.9315 182.331 73.25 181.908 72.7158 181.325C72.1816 180.741 71.8365 180.03 71.6819 179.193C71.5273 178.356 71.6072 177.427 71.9216 176.407C72.2365 175.383 72.6955 174.571 73.2976 173.973C73.8996 173.375 74.5847 172.99 75.3534 172.819C76.1226 172.647 76.9153 172.689 77.7309 172.947C78.2688 173.116 78.7445 173.35 79.1581 173.648C79.5716 173.946 79.9121 174.297 80.1784 174.702C80.4453 175.106 80.6259 175.554 80.721 176.047C80.8165 176.54 80.8118 177.068 80.7079 177.632Z" fill="#00395C"/>
<path d="M84.1331 184.952C83.3957 184.811 82.7905 184.538 82.3174 184.133C81.8443 183.727 81.5169 183.218 81.3357 182.605C81.154 181.992 81.1352 181.303 81.2788 180.539C81.4182 179.794 81.684 179.167 82.0762 178.659C82.4673 178.151 82.9534 177.789 83.5331 177.575C84.1127 177.36 84.7539 177.32 85.4568 177.456C85.9294 177.546 86.356 177.707 86.7362 177.938C87.1163 178.169 87.4307 178.466 87.6798 178.83C87.9289 179.194 88.096 179.622 88.1805 180.117C88.2651 180.61 88.2495 181.165 88.1341 181.781L88.0302 182.333L81.9811 181.172L82.2151 179.926L86.3936 180.729C86.4479 180.439 86.4338 180.171 86.3513 179.924C86.2693 179.677 86.1299 179.469 85.9346 179.299C85.7393 179.13 85.4975 179.017 85.2082 178.961C84.9064 178.904 84.6265 178.922 84.3691 179.018C84.1106 179.114 83.8949 179.266 83.72 179.475C83.5456 179.685 83.4302 179.932 83.3733 180.217L83.1508 181.402C83.084 181.76 83.0918 182.083 83.1748 182.369C83.2579 182.656 83.4077 182.893 83.6239 183.081C83.8396 183.269 84.1143 183.395 84.4469 183.459C84.6673 183.501 84.8751 183.508 85.0704 183.481C85.2662 183.453 85.4406 183.389 85.5947 183.288C85.7487 183.187 85.8777 183.052 85.98 182.883L87.7946 183.358C87.6176 183.787 87.3539 184.14 87.0041 184.416C86.6547 184.693 86.2359 184.879 85.7492 184.977C85.262 185.074 84.7231 185.066 84.1331 184.952Z" fill="#00395C"/>
<path d="M89.2852 185.644L90.0293 178.307L91.9797 178.509L91.8496 179.789L91.9254 179.798C92.1039 179.356 92.3609 179.034 92.6961 178.833C93.0319 178.631 93.4026 178.551 93.8084 178.593C93.9091 178.604 94.0172 178.621 94.1326 178.646C94.2475 178.671 94.3483 178.7 94.4345 178.731L94.2506 180.536C94.1593 180.498 94.0313 180.458 93.8663 180.419C93.7018 180.379 93.5504 180.352 93.412 180.338C93.1165 180.307 92.846 180.345 92.6011 180.449C92.3572 180.554 92.1556 180.714 91.999 180.93C91.8418 181.145 91.7483 181.403 91.7175 181.702L91.2966 185.853L89.2852 185.644Z" fill="#00395C"/>
<path d="M99.6123 178.95L99.5648 180.485L95.1758 180.347L95.2228 178.811L99.6123 178.95ZM96.2739 177.076L98.2953 177.14L98.0833 184.013C98.0776 184.202 98.1016 184.349 98.1549 184.454C98.2092 184.561 98.2865 184.636 98.3883 184.681C98.4896 184.725 98.6081 184.75 98.7444 184.754C98.8389 184.757 98.9345 184.751 99.0295 184.737C99.1256 184.722 99.1987 184.711 99.2499 184.703L99.5204 186.234C99.4186 186.263 99.275 186.296 99.0896 186.334C98.9047 186.371 98.6812 186.391 98.4186 186.392C97.9303 186.396 97.5063 186.317 97.146 186.155C96.7847 185.993 96.5084 185.751 96.3157 185.427C96.123 185.104 96.0358 184.701 96.0536 184.218L96.2739 177.076Z" fill="#00395C"/>
<path d="M101.784 177.951C101.483 177.958 101.223 177.863 101.004 177.666C100.784 177.469 100.671 177.229 100.664 176.944C100.658 176.659 100.76 176.413 100.971 176.204C101.181 175.996 101.436 175.889 101.733 175.882C102.037 175.875 102.298 175.97 102.515 176.166C102.734 176.363 102.846 176.604 102.853 176.889C102.859 177.174 102.757 177.42 102.548 177.628C102.34 177.837 102.085 177.944 101.784 177.951ZM100.95 186.298L100.785 178.925L102.807 178.879L102.972 186.252L100.95 186.298Z" fill="#00395C"/>
<path d="M108.245 178.514L108.363 180.046L103.875 180.398L103.758 178.867L108.245 178.514ZM105.349 186.139L104.744 178.254C104.703 177.721 104.773 177.271 104.953 176.904C105.133 176.536 105.396 176.251 105.742 176.047C106.088 175.844 106.49 175.724 106.947 175.688C107.257 175.664 107.542 175.665 107.802 175.693C108.063 175.721 108.258 175.749 108.388 175.777L108.145 177.337C108.064 177.318 107.965 177.302 107.849 177.288C107.732 177.275 107.613 177.273 107.493 177.283C107.196 177.306 106.995 177.391 106.89 177.539C106.783 177.688 106.74 177.886 106.759 178.135L107.361 185.981L105.349 186.139Z" fill="#00395C"/>
<path d="M110.298 177.279C110 177.32 109.731 177.255 109.491 177.084C109.252 176.912 109.113 176.686 109.076 176.403C109.039 176.121 109.113 175.864 109.3 175.634C109.487 175.404 109.727 175.269 110.022 175.229C110.323 175.188 110.593 175.254 110.831 175.425C111.069 175.597 111.207 175.823 111.244 176.105C111.281 176.388 111.208 176.644 111.023 176.874C110.837 177.105 110.596 177.239 110.298 177.279ZM110.376 185.669L109.411 178.359L111.416 178.088L112.381 185.398L110.376 185.669Z" fill="#00395C"/>
<path d="M117.698 184.581C116.963 184.736 116.301 184.72 115.71 184.529C115.119 184.338 114.624 183.995 114.224 183.499C113.823 183.003 113.545 182.375 113.387 181.613C113.233 180.871 113.241 180.189 113.41 179.568C113.579 178.947 113.89 178.425 114.344 178.001C114.798 177.578 115.375 177.293 116.076 177.144C116.546 177.044 117.001 177.027 117.44 177.092C117.879 177.158 118.282 177.311 118.65 177.55C119.018 177.79 119.335 178.12 119.6 178.543C119.866 178.966 120.061 179.485 120.189 180.099L120.303 180.649L114.277 181.925L114.02 180.685L118.183 179.803C118.123 179.514 118.008 179.272 117.839 179.076C117.668 178.88 117.461 178.741 117.216 178.661C116.972 178.58 116.705 178.57 116.417 178.632C116.117 178.695 115.866 178.821 115.664 179.009C115.462 179.198 115.32 179.422 115.239 179.683C115.157 179.945 115.144 180.218 115.199 180.503L115.443 181.683C115.517 182.041 115.647 182.335 115.833 182.567C116.018 182.8 116.246 182.96 116.517 183.05C116.788 183.14 117.089 183.15 117.421 183.079C117.641 183.033 117.835 182.96 118.005 182.858C118.175 182.757 118.312 182.629 118.416 182.476C118.52 182.324 118.587 182.149 118.618 181.953L120.474 181.687C120.473 182.152 120.364 182.58 120.146 182.971C119.928 183.362 119.612 183.697 119.199 183.976C118.787 184.255 118.286 184.456 117.698 184.581Z" fill="#00395C"/>
<path d="M125.421 182.522C124.894 182.693 124.373 182.711 123.859 182.573C123.345 182.437 122.878 182.14 122.458 181.682C122.039 181.225 121.705 180.605 121.455 179.822C121.2 179.018 121.115 178.307 121.2 177.688C121.286 177.071 121.5 176.558 121.841 176.153C122.183 175.748 122.608 175.462 123.118 175.296C123.506 175.17 123.852 175.131 124.155 175.178C124.458 175.226 124.721 175.322 124.944 175.467C125.168 175.61 125.352 175.763 125.497 175.924L125.555 175.905L124.436 172.386L126.356 171.761L129.334 181.122L127.436 181.74L127.078 180.615L126.997 180.642C126.969 180.866 126.902 181.101 126.799 181.344C126.696 181.588 126.533 181.815 126.312 182.025C126.092 182.234 125.794 182.4 125.421 182.522ZM125.538 180.773C125.848 180.672 126.084 180.501 126.245 180.259C126.405 180.016 126.494 179.721 126.511 179.372C126.528 179.024 126.47 178.64 126.337 178.223C126.205 177.806 126.032 177.462 125.82 177.191C125.607 176.921 125.366 176.737 125.096 176.64C124.826 176.543 124.535 176.545 124.225 176.646C123.909 176.749 123.67 176.922 123.508 177.167C123.346 177.411 123.259 177.706 123.245 178.049C123.232 178.394 123.289 178.768 123.418 179.173C123.548 179.582 123.719 179.924 123.931 180.199C124.144 180.475 124.386 180.665 124.657 180.771C124.928 180.875 125.222 180.876 125.538 180.773Z" fill="#00395C"/>
<path d="M101.292 50.562C102.084 50.6621 102.876 50.759 103.668 50.8625C108.176 51.4521 112.404 52.9027 116.371 55.1346C119.525 56.9082 122.339 59.1291 124.835 61.7632C126.107 63.1059 127.265 64.5439 128.31 66.0738C128.407 66.2148 128.591 66.3594 128.495 66.548C128.388 66.7589 128.15 66.6763 127.962 66.6995C127.407 66.7681 127.046 66.5316 126.719 66.0684C124.957 63.574 122.843 61.4176 120.475 59.5068C120.104 59.2072 119.797 59.1956 119.413 59.4258C118.57 59.9314 117.725 60.4344 116.866 60.911C116.45 61.1421 116.433 61.3501 116.75 61.694C117.93 62.9767 118.971 64.3719 119.915 65.8383C120.066 66.0716 120.458 66.3257 120.145 66.6562C119.888 66.9279 119.059 66.7944 118.818 66.4968C118.638 66.2738 118.479 66.0331 118.314 65.7984C117.402 64.5065 116.415 63.2764 115.368 62.0935C115.181 61.8822 115.005 61.8491 114.758 61.9507C113.025 62.6638 111.28 63.3483 109.476 63.8597C109.152 63.9513 109.084 64.1154 109.219 64.4158C109.491 65.0229 109.74 65.6411 110.02 66.2445C110.174 66.576 110.053 66.7002 109.74 66.7639C109.136 66.887 108.876 66.766 108.58 66.2021C108.338 65.7404 108.074 65.2893 107.855 64.8166C107.686 64.4518 107.432 64.3624 107.075 64.4467C105.441 64.832 103.785 65.0713 102.115 65.2111C101.441 65.2675 100.768 65.3518 100.093 65.3788C99.6781 65.3954 99.4781 65.5188 99.4779 65.9766C99.4777 66.7261 99.103 66.9697 98.3847 66.7589C98.115 66.6797 98.0772 66.4795 98.0851 66.2559C98.1192 65.3077 97.9744 65.3594 97.1141 65.3187C95.2961 65.2327 93.4933 65.041 91.6994 64.745C91.2599 64.6725 90.8132 64.6164 90.3886 64.4889C89.9077 64.3445 89.6534 64.5221 89.4733 64.9541C89.2794 65.4186 89.0618 65.8735 88.8407 66.3256C88.6352 66.7458 87.9064 66.97 87.5028 66.7565C87.2655 66.631 87.3657 66.4527 87.4324 66.2934C87.6756 65.7127 87.9152 65.1295 88.1838 64.5606C88.3625 64.1821 88.3138 63.9704 87.8829 63.8488C86.1649 63.3636 84.4933 62.737 82.8301 62.0904C82.5036 61.9634 82.3106 62.0338 82.0913 62.2806C80.9697 63.542 79.9232 64.8622 78.9745 66.2615C78.6352 66.7621 78.104 66.9507 77.5418 66.793C77.2156 66.7017 77.3318 66.5152 77.4396 66.3453C77.8052 65.7691 78.1544 65.1795 78.558 64.6315C79.2817 63.649 80.0259 62.681 80.7924 61.7326C81.0505 61.4131 80.9956 61.2605 80.6728 61.0776C79.7403 60.549 78.8113 60.0135 77.8921 59.4618C77.5629 59.2643 77.322 59.3966 77.0646 59.5834C75.5499 60.6825 74.2433 62.0101 72.9942 63.3975C72.154 64.3306 71.3839 65.3233 70.6411 66.3379C70.3387 66.7511 69.5841 66.953 69.1466 66.7512C68.8217 66.6014 69.0569 66.417 69.1528 66.2852C69.8181 65.3709 70.4609 64.4367 71.176 63.5635C75.565 58.204 81.0524 54.4687 87.589 52.3164C90.3439 51.4092 93.1718 50.8503 96.0659 50.6504C96.205 50.6408 96.3415 50.5924 96.4792 50.562H101.292ZM98.0645 60.0037C98.0304 59.221 98.1339 58.0681 98.0111 56.9172C97.9735 56.5645 97.8258 56.4304 97.476 56.3972C96.8391 56.3367 96.2068 56.2242 95.5738 56.1258C95.33 56.088 95.1234 56.1107 94.9506 56.3214C93.33 58.2958 91.941 60.4272 90.7102 62.6683C90.5349 62.9875 90.6229 63.1287 90.9487 63.1861C91.7198 63.3219 92.4876 63.4825 93.2625 63.5896C94.6193 63.777 95.9788 63.9458 97.352 63.9628C97.8559 63.9689 98.0961 63.7958 98.0746 63.2356C98.0379 62.2824 98.0645 61.3267 98.0645 60.0037ZM99.4923 60.2002C99.4923 61.2624 99.5089 62.3251 99.4846 63.3866C99.474 63.846 99.6512 63.9858 100.082 63.9596C102.161 63.8329 104.232 63.6494 106.27 63.1897C106.856 63.0575 106.874 63.036 106.6 62.4997C105.483 60.3125 104.013 58.3671 102.528 56.4326C102.355 56.2073 102.155 56.1377 101.878 56.1821C101.263 56.2802 100.646 56.3607 100.027 56.4338C99.6435 56.4791 99.4766 56.6547 99.4855 57.0678C99.508 58.1115 99.493 59.1561 99.4923 60.2002ZM105.769 54.7656C105.257 54.9967 104.744 55.2435 104.218 55.4595C103.856 55.6085 103.82 55.7727 104.059 56.0903C105.539 58.0548 106.866 60.1244 108.122 62.2397C108.322 62.5752 108.518 62.6654 108.898 62.5697C110.459 62.177 111.955 61.607 113.439 60.9904C113.876 60.8085 113.909 60.6621 113.569 60.3327C111.372 58.2001 108.945 56.3908 106.243 54.9655C106.103 54.8917 105.951 54.8415 105.769 54.7656ZM88.6775 62.6424C89.0062 62.6895 89.1465 62.5618 89.2532 62.3805C90.5392 60.1969 91.8482 58.0286 93.4026 56.0242C93.601 55.7684 93.567 55.5978 93.2515 55.444C91.7759 54.7249 91.6937 54.7214 90.2735 55.5803C90.197 55.6265 90.1194 55.6708 90.0428 55.7168C87.8272 57.0474 85.8111 58.6447 83.9282 60.4173C83.5126 60.8086 83.5343 60.8919 84.0589 61.1001C84.7551 61.3765 85.4492 61.6628 86.1596 61.8974C87.0221 62.1824 87.8829 62.4807 88.6775 62.6424ZM98.4621 51.854C97.9141 51.807 97.0102 51.9336 96.1062 51.9927C94.5788 52.0927 93.0641 52.3177 91.5676 52.6519C91.4546 52.6773 91.2885 52.6703 91.2849 52.8382C91.2825 52.9536 91.4092 53.0018 91.5014 53.0537C91.9215 53.2897 92.3315 53.5475 92.7647 53.7556C96.0748 55.3463 99.4831 55.4447 102.96 54.4142C103.905 54.134 104.787 53.7042 105.632 53.1993C105.803 53.0972 106.106 53.0315 106.063 52.7859C106.027 52.5811 105.73 52.6388 105.553 52.5678C105.488 52.5417 105.414 52.5391 105.344 52.5241C103.195 52.0621 101.016 51.9029 98.4621 51.854ZM89.103 53.2781C88.839 53.4273 88.4883 53.262 88.2043 53.4645C87.9369 53.6554 87.6161 53.7175 87.3146 53.8241C84.4397 54.8413 81.7377 56.2001 79.2385 57.9686C78.8699 58.2295 78.8234 58.3907 79.2319 58.6536C80.0157 59.1583 80.8343 59.5914 81.671 59.9967C82.0294 60.1702 82.2793 60.1136 82.5678 59.8331C83.4795 58.9469 84.435 58.1086 85.4259 57.3123C86.8085 56.2012 88.2437 55.1665 89.739 54.2158C89.8818 54.1249 90.2016 54.0369 90.0264 53.8094C89.8162 53.5365 89.5256 53.2922 89.103 53.2781ZM108.315 53.2261C107.882 53.256 107.561 53.464 107.423 53.7904C107.304 54.0728 107.677 54.1291 107.853 54.2378C110.404 55.8086 112.789 57.5983 114.913 59.7278C115.228 60.043 115.494 60.1141 115.893 59.8678C116.622 59.4173 117.382 59.0178 118.13 58.5974C118.689 58.2827 118.696 58.2083 118.18 57.853C115.961 56.3246 113.602 55.0653 111.075 54.1437C110.154 53.8079 109.214 53.5234 108.315 53.2261Z" fill="#00395C"/>
<path d="M95.8441 120.772C94.9478 120.641 94.0495 120.522 93.1558 120.375C88.3647 119.585 83.8987 117.911 79.7896 115.291C75.7156 112.693 72.2644 109.424 69.5108 105.418C69.3468 105.179 68.9857 104.921 69.1453 104.646C69.2932 104.391 69.705 104.558 69.9993 104.528C70.3719 104.49 70.5775 104.71 70.7742 104.994C72.5142 107.506 74.6045 109.684 76.9328 111.642C77.3876 112.024 77.7619 112.149 78.2976 111.8C79.0905 111.283 79.9185 110.819 80.7485 110.364C81.1632 110.137 81.1699 109.946 80.8745 109.59C79.7063 108.181 78.5709 106.744 77.6299 105.164C77.2911 104.594 77.3041 104.584 77.931 104.477C78.4065 104.396 78.7367 104.535 79.0082 104.966C79.95 106.458 81.0551 107.824 82.2356 109.131C82.4484 109.366 82.6498 109.424 82.9405 109.309C84.682 108.615 86.4378 107.961 88.2393 107.441C88.5902 107.34 88.6304 107.152 88.4883 106.837C88.2223 106.246 87.995 105.638 87.727 105.049C87.533 104.622 87.7224 104.479 88.1038 104.472C88.5688 104.464 88.9683 104.549 89.1679 105.082C89.3435 105.552 89.6337 105.976 89.8298 106.439C89.9774 106.787 90.1844 106.878 90.5394 106.808C92.1307 106.492 93.7337 106.252 95.3495 106.109C96.0942 106.042 96.84 105.963 97.5863 105.951C98.0827 105.943 98.2995 105.779 98.2924 105.259C98.2832 104.594 98.7602 104.301 99.3665 104.555C99.5724 104.641 99.5819 104.818 99.598 105C99.65 105.586 99.9729 105.897 100.567 105.932C102.631 106.055 104.679 106.322 106.715 106.689C107.928 106.908 107.927 106.914 108.487 105.79C108.607 105.549 108.747 105.315 108.842 105.063C108.998 104.651 109.264 104.497 109.704 104.517C110.391 104.548 110.443 104.582 110.192 105.221C110.001 105.706 109.776 106.177 109.561 106.653C109.296 107.242 109.301 107.278 109.939 107.461C111.604 107.94 113.229 108.536 114.826 109.207C115.265 109.391 115.503 109.273 115.784 108.957C116.859 107.748 117.816 106.449 118.714 105.103C119.067 104.574 119.691 104.353 120.277 104.536C120.59 104.633 120.422 104.822 120.34 104.952C119.935 105.589 119.539 106.233 119.093 106.84C118.413 107.766 117.708 108.673 116.986 109.565C116.717 109.897 116.768 110.069 117.115 110.267C118.093 110.823 119.065 111.392 120.031 111.971C120.259 112.108 120.419 112.053 120.606 111.903C121.951 110.828 123.202 109.651 124.358 108.37C125.356 107.264 126.284 106.101 127.154 104.89C127.378 104.578 128.338 104.378 128.62 104.578C128.852 104.743 128.666 104.907 128.575 105.035C128.014 105.826 127.469 106.63 126.866 107.388C123.46 111.666 119.326 115.03 114.412 117.382C110.658 119.179 106.706 120.281 102.567 120.68C102.427 120.694 102.292 120.741 102.154 120.772L95.8441 120.772ZM99.7007 110.734C99.7007 111.958 99.6991 113.182 99.702 114.406C99.7026 114.645 99.7104 114.873 100.038 114.918C100.708 115.01 101.374 115.135 102.045 115.226C102.344 115.268 102.649 115.281 102.874 114.991C104.426 112.988 105.84 110.892 107.038 108.65C107.19 108.367 107.123 108.208 106.822 108.141C104.624 107.654 102.401 107.384 100.15 107.362C99.8334 107.359 99.6954 107.505 99.6995 107.819C99.7124 108.792 99.5371 109.759 99.7007 110.734ZM98.2038 109.153C98.2038 108.739 98.192 108.325 98.2073 107.911C98.2215 107.529 98.0789 107.356 97.6813 107.357C95.52 107.364 93.3955 107.689 91.2776 108.082C90.909 108.15 90.7883 108.31 90.9878 108.675C92.2041 110.901 93.5694 113.024 95.1856 114.977C95.3497 115.175 95.5317 115.266 95.7891 115.226C96.4213 115.128 97.0529 115.012 97.6892 114.959C98.1806 114.919 98.299 114.682 98.2931 114.223C98.2715 112.533 98.3128 110.842 98.2038 109.153ZM89.0854 108.622C89.0334 108.634 88.981 108.645 88.9295 108.659C87.3115 109.096 85.7281 109.631 84.1972 110.324C83.7562 110.524 83.785 110.699 84.098 111.012C86.3037 113.221 88.7967 115.023 91.5623 116.443C91.7391 116.534 91.9099 116.622 92.1173 116.525C92.5695 116.314 93.0237 116.108 93.4798 115.906C93.7877 115.769 93.809 115.601 93.6158 115.323C92.163 113.233 90.7181 111.136 89.492 108.896C89.4038 108.735 89.3106 108.577 89.0854 108.622ZM105.993 116.555C106.149 116.492 106.304 116.447 106.442 116.372C109.146 114.91 111.623 113.139 113.774 110.913C114.123 110.552 114.016 110.419 113.63 110.242C112.164 109.568 110.642 109.071 109.082 108.677C108.739 108.59 108.561 108.707 108.398 109.003C107.945 109.82 107.473 110.627 106.995 111.43C106.223 112.729 105.353 113.961 104.471 115.185C104.35 115.354 104.062 115.579 104.339 115.78C104.832 116.138 105.425 116.307 105.993 116.555ZM91.4203 118.558C91.5078 118.638 91.5292 118.672 91.5585 118.682C91.6427 118.71 91.7295 118.732 91.8163 118.751C96.5654 119.789 101.317 119.727 106.069 118.774C106.2 118.748 106.394 118.753 106.428 118.592C106.472 118.391 106.265 118.337 106.136 118.259C102.652 116.133 98.928 115.88 95.0631 116.85C93.7623 117.176 92.5545 117.738 91.4203 118.558ZM108.583 118.127C109.099 117.961 109.628 117.802 110.149 117.621C113.109 116.593 115.939 115.302 118.473 113.413C118.979 113.036 118.98 113.008 118.472 112.683C117.689 112.183 116.877 111.738 116.036 111.344C115.714 111.193 115.504 111.217 115.237 111.47C113.951 112.687 112.638 113.874 111.219 114.935C110.158 115.728 109.066 116.47 107.937 117.157C107.799 117.241 107.509 117.33 107.651 117.521C107.868 117.814 108.172 118.056 108.583 118.127ZM89.2991 118.125C89.7345 118.085 90.0774 117.883 90.2152 117.572C90.3445 117.281 89.9359 117.225 89.749 117.102C87.2825 115.482 84.9015 113.75 82.7999 111.657C82.4369 111.295 82.11 111.212 81.6719 111.473C80.9519 111.902 80.2163 112.304 79.4959 112.732C78.9072 113.081 78.9075 113.113 79.4625 113.494C81.6954 115.026 84.0633 116.299 86.6024 117.23C87.5046 117.561 88.4265 117.837 89.2991 118.125Z" fill="#00395C"/>
<path d="M71.9365 75.8523V95.8119H76.5375V100.947H59.6406V95.8119H64.1425V75.8523H59.6406V70.7173H76.5375V75.8523H71.9365Z" fill="#00395C"/>
<path d="M96.8499 73.225V70.7178H103.887V79.865H96.8499C96.5565 78.3941 95.9016 77.2874 94.8842 76.545C93.8672 75.8026 92.552 75.4315 90.9396 75.4315C89.8028 75.4315 88.8317 75.6656 88.0256 76.1338C87.2187 76.6021 86.8159 77.1904 86.8159 77.8992C86.8159 78.5279 87.0725 79.0693 87.5856 79.5237C88.0983 79.9786 88.7583 80.3632 89.5648 80.6773C90.371 80.9915 91.5806 81.4096 93.1937 81.9312L94.8707 82.4528C98.5172 83.6032 101.271 84.9536 103.132 86.5046C104.991 88.0561 105.922 89.9953 105.922 92.3222C105.922 95.0903 104.831 97.2801 102.65 98.8919C100.469 100.504 97.537 101.309 93.8533 101.309C90.2614 101.309 87.4661 100.326 85.4689 98.3601V100.948H78.4315V90.6774H85.4689C85.6155 92.456 86.243 93.8102 87.352 94.7393C88.4605 95.6689 89.9588 96.1335 91.8466 96.1335C93.1111 96.1335 94.1786 95.8193 95.0494 95.1905C95.9196 94.5622 96.3551 93.8001 96.3551 92.9041C96.3551 91.9947 95.8556 91.1622 94.8568 90.4065C93.8577 89.6512 92.158 88.8918 89.7574 88.1296C85.6703 86.8192 82.7062 85.4085 80.8643 83.8971C79.0225 82.3856 78.1016 80.6474 78.1016 78.6816C78.1016 77.1434 78.5869 75.7396 79.5586 74.4688C80.5296 73.1983 81.8719 72.1988 83.5858 71.4698C85.2994 70.7412 87.1639 70.3765 89.18 70.3765C90.7924 70.3765 92.2589 70.617 93.5785 71.0986C94.8981 71.5802 95.9883 72.289 96.8499 73.225Z" fill="#00395C"/>
<path d="M107.133 85.7418C107.133 82.6794 107.827 79.978 109.215 77.6377C110.604 75.2975 112.557 73.4751 115.076 72.1711C117.594 70.8676 120.493 70.2153 123.772 70.2153C127.051 70.2153 129.943 70.8676 132.448 72.1711C134.954 73.4751 136.897 75.3039 138.279 77.6575C139.661 80.0116 140.352 82.7061 140.352 85.7418C140.352 88.8181 139.661 91.5328 138.279 93.8864C136.897 96.24 134.947 98.0656 132.429 99.3627C129.91 100.66 127.024 101.308 123.772 101.308C120.586 101.308 117.726 100.66 115.195 99.3627C112.663 98.0656 110.686 96.24 109.265 93.8864C107.844 91.5328 107.133 88.8181 107.133 85.7418ZM132.022 85.7018C132.022 83.8698 131.692 82.201 131.031 80.697C130.369 79.1924 129.414 77.9956 128.165 77.106C126.915 76.2169 125.451 75.7721 123.772 75.7721C122.093 75.7721 120.632 76.2169 119.389 77.106C118.146 77.9956 117.191 79.1924 116.523 80.697C115.856 82.201 115.522 83.8698 115.522 85.7018C115.522 87.6277 115.862 89.3562 116.543 90.8874C117.224 92.4187 118.186 93.6224 119.429 94.4981C120.671 95.3739 122.106 95.8118 123.732 95.8118C125.411 95.8118 126.882 95.3739 128.145 94.4981C129.407 93.6224 130.369 92.4187 131.031 90.8874C131.692 89.3562 132.022 87.6277 132.022 85.7018Z" fill="#00395C"/>
</g>
</g>
<defs>
<clipPath id="clip0_4005_950">
<rect width="200" height="200" fill="white"/>
</clipPath>
<clipPath id="clip1_4005_950">
<rect width="200" height="202.299" fill="white" transform="translate(0 -1)"/>
</clipPath>
</defs>
</svg>
