<svg width="484" height="492" viewBox="0 0 484 492" fill="none" xmlns="http://www.w3.org/2000/svg">
<path opacity="0.25" d="M230.477 491.204C355.132 491.204 456.185 480.867 456.185 468.116C456.185 455.366 355.132 445.029 230.477 445.029C105.822 445.029 4.76953 455.366 4.76953 468.116C4.76953 480.867 105.822 491.204 230.477 491.204Z" fill="#CFCFCF"/>
<path d="M92.4023 350.091C92.4023 350.091 92.8943 355.031 95.6008 361.453L104.214 365.405L97.3235 366.64C104.952 385.659 123.409 412.83 166.228 407.396C166.228 407.643 187.146 353.796 92.4023 350.091Z" fill="#FABD41"/>
<path d="M103.722 379.484L138.666 383.189L92.4023 350.091" stroke="white" stroke-miterlimit="10"/>
<path d="M122.176 353.549L138.664 383.189" stroke="white" stroke-miterlimit="10"/>
<path d="M119.718 317.979C119.718 317.979 131.284 310.075 133.745 316.744C135.96 323.66 139.159 323.413 142.85 322.919C146.296 322.425 151.955 319.214 153.924 326.624C155.893 334.281 153.924 338.728 157.369 341.197C160.815 343.42 171.397 357.5 164.26 359.722C157.369 361.946 149.248 356.265 146.296 353.054C143.342 349.596 137.19 349.596 133.006 350.831C128.085 352.066 121.932 349.596 123.901 343.915C125.87 337.986 122.671 332.305 118.734 331.071C113.812 329.835 111.597 323.166 119.718 317.979Z" fill="#1C4599"/>
<path d="M125.621 324.648L165.733 364.91" stroke="white" stroke-width="0.5" stroke-miterlimit="10" stroke-linecap="round" stroke-linejoin="round"/>
<path d="M145.066 328.106L141.867 340.951L128.086 343.174" stroke="white" stroke-width="0.5" stroke-miterlimit="10" stroke-linecap="round" stroke-linejoin="round"/>
<path d="M109.133 336.01C109.133 336.01 109.133 343.173 114.055 340.457C118.977 337.739 122.422 337.246 124.391 342.68C126.359 348.114 129.804 350.337 133.496 349.349C136.941 348.114 142.601 345.643 144.815 353.054C147.03 360.711 153.183 374.791 145.061 378.743C137.187 382.448 124.882 377.26 122.668 371.826C120.699 366.392 122.668 361.452 116.515 359.229C110.363 357.5 109.379 363.675 103.719 359.476C98.0588 355.277 92.1529 351.572 96.0902 342.68C100.52 334.528 108.395 332.058 109.133 336.01Z" stroke="#ED3B4E" stroke-width="0.5" stroke-miterlimit="10"/>
<path d="M107.656 344.162C107.656 344.162 142.354 371.332 153.182 375.778" stroke="#ED3B4E" stroke-width="0.5" stroke-miterlimit="10"/>
<path d="M135.956 354.042L136.695 365.404L127.836 369.109" stroke="#ED3B4E" stroke-width="0.5" stroke-miterlimit="10"/>
<path d="M118.238 343.174L117.992 351.819L110.609 355.771" stroke="#ED3B4E" stroke-width="0.5" stroke-miterlimit="10"/>
<path d="M134.732 233.257C177.408 233.257 212.003 198.532 212.003 155.697C212.003 112.862 177.408 78.1377 134.732 78.1377C92.0561 78.1377 57.4609 112.862 57.4609 155.697C57.4609 198.532 92.0561 233.257 134.732 233.257Z" stroke="#DD1F26" stroke-width="0.5" stroke-miterlimit="10.0002" stroke-dasharray="2 2"/>
<path d="M73.2105 122.846C80.6856 122.846 86.7453 116.764 86.7453 109.261C86.7453 101.758 80.6856 95.6753 73.2105 95.6753C65.7355 95.6753 59.6758 101.758 59.6758 109.261C59.6758 116.764 65.7355 122.846 73.2105 122.846Z" fill="#24499F"/>
<path d="M77.3942 103.826L66.8125 107.778L74.195 113.706L77.3942 103.826Z" fill="white"/>
<path d="M317.896 363.865C376.609 363.865 424.205 316.091 424.205 257.159C424.205 198.226 376.609 150.453 317.896 150.453C259.183 150.453 211.586 198.226 211.586 257.159C211.586 316.091 259.183 363.865 317.896 363.865Z" stroke="#1466B1" stroke-width="0.5" stroke-miterlimit="10.0002" stroke-dasharray="2 2"/>
<path d="M401.073 210.228C411.402 210.228 419.776 201.823 419.776 191.456C419.776 181.088 411.402 172.683 401.073 172.683C390.745 172.683 382.371 181.088 382.371 191.456C382.371 201.823 390.745 210.228 401.073 210.228Z" fill="#EC384E"/>
<path d="M406.731 198.866L405.254 183.551L394.918 191.208L406.731 198.866Z" fill="white"/>
<path d="M260.481 10.9516C260.481 10.9516 251.13 18.6087 259.988 22.0668C269.095 25.5249 272.539 29.7239 267.864 38.1221C262.942 46.5203 264.418 53.1894 269.095 56.4005C274.016 59.6116 283.367 64.3046 275.984 74.9259C268.848 86.0411 256.544 108.025 243.501 102.096C230.458 96.1682 224.06 74.4319 229.228 66.0337C234.396 57.6356 243.255 55.1655 238.826 45.2853C234.888 35.405 225.783 40.3452 225.536 28.9829C225.29 17.3737 223.814 5.51743 239.809 1.81235C253.345 -1.64572 264.173 5.27042 260.481 10.9516Z" stroke="#1C4599" stroke-width="0.5" stroke-miterlimit="10"/>
<path d="M247.934 18.1147C247.934 18.1147 249.409 91.2279 253.839 109.506" stroke="#1C4599" stroke-width="0.5" stroke-miterlimit="10"/>
<path d="M264.172 64.3052L250.39 77.3964L236.363 69.9863" stroke="#1C4599" stroke-width="0.5" stroke-miterlimit="10"/>
<path d="M260.233 30.2178L248.914 38.369L236.117 33.4289" stroke="#1C4599" stroke-width="0.5" stroke-miterlimit="10"/>
<path d="M291.243 11.6925C291.243 11.6925 313.145 18.6086 307.239 28.4889C300.594 38.369 304.286 42.5681 308.715 46.2732C312.652 49.9783 322.988 54.1774 315.359 64.3046C307.731 74.4317 300.102 76.4078 300.594 83.3239C301.086 90.2403 293.95 117.905 283.861 111.482C273.525 105.307 272.54 88.7581 274.017 81.5949C275.493 74.6788 269.095 66.7746 262.943 61.5875C256.791 56.6474 253.346 46.5202 262.697 43.3091C272.294 39.851 276.724 30.2178 273.771 23.3017C269.833 16.6325 276.478 7.24638 291.243 11.6925Z" fill="#FABD41"/>
<path d="M289.269 26.5132L278.195 120.128" stroke="white" stroke-width="0.5" stroke-miterlimit="10" stroke-linecap="round" stroke-linejoin="round"/>
<path d="M304.777 55.4125L284.597 64.5518L267.125 49.7314" stroke="white" stroke-width="0.5" stroke-miterlimit="10" stroke-linecap="round" stroke-linejoin="round"/>
<path d="M187.637 24.5375C187.637 24.5375 178.532 17.8683 184.438 10.2111C189.852 2.55397 204.125 2.55397 207.078 9.96416C210.277 16.8803 205.847 22.0674 212.246 23.0554C218.398 24.2904 234.886 29.7245 231.686 37.6287C228.241 45.5328 218.644 46.0269 222.581 56.6482C226.519 67.2693 246.944 69.2454 236.608 83.8187C226.272 98.3921 201.664 118.399 189.114 93.4517C177.055 68.5044 203.879 73.4445 189.36 57.3892C174.841 41.3338 187.145 40.8397 190.836 34.6646C194.774 27.7485 187.637 24.5375 187.637 24.5375Z" fill="#ED3B4E"/>
<path d="M204.371 33.9233C204.371 33.9233 205.848 63.07 215.938 86.7825C226.027 110.742 232.179 114.2 232.179 114.2" stroke="white" stroke-width="0.5" stroke-miterlimit="10" stroke-linecap="round" stroke-linejoin="round"/>
<path d="M443.729 123.021L430.223 126.822L434.01 140.379L447.516 136.578L443.729 123.021Z" fill="#ED3B4E"/>
<path d="M13.5066 246.885L0 250.686L3.78728 264.243L17.2939 260.441L13.5066 246.885Z" fill="#24499F"/>
<path d="M321.155 464.292L159.374 464.572C150.86 464.572 143.993 457.551 143.993 448.564L143.719 98.6065C143.719 89.9 150.585 82.5973 159.1 82.5973L320.879 82.3164C329.394 82.3164 336.261 89.3381 336.261 98.326L336.536 448.282C336.536 456.989 329.669 464.292 321.155 464.292Z" fill="#0064B7"/>
<path d="M311.706 455.45L168.471 455.741C159.315 455.741 151.932 448.457 151.932 439.135L151.637 118.681C151.637 109.65 159.02 102.075 168.176 102.075L311.115 101.784C320.271 101.784 327.653 109.067 327.653 118.389L327.948 438.844C328.244 447.875 320.86 455.158 311.706 455.45Z" fill="white"/>
<g filter="url(#filter0_ddddd_2302_2285)">
<path d="M272.658 242.727L241.609 260.703C240.546 261.322 239.242 261.322 238.179 260.703L207.13 242.727C206.066 242.107 205.414 240.971 205.414 239.731V203.745C205.414 202.505 206.066 201.369 207.13 200.749L238.179 182.773C239.242 182.154 240.546 182.154 241.609 182.773L272.658 200.749C273.722 201.369 274.374 202.505 274.374 203.745V239.731C274.374 240.971 273.722 242.107 272.658 242.727Z" fill="white"/>
<path d="M239.895 221.753L264.082 207.531L239.895 194.515V221.753Z" fill="#0A489B"/>
<path d="M239.895 248.339L215.707 234.772V207.532L239.895 194.515V248.339Z" fill="#0F68DE"/>
<path d="M239.895 221.754L215.707 207.532L239.895 194.515V221.754Z" fill="#0F68DE"/>
<path d="M239.895 248.992L215.707 234.77L239.895 221.753V248.992Z" fill="#3F86E4"/>
</g>
<path d="M305.476 286.727H174.117C170.952 286.727 168.387 289.302 168.387 292.478C168.387 295.655 170.952 298.23 174.117 298.23H305.476C308.641 298.23 311.206 295.655 311.206 292.478C311.206 289.302 308.641 286.727 305.476 286.727Z" fill="#D0ECFB"/>
<path d="M176.571 289.148H176.571C175.459 289.148 174.559 290.052 174.559 291.168V293.788C174.559 294.904 175.459 295.808 176.571 295.808H176.571C177.682 295.808 178.583 294.904 178.583 293.788V291.168C178.583 290.052 177.682 289.148 176.571 289.148Z" fill="#0064B7"/>
<path d="M192.668 289.148H192.668C191.557 289.148 190.656 290.052 190.656 291.168V293.788C190.656 294.904 191.557 295.808 192.668 295.808H192.668C193.78 295.808 194.681 294.904 194.681 293.788V291.168C194.681 290.052 193.78 289.148 192.668 289.148Z" fill="#0064B7"/>
<path d="M183.95 291.168C183.95 290.052 183.049 289.148 181.938 289.148C180.827 289.148 179.926 290.052 179.926 291.168V293.788C179.926 294.904 180.827 295.808 181.938 295.808C183.049 295.808 183.95 294.904 183.95 293.788V291.168Z" fill="#0064B7"/>
<path d="M198.036 289.148H198.036C196.924 289.148 196.023 290.052 196.023 291.168V293.788C196.023 294.904 196.924 295.808 198.036 295.808H198.036C199.147 295.808 200.048 294.904 200.048 293.788V291.168C200.048 290.052 199.147 289.148 198.036 289.148Z" fill="#0064B7"/>
<path d="M189.317 291.168C189.317 290.052 188.417 289.148 187.305 289.148C186.194 289.148 185.293 290.052 185.293 291.168V293.788C185.293 294.904 186.194 295.808 187.305 295.808C188.417 295.808 189.317 294.904 189.317 293.788V291.168Z" fill="#0064B7"/>
<path d="M203.403 289.148H203.403C202.292 289.148 201.391 290.052 201.391 291.168V293.788C201.391 294.904 202.292 295.808 203.403 295.808H203.403C204.514 295.808 205.415 294.904 205.415 293.788V291.168C205.415 290.052 204.514 289.148 203.403 289.148Z" fill="#0064B7"/>
<path d="M209.188 289.148H209.188C208.077 289.148 207.176 290.052 207.176 291.168V293.788C207.176 294.904 208.077 295.808 209.188 295.808H209.188C210.299 295.808 211.2 294.904 211.2 293.788V291.168C211.2 290.052 210.299 289.148 209.188 289.148Z" fill="#0064B7"/>
<path d="M225.29 289.148H225.29C224.178 289.148 223.277 290.052 223.277 291.168V293.788C223.277 294.904 224.178 295.808 225.29 295.808H225.29C226.401 295.808 227.302 294.904 227.302 293.788V291.168C227.302 290.052 226.401 289.148 225.29 289.148Z" fill="#0064B7"/>
<path d="M216.571 291.168C216.571 290.052 215.67 289.148 214.559 289.148C213.448 289.148 212.547 290.052 212.547 291.168V293.788C212.547 294.904 213.448 295.808 214.559 295.808C215.67 295.808 216.571 294.904 216.571 293.788V291.168Z" fill="#0064B7"/>
<path d="M232.665 291.168C232.665 290.052 231.764 289.148 230.653 289.148C229.542 289.148 228.641 290.052 228.641 291.168V293.788C228.641 294.904 229.542 295.808 230.653 295.808C231.764 295.808 232.665 294.904 232.665 293.788V291.168Z" fill="#0064B7"/>
<path d="M221.935 291.168C221.935 290.052 221.034 289.148 219.922 289.148C218.811 289.148 217.91 290.052 217.91 291.168V293.788C217.91 294.904 218.811 295.808 219.922 295.808C221.034 295.808 221.935 294.904 221.935 293.788V291.168Z" fill="#0064B7"/>
<path d="M238.032 291.168C238.032 290.052 237.131 289.148 236.02 289.148C234.909 289.148 234.008 290.052 234.008 291.168V293.788C234.008 294.904 234.909 295.808 236.02 295.808C237.131 295.808 238.032 294.904 238.032 293.788V291.168Z" fill="#0064B7"/>
<path opacity="0.52" d="M202.875 330.086V321.29H204.257V330.086H202.875ZM212.964 330.086H211.606V326.456C211.606 325.854 211.508 325.411 211.31 325.131C211.122 324.85 210.838 324.709 210.459 324.709C210.196 324.709 209.932 324.776 209.669 324.908C209.414 325.04 209.184 325.222 208.977 325.453C208.772 325.676 208.624 325.936 208.533 326.233V330.086H207.175V323.607H208.41V324.908C208.575 324.618 208.789 324.371 209.052 324.164C209.323 323.949 209.628 323.785 209.965 323.669C210.303 323.553 210.66 323.495 211.039 323.495C211.426 323.495 211.742 323.565 211.989 323.706C212.245 323.847 212.442 324.04 212.581 324.288C212.73 324.528 212.828 324.809 212.878 325.131C212.936 325.445 212.964 325.779 212.964 326.134V330.086ZM217.947 330.21C217.404 330.21 216.89 330.123 216.404 329.95C215.918 329.768 215.503 329.499 215.157 329.145L215.664 328.228C216.034 328.558 216.404 328.798 216.774 328.946C217.153 329.095 217.527 329.169 217.898 329.169C218.276 329.169 218.584 329.099 218.823 328.959C219.062 328.81 219.181 328.595 219.181 328.315C219.181 328.108 219.119 327.955 218.996 327.856C218.873 327.757 218.692 327.67 218.453 327.596C218.223 327.522 217.942 327.439 217.614 327.348C217.153 327.208 216.766 327.063 216.453 326.915C216.14 326.758 215.906 326.568 215.75 326.345C215.594 326.122 215.515 325.837 215.515 325.49C215.515 325.069 215.622 324.709 215.836 324.412C216.051 324.115 216.347 323.887 216.725 323.731C217.112 323.574 217.556 323.495 218.058 323.495C218.527 323.495 218.959 323.57 219.354 323.718C219.757 323.859 220.111 324.082 220.415 324.387L219.835 325.292C219.547 325.027 219.251 324.833 218.947 324.709C218.65 324.586 218.33 324.524 217.984 324.524C217.786 324.524 217.597 324.548 217.416 324.598C217.235 324.64 217.083 324.722 216.959 324.846C216.844 324.962 216.787 325.126 216.787 325.341C216.787 325.515 216.836 325.655 216.935 325.763C217.034 325.87 217.182 325.961 217.379 326.035C217.577 326.109 217.819 326.192 218.107 326.283C218.609 326.431 219.037 326.58 219.391 326.729C219.744 326.87 220.016 327.055 220.206 327.286C220.403 327.509 220.502 327.819 220.502 328.215C220.502 328.843 220.267 329.335 219.798 329.69C219.337 330.037 218.72 330.21 217.947 330.21ZM226.404 329.752C226.289 329.809 226.145 329.871 225.972 329.937C225.799 330.004 225.602 330.061 225.38 330.111C225.166 330.16 224.944 330.185 224.713 330.185C224.434 330.185 224.175 330.136 223.936 330.037C223.698 329.937 223.504 329.781 223.356 329.566C223.216 329.343 223.146 329.058 223.146 328.711V324.66H222.294V323.607H223.146V321.476H224.503V323.607H225.91V324.66H224.503V328.277C224.52 328.5 224.59 328.666 224.713 328.773C224.845 328.88 225.006 328.934 225.195 328.934C225.384 328.934 225.565 328.901 225.738 328.835C225.91 328.768 226.038 328.715 226.12 328.674L226.404 329.752ZM227.987 328.191C227.987 327.777 228.102 327.418 228.332 327.113C228.571 326.799 228.896 326.56 229.307 326.394C229.719 326.221 230.196 326.134 230.739 326.134C231.027 326.134 231.319 326.155 231.615 326.196C231.919 326.238 232.187 326.303 232.418 326.394V325.986C232.418 325.532 232.282 325.176 232.01 324.92C231.739 324.664 231.348 324.536 230.838 324.536C230.475 324.536 230.134 324.602 229.813 324.734C229.492 324.858 229.151 325.036 228.789 325.267L228.332 324.35C228.76 324.061 229.188 323.847 229.616 323.706C230.052 323.565 230.509 323.495 230.986 323.495C231.85 323.495 232.529 323.726 233.022 324.189C233.524 324.643 233.775 325.292 233.775 326.134V328.55C233.775 328.707 233.8 328.818 233.849 328.884C233.907 328.951 234.002 328.988 234.133 328.996V330.086C234.01 330.111 233.899 330.128 233.8 330.136C233.701 330.144 233.619 330.148 233.553 330.148C233.265 330.148 233.047 330.078 232.899 329.937C232.751 329.797 232.664 329.632 232.64 329.442L232.603 329.07C232.323 329.434 231.965 329.714 231.529 329.913C231.092 330.111 230.653 330.21 230.208 330.21C229.781 330.21 229.398 330.123 229.06 329.95C228.723 329.768 228.46 329.524 228.27 329.219C228.081 328.914 227.987 328.57 227.987 328.191ZM232.097 328.587C232.195 328.48 232.274 328.372 232.331 328.265C232.388 328.158 232.418 328.062 232.418 327.98V327.237C232.187 327.146 231.944 327.08 231.689 327.039C231.435 326.989 231.183 326.964 230.936 326.964C230.443 326.964 230.04 327.063 229.727 327.262C229.423 327.46 229.27 327.732 229.27 328.079C229.27 328.269 229.32 328.451 229.418 328.624C229.525 328.798 229.673 328.938 229.863 329.045C230.06 329.153 230.303 329.207 230.591 329.207C230.887 329.207 231.171 329.149 231.442 329.033C231.714 328.917 231.932 328.768 232.097 328.587ZM236.545 321.042H237.903V328.215C237.903 328.545 237.952 328.756 238.051 328.847C238.15 328.938 238.273 328.984 238.421 328.984C238.586 328.984 238.739 328.967 238.878 328.934C239.026 328.901 239.154 328.86 239.261 328.81L239.458 329.888C239.261 329.97 239.026 330.041 238.754 330.098C238.483 330.156 238.241 330.185 238.026 330.185C237.566 330.185 237.204 330.057 236.94 329.801C236.677 329.537 236.545 329.174 236.545 328.711V321.042ZM241.368 321.042H242.726V328.215C242.726 328.545 242.775 328.756 242.874 328.847C242.973 328.938 243.096 328.984 243.244 328.984C243.409 328.984 243.561 328.967 243.701 328.934C243.849 328.901 243.977 328.86 244.084 328.81L244.281 329.888C244.084 329.97 243.849 330.041 243.578 330.098C243.306 330.156 243.064 330.185 242.85 330.185C242.388 330.185 242.027 330.057 241.763 329.801C241.5 329.537 241.368 329.174 241.368 328.711V321.042ZM246.179 330.086V323.607H247.537V330.086H246.179ZM246.179 322.541V321.042H247.537V322.541H246.179ZM256.068 330.086H254.711V326.456C254.711 325.854 254.612 325.411 254.414 325.131C254.225 324.85 253.941 324.709 253.563 324.709C253.299 324.709 253.036 324.776 252.773 324.908C252.517 325.04 252.287 325.222 252.082 325.453C251.875 325.676 251.727 325.936 251.637 326.233V330.086H250.28V323.607H251.514V324.908C251.678 324.618 251.892 324.371 252.156 324.164C252.427 323.949 252.731 323.785 253.069 323.669C253.406 323.553 253.764 323.495 254.143 323.495C254.529 323.495 254.846 323.565 255.093 323.706C255.348 323.847 255.545 324.04 255.686 324.288C255.834 324.528 255.933 324.809 255.982 325.131C256.039 325.445 256.068 325.779 256.068 326.134V330.086ZM261.309 330.148C260.874 330.148 260.475 330.061 260.112 329.888C259.751 329.706 259.438 329.462 259.174 329.157C258.919 328.852 258.718 328.5 258.569 328.104C258.43 327.707 258.36 327.291 258.36 326.853C258.36 326.39 258.434 325.956 258.582 325.552C258.73 325.148 258.936 324.792 259.199 324.487C259.47 324.172 259.788 323.929 260.149 323.756C260.512 323.582 260.914 323.495 261.359 323.495C261.877 323.495 262.33 323.619 262.716 323.867C263.111 324.115 263.437 324.437 263.692 324.833V323.607H264.889V329.9C264.889 330.528 264.737 331.06 264.432 331.498C264.136 331.936 263.729 332.271 263.21 332.502C262.692 332.733 262.108 332.849 261.458 332.849C260.742 332.849 260.149 332.725 259.68 332.477C259.211 332.229 258.813 331.89 258.483 331.461L259.248 330.743C259.495 331.09 259.812 331.354 260.199 331.536C260.594 331.717 261.013 331.808 261.458 331.808C261.828 331.808 262.17 331.738 262.482 331.597C262.803 331.466 263.059 331.255 263.247 330.966C263.437 330.685 263.531 330.329 263.531 329.9V328.909C263.301 329.298 262.984 329.603 262.581 329.826C262.178 330.041 261.754 330.148 261.309 330.148ZM261.754 329.045C261.96 329.045 262.158 329.013 262.346 328.946C262.536 328.872 262.708 328.777 262.865 328.661C263.029 328.538 263.17 328.401 263.284 328.253C263.4 328.096 263.482 327.93 263.531 327.757V326.06C263.424 325.779 263.272 325.535 263.074 325.329C262.877 325.114 262.655 324.949 262.408 324.833C262.161 324.717 261.911 324.66 261.655 324.66C261.359 324.66 261.092 324.726 260.853 324.858C260.623 324.982 260.425 325.151 260.26 325.366C260.096 325.572 259.969 325.808 259.878 326.072C259.788 326.337 259.742 326.609 259.742 326.89C259.742 327.187 259.791 327.464 259.89 327.72C259.998 327.976 260.141 328.207 260.322 328.414C260.504 328.612 260.717 328.768 260.964 328.884C261.211 328.991 261.474 329.045 261.754 329.045ZM267.566 330.086V328.5H268.689V330.086H267.566ZM271.304 330.086V328.5H272.427V330.086H271.304ZM275.043 330.086V328.5H276.166V330.086H275.043Z" fill="black"/>
<path d="M323.494 376.596C323.494 376.596 329.444 374.321 328.878 367.496C328.595 360.671 324.911 356.121 332.561 357.827C339.644 359.818 342.193 360.387 347.292 359.534C352.676 358.396 356.359 355.837 354.375 363.23C352.393 370.339 349.843 375.174 354.942 376.596C360.325 377.165 365.991 374.036 366.558 383.989C367.125 394.795 359.191 406.455 345.31 406.739C331.994 407.023 325.761 401.62 325.761 401.62C325.761 401.62 321.795 396.501 327.745 395.364C333.694 393.942 339.36 391.383 335.96 389.108C333.411 386.833 323.211 386.549 323.211 386.549C323.211 386.549 311.879 383.136 323.494 376.596Z" fill="#6B9CD3"/>
<path d="M385.824 378.587C385.257 371.762 385.824 367.213 397.723 365.222C410.472 363.516 417.271 371.194 418.122 378.587C418.688 385.981 407.638 389.394 407.638 389.394C407.638 389.394 400.273 391.384 403.672 398.209C407.638 405.033 409.622 411.289 399.99 412.142C390.356 413.28 381.574 410.721 375.908 407.024C370.525 403.327 364.859 394.228 371.375 389.394C371.375 389.394 373.075 387.972 378.741 387.688C386.674 387.688 385.824 378.587 385.824 378.587Z" fill="#1C4599"/>
<path d="M342.195 376.881C342.195 376.881 352.678 400.768 353.811 416.408" stroke="#88D6F8" stroke-width="0.5" stroke-miterlimit="10" stroke-linecap="round" stroke-linejoin="round"/>
<path d="M399.423 380.862C399.423 380.862 381.008 407.592 376.758 416.977" stroke="#599FD2" stroke-width="0.5" stroke-miterlimit="10" stroke-linecap="round" stroke-linejoin="round"/>
<path d="M347.858 414.418H389.504C389.504 414.418 394.037 414.702 393.754 421.242C393.47 427.214 386.388 425.792 382.421 425.792C378.455 425.792 346.724 425.792 346.724 425.792C346.724 425.792 341.625 426.361 341.625 420.674C341.625 414.702 343.608 414.418 347.858 414.418Z" fill="#0256A4"/>
<path d="M346.723 425.792L353.239 462.475H381.287L385.82 435.176L346.723 425.792Z" fill="#0256A4"/>
<path d="M346.723 425.792L385.82 435.176L387.52 425.792H346.723Z" fill="#346BB4"/>
<path d="M364.855 416.409C364.855 416.409 366.839 375.46 378.738 349.298" stroke="#FABD41" stroke-width="0.5" stroke-miterlimit="10"/>
<path d="M388.939 334.511C388.939 334.511 389.506 347.307 377.607 352.141C377.607 351.857 375.34 341.051 388.939 334.511Z" fill="#FABD41"/>
<path d="M370.523 374.037C370.523 374.037 375.057 362.946 388.938 364.937C388.938 364.368 387.806 375.459 370.523 374.037Z" fill="#FABD41"/>
<path d="M366.273 401.337C366.273 401.337 368.54 389.962 382.706 388.541C382.139 388.541 383.272 399.346 366.273 401.337Z" fill="#FABD41"/>
<path d="M365.993 401.336C365.993 401.336 367.693 389.677 354.944 383.705C354.377 384.274 350.128 393.942 365.993 401.336Z" fill="#FABD41"/>
<path d="M370.526 374.038C370.526 374.038 373.075 362.662 361.743 355.269C361.743 355.269 356.077 364.368 370.526 374.038Z" fill="#FABD41"/>
<path d="M258.754 95.6585H225.244C224.145 95.6585 223.047 94.8161 223.047 93.4118C223.047 92.288 223.871 91.165 225.244 91.165H258.754C259.852 91.165 260.951 92.0075 260.951 93.4118C260.951 94.8161 259.852 95.6585 258.754 95.6585Z" fill="white"/>
<path d="M100.904 274.314H109.024L118.13 273.82C118.13 273.82 119.36 279.501 113.946 280.242C108.778 280.737 100.411 281.971 99.4273 281.724C97.7047 280.984 100.904 274.314 100.904 274.314Z" fill="#FBBE9B"/>
<path d="M94.7529 234.052C94.7529 234.052 103.612 242.697 104.104 247.39C105.581 252.083 102.628 258.999 101.889 261.222C101.644 263.198 101.644 289.381 101.644 289.381H67.4375V233.805L94.7529 234.052Z" fill="#0064E1"/>
<path d="M114.689 208.116C114.689 208.116 114.197 214.785 112.474 218.984V222.195C112.474 222.442 112.228 222.689 111.982 222.689L110.013 222.442V225.16C110.013 225.407 109.767 225.654 109.521 225.654H107.799C107.553 225.654 107.307 225.9 107.307 226.147L107.553 227.629C107.553 227.876 107.553 228.123 107.06 228.123C105.584 228.371 103.369 228.618 100.17 226.395C96.971 224.171 95.0024 225.16 95.0024 227.629C95.0024 229.605 96.725 235.781 93.7716 237.51C91.5571 238.992 84.4204 238.004 82.9439 236.275C81.2212 234.546 82.9439 230.347 85.1586 228.371C86.8812 226.642 89.3425 207.869 93.2797 205.893C96.2322 205.399 114.689 208.116 114.689 208.116Z" fill="#FBBC98"/>
<path d="M75.3082 261.223L75.0621 272.833C75.0621 274.067 75.5543 274.562 76.7847 274.562C78.0151 274.562 78.7534 274.562 80.9683 273.326C86.136 271.351 99.1783 264.187 100.901 262.952C100.901 262.952 101.148 262.952 101.148 262.705C101.394 262.211 103.116 259.742 107.054 259.988C111.729 260.235 112.96 261.47 112.222 262.705C111.975 264.187 110.991 264.187 110.991 264.187L111.483 265.423C111.483 265.423 110.991 266.904 108.53 266.904C106.562 266.904 103.854 265.669 103.362 266.657C102.87 267.152 82.4448 280.737 77.2769 284.195C76.7847 284.442 75.8004 284.688 75.0621 285.43C72.1091 285.924 64.7265 287.159 63.9882 282.219C62.5117 275.796 62.5117 261.964 62.5117 261.964L75.3082 261.223Z" fill="#FBBE9B"/>
<path d="M75.3082 240.228C75.8004 239.981 76.7847 240.228 76.7847 240.721V261.717C76.7847 262.211 76.5386 262.952 75.5543 262.952C74.5699 262.952 73.5856 262.952 71.3709 262.952C67.9256 262.952 64.7265 262.952 63.0038 262.952C62.5117 262.952 62.5117 262.705 62.5117 262.458L62.7578 247.885C62.7578 247.638 62.7578 247.391 63.0038 247.391L75.3082 240.228Z" fill="#0054A3"/>
<path d="M50.7023 249.366C48.9797 242.697 60.5458 233.558 60.5458 233.558C60.5458 233.558 66.2058 231.582 67.1901 224.913C68.4206 218.243 74.5727 216.267 77.0336 214.045C79.9867 211.822 81.7093 206.141 81.7093 206.141L81.9554 204.659C81.9554 204.659 86.631 184.157 102.627 189.344C102.627 189.344 110.01 192.061 112.962 197.495C112.962 197.495 123.544 199.224 121.329 207.375C119.361 215.527 114.439 210.586 114.439 210.586C114.439 210.586 112.47 206.388 110.256 209.104C108.041 212.069 102.627 214.045 101.15 211.08C99.4277 208.117 96.2283 206.388 95.2445 210.586V212.562C95.2445 212.562 87.1231 222.443 86.3849 225.901C85.1544 229.359 83.4319 234.546 79.4945 236.522C75.8032 238.746 71.3736 247.637 69.651 252.577C67.4362 258.258 52.917 259.247 50.7023 249.366Z" fill="#1F1952"/>
<path d="M131.418 249.86L152.089 250.601L126.004 278.76L105.086 277.772L131.418 249.86Z" fill="#1C164F"/>
<path d="M132.652 270.856C132.652 270.856 134.621 274.561 132.898 275.796C130.929 277.03 129.207 277.278 128.222 276.043C127.238 274.808 126.745 271.844 127.976 272.338C129.207 272.338 129.453 272.585 129.453 272.585V271.349C129.453 271.103 129.453 270.856 129.699 270.856C130.683 270.609 132.159 269.62 132.652 270.856Z" fill="#FBBE9B"/>
<path d="M95.7375 289.382L101.644 288.887V451.664L89.0937 451.911L81.957 345.699L95.7375 289.382Z" fill="#DE051F"/>
<path d="M67.4367 289.628C67.4367 289.628 67.1906 295.309 66.9445 297.533C66.6984 299.014 58.8237 311.611 64.9758 327.173C64.9758 327.42 64.9758 327.667 65.2219 328.408C65.2219 331.866 66.4523 353.108 62.0227 363.977L38.8906 438.819L47.7497 445.242C47.7497 445.242 78.0184 380.279 79.0028 377.068C79.9872 374.104 99.6742 310.377 96.7208 292.839L96.2289 289.628H67.4367Z" fill="#EE384E"/>
<path d="M101.644 451.664C101.644 451.664 109.765 455.863 113.21 456.851C116.163 457.345 116.409 459.568 116.655 460.309C116.655 460.556 116.655 460.803 116.409 460.803H89.0938V451.664H101.644Z" fill="#221D56"/>
<path d="M47.507 444.254C47.507 444.254 49.7218 450.923 54.8897 454.875C59.8114 458.58 54.8897 461.544 54.8897 461.544L34.2184 448.947C33.9722 448.452 32.7418 446.23 34.2184 444.254C35.6949 442.031 38.894 438.326 38.894 438.326L47.507 444.254Z" fill="#221D56"/>
<defs>
<filter id="filter0_ddddd_2302_2285" x="189.414" y="179.309" width="100.961" height="136.859" filterUnits="userSpaceOnUse" color-interpolation-filters="sRGB">
<feFlood flood-opacity="0" result="BackgroundImageFix"/>
<feColorMatrix in="SourceAlpha" type="matrix" values="0 0 0 0 0 0 0 0 0 0 0 0 0 0 0 0 0 0 127 0" result="hardAlpha"/>
<feOffset/>
<feColorMatrix type="matrix" values="0 0 0 0 0 0 0 0 0 0.109804 0 0 0 0 0.2 0 0 0 0.1 0"/>
<feBlend mode="normal" in2="BackgroundImageFix" result="effect1_dropShadow_2302_2285"/>
<feColorMatrix in="SourceAlpha" type="matrix" values="0 0 0 0 0 0 0 0 0 0 0 0 0 0 0 0 0 0 127 0" result="hardAlpha"/>
<feOffset dy="2"/>
<feGaussianBlur stdDeviation="2.5"/>
<feColorMatrix type="matrix" values="0 0 0 0 0 0 0 0 0 0.109804 0 0 0 0 0.2 0 0 0 0.1 0"/>
<feBlend mode="normal" in2="effect1_dropShadow_2302_2285" result="effect2_dropShadow_2302_2285"/>
<feColorMatrix in="SourceAlpha" type="matrix" values="0 0 0 0 0 0 0 0 0 0 0 0 0 0 0 0 0 0 127 0" result="hardAlpha"/>
<feOffset dy="10"/>
<feGaussianBlur stdDeviation="5"/>
<feColorMatrix type="matrix" values="0 0 0 0 0 0 0 0 0 0.109804 0 0 0 0 0.2 0 0 0 0.09 0"/>
<feBlend mode="normal" in2="effect2_dropShadow_2302_2285" result="effect3_dropShadow_2302_2285"/>
<feColorMatrix in="SourceAlpha" type="matrix" values="0 0 0 0 0 0 0 0 0 0 0 0 0 0 0 0 0 0 127 0" result="hardAlpha"/>
<feOffset dy="22"/>
<feGaussianBlur stdDeviation="6.5"/>
<feColorMatrix type="matrix" values="0 0 0 0 0 0 0 0 0 0.109804 0 0 0 0 0.2 0 0 0 0.05 0"/>
<feBlend mode="normal" in2="effect3_dropShadow_2302_2285" result="effect4_dropShadow_2302_2285"/>
<feColorMatrix in="SourceAlpha" type="matrix" values="0 0 0 0 0 0 0 0 0 0 0 0 0 0 0 0 0 0 127 0" result="hardAlpha"/>
<feOffset dy="39"/>
<feGaussianBlur stdDeviation="8"/>
<feColorMatrix type="matrix" values="0 0 0 0 0 0 0 0 0 0.109804 0 0 0 0 0.2 0 0 0 0.01 0"/>
<feBlend mode="normal" in2="effect4_dropShadow_2302_2285" result="effect5_dropShadow_2302_2285"/>
<feBlend mode="normal" in="SourceGraphic" in2="effect5_dropShadow_2302_2285" result="shape"/>
</filter>
</defs>
</svg>
