<svg width="17" height="26" viewBox="0 0 17 26" fill="none" xmlns="http://www.w3.org/2000/svg">
<path fill-rule="evenodd" clip-rule="evenodd" d="M8.44434 0C13.108 0 16.8887 3.78066 16.8887 8.44434C16.8887 9.98262 16.4785 11.424 15.7587 12.667C15.2788 13.4957 12.8407 17.7177 8.44434 25.333C4.04799 17.7177 1.60987 13.4957 1.12999 12.667C0.410154 11.424 0 9.98262 0 8.44434C0 3.78066 3.78066 0 8.44434 0ZM8.44434 4.82534C6.44562 4.82534 4.82534 6.44562 4.82534 8.44434C4.82534 10.4431 6.44562 12.0633 8.44434 12.0633C10.4431 12.0633 12.0633 10.4431 12.0633 8.44434C12.0633 6.44562 10.4431 4.82534 8.44434 4.82534Z" fill="black"/>
</svg>
