<svg width="230" height="230" viewBox="0 0 230 230" fill="none" xmlns="http://www.w3.org/2000/svg">
<path d="M2.60684 152.253C3.02679 156.127 8.21318 155.277 11.6463 158.164C15.0794 161.051 11.6778 164.999 19.5519 165.849C24.4023 166.374 24.0558 164.337 28.8853 169.324C33.1268 173.713 33.9247 166.479 38.6701 167.623C44.8014 169.104 45.2633 157.03 39.6255 154.689C33.9772 152.337 31.216 155.623 30.1766 150.563C29.1372 145.492 25.3367 143.592 20.5072 144.726C14.5229 146.132 15.3733 151.361 12.2972 148.484C9.21057 145.597 2.05041 147.13 2.60684 152.253Z" fill="#023EA1"/>
<path d="M47.0279 168.054C29.7994 154.689 9.54724 152.652 9.33727 152.631C8.57086 152.558 8.65485 151.634 9.42126 151.707C9.63123 151.728 30.2928 153.849 47.7208 167.371L47.0279 168.054Z" fill="white"/>
<path d="M22.3654 138.962C21.368 141.429 24.7696 142.605 25.9035 145.461C27.0374 148.316 24.0137 150.752 28.4967 153.818C31.2474 155.708 32.4127 152.117 35.0374 155.372C37.6621 158.626 36.3813 159.561 38.712 160.422C42.7645 161.923 47.0165 155.624 44.3813 152.38C41.7356 149.135 38.1346 150.29 39.1634 146.899C40.1818 143.508 40.5283 142.07 37.2422 141.177C33.1791 140.085 30.376 142.563 29.4521 139.823C28.5072 137.093 23.6883 135.697 22.3654 138.962Z" fill="#EE384E"/>
<path d="M47.0264 168.054L47.7299 167.477C41.6091 153.661 26.7743 140.936 26.6483 140.852C26.1444 140.516 25.7874 141.041 26.2914 141.387C26.4174 141.461 40.9896 154.416 47.0264 168.054Z" fill="white"/>
<path d="M25.6307 98.0586H24.9482V98.573H25.6307V98.0586Z" fill="#97C6FF"/>
<path d="M205.034 95.4653H204.352V95.9798H205.034V95.4653Z" fill="#97C6FF"/>
<path d="M99.4571 63.864C100.161 61.0714 100.276 58.2577 99.8771 55.57L100.727 55.444L102.407 55.192H102.428C101.966 52.1159 100.916 49.1868 99.3521 46.5621L97.1369 47.8849C95.7091 45.5122 93.8403 43.4019 91.5621 41.7326L93.1054 39.6539C90.7012 37.8586 87.9085 36.5042 84.8218 35.7273L84.1814 38.2365C81.3782 37.5226 78.5751 37.4176 75.8874 37.8166L75.4989 35.2549C72.4228 35.7168 69.4936 36.7667 66.8689 38.331L68.1918 40.5463C65.8191 41.9741 63.7088 43.8429 62.0395 46.1211L59.9608 44.5778C58.1655 46.982 56.8111 49.7747 56.0342 52.8613L58.5434 53.5017C57.8295 56.3049 57.7245 59.1081 58.1235 61.7958L56.3177 62.0687L55.5828 62.1842H55.5723C56.0342 65.2604 57.0841 68.1895 58.6484 70.8142L60.8636 69.4914C62.2915 71.8641 64.1708 73.9743 66.449 75.6437L64.9057 77.7224C67.3099 79.5177 70.0921 80.872 73.1787 81.649L73.8191 79.1397C76.6118 79.8537 79.436 79.9691 82.1132 79.5597L82.4071 81.544L82.4911 82.1109C85.5673 81.649 88.4859 80.5886 91.1106 79.0243L89.7878 76.809C92.1605 75.3812 94.2707 73.5019 95.9505 71.2342L98.0293 72.7775C99.8141 70.3733 101.168 67.5911 101.945 64.5045L99.4571 63.864ZM76.1919 69.7853C70.0501 68.2315 66.344 62.0057 67.8978 55.864C69.4516 49.7327 75.6774 46.0266 81.8192 47.5804C87.9505 49.1343 91.6565 55.36 90.1027 61.4913C88.5489 67.6226 82.3231 71.3392 76.1919 69.7853Z" stroke="#023EA1" stroke-width="0.885584" stroke-miterlimit="10"/>
<path d="M48.5386 67.1295C47.5937 65.9432 46.4493 64.9983 45.2 64.3159L45.4204 63.9169L45.8509 63.1295V63.119C44.4125 62.3316 42.8587 61.8381 41.2524 61.6597L41.0949 63.014C39.6461 62.8565 38.1658 62.972 36.7379 63.392L36.36 62.0796C34.8482 62.5101 33.3783 63.2555 32.0765 64.2949L32.9269 65.3657C31.7405 66.3106 30.7956 67.455 30.1132 68.7043L28.9164 68.0534C28.129 69.4918 27.6355 71.0561 27.457 72.6519L28.8114 72.8094C28.6539 74.2582 28.7694 75.7385 29.1893 77.1664L27.877 77.5338C28.3074 79.0456 29.0528 80.5155 30.0922 81.8173L31.1631 80.9669C32.108 82.1533 33.2524 83.0982 34.5017 83.7806L34.0398 84.6205L33.8508 84.9669C35.2891 85.7543 36.8534 86.2478 38.4492 86.4263L38.6067 85.0719C40.0556 85.2294 41.5359 85.1139 42.9637 84.694L43.3417 86.0063C44.8535 85.5759 46.3128 84.8305 47.6252 83.7911L46.7748 82.7202C47.9611 81.7753 48.906 80.6309 49.5989 79.3711L50.5228 79.8855L50.7853 80.0325C51.5727 78.5942 52.0556 77.0404 52.2446 75.4341L50.8903 75.2766C51.0478 73.8277 50.9323 72.3474 50.5123 70.9196L51.8247 70.5416C51.3837 69.0298 50.6488 67.5705 49.6094 66.2581L48.5386 67.1295ZM43.6041 78.7622C41.0004 80.8409 37.1999 80.4105 35.1316 77.8068C33.0529 75.2031 33.4833 71.413 36.0975 69.3343C38.7012 67.2555 42.4913 67.686 44.57 70.2897C46.6383 72.9038 46.2078 76.6939 43.6041 78.7622Z" stroke="#EE384E" stroke-width="0.885584" stroke-miterlimit="10"/>
<path d="M216.278 150.647C215.186 149.282 213.874 148.19 212.425 147.393L212.677 146.931L213.17 146.028L213.181 146.017C211.522 145.104 209.727 144.537 207.879 144.337L207.7 145.891C206.031 145.702 204.32 145.839 202.671 146.322L202.23 144.81C200.477 145.314 198.797 146.164 197.286 147.372L198.262 148.6C196.887 149.692 195.805 151.004 195.007 152.453L193.632 151.697C192.719 153.356 192.162 155.162 191.952 156.999L193.516 157.177C193.327 158.847 193.464 160.558 193.947 162.206L192.435 162.647C192.939 164.401 193.789 166.08 194.997 167.592L196.225 166.616C197.317 167.991 198.629 169.072 200.078 169.87L199.543 170.847L199.333 171.246C200.992 172.159 202.797 172.716 204.635 172.926L204.813 171.361C206.482 171.55 208.204 171.414 209.842 170.92L210.283 172.432C212.036 171.928 213.716 171.078 215.228 169.881L214.252 168.653C215.627 167.561 216.719 166.238 217.506 164.789L218.577 165.377L218.881 165.545C219.795 163.886 220.351 162.091 220.561 160.243L219.007 160.065C219.196 158.395 219.06 156.673 218.577 155.036L220.089 154.595C219.585 152.852 218.735 151.172 217.527 149.66L216.278 150.647ZM210.587 164.075C207.574 166.469 203.207 165.975 200.803 162.962C198.409 159.96 198.902 155.582 201.915 153.188C204.918 150.794 209.296 151.288 211.69 154.29C214.084 157.303 213.59 161.681 210.587 164.075Z" stroke="#023EA1" stroke-width="0.885584" stroke-miterlimit="10"/>
<path d="M216.498 184.705H22.6278C21.9978 184.705 21.4834 184.19 21.4834 183.56C21.4834 182.93 21.9978 182.416 22.6278 182.416H216.509C217.138 182.416 217.653 182.93 217.653 183.56C217.653 184.19 217.138 184.705 216.498 184.705Z" fill="#003C99"/>
<path d="M197.947 176.568H42.3447C40.2555 176.568 38.5547 174.867 38.5547 172.778V76.2105C38.5547 74.1212 40.2555 72.4204 42.3447 72.4204H197.947C200.036 72.4204 201.737 74.1212 201.737 76.2105V172.778C201.737 174.867 200.047 176.568 197.947 176.568Z" fill="#1A1A1A"/>
<path d="M42.3444 175.865C40.6436 175.865 39.2578 174.479 39.2578 172.778V76.2107C39.2578 74.5099 40.6436 73.124 42.3444 73.124H197.947C199.648 73.124 201.033 74.5099 201.033 76.2107V172.778C201.033 174.479 199.648 175.865 197.947 175.865H42.3444Z" fill="#023EA1"/>
<path d="M196.34 76.749H44.0137V171.983H196.34V76.749Z" fill="#F9FCFF"/>
<path d="M212.897 176.568V179.109C212.897 179.235 212.887 179.372 212.876 179.487C212.687 181.125 211.291 182.406 209.601 182.406H28.5915C26.9012 182.406 25.5049 181.125 25.3159 179.487C25.2949 179.361 25.2949 179.235 25.2949 179.109V176.568H212.897Z" fill="#0064B7"/>
<path d="M212.876 179.487C212.687 181.125 211.291 182.405 209.6 182.405H28.591C26.9007 182.405 25.5044 181.125 25.3154 179.487H212.876Z" fill="#025FAB"/>
<path opacity="0.08" d="M174.964 162.651H65.3834C62.3823 162.651 59.9541 160.163 59.9541 157.089V92.0525C59.9541 88.9782 62.3823 86.4907 65.3834 86.4907H174.964C177.965 86.4907 180.393 88.9782 180.393 92.0525V157.089C180.38 160.163 177.952 162.651 174.964 162.651Z" fill="#0064B7"/>
<path d="M168.47 157.371H71.8273C69.1805 157.371 67.0391 155.23 67.0391 152.583V96.5924C67.0391 93.9457 69.1805 91.8042 71.8273 91.8042H168.47C171.116 91.8042 173.258 93.9457 173.258 96.5924V152.583C173.246 155.23 171.104 157.371 168.47 157.371Z" fill="#0064B7"/>
<path d="M136.239 140.372H120.636C119.312 140.372 118.229 139.29 118.229 137.966C118.229 136.643 119.312 135.56 120.636 135.56H136.239C137.563 135.56 138.646 136.643 138.646 137.966C138.646 139.29 137.563 140.372 136.239 140.372Z" fill="#EE384E"/>
<path d="M147.571 121.243H113.524C112.201 121.243 111.118 120.161 111.118 118.837C111.118 117.514 112.201 116.431 113.524 116.431H147.571C148.894 116.431 149.977 117.514 149.977 118.837C149.977 120.161 148.894 121.243 147.571 121.243Z" fill="white"/>
<path d="M147.571 130.278H113.524C112.201 130.278 111.118 129.195 111.118 127.872C111.118 126.549 112.201 125.466 113.524 125.466H147.571C148.894 125.466 149.977 126.549 149.977 127.872C149.977 129.195 148.894 130.278 147.571 130.278Z" fill="white"/>
<path d="M119.289 128.089C119.289 128.558 118.916 128.931 118.447 128.931C117.977 128.931 117.604 128.558 117.604 128.089C117.604 127.62 117.977 127.247 118.447 127.247C118.916 127.247 119.289 127.62 119.289 128.089Z" fill="#1A1A1A"/>
<path d="M122.187 128.089C122.187 128.558 121.814 128.931 121.345 128.931C120.876 128.931 120.503 128.558 120.503 128.089C120.503 127.62 120.876 127.247 121.345 127.247C121.802 127.247 122.187 127.62 122.187 128.089Z" fill="#1A1A1A"/>
<path d="M125.089 128.089C125.089 128.558 124.716 128.931 124.246 128.931C123.777 128.931 123.404 128.558 123.404 128.089C123.404 127.62 123.777 127.247 124.246 127.247C124.716 127.247 125.089 127.62 125.089 128.089Z" fill="#1A1A1A"/>
<path d="M127.975 128.089C127.975 128.558 127.602 128.931 127.133 128.931C126.664 128.931 126.291 128.558 126.291 128.089C126.291 127.62 126.664 127.247 127.133 127.247C127.602 127.247 127.975 127.62 127.975 128.089Z" fill="#1A1A1A"/>
<path d="M130.874 128.089C130.874 128.558 130.501 128.931 130.032 128.931C129.562 128.931 129.189 128.558 129.189 128.089C129.189 127.62 129.562 127.247 130.032 127.247C130.501 127.247 130.874 127.62 130.874 128.089Z" fill="#1A1A1A"/>
<path d="M133.773 128.089C133.773 128.558 133.4 128.931 132.931 128.931C132.462 128.931 132.089 128.558 132.089 128.089C132.089 127.62 132.462 127.247 132.931 127.247C133.4 127.247 133.773 127.62 133.773 128.089Z" fill="#1A1A1A"/>
<path d="M136.674 128.089C136.674 128.558 136.301 128.931 135.831 128.931C135.362 128.931 134.989 128.558 134.989 128.089C134.989 127.62 135.362 127.247 135.831 127.247C136.289 127.247 136.674 127.62 136.674 128.089Z" fill="#1A1A1A"/>
<path d="M139.571 128.089C139.571 128.558 139.198 128.931 138.729 128.931C138.26 128.931 137.887 128.558 137.887 128.089C137.887 127.62 138.26 127.247 138.729 127.247C139.186 127.247 139.571 127.62 139.571 128.089Z" fill="#1A1A1A"/>
<path d="M142.471 128.089C142.471 128.558 142.098 128.931 141.629 128.931C141.16 128.931 140.787 128.558 140.787 128.089C140.787 127.62 141.16 127.247 141.629 127.247C142.086 127.247 142.471 127.62 142.471 128.089Z" fill="#1A1A1A"/>
<path d="M129.624 110.969C132.395 110.969 134.641 108.723 134.641 105.952C134.641 103.182 132.395 100.936 129.624 100.936C126.854 100.936 124.607 103.182 124.607 105.952C124.607 108.723 126.854 110.969 129.624 110.969Z" fill="white"/>
<path d="M129.428 105.748C129.921 105.748 130.366 105.507 130.655 105.146C130.871 104.882 130.992 104.545 130.992 104.172C130.992 103.306 130.294 102.596 129.428 102.596C128.549 102.596 127.852 103.306 127.852 104.172C127.852 104.545 127.972 104.882 128.188 105.146C128.477 105.519 128.934 105.748 129.428 105.748Z" fill="#023EA1"/>
<path d="M132.207 108.575C132.207 109.574 126.637 109.574 126.637 108.575V107.408C126.853 105.82 131.75 105.748 132.207 107.408V108.575Z" fill="#023EA1"/>
<path d="M115.49 127.439V127.307C115.49 126.79 115.068 126.356 114.539 126.356C114.022 126.356 113.589 126.778 113.589 127.307V127.439H113.444V129.136C113.444 129.424 115.622 129.424 115.622 129.136V127.439H115.49ZM113.938 127.307C113.938 126.982 114.142 126.681 114.551 126.681C114.96 126.681 115.165 126.958 115.165 127.307V127.439H113.938V127.307ZM114.708 128.293V128.787C114.708 128.871 114.635 128.943 114.539 128.943C114.455 128.943 114.383 128.883 114.383 128.787V128.293C114.299 128.245 114.226 128.149 114.226 128.041C114.226 127.872 114.371 127.74 114.527 127.74C114.696 127.74 114.828 127.884 114.828 128.041C114.852 128.149 114.78 128.245 114.708 128.293Z" fill="#4D4D4D"/>
<path d="M114.582 118.67C114.775 118.67 114.955 118.574 115.064 118.429C115.148 118.321 115.196 118.189 115.196 118.044C115.196 117.707 114.919 117.431 114.582 117.431C114.233 117.431 113.969 117.707 113.969 118.044C113.969 118.189 114.017 118.321 114.101 118.429C114.209 118.574 114.39 118.67 114.582 118.67Z" fill="#4D4D4D"/>
<path d="M115.665 119.765C115.665 120.15 113.476 120.15 113.476 119.765L113.488 119.307C113.572 118.682 115.485 118.658 115.665 119.307V119.765Z" fill="#4D4D4D"/>
<path d="M127.142 119.548H118.3C117.915 119.548 117.59 119.235 117.59 118.838C117.59 118.453 117.903 118.128 118.3 118.128H127.142C127.527 118.128 127.852 118.441 127.852 118.838C127.84 119.235 127.527 119.548 127.142 119.548Z" fill="#1A1A1A"/>
<path d="M121.657 114.41H113.115C112.73 114.41 112.405 114.098 112.405 113.701C112.405 113.316 112.718 112.991 113.115 112.991H121.657C122.042 112.991 122.367 113.304 122.367 113.701C122.367 114.086 122.054 114.41 121.657 114.41Z" fill="white"/>
<path d="M138.8 119.548H129.958C129.573 119.548 129.248 119.235 129.248 118.838C129.248 118.453 129.561 118.128 129.958 118.128H138.8C139.185 118.128 139.51 118.441 139.51 118.838C139.51 119.235 139.185 119.548 138.8 119.548Z" fill="#1A1A1A"/>
<path d="M84.4717 118.524V130.976C84.4717 132.359 101.399 132.359 101.399 130.976V118.524H84.4717Z" fill="white"/>
<path d="M92.9429 125.321C94.0991 125.321 95.0363 124.384 95.0363 123.228C95.0363 122.072 94.0991 121.135 92.9429 121.135C91.7868 121.135 90.8496 122.072 90.8496 123.228C90.8496 124.384 91.7868 125.321 92.9429 125.321Z" fill="#3864B2"/>
<path d="M92.944 129.52C92.4748 129.52 92.0898 129.135 92.0898 128.666V123.877H93.7982V128.666C93.7982 129.135 93.4132 129.52 92.944 129.52Z" fill="#3864B2"/>
<path d="M99.9204 117.634H98.2121V116.792C98.2121 113.892 95.854 111.522 92.9426 111.522C90.0432 111.522 87.6732 113.88 87.6732 116.792V117.634H85.9648V116.792C85.9648 112.942 89.0928 109.814 92.9426 109.814C96.7924 109.814 99.9204 112.942 99.9204 116.792V117.634Z" fill="white"/>
<path d="M204.835 91.6963C199.639 97.2606 191.344 101.828 182.473 103.77C182.473 104.358 182.452 107.644 182.389 122.773C182.295 142.962 201.507 152.82 204.489 154.332C207.376 152.999 226.83 143.151 226.925 122.972C226.988 107.843 227.009 104.557 227.009 103.969C218.158 101.943 209.98 97.3026 204.835 91.6963Z" fill="white"/>
<path d="M204.782 93.8799C199.427 98.7933 192.005 102.657 183.847 104.757L183.763 122.762C183.721 131.004 186.997 138.447 193.495 144.914C197.758 149.156 202.241 151.791 204.519 152.977C204.614 152.925 204.729 152.872 204.834 152.82V93.9219C204.813 93.9114 204.803 93.8904 204.782 93.8799Z" fill="#EE384E"/>
<path d="M204.834 93.9219V152.82C207.196 151.592 211.501 149.04 215.616 145.019C222.167 138.615 225.506 131.193 225.538 122.961L225.622 104.956C217.506 102.772 210.136 98.8668 204.834 93.9219Z" fill="#DE051F"/>
<path d="M221.18 111.969C214.965 112.925 206.513 118.594 201.169 125.408C200.424 122.195 197.064 119.266 195.3 118.625L189.978 123.98C193.306 125.481 196.938 129.723 197.421 134.069L202.744 134.899C204.991 130.468 210.786 119.864 222.303 114.163C222.083 113.292 221.274 112.095 221.18 111.969Z" fill="white"/>
<path d="M66.6266 189.587C66.6266 189.587 68.8443 189.698 70.5075 189.698C72.1154 189.698 74.7211 190.031 74.7211 190.031C74.7211 190.031 75.3865 190.031 75.4419 190.862C75.4973 191.694 75.4973 192.027 75.4973 192.027C75.4973 192.027 75.5528 193.025 74.7766 193.025C74.0004 193.025 69.0106 193.579 67.9017 193.579C66.7929 193.579 65.9612 193.801 65.9612 193.025C65.9058 192.248 65.8504 189.532 66.6266 189.587Z" fill="#160856"/>
<path d="M68.4563 165.914C68.4563 165.914 69.8978 173.953 70.0087 176.115C70.1196 178.222 70.3414 179.885 68.9553 180.717C67.5692 181.548 65.2407 182.325 65.2407 182.325L62.4131 167.91V166.246L68.4563 165.914Z" fill="#FDBD97"/>
<path d="M43.7845 165.415C43.7845 165.415 43.0083 169.074 42.7865 170.903C42.5648 172.733 42.0658 176.337 42.0103 177.168C41.9549 178 41.844 179.386 43.341 180.495C44.8379 181.548 46.5012 182.158 46.5012 182.158L49.6059 165.415H43.7845Z" fill="#FDBD97"/>
<path d="M54.8176 153.827C54.8176 153.827 54.8176 155.49 54.0969 156.211C53.3761 156.931 52.4336 158.151 52.4336 158.151C52.4336 158.151 54.0969 160.812 57.4789 160.424C60.8054 160.091 61.4153 157.652 61.4153 157.652C61.4153 157.652 58.2551 157.208 57.867 154.215C57.5343 151.221 57.0353 151.221 57.0353 151.221L54.8176 153.827Z" fill="#FDAE7D"/>
<path d="M52.3799 147.174C52.3799 147.174 52.4908 150.999 54.3204 153.993C56.0945 156.987 58.2568 155.324 59.1439 153.772C59.9755 152.219 62.2486 147.174 61.8051 145.843C61.3061 144.513 54.7085 143.903 54.7085 143.903L52.3799 147.174Z" fill="#FDBD97"/>
<path d="M60.8616 149.336C60.8616 149.336 61.8041 148.615 61.8041 149.336C61.8041 150.057 61.3051 151.11 60.7507 151.276C60.1408 151.387 60.2517 151.055 60.4181 150.556C60.5289 150.057 60.8616 149.336 60.8616 149.336Z" fill="#FDBD97"/>
<path d="M52.656 150.888C52.9332 150.999 53.2104 151.055 53.2104 150.666C53.2104 149.946 52.7114 148.892 52.157 148.726C51.5471 148.615 51.658 148.948 51.8243 149.447C51.8798 149.613 51.9352 149.779 51.9906 150.001C52.1015 150.334 52.4342 150.777 52.656 150.888Z" fill="#FDBD97"/>
<path d="M52.5451 148.948L52.4342 147.728C52.4342 147.728 53.4876 147.839 54.7073 146.675C54.7073 146.675 57.0359 147.229 58.9209 147.007C60.9169 146.841 61.7485 146.287 61.7485 146.287C61.7485 146.287 61.4158 148.56 61.0832 149.225C61.0832 149.225 62.0257 148.837 62.4138 147.728C62.7465 146.675 62.691 145.51 62.691 145.51C62.691 145.51 64.0216 144.457 64.3543 143.237C64.3543 143.237 60.7505 142.406 59.6971 141.685C58.6437 140.964 58.0339 140.465 58.0339 140.465C58.0339 140.465 56.3706 139.523 54.7073 140.798C53.044 142.129 51.9352 142.849 51.9352 145.122C51.8797 145.178 50.3274 147.34 52.5451 148.948Z" fill="#160856"/>
<path d="M52.823 156.932C52.823 156.932 50.5499 156.654 49.2747 156.987C48.055 157.32 47.6669 157.098 47.9995 158.041C48.3322 158.983 49.9954 163.363 49.2193 166.08C48.4431 168.796 47.3896 182.879 47.3896 182.879C47.3896 182.879 55.9278 183.211 59.1989 183.378C62.5254 183.544 64.9649 182.934 64.9649 182.934C64.9649 182.934 65.6857 176.891 64.9649 174.23C64.2442 171.624 63.3016 167.133 63.3016 167.133C63.3016 167.133 62.6918 160.979 63.5234 159.482C64.355 157.985 64.9649 157.93 63.9115 157.542C62.8581 157.153 61.6938 156.821 60.8067 156.821C59.9751 156.821 59.5315 156.821 59.0326 157.32C58.5336 157.819 57.5356 158.817 56.1496 158.595C54.7635 158.373 53.7101 157.431 53.7101 157.431C53.7101 157.431 53.2111 156.987 52.823 156.932Z" fill="#FCBE42"/>
<path d="M48.7748 157.431C48.7748 157.431 47.9987 157.043 46.8344 158.041C45.5592 159.149 44.6721 161.478 44.2286 162.92C43.785 164.361 43.5078 165.803 43.5078 165.803C43.5078 165.803 45.1156 166.634 46.8344 166.69C48.4976 166.745 49.6065 166.856 49.6065 166.856C49.6065 166.856 50.3272 162.476 50.1609 160.536C49.9391 158.595 49.6619 157.93 48.7748 157.431Z" fill="#F79F03"/>
<path d="M62.8574 159.038C62.8574 159.038 63.5227 157.208 65.0197 158.04C66.5166 158.872 67.6255 162.087 68.0136 163.085C68.3462 164.083 68.7897 166.135 68.7897 166.135C68.7897 166.135 67.0156 166.911 65.4632 167.022C63.9663 167.133 62.9129 167.243 62.9129 167.243C62.9129 167.243 62.303 163.252 62.4139 161.699C62.5248 160.147 62.8574 159.038 62.8574 159.038Z" fill="#F79F03"/>
<path d="M50.4932 184.154H61.9698L56.0374 185.983L50.4932 184.154Z" fill="#BA0A28"/>
<path d="M40.2921 180.883C40.2921 180.883 61.2493 187.425 65.851 189.033C65.851 189.033 67.348 189.421 67.4034 190.197C67.4589 190.974 67.2925 192.082 67.1262 192.637C66.9599 193.191 66.4609 193.635 65.6293 193.468C64.7976 193.302 46.0026 189.532 38.5733 187.592L36.4665 186.926C36.4665 186.926 34.9141 186.206 35.1914 184.32C35.4686 182.435 36.8546 180.717 37.8526 180.606C38.8506 180.55 40.2921 180.883 40.2921 180.883Z" fill="#EC384E"/>
<path d="M38.4062 190.198C38.4062 190.198 41.012 189.754 42.6198 189.699C44.1722 189.643 46.279 189.477 46.6117 189.699C46.9443 189.92 47.2216 192.97 47.2216 192.97C47.2216 192.97 47.4988 193.801 45.4474 193.635C43.396 193.469 38.628 193.302 38.628 193.302C38.628 193.302 37.5746 193.247 37.5191 192.304C37.4637 191.362 37.63 190.918 37.63 190.918C37.63 190.918 37.6855 190.308 38.4062 190.198Z" fill="#160856"/>
<path d="M50.882 187.536C50.882 187.536 63.5783 183.655 68.1246 182.325C72.6709 180.994 75.1658 179.774 76.6628 181.881C78.1043 183.988 77.9934 186.372 76.3301 187.037C74.6668 187.702 61.4161 190.807 55.9273 191.916C50.4385 193.025 46.8347 193.746 46.3357 193.524C45.8368 193.302 45.2823 191.694 45.3932 190.807C45.5041 189.92 45.5595 189.587 46.6129 189.144C47.6664 188.645 50.882 187.536 50.882 187.536Z" fill="#DB061F"/>
<path d="M49.4402 169.018H64.7423C64.7423 169.018 65.574 168.907 65.574 170.016C65.574 171.125 65.574 183.211 65.574 183.211C65.574 183.211 65.6294 184.098 64.9641 184.098C64.2988 184.098 47.0007 184.098 47.0007 184.098C47.0007 184.098 46.28 184.32 46.28 183.1C46.28 181.88 46.28 169.683 46.28 169.683C46.28 169.683 46.2245 169.018 47.1116 169.018C47.9433 169.018 49.4402 169.018 49.4402 169.018Z" fill="#023EA1"/>
<path d="M56.8699 176.503L55.7611 175.616L54.874 176.725L55.9829 177.612L56.8699 176.503Z" fill="#579CD2"/>
<path d="M166.579 112.984C166.929 114.789 166.637 117.061 168.271 117.934C168.271 117.934 168.037 119.623 164.303 120.322C160.22 121.021 162.145 119.449 162.145 119.449C164.303 118.692 163.837 116.886 163.195 115.721L166.579 112.984Z" fill="#FFBE9B"/>
<path d="M165.47 110.072C166.462 112.11 167.104 113.333 166.404 114.848C165.353 117.119 161.795 117.469 160.103 115.663C158.528 114.032 157.302 110.945 159.286 109.198C161.153 107.451 164.478 108.033 165.47 110.072Z" fill="#FFBE9B"/>
<path d="M161.211 106.286C159.403 106.752 158.003 107.509 157.828 108.266C156.194 108.965 155.727 110.421 156.894 110.887C157.944 111.353 159.519 110.713 159.519 110.713C159.519 110.713 158.936 113.916 161.27 112.576C161.678 113.625 162.67 115.547 164.712 115.605C165.82 115.663 167.745 115.314 167.92 114.556C168.037 113.799 167.395 113.974 167.512 113.392C167.629 112.809 168.445 110.654 167.279 109.198C167.279 109.256 165.528 104.772 161.211 106.286Z" fill="#180857"/>
<path d="M162.32 112.402C162.437 112.926 162.203 113.45 161.912 113.8C161.445 114.382 161.27 114.382 161.095 113.8C160.861 113.275 160.336 112.169 160.978 111.819C161.62 111.528 162.32 111.819 162.32 112.402Z" fill="#FFBE9B"/>
<path d="M150.945 123.118C150.945 123.118 149.37 121.429 149.312 121.429C149.312 121.429 147.853 119.74 147.445 119.74C147.037 119.798 147.212 120.147 147.737 120.788C148.203 121.371 148.262 121.72 148.262 121.72L147.387 122.302C147.387 122.302 146.687 122.128 146.745 122.71C146.745 122.885 146.862 123.118 146.978 123.467C147.037 123.642 147.153 123.875 147.387 123.817C147.445 123.758 147.562 123.7 147.562 123.584C147.503 123.234 147.445 123.118 147.503 123.118C147.562 123.118 148.437 124.807 148.437 124.807L150.945 123.118Z" fill="#FFBE9D"/>
<path d="M148.027 121.895C147.911 121.837 147.794 121.778 147.677 121.778C147.561 121.778 147.386 121.72 147.327 121.778C147.269 121.778 147.152 121.837 147.094 121.895C147.036 122.011 147.036 122.128 147.094 122.186C147.152 122.244 147.211 122.361 147.269 122.419" fill="#FFBE9D"/>
<path d="M148.437 121.487C148.32 121.429 148.203 121.371 148.086 121.371C147.97 121.371 147.853 121.312 147.736 121.371C147.678 121.371 147.62 121.429 147.561 121.487C147.503 121.545 147.503 121.662 147.561 121.778C147.62 121.837 147.853 122.011 147.911 122.128" fill="#FFBE9D"/>
<path d="M150.304 122.07L152.696 125.681L150.829 127.836L149.371 125.157C149.371 125.157 148.788 125.331 148.496 124.982C148.204 124.632 147.679 123.468 147.679 123.468L150.304 122.07Z" fill="#FFBE9D"/>
<path d="M148.903 122.186C148.903 122.186 148.845 121.895 148.612 121.72C148.495 121.604 148.378 121.487 148.203 121.487C148.087 121.429 148.028 121.429 148.028 121.487C148.028 121.545 148.262 121.604 148.495 121.836C148.787 121.953 148.903 122.186 148.903 122.186Z" fill="#EB996E"/>
<path d="M146.919 122.419C147.036 122.361 147.153 122.361 147.386 122.419C147.561 122.478 147.678 122.536 147.736 122.594C147.853 122.652 147.911 122.71 147.911 122.71C147.911 122.71 147.911 122.652 147.794 122.594C147.736 122.536 147.619 122.419 147.386 122.361C147.211 122.303 146.978 122.361 146.919 122.419Z" fill="#EB996E"/>
<path d="M147.387 121.779C147.387 121.837 147.679 121.837 147.912 121.953C148.145 122.07 148.32 122.303 148.32 122.303C148.379 122.303 148.262 122.07 147.97 121.895C147.854 121.837 147.679 121.779 147.62 121.779C147.504 121.72 147.387 121.72 147.387 121.779Z" fill="#EB996E"/>
<path d="M147.037 122.594C146.978 122.594 146.978 122.768 147.095 122.885C147.212 123.06 147.387 123.001 147.387 123.001C147.387 122.943 147.27 122.943 147.212 122.827C147.095 122.768 147.095 122.652 147.037 122.594Z" fill="#EB996E"/>
<path d="M150.886 123.059C150.886 123.059 150.827 121.894 150.477 121.72C150.127 121.487 149.311 121.836 149.311 121.836" fill="#FFBE9D"/>
<path d="M173.29 119.448L178.132 125.389C178.716 126.088 179.241 126.845 179.708 127.602C180.116 128.359 180.058 129.408 179.533 130.107L179.591 129.932C179.183 130.514 178.541 130.864 177.782 130.98H177.666C176.674 131.097 175.74 130.631 175.332 129.874L173.757 128.185L173.29 119.448Z" fill="#FCBE42"/>
<path d="M160.455 119.39C161.505 118.75 162.614 118.517 163.839 118.4C165.239 118.225 167.223 117.876 168.74 117.818C168.74 117.818 173.115 117.701 173.698 120.38L174.574 133.077L176.207 138.377L162.38 140.124L161.739 133.834C161.155 130.514 160.98 125.797 160.98 125.797C160.572 124.05 159.405 123.409 159.055 122.244C158.88 121.254 159.58 120.031 160.455 119.39Z" fill="#FCBE42"/>
<path d="M149.604 127.137L152.579 124.982L154.971 127.952C154.971 127.952 157.363 124.108 158.413 121.953C159.347 119.973 160.805 119.274 161.564 119.099C161.739 119.041 162.03 119.216 161.972 119.391L161.622 126.38C161.505 126.729 159.58 129.991 158.472 131.68C156.605 134.417 153.221 133.136 152.171 131.388C151.354 129.932 150.012 127.894 149.604 127.137Z" fill="#FCBE42"/>
<g opacity="0.3">
<path d="M163.255 122.302C163.255 122.302 163.547 124.865 162.964 125.913C162.438 127.02 161.213 129.291 161.213 129.117C161.213 129 161.097 127.311 161.097 127.311C161.097 127.311 163.372 123.7 163.255 122.302Z" fill="black"/>
</g>
<path d="M167.162 139.484C167.162 139.484 169.379 155.85 170.721 161.849C172.238 168.372 182.097 189.456 182.097 189.456L186.706 188.466C184.314 181.185 180.755 167.615 178.597 162.373C176.963 154.452 178.538 144.551 176.147 138.377L167.162 139.484Z" fill="#0064E1"/>
<path d="M168.563 145.832C168.446 145.832 168.213 145.832 168.096 145.832C168.796 150.724 169.788 157.247 170.605 160.975C171.188 155.558 171.83 146.356 168.563 145.832Z" fill="#023EA1"/>
<path d="M162.32 140.067C162.32 140.067 161.27 157.597 161.154 163.946C161.037 170.527 163.079 190.213 163.079 190.213H167.571C167.571 190.213 169.204 171.983 168.271 163.072C169.321 156.258 171.538 138.96 171.538 138.96L162.32 140.067Z" fill="#0064E1"/>
<path d="M182.156 189.281L186.415 188.291C186.648 188.233 186.707 188.291 186.765 188.466L188.165 191.145C188.282 191.319 188.223 191.669 187.873 191.785H187.815C186.415 192.135 185.365 192.251 183.556 192.601C182.506 192.776 179.181 193.649 177.781 193.94C176.322 194.29 175.739 193.008 176.38 192.717C178.947 191.552 180.873 190.446 181.573 189.514C181.748 189.456 181.923 189.339 182.156 189.281Z" fill="#170856"/>
<path d="M163.079 190.213H167.512C167.746 190.213 167.804 190.271 167.804 190.446L168.504 193.3C168.563 193.533 168.446 193.824 168.096 193.882H168.038C166.579 193.882 165.529 193.824 163.72 193.824C162.67 193.824 159.17 193.882 157.711 193.882C156.253 193.882 155.961 192.543 156.661 192.426C159.462 191.844 161.62 191.145 162.554 190.388C162.67 190.329 162.845 190.213 163.079 190.213Z" fill="#170856"/>
</svg>
