<svg width="270" height="186" viewBox="0 0 270 186" fill="none" xmlns="http://www.w3.org/2000/svg">
<path d="M135.196 178.95C197.212 178.95 247.486 174.638 247.486 169.32C247.486 164.001 197.212 159.69 135.196 159.69C73.1793 159.69 22.9053 164.001 22.9053 169.32C22.9053 174.638 73.1793 178.95 135.196 178.95Z" fill="#E8E7EC"/>
<path d="M77.9639 137.46C77.9639 137.46 78.145 139.17 79.0505 141.33L82.0389 142.68L79.6844 143.04C82.3106 149.52 88.6496 158.79 103.41 156.9C103.41 157.26 110.655 138.81 77.9639 137.46Z" fill="#FABD41"/>
<path d="M81.8578 147.63L93.9924 148.89L77.9639 137.46" stroke="white" stroke-miterlimit="10"/>
<path d="M88.2871 138.81L93.9922 148.89" stroke="white" stroke-miterlimit="10"/>
<path d="M87.3817 126.66C87.3817 126.66 91.3662 123.96 92.1812 126.3C92.9962 128.64 94.0829 128.55 95.2601 128.37C96.4374 128.19 98.339 127.11 99.0635 129.63C99.7879 132.24 99.0635 133.77 100.241 134.58C101.418 135.39 105.04 140.16 102.595 140.97C100.241 141.78 97.4335 139.8 96.4373 138.72C95.4412 137.55 93.3584 137.55 91.819 137.91C90.0984 138.27 88.0156 137.55 88.74 135.57C89.4645 133.59 88.3778 131.61 86.9289 131.25C85.3894 130.71 84.5744 128.46 87.3817 126.66Z" fill="#1C4599"/>
<path d="M89.4648 128.91L103.229 142.68" stroke="white" stroke-miterlimit="10" stroke-linecap="round" stroke-linejoin="round"/>
<path d="M96.1655 130.08L95.0788 134.49L90.2793 135.21" stroke="white" stroke-miterlimit="10" stroke-linecap="round" stroke-linejoin="round"/>
<path d="M83.7592 132.78C83.7592 132.78 83.7592 135.3 85.4798 134.31C87.2004 133.32 88.3776 133.23 89.1021 135.12C89.8265 137.01 91.0037 137.73 92.181 137.37C93.3582 137.01 95.2599 136.11 96.0749 138.63C96.8899 141.24 98.9727 146.1 96.1655 147.36C93.4488 148.62 89.1926 146.82 88.4682 145.02C87.7437 143.13 88.4682 141.42 86.3854 140.79C84.3025 140.16 83.8498 142.32 82.0386 140.88C80.2275 139.44 78.0541 138.18 79.4125 135.12C80.7708 132.33 83.4875 131.43 83.7592 132.78Z" stroke="#ED3B4E" stroke-miterlimit="10"/>
<path d="M83.3066 135.48C83.3066 135.48 95.2601 144.75 98.973 146.28" stroke="#ED3B4E" stroke-miterlimit="10"/>
<path d="M92.9957 138.99L93.2674 142.86L90.1885 144.12" stroke="#ED3B4E" stroke-miterlimit="10"/>
<path d="M86.9289 135.21L86.7478 138.18L84.3027 139.53" stroke="#ED3B4E" stroke-miterlimit="10"/>
<path d="M92.5436 97.77C107.247 97.77 119.167 85.9235 119.167 71.31C119.167 56.6966 107.247 44.85 92.5436 44.85C77.8397 44.85 65.9199 56.6966 65.9199 71.31C65.9199 85.9235 77.8397 97.77 92.5436 97.77Z" stroke="#DD1F26" stroke-miterlimit="10" stroke-dasharray="6 6"/>
<path d="M71.4443 58.8C73.2948 58.8 74.7949 57.3091 74.7949 55.47C74.7949 53.6309 73.2948 52.14 71.4443 52.14C69.5939 52.14 68.0938 53.6309 68.0938 55.47C68.0938 57.3091 69.5939 58.8 71.4443 58.8Z" fill="#24499F"/>
<path d="M72.4406 54.12L69.8145 55.02L71.7161 56.55L72.4406 54.12Z" fill="white"/>
<path d="M135.92 21.9C135.92 21.9 132.75 24.51 135.739 25.68C138.818 26.85 139.995 28.29 138.455 31.17C136.735 34.05 137.278 36.3 138.818 37.38C140.538 38.46 143.708 40.08 141.172 43.77C138.636 47.55 134.471 55.11 130.034 53.04C125.506 50.97 123.332 43.59 125.143 40.71C126.955 37.83 129.943 37.02 128.404 33.69C127.045 30.36 123.876 31.98 123.785 28.11C123.695 24.15 123.151 20.1 128.675 18.84C133.384 17.67 137.188 20.01 135.92 21.9Z" stroke="#1C4599" stroke-miterlimit="10"/>
<path d="M131.573 24.42C131.573 24.42 132.117 49.35 133.565 55.56" stroke="#1C4599" stroke-miterlimit="10"/>
<path d="M137.188 40.17L132.388 44.67L127.589 42.06" stroke="#1C4599" stroke-miterlimit="10"/>
<path d="M135.829 28.56L131.935 31.35L127.498 29.64" stroke="#1C4599" stroke-miterlimit="10"/>
<path d="M146.515 22.17C146.515 22.17 154.121 24.51 152.039 27.93C149.775 31.26 151.042 32.7 152.582 33.96C153.94 35.22 157.472 36.66 154.846 40.08C152.22 43.5 149.594 44.22 149.775 46.56C149.956 48.9 147.511 58.35 143.979 56.19C140.357 54.12 140.085 48.45 140.628 45.93C141.172 43.59 138.908 40.89 136.825 39.09C134.742 37.38 133.565 33.96 136.735 32.88C139.995 31.71 141.534 28.38 140.538 26.04C139.089 23.88 141.353 20.73 146.515 22.17Z" fill="#FABD41"/>
<path d="M145.791 27.3L141.987 59.25" stroke="white" stroke-miterlimit="10" stroke-linecap="round" stroke-linejoin="round"/>
<path d="M151.133 37.11L144.16 40.26L138.184 35.22" stroke="white" stroke-miterlimit="10" stroke-linecap="round" stroke-linejoin="round"/>
<path d="M110.836 26.58C110.836 26.58 107.757 24.33 109.749 21.72C111.651 19.11 116.541 19.11 117.537 21.63C118.624 23.97 117.175 25.77 119.348 26.13C121.431 26.49 127.136 28.38 126.049 31.08C124.872 33.78 121.521 33.96 122.97 37.56C124.329 41.16 131.392 41.79 127.77 46.83C124.148 51.78 115.726 58.62 111.379 50.07C107.214 41.52 116.45 43.23 111.47 37.74C106.489 32.25 110.655 32.07 112.013 30C113.281 27.66 110.836 26.58 110.836 26.58Z" fill="#ED3B4E"/>
<path d="M116.541 29.73C116.541 29.73 117.084 39.63 120.526 47.82C123.967 56.01 126.14 57.09 126.14 57.09" stroke="white" stroke-miterlimit="10" stroke-linecap="round" stroke-linejoin="round"/>
<path d="M97.7955 43.77C96.7994 43.77 95.9844 44.49 95.9844 45.57V166.8C95.9844 167.79 96.7994 168.6 97.7955 168.6H163.268C164.264 168.6 165.079 167.88 165.079 166.8V45.39C165.079 44.4 164.264 43.59 163.268 43.59H97.7955V43.77Z" fill="#1466B1"/>
<path d="M162.996 51.6H96.9805V160.86H162.996V51.6Z" fill="white" stroke="#1466B1" stroke-width="2" stroke-miterlimit="10"/>
<path d="M140.085 47.82C140.085 48.36 139.542 48.81 139.089 48.81C138.546 48.81 138.093 48.27 138.093 47.82C138.093 47.28 138.636 46.83 139.089 46.83C139.542 46.92 140.085 47.19 140.085 47.82Z" fill="#012257"/>
<path d="M137.912 47.82C137.912 48.36 137.55 48.63 137.097 48.63H121.883C121.34 48.63 121.068 48.27 121.068 47.82C121.068 47.28 121.431 47.01 121.883 47.01H137.097C137.369 47.01 137.912 47.28 137.912 47.82Z" fill="#012257"/>
<path opacity="0.05" d="M158.559 94.7101C158.559 107.04 148.598 116.85 136.282 116.85C123.966 116.85 114.005 106.95 114.005 94.7101C114.005 82.4701 123.966 72.5701 136.282 72.5701C148.598 72.4801 158.559 82.5601 158.559 94.7101Z" fill="#1466B1"/>
<path d="M153.307 93.45C153.307 105.78 143.346 115.59 131.03 115.59C118.624 115.59 108.753 105.69 108.753 93.45C108.753 81.21 118.714 71.31 131.03 71.31C143.346 71.31 153.307 81.21 153.307 93.45Z" fill="#C7D6EE"/>
<mask id="mask0_1409_4158" style="mask-type:luminance" maskUnits="userSpaceOnUse" x="108" y="71" width="46" height="45">
<path d="M130.939 115.59C143.242 115.59 153.216 105.678 153.216 93.45C153.216 81.2224 143.242 71.31 130.939 71.31C118.636 71.31 108.662 81.2224 108.662 93.45C108.662 105.678 118.636 115.59 130.939 115.59Z" fill="white"/>
</mask>
<g mask="url(#mask0_1409_4158)">
<path d="M118.442 108.39C119.982 106.05 122.427 105.33 122.427 105.33L128.313 103.26H134.018L139.904 105.33C139.904 105.33 142.44 106.05 143.889 108.39H118.442Z" fill="#A4DEF6"/>
</g>
<mask id="mask1_1409_4158" style="mask-type:luminance" maskUnits="userSpaceOnUse" x="108" y="71" width="46" height="45">
<path d="M130.939 115.59C143.242 115.59 153.216 105.678 153.216 93.45C153.216 81.2224 143.242 71.31 130.939 71.31C118.636 71.31 108.662 81.2224 108.662 93.45C108.662 105.678 118.636 115.59 130.939 115.59Z" fill="white"/>
</mask>
<g mask="url(#mask1_1409_4158)">
<path d="M138.998 119.82H148.145C148.145 118.29 148.054 116.04 148.054 116.04C147.511 106.68 140.629 105.33 140.629 105.33C135.376 104.07 138.274 112.17 138.274 112.17C138.183 114.15 138.365 116.85 138.998 119.82Z" fill="#CCCCCC"/>
</g>
<mask id="mask2_1409_4158" style="mask-type:luminance" maskUnits="userSpaceOnUse" x="108" y="71" width="46" height="45">
<path d="M130.939 115.59C143.242 115.59 153.216 105.678 153.216 93.45C153.216 81.2224 143.242 71.31 130.939 71.31C118.636 71.31 108.662 81.2224 108.662 93.45C108.662 105.678 118.636 115.59 130.939 115.59Z" fill="white"/>
</mask>
<g mask="url(#mask2_1409_4158)">
<path d="M135.014 97.68H127.316V105.24H135.014V97.68Z" fill="#EDEDED"/>
</g>
<mask id="mask3_1409_4158" style="mask-type:luminance" maskUnits="userSpaceOnUse" x="108" y="71" width="46" height="45">
<path d="M130.939 115.59C143.242 115.59 153.216 105.678 153.216 93.45C153.216 81.2224 143.242 71.31 130.939 71.31C118.636 71.31 108.662 81.2224 108.662 93.45C108.662 105.678 118.636 115.59 130.939 115.59Z" fill="white"/>
</mask>
<g mask="url(#mask3_1409_4158)">
<g opacity="0.5">
<path d="M135.195 101.28V97.68H127.498V99.48C129.581 101.28 132.207 101.46 135.195 101.28Z" fill="#CCCCCC"/>
</g>
</g>
<mask id="mask4_1409_4158" style="mask-type:luminance" maskUnits="userSpaceOnUse" x="108" y="71" width="46" height="45">
<path d="M130.939 115.59C143.242 115.59 153.216 105.678 153.216 93.45C153.216 81.2224 143.242 71.31 130.939 71.31C118.636 71.31 108.662 81.2224 108.662 93.45C108.662 105.678 118.636 115.59 130.939 115.59Z" fill="white"/>
</mask>
<g mask="url(#mask4_1409_4158)">
<path d="M143.345 119.82C143.436 115.86 143.436 114.69 143.345 113.16C143.255 110.1 142.621 107.49 140.447 105.15L134.923 103.35C134.923 103.35 136.101 105.33 131.029 105.33C131.029 105.33 127.769 105.24 127.226 103.35L121.612 105.15C121.612 105.15 116.812 106.32 115.997 111.27L118.895 116.4L118.804 119.55L143.345 119.82Z" fill="#CCCCCC"/>
</g>
<mask id="mask5_1409_4158" style="mask-type:luminance" maskUnits="userSpaceOnUse" x="108" y="71" width="46" height="45">
<path d="M130.939 115.59C143.242 115.59 153.216 105.678 153.216 93.45C153.216 81.2224 143.242 71.31 130.939 71.31C118.636 71.31 108.662 81.2224 108.662 93.45C108.662 105.678 118.636 115.59 130.939 115.59Z" fill="white"/>
</mask>
<g mask="url(#mask5_1409_4158)">
<path d="M140.448 86.52C140.448 84.72 140.357 82.92 140.448 81.3C140.448 80.13 140.538 80.49 139.27 80.31C137.369 80.13 136.735 83.46 136.644 85.08C136.463 87.06 136.825 89.31 137.278 91.2C137.369 91.92 137.369 93.27 138.093 93.72C138.818 93.9 139.361 93.18 139.814 92.73C140.538 91.56 140.448 89.67 140.538 88.41C140.448 87.69 140.448 87.06 140.448 86.52Z" fill="#B2B2B2"/>
</g>
<mask id="mask6_1409_4158" style="mask-type:luminance" maskUnits="userSpaceOnUse" x="108" y="71" width="46" height="45">
<path d="M130.939 115.59C143.242 115.59 153.216 105.678 153.216 93.45C153.216 81.2224 143.242 71.31 130.939 71.31C118.636 71.31 108.662 81.2224 108.662 93.45C108.662 105.678 118.636 115.59 130.939 115.59Z" fill="white"/>
</mask>
<g mask="url(#mask6_1409_4158)">
<path d="M139.723 96.6C138.999 99.66 137.64 100.47 137.64 100.47L135.739 100.83C134.652 100.74 132.841 100.2 132.841 100.2C128.585 98.85 127.317 98.4 126.683 96.87L123.423 85.44C122.88 79.59 129.128 78.42 129.943 78.24C130.939 78.06 136.735 76.35 138.546 82.02C138.455 82.02 140.991 88.5 139.723 96.6Z" fill="#EDEDED"/>
</g>
<mask id="mask7_1409_4158" style="mask-type:luminance" maskUnits="userSpaceOnUse" x="108" y="71" width="46" height="45">
<path d="M130.939 115.59C143.242 115.59 153.216 105.678 153.216 93.45C153.216 81.2224 143.242 71.31 130.939 71.31C118.636 71.31 108.662 81.2224 108.662 93.45C108.662 105.678 118.636 115.59 130.939 115.59Z" fill="white"/>
</mask>
<g mask="url(#mask7_1409_4158)">
<path d="M122.699 80.04C120.706 81.03 120.616 82.92 120.706 84.9C120.797 86.61 121.34 87.87 121.884 89.4C122.88 92.01 122.88 92.01 123.785 93.63C123.785 93.63 125.144 95.7 126.864 97.23C126.321 95.25 126.14 93.63 125.777 92.19C125.144 90.3 125.415 87.96 126.321 85.98C126.321 85.98 126.864 84.72 128.675 84.27L122.699 80.04Z" fill="#B2B2B2"/>
</g>
<mask id="mask8_1409_4158" style="mask-type:luminance" maskUnits="userSpaceOnUse" x="108" y="71" width="46" height="45">
<path d="M130.939 115.59C143.242 115.59 153.216 105.678 153.216 93.45C153.216 81.2224 143.242 71.31 130.939 71.31C118.636 71.31 108.662 81.2224 108.662 93.45C108.662 105.678 118.636 115.59 130.939 115.59Z" fill="white"/>
</mask>
<g mask="url(#mask8_1409_4158)">
<path d="M126.049 91.83C126.049 91.83 124.962 89.58 123.332 90.84C123.332 90.84 122.608 91.47 123.513 92.91C123.513 92.91 124.781 94.98 126.501 93.9L126.049 91.83Z" fill="#EDEDED"/>
</g>
<mask id="mask9_1409_4158" style="mask-type:luminance" maskUnits="userSpaceOnUse" x="108" y="71" width="46" height="45">
<path d="M130.939 115.59C143.242 115.59 153.216 105.678 153.216 93.45C153.216 81.2224 143.242 71.31 130.939 71.31C118.636 71.31 108.662 81.2224 108.662 93.45C108.662 105.678 118.636 115.59 130.939 115.59Z" fill="white"/>
</mask>
<g mask="url(#mask9_1409_4158)">
<path d="M125.868 86.52C125.868 86.52 125.868 90.48 126.593 92.64L125.778 92.73C125.778 92.73 125.234 89.85 123.876 89.85L125.868 86.52Z" fill="#B2B2B2"/>
</g>
<mask id="mask10_1409_4158" style="mask-type:luminance" maskUnits="userSpaceOnUse" x="108" y="71" width="46" height="45">
<path d="M130.939 115.59C143.242 115.59 153.216 105.678 153.216 93.45C153.216 81.2224 143.242 71.31 130.939 71.31C118.636 71.31 108.662 81.2224 108.662 93.45C108.662 105.678 118.636 115.59 130.939 115.59Z" fill="white"/>
</mask>
<g mask="url(#mask10_1409_4158)">
<path d="M141.444 77.88C148.145 84.63 128.042 84.54 128.042 84.54C128.042 84.54 125.959 85.53 122.518 80.22C122.518 80.22 121.522 75.99 131.121 74.64C131.302 74.55 137.55 73.83 141.444 77.88Z" fill="#B2B2B2"/>
</g>
<mask id="mask11_1409_4158" style="mask-type:luminance" maskUnits="userSpaceOnUse" x="108" y="71" width="46" height="45">
<path d="M130.939 115.59C143.242 115.59 153.216 105.678 153.216 93.45C153.216 81.2224 143.242 71.31 130.939 71.31C118.636 71.31 108.662 81.2224 108.662 93.45C108.662 105.678 118.636 115.59 130.939 115.59Z" fill="white"/>
</mask>
<g mask="url(#mask11_1409_4158)">
<path d="M124.057 119.82H115.454C115.454 119.82 115.454 117.84 115.454 117.75C115.454 115.77 115.635 113.79 116.088 111.9C116.631 109.02 117.99 106.68 120.978 105.87C122.336 105.51 123.604 106.41 124.238 107.58C124.238 107.49 125.596 109.11 124.057 119.82Z" fill="#CCCCCC"/>
</g>
<path d="M154.937 121.71C154.937 122.52 154.213 123.06 153.579 123.06H108.481C107.666 123.06 107.123 122.34 107.123 121.71C107.123 120.9 107.848 120.36 108.481 120.36H153.579C154.303 120.36 154.937 120.99 154.937 121.71Z" fill="#DEE6F5"/>
<path d="M154.937 130.89C154.937 131.7 154.213 132.24 153.579 132.24H108.481C107.666 132.24 107.123 131.52 107.123 130.89C107.123 130.08 107.848 129.54 108.481 129.54H153.579C154.303 129.36 154.937 130.08 154.937 130.89Z" fill="#DEE6F5"/>
<path d="M154.937 139.98C154.937 140.79 154.213 141.33 153.579 141.33H108.481C107.666 141.33 107.123 140.61 107.123 139.98C107.123 139.17 107.848 138.63 108.481 138.63H153.579C154.303 138.36 154.937 139.08 154.937 139.98Z" fill="#DEE6F5"/>
<path d="M215.067 145.74C215.067 145.74 216.787 145.02 216.606 143.13C216.516 141.24 215.52 139.98 217.602 140.43C219.595 141.06 220.319 141.24 221.768 140.97C223.217 140.7 224.394 139.98 223.76 141.96C223.126 143.94 222.493 145.29 223.941 145.74C225.481 145.92 227.02 144.93 227.202 147.81C227.383 150.78 225.119 154.02 221.134 154.2C217.331 154.29 215.52 152.85 215.52 152.85C215.52 152.85 214.433 151.5 216.154 151.05C217.874 150.69 219.414 149.97 218.508 149.25C217.693 148.53 214.886 148.44 214.886 148.44C214.886 148.44 211.716 147.63 215.067 145.74Z" fill="#6B9CD3"/>
<path d="M232.726 146.19C232.545 144.3 232.726 143.04 236.076 142.41C239.699 141.87 241.691 144.12 241.872 146.19C242.053 148.26 238.974 149.16 238.974 149.16C238.974 149.16 236.891 149.79 237.888 151.68C238.974 153.57 239.608 155.37 236.891 155.64C234.175 155.91 231.73 155.28 230.1 154.29C228.56 153.3 227.021 150.69 228.832 149.34C228.832 149.34 229.375 148.98 230.915 148.8C232.907 148.71 232.726 146.19 232.726 146.19Z" fill="#1C4599"/>
<path d="M220.319 145.83C220.319 145.83 223.217 152.49 223.579 156.9" stroke="#88D6F8" stroke-miterlimit="10" stroke-linecap="round" stroke-linejoin="round"/>
<path d="M236.619 146.91C236.619 146.91 231.457 154.47 230.189 156.99" stroke="#599FD2" stroke-miterlimit="10" stroke-linecap="round" stroke-linejoin="round"/>
<path d="M221.95 156.36H233.812C233.812 156.36 235.08 156.45 234.99 158.25C234.899 159.96 232.907 159.51 231.82 159.51C230.734 159.51 221.768 159.51 221.768 159.51C221.768 159.51 220.41 159.69 220.41 158.16C220.138 156.36 220.772 156.36 221.95 156.36Z" fill="#0256A4"/>
<path d="M221.678 159.51L223.398 169.86H231.458L232.726 162.12L221.678 159.51Z" fill="#0256A4"/>
<path d="M221.678 159.51L232.726 162.12L233.178 159.51H221.678Z" fill="#346BB4"/>
<path d="M226.839 156.81C226.839 156.81 227.473 145.29 230.823 138.09" stroke="#FABD41" stroke-miterlimit="10"/>
<path d="M233.631 133.86C233.631 133.86 233.812 137.46 230.461 138.81C230.461 138.81 229.737 135.66 233.631 133.86Z" fill="#FABD41"/>
<path d="M228.379 145.02C228.379 145.02 229.647 141.96 233.541 142.41C233.631 142.32 233.269 145.38 228.379 145.02Z" fill="#FABD41"/>
<path d="M227.111 152.58C227.111 152.58 227.836 149.43 231.73 148.98C231.73 148.98 232.001 152.04 227.111 152.58Z" fill="#FABD41"/>
<path d="M227.02 152.58C227.02 152.58 227.564 149.34 223.942 147.63C223.851 147.81 222.674 150.51 227.02 152.58Z" fill="#FABD41"/>
<path d="M228.379 145.02C228.379 145.02 229.194 141.87 225.843 139.8C225.934 139.71 224.304 142.32 228.379 145.02Z" fill="#FABD41"/>
<path d="M219.509 66.9768L214.888 68.2647L216.184 72.8577L220.805 71.5698L219.509 66.9768Z" fill="#ED3B4E"/>
<path d="M39.8382 84.7936L35.2168 86.0815L36.5127 90.6745L41.1341 89.3866L39.8382 84.7936Z" fill="#24499F"/>
<path d="M88.5589 14.16C88.5589 14.16 88.4684 14.07 88.3778 14.16L87.0195 14.34C86.8383 14.34 86.6572 14.25 86.4761 14.16C86.3856 13.44 85.9328 12.9 85.7517 12.27C85.6611 12.18 85.7517 11.91 85.8422 11.73L86.9289 10.92C86.9289 10.92 87.0195 10.83 87.0195 10.74C87.0195 10.65 87.0194 10.65 86.9289 10.56L85.1178 8.85001C85.1178 8.85001 85.0272 8.76001 84.9366 8.76001C84.8461 8.76001 84.8461 8.76001 84.7555 8.85001L83.9405 9.93001C83.85 10.02 83.5783 10.11 83.3972 10.02C82.7633 9.66001 82.2199 9.39001 81.4955 9.30001C81.3144 9.30001 81.1333 9.12001 81.3144 8.76001L81.4955 7.41001C81.4955 7.32001 81.4955 7.32001 81.4955 7.23001C81.4955 7.23001 81.4049 7.14001 81.3144 7.14001H79.0505C78.9599 7.14001 78.9599 7.14001 78.8693 7.23001C78.8693 7.23001 78.7788 7.32001 78.8693 7.41001L79.0505 8.76001C79.0505 8.94001 78.9599 9.12001 78.8693 9.30001C78.1449 9.39001 77.6016 9.84001 76.9677 10.02C76.8771 10.11 76.6054 10.02 76.4243 9.93001L75.6093 8.85001C75.6093 8.85001 75.5188 8.76001 75.4282 8.76001C75.3376 8.76001 75.3376 8.76001 75.2471 8.85001L73.6171 10.65C73.6171 10.65 73.5265 10.74 73.5265 10.83C73.5265 10.92 73.5265 10.92 73.6171 11.01L74.7037 11.82C74.7943 11.91 74.8849 12.18 74.7943 12.36C74.4321 12.99 74.1604 13.53 74.0698 14.25C74.0698 14.43 73.8887 14.61 73.5265 14.43L72.1682 14.25C72.0776 14.25 72.0776 14.25 71.987 14.25C71.987 14.25 71.8965 14.34 71.8965 14.43V16.68C71.8965 16.77 71.8965 16.77 71.987 16.86C71.987 16.86 72.0776 16.95 72.1682 16.86L73.5265 16.68C73.7076 16.68 73.8887 16.77 74.0698 16.86C74.1604 17.58 74.6132 18.12 74.7943 18.75C74.8849 18.84 74.7943 19.11 74.7037 19.29L73.6171 20.01C73.6171 20.01 73.5265 20.1 73.5265 20.19C73.5265 20.28 73.5265 20.28 73.6171 20.37L75.3376 22.08C75.3376 22.08 75.4282 22.17 75.5188 22.17C75.6093 22.17 75.6093 22.17 75.6999 22.08L76.5149 21C76.6054 20.91 76.8771 20.82 77.0582 20.91C77.6921 21.27 78.2355 21.54 78.9599 21.63C79.141 21.63 79.3221 21.81 79.141 22.17L78.9599 23.52C78.9599 23.61 78.9599 23.61 78.9599 23.7C78.9599 23.7 79.0505 23.79 79.141 23.79H81.4049C81.4955 23.79 81.4955 23.79 81.5861 23.7C81.5861 23.7 81.6766 23.61 81.5861 23.52L81.3144 22.26C81.3144 22.08 81.4049 21.9 81.4955 21.72C82.2199 21.63 82.7633 21.18 83.3972 21C83.4877 20.91 83.7594 21 83.9405 21.09L84.7555 22.17C84.7555 22.17 84.8461 22.26 84.9366 22.26C85.0272 22.26 85.0272 22.26 85.1178 22.17L86.8383 20.46C86.8383 20.46 86.9289 20.37 86.9289 20.28C86.9289 20.19 86.9289 20.19 86.8383 20.1L85.8422 19.2C85.7517 19.11 85.6611 18.84 85.7517 18.66C86.1139 18.03 86.3856 17.49 86.4761 16.77C86.4761 16.59 86.6572 16.41 87.0195 16.59L88.3778 16.77C88.4684 16.77 88.4684 16.77 88.5589 16.77C88.5589 16.77 88.6495 16.68 88.6495 16.59V14.34C88.5589 14.43 88.5589 14.34 88.5589 14.16ZM88.1061 16.5L86.9289 16.41C86.3856 16.41 85.9328 16.59 85.8422 17.13C85.7517 17.76 85.48 18.3 85.1178 18.84C84.9366 19.38 85.0272 19.83 85.2989 20.01L86.1139 20.64L84.9366 21.81L84.3028 21C84.1216 20.64 83.4877 20.46 83.1255 20.82C82.5822 21.18 82.0388 21.45 81.4049 21.54C80.8616 21.63 80.5899 22.17 80.6805 22.62L80.771 23.79H79.0505L79.141 22.62C79.141 22.08 78.9599 21.63 78.4166 21.54C77.7827 21.45 77.2393 21.18 76.696 20.82C76.1527 20.64 75.6999 20.73 75.5188 21L74.8849 21.81L73.7076 20.64L74.5226 20.01C74.8849 19.83 75.066 19.2 74.7037 18.84C74.3415 18.3 74.0698 17.76 73.9793 17.13C73.8887 16.59 73.3454 16.32 72.8926 16.41L72.0776 16.5V14.79L73.2548 14.88C73.7982 14.88 74.251 14.7 74.3415 14.16C74.4321 13.53 74.7037 12.99 75.066 12.45C75.2471 11.91 75.1565 11.46 74.8849 11.28L74.0698 10.65L75.4282 9.48001L75.9715 10.29C76.1526 10.65 76.7865 10.83 77.1488 10.47C77.6921 10.11 78.2355 9.84001 78.8693 9.75001C79.4127 9.66001 79.6844 9.12001 79.5938 8.67001L79.5032 7.50001H81.2238L81.1333 8.67001C81.1333 9.21001 81.3144 9.66001 81.8577 9.75001C82.4916 9.84001 83.035 10.11 83.5783 10.47C84.0311 10.74 84.4839 10.65 84.665 10.29L85.2989 9.48001L86.4761 10.65L85.3894 11.28C85.0272 11.46 84.8461 12.09 85.2083 12.45C85.5705 12.99 85.8422 13.53 85.9328 14.16C86.0233 14.7 86.5667 14.97 87.0195 14.88L88.1967 14.79V16.5H88.1061Z" stroke="#24499F" stroke-miterlimit="10"/>
<path d="M79.9562 11.64C77.6923 11.64 75.9717 13.44 75.9717 15.6C75.9717 17.76 77.7828 19.56 79.9562 19.56C82.2201 19.56 83.9407 17.76 83.9407 15.6C83.9407 13.44 82.3106 11.64 79.9562 11.64ZM79.9562 19.02C78.0545 19.02 76.6056 17.49 76.6056 15.69C76.6056 13.89 78.145 12.36 79.9562 12.36C81.7673 12.36 83.3068 13.89 83.3068 15.69C83.3068 17.49 81.8579 19.02 79.9562 19.02Z" stroke="#24499F" stroke-miterlimit="10"/>
<path d="M197.046 26.85H190.345C190.255 26.85 190.164 26.94 190.164 27.03V29.73V29.82L190.889 30.54H190.979H195.96H196.05L196.775 29.82V29.73V27.03C197.227 26.94 197.227 26.85 197.046 26.85ZM196.775 29.55L196.05 30.27H191.341L190.617 29.55V27.21H196.775V29.55Z" fill="#24499F"/>
<path d="M197.409 27.5701L189.983 27.9301C189.892 27.9301 189.802 28.0201 189.802 28.1101C189.802 28.2001 189.892 28.2901 189.983 28.2901L197.409 27.9301C197.499 27.9301 197.59 27.8401 197.59 27.7501C197.68 27.6601 197.59 27.5701 197.409 27.5701Z" fill="#24499F"/>
<path d="M197.409 28.7401L189.983 29.1001C189.892 29.1001 189.802 29.1901 189.802 29.2801C189.802 29.3701 189.892 29.4601 189.983 29.4601L197.409 29.1001C197.499 29.1001 197.59 29.0101 197.59 28.9201C197.68 28.8301 197.59 28.7401 197.409 28.7401Z" fill="#24499F"/>
<path d="M193.786 13.8C190.073 13.8 187.085 16.77 187.085 20.46C187.085 22.71 188.262 24.78 190.164 26.04V27.21C190.164 27.3 190.254 27.39 190.345 27.39H197.046C197.137 27.39 197.227 27.3 197.227 27.21V26.04C199.129 24.87 200.306 22.8 200.306 20.46C200.306 16.77 197.408 13.8 193.786 13.8ZM197.046 25.59L196.956 26.76H190.798V25.68C190.798 25.68 190.798 25.59 190.707 25.59C188.806 24.42 187.719 22.53 187.719 20.37C187.719 17.04 190.617 14.25 193.877 14.25C197.227 14.25 200.035 17.13 200.035 20.37C199.944 22.53 198.857 24.42 197.046 25.59Z" fill="#24499F"/>
<path d="M195.506 30.36C195.416 30.36 195.325 30.36 195.325 30.45C195.325 30.45 194.963 31.17 193.786 31.17C192.609 31.17 192.246 30.54 192.246 30.45C192.246 30.36 192.156 30.36 192.065 30.36C191.975 30.36 191.975 30.45 191.975 30.54C191.975 30.54 192.518 31.53 193.876 31.53C195.235 31.53 195.778 30.72 195.778 30.54C195.687 30.54 195.687 30.45 195.506 30.36Z" fill="#24499F"/>
<path d="M185.455 20.1H181.561C181.47 20.1 181.38 20.19 181.38 20.28C181.38 20.37 181.47 20.46 181.561 20.46H185.455C185.545 20.46 185.636 20.37 185.636 20.28C185.636 20.1 185.636 20.1 185.455 20.1Z" fill="#DD1F26"/>
<path d="M206.012 20.1H202.118C202.027 20.1 201.937 20.19 201.937 20.28C201.937 20.37 202.027 20.46 202.118 20.46H206.012C206.102 20.46 206.193 20.37 206.193 20.28C206.102 20.1 206.012 20.1 206.012 20.1Z" fill="#DD1F26"/>
<path d="M186.723 24.42C186.723 24.33 186.542 24.33 186.542 24.42L183.282 26.31C183.191 26.31 183.191 26.49 183.282 26.49C183.282 26.49 183.372 26.58 183.463 26.58C183.463 26.58 183.463 26.58 183.553 26.58L186.813 24.69C186.723 24.51 186.723 24.42 186.723 24.42Z" fill="#DD1F26"/>
<path d="M204.472 14.16C204.472 14.07 204.291 14.07 204.291 14.16L201.031 16.05C200.94 16.05 200.94 16.23 201.031 16.23C201.031 16.23 201.121 16.32 201.212 16.32C201.212 16.32 201.212 16.32 201.302 16.32L204.563 14.43C204.563 14.34 204.563 14.25 204.472 14.16Z" fill="#DD1F26"/>
<path d="M199.944 9.66003C199.854 9.66003 199.763 9.66003 199.763 9.66003L197.861 12.9C197.861 12.99 197.861 13.08 197.861 13.08C197.861 13.08 197.861 13.08 197.952 13.08C198.042 13.08 198.042 13.08 198.133 12.99L199.944 9.66003C200.125 9.84003 200.125 9.66003 199.944 9.66003Z" fill="#DD1F26"/>
<path d="M193.787 8.04004C193.696 8.04004 193.605 8.13004 193.605 8.22004V12.09C193.605 12.18 193.696 12.27 193.787 12.27C193.877 12.27 193.968 12.18 193.968 12.09V8.22004C193.877 8.13004 193.877 8.04004 193.787 8.04004Z" fill="#DD1F26"/>
<path d="M189.711 13.08L187.81 9.84002C187.81 9.75002 187.628 9.75002 187.628 9.84002C187.538 9.84002 187.538 10.02 187.628 10.02L189.53 13.26C189.53 13.26 189.621 13.35 189.711 13.35C189.711 13.35 189.711 13.35 189.802 13.35C189.711 13.26 189.802 13.08 189.711 13.08Z" fill="#DD1F26"/>
<path d="M204.471 26.1301L201.211 24.2401C201.121 24.2401 201.03 24.2401 201.03 24.3301C201.03 24.4201 201.03 24.5101 201.03 24.5101L204.29 26.4001C204.29 26.4001 204.29 26.4001 204.381 26.4001C204.381 26.4001 204.471 26.4001 204.562 26.3101C204.562 26.4001 204.562 26.3101 204.471 26.1301Z" fill="#DD1F26"/>
<path d="M186.633 16.05L183.373 14.16C183.282 14.16 183.191 14.16 183.191 14.16C183.191 14.25 183.191 14.34 183.191 14.34L186.451 16.23C186.451 16.23 186.451 16.23 186.542 16.23C186.633 16.23 186.633 16.23 186.633 16.05C186.723 16.14 186.723 16.05 186.633 16.05Z" fill="#DD1F26"/>
<path d="M194.421 26.85V20.64C194.421 20.64 194.33 17.67 195.96 17.67C197.59 17.67 196.775 20.73 193.696 20.73" stroke="#24499F" stroke-miterlimit="10"/>
<path d="M192.881 26.85V20.64C192.881 20.64 192.972 17.67 191.342 17.67C189.621 17.67 190.527 20.73 193.605 20.73" stroke="#24499F" stroke-miterlimit="10"/>
<path d="M74.2509 105.42H77.2393L80.4993 105.24C80.4993 105.24 80.8616 107.22 78.9599 107.49C77.0582 107.67 74.1604 108.12 73.7981 108.03C73.0737 107.85 74.2509 105.42 74.2509 105.42Z" fill="#FBBE9B"/>
<path d="M71.9872 91.02C71.9872 91.02 75.0661 94.08 75.3378 95.79C75.8811 97.5 74.7944 99.93 74.5227 100.74C74.3416 101.46 74.4322 110.73 74.4322 110.73H62.207V90.93L71.9872 91.02Z" fill="#0064E1"/>
<path d="M79.2316 81.75C79.2316 81.75 79.0505 84.09 78.4166 85.62V86.79C78.4166 86.88 78.326 86.97 78.2354 86.97L77.511 86.88V87.87C77.511 87.96 77.4204 88.05 77.3299 88.05H76.696C76.6054 88.05 76.5149 88.14 76.5149 88.23L76.6054 88.77C76.6054 88.86 76.6054 88.95 76.4243 88.95C75.881 89.04 75.066 89.13 73.8887 88.32C72.7115 87.51 71.987 87.96 71.987 88.68C71.987 89.4 72.6209 91.65 71.6248 92.28C70.8098 92.82 68.2742 92.46 67.7309 91.92C67.097 91.29 67.7309 89.85 68.5459 89.04C69.1798 88.41 70.0853 81.66 71.4437 81.03C72.6209 80.76 79.2316 81.75 79.2316 81.75Z" fill="#FBBC98"/>
<path d="M65.0142 100.65L64.9236 104.79C64.9236 105.15 65.1047 105.42 65.5575 105.42C66.0103 105.42 66.282 105.42 67.097 105.06C68.9987 104.34 73.617 101.82 74.1604 101.37C74.1604 101.37 74.2509 101.37 74.2509 101.28C74.3415 101.1 74.9754 100.2 76.3337 100.29C78.0543 100.38 78.4165 100.83 78.2354 101.28C78.1449 101.82 77.8732 101.82 77.8732 101.82L78.0543 102.18C78.0543 102.18 77.8732 102.72 77.0582 102.72C76.3337 102.72 75.3376 102.36 75.1565 102.63C74.9754 102.81 67.5498 107.67 65.8292 108.84C65.6481 108.93 65.2858 109.02 65.0142 109.2C63.9275 109.38 61.3013 109.83 61.0297 108.03C60.4863 105.78 60.4863 100.83 60.4863 100.83L65.0142 100.65Z" fill="#FBBE9B"/>
<path d="M65.0142 93.18C65.1953 93.09 65.5575 93.18 65.5575 93.36V100.92C65.5575 101.1 65.4669 101.28 65.1953 101.28C64.9236 101.28 64.4708 101.28 63.6558 101.28C62.388 101.28 61.3013 101.28 60.6674 101.28C60.4863 101.28 60.4863 101.19 60.4863 101.1L60.5769 95.88C60.5769 95.79 60.5769 95.7 60.6674 95.7L65.0142 93.18Z" fill="#0054A3"/>
<path d="M56.2294 96.51C55.5955 94.17 59.8517 90.84 59.8517 90.84C59.8517 90.84 61.8439 90.12 62.2062 87.78C62.5684 85.44 64.8323 84.72 65.8284 83.91C66.8246 83.1 67.549 81.03 67.549 81.03L67.6396 80.49C67.6396 80.49 69.3601 73.11 75.0652 75C75.0652 75 77.6914 75.99 78.778 77.97C78.778 77.97 82.5814 78.6 81.7664 81.57C81.042 84.54 79.2308 82.74 79.2308 82.74C79.2308 82.74 78.5064 81.21 77.6914 82.2C76.8763 83.28 74.9747 84 74.4313 82.92C73.7974 81.84 72.6202 81.21 72.3485 82.74V83.46C72.3485 83.46 69.4507 87.06 69.2696 88.23C68.9074 89.49 68.1829 91.29 66.734 92.01C65.3756 92.82 63.8362 95.97 63.1117 97.77C62.2062 99.66 56.9539 100.11 56.2294 96.51Z" fill="#1F1952"/>
<path d="M85.1171 96.69L92.5428 96.78L83.306 107.04L75.6992 106.68L85.1171 96.69Z" fill="#1C164F"/>
<path d="M85.5702 104.16C85.5702 104.16 86.2946 105.51 85.6607 105.96C84.9363 106.32 84.3024 106.5 83.9401 106.05C83.6685 105.69 83.3968 104.52 83.8496 104.7C84.2118 104.7 84.3929 104.79 84.3929 104.79V104.43C84.3929 104.34 84.3929 104.25 84.4835 104.25C84.8457 103.98 85.4796 103.71 85.5702 104.16Z" fill="#FBBE9B"/>
<path d="M72.4396 110.82L74.5224 110.73V168.78L69.904 168.96L67.459 130.89L72.4396 110.82Z" fill="#DE051F"/>
<path d="M62.2065 110.91C62.2065 110.91 62.116 112.89 62.0254 113.79C61.9349 114.33 59.1276 118.83 61.301 124.41C61.301 124.5 61.301 124.59 61.3915 124.77C61.3915 126.03 61.7538 133.59 60.2143 137.46L51.9736 164.28L55.1431 166.53C55.1431 166.53 66.0099 143.31 66.2816 142.23C66.5533 141.15 73.7072 118.38 72.7111 112.08L72.53 110.91H62.2065Z" fill="#EE384E"/>
<path d="M74.5227 168.78C74.5227 168.78 77.4205 170.31 78.6883 170.67C79.6844 170.85 79.8655 171.66 79.9561 171.93C79.9561 172.02 79.9561 172.11 79.8655 172.11H69.9043V168.87L74.5227 168.78Z" fill="#221D56"/>
<path d="M55.0526 166.26C55.0526 166.26 55.8676 168.6 57.6788 170.04C59.4899 171.39 57.6788 172.38 57.6788 172.38L50.2531 167.79C50.1626 167.61 49.7098 166.8 50.2531 166.08C50.7965 165.27 51.9737 164.01 51.9737 164.01L55.0526 166.26Z" fill="#221D56"/>
<path d="M182.376 116.31C182.376 116.31 184.187 142.59 184.549 147.18C184.821 151.77 185.908 167.52 185.908 167.52H190.526L193.696 116.13L182.376 116.31Z" fill="#0064E1"/>
<path d="M199.853 116.58C199.853 116.58 199.31 129.81 199.129 133.14C198.857 136.56 201.574 147.99 202.932 153.12C204.291 158.25 206.736 163.65 206.736 163.65L202.932 165.9C202.932 165.9 194.963 152.04 192.247 143.67C189.439 135.39 187.356 123.15 187.719 116.04L199.853 116.58Z" fill="#0054A3"/>
<path d="M165.261 97.5001H163.902C163.902 97.5001 162.997 97.5001 162.997 98.4901C162.997 99.4801 162.997 101.01 162.997 101.01C162.997 101.01 162.816 101.55 163.54 101.55C164.264 101.55 164.898 101.55 164.898 101.55C164.898 101.55 165.442 101.46 166.347 102.18C167.253 102.9 174.045 106.68 174.045 106.68C174.045 106.68 176.399 108.03 177.848 106.59C179.297 105.15 182.738 101.46 182.738 101.46L182.919 100.38L180.021 97.6801L176.49 102.27C176.49 102.27 176.218 102.63 175.494 102.45C174.769 102.27 168.068 99.9301 168.068 99.9301C168.068 99.9301 167.072 99.4801 166.8 98.6701C166.8 98.5801 166.8 98.5801 166.71 98.4901C166.619 97.8601 165.985 97.4101 165.261 97.5001Z" fill="#FFBF99"/>
<path d="M191.432 85.17C191.432 85.17 191.885 87.24 192.7 89.31C193.605 91.38 193.967 92.19 193.967 92.19C193.967 92.19 191.432 95.07 188.987 94.71C186.451 94.26 186.451 92.64 186.451 92.64C186.451 92.64 188.806 90.84 188.806 88.23C188.806 85.62 188.806 85.71 188.806 85.71L191.432 85.17Z" fill="#FFBF99"/>
<path d="M185.998 92.28C185.998 92.28 183.915 93.54 183.1 94.08C182.195 94.8 179.659 97.59 179.659 97.59L183.191 101.01L185.636 98.22L185.998 92.28Z" fill="#F59F1D"/>
<path d="M192.971 91.38C192.971 91.38 191.703 93.09 190.073 93.45C188.352 93.9 187.537 92.55 187.537 92.55L187.084 91.92C187.084 91.92 186.632 91.56 186.088 92.01C185.545 92.46 184.639 93.45 183.734 95.25C182.828 97.05 182.647 99.39 182.375 104.97C182.194 110.55 182.375 116.67 182.375 116.67H199.762L199.943 108.03C199.943 108.03 198.132 96.51 196.412 94.17C194.601 91.83 194.057 91.29 194.057 91.29C194.057 91.29 193.695 90.66 192.971 91.38Z" fill="#FCBE42"/>
<path d="M186.179 79.5001C186.179 79.5001 184.911 81.2101 184.911 84.0901C184.911 86.9701 185.364 89.0401 186.632 89.0401C187.99 89.0401 190.435 88.1401 190.797 87.3301C191.25 86.4301 192.065 86.4301 192.065 84.8101C192.065 83.1001 189.982 79.3201 188.262 79.3201C186.722 79.5001 186.179 79.5001 186.179 79.5001Z" fill="#FFBF99"/>
<path d="M185.002 79.5001C185.002 79.5001 183.735 76.0801 184.55 75.7201C185.274 75.2701 187.085 76.1701 187.447 76.6201C187.9 77.0701 188.715 77.0701 189.168 77.0701C189.168 77.0701 193.334 77.0701 194.149 77.9701C195.054 78.8701 195.054 79.2301 195.054 79.6801C195.054 80.1301 195.054 81.7501 195.507 82.5601C195.688 82.9201 195.96 84.6301 195.054 86.3401C194.149 88.0501 193.334 88.4101 192.971 88.4101C192.519 88.4101 192.247 88.4101 192.066 87.9601C192.066 87.5101 191.885 86.8801 191.613 86.2501C191.432 85.7101 191.16 84.5401 191.16 84.5401C191.16 84.5401 190.707 82.4701 189.892 81.6601C189.168 80.7601 188.987 80.7601 187.357 80.4001C185.817 79.9501 185.455 80.7601 185.002 79.5001Z" fill="#1A1155"/>
<path d="M190.707 82.6501C190.073 83.3701 190.888 84.6301 190.888 84.6301C190.888 84.6301 192.156 85.0801 192.156 83.7301C192.066 82.4701 191.341 81.7501 190.707 82.6501Z" fill="#EEBD98"/>
<path d="M199.129 100.29C199.129 100.29 200.577 106.23 200.487 110.1C200.215 113.88 199.129 117.12 198.314 119.46C197.408 121.62 196.955 122.34 196.955 123.69C196.955 125.13 196.231 126.84 195.506 127.56C194.601 128.46 194.057 128.91 194.057 128.91C194.057 128.91 192.971 129.36 193.152 128.46C193.152 128.46 192.427 128.46 192.699 128.01C192.699 128.01 191.793 128.01 192.427 127.29C193.152 126.57 194.238 125.94 194.238 125.94C194.238 125.94 194.963 124.86 193.967 125.4C192.971 125.94 192.156 125.94 192.971 125.04C193.876 124.14 194.782 122.61 195.778 119.82C196.502 116.94 197.499 111.45 196.412 107.04C195.325 102.81 193.967 101.37 193.967 101.37L199.129 100.29Z" fill="#FFBF99"/>
<path d="M202.751 165.72C202.751 165.72 201.845 168.06 201.03 169.23C200.124 170.31 199.309 171.03 199.309 171.03C199.309 171.03 198.223 172.74 199.491 172.29C200.758 171.75 207.46 167.34 207.46 167.34C207.46 167.34 208.456 166.8 208.003 165.99C207.55 165.27 206.554 163.56 206.554 163.56L202.751 165.72Z" fill="#1A1155"/>
<path d="M190.344 170.58C190.344 170.58 190.616 171.3 189.077 171.3C187.718 171.3 179.93 171.3 179.93 171.3C179.93 171.3 178.482 170.94 179.84 170.31C181.198 169.59 185.454 167.79 185.454 167.79C185.454 167.79 185.817 167.7 185.817 166.89H190.435L190.344 170.58Z" fill="#1A1155"/>
<path d="M192.518 96.24C192.518 96.24 192.156 93.36 194.239 93.09C196.322 92.82 197.68 95.52 198.404 97.23C199.129 99.03 199.491 100.38 199.491 100.38C199.491 100.38 195.054 102.18 193.877 102.18C193.786 102.18 192.79 99.3 192.518 96.24Z" fill="#F59F1D"/>
</svg>
