<svg width="270" height="186" viewBox="0 0 270 186" fill="none" xmlns="http://www.w3.org/2000/svg">
<g clip-path="url(#clip0_1409_4158)">
<g clip-path="url(#clip1_1409_4158)">
<path d="M31.0043 57.3931L3.26953 69.1006L19.3054 107.089L47.0402 95.382L31.0043 57.3931Z" fill="white"/>
<path d="M47.0959 95.332C46.9899 95.014 46.7779 94.908 46.6719 94.696C46.3539 94.166 46.1419 93.53 45.7179 92.576C44.8699 90.668 43.8099 88.018 42.4319 84.732C39.6759 78.054 35.5419 68.514 30.7719 57.384H30.8779C22.5039 60.988 13.0699 64.91 3.21191 69.044L3.31791 68.726C9.25391 82.93 14.8719 96.074 19.3239 106.674H19.2179C27.5919 103.176 34.5879 100.314 39.3579 98.194C41.7959 97.134 43.5979 96.286 44.9759 95.756C45.6119 95.438 46.0359 95.226 46.4599 95.12C46.9899 95.438 47.0959 95.332 47.0959 95.332C47.0959 95.332 46.9899 95.332 46.5659 95.65C46.2479 95.756 45.7179 96.074 45.0819 96.286C43.7039 96.816 41.9019 97.664 39.4639 98.724C34.6939 100.844 27.6979 103.812 19.3239 107.31H19.2179V107.204C14.6599 96.604 9.14791 83.46 3.21191 69.256V69.15H3.31791C13.2819 64.91 22.7159 60.882 30.9839 57.49H31.0899V57.596C35.8599 68.832 39.8879 78.372 42.6439 85.05C44.0219 88.336 45.1879 90.986 45.8239 92.894C46.2479 93.848 46.4599 94.484 46.6719 95.014C46.8839 95.12 46.8839 95.332 47.0959 95.332Z" fill="#E0E0E0"/>
<path d="M23.5636 69.5739C23.5636 69.5739 20.5956 71.0579 16.8856 72.5419C13.1756 74.1319 10.1016 75.2979 10.1016 75.1919C10.1016 75.1919 13.0696 73.7079 16.7796 72.2239C20.4896 70.6339 23.5636 69.4679 23.5636 69.5739Z" fill="#E0E0E0"/>
<path d="M32.1496 69.68C32.1496 69.68 27.4856 71.8 21.7616 74.238C16.0376 76.676 11.3736 78.584 11.2676 78.478C11.2676 78.478 15.9316 76.358 21.6556 73.92C27.4856 71.588 32.1496 69.68 32.1496 69.68Z" fill="#E0E0E0"/>
<path d="M33.7404 73.178C33.7404 73.178 29.0764 75.298 23.3524 77.736C17.6284 80.174 12.9644 82.082 12.8584 81.976C12.8584 81.976 17.5224 79.856 23.2464 77.418C28.9704 74.98 33.6344 73.178 33.7404 73.178Z" fill="#E0E0E0"/>
<path d="M35.0119 76.5699C35.0119 76.5699 30.3479 78.6899 24.6239 81.1279C18.8999 83.5659 14.2359 85.4739 14.1299 85.3679C14.1299 85.3679 18.7939 83.2479 24.5179 80.8099C30.4539 78.4779 35.0119 76.5699 35.0119 76.5699Z" fill="#E0E0E0"/>
<path d="M36.4963 80.068C36.4963 80.068 31.8323 82.188 26.1083 84.626C20.3843 87.064 15.7203 88.972 15.6143 88.866C15.6143 88.866 20.2783 86.746 26.0023 84.308C31.8323 81.87 36.4963 80.068 36.4963 80.068Z" fill="#E0E0E0"/>
<path d="M37.9797 83.46C37.9797 83.46 33.3157 85.58 27.5917 88.018C21.8677 90.456 17.2037 92.364 17.0977 92.258C17.0977 92.258 21.7617 90.138 27.4857 87.7C33.3157 85.368 37.9797 83.46 37.9797 83.46Z" fill="#E0E0E0"/>
<path d="M39.464 86.9579C39.464 86.9579 34.8 89.0779 29.076 91.5159C23.352 93.9539 18.688 95.8619 18.582 95.7559C18.582 95.7559 23.246 93.6359 28.97 91.1979C34.8 88.7599 39.464 86.9579 39.464 86.9579Z" fill="#E0E0E0"/>
<path d="M31.3014 94.484C31.3014 94.484 28.8634 95.65 25.6834 97.028C22.6094 98.406 20.0654 99.254 20.0654 99.254C20.0654 99.254 22.5034 98.088 25.6834 96.71C28.6514 95.438 31.3014 94.378 31.3014 94.484Z" fill="#E0E0E0"/>
<path d="M103.156 32.6346L96.0859 62.1138L132.987 70.9633L140.056 41.484L103.156 32.6346Z" fill="#F5F5F5"/>
<path d="M103.912 34.992L97.7324 60.7606L132.056 68.9921L138.236 43.2235L103.912 34.992Z" fill="#EBEBEB"/>
<path d="M97.8691 60.67L113.663 47.42L118.645 59.292L125.005 55.158L132.001 68.938L97.8691 60.67Z" fill="#E0E0E0"/>
<path d="M124.581 47.95C124.157 49.434 122.673 50.388 121.295 50.07C119.811 49.646 118.857 48.162 119.175 46.784C119.599 45.3 121.083 44.346 122.461 44.664C124.051 45.088 125.005 46.572 124.581 47.95Z" fill="#E0E0E0"/>
<path d="M210.654 59.822C212.562 55.582 211.29 51.236 208.428 47.632C205.46 44.134 200.478 42.438 195.92 43.604C195.072 39.046 191.892 35.124 187.97 33.216C183.836 31.308 178.854 31.626 174.932 34.064C171.116 36.502 168.572 40.848 168.254 45.3C165.18 45.83 162.424 47.844 160.834 50.494C159.244 53.144 159.138 56.642 160.304 59.504L210.654 59.822Z" fill="#EBEBEB"/>
<path d="M56.9533 46.784C57.3773 47.95 56.6353 49.222 55.4693 49.54C54.3033 49.964 53.0313 49.222 52.7133 48.056C52.2893 46.89 53.0313 45.618 54.1973 45.3C55.3633 45.088 56.5293 45.618 56.9533 46.784Z" fill="#E0E0E0"/>
<path d="M61.936 47.42C63.1653 47.42 64.162 46.4234 64.162 45.194C64.162 43.9646 63.1653 42.968 61.936 42.968C60.7066 42.968 59.71 43.9646 59.71 45.194C59.71 46.4234 60.7066 47.42 61.936 47.42Z" fill="#E0E0E0"/>
<path d="M64.1617 44.558C64.1617 44.24 64.0557 44.134 63.8437 43.922C63.7377 43.498 63.4197 42.862 62.9957 42.226C62.6777 41.378 62.1477 40.636 61.6177 39.682C61.0877 38.728 60.4517 37.668 59.7097 36.502H59.8157C58.6497 37.138 57.1657 37.88 55.6817 38.198C54.3037 38.622 53.1377 38.834 51.9717 39.046V38.94C53.1377 39.788 54.0917 40.53 54.9397 41.59C55.5757 42.544 55.9997 43.498 56.3177 44.24C56.6357 45.088 56.7417 45.724 56.7417 46.254C56.7417 46.572 56.7417 46.678 56.7417 46.784C56.7417 46.89 56.7417 46.89 56.7417 46.89C56.7417 46.89 56.7417 46.572 56.6357 46.254C56.6357 45.724 56.5297 45.194 56.2117 44.346C55.8937 43.498 55.5757 42.65 54.8337 41.696C54.1977 40.742 53.2437 39.788 52.0777 39.152L51.9717 38.94H52.2897C53.4557 38.834 54.7277 38.41 55.9997 38.092C57.4837 37.562 58.9677 37.032 60.0277 36.396H60.1337C60.7697 37.456 61.5117 38.516 62.0417 39.576C62.5717 40.53 62.9957 41.484 63.4197 42.12C63.7377 42.968 63.9497 43.498 64.0557 43.816C63.9497 44.134 64.0557 44.24 64.1617 44.558Z" fill="#E0E0E0"/>
<path d="M61.7235 39.364C61.7235 39.364 60.2395 39.894 58.4375 40.53C56.5295 41.06 54.9395 41.59 54.9395 41.484C54.9395 41.378 56.4235 40.954 58.2255 40.318C60.2395 39.788 61.7235 39.364 61.7235 39.364Z" fill="#E0E0E0"/>
<path d="M260.474 79.962C263.23 73.284 261.534 66.606 256.976 61.094C252.312 55.688 244.468 53.144 237.578 54.84C236.412 47.95 231.43 41.802 225.07 38.94C218.71 35.972 210.866 36.502 204.93 40.318C198.994 44.134 194.966 50.706 194.542 57.702C189.772 58.55 185.532 61.518 183.094 65.652C180.656 69.786 180.444 75.192 182.14 79.538L260.474 79.962Z" fill="#EE384E"/>
<path d="M227.826 63.108C227.72 63.108 227.826 61.73 226.978 59.928C226.554 58.974 225.917 57.914 224.963 56.96C224.009 56.006 222.844 55.264 221.36 54.84C219.876 54.416 218.392 54.31 217.12 54.522C215.742 54.84 214.682 55.37 213.94 55.9C212.244 56.96 211.502 58.126 211.396 58.02C211.396 58.02 211.502 57.702 211.82 57.172C212.138 56.642 212.774 56.112 213.516 55.476C214.364 54.84 215.529 54.31 217.013 53.886C218.391 53.568 219.981 53.568 221.571 54.204C223.161 54.734 224.54 55.582 225.388 56.642C226.342 57.702 226.977 58.762 227.401 59.822C227.825 60.882 227.825 61.73 227.931 62.26C227.825 62.79 227.826 63.108 227.826 63.108Z" fill="white"/>
<path d="M223.586 60.034C223.692 59.928 225.706 61.2 227.932 63.002C227.932 63.002 228.038 63.002 228.038 63.108L227.508 63.214C228.462 60.564 229.416 58.444 229.522 58.444C229.628 58.444 229.098 60.67 228.144 63.32L228.038 63.85L227.614 63.532C227.614 63.532 227.508 63.532 227.508 63.426C225.176 61.73 223.48 60.14 223.586 60.034Z" fill="white"/>
<path d="M210.972 61.624C211.078 61.624 210.866 63.002 211.396 64.804C211.714 65.758 212.244 66.818 212.88 67.878C213.728 68.938 214.788 69.892 216.06 70.528C216.378 70.634 216.696 70.846 217.12 70.952C217.438 71.058 217.756 71.27 218.18 71.27C218.816 71.376 219.558 71.588 220.194 71.588C221.572 71.588 222.632 71.27 223.48 70.952C224.434 70.528 225.07 70.104 225.494 69.892C226.024 69.574 226.13 69.362 226.342 69.362C226.342 69.362 226.236 69.68 225.812 69.998C225.388 70.422 224.752 70.952 223.798 71.376C222.844 71.906 221.678 72.224 220.3 72.224C219.664 72.224 218.816 72.224 218.18 72.118C217.756 72.118 217.332 71.8 217.12 71.8C216.696 71.694 216.272 71.482 216.06 71.27C214.576 70.634 213.41 69.574 212.562 68.302C211.714 67.242 211.184 66.076 211.078 65.016C210.972 64.486 210.972 64.062 210.972 63.638C210.972 63.214 210.972 62.79 210.972 62.578C210.866 62.048 210.866 61.624 210.972 61.624Z" fill="white"/>
<path d="M214.894 65.334C214.788 65.44 212.88 63.956 210.866 61.836C210.866 61.836 210.866 61.836 210.76 61.73L211.29 61.624C209.912 64.168 208.852 66.182 208.64 66.182C208.534 66.076 209.276 64.062 210.654 61.412L210.972 60.988L211.396 61.412C211.396 61.412 211.396 61.412 211.502 61.518C213.41 63.532 215 65.228 214.894 65.334Z" fill="white"/>
<path d="M215.212 91.304C215.212 91.304 220.936 89.2899 221.572 94.5899C221.572 94.5899 223.056 98.406 224.54 99.148C226.024 99.784 229.628 101.162 228.78 106.144C227.826 111.232 226.554 110.808 227.084 113.67C227.614 116.638 226.236 116.85 224.116 116.956C222.102 116.956 221.466 115.048 221.466 115.048L221.996 108.582L220.618 98.194L216.378 96.498C216.378 96.498 214.152 93.7419 213.94 92.6819C213.834 91.7279 215.212 91.304 215.212 91.304Z" fill="#1A1155"/>
<path d="M215.955 89.8199C215.955 89.8199 216.909 90.7739 216.591 90.8799C216.273 90.9859 213.941 92.3639 213.941 92.3639C213.941 92.3639 213.305 90.9859 213.305 90.4559C213.411 90.2439 215.955 89.8199 215.955 89.8199Z" fill="#D05152"/>
<path d="M201.115 82.93C201.009 82.93 200.797 83.036 200.797 83.248C200.797 84.414 201.115 90.456 203.447 92.682C203.447 92.682 204.613 94.272 207.051 93.636C207.051 93.636 209.171 92.258 208.959 95.014C208.641 97.664 209.807 100.208 210.549 100.632C211.397 101.056 214.895 100.102 215.743 98.618C216.273 97.664 216.591 97.134 216.697 96.922C216.697 96.816 216.697 96.604 216.697 96.604C216.167 96.074 214.471 93.848 213.517 90.774C212.563 87.17 213.093 83.884 209.807 83.036C206.945 82.188 202.175 82.718 201.115 82.93Z" fill="#EEBD98"/>
<path d="M198.041 82.718C198.041 82.188 198.041 81.87 198.041 81.552C198.147 80.492 198.571 79.326 199.419 78.584C200.055 78.054 200.903 77.736 201.645 77.736C201.751 77.736 202.069 77.736 202.175 77.418C202.705 76.782 204.613 74.98 207.051 74.98C210.125 74.98 215.319 76.57 216.591 81.764C216.697 82.188 218.711 90.244 214.683 90.562C210.655 90.88 208.959 88.866 209.065 86.958C209.065 86.958 211.079 83.354 207.687 84.308C207.687 84.308 204.189 84.944 201.857 83.46C201.539 83.354 201.221 83.46 201.009 83.778C200.479 84.626 199.525 85.898 198.571 84.838C198.253 84.414 197.935 83.99 197.723 83.46C197.935 83.248 198.041 82.93 198.041 82.718Z" fill="#1A1155"/>
<path d="M216.59 96.498C216.59 96.498 214.576 99.678 211.82 99.678C209.064 99.678 208.852 96.71 208.852 96.71C208.852 96.71 203.128 101.904 203.128 105.296C203.128 108.688 204.294 108.264 204.718 109.324C205.142 110.384 202.81 122.574 202.81 122.574L202.492 123.21L218.71 125.33C218.71 125.33 219.346 122.68 219.77 121.832C220.194 120.984 222.42 99.784 222.42 99.784L221.36 98.724C221.254 98.724 219.346 96.604 216.59 96.498Z" fill="#DE051F"/>
<path d="M223.692 109.218C223.692 109.218 225.282 98.724 221.254 98.194C217.226 97.664 217.226 100.95 217.014 105.932C216.908 110.808 217.014 111.868 217.014 111.868L223.374 112.928L223.692 109.218Z" fill="#EE384E"/>
<path d="M217.226 111.868C217.12 111.868 216.908 111.868 216.908 111.974L216.59 116.002C216.59 116.638 216.484 117.168 215.954 116.956C215.636 116.85 215.318 116.638 214.788 116.426C212.88 115.366 207.474 112.716 205.778 111.868C205.46 111.762 205.248 111.444 205.142 111.02C205.036 110.49 204.506 109.642 203.552 109.43C201.962 109.006 199.312 109.006 199.206 109.112C199.206 109.43 198.782 110.702 198.888 111.126C198.994 111.55 200.372 111.126 200.372 111.126C200.372 111.126 202.81 110.702 202.068 111.55C201.644 112.08 201.114 112.08 200.69 112.08C200.584 112.08 200.372 112.398 200.584 112.398C200.902 112.716 201.538 112.928 202.598 113.246C204.506 113.564 217.438 122.044 217.438 122.044C217.438 122.044 219.982 124.058 221.466 118.864C222.526 114.836 223.056 113.564 223.374 113.034C223.374 112.928 223.374 112.716 223.268 112.716L217.226 111.868Z" fill="#EEBD98"/>
<path d="M195.814 117.38L203.234 120.56L203.976 115.79L200.902 115.684L195.814 117.38Z" fill="#EEBD98"/>
<path d="M190.726 102.752L179.066 102.01L191.15 117.274L202.386 117.698L190.726 102.752Z" fill="#1A1155"/>
<path d="M190.62 116.214C190.62 116.214 191.044 113.458 190.09 113.034C189.136 112.61 188.5 113.564 188.606 114.094C188.606 114.624 190.514 116.532 190.514 116.532L190.62 116.214Z" fill="#EEBD98"/>
<path d="M202.493 122.998L179.703 131.796C179.703 131.796 176.735 132.326 176.099 140.064C175.463 147.802 174.721 173.242 174.721 173.242V174.09L180.445 174.196L183.413 147.166L196.981 130.842L207.899 123.952L202.493 122.998Z" fill="#0054A3"/>
<path d="M218.71 124.8L207.58 123.74L184.26 135.4C184.26 135.4 177.9 139.11 182.034 145.894C186.062 152.678 197.404 173.03 197.404 173.03L201.22 170.062L191.256 142.502C191.256 142.502 190.938 141.018 194.33 140.912C197.404 140.594 212.138 139.322 213.94 139.004C214.046 139.004 214.258 139.004 214.47 138.898C215.636 138.474 220.088 136.248 218.71 128.404L218.604 125.118L218.71 124.8Z" fill="#0064E1"/>
<path d="M174.932 173.772L170.056 176.422C169.738 176.528 169.526 176.74 169.208 176.74C168.678 176.846 167.724 177.058 167.724 177.8C167.724 177.8 167.618 178.754 169.95 178.436C172.282 178.118 179.914 178.33 179.914 178.33C179.914 178.33 180.868 178.012 180.762 175.892L180.656 173.772H174.932Z" fill="#170C51"/>
<path d="M197.511 172.924C197.511 172.924 197.511 174.302 196.133 175.998C195.497 177.058 194.649 177.906 193.907 178.966C193.589 179.284 193.483 179.39 193.377 179.814C193.377 180.132 193.271 180.238 193.271 180.45C193.271 180.768 193.271 180.874 193.589 180.98C193.907 181.298 194.225 181.086 194.543 180.98C194.649 180.98 194.649 180.98 194.861 180.874C196.875 180.238 202.599 175.468 203.871 174.514C203.977 174.408 204.189 174.196 204.189 173.984C204.189 173.56 204.189 172.818 203.659 172.076C202.811 171.122 201.751 170.168 201.751 170.168L197.511 172.924Z" fill="#170C51"/>
<path d="M251.994 178.648C251.994 178.648 201.114 178.754 138.574 178.754C76.0343 178.754 25.1543 178.754 25.1543 178.648C25.1543 178.648 76.0343 178.542 138.574 178.542C201.22 178.648 251.994 178.648 251.994 178.648Z" fill="#263238"/>
<path d="M163.166 62.578H31.7258C29.4998 62.578 27.5918 64.486 27.5918 66.712V159.462C27.5918 161.688 29.4998 163.596 31.7258 163.596H82.1818C82.1818 163.596 85.3618 173.56 75.3978 178.754H122.568C122.568 178.754 111.332 174.938 114.194 163.596H163.272C165.498 163.596 167.406 161.688 167.406 159.462V66.712C167.3 64.38 165.392 62.578 163.166 62.578Z" fill="#0064B7"/>
<path d="M99.1421 153.844C101.05 156.388 98.0821 159.144 95.5381 157.448C95.4321 157.448 95.4321 157.342 95.2201 157.13C93.3121 154.586 96.2801 151.83 98.8241 153.526C99.0361 153.738 99.1421 153.738 99.1421 153.844Z" fill="#E8F7FF"/>
<path d="M165.074 146.636H30.0303V69.468C30.0303 66.5 32.2563 64.274 35.2243 64.274H160.092C163.06 64.274 165.286 66.5 165.286 69.468L165.074 146.636Z" fill="white"/>
<path d="M118.055 95.6102L113.674 118.946L148.156 125.419L152.537 102.084L118.055 95.6102Z" fill="#5FA6FB"/>
<path d="M152.566 102.222C152.566 102.222 152.46 102.328 152.142 102.54C151.824 102.752 151.506 102.964 151.082 103.176C150.022 103.706 148.644 104.554 146.948 105.614C143.344 107.628 138.468 110.384 133.168 113.458H133.062L132.956 113.352C132.956 113.352 132.85 113.246 132.638 113.034C128.504 108.264 124.9 104.024 122.144 100.844C120.766 99.254 119.706 98.088 118.964 97.134C118.54 96.71 118.328 96.286 118.116 96.074C117.798 95.756 117.798 95.65 117.798 95.65C117.798 95.65 117.904 95.756 118.116 95.968C118.434 96.286 118.646 96.498 119.07 97.028C119.918 97.982 120.978 99.148 122.25 100.738C124.9 103.918 128.61 108.158 132.744 112.928C132.744 113.034 132.85 113.034 133.062 113.246H132.744C138.15 110.172 143.132 107.522 146.524 105.508C148.22 104.554 149.704 103.812 150.764 103.282C151.294 102.964 151.612 102.752 151.93 102.646C152.248 102.54 152.566 102.222 152.566 102.222Z" fill="#263238"/>
<path d="M113.664 118.97C113.664 118.97 116.844 116.214 120.872 112.822C124.9 109.536 128.186 106.992 128.292 106.992C128.292 106.992 125.112 109.748 121.084 113.14C117.056 116.532 113.77 118.97 113.664 118.97Z" fill="#263238"/>
<path d="M139.74 108.9C139.74 108.9 141.86 112.504 144.086 117.168C146.524 121.726 148.326 125.436 148.22 125.542C148.22 125.542 146.1 121.938 143.874 117.274C141.436 112.822 139.634 109.112 139.74 108.9Z" fill="#263238"/>
<path d="M74.1255 130.312C74.1255 129.994 74.1255 129.888 74.1255 129.782C74.1255 129.676 74.1255 129.464 74.1255 129.464C74.1255 129.464 74.1255 129.146 74.1255 129.04C74.1255 128.722 74.0195 128.51 74.0195 128.192C73.9135 127.556 73.4895 126.708 73.0655 125.966C72.5355 125.118 71.8995 124.376 70.9455 123.528C69.9915 122.892 68.8255 122.15 67.3415 121.938C65.9635 121.62 64.3735 121.62 62.9955 122.362C62.5715 122.468 62.1475 122.68 61.9355 122.892C61.5115 123.21 61.2995 123.316 60.8755 123.528C60.5575 123.846 60.2395 124.058 59.9215 124.376C59.6035 124.694 59.3915 125.012 59.0735 125.33C58.5435 125.966 58.1195 126.814 57.9075 127.768C57.6955 128.722 57.4835 129.464 57.4835 130.418C57.4835 131.372 57.5895 132.326 57.9075 133.068C58.2255 133.916 58.5435 134.658 59.0735 135.506C59.3915 135.93 59.6035 136.142 59.9215 136.46C60.2395 136.778 60.5575 136.99 60.8755 137.308C61.1935 137.626 61.5115 137.838 61.9355 137.944C62.3595 138.05 62.7835 138.368 62.9955 138.474C64.4795 139.004 66.0695 139.004 67.3415 138.898C68.7195 138.58 69.9915 138.05 70.9455 137.308C71.8995 136.46 72.5355 135.718 73.0655 134.87C73.5955 134.022 73.9135 133.28 74.0195 132.644C74.1255 132.326 74.1255 132.008 74.1255 131.796C74.1255 131.584 74.1255 131.478 74.1255 131.372C74.1255 131.266 74.1255 131.054 74.1255 131.054C74.1255 130.524 74.1255 130.418 74.1255 130.312C74.1255 130.63 74.1255 130.736 74.1255 130.842C74.1255 130.948 74.1255 131.16 74.1255 131.16C74.1255 131.266 74.1255 131.478 74.1255 131.584C74.1255 131.902 74.1255 132.114 74.0195 132.538C73.9135 133.174 73.5955 134.022 73.0655 134.764C72.5355 135.612 71.8995 136.46 70.9455 137.202C69.9915 138.05 68.8255 138.58 67.3415 138.792C65.9635 139.11 64.3735 139.11 62.7835 138.368C62.3595 138.262 61.9355 138.05 61.7235 137.838C61.2995 137.52 60.8755 137.414 60.6635 137.202C60.2395 136.884 60.0275 136.672 59.7095 136.354C59.3915 136.036 59.1795 135.718 58.8615 135.294C58.3315 134.658 57.9075 133.81 57.6955 132.856C57.3775 132.008 57.2715 130.948 57.2715 130.206C57.2715 129.252 57.3775 128.298 57.6955 127.556C58.0135 126.708 58.5435 125.966 58.8615 125.118C59.1795 124.694 59.3915 124.482 59.7095 124.058C60.0275 123.74 60.3455 123.528 60.6635 123.21C60.9815 122.892 61.2995 122.68 61.7235 122.574C62.1475 122.468 62.5715 122.15 62.7835 122.044C64.3735 121.514 65.9635 121.514 67.3415 121.62C68.8255 121.938 69.9915 122.574 70.9455 123.21C71.8995 123.846 72.6415 124.8 73.0655 125.648C73.4895 126.496 73.9135 127.238 74.0195 127.874C74.1255 128.192 74.1255 128.51 74.1255 128.828C74.1255 128.934 74.1255 129.146 74.1255 129.252C74.1255 129.358 74.1255 129.57 74.1255 129.57C74.1255 129.994 74.1255 130.206 74.1255 130.312Z" fill="#263238"/>
<path d="M63.8433 130.312C63.8433 130.312 63.8433 130.312 63.8433 130.63C63.8433 130.736 63.8433 131.054 63.8433 131.266C63.8433 131.796 63.8433 132.644 63.8433 133.704H63.7373C65.3273 132.856 67.2353 131.796 69.4613 130.63C69.4613 130.63 69.4613 130.948 69.4613 130.736H69.3553L69.0373 130.63C68.9313 130.524 68.7193 130.524 68.6133 130.312C68.2953 130.206 68.0833 129.994 67.7653 129.782C67.2353 129.464 66.8113 129.146 66.2813 128.828C65.3273 128.298 64.5853 127.768 63.7373 127.238H63.8433C63.8433 128.192 63.7373 128.934 63.7373 129.676C63.8433 129.888 63.8433 130.206 63.8433 130.312C63.8433 130.312 63.8433 130.312 63.8433 129.994C63.8433 129.676 63.8433 129.57 63.8433 129.358C63.8433 128.828 63.8433 127.98 63.8433 126.92V126.814H63.9493C64.7973 127.238 65.5393 127.768 66.4933 128.404C67.0233 128.722 67.4473 128.934 67.9773 129.358C68.2953 129.464 68.5073 129.676 68.8253 129.888C68.9313 129.994 69.1433 129.994 69.2493 130.206L69.5673 130.312H69.6733C69.6733 130.206 69.6733 130.63 69.6733 130.418C67.5533 131.584 65.4333 132.538 63.9493 133.386H63.8433V133.28C63.8433 132.326 63.9493 131.584 63.9493 130.842C63.8433 130.524 63.8433 130.312 63.8433 130.312Z" fill="#263238"/>
<path d="M82.5237 73.718L38.916 88.0336L50.3553 122.879L93.9629 108.564L82.5237 73.718Z" fill="#F5F5F5"/>
<path d="M82.606 73.708C82.606 73.708 82.606 73.708 82.288 73.708C82.182 73.708 81.97 73.814 81.758 74.026C81.228 74.132 80.38 74.45 79.32 74.874C77.2 75.51 74.232 76.57 70.416 77.842C62.678 80.386 51.866 83.99 39.04 88.23V88.124C42.538 98.512 46.354 110.384 50.488 122.998H50.382C66.6 117.698 81.546 112.822 93.948 108.688V108.794C90.45 98.3 87.694 89.608 85.68 83.46C84.62 80.386 83.984 78.054 83.454 76.464C83.136 75.616 82.924 74.98 82.924 74.556C82.606 73.92 82.606 73.708 82.606 73.708C82.606 73.708 82.606 74.026 82.924 74.344C83.242 74.768 83.348 75.404 83.56 76.252C84.09 77.842 84.938 80.28 85.998 83.248C88.012 89.396 90.874 98.088 94.372 108.582H94.16C81.652 112.716 66.706 117.592 50.594 122.892H50.488V122.68C46.354 110.066 42.538 98.3 39.04 87.806V87.7H39.146C52.184 83.46 62.996 79.856 70.734 77.312C74.55 76.146 77.624 75.086 79.638 74.344C80.698 74.026 81.546 73.814 82.076 73.496C82.394 73.39 82.606 73.39 82.606 73.178C82.5 73.708 82.606 73.708 82.606 73.708Z" fill="#263238"/>
<path d="M81.7231 76.3263L41.1367 89.6501L51.1543 120.165L91.7407 106.842L81.7231 76.3263Z" fill="#5FA6FB"/>
<path opacity="0.4" d="M51.2305 120.03L59.1805 96.498L71.9005 105.508L75.7165 97.24L91.6165 106.78L51.2305 120.03Z" fill="black"/>
<g opacity="0.4">
<path d="M70.8405 90.138C71.3705 91.834 70.4165 93.848 68.7205 94.378C67.0245 94.908 65.0105 93.954 64.4805 92.258C63.9505 90.562 64.9045 88.548 66.6005 88.018C68.4025 87.488 70.3105 88.442 70.8405 90.138Z" fill="black"/>
</g>
<path d="M79.3193 106.25L80.4853 127.98C80.4853 128.828 81.1213 129.358 81.9693 129.358L121.189 129.676C122.037 129.676 122.673 129.04 122.673 128.192L122.779 111.232C122.779 110.384 122.143 109.748 121.295 109.748H97.0213C96.5973 109.748 96.1733 109.642 95.9613 109.324L91.8273 105.19C91.5093 104.872 91.1913 104.766 90.7673 104.766H80.5913C79.9553 104.66 79.3193 105.508 79.3193 106.25Z" fill="#E8505B"/>
<g opacity="0.2">
<path d="M79.3193 106.25L80.4853 127.98C80.4853 128.828 81.1213 129.358 81.9693 129.358L121.189 129.676C122.037 129.676 122.673 129.04 122.673 128.192L122.779 111.232C122.779 110.384 122.143 109.748 121.295 109.748H97.0213C96.5973 109.748 96.1733 109.642 95.9613 109.324L91.8273 105.19C91.5093 104.872 91.1913 104.766 90.7673 104.766H80.5913C79.9553 104.66 79.3193 105.508 79.3193 106.25Z" fill="black"/>
</g>
<path d="M103.07 85.5834L76.6455 97.6395L93.1017 133.708L119.526 121.651L103.07 85.5834Z" fill="white"/>
<path d="M119.282 121.62C119.176 121.302 118.964 121.196 118.858 120.984C118.54 120.454 118.328 119.924 117.904 118.97C117.056 117.274 115.89 114.73 114.406 111.55C111.438 105.19 107.41 96.18 102.428 85.58H102.534C94.5837 89.184 85.5736 93.318 76.1396 97.664V97.346C82.2876 110.914 87.9056 123.316 92.5696 133.386H92.4637C100.414 129.782 107.092 126.708 111.65 124.588C113.876 123.528 115.784 122.68 116.95 122.15C117.586 121.832 118.01 121.62 118.434 121.514C119.176 121.832 119.282 121.62 119.282 121.62C119.282 121.62 119.176 121.62 118.752 121.938C118.434 122.044 117.904 122.362 117.374 122.574C116.208 123.104 114.3 123.952 112.074 125.012C107.41 127.132 100.944 130.206 92.8877 133.81H92.7816V133.704C88.1176 123.634 82.3936 111.126 76.3516 97.664V97.558H76.4577C85.9977 93.318 94.9016 89.184 102.852 85.474H102.958V85.58C107.834 96.286 111.968 105.296 114.936 111.656C116.42 114.836 117.48 117.38 118.222 119.076C118.646 119.924 118.858 120.56 119.176 121.09C119.282 121.302 119.282 121.408 119.282 121.62Z" fill="#263238"/>
<path d="M95.9617 97.558C95.9617 97.558 93.2057 99.042 89.6017 100.632C85.9977 102.222 83.2417 103.6 83.1357 103.388C83.1357 103.388 85.8917 101.904 89.4957 100.314C92.9937 98.724 95.8557 97.452 95.9617 97.558Z" fill="#263238"/>
<path d="M104.336 97.558C104.336 97.558 99.9897 99.678 94.4777 102.222C89.0717 104.766 84.5137 106.78 84.5137 106.568C84.5137 106.568 88.8597 104.448 94.3717 101.904C99.8837 99.36 104.336 97.452 104.336 97.558Z" fill="#263238"/>
<path d="M105.82 100.738C105.82 100.738 101.474 102.858 95.962 105.402C90.556 107.946 85.998 109.96 85.998 109.748C85.998 109.748 90.344 107.628 95.856 105.084C101.262 102.54 105.82 100.738 105.82 100.738Z" fill="#263238"/>
<path d="M107.303 104.024C107.303 104.024 102.957 106.144 97.4454 108.688C92.0394 111.232 87.4814 113.246 87.4814 113.034C87.4814 113.034 91.8274 110.914 97.3394 108.37C102.745 105.932 107.303 103.918 107.303 104.024Z" fill="#263238"/>
<path d="M108.893 107.31C108.893 107.31 104.547 109.43 99.0353 111.974C93.6293 114.518 89.0713 116.532 89.0713 116.32C89.0713 116.32 93.4173 114.2 98.9293 111.656C104.335 109.218 108.681 107.204 108.893 107.31Z" fill="#263238"/>
<path d="M110.271 110.49C110.271 110.49 105.925 112.61 100.413 115.154C95.0072 117.698 90.4492 119.712 90.4492 119.5C90.4492 119.5 94.7952 117.38 100.307 114.836C105.819 112.504 110.271 110.49 110.271 110.49Z" fill="#263238"/>
<path d="M111.756 113.882C111.756 113.882 107.41 116.002 101.898 118.546C96.4916 121.09 91.9336 123.104 91.9336 122.892C91.9336 122.892 96.2796 120.772 101.792 118.228C107.304 115.684 111.756 113.67 111.756 113.882Z" fill="#263238"/>
<path d="M104.123 121.302C104.123 121.302 101.685 122.468 98.8234 123.846C95.8554 125.224 93.5234 126.284 93.5234 126.072C93.5234 126.072 95.9614 124.906 98.8234 123.528C101.685 122.15 104.123 121.302 104.123 121.302Z" fill="#263238"/>
<path d="M113.02 82.8775L83.8037 90.1356L93.7452 130.153L122.961 122.895L113.02 82.8775Z" fill="white"/>
<path d="M122.886 122.892C122.886 122.892 122.886 122.892 122.886 122.574C122.886 122.468 122.78 122.256 122.78 122.044C122.674 121.514 122.462 120.878 122.25 119.924C121.72 118.016 121.084 115.26 120.13 111.656C118.434 104.66 115.89 94.696 112.922 82.93L113.028 83.036C104.23 85.156 94.372 87.7 83.984 90.35L84.09 90.244C87.8 105.19 91.298 118.97 94.054 130.312L93.948 130.206C102.852 128.086 110.166 126.178 115.148 125.012C117.692 124.376 119.706 123.952 121.084 123.528C121.72 123.422 122.25 123.21 122.674 123.104C122.78 122.998 122.886 122.892 122.886 122.892C122.886 122.892 122.78 122.892 122.356 122.998C121.932 123.104 121.508 123.316 120.766 123.422C119.388 123.846 117.48 124.27 114.936 124.906C109.848 126.284 102.428 128.086 93.736 130.206H93.63V130.1C90.874 118.864 87.376 105.084 83.666 90.032V89.82H83.772C94.266 87.17 104.23 84.732 112.922 82.506H113.028V82.612C115.996 94.59 118.328 104.448 120.236 111.55C121.084 115.048 121.826 117.91 122.25 119.818C122.568 120.772 122.674 121.408 122.78 121.938C122.78 122.256 122.886 122.362 122.886 122.468C122.886 122.892 122.886 122.892 122.886 122.892Z" fill="#263238"/>
<path d="M103.7 93.742C103.7 93.848 100.52 94.696 96.7041 95.65C92.6761 96.604 89.4961 97.346 89.4961 97.24C89.4961 97.24 92.6761 96.286 96.4921 95.332C100.52 94.378 103.7 93.742 103.7 93.742Z" fill="#263238"/>
<path d="M112.286 95.332C112.286 95.438 107.41 96.71 101.368 98.3C95.2198 99.784 90.3438 100.95 90.3438 100.95C90.3438 100.844 95.2197 99.572 101.262 97.982C107.304 96.392 112.18 95.12 112.286 95.332Z" fill="#263238"/>
<path d="M113.134 98.83C113.134 98.936 108.258 100.208 102.216 101.798C96.0684 103.282 91.1924 104.448 91.1924 104.448C91.1924 104.342 96.0684 103.07 102.11 101.48C108.152 100.102 113.134 98.83 113.134 98.83Z" fill="#263238"/>
<path d="M113.982 102.54C113.982 102.646 109.106 103.918 103.064 105.508C97.128 107.098 92.04 108.158 92.04 108.158C92.04 108.052 96.916 106.78 102.958 105.19C109.106 103.6 113.982 102.434 113.982 102.54Z" fill="#263238"/>
<path d="M114.936 106.144C114.936 106.25 110.06 107.522 104.018 109.112C97.8701 110.596 92.9941 111.762 92.9941 111.762C92.9941 111.656 97.8701 110.384 103.912 108.794C110.06 107.204 114.936 106.144 114.936 106.144Z" fill="#263238"/>
<path d="M115.89 109.854C115.89 109.96 111.014 111.232 104.972 112.822C98.8242 114.306 93.9482 115.472 93.9482 115.472C93.9482 115.366 98.8242 114.094 104.866 112.504C111.014 110.914 115.784 109.748 115.89 109.854Z" fill="#263238"/>
<path d="M116.844 113.458C116.844 113.564 111.968 114.836 105.926 116.426C99.7783 117.91 94.9023 119.076 94.9023 119.076C94.9023 118.97 99.7783 117.698 105.82 116.108C111.756 114.518 116.632 113.352 116.844 113.458Z" fill="#263238"/>
<path d="M107.516 119.5C107.516 119.606 104.866 120.348 101.686 121.09C98.506 121.938 95.856 122.468 95.75 122.468C95.75 122.362 98.4 121.62 101.58 120.878C104.866 120.03 107.516 119.5 107.516 119.5Z" fill="#263238"/>
<path d="M76.5635 109.218L79.6375 135.824C79.6375 136.354 80.1675 136.672 80.5915 136.672L122.355 136.99C122.885 136.99 123.309 136.566 123.309 136.142L125.535 109.536C125.535 109.006 125.111 108.476 124.581 108.476L77.5175 108.052C76.8815 108.158 76.5635 108.688 76.5635 109.218Z" fill="#DE051F"/>
<path d="M125.642 84.838C125.642 84.838 125.748 84.52 125.96 84.202C126.172 83.884 126.278 83.142 125.96 82.294C125.854 81.87 125.642 81.446 125.324 81.234C125.006 80.916 124.476 80.704 124.158 80.598C123.628 80.492 123.098 80.492 122.568 80.598C122.038 80.704 121.508 81.128 121.19 81.658C120.872 82.188 120.66 82.718 120.66 83.248C120.66 83.778 120.978 84.308 121.19 84.732C121.508 85.156 121.826 85.58 122.25 85.686C122.674 86.004 123.098 86.004 123.416 86.004C124.264 86.004 124.794 85.58 125.112 85.368C125.536 85.05 125.642 84.838 125.642 84.838C125.536 85.156 125.324 85.262 125.218 85.368C124.9 85.686 124.264 86.004 123.522 86.004C123.098 86.004 122.674 86.004 122.144 85.686C121.72 85.368 121.296 85.156 120.978 84.732C120.66 84.308 120.448 83.672 120.448 83.142C120.448 82.612 120.554 81.976 120.978 81.446C121.402 80.916 121.826 80.492 122.462 80.386C122.992 80.068 123.628 80.068 124.052 80.386C124.582 80.492 125.006 80.81 125.43 81.234C125.748 81.552 125.96 82.082 126.066 82.294C126.384 83.142 126.172 83.778 125.96 84.202C125.96 84.52 125.854 84.732 125.642 84.838Z" fill="#263238"/>
<path d="M133.381 90.244C133.381 90.244 133.487 89.926 133.699 89.608C133.805 89.184 134.017 88.548 133.699 87.7C133.593 87.276 133.381 86.852 133.063 86.64C132.745 86.322 132.215 86.11 131.897 86.004C131.367 85.898 130.837 85.898 130.307 86.004C129.777 86.11 129.247 86.534 128.929 87.064C128.611 87.594 128.399 88.124 128.399 88.654C128.399 89.184 128.717 89.714 128.929 90.138C129.247 90.562 129.565 90.986 129.989 91.092C130.413 91.41 130.837 91.41 131.155 91.41C132.003 91.41 132.533 90.986 132.851 90.774C133.275 90.35 133.381 90.244 133.381 90.244C133.275 90.562 133.063 90.668 132.957 90.774C132.639 91.092 132.003 91.41 131.261 91.41C130.837 91.41 130.413 91.41 129.883 91.092C129.459 90.774 129.035 90.562 128.717 90.138C128.399 89.714 128.187 89.078 128.187 88.548C128.187 88.018 128.293 87.382 128.717 86.852C129.141 86.322 129.565 85.898 130.201 85.792C130.731 85.474 131.367 85.474 131.791 85.792C132.321 85.898 132.745 86.216 133.169 86.64C133.487 86.958 133.699 87.488 133.805 87.7C134.123 88.548 133.911 89.184 133.699 89.608C133.593 89.82 133.487 90.138 133.381 90.244Z" fill="#263238"/>
<path d="M133.486 90.35C133.486 90.35 133.486 90.35 133.592 90.032C133.592 89.926 133.698 89.714 133.91 89.502C134.228 88.972 134.546 88.336 134.97 87.382C135.5 86.428 135.924 85.368 136.454 84.202C136.984 82.824 137.514 81.552 138.15 79.962V80.068C136.56 79.432 134.97 78.478 133.38 77.418C132.002 76.464 130.73 75.404 129.67 74.344L129.776 74.238C130.094 75.934 129.776 77.736 129.352 79.008C128.928 80.386 128.292 81.552 127.762 82.506C127.126 83.46 126.596 83.99 126.172 84.414C125.854 84.732 125.748 84.732 125.642 84.838C125.748 84.732 125.96 84.52 126.172 84.308C126.596 83.884 127.232 83.248 127.762 82.4C128.292 81.446 128.928 80.386 129.352 78.902C129.776 77.524 129.882 75.828 129.776 74.132V73.92L130.094 74.238C131.154 75.298 132.532 76.358 133.804 77.312C135.394 78.372 136.984 79.326 138.574 79.962H138.68V80.068C138.044 81.658 137.514 83.036 136.984 84.308C136.454 85.686 135.924 86.746 135.394 87.488C134.864 88.336 134.44 89.078 134.228 89.502C134.122 89.82 133.91 89.926 133.91 90.032C133.486 90.244 133.486 90.35 133.486 90.35Z" fill="#263238"/>
<path d="M136.772 83.99C136.772 83.99 135.076 82.93 133.062 81.552C131.048 80.174 129.458 79.008 129.458 78.902C129.458 78.902 131.154 79.962 133.168 81.34C135.182 82.718 136.772 83.884 136.772 83.99Z" fill="#263238"/>
<path d="M106.774 122.998C106.668 122.998 106.774 122.15 106.244 120.984C105.926 120.454 105.608 119.818 105.078 119.288C104.548 118.758 103.7 118.228 102.852 117.91C101.898 117.592 100.944 117.592 100.202 117.804C99.3536 117.91 98.7177 118.334 98.1877 118.652C97.1277 119.288 96.7037 120.03 96.5977 120.03C96.5977 120.03 96.5977 119.712 96.9157 119.5C97.2337 119.182 97.4457 118.864 97.9757 118.44C98.5057 118.016 99.1417 117.592 100.096 117.486C100.944 117.38 102.004 117.38 102.852 117.592C103.7 117.804 104.76 118.44 105.29 119.076C105.82 119.712 106.244 120.454 106.456 120.984C106.774 121.62 106.774 122.15 106.774 122.468C106.774 122.68 106.774 122.998 106.774 122.998Z" fill="white"/>
<path d="M104.124 120.984C104.124 120.878 105.502 121.62 106.774 122.892L106.456 122.998C106.986 121.408 107.516 120.03 107.622 120.03C107.728 120.03 107.304 121.408 106.774 123.104L106.668 123.422L106.35 123.316C105.184 122.044 104.124 121.09 104.124 120.984Z" fill="white"/>
<path d="M96.3863 122.044C96.4923 122.044 96.3863 122.892 96.7043 123.952C96.8103 124.482 97.1283 125.118 97.6583 125.86C98.1883 126.496 98.7183 127.026 99.5663 127.45C99.8843 127.556 99.9903 127.556 100.202 127.768C100.52 127.768 100.626 127.874 100.838 127.874C101.262 127.98 101.686 127.98 102.004 127.98C102.852 127.98 103.488 127.874 104.018 127.556C104.548 127.238 104.972 127.026 105.184 126.92C105.502 126.814 105.608 126.602 105.714 126.602C105.714 126.602 105.608 126.708 105.396 127.026C105.078 127.344 104.76 127.556 104.23 127.874C103.7 128.192 102.852 128.404 102.11 128.404C101.686 128.404 101.262 128.404 100.732 128.298C100.414 128.298 100.308 128.192 100.096 128.192C99.7783 128.086 99.5663 128.086 99.4603 127.874C98.6123 127.45 97.8703 126.814 97.3403 126.178C96.8103 125.542 96.4923 124.694 96.3863 124.164C96.3863 123.846 96.2803 123.634 96.2803 123.316C96.2803 122.998 96.2803 122.786 96.2803 122.68C96.3863 122.15 96.3863 122.044 96.3863 122.044Z" fill="white"/>
<path d="M98.8241 124.27C98.7181 124.376 97.6581 123.422 96.2801 122.15H96.7041C95.8561 123.74 95.2201 124.906 95.1141 124.8C95.0081 124.8 95.5381 123.422 96.2801 121.832L96.3861 121.514L96.7041 121.832C97.9761 123.104 98.9301 124.27 98.8241 124.27Z" fill="white"/>
<path d="M248.178 138.368H198.994V151.618H248.178V138.368Z" fill="#25409C"/>
<path d="M202.917 140.064H200.267V150.24H202.917V140.064Z" fill="#3864B2"/>
<path d="M205.99 142.184C205.99 142.714 205.566 143.032 205.142 143.032C204.612 143.032 204.294 142.608 204.294 142.184C204.294 141.654 204.718 141.336 205.142 141.336C205.672 141.336 205.99 141.654 205.99 142.184Z" fill="white"/>
<path d="M205.99 145.788C205.99 146.318 205.566 146.636 205.142 146.636C204.612 146.636 204.294 146.212 204.294 145.788C204.294 145.258 204.718 144.94 205.142 144.94C205.672 144.834 205.99 145.258 205.99 145.788Z" fill="white"/>
<path d="M211.926 141.336H209.276V149.18H211.926V141.336Z" fill="#3864B2"/>
<path d="M215.636 141.336H212.986V149.18H215.636V141.336Z" fill="#3864B2"/>
<path d="M219.346 141.336H216.696V149.18H219.346V141.336Z" fill="#3864B2"/>
<path d="M223.162 141.336H220.512V149.18H223.162V141.336Z" fill="#3864B2"/>
<path d="M226.872 141.336H224.222V149.18H226.872V141.336Z" fill="#3864B2"/>
<path d="M230.795 141.336H228.145V149.18H230.795V141.336Z" fill="#3864B2"/>
<path d="M234.504 141.336H231.854V149.18H234.504V141.336Z" fill="#3864B2"/>
<path d="M238.214 141.336H235.564V149.18H238.214V141.336Z" fill="#3864B2"/>
<path d="M242.03 141.336H239.38V149.18H242.03V141.336Z" fill="#3864B2"/>
<path d="M245.74 141.336H243.09V149.18H245.74V141.336Z" fill="#3864B2"/>
<path d="M256.764 138.368H247.966V151.618H256.764V138.368Z" fill="#3864B2"/>
<path d="M248.178 153.102H198.994V166.352H248.178V153.102Z" fill="#25409C"/>
<path d="M202.917 154.798H200.267V164.974H202.917V154.798Z" fill="#3864B2"/>
<path d="M205.99 156.918C205.99 157.448 205.566 157.766 205.142 157.766C204.612 157.766 204.294 157.342 204.294 156.918C204.294 156.388 204.718 156.07 205.142 156.07C205.672 156.176 205.99 156.494 205.99 156.918Z" fill="white"/>
<path d="M205.99 160.522C205.99 161.052 205.566 161.37 205.142 161.37C204.612 161.37 204.294 160.946 204.294 160.522C204.294 159.992 204.718 159.674 205.142 159.674C205.672 159.674 205.99 160.098 205.99 160.522Z" fill="white"/>
<path d="M211.926 156.176H209.276V164.02H211.926V156.176Z" fill="#3864B2"/>
<path d="M215.636 156.176H212.986V164.02H215.636V156.176Z" fill="#3864B2"/>
<path d="M219.346 156.176H216.696V164.02H219.346V156.176Z" fill="#3864B2"/>
<path d="M223.162 156.176H220.512V164.02H223.162V156.176Z" fill="#3864B2"/>
<path d="M226.872 156.176H224.222V164.02H226.872V156.176Z" fill="#3864B2"/>
<path d="M230.795 156.176H228.145V164.02H230.795V156.176Z" fill="#3864B2"/>
<path d="M234.504 156.176H231.854V164.02H234.504V156.176Z" fill="#3864B2"/>
<path d="M238.214 156.176H235.564V164.02H238.214V156.176Z" fill="#3864B2"/>
<path d="M242.03 156.176H239.38V164.02H242.03V156.176Z" fill="#3864B2"/>
<path d="M245.74 156.176H243.09V164.02H245.74V156.176Z" fill="#3864B2"/>
<path d="M256.764 153.102H247.966V166.352H256.764V153.102Z" fill="#3864B2"/>
<path d="M248.178 167.412H198.994V180.662H248.178V167.412Z" fill="#25409C"/>
<path d="M202.917 169.108H200.267V179.284H202.917V169.108Z" fill="#3864B2"/>
<path d="M205.99 171.228C205.99 171.758 205.566 172.076 205.142 172.076C204.612 172.076 204.294 171.652 204.294 171.228C204.294 170.698 204.718 170.38 205.142 170.38C205.672 170.486 205.99 170.804 205.99 171.228Z" fill="white"/>
<path d="M205.99 174.832C205.99 175.362 205.566 175.68 205.142 175.68C204.612 175.68 204.294 175.256 204.294 174.832C204.294 174.302 204.718 173.984 205.142 173.984C205.672 173.984 205.99 174.408 205.99 174.832Z" fill="white"/>
<path d="M211.926 170.486H209.276V178.33H211.926V170.486Z" fill="#3864B2"/>
<path d="M215.636 170.486H212.986V178.33H215.636V170.486Z" fill="#3864B2"/>
<path d="M219.346 170.486H216.696V178.33H219.346V170.486Z" fill="#3864B2"/>
<path d="M223.162 170.486H220.512V178.33H223.162V170.486Z" fill="#3864B2"/>
<path d="M226.872 170.486H224.222V178.33H226.872V170.486Z" fill="#3864B2"/>
<path d="M230.795 170.486H228.145V178.33H230.795V170.486Z" fill="#3864B2"/>
<path d="M234.504 170.486H231.854V178.33H234.504V170.486Z" fill="#3864B2"/>
<path d="M238.214 170.486H235.564V178.33H238.214V170.486Z" fill="#3864B2"/>
<path d="M242.03 170.486H239.38V178.33H242.03V170.486Z" fill="#3864B2"/>
<path d="M245.74 170.486H243.09V178.33H245.74V170.486Z" fill="#3864B2"/>
<path d="M256.764 167.412H247.966V180.662H256.764V167.412Z" fill="#3864B2"/>
<path d="M260.05 144.834H256.764V147.272H260.05V144.834Z" fill="#263238"/>
<path d="M216.484 82.294V79.75C216.484 79.432 216.59 79.326 216.908 79.326H219.346C219.664 79.326 219.77 79.432 219.77 79.75V82.294C219.77 83.142 219.134 83.884 218.18 83.884C217.226 83.778 216.484 83.248 216.484 82.294Z" fill="#263238"/>
<path d="M260.05 159.038H256.764V161.476H260.05V159.038Z" fill="#263238"/>
<path d="M260.05 172.606H256.764V175.044H260.05V172.606Z" fill="#263238"/>
<path d="M198.676 172.606H195.39V175.044H198.676V172.606Z" fill="#263238"/>
<path d="M267.894 152.784C267.894 152.784 267.894 152.89 267.894 153.314C267.894 153.42 267.894 153.632 267.894 153.844C267.894 154.162 267.894 154.374 267.788 154.692C267.682 155.01 267.682 155.222 267.47 155.54C267.47 155.646 267.364 155.858 267.364 156.07C267.364 156.176 267.258 156.388 267.046 156.6C266.728 157.236 266.198 157.978 265.668 158.508C265.138 159.038 264.29 159.568 263.76 159.886C263.654 159.886 263.442 159.992 263.23 160.204C263.124 160.204 262.912 160.31 262.7 160.31C262.382 160.416 262.17 160.416 261.852 160.628C261.534 160.628 261.322 160.734 261.004 160.734C260.686 160.734 260.58 160.734 260.474 160.734C260.156 160.734 259.944 160.734 259.944 160.734C259.944 160.734 260.58 160.734 261.64 160.416C261.958 160.416 262.17 160.31 262.488 160.098C262.594 160.098 262.806 159.992 263.018 159.992C263.124 159.992 263.336 159.886 263.548 159.674C264.184 159.356 264.926 158.826 265.456 158.296C265.986 157.766 266.516 157.13 266.834 156.388C266.834 156.282 266.94 156.07 267.152 155.858C267.364 155.646 267.258 155.54 267.258 155.328C267.364 155.01 267.576 154.798 267.576 154.48C267.682 153.526 267.682 152.784 267.894 152.784Z" fill="#263238"/>
<path d="M267.894 138.156C267.894 138.156 267.894 138.262 267.894 138.686C267.894 138.792 267.894 139.004 267.894 139.216C267.894 139.534 267.894 139.746 267.788 140.064C267.682 140.382 267.682 140.594 267.47 140.912C267.47 141.018 267.364 141.23 267.364 141.442C267.364 141.548 267.258 141.76 267.046 141.972C266.728 142.608 266.198 143.35 265.668 143.88C265.138 144.41 264.29 144.94 263.76 145.258C263.654 145.258 263.442 145.364 263.23 145.576C263.124 145.576 262.912 145.682 262.7 145.682C262.382 145.788 262.17 145.788 261.852 146C261.534 146 261.322 146.106 261.004 146.106C260.686 146.106 260.58 146.106 260.474 146.106C260.156 146.106 259.944 146.106 259.944 146.106C259.944 146.106 260.58 146.106 261.64 145.788C261.958 145.788 262.17 145.682 262.488 145.47C262.594 145.47 262.806 145.364 263.018 145.364C263.124 145.364 263.336 145.258 263.548 145.046C264.184 144.728 264.926 144.198 265.456 143.668C265.986 143.138 266.516 142.502 266.834 141.76C266.834 141.654 266.94 141.442 267.152 141.23C267.152 141.124 267.258 140.912 267.258 140.7C267.364 140.382 267.576 140.17 267.576 139.852C267.682 138.792 267.682 138.156 267.894 138.156Z" fill="#263238"/>
<path d="M196.98 173.772C196.662 173.772 196.556 173.772 196.344 173.772C195.814 173.772 195.284 173.772 194.33 173.772C192.634 173.772 190.09 173.772 186.91 173.772C180.656 173.772 172.07 173.772 162.636 173.772C160.198 173.772 157.972 173.772 155.746 173.772C154.686 173.772 153.52 173.772 152.46 173.772C151.4 173.772 150.34 173.772 149.28 173.772C148.22 173.666 147.266 173.454 146.312 173.136C145.994 173.136 145.888 172.818 145.676 172.818C145.358 172.712 145.252 172.5 145.04 172.5C144.722 172.394 144.616 172.182 144.51 172.076C144.192 171.97 144.086 171.758 143.98 171.652C143.662 171.546 143.556 171.334 143.45 171.228C143.344 171.122 143.132 170.91 142.92 170.698C142.602 170.38 142.39 170.062 142.072 169.638C141.542 169.002 141.118 168.154 140.906 167.518C140.27 166.034 140.058 164.55 140.058 163.384C140.058 162.218 140.058 161.158 140.058 160.204C140.058 159.356 140.058 158.614 140.058 158.19C140.058 157.872 140.058 157.766 140.058 157.66C140.058 157.766 140.058 157.978 140.058 158.19C140.058 158.72 140.058 159.25 140.058 160.204C140.058 161.052 140.058 162.112 140.058 163.384C140.058 164.55 140.376 166.034 140.906 167.412C141.224 168.048 141.542 168.896 142.072 169.532C142.39 169.956 142.602 170.168 142.92 170.486C143.026 170.592 143.238 170.804 143.45 171.016C143.556 171.122 143.768 171.334 143.98 171.44C144.086 171.546 144.404 171.758 144.51 171.864C144.828 171.97 144.934 172.182 145.04 172.288C145.358 172.394 145.464 172.606 145.676 172.606C145.994 172.712 146.1 172.924 146.312 172.924C147.266 173.348 148.22 173.454 149.28 173.56C150.34 173.56 151.4 173.56 152.46 173.56C153.52 173.56 154.58 173.56 155.746 173.56C157.972 173.56 160.304 173.56 162.636 173.56C172.176 173.56 180.656 173.56 186.91 173.56C189.984 173.56 192.528 173.56 194.33 173.56C195.178 173.56 195.92 173.56 196.344 173.56C196.662 173.56 196.768 173.56 196.874 173.56C196.98 173.772 196.98 173.772 196.98 173.772Z" fill="#263238"/>
<path d="M218.074 83.248C218.074 83.248 218.074 83.354 218.074 83.672C218.074 83.99 218.074 84.202 218.074 84.732C218.074 85.686 218.074 86.958 218.074 88.76C218.074 92.258 218.074 97.24 218.074 103.494C218.074 106.568 218.074 109.96 218.074 113.564C218.074 114.518 218.074 115.472 218.074 116.32C218.074 116.85 218.074 117.274 218.074 117.804C218.074 118.334 218.074 118.758 218.074 119.288C218.392 121.196 218.922 123.104 220.088 124.906C221.148 126.602 222.738 128.086 224.646 129.146C224.752 129.146 224.964 129.252 224.964 129.464L225.388 129.57L226.236 129.994L227.084 130.312C227.402 130.418 227.614 130.63 227.932 130.63L228.78 130.948C229.098 130.948 229.31 131.054 229.628 131.054C230.158 131.16 230.688 131.16 231.218 131.16C235.776 131.16 240.228 131.16 244.998 131.16C249.768 131.16 254.326 131.16 258.778 131.16C259.838 131.16 261.004 131.16 262.064 131.16C263.124 131.16 264.29 131.478 265.244 132.008C267.152 133.068 268.424 135.188 268.424 137.308C268.424 145.576 268.424 152.996 268.424 159.038C268.424 160.628 268.424 162.112 268.424 163.384C268.424 164.02 268.424 164.762 268.424 165.398C268.424 166.034 268.424 166.776 268.318 167.306C268.212 168.472 267.682 169.744 267.152 170.486C266.622 171.44 265.774 172.076 265.138 172.606C263.76 173.666 262.382 174.09 261.428 174.196C261.11 174.196 261.004 174.196 260.898 174.302C261.004 174.302 261.322 174.302 261.428 174.196C262.382 174.09 263.654 173.666 265.032 172.606C265.668 172.076 266.41 171.44 266.94 170.486C267.47 169.532 268 168.472 268.106 167.306C268.212 166.776 268.212 166.14 268.212 165.398C268.212 164.762 268.212 164.02 268.212 163.384C268.212 162.006 268.212 160.416 268.212 159.038C268.212 152.784 268.212 145.47 268.212 137.308C268.212 135.294 267.046 133.28 265.138 132.22C264.184 131.69 263.124 131.372 262.064 131.372C261.004 131.372 259.944 131.372 258.778 131.372C254.22 131.372 249.768 131.372 244.998 131.372C240.228 131.372 235.67 131.372 231.218 131.372C230.688 131.372 230.158 131.372 229.628 131.266C229.31 131.266 229.098 131.266 228.78 131.16L227.932 130.842C227.614 130.842 227.402 130.736 227.084 130.524L226.236 130.206L225.388 129.782L224.964 129.676C224.858 129.676 224.646 129.57 224.54 129.358C222.632 128.298 221.042 126.708 219.982 125.012C218.922 123.316 218.286 121.302 217.968 119.394C217.968 118.864 217.968 118.44 217.968 117.91C217.968 117.38 217.968 116.956 217.968 116.426C217.968 115.472 217.968 114.518 217.968 113.67C217.968 109.96 217.968 106.674 217.968 103.6C217.968 97.346 217.968 92.47 218.074 88.866C218.074 87.17 218.074 85.792 218.074 84.838C218.074 84.308 218.074 83.99 218.074 83.778C218.074 83.354 218.074 83.248 218.074 83.248Z" fill="#263238"/>
</g>
</g>
<defs>
<clipPath id="clip0_1409_4158">
<rect width="270" height="186" fill="white"/>
</clipPath>
<clipPath id="clip1_1409_4158">
<rect width="265" height="212" fill="white" transform="translate(3 -13)"/>
</clipPath>
</defs>
</svg>
