<svg width="270" height="186" viewBox="0 0 270 186" fill="none" xmlns="http://www.w3.org/2000/svg">
<path d="M248.601 157.475H20.918V157.567H248.601V157.475Z" fill="#EBEBEB"/>
<path d="M64.1595 161.523H45.3389V161.615H64.1595V161.523Z" fill="#EBEBEB"/>
<path d="M102.444 160.603H83.623V160.695H102.444V160.603Z" fill="#EBEBEB"/>
<path d="M127.047 160.603H122.457V160.695H127.047V160.603Z" fill="#EBEBEB"/>
<path d="M81.4195 164.466H60.3955V164.558H81.4195V164.466Z" fill="#EBEBEB"/>
<path d="M154.223 161.339H144.491V161.431H154.223V161.339Z" fill="#EBEBEB"/>
<path d="M171.024 161.339H158.263V161.431H171.024V161.339Z" fill="#EBEBEB"/>
<path d="M232.443 163.362H203.982V163.454H232.443V163.362Z" fill="#EBEBEB"/>
<path d="M128.884 137.145H40.932C39.5548 137.145 38.2695 135.949 38.2695 134.477V10.5669C38.2695 9.18709 39.463 7.89923 40.932 7.89923H128.884C130.261 7.89923 131.546 9.0951 131.546 10.5669V134.385C131.454 135.949 130.353 137.145 128.884 137.145ZM40.932 7.99122C39.5548 7.99122 38.545 9.18709 38.545 10.383V134.385C38.545 135.765 39.7385 136.777 40.932 136.777H128.884C130.261 136.777 131.271 135.581 131.271 134.385V10.5669C131.271 9.18709 130.077 8.1752 128.884 8.1752H40.932V7.99122Z" fill="#EBEBEB"/>
<path d="M227.21 137.145H139.258C137.881 137.145 136.596 135.949 136.596 134.477V10.5669C136.596 9.18709 137.789 7.89923 139.258 7.89923H227.21C228.587 7.89923 229.872 9.0951 229.872 10.5669V134.385C229.872 135.949 228.863 137.145 227.21 137.145ZM139.442 7.99122C138.065 7.99122 137.055 9.18709 137.055 10.383V134.385C137.055 135.765 138.248 136.777 139.442 136.777H227.394C228.771 136.777 229.781 135.581 229.781 134.385V10.5669C229.781 9.18709 228.587 8.1752 227.394 8.1752H139.442V7.99122Z" fill="#EBEBEB"/>
<path d="M206.829 17.0982H159.823V77.6276H206.829V17.0982Z" fill="#E6E6E6"/>
<path d="M206.461 17.0982H157.527V77.6276H206.461V17.0982Z" fill="#F0F0F0"/>
<path d="M206.829 77.6276H159.823V79.8354H206.829V77.6276Z" fill="#E6E6E6"/>
<path d="M202.789 77.6276H153.855V79.8354H202.789V77.6276Z" fill="#F0F0F0"/>
<path d="M203.432 20.4099H160.925V74.408H203.432V20.4099Z" fill="#FAFAFA"/>
<path d="M189.11 74.408L183.877 20.3179H174.88L180.021 74.408H189.11Z" fill="white"/>
<path d="M201.779 56.102C201.871 56.102 202.055 56.01 202.055 55.826V22.5256C202.055 22.4336 201.963 22.2496 201.779 22.2496C201.596 22.2496 201.504 22.3416 201.504 22.5256V55.918C201.504 56.01 201.596 56.102 201.779 56.102Z" fill="#F0F0F0"/>
<path d="M178.185 74.408L172.952 20.3179H169.463L174.696 74.408H178.185Z" fill="white"/>
<path d="M161.2 20.3179H160.741V74.316H161.2V20.3179Z" fill="#E6E6E6"/>
<path opacity="0.5" d="M156.701 24.7334H204.441L204.9 21.6977H157.068L156.701 24.7334Z" fill="#E0E0E0"/>
<path opacity="0.5" d="M156.701 29.5169H204.441L204.9 26.5732H157.068L156.701 29.5169Z" fill="#E0E0E0"/>
<path opacity="0.5" d="M156.701 34.4843H204.441L204.9 31.3566H157.068L156.701 34.4843Z" fill="#E0E0E0"/>
<path opacity="0.5" d="M156.701 39.3598H204.441L204.9 36.3241H157.068L156.701 39.3598Z" fill="#E0E0E0"/>
<path opacity="0.5" d="M156.701 44.2353H204.441L204.9 41.1996H157.068L156.701 44.2353Z" fill="#E0E0E0"/>
<path opacity="0.5" d="M156.701 49.1107H204.441L204.9 46.0751H157.068L156.701 49.1107Z" fill="#E0E0E0"/>
<path d="M191.864 108.352C193.058 107.156 191.864 105.685 193.333 104.673C194.802 103.661 193.609 102.005 193.609 100.533C193.609 99.0613 195.537 98.7853 196.271 97.2215C196.547 96.4856 196.271 95.5657 195.812 94.8298C194.894 93.0819 192.599 92.898 191.314 94.0938C191.314 94.0938 191.222 94.1858 191.038 94.3698C189.845 95.8416 191.038 97.2215 189.753 98.4174C188.467 99.4293 186.172 99.7052 186.448 101.269C186.54 103.017 184.795 103.109 184.061 104.489C183.51 105.317 183.969 106.696 184.336 107.616C184.612 108.352 185.162 108.812 185.805 108.996C187.09 109.272 190.028 110.192 191.864 108.352Z" fill="#EBEBEB"/>
<path d="M194.252 112.4C196.18 111.572 195.445 109.18 197.832 108.628C200.219 108.076 199.485 105.409 200.127 103.661C200.954 101.821 203.432 102.465 204.809 100.809C205.728 99.6132 205.544 97.4974 205.177 96.1176C204.901 95.1057 203.983 94.2778 202.882 94.1858C201.963 94.1858 200.954 94.2778 200.035 94.9217C198.108 96.2096 198.567 98.6013 196.73 99.1532C194.802 99.8892 191.773 98.8773 191.222 101.085C190.487 103.017 188.376 102.557 186.632 103.753C185.346 104.581 185.438 106.972 185.622 108.26C185.622 108.812 185.897 109.272 186.356 109.732C187.55 110.744 191.038 113.872 194.252 112.4Z" fill="#E0E0E0"/>
<path d="M192.875 102.741C194.16 101.821 195.262 103.201 196.639 101.821C197.924 100.441 199.393 102.097 200.77 102.189C202.239 102.465 202.698 100.349 204.534 100.257C205.269 100.165 206.187 100.533 206.829 101.085C208.482 102.281 208.482 104.397 206.829 105.685C206.738 105.685 206.738 105.777 206.554 105.777C204.902 106.696 203.708 105.317 202.423 106.512C201.229 107.708 200.678 109.824 199.118 109.364C197.465 108.996 197.19 110.744 195.813 111.296C194.894 111.756 193.609 111.02 192.966 110.56C192.416 110.192 191.957 109.64 191.773 108.904C191.314 107.34 190.855 104.213 192.875 102.741Z" fill="#EBEBEB"/>
<path d="M179.287 104.673C179.287 104.673 179.746 118.011 194.894 118.011C210.135 118.011 210.502 104.673 210.502 104.673H179.287Z" fill="#F5F5F5"/>
<path d="M116.582 22.2496H53.0508V57.7578H116.582V22.2496Z" fill="#E6E6E6"/>
<path d="M116.031 22.2496H52.5V57.7578H116.031V22.2496Z" fill="#F5F5F5"/>
<path d="M111.441 26.9411H57.0908V53.4342H111.441V26.9411Z" fill="white"/>
<path d="M57.6417 26.9411H57.0908V53.4342H57.6417V26.9411Z" fill="#E6E6E6"/>
<path d="M79.0889 30.5083L60.9473 31.6721L61.5397 40.9445L79.6813 39.7807L79.0889 30.5083Z" fill="#F5F5F5"/>
<path d="M79.6367 40.3534L61.4951 41.5172L62.0876 50.7896L80.2292 49.6258L79.6367 40.3534Z" fill="#F5F5F5"/>
<path d="M91.4522 30.9891L79.541 31.7532L80.3858 44.9733L92.2969 44.2091L91.4522 30.9891Z" fill="#F5F5F5"/>
<path d="M104.111 32.3655L92.2002 33.1296L92.6988 40.9332L104.61 40.169L104.111 32.3655Z" fill="#F5F5F5"/>
<path d="M108.595 40.235L92.6523 41.2576L92.9984 46.6742L108.941 45.6515L108.595 40.235Z" fill="#F5F5F5"/>
<path d="M134.851 178.081C183.679 178.081 223.262 175.816 223.262 173.021C223.262 170.227 183.679 167.962 134.851 167.962C86.0234 167.962 46.4404 170.227 46.4404 173.021C46.4404 175.816 86.0234 178.081 134.851 178.081Z" fill="#F5F5F5"/>
<path d="M196.455 88.2065C196.363 88.2065 196.087 88.2065 195.996 88.2065C192.323 82.1352 185.529 77.7197 177.726 77.7197C170.014 77.7197 163.404 81.8592 159.548 87.8386C158.171 86.8267 156.702 86.1827 154.866 86.1827C150.642 86.1827 146.97 89.7704 146.97 94.0939C146.97 94.3699 146.97 94.5538 146.97 94.8298C140.452 95.1978 135.127 100.717 135.127 107.34C135.127 114.24 140.727 119.851 147.613 119.851H196.271C205.085 119.851 212.246 112.584 212.246 103.845C212.429 95.3817 205.36 88.2065 196.455 88.2065Z" fill="#407BFF"/>
<path d="M196.455 88.2065C196.363 88.2065 196.087 88.2065 195.996 88.2065C192.323 82.1352 185.529 77.7197 177.726 77.7197C170.014 77.7197 163.404 81.8592 159.548 87.8386C158.171 86.8267 156.702 86.1827 154.866 86.1827C150.642 86.1827 146.97 89.7704 146.97 94.0939C146.97 94.3699 146.97 94.5538 146.97 94.8298C140.452 95.1978 135.127 100.717 135.127 107.34C135.127 114.24 140.727 119.851 147.613 119.851H196.271C205.085 119.851 212.246 112.584 212.246 103.845C212.429 95.3817 205.36 88.2065 196.455 88.2065Z" fill="#023EA1"/>
<path d="M170.381 102.833C170.381 102.833 172.768 137.605 173.227 143.676C173.594 149.748 174.971 170.63 174.971 170.63H181.031L185.162 102.557L170.381 102.833Z" fill="#DE051F"/>
<path d="M193.333 103.201C193.333 103.201 192.599 120.679 192.323 125.186C191.956 129.694 195.537 144.872 197.373 151.68C199.209 158.487 202.055 165.846 202.055 165.846L197.373 168.606C197.373 168.606 186.907 150.208 183.326 139.169C179.654 128.222 176.9 111.94 177.359 102.557L193.333 103.201Z" fill="#EE384E"/>
<path d="M167.443 78.1796L162.761 84.2509C162.761 84.2509 162.394 84.7109 161.476 84.5269C160.558 84.2509 151.744 81.2152 151.744 81.2152C151.744 81.2152 150.459 80.6633 150.092 79.5594C149.724 78.5475 149.633 78.2716 149.357 78.0876C149.082 77.8116 148.898 77.8116 148.99 77.1677C149.265 76.4318 149.265 76.2478 149.265 76.2478C149.265 76.2478 149.541 75.7878 148.99 75.7878C148.439 75.7878 148.164 75.8798 147.98 76.3398C147.705 76.7997 147.888 77.9956 147.888 77.9956H146.144C146.144 77.9956 144.95 77.9956 144.95 79.2835C144.95 80.5713 144.95 82.5951 144.95 82.5951C144.95 82.5951 144.675 83.331 145.685 83.331C146.695 83.331 147.521 83.331 147.521 83.331C147.521 83.331 148.255 83.239 149.449 84.1589C150.642 85.0788 159.548 90.1383 159.548 90.1383C159.548 90.1383 162.669 91.9781 164.597 90.0463C166.525 88.1145 171.024 83.239 171.024 83.239L171.299 81.7672L167.443 78.1796Z" fill="#FFBF99"/>
<path d="M182.316 61.6214C182.316 61.6214 182.867 64.3811 183.969 67.1408C185.162 69.9005 185.621 70.9124 185.621 70.9124C185.621 70.9124 182.316 74.684 179.103 74.224C175.798 73.6721 175.798 71.4643 175.798 71.4643C175.798 71.4643 178.919 69.0726 178.919 65.577C178.919 62.0813 178.919 62.2653 178.919 62.2653L182.316 61.6214Z" fill="#FFBF99"/>
<path d="M175.155 71.0963C175.155 71.0963 172.401 72.7521 171.391 73.4881C170.198 74.408 166.893 78.1795 166.893 78.1795L171.483 82.6871L174.696 79.0075L175.155 71.0963Z" fill="#0054A3"/>
<path d="M184.336 69.8085C184.336 69.8085 182.683 72.1083 180.572 72.5682C178.277 73.1201 177.267 71.3723 177.267 71.3723L176.716 70.5444C176.716 70.5444 176.165 70.0845 175.431 70.6364C174.696 71.1883 173.503 72.5682 172.309 74.868C171.116 77.1677 170.84 80.3874 170.565 87.7465C170.289 95.1057 170.565 103.201 170.565 103.201H193.425L193.7 91.7021C193.7 91.7021 191.313 76.4318 189.018 73.3041C186.631 70.1765 185.897 69.5325 185.897 69.5325C185.897 69.5325 185.254 68.8886 184.336 69.8085Z" fill="#0064E1"/>
<path d="M175.431 54.1702C175.431 54.1702 173.778 56.4699 173.778 60.2415C173.778 64.0131 174.329 66.7728 176.074 66.7728C177.818 66.7728 181.123 65.577 181.582 64.4731C182.133 63.2772 183.235 63.2772 183.235 61.1614C183.235 58.9537 180.48 53.8942 178.185 53.8942C176.165 54.1702 175.431 54.1702 175.431 54.1702Z" fill="#FFBF99"/>
<path d="M173.87 54.1702C173.87 54.1702 172.217 49.6627 173.319 49.1107C174.329 48.5588 176.624 49.6627 177.083 50.3066C177.634 50.8585 178.736 50.8585 179.378 50.8585C179.378 50.8585 184.887 50.8585 185.897 52.0544C187.09 53.2503 187.09 53.7102 187.09 54.3542C187.09 54.9061 187.09 57.1139 187.641 58.1257C187.917 58.5857 188.192 60.8854 187.09 63.1852C185.897 65.393 184.795 65.9449 184.336 65.9449C183.785 65.9449 183.326 65.9449 183.143 65.393C183.143 64.841 182.867 63.9211 182.592 63.0932C182.316 62.3573 182.041 60.7935 182.041 60.7935C182.041 60.7935 181.49 58.0338 180.388 57.0219C179.378 55.826 179.195 55.826 177.083 55.366C174.972 54.7221 174.421 55.734 173.87 54.1702Z" fill="#1A1155"/>
<path d="M181.398 58.3097C180.572 59.2296 181.674 60.9774 181.674 60.9774C181.674 60.9774 183.326 61.5294 183.326 59.7816C183.142 58.0338 182.224 57.1139 181.398 58.3097Z" fill="#EEBD98"/>
<path d="M192.415 81.6752C192.415 81.6752 194.342 89.5863 194.159 94.6458C193.792 99.7052 192.323 103.937 191.313 107.064C190.119 109.916 189.568 110.836 189.477 112.676C189.477 114.608 188.559 116.815 187.549 117.827C186.355 119.023 185.621 119.575 185.621 119.575C185.621 119.575 184.244 120.127 184.427 119.023C184.427 119.023 183.509 119.023 183.876 118.471C183.876 118.471 182.683 118.471 183.509 117.551C184.427 116.631 185.896 115.711 185.896 115.711C185.896 115.711 186.814 114.24 185.529 114.976C184.244 115.711 183.142 115.711 184.244 114.516C185.437 113.32 186.631 111.296 187.916 107.616C188.926 103.845 190.211 96.4856 188.742 90.6902C187.365 85.0788 185.529 83.239 185.529 83.239L192.415 81.6752Z" fill="#FFBF99"/>
<path d="M197.372 167.962C197.372 167.962 196.179 171.089 195.077 172.561C193.884 174.033 192.874 174.953 192.874 174.953C192.874 174.953 191.497 177.253 193.149 176.609C194.802 175.873 203.615 170.078 203.615 170.078C203.615 170.078 204.901 169.342 204.35 168.33C203.799 167.318 202.422 165.11 202.422 165.11L197.372 167.962Z" fill="#1A1155"/>
<path d="M180.939 174.769C180.939 174.769 181.306 175.689 179.287 175.689C177.45 175.689 167.26 175.689 167.26 175.689C167.26 175.689 165.332 175.229 167.168 174.401C169.004 173.481 174.513 171.089 174.513 171.089C174.513 171.089 174.972 170.997 174.972 169.894H181.031L180.939 174.769Z" fill="#1A1155"/>
<path d="M183.693 76.2478C183.693 76.2478 183.234 72.4762 185.988 72.1083C188.742 71.7403 190.487 75.3279 191.405 77.6277C192.323 80.0194 192.782 81.7672 192.782 81.7672C192.782 81.7672 186.906 84.1589 185.437 84.1589C185.437 84.1589 184.06 80.2954 183.693 76.2478Z" fill="#0054A3"/>
<path d="M94.0889 80.8473L93.8135 80.3874C94.7316 79.9274 95.7414 79.3755 96.6595 79.0075L96.9349 79.4675C95.9251 79.8354 95.007 80.2954 94.0889 80.8473Z" fill="#EE384E"/>
<path d="M86.1016 86.7347L85.8262 86.3667C87.4787 84.6189 89.1313 83.1471 91.3346 81.8592L91.6101 82.2272C89.5903 83.607 87.7541 85.0788 86.1016 86.7347Z" fill="#EE384E"/>
<path d="M81.4189 93.7259C81.6944 93.7259 81.878 93.7259 82.1534 93.7259C87.9373 84.159 98.3116 77.7197 110.155 77.7197C121.906 77.7197 132.097 84.067 137.789 93.266C139.717 91.7941 142.379 90.8742 145.134 90.8742C151.927 90.8742 157.16 96.3936 157.16 102.925C157.16 103.293 157.16 103.753 157.16 104.121C167.259 104.673 175.43 113.228 175.43 123.439C175.43 134.11 166.8 142.757 156.151 142.757H81.5107C67.9232 142.757 56.9062 131.81 56.9062 118.103C56.9981 104.673 67.9232 93.7259 81.4189 93.7259Z" fill="#EE384E"/>
<path opacity="0.2" d="M146.052 75.236L153.855 119.759C154.131 121.231 153.121 122.611 151.652 122.887L123.834 127.578C122.365 127.854 120.988 126.842 120.713 125.371L112.909 80.8474L146.052 75.236Z" fill="black"/>
<path d="M158.171 114.056L147.797 73.3042L137.606 69.9926L113.919 75.9719C112.91 76.2479 112.175 77.3518 112.542 78.3636L123.835 122.795C124.11 123.807 125.212 124.543 126.222 124.175L156.886 116.356C157.712 116.172 158.354 115.16 158.171 114.056Z" fill="white"/>
<path d="M125.67 124.819C124.477 124.819 123.742 124.083 123.283 122.979L111.991 78.5476C111.716 77.8117 111.991 77.2598 112.266 76.7078C112.634 76.1559 113.185 75.7879 113.735 75.5119L137.422 69.5326C137.514 69.5326 137.697 69.5326 137.697 69.5326L147.888 72.8442C147.98 72.8442 148.163 73.1202 148.255 73.2122L158.721 113.964C158.997 114.7 158.721 115.252 158.446 115.804C158.079 116.356 157.528 116.723 156.977 116.999L126.313 124.819C126.129 124.819 125.854 124.819 125.67 124.819ZM137.605 70.3605L114.103 76.3399C113.644 76.4318 113.368 76.7078 113.185 77.0758C112.909 77.4437 112.909 77.8117 112.909 78.2716L124.201 122.703C124.293 123.163 124.569 123.439 124.936 123.623C125.303 123.899 125.67 123.899 126.129 123.899L156.793 116.08C157.252 115.988 157.528 115.712 157.711 115.344C157.987 114.976 157.987 114.608 157.987 114.148L147.796 73.5802L137.605 70.3605Z" fill="#3864B2"/>
<path d="M147.888 73.3961L137.697 69.9925L142.747 75.4199C143.481 76.2478 144.675 76.2478 145.501 75.5119L147.888 73.3961Z" fill="#3864B2"/>
<path d="M144.124 76.3398C143.389 76.3398 142.839 76.0639 142.288 75.5119L137.238 70.0845C137.146 69.9925 136.963 69.7165 137.238 69.5326C137.33 69.2566 137.605 69.2566 137.789 69.2566L147.98 72.5682C148.072 72.5682 148.255 72.8442 148.347 72.9362C148.347 73.2122 148.347 73.3042 148.255 73.3961L145.868 75.6039C145.226 76.2478 144.675 76.3398 144.124 76.3398ZM139.258 70.8204L143.022 74.96C143.573 75.5119 144.491 75.6959 144.95 75.052L146.786 73.3961L139.258 70.8204Z" fill="#3864B2"/>
<path d="M136.229 105.133L141.186 100.441L141.737 102.373C144.399 101.177 145.868 98.2334 145.042 95.3817C144.216 92.1621 140.911 90.2303 137.697 91.1502L137.147 88.9424C141.645 87.7465 146.236 90.5982 147.245 94.9218C148.255 99.0613 146.052 103.201 142.196 104.673L142.747 106.972L136.229 105.133Z" fill="#3864B2"/>
<path d="M135.31 90.4143L130.353 95.1058L129.802 93.174C127.139 94.3698 125.67 97.3135 126.497 100.165C127.323 103.385 130.628 105.317 133.841 104.397L134.392 106.605C129.894 107.8 125.303 104.949 124.293 100.625C123.283 96.4856 125.487 92.3461 129.343 90.8742L128.792 88.5745L135.31 90.4143Z" fill="#3864B2"/>
</svg>
