<svg width="270" height="186" viewBox="0 0 270 186" fill="none" xmlns="http://www.w3.org/2000/svg">
<g clip-path="url(#clip0_1409_4158)">
<path d="M135.172 185C197.456 185 247.948 180.734 247.948 175.473C247.948 170.211 197.456 165.945 135.172 165.945C72.887 165.945 22.3955 170.211 22.3955 175.473C22.3955 180.734 72.887 185 135.172 185Z" fill="#F5F5F5"/>
<path d="M190.822 72.52C202.063 69.8375 213.396 76.6825 216.068 88.06C218.74 99.4375 211.922 110.722 200.589 113.405" stroke="#2A2AD5" stroke-miterlimit="10" stroke-dasharray="6 6"/>
<path d="M215.515 90.28C217.805 90.28 219.661 88.4164 219.661 86.1175C219.661 83.8186 217.805 81.955 215.515 81.955C213.225 81.955 211.369 83.8186 211.369 86.1175C211.369 88.4164 213.225 90.28 215.515 90.28Z" fill="#FCBE42"/>
<path d="M217.818 87.135L215.331 85.1L215.146 88.1525" stroke="white" stroke-miterlimit="10"/>
<path d="M210.632 54.76C210.632 54.76 210.54 54.6675 210.448 54.76L208.882 54.945C208.697 54.945 208.421 54.8525 208.421 54.76C208.329 54.02 207.868 53.3725 207.684 52.8175C207.592 52.725 207.684 52.355 207.776 52.2625L208.974 51.3375C208.974 51.3375 209.066 51.245 209.066 51.1525C209.066 51.06 209.066 51.06 208.974 50.9675L207.315 49.3025C207.315 49.3025 207.223 49.21 207.131 49.21C207.039 49.21 207.039 49.21 206.947 49.3025L206.025 50.505C205.933 50.5975 205.565 50.69 205.473 50.5975C204.828 50.135 204.183 49.95 203.538 49.8575C203.353 49.8575 203.353 49.6725 203.353 49.395L203.538 47.8225C203.538 47.73 203.538 47.73 203.538 47.6375C203.538 47.6375 203.446 47.545 203.353 47.545H200.958C200.866 47.545 200.866 47.545 200.774 47.6375C200.774 47.6375 200.681 47.73 200.774 47.8225L200.958 49.395C200.958 49.58 200.866 49.8575 200.774 49.8575C200.037 49.95 199.392 50.4125 198.839 50.5975C198.747 50.69 198.378 50.5975 198.286 50.505L197.365 49.3025C197.365 49.3025 197.272 49.21 197.18 49.21C197.088 49.21 197.088 49.21 196.996 49.3025L195.338 50.9675C195.338 50.9675 195.245 51.06 195.245 51.1525C195.245 51.245 195.245 51.245 195.338 51.3375L196.535 52.2625C196.627 52.355 196.72 52.725 196.627 52.8175C196.167 53.465 195.982 54.1125 195.89 54.76C195.89 54.945 195.706 54.945 195.43 54.945L193.863 54.76C193.771 54.76 193.771 54.76 193.679 54.76C193.679 54.76 193.587 54.8525 193.587 54.945V57.35C193.587 57.4425 193.587 57.4425 193.679 57.535C193.679 57.535 193.771 57.6275 193.863 57.535L195.43 57.35C195.614 57.35 195.89 57.4425 195.89 57.535C195.982 58.275 196.443 58.9225 196.627 59.4775C196.72 59.57 196.627 59.94 196.535 60.0325L195.338 60.9575C195.338 60.9575 195.245 61.05 195.245 61.1425C195.245 61.235 195.245 61.235 195.338 61.3275L196.996 62.9925C196.996 62.9925 197.088 63.085 197.18 63.085C197.272 63.085 197.272 63.085 197.365 62.9925L198.286 61.79C198.378 61.6975 198.747 61.605 198.839 61.6975C199.484 62.16 200.129 62.345 200.774 62.4375C200.958 62.4375 200.958 62.6225 200.958 62.9L200.774 64.4725C200.774 64.565 200.774 64.565 200.774 64.6575C200.774 64.6575 200.866 64.75 200.958 64.75H203.353C203.446 64.75 203.446 64.75 203.538 64.6575C203.538 64.6575 203.63 64.565 203.538 64.4725L203.353 62.9C203.353 62.715 203.446 62.4375 203.538 62.4375C204.275 62.345 204.92 61.8825 205.473 61.6975C205.565 61.605 205.933 61.6975 206.025 61.79L206.947 62.9925C206.947 62.9925 207.039 63.085 207.131 63.085C207.223 63.085 207.223 63.085 207.315 62.9925L208.974 61.3275C208.974 61.3275 209.066 61.235 209.066 61.1425C209.066 61.05 209.066 61.05 208.974 60.9575L207.776 60.0325C207.684 59.94 207.592 59.57 207.684 59.4775C208.145 58.83 208.329 58.1825 208.421 57.535C208.421 57.35 208.605 57.35 208.882 57.35L210.448 57.535C210.54 57.535 210.54 57.535 210.632 57.535C210.632 57.535 210.724 57.4425 210.724 57.35V54.945C210.724 54.8525 210.724 54.76 210.632 54.76ZM210.172 57.0725L208.974 56.98C208.421 56.98 207.96 57.165 207.96 57.72C207.868 58.3675 207.5 58.9225 207.223 59.4775C207.039 60.0325 207.131 60.495 207.408 60.7725L208.329 61.42L207.131 62.6225L206.486 61.6975C206.302 61.235 205.565 61.1425 205.196 61.5125C204.643 61.975 203.998 62.16 203.446 62.2525C202.893 62.345 202.709 62.9 202.709 63.27L202.801 64.4725H201.142L201.234 63.27C201.234 62.715 201.05 62.2525 200.497 62.2525C199.852 62.16 199.299 61.79 198.747 61.5125C198.194 61.3275 197.733 61.42 197.457 61.6975L196.812 62.6225L195.614 61.42L196.535 60.7725C196.996 60.5875 197.088 59.8475 196.72 59.4775C196.259 58.9225 196.075 58.275 195.982 57.72C195.89 57.165 195.338 56.98 194.969 56.98L193.771 57.0725V55.315L194.969 55.4075C195.522 55.4075 195.982 55.2225 195.982 54.6675C196.075 54.02 196.443 53.465 196.72 52.91C196.904 52.355 196.812 51.8925 196.535 51.615L195.614 50.9675L196.812 49.765L197.457 50.69C197.641 51.1525 198.378 51.245 198.747 50.875C199.299 50.4125 199.944 50.2275 200.497 50.135C201.05 50.0425 201.234 49.4875 201.234 49.1175L201.142 47.915H202.801L202.709 49.1175C202.709 49.6725 202.893 50.135 203.446 50.135C204.091 50.2275 204.643 50.5975 205.196 50.875C205.749 51.06 206.21 50.9675 206.486 50.69L207.131 49.765L208.329 50.9675L207.408 51.615C206.947 51.8 206.855 52.54 207.223 52.91C207.684 53.465 207.868 54.1125 207.96 54.6675C208.052 55.2225 208.605 55.4075 208.974 55.4075L210.172 55.315V57.0725Z" stroke="#2440AB" stroke-width="0.5" stroke-miterlimit="10"/>
<path d="M201.695 51.8925C199.392 51.8925 197.457 53.835 197.457 56.1475C197.457 58.46 199.392 60.4025 201.695 60.4025C203.999 60.4025 205.934 58.46 205.934 56.1475C205.934 53.835 203.999 51.8925 201.695 51.8925ZM201.695 59.8475C199.76 59.8475 198.102 58.1825 198.102 56.24C198.102 54.2975 199.76 52.6325 201.695 52.6325C203.63 52.6325 205.289 54.2975 205.289 56.24C205.381 58.1825 203.722 59.8475 201.695 59.8475Z" stroke="#2440AB" stroke-width="0.5" stroke-miterlimit="10"/>
<path d="M144.017 27.1025L142.451 27.2875C142.267 27.2875 142.174 27.2875 142.174 27.1025C141.99 26.455 141.898 25.9925 141.437 25.4375C141.437 25.2525 141.437 25.16 141.437 25.16L142.359 24.42V24.235V24.05L140.977 22.385H140.792L140.055 23.31C140.055 23.495 139.779 23.495 139.779 23.31C139.134 23.0325 138.673 22.6625 138.12 22.57C137.936 22.57 137.844 22.385 137.936 22.2925V20.72V20.535H137.752H135.448H135.264V20.72L135.448 22.1075C135.448 22.2925 135.448 22.385 135.264 22.385C134.619 22.57 134.158 22.6625 133.606 23.125C133.421 23.125 133.329 23.125 133.329 23.125L132.592 22.2H132.408H132.224L130.657 23.7725V23.9575V24.05L131.579 24.79C131.763 24.79 131.763 25.0675 131.579 25.0675C131.302 25.715 130.934 26.1775 130.842 26.7325C130.842 26.9175 130.657 27.01 130.565 26.9175L129.183 26.7325H128.999V26.9175V28.9525V29.1375H129.183L130.565 28.9525C130.749 28.9525 130.842 28.9525 130.842 29.1375C131.026 29.785 131.118 30.2475 131.579 30.8025C131.579 30.9875 131.579 31.08 131.579 31.08L130.657 31.82V32.005V32.19L132.224 33.7625H132.408H132.592L133.329 32.8375C133.329 32.6525 133.606 32.6525 133.606 32.8375C134.251 33.115 134.711 33.485 135.264 33.5775C135.448 33.5775 135.541 33.7625 135.448 33.855L135.264 35.2425V35.4275H135.448H137.475H137.66V35.2425L137.475 33.855C137.475 33.67 137.475 33.5775 137.66 33.5775C138.305 33.3925 138.765 33.3 139.318 32.8375C139.502 32.8375 139.595 32.8375 139.595 32.8375L140.332 33.7625H140.516H140.7L142.267 32.19V32.005V31.82L141.345 31.08C141.161 31.08 141.161 30.8025 141.345 30.8025C141.622 30.155 141.99 29.6925 142.082 29.1375C142.082 28.9525 142.267 28.86 142.359 28.9525L143.741 29.1375H143.925V28.9525L144.017 27.1025C144.294 27.2875 144.294 27.2875 144.017 27.1025ZM143.741 28.9525L142.635 28.7675C142.359 28.7675 141.898 28.9525 141.714 29.5075C141.529 30.0625 141.437 30.6175 140.977 31.08C140.792 31.3575 140.792 31.82 141.161 32.19L141.898 32.8375L140.792 33.9475L140.147 33.2075C139.871 32.93 139.41 32.93 139.042 33.0225C138.765 33.3 138.12 33.67 137.475 33.7625C137.199 33.7625 136.738 34.41 136.738 34.6875L136.923 35.7975H135.356L135.541 34.6875C135.541 34.41 135.356 33.9475 134.803 33.7625C134.158 33.5775 133.698 33.485 133.237 33.0225C132.961 32.8375 132.5 32.8375 132.131 33.2075L131.486 33.9475L130.381 32.8375L131.118 32.19C131.394 31.9125 131.394 31.45 131.302 31.08C131.026 30.8025 130.657 30.155 130.565 29.5075C130.565 29.23 129.92 28.7675 129.644 28.7675L128.538 28.9525V27.38L129.644 27.565C129.92 27.565 130.381 27.38 130.565 26.825C130.749 26.1775 130.842 25.715 131.302 25.2525C131.486 24.975 131.486 24.5125 131.118 24.1425L130.381 23.495L131.486 22.385L132.131 23.125C132.408 23.4025 132.869 23.4025 133.237 23.31C133.513 23.0325 134.158 22.6625 134.803 22.57C135.08 22.57 135.541 21.9225 135.541 21.645L135.356 20.72H136.923L136.738 21.83C136.738 22.1075 136.923 22.57 137.475 22.755C138.028 22.94 138.581 23.0325 139.042 23.495C139.318 23.68 139.779 23.68 140.147 23.31L140.792 22.57L141.898 23.68L141.161 24.3275C140.884 24.605 140.884 25.0675 140.977 25.4375C141.253 25.715 141.622 26.3625 141.714 27.01C141.714 27.2875 142.359 27.75 142.635 27.75L143.741 27.565V28.9525Z" fill="#CD3B4E"/>
<path d="M136.462 24.79C134.619 24.79 132.961 26.455 132.961 28.305C132.961 30.155 134.619 31.82 136.462 31.82C138.305 31.82 139.963 30.155 139.963 28.305C140.148 26.3625 138.673 24.79 136.462 24.79ZM136.462 31.45C134.804 31.45 133.422 30.0625 133.422 28.3975C133.422 26.7325 134.804 25.345 136.462 25.345C138.121 25.345 139.503 26.7325 139.503 28.3975C139.595 30.0625 138.213 31.45 136.462 31.45Z" fill="#CD3B4E"/>
<path d="M144.293 172.697H118.679L120.798 141.617H142.266L144.293 172.697Z" fill="#0064B7"/>
<path d="M123.102 164.927C129.551 162.8 137.106 161.32 143.372 158.175L142.266 141.617H120.798L119.14 166.222C120.43 165.76 121.719 165.39 123.102 164.927Z" fill="#0054A3"/>
<path d="M147.702 167.703C147.333 167.24 146.781 166.87 146.32 166.87H132.131H131.025H116.744C116.191 166.87 115.73 167.055 115.362 167.703L111.492 173.438C110.663 174.548 111.492 176.028 112.874 176.028H131.025H132.131H150.282C151.664 176.028 152.401 174.548 151.664 173.438L147.702 167.703Z" fill="#0064B7"/>
<path d="M194.416 149.757H68.6486C64.6867 149.757 61.4619 146.427 61.4619 142.542V62.715C61.4619 58.7375 64.7789 55.5 68.6486 55.5H194.416C198.378 55.5 201.603 58.83 201.603 62.715V142.542C201.603 146.612 198.47 149.757 194.416 149.757Z" fill="#0064B7"/>
<path d="M195.153 61.6975H67.8193V142.543H195.153V61.6975Z" fill="white"/>
<path d="M157.653 74.5551L147.241 82.4176L158.943 77.6076L157.653 74.5551Z" fill="#EEEEEE"/>
<path d="M174.699 101.565L158.943 106.375L174.699 105.45V101.565Z" fill="#EEEEEE"/>
<path d="M92.8807 130.703L116.376 116.458L91.5908 127.003L92.8807 130.703Z" fill="#EEEEEE"/>
<path d="M109.465 99.8076L88.8262 97.5876V93.0551L109.465 99.8076Z" fill="#EEEEEE"/>
<path d="M129.183 122.285L147.886 134.588V130.425L129.183 122.285Z" fill="#EEEEEE"/>
<path d="M105.504 98.235C105.412 98.1425 105.043 98.1425 104.951 98.235C104.859 98.3275 104.859 98.6975 104.951 98.79C105.872 99.6225 106.886 100.363 107.807 101.288C107.899 101.288 107.899 101.38 107.991 101.38C108.084 101.38 108.176 101.38 108.176 101.288C108.268 101.103 108.268 100.825 108.176 100.733C107.347 99.8075 106.425 99.0675 105.504 98.235Z" fill="#0064E1"/>
<path d="M113.427 81.2151C113.52 81.2151 113.796 81.1225 113.796 81.03C113.888 80.845 113.796 80.5675 113.612 80.5675C112.414 80.105 111.216 79.6426 110.018 79.3651C109.834 79.3651 109.558 79.365 109.558 79.55C109.558 79.735 109.558 80.0125 109.742 80.0125C110.848 80.3825 112.137 80.8451 113.243 81.2151H113.427Z" fill="#0064E1"/>
<path d="M100.067 93.1476C99.9751 93.0551 99.6066 93.0551 99.5144 93.1476C99.4223 93.2401 99.4223 93.6101 99.5144 93.7026C100.436 94.6276 101.173 95.5526 102.186 96.3851C102.279 96.4776 102.371 96.4776 102.371 96.4776C102.371 96.4776 102.555 96.4776 102.555 96.3851C102.647 96.2926 102.647 95.9226 102.555 95.8301C101.818 94.8126 100.896 93.9801 100.067 93.1476Z" fill="#0064E1"/>
<path d="M117.205 107.485C117.021 107.393 116.744 107.393 116.652 107.578C116.56 107.763 116.56 108.04 116.744 108.133C117.758 108.78 118.771 109.613 119.785 110.26C119.785 110.26 119.877 110.26 119.969 110.26C120.061 110.26 120.154 110.26 120.338 110.075C120.43 109.89 120.43 109.613 120.246 109.52C119.232 108.965 118.219 108.225 117.205 107.485Z" fill="#0064E1"/>
<path d="M111.216 103.045C111.031 102.953 110.755 102.953 110.663 103.045C110.571 103.23 110.571 103.508 110.663 103.6C111.676 104.433 112.598 105.08 113.703 105.82C113.796 105.82 113.796 105.913 113.888 105.913C113.98 105.913 114.072 105.913 114.256 105.82C114.348 105.635 114.348 105.358 114.164 105.265C113.151 104.618 112.137 103.785 111.216 103.045Z" fill="#0064E1"/>
<path d="M102.463 78.1626C103.569 78.3476 104.859 78.6251 106.057 78.9951C106.057 78.9951 106.057 78.9951 106.149 78.9951C106.333 78.9951 106.517 78.9026 106.517 78.8101C106.517 78.6251 106.425 78.3476 106.333 78.3476C105.135 77.9776 103.753 77.7926 102.648 77.5151C102.463 77.5151 102.187 77.6076 102.187 77.8851C102.095 77.9776 102.187 78.1626 102.463 78.1626Z" fill="#0064E1"/>
<path d="M173.5 123.765C173.5 123.858 173.685 123.95 173.869 123.95C173.869 123.95 173.961 123.95 174.053 123.95C174.237 123.858 174.237 123.58 174.237 123.488C173.777 122.47 173.132 121.36 172.21 120.343C172.118 120.158 171.842 120.158 171.658 120.25C171.473 120.343 171.473 120.62 171.565 120.805C172.395 121.73 172.947 122.748 173.5 123.765Z" fill="#0064E1"/>
<path d="M92.9728 81.4C92.9728 81.215 92.9728 80.845 93.0649 80.5675C93.1571 80.3825 92.9728 80.105 92.6964 80.105C92.42 80.105 92.2357 80.1975 92.2357 80.475C92.2357 80.66 92.1436 81.03 92.1436 81.4C92.1436 82.325 92.3278 83.3425 92.7885 84.36C92.7885 84.4525 92.9728 84.545 93.1571 84.545H93.2492C93.4335 84.4525 93.4335 84.175 93.4335 84.0825C93.2492 83.065 92.9728 82.14 92.9728 81.4Z" fill="#0064E1"/>
<path d="M98.8693 77.0526H98.685C97.2108 77.0526 96.1052 77.2375 95.0917 77.6075C94.9074 77.7 94.7231 77.7925 94.9074 78.07C94.9074 78.1625 95.0917 78.255 95.2759 78.255H95.3681C96.2894 77.885 97.3951 77.7925 98.7771 77.7925H98.9614C99.1457 77.7925 99.33 77.6075 99.33 77.4225C99.1457 77.33 99.0536 77.0526 98.8693 77.0526Z" fill="#0064E1"/>
<path d="M95.3686 87.4125C95.2764 87.2275 95 87.2275 94.8157 87.32C94.6315 87.4125 94.6315 87.69 94.7236 87.875C95.3686 88.8 96.1978 89.8175 96.9349 90.9275C97.027 91.02 97.1192 91.02 97.1192 91.02C97.2113 91.02 97.3035 91.02 97.3035 90.9275C97.4877 90.835 97.4877 90.5575 97.3035 90.3725C96.6585 89.2625 96.0135 88.245 95.3686 87.4125Z" fill="#0064E1"/>
<path d="M160.326 129.5C159.22 129.13 157.93 128.853 156.732 128.483C156.548 128.483 156.271 128.483 156.271 128.668C156.271 128.853 156.271 129.13 156.456 129.13C157.654 129.593 158.943 129.963 160.049 130.148C160.049 130.148 160.049 130.148 160.141 130.148C160.326 130.148 160.51 130.055 160.51 129.963C160.694 129.87 160.51 129.593 160.326 129.5Z" fill="#0064E1"/>
<path d="M126.603 113.775C125.589 113.128 124.483 112.388 123.47 111.74C123.286 111.648 123.009 111.74 122.917 111.833C122.825 112.018 122.917 112.295 123.009 112.388C124.023 113.035 125.128 113.775 126.142 114.423C126.142 114.423 126.234 114.423 126.326 114.423C126.418 114.423 126.51 114.423 126.695 114.238C126.787 114.145 126.695 113.868 126.603 113.775Z" fill="#0064E1"/>
<path d="M167.696 130.888C166.59 130.795 165.3 130.703 164.102 130.425C163.918 130.425 163.642 130.518 163.642 130.795C163.642 130.98 163.734 131.258 164.01 131.258C165.392 131.443 166.59 131.72 167.696 131.72C167.88 131.72 168.064 131.628 168.064 131.35C168.064 131.073 167.88 130.888 167.696 130.888Z" fill="#0064E1"/>
<path d="M175.343 127.003C175.343 126.818 175.159 126.633 174.883 126.633C174.698 126.633 174.514 126.818 174.514 127.095C174.514 127.188 174.514 127.28 174.514 127.28C174.514 127.928 174.422 128.483 174.053 128.945C173.593 129.87 172.579 130.333 171.105 130.61C170.921 130.61 170.736 130.795 170.736 131.073C170.736 131.258 170.921 131.443 171.105 131.443C171.105 131.443 171.105 131.443 171.197 131.443C172.763 131.073 174.053 130.425 174.606 129.408C174.975 128.853 175.159 128.205 175.159 127.373C175.343 127.28 175.343 127.095 175.343 127.003Z" fill="#0064E1"/>
<path d="M167.235 114.423C167.143 114.33 166.775 114.33 166.682 114.423C166.59 114.515 166.59 114.885 166.682 114.978C167.604 115.903 168.525 116.828 169.262 117.66C169.354 117.753 169.447 117.753 169.447 117.753C169.539 117.753 169.631 117.753 169.631 117.66C169.723 117.568 169.815 117.29 169.631 117.105C168.986 116.273 168.157 115.348 167.235 114.423Z" fill="#0064E1"/>
<path d="M164.287 112.388C164.379 112.388 164.471 112.388 164.471 112.295C164.563 112.203 164.563 111.833 164.471 111.74C163.55 110.908 162.629 110.075 161.615 109.243C161.523 109.15 161.154 109.15 161.062 109.243C160.97 109.428 160.97 109.705 161.062 109.798C162.076 110.723 162.997 111.463 163.919 112.295C164.011 112.388 164.195 112.388 164.287 112.388Z" fill="#0064E1"/>
<path d="M133.052 117.568C132.039 116.92 130.933 116.365 129.736 115.625C129.551 115.533 129.275 115.625 129.183 115.718C129.091 115.903 129.183 116.18 129.275 116.273C130.288 116.92 131.394 117.475 132.592 118.215C132.592 118.215 132.684 118.215 132.776 118.215C132.868 118.215 132.96 118.123 133.145 118.03C133.237 117.845 133.237 117.568 133.052 117.568Z" fill="#0064E1"/>
<path d="M153.23 127.28C152.125 126.818 150.835 126.355 149.729 125.893C149.545 125.8 149.269 125.893 149.269 126.078C149.176 126.263 149.269 126.54 149.453 126.54C150.558 127.003 151.848 127.465 152.954 127.928H153.046C153.138 127.928 153.415 127.835 153.415 127.743C153.599 127.465 153.415 127.28 153.23 127.28Z" fill="#0064E1"/>
<path d="M139.686 121.083C138.58 120.528 137.567 119.973 136.369 119.418C136.185 119.325 135.908 119.418 135.908 119.51C135.816 119.695 135.908 119.973 136 119.973C137.106 120.528 138.212 121.083 139.41 121.638C139.41 121.638 139.502 121.638 139.594 121.638C139.686 121.638 139.778 121.545 139.962 121.453C139.87 121.453 139.778 121.268 139.686 121.083Z" fill="#0064E1"/>
<path d="M146.32 124.32C145.214 123.858 144.109 123.303 142.911 122.748C142.727 122.655 142.45 122.748 142.45 122.933C142.358 123.118 142.45 123.395 142.634 123.395C143.74 123.95 144.846 124.413 146.044 124.968H146.136C146.228 124.968 146.32 124.875 146.504 124.783C146.689 124.598 146.596 124.413 146.32 124.32Z" fill="#0064E1"/>
<path d="M109.005 132.46C107.807 132.923 106.609 133.108 105.504 133.478C105.319 133.478 105.135 133.663 105.319 133.94C105.319 134.125 105.504 134.125 105.688 134.125C106.794 133.755 108.084 133.478 109.189 133.108C109.374 133.108 109.558 132.923 109.374 132.645C109.374 132.46 109.189 132.46 109.005 132.46Z" fill="#0054A3"/>
<path d="M102.003 134.218C100.805 134.403 99.5152 134.68 98.4096 134.773C98.2253 134.773 98.041 134.958 98.041 135.235C98.041 135.513 98.2253 135.605 98.4096 135.605C99.5152 135.513 100.805 135.42 102.003 135.05C102.187 135.05 102.371 134.865 102.187 134.588C102.464 134.403 102.187 134.218 102.003 134.218Z" fill="#0054A3"/>
<path d="M122.457 127.003C121.352 127.558 120.246 128.02 119.14 128.482C118.956 128.575 118.956 128.852 118.956 128.945C118.956 129.037 119.14 129.13 119.325 129.13C119.325 129.13 119.417 129.13 119.509 129.13C120.522 128.668 121.628 128.112 122.826 127.65C123.01 127.557 123.01 127.28 123.01 127.187C122.918 127.002 122.642 127.003 122.457 127.003Z" fill="#0054A3"/>
<path d="M115.731 129.962C114.625 130.425 113.52 130.887 112.322 131.165C112.138 131.257 112.138 131.35 112.138 131.627C112.138 131.72 112.322 131.812 112.506 131.812H112.598C113.704 131.35 114.81 130.887 116.007 130.61C116.192 130.517 116.192 130.425 116.192 130.147C116.192 129.87 116.007 129.87 115.731 129.962Z" fill="#0054A3"/>
<path d="M154.613 86.21H154.705C155.903 85.84 157.101 85.5625 158.206 85.285C158.39 85.285 158.575 85.1 158.39 84.8225C158.39 84.6375 158.206 84.4525 157.93 84.6375C156.824 84.8225 155.534 85.1925 154.429 85.5625C154.244 85.5625 154.06 85.7475 154.244 86.025C154.244 86.1175 154.336 86.1175 154.613 86.21Z" fill="#0054A3"/>
<path d="M128.999 123.858C127.985 124.413 126.879 124.968 125.866 125.523C125.682 125.615 125.682 125.893 125.682 125.985C125.682 126.078 125.866 126.17 126.05 126.17C126.05 126.17 126.142 126.17 126.234 126.17C127.248 125.615 128.354 125.153 129.551 124.505C129.736 124.413 129.736 124.135 129.644 124.043C129.459 123.858 129.183 123.765 128.999 123.858Z" fill="#0054A3"/>
<path d="M101.45 115.903C101.358 115.81 101.082 115.718 100.897 115.903C99.976 116.828 99.0546 117.568 98.2254 118.4C98.1332 118.493 98.1332 118.77 98.2254 118.955C98.3175 119.048 98.3175 119.048 98.4096 119.048C98.5018 119.048 98.5939 119.048 98.5939 118.955C99.4231 118.123 100.252 117.29 101.174 116.458C101.542 116.365 101.542 116.18 101.45 115.903Z" fill="#0054A3"/>
<path d="M91.8675 126.817C91.6832 126.725 91.4068 126.817 91.4068 126.91C90.7618 128.112 90.3011 129.407 90.209 130.425C90.209 130.61 90.3011 130.887 90.5775 130.887C90.7618 130.887 90.9461 130.795 90.9461 130.517C91.0382 129.592 91.4989 128.482 92.1439 127.187C92.0517 127.095 91.9596 126.91 91.8675 126.817Z" fill="#0054A3"/>
<path d="M94.9076 134.865C93.5255 134.68 92.4199 134.31 91.7749 133.755C91.6828 133.662 91.3142 133.662 91.3142 133.755C91.2221 133.847 91.2221 134.217 91.3142 134.217C92.1435 134.865 93.3412 135.327 94.9076 135.605C95.0918 135.605 95.2761 135.512 95.2761 135.235C95.2761 134.957 95.0918 134.865 94.9076 134.865Z" fill="#0054A3"/>
<path d="M95.6455 120.99C94.7242 122.008 93.9871 122.933 93.25 123.858C93.1578 124.043 93.1578 124.32 93.3421 124.32C93.3421 124.32 93.4343 124.413 93.5264 124.413C93.6185 124.413 93.7107 124.413 93.8949 124.32C94.5399 123.395 95.3691 122.47 96.2905 121.453C96.3826 121.36 96.3826 121.083 96.2905 120.898C96.0141 120.898 95.8298 120.898 95.6455 120.99Z" fill="#0054A3"/>
<path d="M147.61 112.48C146.597 113.128 145.675 113.868 144.57 114.515C144.385 114.608 144.385 114.885 144.478 114.978C144.478 115.07 144.662 115.163 144.662 115.163C144.662 115.163 144.754 115.163 144.846 115.163C145.86 114.515 146.873 113.775 147.887 113.128C148.071 113.035 148.071 112.758 147.979 112.665C148.071 112.388 147.794 112.388 147.61 112.48Z" fill="#0054A3"/>
<path d="M165.301 83.7125C164.288 83.7125 162.906 83.7125 161.616 83.8975C161.431 83.8975 161.247 84.0825 161.247 84.36C161.247 84.6375 161.431 84.73 161.616 84.73C162.998 84.545 164.103 84.545 165.209 84.545C165.393 84.545 165.578 84.4525 165.578 84.175C165.67 83.99 165.485 83.7125 165.301 83.7125Z" fill="#0054A3"/>
<path d="M164.288 98.605C163.458 99.53 162.629 100.27 161.708 101.195C161.616 101.288 161.616 101.565 161.708 101.75C161.8 101.843 161.892 101.843 161.892 101.843C161.984 101.843 162.076 101.843 162.076 101.75C162.998 100.825 163.919 100.085 164.656 99.16C164.748 99.0675 164.748 98.79 164.656 98.605C164.656 98.5125 164.38 98.5125 164.288 98.605Z" fill="#0054A3"/>
<path d="M169.263 92.7775C169.079 92.685 168.803 92.7775 168.803 92.87C168.25 93.795 167.605 94.8125 166.683 95.83C166.591 95.9225 166.591 96.2925 166.683 96.2925C166.683 96.2925 166.775 96.385 166.868 96.385C166.96 96.385 167.052 96.385 167.236 96.2925C168.158 95.275 168.803 94.2575 169.355 93.24C169.447 93.1475 169.355 92.9625 169.263 92.7775Z" fill="#0054A3"/>
<path d="M170.737 86.1175C170.369 85.47 169.816 85.0075 169.079 84.6375C168.895 84.545 168.618 84.6375 168.618 84.8225C168.526 85.0075 168.618 85.285 168.802 85.285C169.447 85.655 169.908 86.1175 170.277 86.4875C170.645 86.8575 170.737 87.5975 170.737 88.3375C170.737 88.8 170.645 89.2625 170.553 89.8175C170.553 90.0025 170.553 90.28 170.737 90.28C170.737 90.28 170.737 90.28 170.829 90.28C171.014 90.28 171.198 90.1875 171.198 90.095C171.382 89.54 171.382 88.985 171.382 88.5225C171.29 87.505 171.014 86.6725 170.737 86.1175Z" fill="#0054A3"/>
<path d="M141.622 116.458C140.608 117.105 139.595 117.66 138.581 118.4C138.397 118.493 138.397 118.77 138.489 118.863C138.489 118.955 138.674 119.048 138.858 119.048C139.042 119.048 138.95 119.048 139.042 119.048C140.056 118.4 141.161 117.845 142.083 117.105C142.267 117.013 142.267 116.735 142.175 116.643C141.898 116.458 141.714 116.458 141.622 116.458Z" fill="#0054A3"/>
<path d="M159.128 103.6C158.206 104.432 157.285 105.172 156.271 106.005C156.179 106.097 156.087 106.375 156.271 106.467C156.364 106.56 156.456 106.56 156.456 106.56C156.548 106.56 156.64 106.56 156.64 106.467C157.653 105.635 158.575 104.895 159.496 104.062C159.588 103.97 159.681 103.692 159.496 103.6C159.404 103.415 159.22 103.415 159.128 103.6Z" fill="#0054A3"/>
<path d="M135.264 120.342C134.25 120.99 133.145 121.545 132.131 122.192C131.947 122.285 131.947 122.562 132.039 122.655C132.039 122.747 132.223 122.84 132.408 122.84C132.408 122.84 132.5 122.84 132.592 122.84C133.605 122.285 134.711 121.73 135.725 120.99C135.909 120.897 135.909 120.62 135.817 120.527C135.725 120.25 135.54 120.25 135.264 120.342Z" fill="#0054A3"/>
<path d="M153.416 108.225C152.494 108.873 151.481 109.705 150.467 110.353C150.283 110.445 150.283 110.723 150.375 110.815C150.467 110.908 150.559 110.908 150.559 110.908C150.651 110.908 150.744 110.908 150.744 110.815C151.757 110.168 152.678 109.335 153.692 108.688C153.876 108.595 153.876 108.318 153.692 108.225C153.784 108.133 153.6 108.133 153.416 108.225Z" fill="#0054A3"/>
<path d="M182.069 111.74C186.852 111.74 190.73 107.847 190.73 103.045C190.73 98.2429 186.852 94.35 182.069 94.35C177.286 94.35 173.408 98.2429 173.408 103.045C173.408 107.847 177.286 111.74 182.069 111.74Z" fill="#EEEEEE"/>
<path d="M182.07 102.953C183.444 102.953 184.557 101.793 184.557 100.363C184.557 98.9321 183.444 97.7725 182.07 97.7725C180.696 97.7725 179.582 98.9321 179.582 100.363C179.582 101.793 180.696 102.953 182.07 102.953Z" stroke="white" stroke-miterlimit="10" stroke-linecap="round" stroke-linejoin="round"/>
<path d="M182.254 103.323C179.766 103.323 177.739 105.265 177.739 107.763V110.63C178.937 111.463 180.596 111.833 182.162 111.833C183.82 111.833 185.295 111.37 186.584 110.63V107.763C186.492 105.358 184.557 103.323 182.254 103.323Z" stroke="white" stroke-miterlimit="10" stroke-linecap="round" stroke-linejoin="round"/>
<path d="M84.865 137.733C89.6483 137.733 93.5259 133.84 93.5259 129.038C93.5259 124.235 89.6483 120.343 84.865 120.343C80.0817 120.343 76.2041 124.235 76.2041 129.038C76.2041 133.84 80.0817 137.733 84.865 137.733Z" fill="#EEEEEE"/>
<path d="M84.8647 129.13C86.2386 129.13 87.3524 127.97 87.3524 126.54C87.3524 125.11 86.2386 123.95 84.8647 123.95C83.4907 123.95 82.377 125.11 82.377 126.54C82.377 127.97 83.4907 129.13 84.8647 129.13Z" fill="#0064E1"/>
<path d="M84.9571 129.408C82.4694 129.408 80.4424 131.35 80.4424 133.848V136.715C81.6402 137.548 83.2986 137.918 84.865 137.918C86.4313 137.918 87.9976 137.455 89.2876 136.715V133.848C89.2876 131.35 87.3527 129.408 84.9571 129.408Z" fill="#0064E1"/>
<path d="M154.797 140.693C159.58 140.693 163.458 136.8 163.458 131.998C163.458 127.195 159.58 123.303 154.797 123.303C150.013 123.303 146.136 127.195 146.136 131.998C146.136 136.8 150.013 140.693 154.797 140.693Z" fill="#EEEEEE"/>
<path d="M154.796 131.997C156.17 131.997 157.284 130.838 157.284 129.407C157.284 127.977 156.17 126.818 154.796 126.818C153.422 126.818 152.309 127.977 152.309 129.407C152.309 130.838 153.422 131.997 154.796 131.997Z" fill="#DE051F"/>
<path d="M154.889 132.368C152.401 132.368 150.374 134.31 150.374 136.808V139.675C151.572 140.508 153.23 140.878 154.797 140.878C156.455 140.878 157.929 140.415 159.219 139.675V136.808C159.219 134.218 157.284 132.368 154.889 132.368Z" fill="#DE051F"/>
<path d="M164.84 81.1225C169.623 81.1225 173.501 77.2297 173.501 72.4275C173.501 67.6254 169.623 63.7325 164.84 63.7325C160.056 63.7325 156.179 67.6254 156.179 72.4275C156.179 77.2297 160.056 81.1225 164.84 81.1225Z" fill="#EEEEEE"/>
<path d="M167.327 69.8376C167.327 71.2251 166.221 72.4276 164.839 72.4276C163.457 72.4276 162.352 71.3176 162.352 69.8376C162.352 68.4501 163.457 67.2476 164.839 67.2476C166.221 67.3401 167.327 68.4501 167.327 69.8376Z" fill="#0054A3"/>
<path d="M164.932 72.7975C162.444 72.7975 160.417 74.74 160.417 77.2375V80.105C161.615 80.9375 163.273 81.3075 164.84 81.3075C166.406 81.3075 167.972 80.845 169.262 80.105V77.2375C169.354 74.6475 167.327 72.7975 164.932 72.7975Z" fill="#0054A3"/>
<path d="M91.1294 92.685C91.1294 97.5875 87.2597 101.38 82.4685 101.38C77.6774 101.38 73.8076 97.495 73.8076 92.685C73.8076 87.7825 77.6774 83.9901 82.4685 83.9901C87.2597 83.9901 91.1294 87.9675 91.1294 92.685Z" fill="#EEEEEE"/>
<path d="M84.8651 90.095C84.8651 91.4825 83.7594 92.685 82.3774 92.685C80.9953 92.685 79.8896 91.575 79.8896 90.095C79.8896 88.7075 80.9953 87.505 82.3774 87.505C83.8515 87.5975 84.8651 88.7075 84.8651 90.095Z" fill="#EE384E"/>
<path d="M82.4688 93.0551C79.9811 93.0551 77.9541 94.9976 77.9541 97.4951V100.363C79.1519 101.195 80.8104 101.565 82.3767 101.565C83.943 101.565 85.5094 101.103 86.7993 100.363V97.4951C86.8914 95.0901 84.8644 93.0551 82.4688 93.0551Z" fill="#EE384E"/>
<path d="M122.457 70.0225H120.798V68.3576C120.798 68.1726 120.706 67.9875 120.43 67.9875C120.245 67.9875 120.061 68.0801 120.061 68.3576V70.0225H118.403C118.218 70.0225 118.034 70.115 118.034 70.3925C118.034 70.5775 118.126 70.7625 118.403 70.7625H120.061V72.4276C120.061 72.6126 120.153 72.7975 120.43 72.7975C120.614 72.7975 120.798 72.7051 120.798 72.4276V70.7625H122.457C122.641 70.7625 122.825 70.67 122.825 70.3925C122.733 70.115 122.641 70.0225 122.457 70.0225Z" fill="#2440AB"/>
<path d="M181.609 132.46H180.042V130.795C180.042 130.61 179.95 130.425 179.674 130.425C179.49 130.425 179.305 130.518 179.305 130.795V132.46H177.647C177.463 132.46 177.278 132.553 177.278 132.83C177.278 133.015 177.37 133.2 177.647 133.2H179.305V134.865C179.305 135.05 179.397 135.235 179.674 135.235C179.858 135.235 180.042 135.143 180.042 134.865V133.2H181.701C181.885 133.2 182.069 133.108 182.069 132.83C181.977 132.553 181.885 132.46 181.609 132.46Z" fill="#CD3B4E"/>
<path d="M81.087 76.405H80.0735V75.3875C80.0735 75.295 79.9814 75.2025 79.8892 75.2025C79.7971 75.2025 79.705 75.295 79.705 75.3875V76.405H78.5993C78.5072 76.405 78.415 76.4975 78.415 76.59C78.415 76.6825 78.5072 76.775 78.5993 76.775H79.6128V77.7925C79.6128 77.885 79.705 77.9775 79.7971 77.9775C79.8892 77.9775 79.9814 77.885 79.9814 77.7925V76.775H80.9949C81.087 76.775 81.1792 76.6825 81.1792 76.59C81.3634 76.4975 81.2713 76.405 81.087 76.405Z" fill="#2440AB"/>
<path d="M187.506 79.0875H186.492V78.07C186.492 77.9775 186.4 77.885 186.308 77.885C186.216 77.885 186.124 77.9775 186.124 78.07V79.0875H185.11C185.018 79.0875 184.926 79.18 184.926 79.2725C184.926 79.365 185.018 79.4575 185.11 79.4575H186.124V80.475C186.124 80.5675 186.216 80.66 186.308 80.66C186.4 80.66 186.492 80.5675 186.492 80.475V79.55H187.506C187.598 79.55 187.69 79.4575 187.69 79.365C187.782 79.18 187.782 79.0875 187.506 79.0875Z" fill="#2440AB"/>
<path d="M116.744 136.9H115.73V135.883C115.73 135.79 115.638 135.698 115.546 135.698C115.454 135.698 115.362 135.79 115.362 135.883V136.9H114.348C114.256 136.9 114.164 136.993 114.164 137.085C114.164 137.178 114.256 137.27 114.348 137.27H115.362V138.288C115.362 138.38 115.454 138.473 115.546 138.473C115.638 138.473 115.73 138.38 115.73 138.288V137.27H116.744C116.836 137.27 116.928 137.178 116.928 137.085C117.02 136.9 117.02 136.9 116.744 136.9Z" fill="white"/>
<path d="M88.8269 110.722H87.1684V109.058C87.1684 108.873 87.0763 108.688 86.7999 108.688C86.6156 108.688 86.4313 108.78 86.4313 109.058V110.722H84.7728C84.5886 110.722 84.4043 110.815 84.4043 111.092C84.4043 111.277 84.4964 111.463 84.7728 111.463H86.4313V113.128C86.4313 113.313 86.5235 113.497 86.7999 113.497C86.9841 113.497 87.1684 113.405 87.1684 113.128V111.463H88.8269C89.0112 111.463 89.1954 111.37 89.1954 111.092C89.2876 110.907 89.0112 110.722 88.8269 110.722Z" fill="#CD3B4E"/>
<path d="M78.692 16.28C78.692 16.28 83.2988 14.615 83.7595 18.9625C83.7595 18.9625 84.9573 22.1075 86.1551 22.6625C87.3529 23.2175 90.2091 24.3275 89.5642 28.3975C88.9192 32.4675 87.7214 32.2825 88.1821 34.595C88.6428 36.9075 87.5371 37.185 85.7865 37.2775C84.1281 37.37 83.6674 35.7975 83.6674 35.7975L84.1281 30.4325L83.1146 21.9225L79.6133 20.535C79.6133 20.535 77.7706 18.315 77.6785 17.39C77.4942 16.65 78.692 16.28 78.692 16.28Z" fill="#1B1156"/>
<path d="M79.2442 15.0775C79.2442 15.0775 79.8891 15.91 79.797 16.0025C79.6127 16.095 77.6778 17.1125 77.6778 17.1125C77.6778 17.1125 77.125 16.0025 77.125 15.6325C77.2171 15.4475 79.2442 15.0775 79.2442 15.0775Z" fill="#CB4F59"/>
<path d="M66.9899 9.43504C66.8978 9.43504 66.8057 9.52754 66.8057 9.62004C66.8057 10.6375 66.9899 15.54 68.9248 17.2975C68.9248 17.2975 69.9383 18.5 71.8732 18.13C71.8732 18.13 73.5317 17.1125 73.3474 19.1475C73.1631 21.275 73.9924 23.31 74.5452 23.68C75.098 24.05 78.1385 23.2175 78.6914 22.015C79.1521 21.1825 79.3363 20.8125 79.5206 20.6275C79.5206 20.535 79.5206 20.4425 79.5206 20.4425C79.0599 19.98 77.5857 18.2225 76.9408 15.725C76.1115 12.765 76.5722 10.0825 73.9002 9.52754C71.6889 8.88004 67.8192 9.34254 66.9899 9.43504Z" fill="#FFBF99"/>
<path d="M64.4099 9.25002V9.06502C64.4099 8.88002 64.4099 8.51002 64.4099 8.14002C64.502 7.21502 64.7784 6.29002 65.4234 5.73502C65.9762 5.27252 66.6212 5.08752 67.3583 5.08752C67.4504 5.08752 67.7268 5.08752 67.8189 4.90252C68.2796 4.34752 69.7538 2.96002 71.7808 2.96002C74.2685 2.96002 78.4147 4.34752 79.5204 8.51002C79.6125 8.69502 81.1788 15.4475 77.954 15.6325C74.6371 15.8175 73.3472 14.1525 73.4393 12.6725C73.4393 12.6725 75.0056 9.71252 72.3337 10.545C72.3337 10.545 69.4774 11.1 67.4504 9.89752C67.2661 9.80502 66.8976 9.89752 66.8054 10.0825C66.3447 10.73 65.6998 11.7475 64.8705 11.0075C64.6863 10.6375 64.3177 10.36 64.2256 9.89752C64.4099 9.71252 64.4099 9.43502 64.4099 9.25002Z" fill="#1B1156"/>
<path d="M79.7047 20.4425C79.7047 20.4425 78.1383 23.0325 75.8349 23.0325C73.6236 23.0325 73.3472 20.6275 73.3472 20.6275C73.3472 20.6275 68.7403 24.79 68.7403 27.6575C68.7403 30.525 69.7538 30.0625 69.9381 30.9875C70.1224 31.9125 68.3718 41.7175 68.3718 41.7175L68.1875 42.2725L81.3631 44.1225C81.3631 44.1225 81.916 41.995 82.2845 41.255C82.653 40.6075 84.4958 23.2175 84.4958 23.2175L83.5744 22.2925C83.4823 22.385 82.0081 20.6275 79.7047 20.4425Z" fill="#0064E1"/>
<path d="M80.2574 33.115C80.1653 33.115 80.0731 33.115 80.0731 33.2075L79.8889 36.5375C79.8889 37 79.7967 37.4625 79.336 37.37C79.1518 37.2775 78.7832 37.185 78.3225 36.9075C76.8483 36.075 72.4257 33.855 71.1358 33.3C70.9516 33.2075 70.6751 32.93 70.583 32.745C70.4909 32.2825 70.1223 31.7275 69.2009 31.5425C68.0032 31.1725 65.6997 31.1725 65.6076 31.45C65.5155 31.7275 65.239 32.6525 65.4233 33.0225C65.5155 33.3925 66.6211 33.0225 66.6211 33.0225C66.6211 33.0225 68.6481 32.6525 68.0953 33.3925C67.7267 33.855 67.2661 33.855 66.9896 33.855C66.8975 33.855 66.8054 34.04 66.8975 34.04C67.0818 34.225 67.7267 34.5025 68.4638 34.595C69.7538 34.6875 80.3496 41.625 80.3496 41.625C80.3496 41.625 82.3766 43.1975 83.6665 39.035C84.5879 35.89 85.0485 34.595 85.1407 34.3175C85.1407 34.225 85.1407 34.1325 85.0485 34.1325L80.2574 33.115Z" fill="#FFBF99"/>
<path d="M85.5093 30.9875C85.5093 30.9875 86.7071 22.385 83.4823 21.9225C80.1653 21.46 80.1653 24.1425 80.0732 28.12C79.981 32.0975 80.0732 33.2075 80.0732 33.2075L85.1407 34.3175L85.5093 30.9875Z" fill="#0054A3"/>
<path d="M62.752 37.6475L68.7409 40.145L69.3858 36.445L66.8981 36.26L62.752 37.6475Z" fill="#FFBF99"/>
<path d="M58.6054 25.6225L49.1152 25.0675L58.8818 37.555L68.0034 37.8325L58.6054 25.6225Z" fill="#1A1155"/>
<path d="M68.1879 42.2725L49.5762 49.3025C49.5762 49.3025 47.1806 49.765 46.6278 55.9625C46.0749 62.16 45.6143 83.065 45.6143 83.065V83.7125L50.2211 83.805L52.6167 61.6975L63.581 48.47L72.5183 42.92L68.1879 42.2725Z" fill="#EE384E"/>
<path d="M81.4561 43.66L72.4266 42.8275L53.5385 52.355C53.5385 52.355 48.4709 55.4075 51.6957 60.865C55.0127 66.415 64.1343 83.065 64.1343 83.065L67.2669 80.66L59.1588 58.09C59.1588 58.09 58.9746 56.98 61.6466 56.7025C64.2264 56.5175 76.1121 55.315 77.6784 55.2225C77.7706 55.2225 77.8627 55.2225 78.047 55.13C78.9684 54.76 82.6538 53.0025 81.4561 46.62L81.3639 43.9375L81.4561 43.66Z" fill="#DE051F"/>
<path d="M45.6143 83.7125L41.5602 86.1175C41.376 86.21 41.0996 86.3025 40.9153 86.3025C40.4546 86.3025 39.7175 86.4875 39.7175 87.2275C39.7175 87.2275 39.6254 87.875 41.5602 87.7825C43.4951 87.69 49.6683 87.69 49.6683 87.69C49.6683 87.69 50.4976 87.505 50.3133 85.7475L50.2211 83.805L45.6143 83.7125Z" fill="black"/>
<path d="M64.1337 83.065C64.1337 83.065 64.1337 84.0825 63.1202 85.5625C62.5674 86.395 61.9224 87.135 61.2774 87.9675C61.0932 88.1525 60.9089 88.3375 60.8167 88.615C60.8167 88.8 60.7246 88.985 60.7246 89.0775C60.7246 89.17 60.7246 89.4475 60.9089 89.54C61.0932 89.6325 61.4617 89.6325 61.7381 89.54C61.8303 89.54 61.8303 89.54 61.9224 89.54C63.4887 88.985 68.2799 85.1 69.2934 84.36C69.3855 84.2675 69.4776 84.175 69.4776 83.8975C69.4776 83.5275 69.4776 82.88 69.017 82.4175C68.372 81.77 67.2664 80.66 67.2664 80.66L64.1337 83.065Z" fill="black"/>
<path d="M216.989 181.115C222.383 181.115 226.756 180.08 226.756 178.803C226.756 177.525 222.383 176.49 216.989 176.49C211.595 176.49 207.223 177.525 207.223 178.803C207.223 180.08 211.595 181.115 216.989 181.115Z" fill="#E7E6EC"/>
<path d="M202.524 150.775C202.524 150.775 204.459 150.035 204.275 147.723C204.183 145.503 203.077 143.93 205.38 144.67C207.684 145.225 208.513 145.688 210.264 145.225C211.922 144.855 213.304 144.115 212.567 146.335C211.83 148.555 211.001 150.313 212.751 150.683C214.41 151.053 216.437 149.665 216.621 153.088C216.805 156.51 214.041 160.303 209.711 160.58C205.288 160.673 203.261 158.915 203.261 158.915C203.261 158.915 202.063 157.25 203.998 156.788C205.749 156.325 207.776 155.585 206.762 154.66C205.749 153.735 202.8 153.643 202.8 153.643C202.8 153.643 198.654 153.088 202.524 150.775Z" fill="#0064E1"/>
<path d="M222.887 151.33C222.518 149.11 222.794 147.538 226.848 146.983C230.995 146.428 233.298 148.74 233.482 151.33C233.667 153.92 230.258 154.753 230.258 154.753C230.258 154.753 227.678 155.493 229.06 157.62C230.35 159.84 230.81 161.875 228.046 162.338C225.19 162.708 222.149 161.875 220.307 160.765C218.648 159.655 216.713 156.603 218.74 155.03C218.74 155.03 219.293 154.66 221.32 154.568C223.071 154.383 222.887 151.33 222.887 151.33Z" fill="#0054A3"/>
<path d="M208.697 151.145C208.697 151.145 212.106 158.73 212.475 164.003" stroke="#A0D8FD" stroke-miterlimit="10" stroke-linecap="round" stroke-linejoin="round"/>
<path d="M227.217 152.255C227.217 152.255 221.32 161.135 219.754 164.095" stroke="#719DD1" stroke-miterlimit="10" stroke-linecap="round" stroke-linejoin="round"/>
<path d="M209.987 166.87L212.106 178.895H221.32L222.887 169.83L210.079 166.87H209.987Z" fill="#0064E1"/>
<path d="M210.079 166.87L222.886 169.83L223.347 166.87H210.079Z" fill="#0064B7"/>
<path d="M215.976 163.725C215.976 163.725 216.713 150.313 220.675 141.988" stroke="#FCBE42" stroke-width="0.5" stroke-miterlimit="10"/>
<path d="M223.992 137.085C223.992 137.085 224.361 141.248 220.307 142.82C220.214 142.82 219.293 139.305 223.992 137.085Z" fill="#FCBE42"/>
<path d="M217.911 150.128C217.911 150.128 219.385 146.52 223.808 147.075C223.992 147.168 223.624 150.59 217.911 150.128Z" fill="#FCBE42"/>
<path d="M216.437 159.008C216.437 159.008 217.174 155.215 221.78 154.845C221.78 154.845 221.965 158.268 216.437 159.008Z" fill="#FCBE42"/>
<path d="M216.252 159.008C216.252 159.008 216.713 155.215 212.567 153.273C212.659 153.273 211.185 156.51 216.252 159.008Z" fill="#FCBE42"/>
<path d="M217.911 150.128C217.911 150.128 218.924 146.428 215.055 144.023C215.147 144.023 213.304 146.89 217.911 150.128Z" fill="#FCBE42"/>
<path d="M210.448 163.263H223.992C223.992 163.263 225.467 163.355 225.282 165.483C225.19 167.24 222.703 166.963 221.505 166.963C220.307 166.963 209.988 166.963 209.988 166.963C209.988 166.963 208.329 167.148 208.329 165.39C208.421 163.448 209.066 163.263 210.448 163.263Z" fill="#0064E1"/>
<path d="M46.7928 125.901L43.7764 126.75L44.6222 129.779L47.6386 128.929L46.7928 125.901Z" fill="#2440AB"/>
<path d="M125.957 79.55C124.483 80.29 123.654 81.8625 123.654 81.8625L111.952 102.305C111.952 102.305 111.4 103.508 111.492 104.618H124.667L132.407 91.0201L125.957 79.55Z" fill="#319F4F"/>
<path d="M138.857 79.55C140.331 80.29 141.16 81.8625 141.16 81.8625L152.862 102.305C153.322 103.23 153.415 103.97 153.415 104.618H140.147L132.407 91.1125L138.857 79.55Z" fill="#F5BC0F"/>
<path d="M146.872 116.273C145.583 117.013 144.016 116.92 144.016 116.92H120.521C119.508 116.92 118.771 116.55 118.218 116.273L124.76 104.803H140.239L146.872 116.273Z" fill="#3D80B9"/>
<path d="M146.78 116.273L140.238 104.71H153.598C153.598 105.358 153.414 105.913 153.414 106.283C153.414 106.375 153.322 106.468 153.322 106.653C153.322 106.838 153.23 106.838 153.137 107.023C153.137 107.023 150.281 111.925 148.899 114.515C148.715 114.885 148.531 115.07 148.438 115.163C148.254 115.07 147.701 115.995 146.78 116.273Z" fill="#E84335"/>
<path d="M111.584 104.71C111.584 104.71 111.676 105.635 112.045 106.468C112.413 107.393 116.559 114.238 116.928 115.07C117.481 115.625 118.034 116.088 118.126 116.18L124.667 104.71H111.584Z" fill="#1F64AB"/>
<path d="M125.865 79.7351C125.865 79.7351 126.418 79.2726 127.892 79.1801C127.984 79.1801 128.077 79.1801 128.077 79.1801C128.077 79.1801 133.973 79.1801 136.737 79.1801C136.83 79.1801 136.922 79.1801 136.922 79.1801C137.382 79.1801 138.396 79.2726 138.949 79.7351L132.499 91.2051L125.865 79.7351Z" fill="#198038"/>
</g>
<defs>
<clipPath id="clip0_1409_4158">
<rect width="230.343" height="185" fill="white" transform="translate(20)"/>
</clipPath>
</defs>
</svg>
