<svg width="270" height="186" viewBox="0 0 270 186" fill="none" xmlns="http://www.w3.org/2000/svg">
<g clip-path="url(#clip0_2094_411)">
<path d="M102.93 11.6365C102.93 11.6365 99.5143 14.4495 102.735 15.7105C106.054 16.9715 107.322 18.5235 105.663 21.6275C103.809 24.7315 104.394 27.1565 106.054 28.3205C107.908 29.4845 111.324 31.2305 108.591 35.2075C105.858 39.2815 101.369 47.4295 96.5864 45.1985C91.7064 42.9675 89.364 35.0135 91.316 31.9095C93.268 28.8055 96.4888 27.9325 94.8296 24.3435C93.3656 20.7545 89.9496 22.5005 89.852 18.3295C89.7544 14.0615 89.1688 9.69647 95.1224 8.33847C100.198 7.07747 104.297 9.59947 102.93 11.6365Z" stroke="#1C4599" stroke-miterlimit="10"/>
<path d="M98.2441 14.3525C98.2441 14.3525 98.8297 41.2215 100.391 47.9145" stroke="#1C4599" stroke-miterlimit="10"/>
<path d="M104.297 31.3276L99.124 36.1776L93.9512 33.3646" stroke="#1C4599" stroke-miterlimit="10"/>
<path d="M102.831 18.8145L98.634 21.8215L93.8516 19.9785" stroke="#1C4599" stroke-miterlimit="10"/>
<path d="M114.348 11.9277C114.348 11.9277 122.546 14.4497 120.302 18.1357C117.862 21.7247 119.228 23.2767 120.887 24.6347C122.351 25.9927 126.158 27.5447 123.327 31.2307C120.497 34.9167 117.667 35.6927 117.862 38.2147C118.057 40.7367 115.422 50.9217 111.615 48.5937C107.711 46.3627 107.419 40.2517 108.004 37.5357C108.59 35.0137 106.15 32.1037 103.905 30.1637C101.66 28.3207 100.391 24.6347 103.807 23.4707C107.321 22.2097 108.98 18.6207 107.906 16.0987C106.345 13.7707 108.785 10.3757 114.348 11.9277Z" fill="#FABD41"/>
<path d="M113.568 17.4565L109.469 51.8915" stroke="white" stroke-miterlimit="10" stroke-linecap="round" stroke-linejoin="round"/>
<path d="M119.326 28.0297L111.811 31.4247L105.369 25.9927" stroke="white" stroke-miterlimit="10" stroke-linecap="round" stroke-linejoin="round"/>
<path d="M75.8944 16.6803C75.8944 16.6803 72.576 14.2553 74.7232 11.4423C76.7728 8.62935 82.0432 8.62935 83.1168 11.3453C84.288 13.8673 82.7264 15.8073 85.0688 16.1953C87.3136 16.5833 93.4624 18.6203 92.2912 21.5303C91.0224 24.4403 87.4112 24.6343 88.9728 28.5143C90.4368 32.3943 98.0496 33.0733 94.1456 38.5053C90.2416 43.8403 81.1648 51.2123 76.48 41.9973C71.9904 32.7823 81.9456 34.6253 76.5776 28.7083C71.2096 22.7913 75.6992 22.5973 77.1632 20.3663C78.5296 17.8443 75.8944 16.6803 75.8944 16.6803Z" fill="#ED3B4E"/>
<path d="M82.043 20.0752C82.043 20.0752 82.6286 30.7452 86.3374 39.5722C90.0462 48.3992 92.3886 49.5632 92.3886 49.5632" stroke="white" stroke-miterlimit="10" stroke-linecap="round" stroke-linejoin="round"/>
<path d="M66.3229 38.1364C66.5243 37.4314 66.625 36.6256 66.625 35.8199C66.625 30.1797 61.992 25.446 56.2511 25.446C55.3447 25.446 54.4382 25.5467 53.5318 25.8489C51.8196 22.8273 48.5966 20.813 44.87 20.813C39.6327 20.813 35.3019 24.9424 34.9997 30.079C34.4961 29.9783 33.9926 29.9783 33.489 29.9783C29.2588 29.9783 25.9352 33.1005 25.4316 37.1292C23.0143 37.1292 21 39.1436 21 41.6615C21 44.1794 23.0143 46.1938 25.5323 46.1938H63.4021C65.92 46.1938 67.9343 44.1794 67.9343 41.6615C68.0351 40.1507 67.33 38.9421 66.3229 38.1364Z" stroke="#003EAE" stroke-width="0.370285" stroke-miterlimit="10"/>
<path d="M38.7266 53.7476V64.2222" stroke="#003EAE" stroke-width="0.370285" stroke-miterlimit="10"/>
<path d="M38.7266 47.5029V51.6323" stroke="#003EAE" stroke-width="0.370285" stroke-miterlimit="10"/>
<path d="M38.7266 43.5752V45.791" stroke="#003EAE" stroke-width="0.370285" stroke-miterlimit="10"/>
<path d="M36.8105 63.0137L38.7242 65.4309L40.7385 63.0137" stroke="#003EAE" stroke-width="0.370285" stroke-miterlimit="10"/>
<path d="M45.4727 58.1792V68.6538" stroke="#003EAE" stroke-width="0.370285" stroke-miterlimit="10"/>
<path d="M45.4727 51.9346V56.1647" stroke="#003EAE" stroke-width="0.370285" stroke-miterlimit="10"/>
<path d="M45.4727 48.1074V50.3232" stroke="#003EAE" stroke-width="0.370285" stroke-miterlimit="10"/>
<path d="M43.459 67.4453L45.4733 69.9632L47.4877 67.4453" stroke="#003EAE" stroke-width="0.370285" stroke-miterlimit="10"/>
<path d="M51.8184 49.4165V59.8911" stroke="#003EAE" stroke-width="0.370285" stroke-miterlimit="10"/>
<path d="M51.8184 43.1719V47.402" stroke="#003EAE" stroke-width="0.370285" stroke-miterlimit="10"/>
<path d="M51.8184 39.2441V41.5606" stroke="#003EAE" stroke-width="0.370285" stroke-miterlimit="10"/>
<path d="M49.8047 58.6826L51.819 61.0998L53.7327 58.6826" stroke="#003EAE" stroke-width="0.370285" stroke-miterlimit="10"/>
<path d="M202.494 131.602C202.293 130.897 202.192 130.091 202.192 129.286C202.192 123.646 206.825 118.912 212.566 118.912C213.472 118.912 214.379 119.013 215.285 119.315C216.997 116.293 220.22 114.279 223.947 114.279C229.184 114.279 233.515 118.408 233.817 123.545C234.321 123.444 234.824 123.444 235.328 123.444C239.558 123.444 242.882 126.566 243.385 130.595C245.803 130.595 247.817 132.609 247.817 135.127C247.817 137.645 245.803 139.66 243.285 139.66H205.415C202.897 139.66 200.883 137.645 200.883 135.127C200.681 133.717 201.487 132.408 202.494 131.602Z" stroke="#EE384E" stroke-width="0.370285" stroke-miterlimit="10"/>
<path d="M228.379 143.487V133.012" stroke="#EE384E" stroke-width="0.370285" stroke-miterlimit="10"/>
<path d="M228.379 149.731V145.602" stroke="#EE384E" stroke-width="0.370285" stroke-miterlimit="10"/>
<path d="M228.379 153.66V151.444" stroke="#EE384E" stroke-width="0.370285" stroke-miterlimit="10"/>
<path d="M230.293 134.322L228.38 131.804L226.365 134.322" stroke="#EE384E" stroke-width="0.370285" stroke-miterlimit="10"/>
<path d="M221.631 139.055V128.581" stroke="#EE384E" stroke-width="0.370285" stroke-miterlimit="10"/>
<path d="M221.631 145.299V141.069" stroke="#EE384E" stroke-width="0.370285" stroke-miterlimit="10"/>
<path d="M221.631 149.228V146.911" stroke="#EE384E" stroke-width="0.370285" stroke-miterlimit="10"/>
<path d="M223.646 129.789L221.632 127.372L219.617 129.789" stroke="#EE384E" stroke-width="0.370285" stroke-miterlimit="10"/>
<path d="M215.285 147.817V137.343" stroke="#EE384E" stroke-width="0.370285" stroke-miterlimit="10"/>
<path d="M215.285 154.062V149.933" stroke="#EE384E" stroke-width="0.370285" stroke-miterlimit="10"/>
<path d="M215.285 157.99V155.674" stroke="#EE384E" stroke-width="0.370285" stroke-miterlimit="10"/>
<path d="M217.299 138.552L215.285 136.134L213.371 138.552" stroke="#EE384E" stroke-width="0.370285" stroke-miterlimit="10"/>
<path d="M211.036 15C212.547 15 214.057 15 215.568 15C215.568 15 215.669 15 215.77 15.1007C216.877 15.3022 217.381 15.9065 217.582 17.0143C217.683 18.0215 217.885 19.1294 217.985 20.1366C218.086 20.6402 218.892 20.9423 219.395 20.6402C220.201 20.0359 221.108 19.2301 222.014 18.6258C223.021 17.9208 224.129 17.9208 225.036 18.7265C225.942 19.633 226.949 20.6402 227.856 21.6474C228.661 22.4531 228.661 23.6617 227.956 24.6689C227.453 25.3739 226.848 26.2804 226.244 26.9854C225.841 27.3882 225.741 27.7911 226.143 28.3954C226.244 28.4961 226.345 28.6976 226.546 28.6976C227.553 28.7983 228.762 28.9997 229.769 29.1004C230.575 29.2012 231.28 29.604 231.481 30.4098C231.582 30.6112 231.582 30.8126 231.683 31.1148C231.683 32.6256 231.683 34.1363 231.683 35.7478C231.683 35.8485 231.582 35.9492 231.582 36.0499C231.28 36.9564 230.776 37.5607 229.769 37.6614C228.762 37.7621 227.654 37.9636 226.647 38.0643C226.143 38.0643 225.741 38.9708 226.143 39.4743C226.748 40.2801 227.553 41.2873 228.158 42.093C228.863 42.9995 228.762 44.2081 228.057 45.1145C227.151 46.1217 226.143 47.1289 225.136 48.0353C224.331 48.8411 223.122 48.8411 222.115 48.136C221.208 47.5317 220.302 46.726 219.395 46.1217C219.093 45.8195 218.086 46.1217 217.985 46.6253C217.885 47.7332 217.683 48.8411 217.482 49.949C217.381 50.7547 216.877 51.4597 215.971 51.6612C215.87 51.6612 215.669 51.7619 215.467 51.8626C213.856 51.8626 212.345 51.8626 210.834 51.8626C210.834 51.8626 210.734 51.8626 210.734 51.7619C209.726 51.5604 209.122 50.9561 208.921 49.8482C208.82 48.8411 208.619 47.7332 208.518 46.8267C208.417 46.3231 207.611 45.9203 207.007 46.3231C206.201 46.9274 205.295 47.7332 204.388 48.2368C203.381 48.9418 202.273 48.9418 201.367 48.136C200.46 47.3303 199.554 46.3231 198.547 45.316C197.741 44.5102 197.741 43.3016 198.446 42.2944C198.95 41.5894 199.554 40.683 200.158 39.9779C200.561 39.5751 200.561 39.0715 200.259 38.5679C200.158 38.4672 200.058 38.2657 199.957 38.2657C198.95 38.165 197.842 37.9636 196.935 37.8629C195.525 37.7621 194.82 36.9564 194.82 35.5464C194.82 34.1363 194.82 32.827 194.82 31.4169C194.82 30.1076 195.525 29.3019 196.734 29.2012C197.741 29.1004 198.849 28.899 199.856 28.7983C200.36 28.7983 200.662 27.8918 200.36 27.3882C199.755 26.5825 198.95 25.5753 198.345 24.7696C197.64 23.8631 197.64 22.6545 198.446 21.7481C199.353 20.8416 200.36 19.8344 201.367 18.8273C202.173 18.0215 203.381 18.0215 204.388 18.7265C205.295 19.3308 206.201 20.1366 207.108 20.7409C207.41 21.043 208.417 20.7409 208.518 20.2373C208.619 19.2301 208.82 18.0215 209.021 17.0143C209.122 16.1079 209.626 15.5036 210.532 15.3022C210.633 15.1007 210.834 15.1007 211.036 15ZM226.143 23.4603C225.237 22.5538 224.331 21.5466 223.323 20.6402C222.014 21.5466 220.805 22.5538 219.496 23.4603C219.295 23.561 219.093 23.561 218.892 23.4603C218.086 23.0574 217.18 22.7552 216.374 22.3524C216.072 22.2517 215.87 22.0502 215.87 21.7481C215.669 20.2373 215.467 18.7265 215.266 17.2158C215.266 17.0143 215.165 16.9136 214.964 16.9136C213.957 16.9136 212.849 16.9136 211.842 16.9136C211.539 16.9136 211.539 17.0143 211.439 17.2158C211.237 18.7265 211.036 20.2373 210.834 21.7481C210.834 22.0502 210.734 22.1509 210.331 22.2517C209.525 22.5538 208.619 22.856 207.813 23.2588C207.511 23.3595 207.309 23.3595 207.108 23.2588C205.799 22.3524 204.59 21.3452 203.381 20.5395C202.475 21.4459 201.468 22.4531 200.561 23.3595C200.561 23.4603 200.662 23.561 200.763 23.6617C201.568 24.7696 202.475 25.8775 203.281 26.9854C203.381 27.0861 203.381 27.2875 203.381 27.489C202.978 28.3954 202.576 29.4026 202.072 30.3091C202.072 30.4098 201.871 30.6112 201.77 30.6112C200.964 30.7119 200.058 30.8126 199.252 30.9134C198.446 31.0141 197.54 31.1148 196.734 31.2155C196.734 32.6256 196.734 33.8342 196.734 35.1435C196.835 35.1435 197.036 35.2442 197.238 35.2442C198.748 35.4456 200.158 35.6471 201.669 35.8485C201.971 35.8485 202.072 35.9492 202.173 36.2514C202.475 37.0571 202.777 37.9636 203.18 38.7693C203.281 39.0715 203.281 39.2729 203.18 39.5751C202.273 40.8844 201.266 42.093 200.46 43.3016C201.367 44.2081 202.273 45.1145 203.281 46.1217C203.381 46.1217 203.482 46.021 203.683 45.8195C204.791 45.0138 206 44.1073 207.007 43.3016C207.108 43.2009 207.309 43.2009 207.511 43.2009C208.417 43.503 209.324 44.0066 210.331 44.3088C210.633 44.4095 210.734 44.5102 210.734 44.8124C210.935 46.3231 211.137 47.8339 211.338 49.3447C211.338 49.6468 211.439 49.7475 211.741 49.7475C212.748 49.7475 213.856 49.7475 214.762 49.7475C215.065 49.7475 215.165 49.6468 215.165 49.3447C215.367 47.8339 215.568 46.3231 215.77 44.7116C215.77 44.5102 215.87 44.3088 216.072 44.2081C216.978 43.9059 217.985 43.4023 218.892 43.1002C218.992 43.1002 219.194 43.1002 219.395 43.1002C220.503 43.9059 221.712 44.8124 222.82 45.6181C222.92 45.7188 223.122 45.8195 223.122 45.8195C224.028 44.9131 225.036 43.9059 225.942 42.9995C225.942 42.8987 225.841 42.798 225.741 42.6973C224.935 41.5894 224.028 40.4815 223.223 39.3736C223.122 39.2729 223.122 39.0715 223.122 38.9708C223.525 38.0643 223.928 36.9564 224.431 36.0499C224.431 35.9492 224.633 35.8485 224.733 35.8485C225.338 35.7478 226.043 35.6471 226.647 35.6471C227.654 35.5464 228.762 35.3449 229.769 35.2442C229.769 33.8342 229.769 32.6256 229.769 31.3162C228.057 31.1148 226.546 30.8126 224.834 30.6112C224.633 30.6112 224.532 30.5105 224.431 30.3091C224.129 29.4026 223.726 28.4961 223.323 27.6904C223.223 27.3882 223.223 27.2875 223.323 26.9854C224.331 25.8775 225.338 24.5682 226.143 23.4603Z" stroke="#003EAE" stroke-width="0.7" stroke-miterlimit="10"/>
<path d="M226.324 23.4604C225.417 24.7698 224.511 25.9784 223.503 27.187C223.302 27.3884 223.302 27.5899 223.503 27.892C223.906 28.6977 224.208 29.7049 224.611 30.5107C224.712 30.7121 224.813 30.8128 225.014 30.8128C226.726 31.0142 228.237 31.2157 229.949 31.5178C229.949 32.8272 229.949 34.0358 229.949 35.4458C228.942 35.5465 227.834 35.748 226.827 35.8487C226.223 35.9494 225.518 35.9494 224.914 36.0501C224.813 36.0501 224.611 36.1508 224.611 36.2516C224.208 37.158 223.806 38.1652 223.302 39.1724C223.302 39.2731 223.302 39.4745 223.403 39.5752C224.209 40.6831 225.115 41.8917 225.921 42.8989C226.021 42.9996 226.122 43.1003 226.122 43.2011C225.216 44.1075 224.309 45.014 223.302 46.0212C223.302 46.0212 223.101 45.9204 223 45.8197C221.892 45.014 220.683 44.1075 219.575 43.3018C219.475 43.2011 219.273 43.2011 219.072 43.3018C218.165 43.6039 217.158 44.1075 216.252 44.4097C216.05 44.5104 215.95 44.6111 215.95 44.9133C215.748 46.424 215.547 47.9348 215.345 49.5463C215.345 49.8484 215.245 49.9491 214.942 49.9491C213.935 49.9491 212.827 49.9491 211.921 49.9491C211.619 49.9491 211.518 49.8484 211.518 49.5463C211.317 48.0355 211.115 46.5247 210.914 45.014C210.914 44.7118 210.813 44.6111 210.511 44.5104C209.604 44.2082 208.698 43.7046 207.691 43.4025C207.59 43.4025 207.389 43.4025 207.187 43.5032C206.079 44.309 204.871 45.2154 203.864 46.0212C203.763 46.1219 203.561 46.2226 203.461 46.3233C202.554 45.4168 201.648 44.5104 200.641 43.5032C201.547 42.1939 202.454 41.086 203.36 39.7767C203.561 39.4745 203.561 39.2731 203.36 38.9709C202.957 38.1652 202.655 37.2587 202.353 36.453C202.252 36.1508 202.151 36.0501 201.849 36.0501C200.338 35.8487 198.928 35.6473 197.418 35.4458C197.317 35.4458 197.115 35.4458 196.914 35.3451C196.914 34.0358 196.914 32.8272 196.914 31.4171C197.72 31.3164 198.626 31.2157 199.432 31.115C200.238 31.0142 201.144 30.9135 201.95 30.8128C202.051 30.8128 202.252 30.7121 202.252 30.5107C202.655 29.6042 203.058 28.597 203.561 27.6906C203.561 27.5899 203.561 27.3884 203.461 27.187C202.655 26.0791 201.749 24.8705 200.943 23.8633C200.842 23.7626 200.741 23.6619 200.741 23.5612C201.648 22.6547 202.554 21.6475 203.561 20.7411C204.669 21.5468 205.979 22.554 207.288 23.4604C207.489 23.6619 207.691 23.6619 207.993 23.4604C208.799 23.0576 209.705 22.7554 210.511 22.4533C210.813 22.3525 210.914 22.2518 211.015 21.9497C211.216 20.4389 211.417 18.9281 211.619 17.4174C211.619 17.1152 211.72 17.1152 212.022 17.1152C213.029 17.1152 214.137 17.1152 215.144 17.1152C215.345 17.1152 215.446 17.1152 215.446 17.4174C215.648 18.9281 215.849 20.4389 216.05 21.9497C216.05 22.2518 216.252 22.4533 216.554 22.554C217.36 22.8561 218.266 23.259 219.072 23.6619C219.273 23.7626 219.475 23.7626 219.676 23.6619C220.986 22.7554 222.194 21.7482 223.503 20.8418C224.511 21.5468 225.518 22.3525 226.324 23.4604ZM205.374 33.3307C205.374 37.7623 208.899 41.3881 213.331 41.3881C217.863 41.3881 221.388 37.863 221.388 33.4315C221.388 28.8992 217.863 25.3741 213.432 25.3741C209.202 25.2733 205.374 28.8992 205.374 33.3307Z" stroke="#003EAE" stroke-width="0.7" stroke-miterlimit="10"/>
<mask id="mask0_2094_411" style="mask-type:luminance" maskUnits="userSpaceOnUse" x="41" y="33" width="175" height="156">
<path d="M215.868 33.3257H41.0977V188.34H215.868V33.3257Z" fill="white"/>
</mask>
<g mask="url(#mask0_2094_411)">
<path d="M215.868 33.3257H41.0977V152.138H215.868V33.3257Z" fill="#0064B5"/>
<path d="M215.868 134.577H41.0977V152.09H215.868V134.577Z" fill="#FFC727"/>
<path d="M215.868 134.577H41.0977V152.09H215.868V134.577Z" fill="#033E9F"/>
<path d="M162.54 173.527H94.4219V179.221H162.54V173.527Z" fill="#FFC727"/>
<path d="M162.54 173.527H94.4219V179.221H162.54V173.527Z" fill="#033E9F"/>
<path d="M154.452 173.527H102.514L103.854 163.67L103.902 163.191L104.045 162.282L104.093 161.803L104.237 160.894V160.751L104.285 160.416L104.428 159.507L104.476 159.028L105.386 152.138H151.58L152.441 158.645L152.489 158.932L152.633 160.033L152.681 160.32L152.728 160.751L152.824 161.421V161.708L152.968 162.808L153.016 163.095L154.452 173.527Z" fill="#0064B5"/>
<path d="M131.33 142.185C131.33 143.764 130.038 145.056 128.458 145.056C126.878 145.056 125.586 143.764 125.586 142.185C125.586 140.606 126.878 139.314 128.458 139.314C130.038 139.266 131.33 140.558 131.33 142.185Z" fill="white"/>
<g opacity="0.16">
<path d="M152.729 160.751L104.477 159.028L105.386 152.138H151.58L152.729 160.751Z" fill="black"/>
</g>
<path d="M207.638 41H49V126.317H207.638V41Z" fill="white"/>
<mask id="mask1_2094_411" style="mask-type:luminance" maskUnits="userSpaceOnUse" x="57" y="49" width="70" height="64">
<path d="M126.333 49H57V113H126.333V49Z" fill="white"/>
</mask>
<g mask="url(#mask1_2094_411)">
<path d="M80.9515 93H57V95.036H80.9515V93Z" fill="#DBE9F8"/>
<path d="M126.333 97.6548H57V99.6908H126.333V97.6548Z" fill="#DBE9F8"/>
<path d="M126.333 102.115H57V104.152H126.333V102.115Z" fill="#DBE9F8"/>
<path d="M126.333 106.527H57V108.564H126.333V106.527Z" fill="#DBE9F8"/>
<path d="M126.333 110.988H57V113.024H126.333V110.988Z" fill="#DBE9F8"/>
<path d="M80.9515 49H57V54.3818H80.9515V49Z" fill="#DBE9F8"/>
<path d="M106.212 58.1152H57V60.1516H106.212V58.1152Z" fill="#DBE9F8"/>
<path d="M106.212 62.5273H57V64.5637H106.212V62.5273Z" fill="#DBE9F8"/>
<path d="M106.212 66.9878H57V69.0242H106.212V66.9878Z" fill="#DBE9F8"/>
<path d="M106.212 71.3999H57V73.4363H106.212V71.3999Z" fill="#DBE9F8"/>
<path d="M106.212 77.3149H57V79.3513H106.212V77.3149Z" fill="#DBE9F8"/>
<path d="M106.212 81.7271H57V83.763H106.212V81.7271Z" fill="#DBE9F8"/>
</g>
<mask id="mask2_2094_411" style="mask-type:luminance" maskUnits="userSpaceOnUse" x="88" y="52" width="82" height="65">
<path d="M169.2 52H88V116.308H169.2V52Z" fill="white"/>
</mask>
<g mask="url(#mask2_2094_411)">
<path d="M169.104 52.1919H88.1914V116.212H169.104V52.1919Z" fill="#E5F0F9"/>
<path d="M169.056 116.164L88.1919 116.308H88.048V116.164L88 52.192V52H88.1919L169.104 52.048H169.2V52.144L169.056 116.164ZM169.056 116.164L168.96 52.192L169.056 52.2879L88.1919 52.3359L88.3839 52.144L88.2879 116.164L88.1439 116.02L169.056 116.164Z" fill="#263238"/>
<path d="M169.106 52.1919H88.1934V56.5111H169.106V52.1919Z" fill="#0064B5"/>
<path d="M91.4095 55.1673C91.8601 55.1673 92.2253 54.8021 92.2253 54.3515C92.2253 53.9009 91.8601 53.5356 91.4095 53.5356C90.9589 53.5356 90.5938 53.9009 90.5938 54.3515C90.5938 54.8021 90.9589 55.1673 91.4095 55.1673Z" fill="#C7C7C7"/>
<path d="M95.5829 54.3515C95.5829 54.7834 95.199 55.1673 94.7671 55.1673C94.3352 55.1673 93.9512 54.7834 93.9512 54.3515C93.9512 53.9196 94.3352 53.5356 94.7671 53.5356C95.199 53.5356 95.5829 53.8716 95.5829 54.3515Z" fill="white"/>
<path d="M98.0795 55.1673C98.5301 55.1673 98.8954 54.8021 98.8954 54.3515C98.8954 53.9009 98.5301 53.5356 98.0795 53.5356C97.6289 53.5356 97.2637 53.9009 97.2637 54.3515C97.2637 54.8021 97.6289 55.1673 98.0795 55.1673Z" fill="#EC384E"/>
<path d="M118.187 76.5713L115.115 73.5479C120.586 67.9809 128.985 66.3973 136.087 69.6126C142.038 72.3001 146.165 78.059 146.885 84.538L142.614 85.018C142.038 80.0746 138.871 75.6595 134.312 73.5959C128.841 71.1003 122.362 72.3001 118.187 76.5713Z" fill="#0064B5"/>
<path d="M138.582 82.3301L143.333 93.368L150.58 83.722L138.582 82.3301Z" fill="#0064B5"/>
<path d="M121.159 102.583C115.208 99.8952 111.081 94.1362 110.361 87.6582L114.633 87.1782C115.16 92.1692 118.376 96.5842 122.935 98.6482C128.646 101.239 135.556 99.7512 139.636 95.0002L142.899 97.8322C137.572 103.975 128.646 105.942 121.159 102.583Z" fill="#0064B5"/>
<path d="M118.665 89.913L113.913 78.8271L106.715 88.473L118.665 89.913Z" fill="#0064B5"/>
</g>
</g>
<path d="M210.021 172.898C210.021 172.898 212.796 173.12 214.905 173.12C217.014 173.12 220.233 173.564 220.233 173.564C220.233 173.564 221.121 173.564 221.121 174.675C221.121 175.785 221.121 176.118 221.121 176.118C221.121 176.118 221.121 177.561 220.233 177.561C219.345 177.561 213.018 178.227 211.686 178.227C210.354 178.227 209.133 178.449 209.133 177.561C209.022 176.34 209.022 172.898 210.021 172.898Z" fill="#160956"/>
<path d="M212.353 143.481C212.353 143.481 214.24 153.472 214.24 156.247C214.462 159.022 214.684 160.91 212.797 162.02C211.132 163.13 208.135 164.129 208.135 164.129L204.693 146.146V144.036L212.353 143.481Z" fill="#FDBD97"/>
<path d="M181.603 143.038C181.603 143.038 180.715 147.7 180.16 149.92C179.938 152.251 179.272 156.58 179.272 157.802C179.272 158.912 179.05 160.577 180.937 161.909C182.824 163.241 184.822 164.018 184.822 164.018L188.707 143.149H181.492V143.038H181.603Z" fill="#FDBD97"/>
<path d="M195.146 128.496C195.146 128.496 195.146 130.605 194.258 131.493C193.369 132.381 192.148 133.824 192.148 133.824C192.148 133.824 194.258 137.043 198.365 136.599C202.472 136.155 203.249 133.158 203.249 133.158C203.249 133.158 199.364 132.714 198.809 128.94C198.365 125.276 197.699 125.276 197.699 125.276L195.146 128.496Z" fill="#FDAE7F"/>
<path d="M192.148 120.17C192.148 120.17 192.37 125.054 194.48 128.718C196.811 132.381 199.364 130.383 200.474 128.496C201.584 126.609 204.359 120.17 203.693 118.838C203.027 117.173 194.924 116.507 194.924 116.507L192.148 120.17Z" fill="#FDBD97"/>
<path d="M202.804 122.945C202.804 122.945 203.914 122.057 203.914 122.945C203.914 123.833 203.248 125.276 202.471 125.276C201.805 125.498 201.805 125.054 202.027 124.388C202.36 123.833 202.804 122.945 202.804 122.945Z" fill="#FDBD97"/>
<path d="M192.592 124.721C192.814 124.943 193.258 124.943 193.258 124.499C193.258 123.611 192.592 122.168 191.815 122.168C191.149 121.946 191.149 122.39 191.371 123.056C191.371 123.278 191.371 123.5 191.593 123.722C191.926 124.055 192.37 124.721 192.592 124.721Z" fill="#FDBD97"/>
<path d="M192.37 122.39L192.148 120.947C192.148 120.947 193.591 121.169 194.923 119.504C194.923 119.504 197.92 120.17 200.252 119.948C202.805 119.726 203.693 119.06 203.693 119.06C203.693 119.06 203.249 121.835 202.805 122.723C202.805 122.723 203.915 122.279 204.47 120.836C204.914 119.393 204.914 118.061 204.914 118.061C204.914 118.061 206.579 116.618 207.023 115.286C207.023 115.286 202.583 114.176 201.251 113.398C199.808 112.51 199.142 111.955 199.142 111.955C199.142 111.955 197.032 110.845 195.034 112.399C193.036 113.954 191.593 114.953 191.593 117.728C191.704 117.617 189.595 120.392 192.37 122.39Z" fill="#150C56"/>
<path d="M192.594 132.381C192.594 132.381 189.819 132.159 188.153 132.381C186.488 132.825 186.044 132.603 186.488 133.824C186.932 135.045 189.041 140.484 188.153 143.815C187.265 147.256 185.822 164.684 185.822 164.684C185.822 164.684 196.479 165.128 200.586 165.35C204.694 165.572 207.802 164.906 207.802 164.906C207.802 164.906 208.69 157.247 207.802 154.027C206.914 150.808 205.693 145.258 205.693 145.258C205.693 145.258 205.027 137.598 205.915 135.822C206.803 133.935 207.802 133.935 206.359 133.269C205.027 132.603 203.583 132.381 202.473 132.381C201.363 132.381 200.808 132.381 200.142 133.047C199.476 133.713 198.255 134.934 196.479 134.712C194.814 134.49 193.482 133.269 193.482 133.269C193.482 133.269 193.371 132.381 192.594 132.381Z" fill="#0181F7"/>
<path d="M187.821 132.825C187.821 132.825 186.933 132.381 185.267 133.491C183.602 134.934 182.492 137.598 182.048 139.485C181.604 141.372 181.16 143.148 181.16 143.148C181.16 143.148 183.269 144.258 185.267 144.258C187.266 144.258 188.709 144.48 188.709 144.48C188.709 144.48 189.597 138.93 189.375 136.599C189.153 134.49 188.709 133.491 187.821 132.825Z" fill="#0064B5"/>
<path d="M205.359 134.934C205.359 134.934 206.247 132.603 208.135 133.491C210.022 134.601 211.354 138.597 211.798 139.707C212.242 141.15 212.686 143.37 212.686 143.37C212.686 143.37 210.355 144.259 208.579 144.481C206.691 144.703 205.359 144.703 205.359 144.703C205.359 144.703 204.693 139.818 204.693 137.82C204.693 135.822 205.359 134.934 205.359 134.934Z" fill="#0064B5"/>
<path d="M189.93 166.127H204.25L196.812 168.458L189.93 166.127Z" fill="#8F051C"/>
<path d="M177.163 162.242C177.163 162.242 203.25 170.345 209.022 172.454C209.022 172.454 210.91 172.898 210.91 173.786C210.91 174.674 210.688 176.117 210.688 176.784C210.466 177.45 209.799 178.227 208.8 177.894C207.912 177.672 184.268 173.009 175.054 170.456L172.279 169.568C172.279 169.568 170.392 168.68 170.614 166.349C170.836 164.018 172.723 161.909 173.833 161.687C175.276 161.798 177.163 162.242 177.163 162.242Z" fill="#DC051F"/>
<path d="M174.834 173.787C174.834 173.787 178.053 173.343 180.162 173.121C182.049 173.121 184.824 172.899 185.046 173.121C185.268 173.343 185.712 177.228 185.712 177.228C185.712 177.228 185.934 178.338 183.381 178.116C180.828 177.894 174.834 177.672 174.834 177.672C174.834 177.672 173.391 177.672 173.391 176.229C173.391 175.119 173.613 174.564 173.613 174.564C173.613 174.564 173.946 174.009 174.834 173.787Z" fill="#160956"/>
<path d="M190.373 170.346C190.373 170.346 206.136 165.461 211.908 163.907C217.68 162.242 220.678 160.688 222.565 163.463C224.452 166.238 224.23 169.013 222.121 169.902C220.012 170.79 203.582 174.564 196.7 175.896C189.818 177.228 185.377 178.227 184.711 178.005C184.045 177.783 183.268 175.674 183.601 174.564C183.823 173.454 183.823 172.899 185.266 172.455C186.376 171.678 190.373 170.346 190.373 170.346Z" fill="#EC384E"/>
<path d="M188.487 147.367H207.469C207.469 147.367 208.579 147.145 208.579 148.81C208.579 150.253 208.579 165.239 208.579 165.239C208.579 165.239 208.579 166.349 207.913 166.349C207.025 166.349 185.49 166.349 185.49 166.349C185.49 166.349 184.602 166.571 184.602 164.906C184.602 163.241 184.602 148.255 184.602 148.255C184.602 148.255 184.602 147.367 185.712 147.367C186.822 147.367 188.487 147.367 188.487 147.367Z" fill="#160956"/>
</g>
<defs>
<clipPath id="clip0_2094_411">
<rect width="227" height="171" fill="white" transform="translate(21 8)"/>
</clipPath>
</defs>
</svg>
