<svg width="270" height="186" viewBox="0 0 270 186" fill="none" xmlns="http://www.w3.org/2000/svg">
<path d="M134.763 186C185.823 186 227.216 183.611 227.216 180.664C227.216 177.717 185.823 175.328 134.763 175.328C83.7022 175.328 42.3096 177.717 42.3096 180.664C42.3096 183.611 83.7022 186 134.763 186Z" fill="#F5F5F5"/>
<path d="M207.843 80.2C207.843 80.2 197.927 76.888 197.285 81.948C196.642 87.008 194.163 87.284 191.409 87.56C188.654 87.836 183.88 86.64 183.697 91.976C183.238 97.312 185.625 100.072 183.329 102.096C181.126 104.304 175.342 115.344 180.942 115.896C186.543 116.448 191.96 111.112 193.52 108.444C195.173 105.684 199.58 104.672 203.528 104.488C207.292 104.304 211.607 101.912 209.036 98.324C206.558 94.736 207.935 90.412 211.056 88.94C213.902 87.192 214.545 82.5 207.843 80.2Z" fill="#033E9F"/>
<path d="M204.171 85.628L180.208 119.76" stroke="white" stroke-miterlimit="10" stroke-linecap="round" stroke-linejoin="round"/>
<path d="M189.939 91.332L194.438 99.52L205.18 98.968" stroke="white" stroke-miterlimit="10" stroke-linecap="round" stroke-linejoin="round"/>
<path d="M196.275 68.792C196.275 68.792 197.285 73.116 193.429 72.104C189.665 71.184 187.369 71.46 186.727 75.14C186.084 78.636 183.972 80.384 181.585 80.292C179.198 80.2 175.159 79.464 174.424 84.34C173.69 89.032 171.762 98.6 177.637 99.52C183.33 100.532 191.134 95.748 191.501 91.976C192.052 88.388 189.94 85.72 193.98 83.788C198.019 81.764 199.397 85.352 202.61 81.948C205.731 78.544 209.312 75.416 205.272 70.908C201.875 66.768 196.55 66.4 196.275 68.792Z" stroke="#EC384E" stroke-miterlimit="10"/>
<path d="M198.295 73.76C198.295 73.76 178.556 95.104 172.221 99.428" stroke="#EC384E" stroke-miterlimit="10"/>
<path d="M181.034 83.972L181.952 90.688L188.287 91.7" stroke="#EC384E" stroke-miterlimit="10"/>
<path d="M191.226 74.772L192.786 79.648L198.02 80.936" stroke="#EC384E" stroke-miterlimit="10"/>
<path d="M53.9695 148.924C53.9695 148.924 55.9893 148.188 55.8975 145.612C55.8057 143.22 54.5203 141.38 57.091 142.208C59.5699 142.944 60.488 143.312 62.416 142.76C64.2522 142.3 65.813 141.564 64.8949 144.048C64.1604 146.44 63.1505 148.556 65.0785 148.924C67.0065 149.384 69.0264 147.728 69.3018 151.5C69.4854 155.272 66.5475 159.596 61.5897 159.688C56.632 159.78 54.4285 157.848 54.4285 157.848C54.4285 157.848 53.0514 156.008 55.0712 155.548C57.091 155.088 59.2945 154.168 58.1927 153.248C56.9992 152.144 53.694 152.052 53.694 152.052C53.694 152.052 49.6544 151.408 53.9695 148.924Z" fill="#649CE8"/>
<path d="M76.6465 149.476C76.4628 147.084 76.6465 145.244 80.9615 144.6C85.4603 143.956 88.0309 146.532 88.3982 149.476C88.5818 152.236 84.7258 153.248 84.7258 153.248C84.7258 153.248 81.9715 153.984 83.3486 156.56C84.7258 158.952 85.2766 161.436 82.1551 161.712C78.8499 161.896 75.2693 161.16 73.4331 159.872C71.5051 158.584 69.4853 155.364 71.6887 153.524C71.6887 153.524 72.2396 153.064 74.443 152.972C77.0137 152.88 76.6465 149.476 76.6465 149.476Z" fill="#033E9F"/>
<path d="M60.8555 149.2C60.8555 149.2 64.5279 157.664 65.0787 163.46" stroke="#82D8FD" stroke-width="0.5" stroke-miterlimit="10" stroke-linecap="round" stroke-linejoin="round"/>
<path d="M81.6965 150.672C81.6965 150.672 75.0862 160.608 73.5254 163.828" stroke="#579DD3" stroke-width="0.5" stroke-miterlimit="10" stroke-linecap="round" stroke-linejoin="round"/>
<path d="M69.0264 163.276C69.0264 163.276 69.7608 148.28 74.2596 138.988" stroke="#FABC42" stroke-width="0.5" stroke-miterlimit="10"/>
<path d="M77.9318 133.468C77.9318 133.468 78.3909 137.976 73.8922 139.816C73.8004 139.908 72.8823 136.044 77.9318 133.468Z" fill="#FABC42"/>
<path d="M71.1377 148.096C71.1377 148.096 72.8821 144.14 78.0235 144.692C77.9317 144.6 77.5644 148.74 71.1377 148.096Z" fill="#FABC42"/>
<path d="M69.5771 157.848C69.5771 157.848 70.3116 153.616 75.453 153.248C75.453 153.34 75.9121 157.204 69.5771 157.848Z" fill="#FABC42"/>
<path d="M69.3023 157.848C69.3023 157.848 69.8531 153.616 65.3544 151.5C65.3544 151.592 63.61 155.18 69.3023 157.848Z" fill="#FABC42"/>
<path d="M71.3218 148.096C71.3218 148.096 72.5153 144.048 68.2002 141.196C68.1084 141.288 65.9968 144.6 71.3218 148.096Z" fill="#FABC42"/>
<path d="M62.8753 162.816H78.1158C78.1158 162.816 79.8602 162.908 79.6766 165.208C79.5848 167.232 76.9223 166.956 75.4533 166.956C74.0762 166.956 62.5081 166.956 62.5081 166.956C62.5081 166.956 60.6719 167.14 60.6719 165.116C60.6719 162.908 61.3145 162.816 62.8753 162.816Z" fill="#0054A3"/>
<path d="M62.416 166.68L64.8031 180.204H74.994L76.6466 170.084L62.416 166.68Z" fill="#0054A3"/>
<path d="M62.416 166.68L76.6466 170.084L77.3811 166.68H62.416Z" fill="#016AD3"/>
<path d="M134.585 38.4285L129.988 39.7202L131.277 44.3267L135.874 43.035L134.585 38.4285Z" fill="#EC384E"/>
<path d="M204.454 148.741L199.857 150.033L201.146 154.639L205.743 153.347L204.454 148.741Z" fill="#003EAE"/>
<path d="M93.0805 42.94C93.0805 42.94 92.9887 42.848 92.8969 42.94L91.4279 43.124C91.2443 43.124 91.0607 43.032 90.9689 42.94C90.8771 42.296 90.5098 41.652 90.3262 41.008C90.2344 40.916 90.3262 40.64 90.418 40.548L91.5198 39.628C91.5198 39.628 91.6116 39.536 91.6116 39.444C91.6116 39.352 91.6116 39.352 91.5198 39.26L89.8672 37.604C89.8672 37.604 89.7754 37.512 89.6835 37.512C89.5917 37.512 89.5917 37.512 89.4999 37.604L88.5818 38.708C88.49 38.8 88.2146 38.892 88.1228 38.8C87.5719 38.432 86.9292 38.248 86.1948 38.156C86.0111 38.156 85.8275 37.972 86.0111 37.696L86.1948 36.224C86.1948 36.132 86.1948 36.132 86.1948 36.04C86.1948 36.04 86.1029 35.948 86.0111 35.948H83.8077C83.7159 35.948 83.7159 35.948 83.6241 36.04C83.6241 36.04 83.5323 36.132 83.6241 36.224L83.8077 37.696C83.8077 37.88 83.7159 38.064 83.6241 38.156C82.9814 38.248 82.3387 38.616 81.696 38.8C81.6042 38.892 81.3288 38.8 81.237 38.708L80.3189 37.604C80.3189 37.604 80.2271 37.512 80.1353 37.512C80.0435 37.512 80.0435 37.512 79.9517 37.604L78.2991 39.26C78.2991 39.26 78.2073 39.352 78.2073 39.444C78.2073 39.536 78.2073 39.536 78.2991 39.628L79.4008 40.548C79.4926 40.64 79.5844 40.916 79.4926 41.008C79.1254 41.56 78.9417 42.204 78.8499 42.94C78.8499 43.124 78.6663 43.308 78.3909 43.124L76.9219 42.94C76.8301 42.94 76.8301 42.94 76.7383 42.94C76.7383 42.94 76.6465 43.032 76.6465 43.124V45.332C76.6465 45.424 76.6465 45.424 76.7383 45.516C76.7383 45.516 76.8301 45.608 76.9219 45.516L78.3909 45.332C78.5745 45.332 78.7581 45.424 78.8499 45.516C78.9417 46.16 79.309 46.804 79.4926 47.448C79.5844 47.54 79.4926 47.816 79.4008 47.908L78.2991 48.828C78.2991 48.828 78.2073 48.92 78.2073 49.012C78.2073 49.104 78.2073 49.104 78.2991 49.196L79.9517 50.852C79.9517 50.852 80.0435 50.944 80.1353 50.944C80.2271 50.944 80.2271 50.944 80.3189 50.852L81.237 49.748C81.3288 49.656 81.6042 49.564 81.696 49.656C82.2469 50.024 82.8896 50.208 83.6241 50.3C83.8077 50.3 83.9913 50.484 83.8077 50.76L83.4404 52.416C83.4404 52.508 83.4404 52.508 83.4404 52.6C83.4404 52.6 83.5323 52.692 83.6241 52.692H85.8275C85.9193 52.692 85.9193 52.692 86.0111 52.6C86.0111 52.6 86.1029 52.508 86.0111 52.416L85.8275 50.944C85.8275 50.76 85.9193 50.576 86.0111 50.484C86.6538 50.392 87.2965 50.024 87.9392 49.84C88.031 49.748 88.3064 49.84 88.3982 49.932L89.3163 51.036C89.3163 51.036 89.4081 51.128 89.4999 51.128C89.5917 51.128 89.5917 51.128 89.6835 51.036L91.3361 49.38C91.3361 49.38 91.4279 49.288 91.4279 49.196C91.4279 49.104 91.4279 49.104 91.3361 49.012L90.2344 48.092C90.1426 48 90.0508 47.724 90.1426 47.632C90.5098 47.08 90.6935 46.436 90.7853 45.7C90.7853 45.516 90.9689 45.332 91.2443 45.516L92.7133 45.7C92.8051 45.7 92.8051 45.7 92.8969 45.7C92.8969 45.7 92.9887 45.608 92.9887 45.516V43.4C93.1723 43.308 93.0805 43.124 93.0805 42.94ZM92.6215 45.332L91.4279 45.24C90.9689 45.24 90.418 45.424 90.3262 45.884C90.2344 46.436 89.959 47.08 89.6835 47.54C89.4999 48 89.5917 48.552 89.8672 48.736L90.7853 49.288L89.5917 50.484L89.0409 49.564C88.8573 49.196 88.1228 49.104 87.8473 49.38C87.3883 49.748 86.7456 49.932 86.1948 50.024C85.7357 50.116 85.2767 50.576 85.5521 51.128L85.6439 52.324H83.9913L84.0831 51.128C84.0831 50.668 83.8995 50.116 83.4404 50.024C82.8896 49.932 82.2469 49.656 81.7879 49.38C81.3288 49.196 80.7779 49.288 80.5943 49.564L80.0435 50.484L78.8499 49.288L79.768 48.736C80.1353 48.552 80.2271 47.816 79.9517 47.54C79.5844 47.08 79.4008 46.436 79.309 45.884C79.2172 45.424 78.7581 44.964 78.2073 45.24L77.0137 45.332V43.676L78.2073 43.768C78.6663 43.768 79.2172 43.584 79.309 43.124C79.4008 42.572 79.6762 41.928 79.9517 41.468C80.1353 41.008 80.0435 40.456 79.768 40.272L78.8499 39.72L80.0435 38.524L80.5943 39.444C80.7779 39.812 81.5124 39.904 81.7879 39.628C82.2469 39.26 82.8896 39.076 83.4404 38.984C83.8995 38.892 84.3586 38.432 84.0831 37.88L83.9913 36.684H85.6439L85.5521 37.88C85.5521 38.34 85.7357 38.892 86.1948 38.984C86.7456 39.076 87.3883 39.352 87.8473 39.628C88.3064 39.812 88.8573 39.72 89.0409 39.444L89.5917 38.524L90.7853 39.72L89.8672 40.272C89.4999 40.456 89.4081 41.192 89.6835 41.468C90.0508 41.928 90.2344 42.572 90.3262 43.124C90.418 43.584 90.8771 44.044 91.4279 43.768L92.6215 43.676V45.332Z" stroke="#003EAE" stroke-miterlimit="10"/>
<path d="M84.4508 40.456C82.2474 40.456 80.3193 42.204 80.3193 44.596C80.3193 46.988 82.0637 48.736 84.4508 48.736C86.6542 48.736 88.5823 46.988 88.5823 44.596C88.5823 42.204 86.7461 40.456 84.4508 40.456ZM84.4508 47.908C82.5228 47.908 81.0538 46.344 81.0538 44.504C81.0538 42.572 82.6146 41.1 84.4508 41.1C86.3788 41.1 87.8478 42.664 87.8478 44.504C87.8478 46.344 86.3788 47.908 84.4508 47.908Z" stroke="#003EAE" stroke-miterlimit="10"/>
<path d="M95.0083 100.348L93.9983 100.44C93.9065 100.44 93.8147 100.44 93.8147 100.256C93.7229 99.888 93.6311 99.612 93.3557 99.152C93.3557 99.06 93.3557 98.968 93.3557 98.968L93.9065 98.508V98.324V98.232L92.8966 97.22H92.8048H92.713L92.2539 97.772C92.2539 97.864 92.0703 97.864 92.0703 97.772C91.7031 97.588 91.4277 97.404 90.9686 97.312C90.8768 97.312 90.785 97.22 90.785 97.128L90.8768 96.208V96.116H90.6932H89.4996H89.4078V96.208L89.4996 97.128C89.4996 97.22 89.4996 97.312 89.316 97.312C88.9488 97.404 88.6734 97.496 88.2143 97.772C88.1225 97.772 88.0307 97.772 88.0307 97.772L87.5716 97.22H87.4798H87.388L86.3781 98.232V98.324V98.416L86.929 98.876C87.0208 98.876 87.0208 99.06 86.929 99.06C86.7453 99.428 86.5617 99.704 86.4699 100.164C86.4699 100.256 86.3781 100.348 86.2863 100.348L85.3682 100.256H85.2764V100.348V101.636V101.728H85.3682L86.2863 101.636C86.3781 101.636 86.4699 101.636 86.4699 101.82C86.5617 102.188 86.6535 102.464 86.929 102.924C86.929 103.016 86.929 103.108 86.929 103.108L86.3781 103.568V103.66V103.752L87.388 104.764H87.4798H87.5716L88.0307 104.212C88.0307 104.12 88.2143 104.12 88.2143 104.212C88.5815 104.396 88.857 104.58 89.316 104.672C89.4078 104.672 89.4996 104.764 89.4996 104.856L89.4078 105.776V105.868H89.4996H90.785H90.8768V105.776L90.785 104.856C90.785 104.764 90.785 104.672 90.9686 104.672C91.3359 104.58 91.6113 104.488 92.0703 104.212C92.1621 104.212 92.2539 104.212 92.2539 104.212L92.713 104.764H92.8048H92.8966L93.9065 103.752V103.66V103.568L93.3557 103.108C93.2639 103.108 93.2639 102.924 93.3557 102.924C93.5393 102.556 93.7229 102.28 93.8147 101.82C93.8147 101.728 93.9065 101.636 93.9983 101.636L94.9164 101.728H95.0083V101.636V100.348ZM94.641 101.544L93.9983 101.452C93.8147 101.452 93.5393 101.544 93.4475 101.912C93.3557 102.28 93.2639 102.556 92.9884 102.924C92.8966 103.108 92.8966 103.476 93.0802 103.568L93.5393 103.936L92.8966 104.58L92.5294 104.12C92.3458 103.936 92.0703 103.936 91.8867 104.028C91.5195 104.212 91.244 104.396 90.8768 104.488C90.6932 104.488 90.4177 104.856 90.4177 105.04L90.5096 105.684H89.4996L89.5915 105.04C89.5915 104.856 89.4996 104.58 89.1324 104.488C88.7652 104.396 88.4897 104.304 88.1225 104.028C87.9389 103.936 87.5716 103.936 87.4798 104.12L87.1126 104.58L86.4699 103.936L86.929 103.568C87.1126 103.384 87.1126 103.108 87.0208 102.924C86.8371 102.556 86.6535 102.28 86.5617 101.912C86.5617 101.728 86.1945 101.452 86.0109 101.452L85.3682 101.544V100.532L86.0109 100.624C86.1945 100.624 86.4699 100.532 86.5617 100.164C86.6535 99.796 86.7453 99.52 87.0208 99.152C87.1126 98.968 87.1126 98.6 86.929 98.508L86.4699 98.14L87.1126 97.496L87.4798 97.956C87.6634 98.14 87.9389 98.14 88.1225 98.048C88.4897 97.864 88.7652 97.68 89.1324 97.588C89.316 97.588 89.5915 97.22 89.5915 97.036L89.4996 96.392H90.5096L90.4177 97.036C90.4177 97.22 90.5096 97.496 90.8768 97.588C91.244 97.68 91.5195 97.772 91.8867 98.048C92.0703 98.14 92.4376 98.14 92.5294 97.956L92.8966 97.496L93.5393 98.14L93.0802 98.508C92.8966 98.692 92.8966 98.968 92.9884 99.152C93.1721 99.52 93.3557 99.796 93.4475 100.164C93.4475 100.348 93.8147 100.624 93.9983 100.624L94.641 100.532C94.641 100.716 94.641 101.544 94.641 101.544Z" fill="#EC384E"/>
<path d="M90.0501 98.784C88.7648 98.784 87.7549 99.888 87.7549 101.084C87.7549 102.372 88.8566 103.384 90.0501 103.384C91.3355 103.384 92.3454 102.28 92.3454 101.084C92.3454 99.796 91.3355 98.784 90.0501 98.784ZM90.0501 103.108C88.9484 103.108 88.0303 102.096 88.0303 101.084C88.0303 99.98 89.0402 99.06 90.0501 99.06C91.1519 99.06 92.07 100.072 92.07 101.084C91.9782 102.28 91.0601 103.108 90.0501 103.108Z" fill="#EC384E"/>
<path d="M168.824 21.136H162.214C162.122 21.136 162.03 21.228 162.03 21.32V24.08V24.172L162.673 24.816H162.765H167.723H167.814L168.457 24.172V24.08V21.32C168.916 21.136 168.916 21.136 168.824 21.136ZM168.641 23.988L167.998 24.632H163.132L162.489 23.988V21.688H168.732V23.988H168.641Z" fill="#003EAE"/>
<path d="M169.192 21.872L161.755 22.24C161.663 22.24 161.571 22.332 161.571 22.424C161.571 22.516 161.663 22.608 161.755 22.608L169.192 22.24C169.283 22.24 169.375 22.148 169.375 22.056C169.375 21.964 169.283 21.872 169.192 21.872Z" fill="#003EAE"/>
<path d="M169.192 22.976L161.755 23.344C161.663 23.344 161.571 23.436 161.571 23.528C161.571 23.62 161.663 23.712 161.755 23.712L169.192 23.344C169.283 23.344 169.375 23.252 169.375 23.16C169.375 23.16 169.283 22.976 169.192 22.976Z" fill="#003EAE"/>
<path d="M165.52 7.888C161.847 7.888 158.909 10.924 158.909 14.512C158.909 16.72 160.103 18.928 162.031 20.124V21.32C162.031 21.412 162.123 21.504 162.214 21.504H168.825C168.917 21.504 169.008 21.412 169.008 21.32V20.124C170.936 18.928 172.13 16.812 172.13 14.512C172.13 10.924 169.192 7.888 165.52 7.888ZM168.733 19.756L168.641 20.952H162.398V19.848C162.398 19.848 162.398 19.756 162.306 19.756C160.378 18.56 159.276 16.628 159.276 14.42C159.276 11.016 162.123 8.164 165.52 8.164C168.916 8.164 171.763 11.016 171.763 14.42C171.671 16.72 170.569 18.744 168.733 19.756Z" fill="#003EAE"/>
<path d="M167.264 24.54C167.172 24.54 167.081 24.54 167.081 24.632C167.081 24.632 166.713 25.276 165.52 25.276C164.326 25.276 163.959 24.724 163.959 24.632C163.959 24.54 163.867 24.54 163.775 24.54C163.684 24.54 163.684 24.632 163.684 24.724C163.684 24.724 164.143 25.736 165.612 25.736C167.081 25.736 167.54 24.816 167.54 24.724C167.54 24.816 167.356 24.724 167.264 24.54Z" fill="#003EAE"/>
<path d="M157.165 14.328H153.309C153.217 14.328 153.125 14.42 153.125 14.512C153.125 14.604 153.217 14.696 153.309 14.696H157.165C157.256 14.696 157.348 14.604 157.348 14.512C157.348 14.328 157.348 14.328 157.165 14.328Z" fill="#DC051F"/>
<path d="M177.822 14.328H173.966C173.874 14.328 173.782 14.42 173.782 14.512C173.782 14.604 173.874 14.696 173.966 14.696H177.822C177.914 14.696 178.006 14.604 178.006 14.512C178.006 14.328 177.914 14.328 177.822 14.328Z" fill="#DC051F"/>
<path d="M158.542 18.468C158.542 18.376 158.358 18.376 158.358 18.468L155.053 20.4C154.961 20.4 154.961 20.584 155.053 20.584C155.053 20.584 155.145 20.676 155.237 20.676C155.237 20.676 155.237 20.676 155.329 20.676L158.634 18.744C158.542 18.744 158.542 18.56 158.542 18.468Z" fill="#DC051F"/>
<path d="M176.353 8.25601C176.353 8.16401 176.169 8.16401 176.169 8.25601L172.864 10.188C172.772 10.188 172.772 10.372 172.864 10.372C172.864 10.372 172.956 10.464 173.047 10.464C173.047 10.464 173.047 10.464 173.139 10.464L176.444 8.53201C176.353 8.44001 176.353 8.34801 176.353 8.25601Z" fill="#DC051F"/>
<path d="M171.67 3.65601C171.578 3.65601 171.487 3.65601 171.487 3.65601L169.559 6.96801C169.559 7.06001 169.559 7.15201 169.559 7.15201C169.559 7.15201 169.559 7.15201 169.65 7.15201C169.65 7.15201 169.742 7.15201 169.834 7.06001L171.67 3.65601C171.854 3.84001 171.854 3.84001 171.67 3.65601Z" fill="#DC051F"/>
<path d="M165.52 2C165.428 2 165.336 2.092 165.336 2.184V6.048C165.336 6.14 165.428 6.232 165.52 6.232C165.611 6.232 165.703 6.14 165.703 6.048V2.184C165.703 2.092 165.611 2 165.52 2Z" fill="#DC051F"/>
<path d="M161.571 7.152L159.643 3.84C159.643 3.748 159.459 3.748 159.459 3.84C159.368 3.84 159.368 4.024 159.459 4.024L161.388 7.336C161.388 7.336 161.479 7.428 161.571 7.428C161.571 7.428 161.571 7.428 161.663 7.428C161.571 7.336 161.571 7.244 161.571 7.152Z" fill="#DC051F"/>
<path d="M176.261 20.4L172.956 18.468C172.864 18.468 172.772 18.468 172.772 18.56C172.772 18.652 172.772 18.744 172.772 18.744L176.078 20.676C176.078 20.676 176.078 20.676 176.169 20.676C176.261 20.676 176.261 20.676 176.353 20.584C176.353 20.676 176.353 20.584 176.261 20.4Z" fill="#DC051F"/>
<path d="M158.358 10.096L155.053 8.164C154.961 8.164 154.869 8.164 154.869 8.164C154.869 8.256 154.869 8.348 154.869 8.348L158.174 10.28C158.174 10.28 158.174 10.28 158.266 10.28C158.174 10.372 158.358 10.372 158.358 10.096C158.542 10.28 158.542 10.28 158.358 10.096Z" fill="#DC051F"/>
<path d="M166.07 21.136V14.88C166.07 14.88 165.979 11.844 167.631 11.844C169.284 11.844 168.549 14.972 165.428 14.972" stroke="#003EAE" stroke-miterlimit="10"/>
<path d="M164.601 21.136V14.88C164.601 14.88 164.693 11.844 163.041 11.844C161.388 11.844 162.123 14.972 165.244 14.972" stroke="#003EAE" stroke-miterlimit="10"/>
<path d="M164.968 105.5L149.911 115.068L166.988 108.536L164.968 105.5Z" fill="#FFBF99"/>
<path d="M172.037 128.776C172.037 128.776 189.022 129.788 181.586 130.8C174.149 131.812 164.05 131.812 160.561 131.352C156.889 131.076 169.283 129.052 172.037 128.776Z" fill="#90A7CB"/>
<path d="M168.825 110.928L164.05 109.272L132.835 120.68C132.835 120.68 128.979 122.796 128.52 127.488C128.336 131.996 126.775 172.936 126.775 172.936H132.651L136.507 140.092L138.068 127.672L145.137 123.532L163.5 114.24L168.825 110.928Z" fill="#0054A3"/>
<path d="M181.494 111.572C182.596 115.16 184.157 125.924 178.832 128.408C178.648 128.5 178.373 128.592 178.189 128.592L149.636 133.1C149.544 133.1 149.453 133.1 149.269 133.1C148.81 133.1 147.249 133.192 147.984 135.216C148.626 137.24 157.073 160.424 159.552 167.232C159.919 168.336 161.48 171.464 160.562 172.016L157.715 174.776C156.522 175.696 154.41 171.464 153.584 170.268L134.855 136.596C134.855 136.504 134.763 136.412 134.763 136.228C134.304 135.032 132.468 129.144 138.527 126.016C144.587 122.888 163.132 113.504 166.621 111.664C166.988 111.48 168.641 110.468 169.192 110.468L179.291 112.032C180.209 112.216 181.219 110.468 181.494 111.572Z" fill="#0064E1"/>
<path d="M115.942 108.076C115.942 107.892 115.758 106.052 116.952 106.052H123.195C123.378 106.052 123.654 105.868 123.654 105.592V101.176C123.654 100.992 123.47 100.716 123.195 100.716L111.168 100.624C111.168 100.624 111.168 100.624 111.076 100.624C110.892 100.624 109.607 100.256 109.148 98.048L106.853 81.212C106.853 80.844 106.853 80.568 106.944 80.108C107.128 79.464 107.862 78.544 109.607 78.544C112.269 78.544 131.641 78.452 135.865 78.452C136.875 78.452 137.609 78.912 138.068 79.74C138.252 80.292 138.619 81.028 138.711 82.316C139.17 85.536 140.639 96.116 140.914 97.956C140.914 98.14 140.914 98.416 140.914 98.6C140.822 99.244 140.271 100.808 138.619 100.808C136.599 100.9 128.887 100.624 126.684 100.624C126.5 100.624 126.225 100.808 126.225 101.084V105.776C126.225 105.96 126.408 106.236 126.684 106.236H133.294C133.294 106.236 133.294 106.236 133.386 106.236C133.569 106.236 134.028 106.42 134.028 107.248C134.028 108.536 134.028 108.352 134.028 108.352L116.401 108.444C116.125 108.352 116.034 108.26 115.942 108.076Z" fill="#023EA1"/>
<path d="M178.74 69.436C178.74 69.436 183.514 67.412 185.534 73.76C185.534 73.76 187.003 78.084 187.829 79.372C188.839 80.568 191.41 81.488 191.41 81.488C191.41 81.488 193.98 82.684 193.705 86.364C193.613 89.952 193.246 93.264 191.96 95.564C190.951 97.22 191.501 98.416 191.869 98.876C191.96 99.06 192.052 99.336 192.052 99.52C192.052 100.164 191.593 101.452 189.849 101.452C187.186 101.452 183.789 102.648 184.248 99.98C184.707 97.312 185.809 84.432 185.809 84.432L183.789 79.464L180.668 77.44L179.199 76.428C179.199 76.428 175.802 71.92 175.802 70.816C175.71 70.08 178.74 69.436 178.74 69.436Z" fill="#170856"/>
<path d="M175.526 69.62L171.762 67.688L171.67 61.708L170.017 59.592L166.804 60.604L162.489 60.512H159.092C159.092 60.512 159.459 69.712 162.764 73.3C162.764 73.3 166.62 74.22 168.089 73.116C168.089 73.116 169.742 71.552 169.742 74.312C169.742 76.98 169.925 80.108 169.925 80.108C169.925 80.108 171.119 82.224 175.709 80.2C175.709 80.2 178.28 78.912 179.015 76.888" fill="#FFBF99"/>
<path d="M161.571 53.336C161.571 53.336 170.385 45.884 175.894 53.336C181.31 60.788 180.392 66.216 178.923 67.78C178.923 67.78 174.149 72.932 170.477 67.412C170.477 67.412 169.834 66.4 170.293 64.652C170.293 64.652 171.762 60.512 168.182 61.524C164.785 62.536 161.755 62.536 160.47 61.064C159.184 59.592 158.725 61.156 158.725 61.616C158.725 62.076 158.266 65.02 156.522 62.26C154.777 59.5 156.981 54.624 158.817 53.428C158.725 53.428 160.378 52.508 161.571 53.336Z" fill="#170856"/>
<path d="M178.373 67.78C178.373 67.78 178.832 69.252 178.74 69.528C178.74 69.528 176.72 71 176.077 71.092C176.077 71.092 175.435 69.896 175.527 69.436C175.527 69.436 178.097 67.872 178.373 67.78Z" fill="#EA4E59"/>
<path d="M179.107 76.612C179.107 76.612 179.199 76.612 179.291 76.612C180.209 76.52 185.626 76.152 186.176 83.512C186.727 90.412 182.779 108.72 181.678 113.044L162.398 110.008C162.765 108.26 163.408 104.12 163.408 103.384C163.408 103.384 164.326 95.472 164.417 93.264C164.417 92.896 164.326 92.62 164.05 92.252C163.132 91.24 161.204 88.664 162.948 85.72C162.948 85.72 167.08 78.912 169.834 77.532C169.834 77.532 172.864 82.776 179.107 76.612Z" fill="#FCBE42"/>
<path d="M170.476 99.612C170.844 99.704 173.323 100.44 173.69 99.428L175.893 94.276C175.985 94.092 175.985 94 175.985 94C176.169 93.08 177.179 92.712 177.913 92.988L181.677 94.736C182.136 94.92 182.32 95.196 182.595 95.748L182.687 96.3C182.779 96.668 182.687 96.944 182.595 97.312L178.831 104.672C178.556 105.224 177.454 106.696 174.608 105.96L155.42 101.084L151.196 100.072C150.737 99.98 150.462 100.256 150.37 101.544C150.37 102.096 148.717 99.704 148.993 98.6C148.993 98.6 149.452 95.38 154.869 96.668L170.476 99.612Z" fill="#FFBF99"/>
<path d="M186.544 83.972C186.176 85.72 184.065 95.104 182.963 97.036C182.963 97.036 178.831 94.092 175.985 93.816C175.985 93.816 177.546 87.376 179.107 83.052C179.107 83.144 181.494 76.704 184.707 79.188C184.707 79.188 186.544 80.292 186.544 83.972Z" fill="#F79F03"/>
<path d="M132.743 172.936L132.926 177.904C132.926 177.904 133.018 178.548 129.896 178.548C126.775 178.548 118.787 178.548 118.787 178.548C118.787 178.548 116.859 177.628 118.971 177.076C118.971 177.076 123.837 175.604 126.591 172.752L132.743 172.936Z" fill="#170856"/>
<path d="M154.41 105.408H146.698V102.096C146.698 102.096 146.331 100.164 147.891 100.072C149.36 99.98 153.4 100.072 153.4 100.072C153.4 100.072 154.502 100.256 154.41 102.556C154.318 103.936 154.41 105.408 154.41 105.408Z" fill="#EE384E"/>
<path d="M153.675 105.132C153.675 105.132 156.521 104.948 156.797 106.328C156.98 107.984 156.338 108.352 154.869 108.352C153.4 108.352 145.137 108.26 145.137 108.26C145.137 108.26 143.484 108.076 143.576 106.788C143.576 105.592 143.943 105.132 145.504 105.132C147.065 105.316 153.675 105.132 153.675 105.132Z" fill="#000036"/>
<path d="M134.671 108.168L156.154 108.26C156.246 108.26 156.246 108.26 156.338 108.26C156.889 108.26 158.45 108.628 158.45 109.824C158.45 111.296 157.348 111.756 155.603 111.756H106.118C105.567 111.756 104.924 111.572 104.557 111.204C104.006 110.744 103.363 109.18 104.557 108.352C104.924 108.168 105.2 108.168 105.75 108.168H134.671Z" fill="#023EA1"/>
<path d="M121.266 111.572L107.219 123.992C107.219 123.992 104.649 126.2 104.557 131.444C104.465 136.688 103.547 179.1 103.547 179.1C103.547 179.1 103.363 181.4 107.954 181.4H138.159C138.159 181.4 139.353 181.4 139.445 179.928C139.537 178.456 138.343 178.64 137.425 178.64L106.393 178.732L106.577 132.088C106.577 132.088 105.659 128.224 111.443 123.532L124.204 111.756L121.266 111.572Z" fill="#023EA1"/>
<path d="M170.661 131.628V175.328C170.661 175.328 177.455 175.512 178.648 177.076C179.842 178.64 178.465 179.744 171.579 179.376C164.693 179.192 160.378 179.192 160.378 179.192C160.378 179.192 157.073 178.824 160.929 176.892C164.785 174.868 167.998 175.42 167.998 175.42L168.365 131.444L170.661 131.628Z" fill="#023EA1"/>
<path d="M160.102 169.164C160.102 169.164 163.866 172.844 161.663 174.5L151.564 182.596C151.564 182.596 150.095 182.964 150.37 181.308L154.869 172.66L160.102 169.164Z" fill="#180756"/>
<path d="M203.345 53.06H186.635C185.35 53.06 184.34 51.956 184.34 50.76V43.676C184.34 42.388 185.442 41.376 186.635 41.376H203.345C204.63 41.376 205.64 42.48 205.64 43.676V50.76C205.915 52.232 204.63 53.06 203.345 53.06Z" fill="#407BFF"/>
<path d="M190.124 51.772L185.166 58.672L193.154 52.324L190.124 51.772Z" fill="#407BFF"/>
<path d="M190.308 47.08C190.308 47.448 189.941 47.724 189.665 47.724C189.39 47.724 188.931 47.448 188.931 47.08C188.931 46.712 189.298 46.436 189.573 46.436C189.849 46.436 190.308 46.804 190.308 47.08Z" fill="white"/>
<path d="M193.889 47.08C193.889 47.448 193.522 47.724 193.246 47.724C192.971 47.724 192.604 47.448 192.604 47.08C192.604 46.712 192.971 46.436 193.246 46.436C193.522 46.436 193.889 46.804 193.889 47.08Z" fill="white"/>
<path d="M197.653 47.08C197.653 47.448 197.285 47.724 197.01 47.724C196.734 47.724 196.275 47.448 196.275 47.08C196.275 46.712 196.643 46.436 196.918 46.436C197.193 46.436 197.653 46.804 197.653 47.08Z" fill="white"/>
<path d="M201.234 47.08C201.234 47.448 200.866 47.724 200.591 47.724C200.315 47.724 199.948 47.356 199.948 47.08C199.948 46.712 200.315 46.436 200.591 46.436C201.05 46.436 201.234 46.804 201.234 47.08Z" fill="white"/>
</svg>
