<svg width="270" height="186" viewBox="0 0 270 186" fill="none" xmlns="http://www.w3.org/2000/svg">
<path d="M145.061 78.6C144.609 78.6 144.338 78.15 144.338 77.88V74.82C144.338 74.37 144.79 74.1 145.061 74.1C145.332 74.1 145.784 74.55 145.784 74.82V77.79C145.784 78.15 145.512 78.6 145.061 78.6Z" fill="#407BFF"/>
<path d="M145.061 68.7C144.609 68.7 144.338 68.25 144.338 67.98V62.04C144.338 61.59 144.789 61.32 145.061 61.32C145.332 61.32 145.783 61.77 145.783 62.04V67.98C145.783 68.34 145.512 68.7 145.061 68.7ZM145.061 55.92C144.609 55.92 144.338 55.47 144.338 55.2V49.26C144.338 48.81 144.789 48.54 145.061 48.54C145.332 48.54 145.783 48.99 145.783 49.26V55.2C145.783 55.56 145.512 55.92 145.061 55.92ZM84.7951 54.21C84.3433 54.21 84.0723 53.76 84.0723 53.49V47.64C84.0723 47.19 84.524 46.92 84.7951 46.92C85.2469 46.92 85.5179 47.37 85.5179 47.64V53.58C85.5179 54.03 85.0662 54.21 84.7951 54.21ZM145.061 43.05C144.609 43.05 144.338 42.6 144.338 42.33V36.39C144.338 35.94 144.789 35.67 145.061 35.67C145.332 35.67 145.783 36.12 145.783 36.39V42.33C145.783 42.78 145.512 43.05 145.061 43.05ZM84.7951 41.61C84.3433 41.61 84.0723 41.16 84.0723 40.89V34.95C84.0723 34.5 84.524 34.23 84.7951 34.23C85.2469 34.23 85.5179 34.68 85.5179 34.95V40.89C85.5179 41.16 85.0662 41.61 84.7951 41.61ZM144.609 30.36C144.157 30.36 143.886 30.18 143.886 29.73C143.705 27.93 143.073 26.04 142.35 24.24C142.26 23.79 142.35 23.52 142.892 23.25C143.344 23.16 143.615 23.25 143.886 23.79C144.609 25.59 145.151 27.66 145.512 29.64C145.332 29.91 145.061 30.36 144.609 30.36ZM85.5179 28.83C84.9758 28.74 84.7951 28.29 84.8854 28.02C85.4276 26.04 85.9697 24.06 86.6925 22.26C86.7829 21.81 87.325 21.72 87.6864 21.81C88.1381 21.9 88.2285 22.44 88.1381 22.8C87.4153 24.51 86.7829 26.4 86.4214 28.2C86.06 28.56 85.789 28.83 85.5179 28.83ZM139.82 18.57C139.639 18.57 139.278 18.48 139.188 18.12C138.103 16.5 136.838 15.06 135.483 13.62C135.302 13.44 135.302 12.9 135.483 12.63C135.664 12.45 136.206 12.45 136.477 12.63C138.013 14.16 139.278 15.6 140.362 17.31C140.543 17.76 140.453 18.03 140.181 18.3C140.091 18.57 140.001 18.57 139.82 18.57ZM90.8487 17.22C90.7584 17.22 90.668 17.22 90.3066 17.13C89.8549 16.95 89.8549 16.41 90.2163 16.14C91.4812 14.52 92.7462 13.08 94.2822 11.64C94.4629 11.46 95.005 11.46 95.276 11.64C95.4567 11.82 95.4567 12.36 95.276 12.63C93.74 13.89 92.4751 15.42 91.3005 16.86C91.3005 17.13 91.0294 17.22 90.8487 17.22ZM130.604 9.75002C130.514 9.75002 130.423 9.75002 130.152 9.66002C128.526 8.67002 126.809 7.86002 124.912 7.23002C124.46 7.14002 124.279 6.69002 124.37 6.24002C124.46 5.79002 124.912 5.61002 125.364 5.70002C127.171 6.42002 129.068 7.32003 130.785 8.22003C131.237 8.40003 131.327 8.94002 130.965 9.21002C131.146 9.57002 130.965 9.75002 130.604 9.75002ZM100.426 8.85002C100.245 8.85002 99.884 8.76002 99.7937 8.40002C99.613 7.95002 99.7937 7.68003 99.9744 7.41003C101.691 6.42003 103.679 5.70002 105.486 5.07002C105.938 4.98002 106.209 5.16003 106.48 5.61003C106.57 6.06003 106.389 6.33002 105.938 6.60002C104.131 7.23002 102.324 7.95002 100.607 8.85002C100.788 8.85002 100.426 8.85002 100.426 8.85002ZM118.587 5.52002C118.497 5.52002 118.497 5.52002 118.587 5.52002C116.599 5.34002 114.612 5.34003 112.714 5.43003C112.262 5.43003 111.991 5.25002 111.991 4.71002C111.991 4.26003 112.172 3.99003 112.714 3.99003C114.702 3.90003 116.78 3.90003 118.768 4.08003C119.22 4.08003 119.491 4.53002 119.4 4.89002C119.22 5.16002 119.039 5.52002 118.587 5.52002Z" fill="#407BFF"/>
<path d="M84.7951 64.2C84.3433 64.2 84.0723 63.75 84.0723 63.48V60.51C84.0723 60.06 84.524 59.79 84.7951 59.79C85.2469 59.79 85.5179 60.24 85.5179 60.51V63.48C85.5179 63.93 85.0662 64.2 84.7951 64.2Z" fill="#407BFF"/>
<g opacity="0.6">
<path d="M145.061 78.6C144.609 78.6 144.338 78.15 144.338 77.88V74.82C144.338 74.37 144.79 74.1 145.061 74.1C145.332 74.1 145.784 74.55 145.784 74.82V77.79C145.784 78.15 145.512 78.6 145.061 78.6Z" fill="#FAFAFA"/>
<path d="M145.061 68.7C144.609 68.7 144.338 68.25 144.338 67.98V62.04C144.338 61.59 144.789 61.32 145.061 61.32C145.332 61.32 145.783 61.77 145.783 62.04V67.98C145.783 68.34 145.512 68.7 145.061 68.7ZM145.061 55.92C144.609 55.92 144.338 55.47 144.338 55.2V49.26C144.338 48.81 144.789 48.54 145.061 48.54C145.332 48.54 145.783 48.99 145.783 49.26V55.2C145.783 55.56 145.512 55.92 145.061 55.92ZM84.7951 54.21C84.3433 54.21 84.0723 53.76 84.0723 53.49V47.64C84.0723 47.19 84.524 46.92 84.7951 46.92C85.2469 46.92 85.5179 47.37 85.5179 47.64V53.58C85.5179 54.03 85.0662 54.21 84.7951 54.21ZM145.061 43.05C144.609 43.05 144.338 42.6 144.338 42.33V36.39C144.338 35.94 144.789 35.67 145.061 35.67C145.332 35.67 145.783 36.12 145.783 36.39V42.33C145.783 42.78 145.512 43.05 145.061 43.05ZM84.7951 41.61C84.3433 41.61 84.0723 41.16 84.0723 40.89V34.95C84.0723 34.5 84.524 34.23 84.7951 34.23C85.2469 34.23 85.5179 34.68 85.5179 34.95V40.89C85.5179 41.16 85.0662 41.61 84.7951 41.61ZM144.609 30.36C144.157 30.36 143.886 30.18 143.886 29.73C143.705 27.93 143.073 26.04 142.35 24.24C142.26 23.79 142.35 23.52 142.892 23.25C143.344 23.16 143.615 23.25 143.886 23.79C144.609 25.59 145.151 27.66 145.512 29.64C145.332 29.91 145.061 30.36 144.609 30.36ZM85.5179 28.83C84.9758 28.74 84.7951 28.29 84.8854 28.02C85.4276 26.04 85.9697 24.06 86.6925 22.26C86.7829 21.81 87.325 21.72 87.6864 21.81C88.1381 21.9 88.2285 22.44 88.1381 22.8C87.4153 24.51 86.7829 26.4 86.4214 28.2C86.06 28.56 85.789 28.83 85.5179 28.83ZM139.82 18.57C139.639 18.57 139.278 18.48 139.188 18.12C138.103 16.5 136.838 15.06 135.483 13.62C135.302 13.44 135.302 12.9 135.483 12.63C135.664 12.45 136.206 12.45 136.477 12.63C138.013 14.16 139.278 15.6 140.362 17.31C140.543 17.76 140.453 18.03 140.181 18.3C140.091 18.57 140.001 18.57 139.82 18.57ZM90.8487 17.22C90.7584 17.22 90.668 17.22 90.3066 17.13C89.8549 16.95 89.8549 16.41 90.2163 16.14C91.4812 14.52 92.7462 13.08 94.2822 11.64C94.4629 11.46 95.005 11.46 95.276 11.64C95.4567 11.82 95.4567 12.36 95.276 12.63C93.74 13.89 92.4751 15.42 91.3005 16.86C91.3005 17.13 91.0294 17.22 90.8487 17.22ZM130.604 9.75002C130.514 9.75002 130.423 9.75002 130.152 9.66002C128.526 8.67002 126.809 7.86002 124.912 7.23002C124.46 7.14002 124.279 6.69002 124.37 6.24002C124.46 5.79002 124.912 5.61002 125.364 5.70002C127.171 6.42002 129.068 7.32003 130.785 8.22003C131.237 8.40003 131.327 8.94002 130.965 9.21002C131.146 9.57002 130.965 9.75002 130.604 9.75002ZM100.426 8.85002C100.245 8.85002 99.884 8.76002 99.7937 8.40002C99.613 7.95002 99.7937 7.68003 99.9744 7.41003C101.691 6.42003 103.679 5.70002 105.486 5.07002C105.938 4.98002 106.209 5.16003 106.48 5.61003C106.57 6.06003 106.389 6.33002 105.938 6.60002C104.131 7.23002 102.324 7.95002 100.607 8.85002C100.788 8.85002 100.426 8.85002 100.426 8.85002ZM118.587 5.52002C118.497 5.52002 118.497 5.52002 118.587 5.52002C116.599 5.34002 114.612 5.34003 112.714 5.43003C112.262 5.43003 111.991 5.25002 111.991 4.71002C111.991 4.26003 112.172 3.99003 112.714 3.99003C114.702 3.90003 116.78 3.90003 118.768 4.08003C119.22 4.08003 119.491 4.53002 119.4 4.89002C119.22 5.16002 119.039 5.52002 118.587 5.52002Z" fill="#FAFAFA"/>
<path d="M84.7951 64.2C84.3433 64.2 84.0723 63.75 84.0723 63.48V60.51C84.0723 60.06 84.524 59.79 84.7951 59.79C85.2469 59.79 85.5179 60.24 85.5179 60.51V63.48C85.5179 63.93 85.0662 64.2 84.7951 64.2Z" fill="#FAFAFA"/>
</g>
<path d="M135.121 182.1C188.265 182.1 231.347 179.642 231.347 176.61C231.347 173.578 188.265 171.12 135.121 171.12C81.9773 171.12 38.8955 173.578 38.8955 176.61C38.8955 179.642 81.9773 182.1 135.121 182.1Z" fill="#F5F5F5"/>
<path d="M168.01 22.71C168.552 22.71 168.823 22.71 169.275 22.71C172.257 16.95 178.31 13.08 185.267 13.08C194.032 13.08 201.26 19.29 202.886 27.39C204.242 26.85 205.778 26.67 207.223 26.67C214.813 26.67 220.866 32.88 220.866 40.26C220.866 47.64 214.632 53.85 207.223 53.85H168.01C159.246 53.85 152.198 46.83 152.198 38.1C152.198 29.73 159.246 22.71 168.01 22.71Z" fill="#0064B7"/>
<path d="M168.01 22.71C168.552 22.71 168.823 22.71 169.275 22.71C172.257 16.95 178.31 13.08 185.267 13.08C194.032 13.08 201.26 19.29 202.886 27.39C204.242 26.85 205.778 26.67 207.223 26.67C214.813 26.67 220.866 32.88 220.866 40.26C220.866 47.64 214.632 53.85 207.223 53.85H168.01C159.246 53.85 152.198 46.83 152.198 38.1C152.198 29.73 159.246 22.71 168.01 22.71Z" fill="#0064B7"/>
<path d="M170.449 35.76L173.341 30.81C173.792 30.18 174.605 30.18 174.877 30.81L177.768 35.76C178.22 36.39 177.677 37.11 177.045 37.11H175.78C176.413 41.61 179.846 44.94 184.183 45.48C184.906 45.57 185.448 46.2 185.448 47.01C185.448 47.82 184.725 48.63 183.731 48.54C177.858 47.82 173.25 43.14 172.618 37.2H171.082C170.54 37.11 170.088 36.39 170.449 35.76Z" fill="#FAFAFA"/>
<path d="M185.448 24.6C185.448 23.79 186.171 22.98 187.165 23.07C193.038 23.79 197.646 28.47 198.278 34.41H199.814C200.537 34.41 200.899 35.13 200.537 35.76L197.646 40.71C197.194 41.34 196.381 41.34 196.11 40.71L193.219 35.76C192.767 35.13 193.309 34.41 193.941 34.41H195.206C194.574 29.91 191.14 26.58 186.804 26.04C185.99 25.95 185.448 25.32 185.448 24.6Z" fill="#FAFAFA"/>
<path d="M119.852 79.41C118.677 82.2 117.683 84.72 116.87 87.51C116.328 88.77 115.967 90.21 115.515 91.56C114.973 92.91 114.702 94.26 114.25 95.79C113.979 97.32 113.708 98.76 113.527 100.29C113.166 101.73 113.075 103.08 112.985 104.61C112.895 107.13 112.804 109.74 112.804 112.35C112.262 113.07 112.081 113.79 111.991 114.06L111.901 113.97L110.455 115.95L112.714 117.21L115.063 115.95L114.973 115.86L115.696 113.16L115.605 113.07C116.238 110.28 116.78 107.67 117.322 104.97C117.774 102.36 118.406 99.57 119.129 97.14C120.032 94.71 121.026 91.92 122.02 89.4C123.014 86.88 124.008 84.09 125.002 81.57L119.852 79.41Z" fill="#FFBF99"/>
<path d="M113.347 170.67L116.87 171.3L118.497 163.38H114.883L113.347 170.67Z" fill="#FFBF99"/>
<path d="M117.232 170.94L113.256 170.31C113.166 170.31 113.076 170.31 112.805 170.49L111.54 173.46C111.449 173.64 111.63 174.09 111.991 174.18C113.347 174.36 113.979 174.36 115.696 174.72C116.69 174.81 117.864 175.26 122.382 175.26C123.918 175.26 124.099 173.73 123.376 173.64C120.575 173.01 118.135 172.29 117.413 171.39C117.593 171.03 117.413 170.94 117.232 170.94Z" fill="#1A1054"/>
<path d="M153.282 171.12L156.806 170.22L154.908 162.3L151.565 163.2L153.282 171.12Z" fill="#FFBF99"/>
<path d="M156.535 169.77L152.83 170.76C152.74 170.76 152.649 170.85 152.649 170.94L152.74 174.09C152.74 174.54 153.192 174.63 153.372 174.63C154.728 174.18 156.535 173.64 158.342 173.1C160.329 172.56 162.046 172.29 164.305 171.57C165.66 171.12 165.66 169.77 165.028 169.77C162.136 169.86 160.058 170.49 157.348 169.68C157.257 169.77 156.896 169.77 156.535 169.77Z" fill="#1A1054"/>
<path d="M142.711 76.1701C142.711 76.1701 146.958 86.7901 142.892 106.5C137.109 106.5 126.899 106.5 124.008 106.5C123.918 103.62 125.725 89.4901 122.924 76.0801C122.924 76.0801 126.086 75.4501 129.249 75.3601C131.598 75.2701 135.121 75.1801 137.109 75.3601C140.091 75.4501 142.711 76.1701 142.711 76.1701Z" fill="#0064E1"/>
<path opacity="0.1" d="M142.711 76.1701C142.711 76.1701 146.958 86.7901 142.892 106.5C137.109 106.5 126.899 106.5 124.008 106.5C123.918 103.62 125.725 89.4901 122.924 76.0801C122.924 76.0801 126.086 75.4501 129.249 75.3601C131.598 75.2701 135.121 75.1801 137.109 75.3601C140.091 75.4501 142.711 76.1701 142.711 76.1701Z" fill="#0064E1"/>
<path d="M152.56 94.89C152.469 94.71 152.379 94.26 152.379 94.17L152.289 93.72L151.837 92.91L151.114 91.29L149.759 87.96C148.946 85.71 147.952 83.46 146.958 81.3L141.808 83.46C142.621 85.71 143.615 87.9601 144.699 90.1201C145.241 91.2001 145.693 92.37 146.325 93.45C146.506 93.99 146.867 94.53 147.139 95.07L147.59 95.79C147.59 95.79 147.59 95.79 147.5 95.79C146.687 96.24 145.512 96.33 144.428 96.51C142.169 96.96 139.73 97.05 137.471 97.14L137.29 99.93C139.73 100.47 142.259 100.65 144.88 100.65C146.145 100.65 147.41 100.65 148.946 100.11C149.397 100.02 149.668 99.93 150.211 99.66C150.662 99.48 151.024 99.21 151.566 98.94C152.108 98.49 152.56 97.95 152.831 97.14C152.921 96.33 152.831 95.52 152.56 94.89Z" fill="#FFBF99"/>
<path d="M138.646 78.5101C137.381 81.5701 143.434 90.8401 143.434 90.8401L150.482 86.9701C150.482 86.9701 148.855 82.3801 146.416 78.7801C143.886 75.2701 139.91 75.0901 138.646 78.5101Z" fill="#0054A3"/>
<path opacity="0.1" d="M138.646 78.5101C137.381 81.5701 143.434 90.8401 143.434 90.8401L150.482 86.9701C150.482 86.9701 148.855 82.3801 146.416 78.7801C143.886 75.2701 139.91 75.0901 138.646 78.5101Z" fill="#0054A3"/>
<path d="M131.598 95.0701L131.236 98.7601L134.67 99.3001L135.122 95.1601L131.598 95.0701Z" fill="#FFBF99"/>
<path d="M137.832 97.2301L135.302 95.2501L134.76 99.3001C134.76 99.3001 137.109 101.01 138.735 99.3901L137.832 97.2301Z" fill="#FFBF99"/>
<path d="M142.982 106.41C142.982 106.41 149.94 126.75 151.385 134.58C152.921 142.68 156.535 166.53 156.535 166.53L151.114 167.79C151.114 167.79 143.344 144.21 141.175 136.47C138.916 128.01 130.694 106.5 130.694 106.5L142.982 106.41Z" fill="#DE051F"/>
<path d="M142.982 106.41C142.982 106.41 149.94 126.75 151.385 134.58C152.921 142.68 156.535 166.53 156.535 166.53L151.114 167.79C151.114 167.79 143.344 144.21 141.175 136.47C138.916 128.01 130.694 106.5 130.694 106.5L142.982 106.41Z" fill="#DE051F"/>
<path d="M136.296 106.41C136.296 106.41 134.67 127.38 132.592 134.67C130.242 142.77 118.677 168.15 118.677 168.15H112.172C112.172 168.15 120.484 143.31 121.84 135.39C123.376 126.66 124.098 106.32 124.098 106.32L136.296 106.41Z" fill="#EE384E"/>
<path d="M136.296 106.41C136.296 106.41 134.67 127.38 132.592 134.67C130.242 142.77 118.677 168.15 118.677 168.15H112.172C112.172 168.15 120.484 143.31 121.84 135.39C123.376 126.66 124.098 106.32 124.098 106.32L136.296 106.41Z" fill="#EE384E"/>
<path d="M123.014 76.08C119.671 76.62 115.876 88.05 115.876 88.05L122.833 92.01C122.833 92.01 125.905 86.61 127.441 82.47C128.977 78.15 126.628 75.45 123.014 76.08Z" fill="#0054A3"/>
<path opacity="0.1" d="M123.014 76.08C119.671 76.62 115.876 88.05 115.876 88.05L122.833 92.01C122.833 92.01 125.905 86.61 127.441 82.47C128.977 78.15 126.628 75.45 123.014 76.08Z" fill="#0054A3"/>
<path d="M130.333 75.1801C130.333 75.1801 130.784 74.6401 131.598 73.6501C131.778 73.4701 132.14 72.9301 131.598 72.8401C131.507 72.8401 131.417 72.8401 131.056 72.7501C130.875 72.7501 130.875 72.8401 130.513 72.9301C130.423 73.0201 130.333 73.0201 129.971 73.1101C129.339 73.2901 128.616 73.2901 127.803 73.2901C127.803 73.2901 127.08 73.3801 126.176 70.3201C125.363 67.2601 126.086 62.2201 126.086 62.2201L130.333 61.5001L132.049 62.0401L134.579 63.5701L136.567 64.1101L136.477 66.9001C136.477 66.9001 136.296 68.1601 136.567 71.5801C136.748 74.9101 138.193 75.5401 138.193 75.5401C138.193 75.5401 132.682 77.0701 130.333 75.1801Z" fill="#FFBF99"/>
<path d="M125.363 63.3901C124.369 62.7601 121.84 60.9601 123.647 58.4401C123.647 58.4401 125.634 56.2801 127.17 57.9001C127.261 57.7201 129.429 54.2101 132.592 57.2701C132.772 57.2701 137.38 55.4701 137.742 58.5301C137.742 58.5301 137.922 60.2401 137.832 60.8701C138.013 60.8701 140.723 60.7801 140.181 63.8401C140.181 63.8401 140.181 63.9301 140.181 64.0201C140.181 64.1101 140.181 64.2001 140.181 64.5601C140.181 64.8301 140.091 65.1001 140 65.2801C139.91 65.3701 139.82 65.4601 139.549 65.8201C139.368 66.3601 139.368 66.8101 139.549 67.3501C140.091 68.0701 140 71.2201 136.657 71.4001C136.657 71.4001 134.85 71.8501 134.67 68.8801C134.67 68.8801 134.489 67.5301 135.302 66.9001C135.754 66.4501 136.115 65.8201 135.844 65.1901C135.754 65.0101 135.392 64.7401 135.212 64.7401C135.031 64.7401 134.67 64.8301 134.489 64.8301C134.308 64.8301 133.947 64.8301 133.766 64.7401C133.585 64.6501 133.043 64.5601 132.953 64.2001C132.953 64.2001 131.236 62.0401 129.068 62.4901C129.068 62.4901 127.351 62.6701 126.176 63.4801C125.905 63.4801 125.725 63.4801 125.363 63.3901Z" fill="#1A1455"/>
<path d="M165.752 123.42C153.825 123.42 144.338 113.79 144.338 102.09V83.37C144.338 82.92 144.79 82.65 145.061 82.65C145.512 82.65 145.784 83.1 145.784 83.37V102.18C145.784 113.25 154.728 122.07 165.752 122.07C176.865 122.07 185.72 113.16 185.72 102.18V50.43C185.72 49.98 186.171 49.71 186.442 49.71C186.713 49.71 187.165 50.16 187.165 50.43V102.18C187.346 113.97 177.588 123.42 165.752 123.42Z" fill="#407BFF"/>
<path opacity="0.3" d="M165.752 123.42C153.825 123.42 144.338 113.79 144.338 102.09V83.37C144.338 82.92 144.79 82.65 145.061 82.65C145.512 82.65 145.784 83.1 145.784 83.37V102.18C145.784 113.25 154.728 122.07 165.752 122.07C176.865 122.07 185.72 113.16 185.72 102.18V50.43C185.72 49.98 186.171 49.71 186.442 49.71C186.713 49.71 187.165 50.16 187.165 50.43V102.18C187.346 113.97 177.588 123.42 165.752 123.42Z" fill="black"/>
<path d="M40.3412 145.83C40.3412 145.83 45.4914 140.7 47.2081 144.03C48.9248 147.18 50.5511 146.82 52.1775 146.28C53.7135 145.74 56.4241 143.49 58.1408 147.09C59.8575 150.6 59.1346 153.03 61.1224 153.93C63.1102 154.83 69.5252 160.77 66.3629 162.66C63.2005 164.64 58.5022 162.48 56.7855 161.04C55.1591 159.51 52.0871 160.23 49.8283 161.13C47.5695 162.12 44.3168 161.67 44.6782 158.61C45.2203 155.55 43.1422 152.85 40.9737 152.67C38.8052 152.22 37.0885 149.25 40.3412 145.83Z" fill="#023EA1"/>
<path d="M44.1357 148.62L67.9889 165.09" stroke="white" stroke-miterlimit="10"/>
<path d="M54.256 148.44L53.8946 155.19L47.2988 157.98" stroke="white" stroke-miterlimit="10"/>
<path d="M51.9065 126.12C51.9065 126.12 49.0153 125.31 49.7381 122.61C50.4609 120.18 54.2557 118.92 55.7014 120.36C57.2374 121.89 56.4242 123.51 58.1409 123.33C59.8576 123.15 64.7367 122.88 64.6463 125.49C64.556 128.01 62.1164 128.82 64.0138 131.25C66.0016 133.59 71.6035 132.24 69.9771 137.01C68.4411 141.69 63.9235 149.25 58.412 143.85C52.9908 138.45 60.3997 137.28 55.2496 134.49C50.0091 131.61 53.0811 130.44 53.5329 128.46C54.075 126.21 51.9065 126.12 51.9065 126.12Z" fill="#DE051F"/>
<path d="M57.0566 126.93C57.0566 126.93 60.0383 134.4 64.827 139.71C69.6157 145.02 71.5131 145.29 71.5131 145.29" stroke="white" stroke-miterlimit="10" stroke-linecap="round" stroke-linejoin="round"/>
<path d="M66.0022 155.46C66.0022 155.46 53.0817 142.68 48.1123 131.25" stroke="#FCBE42" stroke-miterlimit="10"/>
<path d="M46.0337 123.42C46.0337 123.42 50.5514 126.75 48.4732 132.33C48.5636 132.24 44.2267 129.99 46.0337 123.42Z" stroke="#FCBE42" stroke-miterlimit="10"/>
<path d="M54.0751 141.24C54.0751 141.24 51.8162 136.56 56.4242 132.42C56.2435 132.51 59.4962 135.93 54.0751 141.24Z" stroke="#FCBE42" stroke-miterlimit="10"/>
<path d="M61.5743 150.69C61.5743 150.69 58.5023 146.64 62.1164 141.51C62.1164 141.6 66.0016 144.39 61.5743 150.69Z" stroke="#FCBE42" stroke-miterlimit="10"/>
<path d="M61.4845 150.96C61.4845 150.96 58.1415 147 52.4492 149.43C52.4492 149.43 54.2563 153.75 61.4845 150.96Z" stroke="#FCBE42" stroke-miterlimit="10"/>
<path d="M54.0753 141.15C54.0753 141.15 51.184 136.83 45.2207 138.63C45.2207 138.63 46.576 143.13 54.0753 141.15Z" stroke="#FCBE42" stroke-miterlimit="10"/>
<path d="M70.4283 177.42H107.021C110.003 177.42 112.352 174.99 112.171 172.02L104.943 69.06C104.762 66.09 102.052 63.66 99.0702 63.66H62.4773C59.4956 63.66 57.1464 66.09 57.3272 69.06L64.465 171.93C64.7361 174.99 67.3563 177.42 70.4283 177.42Z" fill="#407BFF"/>
<path d="M70.4283 177.42H107.021C110.003 177.42 112.352 174.99 112.171 172.02L104.943 69.06C104.762 66.09 102.052 63.66 99.0702 63.66H62.4773C59.4956 63.66 57.1464 66.09 57.3272 69.06L64.465 171.93C64.7361 174.99 67.3563 177.42 70.4283 177.42Z" fill="#25409C"/>
<path d="M74.3136 177.42H110.907C113.888 177.42 116.237 174.99 116.057 172.02L108.828 69.06C108.648 66.09 105.937 63.66 102.955 63.66H66.2722C63.2905 63.66 60.9414 66.09 61.1221 69.06L68.26 171.93C68.6214 174.99 71.332 177.42 74.3136 177.42Z" fill="#407BFF"/>
<path d="M74.3136 177.42H110.907C113.888 177.42 116.237 174.99 116.057 172.02L108.828 69.06C108.648 66.09 105.937 63.66 102.955 63.66H66.2722C63.2905 63.66 60.9414 66.09 61.1221 69.06L68.26 171.93C68.6214 174.99 71.332 177.42 74.3136 177.42Z" fill="#023EA1"/>
<path d="M69.7963 171.48H114.611C115.063 171.48 115.334 171.03 115.334 170.76L108.287 70.5C108.287 70.05 107.835 69.87 107.564 69.87H62.6584C62.2066 69.87 61.9355 70.32 61.9355 70.59L68.9831 170.85C69.1638 171.12 69.4348 171.48 69.7963 171.48Z" fill="#FAFAFA"/>
<path d="M66.724 117.3L69.525 110.01C69.9767 109.11 71.061 109.11 71.6934 110.01L77.2049 117.3C77.8374 118.2 77.3857 119.28 76.4821 119.28H74.6751C76.6628 125.58 82.5358 130.71 89.2219 131.52C90.3061 131.61 91.3 132.6 91.4807 133.59C91.6614 134.94 90.7579 135.84 89.4026 135.66C80.6384 134.58 72.7777 127.65 70.5188 119.1H68.3504C67.1758 119.19 66.2722 118.11 66.724 117.3Z" fill="#0064B7"/>
<path d="M85.6079 101.1C85.4272 99.75 86.3307 98.85 87.686 99.03C96.4503 100.11 104.311 107.04 106.57 115.59H108.738C109.732 115.59 110.455 116.67 110.184 117.57L107.383 124.86C106.931 125.76 105.847 125.76 105.215 124.86L99.703 117.57C99.0705 116.67 99.5223 115.59 100.426 115.59H102.414C100.426 109.29 94.5529 104.16 87.8668 103.35C86.7825 103.08 85.879 102.27 85.6079 101.1Z" fill="#0064B7"/>
<g opacity="0.3">
<path d="M66.724 117.3L69.525 110.01C69.9767 109.11 71.061 109.11 71.6934 110.01L77.2049 117.3C77.8374 118.2 77.3857 119.28 76.4821 119.28H74.6751C76.6628 125.58 82.5358 130.71 89.2219 131.52C90.3061 131.61 91.3 132.6 91.4807 133.59C91.6614 134.94 90.7579 135.84 89.4026 135.66C80.6384 134.58 72.7777 127.65 70.5188 119.1H68.3504C67.1758 119.19 66.2722 118.11 66.724 117.3Z" fill="#0064B7"/>
<path d="M85.6079 101.1C85.4272 99.75 86.3307 98.85 87.686 99.03C96.4503 100.11 104.311 107.04 106.57 115.59H108.738C109.732 115.59 110.455 116.67 110.184 117.57L107.383 124.86C106.931 125.76 105.847 125.76 105.215 124.86L99.703 117.57C99.0705 116.67 99.5223 115.59 100.426 115.59H102.414C100.426 109.29 94.5529 104.16 87.8668 103.35C86.7825 103.08 85.879 102.27 85.6079 101.1Z" fill="#0064B7"/>
</g>
<path d="M77.2051 66.45C77.2051 66.99 77.7472 67.26 78.199 67.26C78.6507 67.26 79.0121 66.81 78.9218 66.45C78.9218 65.91 78.3797 65.64 77.9279 65.64C77.4761 65.64 77.2051 65.91 77.2051 66.45Z" fill="#407BFF"/>
<path opacity="0.4" d="M77.2051 66.45C77.2051 66.99 77.7472 67.26 78.199 67.26C78.6507 67.26 79.0121 66.81 78.9218 66.45C78.9218 65.91 78.3797 65.64 77.9279 65.64C77.4761 65.64 77.2051 65.91 77.2051 66.45Z" fill="#FAFAFA"/>
<path d="M81.5423 67.35H91.1197C91.6618 67.35 91.9328 66.9 91.8425 66.54C91.8425 66 91.3004 65.73 90.8486 65.73H81.2712C80.7291 65.73 80.458 66.18 80.5484 66.54C80.7291 66.9 81.0905 67.35 81.5423 67.35Z" fill="#407BFF"/>
<path opacity="0.4" d="M81.5423 67.35H91.1197C91.6618 67.35 91.9328 66.9 91.8425 66.54C91.8425 66 91.3004 65.73 90.8486 65.73H81.2712C80.7291 65.73 80.458 66.18 80.5484 66.54C80.7291 66.9 81.0905 67.35 81.5423 67.35Z" fill="#FAFAFA"/>
<path d="M174.515 145.11C174.515 145.11 176.684 144.3 176.503 141.96C176.413 139.62 175.148 137.91 177.587 138.45C180.027 139.17 181.111 139.44 182.828 139.08C184.545 138.63 186.171 138 185.358 140.34C184.635 142.68 183.641 144.84 185.538 145.11C187.436 145.38 189.514 144.12 189.785 147.9C189.966 151.59 186.984 155.73 182.105 156.09C177.136 156.18 175.057 154.29 175.057 154.29C175.057 154.29 173.702 152.49 175.78 151.95C177.858 151.41 179.846 150.6 178.852 149.7C177.858 148.71 174.335 148.71 174.335 148.71C174.335 148.71 170.359 147.54 174.515 145.11Z" fill="#779CE6"/>
<path d="M196.923 145.74C196.471 143.4 196.833 141.69 201.26 141.06C205.778 140.43 208.308 143.04 208.579 145.74C208.759 148.53 204.965 149.43 204.965 149.43C204.965 149.43 202.164 150.15 203.609 152.58C204.965 154.92 205.597 157.26 202.525 157.71C199.363 158.16 195.929 157.17 193.942 156C191.954 154.74 189.966 151.5 192.225 149.79C192.225 149.79 192.857 149.25 195.026 149.25C197.194 149.07 196.923 145.74 196.923 145.74Z" fill="#023EA1"/>
<path d="M181.292 145.29C181.292 145.29 184.996 153.57 185.539 159.33" stroke="#A0D8FD" stroke-width="0.5" stroke-miterlimit="10" stroke-linecap="round" stroke-linejoin="round"/>
<path d="M201.982 146.73C201.982 146.73 195.387 156.36 193.851 159.6" stroke="#719DD1" stroke-width="0.5" stroke-miterlimit="10" stroke-linecap="round" stroke-linejoin="round"/>
<path d="M183.28 158.7H198.369C198.369 158.7 199.995 158.79 199.905 161.04C199.814 163.2 197.104 162.66 195.839 162.66C194.574 162.66 183.009 162.66 183.009 162.66C183.009 162.66 181.202 162.84 181.202 160.95C181.021 158.79 181.834 158.7 183.28 158.7Z" fill="#3055A0"/>
<path d="M182.828 162.66L185.087 175.89H195.206L196.923 165.81L182.828 162.66Z" fill="#3055A0"/>
<path d="M182.828 162.66L196.923 165.81L197.556 162.66H182.828Z" fill="#3C6AD0"/>
<path d="M189.333 159.24C189.333 159.24 190.056 144.66 194.573 135.3" stroke="#EBBC4E" stroke-width="0.5" stroke-miterlimit="10"/>
<path d="M198.188 129.99C198.188 129.99 198.639 134.49 194.122 136.29C194.031 136.29 193.218 132.51 198.188 129.99Z" fill="#EBBC4E"/>
<path d="M191.502 144.39C191.502 144.39 193.128 140.52 198.098 141.06C198.188 141.06 197.827 144.93 191.502 144.39Z" fill="#EBBC4E"/>
<path d="M189.875 154.02C189.875 154.02 190.688 149.97 195.748 149.43C195.658 149.43 196.109 153.3 189.875 154.02Z" fill="#EBBC4E"/>
<path d="M189.695 154.02C189.695 154.02 190.327 149.97 185.719 147.81C185.719 147.9 184.183 151.32 189.695 154.02Z" fill="#EBBC4E"/>
<path d="M191.592 144.39C191.592 144.39 192.676 140.43 188.52 137.73C188.52 137.64 186.351 140.88 191.592 144.39Z" fill="#EBBC4E"/>
</svg>
