<svg width="270" height="186" viewBox="0 0 270 186" fill="none" xmlns="http://www.w3.org/2000/svg">
<g clip-path="url(#clip0_1409_4158)">
<path d="M247.594 178.41H22.4521C22.1808 178.41 22 178.23 22 177.96C22 177.69 22.1808 177.51 22.4521 177.51H247.594C247.866 177.51 248.047 177.69 248.047 177.96C248.047 178.23 247.866 178.41 247.594 178.41Z" fill="#1A1A1A"/>
<path d="M41.0877 108.734C41.0877 108.734 55.1026 102.614 56.0068 111.074C56.9109 119.534 60.3468 120.074 64.054 120.254C67.6708 120.704 74.5426 118.364 74.9042 127.364C75.4468 136.364 72.1013 141.134 75.3563 144.734C78.4306 148.334 86.4778 166.964 78.4306 168.044C70.3833 169.124 63.0594 160.304 60.8894 155.894C58.7193 151.214 52.2996 149.684 46.9649 149.684C41.6302 149.684 35.6626 145.544 39.0985 139.604C42.6248 133.484 40.726 126.194 36.4763 123.674C32.2267 121.154 31.5937 112.964 41.0877 108.734Z" fill="#023EA1"/>
<path d="M47.417 116.834L80.7815 173.984" stroke="white" stroke-miterlimit="10" stroke-linecap="round" stroke-linejoin="round"/>
<path d="M67.3995 125.834L60.9798 140.054L45.8799 139.514" stroke="white" stroke-miterlimit="10" stroke-linecap="round" stroke-linejoin="round"/>
<path d="M68.2133 169.754C68.2133 169.754 42.1727 152.384 30.0566 134.654" stroke="#FCBE42" stroke-miterlimit="10"/>
<path d="M24.3605 122.144C24.3605 122.144 32.9503 126.374 31.5036 136.184C31.4132 136.274 23.3659 133.844 24.3605 122.144Z" stroke="#FCBE42" stroke-miterlimit="10"/>
<path d="M43.4389 149.594C43.4389 149.594 38.1946 142.484 44.6143 133.934C44.5239 134.024 51.1245 138.884 43.4389 149.594Z" stroke="#FCBE42" stroke-miterlimit="10"/>
<path d="M59.3525 163.094C59.3525 163.094 52.8423 157.064 57.3633 147.524C57.3633 147.614 64.6872 150.944 59.3525 163.094Z" stroke="#FCBE42" stroke-miterlimit="10"/>
<path d="M59.1713 163.454C59.1713 163.454 52.2995 157.964 43.4385 163.994C43.4385 163.994 48.1402 170.654 59.1713 163.454Z" stroke="#FCBE42" stroke-miterlimit="10"/>
<path d="M43.4393 149.504C43.4393 149.504 37.2908 143.114 27.7969 148.064C27.7969 148.064 31.4136 155.354 43.4393 149.504Z" stroke="#FCBE42" stroke-miterlimit="10"/>
<path d="M245.976 145.814C245.976 145.814 248.87 160.304 240.641 159.314C232.504 158.414 231.148 161.654 230.153 164.984C229.068 168.314 229.701 175.334 221.021 173.804C212.34 172.274 208.543 168.314 204.474 170.564C200.315 172.814 181.056 176.414 181.598 168.674C182.231 160.844 192.177 155.714 196.879 154.724C201.581 153.644 204.564 147.884 205.74 142.934C206.825 137.984 211.888 133.034 217.042 137.624C222.196 142.124 229.52 141.854 232.866 138.434C236.03 135.014 243.806 135.914 245.976 145.814Z" fill="#023EA1"/>
<path d="M236.212 148.514L174.817 168.224" stroke="white" stroke-width="0.9696" stroke-miterlimit="10" stroke-linecap="round" stroke-linejoin="round"/>
<path d="M223.463 165.524L211.166 156.524L214.692 142.394" stroke="white" stroke-width="0.9696" stroke-miterlimit="10" stroke-linecap="round" stroke-linejoin="round"/>
<path d="M210.08 113.144C210.08 113.144 216.138 109.184 213.335 103.964C210.442 98.8342 201.581 98.3842 199.049 102.794C196.518 107.204 198.688 110.714 194.709 111.164C190.731 111.614 179.971 114.674 181.237 120.074C182.503 125.474 188.561 126.104 185.034 132.674C181.598 139.334 168.669 139.874 174.184 149.594C179.609 159.494 193.262 173.354 202.937 157.514C212.702 141.764 195.433 143.834 206.102 134.024C216.5 124.214 208.995 123.314 207.368 119.084C205.469 114.944 210.08 113.144 210.08 113.144Z" fill="#EE384E"/>
<path d="M199.049 118.544C199.049 118.544 195.703 137.354 187.023 152.564C178.524 167.864 174.455 169.844 174.455 169.844" stroke="white" stroke-width="0.9696" stroke-miterlimit="10" stroke-linecap="round" stroke-linejoin="round"/>
<path d="M198.777 166.154C198.777 166.154 210.713 138.434 225.632 123.674" stroke="#FCBE42" stroke-width="0.9696" stroke-miterlimit="10"/>
<path d="M236.211 116.114C236.211 116.114 233.679 125.114 223.914 125.294C224.004 125.384 224.909 117.284 236.211 116.114Z" stroke="#FCBE42" stroke-width="0.9696" stroke-miterlimit="10"/>
<path d="M213.335 139.064C213.335 139.064 219.122 132.764 228.525 137.354C228.525 137.354 225.089 144.464 213.335 139.064Z" stroke="#FCBE42" stroke-width="0.9696" stroke-miterlimit="10"/>
<path d="M203.208 156.524C203.208 156.524 207.819 149.234 217.765 151.754C217.765 151.934 215.776 159.584 203.208 156.524Z" stroke="#FCBE42" stroke-width="0.9696" stroke-miterlimit="10"/>
<path d="M202.937 156.524C202.937 156.524 206.915 148.964 199.682 141.674C199.592 141.674 194.076 147.254 202.937 156.524Z" stroke="#FCBE42" stroke-width="0.9696" stroke-miterlimit="10"/>
<path d="M213.425 139.064C213.425 139.064 218.489 132.044 212.069 123.944C212.069 124.034 205.83 128.714 213.425 139.064Z" stroke="#FCBE42" stroke-width="0.9696" stroke-miterlimit="10"/>
<path d="M192.358 8.29413H65.2295V178.304H192.358V8.29413Z" fill="#3864B2"/>
<path d="M186.391 13.7841H72.7344V170.564H186.391V13.7841Z" fill="white"/>
<path d="M106.279 8.29413V14.0541C106.279 17.2941 108.901 19.8141 112.066 19.8141H143.08C146.335 19.8141 148.866 17.2041 148.866 14.0541V8.29413H106.279Z" fill="#25409C"/>
<path d="M133.947 163.364C132.229 163.994 130.421 164.174 129.065 164.084C126.895 163.994 125.81 162.824 125.629 161.024C125.629 159.584 126.262 158.234 127.347 157.334C127.347 157.244 127.347 157.154 127.347 157.154C127.256 156.164 127.437 155.444 127.98 155.174C128.794 154.634 129.969 155.354 130.15 155.354L129.969 155.894C129.788 155.804 128.794 155.354 128.522 155.714C128.07 155.894 128.07 156.524 128.07 157.154C129.065 156.434 130.331 155.894 131.777 155.534C132.953 155.354 134.128 154.994 135.304 154.904C135.304 154.814 135.304 154.724 135.304 154.454C135.304 154.274 135.394 153.914 135.756 153.824C135.846 153.824 135.937 153.824 136.208 154.004C136.298 154.094 136.298 154.454 136.298 154.634C136.75 154.634 137.022 154.634 137.474 154.634C137.383 154.004 137.474 153.284 137.564 152.744C137.655 152.114 138.016 151.754 138.197 151.754C138.378 151.754 138.649 151.844 138.649 151.934C138.74 152.384 138.559 153.554 138.016 154.544C138.559 154.634 138.74 154.724 138.83 154.994C138.92 155.084 138.92 155.444 138.74 155.534C138.288 155.984 138.107 155.714 138.016 155.624C137.926 155.534 137.835 155.534 137.835 155.174C137.383 155.894 137.112 156.524 136.66 156.794C136.479 156.974 136.117 156.884 136.027 156.884L135.937 156.794C135.846 156.974 135.756 157.424 135.485 157.604C134.852 158.594 134.219 159.044 133.586 159.044C133.405 159.044 133.043 158.954 132.862 158.864C132.41 159.584 132.139 160.304 131.597 160.844C131.054 161.384 130.602 161.564 129.969 161.474C128.974 161.024 127.98 159.584 127.618 157.874C126.804 158.684 126.262 159.764 126.352 160.934C126.352 162.374 127.347 163.274 129.246 163.544C133.947 163.994 142.085 159.494 142.718 156.434C141.904 159.134 138.107 162.104 133.947 163.364ZM127.889 157.604C128.07 159.494 129.155 160.844 129.879 161.114C130.331 161.204 130.602 161.114 130.873 160.664C131.416 160.034 131.868 159.224 132.139 158.414C132.049 158.234 132.049 157.964 131.958 157.694C131.868 157.064 131.868 156.254 131.958 155.534C131.144 155.714 130.24 156.074 129.426 156.344C128.884 156.974 128.432 157.244 127.889 157.604ZM132.862 158.414C132.953 158.504 133.043 158.864 133.405 158.864C133.857 158.864 134.219 158.414 134.761 157.604C134.942 157.154 135.213 156.794 135.304 156.344C135.213 155.894 135.213 155.624 135.213 155.174C134.58 155.174 133.947 155.264 133.314 155.354C133.495 156.164 133.314 157.334 132.862 158.414ZM135.846 156.344C135.937 156.524 135.937 156.524 135.937 156.524C136.117 156.344 136.57 155.714 136.931 155.084C136.75 155.084 136.389 155.084 136.117 155.084C136.027 155.534 135.937 155.984 135.846 156.344ZM132.682 155.804C132.591 155.984 132.501 157.064 132.591 157.784C132.862 156.794 132.862 156.074 132.682 155.804ZM137.926 152.564C137.926 152.654 137.835 153.014 137.835 153.194C137.745 153.014 137.926 152.744 137.926 152.564Z" fill="#155BCC"/>
<path d="M106.822 83.8041H86.2969V63.3741H106.822V83.8041ZM87.2915 82.9041H105.918V64.3641H87.2915V82.9041Z" fill="#DDE7F6"/>
<path d="M97.0569 79.6641C96.6048 79.6641 96.2431 79.4841 95.8814 79.1241L89.4617 71.4741C88.9192 70.8441 89.0096 70.0341 89.6425 69.4941C90.2755 68.9541 91.0892 69.0441 91.6317 69.6741L96.6048 75.7941L105.737 60.5841C106.189 59.8641 107.003 59.7741 107.726 60.0441C108.45 60.4941 108.54 61.3041 108.269 62.0241L98.0515 79.1241C97.961 79.3941 97.6898 79.6641 97.0569 79.6641Z" fill="#155BCC"/>
<path d="M106.822 115.844H86.2969V95.4141H106.822V115.844ZM87.2915 114.854H105.918V96.3141H87.2915V114.854Z" fill="#DDE7F6"/>
<path d="M97.0569 111.524C96.6048 111.524 96.2431 111.344 95.8814 110.984L89.4617 103.334C88.9192 102.704 89.0096 101.894 89.6425 101.354C90.2755 100.814 91.0892 100.904 91.6317 101.534L96.6048 107.654L105.737 92.4441C106.189 91.7241 107.003 91.6341 107.726 91.9041C108.45 92.3541 108.54 93.1641 108.269 93.8841L98.0515 110.894C97.961 111.254 97.6898 111.524 97.0569 111.524Z" fill="#155BCC"/>
<path d="M106.822 147.074H86.2969V126.644H106.822V147.074ZM87.2915 146.174H105.918V127.634H87.2915V146.174Z" fill="#DDE7F6"/>
<path d="M97.0569 142.574C96.6048 142.574 96.2431 142.394 95.8814 142.034L89.4617 134.384C88.9192 133.754 89.0096 132.944 89.6425 132.404C90.2755 131.864 91.0892 131.954 91.6317 132.584L96.6048 138.704L105.737 123.494C106.189 122.774 107.003 122.684 107.726 122.954C108.45 123.404 108.54 124.214 108.269 124.934L98.1419 141.854C97.961 142.214 97.6898 142.574 97.0569 142.574Z" fill="#155BCC"/>
<path d="M147.42 68.1441H120.656V70.1241H147.42V68.1441Z" fill="#DDE7F6"/>
<path d="M170.296 68.1441H164.147V70.1241H170.296V68.1441Z" fill="#DDE7F6"/>
<path d="M147.42 77.1441H120.656V79.1241H147.42V77.1441Z" fill="#DDE7F6"/>
<path d="M170.206 77.1441H161.073V79.1241H170.206V77.1441Z" fill="#DDE7F6"/>
<path d="M170.206 72.7341H162.701V74.7141H170.206V72.7341Z" fill="#DDE7F6"/>
<path d="M147.963 72.7341H140.458V74.7141H147.963V72.7341Z" fill="#DDE7F6"/>
<path d="M137.112 72.7341H120.656V74.7141H137.112V72.7341Z" fill="#DDE7F6"/>
<path d="M146.516 98.9241H120.656V100.904H146.516V98.9241Z" fill="#DDE7F6"/>
<path d="M147.42 107.744H120.656V109.724H147.42V107.744Z" fill="#DDE7F6"/>
<path d="M145.973 103.244H139.102V105.224H145.973V103.244Z" fill="#DDE7F6"/>
<path d="M137.112 103.244H120.656V105.224H137.112V103.244Z" fill="#DDE7F6"/>
<path d="M147.42 130.514H120.656V132.494H147.42V130.514Z" fill="#DDE7F6"/>
<path d="M147.42 139.334H120.656V141.314H147.42V139.334Z" fill="#DDE7F6"/>
<path d="M150.675 134.924H139.102V136.904H150.675V134.924Z" fill="#DDE7F6"/>
<path d="M137.112 134.924H120.656V136.904H137.112V134.924Z" fill="#DDE7F6"/>
<path d="M100.312 158.054H86.2969V159.404H100.312V158.054Z" fill="#DDE7F6"/>
<path d="M117.491 158.054H103.477V159.404H117.491V158.054Z" fill="#DDE7F6"/>
<path d="M105.827 161.204H86.2969V162.554H105.827V161.204Z" fill="#DDE7F6"/>
<path d="M164.057 36.6441H95.248V42.8541H164.057V36.6441Z" fill="#DDE7F6"/>
<path d="M160.08 174.704C159.176 175.514 157.006 176.414 154.203 177.044C153.479 177.134 153.751 178.754 155.288 178.754C156.734 178.754 160.261 178.664 161.255 178.664C163.064 178.664 164.149 178.754 165.595 178.754H165.686C166.048 178.664 166.138 178.394 166.138 178.124L165.415 174.704C165.415 174.524 165.324 174.434 165.143 174.434H160.713C160.442 174.434 160.261 174.524 160.08 174.704Z" fill="#170856"/>
<path d="M141.092 174.704C140.187 175.514 138.017 176.414 135.214 177.044C134.491 177.134 134.762 178.754 136.299 178.754C137.746 178.754 141.272 178.664 142.267 178.664C144.075 178.664 145.16 178.754 146.607 178.754H146.698C147.059 178.664 147.15 178.394 147.15 178.124L146.426 174.704C146.426 174.524 146.336 174.434 146.155 174.434H141.725C141.544 174.434 141.272 174.524 141.092 174.704Z" fill="#170856"/>
<path d="M163.696 143.834C164.329 152.474 165.775 174.614 165.775 174.614L159.356 174.434C159.356 174.434 155.649 151.574 154.021 142.844C153.298 139.244 152.484 132.584 151.941 126.284C146.335 138.074 147.33 174.884 147.33 174.884L141.001 174.344C137.022 150.404 142.086 119.534 143.894 111.974H162.973C162.973 113.954 163.063 134.474 163.696 143.834Z" fill="#EE384E"/>
<path opacity="0.2" d="M151.399 121.154C151.399 121.154 149.319 127.004 149.862 132.674C150.495 130.244 151.128 128.084 151.941 126.284L151.399 121.154Z" fill="black"/>
<path d="M134.581 101.534C134.581 101.534 137.113 103.064 138.831 101.444C140.549 99.9141 144.256 95.9541 144.256 95.9541L144.437 94.6941L141.091 91.8141L137.294 97.0341C137.294 97.0341 136.842 97.4841 136.209 97.2141C135.757 97.1241 133.225 96.2241 131.145 95.4141C129.518 94.7841 123.46 91.7241 123.46 91.7241C123.46 91.7241 119.933 89.0241 119.3 89.0241C118.667 89.1141 117.311 89.5641 117.04 90.1041C116.769 90.6441 119.933 93.2541 120.657 93.6141C121.38 94.0641 122.736 93.7941 122.736 93.7941L126.624 96.5841L134.581 101.534Z" fill="#EEBD98"/>
<path d="M147.692 85.7841C147.692 85.7841 145.341 87.1341 144.437 87.8541C143.442 88.5741 140.729 91.8141 140.729 91.8141L144.527 95.5041L147.149 92.4441L147.692 85.7841Z" fill="#0064B7"/>
<path d="M155.739 77.5941C155.739 77.5941 157.729 74.5341 154.926 73.0041C154.926 73.0041 155.287 67.7841 150.766 69.1341C150.405 69.2241 150.043 69.1341 149.772 68.9541C148.868 68.2341 147.15 65.0841 144.528 68.5941C144.347 68.8641 143.985 68.9541 143.714 68.8641C142.538 68.6841 139.554 68.4141 141.092 72.5541C141.092 72.5541 141.905 74.0841 143.714 74.6241C143.714 74.6241 150.766 82.4541 153.479 81.9141C156.192 81.6441 156.734 79.0341 155.739 77.5941Z" fill="#2C2477"/>
<path d="M156.01 84.1641L153.298 82.0941C153.207 82.0941 151.128 81.8241 150.676 80.8341C150.676 80.8341 149.952 79.6641 149.952 78.2241C149.952 77.7741 150.043 77.3241 150.404 77.1441C150.856 76.7841 151.399 75.9741 150.676 75.2541C150.676 75.2541 150.133 74.6241 149.319 75.2541L149.229 75.3441C149.139 75.4341 149.048 75.3441 149.048 75.3441L148.144 74.0841C148.054 73.9941 143.894 71.5641 143.623 75.7041C143.623 75.7941 142.628 79.3941 144.979 82.0941C145.07 82.0941 145.07 82.1841 145.07 82.2741C145.251 82.5441 145.793 83.4441 147.33 82.5441C148.777 81.8241 148.958 82.5441 149.048 82.9041C149.139 82.9941 149.048 83.0841 149.139 83.1741C149.229 83.5341 149.591 84.4341 149.139 84.8841C148.596 85.3341 148.144 87.2241 147.873 87.3141L147.692 87.8541C148.325 87.9441 156.191 86.5041 156.372 84.9741" fill="#FFBF9C"/>
<path d="M155.558 84.2541C155.558 84.2541 154.293 86.2341 152.303 86.5941C150.405 87.1341 149.5 85.6041 149.5 85.6041L149.048 84.9741C149.048 84.9741 148.415 84.5241 147.963 85.0641C147.24 85.6041 146.245 86.8641 145.341 88.7541C144.347 90.5541 144.075 93.3441 143.804 99.2841C143.623 105.404 143.804 111.974 143.804 111.974H162.882L163.063 102.524C163.063 102.524 162.43 89.9241 160.441 87.3141C158.271 84.7041 156.372 84.2541 156.372 84.2541C156.372 84.2541 155.92 83.7141 155.558 84.2541Z" fill="#0083F9"/>
<path d="M164.148 93.9741C164.148 93.9741 165.956 100.634 165.504 104.684C165.052 108.914 163.876 112.334 162.882 114.944C161.797 117.284 161.345 118.094 161.345 119.624C161.345 121.154 160.621 123.044 159.627 123.944C158.632 124.934 157.909 125.474 157.909 125.474C157.909 125.474 156.733 125.924 156.914 125.024C156.914 125.024 156.191 125.024 156.462 124.574C156.462 124.574 155.558 124.574 156.191 123.854C156.914 122.954 158.18 122.324 158.18 122.324C158.18 122.324 158.994 121.244 157.909 121.874C156.824 122.414 155.829 122.414 156.824 121.424C157.818 120.434 158.903 118.814 159.898 115.664C160.712 112.604 161.797 106.394 160.531 101.714C159.446 97.1241 157.909 95.5941 157.909 95.5941L164.148 93.9741Z" fill="#EEBD98"/>
<path d="M156.553 89.7441C156.553 89.7441 156.372 86.6841 158.542 86.4141C160.802 86.1441 162.249 89.0241 162.972 90.9141C163.696 92.7141 164.148 94.2441 164.148 94.2441C164.148 94.2441 159.446 96.2241 158.18 96.2241C158.09 96.2241 157.005 92.8941 156.553 89.7441Z" fill="#0064B7"/>
<path d="M128.595 86.3858L108.528 93.3399L109.926 97.3347L129.993 90.3806L128.595 86.3858Z" fill="#155BCC"/>
<path d="M104.472 96.9441L109.897 97.3941L108.541 93.3441L104.472 96.9441Z" fill="#F9DDBF"/>
<path d="M131.055 86.8641L131.597 88.1241C131.778 88.8441 131.507 89.7441 130.783 90.0141L129.97 90.4641L128.613 86.4141L129.608 85.9641C129.97 85.8741 130.783 86.1441 131.055 86.8641Z" fill="#F9DDBF"/>
</g>
<defs>
<clipPath id="clip0_1409_4158">
<rect width="226.047" height="180" fill="white" transform="translate(22 3)"/>
</clipPath>
</defs>
</svg>
