<svg width="270" height="186" viewBox="0 0 270 186" fill="none" xmlns="http://www.w3.org/2000/svg">
<g clip-path="url(#clip0_1409_4158)">
<path d="M248.532 157.246H22V157.337H248.532V157.246Z" fill="#ECECEC"/>
<path d="M129.376 136.953H41.9344C40.4846 136.953 39.3066 135.77 39.3066 134.314V10.827C39.3066 9.37099 40.4846 8.18799 41.9344 8.18799H129.376C130.826 8.18799 132.004 9.37099 132.004 10.827V134.314C132.004 135.77 130.826 136.953 129.376 136.953ZM41.9344 8.36999C40.5752 8.36999 39.4879 9.46199 39.4879 10.827V134.314C39.4879 135.679 40.5752 136.771 41.9344 136.771H129.376C130.735 136.771 131.822 135.679 131.822 134.314V10.827C131.822 9.46199 130.735 8.36999 129.376 8.36999H41.9344Z" fill="#ECECEC"/>
<path d="M227.419 136.953H139.977C138.528 136.953 137.35 135.77 137.35 134.314V10.827C137.35 9.37099 138.528 8.18799 139.977 8.18799H227.419C228.868 8.18799 230.046 9.37099 230.046 10.827V134.314C229.956 135.77 228.778 136.953 227.419 136.953ZM139.887 8.36999C138.528 8.36999 137.44 9.46199 137.44 10.827V134.314C137.44 135.679 138.528 136.771 139.887 136.771H227.328C228.687 136.771 229.775 135.679 229.775 134.314V10.827C229.775 9.46199 228.687 8.36999 227.328 8.36999H139.887Z" fill="#ECECEC"/>
<path d="M225.878 161.523H211.562V161.614H225.878V161.523Z" fill="#ECECEC"/>
<path d="M173.958 160.34H158.825V160.431H173.958V160.34Z" fill="#ECECEC"/>
<path d="M229.956 165.8H201.685V165.891H229.956V165.8Z" fill="#ECECEC"/>
<path d="M54.4391 164.981H45.7402V165.072H54.4391V164.981Z" fill="#ECECEC"/>
<path d="M72.1991 164.981H58.5166V165.072H72.1991V164.981Z" fill="#ECECEC"/>
<path d="M132.638 163.07H107.9V163.161H132.638V163.07Z" fill="#ECECEC"/>
<path d="M106.269 121.756H89.1436V154.243H106.269V121.756Z" fill="#F0F0F0"/>
<path d="M176.947 154.243H92.4053V157.246H176.947V154.243Z" fill="#F0F0F0"/>
<path d="M180.21 121.756H106.27V154.243H180.21V121.756Z" fill="#FAFAFA"/>
<path d="M173.504 125.76H112.975V135.77H173.504V125.76Z" fill="#F0F0F0"/>
<path d="M173.504 138.5H112.975V148.51H173.504V138.5Z" fill="#F0F0F0"/>
<path d="M150.67 126.579H135.9C135.356 126.579 134.812 126.124 134.812 125.487C134.812 124.941 135.266 124.395 135.9 124.395H150.67C151.213 124.395 151.757 124.85 151.757 125.487C151.757 126.124 151.213 126.579 150.67 126.579Z" fill="#FAFAFA"/>
<path d="M150.67 139.41H135.9C135.356 139.41 134.812 138.955 134.812 138.318C134.812 137.772 135.266 137.226 135.9 137.226H150.67C151.213 137.226 151.757 137.681 151.757 138.318C151.757 138.955 151.213 139.41 150.67 139.41Z" fill="#FAFAFA"/>
<path d="M182.565 118.844H106.27V121.756H182.565V118.844Z" fill="#F0F0F0"/>
<path d="M106.27 118.844H86.6973V121.756H106.27V118.844Z" fill="#E7E7E7"/>
<path d="M145.777 19.563H49.2744V74.345H145.777V19.563Z" fill="#E7E7E7"/>
<path d="M148.858 19.563H49.8184V74.345H148.858V19.563Z" fill="#F5F5F5"/>
<path d="M52.1738 68.157V25.751C52.1738 23.658 53.8955 21.929 55.9796 21.929H142.605C144.689 21.929 146.411 23.658 146.411 25.751V68.066C146.411 70.159 144.689 71.888 142.605 71.888H55.9796C53.8955 71.979 52.1738 70.25 52.1738 68.157Z" fill="white"/>
<path d="M135.266 177.812C183.758 177.812 223.069 175.49 223.069 172.625C223.069 169.76 183.758 167.438 135.266 167.438C86.773 167.438 47.4619 169.76 47.4619 172.625C47.4619 175.49 86.773 177.812 135.266 177.812Z" fill="#F5F5F5"/>
<path d="M204.131 125.396H193.258V124.941H204.131C206.668 124.941 209.115 123.485 210.384 121.119L210.746 121.301C209.387 123.758 206.759 125.396 204.131 125.396Z" fill="#007CFF"/>
<path d="M191.084 124.941H186.644V125.396H191.084V124.941Z" fill="#007CFF"/>
<path d="M204.131 123.758H76.9111C73.9209 123.758 71.6556 121.301 71.9274 118.298L78.814 39.128C79.0858 36.125 81.7136 33.668 84.7038 33.668H211.924C214.914 33.668 217.18 36.125 216.908 39.128L210.021 118.298C209.749 121.301 207.122 123.758 204.131 123.758Z" fill="#0064B7"/>
<path d="M201.413 122.12H77.3645C74.8273 122.12 72.9245 120.027 73.1057 117.479L79.358 45.316C79.4486 44.588 80.0829 43.951 80.8078 43.951H211.471C212.196 43.951 212.74 44.588 212.649 45.316L206.397 117.479C206.216 120.027 203.951 122.12 201.413 122.12Z" fill="white"/>
<path d="M93.2216 40.402C89.5065 40.402 86.7881 37.399 87.1506 33.668C87.513 29.937 90.7751 26.934 94.3996 26.934C98.0241 26.934 100.833 29.937 100.471 33.668H97.7523C97.9335 31.484 96.3025 29.664 94.1278 29.664C91.9531 29.664 90.0502 31.484 89.7784 33.668C89.5971 35.852 91.2282 37.672 93.4029 37.672L93.2216 40.402Z" fill="#023EA1"/>
<path d="M120.134 40.402C116.419 40.402 113.7 37.399 114.063 33.668C114.425 29.937 117.687 26.934 121.312 26.934C124.936 26.934 127.745 29.937 127.383 33.668H124.664C124.846 31.484 123.215 29.664 121.04 29.664C118.865 29.664 116.962 31.484 116.69 33.668C116.509 35.852 118.14 37.672 120.315 37.672L120.134 40.402Z" fill="#023EA1"/>
<path d="M146.955 40.402C143.24 40.402 140.522 37.399 140.884 33.668C141.246 29.937 144.508 26.934 148.133 26.934C151.848 26.934 154.567 29.937 154.204 33.668H151.486C151.667 31.484 150.036 29.664 147.861 29.664C145.686 29.664 143.784 31.484 143.512 33.668C143.331 35.852 144.962 37.672 147.136 37.672L146.955 40.402Z" fill="#023EA1"/>
<path d="M173.867 40.402C170.152 40.402 167.434 37.399 167.796 33.668C168.159 29.937 171.421 26.934 175.045 26.934C178.76 26.934 181.479 29.937 181.116 33.668H178.398C178.579 31.484 176.948 29.664 174.773 29.664C172.599 29.664 170.696 31.484 170.424 33.668C170.243 35.852 171.874 37.672 174.048 37.672L173.867 40.402Z" fill="#023EA1"/>
<path d="M200.779 40.402C197.064 40.402 194.346 37.399 194.708 33.668C195.071 29.937 198.333 26.934 201.957 26.934C205.672 26.934 208.391 29.937 208.028 33.668H205.31C205.491 31.484 203.86 29.664 201.685 29.664C199.511 29.664 197.608 31.484 197.336 33.668C197.155 35.852 198.786 37.672 200.96 37.672L200.779 40.402Z" fill="#023EA1"/>
<path d="M201.141 118.844H78.4517C78.3611 118.844 78.2705 118.753 78.2705 118.662L84.3416 48.319C84.3416 48.228 84.4322 48.137 84.6134 48.137H207.212C207.303 48.137 207.394 48.228 207.394 48.319L201.323 118.662C201.323 118.753 201.232 118.844 201.141 118.844ZM78.7236 118.389H200.87L206.941 48.501H84.7946L78.7236 118.389Z" fill="#E1E1E1"/>
<path d="M202.319 104.739H79.7203C79.6297 104.739 79.5391 104.648 79.5391 104.557C79.5391 104.466 79.6297 104.375 79.8109 104.375H202.41C202.501 104.375 202.591 104.466 202.591 104.557C202.591 104.648 202.501 104.739 202.319 104.739Z" fill="#E1E1E1"/>
<path d="M203.588 90.725H80.898C80.8074 90.725 80.7168 90.634 80.7168 90.543C80.7168 90.452 80.8074 90.361 80.9886 90.361H203.588C203.678 90.361 203.769 90.452 203.769 90.543C203.769 90.634 203.678 90.725 203.588 90.725Z" fill="#E1E1E1"/>
<path d="M204.766 76.62H82.1666C82.076 76.62 81.9854 76.529 81.9854 76.438C81.9854 76.347 82.076 76.256 82.2572 76.256H204.856C204.947 76.256 205.037 76.347 205.037 76.438C205.037 76.529 204.947 76.62 204.766 76.62Z" fill="#E1E1E1"/>
<path d="M206.035 62.515H83.3453C83.2547 62.515 83.1641 62.424 83.1641 62.333C83.1641 62.242 83.2547 62.151 83.4359 62.151H206.035C206.126 62.151 206.216 62.242 206.216 62.333C206.216 62.424 206.126 62.515 206.035 62.515Z" fill="#E1E1E1"/>
<path d="M185.828 118.844C185.737 118.844 185.646 118.753 185.646 118.662L191.718 48.319C191.718 48.228 191.808 48.137 191.989 48.137C192.08 48.137 192.171 48.228 192.171 48.319L186.1 118.662C186.009 118.753 185.918 118.844 185.828 118.844Z" fill="#E1E1E1"/>
<path d="M170.423 118.844C170.333 118.844 170.242 118.753 170.242 118.662L176.313 48.319C176.313 48.228 176.404 48.137 176.585 48.137C176.676 48.137 176.766 48.228 176.766 48.319L170.695 118.662C170.695 118.753 170.605 118.844 170.423 118.844Z" fill="#E1E1E1"/>
<path d="M155.11 118.844C155.019 118.844 154.929 118.753 154.929 118.662L161 48.319C161 48.228 161.09 48.137 161.272 48.137C161.453 48.137 161.453 48.228 161.453 48.319L155.382 118.662C155.382 118.753 155.291 118.844 155.11 118.844Z" fill="#E1E1E1"/>
<path d="M139.796 118.844C139.706 118.844 139.615 118.753 139.615 118.662L145.686 48.319C145.686 48.228 145.777 48.137 145.958 48.137C146.049 48.137 146.139 48.228 146.139 48.319L140.068 118.662C140.068 118.753 139.887 118.844 139.796 118.844Z" fill="#E1E1E1"/>
<path d="M124.483 118.844C124.392 118.844 124.302 118.753 124.302 118.662L130.373 48.319C130.373 48.228 130.463 48.137 130.645 48.137C130.735 48.137 130.826 48.228 130.826 48.319L124.755 118.662C124.664 118.753 124.574 118.844 124.483 118.844Z" fill="#E1E1E1"/>
<path d="M109.17 118.844C109.079 118.844 108.988 118.753 108.988 118.662L115.059 48.319C115.059 48.228 115.15 48.137 115.331 48.137C115.422 48.137 115.512 48.228 115.512 48.319L109.441 118.662C109.351 118.753 109.26 118.844 109.17 118.844Z" fill="#E1E1E1"/>
<path d="M93.856 118.844C93.7654 118.844 93.6748 118.753 93.6748 118.662L99.7459 48.319C99.7459 48.228 99.8365 48.137 100.018 48.137C100.108 48.137 100.199 48.228 100.199 48.319L94.1279 118.662C94.0373 118.753 93.9466 118.844 93.856 118.844Z" fill="#E1E1E1"/>
<path d="M155.926 74.982H146.593C145.777 74.982 145.233 74.345 145.233 73.526L145.958 65.154C146.049 64.335 146.774 63.698 147.499 63.698H156.832C157.647 63.698 158.191 64.335 158.191 65.154L157.466 73.526C157.466 74.345 156.741 74.982 155.926 74.982Z" fill="#007CFF"/>
<path d="M155.926 74.982H146.593C145.777 74.982 145.233 74.345 145.233 73.526L145.958 65.154C146.049 64.335 146.774 63.698 147.499 63.698H156.832C157.647 63.698 158.191 64.335 158.191 65.154L157.466 73.526C157.466 74.345 156.741 74.982 155.926 74.982Z" fill="#155BCC"/>
<path d="M221.258 74.982H211.472L212.468 63.698H222.255L218.539 69.34L221.258 74.982Z" stroke="#25409C" stroke-width="0.25" stroke-miterlimit="10"/>
<path d="M221.711 75.255H211.29L212.287 63.516H222.707L218.902 69.34L221.711 75.255ZM211.652 74.8H220.895L218.267 69.431L221.801 64.062H212.559L211.652 74.8Z" stroke="#25409C" stroke-width="0.25" stroke-miterlimit="10"/>
<path d="M185.284 89.087H175.951C175.135 89.087 174.592 88.45 174.592 87.631L175.317 79.259C175.407 78.44 176.132 77.803 176.857 77.803H186.19C187.006 77.803 187.549 78.44 187.549 79.259L186.825 87.631C186.825 88.45 186.1 89.087 185.284 89.087Z" fill="#007CFF"/>
<path d="M185.284 89.087H175.951C175.135 89.087 174.592 88.45 174.592 87.631L175.317 79.259C175.407 78.44 176.132 77.803 176.857 77.803H186.19C187.006 77.803 187.549 78.44 187.549 79.259L186.825 87.631C186.825 88.45 186.1 89.087 185.284 89.087Z" fill="#155BCC"/>
<path d="M203.225 60.877H178.397C177.582 60.877 177.038 60.24 177.038 59.421L177.763 51.049C177.854 50.23 178.579 49.593 179.303 49.593H204.131C204.947 49.593 205.49 50.23 205.49 51.049L204.766 59.421C204.766 60.24 204.041 60.877 203.225 60.877Z" fill="#155BCC"/>
<path d="M104.095 73.071C100.29 73.071 97.2087 71.706 94.9434 69.158C92.0438 65.882 91.6813 61.787 93.856 58.42C97.1181 53.506 105.454 50.958 110.982 51.686C111.072 51.686 111.163 51.777 111.163 51.959C111.163 52.05 110.982 52.141 110.891 52.141C105.545 51.413 97.2993 53.961 94.2185 58.693C91.7719 62.424 93.2217 66.428 95.3058 68.885C98.2961 72.343 102.374 72.798 105.273 72.616C110.801 72.252 116.872 69.067 120.315 64.699C121.312 63.516 122.761 61.15 121.855 59.239C120.496 56.327 115.966 56.6 112.16 57.055C112.069 57.055 111.888 56.964 111.888 56.873C111.888 56.782 111.979 56.6 112.069 56.6C114.606 56.236 120.496 55.508 122.127 59.057C123.124 61.241 121.584 63.698 120.496 65.063C116.962 69.522 110.71 72.707 105.092 73.162C104.82 73.071 104.458 73.071 104.095 73.071Z" fill="#EE384E"/>
<path d="M179.666 86.539C179.485 86.539 179.394 86.448 179.303 86.266C178.669 84.901 178.035 83.991 177.401 83.354C177.219 83.172 177.219 82.899 177.401 82.717C177.582 82.535 177.854 82.535 178.035 82.717C178.669 83.354 179.213 84.173 179.847 85.265C181.297 83.718 183.019 82.262 184.921 80.897C185.103 80.715 185.374 80.806 185.556 80.988C185.737 81.17 185.646 81.443 185.465 81.625C183.381 83.172 181.569 84.719 180.119 86.357C179.938 86.539 179.756 86.539 179.666 86.539Z" fill="white"/>
<path d="M162.993 116.66C160.184 116.66 158.1 114.385 158.372 111.564C158.643 108.743 161.09 106.468 163.899 106.468C166.708 106.468 168.792 108.743 168.52 111.564C168.248 114.385 165.802 116.66 162.993 116.66ZM163.808 107.378C161.543 107.378 159.459 109.289 159.278 111.564C159.096 113.839 160.818 115.75 163.083 115.75C165.349 115.75 167.433 113.839 167.614 111.564C167.795 109.289 166.074 107.378 163.808 107.378Z" fill="#EE384E"/>
<path d="M119.409 88.4501C116.6 88.4501 114.516 86.1751 114.788 83.3541C115.059 80.5331 117.506 78.2581 120.315 78.2581C123.124 78.2581 125.208 80.5331 124.936 83.3541C124.664 86.1751 122.218 88.4501 119.409 88.4501ZM120.224 79.1681C117.959 79.1681 115.875 81.0791 115.694 83.3541C115.512 85.6291 117.234 87.5401 119.499 87.5401C121.765 87.5401 123.849 85.6291 124.03 83.3541C124.211 81.0791 122.49 79.1681 120.224 79.1681Z" fill="#EE384E"/>
<path opacity="0.1" d="M128.289 100.735H81.1703C79.2674 100.735 77.9082 99.188 78.0894 97.277C78.2707 95.366 79.9017 93.819 81.8046 93.819H128.833C130.735 93.819 132.095 95.366 131.913 97.277C131.823 99.188 130.101 100.735 128.289 100.735Z" fill="black"/>
<path d="M130.555 99.5519L69.3005 94.6379C67.3977 94.4559 66.1291 92.8179 66.4915 90.9979C66.7634 89.1779 68.5756 87.7219 70.4785 87.9039L131.733 92.8179C133.636 92.9999 134.904 94.6379 134.542 96.4579C134.179 98.3689 132.458 99.7339 130.555 99.5519Z" fill="#155BCC"/>
<path d="M67.6691 89.5419L69.6625 90.2699L66.9442 93.1819C66.9442 93.1819 66.2193 92.0899 65.7662 90.9069C65.6756 90.4519 65.9474 89.9059 66.4911 89.8149L67.6691 89.5419Z" fill="#FFBE9B"/>
<path d="M70.5686 93.455L69.3001 94.638C68.847 95.002 68.1221 95.002 67.8503 94.547L66.8535 93.273L69.5719 90.361L70.7499 92.636C70.8405 92.818 70.8405 93.182 70.5686 93.455Z" fill="#FFBE9B"/>
<path d="M92.4068 70.5229C93.2223 72.2519 94.1284 74.0719 95.1251 75.8009C96.0313 77.5299 97.028 79.2589 97.9341 80.8059C98.1154 81.1699 98.4778 81.5339 98.659 81.7159C98.9309 82.0799 99.2933 82.3529 99.6558 82.7169C100.381 83.3539 101.106 84.0819 101.921 84.7189C103.462 86.0839 105.002 87.4489 106.542 88.9049L105.002 90.7249C103.008 89.7239 101.196 88.6319 99.2933 87.4489C98.3872 86.9029 97.3905 86.2659 96.5749 85.6289C96.1219 85.2649 95.6688 84.9009 95.2158 84.5369C94.6721 84.0819 94.3096 83.5359 93.8566 83.1719C92.4068 81.3519 91.41 79.6229 90.3227 77.8029C89.2353 75.9829 88.3292 74.2539 87.5137 72.3429L92.4068 70.5229Z" fill="#FFBE9B"/>
<path d="M75.2807 70.25C74.1028 71.979 72.9248 73.617 71.6562 75.346L68.0317 80.351L67.5786 80.988L67.488 81.079C67.488 81.079 67.488 81.17 67.3974 81.17C67.3068 81.352 67.2162 81.716 67.2162 82.08C67.1256 82.899 67.2162 83.809 67.3068 84.719C67.488 86.539 67.9411 88.541 68.3035 90.452L65.9476 91.271C64.9509 89.36 63.9541 87.449 63.3198 85.447C63.048 84.446 62.7762 83.354 62.6855 82.08C62.6855 81.443 62.6855 80.806 62.8668 80.078C62.9574 79.896 62.9574 79.714 63.048 79.441L63.2292 79.168L63.3198 79.077V78.986L63.7729 78.258C64.7696 76.438 65.9476 74.709 67.1256 72.889C68.3035 71.16 69.4815 69.431 70.7501 67.702L75.2807 70.25Z" fill="#FFBE9B"/>
<path d="M78.6329 56.236C78.2705 59.239 78.9048 63.061 76.5488 64.608C76.5488 64.608 77.0925 67.429 82.7105 68.248C88.9628 69.067 85.8819 66.61 85.8819 66.61C82.5293 65.518 83.0729 62.515 83.9791 60.513L78.6329 56.236Z" fill="#FFBE9B"/>
<path d="M76.2773 66.3369C76.1867 65.2449 76.2773 63.516 77.0928 63.243C77.9084 62.97 83.0733 63.3339 85.7011 65.4269C84.7949 67.0649 84.8855 68.703 84.8855 68.703L76.2773 66.3369Z" fill="#0054A3"/>
<path d="M73.8308 64.608C70.6593 64.881 66.0381 71.979 66.0381 71.979L71.9279 76.62C71.9279 76.62 74.7369 73.981 76.9116 70.887C79.1769 67.702 77.1835 64.426 73.8308 64.608Z" fill="#0054A3"/>
<path opacity="0.6" d="M73.8308 64.608C70.6593 64.881 66.0381 71.979 66.0381 71.979L71.9279 76.62C71.9279 76.62 74.7369 73.981 76.9116 70.887C79.1769 67.702 77.1835 64.426 73.8308 64.608Z" fill="#0054A3"/>
<path opacity="0.2" d="M75.5526 69.7949L71.6562 76.4379L71.9281 76.6199C71.9281 76.6199 73.3779 75.1639 75.0995 73.1619L75.5526 69.7949Z" fill="black"/>
<path d="M90.1405 80.6239C89.5062 83.8999 88.5095 87.9949 87.2409 92.9999L69.209 90.6339C69.3902 88.3589 72.1086 78.2579 71.5649 67.3379C71.4743 65.7909 72.9241 64.5169 74.6457 64.6079C75.5519 64.6079 76.5486 64.6989 77.4547 64.7899C79.7201 64.9719 83.1633 65.3359 85.0662 65.7909C87.7846 66.3369 90.1405 67.3379 90.1405 67.3379C90.1405 67.3379 91.4091 68.9759 90.7748 75.9829C90.5936 77.2569 90.4124 78.8039 90.1405 80.6239Z" fill="#0083F9"/>
<path opacity="0.6" d="M90.1405 80.6239C89.5062 83.8999 88.5095 87.9949 87.2409 92.9999L69.209 90.6339C69.3902 88.3589 72.1086 78.2579 71.5649 67.3379C71.4743 65.7909 72.9241 64.5169 74.6457 64.6079C75.5519 64.6079 76.5486 64.6989 77.4547 64.7899C79.7201 64.9719 83.1633 65.3359 85.0662 65.7909C87.7846 66.3369 90.1405 67.3379 90.1405 67.3379C90.1405 67.3379 91.4091 68.9759 90.7748 75.9829C90.5936 77.2569 90.4124 78.8039 90.1405 80.6239Z" fill="#0083F9"/>
<path opacity="0.2" d="M90.1414 80.624C88.6916 79.805 87.3324 76.074 87.9667 74.072L90.8663 75.801C90.5945 77.257 90.4132 78.804 90.1414 80.624Z" fill="black"/>
<path d="M86.0633 69.34C85.1571 72.07 90.6845 80.078 90.6845 80.078L97.3899 76.984C97.3899 76.984 95.8494 72.98 93.4935 69.795C90.8657 66.337 87.06 66.246 86.0633 69.34Z" fill="#0054A3"/>
<path opacity="0.6" d="M86.0633 69.34C85.1571 72.07 90.6845 80.078 90.6845 80.078L97.3899 76.984C97.3899 76.984 95.8494 72.98 93.4935 69.795C90.8657 66.337 87.06 66.246 86.0633 69.34Z" fill="#0054A3"/>
<path d="M80.0825 51.231C78.814 54.689 77.9078 56.782 79.1764 59.239C80.9887 62.97 86.3348 63.152 88.7814 60.058C90.9561 57.237 92.4965 51.959 89.4157 49.229C86.2442 46.499 81.3511 47.773 80.0825 51.231Z" fill="#FFBE9B"/>
<path d="M86.0638 44.5879C88.8728 45.2249 91.0475 46.3169 91.3193 47.5909C93.8565 48.5919 94.672 50.9579 92.9503 51.8679C91.4099 52.7779 88.9634 51.7769 88.9634 51.7769C88.9634 51.7769 90.1413 57.0549 86.5168 55.0529C85.9731 56.8729 84.7046 60.1489 81.6237 60.4219C79.9927 60.6039 77.0025 60.2399 76.7306 58.9659C76.4588 57.6919 77.4555 57.9649 77.2743 56.9639C77.0025 55.9629 75.6433 52.5049 77.1837 49.9569C77.2743 50.0479 79.449 42.3129 86.0638 44.5879Z" fill="#180857"/>
<path d="M84.9759 54.871C84.8853 55.781 85.2477 56.6 85.7008 57.146C86.4257 58.056 86.6975 58.056 86.9694 57.055C87.2412 56.145 87.9661 54.234 86.9694 53.779C85.9726 53.324 84.9759 53.87 84.9759 54.871Z" fill="#FFBE9B"/>
<path d="M80.8077 92.2719C80.8077 92.2719 77.9988 115.75 76.2771 124.304C74.3742 133.677 61.6884 163.889 61.6884 163.889L55.708 162.524C58.7888 152.059 63.3195 132.585 66.1285 125.123C68.2126 113.748 66.1285 99.5519 69.2093 90.7249L80.8077 92.2719Z" fill="#EE384E"/>
<path opacity="0.2" d="M78.9958 101.372C79.177 101.372 79.4488 101.372 79.6301 101.372C78.7239 108.379 77.4554 117.752 76.4586 123.121C75.6431 115.295 74.8276 102.1 78.9958 101.372Z" fill="black"/>
<path d="M87.0597 93.0909C87.0597 93.0909 88.5095 118.207 88.6908 127.307C88.872 136.771 86.3348 164.981 86.3348 164.981H80.5356C80.5356 164.981 78.3609 138.864 79.5389 126.124C78.1797 116.387 75.1895 91.5439 75.1895 91.5439L87.0597 93.0909Z" fill="#EE384E"/>
<path d="M107.991 88.5409C107.176 88.4499 105.998 88.5409 105.182 88.9049L104.729 89.5419C104.458 90.0879 104.639 90.7249 105.364 90.9069L107.448 91.4529L108.444 91.7259C108.898 91.8169 109.351 91.7259 109.622 91.3619L110.076 90.8159C110.347 90.4519 110.257 89.9059 109.985 89.6329L109.079 88.9049C108.626 88.7229 108.354 88.6319 107.991 88.5409Z" fill="#FFBE9B"/>
<path d="M61.598 163.707L56.0706 162.342C55.7988 162.251 55.7081 162.342 55.6175 162.615L53.8053 166.437C53.6241 166.71 53.7147 167.165 54.1677 167.347H54.2583C56.0706 167.802 57.4298 167.984 59.7857 168.53C61.1449 168.803 65.4943 169.986 67.3066 170.441C69.2095 170.896 69.9344 169.076 69.1188 168.712C65.7662 167.074 63.3196 165.436 62.4135 164.162C62.1417 163.98 61.8698 163.798 61.598 163.707Z" fill="#170856"/>
<path d="M86.3348 164.981H80.6262C80.3544 164.981 80.2637 165.072 80.2637 165.345L79.3576 169.44C79.267 169.804 79.4482 170.168 79.9013 170.259H79.9919C81.8948 170.259 83.254 170.168 85.6099 170.168C86.9691 170.168 91.4997 170.259 93.4026 170.259C95.3055 170.259 95.6679 168.348 94.7618 168.166C91.1373 167.347 88.3283 166.346 87.1503 165.254C86.8785 165.072 86.6066 164.981 86.3348 164.981Z" fill="#170856"/>
<path d="M192.805 142.595C192.805 142.595 194.89 141.867 194.708 139.41C194.618 137.135 193.44 135.497 195.886 136.225C198.242 136.862 199.148 137.226 200.961 136.862C202.682 136.407 204.132 135.679 203.317 138.045C202.592 140.32 201.686 142.231 203.498 142.595C205.219 143.05 207.304 141.594 207.485 145.052C207.666 148.601 204.766 152.605 200.236 152.878C195.614 152.969 193.53 151.149 193.53 151.149C193.53 151.149 192.262 149.42 194.255 148.965C196.158 148.419 198.152 147.691 197.155 146.781C196.158 145.871 192.987 145.78 192.987 145.78C192.987 145.78 188.728 144.961 192.805 142.595Z" fill="#0064E1"/>
<path d="M214.009 143.05C213.556 140.775 213.919 139.137 218.178 138.5C222.527 137.863 224.883 140.411 225.064 143.05C225.245 145.78 221.621 146.599 221.621 146.599C221.621 146.599 218.902 147.327 220.352 149.602C221.711 151.877 222.255 154.061 219.356 154.516C216.365 154.971 213.194 153.97 211.291 152.878C209.569 151.695 207.576 148.51 209.66 146.872C209.66 146.872 210.294 146.417 212.378 146.326C214.281 146.326 214.009 143.05 214.009 143.05Z" fill="#0054A3"/>
<path d="M199.239 142.868C199.239 142.868 202.773 150.785 203.136 156.245" stroke="#A0D8FD" stroke-miterlimit="10" stroke-linecap="round" stroke-linejoin="round"/>
<path d="M218.631 144.142C218.631 144.142 212.469 153.333 210.838 156.518" stroke="#719DD1" stroke-miterlimit="10" stroke-linecap="round" stroke-linejoin="round"/>
<path d="M201.051 155.517H215.186C215.186 155.517 216.727 155.608 216.546 157.792C216.455 159.703 213.827 159.339 212.649 159.339C211.471 159.339 200.688 159.339 200.688 159.339C200.688 159.339 198.967 159.521 198.967 157.701C198.967 155.699 199.601 155.517 201.051 155.517Z" fill="#0064E1"/>
<path d="M200.599 159.339L202.773 171.897H212.378L214.009 162.342L200.689 159.339H200.599Z" fill="#0064E1"/>
<path d="M200.688 159.339L214.009 162.342L214.552 159.339H200.688Z" fill="#0064B7"/>
<path d="M206.851 156.063C206.851 156.063 207.575 142.049 211.744 133.313" stroke="#FCBE42" stroke-width="0.5" stroke-miterlimit="10"/>
<path d="M215.187 128.217C215.187 128.217 215.64 132.585 211.381 134.223C211.291 134.223 210.294 130.492 215.187 128.217Z" fill="#FCBE42"/>
<path d="M208.845 141.867C208.845 141.867 210.385 138.136 215.006 138.682C215.188 138.682 214.735 142.322 208.845 141.867Z" fill="#FCBE42"/>
<path d="M207.304 151.149C207.304 151.149 208.029 147.236 212.922 146.781C212.922 146.781 213.103 150.33 207.304 151.149Z" fill="#FCBE42"/>
<path d="M207.123 151.149C207.123 151.149 207.666 147.236 203.317 145.143C203.408 145.143 201.867 148.51 207.123 151.149Z" fill="#FCBE42"/>
<path d="M208.844 141.867C208.844 141.867 209.841 138.045 205.854 135.497C205.945 135.497 204.042 138.5 208.844 141.867Z" fill="#FCBE42"/>
</g>
<defs>
<clipPath id="clip0_1409_4158">
<rect width="226.532" height="182" fill="white" transform="translate(22 2)"/>
</clipPath>
</defs>
</svg>
