<svg width="340" height="270" viewBox="0 0 340 270" fill="none" xmlns="http://www.w3.org/2000/svg">
<path d="M127.938 132.412C163.103 132.412 191.61 103.958 191.61 68.8585C191.61 33.7589 163.103 5.30499 127.938 5.30499C92.7727 5.30499 64.2656 33.7589 64.2656 68.8585C64.2656 103.958 92.7727 132.412 127.938 132.412Z" stroke="#DC051F" stroke-miterlimit="10" stroke-dasharray="6 6"/>
<path d="M77.863 38.3215C81.69 38.3215 84.7924 35.2249 84.7924 31.405C84.7924 27.5851 81.69 24.4885 77.863 24.4885C74.036 24.4885 70.9336 27.5851 70.9336 31.405C70.9336 35.2249 74.036 38.3215 77.863 38.3215Z" fill="#003EAE"/>
<path d="M79.1707 28.1425L74.4639 30.7525L78.7784 33.3625L79.1707 28.1425Z" fill="white"/>
<path d="M306.011 35.7115C307.58 35.7115 309.149 35.7115 310.718 35.7115C310.718 35.7115 310.849 35.7115 310.98 35.842C312.156 36.103 312.679 36.7555 312.81 37.7995C312.941 38.8435 313.202 40.018 313.202 41.062C313.333 41.584 314.248 41.9755 314.64 41.584C315.556 40.9315 316.34 40.1485 317.386 39.496C318.432 38.713 319.609 38.713 320.524 39.6265C321.57 40.6705 322.485 41.584 323.531 42.628C324.446 43.5415 324.446 44.716 323.662 45.76C323.139 46.543 322.485 47.4565 321.962 48.109C321.57 48.5005 321.439 49.0225 321.831 49.5445C321.962 49.675 322.093 49.936 322.224 49.936C323.27 50.0665 324.577 50.3275 325.623 50.3275C326.538 50.458 327.192 50.8495 327.323 51.6325C327.453 51.8935 327.453 52.024 327.584 52.4155C327.584 53.9815 327.584 55.5475 327.584 57.244C327.584 57.3745 327.453 57.505 327.453 57.6355C327.061 58.6795 326.538 59.2015 325.623 59.332C324.577 59.4625 323.4 59.7235 322.354 59.7235C321.831 59.7235 321.308 60.7675 321.831 61.159C322.485 62.0725 323.27 62.986 323.923 63.8995C324.708 64.9435 324.577 66.118 323.793 67.0315C322.747 68.0755 321.831 69.1195 320.785 70.033C319.87 70.9465 318.694 70.9465 317.648 70.1635C316.602 69.511 315.817 68.728 314.771 68.0755C314.379 67.684 313.464 68.0755 313.333 68.5975C313.202 69.772 312.941 70.9465 312.81 72.121C312.679 73.0345 312.156 73.687 311.241 73.8175C311.11 73.8175 310.849 73.948 310.718 74.0785C309.018 74.0785 307.45 74.0785 305.881 74.0785C305.881 74.0785 305.75 74.0785 305.75 73.948C304.704 73.687 304.05 73.0345 303.919 71.9905C303.789 70.9465 303.527 69.772 303.527 68.8585C303.396 68.3365 302.481 67.8145 301.958 68.3365C301.043 68.989 300.259 69.772 299.213 70.294C298.167 71.077 296.99 71.077 296.075 70.1635C295.029 69.1195 294.114 68.206 293.068 67.162C292.153 66.2485 292.153 65.074 292.937 64.03C293.46 63.247 294.114 62.3335 294.637 61.681C295.029 61.2895 295.029 60.637 294.767 60.2455C294.637 60.115 294.506 59.854 294.375 59.854C293.329 59.7235 292.152 59.4625 291.237 59.4625C289.799 59.332 289.015 58.4185 289.015 57.1135C289.015 55.678 289.015 54.2425 289.015 52.807C289.015 51.502 289.799 50.5885 290.976 50.458C292.022 50.3275 293.198 50.0665 294.244 50.0665C294.767 50.0665 295.16 49.0225 294.767 48.631C294.114 47.7175 293.329 46.804 292.675 45.8905C291.891 44.8465 291.891 43.672 292.806 42.7585C293.852 41.7145 294.767 40.801 295.813 39.757C296.729 38.8435 297.905 38.8435 298.951 39.6265C299.997 40.279 300.782 41.062 301.828 41.7145C302.22 42.106 303.135 41.7145 303.266 41.1925C303.396 40.1485 303.658 38.8435 303.789 37.7995C303.919 36.7555 304.442 36.2335 305.358 36.103C305.619 35.842 305.881 35.842 306.011 35.7115ZM321.57 44.455C320.524 43.411 319.739 42.4975 318.563 41.4535C317.255 42.4975 315.948 43.411 314.64 44.455C314.379 44.5855 314.248 44.5855 313.987 44.455C313.072 44.0635 312.287 43.672 311.372 43.2805C310.98 43.15 310.849 42.889 310.849 42.628C310.587 41.062 310.457 39.496 310.195 37.93C310.195 37.669 310.064 37.5385 309.803 37.5385C308.757 37.5385 307.58 37.5385 306.534 37.5385C306.142 37.5385 306.142 37.669 306.142 37.93C305.881 39.496 305.75 41.062 305.488 42.628C305.488 43.0195 305.358 43.0195 304.965 43.15C304.05 43.5415 303.266 43.8025 302.351 44.194C301.958 44.3245 301.828 44.3245 301.566 44.194C300.259 43.15 298.951 42.2365 297.905 41.323C296.859 42.367 295.944 43.2805 294.898 44.3245C294.898 44.455 295.029 44.5855 295.16 44.716C296.075 45.8905 296.859 47.065 297.774 48.2395C297.905 48.37 297.905 48.631 297.905 48.7615C297.513 49.8055 296.99 50.719 296.598 51.763C296.598 51.8935 296.336 52.1545 296.206 52.1545C295.29 52.285 294.506 52.4155 293.591 52.546C292.675 52.6765 291.891 52.807 290.976 52.9375C290.976 54.373 290.976 55.678 290.976 56.983C291.107 56.983 291.368 57.1135 291.499 57.1135C293.068 57.3745 294.506 57.505 296.075 57.766C296.467 57.766 296.467 57.8965 296.598 58.1575C296.99 59.071 297.252 59.854 297.644 60.7675C297.774 61.159 297.774 61.2895 297.644 61.681C296.598 62.986 295.683 64.291 294.767 65.335C295.813 66.379 296.598 67.162 297.774 68.3365C297.905 68.3365 298.036 68.206 298.167 67.945C299.343 67.0315 300.52 66.2485 301.697 65.335C301.828 65.2045 302.089 65.2045 302.22 65.2045C303.266 65.596 304.05 66.118 305.227 66.379C305.619 66.5095 305.619 66.64 305.619 66.901C305.881 68.467 306.011 70.033 306.273 71.599C306.273 71.9905 306.404 71.9905 306.665 71.9905C307.711 71.9905 308.888 71.9905 309.803 71.9905C310.195 71.9905 310.195 71.86 310.195 71.599C310.457 70.033 310.587 68.467 310.849 66.7705C310.849 66.5095 310.98 66.379 311.241 66.2485C312.287 65.857 313.202 65.335 314.248 65.074C314.379 65.074 314.64 65.074 314.771 65.074C315.948 65.9875 317.125 66.7705 318.432 67.684C318.563 67.8145 318.824 67.945 318.824 67.945C319.87 66.901 320.785 65.9875 321.831 64.9435C321.831 64.813 321.701 64.6825 321.57 64.552C320.655 63.3775 319.87 62.203 318.955 61.0285C318.824 60.898 318.824 60.637 318.824 60.637C319.216 59.593 319.739 58.549 320.132 57.6355C320.132 57.505 320.393 57.3745 320.524 57.3745C321.178 57.244 321.831 57.1135 322.485 57.1135C323.531 56.983 324.708 56.722 325.754 56.722C325.754 55.2865 325.754 53.9815 325.754 52.6765C324.054 52.4155 322.354 52.1545 320.655 51.8935C320.393 51.8935 320.262 51.763 320.262 51.502C319.87 50.458 319.478 49.675 319.086 48.7615C318.955 48.37 318.955 48.37 319.086 47.9785C319.739 46.804 320.785 45.6295 321.57 44.455Z" stroke="#003EAE" stroke-miterlimit="10"/>
<path d="M321.57 44.455C320.524 45.76 319.74 47.065 318.563 48.109C318.302 48.37 318.302 48.5005 318.563 48.892C318.955 49.8055 319.348 50.719 319.74 51.6325C319.87 51.8935 320.001 52.024 320.132 52.024C321.832 52.285 323.531 52.4155 325.231 52.807C325.231 54.112 325.231 55.417 325.231 56.8525C324.185 56.983 323.008 57.244 321.962 57.244C321.309 57.3745 320.655 57.3745 320.001 57.505C319.87 57.505 319.609 57.6355 319.609 57.766C319.217 58.81 318.694 59.7235 318.302 60.7675C318.302 60.898 318.302 61.159 318.432 61.159C319.348 62.3335 320.132 63.508 321.047 64.6825C321.178 64.813 321.309 64.9435 321.309 65.074C320.263 66.118 319.478 66.901 318.302 68.0755C318.302 68.0755 318.04 67.945 317.909 67.8145C316.733 66.901 315.556 66.118 314.249 65.2045C314.118 65.074 313.856 65.074 313.726 65.2045C312.68 65.596 311.764 66.118 310.718 66.379C310.457 66.5095 310.326 66.64 310.326 66.901C310.065 68.467 309.934 70.033 309.672 71.7295C309.672 72.121 309.542 72.121 309.28 72.121C308.234 72.121 307.058 72.121 306.142 72.121C305.75 72.121 305.75 71.9905 305.75 71.7295C305.489 70.1635 305.358 68.5975 305.096 67.0315C305.096 66.64 304.966 66.64 304.704 66.5095C303.658 66.118 302.874 65.596 301.697 65.335C301.566 65.335 301.305 65.335 301.174 65.4655C299.997 66.379 298.821 67.162 297.644 68.0755C297.513 68.206 297.252 68.3365 297.252 68.467C296.206 67.423 295.421 66.64 294.245 65.4655C295.291 64.1605 296.075 62.986 297.121 61.8115C297.383 61.42 297.383 61.2895 297.121 60.898C296.729 59.9845 296.337 59.2015 296.075 58.288C295.944 57.8965 295.814 57.8965 295.552 57.8965C293.983 57.6355 292.545 57.505 290.976 57.244C290.845 57.244 290.584 57.244 290.453 57.1135C290.453 55.8085 290.453 54.5035 290.453 53.068C291.368 52.9375 292.153 52.807 293.068 52.6765C293.983 52.546 294.768 52.4155 295.683 52.285C295.814 52.285 296.075 52.1545 296.075 51.8935C296.467 50.8495 296.99 49.936 297.383 48.892C297.383 48.7615 297.383 48.5005 297.252 48.37C296.337 47.1955 295.552 46.021 294.637 44.8465C294.506 44.716 294.375 44.5855 294.375 44.455C295.421 43.411 296.206 42.4975 297.383 41.4535C298.559 42.367 299.867 43.2805 301.043 44.3245C301.305 44.5855 301.436 44.5855 301.828 44.3245C302.743 43.933 303.528 43.5415 304.443 43.2805C304.835 43.15 304.835 43.0195 304.966 42.7585C305.227 41.1925 305.358 39.6265 305.619 38.0605C305.619 37.669 305.75 37.669 306.012 37.669C307.058 37.669 308.234 37.669 309.28 37.669C309.542 37.669 309.672 37.669 309.672 38.0605C309.934 39.6265 310.065 41.1925 310.326 42.7585C310.326 43.15 310.588 43.2805 310.849 43.411C311.764 43.8025 312.549 44.194 313.464 44.5855C313.726 44.716 313.856 44.716 314.118 44.5855C315.425 43.5415 316.733 42.628 318.04 41.584C319.74 42.367 320.786 43.2805 321.57 44.455ZM299.997 54.5035C299.997 59.071 303.658 62.725 308.234 62.725C312.941 62.725 316.471 59.071 316.471 54.5035C316.471 49.8055 312.81 46.282 308.234 46.282C303.789 46.282 299.997 49.936 299.997 54.5035Z" stroke="#003EAE" stroke-miterlimit="10"/>
<path d="M284.7 148.072C286.662 148.072 288.492 148.072 290.453 148.072C290.453 148.072 290.584 148.072 290.715 148.203C292.153 148.464 292.806 149.377 292.937 150.552C293.068 151.857 293.46 153.292 293.46 154.597C293.591 155.25 294.768 155.772 295.16 155.25C296.337 154.467 297.252 153.553 298.559 152.64C299.867 151.726 301.305 151.726 302.351 152.77C303.658 154.075 304.704 155.119 306.012 156.424C307.188 157.599 307.188 159.034 306.142 160.209C305.489 161.122 304.704 162.297 304.05 163.08C303.527 163.602 303.397 164.254 303.92 164.776C304.05 164.907 304.181 165.298 304.443 165.298C305.75 165.429 307.319 165.82 308.627 165.82C309.803 165.951 310.588 166.473 310.718 167.386C310.849 167.647 310.849 167.908 310.98 168.3C310.98 170.257 310.98 172.084 310.98 174.172C310.98 174.303 310.849 174.433 310.849 174.694C310.326 175.999 309.672 176.652 308.627 176.782C307.319 176.913 305.881 177.304 304.573 177.304C303.92 177.304 303.266 178.609 303.92 179.001C304.704 180.175 305.619 181.219 306.535 182.394C307.45 183.699 307.319 185.134 306.404 186.178C305.096 187.483 304.05 188.788 302.743 189.832C301.566 191.007 300.128 191.007 298.951 189.963C297.644 189.18 296.729 188.266 295.421 187.353C294.898 186.831 293.852 187.353 293.722 188.005C293.591 189.441 293.199 190.876 293.068 192.312C292.937 193.486 292.284 194.269 291.107 194.4C290.976 194.4 290.584 194.53 290.453 194.661C288.361 194.661 286.4 194.661 284.57 194.661C284.57 194.661 284.439 194.661 284.439 194.53C283.131 194.269 282.347 193.356 282.216 192.181C282.086 190.876 281.693 189.441 281.693 188.397C281.563 187.744 280.386 187.092 279.732 187.744C278.555 188.527 277.64 189.441 276.333 190.093C275.025 191.007 273.587 191.007 272.541 189.963C271.234 188.658 270.188 187.614 268.88 186.309C267.704 185.134 267.704 183.699 268.75 182.524C269.403 181.611 270.188 180.436 270.842 179.653C271.365 179.131 271.365 178.348 270.972 177.957C270.842 177.826 270.711 177.435 270.449 177.435C269.142 177.304 267.704 176.913 266.658 176.913C264.958 176.782 263.912 175.608 263.912 174.042C263.912 172.476 263.912 170.518 263.912 168.822C263.912 167.256 264.827 166.081 266.266 165.951C267.573 165.82 269.011 165.429 270.319 165.429C270.972 165.429 271.495 164.124 270.972 163.732C270.188 162.558 269.273 161.514 268.357 160.339C267.442 159.034 267.442 157.599 268.488 156.555C269.796 155.25 270.842 154.206 272.149 152.901C273.326 151.726 274.764 151.726 275.941 152.77C277.248 153.553 278.163 154.467 279.471 155.38C279.994 155.902 281.04 155.38 281.17 154.728C281.301 153.423 281.693 151.857 281.824 150.552C281.955 149.247 282.608 148.594 283.785 148.464C284.308 148.203 284.57 148.203 284.7 148.072ZM303.658 158.643C302.351 157.338 301.436 156.294 299.997 154.989C298.428 156.294 296.86 157.338 295.16 158.643C294.898 158.773 294.637 158.773 294.375 158.643C293.199 158.121 292.284 157.729 291.238 157.207C290.715 157.077 290.584 156.685 290.584 156.424C290.322 154.467 290.061 152.64 289.799 150.682C289.799 150.421 289.669 150.16 289.276 150.16C287.969 150.16 286.531 150.16 285.223 150.16C284.7 150.16 284.7 150.291 284.7 150.682C284.439 152.64 284.177 154.467 283.916 156.424C283.916 156.946 283.785 156.946 283.262 157.077C282.086 157.599 281.17 157.86 280.124 158.382C279.601 158.512 279.471 158.512 279.209 158.382C277.64 157.077 276.071 156.033 274.633 154.858C273.326 156.163 272.28 157.207 270.972 158.512C270.972 158.643 271.103 158.773 271.234 159.034C272.41 160.47 273.326 161.905 274.372 163.341C274.502 163.471 274.502 163.863 274.502 163.993C273.979 165.298 273.326 166.342 272.933 167.647C272.933 167.778 272.672 168.169 272.41 168.169C271.234 168.3 270.319 168.43 269.273 168.691C268.096 168.822 267.181 168.952 266.135 169.213C266.135 170.91 266.135 172.606 266.135 174.172C266.265 174.172 266.658 174.303 266.788 174.303C268.75 174.564 270.449 174.825 272.41 175.086C272.933 175.086 272.933 175.216 273.064 175.608C273.587 176.782 273.849 177.696 274.372 178.74C274.502 179.262 274.502 179.392 274.372 179.914C273.064 181.48 272.018 183.046 270.842 184.482C272.149 185.787 273.064 186.7 274.502 188.136C274.633 188.136 274.764 188.005 275.025 187.614C276.464 186.439 277.902 185.526 279.34 184.482C279.471 184.351 279.863 184.351 279.994 184.351C281.301 184.873 282.216 185.526 283.654 185.787C284.177 185.917 284.177 186.048 284.177 186.439C284.439 188.397 284.7 190.224 284.962 192.181C284.962 192.703 285.093 192.703 285.485 192.703C286.792 192.703 288.23 192.703 289.276 192.703C289.799 192.703 289.799 192.573 289.799 192.181C290.061 190.224 290.322 188.397 290.584 186.309C290.584 186.048 290.715 185.787 291.107 185.656C292.414 185.134 293.46 184.482 294.768 184.221C294.898 184.221 295.291 184.221 295.421 184.221C296.86 185.395 298.298 186.309 299.867 187.353C299.997 187.483 300.39 187.614 300.39 187.614C301.697 186.309 302.743 185.265 304.05 183.96C304.05 183.829 303.92 183.699 303.789 183.438C302.612 182.002 301.697 180.567 300.651 179.131C300.52 179.001 300.52 178.609 300.52 178.609C301.043 177.304 301.697 175.999 302.089 174.955C302.089 174.825 302.351 174.694 302.612 174.694C303.397 174.564 304.181 174.433 304.966 174.433C306.273 174.303 307.711 173.911 309.019 173.911C309.019 172.215 309.019 170.518 309.019 168.952C306.927 168.691 304.835 168.3 302.743 168.039C302.482 168.039 302.22 167.908 302.22 167.517C301.697 166.212 301.305 165.298 300.782 164.124C300.651 163.602 300.651 163.602 300.782 163.21C301.305 161.775 302.612 160.078 303.658 158.643Z" stroke="#EC384E" stroke-miterlimit="10"/>
<path d="M303.659 158.643C302.351 160.209 301.436 161.775 299.998 163.21C299.736 163.471 299.736 163.732 299.998 164.124C300.521 165.298 300.913 166.342 301.436 167.517C301.567 167.778 301.697 168.039 301.959 168.039C304.051 168.3 306.143 168.561 308.235 168.952C308.235 170.518 308.235 172.084 308.235 173.911C306.927 174.042 305.489 174.433 304.182 174.433C303.397 174.564 302.613 174.564 301.828 174.694C301.697 174.694 301.305 174.825 301.305 174.955C300.782 176.26 300.128 177.304 299.736 178.609C299.736 178.74 299.736 179.131 299.867 179.131C301.044 180.567 301.959 182.002 303.005 183.438C303.136 183.568 303.266 183.699 303.266 183.96C301.959 185.265 301.044 186.178 299.605 187.614C299.605 187.614 299.344 187.483 299.082 187.353C297.644 186.178 296.206 185.265 294.637 184.221C294.506 184.09 294.114 184.09 293.983 184.221C292.676 184.743 291.63 185.395 290.323 185.656C290.061 185.787 289.8 185.917 289.8 186.309C289.538 188.266 289.277 190.093 289.015 192.181C289.015 192.703 288.884 192.703 288.492 192.703C287.185 192.703 285.747 192.703 284.701 192.703C284.178 192.703 284.178 192.573 284.178 192.181C283.916 190.224 283.655 188.397 283.393 186.439C283.393 185.917 283.262 185.917 282.87 185.787C281.563 185.265 280.648 184.612 279.209 184.351C279.079 184.351 278.686 184.351 278.556 184.482C277.118 185.656 275.679 186.57 274.241 187.614C274.11 187.744 273.718 187.875 273.718 188.136C272.411 186.831 271.496 185.917 270.057 184.482C271.365 182.916 272.28 181.48 273.587 179.914C273.849 179.392 273.849 179.262 273.587 178.74C273.064 177.565 272.672 176.652 272.28 175.608C272.149 175.086 272.019 175.086 271.626 175.086C269.665 174.825 267.965 174.564 266.004 174.303C265.874 174.303 265.481 174.303 265.351 174.172C265.351 172.606 265.351 171.04 265.351 169.213C266.527 169.083 267.442 168.952 268.488 168.691C269.665 168.561 270.58 168.43 271.626 168.169C271.757 168.169 272.149 168.039 272.149 167.647C272.672 166.342 273.326 165.298 273.718 163.993C273.718 163.863 273.718 163.471 273.587 163.341C272.411 161.905 271.496 160.47 270.45 159.034C270.319 158.904 270.188 158.773 270.188 158.512C271.496 157.207 272.411 156.163 273.849 154.858C275.287 156.033 276.856 157.077 278.425 158.382C278.686 158.643 278.948 158.643 279.34 158.382C280.517 157.86 281.432 157.468 282.478 157.077C283.001 156.946 283.001 156.816 283.132 156.424C283.393 154.467 283.655 152.64 283.916 150.682C283.916 150.16 284.047 150.16 284.439 150.16C285.747 150.16 287.185 150.16 288.492 150.16C288.754 150.16 289.015 150.16 289.015 150.682C289.277 152.64 289.538 154.467 289.8 156.424C289.8 156.946 290.061 157.077 290.453 157.207C291.63 157.729 292.545 158.121 293.591 158.643C293.853 158.773 294.114 158.773 294.376 158.643C295.945 157.338 297.514 156.294 299.213 154.989C301.305 156.294 302.613 157.207 303.659 158.643ZM277.379 171.04C277.379 176.652 281.824 181.089 287.316 181.089C293.068 181.089 297.383 176.652 297.383 171.171C297.383 165.429 292.938 161.122 287.446 161.122C282.086 161.122 277.379 165.559 277.379 171.04Z" stroke="#EC384E" stroke-miterlimit="10"/>
<path d="M215.536 188.396H154.74V228.199H215.536V188.396Z" fill="#0064E1"/>
<path d="M278.032 63.8995H266.657H92.6373C87.4076 63.8995 83.3545 68.206 83.3545 73.165V181.35H93.814H277.248H287.707V73.5565C287.576 68.0755 283.262 63.8995 278.032 63.8995Z" fill="#0064E1"/>
<path d="M278.032 217.759H266.657H92.6373C87.4076 217.759 83.3545 213.452 83.3545 208.493V181.741H287.707V208.493C287.576 213.452 283.262 217.759 278.032 217.759Z" fill="#0054A3"/>
<path d="M261.166 228.46H93.4219V237.595H261.166V228.46Z" fill="#0054A3"/>
<path d="M278.686 73.8175H90.0225V181.611H278.686V73.8175Z" fill="white"/>
<g opacity="0.5">
<path d="M308.234 50.458H162.585V133.978H308.234V50.458Z" fill="#DCE8F5"/>
</g>
<path d="M301.827 52.6765H165.984V60.115H301.827V52.6765Z" fill="white"/>
<path d="M219.459 63.769H167.815V130.324H219.459V63.769Z" fill="white"/>
<path d="M212.53 106.964H172.13V126.278H212.53V106.964Z" fill="#DBE6F3"/>
<path d="M212.53 68.8585H172.13V71.7295H212.53V68.8585Z" fill="#DBE6F3"/>
<path d="M212.53 75.1225H172.13V77.9935H212.53V75.1225Z" fill="#DBE6F3"/>
<path d="M212.53 82.3H172.13V85.171H212.53V82.3Z" fill="#DBE6F3"/>
<path d="M212.53 88.6945H172.13V91.5655H212.53V88.6945Z" fill="#DBE6F3"/>
<path d="M301.958 63.769H234.232V67.162H301.958V63.769Z" fill="#DBE6F3"/>
<path d="M301.958 70.033H234.232V73.426H301.958V70.033Z" fill="#DBE6F3"/>
<path d="M301.958 77.341H234.232V80.734H301.958V77.341Z" fill="#DBE6F3"/>
<path d="M147.55 62.3335H97.4746V105.659H147.55V62.3335Z" fill="#DCE8F5"/>
<path d="M144.412 67.162H101.92V86.6065H144.412V67.162Z" fill="white"/>
<path d="M241.555 54.634H167.815V58.288H241.555V54.634Z" fill="#DBE6F3"/>
<path d="M299.213 54.634H270.057V58.288H299.213V54.634Z" fill="#DBE6F3"/>
<g opacity="0.5">
<path d="M250.184 115.969H104.535V199.489H250.184V115.969Z" fill="#DCE8F5"/>
</g>
<path d="M243.778 118.448H107.935V125.887H243.778V118.448Z" fill="white"/>
<path d="M161.539 129.411H109.896V195.966H161.539V129.411Z" fill="white"/>
<path d="M154.61 172.476H114.21V191.79H154.61V172.476Z" fill="#DBE6F3"/>
<path d="M154.61 134.5H114.21V137.371H154.61V134.5Z" fill="#DBE6F3"/>
<path d="M154.61 140.764H114.21V143.635H154.61V140.764Z" fill="#DBE6F3"/>
<path d="M154.61 148.072H114.21V150.943H154.61V148.072Z" fill="#DBE6F3"/>
<path d="M154.61 154.075H114.21V156.946H154.61V154.075Z" fill="#DBE6F3"/>
<path d="M243.908 129.411H176.183V132.804H243.908V129.411Z" fill="#DBE6F3"/>
<path d="M243.908 135.805H176.183V139.198H243.908V135.805Z" fill="#DBE6F3"/>
<path d="M243.908 142.983H176.183V146.376H243.908V142.983Z" fill="#DBE6F3"/>
<path d="M243.908 150.812H176.183V194.138H243.908V150.812Z" fill="white"/>
<path d="M239.463 155.51H182.066V174.955H239.463V155.51Z" fill="#DBE6F3"/>
<path d="M183.635 120.406H109.896V124.06H183.635V120.406Z" fill="#DBE6F3"/>
<path d="M240.901 120.406H211.745V124.06H240.901V120.406Z" fill="#DBE6F3"/>
<path d="M159.709 263.695C173.645 263.695 184.943 261.884 184.943 259.649C184.943 257.415 173.645 255.604 159.709 255.604C145.773 255.604 134.476 257.415 134.476 259.649C134.476 261.884 145.773 263.695 159.709 263.695Z" fill="#F9F9F9"/>
<path d="M144.412 260.172L144.281 258.475L143.627 252.081C143.627 251.559 143.889 251.298 144.15 251.298L170.038 250.776C170.299 250.776 170.561 251.037 170.691 251.428L171.476 257.692C171.476 257.953 171.607 258.214 171.999 258.214C172.522 258.475 173.568 258.736 174.091 258.475C174.352 258.475 174.614 258.214 174.614 257.823L160.232 124.843C160.232 124.191 159.447 123.408 158.663 122.886C157.879 122.625 157.225 122.886 157.356 123.538L158.009 130.063C158.009 130.585 157.748 130.846 157.486 130.846L131.599 131.499C131.338 131.499 131.076 131.238 130.945 130.846L130.292 124.06C130.292 123.408 129.507 122.625 128.723 122.103C127.938 121.842 127.284 122.103 127.415 122.755L136.044 204.709C135.914 204.97 136.044 205.231 136.175 205.623L141.666 257.17L141.928 260.041C141.928 260.563 142.189 260.694 142.451 260.694H144.02C144.412 260.955 144.543 260.563 144.412 260.172ZM164.023 189.441L137.09 189.963L135.783 178.087L162.716 177.565L164.023 189.441ZM157.879 133.587L159.186 145.462L132.253 145.984L130.945 134.109L157.879 133.587ZM161.016 160.078L134.083 160.6L132.776 148.725L159.709 148.203L161.016 160.078ZM162.455 174.825L135.521 175.347L134.214 163.471L161.147 162.949L162.455 174.825ZM165.592 204.187L138.659 204.709L137.352 192.834L164.285 192.312L165.592 204.187ZM167.161 218.542L140.228 219.064L138.921 207.189L165.854 206.667L167.161 218.542ZM168.6 233.289L141.666 233.811L140.359 221.935L167.423 221.413L168.6 233.289ZM143.235 248.427L141.928 236.551L168.861 236.029L170.168 247.905L143.235 248.427Z" fill="#F2F2F2"/>
<path d="M146.896 78.5155C146.896 78.5155 146.242 79.429 146.112 80.734C146.112 80.734 145.327 80.8645 145.196 81.6475C145.196 82.561 146.373 82.9525 146.504 83.866C146.504 85.0405 147.027 85.954 147.811 86.6065C148.334 87.1285 148.988 86.8675 148.988 87.259C148.988 87.52 149.119 88.042 149.119 88.042L153.172 88.1725L153.041 85.432L150.949 78.907L146.896 78.5155Z" fill="#FFB48F"/>
<path d="M126.499 87.781L123.885 85.171C123.885 85.171 123.1 84.649 123.362 85.432C123.492 86.0845 123.885 86.737 123.362 86.3455C122.839 86.0845 121.008 84.388 120.354 84.649C119.701 84.7795 119.439 85.954 120.616 86.8675C121.923 88.042 124.277 89.086 125.846 89.086C127.284 89.2165 126.499 87.781 126.499 87.781Z" fill="#FFB48F"/>
<path d="M148.726 121.189L133.299 120.406L139.182 143.635H136.959L126.5 117.796C126.5 117.796 123.885 113.62 129.507 113.229C135.129 112.707 144.935 112.054 144.935 112.054L149.38 111.793L148.726 121.189Z" fill="#DE051F"/>
<path d="M148.727 76.4275L147.419 73.8175C147.419 73.8175 146.896 73.0345 146.112 73.2955C145.327 73.8175 145.85 76.1665 145.85 76.1665L148.727 76.4275Z" fill="#FFB48F"/>
<path d="M147.68 72.121C147.68 71.9905 147.549 71.599 147.419 71.599L145.85 69.511C145.719 69.25 145.196 68.728 144.934 68.728C144.411 68.728 144.281 68.728 144.15 69.6415C143.888 71.338 144.673 73.2955 145.065 73.948C145.588 74.47 146.373 75.253 146.373 75.253L148.334 75.9055L147.68 72.121Z" fill="#FFB48F"/>
<path d="M155.133 113.359C155.133 113.359 156.571 132.934 156.701 135.283C156.832 137.632 158.401 141.547 158.793 146.115C159.055 150.682 158.924 157.207 158.924 157.207H156.309C156.309 157.207 155.002 150.682 153.564 144.027C152.125 137.502 147.942 121.32 147.942 121.32L145.98 110.88L154.61 111.402L155.133 113.359Z" fill="#EE384E"/>
<path d="M152.256 84.5185L157.094 90.391C157.094 90.391 158.27 92.3485 157.617 94.828C157.094 97.438 155.656 99.265 155.525 103.18C155.263 107.356 155.394 112.576 155.394 112.576H141.666C141.666 112.576 141.666 97.177 142.45 93.523C142.45 93.523 143.104 88.6945 146.111 88.303C148.988 87.781 153.041 87.52 153.041 87.52L152.256 84.5185Z" fill="#0064E1"/>
<path d="M147.811 75.9055C147.811 75.9055 147.811 76.1665 148.334 76.1665C148.857 76.1665 151.864 76.1665 153.172 77.4715C154.479 78.7765 154.74 81.517 153.956 83.605C153.172 85.693 151.08 86.476 149.511 85.693C149.511 85.693 147.419 84.91 146.634 82.6915C145.85 80.473 146.504 79.168 146.504 79.168C146.504 79.168 146.634 78.907 146.242 78.646C145.719 78.646 144.935 77.7325 145.458 76.558C145.85 75.3835 147.68 75.1225 147.811 75.9055Z" fill="#170856"/>
<path d="M146.112 88.6945C144.543 88.6945 141.667 88.825 139.705 88.9555C136.96 89.086 135.391 89.2165 133.953 88.825C132.776 88.303 128.2 87.6505 126.37 87.3895C125.716 87.259 125.193 87.259 125.193 87.259C125.193 87.259 124.016 86.998 123.885 87.781C123.755 88.4335 124.408 89.347 125.847 89.869C127.154 90.391 132.384 92.6095 132.384 92.6095C132.384 92.6095 133.822 93.262 136.568 93.784C139.313 94.045 147.289 94.6975 148.073 93.6535C148.596 92.8705 148.988 91.5655 148.727 90.5215C148.073 88.9555 146.504 88.6945 146.112 88.6945Z" fill="#0054A3"/>
<path d="M139.836 145.07C139.836 145.07 139.836 145.853 139.051 145.853C138.136 145.853 132.906 145.984 132.906 145.984C132.906 145.984 131.73 145.854 133.168 145.332C134.475 144.81 136.96 143.896 136.96 143.896H139.313L139.836 145.07Z" fill="#170856"/>
<path d="M158.924 157.99C158.924 157.99 159.709 160.078 158.794 160.078C157.879 160.078 155.656 160.209 155.656 160.209C155.656 160.209 154.479 159.948 155.394 158.904C156.179 157.99 156.31 157.207 156.31 157.207H159.055L158.924 157.99Z" fill="#170856"/>
<path d="M31.1876 198.184C31.1876 198.184 33.9332 197.01 33.8025 193.878C33.6717 190.746 31.8413 188.658 35.3714 189.441C38.7707 190.354 39.8167 190.746 42.1701 190.224C44.6542 189.702 46.6154 188.657 45.7002 191.789C44.5235 194.921 43.6083 197.532 45.9616 198.054C48.5765 198.576 51.1914 196.618 51.4529 201.708C51.7144 206.667 47.7921 212.017 41.5164 212.278C35.2406 212.539 32.3643 209.929 32.3643 209.929C32.3643 209.929 30.5339 207.58 33.1487 206.928C35.8944 206.275 38.64 205.231 37.2018 204.057C35.8944 202.752 31.4491 202.752 31.4491 202.752C31.4491 202.752 25.8271 201.447 31.1876 198.184Z" fill="#649CE8"/>
<path d="M60.605 198.967C60.082 195.835 60.4742 193.486 66.3577 192.703C72.2412 191.92 75.5098 195.444 75.7713 198.967C76.0328 202.491 71.1952 203.926 71.1952 203.926C71.1952 203.926 67.5344 205.101 69.2341 208.102C71.1952 211.234 71.9797 214.236 67.7959 214.627C63.6121 215.149 59.2975 213.975 56.6827 212.409C54.0678 210.712 51.5836 206.536 54.5908 204.448C54.5908 204.448 55.3752 203.926 58.2516 203.796C60.7357 203.274 60.605 198.967 60.605 198.967Z" fill="#033E9F"/>
<path d="M40.209 198.576C40.209 198.576 45.0465 209.276 45.7002 216.845" stroke="#82D8FD" stroke-miterlimit="10" stroke-linecap="round" stroke-linejoin="round"/>
<path d="M66.8804 200.272C66.8804 200.272 58.5128 212.8 56.4209 217.106" stroke="#579DD3" stroke-miterlimit="10" stroke-linecap="round" stroke-linejoin="round"/>
<path d="M42.5622 215.802H62.043C62.043 215.802 64.135 215.932 64.135 218.803C64.0042 221.544 60.4741 220.891 58.9052 220.891C56.944 220.891 42.4315 220.891 42.4315 220.891C42.4315 220.891 40.0781 221.413 40.0781 218.673C39.8166 216.193 40.6011 215.802 42.5622 215.802Z" fill="#0054A3"/>
<path d="M42.1699 221.022L45.177 238.117H58.1207L60.6048 225.328L42.1699 221.022Z" fill="#0054A3"/>
<path d="M42.1699 221.022L60.6048 225.328L61.1278 221.022H42.1699Z" fill="#016AD3"/>
<path d="M50.5381 216.454C50.5381 216.454 51.4533 197.401 57.3368 185.395Z" fill="#FABC42"/>
<path d="M62.0433 178.609C62.0433 178.609 62.5663 184.482 56.8135 186.831C56.552 186.831 55.3753 181.741 62.0433 178.609Z" fill="#FABC42"/>
<path d="M53.2832 197.27C53.2832 197.27 55.3751 192.181 61.7816 192.833C62.043 192.833 61.3893 197.923 53.2832 197.27Z" fill="#FABC42"/>
<path d="M51.1914 209.798C51.1914 209.798 52.3681 204.578 58.7746 203.665C58.7746 203.795 59.2975 208.754 51.1914 209.798Z" fill="#FABC42"/>
<path d="M50.9301 209.799C50.9301 209.799 51.7145 204.318 45.7003 201.838C45.8311 201.708 43.6084 206.014 50.9301 209.799Z" fill="#FABC42"/>
<path d="M53.4138 197.14C53.4138 197.14 54.852 191.92 49.23 188.527C49.3608 188.397 46.6151 192.703 53.4138 197.14Z" fill="#FABC42"/>
</svg>
