<svg width="340" height="270" viewBox="0 0 340 270" fill="none" xmlns="http://www.w3.org/2000/svg">
<path d="M220.674 32.2266C220.674 32.2266 217.43 37.7635 222.493 37.7635C227.555 37.7635 230.165 39.1873 229.374 44.2497C228.583 49.312 230.403 52.3969 233.329 53.1088C236.256 53.8207 241.793 54.2953 240.29 61.0978C238.866 67.9003 236.968 81.2681 229.295 80.5562C221.702 79.8443 214.425 70.5106 215.532 65.3692C216.639 60.2277 220.357 57.4592 216.323 53.267C212.289 49.0747 208.809 53.4252 206.515 47.73C204.221 42.0349 201.294 36.4979 208.413 31.6729C214.82 27.4015 221.702 28.7462 220.674 32.2266Z" stroke="#DB061F" stroke-width="2" stroke-miterlimit="10"/>
<path d="M216.007 38.08C216.007 38.08 230.403 73.9119 236.177 82.1382" stroke="#DB061F" stroke-width="2" stroke-miterlimit="10"/>
<path d="M234.042 34.6785C234.042 34.6785 246.144 33.4921 244.8 40.0573C243.376 46.7016 245.986 47.8881 248.676 49.0746C251.365 50.182 257.06 50.182 255.241 57.1427C253.422 64.1035 249.783 66.8719 251.286 70.3523C252.789 73.8327 254.292 89.8898 247.964 88.7824C241.636 87.7541 238.155 79.2114 237.681 75.2565C237.206 71.3015 232.698 68.4539 228.743 67.1883C224.788 65.9227 221.149 61.4141 225.262 57.6173C229.375 53.8206 229.771 47.7299 227.081 44.8032C224.471 41.8766 225.895 35.6277 234.042 34.6785Z" fill="#FABC43"/>
<path d="M235.702 42.905L247.172 94.3987" stroke="white" stroke-width="2" stroke-miterlimit="10" stroke-linecap="round" stroke-linejoin="round"/>
<path d="M248.595 54.5326L240.29 63.7872L228.979 59.8323" stroke="white" stroke-width="2" stroke-miterlimit="10" stroke-linecap="round" stroke-linejoin="round"/>
<path d="M272.119 172.835C288.047 178.419 305.44 169.997 310.932 154.069C316.516 138.141 308.094 120.748 292.166 115.255C276.238 109.671 258.845 118.093 253.353 134.021C247.86 149.95 256.282 167.342 272.119 172.835Z" stroke="#DB061F" stroke-miterlimit="10" stroke-dasharray="6 6"/>
<path d="M310.566 149.492C313.221 150.407 316.15 149.034 317.157 146.288C318.073 143.633 316.7 140.704 313.954 139.697C311.299 138.781 308.369 140.155 307.363 142.901C306.447 145.556 307.82 148.485 310.566 149.492Z" fill="#003FAE"/>
<path d="M311.664 142.26L314.044 145.555L310.291 146.196L311.664 142.26Z" fill="white"/>
<path d="M10.8661 110.709C14.712 112.715 21.2332 110.625 24.1594 105.191C27.0856 99.7566 33.0216 102.348 35.4461 106.278C37.9543 110.207 42.2182 114.22 46.6493 113.719C51.0804 113.133 61.1966 114.471 64.1228 121.076C67.049 127.597 49.3247 130.44 45.1444 129.771C40.9641 129.102 38.9576 133.784 31.9347 137.713C24.9955 141.643 23.407 135.54 21.4004 132.948C19.3939 130.356 17.3874 127.932 10.6153 131.276C3.84328 134.62 1.75314 121.243 1.75314 121.243C0.66627 111.963 7.02029 108.619 10.8661 110.709Z" fill="#023E9F"/>
<path d="M69.9748 118.401L11.2002 120.491" stroke="white" stroke-miterlimit="10" stroke-linecap="round" stroke-linejoin="round"/>
<path d="M27.6701 108.535L35.111 119.655L27.5029 131.192" stroke="white" stroke-miterlimit="10" stroke-linecap="round" stroke-linejoin="round"/>
<path d="M26.9171 86.2126C26.8335 90.4765 20.6467 93.4863 32.6859 98.7535C44.7251 104.021 29.2581 107.532 42.635 118.066C56.0118 128.684 63.2855 112.381 64.874 102.181C66.5461 92.065 55.343 95.5764 50.1595 90.9781C45.0595 86.2962 50.1595 83.9553 49.4906 78.8553C48.9054 73.7554 38.6219 74.5915 35.1105 75.4275C31.599 76.2636 32.3515 72.6685 28.7565 69.5751C25.1614 66.4817 17.7205 69.5751 16.8845 74.9259C16.0484 80.2766 22.486 81.7815 22.486 81.7815C22.486 81.7815 26.9171 81.8652 26.9171 86.2126Z" fill="#EC384E"/>
<path d="M70.7263 119.571C70.7263 119.571 66.546 119.069 54.5068 108.619C42.4676 98.168 33.6055 83.0355 33.6055 83.0355" stroke="white" stroke-miterlimit="10" stroke-linecap="round" stroke-linejoin="round"/>
<path d="M12.5381 95.7435C30.0116 103.77 48.8229 124.002 48.8229 124.002" stroke="#FABC43" stroke-miterlimit="10"/>
<path d="M14.3769 96.6632C5.93272 99.4222 1 92.4829 1 92.4829C11.0327 89.8911 14.3769 96.6632 14.3769 96.6632Z" stroke="#FABC43" stroke-miterlimit="10"/>
<path d="M14.292 108.368C20.8968 101.596 27.8361 105.191 27.8361 105.191C19.4755 113.384 14.292 108.368 14.292 108.368Z" stroke="#FABC43" stroke-miterlimit="10"/>
<path d="M28.0049 117.648C35.7802 112.297 41.8834 117.146 41.8834 117.146C32.1015 123.584 28.0049 117.648 28.0049 117.648Z" stroke="#FABC43" stroke-miterlimit="10"/>
<path d="M24.1582 91.7305C21.3156 100.676 27.7533 105.191 27.7533 105.191C31.0139 93.9043 24.1582 91.7305 24.1582 91.7305Z" stroke="#FABC43" stroke-miterlimit="10"/>
<path d="M287.402 234.442H51.1338C48.7537 234.442 46.9229 232.52 46.9229 230.232V72.5056C46.9229 70.1255 48.8452 68.2947 51.1338 68.2947H287.494C289.874 68.2947 291.705 70.2171 291.705 72.5056V230.232C291.705 232.52 289.782 234.442 287.402 234.442Z" fill="#0064B5"/>
<path d="M286.214 74.0618H52.417V232.795H286.214V74.0618Z" fill="#DAE6FF"/>
<path d="M316.696 238.653H21.9328C19.6443 238.653 17.8135 236.823 17.8135 234.534V232.154C17.8135 229.865 19.6443 228.035 21.9328 228.035H316.696C318.985 228.035 320.816 229.865 320.816 232.154V234.534C320.816 236.823 318.985 238.653 316.696 238.653Z" fill="#0064B5"/>
<path d="M286.264 74.1216H52.4668V228.644H286.264V74.1216Z" fill="white"/>
<path d="M261.108 88.7831H77.6396V213.343H261.108V88.7831Z" fill="white" stroke="#D3D2D2" stroke-width="0.788592" stroke-miterlimit="10"/>
<path d="M261.108 88.7831H77.6396V92.775H261.108V88.7831Z" fill="#0064B5"/>
<path d="M81.4695 90.7792C81.4695 91.2107 81.1458 91.5344 80.7142 91.5344C80.2827 91.5344 79.959 91.2107 79.959 90.7792C79.959 90.3476 80.2827 90.0239 80.7142 90.0239C81.0918 90.0239 81.4695 90.3476 81.4695 90.7792Z" fill="#C7C7C7"/>
<path d="M84.5447 90.7792C84.5447 91.2107 84.221 91.5344 83.7894 91.5344C83.3579 91.5344 83.0342 91.2107 83.0342 90.7792C83.0342 90.3476 83.3579 90.0239 83.7894 90.0239C84.221 90.0239 84.5447 90.3476 84.5447 90.7792Z" fill="white"/>
<path d="M86.9173 91.5344C87.3344 91.5344 87.6726 91.1963 87.6726 90.7792C87.6726 90.3621 87.3344 90.0239 86.9173 90.0239C86.5002 90.0239 86.1621 90.3621 86.1621 90.7792C86.1621 91.1963 86.5002 91.5344 86.9173 91.5344Z" fill="#FFC727"/>
<path d="M127.324 136.741H125.651L125.328 137.658C125.274 137.82 125.112 137.927 124.95 137.927C124.896 137.927 124.842 137.927 124.842 137.927C124.626 137.873 124.518 137.604 124.626 137.442L126.191 133.342C126.245 133.18 126.407 133.072 126.568 133.072C126.73 133.072 126.892 133.18 126.946 133.342L128.51 137.442C128.564 137.658 128.456 137.873 128.295 137.927C128.241 137.927 128.187 137.927 128.187 137.927C128.025 137.927 127.863 137.82 127.809 137.658L127.324 136.741ZM127.054 135.931L126.514 134.421L125.975 135.931H127.054Z" fill="#263238"/>
<path d="M130.56 137.873C129.751 137.873 129.104 137.226 129.104 136.416V134.744C129.104 134.528 129.265 134.367 129.481 134.367C129.697 134.367 129.859 134.528 129.859 134.744V136.416C129.859 136.794 130.182 137.118 130.56 137.118C130.938 137.118 131.261 136.794 131.315 136.416V134.744C131.315 134.528 131.477 134.367 131.693 134.367C131.909 134.367 132.071 134.528 132.071 134.744V136.416C132.017 137.226 131.369 137.873 130.56 137.873Z" fill="#263238"/>
<path d="M135.039 134.744C135.039 134.96 134.878 135.122 134.662 135.122H134.5V137.064C134.716 137.064 134.878 137.226 134.878 137.442C134.878 137.658 134.716 137.819 134.5 137.819C134.068 137.819 133.745 137.496 133.745 137.064V135.176H133.529C133.313 135.176 133.151 135.014 133.151 134.798C133.151 134.583 133.313 134.421 133.529 134.421H133.745V133.396C133.745 133.18 133.907 133.018 134.122 133.018C134.338 133.018 134.5 133.18 134.5 133.396V134.421H134.662C134.824 134.367 135.039 134.529 135.039 134.744Z" fill="#263238"/>
<path d="M136.873 137.496C136.873 137.711 136.712 137.873 136.496 137.873C136.334 137.873 136.172 137.765 136.118 137.604C136.118 137.55 136.118 137.55 136.118 137.496V133.396C136.118 133.18 136.28 133.018 136.496 133.018C136.712 133.018 136.873 133.18 136.873 133.396V134.583C137.089 134.475 137.359 134.367 137.629 134.367C138.492 134.367 139.139 135.068 139.139 135.877V137.442C139.139 137.657 138.977 137.819 138.761 137.819C138.546 137.819 138.384 137.657 138.384 137.442V135.877C138.384 135.446 138.06 135.122 137.629 135.122C137.197 135.122 136.873 135.446 136.873 135.877V137.496Z" fill="#263238"/>
<path d="M140.109 136.147C140.109 135.176 140.865 134.421 141.782 134.421C142.699 134.421 143.4 135.122 143.454 136.039C143.454 136.039 143.454 136.039 143.454 136.093V136.147C143.454 136.309 143.292 136.417 143.076 136.417H140.865C140.919 136.578 140.972 136.74 141.08 136.902C141.242 137.064 141.512 137.172 141.728 137.226C141.997 137.226 142.267 137.172 142.429 137.064C142.591 136.902 142.861 136.956 142.968 137.064C143.076 137.172 143.13 137.388 142.968 137.496C142.645 137.819 142.213 137.981 141.728 137.981C140.865 137.873 140.109 137.064 140.109 136.147ZM140.865 135.769H142.861C142.807 135.5 142.429 135.068 141.836 135.014C141.242 135.068 140.919 135.5 140.865 135.769Z" fill="#263238"/>
<path d="M147.498 135.823V137.495C147.498 137.711 147.336 137.873 147.12 137.873C146.905 137.873 146.743 137.711 146.743 137.495V135.823C146.743 135.445 146.419 135.122 146.041 135.122C145.664 135.122 145.34 135.445 145.34 135.823V137.495V137.549C145.286 137.711 145.178 137.873 144.963 137.873C144.747 137.873 144.585 137.711 144.585 137.495V135.823V134.744C144.585 134.528 144.747 134.367 144.963 134.367C145.124 134.367 145.232 134.474 145.286 134.582C145.502 134.474 145.772 134.367 146.041 134.367C146.851 134.367 147.498 135.068 147.498 135.823Z" fill="#263238"/>
<path d="M150.465 134.744C150.465 134.96 150.303 135.122 150.088 135.122H149.926V137.064C150.142 137.064 150.303 137.226 150.303 137.442C150.303 137.658 150.142 137.819 149.926 137.819C149.494 137.819 149.171 137.496 149.171 137.064V135.176H148.955C148.739 135.176 148.577 135.014 148.577 134.798C148.577 134.583 148.739 134.421 148.955 134.421H149.171V133.396C149.171 133.18 149.332 133.018 149.548 133.018C149.764 133.018 149.926 133.18 149.926 133.396V134.421H150.088C150.249 134.367 150.465 134.529 150.465 134.744Z" fill="#263238"/>
<path d="M152.408 133.504C152.408 133.719 152.246 133.881 152.03 133.881C151.814 133.881 151.652 133.719 151.652 133.504V133.342C151.652 133.126 151.814 132.964 152.03 132.964C152.246 132.964 152.408 133.126 152.408 133.342V133.504ZM152.408 134.798V137.496C152.408 137.711 152.246 137.873 152.03 137.873C151.814 137.873 151.652 137.711 151.652 137.496V134.798C151.652 134.582 151.814 134.421 152.03 134.421C152.246 134.367 152.408 134.529 152.408 134.798Z" fill="#263238"/>
<path d="M153.381 136.147C153.381 135.176 154.19 134.421 155.161 134.421C155.593 134.421 155.97 134.582 156.294 134.798C156.456 134.906 156.456 135.176 156.348 135.338C156.186 135.5 155.97 135.554 155.808 135.392C155.647 135.284 155.431 135.176 155.161 135.176C154.622 135.176 154.136 135.661 154.136 136.201C154.136 136.74 154.622 137.172 155.161 137.172C155.431 137.172 155.647 137.064 155.808 136.956C155.97 136.848 156.186 136.848 156.348 137.01C156.456 137.172 156.456 137.388 156.294 137.549C155.97 137.765 155.593 137.927 155.161 137.927C154.19 137.873 153.381 137.064 153.381 136.147Z" fill="#263238"/>
<path d="M160.556 136.147V137.495C160.556 137.711 160.394 137.873 160.178 137.873C160.016 137.873 159.854 137.765 159.8 137.549C159.531 137.711 159.207 137.873 158.883 137.873C158.398 137.873 158.02 137.657 157.696 137.387C157.373 137.064 157.211 136.632 157.211 136.147C157.211 135.661 157.373 135.23 157.696 134.906C158.02 134.582 158.398 134.367 158.883 134.367C159.207 134.367 159.531 134.474 159.8 134.69C159.854 134.528 159.962 134.367 160.178 134.367C160.394 134.367 160.556 134.528 160.556 134.744V136.147ZM159.8 136.147C159.8 135.877 159.692 135.607 159.531 135.445C159.369 135.284 159.153 135.176 158.883 135.176C158.614 135.176 158.398 135.284 158.236 135.445C158.074 135.607 157.966 135.877 157.966 136.147C157.966 136.416 158.074 136.686 158.236 136.848C158.398 137.01 158.614 137.118 158.883 137.118C159.153 137.118 159.369 137.01 159.531 136.848C159.692 136.686 159.8 136.416 159.8 136.147Z" fill="#263238"/>
<path d="M163.468 134.744C163.468 134.96 163.306 135.122 163.091 135.122H162.929V137.064C163.144 137.064 163.306 137.226 163.306 137.442C163.306 137.658 163.144 137.819 162.929 137.819C162.497 137.819 162.173 137.496 162.173 137.064V135.176H161.958C161.742 135.176 161.58 135.014 161.58 134.798C161.58 134.583 161.742 134.421 161.958 134.421H162.173V133.396C162.173 133.18 162.335 133.018 162.551 133.018C162.767 133.018 162.929 133.18 162.929 133.396V134.421H163.091C163.306 134.367 163.468 134.529 163.468 134.744Z" fill="#263238"/>
<path d="M164.169 136.147C164.169 135.176 164.924 134.421 165.841 134.421C166.758 134.421 167.46 135.122 167.514 136.039C167.514 136.039 167.514 136.039 167.514 136.093V136.147C167.514 136.309 167.352 136.417 167.136 136.417H164.924C164.978 136.578 165.032 136.74 165.14 136.902C165.302 137.064 165.572 137.172 165.787 137.226C166.057 137.226 166.327 137.172 166.489 137.064C166.65 136.902 166.92 136.956 167.028 137.064C167.136 137.172 167.19 137.388 167.028 137.496C166.704 137.819 166.273 137.981 165.787 137.981C164.924 137.873 164.169 137.064 164.169 136.147ZM164.924 135.769H166.92C166.866 135.5 166.489 135.068 165.895 135.014C165.302 135.068 164.978 135.5 164.924 135.769Z" fill="#263238"/>
<path d="M174.202 133.665L172.799 135.607V137.495C172.799 137.711 172.638 137.873 172.422 137.873C172.206 137.873 172.044 137.711 172.044 137.495V135.607L170.642 133.665C170.534 133.503 170.534 133.288 170.696 133.126C170.857 133.018 171.127 133.018 171.235 133.234L172.422 134.852L173.609 133.234C173.716 133.072 173.986 133.018 174.148 133.126C174.31 133.234 174.364 133.503 174.202 133.665Z" fill="#263238"/>
<path d="M174.526 137.334C174.202 137.01 174.04 136.579 174.04 136.093C174.04 135.607 174.202 135.23 174.526 134.852C174.849 134.529 175.227 134.313 175.712 134.313C176.198 134.313 176.575 134.529 176.899 134.852C177.223 135.176 177.385 135.607 177.385 136.093C177.385 136.579 177.223 137.01 176.899 137.334C176.629 137.657 176.198 137.873 175.712 137.873C175.227 137.873 174.849 137.711 174.526 137.334ZM174.795 136.147C174.795 136.471 174.903 136.686 175.065 136.902C175.227 137.064 175.443 137.172 175.712 137.172C175.982 137.172 176.198 137.064 176.36 136.902C176.522 136.686 176.629 136.471 176.629 136.147C176.629 135.877 176.522 135.608 176.36 135.446C176.198 135.284 175.982 135.176 175.712 135.176C175.443 135.176 175.227 135.284 175.065 135.446C174.903 135.608 174.795 135.823 174.795 136.147Z" fill="#263238"/>
<path d="M179.812 137.873C179.003 137.873 178.355 137.226 178.355 136.416V134.744C178.355 134.528 178.517 134.367 178.733 134.367C178.949 134.367 179.111 134.528 179.111 134.744V136.416C179.111 136.794 179.434 137.118 179.812 137.118C180.19 137.118 180.513 136.794 180.567 136.416V134.744C180.567 134.528 180.729 134.367 180.945 134.367C181.161 134.367 181.322 134.528 181.322 134.744V136.416C181.269 137.226 180.621 137.873 179.812 137.873Z" fill="#263238"/>
<path d="M184.83 134.744C184.83 134.96 184.668 135.122 184.452 135.122C184.29 135.122 184.128 135.176 184.021 135.23C183.913 135.338 183.805 135.445 183.697 135.553C183.535 135.769 183.427 136.039 183.427 136.147V137.495C183.427 137.711 183.265 137.873 183.05 137.873C182.834 137.873 182.672 137.711 182.672 137.495V134.744C182.672 134.528 182.834 134.367 183.05 134.367C183.265 134.367 183.427 134.528 183.427 134.744V134.798C183.481 134.744 183.535 134.69 183.589 134.636C183.805 134.474 184.128 134.367 184.452 134.367C184.668 134.367 184.83 134.528 184.83 134.744Z" fill="#263238"/>
<path d="M190.44 136.741H188.767L188.444 137.658C188.39 137.82 188.228 137.927 188.066 137.927C188.012 137.927 187.958 137.927 187.958 137.927C187.743 137.873 187.635 137.604 187.743 137.442L189.307 133.342C189.361 133.18 189.523 133.072 189.685 133.072C189.846 133.072 190.008 133.18 190.062 133.342L191.627 137.442C191.681 137.658 191.573 137.873 191.411 137.927C191.357 137.927 191.303 137.927 191.303 137.927C191.141 137.927 190.979 137.82 190.925 137.658L190.44 136.741ZM190.116 135.931L189.577 134.421L189.037 135.931H190.116Z" fill="#263238"/>
<path d="M191.95 136.147C191.95 135.176 192.759 134.421 193.73 134.421C194.162 134.421 194.54 134.582 194.863 134.798C195.025 134.906 195.025 135.176 194.917 135.338C194.755 135.5 194.54 135.554 194.378 135.392C194.216 135.284 194 135.176 193.73 135.176C193.191 135.176 192.705 135.661 192.705 136.201C192.705 136.74 193.191 137.172 193.73 137.172C194 137.172 194.216 137.064 194.378 136.956C194.54 136.848 194.755 136.848 194.917 137.01C195.025 137.172 195.025 137.388 194.863 137.549C194.54 137.765 194.162 137.927 193.73 137.927C192.759 137.873 191.95 137.064 191.95 136.147Z" fill="#263238"/>
<path d="M195.779 136.147C195.779 135.176 196.588 134.421 197.559 134.421C197.991 134.421 198.369 134.582 198.692 134.798C198.854 134.906 198.854 135.176 198.746 135.338C198.584 135.5 198.369 135.554 198.207 135.392C198.045 135.284 197.829 135.176 197.559 135.176C197.02 135.176 196.535 135.661 196.535 136.201C196.535 136.74 197.02 137.172 197.559 137.172C197.829 137.172 198.045 137.064 198.207 136.956C198.369 136.848 198.584 136.848 198.746 137.01C198.854 137.172 198.854 137.388 198.692 137.549C198.369 137.765 197.991 137.927 197.559 137.927C196.588 137.873 195.779 137.064 195.779 136.147Z" fill="#263238"/>
<path d="M200.259 137.334C199.935 137.01 199.773 136.579 199.773 136.093C199.773 135.607 199.935 135.23 200.259 134.852C200.583 134.529 200.96 134.313 201.446 134.313C201.931 134.313 202.309 134.529 202.633 134.852C202.956 135.176 203.118 135.607 203.118 136.093C203.118 136.579 202.956 137.01 202.633 137.334C202.363 137.657 201.931 137.873 201.446 137.873C200.96 137.873 200.583 137.711 200.259 137.334ZM200.529 136.147C200.529 136.471 200.637 136.686 200.798 136.902C200.96 137.064 201.176 137.172 201.446 137.172C201.715 137.172 201.931 137.064 202.093 136.902C202.255 136.686 202.363 136.471 202.363 136.147C202.363 135.877 202.255 135.608 202.093 135.446C201.931 135.284 201.715 135.176 201.446 135.176C201.176 135.176 200.96 135.284 200.798 135.446C200.637 135.608 200.529 135.823 200.529 136.147Z" fill="#263238"/>
<path d="M205.546 137.873C204.737 137.873 204.09 137.226 204.09 136.416V134.744C204.09 134.528 204.252 134.367 204.467 134.367C204.683 134.367 204.845 134.528 204.845 134.744V136.416C204.845 136.794 205.169 137.118 205.546 137.118C205.924 137.118 206.248 136.794 206.302 136.416V134.744C206.302 134.528 206.463 134.367 206.679 134.367C206.895 134.367 207.057 134.528 207.057 134.744V136.416C207.003 137.226 206.356 137.873 205.546 137.873Z" fill="#263238"/>
<path d="M211.156 135.823V137.495C211.156 137.711 210.994 137.873 210.779 137.873C210.563 137.873 210.401 137.711 210.401 137.495V135.823C210.401 135.445 210.077 135.122 209.7 135.122C209.322 135.122 208.998 135.445 208.998 135.823V137.495V137.549C208.944 137.711 208.837 137.873 208.621 137.873C208.405 137.873 208.243 137.711 208.243 137.495V135.823V134.744C208.243 134.528 208.405 134.367 208.621 134.367C208.783 134.367 208.891 134.474 208.944 134.582C209.16 134.474 209.43 134.367 209.7 134.367C210.509 134.367 211.156 135.068 211.156 135.823Z" fill="#263238"/>
<path d="M214.122 134.744C214.122 134.96 213.961 135.122 213.745 135.122H213.583V137.064C213.799 137.064 213.961 137.226 213.961 137.442C213.961 137.658 213.799 137.819 213.583 137.819C213.151 137.819 212.828 137.496 212.828 137.064V135.176H212.612C212.396 135.176 212.234 135.014 212.234 134.798C212.234 134.583 212.396 134.421 212.612 134.421H212.828V133.396C212.828 133.18 212.99 133.018 213.205 133.018C213.421 133.018 213.583 133.18 213.583 133.396V134.421H213.745C213.907 134.367 214.122 134.529 214.122 134.744Z" fill="#263238"/>
<path d="M120.904 152.439H102.94V176.013H120.904V152.439Z" fill="#EAF4FF"/>
<path d="M142.59 152.439H124.626V176.013H142.59V152.439Z" fill="#EAF4FF"/>
<path d="M164.223 152.439H146.259V176.013H164.223V152.439Z" fill="#EAF4FF"/>
<path d="M192.489 152.439H174.525V176.013H192.489V152.439Z" fill="#EAF4FF"/>
<path d="M214.122 152.439H196.158V176.013H214.122V152.439Z" fill="#EAF4FF"/>
<path d="M235.809 152.439H217.845V176.013H235.809V152.439Z" fill="#EAF4FF"/>
<path d="M114.27 163.012C115.133 163.875 115.564 165.008 115.564 166.087C115.564 167.22 115.133 168.299 114.27 169.162C113.406 170.025 112.274 170.456 111.195 170.456C111.141 170.456 111.141 170.456 111.141 170.456C110.062 170.456 108.929 170.025 108.066 169.162C107.634 168.784 107.634 168.137 108.066 167.759C108.443 167.382 109.091 167.382 109.468 167.759C109.9 168.245 110.547 168.46 111.141 168.46C111.734 168.46 112.381 168.245 112.813 167.759C113.245 167.328 113.514 166.68 113.514 166.087C113.514 165.44 113.299 164.846 112.813 164.415C112.381 163.929 111.734 163.713 111.141 163.713C110.547 163.713 109.9 163.929 109.468 164.415C109.091 164.792 108.443 164.792 108.066 164.415C108.012 164.361 107.958 164.253 107.85 164.199C107.85 164.145 107.85 164.145 107.85 164.145C107.85 164.091 107.85 164.091 107.796 164.037C107.796 163.983 107.796 163.929 107.796 163.929C107.796 163.929 107.796 163.929 107.796 163.875C107.796 163.767 107.796 163.659 107.796 163.551L108.336 158.966C108.39 158.642 108.551 158.427 108.767 158.265C108.821 158.265 108.821 158.265 108.821 158.211C108.821 158.211 108.875 158.211 108.875 158.157C109.037 158.103 109.145 158.049 109.307 158.049H114.485C115.025 158.049 115.51 158.481 115.51 159.074C115.51 159.613 115.079 160.045 114.485 160.045H110.17L109.954 161.771C110.332 161.663 110.763 161.609 111.141 161.609C112.274 161.717 113.406 162.149 114.27 163.012Z" fill="#595959"/>
<path d="M136.064 163.012C136.927 163.875 137.359 165.008 137.359 166.087C137.359 167.22 136.927 168.299 136.064 169.162C135.201 170.025 134.068 170.457 132.989 170.457C131.856 170.457 130.777 170.025 129.914 169.162C129.536 168.784 129.536 168.137 129.914 167.759C130.292 167.382 130.939 167.382 131.317 167.759C131.748 168.191 132.396 168.461 132.989 168.461C133.582 168.461 134.23 168.245 134.661 167.759C135.147 167.274 135.363 166.681 135.363 166.087C135.363 165.494 135.147 164.846 134.661 164.415C134.23 163.929 133.582 163.714 132.989 163.714C132.719 163.714 132.45 163.606 132.288 163.39C131.856 163.012 131.856 162.365 132.234 161.987L134.014 160.153H131.155C130.615 160.153 130.184 159.722 130.184 159.128C130.184 158.589 130.615 158.157 131.155 158.157H136.334C136.873 158.157 137.359 158.589 137.359 159.128C137.359 159.29 137.305 159.452 137.251 159.614C137.197 159.722 137.143 159.776 137.089 159.883L134.877 162.149C135.309 162.365 135.686 162.635 136.064 163.012Z" fill="#595959"/>
<path d="M185.963 163.012C186.826 163.875 187.258 165.008 187.258 166.087C187.258 167.22 186.826 168.299 185.963 169.162C185.1 170.025 183.967 170.457 182.888 170.457C181.756 170.457 180.677 170.025 179.813 169.162C179.436 168.784 179.436 168.137 179.813 167.759C180.191 167.382 180.838 167.382 181.216 167.759C181.648 168.191 182.295 168.461 182.888 168.461C183.482 168.461 184.129 168.245 184.561 167.759C185.046 167.274 185.262 166.68 185.262 166.087C185.262 165.494 185.046 164.846 184.561 164.415C184.129 163.929 183.482 163.713 182.888 163.713C182.619 163.713 182.349 163.606 182.187 163.39C181.756 163.012 181.756 162.365 182.133 161.987L183.913 160.153H181.054C180.515 160.153 180.083 159.721 180.083 159.128C180.083 158.589 180.515 158.157 181.054 158.157H186.233C186.772 158.157 187.258 158.589 187.258 159.128C187.258 159.29 187.204 159.452 187.15 159.614C187.096 159.721 187.042 159.775 186.988 159.883L184.776 162.149C185.154 162.365 185.586 162.635 185.963 163.012Z" fill="#595959"/>
<path d="M159.097 166.303C159.097 168.623 157.209 170.511 154.889 170.511C152.57 170.511 150.682 168.623 150.682 166.303C150.682 164.846 151.437 163.552 152.57 162.796C152.192 162.311 151.976 161.718 151.976 161.07C151.976 159.506 153.271 158.157 154.889 158.157C156.454 158.157 157.802 159.452 157.802 161.07C157.802 161.718 157.587 162.311 157.209 162.796C158.342 163.552 159.097 164.846 159.097 166.303ZM157.209 166.303C157.209 165.062 156.184 164.037 154.943 164.037C153.649 164.037 152.678 165.062 152.624 166.303C152.624 167.544 153.649 168.569 154.943 168.569C156.184 168.569 157.209 167.544 157.209 166.303ZM153.918 161.016C153.918 161.556 154.35 162.041 154.943 162.041C155.483 162.041 155.914 161.61 155.914 161.016C155.914 160.477 155.483 160.045 154.943 160.045C154.35 160.045 153.918 160.531 153.918 161.016Z" fill="#595959"/>
<path d="M153.974 142.351C153.974 142.297 154.028 142.243 154.082 142.243H155.484C155.538 142.243 155.592 142.297 155.592 142.351C155.592 142.405 155.538 142.459 155.484 142.459H154.135V143.538H155.322C155.376 143.538 155.43 143.592 155.43 143.646C155.43 143.7 155.376 143.754 155.322 143.754H154.135V144.833H155.484C155.538 144.833 155.592 144.887 155.592 144.941C155.592 144.995 155.538 145.049 155.484 145.049H154.082C154.028 145.049 153.974 144.995 153.974 144.941V142.351Z" fill="#C7C7C7"/>
<path d="M157.641 143.862C157.641 143.538 157.372 143.268 157.048 143.268C156.724 143.268 156.455 143.538 156.455 143.862V144.941V144.995L156.401 145.049C156.347 145.049 156.347 144.995 156.347 144.995V143.916V143.808V143.16C156.347 143.106 156.401 143.053 156.455 143.053C156.509 143.053 156.562 143.106 156.562 143.16V143.322C156.724 143.16 156.94 143.053 157.156 143.053C157.587 143.053 157.965 143.43 157.965 143.862V144.941C157.965 144.995 157.911 145.049 157.857 145.049C157.803 145.049 157.749 144.995 157.749 144.941V143.862H157.641Z" fill="#C7C7C7"/>
<path d="M159.37 143.161C159.37 143.214 159.316 143.268 159.262 143.268H158.992V144.671C158.992 144.779 159.1 144.833 159.154 144.833C159.208 144.833 159.262 144.887 159.262 144.941C159.262 144.995 159.208 145.049 159.154 145.049C158.938 145.049 158.831 144.887 158.831 144.725V143.268H158.615C158.507 143.268 158.507 143.214 158.507 143.161C158.507 143.107 158.507 143.053 158.615 143.053H158.831V142.351C158.831 142.297 158.884 142.243 158.938 142.243C158.992 142.243 159.046 142.297 159.046 142.351V143.053H159.316C159.316 143.053 159.37 143.107 159.37 143.161Z" fill="#C7C7C7"/>
<path d="M159.962 144.024C159.962 143.484 160.393 143.053 160.879 143.053C161.365 143.053 161.796 143.43 161.796 143.97C161.796 144.024 161.742 144.078 161.688 144.078H160.07C160.07 144.509 160.447 144.833 160.825 144.833C161.095 144.833 161.311 144.725 161.472 144.455C161.526 144.401 161.58 144.401 161.58 144.401C161.634 144.455 161.634 144.509 161.634 144.509C161.472 144.779 161.203 144.941 160.825 144.941C160.393 144.995 159.962 144.563 159.962 144.024ZM160.178 143.862H161.634C161.58 143.484 161.257 143.214 160.879 143.214C160.555 143.268 160.232 143.538 160.178 143.862Z" fill="#C7C7C7"/>
<path d="M162.442 143.16C162.442 143.106 162.496 143.053 162.55 143.053C162.604 143.053 162.658 143.106 162.658 143.16V143.592C162.658 143.592 162.658 143.538 162.712 143.538C162.874 143.322 163.09 143.053 163.467 143.053C163.521 143.053 163.575 143.106 163.575 143.16C163.575 143.214 163.521 143.268 163.467 143.268C163.198 143.268 163.036 143.43 162.928 143.592C162.82 143.754 162.712 143.97 162.712 144.024C162.712 144.024 162.712 144.024 162.712 144.078V144.941C162.712 144.995 162.658 145.049 162.604 145.049C162.55 145.049 162.496 144.995 162.496 144.941V143.16H162.442Z" fill="#C7C7C7"/>
<path d="M166.003 144.995C165.949 144.995 165.949 144.995 166.003 144.995L165.248 143.214C165.248 143.161 165.248 143.107 165.302 143.107C165.356 143.107 165.41 143.107 165.41 143.161L166.057 144.671L166.705 143.161C166.705 143.107 166.759 143.107 166.812 143.107C166.866 143.107 166.866 143.161 166.866 143.214L166.165 144.941V144.995L166.111 145.049C166.057 144.995 166.003 144.995 166.003 144.995Z" fill="#C7C7C7"/>
<path d="M169.188 143.16V144.887C169.188 144.941 169.134 144.995 169.08 144.995C169.026 144.995 168.972 144.941 168.972 144.887V144.617C168.81 144.833 168.54 144.995 168.271 144.995C167.785 144.995 167.354 144.563 167.354 144.024C167.354 143.484 167.785 143.053 168.271 143.053C168.54 143.053 168.81 143.214 168.972 143.43V143.16C168.972 143.106 169.026 143.053 169.08 143.053C169.134 143.053 169.188 143.106 169.188 143.16ZM169.026 144.024C169.026 143.592 168.702 143.214 168.325 143.214C167.947 143.214 167.569 143.538 167.569 144.024C167.569 144.455 167.893 144.779 168.325 144.779C168.702 144.833 169.026 144.455 169.026 144.024Z" fill="#C7C7C7"/>
<path d="M170.104 142.351C170.104 142.297 170.157 142.243 170.211 142.243C170.265 142.243 170.319 142.297 170.319 142.351V144.941C170.319 144.995 170.265 145.049 170.211 145.049C170.157 145.049 170.104 144.995 170.104 144.941V142.351Z" fill="#C7C7C7"/>
<path d="M171.075 142.513C171.075 142.459 171.129 142.405 171.183 142.405C171.237 142.405 171.291 142.459 171.291 142.513V142.621C171.291 142.675 171.237 142.729 171.183 142.729C171.129 142.729 171.075 142.675 171.075 142.621V142.513ZM171.075 143.16C171.075 143.106 171.129 143.052 171.183 143.052C171.237 143.052 171.291 143.106 171.291 143.16V144.887C171.291 144.941 171.237 144.994 171.183 144.994C171.129 144.994 171.075 144.941 171.075 144.887V143.16Z" fill="#C7C7C7"/>
<path d="M173.718 144.617C173.556 144.833 173.287 144.995 172.963 144.995C172.424 144.995 172.046 144.563 172.046 144.024C172.046 143.484 172.477 143.053 172.963 143.053C173.287 143.053 173.556 143.214 173.718 143.43V142.297C173.718 142.243 173.772 142.189 173.826 142.189C173.88 142.189 173.934 142.243 173.934 142.297V143.97V144.024V144.887C173.934 144.941 173.88 144.995 173.826 144.995C173.772 144.995 173.718 144.941 173.718 144.887V144.617ZM173.718 144.078V144.024C173.718 143.592 173.395 143.268 172.963 143.268C172.531 143.268 172.208 143.592 172.208 144.024C172.208 144.455 172.531 144.779 172.963 144.779C173.395 144.833 173.718 144.509 173.718 144.078Z" fill="#C7C7C7"/>
<path d="M175.821 144.024C175.821 143.484 176.253 143.053 176.792 143.053C177.008 143.053 177.224 143.106 177.386 143.268C177.44 143.322 177.44 143.376 177.386 143.376C177.332 143.43 177.278 143.43 177.278 143.376C177.116 143.268 176.954 143.214 176.792 143.214C176.361 143.214 175.983 143.592 175.983 143.97C175.983 144.401 176.361 144.779 176.792 144.779C176.954 144.779 177.17 144.725 177.278 144.617C177.332 144.563 177.386 144.617 177.386 144.617C177.44 144.671 177.44 144.725 177.386 144.779C177.224 144.887 177.008 144.995 176.792 144.995C176.253 144.995 175.821 144.563 175.821 144.024Z" fill="#C7C7C7"/>
<path d="M179.005 143.053C179.49 143.053 179.922 143.484 179.922 144.024C179.922 144.563 179.49 144.995 179.005 144.995C178.519 144.995 178.088 144.563 178.088 144.024C178.088 143.538 178.466 143.053 179.005 143.053ZM179.005 144.833C179.383 144.833 179.76 144.509 179.76 144.078C179.76 143.646 179.437 143.268 179.005 143.268C178.627 143.268 178.304 143.646 178.304 144.078C178.25 144.455 178.627 144.833 179.005 144.833Z" fill="#C7C7C7"/>
<path d="M182.188 144.617C182.026 144.833 181.756 144.995 181.433 144.995C180.893 144.995 180.516 144.563 180.516 144.024C180.516 143.484 180.947 143.053 181.433 143.053C181.756 143.053 182.026 143.214 182.188 143.43V142.297C182.188 142.243 182.242 142.189 182.296 142.189C182.35 142.189 182.404 142.243 182.404 142.297V143.97V144.024V144.887C182.404 144.941 182.35 144.995 182.296 144.995C182.242 144.995 182.188 144.941 182.188 144.887V144.617ZM182.188 144.078V144.024C182.188 143.592 181.864 143.268 181.433 143.268C181.001 143.268 180.677 143.592 180.677 144.024C180.677 144.455 181.001 144.779 181.433 144.779C181.864 144.833 182.188 144.509 182.188 144.078Z" fill="#C7C7C7"/>
<path d="M183.051 144.024C183.051 143.484 183.482 143.053 183.968 143.053C184.453 143.053 184.885 143.43 184.885 143.97C184.885 144.024 184.831 144.078 184.777 144.078H183.159C183.159 144.509 183.536 144.833 183.914 144.833C184.184 144.833 184.399 144.725 184.561 144.455C184.615 144.401 184.669 144.401 184.669 144.401C184.723 144.455 184.723 144.509 184.723 144.509C184.561 144.779 184.292 144.941 183.914 144.941C183.482 144.995 183.051 144.563 183.051 144.024ZM183.267 143.862H184.723C184.669 143.484 184.345 143.214 184.022 143.214C183.644 143.268 183.321 143.538 183.267 143.862Z" fill="#C7C7C7"/>
<path d="M182.188 183.727H156.618V191.765H182.188V183.727Z" fill="#0064B5"/>
<path d="M162.068 188.366C162.122 188.259 162.284 188.259 162.338 188.313C162.499 188.474 162.823 188.636 163.093 188.636C163.309 188.636 163.47 188.582 163.578 188.474C163.686 188.366 163.74 188.313 163.74 188.205C163.74 188.151 163.74 188.097 163.686 188.097C163.686 188.043 163.632 188.043 163.578 187.989C163.47 187.935 163.255 187.827 163.039 187.827C162.877 187.773 162.661 187.719 162.553 187.665C162.391 187.611 162.284 187.503 162.176 187.342C162.122 187.234 162.068 187.126 162.068 187.018C162.068 186.802 162.176 186.586 162.391 186.424C162.553 186.317 162.823 186.209 163.093 186.209C163.47 186.209 163.74 186.371 163.956 186.532C164.064 186.586 164.064 186.748 164.01 186.802C163.956 186.91 163.848 186.91 163.74 186.856C163.524 186.748 163.362 186.586 163.093 186.586C162.931 186.586 162.769 186.64 162.661 186.694C162.553 186.748 162.499 186.856 162.499 186.964C162.499 187.018 162.499 187.018 162.553 187.072C162.553 187.126 162.607 187.126 162.661 187.18C162.769 187.234 162.931 187.288 163.147 187.342C163.362 187.395 163.524 187.449 163.686 187.503C163.848 187.557 164.01 187.665 164.064 187.827C164.118 187.935 164.172 188.043 164.172 188.151C164.172 188.42 164.01 188.636 163.848 188.744C163.632 188.906 163.416 188.96 163.093 188.96C162.661 188.96 162.284 188.744 162.068 188.582C162.014 188.582 162.014 188.42 162.068 188.366Z" fill="white"/>
<path d="M165.952 189.068C165.305 189.068 164.819 188.529 164.819 187.935V186.533C164.819 186.425 164.927 186.317 165.035 186.317C165.143 186.317 165.251 186.425 165.251 186.533V187.935C165.251 188.313 165.575 188.636 165.952 188.636C166.33 188.636 166.653 188.313 166.653 187.935V186.533C166.653 186.425 166.761 186.317 166.869 186.317C166.977 186.317 167.085 186.425 167.085 186.533V187.935C167.085 188.529 166.546 189.068 165.952 189.068Z" fill="white"/>
<path d="M168.002 188.852V186.533C168.002 186.425 168.11 186.317 168.218 186.317H168.757C169.189 186.317 169.512 186.641 169.512 187.072C169.512 187.234 169.458 187.396 169.351 187.504C169.566 187.665 169.728 187.935 169.728 188.205C169.728 188.69 169.351 189.068 168.865 189.068H168.164C168.11 189.068 168.002 188.96 168.002 188.852ZM168.434 187.342H168.757C168.919 187.342 169.081 187.18 169.081 187.018C169.081 186.856 168.919 186.694 168.757 186.694H168.434V187.342ZM168.434 188.583H168.919C169.135 188.583 169.351 188.421 169.351 188.151C169.351 187.935 169.189 187.773 168.919 187.719H168.434V188.583Z" fill="white"/>
<path d="M172.749 186.479V188.798C172.749 188.906 172.641 189.014 172.534 189.014C172.426 189.014 172.318 188.906 172.318 188.798V187.126L171.724 187.935C171.67 187.989 171.616 188.043 171.563 188.043C171.509 188.043 171.401 187.989 171.401 187.935L170.861 187.126V188.798C170.861 188.906 170.753 189.014 170.645 189.014C170.538 189.014 170.43 188.906 170.43 188.798V186.479C170.43 186.371 170.538 186.263 170.645 186.263C170.699 186.263 170.753 186.317 170.807 186.371L171.616 187.45L172.426 186.371C172.48 186.317 172.534 186.263 172.588 186.263C172.641 186.263 172.749 186.371 172.749 186.479Z" fill="white"/>
<path d="M173.721 186.479C173.721 186.371 173.829 186.263 173.936 186.263C174.044 186.263 174.152 186.371 174.152 186.479V188.798C174.152 188.906 174.044 189.014 173.936 189.014C173.829 189.014 173.721 188.906 173.721 188.798V186.479Z" fill="white"/>
<path d="M176.579 186.694H175.931V188.798C175.931 188.906 175.824 189.014 175.716 189.014C175.608 189.014 175.5 188.906 175.5 188.798V186.694H174.852C174.745 186.694 174.637 186.586 174.637 186.479C174.637 186.371 174.745 186.263 174.852 186.263H176.525C176.633 186.263 176.741 186.371 176.741 186.479C176.795 186.586 176.741 186.694 176.579 186.694Z" fill="white"/>
<path opacity="0.2" d="M173.222 128.068C178.951 125.952 181.88 119.592 179.764 113.863C177.647 108.134 171.288 105.206 165.559 107.322C159.83 109.438 156.901 115.798 159.017 121.527C161.134 127.256 167.494 130.185 173.222 128.068Z" fill="#0064B5"/>
<path d="M172.748 113.652V117.266H171.723V113.652C171.723 112.303 170.698 111.17 169.403 111.17C168.109 111.17 167.084 112.303 167.084 113.652V117.266H166.059V113.652C166.059 111.71 167.569 110.092 169.403 110.092C171.237 110.145 172.748 111.71 172.748 113.652Z" fill="white"/>
<path d="M166.059 114.623L167.084 114.677V117.266H166.059V114.623Z" fill="#EBEBEB"/>
<path d="M172.747 114.893V117.266H171.722V114.839L172.747 114.893Z" fill="#EBEBEB"/>
<path d="M174.041 115.918H164.763V123.632H174.041V115.918Z" fill="#0064B5"/>
<path d="M169.779 119.748L170.157 121.582H168.484L168.862 119.748C168.646 119.586 168.484 119.37 168.484 119.046C168.484 118.561 168.862 118.237 169.294 118.237C169.725 118.237 170.103 118.615 170.103 119.046C170.157 119.316 169.995 119.586 169.779 119.748Z" fill="white"/>
<path d="M328.842 240.031H15.56C15.3717 240.031 15.2461 239.756 15.2461 239.343V238.93C15.2461 238.517 15.3717 238.242 15.56 238.242H328.779C328.968 238.242 329.093 238.517 329.093 238.93V239.343C329.156 239.756 329.031 240.031 328.842 240.031Z" fill="#2D3554"/>
<path d="M68.8059 233.618C68.8059 233.618 72.4676 233.801 75.2138 233.801C77.8685 233.801 82.171 234.351 82.171 234.351C82.171 234.351 83.2695 234.351 83.361 235.724C83.4526 237.097 83.4526 237.646 83.4526 237.646C83.4526 237.646 83.5441 239.294 82.2625 239.294C80.9809 239.294 72.7422 240.209 70.9114 240.209C69.0806 240.209 67.7074 240.575 67.7074 239.294C67.6159 238.012 67.5243 233.527 68.8059 233.618Z" fill="#160856"/>
<path d="M71.8267 194.53C71.8267 194.53 74.2067 207.803 74.3898 211.374C74.5729 214.852 74.9391 217.598 72.6505 218.972C70.362 220.345 66.5173 221.626 66.5173 221.626L61.8486 197.825V195.079L71.8267 194.53Z" fill="#FDBD97"/>
<path d="M31.092 193.706C31.092 193.706 29.8104 199.748 29.4442 202.769C29.078 205.79 28.2542 211.74 28.1626 213.113C28.0711 214.486 27.888 216.775 30.3596 218.606C32.8312 220.345 35.5775 221.352 35.5775 221.352L40.7038 193.706H31.092Z" fill="#FDBD97"/>
<path d="M49.3074 174.574C49.3074 174.574 49.3074 177.32 48.1173 178.51C46.9273 179.7 45.3711 181.714 45.3711 181.714C45.3711 181.714 48.1173 186.108 53.7014 185.468C59.1939 184.918 60.2008 180.89 60.2008 180.89C60.2008 180.89 54.983 180.158 54.3422 175.215C53.7929 170.272 52.969 170.272 52.969 170.272L49.3074 174.574Z" fill="#FDAE7D"/>
<path d="M45.2803 163.589C45.2803 163.589 45.4634 169.906 48.4842 174.849C51.4136 179.792 54.9837 177.046 56.4483 174.483C57.8215 171.919 61.5747 163.589 60.8423 161.392C60.0185 159.195 49.125 158.188 49.125 158.188L45.2803 163.589Z" fill="#FDBD97"/>
<path d="M59.2855 167.159C59.2855 167.159 60.8417 165.969 60.8417 167.159C60.8417 168.349 60.0178 170.089 59.1024 170.363C58.0954 170.546 58.2785 169.997 58.5531 169.173C58.7362 168.349 59.2855 167.159 59.2855 167.159Z" fill="#FDBD97"/>
<path d="M45.7378 169.723C46.1955 169.906 46.6532 169.997 46.6532 169.356C46.6532 168.166 45.8293 166.427 44.9139 166.152C43.9069 165.969 44.09 166.519 44.3647 167.342C44.4562 167.617 44.5477 167.892 44.6393 168.258C44.8224 168.807 45.3716 169.539 45.7378 169.723Z" fill="#FDBD97"/>
<path d="M45.554 166.519L45.3709 164.505C45.3709 164.505 47.1102 164.688 49.1241 162.765C49.1241 162.765 52.9688 163.681 56.0812 163.315C59.3767 163.04 60.7499 162.125 60.7499 162.125C60.7499 162.125 60.2006 165.878 59.6514 166.976C59.6514 166.976 61.2076 166.335 61.8484 164.505C62.3976 162.765 62.3061 160.843 62.3061 160.843C62.3061 160.843 64.5031 159.104 65.0523 157.09C65.0523 157.09 59.1021 155.717 57.3628 154.527C55.6235 153.337 54.6166 152.513 54.6166 152.513C54.6166 152.513 51.8703 150.956 49.1241 153.062C46.3779 155.259 44.547 156.449 44.547 160.202C44.4555 160.294 41.8923 163.864 45.554 166.519Z" fill="#160856"/>
<path d="M46.0111 179.7C46.0111 179.7 42.2579 179.243 40.1525 179.792C38.1385 180.341 37.4977 179.975 38.047 181.531C38.5962 183.087 41.3425 190.319 40.0609 194.805C38.7793 199.29 37.04 222.542 37.04 222.542C37.04 222.542 51.1374 223.091 56.5384 223.366C62.0309 223.64 66.0587 222.633 66.0587 222.633C66.0587 222.633 67.2487 212.655 66.0587 208.261C64.8686 203.959 63.3124 196.544 63.3124 196.544C63.3124 196.544 62.3055 186.383 63.6786 183.911C65.0517 181.44 66.0587 181.348 64.3194 180.707C62.5801 180.067 60.6577 179.517 59.1931 179.517C57.82 179.517 57.0876 179.517 56.2638 180.341C55.4399 181.165 53.7921 182.813 51.5036 182.447C49.2151 182.081 47.4758 180.524 47.4758 180.524C47.4758 180.524 46.6519 179.792 46.0111 179.7Z" fill="#0181F7"/>
<path d="M39.3293 180.524C39.3293 180.524 38.0477 179.884 36.1253 181.531C34.0198 183.362 32.5552 187.207 31.8229 189.587C31.0905 191.967 30.6328 194.347 30.6328 194.347C30.6328 194.347 33.2875 195.72 36.1253 195.812C38.8715 195.903 40.7024 196.086 40.7024 196.086C40.7024 196.086 41.8924 188.855 41.6178 185.651C41.2516 182.447 40.7939 181.348 39.3293 180.524Z" fill="#023E9F"/>
<path d="M62.5798 183.179C62.5798 183.179 63.6783 180.158 66.1499 181.531C68.6215 182.904 70.4523 188.214 71.0931 189.861C71.6424 191.509 72.3747 194.896 72.3747 194.896C72.3747 194.896 69.4454 196.178 66.8822 196.361C64.4106 196.544 62.6713 196.727 62.6713 196.727C62.6713 196.727 61.6644 190.136 61.8474 187.573C62.0305 185.01 62.5798 183.179 62.5798 183.179Z" fill="#023E9F"/>
<path d="M42.167 224.647H61.1161L51.3211 227.668L42.167 224.647Z" fill="#BA0A28"/>
<path d="M25.3232 219.247C25.3232 219.247 59.9259 230.048 67.5238 232.703C67.5238 232.703 69.9955 233.344 70.087 234.625C70.1786 235.907 69.9039 237.738 69.6293 238.653C69.3547 239.569 68.5308 240.301 67.1577 240.026C65.7846 239.752 34.752 233.527 22.4854 230.323L19.0069 229.225C19.0069 229.225 16.4437 228.034 16.9014 224.922C17.3591 221.81 19.6477 218.972 21.2954 218.789C22.9432 218.697 25.3232 219.247 25.3232 219.247Z" fill="#EC384E"/>
<path d="M22.2099 234.626C22.2099 234.626 26.5124 233.893 29.1671 233.802C31.7302 233.71 35.2088 233.435 35.758 233.802C36.3073 234.168 36.765 239.203 36.765 239.203C36.765 239.203 37.2227 240.576 33.8357 240.301C30.4486 240.026 22.5761 239.752 22.5761 239.752C22.5761 239.752 20.8368 239.66 20.7452 238.104C20.6537 236.548 20.9283 235.816 20.9283 235.816C20.9283 235.816 21.0199 234.809 22.2099 234.626Z" fill="#160856"/>
<path d="M42.8079 230.231C42.8079 230.231 63.7709 223.823 71.2773 221.626C78.7837 219.429 82.9031 217.415 85.3747 220.894C87.7548 224.373 87.5717 228.309 84.8255 229.407C82.0792 230.506 60.2008 235.632 51.1382 237.463C42.0756 239.294 36.1254 240.484 35.3015 240.118C34.4776 239.752 33.5622 237.097 33.7453 235.632C33.9284 234.168 34.0199 233.618 35.7592 232.886C37.4985 232.062 42.8079 230.231 42.8079 230.231Z" fill="#DB061F"/>
<path d="M40.428 199.657H65.6934C65.6934 199.657 67.0665 199.473 67.0665 201.304C67.0665 203.135 67.0665 223.091 67.0665 223.091C67.0665 223.091 67.1581 224.556 66.0596 224.556C64.9611 224.556 36.4002 224.556 36.4002 224.556C36.4002 224.556 35.2101 224.922 35.2101 222.908C35.2101 220.894 35.2101 200.755 35.2101 200.755C35.2101 200.755 35.1186 199.657 36.5832 199.657C37.9564 199.657 40.428 199.657 40.428 199.657Z" fill="#0064B5"/>
<path d="M52.6949 212.015L50.8641 210.55L49.3994 212.381L51.2302 213.845L52.6949 212.015Z" fill="#579CD2"/>
<path d="M297.634 201.121C297.634 201.121 300.198 200.114 300.015 197.185C299.831 194.255 298.367 192.242 301.388 193.065C304.5 193.889 305.507 194.255 307.796 193.798C310.084 193.34 311.915 192.425 310.908 195.262C309.901 198.192 308.894 200.663 311.183 201.121C313.471 201.579 316.034 199.839 316.309 204.417C316.584 208.994 312.922 214.12 306.972 214.303C301.021 214.486 298.367 212.014 298.367 212.014C298.367 212.014 296.811 209.726 299.282 209.177C301.754 208.627 304.317 207.529 303.035 206.43C301.754 205.24 297.634 205.149 297.634 205.149C297.634 205.149 292.417 204.142 297.634 201.121Z" fill="#649CE8"/>
<path d="M324.821 201.853C324.363 198.924 324.73 196.819 330.131 196.086C335.532 195.262 338.735 198.558 339.01 201.853C339.376 205.149 334.616 206.43 334.616 206.43C334.616 206.43 331.321 207.346 332.968 210.275C334.616 213.204 335.44 216.042 331.595 216.408C327.75 216.866 323.54 215.859 321.16 214.303C318.779 212.747 316.399 208.81 319.146 206.705C319.146 206.705 319.878 206.156 322.441 206.064C325.096 205.973 324.821 201.853 324.821 201.853Z" fill="#023E9F"/>
<path d="M305.782 201.396C305.782 201.396 310.268 211.557 310.909 218.514" stroke="#023E9F" stroke-miterlimit="10"/>
<path d="M330.773 203.043C330.773 203.043 322.809 214.852 320.979 218.789" stroke="#649CE8" stroke-miterlimit="10"/>
<path d="M308.163 217.69H326.38C326.38 217.69 328.393 217.873 328.21 220.528C328.027 222.999 324.915 222.45 323.267 222.45C321.619 222.45 307.797 222.45 307.797 222.45C307.797 222.45 305.6 222.816 305.6 220.253C305.508 217.782 306.332 217.69 308.163 217.69Z" fill="#0055A2"/>
<path d="M307.796 222.542L310.542 238.653H322.809L324.914 226.57L307.796 222.542Z" fill="#0055A2"/>
<path d="M307.796 222.542L324.914 226.57L325.646 222.542H307.796Z" fill="#016AD3"/>
<path d="M315.668 218.331C315.668 218.331 316.583 200.389 321.893 189.221" stroke="#FABC43" stroke-miterlimit="10"/>
<path d="M326.287 182.721C326.287 182.721 326.745 188.214 321.344 190.319C321.344 190.319 320.245 185.651 326.287 182.721Z" fill="#FABC43"/>
<path d="M318.231 200.206C318.231 200.206 320.245 195.537 326.287 196.178C326.287 196.178 325.829 200.847 318.231 200.206Z" fill="#FABC43"/>
<path d="M316.219 212.014C316.219 212.014 317.226 207.071 323.359 206.43C323.359 206.43 323.817 211.099 316.219 212.014Z" fill="#FABC43"/>
<path d="M316.035 212.014C316.035 212.014 316.768 206.98 311.184 204.416C311.184 204.416 309.17 208.627 316.035 212.014Z" fill="#FABC43"/>
<path d="M318.323 200.206C318.323 200.206 319.696 195.263 314.478 192.059C314.478 191.967 312.007 195.995 318.323 200.206Z" fill="#FABC43"/>
<path d="M293.723 38.6351L288.597 40.0997L290.061 45.2261L295.188 43.7614L293.723 38.6351Z" fill="#EB3B4E"/>
</svg>
