<svg width="340" height="270" viewBox="0 0 340 270" fill="none" xmlns="http://www.w3.org/2000/svg">
<path d="M253.508 144.303C252.408 144.441 251.307 144.441 250.207 144.303L248.556 146.922L243.879 145.13L244.292 142.097C243.466 141.546 242.641 140.718 241.953 139.753L238.927 140.305L236.863 135.618L239.339 133.826C239.202 132.723 239.202 131.62 239.339 130.517L236.726 128.863L238.514 124.176L241.54 124.589C242.091 123.762 242.916 122.935 243.879 122.246L243.329 119.213L248.006 117.145L249.794 119.626C250.895 119.488 251.995 119.488 253.096 119.626L254.747 117.007L259.424 118.799L259.011 121.832C259.836 122.383 260.662 123.211 261.35 124.176L264.376 123.624L266.439 128.173L263.963 129.966C264.101 131.068 264.101 132.171 263.963 133.274L266.577 134.928L264.789 139.616L261.762 139.202C261.212 140.029 260.387 140.856 259.424 141.546L259.974 144.578L255.297 146.646L253.508 144.303ZM253.508 136.858C256.26 135.618 257.498 132.447 256.26 129.69C255.022 126.933 251.858 125.692 249.106 126.933C246.355 128.173 245.117 131.344 246.355 134.101C247.593 136.858 250.895 138.099 253.508 136.858Z" stroke="#DE051F" stroke-miterlimit="10"/>
<path d="M251.036 195.723C249.385 194.896 248.009 193.931 246.771 192.69L242.231 194.345L237.967 187.59L241.406 184.143C240.856 182.489 240.581 180.697 240.443 179.043L236.041 176.975L237.829 169.117H242.644C243.469 167.463 244.432 166.084 245.671 164.843L244.02 160.294L250.76 156.021L254.2 159.467C255.85 158.916 257.639 158.64 259.289 158.502L261.353 154.091L269.194 155.883V160.708C270.845 161.535 272.22 162.5 273.458 163.741L277.998 162.086L282.263 168.841L278.823 172.288C279.374 173.942 279.649 175.734 279.786 177.388L284.188 179.456L282.4 187.314H277.585C276.76 188.968 275.797 190.347 274.559 191.588L276.21 196.137L269.469 200.41L266.03 196.964C264.379 197.515 262.591 197.791 260.94 197.929L258.877 202.34L251.036 200.548V195.723ZM257.914 186.625C262.453 187.728 267.131 184.833 268.231 180.146C269.332 175.596 266.443 170.909 261.766 169.806C257.226 168.703 252.549 171.598 251.448 176.286C250.348 180.973 253.237 185.522 257.914 186.625Z" stroke="#2440AB" stroke-miterlimit="10"/>
<path d="M279.787 151.334C278.961 150.92 278.274 150.369 277.723 149.817L275.385 150.644L273.184 147.198L274.834 145.544C274.559 144.716 274.422 143.889 274.422 142.924L272.221 141.821L273.046 137.962H275.385C275.797 137.134 276.348 136.445 276.898 135.894L276.073 133.55L279.512 131.344L281.162 132.999C281.988 132.723 282.813 132.585 283.776 132.585L284.877 130.379L288.728 131.207V133.55C289.554 133.964 290.242 134.515 290.792 135.067L293.13 134.239L295.331 137.686L293.681 139.34C293.956 140.167 294.093 140.994 294.093 141.821L296.294 142.924L295.469 146.784H293.13C292.718 147.611 292.168 148.301 291.617 148.852L292.443 151.196L289.004 153.401L287.353 151.747C286.527 152.023 285.702 152.161 284.739 152.161L283.639 154.366L279.787 153.539V151.334ZM283.088 146.784C285.427 147.336 287.628 145.819 288.178 143.614C288.728 141.27 287.215 139.064 285.014 138.513C282.676 137.961 280.475 139.478 279.924 141.684C279.374 144.027 280.887 146.233 283.088 146.784Z" stroke="#DE051F" stroke-miterlimit="10"/>
<g opacity="0.4">
<path d="M279.787 151.334C278.961 150.92 278.274 150.369 277.723 149.817L275.385 150.644L273.184 147.198L274.834 145.544C274.559 144.716 274.422 143.889 274.422 142.924L272.221 141.821L273.046 137.962H275.385C275.797 137.134 276.348 136.445 276.898 135.894L276.073 133.55L279.512 131.344L281.162 132.999C281.988 132.723 282.813 132.585 283.776 132.585L284.877 130.379L288.728 131.207V133.55C289.554 133.964 290.242 134.515 290.792 135.067L293.13 134.239L295.331 137.686L293.681 139.34C293.956 140.167 294.093 140.994 294.093 141.821L296.294 142.924L295.469 146.784H293.13C292.718 147.611 292.168 148.301 291.617 148.852L292.443 151.196L289.004 153.401L287.353 151.747C286.527 152.023 285.702 152.161 284.739 152.161L283.639 154.366L279.787 153.539V151.334ZM283.088 146.784C285.427 147.336 287.628 145.819 288.178 143.614C288.728 141.27 287.215 139.064 285.014 138.513C282.676 137.961 280.475 139.478 279.924 141.684C279.374 144.027 280.887 146.233 283.088 146.784Z" stroke="#DE051F" stroke-miterlimit="10"/>
</g>
<path d="M56.522 38.5667C56.522 38.5667 56.522 38.5667 56.2468 38.7045C56.1093 38.7045 55.8342 38.8424 55.559 38.9802C55.0088 39.1181 53.9082 39.1181 52.9453 38.5667C51.9823 38.0152 51.0194 36.9124 50.8818 35.2581C50.8818 34.5688 51.0194 33.6038 51.4321 32.9145C51.8448 32.2253 52.5326 31.536 53.2204 31.2603C54.0458 30.8467 54.8712 30.8467 55.6966 30.9845C56.522 31.1224 57.2098 31.536 57.76 32.0874C58.8606 33.1903 58.9981 34.7067 58.723 35.8095C58.4479 36.9124 57.7601 37.6017 57.2098 38.0152C56.9347 38.1531 56.6595 38.2909 56.6595 38.4288C56.6595 38.5667 56.522 38.5667 56.522 38.5667C56.522 38.5667 56.7971 38.4288 57.3474 38.0152C57.8976 37.6017 58.4479 36.9124 58.5854 35.8095C58.8606 34.7067 58.5854 33.3281 57.6225 32.3631C57.0722 31.8117 56.522 31.3981 55.6966 31.2603C55.0088 31.1224 54.0458 31.2603 53.358 31.536C52.6702 31.8117 51.9824 32.3631 51.7072 33.0524C51.4321 33.7417 51.157 34.431 51.157 35.1202C51.157 36.4988 52.1199 37.6017 53.0829 38.1531C54.0458 38.7045 55.0088 38.7045 55.559 38.7045C56.1093 38.7045 56.522 38.5667 56.522 38.5667Z" fill="#CA515B"/>
<path d="M56.5186 43.8056C56.6562 43.9434 56.6562 44.0813 56.7937 44.2191C57.0689 44.4949 57.344 44.9084 57.7567 45.4599C58.5821 45.0463 59.6826 44.6327 61.0582 43.9434C60.9207 43.2541 60.7831 42.5649 60.6455 41.7377C61.1958 41.1863 61.746 40.6349 62.2963 40.0835C62.9841 40.2213 63.6719 40.2213 64.4973 40.3592H64.3598C64.7725 39.2563 65.1852 38.1535 65.5978 36.9128V37.0506C65.0476 36.637 64.4973 36.2235 63.8095 35.8099C63.8095 35.1206 63.8095 34.2935 63.8095 33.4663C64.3598 33.0528 64.91 32.6392 65.5978 32.2256C65.0476 31.1228 64.6349 30.0199 64.0846 28.9171H64.2222C63.5344 29.0549 62.8466 29.1928 62.0212 29.3306C61.6085 28.7792 60.9207 28.2278 60.3704 27.6764V27.5385C60.508 26.8492 60.508 26.1599 60.6455 25.3328L60.7831 25.4707C59.6826 25.0571 58.5821 24.6435 57.344 24.23H57.4816C57.0689 24.7814 56.6562 25.3328 56.2435 26.0221L56.1059 26.1599H55.9684C55.2805 26.1599 54.4551 26.1599 53.6298 26.1599C53.6298 26.1599 53.7673 26.1599 53.4922 26.1599V26.0221L53.2171 25.6085L52.9419 25.0571C52.6668 24.7814 52.5292 24.5057 52.2541 24.23H52.3917C51.2912 24.7814 50.1907 25.195 49.0901 25.7464V25.6085C49.2277 26.2978 49.3653 26.9871 49.5028 27.8142V27.9521C48.9526 28.5035 48.4023 29.0549 47.8521 29.6064H47.7145C47.0267 29.4685 46.2013 29.4685 45.5135 29.3306L45.651 29.1928C45.2383 30.2956 44.8256 31.5363 44.413 32.6392V32.5013C44.9632 32.9149 45.651 33.3285 46.2013 33.7421C46.2013 34.5692 46.2013 35.3963 46.2013 36.0856C45.651 36.4992 45.1008 36.9128 44.413 37.3263V37.1885C44.9632 38.2913 45.3759 39.532 45.9262 40.497H45.7886C46.4764 40.3592 47.3018 40.2213 47.9896 40.0835C48.5399 40.7727 49.0901 41.1863 49.6404 41.7377C49.5028 42.5649 49.3653 43.2541 49.3653 43.9434V43.8056C50.6033 44.357 51.7039 44.7706 52.8044 45.1841C53.3546 44.4949 53.7673 43.9434 54.0424 43.392C54.8678 43.5299 55.4181 43.392 55.8308 43.392C56.1059 43.8056 56.2435 43.8056 56.5186 43.8056C56.2435 43.8056 56.1059 43.9434 55.9684 43.9434C55.5557 43.9434 55.0054 43.9434 54.18 43.9434C53.9049 44.4949 53.4922 45.0463 52.9419 45.7356C51.979 45.322 50.8785 44.9084 49.5028 44.4949C49.6404 43.8056 49.6404 43.1163 49.778 42.2892V42.427C49.2277 42.0134 48.5399 41.462 48.1272 40.7727H48.2648C47.5769 40.9106 46.8891 41.0484 46.0637 41.1863H45.9262C45.3759 40.0835 44.9632 38.9806 44.413 37.8777V37.7399C44.9632 37.3263 45.5135 36.9128 46.2013 36.4992V36.637C46.0637 35.8099 46.0637 34.9828 46.2013 34.2935V34.4313C45.651 34.0178 44.9632 33.6042 44.413 33.1906H44.2754V33.0528C44.6881 31.9499 45.1008 30.8471 45.5135 29.6064V29.4685H45.651C46.3389 29.6064 47.0267 29.6064 47.8521 29.7442H47.7145C48.2648 29.1928 48.815 28.5035 49.3653 28.0899C49.2277 27.4007 49.0901 26.7114 48.9526 25.8842V25.7464H49.0901C50.1907 25.195 51.2912 24.7814 52.3917 24.23H52.5292V24.3678C52.8044 24.6435 52.9419 24.9192 53.2171 25.195L53.4922 25.6085L53.6298 25.8842V26.0221C53.3546 25.8842 53.6298 26.0221 53.4922 26.0221C54.3176 25.8842 55.143 25.8842 55.8308 26.0221H55.6932C56.1059 25.4707 56.5186 24.7814 56.9313 24.23V24.0921H57.0689C58.1694 24.5057 59.4075 25.0571 60.508 25.3328H60.6455V25.4707C60.508 26.1599 60.3704 26.9871 60.3704 27.6764V27.5385C61.0582 28.0899 61.6085 28.6414 62.0212 29.1928H61.8836C62.5714 29.0549 63.3968 28.9171 64.0846 28.7792H64.2222V28.9171C64.7725 30.0199 65.1852 31.2606 65.7354 32.2256V32.3635H65.5978C65.0476 32.7771 64.3598 33.3285 63.8095 33.6042V33.4663C63.9471 34.2935 63.9471 35.1206 63.8095 35.8099V35.672C64.3598 36.0856 65.0476 36.4992 65.5978 36.9128V37.0506C65.0476 38.1535 64.6349 39.3942 64.3598 40.497C63.6719 40.3592 62.8466 40.2213 62.1587 40.2213H62.2963C61.746 40.9106 61.1958 41.462 60.6455 41.8756C60.7831 42.7027 60.9207 43.392 61.0582 44.0813C59.6826 44.6327 58.5821 45.1841 57.7567 45.5977C57.344 45.0463 57.0689 44.6327 56.7937 44.357C56.6562 44.2191 56.6562 44.0813 56.5186 43.8056Z" fill="#CA515B"/>
<path d="M56.5196 38.5671C56.382 38.5671 56.2444 38.705 55.9693 38.705C55.6942 38.705 55.1439 38.8428 54.5937 38.8428C54.0434 38.8428 53.218 38.5671 52.5302 38.1536C51.8424 37.74 51.1546 36.775 51.017 35.6721C50.8794 34.5693 51.1546 33.3286 52.1175 32.2257C53.0805 31.2607 54.5937 30.7093 55.9693 31.1229C56.6571 31.2607 57.345 31.6743 57.8952 32.3636C58.4455 33.0529 58.7206 33.7421 58.8582 34.5693C58.9957 35.3964 58.8582 36.2236 58.3079 36.9128C58.1703 37.3264 57.7576 37.6021 57.4825 37.8778C57.345 38.0157 57.2074 38.1536 56.9323 38.2914C56.9323 38.2914 56.7947 38.4293 56.6571 38.4293H56.5196V38.5671C56.6571 38.705 56.6571 38.705 56.5196 38.5671C56.5196 38.4293 56.6571 38.2914 56.7947 38.2914C58.1703 37.4643 58.8582 35.6721 58.4455 34.2936C58.1703 32.7772 56.7947 31.6743 55.4191 31.3986C54.0434 31.1229 52.5302 31.6743 51.8424 32.6393C51.017 33.6043 50.7419 34.845 50.8794 35.9479C51.017 37.0507 51.7048 37.8778 52.3926 38.2914C53.0805 38.8428 53.7683 38.9807 54.4561 38.9807C55.0064 38.9807 55.5566 38.9807 55.8318 38.8428C56.382 38.705 56.5196 38.5671 56.5196 38.5671C56.5196 38.5671 56.382 38.705 56.1069 38.8428C55.8318 38.9807 55.2815 39.1186 54.7312 39.1186C54.181 39.1186 53.3556 38.8428 52.5302 38.4293C51.7048 38.0157 51.1546 37.0507 50.8794 35.9479C50.6043 34.845 50.8794 33.4664 51.8424 32.5014C52.6678 31.3986 54.181 30.8472 55.6942 31.1229C56.382 31.2607 57.2074 31.6743 57.7577 32.2257C58.3079 32.7772 58.7206 33.4664 58.8582 34.2936C59.2709 35.9479 58.583 37.74 56.9323 38.705C56.7947 38.8428 56.6571 38.8428 56.382 38.9807H56.2444V38.8428C56.2444 38.705 56.2444 38.5671 56.2444 38.705L56.5196 38.5671C56.5196 38.4293 56.6571 38.2914 56.7947 38.2914C56.9323 38.1536 57.0698 38.0157 57.345 37.8778C57.6201 37.6021 57.8952 37.3264 58.0328 36.9128C58.4455 36.2236 58.583 35.3964 58.4455 34.7071C58.4455 34.0179 58.0328 33.1907 57.6201 32.7772C57.0698 32.2257 56.5196 31.8122 55.8318 31.6743C54.4561 31.2607 53.0805 31.6743 52.2551 32.6393C51.4297 33.4664 51.1546 34.7071 51.1546 35.81C51.2921 36.9128 51.8424 37.74 52.5302 38.1536C53.218 38.705 53.9059 38.8428 54.4561 38.9807C55.0064 38.9807 55.5566 38.9807 55.8318 38.8428C56.382 38.5671 56.5196 38.5671 56.5196 38.5671Z" fill="#CA515B"/>
<path d="M56.5183 43.8056C56.6559 43.9434 57.0686 44.4948 57.894 45.5977C58.7194 45.1841 59.8199 44.7705 61.3331 44.0813C61.1955 43.392 61.058 42.7027 60.9204 41.8756C61.4707 41.3241 62.0209 40.7727 62.5712 40.2213C63.259 40.3591 64.0844 40.3591 64.7722 40.497C65.1849 39.3941 65.5976 38.1534 66.1478 37.0506V37.1884C65.5976 36.7749 64.9098 36.3613 64.2219 35.9477L64.3595 35.8099H64.2219C64.2219 35.1206 64.2219 34.2935 64.2219 33.4663H64.3595C64.3595 33.4663 64.3595 33.4663 64.3595 33.6042L64.2219 33.3285C64.7722 32.9149 65.3225 32.5013 66.0103 31.9499V32.0878C65.46 30.9849 65.0473 29.7442 64.4971 28.6413H64.6346C63.9468 28.7792 63.1214 28.9171 62.4336 29.0549V28.7792C62.4336 28.7792 62.4336 28.7792 62.5712 28.7792L62.4336 28.9171C62.0209 28.3656 61.3331 27.8142 60.7828 27.2628L60.9204 27.1249C60.9204 27.1249 60.9204 27.1249 60.9204 27.2628H60.6453C60.7828 26.5735 60.7828 25.7464 60.9204 24.9192V25.0571C59.8199 24.6435 58.5818 24.2299 57.3437 23.6785H57.4813C57.0686 24.2299 56.6559 24.9192 56.2432 25.6085L56.1057 25.4706C56.1057 25.4706 56.1057 25.4706 56.2432 25.4706V25.7464C55.5554 25.7464 54.73 25.7464 53.9046 25.7464V25.4706L53.7671 25.7464V25.4706L53.6295 25.6085C53.2168 25.0571 52.8041 24.5056 52.2539 23.8164H52.3914C51.2909 24.3678 50.0528 24.7814 48.9523 25.3328V25.1949C49.0899 25.8842 49.2274 26.7113 49.365 27.4006H49.0899C49.0899 27.4006 49.0899 27.4006 49.0899 27.2628L49.365 27.4006C48.8148 27.8142 48.2645 28.5035 47.7142 29.0549L47.5767 28.7792C47.5767 28.7792 47.5767 28.7792 47.7142 28.7792V29.0549C47.0264 28.9171 46.201 28.9171 45.3756 28.7792L45.5132 28.6413C45.1005 29.7442 44.6878 30.9849 44.1376 32.2256V32.0878C44.6878 32.5013 45.3756 32.9149 46.0635 33.3285L45.7883 33.4663C45.7883 33.4663 45.7883 33.4663 45.7883 33.3285H46.0635C46.0635 34.0177 46.0635 34.8449 46.0635 35.672H45.7883C45.7883 35.672 45.7883 35.672 45.7883 35.5342L46.0635 35.672C45.5132 36.0856 44.963 36.4992 44.2751 37.0506V36.9127C44.8254 38.0156 45.2381 39.2563 45.7883 40.3591H45.6508C46.3386 40.2213 47.164 40.0834 47.8518 39.9456V40.6349L47.9894 40.3591C48.5396 40.9106 49.0899 41.462 49.6401 42.0134L49.365 42.1513H49.6401C49.5026 42.8406 49.5026 43.6677 49.365 44.357L49.2274 44.2191C50.328 44.6327 51.566 45.0463 52.6665 45.5977H52.529C52.9417 45.0463 53.3544 44.357 53.7671 43.8056L53.9046 44.0813V43.8056C54.4549 43.8056 55.2803 43.8056 55.9681 43.8056H56.1057C56.2432 43.6677 56.3808 43.9434 56.5183 43.8056H56.2432C55.9681 43.8056 55.8305 43.8056 55.5554 43.8056C55.1427 43.8056 54.5924 43.8056 54.1798 43.8056H54.3173C53.9046 44.357 53.4919 45.0463 53.0792 45.5977L52.9417 45.322V45.5977C51.8412 45.1841 50.6031 44.7705 49.5026 44.357L49.6401 44.0813H49.365C49.5026 43.392 49.6401 42.5648 49.6401 41.8756V42.0134C48.9523 41.462 48.4021 40.9106 47.8518 40.3591H47.9894C47.3015 40.497 46.4762 40.6349 45.7883 40.7727V40.497H45.9259L45.6508 40.6349C45.1005 39.532 44.6878 38.4291 44.1376 37.3263H44.4127V37.4642L44.1376 37.3263C44.6878 36.9127 45.3756 36.3613 45.9259 35.9477V36.0856C45.7883 35.2584 45.7883 34.4313 45.9259 33.6042V33.742C45.3756 33.3285 44.6878 32.9149 44.1376 32.5013L44.4127 32.3635V32.5013H44.1376C44.5503 31.3985 44.9629 30.1578 45.3756 29.0549L45.6508 29.1928H45.5132V28.9171C46.201 29.0549 47.0264 29.1928 47.7142 29.1928H47.5767C48.1269 28.5035 48.6772 27.9521 49.2274 27.4006V27.8142C49.0899 27.1249 48.9523 26.2978 48.8147 25.6085H49.0899C49.0899 25.6085 49.0899 25.6085 49.0899 25.7464V25.8842C50.1904 25.3328 51.2909 24.9192 52.3914 24.3678V24.6435C52.3914 24.6435 52.3914 24.6435 52.2539 24.6435L52.3914 24.3678C52.8041 24.9192 53.2168 25.4706 53.6295 26.1599H53.4919V26.2978L53.6295 26.0221C54.4549 25.8842 55.2803 25.8842 56.1057 26.0221H55.9681C56.3808 25.3328 56.7935 24.7814 57.2062 24.0921L57.3437 24.2299C57.3437 24.2299 57.3437 24.2299 57.2062 24.2299V24.0921C58.3067 24.5056 59.5448 24.9192 60.6453 25.3328L60.5077 25.4706C60.5077 25.4706 60.5077 25.4706 60.5077 25.3328H60.7828C60.6453 26.1599 60.5077 26.8492 60.5077 27.5385C61.1955 28.0899 61.7458 28.6413 62.296 29.1928H62.1585C62.9839 29.0549 63.6717 28.9171 64.3595 28.7792V29.0549C64.3595 29.0549 64.3595 29.0549 64.2219 29.0549L64.3595 28.9171C64.9098 30.0199 65.3225 31.2606 65.8727 32.2256H65.7351C65.7351 32.2256 65.7351 32.2256 65.7351 32.0878L65.8727 32.2256C65.1849 32.777 64.6346 33.1906 64.0844 33.6042V33.4663C64.2219 34.4313 64.2219 35.1206 64.0844 35.9477C64.7722 36.4992 65.3225 36.7749 65.8727 37.1884L65.7351 37.3263C65.7351 37.3263 65.7351 37.3263 65.7351 37.1884H65.8727C65.3225 38.4291 64.9098 39.532 64.6346 40.6349L64.4971 40.497V40.6349C63.6717 40.497 62.9839 40.3591 62.296 40.3591C61.7458 41.1863 61.1955 41.7377 60.6453 42.1513C60.7828 43.1163 60.9204 43.8056 61.058 44.357H60.9204C59.5448 44.9084 58.4442 45.4598 57.6189 45.8734C56.931 44.4948 56.6559 43.9434 56.5183 43.8056C56.5183 43.8056 56.6559 43.9434 56.931 44.2191C57.2062 44.4948 57.4813 44.9084 58.0316 45.4598H57.894H57.7564C58.5818 45.0463 59.5448 44.6327 61.058 43.9434H61.1955V44.0813C61.058 43.5298 60.9204 42.8406 60.7828 41.8756C61.3331 41.462 61.8834 40.9106 62.4336 40.0834C63.1214 40.0834 63.8092 40.2213 64.6346 40.3591H64.9098L64.7722 40.497L64.2219 40.6349V40.3591C64.6346 39.2563 65.0473 38.2913 65.46 36.9127L65.5976 36.637V36.9127C65.5976 36.9127 65.5976 36.9127 65.5976 37.0506V37.3263L65.3225 37.1884C64.7722 36.7749 64.2219 36.3613 63.5341 35.9477C63.5341 35.2584 63.5341 34.4313 63.5341 33.6042C64.0844 33.1906 64.6346 32.777 65.3225 32.2256L65.5976 32.0878V32.2256C65.5976 32.2256 65.5976 32.2256 65.5976 32.3635V32.6392L65.46 32.3635C64.9098 31.2606 64.4971 30.1578 63.9468 29.0549L63.8093 28.7792L64.0844 28.9171C64.0844 28.9171 64.0844 28.9171 64.2219 28.9171L64.4971 29.0549H64.2219C63.5341 29.1928 62.8463 29.3306 62.0209 29.4685C61.4707 28.9171 60.9204 28.3656 60.2326 27.8142C60.3701 27.1249 60.3701 26.2978 60.5077 25.6085V25.1949L60.6453 25.4706C60.6453 25.4706 60.6453 25.4706 60.6453 25.6085L60.7828 25.8842L60.5077 25.4706C59.4072 25.0571 58.3067 24.6435 57.0686 24.2299L56.7935 24.0921L57.2062 23.9542C57.2062 23.9542 57.2062 23.9542 57.3437 23.9542L57.7564 23.8164L57.6189 24.2299C57.2062 24.7814 56.7935 25.4706 56.3808 26.1599C55.693 26.1599 54.8676 26.1599 54.0422 26.1599H53.9046C53.4919 25.6085 53.0792 25.0571 52.6665 24.3678L51.9787 24.0921L52.3914 24.2299C52.3914 24.2299 52.3914 24.2299 52.529 24.2299L52.9417 24.3678L52.529 24.5056C51.4285 25.0571 50.328 25.4706 49.2274 26.0221H48.9523L49.0899 25.6085C49.0899 25.6085 49.0899 25.6085 49.0899 25.4706L49.2274 25.0571V25.4706C49.365 26.1599 49.5026 26.9871 49.6401 27.6763C49.0899 28.2278 48.5396 28.7792 47.9894 29.4685C47.3015 29.3306 46.4762 29.1928 45.7883 29.1928H45.3756L45.7883 28.9171H45.9259L46.3386 28.6413L46.201 29.0549C45.7883 30.1578 45.3756 31.2606 44.963 32.5013L44.8254 32.9149L44.6878 32.5013V32.3635L44.5503 31.9499L44.963 32.2256C45.5132 32.6392 46.201 33.0527 46.7513 33.4663V33.6042C46.6137 34.4313 46.7513 35.2584 46.7513 35.9477V36.0856C46.201 36.4992 45.5132 37.0506 44.963 37.4642L44.5503 37.7399L44.6878 37.3263V37.1884L44.8254 36.7749L44.963 37.1884C45.5132 38.2913 45.9259 39.3941 46.4762 40.497L46.6137 40.9106L46.201 40.7727H46.0635L45.6508 40.6349H46.0635C46.7513 40.497 47.5767 40.3591 48.2645 40.2213H48.4021C48.9523 40.7727 49.5026 41.3241 50.0528 41.8756V42.0134C49.9153 42.7027 49.7777 43.5298 49.7777 44.2191V44.6327L49.5026 44.2191L49.2274 43.8056L49.6401 43.9434C50.7407 44.357 51.9787 44.7705 53.0792 45.1841L53.4919 45.322L53.0792 45.4598L52.6665 45.5977L52.9417 45.1841C53.3544 44.6327 53.7671 43.9434 54.1798 43.392H54.3173C54.73 43.392 55.1427 43.392 55.693 43.392C55.9681 43.392 56.1057 43.392 56.3808 43.392H56.5183V43.8056C56.7935 43.9434 56.6559 43.8056 56.5183 43.8056L56.2432 43.9434C55.5554 44.0813 54.8676 44.0813 54.1798 43.9434H53.6295L54.1798 43.6677L54.5924 43.5298L54.3173 44.0813C53.9046 44.6327 53.4919 45.322 53.0792 45.8734V46.0113H52.9417C51.8412 45.5977 50.6031 45.0463 49.5026 44.6327H49.365V44.4948C49.5026 43.8056 49.6401 42.9784 49.6401 42.2891V41.7377L49.9153 42.2891L50.1904 42.8406L49.7777 42.5648C49.0899 42.0134 48.5396 41.462 47.9894 40.9106L47.5767 40.497L48.1269 40.6349L48.6772 40.7727L48.1269 40.9106C47.4391 41.0484 46.6137 41.1863 45.9259 41.3241H45.7883V41.1863C45.2381 40.0834 44.6878 38.8427 44.2751 37.7399V37.602H44.4127C44.963 37.0506 45.6508 36.637 46.201 36.2234L46.6137 35.9477L46.3386 36.3613C46.3386 36.3613 46.3386 36.3613 46.3386 36.4992L46.201 37.0506V36.4992C46.0635 35.672 46.0635 34.8449 46.201 34.0177V33.4663L46.3386 33.8799C46.3386 33.8799 46.3386 33.8799 46.3386 34.0177L46.6137 34.5692L46.0635 34.2935C45.3756 33.8799 44.8254 33.4663 44.1376 33.0527H44V32.9149C44.5503 31.6742 44.9629 30.4335 45.3756 29.3306V29.1928H45.5132C46.3386 29.3306 47.0264 29.4685 47.8518 29.4685C47.8518 29.4685 47.8518 29.4685 47.7142 29.4685L47.164 29.6063L47.4391 29.1928C47.9894 28.5035 48.5396 27.9521 49.0899 27.4006L49.5026 27.1249L49.365 27.6763C49.365 27.6763 49.365 27.6763 49.365 27.8142L49.2274 28.2278V27.8142C49.0899 26.9871 48.9523 26.2978 48.8147 25.6085V25.4706H48.9523C50.1904 24.9192 51.2909 24.3678 52.3914 23.9542H52.529C53.0792 24.5056 53.4919 25.1949 53.9046 25.7464L54.1798 26.1599L53.7671 26.0221V25.7464V25.8842L53.3544 25.7464L53.7671 25.6085C54.5924 25.4706 55.4178 25.4706 56.1057 25.6085H56.6559L56.2432 25.7464C56.2432 25.7464 56.2432 25.7464 56.1057 25.7464L55.693 25.8842L55.9681 25.4706C56.3808 24.7814 56.7935 24.2299 57.2062 23.5406H57.3437C58.5818 24.0921 59.8199 24.5056 60.9204 24.9192H61.058V25.0571C60.9204 25.8842 60.7828 26.7113 60.7828 27.4006V27.8142L60.6453 27.4006C60.6453 27.4006 60.6453 27.4006 60.6453 27.2628L60.5077 26.8492L60.9204 27.1249C61.6082 27.6763 62.1585 28.2278 62.7087 28.7792L62.9839 29.0549L62.5712 28.9171C62.5712 28.9171 62.5712 28.9171 62.4336 28.9171L62.0209 28.7792H62.4336C63.259 28.6413 63.9468 28.5035 64.6346 28.3656C65.1849 29.6063 65.7352 30.7092 66.1478 31.812L66.0103 32.0878C65.46 32.6392 64.7722 33.0527 64.2219 33.4663L63.9468 33.742L64.0844 33.3285C64.0844 33.3285 64.0844 33.3285 64.0844 33.1906L64.2219 32.777V33.1906C64.3595 34.0177 64.3595 34.8449 64.2219 35.5342V35.9477L64.0844 35.672L63.9468 35.3963L64.2219 35.5342C64.9098 35.9477 65.46 36.3613 66.1478 36.7749C65.5976 38.0156 65.1849 39.1184 64.7722 40.2213C63.9468 40.0834 63.259 39.9456 62.5712 39.8077H62.296L62.5712 39.6699L62.8463 39.532L62.7087 39.8077C62.1585 40.497 61.6082 41.0484 61.058 41.462L60.6453 42.0134V41.8756C60.7828 42.7027 60.9204 43.392 61.058 44.0813C59.6823 44.6327 58.5818 45.1841 57.6189 45.5977C57.2062 45.0463 56.931 44.4948 56.6559 44.2191C56.5183 44.0813 56.5183 43.9434 56.5183 43.8056Z" fill="#CA515B"/>
<path d="M53.2186 17.0611C52.6683 17.0611 52.1181 17.199 51.5678 17.0611L50.7424 18.3018L48.4038 17.3368L48.5414 15.8204C48.1287 15.5447 47.716 15.1311 47.4409 14.7176L45.9277 14.9933L44.9647 12.7876L46.0652 11.9604C46.0652 11.409 45.9277 10.8576 46.0652 10.3062L44.8271 9.47902L45.6525 7.13546L47.1657 7.27331C47.4409 6.85974 47.8536 6.44617 48.2663 6.17046L47.9911 4.65404L50.1922 3.68904L51.0175 4.65404C51.5678 4.65404 52.1181 4.51618 52.6683 4.65404L53.4937 3.41333L55.9699 4.51618L55.6947 6.0326C56.1074 6.30832 56.5201 6.72189 56.7952 7.13546L58.3084 6.85974L59.2714 9.06545L58.1709 9.89258C58.1709 10.444 58.3084 10.9954 58.1709 11.5469L59.409 12.374L58.5836 14.7176H57.2079C56.9328 15.1311 56.5201 15.5447 56.1074 15.8204L56.3825 17.3368L54.1815 18.4397L53.2186 17.0611ZM53.3561 13.4769C54.7318 12.9254 55.282 11.2711 54.7318 10.0304C54.1815 8.65188 52.5307 8.10045 51.2927 8.65188C49.917 9.2033 49.3668 10.8576 49.917 12.0983C50.4673 13.4769 51.9805 14.0283 53.3561 13.4769Z" fill="#DE051F"/>
<path d="M53.3519 13.4769C53.3519 13.4769 53.2144 13.6148 52.8017 13.6148C52.389 13.6148 51.7012 13.7527 51.1509 13.3391C50.8758 13.2012 50.4631 12.9255 50.1879 12.512C49.9128 12.0984 49.7753 11.6848 49.6377 11.1334C49.6377 10.8577 49.6377 10.582 49.6377 10.3062C49.6377 10.0305 49.7753 9.75482 49.9128 9.61697C50.1879 9.06554 50.6006 8.78983 51.1509 8.51411C51.7012 8.2384 52.2514 8.2384 52.8017 8.37626C53.0768 8.37626 53.3519 8.51411 53.4895 8.65197C53.7646 8.78983 53.9022 8.92768 54.0397 9.2034C54.4524 9.61696 54.59 10.0305 54.7276 10.4441C54.8651 10.8577 54.7276 11.2712 54.7276 11.6848C54.59 12.3741 54.1773 12.9255 53.7646 13.2012C53.4895 13.4769 53.3519 13.4769 53.3519 13.4769C53.3519 13.4769 53.4895 13.3391 53.9022 13.0634C54.1773 12.7877 54.59 12.3741 54.8651 11.547C54.8651 11.1334 55.0027 10.8577 54.8651 10.4441C54.7276 10.0305 54.59 9.61697 54.1773 9.34125C54.0397 9.2034 53.7646 9.06554 53.6271 8.92768C53.3519 8.78983 53.2144 8.65197 52.9392 8.65197C52.389 8.51411 51.8387 8.65197 51.2885 8.78983C50.7382 9.06554 50.3255 9.34125 50.1879 9.89268C50.0504 10.1684 49.9128 10.4441 49.9128 10.582C49.9128 10.8577 49.9128 11.1334 49.9128 11.2712C49.9128 11.8227 50.0504 12.2362 50.3255 12.512C50.6006 12.9255 50.8758 13.0634 51.1509 13.3391C51.7012 13.7527 52.389 13.7527 52.8017 13.6148C53.0768 13.6148 53.2144 13.4769 53.3519 13.4769Z" fill="#DE051F"/>
<path d="M53.2255 17.0625C53.3631 17.2003 53.3631 17.2003 53.5007 17.3382C53.6382 17.476 53.9134 17.8896 54.1885 18.1653C54.7387 17.8896 55.4266 17.6139 56.3895 17.2003C56.3895 16.7868 56.2519 16.2353 56.1144 15.6839C56.5271 15.4082 56.8022 14.9946 57.2149 14.581C57.6276 14.581 58.1778 14.7189 58.7281 14.7189C59.0032 14.0296 59.2784 13.2025 59.5535 12.3753C59.1408 12.0996 58.7281 11.8239 58.3154 11.5482C58.3154 10.9968 58.3154 10.4454 58.3154 9.89393C58.7281 9.61821 59.1408 9.3425 59.4159 9.06679C59.1408 8.37751 58.7281 7.55037 58.453 6.86109C58.0403 6.86109 57.49 6.99894 56.9398 7.1368C56.6646 6.72323 56.252 6.44752 55.8393 6.03395C55.8393 5.62038 55.9768 5.06895 55.9768 4.51753C55.4266 4.24181 54.6012 3.9661 53.7758 3.55253C53.5007 3.82824 53.2255 4.24181 52.9504 4.65538C52.4001 4.65538 51.8499 4.65538 51.2996 4.65538L51.1621 4.51753L50.8869 3.9661C50.7494 3.82824 50.6118 3.55253 50.4742 3.41467C49.7864 3.69039 48.961 4.10396 48.2732 4.37967C48.4108 4.93109 48.4108 5.34466 48.5484 5.89609C48.1357 6.1718 47.723 6.58537 47.4478 6.99894C46.8976 6.99894 46.4849 6.86109 45.9346 6.86109C45.6595 7.68822 45.3844 8.37751 45.1092 9.20465C45.5219 9.48036 45.9346 9.75607 46.3473 10.0318C46.3473 10.5832 46.3473 11.1346 46.3473 11.6861C45.9346 11.9618 45.5219 12.2375 45.2468 12.5132C45.6595 13.3403 45.9346 14.0296 46.2098 14.7189C46.76 14.581 47.1727 14.581 47.723 14.4432C48.1357 14.8568 48.4108 15.2703 48.8235 15.546C48.8235 16.0975 48.6859 16.511 48.5484 17.0625C49.3737 17.476 50.1991 17.6139 50.8869 17.8896C51.1621 17.3382 51.4372 17.0625 51.7123 16.6489C52.2626 16.6489 52.6753 16.6489 52.8128 16.6489C53.088 16.9246 53.2255 16.9246 53.2255 17.0625C53.088 17.0625 52.9504 17.0625 52.8128 17.0625C52.5377 17.0625 52.125 17.0625 51.5748 17.0625C51.2996 17.3382 51.0245 17.7517 50.7494 18.3032C50.1991 18.0275 49.3737 17.7517 48.5484 17.476C48.5484 17.0625 48.6859 16.511 48.6859 15.9596C48.2732 15.6839 47.8605 15.2703 47.5854 14.8568C47.1727 14.8568 46.6224 14.9946 46.0722 15.1325C45.7971 14.4432 45.5219 13.6161 45.1092 12.9268C45.5219 12.6511 45.9346 12.3753 46.2098 12.0996C46.2098 11.5482 46.0722 10.9968 46.2098 10.4454C45.7971 10.1696 45.3844 9.89393 44.9717 9.61822C45.2468 8.92893 45.5219 8.10179 45.7971 7.27465C46.3473 7.27465 46.76 7.41251 47.3103 7.41251C47.5854 6.99894 47.9981 6.58537 48.4108 6.30966C48.2732 5.75823 48.2732 5.34466 48.1357 4.79324C48.8235 4.51752 49.6489 4.10396 50.3367 3.82824C50.4743 3.9661 50.6118 4.24181 50.7494 4.37967L51.0245 4.65538H51.1621C51.7123 4.65538 52.2626 4.51752 52.8128 4.65538C53.088 4.24181 53.3631 3.82824 53.6382 3.41467C54.4636 3.69039 55.1514 3.9661 55.9768 4.24181C55.9768 4.79324 55.8393 5.20681 55.8393 5.75823C56.252 6.03395 56.6646 6.44752 56.9398 6.86109C57.49 6.72323 57.9027 6.72323 58.453 6.58537C58.8657 7.41251 59.1408 8.10179 59.4159 8.79108C59.0032 9.06679 58.5905 9.3425 58.3154 9.61822C58.3154 10.1696 58.453 10.7211 58.3154 11.2725C58.7281 11.5482 59.1408 11.8239 59.5535 12.0996C59.2784 12.9268 59.0032 13.6161 58.7281 14.4432C58.1778 14.4432 57.7652 14.3053 57.2149 14.1675C56.9398 14.581 56.5271 14.9946 56.1144 15.2703C56.2519 15.8218 56.2519 16.2353 56.3895 16.7868C55.4266 17.2003 54.7387 17.476 54.1885 17.7517C53.9134 17.3382 53.6382 17.0625 53.6382 16.9246C53.6382 16.7868 53.5007 16.7868 53.5007 16.6489C53.3631 17.0625 53.2255 17.0625 53.2255 17.0625Z" fill="#DE051F"/>
<path d="M80.864 28.5034C79.7634 28.6413 78.8005 28.6413 77.8376 28.5034L76.1868 30.847L71.7847 29.1927L72.1974 26.2977C71.372 25.7463 70.5466 25.057 69.9964 24.092L67.1075 24.6435L65.1816 20.3699L67.5202 18.7156C67.3827 17.6128 67.3827 16.6478 67.5202 15.6828L65.1816 14.0285L66.8324 9.61711L69.7213 10.0307C70.2715 9.20354 70.9593 8.3764 71.9223 7.82498L71.372 4.92999L75.6365 3L77.2873 5.34356C78.3878 5.2057 79.3508 5.2057 80.3137 5.34356L81.9645 3L86.3665 4.65428L85.9538 7.54926C86.7792 8.10069 87.6046 8.78997 88.1549 9.75497L91.0437 9.20354L92.9696 13.4771L90.631 15.1314C90.7686 16.2342 90.7686 17.1992 90.631 18.1642L92.9696 19.8185L91.3188 24.2299L88.43 23.8163C87.8797 24.6435 87.1919 25.4706 86.229 26.022L86.7792 28.917L82.5147 30.847L80.864 28.5034ZM80.864 21.6106C83.4777 20.5078 84.5782 17.4749 83.4777 14.8557C82.3772 12.2364 79.3508 11.1335 76.737 12.2364C74.1233 13.3392 73.0228 16.3721 74.1233 18.9914C75.3614 21.6106 78.3878 22.8513 80.864 21.6106Z" stroke="#2440AB" stroke-miterlimit="10"/>
<path d="M157.375 37.8134C157.375 37.8134 157.512 37.8134 157.786 37.8134C158.061 37.8134 158.473 37.8134 158.884 37.8134C159.845 37.9484 161.354 38.2184 163.138 39.2982C163.961 39.8382 164.922 40.5131 165.745 41.3229C166.568 42.2678 167.392 43.3476 167.941 44.6974C168.49 46.0473 168.764 47.532 168.764 49.1518C168.764 50.7716 168.764 52.5263 168.764 54.416C168.764 69.3989 168.764 90.9957 168.764 117.587C168.764 144.313 168.764 176.168 168.764 211.398C168.764 215.853 168.764 220.307 168.764 224.761C168.764 225.841 168.764 227.056 168.764 228.136C168.764 229.216 168.764 230.431 168.352 231.51C168.078 232.59 167.529 233.67 166.843 234.615C166.157 235.56 165.334 236.37 164.51 237.18C162.726 238.664 160.394 239.609 157.924 239.744C155.591 239.744 153.258 239.744 150.788 239.744C145.986 239.744 141.183 239.744 136.38 239.744C126.638 239.744 116.758 239.744 106.741 239.744C101.664 239.744 96.7243 239.744 91.51 239.744C88.9028 239.744 86.4329 239.744 83.8257 239.744C81.2186 239.879 78.6114 239.204 76.416 237.72C74.2205 236.235 72.7111 234.075 71.8877 231.645C71.4761 230.431 71.3389 229.081 71.3389 227.866C71.3389 226.651 71.3389 225.301 71.3389 224.086C71.3389 219.092 71.3389 214.098 71.3389 208.969C71.3389 199.115 71.3389 189.262 71.3389 179.678C71.3389 160.511 71.3389 141.883 71.3389 124.336C71.3389 106.653 71.3389 89.9159 71.3389 74.1232C71.3389 66.2943 71.3389 58.6004 71.3389 51.4465C71.3389 50.5016 71.3389 49.6917 71.3389 48.7469C71.3389 48.3419 71.3389 47.802 71.3389 47.3971C71.3389 46.9921 71.4761 46.4522 71.6133 46.0473C72.025 44.2925 72.8483 42.6727 73.946 41.3229C75.0438 39.9731 76.5532 38.8933 78.1998 38.2184C79.8464 37.5435 81.6303 37.2735 83.2769 37.2735C86.7073 37.2735 90.0006 37.2735 93.1566 37.2735C94.8032 37.2735 96.3126 37.2735 97.9592 37.2735C98.7826 37.2735 99.4686 37.2735 100.292 37.2735C101.115 37.2735 101.939 37.4085 102.487 37.8134C103.036 38.2184 103.585 38.8933 103.86 39.5682C104.134 40.2431 104.134 41.053 104.134 41.8629C104.134 42.2678 104.134 42.5378 104.134 42.9427C104.134 43.3476 104.134 43.6176 104.134 44.0225C104.134 44.6974 104.546 45.3723 104.957 45.9123C105.369 46.4522 106.055 46.8571 106.604 46.9921C106.878 46.9921 107.29 47.1271 107.702 47.1271C108.113 47.1271 108.388 47.1271 108.8 47.1271C110.172 47.1271 111.544 47.1271 112.916 47.1271C118.268 47.1271 123.207 47.1271 127.873 47.1271C130.206 47.1271 132.401 47.1271 134.459 47.1271C135.008 47.1271 135.557 47.1271 135.969 47.1271C136.518 47.1271 136.929 46.8571 137.341 46.5872C138.164 46.0472 138.713 45.2374 138.988 44.2925C139.125 43.8876 138.988 43.3476 138.988 42.9427C138.988 42.5378 138.988 41.9978 138.988 41.5929C138.988 41.188 138.988 40.783 138.988 40.2431C138.988 39.8381 139.262 39.4332 139.399 39.0283C139.811 38.3534 140.497 37.8134 141.183 37.4085C141.869 37.0036 142.692 37.1385 143.516 37.1385C146.397 37.1385 148.867 37.1385 150.926 37.1385C152.984 37.1385 154.356 37.1385 155.454 37.1385C156.826 37.8134 157.375 37.8134 157.375 37.8134ZM157.375 37.8134C157.375 37.8134 156.826 37.8134 155.865 37.8134C154.768 37.8134 153.395 37.8134 151.337 37.8134C149.416 37.8134 146.809 37.8134 143.927 37.8134C143.241 37.8134 142.418 37.8134 141.732 38.0834C141.046 38.3534 140.36 38.8933 139.948 39.5682C139.811 39.9731 139.536 40.2431 139.536 40.648C139.536 41.053 139.536 41.4579 139.536 41.8629C139.536 42.2678 139.536 42.8077 139.536 43.2127C139.536 43.6176 139.536 44.1575 139.536 44.5625C139.399 45.5073 138.713 46.3172 137.89 46.8571C137.478 47.1271 136.929 47.2621 136.38 47.3971C135.832 47.3971 135.283 47.3971 134.871 47.3971C132.813 47.3971 130.617 47.3971 128.285 47.3971C123.756 47.3971 118.679 47.3971 113.328 47.3971C111.956 47.3971 110.583 47.3971 109.211 47.3971C108.799 47.3971 108.525 47.3971 108.113 47.3971C107.702 47.3971 107.427 47.3971 107.016 47.2621C106.33 47.1271 105.643 46.7222 105.232 46.1822C104.683 45.6423 104.409 44.9674 104.271 44.1575C104.271 43.7526 104.271 43.4826 104.271 43.0777C104.271 42.6727 104.271 42.4028 104.271 41.9978C104.271 41.3229 104.271 40.5131 103.997 39.8382C103.722 39.1632 103.311 38.6233 102.762 38.2184C102.213 37.8134 101.39 37.6785 100.566 37.6785C99.7431 37.6785 99.057 37.6785 98.2337 37.6785C96.5871 37.6785 95.0777 37.6785 93.431 37.6785C90.275 37.6785 86.9818 37.6785 83.5513 37.6785C81.9047 37.6785 80.1208 37.9484 78.6114 38.6233C76.9648 39.2982 75.5926 40.3781 74.4949 41.5929C73.3971 42.9427 72.5738 44.4275 72.1622 46.1822C72.025 46.5872 72.025 46.9921 71.8877 47.532C71.8877 47.937 71.8877 48.4769 71.8877 48.8818C71.8877 49.8267 71.8877 50.6366 71.8877 51.5814C71.8877 58.8704 71.8877 66.5643 71.8877 74.2582C71.8877 90.0509 71.8877 106.788 71.8877 124.471C71.8877 142.153 71.8877 160.646 71.8877 179.813C71.8877 189.397 71.8877 199.25 71.8877 209.104C71.8877 214.098 71.8877 219.092 71.8877 224.221C71.8877 225.436 71.8877 226.786 71.8877 228.001C71.8877 229.216 71.8877 230.431 72.4366 231.645C73.1227 233.94 74.7693 236.1 76.8276 237.585C78.8859 239.069 81.493 239.609 84.1002 239.474C86.7073 239.474 89.1773 239.474 91.7844 239.474C96.8615 239.474 101.939 239.474 107.016 239.474C117.033 239.474 126.912 239.474 136.655 239.474C141.457 239.474 146.397 239.474 151.063 239.474C153.395 239.474 155.865 239.474 158.198 239.474C160.531 239.339 162.726 238.394 164.51 237.045C165.334 236.37 166.157 235.425 166.843 234.48C167.392 233.535 167.941 232.455 168.215 231.375C168.627 230.296 168.627 229.081 168.627 228.001C168.627 226.921 168.627 225.706 168.627 224.626C168.627 220.172 168.627 215.718 168.627 211.263C168.627 176.033 168.627 144.178 168.627 117.452C168.627 90.7258 168.627 69.1289 168.627 54.2811C168.627 52.3913 168.627 50.6366 168.627 49.0168C168.627 47.3971 168.352 45.7773 167.803 44.5625C167.255 43.2127 166.568 42.1328 165.608 41.188C164.785 40.2431 163.961 39.5682 163.001 39.1632C161.354 38.0834 159.708 37.8134 158.747 37.6785C158.198 37.5435 157.786 37.6785 157.649 37.5435C157.512 37.8134 157.375 37.8134 157.375 37.8134Z" stroke="#0064B7" stroke-width="2" stroke-miterlimit="10"/>
<path d="M157.495 94.8129C157.495 94.8129 158.458 94.6751 159.696 94.6751C159.421 94.9508 159.696 94.6751 159.559 94.8129V94.6751V94.5372C159.559 94.3994 159.559 94.2615 159.559 94.1236C159.559 93.8479 159.559 93.5722 159.559 93.4344C159.559 93.0208 159.559 92.8829 159.696 92.8829C159.696 92.8829 159.696 93.1586 159.834 93.4344C159.834 93.5722 159.834 93.8479 159.834 94.1236C159.834 94.2615 159.834 94.3994 159.834 94.5372V94.6751V94.8129C159.834 94.8129 159.971 94.6751 159.696 94.9508C158.458 95.0886 157.495 94.9508 157.495 94.8129Z" fill="#729DCE"/>
<path d="M149.242 94.8128C149.242 94.8128 150.205 94.675 151.306 94.675C152.406 94.675 153.369 94.675 153.369 94.8128C153.369 94.9507 152.406 94.9507 151.306 94.9507C150.068 95.0886 149.242 94.9507 149.242 94.8128Z" fill="#729DCE"/>
<path d="M140.847 94.8128C140.847 94.8128 141.81 94.675 142.91 94.675C144.011 94.675 144.974 94.675 144.974 94.8128C144.974 94.9507 144.011 94.9507 142.91 94.9507C141.81 95.0886 140.847 94.9507 140.847 94.8128Z" fill="#729DCE"/>
<path d="M132.595 94.8128C132.595 94.8128 133.558 94.675 134.658 94.675C135.759 94.675 136.722 94.675 136.722 94.8128C136.722 94.9507 135.759 94.9507 134.658 94.9507C133.558 95.0886 132.595 94.9507 132.595 94.8128Z" fill="#729DCE"/>
<path d="M124.333 94.8128C124.333 94.8128 125.296 94.675 126.396 94.675C127.497 94.675 128.46 94.675 128.46 94.8128C128.46 94.9507 127.497 94.9507 126.396 94.9507C125.296 95.0886 124.333 94.9507 124.333 94.8128Z" fill="#729DCE"/>
<path d="M116.088 94.8128C116.088 94.8128 117.051 94.675 118.151 94.675C119.252 94.675 120.215 94.675 120.215 94.8128C120.215 94.9507 119.252 94.9507 118.151 94.9507C116.913 95.0886 116.088 94.9507 116.088 94.8128Z" fill="#729DCE"/>
<path d="M107.693 94.8128C107.693 94.8128 108.656 94.675 109.757 94.675C110.857 94.675 111.82 94.675 111.82 94.8128C111.82 94.9507 110.857 94.9507 109.757 94.9507C108.656 95.0886 107.693 94.9507 107.693 94.8128Z" fill="#729DCE"/>
<path d="M99.4395 94.8128C99.4395 94.8128 100.402 94.675 101.503 94.675C102.603 94.675 103.566 94.675 103.566 94.8128C103.566 94.9507 102.603 94.9507 101.503 94.9507C100.402 95.0886 99.4395 94.9507 99.4395 94.8128Z" fill="#729DCE"/>
<path d="M91.1865 94.8128C91.1865 94.8128 92.1495 94.675 93.25 94.675C94.3505 94.675 95.3135 94.675 95.3135 94.8128C95.3135 94.9507 94.3505 94.9507 93.25 94.9507C92.1495 95.0886 91.1865 94.9507 91.1865 94.8128Z" fill="#729DCE"/>
<path d="M84.8592 92.7449C84.8592 92.7449 84.9968 93.7099 84.9968 94.9506C84.7217 94.6749 84.9968 94.9506 84.8592 94.8127H84.9968H85.1344C85.2719 94.8127 85.4095 94.8127 85.5471 94.8127C85.8222 94.8127 86.0973 94.8127 86.2349 94.8127C86.6476 94.8127 86.7851 94.8127 86.7851 94.9506C86.7851 94.9506 86.51 94.9506 86.2349 95.0884C86.0973 95.0884 85.8222 95.0884 85.5471 95.0884C85.4095 95.0884 85.2719 95.0884 85.1344 95.0884H84.9968H84.8592C84.8592 95.0884 84.9968 95.2263 84.7217 94.9506C84.7217 93.7099 84.7217 92.7449 84.8592 92.7449Z" fill="#729DCE"/>
<path d="M84.8592 84.1979C84.8592 84.1979 84.9968 85.1629 84.9968 86.2658C84.9968 87.3686 84.9968 88.3336 84.8592 88.3336C84.7217 88.3336 84.7217 87.3686 84.7217 86.2658C84.7217 85.0251 84.7217 84.1979 84.8592 84.1979Z" fill="#729DCE"/>
<path d="M84.8592 75.6506C84.8592 75.6506 84.9968 76.6156 84.9968 77.7184C84.9968 78.8213 84.9968 79.7863 84.8592 79.7863C84.7217 79.7863 84.7217 78.8213 84.7217 77.7184C84.7217 76.6156 84.7217 75.6506 84.8592 75.6506Z" fill="#729DCE"/>
<path d="M86.9247 69.3092C86.9247 69.3092 85.9618 69.4471 84.7237 69.4471C84.9988 69.1714 84.7237 69.4471 84.8613 69.3092V69.4471V69.585C84.8613 69.7228 84.8613 69.8607 84.8613 69.9985C84.8613 70.2742 84.8613 70.5499 84.8613 70.6878C84.8613 71.1014 84.8613 71.2392 84.7237 71.2392C84.7237 71.2392 84.7237 70.9635 84.5861 70.6878C84.5861 70.5499 84.5861 70.2742 84.5861 69.9985C84.5861 69.8607 84.5861 69.7228 84.5861 69.585V69.4471V69.3092C84.5861 69.3092 84.4486 69.4471 84.7237 69.1714C86.0994 69.1714 86.9247 69.1714 86.9247 69.3092Z" fill="#729DCE"/>
<path d="M95.3135 69.3094C95.3135 69.3094 94.3505 69.4472 93.25 69.4472C92.1495 69.4472 91.1865 69.4472 91.1865 69.3094C91.1865 69.3094 92.1495 69.1715 93.25 69.1715C94.3505 69.1715 95.3135 69.1715 95.3135 69.3094Z" fill="#729DCE"/>
<path d="M103.566 69.3094C103.566 69.3094 102.603 69.4472 101.503 69.4472C100.402 69.4472 99.4395 69.4472 99.4395 69.3094C99.4395 69.3094 100.402 69.1715 101.503 69.1715C102.603 69.1715 103.566 69.1715 103.566 69.3094Z" fill="#729DCE"/>
<path d="M111.962 69.3094C111.962 69.3094 110.999 69.4473 109.898 69.4473C108.798 69.4473 107.835 69.4473 107.835 69.3094C107.835 69.3094 108.798 69.1716 109.898 69.1716C110.999 69.1716 111.962 69.1716 111.962 69.3094Z" fill="#729DCE"/>
<path d="M120.215 69.3094C120.215 69.3094 119.252 69.4473 118.151 69.4473C117.051 69.4473 116.088 69.4473 116.088 69.3094C116.088 69.3094 117.051 69.1716 118.151 69.1716C119.252 69.1716 120.215 69.1716 120.215 69.3094Z" fill="#729DCE"/>
<path d="M128.46 69.3093C128.46 69.3093 127.497 69.4472 126.396 69.4472C125.296 69.4472 124.333 69.4472 124.333 69.3093C124.333 69.3093 125.296 69.1714 126.396 69.1714C127.497 69.1714 128.46 69.1714 128.46 69.3093Z" fill="#729DCE"/>
<path d="M136.722 69.3093C136.722 69.3093 135.759 69.4472 134.658 69.4472C133.558 69.4472 132.595 69.4472 132.595 69.3093C132.595 69.3093 133.558 69.1714 134.658 69.1714C135.896 69.1714 136.722 69.1714 136.722 69.3093Z" fill="#729DCE"/>
<path d="M145.115 69.3093C145.115 69.3093 144.152 69.4472 143.052 69.4472C141.951 69.4472 140.988 69.4472 140.988 69.3093C140.988 69.3093 141.951 69.1714 143.052 69.1714C144.152 69.1714 145.115 69.1714 145.115 69.3093Z" fill="#729DCE"/>
<path d="M153.369 69.3094C153.369 69.3094 152.406 69.4472 151.306 69.4472C150.205 69.4472 149.242 69.4472 149.242 69.3094C149.242 69.3094 150.205 69.1715 151.306 69.1715C152.406 69.1715 153.369 69.1715 153.369 69.3094Z" fill="#729DCE"/>
<path d="M159.555 71.515C159.555 71.515 159.417 70.55 159.417 69.3093C159.692 69.585 159.417 69.3093 159.555 69.4471H159.417H159.28C159.142 69.4471 159.005 69.4471 158.867 69.4471C158.592 69.4471 158.317 69.4471 158.179 69.4471C157.766 69.4471 157.629 69.4471 157.629 69.3093C157.629 69.3093 157.904 69.3093 158.179 69.1714C158.317 69.1714 158.592 69.1714 158.867 69.1714C159.005 69.1714 159.142 69.1714 159.28 69.1714H159.417H159.555C159.555 69.1714 159.417 69.0336 159.692 69.3093C159.83 70.55 159.692 71.515 159.555 71.515Z" fill="#729DCE"/>
<path d="M159.553 79.9245C159.553 79.9245 159.415 78.9595 159.415 77.8566C159.415 76.7538 159.415 75.7888 159.553 75.7888C159.553 75.7888 159.69 76.7538 159.69 77.8566C159.828 78.9595 159.69 79.9245 159.553 79.9245Z" fill="#729DCE"/>
<path d="M159.553 88.3336C159.553 88.3336 159.415 87.3686 159.415 86.2658C159.415 85.1629 159.415 84.1979 159.553 84.1979C159.553 84.1979 159.69 85.1629 159.69 86.2658C159.828 87.3686 159.69 88.3336 159.553 88.3336Z" fill="#729DCE"/>
<path d="M85.5418 68.6197H84.3037V69.8604H85.5418V68.6197Z" fill="#729DCE"/>
<path d="M85.408 94.1232H84.1699V95.3639H85.408V94.1232Z" fill="#729DCE"/>
<path d="M122.822 94.1232H121.584V95.3639H122.822V94.1232Z" fill="#729DCE"/>
<path d="M122.822 68.344H121.584V69.5847H122.822V68.344Z" fill="#729DCE"/>
<path d="M159.563 56.4875C159.563 56.4875 157.638 56.6254 155.436 56.6254C153.098 56.6254 151.31 56.6254 151.31 56.6254C151.31 56.6254 153.235 56.4875 155.436 56.4875C157.775 56.4875 159.563 56.4875 159.563 56.4875Z" fill="#263238"/>
<path d="M159.563 58.6937C159.563 58.6937 157.638 58.8316 155.436 58.8316C153.098 58.8316 151.31 58.8316 151.31 58.8316C151.31 58.8316 153.235 58.6937 155.436 58.6937C157.775 58.6937 159.563 58.6937 159.563 58.6937Z" fill="#263238"/>
<path d="M159.563 60.8996C159.563 60.8996 157.638 61.0375 155.436 61.0375C153.098 61.0375 151.31 61.0375 151.31 61.0375C151.31 61.0375 153.235 60.8996 155.436 60.8996C157.775 60.7617 159.563 60.7617 159.563 60.8996Z" fill="#263238"/>
<path d="M133.969 132.309C133.969 132.309 128.191 132.447 121.037 132.447C113.884 132.447 108.106 132.447 108.106 132.309C108.106 132.309 113.884 132.171 121.037 132.171C128.191 132.171 133.969 132.171 133.969 132.309Z" fill="#E0E6F4"/>
<path d="M154.603 137.686C154.603 137.686 144.148 137.824 131.355 137.824C118.424 137.824 108.106 137.824 108.106 137.686C108.106 137.686 118.561 137.548 131.355 137.548C144.148 137.548 154.603 137.548 154.603 137.686Z" fill="#E0E6F4"/>
<path d="M154.053 141.408C154.053 141.408 143.736 141.546 131.08 141.546C118.424 141.546 108.106 141.546 108.106 141.408C108.106 141.408 118.424 141.27 131.08 141.27C143.736 141.27 154.053 141.408 154.053 141.408Z" fill="#E0E6F4"/>
<path d="M135.208 145.268C135.208 145.268 129.156 145.406 121.59 145.406C114.024 145.406 107.971 145.406 107.971 145.268C107.971 145.268 114.024 145.13 121.59 145.13C129.156 145.13 135.208 145.13 135.208 145.268Z" fill="#E0E6F4"/>
<path d="M133.969 190.623C133.969 190.623 128.191 190.761 121.037 190.761C113.884 190.761 108.106 190.76 108.106 190.623C108.106 190.485 113.884 190.485 121.037 190.485C128.191 190.347 133.969 190.485 133.969 190.623Z" fill="#E0E6F4"/>
<path d="M154.603 195.861C154.603 195.861 144.148 195.999 131.355 195.999C118.424 195.999 108.106 195.999 108.106 195.861C108.106 195.724 118.561 195.724 131.355 195.724C144.148 195.724 154.603 195.861 154.603 195.861Z" fill="#E0E6F4"/>
<path d="M154.053 199.859C154.053 199.859 143.736 199.997 131.08 199.997C118.424 199.997 108.106 199.997 108.106 199.859C108.106 199.859 118.424 199.721 131.08 199.721C143.736 199.721 154.053 199.721 154.053 199.859Z" fill="#E0E6F4"/>
<path d="M135.208 203.443C135.208 203.443 129.156 203.581 121.59 203.581C114.024 203.581 107.971 203.581 107.971 203.443C107.971 203.306 114.024 203.306 121.59 203.306C129.156 203.306 135.208 203.443 135.208 203.443Z" fill="#E0E6F4"/>
<path d="M133.968 105.979C133.968 105.979 128.19 106.117 121.037 106.117C113.883 106.117 108.105 106.117 108.105 105.979C108.105 105.979 113.883 105.841 121.037 105.841C128.19 105.841 133.968 105.841 133.968 105.979Z" fill="#E0E6F4"/>
<path d="M154.733 111.217C154.733 111.217 144.278 111.355 131.485 111.355C118.554 111.355 108.236 111.355 108.236 111.217C108.236 111.217 118.691 111.079 131.485 111.079C144.278 111.079 154.733 111.217 154.733 111.217Z" fill="#E0E6F4"/>
<path d="M154.183 115.078C154.183 115.078 143.865 115.215 131.21 115.215C118.554 115.215 108.236 115.215 108.236 115.078C108.236 114.94 118.554 114.94 131.21 114.94C143.865 114.94 154.183 115.078 154.183 115.078Z" fill="#E0E6F4"/>
<path d="M135.343 118.799C135.343 118.799 129.29 118.937 121.724 118.937C114.296 118.937 108.105 118.937 108.105 118.799C108.105 118.662 114.158 118.662 121.724 118.662C129.29 118.662 135.343 118.799 135.343 118.799Z" fill="#E0E6F4"/>
<path d="M96.9746 119.903C96.9746 119.903 97.9376 119.765 99.1756 119.765C100.276 119.765 101.377 119.765 101.377 119.903C101.377 119.903 100.414 120.04 99.1756 120.04C97.9376 120.178 96.9746 120.04 96.9746 119.903Z" fill="#CA515B"/>
<path d="M88.3037 119.903C88.3037 119.903 89.2667 119.765 90.5047 119.765C91.7428 119.765 92.7058 119.765 92.7058 119.903C92.7058 119.903 91.7428 120.04 90.5047 120.04C89.2667 120.178 88.3037 120.04 88.3037 119.903Z" fill="#CA515B"/>
<path d="M86.7942 112.872C86.7942 112.872 86.9317 113.837 86.9317 115.078C86.9317 116.318 86.9317 117.283 86.7942 117.283C86.7942 117.283 86.6566 116.318 86.6566 115.078C86.519 113.837 86.6566 112.872 86.7942 112.872Z" fill="#CA515B"/>
<path d="M87.8914 105.29C87.8914 105.29 87.4787 105.428 86.7909 105.428L86.9284 105.29C86.9284 105.565 86.9284 105.979 86.9284 106.393C86.9284 107.495 86.9285 108.598 86.7909 108.598C86.7909 108.598 86.6533 107.633 86.6533 106.393C86.6533 105.979 86.6533 105.703 86.6533 105.29V105.152H86.7909C87.4787 105.29 87.8914 105.29 87.8914 105.29Z" fill="#CA515B"/>
<path d="M96.4235 105.29C96.4235 105.29 95.4606 105.428 94.2225 105.428C93.122 105.428 92.0215 105.428 92.0215 105.29C92.0215 105.29 92.9844 105.152 94.2225 105.152C95.4606 105.152 96.4235 105.29 96.4235 105.29Z" fill="#CA515B"/>
<path d="M101.235 109.15C101.235 109.15 101.097 108.185 101.097 106.944C101.097 106.255 101.097 105.703 101.097 105.29L101.235 105.428C100.96 105.428 100.685 105.428 100.685 105.29C100.685 105.29 100.822 105.29 101.235 105.152V105.29C101.235 105.703 101.235 106.255 101.235 106.944C101.372 108.185 101.235 109.15 101.235 109.15Z" fill="#CA515B"/>
<path d="M101.239 117.973C101.239 117.973 101.102 117.008 101.102 115.767C101.102 114.526 101.102 113.561 101.239 113.561C101.377 113.561 101.377 114.526 101.377 115.767C101.377 117.008 101.239 117.973 101.239 117.973Z" fill="#CA515B"/>
<path d="M101.917 119.351H100.267V121.005H101.917V119.351Z" fill="#CA515B"/>
<path d="M101.917 104.187H100.267V105.841H101.917V104.187Z" fill="#CA515B"/>
<path d="M87.6088 119.351H85.958V121.005H87.6088V119.351Z" fill="#CA515B"/>
<path d="M87.6088 104.462H85.958V106.117H87.6088V104.462Z" fill="#CA515B"/>
<path d="M96.9746 146.922C96.9746 146.922 97.9376 146.784 99.1756 146.784C100.276 146.784 101.377 146.784 101.377 146.922C101.377 146.922 100.414 147.06 99.1756 147.06C97.9376 147.06 96.9746 146.922 96.9746 146.922Z" fill="#DFDFDF"/>
<path d="M88.3037 146.922C88.3037 146.922 89.2667 146.784 90.5047 146.784C91.7428 146.784 92.7058 146.784 92.7058 146.922C92.7058 146.922 91.7428 147.06 90.5047 147.06C89.2667 147.06 88.3037 146.922 88.3037 146.922Z" fill="#DFDFDF"/>
<path d="M86.7942 139.616C86.7942 139.616 86.9317 140.581 86.9317 141.821C86.9317 143.062 86.9317 144.027 86.7942 144.027C86.7942 144.027 86.6566 143.062 86.6566 141.821C86.519 140.581 86.6566 139.616 86.7942 139.616Z" fill="#DFDFDF"/>
<path d="M87.8914 132.172C87.8914 132.172 87.4787 132.309 86.7909 132.309L86.9284 132.172C86.9284 132.447 86.9284 132.861 86.9284 133.274C86.9284 134.377 86.9285 135.48 86.7909 135.48C86.7909 135.48 86.6533 134.515 86.6533 133.274C86.6533 132.861 86.6533 132.585 86.6533 132.172V132.034H86.7909C87.4787 132.034 87.8914 132.172 87.8914 132.172Z" fill="#DFDFDF"/>
<path d="M96.4235 132.171C96.4235 132.171 95.4606 132.309 94.2225 132.309C93.122 132.309 92.0215 132.309 92.0215 132.171C92.0215 132.171 92.9844 132.034 94.2225 132.034C95.4606 132.034 96.4235 132.034 96.4235 132.171Z" fill="#DFDFDF"/>
<path d="M101.235 136.031C101.235 136.031 101.097 135.066 101.097 133.826C101.097 133.136 101.097 132.585 101.097 132.171L101.235 132.309C100.96 132.309 100.685 132.309 100.685 132.171C100.685 132.171 100.822 132.171 101.235 132.034V132.171C101.235 132.585 101.235 133.136 101.235 133.826C101.372 135.066 101.235 136.031 101.235 136.031Z" fill="#DFDFDF"/>
<path d="M101.239 144.716C101.239 144.716 101.102 143.751 101.102 142.51C101.102 141.27 101.102 140.305 101.239 140.305C101.377 140.305 101.377 141.27 101.377 142.51C101.377 143.613 101.239 144.716 101.239 144.716Z" fill="#DFDFDF"/>
<path d="M101.917 146.095H100.267V147.749H101.917V146.095Z" fill="#DFDFDF"/>
<path d="M101.917 130.931H100.267V132.585H101.917V130.931Z" fill="#DFDFDF"/>
<path d="M87.6088 146.095H85.958V147.749H87.6088V146.095Z" fill="#DFDFDF"/>
<path d="M87.6088 131.482H85.958V133.136H87.6088V131.482Z" fill="#DFDFDF"/>
<path d="M96.9678 175.321C96.9678 175.321 97.9307 175.183 99.1688 175.183C100.269 175.183 101.37 175.183 101.37 175.321C101.37 175.321 100.407 175.459 99.1688 175.459C97.9307 175.459 96.9678 175.321 96.9678 175.321Z" fill="#CA515B"/>
<path d="M88.4404 175.321C88.4404 175.321 89.4034 175.183 90.6415 175.183C91.8795 175.183 92.8425 175.183 92.8425 175.321C92.8425 175.321 91.8795 175.459 90.6415 175.459C89.4034 175.459 88.4404 175.321 88.4404 175.321Z" fill="#CA515B"/>
<path d="M86.7821 168.152C86.7821 168.152 86.9197 169.117 86.9197 170.358C86.9197 171.599 86.9197 172.564 86.7821 172.564C86.7821 172.564 86.6445 171.599 86.6445 170.358C86.6445 169.117 86.7821 168.152 86.7821 168.152Z" fill="#CA515B"/>
<path d="M88.0164 160.708C88.0164 160.708 87.6037 160.845 86.9159 160.845L87.0534 160.708C87.0534 160.983 87.0534 161.397 87.0534 161.81C87.0534 162.913 87.0534 164.016 86.9159 164.016C86.9159 164.016 86.7783 163.051 86.7783 161.81C86.7783 161.397 86.7783 161.121 86.7783 160.708V160.57H86.9159C87.4661 160.57 88.0164 160.57 88.0164 160.708Z" fill="#CA515B"/>
<path d="M96.5505 160.708C96.5505 160.708 95.5875 160.846 94.3495 160.846C93.249 160.846 92.1484 160.846 92.1484 160.708C92.1484 160.708 93.1114 160.57 94.3495 160.57C95.5875 160.432 96.5505 160.57 96.5505 160.708Z" fill="#CA515B"/>
<path d="M101.228 164.43C101.228 164.43 101.09 163.465 101.09 162.224C101.09 161.535 101.09 160.983 101.09 160.57L101.228 160.708C100.953 160.708 100.678 160.708 100.678 160.57C100.678 160.57 100.815 160.57 101.228 160.432V160.57C101.228 160.983 101.228 161.535 101.228 162.224C101.503 163.465 101.366 164.43 101.228 164.43Z" fill="#CA515B"/>
<path d="M101.232 173.253C101.232 173.253 101.095 172.288 101.095 171.047C101.095 169.806 101.095 168.841 101.232 168.841C101.232 168.841 101.37 169.806 101.37 171.047C101.507 172.288 101.37 173.253 101.232 173.253Z" fill="#CA515B"/>
<path d="M102.052 174.631H100.401V176.286H102.052V174.631Z" fill="#CA515B"/>
<path d="M102.052 159.467H100.401V161.121H102.052V159.467Z" fill="#CA515B"/>
<path d="M87.6088 174.631H85.958V176.286H87.6088V174.631Z" fill="#CA515B"/>
<path d="M87.6088 159.881H85.958V161.535H87.6088V159.881Z" fill="#CA515B"/>
<path d="M96.9746 203.581C96.9746 203.581 97.9376 203.444 99.1756 203.444C100.276 203.444 101.377 203.444 101.377 203.581C101.377 203.719 100.414 203.719 99.1756 203.719C97.9376 203.857 96.9746 203.719 96.9746 203.581Z" fill="#DFDFDF"/>
<path d="M88.3037 203.581C88.3037 203.581 89.2667 203.443 90.5047 203.443C91.7428 203.443 92.7058 203.443 92.7058 203.581C92.7058 203.719 91.7428 203.719 90.5047 203.719C89.2667 203.857 88.3037 203.719 88.3037 203.581Z" fill="#DFDFDF"/>
<path d="M86.7942 196.413C86.7942 196.413 86.9317 197.378 86.9317 198.618C86.9317 199.859 86.9317 200.824 86.7942 200.824C86.7942 200.824 86.6566 199.859 86.6566 198.618C86.519 197.515 86.6566 196.413 86.7942 196.413Z" fill="#DFDFDF"/>
<path d="M87.8914 188.968C87.8914 188.968 87.4787 189.106 86.7909 189.106L86.9284 188.968C86.9284 189.244 86.9284 189.658 86.9284 190.071C86.9284 191.174 86.9285 192.277 86.7909 192.277C86.7909 192.277 86.6533 191.312 86.6533 190.071C86.6533 189.658 86.6533 189.382 86.6533 188.968V188.831H86.7909C87.4787 188.831 87.8914 188.968 87.8914 188.968Z" fill="#DFDFDF"/>
<path d="M96.4235 188.968C96.4235 188.968 95.4606 189.106 94.2225 189.106C93.122 189.106 92.0215 189.106 92.0215 188.968C92.0215 188.831 92.9844 188.831 94.2225 188.831C95.4606 188.831 96.4235 188.968 96.4235 188.968Z" fill="#DFDFDF"/>
<path d="M101.235 192.828C101.235 192.828 101.097 191.863 101.097 190.623C101.097 189.933 101.097 189.382 101.097 188.968L101.235 189.106C100.96 189.106 100.685 189.106 100.685 188.968C100.685 188.831 100.822 188.968 101.235 188.831V188.968C101.235 189.382 101.235 189.933 101.235 190.623C101.372 191.863 101.235 192.828 101.235 192.828Z" fill="#DFDFDF"/>
<path d="M101.239 201.651C101.239 201.651 101.102 200.686 101.102 199.446C101.102 198.205 101.102 197.24 101.239 197.24C101.377 197.24 101.377 198.205 101.377 199.446C101.377 200.686 101.239 201.651 101.239 201.651Z" fill="#DFDFDF"/>
<path d="M101.917 202.892H100.267V204.546H101.917V202.892Z" fill="#DFDFDF"/>
<path d="M101.917 187.866H100.267V189.52H101.917V187.866Z" fill="#DFDFDF"/>
<path d="M87.6088 202.892H85.958V204.546H87.6088V202.892Z" fill="#DFDFDF"/>
<path d="M87.6088 188.141H85.958V189.796H87.6088V188.141Z" fill="#DFDFDF"/>
<path d="M96.9746 232.945C96.9746 232.945 97.9376 232.807 99.1756 232.807C100.276 232.807 101.377 232.807 101.377 232.945C101.377 232.945 100.414 233.083 99.1756 233.083C97.9376 233.083 96.9746 233.083 96.9746 232.945Z" fill="#CA515B"/>
<path d="M88.3037 232.945C88.3037 232.945 89.2667 232.807 90.5047 232.807C91.7428 232.807 92.7058 232.807 92.7058 232.945C92.7058 232.945 91.7428 233.083 90.5047 233.083C89.2667 233.083 88.3037 233.083 88.3037 232.945Z" fill="#CA515B"/>
<path d="M86.7942 225.777C86.7942 225.777 86.9317 226.742 86.9317 227.982C86.9317 229.223 86.9317 230.188 86.7942 230.188C86.7942 230.188 86.6566 229.223 86.6566 227.982C86.519 226.879 86.6566 225.777 86.7942 225.777Z" fill="#CA515B"/>
<path d="M87.8914 218.332C87.8914 218.332 87.4787 218.47 86.7909 218.47L86.9284 218.332C86.9284 218.608 86.9284 219.021 86.9284 219.435C86.9284 220.538 86.9285 221.641 86.7909 221.641C86.7909 221.641 86.6533 220.676 86.6533 219.435C86.6533 219.021 86.6533 218.746 86.6533 218.332V218.194H86.7909C87.4787 218.194 87.8914 218.332 87.8914 218.332Z" fill="#CA515B"/>
<path d="M96.4235 218.332C96.4235 218.332 95.4606 218.47 94.2225 218.47C93.122 218.47 92.0215 218.47 92.0215 218.332C92.0215 218.332 92.9844 218.194 94.2225 218.194C95.4606 218.194 96.4235 218.194 96.4235 218.332Z" fill="#CA515B"/>
<path d="M101.235 222.192C101.235 222.192 101.097 221.227 101.097 219.986C101.097 219.297 101.097 218.746 101.097 218.332L101.235 218.47C100.96 218.47 100.685 218.47 100.685 218.332C100.685 218.194 100.822 218.332 101.235 218.194V218.332C101.235 218.746 101.235 219.297 101.235 219.986C101.372 221.227 101.235 222.192 101.235 222.192Z" fill="#CA515B"/>
<path d="M101.239 230.877C101.239 230.877 101.102 229.912 101.102 228.671C101.102 227.43 101.102 226.465 101.239 226.465C101.377 226.465 101.377 227.43 101.377 228.671C101.377 230.05 101.239 230.877 101.239 230.877Z" fill="#CA515B"/>
<path d="M101.917 232.256H100.267V233.91H101.917V232.256Z" fill="#CA515B"/>
<path d="M101.917 217.091H100.267V218.746H101.917V217.091Z" fill="#CA515B"/>
<path d="M87.6088 232.255H85.958V233.91H87.6088V232.255Z" fill="#CA515B"/>
<path d="M87.6088 217.505H85.958V219.159H87.6088V217.505Z" fill="#CA515B"/>
<path d="M133.425 160.156C133.425 160.156 127.647 160.294 120.494 160.294C113.34 160.294 107.562 160.294 107.562 160.156C107.562 160.156 113.34 160.018 120.494 160.018C127.647 160.018 133.425 160.018 133.425 160.156Z" fill="#E0E6F4"/>
<path d="M154.06 165.395C154.06 165.395 143.605 165.533 130.812 165.533C117.881 165.533 107.563 165.533 107.563 165.395C107.563 165.395 118.018 165.257 130.812 165.257C143.605 165.395 154.06 165.395 154.06 165.395Z" fill="#E0E6F4"/>
<path d="M153.51 169.255C153.51 169.255 143.193 169.393 130.537 169.393C117.881 169.393 107.563 169.393 107.563 169.255C107.563 169.117 117.881 169.117 130.537 169.117C143.193 169.117 153.51 169.255 153.51 169.255Z" fill="#E0E6F4"/>
<path d="M134.657 172.977C134.657 172.977 128.604 173.115 121.038 173.115C113.609 173.115 107.419 173.115 107.419 172.977C107.419 172.839 113.472 172.839 121.038 172.839C128.604 172.839 134.657 172.977 134.657 172.977Z" fill="#E0E6F4"/>
<path d="M133.424 219.572C133.424 219.572 127.646 219.71 120.493 219.71C113.339 219.71 107.562 219.71 107.562 219.572C107.562 219.572 113.339 219.434 120.493 219.434C127.646 219.434 133.424 219.572 133.424 219.572Z" fill="#E0E6F4"/>
<path d="M154.059 224.949C154.059 224.949 143.604 225.087 130.811 225.087C117.88 225.087 107.562 225.087 107.562 224.949C107.562 224.811 118.017 224.811 130.811 224.811C143.604 224.811 154.059 224.811 154.059 224.949Z" fill="#E0E6F4"/>
<path d="M153.509 228.81C153.509 228.81 143.192 228.948 130.536 228.948C117.88 228.948 107.562 228.948 107.562 228.81C107.562 228.81 117.88 228.672 130.536 228.672C143.192 228.672 153.509 228.81 153.509 228.81Z" fill="#E0E6F4"/>
<path d="M134.657 232.531C134.657 232.531 128.604 232.669 121.038 232.669C113.609 232.669 107.419 232.669 107.419 232.531C107.419 232.393 113.472 232.393 121.038 232.393C128.604 232.255 134.657 232.393 134.657 232.531Z" fill="#E0E6F4"/>
<path d="M85.1328 60.6239C85.4079 60.6239 85.5455 60.6239 85.8206 60.6239C86.2333 60.6239 86.9211 60.6239 87.4714 60.6239C87.4714 60.2103 87.4714 59.7968 87.4714 59.3832C87.4714 59.1075 87.4714 58.9696 87.4714 58.6939C87.4714 58.4182 87.7465 58.1425 88.0217 58.1425C88.2968 58.1425 88.5719 58.1425 88.847 58.1425C89.1222 58.1425 89.3973 58.5561 89.3973 58.8318C89.3973 59.3832 89.3973 60.0725 89.3973 60.6239C90.0851 60.6239 90.7729 60.6239 91.5983 60.6239C91.5983 59.7968 91.5983 58.8318 91.5983 57.8668C91.5983 57.5911 91.5983 57.3153 91.5983 57.1775C91.5983 57.0396 91.4608 56.7639 91.3232 56.6261C91.0481 56.3503 90.7729 56.0746 90.3603 55.6611C90.0851 55.3854 89.81 55.1096 89.3973 54.6961C89.2597 54.5582 89.1222 54.4204 88.9846 54.2825C88.847 54.1446 88.7095 54.0068 88.5719 53.8689C88.4344 53.8689 88.1592 53.8689 88.0217 54.0068C87.8841 54.1446 87.7465 54.2825 87.609 54.4204C87.3338 54.6961 87.0587 54.9718 86.7836 55.2475C86.2333 55.7989 85.8206 56.2125 85.4079 56.6261C85.2704 56.9018 85.2704 57.1775 85.2704 57.4532C85.2704 57.7289 85.2704 58.0046 85.2704 58.2803C85.2704 58.8318 85.2704 59.1075 85.2704 59.5211C85.2704 59.7968 85.2704 60.0725 85.2704 60.3482C85.1328 60.486 85.1328 60.6239 85.1328 60.6239C85.1328 60.6239 85.1328 60.6239 85.1328 60.3482C85.1328 60.2103 85.1328 59.7968 85.1328 59.5211C85.1328 59.1075 85.1328 58.6939 85.1328 58.2803C85.1328 58.0046 85.1328 57.7289 85.1328 57.4532C85.1328 57.3153 85.1328 57.1775 85.1328 57.0396C85.1328 56.9018 85.1328 56.7639 85.2704 56.6261C85.6831 56.0746 86.0958 55.6611 86.646 55.1096C86.9211 54.8339 87.1963 54.5582 87.4714 54.2825C87.609 54.1446 87.7465 54.0068 87.8841 53.8689C88.0217 53.7311 88.2968 53.7311 88.4344 53.7311C88.7095 53.7311 88.847 54.0068 88.9846 54.1446C89.1222 54.2825 89.2597 54.4204 89.3973 54.5582C89.6724 54.8339 89.9476 55.1096 90.3603 55.5232C90.7729 55.9368 90.9105 56.0746 91.3232 56.4882C91.3232 56.4882 91.4608 56.6261 91.5983 56.7639C91.7359 56.9018 91.7359 57.0396 91.7359 57.1775C91.7359 57.4532 91.7359 57.7289 91.7359 57.8668C91.7359 58.8318 91.7359 59.6589 91.7359 60.6239C91.0481 60.6239 90.2227 60.6239 89.5349 60.6239C89.5349 60.0725 89.5349 59.3832 89.5349 58.8318C89.5349 58.5561 89.3973 58.2803 89.1222 58.2803C88.847 58.2803 88.5719 58.2803 88.2968 58.2803C88.0217 58.2803 87.8841 58.4182 87.7465 58.6939C87.7465 58.9696 87.7465 59.2453 87.7465 59.3832C87.7465 59.7968 87.7465 60.2103 87.7465 60.6239C87.0587 60.6239 86.5085 60.6239 85.9582 60.6239C85.8206 60.6239 85.6831 60.6239 85.5455 60.6239C85.1328 60.6239 85.1328 60.6239 85.1328 60.6239Z" fill="#CA515B"/>
<path d="M85.9542 79.3725C85.9542 79.924 85.5415 80.3375 84.9913 80.3375C84.441 80.3375 84.0283 79.924 84.0283 79.3725C84.0283 78.8211 84.441 78.4075 84.9913 78.4075C85.5415 78.4075 85.9542 78.8211 85.9542 79.3725Z" fill="#CA515B"/>
<path d="M103.567 87.3682C103.567 87.3682 103.567 87.0925 103.429 86.8168C103.291 86.5411 103.016 85.9896 102.466 85.5761C101.916 85.1625 101.09 85.0246 100.265 85.3003C99.4396 85.5761 98.7518 86.4032 98.7518 87.506C98.7518 88.6089 99.4396 89.436 100.265 89.7118C101.09 89.9875 101.916 89.8496 102.466 89.436C103.016 89.0225 103.291 88.471 103.429 88.1953C103.567 87.506 103.567 87.3682 103.567 87.3682C103.567 87.3682 103.567 87.6439 103.567 87.9196C103.567 88.3332 103.291 88.8846 102.741 89.2982C102.191 89.8496 101.228 89.9875 100.265 89.7118C99.3021 89.436 98.6143 88.471 98.6143 87.2303C98.6143 85.9896 99.4396 85.0246 100.265 84.7489C101.228 84.4732 102.191 84.7489 102.741 85.1625C103.291 85.7139 103.567 86.2653 103.567 86.5411C103.704 87.0925 103.704 87.3682 103.567 87.3682Z" fill="#CA515B"/>
<path d="M232.74 245.214H160.656C151.989 245.214 144.974 238.183 144.974 229.36V47.3896C144.974 38.7047 151.989 31.5361 160.656 31.5361H232.74C241.406 31.5361 248.422 38.5668 248.422 47.3896V229.498C248.56 238.183 241.544 245.214 232.74 245.214Z" fill="#0064B7"/>
<path d="M232.736 38.0156H218.705C216.779 38.0156 215.265 39.6698 215.265 41.5998V44.0813C215.265 46.0112 213.752 47.6655 211.826 47.6655H184.589C182.663 47.6655 181.15 46.0112 181.15 44.0813V41.5998C181.15 39.6698 179.636 38.0156 177.71 38.0156H172.758H160.515C154.462 38.0156 149.51 42.9784 149.51 49.0441V226.741C149.51 232.807 154.462 237.77 160.515 237.77H232.461C238.514 237.77 243.466 232.807 243.466 226.741V49.0441C243.741 42.8405 238.927 38.0156 232.736 38.0156Z" fill="white"/>
<g clip-path="url(#clip0_1409_2651)">
<path d="M160.772 62.4463C160.657 62.4051 160.533 62.381 160.43 62.3209C160.107 62.1355 159.947 61.8471 159.947 61.4728C159.947 60.6418 159.947 59.8108 159.947 58.9798C159.947 58.9455 159.947 58.9129 159.947 58.8751C159.847 58.8665 159.753 58.8665 159.663 58.8494C159.357 58.7893 159.148 58.6073 159.05 58.3137C158.952 58.0235 159.014 57.7557 159.211 57.5222C159.234 57.4964 159.258 57.4724 159.282 57.4484C160.451 56.2809 161.618 55.1116 162.79 53.9476C162.881 53.8566 162.993 53.7673 163.111 53.7295C163.412 53.6351 163.706 53.6574 163.949 53.8892C164.098 54.0317 164.241 54.1794 164.387 54.3236C165.405 55.34 166.42 56.3564 167.438 57.3694C167.584 57.5153 167.713 57.6664 167.772 57.8673C167.772 57.9926 167.772 58.1179 167.772 58.245C167.766 58.2553 167.759 58.2656 167.756 58.2759C167.627 58.6605 167.347 58.8614 166.94 58.8631C166.91 58.8631 166.879 58.8631 166.847 58.8631C166.847 58.9146 166.847 58.9524 166.847 58.9884C166.847 59.8331 166.848 60.6779 166.845 61.5226C166.843 61.9243 166.568 62.2797 166.185 62.3999C166.132 62.4171 166.077 62.4291 166.022 62.4446C165.496 62.4446 164.97 62.4446 164.444 62.4446C164.292 62.3879 164.237 62.2763 164.239 62.1183C164.243 61.4642 164.241 60.8118 164.241 60.1576C164.241 59.8658 164.064 59.6906 163.77 59.6889C163.527 59.6889 163.285 59.6889 163.041 59.6889C162.723 59.6889 162.553 59.8589 162.553 60.1731C162.553 60.8204 162.551 61.4676 162.555 62.1166C162.556 62.2746 162.503 62.3879 162.35 62.4446C161.824 62.4463 161.298 62.4463 160.772 62.4463ZM164.755 61.9329C165.126 61.9329 165.482 61.9329 165.839 61.9329C166.163 61.9329 166.331 61.7647 166.331 61.4436C166.331 60.5096 166.331 59.5756 166.331 58.6416C166.331 58.4596 166.436 58.3549 166.618 58.3532C166.742 58.3514 166.864 58.3549 166.988 58.3514C167.122 58.348 167.227 58.2639 167.263 58.1334C167.302 57.9892 167.228 57.8896 167.132 57.7935C165.974 56.638 164.815 55.4808 163.658 54.3236C163.471 54.1364 163.325 54.1364 163.137 54.3236C162.102 55.3572 161.068 56.3925 160.031 57.426C159.887 57.5703 159.742 57.711 159.601 57.857C159.514 57.948 159.493 58.0579 159.543 58.1746C159.593 58.2896 159.686 58.3497 159.813 58.3514C159.921 58.3532 160.029 58.3514 160.139 58.3514C160.368 58.3514 160.461 58.4459 160.461 58.6742C160.461 59.6082 160.461 60.5422 160.461 61.4762C160.461 61.7509 160.641 61.9312 160.918 61.9312C161.264 61.9312 161.611 61.9312 161.956 61.9312C161.98 61.9312 162.006 61.9278 162.037 61.9261C162.037 61.8866 162.037 61.8539 162.037 61.8196C162.037 61.2393 162.032 60.6607 162.041 60.0804C162.047 59.6237 162.414 59.2219 162.869 59.191C163.222 59.167 163.577 59.1859 163.931 59.1876C163.957 59.1876 163.983 59.1944 164.007 59.1996C164.456 59.3009 164.751 59.67 164.753 60.1405C164.757 60.7002 164.753 61.2599 164.753 61.8196C164.755 61.8539 164.755 61.8883 164.755 61.9329Z" fill="black"/>
</g>
<rect x="227.198" y="55.6266" width="7.79401" height="0.487125" rx="0.243563" fill="#2A2A2A"/>
<rect x="227.198" y="58.0622" width="7.79401" height="0.487125" rx="0.243563" fill="#2A2A2A"/>
<rect x="227.198" y="60.498" width="7.79401" height="0.487125" rx="0.243563" fill="#2A2A2A"/>
<path d="M176.845 99.086H162.062C161.51 99.086 161.062 99.5337 161.062 100.086V115.042C161.062 115.595 161.51 116.042 162.063 116.042H176.845C177.398 116.042 177.845 115.595 177.845 115.042V100.086C177.845 99.5337 177.398 99.086 176.845 99.086Z" fill="#0054A3"/>
<rect x="184.325" y="100.442" width="42.867" height="0.681975" rx="0.340988" fill="#2A2A2A"/>
<rect x="184.325" y="106.288" width="42.867" height="0.681975" rx="0.340988" fill="#2A2A2A"/>
<rect x="184.325" y="112.133" width="42.867" height="0.681975" rx="0.340988" fill="#2A2A2A"/>
<path d="M177.845 127.209H161.062V144.165H177.845V127.209Z" fill="#CA515B"/>
<path d="M210.04 129.139C210.04 129.139 204.399 129.276 197.521 129.276C190.643 129.276 185.003 129.276 185.003 129.139C185.003 129.139 190.643 129.001 197.521 129.001C204.537 129.001 210.04 129.001 210.04 129.139Z" fill="#E0E6F4"/>
<path d="M211.266 141.545C211.266 141.545 205.351 141.683 198.06 141.683C190.769 141.683 184.854 141.683 184.854 141.545C184.854 141.545 190.769 141.408 198.06 141.408C205.351 141.27 211.266 141.408 211.266 141.545Z" fill="#E0E6F4"/>
<path d="M176.845 155.469H162.062C161.51 155.469 161.062 155.917 161.062 156.469V171.426C161.062 171.978 161.51 172.426 162.063 172.426H176.845C177.398 172.426 177.845 171.978 177.845 171.426V156.469C177.845 155.917 177.398 155.469 176.845 155.469Z" fill="#023EA1"/>
<rect x="184.325" y="157.923" width="42.867" height="0.681975" rx="0.340988" fill="#2A2A2A"/>
<rect x="184.325" y="163.769" width="42.867" height="0.681975" rx="0.340988" fill="#2A2A2A"/>
<rect x="184.325" y="169.614" width="42.867" height="0.681975" rx="0.340988" fill="#2A2A2A"/>
<path d="M177.845 183.73H161.062V200.686H177.845V183.73Z" fill="#CA515B"/>
<path d="M176.845 211.853H162.062C161.51 211.853 161.062 212.301 161.062 212.853V227.809C161.062 228.361 161.51 228.809 162.063 228.809H176.845C177.398 228.809 177.845 228.361 177.845 227.809V212.853C177.845 212.301 177.398 211.853 176.845 211.853Z" fill="#DE051F"/>
<rect x="184.325" y="213.456" width="42.867" height="0.681975" rx="0.340988" fill="#2A2A2A"/>
<rect x="184.325" y="219.301" width="42.867" height="0.681975" rx="0.340988" fill="#2A2A2A"/>
<rect x="184.325" y="225.146" width="42.867" height="0.681975" rx="0.340988" fill="#2A2A2A"/>
<path d="M176.845 183.73H162.062C161.51 183.73 161.062 184.178 161.062 184.73V199.686C161.062 200.238 161.51 200.686 162.063 200.686H176.845C177.398 200.686 177.845 200.238 177.845 199.686V184.73C177.845 184.178 177.398 183.73 176.845 183.73Z" fill="#FCBE42"/>
<rect x="184.325" y="185.202" width="42.867" height="0.681975" rx="0.340988" fill="#2A2A2A"/>
<rect x="184.325" y="191.048" width="42.867" height="0.681975" rx="0.340988" fill="#2A2A2A"/>
<rect x="184.325" y="196.893" width="42.867" height="0.681975" rx="0.340988" fill="#2A2A2A"/>
<path d="M176.845 127.209H162.062C161.51 127.209 161.062 127.657 161.062 128.209V143.165C161.062 143.718 161.51 144.165 162.063 144.165H176.845C177.398 144.165 177.845 143.718 177.845 143.165V128.209C177.845 127.657 177.398 127.209 176.845 127.209Z" fill="#0064E1"/>
<rect x="184.325" y="128.696" width="42.867" height="0.681975" rx="0.340988" fill="#2A2A2A"/>
<rect x="184.325" y="134.541" width="42.867" height="0.681975" rx="0.340988" fill="#2A2A2A"/>
<rect x="184.325" y="140.387" width="42.867" height="0.681975" rx="0.340988" fill="#2A2A2A"/>
<rect x="158.282" y="72.4387" width="77.4401" height="14.1138" rx="7.05688" fill="white" stroke="#1A1A1A" stroke-width="0.5"/>
<g clip-path="url(#clip1_1409_2651)">
<path d="M225.382 76.0856C225.504 76.103 225.627 76.1163 225.749 76.139C226.338 76.2511 226.844 76.5246 227.265 76.9529C227.648 77.3412 227.9 77.8029 228.009 78.3393C228.145 79.0131 228.052 79.655 227.714 80.2541C227.606 80.4462 227.47 80.6224 227.346 80.8052C227.334 80.8092 227.322 80.8145 227.311 80.8185C227.333 80.8292 227.359 80.8358 227.377 80.8532C227.936 81.4016 228.494 81.95 229.052 82.5011C229.092 82.5398 229.118 82.5918 229.152 82.6385C229.152 82.6692 229.152 82.7012 229.152 82.7319C229.082 82.88 228.977 82.9387 228.854 82.8894C228.814 82.8734 228.778 82.844 228.747 82.8133C228.186 82.2609 227.624 81.7085 227.062 81.1561C227.044 81.1387 227.027 81.1227 227.008 81.1054C226.918 81.1668 226.832 81.2295 226.743 81.2868C226.241 81.6031 225.69 81.7512 225.099 81.7298C224.318 81.7005 223.653 81.4003 223.111 80.8385C222.703 80.4155 222.451 79.9125 222.367 79.3307C222.257 78.5768 222.421 77.8843 222.874 77.2678C223.308 76.6727 223.889 76.3018 224.61 76.147C224.722 76.123 224.838 76.1137 224.952 76.0976C224.97 76.095 224.991 76.0896 225.009 76.0856C225.133 76.0856 225.257 76.0856 225.382 76.0856ZM222.771 78.9278C222.779 79.0158 222.784 79.1226 222.798 79.228C222.87 79.763 223.099 80.2247 223.488 80.597C224.106 81.1894 224.85 81.4069 225.687 81.2441C226.376 81.1107 226.92 80.7371 227.279 80.13C227.738 79.3574 227.757 78.5541 227.327 77.7682C226.934 77.0477 226.302 76.6407 225.487 76.5393C224.844 76.4606 224.251 76.6167 223.733 77.009C223.106 77.4853 222.794 78.1258 222.771 78.9278Z" fill="black"/>
</g>
<path d="M225.946 116.731L192.105 89.9871C192.105 89.9871 191.142 89.4357 189.766 87.5057C188.391 85.5757 185.777 83.6457 184.264 84.0593L180.825 80.8886C180.825 80.8886 179.724 80.6129 180.825 81.7157C181.925 82.8186 182.613 84.1972 182.613 84.1972C182.613 84.1972 181.513 84.7486 181.925 85.1622C181.925 85.1622 181.1 85.4379 181.237 85.9893C181.237 85.9893 179.174 86.5407 181.237 88.6086C183.163 90.5386 183.851 91.3657 186.052 92.3307C188.253 93.2957 189.904 94.3985 191.967 96.4664C194.031 98.5342 221.544 125.003 221.544 125.003L225.946 116.731Z" fill="#FFBF99"/>
<path d="M241.767 109.976C241.767 109.976 249.47 109.838 250.708 101.153C251.947 92.6063 246.169 89.5735 242.73 87.7814C239.428 85.9892 237.365 86.2649 235.852 83.9214C234.338 81.5778 233.788 80.8885 233.788 80.8885C233.788 80.8885 227.46 87.3678 231.862 93.1578C236.264 98.9478 241.767 109.976 241.767 109.976Z" fill="#1B1156"/>
<path d="M254.287 261.067C254.287 261.067 254.424 261.205 254.424 261.343C254.699 262.308 255.8 267.684 252.773 267.822C249.747 267.822 238.329 267.96 236.678 267.96C236.541 267.96 236.541 267.96 236.403 267.822C236.266 267.408 236.128 266.306 236.816 265.892C236.816 265.892 243.557 262.859 245.758 260.929C247.959 259.275 253.324 260.653 254.287 261.067Z" fill="#1A1155"/>
<path d="M225.396 260.24C225.534 260.24 225.534 260.378 225.534 260.516C225.809 261.619 226.91 267.546 223.883 267.684C220.857 267.822 206.825 267.684 205.037 267.684C204.899 267.684 204.762 267.684 204.762 267.546C204.624 267.133 204.487 266.168 205.725 265.616C205.725 265.616 213.428 262.584 217.005 260.378C220.169 258.31 224.571 259.826 225.396 260.24Z" fill="#1A1155"/>
<path d="M256.071 164.016L254.282 261.067L245.891 260.929L239.013 199.307L239.838 182.213L244.79 163.878L256.071 164.016Z" fill="#0064E1"/>
<path d="M246.995 163.878C246.995 163.878 239.016 204.959 236.54 209.922L225.397 260.24H216.868L222.096 163.878H246.995Z" fill="#003EB0"/>
<path d="M231.858 93.1578C231.858 93.1578 227.594 96.6042 227.594 102.808C227.594 108.873 228.557 109.149 231.033 109.149C233.509 109.149 235.435 108.873 235.71 110.252C235.985 111.631 235.71 116.869 235.16 118.386C234.61 119.902 245.34 118.386 245.34 118.386C245.34 118.386 242.451 110.39 241.9 106.806C241.488 103.359 241.9 99.3614 239.837 95.915C237.636 92.6064 235.16 89.9871 231.858 93.1578Z" fill="#FFBF99"/>
<path d="M234.063 120.316L225.397 115.353L220.72 125.141L230.349 133.136L234.063 120.316Z" fill="#F79F03"/>
<path d="M246.992 119.626C246.992 119.626 252.082 125.416 253.87 139.753C255.659 154.09 255.934 164.292 255.934 164.292H222.23C222.23 164.292 224.844 144.165 227.045 133.688C229.384 123.073 233.373 118.661 233.373 118.661C233.373 118.661 234.474 117.421 235.712 118.248C236.95 119.075 240.114 119.213 242.728 117.972C245.479 116.594 246.167 118.386 246.992 119.626Z" fill="#FCBE42"/>
<path d="M240.252 98.3964C240.252 98.3964 242.04 97.9828 243.003 98.9478C243.966 99.9128 242.865 101.981 241.215 102.532C239.426 103.221 240.252 98.3964 240.252 98.3964Z" fill="#FFBF99"/>
<path d="M235.435 137.134C235.435 137.134 231.583 164.154 229.657 171.46C227.594 178.767 224.567 185.797 224.567 185.797C224.567 185.797 223.192 189.244 224.567 190.347C225.943 191.587 229.107 193.104 229.657 190.76C230.208 188.417 230.208 183.592 231.171 182.489C232.133 181.386 239.287 164.292 241.763 154.228C244.239 144.027 244.652 139.478 244.652 139.478L235.435 137.134Z" fill="#FFBF99"/>
<path d="M234.06 138.375C234.06 138.375 236.398 123.486 242.589 123.349C242.589 123.349 246.028 123.349 246.165 128.725C246.165 134.101 245.753 140.443 245.753 140.443L234.06 138.375Z" fill="#F79F03"/>
<defs>
<clipPath id="clip0_1409_2651">
<rect width="8.76826" height="8.76826" fill="white" transform="translate(159.003 53.678)"/>
</clipPath>
<clipPath id="clip1_1409_2651">
<rect width="6.81976" height="6.81976" fill="white" transform="translate(222.332 76.0856)"/>
</clipPath>
</defs>
</svg>
