<svg width="340" height="270" viewBox="0 0 340 270" fill="none" xmlns="http://www.w3.org/2000/svg">
<g opacity="0.8">
<path d="M51.2311 262.049C50.1039 262.049 49.1176 261.908 48.2722 261.346L38.2681 255.584C37.4227 255.162 37 254.46 37 253.757C37 253.054 37.4227 252.352 38.2681 251.93L100.124 216.234C101.815 215.25 104.351 215.25 106.042 216.234L116.046 221.996C116.891 222.417 117.314 223.12 117.314 223.823C117.314 224.525 116.891 225.228 116.046 225.65L54.19 261.346C53.3446 261.768 52.2174 262.049 51.2311 262.049ZM103.083 216.234C102.097 216.234 101.251 216.374 100.547 216.796L38.5499 252.352C37.9863 252.633 37.5636 253.195 37.5636 253.616C37.5636 254.038 37.8454 254.6 38.5499 254.881L48.6949 260.784C50.1039 261.627 52.4992 261.627 53.9082 260.784L115.764 225.087C116.328 224.806 116.751 224.244 116.751 223.823C116.751 223.401 116.469 222.839 115.764 222.558L105.76 216.796C104.915 216.374 103.928 216.234 103.083 216.234Z" fill="#87C0EE"/>
</g>
<path d="M123.794 265C122.667 265 121.68 264.719 120.835 264.297L84.7639 243.498C84.623 243.498 84.623 243.217 84.623 243.076C84.623 242.936 84.9048 242.936 85.0458 242.936L121.117 263.735C122.526 264.578 124.921 264.578 126.33 263.735L242.715 196.699C243.279 196.418 243.701 195.856 243.701 195.434C243.701 195.013 243.42 194.451 242.715 194.169L212.139 176.602C211.998 176.602 211.998 176.321 211.998 176.181C211.998 176.04 212.28 176.04 212.421 176.04L242.997 193.607C243.842 194.029 244.265 194.732 244.265 195.434C244.265 196.137 243.842 196.84 242.997 197.261L126.612 264.297C125.907 264.86 124.921 265 123.794 265Z" fill="#87C0EE"/>
<path d="M204.247 174.494C205.656 175.337 208.052 175.337 209.461 174.494C210.87 173.651 210.87 172.386 209.461 171.543C208.052 170.699 205.656 170.699 204.247 171.543C202.838 172.386 202.838 173.791 204.247 174.494Z" fill="#5981D4"/>
<path d="M206.789 177.586C204.957 177.586 202.985 177.164 201.576 176.321C200.026 175.478 199.321 174.353 199.321 173.089C199.321 171.824 200.167 170.7 201.576 169.856C204.535 168.17 209.184 168.17 212.143 169.856C213.693 170.7 214.398 171.824 214.398 173.089C214.398 174.353 213.552 175.478 212.143 176.321C210.593 177.164 208.762 177.586 206.789 177.586ZM201.858 175.759C204.535 177.305 209.044 177.305 211.721 175.759C212.989 175.056 213.693 174.072 213.693 173.089C213.693 172.105 212.989 171.121 211.721 170.418C209.044 168.873 204.535 168.873 201.858 170.418C200.589 171.121 199.885 172.105 199.885 173.089C199.885 174.072 200.589 175.056 201.858 175.759Z" fill="#87C0EE"/>
<path d="M82.3673 244.763C83.7763 245.606 86.1717 245.606 87.5807 244.763C88.9897 243.919 88.9897 242.654 87.5807 241.811C86.1717 240.968 83.7763 240.968 82.3673 241.811C80.9583 242.514 80.9583 243.919 82.3673 244.763Z" fill="#5981D4"/>
<path d="M206.784 173.37C206.643 173.37 206.502 173.229 206.502 173.089V61.2214C206.502 61.0808 206.643 60.9403 206.784 60.9403C206.925 60.9403 207.066 61.0808 207.066 61.2214V173.089C207.066 173.229 206.925 173.37 206.784 173.37Z" fill="#87C0EE"/>
<path d="M240.741 27.7736L232.005 22.7143C230.878 21.871 229.187 22.0116 227.496 22.8548L226.932 23.1359C227.073 21.871 227.214 20.6062 227.214 19.4819C227.214 17.6549 227.073 16.109 226.651 14.5631L231.159 13.4388L222.423 8.52003C220.028 7.11466 216.928 7.2552 213.547 9.22271C210.024 11.1902 206.924 14.8442 204.388 19.0603C204.388 16.6712 203.965 14.4226 203.402 12.5956L207.347 11.0497L198.893 6.41197C195.793 4.44446 191.707 4.44446 187.198 6.97412C177.617 12.4551 170.008 27.0709 170.008 39.7192C170.008 41.2651 170.149 42.6705 170.29 43.9353L169.022 44.638C162.963 48.1515 158.031 57.4269 158.031 65.578C158.031 70.0752 159.581 73.167 161.836 74.5724L170.572 79.6317L171.981 72.1833L184.803 64.8754L227.214 40.4219C230.737 38.3139 233.696 32.8329 233.696 28.0547L238.768 30.8654L240.741 27.7736Z" fill="#0064E1"/>
<path d="M240.741 27.7736L232.005 22.7143C230.878 21.871 229.187 22.0116 227.496 22.8548L226.932 23.1359C227.073 21.871 227.214 20.6062 227.214 19.4819C227.214 17.6549 227.073 16.109 226.651 14.5631L231.159 13.4388L222.423 8.52003C220.028 7.11466 216.928 7.2552 213.547 9.22271C210.024 11.1902 206.924 14.8442 204.388 19.0603C204.388 16.6712 203.965 14.4226 203.402 12.5956L207.347 11.0497L198.893 6.41197C195.793 4.44446 191.707 4.44446 187.198 6.97412C177.617 12.4551 170.008 27.0709 170.008 39.7192C170.008 41.2651 170.149 42.6705 170.29 43.9353L169.022 44.638C162.963 48.1515 158.031 57.4269 158.031 65.578C158.031 70.0752 159.581 73.167 161.836 74.5724L170.572 79.6317L171.981 72.1833L184.803 64.8754L227.214 40.4219C230.737 38.3139 233.696 32.8329 233.696 28.0547L238.768 30.8654L240.741 27.7736Z" fill="#0064E1"/>
<path d="M222.424 8.66056C220.028 7.25519 216.929 7.39572 213.547 9.36324C211.997 10.2065 210.447 11.4713 209.038 12.8767L220.31 19.3414L226.933 16.2496C226.933 15.6874 226.792 15.1253 226.651 14.5631L231.16 13.4388L222.424 8.66056Z" fill="#27DEBF"/>
<path d="M203.821 14.1415C203.681 13.7199 203.54 13.1577 203.399 12.7361L206.639 11.4713L207.062 11.1902L198.89 6.41197C195.79 4.44446 191.704 4.44446 187.195 6.97412C182.827 9.50379 179.023 13.8604 175.923 19.0603L189.59 26.9304L203.821 14.1415Z" fill="#27DEBF"/>
<path d="M170.29 44.0757L166.767 46.4648C163.667 49.135 161.131 53.2106 159.581 57.7078L169.867 63.6103L179.166 49.135L170.29 44.0757Z" fill="#0064E1"/>
<path d="M222.424 8.66056C220.028 7.25519 216.929 7.39572 213.547 9.36324C211.997 10.2065 210.447 11.4713 209.038 12.8767L220.31 19.3414L226.933 16.2496C226.933 15.6874 226.792 15.1253 226.651 14.5631L231.16 13.4388L222.424 8.66056Z" fill="#0064E1"/>
<path d="M203.821 14.1415C203.681 13.7199 203.54 13.1577 203.399 12.7361L206.639 11.4713L207.062 11.1902L198.89 6.41197C195.79 4.44446 191.704 4.44446 187.195 6.97412C182.827 9.50379 179.023 13.8604 175.923 19.0603L189.59 26.9304L203.821 14.1415Z" fill="#0064E1"/>
<path d="M170.29 44.0757L166.767 46.4648C163.667 49.135 161.131 53.2106 159.581 57.7078L169.867 63.6103L179.166 49.135L170.29 44.0757Z" fill="#0064E1"/>
<path d="M236.23 28.0547L235.667 28.3358C235.808 27.071 235.949 25.8061 235.949 24.6818C235.949 14.7037 229.89 10.066 222.281 14.4226C218.758 16.3902 215.659 20.0441 213.122 24.2602C212.841 12.1741 205.232 6.69311 195.932 12.1741C186.492 17.7955 178.742 32.4114 178.742 45.0597C178.742 46.6056 178.883 48.011 179.024 49.2758L177.756 49.9785C171.697 53.4919 166.766 62.7674 166.766 70.9185C166.766 78.9291 171.697 82.8641 177.756 79.3507L193.678 70.2158L236.089 45.7624C239.753 43.6543 242.571 38.0329 242.571 33.2546C242.853 28.1953 239.894 25.9467 236.23 28.0547Z" fill="#27DEBF"/>
<path d="M236.23 28.0547L235.667 28.3358C235.808 27.071 235.949 25.8061 235.949 24.6818C235.949 14.7037 229.89 10.066 222.281 14.4226C218.758 16.3902 215.659 20.0441 213.263 24.2602C212.841 12.3146 205.232 6.83365 195.932 12.174C186.351 17.655 178.742 32.4114 178.742 44.9192C178.742 46.4651 178.883 47.8704 179.024 49.1353L177.756 49.838C171.697 53.3514 166.766 62.7674 166.766 70.778C166.766 78.7886 171.697 82.7236 177.756 79.2102L193.678 70.0753L236.089 45.6218C239.753 43.5138 242.571 37.8923 242.571 33.1141C242.853 28.1953 239.894 25.9467 236.23 28.0547Z" fill="#0054A3"/>
<path d="M106.89 79.2101C106.749 78.2263 105.904 77.8047 105.059 78.3669L53.0657 108.301C52.0794 108.863 51.234 110.409 51.234 111.534V225.79C51.234 226.914 51.9385 227.477 52.9248 227.055C51.9385 227.477 50.3886 227.477 49.4023 226.914L47.2888 225.65C46.3024 225.087 45.457 223.542 45.457 222.417V108.161C45.457 106.896 46.3024 105.491 47.2888 104.928L99.1407 74.994C100.127 74.4319 101.818 74.4319 102.945 74.994L105.059 76.2588C105.904 76.821 106.749 78.0858 106.89 79.2101Z" fill="#0064E1"/>
<path d="M105.061 78.5072L53.0681 108.301C52.0817 108.863 51.2363 110.409 51.2363 111.533V225.79C51.2363 227.055 52.0817 227.476 53.0681 226.914L105.061 196.98C106.047 196.418 106.893 194.872 106.893 193.748V79.491C106.893 78.3667 106.047 77.8046 105.061 78.5072ZM104.215 182.926C104.215 183.91 103.511 184.613 102.525 185.175L55.3225 212.298C54.4771 212.861 53.6317 212.298 53.6317 211.315V122.495C53.6317 121.512 54.3362 120.247 55.3225 119.685L102.525 92.5609C103.37 91.9988 104.215 92.5609 104.215 93.5447V182.926Z" fill="#0054A3"/>
<path d="M52.9248 227.055C51.9385 227.477 50.3886 227.477 49.4023 226.914L47.2888 225.65C46.3024 225.087 45.457 223.541 45.457 222.417V108.161C45.457 107.599 45.5979 106.896 46.0206 106.334L51.9385 109.707C51.6567 110.269 51.3749 110.971 51.3749 111.534V225.79C51.234 226.914 51.9385 227.477 52.9248 227.055Z" fill="#0054A3"/>
<path d="M79.1353 95.9341C79.8398 95.5125 80.4034 95.9341 80.4034 96.6368C80.4034 97.3395 79.8398 98.3232 79.1353 98.7448C78.4308 99.1664 77.8672 98.7448 77.8672 98.0421C77.8672 97.3395 78.2899 96.3557 79.1353 95.9341Z" fill="black"/>
<path d="M78.1455 209.347C77.8637 209.347 77.441 209.347 77.1592 209.066C76.4547 208.644 76.1729 207.942 76.1729 206.818C76.1729 204.85 77.5819 202.32 79.4136 201.337C80.259 200.774 81.1044 200.774 81.8089 201.196C82.5134 201.618 82.7952 202.32 82.7952 203.445C82.7952 205.412 81.3862 207.942 79.5545 208.926C79.1318 209.207 78.7091 209.347 78.1455 209.347ZM80.8226 201.618C80.5408 201.618 80.1181 201.758 79.6954 201.899C78.1455 202.742 76.8774 204.991 76.8774 206.818C76.8774 207.661 77.1592 208.223 77.5819 208.504C78.0046 208.785 78.7091 208.644 79.2727 208.363C80.8226 207.52 82.0907 205.272 82.0907 203.445C82.0907 202.601 81.8089 202.039 81.3862 201.758C81.2453 201.758 81.1044 201.618 80.8226 201.618Z" fill="#E6E6E6"/>
<path d="M74.2014 103.523L83.9237 97.9015C84.4873 97.6204 85.0509 97.9015 85.0509 98.4636C85.0509 99.0258 84.6282 99.869 83.9237 100.15L74.2014 105.772C73.6378 106.053 73.0742 105.772 73.0742 105.209C73.0742 104.647 73.6378 103.945 74.2014 103.523Z" fill="black"/>
<path d="M104.212 182.926C104.212 183.91 103.507 184.613 102.521 185.175L55.3188 212.299C54.4733 212.861 53.6279 212.299 53.6279 211.315V122.496C53.6279 121.512 54.3324 120.247 55.3188 119.685L102.521 92.5612C103.366 91.9991 104.212 92.5612 104.212 93.545V182.926Z" fill="white"/>
<path d="M97.5872 147.933L95.0509 146.668C98.8553 134.441 95.0509 130.365 88.4285 129.803C91.1057 131.49 92.3738 137.954 90.1194 144.419L87.5831 143.154C87.1604 142.873 86.1741 143.857 86.1741 144.56L86.0332 156.365C86.0332 156.927 86.4559 157.067 86.8786 156.786L97.1645 149.76C97.7281 149.338 98.1508 148.214 97.5872 147.933Z" fill="#023EA1"/>
<path opacity="0.8" d="M89.6984 137.954C89.6984 134.16 88.5712 130.928 86.8804 129.944C86.8804 129.944 79.8353 130.506 73.2129 140.344C73.2129 140.344 82.7942 132.473 89.6984 137.954Z" fill="#023EA1"/>
<path d="M61.3819 156.927L63.9181 158.192C60.1137 170.418 63.9181 174.494 70.5405 175.056C67.8633 173.37 66.5952 166.905 68.8497 160.44L71.3859 161.705C71.8086 161.986 72.7949 161.002 72.7949 160.3L72.9358 148.495C72.9358 147.933 72.5131 147.792 72.0904 148.073L61.8046 155.1C61.1001 155.522 60.8182 156.646 61.3819 156.927Z" fill="#023EA1"/>
<path opacity="0.8" d="M69.1328 166.905C69.1328 170.699 70.26 173.932 71.9509 174.916C71.9509 174.916 78.996 174.353 85.6183 164.516C85.7593 164.516 76.1779 172.386 69.1328 166.905Z" fill="#023EA1"/>
<path d="M145.774 138.236C145.774 137.111 145.07 135.847 144.083 135.284L142.674 134.441C141.688 133.879 140.138 133.879 139.293 134.441L128.162 140.906C127.739 141.187 127.316 141.609 126.893 142.171C126.612 142.733 126.471 143.295 126.471 143.857V156.646C126.471 157.77 127.175 159.035 128.162 159.597L129.571 160.44C129.711 160.44 129.711 160.581 129.852 160.581C129.852 160.581 129.852 160.581 129.993 160.581C129.993 160.581 130.134 160.581 130.275 160.581H130.416H130.557C130.557 160.581 130.698 160.581 130.839 160.581H130.98C130.98 160.581 131.12 160.581 131.261 160.581C131.261 160.581 131.261 160.581 131.402 160.581C131.543 160.581 131.543 160.581 131.684 160.581C131.825 160.581 131.825 160.581 131.966 160.581C132.107 160.581 132.389 160.44 132.529 160.3L143.661 153.835C144.647 153.273 145.352 152.008 145.352 150.884L145.774 138.236Z" fill="#0054A3"/>
<path d="M133.236 145.965V157.349C133.236 157.489 133.377 157.63 133.518 157.489L143.24 151.868C143.381 151.868 143.522 151.587 143.522 151.446V140.203C143.522 140.062 143.381 139.922 143.24 140.062L133.518 145.684C133.377 145.543 133.236 145.825 133.236 145.965ZM142.818 151.446L134.223 156.365C134.082 156.365 133.941 156.365 133.941 156.224V146.387C133.941 146.246 134.082 145.965 134.223 145.965L142.818 141.046C142.959 141.046 143.099 141.046 143.099 141.187V151.024C142.959 151.165 142.959 151.446 142.818 151.446Z" fill="white"/>
<path d="M145.774 137.814C145.633 136.971 144.928 136.549 144.083 137.111L132.952 143.576C132.529 143.857 132.106 144.279 131.684 144.841L126.752 142.03C127.034 141.468 127.456 141.046 128.02 140.765L139.151 134.301C140.138 133.738 141.688 133.738 142.533 134.301L143.942 135.144C144.787 135.706 145.633 136.83 145.774 137.814Z" fill="#0064E1"/>
<path opacity="0.1" d="M132.67 160.3C132.529 160.3 132.389 160.44 132.248 160.44C132.107 160.44 131.825 160.581 131.543 160.581C131.402 160.581 131.402 160.581 131.261 160.581C130.698 160.581 129.993 160.44 129.571 160.159L128.162 159.316C127.175 158.754 126.471 157.489 126.471 156.365V143.576C126.471 143.295 126.471 142.873 126.612 142.452C126.612 142.311 126.753 142.171 126.753 142.03C126.753 142.03 126.753 141.89 126.893 141.89L131.825 144.7C131.543 145.262 131.402 145.825 131.402 146.387V159.176C131.402 160.019 131.825 160.44 132.67 160.3Z" fill="black"/>
<path d="M136.759 148.073V152.008C136.759 152.289 136.9 152.289 137.041 152.149L140.704 147.933C140.845 147.792 140.845 147.511 140.563 147.511H137.322C136.9 147.511 136.759 147.792 136.759 148.073Z" fill="white"/>
<path d="M145.774 57.5674C145.774 56.4431 145.07 55.1783 144.083 54.6161L142.674 53.7729C141.688 53.2108 140.138 53.2108 139.293 53.7729L128.162 60.2376C127.739 60.5187 127.316 60.9403 126.893 61.5025C126.612 62.0646 126.471 62.6268 126.471 63.1889V75.9778C126.471 77.1021 127.175 78.3669 128.162 78.929L129.571 79.7723C129.711 79.7723 129.711 79.9128 129.852 79.9128C129.852 79.9128 129.852 79.9128 129.993 79.9128C129.993 79.9128 130.134 79.9128 130.275 79.9128H130.416H130.557C130.557 79.9128 130.698 79.9128 130.839 79.9128H130.98C130.98 79.9128 131.12 79.9128 131.261 79.9128C131.261 79.9128 131.261 79.9128 131.402 79.9128C131.543 79.9128 131.543 79.9128 131.684 79.9128C131.825 79.9128 131.825 79.9128 131.966 79.9128C132.107 79.9128 132.389 79.7723 132.529 79.6317L143.661 73.167C144.647 72.6049 145.352 71.34 145.352 70.2158L145.774 57.5674Z" fill="#0054A3"/>
<path d="M145.774 57.2864C145.633 56.4431 144.928 56.0215 144.083 56.5837L132.952 63.0484C132.529 63.3294 132.106 63.7511 131.684 64.3132L126.752 61.5025C127.034 60.9403 127.456 60.5187 128.02 60.2376L139.151 53.7729C140.138 53.2108 141.688 53.2108 142.533 53.7729L143.942 54.6161C144.787 55.0378 145.633 56.1621 145.774 57.2864Z" fill="#0064E1"/>
<path d="M143.664 61.2214C143.664 61.2214 143.523 61.2214 143.382 61.2214L133.66 66.8429C133.519 66.8429 133.519 66.9835 133.378 67.124L139.014 68.5294L143.664 61.2214Z" fill="white"/>
<path d="M139.154 69.6536L133.377 67.1239C133.377 67.2644 133.236 67.405 133.236 67.5455V74.0102C133.236 74.2913 133.377 74.4318 133.659 74.2913L143.381 68.6698C143.663 68.5293 143.804 68.1077 143.804 67.8266V61.3619C143.804 61.2213 143.804 61.0808 143.663 61.0808L139.154 69.6536Z" fill="white"/>
<path opacity="0.1" d="M132.67 79.7723C132.529 79.7723 132.389 79.9128 132.248 79.9128C132.107 79.9128 131.825 80.0534 131.543 80.0534C131.402 80.0534 131.402 80.0534 131.261 80.0534C130.698 80.0534 129.993 79.9128 129.571 79.6317L128.162 78.7885C127.175 78.2264 126.471 76.9615 126.471 75.8372V63.0484C126.471 62.7673 126.471 62.3457 126.612 61.9241C126.612 61.7836 126.753 61.643 126.753 61.5025C126.753 61.5025 126.753 61.3619 126.893 61.3619L131.825 64.1727C131.543 64.7348 131.402 65.297 131.402 65.8591V78.648C131.402 79.4912 131.825 79.9128 132.529 79.9128C132.529 79.7723 132.529 79.7723 132.67 79.7723C132.529 79.7723 132.529 79.7723 132.67 79.7723Z" fill="black"/>
<path d="M145.774 84.4098C145.774 83.2855 145.07 82.0207 144.083 81.4586L142.674 80.6153C141.688 80.0532 140.138 80.0532 139.293 80.6153L128.162 87.08C127.739 87.3611 127.316 87.7827 126.893 88.3449C126.612 88.907 126.471 89.4692 126.471 90.0313V102.82C126.471 103.944 127.175 105.209 128.162 105.771L129.571 106.615C129.711 106.615 129.711 106.755 129.852 106.755C129.852 106.755 129.852 106.755 129.993 106.755C129.993 106.755 130.134 106.755 130.275 106.755H130.416H130.557C130.557 106.755 130.698 106.755 130.839 106.755H130.98C130.98 106.755 131.12 106.755 131.261 106.755C131.261 106.755 131.261 106.755 131.402 106.755C131.543 106.755 131.543 106.755 131.684 106.755C131.825 106.755 131.825 106.755 131.966 106.755C132.107 106.755 132.389 106.615 132.529 106.474L143.661 100.009C144.647 99.4473 145.352 98.1825 145.352 97.0582L145.774 84.4098Z" fill="#0054A3"/>
<path d="M145.774 84.1288C145.633 83.2855 144.928 82.8639 144.083 83.4261L132.952 89.8908C132.529 90.1719 132.106 90.5935 131.684 91.1556L126.752 88.3449C127.034 87.7827 127.456 87.3611 128.02 87.08L139.151 80.6153C140.138 80.0532 141.688 80.0532 142.533 80.6153L143.942 81.4586C144.787 81.8802 145.633 83.145 145.774 84.1288Z" fill="#0064E1"/>
<path d="M135.205 91.5775V99.4476C135.064 99.4476 134.642 99.5881 134.501 99.7286C133.655 100.15 133.092 101.415 133.092 102.258C133.092 103.242 133.796 103.523 134.501 103.102C135.346 102.68 136.192 101.415 136.192 100.431V93.2639L140.841 90.5937V96.2152C140.701 96.2152 140.278 96.3557 140.137 96.4963C139.291 96.9179 138.869 97.9017 138.869 98.8854C138.869 99.8692 139.573 100.15 140.278 99.7286C141.123 99.307 141.687 98.1827 141.687 97.199V87.6425L135.205 91.5775Z" fill="white"/>
<path opacity="0.1" d="M132.67 106.615C132.529 106.615 132.389 106.755 132.248 106.755C132.107 106.755 131.825 106.896 131.543 106.896C131.402 106.896 131.402 106.896 131.261 106.896C130.698 106.896 129.993 106.755 129.571 106.474L128.162 105.631C127.175 105.069 126.471 103.804 126.471 102.68V89.8909C126.471 89.6098 126.471 89.1882 126.612 88.7666C126.612 88.626 126.753 88.4855 126.753 88.3449C126.753 88.3449 126.753 88.2044 126.893 88.2044L131.825 91.0151C131.543 91.5773 131.402 92.1394 131.402 92.7016V105.49C131.402 106.334 131.825 106.755 132.529 106.755C132.529 106.615 132.529 106.615 132.67 106.615C132.529 106.615 132.529 106.615 132.67 106.615Z" fill="black"/>
<path d="M145.774 111.253C145.774 110.128 145.07 108.863 144.083 108.301L142.674 107.458C141.688 106.896 140.138 106.896 139.293 107.458L128.162 113.923C127.739 114.204 127.316 114.625 126.893 115.188C126.612 115.75 126.471 116.312 126.471 116.874V129.663C126.471 130.787 127.175 132.052 128.162 132.614L129.571 133.457C129.711 133.457 129.711 133.598 129.852 133.598C129.852 133.598 129.852 133.598 129.993 133.598C129.993 133.598 130.134 133.598 130.275 133.598H130.416H130.557C130.557 133.598 130.698 133.598 130.839 133.598H130.98C130.98 133.598 131.12 133.598 131.261 133.598C131.261 133.598 131.261 133.598 131.402 133.598C131.543 133.598 131.543 133.598 131.684 133.598C131.825 133.598 131.825 133.598 131.966 133.598C132.107 133.598 132.389 133.457 132.529 133.317L143.661 126.852C144.647 126.29 145.352 125.025 145.352 123.901L145.774 111.253Z" fill="#0054A3"/>
<path d="M145.774 110.971C145.633 110.128 144.928 109.707 144.083 110.269L132.952 116.733C132.529 117.015 132.106 117.436 131.684 117.998L126.752 115.188C127.034 114.625 127.456 114.204 128.02 113.923L139.151 107.458C140.138 106.896 141.688 106.896 142.533 107.458L143.942 108.301C144.787 108.863 145.633 109.988 145.774 110.971Z" fill="#0064E1"/>
<path d="M133.236 118.841V130.787L143.663 124.744V112.798L133.236 118.841ZM142.959 124.463L133.8 129.663V119.123L142.959 113.923V124.463Z" fill="white"/>
<path d="M133.941 129.663V126.571L137.182 121.512L140.423 123.901L139.577 122.636L140.846 120.95L142.959 122.355V124.463L133.941 129.663Z" fill="white"/>
<path d="M140.844 117.155C141.266 117.015 141.548 117.155 141.548 117.577C141.548 117.998 141.266 118.56 140.844 118.841C140.421 118.981 140.14 118.841 140.14 118.419C140.14 117.998 140.421 117.436 140.844 117.155Z" fill="white"/>
<path d="M145.774 165.078C145.774 163.954 145.07 162.689 144.083 162.127L142.674 161.284C141.688 160.722 140.138 160.722 139.293 161.284L128.162 167.748C127.739 168.029 127.316 168.451 126.893 169.013C126.612 169.575 126.471 170.138 126.471 170.7V183.489C126.471 184.613 127.175 185.878 128.162 186.44L129.571 187.283C129.711 187.283 129.711 187.424 129.852 187.424C129.852 187.424 129.852 187.424 129.993 187.424C129.993 187.424 130.134 187.424 130.275 187.424H130.416H130.557C130.557 187.424 130.698 187.424 130.839 187.424H130.98C130.98 187.424 131.12 187.424 131.261 187.424C131.261 187.424 131.261 187.424 131.402 187.424C131.543 187.424 131.543 187.424 131.684 187.424C131.825 187.424 131.825 187.424 131.966 187.424C132.107 187.424 132.389 187.283 132.529 187.142L143.661 180.678C144.647 180.116 145.352 178.851 145.352 177.727L145.774 165.078Z" fill="#0054A3"/>
<path d="M145.774 164.657C145.633 163.813 144.928 163.392 144.083 163.954L132.952 170.419C132.529 170.7 132.106 171.121 131.684 171.683L126.752 168.873C127.034 168.31 127.456 167.889 128.02 167.608L139.151 161.143C140.138 160.581 141.688 160.581 142.533 161.143L143.942 161.986C144.787 162.548 145.633 163.673 145.774 164.657Z" fill="#0064E1"/>
<path d="M138.305 169.435C139.714 168.592 140.841 169.294 140.841 170.84C140.841 172.527 139.714 174.354 138.305 175.197C136.896 176.04 135.769 175.337 135.769 173.792C135.909 172.246 137.037 170.278 138.305 169.435Z" fill="white"/>
<path d="M143.237 177.867C143.237 175.197 141.405 174.073 139.15 175.337L137.741 176.181C135.487 177.445 133.655 180.678 133.655 183.208V183.91L143.237 178.429V177.867Z" fill="white"/>
<path opacity="0.1" d="M132.67 187.283C132.529 187.283 132.389 187.424 132.248 187.424C132.107 187.424 131.825 187.564 131.543 187.564C131.402 187.564 131.402 187.564 131.261 187.564C130.698 187.564 129.993 187.424 129.571 187.142L128.162 186.299C127.175 185.737 126.471 184.472 126.471 183.348V170.559C126.471 170.278 126.471 169.856 126.612 169.435C126.612 169.294 126.753 169.154 126.753 169.013C126.753 169.013 126.753 168.873 126.893 168.873L131.825 171.683C131.543 172.246 131.402 172.808 131.402 173.37V186.159C131.402 187.002 131.825 187.423 132.67 187.283Z" fill="black"/>
<path d="M264.137 141.468H259.346L253.992 141.047C253.992 141.047 253.428 144.279 256.387 144.7C259.487 145.122 263.996 145.684 264.701 145.544C265.687 145.263 264.137 141.468 264.137 141.468Z" fill="#EEBD9B"/>
<path d="M267.516 118.28C267.516 118.28 262.585 123.339 261.88 126.009C261.176 128.679 262.726 132.755 263.289 133.879C263.712 135.003 263.43 150.041 263.43 150.041H283.157V118.139L267.516 118.28Z" fill="#0064E1"/>
<path d="M255.966 103.242C255.966 103.242 256.389 107.036 257.234 109.566V111.534C257.234 111.815 257.375 111.955 257.657 111.955L258.925 111.815V113.361C258.925 113.501 259.066 113.782 259.207 113.782H260.193C260.334 113.782 260.475 113.923 260.475 114.204L260.334 114.907C260.334 115.047 260.334 115.328 260.616 115.328C261.32 115.469 262.87 115.609 264.702 114.344C266.674 112.939 267.802 113.782 267.802 114.907C267.802 116.171 266.815 119.825 268.365 120.528C269.774 121.231 273.86 120.809 274.706 120.106C275.692 119.123 274.706 116.734 273.297 115.469C272.31 114.485 270.901 103.664 268.647 102.539C266.393 101.415 255.966 103.242 255.966 103.242Z" fill="#EDBB98"/>
<path d="M278.65 133.598L278.791 140.344C278.791 140.906 278.368 141.328 277.805 141.328C277.241 141.328 276.677 141.328 275.268 140.765C272.168 139.501 264.701 135.425 263.714 134.863C263.714 134.863 263.573 134.863 263.573 134.722C263.433 134.301 262.446 133.036 260.192 133.036C257.515 133.176 256.81 133.739 257.092 134.722C257.233 135.566 257.515 135.425 257.515 135.425L257.233 135.847C257.233 135.847 257.515 136.69 258.783 136.69C259.91 136.69 261.319 136.128 261.742 136.549C262.024 136.83 273.859 144.7 276.536 146.527C276.959 146.809 277.382 146.949 277.805 147.09C279.495 147.511 283.722 148.073 284.286 145.122C285.131 141.609 285.131 133.458 285.131 133.458L278.65 133.598Z" fill="#EEBD9B"/>
<path d="M278.648 121.793C278.366 121.652 277.943 121.793 277.943 122.214V134.301C277.943 134.582 278.084 134.863 278.507 134.863C278.93 134.863 279.634 134.863 281.043 134.863C283.157 134.863 284.988 134.863 285.834 134.863C286.116 134.863 286.257 134.722 286.257 134.441L286.116 126.009C286.116 125.868 285.975 125.728 285.834 125.587L278.648 121.793Z" fill="#0054A3"/>
<path d="M292.881 127.133C293.726 123.339 287.245 118.139 287.245 118.139C287.245 118.139 284.004 116.874 283.441 113.08C282.877 109.285 279.213 108.161 277.664 106.756C275.973 105.35 274.986 102.258 274.986 102.258L274.846 101.415C274.846 101.415 272.309 89.7506 263.151 92.5613C263.151 92.5613 258.924 94.1072 257.233 97.3396C257.233 97.3396 251.174 98.3233 252.442 102.961C253.71 107.599 256.528 104.788 256.528 104.788C256.528 104.788 257.796 102.258 259.064 104.085C260.333 105.772 263.432 106.896 264.419 105.35C265.405 103.804 267.237 102.539 267.8 105.069V106.334C267.8 106.334 272.45 111.955 272.873 114.063C273.296 116.172 274.564 118.982 276.818 120.247C278.932 121.512 281.468 126.712 282.454 129.523C283.3 132.193 291.613 132.614 292.881 127.133Z" fill="#1B1553"/>
<path d="M246.384 127.274L234.407 127.555L249.202 143.998L261.601 143.576L246.384 127.274Z" fill="#18114F"/>
<path d="M245.679 139.36C245.679 139.36 244.411 141.609 245.538 142.311C246.665 142.874 247.793 143.155 248.215 142.592C248.638 142.03 249.061 140.203 248.356 140.344C247.793 140.344 247.511 140.484 247.511 140.484V139.922C247.511 139.782 247.511 139.641 247.37 139.501C246.806 139.079 245.961 138.657 245.679 139.36Z" fill="#EEBD9B"/>
<path d="M266.956 150.041L263.434 149.9L263.293 243.92H270.902L274.988 182.505L266.956 150.041Z" fill="#DE051F"/>
<path d="M283.157 150.041C283.157 150.041 283.298 153.273 283.439 154.538C283.579 155.241 288.088 162.689 284.566 171.684C284.566 171.824 284.425 171.965 284.425 172.246C284.284 174.213 283.861 186.44 286.397 192.905L299.783 236.05L294.711 239.704C294.711 239.704 277.239 202.18 276.675 200.494C276.253 198.807 264.98 161.987 266.389 151.727L266.671 149.9L283.157 150.041Z" fill="#EE384E"/>
<path d="M263.293 243.919C263.293 243.919 258.784 246.449 256.671 247.011C255.121 247.433 254.698 248.698 254.698 249.119C254.698 249.26 254.698 249.4 254.98 249.4H270.902V243.919H263.293Z" fill="#201B56"/>
<path d="M294.715 239.703C294.715 239.703 293.306 243.498 290.488 245.747C287.67 247.995 290.488 249.401 290.488 249.401L302.183 242.093C302.324 241.812 302.887 240.547 302.183 239.422C301.478 238.017 299.506 236.049 299.506 236.049L294.715 239.703Z" fill="#201B56"/>
</svg>
