<svg width="29" height="22" viewBox="0 0 29 22" fill="none" xmlns="http://www.w3.org/2000/svg">
<path d="M18.0482 20.907C17.7708 20.907 17.4935 20.8049 17.2745 20.5859C16.8512 20.1626 16.8512 19.4619 17.2745 19.0386L25.3614 10.9517L17.2745 2.86481C16.8512 2.44148 16.8512 1.74081 17.2745 1.31749C17.6978 0.89417 18.3985 0.89417 18.8218 1.31749L27.6824 10.178C28.1057 10.6013 28.1057 11.302 27.6824 11.7253L18.8218 20.5859C18.6029 20.8049 18.3255 20.907 18.0482 20.907Z" fill="white" stroke="white"/>
<path d="M26.6621 12.0451L2.0948 12.0451C1.49631 12.0451 1 11.5488 1 10.9503C1 10.3518 1.49631 9.85547 2.0948 9.85547L26.6621 9.85547C27.2606 9.85547 27.7569 10.3518 27.7569 10.9503C27.7569 11.5488 27.2606 12.0451 26.6621 12.0451Z" fill="white" stroke="white"/>
</svg>


