<svg width="70" height="125" viewBox="0 0 70 125" fill="none" xmlns="http://www.w3.org/2000/svg">
<g opacity="0.2">
<path d="M4.93861 0.263197C2.60871 1.03983 0.589468 3.36973 0.123488 5.69963C-0.808471 10.2041 3.696 14.7089 8.20047 13.7769C11.6177 13.1556 14.1029 9.58279 13.7922 6.47626C13.4816 4.14636 11.773 1.81616 9.59841 0.728873C8.35579 -0.0477591 6.18122 -0.202783 4.93861 0.263197Z" fill="#2275E3"/>
<path d="M32.5886 0.262106C29.3268 1.34939 27.1522 4.9213 27.7735 8.18315C28.2395 10.8237 30.7247 13.1545 33.2099 13.7758C37.4038 14.7078 41.7529 10.669 41.2869 6.47517C40.9763 4.14527 39.2677 1.81507 37.0931 0.727782C36.0058 -0.048851 33.9866 -0.203874 32.5886 0.262106Z" fill="#2275E3"/>
<path d="M60.3873 0.263197C58.0574 1.03983 56.0382 3.36973 55.5722 5.69963C54.6403 10.2041 59.1447 14.7089 63.6492 13.7769C67.0664 13.1556 69.5516 9.58279 69.241 6.47626C68.9303 4.14636 67.2217 1.81616 65.0471 0.728873C63.8045 -0.0477591 61.7853 -0.202783 60.3873 0.263197Z" fill="#2275E3"/>
<path d="M4.93861 27.911C2.60871 28.6876 0.589468 31.0175 0.123488 33.3474C-0.808471 37.8519 3.696 42.3558 8.20047 41.2685C11.6177 40.6472 14.1029 37.0759 13.7922 33.9693C13.4816 31.6395 11.773 29.3092 9.59841 28.222C8.35579 27.6007 6.18122 27.445 4.93861 27.911Z" fill="#2275E3"/>
<path d="M32.5886 27.9115C29.3268 28.9988 27.1522 32.5707 27.7735 35.8326C28.2395 38.4731 30.7247 40.8039 33.2099 41.4252C37.4038 42.3572 41.7529 38.3184 41.2869 34.1246C40.9763 31.7947 39.2677 29.4645 37.0931 28.3772C36.0058 27.6006 33.9866 27.4455 32.5886 27.9115Z" fill="#2275E3"/>
<path d="M60.3873 27.911C58.0574 28.6876 56.0382 31.0175 55.5722 33.3474C54.6403 37.8519 59.1447 42.3558 63.6492 41.2685C67.0664 40.6472 69.5516 37.0759 69.241 33.9693C68.9303 31.6395 67.2217 29.3092 65.0471 28.222C63.8045 27.6007 61.7853 27.445 60.3873 27.911Z" fill="#2275E3"/>
<path d="M4.93861 55.7149C2.60871 56.4915 0.589468 58.8214 0.123488 61.1513C-0.808471 65.6558 3.696 70.159 8.20047 69.2271C11.6177 68.6058 14.1029 65.0345 13.7922 61.9279C13.4816 59.598 11.773 57.2678 9.59841 56.1806C8.35579 55.4039 6.18122 55.2489 4.93861 55.7149Z" fill="#2275E3"/>
<path d="M32.5827 55.7149C30.2528 56.4915 28.2335 58.8214 27.7675 61.1513C26.8356 65.6558 31.34 70.159 35.8445 69.2271C39.2617 68.6058 41.7469 65.0345 41.4363 61.9279C41.1256 59.598 39.417 57.2678 37.2425 56.1806C35.9998 55.4039 33.9806 55.2489 32.5827 55.7149Z" fill="#2275E3"/>
<path d="M60.3873 55.7149C58.0574 56.4915 56.0382 58.8214 55.5722 61.1513C54.6403 65.6558 59.1447 70.159 63.6492 69.2271C67.0664 68.6058 69.5516 65.0345 69.241 61.9279C68.9303 59.598 67.2217 57.2678 65.0471 56.1806C63.8045 55.4039 61.7853 55.2489 60.3873 55.7149Z" fill="#2275E3"/>
<path d="M4.93861 83.5179C2.60871 84.2946 0.589468 86.6245 0.123488 88.9544C-0.808471 93.4588 3.696 97.9642 8.20047 96.8769C11.6177 96.2556 14.1029 92.6828 13.7922 89.5763C13.4816 87.2464 11.773 84.9162 9.59841 83.8289C8.35579 83.2076 6.18122 83.052 4.93861 83.5179Z" fill="#2275E3"/>
<path d="M32.5827 83.5179C30.2528 84.2946 28.2335 86.6245 27.7675 88.9544C26.8356 93.4588 31.34 97.9642 35.8445 96.8769C39.2617 96.2556 41.7469 92.6828 41.4363 89.5763C41.1256 87.2464 39.417 84.9162 37.2425 83.8289C35.9998 83.2076 33.9806 83.052 32.5827 83.5179Z" fill="#2275E3"/>
<path d="M60.3873 83.5179C58.0574 84.2946 56.0382 86.6245 55.5722 88.9544C54.6403 93.4588 59.1447 97.9642 63.6492 96.8769C67.0664 96.2556 69.5516 92.6828 69.241 89.5763C68.9303 87.2464 67.2217 84.9162 65.0471 83.8289C63.8045 83.2076 61.7853 83.052 60.3873 83.5179Z" fill="#2275E3"/>
<path d="M4.93861 111.165C2.60871 111.941 0.589468 114.271 0.123488 116.601C-0.808471 121.105 3.696 125.61 8.20047 124.678C11.6177 124.057 14.1029 120.484 13.7922 117.378C13.4816 115.048 11.773 112.719 9.59841 111.632C8.35579 110.855 6.18122 110.699 4.93861 111.165Z" fill="#2275E3"/>
<path d="M32.5827 111.165C30.2528 111.941 28.2335 114.271 27.7675 116.601C26.8356 121.105 31.34 125.61 35.8445 124.678C39.2617 124.057 41.7469 120.484 41.4363 117.378C41.1256 115.048 39.417 112.719 37.2425 111.632C35.9998 110.855 33.9806 110.699 32.5827 111.165Z" fill="#2275E3"/>
<path d="M60.3873 111.165C58.0574 111.941 56.0382 114.271 55.5722 116.601C54.6403 121.105 59.1447 125.61 63.6492 124.678C67.0664 124.057 69.5516 120.484 69.241 117.378C68.9303 115.048 67.2217 112.719 65.0471 111.632C63.8045 110.855 61.7853 110.699 60.3873 111.165Z" fill="#2275E3"/>
</g>
</svg>
