<svg width="51" height="51" viewBox="0 0 51 51" fill="none" xmlns="http://www.w3.org/2000/svg">
<path d="M26.5676 50.595C25.8895 50.9001 25.2058 51.0075 24.5221 50.595C23.4993 49.9903 23.2789 48.5946 24.0587 47.7018C24.1661 47.5831 24.2791 47.4701 24.3921 47.3571C30.9017 40.8474 37.417 34.3321 43.9267 27.8225C44.0397 27.7094 44.1471 27.6021 44.2601 27.4891C44.2544 27.4382 44.2488 27.3874 44.2431 27.3365C44.0906 27.3648 43.938 27.4156 43.7911 27.4156C29.9694 27.4156 16.1476 27.4156 2.32592 27.4156C1.51221 27.4156 0.828474 27.2065 0.393365 26.4663C-0.312976 25.2627 0.455524 23.7483 1.84561 23.6014C2.04338 23.5844 2.24681 23.5844 2.43894 23.5844C16.2155 23.5844 29.9807 23.5844 43.7515 23.5901C43.9098 23.5901 44.068 23.624 44.2262 23.6353C44.2431 23.5957 44.2601 23.5562 44.2714 23.5222C44.164 23.4149 44.0623 23.3132 43.955 23.2058C37.3888 16.6396 30.817 10.0678 24.2508 3.50165C23.4032 2.65404 23.358 1.46739 24.1491 0.698888C24.7368 0.122513 25.4375 -0.00180431 26.2116 0.275081C26.3359 0.320289 26.4546 0.371143 26.5733 0.410698C34.5804 8.4178 42.5875 16.4249 50.5946 24.432C50.9506 25.1497 50.9506 25.8617 50.5946 26.5793C42.5818 34.5808 34.5747 42.5879 26.5676 50.595Z" fill="#2A2A2A"/>
</svg>
