<svg width="471" height="413" viewBox="0 0 471 413" fill="none" xmlns="http://www.w3.org/2000/svg">
<path d="M142.434 366.498C142.434 366.498 145.101 365.421 144.896 362.343C144.691 359.317 143.152 357.111 146.384 358.035C149.615 358.958 150.743 359.317 153.052 358.804C155.411 358.291 157.36 357.317 156.334 360.394C155.309 363.42 154.18 365.985 156.591 366.498C159.002 367.011 161.617 365.164 161.925 369.934C162.233 374.705 158.386 380.142 152.128 380.295C145.922 380.501 143.101 377.885 143.101 377.885C143.101 377.885 141.408 375.525 144.024 374.961C146.64 374.397 149.256 373.268 147.974 372.089C146.64 370.909 142.28 370.755 142.28 370.755C142.28 370.755 137.049 369.627 142.434 366.498Z" fill="#649EEA"/>
<path d="M171.056 367.267C170.594 364.241 170.953 362.036 176.596 361.215C182.289 360.394 185.572 363.78 185.982 367.267C186.341 370.755 181.417 372.038 181.417 372.038C181.417 372.038 177.929 373.012 179.673 376.09C181.417 379.116 182.289 382.091 178.237 382.553C174.236 383.014 169.774 381.937 167.312 380.296C164.85 378.654 162.336 374.5 165.157 372.397C165.157 372.397 165.927 371.884 168.645 371.73C171.364 371.473 171.056 367.267 171.056 367.267Z" fill="#023EA1"/>
<path d="M151.103 366.754C151.103 366.754 155.77 377.423 156.437 384.655" stroke="#83DAFF" stroke-miterlimit="10" stroke-linecap="round" stroke-linejoin="round"/>
<path d="M177.262 368.499C177.262 368.499 168.953 380.911 166.901 385.015" stroke="#579FD5" stroke-miterlimit="10" stroke-linecap="round" stroke-linejoin="round"/>
<path d="M162.386 385.527C162.386 385.527 163.771 358.753 171.772 341.98" stroke="#FCBE42" stroke-miterlimit="10"/>
<path d="M178.338 332.338C178.338 332.338 178.954 340.545 171.003 343.776C171.003 343.776 169.26 336.698 178.338 332.338Z" fill="#FCBE42"/>
<path d="M166.335 358.497C166.335 358.497 169.259 351.521 178.389 352.444C178.337 352.393 177.671 359.368 166.335 358.497Z" fill="#FCBE42"/>
<path d="M163.309 376.09C163.309 376.09 164.847 368.653 173.926 367.781C173.926 367.729 174.593 374.808 163.309 376.09Z" fill="#FCBE42"/>
<path d="M163.001 376.141C163.001 376.141 164.027 368.653 155.769 364.754C155.82 364.754 152.845 371.115 163.001 376.141Z" fill="#FCBE42"/>
<path d="M166.438 358.446C166.438 358.446 168.438 351.111 160.745 346.238C160.693 346.187 156.949 352.137 166.438 358.446Z" fill="#FCBE42"/>
<path d="M153.565 383.835H172.697C172.697 383.835 174.8 383.989 174.595 386.861C174.441 389.477 171.107 388.913 169.363 388.913C167.619 388.913 153.155 388.913 153.155 388.913C153.155 388.913 150.847 389.323 150.847 386.656C150.744 383.989 151.667 383.835 153.565 383.835Z" fill="#0054A5"/>
<path d="M153.155 388.913L156.028 405.839H168.851L171.056 393.17L153.155 388.913Z" fill="#0054A5"/>
<path d="M153.155 388.913L171.056 393.17L171.774 388.913H153.155Z" fill="#006AD5"/>
<path d="M230.327 232.095H240.673L251.871 241.346C238.726 242.32 227.527 243.293 221.685 240.372C217.011 238.035 213.084 215.207 211.947 204.982C211.947 204.333 212.434 203.467 212.434 201.909C212.434 200.351 212.428 199.16 212.103 199.246C209.182 197.557 210.156 192.172 210.156 190.711C210.156 189.542 211.454 188.926 212.103 188.763L215.511 189.737C215.349 189.25 215.122 188.082 215.511 187.303C215.998 186.329 217.459 186.329 217.946 186.329C218.433 186.329 218.92 189.25 219.406 189.737C219.893 190.224 219.893 194.606 218.92 194.606C218.213 194.606 218.922 199.416 219.302 202.489C219.674 202.613 219.893 202.889 219.893 203.369C219.893 205.596 225.055 222.142 228.49 230.859C228.788 231.613 229.517 232.095 230.327 232.095Z" fill="#FFBF99"/>
<path d="M244.169 273.656C244.169 273.656 248.54 334.165 249.167 344.896C249.804 355.626 252.101 391.773 252.101 391.773H262.835L270.078 272.993L244.169 273.656Z" fill="#133282"/>
<path d="M284.555 274.289C284.555 274.289 283.291 304.775 282.724 312.504C282.168 320.233 288.289 346.663 291.779 358.408C295.279 370.162 300.206 383.172 300.206 383.172L291.779 387.99C291.779 387.99 273.579 355.647 267.054 336.565C260.538 317.483 255.682 288.924 256.482 272.833L284.555 274.289Z" fill="#1B3D98"/>
<path d="M265.221 202.064C265.221 202.064 266.192 206.903 268.145 211.751C270.097 216.6 271.068 218.527 271.068 218.527C271.068 218.527 265.221 225.303 259.353 224.329C253.506 223.365 253.506 219.491 253.506 219.491C253.506 219.491 258.878 215.134 258.878 209.322C258.878 203.51 258.878 203.52 258.878 203.52L265.221 202.064Z" fill="#FFB48F"/>
<path d="M252.312 218.376C252.312 218.376 247.456 221.057 245.443 222.753C243.42 224.45 237.583 231.115 237.583 231.115L245.575 238.814L251.139 232.55L252.312 218.376Z" fill="#F5BE42"/>
<path d="M268.601 216.108C268.601 216.108 265.677 219.982 261.772 220.946C257.867 221.91 255.925 219.009 255.925 219.009L254.852 217.623C254.852 217.623 253.77 216.78 252.576 217.774C251.382 218.748 249.106 221.257 247.133 225.313C245.151 229.358 244.574 234.899 244.159 247.838C243.744 260.777 244.159 274.74 244.159 274.74H284.515L284.99 254.634C284.99 254.634 280.701 227.892 276.482 222.452C272.263 217.011 271.039 215.827 271.039 215.827C271.039 215.827 270.068 214.502 268.601 216.108Z" fill="#F39F11"/>
<path d="M253.009 188.986C253.009 188.986 250.085 192.861 250.085 199.646C250.085 206.422 251.057 211.27 253.99 211.27C256.924 211.27 262.782 209.333 263.753 207.396C264.724 205.458 266.677 205.458 266.677 201.594C266.677 197.729 261.8 189.006 257.885 189.006C253.98 189.006 253.009 188.986 253.009 188.986Z" fill="#FFBF99"/>
<path d="M250.089 188.986C250.089 188.986 247.165 181.246 249.117 180.263C251.07 179.299 254.965 181.226 255.946 182.2C256.917 183.164 258.87 183.164 259.851 183.164C259.851 183.164 269.614 183.164 271.566 185.101C273.519 187.038 273.519 188.002 273.519 188.976C273.519 189.939 273.529 193.744 274.49 195.751C274.905 196.625 275.461 200.59 273.519 204.474C271.576 208.349 269.614 209.313 268.643 209.313C267.671 209.313 266.791 209.313 266.69 208.349C266.579 207.305 266.194 205.829 265.719 204.474C265.254 203.179 264.748 200.6 264.748 200.6C264.748 200.6 263.776 195.761 261.824 193.824C259.871 191.887 259.871 191.887 255.976 190.923C252.041 189.969 251.06 191.887 250.089 188.986Z" fill="#170856"/>
<path d="M263.247 196.062C261.8 197.709 263.753 200.61 263.753 200.61C263.753 200.61 266.677 201.573 266.677 198.672C266.677 195.771 264.704 194.406 263.247 196.062Z" fill="#FFBF99"/>
<path d="M282.796 236.817C282.796 236.817 286.458 250.8 285.821 259.563C285.184 268.316 282.563 275.905 280.661 281.185C278.76 286.465 277.637 287.73 277.566 291.052C277.495 294.375 275.927 298.31 273.984 300.288C272.042 302.265 270.484 303.249 270.484 303.249C270.484 303.249 268.177 304.313 268.542 302.185C268.542 302.185 266.994 302.305 267.581 301.121C267.581 301.121 265.517 301.161 267.024 299.545C268.532 297.919 271.314 296.353 271.314 296.353C271.314 296.353 272.902 293.833 270.636 295.098C268.37 296.353 266.387 296.403 268.481 294.355C270.585 292.307 273.013 288.724 274.794 282.169C276.574 275.624 278.689 262.685 276.17 252.747C273.651 242.81 270.464 239.497 270.464 239.497L282.796 236.817Z" fill="#FFBF99"/>
<path d="M291.424 387.336C291.424 387.336 289.482 392.746 287.327 395.236C285.172 397.725 283.473 399.542 283.473 399.542C283.473 399.542 280.964 403.527 283.796 402.343C286.619 401.158 302.239 390.749 302.239 390.749C302.239 390.749 304.465 389.604 303.433 387.717C302.401 385.83 299.781 382.176 299.781 382.176L291.424 387.336Z" fill="#170856"/>
<path d="M262.733 399.413C262.733 399.413 263.31 400.989 260.032 400.989C256.754 400.989 238.878 400.989 238.878 400.989C238.878 400.989 235.438 400.307 238.605 398.781C241.791 397.255 251.321 392.999 251.321 392.999C251.321 392.999 252.05 392.808 252.03 390.991H262.854L262.733 399.413Z" fill="#170856"/>
<path d="M267.508 227.501C267.508 227.501 266.82 221.006 271.585 220.384C276.35 219.762 279.375 226.066 280.963 230.161C282.551 234.257 283.351 237.258 283.351 237.258C283.351 237.258 273.102 241.354 270.401 241.354C270.391 241.354 268.115 234.548 267.508 227.501Z" fill="#F5BE42"/>
<g filter="url(#filter0_d_2428_10828)">
<path d="M293.102 92.8995L247.467 119.266C245.777 120.281 244.087 120.281 242.397 119.266L196.762 92.8995C195.072 91.8854 194.058 90.1953 194.058 88.5051V36.1094C194.058 34.4192 195.072 32.7289 196.762 31.7148L242.397 5.34799C244.087 4.33387 245.777 4.33387 247.467 5.34799L293.102 31.7148C294.793 32.7289 295.807 34.4192 295.807 36.1094V88.167C295.469 90.1953 294.455 91.8854 293.102 92.8995Z" fill="white"/>
</g>
<path d="M244.763 62.1378L280.257 41.1796L244.763 22.2495V62.1378Z" fill="#0A489B"/>
<path d="M244.762 101.012L209.269 81.0679V41.1796L244.762 22.2495V101.012Z" fill="#0F68DE"/>
<path d="M243.41 62.8164L209.269 81.0704" stroke="#D9D9D9" stroke-width="0.1" stroke-miterlimit="10" stroke-linecap="square" stroke-linejoin="bevel"/>
<path d="M244.762 62.1378L209.269 41.1796L244.762 22.2495V62.1378Z" fill="#0F68DE"/>
<path d="M244.762 102.028L209.269 81.0697L244.762 62.1396V102.028Z" fill="#3F86E4"/>
<path d="M38.8478 306.016L59.2656 318.921L36.0079 310.049L38.8478 306.016Z" fill="#FFBF99"/>
<path d="M29.3351 337.221C29.3351 337.221 6.53125 338.562 16.4551 339.882C26.379 341.223 40.0508 341.223 44.886 340.688C49.7213 340.144 33.0829 337.483 29.3351 337.221Z" fill="#90A7CB"/>
<path d="M33.6335 313.318L40.0101 311.118L82.0388 326.443C82.0388 326.443 87.4019 329.366 87.8136 335.494C88.2254 341.611 90.2207 396.041 90.2207 396.041H82.3027L76.9396 352.265L74.7964 335.756L65.1365 330.298L40.4641 317.791L33.6335 313.318Z" fill="#003EB0"/>
<path d="M16.6229 314.241C15.2293 319.112 13.0862 333.421 20.0962 336.741C20.3918 336.878 20.7086 336.982 21.0358 337.035L59.5806 343.037C59.7601 343.058 59.929 343.089 60.1085 343.089C60.7736 343.089 62.8323 343.309 61.9138 345.886C61.0058 348.495 49.6356 379.48 46.3206 388.531C45.7927 389.976 43.7446 394.135 45.0432 394.984L48.8227 398.65C50.4485 399.718 53.3201 394.219 54.2703 392.532L79.5022 347.677C79.5761 347.541 79.6606 347.384 79.7028 347.217C80.294 345.666 82.8595 337.579 74.6353 333.515C66.4112 329.43 41.6226 316.817 36.8296 314.366C36.3017 314.094 34.0741 312.805 33.4829 312.826L19.8217 314.88C18.407 314.953 17.024 312.868 16.6229 314.241Z" fill="#0064E1"/>
<path d="M104.969 309.452C104.969 309.431 104.979 309.4 104.979 309.379C105.032 309.064 105.391 306.76 103.765 306.76H95.3402C95.034 306.76 94.7912 306.519 94.7912 306.215V300.338C94.7912 299.993 95.0763 299.71 95.4247 299.71L111.662 299.584C111.704 299.584 111.725 299.584 111.767 299.574C112.084 299.521 113.657 299.113 114.259 296.274C114.259 296.264 114.259 296.253 114.27 296.222L117.563 273.7C117.627 273.218 117.616 272.736 117.458 272.275C117.162 271.343 116.307 270.159 113.858 270.159C110.268 270.159 84.1072 270.055 78.4485 270.034C77.1922 270.034 76.0098 270.683 75.408 271.773C74.9963 272.506 74.6268 273.585 74.4156 275.083C73.8033 279.43 71.7657 293.456 71.3857 295.981C71.3434 296.285 71.3434 296.588 71.4068 296.892C71.6285 297.877 72.3464 299.857 74.6796 299.961C77.3611 300.077 87.9395 299.689 90.6633 299.595C91.0223 299.584 91.3073 299.867 91.3179 300.202L91.3707 306.383C91.3707 306.728 91.0856 307.011 90.7372 307.011L81.7002 307.074C81.6579 307.074 81.6052 307.074 81.5735 307.085C81.3307 307.147 80.56 307.451 80.5705 308.394C80.5916 310.154 80.6339 309.798 80.6339 309.798L104.356 309.986C104.662 309.986 104.916 309.756 104.958 309.452H104.969Z" fill="#0064B7"/>
<path d="M20.384 257.821C20.384 257.821 14.0391 255.077 11.2625 263.499C11.2625 263.499 9.39385 269.26 8.04252 270.957C6.69118 272.633 3.13334 273.796 3.13334 273.796C3.13334 273.796 -0.171095 275.472 0.00838089 280.364C0.187855 285.235 0.641817 289.676 2.41545 292.693C3.76678 294.956 3.02779 296.475 2.59494 297.082C2.37323 297.386 2.28875 297.753 2.30987 298.13C2.38377 299.083 2.90109 300.623 5.36095 300.686C8.93988 300.78 13.564 302.236 12.8461 298.79C12.1282 295.333 10.8191 278.164 10.8191 278.164L13.5006 271.418L17.618 268.757L19.5817 267.417C19.5817 267.417 24.3008 261.383 24.3008 259.99C24.3008 258.576 20.384 257.821 20.384 257.821Z" fill="#170856"/>
<path d="M24.6797 257.998L29.7683 255.432L29.9478 247.45L32.2704 244.611L36.5673 245.857L42.2893 245.679H46.7656C46.7656 245.679 46.2272 257.925 41.7614 262.702C41.7614 262.702 36.4933 263.77 34.5191 262.429C34.5191 262.429 32.1965 260.397 32.1965 263.948C32.1965 267.499 31.8376 271.668 31.8376 271.668C31.8376 271.668 30.2329 274.507 24.1413 271.846C24.1413 271.846 20.8368 270.076 19.5805 267.405" fill="#FFBF99"/>
<path d="M43.5458 236.22C43.5458 236.22 31.6055 226.373 24.2259 236.22C16.8463 246.067 18.1871 253.389 20.2036 255.515C20.2036 255.515 26.6013 262.335 31.5421 255.044C31.5421 255.044 32.5028 253.818 31.8799 251.336C31.8799 251.336 30.0113 245.878 34.6988 247.167C39.3968 248.455 43.4191 248.413 45.161 246.507C46.903 244.6 47.6209 246.685 47.5364 247.313C47.4414 247.942 48.2544 251.933 50.6298 248.298C53.0052 244.663 49.9963 238.179 47.3675 236.451C47.3464 236.451 45.0766 235.204 43.5458 236.22Z" fill="#170856"/>
<path d="M20.7837 255.62C20.7837 255.62 20.1503 257.621 20.2981 258.008C20.2981 258.008 23.0324 260.009 23.7398 260.093C23.7398 260.093 24.7638 258.448 24.5844 257.788C24.5949 257.799 21.1004 255.714 20.7837 255.62Z" fill="#EA4E59"/>
<path d="M19.7615 267.394C19.6876 267.32 19.5609 267.404 19.4554 267.394C18.3363 267.268 10.9673 266.849 10.091 276.685C9.26753 285.945 14.7679 310.352 16.2248 315.978L42.3225 311.997C41.8369 309.619 41.1295 304.172 41.1295 303.104C41.1295 303.104 39.9788 292.618 39.7571 289.58C39.7148 289.119 39.8838 288.669 40.211 288.334C41.3935 287.077 44.1384 283.473 41.6046 279.566C41.6046 279.566 36.1043 270.515 32.2192 268.588C32.2086 268.556 28.1651 275.533 19.7615 267.394Z" fill="#FCBE42"/>
<path d="M24.016 290.418C23.7098 289.287 22.4535 288.69 21.3766 289.182L17.1959 291.068C16.647 291.309 16.2458 291.791 16.1191 292.377L15.9396 293.131C15.834 293.55 15.8868 294.001 16.0769 294.388L20.511 303.491C20.6376 303.764 20.7432 304.036 20.8066 304.319C21.0283 305.22 21.9995 307.42 26.1063 306.351L52.0034 299.856C52.0773 299.836 57.6093 297.845 57.6727 297.824C58.2322 297.604 58.7706 297.824 58.9184 299.605C58.9818 300.359 60.9243 298.118 60.4704 296.536C60.4704 296.536 59.1085 293.446 51.8662 295.174L31.9762 299.144C31.9234 299.155 31.8706 299.165 31.8178 299.186C31.29 299.343 28.0594 300.139 27.2043 297.573L24.1427 290.701C24.0793 290.596 24.0582 290.502 24.016 290.418Z" fill="#FFBF99"/>
<path d="M12.1805 270.768C11.6843 271.124 11.3992 271.711 11.262 272.287C10.9136 273.596 10.8502 275.199 11.1458 276.529C11.6737 278.917 14.4292 291.226 15.8016 293.782C15.8016 293.782 20.204 290.66 24.0469 290.482C24.0469 290.482 21.946 281.913 19.8239 276.131C19.8134 276.11 16.5934 267.583 12.1805 270.768Z" fill="#F79F03"/>
<path d="M82.3125 396.04L82.038 402.754C82.038 402.754 81.848 403.77 85.997 403.77C90.1566 403.77 100.936 403.76 100.936 403.76C100.936 403.76 103.49 402.692 100.534 401.759C100.534 401.759 93.9678 399.758 90.2093 396.029L82.3125 396.04Z" fill="#170856"/>
<path d="M53.2688 305.955L63.5938 306.018V301.493C63.5938 301.493 64.0689 300.236 62.0525 300.089C60.036 299.963 54.6729 300.215 54.6729 300.215C54.6729 300.215 53.1949 300.34 53.1949 302.069C53.2054 303.808 53.2688 305.955 53.2688 305.955Z" fill="#EE384E"/>
<path d="M54.0509 305.638C54.0509 305.638 50.208 305.303 49.923 307.22C49.5851 309.399 50.6514 309.923 52.5306 309.985C54.3993 310.048 65.6112 309.818 65.6112 309.818C65.6112 309.818 67.7754 309.514 67.691 307.964C67.5959 306.371 67.1525 305.764 65.0727 305.764C62.9929 305.764 54.0509 305.638 54.0509 305.638Z" fill="#000036"/>
<path d="M79.8415 309.63L51.0095 309.809C50.8933 309.809 50.7878 309.819 50.6716 309.83C49.901 309.84 47.8212 310.29 47.8212 311.946C47.8212 313.894 49.257 314.428 51.759 314.428H118.143C118.925 314.428 119.674 314.135 120.255 313.611C121.015 312.941 121.86 310.898 120.202 309.871C119.738 309.578 119.189 309.463 118.64 309.463L79.8415 309.63Z" fill="#023EA1"/>
<path d="M97.736 314.24L116.686 330.749C116.686 330.749 120.086 333.766 120.265 340.69C120.445 347.614 121.522 404.201 121.522 404.201C121.522 404.201 121.881 407.396 115.62 407.396H74.8477C74.8477 407.396 73.243 407.396 73.0635 405.448C72.884 403.5 74.4993 403.678 75.745 403.678L117.415 403.856L117.056 341.581C117.056 341.581 118.133 336.259 110.436 330.047L93.2491 314.282L97.736 314.24Z" fill="#023EA1"/>
<path d="M31.2779 340.889L31.2146 399.236C31.2146 399.236 22.093 399.508 20.4778 401.624C18.8731 403.75 20.7523 405.081 30.1377 404.819C39.5232 404.547 45.1608 404.547 45.1608 404.547C45.1608 404.547 49.7215 404.012 44.3479 401.352C38.9847 398.691 34.6879 399.497 34.6879 399.497L34.1495 340.952L31.2779 340.889Z" fill="#023EA1"/>
<path d="M45.4237 390.98C45.4237 390.98 40.1873 395.903 43.2806 398.166L56.9629 408.945C56.9629 408.945 58.9793 409.479 58.5676 407.217L52.5288 395.641L45.4237 390.98Z" fill="#180756"/>
<path d="M449.326 345.689C449.326 345.689 470.741 346.933 461.414 348.163C452.088 349.407 439.251 349.407 434.712 348.901C430.189 348.408 445.8 345.935 449.326 345.689Z" fill="#0064B7"/>
<path d="M450.808 348.482L451.115 407.347C451.115 407.347 460.383 407.578 462.029 409.72C463.674 411.861 461.764 413.207 452.233 412.974C442.7 412.743 436.972 412.772 436.972 412.772C436.972 412.772 432.331 412.251 437.779 409.546C443.228 406.84 447.591 407.622 447.591 407.622L447.899 348.554L450.808 348.482Z" fill="#0064B7"/>
<path d="M445.019 256.617C445.019 256.617 447.62 249.485 441.23 247.591C441.23 247.591 439.379 236.841 430.685 241.702C430.024 242.064 429.275 242.121 428.599 241.79C426.293 240.661 421.181 235.207 417.642 243.569C417.363 244.219 416.687 244.48 416.07 244.509C413.456 244.611 407.155 245.622 412.325 253.304C412.325 253.304 414.719 256.155 418.714 256.386C418.714 256.386 437.265 268.973 442.655 266.846C448.016 264.69 447.81 258.991 445.019 256.617Z" fill="#170B56"/>
<path d="M427.322 252.986C427.057 252.9 417.188 249.775 418.743 258.441V258.456C418.729 258.687 418.451 266.455 424.766 270.926C424.854 270.983 424.942 271.056 425.016 271.142C425.412 271.563 427.13 273.052 429.906 270.564C432.477 268.264 433.328 269.855 433.608 270.521C433.681 270.695 433.784 270.883 433.872 271.042C434.269 271.751 435.487 273.442 434.68 274.6C433.828 275.816 432.756 277.319 432.477 277.725C432.447 277.768 432.477 277.826 432.521 277.826C433.96 277.74 448.398 276.814 448.046 273.66C448.046 273.66 447.179 270.174 447.179 270.159L446.915 270.101C446.87 270.086 446.826 270.072 446.783 270.043L442.274 266.773C442.259 266.773 442.259 266.759 442.243 266.759C441.951 266.788 437.617 267.164 436.076 265.327C436.076 265.327 434.151 263.158 433.255 260.351C432.99 259.512 433.123 258.571 433.622 257.906C434.371 256.922 435.165 255.128 433.285 253.854C433.285 253.854 431.816 252.784 430.479 254.39L430.303 254.608C430.171 254.767 429.979 254.795 429.819 254.679L427.322 252.986C427.337 252.986 427.337 252.986 427.322 252.986Z" fill="#FFBF9C"/>
<path d="M447.21 270.16C447.21 270.16 440.63 276.177 433.154 276.857C433.154 276.857 429.071 281.327 428.469 291.078C427.868 300.829 427.47 322.673 428.073 324.092C428.675 325.509 463.779 325.277 463.779 325.277C463.779 325.277 461.179 289.877 456.992 282.514C456.992 282.514 450.81 271.823 447.21 270.16Z" fill="#F39F11"/>
<path d="M450.367 296.532C450.367 296.532 449.766 309.596 448.576 314.355C447.385 319.1 446.784 321.241 441.79 321.949C436.796 322.658 423.636 323.614 421.051 323.136C418.452 322.658 410.079 324.77 410.079 324.77C410.079 324.77 407.48 325.479 407.289 323.816C407.098 322.152 404.292 323.585 404.101 324.294C403.896 325.003 402.501 325.957 402.104 324.061C401.707 322.167 401.898 319.78 405.292 319.071C408.684 318.362 411.872 319.071 415.47 319.345C418.672 319.592 420.816 318.608 421.447 318.608L437.604 315.049C437.604 315.049 439.602 314.34 439.998 311.491C440.395 308.64 440.395 296.286 440.395 296.286L450.367 296.532Z" fill="#FFBF9C"/>
<path d="M451.968 297.949H439.234C439.087 288.69 439.983 279.894 444.991 279.88C444.991 279.894 451.968 278.332 451.968 297.949Z" fill="#F5BE42"/>
<path d="M392.159 342.607C392.159 342.607 388.458 364.452 387.958 369.949C387.444 375.39 384.785 392.967 384.785 392.967L392.966 392.736L399.944 362.804L392.159 342.607Z" fill="#EC384E"/>
<path d="M463.601 322.976C463.747 323.96 464.628 338.659 463.175 342.376C461.853 345.775 458.386 346.89 452.204 347.367C446.974 347.773 419.876 346.398 411.65 345.935C410.534 345.877 409.727 347.164 410.08 348.408L422.27 391.071L415.088 394.876C415.088 394.876 398.535 364.944 395.935 357.812C393.335 350.68 389.751 338.34 389.956 335.476C389.956 335.476 389.355 330.007 395.538 329.298C401.604 328.603 420.934 324.929 421.653 324.785C421.668 324.785 421.682 324.785 421.697 324.785L428.043 324.075C428.057 324.075 428.072 324.075 428.086 324.075L463.601 322.976Z" fill="#DE151F"/>
<path d="M421.156 323.238C421.7 323.122 423.506 323.224 423.491 324.554C423.477 325.769 421.289 325.928 420.891 325.986C420.584 326.03 395.85 329.545 394.248 329.776C394.204 329.791 394.145 329.791 394.102 329.805C393.69 329.893 391.429 330.254 389.973 327.895C388.461 325.422 376.417 307.425 375.125 305.501C375.067 305.415 375.007 305.327 374.934 305.241C374.684 304.937 373.979 303.91 374.816 302.724C375.815 301.291 377.416 303.678 377.416 303.678L391.943 326.377C392.279 326.898 392.735 327.288 393.264 327.448H393.279C393.499 327.505 393.72 327.519 393.94 327.476" fill="#0A489B"/>
<path d="M384.847 392.691C384.831 392.691 384.802 392.691 384.787 392.706C384.347 393.112 377.678 399.187 374.213 400.561C373.875 400.692 373.552 400.837 373.228 400.982C372.964 401.097 372.714 401.227 372.465 401.372C372.274 401.488 372.083 401.603 371.892 401.734C371.76 401.835 371.627 401.936 371.495 402.052C371.407 402.138 371.318 402.226 371.231 402.326C371.173 402.399 371.128 402.471 371.084 402.559C371.055 402.616 371.026 402.673 371.011 402.732C370.996 402.804 370.996 402.861 371.011 402.934C371.011 403.006 371.011 403.065 371.011 403.137C371.011 403.209 371.011 403.282 371.011 403.354C371.011 403.382 371.04 403.412 371.069 403.412L393.086 400.59C393.145 400.576 393.204 400.561 393.248 400.533C393.483 400.373 394.115 399.795 393.953 398.449C393.777 396.931 393.086 393.4 392.968 392.822C392.954 392.779 392.925 392.75 392.881 392.736L384.847 392.691Z" fill="#170B56"/>
<path d="M415.102 394.877C415.102 394.877 411.313 404.381 408.713 406.522C406.73 408.157 407.317 409.516 407.699 410.067C407.817 410.241 408.007 410.327 408.198 410.298C408.669 410.241 409.696 409.994 410.71 409.14C412.105 407.955 425.867 397.973 425.867 397.973C425.867 397.973 426.47 396.54 425.471 395.122C424.473 393.69 422.284 391.086 422.284 391.086L415.102 394.877Z" fill="#170B56"/>
<path d="M417.97 174.114C416.829 174.038 415.608 174.593 415.608 174.593L399.781 182.512C399.781 182.512 398.954 182.986 398.481 183.697L406.63 189.116L417.064 183.929L417.97 174.114Z" fill="#319F4F"/>
<path d="M425.882 179.377C426.395 180.399 426.358 181.735 426.358 181.735L425.288 199.223C425.211 199.852 424.937 200.52 424.701 200.874L416.435 195.376L417.161 183.782L425.882 179.377Z" fill="#F5BC0F"/>
<path d="M415.824 205.514C414.683 205.436 413.817 204.69 413.817 204.69L399.173 194.95C398.582 194.558 398.267 194.008 398.069 193.536L406.909 189.209L416.593 195.65L415.824 205.514Z" fill="#3D80B9"/>
<path d="M415.705 205.437L416.355 195.494L424.622 200.992C424.309 201.464 423.955 201.739 423.877 201.857C423.798 201.975 423.68 201.896 423.602 202.014C423.602 202.014 423.405 202.054 423.327 202.172C423.327 202.172 419.516 204.06 417.67 205.043C417.395 205.2 417.198 205.24 417.12 205.358C417.198 205.24 416.452 205.594 415.705 205.437Z" fill="#E84335"/>
<path d="M398.643 183.712C398.643 183.712 398.25 184.302 398.094 185.048C397.938 185.795 397.713 191.768 397.636 192.397C397.755 192.987 397.952 193.458 397.874 193.576L406.713 189.249L398.643 183.712Z" fill="#1F64AB"/>
<path d="M417.773 174.154C417.773 174.154 418.363 174.035 419.19 174.585L419.308 174.664C419.308 174.664 422.969 177.099 424.74 178.277L424.858 178.355C425.213 178.591 425.803 178.984 425.804 179.495L417.083 183.9L417.773 174.154Z" fill="#198038"/>
<circle cx="413" cy="190" r="22.5" stroke="#1753A1"/>
<circle cx="305.026" cy="140.026" r="10.5" transform="rotate(-30 305.026 140.026)" stroke="#1753A1"/>
<path d="M303.17 133.777L300.541 135.294L298.706 136.354C298.268 136.606 298.118 137.167 298.364 137.593L302.759 145.206L305.388 143.688L302.052 137.911L304.68 136.393L303.17 133.777Z" fill="#FBC02D"/>
<path d="M309.534 144.799L306.905 146.317L305.388 143.688L308.016 142.171L309.534 144.799Z" fill="#4CAF50"/>
<path d="M305.388 143.689L306.906 146.317L305.071 147.376C304.632 147.629 304.072 147.479 303.819 147.041L302.76 145.206L305.388 143.689Z" fill="#2E7D32"/>
<path d="M310.633 140.66L308.016 142.17L304.681 136.393L307.297 134.882L310.633 140.66Z" fill="#1E88E5"/>
<path d="M308.017 142.171L310.645 140.653L311.704 142.489C311.957 142.927 311.807 143.487 311.369 143.74L309.534 144.799L308.017 142.171Z" fill="#1565C0"/>
<path d="M307.298 134.882L304.682 136.393L303.171 133.776L307.298 134.882Z" fill="#E53935"/>
<circle cx="105.919" cy="228.764" r="15" transform="rotate(-15 105.919 228.764)" stroke="#1753A1"/>
<path d="M106.229 227.355L106.799 227.832L107.31 227.202L108.202 230.533L108.884 230.35L107.711 225.972L107.14 226.125L106.229 227.355Z" fill="#1E88E5"/>
<path d="M105.44 228.792C105.634 228.502 105.703 228.127 105.61 227.778C105.423 227.08 104.651 226.674 103.906 226.874C103.271 227.044 102.822 227.589 102.837 228.215L103.55 228.211C103.541 227.924 103.776 227.657 104.093 227.572C104.473 227.47 104.843 227.643 104.928 227.96C105.013 228.278 104.779 228.612 104.399 228.714L104.002 228.82L104.189 229.518L104.586 229.412C105.014 229.297 105.46 229.501 105.553 229.85C105.651 230.215 105.378 230.594 104.95 230.708C104.569 230.81 104.173 230.662 104.036 230.341L103.399 230.631C103.685 231.251 104.435 231.577 105.149 231.386C105.958 231.169 106.446 230.392 106.247 229.647C106.125 229.255 105.821 228.945 105.44 228.792Z" fill="#1E88E5"/>
<path d="M111.817 234.885L103.823 237.027L102.969 233.839L110.963 231.697L111.817 234.885Z" fill="#FBC02D"/>
<path d="M114.148 230.844L112.006 222.85L108.818 223.705L110.96 231.699L114.148 230.844Z" fill="#4CAF50"/>
<path d="M108.82 223.704L107.966 220.516L97.973 223.194C97.3069 223.372 96.9121 224.056 97.0906 224.722L99.7681 234.715L102.956 233.86L100.81 225.85L108.82 223.704Z" fill="#1E88E5"/>
<path d="M110.961 231.698L111.815 234.886L114.149 230.844L110.961 231.698Z" fill="#E53935"/>
<path d="M109.963 219.981L107.965 220.517L108.819 223.705L112.007 222.85L111.472 220.852C111.293 220.186 110.63 219.803 109.963 219.981Z" fill="#1565C0"/>
<path d="M101.823 237.563L103.822 237.028L102.967 233.84L99.7793 234.694L100.315 236.692C100.493 237.359 101.157 237.742 101.823 237.563Z" fill="#1565C0"/>
<circle cx="384.026" cy="125.026" r="10.5" transform="rotate(-30 384.026 125.026)" stroke="#1753A1"/>
<path d="M377.508 126.413L379.566 129.978L382.117 128.506L380.058 124.94L377.508 126.413Z" fill="#1E88E5"/>
<path d="M387.215 123.186L389.28 126.763C389.525 127.188 389.381 127.728 388.956 127.974L383.595 131.068L382.116 128.506L385.694 126.441L384.664 124.658L387.215 123.186Z" fill="#4CAF50"/>
<path d="M385.15 119.609L387.215 123.186L384.665 124.659L383.636 122.876L380.058 124.941L378.579 122.379L383.939 119.285C384.364 119.039 384.904 119.184 385.15 119.609Z" fill="#FBC02D"/>
<path d="M382.117 128.506L383.589 131.056L381.806 132.086C381.381 132.331 380.841 132.186 380.596 131.761L379.566 129.979L382.117 128.506Z" fill="#1565C0"/>
<path d="M378.579 122.379L380.058 124.941L377.508 126.413L378.579 122.379Z" fill="#E53935"/>
<path d="M387.474 123.036L388.462 125.347L384.664 124.659L385.967 121.026L387.474 123.036Z" fill="#2E7D32"/>
<path d="M387.473 118.315L391.563 125.399C391.686 125.611 391.506 125.873 391.266 125.838L388.463 125.347L385.968 121.025L386.944 118.353C387.028 118.116 387.344 118.091 387.473 118.315Z" fill="#4CAF50"/>
<circle cx="340.384" cy="222.384" r="15.1475" transform="rotate(30.0915 340.384 222.384)" stroke="#1753A1"/>
<path d="M347.602 220.018L341.313 220.896L338.85 214.946L338.849 214.947L338.852 214.954L336.105 219.695L338.471 225.687L344.774 224.897L347.602 220.018Z" fill="#EA4335"/>
<path d="M349.288 219.911L347.591 220.034L344.748 224.941L350.181 224.392L351.147 222.724C351.147 222.724 352.062 220.074 349.288 219.911Z" fill="#FBBC05"/>
<path d="M344.699 225.024L340.943 231.505L343.877 233.205C343.877 233.205 344.76 233.607 345.349 232.729L350.161 224.425L344.699 225.024Z" fill="#34A853"/>
<path d="M338.827 214.985L338.104 213.439C336.595 211.085 334.716 213.254 334.716 213.254L333.726 214.962L335.997 219.87L338.827 214.985Z" fill="#C5221F"/>
<path d="M333.752 214.915L328.94 223.219C328.47 224.166 329.258 224.732 329.258 224.732L332.192 226.433L336.026 219.801L333.752 214.915Z" fill="#4285F4"/>
<circle cx="102" cy="143.946" r="20.6748" transform="rotate(45 102 143.946)" stroke="#1753A1"/>
<g filter="url(#filter1_d_2428_10828)">
<path d="M99.7022 131.319L93.4984 152.514L98.0226 152.377L103.168 133.712L99.7022 131.319Z" fill="url(#paint0_linear_2428_10828)"/>
<path d="M101.368 143.509L109.803 142.266L107.296 139.402L93.6816 141.309L104.328 149.883L107.864 148.735L101.368 143.509Z" fill="url(#paint1_linear_2428_10828)"/>
<path d="M99.6991 131.331L109.804 142.266L111.154 137.619L103.801 130.234L99.6991 131.331Z" fill="#3367D6"/>
<path d="M93.4974 152.514L107.863 148.736L106.68 153.151L96.8442 155.815L93.4974 152.514Z" fill="#3367D6"/>
</g>
<path d="M143.755 80.0363L142.5 77.1084H141L121.5 85.6084L123.444 88.3305C123.796 88.8224 124.351 89.1354 124.956 89.1398C132.766 89.1962 140.402 84.431 143.585 81.068C143.847 80.7912 143.905 80.3865 143.755 80.0363Z" fill="#C4D0E6"/>
<ellipse cx="131.917" cy="81.2982" rx="11.485" ry="3.34965" transform="rotate(-21.3341 131.917 81.2982)" fill="#D6DEEA"/>
<path d="M80.4277 199.41L81.3895 197.035L80.5064 196.145L63.9798 189.569L63.5343 192.171C63.4323 192.767 63.6003 193.383 64.027 193.811C68.5581 198.358 75.7103 200.07 79.575 200.013C79.956 200.007 80.2847 199.763 80.4277 199.41Z" fill="#C4D0E6"/>
<ellipse cx="72.6707" cy="193.217" rx="9.60335" ry="2.80085" transform="rotate(23.9158 72.6707 193.217)" fill="#D6DEEA"/>
<path d="M366.717 64.307L367.856 62.0127L367.043 61.0575L351.063 53.2464L350.421 55.8077C350.274 56.3942 350.395 57.0207 350.788 57.4801C354.961 62.358 361.963 64.6071 365.821 64.8436C366.201 64.8669 366.547 64.6483 366.717 64.307Z" fill="#C4D0E6"/>
<ellipse cx="359.452" cy="57.5432" rx="9.60334" ry="2.80085" transform="rotate(28.2676 359.452 57.5432)" fill="#D6DEEA"/>
<path d="M469.924 212.958L468.865 210.625L467.611 210.652L451.46 218.103L453.04 220.219C453.402 220.703 453.964 221.005 454.568 220.991C460.985 220.838 467.153 216.832 469.773 213.992C470.032 213.711 470.081 213.305 469.924 212.958Z" fill="#C4D0E6"/>
<ellipse cx="460.092" cy="214.315" rx="9.60335" ry="2.80085" transform="rotate(-22.547 460.092 214.315)" fill="#D6DEEA"/>
<defs>
<filter id="filter0_d_2428_10828" x="192.058" y="3.5874" width="105.749" height="119.439" filterUnits="userSpaceOnUse" color-interpolation-filters="sRGB">
<feFlood flood-opacity="0" result="BackgroundImageFix"/>
<feColorMatrix in="SourceAlpha" type="matrix" values="0 0 0 0 0 0 0 0 0 0 0 0 0 0 0 0 0 0 127 0" result="hardAlpha"/>
<feOffset dy="1"/>
<feGaussianBlur stdDeviation="1"/>
<feComposite in2="hardAlpha" operator="out"/>
<feColorMatrix type="matrix" values="0 0 0 0 0 0 0 0 0 0 0 0 0 0 0 0 0 0 0.2 0"/>
<feBlend mode="normal" in2="BackgroundImageFix" result="effect1_dropShadow_2428_10828"/>
<feBlend mode="normal" in="SourceGraphic" in2="effect1_dropShadow_2428_10828" result="shape"/>
</filter>
<filter id="filter1_d_2428_10828" x="56.595" y="102.557" width="91.4622" height="99.3866" filterUnits="userSpaceOnUse" color-interpolation-filters="sRGB">
<feFlood flood-opacity="0" result="BackgroundImageFix"/>
<feColorMatrix in="SourceAlpha" type="matrix" values="0 0 0 0 0 0 0 0 0 0 0 0 0 0 0 0 0 0 127 0" result="hardAlpha"/>
<feOffset dy="9.22573"/>
<feGaussianBlur stdDeviation="18.4515"/>
<feComposite in2="hardAlpha" operator="out"/>
<feColorMatrix type="matrix" values="0 0 0 0 0 0 0 0 0 0 0 0 0 0 0 0 0 0 0.25 0"/>
<feBlend mode="normal" in2="BackgroundImageFix" result="effect1_dropShadow_2428_10828"/>
<feBlend mode="normal" in="SourceGraphic" in2="effect1_dropShadow_2428_10828" result="shape"/>
</filter>
<linearGradient id="paint0_linear_2428_10828" x1="101.589" y1="131.925" x2="95.6047" y2="154.258" gradientUnits="userSpaceOnUse">
<stop stop-color="#1043B1"/>
<stop offset="0.505208" stop-color="#3367D6"/>
<stop offset="1" stop-color="#1043B1"/>
</linearGradient>
<linearGradient id="paint1_linear_2428_10828" x1="108.4" y1="144.981" x2="91.5648" y2="140.47" gradientUnits="userSpaceOnUse">
<stop stop-color="#0035AB"/>
<stop offset="0.380208" stop-color="#255CD7"/>
<stop offset="0.9999" stop-color="#255CD7"/>
<stop offset="1" stop-color="#255CD7"/>
</linearGradient>
</defs>
</svg>
