<svg width="500" height="340" viewBox="0 0 500 340" fill="none" xmlns="http://www.w3.org/2000/svg">
<path d="M61.0858 105.802C61.0858 105.802 55.4739 100.593 59.3918 95.7173C63.3096 90.842 72.6235 91.9945 74.4396 97.1824C76.245 102.371 73.4047 105.499 77.4439 106.71C81.4724 107.922 92.1997 112.992 89.9057 118.45C87.6223 123.907 81.1121 123.385 83.5603 131.003C86.0085 138.62 99.3428 141.523 91.8429 150.776C84.3429 160.029 67.6145 172.229 60.2877 153.861C52.9609 135.494 70.5699 140.928 61.4834 128.694C52.3969 116.459 60.3899 117.04 62.9369 112.761C65.4637 108.494 61.0858 105.802 61.0858 105.802Z" fill="#023EA1"/>
<path d="M71.5386 113.515C71.5386 113.515 71.7255 133.783 77.7714 151.242C83.8173 168.701 87.7288 171.571 87.7288 171.571" stroke="white" stroke-width="1.12851" stroke-miterlimit="10" stroke-linecap="round" stroke-linejoin="round"/>
<path d="M18.9417 116.002C18.9417 116.002 31.0926 105.368 34.7018 113.573C38.3228 121.788 42.0163 121.142 45.8058 120.282C49.5953 119.422 55.7127 115.069 59.0573 123.937C62.4126 132.803 60.6973 138.641 65.018 141.2C69.3398 143.769 83.3281 159.889 75.6807 163.628C68.0322 167.357 57.7258 160.854 54.1166 156.963C50.5074 153.071 43.4598 153.488 38.2022 155.147C32.9447 156.807 25.5673 154.698 27.0522 147.486C28.5476 140.272 24.2814 133.405 19.1857 132.294C14.1114 131.181 10.8313 123.339 18.9417 116.002Z" fill="#FCBE42"/>
<path d="M27.0117 123.63L79.042 170.342" stroke="white" stroke-width="1.12851" stroke-miterlimit="10" stroke-linecap="round" stroke-linejoin="round"/>
<path d="M88.5088 155.759C88.5088 155.759 59.4669 131.957 47.1562 109.024" stroke="#DE051F" stroke-width="1.12851" stroke-miterlimit="10"/>
<path d="M41.7295 93.589C41.7295 93.589 51.5496 99.6689 48.4894 111.382C48.4894 111.382 39.1275 107.513 41.7295 93.589Z" stroke="#DE051F" stroke-width="1.12851" stroke-miterlimit="10"/>
<path d="M61.207 128.871C61.207 128.871 55.7633 119.718 64.3842 110.262C64.3842 110.262 71.6728 116.865 61.207 128.871Z" stroke="#DE051F" stroke-width="1.12851" stroke-miterlimit="10"/>
<path d="M78.6154 146.891C78.6154 146.891 71.4806 138.981 78.0906 128.025C78.0894 128.014 86.53 133.066 78.6154 146.891Z" stroke="#DE051F" stroke-width="1.12851" stroke-miterlimit="10"/>
<path d="M78.4003 147.279C78.4003 147.279 70.7749 139.829 59.5318 145.968C59.5425 145.967 64.2415 154.595 78.4003 147.279Z" stroke="#DE051F" stroke-width="1.12851" stroke-miterlimit="10"/>
<path d="M61.2366 128.718C61.2366 128.718 54.6266 120.365 42.6887 125.017C42.6887 125.017 46.2575 134.173 61.2366 128.718Z" stroke="#DE051F" stroke-width="1.12851" stroke-miterlimit="10"/>
<path d="M377.798 199.911C377.798 199.911 411.232 201.881 396.667 203.832C382.12 205.801 362.067 205.801 354.981 205.014C347.915 204.226 372.291 200.305 377.798 199.911Z" fill="#023EA1"/>
<path d="M380.108 204.321L380.597 297.441C380.597 297.441 395.068 297.816 397.643 301.192C400.218 304.588 397.248 306.708 382.345 306.351C367.441 305.995 358.514 306.013 358.514 306.013C358.514 306.013 351.278 305.188 359.773 300.911C368.268 296.634 375.09 297.872 375.09 297.872L375.56 204.415L380.108 204.321Z" fill="#023EA1"/>
<path d="M393.259 84.7874C393.259 84.7874 407.036 79.8913 408.558 92.7224C408.558 92.7224 412.072 102.046 415.606 103.715C419.12 105.403 427.841 108.611 425.698 120.673C423.556 132.735 420.191 131.985 421.563 139.001C422.935 146.035 419.571 146.786 414.685 146.936C409.798 147.086 408.407 142.509 408.407 142.509L409.779 126.92L406.566 101.877L396.154 97.7498C396.154 97.7498 390.797 91.0341 390.346 88.4266C389.895 85.8566 393.259 84.7874 393.259 84.7874Z" fill="#170856"/>
<path d="M395.106 81.3174C395.106 81.3174 397.287 83.5872 396.779 83.9812C396.272 84.3751 390.333 87.4703 390.333 87.4703C390.333 87.4703 388.604 84.15 388.792 83.1746C388.942 82.1991 395.106 81.3174 395.106 81.3174Z" fill="#F05051"/>
<path d="M358.69 64.5486C358.371 64.5861 358.164 64.8487 358.164 65.1676C358.239 68.1503 358.935 82.5571 364.573 87.8847C364.573 87.8847 367.561 91.7865 373.293 90.1733C373.293 90.1733 378.462 87.0781 377.654 93.3811C376.845 99.6841 379.495 105.874 381.563 106.775C383.63 107.694 392.125 105.406 394.08 101.841C395.377 99.4777 396.072 98.2771 396.391 97.7519C396.523 97.5268 396.504 97.2642 396.316 97.0578C395.151 95.7259 390.772 90.3609 388.742 82.9511C386.393 74.3595 387.652 66.1056 379.74 64.3985C372.748 62.879 361.284 64.2109 358.69 64.5486Z" fill="#FFBE97"/>
<path d="M351.256 63.8521C351.275 63.7208 351.294 63.5895 351.294 63.477C351.35 62.6328 351.275 61.7887 351.369 60.9445C351.632 58.337 352.497 55.5607 354.545 53.7786C356.086 52.4655 358.079 51.9402 360.071 51.9402C360.522 51.9402 360.954 51.7714 361.236 51.4337C362.589 49.9143 366.987 45.5435 373.039 45.5435C380.368 45.5435 392.904 49.5016 396.287 61.995C396.287 62.0138 396.306 62.0325 396.306 62.0701C396.513 62.9142 401.286 82.5173 391.701 83.1176C381.91 83.7366 377.925 78.9156 378.226 74.5635C378.226 74.5635 383.037 65.9344 374.862 68.1479C374.862 68.1479 366.442 69.7237 360.578 66.2908C359.845 65.8594 358.924 66.122 358.511 66.8536C357.346 68.8608 355.015 71.9747 352.835 69.3673C352.027 68.4106 351.256 67.3038 351.031 66.0469C350.918 65.2403 351.144 64.565 351.256 63.8521Z" fill="#170856"/>
<path d="M396.433 97.1895C396.433 97.1895 391.659 104.862 384.837 104.787C378.033 104.712 377.601 97.6584 377.601 97.6584C377.601 97.6584 363.731 110.114 363.881 118.368C364.032 126.622 366.794 125.234 367.546 127.992C368.317 130.749 362.96 159.919 362.96 159.919L362.152 161.645L401.357 166.954C401.357 166.954 402.879 160.688 403.951 158.7C405.022 156.711 410.529 105.556 410.529 105.556L407.935 102.798C407.954 102.798 403.349 97.6209 396.433 97.1895Z" fill="#0083F9"/>
<path d="M413.765 128.157C413.765 128.157 417.655 102.832 407.788 101.576C398.147 100.356 397.996 108.291 397.696 120.053C397.395 131.815 397.545 134.404 397.545 134.404L412.844 137.161L413.765 128.157Z" fill="#0064B7"/>
<path d="M398.014 134.498C397.769 134.461 397.544 134.629 397.525 134.873L396.717 144.572C396.773 146.054 396.51 147.404 395.138 146.86C394.368 146.56 393.409 146.091 392.206 145.416C387.846 142.977 374.615 136.562 370.499 134.554C369.766 134.198 369.221 133.56 368.939 132.791C368.488 131.572 367.417 129.752 364.955 129.058C361.121 127.989 354.543 128.139 354.392 128.608C354.242 129.077 353.471 132.266 353.772 133.335C354.073 134.404 357.287 133.485 357.287 133.485C357.287 133.485 363.263 132.416 361.572 134.554C360.594 135.792 359.204 135.961 358.208 135.868C357.813 135.83 357.606 136.355 357.926 136.599C358.753 137.237 360.219 138.025 362.643 138.362C367.078 138.981 398.446 159.448 398.446 159.448C398.446 159.448 404.573 164.175 408.087 151.663C410.775 142.114 412.109 138.719 412.598 137.631C412.711 137.387 412.56 137.106 412.297 137.068L398.014 134.498Z" fill="#FEBD96"/>
<path d="M345.867 148.137L363.778 155.528L365.676 144.329L358.384 143.897L345.867 148.137Z" fill="#FEBD96"/>
<path d="M333.596 112.42L305.273 110.75L334.668 147.705L361.75 148.624L333.596 112.42Z" fill="#09015D"/>
<path d="M333.418 145.117C333.418 145.117 334.489 138.401 332.196 137.332C329.903 136.263 328.419 138.758 328.569 139.977C328.738 141.328 333.23 145.886 333.23 145.886L333.418 145.117Z" fill="#FEBD96"/>
<path d="M362.157 161.645L306.959 182.617C306.959 182.617 300.08 183.986 298.389 202.558C296.697 221.11 295.325 282.602 295.325 282.602L295.25 284.591L309.026 284.816L315.905 219.291L348.569 179.953L375.05 163.37L362.157 161.645Z" fill="#EE384E"/>
<path d="M401.714 165.772L374.913 163.371L318.474 191.509C318.474 191.509 303.232 200.476 313.005 216.721C322.797 232.966 350.086 282.527 350.086 282.527L359.483 275.53L335.37 208.899C335.37 208.899 334.788 205.466 342.832 204.884C350.349 204.34 385.87 200.888 390.475 200.438C390.87 200.401 391.227 200.326 391.603 200.176C394.384 199.163 405.228 193.91 401.789 174.982L401.375 166.972L401.714 165.772Z" fill="#DE051F"/>
<path d="M295.253 284.57L283.263 291.154C282.642 291.492 281.985 291.736 281.289 291.848C279.992 292.036 277.737 292.655 277.737 294.512C277.737 294.512 277.436 296.651 283.244 296.2C289.051 295.75 307.413 295.9 307.413 295.9C307.413 295.9 309.781 295.375 309.405 290.104L309.029 284.832L295.253 284.57Z" fill="#130452"/>
<path d="M350.12 282.506C350.12 282.506 350.026 285.62 346.906 289.897C345.196 292.26 343.335 294.549 341.418 296.762C340.911 297.344 340.366 297.832 340.103 298.563C339.934 299.051 339.802 299.558 339.783 300.064C339.764 300.552 339.877 301.096 340.309 301.396C340.967 301.846 341.945 301.602 342.64 301.415C342.847 301.358 343.053 301.283 343.241 301.227C347.959 299.539 362.036 288.115 365.024 285.657C365.4 285.338 365.625 284.888 365.644 284.382C365.644 283.331 365.475 281.455 364.216 279.992C362.374 277.853 359.536 275.527 359.536 275.527L350.12 282.506Z" fill="#130452"/>
<path d="M192.058 165.719C192.109 165.719 192.159 165.719 192.21 165.719L254.258 165.669C255.798 165.669 257.034 164.431 257.034 162.89C257.034 161.349 255.772 160.086 254.258 160.112L192.21 160.162C190.67 160.162 189.434 161.4 189.434 162.941C189.409 164.431 190.569 165.643 192.058 165.719Z" fill="url(#paint0_linear_5007_5371)"/>
<path d="M278.262 104.896C278.237 104.946 278.211 104.972 278.186 105.022L252.07 161.35C251.414 162.739 252.019 164.406 253.407 165.037C254.795 165.694 256.46 165.088 257.091 163.674L283.208 107.346C283.864 105.957 283.258 104.29 281.87 103.658C280.533 103.052 278.943 103.608 278.262 104.896Z" fill="url(#paint1_linear_5007_5371)"/>
<path d="M207.429 173.196C207.202 174.333 184.77 272.691 179.067 297.647C178.411 300.527 180.783 303.179 183.861 303.028C186.006 302.927 187.798 301.436 188.227 299.416L216.286 172.514L207.429 173.196Z" fill="#023EA1"/>
<path d="M166.794 288.041C156.924 288.041 152.542 287.187 150.582 286.425C150.951 288.041 152.404 289.333 154.226 289.333H189.185C190.361 289.333 191.099 288.202 190.822 287.187C186.856 287.487 178.393 288.041 166.794 288.041Z" fill="url(#paint2_linear_5007_5371)"/>
<path d="M190.821 287.164C190.775 286.956 190.683 286.748 190.545 286.563C187.893 283.17 182.543 277.815 175.255 277.93C164.602 278.092 160.752 281.03 152.473 279.784L150.65 284.486C150.442 285.155 150.442 285.802 150.581 286.425C152.541 287.21 156.899 288.041 166.792 288.041C178.392 288.041 186.855 287.487 190.821 287.164Z" fill="#170856"/>
<path d="M155 271.007L152.602 279.179C152.602 279.179 157.905 281.602 162.587 279.663L163.509 272.6L155 271.007Z" fill="url(#paint3_linear_5007_5371)"/>
<path d="M227.441 282.897C219.739 289.083 215.795 291.184 213.789 291.807C215.104 292.823 217.018 292.915 218.447 291.784L245.682 269.878C246.604 269.139 246.466 267.8 245.612 267.177C242.73 269.901 236.481 275.625 227.441 282.897Z" fill="url(#paint4_linear_5007_5371)"/>
<path d="M245.63 267.153C245.469 267.038 245.261 266.922 245.031 266.876C240.834 265.907 233.339 265.122 227.735 269.762C219.526 276.571 217.335 279.78 210.117 284.028L212.631 290.283C212.884 290.93 213.3 291.437 213.784 291.83C215.79 291.207 219.733 289.129 227.436 282.92C236.475 275.625 242.725 269.9 245.63 267.153Z" fill="#170856"/>
<path d="M103.689 177.999C103.689 177.999 162.839 182.824 174.969 188.548C187.099 194.273 162.862 279.783 162.862 279.783C162.862 279.783 159.82 282.068 152.463 279.783C152.463 279.783 161.963 214.564 156.359 201.752L92.3203 191.272L103.689 177.999Z" fill="#DE051F"/>
<path d="M130.403 71.5029C130.403 71.5029 127.888 78.6779 123.873 85.6588C119.859 92.6396 117.966 95.373 117.966 95.373C117.966 95.373 125.441 106.96 134.602 106.727C143.73 106.505 137.213 103.013 137.213 103.013C137.213 103.013 137.291 92.7989 138.532 83.9308C139.773 75.0627 139.77 75.078 139.77 75.078L130.403 71.5029Z" fill="#FFB48F"/>
<path d="M151.823 54.1544C151.823 54.1544 155.457 60.6907 154.008 71.0445C152.562 81.3829 150.045 88.5733 145.568 87.9469C141.091 87.3205 132.568 83.1139 131.499 79.9505C130.431 76.7871 127.452 76.3703 128.277 70.4735C129.102 64.5768 138.405 52.3081 144.379 53.144C150.337 53.9777 151.823 54.1544 151.823 54.1544Z" fill="#FFBF99"/>
<path d="M156.288 54.7778C156.288 54.7778 162.401 43.5932 159.632 41.6754C156.859 39.7881 150.504 41.8973 148.799 43.1734C147.111 44.4364 144.132 44.0195 142.635 43.81C142.635 43.81 127.739 41.7257 124.346 44.2648C120.953 46.804 120.748 48.2743 120.54 49.76C120.334 51.2304 119.506 57.0331 117.611 59.8911C116.792 61.1351 115.096 67.0662 117.231 73.4083C119.367 79.735 122.156 81.6244 123.638 81.8318C125.12 82.0391 126.463 82.227 126.823 80.7783C127.216 79.2092 128.117 77.0398 129.132 75.0736C130.119 73.1971 131.441 69.3689 131.441 69.3689C131.441 69.3689 133.956 62.1938 137.349 59.6547C140.742 57.1155 140.742 57.1155 146.89 56.4767C153.099 55.8619 154.187 58.9968 156.288 54.7778Z" fill="#170856"/>
<path d="M134.694 62.7658C136.549 65.5865 132.951 69.596 132.951 69.596C132.951 69.596 128.284 70.4421 128.903 66.0158C129.523 61.5894 132.824 59.9275 134.694 62.7658Z" fill="#FFBF99"/>
<path d="M204.246 272.761C204.8 273.269 210.127 284.026 210.127 284.026C210.127 284.026 216.053 282.733 217.275 278.994L211.948 269.275L204.246 272.761Z" fill="url(#paint5_linear_5007_5371)"/>
<path d="M68.0668 177.493C68.0668 177.493 66.1297 182.133 66.2219 188.296C66.3372 196.837 73.1862 203.763 81.6955 204.178L151.615 207.364C153.091 207.433 154.336 208.449 154.705 209.88C156.342 216.251 164.39 235.78 203.639 274.769C204.677 275.807 209.455 285.422 210.7 284.637L218.326 280.478C218.902 280.109 213.924 270.544 213.555 269.944L172.853 200.346C170.709 196.814 167.273 194.252 163.283 193.236L103.695 177.978L68.0668 177.493Z" fill="#EE384E"/>
<path d="M66.8008 178C66.8008 178 85.6873 182.594 103.697 178C103.697 178 128.903 144.067 138.657 134.834C138.657 134.834 154.223 159.418 188.837 162.88L190.774 158.564C190.774 158.564 163.216 145.845 154.707 126.292C146.221 106.74 142.808 98.4071 135.083 93.3056C130.263 90.12 127.404 87.9501 125.905 86.7728C125.098 86.1265 123.968 86.0572 123.068 86.5882C114.905 91.5974 77.0147 99.532 66.8008 178Z" fill="#0083F9"/>
<path d="M137.643 134.997C137.089 134.997 136.536 134.743 136.19 134.281C130.125 126.363 126.735 117.638 126.597 117.268C126.228 116.322 126.712 115.26 127.657 114.891C128.603 114.521 129.664 115.006 130.033 115.953C130.056 116.045 133.376 124.563 139.095 132.042C139.718 132.85 139.557 134.004 138.749 134.627C138.427 134.858 138.035 134.997 137.643 134.997Z" fill="#0064B7"/>
<path d="M186.754 156.325L190.651 155.286L202.481 152.539C203.911 152.216 205.41 152.47 206.632 153.232L216.802 159.649L188.691 159.603L186.754 156.325Z" fill="url(#paint6_linear_5007_5371)"/>
<path d="M373.189 173.02C373.416 174.157 395.848 272.515 401.551 297.471C402.207 300.351 399.835 303.003 396.757 302.851C394.612 302.75 392.82 301.26 392.392 299.239L364.332 172.338L373.189 173.02Z" fill="#023EA1"/>
<path d="M96.5687 291.479H102.637L102.637 220.581H96.5687L96.5687 291.479Z" fill="#023EA1"/>
<path d="M73.0586 292.754H126.172V289.41C126.172 289.09 125.902 288.819 125.583 288.819H73.6482C73.3288 288.819 73.0586 289.09 73.0586 289.41V292.754Z" fill="#023EA1"/>
<path d="M65.168 216.641C65.168 220.231 68.0914 223.157 71.6782 223.157H125.431C129.017 223.157 131.941 220.231 131.941 216.641V210.739C131.941 207.148 129.017 204.222 125.431 204.222H71.6782C68.0914 204.222 65.168 207.148 65.168 210.739V216.641Z" fill="#023EA1"/>
<path d="M191.256 171.177C190.979 172.364 163.55 275.269 156.611 301.362C155.804 304.368 158.049 307.323 161.128 307.323C163.273 307.323 165.14 305.833 165.67 303.736L200.164 170.949L191.256 171.177Z" fill="#023EA1"/>
<path d="M390.758 173.854C391.036 175.041 418.464 277.946 425.403 304.039C426.211 307.044 423.965 310 420.887 310C418.742 310 416.875 308.509 416.345 306.413L382.961 173.854H390.758Z" fill="#023EA1"/>
<path d="M156.084 164.532H431.733C435.593 164.532 439.779 165.196 440.738 166.51L443.769 171.984C443.769 174.662 441.094 175.697 435.543 175.671L152.702 175.091C147.227 175.091 143.215 173.272 144.552 171.403L147.908 166.755C148.842 165.442 152.198 164.532 156.084 164.532Z" fill="#1047A2"/>
<path d="M424.011 249.28C424.011 249.28 427.996 247.715 427.711 243.161C427.427 238.607 425.15 235.476 429.846 236.757C434.684 238.038 436.25 238.607 439.807 237.895C443.365 237.184 446.211 235.761 444.646 240.172C443.08 244.726 441.515 248.568 445.073 249.28C448.63 249.991 452.615 247.288 453.042 254.403C453.469 261.518 447.776 269.487 438.526 269.772C429.277 270.057 425.15 266.214 425.15 266.214C425.15 266.214 422.731 262.657 426.573 261.803C430.415 260.949 434.4 259.241 432.407 257.534C430.415 255.684 424.011 255.541 424.011 255.541C424.011 255.541 415.9 253.976 424.011 249.28Z" fill="#649CE8"/>
<path d="M466.273 250.418C465.562 245.864 466.131 242.591 474.527 241.453C482.923 240.172 487.904 245.295 488.331 250.418C488.9 255.541 481.5 257.533 481.5 257.533C481.5 257.533 476.377 258.957 478.939 263.51C481.5 268.064 482.781 272.476 476.804 273.045C470.827 273.756 464.281 272.191 460.581 269.772C456.881 267.353 453.181 261.233 457.451 257.96C457.451 257.96 458.589 257.107 462.573 256.964C466.7 256.822 466.273 250.418 466.273 250.418Z" fill="#023E9F"/>
<path fill-rule="evenodd" clip-rule="evenodd" d="M436.023 249.993L436.673 249.706C437.323 249.42 437.323 249.42 437.323 249.42L437.328 249.432L437.344 249.467L437.403 249.604C437.455 249.724 437.531 249.9 437.628 250.128C437.822 250.585 438.1 251.248 438.436 252.077C439.109 253.734 440.015 256.057 440.954 258.72C442.825 264.031 444.843 270.753 445.349 276.252L443.935 276.383C443.445 271.067 441.479 264.484 439.614 259.192C438.685 256.555 437.786 254.253 437.12 252.61C436.787 251.79 436.512 251.134 436.321 250.684C436.225 250.459 436.151 250.286 436.1 250.169L436.043 250.037L436.028 250.004L436.023 249.993Z" fill="#023E9F"/>
<path fill-rule="evenodd" clip-rule="evenodd" d="M474.95 251.87C474.95 251.87 474.95 251.87 475.538 252.267C476.127 252.664 476.127 252.664 476.127 252.664L475.988 252.871C475.897 253.006 475.763 253.206 475.591 253.463C475.247 253.976 474.753 254.716 474.151 255.623C472.947 257.438 471.313 259.921 469.589 262.595C466.13 267.963 462.354 274.037 460.956 277.043L459.668 276.444C461.116 273.331 464.954 267.166 468.396 261.826C470.123 259.145 471.762 256.657 472.968 254.838C473.571 253.929 474.066 253.187 474.411 252.673C474.583 252.415 474.718 252.215 474.809 252.078L474.95 251.87Z" fill="#649CE8"/>
<path d="M440.382 275.037H468.701C468.701 275.037 471.831 275.322 471.547 279.449C471.262 283.291 466.424 282.437 463.862 282.437C461.301 282.437 439.813 282.437 439.813 282.437C439.813 282.437 436.397 283.006 436.397 279.022C436.255 275.179 437.536 275.037 440.382 275.037Z" fill="#0055A2"/>
<path d="M439.809 282.581L444.078 307.626H463.147L466.42 288.842L439.809 282.581Z" fill="#0055A2"/>
<path d="M439.809 282.581L466.42 288.842L467.558 282.581H439.809Z" fill="#016AD3"/>
<path fill-rule="evenodd" clip-rule="evenodd" d="M452.762 276.069L452.053 276.033C451.344 275.997 451.344 275.997 451.344 275.996L451.345 275.975L451.348 275.913C451.351 275.859 451.356 275.779 451.362 275.673C451.375 275.463 451.394 275.152 451.422 274.752C451.477 273.951 451.565 272.788 451.697 271.339C451.96 268.443 452.398 264.399 453.094 259.81C454.484 250.65 456.916 239.252 461.088 230.475L462.371 231.085C458.29 239.669 455.883 250.898 454.498 260.024C453.807 264.578 453.373 268.593 453.111 271.468C452.981 272.905 452.893 274.058 452.839 274.85C452.811 275.246 452.792 275.551 452.78 275.758C452.774 275.861 452.769 275.939 452.766 275.992L452.763 276.05L452.762 276.069Z" fill="#FABC43"/>
<path d="M468.552 220.676C468.552 220.676 469.264 229.215 460.868 232.488C460.868 232.488 459.16 225.23 468.552 220.676Z" fill="#FABC43"/>
<path d="M456.035 247.857C456.035 247.857 459.166 240.599 468.558 241.595C468.558 241.595 467.847 248.853 456.035 247.857Z" fill="#FABC43"/>
<path d="M452.898 266.214C452.898 266.214 454.464 258.53 463.998 257.534C463.998 257.534 464.71 264.791 452.898 266.214Z" fill="#FABC43"/>
<path d="M452.615 266.214C452.615 266.214 453.753 258.387 445.073 254.402C445.073 254.402 441.942 260.948 452.615 266.214Z" fill="#FABC43"/>
<path d="M456.174 247.857C456.174 247.857 458.309 240.173 450.198 235.192C450.198 235.05 446.355 241.311 456.174 247.857Z" fill="#FABC43"/>
<path d="M320.875 29L312.312 31.4463L314.759 40.0085L323.321 37.5622L320.875 29Z" fill="#FABC43"/>
<path d="M175.297 74.1406L166.734 76.587L169.181 85.1492L177.743 82.7028L175.297 74.1406Z" fill="#023EA1"/>
<defs>
<linearGradient id="paint0_linear_5007_5371" x1="231.551" y1="-6.0021" x2="226.092" y2="104.336" gradientUnits="userSpaceOnUse">
<stop stop-color="#09005D"/>
<stop offset="1" stop-color="#1A0F91"/>
</linearGradient>
<linearGradient id="paint1_linear_5007_5371" x1="122.71" y1="57.9604" x2="25.0193" y2="6.57325" gradientUnits="userSpaceOnUse">
<stop stop-color="#09005D"/>
<stop offset="1" stop-color="#1A0F91"/>
</linearGradient>
<linearGradient id="paint2_linear_5007_5371" x1="150.593" y1="287.868" x2="190.891" y2="287.868" gradientUnits="userSpaceOnUse">
<stop stop-color="#09005D"/>
<stop offset="1" stop-color="#1A0F91"/>
</linearGradient>
<linearGradient id="paint3_linear_5007_5371" x1="152.596" y1="275.713" x2="163.499" y2="275.713" gradientUnits="userSpaceOnUse">
<stop stop-color="#FEBBBA"/>
<stop offset="1" stop-color="#FF928E"/>
</linearGradient>
<linearGradient id="paint4_linear_5007_5371" x1="213.796" y1="279.877" x2="246.332" y2="279.877" gradientUnits="userSpaceOnUse">
<stop stop-color="#09005D"/>
<stop offset="1" stop-color="#1A0F91"/>
</linearGradient>
<linearGradient id="paint5_linear_5007_5371" x1="204.252" y1="276.632" x2="217.269" y2="276.632" gradientUnits="userSpaceOnUse">
<stop stop-color="#FEBBBA"/>
<stop offset="1" stop-color="#FF928E"/>
</linearGradient>
<linearGradient id="paint6_linear_5007_5371" x1="186.762" y1="156.015" x2="216.83" y2="156.015" gradientUnits="userSpaceOnUse">
<stop stop-color="#FEBBBA"/>
<stop offset="1" stop-color="#FF928E"/>
</linearGradient>
</defs>
</svg>
