<svg width="370" height="233" viewBox="0 0 370 233" fill="none" xmlns="http://www.w3.org/2000/svg">
<g clip-path="url(#clip0_1387_281)">
<path d="M87.5884 167.585H46.2412V214.593H87.5884V167.585Z" fill="#25409C"/>
<path d="M86.479 173.585H84.2598V209.642H86.479V173.585Z" fill="#3864B2"/>
<path d="M78.8872 178.07H76.668V205.855H78.8872V178.07Z" fill="#3864B2"/>
<path d="M75.7915 178.07H73.5723V205.855H75.7915V178.07Z" fill="#3864B2"/>
<path d="M72.6381 178.07H70.4189V205.855H72.6381V178.07Z" fill="#3864B2"/>
<path d="M69.4848 178.07H67.2656V205.855H69.4848V178.07Z" fill="#3864B2"/>
<path d="M66.3305 178.07H64.1113V205.855H66.3305V178.07Z" fill="#3864B2"/>
<path d="M63.06 178.07H60.8408V205.855H63.06V178.07Z" fill="#3864B2"/>
<path d="M59.9067 178.07H57.6875V205.855H59.9067V178.07Z" fill="#3864B2"/>
<path d="M56.812 178.07H54.5928V205.855H56.812V178.07Z" fill="#3864B2"/>
<path d="M53.6001 178.07H51.3809V205.855H53.6001V178.07Z" fill="#3864B2"/>
<path d="M50.5044 178.07H48.2852V205.855H50.5044V178.07Z" fill="#3864B2"/>
<path d="M46.4168 167.585H39V214.593H46.4168V167.585Z" fill="#3864B2"/>
<path d="M54.5345 129.432C54.3009 130.538 52.0233 133.393 52.0233 133.393L47.6433 135.14L46.2417 145.916L46.7673 152.615C46.7673 152.615 46.1249 154.596 44.0225 154.596C41.8033 154.479 40.4017 154.246 40.9273 151.217C41.4529 148.246 40.1681 148.712 39.1753 143.412C38.2993 138.227 42.0369 136.829 43.5553 136.189C45.0737 135.431 46.6505 131.47 46.6505 131.47C47.2929 125.995 53.2497 128.092 53.2497 128.092C53.2497 128.092 54.6513 128.441 54.5345 129.432Z" fill="#1A1155"/>
<path d="M55.1769 127.16C55.1769 127.684 54.5345 129.14 54.5345 129.14C54.5345 129.14 52.1401 127.742 51.7897 127.626C51.4393 127.509 52.4321 126.519 52.4321 126.519C52.4321 126.519 55.0601 126.927 55.1769 127.16Z" fill="#D05152"/>
<path d="M58.7975 119.471C55.4103 120.345 55.9359 123.723 54.9431 127.509C53.9503 130.713 52.1983 132.985 51.6143 133.567C51.6143 133.567 51.6143 133.8 51.6143 133.917C51.7311 134.15 52.0815 134.674 52.6071 135.664C53.4831 137.179 57.1039 138.169 57.9799 137.761C58.7391 137.295 59.9655 134.674 59.6151 131.936C59.3815 129.082 61.6007 130.538 61.6007 130.538C64.1119 131.179 65.3383 129.548 65.3383 129.548C67.7327 127.218 68.0831 120.985 68.0831 119.762C68.0831 119.529 67.8495 119.413 67.7327 119.413C66.7399 119.121 61.7759 118.597 58.7975 119.471Z" fill="#EEBD98"/>
<path d="M71.3532 119.879C71.1196 120.403 70.8276 120.869 70.4772 121.277C69.4844 122.383 68.4916 121.044 67.966 120.17C67.7324 119.82 67.4404 119.704 67.09 119.82C64.6956 121.335 61.0164 120.694 61.0164 120.694C57.5124 119.704 59.6148 123.432 59.6148 123.432C59.7316 125.412 57.9796 127.509 53.7748 127.16C49.57 126.81 51.6724 118.481 51.7892 118.073C53.1324 112.714 58.5052 111.025 61.7172 111.025C64.2284 111.025 66.214 112.889 66.798 113.529C66.9148 113.879 67.2652 113.879 67.3236 113.879C68.0828 113.879 68.9588 114.228 69.6596 114.753C70.5356 115.51 71.0028 116.733 71.0612 117.84C71.0612 118.189 71.0612 118.481 71.0612 119.063C71.0612 119.354 71.1196 119.646 71.3532 119.879Z" fill="#1A1155"/>
<path d="M46.8254 135.664L45.7158 136.771C45.7158 136.771 48.0518 158.731 48.4606 159.605C48.9278 160.479 49.5702 163.217 49.5702 163.217L66.3894 161.003L66.039 160.362C66.039 160.362 63.6446 147.722 64.0534 146.674C64.5206 145.567 65.6886 146.033 65.6886 142.48C65.6886 138.985 59.7318 133.567 59.7318 133.567C59.7318 133.567 59.4982 136.655 56.6366 136.655C53.775 136.655 51.6726 133.334 51.6726 133.334C48.9278 133.509 46.9422 135.664 46.8254 135.664Z" fill="#DE051F"/>
<path d="M44.7229 150.402L51.3221 149.295C51.3221 149.295 51.4389 148.188 51.3221 143.179C51.0885 137.994 51.0885 134.616 46.9421 135.14C42.7373 135.664 44.4309 146.557 44.4309 146.557L44.7229 150.402Z" fill="#EE384E"/>
<path d="M44.8404 150.169C44.7236 150.169 44.7236 150.402 44.7236 150.518C45.074 151.042 45.5996 152.382 46.7092 156.576C48.2276 161.935 50.914 159.896 50.914 159.896C50.914 159.896 64.346 151.101 66.3316 150.809C67.4412 150.46 68.0836 150.285 68.434 149.936C68.6676 149.936 68.434 149.586 68.3172 149.586C67.85 149.586 67.3244 149.586 66.9156 149.062C66.1564 148.188 68.6676 148.596 68.6676 148.596C68.6676 148.596 70.0692 149.062 70.186 148.596C70.3028 148.13 69.8356 146.848 69.8356 146.499C69.7188 146.382 66.974 146.382 65.3388 146.848C64.346 147.081 63.8204 147.955 63.7036 148.479C63.5868 148.945 63.3532 149.237 63.0612 149.353C61.3092 150.227 55.7028 152.965 53.7172 154.071C53.1916 154.304 52.8412 154.537 52.4908 154.596C51.9652 154.829 51.8484 154.246 51.8484 153.605L51.498 149.411C51.498 149.295 51.2644 149.295 51.1476 149.295L44.8404 150.169Z" fill="#EEBD98"/>
<path d="M68.0831 153.256L64.8711 153.372L65.6303 158.324L73.3391 155.003L68.0831 153.256Z" fill="#EEBD98"/>
<path d="M66.5068 155.353L78.1868 154.887L90.7428 139.101L78.654 139.858L66.5068 155.353Z" fill="#1A1155"/>
<path d="M78.8291 154.13C78.8291 154.13 80.8147 152.149 80.8147 151.625C80.9315 151.101 80.2891 150.11 79.2963 150.518C78.3035 150.926 78.7123 153.78 78.7123 153.78L78.8291 154.13Z" fill="#EEBD98"/>
<path d="M60.7832 161.819L72.1128 168.925L86.1872 185.818L89.2824 213.778L95.2392 213.661V212.787C95.2392 212.787 94.48 186.458 93.8376 178.42C93.1952 170.381 90.1 169.857 90.1 169.857L66.448 160.77L60.7832 161.819Z" fill="#0054A3"/>
<path d="M49.6869 163.042L49.5701 166.42C48.1685 174.517 52.7821 176.847 53.9501 177.255C54.1837 177.371 54.4173 177.371 54.4757 177.371C56.3445 177.721 71.6453 179.002 74.7989 179.352C78.3029 179.468 78.0109 180.983 78.0109 180.983L67.6741 209.525L71.7037 212.613C71.7037 212.613 83.5005 191.526 87.6469 184.536C91.9101 177.488 85.3109 173.702 85.3109 173.702L61.1333 161.644L49.5701 162.751L49.6869 163.042Z" fill="#0064E1"/>
<path d="M95.006 213.37H89.0492L88.9324 215.583C88.8156 217.797 89.8084 218.088 89.8084 218.088C89.8084 218.088 97.7508 217.855 100.145 218.205C102.54 218.554 102.481 217.564 102.481 217.564C102.481 216.807 101.488 216.574 100.963 216.457C100.612 216.457 100.437 216.224 100.087 216.108L95.006 213.37Z" fill="#170C51"/>
<path d="M67.2075 209.642C67.2075 209.642 66.0979 210.632 65.2219 211.622C64.6963 212.38 64.6963 213.137 64.6963 213.603C64.6963 213.836 64.9299 214.069 65.0467 214.127C66.3899 215.117 72.2883 220.069 74.3907 220.709C74.6243 220.826 74.6243 220.826 74.7411 220.826C75.0915 220.942 75.3835 221.175 75.7339 220.826C76.0843 220.709 76.0843 220.593 76.0843 220.302C76.0843 220.069 75.9675 219.952 75.9675 219.661C75.8507 219.195 75.7339 219.137 75.4419 218.787C74.6827 217.68 73.8067 216.807 73.1059 215.7C71.7043 213.952 71.7043 212.496 71.7043 212.496L67.2075 209.642Z" fill="#170C51"/>
<path d="M292.25 46.4065L269.901 99.2136L308.533 115.479L330.881 62.6717L292.25 46.4065Z" fill="white"/>
<path d="M269.854 99.1415C270.146 99.1415 270.146 98.8503 270.438 98.6755C270.73 97.9183 271.022 97.0445 271.606 95.7048C272.482 93.0253 274.118 89.3555 276.045 84.812C279.899 75.5503 285.506 62.2693 292.163 46.6583V46.4835H292.338C303.843 51.2018 316.983 56.7938 330.882 62.677H331.058V62.8518C322.765 82.5985 315.114 100.889 308.749 115.626V115.801H308.574C296.894 110.966 287.141 106.831 280.483 103.86C277.096 102.404 274.585 101.18 272.658 100.481C271.782 100.19 271.023 99.724 270.614 99.6075C269.971 99.1415 269.854 99.1415 269.854 99.1415C269.854 99.1415 270.03 99.3163 270.73 98.8503C271.314 99.025 271.898 99.3163 272.774 99.724C274.702 100.481 277.213 101.646 280.6 103.103C287.258 106.073 297.01 110.034 308.69 114.869H308.515C314.706 100.132 322.531 81.8413 330.824 62.0945L330.999 62.5605C317.275 56.7938 304.135 51.3765 292.455 46.367H292.63C285.973 61.8615 280.25 75.0843 276.395 84.4043C274.468 88.9478 273.008 92.6758 271.84 95.297C271.256 96.6368 270.964 97.5105 270.497 98.2678C270.263 98.559 269.971 98.6755 269.854 99.1415Z" fill="#E0E0E0"/>
<path d="M312.078 66.9875C317.276 69.0263 321.364 71.1233 321.364 71.1233C321.364 71.298 317.1 69.667 311.903 67.4535C306.705 65.4148 302.617 63.3178 302.617 63.3178C302.617 63.2013 306.939 64.774 312.078 66.9875Z" fill="#E0E0E0"/>
<path d="M305.303 69.3757C313.304 72.7542 319.786 75.725 319.786 75.725C319.611 75.8997 313.129 73.2202 305.186 69.8417C297.186 66.4632 290.703 63.4925 290.703 63.4925C290.703 63.4925 297.186 66.1137 305.303 69.3757Z" fill="#E0E0E0"/>
<path d="M303.084 74.2105C311.085 77.589 317.568 80.5598 317.568 80.5598C317.392 80.7345 310.91 78.055 302.968 74.6765C294.967 71.298 288.484 68.3273 288.484 68.3273C288.601 68.3273 295.084 70.832 303.084 74.2105Z" fill="#E0E0E0"/>
<path d="M301.332 78.9288C309.333 82.3073 315.816 85.278 315.816 85.278C315.64 85.4528 309.158 82.7733 301.216 79.3948C293.215 76.0163 286.732 73.0455 286.732 73.0455C286.732 73.0455 293.04 75.725 301.332 78.9288Z" fill="#E0E0E0"/>
<path d="M299.23 83.8218C307.231 87.2003 313.713 90.171 313.713 90.171C313.538 90.3458 307.055 87.6663 299.113 84.2878C291.112 80.9093 284.63 77.9385 284.63 77.9385C284.63 77.9385 291.112 80.4433 299.23 83.8218Z" fill="#E0E0E0"/>
<path d="M297.186 88.54C305.187 91.9185 311.669 94.8892 311.669 94.8892C311.494 95.064 305.012 92.3845 297.069 89.006C289.068 85.6275 282.586 82.6567 282.586 82.6567C282.586 82.6567 289.068 85.278 297.186 88.54Z" fill="#E0E0E0"/>
<path d="M295.083 93.3748C303.084 96.7533 309.567 99.724 309.567 99.724C309.391 99.8988 302.909 97.2193 294.967 93.8408C286.966 90.4623 280.483 87.4915 280.483 87.4915C280.483 87.4915 286.966 89.9963 295.083 93.3748Z" fill="#E0E0E0"/>
<path d="M299.697 101.064C304.135 102.986 307.522 104.617 307.522 104.617C307.522 104.617 303.96 103.452 299.697 101.53C295.258 99.6075 291.871 97.9765 291.871 97.9765C291.871 97.8018 295.55 99.258 299.697 101.064Z" fill="#E0E0E0"/>
<path d="M191.717 11.9641L140.267 24.2711L150.113 65.2235L201.563 52.9165L191.717 11.9641Z" fill="#F5F5F5"/>
<path d="M190.635 15.2394L142.819 26.677L151.426 62.4749L199.242 51.0373L190.635 15.2394Z" fill="#EBEBEB"/>
<path d="M151.537 62.444L161.29 43.2798L170.108 49.0465L177.058 32.5618L199.075 50.9688L151.537 62.444Z" fill="#E0E0E0"/>
<path d="M164.794 28.7173C166.721 28.2513 168.765 29.591 169.349 31.688C169.816 33.6103 168.473 35.649 166.371 36.2315C164.444 36.6975 162.4 35.3578 161.816 33.2608C161.29 31.3385 162.575 29.2998 164.794 28.7173Z" fill="#E0E0E0"/>
<path d="M259.926 29.591C261.562 30.057 262.613 31.8045 261.97 33.4355C261.503 35.0665 259.751 36.115 258.116 35.4743C256.481 35.0083 255.43 33.2608 256.072 31.6298C256.714 30.057 258.35 29.2998 259.926 29.591Z" fill="#E0E0E0"/>
<path d="M249.181 32.5035C250.891 32.5035 252.276 31.1213 252.276 29.4163C252.276 27.7112 250.891 26.329 249.181 26.329C247.472 26.329 246.086 27.7112 246.086 29.4163C246.086 31.1213 247.472 32.5035 249.181 32.5035Z" fill="#E0E0E0"/>
<path d="M246.086 28.5425C246.261 28.0765 246.378 27.96 246.261 27.494C246.436 27.028 246.728 26.329 247.137 25.164C247.721 24.2903 248.305 22.9505 249.064 21.6108C249.824 20.1545 250.816 18.64 251.751 17.1838H251.926C253.386 18.0575 255.488 18.8148 257.532 19.5138C259.284 19.9798 261.095 20.5623 262.73 20.6788H263.197L263.022 20.97C261.387 21.8438 260.044 23.1835 259.168 24.5233C258.116 25.863 257.708 27.028 257.24 28.193C256.773 29.358 256.656 30.1153 256.656 30.8725C256.481 31.3385 256.481 31.7463 256.481 31.7463C256.481 31.7463 256.481 31.7463 256.481 31.5715C256.481 31.3968 256.481 31.2803 256.481 30.8143C256.481 30.057 256.656 29.1833 257.065 28.0183C257.532 26.9698 258.116 25.6883 258.992 24.3485C260.16 22.8923 261.504 21.8438 263.139 20.6788V20.8535C261.504 20.5623 259.868 20.271 257.941 19.6885C255.897 19.2225 253.795 18.2323 252.16 17.3585H252.335C251.284 18.9895 250.408 20.4458 249.648 21.7855C248.889 23.1253 248.188 24.1155 247.721 25.3388C247.137 26.2125 246.67 27.0863 246.553 27.6688C246.203 27.96 246.086 28.1348 246.086 28.5425Z" fill="#E0E0E0"/>
<path d="M254.32 22.6593C256.831 23.533 258.875 24.1155 258.875 24.2903C258.875 24.465 256.656 23.7078 254.028 22.9505C251.517 22.0768 249.473 21.3195 249.473 21.3195C249.473 21.3195 251.517 21.902 254.32 22.6593Z" fill="#E0E0E0"/>
<path d="M102.188 59.3568V188.264C102.188 191.351 104.875 194.031 107.97 194.031H176.356C180.328 209.817 164.676 215.117 164.676 215.117H230.435C216.536 207.894 220.974 194.031 220.974 194.031H291.288C294.383 194.031 297.069 191.351 297.069 188.264V59.3568C297.069 56.2695 294.383 53.59 291.288 53.59H108.087C104.992 53.59 102.305 56.0948 102.188 59.3568Z" fill="#023EA1"/>
<path d="M197.731 179.993C201.293 177.663 205.439 181.449 202.753 185.002C202.461 185.293 202.461 185.468 202.286 185.468C198.723 187.798 194.577 184.012 197.263 180.458C197.322 180.342 197.439 180.342 197.731 179.993Z" fill="white"/>
<path d="M105.459 170.44L105.167 63.2013C105.167 59.0655 108.262 55.9783 112.409 55.9783H286.441C290.587 55.9783 293.682 59.0655 293.682 63.2013V170.44H105.459Z" fill="white"/>
<path d="M186.693 136.829C186.693 136.363 186.693 135.664 187.161 134.79C187.453 134.033 188.037 133.043 188.796 132.111C189.555 131.179 191.015 130.363 192.183 130.072C193.351 129.781 194.869 129.781 196.037 129.897C197.381 130.072 198.257 130.655 199.016 131.237C199.775 131.82 200.067 132.286 200.476 132.693C200.943 132.985 200.943 133.451 200.943 133.451C200.768 133.451 200.184 132.402 198.724 131.528C197.965 131.062 197.089 130.48 195.921 130.363C194.869 130.072 193.585 130.072 192.241 130.538C191.073 131.004 189.905 131.703 189.146 132.46C188.387 133.218 187.978 134.091 187.511 134.79C186.752 136.421 186.927 137.586 186.752 137.586C186.693 137.586 186.693 137.12 186.693 136.829Z" fill="white"/>
<path d="M187.277 138.052L186.81 138.227L186.635 137.761C185.876 135.431 185.292 133.509 185.467 133.509C185.642 133.509 186.343 135.431 187.102 137.645L186.635 137.47C188.387 135.722 190.314 134.674 190.314 134.79C190.372 134.907 188.912 136.247 187.277 138.052Z" fill="white"/>
<path d="M201.293 137.12C201.293 137.295 201.293 137.586 201.293 137.994C201.293 138.402 201.118 138.751 201.118 139.159C200.943 139.916 200.534 141.081 199.775 141.955C199.015 142.829 198.023 143.703 196.796 144.285C196.621 144.576 196.329 144.577 195.92 144.751C195.628 144.751 195.453 144.926 195.044 144.926C194.285 145.101 193.701 145.101 193.117 145.101C192.066 145.101 190.898 144.81 190.139 144.344C189.379 143.878 188.971 143.586 188.503 143.179C188.211 142.713 188.036 142.596 188.036 142.596C188.211 142.596 188.328 142.887 188.795 143.062C189.087 143.237 189.671 143.528 190.431 143.936C191.19 144.344 192.066 144.518 193.234 144.518C193.701 144.518 194.285 144.518 194.869 144.344C195.161 144.344 195.336 144.169 195.745 144.169C196.037 143.878 196.212 143.877 196.621 143.703C197.789 143.12 198.548 142.363 199.307 141.489C200.067 140.441 200.475 139.567 200.651 138.81C201.118 137.354 200.943 136.13 201.118 136.13C201.176 136.247 201.176 136.421 201.293 137.12Z" fill="white"/>
<path d="M200.709 135.955L201.176 135.49L201.351 135.955C202.402 138.169 203.103 140.091 202.986 140.091C202.811 140.266 201.935 138.635 200.767 136.421H201.351C199.424 138.169 197.964 139.509 197.789 139.392C197.614 139.334 198.957 137.761 200.709 135.955Z" fill="white"/>
<path opacity="0.1" d="M312.195 51.0853C290.412 50.6775 278.264 41.5905 278.264 41.5905C278.264 41.5905 265.884 50.6775 244.1 51.0853C243.984 61.512 245.21 71.8805 248.188 82.5985C252.568 98.2095 264.54 104.268 278.264 108.753C291.988 104.268 304.252 98.0348 308.516 82.3655C311.26 72.23 312.253 61.512 312.195 51.0853Z" fill="black"/>
<path d="M309.801 48.231C288.952 47.8233 278.265 38.678 278.265 38.678C278.265 38.678 267.578 47.8233 246.729 48.231C246.612 58.716 247.196 69.6088 249.824 79.7443C253.912 95.4718 265.125 101.53 278.265 106.073C291.405 101.53 302.618 95.4718 306.706 79.7443C309.334 69.5505 309.859 58.6578 309.801 48.231Z" fill="white"/>
<path d="M307.172 50.2116C288.075 49.8038 278.264 41.4741 278.264 41.4741C278.264 41.4741 268.453 49.8621 249.356 50.2116C249.298 59.8228 249.765 69.7836 252.218 79.1036C255.955 93.4913 266.234 99.0833 278.264 103.219C290.295 99.0833 300.573 93.4913 304.311 79.1036C306.763 69.7836 307.231 59.8228 307.172 50.2116Z" fill="#DE051F"/>
<path d="M304.603 52.192C287.2 51.8425 278.265 44.2118 278.265 44.2118V100.54C289.244 96.7533 298.588 91.6855 302.033 78.521C304.253 70.0165 304.72 60.9295 304.603 52.192Z" fill="#C10A29"/>
<path d="M280.834 74.793C280.834 76.7153 279.666 78.288 278.264 78.288C276.862 78.288 275.694 76.7153 275.694 74.793C275.694 72.8708 276.862 71.298 278.264 71.298C279.666 71.298 280.834 72.8708 280.834 74.793Z" fill="#20B8C4"/>
<path d="M278.381 83.1228H277.446C275.986 83.1228 274.818 81.9578 274.818 80.5015V73.4533C274.818 71.997 275.986 70.832 277.446 70.832H278.381C279.841 70.832 281.009 71.997 281.009 73.4533V80.5015C281.009 81.9578 279.841 83.1228 278.381 83.1228Z" fill="#962929"/>
<path opacity="0.15" d="M292.047 68.8516H290.704H289.069V66.7546C289.069 61.5121 284.805 57.2598 279.549 57.2598C274.293 57.2598 270.03 61.5121 270.03 66.7546V68.8516H268.395H267.052C266.76 68.8516 266.468 69.0846 266.468 69.4341V85.3946C266.468 85.6858 266.701 85.9771 267.052 85.9771H292.164C292.456 85.9771 292.748 85.7441 292.748 85.3946V69.4341C292.631 69.1428 292.397 68.8516 292.047 68.8516ZM273.125 68.8516V66.7546C273.125 63.2596 275.987 60.4053 279.491 60.4053C282.995 60.4053 285.857 63.2596 285.857 66.7546V68.8516H273.301H273.125ZM281.36 81.7831C281.418 82.0743 281.243 82.3656 281.009 82.3656H279.491H278.031C277.797 82.3656 277.622 82.0743 277.681 81.7831L278.732 76.5988C277.739 76.2493 277.097 75.2008 277.33 74.0358C277.505 73.1621 278.206 72.4631 279.141 72.2883C280.601 72.0553 281.827 73.1038 281.827 74.5018C281.827 75.4921 281.243 76.3076 280.367 76.5988L281.36 81.7831Z" fill="black"/>
<path d="M271.607 71.4146V65.2401C271.607 61.7451 274.468 58.8908 277.972 58.8908C281.476 58.8908 284.338 61.7451 284.338 65.2401V71.4728H287.492V65.2401C287.492 59.9976 283.228 55.7453 277.972 55.7453C272.716 55.7453 268.453 59.9976 268.453 65.2401V71.4728H271.607V71.4146Z" fill="white"/>
<path d="M290.47 67.337H289.127H284.338H277.914V70.6573C279.14 70.6573 280.133 71.6475 280.133 72.929C280.133 73.9193 279.549 74.7348 278.673 75.026L279.724 80.2103C279.783 80.5015 279.608 80.7928 279.374 80.7928H277.914V84.4625H290.47C290.762 84.4625 291.054 84.2295 291.054 83.88V67.9195C291.054 67.57 290.762 67.337 290.47 67.337Z" fill="#F79F03"/>
<path d="M277.914 80.7928H276.454C276.22 80.7928 276.045 80.5015 276.104 80.2103L277.155 75.026C276.162 74.6765 275.52 73.628 275.753 72.463C275.928 71.5893 276.629 70.8903 277.564 70.7155C277.739 70.7155 277.856 70.6573 278.031 70.6573V67.337H271.84H266.876H265.533C265.241 67.337 264.949 67.57 264.949 67.9195V83.88C264.949 84.1713 265.183 84.4625 265.533 84.4625H278.089L277.914 80.7928Z" fill="#F79F03"/>
<path d="M196.738 67.104C196.971 67.1623 197.205 67.2788 197.38 67.2788C199.249 67.104 200.125 68.8515 199.132 70.4825C197.555 73.1038 198.198 76.2493 200.534 78.2298C200.943 78.5793 201.41 78.8705 201.877 79.1035C203.571 79.9773 203.804 80.618 202.987 82.3655C200.183 88.307 203.22 95.297 209.469 97.2775C212.214 98.1513 214.842 97.9765 217.47 96.7533C219.222 95.9378 219.864 96.1708 220.74 97.86C222.375 101.064 226.113 102.287 229.325 100.656C231.311 99.6075 232.362 100.19 232.595 102.462C232.595 102.637 232.712 102.87 232.771 103.044C232.771 104.442 232.771 105.84 232.771 107.238C232.537 108.986 232.303 110.733 232.011 112.423C229.208 127.509 216.36 139.858 201.176 142.363C183.072 145.334 165.669 135.198 159.187 118.306C151.945 99.3163 161.523 77.4143 180.444 69.9C184.065 68.4438 187.861 67.5118 191.774 67.2788C192.007 67.2788 192.299 67.1623 192.533 67.104C193.935 67.104 195.336 67.104 196.738 67.104ZM195.395 70.8903C186.459 70.1913 172.268 74.793 164.618 88.4818C157.084 101.996 159.712 119.063 171.042 129.839C182.255 140.499 199.483 142.363 212.623 134.266C219.339 130.131 224.127 124.364 226.931 116.966C228.449 112.889 229.15 108.695 229.091 104.268C224.186 106.073 220.974 103.743 218.287 100.19C212.331 102.404 207.016 101.413 202.578 96.9863C198.198 92.5593 197.263 87.2003 199.483 81.4335C195.92 78.754 193.584 75.6085 195.395 70.8903Z" fill="#F79F03"/>
<path d="M218.93 67.104C220.215 67.57 221.324 68.3273 221.675 69.7253C222.2 71.6475 221.149 73.5698 219.28 74.1523C217.47 74.7348 215.484 73.8028 214.784 71.9388C214.141 70.133 214.959 68.1525 216.769 67.3953C217.003 67.2788 217.236 67.1623 217.47 67.0458C217.996 67.104 218.463 67.104 218.93 67.104Z" fill="#F79F03"/>
<path d="M232.77 89.239C232.653 89.4138 232.536 89.6468 232.361 89.8215C231.66 90.6953 230.492 90.87 229.675 90.1128C228.974 89.4138 228.916 88.2488 229.616 87.5498C230.376 86.7925 231.602 86.909 232.303 87.7828C232.42 87.9575 232.595 88.1323 232.712 88.3071C232.77 88.5983 232.77 88.9478 232.77 89.239Z" fill="#F79F03"/>
<path d="M215.542 81.6083C217.002 81.6083 218.17 82.7733 218.17 84.2878C218.17 85.8023 216.944 87.0255 215.426 87.0255C213.966 87.0255 212.798 85.8023 212.739 84.346C212.798 82.7733 214.024 81.6083 215.542 81.6083Z" fill="#F79F03"/>
<path d="M176.648 106.831C173.67 106.831 171.217 104.442 171.217 101.472C171.217 98.5008 173.553 96.0543 176.59 96.0543C179.626 96.0543 182.079 98.4425 182.079 101.472C182.079 104.384 179.626 106.831 176.648 106.831Z" fill="#F79F03"/>
<path d="M209.177 122.15C209.177 124.655 207.192 126.635 204.68 126.635C202.169 126.635 200.184 124.597 200.184 122.15C200.184 119.704 202.228 117.607 204.739 117.665C207.133 117.665 209.177 119.704 209.177 122.15Z" fill="#F79F03"/>
<path d="M180.269 123.082C178.225 123.082 176.648 121.51 176.648 119.529C176.648 117.549 178.225 115.918 180.211 115.918C182.196 115.918 183.832 117.549 183.832 119.529C183.89 121.451 182.255 123.024 180.269 123.082Z" fill="#F79F03"/>
<path d="M193.817 108.636C192.299 108.636 191.131 107.355 191.131 105.899C191.189 104.442 192.357 103.277 193.876 103.277C195.394 103.277 196.62 104.559 196.562 106.015C196.504 107.471 195.277 108.636 193.817 108.636Z" fill="#F79F03"/>
<path d="M188.445 87.0255C189.905 87.0255 191.131 88.2488 191.131 89.705C191.131 91.1613 189.847 92.4428 188.387 92.4428C186.868 92.4428 185.7 91.1613 185.7 89.6468C185.759 88.1323 186.927 87.0255 188.445 87.0255Z" fill="#F79F03"/>
<path d="M147.215 214.011H252.977C254.905 214.011 254.963 214.943 254.963 214.943C254.963 214.943 254.963 219.428 254.963 220.185C254.963 220.942 252.977 221.001 252.977 221.001H147.215C147.215 221.001 145.112 220.884 145.112 220.127C145.112 219.37 145.112 214.826 145.112 214.826C145.112 214.826 144.937 214.011 147.215 214.011Z" fill="#023EA1"/>
<path d="M162.983 157.508H226.523C228.975 157.508 230.961 155.528 230.961 153.081C230.961 150.635 228.975 148.654 226.523 148.654H162.983C160.531 148.654 158.545 150.635 158.545 153.081C158.545 155.528 160.531 157.508 162.983 157.508Z" fill="#F79F03"/>
</g>
<defs>
<clipPath id="clip0_1387_281">
<rect width="292" height="233" fill="white" transform="translate(39)"/>
</clipPath>
</defs>
</svg>
