<svg width="500" height="370" viewBox="0 0 500 370" fill="none" xmlns="http://www.w3.org/2000/svg">
<path d="M209.631 176.398C229.598 156.43 229.561 124.019 209.547 104.005C189.534 83.9916 157.122 83.9543 137.155 103.922C117.187 123.89 117.224 156.301 137.238 176.315C157.252 196.328 189.663 196.366 209.631 176.398Z" stroke="#DD1F26" stroke-width="1.08733" stroke-miterlimit="10" stroke-dasharray="6.52 6.52"/>
<path d="M127.605 151.68C130.118 149.167 130.113 145.088 127.594 142.569C125.076 140.051 120.997 140.046 118.484 142.559C115.971 145.072 115.975 149.151 118.494 151.669C121.013 154.188 125.092 154.193 127.605 151.68Z" fill="#24499F"/>
<path d="M122.902 150.539L125.236 145.74L120.558 146.227L122.902 150.539Z" fill="white"/>
<path d="M316.138 13.5683C316.138 13.5683 310.062 18.429 315.67 20.6723C321.466 22.9157 323.802 25.533 320.718 30.9545C317.54 36.3759 318.474 40.7692 321.372 42.8257C324.55 44.8821 330.533 47.8732 325.765 54.7903C320.998 61.8943 313.24 76.2893 304.827 72.1765C296.415 68.1571 292.302 54.2295 295.667 48.808C299.032 43.3865 304.64 41.8909 301.93 35.4412C299.219 28.9915 293.517 32.2631 293.143 24.9721C292.956 17.4008 291.928 9.73589 302.303 7.58599C311.464 5.34262 318.568 10.0163 316.138 13.5683Z" stroke="#1C4599" stroke-width="0.949484" stroke-miterlimit="10"/>
<path d="M308.004 18.3352C308.004 18.3352 308.845 65.5395 311.743 77.4107" stroke="#1C4599" stroke-width="0.949484" stroke-miterlimit="10"/>
<path d="M315.856 26.2808L308.565 31.3284L300.246 28.2437" stroke="#1C4599" stroke-width="0.949484" stroke-miterlimit="10"/>
<path d="M335.951 14.3163C335.951 14.3163 350.346 18.7096 346.233 25.3462C342.027 31.7959 344.364 34.3197 347.074 36.6565C349.785 39.1803 356.235 41.7041 351.281 48.3408C346.327 54.9774 341.092 56.0991 341.653 60.6793C342.12 65.0726 337.447 83.0196 330.623 79.0937C323.893 75.0743 323.145 64.4183 324.173 59.6511C325.015 55.2578 320.995 50.0233 317.069 46.6582C313.05 43.4801 310.807 36.8435 316.882 34.7871C323.145 32.5437 325.856 26.3744 323.986 21.7942C322.117 17.4944 326.323 11.4186 335.951 14.3163Z" fill="#FABD41"/>
<path d="M334.639 23.9438L327.535 84.5149" stroke="white" stroke-width="0.949484" stroke-miterlimit="10" stroke-linecap="round" stroke-linejoin="round"/>
<path d="M344.928 42.5452L331.748 48.621L320.438 38.9932" stroke="white" stroke-width="0.949484" stroke-miterlimit="10" stroke-linecap="round" stroke-linejoin="round"/>
<path d="M268.837 22.5416C268.837 22.5416 263.042 18.3352 266.781 13.3811C270.333 8.52047 279.493 8.52047 281.456 13.1942C283.512 17.5874 280.802 20.9525 284.821 21.6068C288.84 22.2611 299.496 25.8131 297.347 31.0477C295.103 36.0953 288.934 36.4692 291.551 43.3862C294.262 50.1164 307.442 51.5185 300.525 60.7724C293.608 70.2132 277.717 83.1126 269.585 67.0351C261.826 50.9576 279.213 54.0423 269.772 43.6667C260.331 33.2911 268.276 32.8237 270.613 28.9912C273.324 24.598 268.837 22.5416 268.837 22.5416Z" fill="#EE384E"/>
<path d="M279.586 28.6174C279.586 28.6174 280.427 47.4057 287.157 62.9224C293.887 78.439 297.626 80.6824 297.626 80.6824" stroke="white" stroke-width="0.949484" stroke-miterlimit="10" stroke-linecap="round" stroke-linejoin="round"/>
<path d="M339.686 343.938H165.805C157.032 343.938 149.832 336.82 149.832 327.965V68.0124C149.832 59.157 156.949 52.0396 165.805 52.0396H339.769C348.541 52.0396 355.742 59.157 355.742 68.0124V327.965C355.659 336.738 348.541 343.938 339.686 343.938Z" fill="#0064B7" stroke="#263238" stroke-width="0.827611" stroke-miterlimit="10" stroke-linejoin="round"/>
<path d="M253.206 67.9293C254.851 67.9293 256.185 66.5953 256.185 64.9499C256.185 63.3044 254.851 61.9705 253.206 61.9705C251.56 61.9705 250.227 63.3044 250.227 64.9499C250.227 66.5953 251.56 67.9293 253.206 67.9293Z" fill="#023EA1" stroke="white" stroke-width="0.827611" stroke-miterlimit="10" stroke-linejoin="round"/>
<path d="M343.659 73.1443H161.75V322.834H343.659V73.1443Z" fill="white" stroke="#263238" stroke-width="0.827611" stroke-miterlimit="10" stroke-linejoin="round"/>
<path d="M171.516 100.539H334.638" stroke="#DCE8F4" stroke-width="0.949484" stroke-miterlimit="10" stroke-linejoin="round"/>
<path d="M171.516 166.664H334.638" stroke="#DCE8F4" stroke-width="0.949484" stroke-miterlimit="10" stroke-linejoin="round"/>
<path d="M171.516 181.065H232.842" stroke="#DCE8F4" stroke-width="0.949484" stroke-miterlimit="10" stroke-linejoin="round"/>
<path d="M171.516 195.465H334.638" stroke="#DCE8F4" stroke-width="0.949484" stroke-miterlimit="10" stroke-linejoin="round"/>
<path d="M171.516 209.866H334.638" stroke="#DCE8F4" stroke-width="0.949484" stroke-miterlimit="10" stroke-linejoin="round"/>
<path d="M171.516 224.266H334.638" stroke="#DCE8F4" stroke-width="0.949484" stroke-miterlimit="10" stroke-linejoin="round"/>
<path d="M216.785 109.062H334.637" stroke="#DCE8F4" stroke-width="0.949484" stroke-miterlimit="10" stroke-linejoin="round"/>
<path d="M216.785 123.463H334.637" stroke="#DCE8F4" stroke-width="0.949484" stroke-miterlimit="10" stroke-linejoin="round"/>
<path d="M216.785 137.864H334.637" stroke="#DCE8F4" stroke-width="0.949484" stroke-miterlimit="10" stroke-linejoin="round"/>
<path d="M216.785 152.264H334.637" stroke="#DCE8F4" stroke-width="0.949484" stroke-miterlimit="10" stroke-linejoin="round"/>
<path d="M335.135 87.7932H170.938V97.8901H335.135V87.7932Z" fill="#023EA1"/>
<path d="M181.527 148.457L174.492 105.173H179.541L184.175 136.291L189.969 105.338H194.272L200.148 136.457L204.7 105.173H209.583L202.714 148.457H198.327L192.286 116.346L186.161 148.457H181.527Z" fill="#023EA1"/>
<path d="M172.008 310.586L215.706 271.688L237.637 283.44L282.908 240.735L333.557 289.813V310.586H172.008Z" fill="#DCE8F4"/>
<path d="M190.714 261.591C196.016 261.591 200.314 257.293 200.314 251.99C200.314 246.688 196.016 242.39 190.714 242.39C185.411 242.39 181.113 246.688 181.113 251.99C181.113 257.293 185.411 261.591 190.714 261.591Z" fill="#DCE8F4"/>
<path d="M333.557 231.714H172.008V310.586H333.557V231.714Z" stroke="#023EA1" stroke-width="0.827611" stroke-miterlimit="10" stroke-linejoin="round"/>
<path d="M334.639 137.863L323.715 125.449L312.625 137.863V73.3098H334.639V137.863Z" fill="#EE384E" stroke="#263238" stroke-width="0.827611" stroke-miterlimit="10" stroke-linejoin="round"/>
<path d="M252.707 341.372C256.592 341.372 259.741 338.223 259.741 334.337C259.741 330.452 256.592 327.303 252.707 327.303C248.821 327.303 245.672 330.452 245.672 334.337C245.672 338.223 248.821 341.372 252.707 341.372Z" fill="#023EA1" stroke="white" stroke-width="0.827611" stroke-miterlimit="10" stroke-linejoin="round"/>
<path d="M178.597 24.1858C178.597 24.1858 178.429 24.0171 178.176 24.1858L176.068 24.6073C175.646 24.6073 175.562 24.4387 175.393 24.1858C175.225 23.0897 174.719 22.1622 174.297 21.4034C174.129 21.2348 174.297 20.8975 174.466 20.7289L176.068 19.6328C176.068 19.6328 176.237 19.4642 176.237 19.2112C176.237 19.0426 176.237 19.0426 176.068 18.7896L173.623 16.3445C173.623 16.3445 173.454 16.1759 173.201 16.1759C173.033 16.1759 173.033 16.1759 172.78 16.3445L171.599 17.9465C171.431 18.1151 171.093 18.3681 170.925 18.1151C169.997 17.6093 169.154 17.1877 168.142 17.0191C167.721 17.0191 167.636 16.5975 167.721 16.3445L168.142 14.2367C168.142 14.0681 168.142 14.0681 168.142 13.8151C168.142 13.8151 167.974 13.6465 167.721 13.6465H164.348C164.18 13.6465 164.18 13.6465 163.927 13.8151C163.927 13.8151 163.758 13.9837 163.927 14.2367L164.348 16.3445C164.348 16.7661 164.18 16.8504 163.927 17.0191C162.831 17.1877 161.903 17.6936 161.144 18.1151C160.976 18.2838 160.638 18.1151 160.47 17.9465L159.289 16.3445C159.289 16.3445 159.121 16.1759 158.868 16.1759C158.699 16.1759 158.699 16.1759 158.446 16.3445L155.917 18.874C155.917 18.874 155.748 19.0426 155.748 19.2955C155.748 19.4642 155.748 19.4642 155.917 19.7171L157.519 20.8975C157.687 21.0661 157.94 21.4034 157.687 21.572C157.182 22.4995 156.76 23.3426 156.591 24.3544C156.591 24.776 156.17 24.8603 155.917 24.776L153.809 24.3544C153.64 24.3544 153.64 24.3544 153.387 24.3544C153.387 24.3544 153.219 24.523 153.219 24.776V28.1485C153.219 28.3171 153.219 28.3171 153.387 28.5701C153.387 28.5701 153.556 28.7387 153.809 28.5701L155.917 28.1485C156.338 28.1485 156.423 28.3171 156.591 28.5701C156.76 29.6662 157.266 30.5936 157.687 31.3525C157.856 31.5211 157.687 31.8583 157.519 32.027L155.917 33.2074C155.917 33.2074 155.748 33.376 155.748 33.6289C155.748 33.7976 155.748 33.7976 155.917 34.0505L158.446 36.5799C158.446 36.5799 158.615 36.7486 158.868 36.7486C159.036 36.7486 159.036 36.7486 159.289 36.5799L160.47 34.978C160.638 34.8093 160.976 34.5564 161.144 34.8093C162.072 35.3152 162.915 35.7368 163.927 35.9054C164.348 35.9054 164.433 36.327 164.348 36.5799L163.927 38.4348C163.927 38.6035 163.927 38.6035 163.927 38.8564C163.927 38.8564 164.095 39.025 164.348 39.025H167.721C167.889 39.025 167.889 39.025 168.142 38.8564C168.142 38.8564 168.311 38.6878 168.142 38.4348L167.721 36.327C167.721 35.9054 167.889 35.8211 168.142 35.6525C169.238 35.4838 170.166 34.978 170.925 34.5564C171.093 34.3878 171.431 34.5564 171.599 34.725L172.78 36.327C172.78 36.327 172.948 36.4956 173.201 36.4956C173.454 36.4956 173.37 36.4956 173.623 36.327L176.152 33.7976C176.152 33.7976 176.321 33.6289 176.321 33.376C176.321 33.2074 176.321 33.2074 176.152 32.9544L174.55 31.774C174.382 31.6054 174.129 31.2681 174.382 31.0995C174.887 30.1721 175.309 29.3289 175.478 28.3171C175.478 27.8956 175.899 27.8113 176.152 27.8956L178.26 28.3171C178.429 28.3171 178.429 28.3171 178.682 28.3171C178.682 28.3171 178.85 28.1485 178.85 27.8956V24.776C178.597 24.6073 178.597 24.6073 178.597 24.1858Z" stroke="#24499F" stroke-width="0.949484" stroke-miterlimit="10"/>
<path d="M333.98 269.907C333.98 269.907 336.772 269.11 336.293 264.644C335.894 260.258 333.263 256.51 337.25 254.357C341.237 252.044 342.513 251.247 344.427 249.413C346.341 247.499 347.377 246.064 353.677 246.622C353.677 246.622 358.701 242.555 363.246 246.143C367.712 249.732 366.197 259.301 367.234 260.816C368.191 262.331 374.171 268.232 374.889 273.256C375.527 278.28 372.098 281.47 367.234 281.151C362.29 280.832 355.671 281.151 355.671 281.151H337.569C337.569 281.151 331.429 281.55 330.95 275.569C330.552 271.821 333.98 269.907 333.98 269.907Z" fill="#180857"/>
<path d="M349.054 277.164C349.054 277.164 349.054 280.912 347.459 282.427C345.864 283.942 343.711 286.653 343.711 286.653C343.711 286.653 347.459 292.474 354.795 291.597C362.132 290.72 363.487 285.616 363.487 285.616C363.487 285.616 356.55 284.66 355.752 278.121C354.955 271.582 353.918 271.582 353.918 271.582L349.054 277.164Z" fill="#FFB07E"/>
<path d="M352.483 279.237C357.029 279.237 360.697 273.017 360.697 265.441C360.697 257.786 357.029 251.646 352.483 251.646C347.938 251.646 344.27 257.866 344.27 265.441C344.27 273.097 347.938 279.237 352.483 279.237Z" fill="#FFBE9B"/>
<path d="M352.482 250.849C352.482 250.849 350.967 255.235 347.936 259.541C344.906 263.927 341.238 266.319 340.839 267.037C340.44 267.834 337.729 265.601 338.766 262.093C339.803 258.584 345.544 249.015 351.525 248.855C357.506 248.696 358.861 245.267 361.652 252.204C364.523 259.142 363.965 267.116 363.965 267.116L352.482 250.849Z" fill="#180857"/>
<path d="M344.831 263.767C344.831 263.767 341.721 263.368 341.322 265.282C340.844 267.196 342.359 268.871 344.831 269.269C347.463 269.668 344.831 263.767 344.831 263.767Z" fill="#FFBE9B"/>
<path d="M375.29 354.595C375.29 354.595 380.234 354.914 383.743 354.914C387.252 354.914 392.914 355.712 392.914 355.712C392.914 355.712 394.429 355.712 394.508 357.546C394.668 359.38 394.668 360.098 394.668 360.098C394.668 360.098 394.827 362.251 393.073 362.251C391.319 362.251 380.474 363.527 378.001 363.527C375.529 363.527 373.695 364.005 373.695 362.251C373.775 360.496 373.536 354.516 375.29 354.595Z" fill="#170856"/>
<path d="M379.276 302.842C379.276 302.842 382.545 320.465 382.705 325.09C383.024 329.795 383.502 333.304 380.313 335.058C377.282 336.892 372.179 338.567 372.179 338.567L365.879 307.148V303.4L379.276 302.842Z" fill="#FFBF99"/>
<path d="M325.288 301.884C325.288 301.884 323.534 309.858 323.055 313.846C322.577 317.833 321.46 325.727 321.301 327.562C321.141 329.396 320.902 332.506 324.251 334.818C327.601 337.211 331.109 338.566 331.109 338.566L337.887 301.964L325.288 301.884Z" fill="#FFBF99"/>
<path d="M345.143 283.384C345.143 283.384 340.119 282.746 337.408 283.543C334.776 284.341 333.899 283.862 334.537 285.936C335.334 288.009 338.923 297.578 337.169 303.559C335.414 309.54 333.102 340.241 333.102 340.241C333.102 340.241 351.682 341.039 358.939 341.358C366.195 341.756 371.538 340.321 371.538 340.321C371.538 340.321 373.133 327.084 371.538 321.342C369.943 315.521 367.79 305.792 367.79 305.792C367.79 305.792 366.434 292.395 368.269 289.046C370.103 285.696 371.538 285.617 369.146 284.74C366.753 283.862 364.202 283.145 362.368 283.145C360.533 283.145 359.497 283.145 358.46 284.261C357.344 285.378 355.111 287.61 352.081 287.132C349.05 286.653 346.658 284.58 346.658 284.58C346.658 284.58 345.861 283.543 345.143 283.384Z" fill="#DE051F"/>
<path d="M336.133 284.421C336.133 284.421 334.378 283.543 331.826 285.776C329.035 288.169 327.042 293.272 326.005 296.462C324.968 299.731 324.41 302.841 324.41 302.841C324.41 302.841 327.919 304.675 331.667 304.835C335.415 304.994 337.807 305.234 337.807 305.234C337.807 305.234 339.402 295.744 339.083 291.438C338.684 287.052 338.046 285.537 336.133 284.421Z" fill="#EE384E"/>
<path d="M367.073 287.929C367.073 287.929 368.588 283.862 371.857 285.776C375.207 287.61 377.679 294.628 378.317 296.86C379.114 299.014 380.071 303.559 380.071 303.559C380.071 303.559 376.164 305.234 372.814 305.552C369.465 305.871 367.153 306.031 367.153 306.031C367.153 306.031 365.797 297.339 366.036 293.91C366.275 290.321 367.073 287.929 367.073 287.929Z" fill="#EE384E"/>
<path d="M339.961 342.793H365.16L352.162 346.701L339.961 342.793Z" fill="#004B89"/>
<path d="M317.634 335.616C317.634 335.616 363.407 349.89 373.455 353.558C373.455 353.558 376.804 354.436 376.884 356.11C377.044 357.785 376.565 360.337 376.246 361.533C375.847 362.809 374.731 363.686 372.897 363.367C371.063 362.968 330.074 354.834 313.727 350.528L309.022 349.013C309.022 349.013 305.593 347.418 306.151 343.192C306.789 338.965 309.899 335.377 312.052 335.058C314.524 334.978 317.634 335.616 317.634 335.616Z" fill="#0064E1"/>
<path d="M313.488 355.951C313.488 355.951 319.309 354.914 322.658 354.834C326.087 354.675 330.633 354.356 331.35 354.834C332.068 355.313 332.706 362.011 332.706 362.011C332.706 362.011 333.344 363.845 328.799 363.526C324.253 363.128 313.807 362.729 313.807 362.729C313.807 362.729 311.415 362.569 311.335 360.576C311.255 358.502 311.654 357.546 311.654 357.546C311.654 357.546 312.052 356.19 313.488 355.951Z" fill="#170856"/>
<path d="M340.843 350.13C340.843 350.13 368.673 341.677 378.562 338.727C388.37 335.776 394.032 333.144 397.142 337.69C400.411 342.395 400.092 347.498 396.344 348.934C392.596 350.449 363.729 357.147 351.768 359.619C339.806 362.091 331.911 363.686 330.795 363.128C329.679 362.65 328.403 359.061 328.722 357.147C329.041 355.154 329.12 354.516 331.353 353.399C333.746 352.522 340.843 350.13 340.843 350.13Z" fill="#0054A3"/>
<path d="M337.574 309.699H371.066C371.066 309.699 372.9 309.38 372.9 311.852C372.9 314.324 372.9 340.72 372.9 340.72C372.9 340.72 373.06 342.713 371.544 342.713C370.029 342.713 332.231 342.713 332.231 342.713C332.231 342.713 330.636 343.192 330.636 340.56C330.636 337.929 330.636 311.214 330.636 311.214C330.636 311.214 330.476 309.699 332.47 309.699C334.464 309.699 337.574 309.699 337.574 309.699Z" fill="#0064B7"/>
<path d="M351.683 324.133L349.77 326.525L352.162 328.439L354.076 326.047L351.683 324.133Z" fill="#569ED4"/>
<path d="M120.038 314.419C120.038 314.419 123.242 313.07 123.073 309.361C122.82 305.651 120.881 303.037 124.844 304.049C128.807 305.145 130.156 305.566 133.022 304.976C135.889 304.386 138.25 303.206 137.069 306.915C135.805 310.625 134.456 313.745 137.407 314.335C140.358 314.925 143.562 312.733 143.899 318.551C144.236 324.369 139.599 330.945 132.011 331.198C124.422 331.451 121.05 328.331 121.05 328.331C121.05 328.331 119.026 325.465 122.23 324.706C125.434 324.031 128.638 322.682 127.036 321.165C125.434 319.647 120.122 319.563 120.122 319.563C120.122 319.563 113.461 318.214 120.038 314.419Z" fill="#649EEA"/>
<path d="M154.775 315.347C154.269 311.637 154.691 308.939 161.52 307.927C168.434 306.915 172.397 311.047 172.818 315.347C173.24 319.562 167.253 321.164 167.253 321.164C167.253 321.164 163.038 322.345 165.146 326.055C167.338 329.764 168.265 333.39 163.375 333.896C158.485 334.402 153.089 333.137 150.138 331.198C147.187 329.174 144.067 324.2 147.524 321.502C147.524 321.502 148.451 320.827 151.74 320.659C155.112 320.49 154.775 315.347 154.775 315.347Z" fill="#023EA1"/>
<path d="M130.492 314.756C130.492 314.756 136.226 327.741 136.984 336.509" stroke="#023EA1" stroke-width="0.949484" stroke-miterlimit="10"/>
<path d="M162.364 316.865C162.364 316.865 152.246 331.957 149.801 336.932" stroke="#649EEA" stroke-width="0.949484" stroke-miterlimit="10"/>
<path d="M133.445 335.498H156.715C156.715 335.498 159.245 335.666 159.076 339.123C158.907 342.327 154.86 341.652 152.752 341.652C150.645 341.652 133.023 341.652 133.023 341.652C133.023 341.652 130.156 342.158 130.156 338.87C130.156 335.666 131.168 335.498 133.445 335.498Z" fill="#0054A5"/>
<path d="M133.02 341.653L136.561 362.225H152.159L154.773 346.796L133.02 341.653Z" fill="#0054A5"/>
<path d="M133.02 341.653L154.773 346.796L155.616 341.653H133.02Z" fill="#006AD5"/>
<path d="M143.055 336.257C143.055 336.257 144.235 313.408 151.065 299.159" stroke="#FCBE42" stroke-width="0.949484" stroke-miterlimit="10"/>
<path d="M156.63 290.896C156.63 290.896 157.221 297.894 150.391 300.592C150.307 300.676 148.874 294.69 156.63 290.896Z" fill="#FCBE42"/>
<path d="M146.348 313.239C146.348 313.239 148.877 307.253 156.634 308.096C156.634 308.011 156.044 313.998 146.348 313.239Z" fill="#FCBE42"/>
<path d="M143.812 328.247C143.812 328.247 145.077 321.923 152.834 321.165C152.834 321.165 153.424 327.067 143.812 328.247Z" fill="#FCBE42"/>
<path d="M143.561 328.247C143.561 328.247 144.488 321.839 137.406 318.551C137.321 318.551 134.792 323.947 143.561 328.247Z" fill="#FCBE42"/>
<path d="M146.426 313.155C146.426 313.155 148.112 306.916 141.536 302.784C141.536 302.784 138.332 307.759 146.426 313.155Z" fill="#FCBE42"/>
</svg>
