<svg width="500" height="340" viewBox="0 0 500 340" fill="none" xmlns="http://www.w3.org/2000/svg">
<path d="M111.618 269.152H170.977V243.41H111.618V269.152Z" fill="#DCE7FF"/>
<path opacity="0.2" d="M166.205 245.935H111.625V243.423H166.151L166.205 245.935Z" fill="black"/>
<path opacity="0.2" d="M166.226 248.135L116.969 249.18L166.226 250.239V248.135Z" fill="black"/>
<path opacity="0.2" d="M166.226 257.652L114.062 258.534L166.226 259.268V257.652Z" fill="black"/>
<path opacity="0.2" d="M166.225 263.219L114.523 264.264L166.225 265.31V263.219Z" fill="black"/>
<path opacity="0.2" d="M111.633 251.801L161.637 253.308L111.633 254.354V251.801Z" fill="black"/>
<path d="M244.085 256.158C244.085 259.376 242.782 262.282 240.664 264.4C238.546 266.518 235.64 267.821 232.409 267.821H108.871C108.396 267.821 108.016 268.201 108.016 268.676V269.6C108.016 270.075 108.396 270.455 108.871 270.455H233.047C236.998 270.455 240.582 268.853 243.162 266.26C245.742 263.666 247.384 260.028 247.357 256.036C247.303 248.121 240.596 241.834 232.681 241.834H108.871C108.396 241.834 108.016 242.215 108.016 242.69V243.613C108.016 244.088 108.396 244.468 108.871 244.468H232.056C238.478 244.468 244.072 249.723 244.072 256.158H244.085Z" fill="#263238"/>
<path opacity="0.4" d="M244.085 256.158C244.085 259.376 242.782 262.282 240.664 264.4C238.546 266.518 235.64 267.821 232.409 267.821H108.871C108.396 267.821 108.016 268.201 108.016 268.676V269.6C108.016 270.075 108.396 270.455 108.871 270.455H233.047C236.998 270.455 240.582 268.853 243.162 266.26C245.742 263.666 247.384 260.028 247.357 256.036C247.303 248.121 240.596 241.834 232.681 241.834H108.871C108.396 241.834 108.016 242.215 108.016 242.69V243.613C108.016 244.088 108.396 244.468 108.871 244.468H232.056C238.478 244.468 244.072 249.723 244.072 256.158H244.085Z" fill="#111111"/>
<path d="M289.136 256.308C289.136 263.423 283.366 269.193 276.251 269.193H166.223V243.41H276.251C283.366 243.41 289.136 249.18 289.136 256.295V256.308Z" fill="#EDF3FF"/>
<path opacity="0.2" d="M166.227 250.239V248.134L275.902 249.017L166.227 250.239Z" fill="black"/>
<path opacity="0.2" d="M166.227 259.269V257.653L215.457 259.418L166.227 259.269Z" fill="black"/>
<path opacity="0.2" d="M166.227 265.31V263.219L245.612 264.427L166.227 265.31Z" fill="black"/>
<path opacity="0.2" d="M276.432 245.935C278.591 245.935 280.614 246.75 282.161 248.135C281.537 249.37 280.939 250.782 280.546 252.316L170.517 253.185L280.288 253.457C280.125 254.326 280.03 255.222 280.03 256.145C280.03 257.231 280.166 258.29 280.396 259.322L206.293 260.938L281.102 261.807C281.822 263.83 282.772 265.622 283.587 266.925C286.954 264.604 289.154 260.707 289.154 256.308C289.154 249.18 283.383 243.41 276.269 243.41H166.227V245.935H276.445H276.432Z" fill="black"/>
<path d="M288.118 256.158C288.118 259.376 286.815 262.282 284.697 264.4C282.579 266.518 279.673 267.821 276.442 267.821H164.363C163.888 267.821 163.508 268.201 163.508 268.676V269.6C163.508 270.075 163.888 270.455 164.363 270.455H277.094C281.045 270.455 284.629 268.853 287.209 266.26C289.788 263.666 291.431 260.028 291.404 256.036C291.35 248.121 284.643 241.834 276.727 241.834H164.363C163.888 241.834 163.508 242.215 163.508 242.69V243.613C163.508 244.088 163.888 244.468 164.363 244.468H276.103C282.525 244.468 288.118 249.723 288.118 256.158Z" fill="#263238"/>
<path d="M275.896 252.887V263.219L272.149 259.485L268.523 263.11V252.887H275.896Z" fill="#407BFF"/>
<path d="M127.794 326.013H287.977V300.23H127.794V326.013Z" fill="#EDF3FF"/>
<path opacity="0.2" d="M127.797 307.033V304.942L237.473 305.811L127.797 307.033Z" fill="black"/>
<path opacity="0.2" d="M127.797 316.076V314.46L177.027 316.212L127.797 316.076Z" fill="black"/>
<path opacity="0.2" d="M127.797 322.117V320.026L207.182 321.234L127.797 322.117Z" fill="black"/>
<path opacity="0.2" d="M252.177 300.217L254.498 319.442L251.756 316.523C250.493 321.941 246.719 326.014 246.719 326.014C246.719 326.014 244.166 322.85 242.673 318.614L167.863 317.759L241.967 316.143C241.749 315.111 241.6 314.039 241.6 312.953C241.6 312.043 241.695 311.147 241.858 310.278L132.087 310.006L242.116 309.151C242.51 307.617 243.107 306.205 243.732 304.969C242.184 303.584 240.161 302.77 238.002 302.77H127.797V300.244H252.177V300.217Z" fill="black"/>
<path d="M249.704 312.966C249.704 316.184 248.401 319.089 246.283 321.207C244.165 323.325 241.259 324.629 238.028 324.629H125.949C125.474 324.629 125.094 325.009 125.094 325.484V326.407C125.094 326.882 125.474 327.263 125.949 327.263H300.32C304.271 327.263 307.855 325.66 310.435 323.067C313.041 320.46 314.657 316.835 314.63 312.844C314.576 304.928 307.869 298.642 299.953 298.642H125.949C125.474 298.642 125.094 299.022 125.094 299.497V300.421C125.094 300.896 125.474 301.276 125.949 301.276H237.689C244.111 301.276 249.704 306.53 249.704 312.966Z" fill="#407BFF"/>
<path opacity="0.2" d="M249.704 312.966C249.704 316.184 248.401 319.089 246.283 321.207C244.165 323.325 241.259 324.629 238.028 324.629H125.949C125.474 324.629 125.094 325.009 125.094 325.484V326.407C125.094 326.882 125.474 327.263 125.949 327.263H300.32C304.271 327.263 307.855 325.66 310.435 323.067C313.041 320.46 314.657 316.835 314.63 312.844C314.576 304.928 307.869 298.642 299.953 298.642H125.949C125.474 298.642 125.094 299.022 125.094 299.497V300.421C125.094 300.896 125.474 301.276 125.949 301.276H237.689C244.111 301.276 249.704 306.53 249.704 312.966Z" fill="#023EA1"/>
<path d="M249.704 312.966C249.704 316.184 248.401 319.089 246.283 321.207C244.165 323.325 241.259 324.629 238.028 324.629H125.949C125.474 324.629 125.094 325.009 125.094 325.484V326.407C125.094 326.882 125.474 327.263 125.949 327.263H238.68C242.631 327.263 246.215 325.66 248.795 323.067C251.374 320.474 253.017 316.835 252.99 312.844C252.936 304.928 246.229 298.642 238.313 298.642H125.949C125.474 298.642 125.094 299.022 125.094 299.497V300.421C125.094 300.896 125.474 301.276 125.949 301.276H237.689C244.111 301.276 249.704 306.53 249.704 312.966Z" fill="#407BFF"/>
<path d="M237.476 309.694V320.027L233.742 316.279L230.117 319.904V309.694H237.476Z" fill="#407BFF"/>
<path d="M249.704 312.966C249.704 316.184 248.401 319.089 246.283 321.207C244.165 323.325 241.259 324.629 238.028 324.629H125.949C125.474 324.629 125.094 325.009 125.094 325.484V326.407C125.094 326.882 125.474 327.263 125.949 327.263H238.68C242.631 327.263 246.215 325.66 248.795 323.067C251.374 320.474 253.017 316.835 252.99 312.844C252.936 304.928 246.229 298.642 238.313 298.642H125.949C125.474 298.642 125.094 299.022 125.094 299.497V300.421C125.094 300.896 125.474 301.276 125.949 301.276H237.689C244.111 301.276 249.704 306.53 249.704 312.966Z" fill="#111111"/>
<path d="M123.087 297.597H283.27V271.814H123.087V297.597Z" fill="#EDF3FF"/>
<path opacity="0.2" d="M123.066 278.629V276.538L232.742 277.421L123.066 278.629Z" fill="black"/>
<path opacity="0.2" d="M123.066 287.671V286.055L172.311 287.82L123.066 287.671Z" fill="black"/>
<path opacity="0.2" d="M123.066 293.713V291.622L202.452 292.83L123.066 293.713Z" fill="black"/>
<path opacity="0.2" d="M247.446 271.827L249.768 291.052L247.025 288.133C245.763 293.55 241.988 297.623 241.988 297.623C241.988 297.623 239.436 294.46 237.942 290.224L163.132 289.368L237.236 287.753C237.019 286.721 236.87 285.648 236.87 284.562C236.87 283.652 236.965 282.756 237.128 281.887L127.357 281.616L237.386 280.76C237.779 279.226 238.377 277.814 239.001 276.579C237.453 275.194 235.43 274.379 233.272 274.379H123.066V271.854H247.446V271.827Z" fill="black"/>
<path d="M244.982 284.562C244.982 287.78 243.678 290.685 241.56 292.803C239.442 294.921 236.537 296.225 233.305 296.225H121.226C120.751 296.225 120.371 296.605 120.371 297.08V298.003C120.371 298.479 120.751 298.859 121.226 298.859H286.799C290.75 298.859 294.334 297.257 296.914 294.663C299.494 292.07 301.137 288.432 301.109 284.44C301.055 276.524 294.348 270.238 286.433 270.238H121.226C120.751 270.238 120.371 270.618 120.371 271.094V272.017C120.371 272.492 120.751 272.872 121.226 272.872H232.966C239.388 272.872 244.982 278.127 244.982 284.562Z" fill="#FCBE42"/>
<path d="M244.982 284.562C244.982 287.78 243.678 290.685 241.56 292.803C239.442 294.921 236.537 296.225 233.305 296.225H121.226C120.751 296.225 120.371 296.605 120.371 297.08V298.003C120.371 298.479 120.751 298.859 121.226 298.859H233.957C237.908 298.859 241.492 297.257 244.072 294.663C246.679 292.057 248.294 288.432 248.267 284.44C248.213 276.524 241.506 270.238 233.59 270.238H121.226C120.751 270.238 120.371 270.618 120.371 271.094V272.017C120.371 272.492 120.751 272.872 121.226 272.872H232.966C239.388 272.872 244.982 278.127 244.982 284.562Z" fill="#111111"/>
<path d="M223.867 277.611V287.957L220.133 284.209L216.508 287.834V277.611H223.867Z" fill="#263238"/>
<path d="M123.032 212.359H182.391V186.617H123.032V212.359Z" fill="#DCE7FF"/>
<path opacity="0.2" d="M177.619 189.142H123.039V186.617H177.565L177.619 189.142Z" fill="black"/>
<path opacity="0.2" d="M177.637 191.329L128.379 192.388L177.637 193.434V191.329Z" fill="black"/>
<path opacity="0.2" d="M177.636 200.846L125.473 201.729L177.636 202.475V200.846Z" fill="black"/>
<path opacity="0.2" d="M177.635 206.413L125.934 207.459L177.635 208.504V206.413Z" fill="black"/>
<path opacity="0.2" d="M123.043 194.996L173.047 196.516L123.043 197.562V194.996Z" fill="black"/>
<path d="M255.499 199.352C255.499 202.57 254.196 205.475 252.078 207.593C249.96 209.711 247.054 211.015 243.823 211.015H120.285C119.81 211.015 119.43 211.395 119.43 211.87V212.793C119.43 213.269 119.81 213.649 120.285 213.649H244.461C248.412 213.649 251.996 212.047 254.576 209.454C257.183 206.847 258.799 203.222 258.771 199.23C258.717 191.315 252.01 185.028 244.095 185.028H120.285C119.81 185.028 119.43 185.408 119.43 185.884V186.807C119.43 187.282 119.81 187.662 120.285 187.662H243.47C249.892 187.662 255.486 192.917 255.486 199.352H255.499Z" fill="#407BFF"/>
<path opacity="0.4" d="M255.499 199.352C255.499 202.57 254.196 205.475 252.078 207.593C249.96 209.711 247.054 211.015 243.823 211.015H120.285C119.81 211.015 119.43 211.395 119.43 211.87V212.793C119.43 213.269 119.81 213.649 120.285 213.649H244.461C248.412 213.649 251.996 212.047 254.576 209.454C257.183 206.847 258.799 203.222 258.771 199.23C258.717 191.315 252.01 185.028 244.095 185.028H120.285C119.81 185.028 119.43 185.408 119.43 185.884V186.807C119.43 187.282 119.81 187.662 120.285 187.662H243.47C249.892 187.662 255.486 192.917 255.486 199.352H255.499Z" fill="white"/>
<path d="M300.546 199.516C300.546 206.631 294.776 212.401 287.662 212.401H177.633V186.618H287.662C294.776 186.618 300.546 192.388 300.546 199.503V199.516Z" fill="#DCE7FF"/>
<path opacity="0.5" d="M177.617 186.618V212.401H287.66C290.375 212.401 292.9 211.559 294.978 210.12C298.345 207.798 300.544 203.902 300.544 199.503C300.544 192.375 294.774 186.604 287.66 186.604H177.617V186.618Z" fill="white"/>
<path opacity="0.2" d="M177.633 193.434V191.329L287.309 192.212L177.633 193.434Z" fill="black"/>
<path opacity="0.2" d="M177.633 202.475V200.846L226.863 202.611L177.633 202.475Z" fill="black"/>
<path opacity="0.2" d="M177.633 208.504V206.413L257.018 207.635L177.633 208.504Z" fill="black"/>
<path opacity="0.2" d="M287.836 189.143C289.995 189.143 292.018 189.957 293.566 191.342C292.941 192.578 292.344 193.99 291.95 195.524L181.921 196.393L291.692 196.664C291.529 197.533 291.434 198.429 291.434 199.353C291.434 200.439 291.57 201.498 291.801 202.53L217.697 204.145L292.493 205.014C293.213 207.037 294.163 208.829 294.978 210.133C298.345 207.811 300.544 203.914 300.544 199.515C300.544 192.387 294.774 186.617 287.66 186.617H177.617V189.143H287.836Z" fill="black"/>
<path d="M299.529 199.352C299.529 202.57 298.225 205.475 296.107 207.593C293.989 209.711 291.084 211.015 287.852 211.015H175.773C175.298 211.015 174.918 211.395 174.918 211.87V212.793C174.918 213.269 175.298 213.649 175.773 213.649H288.504C292.455 213.649 296.039 212.047 298.619 209.454C301.226 206.847 302.841 203.222 302.814 199.23C302.76 191.315 296.053 185.028 288.137 185.028H175.773C175.298 185.028 174.918 185.408 174.918 185.884V186.807C174.918 187.282 175.298 187.662 175.773 187.662H287.513C293.935 187.662 299.529 192.917 299.529 199.352Z" fill="#407BFF"/>
<path d="M287.31 196.081V206.413L283.563 202.679L279.938 206.304V196.081H287.31Z" fill="#407BFF"/>
<path d="M127.489 240.804L287.672 240.804V215.021L127.489 215.021V240.804Z" fill="#EDF3FF"/>
<path opacity="0.2" d="M127.488 221.836V219.732L237.164 220.614L127.488 221.836Z" fill="black"/>
<path opacity="0.2" d="M127.488 230.864V229.249L176.732 231.014L127.488 230.864Z" fill="black"/>
<path opacity="0.2" d="M127.488 236.907V234.816L206.874 236.024L127.488 236.907Z" fill="black"/>
<path opacity="0.2" d="M251.868 215.02L254.19 234.245L251.447 231.326C250.184 236.743 246.41 240.816 246.41 240.816C246.41 240.816 243.858 237.653 242.364 233.417L167.554 232.562L241.658 230.946C241.441 229.914 241.291 228.842 241.291 227.755C241.291 226.846 241.387 225.95 241.549 225.081L131.779 224.809L241.807 223.954C242.201 222.42 242.799 221.008 243.423 219.772C241.875 218.387 239.852 217.573 237.694 217.573H127.488V215.047H251.868V215.02Z" fill="black"/>
<path d="M249.392 227.755C249.392 230.973 248.088 233.879 245.97 235.997C243.852 238.115 240.947 239.418 237.715 239.418H125.637C125.161 239.418 124.781 239.798 124.781 240.274V241.197C124.781 241.672 125.161 242.052 125.637 242.052H300.007C303.958 242.052 307.543 240.45 310.122 237.857C312.729 235.25 314.345 231.625 314.317 227.633C314.263 219.718 307.556 213.432 299.641 213.432H125.637C125.161 213.432 124.781 213.812 124.781 214.287V215.21C124.781 215.685 125.161 216.066 125.637 216.066H237.376C243.798 216.066 249.392 221.32 249.392 227.755Z" fill="#FCBE42"/>
<path d="M249.392 227.755C249.392 230.973 248.088 233.879 245.97 235.997C243.852 238.115 240.947 239.418 237.716 239.418H125.637C125.161 239.418 124.781 239.798 124.781 240.274V241.197C124.781 241.672 125.161 242.052 125.637 242.052H238.367C242.318 242.052 245.903 240.45 248.482 237.857C251.089 235.25 252.705 231.625 252.677 227.633C252.623 219.718 245.916 213.432 238.001 213.432H125.637C125.161 213.432 124.781 213.812 124.781 214.287V215.21C124.781 215.685 125.161 216.066 125.637 216.066H237.376C243.798 216.066 249.392 221.32 249.392 227.755Z" fill="#263238"/>
<path d="M237.163 224.484V234.817L233.43 231.083L229.805 234.708V224.484H237.163Z" fill="#263238"/>
<path opacity="0.4" d="M249.392 227.755C249.392 230.973 248.088 233.879 245.97 235.997C243.852 238.115 240.947 239.418 237.716 239.418H125.637C125.161 239.418 124.781 239.798 124.781 240.274V241.197C124.781 241.672 125.161 242.052 125.637 242.052H238.367C242.318 242.052 245.903 240.45 248.482 237.857C251.089 235.25 252.705 231.625 252.677 227.633C252.623 219.718 245.916 213.432 238.001 213.432H125.637C125.161 213.432 124.781 213.812 124.781 214.287V215.21C124.781 215.685 125.161 216.066 125.637 216.066H237.376C243.798 216.066 249.392 221.32 249.392 227.755Z" fill="#111111"/>
<path d="M236.9 174.967C236.9 174.967 244.221 175.333 249.712 175.333C255.02 175.333 263.622 176.431 263.622 176.431C263.622 176.431 265.819 176.431 266.002 179.176C266.185 181.922 266.185 183.02 266.185 183.02C266.185 183.02 266.368 186.314 263.805 186.314C261.243 186.314 244.77 188.145 241.11 188.145C237.449 188.145 234.704 188.877 234.704 186.314C234.521 183.752 234.338 174.784 236.9 174.967Z" fill="#160856"/>
<path d="M242.95 96.8135C242.95 96.8135 247.709 123.353 248.075 130.491C248.441 137.446 249.173 142.937 244.597 145.682C240.022 148.428 232.334 150.99 232.334 150.99L223 103.403V97.9117L242.95 96.8135Z" fill="#FDBD97"/>
<path d="M161.501 95.1655C161.501 95.1655 158.938 107.245 158.206 113.285C157.474 119.325 155.827 131.222 155.644 133.968C155.461 136.713 155.095 141.289 160.036 144.949C164.978 148.427 170.469 150.44 170.469 150.44L180.719 95.1655H161.501Z" fill="#FDBD97"/>
<path d="M197.925 56.9134C197.925 56.9134 197.925 62.4042 195.546 64.7836C193.166 67.163 190.055 71.1896 190.055 71.1896C190.055 71.1896 195.546 79.975 206.71 78.6938C217.692 77.5956 219.705 69.5424 219.705 69.5424C219.705 69.5424 209.273 68.0781 207.991 58.1946C206.893 48.311 205.246 48.311 205.246 48.311L197.925 56.9134Z" fill="#FDAE7D"/>
<path d="M189.859 34.951C189.859 34.951 190.225 47.58 196.265 57.4635C202.122 67.3471 209.26 61.8562 212.189 56.7314C214.934 51.6066 222.438 34.951 220.974 30.5583C219.327 26.1657 197.547 24.1523 197.547 24.1523L189.859 34.951Z" fill="#FDBD97"/>
<path d="M217.865 42.0887C217.865 42.0887 220.977 39.7094 220.977 42.0887C220.977 44.4681 219.33 47.9457 217.499 48.4947C215.486 48.8608 215.852 47.7627 216.401 46.1154C216.767 44.4681 217.865 42.0887 217.865 42.0887Z" fill="#FDBD97"/>
<path d="M190.795 47.213C191.71 47.5791 192.625 47.7621 192.625 46.4809C192.625 44.1016 190.978 40.624 189.148 40.0749C187.134 39.7089 187.5 40.8071 188.05 42.4543C188.233 43.0034 188.416 43.5525 188.599 44.2846C188.965 45.3828 190.063 46.847 190.795 47.213Z" fill="#FDBD97"/>
<path d="M190.415 40.8067L190.049 36.7801C190.049 36.7801 193.527 37.1462 197.554 33.3026C197.554 33.3026 205.241 35.1328 211.464 34.4007C218.053 33.8516 220.798 32.0214 220.798 32.0214C220.798 32.0214 219.7 39.5255 218.602 41.7218C218.602 41.7218 221.713 40.4407 222.994 36.7801C224.093 33.3026 223.91 29.459 223.91 29.459C223.91 29.459 228.302 25.9814 229.4 21.9548C229.4 21.9548 217.504 19.2094 214.026 16.83C210.549 14.4506 208.535 12.8034 208.535 12.8034C208.535 12.8034 203.044 9.69188 197.554 13.9015C192.063 18.2942 188.402 20.6736 188.402 28.1777C188.219 28.3608 183.094 35.4989 190.415 40.8067Z" fill="#160856"/>
<path d="M191.335 67.162C191.335 67.162 183.831 66.2468 179.621 67.345C175.595 68.4431 174.314 67.7111 175.412 70.8225C176.51 73.934 182.001 88.3933 179.438 97.3617C176.876 106.33 173.398 152.819 173.398 152.819C173.398 152.819 201.585 153.917 212.384 154.467C223.365 155.016 231.419 153.002 231.419 153.002C231.419 153.002 233.798 133.052 231.419 124.267C229.039 115.665 225.928 100.839 225.928 100.839C225.928 100.839 223.914 80.523 226.66 75.5812C229.405 70.6395 231.418 70.4564 227.941 69.1752C224.463 67.894 220.62 66.7959 217.691 66.7959C214.946 66.7959 213.482 66.7959 211.834 68.4431C210.187 70.0904 206.893 73.3849 202.317 72.6528C197.741 71.9207 194.264 68.8092 194.264 68.8092C194.264 68.8092 192.616 67.345 191.335 67.162Z" fill="#0181F7"/>
<path d="M177.985 68.8116C177.985 68.8116 175.423 67.5304 171.579 70.825C167.37 74.4855 164.441 82.1727 162.977 86.9315C161.513 91.6902 160.598 96.449 160.598 96.449C160.598 96.449 165.905 99.1943 171.579 99.3774C177.07 99.5604 180.731 99.9265 180.731 99.9265C180.731 99.9265 183.11 85.4672 182.561 79.0612C181.829 72.6552 180.914 70.4589 177.985 68.8116Z" fill="#023E9F"/>
<path d="M224.47 74.1175C224.47 74.1175 226.666 68.0775 231.608 70.823C236.55 73.5684 240.21 84.184 241.491 87.4785C242.589 90.773 244.054 97.5451 244.054 97.5451C244.054 97.5451 238.197 100.108 233.072 100.474C228.13 100.84 224.653 101.206 224.653 101.206C224.653 101.206 222.639 88.0276 223.005 82.9028C223.371 77.778 224.47 74.1175 224.47 74.1175Z" fill="#023E9F"/>
<path d="M183.645 157.03H221.531L201.947 163.07L183.645 157.03Z" fill="#BA0A28"/>
<path d="M149.972 146.231C149.972 146.231 219.156 167.828 234.348 173.136C234.348 173.136 239.289 174.417 239.472 176.979C239.656 179.542 239.106 183.202 238.557 185.033C238.008 186.863 236.361 188.327 233.616 187.778C230.87 187.229 168.823 174.783 144.298 168.377L137.343 166.181C137.343 166.181 132.218 163.801 133.133 157.578C134.048 151.355 138.624 145.682 141.918 145.315C145.213 145.132 149.972 146.231 149.972 146.231Z" fill="#EC384E"/>
<path d="M143.747 176.981C143.747 176.981 152.349 175.516 157.657 175.333C162.782 175.15 169.737 174.601 170.835 175.333C171.933 176.065 172.849 186.132 172.849 186.132C172.849 186.132 173.764 188.878 166.992 188.328C160.22 187.779 144.479 187.23 144.479 187.23C144.479 187.23 141.002 187.047 140.819 183.936C140.636 180.824 141.185 179.36 141.185 179.36C141.185 179.36 141.368 177.347 143.747 176.981Z" fill="#160856"/>
<path d="M184.933 168.196C184.933 168.196 226.846 155.384 241.855 150.991C256.863 146.598 265.099 142.572 270.041 149.527C274.8 156.482 274.434 164.352 268.943 166.548C263.452 168.745 219.708 178.994 201.588 182.655C183.468 186.315 171.572 188.695 169.924 187.963C168.277 187.231 166.447 181.923 166.813 178.994C167.179 176.066 167.362 174.968 170.839 173.503C174.317 171.856 184.933 168.196 184.933 168.196Z" fill="#DB061F"/>
<path d="M180.181 107.062H230.697C230.697 107.062 233.442 106.696 233.442 110.356C233.442 114.017 233.442 153.917 233.442 153.917C233.442 153.917 233.625 156.846 231.429 156.846C229.233 156.846 172.128 156.846 172.128 156.846C172.128 156.846 169.748 157.578 169.748 153.551C169.748 149.525 169.748 109.258 169.748 109.258C169.748 109.258 169.565 107.062 172.494 107.062C175.239 107.062 180.181 107.062 180.181 107.062Z" fill="#0064B5"/>
<path d="M204.694 131.772L201.034 128.844L198.105 132.504L201.766 135.433L204.694 131.772Z" fill="#579CD2"/>
<path d="M55.8379 257.793C55.8379 257.793 60.6324 255.909 60.2899 250.429C59.9475 244.95 57.2077 241.183 62.8584 242.724C68.6804 244.265 70.5639 244.95 74.8448 244.094C79.1256 243.238 82.5503 241.525 80.6668 246.834C78.7832 252.313 76.8996 256.936 81.1804 257.793C85.4613 258.649 90.2558 255.395 90.7695 263.957C91.2832 272.519 84.4339 282.108 73.3037 282.45C62.1735 282.793 57.2078 278.169 57.2078 278.169C57.2078 278.169 54.2968 273.888 58.9201 272.861C63.5434 271.834 68.3379 269.779 65.9407 267.724C63.5434 265.498 55.8379 265.327 55.8379 265.327C55.8379 265.327 46.0776 263.443 55.8379 257.793Z" fill="#649CE8"/>
<path d="M106.694 259.162C105.838 253.683 106.523 249.745 116.625 248.375C126.728 246.834 132.721 252.998 133.235 259.162C133.92 265.327 125.016 267.724 125.016 267.724C125.016 267.724 118.851 269.436 121.934 274.916C125.016 280.395 126.557 285.704 119.365 286.389C112.173 287.245 104.297 285.361 99.8445 282.45C95.3924 279.539 90.9404 272.176 96.0774 268.238C96.0774 268.238 97.4472 267.21 102.242 267.039C107.207 266.868 106.694 259.162 106.694 259.162Z" fill="#023E9F"/>
<path fill-rule="evenodd" clip-rule="evenodd" d="M70.293 258.651L71.0746 258.306C71.8563 257.961 71.8564 257.961 71.8565 257.961L71.863 257.976L71.8815 258.018L71.9531 258.182C72.0156 258.327 72.1071 258.539 72.2239 258.813C72.4573 259.362 72.7915 260.16 73.1962 261.158C74.0052 263.152 75.0965 265.947 76.2256 269.152C78.4771 275.542 80.9051 283.63 81.5146 290.248L79.8129 290.405C79.2238 284.009 76.8572 276.087 74.6138 269.72C73.4955 266.546 72.4142 263.776 71.6126 261.8C71.2119 260.812 70.8813 260.023 70.6512 259.482C70.5361 259.211 70.4462 259.003 70.3852 258.862L70.3159 258.703L70.2985 258.663L70.293 258.651Z" fill="#023E9F"/>
<path fill-rule="evenodd" clip-rule="evenodd" d="M117.126 260.91C117.127 260.909 117.127 260.909 117.835 261.387C118.543 261.865 118.543 261.865 118.543 261.865L118.376 262.114C118.266 262.277 118.105 262.517 117.898 262.826C117.485 263.444 116.89 264.334 116.166 265.426C114.717 267.61 112.75 270.598 110.676 273.815C106.513 280.274 101.97 287.583 100.288 291.2L98.7383 290.479C100.481 286.733 105.098 279.315 109.24 272.889C111.319 269.664 113.29 266.669 114.742 264.481C115.468 263.387 116.064 262.495 116.478 261.875C116.685 261.566 116.847 261.324 116.958 261.16L117.126 260.91Z" fill="#649CE8"/>
<path d="M75.534 288.786H109.609C109.609 288.786 113.377 289.129 113.034 294.094C112.692 298.718 106.87 297.69 103.787 297.69C100.705 297.69 74.849 297.69 74.849 297.69C74.849 297.69 70.7394 298.375 70.7394 293.581C70.5681 288.957 72.1093 288.786 75.534 288.786Z" fill="#0055A2"/>
<path d="M74.8438 297.863L79.9808 328H102.926L106.864 305.397L74.8438 297.863Z" fill="#0055A2"/>
<path d="M74.8438 297.863L106.864 305.397L108.234 297.863H74.8438Z" fill="#016AD3"/>
<path fill-rule="evenodd" clip-rule="evenodd" d="M90.4294 290.028L89.576 289.985C88.7226 289.941 88.7226 289.941 88.7227 289.94L88.724 289.915L88.728 289.841C88.7316 289.775 88.7371 289.678 88.7447 289.552C88.7598 289.298 88.7832 288.925 88.8165 288.443C88.8831 287.479 88.9893 286.08 89.1478 284.337C89.4647 280.851 89.9909 275.986 90.8288 270.464C92.5016 259.441 95.4271 245.727 100.448 235.166L101.992 235.899C97.0811 246.228 94.1847 259.74 92.5184 270.721C91.6867 276.201 91.1642 281.032 90.8497 284.492C90.6924 286.221 90.5872 287.608 90.5214 288.561C90.4885 289.037 90.4654 289.405 90.4506 289.653C90.4432 289.778 90.4378 289.872 90.4344 289.935L90.4305 290.006L90.4294 290.028Z" fill="#FABC43"/>
<path d="M109.436 223.375C109.436 223.375 110.292 233.648 100.189 237.587C100.189 237.587 98.1343 228.854 109.436 223.375Z" fill="#FABC43"/>
<path d="M94.375 256.08C94.375 256.08 98.1421 247.347 109.444 248.546C109.444 248.546 108.587 257.279 94.375 256.08Z" fill="#FABC43"/>
<path d="M90.5977 278.169C90.5977 278.169 92.4812 268.923 103.954 267.724C103.954 267.724 104.81 276.457 90.5977 278.169Z" fill="#FABC43"/>
<path d="M90.2544 278.169C90.2544 278.169 91.6243 268.751 81.1791 263.957C81.1791 263.957 77.4119 271.833 90.2544 278.169Z" fill="#FABC43"/>
<path d="M94.5399 256.081C94.5399 256.081 97.1085 246.834 87.3482 240.841C87.3482 240.67 82.7248 248.204 94.5399 256.081Z" fill="#FABC43"/>
<path d="M427.621 230.914C427.621 230.914 458.089 232.707 444.819 234.48C431.55 236.274 413.285 236.274 406.828 235.544C400.392 234.835 422.606 231.268 427.621 230.914Z" fill="#023EA1"/>
<path d="M429.729 234.939L430.168 319.811C430.168 319.811 443.354 320.144 445.695 323.231C448.035 326.318 445.318 328.258 431.756 327.924C418.194 327.591 410.044 327.632 410.044 327.632C410.044 327.632 403.44 326.881 411.193 322.981C418.946 319.081 425.153 320.207 425.153 320.207L425.591 235.043L429.729 234.939Z" fill="#023EA1"/>
<path d="M421.5 102.49C421.5 102.49 425.198 92.2067 416.108 89.4743C416.108 89.4743 413.475 73.9767 401.104 80.985C400.164 81.5064 399.098 81.5899 398.136 81.1101C394.856 79.4832 387.583 71.6197 382.547 83.6757C382.15 84.6143 381.189 84.9898 380.311 85.0315C376.591 85.1775 367.626 86.6376 374.982 97.7132C374.982 97.7132 378.389 101.822 384.073 102.156C384.073 102.156 410.466 120.303 418.135 117.236C425.763 114.129 425.47 105.91 421.5 102.49Z" fill="#2C2477"/>
<path d="M396.308 97.2547C395.932 97.1295 381.889 92.6242 384.104 105.118V105.139C384.083 105.473 383.686 116.674 392.672 123.119C392.797 123.202 392.923 123.306 393.027 123.432C393.591 124.037 396.036 126.185 399.986 122.597C403.643 119.281 404.855 121.575 405.252 122.535C405.357 122.785 405.503 123.056 405.628 123.286C406.192 124.308 407.927 126.748 406.778 128.417C405.566 130.169 404.04 132.338 403.643 132.922C403.601 132.985 403.643 133.068 403.706 133.068C405.754 132.943 426.296 131.608 425.794 127.061C425.794 127.061 424.561 122.034 424.561 122.013L424.185 121.93C424.122 121.909 424.06 121.888 423.997 121.846L417.581 117.132C417.561 117.132 417.561 117.112 417.54 117.112C417.122 117.153 410.957 117.696 408.763 115.047C408.763 115.047 406.025 111.918 404.751 107.871C404.374 106.662 404.562 105.306 405.273 104.346C406.339 102.928 407.467 100.342 404.792 98.5062C404.792 98.5062 402.703 96.9627 400.801 99.2779L400.55 99.5908C400.362 99.8202 400.09 99.8619 399.861 99.6951L396.308 97.2547C396.329 97.2547 396.329 97.2547 396.308 97.2547Z" fill="#FFBF9C"/>
<path d="M424.608 122.014C424.608 122.014 415.246 130.691 404.609 131.671C404.609 131.671 398.8 138.116 397.943 152.174C397.086 166.233 396.522 197.729 397.379 199.773C398.236 201.817 448.18 201.483 448.18 201.483C448.18 201.483 444.481 150.443 438.526 139.827C438.526 139.827 429.728 124.412 424.608 122.014Z" fill="#FCBE42"/>
<path d="M429.107 160.038C429.107 160.038 428.25 178.873 426.557 185.735C424.864 192.576 424.008 195.663 416.903 196.685C409.798 197.707 391.074 199.084 387.396 198.396C383.697 197.707 371.785 200.753 371.785 200.753C371.785 200.753 368.087 201.775 367.815 199.376C367.543 196.977 363.552 199.042 363.28 200.064C362.988 201.086 361.002 202.463 360.438 199.731C359.874 196.998 360.146 193.557 364.973 192.535C369.8 191.513 374.335 192.535 379.455 192.931C384.01 193.286 387.061 191.867 387.96 191.867L410.947 186.736C410.947 186.736 413.789 185.714 414.353 181.605C414.917 177.496 414.917 159.683 414.917 159.683L429.107 160.038Z" fill="#FFBF9C"/>
<path d="M431.377 162.081H413.259C413.05 148.732 414.325 136.05 421.451 136.029C421.451 136.05 431.377 133.797 431.377 162.081Z" fill="#F79F03"/>
<path d="M346.283 226.47C346.283 226.47 341.017 257.966 340.307 265.892C339.575 273.735 335.793 299.077 335.793 299.077L347.433 298.744L357.359 255.588L346.283 226.47Z" fill="#DE051F"/>
<path d="M447.927 198.166C448.136 199.584 449.39 220.776 447.321 226.136C445.44 231.038 440.508 232.644 431.711 233.332C424.271 233.916 385.716 231.935 374.013 231.267C372.425 231.184 371.276 233.04 371.777 234.834L389.122 296.345L378.903 301.83C378.903 301.83 355.352 258.675 351.653 248.392C347.954 238.109 342.855 220.317 343.148 216.187C343.148 216.187 342.291 208.303 351.089 207.281C359.719 206.279 387.22 200.981 388.244 200.773C388.265 200.773 388.286 200.773 388.307 200.773L397.335 199.751C397.355 199.751 397.376 199.751 397.397 199.751L447.927 198.166Z" fill="#EE384E"/>
<path d="M387.536 198.541C388.309 198.374 390.88 198.52 390.859 200.439C390.838 202.191 387.724 202.421 387.16 202.504C386.721 202.567 351.53 207.635 349.252 207.969C349.19 207.99 349.106 207.99 349.043 208.011C348.458 208.136 345.24 208.657 343.171 205.258C341.019 201.691 323.883 175.743 322.044 172.969C321.96 172.844 321.877 172.719 321.772 172.594C321.417 172.156 320.414 170.675 321.605 168.964C323.026 166.9 325.304 170.341 325.304 170.341L345.972 203.067C346.452 203.818 347.1 204.382 347.852 204.611H347.873C348.187 204.694 348.5 204.715 348.814 204.653" fill="#023EA1"/>
<path d="M335.877 298.681C335.856 298.681 335.814 298.681 335.793 298.702C335.166 299.286 325.679 308.046 320.747 310.028C320.266 310.216 319.807 310.424 319.347 310.633C318.971 310.8 318.616 310.987 318.26 311.196C317.989 311.363 317.717 311.53 317.445 311.717C317.257 311.863 317.069 312.009 316.881 312.176C316.756 312.301 316.63 312.427 316.505 312.573C316.421 312.677 316.359 312.781 316.296 312.906C316.254 312.99 316.212 313.073 316.191 313.157C316.171 313.261 316.171 313.344 316.191 313.449C316.191 313.553 316.191 313.636 316.191 313.741C316.191 313.845 316.191 313.949 316.191 314.054C316.191 314.095 316.233 314.137 316.275 314.137L347.6 310.07C347.684 310.049 347.767 310.028 347.83 309.986C348.164 309.757 349.063 308.922 348.833 306.983C348.582 304.793 347.6 299.703 347.433 298.869C347.412 298.806 347.37 298.765 347.308 298.744L335.877 298.681Z" fill="#2B2377"/>
<path d="M378.919 301.831C378.919 301.831 373.528 315.535 369.829 318.622C367.008 320.979 367.844 322.939 368.387 323.732C368.554 323.982 368.826 324.107 369.098 324.066C369.766 323.982 371.229 323.628 372.671 322.397C374.656 320.687 394.237 306.295 394.237 306.295C394.237 306.295 395.094 304.23 393.673 302.186C392.252 300.121 389.138 296.366 389.138 296.366L378.919 301.831Z" fill="#2B2377"/>
<path d="M431.768 68.1657C432.001 68.2221 432.001 68.5524 431.768 68.6008L410.158 73.5559L409.127 73.7976L398.081 76.3276L364.394 68.6008C364.16 68.5444 364.16 68.214 364.394 68.1657L397.614 60.5436C397.92 60.4711 398.234 60.4711 398.548 60.5436L409.127 62.9688L410.158 63.2106L431.768 68.1657Z" fill="#023E9F"/>
<path d="M416.241 72.4612C415.883 71.4823 407.872 70.6929 398.033 70.6929C388.193 70.6929 380.19 71.476 379.824 72.4612H379.809V84.8521C379.809 85.0858 380.042 85.2689 380.322 85.2689H415.735C416.023 85.2689 416.249 85.0794 416.249 84.8521V72.4612H416.233H416.241Z" fill="#FCBE42"/>
<path opacity="0.2" d="M432.713 68.3915L430.956 68.7944L410.153 64.0246L409.121 63.7829L398.075 61.2529L365.194 68.7944L363.438 68.3915L397.608 60.5519C397.914 60.4794 398.228 60.4794 398.542 60.5519L409.121 62.9771L410.153 63.2189L432.713 68.3915Z" fill="white"/>
<path d="M410.942 79.2756V82.6113H410.676L410.483 80.5567L410.281 82.6113H409.846L409.645 80.5567L409.443 82.6113H409.008L408.807 80.5567L408.614 82.6113H408.348V79.2756C408.348 78.7439 408.67 78.2927 409.129 78.0913V62.9761L410.161 63.2178V78.0913C410.62 78.2927 410.942 78.7439 410.942 79.2756Z" fill="#407BFF"/>
<path d="M318.713 62.6482L320.461 54.4688L314.634 53.203C314.44 52.0345 314.149 50.866 313.76 49.6975L318.422 45.9L313.178 39.4733L308.419 43.3683C307.448 42.784 306.477 42.2972 305.311 41.9077V35.6758H296.959V41.9077C295.6 42.2972 294.434 42.9788 293.269 43.7578L288.316 40.155L283.46 46.8737L288.316 50.3791C287.927 51.4503 287.636 52.7161 287.636 53.8846L281.906 55.4426L284.043 63.5245L289.578 62.0639C290.258 63.135 291.035 64.1088 292.006 64.9851L289.676 70.1459L297.251 73.554L299.484 68.3932C299.97 68.4906 300.553 68.4906 301.038 68.4906C301.815 68.4906 302.592 68.3932 303.369 68.2958L305.894 73.2619L313.275 69.4643L310.653 64.4009C311.527 63.5245 312.304 62.4534 312.886 61.3823L318.713 62.6482ZM293.269 54.8583C293.269 50.4765 296.765 46.9711 301.135 46.9711C305.505 46.9711 309.002 50.4765 309.002 54.8583C309.002 59.2401 305.505 62.7455 301.135 62.7455C296.862 62.7455 293.269 59.2401 293.269 54.8583Z" fill="#EE384E"/>
<path d="M105.585 156.464L107.031 149.575L102.21 148.509C102.049 147.525 101.808 146.54 101.487 145.556L105.344 142.358L101.004 136.945L97.0669 140.225C96.2633 139.733 95.4597 139.323 94.4954 138.995V133.747H87.5845V138.995C86.4595 139.323 85.4952 139.897 84.5309 140.554L80.4326 137.519L76.4147 143.178L80.4326 146.13C80.1112 147.032 79.8701 148.099 79.8701 149.083L75.1289 150.395L76.8968 157.202L81.4773 155.972C82.0398 156.874 82.6827 157.694 83.4862 158.432L81.5576 162.779L87.8256 165.649L89.6739 161.302C90.0757 161.384 90.5578 161.384 90.9596 161.384C91.6025 161.384 92.2454 161.302 92.8882 161.22L94.9776 165.403L101.085 162.205L98.9152 157.94C99.6384 157.202 100.281 156.3 100.763 155.398L105.585 156.464ZM84.5309 149.903C84.5309 146.212 87.4238 143.26 91.04 143.26C94.6561 143.26 97.5491 146.212 97.5491 149.903C97.5491 153.593 94.6561 156.546 91.04 156.546C87.5042 156.546 84.5309 153.593 84.5309 149.903Z" fill="#023E9F"/>
</svg>
