<svg width="500" height="340" viewBox="0 0 500 340" fill="none" xmlns="http://www.w3.org/2000/svg">
<path d="M166.12 170.584C166.12 170.584 181.73 169.499 181.232 187.594C180.9 205.509 184.387 209.49 188.206 213.109C192.026 216.728 199.332 217.814 198.502 236.452C197.505 255.091 193.52 262.148 196.177 272.1C198.834 281.872 204.314 326.387 195.845 322.225C187.376 318.063 181.066 293.996 179.405 282.958C177.91 271.92 171.434 263.234 165.954 259.072C160.474 254.729 154.828 241.7 159.312 232.109C163.795 222.519 163.131 205.871 158.98 197.366C155.16 188.68 155.659 171.67 166.12 170.584Z" fill="#023EA1"/>
<path d="M169.945 193.563L194.356 328.195" stroke="white" stroke-width="1.1115" stroke-miterlimit="10" stroke-linecap="round" stroke-linejoin="round"/>
<path d="M189.381 228.126L180.58 252.013L164.805 238.984" stroke="white" stroke-width="1.1115" stroke-miterlimit="10" stroke-linecap="round" stroke-linejoin="round"/>
<path d="M132.58 217.452C132.58 217.452 130.089 201.166 123.779 201.527C117.635 201.889 114.812 219.261 118.963 229.033C123.115 238.804 127.266 238.081 126.602 246.404C125.938 254.728 126.436 279.519 132.414 282.777C138.558 285.853 140.717 274.272 146.861 288.205C153.005 302.139 150.182 328.558 161.972 327.835C173.763 327.111 192.195 314.444 177.914 278.253C163.633 242.062 161.474 278.977 153.835 247.852C146.197 216.728 143.374 231.023 138.226 229.757C133.244 228.49 132.58 217.452 132.58 217.452Z" fill="#EE384E"/>
<path d="M140.051 265.042C140.051 265.042 160.642 279.7 177.912 304.31C195.016 328.739 193.356 328.92 193.356 328.92" stroke="white" stroke-width="1.1115" stroke-miterlimit="10" stroke-linecap="round" stroke-linejoin="round"/>
<path d="M287.93 327.473C290.421 263.414 331.437 242.785 358.671 235.909V246.043L366.476 234.28C376.107 232.652 382.583 232.652 382.583 232.652C371.291 292.186 352.195 318.063 334.094 328.197L287.93 327.473Z" fill="#023EA1"/>
<path d="M340.732 242.064L327.613 293.274L382.413 232.835" stroke="white" stroke-width="1.1115" stroke-miterlimit="10"/>
<path d="M371.121 275.721L327.613 293.274" stroke="white" stroke-width="1.1115" stroke-miterlimit="10"/>
<path d="M336.579 245.682C336.579 245.682 345.048 240.434 340.897 232.472C336.745 224.51 324.125 222.881 320.637 229.396C317.15 235.91 320.305 241.158 314.659 241.52C309.013 241.882 293.902 245.139 295.729 253.463C297.721 261.787 306.356 263.234 301.541 272.825C296.725 282.416 278.458 282.054 286.595 297.073C294.566 312.274 314.327 334.531 327.778 311.731C341.229 288.93 316.818 290.559 331.265 276.806C345.712 263.054 335.085 261.244 332.594 254.549C330.269 248.034 336.579 245.682 336.579 245.682Z" stroke="#EE384E" stroke-width="1.1115" stroke-miterlimit="10" stroke-linecap="round"/>
<path d="M321.141 252.92C321.141 252.92 316.824 280.607 305.2 302.502C293.576 324.398 287.93 327.112 287.93 327.112" stroke="#EE384E" stroke-width="1.1115" stroke-miterlimit="10" stroke-linecap="round"/>
<path d="M234.512 69.9739C234.512 69.612 234.346 69.2501 234.346 68.8882L234.512 69.9739Z" fill="#C5ECFF"/>
<path d="M319.037 230.481L319.203 231.386C319.037 231.205 319.037 231.024 318.871 230.843C319.037 233.014 319.369 235.186 319.535 237.357L322.857 231.567C321.694 231.386 320.366 231.024 319.037 230.481Z" fill="#C5ECFF"/>
<path d="M205.125 227.947C204.793 228.49 204.461 228.852 204.129 229.395L204.627 231.747C204.793 230.481 204.959 229.214 205.125 227.947Z" fill="#C5ECFF"/>
<path d="M319.041 230.48C320.536 231.023 321.698 231.384 322.86 231.384C322.528 230.842 320.868 228.489 318.543 225.232L319.041 230.48Z" fill="#DE051F"/>
<path d="M303.096 119.918C303.926 120.46 304.923 121.184 306.251 122.27C306.251 122.089 306.251 121.727 306.417 121.727L316.215 130.051C316.215 130.051 315.883 130.775 315.384 131.861C323.853 142.899 335.312 163.347 346.936 200.262C356.235 177.462 361.383 149.594 353.246 143.985C338.965 133.851 328.669 124.984 319.37 111.956C313.89 104.174 306.583 106.889 301.602 110.327C306.085 115.213 304.258 118.651 303.096 119.918Z" fill="#DE051F"/>
<path d="M279.518 116.479C279.518 116.117 279.518 115.936 279.352 115.574C279.518 116.117 279.518 116.479 279.518 116.479Z" fill="#F79F03"/>
<path d="M236.175 117.021C237.005 116.84 238.002 116.659 238.998 116.659C239.994 116.478 241.157 116.297 242.153 116.297C242.983 112.859 243.648 107.792 244.146 102.726C243.98 102.364 243.814 101.821 243.482 101.459C233.02 103.449 225.879 106.526 224.219 107.973C228.038 105.259 232.19 109.964 236.175 117.021Z" fill="#F79F03"/>
<path d="M279.344 115.573C281.835 115.935 284.16 116.297 286.651 116.659C290.636 109.601 294.788 105.077 298.441 107.792C299.437 108.516 300.268 109.239 300.932 109.782C299.437 107.792 296.781 105.982 292.961 104.535C287.647 102.544 282.333 101.277 277.02 100.373C277.684 105.439 278.348 110.144 278.846 113.039C279.178 113.944 279.344 114.668 279.344 115.573Z" fill="#F79F03"/>
<path d="M277.19 100.374C277.19 99.8307 277.024 99.2878 277.024 98.564C276.692 99.1068 276.525 99.6497 276.359 100.193C276.525 100.374 276.858 100.374 277.19 100.374Z" fill="#FFB07E"/>
<path d="M275.034 102.725C274.37 103.992 273.705 105.077 272.875 106.344C275.698 107.249 277.857 109.42 278.853 113.22C278.355 110.325 277.691 105.62 277.026 100.554C276.694 100.554 276.362 100.373 276.03 100.373C275.698 101.096 275.366 102.001 275.034 102.725Z" fill="#FFB07E"/>
<path d="M242.152 116.117C242.152 116.117 245.474 113.764 250.289 111.412C248.629 109.602 246.802 107.431 245.141 104.354C244.809 103.812 244.477 103.088 244.145 102.545C243.813 107.612 243.149 112.497 242.152 116.117Z" fill="#FFB07E"/>
<path d="M279.518 116.477C279.518 116.477 279.518 116.115 279.351 115.572C273.872 114.848 268.392 114.667 263.41 114.667C260.919 115.572 258.428 115.753 255.771 114.848C250.955 115.029 246.472 115.572 242.32 116.115C242.32 116.658 242.486 119.191 243.151 122.63C243.483 124.801 244.147 127.334 245.143 129.868C245.808 131.677 246.472 133.487 247.468 135.296C250.125 140.725 254.443 146.154 260.919 149.773C260.919 149.773 262.58 149.049 264.904 147.42C265.901 146.697 267.063 145.792 268.392 144.887C268.724 144.706 269.056 144.344 269.388 143.982C270.052 143.439 270.55 142.716 271.215 142.173C271.879 141.449 272.377 140.725 273.041 140.001C274.868 137.649 276.528 134.935 277.691 131.858C278.355 130.23 278.853 128.601 279.185 126.792C279.518 125.525 279.684 124.258 279.684 122.991C279.684 120.82 279.684 118.829 279.518 116.477Z" fill="#FFB07E"/>
<path d="M221.402 121.545L226.218 153.575L234.189 134.936L221.402 121.545Z" fill="#FCBE42"/>
<path d="M207.448 246.042C207.448 246.042 207.116 245.861 206.286 245.318C207.116 246.585 207.946 247.851 208.943 249.299C213.592 255.994 219.57 263.957 224.718 271.014C225.216 271.738 225.714 272.461 226.213 273.185C227.873 275.538 229.534 277.528 231.028 279.519C231.194 279.7 231.36 280.062 231.527 280.243C235.18 284.947 237.505 288.024 237.505 288.024C237.505 288.205 237.505 288.386 237.505 288.747C239.331 284.766 240.162 280.062 239.996 274.452V273.547H287.322V274.452C287.322 274.452 287.488 278.071 288.485 282.595C288.983 281.871 289.647 280.966 290.311 280.062C295.957 272.28 306.751 257.442 314.39 246.223L319.372 237.537C319.206 235.365 318.874 233.194 318.708 231.023C318.541 230.842 318.375 230.661 318.375 230.48C301.105 223.784 263.576 189.765 271.049 152.85L261.085 158.64L254.941 154.659L245.309 157.193L244.977 180.355C245.808 181.079 246.472 185.06 246.14 185.422C245.642 185.965 243.981 185.965 242.985 185.603C241.988 185.241 243.483 181.803 244.147 180.717L243.815 157.735L227.375 161.897L231.527 188.86C231.527 188.86 213.924 215.098 205.123 228.127C204.957 229.394 204.791 230.661 204.625 231.927L207.448 246.042Z" fill="#FCBE42"/>
<path d="M220.4 120.641C220.4 120.641 220.4 120.822 220.234 121.184C220.4 121.184 220.566 121.003 220.733 121.003L220.4 120.641Z" fill="#FCBE42"/>
<path d="M323.029 275.899C322.199 276.442 321.369 277.166 320.538 277.709C315.224 281.509 309.246 285.49 302.272 289.652C301.94 289.833 301.607 290.014 301.275 290.195C300.445 290.738 299.615 291.1 298.951 291.643C298.452 292.005 297.954 292.185 297.456 292.547C296.792 292.909 296.128 293.271 295.297 293.814C294.965 293.995 294.467 294.357 294.135 294.538C294.633 295.262 295.297 295.805 295.795 296.528C299.449 300.148 304.264 301.595 309.91 301.052H310.907V322.948H215.921V301.233H216.751C216.917 301.233 223.892 301.414 230.202 297.433C229.87 297.252 229.704 297.071 229.372 296.89C228.542 296.528 227.711 295.986 227.047 295.624C226.549 295.262 225.885 295.081 225.386 294.719C224.722 294.357 223.892 293.814 223.228 293.452C222.729 293.09 222.065 292.728 221.567 292.547C220.903 292.185 220.239 291.824 219.574 291.281C219.076 290.919 218.412 290.557 217.914 290.195C217.249 289.833 216.585 289.471 216.087 289.109C215.257 288.566 214.593 288.204 213.928 287.662C213.264 287.3 212.6 286.757 211.936 286.395C211.105 285.852 210.275 285.309 209.611 284.947C209.279 284.766 208.78 284.404 208.448 284.223C207.784 283.861 207.12 283.319 206.456 282.957C206.124 282.595 205.625 282.414 205.293 282.052C204.629 281.69 204.131 281.328 203.467 280.785C203.134 280.423 202.636 280.242 202.304 279.88C201.806 279.519 201.142 279.157 200.644 278.795C200.478 278.614 200.311 278.614 200.145 278.433C198.319 299.424 197.488 317.338 198.485 328.015H325.188C325.686 317.157 324.856 298.157 323.029 275.899Z" fill="#FCBE42"/>
<path d="M294.797 191.395C292.472 187.957 290.977 185.786 290.977 185.786L300.941 122.089L300.443 122.632C298.284 126.251 294.797 130.051 291.143 133.49L297.62 143.261L278.191 148.328L277.693 179.995C278.523 180.719 279.187 184.7 278.855 185.062C278.357 185.605 276.696 185.605 275.7 185.243C274.704 184.881 276.198 181.443 276.862 180.357L276.364 149.052L275.036 149.414L273.209 151.404L271.05 152.671C263.578 189.586 301.273 223.606 318.377 230.301C314.89 225.234 312.067 219.444 309.742 212.929C304.428 205.148 298.45 196.824 294.797 191.395Z" fill="#FCBE42"/>
<path d="M238.995 116.478C237.999 116.658 237.168 116.839 236.172 116.839C237.002 116.839 237.999 116.658 238.995 116.478Z" fill="#FCBE42"/>
<path d="M300.27 122.813L290.473 133.128L290.805 133.671C294.624 130.233 298.111 126.433 300.27 122.813Z" fill="#FCBE42"/>
<path d="M245.482 146.881L245.316 157.014L254.782 154.481L249.634 151.405L245.482 146.881Z" fill="#FCBE42"/>
<path d="M243.651 145.069H243.817L234.186 134.936L226.215 153.574L227.377 161.717L243.817 157.374L243.651 145.069Z" fill="#FCBE42"/>
<path d="M278.023 146.153V148.506L297.452 143.439L290.976 133.667C289.149 135.296 287.489 136.744 285.662 138.372L278.023 146.153Z" fill="#FCBE42"/>
<path d="M275.035 149.232L276.364 149.051V147.965L275.035 149.232Z" fill="#FCBE42"/>
<path d="M247.305 135.478C246.475 133.669 245.645 131.859 244.98 130.05C245.645 131.678 246.309 133.669 247.305 135.478Z" fill="#FCBE42"/>
<path d="M244.973 130.052C243.977 127.337 243.479 124.985 242.98 122.813C243.479 124.804 243.977 127.337 244.973 130.052Z" fill="#FCBE42"/>
<path d="M279.022 126.792C278.69 128.602 278.192 130.411 277.527 131.859C278.026 130.23 278.524 128.602 279.022 126.792Z" fill="#FCBE42"/>
<path d="M290.97 133.669L290.638 133.126L285.656 138.374C287.317 136.746 289.143 135.298 290.97 133.669Z" fill="#FCBE42"/>
<path d="M194.828 274.995C194.496 274.814 194.164 274.452 193.832 274.271C194.164 274.452 194.496 274.633 194.828 274.995Z" fill="#FCBE42"/>
<path d="M197.477 276.806C197.145 276.625 196.813 276.263 196.48 276.083C196.647 276.263 196.979 276.625 197.477 276.806Z" fill="#FCBE42"/>
<path d="M203.293 243.511C199.806 241.339 194.658 237.901 190.839 235.006C184.528 230.12 196.485 187.595 204.456 182.709C212.426 177.824 203.293 225.234 203.293 225.234L204.123 229.215C204.456 228.853 204.788 228.31 205.12 227.767C211.43 177.1 219.235 126.794 220.231 121.003C214.751 124.08 187.351 143.804 165.266 245.139C165.266 245.139 169.583 253.825 184.861 267.035C189.344 265.587 195.322 262.511 201.633 256.901C202.297 252.377 202.795 248.034 203.293 243.511Z" fill="#FCBE42"/>
<path d="M187.527 269.024C187.361 268.843 187.195 268.843 187.195 268.662C187.195 268.843 187.361 269.024 187.527 269.024Z" fill="#FCBE42"/>
<path d="M189.844 271.195C189.678 271.014 189.346 270.833 189.18 270.652C189.346 270.652 189.678 270.833 189.844 271.195Z" fill="#FCBE42"/>
<path d="M198.977 278.073C199.143 278.254 199.475 278.435 199.641 278.616C199.475 278.254 199.309 278.254 198.977 278.073Z" fill="#FCBE42"/>
<path d="M231.693 280.063C231.527 279.882 231.361 279.52 231.195 279.339C231.361 279.52 231.527 279.701 231.693 280.063Z" fill="#FCBE42"/>
<path d="M217.573 290.014C216.909 289.652 216.244 289.29 215.746 288.928C216.41 289.29 216.909 289.652 217.573 290.014Z" fill="#FCBE42"/>
<path d="M205.955 282.777C205.623 282.415 205.125 282.234 204.793 281.872C205.125 282.234 205.623 282.596 205.955 282.777Z" fill="#FCBE42"/>
<path d="M209.109 249.299C208.113 247.852 207.283 246.585 206.452 245.318C205.788 244.956 204.626 244.233 203.463 243.509C202.965 248.033 202.467 252.376 201.969 256.9C204.128 254.728 206.618 252.195 209.109 249.299Z" fill="#FCBE42"/>
<path d="M202.967 280.787C202.635 280.425 202.137 280.244 201.805 279.882C202.303 280.244 202.635 280.606 202.967 280.787Z" fill="#FCBE42"/>
<path d="M231.532 188.68L227.381 161.717L222.233 162.984L226.218 153.574L221.403 121.545L220.738 120.821C220.572 120.821 220.406 121.002 220.24 121.002C219.244 126.793 211.273 177.099 205.129 227.766C213.93 214.918 231.532 188.68 231.532 188.68Z" fill="#FCBE42"/>
<path d="M209.112 284.947C208.78 284.766 208.281 284.404 207.949 284.223C208.281 284.404 208.78 284.585 209.112 284.947Z" fill="#FCBE42"/>
<path d="M225.213 294.539C224.549 294.177 223.719 293.634 223.055 293.272C223.719 293.634 224.383 293.996 225.213 294.539Z" fill="#FCBE42"/>
<path d="M221.387 292.368C220.723 292.006 220.059 291.644 219.395 291.101C219.893 291.463 220.723 291.825 221.387 292.368Z" fill="#FCBE42"/>
<path d="M222.227 162.984L227.374 161.717L226.212 153.574L222.227 162.984Z" fill="#FCBE42"/>
<path d="M270.885 142.175C270.221 142.899 269.723 143.441 269.059 143.984C269.557 143.441 270.221 142.899 270.885 142.175Z" fill="#F79F03"/>
<path d="M254.781 154.479L260.925 158.46L270.889 152.669C271.055 151.946 271.221 151.041 271.387 150.317L254.781 154.479Z" fill="#F79F03"/>
<path d="M273.045 151.222C273.045 151.222 273.212 150.679 273.544 149.593L271.385 150.136C271.219 150.86 271.053 151.765 270.887 152.489L273.045 151.222Z" fill="#F79F03"/>
<path d="M279.518 116.477L283.669 122.811C284.665 120.639 285.662 118.649 286.658 116.839C284.167 116.477 281.676 116.115 279.352 115.753C279.518 115.934 279.518 116.115 279.518 116.477Z" fill="#F79F03"/>
<path d="M239.161 122.993L242.15 116.117C240.988 116.298 239.991 116.479 238.995 116.479C237.999 116.66 237.168 116.841 236.172 116.841C237.168 118.831 238.165 121.003 239.161 122.993Z" fill="#F79F03"/>
<path d="M272.039 147.965C269.548 149.593 268.054 150.498 268.054 150.498L249.621 151.403L254.769 154.66L271.375 150.317C271.707 149.412 271.873 148.689 272.039 147.965Z" fill="#F79F03"/>
<path d="M273.545 149.595C273.878 148.691 274.21 147.605 274.708 146.157C273.712 146.7 272.881 147.424 272.051 147.786C271.885 148.51 271.553 149.233 271.387 150.138L273.545 149.595Z" fill="#F79F03"/>
<path d="M249.634 151.403L268.066 150.498C268.066 150.498 269.561 149.593 272.052 147.965C273.546 143.079 275.871 138.012 279.358 133.126C280.687 129.688 282.181 126.25 283.676 122.812L279.524 116.478C279.69 118.831 279.69 120.821 279.524 122.812C279.358 124.079 279.192 125.345 279.026 126.612C278.694 128.422 278.196 130.231 277.532 131.679C276.203 134.936 274.542 137.65 272.882 139.822C272.218 140.546 271.719 141.269 271.055 141.993C270.391 142.717 269.893 143.26 269.229 143.803C268.896 144.165 268.564 144.346 268.232 144.708C267.07 145.793 265.907 146.698 264.745 147.241C262.42 148.87 260.76 149.593 260.76 149.593C254.283 146.155 249.966 140.727 247.309 135.117C246.478 133.307 245.648 131.498 244.984 129.688C243.988 126.974 243.489 124.621 242.991 122.45C242.327 118.831 242.161 116.297 242.161 115.936L239.172 122.812C245.15 135.66 249.634 151.403 249.634 151.403Z" fill="#F79F03"/>
<path d="M279.353 132.944C276.032 137.83 273.541 142.897 272.047 147.783C272.877 147.24 273.707 146.697 274.704 146.154C275.866 142.897 277.361 138.011 279.353 132.944Z" fill="#F79F03"/>
<path d="M193.834 274.271C193.336 273.909 192.838 273.547 192.34 273.004C192.838 273.366 193.336 273.728 193.834 274.271Z" fill="#FFBF99"/>
<path d="M191.502 272.282C191.004 271.92 190.506 271.377 190.008 271.015C190.34 271.558 190.838 271.92 191.502 272.282Z" fill="#FFBF99"/>
<path d="M198.981 278.074C198.483 277.712 197.985 277.35 197.32 276.988C197.985 277.169 198.483 277.531 198.981 278.074Z" fill="#FFBF99"/>
<path d="M189.188 270.47C188.524 269.927 188.026 269.565 187.527 269.022C188.026 269.565 188.524 270.108 189.188 270.47Z" fill="#FFBF99"/>
<path d="M209.113 249.301C213.763 255.996 219.741 263.958 224.889 271.015C219.575 263.958 213.763 255.996 209.113 249.301Z" fill="#FFBF99"/>
<path d="M226.879 295.444C226.381 295.082 225.717 294.901 225.219 294.54C225.717 294.721 226.215 295.082 226.879 295.444Z" fill="#FFBF99"/>
<path d="M201.801 280.062C201.303 279.7 200.639 279.338 200.141 278.977C200.639 279.158 201.303 279.519 201.801 280.062Z" fill="#FFBF99"/>
<path d="M231.195 279.338C229.7 277.528 228.206 275.357 226.379 273.004C228.206 275.176 229.7 277.347 231.195 279.338Z" fill="#FFBF99"/>
<path d="M207.942 284.044C207.278 283.682 206.613 283.139 205.949 282.777C206.613 283.32 207.278 283.682 207.942 284.044Z" fill="#FFBF99"/>
<path d="M204.795 282.054C204.131 281.692 203.633 281.33 202.969 280.787C203.633 281.149 204.131 281.692 204.795 282.054Z" fill="#FFBF99"/>
<path d="M223.063 293.271C222.565 292.909 221.901 292.547 221.402 292.366C221.901 292.547 222.399 292.909 223.063 293.271Z" fill="#FFBF99"/>
<path d="M229.207 296.711C229.539 296.892 229.705 297.073 230.037 297.254C229.871 297.073 229.539 296.892 229.207 296.711Z" fill="#FFBF99"/>
<path d="M219.247 291.101C218.748 290.739 218.084 290.378 217.586 290.016C218.25 290.378 218.748 290.739 219.247 291.101Z" fill="#FFBF99"/>
<path d="M215.76 288.932C214.93 288.389 214.266 288.027 213.602 287.484C214.266 288.027 214.93 288.57 215.76 288.932Z" fill="#FFBF99"/>
<path d="M201.799 256.9C195.489 262.691 189.511 265.586 185.027 267.034C185.692 267.577 186.356 268.12 187.02 268.843C187.186 269.024 187.352 269.024 187.352 269.205C187.85 269.748 188.515 270.11 189.013 270.653C189.179 270.834 189.511 271.015 189.677 271.196C190.175 271.558 190.673 271.92 191.172 272.463C191.504 272.644 191.67 272.825 192.002 273.186C192.5 273.548 192.998 273.91 193.496 274.453C193.828 274.634 194.161 274.996 194.493 275.177C194.991 275.539 195.489 275.901 195.987 276.263C196.319 276.444 196.651 276.806 196.984 276.987C197.482 277.348 197.98 277.71 198.644 278.072C198.81 278.253 199.142 278.434 199.308 278.615C200.305 271.558 200.969 264.32 201.799 256.9Z" fill="#FFBF99"/>
<path d="M234.183 293.634C235.511 292.186 236.674 290.377 237.67 288.386C237.67 288.205 237.67 288.024 237.67 287.663C237.67 287.663 235.345 284.586 231.692 279.881C231.526 279.701 231.36 279.339 231.194 279.158C229.699 277.348 228.205 275.177 226.378 272.824C225.88 272.1 225.382 271.377 224.883 270.653C219.736 263.776 213.758 255.633 209.108 248.938C206.617 251.833 204.292 254.367 201.967 256.538C201.137 263.957 200.473 271.196 199.809 278.253C199.975 278.434 200.141 278.434 200.307 278.615C200.805 278.977 201.469 279.339 201.967 279.7C202.299 280.062 202.798 280.243 203.13 280.605C203.794 280.967 204.292 281.329 204.956 281.872C205.289 282.234 205.787 282.415 206.119 282.777C206.783 283.139 207.447 283.682 208.112 284.043C208.444 284.224 208.942 284.586 209.274 284.767C210.104 285.31 210.935 285.853 211.599 286.215C212.263 286.577 212.927 287.12 213.592 287.482C214.256 288.024 215.086 288.386 215.75 288.929C216.414 289.291 216.913 289.653 217.577 290.015C218.075 290.377 218.739 290.739 219.237 291.101C219.902 291.463 220.566 291.825 221.23 292.367C221.728 292.729 222.393 293.091 222.891 293.272C223.555 293.634 224.385 294.177 225.05 294.539C225.548 294.901 226.046 295.082 226.71 295.444C227.54 295.806 228.371 296.348 229.035 296.71C229.367 296.891 229.699 297.072 229.865 297.253C231.526 296.167 233.02 295.082 234.183 293.634Z" fill="#FFBF99"/>
<path d="M332.653 268.482C331.989 269.025 331.324 269.568 330.66 270.111C331.49 269.568 332.155 269.025 332.653 268.482Z" fill="#FCBE42"/>
<path d="M334.815 266.671C334.151 267.214 333.486 267.757 332.988 268.3C333.653 267.757 334.317 267.214 334.815 266.671Z" fill="#FCBE42"/>
<path d="M330.991 235.004C327.67 237.537 323.352 240.432 320.031 242.604C320.363 246.042 320.695 249.48 321.028 252.737C327.836 258.709 333.98 261.785 338.796 263.233C353.907 249.661 358.059 240.975 358.059 240.975C354.405 225.594 350.752 212.022 347.099 200.26C342.947 210.575 337.8 219.803 332.818 225.594C332.818 230.48 332.32 233.918 330.991 235.004Z" fill="#FCBE42"/>
<path d="M325.52 274.089C324.69 274.632 324.026 275.175 323.195 275.899C324.026 275.175 324.856 274.632 325.52 274.089Z" fill="#FCBE42"/>
<path d="M327.999 272.102C327.334 272.644 326.504 273.187 325.84 273.73C326.67 273.187 327.334 272.644 327.999 272.102Z" fill="#FCBE42"/>
<path d="M302.43 120.642C303.26 121.004 304.256 121.366 305.087 121.728C305.087 121.728 305.253 123.357 305.751 126.252C305.917 124.261 306.249 122.995 306.249 122.271C304.921 121.185 303.924 120.461 303.094 119.918C302.596 120.28 302.43 120.642 302.43 120.642Z" fill="#FCBE42"/>
<path d="M318.373 225.233C320.698 228.672 322.359 231.024 322.691 231.386C322.691 231.386 320.532 228.31 317.875 223.424V223.605C318.041 224.148 318.207 224.691 318.373 225.233Z" fill="#FCBE42"/>
<path d="M310.242 159.546C311.239 167.508 312.401 176.194 313.563 185.604C314.56 184.518 315.888 183.613 317.383 182.89C323.859 179.451 332.162 209.671 332.826 225.776C337.808 220.167 342.956 210.757 347.107 200.442C335.483 163.346 324.025 143.079 315.556 132.041C313.895 135.66 310.74 145.251 310.242 159.546Z" fill="#FCBE42"/>
<path d="M288.652 282.234C289.151 281.51 289.815 280.605 290.479 279.701C289.649 280.786 289.151 281.51 288.652 282.234Z" fill="#FCBE42"/>
<path d="M320.368 277.891C315.054 281.691 308.91 285.672 302.102 289.834C309.076 285.672 315.054 281.691 320.368 277.891Z" fill="#FCBE42"/>
<path d="M323.026 275.899C322.196 276.442 321.365 277.166 320.535 277.709C321.365 277.166 322.196 276.623 323.026 275.899Z" fill="#FCBE42"/>
<path d="M297.284 292.548C296.62 292.91 295.955 293.272 295.125 293.815C295.955 293.453 296.62 292.91 297.284 292.548Z" fill="#FCBE42"/>
<path d="M301.262 290.195C300.432 290.738 299.602 291.1 298.938 291.643C299.602 291.281 300.432 290.738 301.262 290.195Z" fill="#FCBE42"/>
<path d="M314.387 246.043C316.545 248.576 318.87 250.928 320.863 252.738C320.531 249.3 320.199 246.043 319.867 242.604C316.878 244.595 314.387 246.043 314.387 246.043Z" fill="#FCBE42"/>
<path d="M290.977 185.965C290.977 185.965 292.471 188.137 294.796 191.575C298.449 197.004 304.427 205.328 309.741 212.928C304.593 198.089 302.767 179.994 303.099 161.355C303.431 146.698 304.926 132.945 305.756 126.25C305.424 123.355 305.092 121.726 305.092 121.726C304.095 121.364 303.265 121.183 302.269 120.821L300.774 122.45L290.977 185.965Z" fill="#FCBE42"/>
<path d="M310.733 189.584C311.397 188.136 312.394 186.869 313.556 185.603C312.394 176.193 311.231 167.507 310.235 159.545C310.235 160.088 310.235 160.812 310.235 161.354C309.903 170.945 309.571 179.269 310.733 189.584Z" fill="#FCBE42"/>
<path d="M328.344 271.918C328.178 271.918 328.178 272.099 328.012 272.099C328.178 272.099 328.344 271.918 328.344 271.918Z" fill="#FFBF99"/>
<path d="M330.836 270.11C330.67 270.291 330.67 270.291 330.504 270.472C330.504 270.291 330.67 270.11 330.836 270.11Z" fill="#FFBF99"/>
<path d="M325.856 273.911C325.689 273.911 325.689 274.092 325.523 274.092C325.689 273.911 325.856 273.911 325.856 273.911Z" fill="#FFBF99"/>
<path d="M323.02 275.901L323.185 275.721C323.185 275.901 323.02 275.901 323.02 275.901Z" fill="#FFBF99"/>
<path d="M293.961 294.538C294.293 294.357 294.791 293.995 295.123 293.814C294.791 293.995 294.459 294.176 293.961 294.538Z" fill="#FFBF99"/>
<path d="M290.48 279.702C296.293 271.921 306.92 257.083 314.559 245.863C306.92 257.263 296.126 271.921 290.48 279.702Z" fill="#FFBF99"/>
<path d="M298.944 291.643C298.446 292.004 297.947 292.185 297.449 292.547C297.781 292.366 298.28 292.004 298.944 291.643Z" fill="#FFBF99"/>
<path d="M321.027 252.74C321.858 260.702 322.522 268.483 323.02 275.903L323.186 275.722C324.016 275.179 324.681 274.636 325.511 273.912C325.677 273.912 325.677 273.731 325.843 273.731C326.507 273.188 327.338 272.645 328.002 272.103C328.168 272.103 328.168 271.922 328.334 271.922C328.998 271.379 329.662 270.836 330.327 270.293C330.493 270.112 330.493 270.112 330.659 269.931C331.323 269.388 331.987 268.845 332.651 268.302C332.818 268.302 332.818 268.121 332.984 268.121C333.648 267.579 334.312 267.036 334.81 266.493C336.139 265.407 337.467 264.321 338.63 263.236C333.98 261.788 327.67 258.712 321.027 252.74Z" fill="#FFBF99"/>
<path d="M321.034 252.737C318.875 250.747 316.716 248.575 314.558 246.042C307.085 257.261 296.291 271.919 290.479 279.881C289.815 280.786 289.151 281.69 288.652 282.414C289.483 286.395 291.143 290.919 294.132 294.719C294.464 294.538 294.963 294.176 295.295 293.995C295.959 293.633 296.623 293.271 297.453 292.729C297.952 292.367 298.45 292.186 298.948 291.824C299.778 291.281 300.609 290.919 301.273 290.376C301.605 290.195 301.937 290.014 302.269 289.833C309.078 285.671 315.222 281.69 320.536 277.89C321.366 277.347 322.196 276.624 323.027 276.081C322.362 268.481 321.698 260.699 321.034 252.737Z" fill="#FFBF99"/>
<path d="M279.35 115.573C279.184 114.669 279.018 113.945 278.852 113.04C279.018 114.307 279.184 115.031 279.35 115.573Z" fill="#FFB27D"/>
<path d="M250.289 111.411C245.64 113.763 242.152 116.115 242.152 116.115C246.304 115.573 250.787 115.211 255.603 114.849C253.776 114.306 252.116 113.039 250.289 111.411Z" fill="#FFB27D"/>
<path d="M263.414 114.669C268.562 114.669 273.876 114.85 279.356 115.574C279.19 115.031 279.19 114.126 278.858 113.04C277.861 109.24 275.702 107.069 272.879 106.164C270.555 109.964 267.067 113.221 263.414 114.669Z" fill="#FFB27D"/>
<path d="M244.139 180.355C244.471 179.993 244.637 179.993 244.803 180.174L245.135 157.011L243.641 157.373L244.139 180.355Z" fill="white"/>
<path d="M243.807 145.07H243.641L243.807 157.375L245.301 157.013L245.467 146.879L243.807 145.07Z" fill="white"/>
<path d="M244.155 181.26V180.174C243.491 181.26 241.997 184.698 242.993 185.06C243.989 185.422 245.65 185.422 246.148 184.879C246.48 184.517 245.816 180.536 244.986 179.812V180.898H244.155V181.26Z" fill="#F79F03"/>
<path d="M244.141 180.355V181.441H244.805V180.355C244.639 179.993 244.307 179.993 244.141 180.355Z" fill="#F79F03"/>
<path d="M276.69 180.355C277.022 179.993 277.188 179.993 277.354 180.174L277.852 148.507L276.191 148.869L276.69 180.355Z" fill="white"/>
<path d="M276.359 147.967V149.053L278.02 148.51V146.157L276.359 147.967Z" fill="white"/>
<path d="M276.695 181.26V180.174C276.03 181.26 274.536 184.698 275.532 185.06C276.528 185.422 278.189 185.422 278.687 184.879C279.019 184.517 278.355 180.536 277.525 179.812V180.898H276.695V181.26Z" fill="#F79F03"/>
<path d="M276.699 180.355V181.441H277.363V180.355C277.197 179.993 277.031 179.993 276.699 180.355Z" fill="#F79F03"/>
<path d="M224.385 107.792C224.385 107.792 224.219 107.792 224.219 107.972C213.757 115.573 220.399 120.639 220.399 120.639C220.399 120.639 224.219 119.554 230.363 118.106L224.385 107.792Z" fill="#F79F03"/>
<path d="M230.529 118.107C231.359 117.926 232.19 117.745 233.02 117.564C234.016 117.383 235.013 117.202 236.009 117.021C232.024 109.964 227.872 105.259 224.219 107.792L230.529 118.107Z" fill="#F79F03"/>
<path d="M220.728 120.822C221.06 120.641 221.226 120.641 221.226 120.641L221.392 121.546L234.179 134.937L236.836 128.965L230.526 118.108C224.215 119.375 220.562 120.641 220.728 120.822Z" fill="#F79F03"/>
<path d="M230.531 118.108L236.675 128.965V128.784L230.531 118.108Z" fill="#F79F03"/>
<path d="M245.472 145.067V146.877L249.623 151.401L236.671 128.962L234.18 134.934L243.811 145.067H245.472Z" fill="#F79F03"/>
<path d="M236.672 128.783V128.964L249.624 151.403L236.672 128.783Z" fill="#F79F03"/>
<path d="M220.73 120.822L221.395 121.546L221.229 120.641C221.229 120.641 221.063 120.822 220.73 120.822Z" fill="#F79F03"/>
<path d="M239.168 122.992C238.172 120.821 237.176 118.83 236.179 117.021C235.183 117.201 234.02 117.382 233.19 117.563C232.36 117.744 231.363 117.925 230.699 118.106L236.843 128.783L239.168 122.992Z" fill="#F79F03"/>
<path d="M236.672 128.783L249.624 151.221C249.624 151.221 244.975 135.659 239.163 122.992L236.672 128.783Z" fill="#F79F03"/>
<path d="M245.477 145.07H243.816L245.477 146.879V145.07Z" fill="#F79F03"/>
<path d="M301.604 110.506C301.438 110.325 301.272 110.144 301.105 109.963C301.105 110.144 301.272 110.325 301.604 110.506Z" fill="#F79F03"/>
<path d="M301.934 119.375C302.266 119.556 302.598 119.737 302.93 119.918C304.093 118.651 305.919 115.213 301.436 110.508C301.436 110.508 301.27 110.508 301.27 110.689C303.096 113.223 303.096 116.118 301.934 119.375Z" fill="#F79F03"/>
<path d="M286.824 116.659C287.156 116.659 287.488 116.84 287.987 116.84C289.647 117.202 291.308 117.564 293.134 117.926C293.965 117.202 294.961 116.297 295.957 115.573C295.957 115.573 298.282 112.859 301.77 110.507C301.603 110.326 301.437 110.145 301.271 109.964C300.607 109.24 299.777 108.697 298.78 107.973C294.961 105.078 290.644 109.783 286.824 116.659Z" fill="#F79F03"/>
<path d="M301.27 119.013C301.27 119.013 301.436 119.013 301.934 119.375C303.096 116.299 303.096 113.223 301.436 110.508C298.115 112.861 295.624 115.575 295.624 115.575C294.627 116.299 293.797 117.204 292.801 117.927C295.458 118.651 298.281 119.375 300.938 120.099L301.27 119.013Z" fill="#F79F03"/>
<path d="M273.039 151.222L275.032 149.231L274.201 149.593L273.039 151.222Z" fill="#F79F03"/>
<path d="M300.938 121.726C300.772 122.087 300.606 122.449 300.273 122.811L300.772 122.268L300.938 121.726Z" fill="#F79F03"/>
<path d="M285.328 125.345C287.487 122.812 289.978 120.459 292.801 117.926C291.14 117.564 289.48 117.202 287.653 116.84L285.328 125.345Z" fill="#F79F03"/>
<path d="M290.482 133.127L300.279 122.813C300.445 122.451 300.611 122.089 300.943 121.727L301.11 120.279C298.453 119.375 295.63 118.651 292.973 118.108C290.15 120.46 287.659 122.994 285.5 125.527L290.482 133.127Z" fill="#F79F03"/>
<path d="M276.192 146.335L274.199 149.593L275.03 149.231L276.358 147.964L276.192 146.335Z" fill="#F79F03"/>
<path d="M278.016 145.069V146.155L285.489 138.193C282.666 140.364 280.009 142.536 277.518 144.164L277.02 144.888L278.016 145.069Z" fill="#F79F03"/>
<path d="M285.329 125.346L285.164 125.526C285.329 125.526 285.329 125.346 285.329 125.346Z" fill="#F79F03"/>
<path d="M285.166 125.526L281.513 137.831L277.527 144.346C280.018 142.536 282.841 140.546 285.498 138.374L290.48 133.126L285.332 125.526C285.332 125.345 285.332 125.526 285.166 125.526Z" fill="#F79F03"/>
<path d="M273.537 149.593C273.205 150.678 273.039 151.221 273.039 151.221L274.201 149.412L273.537 149.593Z" fill="#F79F03"/>
<path d="M285.325 125.164L287.816 116.84C287.483 116.84 287.151 116.659 286.653 116.659C285.657 118.469 284.494 120.64 283.664 122.631L285.325 125.164Z" fill="#F79F03"/>
<path d="M276.196 146.336V145.25C275.698 145.612 275.2 145.974 274.701 146.336C274.203 147.784 273.871 148.87 273.539 149.774L274.203 149.593L276.196 146.336Z" fill="#F79F03"/>
<path d="M277.522 144.346C277.19 144.708 276.691 144.889 276.359 145.07H277.024L277.522 144.346Z" fill="#F79F03"/>
<path d="M285.33 125.163L283.669 122.629C282.175 125.887 280.68 129.506 279.352 132.944C281.012 130.41 283.005 127.877 285.164 125.525L285.33 125.163Z" fill="#F79F03"/>
<path d="M276.196 145.251C276.694 144.889 277.026 144.708 277.358 144.346L281.344 137.831L284.997 125.526C282.838 128.06 280.845 130.412 279.185 132.946C277.192 138.012 275.698 142.717 274.535 146.155C275.199 145.974 275.698 145.612 276.196 145.251Z" fill="#F79F03"/>
<path d="M302.272 120.64C302.438 120.64 302.604 120.278 302.936 119.916C302.438 119.735 302.106 119.554 301.94 119.374C301.774 119.735 301.607 120.097 301.441 120.459C301.774 120.459 302.106 120.64 302.272 120.64Z" fill="#F79F03"/>
<path d="M301.105 120.278C301.272 120.278 301.438 120.459 301.604 120.459C301.77 120.097 301.936 119.736 302.102 119.374C301.604 119.193 301.438 119.012 301.438 119.012L301.105 120.278Z" fill="#F79F03"/>
<path d="M302.264 120.64C301.932 120.64 301.766 120.459 301.434 120.459C301.268 121.002 300.936 121.364 300.77 121.907V122.449L302.264 120.64Z" fill="#F79F03"/>
<path d="M301.107 120.279L300.941 121.727C301.107 121.184 301.44 120.822 301.606 120.279C301.44 120.279 301.274 120.279 301.107 120.279Z" fill="#F79F03"/>
<path d="M277.022 145.07L276.191 146.337L276.357 147.965L278.018 146.156V145.07H277.022Z" fill="#F79F03"/>
<path d="M277.024 145.07H276.359V146.156L277.024 145.07Z" fill="#F79F03"/>
<path d="M276.191 145.07C276.358 145.07 276.191 145.251 276.191 145.07Z" fill="#F79F03"/>
<path d="M287.822 297.796C287.822 297.796 286.659 292.91 286.327 285.129C286.327 285.129 286.825 284.405 287.656 283.319C287.656 283.319 287.656 283.319 287.656 283.138C287.822 282.776 288.154 282.595 288.32 282.233C287.324 277.709 287.157 274.271 287.157 274.09V273.186H239.831V274.09C239.997 279.7 239.166 284.405 237.34 288.386C237.34 289.11 237.34 289.653 237.174 290.376C237.174 290.919 237.174 291.462 237.008 292.005C237.008 292.186 237.008 292.367 237.008 292.367C236.676 297.434 236.011 300.51 236.011 300.51C234.019 299.424 232.192 298.519 230.365 297.615C230.033 297.434 229.867 297.434 229.535 297.253C223.225 301.234 216.084 301.053 216.084 301.053H215.254V322.767H310.24V300.872H309.243C303.597 301.415 298.782 299.786 295.128 296.348C294.464 295.805 293.966 295.081 293.468 294.357C293.136 294.538 292.637 294.719 292.305 295.081C291.309 295.986 289.648 296.891 287.822 297.796Z" fill="#F79F03"/>
<path d="M237.674 290.376C237.674 290.919 237.674 291.462 237.508 292.005C237.508 291.462 237.508 290.919 237.674 290.376Z" fill="#F79F03"/>
<path d="M231.86 298.157C231.528 297.976 231.195 297.795 230.863 297.614C232.69 298.519 234.517 299.604 236.509 300.509C236.509 300.509 237.174 297.433 237.506 292.366C236.841 293.271 236.177 294.176 235.513 294.9C234.351 296.166 233.188 297.252 231.86 298.157Z" fill="#F79F03"/>
<path d="M230.031 297.255C230.197 297.436 230.529 297.436 230.862 297.617C230.529 297.436 230.363 297.255 230.031 297.255Z" fill="#F79F03"/>
<path d="M234.183 293.635C232.854 295.083 231.526 296.168 230.031 297.073C230.363 297.254 230.529 297.254 230.862 297.435C231.194 297.616 231.526 297.797 231.858 297.978C233.02 297.073 234.349 295.987 235.345 294.902C236.009 294.178 236.674 293.273 237.338 292.368C237.338 292.187 237.338 292.006 237.338 292.006C237.338 291.463 237.338 290.921 237.504 290.378C237.504 289.835 237.504 289.111 237.67 288.387C236.84 290.378 235.677 292.187 234.183 293.635Z" fill="#F79F03"/>
<path d="M287.812 283.14C287.979 282.778 288.311 282.597 288.477 282.235C288.311 282.597 288.145 282.959 287.812 283.14Z" fill="#F79F03"/>
<path d="M287.319 284.045C287.485 283.864 287.651 283.502 287.817 283.321C286.986 284.587 286.488 285.13 286.488 285.13C286.82 292.911 287.983 297.797 287.983 297.797C289.643 296.892 291.304 295.988 292.965 295.083C292.799 295.083 292.632 295.264 292.632 295.264C289.809 291.826 288.149 287.845 287.319 284.045Z" fill="#F79F03"/>
<path d="M292.801 295.083C293.133 294.902 293.631 294.721 293.963 294.359C293.631 294.721 293.299 294.902 292.801 295.083Z" fill="#F79F03"/>
<path d="M287.83 283.32C287.664 283.682 287.498 283.863 287.332 284.044C288.328 287.663 289.989 291.825 292.48 295.263C292.646 295.263 292.812 295.083 292.812 295.083C293.144 294.902 293.642 294.721 293.974 294.359C291.151 290.74 289.491 286.035 288.494 282.054C288.328 282.597 288.162 282.958 287.83 283.32Z" fill="#F79F03"/>
<path d="M322.696 231.385L319.375 237.175C319.375 237.537 319.375 237.718 319.541 238.08C321.866 234.461 323.194 231.928 322.696 231.385Z" fill="#F79F03"/>
<path d="M319.535 238.262C319.535 237.9 319.535 237.719 319.368 237.357L314.387 246.043C316.379 243.148 318.04 240.434 319.535 238.262Z" fill="#F79F03"/>
<path d="M322.696 231.386C323.028 231.928 321.7 234.462 319.375 238.081C319.541 239.529 319.707 240.976 319.873 242.424C323.36 240.252 327.678 237.357 330.833 234.824C332.328 233.738 332.66 230.119 332.494 225.414C329.339 229.576 325.851 231.748 322.696 231.386Z" fill="#F79F03"/>
<path d="M322.694 231.386C325.849 231.748 329.17 229.395 332.657 225.595C331.993 209.49 323.69 179.27 317.214 182.709C315.719 183.432 314.391 184.518 313.395 185.423C314.889 197.547 316.384 210.395 317.878 223.424C320.535 228.31 322.694 231.386 322.694 231.386Z" fill="#F79F03"/>
<path d="M314.387 246.044C314.387 246.044 316.712 244.596 319.867 242.606C319.701 241.158 319.535 239.71 319.368 238.263C318.04 240.434 316.379 243.148 314.387 246.044Z" fill="#F79F03"/>
<path d="M310.734 189.585C311.731 198.632 313.723 209.309 317.875 223.423C317.875 223.423 317.875 223.423 317.875 223.604C316.38 210.575 314.886 197.728 313.391 185.604C312.229 186.689 311.399 188.137 310.734 189.585Z" fill="#F79F03"/>
<path d="M203.625 241.156C203.957 238.08 204.289 234.823 204.787 231.566L204.289 229.213C202.297 232.29 200.802 234.28 200.47 234.823C200.138 235.366 201.3 237.718 203.625 241.156Z" fill="#F79F03"/>
<path d="M204.784 231.567C204.451 234.824 203.953 237.9 203.621 241.158C204.451 242.424 205.282 243.872 206.444 245.32C207.108 245.681 207.607 246.043 207.607 246.043L204.784 231.567Z" fill="#F79F03"/>
<path d="M200.48 234.824C200.812 234.281 202.307 232.291 204.3 229.214L203.469 225.233C203.469 225.233 212.603 177.823 204.632 182.709C196.661 187.595 184.705 230.119 191.015 235.005C194.668 237.9 199.816 241.157 203.469 243.51C203.635 242.786 203.635 242.062 203.802 241.157C201.311 237.719 200.148 235.367 200.48 234.824Z" fill="#F79F03"/>
<path d="M203.637 241.157C203.471 241.881 203.471 242.604 203.305 243.509C204.633 244.233 205.63 244.957 206.294 245.319C205.297 243.871 204.467 242.423 203.637 241.157Z" fill="#F79F03"/>
<path d="M319.039 230.48C318.873 230.48 318.873 230.48 318.707 230.299C318.707 230.48 318.707 230.661 318.707 230.661C318.873 230.842 318.873 231.023 319.039 231.204V230.48Z" fill="#DE051F"/>
<path d="M319.039 230.482L318.375 225.234C318.209 225.053 318.209 224.872 318.043 224.691C318.209 226.501 318.375 228.491 318.707 230.301C318.707 230.482 318.873 230.482 319.039 230.482Z" fill="#DE051F"/>
<path d="M315.379 131.859C315.878 130.773 316.21 130.05 316.21 130.05L306.412 121.726C306.412 121.726 306.412 121.907 306.246 122.268C308.571 124.078 311.726 127.154 315.379 131.859Z" fill="#DE051F"/>
<path d="M318.375 230.299C318.541 230.48 318.707 230.661 318.707 230.842C318.707 230.661 318.707 230.48 318.707 230.48C318.541 230.299 318.375 230.299 318.375 230.299Z" fill="#DE051F"/>
<path d="M318.033 224.69C315.709 221.433 312.72 217.271 309.73 212.747C311.889 219.261 314.878 225.052 318.366 230.119C318.532 230.119 318.532 230.3 318.698 230.3C318.532 228.49 318.199 226.681 318.033 224.69Z" fill="#DE051F"/>
<path d="M310.236 159.545C310.734 145.249 314.055 135.659 315.549 132.04C311.896 127.335 308.741 124.259 306.416 122.268C306.25 122.992 306.084 124.259 305.918 126.249C306.582 132.221 308.243 144.164 310.236 159.545Z" fill="#DE051F"/>
<path d="M318.373 225.232C318.207 224.689 318.041 224.146 317.875 223.784C317.875 224.146 317.875 224.508 318.041 224.87C318.207 224.87 318.207 225.051 318.373 225.232Z" fill="#DE051F"/>
<path d="M303.098 161.354C302.599 179.992 304.592 198.088 309.74 212.926C312.895 217.269 315.718 221.612 318.043 224.869C318.043 224.507 318.043 224.145 317.877 223.783V223.602C312.895 214.555 306.253 199.535 310.736 189.764C309.574 179.449 309.906 171.125 310.072 161.535C310.072 160.811 310.072 160.268 310.072 159.725C308.079 144.525 306.419 132.582 305.588 126.429C304.924 132.944 303.43 146.515 303.098 161.354Z" fill="#DE051F"/>
<path d="M317.88 223.426C313.728 209.13 311.735 198.635 310.739 189.587C306.255 199.359 312.732 214.378 317.88 223.426Z" fill="#DE051F"/>
<path d="M284.664 54.7713C286.823 54.2284 289.148 53.6855 291.306 53.1427C291.472 52.4189 291.472 51.876 291.472 51.876C291.472 51.876 289.48 53.3236 284.664 54.7713Z" fill="#FFBF99"/>
<path d="M247.801 54.2314C244.48 57.8506 241.159 59.8411 238.668 60.7459C240.661 61.4697 243.152 61.8316 246.307 61.6506C252.783 61.4697 264.739 59.2982 279.685 55.8601C278.024 56.222 276.197 56.4029 274.039 56.5839C262.414 57.8506 247.801 54.2314 247.801 54.2314Z" fill="#FFBF99"/>
<path d="M245.314 84.8119C245.314 84.8119 279.688 66.1735 276.865 76.8499C275.536 81.7357 276.035 90.6025 276.865 98.5646C278.525 94.7645 280.684 90.0596 282.677 84.6309C282.345 83.7262 282.843 82.2785 283.175 80.469C283.839 77.2118 286.164 72.326 286.164 72.326C286.164 72.326 286.662 71.964 287.493 71.4212H287.327C288.987 67.8021 290.814 56.5828 291.312 52.7827C288.987 53.3256 286.828 53.8685 284.67 54.4113C283.175 54.7732 281.514 55.3161 279.522 55.678C264.576 59.1162 252.62 61.4686 246.144 61.4686C242.989 61.4686 240.498 61.1067 238.505 60.5638C235.516 61.6496 233.523 61.4686 233.523 61.4686L234.188 68.7068C234.188 69.0687 234.354 69.4307 234.354 69.7926C236.679 72.5069 238.339 77.3927 238.339 81.0118C238.339 82.4595 237.841 83.0023 237.011 83.1833C238.505 88.9739 240.664 95.3074 243.487 101.098C243.653 101.098 243.985 100.917 244.151 100.917C245.148 92.774 245.314 84.8119 245.314 84.8119Z" fill="#FFBF99"/>
<path d="M244.305 101.097C244.139 101.097 243.807 101.278 243.641 101.278C243.807 101.64 243.973 102.182 244.305 102.544C244.305 102.001 244.305 101.64 244.305 101.097Z" fill="#FFBF99"/>
<path d="M276.856 77.0304C279.679 66.354 245.305 84.9925 245.305 84.9925C245.305 84.9925 245.139 92.9545 244.309 101.278C253.276 99.6499 264.402 98.7451 276.192 100.374C276.358 99.8308 276.69 99.288 276.856 98.7451C276.026 90.6021 275.528 81.9162 276.856 77.0304Z" fill="#FFBF99"/>
<path d="M263.4 114.667C260.744 114.667 258.253 114.667 255.762 114.848C258.253 115.934 260.91 115.753 263.4 114.667Z" fill="#FFBF99"/>
<path d="M250.287 111.412C257.095 107.974 266.56 104.174 273.037 106.346C273.867 105.079 274.531 103.993 275.196 102.726C275.528 102.003 275.86 101.279 276.358 100.374C264.568 98.7455 253.442 99.4693 244.475 101.279C244.475 101.822 244.475 102.184 244.309 102.726C244.641 103.269 244.973 103.993 245.305 104.536C246.799 107.25 248.626 109.603 250.287 111.412Z" fill="#FFBF99"/>
<path d="M250.289 111.411C252.116 113.221 253.942 114.306 255.603 115.03C258.094 114.849 260.585 114.849 263.242 114.849C267.061 113.402 270.382 110.144 272.873 106.344C266.563 103.992 257.097 107.792 250.289 111.411Z" fill="#FFBF99"/>
<path d="M282.844 84.8122C283.01 85.536 283.84 85.8979 285.501 85.536C289.154 84.8121 292.143 77.393 292.143 72.5072C292.143 69.6119 290.15 70.1547 288.324 71.0595C287.992 71.2405 287.659 71.4214 287.493 71.4214C287.493 71.4214 287.493 71.4214 287.327 71.4214C286.165 76.1263 284.504 80.6502 282.844 84.8122Z" fill="#FFBF99"/>
<path d="M286.159 72.5068C286.159 72.5068 284.001 77.3926 283.17 80.6498C282.838 82.4594 282.34 83.9071 282.672 84.8118C284.333 80.4689 285.993 75.945 287.488 71.6021C286.824 72.1449 286.159 72.5068 286.159 72.5068Z" fill="#FFBF99"/>
<path d="M233.854 69.249C233.688 69.249 233.688 69.249 233.854 69.249C233.189 68.7061 232.525 68.3442 231.861 68.1632C228.208 67.4394 228.872 69.7919 229.702 73.0491C230.034 74.1348 230.366 75.4015 230.865 76.6682C231.695 79.0206 233.854 82.0968 235.182 82.8207C235.846 83.1826 236.677 83.3635 237.341 83.3635C236.012 78.4777 235.182 73.9538 234.684 69.9728C234.186 69.6109 234.02 69.4299 233.854 69.249Z" fill="#FFBF99"/>
<path d="M238.501 81.1919C238.501 77.5728 236.84 72.506 234.516 69.9727C235.014 73.9537 236.01 78.4776 237.173 83.3634C237.837 83.1824 238.501 82.6396 238.501 81.1919Z" fill="#FFBF99"/>
<path d="M241.16 31.4288C239.001 34.5051 229.037 49.3434 233.687 56.9436L247.304 35.7717C247.304 35.7717 288.32 39.7528 291.309 48.8006C291.642 49.8863 291.808 51.153 291.642 52.7816C293.468 52.4197 295.295 51.8768 297.121 51.334C297.288 48.4387 297.121 46.2672 297.121 46.2672C297.121 46.2672 305.258 39.029 307.583 30.8859C307.583 30.8859 285.165 25.2763 278.523 20.3905C271.881 15.5047 268.061 12.2475 268.061 12.2475C268.061 12.2475 262.415 8.80933 255.275 10.4379C278.855 13.5142 248.798 20.7524 241.16 31.4288Z" fill="#170856"/>
<path d="M287.488 71.6007C287.82 71.4198 288.153 71.2388 288.319 71.0579C290.145 69.9721 293.799 67.0768 295.459 61.6482C296.622 58.0291 296.954 54.4099 297.12 51.5146C295.293 52.0575 293.466 52.4194 291.64 52.9623C291.64 57.6671 289.979 64.3625 287.488 71.6007Z" fill="#170856"/>
<path d="M230.199 44.095C230.199 44.095 220.9 58.2095 233.686 69.0669C233.686 69.0669 233.686 69.0669 233.852 69.2478C234.019 69.4288 234.185 69.6098 234.351 69.7907L234.185 68.8859C233.354 62.3715 233.188 58.0286 233.188 58.0286L233.686 57.1238C229.037 49.3427 239 34.5043 241.159 31.609C248.632 20.7517 278.854 13.6944 255.44 10.6182C252.949 11.161 250.126 12.4277 247.303 14.7801C237.008 23.8279 230.199 28.7138 230.199 44.095Z" fill="#170856"/>
<path d="M238.663 60.7454C241.154 59.8406 244.475 58.031 247.797 54.2309C247.797 54.2309 262.41 57.8501 273.868 56.5834C275.861 56.4024 277.853 56.0405 279.514 55.8595C281.174 55.4976 283.001 55.1357 284.662 54.5928C289.311 53.1452 291.47 51.6976 291.47 51.6976C291.47 51.6976 291.47 52.2404 291.304 52.9642C291.47 52.9642 291.636 52.9642 291.802 52.7833C291.802 51.1547 291.802 49.888 291.47 48.8023C288.481 39.9354 247.464 35.7734 247.464 35.7734L233.848 57.1262C234.678 58.5739 236.339 60.0215 238.663 60.7454Z" fill="#170856"/>
<path d="M238.665 60.7461C236.341 60.0222 234.846 58.7556 233.85 57.127L233.352 58.0317C233.352 58.0317 233.518 62.3747 234.348 68.8891L233.684 61.6508C233.684 61.6508 235.676 61.8318 238.665 60.7461Z" fill="#170856"/>
<path d="M284.656 54.7734C282.829 55.1353 281.168 55.6782 279.508 56.0401C281.501 55.4973 283.161 55.1353 284.656 54.7734Z" fill="#170856"/>
<path d="M287.488 71.6021C289.979 64.3639 291.64 57.4876 291.806 52.7827C291.64 52.7827 291.474 52.7827 291.308 52.9637C290.809 56.7637 289.149 67.983 287.488 71.6021Z" fill="#170856"/>
<path d="M287.66 71.6002C287.826 71.6002 288.158 71.4192 288.49 71.2383C288.158 71.2383 287.826 71.4192 287.66 71.6002Z" fill="#170856"/>
<line x1="119.223" y1="328.444" x2="380.425" y2="328.444" stroke="black" stroke-width="1.1115"/>
</svg>
