<svg width="471" height="413" viewBox="0 0 471 413" fill="none" xmlns="http://www.w3.org/2000/svg">
<path d="M297.835 97.7037C297.835 97.7037 296.861 58.204 309.791 58.0268C322.81 57.8497 320.33 80.168 320.33 80.168C320.33 80.168 324.847 38.0113 337.423 39.4283C349.468 40.7568 344.243 57.4069 344.243 57.4069C344.243 57.4069 361.336 14.3645 377.277 33.6716C393.308 52.9787 356.199 68.566 356.199 68.566C356.199 68.566 373.469 62.2779 376.037 75.2969C378.606 88.4045 338.486 95.6667 338.486 95.6667C338.486 95.6667 361.159 90.4414 360.539 104.08C359.919 117.719 296.949 123.122 296.949 123.122L297.835 97.7037Z" fill="#02752C"/>
<path d="M284.107 136.673L283.399 135.787C305.185 117.189 366.029 45.097 366.649 44.2999L367.535 45.0084C366.826 45.8055 305.983 117.986 284.107 136.673Z" fill="white"/>
<path d="M308.817 110.192C312.182 96.1105 310.676 73.1722 310.676 72.9066L311.828 72.818C311.828 73.0837 313.245 96.199 309.879 110.458L308.817 110.192Z" fill="white"/>
<path d="M333.965 82.2944C336.268 74.5007 336.799 54.6623 336.799 54.3966H337.95C337.95 55.1937 337.419 74.5893 335.028 82.5601L333.965 82.2944Z" fill="white"/>
<path d="M309.787 111.255L309.344 110.192C322.894 104.612 345.921 102.398 346.187 102.31L346.275 103.461C346.01 103.55 323.16 105.764 309.787 111.255Z" fill="white"/>
<path d="M334.496 83.092L333.965 82.0292C341.404 78.4866 360.446 74.8555 361.331 74.6783L361.509 75.8297C361.331 75.9183 341.847 79.638 334.496 83.092Z" fill="white"/>
<path d="M130.762 142.514C124.191 133.562 119.144 123.468 115.525 112.898C111.716 102.042 109.431 90.7101 108.002 79.2828C107.24 72.6169 106.669 66.0462 106.383 59.285C106.383 58.5232 105.05 58.428 105.145 59.1898C105.622 71.0932 106.86 83.0919 109.24 94.8048C111.526 105.946 115.049 116.898 120.001 127.087C122.763 132.705 126 138.133 129.714 143.276C130.286 143.942 131.238 143.085 130.762 142.514Z" fill="#02752C"/>
<path d="M119.334 123.85C119.334 123.85 95.9083 96.9963 89.4329 104.043C82.8622 111.09 108.383 125.469 119.334 123.85Z" fill="#02752C"/>
<path d="M113.051 107.566C113.051 107.566 96.1954 80.3313 89.4343 85.664C82.5779 90.9968 103.147 107.566 113.051 107.566Z" fill="#02752C"/>
<path d="M109.523 90.5203C109.523 90.5203 94.7632 66.7134 88.7639 71.2843C82.8598 75.9505 100.858 90.425 109.523 90.5203Z" fill="#02752C"/>
<path d="M106.478 74.4267C106.478 74.4267 98.0976 52.0482 92.384 54.905C86.6704 57.8571 99.2404 72.903 106.478 74.4267Z" fill="#02752C"/>
<path d="M120.277 126.706C120.277 126.706 125.134 91.3768 134.466 93.7575C143.799 96.0429 130.371 122.135 120.277 126.706Z" fill="#02752C"/>
<path d="M114.184 110.232C114.184 110.232 118.278 78.5209 126.658 80.5207C135.038 82.6157 123.135 106.137 114.184 110.232Z" fill="#02752C"/>
<path d="M108.375 89.4728C108.375 89.4728 116.184 62.5235 123.23 65.3803C130.182 68.3323 116.755 87.0921 108.375 89.4728Z" fill="#02752C"/>
<path d="M106.379 74.0462C106.379 74.0462 110.474 50.5251 116.663 52.3344C122.853 54.1437 113.235 71.2846 106.379 74.0462Z" fill="#02752C"/>
<path d="M106.383 62.9999C106.383 62.9999 113.144 40.0501 106.859 38.9074C100.574 37.8599 101.527 57.4767 106.383 62.9999Z" fill="#02752C"/>
<path d="M305.405 135.944C315.594 132.421 326.45 130.707 337.211 130.326C348.353 129.945 359.589 131.088 370.541 133.088C376.921 134.23 383.206 135.754 389.491 137.373C390.253 137.563 390.729 136.421 389.967 136.23C378.73 133.278 367.303 130.897 355.78 129.755C344.829 128.707 333.592 128.707 322.736 130.421C316.737 131.374 310.738 132.802 304.929 134.802C304.167 135.087 304.643 136.135 305.405 135.944Z" fill="#FABC43"/>
<path d="M325.981 130.707C325.981 130.707 357.691 116.803 353.025 108.709C348.359 100.615 327.6 120.041 325.981 130.707Z" fill="#FABC43"/>
<path d="M342.832 129.564C342.832 129.564 372.924 121.755 369.972 113.946C367.02 106.138 345.784 120.422 342.832 129.564Z" fill="#FABC43"/>
<path d="M359.688 131.278C359.688 131.278 386.065 124.421 383.494 117.565C380.923 110.709 362.354 123.184 359.688 131.278Z" fill="#FABC43"/>
<path d="M375.492 133.088C375.492 133.088 398.632 131.85 397.68 125.66C396.633 119.47 379.016 126.802 375.492 133.088Z" fill="#FABC43"/>
<path d="M323.023 130.801C323.023 130.801 354.353 145.466 349.497 153.465C344.64 161.369 324.357 141.467 323.023 130.801Z" fill="#FABC43"/>
<path d="M340.074 129.849C340.074 129.849 368.357 142.895 364.072 150.037C359.691 157.179 341.312 139.372 340.074 129.849Z" fill="#FABC43"/>
<path d="M361.025 130.516C361.025 130.516 383.785 145.562 379.023 151.18C374.357 156.799 360.835 138.896 361.025 130.516Z" fill="#FABC43"/>
<path d="M375.875 133.087C375.875 133.087 396.539 143.752 393.111 148.895C389.588 154.132 376.542 140.229 375.875 133.087Z" fill="#FABC43"/>
<path d="M386.07 136.325C386.07 136.325 405.306 149.276 408.258 143.752C411.21 138.134 392.736 133.373 386.07 136.325Z" fill="#FABC43"/>
<path d="M307.225 269.031C352.186 224.071 352.186 151.175 307.225 106.215C262.265 61.2541 189.369 61.2541 144.408 106.215C99.4478 151.175 99.4478 224.071 144.408 269.031C189.369 313.992 262.265 313.992 307.225 269.031Z" fill="#92DEFF"/>
<path d="M307.225 269.031C352.186 224.071 352.186 151.175 307.225 106.215C262.265 61.2541 189.369 61.2541 144.408 106.215C99.4478 151.175 99.4478 224.071 144.408 269.031C189.369 313.992 262.265 313.992 307.225 269.031Z" fill="#023E9F"/>
<path d="M232.659 72.7129C250.752 88.5206 262.18 111.756 262.18 137.658C262.18 185.367 223.517 224.029 175.808 224.029C149.907 224.029 126.671 212.602 110.863 194.509C114.482 254.883 164.476 302.782 225.803 302.782C289.415 302.782 340.933 251.264 340.933 187.652C340.933 126.326 293.033 76.2363 232.659 72.7129Z" fill="#023EA1"/>
<path d="M284.082 88.3301C294.176 105.471 299.89 125.374 299.89 146.609C299.89 210.221 248.372 261.739 184.76 261.739C163.524 261.739 143.526 255.93 126.48 245.931C146.478 279.928 183.426 302.782 225.803 302.782C289.415 302.782 340.933 251.264 340.933 187.652C340.933 145.276 318.078 108.328 284.082 88.3301Z" fill="#034B8B"/>
<path d="M338.549 210.983C327.408 205.65 317.028 200.984 322.17 195.556C329.788 187.367 332.074 201.27 340.073 201.555C340.644 196.985 340.93 192.318 340.93 187.652C340.93 144.133 316.742 106.233 281.127 86.7112C279.699 86.1398 278.27 85.5684 276.842 84.9971C262.367 90.9964 269.605 100.424 273.509 102.233C285.412 107.756 325.218 99.3764 297.125 118.708C284.365 127.468 267.51 126.707 272.938 138.896C279.413 153.466 288.555 150.799 297.602 157.37C306.743 164.036 297.792 172.225 284.079 166.607C270.367 160.989 259.034 158.132 246.464 174.987C233.99 191.842 212.087 223.077 237.132 223.077C262.082 223.077 266.272 222.22 262.558 244.122C258.844 266.024 259.034 253.74 273.985 269.929C278.842 275.166 278.461 282.975 276.556 290.974C307.981 275.547 331.312 246.217 338.549 210.983Z" fill="#0181F7"/>
<path d="M206.944 244.408C206.944 244.408 212.468 238.885 190.47 227.267C168.472 215.554 176.091 216.316 162.949 220.411C149.903 224.505 146.475 225.934 132 210.793C117.621 195.651 137.524 197.746 153.331 198.413C169.139 199.08 147.808 179.844 166.377 170.892C184.947 161.941 181.519 154.418 181.519 154.418C197.993 155.085 202.088 144.8 192.47 137.277C182.852 129.754 184.185 127.659 172.567 110.518C160.854 93.3771 151.236 118.041 140.952 125.659C137.143 128.421 134.381 125.374 132.381 120.327C118.669 139.277 110.574 162.607 110.574 187.748C110.574 201.46 112.955 214.697 117.431 226.886C118.669 227.648 120.002 228.314 121.144 228.981C134.191 236.409 143.713 248.693 147.427 263.263C148.856 268.786 150.379 273.452 151.903 274.69C155.998 278.118 160.188 279.452 167.044 282.975C168.377 283.642 168.853 285.356 168.758 287.832C178.471 293.355 189.042 297.545 200.278 300.021C200.945 298.402 201.421 297.354 201.421 297.354C201.421 297.354 215.801 291.831 216.562 289.831C217.229 287.736 231.513 263.644 231.513 255.264C231.513 243.646 206.944 244.408 206.944 244.408Z" fill="#0181F7"/>
<path d="M243.985 73.9509C238.081 72.9986 231.891 72.5225 225.701 72.5225C213.512 72.5225 201.799 74.427 190.848 77.9504C192.752 80.5216 194.181 83.4736 194.466 86.7113C195.704 100.424 202.18 107.09 217.797 102.71C227.891 99.8527 238.176 88.0445 243.985 73.9509Z" fill="#0181F7"/>
<path d="M263.035 241.942C263.035 241.942 259.511 210.041 231.609 207.469C231.609 207.469 235.133 222.896 245.513 229.753C255.892 236.609 260.368 237.371 263.035 241.942Z" fill="#64CF41"/>
<path d="M266.46 237.942C266.46 237.942 264.936 205.184 287.219 196.137C287.219 196.137 288.076 211.85 279.982 221.373C271.792 230.895 267.793 232.895 266.46 237.942Z" fill="#64CF41"/>
<path d="M266.463 257.465C266.272 257.465 266.177 257.275 266.177 257.179C265.129 234.039 243.513 217.184 243.322 216.993C243.227 216.898 243.132 216.708 243.227 216.517C243.322 216.422 243.513 216.327 243.703 216.422C243.894 216.612 265.796 233.563 266.843 257.084C266.843 257.275 266.748 257.465 266.463 257.465Z" fill="white"/>
<path d="M265.699 251.274C265.509 251.274 265.414 251.179 265.414 250.988C265.414 250.798 262.938 228.324 280.079 208.898C280.174 208.803 280.364 208.707 280.555 208.898C280.65 208.993 280.745 209.183 280.555 209.374C263.604 228.61 265.985 250.798 266.08 250.988C265.985 251.084 265.89 251.274 265.699 251.274Z" fill="white"/>
<path d="M316.93 252.216C317.025 252.216 317.12 252.121 317.215 252.121C317.025 252.406 316.93 252.501 316.93 252.501V252.216Z" fill="#5CADE5"/>
<path d="M160.529 174.668C160.529 173.526 157.958 172.573 154.815 172.573C151.673 172.573 149.102 173.526 149.102 174.668C149.102 175.811 151.673 176.763 154.815 176.763C157.958 176.763 160.529 175.811 160.529 174.668Z" fill="#1AAA8E"/>
<path d="M153.481 162.575C153.481 162.575 153.766 138.006 132.816 133.53C132.816 133.53 134.054 145.529 141.292 151.719C148.529 157.908 151.862 158.861 153.481 162.575Z" fill="#64CF41"/>
<path d="M156.438 159.908C156.438 159.908 158.342 134.959 176.054 130.102C176.054 130.102 175.293 142.101 168.246 148.576C161.199 155.052 157.866 156.194 156.438 159.908Z" fill="#64CF41"/>
<path d="M154.625 174.668C154.53 174.668 154.435 174.573 154.435 174.382C155.768 156.67 140.913 142.005 140.818 141.815C140.722 141.719 140.722 141.529 140.818 141.434C140.913 141.338 141.103 141.338 141.198 141.434C141.389 141.624 156.34 156.48 155.006 174.382C154.911 174.573 154.816 174.668 154.625 174.668Z" fill="white"/>
<path d="M154.53 169.908C154.435 169.908 154.34 169.812 154.34 169.622C154.34 169.431 154.53 152.195 169.386 139.054C169.481 138.959 169.671 138.959 169.767 139.054C169.862 139.149 169.862 139.34 169.767 139.435C155.102 152.481 154.911 169.527 154.911 169.717C154.911 169.812 154.721 169.908 154.53 169.908C154.626 169.908 154.626 169.908 154.53 169.908Z" fill="white"/>
<path d="M221.802 89.0926C221.802 87.9498 219.231 86.9976 216.089 86.9976C212.946 86.9976 210.375 87.9498 210.375 89.0926C210.375 90.2353 212.946 91.1876 216.089 91.1876C219.231 91.1876 221.802 90.2353 221.802 89.0926Z" fill="#023E9F"/>
<path d="M214.941 78.8078C214.941 78.8078 215.131 58.3339 197.609 54.5248C197.609 54.5248 198.657 64.5237 204.751 69.7612C210.846 74.9987 213.608 75.7605 214.941 78.8078Z" fill="#64CF41"/>
<path d="M217.418 76.6175C217.418 76.6175 218.942 55.7627 233.797 51.668C233.797 51.668 233.13 61.7621 227.226 67.0948C221.322 72.5228 218.656 73.475 217.418 76.6175Z" fill="#64CF41"/>
<path d="M215.892 88.9969C215.797 88.9969 215.702 88.9017 215.702 88.8065C216.845 74.0462 204.465 61.7619 204.275 61.5715C204.179 61.4762 204.179 61.381 204.275 61.2858C204.37 61.1905 204.465 61.1905 204.56 61.2858C204.655 61.381 217.225 73.8558 216.083 88.8065C216.178 88.9017 216.083 88.9969 215.892 88.9969Z" fill="white"/>
<path d="M215.894 84.9972C215.798 84.9972 215.703 84.902 215.703 84.8067C215.703 84.6163 215.894 70.2369 228.273 59.1906C228.368 59.0953 228.464 59.0953 228.559 59.1906C228.654 59.2858 228.654 59.381 228.559 59.4762C216.37 70.4274 216.179 84.6163 216.179 84.7115C216.084 84.902 215.989 84.9972 215.894 84.9972Z" fill="white"/>
<path d="M317.544 254.267C317.798 254.899 318.305 255.532 318.812 256.164C319.065 256.797 319.572 257.556 320.08 258.188C320.84 259.58 321.601 261.098 322.361 262.489C323.756 265.272 325.023 268.182 325.911 271.091L326.164 272.23C326.164 272.23 326.164 272.23 326.164 272.103V271.977C326.164 271.977 326.164 271.85 326.291 271.724C326.291 271.597 326.418 271.471 326.418 271.471C326.544 271.218 326.671 270.965 327.051 270.838C327.559 270.585 327.685 270.585 327.559 270.712C327.432 270.838 326.925 270.838 326.291 270.838C325.657 270.838 324.897 270.838 324.009 270.712C320.967 270.206 317.671 269.447 314.502 268.688L312.601 272.736C314.122 273.748 315.77 274.633 317.417 275.266C318.939 276.025 320.713 276.784 322.488 277.29C323.502 277.543 324.389 277.922 325.277 278.049C325.784 278.175 326.418 278.175 327.051 278.175C327.685 278.175 328.319 278.175 329.08 278.049C329.84 277.922 330.854 277.796 331.868 276.784C332.376 276.531 332.756 275.772 333.263 275.266C333.39 275.013 333.516 274.633 333.77 274.254C333.897 274.001 333.897 273.621 334.023 273.242V272.736V272.483C334.023 272.23 334.023 271.977 334.023 271.724C334.023 271.471 334.023 271.218 334.023 271.091V270.838V270.712L333.77 269.32C333.516 267.423 332.756 265.525 332.249 263.754C331.615 261.983 330.981 260.339 330.221 258.694C329.46 257.05 328.699 255.405 327.685 253.887C327.178 253.128 326.671 252.369 326.291 251.484C325.911 250.598 325.277 249.966 324.77 249.08L317.544 254.267Z" fill="#FFBE9D"/>
<path d="M315.77 255.153C316.404 256.544 316.911 257.936 317.545 259.201C318.559 261.478 319.573 263.249 320.333 264.767C320.967 266.032 321.474 266.664 321.474 266.664L332.883 260.972C332.883 260.972 328.319 247.689 323.502 246.298C318.432 244.906 313.235 248.828 315.77 255.153Z" fill="#F79F03"/>
<path d="M311.2 287.79C311.2 287.79 315.257 324.095 317.919 337.252C320.834 351.799 340.229 398.478 340.229 398.478L349.609 396.454C344.919 380.262 338.201 350.155 333.891 338.643C330.722 321.186 334.271 299.175 329.581 285.639L311.2 287.79Z" fill="#0054A3"/>
<path d="M301.565 288.929C301.565 288.929 299.03 327.638 298.65 341.679C298.269 356.353 301.946 399.869 301.946 399.869H310.946C310.946 399.869 314.749 359.516 312.974 339.908C315.256 324.981 320.199 286.652 320.199 286.652L301.565 288.929Z" fill="#0181F7"/>
<path d="M340.739 398.098L349.359 396.074C349.613 395.948 349.866 396.074 349.993 396.58L352.782 402.526C353.162 403.032 352.782 403.664 352.148 404.044H352.021C349.106 404.55 347.077 405.056 343.401 405.688C341.12 406.068 334.528 407.839 331.612 408.598C328.57 409.357 327.556 406.447 328.824 405.941C334.021 403.411 337.95 400.881 339.345 398.857C339.725 398.731 340.105 398.478 340.739 398.098Z" fill="#170856"/>
<path d="M302.075 399.995H310.948C311.328 399.995 311.455 400.122 311.455 400.628L312.723 406.953C312.723 407.585 312.469 408.091 311.835 408.218H311.709C308.793 408.091 306.765 408.091 302.962 407.965C300.68 407.838 293.708 408.091 290.793 407.965C287.877 407.838 287.37 404.929 288.764 404.676C294.469 403.537 298.779 402.019 300.68 400.375C301.187 400.122 301.694 399.995 302.075 399.995Z" fill="#170856"/>
<path d="M293.086 223.78C293.086 223.78 294.734 238.707 298.157 242.376C300.058 245.412 306.143 242.376 306.143 242.376L307.664 248.321L315.523 245.538L308.932 222.136L293.086 223.78Z" fill="#FFBE9D"/>
<path d="M314.763 239.593C314.129 240.732 312.735 241.238 311.467 241.238C309.566 241.111 307.664 239.973 306.143 239.34C305.763 239.214 305.509 238.961 305.256 238.834C304.369 238.328 302.594 237.696 302.34 236.178C302.34 235.292 302.847 234.66 302.974 233.774C303.101 233.015 302.721 232.13 301.96 232.003C300.693 231.497 299.678 232.762 299.932 233.774C300.059 234.154 300.185 234.66 299.932 234.786C299.552 234.913 299.298 234.66 299.045 234.407C298.664 233.648 298.411 232.762 298.157 231.877C298.03 230.991 297.523 230.106 296.636 229.6C296.129 229.22 295.495 229.347 294.861 229.347C294.481 229.347 294.354 229.347 294.101 229.347C292.326 229.347 290.678 228.208 290.171 226.437C289.664 224.666 290.805 223.022 290.805 223.022C290.805 223.022 290.551 220.365 293.594 219.859C297.016 219.48 297.397 220.618 301.707 218.847C304.749 217.582 308.172 220.365 308.172 220.365C310.834 219.606 312.101 221.251 312.101 221.251C313.496 222.136 314.003 224.034 314.256 225.678C314.51 227.449 314.256 229.094 314.51 230.738C314.636 232.383 315.017 233.901 315.27 235.419C315.524 237.063 315.524 238.708 314.763 240.099" fill="#170856"/>
<path d="M318.934 248.448C319.061 246.804 318.934 244.147 317.666 243.768C316.399 243.388 308.413 243.894 304.356 247.057C305.751 249.587 305.624 252.117 305.624 252.117L318.934 248.448Z" fill="#F79F03"/>
<path opacity="0.2" d="M320.327 253.635L326.285 263.881L325.778 264.261C325.778 264.261 323.496 261.984 320.834 258.821L320.327 253.635Z" fill="black"/>
<path d="M297.136 270.081C298.151 275.141 299.672 281.466 301.573 289.182L329.461 285.767C329.207 282.225 325.151 266.665 326.165 249.967C326.292 247.69 324.137 245.792 321.475 245.792C320.207 245.792 318.559 245.919 317.165 246.045C313.616 246.298 308.418 246.804 305.376 247.563C301.066 248.322 297.517 249.84 297.517 249.84C297.517 249.84 295.488 252.244 296.503 263.123C296.883 265.021 297.01 267.298 297.136 270.081Z" fill="#0083F9"/>
<path d="M297.136 270.081C298.151 275.141 299.672 281.466 301.573 289.182L329.461 285.767C329.207 282.225 325.151 266.665 326.165 249.967C326.292 247.69 324.137 245.792 321.475 245.792C320.207 245.792 318.559 245.919 317.165 246.045C313.616 246.298 308.418 246.804 305.376 247.563C301.066 248.322 297.517 249.84 297.517 249.84C297.517 249.84 295.488 252.244 296.503 263.123C296.883 265.021 297.01 267.298 297.136 270.081Z" fill="#FCBE42"/>
<path d="M294.981 254.269C294.727 254.775 294.347 255.407 293.84 256.166C293.333 256.799 292.826 257.431 292.445 258.19C291.431 259.455 290.544 260.847 289.403 262.238C287.375 264.768 285.093 267.298 282.811 269.575C282.177 270.081 281.67 270.587 281.037 270.967L280.91 271.22H280.783C280.91 271.22 281.037 271.22 281.037 271.093C281.29 271.093 281.67 271.093 281.67 271.093C281.797 271.22 281.417 271.093 280.91 270.84C280.403 270.587 279.769 270.081 279.389 269.575C277.107 267.551 275.079 264.642 273.051 261.985L269.121 263.883C269.755 265.78 270.389 267.425 271.149 269.069C271.403 269.955 271.91 270.84 272.417 271.599C272.924 272.358 273.431 273.37 273.938 274.129C274.445 274.888 275.206 275.647 276.22 276.659C276.727 276.912 277.234 277.418 277.741 277.924C278.375 278.177 279.008 278.683 280.023 278.936C281.037 279.189 282.051 279.189 283.192 278.936C283.825 278.81 284.332 278.683 284.713 278.304L284.84 278.177L285.347 277.671L285.6 277.545C286.487 276.912 287.375 276.406 288.135 275.774C291.304 273.244 293.966 270.587 296.375 267.678C297.643 266.286 298.783 264.768 299.798 263.25C300.431 262.491 300.938 261.732 301.319 260.847C301.826 260.088 302.333 259.329 302.84 258.064L294.981 254.269Z" fill="#FFBE9D"/>
<path d="M273.18 261.605L270.137 257.178L266.461 262.491C266.461 262.491 269.25 265.021 271.785 264.768L273.18 261.605Z" fill="#FFBE9D"/>
<path d="M264.306 255.028L263.418 260.088L266.461 262.491L270.137 257.178L264.306 255.028Z" fill="#FFBE9D"/>
<path d="M306.516 254.774C306.39 259.834 296.122 271.219 296.122 271.219L285.22 264.135C285.22 264.135 288.77 257.684 293.079 253.003C299.925 245.919 306.897 248.702 306.516 254.774Z" fill="#F79F03"/>
<path d="M113.655 218.405L101.876 316.383L93.4615 315.541L92.2461 215.858L113.655 218.405Z" fill="#EE384E"/>
<path d="M100.816 218.405L122.927 316.383L131.364 315.541L125.568 215.858L100.816 218.405Z" fill="#DE051F"/>
<path d="M116.763 145.986C116.763 145.986 119.264 149.176 119.392 154.867C119.509 160.559 118.796 164.625 116.366 164.672C113.935 164.719 109.027 163.2 108.174 161.599C107.32 159.998 105.708 160.021 105.626 156.784C105.556 153.535 109.447 146.138 112.696 146.068C115.957 146.021 116.763 145.986 116.763 145.986Z" fill="#FFBE9B"/>
<path d="M106.858 157.17C106.858 157.17 106.134 161.237 104.591 165.339C103.06 169.429 102.289 171.076 102.289 171.076C102.289 171.076 107.291 176.651 112.141 175.739C116.99 174.828 116.92 171.579 116.92 171.579C116.92 171.579 112.374 168.026 112.269 163.153C112.164 158.292 112.164 158.292 112.164 158.292L106.858 157.17Z" fill="#FEBE9A"/>
<path d="M119.199 145.939C119.199 145.939 121.489 139.395 119.842 138.624C118.194 137.841 114.992 139.535 114.197 140.377C113.403 141.206 111.79 141.241 110.96 141.253C110.96 141.253 102.85 141.428 101.261 143.088C99.6713 144.747 99.683 145.554 99.7063 146.372C99.718 147.178 99.7881 150.357 99.0168 152.075C98.6779 152.811 98.2923 156.141 99.9868 159.367C101.681 162.569 103.329 163.352 104.135 163.34C104.942 163.328 105.69 163.305 105.736 162.487C105.807 161.611 106.099 160.372 106.473 159.227C106.835 158.14 107.209 155.966 107.209 155.966C107.209 155.966 107.933 151.899 109.511 150.228C111.089 148.557 111.1 148.569 114.326 147.681C117.563 146.781 118.439 148.393 119.199 145.939Z" fill="#160C56"/>
<path d="M108.376 152.111C109.615 153.466 108.037 155.932 108.037 155.932C108.037 155.932 105.63 156.797 105.571 154.355C105.524 151.924 107.149 150.744 108.376 152.111Z" fill="#FFBE9B"/>
<path d="M129.517 180.274L136.891 190.265C136.891 190.265 137.417 190.791 137.943 190.265C138.469 189.739 147.409 178.684 147.935 177.107C148.461 175.529 147.935 173.951 149.513 171.31C151.09 168.669 152.668 167.617 152.668 167.617C152.668 167.617 154.245 166.566 153.72 168.143C153.194 169.721 152.668 171.299 153.72 171.836C154.771 172.374 163.185 173.94 163.185 173.94C163.185 173.94 154.76 176.569 152.644 179.736C150.541 182.891 144.745 193.421 142.103 196.05C139.474 198.679 136.833 200.269 135.255 198.679C133.678 197.102 123.148 186.572 123.148 186.572L129.517 180.274Z" fill="#FFBE9B"/>
<path d="M93.4722 321.945C93.4722 321.945 93.0048 323.266 95.7393 323.254C98.4739 323.231 113.327 323.102 113.327 323.102C113.327 323.102 116.178 322.506 113.526 321.244C110.873 319.982 102.915 316.488 102.915 316.488C102.915 316.488 102.307 316.324 102.307 314.805L93.3086 314.887L93.4722 321.945Z" fill="#170856"/>
<path d="M122.484 321.945C122.484 321.945 122.016 323.266 124.751 323.254C127.486 323.231 142.339 323.102 142.339 323.102C142.339 323.102 145.19 322.506 142.537 321.244C139.885 319.994 131.926 316.488 131.926 316.488C131.926 316.488 131.319 316.324 131.319 314.805L122.32 314.887L122.484 321.945Z" fill="#170856"/>
<path d="M114.188 169.499C114.188 169.499 115.065 168.775 116.07 169.581C117.075 170.376 120.592 172.982 122.31 176.312C124.016 179.655 124.612 184.294 125.197 195.115C125.793 205.949 125.699 217.658 125.699 217.658L92.1482 218.394C92.1482 218.394 91.0848 198.691 94.2517 186.585C97.4187 174.478 102.152 170.271 103.203 169.745C104.255 169.219 105.307 170.271 105.307 170.271C105.307 170.271 109.923 174.501 114.188 169.499Z" fill="#FCBE42"/>
<path d="M162.391 409.999L148.274 344.358L143.869 323.907H88.2891L108.191 409.999" stroke="#96AABE" stroke-width="3.22958" stroke-miterlimit="10"/>
<path d="M93.1289 344.826L148.276 344.358" stroke="#96AABE" stroke-width="3.22958" stroke-miterlimit="10"/>
<path d="M97.7812 365.008L152.613 364.541" stroke="#96AABE" stroke-width="3.22958" stroke-miterlimit="10"/>
<path d="M102.562 386.392L157.207 385.924" stroke="#96AABE" stroke-width="3.22958" stroke-miterlimit="10"/>
<path d="M69.2656 410L83.3942 344.358L87.7999 323.908H143.356L123.466 410" stroke="#023E9F" stroke-width="3.22958" stroke-miterlimit="10"/>
<path d="M138.526 344.825L83.3906 344.357" stroke="#023E9F" stroke-width="3.22958" stroke-miterlimit="10"/>
<path d="M133.89 365.008L79.0469 364.541" stroke="#023E9F" stroke-width="3.22958" stroke-miterlimit="10"/>
<path d="M129.102 386.393L74.4453 385.926" stroke="#023E9F" stroke-width="3.22958" stroke-miterlimit="10"/>
<path d="M131.095 180.799C131.095 180.799 126.35 173.951 121.103 171.847C115.856 169.744 113.203 173.951 115.832 178.169C118.462 182.388 123.206 188.161 123.206 188.161L131.095 180.799Z" fill="#F79F03"/>
<path d="M354.588 358.832C354.588 358.832 357.72 357.507 357.479 354.013C357.238 350.399 355.431 347.869 359.166 348.953C363.021 350.037 364.225 350.399 366.996 349.917C369.767 349.315 372.056 348.23 370.851 351.724C369.647 355.338 368.321 358.23 371.213 358.832C374.104 359.434 377.116 357.266 377.477 362.807C377.839 368.349 373.381 374.734 366.033 374.855C358.804 375.095 355.552 372.084 355.552 372.084C355.552 372.084 353.624 369.313 356.636 368.59C359.648 367.867 362.78 366.662 361.214 365.217C359.648 363.771 354.588 363.651 354.588 363.651C354.588 363.651 348.203 362.566 354.588 358.832Z" fill="#649CE8"/>
<path d="M387.838 359.796C387.356 356.182 387.718 353.652 394.344 352.688C400.97 351.724 404.825 355.7 405.186 359.796C405.548 363.892 399.885 365.337 399.885 365.337C399.885 365.337 395.789 366.542 397.837 370.036C399.885 373.65 400.849 377.023 396.151 377.625C391.452 378.107 386.272 376.903 383.381 374.975C380.49 373.048 377.598 368.229 380.851 365.699C380.851 365.699 381.815 365.096 384.947 364.855C388.2 364.735 387.838 359.796 387.838 359.796Z" fill="#023E9F"/>
<path d="M364.586 359.194C364.586 359.194 370.128 371.602 370.85 380.035" stroke="#023E9F" stroke-width="0.926912" stroke-miterlimit="10"/>
<path d="M395.063 361.242C395.063 361.242 385.305 375.698 383.016 380.517" stroke="#649CE8" stroke-width="0.926912" stroke-miterlimit="10"/>
<path d="M367.358 379.072H389.645C389.645 379.072 392.055 379.192 391.934 382.565C391.814 385.698 387.838 384.975 385.79 384.975C383.742 384.975 366.876 384.975 366.876 384.975C366.876 384.975 364.105 385.457 364.105 382.325C364.226 379.313 365.19 379.072 367.358 379.072Z" fill="#0055A2"/>
<path d="M366.992 384.975L370.365 404.732H385.304L387.834 389.914L366.992 384.975Z" fill="#0055A2"/>
<path d="M366.992 384.975L387.834 389.914L388.677 384.975H366.992Z" fill="#016AD3"/>
<path d="M376.516 379.794C376.516 379.794 377.6 357.868 384.226 344.134" stroke="#FABC43" stroke-width="0.926912" stroke-miterlimit="10"/>
<path d="M389.648 336.304C389.648 336.304 390.13 343.051 383.624 345.701C383.624 345.701 382.179 339.918 389.648 336.304Z" fill="#FABC43"/>
<path d="M379.77 357.748C379.77 357.748 382.179 351.966 389.648 352.809C389.648 352.689 389.046 358.471 379.77 357.748Z" fill="#FABC43"/>
<path d="M377.359 372.084C377.359 372.084 378.564 365.94 386.033 365.338C386.033 365.338 386.515 371 377.359 372.084Z" fill="#FABC43"/>
<path d="M376.993 372.205C376.993 372.205 377.836 366.061 371.09 362.928C371.09 362.808 368.681 368.109 376.993 372.205Z" fill="#FABC43"/>
<path d="M379.884 357.628C379.884 357.628 381.57 351.604 375.185 347.629C375.185 347.629 372.053 352.568 379.884 357.628Z" fill="#FABC43"/>
<path d="M272.06 3L264.473 5.16774L266.64 12.7549L274.228 10.5871L272.06 3Z" fill="#FABC43"/>
<path d="M162.532 40.8607L154.945 43.0285L157.113 50.6156L164.7 48.4478L162.532 40.8607Z" fill="#023EA1"/>
<path d="M382.856 233.35C382.314 234.135 381.771 234.79 381.093 235.444L381.771 237.8L377.77 239.763L376.007 237.8C375.057 238.062 374.108 238.062 373.158 238.062L371.802 240.286L367.53 239.109L367.801 236.622C366.987 236.098 366.309 235.575 365.631 234.921L363.054 235.575L361.019 231.845L363.054 230.144C362.782 229.227 362.782 228.311 362.782 227.395L360.477 226.086L361.697 221.964L364.274 222.226C364.817 221.44 365.359 220.786 366.038 220.131L365.359 217.776L369.225 215.813L370.988 217.776C371.938 217.514 372.887 217.514 373.837 217.514L375.193 215.289L379.465 216.467L379.194 219.084C380.008 219.608 380.686 220.131 381.364 220.786L383.806 220.131L385.84 223.861L384.077 225.563C384.484 226.479 384.484 227.395 384.484 228.311L386.79 229.62L385.569 233.612L382.856 233.35ZM378.312 229.293C379.126 226.937 377.634 224.385 375.329 223.731C372.887 222.945 370.242 224.385 369.564 226.61C368.75 228.966 370.242 231.518 372.548 232.172C374.854 232.957 377.499 231.649 378.312 229.293Z" fill="#EE384E"/>
</svg>
