<svg width="450" height="367" viewBox="0 0 450 367" fill="none" xmlns="http://www.w3.org/2000/svg">
<path d="M49.2382 15.2692C49.2382 15.2692 44.1633 9.46028 48.6011 4.98771C53.0389 0.515146 62.2492 2.64903 63.5233 8.03767C64.7866 13.4263 61.6121 16.2607 65.5316 17.8989C69.4403 19.537 79.6548 25.7447 76.7826 30.9717C73.9213 36.1987 67.4536 34.9916 69.1056 42.8806C70.7576 50.7696 83.8118 55.0805 75.325 63.5622C66.8381 72.0439 48.7955 82.5086 43.3859 63.3358C37.9763 44.1631 55.0472 51.4593 47.2298 38.2464C39.4124 25.0334 47.3594 26.456 50.3611 22.4361C53.3412 18.427 49.2382 15.2692 49.2382 15.2692Z" fill="#023EA1"/>
<path d="M58.9017 24.0967C58.9017 24.0967 56.9581 44.4226 61.18 62.55C65.4018 80.6774 69.019 83.9644 69.019 83.9644" stroke="white" stroke-miterlimit="10" stroke-linecap="round" stroke-linejoin="round"/>
<path d="M5.93987 21.0569C5.93987 21.0569 19.2316 11.6807 21.985 20.2809C24.7492 28.892 28.5175 28.6333 32.4046 28.1699C36.2917 27.7065 42.8782 23.9883 45.2969 33.2244C47.7263 42.4605 45.394 48.1294 49.4539 51.147C53.5138 54.1754 65.8338 71.7963 57.7788 74.7385C49.7238 77.6699 40.0817 70.0719 36.8748 65.7933C33.6679 61.5148 26.5631 61.1915 21.1212 62.3015C15.6792 63.4116 8.50968 60.5233 10.7556 53.4534C13.0122 46.3835 9.45986 39.0549 4.4714 37.406C-0.495463 35.7571 -2.9573 27.5556 5.93987 21.0569Z" fill="#FCBE42"/>
<path d="M13.2178 29.5488L60.4354 81.8186" stroke="white" stroke-miterlimit="10" stroke-linecap="round" stroke-linejoin="round"/>
<path d="M71.4694 68.2066C71.4694 68.2066 44.8751 41.3065 34.9521 17.0361" stroke="#DE051F" stroke-miterlimit="10"/>
<path d="M31.1424 1C31.1424 1 40.3419 8.12379 36.0445 19.5369C36.0445 19.5369 27.0717 14.6764 31.1424 1Z" stroke="#DE051F" stroke-miterlimit="10"/>
<path d="M46.9495 38.3965C46.9495 38.3965 42.4577 28.6539 52.0891 20.0859C52.0891 20.0859 58.6972 27.4684 46.9495 38.3965Z" stroke="#DE051F" stroke-miterlimit="10"/>
<path d="M62.4968 58.2814C62.4968 58.2814 56.1803 49.6057 63.9545 39.3242C63.9545 39.3135 71.8798 45.2625 62.4968 58.2814Z" stroke="#DE051F" stroke-miterlimit="10"/>
<path d="M62.2397 58.6476C62.2397 58.6476 55.3833 50.3814 43.4736 55.3497C43.4844 55.3497 47.2852 64.4888 62.2397 58.6476Z" stroke="#DE051F" stroke-miterlimit="10"/>
<path d="M46.9927 38.2462C46.9927 38.2462 41.2484 29.1825 28.7988 32.5881C28.7988 32.5881 31.4118 42.1368 46.9927 38.2462Z" stroke="#DE051F" stroke-miterlimit="10"/>
<path d="M351.317 170.943C375.259 184.767 405.875 176.563 419.698 152.621C433.521 128.678 425.318 98.0629 401.375 84.2397C377.433 70.4164 346.817 78.6197 332.994 102.562C319.171 126.505 327.374 157.12 351.317 170.943Z" stroke="#DE051F" stroke-miterlimit="10" stroke-dasharray="6 6"/>
<path d="M420.406 144.892C424.451 147.228 429.624 145.842 431.96 141.796C434.295 137.751 432.909 132.578 428.864 130.243C424.818 127.907 419.646 129.293 417.31 133.338C414.975 137.384 416.361 142.556 420.406 144.892Z" fill="#003EB0"/>
<path d="M429.173 136.101L424.067 140.436L422.625 134.346L429.173 136.101Z" fill="white"/>
<path d="M381.733 267.072H55.9911C53.3721 267.072 51.2588 264.957 51.2588 262.335V39.4022C51.2588 36.7805 53.3721 34.665 55.9911 34.665H381.72C384.339 34.665 386.452 36.7805 386.452 39.4022V262.335C386.465 264.944 384.339 267.072 381.733 267.072Z" fill="#0064B7"/>
<path d="M370.491 257.338H64.1191C61.5001 257.338 59.3867 255.223 59.3867 252.601V79.5321C59.3867 76.9104 61.5001 74.7949 64.1191 74.7949H370.504C373.123 74.7949 375.236 76.9104 375.236 79.5321V252.601C375.223 255.223 373.11 257.338 370.491 257.338Z" fill="#CCE5FF"/>
<path d="M386.465 64.3859V50.3821C386.465 41.6994 379.282 34.665 370.608 34.665H67.9836C59.3098 34.665 52.127 41.6994 52.127 50.3821V64.3859H386.465Z" fill="#0064B7"/>
<path d="M72.5934 58.3092C74.1934 56.7075 74.1934 54.1108 72.5934 52.5092C70.9934 50.9076 68.3994 50.9076 66.7994 52.5092C65.1994 54.1108 65.1994 56.7075 66.7994 58.3092C68.3994 59.9108 70.9934 59.9108 72.5934 58.3092Z" fill="white"/>
<path d="M82.6088 59.6878C84.8715 59.6878 86.7058 57.8516 86.7058 55.5866C86.7058 53.3215 84.8715 51.4854 82.6088 51.4854C80.346 51.4854 78.5117 53.3215 78.5117 55.5866C78.5117 57.8516 80.346 59.6878 82.6088 59.6878Z" fill="white"/>
<path d="M94.9896 60.2591C97.2524 60.2591 99.0867 58.4229 99.0867 56.1579C99.0867 53.8928 97.2524 52.0566 94.9896 52.0566C92.7269 52.0566 90.8926 53.8928 90.8926 56.1579C90.8926 58.4229 92.7269 60.2591 94.9896 60.2591Z" fill="white"/>
<path d="M174.896 246.566H72.34C71.4843 246.566 70.7842 245.865 70.7842 245.008V87.2278C70.7842 86.3713 71.4843 85.6704 72.34 85.6704H174.896C175.752 85.6704 176.452 86.3713 176.452 87.2278V244.995C176.452 245.865 175.752 246.566 174.896 246.566Z" fill="white"/>
<path d="M165.135 107.444H81.9139C81.2195 107.444 80.6514 107.411 80.6514 107.369V99.7249C80.6514 99.6834 81.2195 99.6494 81.9139 99.6494H165.135C165.829 99.6494 166.397 99.6834 166.397 99.7249V107.368C166.397 107.411 165.829 107.444 165.135 107.444Z" fill="#EAF4FF"/>
<path d="M165.135 123.814H81.9139C81.2195 123.814 80.6514 123.78 80.6514 123.739V116.094C80.6514 116.053 81.2195 116.019 81.9139 116.019H165.135C165.829 116.019 166.397 116.053 166.397 116.094V123.738C166.397 123.78 165.829 123.814 165.135 123.814Z" fill="#EAF4FF"/>
<path d="M165.135 140.184H81.9139C81.2195 140.184 80.6514 140.15 80.6514 140.108V132.464C80.6514 132.423 81.2195 132.389 81.9139 132.389H165.135C165.829 132.389 166.397 132.423 166.397 132.464V140.108C166.397 140.15 165.829 140.184 165.135 140.184Z" fill="#EAF4FF"/>
<path d="M165.135 156.553H81.9139C81.2195 156.553 80.6514 156.519 80.6514 156.478V148.834C80.6514 148.792 81.2195 148.758 81.9139 148.758H165.135C165.829 148.758 166.397 148.792 166.397 148.834V156.477C166.397 156.519 165.829 156.553 165.135 156.553Z" fill="#EAF4FF"/>
<path d="M165.135 172.923H81.9139C81.2195 172.923 80.6514 172.89 80.6514 172.848V165.204C80.6514 165.162 81.2195 165.128 81.9139 165.128H165.135C165.829 165.128 166.397 165.162 166.397 165.204V172.847C166.397 172.89 165.829 172.923 165.135 172.923Z" fill="#EAF4FF"/>
<path d="M362.246 162.4H185.139C184.283 162.4 183.583 161.699 183.583 160.843V87.1766C183.583 86.32 184.283 85.6191 185.139 85.6191H362.246C363.101 85.6191 363.802 86.32 363.802 87.1766V160.843C363.802 161.699 363.101 162.4 362.246 162.4Z" fill="white"/>
<path d="M349.566 107.445H194.473C193.179 107.445 192.12 107.428 192.12 107.407V103.585C192.12 103.564 193.179 103.547 194.473 103.547H349.566C350.86 103.547 351.919 103.564 351.919 103.585V107.407C351.919 107.428 350.86 107.445 349.566 107.445Z" fill="#EAF4FF"/>
<path d="M349.566 119.917H194.473C193.179 119.917 192.12 119.9 192.12 119.879V116.057C192.12 116.036 193.179 116.019 194.473 116.019H349.566C350.86 116.019 351.919 116.036 351.919 116.057V119.879C351.919 119.9 350.86 119.917 349.566 119.917Z" fill="#EAF4FF"/>
<path d="M349.566 132.389H194.473C193.179 132.389 192.12 132.372 192.12 132.351V128.529C192.12 128.508 193.179 128.491 194.473 128.491H349.566C350.86 128.491 351.919 128.508 351.919 128.529V132.351C351.919 132.372 350.86 132.389 349.566 132.389Z" fill="#EAF4FF"/>
<path d="M349.566 144.861H194.473C193.179 144.861 192.12 144.844 192.12 144.824V141.002C192.12 140.981 193.179 140.964 194.473 140.964H349.566C350.86 140.964 351.919 140.981 351.919 141.002V144.823C351.919 144.844 350.86 144.861 349.566 144.861Z" fill="#EAF4FF"/>
<path d="M361.454 243.931H184.347C183.491 243.931 182.791 243.23 182.791 242.374V173.107C182.791 172.251 183.491 171.55 184.347 171.55H361.454C362.309 171.55 363.01 172.251 363.01 173.107V242.374C363.01 243.23 362.309 243.931 361.454 243.931Z" fill="white"/>
<path d="M337.761 194.75H226.548C225.62 194.75 224.86 194.733 224.86 194.712V190.89C224.86 190.869 225.62 190.852 226.548 190.852H337.761C338.689 190.852 339.448 190.869 339.448 190.89V194.712C339.448 194.733 338.689 194.75 337.761 194.75Z" fill="#EAF4FF"/>
<path d="M337.761 205.663H226.548C225.62 205.663 224.86 205.646 224.86 205.625V201.803C224.86 201.782 225.62 201.765 226.548 201.765H337.761C338.689 201.765 339.448 201.782 339.448 201.803V205.625C339.448 205.646 338.689 205.663 337.761 205.663Z" fill="#EAF4FF"/>
<path d="M337.761 216.575H226.548C225.62 216.575 224.86 216.558 224.86 216.538V212.715C224.86 212.695 225.62 212.678 226.548 212.678H337.761C338.689 212.678 339.448 212.695 339.448 212.715V216.537C339.448 216.558 338.689 216.575 337.761 216.575Z" fill="#EAF4FF"/>
<path d="M337.761 227.489H226.548C225.62 227.489 224.86 227.472 224.86 227.451V223.629C224.86 223.608 225.62 223.591 226.548 223.591H337.761C338.689 223.591 339.448 223.608 339.448 223.629V227.451C339.448 227.472 338.689 227.489 337.761 227.489Z" fill="#EAF4FF"/>
<circle cx="201.084" cy="193.58" r="8.96433" fill="#EAF4FF"/>
<path d="M184.171 310.141C184.171 310.141 166.991 311.153 174.476 312.155C181.95 313.167 192.254 313.167 195.895 312.762C199.526 312.358 187.001 310.343 184.171 310.141Z" fill="#023EA1"/>
<path d="M182.983 312.407L182.732 360.255C182.732 360.255 175.296 360.448 173.973 362.183C172.65 363.927 174.176 365.016 181.834 364.833C189.492 364.65 194.079 364.66 194.079 364.66C194.079 364.66 197.797 364.236 193.432 362.038C189.067 359.84 185.562 360.476 185.562 360.476L185.32 312.455L182.983 312.407Z" fill="#023EA1"/>
<path d="M176.22 250.986C176.22 250.986 169.141 248.471 168.359 255.064C168.359 255.064 166.553 259.854 164.738 260.712C162.932 261.58 158.451 263.228 159.552 269.426C160.653 275.624 162.381 275.238 161.676 278.843C160.971 282.458 162.7 282.843 165.211 282.92C167.722 282.998 168.436 280.646 168.436 280.646L167.731 272.636L169.383 259.768L174.733 257.647C174.733 257.647 177.485 254.196 177.717 252.856C177.949 251.536 176.22 250.986 176.22 250.986Z" fill="#170856"/>
<path d="M175.274 249.204C175.274 249.204 174.154 250.37 174.415 250.572C174.675 250.775 177.727 252.365 177.727 252.365C177.727 252.365 178.616 250.659 178.519 250.158C178.442 249.657 175.274 249.204 175.274 249.204Z" fill="#F05051"/>
<path d="M193.991 240.586C194.155 240.606 194.262 240.741 194.262 240.904C194.223 242.437 193.866 249.84 190.969 252.577C190.969 252.577 189.433 254.582 186.488 253.753C186.488 253.753 183.832 252.163 184.247 255.401C184.663 258.64 183.301 261.821 182.239 262.284C181.176 262.756 176.811 261.58 175.807 259.749C175.141 258.534 174.783 257.917 174.619 257.647C174.552 257.532 174.561 257.397 174.658 257.291C175.256 256.606 177.507 253.85 178.55 250.042C179.757 245.627 179.11 241.386 183.175 240.509C186.768 239.728 192.659 240.413 193.991 240.586Z" fill="#FFBE97"/>
<path d="M197.806 240.229C197.796 240.162 197.786 240.094 197.786 240.037C197.758 239.603 197.796 239.169 197.748 238.735C197.613 237.396 197.168 235.969 196.116 235.053C195.324 234.379 194.3 234.109 193.277 234.109C193.045 234.109 192.823 234.022 192.678 233.848C191.983 233.068 189.723 230.822 186.613 230.822C182.847 230.822 176.406 232.856 174.667 239.275C174.667 239.285 174.658 239.294 174.658 239.314C174.551 239.747 172.099 249.82 177.024 250.129C182.055 250.447 184.102 247.97 183.948 245.733C183.948 245.733 181.476 241.299 185.676 242.437C185.676 242.437 190.003 243.246 193.016 241.483C193.393 241.261 193.866 241.396 194.078 241.772C194.677 242.803 195.874 244.403 196.995 243.063C197.41 242.572 197.806 242.003 197.922 241.357C197.98 240.943 197.864 240.596 197.806 240.229Z" fill="#170856"/>
<path d="M174.591 257.359C174.591 257.359 177.043 261.301 180.549 261.263C184.045 261.224 184.267 257.6 184.267 257.6C184.267 257.6 191.394 264 191.317 268.241C191.239 272.482 189.82 271.769 189.433 273.186C189.038 274.603 191.79 289.592 191.79 289.592L192.205 290.478L172.06 293.206C172.06 293.206 171.278 289.987 170.728 288.965C170.177 287.943 167.348 261.658 167.348 261.658L168.68 260.241C168.671 260.241 171.037 257.581 174.591 257.359Z" fill="#0083F9"/>
<path d="M165.687 273.272C165.687 273.272 163.688 260.259 168.758 259.613C173.712 258.987 173.789 263.064 173.943 269.108C174.098 275.151 174.021 276.481 174.021 276.481L166.16 277.898L165.687 273.272Z" fill="#0064B7"/>
<path d="M173.787 276.53C173.913 276.511 174.029 276.598 174.038 276.723L174.454 281.706C174.425 282.468 174.56 283.162 175.265 282.882C175.661 282.728 176.153 282.487 176.771 282.14C179.012 280.887 185.81 277.59 187.925 276.559C188.302 276.376 188.582 276.048 188.727 275.653C188.959 275.026 189.509 274.091 190.774 273.735C192.744 273.185 196.124 273.262 196.202 273.503C196.279 273.744 196.675 275.383 196.52 275.932C196.366 276.482 194.714 276.01 194.714 276.01C194.714 276.01 191.643 275.46 192.513 276.559C193.015 277.195 193.729 277.282 194.241 277.234C194.444 277.214 194.55 277.484 194.386 277.61C193.961 277.937 193.208 278.342 191.962 278.516C189.683 278.834 173.565 289.35 173.565 289.35C173.565 289.35 170.417 291.779 168.611 285.35C167.23 280.443 166.545 278.699 166.293 278.14C166.236 278.014 166.313 277.87 166.448 277.851L173.787 276.53Z" fill="#FEBD96"/>
<path d="M200.576 283.538L191.373 287.336L190.398 281.581L194.145 281.359L200.576 283.538Z" fill="#FEBD96"/>
<path d="M206.882 265.185L221.436 264.327L206.332 283.316L192.416 283.788L206.882 265.185Z" fill="#09015D"/>
<path d="M206.971 281.985C206.971 281.985 206.42 278.535 207.599 277.985C208.777 277.436 209.54 278.718 209.462 279.344C209.375 280.038 207.067 282.381 207.067 282.381L206.971 281.985Z" fill="#FEBD96"/>
<path d="M192.204 290.478L220.567 301.254C220.567 301.254 224.101 301.958 224.97 311.501C225.839 321.034 226.544 352.63 226.544 352.63L226.583 353.652L219.504 353.768L215.97 320.099L199.186 299.886L185.579 291.365L192.204 290.478Z" fill="#EE384E"/>
<path d="M171.876 292.599L185.647 291.365L214.648 305.824C214.648 305.824 222.48 310.431 217.458 318.779C212.427 327.126 198.405 352.592 198.405 352.592L193.576 348.997L205.966 314.759C205.966 314.759 206.265 312.995 202.132 312.696C198.269 312.417 180.017 310.643 177.651 310.412C177.449 310.393 177.265 310.354 177.072 310.277C175.643 309.756 170.071 307.058 171.838 297.332L172.05 293.216L171.876 292.599Z" fill="#DE051F"/>
<path d="M226.583 353.642L232.744 357.025C233.063 357.199 233.401 357.324 233.758 357.382C234.425 357.478 235.584 357.797 235.584 358.751C235.584 358.751 235.738 359.85 232.754 359.618C229.77 359.387 220.335 359.464 220.335 359.464C220.335 359.464 219.118 359.194 219.311 356.486L219.504 353.777L226.583 353.642Z" fill="#130452"/>
<path d="M198.394 352.581C198.394 352.581 198.442 354.181 200.045 356.379C200.924 357.594 201.88 358.77 202.865 359.907C203.126 360.206 203.406 360.456 203.541 360.832C203.628 361.083 203.695 361.343 203.705 361.603C203.715 361.854 203.657 362.134 203.435 362.288C203.097 362.519 202.594 362.394 202.237 362.297C202.131 362.269 202.025 362.23 201.928 362.201C199.504 361.334 192.271 355.463 190.736 354.201C190.542 354.037 190.427 353.805 190.417 353.545C190.417 353.005 190.504 352.042 191.151 351.29C192.097 350.191 193.555 348.996 193.555 348.996L198.394 352.581Z" fill="#130452"/>
<path d="M110.072 292.108C110.098 292.108 110.124 292.108 110.15 292.108L142.032 292.082C142.823 292.082 143.458 291.446 143.458 290.654C143.458 289.862 142.81 289.213 142.032 289.226L110.15 289.252C109.359 289.252 108.724 289.888 108.724 290.68C108.711 291.446 109.307 292.069 110.072 292.108Z" fill="url(#paint0_linear_2882_13423)"/>
<path d="M154.363 260.855C154.35 260.881 154.337 260.894 154.324 260.92L140.905 289.862C140.568 290.576 140.879 291.433 141.592 291.757C142.305 292.095 143.161 291.783 143.485 291.056L156.904 262.114C157.241 261.4 156.93 260.544 156.217 260.219C155.53 259.908 154.713 260.193 154.363 260.855Z" fill="url(#paint1_linear_2882_13423)"/>
<path d="M130.426 295.949C130.31 296.533 118.783 347.072 115.853 359.894C115.516 361.374 116.735 362.737 118.317 362.659C119.419 362.607 120.339 361.841 120.56 360.803L134.977 295.599L130.426 295.949Z" fill="#023EA1"/>
<path d="M101.956 362.308C96.4073 362.308 93.9439 361.828 92.8418 361.4C93.0492 362.308 93.8661 363.035 94.8903 363.035H114.546C115.207 363.035 115.622 362.399 115.466 361.828C113.236 361.997 108.478 362.308 101.956 362.308Z" fill="url(#paint2_linear_2882_13423)"/>
<path d="M115.467 361.816C115.441 361.699 115.389 361.582 115.311 361.478C113.82 359.57 110.812 356.559 106.715 356.624C100.725 356.715 98.5609 358.367 93.9063 357.666L92.8812 360.31C92.7645 360.686 92.7645 361.05 92.8423 361.4C93.9444 361.841 96.3948 362.309 101.957 362.309C108.479 362.309 113.237 361.997 115.467 361.816Z" fill="#170856"/>
<path d="M95.3289 352.731L93.9805 357.325C93.9805 357.325 96.9625 358.688 99.5945 357.598L100.113 353.626L95.3289 352.731Z" fill="url(#paint3_linear_2882_13423)"/>
<path d="M136.054 359.415C131.724 362.893 129.507 364.074 128.379 364.425C129.118 364.996 130.194 365.048 130.998 364.412L146.31 352.095C146.829 351.68 146.751 350.927 146.271 350.577C144.65 352.108 141.137 355.327 136.054 359.415Z" fill="url(#paint4_linear_2882_13423)"/>
<path d="M146.284 350.564C146.193 350.499 146.077 350.434 145.947 350.408C143.587 349.863 139.374 349.422 136.223 352.03C131.607 355.859 130.376 357.663 126.317 360.051L127.731 363.568C127.873 363.932 128.107 364.217 128.379 364.438C129.507 364.087 131.724 362.919 136.054 359.428C141.137 355.327 144.65 352.108 146.284 350.564Z" fill="#170856"/>
<path d="M66.4808 300.439C66.4808 300.439 99.7369 303.152 106.557 306.371C113.376 309.589 99.7497 357.666 99.7497 357.666C99.7497 357.666 98.0394 358.951 93.9034 357.666C93.9034 357.666 99.2443 320.997 96.0937 313.794L60.0889 307.902L66.4808 300.439Z" fill="#DE051F"/>
<path d="M81.4997 240.563C81.4997 240.563 80.0858 244.597 77.8288 248.522C75.5718 252.447 74.5073 253.984 74.5073 253.984C74.5073 253.984 78.7103 260.498 83.8609 260.367C88.9929 260.243 85.329 258.279 85.329 258.279C85.329 258.279 85.3725 252.537 86.0702 247.551C86.7678 242.565 86.7666 242.573 86.7666 242.573L81.4997 240.563Z" fill="#FFB48F"/>
<path d="M93.5473 230.809C93.5473 230.809 95.5904 234.484 94.7758 240.305C93.9625 246.117 92.5473 250.16 90.0305 249.808C87.5136 249.456 82.7212 247.091 82.1206 245.312C81.5199 243.534 79.8449 243.299 80.3088 239.984C80.7727 236.668 86.003 229.771 89.3617 230.241C92.7118 230.709 93.5473 230.809 93.5473 230.809Z" fill="#FFBF99"/>
<path d="M96.054 231.159C96.054 231.159 99.4912 224.871 97.9343 223.793C96.3749 222.732 92.8023 223.918 91.8435 224.635C90.8947 225.345 89.2197 225.111 88.3778 224.993C88.3778 224.993 80.0028 223.821 78.0952 225.249C76.1877 226.676 76.072 227.503 75.9551 228.338C75.8394 229.165 75.3741 232.427 74.3086 234.034C73.8479 234.734 72.8946 238.068 74.0947 241.634C75.2959 245.191 76.8639 246.253 77.697 246.37C78.5302 246.487 79.2853 246.592 79.4877 245.778C79.7085 244.896 80.2154 243.676 80.786 242.57C81.3407 241.515 82.0843 239.363 82.0843 239.363C82.0843 239.363 83.4982 235.329 85.4058 233.901C87.3134 232.474 87.3134 232.474 90.7704 232.115C94.2609 231.769 94.8726 233.531 96.054 231.159Z" fill="#170856"/>
<path d="M83.9139 235.651C84.9574 237.237 82.9341 239.491 82.9341 239.491C82.9341 239.491 80.3103 239.967 80.6585 237.478C81.0067 234.989 82.863 234.055 83.9139 235.651Z" fill="#FFBF99"/>
<path d="M123.011 353.717C123.322 354.002 126.317 360.05 126.317 360.05C126.317 360.05 129.649 359.323 130.336 357.221L127.341 351.757L123.011 353.717Z" fill="url(#paint5_linear_2882_13423)"/>
<path d="M46.4502 300.154C46.4502 300.154 45.3611 302.763 45.4129 306.228C45.4778 311.03 49.3285 314.924 54.1127 315.157L93.4237 316.949C94.2534 316.987 94.9536 317.559 95.161 318.363C96.0816 321.945 100.606 332.925 122.674 354.846C123.257 355.43 125.943 360.836 126.644 360.394L130.931 358.056C131.255 357.848 128.456 352.471 128.249 352.133L105.365 313.003C104.159 311.017 102.227 309.577 99.9841 309.006L66.4816 300.427L46.4502 300.154Z" fill="#EE384E"/>
<path d="M45.7363 300.439C45.7363 300.439 56.355 303.022 66.4809 300.439C66.4809 300.439 80.6521 281.361 86.1364 276.17C86.1364 276.17 94.888 289.992 114.349 291.939L115.438 289.512C115.438 289.512 99.9445 282.36 95.1603 271.368C90.389 260.375 88.4702 255.689 84.1268 252.821C81.417 251.03 79.8093 249.81 78.9666 249.148C78.5128 248.785 77.8775 248.746 77.3718 249.044C72.7821 251.861 51.104 266.734 45.7363 300.439Z" fill="#0083F9"/>
<path d="M85.5662 276.261C85.2551 276.261 84.9439 276.118 84.7494 275.858C81.3395 271.407 79.4336 266.501 79.3558 266.293C79.1484 265.761 79.4207 265.164 79.9522 264.956C80.4838 264.749 81.0802 265.021 81.2877 265.553C81.3006 265.605 83.1676 270.394 86.383 274.6C86.7331 275.054 86.6424 275.703 86.1886 276.053C86.0071 276.183 85.7866 276.261 85.5662 276.261Z" fill="#0064B7"/>
<path d="M113.184 288.253L115.375 287.669L122.026 286.125C122.83 285.943 123.673 286.086 124.36 286.514L130.077 290.122L114.273 290.096L113.184 288.253Z" fill="url(#paint6_linear_2882_13423)"/>
<path d="M215.596 295.858C215.712 296.442 227.239 346.981 230.169 359.804C230.506 361.283 229.287 362.646 227.705 362.568C226.603 362.516 225.683 361.75 225.462 360.712L211.045 295.508L215.596 295.858Z" fill="#023EA1"/>
<path d="M59.0261 360.844H62.2285L62.2285 323.427H59.0261L59.0261 360.844Z" fill="#023EA1"/>
<path d="M46.6182 361.516H74.6493V359.751C74.6493 359.582 74.5067 359.439 74.3381 359.439H46.9293C46.7608 359.439 46.6182 359.582 46.6182 359.751V361.516Z" fill="#023EA1"/>
<path d="M42.4561 321.348C42.4561 323.242 43.9989 324.787 45.8919 324.787H74.2601C76.153 324.787 77.6959 323.242 77.6959 321.348V318.233C77.6959 316.338 76.153 314.793 74.2601 314.793H45.8919C43.9989 314.793 42.4561 316.338 42.4561 318.233V321.348Z" fill="#023EA1"/>
<path d="M122.115 294.911C121.972 295.521 107.879 348.396 104.314 361.803C103.899 363.347 105.053 364.866 106.634 364.866C107.737 364.866 108.696 364.1 108.968 363.023L126.692 294.794L122.115 294.911Z" fill="#023EA1"/>
<path d="M224.62 296.287C224.762 296.897 238.856 349.771 242.421 363.178C242.836 364.723 241.682 366.241 240.1 366.241C238.998 366.241 238.039 365.475 237.766 364.398L220.613 296.287H224.62Z" fill="#023EA1"/>
<path d="M104.042 291.497H245.675C247.659 291.497 249.81 291.838 250.302 292.513L251.86 295.326C251.86 296.702 250.485 297.234 247.633 297.221L102.304 296.922C99.4908 296.922 97.4293 295.988 98.1164 295.027L99.8408 292.639C100.321 291.964 102.045 291.497 104.042 291.497Z" fill="#1047A2"/>
<path d="M330.408 260.941C330.408 260.941 333.932 309.741 334.438 318.395C334.952 327.049 336.804 356.201 336.804 356.201H345.461L351.303 260.407L330.408 260.941Z" fill="#DE051F"/>
<path d="M362.978 261.452C362.978 261.452 361.958 286.038 361.501 292.271C361.052 298.505 365.988 319.82 368.803 329.292C371.626 338.772 375.6 349.264 375.6 349.264L368.803 353.15C368.803 353.15 354.125 327.066 348.863 311.676C343.608 296.287 339.692 273.255 340.337 260.278L362.978 261.452Z" fill="#EE384E"/>
<path d="M326.141 226.535L319.54 235.246C319.54 235.246 319.026 235.942 317.802 235.627C316.587 235.311 303.883 230.729 303.883 230.729C303.883 230.729 302.113 229.944 301.639 228.543C301.174 227.143 300.954 226.803 300.677 226.422C300.399 226.042 299.991 226.09 300.228 225.151C300.465 224.22 300.595 223.832 300.595 223.832C300.595 223.832 300.872 223.176 300.318 223.176C299.763 223.176 299.167 223.305 298.857 223.945C298.563 224.584 298.637 226.131 298.637 226.131L295.92 226.236C295.92 226.236 294.256 226.293 294.256 228.017C294.256 229.741 294.256 232.623 294.256 232.623C294.256 232.623 294.019 233.522 295.235 233.522C296.45 233.522 297.731 233.481 297.731 233.481C297.731 233.481 298.751 233.376 300.424 234.582C302.096 235.789 314.824 243.018 314.824 243.018C314.824 243.018 319.222 245.625 322.11 242.888C324.999 240.152 331.338 233.384 331.338 233.384L331.656 231.239L326.141 226.535Z" fill="#FFBF99"/>
<path d="M347.387 203.205C347.387 203.205 348.17 207.107 349.745 211.017C351.319 214.927 352.103 216.482 352.103 216.482C352.103 216.482 347.387 221.946 342.654 221.161C337.939 220.384 337.939 217.259 337.939 217.259C337.939 217.259 342.271 213.745 342.271 209.058C342.271 204.371 342.271 204.379 342.271 204.379L347.387 203.205Z" fill="#FFB48F"/>
<path d="M336.975 216.361C336.975 216.361 333.058 218.522 331.435 219.89C329.803 221.259 325.095 226.634 325.095 226.634L331.541 232.843L336.028 227.792L336.975 216.361Z" fill="#F79F03"/>
<path d="M350.112 214.53C350.112 214.53 347.754 217.654 344.604 218.432C341.455 219.209 339.888 216.869 339.888 216.869L339.024 215.752C339.024 215.752 338.151 215.072 337.188 215.873C336.225 216.659 334.389 218.683 332.798 221.953C331.199 225.216 330.734 229.684 330.4 240.12C330.065 250.555 330.4 261.816 330.4 261.816H362.946L363.329 245.6C363.329 245.6 359.87 224.034 356.467 219.646C353.065 215.258 352.078 214.303 352.078 214.303C352.078 214.303 351.295 213.234 350.112 214.53Z" fill="#FCBE42"/>
<path d="M337.538 192.656C337.538 192.656 335.18 195.781 335.18 201.254C335.18 206.718 335.963 210.628 338.329 210.628C340.695 210.628 345.419 209.066 346.203 207.503C346.986 205.941 348.561 205.941 348.561 202.824C348.561 199.707 344.628 192.672 341.47 192.672C338.321 192.672 337.538 192.656 337.538 192.656Z" fill="#FFBF99"/>
<path d="M335.181 192.657C335.181 192.657 332.823 186.415 334.398 185.622C335.973 184.845 339.114 186.399 339.905 187.184C340.688 187.962 342.263 187.962 343.055 187.962C343.055 187.962 350.928 187.962 352.503 189.524C354.077 191.086 354.077 191.864 354.077 192.649C354.077 193.426 354.085 196.494 354.861 198.113C355.195 198.818 355.644 202.015 354.077 205.148C352.511 208.273 350.928 209.05 350.145 209.05C349.361 209.05 348.652 209.05 348.57 208.273C348.48 207.431 348.17 206.241 347.787 205.148C347.411 204.104 347.003 202.023 347.003 202.023C347.003 202.023 346.22 198.121 344.645 196.559C343.071 194.997 343.071 194.997 339.93 194.219C336.756 193.45 335.964 194.997 335.181 192.657Z" fill="#170856"/>
<path d="M345.795 198.364C344.628 199.692 346.203 202.032 346.203 202.032C346.203 202.032 348.561 202.809 348.561 200.469C348.561 198.13 346.97 197.029 345.795 198.364Z" fill="#FFBF99"/>
<path d="M361.56 231.231C361.56 231.231 364.514 242.509 363.999 249.576C363.485 256.635 361.372 262.755 359.838 267.014C358.305 271.272 357.399 272.292 357.342 274.972C357.285 277.651 356.02 280.825 354.453 282.419C352.887 284.014 351.63 284.808 351.63 284.808C351.63 284.808 349.77 285.666 350.064 283.949C350.064 283.949 348.816 284.047 349.289 283.091C349.289 283.091 347.624 283.124 348.84 281.82C350.056 280.509 352.3 279.246 352.3 279.246C352.3 279.246 353.58 277.214 351.753 278.234C349.925 279.246 348.326 279.286 350.015 277.635C351.712 275.983 353.67 273.093 355.106 267.807C356.542 262.529 358.247 252.094 356.216 244.079C354.184 236.064 351.614 233.393 351.614 233.393L361.56 231.231Z" fill="#FFBF99"/>
<path d="M368.518 352.623C368.518 352.623 366.951 356.986 365.214 358.994C363.476 361.002 362.105 362.467 362.105 362.467C362.105 362.467 360.082 365.681 362.366 364.726C364.642 363.771 377.24 355.375 377.24 355.375C377.24 355.375 379.035 354.453 378.203 352.931C377.37 351.409 375.257 348.462 375.257 348.462L368.518 352.623Z" fill="#170856"/>
<path d="M345.38 362.363C345.38 362.363 345.845 363.634 343.201 363.634C340.558 363.634 326.141 363.634 326.141 363.634C326.141 363.634 323.367 363.084 325.92 361.853C328.491 360.623 336.176 357.19 336.176 357.19C336.176 357.19 336.764 357.037 336.747 355.571H345.478L345.38 362.363Z" fill="#170856"/>
<path d="M349.23 223.718C349.23 223.718 348.675 218.48 352.518 217.978C356.361 217.476 358.8 222.56 360.081 225.863C361.362 229.166 362.007 231.587 362.007 231.587C362.007 231.587 353.742 234.89 351.563 234.89C351.555 234.89 349.719 229.401 349.23 223.718Z" fill="#F79F03"/>
<path d="M250.676 323.319C250.676 323.319 253.364 322.224 253.165 319.143C252.966 316.063 251.375 313.879 254.661 314.769C257.946 315.666 259.051 316.063 261.437 315.563C263.824 315.063 265.805 314.07 264.767 317.151C263.728 320.231 262.594 322.812 265.054 323.312C267.507 323.812 270.144 321.952 270.46 326.775C270.777 331.598 266.881 337.023 260.575 337.222C254.27 337.42 251.486 334.81 251.486 334.81C251.486 334.81 249.792 332.428 252.429 331.847C255.066 331.259 257.754 330.149 256.406 328.914C255.066 327.686 250.683 327.583 250.683 327.583C250.683 327.583 245.203 326.495 250.676 323.319Z" fill="#649EEA"/>
<path d="M279.49 324.113C279.048 321.04 279.387 318.827 285.11 317.989C290.834 317.151 294.17 320.584 294.517 324.113C294.863 327.642 289.891 328.921 289.891 328.921C289.891 328.921 286.355 329.929 288.153 333.009C289.95 336.09 290.76 339.067 286.694 339.516C282.628 339.964 278.179 338.891 275.704 337.244C273.229 335.597 270.688 331.421 273.524 329.238C273.524 329.238 274.319 328.694 277.059 328.539C279.785 328.385 279.49 324.113 279.49 324.113Z" fill="#023EA1"/>
<path d="M259.353 323.613C259.353 323.613 264.104 334.339 264.752 341.64" stroke="#023EA1" stroke-miterlimit="10"/>
<path d="M285.774 325.377C285.774 325.377 277.362 337.847 275.373 342.015" stroke="#649EEA" stroke-miterlimit="10"/>
<path d="M261.82 340.802H281.126C281.126 340.802 283.24 340.949 283.063 343.831C282.901 346.485 279.528 345.912 277.789 345.912C276.051 345.912 261.4 345.912 261.4 345.912C261.4 345.912 259.028 346.316 259.028 343.633C259.028 340.949 259.927 340.802 261.82 340.802Z" fill="#0054A5"/>
<path d="M261.408 345.913L264.332 362.94H277.296L279.491 350.163L261.43 345.913H261.408Z" fill="#0054A5"/>
<path d="M261.431 345.913L279.492 350.163L280.221 345.913H261.431Z" fill="#006AD5"/>
<path d="M269.733 341.449C269.733 341.449 270.713 322.555 276.355 310.703" stroke="#FCBE42" stroke-miterlimit="10"/>
<path d="M280.996 303.88C280.996 303.88 281.46 309.681 275.788 311.946C275.788 311.946 274.565 306.99 280.996 303.88Z" fill="#FCBE42"/>
<path d="M272.488 322.342C272.488 322.342 274.58 317.394 281.003 318.056C281.011 318.056 280.51 322.981 272.488 322.342Z" fill="#FCBE42"/>
<path d="M270.374 334.788C270.374 334.788 271.457 329.524 277.887 328.921C277.887 328.921 278.366 333.855 270.374 334.788Z" fill="#FCBE42"/>
<path d="M270.152 334.818C270.152 334.818 270.896 329.502 265.04 326.782C265.04 326.782 262.941 331.274 270.152 334.818Z" fill="#FCBE42"/>
<path d="M272.56 322.305C272.56 322.305 273.981 317.122 268.516 313.681C268.508 313.681 265.857 317.872 272.56 322.305Z" fill="#FCBE42"/>
<rect x="29.9658" y="229.513" width="7.79507" height="7.79507" transform="rotate(45 29.9658 229.513)" fill="#EE384E"/>
<rect x="312.222" y="284.393" width="7.79507" height="7.79507" transform="rotate(45 312.222 284.393)" fill="#023EA1"/>
<defs>
<linearGradient id="paint0_linear_2882_13423" x1="130.364" y1="203.874" x2="127.56" y2="260.568" gradientUnits="userSpaceOnUse">
<stop stop-color="#09005D"/>
<stop offset="1" stop-color="#1A0F91"/>
</linearGradient>
<linearGradient id="paint1_linear_2882_13423" x1="74.4376" y1="236.739" x2="24.2421" y2="210.335" gradientUnits="userSpaceOnUse">
<stop stop-color="#09005D"/>
<stop offset="1" stop-color="#1A0F91"/>
</linearGradient>
<linearGradient id="paint2_linear_2882_13423" x1="92.8478" y1="362.211" x2="115.505" y2="362.211" gradientUnits="userSpaceOnUse">
<stop stop-color="#09005D"/>
<stop offset="1" stop-color="#1A0F91"/>
</linearGradient>
<linearGradient id="paint3_linear_2882_13423" x1="93.9773" y1="355.377" x2="100.108" y2="355.377" gradientUnits="userSpaceOnUse">
<stop stop-color="#FEBBBA"/>
<stop offset="1" stop-color="#FF928E"/>
</linearGradient>
<linearGradient id="paint4_linear_2882_13423" x1="128.383" y1="357.717" x2="146.676" y2="357.717" gradientUnits="userSpaceOnUse">
<stop stop-color="#09005D"/>
<stop offset="1" stop-color="#1A0F91"/>
</linearGradient>
<linearGradient id="paint5_linear_2882_13423" x1="123.014" y1="355.893" x2="130.333" y2="355.893" gradientUnits="userSpaceOnUse">
<stop stop-color="#FEBBBA"/>
<stop offset="1" stop-color="#FF928E"/>
</linearGradient>
<linearGradient id="paint6_linear_2882_13423" x1="113.188" y1="288.079" x2="130.093" y2="288.079" gradientUnits="userSpaceOnUse">
<stop stop-color="#FEBBBA"/>
<stop offset="1" stop-color="#FF928E"/>
</linearGradient>
</defs>
</svg>
