<svg width="500" height="370" viewBox="0 0 500 370" fill="none" xmlns="http://www.w3.org/2000/svg">
<path d="M353.148 20.7107C353.148 20.7107 367.266 30.5198 359.701 36.3693C352.135 42.2188 353.75 45.8818 355.611 49.5764C357.471 53.271 363.549 58.4586 355.241 64.2019C346.922 69.9429 340.449 69.693 338.898 74.812C337.345 79.9401 324.264 98.5366 318.432 91.6082C312.603 84.6706 316.685 72.3577 319.796 67.6252C322.897 62.8905 320.66 55.7228 317.595 50.7168C314.53 45.7109 314.818 37.5519 322.671 37.2279C330.524 36.9038 336.532 30.7367 336.366 25.1926C336.196 19.6279 343.467 14.2215 353.148 20.7107Z" fill="#023EA1"/>
<path d="M347.318 31.003L312.351 96.7831" stroke="white" stroke-miterlimit="10" stroke-linecap="round" stroke-linejoin="round"/>
<path d="M350.449 55.3954L333.108 57.7323L324.563 43.08" stroke="white" stroke-miterlimit="10" stroke-linecap="round" stroke-linejoin="round"/>
<path d="M296.925 22.4138C296.925 22.4138 298.797 14.2675 292.265 12.2498C285.739 10.2436 278.026 17.0014 279.582 22.7925C281.133 28.6019 285.615 29.693 282.727 33.2532C279.838 36.8135 273.261 47.9921 278.689 51.5186C284.106 55.052 289.654 50.5826 292.121 58.9857C294.579 67.3866 284.327 78.1809 296.786 81.9492C309.245 85.7175 331.839 86.5132 327.174 65.4001C322.518 44.2894 309.947 60.0025 310.65 43.3654C311.343 26.726 304.476 32.1544 299.557 29.8352C294.634 27.5344 296.925 22.4138 296.925 22.4138Z" fill="#EE384E"/>
<path d="M292.225 35.801C292.225 35.801 304.493 54.2586 309.76 73.7675C315.027 93.2765 313.245 98.2699 313.245 98.2699" stroke="white" stroke-miterlimit="10" stroke-linecap="round" stroke-linejoin="round"/>
<path d="M330.441 75.8747C330.441 75.8747 317.84 43.1532 318.421 18.8303" stroke="#FCBE42" stroke-miterlimit="10"/>
<path d="M321.126 3.78079C321.126 3.78079 326.292 13.2421 318.41 21.3509C318.408 21.36 312.602 13.8927 321.126 3.78079Z" stroke="#FCBE42" stroke-miterlimit="10"/>
<path d="M320.671 41.4382C320.671 41.4382 320.468 31.4825 331.831 27.7619C331.831 27.7619 334.705 36.4898 320.671 41.4382Z" stroke="#FCBE42" stroke-miterlimit="10"/>
<path d="M326.491 64.1059C326.491 64.1059 324.349 54.3905 334.765 48.5166C334.765 48.5166 339.293 56.5048 326.491 64.1059Z" stroke="#FCBE42" stroke-miterlimit="10"/>
<path d="M326.143 64.3291C326.143 64.3291 323.39 54.7641 311.436 54.5786C311.438 54.5694 311.283 63.7646 326.143 64.3291Z" stroke="#FCBE42" stroke-miterlimit="10"/>
<path d="M320.758 41.3243C320.758 41.3243 319.241 31.4815 307.411 29.7778C307.42 29.78 306.086 38.8585 320.758 41.3243Z" stroke="#FCBE42" stroke-miterlimit="10"/>
<path d="M94.9491 73.9999C94.9491 73.9999 103.287 58.9659 109.869 65.9044C116.45 72.8429 119.932 70.8672 123.42 68.644C126.909 66.4209 131.458 59.8513 138.009 67.5398C144.558 75.2378 144.961 81.7037 150.21 82.731C155.469 83.7597 175.288 94.9019 168.981 101.402C162.666 107.9 150.005 105.078 144.983 102.46C139.96 99.8506 133.054 102.798 128.382 106.351C123.71 109.905 115.564 110.44 114.451 102.66C113.338 94.8795 106.597 89.5227 101.098 90.2454C95.5785 90.9749 89.4676 84.2851 94.9491 73.9999Z" fill="#023EA1"/>
<path d="M105.777 78.7642L174.743 106.932" stroke="white" stroke-miterlimit="10" stroke-linecap="round" stroke-linejoin="round"/>
<path d="M129.73 73.193L133.8 90.2111L120.083 100.188" stroke="white" stroke-miterlimit="10" stroke-linecap="round" stroke-linejoin="round"/>
<path d="M102.303 129.765C102.303 129.765 94.0099 128.723 92.6601 135.425C91.3211 142.119 98.8211 149.113 104.426 146.982C110.05 144.854 110.684 140.284 114.517 142.8C118.35 145.315 130.134 150.734 133.096 144.978C136.066 139.233 131.061 134.163 139.173 130.863C147.284 127.572 159.055 136.685 161.55 123.91C164.045 111.135 162.562 88.5749 142.026 95.3421C121.491 102.1 138.39 113.025 121.767 114.001C105.142 114.986 111.234 121.272 109.422 126.399C107.629 131.529 102.303 129.765 102.303 129.765Z" fill="#EE384E"/>
<path d="M116.095 133.093C116.095 133.093 133.224 119.029 152.104 111.824C170.983 104.62 176.131 105.89 176.131 105.89" stroke="white" stroke-miterlimit="10" stroke-linecap="round" stroke-linejoin="round"/>
<path d="M152.12 91.0359C152.12 91.0359 120.833 106.867 96.5753 108.738" stroke="#FCBE42" stroke-miterlimit="10"/>
<path d="M81.3296 107.562C81.3296 107.562 90.2228 101.47 99.0838 108.495C99.0932 108.497 92.2483 115.025 81.3296 107.562Z" stroke="#FCBE42" stroke-miterlimit="10"/>
<path d="M118.841 104.224C118.841 104.224 108.956 105.427 104.11 94.4966C104.11 94.4966 112.505 90.7591 118.841 104.224Z" stroke="#FCBE42" stroke-miterlimit="10"/>
<path d="M140.809 96.151C140.809 96.151 131.359 99.2599 124.466 89.4882C124.466 89.4882 131.958 84.1797 140.809 96.151Z" stroke="#FCBE42" stroke-miterlimit="10"/>
<path d="M141.066 96.4744C141.066 96.4744 131.827 100.177 132.845 112.089C132.836 112.087 142 111.315 141.066 96.4744Z" stroke="#FCBE42" stroke-miterlimit="10"/>
<path d="M118.721 104.148C118.721 104.148 109.08 106.648 108.576 118.59C108.578 118.58 117.744 118.993 118.721 104.148Z" stroke="#FCBE42" stroke-miterlimit="10"/>
<path d="M392.13 206.179C417.927 213.091 444.443 197.782 451.355 171.985C458.267 146.189 442.958 119.673 417.161 112.76C391.365 105.848 364.849 121.157 357.936 146.954C351.024 172.751 366.333 199.267 392.13 206.179Z" stroke="#DE051F" stroke-miterlimit="10" stroke-dasharray="6 6"/>
<path d="M450.085 164.596C454.443 165.764 458.923 163.178 460.091 158.819C461.259 154.461 458.672 149.98 454.314 148.813C449.955 147.645 445.475 150.231 444.307 154.59C443.139 158.948 445.726 163.429 450.085 164.596Z" fill="#003EB0"/>
<path d="M456.066 154.202L452.387 159.524L449.518 154.202L456.066 154.202Z" fill="white"/>
<rect x="135.018" y="64.2987" width="284.789" height="190.809" fill="#0064B7"/>
<rect x="148.308" y="72.8424" width="258.209" height="167.076" fill="#E2EFFE"/>
<rect x="159.698" y="113.662" width="18.986" height="16.1381" rx="2" fill="white"/>
<rect x="185.329" y="114.612" width="16.1381" height="0.949298" fill="white"/>
<rect x="185.329" y="142.141" width="16.1381" height="0.949298" fill="white"/>
<rect x="185.329" y="119.358" width="30.3775" height="0.949298" fill="white"/>
<rect x="185.329" y="146.888" width="30.3775" height="0.949298" fill="white"/>
<rect x="185.329" y="124.104" width="30.3775" height="0.949298" fill="white"/>
<rect x="185.329" y="151.634" width="30.3775" height="0.949298" fill="white"/>
<rect x="185.329" y="128.851" width="30.3775" height="0.949298" fill="white"/>
<rect x="185.329" y="156.381" width="30.3775" height="0.949298" fill="white"/>
<rect x="344.812" y="113.662" width="18.986" height="16.1381" rx="2" fill="white"/>
<rect x="370.442" y="114.612" width="13.2902" height="0.949298" fill="white"/>
<rect x="370.442" y="119.358" width="24.6818" height="0.949298" fill="white"/>
<rect x="370.442" y="124.104" width="24.6818" height="0.949298" fill="white"/>
<rect x="370.442" y="128.851" width="24.6818" height="0.949298" fill="white"/>
<rect x="344.812" y="141.192" width="18.986" height="16.1381" rx="2" fill="white"/>
<rect x="370.442" y="142.141" width="13.2902" height="0.949298" fill="white"/>
<rect x="370.442" y="146.888" width="24.6818" height="0.949298" fill="white"/>
<rect x="370.442" y="151.634" width="24.6818" height="0.949298" fill="white"/>
<rect x="370.442" y="156.381" width="24.6818" height="0.949298" fill="white"/>
<rect x="159.698" y="142.141" width="18.986" height="16.1381" rx="2" fill="white"/>
<rect x="159.698" y="170.62" width="18.986" height="16.1381" rx="2" fill="white"/>
<rect x="185.329" y="171.569" width="13.2902" height="0.949298" fill="white"/>
<rect x="185.329" y="176.316" width="24.6818" height="0.949298" fill="white"/>
<rect x="185.329" y="181.062" width="24.6818" height="0.949298" fill="white"/>
<rect x="185.329" y="185.809" width="24.6818" height="0.949298" fill="white"/>
<rect x="159.698" y="199.099" width="18.986" height="16.1381" rx="2" fill="white"/>
<rect x="185.329" y="200.048" width="13.2902" height="0.949298" fill="white"/>
<rect x="185.329" y="204.795" width="24.6818" height="0.949298" fill="white"/>
<rect x="185.329" y="209.541" width="24.6818" height="0.949298" fill="white"/>
<rect x="185.329" y="214.288" width="24.6818" height="0.949298" fill="white"/>
<rect x="239.44" y="83.2847" width="75.9439" height="2.84789" rx="1.42395" fill="white"/>
<rect x="217.606" y="91.8283" width="120.561" height="2.84789" rx="1.42395" fill="white"/>
<rect x="274.564" y="117.459" width="52.2114" height="42.7184" rx="3" fill="white"/>
<path d="M300.886 126.003C301.435 126.056 301.99 126.082 302.54 126.161C306.36 126.72 309.414 128.532 311.709 131.572C311.785 131.672 311.855 131.772 311.957 131.915C312.086 131.435 312.2 130.987 312.334 130.55C312.517 129.955 313.126 129.649 313.713 129.849C314.225 130.023 314.543 130.545 314.408 131.061C314.08 132.336 313.746 133.606 313.401 134.87C313.245 135.45 312.684 135.761 312.081 135.613C310.761 135.286 309.447 134.955 308.132 134.612C307.534 134.454 307.205 133.885 307.356 133.327C307.507 132.773 308.057 132.447 308.644 132.578C309.086 132.673 309.527 132.794 310.039 132.921C309.948 132.794 309.899 132.721 309.845 132.647C307.938 130.197 305.428 128.706 302.314 128.269C296.829 127.494 291.797 130.481 289.896 135.587C289.691 136.129 289.281 136.424 288.775 136.388C288.285 136.351 287.881 136.024 287.805 135.55C287.773 135.339 287.8 135.092 287.881 134.886C289.653 130.313 292.972 127.436 297.853 126.33C298.607 126.161 299.394 126.135 300.164 126.04C300.261 126.029 300.358 126.014 300.455 126.003C300.6 126.003 300.74 126.003 300.886 126.003Z" fill="#EB3B52"/>
<path d="M286.905 147.562C287.137 146.709 287.374 145.861 287.606 145.007C287.713 144.601 287.816 144.196 287.929 143.79C288.101 143.179 288.645 142.852 289.27 143.01C290.579 143.332 291.889 143.664 293.192 144.006C293.807 144.164 294.141 144.723 293.99 145.297C293.844 145.855 293.284 146.177 292.67 146.04C292.233 145.945 291.808 145.824 291.301 145.697C291.388 145.824 291.431 145.897 291.485 145.966C293.295 148.3 295.671 149.775 298.617 150.286C304.231 151.266 309.484 148.274 311.44 143.026C311.639 142.489 312.043 142.194 312.533 142.22C313.029 142.246 313.449 142.573 313.535 143.058C313.568 143.253 313.551 143.484 313.481 143.674C311.607 148.49 308.11 151.514 302.906 152.378C297.993 153.195 293.817 151.635 290.445 148.047C290.062 147.641 289.739 147.188 289.373 146.73C289.249 147.188 289.136 147.636 289.006 148.073C288.888 148.469 288.608 148.716 288.204 148.8C287.805 148.885 287.455 148.769 287.185 148.469C287.067 148.347 286.997 148.184 286.905 148.037C286.905 147.878 286.905 147.72 286.905 147.562Z" fill="#EB3B52"/>
<rect x="395.126" y="31.0732" width="0.949298" height="34.1747" fill="#0064B7"/>
<path d="M398.423 27.7507C398.423 29.3096 397.16 30.5732 395.601 30.5732C394.042 30.5732 392.778 29.3096 392.778 27.7507C392.778 26.1919 394.042 24.9282 395.601 24.9282C397.16 24.9282 398.423 26.1919 398.423 27.7507Z" stroke="#0064B7"/>
<rect x="162.546" y="31.0732" width="0.949298" height="34.1747" fill="#0064B7"/>
<path d="M165.843 27.7507C165.843 29.3096 164.58 30.5732 163.021 30.5732C161.462 30.5732 160.198 29.3096 160.198 27.7507C160.198 26.1919 161.462 24.9282 163.021 24.9282C164.58 24.9282 165.843 26.1919 165.843 27.7507Z" stroke="#0064B7"/>
<path d="M406.599 306.114C406.599 306.114 410.892 304.367 410.57 299.45C410.258 294.523 407.721 291.041 412.95 292.465C418.189 293.889 419.946 294.523 423.761 293.733C427.555 292.943 430.736 291.353 429.072 296.27C427.409 301.197 425.611 305.313 429.53 306.114C433.449 306.904 437.659 303.941 438.158 311.654C438.657 319.357 432.44 328.026 422.389 328.348C412.337 328.66 407.888 324.502 407.888 324.502C407.888 324.502 405.195 320.708 409.395 319.752C413.605 318.816 417.888 317.028 415.746 315.064C413.605 313.099 406.62 312.943 406.62 312.943C406.62 312.943 397.857 311.186 406.599 306.114Z" fill="#649EEA"/>
<path d="M452.564 307.382C451.857 302.466 452.398 298.931 461.524 297.601C470.651 296.27 475.973 301.748 476.524 307.382C477.075 313.016 469.144 315.064 469.144 315.064C469.144 315.064 463.51 316.665 466.368 321.592C469.217 326.519 470.526 331.28 464.04 331.998C457.554 332.715 450.464 331 446.504 328.37C442.554 325.729 438.5 319.056 443.032 315.574C443.032 315.574 444.3 314.7 448.666 314.461C453.032 314.212 452.564 307.382 452.564 307.382Z" fill="#023EA1"/>
<path d="M420.438 306.593C420.438 306.593 428.026 323.744 429.055 335.418" stroke="#023EA1" stroke-miterlimit="10"/>
<path d="M462.6 309.409C462.6 309.409 449.18 329.336 445.999 335.999" stroke="#649EEA" stroke-miterlimit="10"/>
<path d="M424.375 334.055H455.175C455.175 334.055 458.554 334.294 458.263 338.899C458.013 343.14 452.629 342.215 449.853 342.215C447.078 342.215 423.7 342.215 423.7 342.215C423.7 342.215 419.916 342.86 419.916 338.577C419.926 334.284 421.361 334.055 424.375 334.055Z" fill="#0054A5"/>
<path d="M423.72 342.226L428.377 369.45H449.062L452.566 349.014L423.751 342.226H423.72Z" fill="#0054A5"/>
<path d="M423.752 342.226L452.567 349.014L453.731 342.226H423.752Z" fill="#006AD5"/>
<path d="M437 335.084C437 335.084 438.559 304.887 447.561 285.937" stroke="#FCBE42" stroke-miterlimit="10"/>
<path d="M454.983 275.043C454.983 275.043 455.721 284.315 446.677 287.933C446.667 287.943 444.713 280.022 454.983 275.043Z" fill="#FCBE42"/>
<path d="M441.395 304.554C441.395 304.554 444.731 296.643 454.981 297.704C454.991 297.693 454.191 305.583 441.395 304.554Z" fill="#FCBE42"/>
<path d="M438.037 324.451C438.037 324.451 439.763 316.041 450.022 315.075C450.012 315.075 450.771 322.944 438.037 324.451Z" fill="#FCBE42"/>
<path d="M437.673 324.492C437.673 324.492 438.858 315.999 429.513 311.644C429.513 311.644 426.166 318.826 437.673 324.492Z" fill="#FCBE42"/>
<path d="M441.511 304.493C441.511 304.493 443.777 296.208 435.056 290.709C435.066 290.709 430.815 297.393 441.511 304.493Z" fill="#FCBE42"/>
<path d="M26.88 306.113C26.88 306.113 31.1731 304.367 30.8508 299.45C30.539 294.523 28.0026 291.041 33.2313 292.465C38.4703 293.889 40.227 294.523 44.042 293.733C47.8361 292.943 51.0169 291.353 49.3537 296.27C47.6905 301.197 45.8922 305.313 49.8111 306.113C53.73 306.903 57.9399 303.941 58.4388 311.654C58.9378 319.357 52.7217 328.026 42.6698 328.348C32.618 328.66 28.169 324.502 28.169 324.502C28.169 324.502 25.4767 320.708 29.6762 319.752C33.8861 318.816 38.1688 317.028 36.0275 315.063C33.8861 313.099 26.9008 312.943 26.9008 312.943C26.9008 312.943 18.1379 311.186 26.88 306.113Z" fill="#649EEA"/>
<path d="M72.8452 307.382C72.1384 302.466 72.6789 298.931 81.8056 297.601C90.9323 296.27 96.2545 301.748 96.8054 307.382C97.3564 313.016 89.4251 315.064 89.4251 315.064C89.4251 315.064 83.791 316.665 86.6496 321.592C89.4978 326.519 90.8076 331.28 84.3212 331.998C77.8348 332.715 70.7454 331 66.785 328.37C62.8349 325.729 58.7809 319.056 63.3131 315.574C63.3131 315.574 64.5813 314.7 68.9472 314.461C73.313 314.212 72.8452 307.382 72.8452 307.382Z" fill="#023EA1"/>
<path d="M40.7188 306.593C40.7188 306.593 48.307 323.744 49.3361 335.418" stroke="#023EA1" stroke-miterlimit="10"/>
<path d="M82.8809 309.409C82.8809 309.409 69.4611 329.336 66.2803 335.999" stroke="#649EEA" stroke-miterlimit="10"/>
<path d="M44.6567 334.055H75.4567C75.4567 334.055 78.8351 334.294 78.544 338.899C78.2945 343.14 72.9099 342.215 70.1345 342.215C67.3591 342.215 43.981 342.215 43.981 342.215C43.981 342.215 40.1973 342.86 40.1973 338.577C40.2077 334.284 41.6422 334.055 44.6567 334.055Z" fill="#0054A5"/>
<path d="M44.002 342.226L48.6589 369.45H69.3447L72.8478 349.014L44.0331 342.226H44.002Z" fill="#0054A5"/>
<path d="M44.0332 342.226L72.8478 349.014L74.012 342.226H44.0332Z" fill="#006AD5"/>
<path d="M57.2793 335.084C57.2793 335.084 58.8385 304.887 67.8405 285.937" stroke="#FCBE42" stroke-miterlimit="10"/>
<path d="M75.2622 275.043C75.2622 275.043 76.0003 284.315 66.9567 287.933C66.9463 287.943 64.9921 280.022 75.2622 275.043Z" fill="#FCBE42"/>
<path d="M61.6738 304.554C61.6738 304.554 65.0106 296.643 75.2599 297.704C75.2703 297.693 74.4699 305.583 61.6738 304.554Z" fill="#FCBE42"/>
<path d="M58.3164 324.451C58.3164 324.451 60.042 316.041 70.3017 315.075C70.2913 315.075 71.0501 322.943 58.3164 324.451Z" fill="#FCBE42"/>
<path d="M57.9526 324.492C57.9526 324.492 59.1376 315.999 49.7926 311.644C49.7926 311.644 46.4454 318.826 57.9526 324.492Z" fill="#FCBE42"/>
<path d="M61.7903 304.493C61.7903 304.493 64.0564 296.208 55.3351 290.709C55.3455 290.709 51.094 297.393 61.7903 304.493Z" fill="#FCBE42"/>
<rect x="313.13" y="191.813" width="88.6554" height="43.617" rx="3.5" transform="rotate(-12.1767 313.13 191.813)" fill="white" stroke="#0C6DBB"/>
<ellipse cx="322.918" cy="202.3" rx="2.31071" ry="2.37325" transform="rotate(-12.1767 322.918 202.3)" fill="#9FD2F2"/>
<rect x="326.684" y="200.03" width="12.9399" height="0.949298" transform="rotate(-12.1767 326.684 200.03)" fill="#9FD2F2"/>
<rect x="327.084" y="201.886" width="16.6371" height="0.949298" transform="rotate(-12.1767 327.084 201.886)" fill="#9FD2F2"/>
<rect x="319.358" y="196.755" width="4.62141" height="0.949298" transform="rotate(-12.1767 319.358 196.755)" fill="#9FD2F2"/>
<rect x="318.759" y="193.971" width="9.24282" height="0.949298" transform="rotate(-12.1767 318.759 193.971)" fill="#9FD2F2"/>
<rect x="374.975" y="182.812" width="17.5614" height="1.8986" transform="rotate(-12.1767 374.975 182.812)" fill="#9FD2F2"/>
<rect x="383.603" y="187.748" width="10.1671" height="1.8986" transform="rotate(-12.1767 383.603 187.748)" fill="#9FD2F2"/>
<rect x="377.778" y="195.803" width="17.5614" height="1.8986" transform="rotate(-12.1767 377.778 195.803)" fill="#9FD2F2"/>
<rect x="379.18" y="202.299" width="17.5614" height="1.8986" transform="rotate(-12.1767 379.18 202.299)" fill="#9FD2F2"/>
<rect x="380.581" y="208.794" width="17.5614" height="1.8986" transform="rotate(-12.1767 380.581 208.794)" fill="#9FD2F2"/>
<rect x="381.981" y="215.29" width="17.5614" height="1.8986" transform="rotate(-12.1767 381.981 215.29)" fill="#9FD2F2"/>
<rect x="353.589" y="193.254" width="9.24282" height="0.949298" transform="rotate(-12.1767 353.589 193.254)" fill="#9FD2F2"/>
<rect x="357.701" y="199.164" width="3.69713" height="0.949298" transform="rotate(-12.1767 357.701 199.164)" fill="#9FD2F2"/>
<rect x="359.103" y="205.66" width="3.69713" height="0.949298" transform="rotate(-12.1767 359.103 205.66)" fill="#9FD2F2"/>
<rect x="360.504" y="212.156" width="3.69713" height="0.949298" transform="rotate(-12.1767 360.504 212.156)" fill="#9FD2F2"/>
<rect x="361.906" y="218.651" width="3.69713" height="0.949298" transform="rotate(-12.1767 361.906 218.651)" fill="#9FD2F2"/>
<ellipse cx="324.721" cy="210.651" rx="2.31071" ry="2.37325" transform="rotate(-12.1767 324.721 210.651)" fill="#9FD2F2"/>
<rect x="328.486" y="208.382" width="12.9399" height="0.949298" transform="rotate(-12.1767 328.486 208.382)" fill="#9FD2F2"/>
<rect x="328.887" y="210.238" width="16.6371" height="0.949298" transform="rotate(-12.1767 328.887 210.238)" fill="#9FD2F2"/>
<ellipse cx="326.523" cy="219.003" rx="2.31071" ry="2.37325" transform="rotate(-12.1767 326.523 219.003)" fill="#9FD2F2"/>
<rect x="330.287" y="216.733" width="12.9399" height="0.949298" transform="rotate(-12.1767 330.287 216.733)" fill="#9FD2F2"/>
<rect x="330.688" y="218.589" width="16.6371" height="0.949298" transform="rotate(-12.1767 330.688 218.589)" fill="#9FD2F2"/>
<ellipse cx="328.325" cy="227.354" rx="2.31071" ry="2.37325" transform="rotate(-12.1767 328.325 227.354)" fill="#9FD2F2"/>
<rect x="332.09" y="225.085" width="12.9399" height="0.949298" transform="rotate(-12.1767 332.09 225.085)" fill="#9FD2F2"/>
<rect x="332.49" y="226.941" width="16.6371" height="0.949298" transform="rotate(-12.1767 332.49 226.941)" fill="#9FD2F2"/>
<path d="M427.559 266.577L426.419 361.57L418.44 362.406L407.192 269.085L427.559 266.577Z" fill="#DC051F"/>
<path d="M395.871 266.577L390.323 361.57L398.379 362.406L419.429 269.085L395.871 266.577Z" fill="#EE384E"/>
<path d="M408.105 200.083C411.221 200.159 414.944 207.226 414.868 210.266C414.792 213.382 413.273 213.306 412.437 214.825C411.601 216.345 406.965 217.789 404.609 217.789C402.329 217.713 401.645 213.838 401.721 208.442C401.873 203.046 404.229 200.007 404.229 200.007C404.229 200.007 404.989 200.007 408.105 200.083Z" fill="#FFBE9B"/>
<path d="M408.638 211.71C408.638 211.71 408.638 211.71 408.562 216.345C408.486 220.981 404.154 224.401 404.154 224.401C404.154 224.401 404.078 227.516 408.714 228.352C413.35 229.188 418.137 223.945 418.137 223.945C418.137 223.945 417.377 222.349 415.933 218.473C414.49 214.597 413.806 210.722 413.806 210.722L408.638 211.71Z" fill="#FEBE9A"/>
<path d="M406.51 201.602C409.549 202.438 409.625 202.438 411.069 204.034C412.589 205.63 413.273 209.506 413.273 209.506C413.273 209.506 413.653 211.558 413.957 212.622C414.337 213.685 414.565 214.901 414.641 215.737C414.717 216.497 415.401 216.573 416.161 216.573C416.921 216.573 418.517 215.813 420.113 212.774C421.709 209.734 421.329 206.542 421.025 205.858C420.265 204.186 420.341 201.222 420.341 200.463C420.341 199.703 420.341 198.943 418.897 197.347C417.377 195.751 409.625 195.599 409.625 195.599C408.866 195.599 407.27 195.523 406.51 194.763C405.75 193.927 402.71 192.331 401.114 193.091C399.518 193.851 401.722 200.083 401.722 200.083C402.634 202.286 403.47 200.766 406.51 201.602Z" fill="#160C56"/>
<path d="M414.869 207.986C414.793 210.342 412.513 209.506 412.513 209.506C412.513 209.506 410.993 207.15 412.209 205.858C413.349 204.566 414.945 205.63 414.869 207.986Z" fill="#FFBE9B"/>
<path d="M398.15 238.688C398.15 238.688 388.119 248.719 386.599 250.239C385.079 251.759 382.571 250.239 380.063 247.731C377.556 245.223 372.008 235.192 370.032 232.152C367.98 229.112 360.001 226.605 360.001 226.605C360.001 226.605 367.98 225.085 369.044 224.629C370.032 224.097 369.576 222.577 369.044 221.133C368.512 219.613 370.032 220.601 370.032 220.601C370.032 220.601 371.552 221.589 373.072 224.097C374.592 226.605 374.06 228.124 374.592 229.644C375.124 231.164 383.635 241.651 384.091 242.183C384.623 242.715 385.079 242.183 385.079 242.183L392.071 232.684L398.15 238.688Z" fill="#FFBE9B"/>
<path d="M396.554 215.585C397.086 216.573 396.554 218.093 396.554 218.093L387.511 220.069C387.511 220.069 391.994 222.045 394.502 223.565C397.01 225.085 401.038 228.048 401.038 228.048L403.014 225.541C403.014 225.541 401.038 221.513 400.506 219.005C399.974 216.497 396.478 213.989 396.478 213.989C396.478 213.989 396.098 214.597 396.554 215.585Z" fill="#FFBE9B"/>
<path d="M426.572 360.886L417.985 360.81C417.985 362.254 417.377 362.406 417.377 362.406C417.377 362.406 409.778 365.75 407.27 366.966C404.762 368.182 407.422 368.714 407.422 368.714C407.422 368.714 421.557 368.866 424.141 368.866C426.724 368.866 426.268 367.65 426.268 367.65L426.572 360.886Z" fill="#170856"/>
<path d="M398.909 360.886L390.322 360.81C390.322 362.254 389.714 362.406 389.714 362.406C389.714 362.406 382.115 365.75 379.607 366.966C377.099 368.182 379.759 368.714 379.759 368.714C379.759 368.714 393.894 368.866 396.477 368.866C399.061 368.866 398.605 367.65 398.605 367.65L398.909 360.886Z" fill="#170856"/>
<path d="M415.171 223.109C415.171 223.109 416.159 222.121 417.147 222.577C418.135 223.109 422.694 227.061 425.658 238.612C428.698 250.163 427.634 268.933 427.634 268.933L395.64 268.249C395.64 268.249 395.564 257.078 396.096 246.743C396.628 236.408 397.236 232 398.832 228.808C400.504 225.617 403.848 223.185 404.76 222.425C405.748 221.665 406.584 222.349 406.584 222.349C410.763 227.137 415.171 223.109 415.171 223.109Z" fill="#0083F9"/>
<path d="M398.074 240.207C398.074 240.207 402.558 234.736 405.066 230.708C407.573 226.68 405.066 222.653 400.05 224.705C395.034 226.681 390.551 233.216 390.551 233.216L398.074 240.207Z" fill="#0064B7"/>
<path d="M122.05 215.611L156.504 188.443C156.504 188.443 157.445 187.816 158.804 185.852C160.175 183.9 162.813 181.925 164.347 182.355L167.763 179.182C167.763 179.182 168.96 178.95 167.763 180.054C166.566 181.169 165.892 182.529 165.892 182.529C165.892 182.529 166.962 183.075 166.659 183.505C166.659 183.505 167.519 183.761 167.426 184.4C167.426 184.4 169.471 185.039 167.461 187.037C165.451 189.048 164.765 189.849 162.558 190.825C160.35 191.802 158.676 192.952 156.504 195.009C154.331 197.054 126.396 223.873 126.396 223.873L122.05 215.611Z" fill="#FFBE9B"/>
<path d="M105.944 208.79C105.944 208.79 98.1239 208.604 96.8922 199.831C95.6721 191.058 101.61 188.037 104.991 186.259C108.384 184.469 110.453 184.748 111.975 182.296C113.497 179.845 114.055 179.194 114.055 179.194C114.055 179.194 120.423 185.817 115.972 191.697C111.51 197.565 105.944 208.79 105.944 208.79Z" fill="#180857"/>
<path d="M93.2077 361.58C93.1147 361.603 93.1147 361.743 93.0915 361.836C92.8591 362.8 91.6739 368.378 94.6951 368.436C97.7744 368.506 109.476 368.587 111.091 368.599C111.207 368.599 111.3 368.529 111.335 368.413C111.451 367.959 111.672 366.832 110.882 366.472C110.882 366.472 104.084 363.311 101.76 361.464C99.6336 359.756 94.1373 361.29 93.2077 361.58Z" fill="#170856"/>
<path d="M122.586 360.744C122.493 360.779 122.481 360.907 122.469 360.999C122.237 362.045 121.052 368.204 124.073 368.355C127.164 368.506 141.445 368.367 143.292 368.355C143.432 368.355 143.536 368.274 143.571 368.157C143.711 367.739 143.85 366.763 142.618 366.228C142.618 366.228 134.728 363.068 131.126 360.86C127.907 358.873 123.434 360.407 122.586 360.744Z" fill="#170856"/>
<path d="M91.3491 263.555L93.1269 361.686L101.772 361.454L108.64 299.159L107.815 281.868L102.806 263.358L91.3491 263.555Z" fill="#0064E1"/>
<path d="M100.472 263.393C100.472 263.393 108.641 305.085 111.139 309.931L122.515 360.85H131.16L125.792 263.23L100.472 263.393Z" fill="#003EB0"/>
<path d="M115.962 191.685C115.962 191.685 120.284 195.264 120.343 201.469C120.401 207.674 119.32 207.895 116.822 207.895C114.323 207.895 112.336 207.662 112.057 209.034C111.779 210.405 112.116 215.75 112.685 217.342C113.243 218.934 102.343 217.342 102.343 217.342C102.343 217.342 105.353 209.161 105.818 205.582C106.282 202.004 105.759 197.96 107.921 194.555C110.047 191.104 112.604 188.489 115.962 191.685Z" fill="#FFBE9B"/>
<path d="M113.742 219.248L122.503 214.368L127.279 224.024L117.553 232.332L113.742 219.248Z" fill="#F79F03"/>
<path d="M100.473 218.457C100.473 218.457 95.2206 224.407 93.3963 238.792C91.5719 253.178 91.3512 263.554 91.3512 263.554H125.781C125.781 263.554 123.167 243.254 120.854 232.517C118.542 221.769 114.382 217.435 114.382 217.435C114.382 217.435 113.301 216.122 112 216.981C110.687 217.841 107.561 218.004 104.784 216.691C101.983 215.366 101.356 217.26 100.473 218.457Z" fill="#FCBE42"/>
<path d="M107.434 197.077C107.434 197.077 105.564 196.624 104.704 197.588C103.844 198.553 104.878 200.656 106.575 201.284C108.294 201.923 107.434 197.077 107.434 197.077Z" fill="#FFBE9B"/>
<path d="M112.322 236.248C112.322 236.248 116.249 263.531 118.294 270.956C120.34 278.382 123.407 285.365 123.407 285.365C123.407 285.365 124.778 288.782 123.407 290.06C122.036 291.338 118.817 292.79 118.167 290.49C117.527 288.189 117.527 283.239 116.668 282.135C115.808 281.019 108.406 263.799 105.919 253.48C103.444 243.161 103.026 238.56 103.026 238.56L112.322 236.248Z" fill="#FFBE9B"/>
<path d="M113.74 237.631C113.74 237.631 111.381 222.594 105.072 222.525C105.072 222.525 101.493 222.525 101.4 227.974C101.307 233.424 101.83 239.896 101.83 239.896L113.74 237.631Z" fill="#F79F03"/>
<path d="M255.615 247.704H260.88L266.784 247.386C266.784 247.386 267.582 251.044 264.072 251.521C260.721 251.839 255.296 252.634 254.657 252.475C253.54 251.998 255.615 247.704 255.615 247.704Z" fill="#FBBE9B"/>
<path d="M251.625 221.781C251.625 221.781 257.37 227.348 257.689 230.369C258.646 233.391 256.731 237.844 256.253 239.275C256.093 240.548 256.093 257.405 256.093 257.405H233.914V221.622L251.625 221.781Z" fill="#0064E1"/>
<path d="M264.551 205.082C264.551 205.082 264.232 209.376 263.115 212.08V214.147C263.115 214.306 262.955 214.465 262.796 214.465L261.519 214.306V216.056C261.519 216.215 261.36 216.374 261.2 216.374H260.083C259.924 216.374 259.764 216.533 259.764 216.692L259.924 217.646C259.924 217.805 259.924 217.964 259.605 217.964C258.647 218.123 257.211 218.282 255.137 216.851C253.063 215.42 251.786 216.056 251.786 217.646C251.786 218.918 252.903 222.894 250.988 224.008C249.552 224.962 244.925 224.326 243.968 223.212C242.851 222.099 243.968 219.396 245.404 218.123C246.521 217.01 248.116 204.923 250.669 203.651C252.584 203.333 264.551 205.082 264.551 205.082Z" fill="#FBBC98"/>
<path d="M239.022 239.275L238.862 246.75C238.862 247.545 239.181 247.863 239.979 247.863C240.777 247.863 241.256 247.863 242.692 247.068C246.043 245.796 254.499 241.184 255.616 240.388C255.616 240.388 255.776 240.388 255.776 240.229C255.935 239.911 257.052 238.321 259.605 238.48C262.637 238.639 263.435 239.434 262.956 240.229C262.796 241.184 262.158 241.184 262.158 241.184L262.477 241.979C262.477 241.979 262.158 242.933 260.563 242.933C259.286 242.933 257.531 242.138 257.212 242.774C256.893 243.092 243.649 251.839 240.298 254.066C239.979 254.225 239.341 254.384 238.862 254.861C236.948 255.179 232.161 255.974 231.682 252.793C230.725 248.658 230.725 239.752 230.725 239.752L239.022 239.275Z" fill="#FBBE9B"/>
<path d="M239.022 225.757C239.341 225.598 239.979 225.757 239.979 226.075V239.593C239.979 239.911 239.82 240.388 239.181 240.388C238.543 240.388 237.905 240.388 236.469 240.388C234.235 240.388 232.161 240.388 231.044 240.388C230.725 240.388 230.725 240.229 230.725 240.07L230.884 230.687C230.884 230.528 230.884 230.369 231.044 230.369L239.022 225.757Z" fill="#0054A3"/>
<path d="M223.066 231.641C221.949 227.347 229.448 221.463 229.448 221.463C229.448 221.463 233.118 220.191 233.756 215.897C234.554 211.603 238.543 210.331 240.139 208.899C242.053 207.468 243.17 203.81 243.17 203.81L243.33 202.856C243.33 202.856 246.362 189.656 256.733 192.996C256.733 192.996 261.52 194.745 263.435 198.244C263.435 198.244 270.296 199.357 268.86 204.605C267.583 209.853 264.392 206.673 264.392 206.673C264.392 206.673 263.116 203.969 261.679 205.718C260.243 207.627 256.733 208.899 255.776 206.991C254.659 205.082 252.584 203.969 251.946 206.673V207.945C251.946 207.945 246.681 214.306 246.202 216.533C245.404 218.759 244.287 222.099 241.734 223.372C239.341 224.803 236.469 230.528 235.352 233.709C233.916 237.367 224.502 238.003 223.066 231.641Z" fill="#1F1952"/>
<path d="M275.4 231.959L288.803 232.437L271.89 250.567L258.327 249.931L275.4 231.959Z" fill="#1C164F"/>
<path d="M276.199 245.478C276.199 245.478 277.476 247.863 276.359 248.658C275.082 249.454 273.965 249.613 273.327 248.817C272.689 248.022 272.37 246.114 273.168 246.432C273.965 246.432 274.125 246.591 274.125 246.591V245.796C274.125 245.637 274.125 245.478 274.285 245.478C274.923 245.319 275.88 244.682 276.199 245.478Z" fill="#FBBE9B"/>
<path d="M252.266 257.405L256.095 257.087V361.892L247.957 362.051L243.33 293.666L252.266 257.405Z" fill="#DE051F"/>
<path d="M233.915 257.564C233.915 257.564 233.756 261.222 233.596 262.654C233.437 263.608 228.331 271.719 232.32 281.738C232.32 281.897 232.32 282.056 232.479 282.533C232.479 284.76 233.277 298.437 230.405 305.434L215.406 353.622L221.15 357.757C221.15 357.757 240.777 315.931 241.415 313.863C242.053 311.955 254.818 270.923 252.903 259.632L252.584 257.564H233.915Z" fill="#EE384E"/>
<path d="M256.095 361.892C256.095 361.892 261.36 364.596 263.594 365.232C265.509 365.55 265.668 366.982 265.828 367.459C265.828 367.618 265.828 367.777 265.668 367.777H247.957V361.892H256.095Z" fill="#221D56"/>
<path d="M220.991 357.121C220.991 357.121 222.427 361.415 225.778 363.96C228.969 366.345 225.778 368.254 225.778 368.254L212.374 360.143C212.215 359.825 211.417 358.394 212.374 357.121C213.332 355.69 215.406 353.304 215.406 353.304L220.991 357.121Z" fill="#221D56"/>
<path d="M138.269 41.6962C138.208 41.635 138.146 41.635 138.024 41.635L136.487 41.8187C136.302 41.8187 136.118 41.6962 136.057 41.5126C135.872 40.7779 135.626 40.1657 135.196 39.4923C135.073 39.3086 135.135 39.125 135.257 38.9413L136.364 38.0842C136.425 38.023 136.487 37.9618 136.487 37.8393C136.487 37.7169 136.487 37.6557 136.425 37.5944L134.704 35.8803C134.643 35.819 134.581 35.7578 134.458 35.819C134.397 35.819 134.274 35.8803 134.213 35.9415L133.352 37.0435C133.229 37.2271 132.983 37.2271 132.799 37.1047C132.184 36.7374 131.508 36.4313 130.77 36.2476C130.586 36.1864 130.402 36.0027 130.463 35.819L130.647 34.2885C130.647 34.2273 130.647 34.1049 130.586 34.0436C130.524 33.9824 130.463 33.9212 130.34 33.9212H127.881C127.82 33.9212 127.697 33.9824 127.635 34.0436C127.574 34.1049 127.574 34.1661 127.574 34.2885L127.758 35.819C127.758 36.0027 127.635 36.1864 127.451 36.2476C126.713 36.4313 126.099 36.6761 125.423 37.1047C125.238 37.2271 125.054 37.1659 124.869 37.0435L124.009 35.9415C123.947 35.8803 123.886 35.819 123.763 35.819C123.64 35.819 123.579 35.819 123.517 35.8803L121.796 37.5944C121.735 37.6557 121.735 37.7169 121.735 37.8393C121.735 37.9618 121.796 38.023 121.858 38.0842L122.964 38.9413C123.148 39.0637 123.148 39.3086 123.025 39.4923C122.657 40.1045 122.349 40.7779 122.165 41.5126C122.103 41.6962 121.919 41.8187 121.735 41.8187L120.198 41.635C120.136 41.635 120.014 41.635 119.952 41.6962C119.891 41.7575 119.829 41.8187 119.829 41.9411V44.39C119.829 44.4512 119.891 44.5736 119.952 44.6348C120.014 44.6961 120.075 44.6961 120.198 44.6961L121.735 44.5124C121.919 44.5124 122.103 44.6348 122.165 44.8185C122.349 45.5531 122.595 46.1654 123.025 46.8388C123.148 47.0224 123.087 47.2673 122.964 47.3285L121.858 48.1856C121.796 48.2469 121.735 48.3081 121.735 48.4305C121.735 48.4917 121.735 48.6142 121.796 48.6754L123.517 50.3896C123.579 50.4508 123.64 50.512 123.763 50.4508C123.824 50.4508 123.947 50.3896 124.009 50.3284L124.869 49.2264C124.992 49.0427 125.238 49.0427 125.423 49.1039C126.037 49.4713 126.713 49.7774 127.451 49.8998C127.635 49.961 127.82 50.1447 127.758 50.3284L127.574 51.8589C127.574 51.9201 127.574 52.0425 127.635 52.1038C127.697 52.165 127.758 52.2262 127.881 52.2262H130.34C130.402 52.2262 130.524 52.165 130.586 52.1038C130.647 52.0425 130.647 51.9813 130.647 51.8589L130.463 50.3284C130.463 50.1447 130.586 49.961 130.77 49.8998C131.508 49.7162 132.123 49.4713 132.799 49.1039C132.983 48.9815 133.168 49.0427 133.352 49.2264L134.213 50.3284C134.274 50.3896 134.335 50.4508 134.458 50.4508C134.581 50.4508 134.643 50.4508 134.704 50.3896L136.425 48.6754C136.487 48.6142 136.487 48.553 136.487 48.4305C136.487 48.3081 136.425 48.2469 136.364 48.1856L135.257 47.3285C135.073 47.2061 135.073 46.9612 135.196 46.8388C135.565 46.2266 135.872 45.5531 136.057 44.8185C136.118 44.6348 136.302 44.5124 136.487 44.5124L138.024 44.6961C138.085 44.6961 138.208 44.6961 138.269 44.6348C138.331 44.5736 138.392 44.5124 138.392 44.39V41.9411C138.392 41.8799 138.392 41.7575 138.269 41.6962ZM137.778 44.0226L136.548 43.9002C136.057 43.839 135.565 44.1451 135.442 44.6961C135.319 45.3083 135.012 45.9817 134.704 46.5327C134.458 46.9612 134.52 47.5122 134.95 47.8795L135.811 48.553L134.581 49.7774L133.905 48.9203C133.598 48.4917 133.045 48.4305 132.614 48.6754C132.061 49.0427 131.446 49.2876 130.77 49.4101C130.279 49.5325 129.91 50.0223 129.971 50.512L130.094 51.7364H128.373L128.496 50.512C128.557 50.0223 128.25 49.5325 127.697 49.4101C127.021 49.2876 126.406 48.9815 125.853 48.6754C125.423 48.4305 124.869 48.4917 124.562 48.9203L123.886 49.7774L122.657 48.553L123.517 47.8795C123.947 47.5734 124.009 47.0224 123.763 46.5327C123.394 45.9817 123.148 45.3695 123.025 44.6961C122.902 44.2063 122.411 43.839 121.919 43.9002L120.69 44.0226V42.3084L121.919 42.4309C122.411 42.4921 122.902 42.186 123.025 41.635C123.148 41.0228 123.456 40.3494 123.763 39.7984C124.009 39.3698 123.947 38.8189 123.517 38.5128L122.657 37.8393L123.886 36.6149L124.562 37.472C124.869 37.9006 125.423 37.9618 125.853 37.7169C126.406 37.3496 127.021 37.1047 127.697 36.9822C128.189 36.8598 128.557 36.37 128.496 35.8803L128.373 34.6559H130.094L129.971 35.8803C129.91 36.37 130.217 36.8598 130.77 36.9822C131.446 37.1047 132.061 37.4108 132.614 37.7169C133.045 37.9618 133.598 37.9006 133.905 37.472L134.581 36.6149L135.811 37.8393L134.95 38.5128C134.52 38.8189 134.458 39.3698 134.704 39.7984C135.073 40.3494 135.319 40.9616 135.442 41.635C135.565 42.1248 136.057 42.4921 136.548 42.4309L137.778 42.3084V44.0226Z" stroke="#003EB0" stroke-miterlimit="10"/>
<path d="M129.234 38.8801C126.899 38.8801 124.993 40.7779 124.993 43.1655C124.993 45.5531 126.899 47.451 129.234 47.451C131.57 47.451 133.476 45.5531 133.476 43.1655C133.537 40.7779 131.632 38.8801 129.234 38.8801ZM129.234 46.7775C127.206 46.7775 125.608 45.1246 125.608 43.1043C125.608 41.084 127.267 39.4311 129.234 39.4311C131.201 39.4311 132.861 41.084 132.861 43.1043C132.861 45.1246 131.263 46.7775 129.234 46.7775Z" stroke="#003EB0" stroke-miterlimit="10"/>
<rect x="432.214" y="163.026" width="9.49298" height="9.49298" transform="rotate(45 432.214 163.026)" fill="#EE384E"/>
</svg>
