<svg width="500" height="370" viewBox="0 0 500 370" fill="none" xmlns="http://www.w3.org/2000/svg">
<path d="M342.209 329.151C393 329.151 434.137 287.923 434.137 237.042C434.137 186.162 393 144.934 342.209 144.934C291.419 144.934 250.281 186.162 250.281 237.042C250.281 287.923 291.419 329.151 342.209 329.151Z" stroke="#0054A3" stroke-miterlimit="10" stroke-dasharray="6 6"/>
<path d="M173.058 287.653C224.028 287.653 265.346 246.245 265.346 195.093C265.346 144.032 224.028 102.534 173.058 102.534C122.087 102.534 80.7687 143.942 80.7687 195.093C80.6785 246.245 122.087 287.653 173.058 287.653Z" stroke="#0054A3" stroke-miterlimit="10" stroke-dasharray="6 6"/>
<path d="M70.8446 303.981L63.2666 311.559L70.8446 319.137L78.4225 311.559L70.8446 303.981Z" fill="#EE384E"/>
<path d="M376.13 161.263L370.446 166.946L376.13 172.63L381.813 166.946L376.13 161.263Z" fill="#003EB0"/>
<path d="M431.791 329.241L423.04 338.082L431.791 346.923L440.542 338.082L431.791 329.241Z" fill="#003EB0"/>
<path d="M315.234 107.856L310.092 112.998L315.234 118.14L320.376 112.998L315.234 107.856Z" fill="#003EB0"/>
<path d="M368.19 242.636C368.19 242.636 373.513 228.111 385.601 231.629C397.69 235.148 402.832 253.371 394.533 260.769C386.323 268.166 378.204 265.369 379.196 273.759C380.098 282.239 379.016 306.146 367.017 306.146C355.019 306.146 350.959 293.697 338.69 304.161C326.421 314.626 331.383 341.781 308.378 335.015C285.284 328.339 249.649 306.687 278.066 278.721C306.574 250.755 310.092 287.743 325.79 261.31C341.487 234.877 346.539 250.214 356.553 251.567C366.566 252.83 368.19 242.636 368.19 242.636Z" fill="#1F3C6E"/>
<path d="M361.966 268.076C361.966 268.076 324.437 284.224 296.651 309.213C268.865 334.203 266.52 343.585 266.52 343.585" fill="#EE384E"/>
<path d="M212.571 285.126C212.571 285.126 179.012 229.735 142.836 203.122" stroke="#FCBE42" stroke-width="0.5444" stroke-miterlimit="10"/>
<path d="M117.847 190.041C117.847 190.041 125.786 208.264 146.625 205.918C146.625 205.918 142.204 188.958 117.847 190.041Z" stroke="#FCBE42" stroke-width="0.5444" stroke-miterlimit="10"/>
<path d="M173.328 231.9C173.328 231.9 159.074 220.353 140.851 232.802C140.851 232.802 150.323 246.875 173.328 231.9Z" stroke="#FCBE42" stroke-width="0.5444" stroke-miterlimit="10"/>
<path d="M199.853 266.001C199.853 266.001 188.035 251.837 167.827 260.498C167.827 260.498 174.323 276.105 199.853 266.001Z" stroke="#FCBE42" stroke-width="0.5444" stroke-miterlimit="10"/>
<path d="M200.573 265.73C200.573 265.73 189.657 250.845 202.828 233.163C202.918 233.163 216.54 243.357 200.573 265.73Z" stroke="#FCBE42" stroke-width="0.5444" stroke-miterlimit="10"/>
<path d="M173.058 231.9C173.058 231.9 160.428 218.638 171.254 199.332C171.254 199.332 186.049 207.632 173.058 231.9Z" stroke="#FCBE42" stroke-width="0.5444" stroke-miterlimit="10"/>
<path d="M363.501 215.572C363.501 215.572 349.698 214.76 354.75 224.593C359.802 234.426 359.531 240.832 349.066 244.26C338.602 247.688 334.542 254.273 335.985 260.588C337.429 266.903 342.03 278 327.595 281.879C313.161 285.758 285.646 295.321 279.511 280.075C273.377 264.738 284.112 241.734 294.938 238.666C305.854 235.689 314.695 240.02 318.935 228.202C323.085 216.384 311.267 213.948 319.837 203.934C328.407 193.83 336.346 182.824 352.404 191.665C367.019 199.514 371.169 214.128 363.501 215.572Z" fill="#EE384E"/>
<path d="M347.712 212.324C347.712 212.324 293.223 275.383 283.209 294.599" stroke="white" stroke-width="0.5444" stroke-miterlimit="10"/>
<path d="M326.062 264.016L304.32 264.738L298.096 247.507" stroke="#FCBE42" stroke-width="0.5444" stroke-miterlimit="10"/>
<path d="M348.344 231.99L332.557 230.186L325.61 216.383" stroke="white" stroke-width="0.5444" stroke-miterlimit="10"/>
<path d="M120.283 237.674C120.283 237.674 114.961 223.149 102.872 226.668C90.7832 230.186 85.641 248.409 93.9407 255.807C102.15 263.204 110.269 260.408 109.277 268.798C108.375 277.278 109.458 301.184 121.456 301.184C133.454 301.184 137.514 288.735 149.783 299.2C162.052 309.664 157.09 336.819 180.095 330.053C203.1 323.287 238.824 301.726 210.407 273.759C181.899 245.793 178.381 282.781 162.684 256.348C146.987 229.915 141.935 245.252 131.921 246.605C121.907 247.868 120.283 237.674 120.283 237.674Z" fill="#EE384E"/>
<path d="M126.507 263.114C126.507 263.114 164.036 279.262 191.822 304.252C219.608 329.241 221.953 338.623 221.953 338.623" stroke="white" stroke-width="0.5444" stroke-miterlimit="10" stroke-linecap="round" stroke-linejoin="round"/>
<path d="M296.109 252.829L322.542 293.155C322.542 293.155 327.774 301.365 335.082 299.019C343.291 296.493 394.984 276.375 400.397 273.849C405.9 271.414 417.176 266.091 418.981 258.242C420.785 250.484 415.011 247.507 415.011 247.507C415.011 247.507 413.207 246.154 411.583 248.77C409.959 251.296 406.351 258.513 406.351 258.513C406.351 258.513 403.735 261.4 404.366 257.611C404.998 253.822 405.719 249.943 402.652 253.281C399.495 256.709 398.592 262.753 388.488 266.001C378.294 269.339 340.765 278.991 340.765 278.991C340.765 278.991 336.886 280.796 333.548 276.736C330.12 272.586 314.242 241.914 314.242 241.914L296.109 252.829Z" fill="#FDC09B"/>
<path d="M197.325 251.567L171.073 291.441C171.073 291.441 165.84 299.47 158.533 297.215C150.324 294.779 98.9919 274.842 93.5791 272.316C88.0761 269.88 76.8895 264.648 75.0853 256.799C73.281 249.131 78.9645 246.154 78.9645 246.154C78.9645 246.154 80.7687 244.891 82.3926 247.327C84.0164 249.853 87.625 256.98 87.625 256.98C87.625 256.98 90.2412 259.867 89.6097 256.078C88.9782 252.289 88.3467 248.5 91.3238 251.837C94.3008 255.266 95.2932 261.22 105.397 264.467C115.591 267.805 152.85 277.368 152.85 277.368C152.85 277.368 156.639 279.172 160.067 275.113C163.495 271.053 179.282 240.651 179.282 240.651L197.325 251.567Z" fill="#FDC09B"/>
<path d="M199.219 152.963C199.219 152.963 204.812 151.429 203.82 139.972C202.827 128.515 195.971 119.042 206.255 113.178C216.54 107.314 219.878 105.239 224.659 100.368C229.44 95.4964 232.237 91.6172 248.656 93.241C248.656 93.241 261.647 82.686 273.194 92.1585C284.742 101.631 281.133 126.169 283.659 130.048C286.185 133.928 301.792 149.264 303.416 162.345C305.13 175.426 296.379 183.545 283.659 182.914C270.939 182.282 253.798 182.914 253.798 182.914L213.563 175.877C213.563 175.697 200.572 168.479 199.219 152.963Z" fill="#180857"/>
<path d="M236.567 167.217C236.567 167.217 236.838 180.027 234.041 184.267C231.335 188.507 226.103 190.041 226.103 190.041C226.103 190.041 231.696 207.723 240.807 207.362C249.919 207.001 260.023 201.408 263.722 199.333C267.421 197.258 266.428 191.124 266.428 191.124C266.428 191.124 260.113 189.409 257.497 181.561C254.881 173.802 254.971 162.165 254.971 162.165L236.567 167.217Z" fill="#FFB07E"/>
<path d="M307.926 345.659C307.926 345.659 320.646 346.291 329.848 346.291C338.96 346.291 353.665 348.185 353.665 348.185C353.665 348.185 357.544 348.185 357.815 352.876C358.085 357.568 358.085 359.462 358.085 359.462C358.085 359.462 358.356 365.146 353.935 365.146C349.515 365.146 321.278 368.303 314.963 368.303C308.648 368.303 303.867 369.566 303.867 365.146C303.867 360.815 303.596 345.298 307.926 345.659Z" fill="#160758"/>
<path d="M248.297 325.362L201.747 310.296" stroke="#B70B28" stroke-width="0.1361" stroke-miterlimit="10"/>
<path d="M158.803 296.854C158.803 296.854 277.524 333.752 303.506 342.773C303.506 342.773 312.076 344.938 312.347 349.359C312.617 353.779 311.715 360.094 310.813 363.251C309.911 366.409 306.934 368.935 302.243 367.943C297.461 367.04 191.189 345.93 148.969 334.924L136.881 331.135C136.881 331.135 128.04 326.985 129.573 316.34C131.107 305.605 139.136 296.132 144.729 295.501C150.593 294.96 158.803 296.854 158.803 296.854Z" fill="#003EB0"/>
<path d="M148.07 349.178C148.07 349.178 162.955 346.743 171.886 346.291C180.727 346.021 192.455 345.028 194.44 346.291C196.334 347.554 197.958 364.515 197.958 364.515C197.958 364.515 199.491 369.206 187.764 368.304C176.036 367.402 149.062 366.409 149.062 366.409C149.062 366.409 143.018 366.139 142.747 360.726C142.476 355.403 143.378 352.877 143.378 352.877C143.378 352.877 144.19 349.72 148.07 349.178Z" fill="#160758"/>
<path d="M218.796 334.022C218.796 334.022 290.877 312.281 316.588 304.793C342.299 297.305 356.553 290.268 364.853 302.357C373.062 314.265 372.431 327.617 362.958 331.316C353.395 335.105 278.518 352.426 247.394 358.741C216.27 365.056 195.972 369.115 193.085 367.942C190.289 366.68 187.041 357.568 187.672 352.516C188.304 347.464 188.575 345.569 194.619 343.043C200.663 340.247 218.796 334.022 218.796 334.022Z" fill="#0064E1"/>
<path d="M283.209 300.011H210.406L201.836 310.296L248.747 325.091L291.057 312.461L283.209 300.011Z" fill="#0064B7"/>
<path d="M316.677 242.003L299.807 208.173C299.807 208.173 289.613 185.439 264.173 187.875L269.405 199.964L295.658 254.994L316.677 242.003Z" fill="#F79F03"/>
<path d="M176.757 240.921L193.537 207.362C193.537 207.362 203.641 184.898 228.991 187.334L223.758 199.242L197.596 253.732L176.757 240.921Z" fill="#F79F03"/>
<path d="M245.861 177.591C257.589 177.591 267.062 161.533 267.062 141.686C267.062 121.839 257.589 105.781 245.861 105.781C234.134 105.781 224.661 121.839 224.661 141.686C224.661 161.533 234.134 177.591 245.861 177.591Z" fill="#FFBE9B"/>
<path d="M226.105 137.447C226.105 137.447 218.076 136.635 216.903 141.506C215.82 146.378 219.429 150.798 226.105 151.791C232.78 152.783 226.105 137.447 226.105 137.447Z" fill="#FFBE9B"/>
<path d="M210.405 300.012H283.298C283.298 300.012 284.831 236.14 282.125 218.819C280.321 207.272 276.532 195.725 269.134 189.68C269.134 189.68 266.969 187.605 264.353 188.056C263.541 188.237 262.639 188.688 261.737 189.68C258.308 193.559 252.805 200.416 243.153 199.243C233.59 198.16 231.425 190.221 231.425 190.221C231.425 190.221 228.989 184.538 224.478 188.958C219.877 193.379 207.879 198.16 207.879 234.426L210.405 300.012Z" fill="#FCBE42"/>
<path d="M248.657 130.589C261.648 125.537 270.038 115.975 267.422 109.209C264.805 102.443 252.175 100.999 239.185 106.051C226.194 111.103 217.804 120.666 220.42 127.432C223.036 134.198 235.666 135.641 248.657 130.589Z" fill="#180857"/>
<path d="M259.934 234.877L247.755 241.914C247.304 242.185 246.853 242.185 246.402 241.914L234.223 234.877C233.772 234.607 233.501 234.156 233.501 233.704V219.721C233.501 219.27 233.772 218.819 234.223 218.548L246.402 211.512C246.853 211.241 247.304 211.241 247.755 211.512L259.934 218.548C260.385 218.819 260.655 219.27 260.655 219.721V233.614C260.565 234.156 260.295 234.607 259.934 234.877Z" fill="white"/>
<path d="M247.033 226.668L256.506 221.075L247.033 216.023V226.668Z" fill="#0A489B"/>
<path d="M247.031 237.042L237.559 231.72V221.075L247.031 216.023V237.042Z" fill="#0F68DE"/>
<path d="M246.67 226.848L237.559 231.72" stroke="#D9D9D9" stroke-width="0.1" stroke-miterlimit="10" stroke-linecap="square" stroke-linejoin="bevel"/>
<path d="M247.031 226.668L237.559 221.075L247.031 216.023V226.668Z" fill="#0F68DE"/>
<path d="M247.031 237.313L237.559 231.72L247.031 226.668V237.313Z" fill="#3F86E4"/>
<path d="M251.683 15.3513L244.376 2.72134C244.647 2.4507 244.917 2.36048 245.188 2.18005C243.023 2.90177 242.03 5.24733 242.03 5.24733L228.679 28.2519C228.498 28.9736 228.408 29.6051 228.498 30.2366H243.113L251.683 15.3513Z" fill="#34A853"/>
<path d="M251.684 15.3514L260.344 30.3269H274.959C274.959 29.7856 274.959 29.0639 274.778 28.3422L261.336 5.33766C261.336 5.33766 260.344 2.9921 258.179 2.27039C258.45 2.3606 258.72 2.54103 258.991 2.81167L251.684 15.3514Z" fill="#FBBC05"/>
<path d="M251.683 15.3514L258.99 2.72147C258.72 2.45082 258.449 2.36061 258.178 2.18018C257.817 2.08997 257.547 1.99976 257.186 1.99976H256.825H246.631H246.27C245.909 1.99976 245.548 2.08997 245.278 2.18018C245.007 2.27039 244.736 2.45082 244.466 2.72147L251.683 15.3514Z" fill="#188038"/>
<path d="M243.023 30.327L235.806 42.7765C235.806 42.7765 235.535 42.6863 235.265 42.4157C236.257 43.2276 237.249 43.3178 237.249 43.3178H265.667C267.2 43.3178 267.561 42.7765 267.561 42.7765L260.344 30.327H243.023Z" fill="#4285F4"/>
<path d="M243.024 30.327H228.409C228.499 32.0411 229.221 33.0334 229.221 33.0334L229.762 33.9356C229.762 34.0258 229.853 34.0258 229.853 34.0258L231.025 36.1007L233.732 40.7016C233.822 40.8821 233.912 41.0625 234.002 41.2429C234.002 41.3331 234.093 41.3331 234.093 41.4233C234.093 41.4233 234.093 41.4233 234.093 41.5135C234.454 41.9646 234.814 42.3255 235.175 42.5961C235.536 42.8668 235.717 42.957 235.717 42.957L243.024 30.327Z" fill="#1967D2"/>
<path d="M260.344 30.327H274.958C274.868 32.0411 274.146 33.0334 274.146 33.0334L273.605 33.9356C273.605 34.0258 273.515 34.0258 273.515 34.0258L272.342 36.1007L269.636 40.7016C269.546 40.8821 269.455 41.0625 269.365 41.2429C269.365 41.3331 269.275 41.3331 269.275 41.4233C269.275 41.4233 269.275 41.4233 269.275 41.5135C268.914 41.9646 268.553 42.3255 268.192 42.5961C267.832 42.8668 267.651 42.957 267.651 42.957L260.344 30.327Z" fill="#EA4335"/>
<path d="M320.231 56.2477L320.263 64.5791L320.286 70.396C320.292 71.7846 321.422 72.9061 322.773 72.9008L346.904 72.8066L346.871 64.4752L328.557 64.5467L328.525 56.2153L320.231 56.2477Z" fill="#FBC02D"/>
<path d="M355.17 56.112L355.202 64.4434L346.871 64.4759L346.839 56.1445L355.17 56.112Z" fill="#4CAF50"/>
<path d="M346.872 64.4753L355.203 64.4428L355.226 70.2598C355.231 71.6484 354.11 72.7786 352.721 72.784L346.904 72.8067L346.872 64.4753Z" fill="#2E7D32"/>
<path d="M346.805 47.8485L346.837 56.1423L328.523 56.2138L328.491 47.9199L346.805 47.8485Z" fill="#1E88E5"/>
<path d="M346.84 56.1415L346.807 47.8101L352.624 47.7874C354.013 47.782 355.143 48.9034 355.149 50.292L355.171 56.109L346.84 56.1415Z" fill="#1565C0"/>
<path d="M328.493 47.9188L328.525 56.2127L320.231 56.2451L328.493 47.9188Z" fill="#E53935"/>
<path d="M138.802 55.2388L138.859 66.2934L146.765 66.2527L146.708 55.1981L138.802 55.2388Z" fill="#1E88E5"/>
<path d="M165.732 60.6265L165.789 71.7177C165.796 73.0354 164.74 74.1025 163.422 74.1092L146.804 74.1949L146.763 66.2517L157.854 66.1945L157.826 60.6672L165.732 60.6265Z" fill="#4CAF50"/>
<path d="M165.675 49.5385L165.732 60.6298L157.826 60.6705L157.797 55.1432L146.706 55.2004L146.665 47.2571L163.284 47.1715C164.601 47.1647 165.668 48.2208 165.675 49.5385Z" fill="#FBC02D"/>
<path d="M146.762 66.2536L146.803 74.1602L141.276 74.1887C139.958 74.1955 138.891 73.1394 138.884 71.8217L138.855 66.2944L146.762 66.2536Z" fill="#1565C0"/>
<path d="M146.665 47.2556L146.706 55.1988L138.8 55.2395L146.665 47.2556Z" fill="#E53935"/>
<path d="M166.537 60.6242L165.767 67.327L157.826 60.669L165.698 53.9297L166.537 60.6242Z" fill="#2E7D32"/>
<path d="M172.817 49.6111L172.93 71.5739C172.933 72.2328 172.167 72.6028 171.652 72.2028L165.77 67.328L165.701 53.9307L171.533 48.9955C172.043 48.5536 172.813 48.9157 172.817 49.6111Z" fill="#4CAF50"/>
<path d="M408.176 108.85L409.041 110.082L410.373 109.117V116.109H411.805V106.919H410.606L408.176 108.85Z" fill="#1E88E5"/>
<path d="M405.876 111.252C406.409 110.785 406.742 110.086 406.742 109.354C406.742 107.889 405.443 106.69 403.878 106.69C402.547 106.69 401.381 107.522 401.082 108.754L402.48 109.121C402.613 108.555 403.212 108.155 403.878 108.155C404.677 108.155 405.31 108.688 405.31 109.354C405.31 110.02 404.677 110.552 403.878 110.552H403.046V112.017H403.878C404.777 112.017 405.543 112.65 405.543 113.382C405.543 114.148 404.811 114.748 403.912 114.748C403.113 114.748 402.413 114.248 402.313 113.549L400.915 113.782C401.148 115.147 402.447 116.179 403.945 116.179C405.643 116.179 407.008 114.914 407.008 113.349C406.975 112.517 406.542 111.751 405.876 111.252Z" fill="#1E88E5"/>
<path d="M415.17 126.531H398.389V119.838H415.17V126.531Z" fill="#FBC02D"/>
<path d="M421.858 119.843V103.062H415.166V119.843H421.858Z" fill="#4CAF50"/>
<path d="M415.168 103.06V96.3678H394.192C392.793 96.3678 391.661 97.4998 391.661 98.8982V119.874H398.354V103.06H415.168Z" fill="#1E88E5"/>
<path d="M415.165 119.841V126.534L421.857 119.841H415.165Z" fill="#E53935"/>
<path d="M419.36 96.368H415.165V103.06H421.857V98.8651C421.857 97.4667 420.759 96.368 419.36 96.368Z" fill="#1565C0"/>
<path d="M394.191 126.531H398.386V119.838H391.693V124.033C391.693 125.432 392.792 126.531 394.191 126.531Z" fill="#1565C0"/>
<path d="M94.6943 104.041L86.4839 110.466L78.0859 104.041V104.043L78.0961 104.052V113.048L86.3893 119.612L94.6943 113.302V104.041Z" fill="#EA4335"/>
<path d="M97.0015 102.5L94.6924 104.072V113.384L101.959 108.132V104.968C101.959 104.968 101.077 100.449 97.0015 102.5Z" fill="#FBBC05"/>
<path d="M94.6924 113.542V125.84H100.26C100.26 125.84 101.845 125.684 101.959 123.952V108.194L94.6924 113.542Z" fill="#34A853"/>
<path d="M78.0855 104.115L75.7856 102.514C71.7045 100.411 70.8193 105.04 70.8193 105.04V108.282L78.0855 113.384V104.115Z" fill="#C5221F"/>
<path d="M70.8184 108.194V123.952C70.9306 125.686 72.5168 125.84 72.5168 125.84H78.0845L78.0718 113.263L70.8184 108.194Z" fill="#4285F4"/>
<path d="M69.2053 168.812L55.7388 182.278C55.285 182.732 55.0303 183.347 55.0303 183.989V198.302C55.0303 199.192 55.7517 199.914 56.6424 199.914H84.0478C84.9385 199.914 85.6599 199.192 85.6599 198.302V183.989C85.6599 183.347 85.4052 182.732 84.9514 182.279L71.4848 168.812C70.8553 168.182 69.8349 168.182 69.2053 168.812Z" fill="#FAFAFA"/>
<path d="M60.6729 193.466H80.0179V199.914H60.6729V193.466Z" fill="#43A047"/>
<path d="M61.4786 184.599V199.914H56.6424C55.7557 199.914 55.0303 199.188 55.0303 198.302V184.599H61.4786Z" fill="#FBC02D"/>
<path d="M84.9502 182.278L74.8505 172.178L70.377 176.652L79.2112 185.486V199.914H84.0474C84.9341 199.914 85.6595 199.188 85.6595 198.302V183.987C85.6595 183.35 85.4016 182.729 84.9502 182.278Z" fill="#1E88E5"/>
<path d="M74.8509 172.178L55.0303 191.999V183.987C55.0303 183.35 55.2882 182.729 55.7396 182.278L69.2086 168.809C69.8373 168.18 70.8529 168.18 71.4816 168.809L74.8509 172.178Z" fill="#E64A19"/>
<path d="M433.766 176.047L424.028 170.424L412.782 189.455L422.521 195.077L433.766 176.047Z" fill="#FFC107"/>
<path d="M435.273 195.077C436.826 197.767 440.331 198.662 442.954 197.135C445.638 195.573 446.565 192.144 445.012 189.455L433.767 170.424C432.214 167.735 428.719 166.84 426.086 168.366C423.399 169.924 422.475 173.358 424.028 176.047L435.273 195.077Z" fill="#1E88E5"/>
<path d="M417.652 197.889C420.757 197.889 423.275 195.371 423.275 192.266C423.275 189.161 420.757 186.643 417.652 186.643C414.547 186.643 412.029 189.161 412.029 192.266C412.029 195.371 414.547 197.889 417.652 197.889Z" fill="#43A047"/>
</svg>
