<svg width="500" height="370" viewBox="0 0 500 370" fill="none" xmlns="http://www.w3.org/2000/svg">
<path d="M119.595 49.0905C119.595 49.0905 119.326 48.8181 118.921 49.0905L115.549 49.7716C114.875 49.7716 114.74 49.4992 114.47 49.0905C114.201 47.3198 113.391 45.8214 112.717 44.5955C112.447 44.3231 112.717 43.7782 112.987 43.5058L115.549 41.7351C115.549 41.7351 115.819 41.4626 115.819 41.054C115.819 40.7816 115.819 40.7816 115.549 40.3729L111.638 36.4228C111.638 36.4228 111.368 36.1503 110.964 36.1503C110.694 36.1503 110.694 36.1503 110.289 36.4228L108.401 39.0108C108.132 39.2832 107.592 39.6919 107.322 39.2832C105.839 38.466 104.49 37.7849 102.872 37.5125C102.197 37.5125 102.062 36.8314 102.197 36.4228L102.872 33.0174C102.872 32.745 102.872 32.745 102.872 32.3364C102.872 32.3364 102.602 32.064 102.197 32.064H96.8026C96.5329 32.064 96.5329 32.064 96.1283 32.3364C96.1283 32.3364 95.8585 32.6088 96.1283 33.0174L96.8026 36.4228C96.8026 37.1038 96.5329 37.24 96.1283 37.5125C94.375 37.7849 92.8914 38.6022 91.6776 39.2832C91.4079 39.5557 90.8684 39.2832 90.5987 39.0108L88.7105 36.4228C88.7105 36.4228 88.4408 36.1503 88.0362 36.1503C87.7664 36.1503 87.7664 36.1503 87.3618 36.4228L83.3158 40.5091C83.3158 40.5091 83.0461 40.7816 83.0461 41.1902C83.0461 41.4626 83.046 41.4626 83.3158 41.8713L85.8783 43.7782C86.148 44.0507 86.5526 44.5955 86.148 44.8679C85.3388 46.3663 84.6645 47.7284 84.3947 49.363C84.3947 50.044 83.7204 50.1802 83.3158 50.044L79.9441 49.363C79.6743 49.363 79.6743 49.363 79.2697 49.363C79.2697 49.363 79 49.6354 79 50.044V55.4925C79 55.765 79 55.765 79.2697 56.1736C79.2697 56.1736 79.5395 56.446 79.9441 56.1736L83.3158 55.4925C83.9901 55.4925 84.125 55.765 84.3947 56.1736C84.6645 57.9444 85.4737 59.4427 86.148 60.6686C86.4178 60.9411 86.148 61.4859 85.8783 61.7583L83.3158 63.6653C83.3158 63.6653 83.0461 63.9377 83.0461 64.3464C83.0461 64.6188 83.046 64.6188 83.3158 65.0274L87.3618 69.1138C87.3618 69.1138 87.6316 69.3862 88.0362 69.3862C88.3059 69.3862 88.3059 69.3862 88.7105 69.1138L90.5987 66.5258C90.8684 66.2533 91.4079 65.8447 91.6776 66.2533C93.1612 67.0706 94.5099 67.7517 96.1283 68.0241C96.8026 68.0241 96.9375 68.7052 96.8026 69.1138L96.1283 72.1105C96.1283 72.3829 96.1283 72.3829 96.1283 72.7915C96.1283 72.7915 96.398 73.064 96.8026 73.064H102.197C102.467 73.064 102.467 73.064 102.872 72.7915C102.872 72.7915 103.141 72.5191 102.872 72.1105L102.197 68.7052C102.197 68.0241 102.467 67.8879 102.872 67.6155C104.625 67.343 106.109 66.5258 107.322 65.8447C107.592 65.5723 108.132 65.8447 108.401 66.1171L110.289 68.7052C110.289 68.7052 110.559 68.9776 110.964 68.9776C111.368 68.9776 111.234 68.9776 111.638 68.7052L115.684 64.6188C115.684 64.6188 115.954 64.3464 115.954 63.9377C115.954 63.6653 115.954 63.6653 115.684 63.2567L113.122 61.3497C112.852 61.0773 112.447 60.5324 112.852 60.26C113.661 58.7616 114.336 57.3995 114.605 55.765C114.605 55.0839 115.28 54.9477 115.684 55.0839L119.056 55.765C119.326 55.765 119.326 55.765 119.73 55.765C119.73 55.765 120 55.4925 120 55.0839V50.044C119.595 49.7716 119.595 49.7716 119.595 49.0905Z" stroke="#24499F" stroke-width="2" stroke-miterlimit="10"/>
<path d="M338.965 11.9399C338.965 11.9399 332.546 17.0755 338.472 19.4458C344.595 21.816 347.064 24.5814 343.805 30.3095C340.447 36.0377 341.434 40.6795 344.496 42.8523C347.854 45.025 354.175 48.1854 349.138 55.4938C344.101 62.9997 335.904 78.2089 327.015 73.8634C318.127 69.6167 313.781 54.9012 317.337 49.173C320.892 43.4449 326.818 41.8647 323.954 35.0501C321.09 28.2356 315.065 31.6922 314.67 23.9888C314.473 15.9891 313.386 7.89066 324.349 5.61914C334.027 3.24886 341.533 8.18694 338.965 11.9399Z" stroke="#1C4599" stroke-miterlimit="10"/>
<path d="M330.377 16.9762C330.377 16.9762 331.266 66.8508 334.327 79.3936" stroke="#1C4599" stroke-miterlimit="10"/>
<path d="M338.672 25.3717L330.968 30.7048L322.179 27.4457" stroke="#1C4599" stroke-miterlimit="10"/>
<path d="M359.9 12.7302C359.9 12.7302 375.109 17.372 370.764 24.384C366.319 31.1986 368.788 33.8652 371.653 36.3342C374.517 39.0008 381.331 41.6673 376.097 48.6794C370.862 55.6915 365.332 56.8766 365.924 61.7159C366.418 66.3577 361.48 85.32 354.27 81.172C347.16 76.9252 346.37 65.6664 347.456 60.6296C348.345 55.9878 344.098 50.4571 339.95 46.9017C335.703 43.5438 333.333 36.5317 339.753 34.359C346.37 31.9887 349.234 25.4704 347.258 20.6311C345.283 16.0881 349.727 9.66855 359.9 12.7302Z" fill="#FABD41"/>
<path d="M358.521 22.9021L351.015 86.8997" stroke="white" stroke-miterlimit="10" stroke-linecap="round" stroke-linejoin="round"/>
<path d="M369.381 42.5562L355.456 48.9757L343.506 38.8033" stroke="white" stroke-miterlimit="10" stroke-linecap="round" stroke-linejoin="round"/>
<path d="M288.99 21.4213C288.99 21.4213 282.867 16.977 286.818 11.7427C290.571 6.60706 300.249 6.60706 302.323 11.5451C304.496 16.1869 301.632 19.7424 305.879 20.4337C310.125 21.125 321.384 24.878 319.113 30.4086C316.742 35.7417 310.224 36.1368 312.989 43.4452C315.854 50.556 329.779 52.0374 322.471 61.8148C315.162 71.7897 298.373 85.4189 289.781 68.4318C281.583 51.4448 299.953 54.704 289.978 43.7414C280.003 32.7789 288.398 32.2851 290.867 28.2359C293.731 23.5941 288.99 21.4213 288.99 21.4213Z" fill="#EE384E"/>
<path d="M300.348 27.8408C300.348 27.8408 301.237 47.6919 308.347 64.0863C315.458 80.4808 319.409 82.8511 319.409 82.8511" stroke="white" stroke-miterlimit="10" stroke-linecap="round" stroke-linejoin="round"/>
<path d="M425.15 61.9269H75V341.581H425.15V61.9269Z" fill="#0064B7"/>
<path d="M415.763 331.641H252.537V73.9808C252.537 73.9808 255.586 51.5787 280.558 51.5787C305.505 51.5787 415.787 51.5787 415.787 51.5787V331.641H415.763Z" fill="white"/>
<path d="M415.763 331.401H252.537C252.537 331.401 255.586 310.391 280.558 310.391C305.505 310.391 415.787 310.391 415.787 310.391V331.401H415.763Z" fill="#023EA1"/>
<path d="M273.327 92.3009H337.484" stroke="#DCE8F4" stroke-width="6" stroke-miterlimit="10"/>
<path d="M273.327 108.7H337.484" stroke="#DCE8F4" stroke-width="6" stroke-miterlimit="10"/>
<path d="M273.327 125.123H337.484" stroke="#DCE8F4" stroke-width="6" stroke-miterlimit="10"/>
<path d="M273.327 141.547H396.767" stroke="#DCE8F4" stroke-width="6" stroke-miterlimit="10"/>
<path d="M273.327 157.971H396.767" stroke="#DCE8F4" stroke-width="6" stroke-miterlimit="10"/>
<path d="M273.327 174.37H396.767" stroke="#DCE8F4" stroke-width="6" stroke-miterlimit="10"/>
<path d="M273.327 190.793H330.449" stroke="#DCE8F4" stroke-width="6" stroke-miterlimit="10"/>
<path d="M273.327 215.092H396.767" stroke="#DCE8F4" stroke-width="6" stroke-miterlimit="10"/>
<path d="M273.327 231.515H396.767" stroke="#DCE8F4" stroke-width="6" stroke-miterlimit="10"/>
<path d="M273.327 247.939H396.767" stroke="#DCE8F4" stroke-width="6" stroke-miterlimit="10"/>
<path d="M273.327 264.338H330.449" stroke="#DCE8F4" stroke-width="6" stroke-miterlimit="10"/>
<path d="M392.772 87.6907H352.847C350.638 87.6907 348.847 89.4816 348.847 91.6907V125.061C348.847 127.271 350.638 129.061 352.847 129.061H392.772C394.981 129.061 396.772 127.271 396.772 125.061V91.6907C396.772 89.4816 394.981 87.6907 392.772 87.6907Z" fill="#DCE8F4"/>
<path d="M89.2891 331.641H252.539V73.9808C252.539 73.9808 249.489 51.5787 224.518 51.5787C199.571 51.5787 89.2891 51.5787 89.2891 51.5787V331.641Z" fill="#F0F9FF"/>
<path d="M89.2891 331.401H252.539C252.539 331.401 249.489 310.391 224.518 310.391C199.571 310.391 89.2891 310.391 89.2891 310.391V331.401Z" fill="#023EA1"/>
<path d="M136.852 92.3009H108.279" stroke="#DCE8F4" stroke-width="7.36809" stroke-miterlimit="10"/>
<path d="M231.743 108.7H108.279" stroke="#DCE8F4" stroke-width="7.36809" stroke-miterlimit="10"/>
<path d="M231.743 125.123H108.279" stroke="#DCE8F4" stroke-width="7.36809" stroke-miterlimit="10"/>
<path d="M231.743 141.547H108.279" stroke="#DCE8F4" stroke-width="7.36809" stroke-miterlimit="10"/>
<path d="M165.425 157.971H108.279" stroke="#DCE8F4" stroke-width="7.36809" stroke-miterlimit="10"/>
<path d="M165.425 174.37H108.279" stroke="#DCE8F4" stroke-width="7.36809" stroke-miterlimit="10"/>
<path d="M165.425 190.793H108.279" stroke="#DCE8F4" stroke-width="7.36809" stroke-miterlimit="10"/>
<path d="M231.743 215.092H108.279" stroke="#DCE8F4" stroke-width="7.36809" stroke-miterlimit="10"/>
<path d="M231.743 231.515H108.279" stroke="#DCE8F4" stroke-width="7.36809" stroke-miterlimit="10"/>
<path d="M231.743 247.939H108.279" stroke="#DCE8F4" stroke-width="7.36809" stroke-miterlimit="10"/>
<path d="M165.425 264.338H108.279" stroke="#DCE8F4" stroke-width="7.36809" stroke-miterlimit="10"/>
<path d="M227.746 153.697H182.754C180.545 153.697 178.754 155.488 178.754 157.697V191.068C178.754 193.277 180.545 195.068 182.754 195.068H227.746C229.955 195.068 231.746 193.277 231.746 191.068V157.697C231.746 155.488 229.955 153.697 227.746 153.697Z" fill="#CADCEE"/>
<path d="M329.546 250.809C329.546 250.809 332.863 249.861 332.295 244.552C331.821 239.339 328.693 234.884 333.432 232.324C338.172 229.575 339.689 228.627 341.964 226.447C344.239 224.172 345.471 222.466 352.96 223.129C352.96 223.129 358.931 218.295 364.335 222.561C369.643 226.826 367.842 238.201 369.074 240.002C370.212 241.803 377.321 248.818 378.174 254.79C378.933 260.762 374.857 264.554 369.074 264.174C363.197 263.795 355.329 264.174 355.329 264.174H333.811C333.811 264.174 326.512 264.648 325.944 257.539C325.47 253.084 329.546 250.809 329.546 250.809Z" fill="#180857"/>
<path d="M347.463 259.435C347.463 259.435 347.463 263.891 345.568 265.692C343.672 267.493 341.112 270.716 341.112 270.716C341.112 270.716 345.568 277.635 354.288 276.593C363.009 275.55 364.621 269.483 364.621 269.483C364.621 269.483 356.374 268.346 355.426 260.573C354.478 252.8 353.246 252.8 353.246 252.8L347.463 259.435Z" fill="#FFB07E"/>
<path d="M351.54 261.9C356.943 261.9 361.304 254.506 361.304 245.501C361.304 236.4 356.943 229.101 351.54 229.101C346.137 229.101 341.776 236.495 341.776 245.501C341.776 254.601 346.137 261.9 351.54 261.9Z" fill="#FFBE9B"/>
<path d="M351.537 228.153C351.537 228.153 349.736 233.367 346.134 238.486C342.532 243.699 338.172 246.543 337.698 247.396C337.224 248.344 334.001 245.69 335.233 241.519C336.465 237.348 343.29 225.973 350.4 225.783C357.509 225.594 359.121 221.518 362.438 229.765C365.851 238.012 365.187 247.491 365.187 247.491L351.537 228.153Z" fill="#180857"/>
<path d="M342.442 243.509C342.442 243.509 338.746 243.035 338.272 245.31C337.703 247.585 339.504 249.576 342.442 250.05C345.571 250.524 342.442 243.509 342.442 243.509Z" fill="#FFBE9B"/>
<path d="M378.65 351.479C378.65 351.479 384.527 351.858 388.698 351.858C392.869 351.858 399.599 352.806 399.599 352.806C399.599 352.806 401.4 352.806 401.495 354.986C401.684 357.166 401.684 358.019 401.684 358.019C401.684 358.019 401.874 360.579 399.788 360.579C397.703 360.579 384.811 362.095 381.873 362.095C378.934 362.095 376.754 362.664 376.754 360.579C376.849 358.493 376.564 351.384 378.65 351.479Z" fill="#170856"/>
<path d="M383.389 289.958C383.389 289.958 387.276 310.908 387.465 316.406C387.844 321.998 388.413 326.169 384.621 328.255C381.019 330.435 374.952 332.425 374.952 332.425L367.464 295.077V290.622L383.389 289.958Z" fill="#FFBF99"/>
<path d="M319.217 288.821C319.217 288.821 317.132 298.3 316.563 303.04C315.994 307.779 314.667 317.164 314.478 319.344C314.288 321.524 314.004 325.221 317.985 327.97C321.966 330.814 326.137 332.426 326.137 332.426L334.194 288.916L319.217 288.821Z" fill="#FFBF99"/>
<path d="M342.818 266.829C342.818 266.829 336.846 266.07 333.623 267.018C330.495 267.966 329.452 267.397 330.21 269.862C331.158 272.327 335.424 283.702 333.338 290.811C331.253 297.921 328.504 334.416 328.504 334.416C328.504 334.416 350.591 335.364 359.217 335.743C367.843 336.217 374.194 334.511 374.194 334.511C374.194 334.511 376.09 318.775 374.194 311.95C372.298 305.03 369.739 293.465 369.739 293.465C369.739 293.465 368.127 277.54 370.307 273.559C372.488 269.578 374.194 269.483 371.35 268.44C368.506 267.397 365.473 266.544 363.293 266.544C361.113 266.544 359.88 266.544 358.648 267.871C357.321 269.198 354.667 271.853 351.065 271.284C347.462 270.715 344.619 268.251 344.619 268.251C344.619 268.251 343.671 267.018 342.818 266.829Z" fill="#DE051F"/>
<path d="M332.102 268.061C332.102 268.061 330.017 267.018 326.984 269.673C323.666 272.516 321.296 278.583 320.064 282.375C318.832 286.261 318.168 289.958 318.168 289.958C318.168 289.958 322.339 292.139 326.794 292.328C331.249 292.518 334.093 292.802 334.093 292.802C334.093 292.802 335.989 281.522 335.61 276.403C335.136 271.189 334.378 269.388 332.102 268.061Z" fill="#EE384E"/>
<path d="M368.886 272.232C368.886 272.232 370.687 267.397 374.574 269.672C378.555 271.852 381.493 280.194 382.252 282.848C383.2 285.408 384.337 290.811 384.337 290.811C384.337 290.811 379.692 292.802 375.711 293.181C371.73 293.56 368.981 293.75 368.981 293.75C368.981 293.75 367.369 283.417 367.654 279.341C367.938 275.075 368.886 272.232 368.886 272.232Z" fill="#EE384E"/>
<path d="M336.66 337.449H366.615L351.163 342.094L336.66 337.449Z" fill="#004B89"/>
<path d="M310.116 328.917C310.116 328.917 364.527 345.885 376.471 350.245C376.471 350.245 380.452 351.288 380.547 353.279C380.736 355.27 380.167 358.303 379.788 359.725C379.314 361.241 377.987 362.284 375.807 361.905C373.627 361.431 324.903 351.762 305.471 346.643L299.878 344.842C299.878 344.842 295.802 342.946 296.466 337.922C297.224 332.898 300.921 328.633 303.48 328.254C306.419 328.159 310.116 328.917 310.116 328.917Z" fill="#0064E1"/>
<path d="M305.186 353.09C305.186 353.09 312.106 351.858 316.087 351.763C320.163 351.573 325.567 351.194 326.42 351.763C327.273 352.332 328.031 360.294 328.031 360.294C328.031 360.294 328.79 362.474 323.386 362.095C317.983 361.621 305.565 361.147 305.565 361.147C305.565 361.147 302.722 360.958 302.627 358.588C302.532 356.123 303.006 354.986 303.006 354.986C303.006 354.986 303.48 353.374 305.186 353.09Z" fill="#170856"/>
<path d="M337.698 346.17C337.698 346.17 370.781 336.122 382.535 332.615C394.194 329.108 400.925 325.98 404.622 331.383C408.508 336.975 408.129 343.042 403.674 344.748C399.218 346.55 364.904 354.512 350.685 357.451C336.466 360.389 327.081 362.285 325.754 361.622C324.427 361.053 322.91 356.787 323.29 354.512C323.669 352.142 323.764 351.384 326.418 350.057C329.262 349.014 337.698 346.17 337.698 346.17Z" fill="#0054A3"/>
<path d="M333.817 298.11H373.63C373.63 298.11 375.81 297.731 375.81 300.67C375.81 303.608 375.81 334.984 375.81 334.984C375.81 334.984 376 337.354 374.199 337.354C372.398 337.354 327.466 337.354 327.466 337.354C327.466 337.354 325.57 337.923 325.57 334.795C325.57 331.667 325.57 299.911 325.57 299.911C325.57 299.911 325.38 298.11 327.75 298.11C330.12 298.11 333.817 298.11 333.817 298.11Z" fill="#0064B7"/>
<path d="M350.591 315.268L348.316 318.112L351.16 320.387L353.435 317.543L350.591 315.268Z" fill="#569ED4"/>
<path d="M156.412 184.546C156.412 184.546 191.065 151.283 193.746 148.701C196.427 146.12 198.512 144.73 201.292 143.538C204.072 142.347 204.866 141.354 207.349 138.872C209.831 136.389 207.349 135.595 207.349 135.595C207.448 134.801 206.356 134.503 206.356 134.503C206.753 134.006 205.363 133.311 205.363 133.311C205.363 133.311 206.157 131.623 207.646 130.233C209.136 128.843 207.646 129.141 207.646 129.141L203.377 133.113C201.49 132.616 198.214 134.999 196.526 137.481C194.838 139.964 193.646 140.659 193.646 140.659L150.951 174.318L156.412 184.546Z" fill="#FFBE9B"/>
<path d="M143.505 144.63C149.066 137.382 141.122 129.141 141.122 129.141C141.122 129.141 140.427 129.935 138.541 133.013C136.654 136.091 134.073 135.694 129.902 137.978C125.732 140.162 118.385 143.935 119.874 154.857C121.363 165.779 131.094 165.978 131.094 165.978C131.094 165.978 137.945 151.878 143.505 144.63Z" fill="#180857"/>
<path d="M125.828 355.227C128.708 357.511 137.148 361.482 137.148 361.482C138.141 361.979 137.843 363.369 137.743 363.865C137.743 363.965 137.545 364.064 137.446 364.064C135.46 364.064 120.963 363.965 117.091 363.865C113.318 363.766 114.807 356.915 115.105 355.723C115.105 355.624 115.105 355.426 115.204 355.426C116.396 355.028 123.247 353.043 125.828 355.227Z" fill="#170856"/>
<path d="M162.272 354.433C166.74 357.213 176.57 361.085 176.57 361.085C178.059 361.78 177.96 362.972 177.762 363.468C177.762 363.567 177.563 363.667 177.464 363.667C175.18 363.667 157.407 363.865 153.634 363.667C149.861 363.468 151.35 355.823 151.648 354.532C151.648 354.433 151.648 354.234 151.747 354.234C152.74 353.837 158.3 351.95 162.272 354.433Z" fill="#170856"/>
<path d="M127.12 233.496L133.375 256.432L134.368 277.879L125.928 355.227L115.205 355.525L113.021 233.794L127.12 233.496Z" fill="#EE384E"/>
<path d="M155.718 233.297L162.37 354.433H151.647L137.548 291.283C134.47 285.227 124.342 233.595 124.342 233.595L155.718 233.297Z" fill="#DE051F"/>
<path d="M133.474 148.105C130.793 152.375 131.488 157.339 130.893 161.808C130.297 166.276 126.623 176.403 126.623 176.403C126.623 176.403 140.127 178.389 139.432 176.403C138.737 174.418 138.339 167.765 138.637 166.077C138.935 164.389 141.417 164.687 144.595 164.687C147.673 164.687 149.063 164.389 148.964 156.744C148.864 148.999 143.503 144.63 143.503 144.63C139.332 140.659 136.155 143.836 133.474 148.105Z" fill="#FFBE9B"/>
<path d="M145.488 194.971L157.502 184.645L151.544 172.63L140.722 178.687L145.488 194.971Z" fill="#F79F03"/>
<path d="M129.602 175.609C133.077 177.198 136.95 176.999 138.538 176.006C140.127 174.914 141.517 176.602 141.517 176.602C141.517 176.602 146.68 181.964 149.56 195.269C152.439 208.574 155.716 233.794 155.716 233.794H113.021C113.021 233.794 113.318 220.886 115.602 203.113C117.886 185.241 124.34 177.893 124.34 177.893C125.333 176.304 126.127 173.921 129.602 175.609Z" fill="#FCBE42"/>
<path d="M131.882 156.545C129.797 155.751 128.506 153.17 129.598 151.978C130.691 150.787 132.974 151.382 132.974 151.382C132.974 151.382 133.967 157.34 131.882 156.545Z" fill="#FFBE9B"/>
<path d="M127.415 202.716C127.415 202.716 127.911 208.375 130.99 221.184C134.068 233.992 143.302 255.34 144.295 256.73C145.387 258.12 145.387 264.276 146.181 267.056C146.975 269.936 150.947 268.149 152.635 266.56C154.323 264.971 152.635 260.702 152.635 260.702C152.635 260.702 148.862 252.063 146.28 242.829C143.699 233.595 138.834 199.737 138.834 199.737L127.415 202.716Z" fill="#FFBE9B"/>
<path d="M125.929 204.404C125.929 204.404 125.234 196.361 125.432 189.609C125.531 182.858 130 182.857 130 182.857C137.844 182.957 140.723 201.624 140.723 201.624L125.929 204.404Z" fill="#F79F03"/>
<path d="M234.355 6.06396L228 7.85123L229.787 14.4044L236.142 12.6172L234.355 6.06396Z" fill="#0054A3"/>
</svg>
