<svg width="500" height="444" viewBox="0 0 500 444" fill="none" xmlns="http://www.w3.org/2000/svg">
<path d="M320.241 368.964H472" stroke="black" stroke-miterlimit="10"/>
<path d="M28 375.18C28.9768 375.18 147.88 375.18 147.88 375.18Z" fill="white"/>
<path d="M28 375.18C28.9768 375.18 147.88 375.18 147.88 375.18" stroke="black" stroke-miterlimit="10"/>
<path d="M240.499 47.1528C240.499 47.1528 234.727 51.7704 240.055 53.9016C245.56 56.0328 247.78 58.5192 244.85 63.6696C241.831 68.82 242.719 72.9936 245.471 74.9472C248.491 76.9008 254.174 79.7424 249.645 86.3136C245.116 93.0624 237.746 106.738 229.754 102.83C221.762 99.012 217.855 85.7808 221.051 80.6304C224.248 75.48 229.576 74.0592 227.001 67.932C224.426 61.8048 219.009 64.9128 218.654 57.9864C218.476 50.7936 217.499 43.512 227.356 41.4696C236.059 39.3384 242.807 43.7784 240.499 47.1528Z" stroke="#1C4599" stroke-miterlimit="10"/>
<path d="M232.772 51.6816C232.772 51.6816 233.572 96.5256 236.324 107.803" stroke="#1C4599" stroke-miterlimit="10"/>
<path d="M240.232 59.2296L233.306 64.0248L225.402 61.0944" stroke="#1C4599" stroke-miterlimit="10"/>
<path d="M259.324 47.8632C259.324 47.8632 272.999 52.0368 269.092 58.3416C265.096 64.4688 267.316 66.8664 269.891 69.0864C272.466 71.484 278.594 73.8816 273.887 80.1864C269.181 86.4912 264.208 87.5568 264.741 91.908C265.185 96.0816 260.745 113.131 254.262 109.402C247.869 105.583 247.158 95.46 248.135 90.9312C248.934 86.7576 245.116 81.7848 241.386 78.588C237.568 75.5688 235.437 69.264 241.209 67.3104C247.158 65.1792 249.734 59.3184 247.958 54.9672C246.182 50.8824 250.178 45.1104 259.324 47.8632Z" fill="#FABD41"/>
<path d="M258.081 57.0096L251.332 114.552" stroke="white" stroke-miterlimit="10" stroke-linecap="round" stroke-linejoin="round"/>
<path d="M267.849 74.6808L255.328 80.4528L244.583 71.3064" stroke="white" stroke-miterlimit="10" stroke-linecap="round" stroke-linejoin="round"/>
<path d="M195.565 55.6776C195.565 55.6776 190.06 51.6816 193.612 46.9752C196.986 42.3576 205.689 42.3576 207.553 46.7976C209.507 50.9712 206.932 54.168 210.75 54.7896C214.569 55.4112 224.692 58.7856 222.649 63.7584C220.518 68.5536 214.657 68.9088 217.144 75.48C219.719 81.8736 232.24 83.2056 225.669 91.9968C219.097 100.966 204.001 113.22 196.276 97.9464C188.905 82.6728 205.422 85.6032 196.453 75.7464C187.485 65.8896 195.033 65.4456 197.253 61.8048C199.828 57.6312 195.565 55.6776 195.565 55.6776Z" fill="#EE384E"/>
<path d="M205.777 61.4496C205.777 61.4496 206.577 79.2984 212.97 94.0392C219.364 108.78 222.916 110.911 222.916 110.911" stroke="white" stroke-miterlimit="10" stroke-linecap="round" stroke-linejoin="round"/>
<path d="M154.984 375.535C161.111 339.571 138.645 322.699 122.927 315.506L121.773 321.19L118.487 313.642C112.893 311.51 108.897 310.711 108.897 310.711C108.541 391.164 154.984 375.535 154.984 375.535Z" fill="#023EA1"/>
<path d="M108.896 310.622L147.88 361.682L133.139 321.19" stroke="white" stroke-miterlimit="10"/>
<path d="M148.235 363.991L110.673 335.93" stroke="white" stroke-miterlimit="10"/>
<path d="M111.826 294.461C106.143 301.654 110.85 306.449 115.112 311.599C119.374 316.661 121.506 311.066 127.011 314.086C132.517 317.105 129.586 321.19 130.119 326.784C130.652 332.378 141.042 339.66 149.122 337.884C157.203 336.197 154.806 321.811 154.095 314.352C153.385 306.893 147.524 308.225 144.327 308.402C141.13 308.58 138.2 306.005 137.401 300.588C136.602 295.171 133.405 294.55 128.254 296.148C123.015 297.746 124.614 290.998 124.614 290.998C124.436 287.09 116.977 287.978 111.826 294.461Z" stroke="#EA4E59" stroke-miterlimit="10" stroke-linecap="round" stroke-linejoin="round"/>
<path d="M156.671 337.262C148.057 330.691 121.684 298.546 121.684 298.546" stroke="#EA4E59" stroke-miterlimit="10" stroke-linecap="round" stroke-linejoin="round"/>
<path d="M134.737 325.896L143.706 324.298L145.216 313.553" stroke="#EA4E59" stroke-miterlimit="10" stroke-linecap="round" stroke-linejoin="round"/>
<path d="M121.772 309.734L129.143 307.426L131.363 299.878" stroke="#EA4E59" stroke-miterlimit="10" stroke-linecap="round" stroke-linejoin="round"/>
<path d="M309.851 380.686H142.729C136.957 380.686 132.34 376.068 132.34 370.296V93.8616C132.34 88.0896 136.957 83.472 142.729 83.472H309.851C315.623 83.472 320.241 88.0896 320.241 93.8616V370.296C320.241 375.979 315.623 380.686 309.851 380.686Z" fill="#0064B7"/>
<path d="M316.511 101.054H136.069V363.014H316.511V101.054Z" fill="white"/>
<path d="M191.747 164.014H257.459" stroke="#DCE8F4" stroke-width="4" stroke-miterlimit="10" stroke-linecap="round"/>
<path d="M192.28 169.874H257.992" stroke="#DCE8F4" stroke-width="4" stroke-miterlimit="10" stroke-linecap="round"/>
<path d="M220.519 259.296H304.435" stroke="#DCE8F4" stroke-width="4" stroke-miterlimit="10" stroke-linecap="round"/>
<path d="M221.317 265.157H305.145" stroke="#DCE8F4" stroke-width="4" stroke-miterlimit="10" stroke-linecap="round"/>
<path d="M220.519 279.276H304.435" stroke="#DCE8F4" stroke-width="4" stroke-miterlimit="10" stroke-linecap="round"/>
<path d="M221.317 285.137H305.145" stroke="#DCE8F4" stroke-width="4" stroke-miterlimit="10" stroke-linecap="round"/>
<path d="M147.613 318.259H207.731" stroke="#DCE8F4" stroke-width="4" stroke-miterlimit="10" stroke-linecap="round"/>
<path d="M148.146 324.12H208.264" stroke="#DCE8F4" stroke-width="4" stroke-miterlimit="10" stroke-linecap="round"/>
<path d="M147.613 338.15H207.731" stroke="#DCE8F4" stroke-width="4" stroke-miterlimit="10" stroke-linecap="round"/>
<path d="M148.146 344.011H208.264" stroke="#DCE8F4" stroke-width="4" stroke-miterlimit="10" stroke-linecap="round"/>
<path d="M220.519 299.167H304.435" stroke="#DCE8F4" stroke-width="4" stroke-miterlimit="10" stroke-linecap="round"/>
<path d="M221.317 305.028H305.145" stroke="#DCE8F4" stroke-width="4" stroke-miterlimit="10" stroke-linecap="round"/>
<path d="M191.747 180.797H257.459" stroke="#DCE8F4" stroke-width="4" stroke-miterlimit="10" stroke-linecap="round"/>
<path d="M192.28 186.658H257.992" stroke="#DCE8F4" stroke-width="4" stroke-miterlimit="10" stroke-linecap="round"/>
<path d="M148.324 204.24H255.95" stroke="#DCE8F4" stroke-width="4" stroke-miterlimit="10" stroke-linecap="round"/>
<path d="M149.301 210.101H256.838" stroke="#DCE8F4" stroke-width="4" stroke-miterlimit="10" stroke-linecap="round"/>
<path d="M148.324 221.822H255.95" stroke="#DCE8F4" stroke-width="4" stroke-miterlimit="10" stroke-linecap="round"/>
<path d="M149.301 227.683H256.838" stroke="#DCE8F4" stroke-width="4" stroke-miterlimit="10" stroke-linecap="round"/>
<path d="M148.324 239.405H255.95" stroke="#DCE8F4" stroke-width="4" stroke-miterlimit="10" stroke-linecap="round"/>
<path d="M149.301 245.266H256.838" stroke="#DCE8F4" stroke-width="4" stroke-miterlimit="10" stroke-linecap="round"/>
<path d="M184.821 195.982H147.969V168.454C147.969 165.523 150.366 163.126 153.297 163.126H184.821V195.982Z" fill="#DCE8F4"/>
<path d="M208.441 304.495H148.501V265.246C148.501 262.315 150.899 259.918 153.829 259.918H208.441V304.495Z" fill="#DCE8F4"/>
<path d="M316.511 117.482H136.069V150.338H316.511V117.482Z" fill="#023EA1"/>
<path d="M299.906 244.822H273.71C270.779 244.822 268.382 242.424 268.382 239.494V169.164C268.382 166.234 270.779 163.836 273.71 163.836H299.906C302.836 163.836 305.234 166.234 305.234 169.164V239.494C305.234 242.424 302.836 244.822 299.906 244.822Z" fill="#DCE8F4"/>
<path d="M305.233 347.652H218.298V321.989C218.298 319.058 220.695 316.661 223.626 316.661H305.233V347.652Z" fill="#DCE8F4"/>
<path d="M180.824 144.478V125.119H186.507L194.588 135.686V125.119" stroke="white" stroke-miterlimit="10"/>
<path d="M200.982 125.119V144.478H194.055L187.129 133.91V144.478" stroke="white" stroke-miterlimit="10"/>
<path d="M221.672 144.478H206.754V125.119H221.672" stroke="white" stroke-miterlimit="10"/>
<path d="M221.672 129.204H211.371V132.756H221.672" stroke="white" stroke-miterlimit="10"/>
<path d="M221.672 136.219H211.371V139.771H221.672" stroke="white" stroke-miterlimit="10"/>
<path d="M225.136 125.119L230.908 144.478H236.68L240.143 133.91L243.606 144.478H249.378L256.305 125.119" stroke="white" stroke-miterlimit="10"/>
<path d="M250.532 125.119L247.069 136.219L242.451 125.119H236.679L234.37 136.219L230.907 125.119" stroke="white" stroke-miterlimit="10"/>
<path d="M274.242 127.073C271.223 123.61 264.829 122.011 261.189 125.563C259.324 127.428 258.702 130.802 260.212 133.022C261.81 135.42 265.096 135.598 266.961 137.64C267.493 138.173 267.849 138.883 267.76 139.594C267.582 140.482 266.605 140.926 265.806 140.926C263.675 140.837 261.277 138.883 259.768 137.462" stroke="white" stroke-miterlimit="10"/>
<path d="M258.169 141.103C261.188 144.566 267.582 146.165 271.223 142.613C273.087 140.748 273.709 137.374 272.199 135.154C270.512 132.578 267.049 132.49 265.184 130.27C263.586 128.316 265.539 126.629 267.493 127.162C269.802 127.783 272.466 129.737 274.153 131.424" stroke="white" stroke-miterlimit="10"/>
<path d="M93.4453 264.358C93.9781 268.975 94.6885 271.55 95.5765 276.079" stroke="white" stroke-miterlimit="10"/>
<path d="M383.467 318.437C383.467 318.437 386.841 317.016 386.663 313.109C386.397 309.202 384.355 306.449 388.528 307.514C392.702 308.669 394.123 309.113 397.142 308.491C400.161 307.87 402.647 306.626 401.404 310.534C400.072 314.441 398.651 317.726 401.759 318.348C404.867 318.97 408.242 316.661 408.597 322.788C408.952 328.915 404.068 335.842 396.076 336.108C388.084 336.374 384.532 333.089 384.532 333.089C384.532 333.089 382.401 330.07 385.775 329.27C389.15 328.56 392.524 327.139 390.837 325.541C389.15 323.942 383.555 323.854 383.555 323.854C383.555 323.854 376.54 322.433 383.467 318.437Z" fill="#649EEA"/>
<path d="M420.052 319.414C419.519 315.506 419.963 312.665 427.156 311.599C434.438 310.534 438.611 314.885 439.055 319.414C439.499 323.854 433.194 325.541 433.194 325.541C433.194 325.541 428.754 326.784 430.974 330.691C433.283 334.598 434.26 338.417 429.11 338.95C423.959 339.482 418.276 338.15 415.168 336.108C412.06 333.977 408.774 328.738 412.415 325.896C412.415 325.896 413.392 325.186 416.855 325.008C420.407 324.83 420.052 319.414 420.052 319.414Z" fill="#023EA1"/>
<path d="M394.478 318.792C394.478 318.792 400.516 332.467 401.315 341.702" stroke="#023EA1" stroke-miterlimit="10"/>
<path d="M428.045 321.012C428.045 321.012 417.389 336.907 414.813 342.146" stroke="#649EEA" stroke-miterlimit="10"/>
<path d="M397.586 340.637H422.095C422.095 340.637 424.759 340.814 424.581 344.455C424.404 347.83 420.141 347.119 417.921 347.119C415.701 347.119 397.142 347.119 397.142 347.119C397.142 347.119 394.123 347.652 394.123 344.189C394.123 340.814 395.189 340.637 397.586 340.637Z" fill="#0054A5"/>
<path d="M397.142 347.119L400.871 368.786H417.299L420.052 352.536L397.142 347.119Z" fill="#0054A5"/>
<path d="M397.142 347.119L420.052 352.536L420.94 347.119H397.142Z" fill="#006AD5"/>
<path d="M407.709 341.436C407.709 341.436 408.952 317.371 416.145 302.364" stroke="#FCBE42" stroke-miterlimit="10"/>
<path d="M422.006 293.662C422.006 293.662 422.628 301.032 415.435 303.874C415.346 303.962 413.836 297.658 422.006 293.662Z" fill="#FCBE42"/>
<path d="M411.172 317.194C411.172 317.194 413.836 310.889 422.005 311.777C422.005 311.688 421.384 317.993 411.172 317.194Z" fill="#FCBE42"/>
<path d="M408.508 333C408.508 333 409.84 326.34 418.009 325.541C418.009 325.541 418.631 331.757 408.508 333Z" fill="#FCBE42"/>
<path d="M408.241 333C408.241 333 409.218 326.251 401.759 322.788C401.67 322.788 399.006 328.471 408.241 333Z" fill="#FCBE42"/>
<path d="M411.261 317.105C411.261 317.105 413.037 310.534 406.111 306.182C406.111 306.182 402.737 311.422 411.261 317.105Z" fill="#FCBE42"/>
<path d="M118.843 242.513C118.843 242.513 149.834 212.765 152.232 210.456C154.629 208.147 156.494 206.904 158.981 205.838C161.467 204.773 162.177 203.885 164.397 201.665C166.617 199.445 164.397 198.734 164.397 198.734C164.486 198.024 163.509 197.758 163.509 197.758C163.865 197.314 162.621 196.692 162.621 196.692C162.621 196.692 163.332 195.182 164.664 193.939C165.996 192.696 164.664 192.962 164.664 192.962L160.845 196.514C159.158 196.07 156.228 198.202 154.718 200.422C153.209 202.642 152.143 203.263 152.143 203.263L113.959 233.366L118.843 242.513Z" fill="#FFBE9B"/>
<path d="M107.299 206.815C112.272 200.333 105.168 192.962 105.168 192.962C105.168 192.962 104.546 193.673 102.859 196.426C101.172 199.178 98.8631 198.823 95.1335 200.866C91.4039 202.819 84.8327 206.194 86.1647 215.962C87.4967 225.73 96.1991 225.907 96.1991 225.907C96.1991 225.907 102.326 213.298 107.299 206.815Z" fill="#180857"/>
<path d="M91.4919 395.16C94.0671 397.202 101.615 400.754 101.615 400.754C102.503 401.198 102.237 402.442 102.148 402.886C102.148 402.974 101.97 403.063 101.881 403.063C100.105 403.063 87.1407 402.974 83.6775 402.886C80.3031 402.797 81.6351 396.67 81.9015 395.604C81.9015 395.515 81.9015 395.338 81.9903 395.338C83.0559 394.982 89.1831 393.206 91.4919 395.16Z" fill="#170856"/>
<path d="M124.082 394.45C128.078 396.936 136.869 400.399 136.869 400.399C138.201 401.021 138.112 402.086 137.935 402.53C137.935 402.619 137.757 402.708 137.668 402.708C135.626 402.708 119.731 402.886 116.356 402.708C112.982 402.53 114.314 395.693 114.58 394.538C114.58 394.45 114.58 394.272 114.669 394.272C115.557 393.917 120.53 392.23 124.082 394.45Z" fill="#170856"/>
<path d="M92.6467 286.291L98.2411 306.804L99.1291 325.985L91.5811 395.16L81.9907 395.426L80.0371 286.558L92.6467 286.291Z" fill="#0064E1"/>
<path d="M118.221 286.114L124.171 394.45H114.58L101.971 337.973C99.2178 332.556 90.1602 286.38 90.1602 286.38L118.221 286.114Z" fill="#003EB0"/>
<path d="M98.3303 209.923C95.9327 213.742 96.5543 218.182 96.0215 222.178C95.4887 226.174 92.2031 235.231 92.2031 235.231C92.2031 235.231 104.28 237.007 103.658 235.231C103.037 233.455 102.682 227.506 102.948 225.996C103.214 224.486 105.434 224.753 108.276 224.753C111.029 224.753 112.272 224.486 112.183 217.649C112.094 210.722 107.299 206.815 107.299 206.815C103.57 203.263 100.728 206.105 98.3303 209.923Z" fill="#FFBE9B"/>
<path d="M109.075 251.837L119.82 242.602L114.492 231.857L104.812 237.274L109.075 251.837Z" fill="#F79F03"/>
<path d="M94.8667 234.521C97.9747 235.942 101.438 235.764 102.859 234.876C104.28 233.899 105.523 235.409 105.523 235.409C105.523 235.409 110.14 240.204 112.716 252.103C115.291 264.002 118.221 286.558 118.221 286.558H80.0371C80.0371 286.558 80.3035 275.014 82.3459 259.118C84.3883 243.134 90.1603 236.563 90.1603 236.563C91.0483 235.142 91.7587 233.011 94.8667 234.521Z" fill="#FCBE42"/>
<path d="M96.9093 217.471C95.0445 216.761 93.8901 214.452 94.8669 213.386C95.8437 212.321 97.8861 212.854 97.8861 212.854C97.8861 212.854 98.7741 218.182 96.9093 217.471Z" fill="#FFBE9B"/>
<path d="M92.9131 258.763C92.9131 258.763 93.3571 263.825 96.1099 275.28C98.8627 286.735 107.121 305.827 108.009 307.07C108.986 308.314 108.986 313.819 109.696 316.306C110.407 318.881 113.959 317.282 115.468 315.862C116.978 314.441 115.468 310.622 115.468 310.622C115.468 310.622 112.094 302.897 109.785 294.638C107.476 286.38 103.125 256.099 103.125 256.099L92.9131 258.763Z" fill="#FFBE9B"/>
<path d="M91.5814 260.273C91.5814 260.273 90.9598 253.08 91.1374 247.042C91.2262 241.003 95.2222 241.003 95.2222 241.003C102.237 241.092 104.813 257.786 104.813 257.786L91.5814 260.273Z" fill="#F79F03"/>
<path d="M326.279 296.503C326.279 296.503 329.387 295.615 328.855 290.642C328.411 285.758 325.48 281.585 329.92 279.187C334.36 276.612 335.781 275.724 337.912 273.682C340.043 271.55 341.198 269.952 348.213 270.574C348.213 270.574 353.807 266.045 358.869 270.041C363.842 274.037 362.155 284.693 363.309 286.38C364.375 288.067 371.035 294.638 371.834 300.233C372.544 305.827 368.726 309.379 363.309 309.024C357.803 308.669 350.433 309.024 350.433 309.024H330.275C330.275 309.024 323.438 309.468 322.905 302.808C322.461 298.634 326.279 296.503 326.279 296.503Z" fill="#180857"/>
<path d="M343.063 304.584C343.063 304.584 343.063 308.758 341.287 310.445C339.511 312.132 337.113 315.151 337.113 315.151C337.113 315.151 341.287 321.634 349.456 320.657C357.626 319.68 359.136 313.997 359.136 313.997C359.136 313.997 351.41 312.931 350.522 305.65C349.634 298.368 348.48 298.368 348.48 298.368L343.063 304.584Z" fill="#FFB07E"/>
<path d="M346.881 306.893C351.942 306.893 356.027 299.966 356.027 291.53C356.027 283.006 351.942 276.168 346.881 276.168C341.819 276.168 337.734 283.094 337.734 291.53C337.734 300.055 341.819 306.893 346.881 306.893Z" fill="#FFBE9B"/>
<path d="M346.881 275.28C346.881 275.28 345.193 280.164 341.819 284.959C338.445 289.843 334.36 292.507 333.916 293.306C333.472 294.194 330.453 291.708 331.607 287.801C332.761 283.894 339.155 273.238 345.815 273.06C352.475 272.882 353.985 269.064 357.093 276.79C360.289 284.515 359.668 293.395 359.668 293.395L346.881 275.28Z" fill="#180857"/>
<path d="M338.356 289.666C338.356 289.666 334.893 289.222 334.449 291.353C333.916 293.484 335.603 295.349 338.356 295.793C341.286 296.237 338.356 289.666 338.356 289.666Z" fill="#FFBE9B"/>
<path d="M372.278 390.809C372.278 390.809 377.784 391.164 381.691 391.164C385.598 391.164 391.903 392.052 391.903 392.052C391.903 392.052 393.59 392.052 393.679 394.094C393.856 396.137 393.856 396.936 393.856 396.936C393.856 396.936 394.034 399.334 392.08 399.334C390.127 399.334 378.05 400.754 375.297 400.754C372.544 400.754 370.502 401.287 370.502 399.334C370.591 397.38 370.324 390.72 372.278 390.809Z" fill="#170856"/>
<path d="M376.718 333.178C376.718 333.178 380.359 352.802 380.537 357.953C380.892 363.192 381.425 367.099 377.873 369.053C374.498 371.095 368.815 372.96 368.815 372.96L361.8 337.973V333.799L376.718 333.178Z" fill="#FFBF99"/>
<path d="M316.6 332.112C316.6 332.112 314.647 340.992 314.114 345.432C313.581 349.872 312.338 358.663 312.16 360.706C311.983 362.748 311.716 366.211 315.446 368.786C319.175 371.45 323.083 372.96 323.083 372.96L330.631 332.201L316.6 332.112Z" fill="#FFBF99"/>
<path d="M338.712 311.51C338.712 311.51 333.117 310.8 330.098 311.688C327.168 312.576 326.191 312.043 326.901 314.352C327.789 316.661 331.785 327.317 329.832 333.977C327.878 340.637 325.303 374.825 325.303 374.825C325.303 374.825 345.993 375.713 354.074 376.068C362.155 376.512 368.104 374.914 368.104 374.914C368.104 374.914 369.88 360.173 368.104 353.779C366.328 347.297 363.931 336.463 363.931 336.463C363.931 336.463 362.421 321.545 364.464 317.815C366.506 314.086 368.104 313.997 365.44 313.02C362.776 312.043 359.935 311.244 357.892 311.244C355.85 311.244 354.696 311.244 353.541 312.487C352.298 313.73 349.812 316.217 346.437 315.684C343.063 315.151 340.399 312.842 340.399 312.842C340.399 312.842 339.511 311.688 338.712 311.51Z" fill="#DE051F"/>
<path d="M328.677 312.665C328.677 312.665 326.723 311.688 323.881 314.174C320.773 316.838 318.553 322.522 317.399 326.074C316.245 329.714 315.623 333.178 315.623 333.178C315.623 333.178 319.53 335.22 323.704 335.398C327.877 335.575 330.541 335.842 330.541 335.842C330.541 335.842 332.317 325.274 331.962 320.479C331.518 315.595 330.808 313.908 328.677 312.665Z" fill="#EE384E"/>
<path d="M363.131 316.572C363.131 316.572 364.818 312.043 368.459 314.174C372.189 316.217 374.942 324.031 375.652 326.518C376.54 328.915 377.606 333.977 377.606 333.977C377.606 333.977 373.254 335.842 369.525 336.197C365.795 336.552 363.22 336.73 363.22 336.73C363.22 336.73 361.71 327.05 361.977 323.232C362.243 319.236 363.131 316.572 363.131 316.572Z" fill="#EE384E"/>
<path d="M332.939 377.666H361L346.526 382.018L332.939 377.666Z" fill="#004B89"/>
<path d="M308.075 369.674C308.075 369.674 359.047 385.57 370.235 389.654C370.235 389.654 373.965 390.631 374.054 392.496C374.231 394.361 373.699 397.202 373.343 398.534C372.899 399.955 371.656 400.932 369.614 400.577C367.571 400.133 321.928 391.075 303.724 386.28L298.485 384.593C298.485 384.593 294.667 382.817 295.288 378.11C295.999 373.404 299.462 369.408 301.859 369.053C304.612 368.964 308.075 369.674 308.075 369.674Z" fill="#0064E1"/>
<path d="M303.458 392.318C303.458 392.318 309.941 391.164 313.67 391.075C317.489 390.898 322.55 390.542 323.349 391.075C324.149 391.608 324.859 399.067 324.859 399.067C324.859 399.067 325.569 401.11 320.508 400.754C315.446 400.31 303.813 399.866 303.813 399.866C303.813 399.866 301.149 399.689 301.061 397.469C300.972 395.16 301.416 394.094 301.416 394.094C301.416 394.094 301.86 392.585 303.458 392.318Z" fill="#170856"/>
<path d="M333.916 385.836C333.916 385.836 364.907 376.423 375.919 373.138C386.841 369.852 393.146 366.922 396.609 371.983C400.25 377.222 399.895 382.906 395.721 384.504C391.548 386.191 359.402 393.65 346.082 396.403C332.762 399.156 323.971 400.932 322.728 400.31C321.484 399.778 320.063 395.782 320.419 393.65C320.774 391.43 320.863 390.72 323.349 389.477C326.013 388.5 333.916 385.836 333.916 385.836Z" fill="#0054A3"/>
<path d="M330.275 340.814H367.571C367.571 340.814 369.613 340.459 369.613 343.212C369.613 345.965 369.613 375.358 369.613 375.358C369.613 375.358 369.791 377.578 368.104 377.578C366.416 377.578 324.325 377.578 324.325 377.578C324.325 377.578 322.549 378.11 322.549 375.18C322.549 372.25 322.549 342.502 322.549 342.502C322.549 342.502 322.372 340.814 324.592 340.814C326.812 340.814 330.275 340.814 330.275 340.814Z" fill="#0064B7"/>
<path d="M345.993 356.887L343.861 359.551L346.525 361.682L348.657 359.018L345.993 356.887Z" fill="#569ED4"/>
<path d="M344.661 237.895L338.978 239.494L340.576 245.354L346.259 243.756L344.661 237.895Z" fill="#ED3B4E"/>
<path d="M110.729 116.1C110.729 116.1 110.551 115.922 110.285 116.1L108.065 116.544C107.621 116.544 107.532 116.366 107.354 116.1C107.177 114.945 106.644 113.969 106.2 113.169C106.022 112.992 106.2 112.637 106.378 112.459L108.065 111.305C108.065 111.305 108.242 111.127 108.242 110.861C108.242 110.683 108.242 110.683 108.065 110.417L105.49 107.841C105.49 107.841 105.312 107.664 105.046 107.664C104.868 107.664 104.868 107.664 104.602 107.841L103.358 109.529C103.181 109.706 102.826 109.973 102.648 109.706C101.671 109.173 100.783 108.729 99.7176 108.552C99.2736 108.552 99.1848 108.108 99.2736 107.841L99.7176 105.621C99.7176 105.444 99.7176 105.444 99.7176 105.177C99.7176 105.177 99.54 105 99.2736 105H95.7216C95.544 105 95.544 105 95.2776 105.177C95.2776 105.177 95.1 105.355 95.2776 105.621L95.7216 107.841C95.7216 108.285 95.544 108.374 95.2776 108.552C94.1232 108.729 93.1464 109.262 92.3472 109.706C92.1696 109.884 91.8144 109.706 91.6368 109.529L90.3936 107.841C90.3936 107.841 90.216 107.664 89.9496 107.664C89.772 107.664 89.772 107.664 89.5056 107.841L86.8416 110.505C86.8416 110.505 86.664 110.683 86.664 110.949C86.664 111.127 86.664 111.127 86.8416 111.393L88.5288 112.637C88.7064 112.814 88.9728 113.169 88.7064 113.347C88.1736 114.324 87.7296 115.212 87.552 116.277C87.552 116.721 87.108 116.81 86.8416 116.721L84.6216 116.277C84.444 116.277 84.444 116.277 84.1776 116.277C84.1776 116.277 84 116.455 84 116.721V120.273C84 120.451 84 120.451 84.1776 120.717C84.1776 120.717 84.3552 120.895 84.6216 120.717L86.8416 120.273C87.2856 120.273 87.3744 120.451 87.552 120.717C87.7296 121.872 88.2624 122.849 88.7064 123.648C88.884 123.825 88.7064 124.181 88.5288 124.358L86.8416 125.601C86.8416 125.601 86.664 125.779 86.664 126.045C86.664 126.223 86.664 126.223 86.8416 126.489L89.5056 129.153C89.5056 129.153 89.6832 129.331 89.9496 129.331C90.1272 129.331 90.1272 129.331 90.3936 129.153L91.6368 127.466C91.8144 127.289 92.1696 127.022 92.3472 127.289C93.324 127.821 94.212 128.265 95.2776 128.443C95.7216 128.443 95.8104 128.887 95.7216 129.153L95.2776 131.107C95.2776 131.285 95.2776 131.285 95.2776 131.551C95.2776 131.551 95.4552 131.729 95.7216 131.729H99.2736C99.4512 131.729 99.4512 131.729 99.7176 131.551C99.7176 131.551 99.8952 131.373 99.7176 131.107L99.2736 128.887C99.2736 128.443 99.4512 128.354 99.7176 128.177C100.872 127.999 101.849 127.466 102.648 127.022C102.826 126.845 103.181 127.022 103.358 127.2L104.602 128.887C104.602 128.887 104.779 129.065 105.046 129.065C105.312 129.065 105.223 129.065 105.49 128.887L108.154 126.223C108.154 126.223 108.331 126.045 108.331 125.779C108.331 125.601 108.331 125.601 108.154 125.335L106.466 124.092C106.289 123.914 106.022 123.559 106.289 123.381C106.822 122.405 107.266 121.517 107.443 120.451C107.443 120.007 107.887 119.918 108.154 120.007L110.374 120.451C110.551 120.451 110.551 120.451 110.818 120.451C110.818 120.451 110.995 120.273 110.995 120.007V116.721C110.729 116.544 110.729 116.544 110.729 116.1Z" stroke="#24499F" stroke-width="2" stroke-miterlimit="10"/>
</svg>
