<svg width="500" height="370" viewBox="0 0 500 370" fill="none" xmlns="http://www.w3.org/2000/svg">
<path d="M264.878 266.789C264.878 266.789 265.005 261.888 268.991 261.707C272.977 261.517 276.384 266.463 274.663 269.534C272.941 272.605 270.232 272.569 271.365 275.015C272.497 277.461 274.599 284.745 271.012 285.968C267.433 287.191 264.924 283.848 262.315 288.251C259.705 292.663 263.954 300.273 256.344 300.608C248.734 300.943 235.798 298.126 241.505 286.811C247.203 275.514 252.068 286.249 254.07 276.7C256.073 267.152 259.198 271.238 262.324 270.631C265.449 270.024 264.878 266.789 264.878 266.789Z" stroke="#023EA1" stroke-miterlimit="10"/>
<path d="M265.613 275.07C265.613 275.07 255.973 283.758 250.166 294.067C244.359 304.377 244.631 307.466 244.631 307.466" stroke="#023EA1" stroke-miterlimit="10"/>
<path d="M237.926 257.014C237.926 257.014 237.944 260.755 240.463 263.074C242.981 265.394 244.522 266.979 241.921 268.728C239.321 270.476 236.685 272.052 237.772 275.232C238.859 278.421 244.875 284.817 240.418 288.64C235.96 292.463 228.414 296.848 224.301 290.95C220.188 285.053 217.86 285.17 217.534 279.898C217.207 274.625 223.114 275.595 222.716 271.029C222.317 266.454 219.083 264.868 223.794 262.884C228.495 260.9 229.401 262.413 227.435 257.222C225.479 252.031 231.965 251.352 234.909 252.375C237.845 253.39 237.926 257.014 237.926 257.014Z" stroke="#DE051F" stroke-miterlimit="10"/>
<path d="M232.617 263.718C232.617 263.718 226.429 282.244 226.275 294.791" stroke="#DE051F" stroke-miterlimit="10"/>
<path d="M237.001 305.319C237.001 305.319 241.694 279.273 251.596 263.799" stroke="#FCBE42" stroke-miterlimit="10"/>
<path d="M259.231 255.157C259.231 255.157 258.851 263.292 250.598 265.43C250.589 265.43 249.764 258.336 259.231 255.157Z" fill="#FCBE42"/>
<path d="M244.192 279.282C244.192 279.282 247.961 272.786 256.749 274.834C256.74 274.834 255.172 281.583 244.192 279.282Z" fill="#FCBE42"/>
<path d="M239.063 296.178C239.063 296.178 241.482 289.066 250.515 289.356C250.506 289.356 250.288 296.295 239.063 296.178Z" fill="#FCBE42"/>
<path d="M238.748 296.186C238.748 296.186 240.723 288.939 233.077 284.137C233.086 284.137 229.38 289.999 238.748 296.186Z" fill="#FCBE42"/>
<path d="M244.293 279.237C244.293 279.237 247.174 272.289 240.207 266.554C240.207 266.563 235.795 271.908 244.293 279.237Z" fill="#FCBE42"/>
<path d="M297.545 292.128H176.293C173.413 292.128 171.075 294.466 171.075 297.347V333.611C171.075 336.492 173.413 338.83 176.293 338.83H302.763V297.347C302.763 294.466 300.426 292.128 297.545 292.128Z" fill="#B0E6FF"/>
<path d="M200.045 329.862C207.52 329.862 213.579 323.802 213.579 316.327C213.579 308.852 207.52 302.792 200.045 302.792C192.569 302.792 186.51 308.852 186.51 316.327C186.51 323.802 192.569 329.862 200.045 329.862Z" fill="#0064B7"/>
<mask id="mask0_1398_1645" style="mask-type:luminance" maskUnits="userSpaceOnUse" x="186" y="302" width="28" height="28">
<path d="M200.045 329.862C207.52 329.862 213.579 323.802 213.579 316.327C213.579 308.852 207.52 302.792 200.045 302.792C192.569 302.792 186.51 308.852 186.51 316.327C186.51 323.802 192.569 329.862 200.045 329.862Z" fill="white"/>
</mask>
<g mask="url(#mask0_1398_1645)">
<path d="M211.24 329.509C211.24 329.509 212.554 336.765 212.653 338.686C212.762 340.597 212.952 342.056 211.693 342.826C210.425 343.578 208.359 344.285 208.359 344.285L205.786 331.321V329.808L211.24 329.509Z" fill="#FFBF99"/>
<path d="M189 329.1C189 329.1 188.294 332.38 188.094 334.038C187.895 335.696 187.433 338.93 187.388 339.691C187.333 340.443 187.243 341.711 188.602 342.671C189.961 343.632 191.419 344.184 191.419 344.184L194.2 329.1H189Z" fill="#FFBF99"/>
<path d="M198.967 318.673C198.967 318.673 198.967 320.186 198.323 320.839C197.68 321.491 196.811 322.56 196.811 322.56C196.811 322.56 198.323 324.933 201.34 324.607C204.357 324.281 204.901 322.125 204.901 322.125C204.901 322.125 202.038 321.744 201.712 319.054C201.386 316.363 200.96 316.363 200.96 316.363L198.967 318.673Z" fill="#FFB07E"/>
<path d="M197.144 321.464C197.144 321.464 195.078 321.21 193.973 321.518C192.868 321.817 192.514 321.627 192.813 322.478C193.112 323.33 194.634 327.271 193.919 329.735C193.212 332.208 192.261 344.855 192.261 344.855C192.261 344.855 199.925 345.154 202.906 345.308C205.886 345.453 208.097 344.9 208.097 344.9C208.097 344.9 208.758 339.456 208.097 337.091C207.435 334.718 206.584 330.686 206.584 330.686C206.584 330.686 206.031 325.142 206.783 323.783C207.535 322.424 208.097 322.37 207.136 322.016C206.176 321.663 205.116 321.355 204.355 321.355C203.594 321.355 203.195 321.355 202.742 321.808C202.29 322.261 201.384 323.167 200.124 322.968C198.856 322.768 197.914 321.917 197.914 321.917C197.914 321.917 197.497 321.518 197.144 321.464Z" fill="#243641"/>
<path d="M193.484 321.898C193.484 321.898 192.777 321.545 191.718 322.451C190.576 323.42 189.752 325.522 189.344 326.836C188.936 328.149 188.683 329.454 188.683 329.454C188.683 329.454 190.141 330.206 191.663 330.26C193.176 330.314 194.182 330.405 194.182 330.405C194.182 330.405 194.843 326.464 194.68 324.707C194.535 322.94 194.29 322.342 193.484 321.898Z" fill="#8EAACF"/>
<path d="M206.204 323.357C206.204 323.357 206.811 321.699 208.17 322.451C209.529 323.203 210.543 326.083 210.842 326.998C211.141 327.904 211.549 329.725 211.549 329.725C211.549 329.725 209.936 330.432 208.568 330.532C207.2 330.622 206.249 330.731 206.249 330.731C206.249 330.731 205.697 327.152 205.796 325.739C205.896 324.317 206.204 323.357 206.204 323.357Z" fill="#8EAACF"/>
<path d="M203.968 315.348C204.149 313.092 204.113 309.65 200.235 309.65H200.226H200.217C196.331 309.65 196.312 313.092 196.485 315.348C196.213 314.814 195.434 314.986 195.488 315.819C195.551 316.635 196.657 317.051 196.648 316.961C196.965 318.818 198.786 319.887 200.208 319.887H200.217H200.226C201.648 319.887 203.478 318.809 203.786 316.961C203.777 317.051 204.883 316.635 204.946 315.819C205.019 314.968 204.23 314.814 203.968 315.348Z" fill="#FFBF99"/>
<path d="M196.517 315.286C196.517 315.277 196.517 315.268 196.517 315.258C196.517 315.268 196.517 315.268 196.508 315.277C196.508 315.268 196.517 315.286 196.517 315.286Z" fill="#915F41"/>
<path d="M204.789 311.915C204.725 311.136 204.426 310.185 203.973 309.569C203.774 309.306 202.941 308.319 203.566 308.047C203.276 307.685 202.859 308.11 202.787 308.436C202.769 308.545 202.624 308.817 202.633 308.898C202.515 308.147 202.615 307.576 201.899 307.141C200.748 306.452 199.589 308.074 198.465 308.119C197.922 308.147 196.943 308.364 196.798 307.567C196.789 307.54 196.572 307.848 196.554 307.893C196.499 308.029 196.481 308.192 196.509 308.328C196.554 308.59 196.762 309.053 197.052 309.053C196.672 309.053 196.445 309.034 196.246 308.654C196.164 308.88 196.327 309.034 196.427 309.197C196.228 309.216 195.856 308.844 195.793 308.645C195.584 308.899 195.711 309.27 195.847 309.533C195.893 309.614 196.481 310.122 196.49 310.04C196.409 310.792 196.083 311.526 195.92 312.269C195.829 312.667 196.137 313.718 196.246 313.573C196.255 313.8 196.499 315.032 196.518 315.258C196.644 314.941 196.744 314.615 196.817 314.262C196.844 314.108 196.898 313.945 196.934 313.791C196.98 313.519 197.016 313.301 197.079 313.03C197.088 313.002 197.088 312.966 197.097 312.948C197.414 311.816 198.311 311.689 199.344 311.897C199.371 311.906 199.417 311.906 199.453 311.915C200.078 312.006 200.766 311.87 201.301 311.535C201.618 311.335 201.899 311.145 202.134 310.855C202.143 310.837 202.162 310.81 202.18 310.792C202.261 310.665 202.361 310.511 202.452 310.448C202.515 310.774 202.442 311.064 202.642 311.345C202.841 311.607 202.995 311.888 203.122 312.178C203.385 312.767 203.765 314.071 203.847 314.09C203.91 314.506 203.955 314.914 203.973 315.249L203.983 315.358C203.983 315.331 203.992 315.294 203.992 315.267C204.019 314.923 204.191 313.954 204.209 313.564C204.39 313.637 204.843 312.595 204.789 311.915Z" fill="#915F41"/>
</g>
<path d="M213.97 191.569H317.238C320.119 191.569 322.457 193.906 322.457 196.787V238.171C322.457 241.051 320.119 243.389 317.238 243.389H208.752V196.787C208.752 193.906 211.089 191.569 213.97 191.569Z" fill="#B0E6FF"/>
<path d="M233.094 233.44C241.389 233.44 248.114 226.715 248.114 218.42C248.114 210.124 241.389 203.399 233.094 203.399C224.798 203.399 218.073 210.124 218.073 218.42C218.073 226.715 224.798 233.44 233.094 233.44Z" fill="#0064B7"/>
<mask id="mask1_1398_1645" style="mask-type:luminance" maskUnits="userSpaceOnUse" x="218" y="203" width="31" height="31">
<path d="M233.096 233.44C241.391 233.44 248.116 226.715 248.116 218.42C248.116 210.124 241.391 203.399 233.096 203.399C224.8 203.399 218.075 210.124 218.075 218.42C218.075 226.715 224.8 233.44 233.096 233.44Z" fill="white"/>
</mask>
<g mask="url(#mask1_1398_1645)">
<path d="M228.993 213.083C229.003 213.092 229.012 213.11 229.021 213.128C229.238 212.974 229.492 212.839 229.773 212.721C229.854 212.694 229.936 212.657 230.026 212.63H230.035C230.108 212.612 230.189 212.576 230.262 212.558C230.28 212.549 230.307 212.549 230.325 212.54C230.407 212.522 230.488 212.494 230.579 212.476C230.588 212.476 230.588 212.476 230.597 212.476C230.679 212.458 230.778 212.431 230.86 212.422C230.887 212.413 230.932 212.413 230.968 212.404C231.032 212.395 231.086 212.386 231.15 212.377C231.195 212.368 231.231 212.367 231.267 212.358C231.349 212.349 231.449 212.34 231.53 212.331C231.584 212.331 231.648 212.322 231.693 212.322C231.739 212.322 231.775 212.313 231.82 212.313C231.883 212.313 231.956 212.304 232.019 212.304C232.037 212.304 232.065 212.304 232.092 212.304C232.164 212.304 232.237 212.304 232.318 212.304C232.518 212.304 232.699 212.313 232.88 212.322C232.88 212.322 232.88 212.322 232.889 212.322C236.585 212.54 237.319 214.968 237.355 217.395C237.745 217.477 238.198 217.676 238.243 218.202C238.352 219.543 238.044 219.207 237.238 220.82C237.102 221.101 236.902 221.173 236.703 221.155C236.268 222.088 235.525 222.731 233.985 223.791L234.257 227.225C235.299 226.881 235.58 227.008 235.888 227.143C237.908 228.049 240.381 228.049 239.285 228.258C237.808 228.539 239.448 229.082 240.671 228.077C242.927 226.174 240.997 223.239 240.997 223.239C240.843 225.404 238.171 225.513 238.361 223.456C238.56 221.4 242.574 217.332 240.997 212.159C239.421 206.986 231.014 206.406 228.966 209.106C226.855 211.924 228.993 213.083 228.993 213.083Z" fill="#772635"/>
<path d="M230.876 223.257C230.876 223.257 230.876 225.078 230.097 225.857C229.318 226.637 228.276 227.932 228.276 227.932C228.276 227.932 230.097 230.795 233.73 230.396C237.363 230.007 238.015 227.407 238.015 227.407C238.015 227.407 234.573 226.945 234.183 223.71C233.794 220.458 233.277 220.458 233.277 220.458L230.876 223.257Z" fill="#FFB07E"/>
<path d="M228.696 226.627C228.696 226.627 226.214 226.328 224.873 226.691C223.532 227.053 223.115 226.818 223.478 227.841C223.831 228.865 225.661 233.603 224.819 236.584C223.976 239.564 222.816 254.784 222.816 254.784C222.816 254.784 232.039 255.146 235.617 255.328C239.196 255.509 241.859 254.847 241.859 254.847C241.859 254.847 242.657 248.288 241.859 245.435C241.062 242.581 240.038 237.725 240.038 237.725C240.038 237.725 239.368 231.048 240.283 229.409C241.189 227.769 241.859 227.705 240.709 227.289C239.558 226.872 238.29 226.491 237.366 226.491C236.451 226.491 235.971 226.491 235.427 227.035C234.884 227.579 233.787 228.675 232.274 228.43C230.762 228.185 229.602 227.153 229.602 227.153C229.602 227.153 229.122 226.691 228.696 226.627Z" fill="#3E4753"/>
<path d="M224.289 227.144C224.289 227.144 223.447 226.718 222.169 227.814C220.802 228.983 219.796 231.511 219.316 233.096C218.836 234.681 218.519 236.249 218.519 236.249C218.519 236.249 220.276 237.155 222.097 237.218C223.918 237.281 225.132 237.399 225.132 237.399C225.132 237.399 225.929 232.67 225.739 230.541C225.567 228.403 225.268 227.688 224.289 227.144Z" fill="#9DCAD1"/>
<path d="M239.582 228.911C239.582 228.911 240.316 226.908 241.956 227.814C243.595 228.72 244.809 232.181 245.172 233.277C245.534 234.373 246.014 236.557 246.014 236.557C246.014 236.557 244.076 237.399 242.436 237.526C240.796 237.653 239.645 237.771 239.645 237.771C239.645 237.771 238.975 233.458 239.102 231.764C239.22 230.052 239.582 228.911 239.582 228.911Z" fill="#9DCAD1"/>
<path d="M227.896 217.567L228.122 217.576L228.548 220.793C228.548 220.793 227.715 221.608 227.334 220.838C226.537 219.225 226.238 219.551 226.356 218.22C226.428 217.332 227.742 217.359 227.742 217.359L227.896 217.567Z" fill="#FFB07E"/>
<path d="M236.719 217.541L236.493 217.559L236.04 220.775C236.04 220.775 236.864 221.582 237.254 220.803C238.051 219.181 238.35 219.516 238.26 218.184C238.187 217.297 236.874 217.324 236.874 217.324L236.719 217.541Z" fill="#FFB07E"/>
<path d="M232.336 212.277C227.299 212.277 227.154 215.937 227.345 218.899C227.535 221.852 229.854 224.561 232.336 224.561C234.583 224.561 237.138 221.852 237.328 218.899C237.518 215.937 237.373 212.277 232.336 212.277Z" fill="#FDCBA7"/>
<path d="M228.776 212.467C228.776 212.467 228.106 210.429 231.83 210.202C235.544 209.985 237.075 211.724 236.622 212.848L228.776 212.467Z" fill="#EE2A7B"/>
<path d="M234.716 215.195C234.716 215.195 231.174 218.9 227.079 219.434C227.079 219.434 225.376 213.238 229.534 211.326C233.701 209.415 236.256 212.277 236.256 212.277C236.256 212.277 239.717 213.084 237.841 218.972C237.85 218.972 234.716 216.907 234.716 215.195Z" fill="#772635"/>
</g>
<path d="M327.927 179.593H178.556C172.794 179.593 168.11 174.918 168.11 169.147V129.104C168.11 123.343 172.785 118.659 178.556 118.659H338.391V169.147C338.373 174.918 333.707 179.593 327.927 179.593Z" fill="#B0E6FF"/>
<path d="M200.292 169.771C211.689 169.771 220.929 160.531 220.929 149.133C220.929 137.736 211.689 128.496 200.292 128.496C188.894 128.496 179.654 137.736 179.654 149.133C179.654 160.531 188.894 169.771 200.292 169.771Z" fill="#0064B7"/>
<mask id="mask2_1398_1645" style="mask-type:luminance" maskUnits="userSpaceOnUse" x="179" y="128" width="42" height="42">
<path d="M200.281 169.769C211.679 169.769 220.918 160.53 220.918 149.132C220.918 137.734 211.679 128.495 200.281 128.495C188.883 128.495 179.644 137.734 179.644 149.132C179.644 160.53 188.883 169.769 200.281 169.769Z" fill="white"/>
</mask>
<g mask="url(#mask2_1398_1645)">
<path d="M198.365 153.78C198.365 153.78 198.365 156.444 197.223 157.594C196.082 158.736 194.56 160.647 194.56 160.647C194.56 160.647 197.223 164.833 202.559 164.262C207.886 163.691 208.846 159.886 208.846 159.886C208.846 159.886 203.8 159.216 203.229 154.45C202.659 149.685 201.889 149.685 201.889 149.685L198.365 153.78Z" fill="#FFB07E"/>
<path d="M195.166 158.717C195.166 158.717 191.524 158.264 189.558 158.808C187.592 159.351 186.976 158.989 187.511 160.502C188.045 162.015 190.718 168.954 189.467 173.303C188.226 177.66 186.532 199.992 186.532 199.992C186.532 199.992 200.058 200.526 205.303 200.798C210.558 201.07 214.462 200.091 214.462 200.091C214.462 200.091 215.622 190.479 214.462 186.303C213.303 182.127 211.79 175.006 211.79 175.006C211.79 175.006 210.811 165.222 212.143 162.821C213.484 160.42 214.453 160.339 212.768 159.705C211.074 159.079 209.208 158.545 207.876 158.545C206.544 158.545 205.829 158.545 205.022 159.351C204.216 160.157 202.622 161.752 200.393 161.399C198.165 161.045 196.479 159.532 196.479 159.532C196.479 159.532 195.791 158.799 195.166 158.717Z" fill="#F7A600"/>
<path d="M188.715 159.469C188.715 159.469 187.474 158.844 185.599 160.448C183.597 162.169 182.129 165.883 181.422 168.184C180.716 170.494 180.263 172.814 180.263 172.814C180.263 172.814 182.845 174.154 185.517 174.236C188.19 174.327 189.965 174.508 189.965 174.508C189.965 174.508 191.125 167.568 190.853 164.461C190.581 161.344 190.147 160.275 188.715 159.469Z" fill="#070707"/>
<path d="M211.137 162.051C211.137 162.051 212.206 159.116 214.607 160.457C217.007 161.798 218.783 166.862 219.318 168.465C219.852 170.078 220.559 173.267 220.559 173.267C220.559 173.267 217.705 174.508 215.304 174.689C212.904 174.87 211.209 175.042 211.209 175.042C211.209 175.042 210.231 168.728 210.403 166.237C210.584 163.754 211.137 162.051 211.137 162.051Z" fill="#070707"/>
<path d="M208.637 148.679C208.836 149.232 207.867 150.817 207.478 151.361C207.641 150.491 207.822 149.296 207.949 147.891C207.949 147.9 208.447 148.145 208.637 148.679Z" fill="#FFBF99"/>
<path d="M208.13 141.55C207.904 136.485 201.118 136.422 201.118 136.422H201.109C201.109 136.422 194.324 136.485 194.097 141.55C193.988 143.805 194.097 146.034 194.278 147.9C194.405 149.314 194.577 150.509 194.749 151.37C194.858 151.932 194.958 152.339 195.039 152.584C195.184 152.983 195.474 153.463 195.837 153.961C196.579 154.985 197.63 156.072 198.373 156.507C198.971 156.869 200.411 157.141 201.109 157.105H201.118C201.798 157.15 203.166 156.887 203.791 156.543C203.809 156.534 203.836 156.525 203.854 156.516C204.597 156.063 205.648 154.994 206.391 153.97C206.753 153.472 207.034 152.992 207.188 152.593C207.269 152.367 207.378 151.95 207.478 151.379C207.641 150.509 207.822 149.314 207.949 147.909C208.13 146.025 208.221 143.796 208.13 141.55Z" fill="#FFBF99"/>
<path d="M194.27 147.901C194.397 149.314 194.569 150.51 194.741 151.37C194.351 150.827 193.382 149.251 193.581 148.689C193.781 148.145 194.27 147.901 194.27 147.901Z" fill="#FFBF99"/>
<path d="M209.267 141.55C209.14 140.173 208.587 138.515 207.745 137.41C207.382 136.939 205.815 135.209 206.993 134.728C206.449 134.085 205.67 134.837 205.543 135.417C205.498 135.598 205.226 136.087 205.262 136.232C205.054 134.919 205.235 133.895 203.903 133.152C201.774 131.938 199.609 134.783 197.507 134.873C196.493 134.928 194.681 135.29 194.391 133.913C194.382 133.859 193.974 134.402 193.938 134.475C193.856 134.701 193.811 135.009 193.856 135.245C193.938 135.707 194.328 136.495 194.862 136.522C194.164 136.522 193.73 136.495 193.358 135.834C193.213 136.241 193.503 136.477 193.693 136.794C193.331 136.839 192.624 136.178 192.516 135.825C192.126 136.278 192.362 136.93 192.624 137.383C192.706 137.528 193.802 138.416 193.829 138.289C193.684 139.611 193.068 140.898 192.76 142.193C192.597 142.891 192.434 143.652 192.543 144.386C192.661 145.219 192.941 146.179 193.177 146.986C193.567 148.272 194.065 148.897 194.201 149.169C194.282 148.87 194.5 148.263 194.581 147.946C194.944 146.506 194.554 144.993 194.916 143.552C195.46 141.423 197.172 141.161 199.147 141.55C200.37 141.777 201.747 141.541 202.807 140.925C203.396 140.581 203.903 140.246 204.356 139.738C204.547 139.53 204.746 139.149 204.954 139.032C205.072 139.593 204.936 140.119 205.308 140.608C206.938 142.701 207.129 145.21 207.491 147.756C207.509 147.892 207.899 149.178 207.89 149.187C208.614 148.245 208.75 146.705 209.094 145.618C209.43 144.431 209.375 142.737 209.267 141.55Z" fill="#52331D"/>
<path d="M207.943 152.784C207.789 151.769 207.762 150.32 207.762 149.341C207.671 150.084 206.929 151.008 206.439 151.343C205.986 151.642 205.225 152.023 204.655 151.841C204.437 151.687 204.229 151.506 203.993 151.37C203.368 150.972 202.761 150.564 202.009 150.673C201.683 150.718 201.067 150.972 201.031 151.343H200.904C200.859 150.981 200.243 150.727 199.926 150.673C199.174 150.564 198.567 150.99 197.942 151.37C197.715 151.515 197.507 151.687 197.28 151.841C196.691 152.005 195.93 151.633 195.496 151.343C195.006 151.008 194.264 150.093 194.173 149.341C194.173 150.338 194.155 151.778 193.992 152.784C193.792 152.738 193.584 152.666 193.385 152.566C193.385 152.847 193.638 153.055 193.928 153.191C193.937 153.191 193.937 153.2 193.946 153.2C194.091 154.514 196.864 158.092 196.9 158.237C197.027 158.69 198.54 159.624 199.138 159.959C199.772 160.321 200.306 160.394 200.931 160.394H201.004C201.629 160.394 202.163 160.321 202.797 159.959C203.404 159.624 204.908 158.681 205.035 158.237C205.08 158.092 207.844 154.523 207.989 153.2C207.998 153.2 207.998 153.191 208.007 153.191C208.297 153.055 208.55 152.847 208.55 152.566C208.351 152.675 208.152 152.747 207.943 152.784ZM205.244 153.545C204.917 153.481 204.609 153.318 204.31 153.128C203.776 153.4 202.988 153.69 202.453 153.418C202.435 153.409 202.408 153.4 202.39 153.373C201.937 153.074 201.547 153.327 201.076 153.354V153.409C201.611 153.617 201.584 153.608 201.076 153.409C201.058 153.4 201.049 153.4 201.022 153.391H200.895C200.388 153.545 200.361 153.554 200.895 153.391V153.363C200.406 153.363 199.998 153.083 199.536 153.382C199.518 153.391 199.491 153.4 199.473 153.427C198.938 153.699 198.15 153.409 197.616 153.137C197.317 153.327 197.009 153.49 196.682 153.554C196.501 153.581 196.329 153.599 196.139 153.599C196.302 153.599 196.465 153.581 196.619 153.554C196.963 153.49 197.298 153.327 197.625 153.137C197.896 152.983 198.159 152.811 198.404 152.675C198.929 152.394 199.536 152.131 200.116 152.104C200.397 152.086 200.669 152.177 200.913 152.077H201.04C201.266 152.186 201.547 152.086 201.837 152.104C202.426 152.131 203.015 152.403 203.549 152.675C203.803 152.811 204.057 152.974 204.329 153.137C204.655 153.327 204.99 153.49 205.334 153.554C205.488 153.581 205.651 153.599 205.814 153.599C205.597 153.59 205.416 153.581 205.244 153.545Z" fill="#52331D"/>
<path d="M207.947 152.757C207.467 152.847 206.977 152.775 206.443 152.621C205.908 152.467 205.392 152.304 204.921 152.005C204.83 151.941 204.74 151.878 204.649 151.814C204.432 151.66 204.223 151.479 203.988 151.343C203.363 150.945 202.756 150.537 202.004 150.646C201.678 150.691 201.062 150.945 201.025 151.316H200.898C200.853 150.954 200.237 150.7 199.92 150.646C199.168 150.537 198.561 150.963 197.936 151.343C197.71 151.488 197.501 151.66 197.275 151.814C197.193 151.878 197.094 151.941 197.003 152.005C196.532 152.304 196.006 152.476 195.481 152.621C194.937 152.775 194.457 152.847 193.977 152.757C193.778 152.711 193.569 152.639 193.37 152.539C193.37 152.82 193.624 153.028 193.914 153.164C194.167 153.291 194.457 153.354 194.62 153.391C195.245 153.518 195.97 153.635 196.613 153.518C196.958 153.454 197.293 153.291 197.619 153.101C197.891 152.947 198.153 152.775 198.398 152.639C198.924 152.358 199.531 152.095 200.11 152.068C200.391 152.05 200.663 152.141 200.908 152.041H201.034C201.261 152.15 201.542 152.05 201.832 152.068C202.42 152.095 203.009 152.367 203.544 152.639C203.798 152.775 204.051 152.938 204.323 153.101C204.649 153.291 204.984 153.454 205.329 153.518C205.972 153.635 206.687 153.508 207.322 153.391C207.503 153.364 207.784 153.282 208.028 153.164C208.318 153.028 208.572 152.82 208.572 152.539C208.354 152.639 208.146 152.711 207.947 152.757Z" fill="#6B4732"/>
</g>
<path d="M316.908 64.0477C316.908 64.0477 304.605 59.9075 304.469 67.1369C304.333 74.3573 301.389 75.0186 298.318 75.5622C295.238 76.0967 289.358 74.7559 289.63 82.3839C289.902 90.012 292.973 93.8079 290.572 97.0602C288.171 100.313 282.799 116.619 289.63 117.018C296.461 117.417 302.077 109.39 303.554 105.386C305.031 101.372 310.376 99.5062 314.797 99.0985C319.218 98.6999 324.028 94.8497 320.676 89.9485C317.333 85.0474 318.357 78.6333 321.791 76.2235C325.188 73.8228 325.188 66.9829 316.908 64.0477Z" stroke="#023EA1" stroke-miterlimit="10"/>
<path d="M313.292 72.2191L289.221 123.042" stroke="#023EA1" stroke-miterlimit="10"/>
<path d="M297.104 81.3149L303.51 92.8656L316.238 91.4433" stroke="#023EA1" stroke-miterlimit="10"/>
<path d="M302.686 116.909C302.686 116.909 316.429 94.288 331.241 83.4258" stroke="#DE051F" stroke-miterlimit="10"/>
<path d="M341.48 78.0989C341.48 78.0989 338.2 85.5548 329.721 84.5855C329.73 84.5764 331.505 77.6641 341.48 78.0989Z" stroke="#DE051F" stroke-miterlimit="10"/>
<path d="M318.767 95.1938C318.767 95.1938 324.628 90.4829 332.084 95.5561C332.084 95.5652 328.188 101.3 318.767 95.1938Z" stroke="#DE051F" stroke-miterlimit="10"/>
<path d="M307.896 109.128C307.896 109.128 312.725 103.366 321.024 106.881C321.042 106.881 318.342 113.268 307.896 109.128Z" stroke="#DE051F" stroke-miterlimit="10"/>
<path d="M307.605 109.018C307.605 109.018 312.053 102.958 306.654 95.7374C306.654 95.7283 301.101 99.8775 307.605 109.018Z" stroke="#DE051F" stroke-miterlimit="10"/>
<path d="M318.876 95.1938C318.876 95.1938 324.058 89.7491 319.628 81.8945C319.628 81.8855 313.577 85.2918 318.876 95.1938Z" stroke="#DE051F" stroke-miterlimit="10"/>
<path d="M339.543 317.676C393.355 317.676 436.977 274.053 436.977 220.242C436.977 166.431 393.355 122.808 339.543 122.808C285.732 122.808 242.109 166.431 242.109 220.242C242.109 274.053 285.732 317.676 339.543 317.676Z" stroke="#2626DB" stroke-miterlimit="10" stroke-dasharray="6 6"/>
<path d="M156.016 278.086C209.827 278.086 253.45 234.463 253.45 180.652C253.45 126.841 209.827 83.2181 156.016 83.2181C102.205 83.2181 58.582 126.841 58.582 180.652C58.582 234.463 102.205 278.086 156.016 278.086Z" stroke="#2626DB" stroke-miterlimit="10" stroke-dasharray="6 6"/>
<path d="M82.2384 217.16C82.385 208.054 75.1226 200.554 66.0174 200.408C56.9122 200.261 49.4121 207.523 49.2655 216.629C49.1189 225.734 56.3812 233.234 65.4865 233.381C74.5917 233.527 82.0918 226.265 82.2384 217.16Z" fill="#003EB0"/>
<path d="M435.447 259.17C444.553 259.17 451.935 251.788 451.935 242.682C451.935 233.576 444.553 226.194 435.447 226.194C426.341 226.194 418.959 233.576 418.959 242.682C418.959 251.788 426.341 259.17 435.447 259.17Z" fill="#FCBE42"/>
<path d="M59.9658 213.593L66.5611 223.495L71.5166 215.251" stroke="white" stroke-width="2" stroke-miterlimit="10"/>
<path d="M431.322 236.087L442.04 243.507L431.322 249.287V236.087Z" fill="white"/>
<path d="M208.921 25.4192L203.085 31.255L208.921 37.0908L214.757 31.255L208.921 25.4192Z" fill="#EE384E"/>
<path d="M65.2645 326.552L59.4287 332.388L65.2645 338.224L71.1003 332.388L65.2645 326.552Z" fill="#EE384E"/>
<path d="M340.603 94.1857L334.768 100.021L340.603 105.857L346.439 100.021L340.603 94.1857Z" fill="#003EB0"/>
<path d="M409.369 329.328L403.533 335.163L409.369 340.999L415.205 335.163L409.369 329.328Z" fill="#003EB0"/>
<path d="M322.773 139.585H232.776C231.626 139.585 230.684 138.643 230.684 137.492V130.879C230.684 129.728 231.626 128.786 232.776 128.786H322.773C323.923 128.786 324.865 129.728 324.865 130.879V137.492C324.865 138.652 323.923 139.585 322.773 139.585Z" stroke="#0064B7" stroke-miterlimit="10"/>
<path d="M322.773 154.524H232.776C231.626 154.524 230.684 153.582 230.684 152.432V145.818C230.684 144.668 231.626 143.725 232.776 143.725H322.773C323.923 143.725 324.865 144.668 324.865 145.818V152.432C324.865 153.591 323.923 154.524 322.773 154.524Z" stroke="#0064B7" stroke-miterlimit="10"/>
<path d="M322.773 169.454H232.776C231.626 169.454 230.684 168.512 230.684 167.361V160.748C230.684 159.598 231.626 158.655 232.776 158.655H322.773C323.923 158.655 324.865 159.598 324.865 160.748V167.361C324.865 168.521 323.923 169.454 322.773 169.454Z" stroke="#0064B7" stroke-miterlimit="10"/>
<path d="M308.724 209.832H256.714C255.563 209.832 254.621 208.89 254.621 207.739V205.484C254.621 204.333 255.563 203.391 256.714 203.391H308.724C309.874 203.391 310.817 204.333 310.817 205.484V207.739C310.817 208.899 309.884 209.832 308.724 209.832Z" fill="#0064B7"/>
<path d="M308.724 220.351H256.714C255.563 220.351 254.621 219.409 254.621 218.258V216.002C254.621 214.852 255.563 213.91 256.714 213.91H308.724C309.874 213.91 310.817 214.852 310.817 216.002V218.258C310.817 219.418 309.884 220.351 308.724 220.351Z" fill="#0064B7"/>
<path d="M308.724 230.869H256.714C255.563 230.869 254.621 229.927 254.621 228.776V226.52C254.621 225.37 255.563 224.428 256.714 224.428H308.724C309.874 224.428 310.817 225.37 310.817 226.52V228.776C310.817 229.945 309.884 230.869 308.724 230.869Z" fill="#0064B7"/>
<path d="M402.015 118.277H363.413C362.262 118.277 361.32 119.22 361.32 120.37V135.69C361.32 136.84 362.262 137.782 363.413 137.782H404.108V120.37C404.108 119.211 403.166 118.277 402.015 118.277Z" fill="#B0E6FF"/>
<path d="M370.673 134.033C373.795 134.033 376.326 131.502 376.326 128.38C376.326 125.258 373.795 122.727 370.673 122.727C367.551 122.727 365.02 125.258 365.02 128.38C365.02 131.502 367.551 134.033 370.673 134.033Z" fill="#0064B7"/>
<mask id="mask3_1398_1645" style="mask-type:luminance" maskUnits="userSpaceOnUse" x="365" y="122" width="12" height="13">
<path d="M370.671 134.032C373.793 134.032 376.324 131.501 376.324 128.379C376.324 125.257 373.793 122.726 370.671 122.726C367.549 122.726 365.018 125.257 365.018 128.379C365.018 131.501 367.549 134.032 370.671 134.032Z" fill="white"/>
</mask>
<g mask="url(#mask3_1398_1645)">
<path d="M370.142 129.657C370.142 129.657 370.142 130.391 369.825 130.699C369.508 131.007 369.091 131.532 369.091 131.532C369.091 131.532 369.825 132.683 371.283 132.529C372.742 132.375 373.004 131.324 373.004 131.324C373.004 131.324 371.627 131.143 371.473 129.838C371.319 128.534 371.111 128.534 371.111 128.534L370.142 129.657Z" fill="#FFBF99"/>
<path d="M369.274 130.998C369.274 130.998 368.268 130.871 367.743 131.016C367.208 131.161 367.036 131.071 367.181 131.478C367.326 131.895 368.06 133.798 367.715 134.984C367.371 136.171 366.909 142.295 366.909 142.295C366.909 142.295 370.605 142.44 372.046 142.513C373.486 142.585 374.555 142.313 374.555 142.313C374.555 142.313 374.872 139.677 374.555 138.545C374.238 137.394 373.821 135.455 373.821 135.455C373.821 135.455 373.55 132.774 373.912 132.122C374.274 131.478 374.546 131.442 374.075 131.261C373.613 131.098 373.106 130.944 372.734 130.944C372.372 130.944 372.173 130.944 371.955 131.161C371.738 131.379 371.294 131.823 370.696 131.723C370.089 131.632 369.618 131.216 369.618 131.216C369.618 131.216 369.437 131.025 369.274 130.998Z" fill="#1B3A62"/>
<path d="M367.509 131.207C367.509 131.207 367.165 131.044 366.648 131.479C366.096 131.95 365.697 132.965 365.498 133.599C365.298 134.233 365.181 134.867 365.181 134.867C365.181 134.867 365.887 135.23 366.621 135.257C367.355 135.275 367.844 135.329 367.844 135.329C367.844 135.329 368.161 133.427 368.089 132.575C368.016 131.724 367.889 131.434 367.509 131.207Z" fill="#021E34"/>
<path d="M373.651 131.913C373.651 131.913 373.941 131.107 374.603 131.478C375.264 131.841 375.753 133.236 375.898 133.671C376.043 134.105 376.242 134.984 376.242 134.984C376.242 134.984 375.463 135.328 374.802 135.374C374.14 135.428 373.687 135.464 373.687 135.464C373.687 135.464 373.416 133.734 373.47 133.055C373.506 132.384 373.651 131.913 373.651 131.913Z" fill="#021E34"/>
<path d="M370.723 128.969H369.844C369.844 128.969 369.916 129.675 370.723 129.675C371.529 129.675 371.601 128.969 371.601 128.969H370.723Z" fill="white"/>
<path d="M373.143 127.52C373.206 127.701 372.898 128.19 372.78 128.362C372.835 128.09 372.889 127.719 372.925 127.275C372.925 127.275 373.079 127.357 373.143 127.52Z" fill="#FFBF99"/>
<path d="M372.98 125.29C372.907 123.705 370.779 123.678 370.779 123.678C370.779 123.678 368.65 123.696 368.577 125.29C368.55 125.997 368.577 126.704 368.631 127.283C368.677 127.718 368.722 128.099 368.776 128.371C368.804 128.552 368.84 128.67 368.867 128.751C368.912 128.878 369.003 129.023 369.121 129.177C369.347 129.503 369.682 129.838 369.918 129.983C370.108 130.101 370.552 130.182 370.779 130.173C370.987 130.182 371.413 130.101 371.612 129.992C371.621 129.992 371.621 129.983 371.63 129.983C371.857 129.847 372.192 129.503 372.427 129.177C372.545 129.023 372.636 128.86 372.681 128.751C372.708 128.679 372.744 128.552 372.772 128.371C372.826 128.099 372.88 127.727 372.917 127.283C372.989 126.686 373.007 125.988 372.98 125.29Z" fill="#FFBF99"/>
<path d="M368.629 127.274C368.674 127.709 368.719 128.089 368.773 128.361C368.647 128.198 368.348 127.691 368.411 127.519C368.474 127.356 368.629 127.274 368.629 127.274Z" fill="#FFBF99"/>
<path d="M372.008 129.729L372.018 129.739C371.873 129.893 371.728 130.028 371.601 130.101C371.42 130.21 371.048 130.436 370.849 130.427H370.767C370.568 130.436 370.197 130.21 370.015 130.101C369.889 130.028 369.744 129.893 369.599 129.739L369.608 129.729C369.852 129.711 369.744 129.394 369.807 129.258C369.87 129.132 370.07 129.104 370.188 129.041C370.278 128.987 370.369 128.968 370.459 128.923C370.568 128.869 370.659 128.869 370.758 128.869H370.84C370.958 128.869 371.039 128.869 371.139 128.923C371.229 128.968 371.32 128.987 371.411 129.041C371.528 129.104 371.728 129.132 371.791 129.258C371.873 129.394 371.764 129.702 372.008 129.729ZM371.61 129.585C371.746 129.358 371.592 129.34 371.401 129.286C371.257 129.231 370.976 129.104 370.831 129.095H370.804C370.659 129.095 370.378 129.231 370.233 129.286C370.052 129.349 369.889 129.367 370.024 129.585C370.097 129.711 370.287 129.929 370.45 129.911C370.64 129.893 370.722 129.648 370.804 129.53H370.831C370.912 129.648 370.994 129.883 371.184 129.911C371.347 129.929 371.528 129.702 371.61 129.585Z" fill="#915F41"/>
<path d="M370.804 126.821C370.858 126.821 370.985 126.821 371.021 126.83C371.13 126.83 371.103 126.749 371.166 126.667C371.248 126.559 371.438 126.586 371.556 126.586C371.719 126.577 371.882 126.568 372.045 126.568C372.163 126.568 372.507 126.549 372.534 126.559C372.543 126.559 372.679 126.631 372.724 126.694C372.743 126.722 372.752 126.758 372.77 126.785C372.788 126.903 372.761 127.039 372.752 127.129C372.734 127.274 372.706 127.419 372.607 127.51C372.579 127.528 372.534 127.537 372.498 127.537C372.444 127.546 372.244 127.546 372.199 127.555C372.036 127.564 371.864 127.573 371.701 127.564C371.51 127.555 371.293 127.573 371.221 127.283C371.202 127.211 371.175 126.957 371.148 126.93C371.085 126.867 370.904 126.857 370.831 126.857C370.795 126.83 370.795 126.848 370.804 126.821ZM371.338 127.446C371.384 127.474 371.547 127.501 371.547 127.501C371.592 127.501 372.145 127.51 372.371 127.474C372.416 127.464 372.489 127.446 372.516 127.419C372.589 127.365 372.652 126.885 372.598 126.812C372.57 126.767 372.48 126.703 372.453 126.676C372.326 126.568 371.32 126.622 371.284 126.676C371.23 126.74 371.23 126.794 371.23 126.867C371.293 126.821 371.32 126.885 371.338 126.957C371.338 127.002 371.356 127.166 371.284 127.093C371.275 127.084 371.266 127.048 371.239 127.075C371.212 127.102 371.221 127.202 371.221 127.229C371.266 127.383 371.329 127.437 371.338 127.446Z" fill="#6B4732"/>
<path d="M370.796 126.821C370.742 126.821 370.615 126.821 370.579 126.83C370.47 126.83 370.497 126.749 370.434 126.667C370.352 126.558 370.162 126.586 370.044 126.586C369.881 126.577 369.718 126.567 369.555 126.567C369.437 126.567 369.093 126.549 369.066 126.558C369.057 126.558 368.921 126.631 368.876 126.694C368.857 126.722 368.848 126.758 368.83 126.785C368.812 126.903 368.839 127.039 368.848 127.129C368.867 127.274 368.894 127.419 368.993 127.51C369.021 127.528 369.066 127.537 369.102 127.537C369.156 127.546 369.356 127.546 369.401 127.555C369.564 127.564 369.736 127.573 369.899 127.564C370.09 127.555 370.307 127.573 370.379 127.283C370.398 127.211 370.425 126.957 370.452 126.93C370.515 126.866 370.697 126.857 370.769 126.857C370.796 126.83 370.805 126.848 370.796 126.821ZM370.262 127.446C370.216 127.473 370.053 127.501 370.053 127.501C370.008 127.501 369.455 127.51 369.229 127.473C369.184 127.464 369.111 127.446 369.084 127.419C369.012 127.365 368.948 126.885 369.002 126.812C369.03 126.767 369.12 126.703 369.147 126.676C369.274 126.567 370.28 126.622 370.316 126.676C370.37 126.74 370.37 126.794 370.37 126.866C370.307 126.821 370.28 126.885 370.262 126.957C370.262 127.002 370.244 127.165 370.316 127.093C370.325 127.084 370.334 127.048 370.361 127.075C370.389 127.102 370.379 127.202 370.379 127.229C370.325 127.383 370.271 127.437 370.262 127.446Z" fill="#6B4732"/>
</g>
<path d="M399.399 125.145H379.305C379.015 125.145 378.779 124.919 378.779 124.62V123.243C378.779 122.953 379.006 122.717 379.305 122.717H399.399C399.688 122.717 399.924 122.944 399.924 123.243V124.62C399.915 124.91 399.679 125.145 399.399 125.145Z" fill="#0064B7"/>
<path d="M399.399 129.104H379.305C379.015 129.104 378.779 128.878 378.779 128.579V127.202C378.779 126.912 379.006 126.677 379.305 126.677H399.399C399.688 126.677 399.924 126.903 399.924 127.202V128.579C399.915 128.869 399.679 129.104 399.399 129.104Z" fill="#0064B7"/>
<path d="M399.399 133.054H379.305C379.015 133.054 378.779 132.827 378.779 132.528V131.151C378.779 130.861 379.006 130.626 379.305 130.626H399.399C399.688 130.626 399.924 130.852 399.924 131.151V132.528C399.915 132.827 399.679 133.054 399.399 133.054Z" fill="#0064B7"/>
<path d="M114.788 97.2506H73.4775C72.3269 97.2506 71.3848 98.1928 71.3848 99.3433V115.895C71.3848 117.045 72.3269 117.988 73.4775 117.988H116.881V99.3433C116.881 98.1928 115.948 97.2506 114.788 97.2506Z" fill="#B0E6FF"/>
<path d="M81.3306 114.01C84.6479 114.01 87.337 111.321 87.337 108.004C87.337 104.686 84.6479 101.997 81.3306 101.997C78.0134 101.997 75.3242 104.686 75.3242 108.004C75.3242 111.321 78.0134 114.01 81.3306 114.01Z" fill="#0064B7"/>
<mask id="mask4_1398_1645" style="mask-type:luminance" maskUnits="userSpaceOnUse" x="75" y="101" width="13" height="14">
<path d="M81.3267 114.01C84.6439 114.01 87.3331 111.321 87.3331 108.003C87.3331 104.686 84.6439 101.997 81.3267 101.997C78.0095 101.997 75.3203 104.686 75.3203 108.003C75.3203 111.321 78.0095 114.01 81.3267 114.01Z" fill="white"/>
</mask>
<g mask="url(#mask4_1398_1645)">
<path d="M80.7615 109.345C80.7615 109.345 80.7615 110.115 80.4263 110.45C80.0911 110.785 79.6562 111.338 79.6562 111.338C79.6562 111.338 80.4263 112.561 81.9845 112.389C83.5427 112.226 83.8145 111.111 83.8145 111.111C83.8145 111.111 82.3378 110.912 82.1748 109.535C82.0117 108.149 81.7852 108.149 81.7852 108.149L80.7615 109.345Z" fill="#FFB07E"/>
<path d="M79.8398 110.794C79.8398 110.794 78.7708 110.667 78.2091 110.812C77.6474 110.957 77.4572 110.866 77.6112 111.301C77.7652 111.736 78.5443 113.765 78.1819 115.034C77.8196 116.311 77.3213 122.807 77.3213 122.807C77.3213 122.807 81.2621 122.961 82.7841 123.033C84.3061 123.106 85.4476 122.825 85.4476 122.825C85.4476 122.825 85.7828 120.025 85.4476 118.811C85.1124 117.588 84.6775 115.523 84.6775 115.523C84.6775 115.523 84.3967 112.669 84.7862 111.972C85.1758 111.274 85.4566 111.247 84.9674 111.066C84.4782 110.884 83.9347 110.73 83.5451 110.73C83.1556 110.73 82.9472 110.73 82.7207 110.957C82.4942 111.183 82.0231 111.654 81.3708 111.555C80.7276 111.446 80.2294 111.011 80.2294 111.011C80.2294 111.011 80.0119 110.812 79.8398 110.794Z" fill="#1B3A62"/>
<path d="M77.9563 111.011C77.9563 111.011 77.594 110.83 77.0504 111.292C76.4615 111.79 76.0358 112.868 75.8274 113.548C75.619 114.218 75.4922 114.898 75.4922 114.898C75.4922 114.898 76.2441 115.287 77.0142 115.314C77.7842 115.333 78.3097 115.387 78.3097 115.387C78.3097 115.387 78.6449 113.367 78.5724 112.461C78.4999 111.555 78.3731 111.238 77.9563 111.011Z" fill="#00AEEF"/>
<path d="M84.4853 111.764C84.4853 111.764 84.8024 110.903 85.5 111.293C86.1975 111.682 86.723 113.159 86.8679 113.621C87.0129 114.083 87.2303 115.016 87.2303 115.016C87.2303 115.016 86.4059 115.378 85.7083 115.433C85.0108 115.487 84.5216 115.541 84.5216 115.541C84.5216 115.541 84.2407 113.702 84.2951 112.969C84.3313 112.253 84.4853 111.764 84.4853 111.764Z" fill="#00AEEF"/>
<path d="M83.9968 106.789C83.9968 106.789 84.1599 106.87 84.2414 107.061C84.3139 107.26 83.9696 107.804 83.8428 107.994" fill="#FFB07E"/>
<path d="M84.0612 104.588C83.9797 102.831 81.6242 102.804 81.6242 102.804C81.6242 102.804 79.2597 102.822 79.1873 104.588C79.1601 105.368 79.1873 106.147 79.2507 106.79C79.296 107.279 79.3594 107.696 79.4137 107.995C79.459 108.194 79.4862 108.33 79.5224 108.412C79.5768 108.547 79.6674 108.711 79.7942 108.892C80.057 109.245 80.4193 109.626 80.673 109.78C80.8814 109.906 81.3796 109.997 81.6242 109.988C81.8688 109.997 82.3671 109.906 82.5755 109.78C82.8382 109.626 83.2006 109.245 83.4542 108.892C83.5811 108.711 83.6807 108.547 83.726 108.412C83.7532 108.33 83.7894 108.185 83.8347 107.995C83.8891 107.696 83.9525 107.27 83.9978 106.79C84.0612 106.138 84.0884 105.368 84.0612 104.588Z" fill="#FFB07E"/>
<path d="M79.2418 106.789C79.2871 107.278 79.3505 107.695 79.4048 107.994C79.269 107.804 78.9338 107.251 79.0062 107.061C79.0787 106.87 79.2418 106.789 79.2418 106.789Z" fill="#FFB07E"/>
<path d="M79.9372 104.244L79.8829 104.308C79.8829 104.742 79.8648 105.014 79.6292 105.386C79.448 105.667 79.1944 106.047 79.2487 106.4C79.2034 106.183 79.2306 105.965 79.0947 105.775C78.9498 105.558 78.8954 105.413 78.9135 105.114C78.9407 104.788 78.9407 104.407 79.1219 104.108C79.2034 103.972 79.3484 103.891 79.4118 103.764C79.439 103.692 79.4208 103.556 79.4752 103.447C79.8195 102.804 80.97 102.822 81.6042 102.804C81.6042 102.804 83.9687 102.822 84.0411 104.588C84.0864 105.449 84.0321 106.283 83.9687 106.971C83.9415 106.745 83.7512 106.563 83.6335 106.355C83.5066 106.101 83.4523 105.866 83.253 105.648C82.9993 105.359 82.5282 105.223 82.1658 105.105C81.3958 104.869 80.5533 104.742 79.9372 104.244Z" fill="#915F41"/>
<path d="M81.0078 104.098C81.1528 104.207 81.2796 104.315 81.4064 104.442C81.5333 104.56 81.6601 104.696 81.7869 104.796C81.9228 104.904 82.0768 104.977 82.2399 105.04C82.3214 105.067 82.403 105.104 82.4845 105.131C82.566 105.158 82.6385 105.203 82.711 105.258C82.557 105.176 82.3848 105.122 82.2308 105.067C82.1493 105.04 82.0678 105.004 81.9862 104.977C81.9047 104.931 81.8322 104.895 81.7688 104.832C81.6329 104.714 81.5151 104.587 81.3883 104.469C81.2615 104.333 81.1437 104.216 81.0078 104.098Z" fill="#BB8B6C"/>
<path d="M82.2295 104.398C82.2386 104.47 82.2748 104.543 82.311 104.606C82.3563 104.67 82.3926 104.733 82.4379 104.797C82.5285 104.914 82.6372 105.041 82.7368 105.141C82.8455 105.249 82.9633 105.34 83.0901 105.431C83.1536 105.476 83.217 105.521 83.2713 105.576C83.3257 105.63 83.38 105.693 83.4163 105.757C83.371 105.693 83.3076 105.639 83.2623 105.594C83.1988 105.539 83.1354 105.503 83.072 105.458C82.9452 105.376 82.8093 105.295 82.7096 105.177C82.61 105.059 82.5013 104.951 82.4197 104.824C82.3744 104.76 82.3382 104.697 82.302 104.624C82.2567 104.543 82.2386 104.47 82.2295 104.398Z" fill="#BB8B6C"/>
</g>
<path d="M111.91 104.561H90.4669C90.177 104.561 89.9414 104.335 89.9414 104.036V102.505C89.9414 102.215 90.1679 101.979 90.4669 101.979H111.901C112.191 101.979 112.427 102.206 112.427 102.505V104.036C112.436 104.326 112.191 104.561 111.91 104.561Z" fill="#0064B7"/>
<path d="M111.91 108.775H90.4669C90.177 108.775 89.9414 108.548 89.9414 108.249V106.718C89.9414 106.428 90.1679 106.193 90.4669 106.193H111.901C112.191 106.193 112.427 106.419 112.427 106.718V108.249C112.436 108.53 112.191 108.775 111.91 108.775Z" fill="#0064B7"/>
<path d="M111.91 112.987H90.4669C90.177 112.987 89.9414 112.76 89.9414 112.461V110.93C89.9414 110.641 90.1679 110.405 90.4669 110.405H111.901C112.191 110.405 112.427 110.631 112.427 110.93V112.461C112.436 112.742 112.191 112.987 111.91 112.987Z" fill="#0064B7"/>
<path d="M293.131 308.59H219.985C219.696 308.59 219.46 308.363 219.46 308.064V303.308C219.46 303.018 219.686 302.783 219.985 302.783H293.131C293.421 302.783 293.657 303.009 293.657 303.308V308.064C293.657 308.363 293.412 308.59 293.131 308.59Z" stroke="#0064B7" stroke-miterlimit="10"/>
<path d="M293.131 318.074H219.985C219.696 318.074 219.46 317.848 219.46 317.549V312.793C219.46 312.503 219.686 312.267 219.985 312.267H293.131C293.421 312.267 293.657 312.494 293.657 312.793V317.549C293.657 317.839 293.412 318.074 293.131 318.074Z" stroke="#0064B7" stroke-miterlimit="10"/>
<path d="M293.131 327.559H219.985C219.696 327.559 219.46 327.333 219.46 327.034V322.278C219.46 321.988 219.686 321.752 219.985 321.752H293.131C293.421 321.752 293.657 321.979 293.657 322.278V327.034C293.657 327.324 293.412 327.559 293.131 327.559Z" stroke="#0064B7" stroke-miterlimit="10"/>
<path d="M147.698 148.826H107.918C107.347 148.826 106.876 149.297 106.876 149.868V166.864C106.876 167.434 107.347 167.905 107.918 167.905H148.749V149.868C148.74 149.297 148.278 148.826 147.698 148.826Z" fill="#B0E6FF"/>
<path d="M116.016 164.245C119.073 164.245 121.551 161.767 121.551 158.71C121.551 155.653 119.073 153.174 116.016 153.174C112.959 153.174 110.48 155.653 110.48 158.71C110.48 161.767 112.959 164.245 116.016 164.245Z" fill="#0064B7"/>
<mask id="mask5_1398_1645" style="mask-type:luminance" maskUnits="userSpaceOnUse" x="110" y="153" width="12" height="12">
<path d="M116.021 164.245C119.078 164.245 121.556 161.767 121.556 158.71C121.556 155.653 119.078 153.174 116.021 153.174C112.964 153.174 110.485 155.653 110.485 158.71C110.485 161.767 112.964 164.245 116.021 164.245Z" fill="white"/>
</mask>
<g mask="url(#mask5_1398_1645)">
<path d="M118.414 159.525C118.16 158.565 118.523 158.211 118.622 156.907L116.104 156.825L113.585 156.907C113.694 158.211 114.047 158.565 113.794 159.525C113.431 160.947 112.426 162.823 116.104 162.823C119.782 162.823 118.785 160.947 118.414 159.525Z" fill="#4B2C61"/>
<path d="M115.515 159.959C115.515 159.959 115.515 160.666 115.216 160.983C114.917 161.282 114.51 161.798 114.51 161.798C114.51 161.798 115.216 162.913 116.648 162.768C118.079 162.623 118.333 161.599 118.333 161.599C118.333 161.599 116.983 161.418 116.829 160.149C116.675 158.881 116.476 158.872 116.476 158.872L115.515 159.959Z" fill="#F8E1CC"/>
<path d="M114.656 161.283C114.656 161.283 113.677 161.165 113.152 161.301C112.626 161.446 112.463 161.356 112.608 161.754C112.753 162.162 113.469 164.019 113.134 165.188C112.798 166.356 112.354 172.345 112.354 172.345C112.354 172.345 115.978 172.49 117.392 172.562C118.805 172.635 119.847 172.372 119.847 172.372C119.847 172.372 120.164 169.799 119.847 168.676C119.53 167.561 119.14 165.65 119.14 165.65C119.14 165.65 118.877 163.032 119.231 162.379C119.584 161.736 119.847 161.709 119.394 161.546C118.941 161.383 118.442 161.229 118.08 161.229C117.718 161.229 117.536 161.229 117.319 161.446C117.102 161.664 116.676 162.089 116.078 161.99C115.48 161.899 115.036 161.491 115.036 161.491C115.036 161.491 114.828 161.31 114.656 161.283Z" fill="#CCB4AA"/>
<path d="M112.933 161.491C112.933 161.491 112.598 161.328 112.099 161.754C111.556 162.216 111.166 163.204 110.985 163.829C110.795 164.445 110.668 165.07 110.668 165.07C110.668 165.07 111.356 165.423 112.081 165.459C112.788 165.478 113.268 165.532 113.268 165.532C113.268 165.532 113.585 163.675 113.513 162.841C113.44 161.999 113.313 161.7 112.933 161.491Z" fill="#355D75"/>
<path d="M118.941 162.18C118.941 162.18 119.222 161.4 119.874 161.754C120.517 162.107 120.988 163.466 121.133 163.892C121.278 164.318 121.468 165.178 121.468 165.178C121.468 165.178 120.707 165.513 120.055 165.568C119.412 165.622 118.959 165.658 118.959 165.658C118.959 165.658 118.696 163.964 118.742 163.294C118.787 162.623 118.941 162.18 118.941 162.18Z" fill="#355D75"/>
<path d="M114.285 157.931C114.285 157.931 114.085 157.731 113.968 157.777C113.859 157.822 113.768 158.058 113.85 158.302C113.931 158.547 114.013 158.737 114.094 158.791C114.167 158.846 114.43 158.882 114.43 158.864C114.439 158.837 114.285 157.931 114.285 157.931Z" fill="#F8E1CC"/>
<path d="M117.986 157.931C117.986 157.931 118.195 157.731 118.303 157.777C118.412 157.822 118.503 158.057 118.421 158.302C118.339 158.547 118.258 158.737 118.176 158.791C118.095 158.846 117.841 158.882 117.841 158.864C117.832 158.837 117.986 157.931 117.986 157.931Z" fill="#F8E1CC"/>
<path d="M118.036 156.3C117.691 155.258 116.722 155.014 116.142 155.014C115.562 155.014 114.584 155.258 114.24 156.3C113.895 157.342 114.367 158.837 114.675 159.371C114.992 159.906 115.68 160.44 116.133 160.44C116.595 160.44 117.284 159.915 117.592 159.371C117.909 158.846 118.38 157.351 118.036 156.3Z" fill="#F8E1CC"/>
<path d="M114.191 158.058C114.191 158.058 114.372 157.052 114.825 156.481C114.825 156.481 115.097 157.252 115.894 157.569C115.894 157.569 115.894 157.161 115.803 156.862C115.803 156.862 116.438 157.469 117.199 157.596C117.199 157.596 117.153 157.261 117.035 157.025C117.035 157.025 117.76 157.56 118.068 158.049C118.068 158.049 118.684 157.541 118.639 156.527C118.585 155.512 117.688 154.316 116.256 154.28C114.825 154.253 114.164 155.358 114.164 155.358C114.164 155.358 113.638 155.693 113.593 156.4C113.529 157.098 113.72 157.56 114.191 158.058Z" fill="#4B2C61"/>
</g>
<path d="M144.129 155.557H124.48C124.19 155.557 123.954 155.33 123.954 155.031V153.709C123.954 153.419 124.181 153.183 124.48 153.183H144.129C144.419 153.183 144.655 153.41 144.655 153.709V155.031C144.655 155.312 144.41 155.557 144.129 155.557Z" fill="#0064B7"/>
<path d="M144.129 159.435H124.48C124.19 159.435 123.954 159.209 123.954 158.91V157.587C123.954 157.297 124.181 157.062 124.48 157.062H144.129C144.419 157.062 144.655 157.288 144.655 157.587V158.91C144.655 159.191 144.41 159.435 144.129 159.435Z" fill="#0064B7"/>
<path d="M144.129 163.303H124.48C124.19 163.303 123.954 163.076 123.954 162.777V161.455C123.954 161.165 124.181 160.929 124.48 160.929H144.129C144.419 160.929 144.655 161.156 144.655 161.455V162.777C144.655 163.067 144.41 163.303 144.129 163.303Z" fill="#0064B7"/>
<path d="M198.642 202.368C198.642 202.368 209.26 198.59 210.446 208.51C210.446 208.51 213.164 215.712 215.882 217.008C218.6 218.303 225.322 220.785 223.673 230.117C222.024 239.448 219.424 238.859 220.484 244.286C221.553 249.721 218.953 250.31 215.166 250.428C211.38 250.546 210.329 247.003 210.329 247.003L211.398 234.963L208.924 215.603L200.889 212.415C200.889 212.415 196.749 207.224 196.395 205.212C196.042 203.192 198.642 202.368 198.642 202.368Z" fill="#170856"/>
<path d="M200.063 199.686C200.063 199.686 201.748 201.434 201.349 201.742C200.951 202.059 196.367 204.451 196.367 204.451C196.367 204.451 195.044 201.878 195.18 201.126C195.297 200.374 200.063 199.686 200.063 199.686Z" fill="#F05051"/>
<path d="M171.951 186.721C171.706 186.749 171.543 186.966 171.543 187.202C171.606 189.512 172.141 200.637 176.489 204.759C176.489 204.759 178.79 207.766 183.211 206.534C183.211 206.534 187.198 204.143 186.573 209.008C185.956 213.873 187.995 218.656 189.58 219.372C191.175 220.078 197.725 218.303 199.229 215.558C200.234 213.728 200.76 212.804 201.004 212.396C201.113 212.215 201.086 212.006 200.95 211.861C200.053 210.829 196.674 206.679 195.116 200.954C193.295 194.313 194.273 187.935 188.158 186.604C182.804 185.426 173.962 186.459 171.951 186.721Z" fill="#FFBE97"/>
<path d="M166.242 186.178C166.251 186.088 166.269 185.979 166.269 185.889C166.324 185.245 166.26 184.584 166.324 183.923C166.532 181.893 167.193 179.755 168.779 178.387C169.956 177.364 171.506 176.965 173.037 176.965C173.381 176.965 173.716 176.838 173.943 176.576C174.984 175.398 178.373 172.019 183.047 172.019C188.709 172.019 198.376 175.081 200.994 184.738C201.003 184.756 201.003 184.765 201.003 184.792C201.157 185.436 204.844 200.601 197.452 201.063C189.887 201.534 186.834 197.811 187.061 194.45C187.061 194.45 190.775 187.773 184.46 189.485C184.46 189.485 177.956 190.708 173.435 188.054C172.874 187.719 172.158 187.927 171.841 188.489C170.944 190.047 169.15 192.448 167.465 190.427C166.849 189.684 166.251 188.833 166.079 187.854C165.979 187.266 166.142 186.74 166.242 186.178Z" fill="#170856"/>
<path d="M201.095 211.952C201.095 211.952 197.408 217.886 192.153 217.823C186.899 217.759 186.564 212.315 186.564 212.315C186.564 212.315 175.856 221.954 175.973 228.323C176.091 234.691 178.22 233.64 178.8 235.76C179.398 237.88 175.258 260.438 175.258 260.438L174.642 261.761L204.9 265.865C204.9 265.865 206.078 261.027 206.902 259.496C207.727 257.965 211.975 218.412 211.975 218.412L209.973 216.292C209.982 216.301 206.44 212.278 201.095 211.952Z" fill="#FCBE42"/>
<path d="M214.458 235.896C214.458 235.896 217.466 216.319 209.856 215.349C202.418 214.407 202.291 220.54 202.065 229.636C201.82 238.723 201.947 240.743 201.947 240.743L213.751 242.863L214.458 235.896Z" fill="#F79F03"/>
<path d="M202.292 240.807C202.102 240.78 201.939 240.916 201.911 241.097L201.295 248.598C201.341 249.74 201.132 250.791 200.072 250.365C199.484 250.12 198.75 249.767 197.817 249.25C194.447 247.366 184.246 242.401 181.066 240.861C180.504 240.59 180.087 240.091 179.861 239.502C179.517 238.56 178.692 237.156 176.79 236.622C173.836 235.797 168.754 235.915 168.645 236.268C168.528 236.622 167.939 239.095 168.174 239.928C168.419 240.753 170.892 240.046 170.892 240.046C170.892 240.046 175.494 239.222 174.199 240.87C173.447 241.831 172.369 241.958 171.608 241.894C171.291 241.876 171.146 242.275 171.39 242.465C172.024 242.963 173.166 243.57 175.023 243.833C178.448 244.304 202.645 260.131 202.645 260.131C202.645 260.131 207.365 263.791 210.083 254.106C212.149 246.723 213.181 244.105 213.562 243.253C213.643 243.063 213.535 242.854 213.317 242.818L202.292 240.807Z" fill="#FEBD96"/>
<path d="M162.078 251.333L175.885 257.041L177.352 248.398L171.726 248.054L162.078 251.333Z" fill="#FEBD96"/>
<path d="M152.601 223.738L130.75 222.434L153.426 251.007L174.326 251.714L152.601 223.738Z" fill="#0064B7"/>
<path d="M152.474 249.005C152.474 249.005 153.298 243.814 151.531 242.98C149.765 242.147 148.614 244.086 148.723 245.028C148.85 246.079 152.319 249.594 152.319 249.594L152.474 249.005Z" fill="#FEBD96"/>
<path d="M174.651 261.788L132.054 277.986C132.054 277.986 126.736 279.055 125.441 293.396C124.145 307.747 123.076 355.272 123.076 355.272L123.013 356.803L133.63 356.984L138.957 306.324L164.17 275.921L184.599 263.102L174.651 261.788Z" fill="#0064E1"/>
<path d="M205.164 264.968L184.482 263.111L140.942 284.863C140.942 284.863 129.183 291.784 136.729 304.35C144.276 316.915 165.339 355.218 165.339 355.218L172.587 349.801L153.988 298.298C153.988 298.298 153.535 295.644 159.74 295.182C165.538 294.756 192.952 292.092 196.494 291.748C196.793 291.721 197.083 291.657 197.364 291.549C199.502 290.751 207.882 286.702 205.219 272.071L204.901 265.874L205.164 264.968Z" fill="#003EB0"/>
<path d="M123.021 356.803L113.771 361.886C113.3 362.148 112.775 362.339 112.249 362.42C111.244 362.574 109.504 363.036 109.504 364.477C109.504 364.477 109.26 366.125 113.753 365.772C118.247 365.419 132.407 365.527 132.407 365.527C132.407 365.527 134.237 365.111 133.938 361.034L133.648 356.957L123.021 356.803Z" fill="#130452"/>
<path d="M165.337 355.209C165.337 355.209 165.255 357.609 162.863 360.925C161.541 362.764 160.109 364.522 158.624 366.234C158.225 366.687 157.808 367.058 157.609 367.62C157.473 368.001 157.364 368.381 157.355 368.78C157.346 369.169 157.419 369.577 157.763 369.803C158.27 370.148 159.031 369.966 159.566 369.812C159.72 369.767 159.883 369.722 160.037 369.658C163.679 368.363 174.532 359.521 176.842 357.618C177.132 357.374 177.313 357.021 177.313 356.64C177.322 355.825 177.177 354.375 176.217 353.243C174.795 351.594 172.602 349.782 172.602 349.782L165.337 355.209Z" fill="#130452"/>
<path d="M280.428 124.638C280.428 124.638 286.081 124.919 290.176 124.919C294.271 124.919 300.767 125.761 300.767 125.761C300.767 125.761 302.461 125.761 302.606 127.881C302.751 130.001 302.751 130.844 302.751 130.844C302.751 130.844 302.896 133.38 300.911 133.38C298.937 133.38 286.362 134.794 283.545 134.794C280.727 134.794 278.607 135.355 278.607 133.38C278.598 131.414 278.453 124.493 280.428 124.638Z" fill="#170856"/>
<path d="M285.093 64.8995C285.093 64.8995 288.772 85.2379 289.052 90.601C289.333 95.9733 289.895 100.068 286.371 102.188C282.838 104.308 277.058 106.283 277.058 106.283L269.855 69.9909V65.7601L285.093 64.8995Z" fill="#FFBF99"/>
<path d="M222.821 63.7676C222.821 63.7676 220.846 72.9448 220.284 77.6104C219.723 82.2669 218.445 91.3173 218.31 93.419C218.165 95.5389 217.884 99.0721 221.707 101.754C225.521 104.435 229.616 105.994 229.616 105.994L237.389 63.7676H222.821Z" fill="#FFBF99"/>
<path d="M250.695 34.5413C250.695 34.5413 250.695 38.772 248.874 40.5929C247.053 42.4139 244.644 45.4307 244.644 45.4307C244.644 45.4307 248.874 52.0803 257.336 51.1743C265.797 50.2684 267.31 44.2167 267.31 44.2167C267.31 44.2167 259.302 43.1658 258.387 35.6012C257.481 28.0457 256.267 28.0457 256.267 28.0457L250.695 34.5413Z" fill="#FFB07E"/>
<path d="M244.502 17.7724C244.502 17.7724 244.801 27.4479 249.34 34.9944C253.878 42.5409 259.314 38.3192 261.434 34.3874C263.554 30.4647 269.289 17.7634 268.084 14.4386C266.87 11.1138 250.255 9.60083 250.255 9.60083L244.502 17.7724Z" fill="#FFBF99"/>
<path d="M265.953 23.1996C265.953 23.1996 268.372 21.3786 268.372 23.1996C268.372 25.0205 267.158 27.7293 265.654 28.0373C264.141 28.3363 264.44 27.4303 264.748 26.2164C265.056 25.0205 265.953 23.1996 265.953 23.1996Z" fill="#FFBF99"/>
<path d="M245.233 26.9954C245.894 27.2853 246.619 27.385 246.619 26.3884C246.619 24.5675 245.405 21.8587 243.901 21.5507C242.388 21.2517 242.687 22.1577 242.995 23.3716C243.104 23.7884 243.276 24.2685 243.457 24.7306C243.801 25.6093 244.689 26.7508 245.233 26.9954Z" fill="#FFBF99"/>
<path d="M244.953 22.1483L244.654 19.1316C244.654 19.1316 247.372 19.4305 250.398 16.4137C250.398 16.4137 256.296 17.7364 260.979 17.3197C265.962 16.8667 268.127 15.4987 268.127 15.4987C268.127 15.4987 267.294 21.2152 266.469 22.8731C266.469 22.8731 268.87 21.8675 269.776 19.1406C270.682 16.4137 270.51 13.5328 270.51 13.5328C270.51 13.5328 273.835 10.815 274.74 7.78917C274.74 7.78917 265.672 5.66927 262.945 3.86644C260.218 2.06362 258.714 0.849659 258.714 0.849659C258.714 0.849659 254.484 -1.56921 250.253 1.7556C246.022 5.08947 243.295 6.89229 243.295 12.636C243.286 12.636 239.363 18.0625 244.953 22.1483Z" fill="#170856"/>
<path d="M245.623 42.3782C245.623 42.3782 239.834 41.6715 236.727 42.5231C233.61 43.3838 232.632 42.804 233.474 45.2047C234.317 47.6055 238.557 58.6126 236.573 65.5431C234.598 72.4645 231.916 107.905 231.916 107.905C231.916 107.905 253.378 108.747 261.712 109.182C270.047 109.617 276.262 108.05 276.262 108.05C276.262 108.05 278.101 92.8029 276.262 86.1623C274.423 79.5218 272.022 68.2247 272.022 68.2247C272.022 68.2247 270.464 52.6969 272.584 48.8828C274.704 45.0688 276.262 44.9239 273.58 43.9455C270.899 42.9489 267.927 42.1064 265.807 42.1064C263.687 42.1064 262.555 42.1064 261.287 43.3838C260.009 44.6611 257.473 47.1978 253.949 46.6361C250.415 46.0744 247.734 43.6737 247.734 43.6737C247.734 43.6737 246.61 42.5141 245.623 42.3782Z" fill="#0083F9"/>
<path d="M235.385 43.5827C235.385 43.5827 233.41 42.5862 230.447 45.1409C227.258 47.8769 224.939 53.7564 223.816 57.4255C222.683 61.0945 221.977 64.7636 221.977 64.7636C221.977 64.7636 226.071 66.8835 230.311 67.0194C234.551 67.1553 237.369 67.4452 237.369 67.4452C237.369 67.4452 239.208 56.4289 238.782 51.4825C238.347 46.5451 237.649 44.8419 235.385 43.5827Z" fill="#0064B7"/>
<path d="M270.971 47.678C270.971 47.678 272.665 43.0215 276.479 45.1414C280.293 47.2613 283.111 55.3151 283.971 57.8517C284.832 60.3884 285.946 65.4798 285.946 65.4798C285.946 65.4798 281.426 67.4547 277.612 67.7355C273.798 68.0164 271.116 68.2972 271.116 68.2972C271.116 68.2972 269.558 58.2685 269.839 54.3095C270.119 50.3596 270.971 47.678 270.971 47.678Z" fill="#0064B7"/>
<path d="M239.825 110.922H268.788L253.849 115.524L239.825 110.922Z" fill="#BC0A28"/>
<path d="M214.069 102.75C214.069 102.75 266.886 119.274 278.472 123.369C278.472 123.369 282.287 124.366 282.431 126.332C282.576 128.307 282.151 131.133 281.725 132.546C281.299 133.96 280.031 135.083 277.911 134.666C275.791 134.241 228.492 124.782 209.693 119.836L204.321 118.142C204.321 118.142 200.362 116.303 201.069 111.51C201.775 106.709 205.309 102.478 207.845 102.197C210.391 101.898 214.069 102.75 214.069 102.75Z" fill="#EE384E"/>
<path d="M209.259 126.196C209.259 126.196 215.89 125.064 219.849 124.919C223.808 124.774 229.026 124.357 229.878 124.919C230.721 125.48 231.436 133.109 231.436 133.109C231.436 133.109 232.143 135.228 226.916 134.803C221.697 134.377 209.685 133.96 209.685 133.96C209.685 133.96 207.003 133.815 206.867 131.423C206.731 129.032 207.148 127.89 207.148 127.89C207.148 127.89 207.574 126.477 209.259 126.196Z" fill="#170856"/>
<path d="M240.748 119.42C240.748 119.42 272.8 109.672 284.242 106.292C295.675 102.895 302.044 99.7968 305.704 105.16C309.382 110.532 309.101 116.457 304.861 118.151C300.622 119.845 267.292 127.618 253.449 130.436C239.606 133.253 230.574 135.092 229.306 134.531C228.038 133.969 226.624 129.874 226.905 127.609C227.186 125.353 227.331 124.511 230.004 123.369C232.694 122.237 240.748 119.42 240.748 119.42Z" fill="#DE051F"/>
<path d="M237.071 72.8179H275.618C275.618 72.8179 277.738 72.5371 277.738 75.3546C277.738 78.1721 277.738 108.684 277.738 108.684C277.738 108.684 277.883 110.94 276.18 110.94C274.486 110.94 230.847 110.94 230.847 110.94C230.847 110.94 229.008 111.502 229.008 108.403C229.008 105.305 229.008 74.5121 229.008 74.5121C229.008 74.5121 228.863 72.8179 231.128 72.8179C233.392 72.8179 237.071 72.8179 237.071 72.8179Z" fill="#0064B7"/>
<path d="M253.119 89.4359L250.939 92.1589L253.662 94.3384L255.842 91.6155L253.119 89.4359Z" fill="#569ED4"/>
<path d="M197.568 160.432C199.589 160.432 199.589 157.297 197.568 157.297C195.557 157.297 195.548 160.432 197.568 160.432Z" fill="#FFB07E"/>
</svg>
