<svg width="500" height="370" viewBox="0 0 500 370" fill="none" xmlns="http://www.w3.org/2000/svg">
<path d="M338.308 56.2713C338.308 56.2713 333.034 65.2748 341.266 65.2748C349.498 65.2748 353.742 67.59 352.456 75.8217C351.17 84.0535 354.128 89.0698 358.887 90.2273C363.646 91.3849 372.649 92.1566 370.206 103.218C367.89 114.28 364.804 136.017 352.327 134.859C339.98 133.701 328.147 118.524 329.947 110.164C331.748 101.803 337.793 97.3015 331.233 90.4846C324.674 83.6676 319.014 90.7418 315.284 81.4811C311.554 72.2203 306.795 63.2168 318.371 55.3709C328.79 48.4254 339.98 50.612 338.308 56.2713Z" stroke="#DB061F" stroke-width="2" stroke-miterlimit="10"/>
<path d="M330.72 65.7894C330.72 65.7894 354.129 124.055 363.518 137.432" stroke="#DB061F" stroke-width="2" stroke-miterlimit="10"/>
<path d="M360.044 60.2584C360.044 60.2584 379.723 58.3291 377.536 69.0047C375.221 79.8089 379.466 81.7382 383.839 83.6675C388.212 85.4682 397.473 85.4682 394.514 96.7869C391.556 108.106 385.639 112.607 388.083 118.267C390.527 123.926 392.971 150.036 382.681 148.235C372.391 146.563 366.732 132.672 365.96 126.241C365.189 119.81 357.857 115.18 351.426 113.122C344.995 111.064 339.078 103.732 345.767 97.5586C352.455 91.3848 353.098 81.4809 348.725 76.722C344.481 71.963 346.796 61.8019 360.044 60.2584Z" fill="#FABC43"/>
<path d="M362.746 73.6353L381.396 157.368" stroke="white" stroke-width="2" stroke-miterlimit="10" stroke-linecap="round" stroke-linejoin="round"/>
<path d="M383.711 92.5425L370.205 107.591L351.812 101.16" stroke="white" stroke-width="2" stroke-miterlimit="10" stroke-linecap="round" stroke-linejoin="round"/>
<path d="M418.311 255.634C440.691 263.48 465.129 251.647 472.846 229.267C480.692 206.887 468.859 182.449 446.479 174.731C424.099 166.886 399.661 178.719 391.943 201.099C384.226 223.479 396.059 247.917 418.311 255.634Z" stroke="#DB061F" stroke-miterlimit="10" stroke-dasharray="6 6"/>
<path d="M472.33 222.836C476.06 224.122 480.176 222.193 481.591 218.334C482.877 214.604 480.948 210.488 477.089 209.073C473.359 207.787 469.243 209.716 467.828 213.575C466.542 217.305 468.472 221.421 472.33 222.836Z" fill="#003FAE"/>
<path d="M473.875 212.674L477.219 217.305L471.945 218.205L473.875 212.674Z" fill="white"/>
<path d="M43.2513 164.57C49.1679 167.657 59.2004 164.442 63.7021 156.082C68.2039 147.721 77.336 151.708 81.066 157.754C84.9247 163.799 91.4844 169.973 98.3013 169.201C105.118 168.301 120.681 170.358 125.183 180.52C129.685 190.552 102.417 194.925 95.9861 193.896C89.555 192.867 86.4681 200.07 75.6639 206.115C64.9884 212.16 62.5446 202.771 59.4576 198.784C56.3707 194.797 53.2838 191.067 42.8655 196.211C32.4471 201.356 29.2316 180.777 29.2316 180.777C27.5595 166.5 37.3348 161.355 43.2513 164.57Z" fill="#023E9F"/>
<path d="M134.186 176.404L43.7656 179.619" stroke="white" stroke-miterlimit="10" stroke-linecap="round" stroke-linejoin="round"/>
<path d="M69.1059 161.227L80.5532 178.333L68.8486 196.083" stroke="white" stroke-miterlimit="10" stroke-linecap="round" stroke-linejoin="round"/>
<path d="M67.9473 126.885C67.8187 133.444 58.3007 138.075 76.8221 146.178C95.3436 154.281 71.5487 159.683 92.1281 175.889C112.708 192.224 123.898 167.143 126.341 151.451C128.914 135.888 111.679 141.29 103.704 134.216C95.8581 127.013 103.704 123.412 102.675 115.566C101.775 107.72 85.9543 109.006 80.5522 110.292C75.1501 111.579 76.3077 106.048 70.7769 101.289C65.2462 96.5299 53.7989 101.289 52.5127 109.521C51.2265 117.752 61.1303 120.068 61.1303 120.068C61.1303 120.068 67.9473 120.196 67.9473 126.885Z" fill="#EC384E"/>
<path d="M135.344 178.204C135.344 178.204 128.913 177.433 110.392 161.355C91.8702 145.277 78.2363 121.997 78.2363 121.997" stroke="white" stroke-miterlimit="10" stroke-linecap="round" stroke-linejoin="round"/>
<path d="M45.8242 141.547C72.7061 153.895 101.646 185.021 101.646 185.021" stroke="#FABC43" stroke-miterlimit="10"/>
<path d="M48.6536 142.962C35.6629 147.207 28.0742 136.531 28.0742 136.531C43.5088 132.544 48.6536 142.962 48.6536 142.962Z" stroke="#FABC43" stroke-miterlimit="10"/>
<path d="M48.5254 160.969C58.6865 150.551 69.362 156.082 69.362 156.082C56.4999 168.687 48.5254 160.969 48.5254 160.969Z" stroke="#FABC43" stroke-miterlimit="10"/>
<path d="M69.6201 175.246C81.5819 167.014 90.9713 174.474 90.9713 174.474C75.9226 184.378 69.6201 175.246 69.6201 175.246Z" stroke="#FABC43" stroke-miterlimit="10"/>
<path d="M63.7027 135.374C59.3296 149.136 69.2334 156.082 69.2334 156.082C74.2497 138.718 63.7027 135.374 63.7027 135.374Z" stroke="#FABC43" stroke-miterlimit="10"/>
<path d="M439.791 342.197H107.819C104.475 342.197 101.902 339.495 101.902 336.28V114.665C101.902 111.321 104.603 108.749 107.819 108.749H439.919C443.263 108.749 445.836 111.45 445.836 114.665V336.28C445.836 339.495 443.135 342.197 439.791 342.197Z" fill="#0064B5"/>
<path d="M438.117 116.852H109.618V339.881H438.117V116.852Z" fill="#DAE6FF"/>
<path d="M480.949 348.113H66.788C63.5724 348.113 61 345.541 61 342.325V338.981C61 335.766 63.5724 333.193 66.788 333.193H480.949C484.164 333.193 486.737 335.766 486.737 338.981V342.325C486.737 345.541 484.164 348.113 480.949 348.113Z" fill="#0064B5"/>
<path d="M438.117 116.852H109.618V333.965H438.117V116.852Z" fill="white"/>
<path d="M399.403 125.984H186.921V325.862H399.403V125.984Z" fill="#E7ECF0"/>
<path d="M338.952 314.157H298.951C298.822 314.157 298.693 314.028 298.693 313.899V311.97C298.693 311.841 298.822 311.713 298.951 311.713H338.952C339.08 311.713 339.209 311.841 339.209 311.97V313.899C339.338 314.028 339.08 314.157 338.952 314.157Z" fill="white"/>
<path d="M348.984 308.112H298.951C298.822 308.112 298.693 307.983 298.693 307.854V305.797C298.693 305.668 298.822 305.539 298.951 305.539H348.984C349.113 305.539 349.242 305.668 349.242 305.797V307.854C349.37 307.983 349.242 308.112 348.984 308.112Z" fill="white"/>
<path d="M381.012 164.185H205.443V287.661H381.012V164.185Z" fill="white"/>
<rect x="215.42" y="185.178" width="51.9029" height="4.80583" rx="2.40291" fill="#DCE8F4"/>
<rect x="215.42" y="197.674" width="51.9029" height="4.80583" rx="2.40291" fill="#DCE8F4"/>
<rect x="215.42" y="210.169" width="124.951" height="4.80583" rx="2.40291" fill="#DCE8F4"/>
<rect x="215.42" y="222.664" width="124.951" height="4.80583" rx="2.40291" fill="#DCE8F4"/>
<path d="M381.012 141.926H205.443V167.007H381.012V141.926Z" fill="#0064B5"/>
<path d="M216.568 150.053C216.568 149.955 216.624 149.899 216.708 149.899C217.058 149.899 217.408 149.899 217.758 149.899C218.472 149.899 219.172 149.899 219.872 149.899C221.818 149.899 222.98 150.977 222.994 152.727C222.98 154.491 221.818 155.569 219.872 155.569H217.786V159.475C217.786 159.559 217.73 159.615 217.646 159.615H216.708C216.624 159.615 216.568 159.559 216.568 159.475V150.053ZM219.844 151.019H217.786V154.435H219.844C220.964 154.435 221.776 153.945 221.776 152.741C221.776 151.649 221.076 151.019 219.844 151.019ZM225.092 159.475V150.039C225.092 149.955 225.148 149.899 225.218 149.899C225.554 149.899 225.876 149.899 226.212 149.899C226.884 149.899 227.556 149.899 228.214 149.899C230.16 149.899 231.322 150.977 231.336 152.727C231.322 154.267 230.426 155.275 228.886 155.499L231.392 159.447C231.462 159.559 231.42 159.615 231.308 159.615H230.16C230.104 159.615 230.048 159.587 230.02 159.545L227.64 155.569H226.31V159.475C226.31 159.559 226.254 159.615 226.17 159.615H225.232C225.148 159.615 225.092 159.559 225.092 159.475ZM226.31 154.435H228.242C229.348 154.435 230.118 153.917 230.118 152.741C230.118 151.649 229.418 151.019 228.242 151.019H226.31V154.435ZM235.038 150.039V159.489C235.038 159.559 234.996 159.615 234.912 159.615H233.96C233.89 159.615 233.834 159.559 233.834 159.489V150.039C233.834 149.955 233.89 149.899 233.96 149.899H234.912C234.996 149.899 235.038 149.955 235.038 150.039ZM246.042 158.467C245.104 159.363 243.844 159.755 242.542 159.755C239.588 159.755 237.6 157.725 237.6 154.771C237.6 151.439 240.078 149.773 242.556 149.773C243.844 149.773 245.076 150.193 246.028 151.075C246.084 151.131 246.084 151.201 246.014 151.257L245.44 151.901C245.412 151.929 245.37 151.943 245.328 151.943C245.3 151.943 245.258 151.929 245.23 151.915C244.698 151.439 243.858 150.963 242.542 150.963C240.316 150.963 238.818 152.489 238.804 154.771C238.818 157.039 240.302 158.551 242.542 158.565C243.816 158.551 244.684 158.089 245.23 157.613C245.272 157.585 245.3 157.571 245.342 157.571C245.384 157.571 245.412 157.585 245.44 157.613L246.042 158.271C246.098 158.327 246.098 158.411 246.042 158.467ZM249.72 150.039V159.489C249.72 159.559 249.678 159.615 249.594 159.615H248.642C248.572 159.615 248.516 159.559 248.516 159.489V150.039C248.516 149.955 248.572 149.899 248.642 149.899H249.594C249.678 149.899 249.72 149.955 249.72 150.039ZM252.982 159.615C252.912 159.615 252.856 159.559 252.856 159.475V150.039C252.856 149.955 252.912 149.899 252.996 149.899H254.13C254.228 149.899 254.256 149.941 254.298 149.997L259.338 157.697V150.039C259.338 149.955 259.394 149.899 259.478 149.899H260.416C260.5 149.899 260.556 149.955 260.556 150.039L260.542 159.475C260.542 159.559 260.486 159.615 260.416 159.615H259.282C259.212 159.615 259.156 159.573 259.114 159.531L254.074 151.817L254.06 159.475C254.06 159.559 254.004 159.615 253.934 159.615H252.982ZM271.208 155.597H268.198C268.128 155.597 268.072 155.541 268.072 155.457V154.673C268.072 154.589 268.128 154.533 268.212 154.533H272.272C272.356 154.533 272.412 154.603 272.412 154.673C272.356 157.837 270.816 159.755 267.89 159.741C265.006 159.741 263.102 157.753 263.102 154.757C263.102 151.775 265.09 149.773 268.086 149.773C269.542 149.773 270.69 150.277 271.544 151.075C271.6 151.131 271.6 151.201 271.544 151.257L270.928 151.915C270.9 151.943 270.872 151.957 270.844 151.957C270.802 151.957 270.774 151.943 270.746 151.915C270.144 151.369 269.22 150.963 268.086 150.963C265.832 150.963 264.306 152.489 264.306 154.757C264.306 157.025 265.748 158.551 267.89 158.551C269.822 158.551 270.942 157.487 271.208 155.597Z" fill="white"/>
<path d="M497.58 349.538H6.375C6.07969 349.538 5.88281 349.242 5.88281 348.799V348.355C5.88281 347.911 6.07969 347.616 6.375 347.616H497.482C497.777 347.616 497.974 347.911 497.974 348.355V348.799C498.072 349.242 497.875 349.538 497.58 349.538Z" fill="#DCE8F4"/>
<path d="M119.651 44.6954C119.394 46.2389 116.307 50.0975 116.307 50.0975L110.391 52.4127L108.59 66.8183L109.362 76.0791C109.362 76.0791 108.59 78.6515 105.76 78.6515C102.673 78.3943 100.873 78.137 101.644 74.0211C102.416 70.1625 100.358 70.4197 99.3291 63.4742C98.3001 56.5286 103.188 54.7279 105.246 53.6989C107.304 52.67 109.362 47.2679 109.362 47.2679C110.133 39.8078 118.108 42.6375 118.108 42.6375C118.108 42.6375 119.909 43.4092 119.651 44.6954Z" fill="#1C1156"/>
<path d="M120.423 41.6087C120.423 42.1231 119.394 44.1811 119.394 44.1811C119.394 44.1811 116.05 42.3804 115.793 42.3804C115.536 42.1231 116.822 40.8369 116.822 40.8369C116.822 40.8369 120.423 41.3514 120.423 41.6087Z" fill="#C74F59"/>
<path d="M126.083 31.0615C121.453 32.0904 122.225 36.4636 120.939 41.6084C119.91 45.9815 117.337 48.8112 116.565 49.5829V49.8402C116.823 50.0974 117.08 50.8691 118.109 52.1553C119.138 54.2133 124.283 55.4995 125.312 54.985C126.341 54.4705 127.627 50.8691 127.37 47.2677C127.112 43.9236 129.942 45.467 129.942 45.467C133.286 45.9815 135.087 43.9236 135.087 43.9236C138.431 40.8367 138.688 32.6049 138.688 30.8042C138.688 30.547 138.431 30.547 138.431 30.547C136.373 30.8042 129.942 30.0325 126.083 31.0615Z" fill="#F9BC97"/>
<path d="M142.546 31.8333C142.289 32.605 141.774 33.1195 141.517 33.634C139.974 34.9202 138.945 33.1195 138.173 32.0905C137.916 31.8333 137.401 31.576 137.144 31.8333C133.8 33.8912 128.655 32.8623 128.655 32.8623C124.025 31.3188 126.854 36.4637 126.854 36.4637C127.112 39.0361 124.796 41.8658 119.137 41.6085C113.735 41.3513 116.307 29.7753 116.565 29.5181C118.365 22.3153 125.568 20.0001 129.941 20.0001C133.285 20.0001 135.858 22.3153 136.629 23.3443C136.887 23.6015 137.144 23.6015 137.401 23.6015C138.687 23.6015 139.716 23.8588 140.745 24.6305C141.774 25.6595 142.289 27.2029 142.546 28.7464C142.546 29.2609 142.546 30.0326 142.546 30.2898V30.5471C142.289 31.0616 142.289 31.576 142.546 31.8333Z" fill="#1C1156"/>
<path d="M109.619 52.9274L108.075 54.4708C108.075 54.4708 111.162 83.9251 111.934 85.2113C112.448 86.4975 113.477 90.0989 113.477 90.0989L136.115 87.012L135.857 85.9831C135.857 85.9831 132.771 69.2623 133.285 67.8474C133.542 66.304 135.343 67.0757 135.343 62.1881C135.343 57.3005 127.368 50.0977 127.368 50.0977C127.368 50.0977 126.854 54.2136 122.995 54.2136C119.137 54.2136 116.307 49.8405 116.307 49.8405C112.191 50.0977 109.619 53.1846 109.619 52.9274Z" fill="#0064DD"/>
<path d="M106.791 72.6063L115.537 71.0628C115.537 71.0628 115.794 69.5194 115.537 62.5738C115.28 55.8855 115.28 51.2551 109.621 52.0269C104.218 52.7986 106.276 67.4614 106.276 67.4614L106.791 72.6063Z" fill="#02549F"/>
<path d="M107.047 73.1205C106.79 73.1205 106.79 73.3778 106.79 73.3778C107.047 73.8923 107.819 75.9502 109.362 81.3523C111.678 88.5551 115.022 85.7254 115.022 85.7254C115.022 85.7254 133.286 73.8923 135.344 73.635C136.63 73.3778 137.659 73.1205 137.916 72.606C138.174 72.606 137.916 72.3488 137.659 72.3488C137.145 72.3488 136.373 72.3488 135.858 71.5771C134.83 70.2909 138.431 71.0626 138.431 71.0626C138.431 71.0626 140.232 71.5771 140.489 71.0626C140.746 70.5481 140.232 68.7474 140.232 68.4902C139.974 67.9757 136.116 67.9757 134.058 68.7474C132.514 69.0046 131.743 70.0336 131.743 70.8053C131.485 71.0626 131.228 71.5771 130.714 71.8343C128.398 72.8633 120.938 76.4647 118.366 78.0081C117.594 78.5226 116.823 78.5226 116.565 78.7799C115.794 79.0371 115.536 78.2654 115.536 77.2364L115.279 71.5771C115.279 71.3198 115.022 71.3198 115.022 71.3198L107.047 73.1205Z" fill="#E8B791"/>
<path d="M138.173 76.7222L133.8 76.9795L134.829 83.1533L145.118 79.0374L138.173 76.7222Z" fill="#E8B791"/>
<path d="M136.114 79.2946L151.806 78.7801L168.527 57.5576L152.321 58.5865L136.114 79.2946Z" fill="#1A1154"/>
<path d="M128.398 88.041L143.576 97.559L162.354 120.068L166.47 157.754L174.445 157.497V156.468C174.445 156.468 173.673 120.839 172.644 110.293C171.615 99.7456 167.499 98.9738 167.499 98.9738L135.601 86.8834L128.398 88.041Z" fill="#DA0620"/>
<path d="M113.222 89.8415L112.965 94.4719C110.907 105.276 117.338 108.363 118.881 108.878C119.139 109.135 119.396 109.135 119.396 109.135C121.968 109.392 142.548 111.45 146.921 111.707C151.551 112.222 151.294 114.022 151.294 114.022L137.403 152.48L142.805 156.596C142.805 156.596 158.497 128.428 164.156 118.91C169.558 109.649 161.069 104.504 161.069 104.504L128.657 88.2981L113.222 89.8415Z" fill="#EA394E"/>
<path d="M166.727 157.496L166.47 160.583C166.212 163.67 167.499 163.927 167.499 163.927C167.499 163.927 178.045 163.927 181.39 164.185C184.734 164.442 184.477 163.156 184.477 163.156C184.477 161.869 183.19 161.612 182.419 161.612C182.161 161.612 181.647 161.355 181.39 161.355L174.444 157.496H166.727Z" fill="black"/>
<path d="M137.144 152.609C137.144 152.609 135.601 154.152 134.572 155.181C133.8 155.953 133.8 156.982 133.8 157.753C133.8 158.268 134.057 158.268 134.057 158.525C135.858 159.811 144.09 166.5 146.662 167.271C146.919 167.271 146.919 167.271 146.919 167.271C147.434 167.529 147.948 167.529 148.463 167.271C148.72 167.014 148.72 166.757 148.72 166.5C148.72 166.242 148.463 165.985 148.463 165.728C148.205 165.214 147.948 164.956 147.691 164.699C146.662 163.156 145.376 162.127 144.604 160.583C142.803 158.011 142.803 156.21 142.803 156.21L137.144 152.609Z" fill="black"/>
<path d="M421.912 163.156C421.912 163.027 421.912 162.641 421.912 162.641C421.783 161.998 421.011 161.226 420.497 160.712C419.21 159.812 417.924 159.297 416.638 159.426C416.124 159.426 415.738 159.554 415.223 159.94C410.078 161.869 408.02 159.426 408.02 159.426C408.02 159.426 403.39 155.567 401.461 159.94C399.531 164.313 403.004 167.014 404.29 166.628C405.577 166.5 409.95 166.114 410.979 168.043C412.265 169.973 414.709 171.387 415.609 171.002C416.252 170.873 416.509 171.902 416.509 172.416C416.509 173.317 415.995 174.346 415.223 174.989C415.095 175.117 414.709 175.503 414.709 175.632C414.709 175.761 414.709 175.761 414.709 176.146C414.709 177.433 414.837 178.204 415.223 179.491C415.352 180.391 415.866 183.735 417.538 183.221C419.854 182.706 425.256 180.262 424.741 171.645C424.741 171.645 425.256 168.301 423.198 166.5C422.683 165.985 421.654 165.599 421.654 164.57C421.14 164.442 421.654 163.67 421.912 163.156Z" fill="#1F1954"/>
<path d="M405.191 165.085C405.191 165.085 400.561 170.873 402.233 180.391C402.233 180.391 403.519 184.25 406.092 184.635C408.407 184.764 407.507 187.465 407.507 188.108C406.992 190.038 406.864 189.009 406.092 190.681C405.577 192.224 408.021 195.311 410.336 195.311C412.652 195.311 416.896 192.481 417.539 191.067C418.182 189.652 418.054 185.279 416.639 182.449C415.224 179.619 416.124 175.246 416.124 175.246C416.124 175.246 421.012 171.516 417.025 169.458C413.423 167.915 406.092 164.442 405.191 165.085Z" fill="#F9BC97"/>
<path d="M390.913 201.999L384.611 210.617C384.611 210.617 383.711 212.16 381.781 211.517C378.952 210.617 368.019 205.858 368.019 205.858C368.019 205.858 366.733 202.385 365.189 201.485C363.646 200.584 357.472 200.07 357.986 204.829C358.501 209.588 361.459 209.974 362.874 209.717C364.289 209.717 372.778 215.633 373.55 216.276C374.45 216.791 382.81 220.907 382.81 220.907C382.81 220.907 385.769 222.321 388.598 219.363C391.428 216.405 398.759 208.688 398.759 208.688L395.287 203.8L390.913 201.999Z" fill="#F9BC97"/>
<path d="M402.361 193.767C402.361 193.767 394.258 197.626 391.686 201.099L390.785 201.999L397.859 207.916L402.361 193.767Z" fill="#F39D1D"/>
<path d="M417.924 187.594C417.924 188.108 417.924 188.237 417.795 188.88C417.795 189.394 417.667 189.523 417.281 190.166C416.895 190.681 416.766 191.066 416.38 191.452C415.866 191.967 415.48 192.353 414.966 192.738C414.451 193.253 413.679 193.382 413.036 193.639C412.393 193.767 411.493 194.153 410.721 194.153C410.592 194.153 410.207 194.153 410.078 194.153C409.949 194.153 409.563 194.025 409.435 193.639C408.92 193.51 408.534 192.996 408.02 192.353C407.377 191.838 406.734 191.066 406.091 190.423C406.091 190.423 399.017 192.996 397.344 207.53L397.216 240.457L432.587 239.557L423.069 193.382C422.683 192.61 419.725 188.623 417.924 187.594Z" fill="#FABC43"/>
<path d="M431.687 207.787C431.687 207.787 428.343 191.967 422.169 192.481C415.866 192.996 417.924 205.601 419.339 209.716L431.687 207.787Z" fill="#F39D1D"/>
<path d="M397.216 240.071L404.419 340.267L413.165 340.782L415.995 284.06L412.65 239.814L397.216 240.071Z" fill="#0053A1"/>
<path d="M407.634 239.686C407.634 239.686 409.563 279.815 416.38 293.063C423.454 306.183 432.2 332.422 437.86 337.052L445.191 332.164C445.191 332.164 429.885 289.591 430.657 277.5L432.586 239.171L407.634 239.686Z" fill="#0064DF"/>
<path d="M419.21 209.717C419.21 209.717 424.87 219.878 424.87 222.193C424.87 224.508 425.77 232.354 424.87 240.071C424.87 240.071 421.911 252.033 421.011 253.062L418.696 255.892C418.696 255.892 417.281 257.95 420.111 256.792C420.111 256.792 421.525 257.435 420.754 258.207C420.111 258.85 418.439 258.85 417.924 260.522C417.924 260.522 415.352 261.422 417.281 262.837C417.281 262.837 419.596 264.767 420.754 263.352C420.754 263.352 422.812 263.352 422.812 261.937C422.812 261.937 424.741 261.037 425.127 257.564C425.641 253.834 428.085 250.361 428.857 248.946C428.857 248.946 433.745 232.611 433.745 231.839C433.745 231.325 433.745 230.553 433.745 230.296C433.745 229.01 433.745 227.981 433.745 226.823C433.745 225.408 433.745 223.994 433.745 222.579C433.745 221.164 433.616 219.749 433.23 218.334C433.101 216.919 432.587 215.762 432.587 214.604C432.587 214.09 432.587 213.318 432.458 213.061C432.458 211.775 432.33 210.746 431.944 209.331C431.944 209.202 431.815 207.916 431.815 207.787L419.21 209.717Z" fill="#F9BC97"/>
<path d="M413.293 340.782L404.547 340.139C404.547 340.139 397.473 345.284 395.029 345.798C392.199 346.313 391.17 347.856 393.1 348.113C395.029 348.242 411.878 348.242 411.878 348.242C411.878 348.242 413.808 347.985 413.293 340.782Z" fill="#201A56"/>
<path d="M437.731 336.537C437.731 336.537 434.258 343.225 432.844 344.64C431.429 346.441 429.371 350.3 432.844 348.242C435.802 346.441 445.834 340.139 447.764 338.724C447.892 338.724 447.892 338.209 447.892 338.209C447.892 338.081 447.892 337.695 447.892 337.437C447.892 336.666 447.378 334.994 446.477 333.965C445.063 331.907 445.063 331.907 445.063 331.907L437.731 336.537Z" fill="#201A56"/>
<path d="M132.644 341.039C132.644 341.039 137.789 341.296 141.648 341.296C145.378 341.296 151.423 342.068 151.423 342.068C151.423 342.068 152.966 342.068 153.095 343.997C153.223 345.926 153.223 346.698 153.223 346.698C153.223 346.698 153.352 349.013 151.551 349.013C149.751 349.013 138.175 350.299 135.602 350.299C133.03 350.299 131.101 350.814 131.101 349.013C130.972 347.212 130.843 340.91 132.644 341.039Z" fill="#160856"/>
<path d="M136.889 286.117C136.889 286.117 140.233 304.767 140.49 309.784C140.748 314.671 141.262 318.53 138.046 320.459C134.831 322.389 129.429 324.189 129.429 324.189L122.869 290.748V286.889L136.889 286.117Z" fill="#FDBD97"/>
<path d="M79.651 284.96C79.651 284.96 77.8503 293.449 77.3358 297.694C76.8214 301.938 75.6638 310.299 75.5351 312.228C75.4065 314.157 75.1493 317.373 78.6221 319.945C82.0948 322.389 85.9535 323.804 85.9535 323.804L93.1563 284.96H79.651Z" fill="#FDBD97"/>
<path d="M105.248 258.078C105.248 258.078 105.248 261.937 103.576 263.609C101.904 265.281 99.7178 268.111 99.7178 268.111C99.7178 268.111 103.576 274.284 111.422 273.384C119.14 272.612 120.554 266.953 120.554 266.953C120.554 266.953 113.223 265.924 112.323 258.978C111.551 252.033 110.393 252.033 110.393 252.033L105.248 258.078Z" fill="#FDAE7D"/>
<path d="M99.5889 242.644C99.5889 242.644 99.8461 251.518 104.091 258.464C108.206 265.409 113.223 261.551 115.281 257.949C117.21 254.348 122.483 242.644 121.454 239.557C120.297 236.47 104.991 235.055 104.991 235.055L99.5889 242.644Z" fill="#FDBD97"/>
<path d="M119.267 247.66C119.267 247.66 121.454 245.988 121.454 247.66C121.454 249.332 120.296 251.776 119.01 252.162C117.595 252.419 117.853 251.647 118.238 250.49C118.496 249.332 119.267 247.66 119.267 247.66Z" fill="#FDBD97"/>
<path d="M100.231 251.261C100.874 251.518 101.517 251.647 101.517 250.747C101.517 249.075 100.36 246.631 99.0736 246.245C97.6587 245.988 97.916 246.759 98.3019 247.917C98.4305 248.303 98.5591 248.689 98.6877 249.203C98.9449 249.975 99.7167 251.004 100.231 251.261Z" fill="#FDBD97"/>
<path d="M99.9746 246.759L99.7173 243.93C99.7173 243.93 102.161 244.187 104.991 241.486C104.991 241.486 110.393 242.772 114.766 242.258C119.396 241.872 121.326 240.586 121.326 240.586C121.326 240.586 120.554 245.859 119.782 247.403C119.782 247.403 121.969 246.502 122.869 243.93C123.641 241.486 123.512 238.785 123.512 238.785C123.512 238.785 126.599 236.341 127.371 233.511C127.371 233.511 119.011 231.582 116.567 229.91C114.123 228.238 112.708 227.08 112.708 227.08C112.708 227.08 108.849 224.894 104.991 227.852C101.132 230.939 98.5597 232.611 98.5597 237.885C98.4311 238.013 94.8297 243.029 99.9746 246.759Z" fill="#160856"/>
<path d="M100.618 265.281C100.618 265.281 95.3441 264.638 92.3858 265.409C89.5562 266.181 88.6558 265.667 89.4275 267.853C90.1993 270.04 94.0579 280.201 92.2572 286.503C90.4565 292.806 88.0127 325.476 88.0127 325.476C88.0127 325.476 107.82 326.247 115.409 326.633C123.126 327.019 128.786 325.604 128.786 325.604C128.786 325.604 130.458 311.584 128.786 305.411C127.114 299.365 124.927 288.947 124.927 288.947C124.927 288.947 123.512 274.67 125.442 271.197C127.371 267.725 128.786 267.596 126.342 266.696C123.898 265.795 121.197 265.023 119.139 265.023C117.21 265.023 116.181 265.023 115.023 266.181C113.866 267.339 111.55 269.654 108.335 269.139C105.119 268.625 102.676 266.438 102.676 266.438C102.676 266.438 101.518 265.409 100.618 265.281Z" fill="#0181F7"/>
<path d="M91.2278 266.439C91.2278 266.439 89.4271 265.538 86.7261 267.853C83.7678 270.426 81.7098 275.828 80.6809 279.172C79.6519 282.516 79.0088 285.86 79.0088 285.86C79.0088 285.86 82.7388 287.79 86.7261 287.918C90.5847 288.047 93.1571 288.304 93.1571 288.304C93.1571 288.304 94.8292 278.143 94.4434 273.641C93.9289 269.14 93.2858 267.596 91.2278 266.439Z" fill="#023E9F"/>
<path d="M123.898 270.168C123.898 270.168 125.442 265.924 128.914 267.853C132.387 269.783 134.96 277.243 135.86 279.558C136.632 281.873 137.661 286.632 137.661 286.632C137.661 286.632 133.545 288.433 129.943 288.69C126.471 288.947 124.027 289.204 124.027 289.204C124.027 289.204 122.612 279.944 122.869 276.342C123.126 272.741 123.898 270.168 123.898 270.168Z" fill="#023E9F"/>
<path d="M95.2148 328.434H121.839L108.077 332.678L95.2148 328.434Z" fill="#BA0A28"/>
<path d="M71.5488 320.845C71.5488 320.845 120.168 336.023 130.843 339.753C130.843 339.753 134.316 340.653 134.445 342.454C134.573 344.255 134.187 346.827 133.801 348.113C133.416 349.399 132.258 350.428 130.329 350.043C128.399 349.657 84.7967 340.91 67.5615 336.409L62.6739 334.865C62.6739 334.865 59.0725 333.193 59.7156 328.82C60.3587 324.447 63.5742 320.46 65.8894 320.202C68.2046 320.074 71.5488 320.845 71.5488 320.845Z" fill="#EC384E"/>
<path d="M67.175 342.454C67.175 342.454 73.2202 341.425 76.9502 341.296C80.5516 341.168 85.4392 340.782 86.211 341.296C86.9827 341.811 87.6258 348.885 87.6258 348.885C87.6258 348.885 88.2689 350.814 83.5099 350.428C78.7509 350.043 67.6895 349.657 67.6895 349.657C67.6895 349.657 65.2457 349.528 65.1171 347.341C64.9884 345.155 65.3743 344.126 65.3743 344.126C65.3743 344.126 65.5029 342.711 67.175 342.454Z" fill="#160856"/>
<path d="M96.1163 336.28C96.1163 336.28 125.571 327.276 136.118 324.189C146.665 321.102 152.452 318.273 155.925 323.16C159.269 328.048 159.012 333.579 155.154 335.122C151.295 336.666 120.554 343.868 107.821 346.441C95.0874 349.013 86.727 350.685 85.5694 350.171C84.4118 349.656 83.1256 345.926 83.3828 343.868C83.64 341.811 83.7687 341.039 86.2125 340.01C88.6563 338.852 96.1163 336.28 96.1163 336.28Z" fill="#DB061F"/>
<path d="M92.7705 293.32H128.27C128.27 293.32 130.199 293.063 130.199 295.635C130.199 298.208 130.199 326.247 130.199 326.247C130.199 326.247 130.328 328.305 128.785 328.305C127.241 328.305 87.1112 328.305 87.1112 328.305C87.1112 328.305 85.4391 328.82 85.4391 325.99C85.4391 323.16 85.4391 294.864 85.4391 294.864C85.4391 294.864 85.3105 293.32 87.3684 293.32C89.2977 293.32 92.7705 293.32 92.7705 293.32Z" fill="#0064B5"/>
<path d="M110.007 310.684L107.435 308.626L105.377 311.199L107.949 313.257L110.007 310.684Z" fill="#579CD2"/>
<path d="M6.02975 299.108C6.02975 299.108 9.3739 297.693 9.11666 293.963C8.85942 290.104 6.9301 287.403 10.9174 288.561C15.0332 289.719 16.3195 290.104 19.2777 289.59C22.236 288.947 24.6798 287.789 23.3936 291.519C22.1074 295.378 20.6926 298.465 23.7795 299.108C26.8664 299.751 30.0819 297.436 30.4678 303.352C30.8537 309.269 26.0947 316.086 18.2488 316.215C10.5315 316.472 7.05872 313.256 7.05872 313.256C7.05872 313.256 5.00077 310.298 8.21631 309.526C11.4318 308.755 14.776 307.468 13.1039 305.925C11.4318 304.381 6.02975 304.253 6.02975 304.253C6.02975 304.253 -0.787185 303.095 6.02975 299.108Z" fill="#649CE8"/>
<path d="M41.5294 300.137C41.0149 296.278 41.4007 293.577 48.4749 292.548C55.5491 291.519 59.665 295.764 60.0508 300.137C60.4367 304.51 54.3915 306.054 54.3915 306.054C54.3915 306.054 50.0184 307.34 52.2049 311.07C54.3915 314.928 55.4205 318.53 50.4042 319.173C45.388 319.687 39.8573 318.401 36.7704 316.343C33.6835 314.285 30.5965 309.14 34.0693 306.439C34.0693 306.439 35.0983 305.796 38.4424 305.539C41.9152 305.41 41.5294 300.137 41.5294 300.137Z" fill="#023E9F"/>
<path d="M16.7041 299.494C16.7041 299.494 22.6207 312.742 23.3924 321.746" stroke="#023E9F" stroke-miterlimit="10"/>
<path d="M49.2459 301.681C49.2459 301.681 38.8276 317.115 36.3838 322.26" stroke="#649CE8" stroke-miterlimit="10"/>
<path d="M19.6632 320.717H43.4582C43.4582 320.717 46.0306 320.845 45.902 324.447C45.7733 327.791 41.5288 327.019 39.3423 327.019C37.1557 327.019 19.1487 327.019 19.1487 327.019C19.1487 327.019 16.1904 327.534 16.1904 324.189C16.3191 320.974 17.348 320.717 19.6632 320.717Z" fill="#0055A2"/>
<path d="M19.2773 327.019L22.8787 348.113H38.8278L41.5288 332.292L19.2773 327.019Z" fill="#0055A2"/>
<path d="M19.2773 327.019L41.5288 332.292L42.4292 327.019H19.2773Z" fill="#016AD3"/>
<path d="M29.4385 321.488C29.4385 321.488 30.5961 298.079 37.6702 283.416" stroke="#FABC43" stroke-miterlimit="10"/>
<path d="M43.4595 275.056C43.4595 275.056 43.974 282.259 37.0284 285.088C37.0284 285.088 35.485 278.915 43.4595 275.056Z" fill="#FABC43"/>
<path d="M32.9111 297.951C32.9111 297.951 35.4836 291.777 43.4581 292.677C43.4581 292.549 42.815 298.722 32.9111 297.951Z" fill="#FABC43"/>
<path d="M30.3389 313.256C30.3389 313.256 31.6251 306.697 39.5996 306.053C39.5996 306.053 40.1141 312.099 30.3389 313.256Z" fill="#FABC43"/>
<path d="M29.9536 313.385C29.9536 313.385 30.8539 306.826 23.6511 303.481C23.6511 303.353 21.0787 309.012 29.9536 313.385Z" fill="#FABC43"/>
<path d="M33.0401 297.822C33.0401 297.822 34.8408 291.391 28.0239 287.146C28.0239 287.146 24.6797 292.42 33.0401 297.822Z" fill="#FABC43"/>
<path d="M347.31 295.378C347.31 295.378 350.912 293.963 350.654 289.847C350.397 285.732 348.339 282.902 352.584 284.059C356.957 285.217 358.372 285.732 361.587 285.088C364.803 284.445 367.375 283.159 365.96 287.146C364.545 291.262 363.131 294.735 366.346 295.378C369.562 296.021 373.163 293.577 373.549 300.009C373.935 306.44 368.79 313.642 360.43 313.9C352.069 314.157 348.339 310.684 348.339 310.684C348.339 310.684 346.153 307.469 349.625 306.697C353.098 305.925 356.7 304.382 354.899 302.838C353.098 301.166 347.31 301.038 347.31 301.038C347.31 301.038 339.979 299.623 347.31 295.378Z" fill="#649CE8"/>
<path d="M385.511 296.407C384.868 292.291 385.382 289.333 392.971 288.304C400.559 287.146 405.061 291.777 405.447 296.407C405.962 301.037 399.273 302.838 399.273 302.838C399.273 302.838 394.643 304.124 396.958 308.24C399.273 312.356 400.431 316.343 395.029 316.858C389.627 317.501 383.71 316.086 380.366 313.899C377.022 311.713 373.678 306.182 377.536 303.224C377.536 303.224 378.565 302.452 382.167 302.324C385.897 302.195 385.511 296.407 385.511 296.407Z" fill="#023E9F"/>
<path d="M358.759 295.764C358.759 295.764 365.061 310.041 365.962 319.816" stroke="#023E9F" stroke-miterlimit="10"/>
<path d="M393.871 298.079C393.871 298.079 382.681 314.671 380.108 320.202" stroke="#649CE8" stroke-miterlimit="10"/>
<path d="M362.101 318.659H387.697C387.697 318.659 390.527 318.916 390.269 322.646C390.012 326.119 385.639 325.347 383.324 325.347C381.009 325.347 361.587 325.347 361.587 325.347C361.587 325.347 358.5 325.861 358.5 322.26C358.371 318.787 359.529 318.659 362.101 318.659Z" fill="#0055A2"/>
<path d="M361.587 325.475L365.446 348.113H382.681L385.639 331.135L361.587 325.475Z" fill="#0055A2"/>
<path d="M361.587 325.475L385.639 331.135L386.668 325.475H361.587Z" fill="#016AD3"/>
<path d="M372.647 319.559C372.647 319.559 373.934 294.349 381.394 278.657" stroke="#FABC43" stroke-miterlimit="10"/>
<path d="M387.569 269.525C387.569 269.525 388.212 277.242 380.623 280.201C380.623 280.201 379.08 273.641 387.569 269.525Z" fill="#FABC43"/>
<path d="M376.25 294.092C376.25 294.092 379.08 287.532 387.569 288.433C387.569 288.433 386.926 294.992 376.25 294.092Z" fill="#FABC43"/>
<path d="M373.42 310.684C373.42 310.684 374.835 303.738 383.452 302.838C383.452 302.838 384.095 309.398 373.42 310.684Z" fill="#FABC43"/>
<path d="M373.164 310.684C373.164 310.684 374.193 303.61 366.347 300.008C366.347 300.008 363.517 305.925 373.164 310.684Z" fill="#FABC43"/>
<path d="M376.379 294.092C376.379 294.092 378.308 287.147 370.977 282.645C370.977 282.516 367.504 288.176 376.379 294.092Z" fill="#FABC43"/>
<path d="M448.666 67.0754L441.463 69.1334L443.521 76.3362L450.724 74.2782L448.666 67.0754Z" fill="#EB3B4E"/>
</svg>
