<svg width="500" height="370" viewBox="0 0 500 370" fill="none" xmlns="http://www.w3.org/2000/svg">
<path d="M379.67 25.9702C379.67 25.9702 375.926 17.8345 383.044 14.6545C390.162 11.4746 400.351 17.1836 399.703 23.4497C399.055 29.7158 394.106 31.6122 398.133 34.8233C402.161 38.0344 411.896 48.5083 406.354 53.0799C400.812 57.6515 393.551 53.9577 392.364 63.0805C391.178 72.2034 405.082 81.6675 391.491 87.6682C377.891 93.6735 352.062 98.2941 353.288 75.6223C354.515 52.9504 372.045 67.1244 367.992 49.9924C363.939 32.8603 372.894 37.3347 378.105 34.1003C383.316 30.8891 379.67 25.9702 379.67 25.9702Z" fill="#023EA1"/>
<path d="M387.699 39.06C387.699 39.06 377.186 60.2558 374.947 81.3661C372.708 102.476 375.719 107.346 375.719 107.346" stroke="white" stroke-width="1.4391" stroke-miterlimit="10" stroke-linecap="round" stroke-linejoin="round"/>
<path d="M370.949 131.438C370.949 131.438 404.466 88.713 414.634 52.4372" stroke="#EE384E" stroke-width="1.4391" stroke-miterlimit="10"/>
<path d="M417.468 28.9387C417.468 28.9387 405.524 40.6103 413.511 56.2007C413.506 56.1914 425.505 47.7918 417.468 28.9387Z" stroke="#EE384E" stroke-width="1.4391" stroke-miterlimit="10"/>
<path d="M401.036 84.9002C401.036 84.9002 405.85 70.2556 390.721 59.5988C390.716 59.5895 382.508 71.2113 401.036 84.9002Z" stroke="#EE384E" stroke-width="1.4391" stroke-miterlimit="10"/>
<path d="M382.128 115.813C382.128 115.813 389.716 102.393 376.962 88.9793C376.962 88.9793 366.641 98.7671 382.128 115.813Z" stroke="#EE384E" stroke-width="1.4391" stroke-miterlimit="10"/>
<path d="M382.548 116.301C382.548 116.301 390.971 103.387 408.753 108.534C408.753 108.534 404.818 122.21 382.548 116.301Z" stroke="#EE384E" stroke-width="1.4391" stroke-miterlimit="10"/>
<path d="M400.962 84.6956C400.962 84.6956 407.669 70.8152 425.956 73.6526C425.956 73.6526 423.798 87.7107 400.962 84.6956Z" stroke="#EE384E" stroke-width="1.4391" stroke-miterlimit="10"/>
<path d="M286.685 285.912H213.16V334.446H286.685V285.912Z" fill="#012D75"/>
<path d="M405.686 73.1705H94.1808C91.7624 73.1705 89.8193 75.1342 89.8193 77.532V286.884C89.8193 289.302 91.783 291.245 94.1808 291.245H405.686C408.105 291.245 410.048 289.281 410.048 286.884V77.532C410.048 75.1135 408.084 73.1705 405.686 73.1705Z" fill="#0064B7"/>
<path d="M405.457 81.0044H93.9932V276.424H405.457V81.0044Z" fill="white"/>
<path d="M405.457 80.839H93.9932V93.4894H405.457V80.839Z" fill="#012D75"/>
<path d="M103.296 90.1614C105.134 90.1614 106.624 88.7454 106.624 86.9988C106.624 85.2521 105.134 83.8362 103.296 83.8362C101.458 83.8362 99.9678 85.2521 99.9678 86.9988C99.9678 88.7454 101.458 90.1614 103.296 90.1614Z" fill="#EE384E"/>
<path d="M114.396 90.1615C116.234 90.1615 117.724 88.7456 117.724 86.9989C117.724 85.2523 116.234 83.8363 114.396 83.8363C112.558 83.8363 111.068 85.2523 111.068 86.9989C111.068 88.7456 112.558 90.1615 114.396 90.1615Z" fill="#FCBE42"/>
<path d="M126.077 90.1615C127.915 90.1615 129.405 88.7456 129.405 86.9989C129.405 85.2523 127.915 83.8363 126.077 83.8363C124.239 83.8363 122.749 85.2523 122.749 86.9989C122.749 88.7456 124.239 90.1615 126.077 90.1615Z" fill="#003EB0"/>
<path d="M311.781 326.778H188.067C187.716 326.778 187.447 327.067 187.447 327.398V340.71H312.401V327.398C312.401 327.046 312.132 326.778 311.781 326.778Z" fill="#0064B7"/>
<path d="M390.516 105.705H105.097V262.823H390.516V105.705Z" fill="#DCE8F4"/>
<path d="M313.929 112.671H115.037V230.018H313.929V112.671Z" fill="white"/>
<path d="M313.929 219.415H115.037V229.688H313.929V219.415Z" fill="#0064B7"/>
<g opacity="0.35">
<path d="M261.075 127.704H158.507C154.766 127.704 151.748 130.722 151.748 134.463V193.932C151.748 197.674 154.766 200.692 158.507 200.692H261.054C264.795 200.692 267.813 197.674 267.813 193.932V134.463C267.834 130.722 264.816 127.704 261.075 127.704Z" fill="#ACCDE9"/>
</g>
<path d="M203.522 175.522C201.527 176.821 198.886 175.389 198.886 173.007V155.634C198.886 153.21 201.612 151.787 203.601 153.173L216.491 162.156C218.237 163.373 218.196 165.971 216.412 167.132L203.522 175.522Z" fill="white"/>
<path d="M120.349 223.714C119.811 223.714 119.356 224.168 119.356 224.706C119.356 225.264 119.811 225.698 120.349 225.698H196.602C196.602 225.14 196.602 224.52 196.602 223.714H120.349Z" fill="#EE384E"/>
<path d="M303.659 223.714H196.585C196.585 224.52 196.585 225.14 196.585 225.698H303.659C304.196 225.698 304.651 225.243 304.651 224.706C304.651 224.168 304.217 223.714 303.659 223.714Z" fill="#E2E8ED"/>
<path d="M197.699 232.003C201.5 232.003 204.582 228.921 204.582 225.119C204.582 221.318 201.5 218.236 197.699 218.236C193.897 218.236 190.815 221.318 190.815 225.119C190.815 228.921 193.897 232.003 197.699 232.003Z" fill="#012D75"/>
<path d="M197.698 228.572C199.605 228.572 201.15 227.026 201.15 225.12C201.15 223.213 199.605 221.668 197.698 221.668C195.792 221.668 194.246 223.213 194.246 225.12C194.246 227.026 195.792 228.572 197.698 228.572Z" fill="white"/>
<path d="M128.805 255.877C133.84 255.877 137.921 251.796 137.921 246.761C137.921 241.727 133.84 237.646 128.805 237.646C123.771 237.646 119.689 241.727 119.689 246.761C119.689 251.796 123.771 255.877 128.805 255.877Z" fill="white"/>
<path d="M193.938 242.772H144.535C143.708 242.772 143.047 242.111 143.047 241.284C143.047 240.457 143.708 239.796 144.535 239.796H193.938C194.765 239.796 195.426 240.457 195.426 241.284C195.426 242.111 194.765 242.772 193.938 242.772Z" fill="white"/>
<path d="M207.684 253.045H144.039C143.212 253.045 142.551 252.384 142.551 251.557C142.551 250.73 143.212 250.069 144.039 250.069H207.684C208.511 250.069 209.172 250.73 209.172 251.557C209.172 252.384 208.511 253.045 207.684 253.045Z" fill="white"/>
<path d="M265.871 253.211H218.474C217.647 253.211 216.985 252.549 216.985 251.722C216.985 250.896 217.647 250.234 218.474 250.234H265.871C266.698 250.234 267.36 250.896 267.36 251.722C267.36 252.549 266.698 253.211 265.871 253.211Z" fill="white"/>
<path d="M226.08 243.103H204.211C203.384 243.103 202.723 242.441 202.723 241.615C202.723 240.788 203.384 240.126 204.211 240.126H226.08C226.907 240.126 227.569 240.788 227.569 241.615C227.569 242.441 226.907 243.103 226.08 243.103Z" fill="white"/>
<path d="M379.228 115.317H321.557V149.796H379.228V115.317Z" fill="#ACCDE9"/>
<path d="M348.946 142.343C347.617 143.217 345.848 142.263 345.848 140.672V126.631C345.848 125.011 347.673 124.063 348.998 124.995L359.317 132.25C360.472 133.062 360.445 134.782 359.266 135.557L348.946 142.343Z" fill="white"/>
<path d="M379.228 160.4H321.557V194.879H379.228V160.4Z" fill="#ACCDE9"/>
<path d="M348.946 187.425C347.617 188.3 345.848 187.346 345.848 185.754V171.713C345.848 170.093 347.673 169.146 348.998 170.077L359.317 177.333C360.472 178.145 360.445 179.865 359.266 180.64L348.946 187.425Z" fill="white"/>
<path d="M379.228 205.483H321.557V239.961H379.228V205.483Z" fill="#ACCDE9"/>
<path d="M348.946 232.508C347.617 233.382 345.848 232.428 345.848 230.836V216.796C345.848 215.176 347.673 214.228 348.998 215.159L359.317 222.415C360.472 223.227 360.445 224.947 359.266 225.722L348.946 232.508Z" fill="white"/>
<path d="M103.902 300.546H61C55.4772 300.546 51 305.023 51 310.546V354.667C51 360.19 55.4772 364.667 61 364.667H103.902C109.425 364.667 113.902 360.19 113.902 354.667V310.546C113.902 305.023 109.425 300.546 103.902 300.546Z" fill="#023EA1"/>
<path d="M76.2566 225.563C76.2566 225.563 67.3455 222.291 66.2971 230.797C66.2971 230.797 64.0693 236.948 61.7105 237.995C59.4827 239.042 53.7165 241.266 55.1581 249.118C56.5997 257.1 58.6963 256.576 57.9101 261.157C56.9927 265.737 59.2205 266.261 62.3657 266.392C65.5108 266.522 66.4281 263.512 66.4281 263.512L65.5108 253.305L67.6075 236.817L74.422 234.068C74.422 234.068 77.9602 229.62 78.2223 227.918C78.4844 226.217 76.2566 225.563 76.2566 225.563Z" fill="#170856"/>
<path d="M75.0763 223.339C75.0763 223.339 73.6348 224.778 74.0279 225.04C74.421 225.302 78.2214 227.395 78.2214 227.395C78.2214 227.395 79.4008 225.171 79.2698 224.516C79.1388 223.861 75.0763 223.339 75.0763 223.339Z" fill="#F05051"/>
<path d="M98.801 212.215C99.0632 212.215 99.1942 212.346 99.1942 212.608C99.1942 214.571 98.67 223.993 95.0008 227.526C95.0008 227.526 93.035 230.144 89.3658 228.965C89.3658 228.965 85.9584 226.872 86.4826 231.059C87.0068 235.247 85.3032 239.303 83.9928 239.827C82.6824 240.482 77.1784 238.911 75.8678 236.556C75.0816 234.985 74.5574 234.2 74.4264 233.808C74.2954 233.677 74.2954 233.546 74.4264 233.284C75.2126 232.368 78.0956 228.835 79.4062 223.993C80.9788 218.367 80.0614 212.87 85.3032 211.823C89.6278 211.169 97.0974 212.085 98.801 212.215Z" fill="#FFBE97"/>
<path d="M103.649 211.822C103.649 211.691 103.649 211.693 103.649 211.562C103.649 211.038 103.649 210.383 103.649 209.86C103.518 208.159 102.863 206.327 101.552 205.149C100.504 204.233 99.1937 203.971 98.0143 203.971C97.7521 203.971 97.4901 203.84 97.2279 203.709C96.3107 202.663 93.4275 199.783 89.4961 199.783C84.7785 199.783 76.5226 202.401 74.2948 210.645C74.1637 211.169 71.0186 224.123 77.3088 224.516C83.7301 224.909 86.22 221.769 86.0889 218.889C86.0889 218.889 82.9439 213.263 88.3167 214.702C88.3167 214.702 93.8207 215.748 97.6211 213.524C98.1453 213.263 98.6695 213.394 98.9315 213.916C99.7179 215.225 101.159 217.319 102.6 215.618C103.125 214.964 103.649 214.309 103.781 213.394C103.912 212.739 103.781 212.346 103.649 211.822Z" fill="#170856"/>
<path d="M74.2933 233.676C74.2933 233.676 77.4385 238.78 81.8941 238.649C86.3497 238.649 86.6117 233.938 86.6117 233.938C86.6117 233.938 95.6539 242.182 95.5229 247.547C95.3919 252.913 93.6883 252.127 93.1641 253.828C92.6399 255.66 96.1781 274.766 96.1781 274.766L96.7023 275.943L71.1483 279.477C71.1483 279.477 70.0999 275.42 69.4447 274.111C68.7894 272.803 65.1201 239.172 65.1201 239.172L66.8237 237.34C66.6927 237.471 69.7067 233.938 74.2933 233.676Z" fill="#FCBE42"/>
<path d="M62.894 254.091C62.894 254.091 60.404 237.472 66.8254 236.556C73.1156 235.771 73.2466 241.005 73.3776 248.726C73.6398 256.446 73.5087 258.147 73.5087 258.147L63.5492 259.979L62.894 254.091Z" fill="#F79F03"/>
<path d="M73.2463 258.277C73.3774 258.277 73.5085 258.408 73.5085 258.539L74.0327 264.951C74.0327 265.868 74.1637 266.783 75.0811 266.39C75.6052 266.13 76.2605 265.868 77.0467 265.475C79.9297 263.905 88.4477 259.586 91.1997 258.408C91.7239 258.146 91.9861 257.755 92.2481 257.231C92.5102 256.445 93.2965 255.268 94.8691 254.744C97.3589 254.09 101.683 254.09 101.683 254.482C101.815 254.744 102.339 256.838 102.077 257.624C101.815 258.277 99.8489 257.755 99.8489 257.755C99.8489 257.755 95.9175 257.1 97.0969 258.408C97.7521 259.194 98.6694 259.325 99.3247 259.325C99.5867 259.325 99.7178 259.586 99.4557 259.848C98.9315 260.24 98.0142 260.764 96.4416 261.026C93.5586 261.418 73.1153 274.897 73.1153 274.897C73.1153 274.897 69.1839 278.038 66.8251 269.793C65.1215 263.512 64.2041 261.287 63.9421 260.502C63.8109 260.371 63.9421 260.109 64.2041 260.109L73.2463 258.277Z" fill="#FEBD96"/>
<path d="M107.184 267.176L95.5212 272.018L94.3418 264.691L99.0594 264.429L107.184 267.176Z" fill="#FEBD96"/>
<path d="M115.178 243.752L133.656 242.705L114.524 266.914L96.832 267.569L115.178 243.752Z" fill="#012D75"/>
<path d="M115.312 265.213C115.312 265.213 114.658 260.764 116.099 260.11C117.54 259.456 118.588 261.026 118.457 261.811C118.326 262.728 115.443 265.737 115.443 265.737L115.312 265.213Z" fill="#FEBD96"/>
<path d="M96.5734 276.075L132.611 289.815C132.611 289.815 137.066 290.731 138.247 302.901C139.295 315.071 140.211 355.507 140.211 355.507V356.816L131.301 356.947L126.845 313.894L105.616 287.983L88.3174 277.122L96.5734 276.075Z" fill="#DE051F"/>
<path d="M70.7508 278.822L88.1801 277.252L125.004 295.703C125.004 295.703 134.964 301.592 128.542 312.323C122.121 323.052 104.429 355.636 104.429 355.636L98.2707 351.057L113.996 307.219C113.996 307.219 114.39 304.994 109.148 304.601C104.299 304.209 81.1036 301.985 78.0894 301.723C77.8274 301.723 77.5653 301.592 77.3032 301.592C75.4686 300.937 68.392 297.404 70.6198 284.973L70.8819 279.739L70.7508 278.822Z" fill="#EE384E"/>
<path d="M140.212 356.947L148.075 361.264C148.468 361.526 148.861 361.657 149.385 361.788C150.172 361.919 151.744 362.311 151.744 363.489C151.744 363.489 152.007 364.929 148.206 364.536C144.406 364.143 132.48 364.274 132.48 364.274C132.48 364.274 130.908 363.882 131.17 360.479L131.432 357.076L140.212 356.947Z" fill="#130452"/>
<path d="M104.433 355.637C104.433 355.637 104.563 357.731 106.529 360.478C107.709 362.049 108.888 363.489 110.067 365.059C110.329 365.451 110.723 365.713 110.985 366.237C111.116 366.499 111.247 366.891 111.247 367.152C111.247 367.414 111.247 367.807 110.854 368.069C110.461 368.331 109.805 368.2 109.281 368.069C109.15 368.069 109.019 367.938 108.888 367.938C105.874 366.891 96.7006 359.301 94.735 357.731C94.4728 357.469 94.3418 357.207 94.3418 356.945C94.3418 356.292 94.4728 354.983 95.2592 354.067C96.4386 352.627 98.2732 351.188 98.2732 351.188L104.433 355.637Z" fill="#130452"/>
<path d="M390.689 346.613C390.689 346.613 395.904 346.874 399.816 346.874C403.597 346.874 409.725 347.656 409.725 347.656C409.725 347.656 411.29 347.656 411.42 349.612C411.551 351.568 411.551 352.35 411.551 352.35C411.551 352.35 411.681 354.697 409.856 354.697C408.03 354.697 396.295 356.001 393.688 356.001C391.08 356.001 389.124 356.523 389.124 354.697C388.994 352.872 388.863 346.483 390.689 346.613Z" fill="#160856"/>
<path d="M394.992 290.937C394.992 290.937 398.382 309.844 398.643 314.929C398.903 319.884 399.425 323.795 396.165 325.751C392.905 327.707 387.429 329.532 387.429 329.532L380.779 295.631V291.72L394.992 290.937Z" fill="#FDBD97"/>
<path d="M336.965 289.764C336.965 289.764 335.14 298.37 334.618 302.673C334.097 306.975 332.923 315.451 332.793 317.406C332.662 319.362 332.402 322.622 335.922 325.23C339.443 327.707 343.354 329.141 343.354 329.141L350.656 289.764H336.965Z" fill="#FDBD97"/>
<path d="M362.917 262.513C362.917 262.513 362.917 266.425 361.222 268.12C359.527 269.815 357.311 272.683 357.311 272.683C357.311 272.683 361.222 278.942 369.176 278.029C376.999 277.247 378.434 271.51 378.434 271.51C378.434 271.51 371.001 270.467 370.089 263.426C369.306 256.385 368.133 256.385 368.133 256.385L362.917 262.513Z" fill="#FDAE7D"/>
<path d="M357.178 246.866C357.178 246.866 357.439 255.863 361.741 262.904C365.914 269.945 370.999 266.033 373.085 262.383C375.041 258.732 380.387 246.866 379.344 243.737C378.17 240.608 362.654 239.173 362.654 239.173L357.178 246.866Z" fill="#FDBD97"/>
<path d="M377.129 251.951C377.129 251.951 379.346 250.256 379.346 251.951C379.346 253.646 378.173 256.124 376.869 256.515C375.434 256.776 375.695 255.993 376.086 254.82C376.347 253.646 377.129 251.951 377.129 251.951Z" fill="#FDBD97"/>
<path d="M357.831 255.602C358.483 255.863 359.135 255.993 359.135 255.08C359.135 253.385 357.962 250.908 356.658 250.517C355.223 250.256 355.484 251.038 355.875 252.212C356.006 252.603 356.136 252.994 356.267 253.516C356.527 254.298 357.31 255.341 357.831 255.602Z" fill="#FDBD97"/>
<path d="M357.569 251.038L357.308 248.17C357.308 248.17 359.786 248.431 362.654 245.692C362.654 245.692 368.131 246.996 372.564 246.475C377.258 246.084 379.214 244.78 379.214 244.78C379.214 244.78 378.431 250.126 377.649 251.69C377.649 251.69 379.866 250.778 380.778 248.17C381.561 245.692 381.43 242.954 381.43 242.954C381.43 242.954 384.56 240.477 385.342 237.608C385.342 237.608 376.867 235.653 374.389 233.957C371.912 232.262 370.478 231.089 370.478 231.089C370.478 231.089 366.566 228.872 362.654 231.871C358.743 235.001 356.135 236.696 356.135 242.042C356.004 242.172 352.354 247.257 357.569 251.038Z" fill="#160856"/>
<path d="M358.221 269.814C358.221 269.814 352.876 269.162 349.877 269.945C347.008 270.727 346.095 270.205 346.878 272.422C347.66 274.639 351.572 284.939 349.746 291.328C347.921 297.717 345.443 330.836 345.443 330.836C345.443 330.836 365.523 331.619 373.216 332.01C381.039 332.401 386.777 330.967 386.777 330.967C386.777 330.967 388.472 316.754 386.777 310.496C385.082 304.367 382.865 293.806 382.865 293.806C382.865 293.806 381.431 279.333 383.386 275.812C385.342 272.292 386.777 272.161 384.299 271.249C381.822 270.336 379.084 269.553 376.997 269.553C375.042 269.553 373.998 269.553 372.825 270.727C371.651 271.9 369.304 274.248 366.045 273.726C362.785 273.204 360.308 270.988 360.308 270.988C360.308 270.988 359.134 269.945 358.221 269.814Z" fill="#EC384E"/>
<path d="M348.702 270.988C348.702 270.988 346.877 270.075 344.139 272.422C341.14 275.03 339.054 280.506 338.01 283.896C336.967 287.287 336.315 290.677 336.315 290.677C336.315 290.677 340.097 292.632 344.139 292.763C348.05 292.893 350.658 293.154 350.658 293.154C350.658 293.154 352.353 282.853 351.962 278.29C351.441 273.726 350.789 272.161 348.702 270.988Z" fill="#DB061F"/>
<path d="M381.824 274.769C381.824 274.769 383.388 270.466 386.909 272.422C390.429 274.378 393.037 281.94 393.95 284.287C394.732 286.634 395.775 291.459 395.775 291.459C395.775 291.459 391.603 293.284 387.952 293.545C384.432 293.806 381.954 294.067 381.954 294.067C381.954 294.067 380.52 284.679 380.781 281.028C381.041 277.377 381.824 274.769 381.824 274.769Z" fill="#DB061F"/>
<path d="M352.747 333.835H379.738L365.786 338.138L352.747 333.835Z" fill="#003EB0"/>
<path d="M328.753 326.143C328.753 326.143 378.04 341.529 388.863 345.31C388.863 345.31 392.383 346.223 392.514 348.048C392.644 349.874 392.253 352.481 391.862 353.785C391.47 355.089 390.297 356.132 388.341 355.741C386.385 355.35 342.183 346.483 324.711 341.92L319.757 340.355C319.757 340.355 316.106 338.66 316.758 334.227C317.41 329.794 320.669 325.752 323.016 325.491C325.363 325.36 328.753 326.143 328.753 326.143Z" fill="#0064E1"/>
<path d="M324.319 348.048C324.319 348.048 330.447 347.005 334.228 346.874C337.879 346.744 342.834 346.353 343.616 346.874C344.399 347.396 345.051 354.567 345.051 354.567C345.051 354.567 345.703 356.523 340.878 356.132C336.054 355.741 324.84 355.35 324.84 355.35C324.84 355.35 322.363 355.219 322.233 353.003C322.102 350.786 322.493 349.743 322.493 349.743C322.493 349.743 322.624 348.309 324.319 348.048Z" fill="#160856"/>
<path d="M353.658 341.789C353.658 341.789 383.517 332.662 394.209 329.532C404.901 326.403 410.768 323.535 414.289 328.489C417.679 333.444 417.418 339.051 413.506 340.615C409.595 342.18 378.432 349.482 365.523 352.09C352.615 354.697 344.14 356.393 342.966 355.871C341.793 355.349 340.489 351.568 340.749 349.482C341.01 347.396 341.141 346.613 343.618 345.57C346.095 344.397 353.658 341.789 353.658 341.789Z" fill="#003EB0"/>
<path d="M350.27 298.239H386.257C386.257 298.239 388.213 297.978 388.213 300.586C388.213 303.194 388.213 331.619 388.213 331.619C388.213 331.619 388.343 333.705 386.779 333.705C385.214 333.705 344.533 333.705 344.533 333.705C344.533 333.705 342.838 334.226 342.838 331.358C342.838 328.489 342.838 299.804 342.838 299.804C342.838 299.804 342.707 298.239 344.793 298.239C346.749 298.239 350.27 298.239 350.27 298.239Z" fill="#0064B5"/>
<path d="M367.741 315.842L365.133 313.756L363.047 316.363L365.655 318.45L367.741 315.842Z" fill="#579CD2"/>
<path d="M143.834 41.6414H130.085C129.863 41.6414 129.681 41.8133 129.681 42.0458V47.7071C129.681 47.8082 129.731 47.9194 129.802 47.9902L131.419 49.6077C131.49 49.6785 131.591 49.729 131.713 49.729H142.227C142.328 49.729 142.439 49.6785 142.51 49.6077L144.127 47.9902C144.198 47.9194 144.248 47.8183 144.248 47.7071V42.0357C144.248 41.8133 144.056 41.6414 143.834 41.6414ZM143.43 47.5353L142.055 48.9102H131.885L130.51 47.5353V42.4401H143.45V47.5353H143.43Z" fill="#003EB0"/>
<path d="M144.634 43.2494L129.258 44.0582C129.035 44.0683 128.863 44.2604 128.873 44.4828C128.884 44.7052 129.055 44.867 129.278 44.867C129.288 44.867 129.288 44.867 129.298 44.867L144.675 44.0582C144.897 44.0481 145.069 43.856 145.059 43.6336C145.039 43.4112 144.847 43.2393 144.634 43.2494Z" fill="#003EB0"/>
<path d="M144.634 45.6846L129.258 46.4933C129.035 46.5035 128.863 46.6955 128.873 46.9179C128.884 47.1404 129.055 47.3021 129.278 47.3021C129.288 47.3021 129.288 47.3021 129.298 47.3021L144.675 46.4933C144.897 46.4832 145.069 46.2912 145.059 46.0687C145.039 45.8362 144.847 45.6543 144.634 45.6846Z" fill="#003EB0"/>
<path d="M136.96 14.1317C129.368 14.1317 123.211 20.2985 123.211 27.8806C123.211 32.6624 125.627 36.9994 129.681 39.5268V42.0339C129.681 42.2564 129.863 42.4383 130.085 42.4383H143.834C144.057 42.4383 144.239 42.2564 144.239 42.0339V39.5268C148.293 36.9893 150.709 32.6523 150.709 27.8806C150.709 20.2985 144.542 14.1317 136.96 14.1317ZM143.622 38.9505C143.501 39.0213 143.42 39.1628 143.42 39.3044V41.6397H130.48V39.3044C130.48 39.1628 130.409 39.0314 130.277 38.9505C126.345 36.5849 124.01 32.44 124.01 27.8806C124.01 20.7433 129.812 14.9405 136.95 14.9405C144.087 14.9405 149.89 20.7433 149.89 27.8806C149.9 32.4501 147.555 36.5849 143.622 38.9505Z" fill="#003EB0"/>
<path d="M140.779 48.9606C140.577 48.8595 140.334 48.9404 140.233 49.1325C140.203 49.1931 139.475 50.5276 136.958 50.5276C134.44 50.5276 133.702 49.183 133.682 49.1325C133.581 48.9303 133.349 48.8494 133.146 48.9606C132.944 49.0617 132.863 49.2942 132.964 49.4964C132.995 49.5773 133.925 51.3363 136.958 51.3363C139.991 51.3363 140.921 49.5672 140.951 49.4964C141.062 49.2942 140.981 49.0617 140.779 48.9606Z" fill="#003EB0"/>
<path d="M119.57 27.4755H111.483C111.26 27.4755 111.078 27.6473 111.078 27.8798C111.078 28.1023 111.26 28.2842 111.483 28.2842H119.57C119.793 28.2842 119.974 28.1023 119.974 27.8798C119.974 27.6574 119.793 27.4755 119.57 27.4755Z" fill="#DE051F"/>
<path d="M162.437 27.4743H154.35C154.127 27.4743 153.945 27.6563 153.945 27.8787C153.945 28.1011 154.127 28.2831 154.35 28.2831H162.437C162.66 28.2831 162.842 28.1011 162.842 27.8787C162.852 27.6563 162.66 27.4743 162.437 27.4743Z" fill="#DE051F"/>
<path d="M122.251 36.3727C122.13 36.1705 121.887 36.12 121.705 36.2211L114.699 40.2649C114.497 40.3862 114.447 40.6288 114.548 40.8108C114.618 40.9422 114.76 41.013 114.901 41.013C114.972 41.013 115.043 41.0029 115.104 40.9523L122.11 36.9085C122.302 36.8074 122.372 36.5648 122.251 36.3727Z" fill="#DE051F"/>
<path d="M159.371 14.9306C159.25 14.7284 159.007 14.6778 158.825 14.7789L151.819 18.8329C151.617 18.9542 151.567 19.1968 151.668 19.3788C151.739 19.5102 151.88 19.581 152.022 19.581C152.092 19.581 152.163 19.5607 152.224 19.5203L159.23 15.4765C159.422 15.3754 159.482 15.1328 159.371 14.9306Z" fill="#DE051F"/>
<path d="M149.899 5.46845C149.697 5.36736 149.454 5.41791 149.353 5.6201L145.31 12.626C145.188 12.8282 145.259 13.0708 145.461 13.1719C145.532 13.2022 145.603 13.2326 145.663 13.2326C145.805 13.2326 145.946 13.1618 146.017 13.0304L150.061 6.02448C150.162 5.82229 150.091 5.57966 149.899 5.46845Z" fill="#DE051F"/>
<path d="M136.965 2C136.743 2 136.561 2.18197 136.561 2.40438V10.492C136.561 10.7144 136.743 10.8964 136.965 10.8964C137.187 10.8964 137.369 10.7144 137.369 10.492V2.40438C137.369 2.18197 137.187 2 136.965 2Z" fill="#DE051F"/>
<path d="M128.619 12.6148L124.575 5.60893C124.454 5.40674 124.211 5.35619 124.029 5.45729C123.827 5.5786 123.777 5.82123 123.878 6.0032L127.921 13.0091C127.992 13.1405 128.134 13.2113 128.275 13.2113C128.346 13.2113 128.417 13.2012 128.478 13.1506C128.659 13.0596 128.73 12.817 128.619 12.6148Z" fill="#DE051F"/>
<path d="M159.229 40.2766L152.223 36.2328C152.02 36.1317 151.778 36.1822 151.677 36.3844C151.555 36.5866 151.626 36.8293 151.828 36.9304L158.834 40.9742C158.905 41.0045 158.976 41.0348 159.036 41.0348C159.178 41.0348 159.319 40.964 159.39 40.8326C159.481 40.6203 159.421 40.3777 159.229 40.2766Z" fill="#DE051F"/>
<path d="M122.095 18.8221L115.089 14.7783C114.887 14.6772 114.644 14.7278 114.543 14.93C114.422 15.1322 114.492 15.3748 114.695 15.4759L121.7 19.5197C121.771 19.55 121.832 19.5803 121.903 19.5803C122.044 19.5803 122.186 19.5096 122.256 19.3782C122.368 19.1861 122.297 18.9434 122.095 18.8221Z" fill="#DE051F"/>
<path d="M138.13 41.6381V28.5766C138.13 28.5766 137.948 22.4199 141.304 22.4199C144.66 22.4199 143.114 28.8192 136.644 28.8192" stroke="#003EB0" stroke-width="1.37731" stroke-miterlimit="10"/>
<path d="M135.151 41.6394V28.578C135.151 28.578 135.333 22.4213 131.976 22.4213C128.62 22.4213 130.167 28.8206 136.637 28.8206" stroke="#003EB0" stroke-width="1.37731" stroke-miterlimit="10"/>
<path d="M71.3559 155.432L64.8633 157.215L66.6893 163.751L73.1819 161.969L71.3559 155.432Z" fill="#ED3B4E"/>
</svg>
