<svg width="500" height="385" viewBox="0 0 500 385" fill="none" xmlns="http://www.w3.org/2000/svg">
<path d="M320.715 15.5335C320.715 15.5335 314.643 20.5762 320.368 22.8368C326.267 25.0973 328.522 27.8795 325.573 33.4438C322.276 39.0082 323.317 43.3553 326.267 45.442C329.563 47.5286 335.635 50.6586 330.777 57.7879C325.92 65.0911 317.939 79.6975 309.438 75.6982C300.764 71.6988 296.6 57.4401 300.07 51.8758C303.54 46.3114 309.265 44.7464 306.316 38.3126C303.713 31.8788 297.641 35.0088 297.468 27.5317C297.294 19.8807 296.253 12.0558 306.836 9.62141C315.857 7.36089 323.144 11.8819 320.715 15.5335Z" stroke="#1C4599" stroke-width="1.04704" stroke-miterlimit="10"/>
<path d="M312.391 20.4033C312.391 20.4033 313.432 68.5698 316.208 80.5679" stroke="#1C4599" stroke-width="1.04704" stroke-miterlimit="10"/>
<path d="M323.143 50.8335L313.949 59.5278L304.754 54.4851" stroke="#1C4599" stroke-width="1.04704" stroke-miterlimit="10"/>
<path d="M320.543 28.4014L313.083 33.7919L304.582 30.4881" stroke="#1C4599" stroke-width="1.04704" stroke-miterlimit="10"/>
<path d="M341.004 16.0557C341.004 16.0557 355.577 20.5768 351.587 27.1844C347.25 33.6182 349.678 36.4004 352.628 38.8348C355.23 41.2692 361.996 44.0514 356.965 50.6591C351.934 57.2667 346.903 58.6578 347.25 63.1789C347.597 67.6999 342.912 85.958 336.146 81.7847C329.207 77.7853 328.687 66.8305 329.727 61.9617C330.768 57.4406 326.431 52.224 322.441 48.7463C318.451 45.4425 316.195 38.8348 322.268 36.7482C328.513 34.4877 331.462 28.0539 329.554 23.5328C326.778 19.3596 331.115 13.2735 341.004 16.0557Z" fill="#FABD41"/>
<path d="M339.634 25.9664L332.348 87.6959" stroke="white" stroke-width="1.04704" stroke-miterlimit="10" stroke-linecap="round" stroke-linejoin="round"/>
<path d="M349.863 44.9206L336.505 51.0067L325.055 41.269" stroke="white" stroke-width="1.04704" stroke-miterlimit="10" stroke-linecap="round" stroke-linejoin="round"/>
<path d="M272.66 24.5766C272.66 24.5766 266.762 20.2294 270.578 15.1867C274.222 10.144 283.59 10.144 285.498 15.0128C287.58 19.5339 284.804 23.0116 288.968 23.7071C292.958 24.4027 303.888 28.0543 301.806 33.2709C299.551 38.4875 293.132 38.8352 295.907 45.7907C298.51 52.7461 312.042 53.9633 305.102 63.7009C298.163 73.2647 282.028 86.48 273.701 69.9608C265.721 53.4417 283.416 56.7455 273.875 46.1384C264.333 35.5314 272.313 35.1836 274.916 31.1842C277.344 26.6632 272.66 24.5766 272.66 24.5766Z" fill="#ED3B4E"/>
<path d="M283.59 30.6629C283.59 30.6629 284.631 49.7904 291.223 65.6141C297.816 81.4377 301.979 83.5243 301.979 83.5243" stroke="white" stroke-width="1.04704" stroke-miterlimit="10" stroke-linecap="round" stroke-linejoin="round"/>
<path d="M90.332 288.498C90.332 288.498 90.3571 293.464 92.4463 299.958L101.117 304.805L93.8479 305.071C99.8403 324.522 116.263 353.189 161.719 352.571C161.609 353.604 189.304 303.017 90.332 288.498Z" fill="#FABD41"/>
<path d="M99.0446 318.951L135.549 326.518L90.332 288.498" stroke="white" stroke-width="1.46853" stroke-miterlimit="10"/>
<path d="M121.301 295.735L135.547 326.519" stroke="white" stroke-width="1.46853" stroke-miterlimit="10"/>
<path d="M122.284 260.57C122.284 260.57 135.227 254.119 136.986 261.1C138.744 268.08 142.076 268.176 145.71 268.043C149.344 267.909 155.458 265.429 156.886 272.897C158.286 280.623 155.613 284.778 158.943 287.485C162.274 290.193 171.82 305.061 164.138 306.59C156.731 308.147 148.804 301.551 146.108 298.128C143.439 294.446 137.107 293.768 132.316 294.299C126.975 294.772 120.864 292.028 123.675 286.582C126.486 281.136 123.791 275.1 119.496 273.595C114.982 271.544 113.196 264.822 122.284 260.57Z" fill="#1C4599"/>
<path d="M127.922 267.706L165.537 311.703" stroke="white" stroke-width="1.46853" stroke-miterlimit="10" stroke-linecap="round" stroke-linejoin="round"/>
<path d="M147.938 273.244L143.279 285.546L128.466 286.049" stroke="white" stroke-width="1.46853" stroke-miterlimit="10" stroke-linecap="round" stroke-linejoin="round"/>
<path d="M109.388 276.954C109.388 276.954 108.614 284.186 114.149 281.905C119.684 279.624 123.291 279.749 124.912 285.409C126.534 291.068 129.891 293.518 133.581 292.868C137.271 292.218 143.329 290.255 145.032 297.752C146.708 305.507 151.546 320.132 142.624 322.834C133.978 325.565 121.591 319.014 119.942 313.613C118.321 307.953 121.049 303.282 114.91 300.796C108.772 298.309 106.731 304.361 101.668 299.639C96.604 294.916 90.3838 290.593 95.4539 282.254C100.441 274.69 108.977 272.991 109.388 276.954Z" stroke="#ED3B4E" stroke-width="1.46853" stroke-miterlimit="10"/>
<path d="M107.184 284.554C107.184 284.554 140.675 315.049 151.493 320.648" stroke="#ED3B4E" stroke-width="1.46853" stroke-miterlimit="10"/>
<path d="M135.566 297.781L135.202 308.975L125.455 311.589" stroke="#ED3B4E" stroke-width="1.46853" stroke-miterlimit="10"/>
<path d="M118.277 284.958L116.814 293.422L108.965 296.5" stroke="#ED3B4E" stroke-width="1.46853" stroke-miterlimit="10"/>
<path d="M114.638 130.365L88.8206 143.316C86.8864 144.157 85.625 146.007 85.625 148.109V160.135C85.625 170.899 88.6524 181.579 94.7914 190.998C99.4166 198.061 105.64 207.144 115.815 212.274H120.44C131.877 208.826 140.371 199.491 145.585 191.586C151.808 182.168 154.751 171.487 154.751 160.723V148.025C154.751 145.923 153.49 144.073 151.555 143.232L122.206 130.701C120.945 130.197 115.899 129.776 114.638 130.365Z" fill="#FF725E"/>
<path opacity="0.3" d="M114.638 130.365L88.8206 143.316C86.8864 144.157 85.625 146.007 85.625 148.109V160.135C85.625 170.899 88.6524 181.579 94.7914 190.998C99.4166 198.061 105.64 207.144 115.815 212.274H120.44C131.877 208.826 140.371 199.491 145.585 191.586C151.808 182.168 154.751 171.487 154.751 160.723V148.025C154.751 145.923 153.49 144.073 151.555 143.232L122.206 130.701C120.945 130.197 115.899 129.776 114.638 130.365Z" fill="#DE051F"/>
<path d="M113.545 130.785L84.1956 143.316C82.2614 144.157 81 146.007 81 148.109V160.135C81 170.899 84.0274 181.579 90.1664 190.997C95.3802 198.902 103.453 207.144 115.815 212.273C127.252 208.826 135.746 199.491 140.96 191.586C147.183 182.167 150.126 171.487 150.126 160.723V148.025C150.126 145.923 148.865 144.072 146.93 143.231L117.581 130.701C116.32 130.197 114.89 130.197 113.545 130.785Z" fill="#EC384E"/>
<path opacity="0.3" d="M122.608 185.47C132.523 181.624 137.444 170.468 133.598 160.553C129.752 150.637 118.596 145.716 108.681 149.562C98.7648 153.408 93.8443 164.564 97.6902 174.48C101.536 184.396 112.692 189.316 122.608 185.47Z" fill="#DE051F"/>
<path d="M115.649 168.628C120.061 168.628 123.638 165.051 123.638 160.639C123.638 156.226 120.061 152.65 115.649 152.65C111.237 152.65 107.66 156.226 107.66 160.639C107.66 165.051 111.237 168.628 115.649 168.628Z" fill="white"/>
<path d="M101.012 180.064C101.012 180.064 104.712 171.15 115.308 171.15C125.904 171.15 130.193 180.064 130.193 180.064C130.193 180.064 125.483 187.044 115.056 186.792C105.553 186.54 101.012 180.064 101.012 180.064Z" fill="white"/>
<path d="M134.9 167.535C134.9 167.535 134.9 167.451 134.9 167.199C134.9 166.947 134.9 166.694 134.816 166.274C134.816 166.106 134.816 165.853 134.732 165.601C134.732 165.349 134.648 165.096 134.564 164.76C134.48 164.171 134.396 163.499 134.144 162.742C133.807 161.228 133.134 159.546 132.041 157.612C130.948 155.762 129.35 153.828 127.164 152.23C124.977 150.632 122.286 149.202 119.091 148.698C115.979 148.193 112.447 148.277 109.083 149.539C108.242 149.791 107.401 150.212 106.56 150.632C105.804 151.137 104.963 151.557 104.206 152.146C103.449 152.65 102.776 153.323 102.019 153.996C101.346 154.669 100.674 155.426 100.169 156.182C99.0759 157.78 98.0668 159.546 97.4781 161.396C96.8894 163.33 96.5531 165.349 96.469 167.367C96.469 169.469 96.8054 171.488 97.4781 173.338C98.0668 175.272 99.0759 177.038 100.169 178.552C100.758 179.393 101.431 180.065 102.019 180.738C102.692 181.411 103.365 182.084 104.206 182.588C104.963 183.177 105.719 183.597 106.56 184.102C107.401 184.522 108.158 184.943 109.083 185.195C112.447 186.457 115.979 186.541 119.091 186.036C122.202 185.447 124.977 184.102 127.164 182.504C129.35 180.906 130.948 178.972 132.041 177.122C133.134 175.272 133.807 173.506 134.144 171.992C134.396 171.235 134.48 170.563 134.564 169.974C134.648 169.722 134.648 169.385 134.732 169.133C134.732 168.881 134.732 168.628 134.816 168.46C134.816 168.04 134.9 167.787 134.9 167.535C134.9 167.535 134.9 167.619 134.9 167.872C134.9 168.124 134.9 168.376 134.9 168.797C134.9 168.965 134.9 169.217 134.9 169.469C134.9 169.722 134.816 169.974 134.816 170.31C134.732 170.899 134.648 171.572 134.48 172.329C134.144 173.842 133.471 175.608 132.378 177.542C131.284 179.393 129.686 181.411 127.5 183.093C125.314 184.775 122.538 186.204 119.343 186.793C116.147 187.382 112.531 187.297 109.083 185.952C108.242 185.7 107.401 185.279 106.56 184.859C105.719 184.354 104.878 183.934 104.206 183.345C103.449 182.84 102.692 182.084 102.019 181.495C101.346 180.738 100.674 180.065 100.085 179.224C98.9077 177.627 97.8986 175.861 97.3099 173.842C96.6372 171.908 96.3008 169.806 96.3008 167.703C96.3008 165.601 96.6372 163.499 97.3099 161.564C97.8986 159.63 98.9077 157.78 100.085 156.182C100.674 155.341 101.346 154.669 102.019 153.912C102.776 153.239 103.449 152.566 104.206 152.062C104.963 151.473 105.804 151.053 106.56 150.548C107.401 150.128 108.242 149.707 109.083 149.455C112.531 148.193 116.147 148.109 119.343 148.614C122.538 149.202 125.314 150.632 127.5 152.314C129.686 153.996 131.284 155.93 132.378 157.864C133.471 159.714 134.144 161.564 134.48 163.078C134.732 163.835 134.732 164.508 134.816 165.096C134.816 165.349 134.9 165.685 134.9 165.937C134.9 166.19 134.9 166.442 134.9 166.61C134.9 167.031 134.9 167.283 134.9 167.535Z" fill="#111111"/>
<path d="M150.126 157.527C150.126 157.527 150.126 157.695 150.21 158.116C150.21 158.536 150.21 159.041 150.294 159.714C150.294 160.386 150.378 161.227 150.294 162.236C150.294 162.741 150.294 163.245 150.21 163.834C150.21 164.423 150.21 165.011 150.126 165.6C150.042 166.862 149.958 168.207 149.706 169.637C149.622 170.394 149.537 171.15 149.369 171.907C149.201 172.664 149.033 173.421 148.865 174.262C148.108 177.458 147.015 180.905 145.501 184.437C143.903 187.885 142.137 190.997 140.203 193.772C139.194 195.117 138.353 196.379 137.344 197.472C136.839 198.061 136.419 198.565 135.998 199.07C135.494 199.575 135.073 199.995 134.653 200.5C133.812 201.425 132.971 202.181 132.214 202.854C131.541 203.527 130.868 204.116 130.28 204.536C129.775 204.957 129.355 205.293 129.018 205.545C128.766 205.798 128.598 205.882 128.598 205.882C128.598 205.882 128.766 205.713 129.018 205.461C129.355 205.209 129.691 204.873 130.196 204.368C130.7 203.947 131.373 203.359 132.046 202.686C132.718 202.013 133.559 201.256 134.4 200.331C134.821 199.911 135.241 199.406 135.746 198.902C136.166 198.397 136.587 197.809 137.091 197.304C138.016 196.211 138.941 194.949 139.867 193.604C141.717 190.913 143.483 187.801 145.08 184.353C146.594 180.905 147.687 177.458 148.444 174.262C148.612 173.505 148.781 172.664 148.949 171.907C149.117 171.15 149.201 170.394 149.285 169.721C149.537 168.291 149.622 166.946 149.79 165.684C149.874 165.096 149.874 164.507 149.958 163.918C149.958 163.33 150.042 162.825 150.042 162.32C150.126 161.311 150.126 160.47 150.126 159.798C150.126 159.125 150.126 158.62 150.126 158.2C150.126 157.695 150.126 157.527 150.126 157.527Z" fill="#A52737"/>
<path d="M354.698 376.005H155.814C150.432 376.005 146.059 371.464 146.059 365.913V61.9942C146.059 56.444 150.432 51.9028 155.814 51.9028H354.698C360.08 51.9028 364.453 56.444 364.453 61.9942V365.913C364.453 371.548 360.08 376.005 354.698 376.005Z" fill="#1466B1"/>
<path d="M259.063 361.291C259.063 366.337 254.943 370.374 249.813 370.374C244.683 370.374 240.562 366.337 240.562 361.291C240.562 356.246 244.683 352.209 249.813 352.209C254.859 352.209 259.063 356.246 259.063 361.291Z" fill="white"/>
<path d="M277.53 69.0597H232.959C231.277 69.0597 229.848 67.6301 229.848 65.8641C229.848 64.0981 231.277 62.6685 232.959 62.6685H277.53C279.211 62.6685 280.641 64.0981 280.641 65.8641C280.641 67.6301 279.296 69.0597 277.53 69.0597Z" fill="white"/>
<path d="M357.345 75.0312H152.742V345.733H357.345V75.0312Z" fill="white"/>
<path d="M357.336 75.0298H348.59V345.731H357.336V75.0298Z" fill="#F5F5F5"/>
<path d="M352.964 172.245C351.451 172.245 350.273 171.067 350.273 169.553V109.678C350.273 108.164 351.451 106.987 352.964 106.987C354.478 106.987 355.656 108.164 355.656 109.678V169.553C355.656 171.067 354.394 172.245 352.964 172.245Z" fill="#E0E0E0"/>
<path d="M330.593 136.672H179.81C177.456 136.672 175.438 134.738 175.438 132.299C175.438 129.945 177.372 127.926 179.81 127.926H330.677C333.031 127.926 335.05 129.86 335.05 132.299C334.966 134.654 333.031 136.672 330.593 136.672Z" fill="#DDE9F5"/>
<path d="M307.384 104.968H212.525C210.171 104.968 208.152 103.034 208.152 100.595C208.152 98.2406 210.087 96.2223 212.525 96.2223H307.384C309.739 96.2223 311.757 98.1565 311.757 100.595C311.757 103.034 309.823 104.968 307.384 104.968Z" fill="#1466B1"/>
<path d="M309.148 154.079H201.17C198.815 154.079 196.797 152.145 196.797 149.706C196.797 147.352 198.731 145.333 201.17 145.333H309.148C311.502 145.333 313.521 147.268 313.521 149.706C313.521 152.145 311.587 154.079 309.148 154.079Z" fill="#DDE9F5"/>
<path d="M260.459 230.27H177.373C175.018 230.27 173 228.336 173 225.897C173 223.542 174.934 221.524 177.373 221.524H260.459C262.813 221.524 264.832 223.458 264.832 225.897C264.748 228.252 262.813 230.27 260.459 230.27Z" fill="#DDE9F5"/>
<path d="M328.155 212.021H177.373C175.018 212.021 173 210.087 173 207.648C173 205.293 174.934 203.275 177.373 203.275H328.155C330.51 203.275 332.528 205.209 332.528 207.648C332.528 210.087 330.594 212.021 328.155 212.021Z" fill="#DDE9F5"/>
<path d="M328.156 270.551H196.127C193.772 270.551 191.754 268.617 191.754 266.178C191.754 263.823 193.688 261.805 196.127 261.805H328.156C330.511 261.805 332.529 263.739 332.529 266.178C332.529 268.617 330.595 270.551 328.156 270.551Z" fill="#DDE9F5"/>
<path d="M328.155 289.136H177.373C175.018 289.136 173 287.202 173 284.763C173 282.408 174.934 280.39 177.373 280.39H328.155C330.51 280.39 332.528 282.324 332.528 284.763C332.528 287.202 330.594 289.136 328.155 289.136Z" fill="#DDE9F5"/>
<path d="M328.155 307.973H177.373C175.018 307.973 173 306.039 173 303.6C173 301.246 174.934 299.228 177.373 299.228H328.155C330.51 299.228 332.528 301.162 332.528 303.6C332.528 306.039 330.594 307.973 328.155 307.973Z" fill="#DDE9F5"/>
<path d="M184.098 266.262C184.098 268.785 182.08 270.803 179.557 270.803C177.034 270.803 175.016 268.785 175.016 266.262C175.016 263.739 177.034 261.721 179.557 261.721C182.08 261.721 184.098 263.739 184.098 266.262Z" fill="#1466B1"/>
<path d="M328.156 195.118H196.127C193.772 195.118 191.754 193.184 191.754 190.745C191.754 188.39 193.688 186.372 196.127 186.372H328.156C330.511 186.372 332.529 188.306 332.529 190.745C332.529 193.184 330.595 195.118 328.156 195.118Z" fill="#DDE9F5"/>
<path d="M179.639 195.286C182.147 195.286 184.18 193.253 184.18 190.745C184.18 188.237 182.147 186.204 179.639 186.204C177.131 186.204 175.098 188.237 175.098 190.745C175.098 193.253 177.131 195.286 179.639 195.286Z" fill="#1466B1"/>
<path d="M323.952 335.556H290.146C286.362 335.556 283.25 332.445 283.25 328.66C283.25 324.876 286.362 321.765 290.146 321.765H323.952C327.736 321.765 330.848 324.876 330.848 328.66C330.848 332.445 327.82 335.556 323.952 335.556Z" fill="#1466B1"/>
<path d="M149.62 9.35202L114.469 27.012C111.862 28.1052 110.18 30.7121 110.18 33.5714V49.9699C110.18 64.6024 114.3 79.1509 122.71 92.0174C129.017 101.688 137.426 113.966 151.386 121.03H157.693C173.251 116.321 184.772 103.707 191.92 92.8583C200.33 79.9918 204.45 65.5275 204.45 50.8108V33.4873C204.45 30.6281 202.768 28.0211 200.161 26.9279L160.048 9.94069C158.282 9.18383 151.386 8.59517 149.62 9.35202Z" fill="#FF725E"/>
<path d="M149.62 9.35202L114.469 27.012C111.862 28.1052 110.18 30.7121 110.18 33.5714V49.9699C110.18 64.6024 114.3 79.1509 122.71 92.0174C129.017 101.688 137.426 113.966 151.386 121.03H157.693C173.251 116.321 184.772 103.707 191.92 92.8583C200.33 79.9918 204.45 65.5275 204.45 50.8108V33.4873C204.45 30.6281 202.768 28.0211 200.161 26.9279L160.048 9.94069C158.282 9.18383 151.386 8.59517 149.62 9.35202Z" fill="#DE051F"/>
<path d="M148.189 9.94064L108.16 27.0119C105.553 28.1052 103.871 30.7121 103.871 33.5713V49.9698C103.871 64.6024 107.992 79.1508 116.401 92.0173C123.465 102.781 134.482 113.966 151.385 121.03C166.942 116.321 178.463 103.707 185.611 92.8583C194.021 79.9917 198.142 65.5274 198.142 50.8108V33.4872C198.142 30.628 196.46 28.0211 193.853 26.9278L153.739 9.94064C151.973 9.18379 149.955 9.18379 148.189 9.94064Z" fill="#EC384E"/>
<path d="M197.892 46.269C197.892 46.269 197.892 46.3531 197.892 46.4372C197.892 46.6054 197.892 46.7736 197.892 47.0259C197.892 47.5305 197.976 48.2873 197.976 49.2124C197.976 50.1374 198.06 51.3147 197.976 52.6603C197.976 53.333 197.892 54.0899 197.892 54.8467C197.892 55.2672 197.892 55.6036 197.892 56.0241C197.892 56.4445 197.808 56.865 197.808 57.2855C197.64 58.9674 197.556 60.8175 197.135 62.7517C196.967 63.7608 196.883 64.7699 196.631 65.7791C196.378 66.7882 196.21 67.8815 195.958 68.9747C194.949 73.3476 193.435 78.0569 191.333 82.7663C189.23 87.4756 186.707 91.7644 184.185 95.3805C182.839 97.1465 181.662 98.9125 180.316 100.426C179.644 101.183 179.055 101.94 178.466 102.613C177.793 103.285 177.205 103.958 176.616 104.547C175.523 105.808 174.346 106.817 173.336 107.742C172.832 108.163 172.411 108.668 171.991 109.004C171.57 109.34 171.15 109.677 170.814 110.013C170.141 110.602 169.552 111.022 169.132 111.359C168.963 111.527 168.795 111.611 168.711 111.695C168.627 111.779 168.543 111.779 168.543 111.779C168.543 111.779 168.543 111.695 168.711 111.611C168.795 111.527 168.963 111.359 169.132 111.19C169.552 110.854 170.057 110.349 170.729 109.761C171.066 109.424 171.486 109.088 171.907 108.752C172.327 108.331 172.748 107.911 173.252 107.49C174.177 106.565 175.355 105.556 176.448 104.295C177.037 103.706 177.625 103.033 178.214 102.36C178.803 101.688 179.391 100.931 180.064 100.174C181.325 98.6602 182.587 96.9783 183.848 95.1282C186.371 91.4281 188.81 87.2233 190.912 82.514C193.015 77.8047 194.444 73.0953 195.537 68.8065C195.79 67.7133 196.042 66.62 196.21 65.6109C196.463 64.6018 196.547 63.5926 196.715 62.5835C197.051 60.6493 197.219 58.7992 197.388 57.1173C197.472 56.6968 197.472 56.2763 197.556 55.8559C197.556 55.4354 197.556 55.099 197.64 54.6785C197.64 53.9217 197.724 53.2489 197.724 52.5762C197.808 51.2306 197.808 50.0533 197.808 49.1283C197.808 48.2032 197.808 47.5305 197.808 46.9418C197.808 46.6895 197.808 46.5213 197.808 46.3531C197.892 46.3531 197.892 46.269 197.892 46.269Z" fill="#A52737"/>
<path d="M166.776 68.386H162.487V45.1758C162.487 39.7096 158.03 35.2526 152.564 35.2526C147.097 35.2526 142.64 39.7096 142.64 45.1758V68.386H138.352V45.1758C138.352 37.355 144.743 31.0479 152.48 31.0479C160.216 31.0479 166.607 37.4391 166.607 45.1758V68.386H166.776Z" fill="#F5F5F5"/>
<path d="M166.872 82.5148H138.448C135.757 82.5148 133.57 80.3283 133.57 77.6373V57.4545C133.57 54.7634 135.757 52.577 138.448 52.577H166.872C169.563 52.577 171.749 54.7634 171.749 57.4545V77.6373C171.749 80.3283 169.563 82.5148 166.872 82.5148Z" fill="white"/>
<path d="M166.874 82.5156C166.874 82.5156 167.295 82.5156 168.136 82.2633C168.892 82.011 170.154 81.4223 170.995 80.0768C171.415 79.4041 171.668 78.5631 171.668 77.554C171.668 76.5448 171.668 75.5357 171.668 74.3584C171.668 72.0878 171.668 69.4809 171.668 66.5375C171.668 63.6783 171.668 60.4827 171.584 57.1189C171.499 55.5211 170.406 53.8392 168.808 53.1664C167.967 52.8301 167.126 52.746 166.201 52.746C165.276 52.746 164.351 52.746 163.342 52.746C155.69 52.746 147.28 52.746 138.45 52.746C137.357 52.746 136.348 53.0823 135.507 53.7551C134.666 54.4279 134.077 55.3529 133.909 56.362C133.825 56.8666 133.741 57.3712 133.741 57.8758C133.741 58.3803 133.741 58.969 133.741 59.4736C133.741 60.5668 133.741 61.5759 133.741 62.5851C133.741 66.7057 133.741 70.7423 133.741 74.6107C133.825 76.5448 133.404 78.479 134.414 79.9927C135.339 81.5064 137.02 82.3474 138.702 82.2633C142.066 82.2633 145.262 82.2633 148.121 82.2633C153.924 82.2633 158.549 82.3474 161.829 82.3474C163.426 82.3474 164.688 82.3474 165.529 82.3474C165.949 82.3474 166.286 82.3474 166.538 82.3474C166.706 82.5156 166.874 82.5156 166.874 82.5156C166.874 82.5156 166.79 82.5156 166.538 82.5156C166.286 82.5156 165.949 82.5156 165.529 82.5156C164.688 82.5156 163.426 82.5156 161.829 82.5156C158.549 82.5156 153.924 82.5156 148.121 82.5997C145.262 82.5997 142.066 82.5997 138.702 82.5997C136.936 82.6838 135.086 81.7587 134.077 80.1609C133.573 79.4041 133.32 78.3949 133.32 77.4699C133.32 76.5448 133.32 75.6198 133.32 74.6107C133.32 70.8264 133.32 66.7898 133.32 62.5851C133.32 61.5759 133.32 60.4827 133.32 59.4736C133.32 58.969 133.32 58.3803 133.32 57.8758C133.32 57.3712 133.32 56.7825 133.488 56.1939C133.741 55.1006 134.414 54.0915 135.254 53.4187C136.18 52.6619 137.273 52.3255 138.45 52.3255C147.28 52.3255 155.69 52.3255 163.342 52.3255C164.267 52.3255 165.276 52.3255 166.201 52.3255C167.126 52.3255 168.136 52.4096 168.977 52.746C170.743 53.5028 171.836 55.2688 171.92 57.0348C171.92 60.4827 171.92 63.5942 171.92 66.5375C171.92 69.3968 171.92 72.0037 171.92 74.3584C171.92 75.5357 171.92 76.5448 171.92 77.554C171.92 78.5631 171.584 79.4882 171.163 80.1609C170.322 81.5905 168.977 82.1792 168.22 82.3474C167.295 82.5997 166.874 82.5156 166.874 82.5156Z" fill="#263238"/>
<path d="M155.595 68.3859C156.352 67.629 156.773 66.6199 156.773 65.4425C156.773 63.0879 154.923 61.2378 152.568 61.2378C150.213 61.2378 148.363 63.0879 148.363 65.4425C148.363 67.3767 149.625 68.9745 151.391 69.4791L150.466 73.4316H154.502L153.661 69.4791C154.418 69.2268 155.091 68.8904 155.595 68.3859Z" fill="#EC384E"/>
<path d="M368.705 245.014L385.733 215.521C386.626 213.975 386.111 212.057 384.562 211.163L336 183.125C334.451 182.231 332.533 182.744 331.64 184.29L314.612 213.783C313.719 215.33 314.235 217.247 315.783 218.142L364.346 246.179C365.894 247.073 367.876 246.45 368.705 245.014Z" fill="#BBD1EA"/>
<path d="M336.07 189.646C335.517 189.327 334.819 189.513 334.564 189.955L320.342 214.588C320.023 215.14 320.275 215.727 320.828 216.046C321.381 216.366 322.078 216.179 322.333 215.737L336.555 191.105C336.874 190.552 336.623 189.965 336.07 189.646Z" fill="white"/>
<path d="M340.828 192.392C340.275 192.073 339.577 192.259 339.322 192.701L325.1 217.334C324.781 217.886 325.032 218.473 325.585 218.792C326.139 219.112 326.836 218.925 327.091 218.483L341.313 193.851C341.632 193.298 341.381 192.712 340.828 192.392Z" fill="white"/>
<path d="M345.578 195.139C345.025 194.819 344.327 195.006 344.072 195.448L329.85 220.08C329.531 220.633 329.782 221.22 330.335 221.539C330.889 221.858 331.586 221.672 331.841 221.23L346.063 196.597C346.382 196.045 346.131 195.458 345.578 195.139Z" fill="white"/>
<path d="M350.339 197.884C349.786 197.565 349.089 197.751 348.834 198.193L334.612 222.826C334.293 223.378 334.544 223.965 335.097 224.285C335.65 224.604 336.348 224.417 336.603 223.976L350.825 199.343C351.144 198.791 350.892 198.204 350.339 197.884Z" fill="white"/>
<path d="M355.203 200.695C354.65 200.376 353.952 200.562 353.697 201.004L339.475 225.637C339.156 226.189 339.407 226.776 339.96 227.095C340.514 227.414 341.211 227.228 341.466 226.786L355.688 202.153C356.007 201.601 355.756 201.014 355.203 200.695Z" fill="white"/>
<path d="M359.96 203.441C359.407 203.122 358.71 203.309 358.455 203.75L344.233 228.383C343.914 228.935 344.165 229.522 344.718 229.842C345.271 230.161 345.969 229.975 346.224 229.533L360.446 204.9C360.765 204.348 360.514 203.761 359.96 203.441Z" fill="white"/>
<path d="M364.718 206.187C364.165 205.868 363.468 206.054 363.212 206.496L348.991 231.129C348.672 231.681 348.923 232.268 349.476 232.587C350.029 232.907 350.727 232.72 350.982 232.278L365.204 207.646C365.522 207.093 365.271 206.506 364.718 206.187Z" fill="white"/>
<path d="M369.476 208.934C368.923 208.614 368.225 208.801 367.97 209.243L353.749 233.875C353.43 234.428 353.681 235.014 354.234 235.334C354.787 235.653 355.485 235.467 355.74 235.025L369.961 210.392C370.28 209.84 370.029 209.253 369.476 208.934Z" fill="white"/>
<path d="M374.234 211.68C373.681 211.361 372.983 211.547 372.728 211.989L358.506 236.622C358.187 237.174 358.439 237.761 358.992 238.08C359.545 238.4 360.242 238.213 360.498 237.772L374.719 213.139C375.038 212.586 374.787 212 374.234 211.68Z" fill="white"/>
<path d="M378.984 214.427C378.431 214.108 377.733 214.294 377.478 214.736L363.256 239.369C362.937 239.921 363.189 240.508 363.742 240.827C364.295 241.146 364.992 240.96 365.248 240.518L379.469 215.885C379.788 215.333 379.537 214.746 378.984 214.427Z" fill="white"/>
<path opacity="0.5" d="M370.805 241.369L385.792 215.411C386.685 213.864 386.169 211.947 384.621 211.053L336.058 183.015C334.51 182.121 332.591 182.634 331.699 184.18L316.712 210.138L370.805 241.369Z" fill="#C6DEF4"/>
<path d="M376.321 156.365L355.645 186.69L364.834 191.745C364.834 191.745 384.899 171.179 376.321 156.365Z" fill="#0054A3"/>
<path d="M318.459 205.843L367.021 233.88C368.57 234.774 370.488 234.262 371.381 232.715L388.409 203.222C389.302 201.676 388.787 199.758 387.238 198.864L338.676 170.827C337.127 169.933 335.209 170.445 334.316 171.992L317.288 201.485C316.395 203.031 316.91 204.949 318.459 205.843Z" fill="#BBD1EA"/>
<path d="M338.753 177.347C338.2 177.027 337.503 177.214 337.248 177.656L323.026 202.288C322.707 202.841 322.958 203.428 323.511 203.747C324.064 204.066 324.762 203.88 325.017 203.438L339.175 178.916C339.494 178.363 339.306 177.666 338.753 177.347Z" fill="white"/>
<path d="M343.511 180.093C342.958 179.774 342.261 179.96 342.005 180.402L327.784 205.035C327.465 205.587 327.716 206.174 328.269 206.493C328.822 206.812 329.52 206.626 329.775 206.184L343.933 181.662C344.252 181.109 344.064 180.412 343.511 180.093Z" fill="white"/>
<path d="M348.261 182.838C347.708 182.519 347.011 182.706 346.755 183.147L332.534 207.78C332.215 208.332 332.466 208.919 333.019 209.239C333.572 209.558 334.27 209.372 334.525 208.93L348.683 184.407C349.002 183.855 348.814 183.158 348.261 182.838Z" fill="white"/>
<path d="M353.023 185.585C352.47 185.265 351.772 185.452 351.517 185.893L337.295 210.526C336.977 211.079 337.228 211.665 337.781 211.985C338.334 212.304 339.031 212.118 339.287 211.676L353.445 187.154C353.763 186.601 353.576 185.904 353.023 185.585Z" fill="white"/>
<path d="M357.777 188.331C357.224 188.012 356.526 188.198 356.271 188.64L342.049 213.273C341.73 213.825 341.982 214.412 342.535 214.731C343.088 215.051 343.785 214.864 344.04 214.422L358.198 189.9C358.517 189.348 358.33 188.65 357.777 188.331Z" fill="white"/>
<path d="M362.531 191.078C361.978 190.759 361.28 190.945 361.025 191.387L346.803 216.02C346.484 216.572 346.736 217.159 347.289 217.478C347.842 217.798 348.539 217.611 348.794 217.169L362.952 192.647C363.271 192.095 363.084 191.398 362.531 191.078Z" fill="white"/>
<path d="M367.289 193.824C366.735 193.505 366.038 193.691 365.783 194.133L351.561 218.766C351.242 219.318 351.493 219.905 352.046 220.224C352.6 220.544 353.297 220.357 353.552 219.916L367.71 195.393C368.14 194.905 367.842 194.144 367.289 193.824Z" fill="white"/>
<path d="M372.16 196.634C371.607 196.315 370.909 196.501 370.654 196.943L356.432 221.576C356.113 222.128 356.364 222.715 356.918 223.034C357.471 223.353 358.168 223.167 358.423 222.725L372.581 198.203C372.9 197.651 372.713 196.953 372.16 196.634Z" fill="white"/>
<path d="M376.917 199.381C376.364 199.062 375.667 199.248 375.412 199.69L361.19 224.323C360.871 224.875 361.122 225.462 361.675 225.781C362.228 226.1 362.926 225.914 363.181 225.472L377.339 200.95C377.658 200.398 377.471 199.7 376.917 199.381Z" fill="white"/>
<path d="M381.664 202.127C381.11 201.807 380.413 201.994 380.158 202.435L365.936 227.068C365.617 227.621 365.868 228.207 366.421 228.527C366.975 228.846 367.672 228.66 367.927 228.218L382.085 203.695C382.404 203.143 382.217 202.446 381.664 202.127Z" fill="white"/>
<path d="M333.292 233.569L332.081 235.301C332.081 235.301 328.276 235.475 327.584 233.916C327.411 233.396 327.411 232.703 327.93 232.356L333.292 233.569Z" fill="#F9856B"/>
<path d="M336.925 238.593C335.023 239.113 333.12 238.42 331.909 236.861C331.39 235.995 331.044 234.956 331.217 233.396C331.909 228.892 333.985 225.601 335.714 226.294C336.406 226.64 336.579 229.066 335.887 231.144C335.887 231.144 336.925 229.066 337.098 226.64C337.444 224.215 340.385 225.081 340.039 228.026C339.693 230.971 339.347 231.491 339.347 231.491C339.347 231.491 340.385 229.066 340.385 227.68C340.385 226.294 342.634 226.294 342.634 229.239C342.634 230.625 342.461 232.011 342.461 232.011C342.461 232.011 342.807 230.105 343.153 229.066C343.326 228.026 344.71 227.333 345.056 229.412C345.401 230.971 346.093 235.475 344.018 236.515C342.807 237.034 339.174 238.074 336.925 238.593Z" fill="#F9A38F"/>
<path d="M386.23 223.696L416.157 219.885L414.6 364.707L402.664 365.92L386.23 223.696Z" fill="#EE384E"/>
<path d="M369.617 219.885L361.66 364.707L373.25 365.92L404.214 223.696L369.617 219.885Z" fill="#DE051F"/>
<path d="M387.608 118.544C392.106 118.717 397.468 129.457 397.468 134.135C397.468 138.812 395.046 138.812 394.008 141.064C392.971 143.316 386.051 145.568 382.765 145.568C379.305 145.395 378.267 139.678 378.44 131.363C378.613 123.221 382.246 118.544 382.246 118.544C382.246 118.544 382.938 118.371 387.608 118.544Z" fill="#FFBE9B"/>
<path d="M388.3 136.213C388.3 136.213 388.3 136.213 388.127 143.315C387.954 150.418 381.727 155.615 381.727 155.615C381.727 155.615 381.554 160.465 388.3 161.678C395.047 162.891 402.139 154.922 402.139 154.922C402.139 154.922 400.928 152.67 398.852 146.607C396.776 140.717 395.739 134.654 395.739 134.654L388.3 136.213Z" fill="#FEBE9A"/>
<path d="M385.184 120.969C389.681 122.181 389.681 122.355 391.93 124.78C394.179 127.032 395.217 133.095 395.217 133.095C395.217 133.095 395.736 136.213 396.255 137.946C396.774 139.678 397.12 141.41 397.293 142.796C397.466 144.009 398.33 144.009 399.541 144.009C400.579 144.182 403.001 142.969 405.25 138.292C407.672 133.615 407.153 128.764 406.634 127.725C405.596 125.3 405.769 120.622 405.769 119.41C405.769 118.197 405.942 117.158 403.693 114.559C401.444 111.961 390.2 111.787 390.2 111.787C388.989 111.787 386.741 111.614 385.703 110.575C384.492 109.362 379.994 106.764 377.745 107.976C375.497 109.189 378.61 118.543 378.61 118.543C379.648 122.008 380.859 119.583 385.184 120.969Z" fill="#160C56"/>
<path d="M397.644 130.669C397.471 134.307 394.184 132.921 394.184 132.921C394.184 132.921 392.108 129.284 393.665 127.378C395.395 125.299 397.644 127.032 397.644 130.669Z" fill="#FFBE9B"/>
<path d="M414.771 363.841L402.317 363.667C402.144 365.919 401.452 366.093 401.452 366.093C401.452 366.093 390.554 371.116 386.748 373.022C383.116 374.928 387.094 375.794 387.094 375.794C387.094 375.794 407.679 375.967 411.485 375.967C415.29 375.967 414.598 374.061 414.598 374.061L414.771 363.841Z" fill="#170856"/>
<path d="M374.283 363.841L361.828 363.667C361.655 365.919 360.963 366.093 360.963 366.093C360.963 366.093 350.065 371.116 346.26 373.022C342.627 374.927 346.606 375.794 346.606 375.794C346.606 375.794 367.191 375.967 370.996 375.967C374.802 375.967 374.11 374.061 374.11 374.061L374.283 363.841Z" fill="#170856"/>
<path d="M397.982 153.882C397.982 153.882 399.366 152.323 400.923 153.016C402.307 153.709 410.437 150.591 414.934 168.088C419.432 185.584 416.318 223.522 416.318 223.522L369.44 222.482C369.44 222.482 369.267 205.506 370.132 189.742C370.997 173.977 372.035 164.103 374.283 159.253C376.532 154.402 381.376 153.882 382.76 152.67C383.97 151.457 385.354 152.497 385.354 152.497C391.582 159.772 397.982 153.882 397.982 153.882Z" fill="#0083F9"/>
<path d="M368.238 240.325C368.238 238.766 371.525 239.112 373.255 238.419C374.985 237.727 378.963 234.955 378.271 234.262C377.579 233.396 376.541 232.703 375.85 232.183C375.158 231.663 374.812 230.278 375.504 230.104C376.368 229.931 378.79 231.317 379.655 232.183C380.001 232.53 380.52 233.569 381.039 234.089C381.731 234.955 382.423 235.474 383.461 235.648C384.326 234.782 385.364 233.915 386.056 233.396C387.439 233.569 391.764 237.207 390.38 239.805C388.996 241.364 387.093 242.923 387.093 242.923C380.347 248.12 376.541 247.601 374.985 247.428C373.428 247.254 373.255 245.522 373.255 245.522C371.871 245.002 372.044 243.79 372.044 243.79C369.968 243.097 370.314 241.538 370.314 241.538C370.314 241.538 368.238 241.884 368.238 240.325Z" fill="#F9A38F"/>
<path d="M409.754 156.654C409.754 156.654 421.171 165.835 417.365 215.553C417.365 215.553 410.446 232.01 391.245 240.325L385.363 234.262C385.363 234.262 399.202 225.081 406.294 210.529L403.526 167.394C403.699 167.221 403.526 162.89 409.754 156.654Z" fill="#0064B7"/>
<path d="M400.34 69.5635L392.906 71.6528L394.991 79.1042L402.425 77.0148L400.34 69.5635Z" fill="#ED3B4E"/>
</svg>
