<svg width="500" height="370" viewBox="0 0 500 370" fill="none" xmlns="http://www.w3.org/2000/svg">
<path d="M363.973 24.1774C363.973 24.1774 360.904 18.7784 365.125 15.9639C369.345 13.1494 376.268 16.3144 376.406 20.7704C376.536 25.2246 373.576 26.95 376.404 28.8728C379.224 30.7939 386.284 37.3342 383.177 40.9957C380.079 44.6589 375.171 42.6663 375.205 49.1556C375.239 55.6449 384.844 61.1456 376.785 66.4716C368.725 71.7975 352.808 77.1507 351.625 61.1553C350.441 45.1599 362.735 53.6618 358.693 41.9808C354.651 30.2997 360.692 32.7003 363.706 30.0119C366.702 27.3285 363.973 24.1774 363.973 24.1774Z" fill="#023EA1"/>
<path d="M370.178 32.6946C370.178 32.6946 365.376 48.4169 365.79 63.3965C366.205 78.3762 368.53 81.5512 368.53 81.5512" stroke="white" stroke-width="0.902605" stroke-miterlimit="10" stroke-linecap="round" stroke-linejoin="round"/>
<path d="M328.886 21.7776C328.886 21.7776 340.88 16.5189 341.669 23.7464C342.464 30.9843 345.479 31.3864 348.62 31.646C351.761 31.9057 357.555 30.032 357.977 37.7074C358.408 45.3845 355.656 49.4814 358.374 52.515C361.089 55.5572 367.974 71.4399 361.146 72.4653C354.32 73.4821 347.936 65.9371 346.094 62.0459C344.253 58.1547 338.7 56.7568 334.228 56.7571C329.756 56.7575 324.565 53.3256 327.474 48.1095C330.391 42.8952 328.768 36.5423 325.098 34.439C321.445 32.3392 320.822 25.4732 328.886 21.7776Z" fill="#FCBE42"/>
<path d="M333.264 29.6478L362.105 78.4783" stroke="white" stroke-width="0.902605" stroke-miterlimit="10" stroke-linecap="round" stroke-linejoin="round"/>
<path d="M372.995 69.5156C372.995 69.5156 356.342 44.0164 352.418 23.2735" stroke="#DE051F" stroke-width="0.902605" stroke-miterlimit="10"/>
<path d="M351.992 10.009C351.992 10.009 358.103 17.1088 352.877 25.4212C352.877 25.4212 346.581 20.1434 351.992 10.009Z" stroke="#DE051F" stroke-width="0.902605" stroke-miterlimit="10"/>
<path d="M358.444 42.0538C358.444 42.0538 356.468 33.6454 365.444 28.4355C365.444 28.4355 369.47 35.3224 358.444 42.0538Z" stroke="#DE051F" stroke-width="0.902605" stroke-miterlimit="10"/>
<path d="M367.513 60.2414C367.513 60.2414 363.926 52.3811 371.713 45.5207C371.715 45.5122 377.01 51.4802 367.513 60.2414Z" stroke="#DE051F" stroke-width="0.902605" stroke-miterlimit="10"/>
<path d="M367.253 60.4889C367.253 60.4889 363.173 52.8649 352.979 54.8686C352.987 54.8703 354.515 62.6915 367.253 60.4889Z" stroke="#DE051F" stroke-width="0.902605" stroke-miterlimit="10"/>
<path d="M358.504 41.942C358.504 41.942 355.431 33.8677 345.061 34.5518C345.061 34.5518 345.587 42.5049 358.504 41.942Z" stroke="#DE051F" stroke-width="0.902605" stroke-miterlimit="10"/>
<path d="M389.025 188.118C410.813 195.757 434.605 184.236 442.118 162.448C449.756 140.66 438.236 116.868 416.448 109.355C394.659 101.717 370.868 113.237 363.355 135.025C355.841 156.813 367.362 180.605 389.025 188.118Z" stroke="#DB061F" stroke-width="0.902605" stroke-miterlimit="10" stroke-dasharray="5.42 5.42"/>
<path d="M441.618 156.187C445.249 157.439 449.256 155.561 450.633 151.805C451.886 148.173 450.007 144.166 446.251 142.789C442.619 141.537 438.612 143.415 437.235 147.171C435.983 150.803 437.861 154.81 441.618 156.187Z" fill="#003FAE"/>
<path d="M443.117 146.295L446.372 150.803L441.238 151.679L443.117 146.295Z" fill="white"/>
<path d="M47.1949 116.173C52.955 119.178 62.7221 116.048 67.1048 107.909C71.4875 99.7694 80.3781 103.651 84.0095 109.537C87.7661 115.422 94.1523 121.432 100.789 120.681C107.426 119.805 122.577 121.808 126.96 131.7C131.343 141.468 104.796 145.725 98.535 144.723C92.274 143.722 89.2687 150.734 78.7503 156.619C68.357 162.504 65.9778 153.363 62.9726 149.482C59.9673 145.6 56.962 141.968 46.8192 146.977C36.6764 151.986 33.5459 131.951 33.5459 131.951C31.9181 118.051 41.4348 113.043 47.1949 116.173Z" fill="#023E9F"/>
<path d="M135.73 127.693L47.7002 130.824" stroke="white" stroke-width="0.902605" stroke-miterlimit="10" stroke-linecap="round" stroke-linejoin="round"/>
<path d="M72.3647 112.917L83.5093 129.572L72.1143 146.852" stroke="white" stroke-width="0.902605" stroke-miterlimit="10" stroke-linecap="round" stroke-linejoin="round"/>
<path d="M71.2401 79.4839C71.1149 85.8701 61.8487 90.378 79.8803 98.2668C97.9119 106.156 74.7463 111.415 94.7814 127.193C114.817 143.096 125.711 118.678 128.09 103.401C130.594 88.2492 113.815 93.5085 106.051 86.6214C98.4128 79.6091 106.051 76.1029 105.049 68.4645C104.173 60.8261 88.7709 62.0783 83.5117 63.3305C78.2524 64.5827 79.3794 59.1983 73.995 54.5651C68.6105 49.932 57.466 54.5651 56.2138 62.5792C54.9616 70.5933 64.6035 72.8472 64.6035 72.8472C64.6035 72.8472 71.2401 72.9725 71.2401 79.4839Z" fill="#EC384E"/>
<path d="M136.858 129.446C136.858 129.446 130.597 128.695 112.566 113.043C94.534 97.3901 81.2607 74.7253 81.2607 74.7253" stroke="white" stroke-width="0.902605" stroke-miterlimit="10" stroke-linecap="round" stroke-linejoin="round"/>
<path d="M49.7012 93.7589C75.8721 105.78 104.047 136.083 104.047 136.083" stroke="#FABC43" stroke-width="0.902605" stroke-miterlimit="10"/>
<path d="M52.4561 95.1363C39.8089 99.2686 32.4209 88.8753 32.4209 88.8753C47.4473 84.9935 52.4561 95.1363 52.4561 95.1363Z" stroke="#FABC43" stroke-width="0.902605" stroke-miterlimit="10"/>
<path d="M52.335 112.667C62.2273 102.524 72.6206 107.909 72.6206 107.909C60.0986 120.18 52.335 112.667 52.335 112.667Z" stroke="#FABC43" stroke-width="0.902605" stroke-miterlimit="10"/>
<path d="M72.8662 126.566C84.5116 118.552 93.6527 125.815 93.6527 125.815C79.002 135.457 72.8662 126.566 72.8662 126.566Z" stroke="#FABC43" stroke-width="0.902605" stroke-miterlimit="10"/>
<path d="M67.1088 87.7481C62.8513 101.147 72.4932 107.909 72.4932 107.909C77.3768 91.0039 67.1088 87.7481 67.1088 87.7481Z" stroke="#FABC43" stroke-width="0.902605" stroke-miterlimit="10"/>
<path d="M409.941 310.252H86.7494C83.4937 310.252 80.9893 307.623 80.9893 304.492V88.7387C80.9893 85.483 83.6189 82.9786 86.7494 82.9786H410.067C413.322 82.9786 415.827 85.6082 415.827 88.7387V304.492C415.827 307.623 413.197 310.252 409.941 310.252Z" fill="#0064B5"/>
<path d="M408.316 90.8674H88.5049V307.998H408.316V90.8674Z" fill="#DAE6FF"/>
<path d="M450.012 316.013H46.8048C43.6743 316.013 41.1699 313.508 41.1699 310.378V307.122C41.1699 303.992 43.6743 301.487 46.8048 301.487H450.012C453.143 301.487 455.647 303.992 455.647 307.122V310.378C455.647 313.508 453.143 316.013 450.012 316.013Z" fill="#0064B5"/>
<path d="M408.316 90.8674H88.5049V302.238H408.316V90.8674Z" fill="#FDFDFD"/>
<path d="M384.904 272.656H117.876C115.173 272.656 112.866 270.27 112.866 267.181V47.871C112.866 44.782 115.173 42.3961 117.876 42.3961H384.904C387.607 42.3961 389.913 44.782 389.913 47.871V267.181C389.913 270.27 387.607 272.656 384.904 272.656Z" fill="#DBEFFF" stroke="#0064B7" stroke-width="1.80521"/>
<circle cx="170.913" cy="119.16" r="36.2684" fill="white" stroke="#2A2A2A" stroke-width="0.451302" stroke-dasharray="2.71 2.71"/>
<path d="M314.152 87.3449H229.802C228.805 87.3449 227.997 88.1531 227.997 89.1501V91.1541C227.997 92.1511 228.805 92.9594 229.802 92.9594H314.152C315.149 92.9594 315.957 92.1511 315.957 91.1541V89.1501C315.957 88.1531 315.149 87.3449 314.152 87.3449Z" fill="white"/>
<path d="M314.152 121.032H229.802C228.805 121.032 227.997 121.84 227.997 122.837V124.841C227.997 125.838 228.805 126.646 229.802 126.646H314.152C315.149 126.646 315.957 125.838 315.957 124.841V122.837C315.957 121.84 315.149 121.032 314.152 121.032Z" fill="white"/>
<path d="M314.152 155.654H229.802C228.805 155.654 227.997 156.463 227.997 157.46V159.464C227.997 160.461 228.805 161.269 229.802 161.269H314.152C315.149 161.269 315.957 160.461 315.957 159.464V157.46C315.957 156.463 315.149 155.654 314.152 155.654Z" fill="white"/>
<path d="M366.554 98.5737H229.802C228.805 98.5737 227.997 99.3819 227.997 100.379V102.383C227.997 103.38 228.805 104.188 229.802 104.188H366.554C367.551 104.188 368.359 103.38 368.359 102.383V100.379C368.359 99.3819 367.551 98.5737 366.554 98.5737Z" fill="white"/>
<path d="M366.554 132.261H229.802C228.805 132.261 227.997 133.069 227.997 134.066V136.07C227.997 137.067 228.805 137.875 229.802 137.875H366.554C367.551 137.875 368.359 137.067 368.359 136.07V134.066C368.359 133.069 367.551 132.261 366.554 132.261Z" fill="white"/>
<path d="M366.554 166.883H229.802C228.805 166.883 227.997 167.691 227.997 168.688V170.692C227.997 171.689 228.805 172.498 229.802 172.498H366.554C367.551 172.498 368.359 171.689 368.359 170.692V168.688C368.359 167.691 367.551 166.883 366.554 166.883Z" fill="white"/>
<path d="M390.816 69.5659H111.964V50.7254C111.964 45.6384 113.905 41.4935 116.286 41.4935H387.375C389.228 41.4935 390.816 44.6964 390.816 48.8413V69.5659Z" fill="#0064B7"/>
<path d="M384.115 55.5441C384.115 57.0433 382.88 58.3661 381.293 58.3661C379.793 58.3661 378.471 57.1315 378.471 55.5441C378.471 54.045 379.705 52.7222 381.293 52.7222C382.88 52.7222 384.115 53.9568 384.115 55.5441Z" fill="white"/>
<path d="M376.264 55.5441C376.264 57.0433 375.029 58.3661 373.442 58.3661C371.943 58.3661 370.62 57.1315 370.62 55.5441C370.62 54.045 371.855 52.7222 373.442 52.7222C375.029 52.7222 376.264 53.9568 376.264 55.5441Z" fill="white"/>
<path d="M368.329 55.5441C368.329 57.0433 367.095 58.3661 365.508 58.3661C364.008 58.3661 362.686 57.1315 362.686 55.5441C362.686 54.045 363.92 52.7222 365.508 52.7222C367.095 52.7222 368.329 53.9568 368.329 55.5441Z" fill="white"/>
<path d="M209.581 209.629H135.051C133.102 209.629 131.611 208.024 131.611 206.189V175.001C131.611 173.052 133.217 171.562 135.051 171.562H209.581C211.531 171.562 213.021 173.167 213.021 175.001V206.189C213.021 208.139 211.531 209.629 209.581 209.629Z" fill="white"/>
<path d="M196.852 179.932H148.809V183.028H196.852V179.932Z" fill="#0064B7"/>
<path d="M202.819 189.563H140.558V192.659H202.819V189.563Z" fill="#DCE8F4"/>
<path d="M171.287 197.705H140.558V200.801H171.287V197.705Z" fill="#DCE8F4"/>
<path d="M144.795 181.537C144.795 182.684 143.878 183.601 142.731 183.601C141.584 183.601 140.667 182.684 140.667 181.537C140.667 180.391 141.584 179.473 142.731 179.473C143.878 179.359 144.795 180.276 144.795 181.537Z" fill="#0064B7"/>
<path d="M209.581 255.481H135.051C133.102 255.481 131.611 253.876 131.611 252.041V220.853C131.611 218.904 133.217 217.413 135.051 217.413H209.581C211.531 217.413 213.021 219.019 213.021 220.853V252.041C213.021 253.991 211.531 255.481 209.581 255.481Z" fill="white"/>
<path d="M196.852 225.784H148.809V228.879H196.852V225.784Z" fill="#DCE8F4"/>
<path d="M202.819 235.415H140.558V238.511H202.819V235.415Z" fill="#DCE8F4"/>
<path d="M171.287 243.557H140.558V246.652H171.287V243.557Z" fill="#DCE8F4"/>
<path d="M144.795 227.389C144.795 228.536 143.878 229.453 142.731 229.453C141.584 229.453 140.667 228.536 140.667 227.389C140.667 226.242 141.584 225.325 142.731 225.325C143.878 225.21 144.795 226.128 144.795 227.389Z" fill="#DCE8F4"/>
<path d="M455.024 317.538H41.2564C41.0076 317.538 40.8418 317.25 40.8418 316.818V316.386C40.8418 315.954 41.0076 315.667 41.2564 315.667H454.941C455.19 315.667 455.355 315.954 455.355 316.386V316.818C455.438 317.25 455.272 317.538 455.024 317.538Z" fill="#DCE8F4"/>
<path d="M450.271 185.145C450.271 185.02 450.271 184.644 450.271 184.644C450.145 184.018 449.394 183.267 448.893 182.766C447.641 181.89 446.389 181.389 445.137 181.514C444.636 181.514 444.26 181.639 443.759 182.015C438.75 183.893 436.747 181.514 436.747 181.514C436.747 181.514 432.239 177.757 430.361 182.015C428.482 186.272 431.863 188.902 433.115 188.526C434.368 188.401 438.625 188.025 439.627 189.904C440.879 191.782 443.258 193.159 444.135 192.784C444.761 192.658 445.011 193.66 445.011 194.161C445.011 195.038 444.51 196.039 443.759 196.665C443.634 196.791 443.258 197.166 443.258 197.292C443.258 197.417 443.258 197.417 443.258 197.792C443.258 199.045 443.384 199.796 443.759 201.048C443.884 201.925 444.385 205.18 446.013 204.68C448.267 204.179 453.526 201.799 453.025 193.41C453.025 193.41 453.526 190.154 451.523 188.401C451.022 187.9 450.02 187.524 450.02 186.523C449.519 186.397 450.02 185.646 450.271 185.145Z" fill="#1F1954"/>
<path d="M433.991 187.024C433.991 187.024 429.483 192.659 431.111 201.925C431.111 201.925 432.363 205.681 434.868 206.057C437.122 206.182 436.245 208.812 436.245 209.438C435.744 211.316 435.619 210.315 434.868 211.942C434.367 213.445 436.746 216.45 439 216.45C441.254 216.45 445.386 213.695 446.012 212.318C446.638 210.941 446.513 206.683 445.136 203.928C443.758 201.173 444.635 196.916 444.635 196.916C444.635 196.916 449.393 193.285 445.512 191.281C442.005 189.778 434.868 186.398 433.991 187.024Z" fill="#F9BC97"/>
<path d="M420.09 222.962L413.954 231.352C413.954 231.352 413.077 232.854 411.199 232.228C408.444 231.351 397.801 226.718 397.801 226.718C397.801 226.718 396.548 223.337 395.046 222.461C393.543 221.584 387.533 221.083 388.033 225.717C388.534 230.35 391.414 230.725 392.792 230.475C394.169 230.475 402.434 236.235 403.185 236.861C404.062 237.362 412.201 241.369 412.201 241.369C412.201 241.369 415.081 242.746 417.836 239.866C420.591 236.986 427.728 229.473 427.728 229.473L424.347 224.715L420.09 222.962Z" fill="#F9BC97"/>
<path d="M431.236 214.947C431.236 214.947 423.347 218.704 420.842 222.085L419.966 222.961L426.853 228.721L431.236 214.947Z" fill="#F39D1D"/>
<path d="M446.388 208.937C446.388 209.438 446.388 209.563 446.263 210.189C446.263 210.69 446.137 210.815 445.762 211.441C445.386 211.942 445.261 212.318 444.885 212.694C444.384 213.194 444.009 213.57 443.508 213.946C443.007 214.447 442.256 214.572 441.63 214.822C441.003 214.947 440.127 215.323 439.376 215.323C439.25 215.323 438.875 215.323 438.75 215.323C438.624 215.323 438.249 215.198 438.123 214.822C437.623 214.697 437.247 214.196 436.746 213.57C436.12 213.069 435.494 212.318 434.868 211.692C434.868 211.692 427.981 214.196 426.353 228.346L426.228 260.402L460.663 259.526L451.397 214.572C451.021 213.821 448.141 209.939 446.388 208.937Z" fill="#FABC43"/>
<path d="M459.789 228.596C459.789 228.596 456.533 213.194 450.522 213.695C444.387 214.196 446.39 226.468 447.768 230.475L459.789 228.596Z" fill="#F39D1D"/>
<path d="M426.228 260.026L433.24 357.573L441.755 358.074L444.51 302.852L441.254 259.776L426.228 260.026Z" fill="#0053A1"/>
<path d="M436.371 259.651C436.371 259.651 438.249 298.72 444.886 311.617C451.773 324.39 460.288 349.935 465.798 354.443L472.935 349.684C472.935 349.684 458.034 308.237 458.785 296.466L460.664 259.15L436.371 259.651Z" fill="#0064DF"/>
<path d="M447.637 230.475C447.637 230.475 453.147 240.367 453.147 242.621C453.147 244.875 454.024 252.514 453.147 260.027C453.147 260.027 450.267 271.672 449.39 272.674L447.137 275.429C447.137 275.429 445.759 277.432 448.514 276.305C448.514 276.305 449.891 276.931 449.14 277.683C448.514 278.309 446.886 278.309 446.385 279.937C446.385 279.937 443.881 280.813 445.759 282.191C445.759 282.191 448.013 284.069 449.14 282.692C449.14 282.692 451.144 282.692 451.144 281.314C451.144 281.314 453.022 280.438 453.397 277.057C453.898 273.425 456.278 270.044 457.029 268.667C457.029 268.667 461.787 252.764 461.787 252.013C461.787 251.512 461.787 250.76 461.787 250.51C461.787 249.258 461.787 248.256 461.787 247.129C461.787 245.752 461.787 244.374 461.787 242.997C461.787 241.619 461.662 240.242 461.286 238.865C461.161 237.487 460.66 236.36 460.66 235.233C460.66 234.732 460.66 233.981 460.535 233.731C460.535 232.478 460.41 231.477 460.034 230.099C460.034 229.974 459.909 228.722 459.909 228.597L447.637 230.475Z" fill="#F9BC97"/>
<path d="M441.88 358.074L433.365 357.448C433.365 357.448 426.478 362.456 424.099 362.957C421.344 363.458 420.343 364.961 422.221 365.211C424.099 365.336 440.503 365.336 440.503 365.336C440.503 365.336 442.381 365.086 441.88 358.074Z" fill="#201A56"/>
<path d="M465.672 353.941C465.672 353.941 462.291 360.453 460.913 361.83C459.536 363.583 457.532 367.34 460.913 365.336C463.793 363.583 473.56 357.447 475.439 356.07C475.564 356.07 475.564 355.569 475.564 355.569C475.564 355.444 475.564 355.068 475.564 354.818C475.564 354.066 475.063 352.439 474.186 351.437C472.809 349.433 472.809 349.433 472.809 349.433L465.672 353.941Z" fill="#201A56"/>
<path d="M95.0761 346.894C95.0761 346.894 100.085 347.145 103.841 347.145C107.473 347.145 113.358 347.896 113.358 347.896C113.358 347.896 114.861 347.896 114.986 349.774C115.111 351.652 115.111 352.404 115.111 352.404C115.111 352.404 115.236 354.658 113.483 354.658C111.73 354.658 100.461 355.91 97.9561 355.91C95.4517 355.91 93.5735 356.411 93.5735 354.658C93.4482 352.905 93.323 346.769 95.0761 346.894Z" fill="#160856"/>
<path d="M99.2046 293.425C99.2046 293.425 102.46 311.582 102.711 316.465C102.961 321.224 103.462 324.98 100.332 326.859C97.2011 328.737 91.9419 330.49 91.9419 330.49L85.5557 297.933V294.176L99.2046 293.425Z" fill="#FDBD97"/>
<path d="M43.4819 292.299C43.4819 292.299 41.7288 300.563 41.228 304.695C40.7271 308.828 39.6001 316.967 39.4749 318.845C39.3497 320.723 39.0992 323.854 42.4802 326.358C45.8611 328.737 49.6177 330.115 49.6177 330.115L56.63 292.299H43.4819Z" fill="#FDBD97"/>
<path d="M68.4011 266.128C68.4011 266.128 68.401 269.884 66.7732 271.512C65.1453 273.14 63.0166 275.895 63.0166 275.895C63.0166 275.895 66.7732 281.905 74.4116 281.029C81.9248 280.278 83.3022 274.768 83.3022 274.768C83.3022 274.768 76.1647 273.766 75.2881 267.004C74.5368 260.242 73.4098 260.242 73.4098 260.242L68.4011 266.128Z" fill="#FDAE7D"/>
<path d="M62.8955 251.101C62.8955 251.101 63.1459 259.741 67.2782 266.503C71.2852 273.265 76.1688 269.508 78.1723 266.002C80.0506 262.496 85.1846 251.101 84.1829 248.096C83.0559 245.091 68.1547 243.713 68.1547 243.713L62.8955 251.101Z" fill="#FDBD97"/>
<path d="M82.0514 255.985C82.0514 255.985 84.1802 254.357 84.1802 255.985C84.1802 257.613 83.0532 259.992 81.801 260.367C80.4236 260.618 80.674 259.867 81.0497 258.74C81.3001 257.613 82.0514 255.985 82.0514 255.985Z" fill="#FDBD97"/>
<path d="M63.5188 259.491C64.1449 259.741 64.771 259.867 64.771 258.99C64.771 257.362 63.644 254.983 62.3918 254.607C61.0144 254.357 61.2648 255.108 61.6405 256.235C61.7657 256.611 61.8909 256.987 62.0161 257.488C62.2666 258.239 63.0179 259.241 63.5188 259.491Z" fill="#FDBD97"/>
<path d="M63.2678 255.108L63.0174 252.353C63.0174 252.353 65.3965 252.604 68.1514 249.974C68.1514 249.974 73.4106 251.226 77.6681 250.725C82.176 250.35 84.0543 249.098 84.0543 249.098C84.0543 249.098 83.303 254.232 82.5516 255.734C82.5516 255.734 84.6804 254.858 85.5569 252.353C86.3082 249.974 86.183 247.344 86.183 247.344C86.183 247.344 89.1883 244.965 89.9396 242.21C89.9396 242.21 81.8003 240.332 79.4211 238.704C77.042 237.076 75.6646 235.949 75.6646 235.949C75.6646 235.949 71.908 233.821 68.1514 236.701C64.3948 239.706 61.8904 241.334 61.8904 246.468C61.7652 246.593 58.259 251.477 63.2678 255.108Z" fill="#160856"/>
<path d="M63.8985 273.139C63.8985 273.139 58.7645 272.513 55.8844 273.265C53.1296 274.016 52.253 273.515 53.0044 275.644C53.7557 277.773 57.5123 287.665 55.7592 293.801C54.0061 299.937 51.627 331.742 51.627 331.742C51.627 331.742 70.9108 332.494 78.2987 332.869C85.8119 333.245 91.3216 331.868 91.3216 331.868C91.3216 331.868 92.9495 318.219 91.3216 312.208C89.6937 306.323 87.565 296.18 87.565 296.18C87.565 296.18 86.1876 282.281 88.0659 278.9C89.9442 275.519 91.3216 275.393 88.9424 274.517C86.5632 273.64 83.9336 272.889 81.9301 272.889C80.0518 272.889 79.0501 272.889 77.9231 274.016C76.7961 275.143 74.5422 277.397 71.4117 276.896C68.2812 276.395 65.902 274.266 65.902 274.266C65.902 274.266 64.775 273.265 63.8985 273.139Z" fill="#0181F7"/>
<path d="M54.7533 274.267C54.7533 274.267 53.0002 273.391 50.3706 275.645C47.4906 278.149 45.487 283.408 44.4853 286.664C43.4835 289.92 42.8574 293.175 42.8574 293.175C42.8574 293.175 46.4888 295.054 50.3706 295.179C54.1272 295.304 56.6316 295.555 56.6316 295.555C56.6316 295.555 58.2594 285.662 57.8838 281.279C57.3829 276.897 56.7568 275.394 54.7533 274.267Z" fill="#023E9F"/>
<path d="M86.5576 277.898C86.5576 277.898 88.0602 273.766 91.4411 275.644C94.8221 277.522 97.3265 284.785 98.203 287.039C98.9543 289.293 99.9561 293.926 99.9561 293.926C99.9561 293.926 95.9491 295.679 92.4429 295.929C89.062 296.18 86.6828 296.43 86.6828 296.43C86.6828 296.43 85.3054 287.414 85.5558 283.908C85.8063 280.402 86.5576 277.898 86.5576 277.898Z" fill="#023E9F"/>
<path d="M58.6377 334.623H84.5582L71.1597 338.755L58.6377 334.623Z" fill="#BA0A28"/>
<path d="M35.5951 327.235C35.5951 327.235 82.9281 342.011 93.3214 345.642C93.3214 345.642 96.7023 346.519 96.8275 348.272C96.9528 350.025 96.5771 352.529 96.2014 353.781C95.8258 355.034 94.6988 356.035 92.8205 355.66C90.9422 355.284 48.4927 346.769 31.7133 342.386L26.9549 340.884C26.9549 340.884 23.4488 339.256 24.0749 334.999C24.701 330.741 27.8315 326.859 30.0854 326.609C32.3394 326.484 35.5951 327.235 35.5951 327.235Z" fill="#EC384E"/>
<path d="M31.3386 348.272C31.3386 348.272 37.224 347.27 40.8553 347.145C44.3615 347.02 49.1198 346.644 49.8711 347.145C50.6225 347.646 51.2486 354.533 51.2486 354.533C51.2486 354.533 51.8747 356.411 47.2415 356.035C42.6084 355.66 31.8395 355.284 31.8395 355.284C31.8395 355.284 29.4603 355.159 29.3351 353.03C29.2099 350.901 29.5856 349.9 29.5856 349.9C29.5856 349.9 29.7108 348.522 31.3386 348.272Z" fill="#160856"/>
<path d="M59.515 342.261C59.515 342.261 88.1903 333.496 98.4583 330.49C108.726 327.485 114.361 324.73 117.742 329.489C120.998 334.247 120.747 339.631 116.991 341.134C113.234 342.637 83.3068 349.649 70.91 352.153C58.5133 354.658 50.374 356.286 49.247 355.785C48.12 355.284 46.8678 351.652 47.1183 349.649C47.3687 347.645 47.4939 346.894 49.8731 345.892C52.2523 344.765 59.515 342.261 59.515 342.261Z" fill="#DB061F"/>
<path d="M56.2582 300.438H90.8188C90.8188 300.438 92.6971 300.187 92.6971 302.692C92.6971 305.196 92.6971 332.494 92.6971 332.494C92.6971 332.494 92.8224 334.498 91.3197 334.498C89.8171 334.498 50.7485 334.498 50.7485 334.498C50.7485 334.498 49.1207 334.998 49.1207 332.244C49.1207 329.489 49.1207 301.94 49.1207 301.94C49.1207 301.94 48.9955 300.438 50.999 300.438C52.8773 300.438 56.2582 300.438 56.2582 300.438Z" fill="#0064B5"/>
<path d="M73.0382 317.342L70.5338 315.339L68.5303 317.843L71.0347 319.847L73.0382 317.342Z" fill="#579CD2"/>
<path d="M346.976 310.074C346.976 310.074 350.232 308.697 349.981 305.065C349.731 301.309 347.853 298.679 351.734 299.806C355.741 300.933 356.994 301.309 359.874 300.808C362.754 300.182 365.133 299.055 363.881 302.686C362.628 306.443 361.251 309.448 364.256 310.074C367.262 310.7 370.392 308.446 370.768 314.206C371.143 319.966 366.51 326.603 358.872 326.728C351.359 326.979 347.978 323.848 347.978 323.848C347.978 323.848 345.974 320.968 349.105 320.217C352.235 319.465 355.491 318.213 353.863 316.711C352.235 315.208 346.976 315.083 346.976 315.083C346.976 315.083 340.339 313.956 346.976 310.074Z" fill="#649CE8"/>
<path d="M381.537 311.076C381.036 307.319 381.411 304.689 388.298 303.688C395.186 302.686 399.193 306.818 399.568 311.076C399.944 315.333 394.059 316.836 394.059 316.836C394.059 316.836 389.801 318.088 391.93 321.719C394.059 325.476 395.06 328.982 390.177 329.608C385.293 330.109 379.909 328.857 376.903 326.853C373.898 324.85 370.893 319.841 374.274 317.211C374.274 317.211 375.276 316.585 378.531 316.335C381.912 316.21 381.537 311.076 381.537 311.076Z" fill="#023E9F"/>
<path d="M357.369 310.45C357.369 310.45 363.129 323.348 363.881 332.113" stroke="#023E9F" stroke-width="0.902605" stroke-miterlimit="10"/>
<path d="M389.05 312.578C389.05 312.578 378.907 327.605 376.528 332.614" stroke="#649CE8" stroke-width="0.902605" stroke-miterlimit="10"/>
<path d="M360.252 331.111H383.418C383.418 331.111 385.922 331.236 385.797 334.742C385.672 337.998 381.539 337.247 379.411 337.247C377.282 337.247 359.751 337.247 359.751 337.247C359.751 337.247 356.871 337.747 356.871 334.492C356.996 331.361 357.998 331.111 360.252 331.111Z" fill="#0055A2"/>
<path d="M359.872 337.247L363.378 357.783H378.905L381.535 342.381L359.872 337.247Z" fill="#0055A2"/>
<path d="M359.872 337.247L381.535 342.381L382.412 337.247H359.872Z" fill="#016AD3"/>
<path d="M369.767 331.862C369.767 331.862 370.894 309.072 377.781 294.797" stroke="#FABC43" stroke-width="0.902605" stroke-miterlimit="10"/>
<path d="M383.412 286.658C383.412 286.658 383.913 293.67 377.151 296.425C377.151 296.425 375.649 290.415 383.412 286.658Z" fill="#FABC43"/>
<path d="M373.145 308.947C373.145 308.947 375.649 302.937 383.413 303.813C383.413 303.688 382.786 309.699 373.145 308.947Z" fill="#FABC43"/>
<path d="M370.642 323.848C370.642 323.848 371.894 317.462 379.657 316.836C379.657 316.836 380.158 322.721 370.642 323.848Z" fill="#FABC43"/>
<path d="M370.266 323.974C370.266 323.974 371.143 317.587 364.13 314.332C364.13 314.206 361.626 319.716 370.266 323.974Z" fill="#FABC43"/>
<path d="M373.274 308.822C373.274 308.822 375.027 302.561 368.39 298.428C368.39 298.428 365.134 303.562 373.274 308.822Z" fill="#FABC43"/>
<path d="M417.477 49.915L410.465 51.9185L412.468 58.9309L419.481 56.9273L417.477 49.915Z" fill="#EB3B4E"/>
</svg>
