<svg width="500" height="370" viewBox="0 0 500 370" fill="none" xmlns="http://www.w3.org/2000/svg">
<path d="M232.585 153.957C261.114 153.957 284.241 130.846 284.241 102.337C284.241 73.8281 261.114 50.717 232.585 50.717C204.056 50.717 180.929 73.8281 180.929 102.337C180.929 130.846 204.056 153.957 232.585 153.957Z" stroke="#DE051F" stroke-width="0.957265" stroke-miterlimit="10" stroke-dasharray="5.74 5.74"/>
<path d="M245.096 53.2578C245.943 48.8024 242.997 44.5013 238.517 43.6509C234.037 42.8006 229.719 45.7231 228.872 50.1785C228.025 54.6339 230.971 58.935 235.451 59.7854C239.931 60.6357 244.249 57.7132 245.096 53.2578Z" fill="#023EA1"/>
<path d="M234.366 48.6762L236.527 54.1665L240.557 49.855" stroke="white" stroke-width="0.957265" stroke-miterlimit="10"/>
<path d="M432.631 132.534C432.631 132.534 432.774 125.706 438.719 125.896C444.664 126.086 449.755 133.396 447.222 137.478C444.688 141.56 440.659 141.212 442.353 144.756C444.047 148.301 447.237 158.727 441.909 160.017C436.582 161.306 432.829 156.354 428.974 162.216C425.118 168.078 431.507 179.201 420.178 178.79C408.842 178.379 389.572 172.944 397.972 157.802C406.372 142.66 413.679 158.221 416.608 145.12C419.537 132.02 424.192 138.072 428.847 137.589C433.494 137.122 432.631 132.534 432.631 132.534Z" fill="#023EA1"/>
<path d="M433.779 144.187C433.779 144.187 419.497 155.223 410.923 168.956C402.35 182.69 402.793 187.033 402.793 187.033" stroke="white" stroke-width="0.957265" stroke-miterlimit="10" stroke-linecap="round" stroke-linejoin="round"/>
<path d="M187.903 49.7598C187.903 49.7598 190.041 42.1414 183.446 40.306C176.852 38.4706 168.801 44.8233 170.218 50.2345C171.635 55.6457 176.179 56.6266 173.123 59.9809C170.067 63.3353 163.061 73.7937 168.484 77.061C173.907 80.3283 179.686 76.1196 181.958 83.9437C184.23 91.7678 173.471 101.91 186.059 105.351C198.646 108.792 221.644 109.378 217.504 89.703C213.356 70.0281 200.103 84.7744 201.291 69.2369C202.478 53.6995 195.321 58.8101 190.373 56.682C185.426 54.5539 187.903 49.7598 187.903 49.7598Z" fill="#FCBE42"/>
<path d="M182.734 62.2911C182.734 62.2911 194.72 79.4345 199.526 97.6063C204.331 115.778 202.391 120.454 202.391 120.454" stroke="white" stroke-width="0.957265" stroke-miterlimit="10" stroke-linecap="round" stroke-linejoin="round"/>
<path d="M391.488 201.97C391.488 201.97 428.736 183.829 447.807 162.335" stroke="#EE384E" stroke-width="0.957265" stroke-miterlimit="10"/>
<path d="M457.584 147.161C457.584 147.161 445.495 151.188 445.78 164.542C445.78 164.534 456.816 162.77 457.584 147.161Z" stroke="#EE384E" stroke-width="0.957265" stroke-miterlimit="10"/>
<path d="M427.651 180.072C427.651 180.072 435.837 171.631 429.005 159.281C429.005 159.273 419.497 164.511 427.651 180.072Z" stroke="#EE384E" stroke-width="0.957265" stroke-miterlimit="10"/>
<path d="M404.368 194.976C404.368 194.976 414.05 188.299 409.768 174.85C409.768 174.85 399.42 178.125 404.368 194.976Z" stroke="#EE384E" stroke-width="0.957265" stroke-miterlimit="10"/>
<path d="M404.495 195.451C404.495 195.451 414.581 189.399 425.071 198.852C425.071 198.852 417.811 206.922 404.495 195.451Z" stroke="#EE384E" stroke-width="0.957265" stroke-miterlimit="10"/>
<path d="M427.667 179.906C427.667 179.906 436.898 172.62 448.504 180.657C448.504 180.657 442.337 189.581 427.667 179.906Z" stroke="#EE384E" stroke-width="0.957265" stroke-miterlimit="10"/>
<path d="M45.2607 158.118C45.2607 158.118 36.7978 157.968 36.9403 150.658C37.0828 143.348 46.0603 137.059 51.1744 140.16C56.2807 143.261 55.9007 148.221 60.2707 146.117C64.6407 144.012 77.5132 140.057 79.1994 146.599C80.8857 153.15 74.8057 157.778 82.1207 162.501C89.4357 167.224 103.139 159.32 102.807 173.26C102.474 187.199 96.0303 210.925 77.1332 200.648C58.2361 190.371 77.4182 181.329 61.1257 177.777C44.8332 174.225 52.2748 168.474 51.6019 162.754C50.929 157.034 45.2607 158.118 45.2607 158.118Z" fill="#EE384E"/>
<path d="M59.6846 156.671C59.6846 156.671 73.5862 174.194 90.7417 184.684C107.897 195.174 113.28 194.62 113.28 194.62" stroke="white" stroke-width="0.957265" stroke-miterlimit="10" stroke-linecap="round" stroke-linejoin="round"/>
<path d="M79.4209 120.833C79.4209 120.833 76.9271 129.567 83.9017 127.787C90.8763 126.007 94.9929 127.043 95.6817 134.227C96.3704 141.41 99.9725 144.994 104.232 144.962C108.491 144.93 116.257 143.617 116.677 153.435C117.096 163.253 119.258 182.271 108.554 183.995C97.8508 185.72 84.6379 175.531 84.2896 168.126C83.9492 160.721 88.05 155.618 81.0517 151.267C74.0534 146.916 70.8471 154.147 65.6142 147.177C60.3892 140.207 54.4596 133.61 62.4475 124.496C69.62 116.316 79.5634 115.699 79.4209 120.833Z" stroke="#023EA1" stroke-width="0.957265" stroke-miterlimit="10"/>
<path d="M75.0752 130.517C75.0752 130.517 107.613 174.518 118.49 183.751" stroke="#023EA1" stroke-width="0.957265" stroke-miterlimit="10"/>
<path d="M105.048 151.813L102.38 165.816L90.4492 167.351" stroke="#023EA1" stroke-width="0.957265" stroke-miterlimit="10"/>
<path d="M87.7258 132.953L84.3058 142.771L74.4971 145.271" stroke="#023EA1" stroke-width="0.957265" stroke-miterlimit="10"/>
<path d="M110.271 281.619C138.8 281.619 161.928 258.508 161.928 229.999C161.928 201.49 138.8 178.379 110.271 178.379C81.7425 178.379 58.6152 201.49 58.6152 229.999C58.6152 258.508 81.7425 281.619 110.271 281.619Z" stroke="#003EB0" stroke-width="0.957265" stroke-miterlimit="10" stroke-dasharray="5.74 5.74"/>
<path d="M59.6843 243.369C64.2227 243.369 67.9018 239.674 67.9018 235.117C67.9018 230.56 64.2227 226.866 59.6843 226.866C55.1459 226.866 51.4668 230.56 51.4668 235.117C51.4668 239.674 55.1459 243.369 59.6843 243.369Z" fill="#FCBE42"/>
<path d="M55.7656 234.215L59.7081 239.128L61.624 233.559" stroke="white" stroke-width="0.957265" stroke-miterlimit="10"/>
<path d="M391.947 302.82C420.476 302.82 443.604 279.709 443.604 251.2C443.604 222.691 420.476 199.58 391.947 199.58C363.418 199.58 340.291 222.691 340.291 251.2C340.291 279.709 363.418 302.82 391.947 302.82Z" stroke="#003EB0" stroke-width="0.957265" stroke-miterlimit="10" stroke-dasharray="5.74 5.74"/>
<path d="M437.989 251.204L443.598 256.809L449.207 251.204L443.598 245.599L437.989 251.204Z" fill="#EE384E"/>
<path d="M273.753 33.5936L279.362 39.1987L284.971 33.5936L279.362 27.9885L273.753 33.5936Z" fill="#EE384E"/>
<path d="M64.264 66.1306L69.873 71.7358L75.4821 66.1306L69.8731 60.5255L64.264 66.1306Z" fill="#003EB0"/>
<path d="M435.291 59.6643L420.788 53.7626L418.334 59.6327C417.677 58.6833 416.576 58.0584 415.333 58.0584C413.314 58.0584 411.684 59.696 411.684 61.7054C411.684 63.7227 413.322 65.3524 415.333 65.3524C415.547 65.3524 415.761 65.3287 415.967 65.297L413.528 71.1433L419.648 73.667C419.632 73.5246 419.616 73.3822 419.616 73.2319C419.616 71.2145 421.255 69.5849 423.266 69.5849C425.276 69.5849 426.915 71.2225 426.915 73.2319C426.915 74.3948 426.369 75.4233 425.53 76.0878L431.357 78.4928C431.357 78.4928 435.188 69.2289 436.898 64.6958C438.616 60.1706 435.291 59.6643 435.291 59.6643Z" stroke="#EE384E" stroke-width="0.957265" stroke-miterlimit="10"/>
<path d="M390.532 45.3603L405.581 41.0329L403.879 34.9097C404.987 35.2499 406.23 35.0601 407.212 34.2927C408.795 33.0427 409.072 30.7485 407.822 29.1663C406.571 27.5841 404.275 27.3072 402.692 28.5571C402.525 28.6916 402.367 28.834 402.232 28.9922L400.53 22.8928L394.165 24.6965C394.268 24.7993 394.363 24.9022 394.458 25.0209C395.709 26.6031 395.432 28.8973 393.849 30.1473C392.265 31.3972 389.969 31.1203 388.719 29.5381C387.998 28.6283 387.792 27.4812 388.038 26.4369L381.974 28.1537C381.974 28.1537 384.697 37.7973 386.154 42.4174C387.61 47.0375 390.532 45.3603 390.532 45.3603Z" stroke="#023EA1" stroke-width="0.957265" stroke-miterlimit="10"/>
<path d="M417.138 87.6061H87.4639V312.59H417.138V87.6061Z" fill="#0064B7"/>
<path d="M408.477 92.5506H96.125V303.318H408.477V92.5506Z" fill="white" stroke="#DCE8F5" stroke-width="0.957265" stroke-miterlimit="10"/>
<path d="M408.477 92.5506H96.125V298.374H408.477V92.5506Z" fill="white" stroke="#DCE8F5" stroke-width="0.957265" stroke-miterlimit="10"/>
<path d="M408.477 91.5067H96.125V293.003H408.477V91.5067Z" fill="white" stroke="#DCE8F5" stroke-width="0.957265" stroke-miterlimit="10"/>
<path d="M155.674 158.379H121.925C119.97 158.379 118.387 156.797 118.387 154.843V152.018C118.387 150.064 119.97 148.482 121.925 148.482H155.674C157.63 148.482 159.213 150.064 159.213 152.018V154.843C159.213 156.797 157.63 158.379 155.674 158.379Z" fill="#DCE8F5"/>
<path d="M197.181 131.252H180.247C179.289 131.252 178.514 130.477 178.514 129.52V128.135C178.514 127.178 179.289 126.403 180.247 126.403H197.181C198.139 126.403 198.915 127.178 198.915 128.135V129.52C198.923 130.477 198.139 131.252 197.181 131.252Z" fill="#DCE8F5"/>
<path d="M228.912 131.252H211.978C211.02 131.252 210.244 130.477 210.244 129.52V128.135C210.244 127.178 211.02 126.403 211.978 126.403H228.912C229.87 126.403 230.645 127.178 230.645 128.135V129.52C230.645 130.477 229.87 131.252 228.912 131.252Z" fill="#DCE8F5"/>
<path d="M260.459 131.252H243.526C242.568 131.252 241.792 130.477 241.792 129.52V128.135C241.792 127.178 242.568 126.403 243.526 126.403H260.459C261.417 126.403 262.193 127.178 262.193 128.135V129.52C262.193 130.477 261.417 131.252 260.459 131.252Z" fill="#DCE8F5"/>
<path d="M291.913 131.252H274.979C274.021 131.252 273.245 130.477 273.245 129.52V128.135C273.245 127.178 274.021 126.403 274.979 126.403H291.913C292.871 126.403 293.646 127.178 293.646 128.135V129.52C293.646 130.477 292.871 131.252 291.913 131.252Z" fill="#DCE8F5"/>
<path d="M323.634 131.252H306.701C305.743 131.252 304.967 130.477 304.967 129.52V128.135C304.967 127.178 305.743 126.403 306.701 126.403H323.634C324.592 126.403 325.368 127.178 325.368 128.135V129.52C325.376 130.477 324.592 131.252 323.634 131.252Z" fill="#DCE8F5"/>
<path d="M355.182 131.252H338.248C337.29 131.252 336.515 130.477 336.515 129.52V128.135C336.515 127.178 337.29 126.403 338.248 126.403H355.182C356.14 126.403 356.916 127.178 356.916 128.135V129.52C356.916 130.477 356.14 131.252 355.182 131.252Z" fill="#DCE8F5"/>
<path d="M386.635 131.252H369.702C368.744 131.252 367.968 130.477 367.968 129.52V128.135C367.968 127.178 368.744 126.403 369.702 126.403H386.635C387.593 126.403 388.369 127.178 388.369 128.135V129.52C388.369 130.477 387.593 131.252 386.635 131.252Z" fill="#DCE8F5"/>
<path d="M155.674 186.503H121.925C119.97 186.503 118.387 184.921 118.387 182.967V180.142C118.387 178.188 119.97 176.606 121.925 176.606H155.674C157.63 176.606 159.213 178.188 159.213 180.142V182.967C159.213 184.921 157.63 186.503 155.674 186.503Z" fill="#DCE8F5"/>
<path d="M155.674 215.244H121.925C119.97 215.244 118.387 213.662 118.387 211.708V208.883C118.387 206.929 119.97 205.347 121.925 205.347H155.674C157.63 205.347 159.213 206.929 159.213 208.883V211.708C159.213 213.662 157.63 215.244 155.674 215.244Z" fill="#DCE8F5"/>
<path d="M155.674 243.368H121.925C119.97 243.368 118.387 241.786 118.387 239.832V237.007C118.387 235.053 119.97 233.471 121.925 233.471H155.674C157.63 233.471 159.213 235.053 159.213 237.007V239.832C159.213 241.786 157.63 243.368 155.674 243.368Z" fill="#DCE8F5"/>
<path d="M155.674 272.726H121.925C119.97 272.726 118.387 271.144 118.387 269.19V266.366C118.387 264.412 119.97 262.829 121.925 262.829H155.674C157.63 262.829 159.213 264.412 159.213 266.366V269.19C159.213 271.144 157.63 272.726 155.674 272.726Z" fill="#DCE8F5"/>
<path d="M188.9 160.547C193.002 160.547 196.326 157.224 196.326 153.126C196.326 149.028 193.002 145.705 188.9 145.705C184.799 145.705 181.475 149.028 181.475 153.126C181.475 157.224 184.799 160.547 188.9 160.547Z" fill="#0064B7"/>
<path d="M220.448 160.547C224.549 160.547 227.874 157.224 227.874 153.126C227.874 149.028 224.549 145.705 220.448 145.705C216.347 145.705 213.022 149.028 213.022 153.126C213.022 157.224 216.347 160.547 220.448 160.547Z" fill="#0064B7"/>
<path d="M251.988 160.547C256.09 160.547 259.414 157.224 259.414 153.126C259.414 149.028 256.09 145.705 251.988 145.705C247.887 145.705 244.562 149.028 244.562 153.126C244.562 157.224 247.887 160.547 251.988 160.547Z" fill="#0064B7"/>
<path d="M315.076 160.547C319.177 160.547 322.502 157.224 322.502 153.126C322.502 149.028 319.177 145.705 315.076 145.705C310.975 145.705 307.65 149.028 307.65 153.126C307.65 157.224 310.975 160.547 315.076 160.547Z" stroke="#0064B7" stroke-width="0.957265" stroke-miterlimit="10"/>
<path d="M346.624 160.547C350.725 160.547 354.05 157.224 354.05 153.126C354.05 149.028 350.725 145.705 346.624 145.705C342.523 145.705 339.198 149.028 339.198 153.126C339.198 157.224 342.523 160.547 346.624 160.547Z" stroke="#0064B7" stroke-width="0.957265" stroke-miterlimit="10"/>
<path d="M378.164 160.547C382.265 160.547 385.59 157.224 385.59 153.126C385.59 149.028 382.265 145.705 378.164 145.705C374.063 145.705 370.738 149.028 370.738 153.126C370.738 157.224 374.063 160.547 378.164 160.547Z" stroke="#0064B7" stroke-width="0.957265" stroke-miterlimit="10"/>
<path d="M188.9 188.979C193.002 188.979 196.326 185.657 196.326 181.558C196.326 177.46 193.002 174.138 188.9 174.138C184.799 174.138 181.475 177.46 181.475 181.558C181.475 185.657 184.799 188.979 188.9 188.979Z" fill="#0064B7"/>
<path d="M220.448 188.979C224.549 188.979 227.874 185.657 227.874 181.558C227.874 177.46 224.549 174.138 220.448 174.138C216.347 174.138 213.022 177.46 213.022 181.558C213.022 185.657 216.347 188.979 220.448 188.979Z" stroke="#0064B7" stroke-width="0.957265" stroke-miterlimit="10"/>
<path d="M251.988 188.979C256.09 188.979 259.414 185.657 259.414 181.558C259.414 177.46 256.09 174.138 251.988 174.138C247.887 174.138 244.562 177.46 244.562 181.558C244.562 185.657 247.887 188.979 251.988 188.979Z" fill="#0064B7"/>
<path d="M283.536 188.979C287.637 188.979 290.962 185.657 290.962 181.558C290.962 177.46 287.637 174.138 283.536 174.138C279.435 174.138 276.11 177.46 276.11 181.558C276.11 185.657 279.435 188.979 283.536 188.979Z" stroke="#0064B7" stroke-width="0.957265" stroke-miterlimit="10"/>
<path d="M315.076 188.979C319.177 188.979 322.502 185.657 322.502 181.558C322.502 177.46 319.177 174.138 315.076 174.138C310.975 174.138 307.65 177.46 307.65 181.558C307.65 185.657 310.975 188.979 315.076 188.979Z" stroke="#0064B7" stroke-width="0.957265" stroke-miterlimit="10"/>
<path d="M346.624 188.979C350.725 188.979 354.05 185.657 354.05 181.558C354.05 177.46 350.725 174.138 346.624 174.138C342.523 174.138 339.198 177.46 339.198 181.558C339.198 185.657 342.523 188.979 346.624 188.979Z" stroke="#0064B7" stroke-width="0.957265" stroke-miterlimit="10"/>
<path d="M378.164 188.979C382.265 188.979 385.59 185.657 385.59 181.558C385.59 177.46 382.265 174.138 378.164 174.138C374.063 174.138 370.738 177.46 370.738 181.558C370.738 185.657 374.063 188.979 378.164 188.979Z" stroke="#0064B7" stroke-width="0.957265" stroke-miterlimit="10"/>
<path d="M188.9 217.412C193.002 217.412 196.326 214.089 196.326 209.991C196.326 205.893 193.002 202.57 188.9 202.57C184.799 202.57 181.475 205.893 181.475 209.991C181.475 214.089 184.799 217.412 188.9 217.412Z" fill="#0064B7"/>
<path d="M220.448 217.412C224.549 217.412 227.874 214.089 227.874 209.991C227.874 205.893 224.549 202.57 220.448 202.57C216.347 202.57 213.022 205.893 213.022 209.991C213.022 214.089 216.347 217.412 220.448 217.412Z" fill="#0064B7"/>
<path d="M251.988 217.412C256.09 217.412 259.414 214.089 259.414 209.991C259.414 205.893 256.09 202.57 251.988 202.57C247.887 202.57 244.562 205.893 244.562 209.991C244.562 214.089 247.887 217.412 251.988 217.412Z" stroke="#0064B7" stroke-width="0.957265" stroke-miterlimit="10"/>
<path d="M283.536 217.412C287.637 217.412 290.962 214.089 290.962 209.991C290.962 205.893 287.637 202.57 283.536 202.57C279.435 202.57 276.11 205.893 276.11 209.991C276.11 214.089 279.435 217.412 283.536 217.412Z" stroke="#0064B7" stroke-width="0.957265" stroke-miterlimit="10"/>
<path d="M315.076 217.412C319.177 217.412 322.502 214.089 322.502 209.991C322.502 205.893 319.177 202.57 315.076 202.57C310.975 202.57 307.65 205.893 307.65 209.991C307.65 214.089 310.975 217.412 315.076 217.412Z" stroke="#0064B7" stroke-width="0.957265" stroke-miterlimit="10"/>
<path d="M346.624 217.412C350.725 217.412 354.05 214.089 354.05 209.991C354.05 205.893 350.725 202.57 346.624 202.57C342.523 202.57 339.198 205.893 339.198 209.991C339.198 214.089 342.523 217.412 346.624 217.412Z" stroke="#0064B7" stroke-width="0.957265" stroke-miterlimit="10"/>
<path d="M378.164 217.412C382.265 217.412 385.59 214.089 385.59 209.991C385.59 205.893 382.265 202.57 378.164 202.57C374.063 202.57 370.738 205.893 370.738 209.991C370.738 214.089 374.063 217.412 378.164 217.412Z" stroke="#0064B7" stroke-width="0.957265" stroke-miterlimit="10"/>
<path d="M188.9 245.844C193.002 245.844 196.326 242.522 196.326 238.424C196.326 234.325 193.002 231.003 188.9 231.003C184.799 231.003 181.475 234.325 181.475 238.424C181.475 242.522 184.799 245.844 188.9 245.844Z" stroke="#0064B7" stroke-width="0.957265" stroke-miterlimit="10"/>
<path d="M220.448 245.844C224.549 245.844 227.874 242.522 227.874 238.424C227.874 234.325 224.549 231.003 220.448 231.003C216.347 231.003 213.022 234.325 213.022 238.424C213.022 242.522 216.347 245.844 220.448 245.844Z" fill="#0064B7"/>
<path d="M251.988 245.844C256.09 245.844 259.414 242.522 259.414 238.424C259.414 234.325 256.09 231.003 251.988 231.003C247.887 231.003 244.562 234.325 244.562 238.424C244.562 242.522 247.887 245.844 251.988 245.844Z" fill="#0064B7"/>
<path d="M283.536 245.844C287.637 245.844 290.962 242.522 290.962 238.424C290.962 234.325 287.637 231.003 283.536 231.003C279.435 231.003 276.11 234.325 276.11 238.424C276.11 242.522 279.435 245.844 283.536 245.844Z" stroke="#0064B7" stroke-width="0.957265" stroke-miterlimit="10"/>
<path d="M315.076 245.844C319.177 245.844 322.502 242.522 322.502 238.424C322.502 234.325 319.177 231.003 315.076 231.003C310.975 231.003 307.65 234.325 307.65 238.424C307.65 242.522 310.975 245.844 315.076 245.844Z" stroke="#0064B7" stroke-width="0.957265" stroke-miterlimit="10"/>
<path d="M346.624 245.844C350.725 245.844 354.05 242.522 354.05 238.424C354.05 234.325 350.725 231.003 346.624 231.003C342.523 231.003 339.198 234.325 339.198 238.424C339.198 242.522 342.523 245.844 346.624 245.844Z" stroke="#0064B7" stroke-width="0.957265" stroke-miterlimit="10"/>
<path d="M378.164 245.844C382.265 245.844 385.59 242.522 385.59 238.424C385.59 234.325 382.265 231.003 378.164 231.003C374.063 231.003 370.738 234.325 370.738 238.424C370.738 242.522 374.063 245.844 378.164 245.844Z" stroke="#0064B7" stroke-width="0.957265" stroke-miterlimit="10"/>
<path d="M188.9 274.894C193.002 274.894 196.326 271.572 196.326 267.473C196.326 263.375 193.002 260.053 188.9 260.053C184.799 260.053 181.475 263.375 181.475 267.473C181.475 271.572 184.799 274.894 188.9 274.894Z" fill="#0064B7"/>
<path d="M220.448 274.894C224.549 274.894 227.874 271.572 227.874 267.473C227.874 263.375 224.549 260.053 220.448 260.053C216.347 260.053 213.022 263.375 213.022 267.473C213.022 271.572 216.347 274.894 220.448 274.894Z" fill="#0064B7"/>
<path d="M251.988 274.894C256.09 274.894 259.414 271.572 259.414 267.473C259.414 263.375 256.09 260.053 251.988 260.053C247.887 260.053 244.562 263.375 244.562 267.473C244.562 271.572 247.887 274.894 251.988 274.894Z" fill="#0064B7" stroke="#0064B7" stroke-width="0.957265" stroke-miterlimit="10"/>
<path d="M283.536 274.894C287.637 274.894 290.962 271.572 290.962 267.473C290.962 263.375 287.637 260.053 283.536 260.053C279.435 260.053 276.11 263.375 276.11 267.473C276.11 271.572 279.435 274.894 283.536 274.894Z" stroke="#0064B7" stroke-width="0.957265" stroke-miterlimit="10"/>
<path d="M315.076 274.894C319.177 274.894 322.502 271.572 322.502 267.473C322.502 263.375 319.177 260.053 315.076 260.053C310.975 260.053 307.65 263.375 307.65 267.473C307.65 271.572 310.975 274.894 315.076 274.894Z" stroke="#0064B7" stroke-width="0.957265" stroke-miterlimit="10"/>
<path d="M346.624 274.894C350.725 274.894 354.05 271.572 354.05 267.473C354.05 263.375 350.725 260.053 346.624 260.053C342.523 260.053 339.198 263.375 339.198 267.473C339.198 271.572 342.523 274.894 346.624 274.894Z" stroke="#0064B7" stroke-width="0.957265" stroke-miterlimit="10"/>
<path d="M378.164 274.894C382.265 274.894 385.59 271.572 385.59 267.473C385.59 263.375 382.265 260.053 378.164 260.053C374.063 260.053 370.738 263.375 370.738 267.473C370.738 271.572 374.063 274.894 378.164 274.894Z" stroke="#0064B7" stroke-width="0.957265" stroke-miterlimit="10"/>
<path d="M144.52 108.001C147.082 108.001 149.159 105.925 149.159 103.365C149.159 100.805 147.082 98.7292 144.52 98.7292C141.958 98.7292 139.881 100.805 139.881 103.365C139.881 105.925 141.958 108.001 144.52 108.001Z" fill="#023EA1"/>
<path d="M171.12 108.001C173.682 108.001 175.759 105.925 175.759 103.365C175.759 100.805 173.682 98.7292 171.12 98.7292C168.557 98.7292 166.48 100.805 166.48 103.365C166.48 105.925 168.557 108.001 171.12 108.001Z" fill="#023EA1"/>
<path d="M198.33 108.001C200.892 108.001 202.969 105.925 202.969 103.365C202.969 100.805 200.892 98.7292 198.33 98.7292C195.767 98.7292 193.69 100.805 193.69 103.365C193.69 105.925 195.767 108.001 198.33 108.001Z" fill="#023EA1"/>
<path d="M224.929 108.001C227.491 108.001 229.568 105.925 229.568 103.365C229.568 100.805 227.491 98.7292 224.929 98.7292C222.367 98.7292 220.29 100.805 220.29 103.365C220.29 105.925 222.367 108.001 224.929 108.001Z" fill="#023EA1"/>
<path d="M252.764 108.001C255.326 108.001 257.403 105.925 257.403 103.365C257.403 100.805 255.326 98.7292 252.764 98.7292C250.202 98.7292 248.125 100.805 248.125 103.365C248.125 105.925 250.202 108.001 252.764 108.001Z" fill="#023EA1"/>
<path d="M279.356 108.001C281.918 108.001 283.995 105.925 283.995 103.365C283.995 100.805 281.918 98.7292 279.356 98.7292C276.794 98.7292 274.717 100.805 274.717 103.365C274.717 105.925 276.794 108.001 279.356 108.001Z" fill="#023EA1"/>
<path d="M306.574 108.001C309.136 108.001 311.213 105.925 311.213 103.365C311.213 100.805 309.136 98.7292 306.574 98.7292C304.012 98.7292 301.935 100.805 301.935 103.365C301.935 105.925 304.012 108.001 306.574 108.001Z" fill="#023EA1"/>
<path d="M333.174 108.001C335.736 108.001 337.813 105.925 337.813 103.365C337.813 100.805 335.736 98.7292 333.174 98.7292C330.612 98.7292 328.535 100.805 328.535 103.365C328.535 105.925 330.612 108.001 333.174 108.001Z" fill="#023EA1"/>
<path d="M361.001 108.001C363.564 108.001 365.641 105.925 365.641 103.365C365.641 100.805 363.564 98.7292 361.001 98.7292C358.439 98.7292 356.362 100.805 356.362 103.365C356.362 105.925 358.439 108.001 361.001 108.001Z" fill="#023EA1"/>
<path d="M145.05 103.674H143.989C143.261 103.674 142.667 103.08 142.667 102.352V77.1872C142.667 76.4594 143.261 75.8661 143.989 75.8661H145.05C145.778 75.8661 146.372 76.4594 146.372 77.1872V102.352C146.38 103.08 145.786 103.674 145.05 103.674Z" fill="#6E839D"/>
<path d="M171.65 103.674H170.59C169.861 103.674 169.268 103.08 169.268 102.352V77.1872C169.268 76.4594 169.861 75.8661 170.59 75.8661H171.65C172.379 75.8661 172.973 76.4594 172.973 77.1872V102.352C172.973 103.08 172.379 103.674 171.65 103.674Z" fill="#6E839D"/>
<path d="M198.859 103.674H197.799C197.07 103.674 196.477 103.08 196.477 102.352V77.1872C196.477 76.4594 197.07 75.8661 197.799 75.8661H198.859C199.588 75.8661 200.182 76.4594 200.182 77.1872V102.352C200.189 103.08 199.596 103.674 198.859 103.674Z" fill="#6E839D"/>
<path d="M225.46 103.674H224.399C223.671 103.674 223.077 103.08 223.077 102.352V77.1872C223.077 76.4594 223.671 75.8661 224.399 75.8661H225.46C226.188 75.8661 226.782 76.4594 226.782 77.1872V102.352C226.782 103.08 226.188 103.674 225.46 103.674Z" fill="#6E839D"/>
<path d="M253.295 103.674H252.234C251.506 103.674 250.912 103.08 250.912 102.352V77.1872C250.912 76.4594 251.506 75.8661 252.234 75.8661H253.295C254.023 75.8661 254.617 76.4594 254.617 77.1872V102.352C254.617 103.08 254.023 103.674 253.295 103.674Z" fill="#6E839D"/>
<path d="M279.887 103.674H278.826C278.098 103.674 277.504 103.08 277.504 102.352V77.1872C277.504 76.4594 278.098 75.8661 278.826 75.8661H279.887C280.615 75.8661 281.209 76.4594 281.209 77.1872V102.352C281.217 103.08 280.623 103.674 279.887 103.674Z" fill="#6E839D"/>
<path d="M307.105 103.674H306.044C305.315 103.674 304.722 103.08 304.722 102.352V77.1872C304.722 76.4594 305.315 75.8661 306.044 75.8661H307.105C307.833 75.8661 308.427 76.4594 308.427 77.1872V102.352C308.427 103.08 307.833 103.674 307.105 103.674Z" fill="#6E839D"/>
<path d="M333.696 103.674H332.636C331.907 103.674 331.313 103.08 331.313 102.352V77.1872C331.313 76.4594 331.907 75.8661 332.636 75.8661H333.696C334.425 75.8661 335.018 76.4594 335.018 77.1872V102.352C335.026 103.08 334.433 103.674 333.696 103.674Z" fill="#6E839D"/>
<path d="M361.531 103.674H360.471C359.742 103.674 359.148 103.08 359.148 102.352V77.1872C359.148 76.4594 359.742 75.8661 360.471 75.8661H361.531C362.26 75.8661 362.853 76.4594 362.853 77.1872V102.352C362.861 103.08 362.268 103.674 361.531 103.674Z" fill="#6E839D"/>
<path d="M287.772 147.042C284.312 149.756 279.84 153.253 276.594 155.737C277.655 158.545 280.354 160.539 283.537 160.539C287.638 160.539 290.962 157.216 290.962 153.118C290.955 150.602 289.696 148.379 287.772 147.042Z" stroke="#0064B7" stroke-width="0.957265" stroke-miterlimit="10"/>
<path d="M283.536 145.705C279.435 145.705 276.11 149.028 276.11 153.126C276.11 154.044 276.285 154.922 276.593 155.737C279.839 153.245 284.312 149.756 287.772 147.042C286.568 146.204 285.112 145.705 283.536 145.705Z" fill="#0064B7" stroke="#0064B7" stroke-width="0.957265" stroke-miterlimit="10"/>
<path d="M112.132 48.201H97.9616C97.732 48.201 97.542 48.383 97.542 48.6203V54.4508C97.542 54.5616 97.5895 54.6644 97.6607 54.7435L99.3312 56.4128C99.4103 56.4919 99.5132 56.5314 99.6241 56.5314H110.462C110.573 56.5314 110.676 56.484 110.755 56.4128L112.425 54.7435C112.504 54.6644 112.544 54.5616 112.544 54.4508V48.6203C112.552 48.3909 112.37 48.201 112.132 48.201ZM111.721 54.2768L110.296 55.7008H99.8062L98.3812 54.2768V49.0396H111.713V54.2768H111.721Z" fill="#003EB0"/>
<path d="M112.947 49.8704L97.1139 50.7011C96.8843 50.7169 96.7101 50.9068 96.718 51.1362C96.7259 51.3577 96.9159 51.5317 97.1376 51.5317C97.1455 51.5317 97.1534 51.5317 97.1614 51.5317L112.995 50.7011C113.224 50.6932 113.398 50.4954 113.391 50.266C113.375 50.0365 113.177 49.8546 112.947 49.8704Z" fill="#003EB0"/>
<path d="M112.947 52.3704L97.1139 53.2011C96.8843 53.2169 96.7101 53.4068 96.718 53.6362C96.7259 53.8577 96.9159 54.0318 97.1376 54.0318C97.1455 54.0318 97.1534 54.0318 97.1614 54.0318L112.995 53.2011C113.224 53.1932 113.398 52.9954 113.391 52.766C113.375 52.5366 113.177 52.3467 112.947 52.3704Z" fill="#003EB0"/>
<path d="M105.047 19.8874C97.2331 19.8874 90.876 26.24 90.876 34.0483C90.876 38.9611 93.3618 43.4309 97.5418 46.0415V48.6205C97.5418 48.85 97.7318 49.0398 97.9614 49.0398H112.132C112.362 49.0398 112.552 48.85 112.552 48.6205V46.0415C116.732 43.4309 119.218 38.969 119.218 34.0483C119.218 26.24 112.861 19.8874 105.047 19.8874ZM111.918 45.4482C111.792 45.5194 111.713 45.6618 111.713 45.8042V48.2013H98.381V45.8042C98.381 45.6618 98.3018 45.5194 98.1751 45.4482C94.1297 43.0116 91.7072 38.7475 91.7072 34.0404C91.7072 26.6909 97.6922 20.7181 105.039 20.7181C112.393 20.7181 118.371 26.6989 118.371 34.0404C118.386 38.7475 115.972 43.0116 111.918 45.4482Z" fill="#003EB0"/>
<path d="M108.989 55.7483C108.784 55.6455 108.538 55.7246 108.427 55.9303C108.396 55.9856 107.644 57.3701 105.047 57.3701C102.458 57.3701 101.698 55.9935 101.666 55.9303C101.564 55.7246 101.318 55.6455 101.112 55.7483C100.906 55.8511 100.819 56.1043 100.922 56.3021C100.962 56.3812 101.904 58.2008 105.047 58.2008C108.182 58.2008 109.132 56.3812 109.171 56.3021C109.274 56.0964 109.195 55.8511 108.989 55.7483Z" fill="#003EB0"/>
<path d="M87.1318 33.6287H78.7956C78.566 33.6287 78.376 33.8107 78.376 34.048C78.376 34.2774 78.566 34.4673 78.7956 34.4673H87.1318C87.3614 34.4673 87.5514 34.2774 87.5514 34.048C87.5514 33.8186 87.3614 33.6287 87.1318 33.6287Z" fill="#DE051F"/>
<path d="M131.307 33.6287H122.97C122.741 33.6287 122.551 33.8186 122.551 34.048C122.551 34.2774 122.741 34.4673 122.97 34.4673H131.307C131.536 34.4673 131.726 34.2774 131.726 34.048C131.718 33.8186 131.536 33.6287 131.307 33.6287Z" fill="#DE051F"/>
<path d="M89.8947 42.7897C89.7838 42.5919 89.5226 42.5207 89.3247 42.6394L82.1047 46.8006C81.9068 46.9193 81.8355 47.1725 81.9542 47.3702C82.0334 47.5047 82.168 47.5759 82.3184 47.5759C82.3897 47.5759 82.4609 47.5601 82.5243 47.5205L89.7443 43.3593C89.9422 43.2485 90.0134 42.9875 89.8947 42.7897Z" fill="#DE051F"/>
<path d="M128.148 20.718C128.029 20.5202 127.776 20.449 127.578 20.5677L120.358 24.7289C120.16 24.8476 120.088 25.1007 120.207 25.2985C120.286 25.433 120.421 25.5042 120.563 25.5042C120.635 25.5042 120.706 25.4884 120.769 25.4488L127.981 21.2876C128.195 21.1768 128.266 20.9237 128.148 20.718Z" fill="#DE051F"/>
<path d="M118.387 10.9635C118.189 10.8527 117.935 10.916 117.817 11.1138L113.652 18.3287C113.534 18.5265 113.605 18.7796 113.803 18.8983C113.866 18.9379 113.937 18.9537 114.009 18.9537C114.151 18.9537 114.294 18.8825 114.373 18.748L118.537 11.533C118.656 11.3353 118.585 11.0821 118.387 10.9635Z" fill="#DE051F"/>
<path d="M105.055 7.39557C104.826 7.39557 104.636 7.58544 104.636 7.81486V16.1453C104.636 16.3747 104.826 16.5645 105.055 16.5645C105.285 16.5645 105.475 16.3747 105.475 16.1453V7.81486C105.467 7.58544 105.285 7.39557 105.055 7.39557Z" fill="#DE051F"/>
<path d="M96.458 18.3288L92.2938 11.1217C92.183 10.924 91.9217 10.8528 91.7238 10.9714C91.5259 11.0901 91.4546 11.3432 91.5734 11.541L95.7376 18.756C95.8167 18.8904 95.9513 18.9616 96.1017 18.9616C96.173 18.9616 96.2442 18.9458 96.3076 18.9063C96.4976 18.7797 96.5688 18.5265 96.458 18.3288Z" fill="#DE051F"/>
<path d="M127.997 46.8005L120.777 42.6393C120.579 42.5285 120.326 42.5918 120.207 42.7896C120.088 42.9874 120.16 43.2405 120.358 43.3592L127.578 47.5204C127.641 47.56 127.712 47.5758 127.783 47.5758C127.926 47.5758 128.068 47.5046 128.148 47.3701C128.266 47.1724 128.195 46.9192 127.997 46.8005Z" fill="#DE051F"/>
<path d="M89.7443 24.7288L82.5243 20.5676C82.3263 20.4568 82.073 20.5201 81.9542 20.7179C81.8355 20.9157 81.9068 21.1688 82.1047 21.2875L89.3247 25.4487C89.388 25.4883 89.4593 25.5041 89.5305 25.5041C89.673 25.5041 89.8155 25.4329 89.8947 25.2984C90.0134 25.1006 89.9422 24.8475 89.7443 24.7288Z" fill="#DE051F"/>
<path d="M106.267 48.2009V34.7678C106.267 34.7678 106.077 28.431 109.537 28.431C112.996 28.431 111.397 35.021 104.731 35.021" stroke="#003EB0" stroke-width="0.957265" stroke-miterlimit="10"/>
<path d="M103.187 48.2011V34.768C103.187 34.768 103.377 28.4312 99.9177 28.4312C96.4581 28.4312 98.0573 35.0212 104.723 35.0212" stroke="#003EB0" stroke-width="0.957265" stroke-miterlimit="10"/>
<path d="M117.627 290.709C117.627 290.709 122.021 288.921 121.696 283.873C121.371 278.826 118.767 275.25 124.142 276.714C129.518 278.177 131.323 278.826 135.226 278.019C139.128 277.204 142.374 275.575 140.672 280.622C138.962 285.669 137.126 289.894 141.139 290.709C145.153 291.523 149.468 288.486 149.99 296.381C150.513 304.284 144.132 313.16 133.816 313.485C123.501 313.809 118.941 309.537 118.941 309.537C118.941 309.537 116.17 305.637 120.485 304.68C124.799 303.722 129.193 301.895 127 299.878C124.807 297.86 117.635 297.702 117.635 297.702C117.635 297.702 108.673 295.922 117.627 290.709Z" fill="#649EEA"/>
<path d="M164.778 292.014C164.05 286.982 164.612 283.351 173.978 281.99C183.343 280.63 188.798 286.239 189.368 292.014C189.938 297.789 181.799 299.885 181.799 299.885C181.799 299.885 176.02 301.531 178.949 306.578C181.878 311.625 183.208 316.506 176.558 317.234C169.908 317.97 162.633 316.214 158.572 313.508C154.518 310.803 150.362 303.967 155.009 300.391C155.009 300.391 156.316 299.498 160.788 299.252C165.261 299.007 164.778 292.014 164.778 292.014Z" fill="#023EA1"/>
<path d="M131.829 291.199C131.829 291.199 139.603 308.769 140.664 320.731" stroke="#023EA1" stroke-width="0.957265" stroke-miterlimit="10"/>
<path d="M175.062 294.078C175.062 294.078 161.303 314.497 158.049 321.332" stroke="#649EEA" stroke-width="0.957265" stroke-miterlimit="10"/>
<path d="M135.867 319.354H167.454C167.454 319.354 170.914 319.6 170.629 324.315C170.367 328.658 164.85 327.724 162 327.724C159.15 327.724 135.186 327.724 135.186 327.724C135.186 327.724 131.307 328.389 131.307 323.99C131.307 319.592 132.771 319.354 135.867 319.354Z" fill="#0054A5"/>
<path d="M135.186 327.724L139.975 355.611H161.184L164.778 334.678L135.225 327.724H135.186Z" fill="#0054A5"/>
<path d="M135.226 327.724L164.779 334.678L165.974 327.724H135.226Z" fill="#006AD5"/>
<path d="M148.811 320.407C148.811 320.407 150.41 289.459 159.641 270.045" stroke="#FCBE42" stroke-width="0.957265" stroke-miterlimit="10"/>
<path d="M167.24 258.874C167.24 258.874 168 268.375 158.722 272.086C158.722 272.086 156.711 263.969 167.24 258.874Z" fill="#FCBE42"/>
<path d="M153.323 289.111C153.323 289.111 156.743 281.002 167.257 282.093C167.257 282.086 166.433 290.163 153.323 289.111Z" fill="#FCBE42"/>
<path d="M149.863 309.497C149.863 309.497 151.629 300.882 162.158 299.893C162.158 299.885 162.934 307.97 149.863 309.497Z" fill="#FCBE42"/>
<path d="M149.499 309.553C149.499 309.553 150.718 300.843 141.131 296.389C141.131 296.389 137.695 303.738 149.499 309.553Z" fill="#FCBE42"/>
<path d="M153.434 289.047C153.434 289.047 155.754 280.558 146.816 274.926C146.816 274.926 142.469 281.785 153.434 289.047Z" fill="#FCBE42"/>
<path d="M365.514 195.055L374.38 204.58C374.38 204.58 377.436 207.894 374.38 210.853C371.325 213.82 369.211 215.948 369.211 215.948L365.514 195.055Z" fill="#FFBF99"/>
<path d="M288.302 156.504L285.151 154.004C285.151 154.004 284.629 153.529 284.114 153.751C283.599 153.972 283.56 154.51 284.344 155.104C285.119 155.705 287.455 157.612 287.455 157.612L288.302 156.504Z" fill="#0064B7"/>
<path d="M288.769 155.286L286.449 158.323L298.443 173.75L306.676 162.5L288.769 155.286Z" fill="#649EEA"/>
<path d="M306.677 162.501L334.63 183.607C332.501 186.527 329.097 191.471 326.793 194.857L298.443 173.75L306.677 162.501Z" fill="#0064B7"/>
<path d="M326.793 194.857C329.097 191.471 332.501 186.518 334.63 183.607L369.084 209.619L363.431 222.126L326.793 194.857Z" fill="#649EEA"/>
<path d="M375.591 214.54L376.509 215.236C376.509 215.236 377.997 216.335 376.77 217.878C375.266 219.769 371.039 225.924 371.039 225.924C371.039 225.924 370.049 227.316 369.265 226.715C368.489 226.106 366.669 224.547 366.669 224.547L363.431 222.142L369.083 209.635L375.591 214.54Z" fill="#0064B7"/>
<path d="M348.128 238.535L361.135 346.671L370.437 345.77L371.775 235.718L348.128 238.535Z" fill="#0064E1"/>
<path d="M362.299 238.535L337.868 346.671L328.566 345.77L334.963 235.718L362.299 238.535Z" fill="#003EB0"/>
<path d="M354.264 170.934C354.264 170.934 355.063 175.435 356.757 179.952C358.451 184.47 359.306 186.281 359.306 186.281C359.306 186.281 353.789 192.436 348.429 191.423C343.069 190.411 343.149 186.827 343.149 186.827C343.149 186.827 348.168 182.903 348.286 177.532C348.405 172.16 348.405 172.16 348.405 172.16L354.264 170.934Z" fill="#FFBF99"/>
<path d="M343.331 158.6C343.331 158.6 340.56 162.121 340.425 168.394C340.291 174.668 341.09 179.161 343.774 179.225C346.466 179.28 351.881 177.611 352.815 175.839C353.749 174.067 355.546 174.106 355.625 170.522C355.705 166.939 351.398 158.782 347.812 158.703C344.225 158.616 343.331 158.6 343.331 158.6Z" fill="#FFBF99"/>
<path d="M340.639 158.537C340.639 158.537 338.105 151.314 339.918 150.452C341.731 149.598 345.278 151.465 346.157 152.382C347.035 153.3 348.825 153.34 349.719 153.355C349.719 153.355 358.681 153.553 360.438 155.381C362.196 157.208 362.172 158.11 362.156 159.004C362.14 159.898 362.069 163.41 362.916 165.293C363.28 166.108 363.716 169.795 361.847 173.339C359.979 176.883 358.166 177.738 357.264 177.722C356.369 177.706 355.562 177.682 355.49 176.788C355.419 175.815 355.095 174.447 354.675 173.189C354.271 171.986 353.86 169.589 353.86 169.589C353.86 169.589 353.06 165.088 351.31 163.26C349.553 161.433 349.553 161.433 345.99 160.452C342.412 159.479 341.478 161.251 340.639 158.537Z" fill="#170856"/>
<path d="M352.585 165.341C351.224 166.836 352.957 169.566 352.957 169.566C352.957 169.566 355.625 170.523 355.689 167.833C355.752 165.143 353.947 163.846 352.585 165.341Z" fill="#FFBF99"/>
<path d="M370.429 352.818C370.429 352.818 370.952 354.282 367.936 354.258C364.919 354.234 348.508 354.084 348.508 354.084C348.508 354.084 345.349 353.427 348.286 352.035C351.223 350.65 360.019 346.79 360.019 346.79C360.019 346.79 360.684 346.616 360.692 344.931L370.643 345.018L370.429 352.818Z" fill="#170856"/>
<path d="M338.367 352.818C338.367 352.818 338.889 354.282 335.873 354.258C332.857 354.234 316.446 354.084 316.446 354.084C316.446 354.084 313.287 353.427 316.224 352.035C319.161 350.65 327.956 346.79 327.956 346.79C327.956 346.79 328.621 346.616 328.629 344.931L338.581 345.018L338.367 352.818Z" fill="#170856"/>
<path d="M347.535 184.541C347.535 184.541 346.561 183.742 345.445 184.628C344.328 185.514 340.449 188.37 338.549 192.073C336.649 195.775 336.008 200.886 335.359 212.839C334.71 224.793 334.813 237.72 334.813 237.72L371.878 238.527C371.878 238.527 373.05 216.787 369.559 203.417C366.068 190.047 360.835 185.404 359.671 184.818C358.507 184.241 357.343 185.396 357.343 185.396C357.343 185.396 352.253 190.071 347.535 184.541Z" fill="#FCBE42"/>
<path d="M332.231 195.846L324.061 204.683C324.061 204.683 323.38 206.044 322.019 204.002C320.657 201.961 315.21 192.444 315.21 189.723C315.21 187.001 315.21 184.96 314.53 183.6C313.849 182.239 312.487 180.198 312.487 180.198C312.487 180.198 311.125 178.157 311.125 179.518C311.125 180.878 311.125 182.919 310.445 182.919C309.764 182.919 305.679 178.837 305.679 178.837C305.679 178.837 305.679 185.641 307.04 186.321C308.402 187.001 310.445 188.362 310.445 190.403C310.445 192.444 316.572 210.126 317.934 212.847C319.295 215.569 322.019 215.569 324.742 214.208C327.465 212.847 339.032 203.33 339.032 203.33L332.231 195.846Z" fill="#FFBF99"/>
<path d="M330.086 196.146C330.086 196.146 342.333 184.588 347.78 188.663C353.226 192.745 338.256 206.344 338.256 206.344C338.256 206.344 330.767 198.86 330.086 196.146Z" fill="#F79F03"/>
</svg>
