<svg width="500" height="370" viewBox="0 0 500 370" fill="none" xmlns="http://www.w3.org/2000/svg">
<path d="M459.944 59.587C459.944 59.587 460.091 52.5536 466.212 52.7492C472.332 52.9448 477.573 60.4753 474.965 64.6807C472.357 68.886 468.208 68.5274 469.953 72.1786C471.697 75.8298 474.981 86.5713 469.496 87.8998C464.011 89.2282 460.148 84.1264 456.179 90.1655C452.21 96.2045 458.787 107.663 447.125 107.24C435.454 106.816 415.617 101.217 424.264 85.6178C432.911 70.0189 440.434 86.0497 443.449 72.5535C446.464 59.0572 451.257 65.2919 456.049 64.7948C460.833 64.3139 459.944 59.587 459.944 59.587Z" fill="#023EA1"/>
<path d="M461.126 71.5917C461.126 71.5917 446.424 82.9609 437.598 97.1091C428.771 111.257 429.228 115.732 429.228 115.732" stroke="white" stroke-width="1.04486" stroke-miterlimit="10" stroke-linecap="round" stroke-linejoin="round"/>
<path d="M417.589 131.119C417.589 131.119 455.934 112.431 475.567 90.2875" stroke="#EE384E" stroke-width="1.04486" stroke-miterlimit="10"/>
<path d="M485.633 74.6557C485.633 74.6557 473.188 78.804 473.482 92.5611C473.482 92.5529 484.843 90.7355 485.633 74.6557Z" stroke="#EE384E" stroke-width="1.04486" stroke-miterlimit="10"/>
<path d="M454.818 108.559C454.818 108.559 463.245 99.8635 456.212 87.1414C456.212 87.1333 446.423 92.5285 454.818 108.559Z" stroke="#EE384E" stroke-width="1.04486" stroke-miterlimit="10"/>
<path d="M430.849 123.914C430.849 123.914 440.817 117.035 436.407 103.18C436.407 103.18 425.756 106.554 430.849 123.914Z" stroke="#EE384E" stroke-width="1.04486" stroke-miterlimit="10"/>
<path d="M430.979 124.403C430.979 124.403 441.362 118.168 452.16 127.907C452.16 127.907 444.687 136.22 430.979 124.403Z" stroke="#EE384E" stroke-width="1.04486" stroke-miterlimit="10"/>
<path d="M454.834 108.389C454.834 108.389 464.337 100.883 476.285 109.163C476.285 109.163 469.936 118.356 454.834 108.389Z" stroke="#EE384E" stroke-width="1.04486" stroke-miterlimit="10"/>
<path d="M307.1 259.216H237.766V333.503H307.1V259.216Z" fill="#023EA1"/>
<path opacity="0.3" d="M306.684 269.156H237.816V288.38H306.684V269.156Z" fill="#1F3C88"/>
<path d="M272.227 298.269C282.391 298.269 290.63 290.03 290.63 279.866C290.63 269.703 282.391 261.463 272.227 261.463C262.064 261.463 253.824 269.703 253.824 279.866C253.824 290.03 262.064 298.269 272.227 298.269Z" fill="white"/>
<path d="M436.588 54.9279H107.868C104.854 54.9279 102.41 57.3713 102.41 60.3854V273.344C102.41 276.358 104.854 278.802 107.868 278.802H436.588C439.602 278.802 442.046 276.358 442.046 273.344V60.3854C442.046 57.3713 439.602 54.9279 436.588 54.9279Z" fill="#0064B7"/>
<path d="M430.67 63.3977H113.828V265.986H430.67V63.3977Z" fill="white"/>
<path d="M343.267 333.503H200.766V347.183H343.267V333.503Z" fill="#0064B7"/>
<path d="M198.415 165.079L204.534 120.89C201.652 120.313 198.658 120.003 195.599 120.003C170.611 120.003 150.367 140.246 150.367 165.234C150.367 190.222 170.611 210.466 195.599 210.466C220.587 210.466 240.83 190.222 240.83 165.234C240.83 163.594 240.742 161.975 240.564 160.379L198.415 165.079Z" fill="white" stroke="#0064B7" stroke-width="2.77243" stroke-miterlimit="10"/>
<path d="M248.103 152.397C245.996 132.686 231.207 116.744 212.073 112.908L205.953 157.097L248.103 152.397Z" fill="white" stroke="#EE384E" stroke-width="2.77243" stroke-miterlimit="10"/>
<path d="M183.714 180.844C183.714 178.893 184.911 177.651 186.596 177.651C188.281 177.651 189.456 178.871 189.456 180.844C189.456 182.818 188.281 184.037 186.596 184.037C184.911 184.037 183.714 182.795 183.714 180.844ZM187.816 180.844C187.816 179.603 187.328 179.004 186.596 179.004C185.887 179.004 185.377 179.625 185.377 180.844C185.377 182.064 185.865 182.685 186.596 182.685C187.328 182.685 187.816 182.086 187.816 180.844ZM193.514 177.784H195.487L187.572 189.381H185.599L193.514 177.784ZM191.607 186.321C191.607 184.37 192.805 183.128 194.467 183.128C196.153 183.128 197.35 184.37 197.35 186.321C197.35 188.272 196.153 189.514 194.467 189.514C192.782 189.514 191.607 188.272 191.607 186.321ZM195.665 186.321C195.665 185.101 195.177 184.48 194.445 184.48C193.736 184.48 193.226 185.079 193.226 186.321C193.226 187.562 193.714 188.161 194.445 188.161C195.199 188.161 195.665 187.54 195.665 186.321Z" fill="#0064B7"/>
<path d="M389.695 122.819H274.311V207.939H389.695V122.819Z" fill="white" stroke="#0064B7" stroke-width="2.77243" stroke-miterlimit="10"/>
<path d="M293.203 177.23H285.664V191.176H293.203V177.23Z" fill="#DCE8F4"/>
<path d="M307.392 160.18H299.854V191.177H307.392V160.18Z" fill="#DCE8F4"/>
<path d="M321.583 144.061H314.044V191.177H321.583V144.061Z" fill="#DCE8F4"/>
<path d="M335.773 156.234H328.234V191.177H335.773V156.234Z" fill="#DCE8F4"/>
<path d="M349.963 153.351H342.425V191.177H349.963V153.351Z" fill="#DCE8F4"/>
<path d="M364.154 153.95H356.615V191.177H364.154V153.95Z" fill="#DCE8F4"/>
<path d="M378.344 137.564H370.806V191.177H378.344V137.564Z" fill="#DCE8F4"/>
<path d="M289.278 186.366L288.613 185.789L303.735 168.672L318.923 158.251L332.182 169.958L342.071 160.624L342.692 161.267L332.182 171.156L318.834 159.36L304.311 169.337L289.278 186.366Z" fill="#0064B7"/>
<path d="M335.862 75.7255H211.564V89.7384H335.862V75.7255Z" fill="#DCE8F4"/>
<path d="M376.592 103.729H169.946V105.68H376.592V103.729Z" fill="#DCE8F4"/>
<path d="M376.592 97.9639H169.946V99.9151H376.592V97.9639Z" fill="#DCE8F4"/>
<path d="M376.592 238.093H169.946V240.044H376.592V238.093Z" fill="#DCE8F4"/>
<path d="M376.592 244.013H169.946V245.964H376.592V244.013Z" fill="#DCE8F4"/>
<path d="M376.592 249.911H169.946V251.862H376.592V249.911Z" fill="#DCE8F4"/>
<path d="M218.215 217.939H171.21V223.992H218.215V217.939Z" fill="#DCE8F4"/>
<path d="M355.505 217.939H308.5V223.992H355.505V217.939Z" fill="#DCE8F4"/>
<path d="M5 347.122L494.054 347.122" stroke="#DCE8F4" stroke-width="2.18301" stroke-miterlimit="10"/>
<path d="M454.25 277.371C454.25 277.371 476.202 278.663 466.641 279.941C457.08 281.233 443.921 281.233 439.269 280.707C434.631 280.196 450.636 277.626 454.25 277.371Z" fill="#023EA1"/>
<path d="M455.77 280.271L456.087 341.42C456.087 341.42 465.587 341.661 467.273 343.885C468.96 346.109 467.002 347.507 457.231 347.266C447.459 347.026 441.587 347.056 441.587 347.056C441.587 347.056 436.829 346.515 442.415 343.705C448.001 340.894 452.473 341.706 452.473 341.706L452.789 280.346L455.77 280.271Z" fill="#023EA1"/>
<path d="M449.839 184.843C449.839 184.843 452.504 177.434 445.954 175.465C445.954 175.465 444.057 164.299 435.144 169.349C434.466 169.725 433.699 169.785 433.006 169.439C430.642 168.267 425.403 162.601 421.774 171.288C421.488 171.964 420.795 172.234 420.163 172.264C417.483 172.37 411.024 173.421 416.324 181.401C416.324 181.401 418.778 184.362 422.873 184.602C422.873 184.602 441.889 197.677 447.415 195.468C452.91 193.228 452.7 187.307 449.839 184.843Z" fill="#2C2477"/>
<path d="M431.694 181.071C431.423 180.981 421.305 177.735 422.901 186.736V186.751C422.886 186.992 422.6 195.062 429.074 199.706C429.165 199.766 429.255 199.841 429.33 199.931C429.737 200.367 431.498 201.915 434.344 199.33C436.979 196.941 437.852 198.594 438.138 199.285C438.213 199.465 438.319 199.661 438.409 199.826C438.816 200.562 440.065 202.321 439.237 203.523C438.364 204.785 437.265 206.348 436.979 206.769C436.949 206.814 436.979 206.874 437.024 206.874C438.499 206.784 453.3 205.822 452.938 202.546C452.938 202.546 452.05 198.924 452.05 198.909L451.779 198.849C451.734 198.834 451.689 198.819 451.644 198.789L447.021 195.393C447.006 195.393 447.006 195.378 446.991 195.378C446.69 195.408 442.248 195.798 440.668 193.89C440.668 193.89 438.695 191.636 437.777 188.72C437.506 187.849 437.641 186.872 438.153 186.18C438.921 185.159 439.734 183.295 437.807 181.973C437.807 181.973 436.301 180.86 434.931 182.529L434.75 182.754C434.615 182.919 434.419 182.949 434.254 182.829L431.694 181.071C431.709 181.071 431.709 181.071 431.694 181.071Z" fill="#FFBF9C"/>
<path d="M452.079 198.91C452.079 198.91 445.334 205.161 437.671 205.868C437.671 205.868 433.485 210.511 432.868 220.64C432.25 230.769 431.844 253.462 432.461 254.934C433.078 256.407 469.063 256.167 469.063 256.167C469.063 256.167 466.398 219.393 462.107 211.744C462.107 211.744 455.768 200.638 452.079 198.91Z" fill="#FCBE42"/>
<path d="M455.318 226.305C455.318 226.305 454.701 239.876 453.481 244.82C452.261 249.749 451.644 251.973 446.525 252.71C441.406 253.446 427.915 254.438 425.265 253.942C422.6 253.446 414.018 255.64 414.018 255.64C414.018 255.64 411.353 256.376 411.158 254.648C410.962 252.92 408.086 254.408 407.89 255.144C407.68 255.881 406.249 256.872 405.843 254.904C405.436 252.935 405.632 250.455 409.11 249.719C412.588 248.983 415.855 249.719 419.544 250.005C422.826 250.26 425.025 249.238 425.672 249.238L442.234 245.541C442.234 245.541 444.282 244.805 444.688 241.844C445.095 238.884 445.095 226.05 445.095 226.05L455.318 226.305Z" fill="#FFBF9C"/>
<path d="M456.959 227.778H443.906C443.755 218.16 444.673 209.023 449.808 209.008C449.808 209.023 456.959 207.4 456.959 227.778Z" fill="#F79F03"/>
<path d="M395.65 274.17C395.65 274.17 391.856 296.862 391.344 302.573C390.817 308.224 388.092 326.483 388.092 326.483L396.478 326.242L403.63 295.149L395.65 274.17Z" fill="#DE051F"/>
<path d="M468.883 253.777C469.033 254.799 469.937 270.067 468.446 273.929C467.091 277.461 463.538 278.618 457.199 279.114C451.839 279.535 424.06 278.107 415.629 277.626C414.484 277.566 413.656 278.904 414.018 280.196L426.514 324.514L419.152 328.466C419.152 328.466 402.183 297.373 399.518 289.964C396.853 282.555 393.18 269.736 393.39 266.761C393.39 266.761 392.773 261.08 399.112 260.344C405.33 259.623 425.144 255.805 425.882 255.655C425.897 255.655 425.912 255.655 425.927 255.655L432.431 254.919C432.447 254.919 432.462 254.919 432.477 254.919L468.883 253.777Z" fill="#EE384E"/>
<path d="M425.371 254.047C425.928 253.927 427.78 254.032 427.764 255.415C427.749 256.677 425.506 256.842 425.099 256.903C424.783 256.948 399.429 260.599 397.787 260.84C397.742 260.855 397.682 260.855 397.637 260.87C397.215 260.96 394.897 261.336 393.406 258.886C391.855 256.316 379.509 237.622 378.184 235.623C378.124 235.533 378.064 235.443 377.988 235.352C377.732 235.037 377.01 233.97 377.868 232.737C378.892 231.25 380.533 233.729 380.533 233.729L395.424 257.308C395.77 257.849 396.237 258.255 396.779 258.42H396.794C397.02 258.481 397.245 258.496 397.471 258.45" fill="#023EA1"/>
<path d="M388.151 326.197C388.136 326.197 388.106 326.197 388.091 326.212C387.639 326.633 380.804 332.945 377.251 334.372C376.904 334.508 376.573 334.658 376.242 334.808C375.971 334.928 375.715 335.064 375.459 335.214C375.263 335.334 375.067 335.455 374.872 335.59C374.736 335.695 374.601 335.8 374.465 335.92C374.375 336.011 374.284 336.101 374.194 336.206C374.134 336.281 374.089 336.356 374.044 336.446C374.013 336.506 373.983 336.567 373.968 336.627C373.953 336.702 373.953 336.762 373.968 336.837C373.968 336.912 373.968 336.972 373.968 337.047C373.968 337.123 373.968 337.198 373.968 337.273C373.968 337.303 373.998 337.333 374.029 337.333L396.598 334.403C396.658 334.387 396.718 334.372 396.764 334.342C397.004 334.177 397.652 333.576 397.486 332.178C397.306 330.6 396.598 326.934 396.478 326.332C396.462 326.287 396.432 326.257 396.387 326.242L388.151 326.197Z" fill="#2B2377"/>
<path d="M419.167 328.466C419.167 328.466 415.283 338.34 412.618 340.564C410.585 342.262 411.187 343.675 411.579 344.246C411.699 344.426 411.895 344.516 412.091 344.486C412.573 344.426 413.627 344.171 414.665 343.284C416.096 342.052 430.204 331.682 430.204 331.682C430.204 331.682 430.821 330.195 429.797 328.722C428.773 327.234 426.53 324.529 426.53 324.529L419.167 328.466Z" fill="#2B2377"/>
<path d="M56.9492 209.493L64.5015 338.349H75.8299C75.8299 338.349 78.4954 299.064 79.1617 287.39C79.8281 275.942 84.4927 210.167 84.4927 210.167L56.9492 209.493Z" fill="#DE051F"/>
<path d="M71.6043 209.269C72.4928 226.779 67.1618 257.534 60.498 278.187C53.6122 298.84 34.0651 333.86 34.0651 333.86L24.958 328.472C24.958 328.472 30.289 314.554 34.0651 301.533C37.6191 288.962 44.0608 260.003 43.6165 251.697C42.9501 243.166 41.6174 210.167 41.6174 210.167L71.6043 209.269Z" fill="#EE384E"/>
<path d="M82.9336 170.432L83.3778 173.351C83.3778 173.351 91.8186 182.555 95.5947 185.922C99.3708 189.514 105.146 186.146 105.146 186.146C105.146 186.146 122.028 176.718 124.249 175.147C126.692 173.575 127.803 173.8 127.803 173.8C127.803 173.8 129.358 173.8 131.357 173.8C132.912 173.8 132.467 172.677 132.467 172.677C132.467 172.677 132.467 168.861 132.467 166.392C132.467 163.922 130.246 163.922 130.246 163.922L126.692 163.698C126.692 163.698 126.914 161.453 126.47 160.779C126.026 160.106 125.359 159.657 124.471 159.657C123.36 159.657 124.027 160.555 124.027 160.555C124.027 160.555 124.027 161.004 124.471 162.126C124.693 163.249 124.249 163.249 123.805 163.698C123.36 164.147 123.138 164.596 122.694 166.616C122.25 168.636 119.806 169.759 119.806 169.759C119.806 169.759 103.369 175.82 101.592 176.269C100.037 176.718 99.1487 175.82 99.1487 175.82L90.4858 163.922L82.9336 170.432Z" fill="#FFBF99"/>
<path d="M69.1641 134.065C69.1641 134.065 69.1641 134.065 69.1641 140.35C69.1641 146.636 75.1614 151.35 75.1614 151.35C75.1614 151.35 75.1614 155.391 68.9419 156.738C62.7224 157.86 56.5029 150.452 56.5029 150.452C56.5029 150.452 57.3914 148.207 59.3906 143.044C61.3897 137.656 62.2782 132.718 62.2782 132.718L69.1641 134.065Z" fill="#FFBF99"/>
<path d="M76.9358 165.269L82.9332 172.228L91.5961 163.698C91.5961 163.698 85.3766 156.29 83.1553 154.494C80.9341 152.922 75.8252 149.779 75.8252 149.779L76.9358 165.269Z" fill="#0064B7"/>
<path d="M55.8389 147.31C55.8389 147.31 54.7283 148.432 49.8415 154.493C45.399 160.555 40.7344 189.289 40.7344 189.289L41.1786 211.064H84.2709C84.2709 211.064 84.7151 196.024 84.2709 182.105C83.8266 168.412 83.1603 162.126 80.939 157.861C78.7178 153.595 76.4965 150.677 74.9416 149.555C73.831 148.432 72.4983 149.33 72.4983 149.33L71.6098 150.677C71.6098 150.677 69.6106 154.044 65.3903 152.922C60.9478 152.024 58.0601 147.534 58.0601 147.534C56.9495 145.963 55.8389 147.31 55.8389 147.31Z" fill="#0083F9"/>
<path d="M70.0548 118.126C65.6123 118.126 60.7256 127.555 60.7256 131.596C60.7256 135.636 62.7247 135.636 63.6132 137.881C64.5017 140.126 70.9433 142.371 73.831 142.371C76.7186 142.371 78.2735 136.983 78.2735 129.8C78.2735 122.616 74.9416 117.902 74.9416 117.902C74.9416 117.902 73.831 118.126 70.0548 118.126Z" fill="#FFBF99"/>
<path d="M71.8268 120.371C67.8286 121.269 67.3843 121.269 65.6073 123.289C63.6082 125.31 62.7197 130.698 62.7197 130.698C62.7197 130.698 62.2036 133.84 61.7594 135.412C61.093 136.759 61.2136 138.975 60.4984 139.677C60.2763 140.8 59.3878 140.8 58.2772 140.8C57.3887 140.8 55.3896 139.677 52.9462 135.412C50.7249 130.922 51.6134 126.657 51.8355 125.983C52.9462 123.738 52.9462 119.698 52.9462 118.575C52.9462 117.453 52.9462 116.33 55.1674 114.085C57.1666 111.841 67.6064 111.841 67.6064 111.841C68.7171 111.841 70.9383 111.841 72.0489 110.718C73.1596 109.596 77.3799 107.351 79.3791 108.473C81.3782 109.596 78.4906 117.902 78.4906 117.902C77.1578 121.494 76.2693 119.024 71.8268 120.371Z" fill="#1A1155"/>
<path d="M60.7256 128.677C60.7256 132.045 63.6132 130.922 63.6132 130.922C63.6132 130.922 65.6123 127.555 64.0575 125.984C62.7247 123.963 60.7256 125.535 60.7256 128.677Z" fill="#EEBD98"/>
<path d="M56.9495 173.35C56.9495 173.35 53.3955 176.942 50.9521 187.493C48.0645 198.269 50.5079 212.411 52.2849 219.37C54.5061 226.554 56.9495 230.37 59.1708 232.615C61.392 234.86 59.1708 234.86 56.7274 233.513C54.284 232.166 56.061 234.636 56.061 234.636C56.061 234.636 58.9486 236.207 60.5035 238.227C61.8363 239.799 59.8371 239.799 59.8371 239.799C60.5035 240.921 58.7265 240.921 58.7265 240.921C59.1708 243.166 56.5053 242.044 56.5053 242.044C56.5053 242.044 54.9504 240.921 52.7291 238.676C50.5079 236.432 48.953 232.391 48.953 228.799C48.7309 225.207 47.8424 223.411 45.399 218.024C43.1777 211.962 40.5122 204.105 39.6237 194.452C38.9574 185.024 42.9556 169.759 42.9556 169.759L56.9495 173.35Z" fill="#FFBF99"/>
<path d="M25.1828 327.574C25.1828 327.574 22.2952 331.614 21.4067 333.635C20.2961 335.655 22.5173 337.002 22.5173 337.002C22.5173 337.002 39.1767 348.002 42.2864 349.573C45.3962 351.145 42.7307 346.655 42.7307 346.655C42.7307 346.655 40.7316 344.635 38.7324 341.941C36.5112 339.022 34.2899 333.186 34.2899 333.186L25.1828 327.574Z" fill="#1A1155"/>
<path d="M64.4983 337.002H75.8266C75.8266 339.023 76.7151 339.247 76.7151 339.247C76.7151 339.247 86.7108 343.737 90.2648 345.533C93.8188 346.88 90.0426 348.002 90.0426 348.002C90.0426 348.002 70.7178 348.002 67.1638 348.002C63.6098 348.002 64.2761 346.431 64.2761 346.431L64.4983 337.002Z" fill="#1A1155"/>
<path d="M56.4989 175.147C53.6112 175.147 42.9492 170.657 42.9492 170.657C42.9492 170.657 43.8377 167.29 45.6147 163.024C47.1696 158.535 50.5015 152.024 55.6104 152.698C60.4971 153.371 60.0529 160.33 60.0529 160.33C59.1644 167.29 56.721 174.922 56.4989 175.147Z" fill="#0064B7"/>
<path d="M114.954 299.773C114.954 299.773 118.296 298.363 117.944 294.661C117.768 290.959 115.833 288.491 119.878 289.373C123.748 290.607 125.155 290.959 127.969 290.43C130.783 289.902 133.069 288.491 131.838 292.37C130.607 296.248 129.376 298.892 132.19 299.773C135.179 300.126 138.169 298.187 138.521 303.828C138.873 309.645 134.476 315.991 126.737 316.343C119.351 316.52 115.833 313.699 115.833 313.699C115.833 313.699 113.723 311.055 117.064 310.174C120.406 309.469 123.396 308.058 121.637 306.648C120.054 305.238 114.602 305.062 114.602 305.062C114.602 305.062 108.447 303.475 114.954 299.773Z" fill="#6B9CD3"/>
<path d="M149.249 300.655C148.898 296.953 149.249 294.485 155.757 293.251C162.791 292.193 166.661 296.6 167.012 300.655C167.364 304.709 161.385 306.472 161.385 306.472C161.385 306.472 157.339 307.706 159.274 311.408C161.384 315.11 162.616 318.635 157.339 319.164C152.063 319.693 147.315 318.459 144.149 316.52C141.159 314.581 138.169 309.469 141.687 306.825C141.687 306.825 142.742 306.119 145.732 305.767C149.601 305.591 149.249 300.655 149.249 300.655Z" fill="#1C4599"/>
<path d="M125.154 299.949C125.154 299.949 130.782 312.994 131.486 321.632" stroke="#88D6F8" stroke-width="1.09151" stroke-miterlimit="10" stroke-linecap="round" stroke-linejoin="round"/>
<path d="M156.812 302.065C156.812 302.065 146.787 316.872 144.325 321.808" stroke="#599FD2" stroke-width="1.09151" stroke-miterlimit="10" stroke-linecap="round" stroke-linejoin="round"/>
<path d="M128.32 320.574H151.359C151.359 320.574 153.822 320.75 153.646 324.276C153.47 327.625 149.601 326.744 147.49 326.744C145.38 326.744 127.968 326.744 127.968 326.744C127.968 326.744 125.33 327.096 125.33 324.099C124.803 320.574 126.034 320.574 128.32 320.574Z" fill="#0256A4"/>
<path d="M127.793 326.743L131.135 347.015H146.787L149.249 331.855L127.793 326.743Z" fill="#0256A4"/>
<path d="M127.793 326.743L149.249 331.855L150.129 326.743H127.793Z" fill="#346BB4"/>
<path d="M137.816 321.455C137.816 321.455 139.048 298.892 145.555 284.789" stroke="#FABD41" stroke-width="1.09151" stroke-miterlimit="10"/>
<path d="M151.008 276.504C151.008 276.504 151.36 283.556 144.852 286.2C144.852 286.2 143.446 280.03 151.008 276.504Z" fill="#FABD41"/>
<path d="M140.807 298.363C140.807 298.363 143.269 292.369 150.831 293.251C151.007 293.074 150.304 299.068 140.807 298.363Z" fill="#FABD41"/>
<path d="M138.345 313.17C138.345 313.17 139.752 307 147.314 306.119C147.314 306.119 147.842 312.113 138.345 313.17Z" fill="#FABD41"/>
<path d="M138.169 313.17C138.169 313.17 139.224 306.824 132.189 303.475C132.013 303.828 129.727 309.116 138.169 313.17Z" fill="#FABD41"/>
<path d="M140.807 298.363C140.807 298.363 142.39 292.194 135.883 288.139C136.059 287.963 132.893 293.075 140.807 298.363Z" fill="#FABD41"/>
<path d="M81.2522 62.5688L71.582 65.2866L74.2936 74.979L83.9637 72.2612L81.2522 62.5688Z" fill="#023EA1"/>
<path d="M427.26 20L417.59 22.7178L420.301 32.4102L429.972 29.6924L427.26 20Z" fill="#ED3B4E"/>
</svg>
