<svg width="500" height="370" viewBox="0 0 500 370" fill="none" xmlns="http://www.w3.org/2000/svg">
<path d="M145.34 293.291C145.34 293.291 145.723 296.939 147.636 301.548L153.95 304.428L148.975 305.196C154.524 319.021 167.917 338.799 199.103 334.767C199.103 335.535 214.41 296.171 145.34 293.291Z" fill="#FABD41"/>
<path d="M153.567 314.989L179.205 317.677L145.34 293.291" stroke="white" stroke-miterlimit="10"/>
<path d="M167.151 296.171L179.205 317.677" stroke="white" stroke-miterlimit="10"/>
<path d="M165.238 270.248C165.238 270.248 173.656 264.488 175.378 269.48C177.1 274.473 179.396 274.281 181.883 273.897C184.371 273.513 188.389 271.209 189.919 276.585C191.45 282.154 189.919 285.418 192.406 287.146C194.894 288.874 202.547 299.051 197.381 300.78C192.406 302.508 186.475 298.283 184.371 295.979C182.266 293.483 177.865 293.483 174.613 294.251C170.978 295.019 166.577 293.483 168.108 289.258C169.638 285.034 167.342 280.81 164.281 280.041C161.029 278.889 159.307 274.089 165.238 270.248Z" fill="#1C4599"/>
<path d="M169.639 275.049L198.721 304.428" stroke="white" stroke-miterlimit="10" stroke-linecap="round" stroke-linejoin="round"/>
<path d="M183.797 277.545L181.501 286.954L171.36 288.49" stroke="white" stroke-miterlimit="10" stroke-linecap="round" stroke-linejoin="round"/>
<path d="M157.584 283.306C157.584 283.306 157.584 288.682 161.219 286.57C164.855 284.458 167.342 284.266 168.872 288.298C170.403 292.331 172.89 293.867 175.378 293.099C177.865 292.331 181.883 290.411 183.605 295.787C185.327 301.356 189.727 311.725 183.796 314.413C178.056 317.101 169.064 313.261 167.533 309.42C166.003 305.388 167.533 301.74 163.133 300.396C158.732 299.051 157.775 303.66 153.949 300.588C150.122 297.515 145.53 294.827 148.4 288.298C151.27 282.346 157.01 280.426 157.584 283.306Z" stroke="#ED3B4E" stroke-miterlimit="10"/>
<path d="M156.627 289.066C156.627 289.066 181.882 308.844 189.727 312.109" stroke="#ED3B4E" stroke-miterlimit="10"/>
<path d="M177.099 296.555L177.673 304.812L171.168 307.5" stroke="#ED3B4E" stroke-miterlimit="10"/>
<path d="M164.28 288.49L163.897 294.827L158.731 297.707" stroke="#ED3B4E" stroke-miterlimit="10"/>
<path d="M176.143 208.61C207.21 208.61 232.394 183.335 232.394 152.157C232.394 120.978 207.21 95.7031 176.143 95.7031C145.077 95.7031 119.893 120.978 119.893 152.157C119.893 183.335 145.077 208.61 176.143 208.61Z" stroke="#DD1F26" stroke-miterlimit="10" stroke-dasharray="6 6"/>
<path d="M131.564 125.466C135.473 125.466 138.643 122.285 138.643 118.361C138.643 114.437 135.473 111.257 131.564 111.257C127.654 111.257 124.484 114.437 124.484 118.361C124.484 122.285 127.654 125.466 131.564 125.466Z" fill="#24499F"/>
<path d="M133.668 115.481L128.119 117.401L132.137 120.666L133.668 115.481Z" fill="white"/>
<path d="M267.791 46.7381C267.791 46.7381 261.094 52.3067 267.408 54.8029C273.913 57.2992 276.401 60.3715 273.148 66.5161C269.513 72.6607 270.661 77.4612 273.913 79.7654C277.549 82.0696 284.245 85.526 278.888 93.3988C273.531 101.464 264.73 117.593 255.355 113.177C245.788 108.76 241.196 93.0147 245.023 86.8701C248.849 80.7255 255.163 78.9973 251.911 71.8926C249.041 64.7879 242.344 68.2443 242.153 59.9874C241.961 51.5386 240.814 42.8977 252.485 40.2095C262.434 37.7132 270.469 42.7057 267.791 46.7381Z" stroke="#1C4599" stroke-miterlimit="10"/>
<path d="M258.606 52.1147C258.606 52.1147 259.754 105.304 262.816 118.553" stroke="#1C4599" stroke-miterlimit="10"/>
<path d="M270.469 85.718L260.329 95.319L250.188 89.7505" stroke="#1C4599" stroke-miterlimit="10"/>
<path d="M267.599 60.9476L259.372 66.9002L249.997 63.2518" stroke="#1C4599" stroke-miterlimit="10"/>
<path d="M290.175 47.3142C290.175 47.3142 306.247 52.3067 301.846 59.6034C297.063 66.7081 299.742 69.7804 302.994 72.4687C305.864 75.1569 313.326 78.2292 307.777 85.526C302.229 92.8227 296.68 94.3589 297.063 99.3514C297.446 104.344 292.28 124.506 284.818 119.897C277.165 115.481 276.591 103.384 277.739 98.0072C278.887 93.0147 274.103 87.2541 269.703 83.4138C265.302 79.7654 262.815 72.4687 269.512 70.1644C276.399 67.6682 279.652 60.5635 277.547 55.571C274.486 50.9625 279.269 44.2418 290.175 47.3142Z" fill="#FABD41"/>
<path d="M288.644 58.2593L280.608 126.426" stroke="white" stroke-miterlimit="10" stroke-linecap="round" stroke-linejoin="round"/>
<path d="M299.933 79.1894L285.201 85.9101L272.573 75.157" stroke="white" stroke-miterlimit="10" stroke-linecap="round" stroke-linejoin="round"/>
<path d="M214.793 56.7231C214.793 56.7231 208.287 51.9226 212.497 46.3541C216.515 40.7855 226.846 40.7855 228.951 46.162C231.247 51.1545 228.186 54.9949 232.778 55.763C237.178 56.5311 249.232 60.5635 246.936 66.3241C244.449 72.0846 237.369 72.4687 240.431 80.1494C243.301 87.8302 258.224 89.1743 250.571 99.9274C242.918 110.488 225.124 125.082 215.941 106.84C207.14 88.5983 226.655 92.2466 216.132 80.5335C205.609 68.8203 214.41 68.4363 217.28 64.0198C219.959 59.0273 214.793 56.7231 214.793 56.7231Z" fill="#ED3B4E"/>
<path d="M226.847 63.4438C226.847 63.4438 227.995 84.5659 235.265 102.04C242.536 119.513 247.128 121.818 247.128 121.818" stroke="white" stroke-miterlimit="10" stroke-linecap="round" stroke-linejoin="round"/>
<path d="M187.24 93.3988C185.135 93.3988 183.413 94.935 183.413 97.2392V355.889C183.413 358.001 185.135 359.729 187.24 359.729H325.57C327.675 359.729 329.397 358.193 329.397 355.889V96.8552C329.397 94.743 327.675 93.0148 325.57 93.0148H187.24V93.3988Z" fill="#1466B1"/>
<path d="M324.743 110.149H186.978V343H324.743V110.149Z" fill="white" stroke="#1466B1" stroke-width="2" stroke-miterlimit="10"/>
<path d="M273.191 102.04C273.191 103.192 272.425 103.768 271.469 103.768H239.325C238.178 103.768 237.604 103 237.604 102.04C237.604 100.888 238.369 100.312 239.325 100.312H271.469C272.043 100.312 273.191 100.888 273.191 102.04Z" fill="white"/>
<path d="M255.928 150.356C256 151.031 256.048 151.712 256.072 152.4L255.823 152.409C255.834 152.747 255.84 153.086 255.84 153.427C255.84 153.769 255.834 154.108 255.823 154.446L256.073 154.455C256.049 155.144 256.001 155.826 255.93 156.5L255.682 156.474C255.611 157.154 255.516 157.826 255.398 158.489L255.644 158.533C255.525 159.21 255.381 159.879 255.215 160.538L254.973 160.477C254.806 161.138 254.617 161.79 254.406 162.431L254.643 162.509C254.428 163.161 254.19 163.803 253.931 164.432L253.7 164.337C253.441 164.966 253.16 165.584 252.859 166.189L253.082 166.3C252.776 166.914 252.449 167.515 252.101 168.102L251.886 167.975C251.54 168.559 251.174 169.13 250.788 169.686L250.993 169.829C250.603 170.391 250.193 170.939 249.764 171.471L249.57 171.314C249.144 171.843 248.7 172.355 248.238 172.851L248.421 173.022C247.955 173.522 247.471 174.006 246.97 174.472L246.8 174.289C246.303 174.75 245.79 175.194 245.262 175.62L245.419 175.814C244.886 176.243 244.338 176.653 243.776 177.043L243.633 176.837C243.077 177.223 242.506 177.589 241.921 177.935L242.049 178.15C241.461 178.498 240.86 178.825 240.247 179.131L240.135 178.907C239.53 179.209 238.913 179.49 238.284 179.749L238.379 179.98C237.749 180.239 237.107 180.477 236.456 180.692L236.377 180.455C235.736 180.667 235.085 180.856 234.424 181.023L234.485 181.265C233.826 181.432 233.157 181.575 232.48 181.695L232.436 181.449C231.773 181.567 231.101 181.662 230.422 181.734L230.448 181.982C229.773 182.053 229.091 182.101 228.402 182.125L228.394 181.875C228.056 181.887 227.716 181.893 227.375 181.893C227.034 181.893 226.694 181.887 226.356 181.875L226.347 182.125C225.658 182.101 224.976 182.054 224.302 181.983L224.328 181.734C223.648 181.663 222.976 181.568 222.313 181.451L222.269 181.697C221.592 181.577 220.923 181.434 220.264 181.268L220.325 181.025C219.664 180.859 219.013 180.67 218.371 180.458L218.293 180.696C217.641 180.481 217 180.243 216.37 179.984L216.465 179.753C215.836 179.494 215.218 179.213 214.613 178.911L214.502 179.135C213.888 178.829 213.287 178.502 212.7 178.154L212.827 177.939C212.243 177.593 211.672 177.226 211.116 176.841L210.974 177.046C210.411 176.656 209.863 176.246 209.331 175.817L209.488 175.622C208.959 175.197 208.447 174.752 207.951 174.291L207.781 174.473C207.28 174.007 206.796 173.523 206.33 173.022L206.513 172.852C206.052 172.356 205.608 171.843 205.182 171.315L204.988 171.471C204.559 170.939 204.149 170.391 203.759 169.828L203.965 169.686C203.579 169.129 203.213 168.558 202.867 167.974L202.652 168.101C202.304 167.514 201.977 166.913 201.671 166.299L201.895 166.188C201.593 165.583 201.312 164.965 201.053 164.336L200.822 164.432C200.563 163.801 200.325 163.16 200.11 162.508L200.347 162.43C200.136 161.789 199.946 161.137 199.779 160.476L199.537 160.538C199.371 159.878 199.227 159.21 199.107 158.533L199.353 158.489C199.235 157.825 199.14 157.153 199.068 156.474L198.82 156.5C198.749 155.825 198.701 155.143 198.677 154.455L198.927 154.446C198.915 154.108 198.909 153.768 198.909 153.427C198.909 153.086 198.915 152.747 198.927 152.409L198.677 152.4C198.701 151.712 198.749 151.031 198.821 150.356L199.07 150.382C199.142 149.704 199.237 149.033 199.356 148.369L199.11 148.325C199.231 147.649 199.375 146.981 199.543 146.322L199.785 146.384C199.953 145.724 200.143 145.073 200.356 144.432L200.119 144.354C200.335 143.703 200.574 143.062 200.834 142.433L201.065 142.528C201.325 141.9 201.607 141.284 201.91 140.679L201.686 140.567C201.993 139.955 202.321 139.355 202.67 138.768L202.885 138.896C203.231 138.312 203.598 137.742 203.984 137.187L203.779 137.044C204.17 136.482 204.58 135.935 205.009 135.403L205.203 135.56C205.629 135.032 206.073 134.52 206.535 134.025L206.352 133.854C206.818 133.354 207.301 132.87 207.802 132.404L207.972 132.587C208.468 132.126 208.98 131.681 209.508 131.256L209.351 131.061C209.882 130.632 210.43 130.222 210.992 129.832L211.134 130.037C211.69 129.651 212.26 129.284 212.843 128.937L212.716 128.722C213.302 128.374 213.902 128.046 214.515 127.739L214.627 127.962C215.231 127.66 215.848 127.378 216.476 127.118L216.38 126.887C217.009 126.626 217.65 126.387 218.301 126.171L218.38 126.408C219.02 126.196 219.671 126.005 220.331 125.838L220.27 125.595C220.928 125.428 221.596 125.283 222.273 125.162L222.317 125.408C222.98 125.29 223.651 125.194 224.33 125.122L224.304 124.874C224.978 124.802 225.66 124.754 226.348 124.73L226.356 124.98C226.694 124.968 227.034 124.962 227.375 124.962C227.716 124.962 228.055 124.968 228.393 124.98L228.402 124.73C229.09 124.754 229.771 124.802 230.446 124.874L230.42 125.122C231.098 125.194 231.77 125.29 232.433 125.408L232.477 125.162C233.153 125.283 233.821 125.428 234.48 125.595L234.418 125.838C235.078 126.005 235.729 126.196 236.37 126.408L236.449 126.171C237.1 126.387 237.74 126.626 238.369 126.887L238.274 127.118C238.902 127.378 239.518 127.66 240.123 127.962L240.235 127.739C240.847 128.046 241.447 128.374 242.034 128.722L241.906 128.937C242.49 129.284 243.06 129.651 243.615 130.037L243.758 129.832C244.32 130.222 244.867 130.632 245.399 131.061L245.242 131.256C245.77 131.681 246.282 132.126 246.778 132.587L246.948 132.404C247.448 132.87 247.932 133.354 248.398 133.854L248.215 134.025C248.677 134.52 249.121 135.032 249.546 135.56L249.741 135.403C250.17 135.935 250.58 136.482 250.97 137.044L250.765 137.187C251.151 137.742 251.518 138.312 251.865 138.896L252.08 138.768C252.428 139.355 252.756 139.955 253.063 140.567L252.84 140.679C253.142 141.284 253.424 141.9 253.684 142.528L253.915 142.433C254.176 143.062 254.415 143.703 254.631 144.354L254.394 144.432C254.606 145.073 254.797 145.724 254.965 146.384L255.207 146.322C255.374 146.981 255.519 147.649 255.64 148.325L255.394 148.369C255.512 149.033 255.608 149.704 255.68 150.382L255.928 150.356Z" fill="#DCE8F4" stroke="#2A2A2A" stroke-width="0.5" stroke-dasharray="2 2"/>
<path d="M308.654 202.098C308.654 203.558 307.106 204.531 305.751 204.531H209.35C207.608 204.531 206.446 203.234 206.446 202.098C206.446 200.638 207.995 199.664 209.35 199.664H305.751C307.299 199.664 308.654 200.8 308.654 202.098Z" fill="#DCE8F4"/>
<path d="M300.867 147.1C300.867 148.268 300.292 149.047 299.789 149.047H263.983C263.336 149.047 262.904 148.009 262.904 147.1C262.904 145.932 263.479 145.154 263.983 145.154H299.789C300.364 145.154 300.867 146.062 300.867 147.1Z" fill="#DCE8F4"/>
<path d="M308.655 157.808C308.655 158.976 307.961 159.755 307.355 159.755H264.204C263.424 159.755 262.904 158.716 262.904 157.808C262.904 156.64 263.597 155.861 264.204 155.861H307.355C308.048 155.861 308.655 156.77 308.655 157.808Z" fill="#DCE8F4"/>
<path d="M275.88 216.24C275.88 217.551 274.828 218.425 273.908 218.425H208.419C207.235 218.425 206.446 217.26 206.446 216.24C206.446 214.93 207.498 214.056 208.419 214.056H273.908C274.96 213.765 275.88 214.93 275.88 216.24Z" fill="#DCE8F4"/>
<path d="M275.88 258.375C275.88 259.672 274.828 260.536 273.908 260.536H208.419C207.235 260.536 206.446 259.384 206.446 258.375C206.446 257.079 207.498 256.214 208.419 256.214H273.908C274.96 255.782 275.88 256.935 275.88 258.375Z" fill="#DCE8F4"/>
<path d="M288.213 268.861C288.213 270.291 286.974 271.244 285.89 271.244H208.769C207.375 271.244 206.446 269.973 206.446 268.861C206.446 267.431 207.685 266.478 208.769 266.478H285.89C287.129 266.002 288.213 267.272 288.213 268.861Z" fill="#DCE8F4"/>
<path d="M288.243 316.479C288.243 316.479 291.878 314.943 291.495 310.91C291.304 306.878 289.199 304.19 293.6 305.15C297.809 306.494 299.34 306.878 302.401 306.302C305.462 305.726 307.95 304.19 306.61 308.414C305.271 312.639 303.932 315.519 306.993 316.479C310.246 316.863 313.498 314.751 313.881 320.895C314.264 327.232 309.48 334.145 301.062 334.529C293.026 334.721 289.199 331.648 289.199 331.648C289.199 331.648 286.903 328.768 290.539 327.808C294.174 327.04 297.427 325.504 295.513 323.968C293.791 322.432 287.86 322.24 287.86 322.24C287.86 322.24 281.164 320.511 288.243 316.479Z" fill="#6B9CD3"/>
<path d="M325.552 317.439C325.169 313.407 325.552 310.718 332.631 309.374C340.284 308.222 344.493 313.023 344.876 317.439C345.259 321.855 338.753 323.776 338.753 323.776C338.753 323.776 334.353 325.12 336.457 329.152C338.753 333.185 340.093 337.025 334.353 337.601C328.613 338.177 323.447 336.833 320.003 334.721C316.751 332.609 313.498 327.04 317.325 324.16C317.325 324.16 318.473 323.392 321.725 323.008C325.934 322.816 325.552 317.439 325.552 317.439Z" fill="#1C4599"/>
<path d="M299.34 316.671C299.34 316.671 305.462 330.88 306.228 340.289" stroke="#88D6F8" stroke-miterlimit="10" stroke-linecap="round" stroke-linejoin="round"/>
<path d="M333.779 318.975C333.779 318.975 322.873 335.105 320.194 340.481" stroke="#599FD2" stroke-miterlimit="10" stroke-linecap="round" stroke-linejoin="round"/>
<path d="M302.784 339.137H327.848C327.848 339.137 330.527 339.329 330.335 343.17C330.144 346.818 325.935 345.858 323.639 345.858C321.343 345.858 302.401 345.858 302.401 345.858C302.401 345.858 299.531 346.242 299.531 342.978C298.957 339.137 300.297 339.137 302.784 339.137Z" fill="#0256A4"/>
<path d="M302.209 345.858L305.844 367.94H322.872L325.551 351.426L302.209 345.858Z" fill="#0256A4"/>
<path d="M302.209 345.858L325.551 351.426L326.508 345.858H302.209Z" fill="#346BB4"/>
<path d="M313.115 340.097C313.115 340.097 314.455 315.519 321.534 300.157" stroke="#FABD41" stroke-miterlimit="10"/>
<path d="M327.464 291.132C327.464 291.132 327.847 298.813 320.768 301.693C320.768 301.693 319.237 294.973 327.464 291.132Z" fill="#FABD41"/>
<path d="M316.368 314.943C316.368 314.943 319.047 308.414 327.274 309.374C327.465 309.182 326.7 315.711 316.368 314.943Z" fill="#FABD41"/>
<path d="M313.689 331.072C313.689 331.072 315.22 324.352 323.447 323.392C323.447 323.392 324.021 329.92 313.689 331.072Z" fill="#FABD41"/>
<path d="M313.498 331.072C313.498 331.072 314.646 324.16 306.993 320.511C306.802 320.895 304.314 326.656 313.498 331.072Z" fill="#FABD41"/>
<path d="M316.368 314.943C316.368 314.943 318.09 308.222 311.011 303.806C311.202 303.614 307.758 309.182 316.368 314.943Z" fill="#FABD41"/>
<path d="M381.827 104.631L372.062 107.379L374.8 117.178L384.565 114.43L381.827 104.631Z" fill="#ED3B4E"/>
<path d="M89.7642 139.945L80 142.693L82.7379 152.492L92.5021 149.744L89.7642 139.945Z" fill="#24499F"/>
<path d="M179.127 41.2558C179.127 41.2558 178.936 41.0638 178.745 41.2558L175.875 41.6399C175.492 41.6399 175.109 41.4478 174.727 41.2558C174.535 39.7197 173.579 38.5675 173.196 37.2234C173.005 37.0314 173.196 36.4553 173.387 36.0713L175.683 34.3431C175.683 34.3431 175.875 34.1511 175.875 33.9591C175.875 33.7671 175.875 33.7671 175.683 33.575L171.857 29.9267C171.857 29.9267 171.666 29.7347 171.474 29.7347C171.283 29.7347 171.283 29.7347 171.092 29.9267L169.37 32.2309C169.178 32.4229 168.604 32.615 168.222 32.4229C166.882 31.6549 165.734 31.0788 164.204 30.8868C163.821 30.8868 163.438 30.5027 163.821 29.7347L164.204 26.8544C164.204 26.6624 164.204 26.6624 164.204 26.4703C164.204 26.4703 164.012 26.2783 163.821 26.2783H159.038C158.846 26.2783 158.846 26.2783 158.655 26.4703C158.655 26.4703 158.464 26.6624 158.655 26.8544L159.038 29.7347C159.038 30.1187 158.846 30.5027 158.655 30.8868C157.125 31.0788 155.977 32.0389 154.637 32.4229C154.446 32.615 153.872 32.4229 153.489 32.2309L151.767 29.9267C151.767 29.9267 151.576 29.7347 151.385 29.7347C151.193 29.7347 151.193 29.7347 151.002 29.9267L147.558 33.7671C147.558 33.7671 147.367 33.9591 147.367 34.1511C147.367 34.3431 147.367 34.3431 147.558 34.5351L149.854 36.2633C150.045 36.4553 150.237 37.0314 150.045 37.4154C149.28 38.7596 148.706 39.9117 148.515 41.4478C148.515 41.8319 148.132 42.2159 147.367 41.8319L144.497 41.4478C144.306 41.4478 144.306 41.4478 144.114 41.4478C144.114 41.4478 143.923 41.6399 143.923 41.8319V46.6324C143.923 46.8244 143.923 46.8244 144.114 47.0164C144.114 47.0164 144.306 47.2084 144.497 47.0164L147.367 46.6324C147.749 46.6324 148.132 46.8244 148.515 47.0164C148.706 48.5525 149.663 49.7047 150.045 51.0488C150.237 51.2408 150.045 51.8169 149.854 52.2009L147.558 53.7371C147.558 53.7371 147.367 53.9291 147.367 54.1211C147.367 54.3131 147.367 54.3131 147.558 54.5051L151.193 58.1535C151.193 58.1535 151.385 58.3455 151.576 58.3455C151.767 58.3455 151.767 58.3455 151.959 58.1535L153.681 55.8493C153.872 55.6573 154.446 55.4652 154.829 55.6573C156.168 56.4253 157.316 57.0014 158.847 57.1934C159.229 57.1934 159.612 57.5774 159.229 58.3455L158.847 61.2258C158.847 61.4178 158.847 61.4178 158.847 61.6098C158.847 61.6098 159.038 61.8019 159.229 61.8019H164.012C164.204 61.8019 164.204 61.8019 164.395 61.6098C164.395 61.6098 164.586 61.4178 164.395 61.2258L163.821 58.5375C163.821 58.1535 164.012 57.7695 164.204 57.3854C165.734 57.1934 166.882 56.2333 168.222 55.8493C168.413 55.6573 168.987 55.8493 169.37 56.0413L171.092 58.3455C171.092 58.3455 171.283 58.5375 171.474 58.5375C171.666 58.5375 171.666 58.5375 171.857 58.3455L175.492 54.6972C175.492 54.6972 175.683 54.5051 175.683 54.3131C175.683 54.1211 175.683 54.1211 175.492 53.9291L173.387 52.0089C173.196 51.8169 173.005 51.2408 173.196 50.8568C173.961 49.5126 174.535 48.3605 174.727 46.8244C174.727 46.4403 175.109 46.0563 175.875 46.4403L178.745 46.8244C178.936 46.8244 178.936 46.8244 179.127 46.8244C179.127 46.8244 179.319 46.6324 179.319 46.4403V41.6399C179.127 41.8319 179.127 41.6399 179.127 41.2558ZM178.171 46.2483L175.683 46.0563C174.535 46.0563 173.579 46.4403 173.387 47.5924C173.196 48.9366 172.622 50.0887 171.857 51.2408C171.474 52.3929 171.666 53.353 172.24 53.7371L173.961 55.0812L171.474 57.5774L170.135 55.8493C169.752 55.0812 168.413 54.6972 167.648 55.4652C166.5 56.2333 165.352 56.8094 164.012 57.0014C162.864 57.1934 162.29 58.3455 162.482 59.3056L162.673 61.8019H159.038L159.229 59.3056C159.229 58.1535 158.846 57.1934 157.699 57.0014C156.359 56.8094 155.211 56.2333 154.063 55.4652C152.915 55.0812 151.959 55.2732 151.576 55.8493L150.237 57.5774L147.749 55.0812L149.471 53.7371C150.237 53.353 150.619 52.0089 149.854 51.2408C149.089 50.0887 148.515 48.9366 148.323 47.5924C148.132 46.4403 146.984 45.8643 146.027 46.0563L144.306 46.2483V42.6L146.793 42.792C147.941 42.792 148.897 42.4079 149.089 41.2558C149.28 39.9117 149.854 38.7596 150.619 37.6075C151.002 36.4553 150.811 35.4952 150.237 35.1112L148.515 33.7671L151.385 31.2708L152.533 32.999C152.915 33.7671 154.255 34.1511 155.02 33.383C156.168 32.615 157.316 32.0389 158.655 31.8469C159.803 31.6549 160.377 30.5027 160.186 29.5426L159.994 27.0464H163.63L163.438 29.5426C163.438 30.6948 163.821 31.6549 164.969 31.8469C166.308 32.0389 167.456 32.615 168.604 33.383C169.561 33.9591 170.518 33.7671 170.9 32.999L172.24 31.2708L174.727 33.7671L172.431 35.1112C171.666 35.4952 171.283 36.8394 172.048 37.6075C172.814 38.7596 173.387 39.9117 173.579 41.2558C173.77 42.4079 174.918 42.984 175.875 42.792L178.362 42.6V46.2483H178.171Z" stroke="#24499F" stroke-miterlimit="10"/>
<path d="M160.951 35.8793C156.167 35.8793 152.532 39.7197 152.532 44.3281C152.532 48.9366 156.359 52.777 160.951 52.777C165.734 52.777 169.369 48.9366 169.369 44.3281C169.369 39.7197 165.925 35.8793 160.951 35.8793ZM160.951 51.6248C156.933 51.6248 153.872 48.3605 153.872 44.5201C153.872 40.6798 157.124 37.4154 160.951 37.4154C164.777 37.4154 168.03 40.6798 168.03 44.5201C168.03 48.3605 164.969 51.6248 160.951 51.6248Z" stroke="#24499F" stroke-miterlimit="10"/>
<path d="M345.647 42.132H331.489C331.298 42.132 331.106 42.324 331.106 42.5161V48.2766V48.4687L332.637 50.0048H332.828H343.352H343.543L345.073 48.4687V48.2766V42.5161C346.03 42.324 346.03 42.132 345.647 42.132ZM345.073 47.8926L343.543 49.4287H333.594L332.063 47.8926V42.9001H345.073V47.8926Z" fill="#24499F"/>
<path d="M346.412 43.6682L330.723 44.4362C330.532 44.4362 330.341 44.6282 330.341 44.8203C330.341 45.0123 330.532 45.2043 330.723 45.2043L346.412 44.4362C346.604 44.4362 346.795 44.2442 346.795 44.0522C346.986 43.8602 346.795 43.6682 346.412 43.6682Z" fill="#24499F"/>
<path d="M346.412 46.1644L330.723 46.9325C330.532 46.9325 330.341 47.1245 330.341 47.3165C330.341 47.5086 330.532 47.7006 330.723 47.7006L346.412 46.9325C346.604 46.9325 346.795 46.7405 346.795 46.5485C346.986 46.3564 346.795 46.1644 346.412 46.1644Z" fill="#24499F"/>
<path d="M338.76 14.2892C330.915 14.2892 324.602 20.6259 324.602 28.4987C324.602 33.2991 327.089 37.7156 331.107 40.4039V42.9001C331.107 43.0921 331.298 43.2841 331.489 43.2841H345.648C345.839 43.2841 346.03 43.0921 346.03 42.9001V40.4039C350.048 37.9076 352.536 33.4912 352.536 28.4987C352.536 20.6259 346.413 14.2892 338.76 14.2892ZM345.648 39.4438L345.456 41.94H332.446V39.6358C332.446 39.6358 332.446 39.4438 332.255 39.4438C328.237 36.9475 325.941 32.9151 325.941 28.3066C325.941 21.2019 332.063 15.2493 338.951 15.2493C346.03 15.2493 351.962 21.394 351.962 28.3066C351.77 32.9151 349.474 36.9475 345.648 39.4438Z" fill="#24499F"/>
<path d="M342.395 49.6208C342.204 49.6208 342.013 49.6208 342.013 49.8128C342.013 49.8128 341.247 51.349 338.76 51.349C336.273 51.349 335.508 50.0048 335.508 49.8128C335.508 49.6208 335.316 49.6208 335.125 49.6208C334.934 49.6208 334.934 49.8128 334.934 50.0048C334.934 50.0048 336.082 52.117 338.952 52.117C341.821 52.117 342.969 50.3889 342.969 50.0048C342.778 50.0048 342.778 49.8128 342.395 49.6208Z" fill="#24499F"/>
<path d="M321.158 27.7306H312.931C312.739 27.7306 312.548 27.9226 312.548 28.1146C312.548 28.3066 312.739 28.4987 312.931 28.4987H321.158C321.349 28.4987 321.54 28.3066 321.54 28.1146C321.54 27.7306 321.54 27.7306 321.158 27.7306Z" fill="#DD1F26"/>
<path d="M364.589 27.7306H356.362C356.171 27.7306 355.979 27.9226 355.979 28.1146C355.979 28.3066 356.171 28.4987 356.362 28.4987H364.589C364.781 28.4987 364.972 28.3066 364.972 28.1146C364.781 27.7306 364.589 27.7306 364.589 27.7306Z" fill="#DD1F26"/>
<path d="M323.837 36.9475C323.837 36.7555 323.454 36.7555 323.454 36.9475L316.566 40.9799C316.375 40.9799 316.375 41.3639 316.566 41.3639C316.566 41.3639 316.758 41.5559 316.949 41.5559C316.949 41.5559 316.949 41.5559 317.14 41.5559L324.028 37.5235C323.837 37.1395 323.837 36.9475 323.837 36.9475Z" fill="#DD1F26"/>
<path d="M361.337 15.0573C361.337 14.8653 360.954 14.8653 360.954 15.0573L354.066 19.0897C353.875 19.0897 353.875 19.4737 354.066 19.4737C354.066 19.4737 354.258 19.6657 354.449 19.6657C354.449 19.6657 354.449 19.6657 354.64 19.6657L361.528 15.6333C361.528 15.4413 361.528 15.2493 361.337 15.0573Z" fill="#DD1F26"/>
<path d="M351.771 5.45636C351.579 5.45636 351.388 5.45636 351.388 5.45636L347.37 12.3691C347.37 12.5611 347.37 12.7531 347.37 12.7531C347.37 12.7531 347.37 12.7531 347.561 12.7531C347.753 12.7531 347.753 12.7531 347.944 12.5611L351.771 5.45636C352.153 5.8404 352.153 5.45636 351.771 5.45636Z" fill="#DD1F26"/>
<path d="M338.76 2C338.568 2 338.377 2.19202 338.377 2.38404V10.6409C338.377 10.8329 338.568 11.0249 338.76 11.0249C338.951 11.0249 339.142 10.8329 339.142 10.6409V2.38404C338.951 2.19202 338.951 2 338.76 2Z" fill="#DD1F26"/>
<path d="M330.151 12.7531L326.133 5.84043C326.133 5.64841 325.75 5.64841 325.75 5.84043C325.559 5.84043 325.559 6.22446 325.75 6.22446L329.768 13.1372C329.768 13.1372 329.959 13.3292 330.151 13.3292C330.151 13.3292 330.151 13.3292 330.342 13.3292C330.151 13.1372 330.342 12.7531 330.151 12.7531Z" fill="#DD1F26"/>
<path d="M361.337 40.5959L354.449 36.5635C354.258 36.5635 354.066 36.5635 354.066 36.7555C354.066 36.9475 354.066 37.1395 354.066 37.1395L360.954 41.1719C360.954 41.1719 360.954 41.1719 361.146 41.1719C361.146 41.1719 361.337 41.1719 361.528 40.9799C361.528 41.1719 361.528 40.9799 361.337 40.5959Z" fill="#DD1F26"/>
<path d="M323.645 19.0897L316.757 15.0573C316.565 15.0573 316.374 15.0573 316.374 15.0573C316.374 15.2493 316.374 15.4414 316.374 15.4414L323.262 19.4738C323.262 19.4738 323.262 19.4738 323.453 19.4738C323.645 19.4738 323.645 19.4738 323.645 19.0897C323.836 19.2817 323.836 19.0897 323.645 19.0897Z" fill="#DD1F26"/>
<path d="M340.099 42.132V28.8827C340.099 28.8827 339.908 22.546 343.352 22.546C346.795 22.546 345.074 29.0747 338.568 29.0747" stroke="#24499F" stroke-miterlimit="10"/>
<path d="M336.846 42.132V28.8827C336.846 28.8827 337.038 22.546 333.594 22.546C329.959 22.546 331.872 29.0747 338.377 29.0747" stroke="#24499F" stroke-miterlimit="10"/>
<path d="M137.494 224.932H143.807L150.695 224.548C150.695 224.548 151.461 228.772 147.443 229.348C143.425 229.732 137.302 230.693 136.537 230.501C135.006 230.116 137.494 224.932 137.494 224.932Z" fill="#FBBE9B"/>
<path d="M132.71 194.209C132.71 194.209 139.216 200.738 139.79 204.386C140.938 208.034 138.642 213.219 138.068 214.947C137.685 216.483 137.876 236.261 137.876 236.261H112.047V194.017L132.71 194.209Z" fill="#0064E1"/>
<path d="M148.017 174.431C148.017 174.431 147.634 179.423 146.295 182.688V185.184C146.295 185.376 146.104 185.568 145.913 185.568L144.382 185.376V187.488C144.382 187.68 144.191 187.872 143.999 187.872H142.66C142.469 187.872 142.277 188.064 142.277 188.256L142.469 189.408C142.469 189.6 142.469 189.792 142.086 189.792C140.938 189.984 139.216 190.177 136.729 188.448C134.241 186.72 132.711 187.68 132.711 189.216C132.711 190.753 134.05 195.553 131.946 196.897C130.224 198.049 124.866 197.281 123.718 196.129C122.379 194.785 123.718 191.713 125.44 189.984C126.78 188.64 128.693 174.239 131.563 172.895C134.05 172.319 148.017 174.431 148.017 174.431Z" fill="#FBBC98"/>
<path d="M117.979 214.755L117.787 223.588C117.787 224.356 118.17 224.932 119.127 224.932C120.083 224.932 120.657 224.932 122.379 224.164C126.397 222.628 136.155 217.251 137.303 216.291C137.303 216.291 137.494 216.291 137.494 216.099C137.685 215.715 139.025 213.795 141.895 213.987C145.53 214.179 146.295 215.139 145.913 216.099C145.721 217.251 145.147 217.251 145.147 217.251L145.53 218.019C145.53 218.019 145.147 219.171 143.425 219.171C141.895 219.171 139.79 218.403 139.407 218.979C139.025 219.363 123.336 229.732 119.701 232.229C119.318 232.421 118.553 232.613 117.979 232.997C115.683 233.381 110.134 234.341 109.56 230.501C108.412 225.7 108.412 215.139 108.412 215.139L117.979 214.755Z" fill="#FBBE9B"/>
<path d="M117.979 198.817C118.361 198.625 119.127 198.817 119.127 199.201V215.331C119.127 215.715 118.935 216.099 118.361 216.099C117.787 216.099 116.831 216.099 115.109 216.099C112.43 216.099 110.134 216.099 108.795 216.099C108.412 216.099 108.412 215.907 108.412 215.715L108.603 204.578C108.603 204.386 108.603 204.194 108.795 204.194L117.979 198.817Z" fill="#0054A3"/>
<path d="M99.4192 205.922C98.0799 200.93 107.072 193.825 107.072 193.825C107.072 193.825 111.282 192.289 112.047 187.296C112.812 182.304 117.595 180.768 119.7 179.039C121.805 177.311 123.335 172.895 123.335 172.895L123.527 171.743C123.527 171.743 127.162 155.997 139.216 160.029C139.216 160.029 144.764 162.142 147.06 166.366C147.06 166.366 155.096 167.71 153.374 174.047C151.843 180.384 148.017 176.543 148.017 176.543C148.017 176.543 146.486 173.279 144.764 175.391C143.042 177.695 139.024 179.231 137.876 176.927C136.537 174.623 134.05 173.279 133.476 176.543V178.079C133.476 178.079 127.353 185.76 126.971 188.256C126.205 190.945 124.675 194.785 121.613 196.321C118.743 198.049 115.491 204.77 113.96 208.61C112.047 212.643 100.95 213.603 99.4192 205.922Z" fill="#1F1952"/>
<path d="M160.454 206.306L176.143 206.498L156.627 228.388L140.556 227.62L160.454 206.306Z" fill="#1C164F"/>
<path d="M161.41 222.244C161.41 222.244 162.94 225.124 161.601 226.084C160.07 226.852 158.731 227.236 157.966 226.276C157.392 225.508 156.818 223.012 157.774 223.396C158.54 223.396 158.922 223.588 158.922 223.588V222.82C158.922 222.628 158.922 222.436 159.114 222.436C159.879 221.86 161.218 221.284 161.41 222.244Z" fill="#FBBE9B"/>
<path d="M133.668 236.453L138.068 236.261V360.113L128.31 360.498L123.145 279.273L133.668 236.453Z" fill="#DE051F"/>
<path d="M112.047 236.645C112.047 236.645 111.856 240.87 111.664 242.79C111.473 243.942 105.542 253.543 110.134 265.448C110.134 265.64 110.134 265.832 110.325 266.216C110.325 268.904 111.09 285.034 107.838 293.291L90.4268 350.513L97.1233 355.313C97.1233 355.313 120.083 305.772 120.657 303.468C121.231 301.164 136.346 252.583 134.241 239.141L133.858 236.645H112.047Z" fill="#EE384E"/>
<path d="M138.067 360.113C138.067 360.113 144.19 363.378 146.868 364.146C148.973 364.53 149.356 366.258 149.547 366.834C149.547 367.026 149.547 367.218 149.356 367.218H128.31V360.306L138.067 360.113Z" fill="#221D56"/>
<path d="M96.9322 354.737C96.9322 354.737 98.6542 359.729 102.481 362.802C106.307 365.682 102.481 367.794 102.481 367.794L86.7918 358.001C86.6004 357.617 85.6438 355.889 86.7918 354.353C87.9398 352.625 90.427 349.936 90.427 349.936L96.9322 354.737Z" fill="#221D56"/>
<path d="M365.941 248.166C365.941 248.166 369.768 304.236 370.533 314.029C371.107 323.822 373.403 357.425 373.403 357.425H383.161L389.858 247.782L365.941 248.166Z" fill="#0064E1"/>
<path d="M402.868 248.742C402.868 248.742 401.72 276.969 401.338 284.074C400.764 291.371 406.503 315.757 409.373 326.702C412.243 337.647 417.409 349.168 417.409 349.168L409.373 353.969C409.373 353.969 392.536 324.398 386.797 306.54C380.865 288.874 376.465 262.76 377.23 247.59L402.868 248.742Z" fill="#0054A3"/>
<path d="M329.781 208.034H326.911C326.911 208.034 324.998 208.034 324.998 210.146C324.998 212.259 324.998 215.523 324.998 215.523C324.998 215.523 324.615 216.675 326.146 216.675C327.676 216.675 329.016 216.675 329.016 216.675C329.016 216.675 330.163 216.483 332.077 218.019C333.99 219.555 348.34 227.62 348.34 227.62C348.34 227.62 353.314 230.501 356.376 227.428C359.437 224.356 366.707 216.483 366.707 216.483L367.09 214.179L360.967 208.418L353.506 218.211C353.506 218.211 352.932 218.979 351.401 218.595C349.87 218.211 335.712 213.219 335.712 213.219C335.712 213.219 333.607 212.259 333.033 210.531C333.033 210.338 333.033 210.338 332.842 210.146C332.651 208.802 331.311 207.842 329.781 208.034Z" fill="#FFBF99"/>
<path d="M385.075 181.728C385.075 181.728 386.031 186.144 387.753 190.561C389.667 194.977 390.432 196.705 390.432 196.705C390.432 196.705 385.075 202.85 379.909 202.082C374.552 201.122 374.552 197.665 374.552 197.665C374.552 197.665 379.526 193.825 379.526 188.256C379.526 182.688 379.526 182.88 379.526 182.88L385.075 181.728Z" fill="#FFBF99"/>
<path d="M373.595 196.897C373.595 196.897 369.195 199.585 367.473 200.738C365.559 202.274 360.202 208.226 360.202 208.226L367.664 215.523L372.83 209.57L373.595 196.897Z" fill="#F59F1D"/>
<path d="M388.327 194.977C388.327 194.977 385.648 198.625 382.205 199.393C378.569 200.354 376.847 197.473 376.847 197.473L375.891 196.129C375.891 196.129 374.934 195.361 373.786 196.321C372.638 197.281 370.725 199.393 368.811 203.234C366.898 207.074 366.516 212.067 365.942 223.972C365.559 235.877 365.942 248.934 365.942 248.934H402.677L403.059 230.501C403.059 230.501 399.233 205.922 395.598 200.93C391.771 195.937 390.623 194.785 390.623 194.785C390.623 194.785 389.858 193.441 388.327 194.977Z" fill="#FCBE42"/>
<path d="M373.978 169.63C373.978 169.63 371.3 173.279 371.3 179.423C371.3 185.568 372.256 189.984 374.935 189.984C377.805 189.984 382.971 188.064 383.736 186.336C384.693 184.416 386.415 184.416 386.415 180.96C386.415 177.311 382.014 169.246 378.379 169.246C375.126 169.63 373.978 169.63 373.978 169.63Z" fill="#FFBF99"/>
<path d="M371.49 169.63C371.49 169.63 368.811 162.334 370.533 161.566C372.064 160.606 375.891 162.526 376.656 163.486C377.613 164.446 379.335 164.446 380.291 164.446C380.291 164.446 389.092 164.446 390.814 166.366C392.728 168.286 392.728 169.054 392.728 170.014C392.728 170.975 392.728 174.431 393.684 176.159C394.067 176.927 394.641 180.576 392.728 184.224C390.814 187.872 389.092 188.64 388.327 188.64C387.37 188.64 386.796 188.64 386.414 187.68C386.414 186.72 386.031 185.376 385.457 184.032C385.074 182.88 384.5 180.383 384.5 180.383C384.5 180.383 383.544 175.967 381.822 174.239C380.291 172.319 379.909 172.319 376.465 171.551C373.212 170.591 372.447 172.319 371.49 169.63Z" fill="#1A1155"/>
<path d="M383.544 176.351C382.205 177.887 383.927 180.576 383.927 180.576C383.927 180.576 386.605 181.536 386.605 178.655C386.414 175.967 384.883 174.431 383.544 176.351Z" fill="#EEBD98"/>
<path d="M401.338 213.987C401.338 213.987 404.4 226.66 404.208 234.917C403.634 242.982 401.338 249.894 399.616 254.887C397.703 259.495 396.746 261.032 396.746 263.912C396.746 266.984 395.216 270.633 393.685 272.169C391.772 274.089 390.624 275.049 390.624 275.049C390.624 275.049 388.328 276.009 388.711 274.089C388.711 274.089 387.18 274.089 387.754 273.129C387.754 273.129 385.841 273.129 387.18 271.593C388.711 270.056 391.007 268.712 391.007 268.712C391.007 268.712 392.537 266.408 390.433 267.56C388.328 268.712 386.606 268.712 388.328 266.792C390.241 264.872 392.154 261.608 394.259 255.655C395.79 249.51 397.894 237.797 395.598 228.388C393.302 219.363 390.433 216.291 390.433 216.291L401.338 213.987Z" fill="#FFBF99"/>
<path d="M408.991 353.585C408.991 353.585 407.078 358.577 405.356 361.074C403.442 363.378 401.721 364.914 401.721 364.914C401.721 364.914 399.425 368.562 402.103 367.602C404.782 366.45 418.94 357.041 418.94 357.041C418.94 357.041 421.045 355.889 420.088 354.161C419.131 352.625 417.027 348.976 417.027 348.976L408.991 353.585Z" fill="#1A1155"/>
<path d="M382.779 363.954C382.779 363.954 383.353 365.49 380.101 365.49C377.231 365.49 360.776 365.49 360.776 365.49C360.776 365.49 357.715 364.722 360.585 363.378C363.455 361.842 372.448 358.001 372.448 358.001C372.448 358.001 373.213 357.809 373.213 356.081H382.971L382.779 363.954Z" fill="#1A1155"/>
<path d="M387.37 205.346C387.37 205.346 386.605 199.201 391.006 198.625C395.406 198.049 398.276 203.81 399.807 207.458C401.337 211.299 402.103 214.179 402.103 214.179C402.103 214.179 392.728 218.019 390.24 218.019C390.049 218.019 387.944 211.875 387.37 205.346Z" fill="#F59F1D"/>
</svg>
