<svg width="500" height="370" viewBox="0 0 500 370" fill="none" xmlns="http://www.w3.org/2000/svg">
<path d="M94.9813 205.68C72.2767 191.862 65.0732 162.316 78.933 139.589C92.7929 116.862 122.428 109.771 145.223 123.589" stroke="#2626DB" stroke-width="1.13659" stroke-miterlimit="10" stroke-dasharray="6.82 6.82"/>
<path d="M85.4473 149.201C88.2274 144.658 86.8216 138.749 82.3075 136.003C77.7934 133.258 71.8802 134.715 69.1002 139.259C66.3201 143.802 67.7258 149.711 72.24 152.457C76.7541 155.202 82.6672 153.745 85.4473 149.201Z" fill="#FCBE42"/>
<path d="M73.918 140.953L74.921 148.226L80.2096 143.862" stroke="white" stroke-width="1.13659" stroke-miterlimit="10"/>
<path d="M191.818 133.499H226.559L251.452 247.044" stroke="#0064B7" stroke-width="2.27318" stroke-miterlimit="10"/>
<path d="M195.648 154.589H117.23C116.683 154.589 116.318 154.226 116.318 153.68V91.5892C116.318 91.0437 116.683 90.6801 117.23 90.6801H195.557C196.104 90.6801 196.469 91.0437 196.469 91.5892V153.771C196.56 154.226 196.104 154.589 195.648 154.589Z" fill="white" stroke="#C6D7F1" stroke-width="1.13659" stroke-miterlimit="10"/>
<path d="M148.688 143.317H130.543C129.905 143.317 129.357 142.771 129.357 142.135V141.68C129.357 141.044 129.905 140.498 130.543 140.498H148.688C149.327 140.498 149.874 141.044 149.874 141.68V142.135C149.874 142.771 149.327 143.317 148.688 143.317Z" fill="#DCE8F4"/>
<path d="M180.329 118.317H129.723C127.716 118.317 126.075 116.68 126.075 114.68V114.226C126.075 112.226 127.716 110.589 129.723 110.589H180.329C182.335 110.589 183.977 112.226 183.977 114.226V114.68C183.886 116.771 182.335 118.317 180.329 118.317Z" stroke="#231F20" stroke-width="0.568296" stroke-miterlimit="10"/>
<path d="M180.329 131.862H129.723C127.716 131.862 126.075 130.225 126.075 128.225V127.771C126.075 125.771 127.716 124.134 129.723 124.134H180.329C182.335 124.134 183.977 125.771 183.977 127.771V128.225C183.886 130.225 182.335 131.862 180.329 131.862Z" stroke="#231F20" stroke-width="0.568296" stroke-miterlimit="10"/>
<path d="M179.508 145.135H158.536C156.348 145.135 154.615 143.407 154.615 141.226V140.771C154.615 138.589 156.348 136.862 158.536 136.862H179.508C181.697 136.862 183.429 138.589 183.429 140.771V141.226C183.429 143.316 181.697 145.135 179.508 145.135Z" fill="#EE384E"/>
<path d="M170.754 104.862H138.293C137.199 104.862 136.287 103.953 136.287 102.862V101.044C136.287 99.953 137.199 99.0439 138.293 99.0439H170.754C171.849 99.0439 172.761 99.953 172.761 101.044V102.862C172.761 103.953 171.849 104.862 170.754 104.862Z" fill="#023EA1"/>
<path d="M152.427 208.771H196.56L259.385 270.044" stroke="#0064B7" stroke-width="2.27318" stroke-miterlimit="10"/>
<path d="M154.615 305.771H94.9809C93.9779 305.771 93.1572 304.953 93.1572 303.953V195.135C93.1572 194.135 93.9779 193.317 94.9809 193.317H154.615C155.618 193.317 156.439 194.135 156.439 195.135V303.953C156.439 304.953 155.618 305.771 154.615 305.771Z" fill="white" stroke="#C6D7F1" stroke-width="1.13659" stroke-miterlimit="10"/>
<path d="M137.655 256.316H112.123C111.12 256.316 110.3 255.498 110.3 254.498V254.043C110.3 253.043 111.12 252.225 112.123 252.225H137.655C138.658 252.225 139.479 253.043 139.479 254.043V254.498C139.479 255.498 138.658 256.316 137.655 256.316Z" stroke="#00A9FF" stroke-width="1.13659" stroke-miterlimit="10"/>
<path d="M146.043 266.862H103.096C102.184 266.862 101.546 266.135 101.546 265.317V265.135C101.546 264.226 102.275 263.589 103.096 263.589H146.043C146.955 263.589 147.594 264.317 147.594 265.135V265.317C147.685 266.135 146.955 266.862 146.043 266.862Z" fill="#DFE8F6"/>
<path d="M125.71 282.317H103.37C102.367 282.317 101.546 281.498 101.546 280.498V279.68C101.546 278.68 102.367 277.862 103.37 277.862H125.71C126.713 277.862 127.533 278.68 127.533 279.68V280.498C127.533 281.498 126.713 282.317 125.71 282.317Z" fill="#DFE8F6"/>
<path d="M146.135 273.317H103.005C102.184 273.317 101.546 272.68 101.546 271.862V271.68C101.546 270.862 102.184 270.226 103.005 270.226H146.135C146.955 270.226 147.594 270.862 147.594 271.68V271.862C147.685 272.68 146.955 273.317 146.135 273.317Z" fill="#DFE8F6"/>
<path d="M135.831 297.014H113.947C111.941 297.014 110.3 295.377 110.3 293.377V292.468C110.3 290.468 111.941 288.832 113.947 288.832H135.831C137.837 288.832 139.479 290.468 139.479 292.468V293.377C139.479 295.377 137.928 297.014 135.831 297.014Z" fill="#EE384E"/>
<path d="M125.345 243.589C136.474 243.589 145.496 234.594 145.496 223.498C145.496 212.403 136.474 203.408 125.345 203.408C114.216 203.408 105.193 212.403 105.193 223.498C105.193 234.594 114.216 243.589 125.345 243.589Z" fill="#C6D7F0"/>
<path d="M274.978 92.1816C274.978 92.1816 271.513 87.2725 275.798 84.2725C280.084 81.2725 287.47 83.7271 287.834 87.9998C288.199 92.2725 285.19 94.0907 288.29 95.7271C291.391 97.3634 299.05 103.091 296.041 106.818C292.941 110.545 287.743 109 288.108 115.182C288.473 121.363 298.868 125.909 290.661 131.545C282.455 137.182 266.133 143.545 264.036 128.363C261.938 113.182 275.251 120.363 270.418 109.545C265.586 98.7271 272.06 100.545 275.069 97.7271C277.987 94.9998 274.978 92.1816 274.978 92.1816Z" fill="#023EA1"/>
<path d="M281.908 99.8183C281.908 99.8183 277.713 115.182 278.899 129.455C280.084 143.727 282.728 146.546 282.728 146.546" stroke="white" stroke-width="1.13659" stroke-miterlimit="10" stroke-linecap="round" stroke-linejoin="round"/>
<path d="M263.124 148.091C263.124 148.091 253.002 113.364 255.647 88.3636" stroke="#EB4B57" stroke-width="1.13659" stroke-miterlimit="10"/>
<path d="M259.75 73.0906C259.75 73.0906 264.218 83.2724 255.374 90.9088C255.374 90.9997 250.085 82.8178 259.75 73.0906Z" stroke="#EB4B57" stroke-width="1.13659" stroke-miterlimit="10"/>
<path d="M256.012 111.818C256.012 111.818 256.65 101.546 268.686 98.7274C268.686 98.7274 270.966 108 256.012 111.818Z" stroke="#EB4B57" stroke-width="1.13659" stroke-miterlimit="10"/>
<path d="M260.024 135.637C260.024 135.637 258.656 125.455 269.963 120.273C269.963 120.364 273.883 129 260.024 135.637Z" stroke="#EB4B57" stroke-width="1.13659" stroke-miterlimit="10"/>
<path d="M259.658 135.909C259.658 135.909 257.652 125.818 245.343 124.637C245.343 124.546 244.34 134 259.658 135.909Z" stroke="#EB4B57" stroke-width="1.13659" stroke-miterlimit="10"/>
<path d="M256.102 111.727C256.102 111.727 255.373 101.455 243.337 98.7274C243.337 98.7274 241.148 107.909 256.102 111.727Z" stroke="#EB4B57" stroke-width="1.13659" stroke-miterlimit="10"/>
<path d="M201.119 314C201.119 314 201.757 318.181 203.763 324.272L211.605 328.09L205.587 329.09C212.517 346 229.386 370.636 267.774 365.818C267.865 365.818 286.649 317.363 201.119 314Z" fill="#FCBE42"/>
<path d="M211.241 340.09L243.155 343.545L201.119 314" stroke="white" stroke-width="1.13659" stroke-miterlimit="10"/>
<path d="M227.927 317.091L243.154 343.545" stroke="white" stroke-width="1.13659" stroke-miterlimit="10"/>
<path d="M225.556 284.909C225.556 284.909 236.042 277.818 238.048 283.909C240.054 290.091 243.063 289.818 246.072 289.364C249.081 288.909 254.278 286.091 256.011 292.636C257.743 299.182 255.92 303.364 259.02 305.455C262.12 307.546 271.512 319.909 265.22 322.273C258.929 324.636 251.543 319.364 249.081 316.364C246.619 313.364 241.148 313.273 236.862 314.273C232.577 315.273 227.106 313.273 228.929 308.182C230.753 303 228.109 297.818 224.279 296.727C220.358 295.727 218.534 289.818 225.556 284.909Z" fill="#023EA1"/>
<path d="M231.118 290.909L267.227 327.363" stroke="white" stroke-width="1.13659" stroke-miterlimit="10" stroke-linecap="round" stroke-linejoin="round"/>
<path d="M248.716 294L245.798 305.728L233.488 308.182" stroke="white" stroke-width="1.13659" stroke-miterlimit="10" stroke-linecap="round" stroke-linejoin="round"/>
<path d="M216.164 301.182C216.164 301.182 216.164 307.727 220.632 305.182C225.1 302.546 228.2 302.455 230.115 307.364C232.03 312.273 235.221 314 238.231 313.182C241.148 312.273 246.346 309.818 248.625 316.637C250.905 323.455 256.194 336.182 249.081 339.546C241.969 342.909 230.662 338.455 228.93 333.273C227.197 328.091 229.021 323.818 223.276 322.182C217.532 320.546 216.711 326.182 211.696 322.364C206.681 318.546 201.21 315.091 204.949 307.182C208.414 300 215.252 297.546 216.164 301.182Z" stroke="#EE384E" stroke-width="1.13659" stroke-miterlimit="10"/>
<path d="M215.07 308.727C215.07 308.727 246.62 332.909 256.012 337.182" stroke="#EE384E" stroke-width="1.13659" stroke-miterlimit="10"/>
<path d="M240.236 317.636L241.148 327.909L233.124 331.364" stroke="#EE384E" stroke-width="1.13659" stroke-miterlimit="10"/>
<path d="M224.371 307.909L223.915 315.454L217.623 319.181" stroke="#EE384E" stroke-width="1.13659" stroke-miterlimit="10"/>
<path d="M357.225 370H253.093C248.078 370 243.975 365.909 243.975 360.909V139.273C243.975 134.273 248.078 130.182 253.093 130.182H357.225C362.24 130.182 366.343 134.273 366.343 139.273V360.909C366.252 365.909 362.24 370 357.225 370Z" fill="#0064B7"/>
<path d="M354.033 355.636H256.375C253.366 355.636 250.904 353.181 250.904 350.181V148.09C250.904 145.09 253.366 142.636 256.375 142.636H354.033C357.042 142.636 359.504 145.09 359.504 148.09V350.181C359.504 353.181 357.042 355.636 354.033 355.636Z" fill="white"/>
<path d="M270.599 152.272H263.67C263.305 152.272 263.031 152 263.031 151.636V151.545C263.031 151.182 263.305 150.909 263.67 150.909H270.599C270.964 150.909 271.238 151.182 271.238 151.545V151.636C271.238 152 270.873 152.272 270.599 152.272Z" fill="#0064B7"/>
<path d="M270.599 154.455H263.67C263.305 154.455 263.031 154.182 263.031 153.818V153.727C263.031 153.364 263.305 153.091 263.67 153.091H270.599C270.964 153.091 271.238 153.364 271.238 153.727V153.818C271.238 154.182 270.873 154.455 270.599 154.455Z" fill="#0064B7"/>
<path d="M270.599 156.636H263.67C263.305 156.636 263.031 156.363 263.031 155.999V155.908C263.031 155.545 263.305 155.272 263.67 155.272H270.599C270.964 155.272 271.238 155.545 271.238 155.908V155.999C271.238 156.363 270.873 156.636 270.599 156.636Z" fill="#0064B7"/>
<path d="M304.612 165.091C295.858 165.091 287.925 168.455 281.907 173.909L289.293 182.818C293.396 178.636 299.141 176.091 305.433 176.091C317.834 176.091 327.955 186.182 327.955 198.545C327.955 201.364 327.408 204.091 326.496 206.545L335.888 210.818C337.347 207 338.167 202.909 338.167 198.636C338.167 180.091 323.122 165.091 304.612 165.091Z" fill="#0064B7"/>
<path d="M282.91 198.454C282.91 192.363 285.371 186.818 289.292 182.818L281.906 173.909C275.25 180 271.056 188.818 271.056 198.545C271.056 207.909 274.977 216.363 281.177 222.454L289.748 214.545C285.554 210.454 282.91 204.818 282.91 198.454Z" fill="#00A9FF"/>
<path d="M304.612 232C318.745 232 330.873 223.091 335.797 210.818L326.496 206.545C323.122 214.727 314.824 221 305.433 221C299.323 221 293.761 218.545 289.749 214.636L281.178 222.545C287.196 228.363 295.494 232 304.612 232Z" fill="#EE384E"/>
<path d="M276.801 245.727C278.009 245.727 278.989 244.75 278.989 243.545C278.989 242.34 278.009 241.363 276.801 241.363C275.592 241.363 274.612 242.34 274.612 243.545C274.612 244.75 275.592 245.727 276.801 245.727Z" fill="#00A9FF"/>
<path d="M298.32 245.727C299.529 245.727 300.509 244.75 300.509 243.545C300.509 242.34 299.529 241.363 298.32 241.363C297.112 241.363 296.132 242.34 296.132 243.545C296.132 244.75 297.112 245.727 298.32 245.727Z" fill="#EE384E"/>
<path d="M321.298 245.727C322.506 245.727 323.486 244.75 323.486 243.545C323.486 242.34 322.506 241.363 321.298 241.363C320.089 241.363 319.109 242.34 319.109 243.545C319.109 244.75 320.089 245.727 321.298 245.727Z" fill="#0064B7"/>
<path d="M289.84 244.454H282.363C281.907 244.454 281.451 244.091 281.451 243.545V243.454C281.451 243 281.816 242.545 282.363 242.545H289.84C290.296 242.545 290.752 242.909 290.752 243.454V243.545C290.752 244.091 290.387 244.454 289.84 244.454Z" fill="#DFE8F6"/>
<path d="M312.545 244.454H305.068C304.612 244.454 304.156 244.091 304.156 243.545V243.454C304.156 243 304.521 242.545 305.068 242.545H312.545C313.001 242.545 313.457 242.909 313.457 243.454V243.545C313.366 244.091 313.001 244.454 312.545 244.454Z" fill="#DFE8F6"/>
<path d="M334.246 244.454H326.769C326.313 244.454 325.857 244.091 325.857 243.545V243.454C325.857 243 326.222 242.545 326.769 242.545H334.246C334.702 242.545 335.158 242.909 335.158 243.454V243.545C335.158 244.091 334.702 244.454 334.246 244.454Z" fill="#DFE8F6"/>
<path d="M344.367 257.272H264.308C263.579 257.272 262.94 256.636 262.94 255.909V255.818C262.94 255.09 263.579 254.454 264.308 254.454H344.367C345.097 254.454 345.735 255.09 345.735 255.818V255.909C345.735 256.636 345.097 257.272 344.367 257.272Z" fill="#DCE8F5"/>
<path d="M344.367 264.818H264.308C263.579 264.818 262.94 264.181 262.94 263.454V263.363C262.94 262.636 263.579 262 264.308 262H344.367C345.097 262 345.735 262.636 345.735 263.363V263.454C345.735 264.181 345.097 264.818 344.367 264.818Z" fill="#DCE8F5"/>
<path d="M328.136 271.363H264.217C263.578 271.363 263.031 270.818 263.031 270.181V269.818C263.031 269.181 263.578 268.636 264.217 268.636H328.136C328.775 268.636 329.322 269.181 329.322 269.818V270.181C329.322 270.818 328.775 271.363 328.136 271.363Z" fill="#DCE8F5"/>
<path d="M276.801 335.545H269.962V345.999H276.801V335.545Z" fill="#C7D7F0"/>
<path d="M287.195 328.727H280.539V345.909H287.195V328.727Z" fill="#C7D7F0"/>
<path d="M297.408 323.545H290.752V346H297.408V323.545Z" fill="#C7D7F0"/>
<path d="M329.322 317.091H322.21V345.909H329.322V317.091Z" fill="#C7D7F0"/>
<path d="M339.535 314.909H332.423V346.454H339.535V314.909Z" fill="#C7D7F0"/>
<path d="M319.109 320.818H311.997V346H319.109V320.818Z" fill="#C7D7F0"/>
<path d="M308.168 318.363H302.059V345.909H308.168V318.363Z" fill="#C7D7F0"/>
<path d="M276.801 327.181H269.962V335.454H276.801V327.181Z" fill="#0064B7"/>
<path d="M287.195 322H280.539V328.727H287.195V322Z" fill="#0064B7"/>
<path d="M297.408 311.909H290.752V323.545H297.408V311.909Z" fill="#0064B7"/>
<path d="M308.168 306.636H302.059V318.364H308.168V306.636Z" fill="#0064B7"/>
<path d="M319.109 310.363H311.997V320.818H319.109V310.363Z" fill="#0064B7"/>
<path d="M329.322 303.636H322.21V317.182H329.322V303.636Z" fill="#0064B7"/>
<path d="M339.535 297.727H332.423V314.909H339.535V297.727Z" fill="#0064B7"/>
<path d="M273.244 313.727C273.244 313.727 281.359 306.636 290.751 303.636C290.751 303.636 298.32 300.909 300.508 292.909C300.508 292.909 302.97 284.909 309.718 291.636C309.718 291.636 314.824 296.818 319.201 292.273C319.201 292.273 326.313 280 337.711 280.909" stroke="#EE384E" stroke-width="1.13659" stroke-miterlimit="10"/>
<path d="M348.407 124.803C348.407 124.803 351.862 124.975 354.366 124.975C356.871 124.975 360.843 125.492 360.843 125.492C360.843 125.492 361.879 125.492 361.966 126.783C362.052 128.075 362.052 128.591 362.052 128.591C362.052 128.591 362.139 130.141 360.93 130.141C359.72 130.141 352.034 131.002 350.307 131.002C348.58 131.002 347.285 131.347 347.285 130.141C347.285 128.85 347.198 124.717 348.407 124.803Z" fill="#170856"/>
<path d="M351.257 88.3821C351.257 88.3821 353.502 100.781 353.675 104.052C353.847 107.324 354.193 109.821 352.034 111.113C349.875 112.404 346.334 113.61 346.334 113.61L341.93 91.4818V88.8987L351.257 88.3821Z" fill="#FFBF99"/>
<path d="M313.259 87.6935C313.259 87.6935 312.05 93.29 311.704 96.1313C311.359 98.9726 310.581 104.483 310.495 105.775C310.409 107.066 310.236 109.219 312.568 110.855C314.899 112.49 317.404 113.438 317.404 113.438L322.154 87.7796L313.259 87.6935Z" fill="#FFBF99"/>
<path d="M330.271 69.957C330.271 69.957 330.271 72.54 329.148 73.6593C328.026 74.7786 326.558 76.5867 326.558 76.5867C326.558 76.5867 329.148 80.6335 334.33 80.1169C339.512 79.6003 340.375 75.8979 340.375 75.8979C340.375 75.8979 335.453 75.2091 334.935 70.6458C334.416 66.0825 333.639 66.0825 333.639 66.0825L330.271 69.957Z" fill="#FFB07E"/>
<path d="M326.472 59.7108C326.472 59.7108 326.644 65.5656 329.408 70.2151C332.171 74.8645 335.453 72.1954 336.749 69.8706C338.044 67.5459 341.498 59.7108 340.808 57.7305C340.03 55.7501 329.926 54.803 329.926 54.803L326.472 59.7108Z" fill="#FFBF99"/>
<path d="M339.598 63.0688C339.598 63.0688 341.066 61.9495 341.066 63.0688C341.066 64.1881 340.289 65.824 339.425 65.9962C338.475 66.1684 338.648 65.6518 338.907 64.8769C338.993 64.102 339.598 63.0688 339.598 63.0688Z" fill="#FFBF99"/>
<path d="M326.903 65.3074C327.335 65.4796 327.767 65.5657 327.767 64.963C327.767 63.8437 326.99 62.2078 326.126 62.0356C325.263 61.8634 325.349 62.38 325.608 63.1549C325.694 63.4132 325.781 63.6715 325.867 64.0159C326.04 64.4464 326.558 65.2213 326.903 65.3074Z" fill="#FFBF99"/>
<path d="M326.731 62.3804L326.558 60.5723C326.558 60.5723 328.199 60.7445 330.099 58.9364C330.099 58.9364 333.726 59.7113 336.576 59.453C339.599 59.1947 340.894 58.3337 340.894 58.3337C340.894 58.3337 340.376 61.7777 339.858 62.8109C339.858 62.8109 341.326 62.2082 341.844 60.5723C342.362 58.9364 342.276 57.1282 342.276 57.1282C342.276 57.1282 344.348 55.4923 344.867 53.5981C344.867 53.5981 339.339 52.3066 337.699 51.1873C336.058 50.068 335.108 49.3792 335.108 49.3792C335.108 49.3792 332.517 47.9155 329.926 49.8958C327.335 51.8761 325.694 52.9954 325.694 56.5255C325.781 56.6116 323.363 59.8835 326.731 62.3804Z" fill="#160C56"/>
<path d="M327.162 74.6925C327.162 74.6925 323.621 74.262 321.721 74.7786C319.821 75.2952 319.217 74.9508 319.735 76.4145C320.253 77.8782 322.844 84.5941 321.635 88.813C320.426 93.0319 318.785 114.557 318.785 114.557C318.785 114.557 331.912 115.074 337.007 115.332C342.103 115.59 345.902 114.643 345.902 114.643C345.902 114.643 347.025 105.344 345.902 101.298C344.78 97.2509 343.312 90.3628 343.312 90.3628C343.312 90.3628 342.362 80.8917 343.657 78.567C344.952 76.2423 345.902 76.1562 344.262 75.5535C342.621 74.9508 340.807 74.4342 339.512 74.4342C338.216 74.4342 337.525 74.4342 336.748 75.2091C335.971 75.984 334.416 77.5338 332.257 77.1894C330.098 76.845 328.458 75.3813 328.458 75.3813C328.458 75.3813 327.767 74.7786 327.162 74.6925Z" fill="#0083F9"/>
<path d="M320.944 75.4673C320.944 75.4673 319.735 74.8646 317.922 76.4144C316.022 78.0503 314.554 81.6665 313.863 83.9052C313.172 86.1438 312.74 88.3824 312.74 88.3824C312.74 88.3824 315.245 89.6739 317.836 89.76C320.426 89.8461 322.154 90.0183 322.154 90.0183C322.154 90.0183 323.276 83.3024 323.017 80.2889C322.758 77.2754 322.326 76.1561 320.944 75.4673Z" fill="#0064B7"/>
<path d="M342.621 77.8782C342.621 77.8782 343.657 75.0368 345.989 76.3283C348.321 77.6198 350.048 82.5276 350.566 84.0774C351.084 85.6272 351.775 88.7268 351.775 88.7268C351.775 88.7268 349.012 89.9322 346.68 90.1044C344.348 90.2766 342.707 90.4488 342.707 90.4488C342.707 90.4488 341.757 84.3357 341.93 81.9249C342.103 79.5141 342.621 77.8782 342.621 77.8782Z" fill="#0064B7"/>
<path d="M323.621 116.451H341.325L332.171 119.206L323.621 116.451Z" fill="#91051C"/>
<path d="M307.904 111.457C307.904 111.457 340.117 121.531 347.198 124.028C347.198 124.028 349.53 124.631 349.616 125.836C349.703 127.041 349.443 128.763 349.184 129.624C348.925 130.485 348.148 131.174 346.853 130.916C345.557 130.658 316.713 124.889 305.227 121.875L301.945 120.842C301.945 120.842 299.527 119.723 299.959 116.795C300.391 113.868 302.55 111.285 304.104 111.113C305.659 110.941 307.904 111.457 307.904 111.457Z" fill="#DE051F"/>
<path d="M304.967 125.664C304.967 125.664 309.026 124.975 311.444 124.889C313.862 124.803 317.058 124.545 317.576 124.889C318.094 125.234 318.526 129.883 318.526 129.883C318.526 129.883 318.958 131.175 315.762 130.916C312.567 130.658 305.226 130.4 305.226 130.4C305.226 130.4 303.585 130.314 303.499 128.85C303.413 127.386 303.672 126.697 303.672 126.697C303.672 126.697 303.931 125.836 304.967 125.664Z" fill="#170856"/>
<path d="M324.226 121.531C324.226 121.531 343.83 115.59 350.739 113.524C357.734 111.457 361.62 109.563 363.865 112.835C366.111 116.107 365.938 119.723 363.347 120.756C360.756 121.79 340.462 126.525 331.998 128.247C323.535 129.969 318.008 131.088 317.231 130.744C316.453 130.4 315.59 127.903 315.763 126.525C315.935 125.147 316.022 124.631 317.662 123.942C319.303 123.253 324.226 121.531 324.226 121.531Z" fill="#EE384E"/>
<path d="M321.981 93.2036H345.471C345.471 93.2036 346.767 93.0314 346.767 94.7534C346.767 96.4754 346.767 115.073 346.767 115.073C346.767 115.073 346.853 116.451 345.817 116.451C344.78 116.451 318.181 116.451 318.181 116.451C318.181 116.451 317.059 116.795 317.059 114.901C317.059 113.007 317.059 94.2368 317.059 94.2368C317.059 94.2368 316.972 93.2036 318.354 93.2036C319.736 93.2036 321.981 93.2036 321.981 93.2036Z" fill="#170856"/>
<path d="M345.736 156.818H281.178C279.536 156.818 278.26 155.545 278.26 153.909C278.26 152.273 279.536 151 281.178 151H345.736C347.377 151 348.653 152.273 348.653 153.909C348.653 155.545 347.377 156.818 345.736 156.818Z" fill="#DCE8F5"/>
<path d="M384.922 173.983L377.811 175.971L379.805 183.062L386.917 181.074L384.922 173.983Z" fill="#EE384E"/>
<path d="M183.183 280.399L176.071 282.387L178.065 289.477L185.177 287.489L183.183 280.399Z" fill="#EE384E"/>
<path d="M187.132 174.01L180.021 175.998L182.015 183.089L189.127 181.101L187.132 174.01Z" fill="#003EB0"/>
<path d="M430.196 115.22C430.105 115.13 430.013 115.13 429.831 115.13L427.552 115.402C427.278 115.402 427.004 115.221 426.913 114.948C426.64 113.857 426.275 112.948 425.637 111.948C425.454 111.675 425.546 111.402 425.728 111.13L427.369 109.857C427.46 109.766 427.552 109.675 427.552 109.493C427.552 109.311 427.552 109.221 427.46 109.13L424.907 106.584C424.816 106.493 424.725 106.402 424.542 106.493C424.451 106.493 424.269 106.584 424.178 106.675L422.901 108.311C422.719 108.584 422.354 108.584 422.081 108.402C421.169 107.857 420.166 107.402 419.071 107.13C418.798 107.039 418.524 106.766 418.616 106.493L418.889 104.221C418.889 104.13 418.889 103.948 418.798 103.857C418.707 103.766 418.616 103.675 418.433 103.675H414.786C414.695 103.675 414.512 103.766 414.421 103.857C414.33 103.948 414.33 104.039 414.33 104.221L414.603 106.493C414.603 106.766 414.421 107.039 414.148 107.13C413.053 107.402 412.142 107.766 411.139 108.402C410.865 108.584 410.591 108.493 410.318 108.311L409.041 106.675C408.95 106.584 408.859 106.493 408.677 106.493C408.494 106.493 408.403 106.493 408.312 106.584L405.759 109.13C405.668 109.221 405.668 109.311 405.668 109.493C405.668 109.675 405.759 109.766 405.85 109.857L407.491 111.13C407.765 111.311 407.765 111.675 407.582 111.948C407.035 112.857 406.579 113.857 406.306 114.948C406.215 115.221 405.941 115.402 405.668 115.402L403.388 115.13C403.297 115.13 403.114 115.13 403.023 115.22C402.932 115.311 402.841 115.402 402.841 115.584V119.22C402.841 119.311 402.932 119.493 403.023 119.584C403.114 119.675 403.206 119.675 403.388 119.675L405.668 119.402C405.941 119.402 406.215 119.584 406.306 119.857C406.579 120.948 406.944 121.857 407.582 122.857C407.765 123.13 407.674 123.493 407.491 123.584L405.85 124.857C405.759 124.948 405.668 125.039 405.668 125.22C405.668 125.311 405.668 125.493 405.759 125.584L408.312 128.13C408.403 128.22 408.494 128.311 408.677 128.22C408.768 128.22 408.95 128.13 409.041 128.039L410.318 126.402C410.5 126.13 410.865 126.13 411.139 126.22C412.05 126.766 413.053 127.22 414.148 127.402C414.421 127.493 414.695 127.766 414.603 128.039L414.33 130.311C414.33 130.402 414.33 130.584 414.421 130.675C414.512 130.766 414.603 130.857 414.786 130.857H418.433C418.524 130.857 418.707 130.766 418.798 130.675C418.889 130.584 418.889 130.493 418.889 130.311L418.616 128.039C418.616 127.766 418.798 127.493 419.071 127.402C420.166 127.13 421.078 126.766 422.081 126.22C422.354 126.039 422.628 126.13 422.901 126.402L424.178 128.039C424.269 128.13 424.36 128.22 424.542 128.22C424.725 128.22 424.816 128.22 424.907 128.13L427.46 125.584C427.552 125.493 427.552 125.402 427.552 125.22C427.552 125.039 427.46 124.948 427.369 124.857L425.728 123.584C425.454 123.402 425.454 123.039 425.637 122.857C426.184 121.948 426.64 120.948 426.913 119.857C427.004 119.584 427.278 119.402 427.552 119.402L429.831 119.675C429.922 119.675 430.105 119.675 430.196 119.584C430.287 119.493 430.378 119.402 430.378 119.22V115.584C430.378 115.493 430.378 115.311 430.196 115.22ZM429.466 118.675L427.643 118.493C426.913 118.402 426.184 118.857 426.001 119.675C425.819 120.584 425.363 121.584 424.907 122.402C424.542 123.039 424.634 123.857 425.272 124.402L426.549 125.402L424.725 127.22L423.722 125.948C423.266 125.311 422.445 125.22 421.807 125.584C420.986 126.13 420.074 126.493 419.071 126.675C418.342 126.857 417.795 127.584 417.886 128.311L418.068 130.13H415.515L415.698 128.311C415.789 127.584 415.333 126.857 414.512 126.675C413.509 126.493 412.597 126.039 411.777 125.584C411.139 125.22 410.318 125.311 409.862 125.948L408.859 127.22L407.035 125.402L408.312 124.402C408.95 123.948 409.041 123.13 408.677 122.402C408.129 121.584 407.765 120.675 407.582 119.675C407.4 118.948 406.671 118.402 405.941 118.493L404.117 118.675V116.13L405.941 116.311C406.671 116.402 407.4 115.948 407.582 115.13C407.765 114.221 408.221 113.221 408.677 112.402C409.041 111.766 408.95 110.948 408.312 110.493L407.035 109.493L408.859 107.675L409.862 108.948C410.318 109.584 411.139 109.675 411.777 109.311C412.597 108.766 413.509 108.402 414.512 108.221C415.242 108.039 415.789 107.311 415.698 106.584L415.515 104.766H418.068L417.886 106.584C417.795 107.311 418.251 108.039 419.071 108.221C420.074 108.402 420.986 108.857 421.807 109.311C422.445 109.675 423.266 109.584 423.722 108.948L424.725 107.675L426.549 109.493L425.272 110.493C424.634 110.948 424.542 111.766 424.907 112.402C425.454 113.221 425.819 114.13 426.001 115.13C426.184 115.857 426.913 116.402 427.643 116.311L429.466 116.13V118.675Z" stroke="#003EB0" stroke-width="1.13659" stroke-miterlimit="10"/>
<path d="M416.792 111.039C413.327 111.039 410.5 113.857 410.5 117.402C410.5 120.948 413.327 123.766 416.792 123.766C420.257 123.766 423.083 120.948 423.083 117.402C423.175 113.857 420.348 111.039 416.792 111.039ZM416.792 122.766C413.783 122.766 411.412 120.311 411.412 117.311C411.412 114.311 413.874 111.857 416.792 111.857C419.71 111.857 422.171 114.311 422.171 117.311C422.171 120.311 419.801 122.766 416.792 122.766Z" stroke="#003EB0" stroke-width="1.13659" stroke-miterlimit="10"/>
<path d="M404.227 255.634L399.304 255.543L393.741 255.088C393.741 255.088 393.103 258.452 396.294 258.906C399.486 259.361 404.319 259.906 405.139 259.725C405.869 259.634 404.227 255.634 404.227 255.634Z" fill="#FFBF9C"/>
<path d="M407.875 231.27C407.875 231.27 402.768 236.634 402.039 239.361C401.309 242.088 402.951 246.452 403.498 247.634C404.045 248.816 403.68 264.725 403.68 264.725L424.379 264.816L424.288 231.27H407.875Z" fill="#0064E1"/>
<path d="M395.747 215.543C395.747 215.543 396.203 219.634 397.115 222.18V224.271C397.115 224.543 397.389 224.725 397.662 224.725L398.939 224.634L398.848 226.271C398.848 226.452 399.03 226.725 399.212 226.725L400.215 226.816C400.398 226.816 400.58 226.998 400.489 227.271L400.307 227.998C400.215 228.18 400.398 228.452 400.58 228.452C401.31 228.634 402.951 228.725 404.866 227.452C406.872 226.089 408.057 226.816 408.057 227.998C408.057 229.271 407.054 233.089 408.695 233.907C410.154 234.634 414.531 234.271 415.261 233.361C416.264 232.361 415.17 229.816 413.802 228.452C412.799 227.452 411.249 215.998 408.878 214.907C406.507 213.816 395.747 215.543 395.747 215.543Z" fill="#FFBD99"/>
<path d="M419.637 247.452L419.819 254.543C419.819 255.088 419.364 255.634 418.816 255.634C418.178 255.634 417.631 255.634 416.172 255.088C412.889 253.816 405.139 249.452 404.045 248.907C403.954 248.907 403.954 248.816 403.862 248.725C403.68 248.27 402.768 246.907 400.306 247.088C397.479 247.27 396.75 247.907 397.024 248.816C397.297 249.725 397.571 249.634 397.571 249.634L397.206 250.179C397.206 250.179 397.571 251.088 398.847 251.088C400.033 251.088 401.583 250.452 401.947 250.907C402.312 251.27 414.713 259.543 417.54 261.452C417.996 261.725 418.452 261.907 418.908 261.997C420.822 262.452 425.108 262.997 425.838 259.997C426.658 256.27 426.658 247.725 426.658 247.725L419.637 247.452Z" fill="#FFBF9C"/>
<path d="M419.546 234.998C419.181 234.816 418.816 235.089 418.816 235.452L418.725 248.179C418.725 248.452 418.999 248.725 419.272 248.725C419.728 248.725 420.458 248.725 421.917 248.725C424.196 248.725 426.02 248.725 426.841 248.725C427.114 248.725 427.388 248.452 427.297 248.179L427.114 239.27C427.114 239.089 427.023 238.907 426.841 238.816L419.546 234.998Z" fill="#003EB0"/>
<path d="M434.5 240.543C435.503 236.543 428.573 230.998 428.573 230.998C428.573 230.998 425.108 229.725 424.47 225.725C423.832 221.725 420.093 220.543 418.361 219.18C416.628 217.816 415.534 214.452 415.534 214.452L415.352 213.543C415.352 213.543 412.616 201.18 402.951 204.271C402.951 204.271 398.483 205.816 396.75 209.271C396.75 209.271 390.368 210.271 391.735 215.271C393.103 220.271 396.021 217.18 396.021 217.18C396.021 217.18 397.297 214.543 398.665 216.361C400.033 218.18 403.224 219.361 404.227 217.634C405.23 215.907 407.236 214.725 407.784 217.361L407.875 218.634C407.875 218.634 412.708 224.543 413.163 226.725C413.711 228.907 415.078 231.816 417.358 233.18C419.637 234.543 422.282 239.998 423.285 242.998C424.288 245.998 433.133 246.361 434.5 240.543Z" fill="#170D54"/>
<path d="M385.718 240.816L373.043 241.18L388.636 258.361L401.675 257.907L385.718 240.816Z" fill="#14094F"/>
<path d="M384.896 253.452C384.896 253.452 383.62 255.907 384.805 256.452C385.991 256.998 387.085 257.361 387.632 256.725C388.179 256.088 388.453 254.179 387.814 254.27C387.267 254.361 386.903 254.361 386.903 254.361L386.811 253.816C386.811 253.634 386.72 253.452 386.629 253.361C386.082 253.179 385.17 252.725 384.896 253.452Z" fill="#FFBF9C"/>
<path d="M407.237 264.634L403.589 264.543L403.407 363.27L411.431 363.361L415.717 298.815L407.237 264.634Z" fill="#DE051F"/>
<path d="M424.288 264.816C424.288 264.816 424.47 268.18 424.652 269.452C424.835 270.271 429.485 277.998 425.747 287.543C425.655 287.725 425.655 287.907 425.655 288.089C425.564 290.18 425.017 302.998 427.753 309.725L441.795 354.998L436.415 358.816C436.415 358.816 417.996 319.452 417.449 317.634C416.902 315.816 405.139 277.271 406.598 266.452L406.872 264.452L424.288 264.816Z" fill="#EE384E"/>
<path d="M403.407 363.27C403.407 363.27 398.665 365.907 396.477 366.452C394.836 366.907 394.38 368.179 394.289 368.725C394.289 368.907 394.38 368.998 394.562 368.998H411.34V363.361L403.407 363.27Z" fill="#1C1457"/>
<path d="M436.415 358.907C436.415 358.907 434.956 362.907 432.038 365.27C429.121 367.634 432.038 369.179 432.038 369.179L444.439 361.452C444.531 361.452 444.531 361.361 444.531 361.361C444.713 361.089 445.26 359.816 444.622 358.634C443.892 357.27 441.886 355.089 441.886 355.089L436.415 358.907Z" fill="#1C1457"/>
<mask id="mask0_1398_1645" style="mask-type:luminance" maskUnits="userSpaceOnUse" x="105" y="203" width="41" height="41">
<path d="M125.345 243.589C136.474 243.589 145.496 234.594 145.496 223.498C145.496 212.403 136.474 203.408 125.345 203.408C114.216 203.408 105.193 212.403 105.193 223.498C105.193 234.594 114.216 243.589 125.345 243.589Z" fill="white"/>
</mask>
<g mask="url(#mask0_1398_1645)">
<path d="M141.575 243.589C141.575 243.589 143.49 254.135 143.672 256.953C143.855 259.771 144.128 261.862 142.305 262.953C140.481 264.044 137.472 265.044 137.472 265.044L133.733 246.135V243.953L141.575 243.589Z" fill="#FFBF99"/>
<path d="M109.114 242.953C109.114 242.953 108.111 247.68 107.838 250.135C107.564 252.589 106.835 257.226 106.835 258.317C106.744 259.408 106.652 261.226 108.567 262.68C110.482 264.135 112.671 264.862 112.671 264.862L116.683 242.953H109.114Z" fill="#FFBF99"/>
<path d="M123.612 227.771C123.612 227.771 123.612 229.953 122.7 230.953C121.788 231.862 120.512 233.498 120.512 233.498C120.512 233.498 122.7 236.953 127.168 236.498C131.636 236.044 132.366 232.862 132.366 232.862C132.366 232.862 128.171 232.317 127.715 228.408C127.259 224.498 126.621 224.498 126.621 224.498L123.612 227.771Z" fill="#FFBF99"/>
<path d="M120.968 231.862C120.968 231.862 117.959 231.498 116.318 231.953C114.676 232.407 114.221 232.135 114.585 233.316C115.041 234.589 117.23 240.316 116.227 243.862C115.224 247.498 113.765 265.862 113.765 265.862C113.765 265.862 124.98 266.316 129.266 266.498C133.643 266.68 136.834 265.953 136.834 265.953C136.834 265.953 137.837 258.044 136.834 254.589C135.831 251.135 134.646 245.226 134.646 245.226C134.646 245.226 133.825 237.135 134.919 235.135C136.013 233.135 136.834 233.044 135.466 232.589C134.099 232.135 132.548 231.589 131.454 231.589C130.36 231.589 129.722 231.589 129.083 232.226C128.445 232.862 127.077 234.225 125.254 233.953C123.43 233.68 121.971 232.407 121.971 232.407C121.971 232.407 121.515 231.953 120.968 231.862Z" fill="#1B3A62"/>
<path d="M115.679 232.498C115.679 232.498 114.676 231.953 113.126 233.316C111.485 234.771 110.208 237.771 109.661 239.68C109.114 241.589 108.658 243.498 108.658 243.498C108.658 243.498 110.755 244.589 113.035 244.68C115.223 244.771 116.682 244.862 116.682 244.862C116.682 244.862 117.685 239.135 117.412 236.589C117.138 234.044 116.774 233.135 115.679 232.498Z" fill="#021E34"/>
<path d="M134.19 234.589C134.19 234.589 135.102 232.135 137.108 233.317C139.114 234.407 140.573 238.589 141.029 239.953C141.484 241.226 142.032 243.953 142.032 243.953C142.032 243.953 139.661 244.953 137.655 245.135C135.649 245.317 134.281 245.407 134.281 245.407C134.281 245.407 133.46 240.226 133.643 238.135C133.734 236.044 134.19 234.589 134.19 234.589Z" fill="#021E34"/>
<path d="M125.345 225.68H122.7C122.7 225.68 122.974 227.862 125.345 227.862C127.806 227.862 127.989 225.68 127.989 225.68H125.345Z" fill="white"/>
<path d="M132.64 221.407C132.822 221.953 131.911 223.407 131.546 223.953C131.728 223.135 131.819 222.044 132.002 220.68C132.002 220.68 132.549 220.862 132.64 221.407Z" fill="#FFBF99"/>
<path d="M132.184 214.589C132.001 209.771 125.527 209.771 125.527 209.771C125.527 209.771 119.053 209.862 118.871 214.589C118.78 216.68 118.871 218.862 119.053 220.589C119.144 221.953 119.327 223.044 119.509 223.862C119.6 224.408 119.691 224.771 119.783 225.044C119.965 225.408 120.147 225.862 120.512 226.317C121.242 227.317 122.245 228.317 122.883 228.771C123.43 229.135 124.798 229.408 125.436 229.317C126.074 229.317 127.351 229.135 127.989 228.771C127.989 228.771 127.989 228.771 128.08 228.771C128.81 228.317 129.813 227.317 130.451 226.317C130.816 225.862 131.089 225.408 131.181 225.044C131.272 224.862 131.363 224.408 131.454 223.862C131.636 223.044 131.728 221.953 131.91 220.589C132.184 218.862 132.275 216.771 132.184 214.589Z" fill="#FFBF99"/>
<path d="M119.054 220.68C119.145 222.044 119.327 223.135 119.51 223.953C119.145 223.407 118.233 221.953 118.415 221.407C118.598 220.862 119.054 220.68 119.054 220.68Z" fill="#FFBF99"/>
<path d="M129.266 228.044C128.902 228.589 128.446 228.953 128.081 229.135C127.534 229.408 126.44 230.135 125.801 230.135H125.528C124.89 230.135 123.795 229.498 123.248 229.135C122.884 228.953 122.428 228.498 121.972 228.044L122.063 227.953C122.792 227.862 122.428 226.953 122.701 226.498C122.884 226.135 123.522 226.044 123.795 225.862C124.069 225.68 124.342 225.68 124.616 225.498C124.89 225.317 125.254 225.317 125.528 225.317H125.801C126.166 225.317 126.44 225.317 126.713 225.498C126.987 225.589 127.26 225.68 127.534 225.862C127.899 226.044 128.537 226.135 128.628 226.498C128.81 227.044 128.537 227.953 129.266 228.044ZM128.081 227.589C128.446 226.862 127.99 226.862 127.443 226.68C126.987 226.498 126.166 226.135 125.71 226.135H125.619C125.163 226.135 124.342 226.498 123.887 226.68C123.339 226.862 122.884 226.953 123.248 227.589C123.522 227.953 124.069 228.589 124.525 228.589C125.072 228.498 125.345 227.771 125.619 227.408H125.71C125.984 227.771 126.257 228.498 126.804 228.589C127.26 228.589 127.807 227.953 128.081 227.589Z" fill="#915F41"/>
<path d="M125.619 219.226C125.801 219.226 126.166 219.226 126.257 219.226C126.531 219.226 126.531 218.953 126.713 218.68C126.987 218.317 127.534 218.407 127.898 218.407C128.354 218.317 128.901 218.317 129.357 218.317C129.722 218.317 130.725 218.226 130.816 218.317C130.816 218.317 131.272 218.498 131.363 218.68C131.455 218.771 131.455 218.862 131.455 218.953C131.546 219.317 131.363 219.68 131.363 219.953C131.272 220.407 131.181 220.862 130.908 221.135C130.816 221.226 130.725 221.226 130.543 221.226C130.36 221.226 129.813 221.226 129.631 221.317C129.084 221.317 128.628 221.407 128.081 221.317C127.534 221.317 126.804 221.317 126.622 220.498C126.531 220.317 126.531 219.498 126.44 219.407C126.257 219.226 125.71 219.226 125.437 219.226C125.619 219.317 125.619 219.317 125.619 219.226ZM127.26 221.135C127.443 221.226 127.898 221.317 127.898 221.317C127.99 221.317 129.722 221.317 130.36 221.226C130.452 221.226 130.725 221.135 130.816 221.044C130.999 220.862 131.181 219.407 131.09 219.226C130.999 219.135 130.725 218.953 130.634 218.862C130.269 218.498 127.26 218.68 127.078 218.862C126.895 219.044 126.895 219.226 126.895 219.407C127.078 219.317 127.169 219.498 127.169 219.68C127.169 219.771 127.26 220.317 126.987 220.044L126.895 219.953C126.804 220.044 126.804 220.317 126.804 220.407C126.987 220.953 127.169 221.135 127.26 221.135Z" fill="#6B4732"/>
<path d="M125.619 219.226C125.437 219.226 125.072 219.226 124.981 219.226C124.707 219.226 124.707 218.953 124.525 218.68C124.251 218.317 123.704 218.407 123.34 218.407C122.884 218.317 122.336 218.317 121.881 218.317C121.516 218.317 120.513 218.226 120.422 218.317C120.422 218.317 119.966 218.498 119.875 218.68C119.783 218.771 119.783 218.862 119.783 218.953C119.692 219.317 119.875 219.68 119.875 219.953C119.966 220.407 120.057 220.862 120.33 221.135C120.422 221.226 120.513 221.226 120.695 221.226C120.878 221.226 121.425 221.226 121.607 221.317C122.154 221.317 122.61 221.407 123.157 221.317C123.704 221.317 124.434 221.317 124.616 220.498C124.707 220.317 124.707 219.498 124.798 219.407C124.981 219.226 125.528 219.226 125.801 219.226C125.619 219.317 125.619 219.317 125.619 219.226ZM123.978 221.135C123.795 221.226 123.34 221.317 123.34 221.317C123.248 221.317 121.516 221.317 120.878 221.226C120.786 221.226 120.513 221.135 120.422 221.044C120.239 220.862 120.057 219.407 120.148 219.226C120.239 219.135 120.513 218.953 120.604 218.862C120.969 218.498 123.978 218.68 124.16 218.862C124.343 219.044 124.343 219.226 124.343 219.407C124.16 219.317 124.069 219.498 124.069 219.68C124.069 219.771 123.978 220.317 124.251 220.044L124.343 219.953C124.434 220.044 124.434 220.317 124.434 220.407C124.16 220.953 123.978 221.135 123.978 221.135Z" fill="#6B4732"/>
</g>
<path d="M236.46 34.965H224.285C224.055 34.965 223.902 35.1176 223.902 35.3467V40.3089C223.902 40.3852 223.902 40.4615 223.979 40.5379L225.434 41.9884C225.51 42.0647 225.587 42.0647 225.664 42.0647H234.929C235.005 42.0647 235.082 41.9884 235.158 41.9884L236.613 40.5379C236.69 40.4615 236.69 40.3852 236.69 40.3089V35.3467C236.766 35.1176 236.613 34.965 236.46 34.965ZM236.077 40.1562L234.852 41.3776H225.817L224.591 40.1562V35.652H236.077V40.1562Z" fill="#003EB0"/>
<path d="M237.149 36.4152L223.52 37.1022C223.29 37.1022 223.137 37.2549 223.213 37.4839C223.213 37.6366 223.366 37.7893 223.596 37.7893L237.226 37.1022C237.456 37.1022 237.609 36.9496 237.532 36.7205C237.532 36.5678 237.303 36.4152 237.149 36.4152Z" fill="#003EB0"/>
<path d="M237.149 38.5527L223.52 39.2398C223.29 39.2398 223.137 39.3925 223.213 39.6215C223.213 39.7742 223.366 39.9269 223.596 39.9269L237.226 39.2398C237.456 39.2398 237.609 39.0871 237.532 38.8581C237.532 38.7054 237.303 38.5527 237.149 38.5527Z" fill="#003EB0"/>
<path d="M230.334 10.6882C223.596 10.6882 218.159 16.1084 218.159 22.8265C218.159 27.0252 220.303 30.8423 223.902 33.1325V35.3464C223.902 35.5755 224.055 35.7281 224.285 35.7281H236.46C236.69 35.7281 236.843 35.5755 236.843 35.3464V33.1325C240.442 30.9186 242.586 27.1016 242.586 22.8265C242.509 16.1848 237.072 10.6882 230.334 10.6882ZM236.23 32.5981C236.154 32.6745 236.077 32.7508 236.077 32.9035V34.9647H224.591V32.9035C224.591 32.7508 224.515 32.6745 224.438 32.5981C220.992 30.5369 218.925 26.8725 218.925 22.8265C218.925 16.5665 224.055 11.3752 230.411 11.3752C236.766 11.3752 241.896 16.4901 241.896 22.8265C241.82 26.8725 239.752 30.5369 236.23 32.5981Z" fill="#003EB0"/>
<path d="M233.704 41.4538C233.551 41.3774 233.321 41.4538 233.244 41.6065C233.244 41.6828 232.555 42.8279 230.335 42.8279C228.114 42.8279 227.425 41.6828 227.425 41.6065C227.348 41.4538 227.119 41.3774 226.965 41.4538C226.812 41.5301 226.736 41.7591 226.812 41.9118C226.812 41.9882 227.655 43.515 230.335 43.515C233.015 43.515 233.857 41.9882 233.857 41.9118C234.01 41.7591 233.933 41.5301 233.704 41.4538Z" fill="#003EB0"/>
<path d="M214.944 22.4445H207.746C207.516 22.4445 207.363 22.5971 207.363 22.8262C207.363 23.0552 207.516 23.2079 207.746 23.2079H214.944C215.174 23.2079 215.327 23.0552 215.327 22.8262C215.327 22.5971 215.174 22.4445 214.944 22.4445Z" fill="#DE051F"/>
<path d="M252.922 22.4445H245.725C245.495 22.4445 245.342 22.5971 245.342 22.8262C245.342 23.0552 245.495 23.2079 245.725 23.2079H252.922C253.152 23.2079 253.305 23.0552 253.305 22.8262C253.305 22.5971 253.076 22.4445 252.922 22.4445Z" fill="#DE051F"/>
<path d="M217.317 30.3079C217.24 30.1552 217.01 30.0789 216.857 30.1552L210.655 33.7432C210.502 33.8196 210.425 34.0486 210.502 34.2013C210.578 34.354 210.655 34.354 210.808 34.354C210.885 34.354 210.961 34.354 210.961 34.2776L217.163 30.6896C217.393 30.6896 217.47 30.5369 217.317 30.3079Z" fill="#DE051F"/>
<path d="M250.166 11.4514C250.09 11.2987 249.86 11.2224 249.707 11.2987L243.504 14.8868C243.351 14.9631 243.275 15.1922 243.351 15.3448C243.428 15.4975 243.504 15.4975 243.658 15.4975C243.734 15.4975 243.811 15.4975 243.811 15.4212L250.013 11.8331C250.243 11.8331 250.319 11.6041 250.166 11.4514Z" fill="#DE051F"/>
<path d="M241.821 3.05406C241.668 2.97772 241.438 3.05406 241.361 3.20674L237.762 9.39039C237.686 9.54307 237.762 9.7721 237.916 9.84844C237.992 9.84844 238.069 9.92478 238.069 9.92478C238.222 9.92478 238.298 9.84844 238.375 9.7721L241.974 3.58845C242.05 3.35942 241.974 3.20674 241.821 3.05406Z" fill="#DE051F"/>
<path d="M230.334 0.000427246C230.104 0.000427246 229.951 0.15311 229.951 0.382134V7.48188C229.951 7.71091 230.104 7.86359 230.334 7.86359C230.564 7.86359 230.717 7.71091 230.717 7.48188V0.305794C230.717 0.153111 230.564 0.000427246 230.334 0.000427246Z" fill="#DE051F"/>
<path d="M222.984 9.39039L219.385 3.20674C219.308 3.05406 219.079 2.97772 218.925 3.05406C218.772 3.1304 218.696 3.35943 218.772 3.51211L222.371 9.69576C222.448 9.84844 222.524 9.84844 222.677 9.84844C222.754 9.84844 222.831 9.84844 222.831 9.7721C222.984 9.7721 223.06 9.54307 222.984 9.39039Z" fill="#DE051F"/>
<path d="M250.089 33.7435L243.887 30.1555C243.734 30.0791 243.504 30.0791 243.427 30.3081C243.351 30.5372 243.428 30.6898 243.581 30.7662L249.783 34.3542C249.86 34.3542 249.936 34.4306 249.936 34.4306C250.089 34.4306 250.166 34.3542 250.242 34.2779C250.319 34.0489 250.242 33.8962 250.089 33.7435Z" fill="#DE051F"/>
<path d="M217.241 14.8868L211.038 11.2987C210.885 11.2224 210.655 11.2987 210.579 11.4514C210.502 11.6041 210.579 11.8331 210.732 11.9095L216.934 15.4975C217.011 15.4975 217.011 15.5739 217.087 15.5739C217.241 15.5739 217.317 15.4975 217.394 15.4212C217.47 15.1922 217.394 14.9631 217.241 14.8868Z" fill="#DE051F"/>
<path d="M231.407 34.9648V23.4373C231.407 23.4373 231.254 18.017 234.24 18.017C237.227 18.017 235.848 23.6663 230.105 23.6663" stroke="#003EB0" stroke-width="0.954459" stroke-miterlimit="10"/>
<path d="M228.727 34.9649V23.4374C228.727 23.4374 228.88 18.0172 225.894 18.0172C222.907 18.0172 224.286 23.6664 230.029 23.6664" stroke="#003EB0" stroke-width="0.954459" stroke-miterlimit="10"/>
</svg>
