<svg width="508" height="355" viewBox="0 0 508 355" fill="none" xmlns="http://www.w3.org/2000/svg">
<path d="M99.0902 335.575C141.443 335.575 175.778 333.015 175.778 329.858C175.778 326.701 141.443 324.142 99.0902 324.142C56.7369 324.142 22.4028 326.701 22.4028 329.858C22.4028 333.015 56.7369 335.575 99.0902 335.575Z" fill="white"/>
<path d="M166.33 354.128C186.191 354.128 202.291 351.887 202.291 349.123C202.291 346.359 186.191 344.119 166.33 344.119C146.468 344.119 130.368 346.359 130.368 349.123C130.368 351.887 146.468 354.128 166.33 354.128Z" fill="white"/>
<path d="M287.32 305.528C352.432 305.528 405.215 301.052 405.215 295.53C405.215 290.008 352.432 285.532 287.32 285.532C222.209 285.532 169.426 290.008 169.426 295.53C169.426 301.052 222.209 305.528 287.32 305.528Z" fill="white"/>
<path d="M55.4551 214.332C80.9832 214.332 101.678 193.637 101.678 168.109C101.678 142.581 80.9832 121.886 55.4551 121.886C29.927 121.886 9.23242 142.581 9.23242 168.109C9.23242 193.637 29.927 214.332 55.4551 214.332Z" stroke="#2626DB" stroke-width="1.03365" stroke-miterlimit="10" stroke-dasharray="6.2 6.2"/>
<path d="M191.416 284.513C216.944 284.513 237.639 263.818 237.639 238.29C237.639 212.762 216.944 192.067 191.416 192.067C165.888 192.067 145.193 212.762 145.193 238.29C145.193 263.818 165.888 284.513 191.416 284.513Z" stroke="#63C1F1" stroke-width="1.55048" stroke-miterlimit="10" stroke-dasharray="6.2 6.2"/>
<path d="M504.556 90.0367C504.556 90.0367 500.011 89.8943 493.277 90.858L487.703 98.3592L487.845 91.8217C468.704 95.8186 439.641 108.675 437.209 149.871C437.209 149.86 484.451 178.912 504.556 90.0367Z" fill="#023EA1"/>
<path d="M475.152 95.5448L448.563 136.435L504.554 90.0366" stroke="white" stroke-width="1.03365" stroke-miterlimit="10"/>
<path d="M496.145 117.488L447.611 138.809" stroke="white" stroke-width="1.03365" stroke-miterlimit="10"/>
<path d="M492.362 64.3805C492.362 64.3805 492.362 72.1993 487.018 69.0784C481.674 65.9574 478.027 65.8479 475.761 71.6189C473.494 77.4009 469.672 79.5143 466.157 78.474C462.642 77.4337 456.531 74.5208 453.87 82.5367C451.209 90.5526 444.913 105.774 453.356 109.738C461.799 113.691 475.125 108.38 477.162 102.335C479.199 96.2907 477.009 91.1111 483.82 89.1509C490.632 87.2017 491.573 93.9473 497.541 89.4137C503.51 84.8911 509.97 80.8284 505.524 71.3999C501.527 62.957 493.457 60.0988 492.362 64.3805Z" stroke="#EA4E59" stroke-width="1.03365" stroke-miterlimit="10" stroke-linecap="round" stroke-linejoin="round"/>
<path d="M493.654 73.415C493.654 73.415 456.356 102.117 445.186 107.187" stroke="#EA4E59" stroke-width="1.03365" stroke-miterlimit="10" stroke-linecap="round" stroke-linejoin="round"/>
<path d="M463.847 83.9482L462.751 96.1582L472.246 100.254" stroke="#EA4E59" stroke-width="1.03365" stroke-miterlimit="10" stroke-linecap="round" stroke-linejoin="round"/>
<path d="M482.63 72.4399L483.134 81.3757L490.657 85.7559" stroke="#EA4E59" stroke-width="1.03365" stroke-miterlimit="10" stroke-linecap="round" stroke-linejoin="round"/>
<path d="M101.361 71.3127C101.361 71.3127 111.37 64.4795 113.33 70.3819C115.29 76.2843 118.105 76.0215 121.007 75.5944C123.909 75.1674 128.858 72.4407 130.567 78.7811C132.275 85.1215 130.468 89.1185 133.469 91.1115C136.469 93.1045 145.449 105.041 139.404 107.275C133.359 109.509 126.263 104.471 123.92 101.58C121.576 98.6894 116.287 98.6346 112.213 99.5435C108.14 100.452 102.829 98.6127 104.592 93.663C106.355 88.7024 103.792 83.7089 100.091 82.6905C96.3897 81.6611 94.6485 76.0325 101.361 71.3127Z" fill="#023EA1"/>
<path d="M106.683 77.0312L141.287 112.128" stroke="white" stroke-width="1.03365" stroke-miterlimit="10" stroke-linecap="round" stroke-linejoin="round"/>
<path d="M123.555 80L120.741 91.2901L108.936 93.6664" stroke="white" stroke-width="1.03365" stroke-miterlimit="10" stroke-linecap="round" stroke-linejoin="round"/>
<path d="M101.439 88.3229C101.439 88.3229 101.439 94.6523 105.765 92.1227C110.09 89.5931 113.036 89.5055 114.875 94.1815C116.715 98.8574 119.803 100.566 122.65 99.7334C125.487 98.9012 130.436 96.5358 132.594 103.03C134.751 109.523 139.843 121.832 133.01 125.04C126.177 128.238 115.39 123.945 113.748 119.05C112.105 114.155 113.868 109.961 108.36 108.384C102.852 106.808 102.085 112.261 97.2559 108.603C92.4266 104.935 87.2032 101.65 90.795 94.0282C94.0254 87.173 100.552 84.8625 101.439 88.3229Z" stroke="#FCBE42" stroke-width="1.03365" stroke-miterlimit="10"/>
<path d="M100.389 95.625C100.389 95.625 130.569 118.851 139.603 122.958" stroke="#FCBE42" stroke-width="1.03365" stroke-miterlimit="10"/>
<path d="M124.51 104.156L125.397 114.034L117.709 117.341" stroke="#FCBE42" stroke-width="1.03365" stroke-miterlimit="10"/>
<path d="M109.311 94.8481L108.906 102.065L102.817 105.624" stroke="#FCBE42" stroke-width="1.03365" stroke-miterlimit="10"/>
<path d="M325.788 250.764C325.755 250.764 325.667 251.245 325.657 251.267C325.536 251.749 325.437 252.231 325.361 252.713C325.229 253.458 325.12 254.213 325.043 254.969C324.945 255.943 324.879 256.918 324.857 257.893C324.835 259.042 324.868 260.203 324.956 261.353C325.054 262.645 325.24 263.937 325.492 265.208C325.777 266.598 326.149 267.989 326.62 269.336C327.124 270.792 327.748 272.227 328.482 273.596C329.27 275.085 330.19 276.509 331.23 277.856C332.369 279.334 333.64 280.714 335.019 281.984C336.552 283.397 338.228 284.689 340.002 285.85C341.009 286.507 342.006 287.175 343.09 287.711C343.44 287.886 343.813 288.018 344.196 288.138C344.251 288.16 344.93 288.324 344.93 288.368V299.79H236.485L236.431 289.047C236.431 289.047 253.382 285.882 256.941 252.001C256.93 252.001 325.777 250.764 325.788 250.764Z" fill="#0064B7"/>
<path d="M326.083 268.941L256.437 255.778L256.929 252L326.225 251.179C326.225 251.179 322.381 255.308 326.083 268.941Z" fill="#023EA1"/>
<path d="M344.919 289.045H236.42L236.398 299.788H344.919V289.045Z" fill="#023EA1"/>
<path d="M443.952 39.2383H136.535C123.657 38.8222 123.657 48.7435 123.657 48.7435V199.118L127.216 256.127C127.216 256.127 425.741 255.306 441.74 255.306C457.728 255.306 457.728 242.909 457.728 242.909V237.127C457.728 237.127 457.728 63.6145 457.728 51.2183C457.728 38.8222 443.952 39.2383 443.952 39.2383ZM136.984 240.435L137.871 54.5254H140.532H443.503L444.39 238.781L136.984 240.435Z" fill="#0064B7"/>
<path d="M136.983 54.1113H446.612L446.174 245.397L135.647 244.981L136.983 54.1113Z" fill="#F2F2F2"/>
<path d="M425.546 80.7083H155.788C154.584 80.7083 153.598 79.7227 153.598 78.5182V62.3112C153.598 61.1067 154.584 60.1211 155.788 60.1211H425.546C426.751 60.1211 427.737 61.1067 427.737 62.3112V78.5182C427.737 79.7227 426.762 80.7083 425.546 80.7083Z" fill="white"/>
<path d="M166.289 74.6061C168.453 74.6061 170.208 72.8514 170.208 70.6868C170.208 68.5223 168.453 66.7676 166.289 66.7676C164.124 66.7676 162.37 68.5223 162.37 70.6868C162.37 72.8514 164.124 74.6061 166.289 74.6061Z" fill="#EE384E"/>
<path d="M230.365 73.3514H199.66C198.455 73.3514 197.47 72.3658 197.47 71.1613V70.3947C197.47 69.1901 198.455 68.2046 199.66 68.2046H230.365C231.57 68.2046 232.556 69.1901 232.556 70.3947V71.1613C232.556 72.3768 231.57 73.3514 230.365 73.3514Z" fill="#00A9FF"/>
<path d="M276.422 73.3514H247.173C245.968 73.3514 244.982 72.3658 244.982 71.1613V70.3947C244.982 69.1901 245.968 68.2046 247.173 68.2046H276.422C277.626 68.2046 278.612 69.1901 278.612 70.3947V71.1613C278.612 72.3768 277.626 73.3514 276.422 73.3514Z" fill="#DCE8F4"/>
<path d="M323.942 73.3514H294.693C293.488 73.3514 292.503 72.3658 292.503 71.1613V70.3947C292.503 69.1901 293.488 68.2046 294.693 68.2046H323.942C325.147 68.2046 326.132 69.1901 326.132 70.3947V71.1613C326.132 72.3768 325.147 73.3514 323.942 73.3514Z" fill="#DCE8F4"/>
<path d="M370.716 73.3514H341.466C340.262 73.3514 339.276 72.3658 339.276 71.1613V70.3947C339.276 69.1901 340.262 68.2046 341.466 68.2046H370.716C371.92 68.2046 372.906 69.1901 372.906 70.3947V71.1613C372.906 72.3768 371.931 73.3514 370.716 73.3514Z" fill="#DCE8F4"/>
<path d="M418.967 73.3514H389.717C388.513 73.3514 387.527 72.3658 387.527 71.1613V70.3947C387.527 69.1901 388.513 68.2046 389.717 68.2046H418.967C420.171 68.2046 421.157 69.1901 421.157 70.3947V71.1613C421.157 72.3768 420.182 73.3514 418.967 73.3514Z" fill="#DCE8F4"/>
<path d="M425.546 147.607H155.788C154.584 147.607 153.598 146.622 153.598 145.417V88.7805C153.598 87.5759 154.584 86.5903 155.788 86.5903H425.546C426.751 86.5903 427.737 87.5759 427.737 88.7805V145.417C427.737 146.622 426.762 147.607 425.546 147.607Z" fill="white"/>
<path d="M162.373 140.56C162.244 140.56 162.118 140.547 161.997 140.523L161.946 140.776C161.66 140.719 161.393 140.605 161.158 140.448L161.302 140.233C161.091 140.092 160.91 139.91 160.768 139.699L160.554 139.844C160.396 139.609 160.282 139.342 160.225 139.055L160.479 139.005C160.454 138.883 160.442 138.757 160.442 138.628V138.112H160.183V137.079H160.442V136.046H160.183V135.014H160.442V133.981H160.183V132.948H160.442V131.915H160.183V130.883H160.442V129.85H160.183V128.817H160.442V127.784H160.183V126.752H160.442V125.719H160.183V124.686H160.442V123.653H160.183V122.621H160.442V121.588H160.183V120.555H160.442V119.522H160.183V118.49H160.442V117.457H160.183V116.424H160.442V115.391H160.183V114.359H160.442V113.326H160.183V112.293H160.442V111.26H160.183V110.228H160.442V109.195H160.183V108.162H160.442V107.129H160.183V106.097H160.442V105.064H160.183V104.031H160.442V102.998H160.183V101.966H160.442V100.933H160.183V99.9H160.442V98.8673H160.183V97.8345H160.442V96.8018H160.183V95.769H160.442V95.2526C160.442 95.1237 160.454 94.9978 160.479 94.8761L160.225 94.8255C160.282 94.539 160.396 94.2722 160.554 94.0372L160.768 94.1813C160.91 93.9708 161.091 93.7891 161.302 93.6477L161.158 93.4332C161.393 93.2754 161.66 93.1618 161.946 93.1046L161.997 93.358C162.118 93.3337 162.244 93.3209 162.373 93.3209H162.892V93.0625H163.93V93.3209H164.967V93.0625H166.005V93.3209H167.043V93.0625H168.08V93.3209H169.118V93.0625H170.156V93.3209H171.193V93.0625H172.231V93.3209H173.269V93.0625H174.306V93.3209H175.344V93.0625H176.382V93.3209H177.419V93.0625H178.457V93.3209H179.495V93.0625H180.532V93.3209H181.57V93.0625H182.608V93.3209H183.645V93.0625H184.683V93.3209H185.721V93.0625H186.758V93.3209H187.796V93.0625H188.834V93.3209H189.871V93.0625H190.909V93.3209H191.947V93.0625H192.984V93.3209H194.022V93.0625H195.06V93.3209H196.097V93.0625H197.135V93.3209H198.173V93.0625H199.21V93.3209H200.248V93.0625H201.286V93.3209H202.323V93.0625H203.361V93.3209H204.399V93.0625H205.436V93.3209H206.474V93.0625H207.512V93.3209H208.549V93.0625H209.587V93.3209H210.625V93.0625H211.662V93.3209H212.7V93.0625H213.738V93.3209H214.775V93.0625H215.813V93.3209H216.851V93.0625H217.888V93.3209H218.926V93.0625H219.964V93.3209H221.001V93.0625H222.039V93.3209H223.076V93.0625H224.114V93.3209H225.152V93.0625H226.189V93.3209H227.227V93.0625H228.265V93.3209H229.302V93.0625H230.34V93.3209H231.378V93.0625H232.415V93.3209H233.453V93.0625H234.491V93.3209H235.528V93.0625H236.566V93.3209H237.604V93.0625H238.641V93.3209H239.679V93.0625H240.717V93.3209H241.754V93.0625H242.792V93.3209H243.83V93.0625H244.867V93.3209H245.905V93.0625H246.943V93.3209H247.98V93.0625H249.018V93.3209H250.056V93.0625H251.093V93.3209H252.131V93.0625H253.169V93.3209H254.206V93.0625H255.244V93.3209H256.282V93.0625H257.319V93.3209H258.357V93.0625H259.395V93.3209H260.432V93.0625H261.47V93.3209H262.508V93.0625H263.545V93.3209H264.583V93.0625H265.621V93.3209H266.658V93.0625H267.696V93.3209H268.733V93.0625H269.771V93.3209H270.809V93.0625H271.846V93.3209H272.884V93.0625H273.922V93.3209H274.959V93.0625H275.997V93.3209H277.035V93.0625H278.072V93.3209H279.11V93.0625H280.148V93.3209H281.185V93.0625H282.223V93.3209H283.261V93.0625H284.298V93.3209H285.336V93.0625H286.374V93.3209H287.411V93.0625H288.449V93.3209H289.487V93.0625H290.524V93.3209H291.043C291.172 93.3209 291.298 93.3337 291.42 93.358L291.47 93.1046C291.757 93.1618 292.024 93.2754 292.259 93.4332L292.115 93.6477C292.325 93.7891 292.507 93.9708 292.648 94.1813L292.863 94.0372C293.021 94.2722 293.134 94.539 293.191 94.8255L292.938 94.8761C292.962 94.9978 292.975 95.1237 292.975 95.2526V95.769H293.233V96.8018H292.975V97.8345H293.233V98.8673H292.975V99.9H293.233V100.933H292.975V101.966H293.233V102.998H292.975V104.031H293.233V105.064H292.975V106.097H293.233V107.129H292.975V108.162H293.233V109.195H292.975V110.228H293.233V111.26H292.975V112.293H293.233V113.326H292.975V114.359H293.233V115.391H292.975V116.424H293.233V117.457H292.975V118.49H293.233V119.522H292.975V120.555H293.233V121.588H292.975V122.621H293.233V123.653H292.975V124.686H293.233V125.719H292.975V126.752H293.233V127.784H292.975V128.817H293.233V129.85H292.975V130.883H293.233V131.915H292.975V132.948H293.233V133.981H292.975V135.014H293.233V136.046H292.975V137.079H293.233V138.112H292.975V138.628C292.975 138.757 292.962 138.883 292.938 139.005L293.191 139.055C293.134 139.342 293.021 139.609 292.863 139.844L292.648 139.699C292.507 139.91 292.325 140.092 292.115 140.233L292.259 140.448C292.024 140.605 291.757 140.719 291.47 140.776L291.42 140.523C291.298 140.547 291.172 140.56 291.043 140.56H290.525V140.818H289.487V140.56H288.449V140.818H287.412V140.56H286.374V140.818H285.336V140.56H284.299V140.818H283.261V140.56H282.223V140.818H281.186V140.56H280.148V140.818H279.11V140.56H278.073V140.818H277.035V140.56H275.997V140.818H274.96V140.56H273.922V140.818H272.884V140.56H271.847V140.818H270.809V140.56H269.771V140.818H268.734V140.56H267.696V140.818H266.658V140.56H265.621V140.818H264.583V140.56H263.545V140.818H262.508V140.56H261.47V140.818H260.432V140.56H259.395V140.818H258.357V140.56H257.319V140.818H256.282V140.56H255.244V140.818H254.206V140.56H253.169V140.818H252.131V140.56H251.093V140.818H250.056V140.56H249.018V140.818H247.98V140.56H246.943V140.818H245.905V140.56H244.867V140.818H243.83V140.56H242.792V140.818H241.754V140.56H240.717V140.818H239.679V140.56H238.641V140.818H237.604V140.56H236.566V140.818H235.528V140.56H234.491V140.818H233.453V140.56H232.415V140.818H231.378V140.56H230.34V140.818H229.302V140.56H228.265V140.818H227.227V140.56H226.189V140.818H225.152V140.56H224.114V140.818H223.076V140.56H222.039V140.818H221.001V140.56H219.964V140.818H218.926V140.56H217.888V140.818H216.851V140.56H215.813V140.818H214.775V140.56H213.738V140.818H212.7V140.56H211.662V140.818H210.625V140.56H209.587V140.818H208.549V140.56H207.512V140.818H206.474V140.56H205.436V140.818H204.399V140.56H203.361V140.818H202.323V140.56H201.286V140.818H200.248V140.56H199.21V140.818H198.173V140.56H197.135V140.818H196.097V140.56H195.06V140.818H194.022V140.56H192.984V140.818H191.947V140.56H190.909V140.818H189.871V140.56H188.834V140.818H187.796V140.56H186.758V140.818H185.721V140.56H184.683V140.818H183.645V140.56H182.608V140.818H181.57V140.56H180.532V140.818H179.495V140.56H178.457V140.818H177.42V140.56H176.382V140.818H175.344V140.56H174.307V140.818H173.269V140.56H172.231V140.818H171.194V140.56H170.156V140.818H169.118V140.56H168.081V140.818H167.043V140.56H166.005V140.818H164.968V140.56H163.93V140.818H162.892V140.56H162.373Z" fill="white" stroke="#2A2A2A" stroke-width="0.516826" stroke-dasharray="1.03 1.03"/>
<path d="M398.194 104.144H332.151C330.946 104.144 329.96 103.158 329.96 101.954V101.187C329.96 99.9826 330.946 98.9971 332.151 98.9971H398.194C399.398 98.9971 400.384 99.9826 400.384 101.187V101.954C400.384 103.158 399.409 104.144 398.194 104.144Z" fill="#00A9FF"/>
<path d="M375.789 140.006H353.471C350.81 140.006 348.653 137.848 348.653 135.187C348.653 132.526 350.81 130.369 353.471 130.369H375.789C378.45 130.369 380.607 132.526 380.607 135.187C380.607 137.848 378.45 140.006 375.789 140.006Z" fill="#EE384E"/>
<path d="M415.477 114.822H313.318C312.508 114.822 311.851 114.164 311.851 113.354C311.851 112.544 312.508 111.887 313.318 111.887H415.477C416.287 111.887 416.944 112.544 416.944 113.354C416.944 114.164 416.287 114.822 415.477 114.822Z" fill="#DCE8F4"/>
<path d="M399.96 121.905H313.318C312.508 121.905 311.851 121.248 311.851 120.438C311.851 119.628 312.508 118.971 313.318 118.971H399.96C400.77 118.971 401.427 119.628 401.427 120.438C401.427 121.248 400.77 121.905 399.96 121.905Z" fill="#DCE8F4"/>
<path d="M238.28 234.948H155.778C154.573 234.948 153.587 233.963 153.587 232.758V156.41C153.587 155.206 154.573 154.22 155.778 154.22H238.28C239.484 154.22 240.47 155.206 240.47 156.41V232.758C240.47 233.974 239.495 234.948 238.28 234.948Z" fill="white"/>
<path d="M233.542 201.31H161.388C160.184 201.31 159.198 200.324 159.198 199.119V163.026C159.198 161.821 160.184 160.836 161.388 160.836H233.542C234.747 160.836 235.732 161.821 235.732 163.026V199.119C235.732 200.324 234.747 201.31 233.542 201.31Z" fill="#268DFF"/>
<path d="M233.882 212.097H161.049C160.03 212.097 159.198 211.265 159.198 210.247C159.198 209.228 160.03 208.396 161.049 208.396H233.882C234.9 208.396 235.732 209.228 235.732 210.247C235.732 211.265 234.9 212.097 233.882 212.097Z" fill="#DCE8F4"/>
<path d="M233.882 219.201H161.049C160.03 219.201 159.198 218.369 159.198 217.35C159.198 216.332 160.03 215.5 161.049 215.5H233.882C234.9 215.5 235.732 216.332 235.732 217.35C235.732 218.369 234.9 219.201 233.882 219.201Z" fill="#DCE8F4"/>
<path d="M331.615 234.948H249.112C247.908 234.948 246.922 233.963 246.922 232.758V156.41C246.922 155.206 247.908 154.22 249.112 154.22H331.615C332.819 154.22 333.805 155.206 333.805 156.41V232.758C333.805 233.974 332.819 234.948 331.615 234.948Z" fill="white"/>
<path d="M326.874 201.31H254.72C253.516 201.31 252.53 200.324 252.53 199.119V163.026C252.53 161.821 253.516 160.836 254.72 160.836H326.874C328.079 160.836 329.064 161.821 329.064 163.026V199.119C329.064 200.324 328.079 201.31 326.874 201.31Z" fill="#EE384E"/>
<path d="M327.203 212.097H254.381C253.363 212.097 252.53 211.265 252.53 210.247C252.53 209.228 253.363 208.396 254.381 208.396H327.214C328.232 208.396 329.064 209.228 329.064 210.247C329.064 211.265 328.232 212.097 327.203 212.097Z" fill="#DCE8F4"/>
<path d="M327.203 219.201H254.381C253.363 219.201 252.53 218.369 252.53 217.35C252.53 216.332 253.363 215.5 254.381 215.5H327.214C328.232 215.5 329.064 216.332 329.064 217.35C329.064 218.369 328.232 219.201 327.203 219.201Z" fill="#DCE8F4"/>
<path d="M327.203 226.429H254.381C253.363 226.429 252.53 225.597 252.53 224.579C252.53 223.56 253.363 222.728 254.381 222.728H327.214C328.232 222.728 329.064 223.56 329.064 224.579C329.064 225.597 328.232 226.429 327.203 226.429Z" fill="#DCE8F4"/>
<path d="M425.555 234.948H343.052C341.848 234.948 340.862 233.963 340.862 232.758V156.41C340.862 155.206 341.848 154.22 343.052 154.22H425.555C426.759 154.22 427.745 155.206 427.745 156.41V232.758C427.745 233.974 426.77 234.948 425.555 234.948Z" fill="white"/>
<path d="M348.653 201.051C348.524 201.051 348.398 201.038 348.277 201.014L348.226 201.267C347.939 201.21 347.673 201.097 347.438 200.939L347.582 200.724C347.371 200.583 347.189 200.401 347.048 200.191L346.834 200.335C346.676 200.1 346.562 199.833 346.505 199.546L346.758 199.496C346.734 199.374 346.721 199.248 346.721 199.119V198.589H346.463V197.527H346.721V196.465H346.463V195.404H346.721V194.342H346.463V193.281H346.721V192.219H346.463V191.158H346.721V190.096H346.463V189.034H346.721V187.973H346.463V186.911H346.721V185.85H346.463V184.788H346.721V183.727H346.463V182.665H346.721V181.604H346.463V180.542H346.721V179.48H346.463V178.419H346.721V177.357H346.463V176.296H346.721V175.234H346.463V174.173H346.721V173.111H346.463V172.049H346.721V170.988H346.463V169.926H346.721V168.865H346.463V167.803H346.721V166.742H346.463V165.68H346.721V164.618H346.463V163.557H346.721V163.026C346.721 162.897 346.734 162.771 346.758 162.65L346.505 162.599C346.562 162.312 346.676 162.046 346.834 161.811L347.048 161.955C347.189 161.744 347.371 161.563 347.582 161.421L347.438 161.207C347.673 161.049 347.939 160.935 348.226 160.878L348.277 161.131C348.398 161.107 348.524 161.094 348.653 161.094H349.168V160.836H350.199V161.094H351.23V160.836H352.261V161.094H353.291V160.836H354.322V161.094H355.353V160.836H356.384V161.094H357.415V160.836H358.445V161.094H359.476V160.836H360.507V161.094H361.538V160.836H362.568V161.094H363.599V160.836H364.63V161.094H365.661V160.836H366.691V161.094H367.722V160.836H368.753V161.094H369.784V160.836H370.815V161.094H371.845V160.836H372.876V161.094H373.907V160.836H374.938V161.094H375.968V160.836H376.999V161.094H378.03V160.836H379.061V161.094H380.091V160.836H381.122V161.094H382.153V160.836H383.184V161.094H384.215V160.836H385.245V161.094H386.276V160.836H387.307V161.094H388.338V160.836H389.368V161.094H390.399V160.836H391.43V161.094H392.461V160.836H393.491V161.094H394.522V160.836H395.553V161.094H396.584V160.836H397.615V161.094H398.645V160.836H399.676V161.094H400.707V160.836H401.738V161.094H402.768V160.836H403.799V161.094H404.83V160.836H405.861V161.094H406.891V160.836H407.922V161.094H408.953V160.836H409.984V161.094H411.015V160.836H412.045V161.094H413.076V160.836H414.107V161.094H415.138V160.836H416.168V161.094H417.199V160.836H418.23V161.094H419.261V160.836H420.291V161.094H420.807C420.936 161.094 421.062 161.107 421.183 161.131L421.234 160.878C421.52 160.935 421.787 161.049 422.022 161.207L421.878 161.421C422.089 161.563 422.27 161.744 422.412 161.955L422.626 161.811C422.784 162.046 422.898 162.312 422.955 162.599L422.701 162.65C422.726 162.771 422.739 162.897 422.739 163.026V163.557H422.997V164.618H422.739V165.68H422.997V166.742H422.739V167.803H422.997V168.865H422.739V169.926H422.997V170.988H422.739V172.049H422.997V173.111H422.739V174.173H422.997V175.234H422.739V176.296H422.997V177.357H422.739V178.419H422.997V179.48H422.739V180.542H422.997V181.604H422.739V182.665H422.997V183.727H422.739V184.788H422.997V185.85H422.739V186.911H422.997V187.973H422.739V189.034H422.997V190.096H422.739V191.158H422.997V192.219H422.739V193.281H422.997V194.342H422.739V195.404H422.997V196.465H422.739V197.527H422.997V198.589H422.739V199.119C422.739 199.248 422.726 199.374 422.701 199.496L422.955 199.546C422.898 199.833 422.784 200.1 422.626 200.335L422.412 200.191C422.27 200.401 422.089 200.583 421.878 200.724L422.022 200.939C421.787 201.097 421.52 201.21 421.234 201.267L421.183 201.014C421.062 201.038 420.936 201.051 420.807 201.051H420.291V201.31H419.261V201.051H418.23V201.31H417.199V201.051H416.168V201.31H415.138V201.051H414.107V201.31H413.076V201.051H412.045V201.31H411.015V201.051H409.984V201.31H408.953V201.051H407.922V201.31H406.891V201.051H405.861V201.31H404.83V201.051H403.799V201.31H402.768V201.051H401.738V201.31H400.707V201.051H399.676V201.31H398.645V201.051H397.615V201.31H396.584V201.051H395.553V201.31H394.522V201.051H393.491V201.31H392.461V201.051H391.43V201.31H390.399V201.051H389.368V201.31H388.338V201.051H387.307V201.31H386.276V201.051H385.245V201.31H384.215V201.051H383.184V201.31H382.153V201.051H381.122V201.31H380.091V201.051H379.061V201.31H378.03V201.051H376.999V201.31H375.968V201.051H374.938V201.31H373.907V201.051H372.876V201.31H371.845V201.051H370.815V201.31H369.784V201.051H368.753V201.31H367.722V201.051H366.691V201.31H365.661V201.051H364.63V201.31H363.599V201.051H362.568V201.31H361.538V201.051H360.507V201.31H359.476V201.051H358.445V201.31H357.415V201.051H356.384V201.31H355.353V201.051H354.322V201.31H353.291V201.051H352.261V201.31H351.23V201.051H350.199V201.31H349.168V201.051H348.653Z" fill="white" stroke="#2A2A2A" stroke-width="0.516826" stroke-dasharray="1.03 1.03"/>
<path d="M421.146 212.097H348.314C347.295 212.097 346.463 211.265 346.463 210.247C346.463 209.228 347.295 208.396 348.314 208.396H421.146C422.165 208.396 422.997 209.228 422.997 210.247C422.997 211.265 422.165 212.097 421.146 212.097Z" fill="#DCE8F4"/>
<path d="M421.146 219.201H348.314C347.295 219.201 346.463 218.369 346.463 217.35C346.463 216.332 347.295 215.5 348.314 215.5H421.146C422.165 215.5 422.997 216.332 422.997 217.35C422.997 218.369 422.165 219.201 421.146 219.201Z" fill="#DCE8F4"/>
<path d="M421.146 226.429H348.314C347.295 226.429 346.463 225.597 346.463 224.579C346.463 223.56 347.295 222.728 348.314 222.728H421.146C422.165 222.728 422.997 223.56 422.997 224.579C422.997 225.597 422.165 226.429 421.146 226.429Z" fill="#DCE8F4"/>
<path d="M477.956 174.876C478.652 174.876 479.215 174.297 479.215 173.584C479.215 172.87 478.652 172.292 477.956 172.292C477.261 172.292 476.697 172.87 476.697 173.584C476.697 174.297 477.261 174.876 477.956 174.876Z" fill="white"/>
<path d="M143.165 327.967H39.9084C37.0152 327.967 34.667 325.605 34.667 322.695V172.905C34.667 169.995 37.0152 167.633 39.9084 167.633H143.176C146.069 167.633 148.417 169.995 148.417 172.905V322.695C148.407 325.605 146.069 327.967 143.165 327.967Z" fill="#0064B7"/>
<path d="M138.971 324.329H43.3723C40.3499 324.329 37.897 321.876 37.897 318.854V176.025C37.897 173.002 40.3499 170.549 43.3723 170.549H138.982C142.005 170.549 144.458 173.002 144.458 176.025V318.854C144.447 321.887 142.005 324.329 138.971 324.329Z" fill="#E9EEF2"/>
<path d="M137.887 192.373H44.7956C43.591 192.373 42.6055 191.388 42.6055 190.183V178.63C42.6055 177.425 43.591 176.44 44.7956 176.44H137.887C139.092 176.44 140.077 177.425 140.077 178.63V190.183C140.077 191.388 139.092 192.373 137.887 192.373Z" fill="white"/>
<path d="M52.0701 188.825C54.2347 188.825 55.9894 187.07 55.9894 184.906C55.9894 182.741 54.2347 180.986 52.0701 180.986C49.9056 180.986 48.1509 182.741 48.1509 184.906C48.1509 187.07 49.9056 188.825 52.0701 188.825Z" fill="#EE384E"/>
<path d="M134.504 181.356H125.744C125.295 181.356 124.922 180.984 124.922 180.535C124.922 180.086 125.295 179.714 125.744 179.714H134.504C134.953 179.714 135.325 180.086 135.325 180.535C135.325 180.984 134.953 181.356 134.504 181.356Z" fill="#D0ECFB"/>
<path d="M134.504 184.424H125.744C125.295 184.424 124.922 184.052 124.922 183.603C124.922 183.154 125.295 182.782 125.744 182.782H134.504C134.953 182.782 135.325 183.154 135.325 183.603C135.325 184.052 134.953 184.424 134.504 184.424Z" fill="#D0ECFB"/>
<path d="M134.504 187.664H125.744C125.295 187.664 124.922 187.292 124.922 186.843C124.922 186.394 125.295 186.021 125.744 186.021H134.504C134.953 186.021 135.325 186.394 135.325 186.843C135.325 187.292 134.953 187.664 134.504 187.664Z" fill="#D0ECFB"/>
<path d="M137.884 227.218H44.8469C43.6423 227.218 42.6567 226.232 42.6567 225.028V198.823C42.6567 197.618 43.6423 196.633 44.8469 196.633H137.884C139.088 196.633 140.074 197.618 140.074 198.823V225.028C140.074 226.243 139.088 227.218 137.884 227.218Z" fill="white"/>
<path d="M89.4069 223.134H47.5974C46.3928 223.134 45.4072 222.148 45.4072 220.943V201.637C45.4072 200.433 46.3928 199.447 47.5974 199.447H89.4069C90.6115 199.447 91.5971 200.433 91.5971 201.637V220.943C91.5971 222.159 90.6115 223.134 89.4069 223.134Z" fill="#268DFF"/>
<path d="M101.934 206.817H129.344C130.154 206.817 130.811 206.16 130.811 205.35C130.811 204.539 130.154 203.882 129.344 203.882H101.934C101.124 203.882 100.467 204.539 100.467 205.35C100.478 206.171 101.135 206.817 101.934 206.817Z" fill="#00A9FF"/>
<path d="M101.489 210.748H134.998C135.403 210.748 135.731 210.419 135.731 210.014C135.731 209.609 135.403 209.28 134.998 209.28H101.489C101.083 209.28 100.755 209.609 100.755 210.014C100.755 210.419 101.083 210.748 101.489 210.748Z" fill="#ECF2F9"/>
<path d="M101.489 214.768H129.358C129.763 214.768 130.092 214.439 130.092 214.034C130.092 213.629 129.763 213.3 129.358 213.3H101.489C101.083 213.3 100.755 213.629 100.755 214.034C100.755 214.45 101.083 214.768 101.489 214.768Z" fill="#ECF2F9"/>
<path d="M87.7425 281.064H44.7722C43.5676 281.064 42.582 280.079 42.582 278.874V233.659C42.582 232.454 43.5676 231.469 44.7722 231.469H87.7425C88.9471 231.469 89.9326 232.454 89.9326 233.659V278.874C89.9326 280.09 88.9471 281.064 87.7425 281.064Z" fill="white"/>
<path d="M47.6306 260.491C47.5016 260.491 47.3758 260.478 47.2541 260.454L47.2035 260.708C46.9169 260.65 46.6501 260.537 46.4152 260.379L46.5592 260.164C46.3487 260.023 46.167 259.841 46.0256 259.631L45.8111 259.775C45.6533 259.54 45.5397 259.273 45.4825 258.987L45.7359 258.936C45.7116 258.814 45.6988 258.688 45.6988 258.559V258.04H45.4404V257.002H45.6988V255.964H45.4404V254.926H45.6988V253.888H45.4404V252.85H45.6988V251.812H45.4404V250.774H45.6988V249.735H45.4404V248.697H45.6988V247.659H45.4404V246.621H45.6988V245.583H45.4404V244.545H45.6988V243.507H45.4404V242.469H45.6988V241.43H45.4404V240.392H45.6988V239.354H45.4404V238.316H45.6988V237.797C45.6988 237.668 45.7116 237.542 45.7359 237.421L45.4825 237.37C45.5397 237.083 45.6533 236.817 45.8111 236.582L46.0256 236.726C46.167 236.515 46.3487 236.334 46.5592 236.192L46.4152 235.978C46.6501 235.82 46.9169 235.706 47.2035 235.649L47.2541 235.902C47.3758 235.878 47.5016 235.865 47.6306 235.865H48.1506V235.607H49.1906V235.865H50.2306V235.607H51.2706V235.865H52.3106V235.607H53.3506V235.865H54.3906V235.607H55.4306V235.865H56.4706V235.607H57.5106V235.865H58.5506V235.607H59.5906V235.865H60.6306V235.607H61.6707V235.865H62.7107V235.607H63.7507V235.865H64.7907V235.607H65.8307V235.865H66.8707V235.607H67.9107V235.865H68.9507V235.607H69.9907V235.865H71.0307V235.607H72.0707V235.865H73.1107V235.607H74.1507V235.865H75.1907V235.607H76.2307V235.865H77.2708V235.607H78.3108V235.865H79.3508V235.607H80.3908V235.865H81.4308V235.607H82.4708V235.865H83.5108V235.607H84.5508V235.865H85.0708C85.1997 235.865 85.3256 235.878 85.4473 235.902L85.4979 235.649C85.7844 235.706 86.0513 235.82 86.2862 235.978L86.1421 236.192C86.3527 236.334 86.5343 236.515 86.6757 236.726L86.8903 236.582C87.048 236.817 87.1616 237.083 87.2189 237.37L86.9654 237.421C86.9897 237.542 87.0025 237.668 87.0025 237.797V238.316H87.2609V239.354H87.0025V240.392H87.2609V241.43H87.0025V242.469H87.2609V243.507H87.0025V244.545H87.2609V245.583H87.0025V246.621H87.2609V247.659H87.0025V248.697H87.2609V249.735H87.0025V250.774H87.2609V251.812H87.0025V252.85H87.2609V253.888H87.0025V254.926H87.2609V255.964H87.0025V257.002H87.2609V258.04H87.0025V258.559C87.0025 258.688 86.9897 258.814 86.9654 258.936L87.2189 258.987C87.1616 259.273 87.048 259.54 86.8903 259.775L86.6757 259.631C86.5343 259.841 86.3527 260.023 86.1421 260.164L86.2862 260.379C86.0513 260.537 85.7844 260.65 85.4979 260.708L85.4473 260.454C85.3256 260.478 85.1997 260.491 85.0708 260.491H84.5508V260.75H83.5108V260.491H82.4708V260.75H81.4308V260.491H80.3908V260.75H79.3508V260.491H78.3108V260.75H77.2708V260.491H76.2308V260.75H75.1907V260.491H74.1507V260.75H73.1107V260.491H72.0707V260.75H71.0307V260.491H69.9907V260.75H68.9507V260.491H67.9107V260.75H66.8707V260.491H65.8307V260.75H64.7907V260.491H63.7507V260.75H62.7107V260.491H61.6707V260.75H60.6307V260.491H59.5906V260.75H58.5506V260.491H57.5106V260.75H56.4706V260.491H55.4306V260.75H54.3906V260.491H53.3506V260.75H52.3106V260.491H51.2706V260.75H50.2306V260.491H49.1906V260.75H48.1506V260.491H47.6306Z" fill="white" stroke="#2A2A2A" stroke-width="0.516826" stroke-dasharray="1.03 1.03"/>
<path d="M86.4073 267.287H46.0433C45.6381 267.287 45.3096 266.958 45.3096 266.553C45.3096 266.148 45.6381 265.819 46.0433 265.819H86.3964C86.8016 265.819 87.1301 266.148 87.1301 266.553C87.1301 266.958 86.8125 267.287 86.4073 267.287Z" fill="#D9E5F1"/>
<path d="M86.3964 271.612H46.0433C45.6381 271.612 45.3096 271.284 45.3096 270.879C45.3096 270.474 45.6381 270.145 46.0433 270.145H86.3964C86.8016 270.145 87.1301 270.474 87.1301 270.879C87.1301 271.284 86.8016 271.612 86.3964 271.612Z" fill="#D9E5F1"/>
<path d="M64.0352 275.874H46.0433C45.6381 275.874 45.3096 275.545 45.3096 275.14C45.3096 274.735 45.6381 274.406 46.0433 274.406H64.0242C64.4294 274.406 64.7579 274.735 64.7579 275.14C64.7689 275.545 64.4403 275.874 64.0352 275.874Z" fill="#D9E5F1"/>
<path d="M87.7425 322.413H44.7722C43.5676 322.413 42.582 321.427 42.582 320.222V287.568C42.582 286.363 43.5676 285.377 44.7722 285.377H87.7425C88.9471 285.377 89.9326 286.363 89.9326 287.568V320.222C89.9326 321.427 88.9471 322.413 87.7425 322.413Z" fill="white"/>
<path d="M85.0708 314.66H47.6306C46.426 314.66 45.4404 313.675 45.4404 312.47V291.708C45.4404 290.503 46.426 289.518 47.6306 289.518H85.0708C86.2754 289.518 87.2609 290.503 87.2609 291.708V312.47C87.2609 313.686 86.2754 314.66 85.0708 314.66Z" fill="#DCE8F4"/>
<path d="M86.4073 320.464H46.0433C45.6381 320.464 45.3096 320.136 45.3096 319.731C45.3096 319.326 45.6381 318.997 46.0433 318.997H86.3964C86.8016 318.997 87.1301 319.326 87.1301 319.731C87.1301 320.136 86.8125 320.464 86.4073 320.464Z" fill="#D9E5F1"/>
<path d="M138.367 322.457H95.3972C94.1926 322.457 93.207 321.472 93.207 320.267V287.623C93.207 286.419 94.1926 285.433 95.3972 285.433H138.367C139.572 285.433 140.558 286.419 140.558 287.623V320.278C140.558 321.483 139.572 322.457 138.367 322.457Z" fill="white"/>
<path d="M98.2546 314.443C98.1257 314.443 97.9998 314.431 97.8781 314.406L97.8275 314.66C97.541 314.602 97.2741 314.489 97.0392 314.331L97.1833 314.117C96.9727 313.975 96.7911 313.794 96.6497 313.583L96.4351 313.727C96.2774 313.492 96.1638 313.225 96.1065 312.939L96.36 312.888C96.3356 312.766 96.3229 312.641 96.3229 312.512V311.993H96.0645V310.954H96.3229V309.916H96.0645V308.878H96.3229V307.84H96.0645V306.802H96.3229V305.764H96.0645V304.726H96.3229V303.688H96.0645V302.649H96.3229V301.611H96.0645V300.573H96.3229V299.535H96.0645V298.497H96.3229V297.459H96.0645V296.421H96.3229V295.383H96.0645V294.345H96.3229V293.306H96.0645V292.268H96.3229V291.749C96.3229 291.62 96.3356 291.494 96.36 291.373L96.1065 291.322C96.1638 291.036 96.2774 290.769 96.4351 290.534L96.6497 290.678C96.7911 290.467 96.9727 290.286 97.1833 290.144L97.0392 289.93C97.2741 289.772 97.541 289.658 97.8275 289.601L97.8781 289.855C97.9998 289.83 98.1257 289.817 98.2546 289.817H98.7746V289.559H99.8146V289.817H100.855V289.559H101.895V289.817H102.935V289.559H103.975V289.817H105.015V289.559H106.055V289.817H107.095V289.559H108.135V289.817H109.175V289.559H110.215V289.817H111.255V289.559H112.295V289.817H113.335V289.559H114.375V289.817H115.415V289.559H116.455V289.817H117.495V289.559H118.535V289.817H119.575V289.559H120.615V289.817H121.655V289.559H122.695V289.817H123.735V289.559H124.775V289.817H125.815V289.559H126.855V289.817H127.895V289.559H128.935V289.817H129.975V289.559H131.015V289.817H132.055V289.559H133.095V289.817H134.135V289.559H135.175V289.817H135.695C135.824 289.817 135.95 289.83 136.071 289.855L136.122 289.601C136.408 289.658 136.675 289.772 136.91 289.93L136.766 290.144C136.977 290.286 137.158 290.467 137.3 290.678L137.514 290.534C137.672 290.769 137.786 291.036 137.843 291.322L137.589 291.373C137.614 291.494 137.627 291.62 137.627 291.749V292.268H137.885V293.306H137.627V294.345H137.885V295.383H137.627V296.421H137.885V297.459H137.627V298.497H137.885V299.535H137.627V300.573H137.885V301.611H137.627V302.649H137.885V303.688H137.627V304.726H137.885V305.764H137.627V306.802H137.885V307.84H137.627V308.878H137.885V309.916H137.627V310.954H137.885V311.993H137.627V312.512C137.627 312.641 137.614 312.767 137.59 312.889L137.843 312.939C137.787 313.227 137.674 313.494 137.516 313.729L137.302 313.585C137.16 313.796 136.979 313.977 136.768 314.118L136.912 314.333C136.677 314.49 136.409 314.603 136.122 314.66L136.072 314.407C135.95 314.431 135.824 314.443 135.695 314.443H135.175V314.702H134.135V314.443H133.095V314.702H132.055V314.443H131.015V314.702H129.975V314.443H128.935V314.702H127.895V314.443H126.855V314.702H125.815V314.443H124.775V314.702H123.735V314.443H122.695V314.702H121.655V314.443H120.615V314.702H119.575V314.443H118.535V314.702H117.495V314.443H116.455V314.702H115.415V314.443H114.375V314.702H113.335V314.443H112.295V314.702H111.255V314.443H110.215V314.702H109.175V314.443H108.135V314.702H107.095V314.443H106.055V314.702H105.015V314.443H103.975V314.702H102.935V314.443H101.895V314.702H100.855V314.443H99.8146V314.702H98.7746V314.443H98.2546Z" fill="white" stroke="#2A2A2A" stroke-width="0.516826" stroke-dasharray="1.03 1.03"/>
<path d="M137.032 320.511H96.6678C96.2626 320.511 95.9341 320.182 95.9341 319.777C95.9341 319.372 96.2626 319.043 96.6678 319.043H137.021C137.426 319.043 137.755 319.372 137.755 319.777C137.755 320.182 137.437 320.511 137.032 320.511Z" fill="#D9E5F1"/>
<path d="M137.879 281.161H94.9084C93.7038 281.161 92.7183 280.175 92.7183 278.971V233.744C92.7183 232.54 93.7038 231.554 94.9084 231.554H137.879C139.083 231.554 140.069 232.54 140.069 233.744V278.96C140.069 280.175 139.094 281.161 137.879 281.161Z" fill="white"/>
<path d="M135.203 260.839H97.7624C96.5578 260.839 95.5723 259.854 95.5723 258.649V237.887C95.5723 236.682 96.5578 235.697 97.7624 235.697H135.203C136.407 235.697 137.393 236.682 137.393 237.887V258.649C137.393 259.865 136.418 260.839 135.203 260.839Z" fill="#EE384E"/>
<path d="M136.543 267.373H96.1902C95.7851 267.373 95.4565 267.045 95.4565 266.639C95.4565 266.234 95.7851 265.906 96.1902 265.906H136.543C136.949 265.906 137.277 266.234 137.277 266.639C137.277 267.045 136.949 267.373 136.543 267.373Z" fill="#D9E5F1"/>
<path d="M136.532 271.701H96.1902C95.7851 271.701 95.4565 271.372 95.4565 270.967C95.4565 270.562 95.7851 270.233 96.1902 270.233H136.543C136.949 270.233 137.277 270.562 137.277 270.967C137.266 271.372 136.938 271.701 136.532 271.701Z" fill="#D9E5F1"/>
<path d="M114.171 275.962H96.1902C95.7851 275.962 95.4565 275.633 95.4565 275.228C95.4565 274.823 95.7851 274.494 96.1902 274.494H114.171C114.576 274.494 114.905 274.823 114.905 275.228C114.905 275.633 114.576 275.962 114.171 275.962Z" fill="#D9E5F1"/>
<path d="M193.056 346.32L138.601 346.383C135.728 346.383 133.396 344.024 133.386 341.105L133.25 224.997C133.25 222.077 135.572 219.707 138.445 219.697L192.9 219.633C195.773 219.633 198.105 221.992 198.115 224.912L198.25 341.02C198.261 343.94 195.929 346.32 193.056 346.32Z" fill="#0064B7"/>
<path d="M189.466 341.664L142.334 341.719C139.312 341.719 136.859 339.277 136.848 336.254L136.716 230.175C136.716 227.153 139.158 224.7 142.181 224.689L189.312 224.634C192.335 224.634 194.788 227.076 194.799 230.099L194.93 336.178C194.941 339.2 192.488 341.653 189.466 341.664Z" fill="#E9EEF2"/>
<path d="M188.733 241.312L143.671 241.366C142.466 241.366 141.481 240.392 141.481 239.176L141.47 231.576C141.47 230.372 142.444 229.386 143.66 229.386L188.722 229.332C189.926 229.332 190.912 230.306 190.912 231.522L190.923 239.121C190.923 240.337 189.948 241.312 188.733 241.312Z" fill="white"/>
<path d="M147.252 238.096C148.798 238.096 150.052 236.842 150.052 235.296C150.052 233.75 148.798 232.497 147.252 232.497C145.706 232.497 144.453 233.75 144.453 235.296C144.453 236.842 145.706 238.096 147.252 238.096Z" fill="#EE384E"/>
<path d="M188.403 233.602L180.65 233.613C180.332 233.613 180.069 233.35 180.069 233.033C180.069 232.715 180.332 232.452 180.65 232.452L188.403 232.441C188.72 232.441 188.983 232.704 188.983 233.022C188.983 233.339 188.731 233.602 188.403 233.602Z" fill="#D0ECFB"/>
<path d="M188.403 235.784L180.65 235.795C180.332 235.795 180.069 235.532 180.069 235.214C180.069 234.897 180.332 234.634 180.65 234.634L188.403 234.623C188.72 234.623 188.983 234.886 188.983 235.203C188.994 235.521 188.731 235.784 188.403 235.784Z" fill="#D0ECFB"/>
<path d="M188.41 238.094L180.657 238.105C180.339 238.105 180.076 237.843 180.076 237.525C180.076 237.207 180.339 236.945 180.657 236.945L188.41 236.934C188.727 236.934 188.99 237.196 188.99 237.514C188.99 237.832 188.727 238.094 188.41 238.094Z" fill="#D0ECFB"/>
<path d="M188.787 286.604L143.725 286.659C142.521 286.659 141.535 285.684 141.535 284.469L141.491 248.321C141.491 247.116 142.466 246.13 143.681 246.13L188.743 246.076C189.948 246.076 190.933 247.05 190.933 248.266L190.977 284.414C190.977 285.618 190.003 286.593 188.787 286.604Z" fill="#FCFEFF"/>
<path d="M177.41 252.002L153.1 252.035C152.289 252.035 151.632 251.378 151.632 250.578C151.632 249.768 152.289 249.111 153.089 249.111L177.399 249.078C178.21 249.078 178.867 249.735 178.867 250.535C178.878 251.345 178.22 252.002 177.41 252.002Z" fill="#00A9FF"/>
<path d="M185.612 282.841L185.611 282.841L185.095 282.842L185.095 283.1L184.063 283.101L184.062 282.843L183.029 282.844L183.03 283.102L181.997 283.103L181.997 282.845L180.964 282.846L180.964 283.105L179.931 283.106L179.931 282.847L178.898 282.848L178.898 283.107L177.866 283.108L177.865 282.85L176.833 282.851L176.833 283.109L175.8 283.11L175.8 282.852L174.767 282.853L174.767 283.112L173.734 283.113L173.734 282.854L172.701 282.855L172.702 283.114L171.669 283.115L171.668 282.857L170.636 282.858L170.636 283.116L169.603 283.117L169.603 282.859L168.57 282.86L168.57 283.118L167.537 283.12L167.537 282.861L166.504 282.862L166.505 283.121L165.472 283.122L165.472 282.863L164.439 282.865L164.439 283.123L163.406 283.124L163.406 282.866L162.373 282.867L162.373 283.125L161.341 283.127L161.34 282.868L160.307 282.869L160.308 283.128L159.275 283.129L159.275 282.87L158.242 282.872L158.242 283.13L157.209 283.131L157.209 282.873L156.176 282.874L156.176 283.132L155.144 283.133L155.143 282.875L154.111 282.876L154.111 283.135L153.078 283.136L153.078 282.877L152.045 282.878L152.045 283.137L151.012 283.138L151.012 282.88L149.979 282.881L149.98 283.139L148.947 283.14L148.946 282.882L147.914 282.883L147.914 283.141L146.881 283.143L146.881 282.884L146.365 282.885C146.235 282.885 146.109 282.872 145.987 282.848L145.937 283.101C145.65 283.045 145.383 282.932 145.148 282.774L145.291 282.56C145.081 282.419 144.899 282.237 144.758 282.026L144.543 282.17C144.386 281.935 144.273 281.668 144.216 281.381L144.47 281.331C144.446 281.209 144.433 281.083 144.433 280.953L144.433 280.953L144.432 280.408L144.174 280.408L144.173 279.319L144.431 279.318L144.43 278.229L144.172 278.229L144.171 277.14L144.429 277.139L144.428 276.05L144.17 276.05L144.169 274.96L144.427 274.96L144.426 273.87L144.167 273.871L144.166 272.781L144.425 272.781L144.424 271.691L144.165 271.692L144.164 270.602L144.423 270.602L144.422 270.057C144.422 270.057 144.422 270.057 144.422 270.057C144.422 269.928 144.435 269.802 144.459 269.68L144.205 269.63C144.262 269.343 144.375 269.075 144.532 268.84L144.747 268.984C144.888 268.773 145.07 268.592 145.28 268.45L145.137 268.236C145.371 268.078 145.638 267.965 145.926 267.909L145.976 268.162C146.098 268.138 146.224 268.125 146.354 268.125L146.354 268.125L146.87 268.125L146.87 267.866L147.903 267.865L147.903 268.124L148.936 268.123L148.936 267.864L149.969 267.863L149.969 268.121L151.002 268.12L151.001 267.862L152.034 267.861L152.034 268.119L153.067 268.118L153.067 267.86L154.1 267.858L154.1 268.117L155.133 268.116L155.133 267.857L156.165 267.856L156.166 268.115L157.199 268.113L157.198 267.855L158.231 267.854L158.231 268.112L159.264 268.111L159.264 267.853L160.297 267.851L160.297 268.11L161.33 268.109L161.33 267.85L162.362 267.849L162.363 268.108L163.396 268.106L163.395 267.848L164.428 267.847L164.428 268.105L165.461 268.104L165.461 267.846L166.494 267.845L166.494 268.103L167.527 268.102L167.527 267.843L168.559 267.842L168.56 268.101L169.592 268.1L169.592 267.841L170.625 267.84L170.625 268.098L171.658 268.097L171.658 267.839L172.691 267.838L172.691 268.096L173.724 268.095L173.723 267.837L174.756 267.835L174.757 268.094L175.789 268.093L175.789 267.834L176.822 267.833L176.822 268.091L177.855 268.09L177.855 267.832L178.888 267.831L178.888 268.089L179.921 268.088L179.92 267.83L180.953 267.828L180.953 268.087L181.986 268.086L181.986 267.827L183.019 267.826L183.019 268.085L184.052 268.083L184.052 267.825L185.084 267.824L185.085 268.082L185.601 268.082C185.601 268.082 185.601 268.082 185.601 268.082C185.73 268.082 185.856 268.094 185.978 268.118L186.028 267.865C186.315 267.922 186.583 268.035 186.818 268.192L186.674 268.407C186.885 268.548 187.067 268.729 187.208 268.94L187.422 268.796C187.58 269.031 187.693 269.298 187.749 269.586L187.496 269.636C187.52 269.758 187.533 269.884 187.533 270.013V270.014L187.533 270.558L187.792 270.558L187.793 271.648L187.534 271.648L187.535 272.738L187.794 272.737L187.795 273.827L187.536 273.827L187.537 274.917L187.796 274.917L187.797 276.006L187.539 276.006L187.54 277.096L187.798 277.096L187.799 278.185L187.541 278.186L187.542 279.275L187.8 279.275L187.801 280.364L187.543 280.365L187.544 280.909C187.544 280.909 187.544 280.909 187.544 280.91C187.543 281.039 187.531 281.165 187.507 281.287L187.76 281.337C187.704 281.625 187.591 281.892 187.433 282.126L187.219 281.983C187.077 282.193 186.896 282.375 186.685 282.516L186.829 282.731C186.594 282.888 186.326 283.001 186.039 283.058L185.989 282.804C185.867 282.828 185.741 282.841 185.612 282.841Z" fill="white" stroke="#2A2A2A" stroke-width="0.516826" stroke-dasharray="1.03 1.03"/>
<path d="M183.387 256.752L147.513 256.796C146.67 256.796 145.98 256.106 145.98 255.263C145.98 254.42 146.67 253.73 147.513 253.73L183.387 253.686C184.231 253.686 184.92 254.376 184.92 255.219C184.92 256.062 184.231 256.752 183.387 256.752Z" fill="#ECF2F8"/>
<path d="M169.699 265.438L161.573 265.448C160.106 265.448 158.912 264.266 158.912 262.798C158.912 261.331 160.095 260.137 161.562 260.137L169.688 260.126C171.155 260.126 172.349 261.309 172.349 262.777C172.36 264.244 171.166 265.438 169.699 265.438Z" fill="#EE384E"/>
<path d="M190.966 341.7L141.677 341.755L141.622 293.452C141.622 292.247 142.597 291.262 143.812 291.262L188.721 291.207C189.925 291.207 190.911 292.182 190.911 293.397L190.966 341.7Z" fill="white"/>
<path d="M185.996 322.105L146.957 322.149C145.753 322.149 144.767 321.174 144.767 319.959L144.745 299.032C144.745 297.828 145.72 296.842 146.935 296.842L185.974 296.798C187.179 296.798 188.164 297.773 188.164 298.988L188.186 319.915C188.186 321.131 187.201 322.105 185.996 322.105Z" fill="#268DFF"/>
<path d="M187.033 329.573L145.936 329.627C145.301 329.627 144.775 329.113 144.775 328.466C144.775 327.831 145.29 327.306 145.936 327.306L187.033 327.251C187.669 327.251 188.194 327.766 188.194 328.412C188.194 329.058 187.669 329.573 187.033 329.573Z" fill="#DAE6F4"/>
<path d="M187.045 334.019L145.947 334.074C145.312 334.074 144.786 333.559 144.786 332.913C144.786 332.278 145.301 331.752 145.947 331.752L187.045 331.698C187.68 331.698 188.205 332.212 188.205 332.859C188.194 333.505 187.68 334.019 187.045 334.019Z" fill="#DAE6F4"/>
<path d="M163.807 338.695L145.837 338.717C145.257 338.717 144.786 338.246 144.786 337.666C144.786 337.086 145.257 336.615 145.837 336.615L163.807 336.593C164.388 336.593 164.859 337.064 164.859 337.644C164.848 338.224 164.388 338.695 163.807 338.695Z" fill="#DAE6F4"/>
<path d="M290.836 17.389C290.836 17.389 292.161 21.3203 294.724 24.6055C297.286 27.8907 294.866 30.9131 294.866 30.9131C294.866 30.9131 288.657 34.1983 286.828 30.0042C286.828 30.0042 286.313 27.7264 286.226 26.0948C286.204 25.7334 286.127 25.383 285.963 25.0545C285.613 24.3536 285.054 22.2292 283.258 24.1565C283.258 24.1565 281.145 28.2083 277.958 24.8136C277.838 24.6821 277.761 24.5179 277.717 24.3427L277.498 23.2367L276.436 23.1162C276.162 23.0833 275.943 22.8424 275.943 22.5687V21.5065H274.947C274.64 21.5065 274.388 21.2655 274.377 20.948L274.158 10.074C274.158 10.074 278.451 5.82513 283.62 8.24522C288.777 10.6763 289.193 9.89876 290.836 17.389Z" fill="#FFBF9C"/>
<path d="M274.054 12.507C274.065 12.8903 273.867 13.2517 273.55 13.4707C272.75 14.0292 271.228 14.5548 269.575 12.3975C267.133 9.23278 269.761 9.16708 269.761 9.16708C269.761 9.16708 267.571 2.7719 274.152 4.10788C274.152 4.10788 277.81 -2.71437 282.31 2.94711C282.31 2.94711 289.866 -0.283333 290.293 6.72508C290.293 6.72508 295.506 10.6016 292.549 18.1904C292.385 18.6065 292.013 18.9022 291.564 18.9789C290.107 19.2417 287.063 19.1103 287.643 13.2079C287.709 12.518 287.654 11.8062 287.435 11.1491C287.063 10.0322 286.253 8.99187 284.621 11.3572C284.621 11.3572 282.606 13.854 281.938 10.5688C281.27 7.28357 275.663 9.78032 274.689 10.9301C274.141 11.5872 274.043 12.1457 274.054 12.507Z" fill="#170D54"/>
<path d="M286.369 27.4869C286.369 27.4869 273.229 25.9758 272.802 38.2295L272.681 40.792L308.873 40.124C308.873 40.124 310.461 26.4795 301.131 26.4795L295.721 26.6766C295.721 26.6766 295.645 31.1116 291.133 31.1664C286.621 31.2211 286.369 27.4869 286.369 27.4869Z" fill="#F79F03"/>
<path d="M266.716 39.8084C266.716 39.8084 265.621 35.6691 268.479 35.4829C271.338 35.2968 271.524 37.6731 271.524 39.7427C271.524 39.7427 270.505 40.0494 270.188 39.7756C269.87 39.5018 269.279 39.7318 269.049 39.8194C268.819 39.918 266.99 40.1589 266.716 39.8084Z" fill="#FFBF9C"/>
<path d="M296.811 39.38C296.811 39.38 296.263 36.5219 299.253 36.3358C302.242 36.1496 302.79 38.1645 302.91 39.621C303.031 41.0774 302.856 41.7454 302.297 41.5045C301.761 41.2745 301.673 40.9022 301.673 40.9022C301.673 40.9022 301.443 41.1102 301.147 41.3292C300.874 41.5264 300.14 41.3512 299.987 41.1431C299.844 40.935 298.727 41.1431 298.585 41.3292C298.355 41.614 297.369 41.395 297.183 41.0226C296.997 40.6613 296.811 39.38 296.811 39.38Z" fill="#FFBF9C"/>
<path d="M170.311 222.883H161.539C161.24 222.883 160.997 222.641 160.997 222.341C160.997 222.042 161.24 221.8 161.539 221.8H170.311C170.61 221.8 170.852 222.042 170.852 222.341C170.852 222.649 170.61 222.883 170.311 222.883Z" fill="white"/>
<path d="M14.2396 230.074L21.0928 228.152L19.1709 221.299L12.3178 223.221L14.2396 230.074Z" fill="#EE384E"/>
<path d="M477.79 52.5073L484.644 50.5854L482.722 43.7323L475.869 45.6542L477.79 52.5073Z" fill="#003EB0"/>
<path d="M493.509 186.402L500.362 184.48L498.44 177.627L491.587 179.549L493.509 186.402Z" fill="#EE384E"/>
<path d="M211.448 132.518L217.309 122.371H240.741L234.88 132.518H211.448Z" fill="#3A77FD"/>
<path d="M211.448 132.518L217.309 122.371H222.786L211.448 132.518Z" fill="#1F4BAF"/>
<path d="M229.031 122.372H240.752L229.031 102.078H217.31L229.031 122.372Z" fill="#FED125"/>
<path d="M229.034 122.371H240.755L226.342 117.702L229.034 122.371Z" fill="#B5950B"/>
<path d="M205.588 122.372L211.448 132.519L223.169 112.225L217.309 102.078L205.588 122.372Z" fill="#00A95B"/>
<path d="M220.354 117.091L223.171 112.225L217.31 102.078L220.354 117.091Z" fill="#007541"/>
<path d="M10.9616 180.458C17.0155 180.458 21.9232 175.551 21.9232 169.497C21.9232 163.443 17.0155 158.535 10.9616 158.535C4.90768 158.535 0 163.443 0 169.497C0 175.551 4.90768 180.458 10.9616 180.458Z" fill="#FCBE42"/>
<path d="M7.12646 167.308L11.5067 173.889L14.8029 168.403" stroke="white" stroke-width="2.0673" stroke-miterlimit="10"/>
<path d="M461.608 354.403C481.876 354.403 498.305 352.045 498.305 349.135C498.305 346.225 481.876 343.866 461.608 343.866C441.341 343.866 424.912 346.225 424.912 349.135C424.912 352.045 441.341 354.403 461.608 354.403Z" fill="white"/>
<path d="M457.607 214.442L427.055 190.348C427.055 190.348 426.218 189.799 425.015 188.047C423.799 186.309 421.459 184.57 420.1 184.949L417.08 182.125C417.08 182.125 416.021 181.916 417.08 182.896C418.139 183.877 418.74 185.093 418.74 185.093C418.74 185.093 417.799 185.59 418.06 185.969C418.06 185.969 417.302 186.191 417.38 186.766C417.38 186.766 415.563 187.328 417.341 189.106C419.119 190.884 419.721 191.603 421.695 192.466C423.656 193.342 425.133 194.362 427.068 196.179C429.003 197.996 453.777 221.79 453.777 221.79L457.607 214.442Z" fill="#FFBE9B"/>
<path d="M471.896 208.39C471.896 208.39 478.838 208.22 479.923 200.441C481.008 192.663 475.739 189.983 472.733 188.401C469.726 186.806 467.882 187.067 466.549 184.884C465.215 182.714 464.705 182.125 464.705 182.125C464.705 182.125 459.058 187.995 463.006 193.212C466.954 198.441 471.896 208.39 471.896 208.39Z" fill="#180857"/>
<path d="M483.19 343.947C483.269 343.973 483.269 344.091 483.295 344.169C483.491 345.019 484.55 349.974 481.87 350.026C479.137 350.091 468.77 350.157 467.332 350.17C467.228 350.17 467.149 350.104 467.123 350C467.019 349.595 466.835 348.588 467.528 348.274C467.528 348.274 473.555 345.476 475.621 343.829C477.477 342.326 482.367 343.685 483.19 343.947Z" fill="#170856"/>
<path d="M457.136 343.205C457.215 343.244 457.228 343.348 457.241 343.44C457.437 344.368 458.496 349.833 455.816 349.964C453.071 350.094 440.403 349.977 438.755 349.964C438.638 349.964 438.546 349.898 438.507 349.781C438.389 349.415 438.258 348.552 439.344 348.068C439.344 348.068 446.351 345.27 449.541 343.309C452.417 341.531 456.378 342.904 457.136 343.205Z" fill="#170856"/>
<path d="M484.837 256.969L483.268 344.038L475.594 343.828L469.501 288.567L470.234 273.219L474.679 256.799L484.837 256.969Z" fill="#0064E1"/>
<path d="M476.758 256.839C476.758 256.839 469.515 293.824 467.306 298.125L457.226 343.306H449.552L454.311 256.708L476.758 256.839Z" fill="#003EB0"/>
<path d="M463.004 193.208C463.004 193.208 459.173 196.385 459.121 201.888C459.069 207.379 460.023 207.588 462.246 207.588C464.468 207.588 466.233 207.392 466.481 208.595C466.73 209.798 466.429 214.543 465.932 215.955C465.422 217.367 475.11 215.955 475.11 215.955C475.11 215.955 472.443 208.7 472.038 205.51C471.632 202.333 472.09 198.751 470.168 195.731C468.246 192.711 465.985 190.384 463.004 193.208Z" fill="#FFBE9B"/>
<path d="M464.965 217.672L457.2 213.344L452.964 221.907L461.605 229.281L464.965 217.672Z" fill="#F79F03"/>
<path d="M476.76 216.977C476.76 216.977 481.415 222.258 483.036 235.018C484.657 247.777 484.853 256.981 484.853 256.981H454.313C454.313 256.981 456.641 238.979 458.693 229.448C460.746 219.918 464.432 216.074 464.432 216.074C464.432 216.074 465.387 214.911 466.55 215.669C467.714 216.427 470.485 216.571 472.956 215.408C475.427 214.244 475.976 215.904 476.76 216.977Z" fill="#FCBE42"/>
<path d="M470.569 198.009C470.569 198.009 472.229 197.604 472.988 198.467C473.746 199.33 472.831 201.186 471.327 201.748C469.811 202.297 470.569 198.009 470.569 198.009Z" fill="#FFBE9B"/>
<path d="M466.234 232.758C466.234 232.758 462.757 256.97 460.94 263.546C459.122 270.122 456.403 276.332 456.403 276.332C456.403 276.332 455.187 279.352 456.403 280.489C457.619 281.626 460.482 282.908 461.057 280.868C461.632 278.829 461.633 274.436 462.391 273.456C463.149 272.475 469.725 257.192 471.921 248.041C474.118 238.89 474.497 234.798 474.497 234.798L466.234 232.758Z" fill="#FFBE9B"/>
<path d="M464.968 233.986C464.968 233.986 467.06 220.651 472.655 220.586C472.655 220.586 475.832 220.586 475.911 225.423C475.989 230.26 475.532 235.999 475.532 235.999L464.968 233.986Z" fill="#F79F03"/>
<path d="M388.648 350.014C396.244 350.014 402.402 348.022 402.402 345.564C402.402 343.107 396.244 341.114 388.648 341.114C381.052 341.114 374.894 343.107 374.894 345.564C374.894 348.022 381.052 350.014 388.648 350.014Z" fill="white"/>
<path d="M363.4 297.163C363.4 297.163 366.676 295.831 366.43 292.071C366.184 288.311 364.248 285.638 368.246 286.733C372.252 287.827 373.6 288.311 376.504 287.701C379.407 287.098 381.834 285.884 380.557 289.644C379.28 293.404 377.908 296.561 380.906 297.163C383.896 297.766 387.109 295.506 387.497 301.391C387.886 307.285 383.127 313.908 375.441 314.146C367.754 314.392 364.36 311.203 364.36 311.203C364.36 311.203 362.297 308.3 365.51 307.578C368.722 306.864 371.998 305.5 370.364 303.993C368.722 302.494 363.384 302.367 363.384 302.367C363.384 302.367 356.721 301.05 363.4 297.163Z" fill="#649EEA"/>
<path d="M398.529 298.139C397.99 294.387 398.402 291.682 405.382 290.659C412.363 289.636 416.424 293.824 416.852 298.139C417.28 302.454 411.212 304.009 411.212 304.009C411.212 304.009 406.905 305.238 409.087 308.998C411.268 312.758 412.259 316.398 407.31 316.946C402.352 317.493 396.927 316.184 393.912 314.17C390.898 312.155 387.797 307.054 391.255 304.389C391.255 304.389 392.223 303.723 395.562 303.541C398.886 303.358 398.529 298.139 398.529 298.139Z" fill="#023EA1"/>
<path d="M373.98 297.528C373.98 297.528 379.77 310.632 380.564 319.556" stroke="#023EA1" stroke-width="1.03365" stroke-miterlimit="10"/>
<path d="M406.192 299.678C406.192 299.678 395.936 314.908 393.509 320" stroke="#649EEA" stroke-width="1.03365" stroke-miterlimit="10"/>
<path d="M376.986 318.525H400.529C400.529 318.525 403.107 318.707 402.893 322.229C402.694 325.465 398.585 324.767 396.46 324.767C394.334 324.767 376.479 324.767 376.479 324.767C376.479 324.767 373.583 325.259 373.583 321.983C373.591 318.707 374.678 318.525 376.986 318.525Z" fill="#0054A5"/>
<path d="M376.48 324.767L380.049 345.565H395.858L398.531 329.954L376.512 324.767H376.48Z" fill="#0054A5"/>
<path d="M376.512 324.767L398.532 329.954L399.42 324.767H376.512Z" fill="#006AD5"/>
<path d="M386.63 319.309C386.63 319.309 387.82 296.235 394.697 281.751" stroke="#FCBE42" stroke-width="1.03365" stroke-miterlimit="10"/>
<path d="M400.365 273.423C400.365 273.423 400.936 280.506 394.019 283.275C394.019 283.275 392.52 277.23 400.365 273.423Z" fill="#FCBE42"/>
<path d="M389.997 295.973C389.997 295.973 392.543 289.929 400.38 290.738C400.38 290.738 399.769 296.759 389.997 295.973Z" fill="#FCBE42"/>
<path d="M387.418 311.173C387.418 311.173 388.735 304.748 396.58 304.01C396.58 304.01 397.151 310.039 387.418 311.173Z" fill="#FCBE42"/>
<path d="M387.147 311.21C387.147 311.21 388.059 304.714 380.912 301.398C380.912 301.398 378.35 306.879 387.147 311.21Z" fill="#FCBE42"/>
<path d="M390.071 295.925C390.071 295.925 391.8 289.596 385.137 285.392C385.145 285.4 381.901 290.508 390.071 295.925Z" fill="#FCBE42"/>
<path d="M98.8153 162.384C98.8153 162.384 102.465 162.567 105.202 162.567C107.847 162.567 112.135 163.114 112.135 163.114C112.135 163.114 113.23 163.114 113.322 164.483C113.413 165.851 113.413 166.398 113.413 166.398C113.413 166.398 113.504 168.041 112.227 168.041C110.949 168.041 102.738 168.953 100.914 168.953C99.089 168.953 97.7205 169.318 97.7205 168.041C97.6292 166.763 97.538 162.293 98.8153 162.384Z" fill="#160856"/>
<path d="M101.826 123.427C101.826 123.427 104.198 136.656 104.38 140.214C104.563 143.681 104.928 146.418 102.647 147.787C100.366 149.155 96.5343 150.433 96.5343 150.433L91.8813 126.712V123.975L101.826 123.427Z" fill="#FDBD97"/>
<path d="M61.227 122.606C61.227 122.606 59.9497 128.628 59.5848 131.639C59.2198 134.649 58.3987 140.58 58.3075 141.948C58.2163 143.317 58.0338 145.597 60.4971 147.422C62.9605 149.156 65.6975 150.159 65.6975 150.159L70.8066 122.606H61.227Z" fill="#FDBD97"/>
<path d="M79.3825 103.539C79.3825 103.539 79.3825 106.276 78.1965 107.462C77.0105 108.648 75.4595 110.655 75.4595 110.655C75.4595 110.655 78.1965 115.034 83.7618 114.395C89.2359 113.848 90.2394 109.834 90.2394 109.834C90.2394 109.834 85.0391 109.104 84.4004 104.177C83.853 99.2505 83.0319 99.2505 83.0319 99.2505L79.3825 103.539Z" fill="#FDAE7D"/>
<path d="M75.3677 92.5898C75.3677 92.5898 75.5501 98.885 78.5609 103.812C81.4804 108.738 85.0385 106.001 86.4983 103.447C87.8668 100.892 91.6074 92.5899 90.8775 90.4002C90.0564 88.2106 79.1995 87.207 79.1995 87.207L75.3677 92.5898Z" fill="#FDBD97"/>
<path d="M89.3272 96.1492C89.3272 96.1492 90.8782 94.9632 90.8782 96.1492C90.8782 97.3352 90.0571 99.0687 89.1447 99.3424C88.1412 99.5249 88.3236 98.9775 88.5973 98.1564C88.7798 97.3353 89.3272 96.1492 89.3272 96.1492Z" fill="#FDBD97"/>
<path d="M75.8242 98.7036C76.2804 98.8861 76.7366 98.9774 76.7366 98.3387C76.7366 97.1527 75.9155 95.4192 75.0031 95.1455C73.9996 94.963 74.182 95.5105 74.4557 96.3316C74.547 96.6053 74.6382 96.879 74.7294 97.2439C74.9119 97.7913 75.4593 98.5212 75.8242 98.7036Z" fill="#FDBD97"/>
<path d="M75.6416 95.5107L75.4592 93.5035C75.4592 93.5035 77.1926 93.686 79.1998 91.7701C79.1998 91.7701 83.0316 92.6824 86.1336 92.3175C89.418 92.0438 90.7865 91.1314 90.7865 91.1314C90.7865 91.1314 90.2391 94.872 89.6917 95.9668C89.6917 95.9668 91.2427 95.3282 91.8813 93.5035C92.4287 91.7701 92.3375 89.8542 92.3375 89.8542C92.3375 89.8542 94.5271 88.1207 95.0745 86.1136C95.0745 86.1136 89.1443 84.745 87.4109 83.559C85.6774 82.373 84.6738 81.5518 84.6738 81.5518C84.6738 81.5518 81.9368 80.0009 79.1998 82.0993C76.4627 84.2889 74.6381 85.4749 74.6381 89.2155C74.5468 89.3067 71.9923 92.8649 75.6416 95.5107Z" fill="#160856"/>
<path d="M76.0977 108.648C76.0977 108.648 72.3571 108.192 70.2587 108.739C68.2516 109.286 67.6129 108.922 68.1603 110.472C68.7077 112.023 71.4448 119.231 70.1675 123.701C68.8902 128.172 67.1567 151.345 67.1567 151.345C67.1567 151.345 81.2068 151.893 86.5896 152.167C92.0637 152.44 96.078 151.437 96.078 151.437C96.078 151.437 97.2641 141.492 96.078 137.113C94.892 132.825 93.341 125.435 93.341 125.435C93.341 125.435 92.3374 115.308 93.7059 112.845C95.0744 110.381 96.078 110.29 94.3446 109.651C92.6111 109.013 90.6952 108.465 89.2354 108.465C87.8669 108.465 87.1371 108.465 86.3159 109.286C85.4948 110.108 83.8526 111.75 81.5718 111.385C79.2909 111.02 77.5574 109.469 77.5574 109.469C77.5574 109.469 76.7363 108.739 76.0977 108.648Z" fill="#0181F7"/>
<path d="M69.4378 109.469C69.4378 109.469 68.1605 108.831 66.2446 110.473C64.1462 112.298 62.6864 116.13 61.9566 118.502C61.2267 120.874 60.7705 123.246 60.7705 123.246C60.7705 123.246 63.4163 124.614 66.2446 124.706C68.9816 124.797 70.8063 124.979 70.8063 124.979C70.8063 124.979 71.9923 117.772 71.7186 114.579C71.3537 111.385 70.8975 110.291 69.4378 109.469Z" fill="#023E9F"/>
<path d="M92.6119 112.114C92.6119 112.114 93.7067 109.103 96.17 110.471C98.6334 111.84 100.458 117.132 101.097 118.774C101.644 120.416 102.374 123.792 102.374 123.792C102.374 123.792 99.4545 125.069 96.8999 125.251C94.4366 125.434 92.7032 125.616 92.7032 125.616C92.7032 125.616 91.6996 119.047 91.882 116.493C92.0645 113.938 92.6119 112.114 92.6119 112.114Z" fill="#023E9F"/>
<path d="M72.2656 153.444H91.1511L81.3891 156.455L72.2656 153.444Z" fill="#BA0A28"/>
<path d="M55.4789 148.061C55.4789 148.061 89.9654 158.827 97.5379 161.473C97.5379 161.473 100.001 162.111 100.092 163.389C100.184 164.666 99.91 166.49 99.6363 167.403C99.3626 168.315 98.5415 169.045 97.1729 168.771C95.8044 168.498 64.876 162.294 52.6506 159.101L49.1837 158.006C49.1837 158.006 46.6291 156.82 47.0853 153.718C47.5415 150.616 49.8223 147.787 51.4646 147.605C53.1068 147.514 55.4789 148.061 55.4789 148.061Z" fill="#EC384E"/>
<path d="M52.3778 163.388C52.3778 163.388 56.6658 162.658 59.3116 162.567C61.8661 162.476 65.333 162.202 65.8804 162.567C66.4279 162.932 66.884 167.95 66.884 167.95C66.884 167.95 67.3402 169.319 63.9645 169.045C60.5889 168.771 52.7427 168.497 52.7427 168.497C52.7427 168.497 51.0093 168.406 50.918 166.855C50.8268 165.304 51.1005 164.574 51.1005 164.574C51.1005 164.574 51.1917 163.571 52.3778 163.388Z" fill="#160856"/>
<path d="M72.9044 159.009C72.9044 159.009 93.797 152.622 101.278 150.433C108.759 148.243 112.865 146.236 115.328 149.703C117.7 153.17 117.518 157.093 114.781 158.188C112.044 159.283 90.2389 164.392 81.2067 166.216C72.1745 168.041 66.2443 169.227 65.4232 168.862C64.6021 168.497 63.6897 165.851 63.8722 164.392C64.0546 162.932 64.1459 162.384 65.8793 161.655C67.6128 160.833 72.9044 159.009 72.9044 159.009Z" fill="#DB061F"/>
<path d="M70.533 128.537H95.7137C95.7137 128.537 97.0822 128.355 97.0822 130.18C97.0822 132.004 97.0822 151.893 97.0822 151.893C97.0822 151.893 97.1734 153.353 96.0786 153.353C94.9838 153.353 66.5187 153.353 66.5187 153.353C66.5187 153.353 65.3327 153.718 65.3327 151.711C65.3327 149.704 65.3327 129.632 65.3327 129.632C65.3327 129.632 65.2414 128.537 66.7012 128.537C68.0697 128.537 70.533 128.537 70.533 128.537Z" fill="#0064B5"/>
<path d="M82.7576 140.854L80.9329 139.394L79.4731 141.219L81.2978 142.678L82.7576 140.854Z" fill="#579CD2"/>
</svg>
