<svg width="422" height="378" viewBox="0 0 422 378" fill="none" xmlns="http://www.w3.org/2000/svg">
<path d="M42.5967 118.161C42.4621 123.648 34.4802 127.483 49.9418 134.338C65.4034 141.193 45.4744 145.615 62.6242 159.258C79.7735 173.008 89.2385 152.072 91.3477 138.954C93.564 125.945 79.1227 130.393 72.4805 124.442C65.9463 118.384 72.525 115.403 71.6966 108.835C70.9757 102.267 57.7351 103.278 53.2104 104.332C48.6857 105.386 49.6769 100.763 45.0696 96.7592C40.4622 92.755 30.8658 96.6892 29.7558 103.571C28.6458 110.452 36.9218 112.43 36.9218 112.43C36.9218 112.43 42.6243 112.565 42.5967 118.161Z" fill="#EC384E"/>
<path d="M98.771 161.373C98.771 161.373 93.394 160.701 77.9653 147.174C62.5366 133.647 51.2266 114.115 51.2266 114.115" stroke="white" stroke-miterlimit="10" stroke-linecap="round" stroke-linejoin="round"/>
<path d="M24.0293 130.337C46.4677 140.778 70.5502 166.937 70.5502 166.937" stroke="#FABC43" stroke-miterlimit="10"/>
<path d="M26.3895 131.531C15.504 135.029 9.19937 126.066 9.19937 126.066C22.1283 122.794 26.3895 131.531 26.3895 131.531Z" stroke="#FABC43" stroke-miterlimit="10"/>
<path d="M26.2082 146.595C34.7519 137.921 43.6602 142.592 43.6602 142.592C32.8478 153.084 26.2082 146.595 26.2082 146.595Z" stroke="#FABC43" stroke-miterlimit="10"/>
<path d="M43.7965 158.627C53.8377 151.79 61.662 158.07 61.662 158.07C49.0315 166.293 43.7965 158.627 43.7965 158.627Z" stroke="#FABC43" stroke-miterlimit="10"/>
<path d="M39.0108 125.245C35.2955 136.741 43.5523 142.592 43.5523 142.592C47.8205 128.087 39.0108 125.245 39.0108 125.245Z" stroke="#FABC43" stroke-miterlimit="10"/>
<path d="M405.815 63.0073C405.815 63.0073 401.36 63.3102 394.873 64.9069L390.155 72.7795L389.658 66.3769C371.341 72.1445 344.189 87.5347 345.82 128.03C345.819 128.02 394.811 151.816 405.815 63.0073Z" fill="#FCBE42"/>
<path d="M377.617 71.2502L355.61 113.796L405.815 63.0078" stroke="white" stroke-miterlimit="10"/>
<path d="M400.267 90.652L354.911 116.208" stroke="white" stroke-miterlimit="10"/>
<path d="M369.4 335.75H66.7996C63.5138 335.75 60.8496 333.086 60.8496 329.8V99.4002C60.8496 96.1144 63.5138 93.4502 66.7996 93.4502H369.4C372.685 93.4502 375.35 96.1144 375.35 99.4002V329.8C375.35 333.086 372.685 335.75 369.4 335.75Z" fill="white" stroke="#0064B7" stroke-width="1.5"/>
<path d="M346.4 174.6H281.4C279.7 174.6 278.4 173.2 278.4 171.6V144.4C278.4 142.7 279.8 141.4 281.4 141.4H346.4C348.1 141.4 349.4 142.8 349.4 144.4V171.6C349.4 173.2 348.1 174.6 346.4 174.6Z" fill="white"/>
<path d="M335.3 148.7H293.4V151.4H335.3V148.7Z" fill="#0064B7"/>
<path d="M340.501 157.1H286.201V159.8H340.501V157.1Z" fill="#DCE8F4"/>
<path d="M313.001 164.2H286.201V166.9H313.001V164.2Z" fill="#DCE8F4"/>
<path d="M289.901 150C289.901 151 289.101 151.8 288.101 151.8C287.101 151.8 286.301 151 286.301 150C286.301 149 287.101 148.2 288.101 148.2C289.101 148.2 289.901 149 289.901 150Z" fill="#0064B7"/>
<path d="M376.1 106.9H60V96.9C60 94.2 62.2 92 64.9 92H372.2C374.3 92 376.1 93.7 376.1 95.9V106.9Z" fill="#0064B7"/>
<path d="M368.5 99.4998C368.5 101.2 367.1 102.7 365.3 102.7C363.6 102.7 362.1 101.3 362.1 99.4998C362.1 97.7998 363.5 96.2998 365.3 96.2998C367.1 96.2998 368.5 97.6998 368.5 99.4998Z" fill="white"/>
<path d="M359.599 99.4998C359.599 101.2 358.199 102.7 356.399 102.7C354.699 102.7 353.199 101.3 353.199 99.4998C353.199 97.7998 354.599 96.2998 356.399 96.2998C358.199 96.2998 359.599 97.6998 359.599 99.4998Z" fill="white"/>
<path d="M350.599 99.4998C350.599 101.2 349.199 102.7 347.399 102.7C345.699 102.7 344.199 101.3 344.199 99.4998C344.199 97.7998 345.599 96.2998 347.399 96.2998C349.199 96.2998 350.599 97.6998 350.599 99.4998Z" fill="white"/>
<path d="M158 125H80C77.2386 125 75 127.239 75 130V314C75 316.761 77.2386 319 80 319H158C160.761 319 163 316.761 163 314V130C163 127.239 160.761 125 158 125Z" stroke="#0064B7" stroke-miterlimit="10"/>
<path d="M255 125H177C174.239 125 172 127.239 172 130V314C172 316.761 174.239 319 177 319H255C257.761 319 260 316.761 260 314V130C260 127.239 257.761 125 255 125Z" stroke="#0064B7" stroke-miterlimit="10"/>
<path d="M352 125H274C271.239 125 269 127.239 269 130V314C269 316.761 271.239 319 274 319H352C354.761 319 357 316.761 357 314V130C357 127.239 354.761 125 352 125Z" stroke="#0064B7" stroke-miterlimit="10"/>
<path d="M151 178.2H86C84.3 178.2 83 176.8 83 175.2V148C83 146.3 84.4 145 86 145H151C152.7 145 154 146.4 154 148V175.2C154 176.9 152.7 178.2 151 178.2Z" fill="white"/>
<path d="M139.9 152.3H98V155H139.9V152.3Z" fill="#0064B7"/>
<path d="M145.101 160.8H90.8008V163.5H145.101V160.8Z" fill="#EA394E"/>
<path d="M117.601 167.9H90.8008V170.6H117.601V167.9Z" fill="#EA394E"/>
<path d="M94.5004 153.7C94.5004 154.7 93.7004 155.5 92.7004 155.5C91.7004 155.5 90.9004 154.7 90.9004 153.7C90.9004 152.7 91.7004 151.9 92.7004 151.9C93.7004 151.8 94.5004 152.7 94.5004 153.7Z" fill="#0064B7"/>
<path d="M151.199 215.2H86.1992C84.4992 215.2 83.1992 213.8 83.1992 212.2V185C83.1992 183.3 84.5992 182 86.1992 182H151.199C152.899 182 154.199 183.4 154.199 185V212.2C154.199 213.9 152.899 215.2 151.199 215.2Z" fill="white"/>
<path d="M140.099 189.3H98.1992V192H140.099V189.3Z" fill="#0064B7"/>
<path d="M145.3 197.7H91V200.4H145.3V197.7Z" fill="#DCE8F4"/>
<path d="M117.8 204.8H91V207.5H117.8V204.8Z" fill="#DCE8F4"/>
<path d="M94.6996 190.7C94.6996 191.7 93.8996 192.5 92.8996 192.5C91.8996 192.5 91.0996 191.7 91.0996 190.7C91.0996 189.7 91.8996 188.9 92.8996 188.9C93.8996 188.8 94.6996 189.6 94.6996 190.7Z" fill="#0064B7"/>
<path d="M248.5 249.6H183.5C181.8 249.6 180.5 248.2 180.5 246.6V206.4C180.5 204.7 181.9 203.4 183.5 203.4H248.5C250.2 203.4 251.5 204.8 251.5 206.4V246.6C251.5 248.2 250.2 249.6 248.5 249.6Z" fill="white"/>
<path d="M192.154 232.139C192.154 235.385 193.402 238.326 195.424 240.557L198.728 237.819C197.177 236.297 196.233 234.168 196.233 231.835C196.233 227.238 199.975 223.486 204.56 223.486C205.605 223.486 206.616 223.688 207.526 224.026L209.11 220.545C207.695 220.004 206.178 219.7 204.593 219.7C197.716 219.7 192.154 225.277 192.154 232.139Z" fill="#0064B7"/>
<path d="M204.526 240.185C202.267 240.185 200.211 239.272 198.727 237.819L195.424 240.557C197.682 243.025 200.952 244.58 204.559 244.58C208.031 244.58 211.166 243.126 213.425 240.827L210.492 237.65C208.975 239.205 206.885 240.185 204.526 240.185Z" fill="#00A9FF"/>
<path d="M216.964 232.14C216.964 226.9 213.661 222.404 209.11 220.579L207.525 224.027C210.559 225.278 212.885 228.354 212.885 231.836C212.885 234.101 211.975 236.163 210.526 237.65L213.458 240.828C215.616 238.597 216.964 235.52 216.964 232.14Z" fill="#EE384E"/>
<path d="M237.4 210.6H195.5V213.3H237.4V210.6Z" fill="#0064B7"/>
<path d="M192 211.9C192 212.9 191.2 213.7 190.2 213.7C189.2 213.7 188.4 212.9 188.4 211.9C188.4 210.9 189.2 210.1 190.2 210.1C191.2 210.1 192 210.9 192 211.9Z" fill="#0064B7"/>
<path d="M248.5 189.9H183.5C181.8 189.9 180.5 188.5 180.5 186.9V146.6C180.5 144.9 181.9 143.6 183.5 143.6H248.5C250.2 143.6 251.5 145 251.5 146.6V186.8C251.5 188.5 250.2 189.9 248.5 189.9Z" fill="white"/>
<path d="M237.4 150.9H195.5V153.6H237.4V150.9Z" fill="#0064B7"/>
<path d="M192 152.3C192 153.3 191.2 154.1 190.2 154.1C189.2 154.1 188.4 153.3 188.4 152.3C188.4 151.3 189.2 150.5 190.2 150.5C191.2 150.4 192 151.2 192 152.3Z" fill="#0064B7"/>
<path d="M213.601 159.8H190.301V183.1H213.601V159.8Z" fill="#407BFF"/>
<path opacity="0.4" d="M213.601 159.8H190.301V183.1H213.601V159.8Z" fill="#00A9FF"/>
<path d="M245.4 168.8H218.6V171.5H245.4V168.8Z" fill="#DCE8F4"/>
<path d="M230.3 176H218.6V178.7H230.3V176Z" fill="#DCE8F4"/>
<path d="M245.4 161.5H218.6V164.2H245.4V161.5Z" fill="#DCE8F4"/>
<path d="M299.6 185.3H281.1V203.8H299.6V185.3Z" fill="#0064B7"/>
<path d="M203 271.4H184.5V289.9H203V271.4Z" fill="#0064B7"/>
<path d="M225.5 271.4H207V289.9H225.5V271.4Z" fill="#DCE8F4"/>
<path d="M248.5 271H230V289.5H248.5V271Z" fill="white"/>
<path d="M323.6 185.3H305.1V203.8H323.6V185.3Z" fill="#DCE8F4"/>
<path d="M245.209 67.2061C245.209 67.2061 246.676 71.4968 249.401 75.055C252.127 78.6131 249.506 81.8574 249.506 81.8574C249.506 81.8574 242.798 85.4156 240.806 80.9155C240.806 80.9155 240.282 78.4039 240.177 76.6248C240.177 76.2061 240.073 75.8922 239.863 75.4736C239.444 74.7411 238.92 72.4387 236.928 74.5317C236.928 74.5317 234.622 78.9271 231.268 75.2643C231.163 75.1597 231.058 74.9503 231.058 74.7411L230.849 73.5899L229.696 73.4852C229.381 73.4852 229.172 73.1712 229.172 72.8573V71.7062H228.123C227.809 71.7062 227.495 71.4968 227.495 71.0783L227.285 59.2526C227.285 59.2526 231.897 54.6479 237.452 57.2641C243.008 59.8805 243.427 59.0432 245.209 67.2061Z" fill="#FFBF9C"/>
<path d="M227.075 61.8682C227.075 62.2868 226.866 62.7053 226.551 62.9147C225.713 63.5426 224.036 64.0659 222.254 61.7635C219.633 58.31 222.463 58.31 222.463 58.31C222.463 58.31 220.053 51.4029 227.18 52.8681C227.18 52.8681 231.163 45.4378 235.984 51.6123C235.984 51.6123 244.16 48.1588 244.579 55.6937C244.579 55.6937 250.239 59.8798 246.99 68.1473C246.78 68.5659 246.361 68.8798 245.942 68.9845C244.369 69.2985 241.12 69.0891 241.749 62.7053C241.854 61.9728 241.749 61.1356 241.539 60.5077C241.12 59.2519 240.281 58.2054 238.5 60.717C238.5 60.717 236.298 63.438 235.565 59.8798C234.831 56.3216 228.752 59.0425 227.704 60.2983C227.18 60.9263 227.075 61.4495 227.075 61.8682Z" fill="#170D54"/>
<path d="M240.387 78.1939C240.387 78.1939 226.237 76.5196 225.818 89.8103L225.713 92.6359L264.5 92C264.5 92 266.276 77.1475 256.214 77.1475L250.345 77.3567C250.345 77.3567 250.24 82.1707 245.419 82.2753C240.597 82.1707 240.387 78.1939 240.387 78.1939Z" fill="#F79F03"/>
<path d="M220.215 92.7211C220.215 92.7211 219.062 88.2211 222.101 88.0118C225.141 87.8025 225.35 90.4188 225.35 92.6165C225.35 92.6165 224.302 92.9304 223.883 92.6165C223.568 92.3025 222.939 92.6165 222.625 92.6165C222.415 92.8258 220.529 93.1398 220.215 92.7211Z" fill="#FFBF9C"/>
<path d="M251.602 91.0664C251.602 91.0664 250.973 87.9269 254.222 87.7175C257.472 87.5082 257.996 89.706 258.205 91.2757C258.31 92.8455 258.101 93.578 257.576 93.3688C256.948 93.1594 256.948 92.7409 256.948 92.7409C256.948 92.7409 256.738 92.9501 256.423 93.1594C256.109 93.3688 255.375 93.1594 255.166 92.9501C255.061 92.7409 253.803 92.9501 253.698 93.1594C253.489 93.4734 252.44 93.2641 252.231 92.8455C251.811 92.4269 251.602 91.0664 251.602 91.0664Z" fill="#FFBF9C"/>
<path d="M380.194 307.985H338.227C335.744 307.985 333.699 305.94 333.699 303.457V299.173C333.699 296.69 335.744 294.645 338.227 294.645H380.194C382.677 294.645 384.722 296.69 384.722 299.173V303.457C384.722 305.94 382.677 307.985 380.194 307.985Z" fill="#0A489B"/>
<path d="M343.241 307.985L342.511 311.539L331.702 362.708C331.654 362.903 331.41 363 331.118 363C330.583 363 330.144 362.708 330.193 362.367L338.762 309.981L339.103 307.985H343.241Z" fill="#0A489B"/>
<path d="M387.769 363C387.475 363 387.23 362.853 387.181 362.707L376.304 311.493L375.814 309.301L375.52 307.985H379.684L380.027 309.983L380.272 311.542L388.651 362.415C388.749 362.707 388.308 363 387.769 363Z" fill="#0A489B"/>
<path d="M357.882 238.714C358.104 240.045 360.765 243.371 360.765 243.371L365.864 245.366L367.416 257.783L366.751 265.765C366.751 265.765 367.416 267.982 369.855 267.982C372.516 267.76 374.068 267.538 373.403 263.991C372.738 260.665 374.511 260.887 375.398 254.9C376.285 248.914 372.073 247.362 370.299 246.475C368.525 245.588 366.751 240.932 366.751 240.932C366.086 234.502 359.213 236.941 359.213 236.941C359.213 236.941 357.661 237.606 357.882 238.714Z" fill="#1C1156"/>
<path d="M357.216 236.054C357.216 236.498 358.103 238.272 358.103 238.272C358.103 238.272 360.985 236.719 361.207 236.719C361.429 236.498 360.32 235.389 360.32 235.389C360.32 235.389 357.216 235.833 357.216 236.054Z" fill="#C74F59"/>
<path d="M352.339 226.963C356.33 227.85 355.665 231.62 356.774 236.054C357.661 239.823 359.878 242.262 360.543 242.927V243.149C360.321 243.371 360.1 244.036 359.213 245.145C358.326 246.918 353.891 248.027 353.004 247.584C352.118 247.14 351.009 244.036 351.231 240.932C351.452 238.05 349.013 239.38 349.013 239.38C346.131 239.823 344.579 238.05 344.579 238.05C341.697 235.389 341.475 228.294 341.475 226.742C341.475 226.52 341.697 226.52 341.697 226.52C343.47 226.742 349.013 226.077 352.339 226.963Z" fill="#F9BC97"/>
<path d="M338.149 227.628C338.371 228.294 338.814 228.737 339.036 229.18C340.366 230.289 341.253 228.737 341.918 227.85C342.14 227.628 342.584 227.407 342.805 227.628C345.688 229.402 350.122 228.515 350.122 228.515C354.113 227.185 351.674 231.619 351.674 231.619C351.452 233.837 353.448 236.276 358.326 236.054C362.982 235.832 360.765 225.855 360.543 225.633C358.991 219.425 352.783 217.429 349.014 217.429C346.131 217.429 343.914 219.425 343.249 220.312C343.027 220.533 342.805 220.533 342.584 220.533C341.475 220.533 340.588 220.755 339.701 221.42C338.814 222.307 338.371 223.637 338.149 224.968C338.149 225.411 338.149 226.076 338.149 226.298V226.52C338.371 226.963 338.371 227.407 338.149 227.628Z" fill="#1C1156"/>
<path d="M366.529 245.811L367.859 247.141C367.859 247.141 365.199 272.528 364.534 273.637C364.09 274.745 363.203 277.849 363.203 277.849L343.692 275.189L343.913 274.302C343.913 274.302 346.574 259.89 346.131 258.67C345.909 257.34 344.357 258.005 344.357 253.793C344.357 249.58 351.23 243.372 351.23 243.372C351.23 243.372 351.674 246.919 354.999 246.919C358.325 246.919 360.764 243.15 360.764 243.15C364.312 243.372 366.529 246.032 366.529 245.811Z" fill="#0064DD"/>
<path d="M368.969 262.771L361.43 261.441C361.43 261.441 361.209 260.11 361.43 254.124C361.652 248.359 361.652 244.368 366.53 245.033C371.186 245.698 369.412 258.337 369.412 258.337L368.969 262.771Z" fill="#02549F"/>
<path d="M368.747 263.215C368.969 263.215 368.969 263.436 368.969 263.436C368.747 263.88 368.082 265.654 366.752 270.31C364.756 276.518 361.874 274.079 361.874 274.079C361.874 274.079 346.131 263.88 344.358 263.658C343.249 263.436 342.362 263.215 342.14 262.771C341.919 262.771 342.14 262.549 342.362 262.549C342.806 262.549 343.471 262.549 343.914 261.884C344.801 260.776 341.697 261.441 341.697 261.441C341.697 261.441 340.145 261.884 339.923 261.441C339.701 260.997 340.145 259.445 340.145 259.224C340.367 258.78 343.692 258.78 345.466 259.445C346.797 259.667 347.462 260.554 347.462 261.219C347.683 261.441 347.905 261.884 348.349 262.106C350.344 262.993 356.774 266.097 358.991 267.427C359.656 267.871 360.322 267.871 360.543 268.092C361.208 268.314 361.43 267.649 361.43 266.762L361.652 261.884C361.652 261.663 361.874 261.663 361.874 261.663L368.747 263.215Z" fill="#E8B791"/>
<path d="M341.918 266.318L345.688 266.54L344.801 271.861L335.932 268.314L341.918 266.318Z" fill="#E8B791"/>
<path d="M343.691 268.536L330.166 268.092L315.754 249.8L329.723 250.687L343.691 268.536Z" fill="#1A1154"/>
<path d="M350.344 276.075L337.262 284.279L321.076 303.68L317.529 336.162L310.655 335.94V335.053C310.655 335.053 311.321 304.345 312.208 295.254C313.094 286.164 316.642 285.499 316.642 285.499L344.136 275.078L350.344 276.075Z" fill="#DA0620"/>
<path d="M363.426 277.627L363.647 281.618C365.421 290.93 359.878 293.591 358.548 294.034C358.326 294.256 358.104 294.256 358.104 294.256C355.887 294.478 338.149 296.251 334.38 296.473C330.389 296.917 330.611 298.469 330.611 298.469L342.584 331.616L337.928 335.164C337.928 335.164 324.403 310.885 319.525 302.681C314.869 294.699 322.185 290.265 322.185 290.265L350.122 276.296L363.426 277.627Z" fill="#EA394E"/>
<path d="M317.308 335.939L317.529 338.6C317.751 341.261 316.642 341.483 316.642 341.483C316.642 341.483 307.552 341.483 304.669 341.704C301.787 341.926 302.009 340.817 302.009 340.817C302.009 339.709 303.117 339.487 303.783 339.487C304.004 339.487 304.448 339.265 304.669 339.265L310.656 335.939H317.308Z" fill="#130452"/>
<path d="M342.805 331.728C342.805 331.728 344.135 333.058 345.022 333.945C345.687 334.61 345.688 335.497 345.688 336.162C345.688 336.605 345.466 336.605 345.466 336.827C343.914 337.936 336.819 343.701 334.601 344.366C334.38 344.366 334.38 344.366 334.38 344.366C333.936 344.587 333.493 344.587 333.049 344.366C332.828 344.144 332.828 343.922 332.828 343.701C332.828 343.479 333.049 343.257 333.049 343.035C333.271 342.592 333.493 342.37 333.715 342.148C334.601 340.818 335.71 339.931 336.375 338.601C337.927 336.384 337.927 334.832 337.927 334.832L342.805 331.728Z" fill="#130452"/>
<path d="M394.655 198L388.975 199.623L390.597 205.303L396.277 203.68L394.655 198Z" fill="#0064DD"/>
<path d="M129.826 18.5344C129.02 19.6908 128.295 20.6821 127.408 21.7559C127.247 21.9211 127.247 22.0863 127.408 22.3341C127.73 22.9949 127.972 23.9036 128.375 24.5644C128.456 24.7296 128.537 24.8122 128.698 24.8122C130.149 24.9774 131.438 25.1426 132.889 25.3904C132.889 26.5469 132.889 27.5381 132.889 28.7771C132.002 28.8597 131.116 29.0249 130.229 29.1075C129.746 29.1901 129.101 29.1901 128.617 29.2727C128.537 29.2727 128.375 29.3553 128.375 29.438C128.053 30.264 127.73 31.09 127.247 31.9986C127.247 32.0812 127.247 32.2464 127.327 32.329C127.972 33.3203 128.778 34.3115 129.423 35.2201C129.504 35.3027 129.584 35.3854 129.584 35.468C128.778 36.294 128.053 37.0374 127.166 37.946C127.166 37.946 127.005 37.8634 126.924 37.7808C125.957 37.12 124.99 36.294 124.023 35.6332C123.942 35.5506 123.781 35.5506 123.62 35.6332C122.814 35.881 122.008 36.294 121.201 36.6244C121.04 36.707 120.96 36.7896 120.96 37.0374C120.798 38.3591 120.637 39.6807 120.476 41.0849C120.476 41.3328 120.395 41.4154 120.154 41.4154C119.267 41.4154 118.38 41.4154 117.574 41.4154C117.332 41.4154 117.252 41.3328 117.252 41.0849C117.091 39.7633 116.929 38.4417 116.768 37.12C116.768 36.8722 116.688 36.7896 116.446 36.707C115.64 36.4592 114.914 36.0462 114.028 35.7158C113.947 35.7158 113.786 35.7158 113.625 35.7984C112.657 36.4592 111.69 37.2852 110.804 37.946C110.723 38.0286 110.562 38.1112 110.481 38.1938C109.675 37.3678 108.95 36.6244 108.063 35.7158C108.869 34.5593 109.594 33.6507 110.4 32.4943C110.562 32.2464 110.562 32.0812 110.4 31.8334C110.078 31.1726 109.836 30.3466 109.514 29.6858C109.433 29.438 109.353 29.3554 109.111 29.3554C107.821 29.1901 106.612 29.0249 105.403 28.8597C105.322 28.8597 105.161 28.8597 105 28.7771C105 27.6207 105 26.6295 105 25.3904C105.645 25.3078 106.451 25.2252 107.096 25.1426C107.741 25.06 108.547 24.9774 109.191 24.8948C109.272 24.8948 109.433 24.8122 109.433 24.647C109.756 23.821 110.078 22.9949 110.562 22.1689C110.562 22.0863 110.562 21.9211 110.481 21.7559C109.836 20.7647 109.03 19.7734 108.385 18.8648C108.305 18.7822 108.224 18.6996 108.224 18.617C109.03 17.791 109.756 16.9649 110.642 16.1389C111.61 16.7997 112.657 17.7084 113.786 18.5344C113.947 18.6996 114.108 18.6996 114.35 18.5344C114.995 18.204 115.801 17.9562 116.446 17.6258C116.688 17.5432 116.768 17.4605 116.849 17.2127C117.01 15.8911 117.171 14.5695 117.332 13.2478C117.332 13 117.413 13 117.655 13C118.542 13 119.428 13 120.315 13C120.476 13 120.557 13 120.557 13.2478C120.718 14.5695 120.879 15.8911 121.04 17.2127C121.04 17.4605 121.202 17.6258 121.443 17.7084C122.088 17.9562 122.894 18.2866 123.539 18.6996C123.7 18.7822 123.861 18.7822 124.023 18.6996C125.151 17.8736 126.118 17.0475 127.247 16.2215C128.295 16.9649 129.02 17.5432 129.826 18.5344ZM112.093 27.1251C112.093 30.9248 115.076 34.1463 118.783 34.1463C122.652 34.1463 125.635 31.09 125.635 27.2903C125.635 23.3253 122.652 20.269 118.945 20.269C115.237 20.1864 112.093 23.2427 112.093 27.1251Z" stroke="#003EB0" stroke-miterlimit="10"/>
<path d="M19.2383 227.104L11.508 235.414C11.508 235.414 8.84386 238.306 11.508 240.887C14.1722 243.476 16.015 245.332 16.015 245.332L19.2383 227.104Z" fill="#FFBF99"/>
<path d="M86.5534 193.47L89.3004 191.289C89.3004 191.289 89.7559 190.875 90.2046 191.068C90.6532 191.262 90.6877 191.731 90.0044 192.249C89.328 192.773 87.2919 194.437 87.2919 194.437L86.5534 193.47Z" fill="#0064B7"/>
<path d="M86.1457 192.408L88.168 195.058L77.7114 208.517L70.5334 198.702L86.1457 192.408Z" fill="#649EEA"/>
<path d="M70.5329 198.703L46.1619 217.117C48.0185 219.664 50.9864 223.978 52.9949 226.932L77.7109 208.517L70.5329 198.703Z" fill="#0064B7"/>
<path d="M52.9961 226.931C50.9876 223.977 48.0198 219.657 46.1631 217.117L16.1256 239.81L21.0536 250.723L52.9961 226.931Z" fill="#649EEA"/>
<path d="M10.4513 244.103L9.65062 244.711C9.65062 244.711 8.35305 245.67 9.42286 247.016C10.7342 248.666 14.4199 254.035 14.4199 254.035C14.4199 254.035 15.2827 255.25 15.966 254.726C16.6424 254.194 18.2298 252.834 18.2298 252.834L21.0527 250.736L16.1247 239.824L10.4513 244.103Z" fill="#0064B7"/>
<path d="M34.3945 265.037L23.0546 359.381L14.9447 358.594L13.7783 262.58L34.3945 265.037Z" fill="#0064E1"/>
<path d="M22.0398 265.037L43.3394 359.381L51.4492 358.594L45.8724 262.58L22.0398 265.037Z" fill="#003EB0"/>
<path d="M29.0459 206.06C29.0459 206.06 28.3488 209.987 26.8717 213.928C25.3947 217.869 24.6493 219.449 24.6493 219.449C24.6493 219.449 29.46 224.819 34.1326 223.936C38.8053 223.052 38.7363 219.926 38.7363 219.926C38.7363 219.926 34.3604 216.502 34.2569 211.816C34.1534 207.129 34.1533 207.129 34.1533 207.129L29.0459 206.06Z" fill="#FFBF99"/>
<path d="M38.5776 195.299C38.5776 195.299 40.9933 198.371 41.1107 203.844C41.228 209.317 40.5309 213.238 38.1911 213.293C35.8444 213.341 31.1235 211.885 30.309 210.339C29.4946 208.793 27.9278 208.827 27.8588 205.701C27.7898 202.574 31.5445 195.458 34.6711 195.389C37.7977 195.313 38.5776 195.299 38.5776 195.299Z" fill="#FFBF99"/>
<path d="M40.9251 195.244C40.9251 195.244 43.1337 188.943 41.5532 188.19C39.9726 187.445 36.8805 189.074 36.1144 189.875C35.3483 190.675 33.7884 190.71 33.0085 190.723C33.0085 190.723 25.1954 190.896 23.6632 192.49C22.1309 194.085 22.1516 194.872 22.1654 195.651C22.1793 196.431 22.2414 199.496 21.5029 201.139C21.1854 201.849 20.8058 205.066 22.4346 208.158C24.0635 211.25 25.6441 211.995 26.4309 211.982C27.2108 211.968 27.9148 211.947 27.9769 211.167C28.0391 210.318 28.322 209.124 28.6878 208.027C29.0398 206.978 29.3987 204.886 29.3987 204.886C29.3987 204.886 30.0959 200.959 31.6212 199.365C33.1534 197.77 33.1534 197.77 36.2593 196.915C39.379 196.066 40.1935 197.612 40.9251 195.244Z" fill="#170856"/>
<path d="M30.5099 201.18C31.6971 202.485 30.1855 204.866 30.1855 204.866C30.1855 204.866 27.8596 205.701 27.8044 203.355C27.7491 201.008 29.3228 199.876 30.5099 201.18Z" fill="#FFBF99"/>
<path d="M14.9527 364.743C14.9527 364.743 14.4972 366.02 17.1269 365.999C19.7565 365.979 34.0644 365.847 34.0644 365.847C34.0644 365.847 36.8183 365.275 34.2576 364.06C31.697 362.852 24.0289 359.484 24.0289 359.484C24.0289 359.484 23.4491 359.332 23.4422 357.862L14.7664 357.938L14.9527 364.743Z" fill="#170856"/>
<path d="M42.9059 364.743C42.9059 364.743 42.4503 366.02 45.08 365.999C47.7096 365.979 62.0175 365.847 62.0175 365.847C62.0175 365.847 64.7714 365.275 62.2107 364.06C59.6501 362.852 51.982 359.484 51.982 359.484C51.982 359.484 51.4022 359.332 51.3953 357.862L42.7195 357.938L42.9059 364.743Z" fill="#170856"/>
<path d="M34.913 217.931C34.913 217.931 35.762 217.234 36.7352 218.007C37.7084 218.78 41.0903 221.272 42.7468 224.502C44.4033 227.732 44.9624 232.191 45.5283 242.62C46.0943 253.048 46.0046 264.326 46.0046 264.326L13.6894 265.03C13.6894 265.03 12.6679 246.064 15.7117 234.399C18.7555 222.735 23.3177 218.683 24.3323 218.173C25.3469 217.669 26.3615 218.676 26.3615 218.676C26.3615 218.676 30.7995 222.756 34.913 217.931Z" fill="#FCBE42"/>
<path d="M48.255 227.794L55.3779 235.504C55.3779 235.504 55.9714 236.691 57.1586 234.91C58.3457 233.13 63.0943 224.827 63.0943 222.452C63.0943 220.078 63.0943 218.297 63.6879 217.11C64.2814 215.923 65.4686 214.142 65.4686 214.142C65.4686 214.142 66.6557 212.362 66.6557 213.549C66.6557 214.736 66.6557 216.517 67.2493 216.517C67.8429 216.517 71.4043 212.955 71.4043 212.955C71.4043 212.955 71.4043 218.891 70.2172 219.484C69.03 220.078 67.2493 221.265 67.2493 223.046C67.2493 224.827 61.9072 240.252 60.72 242.627C59.5329 245.001 57.1586 245.001 54.7843 243.814C52.41 242.627 42.3262 234.324 42.3262 234.324L48.255 227.794Z" fill="#FFBF99"/>
<path d="M50.125 228.056C50.125 228.056 39.4476 217.973 34.699 221.527C29.9505 225.089 43.0021 236.953 43.0021 236.953C43.0021 236.953 49.5314 230.424 50.125 228.056Z" fill="#F79F03"/>
<path d="M62.9341 308.741C62.9341 308.741 66.1678 307.521 65.9251 304.078C65.6824 300.635 63.7719 298.187 67.7181 299.189C71.6721 300.191 73.0032 300.635 75.8689 300.075C78.7346 299.523 81.1305 298.412 79.8699 301.855C78.6093 305.298 77.2547 308.189 80.2144 308.741C83.1662 309.293 86.3372 307.223 86.7209 312.613C87.1046 318.01 82.4067 324.075 74.8197 324.293C67.2327 324.518 63.8815 321.598 63.8815 321.598C63.8815 321.598 61.8458 318.939 65.0168 318.278C68.1879 317.625 71.4216 316.375 69.8086 314.995C68.1879 313.622 62.9185 313.506 62.9185 313.506C62.9185 313.506 56.3415 312.3 62.9341 308.741Z" fill="#649EEA"/>
<path d="M97.6112 309.634C97.0788 306.198 97.486 303.721 104.376 302.784C111.266 301.847 115.275 305.682 115.698 309.634C116.121 313.585 110.131 315.009 110.131 315.009C110.131 315.009 105.879 316.135 108.033 319.578C110.186 323.021 111.165 326.355 106.279 326.856C101.385 327.358 96.0296 326.159 93.0543 324.314C90.079 322.469 87.0176 317.798 90.4314 315.358C90.4314 315.358 91.3866 314.747 94.6829 314.58C97.9636 314.413 97.6112 309.634 97.6112 309.634Z" fill="#023EA1"/>
<path d="M73.3789 309.075C73.3789 309.075 79.0946 321.075 79.8776 329.247" stroke="#023EA1" stroke-miterlimit="10"/>
<path d="M105.172 311.043C105.172 311.043 95.0482 324.99 92.6523 329.653" stroke="#649EEA" stroke-miterlimit="10"/>
<path d="M76.3453 328.302H99.584C99.584 328.302 102.129 328.469 101.917 331.694C101.722 334.658 97.6657 334.018 95.5673 334.018C93.469 334.018 75.8442 334.018 75.8442 334.018C75.8442 334.018 72.9863 334.469 72.9863 331.469C72.9942 328.469 74.0668 328.302 76.3453 328.302Z" fill="#0054A5"/>
<path d="M75.8457 334.019L79.3691 353.064H94.9738L97.6124 338.769L75.877 334.019H75.8457Z" fill="#0054A5"/>
<path d="M75.8789 334.019L97.6143 338.769L98.4912 334.019H75.8789Z" fill="#006AD5"/>
<path d="M85.8652 329.021C85.8652 329.021 87.0397 307.89 93.8281 294.626" stroke="#FCBE42" stroke-miterlimit="10"/>
<path d="M99.4199 287C99.4199 287 99.9837 293.487 93.1561 296.022C93.1561 296.022 91.6763 290.487 99.4199 287Z" fill="#FCBE42"/>
<path d="M89.1875 307.651C89.1875 307.651 91.7008 302.116 99.4366 302.857C99.4366 302.857 98.8337 308.371 89.1875 307.651Z" fill="#FCBE42"/>
<path d="M86.6426 321.57C86.6426 321.57 87.9423 315.686 95.6859 315.011C95.6859 315.011 96.2497 320.531 86.6426 321.57Z" fill="#FCBE42"/>
<path d="M86.3757 321.605C86.3757 321.605 87.2762 315.655 80.2216 312.619C80.2216 312.619 77.6926 317.638 86.3757 321.605Z" fill="#FCBE42"/>
<path d="M89.2645 307.607C89.2645 307.607 90.9714 301.81 84.3944 297.96C84.4022 297.968 81.1999 302.646 89.2645 307.607Z" fill="#FCBE42"/>
</svg>
