<svg width="439" height="339" viewBox="0 0 439 339" fill="none" xmlns="http://www.w3.org/2000/svg">
<path d="M286.293 128.694C286.293 128.694 281.838 128.997 275.35 130.593L270.632 138.466L270.136 132.063C251.818 137.831 224.666 153.221 226.297 193.717C226.296 193.706 275.288 217.503 286.293 128.694Z" fill="#FCBE42"/>
<path d="M258.095 136.937L236.088 179.482L286.293 128.694" stroke="white" stroke-miterlimit="10"/>
<path d="M280.744 156.339L235.388 181.895" stroke="white" stroke-miterlimit="10"/>
<path d="M171.444 153.88C168.913 158.751 160.059 158.692 170.941 171.639C181.823 184.587 161.976 179.81 171.395 199.597C180.766 219.481 198.462 204.825 206.116 193.965C213.819 183.25 198.891 180.906 195.536 172.643C192.325 164.331 199.544 164.542 201.683 158.277C203.919 152.059 191.579 147.154 187.051 146.115C182.523 145.075 185.443 141.357 183.061 135.737C180.68 130.117 170.33 129.438 166.312 135.133C162.294 140.829 168.861 146.239 168.861 146.239C168.861 146.239 173.925 148.865 171.444 153.88Z" fill="#EC384E"/>
<path d="M202.942 217.367C202.942 217.367 198.406 214.402 190.482 195.475C182.559 176.548 180.972 154.033 180.972 154.033" stroke="white" stroke-miterlimit="10" stroke-linecap="round" stroke-linejoin="round"/>
<path d="M149.415 156.667C164.991 175.899 175.143 209.976 175.143 209.976" stroke="#FABC43" stroke-miterlimit="10"/>
<path d="M151.012 158.777C139.696 157.14 137.966 146.32 137.966 146.32C151.019 149.056 151.012 158.777 151.012 158.777Z" stroke="#FABC43" stroke-miterlimit="10"/>
<path d="M144.235 172.232C155.719 168.19 161.672 176.297 161.672 176.297C147.351 180.977 144.235 172.232 144.235 172.232Z" stroke="#FABC43" stroke-miterlimit="10"/>
<path d="M154.755 190.764C166.778 189.029 171.051 198.106 171.051 198.106C156.093 199.95 154.755 190.764 154.755 190.764Z" stroke="#FABC43" stroke-miterlimit="10"/>
<path d="M165.111 158.67C156.726 167.368 161.576 176.25 161.576 176.25C171.779 165.091 165.111 158.67 165.111 158.67Z" stroke="#FABC43" stroke-miterlimit="10"/>
<path d="M23.0334 96.8853H13.3656C13.2093 96.8853 13.0813 97.0061 13.0813 97.1696V101.15C13.0813 101.222 13.1168 101.3 13.1666 101.349L14.304 102.487C14.3537 102.537 14.4248 102.572 14.5101 102.572H21.9031C21.9742 102.572 22.0524 102.537 22.1022 102.487L23.2396 101.349C23.2893 101.3 23.3249 101.229 23.3249 101.15V97.1625C23.3249 97.0061 23.1898 96.8853 23.0334 96.8853ZM22.7491 101.03L21.7823 101.996H14.631L13.6642 101.03V97.4468H22.7633V101.03H22.7491Z" fill="#003EB0"/>
<path d="M23.5946 98.0149L12.7824 98.5836C12.626 98.5907 12.5052 98.7258 12.5123 98.8822C12.5194 99.0386 12.6402 99.1523 12.7966 99.1523C12.8037 99.1523 12.8037 99.1523 12.8108 99.1523L23.6231 98.5836C23.7795 98.5765 23.9003 98.4415 23.8932 98.2851C23.879 98.1287 23.7439 98.0078 23.5946 98.0149Z" fill="#003EB0"/>
<path d="M23.5946 99.7284L12.7824 100.297C12.626 100.304 12.5052 100.439 12.5123 100.596C12.5194 100.752 12.6402 100.866 12.7966 100.866C12.8037 100.866 12.8037 100.866 12.8108 100.866L23.6231 100.297C23.7795 100.29 23.9003 100.155 23.8932 99.9985C23.879 99.835 23.7439 99.7071 23.5946 99.7284Z" fill="#003EB0"/>
<path d="M18.1997 77.5425C12.8611 77.5425 8.53198 81.8788 8.53198 87.2102C8.53198 90.5726 10.231 93.6222 13.0815 95.3994V97.1623C13.0815 97.3187 13.2095 97.4467 13.3659 97.4467H23.0336C23.19 97.4467 23.318 97.3187 23.318 97.1623V95.3994C26.1685 93.6151 27.8675 90.5655 27.8675 87.2102C27.8675 81.8788 23.5312 77.5425 18.1997 77.5425ZM22.8843 94.9942C22.799 95.044 22.7422 95.1435 22.7422 95.243V96.8851H13.6431V95.243C13.6431 95.1435 13.5933 95.0511 13.5009 94.9942C10.7357 93.3308 9.09357 90.4162 9.09357 87.2102C9.09357 82.1915 13.1739 78.1112 18.1926 78.1112C23.2113 78.1112 27.2917 82.1915 27.2917 87.2102C27.2988 90.4233 25.6496 93.3308 22.8843 94.9942Z" fill="#003EB0"/>
<path d="M20.885 102.032C20.7428 101.961 20.5722 102.018 20.5011 102.153C20.4798 102.195 19.9679 103.134 18.1979 103.134C16.4278 103.134 15.9089 102.188 15.8947 102.153C15.8236 102.011 15.6601 101.954 15.5179 102.032C15.3758 102.103 15.3189 102.266 15.39 102.409C15.4113 102.465 16.0653 103.702 18.1979 103.702C20.3305 103.702 20.9845 102.458 21.0058 102.409C21.084 102.266 21.0271 102.103 20.885 102.032Z" fill="#003EB0"/>
<path d="M5.97127 86.9253H0.284352C0.127962 86.9253 0 87.0461 0 87.2096C0 87.366 0.127962 87.494 0.284352 87.494H5.97127C6.12766 87.494 6.25561 87.366 6.25561 87.2096C6.25561 87.0532 6.12766 86.9253 5.97127 86.9253Z" fill="#DE051F"/>
<path d="M36.1116 86.9253H30.4247C30.2683 86.9253 30.1404 87.0532 30.1404 87.2096C30.1404 87.366 30.2683 87.494 30.4247 87.494H36.1116C36.268 87.494 36.396 87.366 36.396 87.2096C36.4031 87.0532 36.268 86.9253 36.1116 86.9253Z" fill="#DE051F"/>
<path d="M7.85516 93.1812C7.76986 93.0391 7.59925 93.0035 7.4713 93.0746L2.545 95.9181C2.40283 96.0034 2.36729 96.174 2.43838 96.3019C2.48814 96.3943 2.58765 96.4441 2.68717 96.4441C2.73693 96.4441 2.7867 96.437 2.82935 96.4015L7.75564 93.558C7.8907 93.4869 7.94046 93.3163 7.85516 93.1812Z" fill="#DE051F"/>
<path d="M33.9577 78.1036C33.8724 77.9614 33.7018 77.9259 33.5738 77.997L28.6475 80.8475C28.5054 80.9328 28.4698 81.1034 28.5409 81.2314C28.5907 81.3238 28.6902 81.3736 28.7897 81.3736C28.8395 81.3736 28.8892 81.3594 28.9319 81.3309L33.8582 78.4875C33.9933 78.4164 34.0359 78.2458 33.9577 78.1036Z" fill="#DE051F"/>
<path d="M27.297 71.4501C27.1549 71.379 26.9842 71.4146 26.9132 71.5567L24.0697 76.483C23.9844 76.6252 24.0341 76.7958 24.1763 76.8669C24.2261 76.8882 24.2759 76.9095 24.3185 76.9095C24.418 76.9095 24.5175 76.8598 24.5673 76.7674L27.4108 71.8411C27.4819 71.6989 27.4321 71.5283 27.297 71.4501Z" fill="#DE051F"/>
<path d="M18.1982 69.0117C18.0418 69.0117 17.9138 69.1397 17.9138 69.2961V74.983C17.9138 75.1394 18.0418 75.2673 18.1982 75.2673C18.3545 75.2673 18.4825 75.1394 18.4825 74.983V69.2961C18.4825 69.1397 18.3545 69.0117 18.1982 69.0117Z" fill="#DE051F"/>
<path d="M12.3334 76.4752L9.48991 71.5489C9.4046 71.4067 9.234 71.3712 9.10604 71.4423C8.96387 71.5276 8.92832 71.6982 8.99941 71.8261L11.8429 76.7524C11.8926 76.8448 11.9922 76.8946 12.0917 76.8946C12.1414 76.8946 12.1912 76.8875 12.2338 76.852C12.3618 76.788 12.4116 76.6174 12.3334 76.4752Z" fill="#DE051F"/>
<path d="M33.8574 95.9259L28.9311 93.0824C28.7889 93.0113 28.6183 93.0469 28.5472 93.189C28.4619 93.3312 28.5117 93.5018 28.6539 93.5729L33.5801 96.4164C33.6299 96.4377 33.6797 96.459 33.7223 96.459C33.8218 96.459 33.9213 96.4093 33.9711 96.3169C34.0351 96.1676 33.9925 95.997 33.8574 95.9259Z" fill="#DE051F"/>
<path d="M7.74826 80.8404L2.82197 77.997C2.67979 77.9259 2.50919 77.9614 2.4381 78.1036C2.3528 78.2458 2.40256 78.4164 2.54473 78.4875L7.47102 81.3309C7.52078 81.3522 7.56343 81.3736 7.61319 81.3736C7.71272 81.3736 7.81224 81.3238 7.862 81.2314C7.9402 81.0963 7.89043 80.9257 7.74826 80.8404Z" fill="#DE051F"/>
<path d="M19.0228 96.8851V87.7007C19.0228 87.7007 18.8948 83.3716 21.2549 83.3716C23.6149 83.3716 22.5273 87.8714 17.9778 87.8714" stroke="#003EB0" stroke-miterlimit="10"/>
<path d="M16.9251 96.8851V87.7007C16.9251 87.7007 17.0531 83.3716 14.693 83.3716C12.333 83.3716 13.4206 87.8714 17.9701 87.8714" stroke="#003EB0" stroke-miterlimit="10"/>
<path d="M356.865 126.641C356.059 127.798 355.334 128.789 354.447 129.863C354.286 130.028 354.286 130.193 354.447 130.441C354.769 131.102 355.011 132.011 355.414 132.671C355.495 132.837 355.575 132.919 355.737 132.919C357.187 133.084 358.477 133.25 359.928 133.497C359.928 134.654 359.928 135.645 359.928 136.884C359.041 136.967 358.155 137.132 357.268 137.214C356.784 137.297 356.14 137.297 355.656 137.38C355.575 137.38 355.414 137.462 355.414 137.545C355.092 138.371 354.769 139.197 354.286 140.106C354.286 140.188 354.286 140.353 354.366 140.436C355.011 141.427 355.817 142.418 356.462 143.327C356.543 143.41 356.623 143.492 356.623 143.575C355.817 144.401 355.092 145.144 354.205 146.053C354.205 146.053 354.044 145.97 353.963 145.888C352.996 145.227 352.029 144.401 351.061 143.74C350.981 143.657 350.82 143.657 350.658 143.74C349.852 143.988 349.046 144.401 348.24 144.731C348.079 144.814 347.999 144.897 347.999 145.144C347.837 146.466 347.676 147.788 347.515 149.192C347.515 149.44 347.434 149.522 347.192 149.522C346.306 149.522 345.419 149.522 344.613 149.522C344.371 149.522 344.291 149.44 344.291 149.192C344.129 147.87 343.968 146.549 343.807 145.227C343.807 144.979 343.726 144.897 343.485 144.814C342.679 144.566 341.953 144.153 341.067 143.823C340.986 143.823 340.825 143.823 340.663 143.905C339.696 144.566 338.729 145.392 337.842 146.053C337.762 146.136 337.601 146.218 337.52 146.301C336.714 145.475 335.988 144.731 335.102 143.823C335.908 142.666 336.633 141.758 337.439 140.601C337.601 140.353 337.601 140.188 337.439 139.94C337.117 139.28 336.875 138.454 336.553 137.793C336.472 137.545 336.391 137.462 336.15 137.462C334.86 137.297 333.651 137.132 332.442 136.967C332.361 136.967 332.2 136.967 332.039 136.884C332.039 135.728 332.039 134.736 332.039 133.497C332.684 133.415 333.49 133.332 334.135 133.25C334.779 133.167 335.585 133.084 336.23 133.002C336.311 133.002 336.472 132.919 336.472 132.754C336.794 131.928 337.117 131.102 337.601 130.276C337.601 130.193 337.601 130.028 337.52 129.863C336.875 128.872 336.069 127.88 335.424 126.972C335.344 126.889 335.263 126.807 335.263 126.724C336.069 125.898 336.794 125.072 337.681 124.246C338.648 124.907 339.696 125.815 340.825 126.641C340.986 126.807 341.147 126.807 341.389 126.641C342.034 126.311 342.84 126.063 343.485 125.733C343.726 125.65 343.807 125.567 343.888 125.32C344.049 123.998 344.21 122.676 344.371 121.355C344.371 121.107 344.452 121.107 344.694 121.107C345.58 121.107 346.467 121.107 347.354 121.107C347.515 121.107 347.595 121.107 347.595 121.355C347.757 122.676 347.918 123.998 348.079 125.32C348.079 125.567 348.24 125.733 348.482 125.815C349.127 126.063 349.933 126.394 350.578 126.807C350.739 126.889 350.9 126.889 351.061 126.807C352.19 125.98 353.157 125.154 354.286 124.328C355.334 125.072 356.059 125.65 356.865 126.641ZM339.132 135.232C339.132 139.032 342.114 142.253 345.822 142.253C349.691 142.253 352.674 139.197 352.674 135.397C352.674 131.432 349.691 128.376 345.983 128.376C342.276 128.293 339.132 131.35 339.132 135.232Z" stroke="#EA394E" stroke-miterlimit="10"/>
<path d="M437.498 339H6.58014C6.32034 339 6.06055 338.815 6.06055 338.556V338.444C6.06055 338.222 6.27704 338 6.58014 338H437.541C437.801 338 438.061 338.185 438.061 338.444V338.556C438.017 338.815 437.801 339 437.498 339Z" fill="#010117"/>
<path d="M205.064 183.515C205.064 183.409 205.748 169.149 198.855 165.834L199.329 165.36C202.486 166.465 205.959 169.886 207.38 174.674C208.432 178.252 207.643 179.042 207.643 179.147L205.064 183.515Z" fill="#023EA1"/>
<path d="M180.298 71.1146L180.297 71.114C174.159 63.6757 170.466 54.1051 170.466 43.701C170.466 23.1065 184.922 5.88939 204.217 1.56804C204.504 1.51566 204.779 1.46334 205.052 1.41144L205.053 1.41123C205.328 1.35878 205.601 1.30676 205.887 1.25479C208.39 0.837824 210.992 0.578125 213.642 0.578125C237.413 0.578125 256.608 19.6671 256.817 43.4407C256.869 53.9508 253.227 63.5724 247.039 71.0611L247.038 71.062C241.6 77.6726 238.505 85.9401 238.505 94.5329V106.741C238.505 114.251 232.363 120.343 224.902 120.343H202.381C194.87 120.343 188.778 114.201 188.778 106.741V94.5855C188.778 85.9948 185.737 77.7269 180.298 71.1146Z" fill="white" stroke="#0A489B"/>
<path d="M171.191 43.701C171.191 54.2252 174.927 63.9075 181.136 71.4323C186.503 77.9573 189.503 86.1135 189.503 94.5855V106.741C189.503 114.476 195.817 120.843 203.605 120.843H207.078C214.814 120.843 221.181 114.529 221.181 106.741V94.5329C221.181 86.0609 224.233 77.9047 229.6 71.3797C235.862 63.8022 239.545 54.0673 239.493 43.4379C239.388 22.6526 224.824 6.22996 205.355 1.91504C185.78 6.28258 171.191 22.8631 171.191 43.701Z" fill="#E6ECF5"/>
<path d="M203.907 82.1666C204.643 82.9033 206.538 84.1662 207.327 84.7451C209.116 85.9027 212.431 86.692 213.115 95.2167C213.063 102.794 213.115 121.896 213.115 122.106H213.957C213.957 121.896 213.905 103.636 213.957 95.7429C213.957 95.7429 213.957 95.5324 213.957 95.2167C213.957 94.3747 213.957 93.6906 213.957 93.1644C214.01 88.2707 219.377 84.8503 219.43 84.7977C222.955 82.6402 226.849 78.5358 226.849 73.3789C226.849 66.012 220.851 60.0132 213.484 60.0132C206.117 60.0132 200.118 66.012 200.118 73.3789C200.223 76.7993 201.591 79.6934 203.907 82.1666ZM204.485 81.9562C202.275 79.6408 201.065 76.5888 201.065 73.3789C201.065 66.4856 206.696 61.3813 213.589 61.3813C220.482 61.3813 226.113 66.4856 226.113 73.3789C226.113 78.2727 222.692 82.4824 219.325 84.482C218.851 84.7451 217.641 85.4818 216.43 86.692C214.852 88.1654 213.852 89.8493 213.431 91.5332C212.694 89.0074 211.642 86.3763 207.906 84.482C206.485 83.7979 205.064 82.535 204.485 81.9562Z" fill="#0A489B"/>
<path d="M224.797 120.843L224.744 121.211L224.113 125.947L223.955 127.21L223.797 128.473L223.166 133.209L223.008 134.472L222.85 135.735L222.745 136.419C222.429 138.84 219.693 140.681 216.378 140.681H208.958C208.169 140.681 207.432 140.576 206.748 140.366C206.116 140.208 205.538 139.945 205.011 139.629H204.959C204.538 139.366 204.169 139.103 203.854 138.787C203.17 138.155 202.749 137.366 202.643 136.472L202.38 134.63L202.222 133.472L202.065 132.315L201.433 127.894L201.275 126.737L201.117 125.579L200.433 120.791H224.797V120.843Z" fill="#0A489B"/>
<path d="M221.85 120.843H217.641C210.853 122.79 204.17 124.737 201.065 125.632L201.223 126.789L201.381 127.947C203.907 127.263 209.958 125.527 224.692 121.212L224.745 120.843H221.85Z" fill="white"/>
<path d="M202.223 133.473L202.381 134.683C205.275 133.841 211.274 132.157 223.798 128.526L223.955 127.263L224.113 126C216.22 128.263 206.643 131.052 202.012 132.368L202.223 133.473Z" fill="white"/>
<path d="M205.012 139.682C205.59 139.998 206.169 140.261 206.801 140.419C210.221 139.419 215.325 137.945 222.903 135.788L223.061 134.525L223.218 133.262C216.43 135.209 208.695 137.472 203.906 138.84C204.222 139.103 204.591 139.419 205.012 139.682Z" fill="white"/>
<path d="M187.068 155.257C187.068 155.257 186.279 162.571 190.12 165.728C193.961 168.833 200.96 166.57 200.96 166.57C200.96 166.57 201.749 159.256 197.908 156.099C194.119 152.994 187.068 155.257 187.068 155.257Z" fill="#023EA1"/>
<path d="M203.907 210.299C203.802 209.563 201.276 192.776 207.643 174.043C213.747 156.047 210.379 140.787 210.327 140.682H214.799C214.905 141.313 215.22 156.31 210.432 176.832C206.117 195.302 214.168 210.299 212.431 210.299H203.907Z" fill="#023EA1"/>
<path d="M213.326 160.677C213.326 160.572 215.483 148.259 221.272 146.891C218.693 147.206 215.431 149.048 213.589 152.521C212.221 155.1 212.694 155.784 212.694 155.889L213.326 160.677Z" fill="#023EA1"/>
<path d="M99.4535 260.604H38.9393C36.8345 260.604 35.1506 258.92 35.1506 256.816V255.921C35.1506 253.816 36.8345 252.132 38.9393 252.132H99.4535C101.558 252.132 103.242 253.816 103.242 255.921V256.816C103.242 258.868 101.558 260.604 99.4535 260.604Z" fill="#0A489B"/>
<path d="M51.6738 260.605L50.8845 265.551L39.2026 337.537C39.15 337.8 38.8869 337.958 38.5712 337.958C37.9924 337.958 37.5188 337.537 37.5714 337.063L46.8327 263.394L47.201 260.605H51.6738Z" fill="#0A489B"/>
<path d="M51.6739 260.605L50.8846 265.551C50.3058 263.552 46.8328 263.341 46.8328 263.341L47.2011 260.552H51.6739V260.605Z" fill="#012C67"/>
<path d="M99.8747 337.958C99.559 337.958 99.2959 337.747 99.2433 337.537L87.5614 265.551L87.0352 262.447L86.7195 260.552H91.1923L91.5606 263.341L91.8237 265.551L100.822 337.063C100.927 337.537 100.454 337.958 99.8747 337.958Z" fill="#0A489B"/>
<path d="M91.8763 265.551C90.7187 263.183 87.0352 262.447 87.0352 262.447L86.7195 260.552H91.1923L91.5606 263.341L91.8763 265.551Z" fill="#012C67"/>
<path d="M134.184 178.148C134.184 176.78 136.657 172.57 136.657 172.57C136.657 172.57 139.13 176.78 139.13 178.148C139.13 179.516 138.025 180.621 136.657 180.621C135.289 180.621 134.184 179.516 134.184 178.148Z" fill="#023EA1"/>
<path d="M291.573 186.672V186.778L289.574 217.561L282.101 331.854H143.024L134.815 219.14L132.552 188.041L132.447 186.672H291.573Z" fill="#E6ECF5"/>
<path d="M135.262 218.387L133.09 188.537L291.039 187.283L289.117 216.876C278.118 213.115 249.3 204.643 212.01 204.643C187.992 204.643 168.651 208.149 155.309 211.658C148.638 213.412 143.466 215.167 139.96 216.485C138.206 217.144 136.869 217.694 135.969 218.079C135.691 218.198 135.455 218.301 135.262 218.387Z" fill="white" stroke="#0A489B"/>
<path d="M298.014 183.805L295.966 202.485H127.901L126.053 183.805H298.014Z" fill="white" stroke="#0A489B"/>
<path d="M284.259 337.959H140.025L138.394 331.118H286.101L284.259 337.959Z" fill="white"/>
<path d="M407.602 278.444H362.243C359.559 278.444 357.349 276.234 357.349 273.55V268.92C357.349 266.236 359.559 264.026 362.243 264.026H407.602C410.286 264.026 412.496 266.236 412.496 268.92V273.55C412.496 276.234 410.286 278.444 407.602 278.444Z" fill="#0A489B"/>
<path d="M367.663 278.444L366.874 282.286L355.192 337.59C355.139 337.801 354.876 337.906 354.56 337.906C353.981 337.906 353.508 337.59 353.56 337.222L362.822 280.602L363.19 278.444H367.663Z" fill="#0A489B"/>
<path d="M415.79 337.906C415.473 337.906 415.208 337.748 415.155 337.59L403.398 282.236L402.869 279.866L402.551 278.444H407.052L407.423 280.603L407.688 282.289L416.744 337.274C416.85 337.59 416.373 337.906 415.79 337.906Z" fill="#0A489B"/>
<path d="M308.412 337.852C307.886 337.957 307.412 337.694 307.254 337.168L296.046 292.072L293.889 283.337L289.626 266.235L283.154 240.135L289.258 239.714L292.836 257.395L297.993 282.81L300.571 295.597L308.938 336.905C309.043 337.378 308.78 337.747 308.412 337.852Z" fill="#0A489B"/>
<path d="M292.836 257.447C292.783 257.605 292.731 257.71 292.731 257.71C292.731 257.71 289.731 262.078 289.626 266.235L283.154 240.135L289.258 239.714L292.836 257.447Z" fill="#012C67"/>
<path d="M287.521 240.188L276.787 283.39L274.629 292.125L263.421 337.221C263.316 337.747 262.789 338.01 262.263 337.905C261.895 337.8 261.632 337.431 261.737 337.063L270.104 295.756L272.682 282.969L281.417 239.872L287.521 240.188Z" fill="#0A489B"/>
<path d="M276.839 283.39L274.682 292.125C272.103 292.283 270.156 295.703 270.156 295.703L272.735 282.916L276.787 282.495C276.787 282.443 276.787 282.811 276.839 283.39Z" fill="#012C67"/>
<path d="M251.687 240.188L240.952 283.39L238.794 292.125L227.586 337.221C227.481 337.747 226.955 338.01 226.429 337.905C226.06 337.8 225.797 337.431 225.902 337.063L234.269 295.756L236.847 282.969L245.583 239.872L251.687 240.188Z" fill="#0A489B"/>
<path d="M240.952 283.39L238.794 292.125C236.216 292.283 234.269 295.703 234.269 295.703L236.847 282.916L240.899 282.495C240.952 282.443 240.952 282.811 240.952 283.39Z" fill="#012C67"/>
<path d="M279.049 289.862H227.428L245.74 222.35H296.098L279.049 289.862Z" fill="#0B0754"/>
<path d="M277.523 289.862H225.902L244.161 222.35H294.519L277.523 289.862Z" fill="#C2C9D1"/>
<path d="M278.576 246.608C277.418 250.396 274.998 253.922 271.893 256.658C269.209 259.026 267.262 261.973 266.315 265.025L264.947 269.445C264.105 272.234 261.106 274.549 258.317 274.549H250.161C247.372 274.549 245.793 272.234 246.635 269.445L248.003 265.025C248.95 261.973 248.74 259.026 247.53 256.658C246.109 253.922 245.846 250.396 247.056 246.555C249.792 237.873 258.948 230.874 267.631 230.874C268.578 230.874 269.525 230.979 270.367 231.137C270.578 231.19 270.735 231.19 270.946 231.242C277.524 232.768 280.891 239.083 278.576 246.608Z" fill="#023EA1"/>
<path d="M278.576 246.608C277.418 250.396 274.997 253.922 271.893 256.658C269.209 259.026 267.262 261.973 266.315 265.025L264.947 269.445C264.105 272.234 261.105 274.549 258.317 274.549H257.054C254.265 274.549 252.686 272.234 253.528 269.445L254.896 265.025C255.843 261.973 255.633 259.026 254.423 256.658C253.002 253.922 252.739 250.396 253.949 246.555C256.317 239.03 263.421 232.821 270.946 231.242C277.523 232.768 280.891 239.083 278.576 246.608Z" fill="#0054A5"/>
<path d="M264.368 257.342C265.158 254.658 263.684 252.501 261 252.501C258.317 252.501 255.528 254.658 254.686 257.342C254.107 259.184 255.054 260.71 256.107 261.499C256.107 261.499 257.685 262.762 257.159 264.499C257.106 264.709 257.054 264.92 256.949 265.235C256.896 265.34 256.896 265.393 256.896 265.446C256.054 268.287 254.002 274.918 253.949 274.97H254.265C254.265 274.918 256.422 267.972 257.264 265.235C258.475 262.131 259.738 261.868 260.527 261.447C260.895 261.236 261.685 260.815 262.053 260.499C263.158 259.605 264 258.552 264.368 257.342ZM260.369 261.341C258.79 262.025 258.106 262.973 257.58 263.867C257.633 263.236 257.422 262.657 257.001 262.131C256.686 261.71 256.317 261.447 256.212 261.341C255.212 260.605 254.423 259.079 255.002 257.342C255.738 254.869 258.369 253.027 260.843 253.027C263.316 253.027 264.789 254.869 264.052 257.342C263.684 258.5 262.947 259.605 261.895 260.447C261.632 260.657 260.948 261.078 260.369 261.341Z" fill="white"/>
<path d="M258.317 274.497L258.264 274.654L257.528 276.391L257.317 276.865L257.107 277.338L256.37 279.075L256.159 279.548L255.949 280.022L255.844 280.285C255.475 281.179 254.265 281.811 253.055 281.811H250.371C250.108 281.811 249.845 281.758 249.582 281.706C249.371 281.653 249.213 281.548 249.056 281.443C248.95 281.337 248.845 281.232 248.74 281.127C248.582 280.916 248.477 280.601 248.529 280.285L248.635 279.601L248.687 279.18L248.74 278.759L249.003 277.18L249.056 276.759L249.108 276.338L249.371 274.602H258.317V274.497Z" fill="#444465"/>
<path d="M257.264 274.497H255.738C253.054 275.181 250.423 275.917 249.213 276.233L249.161 276.654L249.108 277.075C250.108 276.812 252.476 276.18 258.264 274.654L258.317 274.497H257.264Z" fill="#060632"/>
<path d="M248.74 279.075L248.687 279.496C249.845 279.18 252.213 278.601 257.107 277.286L257.317 276.812L257.528 276.338C254.423 277.18 250.634 278.18 248.845 278.654L248.74 279.075Z" fill="#060632"/>
<path d="M249.108 281.285C249.266 281.39 249.476 281.495 249.687 281.548C251.055 281.18 253.055 280.653 256.001 279.864L256.212 279.391L256.422 278.917C253.739 279.601 250.687 280.443 248.845 280.917C248.845 281.127 248.95 281.232 249.108 281.285Z" fill="#060632"/>
<path d="M276.366 279.074H275.997C275.945 279.074 275.892 279.022 275.892 278.969C275.892 278.916 275.945 278.864 275.997 278.864H276.366C276.418 278.864 276.471 278.916 276.471 278.969C276.471 279.022 276.418 279.074 276.366 279.074ZM274.997 279.074H273.945C273.892 279.074 273.84 279.022 273.84 278.969C273.84 278.916 273.892 278.864 273.945 278.864H274.997C275.05 278.864 275.103 278.916 275.103 278.969C275.103 279.022 275.05 279.074 274.997 279.074ZM272.945 279.074H271.893C271.84 279.074 271.788 279.022 271.788 278.969C271.788 278.916 271.84 278.864 271.893 278.864H272.945C272.998 278.864 273.05 278.916 273.05 278.969C273.05 279.022 272.998 279.074 272.945 279.074ZM270.893 279.074H269.841C269.788 279.074 269.735 279.022 269.735 278.969C269.735 278.916 269.788 278.864 269.841 278.864H270.893C270.946 278.864 270.998 278.916 270.998 278.969C270.998 279.022 270.946 279.074 270.893 279.074ZM268.841 279.074H267.788C267.736 279.074 267.683 279.022 267.683 278.969C267.683 278.916 267.736 278.864 267.788 278.864H268.841C268.893 278.864 268.946 278.916 268.946 278.969C268.893 279.022 268.893 279.074 268.841 279.074ZM266.736 279.074H265.684C265.631 279.074 265.578 279.022 265.578 278.969C265.578 278.916 265.631 278.864 265.684 278.864H266.736C266.789 278.864 266.841 278.916 266.841 278.969C266.841 279.022 266.789 279.074 266.736 279.074ZM264.684 279.074H263.631C263.579 279.074 263.526 279.022 263.526 278.969C263.526 278.916 263.579 278.864 263.631 278.864H264.684C264.736 278.864 264.789 278.916 264.789 278.969C264.789 279.022 264.736 279.074 264.684 279.074ZM262.632 279.074H261.579C261.526 279.074 261.474 279.022 261.474 278.969C261.474 278.916 261.526 278.864 261.579 278.864H262.632C262.684 278.864 262.737 278.916 262.737 278.969C262.737 279.022 262.684 279.074 262.632 279.074ZM260.579 279.074H259.527C259.474 279.074 259.422 279.022 259.422 278.969C259.422 278.916 259.474 278.864 259.527 278.864H260.579C260.632 278.864 260.685 278.916 260.685 278.969C260.685 279.022 260.632 279.074 260.579 279.074Z" fill="#010117"/>
<path d="M273.472 229.769C273.419 229.769 273.419 229.769 273.419 229.716C273.366 229.663 273.366 229.611 273.419 229.558L274.156 228.822C274.208 228.769 274.261 228.769 274.314 228.822C274.366 228.874 274.366 228.927 274.314 228.979L273.577 229.716C273.524 229.769 273.524 229.769 273.472 229.769ZM274.945 228.295C274.893 228.295 274.893 228.295 274.893 228.243C274.84 228.19 274.84 228.137 274.893 228.085L275.629 227.348C275.682 227.296 275.734 227.296 275.787 227.348C275.84 227.401 275.84 227.453 275.787 227.506L275.05 228.243C274.998 228.295 274.945 228.295 274.945 228.295ZM276.366 226.822C276.366 226.822 276.313 226.822 276.313 226.769C276.261 226.717 276.261 226.664 276.313 226.611L276.419 226.506L276.471 226.454H277.313C277.366 226.454 277.418 226.506 277.418 226.559C277.418 226.611 277.366 226.664 277.313 226.664H276.471L276.366 226.769C276.419 226.822 276.419 226.822 276.366 226.822ZM288.89 226.717H288.679C288.627 226.717 288.574 226.664 288.574 226.611C288.574 226.559 288.627 226.506 288.679 226.506H288.89C288.942 226.506 288.995 226.559 288.995 226.611C288.995 226.664 288.942 226.717 288.89 226.717ZM287.679 226.717H286.627C286.574 226.717 286.522 226.664 286.522 226.611C286.522 226.559 286.574 226.506 286.627 226.506H287.679C287.732 226.506 287.785 226.559 287.785 226.611C287.785 226.664 287.732 226.717 287.679 226.717ZM285.627 226.717H284.575C284.522 226.717 284.47 226.664 284.47 226.611C284.47 226.559 284.522 226.506 284.575 226.506H285.627C285.68 226.506 285.732 226.559 285.732 226.611C285.732 226.664 285.68 226.717 285.627 226.717ZM283.575 226.717H282.523C282.47 226.717 282.417 226.664 282.417 226.611C282.417 226.559 282.47 226.506 282.523 226.506H283.575C283.628 226.506 283.68 226.559 283.68 226.611C283.628 226.664 283.628 226.717 283.575 226.717ZM281.47 226.717H280.418C280.365 226.717 280.312 226.664 280.312 226.611C280.312 226.559 280.365 226.506 280.418 226.506H281.47C281.523 226.506 281.575 226.559 281.575 226.611C281.575 226.664 281.523 226.717 281.47 226.717ZM279.418 226.717H278.365C278.313 226.717 278.26 226.664 278.26 226.611C278.26 226.559 278.313 226.506 278.365 226.506H279.418C279.471 226.506 279.523 226.559 279.523 226.611C279.523 226.664 279.471 226.717 279.418 226.717Z" fill="#010117"/>
<path d="M287.574 229.032H279.155C278.891 229.032 278.681 228.821 278.681 228.558C278.681 228.295 278.891 228.084 279.155 228.084H287.574C287.837 228.084 288.047 228.295 288.047 228.558C288.047 228.821 287.837 229.032 287.574 229.032Z" fill="#010117"/>
<path d="M275.155 282.021H266.736C266.473 282.021 266.262 281.811 266.262 281.548C266.262 281.285 266.473 281.074 266.736 281.074H275.155C275.418 281.074 275.629 281.285 275.629 281.548C275.576 281.811 275.366 282.021 275.155 282.021Z" fill="#010117"/>
<path d="M243.162 261.499H236.689C236.479 261.499 236.268 261.341 236.268 261.078V260.973C236.268 260.762 236.426 260.552 236.689 260.552H243.162C243.372 260.552 243.583 260.71 243.583 260.973V261.078C243.583 261.288 243.425 261.499 243.162 261.499Z" fill="#010117"/>
<path d="M245.898 262.867C245.846 262.867 245.846 262.867 245.793 262.814L245.214 261.973C245.162 261.92 245.214 261.867 245.267 261.815C245.319 261.762 245.372 261.815 245.425 261.867L246.003 262.709C246.056 262.762 246.003 262.814 245.951 262.867H245.898ZM244.793 261.131C244.741 261.131 244.741 261.131 244.688 261.078L244.109 260.236C244.057 260.183 244.109 260.131 244.162 260.078C244.214 260.026 244.267 260.078 244.32 260.131L244.898 260.973C244.951 261.025 244.898 261.078 244.846 261.131C244.793 261.131 244.793 261.131 244.793 261.131ZM243.636 259.447C243.583 259.447 243.583 259.447 243.53 259.394H242.583C242.53 259.394 242.478 259.341 242.478 259.289C242.478 259.236 242.53 259.184 242.583 259.184H243.583C243.636 259.184 243.636 259.184 243.688 259.236L243.741 259.289C243.793 259.341 243.741 259.394 243.688 259.447C243.688 259.447 243.688 259.447 243.636 259.447ZM241.636 259.394H240.584C240.531 259.394 240.478 259.341 240.478 259.289C240.478 259.236 240.531 259.184 240.584 259.184H241.636C241.689 259.184 241.741 259.236 241.741 259.289C241.741 259.341 241.689 259.394 241.636 259.394ZM239.584 259.394H238.531C238.479 259.394 238.426 259.341 238.426 259.289C238.426 259.236 238.479 259.184 238.531 259.184H239.584C239.636 259.184 239.689 259.236 239.689 259.289C239.689 259.341 239.636 259.394 239.584 259.394Z" fill="#010117"/>
<path d="M383.488 203.574C383.727 205.012 386.603 208.607 386.603 208.607L392.115 210.764L393.793 224.184L393.074 232.811C393.074 232.811 393.793 235.207 396.429 235.207C399.304 234.968 400.982 234.728 400.263 230.894C399.544 227.299 401.461 227.539 402.42 221.068C403.378 214.598 398.825 212.92 396.908 211.962C394.991 211.003 393.074 205.971 393.074 205.971C392.355 199.021 384.926 201.657 384.926 201.657C384.926 201.657 383.248 202.376 383.488 203.574Z" fill="#1C1156"/>
<path d="M382.769 200.698C382.769 201.178 383.728 203.095 383.728 203.095C383.728 203.095 386.843 201.417 387.083 201.417C387.322 201.178 386.124 199.979 386.124 199.979C386.124 199.979 382.769 200.459 382.769 200.698Z" fill="#C74F59"/>
<path d="M377.497 190.873C381.811 191.832 381.092 195.906 382.29 200.699C383.248 204.772 385.645 207.409 386.364 208.127V208.367C386.124 208.607 385.884 209.326 384.926 210.524C383.967 212.441 379.174 213.639 378.216 213.16C377.257 212.681 376.059 209.326 376.299 205.971C376.538 202.855 373.902 204.293 373.902 204.293C370.787 204.772 369.109 202.855 369.109 202.855C365.994 199.98 365.754 192.311 365.754 190.633C365.754 190.394 365.994 190.394 365.994 190.394C367.911 190.633 373.902 189.915 377.497 190.873Z" fill="#F9BC97"/>
<path d="M362.159 191.592C362.399 192.311 362.878 192.79 363.118 193.27C364.556 194.468 365.514 192.79 366.233 191.832C366.473 191.592 366.952 191.352 367.192 191.592C370.307 193.509 375.1 192.551 375.1 192.551C379.414 191.113 376.778 195.906 376.778 195.906C376.538 198.302 378.695 200.938 383.967 200.699C389 200.459 386.603 189.675 386.363 189.435C384.686 182.725 377.976 180.568 373.902 180.568C370.787 180.568 368.39 182.725 367.671 183.684C367.432 183.923 367.192 183.923 366.952 183.923C365.754 183.923 364.795 184.163 363.837 184.882C362.878 185.841 362.399 187.278 362.159 188.716C362.159 189.196 362.159 189.915 362.159 190.154V190.394C362.399 190.873 362.399 191.352 362.159 191.592Z" fill="#1C1156"/>
<path d="M392.834 211.243L394.272 212.681C394.272 212.681 391.396 240.121 390.677 241.319C390.198 242.517 389.239 245.872 389.239 245.872L368.151 242.996L368.39 242.038C368.39 242.038 371.266 226.461 370.787 225.143C370.547 223.705 368.87 224.424 368.87 219.871C368.87 215.317 376.299 208.607 376.299 208.607C376.299 208.607 376.778 212.442 380.373 212.442C383.967 212.442 386.603 208.368 386.603 208.368C390.438 208.607 392.834 211.483 392.834 211.243Z" fill="#0064DD"/>
<path d="M395.47 229.575L387.322 228.137C387.322 228.137 387.083 226.699 387.322 220.229C387.562 213.998 387.562 209.684 392.834 210.403C397.867 211.122 395.95 224.782 395.95 224.782L395.47 229.575Z" fill="#02549F"/>
<path d="M395.231 230.054C395.47 230.054 395.47 230.294 395.47 230.294C395.231 230.773 394.512 232.69 393.074 237.723C390.917 244.433 387.802 241.797 387.802 241.797C387.802 241.797 370.787 230.773 368.87 230.534C367.671 230.294 366.713 230.054 366.473 229.575C366.234 229.575 366.473 229.335 366.713 229.335C367.192 229.335 367.911 229.335 368.39 228.617C369.349 227.418 365.994 228.137 365.994 228.137C365.994 228.137 364.316 228.617 364.077 228.137C363.837 227.658 364.316 225.98 364.316 225.741C364.556 225.261 368.151 225.261 370.068 225.98C371.506 226.22 372.225 227.179 372.225 227.898C372.464 228.137 372.704 228.617 373.183 228.856C375.34 229.815 382.29 233.17 384.686 234.608C385.405 235.087 386.124 235.087 386.364 235.327C387.083 235.566 387.322 234.847 387.322 233.889L387.562 228.617C387.562 228.377 387.802 228.377 387.802 228.377L395.231 230.054Z" fill="#E8B791"/>
<path d="M366.233 233.409L370.307 233.649L369.349 239.4L359.763 235.566L366.233 233.409Z" fill="#E8B791"/>
<path d="M368.151 235.806L353.533 235.327L337.956 215.556L353.053 216.515L368.151 235.806Z" fill="#1A1154"/>
<path d="M375.34 243.955L361.201 252.822L343.707 273.791L339.873 308.899L332.444 308.659V307.7C332.444 307.7 333.163 274.51 334.121 264.684C335.08 254.859 338.914 254.14 338.914 254.14L368.63 242.876L375.34 243.955Z" fill="#DA0620"/>
<path d="M389.479 245.632L389.719 249.945C391.636 260.01 385.645 262.886 384.207 263.365C383.968 263.605 383.728 263.605 383.728 263.605C381.331 263.845 362.16 265.762 358.086 266.002C353.772 266.481 354.012 268.158 354.012 268.158L366.953 303.985L361.92 307.82C361.92 307.82 347.302 281.578 342.03 272.712C336.997 264.084 344.905 259.291 344.905 259.291L375.101 244.194L389.479 245.632Z" fill="#EA394E"/>
<path d="M339.633 308.658L339.873 311.534C340.112 314.41 338.914 314.649 338.914 314.649C338.914 314.649 329.089 314.649 325.973 314.889C322.858 315.129 323.097 313.93 323.097 313.93C323.097 312.732 324.296 312.493 325.015 312.493C325.254 312.493 325.734 312.253 325.973 312.253L332.444 308.658H339.633Z" fill="#130452"/>
<path d="M367.192 304.105C367.192 304.105 368.63 305.543 369.588 306.502C370.307 307.221 370.307 308.179 370.307 308.898C370.307 309.378 370.068 309.378 370.068 309.617C368.39 310.816 360.722 317.046 358.325 317.765C358.085 317.765 358.085 317.765 358.085 317.765C357.606 318.005 357.127 318.005 356.648 317.765C356.408 317.526 356.408 317.286 356.408 317.046C356.408 316.807 356.648 316.567 356.648 316.327C356.887 315.848 357.127 315.608 357.367 315.369C358.325 313.931 359.523 312.972 360.242 311.534C361.92 309.138 361.92 307.46 361.92 307.46L367.192 304.105Z" fill="#130452"/>
<path d="M86.6658 95.2786C86.6658 95.2786 85.5958 99.5336 84.3137 102.206L84.0285 104.44C83.9907 104.737 83.7031 104.926 83.4223 104.865L82.0337 104.537L81.8995 106.277C81.8819 106.513 81.6699 106.699 81.4214 106.68L80.3271 106.603C80.1033 106.587 79.916 106.776 79.9493 107.007L80.0539 107.76C80.0873 107.99 79.9215 108.208 79.693 108.229C78.8808 108.301 77.0717 108.22 75.2819 106.612C73.3135 104.83 71.9749 105.487 71.7756 106.754C71.5683 108.083 72.1827 112.314 70.2774 112.987C68.6348 113.568 64.0462 112.556 63.2878 111.518C62.3801 110.273 63.8671 107.765 65.5023 106.455C66.6625 105.524 69.9341 93.4569 72.5468 92.6485C75.175 91.817 86.6658 95.2786 86.6658 95.2786Z" fill="#FFBD99"/>
<path d="M47.9163 199.245C47.9163 196.814 44.8779 177.638 43.3586 168.354C49.4355 170.042 61.9944 175.039 63.6149 181.521C65.2354 188.003 58.2132 227.097 54.4996 245.834C54.162 246.172 52.8791 246.847 50.4483 246.847C48.0176 246.847 47.0723 245.497 46.9035 244.821C47.9163 241.277 47.9163 202.283 47.9163 199.245Z" fill="#DE051F"/>
<path d="M40.2428 171.899C34.571 168.658 36.1915 162.108 37.7107 159.239C43.6188 158.901 57.1566 158.428 62.0181 161.264C68.095 164.809 82.7808 180.001 86.3257 183.546C89.1615 186.382 88.8577 190.805 88.3513 192.661L76.7039 245.834C73.0578 247.05 70.4583 245.328 69.6142 244.315C70.7959 229.46 73.1591 199.447 73.1591 198.232C73.1591 196.713 74.1719 189.623 73.1591 189.623C72.1463 189.623 47.3324 175.95 40.2428 171.899Z" fill="#EE384E"/>
<path d="M37.3539 162.134C34.518 162.134 35.1594 159.771 35.8347 158.589L43.3281 133.905C44.0687 131.465 45.0988 129.121 46.5118 126.999C52.2483 118.382 62.1743 106.014 68.2447 107.442C75.1319 109.063 75.5032 115.545 74.828 118.583L63.1807 162.134H37.3539Z" fill="#FCBE42"/>
<path d="M77.6674 244.058C77.6674 244.058 83.0343 247.753 85.4964 248.563C87.3592 249.179 87.8151 250.929 87.9193 251.739C87.9454 251.966 87.8021 252.161 87.6197 252.161H68.679V244.22L77.6674 244.058Z" fill="#1C1457"/>
<path d="M54.3729 244.058C54.3729 244.058 59.7399 247.753 62.2019 248.563C64.0647 249.179 64.5207 250.929 64.6249 251.739C64.651 251.966 64.5077 252.161 64.3253 252.161H45.3845V244.22L54.3729 244.058Z" fill="#1C1457"/>
<path d="M65.9173 90.5339C65.9173 90.5339 70.4892 77.7167 80.3654 82.3273C80.3654 82.3273 84.8952 84.5868 86.2745 88.527C86.2745 88.527 92.9466 90.42 90.8182 95.5939C88.6898 100.768 86.0239 97.0775 86.0239 97.0775C86.0239 97.0775 85.0451 94.1294 83.3516 95.8958C81.6581 97.6622 78.1037 98.4759 77.2058 96.4666C76.3062 94.4697 74.402 92.9719 73.4301 95.671C72.4583 98.3702 59.61 115.376 53.6279 117.122C47.6458 118.868 44.4358 113.64 47.043 107.172C49.6502 100.704 65.5908 91.4208 65.5908 91.4208L65.9173 90.5339Z" fill="#170D54"/>
<path d="M57.3022 150.373C54.0612 146.727 55.9518 135.688 57.3022 130.624H66.9242C66.9242 131.974 66.7216 135.282 65.9113 137.713C64.8985 140.752 65.4049 146.322 65.9113 146.829C66.4177 147.335 79.5843 159.489 81.1035 159.995C82.3189 160.4 83.9732 159.826 84.6484 159.489L87.1804 161.008L88.1932 162.527V165.059L86.674 166.578C87.1804 166.578 85.4586 168.401 84.6484 169.617C83.6356 171.136 81.61 168.098 81.1035 167.591C80.5971 167.085 77.5587 164.553 76.0395 163.54C74.5203 162.527 61.3535 154.931 57.3022 150.373Z" fill="#FFBF96"/>
<path d="M63.479 115.472C59.0236 115.472 56.3425 126.251 55.5127 132.146C56.3093 132.146 64.5216 132.65 68.1729 133.156C68.6708 127.429 71.2113 115.471 63.479 115.472Z" fill="#F79F03"/>
<path d="M85.6746 174.212L87.5819 174.977L96.6894 178.708C100.313 180.19 104.462 178.468 105.94 174.834L106.846 172.633C107.418 172.251 107.99 171.868 108.61 171.39C118.528 164.216 129.305 171.199 129.305 171.199C129.4 170.912 129.448 170.673 129.448 170.433C129.448 169.764 129.019 169.286 129.019 169.286C122.343 164.646 112.806 164.072 108.61 164.072C107.275 164.072 106.512 164.12 106.512 164.12L106.274 164.025C107.99 158.237 105.892 152.403 101.267 150.489C100.266 150.107 99.2643 149.868 98.2152 149.868C96.2602 149.868 94.2575 150.537 92.4933 151.781C90.8244 152.929 89.3462 154.603 88.2495 156.611C87.2004 156.324 86.056 156.85 85.6269 157.903L82.3844 165.89C80.9539 169.19 82.4798 172.92 85.6746 174.212ZM98.8828 157.09L98.3583 156.898C98.1199 156.803 97.8815 156.755 97.6907 156.755C96.9755 156.755 96.2602 157.185 95.9741 157.903L92.2548 156.372C91.2535 155.942 90.1091 156.372 89.5846 157.281L89.0601 157.042C90.1568 155.033 91.6826 153.407 93.3516 152.355C95.1158 151.255 97.1185 150.729 99.0258 150.968C99.6457 151.063 100.218 151.207 100.79 151.446C104.939 153.168 106.751 158.429 105.272 163.69L104.891 163.546C105.129 162.494 104.605 161.394 103.603 161.011L99.8841 159.481C100.266 158.572 99.8365 157.472 98.8828 157.09Z" fill="#023EA1"/>
<path d="M246.318 245.077L165.314 238.606C162.798 238.367 161.12 236.21 161.6 233.813C161.959 231.417 164.356 229.499 166.872 229.739L247.876 236.21C250.392 236.449 252.07 238.606 251.591 241.003C251.111 243.519 248.835 245.317 246.318 245.077Z" fill="#155BCC"/>
<path d="M163.158 231.896L165.794 232.855L162.199 236.69C162.199 236.69 161.241 235.252 160.641 233.694C160.522 233.095 160.881 232.376 161.6 232.256L163.158 231.896Z" fill="#FFBE9B"/>
<path d="M166.992 237.049L165.314 238.607C164.715 239.086 163.757 239.086 163.397 238.487L162.079 236.81L165.674 232.975L167.232 235.971C167.352 236.21 167.352 236.69 166.992 237.049Z" fill="#FFBE9B"/>
<path d="M195.87 206.852C196.949 209.128 198.147 211.525 199.465 213.802C200.664 216.078 201.982 218.355 203.18 220.392C203.42 220.871 203.899 221.351 204.139 221.59C204.498 222.07 204.977 222.429 205.457 222.909C206.415 223.747 207.374 224.706 208.452 225.545C210.489 227.342 212.527 229.14 214.564 231.057L212.527 233.453C209.89 232.135 207.494 230.697 204.977 229.14C203.779 228.421 202.461 227.582 201.382 226.743C200.783 226.264 200.184 225.784 199.585 225.305C198.866 224.706 198.387 223.987 197.788 223.508C195.87 221.111 194.552 218.834 193.114 216.438C191.676 214.041 190.478 211.765 189.4 209.248L195.87 206.852Z" fill="#FFBE9B"/>
<path d="M173.223 206.492C171.665 208.769 170.107 210.926 168.43 213.203L163.637 219.793L163.037 220.632L162.918 220.752C162.918 220.752 162.918 220.872 162.798 220.872C162.678 221.111 162.558 221.591 162.558 222.07C162.438 223.149 162.558 224.347 162.678 225.545C162.918 227.942 163.517 230.578 163.996 233.094L160.88 234.173C159.562 231.656 158.244 229.14 157.405 226.504C157.046 225.186 156.686 223.748 156.567 222.07C156.567 221.231 156.567 220.392 156.806 219.434C156.926 219.194 156.926 218.955 157.046 218.595L157.286 218.236L157.405 218.116V217.996L158.005 217.037C159.323 214.641 160.88 212.364 162.438 209.967C163.996 207.691 165.554 205.414 167.231 203.137L173.223 206.492Z" fill="#FFBE9B"/>
<path d="M177.657 188.039C177.177 191.993 178.016 197.026 174.901 199.063C174.901 199.063 175.62 202.778 183.049 203.856C191.317 204.935 187.243 201.699 187.243 201.699C182.809 200.262 183.528 196.307 184.727 193.671L177.657 188.039Z" fill="#FFBE9B"/>
<path d="M174.541 201.339C174.421 199.901 174.541 197.624 175.62 197.265C176.698 196.905 183.528 197.385 187.003 200.141C185.805 202.298 185.925 204.455 185.925 204.455L174.541 201.339Z" fill="#0054A3"/>
<path d="M171.306 199.063C167.112 199.422 161 208.769 161 208.769L168.789 214.88C168.789 214.88 172.504 211.405 175.38 207.331C178.376 203.137 175.739 198.823 171.306 199.063Z" fill="#0054A3"/>
<path opacity="0.6" d="M171.306 199.063C167.112 199.422 161 208.769 161 208.769L168.789 214.88C168.789 214.88 172.504 211.405 175.38 207.331C178.376 203.137 175.739 198.823 171.306 199.063Z" fill="#0054A3"/>
<path opacity="0.2" d="M173.582 205.894L168.429 214.641L168.789 214.881C168.789 214.881 170.706 212.963 172.983 210.327L173.582 205.894Z" fill="black"/>
<path d="M192.875 220.152C192.036 224.466 190.718 229.859 189.041 236.449L165.195 233.334C165.434 230.338 169.029 217.037 168.31 202.658C168.191 200.62 170.108 198.943 172.385 199.063C173.583 199.063 174.901 199.183 176.099 199.302C179.095 199.542 183.648 200.021 186.165 200.62C189.76 201.339 192.875 202.658 192.875 202.658C192.875 202.658 194.553 204.814 193.714 214.041C193.474 215.719 193.235 217.756 192.875 220.152Z" fill="#0083F9"/>
<path opacity="0.6" d="M192.875 220.152C192.036 224.466 190.718 229.859 189.041 236.449L165.195 233.334C165.434 230.338 169.029 217.037 168.31 202.658C168.191 200.62 170.108 198.943 172.385 199.063C173.583 199.063 174.901 199.183 176.099 199.302C179.095 199.542 183.648 200.021 186.165 200.62C189.76 201.339 192.875 202.658 192.875 202.658C192.875 202.658 194.553 204.814 193.714 214.041C193.474 215.719 193.235 217.756 192.875 220.152Z" fill="#0083F9"/>
<path opacity="0.2" d="M192.875 220.152C190.958 219.074 189.16 214.161 189.999 211.524L193.834 213.801C193.474 215.718 193.235 217.755 192.875 220.152Z" fill="black"/>
<path d="M187.483 205.294C186.284 208.889 193.594 219.434 193.594 219.434L202.461 215.36C202.461 215.36 200.424 210.088 197.309 205.894C193.833 201.34 188.801 201.22 187.483 205.294Z" fill="#0054A3"/>
<path opacity="0.6" d="M187.483 205.294C186.284 208.889 193.594 219.434 193.594 219.434L202.461 215.36C202.461 215.36 200.424 210.088 197.309 205.894C193.833 201.34 188.801 201.22 187.483 205.294Z" fill="#0054A3"/>
<path d="M179.574 181.448C177.896 186.002 176.698 188.758 178.376 191.993C180.772 196.906 187.842 197.146 191.077 193.072C193.953 189.357 195.99 182.407 191.916 178.812C187.722 175.217 181.251 176.895 179.574 181.448Z" fill="#FFBE9B"/>
<path d="M187.483 172.701C191.198 173.539 194.073 174.977 194.433 176.655C197.788 177.973 198.867 181.089 196.59 182.287C194.553 183.485 191.317 182.167 191.317 182.167C191.317 182.167 192.875 189.117 188.082 186.481C187.363 188.877 185.685 193.191 181.611 193.551C179.454 193.79 175.5 193.311 175.141 191.634C174.781 189.956 176.099 190.315 175.86 188.997C175.5 187.679 173.703 183.126 175.74 179.771C175.86 179.89 178.735 169.705 187.483 172.701Z" fill="#180857"/>
<path d="M186.044 186.241C185.925 187.44 186.404 188.518 187.003 189.237C187.962 190.435 188.321 190.435 188.681 189.117C189.04 187.919 189.999 185.403 188.681 184.803C187.362 184.204 186.044 184.923 186.044 186.241Z" fill="#FFBE9B"/>
<path d="M180.533 235.491C180.533 235.491 176.818 266.406 174.541 277.67C172.025 290.013 155.249 329.796 155.249 329.796L147.34 327.998C151.414 314.218 157.406 288.575 161.121 278.749C163.877 263.77 161.121 245.077 165.195 233.454L180.533 235.491Z" fill="#EE384E"/>
<path opacity="0.2" d="M178.136 247.473C178.376 247.473 178.735 247.473 178.975 247.473C177.777 256.7 176.099 269.042 174.781 276.112C173.703 265.807 172.624 248.432 178.136 247.473Z" fill="black"/>
<path d="M188.801 236.569C188.801 236.569 190.718 269.642 190.958 281.625C191.198 294.087 187.842 331.234 187.842 331.234H180.173C180.173 331.234 177.298 296.843 178.855 280.067C177.058 267.245 173.104 234.532 173.104 234.532L188.801 236.569Z" fill="#EE384E"/>
<path d="M216.481 230.578C215.402 230.458 213.844 230.578 212.766 231.057L212.167 231.896C211.807 232.615 212.047 233.454 213.006 233.693L215.762 234.412L217.08 234.772C217.679 234.892 218.278 234.772 218.637 234.293L219.237 233.574C219.596 233.094 219.476 232.375 219.117 232.016L217.918 231.057C217.319 230.818 216.96 230.698 216.481 230.578Z" fill="#FFBE9B"/>
<path d="M155.129 329.556L147.819 327.759C147.46 327.639 147.34 327.759 147.22 328.118L144.824 333.151C144.584 333.511 144.704 334.11 145.303 334.349H145.423C147.819 334.948 149.617 335.188 152.732 335.907C154.53 336.267 160.282 337.824 162.678 338.424C165.195 339.023 166.153 336.626 165.075 336.147C160.641 333.99 157.406 331.833 156.207 330.155C155.848 329.916 155.488 329.676 155.129 329.556Z" fill="#170856"/>
<path d="M187.842 331.234H180.293C179.933 331.234 179.813 331.354 179.813 331.713L178.615 337.105C178.495 337.585 178.735 338.064 179.334 338.184H179.454C181.97 338.184 183.768 338.064 186.883 338.064C188.68 338.064 194.672 338.184 197.188 338.184C199.705 338.184 200.184 335.668 198.986 335.428C194.193 334.349 190.478 333.031 188.92 331.593C188.561 331.354 188.201 331.234 187.842 331.234Z" fill="#170856"/>
<path d="M311.575 158.467L306.254 159.987L307.775 165.308L313.095 163.788L311.575 158.467Z" fill="#EB3B4E"/>
<path d="M421.845 233.189L415.706 234.943L417.46 241.083L423.599 239.329L421.845 233.189Z" fill="#0064DD"/>
<path d="M123.484 64.8022L117.345 66.5563L119.099 72.6954L125.238 70.9414L123.484 64.8022Z" fill="#0064DD"/>
</svg>
