<svg width="270" height="201" viewBox="0 0 270 201" fill="none" xmlns="http://www.w3.org/2000/svg">
<path d="M270 175.816H0V175.924H270V175.816Z" fill="#ECECEC"/>
<path d="M127.979 151.881H23.759C22.031 151.881 20.627 150.485 20.627 148.768V3.11275C20.627 1.39537 22.031 0 23.759 0H127.979C129.707 0 131.111 1.39537 131.111 3.11275V148.768C131.111 150.485 129.707 151.881 127.979 151.881ZM23.759 0.214672C22.139 0.214672 20.843 1.5027 20.843 3.11275V148.768C20.843 150.378 22.139 151.666 23.759 151.666H127.979C129.599 151.666 130.895 150.378 130.895 148.768V3.11275C130.895 1.5027 129.599 0.214672 127.979 0.214672H23.759Z" fill="#ECECEC"/>
<path d="M244.837 151.881H140.617C138.889 151.881 137.485 150.485 137.485 148.768V3.11275C137.485 1.39537 138.889 0 140.617 0H244.837C246.565 0 247.969 1.39537 247.969 3.11275V148.768C247.861 150.485 246.457 151.881 244.837 151.881ZM140.509 0.214672C138.889 0.214672 137.593 1.5027 137.593 3.11275V148.768C137.593 150.378 138.889 151.666 140.509 151.666H244.729C246.349 151.666 247.645 150.378 247.645 148.768V3.11275C247.645 1.5027 246.349 0.214672 244.729 0.214672H140.509Z" fill="#ECECEC"/>
<path d="M243.001 180.861H225.937V180.969H243.001V180.861Z" fill="#ECECEC"/>
<path d="M181.115 179.466H163.079V179.573H181.115V179.466Z" fill="#ECECEC"/>
<path d="M247.858 185.906H214.162V186.014H247.858V185.906Z" fill="#ECECEC"/>
<path d="M38.6629 184.94H28.2949V185.048H38.6629V184.94Z" fill="#ECECEC"/>
<path d="M59.8314 184.94H43.5234V185.048H59.8314V184.94Z" fill="#ECECEC"/>
<path d="M131.867 182.686H102.383V182.793H131.867V182.686Z" fill="#ECECEC"/>
<path d="M100.442 133.955H80.0303V172.274H100.442V133.955Z" fill="#F0F0F0"/>
<path d="M184.68 172.274H83.916V175.816H184.68V172.274Z" fill="#F0F0F0"/>
<path d="M188.569 133.955H100.441V172.274H188.569V133.955Z" fill="#FAFAFA"/>
<path d="M180.578 138.678H108.434V150.485H180.578V138.678Z" fill="#F0F0F0"/>
<path d="M180.578 153.705H108.434V165.512H180.578V153.705Z" fill="#F0F0F0"/>
<path d="M153.364 139.644H135.76C135.112 139.644 134.464 139.107 134.464 138.356C134.464 137.712 135.004 137.068 135.76 137.068H153.364C154.012 137.068 154.66 137.605 154.66 138.356C154.66 139.107 154.012 139.644 153.364 139.644Z" fill="#FAFAFA"/>
<path d="M153.364 154.778H135.76C135.112 154.778 134.464 154.242 134.464 153.49C134.464 152.846 135.004 152.202 135.76 152.202H153.364C154.012 152.202 154.66 152.739 154.66 153.49C154.66 154.242 154.012 154.778 153.364 154.778Z" fill="#FAFAFA"/>
<path d="M191.377 130.521H100.441V133.955H191.377V130.521Z" fill="#F0F0F0"/>
<path d="M100.441 130.521H77.1133V133.955H100.441V130.521Z" fill="#E7E7E7"/>
<path d="M147.529 13.417H32.5088V78.0333H147.529V13.417Z" fill="#E7E7E7"/>
<path d="M151.201 13.417H33.1572V78.0333H151.201V13.417Z" fill="#F5F5F5"/>
<path d="M35.9668 70.7344V20.7158C35.9668 18.247 38.0188 16.2076 40.5028 16.2076H143.751C146.235 16.2076 148.287 18.247 148.287 20.7158V70.627C148.287 73.0958 146.235 75.1351 143.751 75.1351H40.5028C38.0188 75.2425 35.9668 73.2031 35.9668 70.7344Z" fill="white"/>
<path d="M135.001 200.074C192.798 200.074 239.653 197.335 239.653 193.956C239.653 190.577 192.798 187.838 135.001 187.838C77.2029 187.838 30.3486 190.577 30.3486 193.956C30.3486 197.335 77.2029 200.074 135.001 200.074Z" fill="#F5F5F5"/>
<path d="M217.081 138.249H204.121V137.712H217.081C220.105 137.712 223.021 135.995 224.533 133.204L224.965 133.419C223.345 136.317 220.213 138.249 217.081 138.249Z" fill="#007CFF"/>
<path d="M201.529 137.712H196.237V138.249H201.529V137.712Z" fill="#007CFF"/>
<path d="M217.081 136.317H65.4488C61.8848 136.317 59.1848 133.419 59.5088 129.877L67.7168 36.4942C68.0408 32.9522 71.1728 30.0541 74.7368 30.0541H226.369C229.933 30.0541 232.633 32.9522 232.309 36.4942L224.101 129.877C223.777 133.419 220.645 136.317 217.081 136.317Z" fill="#0064B7"/>
<path d="M213.843 134.385H65.9906C62.9666 134.385 60.6986 131.916 60.9146 128.911L68.3666 43.793C68.4746 42.9343 69.2306 42.183 70.0946 42.183H225.831C226.695 42.183 227.343 42.9343 227.235 43.793L219.783 128.911C219.567 131.916 216.867 134.385 213.843 134.385Z" fill="white"/>
<path d="M84.8899 37.9969C80.4619 37.9969 77.2219 34.4549 77.6539 30.0541C78.0859 25.6533 81.9739 22.1112 86.2939 22.1112C90.6139 22.1112 93.9619 25.6533 93.5299 30.0541H90.2899C90.5059 27.478 88.5619 25.3313 85.9699 25.3313C83.3779 25.3313 81.1099 27.478 80.7859 30.0541C80.5699 32.6301 82.5139 34.7769 85.1059 34.7769L84.8899 37.9969Z" fill="#023EA1"/>
<path d="M116.967 37.9969C112.539 37.9969 109.299 34.4549 109.731 30.0541C110.163 25.6533 114.051 22.1112 118.371 22.1112C122.691 22.1112 126.039 25.6533 125.607 30.0541H122.367C122.583 27.478 120.639 25.3313 118.047 25.3313C115.455 25.3313 113.187 27.478 112.863 30.0541C112.647 32.6301 114.591 34.7769 117.183 34.7769L116.967 37.9969Z" fill="#023EA1"/>
<path d="M148.932 37.9969C144.504 37.9969 141.264 34.4549 141.696 30.0541C142.128 25.6533 146.016 22.1112 150.336 22.1112C154.764 22.1112 158.004 25.6533 157.572 30.0541H154.332C154.548 27.478 152.604 25.3313 150.012 25.3313C147.42 25.3313 145.152 27.478 144.828 30.0541C144.612 32.6301 146.556 34.7769 149.148 34.7769L148.932 37.9969Z" fill="#023EA1"/>
<path d="M181.009 37.9969C176.581 37.9969 173.341 34.4549 173.773 30.0541C174.205 25.6533 178.093 22.1112 182.413 22.1112C186.841 22.1112 190.081 25.6533 189.649 30.0541H186.409C186.625 27.478 184.681 25.3313 182.089 25.3313C179.497 25.3313 177.229 27.478 176.905 30.0541C176.689 32.6301 178.633 34.7769 181.225 34.7769L181.009 37.9969Z" fill="#023EA1"/>
<path d="M213.086 37.9969C208.658 37.9969 205.418 34.4549 205.85 30.0541C206.282 25.6533 210.17 22.1112 214.49 22.1112C218.918 22.1112 222.158 25.6533 221.726 30.0541H218.486C218.702 27.478 216.758 25.3313 214.166 25.3313C211.574 25.3313 209.306 27.478 208.982 30.0541C208.766 32.6301 210.71 34.7769 213.302 34.7769L213.086 37.9969Z" fill="#023EA1"/>
<path d="M213.516 130.521H67.2844C67.1764 130.521 67.0684 130.413 67.0684 130.306L74.3044 47.3353C74.3044 47.2279 74.4124 47.1206 74.6284 47.1206H220.752C220.86 47.1206 220.968 47.2279 220.968 47.3353L213.732 130.306C213.732 130.413 213.624 130.521 213.516 130.521ZM67.6084 129.984H213.192L220.428 47.5499H74.8444L67.6084 129.984Z" fill="#E1E1E1"/>
<path d="M214.921 113.883H68.7971C68.6891 113.883 68.5811 113.776 68.5811 113.669C68.5811 113.561 68.6891 113.454 68.9051 113.454H215.029C215.137 113.454 215.245 113.561 215.245 113.669C215.245 113.776 215.137 113.883 214.921 113.883Z" fill="#E1E1E1"/>
<path d="M216.434 97.3539H70.2023C70.0943 97.3539 69.9863 97.2466 69.9863 97.1392C69.9863 97.0319 70.0943 96.9246 70.3103 96.9246H216.434C216.542 96.9246 216.65 97.0319 216.65 97.1392C216.65 97.2466 216.542 97.3539 216.434 97.3539Z" fill="#E1E1E1"/>
<path d="M217.834 80.7165H71.7101C71.6021 80.7165 71.4941 80.6091 71.4941 80.5018C71.4941 80.3945 71.6021 80.2871 71.8181 80.2871H217.942C218.05 80.2871 218.158 80.3945 218.158 80.5018C218.158 80.6091 218.05 80.7165 217.834 80.7165Z" fill="#E1E1E1"/>
<path d="M219.347 64.0797H73.1154C73.0074 64.0797 72.8994 63.9724 72.8994 63.8651C72.8994 63.7577 73.0074 63.6504 73.2234 63.6504H219.347C219.455 63.6504 219.563 63.7577 219.563 63.8651C219.563 63.9724 219.455 64.0797 219.347 64.0797Z" fill="#E1E1E1"/>
<path d="M195.265 130.521C195.157 130.521 195.049 130.413 195.049 130.306L202.285 47.3353C202.285 47.2279 202.393 47.1206 202.609 47.1206C202.717 47.1206 202.825 47.2279 202.825 47.3353L195.589 130.306C195.481 130.413 195.373 130.521 195.265 130.521Z" fill="#E1E1E1"/>
<path d="M176.903 130.521C176.795 130.521 176.687 130.413 176.687 130.306L183.923 47.3353C183.923 47.2279 184.031 47.1206 184.247 47.1206C184.355 47.1206 184.463 47.2279 184.463 47.3353L177.227 130.306C177.227 130.413 177.119 130.521 176.903 130.521Z" fill="#E1E1E1"/>
<path d="M158.653 130.521C158.545 130.521 158.438 130.413 158.438 130.306L165.673 47.3353C165.673 47.2279 165.782 47.1206 165.998 47.1206C166.214 47.1206 166.213 47.2279 166.213 47.3353L158.978 130.306C158.978 130.413 158.869 130.521 158.653 130.521Z" fill="#E1E1E1"/>
<path d="M140.4 130.521C140.292 130.521 140.184 130.413 140.184 130.306L147.42 47.3353C147.42 47.2279 147.528 47.1206 147.744 47.1206C147.852 47.1206 147.96 47.2279 147.96 47.3353L140.724 130.306C140.724 130.413 140.508 130.521 140.4 130.521Z" fill="#E1E1E1"/>
<path d="M122.15 130.521C122.042 130.521 121.934 130.413 121.934 130.306L129.17 47.3353C129.17 47.2279 129.278 47.1206 129.494 47.1206C129.602 47.1206 129.71 47.2279 129.71 47.3353L122.474 130.306C122.366 130.413 122.258 130.521 122.15 130.521Z" fill="#E1E1E1"/>
<path d="M103.896 130.521C103.788 130.521 103.68 130.413 103.68 130.306L110.916 47.3353C110.916 47.2279 111.024 47.1206 111.24 47.1206C111.348 47.1206 111.456 47.2279 111.456 47.3353L104.22 130.306C104.112 130.413 104.004 130.521 103.896 130.521Z" fill="#E1E1E1"/>
<path d="M85.6467 130.521C85.5387 130.521 85.4307 130.413 85.4307 130.306L92.6667 47.3353C92.6667 47.2279 92.7747 47.1206 92.9907 47.1206C93.0987 47.1206 93.2067 47.2279 93.2067 47.3353L85.9707 130.306C85.8627 130.413 85.7547 130.521 85.6467 130.521Z" fill="#E1E1E1"/>
<path d="M159.623 78.7846H148.499C147.527 78.7846 146.879 78.0333 146.879 77.0673L147.743 67.1924C147.851 66.2263 148.715 65.475 149.579 65.475H160.703C161.675 65.475 162.323 66.2263 162.323 67.1924L161.459 77.0673C161.459 78.0333 160.595 78.7846 159.623 78.7846Z" fill="#007CFF"/>
<path d="M159.623 78.7846H148.499C147.527 78.7846 146.879 78.0333 146.879 77.0673L147.743 67.1924C147.851 66.2263 148.715 65.475 149.579 65.475H160.703C161.675 65.475 162.323 66.2263 162.323 67.1924L161.459 77.0673C161.459 78.0333 160.595 78.7846 159.623 78.7846Z" fill="#155BCC"/>
<path d="M237.493 78.7848H225.829L227.017 65.4751H238.681L234.253 72.1299L237.493 78.7848Z" stroke="#25409C" stroke-width="0.25" stroke-miterlimit="10"/>
<path d="M238.033 79.1067H225.613L226.801 65.2604H239.221L234.685 72.1299L238.033 79.1067ZM226.045 78.5701H237.061L233.929 72.2372L238.141 65.9044H227.125L226.045 78.5701Z" stroke="#25409C" stroke-width="0.25" stroke-miterlimit="10"/>
<path d="M194.618 95.4215H183.494C182.522 95.4215 181.874 94.6701 181.874 93.7041L182.738 83.8292C182.846 82.8632 183.71 82.1118 184.574 82.1118H195.698C196.67 82.1118 197.318 82.8632 197.318 83.8292L196.454 93.7041C196.454 94.6701 195.59 95.4215 194.618 95.4215Z" fill="#007CFF"/>
<path d="M194.618 95.4215H183.494C182.522 95.4215 181.874 94.6701 181.874 93.7041L182.738 83.8292C182.846 82.8632 183.71 82.1118 184.574 82.1118H195.698C196.67 82.1118 197.318 82.8632 197.318 83.8292L196.454 93.7041C196.454 94.6701 195.59 95.4215 194.618 95.4215Z" fill="#155BCC"/>
<path d="M215.999 62.1477H186.407C185.435 62.1477 184.787 61.3963 184.787 60.4303L185.651 50.5554C185.759 49.5894 186.623 48.838 187.487 48.838H217.079C218.051 48.838 218.699 49.5894 218.699 50.5554L217.835 60.4303C217.835 61.3963 216.971 62.1477 215.999 62.1477Z" fill="#155BCC"/>
<path d="M97.8478 76.5307C93.3118 76.5307 89.6398 74.9207 86.9398 71.9153C83.4838 68.0512 83.0518 63.221 85.6438 59.2496C89.5318 53.4535 99.4678 50.448 106.056 51.3067C106.164 51.3067 106.272 51.4141 106.272 51.6287C106.272 51.7361 106.056 51.8434 105.948 51.8434C99.5758 50.9847 89.7478 53.9901 86.0758 59.5716C83.1598 63.9724 84.8878 68.6952 87.3718 71.5932C90.9358 75.672 95.7958 76.2087 99.2518 75.994C105.84 75.5647 113.076 71.8079 117.18 66.6558C118.368 65.2604 120.096 62.4697 119.016 60.2156C117.396 56.7809 111.996 57.1029 107.46 57.6396C107.352 57.6396 107.136 57.5322 107.136 57.4249C107.136 57.3176 107.244 57.1029 107.352 57.1029C110.376 56.6735 117.396 55.8148 119.34 60.001C120.528 62.577 118.692 65.4751 117.396 67.0851C113.184 72.3446 105.732 76.1014 99.0358 76.638C98.7118 76.5307 98.2798 76.5307 97.8478 76.5307Z" fill="#EE384E"/>
<path d="M187.922 92.4164C187.706 92.4164 187.598 92.309 187.49 92.0944C186.734 90.4843 185.978 89.411 185.222 88.6596C185.006 88.445 185.006 88.1229 185.222 87.9083C185.438 87.6936 185.762 87.6936 185.978 87.9083C186.734 88.6596 187.382 89.6256 188.138 90.9137C189.866 89.089 191.918 87.3716 194.186 85.7615C194.402 85.5469 194.726 85.6542 194.942 85.8689C195.158 86.0836 195.05 86.4056 194.834 86.6202C192.35 88.4449 190.19 90.2697 188.462 92.2017C188.246 92.4164 188.03 92.4164 187.922 92.4164Z" fill="white"/>
<path d="M168.05 127.944C164.702 127.944 162.218 125.261 162.542 121.934C162.866 118.606 165.782 115.923 169.13 115.923C172.478 115.923 174.962 118.606 174.638 121.934C174.314 125.261 171.398 127.944 168.05 127.944ZM169.022 116.996C166.322 116.996 163.838 119.25 163.622 121.934C163.406 124.617 165.458 126.871 168.158 126.871C170.858 126.871 173.342 124.617 173.558 121.934C173.774 119.25 171.722 116.996 169.022 116.996Z" fill="#EE384E"/>
<path d="M116.102 94.6706C112.754 94.6706 110.27 91.9872 110.594 88.6597C110.918 85.3323 113.834 82.6489 117.182 82.6489C120.53 82.6489 123.014 85.3323 122.69 88.6597C122.366 91.9872 119.45 94.6706 116.102 94.6706ZM117.074 83.7223C114.374 83.7223 111.89 85.9763 111.674 88.6597C111.458 91.3431 113.51 93.5972 116.21 93.5972C118.91 93.5972 121.394 91.3431 121.61 88.6597C121.826 85.9763 119.774 83.7223 117.074 83.7223Z" fill="#EE384E"/>
<path opacity="0.1" d="M126.685 109.161H70.5253C68.2573 109.161 66.6373 107.336 66.8533 105.082C67.0693 102.828 69.0133 101.003 71.2813 101.003H127.333C129.601 101.003 131.221 102.828 131.005 105.082C130.897 107.336 128.845 109.161 126.685 109.161Z" fill="black"/>
<path d="M129.385 107.765L56.3768 101.969C54.1088 101.755 52.5968 99.8226 53.0288 97.6759C53.3528 95.5292 55.5128 93.8118 57.7808 94.0265L130.789 99.8226C133.057 100.037 134.569 101.969 134.137 104.116C133.705 106.37 131.653 107.98 129.385 107.765Z" fill="#155BCC"/>
<path d="M54.431 95.9585L56.807 96.8172L53.567 100.252C53.567 100.252 52.703 98.9639 52.163 97.5685C52.055 97.0319 52.379 96.3878 53.027 96.2805L54.431 95.9585Z" fill="#FFBE9B"/>
<path d="M57.8889 100.574L56.3769 101.969C55.8369 102.399 54.9729 102.399 54.6489 101.862L53.4609 100.359L56.7009 96.9246L58.1049 99.608C58.2129 99.8226 58.2129 100.252 57.8889 100.574Z" fill="#FFBE9B"/>
<path d="M83.9179 73.5253C84.8899 75.5647 85.9699 77.7114 87.1579 79.7508C88.2379 81.7901 89.4259 83.8295 90.5059 85.6542C90.7219 86.0836 91.1539 86.5129 91.3699 86.7276C91.6939 87.1569 92.1259 87.479 92.5579 87.9083C93.4219 88.6596 94.2859 89.5183 95.2579 90.2697C97.0939 91.8797 98.9299 93.4898 100.766 95.2072L98.9299 97.3539C96.5539 96.1732 94.3939 94.8851 92.1259 93.4898C91.0459 92.8458 89.8579 92.0944 88.8859 91.3431C88.3459 90.9137 87.8059 90.4844 87.2659 90.055C86.6179 89.5183 86.1859 88.8743 85.6459 88.445C83.9179 86.2983 82.7299 84.2589 81.4339 82.1122C80.1379 79.9654 79.0579 77.926 78.0859 75.672L83.9179 73.5253Z" fill="#FFBE9B"/>
<path d="M63.5061 73.2034C62.1021 75.2428 60.6981 77.1748 59.1861 79.2142L54.8661 85.1177L54.3261 85.8691L54.2181 85.9764C54.2181 85.9764 54.2181 86.0837 54.1101 86.0837C54.0021 86.2984 53.8941 86.7278 53.8941 87.1571C53.7861 88.1231 53.8941 89.1965 54.0021 90.2698C54.2181 92.4166 54.7581 94.778 55.1901 97.032L52.3821 97.998C51.1941 95.744 50.0061 93.4899 49.2501 91.1285C48.9261 89.9478 48.6021 88.6598 48.4941 87.1571C48.4941 86.4057 48.4941 85.6544 48.7101 84.7957C48.8181 84.581 48.8181 84.3664 48.9261 84.0444L49.1421 83.7223L49.2501 83.615V83.5077L49.7901 82.649C50.9781 80.5023 52.3821 78.4629 53.7861 76.3162C55.1901 74.2768 56.5941 72.2374 58.1061 70.198L63.5061 73.2034Z" fill="#FFBE9B"/>
<path d="M67.5026 56.6735C67.0706 60.2156 67.8266 64.7237 65.0186 66.5484C65.0186 66.5484 65.6666 69.8758 72.3626 70.8418C79.8146 71.8079 76.1426 68.9098 76.1426 68.9098C72.1466 67.6217 72.7946 64.0797 73.8746 61.7183L67.5026 56.6735Z" fill="#FFBE9B"/>
<path d="M64.6939 68.588C64.5859 67.3 64.6939 65.2606 65.6659 64.9386C66.6379 64.6166 72.7939 65.046 75.9259 67.5147C74.8459 69.4467 74.9539 71.3788 74.9539 71.3788L64.6939 68.588Z" fill="#0054A3"/>
<path d="M61.7753 66.5483C57.9953 66.8704 52.4873 75.2426 52.4873 75.2426L59.5073 80.7167C59.5073 80.7167 62.8553 77.604 65.4473 73.9545C68.1473 70.1978 65.7713 66.3337 61.7753 66.5483Z" fill="#0054A3"/>
<path opacity="0.6" d="M61.7753 66.5483C57.9953 66.8704 52.4873 75.2426 52.4873 75.2426L59.5073 80.7167C59.5073 80.7167 62.8553 77.604 65.4473 73.9545C68.1473 70.1978 65.7713 66.3337 61.7753 66.5483Z" fill="#0054A3"/>
<path opacity="0.2" d="M63.8276 72.6667L59.1836 80.5023L59.5076 80.717C59.5076 80.717 61.2356 78.9996 63.2876 76.6382L63.8276 72.6667Z" fill="black"/>
<path d="M81.2175 85.4397C80.4615 89.3038 79.2735 94.1339 77.7615 100.037L56.2695 97.2466C56.4855 94.5632 59.7255 82.6489 59.0775 69.7686C58.9695 67.9439 60.6975 66.4412 62.7495 66.5485C63.8295 66.5485 65.0175 66.6558 66.0975 66.7632C68.7975 66.9778 72.9015 67.4072 75.1695 67.9439C78.4095 68.5879 81.2175 69.7686 81.2175 69.7686C81.2175 69.7686 82.7295 71.7006 81.9735 79.9655C81.7575 81.4682 81.5415 83.2929 81.2175 85.4397Z" fill="#0083F9"/>
<path opacity="0.6" d="M81.2175 85.4397C80.4615 89.3038 79.2735 94.1339 77.7615 100.037L56.2695 97.2466C56.4855 94.5632 59.7255 82.6489 59.0775 69.7686C58.9695 67.9439 60.6975 66.4412 62.7495 66.5485C63.8295 66.5485 65.0175 66.6558 66.0975 66.7632C68.7975 66.9778 72.9015 67.4072 75.1695 67.9439C78.4095 68.5879 81.2175 69.7686 81.2175 69.7686C81.2175 69.7686 82.7295 71.7006 81.9735 79.9655C81.7575 81.4682 81.5415 83.2929 81.2175 85.4397Z" fill="#0083F9"/>
<path opacity="0.2" d="M81.2183 85.4395C79.4903 84.4735 77.8703 80.0727 78.6263 77.7113L82.0823 79.7507C81.7583 81.4681 81.5423 83.2928 81.2183 85.4395Z" fill="black"/>
<path d="M76.356 72.1299C75.276 75.35 81.864 84.7955 81.864 84.7955L89.856 81.1461C89.856 81.1461 88.02 76.4233 85.212 72.6666C82.08 68.5878 77.544 68.4805 76.356 72.1299Z" fill="#0054A3"/>
<path opacity="0.6" d="M76.356 72.1299C75.276 75.35 81.864 84.7955 81.864 84.7955L89.856 81.1461C89.856 81.1461 88.02 76.4233 85.212 72.6666C82.08 68.5878 77.544 68.4805 76.356 72.1299Z" fill="#0054A3"/>
<path d="M69.2301 50.7701C67.7181 54.8489 66.6381 57.3176 68.1501 60.2157C70.3101 64.6165 76.6821 64.8312 79.5981 61.1817C82.1901 57.8543 84.0261 51.6288 80.3541 48.4087C76.5741 45.1887 70.7421 46.6914 69.2301 50.7701Z" fill="#FFBE9B"/>
<path d="M76.3566 42.9345C79.7046 43.6859 82.2966 44.9739 82.6206 46.4766C85.6446 47.6573 86.6166 50.448 84.5646 51.5214C82.7286 52.5948 79.8126 51.4141 79.8126 51.4141C79.8126 51.4141 81.2166 57.6396 76.8966 55.2782C76.2486 57.4249 74.7366 61.289 71.0646 61.611C69.1206 61.8257 65.5566 61.3963 65.2326 59.8936C64.9086 58.3909 66.0966 58.7129 65.8806 57.5322C65.5566 56.3515 63.9366 52.2728 65.7726 49.2673C65.8806 49.3747 68.4726 40.2511 76.3566 42.9345Z" fill="#180857"/>
<path d="M75.0596 55.0636C74.9516 56.1369 75.3836 57.103 75.9236 57.747C76.7876 58.8203 77.1116 58.8203 77.4356 57.6397C77.7596 56.5663 78.6236 54.3122 77.4356 53.7756C76.2476 53.2389 75.0596 53.8829 75.0596 55.0636Z" fill="#FFBE9B"/>
<path d="M70.0937 99.1787C70.0937 99.1787 66.7457 126.871 64.6937 136.961C62.4257 148.017 47.3057 183.652 47.3057 183.652L40.1777 182.042C43.8497 169.698 49.2497 146.729 52.5977 137.927C55.0817 124.51 52.5977 107.766 56.2697 97.354L70.0937 99.1787Z" fill="#EE384E"/>
<path opacity="0.2" d="M67.9344 109.912C68.1504 109.912 68.4744 109.912 68.6904 109.912C67.6104 118.177 66.0984 129.233 64.9104 135.566C63.9384 126.335 62.9664 110.771 67.9344 109.912Z" fill="black"/>
<path d="M77.5464 100.145C77.5464 100.145 79.2744 129.769 79.4904 140.503C79.7064 151.666 76.6824 184.94 76.6824 184.94H69.7704C69.7704 184.94 67.1784 154.135 68.5824 139.108C66.9624 127.623 63.3984 98.3198 63.3984 98.3198L77.5464 100.145Z" fill="#EE384E"/>
<path d="M102.493 94.778C101.521 94.6706 100.117 94.778 99.1449 95.2073L98.6049 95.9587C98.2809 96.6027 98.4969 97.354 99.3609 97.5687L101.845 98.2127L103.033 98.5347C103.573 98.6421 104.113 98.5347 104.437 98.1054L104.977 97.4614C105.301 97.032 105.193 96.388 104.869 96.066L103.789 95.2073C103.249 94.9926 102.925 94.8853 102.493 94.778Z" fill="#FFBE9B"/>
<path d="M47.197 183.437L40.609 181.827C40.285 181.72 40.177 181.827 40.069 182.149L37.909 186.657C37.693 186.979 37.801 187.516 38.341 187.731H38.449C40.609 188.268 42.229 188.482 45.037 189.126C46.657 189.448 51.841 190.844 54.001 191.38C56.269 191.917 57.133 189.77 56.161 189.341C52.165 187.409 49.249 185.477 48.169 183.974C47.845 183.759 47.521 183.545 47.197 183.437Z" fill="#170856"/>
<path d="M76.6819 184.94H69.8779C69.5539 184.94 69.4459 185.048 69.4459 185.37L68.3659 190.2C68.2579 190.629 68.4739 191.058 69.0139 191.166H69.1219C71.3899 191.166 73.0099 191.058 75.8179 191.058C77.4379 191.058 82.8379 191.166 85.1059 191.166C87.3739 191.166 87.8059 188.912 86.7259 188.697C82.4059 187.731 79.0579 186.55 77.6539 185.262C77.3299 185.048 77.0059 184.94 76.6819 184.94Z" fill="#170856"/>
<path d="M203.581 158.535C203.581 158.535 206.065 157.677 205.849 154.779C205.741 152.095 204.337 150.163 207.253 151.022C210.061 151.773 211.141 152.203 213.301 151.773C215.353 151.237 217.081 150.378 216.109 153.169C215.245 155.852 214.165 158.106 216.325 158.535C218.377 159.072 220.861 157.355 221.077 161.434C221.293 165.62 217.837 170.342 212.437 170.664C206.929 170.772 204.445 168.625 204.445 168.625C204.445 168.625 202.933 166.586 205.309 166.049C207.577 165.405 209.953 164.546 208.765 163.473C207.577 162.4 203.797 162.292 203.797 162.292C203.797 162.292 198.721 161.326 203.581 158.535Z" fill="#0064E1"/>
<path d="M228.851 159.072C228.311 156.389 228.743 154.457 233.819 153.706C239.003 152.954 241.811 155.96 242.027 159.072C242.243 162.292 237.923 163.258 237.923 163.258C237.923 163.258 234.683 164.117 236.411 166.801C238.031 169.484 238.679 172.06 235.223 172.597C231.659 173.133 227.879 171.953 225.611 170.665C223.559 169.269 221.183 165.512 223.667 163.58C223.667 163.58 224.423 163.044 226.907 162.936C229.175 162.936 228.851 159.072 228.851 159.072Z" fill="#0054A3"/>
<path d="M211.249 158.857C211.249 158.857 215.461 168.196 215.893 174.636" stroke="#A0D8FD" stroke-miterlimit="10" stroke-linecap="round" stroke-linejoin="round"/>
<path d="M234.36 160.36C234.36 160.36 227.016 171.201 225.072 174.958" stroke="#719DD1" stroke-miterlimit="10" stroke-linecap="round" stroke-linejoin="round"/>
<path d="M213.409 173.777H230.257C230.257 173.777 232.093 173.885 231.877 176.461C231.769 178.715 228.637 178.285 227.233 178.285C225.829 178.285 212.977 178.285 212.977 178.285C212.977 178.285 210.925 178.5 210.925 176.353C210.925 173.992 211.681 173.777 213.409 173.777Z" fill="#0064E1"/>
<path d="M212.87 178.285L215.462 193.098H226.91L228.854 181.827L212.978 178.285H212.87Z" fill="#0064E1"/>
<path d="M212.978 178.285L228.854 181.827L229.502 178.285H212.978Z" fill="#0064B7"/>
<path d="M220.321 174.421C220.321 174.421 221.185 157.891 226.153 147.587" stroke="#FCBE42" stroke-width="0.5" stroke-miterlimit="10"/>
<path d="M230.258 141.576C230.258 141.576 230.798 146.729 225.722 148.661C225.614 148.661 224.426 144.26 230.258 141.576Z" fill="#FCBE42"/>
<path d="M222.699 157.677C222.699 157.677 224.535 153.276 230.043 153.92C230.259 153.92 229.719 158.214 222.699 157.677Z" fill="#FCBE42"/>
<path d="M220.862 168.625C220.862 168.625 221.726 164.01 227.558 163.473C227.558 163.473 227.774 167.659 220.862 168.625Z" fill="#FCBE42"/>
<path d="M220.645 168.625C220.645 168.625 221.293 164.01 216.109 161.541C216.217 161.541 214.381 165.512 220.645 168.625Z" fill="#FCBE42"/>
<path d="M222.697 157.677C222.697 157.677 223.885 153.169 219.133 150.163C219.241 150.163 216.973 153.705 222.697 157.677Z" fill="#FCBE42"/>
</svg>
