<svg width="270" height="203" viewBox="0 0 270 203" fill="none" xmlns="http://www.w3.org/2000/svg">
<path d="M228.494 112.084L232.753 164.068L226.637 164.836L214.731 85.9825L217.571 85.7632L228.494 112.084Z" fill="#DE051F"/>
<path d="M217.355 85.8727V87.5178C217.246 96.2915 231.445 125.683 232.1 126.999C232.865 128.535 252.307 157.707 252.307 157.707L256.129 153.979L239.418 119.432C236.469 114.497 235.486 104.078 235.268 102.433C235.377 102.104 235.268 101.885 235.268 101.775C237.125 93.7691 232.319 88.2855 232.1 87.5178C231.773 86.4211 231.227 83.6793 231.227 83.6793L217.355 85.8727Z" fill="#EE384E"/>
<path d="M232.752 163.959L233.407 168.346L220.191 170.32C220.082 170.32 220.082 170.21 220.082 170.1C220.191 169.771 220.082 168.675 221.502 168.126C223.14 167.359 226.745 164.726 226.745 164.726L232.752 163.959Z" fill="#221D56"/>
<path d="M256.129 153.759C256.129 153.759 257.986 155.295 258.859 156.282C259.733 157.159 259.296 158.256 259.187 158.585L250.122 166.262C250.122 166.262 247.5 165.165 249.685 163.081C251.869 160.778 252.524 157.378 252.524 157.378L256.129 153.759Z" fill="#221D56"/>
<path d="M169.078 36.6301H36.3711V170.319H169.078V36.6301Z" fill="#F4F4F4"/>
<path d="M169.078 15.5734V36.6303H36.3711V15.5734C36.3711 11.4059 39.757 8.0061 43.9075 8.0061H161.541C165.692 8.0061 169.078 11.4059 169.078 15.5734Z" fill="#0064B5"/>
<path d="M148.544 27.3082C151.982 27.3082 154.77 24.5094 154.77 21.0569C154.77 17.6044 151.982 14.8057 148.544 14.8057C145.106 14.8057 142.318 17.6044 142.318 21.0569C142.318 24.5094 145.106 27.3082 148.544 27.3082Z" fill="#1A1A1A"/>
<path d="M148.546 23.4696C150.512 23.4696 152.15 21.8246 152.15 19.8505V3.61915C152.15 1.64507 150.512 0 148.546 0C146.58 0 144.941 1.64507 144.941 3.61915V19.8505C144.941 21.8246 146.58 23.4696 148.546 23.4696Z" fill="#023EA1"/>
<path d="M104.418 27.3082C107.857 27.3082 110.644 24.5094 110.644 21.0569C110.644 17.6044 107.857 14.8057 104.418 14.8057C100.98 14.8057 98.1924 17.6044 98.1924 21.0569C98.1924 24.5094 100.98 27.3082 104.418 27.3082Z" fill="#1A1A1A"/>
<path d="M104.419 23.4696C106.385 23.4696 108.023 21.8246 108.023 19.8505V3.61915C108.023 1.64507 106.385 0 104.419 0C102.453 0 100.814 1.64507 100.814 3.61915V19.8505C100.924 21.8246 102.453 23.4696 104.419 23.4696Z" fill="#023EA1"/>
<path d="M60.4025 27.3082C63.8409 27.3082 66.6282 24.5094 66.6282 21.0569C66.6282 17.6044 63.8409 14.8057 60.4025 14.8057C56.9641 14.8057 54.1768 17.6044 54.1768 21.0569C54.1768 24.5094 56.9641 27.3082 60.4025 27.3082Z" fill="#1A1A1A"/>
<path d="M60.4042 23.4696C62.3702 23.4696 64.0086 21.8246 64.0086 19.8505V3.61915C64.0086 1.64507 62.3702 0 60.4042 0C58.4382 0 56.7998 1.64507 56.7998 3.61915V19.8505C56.7998 21.8246 58.4382 23.4696 60.4042 23.4696Z" fill="#023EA1"/>
<path d="M149.524 58.0162H124.293V83.3503H149.524V58.0162Z" stroke="#0064B5" stroke-miterlimit="10"/>
<path d="M115.885 58.0162H90.6543V83.3503H115.885V58.0162Z" stroke="#0064B5" stroke-miterlimit="10"/>
<path d="M82.3517 58.0162H57.1211V83.3503H82.3517V58.0162Z" stroke="#0064B5" stroke-miterlimit="10"/>
<path d="M149.524 90.2594H124.293V115.593H149.524V90.2594Z" stroke="#0064B5" stroke-miterlimit="10"/>
<path d="M115.885 90.2594H90.6543V115.593H115.885V90.2594Z" stroke="#0064B5" stroke-miterlimit="10"/>
<path d="M82.3517 90.2594H57.1211V115.593H82.3517V90.2594Z" fill="#0064B5"/>
<path d="M66.1875 99.2523L73.1778 106.491" stroke="white" stroke-width="2.0174" stroke-miterlimit="10"/>
<path d="M73.1778 99.2523L66.1875 106.491" stroke="white" stroke-width="2.0174" stroke-miterlimit="10"/>
<path d="M149.524 122.393H124.293V147.727H149.524V122.393Z" stroke="#0064B5" stroke-miterlimit="10"/>
<path d="M115.885 122.393H90.6543V147.727H115.885V122.393Z" stroke="#0064B5" stroke-miterlimit="10"/>
<path d="M82.3517 122.393H57.1211V147.727H82.3517V122.393Z" stroke="#0064B5" stroke-miterlimit="10"/>
<path d="M166.782 82.2538H154.549V90.3695H166.782V82.2538Z" fill="#FFA80A"/>
<path d="M168.64 84.3374H152.584C150.728 84.3374 149.308 82.802 149.308 81.0472C149.308 79.1828 150.837 77.7571 152.584 77.7571H168.64C170.497 77.7571 171.917 79.2925 171.917 81.0472C172.026 82.802 170.497 84.3374 168.64 84.3374Z" fill="#FFCB2D"/>
<path d="M130.912 94.4525L123.961 101.432L128.827 106.317L135.777 99.3381L130.912 94.4525Z" fill="#FFA80A"/>
<path d="M133.031 94.2077L123.311 103.968C122.328 104.955 120.798 104.955 119.815 103.968C118.832 102.981 118.832 101.446 119.815 100.459L129.536 90.6982C130.519 89.7111 132.048 89.7111 133.031 90.6982C134.014 91.6852 134.014 93.2206 133.031 94.2077Z" fill="#FFCB2D"/>
<path d="M160.558 170.21C183.48 170.21 202.063 151.551 202.063 128.535C202.063 105.518 183.48 86.8597 160.558 86.8597C137.635 86.8597 119.053 105.518 119.053 128.535C119.053 151.551 137.635 170.21 160.558 170.21Z" fill="#033E9F"/>
<path d="M160.559 167.907C182.215 167.907 199.77 150.279 199.77 128.535C199.77 106.79 182.215 89.1628 160.559 89.1628C138.903 89.1628 121.348 106.79 121.348 128.535C121.348 150.279 138.903 167.907 160.559 167.907Z" fill="#0064B5"/>
<path d="M160.556 163.52C179.799 163.52 195.399 147.857 195.399 128.535C195.399 109.213 179.799 93.5497 160.556 93.5497C141.313 93.5497 125.714 109.213 125.714 128.535C125.714 147.857 141.313 163.52 160.556 163.52Z" fill="#F6F6F6"/>
<g opacity="0.71">
<mask id="mask0_2976_21216" style="mask-type:luminance" maskUnits="userSpaceOnUse" x="125" y="93" width="71" height="71">
<path d="M160.559 163.52C179.802 163.52 195.401 147.856 195.401 128.535C195.401 109.213 179.802 93.5494 160.559 93.5494C141.316 93.5494 125.717 109.213 125.717 128.535C125.717 147.856 141.316 163.52 160.559 163.52Z" fill="white"/>
</mask>
<g mask="url(#mask0_2976_21216)">
<path d="M122.438 100.788L175.192 182.931L199.003 162.423L146.794 88.8335L122.438 100.788Z" fill="white"/>
</g>
<mask id="mask1_2976_21216" style="mask-type:luminance" maskUnits="userSpaceOnUse" x="125" y="93" width="71" height="71">
<path d="M160.559 163.52C179.802 163.52 195.401 147.856 195.401 128.535C195.401 109.213 179.802 93.5494 160.559 93.5494C141.316 93.5494 125.717 109.213 125.717 128.535C125.717 147.856 141.316 163.52 160.559 163.52Z" fill="white"/>
</mask>
<g mask="url(#mask1_2976_21216)">
<path d="M150.512 81.0469L203.376 163.191L206.434 152.882L154.225 79.4019L150.512 81.0469Z" fill="white"/>
</g>
</g>
<path d="M160.669 101.446C160.232 101.446 159.795 101.007 159.795 100.569V98.4849C159.795 98.0462 160.232 97.6075 160.669 97.6075C161.106 97.6075 161.542 98.0462 161.542 98.4849V100.569C161.542 101.007 161.215 101.446 160.669 101.446Z" fill="#0064B5"/>
<path d="M160.669 159.791C160.232 159.791 159.795 159.352 159.795 158.914V156.94C159.795 156.501 160.232 156.062 160.669 156.062C161.106 156.062 161.542 156.501 161.542 156.94V159.023C161.542 159.462 161.215 159.791 160.669 159.791Z" fill="#0064B5"/>
<path d="M140.794 109.671C140.575 109.671 140.357 109.562 140.138 109.452L138.718 108.026C138.391 107.697 138.391 107.149 138.718 106.82C139.046 106.491 139.592 106.491 139.92 106.82L141.34 108.246C141.667 108.575 141.667 109.123 141.34 109.452C141.34 109.562 141.121 109.671 140.794 109.671Z" fill="#0064B5"/>
<path d="M181.972 151.017C181.754 151.017 181.535 150.908 181.317 150.798L179.897 149.372C179.569 149.043 179.569 148.495 179.897 148.166C180.225 147.837 180.771 147.837 181.099 148.166L182.518 149.592C182.846 149.921 182.846 150.469 182.518 150.798C182.409 150.908 182.191 151.017 181.972 151.017Z" fill="#0064B5"/>
<path d="M139.374 151.017C139.155 151.017 138.937 150.908 138.718 150.798C138.391 150.469 138.391 149.921 138.718 149.592L140.138 148.166C140.466 147.837 141.012 147.837 141.34 148.166C141.667 148.495 141.667 149.043 141.34 149.372L139.92 150.798C139.811 150.908 139.592 151.017 139.374 151.017Z" fill="#0064B5"/>
<path d="M180.552 109.671C180.334 109.671 180.116 109.562 179.897 109.452C179.569 109.123 179.569 108.575 179.897 108.246L181.317 106.82C181.645 106.491 182.191 106.491 182.518 106.82C182.846 107.149 182.846 107.697 182.518 108.026L181.099 109.452C180.989 109.562 180.771 109.671 180.552 109.671Z" fill="#0064B5"/>
<path d="M132.599 129.631H130.524C130.087 129.631 129.65 129.193 129.65 128.754C129.65 128.315 130.087 127.877 130.524 127.877H132.599C133.036 127.877 133.473 128.315 133.473 128.754C133.473 129.193 133.146 129.631 132.599 129.631Z" fill="#0064B5"/>
<path d="M190.814 129.631H188.739C188.302 129.631 187.865 129.193 187.865 128.754C187.865 128.315 188.302 127.877 188.739 127.877H190.814C191.251 127.877 191.688 128.315 191.688 128.754C191.688 129.193 191.251 129.631 190.814 129.631Z" fill="#0064B5"/>
<path d="M162.747 128.315H158.597V110.11C158.597 108.904 159.58 108.026 160.672 108.026C161.873 108.026 162.747 109.013 162.747 110.11V128.315Z" fill="#0064B5"/>
<path d="M160.671 133.141C163.325 133.141 165.477 130.98 165.477 128.315C165.477 125.65 163.325 123.49 160.671 123.49C158.017 123.49 155.865 125.65 155.865 128.315C155.865 130.98 158.017 133.141 160.671 133.141Z" fill="#2B4183"/>
<path d="M165.644 38.6898L155.14 62.4465L178.799 72.9941L189.304 49.2374L165.644 38.6898Z" fill="#155BCC"/>
<path d="M31.893 99.143C31.893 99.143 49.6964 80.6085 51.0071 79.1828C52.427 77.7571 53.41 76.9894 54.9392 76.3313C56.4683 75.6733 56.9052 75.125 58.1067 73.6992C59.4173 72.2735 58.1067 71.8348 58.1067 71.8348C58.1067 71.3961 57.6698 71.1768 57.6698 71.1768C57.779 70.8478 57.2329 70.5188 57.2329 70.5188C57.2329 70.5188 57.6698 69.5317 58.3251 68.764C58.9805 67.9963 58.3251 68.106 58.3251 68.106L56.2499 70.2994C55.2668 69.9704 53.6285 71.3961 52.7547 72.6025C51.8809 74.0282 51.3348 74.3573 51.3348 74.3573L29.3809 93.111L31.893 99.143Z" fill="#FDBC99"/>
<path d="M25.2321 76.9895C28.1811 72.9316 24.1398 68.3254 24.1398 68.3254C24.1398 68.3254 23.8122 68.7641 22.8291 70.5189C21.8461 72.2736 20.5355 72.0543 18.351 73.151C16.2757 74.3574 12.3437 76.4411 13.2175 82.5827C13.8728 88.5049 19.0063 88.7243 19.0063 88.7243C19.0063 88.7243 22.283 81.0473 25.2321 76.9895Z" fill="#180957"/>
<path d="M16.2748 193.789C17.6947 194.996 22.0637 197.189 22.0637 197.189C22.5006 197.518 22.3913 198.286 22.3913 198.615C22.3913 198.724 22.2821 198.724 22.2821 198.724C21.2991 198.724 13.8719 198.724 11.7966 198.615C9.83061 198.615 10.7044 194.667 10.8136 194.118C10.8136 194.118 10.8136 194.009 10.9229 194.009C11.3597 193.68 14.8549 192.583 16.2748 193.789Z" fill="#160956"/>
<path d="M34.7321 193.351C37.0258 194.886 42.0501 197.079 42.0501 197.079C42.7055 197.408 42.7055 198.176 42.7055 198.286C42.7055 198.395 42.5962 198.395 42.5962 198.395C41.504 198.395 32.22 198.505 30.4724 198.395C28.5064 198.286 29.3802 194.009 29.4894 193.351C29.4894 193.351 29.4894 193.241 29.5986 193.241C30.0355 193.022 32.7661 191.925 34.7321 193.351Z" fill="#160956"/>
<path d="M16.8219 126.232L19.9894 139.063L20.5355 150.908L16.2758 193.789L10.7054 194.009L9.50391 126.341L16.8219 126.232Z" fill="#0064DF"/>
<path d="M31.4563 126.232L34.9514 193.351H29.4902L22.1723 158.365C20.5339 155.075 15.4004 126.341 15.4004 126.341L31.4563 126.232Z" fill="#003EAE"/>
<path d="M20.2072 79.073C18.8965 81.3761 19.2242 84.2276 18.8965 86.6404C18.5689 89.1628 16.8213 94.756 16.8213 94.756C16.8213 94.756 23.8116 95.8527 23.2655 94.756C22.9378 93.6593 22.6101 90.0402 22.8286 89.1628C22.9378 88.1758 24.2485 88.3951 25.8868 88.3951C27.5252 88.3951 28.1805 88.2854 27.9621 84.0083C27.9621 79.7311 25.2315 77.3183 25.2315 77.3183C23.047 74.7959 21.5179 76.6603 20.2072 79.073Z" fill="#FDBC99"/>
<path d="M26.2144 104.846L32.4402 99.2525L29.3819 92.6722L23.8115 95.9624L26.2144 104.846Z" fill="#F59D04"/>
<path d="M18.1326 94.2076C19.8801 95.1947 21.8462 94.9753 22.8292 94.3173C23.703 93.6593 24.2491 94.6463 24.2491 94.6463C24.2491 94.6463 26.8705 97.6074 28.2904 104.955C29.7103 112.303 31.4578 126.341 31.4578 126.341H9.50391C9.50391 126.341 9.61313 119.103 10.8146 109.233C11.9068 99.3622 15.2928 95.3044 15.2928 95.3044C15.9481 94.5367 16.385 93.3303 18.1326 94.2076Z" fill="#FABC42"/>
<path d="M19.2252 83.5697C18.2422 83.131 17.4777 81.7053 18.133 81.0473C18.7883 80.3892 19.8806 80.7182 19.8806 80.7182C19.8806 80.7182 20.3175 84.0084 19.2252 83.5697Z" fill="#FDBC99"/>
<path d="M16.9307 109.342C16.9307 109.342 17.2583 112.523 18.8967 119.542C20.535 126.561 25.1224 138.515 25.6685 139.283C26.3239 140.05 26.3239 143.56 26.6516 145.095C26.9792 146.63 29.0545 145.753 30.0375 144.766C30.9113 143.779 30.0375 141.476 30.0375 141.476C30.0375 141.476 28.0715 136.65 26.87 131.606C25.5593 126.451 23.1564 107.807 23.1564 107.807L16.9307 109.342Z" fill="#FDBC99"/>
<path d="M16.2759 110.219C16.2759 110.219 15.9482 105.833 15.9482 102.104C15.9482 98.375 18.2419 98.375 18.2419 98.375C22.2832 98.375 23.7031 108.684 23.7031 108.684L16.2759 110.219Z" fill="#F59D04"/>
<path d="M232.643 59.9901C234.5 61.4158 236.139 62.9512 237.777 64.5963C238.651 65.4737 239.415 66.351 240.071 67.3381C240.835 68.3251 241.49 69.2025 242.146 70.4089C242.146 70.5185 242.255 70.5186 242.255 70.6282L242.364 70.8476C242.473 71.0669 242.583 71.1766 242.583 71.5056C242.692 71.7249 242.801 72.1636 242.801 72.4926C242.91 73.2603 243.02 73.8087 243.02 74.4667C243.02 75.6731 243.02 76.7698 242.91 77.9762C242.692 80.2793 242.255 82.4727 241.709 84.6661L239.415 84.3371C239.524 82.1437 239.524 79.9503 239.415 77.8665C239.415 76.7698 239.306 75.7828 239.197 74.7957C239.197 74.357 239.088 73.8087 238.978 73.4797C238.869 73.37 238.76 73.1507 238.76 73.041C238.651 72.9313 238.651 72.8216 238.651 72.8216V72.712L238.541 72.6023C238.105 71.7249 237.449 70.9572 236.685 70.2992C235.92 69.5315 235.265 68.8735 234.5 68.1058C232.862 66.7897 231.333 65.2543 229.694 63.9383L232.643 59.9901Z" fill="#FFBF99"/>
<path d="M224.89 62.7321C225.654 64.9255 232.208 68.8736 232.208 68.8736L236.795 63.2804C236.795 63.2804 232.863 59.4419 230.46 58.0162C228.276 56.4808 223.47 58.8936 224.89 62.7321Z" fill="#003EB0"/>
<path d="M241.164 83.46C242.802 84.3373 242.147 86.5308 242.147 86.5308L239.089 86.8598L239.744 83.5696L241.164 83.46Z" fill="#FFBF99"/>
<path d="M239.089 86.8596L242.147 86.5306L243.021 88.066L240.181 88.9434L239.089 86.8596Z" fill="#FFBF99"/>
<path d="M214.297 65.2545C211.785 66.1319 209.164 66.6803 206.433 67.2286C203.702 67.8866 201.081 68.106 198.35 68.3253H197.914C197.695 68.3253 197.477 68.3253 197.149 68.3253C196.712 68.3253 196.275 68.2157 195.947 68.2157C195.183 68.106 194.528 67.9963 193.763 67.777C192.452 67.448 191.032 66.7899 189.831 66.3513C187.428 65.1449 184.916 63.9385 182.731 62.4031L183.824 60.3193C186.117 61.1967 188.63 62.1837 191.032 62.8418C192.125 63.2805 193.326 63.6095 194.528 63.8288C195.183 63.9385 195.729 64.0482 196.275 64.0482C196.494 64.0482 196.712 64.0482 197.04 64.0482H197.367H197.804C199.115 63.9385 200.316 63.7191 201.627 63.3901C202.938 63.1708 204.139 62.9514 205.45 62.6224C207.962 61.9644 210.474 61.416 212.877 60.758L214.297 65.2545Z" fill="#FFBF99"/>
<path d="M184.041 62.2934C181.857 63.3901 181.201 59.771 181.201 59.771L183.713 58.7839L184.478 61.1967L184.041 62.2934Z" fill="#FFBF99"/>
<path d="M183.932 58.8934L181.419 59.8805L179.672 57.5774L182.293 57.358L183.932 58.8934Z" fill="#FFBF99"/>
<path d="M216.588 44.4168C219.756 45.1845 219.319 48.4746 220.302 51.9841C221.176 55.0549 222.814 57.2483 223.36 57.7966C223.36 57.7966 223.36 57.9063 223.36 58.016C223.251 58.2353 222.923 58.7837 222.377 59.7707C221.503 61.1964 218.117 62.0738 217.243 61.7448C216.37 61.4158 215.277 58.7837 215.605 56.2612C215.933 53.7388 213.858 54.9452 213.858 54.9452C211.564 55.6032 210.362 53.9581 210.362 53.9581C207.96 51.7647 207.632 45.8425 207.632 44.6361C207.632 44.5264 207.741 44.4168 207.85 44.4168C208.943 44.1974 213.748 43.7587 216.588 44.4168Z" fill="#FFBE97"/>
<path d="M231.554 60.2096C231.663 58.7838 230.571 57.4678 229.261 57.4678C229.042 57.4678 228.933 57.4678 228.605 57.4678C228.278 57.4678 227.841 57.4678 227.513 57.4678C227.295 57.4678 226.858 57.4678 226.53 57.4678C226.093 57.5774 225.547 57.5774 225.11 57.5774C225.001 57.5774 224.892 57.5774 224.673 57.5774C221.833 57.7968 219.43 58.0161 217.028 58.5645C215.608 58.8935 215.28 58.8935 214.188 59.3322C214.078 59.3322 214.078 59.3322 213.969 59.3322C211.785 60.0999 210.037 60.9773 210.037 60.9773C210.037 60.9773 208.071 61.6353 214.625 85.5436C221.287 84.5566 228.278 83.6792 231.554 83.2405C230.571 76.7699 230.025 72.6024 231.554 60.2096Z" fill="#0064E1"/>
<path d="M220.633 53.9583C220.851 55.055 223.036 57.7967 223.036 57.7967L227.295 59.5515L228.606 69.8606L228.169 76.2215C228.169 76.2215 228.825 78.0859 230.681 78.0859C232.538 78.0859 233.958 77.7569 233.521 74.9055C233.084 72.054 234.395 72.383 235.269 67.4478C236.143 62.4029 232.538 61.1966 231.118 60.4289C229.698 59.6612 228.169 55.9323 228.169 55.9323C227.514 50.7778 221.943 52.7519 221.943 52.7519C221.943 52.7519 220.633 52.9712 220.633 53.9583Z" fill="#180857"/>
<path d="M220.193 52.0937C220.084 52.4228 220.849 53.8485 220.849 53.8485C220.849 53.8485 223.252 52.5324 223.579 52.4228C223.688 52.3131 222.815 51.326 222.815 51.326C222.815 51.326 220.303 51.5454 220.193 52.0937Z" fill="#EA4E59"/>
<path d="M204.901 44.8557C205.01 45.2943 205.228 45.8427 205.665 46.1717C206.539 47.2684 207.522 46.062 207.959 45.1847C208.068 44.9653 208.614 44.746 208.833 44.9653C211.236 46.2814 214.731 45.733 214.731 45.733C218.008 44.8557 216.042 48.4748 216.042 48.4748C215.932 50.3392 217.461 52.3133 221.503 51.9843C225.435 51.7649 223.469 43.7589 223.359 43.4299C221.94 38.2754 216.806 36.74 213.857 36.74C211.345 36.74 209.488 38.6044 208.942 39.1528C208.833 39.3721 208.724 39.3721 208.505 39.3721C207.741 39.3721 206.867 39.5914 206.321 40.1398C205.447 40.9075 205.119 42.0042 205.01 43.1009C205.01 43.3203 205.01 43.7589 205.01 44.1976C204.901 44.3073 204.791 44.5266 204.901 44.8557Z" fill="#180857"/>
<path opacity="0.2" d="M209.927 65.4739C210.036 66.3513 210.254 67.448 210.582 68.764C211.456 69.4221 213.968 67.3383 214.077 66.2416C213.75 64.0482 211.237 65.4739 209.927 65.4739Z" fill="black"/>
<path d="M212.878 67.4479C210.912 68.5446 207.745 68.6543 207.745 68.6543L205.342 62.074C207.526 61.087 216.919 56.8098 216.81 60.7579C216.81 63.6094 215.063 66.2415 212.878 67.4479Z" fill="#0054A3"/>
<path d="M231.659 82.1439L214.293 84.5567C214.183 84.5567 214.074 84.6663 214.074 84.776L214.293 86.2017C214.293 86.3114 214.402 86.3114 214.511 86.3114L232.315 83.8986C232.533 83.8986 232.533 83.789 232.533 83.6793L231.659 82.1439C231.659 82.0342 231.441 82.0342 231.659 82.1439Z" fill="#007CFF"/>
<path opacity="0.3" d="M231.659 82.1439L214.293 84.5567C214.183 84.5567 214.074 84.6663 214.074 84.776L214.293 86.2017C214.293 86.3114 214.402 86.3114 214.511 86.3114L232.315 83.8986C232.533 83.8986 232.533 83.789 232.533 83.6793L231.659 82.1439C231.659 82.0342 231.441 82.0342 231.659 82.1439Z" fill="black"/>
<path d="M229.37 84.2277L228.934 82.2536C228.934 82.1439 228.934 82.1439 229.043 82.1439H229.48C229.589 82.1439 229.698 82.2536 229.698 82.2536L230.135 84.2277C230.135 84.3373 230.135 84.3373 230.026 84.3373H229.589C229.48 84.447 229.37 84.447 229.37 84.2277Z" fill="#1A2E35"/>
<path d="M217.79 85.8727L217.354 83.8986C217.354 83.7889 217.354 83.7889 217.463 83.7889H217.9C218.009 83.7889 218.118 83.8986 218.118 83.8986L218.555 85.8727C218.555 85.9824 218.555 85.9824 218.446 85.9824H218.009C217.9 85.9824 217.79 85.8727 217.79 85.8727Z" fill="#1A2E35"/>
</svg>
