<svg width="270" height="203" viewBox="0 0 270 203" fill="none" xmlns="http://www.w3.org/2000/svg">
<path d="M107.78 116.04C107.78 120.852 103.892 124.702 99.0323 124.702H38.4443C33.5843 124.702 29.6963 120.852 29.6963 116.04V47.8062C29.6963 42.9935 33.5843 39.1433 38.4443 39.1433H99.1403C104 39.1433 107.888 42.9935 107.888 47.8062L107.78 116.04Z" fill="#CBCDD2"/>
<path d="M106.918 114.97C106.918 119.783 103.03 123.633 98.17 123.633H37.582C32.722 123.633 28.834 119.783 28.834 114.97V46.7366C28.834 41.9239 32.722 38.0737 37.582 38.0737H98.278C103.138 38.0737 107.026 41.9239 107.026 46.7366L106.918 114.97Z" fill="white"/>
<path d="M106.918 51.0145V46.7366C106.918 41.9239 103.03 38.0737 98.17 38.0737H37.582C32.722 38.0737 28.834 41.9239 28.834 46.7366V51.0145H106.918Z" fill="#0064B7"/>
<path d="M90.1761 47.3782C90.1761 47.806 89.8521 48.1269 89.4201 48.1269H84.6681C84.2361 48.1269 83.9121 47.806 83.9121 47.3782V42.6725C83.9121 42.2447 84.2361 41.9238 84.6681 41.9238H89.4201C89.8521 41.9238 90.1761 42.2447 90.1761 42.6725V47.3782Z" fill="white"/>
<path d="M99.14 47.3782C99.14 47.806 98.816 48.1269 98.384 48.1269H93.632C93.2 48.1269 92.876 47.806 92.876 47.3782V42.6725C92.876 42.2447 93.2 41.9238 93.632 41.9238H98.384C98.816 41.9238 99.14 42.2447 99.14 42.6725V47.3782Z" fill="white"/>
<path d="M79.9189 45.0253C79.9189 46.7365 78.5149 48.1269 76.7869 48.1269H36.7189C34.9909 48.1269 33.5869 46.7365 33.5869 45.0253C33.5869 43.3142 34.9909 41.9238 36.7189 41.9238H76.7869C78.5149 41.9238 79.9189 43.3142 79.9189 45.0253Z" fill="white"/>
<path d="M72.2481 77.5378C72.2481 87.8049 63.8241 96.1469 53.4561 96.1469C43.0881 96.1469 34.6641 87.8049 34.6641 77.5378C34.6641 67.2707 43.0881 58.9287 53.4561 58.9287C63.8241 58.9287 72.2481 67.2707 72.2481 77.5378Z" fill="#E9EEF2"/>
<mask id="mask0_2976_21225" style="mask-type:luminance" maskUnits="userSpaceOnUse" x="34" y="58" width="39" height="39">
<path d="M53.457 96.1469C63.8356 96.1469 72.249 87.8153 72.249 77.5378C72.249 67.2603 63.8356 58.9287 53.457 58.9287C43.0785 58.9287 34.665 67.2603 34.665 77.5378C34.665 87.8153 43.0785 96.1469 53.457 96.1469Z" fill="white"/>
</mask>
<g mask="url(#mask0_2976_21225)">
<path d="M68.035 89.1952C65.443 94.2218 60.043 97.6441 53.887 97.6441C47.731 97.6441 41.683 94.3287 38.875 89.1952C42.763 86.5215 48.271 84.9172 53.455 84.9172C58.855 84.9172 63.823 86.5215 68.035 89.1952Z" fill="#FCBE42"/>
<path d="M58.6685 81.3296C61.4285 78.5497 61.2867 73.9797 58.3519 71.1224C55.417 68.265 50.8004 68.2022 48.0404 70.9821C45.2804 73.762 45.4221 78.332 48.357 81.1894C51.2918 84.0468 55.9084 84.1095 58.6685 81.3296Z" fill="#FCBE42"/>
</g>
<path d="M100.546 60.3191H75.3818V65.0248H100.546V60.3191Z" fill="#DBE9F8"/>
<path d="M100.546 68.4473H75.3818V70.8001H100.546V68.4473Z" fill="#DBE9F8"/>
<path d="M100.546 73.2598H75.3818V75.6126H100.546V73.2598Z" fill="#DBE9F8"/>
<path d="M100.546 78.0725H75.3818V80.4254H100.546V78.0725Z" fill="#DBE9F8"/>
<path d="M100.546 82.8855H75.3818V85.2384H100.546V82.8855Z" fill="#DBE9F8"/>
<path d="M100.546 87.6978H75.3818V90.0506H100.546V87.6978Z" fill="#DBE9F8"/>
<path d="M100.546 92.5107H75.3818V94.8636H100.546V92.5107Z" fill="#DBE9F8"/>
<path d="M100.438 102.457H38.1221V104.81H100.438V102.457Z" fill="#DBE9F8"/>
<path d="M100.438 108.232H38.1221V110.585H100.438V108.232Z" fill="#DBE9F8"/>
<path d="M236.303 72.4043C235.007 70.4792 232.847 69.1958 230.255 69.1958H180.035C176.039 69.1958 172.799 72.4043 172.799 76.3614V79.8907V132.723C172.799 134.649 173.555 136.36 174.743 137.536C176.039 139.461 178.199 140.745 180.791 140.745H231.011C235.007 140.745 238.247 137.536 238.247 133.579V77.217C238.247 75.3988 237.491 73.6877 236.303 72.4043Z" fill="#C3C4CA"/>
<path d="M241.164 132.082C241.164 136.039 237.924 139.247 233.928 139.247H183.708C179.712 139.247 176.472 136.039 176.472 132.082V75.6126C176.472 71.6555 179.712 68.447 183.708 68.447H233.928C237.924 68.447 241.164 71.6555 241.164 75.6126V132.082Z" fill="#CBCDD2"/>
<path d="M240.406 131.119C240.406 135.076 237.166 138.285 233.17 138.285H182.95C178.954 138.285 175.714 135.076 175.714 131.119V74.7571C175.714 70.8 178.954 67.5916 182.95 67.5916H233.278C237.274 67.5916 240.514 70.8 240.514 74.7571L240.406 131.119Z" fill="white"/>
<path d="M240.406 78.2864V74.7571C240.406 70.8 237.166 67.5916 233.17 67.5916H182.95C178.954 67.5916 175.714 70.8 175.714 74.7571V78.2864H240.406Z" fill="#0064B5"/>
<path d="M226.582 75.2916C226.582 75.6125 226.366 75.8264 226.042 75.8264H222.154C221.83 75.8264 221.614 75.6125 221.614 75.2916V71.4415C221.614 71.1206 221.83 70.9067 222.154 70.9067H226.042C226.366 70.9067 226.582 71.1206 226.582 71.4415V75.2916Z" fill="white"/>
<path d="M234.031 75.2916C234.031 75.6125 233.815 75.8264 233.491 75.8264H229.603C229.279 75.8264 229.063 75.6125 229.063 75.2916V71.4415C229.063 71.1206 229.279 70.9067 229.603 70.9067H233.491C233.815 70.9067 234.031 71.1206 234.031 71.4415V75.2916Z" fill="white"/>
<path d="M218.05 73.3668C218.05 74.7572 216.862 75.9336 215.458 75.9336H182.302C180.898 75.9336 179.71 74.7572 179.71 73.3668C179.71 71.9765 180.898 70.8 182.302 70.8H215.458C216.97 70.8 218.05 71.9765 218.05 73.3668Z" fill="white"/>
<path d="M211.786 100.211C211.786 108.66 204.874 115.612 196.234 115.612C187.702 115.612 180.682 108.767 180.682 100.211C180.682 91.762 187.594 84.8103 196.234 84.8103C204.766 84.8103 211.786 91.762 211.786 100.211Z" fill="#E9EEF2"/>
<mask id="mask1_2976_21225" style="mask-type:luminance" maskUnits="userSpaceOnUse" x="180" y="84" width="32" height="32">
<path d="M196.234 115.612C204.823 115.612 211.786 108.716 211.786 100.211C211.786 91.7054 204.823 84.8103 196.234 84.8103C187.645 84.8103 180.682 91.7054 180.682 100.211C180.682 108.716 187.645 115.612 196.234 115.612Z" fill="white"/>
</mask>
<g mask="url(#mask1_2976_21225)">
<path d="M209.302 107.804C206.926 112.403 202.066 115.505 196.45 115.505C190.834 115.505 185.326 112.403 182.734 107.804C186.298 105.344 191.266 103.847 196.018 103.847C200.986 103.954 205.522 105.344 209.302 107.804Z" fill="#EE384E"/>
<path d="M200.777 100.664C203.286 98.1363 203.148 93.9727 200.468 91.3638C197.789 88.7549 193.583 88.6886 191.073 91.2158C188.564 93.743 188.703 97.9067 191.382 100.516C194.062 103.125 198.268 103.191 200.777 100.664Z" fill="#EE384E"/>
</g>
<path d="M235.114 85.9871H214.27V89.8372H235.114V85.9871Z" fill="#DBE9F8"/>
<path d="M235.114 92.6177H214.27V94.5428H235.114V92.6177Z" fill="#DBE9F8"/>
<path d="M235.114 98.6067H229.174H214.27V96.6816H235.114V98.6067Z" fill="#DBE9F8"/>
<path d="M235.114 100.639H214.27V102.564H235.114V100.639Z" fill="#DBE9F8"/>
<path d="M235.114 104.596H214.27V106.521H235.114V104.596Z" fill="#DBE9F8"/>
<path d="M235.114 108.66H214.27V110.585H235.114V108.66Z" fill="#DBE9F8"/>
<path d="M235.114 112.617H214.27V114.542H235.114V112.617Z" fill="#DBE9F8"/>
<path d="M235.221 120.745H183.597V122.67H235.221V120.745Z" fill="#DBE9F8"/>
<path d="M235.221 125.665H183.597V127.59H235.221V125.665Z" fill="#DBE9F8"/>
<path d="M194.187 5.02651C193.107 3.42227 191.271 2.35278 189.219 2.35278H147.747C144.399 2.35278 141.807 5.02651 141.807 8.23497V11.2295V54.9716C141.807 56.5759 142.455 57.9662 143.427 59.0357C144.507 60.6399 146.343 61.7094 148.395 61.7094H189.867C193.215 61.7094 195.807 59.0357 195.807 55.8272V8.98361C195.807 7.48633 195.159 5.98905 194.187 5.02651Z" fill="#D7D9DD"/>
<path d="M198.074 53.3677C198.074 56.6831 195.374 59.2498 192.134 59.2498H150.662C147.314 59.2498 144.722 56.5761 144.722 53.3677V6.63097C144.722 3.31555 147.422 0.748779 150.662 0.748779H192.134C195.482 0.748779 198.074 3.4225 198.074 6.63097V53.3677Z" fill="#CBCDD2"/>
<path d="M197.536 52.6189C197.536 55.9343 194.836 58.5011 191.596 58.5011H150.124C146.776 58.5011 144.184 55.8273 144.184 52.6189V5.88219C144.184 2.56677 146.884 0 150.124 0H191.596C194.944 0 197.536 2.67372 197.536 5.88219V52.6189Z" fill="white"/>
<path d="M197.536 8.87676V5.88219C197.536 2.56677 194.836 0 191.596 0H150.124C146.776 0 144.184 2.67372 144.184 5.88219V8.87676H197.536Z" fill="#0064B5"/>
<path d="M186.088 6.41704C186.088 6.63094 185.872 6.95178 185.548 6.95178H182.308C182.092 6.95178 181.768 6.73789 181.768 6.41704V3.20857C181.768 2.99467 181.984 2.67383 182.308 2.67383H185.548C185.764 2.67383 186.088 2.88773 186.088 3.20857V6.41704Z" fill="white"/>
<path d="M192.246 6.41704C192.246 6.63094 192.03 6.95178 191.706 6.95178H188.466C188.25 6.95178 187.926 6.73789 187.926 6.41704V3.20857C187.926 2.99467 188.142 2.67383 188.466 2.67383H191.706C191.922 2.67383 192.246 2.88773 192.246 3.20857V6.41704Z" fill="white"/>
<path d="M179.067 4.81281C179.067 5.98924 178.095 6.95178 176.907 6.95178H149.583C148.395 6.95178 147.423 5.98924 147.423 4.81281C147.423 3.63637 148.395 2.67383 149.583 2.67383H176.907C178.095 2.67383 179.067 3.63637 179.067 4.81281Z" fill="white"/>
<path d="M173.774 26.951C173.774 34.0097 168.05 39.678 160.922 39.678C153.794 39.678 148.07 34.0097 148.07 26.951C148.07 19.8924 153.794 14.2241 160.922 14.2241C168.05 14.3311 173.774 19.9994 173.774 26.951Z" fill="#E9EEF2"/>
<mask id="mask2_2976_21225" style="mask-type:luminance" maskUnits="userSpaceOnUse" x="148" y="14" width="26" height="26">
<path d="M173.774 26.951C173.774 34.0097 168.05 39.678 160.922 39.678C153.794 39.678 148.07 34.0097 148.07 26.951C148.07 19.8924 153.794 14.2241 160.922 14.2241C168.05 14.3311 173.774 19.9994 173.774 26.951Z" fill="white"/>
</mask>
<g mask="url(#mask2_2976_21225)">
<path d="M171.939 33.9024C169.995 37.6456 165.999 40.3194 161.355 40.3194C156.711 40.3194 152.175 37.7526 150.123 34.0094C153.039 31.9773 157.143 30.8009 161.031 30.8009C165.027 30.694 168.699 31.8704 171.939 33.9024Z" fill="#0064E1"/>
<path d="M164.928 28.0593C167.019 25.9533 166.921 22.5004 164.709 20.347C162.498 18.1936 159.01 18.1552 156.919 20.2612C154.828 22.3672 154.926 25.8201 157.138 27.9735C159.349 30.1269 162.837 30.1653 164.928 28.0593Z" fill="#0064E1"/>
</g>
<path d="M193.11 15.1868H175.938V18.3952H193.11V15.1868Z" fill="#DBE9F8"/>
<path d="M193.11 20.748H175.938V22.3523H193.11V20.748Z" fill="#DBE9F8"/>
<path d="M193.11 24.0635H175.938V25.6677H193.11V24.0635Z" fill="#DBE9F8"/>
<path d="M193.11 27.3789H175.938V28.9831H193.11V27.3789Z" fill="#DBE9F8"/>
<path d="M193.11 30.6943H175.938V32.2986H193.11V30.6943Z" fill="#DBE9F8"/>
<path d="M193.11 34.0098H175.938V35.614H193.11V34.0098Z" fill="#DBE9F8"/>
<path d="M193.11 37.2183H175.938V38.8225H193.11V37.2183Z" fill="#DBE9F8"/>
<path d="M193.107 44.0627H150.447V45.667H193.107V44.0627Z" fill="#DBE9F8"/>
<path d="M193.107 48.0203H150.447V49.6245H193.107V48.0203Z" fill="#DBE9F8"/>
<path d="M270 201.278H0V202.347H270V201.278Z" fill="#AEACAC"/>
<path d="M125.28 101.709C125.28 101.709 125.604 107.163 122.904 110.051C120.204 113.045 115.776 118.5 115.776 118.5C115.776 118.5 122.472 128.66 135.648 127.27C148.716 125.879 151.2 116.468 151.2 116.468C151.2 116.468 138.888 115.077 137.052 103.099C135.648 91.5486 133.488 91.5486 133.488 91.5486L125.28 101.709Z" fill="#FFBE9B"/>
<path d="M115.776 75.3991C115.776 75.3991 116.532 90.7997 123.228 102.457C130.68 114.008 138.78 107.698 142.344 101.709C145.908 95.7194 154.656 75.3991 152.604 71.2281C150.444 65.9876 124.632 63.8486 124.632 63.8486L115.776 75.3991Z" fill="#FFBE9B"/>
<path d="M149.687 84.1684C149.687 84.1684 153.251 81.2808 153.251 84.1684C153.251 87.056 151.091 91.5479 148.607 91.5479C146.447 92.2965 146.447 90.7992 147.203 88.6603C148.391 87.056 149.687 84.1684 149.687 84.1684Z" fill="#FFBE9B"/>
<path d="M117.179 89.73C117.935 90.4786 119.339 90.4786 119.339 88.9813C119.339 86.0937 117.179 81.6018 114.695 81.6018C112.535 80.8532 112.535 82.3505 113.291 84.4895C113.291 85.2381 113.291 85.8798 114.047 86.6284C115.019 87.6979 116.531 89.73 117.179 89.73Z" fill="#FFBE9B"/>
<path d="M116.532 82.4576L115.776 77.8588C115.776 77.8588 120.42 78.6075 124.632 73.26C124.632 73.26 134.244 75.399 141.588 74.6504C149.796 73.9017 152.496 71.7627 152.496 71.7627C152.496 71.7627 151.092 80.5326 149.58 83.3132C149.58 83.3132 153.144 81.9229 154.872 77.3241C156.276 72.7253 156.276 68.5543 156.276 68.5543C156.276 68.5543 161.568 63.9555 162.972 59.7845C162.972 59.7845 148.824 56.2552 144.612 53.7953C139.968 50.9077 137.916 49.1965 137.916 49.1965C137.916 49.1965 131.22 45.6672 124.848 50.5869C118.476 55.5065 113.94 58.715 113.94 67.3778C114.372 67.3778 107.568 76.0407 116.532 82.4576Z" fill="#1A1455"/>
<path d="M83.2666 182.027C84.6706 184.915 87.1546 187.161 89.7466 188.765C90.2866 189.086 90.9346 189.514 91.4746 189.727C92.5546 190.476 93.7426 191.118 94.9306 191.866C95.5786 192.187 96.3346 192.722 96.9826 193.043C97.5226 193.364 98.3866 193.257 98.6026 192.615C98.8186 191.866 98.1706 191.332 97.6306 190.904C97.1986 190.583 96.6586 190.048 96.2266 189.727C95.2546 188.872 94.3906 188.123 93.3106 187.268C93.0946 187.054 92.9866 186.947 92.6626 186.733C92.9866 186.947 93.0946 187.054 93.4186 187.268C94.0666 187.695 94.6066 188.23 95.2546 188.551C96.0106 189.086 96.8746 189.62 97.5226 190.155C98.2786 190.69 99.0346 191.225 99.7906 191.759C100.331 192.08 100.763 192.615 101.411 192.829C101.843 193.15 102.707 193.257 103.031 192.829C103.247 192.508 103.247 192.187 103.247 191.866C103.247 191.546 102.923 190.904 102.599 190.797C102.275 190.476 102.059 190.369 101.843 190.048C101.195 189.3 100.331 188.658 99.5746 188.016C98.7106 187.268 97.9546 186.626 97.0906 185.877C96.3346 185.343 95.6866 184.808 94.9306 184.166C94.6066 183.845 94.2826 183.631 93.9586 183.311L103.787 190.904C104.435 191.439 106.055 192.294 106.811 191.225C107.135 190.904 106.919 190.048 106.703 189.62C106.487 189.193 106.055 188.872 105.731 188.658C104.975 188.016 104.327 187.375 103.571 186.733C101.951 185.449 100.547 184.166 98.9266 182.99C98.6026 182.669 98.2786 182.455 97.9546 182.134C99.0346 183.097 100.439 183.952 101.627 184.915C103.139 185.877 104.003 186.733 105.191 187.375C105.515 187.588 105.947 187.802 106.271 187.802C106.811 187.802 107.459 187.695 107.783 187.268C108.107 186.733 107.783 185.663 107.243 185.236C104.327 182.776 102.275 181.065 99.6826 179.46C99.6826 179.46 97.4146 178.07 97.1986 177.856C97.1986 177.856 101.519 180.209 104.435 179.674C104.435 179.674 108.215 177.856 102.167 176.573C102.167 176.573 98.7106 174.968 96.5506 174.006C96.5506 174.006 92.3386 171.76 87.4786 173.257C87.4786 173.257 83.4826 170.797 82.5106 169.942L78.7306 174.862C78.5146 174.755 82.2946 179.888 83.2666 182.027Z" fill="#FFBE9B"/>
<path d="M180.038 177.107C180.362 180.316 179.174 183.524 177.77 186.091C177.446 186.626 177.122 187.267 176.798 187.802C176.15 188.979 175.502 190.048 174.854 191.332C174.53 191.973 174.098 192.722 173.666 193.364C173.342 193.898 172.586 194.326 172.046 193.684C171.506 193.043 171.722 192.294 172.046 191.759C172.262 191.225 172.37 190.583 172.586 190.048C173.018 188.872 173.45 187.695 173.774 186.412C173.882 186.091 173.99 185.877 174.098 185.556C173.99 185.877 173.774 186.091 173.774 186.412C173.45 187.054 173.126 187.802 172.802 188.444C172.478 189.299 171.938 190.155 171.614 191.011C171.29 191.866 170.858 192.615 170.534 193.47C170.21 194.005 169.994 194.647 169.67 195.182C169.346 195.609 168.698 196.144 168.158 196.037C167.834 195.93 167.726 195.609 167.51 195.289C167.294 194.968 167.402 194.326 167.51 194.005C167.618 193.684 167.726 193.364 167.834 193.043C168.158 192.08 168.374 191.118 168.806 190.155C169.13 189.193 169.562 188.123 169.886 187.16C170.21 186.305 170.534 185.556 170.858 184.594C171.074 184.273 171.182 183.738 171.29 183.417L166.538 194.861C166.214 195.609 165.242 197.107 164.162 196.465C163.838 196.251 163.406 195.503 163.406 194.968C163.406 194.54 163.622 194.005 163.73 193.577C164.054 192.615 164.27 191.759 164.702 190.797C165.458 188.979 166.106 187.054 166.862 185.235C167.078 184.915 167.186 184.38 167.294 184.059C166.862 185.449 166.106 186.947 165.458 188.23C164.702 189.834 164.27 191.011 163.622 192.187C163.406 192.508 163.298 192.936 162.974 193.15C162.542 193.47 161.894 193.577 161.462 193.47C160.922 193.15 160.706 192.08 160.922 191.438C162.218 187.802 163.19 185.342 164.594 182.669C164.594 182.669 165.89 180.423 165.998 180.102C165.998 180.102 163.406 184.38 160.598 185.235C160.598 185.235 156.386 185.449 161.03 181.385C161.03 181.385 163.298 178.391 164.702 176.466C164.702 176.466 167.186 172.508 172.262 171.439C172.262 171.439 174.53 167.375 174.962 166.092L183.17 169.621C183.062 169.621 179.822 174.754 180.038 177.107Z" fill="#FFBE9B"/>
<path d="M186.732 164.594L175.068 134.221C172.476 126.734 165.78 122.136 158.868 119.355C155.088 117.751 151.308 116.36 147.528 114.756C134.784 128.446 118.908 114.756 118.908 114.756C116.64 116.039 114.156 117.323 111.888 118.606C105.408 122.243 97.6317 124.809 93.6357 131.547L74.8438 163.953C74.8438 163.953 76.4637 176.038 81.3237 179.246C81.3237 179.246 82.7277 171.76 92.6637 172.936L91.0437 165.343L107.46 148.659L110.052 176.893H154.008L157.464 148.659L171.288 164.487L165.024 175.503C175.392 171.225 179.82 178.284 179.82 178.284C179.82 178.284 185.22 171.867 186.732 164.594Z" fill="#EE384E"/>
<path opacity="0.6" d="M118.8 114.756L113.724 117.537C113.724 117.537 122.688 125.665 131.976 125.665C132.084 125.665 132.192 125.665 132.3 125.665C141.696 125.558 148.284 122.884 151.74 116.467L147.42 114.756C147.42 114.756 140.292 120.959 134.136 120.852C134.244 120.959 127.656 121.173 118.8 114.756Z" fill="#606060"/>
<path d="M168.156 190.262C168.156 191.973 166.752 193.364 165.024 193.364H97.632C95.904 193.364 94.5 191.973 94.5 190.262V141.494C94.5 139.782 95.904 138.392 97.632 138.392H165.024C166.752 138.392 168.156 139.782 168.156 141.494V190.262Z" fill="#023EA1"/>
<path d="M95.3672 142.242V169.407C95.3672 181.813 96.7712 191.866 98.4992 191.866H164.163C165.891 191.866 167.295 181.813 167.295 169.407V142.242H95.3672Z" fill="#0064B7"/>
<path d="M115.667 192.615H105.407V194.968H115.667V192.615Z" fill="#023EA1"/>
<path d="M155.413 192.615H145.153V194.968H155.413V192.615Z" fill="#023EA1"/>
<path d="M86.9414 195.931H176.041C176.041 195.931 174.853 199.781 172.585 201.278H94.9334C94.9334 201.278 87.6974 200.529 86.9414 195.931Z" fill="#033E9D"/>
</svg>
