<svg width="270" height="184" viewBox="0 0 270 184" fill="none" xmlns="http://www.w3.org/2000/svg">
<path d="M19.8682 105.869L24.0534 177.278H30.3313C30.3313 177.278 31.8085 155.507 32.1778 149.038C32.547 142.693 35.1321 106.242 35.1321 106.242L19.8682 105.869Z" fill="#DE051F"/>
<path d="M27.9898 105.744C28.4822 115.448 25.5279 132.492 21.835 143.937C18.019 155.382 7.18658 174.789 7.18658 174.789L2.13965 171.804C2.13965 171.804 5.09395 164.091 7.18658 156.875C9.15611 149.908 12.7259 133.86 12.4797 129.257C12.1104 124.53 11.3718 106.242 11.3718 106.242L27.9898 105.744Z" fill="#EE384E"/>
<path d="M34.2686 84.2224L34.5147 85.8397C34.5147 85.8397 39.1924 90.9403 41.285 92.8064C43.3776 94.7969 46.5781 92.9308 46.5781 92.9308C46.5781 92.9308 55.9334 87.7058 57.1644 86.8349C58.5184 85.9641 59.1339 86.0885 59.1339 86.0885C59.1339 86.0885 59.9956 86.0885 61.1035 86.0885C61.9651 86.0885 61.7189 85.4665 61.7189 85.4665C61.7189 85.4665 61.7189 83.3516 61.7189 81.9831C61.7189 80.6147 60.488 80.6147 60.488 80.6147L58.5184 80.4903C58.5184 80.4903 58.6415 79.2462 58.3953 78.873C58.1492 78.4998 57.7799 78.251 57.2875 78.251C56.672 78.251 57.0413 78.7486 57.0413 78.7486C57.0413 78.7486 57.0413 78.9974 57.2875 79.6194C57.4106 80.2415 57.1644 80.2415 56.9182 80.4903C56.672 80.7391 56.5489 80.9879 56.3027 82.1075C56.0565 83.2272 54.7025 83.8492 54.7025 83.8492C54.7025 83.8492 45.5934 87.2082 44.6086 87.457C43.7469 87.7058 43.2546 87.2082 43.2546 87.2082L38.4538 80.6147L34.2686 84.2224Z" fill="#EEBD98"/>
<path d="M26.6385 64.0688C26.6385 64.0688 26.6385 64.0688 26.6385 67.5522C26.6385 71.0355 29.9621 73.648 29.9621 73.648C29.9621 73.648 29.9621 75.8873 26.5154 76.6338C23.0688 77.2558 19.6221 73.1504 19.6221 73.1504C19.6221 73.1504 20.1145 71.9064 21.2223 69.045C22.3302 66.0593 22.8226 63.3224 22.8226 63.3224L26.6385 64.0688Z" fill="#EBB28E"/>
<path d="M30.9456 81.3611L34.2691 85.2176L39.0699 80.4902C39.0699 80.4902 35.6232 76.3849 34.3922 75.3896C33.1613 74.5188 30.3301 72.7771 30.3301 72.7771L30.9456 81.3611Z" fill="#0064B7"/>
<path d="M19.2533 71.4086C19.2533 71.4086 18.6379 72.0306 15.9297 75.3896C13.4678 78.7485 10.8828 94.6724 10.8828 94.6724L11.129 106.74H35.0096C35.0096 106.74 35.2558 98.4046 35.0096 90.6914C34.7634 83.1027 34.3941 79.6193 33.1632 77.2556C31.9322 74.8919 30.7012 73.2747 29.8396 72.6526C29.2241 72.0306 28.4855 72.5282 28.4855 72.5282L27.9931 73.2747C27.9931 73.2747 26.8853 75.1407 24.5465 74.5187C22.0845 74.0211 20.4843 71.533 20.4843 71.533C19.8688 70.6622 19.2533 71.4086 19.2533 71.4086Z" fill="#0083F9"/>
<path d="M27.1319 55.2359C24.67 55.2359 21.9619 60.4609 21.9619 62.7002C21.9619 64.9395 23.0698 64.9395 23.5622 66.1835C24.0545 67.4276 27.6243 68.6716 29.2246 68.6716C30.8248 68.6716 31.6865 65.6859 31.6865 61.7049C31.6865 57.724 29.8401 55.1115 29.8401 55.1115C29.8401 55.1115 29.2246 55.2359 27.1319 55.2359Z" fill="#EEBD98"/>
<path d="M28.1137 56.4799C25.898 56.9776 25.6518 56.9776 24.667 58.0972C23.5592 59.2169 23.0668 62.2026 23.0668 62.2026C23.0668 62.2026 22.6975 63.8199 22.4513 64.6907C22.082 65.4371 21.8358 66.5568 21.8358 67.1788C21.7127 67.8008 21.2203 67.8008 20.6049 67.8008C20.1125 67.8008 19.0046 67.1788 17.6506 64.8151C16.4196 62.327 16.912 59.9633 17.0351 59.5901C17.6506 58.346 17.6506 56.1067 17.6506 55.4847C17.6506 54.8627 17.6506 54.2406 18.8815 52.9966C19.9894 51.7525 25.7749 51.7525 25.7749 51.7525C26.3904 51.7525 27.6213 51.7525 28.2368 51.1305C28.8523 50.5085 31.1911 49.2644 32.299 49.8864C33.4068 50.5085 31.8066 55.1115 31.8066 55.1115C31.068 57.102 30.5756 55.7335 28.1137 56.4799Z" fill="#1A1155"/>
<path d="M21.9619 61.0829C21.9619 62.949 23.5622 62.3269 23.5622 62.3269C23.5622 62.3269 24.67 60.4609 23.8084 59.59C23.0698 58.4704 21.9619 59.3412 21.9619 61.0829Z" fill="#EEBD98"/>
<path d="M19.8696 85.8397C19.8696 85.8397 17.9 87.8302 16.546 93.6773C14.9457 99.6487 16.2998 107.486 17.2845 111.343C18.5155 115.324 19.8696 117.439 21.1005 118.683C22.3315 119.927 21.1005 119.927 19.7465 119.18C18.3924 118.434 19.3772 119.802 19.3772 119.802C19.3772 119.802 20.9774 120.673 21.8391 121.793C22.5777 122.664 21.4698 122.664 21.4698 122.664C21.8391 123.286 20.8543 123.286 20.8543 123.286C21.1005 124.53 19.6234 123.908 19.6234 123.908C19.6234 123.908 18.7617 123.286 17.5307 122.042C16.2998 120.798 15.4381 118.558 15.4381 116.568C15.315 114.577 14.8226 113.582 13.4686 110.596C12.2376 107.237 10.7605 102.883 10.2681 97.5338C9.89879 92.3088 12.1145 83.8492 12.1145 83.8492L19.8696 85.8397Z" fill="#EEBD98"/>
<path d="M2.26496 171.306C2.26496 171.306 0.664718 173.546 0.172334 174.665C-0.443145 175.785 0.787814 176.531 0.787814 176.531C0.787814 176.531 10.02 182.627 11.7433 183.498C13.4667 184.369 11.9895 181.881 11.9895 181.881C11.9895 181.881 10.8817 180.761 9.77381 179.268C8.54286 177.651 7.3119 174.416 7.3119 174.416L2.26496 171.306Z" fill="#1A1155"/>
<path d="M24.0519 176.531H30.3298C30.3298 177.651 30.8222 177.775 30.8222 177.775C30.8222 177.775 36.3615 180.263 38.3311 181.259C40.3006 182.005 38.208 182.627 38.208 182.627C38.208 182.627 27.4986 182.627 25.5291 182.627C23.5595 182.627 23.9288 181.756 23.9288 181.756L24.0519 176.531Z" fill="#1A1155"/>
<path d="M19.6202 86.835C18.0199 86.835 12.1113 84.3469 12.1113 84.3469C12.1113 84.3469 12.6037 82.4808 13.5885 80.1171C14.4502 77.629 16.2966 74.0213 19.1278 74.3945C21.8359 74.7677 21.5897 78.6243 21.5897 78.6243C21.0973 82.4808 19.7433 86.7106 19.6202 86.835Z" fill="#0064B7"/>
<path d="M231.595 42.92C246.612 39.1878 261.876 48.6426 265.323 63.8201C269.016 78.9975 259.661 94.4238 244.643 97.9072" stroke="#2A2AD5" stroke-miterlimit="10" stroke-dasharray="6 6"/>
<path d="M264.339 66.93C267.466 66.93 270.002 64.3679 270.002 61.2074C270.002 58.0469 267.466 55.4847 264.339 55.4847C261.212 55.4847 258.677 58.0469 258.677 61.2074C258.677 64.3679 261.212 66.93 264.339 66.93Z" fill="#FCBE42"/>
<path d="M266.922 61.2075L263.599 58.3462L263.229 62.576" stroke="white" stroke-miterlimit="10"/>
<path d="M247.961 18.9095C247.961 18.9095 247.838 18.7851 247.715 18.9095L245.869 19.1583C245.622 19.1583 245.376 19.0339 245.376 18.9095C245.253 18.0387 244.761 17.1678 244.515 16.5458C244.391 16.4214 244.515 16.0482 244.638 15.9238L246.115 14.9285C246.115 14.9285 246.238 14.8041 246.238 14.6797C246.238 14.5553 246.238 14.5553 246.115 14.4309L244.145 12.4404C244.145 12.4404 244.022 12.316 243.899 12.316C243.776 12.316 243.776 12.316 243.653 12.4404L242.668 13.9333C242.545 14.0577 242.176 14.1821 242.053 14.0577C241.314 13.5601 240.452 13.3113 239.714 13.1869C239.468 13.1869 239.468 12.9381 239.468 12.6892L239.714 10.8232C239.714 10.6988 239.714 10.6988 239.714 10.5744C239.714 10.5744 239.591 10.45 239.468 10.45H236.636C236.513 10.45 236.513 10.45 236.39 10.5744C236.39 10.5744 236.267 10.6988 236.39 10.8232L236.636 12.6892C236.636 12.9381 236.513 13.1869 236.39 13.1869C235.529 13.3113 234.667 13.8089 234.051 14.0577C233.928 14.1821 233.559 14.0577 233.436 13.9333L232.451 12.4404C232.451 12.4404 232.328 12.316 232.205 12.316C232.082 12.316 232.082 12.316 231.959 12.4404L229.989 14.4309C229.989 14.4309 229.866 14.5553 229.866 14.6797C229.866 14.8041 229.866 14.8041 229.989 14.9285L231.466 15.9238C231.589 16.0482 231.713 16.4214 231.589 16.5458C231.097 17.2923 230.851 18.1631 230.728 18.9095C230.728 19.1583 230.482 19.1583 230.235 19.1583L228.389 18.9095C228.266 18.9095 228.266 18.9095 228.143 18.9095C228.143 18.9095 228.02 19.0339 228.02 19.1583V22.0197C228.02 22.1441 228.02 22.1441 228.143 22.2685C228.143 22.2685 228.266 22.3929 228.389 22.2685L230.235 22.0197C230.482 22.0197 230.728 22.1441 230.728 22.2685C230.851 23.1393 231.343 24.0101 231.589 24.6322C231.713 24.7566 231.589 25.1298 231.466 25.2542L229.989 26.2494C229.989 26.2494 229.866 26.3738 229.866 26.4983C229.866 26.6227 229.866 26.6227 229.989 26.7471L231.959 28.7376C231.959 28.7376 232.082 28.862 232.205 28.862C232.328 28.862 232.328 28.862 232.451 28.7376L233.436 27.2447C233.559 27.1203 233.928 26.9959 234.051 27.1203C234.79 27.6179 235.652 27.8667 236.39 27.9911C236.636 27.9911 236.636 28.2399 236.636 28.4887L236.39 30.3548C236.39 30.4792 236.39 30.4792 236.39 30.6036C236.39 30.6036 236.513 30.728 236.636 30.728H239.468C239.591 30.728 239.591 30.728 239.714 30.6036C239.714 30.6036 239.837 30.4792 239.714 30.3548L239.468 28.4887C239.468 28.2399 239.591 27.9911 239.714 27.9911C240.575 27.8667 241.437 27.3691 242.053 27.1203C242.176 26.9959 242.545 27.1203 242.668 27.2447L243.653 28.7376C243.653 28.7376 243.776 28.862 243.899 28.862C244.022 28.862 244.022 28.862 244.145 28.7376L246.115 26.7471C246.115 26.7471 246.238 26.6227 246.238 26.4983C246.238 26.3738 246.238 26.3738 246.115 26.2494L244.638 25.2542C244.515 25.1298 244.391 24.7566 244.515 24.6322C245.007 23.8857 245.253 23.0149 245.376 22.2685C245.376 22.0197 245.622 22.0197 245.869 22.0197L247.715 22.2685C247.838 22.2685 247.838 22.2685 247.961 22.2685C247.961 22.2685 248.084 22.1441 248.084 22.0197V19.1583C248.084 19.0339 248.084 18.9095 247.961 18.9095ZM247.346 21.6464L245.869 21.522C245.253 21.522 244.761 21.7708 244.761 22.3929C244.638 23.1393 244.268 23.8857 243.899 24.5078C243.653 25.1298 243.776 25.6274 244.145 26.125L245.13 26.8715L243.653 28.3643L242.914 27.3691C242.668 26.8715 241.93 26.7471 241.314 27.1203C240.699 27.6179 239.837 27.8667 239.221 27.9911C238.606 28.1155 238.36 28.7375 238.36 29.1108L238.483 30.6036H236.513L236.636 29.1108C236.636 28.4887 236.39 27.9911 235.775 27.9911C235.036 27.8667 234.298 27.4935 233.682 27.1203C233.067 26.8715 232.574 26.9959 232.082 27.3691L231.343 28.3643L229.866 26.8715L230.851 26.125C231.343 25.8762 231.466 25.1298 231.097 24.5078C230.605 23.8857 230.359 23.0149 230.235 22.3929C230.112 21.7708 229.497 21.522 229.128 21.522L227.65 21.6464V19.5315L229.128 19.656C229.743 19.656 230.235 19.4071 230.235 18.7851C230.359 18.0387 230.728 17.2922 231.097 16.6702C231.343 16.0482 231.22 15.5506 230.851 15.053L229.866 14.3065L231.343 12.8137L232.082 13.8089C232.328 14.3065 233.067 14.4309 233.682 14.0577C234.298 13.5601 235.159 13.3113 235.775 13.1869C236.39 13.0625 236.636 12.4404 236.636 12.0672L236.513 10.5744H238.483L238.36 12.0672C238.36 12.6893 238.606 13.1869 239.221 13.1869C239.96 13.3113 240.699 13.6845 241.314 14.0577C241.93 14.3065 242.422 14.1821 242.914 13.8089L243.653 12.8137L245.13 14.3065L244.145 15.1774C243.653 15.4262 243.53 16.1726 243.899 16.7946C244.391 17.4167 244.638 18.2875 244.761 18.9095C244.884 19.5315 245.499 19.7804 245.869 19.7804L247.346 19.656V21.6464Z" fill="#2440AB"/>
<path d="M237.374 15.675C234.666 15.675 232.327 18.0387 232.327 20.7757C232.327 23.5126 234.666 25.8763 237.374 25.8763C240.082 25.8763 242.421 23.5126 242.421 20.7757C242.421 17.9143 240.205 15.675 237.374 15.675ZM237.374 24.881C235.035 24.881 233.066 22.8906 233.066 20.5269C233.066 18.1632 235.035 16.1727 237.374 16.1727C239.713 16.1727 241.682 18.1632 241.682 20.5269C241.682 22.8906 239.713 24.881 237.374 24.881Z" fill="#2440AB"/>
<path d="M154.778 5.22503L153.67 5.34943C153.547 5.34943 153.424 5.34943 153.424 5.22503C153.301 4.72741 153.178 4.35419 152.809 3.73216C152.809 3.60776 152.809 3.48335 152.809 3.48335L153.547 2.86133V2.73692L152.563 1.24405H152.439H152.316L151.701 1.99049C151.701 2.11489 151.455 2.11489 151.455 1.99049C150.962 1.74168 150.593 1.49287 149.977 1.36846C149.854 1.36846 149.731 1.24405 149.854 1.11965L149.977 0.124406V0H149.854H148.008H147.885V0.124406L148.008 1.11965C148.008 1.24405 148.008 1.36846 147.885 1.36846C147.392 1.49287 147.023 1.61727 146.408 1.99049C146.285 1.99049 146.162 1.99049 146.162 1.99049L145.546 1.24405H145.423H145.177L144.069 2.3637V2.61251V2.86133L144.807 3.48335C144.931 3.48335 144.931 3.73216 144.807 3.73216C144.561 4.22978 144.315 4.603 144.192 5.22503C144.192 5.34943 144.069 5.47384 143.946 5.34943L142.961 5.22503H142.715V5.34943V7.09111V7.21551H142.838L143.823 7.09111C143.946 7.09111 144.069 7.09111 144.069 7.21551C144.192 7.71314 144.315 8.08635 144.684 8.70838C144.684 8.83278 144.684 8.95719 144.684 8.95719L143.946 9.57922V9.70362V9.82803L145.054 10.9477H145.177H145.3L145.915 10.2012C145.915 10.0768 146.162 10.0768 146.162 10.2012C146.654 10.4501 147.023 10.6989 147.639 10.8233C147.762 10.8233 147.885 10.9477 147.762 11.0721L147.639 12.0673V12.1917H147.762H149.485H149.608V11.9429L149.485 10.9477C149.485 10.8233 149.485 10.6989 149.608 10.6989C150.101 10.5745 150.47 10.4501 151.085 10.0768C151.208 10.0768 151.332 10.0768 151.332 10.0768L151.947 10.8233H152.07H152.193L153.301 9.70362V9.45481V9.3304L152.563 8.70838C152.439 8.70838 152.439 8.45957 152.563 8.45957C152.809 7.96195 153.055 7.58873 153.178 6.9667C153.178 6.8423 153.301 6.71789 153.424 6.8423L154.409 6.9667H154.532V6.8423L154.778 5.22503C154.901 5.34943 154.901 5.34943 154.778 5.22503ZM154.532 6.71789L153.67 6.59349C153.424 6.59349 153.055 6.71789 152.932 7.21551C152.809 7.71314 152.686 8.08635 152.316 8.33516C152.193 8.58397 152.193 8.95719 152.439 9.206L153.055 9.70362L152.193 10.5745L151.701 9.95243C151.455 9.70362 151.085 9.70362 150.839 9.82803C150.593 10.0768 150.101 10.3256 149.731 10.4501C149.485 10.4501 149.116 10.9477 149.116 11.1965L149.239 12.0673H148.131L148.254 11.1965C148.254 10.9477 148.131 10.5745 147.639 10.4501C147.146 10.3256 146.777 10.2012 146.531 9.82803C146.285 9.70362 145.915 9.70362 145.669 9.95243L145.177 10.5745L144.315 9.70362L144.931 9.206C145.177 8.95719 145.177 8.58397 145.054 8.33516C144.807 8.08635 144.561 7.58873 144.438 7.21551C144.438 6.9667 143.946 6.59349 143.7 6.59349L142.838 6.71789V5.59824L143.7 5.72265C143.946 5.72265 144.315 5.59824 144.438 5.10062C144.561 4.603 144.684 4.22978 145.054 3.98097C145.177 3.73216 145.177 3.35895 144.931 3.11013L144.315 2.61251L145.177 1.74168L145.669 2.3637C145.915 2.61251 146.285 2.61251 146.531 2.48811C146.777 2.2393 147.269 1.99049 147.639 1.86608C147.885 1.86608 148.254 1.36846 148.254 1.11965L148.131 0.373218H149.239L149.116 1.24405C149.116 1.49286 149.239 1.86608 149.731 1.99049C150.224 2.11489 150.593 2.2393 150.839 2.61251C151.085 2.73692 151.455 2.73692 151.701 2.48811L152.193 1.86608L153.055 2.73692L152.439 3.23454C152.193 3.48335 152.193 3.85657 152.316 4.10538C152.563 4.35419 152.809 4.85181 152.932 5.22503C152.932 5.47384 153.424 5.84705 153.67 5.84705L154.532 5.72265V6.71789Z" fill="#EE384E"/>
<path d="M148.748 3.48328C147.148 3.48328 145.917 4.97614 145.917 6.3446C145.917 7.83747 147.394 9.20592 148.748 9.20592C150.348 9.20592 151.579 7.71306 151.579 6.3446C151.579 4.60292 150.472 3.48328 148.748 3.48328ZM148.748 8.7083C147.271 8.7083 146.286 7.71306 146.286 6.22019C146.286 4.72733 147.271 3.73209 148.748 3.73209C150.225 3.73209 151.21 4.72733 151.21 6.22019C151.21 7.71306 149.979 8.7083 148.748 8.7083Z" fill="#EE384E"/>
<path d="M169.428 177.651H135.084L138.038 135.851H166.72L169.428 177.651Z" fill="#0064B7"/>
<path d="M141.117 167.325C149.734 164.464 159.951 162.349 168.199 158.244L166.598 136.099H137.917L135.578 169.191C137.425 168.32 139.271 167.947 141.117 167.325Z" fill="#023EA1"/>
<path d="M173.861 170.933C173.369 170.311 172.753 169.938 172.015 169.938H152.935H151.335H132.501C131.762 169.938 131.024 170.186 130.654 170.933L125.484 178.646C124.5 180.263 125.484 182.129 127.331 182.129H151.581H153.181H177.431C179.277 182.129 180.262 180.139 179.277 178.646L173.861 170.933Z" fill="#0064B7"/>
<path d="M236.271 146.923H68.245C62.9519 146.923 58.6436 142.444 58.6436 137.219V29.6085C58.6436 24.2591 63.075 19.9049 68.245 19.9049H236.517C241.81 19.9049 246.119 24.3835 246.119 29.6085V137.095C246.242 142.693 241.933 146.923 236.271 146.923Z" fill="#0064B7"/>
<path d="M237.622 28.3644H67.2578V137.344H237.622V28.3644Z" fill="white"/>
<path d="M187.154 45.6566L173.244 56.1067L189 49.762L187.154 45.6566Z" fill="#C9D5EF"/>
<path d="M209.926 81.8588L189 88.4523L209.926 87.2082V81.8588Z" fill="#C9D5EF"/>
<path d="M100.616 121.171L132.128 102.012L98.8926 116.319L100.616 121.171Z" fill="#C9D5EF"/>
<path d="M122.774 79.7437L95.0771 76.5092V70.4133L122.774 79.7437Z" fill="#C9D5EF"/>
<path d="M149.116 109.726L174.105 126.396V120.798L149.116 109.726Z" fill="#C9D5EF"/>
<path d="M117.606 77.5046C117.483 77.3802 116.991 77.3802 116.868 77.5046C116.745 77.629 116.745 78.1266 116.868 78.251C117.976 79.2462 119.453 80.3659 120.684 81.6099C120.807 81.6099 120.807 81.7343 120.93 81.7343C121.053 81.7343 121.176 81.7343 121.176 81.6099C121.299 81.3611 121.299 80.9879 121.176 80.8635C120.068 79.7439 118.714 78.6242 117.606 77.5046Z" fill="#25409C"/>
<path d="M128.069 54.6141C128.193 54.6141 128.562 54.4897 128.562 54.3653C128.685 54.1165 128.562 53.7433 128.316 53.7433C126.592 53.1212 125.115 52.6236 123.392 52.0016C123.146 52.0016 122.776 52.0016 122.776 52.2504C122.776 52.4992 122.776 52.8724 123.023 52.8724C124.623 53.37 126.223 53.8677 127.7 54.6141C127.946 54.6141 128.069 54.6141 128.069 54.6141Z" fill="#25409C"/>
<path d="M110.219 70.5379C110.095 70.4135 109.603 70.4135 109.48 70.5379C109.357 70.6623 109.357 71.1599 109.48 71.2843C110.588 72.404 111.819 73.7724 113.173 75.0165C113.296 75.1409 113.419 75.1409 113.419 75.1409C113.419 75.1409 113.665 75.1409 113.665 75.0165C113.788 74.8921 113.788 74.3945 113.665 74.27C112.557 72.9016 111.326 71.6575 110.219 70.5379Z" fill="#25409C"/>
<path d="M133.115 90.0695C132.869 89.9451 132.5 89.9451 132.377 90.1939C132.254 90.4427 132.254 90.8159 132.5 90.9403C133.977 91.8112 135.208 92.9308 136.685 93.8017C136.685 93.8017 136.808 93.8017 136.931 93.8017C137.054 93.8017 137.177 93.8017 137.424 93.5529C137.547 93.304 137.547 92.9308 137.301 92.8064C135.823 92.06 134.469 90.9403 133.115 90.0695Z" fill="#25409C"/>
<path d="M125.236 83.9736C124.99 83.8491 124.621 83.8491 124.498 83.9736C124.374 84.2224 124.374 84.5956 124.498 84.72C125.975 85.7152 127.083 86.7105 128.683 87.8301C128.806 87.8301 128.806 87.9545 128.929 87.9545C129.052 87.9545 129.175 87.9545 129.421 87.8301C129.545 87.5813 129.545 87.2081 129.298 87.0837C127.821 85.964 126.467 84.9688 125.236 83.9736Z" fill="#25409C"/>
<path d="M113.418 50.5087C115.018 50.7575 116.619 51.1307 118.342 51.5039C118.342 51.5039 118.342 51.5039 118.465 51.5039C118.711 51.5039 118.957 51.3795 118.957 51.2551C118.957 51.0063 118.834 50.6331 118.711 50.6331C116.988 50.1354 115.265 49.8866 113.664 49.6378C113.418 49.6378 113.049 49.7622 113.049 50.1354C113.049 50.2598 113.172 50.5087 113.418 50.5087Z" fill="#25409C"/>
<path d="M208.572 111.841C208.572 111.965 208.818 112.089 209.064 112.089C209.064 112.089 209.188 112.089 209.311 112.089C209.557 111.965 209.557 111.592 209.557 111.467C208.941 109.974 207.957 108.606 206.849 107.113C206.726 106.864 206.356 106.864 206.11 106.989C205.864 107.113 205.864 107.486 205.987 107.735C206.972 108.979 207.71 110.348 208.572 111.841Z" fill="#25409C"/>
<path d="M100.742 54.8628C100.742 54.6139 100.742 54.1163 100.865 53.8675C100.988 53.6187 100.742 53.2455 100.372 53.2455C100.003 53.2455 99.6338 53.2455 99.6338 53.6187C99.6338 53.8675 99.5107 54.3651 99.5107 54.7384C99.5107 55.858 99.7569 57.3509 100.372 58.8437C100.372 58.9681 100.619 59.0925 100.865 59.0925H100.988C101.234 58.9681 101.234 58.5949 101.234 58.4705C101.111 56.9777 100.742 55.7336 100.742 54.8628Z" fill="#25409C"/>
<path d="M108.499 49.0157H108.252C106.283 49.0157 104.806 49.2646 103.329 49.7622C103.082 49.8866 102.836 50.011 103.082 50.3842C103.082 50.5086 103.329 50.633 103.575 50.633H103.698C104.806 50.1354 106.406 50.011 108.252 50.011H108.499C108.745 50.011 108.991 49.7622 108.991 49.5134C108.991 49.2646 108.868 49.0157 108.499 49.0157Z" fill="#25409C"/>
<path d="M103.941 62.9492C103.817 62.7004 103.448 62.7004 103.202 62.8248C102.956 62.9492 102.956 63.3224 103.079 63.5712C103.941 64.6908 105.048 66.1837 106.156 67.801C106.279 67.9254 106.402 67.9254 106.402 67.9254C106.526 67.9254 106.649 67.9254 106.649 67.801C106.895 67.6766 106.895 67.3034 106.649 67.0545C105.787 65.5617 104.925 64.0688 103.941 62.9492Z" fill="#25409C"/>
<path d="M190.848 119.678C189.248 119.18 187.647 118.807 185.924 118.185C185.678 118.185 185.309 118.185 185.309 118.434C185.309 118.683 185.309 119.056 185.555 119.056C187.278 119.678 188.878 120.051 190.479 120.549C190.479 120.549 190.479 120.549 190.602 120.549C190.848 120.549 191.094 120.424 191.094 120.3C191.34 120.051 191.217 119.802 190.848 119.678Z" fill="#25409C"/>
<path d="M145.672 98.2804C144.195 97.4096 142.841 96.4143 141.364 95.5435C141.118 95.4191 140.748 95.5435 140.625 95.6679C140.502 95.9167 140.625 96.2899 140.748 96.4143C142.225 97.2852 143.579 98.2804 145.057 99.1512C145.057 99.1512 145.18 99.1512 145.303 99.1512C145.426 99.1512 145.549 99.1512 145.795 98.9024C146.041 98.9024 145.918 98.5292 145.672 98.2804Z" fill="#25409C"/>
<path d="M200.571 121.295C198.97 121.171 197.37 121.047 195.647 120.673C195.401 120.673 195.031 120.798 195.031 121.171C195.031 121.42 195.154 121.793 195.524 121.793C197.37 122.042 198.97 122.415 200.571 122.415C200.817 122.415 201.063 122.291 201.063 121.917C201.063 121.669 200.94 121.295 200.571 121.295Z" fill="#25409C"/>
<path d="M210.914 116.319C210.914 116.07 210.667 115.822 210.298 115.822C210.052 115.822 209.806 116.07 209.806 116.444C209.806 116.568 209.806 116.692 209.806 116.692C209.806 117.563 209.683 118.434 209.19 119.056C208.575 120.176 207.221 120.922 205.128 121.42C204.882 121.42 204.636 121.669 204.636 122.042C204.636 122.415 204.882 122.539 205.128 122.539C205.128 122.539 205.128 122.539 205.251 122.539C207.344 122.042 209.067 121.047 209.806 119.803C210.298 119.056 210.544 118.061 210.544 117.066C210.914 116.568 210.914 116.444 210.914 116.319Z" fill="#25409C"/>
<path d="M199.959 99.2756C199.836 99.1511 199.343 99.1511 199.22 99.2756C199.097 99.4 199.097 99.8976 199.22 100.022C200.328 101.142 201.682 102.51 202.667 103.754C202.79 103.879 202.913 103.879 202.913 103.879C203.036 103.879 203.159 103.879 203.159 103.754C203.282 103.63 203.406 103.257 203.159 103.008C202.421 101.764 201.313 100.52 199.959 99.2756Z" fill="#25409C"/>
<path d="M196.265 96.5385C196.388 96.5385 196.511 96.5385 196.511 96.4141C196.634 96.2897 196.634 95.7921 196.511 95.6677C195.403 94.6725 194.049 93.304 192.695 92.3088C192.572 92.1844 192.08 92.1844 191.957 92.3088C191.833 92.5576 191.833 92.9308 191.957 93.0552C193.434 94.1748 194.542 95.4189 195.773 96.4141C195.773 96.5385 196.142 96.5385 196.265 96.5385Z" fill="#25409C"/>
<path d="M154.286 103.63C152.809 102.759 151.455 101.888 149.855 101.017C149.609 100.893 149.24 101.017 149.116 101.142C148.993 101.39 149.116 101.764 149.24 101.888C150.717 102.759 152.071 103.63 153.671 104.5C153.671 104.5 153.794 104.5 153.917 104.5C154.04 104.5 154.163 104.376 154.41 104.252C154.656 104.003 154.656 103.63 154.286 103.63Z" fill="#25409C"/>
<path d="M181.37 116.568C179.769 115.946 178.169 115.448 176.692 114.702C176.446 114.577 176.077 114.702 176.077 114.95C175.954 115.199 176.077 115.572 176.323 115.572C177.923 116.195 179.523 116.692 181 117.439H181.124C181.247 117.439 181.616 117.314 181.616 117.19C181.862 116.817 181.739 116.568 181.37 116.568Z" fill="#25409C"/>
<path d="M163.274 108.233C161.673 107.486 160.442 106.615 158.842 105.869C158.596 105.745 158.227 105.869 158.227 105.993C158.104 106.242 158.227 106.615 158.35 106.615C159.95 107.362 161.427 108.233 162.904 108.979C162.904 108.979 163.028 108.979 163.151 108.979C163.274 108.979 163.397 108.855 163.643 108.73C163.52 108.73 163.397 108.482 163.274 108.233Z" fill="#25409C"/>
<path d="M172.136 112.463C170.536 111.841 169.059 110.97 167.582 110.348C167.336 110.223 166.966 110.348 166.966 110.596C166.843 110.845 166.966 111.218 167.212 111.218C168.813 111.965 170.29 112.711 171.767 113.333H171.89C172.013 113.333 172.136 113.209 172.382 113.085C172.506 113.085 172.382 112.711 172.136 112.463Z" fill="#25409C"/>
<path d="M122.159 123.534C120.435 124.156 118.958 124.405 117.481 125.027C117.235 125.027 116.989 125.276 117.235 125.649C117.235 125.898 117.481 125.898 117.727 125.898H117.85C119.451 125.401 121.051 125.027 122.528 124.405C122.774 124.405 123.02 124.156 122.774 123.783C122.651 123.534 122.528 123.534 122.159 123.534Z" fill="#25409C"/>
<path d="M112.805 126.023C111.082 126.271 109.481 126.645 107.881 126.769C107.635 126.769 107.389 127.018 107.389 127.391C107.389 127.764 107.635 127.889 107.881 127.889C109.481 127.764 111.082 127.64 112.805 127.142C113.051 127.142 113.297 126.893 113.051 126.52C113.42 126.147 113.174 126.023 112.805 126.023Z" fill="#25409C"/>
<path d="M140.129 116.319C138.529 117.066 137.051 117.812 135.697 118.31C135.451 118.434 135.451 118.807 135.451 118.932C135.451 119.056 135.697 119.18 135.944 119.18C135.944 119.18 136.067 119.18 136.19 119.18C137.667 118.558 139.021 117.688 140.621 117.19C140.867 117.066 140.867 116.692 140.867 116.568C140.867 116.319 140.375 116.319 140.129 116.319Z" fill="#25409C"/>
<path d="M131.39 120.3C129.789 120.922 128.312 121.42 126.835 122.042C126.589 122.166 126.589 122.29 126.589 122.664C126.589 122.788 126.835 122.912 127.081 122.912H127.204C128.805 122.29 130.282 121.793 131.759 121.171C132.005 121.046 132.005 120.922 132.005 120.549C131.882 120.3 131.636 120.051 131.39 120.3Z" fill="#25409C"/>
<path d="M183.213 61.3319C185.06 60.8343 186.537 60.4611 188.137 60.2123C188.383 60.2123 188.63 59.9635 188.383 59.5903C188.383 59.3415 188.137 59.0927 187.768 59.3415C186.168 59.5903 184.568 60.0879 183.09 60.4611C182.844 60.4611 182.598 60.7099 182.844 61.0831C182.721 61.2075 182.844 61.2075 183.213 61.3319Z" fill="#25409C"/>
<path d="M148.872 111.965C147.395 112.711 146.041 113.582 144.564 114.329C144.317 114.453 144.317 114.826 144.317 114.951C144.317 115.075 144.564 115.2 144.81 115.2C144.81 115.2 144.933 115.2 145.056 115.2C146.533 114.453 147.887 113.707 149.487 112.836C149.734 112.711 149.734 112.338 149.611 112.214C149.487 111.965 149.118 111.841 148.872 111.965Z" fill="#25409C"/>
<path d="M112.186 101.39C112.063 101.266 111.693 101.142 111.447 101.39C110.339 102.51 108.985 103.754 107.754 104.749C107.631 104.874 107.631 105.247 107.754 105.496C107.878 105.62 107.878 105.62 108.001 105.62C108.124 105.62 108.247 105.62 108.247 105.496C109.232 104.5 110.586 103.132 111.694 102.137C112.309 101.888 112.309 101.639 112.186 101.39Z" fill="#25409C"/>
<path d="M99.2626 115.946C99.0165 115.821 98.6472 115.946 98.6472 116.07C97.7855 117.812 97.0469 119.429 96.9238 120.798C96.9238 121.046 97.0469 121.42 97.4162 121.42C97.6624 121.42 97.9086 121.295 97.9086 120.922C98.0317 119.802 98.6472 118.185 99.6319 116.443C99.5088 116.443 99.3857 116.07 99.2626 115.946Z" fill="#25409C"/>
<path d="M103.325 126.769C101.478 126.52 100.001 126.023 99.0164 125.152C98.8933 125.027 98.4009 125.027 98.4009 125.152C98.2778 125.276 98.2778 125.774 98.4009 125.774C99.3857 126.645 101.109 127.391 103.325 127.64C103.571 127.64 103.817 127.516 103.817 127.142C103.817 126.894 103.694 126.769 103.325 126.769Z" fill="#25409C"/>
<path d="M104.435 107.984C103.327 109.477 102.096 110.597 101.234 111.841C101.111 112.089 101.111 112.463 101.357 112.463C101.357 112.463 101.48 112.587 101.603 112.587C101.727 112.587 101.85 112.587 102.096 112.463C102.958 111.343 104.065 109.975 105.296 108.606C105.419 108.482 105.419 108.108 105.296 107.86C104.927 107.86 104.558 107.86 104.435 107.984Z" fill="#25409C"/>
<path d="M173.733 96.663C172.256 97.5339 171.148 98.5291 169.548 99.4C169.302 99.5244 169.302 99.8976 169.425 100.022C169.425 100.146 169.671 100.271 169.671 100.271C169.671 100.271 169.794 100.271 169.917 100.271C171.394 99.3999 172.625 98.4047 174.102 97.5339C174.348 97.4095 174.348 97.0362 174.225 96.9118C174.472 96.5386 173.979 96.5386 173.733 96.663Z" fill="#25409C"/>
<path d="M197.369 57.9729C195.892 57.9729 194.169 57.9729 192.322 58.2217C192.076 58.2217 191.83 58.4705 191.83 58.8437C191.83 59.0925 192.076 59.3414 192.322 59.3414C194.169 59.0925 195.646 59.0926 197.246 59.0926C197.493 59.0926 197.739 58.9681 197.739 58.5949C197.862 58.2217 197.739 57.9729 197.369 57.9729Z" fill="#25409C"/>
<path d="M196.261 78.0022C195.276 79.1219 193.922 80.3659 192.814 81.4856C192.691 81.61 192.691 81.9832 192.814 82.232C192.937 82.3564 193.06 82.3564 193.06 82.3564C193.183 82.3564 193.306 82.3564 193.306 82.232C194.414 81.1124 195.768 79.8683 196.753 78.7487C196.876 78.6243 196.876 78.2511 196.753 78.0022C196.63 77.8778 196.384 77.8778 196.261 78.0022Z" fill="#25409C"/>
<path d="M202.663 70.1647C202.417 70.0403 202.048 70.1647 202.048 70.2891C201.309 71.4087 200.324 72.9016 199.216 74.3945C199.093 74.5189 199.093 75.0165 199.216 75.0165C199.216 75.0165 199.339 75.1409 199.463 75.1409C199.586 75.1409 199.709 75.1409 199.955 75.0165C201.063 73.5236 202.048 72.2796 202.786 70.7867C203.155 70.5379 202.909 70.2891 202.663 70.1647Z" fill="#25409C"/>
<path d="M204.756 61.2074C204.264 60.3365 203.649 59.5901 202.418 59.2169C202.171 59.0925 201.802 59.2169 201.802 59.4657C201.679 59.7145 201.802 60.0877 202.048 60.0877C202.91 60.5854 203.649 61.083 204.018 61.8294C204.51 62.4514 204.633 63.4467 204.633 64.3175C204.633 64.9395 204.51 65.4372 204.387 66.308C204.387 66.5568 204.387 66.93 204.633 66.93C204.633 66.93 204.633 66.93 204.756 66.93C205.003 66.93 205.249 66.8056 205.249 66.6812C205.495 65.9348 205.495 65.064 205.495 64.5663C205.618 63.0735 205.126 61.9538 204.756 61.2074Z" fill="#25409C"/>
<path d="M165.856 102.012C164.379 102.883 163.148 103.754 161.671 104.625C161.425 104.749 161.425 105.123 161.548 105.247C161.548 105.371 161.794 105.496 162.04 105.496C162.286 105.496 162.163 105.496 162.286 105.496C163.763 104.625 165.117 103.754 166.471 102.883C166.718 102.759 166.718 102.386 166.595 102.261C166.225 102.012 165.979 102.012 165.856 102.012Z" fill="#25409C"/>
<path d="M189.246 84.5957C188.138 85.591 186.784 86.7106 185.43 87.8303C185.307 87.9547 185.184 88.3279 185.43 88.4523C185.553 88.5767 185.676 88.5767 185.676 88.5767C185.8 88.5767 185.923 88.5767 185.923 88.4523C187.4 87.4571 188.508 86.3374 189.739 85.2178C189.862 85.0934 189.985 84.7202 189.739 84.5957C189.615 84.4713 189.369 84.4713 189.246 84.5957Z" fill="#25409C"/>
<path d="M157.364 107.237C155.887 108.108 154.533 108.979 153.056 109.726C152.809 109.85 152.809 110.223 152.932 110.348C152.932 110.472 153.179 110.596 153.425 110.596C153.425 110.596 153.548 110.596 153.671 110.596C155.148 109.85 156.502 108.979 157.979 108.108C158.226 107.984 158.226 107.611 158.102 107.486C158.102 107.113 157.733 107.113 157.364 107.237Z" fill="#25409C"/>
<path d="M181.735 90.9405C180.627 91.8113 179.15 92.931 177.673 93.8018C177.427 93.9262 177.427 94.2994 177.55 94.4238C177.673 94.5482 177.796 94.5482 177.796 94.5482C177.919 94.5482 178.042 94.5482 178.042 94.4238C179.519 93.553 180.627 92.4333 182.104 91.5625C182.35 91.4381 182.35 91.0649 182.104 90.9405C182.227 90.8161 181.858 90.8161 181.735 90.9405Z" fill="#25409C"/>
<path d="M220.022 95.6675C226.413 95.6675 231.593 90.4319 231.593 83.9734C231.593 77.5149 226.413 72.2793 220.022 72.2793C213.632 72.2793 208.451 77.5149 208.451 83.9734C208.451 90.4319 213.632 95.6675 220.022 95.6675Z" fill="#C9D5EF"/>
<path d="M220.023 83.9735C221.858 83.9735 223.346 82.414 223.346 80.4902C223.346 78.5664 221.858 77.0068 220.023 77.0068C218.187 77.0068 216.699 78.5664 216.699 80.4902C216.699 82.414 218.187 83.9735 220.023 83.9735Z" fill="#0064B7"/>
<path d="M220.267 84.3468C216.944 84.3468 214.112 86.9593 214.112 90.3183V94.1748C215.836 95.1701 217.928 95.9165 220.021 95.9165C222.36 95.9165 224.329 95.2945 225.93 94.1748V90.3183C225.806 87.0837 223.221 84.3468 220.267 84.3468Z" fill="#0064B7"/>
<path d="M89.9079 130.75C96.2984 130.75 101.479 125.515 101.479 119.056C101.479 112.598 96.2984 107.362 89.9079 107.362C83.5174 107.362 78.3369 112.598 78.3369 119.056C78.3369 125.515 83.5174 130.75 89.9079 130.75Z" fill="#C9D5EF"/>
<path d="M89.9085 119.181C91.7441 119.181 93.2321 117.621 93.2321 115.697C93.2321 113.774 91.7441 112.214 89.9085 112.214C88.073 112.214 86.585 113.774 86.585 115.697C86.585 117.621 88.073 119.181 89.9085 119.181Z" fill="#0064B7"/>
<path d="M90.0288 119.429C86.7052 119.429 83.874 122.042 83.874 125.401V129.257C85.5974 130.253 87.69 130.999 89.7826 130.999C91.8753 130.999 94.091 130.377 95.6912 129.257V125.401C95.8143 121.918 93.3524 119.429 90.0288 119.429Z" fill="#0064B7"/>
<path d="M183.46 134.607C189.85 134.607 195.031 129.371 195.031 122.913C195.031 116.454 189.85 111.219 183.46 111.219C177.069 111.219 171.889 116.454 171.889 122.913C171.889 129.371 177.069 134.607 183.46 134.607Z" fill="#C9D5EF"/>
<path d="M183.461 122.913C185.297 122.913 186.785 121.353 186.785 119.429C186.785 117.505 185.297 115.946 183.461 115.946C181.626 115.946 180.138 117.505 180.138 119.429C180.138 121.353 181.626 122.913 183.461 122.913Z" fill="#EE384E"/>
<path d="M183.582 123.41C180.258 123.41 177.427 126.023 177.427 129.381V133.238C179.15 134.233 181.243 134.98 183.335 134.98C185.674 134.98 187.644 134.358 189.244 133.238V129.381C189.367 126.023 186.782 123.41 183.582 123.41Z" fill="#EE384E"/>
<path d="M196.755 54.2408C203.145 54.2408 208.326 49.0051 208.326 42.5466C208.326 36.0882 203.145 30.8525 196.755 30.8525C190.364 30.8525 185.184 36.0882 185.184 42.5466C185.184 49.0051 190.364 54.2408 196.755 54.2408Z" fill="#C9D5EF"/>
<path d="M200.08 39.3121C200.08 41.1782 198.48 42.7954 196.756 42.7954C194.91 42.7954 193.433 41.1782 193.433 39.3121C193.433 37.446 195.033 35.8287 196.756 35.8287C198.726 35.9531 200.08 37.3216 200.08 39.3121Z" fill="#0064B7"/>
<path d="M197 43.1686C193.676 43.1686 190.845 45.7811 190.845 49.14V52.9966C192.568 53.9919 194.661 54.7383 196.753 54.7383C198.846 54.7383 201.062 54.1163 202.662 52.9966V49.14C202.908 45.7811 200.077 43.1686 197 43.1686Z" fill="#0064B7"/>
<path d="M98.4008 70.0403C98.4008 76.5094 93.2308 81.7344 86.8298 81.7344C80.4288 81.7344 75.2588 76.5094 75.2588 70.0403C75.2588 63.5713 80.4288 58.3462 86.8298 58.3462C93.2308 58.2218 98.4008 63.5713 98.4008 70.0403Z" fill="#C9D5EF"/>
<path d="M89.9079 66.5571C89.9079 68.4232 88.3077 70.0404 86.5843 70.0404C84.861 70.0404 83.2607 68.4232 83.2607 66.5571C83.2607 64.691 84.861 63.0737 86.5843 63.0737C88.5539 63.1981 89.9079 64.8154 89.9079 66.5571Z" fill="#EE384E"/>
<path d="M86.7085 70.4137C83.3849 70.4137 80.5537 73.0262 80.5537 76.3852V79.7441C82.2771 80.7393 84.3697 81.859 86.4623 81.859C88.5549 81.859 90.7707 81.237 92.3709 80.1173V76.2607C92.6171 73.1506 89.909 70.4137 86.7085 70.4137Z" fill="#EE384E"/>
<path d="M140.13 39.5608H137.792V37.1971C137.792 36.9483 137.668 36.6995 137.299 36.6995C137.053 36.6995 136.807 36.8239 136.807 37.1971V39.5608H134.468C134.222 39.5608 133.976 39.6852 133.976 40.0584C133.976 40.3072 134.099 40.556 134.468 40.556H136.807V42.9197C136.807 43.1685 136.93 43.4174 137.299 43.4174C137.545 43.4174 137.792 43.2929 137.792 42.9197V40.556H140.13C140.377 40.556 140.623 40.4316 140.623 40.0584C140.623 39.6852 140.377 39.5608 140.13 39.5608Z" fill="#2440AB"/>
<path d="M219.407 123.535H217.314V121.171C217.314 120.922 217.191 120.673 216.822 120.673C216.575 120.673 216.329 120.798 216.329 121.171V123.535H213.99C213.744 123.535 213.498 123.659 213.498 124.032C213.498 124.281 213.621 124.53 213.99 124.53H216.329V126.894C216.329 127.142 216.452 127.391 216.822 127.391C217.068 127.391 217.314 127.267 217.314 126.894V124.53H219.653C219.899 124.53 220.145 124.405 220.145 124.032C219.899 123.659 219.653 123.535 219.407 123.535Z" fill="#EE384E"/>
<path d="M84.8599 48.1449H83.3828V46.652C83.3828 46.5276 83.2597 46.4032 83.1366 46.4032C83.0135 46.4032 82.8904 46.5276 82.8904 46.652V48.1449H81.2901C81.167 48.1449 81.0439 48.2693 81.0439 48.3937C81.0439 48.5181 81.167 48.6425 81.2901 48.6425H82.7673V50.1354C82.7673 50.2598 82.8904 50.3842 83.0135 50.3842C83.1366 50.3842 83.2597 50.2598 83.2597 50.1354V48.6425H84.7368C84.8599 48.6425 84.983 48.5181 84.983 48.3937C85.1061 48.2693 84.983 48.1449 84.8599 48.1449Z" fill="#2440AB"/>
<path d="M227.285 51.7525H225.808V50.2597C225.808 50.1353 225.684 50.0109 225.561 50.0109C225.438 50.0109 225.315 50.1353 225.315 50.2597V51.7525H223.838C223.715 51.7525 223.592 51.8769 223.592 52.0014C223.592 52.1258 223.715 52.2502 223.838 52.2502H225.315V53.743C225.315 53.8674 225.438 53.9918 225.561 53.9918C225.684 53.9918 225.808 53.8674 225.808 53.743V52.2502H227.285C227.408 52.2502 227.531 52.1258 227.531 52.0014C227.531 51.8769 227.531 51.7525 227.285 51.7525Z" fill="#2440AB"/>
<path d="M132.621 129.506H131.143V128.013C131.143 127.889 131.02 127.764 130.897 127.764C130.774 127.764 130.651 127.889 130.651 128.013V129.506H129.174C129.051 129.506 128.928 129.63 128.928 129.755C128.928 129.879 129.051 130.004 129.174 130.004H130.651V131.497C130.651 131.621 130.774 131.745 130.897 131.745C131.02 131.745 131.143 131.621 131.143 131.497V130.004H132.621C132.744 130.004 132.867 129.879 132.867 129.755C132.867 129.506 132.867 129.506 132.621 129.506Z" fill="white"/>
<path d="M95.0776 94.4238H92.9849V92.0601C92.9849 91.8113 92.8618 91.5625 92.4925 91.5625C92.2463 91.5625 92.0002 91.6869 92.0002 92.0601V94.4238H89.6613C89.4151 94.4238 89.1689 94.5482 89.1689 94.9214C89.1689 95.1703 89.292 95.4191 89.6613 95.4191H92.0002V97.7828C92.0002 98.0316 92.1232 98.2804 92.4925 98.2804C92.7387 98.2804 92.9849 98.156 92.9849 97.7828V95.4191H95.3237C95.5699 95.4191 95.8161 95.2947 95.8161 94.9214C95.8161 94.5482 95.4468 94.4238 95.0776 94.4238Z" fill="#EE384E"/>
<path d="M177.675 106.864C159.827 106.864 142.224 106.864 124.375 106.864C123.636 106.616 122.898 106.242 122.036 105.869C129.176 99.5245 136.438 93.553 143.455 87.2084C146.04 89.5721 148.502 91.687 150.964 93.6775C153.549 91.3137 156.011 89.1989 158.473 87.2084C165.489 93.553 172.629 99.5245 179.891 105.869C179.276 106.118 178.414 106.616 177.675 106.864Z" fill="#25409C"/>
<path d="M120.928 67.3033C121.051 67.3033 121.174 67.4277 121.42 67.4277C128.067 73.3992 134.961 79.1219 141.362 85.0933C141.485 85.0933 141.485 85.2177 141.608 85.3421C134.715 91.3136 127.698 97.2851 120.805 103.132C120.928 91.3136 120.928 79.2463 120.928 67.3033Z" fill="#25409C"/>
<path d="M180.012 64.3176C170.411 72.6528 160.809 80.988 151.208 89.3231C141.606 80.988 132.005 72.6528 122.403 64.5664C123.142 63.82 124.127 63.5712 125.111 63.4468C125.235 63.4468 125.358 63.4468 125.727 63.4468C142.837 63.4468 159.701 63.4468 176.812 63.4468C178.043 63.198 179.151 63.4468 180.012 64.3176Z" fill="#25409C"/>
<path d="M181.367 67.0547C181.367 79.122 181.367 91.1893 181.367 103.132C174.473 97.1608 167.457 91.1893 160.563 85.3423C167.58 79.2464 174.473 73.1506 181.367 67.0547Z" fill="#25409C"/>
</svg>
