<svg width="270" height="202" viewBox="0 0 270 202" fill="none" xmlns="http://www.w3.org/2000/svg">
<path d="M270 177.321H0V177.43H270V177.321Z" fill="#ECECEC"/>
<path d="M242.999 185.982H225.071V186.09H242.999V185.982Z" fill="#ECECEC"/>
<path d="M178.846 187.497H174.202V187.605H178.846V187.497Z" fill="#ECECEC"/>
<path d="M224.534 181.002H214.166V181.11H224.534V181.002Z" fill="#ECECEC"/>
<path d="M51.6258 181.868H28.2979V181.976H51.6258V181.868Z" fill="#ECECEC"/>
<path d="M59.9414 181.868H56.4854V181.976H59.9414V181.868Z" fill="#ECECEC"/>
<path d="M121.502 184.141H70.958V184.249H121.502V184.141Z" fill="#ECECEC"/>
<path d="M127.978 153.18H23.758C22.03 153.18 20.626 151.773 20.626 150.041V3.13939C20.626 1.40731 22.03 0 23.758 0H127.978C129.706 0 131.11 1.40731 131.11 3.13939V150.041C131.11 151.773 129.706 153.18 127.978 153.18ZM23.758 0.216509C22.138 0.216509 20.842 1.51557 20.842 3.13939V150.041C20.842 151.665 22.138 152.964 23.758 152.964H127.978C129.598 152.964 130.894 151.665 130.894 150.041V3.13939C130.894 1.51557 129.598 0.216509 127.978 0.216509H23.758Z" fill="#ECECEC"/>
<path d="M244.834 153.18H140.614C138.886 153.18 137.482 151.773 137.482 150.041V3.13939C137.482 1.40731 138.886 0 140.614 0H244.834C246.562 0 247.966 1.40731 247.966 3.13939V150.041C247.858 151.773 246.454 153.18 244.834 153.18ZM140.506 0.216509C138.886 0.216509 137.59 1.51557 137.59 3.13939V150.041C137.59 151.665 138.886 152.964 140.506 152.964H244.726C246.346 152.964 247.642 151.665 247.642 150.041V3.13939C247.642 1.51557 246.346 0.216509 244.726 0.216509H140.506Z" fill="#ECECEC"/>
<path d="M199.799 130.555V141.164L204.335 144.412H183.491L190.079 141.922V131.313L199.799 130.555Z" fill="#E1E1E1"/>
<path d="M140.508 144.087V177.43H242.892V144.087H140.508ZM142.236 146.252H224.424V157.186H142.236V146.252Z" fill="#E1E1E1"/>
<path d="M140.508 144.087V177.43H226.692V144.087H140.508ZM142.236 146.252H224.424V157.186H142.236V146.252Z" fill="#ECECEC"/>
<path d="M157.142 146.252H142.13V157.186H157.142V146.252Z" fill="#E1E1E1"/>
<path d="M224.423 151.665H202.715V157.078H224.423V151.665Z" fill="#E1E1E1"/>
<path d="M201.314 153.938H187.382V157.186H201.314V153.938Z" fill="#E1E1E1"/>
<path d="M184.142 150.583H167.726V157.186H184.142V150.583Z" fill="#E1E1E1"/>
<path d="M208.114 159.568L208.438 160.867H213.838L214.162 159.568H224.422V173.966H197.854V159.568H208.114Z" fill="#E1E1E1"/>
<path d="M180.251 159.568L180.683 160.867H185.975L186.407 159.568H196.667V173.966H170.099V159.568H180.251Z" fill="#E1E1E1"/>
<path d="M152.494 159.568L152.818 160.867H158.218L158.65 159.568H168.802V173.966H142.234V159.568H152.494Z" fill="#E1E1E1"/>
<path d="M157.786 136.942H224.638C226.69 136.942 228.418 135.21 228.418 133.153V95.6974C228.418 93.6405 226.69 91.9084 224.638 91.9084H157.894C155.842 91.9084 154.114 93.6405 154.114 95.6974V133.153C154.006 135.21 155.734 136.942 157.786 136.942Z" fill="#E1E1E1"/>
<path d="M156.058 136.942H222.802C224.854 136.942 226.582 135.21 226.582 133.153V95.6974C226.582 93.6405 224.854 91.9084 222.802 91.9084H156.058C154.006 91.9084 152.278 93.6405 152.278 95.6974V133.153C152.278 135.21 154.006 136.942 156.058 136.942Z" fill="#E7E7E7"/>
<path d="M224.531 93.9653H154.547V134.669H224.531V93.9653Z" fill="#F0F0F0"/>
<path d="M235.762 15.4805H174.958V82.9232H235.762V15.4805Z" fill="#E9E9E9"/>
<path d="M233.279 18.1869H177.659V80.4334H233.279V18.1869Z" fill="#F3F3F3"/>
<path d="M193.319 18.1869L177.659 77.1857V45.2506L184.787 18.1869H193.319Z" fill="white"/>
<path d="M200.341 18.1869L183.817 80.4334H180.685L197.209 18.1869H200.341Z" fill="white"/>
<path d="M233.277 35.1827V67.1179L229.713 80.4332H221.181L233.277 35.1827Z" fill="white"/>
<path d="M206.386 15.4805H204.226V82.9232H206.386V15.4805Z" fill="#E9E9E9"/>
<path d="M234.573 29.2288H176.037V31.3939H234.573V29.2288Z" fill="#E9E9E9"/>
<path d="M62.2077 73.5048H38.5557V90.2842H62.2077V73.5048Z" fill="#E1E1E1"/>
<path d="M61.2371 74.5875H39.7451V89.2019H61.2371V74.5875Z" fill="#ECECEC"/>
<path d="M70.3063 52.5034H46.6543V69.2829H70.3063V52.5034Z" fill="#E1E1E1"/>
<path d="M69.3357 53.5861H47.8438V68.2005H69.3357V53.5861Z" fill="#ECECEC"/>
<path d="M81.8632 73.5049H66.7432V94.9393H81.8632V73.5049Z" fill="#E1E1E1"/>
<path d="M80.7809 74.5875H67.7129V93.9651H80.7809V74.5875Z" fill="#ECECEC"/>
<path d="M90.3933 45.4669H73.6533V69.1747H90.3933V45.4669Z" fill="#E1E1E1"/>
<path d="M89.3124 46.6578H74.7324V68.2005H89.3124V46.6578Z" fill="#ECECEC"/>
<path d="M105.517 73.5049H86.9414V86.6037H105.517V73.5049Z" fill="#E1E1E1"/>
<path d="M104.655 74.3708H87.8066V85.8458H104.655V74.3708Z" fill="#ECECEC"/>
<path d="M34.5625 111.286H93.0985C95.6905 111.286 97.8505 113.451 97.8505 116.049L104.331 157.402H36.2905L29.8105 116.049C29.8105 113.451 31.8625 111.286 34.5625 111.286Z" fill="#ECECEC"/>
<path d="M104.222 127.307L104.114 127.091H126.794V177.429H98.7139V133.153C98.7139 130.014 101.09 127.416 104.222 127.307Z" fill="#E1E1E1"/>
<path d="M127.013 127.307C130.253 127.307 132.845 129.905 132.845 133.153V177.429H121.181V133.153C121.181 129.905 123.773 127.307 127.013 127.307Z" fill="#F0F0F0"/>
<path d="M38.881 127.307L38.773 127.091H61.4531V177.429H33.373V133.153C33.373 130.014 35.749 127.416 38.881 127.307Z" fill="#E1E1E1"/>
<path d="M117.397 141.922H67.501V177.429H117.397V141.922Z" fill="#E1E1E1"/>
<path d="M57.999 150.69H114.159C117.507 150.69 120.315 147.984 120.315 144.52C120.315 141.164 117.615 138.349 114.159 138.349H57.999V150.69Z" fill="#F5F5F5"/>
<path d="M61.6718 127.307C64.9118 127.307 67.5038 129.905 67.5038 133.153V177.429H55.8398V133.153C55.8398 129.905 58.4318 127.307 61.6718 127.307Z" fill="#F0F0F0"/>
<path d="M45.7945 158.052H36.2905L29.8105 116.049C29.8105 113.451 31.9705 111.286 34.5625 111.286C37.1545 111.286 39.3145 113.451 39.3145 116.049L45.7945 158.052Z" fill="#E1E1E1"/>
<path d="M32.0791 11.1502V27.1719C32.0791 28.0379 32.8351 28.6874 33.6991 28.6874H87.5911C87.5911 28.6874 93.8551 25.7646 93.4231 21.7591C93.0991 18.5115 92.6671 15.9134 92.4511 13.8565C92.1271 11.3667 89.9671 9.63461 87.4831 9.63461H33.6991C32.7271 9.52635 32.0791 10.2841 32.0791 11.1502Z" fill="#F5F5F5"/>
<path d="M32.0791 11.1502V27.1719C32.0791 28.0379 32.8351 28.6874 33.6991 28.6874H38.4511C38.4511 28.6874 44.7151 25.7646 44.2831 21.7591C43.9591 18.5115 43.5271 15.9134 43.3111 13.8565C42.9871 11.3667 40.8271 9.63461 38.3431 9.63461H33.8071C32.7271 9.52635 32.0791 10.2841 32.0791 11.1502Z" fill="#E7E7E7"/>
<path d="M92.1252 22.95H45.0372C45.0372 22.95 43.5252 26.4141 40.8252 27.8214H86.8332C86.8332 27.8214 91.6932 25.6563 92.1252 22.95Z" fill="#E1E1E1"/>
<path d="M88.885 26.1976H43.417L44.065 27.8215H88.885V26.1976Z" fill="#ECECEC"/>
<path d="M90.5071 24.1406H45.0391L45.6871 25.7644H90.5071V24.1406Z" fill="#ECECEC"/>
<path d="M47.8491 21.759H46.6611V22.1921H47.8491V21.759Z" fill="#E1E1E1"/>
<path d="M49.4653 21.759H48.2773V22.1921H49.4653V21.759Z" fill="#E1E1E1"/>
<path d="M134.999 201.787C192.796 201.787 239.651 199.024 239.651 195.616C239.651 192.208 192.796 189.446 134.999 189.446C77.201 189.446 30.3467 192.208 30.3467 195.616C30.3467 199.024 77.201 201.787 134.999 201.787Z" fill="#F5F5F5"/>
<path d="M208.116 196.807L218.484 127.849V196.807H221.292V127.416L231.66 196.807H234.576L221.616 109.987L221.292 110.095V107.28H218.484V110.095L218.052 109.987L205.092 196.807H208.116Z" fill="#023EA1"/>
<path d="M234.145 119.621H205.525L207.793 95.697H231.769L234.145 119.621Z" fill="#0064B7"/>
<path d="M161.999 88.5524H152.603C152.171 88.5524 151.847 88.2276 151.847 87.7946V65.3859C152.063 65.2776 152.171 65.0611 152.171 64.8446C152.171 64.5198 151.847 64.1951 151.523 64.1951C151.199 64.1951 150.875 64.5198 150.875 64.8446C150.875 65.0611 150.983 65.2776 151.199 65.3859V87.6863C151.199 88.4441 151.739 88.9854 152.495 88.9854H161.891C162.323 88.9854 162.647 89.3102 162.647 89.7432V102.517H163.187V89.8514C163.295 89.0937 162.647 88.5524 161.999 88.5524Z" fill="#007CFF"/>
<path opacity="0.4" d="M161.999 88.5524H152.603C152.171 88.5524 151.847 88.2276 151.847 87.7946V65.3859C152.063 65.2776 152.171 65.0611 152.171 64.8446C152.171 64.5198 151.847 64.1951 151.523 64.1951C151.199 64.1951 150.875 64.5198 150.875 64.8446C150.875 65.0611 150.983 65.2776 151.199 65.3859V87.6863C151.199 88.4441 151.739 88.9854 152.495 88.9854H161.891C162.323 88.9854 162.647 89.3102 162.647 89.7432V102.517H163.187V89.8514C163.295 89.0937 162.647 88.5524 161.999 88.5524Z" fill="white"/>
<path d="M171.828 126.658H154.224C152.604 126.658 151.308 125.359 151.308 123.735V104.899C151.308 103.275 152.604 101.976 154.224 101.976H171.828C173.448 101.976 174.744 103.275 174.744 104.899V123.735C174.744 125.359 173.448 126.658 171.828 126.658Z" fill="#0064B7"/>
<path d="M168.588 110.745C168.588 110.528 168.48 110.203 168.372 109.987C167.616 107.714 165.456 106.198 162.972 106.198C161.136 106.198 159.516 107.064 158.544 108.363C158.22 108.688 158.004 109.121 157.788 109.554C157.464 110.312 157.248 111.069 157.248 111.935V116.807C157.248 117.24 157.356 117.781 157.464 118.214C157.572 118.539 157.68 118.864 157.788 119.189C157.896 119.513 158.112 119.73 158.328 120.055C158.436 120.271 158.652 120.379 158.76 120.596C158.976 120.812 159.192 121.029 159.408 121.137C159.624 121.245 159.732 121.462 159.948 121.57C160.272 121.787 160.596 122.003 161.028 122.111C161.244 122.22 161.352 122.22 161.568 122.328C161.784 122.436 162 122.436 162.324 122.436C162.54 122.436 162.648 122.436 162.864 122.436H162.972C163.296 122.436 163.62 122.436 163.836 122.328C164.052 122.328 164.16 122.22 164.376 122.22C165.024 122.003 165.672 121.787 166.212 121.354C166.428 121.245 166.644 121.029 166.752 120.921C167.292 120.488 167.616 119.946 167.94 119.297C168.048 118.972 168.264 118.647 168.372 118.323C168.48 117.89 168.588 117.348 168.588 116.807C168.588 116.699 168.588 116.699 168.588 116.59V111.719C168.696 111.502 168.696 111.069 168.588 110.745ZM167.292 119.73C166.968 120.163 166.644 120.596 166.212 120.921C166.104 121.029 165.888 121.137 165.672 121.245C165.24 121.57 164.7 121.787 164.16 121.895C163.944 121.895 163.836 122.003 163.62 122.003C163.404 122.003 163.188 122.003 162.972 122.003C162.864 122.003 162.756 122.003 162.756 122.003C162.54 122.003 162.432 122.003 162.216 121.895C162 121.895 161.784 121.787 161.568 121.787C161.352 121.678 161.244 121.678 161.028 121.57C160.596 121.354 160.272 121.245 159.948 120.921C159.732 120.812 159.624 120.596 159.408 120.488C159.192 120.271 159.084 120.055 158.868 119.838C158.76 119.622 158.544 119.405 158.436 119.189C158.22 118.864 158.112 118.539 158.004 118.106C157.896 117.673 157.788 117.24 157.788 116.699V111.827C157.788 110.636 158.22 109.554 158.868 108.688C159.3 108.038 159.948 107.605 160.596 107.281C161.352 106.956 162.108 106.739 162.972 106.739C165.456 106.739 167.508 108.471 168.048 110.745C168.156 111.069 168.156 111.502 168.156 111.827V116.807C168.156 117.132 168.156 117.456 168.048 117.781C167.94 118.214 167.832 118.647 167.616 118.972C167.616 119.297 167.4 119.513 167.292 119.73Z" fill="white"/>
<path d="M163.619 114.967C163.079 116.807 162.323 119.188 162.755 122.003C162.755 122.22 162.863 122.328 162.863 122.544C162.647 122.544 162.539 122.544 162.323 122.544C162.323 122.328 162.215 122.22 162.215 122.003C161.783 119.08 162.539 116.699 163.187 114.858C163.835 112.91 164.051 111.935 163.079 111.502C162.755 111.394 162.539 111.394 162.215 111.611C160.703 112.585 159.407 116.807 158.867 119.946C158.867 120.163 158.759 120.488 158.759 120.704C158.651 120.488 158.435 120.379 158.327 120.163C158.327 119.946 158.435 119.622 158.435 119.405C159.083 116.266 160.271 112.26 161.891 111.286C162.323 110.961 162.863 110.961 163.295 111.069C164.699 111.611 164.267 113.018 163.619 114.967Z" fill="white"/>
<path d="M162.755 114.858C162.215 116.59 161.459 119.188 161.567 121.895C161.567 122.111 161.567 122.22 161.567 122.436C161.351 122.436 161.243 122.328 161.027 122.22C161.027 122.003 161.027 121.787 161.027 121.57C160.919 118.864 161.675 116.374 162.215 114.642C162.431 113.992 162.647 113.126 162.647 112.91C161.999 113.451 159.947 118.214 159.947 121.029C159.947 121.245 159.947 121.462 159.947 121.678C159.731 121.57 159.515 121.462 159.407 121.245C159.407 121.029 159.407 120.812 159.407 120.596C159.623 117.673 161.351 113.451 162.323 112.585C162.539 112.368 162.755 112.368 162.863 112.368C163.403 112.585 163.187 113.343 162.755 114.858Z" fill="white"/>
<path d="M164.163 121.895C164.271 122.111 164.271 122.219 164.379 122.436C164.163 122.436 164.055 122.544 163.839 122.544C163.731 122.436 163.731 122.219 163.623 122.003C163.191 120.812 162.975 119.08 163.731 116.698C165.351 112.043 165.027 110.853 163.839 110.311C163.191 109.987 162.543 109.987 161.895 110.203C160.275 110.961 158.871 113.884 158.007 118.214C157.899 118.539 157.899 118.864 157.791 119.188C157.683 118.864 157.467 118.539 157.467 118.214C157.575 117.673 157.683 117.131 157.791 116.59C158.763 112.91 160.059 110.42 161.679 109.662C162.435 109.229 163.299 109.337 164.163 109.77C165.783 110.636 165.783 112.26 164.271 116.807C163.515 119.188 163.731 120.812 164.163 121.895Z" fill="white"/>
<path d="M166.861 121.029C166.645 121.245 166.537 121.354 166.321 121.462C166.213 121.462 166.213 121.462 166.105 121.354C165.997 121.354 165.889 121.245 165.781 121.137C165.241 120.812 164.809 120.163 164.593 119.405C164.269 118.431 164.809 116.915 165.241 115.4C165.781 113.884 166.213 112.26 165.997 111.069C165.781 110.095 165.349 109.446 164.593 109.013C163.621 108.58 162.433 108.58 161.029 109.229C159.625 109.879 158.545 111.827 157.897 113.343C157.681 113.884 157.465 114.425 157.357 114.75V113.235C157.465 112.91 157.681 112.477 157.897 112.044C158.545 110.636 159.517 109.229 160.813 108.688C162.325 108.038 163.729 107.93 164.809 108.471C165.673 108.904 166.321 109.77 166.537 110.853C166.753 112.152 166.321 113.776 165.781 115.4C165.349 116.915 164.917 118.214 165.133 119.08C165.349 119.838 165.781 120.379 166.321 120.596C166.321 120.596 166.321 120.596 166.429 120.596C166.429 121.029 166.645 121.029 166.861 121.029Z" fill="white"/>
<path d="M168.483 118.539C168.375 118.864 168.267 119.188 168.051 119.513C167.835 119.621 167.511 119.73 167.295 119.73C167.187 119.73 167.187 119.73 167.187 119.73H167.079C166.431 119.73 165.999 119.297 165.891 118.647C165.675 117.889 165.999 116.374 166.431 114.75C166.755 113.559 167.079 112.368 167.079 111.611C167.079 109.987 166.647 108.146 163.407 107.605C161.787 107.28 159.411 108.363 158.115 110.528C157.899 110.961 158.223 109.337 157.899 109.554C158.115 109.121 158.439 109.121 158.655 108.796C159.303 108.363 160.923 106.739 163.515 107.064C167.187 107.497 167.619 109.987 167.619 111.611C167.619 112.477 167.295 113.559 166.971 114.858C166.647 116.266 166.215 117.781 166.431 118.539C166.539 118.972 166.863 119.188 167.187 119.188C167.403 119.188 167.511 119.188 167.835 119.08C167.943 118.972 168.159 118.755 168.483 118.539Z" fill="white"/>
<path d="M168.699 115.508V116.807C168.699 116.807 168.699 116.915 168.699 117.024C168.483 117.348 168.267 117.673 168.051 117.89C167.835 117.998 167.619 118.106 167.403 118.106H167.295C167.079 118.106 166.971 117.998 166.863 117.781C166.647 117.348 166.971 116.374 167.079 115.941C167.835 114.101 168.051 112.693 167.943 110.853C167.943 110.528 167.943 110.312 167.943 110.312C167.943 110.203 168.051 110.095 168.267 110.095C168.375 110.312 168.375 110.528 168.483 110.853C168.483 111.286 168.375 111.611 168.375 112.044C168.267 112.802 168.159 113.559 168.051 114.317C168.051 114.534 168.159 114.425 168.159 114.642C168.051 114.967 167.835 115.508 167.727 115.833C167.619 116.157 167.403 116.374 167.295 116.699C167.187 116.915 166.971 117.781 167.511 117.565C167.727 117.457 167.835 117.348 167.943 117.132C167.943 117.024 168.051 117.024 168.051 116.915C168.159 116.591 168.375 116.266 168.483 116.049C168.591 115.833 168.699 115.724 168.699 115.508Z" fill="white"/>
<path d="M128.95 23.7078V37.5644C128.95 37.9974 128.626 38.3222 128.194 38.3222H114.154C114.046 38.1056 113.83 37.9974 113.614 37.9974C113.29 37.9974 112.966 38.3221 112.966 38.6469C112.966 38.9717 113.29 39.2964 113.614 39.2964C113.83 39.2964 114.046 39.1882 114.154 38.9717H128.194C128.95 38.9717 129.49 38.4304 129.49 37.6726V23.7078H128.95Z" fill="#007CFF"/>
<path opacity="0.4" d="M128.95 23.7078V37.5644C128.95 37.9974 128.626 38.3222 128.194 38.3222H114.154C114.046 38.1056 113.83 37.9974 113.614 37.9974C113.29 37.9974 112.966 38.3221 112.966 38.6469C112.966 38.9717 113.29 39.2964 113.614 39.2964C113.83 39.2964 114.046 39.1882 114.154 38.9717H128.194C128.95 38.9717 129.49 38.4304 129.49 37.6726V23.7078H128.95Z" fill="white"/>
<path d="M116.856 25.1151V7.46963C116.856 5.84581 118.152 4.54675 119.772 4.54675H138.564C140.184 4.54675 141.48 5.84581 141.48 7.46963V25.1151C141.48 26.739 140.184 28.038 138.564 28.038H119.772C118.152 28.038 116.856 26.739 116.856 25.1151Z" fill="#0064B7"/>
<path d="M122.04 16.2381C122.04 16.2381 125.28 20.027 129.168 20.027C133.056 20.027 136.296 16.2381 136.296 16.2381C136.296 16.2381 133.056 12.4492 129.168 12.4492C125.28 12.4492 122.04 16.2381 122.04 16.2381Z" stroke="white" stroke-miterlimit="10" stroke-linecap="round" stroke-linejoin="round"/>
<path d="M131.65 15.6968C131.65 17.1041 130.57 18.1866 129.166 18.1866C127.762 18.1866 126.682 17.1041 126.682 15.6968C126.682 14.2895 127.762 13.2069 129.166 13.2069C130.57 13.2069 131.65 14.2895 131.65 15.6968Z" stroke="white" stroke-miterlimit="10"/>
<path d="M129.493 14.6142C129.493 14.1812 129.817 13.8564 130.249 13.8564C130.681 13.8564 131.005 14.1812 131.005 14.6142C131.005 15.0472 130.681 15.372 130.249 15.372C129.817 15.372 129.493 15.0472 129.493 14.6142Z" stroke="white" stroke-miterlimit="10"/>
<path d="M129.164 12.4491V9.85095" stroke="white" stroke-miterlimit="10" stroke-linecap="round" stroke-linejoin="round"/>
<path d="M131.328 12.5573L132.3 10.5005" stroke="white" stroke-miterlimit="10" stroke-linecap="round" stroke-linejoin="round"/>
<path d="M133.487 13.5316L134.783 12.016" stroke="white" stroke-miterlimit="10" stroke-linecap="round" stroke-linejoin="round"/>
<path d="M135.214 14.7225L136.402 13.8564" stroke="white" stroke-miterlimit="10" stroke-linecap="round" stroke-linejoin="round"/>
<path d="M127.007 12.5573L126.035 10.5005" stroke="white" stroke-miterlimit="10" stroke-linecap="round" stroke-linejoin="round"/>
<path d="M124.849 13.5316L123.553 12.016" stroke="white" stroke-miterlimit="10" stroke-linecap="round" stroke-linejoin="round"/>
<path d="M123.119 14.7225L121.931 13.8564" stroke="white" stroke-miterlimit="10" stroke-linecap="round" stroke-linejoin="round"/>
<path d="M92.4486 39.1882C92.2326 39.1882 92.0166 39.2965 91.9086 39.513H77.5446C76.7886 39.513 76.2486 40.0543 76.2486 40.8121V55.5347C76.2486 55.9677 75.9246 56.2925 75.4926 56.2925H69.7686V56.8337H75.4926C76.2486 56.8337 76.7886 56.2925 76.7886 55.5347V40.8121C76.7886 40.379 77.1126 40.0543 77.5446 40.0543H91.9086C92.0166 40.2708 92.2326 40.379 92.4486 40.379C92.7726 40.379 93.0966 40.0543 93.0966 39.7295C93.0966 39.4047 92.7726 39.1882 92.4486 39.1882Z" fill="#007CFF"/>
<path opacity="0.4" d="M92.4486 39.1882C92.2326 39.1882 92.0166 39.2965 91.9086 39.513H77.5446C76.7886 39.513 76.2486 40.0543 76.2486 40.8121V55.5347C76.2486 55.9677 75.9246 56.2925 75.4926 56.2925H69.7686V56.8337H75.4926C76.2486 56.8337 76.7886 56.2925 76.7886 55.5347V40.8121C76.7886 40.379 77.1126 40.0543 77.5446 40.0543H91.9086C92.0166 40.2708 92.2326 40.379 92.4486 40.379C92.7726 40.379 93.0966 40.0543 93.0966 39.7295C93.0966 39.4047 92.7726 39.1882 92.4486 39.1882Z" fill="white"/>
<path d="M66.8511 68.9582H49.2471C47.6271 68.9582 46.3311 67.6591 46.3311 66.0353V47.199C46.3311 45.5752 47.6271 44.2761 49.2471 44.2761H66.8511C68.4711 44.2761 69.767 45.5752 69.767 47.199V66.0353C69.767 67.6591 68.4711 68.9582 66.8511 68.9582Z" fill="#0064B7"/>
<path d="M57.9955 64.8445C54.8635 64.8445 52.2715 62.2464 52.2715 59.107V54.2356C52.2715 51.0962 54.8635 48.498 57.9955 48.498C61.1275 48.498 63.7195 51.0962 63.7195 54.2356V59.107C63.7195 62.2464 61.2355 64.8445 57.9955 64.8445ZM57.9955 48.9311C55.1875 48.9311 52.8115 51.3127 52.8115 54.1273V58.9988C52.8115 61.8134 55.1875 64.195 57.9955 64.195C60.8035 64.195 63.1795 61.8134 63.1795 58.9988V54.1273C63.1795 51.3127 60.9115 48.9311 57.9955 48.9311Z" fill="white"/>
<path d="M60.5865 55.9675C60.9444 55.9675 61.2345 55.5798 61.2345 55.1015C61.2345 54.6232 60.9444 54.2355 60.5865 54.2355C60.2286 54.2355 59.9385 54.6232 59.9385 55.1015C59.9385 55.5798 60.2286 55.9675 60.5865 55.9675Z" fill="white"/>
<path d="M56.0509 55.1015C56.0509 55.5345 55.7269 55.9675 55.4029 55.9675C55.0789 55.9675 54.7549 55.6428 54.7549 55.1015C54.7549 54.6685 55.0789 54.2355 55.4029 54.2355C55.8349 54.3437 56.0509 54.6685 56.0509 55.1015Z" fill="white"/>
<path d="M58.1011 55.9677L56.9131 58.8905H58.1011V55.9677Z" fill="white"/>
<path d="M57.888 60.9472C56.916 60.9472 56.376 60.7307 56.376 60.7307L56.592 60.1895C56.592 60.1895 57.564 60.6225 59.616 60.1895L59.724 60.7307C58.968 60.839 58.32 60.9472 57.888 60.9472Z" fill="white"/>
<path d="M212.109 72.8554H158.865C155.841 72.8554 153.357 70.3655 153.357 67.3344V13.8566C153.357 10.8254 155.841 8.33557 158.865 8.33557H212.109C215.133 8.33557 217.617 10.8254 217.617 13.8566V67.3344C217.725 70.3655 215.241 72.8554 212.109 72.8554Z" fill="#0064B7"/>
<path d="M205.74 61.4887H165.24C162.432 61.4887 160.272 59.2153 160.272 56.509V53.1531C160.272 50.3384 162.54 48.1733 165.24 48.1733H205.74C208.548 48.1733 210.708 50.4467 210.708 53.1531V56.509C210.708 59.2153 208.548 61.4887 205.74 61.4887Z" fill="white"/>
<path d="M169.238 54.7768L170.75 55.5346L170.102 56.6171L168.59 55.7511V57.3749H167.294V55.7511L165.782 56.6171L165.134 55.5346L166.646 54.7768L165.134 53.9108L165.782 52.8282L167.294 53.6943V52.0704H168.59V53.6943L170.102 52.8282L170.75 53.9108L169.238 54.7768Z" fill="#DBE9F8"/>
<path d="M177.984 54.7768L179.496 55.5346L178.848 56.6171L177.336 55.7511V57.3749H176.04V55.7511L174.528 56.6171L173.88 55.5346L175.392 54.7768L173.88 53.9108L174.528 52.8282L176.04 53.6943V52.0704H177.336V53.6943L178.848 52.8282L179.496 53.9108L177.984 54.7768Z" fill="#DBE9F8"/>
<path d="M186.734 54.7768L188.246 55.5346L187.598 56.6171L186.086 55.7511V57.3749H184.79V55.7511L183.278 56.6171L182.63 55.5346L184.142 54.7768L182.63 53.9108L183.278 52.8282L184.79 53.6943V52.0704H186.086V53.6943L187.598 52.8282L188.246 53.9108L186.734 54.7768Z" fill="#DBE9F8"/>
<path d="M195.48 54.7768L196.992 55.5346L196.344 56.6171L194.832 55.7511V57.3749H193.536V55.7511L192.024 56.6171L191.376 55.5346L192.888 54.7768L191.376 53.9108L192.024 52.8282L193.536 53.6943V52.0704H194.832V53.6943L196.344 52.8282L196.992 53.9108L195.48 54.7768Z" fill="#DBE9F8"/>
<path d="M204.335 54.7768L205.847 55.5346L205.199 56.6171L203.687 55.7511V57.3749H202.391V55.7511L200.879 56.6171L200.231 55.5346L201.743 54.7768L200.231 53.9108L200.879 52.8282L202.391 53.6943V52.0704H203.687V53.6943L205.199 52.8282L205.847 53.9108L204.335 54.7768Z" fill="#DBE9F8"/>
<path d="M185.545 42.8687C193.538 42.8687 200.017 36.3741 200.017 28.3626C200.017 20.3511 193.538 13.8564 185.545 13.8564C177.553 13.8564 171.073 20.3511 171.073 28.3626C171.073 36.3741 177.553 42.8687 185.545 42.8687Z" fill="#ECECEC"/>
<path d="M191.159 27.4965H179.819C178.955 27.4965 178.307 28.146 178.307 29.012V35.9403C178.307 36.8064 178.955 37.4559 179.819 37.4559H191.159C192.023 37.4559 192.671 36.8064 192.671 35.9403V29.012C192.671 28.2542 192.023 27.4965 191.159 27.4965ZM186.515 35.1825H184.463L184.895 32.3679C184.463 32.1514 184.139 31.7184 184.139 31.1771C184.139 30.4193 184.787 29.7698 185.543 29.7698C186.299 29.7698 186.947 30.4193 186.947 31.1771C186.947 31.7184 186.623 32.1514 186.191 32.3679L186.515 35.1825Z" fill="#007CFF"/>
<path d="M182.196 26.4139L181.98 25.3314C181.656 23.4911 182.844 21.6507 184.68 21.2177C186.516 20.8929 188.352 22.0837 188.784 23.9241L189 25.0066L190.944 24.5736L190.728 23.4911C190.08 20.4599 187.272 18.6196 184.248 19.1609C181.224 19.8104 179.388 22.625 179.928 25.6561L180.144 26.7387L182.196 26.4139Z" fill="#007CFF"/>
<path opacity="0.2" d="M193.538 66.252H177.446C177.014 66.252 176.69 65.9273 176.69 65.4942C176.69 65.0612 177.014 64.7365 177.446 64.7365H193.538C193.97 64.7365 194.294 65.0612 194.294 65.4942C194.294 65.9273 193.97 66.252 193.538 66.252Z" fill="black"/>
<path d="M57.1334 197.998C63.0384 197.998 67.8254 196.883 67.8254 195.508C67.8254 194.133 63.0384 193.018 57.1334 193.018C51.2284 193.018 46.4414 194.133 46.4414 195.508C46.4414 196.883 51.2284 197.998 57.1334 197.998Z" fill="#E7E6EC"/>
<path d="M41.3635 164.98C41.3635 164.98 43.5235 164.222 43.3075 161.624C43.1995 159.243 42.0115 157.511 44.4955 158.268C46.9795 158.918 47.9515 159.351 49.7875 158.918C51.6235 158.485 53.1355 157.727 52.2715 160.109C51.5155 162.49 50.5435 164.439 52.4875 164.872C54.3235 165.305 56.4835 163.789 56.6995 167.47C56.9155 171.151 53.8915 175.373 49.1395 175.589C44.2795 175.697 42.1195 173.749 42.1195 173.749C42.1195 173.749 40.8235 171.909 42.8755 171.476C44.8195 170.934 46.9795 170.176 45.8995 169.202C44.8195 168.228 41.5795 168.12 41.5795 168.12C41.5795 168.12 37.1515 167.47 41.3635 164.98Z" fill="#0064E1"/>
<path d="M63.61 165.522C63.178 163.14 63.502 161.408 67.93 160.758C72.466 160.109 74.95 162.707 75.166 165.522C75.382 168.336 71.602 169.202 71.602 169.202C71.602 169.202 68.794 169.96 70.306 172.342C71.71 174.723 72.25 176.997 69.226 177.43C66.094 177.863 62.746 176.888 60.802 175.698C58.966 174.507 56.914 171.151 59.074 169.419C59.074 169.419 59.722 168.986 61.882 168.878C63.826 168.878 63.61 165.522 63.61 165.522Z" fill="#0054A3"/>
<path d="M48.167 165.305C48.167 165.305 51.839 173.532 52.271 179.27" stroke="#A0D8FD" stroke-miterlimit="10" stroke-linecap="round" stroke-linejoin="round"/>
<path d="M68.3666 166.604C68.3666 166.604 61.8866 176.239 60.2666 179.486" stroke="#719DD1" stroke-miterlimit="10" stroke-linecap="round" stroke-linejoin="round"/>
<path d="M50.0024 178.512H64.7984C64.7984 178.512 66.4184 178.62 66.2024 180.894C66.0944 182.842 63.3944 182.517 62.0984 182.517C60.8024 182.517 49.5704 182.517 49.5704 182.517C49.5704 182.517 47.7344 182.734 47.7344 180.785C47.8424 178.728 48.4904 178.512 50.0024 178.512Z" fill="#0064E1"/>
<path d="M49.5703 182.518L51.8383 195.616H61.8823L63.6103 185.657L49.6783 182.518H49.5703Z" fill="#0064E1"/>
<path d="M49.6797 182.518L63.6117 185.657L64.1517 182.518H49.6797Z" fill="#0064B7"/>
<path d="M56.0518 179.053C56.0518 179.053 56.8078 164.439 61.1278 155.346" stroke="#FCBE42" stroke-width="0.5" stroke-miterlimit="10"/>
<path d="M64.799 150.041C64.799 150.041 65.231 154.588 60.803 156.32C60.695 156.32 59.723 152.423 64.799 150.041Z" fill="#FCBE42"/>
<path d="M58.2109 164.223C58.2109 164.223 59.8309 160.325 64.6909 160.867C64.7989 160.975 64.3669 164.764 58.2109 164.223Z" fill="#FCBE42"/>
<path d="M56.5898 173.966C56.5898 173.966 57.3458 169.852 62.4218 169.419C62.4218 169.419 62.6378 173.1 56.5898 173.966Z" fill="#FCBE42"/>
<path d="M56.3744 173.966C56.3744 173.966 56.9144 169.852 52.3784 167.687C52.4864 167.687 50.8664 171.151 56.3744 173.966Z" fill="#FCBE42"/>
<path d="M58.2116 164.223C58.2116 164.223 59.2916 160.217 55.0796 157.619C55.1876 157.619 53.1356 160.759 58.2116 164.223Z" fill="#FCBE42"/>
<path d="M89.5295 189.879H82.7255C82.4015 189.879 82.2935 189.987 82.2935 190.203L81.2135 194.101C81.1055 194.425 81.3215 194.75 81.8615 194.858H81.9695C84.2375 194.858 85.8575 194.75 88.6655 194.75C90.2855 194.75 95.6855 194.858 97.9535 194.858C100.33 194.858 100.654 193.018 99.5735 192.91C95.2535 192.152 91.9055 191.178 90.5015 190.203C90.1775 189.987 89.8535 189.879 89.5295 189.879Z" fill="#170856"/>
<path d="M118.906 189.879H112.102C111.778 189.879 111.67 189.987 111.67 190.203L110.59 194.101C110.482 194.425 110.698 194.75 111.238 194.858H111.346C113.614 194.858 115.234 194.75 118.042 194.75C119.662 194.75 125.062 194.858 127.33 194.858C129.598 194.858 130.03 193.018 128.95 192.91C124.63 192.152 121.282 191.178 119.878 190.203C119.554 189.987 119.23 189.879 118.906 189.879Z" fill="#170856"/>
<path d="M85.1018 90.176H115.45C118.366 102.301 126.466 151.556 120.094 189.879L110.05 190.745C110.05 190.745 111.562 131.854 102.706 113.018C101.734 123.085 100.438 133.803 99.3578 139.54C96.6578 153.613 90.8258 190.095 90.8258 190.095L80.6738 190.312C80.6738 190.312 82.9418 154.804 83.9138 141.056C84.8858 126.008 85.1018 93.2072 85.1018 90.176Z" fill="#EE384E"/>
<path opacity="0.2" d="M102.599 113.018C104.003 115.833 104.975 119.297 105.947 123.194C106.811 114.209 103.463 104.791 103.463 104.791L102.599 113.018Z" fill="black"/>
<path d="M142.883 65.3859L149.039 60.9474C149.039 60.9474 151.091 61.3805 152.279 60.6227C153.359 59.9731 158.435 55.8595 158.003 54.9934C157.571 54.1274 155.411 53.3696 154.439 53.2614C153.467 53.2614 147.851 57.5915 147.851 57.5915C147.851 57.5915 138.239 62.5713 135.647 63.5455C132.299 64.7364 128.303 66.2519 127.547 66.3602C126.467 66.6849 125.819 66.0354 125.819 66.0354L119.771 57.6998L114.479 62.2465L114.803 64.3033C114.803 64.3033 120.743 70.6904 123.443 73.072C126.143 75.5618 130.139 73.1802 130.139 73.1802L142.883 65.3859Z" fill="#EEBD98"/>
<path d="M110.159 58.7823L114.371 63.6537L120.419 57.6997C120.419 57.6997 115.991 52.5035 114.479 51.3127C112.967 50.2302 109.295 48.0651 109.295 48.0651L110.159 58.7823Z" fill="#0064B7"/>
<path d="M104.756 36.3735C104.756 36.3735 104.756 36.3735 104.756 40.8119C104.756 45.2503 108.968 48.498 108.968 48.498C108.968 48.498 108.968 51.3126 104.54 52.2869C100.112 53.0447 95.792 47.8485 95.792 47.8485C95.792 47.8485 96.44 46.3329 97.844 42.6522C99.248 38.8633 99.896 35.3992 99.896 35.3992L104.756 36.3735Z" fill="#EBB28E"/>
<path d="M95.4693 45.6835C95.4693 45.6835 92.4453 46.333 88.9893 50.555C85.7493 54.7769 84.7773 74.9123 84.7773 74.9123L85.1013 90.0679H115.449C115.449 90.0679 115.773 79.5672 115.449 69.8243C115.125 60.2979 114.693 55.8595 113.073 52.9366C111.561 49.9054 109.941 47.9569 108.861 47.0908C108.105 46.333 107.133 46.9826 107.133 46.9826L106.485 47.9569C106.485 47.9569 105.081 50.3385 102.057 49.4724C98.9253 48.8229 96.8733 45.6835 96.8733 45.6835C96.2253 44.7092 95.4693 45.6835 95.4693 45.6835Z" fill="#0083F9"/>
<path d="M105.404 25.3314C102.272 25.3314 98.8164 31.9349 98.8164 34.7496C98.8164 37.5642 100.22 37.5642 100.868 39.188C101.516 40.7036 106.052 42.3274 108.104 42.3274C110.156 42.3274 111.236 38.5385 111.236 33.5588C111.236 28.579 108.86 25.2231 108.86 25.2231C108.86 25.2231 108.104 25.3314 105.404 25.3314Z" fill="#EEBD98"/>
<path d="M106.701 26.8471C103.893 27.4967 103.569 27.4967 102.273 28.904C100.869 30.3113 100.221 34.1002 100.221 34.1002C100.221 34.1002 99.7893 36.157 99.4653 37.2396C99.0333 38.2139 98.7093 39.6212 98.7093 40.379C98.6013 41.1367 97.9533 41.1367 97.1973 41.1367C96.5493 41.1367 95.1453 40.379 93.4173 37.3478C91.9053 34.2084 92.4453 31.2856 92.6613 30.7443C93.4173 29.2287 93.4173 26.3059 93.4173 25.5481C93.4173 24.7903 93.4173 24.0325 94.9293 22.4087C96.3333 20.8931 103.677 20.8931 103.677 20.8931C104.433 20.8931 106.053 20.8931 106.809 20.1353C107.565 19.3775 110.589 17.7537 111.993 18.6198C113.397 19.3775 111.345 25.2233 111.345 25.2233C110.481 27.6049 109.833 25.8728 106.701 26.8471Z" fill="#1A1155"/>
<path d="M98.8164 32.6928C98.8164 35.0744 100.868 34.2084 100.868 34.2084C100.868 34.2084 102.272 31.8268 101.192 30.7442C100.22 29.3369 98.8164 30.4195 98.8164 32.6928Z" fill="#EEBD98"/>
<path d="M93.0954 63.6538C93.0954 63.6538 90.6114 66.1437 88.8834 73.505C86.8314 80.9745 88.5594 90.934 89.8554 95.8055C91.3674 100.785 93.0954 103.492 94.7154 105.007C96.2274 106.523 94.7154 106.523 92.9874 105.657C91.2594 104.682 92.5554 106.414 92.5554 106.414C92.5554 106.414 94.6074 107.497 95.6874 108.904C96.6594 109.987 95.2554 109.987 95.2554 109.987C95.6874 110.745 94.4994 110.745 94.4994 110.745C94.8234 112.26 92.9874 111.502 92.9874 111.502C92.9874 111.502 91.9074 110.745 90.2874 109.121C88.7754 107.605 87.5874 104.682 87.5874 102.192C87.4794 99.7026 86.8314 98.4036 85.1034 94.7229C83.5914 90.501 81.6474 84.98 80.9994 78.2682C80.3514 71.7729 83.1594 61.1639 83.1594 61.1639L93.0954 63.6538Z" fill="#EEBD98"/>
<path d="M92.7696 64.8446C90.7176 64.8446 83.2656 61.7052 83.2656 61.7052C83.2656 61.7052 83.9136 59.3236 85.1016 56.4008C86.1816 53.2614 88.5576 48.7147 92.1216 49.1477C95.5776 49.5807 95.2536 54.4522 95.2536 54.4522C94.6056 59.4319 92.8776 64.7364 92.7696 64.8446Z" fill="#0064B7"/>
</svg>
