<svg width="264" height="287" viewBox="0 0 264 287" fill="none" xmlns="http://www.w3.org/2000/svg">
<path d="M253.511 212.341C250.061 214.981 243.298 214.009 239.434 209.007C235.57 204.144 230.188 207.617 228.393 211.925C226.599 216.232 223.011 220.956 218.595 221.095C214.179 221.234 204.38 224.29 202.586 231.237C200.792 238.185 218.733 238.046 222.735 236.656C226.737 235.267 229.498 239.574 237.088 242.353C244.541 245.132 245.093 238.74 246.611 235.823C248.129 232.905 249.785 230.126 256.961 232.349C264.138 234.572 264 220.817 264 220.817C263.862 211.786 256.961 209.702 253.511 212.341Z" fill="#033E9F"/>
<path d="M196.512 229.848L254.752 222.067" stroke="white" stroke-width="0.733333" stroke-miterlimit="10" stroke-linecap="round" stroke-linejoin="round"/>
<path d="M236.674 212.897L231.153 225.263L240.538 235.406" stroke="white" stroke-width="0.733333" stroke-miterlimit="10" stroke-linecap="round" stroke-linejoin="round"/>
<path d="M233.639 190.667C234.467 194.974 241.091 196.919 230.05 204.144C219.01 211.369 234.881 212.203 223.426 224.985C211.971 237.768 202.173 222.762 198.86 213.036C195.548 203.171 207.141 204.839 211.419 199.42C215.697 194.001 210.315 192.473 210.039 187.332C209.763 182.191 219.976 181.219 223.564 181.496C227.152 181.774 225.772 178.301 228.808 174.688C231.845 171.076 239.711 172.882 241.367 178.023C243.023 183.164 236.951 185.665 236.951 185.665C236.951 185.665 232.811 186.359 233.639 190.667Z" fill="#EC384E"/>
<path d="M195.961 231.098C195.961 231.098 199.964 229.987 210.038 217.482C220.113 205.116 226.323 188.582 226.323 188.582" stroke="white" stroke-width="0.733333" stroke-miterlimit="10" stroke-linecap="round" stroke-linejoin="round"/>
<path d="M249.371 197.753C233.5 208.59 218.181 231.932 218.181 231.932" stroke="#FABC42" stroke-width="0.733333" stroke-miterlimit="10"/>
<path d="M247.716 199.003C256.548 200.393 260.274 192.612 260.274 192.612C249.924 191.778 247.716 199.003 247.716 199.003Z" stroke="#FABC42" stroke-width="0.733333" stroke-miterlimit="10"/>
<path d="M249.786 210.535C242.196 204.838 235.847 209.701 235.847 209.701C245.508 216.509 249.786 210.535 249.786 210.535Z" stroke="#FABC42" stroke-width="0.733333" stroke-miterlimit="10"/>
<path d="M237.778 222.067C229.222 218.038 223.977 223.874 223.977 223.874C234.742 228.737 237.778 222.067 237.778 222.067Z" stroke="#FABC42" stroke-width="0.733333" stroke-miterlimit="10"/>
<path d="M223.149 209.841C228.532 217.621 223.701 223.874 223.701 223.874C217.215 213.87 223.287 209.841 223.149 209.841Z" stroke="#FABC42" stroke-width="0.733333" stroke-miterlimit="10"/>
<path d="M237.364 195.668C241.642 204.144 236.122 209.702 236.122 209.702C230.877 199.003 237.364 195.668 237.364 195.668Z" stroke="#FABC42" stroke-width="0.733333" stroke-miterlimit="10"/>
<path d="M29.2326 44.4352C29.9341 44.0144 30.8459 44.0144 31.5473 44.4352C31.7578 44.5755 31.9682 44.6457 32.1085 44.7859C32.3189 44.9262 32.5293 44.9964 32.7398 45.0665C33.5113 45.4172 34.0023 46.1186 34.0023 46.9604L34.0725 49.8362L43.3313 49.5556L43.2612 46.6798C43.2612 45.8381 43.682 45.0665 44.4536 44.6457C44.8745 44.4352 45.2252 44.1547 45.646 43.9442C46.3475 43.4532 47.1892 43.3831 47.9607 43.8039L50.4859 45.1367L54.9049 36.93L52.3797 35.5972C51.6783 35.1764 51.1873 34.4048 51.2574 33.5631C51.2574 33.0721 51.2575 32.6512 51.1873 32.1603C51.1172 31.3185 51.4679 30.547 52.2394 30.056L54.6944 28.583L49.7845 20.6568L47.2593 22.2701C46.5579 22.691 45.646 22.691 44.9446 22.2701C44.7342 22.1298 44.5238 22.0597 44.3835 21.9194C44.173 21.7791 43.9626 21.709 43.7522 21.6388C42.9806 21.2881 42.4896 20.5867 42.4896 19.745L42.4195 16.8691L33.1606 17.1497L33.2308 20.0256C33.2308 20.8673 32.8099 21.6388 32.0383 22.0597C31.6175 22.2701 31.2668 22.5507 30.8459 22.7611C30.1445 23.2521 29.3028 23.3223 28.5312 22.9014L26.0061 21.5687L21.6572 29.7053L24.1824 31.038C24.8838 31.4588 25.3748 32.2304 25.3046 33.0721C25.3046 33.5631 25.3046 33.984 25.3748 34.475C25.4449 35.3167 25.0942 36.0882 24.3226 36.5792L21.9378 38.0522L26.8478 45.9784L29.2326 44.4352ZM31.5473 29.7754C33.5113 26.0578 38.1408 24.655 41.8583 26.6891C45.5759 28.6531 46.9787 33.2825 44.9446 37.0001C42.9806 40.7177 38.3512 42.1205 34.6336 40.0864C30.9862 38.0522 29.5834 33.4228 31.5473 29.7754Z" fill="#0064E1"/>
<path d="M244.079 156.243C244.36 155.752 244.921 155.471 245.482 155.471C245.623 155.471 245.833 155.471 245.973 155.471C246.114 155.471 246.324 155.471 246.464 155.471C247.025 155.471 247.587 155.752 247.867 156.243L248.849 157.996L254.461 154.77L253.479 153.016C253.198 152.525 253.198 151.894 253.549 151.403C253.759 151.122 253.899 150.842 254.04 150.561C254.32 150.07 254.811 149.719 255.443 149.719H257.407V143.196H255.443C254.881 143.196 254.32 142.845 254.04 142.354C253.899 142.074 253.759 141.793 253.549 141.513C253.198 141.022 253.198 140.39 253.479 139.899L254.461 138.146L248.849 134.919L247.867 136.673C247.587 137.164 247.025 137.444 246.464 137.444C246.324 137.444 246.114 137.444 245.973 137.444C245.833 137.444 245.623 137.444 245.482 137.444C244.921 137.444 244.36 137.164 244.079 136.673L243.097 134.919L237.486 138.146L238.468 139.899C238.749 140.39 238.749 141.022 238.398 141.513C238.187 141.793 238.047 142.074 237.907 142.354C237.626 142.845 237.135 143.196 236.504 143.196H234.54V149.719H236.504C237.065 149.719 237.626 150.07 237.907 150.561C238.047 150.842 238.187 151.122 238.398 151.403C238.749 151.894 238.749 152.525 238.468 153.016L237.486 154.77L243.097 157.996L244.079 156.243ZM240.642 146.423C240.642 143.477 243.027 141.092 245.973 141.092C248.919 141.092 251.304 143.477 251.304 146.423C251.304 149.369 248.919 151.753 245.973 151.753C243.027 151.753 240.642 149.369 240.642 146.423Z" fill="#0064E1"/>
<path d="M2.71841 57.2012C3.20941 57.4818 3.48998 58.0429 3.48998 58.6041C3.48998 58.7443 3.48998 58.9548 3.48998 59.0951C3.48998 59.2353 3.48998 59.4458 3.48998 59.5861C3.48998 60.1472 3.20941 60.7083 2.71841 60.9889L0.964844 62.041L4.19141 67.6525L5.94498 66.6705C6.43598 66.3899 7.06726 66.3899 7.55826 66.7406C7.83883 66.951 8.1194 67.0913 8.39997 67.2316C8.89097 67.5122 9.24168 68.0032 9.24168 68.6345V70.5985H15.765V68.6345C15.765 68.0733 16.1157 67.5122 16.6067 67.2316C16.8872 67.0913 17.1678 66.951 17.4484 66.7406C17.9394 66.3899 18.5707 66.3899 19.0617 66.6705L20.8152 67.6525L24.0418 62.041L22.2882 61.059C21.7972 60.7785 21.5167 60.2173 21.5167 59.6562C21.5167 59.5159 21.5167 59.3055 21.5167 59.1652C21.5167 59.0249 21.5167 58.8145 21.5167 58.6742C21.5167 58.1131 21.7972 57.5519 22.2882 57.2713L24.0418 56.2893L20.8152 50.6779L19.0617 51.6599C18.5707 51.9405 17.9394 51.9405 17.4484 51.5898C17.1678 51.3794 16.8872 51.2391 16.6067 51.0988C16.1157 50.8182 15.765 50.3272 15.765 49.6959V47.7319H9.24168V49.6959C9.24168 50.2571 8.89097 50.8182 8.39997 51.0988C8.1194 51.2391 7.83883 51.3794 7.55826 51.5898C7.06726 51.9405 6.43598 51.9405 5.94498 51.6599L4.19141 50.6779L0.964844 56.2893L2.71841 57.2012ZM12.5384 53.7642C15.4844 53.7642 17.8692 56.1491 17.8692 59.0951C17.8692 62.0411 15.4844 64.4259 12.5384 64.4259C9.5924 64.4259 7.20755 62.0411 7.20755 59.0951C7.20755 56.1491 9.5924 53.7642 12.5384 53.7642Z" fill="#EC384E"/>
<path d="M202.343 0.31543H83.802C77.2086 0.31543 71.8076 5.78656 71.8076 12.5203V256.617C71.8076 263.351 77.2086 268.822 83.802 268.822H202.343C208.937 268.822 214.338 263.351 214.338 256.617V12.5203C214.338 5.78656 208.937 0.31543 202.343 0.31543ZM206.832 249.112C206.832 255.565 201.992 260.755 196.101 260.755H90.0447C84.0826 260.755 79.3129 255.565 79.3129 249.112V21.7791C79.3129 8.66241 84.1527 8.03113 90.0447 8.03113H111.298C112.561 8.03113 113.543 9.43398 113.543 11.1875V11.9591C113.543 16.0274 115.787 16.0274 118.523 16.0274H167.693C170.428 16.0274 172.673 16.0274 172.673 11.9591V11.1875C172.673 9.43398 173.655 8.03113 174.917 8.03113H196.171C202.133 8.03113 206.902 9.7847 206.902 21.7791V249.112H206.832Z" fill="#0064B7"/>
<path d="M149.736 10.9771H136.339C135.848 10.9771 135.497 10.6264 135.497 10.1354C135.497 9.64442 135.848 9.2937 136.339 9.2937H149.736C150.227 9.2937 150.578 9.64442 150.578 10.1354C150.578 10.6264 150.227 10.9771 149.736 10.9771Z" fill="white"/>
<path d="M206.834 21.779V249.112C206.834 255.565 201.994 260.755 196.102 260.755H90.0463C84.0842 260.755 79.3145 255.565 79.3145 249.112V21.779C79.3145 8.66229 84.1543 8.03101 90.0463 8.03101H111.3C112.562 8.03101 113.544 9.43386 113.544 11.1874V11.959C113.544 16.0273 115.789 16.0273 118.524 16.0273H167.694C170.43 16.0273 172.674 16.0273 172.674 11.959V11.1874C172.674 9.43386 173.656 8.03101 174.919 8.03101H196.172C202.064 8.10115 206.834 9.78457 206.834 21.779Z" fill="white"/>
<path d="M92.1521 30.4765L88.4346 26.9694L92.1521 23.3921L92.7834 24.0234L89.627 26.9694L92.7834 29.8452L92.1521 30.4765Z" fill="#C7C7C7"/>
<path d="M196.944 24.7247C196.944 25.1456 196.594 25.4963 196.173 25.4963C195.752 25.4963 195.401 25.1456 195.401 24.7247C195.401 24.3038 195.752 23.9531 196.173 23.9531C196.594 23.9531 196.944 24.3038 196.944 24.7247Z" fill="#C7C7C7"/>
<path d="M196.944 27.3905C196.944 27.8113 196.594 28.162 196.173 28.162C195.752 28.162 195.401 27.8113 195.401 27.3905C195.401 26.9696 195.752 26.6189 196.173 26.6189C196.594 26.6189 196.944 26.9696 196.944 27.3905Z" fill="#C7C7C7"/>
<path d="M196.944 30.056C196.944 30.4768 196.594 30.8276 196.173 30.8276C195.752 30.8276 195.401 30.4768 195.401 30.056C195.401 29.6351 195.752 29.2844 196.173 29.2844C196.594 29.2844 196.944 29.6351 196.944 30.056Z" fill="#C7C7C7"/>
<path d="M107.582 13.1516C107.511 13.2217 107.441 13.2919 107.371 13.362C107.301 13.4322 107.301 13.4322 107.231 13.5023C106.67 12.9412 106.038 12.6606 105.267 12.6606C104.495 12.6606 103.864 12.9412 103.303 13.5023C103.233 13.4322 103.233 13.4322 103.163 13.362C103.092 13.2919 103.022 13.2217 102.952 13.1516C103.022 13.0815 103.092 13.0113 103.233 12.9412C103.443 12.8009 103.654 12.6606 103.864 12.5905C104.145 12.4502 104.355 12.38 104.636 12.3099C104.776 12.3099 104.916 12.2397 105.056 12.2397C105.127 12.2397 105.407 12.2397 105.407 12.2397C105.477 12.2397 105.618 12.2397 105.688 12.2397C105.968 12.2397 106.179 12.3099 106.389 12.38C106.529 12.4502 106.74 12.5203 106.88 12.5905C107.02 12.6606 107.231 12.8009 107.371 12.9412C107.441 13.0113 107.511 13.0815 107.582 13.1516Z" fill="#C7C7C7"/>
<path d="M104.004 14.1336C103.864 13.9933 103.794 13.9231 103.653 13.7829C104.004 13.4322 104.425 13.2217 104.986 13.1516C105.758 13.0814 106.389 13.2919 106.95 13.7829C106.81 13.9231 106.74 13.9933 106.599 14.1336C106.249 13.7829 105.758 13.5724 105.267 13.5724C104.776 13.5724 104.355 13.7829 104.004 14.1336Z" fill="#C7C7C7"/>
<path d="M106.319 14.4843C106.179 14.6246 106.109 14.6948 105.968 14.835C105.758 14.6246 105.548 14.5545 105.267 14.5545C104.986 14.5545 104.776 14.6246 104.566 14.835C104.425 14.6948 104.355 14.6246 104.215 14.4843C104.846 13.9232 105.758 13.9232 106.319 14.4843Z" fill="#C7C7C7"/>
<path d="M105.617 15.1155C105.617 15.2558 105.477 15.396 105.336 15.396C105.196 15.396 105.056 15.2558 105.056 15.1155C105.056 14.9752 105.196 14.8349 105.336 14.8349C105.477 14.7648 105.617 14.905 105.617 15.1155Z" fill="#C7C7C7"/>
<path d="M87.5918 13.7829C87.5918 13.2919 87.9425 12.9412 88.4335 12.9412C88.9245 12.9412 89.2752 13.2919 89.2752 13.7829C89.2752 14.2739 88.9245 14.6246 88.4335 14.6246C87.9425 14.6246 87.5918 14.2739 87.5918 13.7829Z" fill="#C7C7C7"/>
<path d="M90.2568 13.7829C90.2568 13.2919 90.6075 12.9412 91.0985 12.9412C91.5895 12.9412 91.9403 13.2919 91.9403 13.7829C91.9403 14.2739 91.5895 14.6246 91.0985 14.6246C90.6075 14.6246 90.2568 14.2739 90.2568 13.7829Z" fill="#C7C7C7"/>
<path d="M92.9219 13.7829C92.9219 13.2919 93.2726 12.9412 93.7636 12.9412C94.2546 12.9412 94.6053 13.2919 94.6053 13.7829C94.6053 14.2739 94.2546 14.6246 93.7636 14.6246C93.2726 14.6246 92.9219 14.2739 92.9219 13.7829Z" fill="#C7C7C7"/>
<path d="M95.5889 13.7829C95.5889 13.2919 95.9396 12.9412 96.4306 12.9412C96.9216 12.9412 97.2723 13.2919 97.2723 13.7829C97.2723 14.2739 96.9216 14.6246 96.4306 14.6246C95.9396 14.6246 95.5889 14.2739 95.5889 13.7829Z" fill="#C7C7C7"/>
<path d="M98.2539 13.7829C98.2539 13.2919 98.6046 12.9412 99.0956 12.9412C99.5866 12.9412 99.9373 13.2919 99.9373 13.7829C99.9373 14.2739 99.5866 14.6246 99.0956 14.6246C98.6046 14.6246 98.2539 14.2739 98.2539 13.7829Z" fill="#C7C7C7"/>
<path d="M197.295 15.6768H190.421V12.4502H197.295V15.6768ZM190.772 15.2559H196.944V12.8009H190.772V15.2559Z" fill="#C7C7C7"/>
<path d="M195.401 13.0117H190.982V15.116H195.401V13.0117Z" fill="#C7C7C7"/>
<path d="M197.926 13.2224H197.295V14.9058H197.926V13.2224Z" fill="#C7C7C7"/>
<path d="M98.6741 246.797H97.6921V251.286H95.8684V249.041H92.6418V251.286H90.8181V246.797H89.9062L94.2551 242.308L98.6741 246.797Z" fill="#EBEBEB"/>
<path d="M196.242 242.308H185.65V243.851H196.242V242.308Z" fill="#EBEBEB"/>
<path d="M196.242 246.025H185.65V247.568H196.242V246.025Z" fill="#EBEBEB"/>
<path d="M196.242 249.743H185.65V251.286H196.242V249.743Z" fill="#EBEBEB"/>
<path d="M146.091 246.165L143.075 249.392L140.059 246.165L140.55 245.674L143.075 248.34L145.53 245.674L146.091 246.165Z" fill="#EBEBEB"/>
<path d="M143.076 252.689C140.059 252.689 137.604 250.234 137.604 247.217C137.604 244.201 140.059 241.746 143.076 241.746C146.092 241.746 148.547 244.201 148.547 247.217C148.547 250.234 146.092 252.689 143.076 252.689ZM143.076 242.518C140.48 242.518 138.306 244.622 138.306 247.288C138.306 249.953 140.41 252.057 143.076 252.057C145.671 252.057 147.845 249.953 147.845 247.288C147.845 244.622 145.671 242.518 143.076 242.518Z" fill="#EBEBEB"/>
<path d="M195.125 212.076H117.536C117.075 212.076 116.7 212.451 116.7 212.912C116.7 213.374 117.075 213.748 117.536 213.748H195.125C195.587 213.748 195.961 213.374 195.961 212.912C195.961 212.451 195.587 212.076 195.125 212.076Z" fill="#DCE8F5"/>
<path d="M195.125 216.152H117.536C117.075 216.152 116.7 216.526 116.7 216.988C116.7 217.45 117.075 217.824 117.536 217.824H195.125C195.587 217.824 195.961 217.45 195.961 216.988C195.961 216.526 195.587 216.152 195.125 216.152Z" fill="#DCE8F5"/>
<path d="M195.125 220.333H117.536C117.075 220.333 116.7 220.707 116.7 221.169C116.7 221.631 117.075 222.005 117.536 222.005H195.125C195.587 222.005 195.961 221.631 195.961 221.169C195.961 220.707 195.587 220.333 195.125 220.333Z" fill="#DCE8F5"/>
<path d="M195.125 224.931H117.536C117.075 224.931 116.7 225.306 116.7 225.768C116.7 226.229 117.075 226.604 117.536 226.604H195.125C195.587 226.604 195.961 226.229 195.961 225.768C195.961 225.306 195.587 224.931 195.125 224.931Z" fill="#DCE8F5"/>
<path d="M180.11 113.175C180.11 113.175 174.779 156.032 165.941 165.642C155.42 177.215 147.704 175.532 143.495 181.494C139.217 175.532 131.571 177.215 120.98 165.642C112.212 156.032 106.881 113.175 106.881 113.175C130.028 101.952 143.495 89.3267 143.495 89.3267C143.916 89.7475 157.313 102.093 180.11 113.175Z" fill="#0064B7"/>
<path d="M143.495 89.3267V181.494C139.217 175.532 131.571 177.215 120.98 165.642C112.212 156.032 106.881 113.175 106.881 113.175C130.028 101.952 143.495 89.3267 143.495 89.3267Z" fill="#0064B7"/>
<path d="M174.428 116.612C174.428 116.612 169.939 152.806 162.504 160.942C153.596 170.692 147.073 169.289 143.495 174.34C139.918 169.289 133.395 170.762 124.487 160.942C117.052 152.806 112.562 116.612 112.562 116.612C132.132 107.143 143.495 96.4812 143.495 96.4812C143.495 96.4812 154.859 107.143 174.428 116.612Z" fill="#005397"/>
<path d="M112.562 116.612C112.562 116.612 117.052 152.806 124.487 160.942C133.395 170.692 139.848 169.289 143.495 174.34V96.4812C143.145 96.8319 131.852 107.283 112.562 116.612Z" fill="#004D8C"/>
<path d="M153.656 145.596C159.271 139.98 159.271 130.876 153.656 125.26C148.041 119.645 138.936 119.645 133.321 125.26C127.705 130.876 127.705 139.98 133.321 145.596C138.936 151.211 148.041 151.211 153.656 145.596Z" fill="#0064B5"/>
<path d="M141.881 144.739L135.498 138.076L137.883 135.831L141.39 139.479L148.965 127.835L151.701 129.659L141.881 144.739Z" fill="white"/>
<path d="M90.9277 226.784H106.811C108.16 226.784 109.302 225.635 109.302 224.172V211.108L96.5335 211.212V209.435H90.9277V217.587V225.844V226.784Z" fill="#407CCA"/>
<path d="M104.631 207.868H93.627V220.409H104.631V207.868Z" fill="white"/>
<path d="M108.161 226.68L108.057 214.138H94.3541V217.901H88.6445V226.784" fill="#0064B5"/>
<path d="M109.407 214.138V225.426C109.407 226.157 108.887 226.68 108.161 226.68C107.434 226.68 106.915 226.157 106.915 225.426V214.138H109.407Z" fill="#407CCA"/>
<path d="M103.906 209.749H94.459V210.062H103.906V209.749Z" fill="#407CCA"/>
<path d="M103.906 210.585H94.459V210.898H103.906V210.585Z" fill="#407CCA"/>
<path d="M103.906 211.421H94.459V211.734H103.906V211.421Z" fill="#407CCA"/>
<path d="M98.7152 212.362H94.459V212.675H98.7152V212.362Z" fill="#407CCA"/>
<path d="M186.57 54.5767H132.41C132.173 54.5767 131.98 54.7691 131.98 55.0065C131.98 55.2439 132.173 55.4364 132.41 55.4364H186.57C186.807 55.4364 187 55.2439 187 55.0065C187 54.7691 186.807 54.5767 186.57 54.5767Z" fill="#0064B7"/>
<path d="M193.824 43.032H125.277C123.252 43.032 121.61 44.6736 121.61 46.6986V70.9295C121.61 72.9546 123.252 74.5962 125.277 74.5962H193.824C195.849 74.5962 197.49 72.9546 197.49 70.9295V46.6986C197.49 44.6736 195.849 43.032 193.824 43.032Z" stroke="#407CCA" stroke-width="0.366667" stroke-miterlimit="10"/>
<path d="M132.506 50.5393V47.4153H133.808C133.946 47.4153 134.072 47.4446 134.187 47.5033C134.304 47.559 134.404 47.6353 134.486 47.7321C134.571 47.826 134.637 47.933 134.684 48.0533C134.731 48.1706 134.754 48.2909 134.754 48.4141C134.754 48.5432 134.732 48.6678 134.688 48.7881C134.644 48.9084 134.581 49.0154 134.499 49.1093C134.42 49.2032 134.323 49.278 134.209 49.3337C134.097 49.3894 133.973 49.4173 133.835 49.4173H132.902V50.5393H132.506ZM132.902 49.0653H133.813C133.895 49.0653 133.968 49.0492 134.033 49.0169C134.1 48.9817 134.157 48.9348 134.204 48.8761C134.251 48.8145 134.288 48.7441 134.314 48.6649C134.341 48.5857 134.354 48.5021 134.354 48.4141C134.354 48.3232 134.338 48.2381 134.305 48.1589C134.276 48.0797 134.235 48.0108 134.182 47.9521C134.132 47.8934 134.072 47.848 134.002 47.8157C133.934 47.7834 133.863 47.7673 133.786 47.7673H132.902V49.0653ZM135.247 50.5393V47.4153H136.585C136.723 47.4153 136.849 47.4446 136.963 47.5033C137.081 47.559 137.18 47.6353 137.262 47.7321C137.348 47.826 137.414 47.933 137.46 48.0533C137.507 48.1706 137.531 48.2909 137.531 48.4141C137.531 48.5226 137.515 48.6282 137.482 48.7309C137.453 48.8306 137.409 48.9216 137.35 49.0037C137.295 49.0858 137.226 49.1562 137.144 49.2149C137.064 49.2736 136.975 49.3161 136.875 49.3425L137.632 50.5393H137.183L136.47 49.4173H135.643V50.5393H135.247ZM135.643 49.0653H136.589C136.671 49.0653 136.745 49.0477 136.809 49.0125C136.877 48.9773 136.934 48.9304 136.981 48.8717C137.028 48.8101 137.064 48.7397 137.091 48.6605C137.117 48.5813 137.13 48.4992 137.13 48.4141C137.13 48.3261 137.114 48.244 137.082 48.1677C137.053 48.0885 137.012 48.0196 136.959 47.9609C136.909 47.8993 136.849 47.8524 136.778 47.8201C136.711 47.7849 136.639 47.7673 136.563 47.7673H135.643V49.0653ZM139.406 50.5613C139.186 50.5613 138.985 50.5173 138.803 50.4293C138.625 50.3384 138.471 50.2196 138.341 50.0729C138.212 49.9233 138.113 49.7532 138.042 49.5625C137.972 49.3718 137.937 49.1768 137.937 48.9773C137.937 48.769 137.973 48.5696 138.047 48.3789C138.123 48.1882 138.227 48.0196 138.359 47.8729C138.491 47.7262 138.647 47.6104 138.825 47.5253C139.007 47.4373 139.204 47.3933 139.415 47.3933C139.635 47.3933 139.835 47.4402 140.013 47.5341C140.192 47.625 140.346 47.7453 140.475 47.8949C140.605 48.0445 140.704 48.2146 140.775 48.4053C140.845 48.593 140.88 48.7852 140.88 48.9817C140.88 49.19 140.842 49.3894 140.766 49.5801C140.693 49.7708 140.59 49.9394 140.458 50.0861C140.329 50.2298 140.173 50.3457 139.991 50.4337C139.813 50.5188 139.617 50.5613 139.406 50.5613ZM138.337 48.9773C138.337 49.1357 138.362 49.2897 138.412 49.4393C138.465 49.586 138.538 49.7165 138.632 49.8309C138.726 49.9453 138.839 50.0362 138.971 50.1037C139.103 50.1712 139.249 50.2049 139.411 50.2049C139.578 50.2049 139.727 50.1697 139.859 50.0993C139.991 50.026 140.103 49.9321 140.194 49.8177C140.288 49.7004 140.358 49.5684 140.405 49.4217C140.455 49.275 140.48 49.1269 140.48 48.9773C140.48 48.8189 140.453 48.6664 140.401 48.5197C140.351 48.3701 140.277 48.2396 140.181 48.1281C140.087 48.0137 139.974 47.9228 139.842 47.8553C139.713 47.7878 139.569 47.7541 139.411 47.7541C139.243 47.7541 139.094 47.7893 138.962 47.8597C138.83 47.9301 138.717 48.0225 138.623 48.1369C138.532 48.2513 138.462 48.3818 138.412 48.5285C138.362 48.6752 138.337 48.8248 138.337 48.9773ZM141.43 50.5393V47.4153H143.494V47.7673H141.826V48.8101H143.23V49.1401H141.826V50.5393H141.43ZM143.996 50.5393V47.4153H144.392V50.5393H143.996ZM145.139 50.5393V47.4153H145.535V50.1873H147.277V50.5393H145.139ZM149.829 50.1873V50.5393H147.708V47.4153H149.789V47.7673H148.104V48.7793H149.569V49.1093H148.104V50.1873H149.829ZM132.902 53.1545V55.5393H132.506V52.4153H132.814L134.75 54.8485V52.4197H135.146V55.5393H134.811L132.902 53.1545ZM135.892 55.5393V52.4153H137.955V52.7673H136.288V53.8101H137.691V54.1401H136.288V55.5393H135.892ZM139.668 55.5613C139.448 55.5613 139.247 55.5173 139.066 55.4293C138.887 55.3384 138.733 55.2196 138.604 55.0729C138.474 54.9233 138.375 54.7532 138.304 54.5625C138.234 54.3718 138.199 54.1768 138.199 53.9773C138.199 53.769 138.235 53.5696 138.309 53.3789C138.385 53.1882 138.489 53.0196 138.621 52.8729C138.753 52.7262 138.909 52.6104 139.088 52.5253C139.269 52.4373 139.466 52.3933 139.677 52.3933C139.897 52.3933 140.097 52.4402 140.276 52.5341C140.454 52.625 140.608 52.7453 140.738 52.8949C140.867 53.0445 140.966 53.2146 141.037 53.4053C141.107 53.593 141.142 53.7852 141.142 53.9817C141.142 54.19 141.104 54.3894 141.028 54.5801C140.955 54.7708 140.852 54.9394 140.72 55.0861C140.591 55.2298 140.435 55.3457 140.254 55.4337C140.075 55.5188 139.88 55.5613 139.668 55.5613ZM138.599 53.9773C138.599 54.1357 138.624 54.2897 138.674 54.4393C138.727 54.586 138.8 54.7165 138.894 54.8309C138.988 54.9453 139.101 55.0362 139.233 55.1037C139.365 55.1712 139.511 55.2049 139.673 55.2049C139.84 55.2049 139.99 55.1697 140.122 55.0993C140.254 55.026 140.365 54.9321 140.456 54.8177C140.55 54.7004 140.62 54.5684 140.667 54.4217C140.717 54.275 140.742 54.1269 140.742 53.9773C140.742 53.8189 140.716 53.6664 140.663 53.5197C140.613 53.3701 140.54 53.2396 140.443 53.1281C140.349 53.0137 140.236 52.9228 140.104 52.8553C139.975 52.7878 139.831 52.7541 139.673 52.7541C139.506 52.7541 139.356 52.7893 139.224 52.8597C139.092 52.9301 138.979 53.0225 138.885 53.1369C138.794 53.2513 138.724 53.3818 138.674 53.5285C138.624 53.6752 138.599 53.8248 138.599 53.9773ZM141.693 55.5393V52.4153H143.03C143.168 52.4153 143.294 52.4446 143.409 52.5033C143.526 52.559 143.626 52.6353 143.708 52.7321C143.793 52.826 143.859 52.933 143.906 53.0533C143.953 53.1706 143.976 53.2909 143.976 53.4141C143.976 53.5226 143.96 53.6282 143.928 53.7309C143.898 53.8306 143.854 53.9216 143.796 54.0037C143.74 54.0858 143.671 54.1562 143.589 54.2149C143.51 54.2736 143.42 54.3161 143.321 54.3425L144.077 55.5393H143.629L142.916 54.4173H142.089V55.5393H141.693ZM142.089 54.0653H143.035C143.117 54.0653 143.19 54.0477 143.255 54.0125C143.322 53.9773 143.379 53.9304 143.426 53.8717C143.473 53.8101 143.51 53.7397 143.536 53.6605C143.563 53.5813 143.576 53.4992 143.576 53.4141C143.576 53.3261 143.56 53.244 143.527 53.1677C143.498 53.0885 143.457 53.0196 143.404 52.9609C143.354 52.8993 143.294 52.8524 143.224 52.8201C143.156 52.7849 143.084 52.7673 143.008 52.7673H142.089V54.0653ZM147.286 55.5393V53.1237L146.248 54.9761H146.023L144.98 53.1237V55.5393H144.584V52.4153H145.002L146.133 54.4437L147.268 52.4153H147.682V55.5393H147.286ZM149.38 52.4153H149.715L150.991 55.5393H150.568L150.199 54.6241H148.888L148.522 55.5393H148.1L149.38 52.4153ZM150.111 54.3161L149.548 52.8729L148.967 54.3161H150.111ZM153.364 52.7673H152.286V55.5393H151.89V52.7673H150.812V52.4153H153.364V52.7673ZM153.814 55.5393V52.4153H154.21V55.5393H153.814ZM156.224 55.5613C156.004 55.5613 155.803 55.5173 155.621 55.4293C155.442 55.3384 155.288 55.2196 155.159 55.0729C155.03 54.9233 154.931 54.7532 154.86 54.5625C154.79 54.3718 154.755 54.1768 154.755 53.9773C154.755 53.769 154.791 53.5696 154.865 53.3789C154.941 53.1882 155.045 53.0196 155.177 52.8729C155.309 52.7262 155.464 52.6104 155.643 52.5253C155.825 52.4373 156.022 52.3933 156.233 52.3933C156.453 52.3933 156.652 52.4402 156.831 52.5341C157.01 52.625 157.164 52.7453 157.293 52.8949C157.422 53.0445 157.522 53.2146 157.593 53.4053C157.663 53.593 157.698 53.7852 157.698 53.9817C157.698 54.19 157.66 54.3894 157.584 54.5801C157.51 54.7708 157.408 54.9394 157.276 55.0861C157.147 55.2298 156.991 55.3457 156.809 55.4337C156.63 55.5188 156.435 55.5613 156.224 55.5613ZM155.155 53.9773C155.155 54.1357 155.18 54.2897 155.23 54.4393C155.283 54.586 155.356 54.7165 155.45 54.8309C155.544 54.9453 155.657 55.0362 155.789 55.1037C155.921 55.1712 156.067 55.2049 156.229 55.2049C156.396 55.2049 156.545 55.1697 156.677 55.0993C156.809 55.026 156.921 54.9321 157.012 54.8177C157.106 54.7004 157.176 54.5684 157.223 54.4217C157.273 54.275 157.298 54.1269 157.298 53.9773C157.298 53.8189 157.271 53.6664 157.219 53.5197C157.169 53.3701 157.095 53.2396 156.999 53.1281C156.905 53.0137 156.792 52.9228 156.66 52.8553C156.531 52.7878 156.387 52.7541 156.229 52.7541C156.061 52.7541 155.912 52.7893 155.78 52.8597C155.648 52.9301 155.535 53.0225 155.441 53.1369C155.35 53.2513 155.28 53.3818 155.23 53.5285C155.18 53.6752 155.155 53.8248 155.155 53.9773ZM158.644 53.1545V55.5393H158.248V52.4153H158.556L160.492 54.8485V52.4197H160.888V55.5393H160.554L158.644 53.1545Z" fill="#407CCA"/>
<path d="M186.569 57.8928H132.409C132.172 57.8928 131.979 58.0853 131.979 58.3227C131.979 58.5601 132.172 58.7525 132.409 58.7525H186.569C186.806 58.7525 186.999 58.5601 186.999 58.3227C186.999 58.0853 186.806 57.8928 186.569 57.8928Z" fill="#0064B7"/>
<path d="M186.569 60.9634H132.409C132.172 60.9634 131.979 61.1558 131.979 61.3932C131.979 61.6306 132.172 61.8231 132.409 61.8231H186.569C186.806 61.8231 186.999 61.6306 186.999 61.3932C186.999 61.1558 186.806 60.9634 186.569 60.9634Z" fill="#0064B7"/>
<path d="M186.569 64.0339H132.409C132.172 64.0339 131.979 64.2264 131.979 64.4638C131.979 64.7012 132.172 64.8937 132.409 64.8937H186.569C186.806 64.8937 186.999 64.7012 186.999 64.4638C186.999 64.2264 186.806 64.0339 186.569 64.0339Z" fill="#0064B7"/>
<path d="M187.974 57.1556C190.871 57.1556 193.22 54.7911 193.22 51.8744C193.22 48.9577 190.871 46.5933 187.974 46.5933C185.077 46.5933 182.729 48.9577 182.729 51.8744C182.729 54.7911 185.077 57.1556 187.974 57.1556Z" fill="#EC384E"/>
<path d="M186.512 49.0501L187.366 50.2782C187.61 50.6467 187.732 50.8923 187.976 51.2608C188.22 50.8923 188.342 50.6467 188.586 50.2782L189.44 49.0501H190.538L188.586 51.7521L190.538 54.6997H189.318L188.464 53.4715C188.22 53.1031 188.098 52.8574 187.854 52.489C187.61 52.8574 187.488 53.1031 187.244 53.4715L186.39 54.6997H185.292L187.366 51.7521L185.414 48.9272L186.512 49.0501Z" fill="white"/>
<path d="M88.6466 72.8763H109.616C109.616 72.8763 110.032 60.0212 99.1316 60.0212C88.2314 60.0212 88.6466 72.8763 88.6466 72.8763Z" fill="#0064B5"/>
<path d="M99.1329 57.6176C102.172 57.6176 104.635 55.1377 104.635 52.0785C104.635 49.0193 102.172 46.5393 99.1329 46.5393C96.0942 46.5393 93.6309 49.0193 93.6309 52.0785C93.6309 55.1377 96.0942 57.6176 99.1329 57.6176Z" fill="#0064B5"/>
<path d="M83.1211 140.322L87.2376 150.585H75.0841L73.7119 148.019C73.7119 148.019 73.9079 143.085 77.8284 141.112C81.7489 139.336 83.1211 140.322 83.1211 140.322Z" fill="#F7C5B4"/>
<path d="M22.7464 140.322L18.6299 150.585H30.7834L32.1556 148.019C32.1556 148.019 31.9596 143.085 28.0391 141.112C24.1186 139.336 22.7464 140.322 22.7464 140.322Z" fill="#F7C5B4"/>
<path d="M77.8288 219.657C78.0249 205.054 75.6726 190.45 70.7719 176.635L60.5786 177.622C48.8171 178.411 36.0755 176.635 36.0755 176.635C31.1749 190.45 28.8225 205.054 29.0186 219.657C29.0186 225.381 28.0384 252.418 31.5669 277.284H39.4079L39.8 272.745C40.7801 255.18 43.7205 236.63 47.837 219.657C49.2092 214.329 50.5813 209.198 52.1495 203.87L53.3257 199.725C54.8939 204.856 57.2462 213.54 58.6184 219.263C62.7349 236.432 66.0673 255.18 67.0474 272.745L67.4395 277.284H75.2805C79.005 252.22 77.6328 225.381 77.8288 219.657Z" fill="#DC051F"/>
<path d="M75.4765 277.283C78.0248 278.862 81.5533 280.835 83.9056 282.809C84.4936 283.401 85.0817 283.993 85.0817 284.782C84.8857 285.572 84.1016 286.164 83.3175 286.361C81.9453 286.756 80.7691 286.558 79.397 286.558C76.2606 286.361 72.9281 286.164 69.9878 285.177C69.3997 284.98 68.6156 284.585 68.2235 283.993C67.6355 283.204 67.6355 282.019 67.6355 280.835C67.6355 279.651 67.4395 278.467 67.4395 277.086" fill="#160956"/>
<path d="M31.5672 277.283C29.0188 278.862 25.4904 280.835 23.1381 282.809C22.55 283.401 21.9619 283.993 21.9619 284.782C22.1579 285.572 22.9421 286.164 23.7262 286.361C25.0983 286.756 26.2745 286.558 27.6467 286.558C30.7831 286.361 34.1155 286.164 37.0559 285.177C37.644 284.98 38.428 284.585 38.8201 283.993C39.4082 283.204 39.4082 282.019 39.4082 280.835C39.4082 279.651 39.4082 278.467 39.4082 277.086" fill="#160956"/>
<path d="M34.1146 142.099C34.1146 142.099 32.7424 146.835 32.1543 148.02L31.1742 146.835C29.606 144.862 24.9014 141.902 22.7451 140.52C28.8219 125.127 32.5464 125.719 35.8788 125.127C37.643 124.732 39.7993 124.338 41.5635 124.14C52.933 122.364 69.9872 125.127 69.9872 125.127C73.3196 125.719 77.0441 125.127 83.1209 140.52C81.1606 142.099 76.456 144.862 74.6918 146.835L73.7117 148.02C73.1236 146.835 71.7514 142.099 71.7514 142.099V143.283C71.5554 154.137 71.3593 164.005 70.9673 175.056C70.9673 175.846 70.7713 176.635 70.1832 176.833C70.1832 176.833 64.6945 177.819 51.9529 177.819C51.9529 177.819 36.0748 177.819 35.4868 176.438C35.2907 176.043 35.2907 175.648 35.2907 175.254C35.0947 172.688 35.0947 170.32 34.8987 167.754C34.7026 164.597 34.7027 161.242 34.5066 158.084C34.3106 151.769 34.1146 142.099 34.1146 142.099Z" fill="#0083F9"/>
<path d="M85.2765 198.344H21.1763C15.6876 198.344 11.375 194.002 11.375 188.476V160.452C11.375 154.927 15.6876 150.585 21.1763 150.585H85.2765C90.7652 150.585 95.0778 154.927 95.0778 160.452V188.476C95.0778 194.002 90.7652 198.344 85.2765 198.344Z" fill="#0064B5"/>
<path d="M95.0778 157.887H11.375V166.768H95.0778V157.887Z" fill="#033E9F"/>
<path d="M39.4056 169.333H13.5303V174.464H39.4056V169.333Z" fill="white"/>
<path d="M55.0889 169.333H42.7393V174.464H55.0889V169.333Z" fill="white"/>
<path d="M97.0394 180.187L95.2752 172.096V179.99V181.174C94.2951 180.779 93.1189 180.384 92.1388 179.99C91.7468 179.792 90.9627 179.792 90.7666 180.187C90.3746 180.582 90.9627 181.174 91.3547 181.568C91.7468 181.963 92.3349 182.161 92.9229 182.358C92.1388 182.161 91.3547 182.161 90.7666 181.963C90.5706 181.963 90.3746 181.963 90.1786 181.963C89.7865 182.161 89.9825 182.753 90.3746 183.147C90.9627 183.542 91.5507 183.937 92.3348 184.134C91.7468 184.134 91.1587 184.134 90.5706 184.134C90.3746 184.134 90.1786 184.134 89.9826 184.331C89.5905 184.726 89.7865 185.318 90.1786 185.713C90.5706 186.108 91.1587 186.108 91.7468 185.91C91.3547 186.108 90.7666 186.108 90.3746 186.305C89.9825 186.502 89.5905 186.897 89.7865 187.292C89.9825 187.686 90.3746 187.686 90.5706 187.884C91.3547 188.081 92.3348 188.278 93.1189 188.278C93.903 188.278 94.6871 188.278 95.4712 187.884C96.4514 187.292 96.8434 186.305 97.2355 185.318C97.4315 183.345 97.4315 181.568 97.0394 180.187Z" fill="#F7C5B4"/>
<path d="M16.2772 186.108C15.8852 185.911 15.2971 185.911 14.9051 185.713C15.4931 185.713 16.0812 185.713 16.4733 185.516C16.8653 185.121 17.0613 184.529 16.6693 184.134C16.4733 183.937 16.2772 183.937 16.0812 183.937C15.4931 183.937 14.9051 183.937 14.317 183.937C15.1011 183.74 15.6892 183.542 16.2772 182.95C16.6693 182.753 16.8653 182.161 16.4733 181.766C16.2773 181.569 16.0812 181.766 15.8852 181.766C15.1011 181.964 14.317 181.964 13.7289 182.161C14.317 181.964 14.709 181.569 15.2971 181.371C15.6892 180.977 16.2772 180.385 15.8852 179.99C15.6892 179.595 14.9051 179.595 14.513 179.793C13.5329 180.187 12.3567 180.582 11.3766 180.977V179.793V171.899L9.6124 179.99C9.22035 181.569 9.22035 183.148 9.6124 184.726C9.80842 185.713 10.3965 186.897 11.3766 187.292C12.1607 187.687 12.9448 187.687 13.7289 187.687C14.513 187.687 15.4931 187.489 16.2772 187.292C16.6693 187.292 17.0613 187.095 17.0613 186.7C17.2574 186.7 16.8653 186.305 16.2772 186.108Z" fill="#F7C5B4"/>
<path d="M50.7794 116.443C50.7794 116.443 50.7794 119.995 49.4072 121.377C48.035 122.758 46.4668 123.35 46.4668 123.35C46.4668 123.35 49.4072 129.863 56.2681 129.073C63.1289 128.284 64.1091 123.942 64.1091 123.942C64.1091 123.942 57.6402 123.153 56.8561 117.035C56.072 110.917 55.0919 110.917 55.0919 110.917L50.7794 116.443Z" fill="#FDAE7F"/>
<path d="M45.8779 101.05C45.8779 101.05 46.27 109.141 49.7984 115.259C53.7189 121.377 57.8355 118.022 59.5997 114.864C61.3639 111.707 66.0685 101.05 64.8924 98.8789C63.7162 96.116 50.3865 94.9319 50.3865 94.9319L45.8779 101.05Z" fill="#FDBD97"/>
<path d="M63.3244 105.588C63.3244 105.588 65.0886 104.207 65.0886 105.588C65.0886 106.97 63.9125 109.535 62.7363 109.535C61.5602 109.93 61.5602 109.141 61.9523 108.154C62.7364 106.97 63.3244 105.588 63.3244 105.588Z" fill="#FDBD97"/>
<path d="M46.4672 108.549C46.8592 108.943 47.6433 108.943 47.6433 108.154C47.6433 106.772 46.4672 104.207 45.2911 104.207C44.1149 103.812 44.1149 104.602 44.5069 105.588C44.5069 105.983 44.507 106.378 44.899 106.772C45.4871 107.364 46.2712 108.549 46.4672 108.549Z" fill="#FDBD97"/>
<path d="M46.2707 104.602L45.8786 102.233C45.8786 102.233 48.2309 102.628 50.3872 99.8653C50.3872 99.8653 55.2878 101.049 59.2083 100.655C63.3248 100.26 64.8931 99.2732 64.8931 99.2732C64.8931 99.2732 64.109 103.812 63.5209 105.391C63.5209 105.391 65.2851 104.602 66.2652 102.233C67.0493 99.8653 67.0493 97.6944 67.0493 97.6944C67.0493 97.6944 69.7937 95.3262 70.5778 93.1554C70.5778 93.1554 63.3249 91.3792 60.9726 89.9978C58.6203 88.6163 57.4441 87.6296 57.4441 87.6296C57.4441 87.6296 53.9157 85.8534 50.5832 88.419C47.2508 90.9845 44.8985 92.5633 44.8985 97.2997C45.0945 96.7077 41.5661 101.444 46.2707 104.602Z" fill="#150C56"/>
</svg>
