<svg width="339" height="270" viewBox="0 0 339 270" fill="none" xmlns="http://www.w3.org/2000/svg">
<path d="M339 253.395H0V254.07H339V253.395Z" fill="#E5E4EA"/>
<path d="M42.9856 181.575C42.85 181.44 42.85 181.44 42.7144 181.44L40.9516 181.575C40.816 181.575 40.5448 181.44 40.5448 181.17C40.4092 180.36 40.0024 179.55 39.5956 178.875C39.46 178.74 39.46 178.47 39.7312 178.335L41.0872 177.255C41.2228 177.12 41.2228 177.12 41.2228 176.985C41.2228 176.85 41.2228 176.85 41.0872 176.715L39.0532 174.69C38.9176 174.555 38.9176 174.555 38.782 174.555C38.6464 174.555 38.6464 174.555 38.5108 174.69L37.426 176.04C37.2904 176.175 37.0192 176.175 36.8836 176.175C36.07 175.77 35.392 175.365 34.5784 175.23C34.4428 175.23 34.1716 174.96 34.1716 174.825L34.3072 173.07C34.3072 172.935 34.3072 172.935 34.1716 172.8C34.036 172.665 34.036 172.665 33.9004 172.665H31.0528C30.9172 172.665 30.9172 172.665 30.7816 172.8C30.646 172.935 30.646 172.935 30.646 173.07L30.7816 174.825C30.7816 174.96 30.646 175.23 30.3748 175.23C29.5612 175.365 28.7476 175.77 28.0696 176.175C27.934 176.31 27.6628 176.31 27.5272 176.04L26.4424 174.69C26.3068 174.555 26.3068 174.555 26.1712 174.555C26.0356 174.555 26.0356 174.555 25.9 174.69L23.866 176.715C23.7304 176.85 23.7304 176.85 23.7304 176.985C23.7304 177.12 23.7304 177.12 23.866 177.255L25.222 178.335C25.3576 178.47 25.3576 178.74 25.3576 178.875C24.9508 179.685 24.544 180.36 24.4084 181.17C24.4084 181.305 24.1372 181.575 24.0016 181.575L22.2388 181.44C22.1032 181.44 22.1032 181.44 21.9676 181.575C21.832 181.71 21.832 181.71 21.832 181.845V184.68C21.832 184.815 21.832 184.815 21.9676 184.95C22.1032 185.085 22.1032 185.085 22.2388 185.085L24.0016 184.95C24.1372 184.95 24.4084 185.085 24.4084 185.355C24.544 186.165 24.9508 186.975 25.3576 187.65C25.4932 187.785 25.4932 188.055 25.222 188.19L23.866 189.27C23.7304 189.405 23.7304 189.405 23.7304 189.54C23.7304 189.675 23.7304 189.675 23.866 189.81L25.9 191.835C26.0356 191.97 26.0356 191.97 26.1712 191.97C26.3068 191.97 26.3068 191.97 26.4424 191.835L27.5272 190.485C27.6628 190.35 27.934 190.35 28.0696 190.35C28.8832 190.755 29.5612 191.16 30.3748 191.295C30.5104 191.295 30.7816 191.565 30.7816 191.7L30.646 193.455C30.646 193.59 30.646 193.59 30.7816 193.725C30.9172 193.86 30.9172 193.86 31.0528 193.86H33.9004C34.036 193.86 34.036 193.86 34.1716 193.725C34.3072 193.59 34.3072 193.59 34.3072 193.455L34.1716 191.7C34.1716 191.565 34.3072 191.295 34.5784 191.295C35.392 191.16 36.2056 190.755 36.8836 190.35C37.0192 190.215 37.2904 190.215 37.426 190.485L38.5108 191.835C38.6464 191.97 38.6464 191.97 38.782 191.97C38.9176 191.97 38.9176 191.97 39.0532 191.835L41.0872 189.81C41.2228 189.675 41.2228 189.675 41.2228 189.54C41.2228 189.405 41.2228 189.405 41.0872 189.27L39.7312 188.19C39.5956 188.055 39.5956 187.785 39.5956 187.65C40.0024 186.84 40.4092 186.165 40.5448 185.355C40.5448 185.22 40.816 184.95 40.9516 184.95L42.7144 185.085C42.85 185.085 42.85 185.085 42.9856 184.95C43.1212 184.815 43.1212 184.815 43.1212 184.68V181.845C43.1212 181.71 43.1212 181.575 42.9856 181.575ZM42.4432 184.14L41.0872 184.005C40.5448 183.87 40.0024 184.275 39.7312 184.95C39.5956 185.76 39.3244 186.435 38.9176 187.11C38.6464 187.65 38.782 188.19 39.1888 188.595L40.2736 189.405L38.9176 190.755L38.104 189.675C37.6972 189.27 37.0192 189.135 36.6124 189.405C35.9344 189.81 35.2564 190.08 34.4428 190.215C33.9004 190.35 33.4936 190.89 33.4936 191.565L33.6292 192.915H31.5952L31.7308 191.565C31.8664 191.025 31.4596 190.485 30.7816 190.215C29.968 190.08 29.29 189.81 28.612 189.405C28.0696 189.135 27.5272 189.27 27.1204 189.675L26.3068 190.755L24.9508 189.405L26.0356 188.595C26.4424 188.19 26.578 187.515 26.3068 187.11C25.9 186.435 25.6288 185.76 25.4932 184.95C25.3576 184.41 24.8152 184.005 24.1372 184.005L22.6456 184.14V182.115L24.0016 182.25C24.544 182.385 25.0864 181.98 25.3576 181.305C25.4932 180.495 25.7644 179.82 26.1712 179.145C26.4424 178.605 26.3068 178.065 25.9 177.66L24.8152 176.85L26.1712 175.5L26.9848 176.58C27.3916 176.985 28.0696 177.12 28.4764 176.85C29.1544 176.445 29.8324 176.175 30.646 176.04C31.1884 175.905 31.5952 175.365 31.5952 174.69L31.4596 173.205H33.4936L33.358 174.555C33.2224 175.095 33.6292 175.635 34.3072 175.905C35.1208 176.04 35.7988 176.31 36.4768 176.715C37.0192 176.985 37.5616 176.85 37.9684 176.445L38.782 175.365L40.138 176.715L39.0532 177.525C38.6464 177.93 38.5108 178.605 38.782 179.01C39.1888 179.685 39.46 180.36 39.5956 181.17C39.7312 181.71 40.2736 182.115 40.9516 182.115L42.3076 181.98L42.4432 184.14Z" fill="#EE384E"/>
<path d="M32.5447 178.335C29.8327 178.335 27.6631 180.63 27.6631 183.195C27.6631 185.895 29.9683 188.055 32.5447 188.055C35.1211 188.055 37.4263 185.76 37.4263 183.195C37.5619 180.495 35.2567 178.335 32.5447 178.335ZM32.5447 187.38C30.2395 187.38 28.3411 185.49 28.3411 183.195C28.3411 180.9 30.2395 179.01 32.5447 179.01C34.8499 179.01 36.7483 180.9 36.7483 183.195C36.8839 185.49 34.9855 187.38 32.5447 187.38Z" fill="#EE384E"/>
<path d="M60.7486 20.7898C60.613 20.6548 60.613 20.6548 60.4774 20.6548L58.3078 20.9248C58.1722 20.9248 57.7654 20.7898 57.7654 20.5198C57.6298 19.5748 57.223 18.7648 56.6806 17.9548C56.545 17.8198 56.545 17.4148 56.8162 17.2798L58.3078 16.0648C58.4434 15.9298 58.4434 15.9298 58.4434 15.7948C58.4434 15.6598 58.4434 15.6598 58.3078 15.5248L56.1382 13.3648C56.0026 13.2298 56.0026 13.2298 55.867 13.2298C55.7314 13.2298 55.7314 13.2298 55.5958 13.3648L54.3754 14.8498C54.2398 14.8498 53.9686 14.8498 53.6974 14.7148C52.8838 14.1748 52.0702 13.9048 51.121 13.6348C50.9854 13.6348 50.7142 13.3648 50.7142 13.0948L50.8498 11.0698C50.8498 10.9348 50.8498 10.9348 50.7142 10.7998C50.5786 10.7998 50.5786 10.7998 50.443 10.7998H47.3242C47.1886 10.7998 47.1886 10.7998 47.053 10.9348C46.9174 11.0698 46.9174 11.0698 46.9174 11.2048L47.053 13.2298C47.053 13.3648 46.9174 13.7698 46.6462 13.7698C45.697 13.9048 44.8834 14.4448 44.0698 14.8498C43.7986 14.8498 43.5274 14.8498 43.3918 14.7148L42.1714 13.2298C42.0358 13.0948 42.0358 13.0948 41.9002 13.0948C41.7646 13.0948 41.7646 13.0948 41.629 13.2298L39.3238 15.3898C39.3238 15.5248 39.3238 15.6598 39.3238 15.6598C39.3238 15.7948 39.3238 15.7948 39.4594 15.9298L40.951 17.1448C41.0866 17.2798 41.0866 17.5498 41.0866 17.8198C40.5442 18.6298 40.273 19.4398 40.0018 20.3848C40.0018 20.5198 39.7306 20.7898 39.4594 20.7898L37.4254 20.6548C37.2898 20.6548 37.2898 20.6548 37.1542 20.7898C37.0186 20.9248 37.0186 20.9248 37.0186 21.0598V24.2998C37.0186 24.4348 37.0186 24.4348 37.1542 24.5698C37.2898 24.7048 37.2898 24.7048 37.4254 24.7048L39.4594 24.5698C39.595 24.5698 40.0018 24.7048 40.0018 24.9748C40.1374 25.9198 40.6798 26.7298 41.0866 27.5398C41.2222 27.6748 41.2222 28.0798 40.951 28.2148L39.3238 29.2948C39.1882 29.4298 39.1882 29.4298 39.1882 29.5648C39.1882 29.6998 39.1882 29.6998 39.3238 29.8348L41.4934 31.9948C41.629 32.1298 41.629 32.1298 41.7646 32.1298C41.9002 32.1298 41.9002 32.1298 42.0358 31.9948L43.2562 30.5098C43.3918 30.3748 43.663 30.3748 43.9342 30.3748C44.7478 30.9148 45.5614 31.1848 46.5106 31.4548C46.6462 31.4548 46.9174 31.7248 46.9174 31.9948L46.7818 34.0198C46.7818 34.1548 46.7818 34.1548 46.9174 34.2898C47.053 34.4248 47.053 34.4248 47.1886 34.4248H50.3074C50.443 34.4248 50.443 34.4248 50.5786 34.2898C50.7142 34.1548 50.7142 34.1548 50.7142 34.0198L50.5786 31.9948C50.5786 31.8598 50.7142 31.4548 50.9854 31.4548C51.9346 31.3198 52.7482 30.7798 53.5618 30.3748C53.6974 30.2398 54.1042 30.2398 54.2398 30.5098L55.4602 31.9948C55.5958 32.1298 55.5958 32.1298 55.7314 32.1298C55.867 32.1298 55.867 32.1298 56.0026 31.9948L58.1722 29.8348C58.3078 29.6998 58.3078 29.6998 58.3078 29.5648C58.3078 29.4298 58.3078 29.4298 58.1722 29.2948L56.6806 28.0798C56.545 27.9448 56.545 27.6748 56.545 27.4048C57.0874 26.5948 57.3586 25.7848 57.6298 24.8398C57.6298 24.7048 57.901 24.4348 58.1722 24.4348L60.2062 24.5698C60.3418 24.5698 60.3418 24.5698 60.4774 24.4348C60.613 24.2998 60.613 24.2998 60.613 24.1648V21.0598C60.7486 20.9248 60.7486 20.7898 60.7486 20.7898ZM59.935 23.7598L58.3078 23.6248C57.6298 23.4898 57.0874 23.8948 56.8162 24.7048C56.6806 25.5148 56.2738 26.3248 55.867 27.1348C55.5958 27.8098 55.7314 28.3498 56.1382 28.7548L57.3586 29.5648L55.867 31.0498L55.0534 29.8348C54.6466 29.2948 53.833 29.1598 53.4262 29.5648C52.6126 29.9698 51.799 30.3748 50.9854 30.5098C50.3074 30.6448 49.9006 31.3198 49.9006 31.9948L50.0362 33.6148H47.731L47.8666 31.9948C48.0022 31.3198 47.5954 30.7798 46.7818 30.5098C45.9682 30.3748 45.1546 29.9698 44.341 29.5648C43.663 29.2948 43.1206 29.4298 42.7138 29.8348L41.9002 31.0498L40.273 29.4298L41.4934 28.6198C42.0358 28.2148 42.1714 27.4048 41.7646 26.9998C41.3578 26.1898 40.951 25.3798 40.8154 24.5698C40.6798 23.8948 40.0018 23.4898 39.3238 23.4898L37.6966 23.6248V21.3298L39.3238 21.5998C40.0018 21.7348 40.5442 21.3298 40.8154 20.5198C40.951 19.7098 41.3578 18.8998 41.7646 18.0898C42.0358 17.4148 41.9002 16.8748 41.4934 16.4698L40.273 15.6598L41.9002 14.0398L42.7138 15.2548C43.1206 15.7948 43.9342 15.9298 44.341 15.5248C45.1546 15.1198 45.9682 14.7148 46.7818 14.5798C47.4598 14.4448 47.8666 13.7698 47.8666 13.0948L47.731 11.4748H50.0362L49.9006 13.0948C49.765 13.7698 50.1718 14.3098 50.9854 14.5798C51.799 14.7148 52.6126 15.1198 53.4262 15.5248C54.1042 15.7948 54.6466 15.6598 55.0534 15.2548L55.867 14.0398L57.4942 15.6598L56.2738 16.4698C55.7314 16.8748 55.7314 17.6848 56.0026 18.0898C56.4094 18.8998 56.8162 19.7098 56.9518 20.5198C57.0874 21.1948 57.7654 21.5998 58.4434 21.5998L60.0706 21.4648L59.935 23.7598Z" fill="#023EA1"/>
<path d="M48.8155 17.0098C45.8323 17.0098 43.2559 19.5748 43.2559 22.5448C43.2559 25.5148 45.8323 28.0798 48.8155 28.0798C51.7987 28.0798 54.3751 25.5148 54.3751 22.5448C54.3751 19.4398 51.9343 17.0098 48.8155 17.0098ZM48.8155 27.4048C46.2391 27.4048 44.0695 25.2448 44.0695 22.6798C44.0695 20.1148 46.2391 17.9548 48.8155 17.9548C51.3919 17.9548 53.5615 20.1148 53.5615 22.6798C53.5615 25.2448 51.5275 27.4048 48.8155 27.4048Z" fill="#023EA1"/>
<path d="M328.745 169.265C328.573 169.094 328.573 169.094 328.401 169.094L326.339 169.265C326.168 169.265 325.824 169.094 325.824 168.752C325.652 167.896 325.136 166.87 324.793 166.185C324.621 166.014 324.621 165.672 324.965 165.501L326.511 164.304C326.683 164.132 326.683 164.132 326.683 163.961C326.683 163.79 326.683 163.79 326.511 163.619L324.277 161.395C324.105 161.224 324.105 161.224 323.934 161.224C323.762 161.224 323.762 161.224 323.59 161.395L322.387 162.935C322.215 163.106 321.872 163.106 321.7 163.106C320.84 162.593 319.981 162.251 318.95 162.079C318.778 162.079 318.435 161.737 318.435 161.566L318.607 159.513C318.607 159.342 318.607 159.342 318.435 159.171C318.263 159 318.263 159 318.091 159H314.826C314.654 159 314.654 159 314.482 159.171C314.31 159.342 314.31 159.342 314.31 159.513L314.482 161.566C314.482 161.737 314.31 162.079 313.967 162.079C312.936 162.251 312.077 162.764 311.217 163.106C311.045 163.277 310.702 163.277 310.53 162.935L309.327 161.395C309.155 161.224 309.155 161.224 308.983 161.224C308.812 161.224 308.812 161.224 308.64 161.395L306.406 163.619C306.234 163.79 306.234 163.79 306.234 163.961C306.234 164.132 306.234 164.132 306.406 164.304L307.952 165.501C308.124 165.672 308.124 166.014 308.124 166.185C307.609 167.041 307.265 167.896 307.093 168.752C307.093 168.923 306.749 169.265 306.578 169.265L304.516 169.094C304.344 169.094 304.344 169.094 304.172 169.265C304 169.436 304 169.436 304 169.607V172.686C304 172.858 304 172.858 304.172 173.029C304.344 173.2 304.344 173.2 304.516 173.2L306.578 173.029C306.749 173.029 307.093 173.2 307.093 173.542C307.265 174.397 307.78 175.424 308.124 176.108C308.296 176.279 308.296 176.621 307.952 176.792L306.406 177.99C306.234 178.161 306.234 178.161 306.234 178.332C306.234 178.503 306.234 178.503 306.406 178.674L308.64 180.898C308.812 181.069 308.812 181.069 308.983 181.069C309.155 181.069 309.155 181.069 309.327 180.898L310.53 179.359C310.702 179.188 311.045 179.188 311.217 179.188C312.077 179.701 312.936 180.043 313.967 180.214C314.139 180.214 314.482 180.556 314.482 180.727L314.31 182.78C314.31 182.951 314.31 182.951 314.482 183.122C314.654 183.294 314.654 183.293 314.826 183.293H318.091C318.263 183.293 318.263 183.294 318.435 183.122C318.607 182.951 318.607 182.951 318.607 182.78L318.435 180.727C318.435 180.556 318.607 180.214 318.95 180.214C319.981 180.043 320.84 179.53 321.7 179.188C321.872 179.016 322.215 179.016 322.387 179.359L323.59 180.898C323.762 181.069 323.762 181.069 323.934 181.069C324.105 181.069 324.105 181.069 324.277 180.898L326.511 178.674C326.683 178.503 326.683 178.503 326.683 178.332C326.683 178.161 326.683 178.161 326.511 177.99L324.965 176.792C324.793 176.621 324.793 176.279 324.793 176.108C325.308 175.253 325.652 174.397 325.824 173.542C325.824 173.371 326.168 173.029 326.339 173.029L328.401 173.2C328.573 173.2 328.573 173.2 328.745 173.029C328.917 172.858 328.917 172.858 328.917 172.686V169.607C328.917 169.265 328.917 169.265 328.745 169.265ZM328.058 172.173L326.511 172.002C325.824 171.831 325.308 172.344 324.965 173.029C324.793 173.884 324.449 174.739 323.934 175.424C323.59 176.108 323.762 176.621 324.277 177.135L325.48 177.99L323.934 179.53L323.074 178.332C322.559 177.819 321.871 177.648 321.356 177.99C320.669 178.503 319.809 178.674 318.778 178.845C318.091 179.016 317.747 179.53 317.747 180.385L317.919 181.925H315.513L315.685 180.385C315.857 179.701 315.342 179.188 314.654 178.845C313.795 178.674 312.936 178.332 312.077 177.99C311.389 177.648 310.874 177.819 310.358 178.332L309.499 179.53L307.952 177.99L309.155 177.135C309.671 176.621 309.843 175.937 309.499 175.424C308.983 174.739 308.812 173.884 308.468 173.029C308.296 172.344 307.781 172.002 306.921 172.002L305.203 172.173V169.949L306.749 170.12C307.437 170.291 307.952 169.778 308.296 169.094C308.468 168.238 308.812 167.383 309.327 166.699C309.671 166.014 309.499 165.501 308.983 164.988L307.781 164.132L309.327 162.593L310.186 163.79C310.702 164.304 311.389 164.475 311.905 164.132C312.592 163.619 313.451 163.448 314.482 163.277C315.17 163.106 315.513 162.593 315.513 161.737L315.342 160.198H317.747L317.575 161.737C317.404 162.422 317.919 162.935 318.607 163.277C319.466 163.448 320.325 163.79 321.184 164.132C321.871 164.475 322.387 164.304 322.903 163.79L323.762 162.593L325.308 164.132L324.105 164.988C323.59 165.501 323.418 166.185 323.762 166.699C324.277 167.383 324.449 168.238 324.793 169.094C324.965 169.778 325.48 170.12 326.339 170.12L327.886 169.949L328.058 172.173Z" fill="#023EA1"/>
<path d="M316.544 165.501C313.451 165.501 310.701 168.067 310.701 171.147C310.701 174.226 313.279 176.792 316.544 176.792C319.809 176.792 322.386 174.226 322.386 171.147C322.386 167.896 319.637 165.501 316.544 165.501ZM316.544 175.766C313.794 175.766 311.56 173.713 311.56 170.976C311.56 168.238 313.794 166.185 316.544 166.185C319.293 166.185 321.527 168.238 321.527 170.976C321.527 173.713 319.293 175.766 316.544 175.766Z" fill="#023EA1"/>
<path d="M307.541 61.02H245.165V101.655H307.541V61.02Z" fill="#EFEFEF"/>
<path d="M307.541 50.7598H245.165V61.0198H307.541V50.7598Z" fill="#0064B7"/>
<path d="M257.505 45.6299H254.521V55.8899H257.505V45.6299Z" fill="#0064B7"/>
<path d="M270.658 45.6299H267.675V55.8899H270.658V45.6299Z" fill="#0064B7"/>
<path d="M283.811 45.6299H280.828V55.8899H283.811V45.6299Z" fill="#0064B7"/>
<path d="M296.829 45.6299H293.846V55.8899H296.829V45.6299Z" fill="#0064B7"/>
<path d="M261.708 68.3101H251.267V78.7051H261.708V68.3101Z" fill="#003EB0"/>
<path d="M274.725 68.3101H264.284V78.7051H274.725V68.3101Z" fill="#00A9FF"/>
<path d="M287.879 68.3101H277.438V78.7051H287.879V68.3101Z" fill="#EE384E"/>
<path d="M300.896 68.3101H290.455V78.7051H300.896V68.3101Z" fill="#003EB0"/>
<path d="M261.708 81.4053H251.267V91.8003H261.708V81.4053Z" fill="#00A9FF"/>
<path d="M274.725 81.4053H264.284V91.8003H274.725V81.4053Z" fill="#003EB0"/>
<path d="M287.879 81.4053H277.438V91.8003H287.879V81.4053Z" fill="#EE384E"/>
<path d="M300.896 81.4053H290.455V91.8003H300.896V81.4053Z" fill="#00A9FF"/>
<path d="M179.398 20.9249L199.06 8.50488L218.722 20.9249" fill="#472F59"/>
<path d="M179.398 20.9248L199.06 33.2098L218.722 20.9248" fill="#472F59"/>
<path d="M214.79 0H183.331V40.365H214.79V0Z" fill="#EFEFEF"/>
<path d="M197.298 2.83496H185.907V9.04496H197.298V2.83496Z" fill="#EE384E"/>
<path d="M211.942 12.2852H185.907V13.7702H211.942V12.2852Z" fill="#EE384E"/>
<path d="M212.078 16.875H186.043V18.36H212.078V16.875Z" fill="#EE384E"/>
<path d="M212.214 21.4648H186.179V22.9498H212.214V21.4648Z" fill="#EE384E"/>
<path d="M199.06 33.2098L179.398 20.9248V45.4948H218.722V20.9248L199.06 33.2098Z" fill="#0064B7"/>
<path d="M179.398 45.495L199.06 33.21L218.722 45.495" fill="#033E9F"/>
<path d="M234.045 159.3C235.393 159.3 236.486 158.212 236.486 156.87C236.486 155.528 235.393 154.44 234.045 154.44C232.697 154.44 231.604 155.528 231.604 156.87C231.604 158.212 232.697 159.3 234.045 159.3Z" fill="white"/>
<path d="M215.468 78.57C216.816 78.57 217.909 77.482 217.909 76.14C217.909 74.7979 216.816 73.71 215.468 73.71C214.12 73.71 213.027 74.7979 213.027 76.14C213.027 77.482 214.12 78.57 215.468 78.57Z" fill="white"/>
<path d="M298.591 124.47C299.939 124.47 301.032 123.382 301.032 122.04C301.032 120.698 299.939 119.61 298.591 119.61C297.243 119.61 296.15 120.698 296.15 122.04C296.15 123.382 297.243 124.47 298.591 124.47Z" fill="white"/>
<path d="M313.371 238.95C314.719 238.95 315.812 237.862 315.812 236.52C315.812 235.178 314.719 234.09 313.371 234.09C312.023 234.09 310.931 235.178 310.931 236.52C310.931 237.862 312.023 238.95 313.371 238.95Z" fill="white"/>
<path d="M28.3402 218.295C29.6882 218.295 30.781 217.207 30.781 215.865C30.781 214.523 29.6882 213.435 28.3402 213.435C26.9922 213.435 25.8994 214.523 25.8994 215.865C25.8994 217.207 26.9922 218.295 28.3402 218.295Z" fill="white"/>
<path d="M98.7172 161.595C100.065 161.595 101.158 160.507 101.158 159.165C101.158 157.823 100.065 156.735 98.7172 156.735C97.3692 156.735 96.2764 157.823 96.2764 159.165C96.2764 160.507 97.3692 161.595 98.7172 161.595Z" fill="white"/>
<path d="M309.846 46.9802C310.819 46.9802 311.609 46.1945 311.609 45.2252C311.609 44.256 310.819 43.4702 309.846 43.4702C308.872 43.4702 308.083 44.256 308.083 45.2252C308.083 46.1945 308.872 46.9802 309.846 46.9802Z" fill="white"/>
<path d="M114.039 86.6701C115.387 86.6701 116.48 85.5821 116.48 84.2401C116.48 82.898 115.387 81.8101 114.039 81.8101C112.691 81.8101 111.599 82.898 111.599 84.2401C111.599 85.5821 112.691 86.6701 114.039 86.6701Z" fill="white"/>
<path d="M25.764 165.51C27.1121 165.51 28.2048 164.422 28.2048 163.08C28.2048 161.738 27.1121 160.65 25.764 160.65C24.416 160.65 23.3232 161.738 23.3232 163.08C23.3232 164.422 24.416 165.51 25.764 165.51Z" fill="white"/>
<path d="M166.653 145.53C166.653 145.53 167.059 152.82 163.398 156.735C159.737 160.65 153.906 168.075 153.906 168.075C153.906 168.075 162.856 181.71 180.348 179.82C197.841 177.93 201.095 165.24 201.095 165.24C201.095 165.24 184.687 163.35 182.111 147.42C180.213 131.895 177.365 131.895 177.365 131.895L166.653 145.53Z" fill="#FFBE9B"/>
<path d="M153.906 110.295C153.906 110.295 154.855 130.95 163.805 146.475C173.704 162 184.552 153.495 189.298 145.53C194.044 137.565 205.705 110.295 202.993 104.625C200.146 97.6045 165.703 94.7695 165.703 94.7695L153.906 110.295Z" fill="#FFBE9B"/>
<path d="M199.197 122.04C199.197 122.04 203.943 118.26 203.943 122.04C203.943 125.82 201.095 131.895 197.705 131.895C194.858 132.84 194.858 130.95 195.807 128.115C197.434 125.82 199.197 122.04 199.197 122.04Z" fill="#FFBE9B"/>
<path d="M155.804 129.6C156.754 130.545 158.652 130.545 158.652 128.655C158.652 124.875 155.804 118.8 152.414 118.8C149.567 117.855 149.567 119.745 150.516 122.58C150.516 123.525 150.516 124.47 151.465 125.415C152.957 126.765 154.991 129.6 155.804 129.6Z" fill="#FFBE9B"/>
<path d="M154.991 119.745L154.042 113.535C154.042 113.535 160.279 114.48 165.839 107.325C165.839 107.325 178.585 110.16 188.484 109.215C199.332 108.27 203.129 105.435 203.129 105.435C203.129 105.435 201.231 117.18 199.332 120.96C199.332 120.96 204.078 119.07 206.383 112.995C208.282 106.785 208.282 101.25 208.282 101.25C208.282 101.25 215.333 95.0398 217.231 89.5048C217.231 89.5048 198.247 84.7798 192.688 81.5398C186.45 77.7598 183.738 75.3298 183.738 75.3298C183.738 75.3298 174.789 70.6048 166.246 77.2198C157.703 83.6998 151.601 88.0198 151.601 99.7648C152.143 99.4948 143.058 111.24 154.991 119.745Z" fill="#1A1455"/>
<path d="M247.877 202.635L249.233 204.525C249.233 204.525 251.945 206.28 257.369 203.85C262.657 201.555 267.539 190.89 268.895 186.975C270.115 183.06 269.844 181.305 270.793 178.335C271.742 175.365 268.081 168.345 266.183 163.755C264.284 159.3 261.165 159.84 259.674 160.245C258.318 160.515 253.165 176.31 252.216 177.66C251.402 179.01 245.571 191.7 247.877 202.635Z" fill="#FFBE9B"/>
<path d="M270.522 193.995L243.808 188.19C242.181 187.785 241.232 186.165 241.639 184.68L251.673 138.78C252.08 137.16 253.707 136.215 255.199 136.62L281.912 142.425C283.539 142.83 284.488 144.45 284.082 145.935L274.047 191.835C273.776 193.185 272.149 194.265 270.522 193.995Z" fill="#0064B3"/>
<path d="M271.472 187.38L245.708 181.845C245.03 181.71 244.352 180.9 244.623 180.09L253.301 140.265C253.437 139.59 254.25 138.915 255.064 139.185L280.828 144.72C281.506 144.855 282.184 145.665 281.913 146.475L273.234 186.3C272.963 186.975 272.285 187.515 271.472 187.38Z" fill="white"/>
<path d="M259.583 188.026C259.773 187.152 259.157 186.276 258.206 186.07C257.254 185.864 256.328 186.406 256.137 187.281C255.947 188.155 256.563 189.031 257.515 189.236C258.466 189.442 259.392 188.9 259.583 188.026Z" fill="white"/>
<path d="M253.815 145.726L251.569 156.016L277.143 161.547L279.389 151.257L253.815 145.726Z" fill="#DDE7F6"/>
<path d="M248.506 169.176L246.261 179.466L271.835 184.998L274.08 174.708L248.506 169.176Z" fill="#DDE7F6"/>
<path d="M250.949 158.067L250.604 159.65L276.178 165.182L276.523 163.599L250.949 158.067Z" fill="#DDE7F6"/>
<path d="M254.401 142.596L254.056 144.179L279.63 149.711L279.975 148.128L254.401 142.596Z" fill="#DDE7F6"/>
<path d="M250.471 160.346L250.126 161.929L275.7 167.461L276.046 165.878L250.471 160.346Z" fill="#DDE7F6"/>
<path d="M249.953 162.582L249.607 164.166L275.182 169.697L275.527 168.114L249.953 162.582Z" fill="#DDE7F6"/>
<path d="M249.461 164.77L249.115 166.353L274.689 171.885L275.035 170.301L249.461 164.77Z" fill="#DDE7F6"/>
<path d="M245.843 202.095C245.843 202.095 244.215 191.295 244.08 189.675C243.944 188.055 245.3 183.87 245.436 181.845C245.571 179.82 248.283 179.82 250.86 174.96C251.809 173.07 254.385 175.905 252.894 178.875C251.267 181.845 249.775 183.87 250.995 185.49C252.216 187.11 254.385 188.73 255.063 192.375C255.741 196.02 251.538 209.115 245.843 202.095Z" fill="#FFBE9B"/>
<path d="M207.061 210.195C207.061 210.195 219.401 245.16 222.113 252.045C224.825 258.93 229.978 258.255 234.181 257.175C241.911 255.285 258.183 207.495 259.81 203.175C259.81 203.175 248.284 202.095 244.894 198.855C244.894 198.855 235.809 214.92 234.995 215.325C234.182 215.73 229.435 189.27 229.435 189.27C229.435 189.27 204.349 188.73 207.061 210.195Z" fill="#EE384E"/>
<path d="M236.622 212.895C236.622 212.895 232.283 220.05 228.893 226.26C225.503 232.335 225.232 238.005 225.232 238.005C225.232 238.005 225.096 227.475 233.774 213.03C233.774 213.03 234.452 215.19 234.724 215.325C235.13 215.46 236.622 212.895 236.622 212.895Z" fill="#BD4149"/>
<path d="M245.301 198.18L242.725 202.095C242.725 202.095 242.996 204.795 249.233 206.685C255.607 208.575 258.454 207.765 258.454 207.765L259.946 202.5C260.081 202.5 250.861 202.23 245.301 198.18Z" fill="#BD4149"/>
<path d="M231.333 203.04C230.384 198.315 229.57 174.42 218.587 169.56C206.383 164.16 188.619 159.165 188.619 159.165C186.45 165.51 179.534 167.67 176.551 168.345C176.551 168.345 163.262 168.345 161.364 159.84C161.364 159.84 141.973 163.755 132.074 169.02C124.887 172.665 103.056 201.825 101.564 206.415C100.479 209.925 105.09 218.16 107.937 223.29C101.7 231.12 97.4961 236.655 97.4961 236.655C97.4961 236.655 103.191 237.6 109.564 232.065C113.904 228.42 128.006 214.245 136.956 205.47C137.905 223.02 139.803 251.775 140.752 252.855C142.922 255.285 191.331 254.61 204.484 253.395C204.484 253.395 207.603 228.69 209.366 209.25C212.62 219.105 217.366 233.685 217.773 235.305C217.909 236.25 232.689 208.98 231.333 203.04ZM175.466 169.56C175.602 169.425 175.602 169.56 175.466 169.56V169.56Z" fill="#EE384E"/>
<path d="M164.212 155.79L160.687 159.975C160.687 159.975 163.67 169.56 173.569 169.56C183.874 169.56 187.671 162.405 188.62 159.165L185.23 155.52C185.23 155.52 182.247 162.81 174.789 162.945C167.602 163.215 164.212 155.79 164.212 155.79Z" fill="#BD4149"/>
<path d="M208.824 213.165C208.824 213.165 210.452 196.695 213.842 192.105C213.706 192.24 206.926 196.695 208.824 213.165Z" fill="#BD4149"/>
<path d="M148.754 204.525C148.754 204.525 147.126 191.97 143.736 187.38C143.736 187.515 148.482 189 148.754 204.525Z" fill="#BD4149"/>
<path d="M88.954 170.775L87.4624 172.395C87.4624 172.395 84.4792 173.88 79.462 170.91C74.4448 168.075 70.648 156.87 69.97 152.955C69.292 149.04 69.5632 147.285 69.1564 144.18C68.7496 141.075 72.9532 134.595 75.2584 130.275C77.5636 126.09 80.818 126.9 82.174 127.44C83.53 127.98 87.0556 144.045 87.598 145.53C88.1404 147.015 92.6152 160.245 88.954 170.775Z" fill="#FFBE9B"/>
<path d="M72.6313 90.7569L60.75 92.8667L60.9405 93.93L72.8218 91.8201L72.6313 90.7569Z" fill="#1A1155"/>
<path d="M61.7897 92.681L60.7217 92.8706L61.3408 96.3262L62.4088 96.1366L61.7897 92.681Z" fill="#1A1155"/>
<path d="M72.3668 90.7903L71.2988 90.98L71.9179 94.4356L72.9859 94.2459L72.3668 90.7903Z" fill="#1A1155"/>
<path d="M99.1238 155.79L58.3082 163.08C56.5454 163.485 54.9182 162.27 54.647 160.515L44.477 103.545C44.0702 101.79 45.2906 100.17 47.0534 99.8999L87.869 92.6099C89.6318 92.2049 91.259 93.4199 91.5302 95.1749L101.7 152.145C102.107 153.765 100.887 155.52 99.1238 155.79Z" fill="#0064B3"/>
<path d="M97.0901 153.36L59.2577 160.11C57.7661 160.38 56.5457 159.435 56.1389 157.95L46.7825 105.57C46.5113 104.085 47.4605 102.87 48.9521 102.465L86.7845 95.7149C88.2761 95.4449 89.4965 96.3899 89.9033 97.8749L99.2597 150.255C99.5309 151.74 98.5817 153.09 97.0901 153.36Z" fill="white"/>
<path d="M76.6964 92.9828L57.4727 96.3965L58.6394 102.909L77.8631 99.4953L76.6964 92.9828Z" fill="#1A1155"/>
<path d="M60.3375 109.369L52.9951 110.672L55.8763 126.754L63.2187 125.45L60.3375 109.369Z" fill="#DBE9F8"/>
<path d="M69.8922 111.5L62.5498 112.804L64.7643 125.164L72.1067 123.86L69.8922 111.5Z" fill="#DBE9F8"/>
<path d="M79.1569 111.889L71.8145 113.193L73.6717 123.56L81.0141 122.256L79.1569 111.889Z" fill="#DBE9F8"/>
<path d="M88.611 114.557L81.2686 115.86L82.3877 122.107L89.7301 120.803L88.611 114.557Z" fill="#DBE9F8"/>
<path d="M90.4349 124.813L56.5264 130.834L59.0027 144.657L92.9113 138.636L90.4349 124.813Z" fill="#DBE9F8"/>
<path d="M93.5824 141.099L59.6738 147.12L61.0073 154.563L94.9158 148.542L93.5824 141.099Z" fill="#DBE9F8"/>
<path d="M90.9882 170.775C90.9882 170.775 93.8358 160.245 94.107 158.625C94.3782 157.005 93.429 152.685 93.5646 150.795C93.7002 148.905 90.9882 148.635 88.8186 143.235C88.005 141.21 85.1574 143.91 86.3778 146.88C87.5982 149.85 88.9542 152.145 87.4626 153.63C85.971 155.115 83.8014 156.465 82.581 159.975C81.6318 163.62 84.615 177.12 90.9882 170.775Z" fill="#FFBE9B"/>
<path d="M77.1562 169.56C77.1562 169.56 85.5635 220.455 89.3603 229.635C93.1571 238.815 102.513 240.84 115.667 223.83C130.583 204.795 114.989 223.83 114.989 223.83L105.09 206.55C105.09 206.55 93.2926 167.805 93.0214 167.67C92.7502 167.67 82.0378 169.56 77.1562 169.56Z" fill="#EE384E"/>
<path d="M77.0205 169.02L77.6985 174.285C77.6985 174.285 79.7325 175.365 85.1565 174.555C91.6653 173.61 94.1061 171.18 94.1061 171.18L92.4789 165.915C92.6145 165.915 84.8853 169.155 77.0205 169.02Z" fill="#BD4149"/>
<path d="M103.87 201.96C103.87 201.96 107.26 217.62 107.125 224.64C107.125 224.64 107.938 218.025 107.125 211.545C106.311 205.2 104.819 200.88 104.819 200.88L103.87 201.96Z" fill="#BD4149"/>
<path d="M200.959 267.3L220.486 254.61L173.433 255.285L200.959 267.3Z" fill="#033E9D"/>
<path d="M200.96 267.3H115.26L108.48 214.11H193.502L200.96 267.3Z" fill="#0064B7"/>
<path d="M200.146 261.765H114.582L115.26 267.3H200.959L200.146 261.765Z" fill="#033E9D"/>
<path d="M151.194 243.405C155.313 243.405 158.652 240.927 158.652 237.87C158.652 234.813 155.313 232.335 151.194 232.335C147.075 232.335 143.736 234.813 143.736 237.87C143.736 240.927 147.075 243.405 151.194 243.405Z" fill="white"/>
<path d="M193.502 214.11H190.79L198.926 267.3H200.96L193.502 214.11Z" fill="#033E9D"/>
<path d="M124.616 95.4452C114.175 94.6352 104.954 102.33 104.141 112.995C103.327 123.39 111.056 132.57 121.769 133.38C132.21 134.19 141.431 126.495 142.244 115.83C142.787 105.3 135.058 96.2552 124.616 95.4452ZM122.311 124.2C116.752 123.795 112.684 118.935 113.09 113.535C113.497 108 118.379 103.95 123.803 104.355C129.362 104.76 133.43 109.62 133.024 115.02C132.617 120.555 127.735 124.605 122.311 124.2Z" fill="#EE384E"/>
<path d="M123.803 104.355C124.074 104.355 124.345 104.355 124.616 104.49V95.4451H124.481C118.921 95.0401 113.768 96.9301 109.972 100.575L115.667 107.46C117.836 105.3 120.684 104.22 123.803 104.355Z" fill="#0064B7"/>
<path d="M113.226 113.535L104.141 114.48C104.276 119.745 106.717 124.605 110.243 128.115L116.616 121.77C114.311 119.88 112.955 116.91 113.226 113.535Z" fill="#0064B7"/>
<path d="M133.024 115.02C133.024 115.425 132.888 115.83 132.888 116.235L141.838 117.315C141.973 116.775 141.973 116.235 142.109 115.56C142.516 110.835 141.024 106.245 138.312 102.735L130.447 107.46C132.346 109.62 133.295 112.185 133.024 115.02Z" fill="#0064B7"/>
<path d="M122.582 124.2L122.989 133.245C128.413 133.245 133.43 131.085 136.82 127.305L130.854 120.555C128.955 122.85 125.972 124.47 122.582 124.2Z" fill="#0064B7"/>
<path d="M94.1062 35.6401C93.157 36.1801 92.479 37.2601 92.479 37.2601L84.0718 51.8401C84.0718 51.8401 83.665 52.6501 83.665 53.4601H93.0214L98.581 43.8751L94.1062 35.6401Z" fill="#319F4F"/>
<path d="M103.191 35.6401C104.141 36.1801 104.819 37.2601 104.819 37.2601L113.226 51.7051C113.497 52.2451 113.633 52.9201 113.633 53.3251H104.141L98.5811 43.7401L103.191 35.6401Z" fill="#F5BC0F"/>
<path d="M109.022 61.695C108.073 62.235 106.988 62.1 106.988 62.1H90.1741C89.4961 62.1 88.9537 61.83 88.5469 61.56L93.2929 53.46H104.412L109.022 61.695Z" fill="#3D80B9"/>
<path d="M108.887 61.695L104.141 53.46H113.633C113.633 54 113.497 54.405 113.497 54.54C113.497 54.675 113.361 54.675 113.361 54.81C113.361 54.81 113.226 54.945 113.226 55.08C113.226 55.08 111.192 58.59 110.243 60.345C110.107 60.615 109.971 60.75 109.971 60.885C109.971 60.75 109.565 61.425 108.887 61.695Z" fill="#E84335"/>
<path d="M83.8008 53.46C83.8008 53.46 83.8008 54.135 84.072 54.81C84.3432 55.485 87.3264 60.345 87.5976 60.885C88.0044 61.29 88.4112 61.56 88.4112 61.695L93.1572 53.595L83.8008 53.46Z" fill="#1F64AB"/>
<path d="M93.9707 35.7751C93.9707 35.7751 94.3775 35.3701 95.3267 35.3701H95.4623C95.4623 35.3701 99.6659 35.3701 101.7 35.3701H101.835C102.242 35.3701 102.92 35.3701 103.191 35.7751L98.5811 43.8751L93.9707 35.7751Z" fill="#198038"/>
<path d="M269.932 215.384C269.932 215.384 273.263 214.12 272.946 210.328C272.788 206.536 270.725 204.008 275.008 204.956C278.974 206.062 280.402 206.378 283.257 205.904C286.271 205.272 288.333 203.85 287.223 207.958C286.112 211.908 284.685 214.594 287.54 215.384C290.554 215.7 293.726 213.962 294.044 219.492C294.361 225.496 289.919 231.974 282.147 232.132C274.691 232.29 271.201 229.288 271.201 229.288C271.201 229.288 268.98 226.444 272.312 225.812C275.643 225.022 278.815 223.6 276.912 222.336C275.484 221.072 269.774 220.914 269.774 220.914C269.774 220.914 263.429 219.018 269.932 215.384Z" fill="#6B9CD3"/>
<path d="M304.83 216.49C304.513 212.698 304.83 210.17 311.493 209.064C318.631 208.116 322.438 212.382 322.914 216.49C323.231 220.598 317.045 222.494 317.045 222.494C317.045 222.494 312.92 223.6 314.824 227.392C317.045 231.184 318.155 234.66 312.762 235.134C307.368 235.766 302.451 234.344 299.278 232.29C296.264 230.236 293.092 225.18 296.74 222.494C296.74 222.494 297.692 221.704 300.865 221.546C305.306 221.546 304.83 216.49 304.83 216.49Z" fill="#1C4599"/>
<path d="M280.401 215.542C280.401 215.542 286.271 228.814 286.905 237.504" stroke="#88D6F8" stroke-width="0.523179" stroke-miterlimit="10" stroke-linecap="round" stroke-linejoin="round"/>
<path d="M312.444 217.754C312.444 217.754 302.133 232.606 299.754 237.82" stroke="#599FD2" stroke-width="0.523179" stroke-miterlimit="10" stroke-linecap="round" stroke-linejoin="round"/>
<path d="M283.574 236.398H306.892C306.892 236.398 309.43 236.556 309.271 240.19C309.113 243.508 305.147 242.718 302.926 242.718C300.706 242.718 282.939 242.718 282.939 242.718C282.939 242.718 280.084 243.034 280.084 239.874C280.084 236.556 281.194 236.398 283.574 236.398Z" fill="#0256A4"/>
<path d="M282.939 242.718L286.588 263.1H302.292L304.83 247.932L282.939 242.718Z" fill="#0256A4"/>
<path d="M282.939 242.718L304.83 247.932L305.782 242.718H282.939Z" fill="#346BB4"/>
<path d="M293.092 237.504C293.092 237.504 294.202 214.752 300.865 200.216" stroke="#FABD41" stroke-width="0.523179" stroke-miterlimit="10"/>
<path d="M306.575 192C306.575 192 306.892 199.11 300.23 201.796C300.23 201.638 298.961 195.634 306.575 192Z" fill="#FABD41"/>
<path d="M296.265 213.962C296.265 213.962 298.803 207.8 306.575 208.906C306.575 208.59 305.941 214.752 296.265 213.962Z" fill="#FABD41"/>
<path d="M293.886 229.13C293.886 229.13 295.155 222.81 303.086 222.02C302.769 222.02 303.403 228.024 293.886 229.13Z" fill="#FABD41"/>
<path d="M293.726 229.13C293.726 229.13 294.678 222.652 287.54 219.334C287.223 219.65 284.843 225.022 293.726 229.13Z" fill="#FABD41"/>
<path d="M296.265 213.962C296.265 213.962 297.692 207.642 291.347 203.534C291.347 203.534 288.175 208.59 296.265 213.962Z" fill="#FABD41"/>
</svg>
