<svg width="308" height="230" viewBox="0 0 308 230" fill="none" xmlns="http://www.w3.org/2000/svg">
<path d="M62.2 26.84C62.472 25.888 62.608 24.8 62.608 23.712C62.608 16.096 56.352 9.704 48.6 9.704C47.376 9.704 46.152 9.84 44.928 10.248C42.616 6.168 38.264 3.448 33.232 3.448C26.16 3.448 20.312 9.024 19.904 15.96C19.224 15.824 18.544 15.824 17.864 15.824C12.152 15.824 7.664 20.04 6.984 25.48C3.72 25.48 1 28.2 1 31.6C1 35 3.72 37.72 7.12 37.72H58.256C61.656 37.72 64.376 35 64.376 31.6C64.512 29.56 63.56 27.928 62.2 26.84Z" stroke="#003EAE" stroke-width="0.5" stroke-miterlimit="10"/>
<path d="M24.9355 47.9199V62.0639" stroke="#003EAE" stroke-width="0.5" stroke-miterlimit="10"/>
<path d="M24.9355 39.4879V45.0639" stroke="#003EAE" stroke-width="0.5" stroke-miterlimit="10"/>
<path d="M24.9355 34.184V37.176" stroke="#003EAE" stroke-width="0.5" stroke-miterlimit="10"/>
<path d="M22.3516 60.432L24.9356 63.696L27.6556 60.432" stroke="#003EAE" stroke-width="0.5" stroke-miterlimit="10"/>
<path d="M34.0479 53.9039V68.0479" stroke="#003EAE" stroke-width="0.5" stroke-miterlimit="10"/>
<path d="M34.0479 45.4719V51.1839" stroke="#003EAE" stroke-width="0.5" stroke-miterlimit="10"/>
<path d="M34.0479 40.304V43.296" stroke="#003EAE" stroke-width="0.5" stroke-miterlimit="10"/>
<path d="M31.3281 66.4159L34.0481 69.8159L36.7681 66.4159" stroke="#003EAE" stroke-width="0.5" stroke-miterlimit="10"/>
<path d="M42.6162 42.072V56.216" stroke="#003EAE" stroke-width="0.5" stroke-miterlimit="10"/>
<path d="M42.6162 33.64V39.352" stroke="#003EAE" stroke-width="0.5" stroke-miterlimit="10"/>
<path d="M42.6162 28.3361V31.4641" stroke="#003EAE" stroke-width="0.5" stroke-miterlimit="10"/>
<path d="M39.8965 54.5841L42.6165 57.8481L45.2005 54.5841" stroke="#003EAE" stroke-width="0.5" stroke-miterlimit="10"/>
<path d="M246.072 153.048C245.8 152.096 245.664 151.008 245.664 149.92C245.664 142.304 251.92 135.912 259.672 135.912C260.896 135.912 262.12 136.048 263.344 136.456C265.656 132.376 270.008 129.656 275.04 129.656C282.112 129.656 287.96 135.232 288.368 142.168C289.048 142.032 289.728 142.032 290.408 142.032C296.12 142.032 300.608 146.248 301.288 151.688C304.552 151.688 307.272 154.408 307.272 157.808C307.272 161.208 304.552 163.928 301.152 163.928H250.016C246.616 163.928 243.896 161.208 243.896 157.808C243.624 155.904 244.712 154.136 246.072 153.048Z" stroke="#EE384E" stroke-width="0.5" stroke-miterlimit="10"/>
<path d="M281.024 169.096V154.952" stroke="#EE384E" stroke-width="0.5" stroke-miterlimit="10"/>
<path d="M281.024 177.528V171.952" stroke="#EE384E" stroke-width="0.5" stroke-miterlimit="10"/>
<path d="M281.024 182.832V179.84" stroke="#EE384E" stroke-width="0.5" stroke-miterlimit="10"/>
<path d="M283.609 156.72L281.025 153.32L278.305 156.72" stroke="#EE384E" stroke-width="0.5" stroke-miterlimit="10"/>
<path d="M271.912 163.112V148.968" stroke="#EE384E" stroke-width="0.5" stroke-miterlimit="10"/>
<path d="M271.912 171.544V165.832" stroke="#EE384E" stroke-width="0.5" stroke-miterlimit="10"/>
<path d="M271.912 176.848V173.72" stroke="#EE384E" stroke-width="0.5" stroke-miterlimit="10"/>
<path d="M274.632 150.6L271.912 147.336L269.192 150.6" stroke="#EE384E" stroke-width="0.5" stroke-miterlimit="10"/>
<path d="M263.345 174.944V160.8" stroke="#EE384E" stroke-width="0.5" stroke-miterlimit="10"/>
<path d="M263.345 183.376V177.8" stroke="#EE384E" stroke-width="0.5" stroke-miterlimit="10"/>
<path d="M263.345 188.68V185.552" stroke="#EE384E" stroke-width="0.5" stroke-miterlimit="10"/>
<path d="M266.065 162.432L263.345 159.168L260.761 162.432" stroke="#EE384E" stroke-width="0.5" stroke-miterlimit="10"/>
<path d="M264.84 1C266.88 1 268.92 1 270.96 1C270.96 1 271.096 1 271.232 1.136C272.728 1.408 273.408 2.224 273.68 3.72C273.816 5.08 274.088 6.576 274.224 7.936C274.36 8.616 275.448 9.024 276.128 8.616C277.216 7.8 278.44 6.712 279.664 5.896C281.024 4.944 282.52 4.944 283.744 6.032C284.968 7.256 286.328 8.616 287.552 9.976C288.64 11.064 288.64 12.696 287.688 14.056C287.008 15.008 286.192 16.232 285.376 17.184C284.832 17.728 284.696 18.272 285.24 19.088C285.376 19.224 285.512 19.496 285.784 19.496C287.144 19.632 288.776 19.904 290.136 20.04C291.224 20.176 292.176 20.72 292.448 21.808C292.584 22.08 292.584 22.352 292.72 22.76C292.72 24.8 292.72 26.84 292.72 29.016C292.72 29.152 292.584 29.288 292.584 29.424C292.176 30.648 291.496 31.464 290.136 31.6C288.776 31.736 287.28 32.008 285.92 32.144C285.24 32.144 284.696 33.368 285.24 34.048C286.056 35.136 287.144 36.496 287.96 37.584C288.912 38.808 288.776 40.44 287.824 41.664C286.6 43.024 285.24 44.384 283.88 45.608C282.792 46.696 281.16 46.696 279.8 45.744C278.576 44.928 277.352 43.84 276.128 43.024C275.72 42.616 274.36 43.024 274.224 43.704C274.088 45.2 273.816 46.696 273.544 48.192C273.408 49.28 272.728 50.232 271.504 50.504C271.368 50.504 271.096 50.64 270.824 50.776C268.648 50.776 266.608 50.776 264.568 50.776C264.568 50.776 264.432 50.776 264.432 50.64C263.072 50.368 262.256 49.552 261.984 48.056C261.848 46.696 261.576 45.2 261.44 43.976C261.304 43.296 260.216 42.752 259.4 43.296C258.312 44.112 257.088 45.2 255.864 45.88C254.504 46.832 253.008 46.832 251.784 45.744C250.56 44.656 249.336 43.296 247.976 41.936C246.888 40.848 246.888 39.216 247.84 37.856C248.52 36.904 249.336 35.68 250.152 34.728C250.696 34.184 250.696 33.504 250.288 32.824C250.152 32.688 250.016 32.416 249.88 32.416C248.52 32.28 247.024 32.008 245.8 31.872C243.896 31.736 242.944 30.648 242.944 28.744C242.944 26.84 242.944 25.072 242.944 23.168C242.944 21.4 243.896 20.312 245.528 20.176C246.888 20.04 248.384 19.768 249.744 19.632C250.424 19.632 250.832 18.408 250.424 17.728C249.608 16.64 248.52 15.28 247.704 14.192C246.752 12.968 246.752 11.336 247.84 10.112C249.064 8.888 250.424 7.528 251.784 6.168C252.872 5.08 254.504 5.08 255.864 6.032C257.088 6.848 258.312 7.936 259.536 8.752C259.944 9.16 261.304 8.752 261.44 8.072C261.576 6.712 261.848 5.08 262.12 3.72C262.256 2.496 262.936 1.68 264.16 1.408C264.296 1.136 264.568 1.136 264.84 1ZM285.24 12.424C284.016 11.2 282.792 9.84 281.432 8.616C279.664 9.84 278.032 11.2 276.264 12.424C275.992 12.56 275.72 12.56 275.448 12.424C274.36 11.88 273.136 11.472 272.048 10.928C271.64 10.792 271.368 10.52 271.368 10.112C271.096 8.072 270.824 6.032 270.552 3.992C270.552 3.72 270.416 3.584 270.144 3.584C268.784 3.584 267.288 3.584 265.928 3.584C265.52 3.584 265.52 3.72 265.384 3.992C265.112 6.032 264.84 8.072 264.568 10.112C264.568 10.52 264.432 10.656 263.888 10.792C262.8 11.2 261.576 11.608 260.488 12.152C260.08 12.288 259.808 12.288 259.536 12.152C257.768 10.928 256.136 9.568 254.504 8.48C253.28 9.704 251.92 11.064 250.696 12.288C250.696 12.424 250.832 12.56 250.968 12.696C252.056 14.192 253.28 15.688 254.368 17.184C254.504 17.32 254.504 17.592 254.504 17.864C253.96 19.088 253.416 20.448 252.736 21.672C252.736 21.808 252.464 22.08 252.328 22.08C251.24 22.216 250.016 22.352 248.928 22.488C247.84 22.624 246.616 22.76 245.528 22.896C245.528 24.8 245.528 26.432 245.528 28.2C245.664 28.2 245.936 28.336 246.208 28.336C248.248 28.608 250.152 28.88 252.192 29.152C252.6 29.152 252.736 29.288 252.872 29.696C253.28 30.784 253.688 32.008 254.232 33.096C254.368 33.504 254.368 33.776 254.232 34.184C253.008 35.952 251.648 37.584 250.56 39.216C251.784 40.44 253.008 41.664 254.368 43.024C254.504 43.024 254.64 42.888 254.912 42.616C256.408 41.528 258.04 40.304 259.4 39.216C259.536 39.08 259.808 39.08 260.08 39.08C261.304 39.488 262.528 40.168 263.888 40.576C264.296 40.712 264.432 40.848 264.432 41.256C264.704 43.296 264.976 45.336 265.248 47.376C265.248 47.784 265.384 47.92 265.792 47.92C267.152 47.92 268.648 47.92 269.872 47.92C270.28 47.92 270.416 47.784 270.416 47.376C270.688 45.336 270.96 43.296 271.232 41.12C271.232 40.848 271.368 40.576 271.64 40.44C272.864 40.032 274.224 39.352 275.448 38.944C275.584 38.944 275.856 38.944 276.128 38.944C277.624 40.032 279.256 41.256 280.752 42.344C280.888 42.48 281.16 42.616 281.16 42.616C282.384 41.392 283.744 40.032 284.968 38.808C284.968 38.672 284.832 38.536 284.696 38.4C283.608 36.904 282.384 35.408 281.296 33.912C281.16 33.776 281.16 33.504 281.16 33.368C281.704 32.144 282.248 30.648 282.928 29.424C282.928 29.288 283.2 29.152 283.336 29.152C284.152 29.016 285.104 28.88 285.92 28.88C287.28 28.744 288.776 28.472 290.136 28.336C290.136 26.432 290.136 24.8 290.136 23.032C287.824 22.76 285.784 22.352 283.472 22.08C283.2 22.08 283.064 21.944 282.928 21.672C282.52 20.448 281.976 19.224 281.432 18.136C281.296 17.728 281.296 17.592 281.432 17.184C282.792 15.688 284.152 13.92 285.24 12.424Z" stroke="#003EAE" stroke-width="0.5" stroke-miterlimit="10"/>
<path d="M285.24 12.424C284.016 14.192 282.792 15.824 281.432 17.456C281.16 17.728 281.16 18 281.432 18.408C281.976 19.496 282.384 20.856 282.928 21.944C283.064 22.216 283.2 22.352 283.472 22.352C285.784 22.624 287.824 22.896 290.136 23.304C290.136 25.072 290.136 26.704 290.136 28.608C288.776 28.744 287.28 29.016 285.92 29.152C285.104 29.288 284.152 29.288 283.336 29.424C283.2 29.424 282.928 29.56 282.928 29.696C282.384 30.92 281.84 32.28 281.16 33.64C281.16 33.776 281.16 34.048 281.296 34.184C282.384 35.68 283.608 37.312 284.696 38.672C284.832 38.808 284.968 38.944 284.968 39.08C283.744 40.304 282.52 41.528 281.16 42.888C281.16 42.888 280.888 42.752 280.752 42.616C279.256 41.528 277.624 40.304 276.128 39.216C275.992 39.08 275.72 39.08 275.448 39.216C274.224 39.624 272.864 40.304 271.64 40.712C271.368 40.848 271.232 40.984 271.232 41.392C270.96 43.432 270.688 45.472 270.416 47.648C270.416 48.056 270.28 48.192 269.872 48.192C268.512 48.192 267.016 48.192 265.792 48.192C265.384 48.192 265.248 48.056 265.248 47.648C264.976 45.608 264.704 43.568 264.432 41.528C264.432 41.12 264.296 40.984 263.888 40.848C262.664 40.44 261.44 39.76 260.08 39.352C259.944 39.352 259.672 39.352 259.4 39.488C257.904 40.576 256.272 41.8 254.912 42.888C254.776 43.024 254.504 43.16 254.368 43.296C253.144 42.072 251.92 40.848 250.56 39.488C251.784 37.72 253.008 36.224 254.232 34.456C254.504 34.048 254.504 33.776 254.232 33.368C253.688 32.28 253.28 31.056 252.872 29.968C252.736 29.56 252.6 29.424 252.192 29.424C250.152 29.152 248.248 28.88 246.208 28.608C246.072 28.608 245.8 28.608 245.528 28.472C245.528 26.704 245.528 25.072 245.528 23.168C246.616 23.032 247.84 22.896 248.928 22.76C250.016 22.624 251.24 22.488 252.328 22.352C252.464 22.352 252.736 22.216 252.736 21.944C253.28 20.72 253.824 19.36 254.504 18.136C254.504 18 254.504 17.728 254.368 17.456C253.28 15.96 252.056 14.328 250.968 12.968C250.832 12.832 250.696 12.696 250.696 12.56C251.92 11.336 253.144 9.97596 254.504 8.75196C256 9.83996 257.768 11.2 259.536 12.424C259.808 12.696 260.08 12.696 260.488 12.424C261.576 11.88 262.8 11.472 263.888 11.064C264.296 10.928 264.432 10.792 264.568 10.384C264.84 8.34396 265.112 6.30396 265.384 4.26396C265.384 3.85596 265.52 3.85596 265.928 3.85596C267.288 3.85596 268.784 3.85596 270.144 3.85596C270.416 3.85596 270.552 3.85596 270.552 4.26396C270.824 6.30396 271.096 8.34396 271.368 10.384C271.368 10.792 271.64 11.064 272.048 11.2C273.136 11.608 274.36 12.152 275.448 12.696C275.72 12.832 275.992 12.832 276.264 12.696C278.032 11.472 279.664 10.112 281.432 8.88796C282.792 9.83996 284.152 10.928 285.24 12.424ZM256.952 25.752C256.952 31.736 261.712 36.632 267.696 36.632C273.816 36.632 278.576 31.872 278.576 25.888C278.576 19.768 273.816 15.008 267.832 15.008C262.12 14.872 256.952 19.768 256.952 25.752Z" stroke="#003EAE" stroke-width="0.5" stroke-miterlimit="10"/>
<g clip-path="url(#clip0_2925_17651)">
<path d="M264.131 20.344H28.1367V180.777H264.131V20.344Z" fill="#0064B5"/>
<path d="M264.131 157.064H28.1367V180.713H264.131V157.064Z" fill="#FFC727"/>
<path d="M264.131 157.064H28.1367V180.713H264.131V157.064Z" fill="#033E9F"/>
<path d="M192.124 209.659H100.144V217.348H192.124V209.659Z" fill="#FFC727"/>
<path d="M192.124 209.659H100.144V217.348H192.124V209.659Z" fill="#033E9F"/>
<path d="M181.2 209.659H111.067L112.877 196.349L112.942 195.703L113.136 194.475L113.2 193.829L113.394 192.601V192.408L113.459 191.955L113.653 190.728L113.718 190.082L114.946 180.777H177.322L178.485 189.565L178.55 189.952L178.744 191.438L178.808 191.826L178.873 192.408L179.002 193.312V193.7L179.196 195.186L179.261 195.574L181.2 209.659Z" fill="#0064B5"/>
<path d="M149.98 167.338C149.98 169.47 148.235 171.214 146.102 171.214C143.969 171.214 142.224 169.47 142.224 167.338C142.224 165.206 143.969 163.461 146.102 163.461C148.235 163.396 149.98 165.141 149.98 167.338Z" fill="white"/>
<g opacity="0.16">
<path d="M178.874 192.408L113.719 190.082L114.947 180.777H177.323L178.874 192.408Z" fill="black"/>
</g>
<path d="M253.584 30.7466H39.373V145.951H253.584V30.7466Z" fill="white"/>
<path d="M52.4114 89.6424H100.162C101.637 89.6424 102.978 88.4352 102.978 86.8257V40.9534C102.978 39.478 101.771 38.1367 100.162 38.1367H52.4114C50.936 38.1367 49.5947 39.3439 49.5947 40.9534V86.5574C49.5947 88.3011 50.936 89.6424 52.4114 89.6424Z" stroke="#003EB0" stroke-width="0.526579" stroke-miterlimit="10" stroke-dasharray="2.11 2.11"/>
<path d="M232.721 51.2473H117.599C115.313 51.2473 113.354 49.6625 113.354 47.5015C113.354 45.4845 115.15 43.7556 117.599 43.7556H232.721C235.007 43.7556 236.967 45.3404 236.967 47.5015C236.967 49.5185 235.334 51.2473 232.721 51.2473Z" fill="#EE384E"/>
<path d="M192.858 58.739H115.895C114.624 58.739 113.354 57.9363 113.354 56.8661C113.354 55.9296 114.443 54.9932 115.895 54.9932H193.221C194.492 54.9932 195.762 55.7958 195.762 56.8661C195.581 57.9363 194.31 58.739 192.858 58.739Z" fill="#DBE9F8"/>
<path d="M119.862 76.2877C122.538 76.2877 124.707 74.1184 124.707 71.4425C124.707 68.7666 122.538 66.5973 119.862 66.5973C117.186 66.5973 115.017 68.7666 115.017 71.4425C115.017 74.1184 117.186 76.2877 119.862 76.2877Z" fill="#395196"/>
<path d="M132.874 76.2877C135.55 76.2877 137.72 74.1184 137.72 71.4425C137.72 68.7666 135.55 66.5973 132.874 66.5973C130.199 66.5973 128.029 68.7666 128.029 71.4425C128.029 74.1184 130.199 76.2877 132.874 76.2877Z" fill="#3D83D9"/>
<path d="M145.333 76.2877C148.009 76.2877 150.179 74.1184 150.179 71.4425C150.179 68.7666 148.009 66.5973 145.333 66.5973C142.658 66.5973 140.488 68.7666 140.488 71.4425C140.488 74.1184 142.658 76.2877 145.333 76.2877Z" fill="#00A9FF"/>
<path d="M158.624 76.2877C161.299 76.2877 163.469 74.1184 163.469 71.4425C163.469 68.7666 161.299 66.5973 158.624 66.5973C155.948 66.5973 153.778 68.7666 153.778 71.4425C153.778 74.1184 155.948 76.2877 158.624 76.2877Z" fill="#DD4B39"/>
<path d="M233.221 92.7463C233.221 92.0541 232.667 91.3619 231.836 91.3619H59.6246C58.9324 91.3619 58.2402 91.9157 58.2402 92.7463V119.741C58.2402 119.879 58.2402 119.879 58.2402 120.018C58.2402 120.156 58.2402 120.156 58.2402 120.295V141.475C58.2402 142.167 58.794 142.859 59.6246 142.859H231.698C232.39 142.859 233.082 142.306 233.082 141.475V120.295C233.082 120.156 233.082 120.156 233.082 120.018C233.082 119.879 233.082 119.879 233.082 119.741V92.7463H233.221Z" fill="white"/>
<path d="M108.354 110.057H61.2865C59.4869 110.057 58.1025 108.673 58.1025 106.873C58.1025 105.074 59.4869 103.689 61.2865 103.689H108.354C110.154 103.689 111.538 105.074 111.538 106.873C111.676 108.535 110.015 110.057 108.354 110.057Z" fill="#EE384E"/>
<path d="M198.336 115.456H59.21C58.6563 115.456 58.1025 114.903 58.1025 114.349C58.1025 113.795 58.6563 113.241 59.21 113.241H198.336C198.89 113.241 199.444 113.795 199.444 114.349C199.305 114.903 199.028 115.456 198.336 115.456Z" fill="#DBE9F8"/>
<path d="M143.654 120.994H59.3477C58.794 120.994 58.2402 120.44 58.2402 119.886C58.2402 119.332 58.794 118.779 59.3477 118.779H143.654C144.208 118.779 144.761 119.332 144.761 119.886C145.038 120.44 144.346 120.994 143.654 120.994Z" fill="#DBE9F8"/>
<path d="M63.0854 134.698C65.7613 134.698 67.9306 132.529 67.9306 129.853C67.9306 127.177 65.7613 125.008 63.0854 125.008C60.4095 125.008 58.2402 127.177 58.2402 129.853C58.2402 132.529 60.4095 134.698 63.0854 134.698Z" fill="#395196"/>
<path d="M76.2368 134.698C78.9127 134.698 81.082 132.529 81.082 129.853C81.082 127.177 78.9127 125.008 76.2368 125.008C73.5609 125.008 71.3916 127.177 71.3916 129.853C71.3916 132.529 73.5609 134.698 76.2368 134.698Z" fill="#3D83D9"/>
<path d="M88.8344 134.698C91.5104 134.698 93.6796 132.529 93.6796 129.853C93.6796 127.177 91.5104 125.008 88.8344 125.008C86.1585 125.008 83.9893 127.177 83.9893 129.853C83.9893 132.529 86.1585 134.698 88.8344 134.698Z" fill="#00A9FF"/>
<path d="M101.985 134.698C104.661 134.698 106.83 132.529 106.83 129.853C106.83 127.177 104.661 125.008 101.985 125.008C99.3089 125.008 97.1396 127.177 97.1396 129.853C97.1396 132.529 99.3089 134.698 101.985 134.698Z" fill="#DD4B39"/>
</g>
<path d="M256.236 208.811C256.236 208.811 259.984 209.111 262.832 209.111C265.68 209.111 270.027 209.71 270.027 209.71C270.027 209.71 271.226 209.71 271.226 211.209C271.226 212.708 271.226 213.158 271.226 213.158C271.226 213.158 271.226 215.106 270.027 215.106C268.828 215.106 260.284 216.006 258.485 216.006C256.686 216.006 255.037 216.306 255.037 215.106C254.887 213.458 254.887 208.811 256.236 208.811Z" fill="#160956"/>
<path d="M259.385 169.089C259.385 169.089 261.933 182.579 261.933 186.327C262.233 190.074 262.533 192.622 259.984 194.121C257.736 195.62 253.689 196.969 253.689 196.969L249.042 172.686V169.838L259.385 169.089Z" fill="#FDBD97"/>
<path d="M217.864 168.489C217.864 168.489 216.665 174.785 215.915 177.783C215.615 180.93 214.716 186.776 214.716 188.425C214.716 189.924 214.416 192.172 216.964 193.971C219.513 195.77 222.211 196.819 222.211 196.819L227.457 168.639H217.714V168.489H217.864Z" fill="#FDBD97"/>
<path d="M236.152 148.853C236.152 148.853 236.152 151.701 234.952 152.9C233.753 154.099 232.104 156.048 232.104 156.048C232.104 156.048 234.952 160.395 240.499 159.795C246.045 159.196 247.094 155.149 247.094 155.149C247.094 155.149 241.848 154.549 241.098 149.453C240.499 144.506 239.599 144.506 239.599 144.506L236.152 148.853Z" fill="#FDAE7F"/>
<path d="M232.104 137.611C232.104 137.611 232.404 144.206 235.252 149.153C238.4 154.099 241.848 151.401 243.347 148.853C244.846 146.305 248.593 137.611 247.694 135.812C246.794 133.564 235.852 132.664 235.852 132.664L232.104 137.611Z" fill="#FDBD97"/>
<path d="M246.493 141.358C246.493 141.358 247.992 140.159 247.992 141.358C247.992 142.557 247.093 144.506 246.044 144.506C245.144 144.806 245.144 144.206 245.444 143.307C245.894 142.557 246.493 141.358 246.493 141.358Z" fill="#FDBD97"/>
<path d="M232.704 143.757C233.004 144.056 233.603 144.056 233.603 143.457C233.603 142.258 232.704 140.309 231.655 140.309C230.755 140.009 230.755 140.609 231.055 141.508C231.055 141.808 231.055 142.108 231.355 142.407C231.805 142.857 232.404 143.757 232.704 143.757Z" fill="#FDBD97"/>
<path d="M232.404 140.609L232.104 138.66C232.104 138.66 234.053 138.96 235.852 136.711C235.852 136.711 239.899 137.611 243.047 137.311C246.494 137.011 247.693 136.112 247.693 136.112C247.693 136.112 247.094 139.859 246.494 141.058C246.494 141.058 247.993 140.459 248.743 138.51C249.342 136.562 249.342 134.763 249.342 134.763C249.342 134.763 251.591 132.814 252.19 131.016C252.19 131.016 246.194 129.517 244.396 128.467C242.447 127.268 241.548 126.519 241.548 126.519C241.548 126.519 238.7 125.02 236.001 127.118C233.303 129.217 231.355 130.566 231.355 134.313C231.505 134.163 228.657 137.911 232.404 140.609Z" fill="#150C56"/>
<path d="M232.704 154.099C232.704 154.099 228.957 153.8 226.708 154.099C224.46 154.699 223.86 154.399 224.46 156.048C225.06 157.697 227.907 165.042 226.708 169.538C225.509 174.185 223.561 197.719 223.561 197.719C223.561 197.719 237.95 198.318 243.497 198.618C249.043 198.918 253.24 198.018 253.24 198.018C253.24 198.018 254.439 187.676 253.24 183.329C252.041 178.982 250.392 171.487 250.392 171.487C250.392 171.487 249.492 161.144 250.691 158.746C251.891 156.198 253.24 156.198 251.291 155.298C249.492 154.399 247.544 154.099 246.045 154.099C244.546 154.099 243.796 154.099 242.897 154.999C241.998 155.898 240.349 157.547 237.95 157.247C235.702 156.947 233.903 155.298 233.903 155.298C233.903 155.298 233.753 154.099 232.704 154.099Z" fill="#0181F7"/>
<path d="M226.258 154.699C226.258 154.699 225.059 154.099 222.811 155.598C220.562 157.547 219.063 161.144 218.464 163.693C217.864 166.241 217.265 168.639 217.265 168.639C217.265 168.639 220.113 170.138 222.811 170.138C225.509 170.138 227.457 170.438 227.457 170.438C227.457 170.438 228.657 162.943 228.357 159.795C228.057 156.947 227.457 155.598 226.258 154.699Z" fill="#0064B5"/>
<path d="M249.941 157.547C249.941 157.547 251.141 154.399 253.689 155.598C256.237 157.097 258.036 162.493 258.635 163.992C259.235 165.941 259.834 168.939 259.834 168.939C259.834 168.939 256.687 170.138 254.288 170.438C251.74 170.738 249.941 170.738 249.941 170.738C249.941 170.738 249.042 164.142 249.042 161.444C249.042 158.746 249.941 157.547 249.941 157.547Z" fill="#0064B5"/>
<path d="M229.106 199.667H248.443L238.4 202.815L229.106 199.667Z" fill="#8F051C"/>
<path d="M211.868 194.421C211.868 194.421 247.094 205.363 254.888 208.211C254.888 208.211 257.436 208.811 257.436 210.01C257.436 211.209 257.136 213.158 257.136 214.057C256.837 214.956 255.937 216.006 254.588 215.556C253.389 215.256 221.462 208.961 209.02 205.513L205.273 204.314C205.273 204.314 202.725 203.115 203.025 199.967C203.324 196.819 205.873 193.971 207.371 193.671C209.32 193.821 211.868 194.421 211.868 194.421Z" fill="#DC051F"/>
<path d="M208.72 210.01C208.72 210.01 213.067 209.41 215.915 209.111C218.463 209.111 222.211 208.811 222.51 209.111C222.81 209.41 223.41 214.657 223.41 214.657C223.41 214.657 223.71 216.156 220.262 215.856C216.814 215.556 208.72 215.256 208.72 215.256C208.72 215.256 206.771 215.256 206.771 213.308C206.771 211.809 207.071 211.059 207.071 211.059C207.071 211.059 207.521 210.31 208.72 210.01Z" fill="#160956"/>
<path d="M229.706 205.363C229.706 205.363 250.991 198.768 258.786 196.669C266.58 194.421 270.627 192.322 273.176 196.07C275.724 199.817 275.424 203.565 272.576 204.764C269.728 205.963 247.544 211.059 238.25 212.858C228.957 214.657 222.961 216.006 222.062 215.706C221.162 215.406 220.113 212.558 220.563 211.059C220.862 209.56 220.862 208.811 222.811 208.211C224.31 207.162 229.706 205.363 229.706 205.363Z" fill="#EC384E"/>
<path d="M227.157 174.335H252.789C252.789 174.335 254.288 174.035 254.288 176.284C254.288 178.232 254.288 198.468 254.288 198.468C254.288 198.468 254.288 199.967 253.389 199.967C252.19 199.967 223.11 199.967 223.11 199.967C223.11 199.967 221.911 200.267 221.911 198.018C221.911 195.77 221.911 175.534 221.911 175.534C221.911 175.534 221.911 174.335 223.41 174.335C224.909 174.335 227.157 174.335 227.157 174.335Z" fill="#160956"/>
<defs>
<clipPath id="clip0_2925_17651">
<rect width="235.994" height="209.317" fill="white" transform="translate(28.1357 20.344)"/>
</clipPath>
</defs>
</svg>
