<svg width="363" height="253" viewBox="0 0 363 253" fill="none" xmlns="http://www.w3.org/2000/svg">
<path d="M217.077 194.424C217.077 194.424 222.014 219.544 222.014 226.513C222.595 233.483 223.031 238.275 218.384 241.034C214.173 243.792 206.478 246.406 206.478 246.406L197.766 201.248V195.876L217.077 194.424Z" fill="#FFBF99"/>
<path d="M138.96 193.408C138.96 193.408 136.637 205.169 135.33 210.832C134.749 216.785 133.006 227.53 133.006 230.579C133.006 233.338 132.426 237.549 137.217 240.889C142.154 244.228 147.091 246.261 147.091 246.261L156.965 193.698H138.669V193.408H138.96Z" fill="#FFBF99"/>
<path d="M173.375 156.817C173.375 156.817 173.375 162.19 171.052 164.368C168.729 166.691 165.68 170.321 165.68 170.321C165.68 170.321 171.052 178.452 181.507 177.291C191.961 176.274 193.994 168.578 193.994 168.578C193.994 168.578 184.12 167.562 182.668 157.979C181.652 148.686 179.764 148.686 179.764 148.686L173.375 156.817Z" fill="#FFB07E"/>
<path d="M165.82 135.908C165.82 135.908 166.401 148.25 171.774 157.398C177.727 166.691 184.261 161.609 187.02 156.817C189.924 152.025 196.893 135.763 195.296 132.423C193.554 128.212 173.08 126.47 173.08 126.47L165.82 135.908Z" fill="#FFBF99"/>
<path d="M192.974 142.878C192.974 142.878 195.878 140.555 195.878 142.878C195.878 145.201 194.135 148.831 192.248 148.831C190.505 149.412 190.505 148.25 191.231 146.508C191.667 145.201 192.974 142.878 192.974 142.878Z" fill="#FFBF99"/>
<path d="M166.838 147.234C167.419 147.815 168.581 147.815 168.581 146.653C168.581 144.33 166.838 140.7 164.951 140.7C163.208 140.119 163.208 141.281 163.934 143.023C163.934 143.604 163.934 144.039 164.515 144.765C165.241 145.637 166.258 147.234 166.838 147.234Z" fill="#FFBF99"/>
<path d="M166.257 141.426L165.676 137.796C165.676 137.796 169.306 138.377 172.645 134.166C172.645 134.166 180.196 135.908 186.149 135.182C192.683 134.601 194.861 132.859 194.861 132.859C194.861 132.859 193.845 139.829 192.538 142.152C192.538 142.152 195.442 141.135 196.749 137.36C197.765 133.73 197.765 130.391 197.765 130.391C197.765 130.391 201.976 126.761 203.138 123.421C203.138 123.421 191.812 120.662 188.472 118.629C184.842 116.306 183.1 114.999 183.1 114.999C183.1 114.999 177.728 112.24 172.645 116.016C167.563 119.936 163.933 122.404 163.933 129.374C164.659 129.519 159.287 136.489 166.257 141.426Z" fill="#160C56"/>
<path d="M166.841 166.546C166.841 166.546 159.872 165.965 155.516 166.546C151.305 167.562 150.143 167.126 151.305 170.176C152.321 173.225 157.839 186.874 155.516 195.295C153.193 204.008 149.562 247.858 149.562 247.858C149.562 247.858 176.715 248.875 187.17 249.601C197.624 250.181 205.61 248.584 205.61 248.584C205.61 248.584 207.933 229.272 205.61 221.141C203.287 213.01 200.238 199.071 200.238 199.071C200.238 199.071 198.495 179.759 200.818 175.258C203.142 170.466 205.755 170.466 201.835 168.869C198.495 167.126 194.865 166.546 191.961 166.546C189.057 166.546 187.75 166.546 186.008 168.288C184.266 170.03 181.071 173.08 176.715 172.499C172.504 171.918 169.165 168.869 169.165 168.869C169.165 168.869 168.874 166.546 166.841 166.546Z" fill="#0083F9"/>
<path d="M154.642 167.707C154.642 167.707 152.318 166.691 148.107 169.449C143.897 173.079 141.138 179.759 139.831 184.55C138.815 189.342 137.508 193.843 137.508 193.843C137.508 193.843 142.88 196.602 147.962 196.602C153.19 196.602 156.674 197.183 156.674 197.183C156.674 197.183 158.998 183.243 158.417 177.435C158.272 171.918 156.965 169.304 154.642 167.707Z" fill="#0064B7"/>
<path d="M199.364 173.08C199.364 173.08 201.687 167.126 206.334 169.45C211.271 172.208 214.61 182.227 215.627 185.131C216.643 188.761 217.95 194.424 217.95 194.424C217.95 194.424 211.997 196.747 207.495 197.183C202.559 197.764 199.219 197.764 199.219 197.764C199.219 197.764 197.477 185.422 197.477 180.34C197.622 175.258 199.364 173.08 199.364 173.08Z" fill="#0064B7"/>
<path d="M156.527 204.153H204.733C204.733 204.153 207.637 203.572 207.637 207.783C207.637 211.413 207.637 249.02 207.637 249.02C207.637 249.02 207.637 251.779 205.895 251.779C203.572 251.779 148.831 251.779 148.831 251.779C148.831 251.779 146.508 252.359 146.508 248.149C146.508 243.938 146.508 206.331 146.508 206.331C146.508 206.331 146.508 204.007 149.412 204.007C152.316 204.153 156.527 204.153 156.527 204.153Z" fill="#0064B7"/>
<g opacity="0.5">
<path d="M293.45 125.599C293.45 126.906 292.288 128.213 290.836 128.213C289.384 128.213 288.223 127.051 288.223 125.599C288.223 124.292 289.384 122.986 290.836 122.986C292.288 122.986 293.45 124.292 293.45 125.599ZM292.143 125.599C292.143 124.873 291.562 124.292 290.836 124.292C290.11 124.292 289.529 124.873 289.529 125.599C289.529 126.325 290.11 126.906 290.836 126.906C291.562 127.051 292.143 126.47 292.143 125.599Z" fill="#0064B3"/>
<path d="M337.012 30.6376H322.346C322.056 30.6376 321.766 30.928 321.766 31.2184C321.766 31.5088 322.056 31.7992 322.346 31.7992H337.012C337.302 31.7992 337.593 31.5088 337.593 31.2184C337.738 30.928 337.447 30.6376 337.012 30.6376Z" fill="#0064B3"/>
<path d="M317.7 30.6376H314.796C314.505 30.6376 314.215 30.928 314.215 31.2184C314.215 31.5088 314.505 31.7992 314.796 31.7992H317.7C317.99 31.7992 318.28 31.5088 318.28 31.2184C318.28 30.928 318.135 30.6376 317.7 30.6376Z" fill="#0064B3"/>
<path d="M330.186 35.8651C330.186 36.1555 329.896 36.4459 329.605 36.4459H327.718C327.427 36.4459 327.137 36.1555 327.137 35.8651C327.137 35.5747 327.427 35.2843 327.718 35.2843H329.605C329.751 35.1391 330.186 35.5747 330.186 35.8651ZM325.104 35.8651C325.104 36.1555 324.814 36.4459 324.523 36.4459H321.329C321.039 36.4459 320.748 36.1555 320.748 35.8651C320.748 35.5747 321.039 35.2843 321.329 35.2843H324.523C324.814 35.1391 325.104 35.5747 325.104 35.8651ZM318.715 35.8651C318.715 36.1555 318.425 36.4459 318.135 36.4459H314.94C314.65 36.4459 314.359 36.1555 314.359 35.8651C314.359 35.5747 314.65 35.2843 314.94 35.2843H318.135C318.425 35.1391 318.715 35.5747 318.715 35.8651Z" fill="#0064B3"/>
<path d="M98.7371 73.7619C98.4467 73.7619 98.1562 74.0523 98.1562 74.3427V75.7947C98.1562 76.0851 98.4467 76.3755 98.7371 76.3755C99.0275 76.3755 99.3179 76.0851 99.3179 75.7947V74.3427C99.3179 73.9071 99.1727 73.7619 98.7371 73.7619Z" fill="#0064B3"/>
<path d="M96.9938 72.1653H95.5417C95.2513 72.1653 94.9609 72.4557 94.9609 72.7461C94.9609 73.0365 95.2513 73.3269 95.5417 73.3269H96.9938C97.2842 73.3269 97.5746 73.0365 97.5746 72.7461C97.5746 72.4557 97.4294 72.1653 96.9938 72.1653Z" fill="#0064B3"/>
<path d="M98.7371 68.9707C98.4467 68.9707 98.1562 69.2611 98.1562 69.5515V71.0035C98.1562 71.2939 98.4467 71.5843 98.7371 71.5843C99.0275 71.5843 99.3179 71.2939 99.3179 71.0035V69.5515C99.3179 69.2611 99.1727 68.9707 98.7371 68.9707Z" fill="#0064B3"/>
<path d="M101.931 72.0201H100.479C100.189 72.0201 99.8984 72.3105 99.8984 72.6009C99.8984 72.8913 100.189 73.1817 100.479 73.1817H101.931C102.222 73.1817 102.512 72.8913 102.512 72.6009C102.512 72.3105 102.222 72.0201 101.931 72.0201Z" fill="#0064B3"/>
<path d="M260.339 31.9443C260.048 31.9443 259.758 32.2347 259.758 32.5251V33.9771C259.758 34.2675 260.048 34.5579 260.339 34.5579C260.629 34.5579 260.919 34.2675 260.919 33.9771V32.5251C260.919 32.3799 260.629 31.9443 260.339 31.9443Z" fill="#0064B3"/>
<path d="M258.744 30.4923H257.292C257.001 30.4923 256.711 30.7827 256.711 31.0731C256.711 31.3635 257.001 31.6539 257.292 31.6539H258.744C259.034 31.6539 259.325 31.3635 259.325 31.0731C259.325 30.7827 259.034 30.4923 258.744 30.4923Z" fill="#0064B3"/>
<path d="M260.339 27.443C260.048 27.443 259.758 27.7334 259.758 28.0238V29.4758C259.758 29.7662 260.048 30.0566 260.339 30.0566C260.629 30.0566 260.919 29.7662 260.919 29.4758V28.0238C260.919 27.7334 260.629 27.443 260.339 27.443Z" fill="#0064B3"/>
<path d="M263.537 30.347H262.085C261.794 30.347 261.504 30.6374 261.504 30.9278C261.504 31.2182 261.794 31.5086 262.085 31.5086H263.537C263.827 31.5086 264.118 31.2182 264.118 30.9278C264.118 30.6374 263.827 30.347 263.537 30.347Z" fill="#0064B3"/>
<path d="M200.375 0H185.71C185.419 0 185.129 0.290403 185.129 0.580805C185.129 0.871207 185.419 1.16161 185.71 1.16161H200.375C200.665 1.16161 200.956 0.871207 200.956 0.580805C201.101 0.290403 200.811 0 200.375 0Z" fill="#0064B3"/>
<path d="M181.063 0H178.159C177.869 0 177.578 0.290403 177.578 0.580805C177.578 0.871207 177.869 1.16161 178.159 1.16161H181.063C181.353 1.16161 181.644 0.871207 181.644 0.580805C181.644 0.290403 181.353 0 181.063 0Z" fill="#0064B3"/>
<path d="M193.55 5.22735C193.55 5.51775 193.259 5.80816 192.969 5.80816H191.081C190.791 5.80816 190.5 5.51775 190.5 5.22735C190.5 4.93695 190.791 4.64655 191.081 4.64655H192.969C193.259 4.64655 193.55 4.93695 193.55 5.22735ZM188.468 5.22735C188.468 5.51775 188.177 5.80816 187.887 5.80816H184.692C184.402 5.80816 184.112 5.51775 184.112 5.22735C184.112 4.93695 184.402 4.64655 184.692 4.64655H187.887C188.177 4.64655 188.468 4.93695 188.468 5.22735ZM182.079 5.22735C182.079 5.51775 181.788 5.80816 181.498 5.80816H178.303C178.013 5.80816 177.723 5.51775 177.723 5.22735C177.723 4.93695 178.013 4.64655 178.303 4.64655H181.498C181.788 4.64655 182.079 4.93695 182.079 5.22735Z" fill="#0064B3"/>
<path d="M358.355 67.3729C358.355 68.5345 359.372 69.6961 360.679 69.6961C361.986 69.6961 363.002 68.6797 363.002 67.3729C363.002 66.2113 361.986 65.0497 360.679 65.0497C359.372 65.1949 358.355 66.0661 358.355 67.3729Z" fill="#0064B3"/>
<path d="M60.9838 178.598H75.6491C75.9395 178.598 76.2299 178.307 76.2299 178.017C76.2299 177.727 75.9395 177.436 75.6491 177.436H60.9838C60.6934 177.436 60.403 177.727 60.403 178.017C60.1126 178.307 60.403 178.598 60.9838 178.598Z" fill="#0064B3"/>
<path d="M53.2878 178.598H56.1919C56.4823 178.598 56.7727 178.307 56.7727 178.017C56.7727 177.726 56.4823 177.436 56.1919 177.436H53.2878C52.9974 177.436 52.707 177.726 52.707 178.017C52.707 178.307 52.9974 178.598 53.2878 178.598Z" fill="#0064B3"/>
<path d="M338.315 189.052C338.315 189.052 339.186 195.296 331.926 195.15C331.926 195.15 338.169 195.15 338.024 201.104C338.024 201.104 338.605 196.602 344.413 195.441C344.413 195.441 339.621 196.602 338.315 189.052Z" fill="#0064B3"/>
<path d="M314.209 80.0057C314.209 80.0057 315.08 86.2493 307.82 86.1041C307.82 86.1041 314.064 86.1041 313.919 92.0574C313.919 92.0574 314.5 87.5561 320.308 86.3945C320.162 86.3945 315.371 87.7013 314.209 80.0057Z" fill="#0064B3"/>
<path d="M116.593 6.53421C116.593 6.53421 116.883 8.71223 114.27 8.71223C114.27 8.71223 116.448 8.71223 116.448 10.8902C116.448 10.8902 116.593 9.14783 118.626 8.85742C118.771 8.71222 117.028 9.14783 116.593 6.53421Z" fill="#0064B3"/>
<path d="M231.159 81.7479C231.159 81.7479 231.45 83.9259 228.836 83.9259C228.836 83.9259 231.014 83.9259 231.014 86.104C231.014 86.104 231.159 84.3615 233.192 84.0711C233.337 83.9259 231.45 84.3615 231.159 81.7479Z" fill="#0064B3"/>
<path d="M19.0185 119.065C19.0185 119.065 19.3089 121.243 16.6953 121.243C16.6953 121.243 18.8733 121.243 18.8733 123.421C18.8733 123.421 19.0185 121.678 21.0513 121.388C21.0513 121.243 19.3089 121.678 19.0185 119.065Z" fill="#0064B3"/>
<path d="M209.378 177.871C209.378 177.871 209.668 180.049 207.055 180.049C207.055 180.049 209.233 180.049 209.233 182.227C209.233 182.227 209.378 180.485 211.411 180.194C211.556 180.194 209.814 180.485 209.378 177.871Z" fill="#0064B3"/>
<path d="M122.691 142.733H108.316C106.429 142.733 104.977 141.281 104.977 139.393C104.977 137.506 106.283 136.199 108.171 136.054C108.171 133.295 110.494 130.972 113.398 130.972C115.141 130.972 116.738 131.843 117.609 133.295C119.642 133.004 121.239 134.166 121.675 136.054H122.401C124.288 136.054 125.74 137.506 125.74 139.393C125.886 141.136 124.579 142.733 122.691 142.733ZM108.461 137.07C107.3 137.07 106.138 138.086 106.138 139.393C106.138 140.7 107.155 141.716 108.461 141.716H122.836C123.998 141.716 125.16 140.7 125.16 139.393C125.16 138.086 124.143 137.07 122.836 137.07H121.094V136.634C120.803 135.182 119.351 134.021 117.754 134.311L117.464 134.456L117.319 134.166C116.593 132.859 115.141 131.988 113.689 131.988C111.365 131.988 109.623 133.876 109.623 136.054C109.623 136.199 109.623 136.344 109.623 136.344V136.78H108.607L108.461 137.07Z" fill="#0064B3"/>
<path d="M156.379 58.3713H142.004C140.116 58.3713 138.664 56.9193 138.664 55.0316C138.664 53.144 139.971 51.8372 141.858 51.692C141.858 48.9332 144.182 46.61 147.086 46.61C148.828 46.61 150.425 47.4812 151.297 48.9332C153.329 48.6428 154.927 49.8044 155.362 51.692H156.088C157.976 51.692 159.428 53.144 159.428 55.0316C159.573 56.7741 158.266 58.3713 156.379 58.3713ZM142.004 52.7084C140.842 52.7084 139.68 53.7248 139.68 55.0316C139.68 56.1933 140.697 57.3549 142.004 57.3549H156.379C157.54 57.3549 158.702 56.3385 158.702 55.0316C158.702 53.87 157.685 52.7084 156.379 52.7084H154.636V52.2728C154.346 50.8208 152.894 49.6592 151.297 49.9496L151.006 50.0948L150.861 49.8044C150.135 48.4976 148.683 47.6264 147.231 47.6264C144.908 47.6264 143.165 49.514 143.165 51.692C143.165 51.8372 143.165 51.9824 143.165 51.9824V52.418H142.149L142.004 52.7084Z" fill="#0064B3"/>
</g>
<path d="M281.834 196.021C281.544 196.021 281.253 195.876 281.108 195.731C280.672 195.295 280.672 194.714 281.108 194.279L291.127 184.26C291.562 183.824 292.143 183.824 292.579 184.26C293.014 184.695 293.014 185.276 292.579 185.712L282.56 195.731C282.415 195.876 282.124 196.021 281.834 196.021Z" fill="#0064B3"/>
<path d="M274.72 189.778C274.139 189.778 273.703 189.342 273.703 188.761V174.532C273.703 173.951 274.139 173.515 274.72 173.515C275.3 173.515 275.736 173.951 275.736 174.532V188.761C275.736 189.342 275.3 189.778 274.72 189.778Z" fill="#0064B3"/>
<path d="M302.309 203.136H288.079C287.498 203.136 287.062 202.7 287.062 202.12C287.062 201.539 287.498 201.103 288.079 201.103H302.309C302.889 201.103 303.325 201.539 303.325 202.12C303.325 202.7 302.889 203.136 302.309 203.136Z" fill="#0064B3"/>
<path d="M331.494 252.069H47.626C45.8836 252.069 44.8672 251.052 44.8672 249.746C44.8672 248.584 46.174 247.422 47.626 247.422H331.349C333.091 247.422 334.108 248.439 334.108 249.746C334.253 251.052 332.801 252.069 331.494 252.069Z" fill="#E7ECF0"/>
<path d="M129.953 99.7528L136.923 107.158L189.486 85.2327L129.953 99.7528Z" fill="#DC051F"/>
<path d="M132.275 75.3593L127.193 83.3454L130.678 90.8959L122.837 92.3479L115.867 107.594L191.081 84.7974L132.275 75.3593Z" fill="#EC384E"/>
<path d="M130.68 90.896L127.195 83.3455L167.997 85.0879L130.68 90.896Z" fill="#DC051F"/>
<path d="M126.764 166.836C126.183 166.836 125.602 166.836 125.021 166.836C124.441 166.836 124.005 166.401 124.005 165.82C124.005 165.239 124.441 164.803 125.021 164.803C127.78 164.803 130.539 164.803 133.443 164.658C134.024 164.658 134.46 165.094 134.46 165.675C134.46 166.255 134.024 166.691 133.443 166.691C131.12 166.836 128.942 166.836 126.764 166.836ZM116.6 166.401C116.455 166.401 116.455 166.401 116.6 166.401C113.551 166.11 110.792 165.82 108.033 165.384C107.452 165.239 107.162 164.803 107.162 164.223C107.307 163.642 107.743 163.351 108.323 163.351C111.082 163.787 113.841 164.223 116.745 164.368C117.326 164.368 117.761 164.949 117.616 165.384C117.616 165.965 117.035 166.401 116.6 166.401ZM99.9017 163.351C99.7565 163.351 99.7565 163.351 99.6113 163.351C96.8525 162.48 94.0937 161.464 91.48 160.302C91.0444 160.012 90.754 159.431 91.0444 158.995C91.3349 158.56 91.9157 158.269 92.3513 158.56C94.8197 159.721 97.4333 160.738 100.047 161.609C100.628 161.754 100.918 162.335 100.773 162.916C100.773 163.061 100.337 163.351 99.9017 163.351ZM84.6556 156.091C84.5104 156.091 84.22 156.091 84.0748 155.946C81.6064 154.494 79.2832 152.607 77.2504 150.574C76.8147 150.138 76.8147 149.557 77.2504 149.122C77.686 148.686 78.2668 148.686 78.7024 149.122C80.7352 151.009 82.9132 152.752 85.2364 154.349C85.672 154.639 85.8172 155.22 85.5268 155.801C85.3816 155.946 84.946 156.091 84.6556 156.091ZM72.1683 144.62C71.8779 144.62 71.5875 144.475 71.4423 144.185C69.5547 141.862 68.1027 139.393 66.5055 137.07C66.2151 136.634 66.3603 135.908 66.9411 135.763C67.3767 135.473 68.1027 135.618 68.2479 136.199C69.5547 138.667 71.1519 140.99 73.0395 143.023C73.3299 143.459 73.3299 144.04 72.8943 144.475C72.7491 144.62 72.4587 144.62 72.1683 144.62ZM63.8919 130.1C63.4563 130.1 63.1659 129.81 63.0207 129.52C62.0042 126.761 61.133 124.002 60.5522 121.098C60.407 120.517 60.8426 120.081 61.2782 119.936C61.859 119.791 62.2946 120.227 62.4398 120.662C62.8754 123.276 63.6015 126.035 64.7631 128.648C64.9083 129.229 64.7631 129.81 64.1823 129.955C64.1823 130.1 63.8919 130.1 63.8919 130.1ZM60.5522 113.693C59.9714 113.693 59.5358 113.257 59.5358 112.821C59.3906 111.079 59.3906 109.191 59.3906 107.449V107.013C59.3906 106.142 59.3906 105.126 59.3906 104.255C59.3906 103.674 59.8262 103.238 60.407 103.238C60.9878 103.238 61.4234 103.674 61.4234 104.255C61.4234 105.126 61.4234 106.142 61.4234 107.013V107.449C61.4234 109.337 61.4234 110.934 61.5686 112.676C61.7138 112.967 61.2782 113.402 60.5522 113.693Z" fill="#003EAE"/>
<path d="M69.4061 96.8491C67.6637 96.8491 66.2117 96.8491 64.6145 96.8491C64.0337 96.8491 63.5981 96.4135 63.5981 95.8327C63.5981 95.2519 64.0337 94.8163 64.6145 94.8163C67.3733 94.8163 70.1321 94.8163 73.0361 94.8163C73.6169 94.8163 74.0525 95.2519 74.0525 95.8327C74.0525 96.4135 73.6169 96.8491 73.0361 96.8491C71.8745 96.8491 70.7129 96.8491 69.4061 96.8491ZM81.603 96.4135C81.0222 96.4135 80.5866 95.9779 80.5866 95.3971C80.5866 94.8163 81.0222 94.3807 81.603 94.3807C84.3618 94.2355 87.1206 94.0903 90.0246 93.7999C90.6054 93.7999 91.041 94.0903 91.1862 94.6711C91.1862 95.2519 90.8958 95.6875 90.315 95.8327C87.2658 96.1231 84.3618 96.2683 81.603 96.4135ZM56.1928 96.4135C53.1436 96.1231 50.2396 95.8327 47.6259 95.5423C47.0451 95.3971 46.7547 94.9615 46.7547 94.3807C46.8999 93.7999 47.3355 93.5095 47.9163 93.5095C50.53 93.7999 53.434 94.2355 56.338 94.3807C56.9188 94.3807 57.3544 94.9615 57.2092 95.3971C57.2092 95.9779 56.7736 96.4135 56.1928 96.4135ZM98.5915 95.1067C98.1559 95.1067 97.7203 94.6711 97.5751 94.2355C97.5751 93.6547 97.8655 93.2191 98.4463 93.0739C101.205 92.7835 103.964 92.4931 106.868 92.0575C107.449 91.9123 107.884 92.3479 108.03 92.9287C108.175 93.5095 107.739 93.9451 107.158 94.0903C104.109 94.2355 101.35 94.8163 98.5915 95.1067ZM39.4947 93.9451C39.3495 93.9451 39.3495 93.9451 39.2043 93.9451C37.1715 93.5095 35.2838 93.0739 33.251 92.4931C32.525 92.2027 31.799 92.0575 30.9278 91.7671C30.347 91.6219 30.0566 91.0411 30.347 90.4603C30.4922 89.8795 31.073 89.5891 31.6538 89.8795C32.3798 90.1699 33.1058 90.3151 33.977 90.6055C35.8647 91.1863 37.7523 91.6219 39.7851 92.0575C40.3659 92.2027 40.6563 92.7835 40.5111 93.2191C40.3659 93.5095 39.9303 93.9451 39.4947 93.9451ZM23.5226 88.5727C23.3774 88.5727 23.2322 88.5727 23.087 88.4275C20.3281 87.1206 17.8597 85.6686 15.6817 84.0714C15.2461 83.781 15.1009 83.055 15.3913 82.6194C15.6817 82.1838 16.4077 82.0386 16.8433 82.329C19.0213 83.781 21.3446 85.233 23.9582 86.5398C24.3938 86.8302 24.6842 87.411 24.3938 87.8466C24.2486 88.2822 23.9582 88.5727 23.5226 88.5727ZM59.6776 87.5562C59.0968 87.5562 58.6612 87.1207 58.6612 86.5398V86.2494C58.6612 83.6358 58.516 80.877 58.3708 78.1182C58.3708 77.5374 58.8064 77.1018 59.242 77.1018C59.8228 77.1018 60.2584 77.5374 60.2584 77.973C60.4036 80.7318 60.5488 83.4906 60.5488 86.2494V86.5398C60.694 87.1207 60.2584 87.5562 59.6776 87.5562ZM9.87367 78.5538C9.58327 78.5538 9.29287 78.4086 9.14767 78.2634C7.11485 76.2306 5.51764 73.7621 4.06563 71.2937C3.77523 70.8581 3.92043 70.1321 4.50123 69.9869C4.93684 69.6965 5.66284 69.8417 5.80804 70.4225C7.11485 72.8909 8.71206 74.9238 10.5997 77.1018C11.0353 77.5374 10.8901 78.1182 10.5997 78.5538C10.3093 78.5538 10.0189 78.5538 9.87367 78.5538ZM58.3708 70.7129C57.9352 70.7129 57.4996 70.4225 57.3544 69.8417C56.9188 66.9377 56.338 64.1789 55.4668 61.7105C55.3216 61.1297 55.612 60.5489 56.1928 60.4037C56.7736 60.2585 57.3544 60.5489 57.4996 61.1297C58.2256 63.7433 58.8064 66.6473 59.5324 69.5513C59.6776 70.1321 59.242 70.5677 58.6612 70.7129C58.516 70.7129 58.516 70.7129 58.3708 70.7129ZM1.88761 64.0337C1.45201 64.0337 1.01641 63.7433 0.871206 63.3077C0.726005 62.8721 0.580804 62.4365 0.580804 62.0009C0.290402 60.5489 0 58.8064 0 57.2092C0 56.338 0 55.3216 0.145201 54.4504C0.145201 53.7244 0.580804 53.434 1.16161 53.434C1.74241 53.5792 2.03281 54.0148 2.03281 54.5956C1.88761 55.3216 1.88761 56.0476 1.88761 57.064C1.88761 58.3708 2.03281 59.8229 2.32322 61.1297C2.61362 61.7105 2.61362 62.1461 2.75882 62.5817C2.90402 63.1625 2.61362 63.8885 1.88761 64.0337ZM53.434 54.5956C52.9984 54.5956 52.708 54.4504 52.5628 54.0148C51.4012 51.4012 49.804 48.9328 48.3519 47.0452C48.0615 46.6096 48.0615 46.0288 48.4971 45.5931C48.9327 45.3027 49.5136 45.3028 49.9492 45.7384C51.6916 47.9164 53.1436 50.2396 54.4504 52.9984C54.7408 53.434 54.4504 54.16 54.0148 54.3052C53.7244 54.4504 53.5792 54.5956 53.434 54.5956ZM4.35603 47.9164C4.21083 47.9164 3.92043 47.9164 3.77523 47.7712C3.33962 47.4808 3.19442 46.7548 3.63003 46.3192C5.37244 43.9959 7.55045 42.2535 10.1641 40.5111C10.5997 40.2207 11.3257 40.3659 11.6161 40.8015C11.9065 41.2371 11.7613 41.9631 11.3257 42.2535C8.85726 43.7055 6.96965 45.5932 5.22724 47.626C5.08204 47.626 4.79163 47.9164 4.35603 47.9164ZM42.8343 41.6727C42.6891 41.6727 42.3987 41.6727 42.2535 41.5275C39.9303 40.0755 37.4619 38.9139 34.8482 38.3331C34.2674 38.1879 33.977 37.6071 34.1222 37.1715C34.2674 36.5907 34.8482 36.3003 35.2838 36.4455C38.1879 37.1715 40.9467 38.3331 43.4151 39.9303C43.8507 40.2207 43.9959 40.8015 43.7055 41.3823C43.5603 41.3823 43.2699 41.6727 42.8343 41.6727ZM18.4405 38.9139C18.0049 38.9139 17.5693 38.6235 17.4241 38.1879C17.2789 37.6071 17.5693 37.0263 18.1501 36.8811C20.7637 36.1551 23.6678 35.7195 26.4266 35.4291H26.717C27.1526 35.4291 27.7334 35.8647 27.7334 36.4455C27.7334 37.0263 27.2978 37.4619 26.717 37.4619H26.4266C23.813 37.4619 21.0541 37.8975 18.4405 38.9139C18.5857 38.9139 18.5857 38.9139 18.4405 38.9139Z" fill="#003EAE"/>
<path d="M274.571 94.0898H223.606C218.524 94.0898 214.603 98.3007 214.603 103.092V132.423C214.603 137.36 218.378 141.135 223.025 141.425L212.57 158.704L240.304 141.425H274.716C279.798 141.425 283.719 137.215 283.719 132.423V103.092C283.574 98.0103 279.508 94.0898 274.571 94.0898Z" fill="#0064B7"/>
<path d="M249.009 116.742C252.377 116.742 255.107 114.011 255.107 110.643C255.107 107.275 252.377 104.545 249.009 104.545C245.641 104.545 242.91 107.275 242.91 110.643C242.91 114.011 245.641 116.742 249.009 116.742Z" fill="white"/>
<path d="M263.241 131.117H234.781C234.781 126.035 238.992 121.969 243.929 121.969H254.238C259.32 121.824 263.241 126.035 263.241 131.117Z" fill="white"/>
<path d="M212.865 63.7425C211.559 63.7425 209.961 63.5973 208.654 63.3069C208.074 63.1617 207.783 62.726 207.928 62.1452C208.074 61.5644 208.655 61.274 209.09 61.4192C211.268 61.8548 213.446 61.8548 215.624 61.5644C216.205 61.4192 216.641 61.8548 216.786 62.4356C216.931 63.0165 216.495 63.4521 215.915 63.5973C214.898 63.7425 213.882 63.7425 212.865 63.7425ZM222.449 61.274C222.158 61.274 221.723 61.1288 221.577 60.6932C221.287 60.2576 221.432 59.5316 222.013 59.3864C224.046 58.37 225.643 56.918 227.24 55.3208C227.531 54.8852 228.257 54.8852 228.692 55.1756C229.128 55.466 229.128 56.192 228.837 56.6276C227.095 58.5152 225.353 60.1124 223.175 61.4192C222.739 61.274 222.594 61.274 222.449 61.274ZM202.411 60.6932C202.266 60.6932 201.975 60.6932 201.83 60.548C199.652 59.2412 197.91 57.4988 196.312 55.466C196.022 55.0304 196.022 54.4496 196.458 54.014C196.893 53.7236 197.474 53.7236 197.91 54.1592C199.216 56.0468 200.959 57.3536 202.846 58.5152C203.282 58.8056 203.427 59.3864 203.137 59.9672C202.992 60.548 202.701 60.6932 202.411 60.6932ZM231.451 50.6744C231.306 50.6744 231.161 50.6744 231.161 50.6744C230.58 50.5292 230.435 49.9484 230.58 49.3676C231.306 47.1895 231.741 45.1567 231.741 42.8335C231.741 42.2527 232.177 41.8171 232.758 41.8171C233.339 41.8171 233.774 42.2527 233.774 42.8335C233.774 45.3019 233.339 47.7703 232.467 50.0936C232.177 50.5292 231.741 50.6744 231.451 50.6744ZM193.989 49.8032C193.554 49.8032 193.118 49.5128 192.973 49.0772C192.392 47.0443 192.102 45.0115 192.102 42.9787C192.102 42.5431 192.102 42.2527 192.102 41.8171C192.102 41.2363 192.682 40.8007 193.118 40.8007C193.699 40.8007 194.134 41.2363 194.134 41.8171C194.134 42.1075 194.134 42.5431 194.134 42.8335C194.134 44.7211 194.425 46.6087 194.86 48.3511C195.006 48.932 194.715 49.5128 193.989 49.8032ZM232.032 39.2035C231.596 39.2035 231.161 38.9131 231.015 38.4775C230.435 36.2995 229.709 34.2667 228.257 32.379C227.966 31.9434 228.111 31.3626 228.547 30.927C228.983 30.6366 229.563 30.7818 229.999 31.2174C231.306 33.2502 232.467 35.4283 233.048 37.8967C233.193 38.4775 232.903 38.9131 232.322 39.0583C232.177 39.2035 232.032 39.2035 232.032 39.2035ZM194.715 36.0091C194.57 36.0091 194.425 36.0091 194.28 35.8639C193.699 35.5735 193.554 34.9927 193.699 34.5571C194.715 32.2338 196.167 30.3462 197.764 28.4586C198.2 28.023 198.781 28.023 199.216 28.4586C199.652 28.8942 199.652 29.475 199.216 29.9106C197.764 31.653 196.458 33.3954 195.586 35.4283C195.586 35.8639 195.006 36.0091 194.715 36.0091ZM224.336 27.7326C224.191 27.7326 223.901 27.7326 223.755 27.5874C221.868 26.4258 219.98 25.2642 217.802 24.8286C217.221 24.6834 216.931 24.1026 217.076 23.667C217.221 23.0862 217.802 22.7958 218.238 22.941C220.706 23.5218 222.739 24.6834 224.917 26.1354C225.353 26.4258 225.498 27.1518 225.207 27.5874C224.917 27.5874 224.627 27.7326 224.336 27.7326ZM204.153 26.1354C203.718 26.1354 203.427 25.9902 203.282 25.5546C202.992 25.119 203.282 24.393 203.718 24.2478C206.041 23.2314 208.219 22.5054 210.833 22.215C211.413 22.215 211.849 22.5054 211.994 23.0862C211.994 23.667 211.704 24.1026 211.123 24.2478C208.8 24.393 206.767 24.9738 204.734 26.1354C204.444 26.1354 204.298 26.1354 204.153 26.1354Z" fill="#033E9F"/>
<path d="M212.866 33.9767C206.041 33.9767 200.523 37.6068 200.523 42.108C200.523 43.2696 201.395 44.1408 202.411 43.8504L205.605 42.5436C206.331 42.2532 206.767 41.0916 206.331 40.0752L205.896 39.0588C205.896 39.0588 211.849 40.0752 219.545 39.0588L219.109 40.3656C218.819 41.2368 219.109 42.2532 219.835 42.6888L223.03 44.4312C223.756 44.8668 224.772 44.286 224.917 43.2696C224.917 42.9792 224.917 42.6888 224.917 42.3984C225.062 37.6068 219.545 33.9767 212.866 33.9767Z" fill="#FABC42"/>
<path d="M221.434 51.8366H204.445L207.059 43.8505C207.495 42.3985 208.947 41.3821 210.399 41.3821H215.626C217.078 41.3821 218.53 42.3985 218.965 43.8505L221.434 51.8366Z" fill="#FABC42"/>
<path d="M336.143 171.917C334.836 171.917 333.239 171.772 331.932 171.482C331.351 171.336 331.061 170.901 331.206 170.32C331.351 169.739 331.932 169.449 332.367 169.594C334.545 170.03 336.723 170.03 338.901 169.739C339.482 169.594 339.918 170.03 340.063 170.61C340.208 171.191 339.773 171.627 339.192 171.772C338.321 171.917 337.304 171.917 336.143 171.917ZM345.871 169.449C345.581 169.449 345.145 169.304 345 168.868C344.71 168.432 344.855 167.706 345.436 167.561C347.468 166.545 349.066 165.093 350.663 163.496C350.953 163.06 351.679 163.06 352.115 163.35C352.55 163.641 352.55 164.367 352.26 164.802C350.518 166.69 348.775 168.287 346.597 169.304C346.162 169.449 346.016 169.449 345.871 169.449ZM325.688 168.868C325.543 168.868 325.253 168.868 325.107 168.723C322.929 167.416 321.187 165.674 319.59 163.641C319.299 163.205 319.299 162.624 319.735 162.189C320.171 161.898 320.751 161.898 321.187 162.334C322.494 164.222 324.236 165.528 326.124 166.69C326.559 166.98 326.705 167.561 326.414 168.142C326.414 168.723 325.979 168.868 325.688 168.868ZM354.728 159.14C354.583 159.14 354.438 159.14 354.438 159.14C353.857 158.994 353.712 158.414 353.857 157.833C354.583 155.655 355.019 153.622 355.019 151.299C355.019 150.718 355.454 150.282 356.035 150.282C356.616 150.282 357.052 150.718 357.052 151.299C357.052 153.767 356.616 156.236 355.745 158.559C355.6 158.849 355.309 159.14 354.728 159.14ZM317.267 158.123C316.831 158.123 316.395 157.833 316.25 157.397C315.669 155.364 315.379 153.332 315.379 151.299C315.379 150.863 315.379 150.573 315.379 150.137C315.379 149.556 315.96 149.121 316.395 149.121C316.976 149.121 317.412 149.556 317.412 150.137C317.412 150.428 317.412 150.863 317.412 151.154C317.412 153.041 317.702 154.929 318.138 156.671C318.283 157.252 317.993 157.833 317.412 157.978C317.557 158.123 317.557 158.123 317.267 158.123ZM355.454 147.378C355.019 147.378 354.583 147.088 354.438 146.652C353.857 144.474 352.986 142.441 351.679 140.554C351.389 140.118 351.534 139.537 351.97 139.102C352.405 138.811 352.986 138.957 353.422 139.392C354.728 141.425 355.89 143.603 356.471 146.071C356.616 146.652 356.326 147.088 355.745 147.233C355.6 147.378 355.6 147.378 355.454 147.378ZM318.138 144.184C317.993 144.184 317.847 144.184 317.702 144.039C317.121 143.748 316.976 143.167 317.121 142.732C318.138 140.409 319.59 138.521 321.187 136.633C321.623 136.198 322.203 136.198 322.639 136.633C323.075 137.069 323.075 137.65 322.639 138.085C321.187 139.828 319.88 141.57 319.009 143.603C318.864 144.039 318.573 144.184 318.138 144.184ZM347.614 136.053C347.468 136.053 347.178 136.053 347.033 135.907C345.145 134.601 343.258 133.584 341.079 133.149C340.499 133.003 340.208 132.423 340.353 131.987C340.499 131.406 341.079 131.116 341.515 131.261C343.984 131.842 346.016 133.003 348.194 134.455C348.63 134.746 348.775 135.472 348.485 135.907C348.34 135.907 347.904 136.053 347.614 136.053ZM327.721 134.31C327.285 134.31 326.995 134.165 326.85 133.729C326.559 133.294 326.85 132.568 327.285 132.423C329.609 131.406 331.787 130.68 334.4 130.39C334.981 130.39 335.417 130.68 335.562 131.261C335.562 131.842 335.271 132.277 334.691 132.423C332.367 132.568 330.335 133.149 328.302 134.31C328.011 134.31 327.866 134.31 327.721 134.31Z" fill="#033E9F"/>
<path d="M348.488 147.379H323.949V161.173H348.488V147.379Z" fill="#F59D04"/>
<path d="M345 146.362V144.62C345 143.458 346.016 142.297 347.323 142.297C348.485 142.297 349.646 143.313 349.646 144.62V147.524H345.145" fill="#DC051F"/>
<path d="M345.003 144.475V158.995H328.305V144.475C328.305 143.313 329.321 142.151 330.628 142.151H347.181L346.745 142.297C345.729 142.732 345.003 143.458 345.003 144.475Z" fill="#E0EEF7"/>
<path d="M332.95 144.62H329.32V148.396H332.95V144.62Z" fill="#DC051F"/>
<path d="M334.258 144.62H343.696" stroke="#DC051F" stroke-width="0.1049" stroke-miterlimit="10"/>
<path d="M334.258 145.927H343.696" stroke="#DC051F" stroke-width="0.1049" stroke-miterlimit="10"/>
<path d="M334.258 147.089H343.696" stroke="#DC051F" stroke-width="0.1049" stroke-miterlimit="10"/>
<path d="M334.258 148.541H343.696" stroke="#DC051F" stroke-width="0.1049" stroke-miterlimit="10"/>
<path d="M329.32 149.702H343.695" stroke="#DC051F" stroke-width="0.1049" stroke-miterlimit="10"/>
<path d="M329.32 151.154H343.695" stroke="#DC051F" stroke-width="0.1049" stroke-miterlimit="10"/>
<path d="M329.32 152.316H343.695" stroke="#DC051F" stroke-width="0.1049" stroke-miterlimit="10"/>
<path d="M329.32 153.478H336.145" stroke="#DC051F" stroke-width="0.1049" stroke-miterlimit="10"/>
<path d="M342.245 161.318H323.949V147.379L342.245 161.318Z" fill="#FABC42"/>
<path d="M329.758 161.318H348.344V147.379L329.758 161.318Z" fill="#FABC42"/>
<path d="M348.343 161.318H336.146H323.949L334.985 155.365C335.711 154.929 336.727 154.929 337.453 155.365L348.343 161.318Z" fill="#F59D04"/>
<path d="M43.2685 203.717C43.2685 203.717 46.8985 202.555 46.4629 199.215C46.0273 195.876 44.1397 193.407 48.3505 194.278C52.271 195.295 54.0134 195.876 57.0626 195.295C59.9666 194.714 62.7254 193.698 61.4186 197.182C60.1118 200.667 58.5146 203.426 61.8542 204.007C65.0487 204.588 68.2431 202.41 68.6787 207.782C69.1143 212.864 64.1774 219.108 55.901 219.108C47.6245 219.543 43.9945 216.349 43.9945 216.349C43.9945 216.349 41.6713 213.59 45.1561 213.009C48.3505 212.429 51.9806 211.122 50.2381 209.67C48.3505 208.508 42.9781 208.073 42.9781 208.073C42.9781 208.073 36.2988 207.492 43.2685 203.717Z" fill="#659AE6"/>
<path d="M80.2984 204.733C79.5724 201.394 80.2984 198.925 87.5585 197.909C94.8185 196.893 99.0294 200.668 99.6102 204.733C100.336 208.654 93.6569 209.815 93.6569 209.815C93.6569 209.815 89.1557 210.977 91.6241 214.317C93.6569 217.656 94.8185 221.141 89.7365 221.286C84.5093 221.867 78.9916 220.706 75.7972 218.818C72.6028 216.93 69.4084 212.429 72.8932 210.106C72.8932 210.106 74.0548 209.525 77.3944 209.525C81.0244 209.67 80.2984 204.733 80.2984 204.733Z" fill="#033E9D"/>
<path d="M54.4492 204.297C54.4492 204.297 60.4025 215.768 61.2737 224.045" stroke="#80D6FC" stroke-width="0.5243" stroke-miterlimit="10" stroke-linecap="round" stroke-linejoin="round"/>
<path d="M88.5727 206.33C88.5727 206.33 77.8278 220.124 75.3594 224.625" stroke="#579BD1" stroke-width="0.5243" stroke-miterlimit="10" stroke-linecap="round" stroke-linejoin="round"/>
<path d="M67.8086 223.609C67.8086 223.609 69.1154 202.7 76.5207 190.068" stroke="#F8BA43" stroke-width="0.5243" stroke-miterlimit="10"/>
<path d="M82.1838 182.662C82.1838 182.662 82.9098 189.051 75.3594 191.375C75.795 191.665 73.617 186.002 82.1838 182.662Z" fill="#F8BA43"/>
<path d="M71.4375 202.991C71.4375 202.991 73.9059 197.473 82.1824 198.489C82.3276 198.344 81.7468 203.571 71.4375 202.991Z" fill="#F8BA43"/>
<path d="M68.5312 216.785C68.5312 216.785 69.8381 210.977 78.1145 210.396C77.6789 210.251 78.2597 215.623 68.5312 216.785Z" fill="#F8BA43"/>
<path d="M68.3889 216.639C68.3889 216.639 69.5505 210.831 62.0001 207.927C61.5645 207.927 59.2413 212.574 68.3889 216.639Z" fill="#F8BA43"/>
<path d="M71.438 202.991C71.438 202.991 73.3256 197.473 66.356 193.407C66.2108 193.407 62.7259 197.909 71.438 202.991Z" fill="#F8BA43"/>
<path d="M57.6457 223.028H82.3298C82.3298 223.028 85.2339 223.028 84.7982 226.368C84.7982 229.417 80.297 228.546 77.9738 228.546C75.6506 228.546 56.9196 228.546 56.9196 228.546C56.9196 228.546 54.0156 228.981 54.0156 226.077C54.306 223.318 55.1772 223.028 57.6457 223.028Z" fill="#0054A1"/>
<path d="M57.0625 228.545L60.8377 247.422H77.3906L80.2947 233.482L57.0625 228.545Z" fill="#0054A1"/>
<path d="M57.0625 228.545L80.2947 233.482L81.4563 228.545H57.0625Z" fill="#016AD1"/>
</svg>
