<svg width="294" height="211" viewBox="0 0 294 211" fill="none" xmlns="http://www.w3.org/2000/svg">
<path d="M266.687 49.5852C259.341 49.5852 253.559 43.6413 253.559 36.4459C253.559 43.7977 247.62 49.5852 240.431 49.5852C247.776 49.5852 253.559 55.5292 253.559 62.7245C253.402 55.5292 259.341 49.5852 266.687 49.5852Z" fill="#155BCC"/>
<path d="M240.587 44.2669C237.461 44.2669 234.96 41.7642 234.96 38.6358C234.96 41.7642 232.46 44.2669 229.334 44.2669C232.46 44.2669 234.96 46.7697 234.96 49.8981C234.96 46.7697 237.461 44.2669 240.587 44.2669Z" fill="#155BCC"/>
<path d="M45.4793 94.0147C32.195 82.7524 12.5029 83.3781 0 95.5789L4.21973 99.4894C14.5346 89.6349 30.4758 89.0092 41.4159 98.238L45.4793 94.0147Z" fill="#3864B2"/>
<path d="M37.9777 101.836C33.6017 98.8637 28.2879 97.2995 22.9742 97.4559C17.3479 97.6124 12.1904 99.6458 7.9707 103.087L12.1904 106.998C15.3162 104.651 19.2233 103.243 23.2868 103.243C27.1939 103.087 30.7885 104.182 34.0705 106.215L37.9777 101.836Z" fill="#3864B2"/>
<path d="M29.8508 110.595C25.6311 108.405 20.4736 108.562 16.2539 110.908L18.9108 113.567L23.1305 117.634L29.8508 110.595Z" fill="#3864B2"/>
<path d="M208.235 210.854H97.2719C96.1779 210.854 95.5527 210.072 95.5527 209.134V7.19533C95.5527 3.28482 98.8347 0 102.742 0H202.765C206.672 0 209.954 3.28482 209.954 7.19533V208.977C209.798 209.916 209.017 210.854 208.235 210.854Z" fill="#0064B7"/>
<path d="M192.762 6.1004H184.792C183.541 6.1004 182.76 7.19535 182.76 8.13387C182.76 12.5136 179.165 16.1113 174.789 16.1113H130.873C126.497 16.1113 122.902 12.5136 122.902 8.13387C122.902 6.88251 121.808 6.1004 120.871 6.1004H112.9C106.805 6.1004 101.804 11.1059 101.804 17.2062V193.805C101.804 199.905 106.805 204.911 112.9 204.911H192.919C199.014 204.911 204.015 199.905 204.015 193.805V17.2062C203.702 11.1059 198.858 6.1004 192.762 6.1004Z" fill="white"/>
<path d="M198.545 25.6529H105.086V34.7253H198.545V25.6529Z" fill="#DDE7F6"/>
<path d="M198.545 39.2615H105.086V57.0934H198.545V39.2615Z" fill="#DDE7F6"/>
<path d="M198.545 175.816H105.086V193.648H198.545V175.816Z" fill="#DDE7F6"/>
<path d="M173.696 11.4187H131.186C129.623 11.4187 128.529 10.1673 128.529 8.75955C128.529 7.19535 129.78 6.1004 131.186 6.1004H173.696C175.259 6.1004 176.353 7.35177 176.353 8.75955C176.353 10.1673 175.259 11.4187 173.696 11.4187Z" fill="white"/>
<path d="M244.806 55.5292H60.3877V167.839H244.806V55.5292Z" fill="#0064B7"/>
<path d="M66.0137 74.2996V149.851C73.3591 149.851 79.4543 155.638 79.9232 162.833H225.269C225.738 155.482 231.834 149.851 239.179 149.851V74.2996C231.365 74.2996 225.113 68.0428 225.113 60.2218H80.2357C80.2357 67.8864 73.828 74.2996 66.0137 74.2996Z" fill="white"/>
<path d="M145.095 156.42L143.688 152.666H139.781L148.533 140.309L153.847 144.063L145.095 156.42Z" fill="#3864B2"/>
<path d="M160.411 156.42L161.818 152.666H165.725L156.973 140.309L151.659 144.063L160.411 156.42Z" fill="#3864B2"/>
<path d="M164.631 138.432C164.631 139.683 163.068 140.622 162.755 141.717C162.443 142.968 163.068 144.376 162.443 145.471C161.817 146.566 159.942 146.253 159.004 147.035C157.91 147.661 157.598 149.381 156.504 149.851C155.41 150.163 154.003 149.069 152.753 149.069C151.502 149.069 150.252 150.32 149.002 149.851C147.752 149.538 147.439 147.817 146.501 147.035C145.407 146.409 143.844 146.566 143.063 145.471C142.438 144.376 143.063 142.968 142.75 141.717C142.438 140.622 140.875 139.683 140.875 138.432C140.875 137.181 142.438 136.242 142.75 135.147C143.063 133.896 142.438 132.488 143.063 131.393C143.688 130.298 145.564 130.611 146.501 129.829C147.595 129.203 147.908 127.483 149.002 127.013C150.096 126.7 151.502 127.795 152.753 127.795C154.003 127.795 155.253 126.544 156.504 127.013C157.754 127.326 158.066 129.047 159.004 129.829C160.098 130.454 161.661 130.298 162.443 131.393C163.224 132.488 162.443 133.896 162.755 135.147C163.068 136.242 164.631 137.337 164.631 138.432Z" fill="#EE384E"/>
<path d="M160.411 138.432C160.411 142.655 156.972 146.097 152.753 146.097C148.533 146.097 145.095 142.655 145.095 138.432C145.095 134.209 148.533 130.767 152.753 130.767C156.972 130.767 160.411 134.209 160.411 138.432Z" fill="#3864B2"/>
<path d="M204.171 73.8303H101.179V83.9976H204.171V73.8303Z" fill="#DDE7F6"/>
<path d="M221.206 108.712H85.8623V113.874H221.206V108.712Z" fill="#DDE7F6"/>
<path d="M221.206 100.265H85.8623V105.427H221.206V100.265Z" fill="#DDE7F6"/>
<path d="M221.206 117.784H85.8623V122.946H221.206V117.784Z" fill="#DDE7F6"/>
<path d="M97.1153 153.761C98.8344 149.069 100.71 144.376 102.742 139.84C102.116 139.527 101.335 139.37 100.866 139.058C100.397 140.465 99.7721 141.56 99.3033 142.968C98.8344 144.219 98.053 145.314 97.7404 146.722C97.5841 147.504 97.7404 148.599 98.8344 148.756C99.9284 149.069 101.179 148.443 101.96 147.661C101.491 147.348 100.866 146.879 100.397 146.409C100.085 147.661 100.241 149.069 101.491 149.851C102.742 150.633 103.836 150.163 104.773 149.225C105.242 148.599 104.617 147.661 103.992 147.661C102.898 147.661 102.116 148.443 102.116 149.694C102.273 151.102 103.679 151.728 104.773 152.04C106.336 152.51 111.806 152.51 110.4 149.538C110.243 149.069 109.618 149.069 109.149 149.069C107.43 149.381 107.43 151.728 108.993 152.353C109.618 152.666 110.556 152.51 111.181 152.04C111.962 151.571 112.431 150.32 113.213 150.163C112.744 149.851 112.431 149.538 111.806 149.069C111.806 149.694 112.119 150.32 112.9 150.633C113.682 150.946 114.15 150.476 114.776 150.163C115.088 150.007 114.932 150.007 115.244 150.163C115.557 150.32 115.713 150.476 116.026 150.789C116.651 151.102 117.276 151.415 117.901 151.415C119.308 151.571 119.308 149.381 117.901 149.381C117.12 149.381 116.338 148.286 115.557 147.974C115.244 147.817 114.776 147.817 114.307 147.974C114.15 147.974 113.838 148.13 113.682 148.286L113.525 148.443C113.056 148.599 113.213 148.756 113.838 149.069C113.838 148.443 113.213 147.817 112.431 147.974C111.65 148.13 111.181 148.443 110.712 149.069C110.556 149.225 110.4 149.538 110.243 149.694C110.087 149.851 110.087 150.007 109.931 150.007C109.618 150.163 109.462 150.476 109.618 150.789C109.306 150.633 108.837 150.476 108.368 150.32V150.476C108.368 150.163 108.368 150.007 108.212 149.694C108.212 149.694 107.43 149.851 107.118 149.851C106.649 149.851 106.336 149.851 105.711 149.851C105.398 149.851 105.086 149.694 104.461 149.538C104.304 149.538 104.148 149.381 103.992 149.381C103.836 149.069 103.523 149.225 103.523 149.538C103.21 149.069 102.898 148.443 102.742 147.974C102.585 148.13 102.429 147.661 102.429 147.661C102.273 147.504 102.429 147.035 102.585 146.879C102.898 146.097 101.804 145.158 101.022 145.627C100.71 145.784 100.397 146.097 99.9284 146.097C99.4596 146.097 99.3033 146.409 99.9284 146.722C99.9284 146.566 99.9284 146.566 100.085 146.409C100.241 146.253 100.397 145.627 100.554 145.158C100.71 144.689 100.866 144.376 101.022 143.75C101.648 142.186 102.429 140.465 102.898 139.058C103.367 137.806 101.335 137.181 101.022 138.276C98.9907 142.968 96.959 147.817 95.2398 152.666C94.771 154.543 96.8027 155.012 97.1153 153.761Z" fill="#155BCC"/>
<path d="M197.138 148.756C197.607 146.722 198.232 144.532 198.857 142.499C198.232 142.342 197.451 142.186 196.826 142.03C196.201 144.532 199.483 145.94 200.733 143.75C200.108 143.594 199.326 143.437 198.701 143.281C198.701 143.907 198.857 144.689 198.857 145.314C198.857 146.097 200.108 146.879 200.733 145.94C204.64 141.247 207.141 135.616 207.922 129.516C207.297 129.516 206.515 129.516 205.89 129.516C205.265 135.616 206.047 141.717 208.391 147.504C208.704 147.035 209.016 146.722 209.485 146.097C203.39 145.627 197.138 145.002 190.731 144.845C189.48 144.845 189.168 146.722 190.418 146.879C196.044 147.661 201.827 148.13 207.453 147.974C208.86 147.974 208.86 145.784 207.453 145.94C201.983 146.097 196.357 145.784 191.043 144.845C190.887 145.471 190.887 146.253 190.731 146.879C196.982 147.035 203.077 147.504 209.485 148.13C210.11 148.13 210.892 147.504 210.579 146.722C208.235 141.247 207.453 135.304 208.235 129.36C208.391 127.952 206.359 127.952 206.203 129.36C205.578 134.834 203.077 140.153 199.639 144.376C200.264 144.532 200.889 144.845 201.514 145.002C201.514 144.376 201.358 143.594 201.358 142.968C201.202 141.873 199.951 141.404 199.326 142.499C199.17 142.655 199.326 142.655 199.326 142.499C199.639 141.091 197.763 140.622 197.295 142.03C196.669 144.063 195.888 146.097 195.575 148.286C194.794 149.538 196.826 150.007 197.138 148.756Z" fill="#155BCC"/>
<path d="M70.6468 19.2397H31.5752V23.3066H70.6468V19.2397Z" fill="#DDE7F6"/>
<path d="M293.66 81.8078H254.589V85.8747H293.66V81.8078Z" fill="#DDE7F6"/>
<path d="M56.7366 26.9044H17.665V30.9713H56.7366V26.9044Z" fill="#DDE7F6"/>
<path d="M25.6627 163.708C25.6627 163.708 28.8798 162.42 28.6224 158.813C28.4937 155.207 26.5635 152.631 30.5526 153.662C34.2844 154.821 35.6999 155.079 38.5308 154.563C41.4905 154.048 43.4207 152.631 42.2626 156.495C41.1045 160.23 39.689 162.935 42.6486 163.836C45.6083 164.223 48.6967 162.42 48.954 167.7C49.3401 173.496 45.0936 179.806 37.5014 180.064C30.1666 180.193 26.8209 177.359 26.8209 177.359C26.8209 177.359 24.762 174.655 27.979 174.011C31.196 173.367 34.2844 171.95 32.4828 170.662C31.0673 169.374 25.6627 169.246 25.6627 169.246C25.6627 169.246 19.3574 167.314 25.6627 163.708Z" fill="#6B9CD3"/>
<path d="M59.3769 164.867C58.9909 161.26 59.3769 158.685 65.811 157.526C72.6311 156.624 76.4915 160.745 76.8776 164.867C77.2636 168.73 71.2156 170.662 71.2156 170.662C71.2156 170.662 67.3552 171.821 69.1567 175.299C71.2156 178.905 72.3737 182.253 67.2265 182.897C62.0792 183.413 57.318 182.253 54.2297 180.193C51.27 178.261 48.1817 173.367 51.6561 170.662C51.6561 170.662 52.5568 170.018 55.5165 169.761C59.763 169.632 59.3769 164.867 59.3769 164.867Z" fill="#EE384E"/>
<path d="M35.7002 163.836C35.7002 163.836 41.3622 176.587 42.0056 185.087" stroke="#DDE7F6" stroke-width="0.5" stroke-miterlimit="10"/>
<path d="M66.8407 166.155C66.8407 166.155 56.9322 180.579 54.4873 185.602" stroke="#F4F4F4" stroke-width="0.5" stroke-miterlimit="10"/>
<path d="M38.7881 184.185H61.3073C61.3073 184.185 63.8809 184.314 63.6235 187.791C63.4949 191.011 59.7631 190.367 57.4468 190.367C55.1306 190.367 38.1447 190.367 38.1447 190.367C38.1447 190.367 35.4424 190.754 35.4424 187.663C35.4424 184.314 36.4718 184.185 38.7881 184.185Z" fill="#0256A4"/>
<path d="M38.2734 190.239L41.7478 210.072H56.9322L59.3771 195.261L38.2734 190.239Z" fill="#0256A4"/>
<path d="M38.2734 190.239L59.3771 195.261L60.4066 190.239H38.2734Z" fill="#346BB4"/>
<path d="M48.0537 185.216C48.0537 185.216 49.2118 163.192 55.6459 149.025" stroke="#FABD41" stroke-width="0.5" stroke-miterlimit="10"/>
<path d="M61.051 141.169C61.051 141.169 61.4371 147.995 54.8743 150.7C54.8743 150.442 53.7162 144.518 61.051 141.169Z" fill="#FABD41"/>
<path d="M51.1416 162.42C51.1416 162.42 53.7152 156.366 61.05 157.526C61.05 157.268 60.5353 163.192 51.1416 162.42Z" fill="#FABD41"/>
<path d="M48.8262 177.102C48.8262 177.102 50.113 170.92 57.7052 170.276C57.4478 170.147 57.9625 176.071 48.8262 177.102Z" fill="#FABD41"/>
<path d="M48.5688 177.102C48.5688 177.102 49.4695 170.791 42.5207 167.571C42.5207 167.958 40.0758 173.109 48.5688 177.102Z" fill="#FABD41"/>
<path d="M51.1426 162.42C51.1426 162.42 52.5581 156.238 46.5101 152.374C46.3814 152.374 43.2931 157.268 51.1426 162.42Z" fill="#FABD41"/>
<path d="M242.961 137.934C242.961 137.934 245.193 137.341 244.896 133.929C244.598 130.518 242.366 127.699 245.639 125.771C248.764 123.842 249.657 123.249 251.293 121.914C252.781 120.431 253.674 119.244 258.435 119.689C258.435 119.689 262.303 116.574 265.874 119.392C269.296 122.211 268.404 129.627 268.999 130.814C269.743 131.853 274.504 136.599 274.95 140.456C275.397 144.313 272.718 146.835 268.999 146.686C265.279 146.538 259.923 146.686 259.923 146.686H245.937C245.937 146.686 241.027 146.983 240.729 142.236C240.729 139.418 242.961 137.934 242.961 137.934Z" fill="#180857"/>
<path d="M254.714 143.571C254.714 143.571 254.714 146.538 253.524 147.576C252.333 148.763 250.548 150.84 250.548 150.84C250.548 150.84 253.524 155.438 259.326 154.697C265.129 154.103 266.022 149.801 266.022 149.801C266.022 149.801 260.516 149.208 259.921 143.868C259.326 138.676 258.433 138.676 258.433 138.676L254.714 143.571Z" fill="#FFB07E"/>
<path d="M257.691 145.055C261.224 145.055 264.089 140.273 264.089 134.374C264.089 128.476 261.224 123.694 257.691 123.694C254.157 123.694 251.293 128.476 251.293 134.374C251.293 140.273 254.157 145.055 257.691 145.055Z" fill="#FFBE9B"/>
<path d="M257.69 122.952C257.69 122.952 256.649 126.364 254.12 129.628C251.59 133.039 248.763 134.968 248.466 135.561C248.168 136.154 245.936 134.523 246.68 131.853C247.424 129.183 252.037 121.766 256.5 121.617C260.964 121.469 262.303 118.799 264.535 124.287C266.766 129.776 266.469 135.858 266.469 135.858L257.69 122.952Z" fill="#180857"/>
<path d="M251.44 133.188C251.44 133.188 248.911 132.891 248.613 134.226C248.316 135.709 249.357 137.044 251.44 137.341C253.672 137.786 251.44 133.188 251.44 133.188Z" fill="#FFBE9B"/>
<path d="M275.396 203.945C275.396 203.945 279.116 204.093 281.943 204.093C284.77 204.093 289.084 204.538 289.084 204.538C289.084 204.538 290.126 204.538 290.275 206.021C290.423 207.505 290.423 208.098 290.423 208.098C290.423 208.098 290.572 209.878 289.233 209.878C287.894 209.878 279.562 210.768 277.479 210.768C275.396 210.768 274.206 211.065 274.206 209.878C274.057 208.543 274.057 203.648 275.396 203.945Z" fill="black"/>
<path d="M278.668 163.3C278.668 163.3 281.198 176.947 281.346 180.507C281.495 184.067 281.793 186.886 279.412 188.518C277.032 190.149 273.163 191.336 273.163 191.336L268.104 166.86V163.893L278.668 163.3Z" fill="#FFBF99"/>
<path d="M236.415 162.707C236.415 162.707 235.225 168.937 234.63 172.052C234.332 175.167 233.439 181.397 233.439 182.584C233.291 184.067 233.142 186.292 235.82 188.221C238.498 190.149 241.325 191.188 241.325 191.188L246.681 162.558L236.415 162.707Z" fill="#FFBF99"/>
<path d="M251.589 148.318C251.589 148.318 247.721 147.873 245.489 148.466C243.257 148.911 242.662 148.615 243.257 150.395C243.703 152.175 246.679 159.592 245.489 164.042C244.298 168.937 242.364 192.671 242.364 192.671C242.364 192.671 256.945 193.116 262.45 193.413C267.955 193.709 272.121 192.671 272.121 192.671C272.121 192.671 273.312 182.436 272.121 177.837C270.931 173.239 269.146 165.822 269.146 165.822C269.146 165.822 268.253 155.438 269.443 152.768C270.931 150.098 271.973 150.098 270.038 149.505C268.104 148.911 266.319 148.318 264.682 148.318C263.046 148.318 262.45 148.318 261.558 149.06C260.814 149.801 258.88 151.73 256.499 151.285C253.97 150.988 252.333 149.208 252.333 149.208C252.333 149.208 252.333 148.466 251.589 148.318Z" fill="#DE051F"/>
<path d="M244.894 149.208C244.894 149.208 243.704 148.615 241.621 150.098C239.389 152.027 237.901 156.032 237.009 158.553C236.265 161.075 235.818 163.597 235.818 163.597C235.818 163.597 238.645 165.08 241.472 165.08C244.448 165.229 246.382 165.377 246.382 165.377C246.382 165.377 247.572 157.812 247.275 154.697C246.977 151.137 246.382 150.098 244.894 149.208Z" fill="#EE384E"/>
<path d="M268.7 151.878C268.7 151.878 269.742 148.763 272.42 150.098C275.098 151.581 277.032 156.922 277.627 158.85C278.074 160.63 278.818 164.19 278.818 164.19C278.818 164.19 275.693 165.377 273.164 165.674C270.486 165.822 268.7 165.97 268.7 165.97C268.7 165.97 267.807 159.295 267.956 156.477C268.254 153.658 268.7 151.878 268.7 151.878Z" fill="#EE384E"/>
<path d="M248.018 194.599H267.509L257.242 197.715L248.018 194.599Z" fill="#004B89"/>
<path d="M230.313 189.111C230.313 189.111 265.873 200.088 273.908 202.906C273.908 202.906 276.586 203.5 276.586 204.983C276.586 206.17 276.437 208.247 276.139 209.137C275.842 210.027 275.098 210.917 273.461 210.62C271.973 210.323 239.984 203.945 227.189 200.83L223.618 199.791C223.618 199.791 220.94 198.605 221.386 195.193C221.832 191.929 224.362 189.111 225.998 188.963C227.933 188.518 230.313 189.111 230.313 189.111Z" fill="#0064E1"/>
<path d="M227.188 204.983C227.188 204.983 231.801 204.241 234.33 204.241C237.008 204.093 240.579 203.945 241.026 204.241C241.472 204.538 241.918 209.878 241.918 209.878C241.918 209.878 242.365 211.362 238.794 210.917C235.223 210.62 227.188 210.472 227.188 210.472C227.188 210.472 225.254 210.323 225.105 208.692C225.105 206.912 225.254 206.17 225.254 206.17C225.254 206.17 226.296 205.132 227.188 204.983Z" fill="black"/>
<path d="M248.316 200.236C248.316 200.236 270.188 193.709 277.627 191.336C285.364 188.963 289.53 186.886 292.208 190.594C294.738 194.155 294.589 198.308 291.762 199.495C288.786 200.533 266.319 205.873 256.946 207.95C247.572 210.027 241.472 211.065 240.579 210.768C239.835 210.472 238.645 207.653 238.794 205.873C238.943 204.093 239.092 203.648 241.026 202.906C242.96 202.313 248.316 200.236 248.316 200.236Z" fill="#0054A3"/>
<path d="M245.936 168.789H272.122C272.122 168.789 273.61 168.64 273.61 170.569C273.61 172.497 273.61 193.116 273.61 193.116C273.61 193.116 273.759 194.599 272.717 194.599C271.676 194.599 241.918 194.599 241.918 194.599C241.918 194.599 240.728 194.896 240.728 192.819C240.728 190.743 240.728 169.975 240.728 169.975C240.728 169.975 240.579 168.937 242.216 168.937C243.704 168.789 245.936 168.789 245.936 168.789Z" fill="#0064B7"/>
<path d="M256.928 180.013L255.44 181.866L257.299 183.349L258.787 181.496L256.928 180.013Z" fill="#569ED4"/>
</svg>
