<svg width="330" height="323" viewBox="0 0 330 323" fill="none" xmlns="http://www.w3.org/2000/svg">
<path d="M214.058 41.1166C224.415 48.125 220.178 56.2237 216.726 64.4781C213.274 72.7325 208.253 66.347 202.447 72.5768C196.641 78.8065 201.976 82.7001 203.545 90.1758C205.114 97.6515 194.601 111.045 183.461 112.136C172.32 113.226 169.495 93.7579 167.456 83.9461C165.259 74.1342 173.418 73.3555 177.655 72.2653C181.892 71.1751 184.559 66.6585 183.461 59.3386C182.362 52.0186 186.128 49.994 193.503 49.8382C200.878 49.8382 196.17 41.7395 196.17 41.7395C194.758 36.7557 204.801 34.8868 214.058 41.1166Z" stroke="#DC051F" stroke-miterlimit="10"/>
<path d="M173.576 114.316C182.049 102.324 203.076 50.3054 203.076 50.3054" stroke="#DC051F" stroke-miterlimit="10"/>
<path d="M197.27 90.7987L184.874 92.3562L178.598 79.2737" stroke="#DC051F" stroke-miterlimit="10"/>
<path d="M207.469 64.7893L196.956 64.945L190.993 56.0676" stroke="#DC051F" stroke-miterlimit="10"/>
<path d="M186.914 60.1172C182.991 64.3223 183.619 73.1997 189.581 78.6507C195.544 84.1018 190.209 90.643 184.56 92.5119C178.754 94.3809 172.164 98.4302 171.379 104.193C170.595 109.955 165.574 122.259 156.316 123.816C147.058 125.374 149.255 102.012 151.452 97.0285C153.648 92.0447 148.47 87.8396 145.803 77.872C143.135 67.9044 151.452 67.7487 155.374 66.1912C159.297 64.4781 163.063 62.7649 161.023 53.1088C158.983 43.4527 176.714 45.3216 176.714 45.3216C188.64 46.7233 190.68 55.9121 186.914 60.1172Z" fill="#FABC42"/>
<path d="M157.571 132.071L174.361 57.314" stroke="white" stroke-miterlimit="10" stroke-linecap="round" stroke-linejoin="round"/>
<path d="M184.09 81.9212L167.457 87.6838L155.375 74.2898" stroke="white" stroke-miterlimit="10" stroke-linecap="round" stroke-linejoin="round"/>
<path d="M253.756 256.666H78.7994C71.8952 256.666 66.4033 251.059 66.4033 244.362V114.004C66.4033 107.152 72.0521 101.701 78.7994 101.701H253.756C260.66 101.701 266.152 107.307 266.152 114.004V244.362C266.152 251.059 260.66 256.666 253.756 256.666ZM78.7994 102.324C72.366 102.324 67.1879 107.463 67.1879 113.849V244.206C67.1879 250.592 72.366 255.731 78.7994 255.731H253.756C260.189 255.731 265.367 250.592 265.367 244.206V114.004C265.367 107.619 260.189 102.479 253.756 102.479L78.7994 102.324Z" fill="#0064B5"/>
<path d="M98.8847 122.103H28.2744V122.881H98.8847V122.103Z" fill="#0064B5"/>
<path d="M274.314 102.791V233.149C274.314 239.69 268.979 245.141 262.232 245.141H87.4318C80.8415 245.141 75.3496 239.846 75.3496 233.149V102.791C75.3496 96.2499 80.6846 90.7988 87.4318 90.7988H262.388C268.979 90.7988 274.314 96.2499 274.314 102.791Z" fill="#E6EFF5"/>
<path d="M274.314 102.791V106.217H75.3496V102.791C75.3496 96.2499 80.6846 90.7988 87.4318 90.7988H262.388C268.979 90.7988 274.314 96.2499 274.314 102.791Z" fill="#0064B5"/>
<path d="M150.196 150.604H101.867C97.1594 150.604 93.3936 146.866 93.3936 142.194V135.341C93.3936 130.669 97.1594 126.931 101.867 126.931H150.196C154.903 126.931 158.669 130.669 158.669 135.341V142.194C158.826 146.866 154.903 150.604 150.196 150.604Z" fill="#033E9F"/>
<path d="M154.117 182.532H97.943C95.1186 182.532 92.9219 180.351 92.9219 177.548V162.908C92.9219 160.105 95.1186 157.924 97.943 157.924H154.117C156.942 157.924 159.139 160.105 159.139 162.908V177.548C159.139 180.351 156.942 182.532 154.117 182.532ZM97.943 158.703C95.5894 158.703 93.7064 160.572 93.7064 162.908V177.548C93.7064 179.884 95.5894 181.753 97.943 181.753H154.117C156.471 181.753 158.354 179.884 158.354 177.548V162.908C158.354 160.572 156.471 158.703 154.117 158.703H97.943Z" fill="#B3DCFF"/>
<path d="M224.885 193.901H175.458C174.36 193.901 173.575 192.966 173.575 192.032C173.575 190.942 174.517 190.163 175.458 190.163H224.885C225.984 190.163 226.768 191.098 226.768 192.032C226.768 192.966 225.984 193.901 224.885 193.901Z" fill="#0EA7FD"/>
<path d="M224.885 207.918H175.458C174.36 207.918 173.575 206.983 173.575 206.049C173.575 204.959 174.517 204.18 175.458 204.18H224.885C225.984 204.18 226.768 205.114 226.768 206.049C226.768 206.983 225.984 207.918 224.885 207.918Z" fill="#0EA7FD"/>
<path d="M249.991 182.532H180.166C176.243 182.532 173.104 179.417 173.104 175.523V133.317C173.104 129.423 176.243 126.308 180.166 126.308H249.991C253.914 126.308 257.052 129.423 257.052 133.317V175.679C256.895 179.417 253.757 182.532 249.991 182.532ZM180.166 127.087C176.713 127.087 173.889 129.89 173.889 133.317V175.679C173.889 179.105 176.713 181.909 180.166 181.909H249.991C253.443 181.909 256.268 179.105 256.268 175.679V133.317C256.268 129.89 253.443 127.087 249.991 127.087H180.166Z" fill="#B3DCFF"/>
<path d="M247.011 195.147L242.617 191.253C242.303 190.942 242.146 190.319 242.46 190.007C242.774 189.696 243.402 189.54 243.715 189.852L246.854 192.499L251.247 187.515C251.561 187.204 252.189 187.204 252.502 187.515C252.816 187.827 252.816 188.45 252.502 188.761L247.011 195.147Z" fill="#0EA7FD"/>
<path d="M247.011 209.942L242.617 206.049C242.303 205.737 242.146 205.114 242.46 204.803C242.774 204.491 243.402 204.336 243.715 204.647L246.854 207.295L251.247 202.311C251.561 202 252.189 202 252.502 202.311C252.816 202.622 252.816 203.245 252.502 203.557L247.011 209.942Z" fill="#0EA7FD"/>
<path d="M224.885 222.713H175.458C174.36 222.713 173.575 221.779 173.575 220.845C173.575 219.754 174.517 218.976 175.458 218.976H224.885C225.984 218.976 226.768 219.91 226.768 220.845C226.768 221.779 225.984 222.713 224.885 222.713Z" fill="#0EA7FD"/>
<path d="M247.011 224.738L242.617 220.844C242.303 220.533 242.146 219.91 242.46 219.598C242.774 219.287 243.402 219.131 243.715 219.443L246.854 222.09L251.247 217.106C251.561 216.795 252.189 216.795 252.502 217.106C252.816 217.418 252.816 218.041 252.502 218.352L247.011 224.738Z" fill="#0EA7FD"/>
<g opacity="0.8">
<path d="M139.526 31.4604H51.1842C41.1418 31.4604 32.9824 39.5591 32.9824 49.5267V93.6022C32.9824 103.57 41.1418 111.668 51.1842 111.668H139.526C149.568 111.668 157.727 103.57 157.727 93.6022V49.371C157.727 39.4034 149.568 31.4604 139.526 31.4604Z" fill="#E6EFF5"/>
</g>
<path d="M112.85 138.768C112.85 138.612 112.85 138.612 112.85 138.456V138.301C112.85 137.678 112.693 136.899 112.379 136.276C111.438 133.628 108.927 131.759 105.946 131.759C104.377 131.759 102.808 132.227 101.709 133.161C99.9832 134.407 98.8848 136.432 98.8848 138.612C98.8848 141.727 100.768 144.375 103.592 145.309C104.22 145.465 105.004 145.62 105.789 145.62C106.573 145.62 107.515 145.465 108.143 145.153C109.398 144.686 110.496 143.907 111.281 142.817C112.065 141.727 112.536 140.637 112.693 139.235C112.85 139.079 112.85 138.923 112.85 138.768ZM100.611 138.612C100.611 136.899 101.395 135.497 102.651 134.563C103.592 133.94 104.691 133.472 105.946 133.472C108.143 133.472 110.026 134.874 110.81 136.899C110.967 137.366 111.124 137.833 111.124 138.456C111.124 138.612 111.124 138.612 111.124 138.768C111.124 139.235 110.967 139.702 110.967 140.169C110.81 140.792 110.496 141.415 110.026 141.883C109.869 142.038 109.712 142.194 109.555 142.35C108.613 143.284 107.201 143.907 105.789 143.907C105.475 143.907 105.004 143.907 104.691 143.752C104.534 143.752 104.377 143.596 104.22 143.596C102.023 142.817 100.611 140.948 100.611 138.612Z" fill="white"/>
<path d="M130.424 100.766H109.241C100.454 100.766 93.2363 93.6019 93.2363 84.8803V57.6251C93.2363 48.9035 100.454 41.7393 109.241 41.7393H130.424C139.211 41.7393 146.429 48.9035 146.429 57.6251V84.8803C146.429 93.6019 139.368 100.766 130.424 100.766Z" fill="#033E9F"/>
<path d="M80.8407 91.2659H46.3201C45.2217 91.2659 44.2803 90.3314 44.2803 89.2412C44.2803 88.151 45.2217 87.2166 46.3201 87.2166H80.8407C81.9391 87.2166 82.8806 88.151 82.8806 89.2412C83.0375 90.3314 82.096 91.2659 80.8407 91.2659Z" fill="#0064B5"/>
<path d="M80.8407 100.766H46.3201C45.2217 100.766 44.2803 99.8319 44.2803 98.7417C44.2803 97.6515 45.2217 96.717 46.3201 96.717H80.8407C81.9391 96.717 82.8806 97.6515 82.8806 98.7417C83.0375 99.8319 82.096 100.766 80.8407 100.766Z" fill="#0064B5"/>
<path d="M116.145 185.335H67.6598C62.9524 185.335 59.1865 181.597 59.1865 176.925V170.072C59.1865 165.4 62.9524 161.662 67.6598 161.662H115.989C120.696 161.662 124.462 165.4 124.462 170.072V176.925C124.619 181.441 120.853 185.335 116.145 185.335Z" fill="#0064B5"/>
<path d="M229.436 37.0667L229.279 36.288C230.692 35.9765 231.319 35.665 231.319 35.665L231.633 36.4438C231.633 36.4438 231.005 36.5995 229.436 37.0667Z" fill="#003EAE"/>
<path d="M6.15012 128.177C5.67938 126.775 5.20865 125.374 4.73791 123.972L5.52247 123.816C5.9932 125.218 6.46394 126.62 6.93467 128.021L6.15012 128.177ZM3.63953 119.611C3.3257 118.209 3.01188 116.808 2.69806 115.25L3.48261 115.095C3.79644 116.496 4.11026 117.898 4.42409 119.3L3.63953 119.611ZM2.07041 111.045C1.9135 109.644 1.59967 108.086 1.44276 106.684L2.22732 106.529C2.38423 107.93 2.54114 109.488 2.85497 110.89L2.07041 111.045ZM0.972028 102.324C0.815116 100.922 0.815115 99.3645 0.658203 97.9628H1.44276C1.44276 99.3645 1.59967 100.922 1.59967 102.324H0.972028ZM1.44276 93.602H0.658203C0.658203 92.2003 0.658204 90.6428 0.815115 89.2411H1.59967C1.59967 90.6428 1.44276 92.0445 1.44276 93.602ZM1.75659 84.8803H0.972028C1.12894 83.4786 1.28585 81.9212 1.44276 80.5195L2.22732 80.6752C2.07041 81.9212 1.9135 83.3229 1.75659 84.8803ZM2.85497 76.1587L2.07041 76.0029C2.22732 74.6012 2.54114 73.0438 2.85497 71.6421L3.63953 71.7978C3.3257 73.3553 3.01188 74.757 2.85497 76.1587ZM4.42409 67.5928L3.63953 67.437C3.95335 66.0353 4.42409 64.6336 4.73791 63.2319L5.52247 63.3877C5.20865 64.7894 4.73791 66.1911 4.42409 67.5928ZM6.77776 59.1826L6.15012 59.0269C6.62085 57.6252 7.09159 56.2235 7.56232 54.8218L8.34688 55.1333C7.71923 56.535 7.2485 57.7809 6.77776 59.1826ZM9.916 51.0839L9.28835 50.7724C9.916 49.3708 10.5436 48.1248 11.1713 46.7231L11.7989 47.0346C11.1713 48.4363 10.5436 49.838 9.916 51.0839ZM13.8388 43.2967L13.2111 42.9853C13.9957 41.7393 14.7803 40.4934 15.5648 39.2474L16.1925 39.7146C15.4079 40.8049 14.6234 42.0508 13.8388 43.2967ZM220.649 38.0015V37.2227C222.218 37.2227 223.63 37.067 225.042 36.9113L225.199 37.69C223.63 37.8457 222.218 38.0015 220.649 38.0015ZM216.255 37.8457C214.843 37.69 213.274 37.5342 211.861 37.3785L212.018 36.5998C213.431 36.7555 215 36.9113 216.412 37.067L216.255 37.8457ZM207.468 36.7555C206.056 36.444 204.644 36.1325 203.074 35.8211L203.231 35.0423C204.644 35.3538 206.056 35.6653 207.468 35.9768V36.7555ZM18.7031 35.9768L18.0754 35.5096C19.0169 34.2636 19.8014 33.1734 20.7429 32.0832L21.3706 32.5504C20.4291 33.6406 19.4876 34.8866 18.7031 35.9768ZM198.838 34.5751C197.426 34.1079 196.013 33.6406 194.601 33.1734L194.915 32.3947C196.327 32.8619 197.739 33.3292 198.995 33.7964L198.838 34.5751ZM190.521 31.616C189.109 30.993 187.854 30.5258 186.442 29.9028L186.756 29.2798C188.168 29.9028 189.423 30.5258 190.835 30.993L190.521 31.616ZM24.195 29.2798L23.5673 28.8126C24.5088 27.7224 25.6072 26.6322 26.7056 25.6977L27.1763 26.3207C26.2348 27.2551 25.2934 28.3454 24.195 29.2798ZM182.519 27.8781C181.264 27.2551 179.851 26.4764 178.596 25.8535L178.91 25.2305C180.165 26.0092 181.577 26.6322 182.833 27.2551L182.519 27.8781ZM174.83 23.673C174.36 23.3616 173.889 23.0501 173.261 22.7386C172.477 22.2714 171.849 21.8041 171.064 21.4926L171.378 20.8697C172.163 21.3369 172.947 21.8041 173.732 22.2713C174.203 22.5828 174.673 22.8943 175.301 23.2058L174.83 23.673ZM30.6284 23.3616L30.1576 22.7386C30.9422 22.1156 31.7267 21.4926 32.5113 20.8697C32.8251 20.5582 33.2959 20.2467 33.6097 20.0909L34.0804 20.7139C33.7666 21.0254 33.2958 21.3369 32.982 21.4926C32.1975 22.1156 31.4129 22.7386 30.6284 23.3616ZM167.142 19.3122C165.886 18.6892 164.631 17.9105 163.219 17.2876L163.533 16.6646C164.945 17.2876 166.2 17.9105 167.455 18.6892L167.142 19.3122ZM37.5325 18.0663L37.0617 17.4433C38.317 16.6646 39.5723 15.7301 40.8276 15.1071L41.2984 15.7301C40.0431 16.5088 38.7878 17.2876 37.5325 18.0663ZM159.296 15.5744C158.041 14.9514 156.629 14.3284 155.216 13.8612L155.53 13.0825C156.942 13.7054 158.198 14.3284 159.61 14.7957L159.296 15.5744ZM45.0642 13.394L44.7504 12.771C46.0057 11.9923 47.4179 11.3693 48.6732 10.7463L48.987 11.3693C47.5748 11.9923 46.3195 12.771 45.0642 13.394ZM151.137 12.148C149.724 11.6808 148.469 11.0578 147.057 10.5906L147.371 9.81185C148.783 10.2791 150.195 10.9021 151.45 11.3693L151.137 12.148ZM52.9098 9.50037L52.596 8.72165C54.0082 8.09867 55.2635 7.4757 56.6757 7.00847L56.8326 7.78719C55.5773 8.41016 54.1651 8.87739 52.9098 9.50037ZM142.977 9.03314C141.565 8.5659 140.153 8.09867 138.741 7.63144L138.897 6.85272C140.31 7.31995 141.722 7.78719 143.134 8.25442L142.977 9.03314ZM134.504 6.38549C133.092 5.91826 131.68 5.60677 130.267 5.29529L130.424 4.51657C131.836 4.82805 133.249 5.29529 134.661 5.60677L134.504 6.38549ZM61.0692 6.38549L60.7554 5.60677C62.1676 5.13954 63.5798 4.67231 64.992 4.20508L65.1489 4.9838C63.7367 5.45103 62.3245 5.91826 61.0692 6.38549ZM126.031 4.20508C124.619 3.89359 123.206 3.58211 121.794 3.27062L121.951 2.4919C123.363 2.80339 124.775 3.11487 126.345 3.42636L126.031 4.20508ZM69.3856 3.89359L69.2286 3.11487C70.6409 2.80339 72.0531 2.4919 73.6222 2.18041L73.7791 2.95913C72.21 3.11487 70.7978 3.58211 69.3856 3.89359ZM117.401 2.64764C115.988 2.33616 114.419 2.18041 113.007 2.02467L113.164 1.24595C114.576 1.40169 115.988 1.55744 117.557 1.86892L117.401 2.64764ZM78.0157 2.18041L77.8588 1.40169C79.271 1.24595 80.8401 0.934462 82.2523 0.778719L82.4092 1.55744C80.997 1.71318 79.4279 1.86892 78.0157 2.18041ZM108.614 1.40169C107.201 1.24595 105.632 1.09021 104.22 1.09021V0.311487C105.632 0.467231 107.201 0.467231 108.614 0.622975V1.40169ZM86.8028 1.09021V0.311487C88.215 0.155744 89.7841 0.155744 91.1963 0V0.778719C89.6272 0.934462 88.215 0.934462 86.8028 1.09021ZM99.9834 0.778719C98.5712 0.778719 97.1589 0.778719 95.7467 0.778719H95.5898V0H95.7467C97.1589 0 98.5712 0 99.9834 0V0.778719Z" fill="#003EAE"/>
<path d="M8.6612 134.251C8.34737 133.628 8.03355 133.005 7.71973 132.226L8.50429 131.915C8.81811 132.538 9.13193 133.316 9.44576 133.939L8.6612 134.251Z" fill="#003EAE"/>
<path d="M94.6482 202H88.6855V223.492H94.6482V202Z" fill="#0EA7FD"/>
<path d="M103.122 199.819H97.1592V223.492H103.122V199.819Z" fill="#0EA7FD"/>
<path d="M111.752 204.336H105.789V223.492H111.752V204.336Z" fill="#0EA7FD"/>
<path d="M120.382 195.458H114.419V223.492H120.382V195.458Z" fill="#0EA7FD"/>
<path d="M129.325 198.106H123.362V223.336H129.325V198.106Z" fill="#0EA7FD"/>
<path d="M138.427 202H132.464V223.492H138.427V202Z" fill="#0EA7FD"/>
<path d="M146.9 199.819H140.938V223.492H146.9V199.819Z" fill="#0EA7FD"/>
<path d="M155.529 204.336H149.566V223.492H155.529V204.336Z" fill="#0EA7FD"/>
<path d="M79.5843 172.564C79.5843 171.785 79.4274 171.162 79.1136 170.54C78.1721 167.892 75.6615 166.023 72.6802 166.023C71.1111 166.023 69.5419 166.49 68.4435 167.425C66.7175 168.671 65.6191 170.695 65.6191 172.876C65.6191 175.991 67.5021 178.638 70.3265 179.573C70.9541 179.728 71.7387 179.884 72.5233 179.884C73.4647 179.884 74.2493 179.728 75.0338 179.417C76.2891 178.95 77.3875 178.171 78.1721 177.237C78.9566 176.302 79.4274 175.056 79.5843 173.654C79.5843 173.499 79.5843 173.343 79.5843 173.031C79.5843 172.876 79.5843 172.72 79.5843 172.564ZM67.3452 172.876C67.3452 171.162 68.1297 169.761 69.385 168.826C70.3265 168.203 71.4249 167.736 72.6802 167.736C74.8769 167.736 76.7599 169.138 77.5444 171.162C77.7013 171.63 77.8583 172.097 77.8583 172.72C77.8583 172.876 77.8583 172.876 77.8583 173.031C77.8583 173.499 77.7013 173.966 77.7013 174.433C77.5444 175.056 77.2306 175.679 76.7599 176.146C76.603 176.302 76.446 176.458 76.2891 176.614C75.3477 177.548 73.9355 178.171 72.5233 178.171C72.2094 178.171 71.7387 178.171 71.4249 178.015C71.268 178.015 71.1111 177.859 70.9541 177.859C68.7574 177.081 67.3452 175.056 67.3452 172.876Z" fill="white"/>
<path d="M228.494 274.732H191.777C185.814 274.732 180.793 269.904 180.793 263.83V240.001C180.793 234.083 185.657 229.099 191.777 229.099H228.494C234.457 229.099 239.478 233.927 239.478 240.001V263.83C239.478 269.748 234.614 274.732 228.494 274.732Z" fill="#0064B5"/>
<path d="M229.279 269.125H214.53C210.921 269.125 207.939 266.166 207.939 262.584V240.468C207.939 236.886 210.921 233.927 214.53 233.927H229.279C232.888 233.927 235.87 236.886 235.87 240.468V262.584C236.027 266.166 233.045 269.125 229.279 269.125Z" fill="white"/>
<path d="M199.623 238.911H189.581C188.169 238.911 187.07 237.821 187.07 236.419C187.07 235.017 188.169 233.927 189.581 233.927H199.623C201.035 233.927 202.134 235.017 202.134 236.419C202.134 237.821 201.035 238.911 199.623 238.911Z" fill="white"/>
<path d="M199.623 248.255H189.581C188.169 248.255 187.07 247.165 187.07 245.763C187.07 244.362 188.169 243.271 189.581 243.271H199.623C201.035 243.271 202.134 244.362 202.134 245.763C202.134 247.165 201.035 248.255 199.623 248.255Z" fill="white"/>
<path d="M246.756 46.1075C246.579 47.1629 244.452 49.8014 244.452 49.8014L240.376 51.3844L239.136 61.2346L239.667 67.5669C239.667 67.5669 239.136 69.3259 237.186 69.3259C235.06 69.15 233.819 68.9741 234.351 66.1597C234.883 63.5213 233.465 63.6972 232.756 58.948C232.047 54.1988 235.414 52.9675 236.832 52.2639C238.25 51.5603 239.667 47.8665 239.667 47.8665C240.199 42.7655 245.693 44.7004 245.693 44.7004C245.693 44.7004 246.933 45.2281 246.756 46.1075Z" fill="#1C1156"/>
<path d="M247.288 43.9969C247.288 44.3487 246.579 45.7559 246.579 45.7559C246.579 45.7559 244.275 44.5246 244.098 44.5246C243.92 44.3487 244.807 43.4692 244.807 43.4692C244.807 43.4692 247.288 43.821 247.288 43.9969Z" fill="#C94F59"/>
<path d="M251.187 36.7852C247.997 37.4888 248.529 40.479 247.643 43.997C246.934 46.9872 245.162 48.9221 244.63 49.4498V49.6257C244.807 49.8016 244.984 50.3292 245.693 51.2087C246.402 52.6159 249.946 53.4954 250.655 53.1436C251.364 52.7918 252.25 50.3292 252.073 47.8667C251.896 45.58 253.845 46.6354 253.845 46.6354C256.149 46.9872 257.389 45.58 257.389 45.58C259.693 43.4693 259.87 37.8406 259.87 36.6093C259.87 36.4334 259.693 36.4334 259.693 36.4334C258.275 36.6093 253.845 36.0816 251.187 36.7852Z" fill="#EBBA94"/>
<path d="M262.528 37.3129C262.351 37.8406 261.997 38.1924 261.82 38.5442C260.756 39.4237 260.047 38.1924 259.516 37.4888C259.339 37.3129 258.984 37.137 258.807 37.3129C256.503 38.7201 252.959 38.0165 252.959 38.0165C249.769 36.9611 251.718 40.479 251.718 40.479C251.896 42.238 250.301 44.1729 246.402 43.997C242.68 43.8211 244.452 35.9057 244.63 35.7298C245.87 30.8047 250.832 29.2217 253.845 29.2217C256.149 29.2217 257.921 30.8047 258.452 31.5083C258.63 31.6842 258.807 31.6842 258.984 31.6842C259.87 31.6842 260.579 31.8601 261.288 32.3878C261.997 33.0914 262.351 34.1468 262.528 35.2022C262.528 35.554 262.528 36.0816 262.528 36.2575V36.4334C262.351 36.7852 262.351 37.137 262.528 37.3129Z" fill="#1C1156"/>
<path d="M239.845 51.7365L238.781 52.7919C238.781 52.7919 240.908 73.02 241.439 73.8994C241.794 74.7789 242.503 77.2415 242.503 77.2415L258.098 75.1307L257.921 74.4271C257.921 74.4271 255.794 62.9939 256.148 61.9385C256.326 60.8831 257.566 61.4108 257.566 58.0688C257.566 54.7267 252.072 49.8016 252.072 49.8016C252.072 49.8016 251.718 52.616 249.06 52.616C246.402 52.616 244.452 49.6257 244.452 49.6257C241.617 49.8016 239.845 51.9124 239.845 51.7365Z" fill="#0064DF"/>
<path d="M237.895 65.2802L243.92 64.2249C243.92 64.2249 244.097 63.1695 243.92 58.4203C243.743 53.847 243.743 50.6808 239.844 51.2085C236.123 51.7362 237.54 61.7623 237.54 61.7623L237.895 65.2802Z" fill="#0054A1"/>
<path d="M238.072 65.6323C237.895 65.6323 237.895 65.8082 237.895 65.8082C238.072 66.16 238.603 67.5671 239.667 71.2609C241.262 76.186 243.565 74.2512 243.565 74.2512C243.565 74.2512 256.148 66.1599 257.565 65.9841C258.452 65.8082 259.16 65.6323 259.338 65.2805C259.515 65.2805 259.338 65.1046 259.16 65.1046C258.806 65.1046 258.274 65.1046 257.92 64.5769C257.211 63.6974 259.692 64.2251 259.692 64.2251C259.692 64.2251 260.933 64.5769 261.11 64.2251C261.287 63.8733 260.933 62.642 260.933 62.4661C260.755 62.1143 258.097 62.1143 256.679 62.642C255.616 62.8179 255.084 63.5215 255.084 64.0492C254.907 64.2251 254.73 64.5769 254.376 64.7528C252.781 65.4564 247.641 67.9189 245.869 68.9743C245.338 69.3261 244.806 69.3261 244.629 69.502C244.097 69.6779 243.92 69.1502 243.92 68.4466L243.743 64.5769C243.743 64.401 243.565 64.401 243.565 64.401L238.072 65.6323Z" fill="#EAB993"/>
<path d="M259.515 68.095L256.502 68.2709L257.211 72.4924L264.299 69.678L259.515 68.095Z" fill="#EAB993"/>
<path d="M258.098 69.8538L268.908 69.502L280.427 54.9026L269.262 55.6062L258.098 69.8538Z" fill="#1A1155"/>
<path d="M252.781 75.834L263.237 82.3421L276.174 97.821L279.009 123.678L284.503 123.502V122.798C284.503 122.798 283.971 98.3487 283.262 91.1369C282.553 83.9252 279.718 83.3975 279.718 83.3975L257.743 75.1304L252.781 75.834Z" fill="#EC384E"/>
<path d="M242.325 77.0656L242.148 80.2318C240.73 87.6194 245.161 89.7302 246.224 90.082C246.401 90.2579 246.579 90.2579 246.579 90.2579C248.351 90.4338 262.528 91.8409 265.541 92.0168C268.731 92.3686 268.553 93.5999 268.553 93.5999L258.984 119.984L262.705 122.799C262.705 122.799 273.515 103.45 277.414 96.9419C281.136 90.6097 275.288 87.0917 275.288 87.0917L252.958 76.0103L242.325 77.0656Z" fill="#DC051F"/>
<path d="M279.186 123.502L279.009 125.613C278.832 127.724 279.718 127.9 279.718 127.9C279.718 127.9 286.983 127.9 289.287 128.076C291.591 128.252 291.414 127.372 291.414 127.372C291.414 126.493 290.528 126.317 289.996 126.317C289.819 126.317 289.465 126.141 289.287 126.141L284.502 123.502H279.186Z" fill="black"/>
<path d="M258.806 120.16C258.806 120.16 257.742 121.215 257.034 121.919C256.502 122.447 256.502 123.15 256.502 123.678C256.502 124.03 256.679 124.03 256.679 124.206C257.92 125.085 263.591 129.658 265.363 130.186C265.54 130.186 265.54 130.186 265.54 130.186C265.894 130.362 266.249 130.362 266.603 130.186C266.78 130.01 266.78 129.834 266.78 129.658C266.78 129.482 266.603 129.307 266.603 129.131C266.426 128.779 266.249 128.603 266.072 128.427C265.363 127.372 264.477 126.668 263.945 125.613C262.704 123.854 262.705 122.622 262.705 122.622L258.806 120.16Z" fill="black"/>
<path d="M289.689 192.967H236.339C230.22 192.967 225.355 187.983 225.355 182.065V153.563C225.355 147.489 230.377 142.661 236.339 142.661H289.689C295.809 142.661 300.673 147.645 300.673 153.563V182.065C300.83 187.983 295.809 192.967 289.689 192.967Z" fill="#0064B5"/>
<path d="M254.071 168.359H236.967C234.614 168.359 232.888 166.49 232.888 164.31V151.227C232.888 148.891 234.771 147.178 236.967 147.178H254.071C256.424 147.178 258.151 149.047 258.151 151.227V164.31C258.307 166.49 256.424 168.359 254.071 168.359Z" fill="white"/>
<path d="M292.67 152.785H264.897C263.641 152.785 262.543 151.694 262.543 150.448V149.514C262.543 148.268 263.641 147.178 264.897 147.178H292.67C293.925 147.178 295.024 148.268 295.024 149.514V150.293C295.181 151.694 293.925 152.785 292.67 152.785Z" fill="white"/>
<path d="M292.67 161.662H264.897C263.641 161.662 262.543 160.572 262.543 159.326V158.547C262.543 157.301 263.641 156.211 264.897 156.211H292.67C293.925 156.211 295.024 157.301 295.024 158.547V159.326C295.181 160.572 293.925 161.662 292.67 161.662Z" fill="white"/>
<path d="M293.769 184.557H282.785C282.001 184.557 281.373 183.778 281.373 183.155C281.373 182.376 282.158 181.753 282.785 181.753H293.769C294.554 181.753 295.181 182.532 295.181 183.155C295.181 183.778 294.397 184.557 293.769 184.557Z" fill="white"/>
<path d="M299.223 315.279C316.22 315.279 329.999 313.455 329.999 311.206C329.999 308.957 316.22 307.133 299.223 307.133C282.225 307.133 268.446 308.957 268.446 311.206C268.446 313.455 282.225 315.279 299.223 315.279Z" fill="#E7E6EB"/>
<path d="M304.523 231.613L321.108 229.577L320.254 306.624L313.756 307.303L304.523 231.613Z" fill="#EC384E"/>
<path d="M295.289 229.577L290.673 306.624L297.17 307.303L314.439 231.613L295.289 229.577Z" fill="#DC051F"/>
<path d="M305.378 175.61C307.943 175.61 311.021 181.38 310.85 183.926C310.85 186.471 309.482 186.471 308.798 187.659C308.114 188.847 304.353 190.205 302.472 190.035C300.591 189.865 299.907 186.811 300.078 182.568C300.249 178.155 302.13 175.61 302.13 175.61C302.13 175.61 302.643 175.61 305.378 175.61Z" fill="#FDBC99"/>
<path d="M305.549 185.114C305.549 185.114 305.549 185.114 305.378 188.847C305.207 192.581 301.787 195.296 301.787 195.296C301.787 195.296 301.787 197.842 305.549 198.521C309.31 199.369 313.072 194.957 313.072 194.957C313.072 194.957 312.388 193.769 311.191 190.544C309.994 187.32 309.481 184.265 309.481 184.265L305.549 185.114Z" fill="#FDBC98"/>
<path d="M303.838 176.968C306.403 177.647 306.403 177.647 307.6 179.004C308.797 180.192 309.48 183.417 309.48 183.417C309.48 183.417 309.822 185.114 310.164 185.962C310.506 186.811 310.677 187.829 310.848 188.508C310.848 189.187 311.532 189.187 312.045 189.187C312.558 189.187 313.926 188.508 315.294 186.132C316.662 183.586 316.32 181.041 316.149 180.362C315.465 179.004 315.465 176.459 315.636 175.949C315.636 175.271 315.636 174.762 314.439 173.404C313.242 172.046 306.916 172.046 306.916 172.046C306.232 172.046 305.035 172.046 304.351 171.367C303.667 170.689 301.273 169.331 300.077 170.01C298.88 170.689 300.59 175.78 300.59 175.78C300.761 177.477 301.444 176.119 303.838 176.968Z" fill="#150C56"/>
<path d="M310.676 182.059C310.676 183.926 308.795 183.247 308.795 183.247C308.795 183.247 307.598 181.38 308.453 180.362C309.479 179.174 310.676 180.192 310.676 182.059Z" fill="#FDBC99"/>
<path d="M296.999 206.836C296.144 207.854 288.792 215.152 287.766 216.17C286.569 217.358 282.637 214.134 280.414 212.097C278.362 210.061 273.917 201.915 272.207 199.539C270.839 197.333 264.855 193.599 263.145 192.411C262.974 192.411 263.145 192.072 263.316 192.072C265.026 192.241 269.813 192.92 270.668 192.411C271.523 191.902 271.865 191.563 271.523 190.375C271.01 189.187 272.378 189.865 272.378 189.865C272.378 189.865 273.575 190.714 274.943 192.75C276.14 194.787 275.798 195.975 276.14 197.163C276.652 198.351 283.663 206.836 283.834 207.345C284.176 207.685 286.056 209.042 286.398 209.382H286.569L292.212 201.915H292.383L296.999 206.836Z" fill="#FDBC99"/>
<path d="M296.486 189.186C296.999 190.035 296.486 191.223 296.486 191.223L288.963 192.92C288.963 192.92 292.724 194.617 294.776 195.805C296.828 196.993 300.077 199.539 300.077 199.539L301.786 197.502C301.786 197.502 300.077 194.278 299.735 192.241C299.222 190.205 296.486 188.168 296.486 188.168C296.486 188.168 295.973 188.338 296.486 189.186Z" fill="#FDBC99"/>
<path d="M320.424 306.115H313.414C313.414 307.303 312.901 307.303 312.901 307.303C312.901 307.303 306.746 310.018 304.694 311.036C302.642 311.885 304.865 312.394 304.865 312.394C304.865 312.394 316.491 312.564 318.543 312.564C320.766 312.564 320.253 311.545 320.253 311.545L320.424 306.115Z" fill="#160956"/>
<path d="M297.683 306.115H290.673C290.673 307.303 290.16 307.303 290.16 307.303C290.16 307.303 284.004 310.018 281.953 311.036C279.901 311.885 282.124 312.394 282.124 312.394C282.124 312.394 293.75 312.564 295.802 312.564C298.025 312.564 297.512 311.545 297.512 311.545L297.683 306.115Z" fill="#160956"/>
<path d="M311.019 194.278C311.019 194.278 311.874 193.429 312.729 193.769C313.584 194.278 317.174 197.502 319.739 206.836C322.304 216.17 321.449 231.444 321.449 231.444L295.289 230.765C295.289 230.765 295.289 221.6 295.802 213.285C296.315 204.969 296.657 201.236 298.025 198.86C299.393 196.314 302.128 194.278 302.812 193.599C303.667 192.92 304.18 193.599 304.18 193.599C307.258 197.502 311.019 194.278 311.019 194.278Z" fill="#0181F7"/>
<path d="M297.17 208.194C297.17 208.194 300.931 203.781 302.983 200.557C305.035 197.332 302.983 194.108 298.88 195.635C294.776 197.332 291.186 202.593 291.186 202.593L297.17 208.194Z" fill="#0064B5"/>
<path d="M32.4022 322.655C49.7495 322.655 63.8123 320.604 63.8123 318.075C63.8123 315.546 49.7495 313.496 32.4022 313.496C15.0549 313.496 0.992188 315.546 0.992188 318.075C0.992188 320.604 15.0549 322.655 32.4022 322.655Z" fill="#E7E6EB"/>
<path d="M39.1464 207.109C39.1464 207.109 60.4413 186.325 62.0385 184.739C63.813 183.154 65.0552 182.274 66.6524 181.569C68.4269 180.864 68.9593 180.16 70.5564 178.575C72.1535 176.989 70.5564 176.461 70.5564 176.461C70.5564 175.933 70.0241 175.756 70.0241 175.756C70.2015 175.404 69.4917 175.052 69.4917 175.052C69.4917 175.052 70.0241 173.995 70.9114 173.114C71.7986 172.234 70.9114 172.41 70.9114 172.41L68.2495 174.876C67.0073 174.524 65.0552 176.109 63.9905 177.518C62.9257 179.103 62.2159 179.455 62.2159 179.455L35.9521 200.416L39.1464 207.109Z" fill="#FDBC99"/>
<path d="M31.1601 182.274C34.7093 177.694 29.7404 172.586 29.7404 172.586C29.7404 172.586 29.3855 173.115 28.1433 175.052C26.9011 176.99 25.304 176.813 22.8196 178.046C20.1577 179.456 15.7213 181.745 16.6086 188.615C17.4959 195.308 23.5294 195.484 23.5294 195.484C23.5294 195.484 27.611 186.853 31.1601 182.274Z" fill="#180957"/>
<path d="M20.3343 313.495C22.1089 314.904 27.2551 317.37 27.2551 317.37C27.7875 317.723 27.6101 318.603 27.6101 318.956C27.6101 319.132 27.4326 319.132 27.4326 319.132C26.1904 319.132 17.3175 319.132 14.8331 318.956C12.5261 318.956 13.4134 314.552 13.5909 313.848C13.5909 313.848 13.5909 313.671 13.7683 313.671C14.4782 313.319 18.5597 312.086 20.3343 313.495Z" fill="#160956"/>
<path d="M42.5175 312.967C45.3568 314.728 51.213 317.194 51.213 317.194C52.1003 317.547 52.1002 318.427 51.9228 318.603C51.9228 318.78 51.7453 318.78 51.7453 318.78C50.3257 318.78 39.3233 318.956 37.1938 318.78C35.0643 318.603 35.7741 313.848 35.9516 313.143C35.9516 313.143 35.9516 312.967 36.129 312.967C36.8389 312.615 40.2106 311.382 42.5175 312.967Z" fill="#160956"/>
<path d="M21.0441 237.581L24.9481 252.024L25.4805 265.234L20.3342 313.496L13.7683 313.672L12.3486 237.757L21.0441 237.581Z" fill="#0064DF"/>
<path d="M38.6127 237.581L42.8717 312.967H36.3058L27.6103 273.689C25.6583 269.99 19.4473 237.757 19.4473 237.757L38.6127 237.581Z" fill="#003EAE"/>
<path d="M25.1272 184.563C23.53 187.205 23.8849 190.376 23.53 193.018C23.1751 195.836 20.8682 202.177 20.8682 202.177C20.8682 202.177 29.2087 203.41 28.6763 202.177C28.3214 200.944 27.9665 196.893 28.1439 195.836C28.3214 194.779 29.9185 194.955 31.8706 194.955C33.8226 194.955 34.7099 194.779 34.5324 190.023C34.5324 185.268 31.1607 182.45 31.1607 182.45C28.4989 179.807 26.5468 181.921 25.1272 184.563Z" fill="#FDBC99"/>
<path d="M32.4015 213.626L39.8548 207.285L36.1282 199.887L29.3848 203.586L32.4015 213.626Z" fill="#F59D04"/>
<path d="M22.6412 201.648C24.7707 202.705 27.0776 202.529 28.1424 201.824C29.2071 201.12 29.917 202.177 29.917 202.177C29.917 202.177 33.1112 205.523 34.7083 213.802C36.4829 222.08 38.6124 237.756 38.6124 237.756H12.3486C12.3486 237.756 12.5261 229.654 13.9458 218.557C15.3654 207.461 19.2695 202.881 19.2695 202.881C19.9793 202.001 20.5117 200.592 22.6412 201.648Z" fill="#FABC42"/>
<path d="M24.0617 189.671C22.8195 189.143 21.9322 187.558 22.642 186.853C23.3519 186.149 24.7715 186.501 24.7715 186.501C24.7715 186.501 25.1265 190.2 24.0617 189.671Z" fill="#FDBC99"/>
<path d="M21.2227 218.558C21.2227 218.558 21.5776 222.08 23.5296 230.007C25.4816 237.933 30.9828 251.319 31.6927 252.2C32.4025 253.081 32.4025 256.956 32.9349 258.717C33.4672 260.478 35.9517 259.422 37.0164 258.365C38.0812 257.308 37.0164 254.666 37.0164 254.666C37.0164 254.666 34.7095 249.206 33.1123 243.569C31.5152 237.757 28.6759 216.796 28.6759 216.796L21.2227 218.558Z" fill="#FDBC99"/>
<path d="M20.3344 219.614C20.3344 219.614 19.9795 214.683 19.9795 210.455C19.9795 206.228 22.8188 206.228 22.8188 206.228C27.6102 206.228 29.3848 217.853 29.3848 217.853L20.3344 219.614Z" fill="#F59D04"/>
<path d="M63.4214 41.2722C53.2221 40.4935 44.2782 47.9692 43.4936 58.404C42.709 68.5274 50.2408 77.4048 60.597 78.1835C70.7963 78.9622 79.7402 71.4865 80.5248 61.2074C81.1524 50.9283 73.6207 42.2067 63.4214 41.2722ZM61.2246 69.3061C55.8896 68.9946 51.8099 64.1665 52.2807 59.027C52.5945 53.7317 57.4587 49.6824 62.6368 50.1496C67.9718 50.4611 72.0515 55.2892 71.5808 60.4287C71.267 65.724 66.5596 69.6176 61.2246 69.3061Z" fill="#EE384E"/>
<path d="M62.637 49.9938C62.9508 49.9938 63.1077 49.9938 63.4215 50.1495V41.4279H63.2646C57.9296 41.1164 52.9085 42.9853 49.1426 46.4117L54.7914 52.9529C56.8313 50.9283 59.4988 49.838 62.637 49.9938Z" fill="#17A5FB"/>
<path d="M52.2812 59.0269L43.4941 59.9613C43.6511 65.1009 46.0047 69.7732 49.4568 73.1995L55.7333 66.9698C53.3796 65.1009 51.9674 62.1417 52.2812 59.0269Z" fill="#17A5FB"/>
<path d="M71.7381 60.2728C71.7381 60.5843 71.5812 61.0515 71.5812 61.5188L80.2114 62.609C80.3683 62.1417 80.3683 61.5187 80.5252 60.8958C80.839 56.3792 79.4268 51.8626 76.9162 48.4363L69.2275 52.9528C70.9536 55.1333 71.895 57.6252 71.7381 60.2728Z" fill="#17A5FB"/>
<path d="M61.5391 69.306L61.8529 78.0276C67.1879 78.0276 72.0522 75.8472 75.3473 72.2651L69.5416 65.7239C67.6586 68.06 64.8342 69.4617 61.5391 69.306Z" fill="#17A5FB"/>
<path d="M14.7799 135.186L15.2506 145.62L5.83594 140.792L14.7799 135.186Z" fill="#033E9F"/>
</svg>
