<svg width="445" height="305" viewBox="0 0 445 305" fill="none" xmlns="http://www.w3.org/2000/svg">
<path d="M211.156 242.646C274.461 242.646 325.78 191.424 325.78 128.239C325.78 65.0542 274.461 13.8326 211.156 13.8326C147.851 13.8326 96.5322 65.0542 96.5322 128.239C96.5322 191.424 147.851 242.646 211.156 242.646Z" stroke="#3864B2" stroke-width="1.41442" stroke-miterlimit="10" stroke-dasharray="8.49 8.49"/>
<path d="M302.976 65.2854C309.006 65.2854 313.893 60.4071 313.893 54.3895C313.893 48.3719 309.006 43.4936 302.976 43.4936C296.948 43.4936 292.06 48.3719 292.06 54.3895C292.06 60.4071 296.948 65.2854 302.976 65.2854Z" fill="#003EB0"/>
<path d="M299.095 52.2106L303.461 58.7481L306.736 53.3002" stroke="white" stroke-width="1.5" stroke-miterlimit="10"/>
<path d="M97.8658 112.017C103.895 112.017 108.782 107.138 108.782 101.121C108.782 95.1029 103.895 90.2249 97.8658 90.2249C91.8367 90.2249 86.9492 95.1029 86.9492 101.121C86.9492 107.138 91.8367 112.017 97.8658 112.017Z" fill="#FCBE42"/>
<path d="M95.0771 96.7625L102.234 101.605L95.0771 105.479V96.7625Z" fill="white"/>
<path d="M250.092 39.8619H172.099C163.487 39.8619 156.573 32.8402 156.573 24.3656V16.4963C156.573 7.90071 163.609 1 172.099 1H265.739V24.4866C265.739 32.9612 258.704 39.8619 250.092 39.8619Z" fill="#DAEBFF"/>
<path d="M177.194 33.5665C184.496 33.5665 190.415 27.6584 190.415 20.3704C190.415 13.0824 184.496 7.17431 177.194 7.17431C169.892 7.17431 163.973 13.0824 163.973 20.3704C163.973 27.6584 169.892 33.5665 177.194 33.5665Z" fill="#0064B7"/>
<mask id="mask0_3375_6173" style="mask-type:alpha" maskUnits="userSpaceOnUse" x="163" y="7" width="28" height="27">
<path d="M177.194 33.5665C184.496 33.5665 190.415 27.6584 190.415 20.3704C190.415 13.0824 184.496 7.17431 177.194 7.17431C169.892 7.17431 163.973 13.0824 163.973 20.3704C163.973 27.6584 169.892 33.5665 177.194 33.5665Z" fill="#0064B7"/>
</mask>
<g mask="url(#mask0_3375_6173)">
<path d="M175.981 23.3971C175.981 23.3971 175.981 25.092 175.253 25.8184C174.525 26.5448 173.555 27.7554 173.555 27.7554C173.555 27.7554 175.253 30.4189 178.649 30.0557C182.045 29.6925 182.652 27.2712 182.652 27.2712C182.652 27.2712 179.377 26.908 179.013 23.7603C178.649 20.7337 178.164 20.7337 178.164 20.7337L175.981 23.3971Z" fill="#FFB07E"/>
<path d="M173.918 26.5448C173.918 26.5448 171.614 26.3026 170.279 26.6659C169.067 27.0291 168.581 26.7869 168.945 27.7555C169.309 28.724 171.007 33.2034 170.158 35.9879C169.309 38.7724 168.218 53.058 168.218 53.058C168.218 53.058 176.829 53.4213 180.225 53.5423C183.622 53.6634 186.048 53.058 186.048 53.058C186.048 53.058 186.775 46.8838 186.048 44.2203C185.32 41.5569 184.349 36.9564 184.349 36.9564C184.349 36.9564 183.743 30.661 184.592 29.2083C185.441 27.7554 186.048 27.6344 184.956 27.1501C183.865 26.7869 182.651 26.4238 181.802 26.4238C180.953 26.4238 180.468 26.4238 179.983 26.908C179.498 27.3922 178.406 28.4818 177.072 28.2397C175.617 27.9976 174.525 27.0291 174.525 27.0291C174.525 27.0291 174.282 26.5448 173.918 26.5448Z" fill="#F7A600"/>
<path d="M169.673 27.0291C169.673 27.0291 168.824 26.6659 167.733 27.6344C166.398 28.724 165.549 31.1453 165.064 32.5981C164.579 34.0509 164.336 35.5037 164.336 35.5037C164.336 35.5037 166.035 36.3511 167.733 36.4721C169.431 36.5933 170.643 36.5933 170.643 36.5933C170.643 36.5933 171.371 32.1138 171.25 30.1768C170.886 28.2397 170.644 27.5134 169.673 27.0291Z" fill="#070707"/>
<path d="M184.108 28.724C184.108 28.724 184.835 26.7869 186.291 27.7554C187.747 28.724 188.959 31.8717 189.324 32.8402C189.687 33.8087 190.173 35.8668 190.173 35.8668C190.173 35.8668 188.353 36.7143 186.776 36.8353C185.2 36.9564 184.108 37.0775 184.108 37.0775C184.108 37.0775 183.501 33.0823 183.623 31.3874C183.744 29.8136 184.108 28.724 184.108 28.724Z" fill="#070707"/>
<path d="M182.531 20.1284C182.652 20.4915 182.045 21.46 181.803 21.8232C181.925 21.2179 182.045 20.4915 182.045 19.6441C182.045 19.6441 182.409 19.7651 182.531 20.1284Z" fill="#FFBF99"/>
<path d="M182.167 15.5279C182.045 12.2591 177.679 12.2591 177.679 12.2591C177.679 12.2591 173.312 12.2591 173.191 15.5279C173.069 16.9807 173.191 18.4335 173.312 19.5231C173.434 20.4915 173.555 21.218 173.555 21.7022C173.676 22.0654 173.676 22.3075 173.797 22.5496C173.919 22.7918 174.04 23.155 174.283 23.3971C174.768 24.0024 175.374 24.7288 175.981 24.971C176.344 25.2131 177.315 25.3342 177.679 25.3342C178.164 25.3342 179.013 25.2131 179.377 24.971C179.862 24.7288 180.468 24.0024 181.075 23.3971C181.318 23.0339 181.56 22.7918 181.56 22.5496C181.682 22.4286 181.682 22.1865 181.803 21.7022C181.924 21.0969 182.045 20.3705 182.045 19.5231C182.167 18.4335 182.288 16.9807 182.167 15.5279Z" fill="#FFBF99"/>
<path d="M173.312 19.6441C173.434 20.6126 173.555 21.339 173.555 21.8232C173.312 21.46 172.706 20.4915 172.828 20.1284C172.948 19.7651 173.312 19.6441 173.312 19.6441Z" fill="#FFBF99"/>
<path d="M182.894 15.5279C182.773 14.6804 182.409 13.5908 181.924 12.8644C181.682 12.6223 180.711 11.4116 181.439 11.1695C181.075 10.8063 180.59 11.2906 180.468 11.6538C180.468 11.7748 180.226 12.1381 180.226 12.1381C180.105 11.2906 180.226 10.6853 179.376 10.201C178.043 9.35356 176.587 11.2906 175.252 11.2906C174.646 11.2906 173.434 11.5328 173.312 10.6853L173.069 11.0485C172.948 11.1695 172.948 11.4116 172.948 11.5328C172.948 11.7749 173.191 12.3802 173.555 12.3802C173.069 12.3802 172.827 12.3802 172.585 11.8959C172.463 12.1381 172.706 12.2591 172.827 12.5012C172.585 12.5012 172.099 12.1381 172.099 11.8959C171.857 12.1381 171.977 12.6223 172.22 12.8644C172.342 12.9855 172.948 13.5908 172.948 13.4697C172.827 14.3172 172.463 15.1647 172.22 16.0121C172.099 16.4964 171.977 16.9807 172.099 17.4649C172.22 17.9492 172.342 18.5545 172.463 19.1598C172.706 20.0073 173.069 20.3705 173.069 20.6127C173.069 20.3705 173.312 20.0073 173.312 19.7652C173.554 18.7966 173.312 17.8281 173.555 16.9807C173.919 15.6489 175.01 15.4068 176.223 15.6489C176.951 15.7701 177.921 15.6489 178.527 15.2858C178.892 15.0436 179.256 14.8015 179.498 14.5593C179.619 14.4383 179.741 14.1962 179.862 14.0751C179.984 14.4383 179.862 14.8015 180.105 15.0436C181.196 16.3754 181.317 17.9492 181.56 19.6441C181.56 19.7651 181.802 20.6127 181.802 20.6127C182.288 20.0073 182.288 19.0388 182.531 18.3123C183.016 17.3439 183.016 16.3754 182.894 15.5279Z" fill="#52331D"/>
<path d="M182.046 22.7918C181.925 22.1865 181.925 21.218 181.925 20.6127C181.803 21.0969 181.439 21.7022 181.076 21.9443C180.833 22.1865 180.348 22.4286 179.984 22.3076C179.862 22.1865 179.741 22.0654 179.499 21.9443C179.135 21.7022 178.65 21.4601 178.164 21.4601C177.922 21.4601 177.558 21.7022 177.558 21.8233H177.436C177.436 21.5811 176.952 21.4601 176.83 21.4601C176.345 21.339 175.981 21.7022 175.496 21.9443C175.375 22.0654 175.253 22.1865 175.01 22.3076C174.647 22.4286 174.161 22.1865 173.919 21.9443C173.555 21.7022 173.069 21.0969 173.069 20.6127C173.069 21.218 173.069 22.1865 172.949 22.7918C172.828 22.7918 172.706 22.6707 172.585 22.6707C172.585 22.9129 172.706 23.0339 172.949 23.0339C173.069 23.8814 174.768 26.1816 174.889 26.3026C175.01 26.5448 175.981 27.1501 176.344 27.3922C176.709 27.6344 177.073 27.6344 177.436 27.6344C177.801 27.6344 178.164 27.6344 178.528 27.3922C178.892 27.1501 179.862 26.5448 179.984 26.3026C179.984 26.1816 181.803 23.8814 181.925 23.0339C182.167 22.9129 182.288 22.7918 182.288 22.6707C182.288 22.6707 182.167 22.7918 182.046 22.7918ZM180.348 23.2761C180.105 23.2761 179.984 23.1549 179.741 23.0339C179.377 23.1549 178.892 23.3971 178.528 23.2761C178.285 23.0339 178.043 23.2761 177.679 23.2761C178.043 23.3971 178.043 23.3971 177.679 23.2761H177.558C177.193 23.3971 177.193 23.3971 177.558 23.2761C177.193 23.2761 176.952 23.0339 176.709 23.2761C176.345 23.3971 175.86 23.2761 175.496 23.0339C175.253 23.1549 175.132 23.2761 174.889 23.2761C175.132 23.2761 175.375 23.1549 175.496 23.0339C175.617 22.9129 175.86 22.7918 175.981 22.7918C176.345 22.6707 176.709 22.4286 177.073 22.4286C177.315 22.4286 177.436 22.4286 177.558 22.4286H177.679C177.801 22.5496 178.043 22.4286 178.164 22.4286C178.528 22.4286 178.892 22.6707 179.256 22.7918C179.377 22.9129 179.62 23.0339 179.741 23.0339C179.984 23.0339 180.105 23.1549 180.348 23.2761Z" fill="#52331D"/>
<path d="M182.046 22.7918C181.682 22.9129 181.439 22.7918 181.076 22.6707C180.711 22.5496 180.348 22.4286 180.105 22.3076C179.984 22.3076 179.984 22.1865 179.984 22.1865C179.862 22.0654 179.741 21.9443 179.499 21.8233C179.135 21.5811 178.65 21.339 178.164 21.339C177.922 21.339 177.558 21.5811 177.558 21.7022H177.436C177.436 21.4601 176.952 21.339 176.83 21.339C176.345 21.218 175.981 21.5811 175.496 21.8233C175.375 21.9443 175.253 22.0654 175.01 22.1865C174.889 22.1865 174.889 22.3076 174.889 22.3076C174.647 22.5496 174.283 22.5496 173.919 22.6707C173.555 22.7918 173.312 22.7918 172.949 22.7918C172.828 22.7918 172.706 22.6707 172.585 22.6707C172.585 22.9129 172.706 23.0339 172.949 23.0339C173.069 23.1549 173.312 23.155 173.434 23.155C173.798 23.2761 174.283 23.2761 174.768 23.2761C175.01 23.2761 175.253 23.1549 175.375 23.0339C175.496 22.9129 175.738 22.7918 175.86 22.7918C176.224 22.6707 176.587 22.4286 176.952 22.4286C177.193 22.4286 177.315 22.4286 177.436 22.4286H177.558C177.679 22.5496 177.922 22.4286 178.043 22.4286C178.407 22.4286 178.771 22.6707 179.135 22.7918C179.256 22.9129 179.499 23.0339 179.62 23.0339C179.862 23.1549 180.105 23.2761 180.227 23.2761C180.711 23.3971 181.076 23.2761 181.56 23.155C181.682 23.155 181.803 23.0339 182.046 23.0339C182.288 22.9129 182.409 22.7918 182.409 22.6707C182.288 22.6707 182.167 22.6707 182.046 22.7918Z" fill="#6B4732"/>
</g>
<path opacity="0.2" d="M253.852 14.9937H199.755C198.056 14.9937 196.601 13.8694 196.601 12.5577V11.9955C196.601 10.6837 198.056 9.55932 199.755 9.55932H253.852C255.55 9.55932 257.005 10.6837 257.005 11.9955V12.5577C257.005 13.9631 255.671 14.9937 253.852 14.9937Z" fill="#0064B7"/>
<path opacity="0.2" d="M253.852 22.996H199.755C198.056 22.996 196.601 21.8716 196.601 20.5598V19.9977C196.601 18.6859 198.056 17.5615 199.755 17.5615H253.852C255.55 17.5615 257.005 18.6859 257.005 19.9977V20.5598C257.005 21.9653 255.671 22.996 253.852 22.996Z" fill="#0064B7"/>
<path opacity="0.2" d="M253.852 30.9982H199.755C198.056 30.9982 196.601 29.8738 196.601 28.562V27.9999C196.601 26.6881 198.056 25.5638 199.755 25.5638H253.852C255.55 25.5638 257.005 26.6881 257.005 27.9999V28.562C257.005 29.8738 255.671 30.9982 253.852 30.9982Z" fill="#0064B7"/>
<path d="M44.7056 115.695L51.9621 117.397L50.2564 124.64L43 122.938L44.7056 115.695Z" fill="#DE051F"/>
<path d="M380.021 212.106L384.856 216.539L389.298 211.713L384.462 207.28L380.021 212.106Z" fill="#FCBE42"/>
<path d="M365.441 69.1656L370.277 73.5982L374.718 68.7716L369.883 64.339L365.441 69.1656Z" fill="#2440AB"/>
<path d="M365.663 168.132C365.529 167.998 365.529 167.998 365.396 167.998L363.662 168.132C363.529 168.132 363.263 167.998 363.263 167.732C363.129 166.934 362.729 166.135 362.33 165.47C362.196 165.336 362.196 165.071 362.463 164.938L363.796 163.873C363.929 163.74 363.929 163.74 363.929 163.607C363.929 163.474 363.929 163.473 363.796 163.34L361.795 161.343C361.662 161.211 361.662 161.211 361.53 161.211C361.396 161.211 361.396 161.211 361.262 161.343L360.195 162.674C360.062 162.808 359.796 162.808 359.662 162.808C358.862 162.408 358.195 162.009 357.395 161.877C357.262 161.877 356.996 161.61 356.996 161.477L357.129 159.746C357.129 159.614 357.129 159.614 356.996 159.48C356.862 159.347 356.862 159.347 356.728 159.347H353.928C353.794 159.347 353.794 159.347 353.661 159.48C353.529 159.614 353.529 159.614 353.529 159.746L353.661 161.477C353.661 161.61 353.528 161.877 353.261 161.877C352.461 162.009 351.662 162.408 350.994 162.808C350.862 162.941 350.594 162.941 350.461 162.674L349.394 161.343C349.26 161.211 349.26 161.211 349.128 161.211C348.994 161.211 348.994 161.211 348.861 161.343L346.86 163.34C346.727 163.473 346.727 163.474 346.727 163.607C346.727 163.74 346.727 163.74 346.86 163.873L348.194 164.938C348.327 165.071 348.327 165.336 348.327 165.47C347.928 166.269 347.527 166.934 347.394 167.732C347.394 167.866 347.128 168.132 346.994 168.132L345.26 167.998C345.127 167.998 345.127 167.998 344.994 168.132C344.86 168.265 344.86 168.265 344.86 168.398V171.194C344.86 171.326 344.86 171.326 344.994 171.459C345.127 171.592 345.127 171.592 345.26 171.592L346.994 171.459C347.128 171.459 347.394 171.592 347.394 171.859C347.527 172.657 347.928 173.456 348.327 174.121C348.461 174.254 348.46 174.521 348.194 174.653L346.86 175.718C346.727 175.852 346.727 175.852 346.727 175.984C346.727 176.118 346.727 176.118 346.86 176.251L348.861 178.247C348.994 178.381 348.994 178.38 349.128 178.38C349.26 178.38 349.26 178.381 349.394 178.247L350.461 176.916C350.594 176.784 350.862 176.783 350.994 176.783C351.795 177.183 352.461 177.581 353.261 177.715C353.395 177.715 353.661 177.981 353.661 178.114L353.529 179.844C353.529 179.978 353.529 179.977 353.661 180.111C353.794 180.243 353.794 180.244 353.928 180.244H356.728C356.862 180.244 356.862 180.243 356.996 180.111C357.129 179.977 357.129 179.978 357.129 179.844L356.996 178.114C356.996 177.981 357.129 177.715 357.395 177.715C358.195 177.581 358.995 177.183 359.662 176.783C359.796 176.65 360.062 176.65 360.195 176.916L361.262 178.247C361.396 178.381 361.396 178.38 361.53 178.38C361.662 178.38 361.662 178.381 361.795 178.247L363.796 176.251C363.929 176.118 363.929 176.118 363.929 175.984C363.929 175.852 363.929 175.852 363.796 175.718L362.463 174.653C362.329 174.521 362.33 174.254 362.33 174.121C362.729 173.322 363.129 172.657 363.263 171.859C363.263 171.726 363.529 171.459 363.662 171.459L365.396 171.592C365.529 171.592 365.529 171.592 365.663 171.459C365.796 171.326 365.796 171.326 365.796 171.194V168.398C365.796 168.265 365.796 168.132 365.663 168.132ZM365.13 170.66L363.796 170.528C363.263 170.395 362.729 170.794 362.463 171.459C362.329 172.257 362.062 172.923 361.662 173.589C361.396 174.122 361.529 174.653 361.929 175.053L362.996 175.852L361.662 177.183L360.862 176.118C360.462 175.718 359.796 175.585 359.395 175.852C358.729 176.251 358.062 176.517 357.261 176.65C356.728 176.783 356.328 177.315 356.328 177.981L356.461 179.312H354.462L354.595 177.981C354.728 177.449 354.329 176.916 353.661 176.65C352.861 176.517 352.194 176.251 351.528 175.852C350.994 175.585 350.461 175.718 350.061 176.118L349.26 177.183L347.927 175.852L348.995 175.053C349.394 174.653 349.527 173.988 349.26 173.589C348.861 172.923 348.594 172.257 348.46 171.459C348.327 170.927 347.794 170.528 347.127 170.528L345.66 170.66V168.664L346.994 168.797C347.527 168.93 348.061 168.532 348.327 167.866C348.461 167.067 348.727 166.401 349.128 165.736C349.394 165.204 349.26 164.671 348.861 164.272L347.794 163.473L349.128 162.142L349.928 163.208C350.327 163.607 350.994 163.739 351.394 163.473C352.061 163.074 352.728 162.808 353.529 162.674C354.061 162.542 354.462 162.009 354.462 161.343L354.329 159.88H356.328L356.195 161.211C356.062 161.743 356.461 162.276 357.129 162.542C357.929 162.675 358.595 162.941 359.262 163.34C359.796 163.607 360.329 163.473 360.729 163.074L361.53 162.009L362.862 163.34L361.795 164.139C361.396 164.538 361.262 165.204 361.53 165.603C361.929 166.269 362.196 166.934 362.33 167.732C362.463 168.265 362.996 168.664 363.662 168.664L364.996 168.532L365.13 170.66Z" fill="#EE384E"/>
<path d="M355.395 164.938C352.728 164.938 350.595 167.201 350.595 169.729C350.595 172.391 352.861 174.521 355.395 174.521C357.929 174.521 360.196 172.258 360.196 169.729C360.329 167.067 358.062 164.938 355.395 164.938ZM355.395 173.856C353.128 173.856 351.261 171.992 351.261 169.729C351.261 167.467 353.128 165.603 355.395 165.603C357.662 165.603 359.529 167.467 359.529 169.729C359.663 171.992 357.796 173.856 355.395 173.856Z" fill="#EE384E"/>
<path d="M209.576 277.659H202.777V277.794H209.576V277.659Z" fill="#EBEBEB"/>
<path d="M249.828 278.744H235.414V278.88H249.828V278.744Z" fill="#EBEBEB"/>
<path d="M274.712 278.744H255.811V278.88H274.712V278.744Z" fill="#EBEBEB"/>
<path d="M365.683 281.73H323.529V281.866H365.683V281.73Z" fill="#EBEBEB"/>
<path d="M312.379 170.843C312.243 170.843 311.835 170.843 311.699 170.843C306.26 161.885 296.197 155.371 284.639 155.371C273.216 155.371 263.425 161.479 257.714 170.301C255.675 168.807 253.499 167.857 250.779 167.857C244.524 167.857 239.084 173.15 239.084 179.529C239.084 179.937 239.084 180.208 239.084 180.616C229.43 181.158 221.543 189.302 221.543 199.074C221.543 209.253 229.838 217.533 240.036 217.533H312.107C325.162 217.533 335.768 206.811 335.768 193.917C336.04 181.43 325.569 170.843 312.379 170.843Z" fill="#407BFF"/>
<path d="M312.379 170.843C312.243 170.843 311.835 170.843 311.699 170.843C306.26 161.885 296.197 155.371 284.639 155.371C273.216 155.371 263.425 161.479 257.714 170.301C255.675 168.807 253.499 167.857 250.779 167.857C244.524 167.857 239.084 173.15 239.084 179.529C239.084 179.937 239.084 180.208 239.084 180.616C229.43 181.158 221.543 189.302 221.543 199.074C221.543 209.253 229.838 217.533 240.036 217.533H312.107C325.162 217.533 335.768 206.811 335.768 193.917C336.04 181.43 325.569 170.843 312.379 170.843Z" fill="#023EA1"/>
<path d="M273.76 192.423C273.76 192.423 277.295 243.727 277.976 252.685C278.519 261.643 280.559 292.453 280.559 292.453H289.534L295.653 192.017L273.76 192.423Z" fill="#DE051F"/>
<path d="M307.754 192.967C307.754 192.967 306.667 218.754 306.259 225.405C305.715 232.055 311.018 254.449 313.738 264.494C316.458 274.537 320.673 285.395 320.673 285.395L313.738 289.466C313.738 289.466 298.236 262.321 292.932 246.035C287.494 229.883 283.414 205.861 284.094 192.017L307.754 192.967Z" fill="#EE384E"/>
<path d="M269.408 156.05L262.473 165.007C262.473 165.007 261.929 165.686 260.569 165.414C259.209 165.007 246.155 160.529 246.155 160.529C246.155 160.529 244.252 159.714 243.708 158.085C243.163 156.592 243.028 156.185 242.62 155.913C242.212 155.507 241.94 155.507 242.076 154.557C242.483 153.471 242.483 153.199 242.483 153.199C242.483 153.199 242.892 152.521 242.076 152.521C241.26 152.521 240.852 152.657 240.58 153.335C240.172 154.013 240.444 155.778 240.444 155.778H237.86C237.86 155.778 236.093 155.778 236.093 157.678C236.093 159.579 236.093 162.564 236.093 162.564C236.093 162.564 235.685 163.65 237.18 163.65C238.677 163.65 239.9 163.65 239.9 163.65C239.9 163.65 240.988 163.514 242.756 164.872C244.524 166.228 257.714 173.694 257.714 173.694C257.714 173.694 262.338 176.408 265.192 173.558C268.048 170.707 274.711 163.514 274.711 163.514L275.119 161.343L269.408 156.05Z" fill="#FFBF99"/>
<path d="M291.438 131.619C291.438 131.619 292.254 135.69 293.885 139.763C295.653 143.835 296.333 145.327 296.333 145.327C296.333 145.327 291.438 150.892 286.678 150.213C281.783 149.399 281.783 146.141 281.783 146.141C281.783 146.141 286.406 142.612 286.406 137.455C286.406 132.297 286.406 132.569 286.406 132.569L291.438 131.619Z" fill="#FFBF99"/>
<path d="M280.831 145.599C280.831 145.599 276.752 148.041 275.256 149.128C273.488 150.484 268.593 156.05 268.593 156.05L275.392 162.7L280.151 157.271L280.831 145.599Z" fill="#0054A3"/>
<path d="M294.429 143.698C294.429 143.698 291.982 147.091 288.854 147.77C285.455 148.585 283.959 146.006 283.959 146.006L283.143 144.785C283.143 144.785 282.327 144.106 281.239 144.92C280.152 145.735 278.383 147.77 276.616 151.163C274.848 154.557 274.44 159.306 274.032 170.165C273.624 181.023 274.032 192.967 274.032 192.967H307.892L308.299 176C308.299 176 304.764 153.471 301.364 148.856C297.829 144.241 296.741 143.291 296.741 143.291C296.741 143.291 295.789 142.341 294.429 143.698Z" fill="#0064E1"/>
<path d="M281.239 120.625C281.239 120.625 278.792 124.019 278.792 129.583C278.792 135.148 279.608 139.219 282.191 139.219C284.775 139.219 289.671 137.455 290.35 135.826C291.167 134.062 292.798 134.062 292.798 130.941C292.798 127.683 288.719 120.219 285.319 120.219C282.328 120.625 281.239 120.625 281.239 120.625Z" fill="#FFBF99"/>
<path d="M278.927 120.625C278.927 120.625 276.48 113.975 278.112 113.161C279.607 112.347 283.007 113.975 283.687 114.925C284.502 115.739 286.134 115.739 287.086 115.739C287.086 115.739 295.245 115.739 296.741 117.504C298.509 119.268 298.509 119.946 298.509 120.896C298.509 121.711 298.509 124.968 299.324 126.462C299.733 127.14 300.141 130.533 298.509 133.926C296.741 137.184 295.109 137.998 294.429 137.998C293.613 137.998 292.934 137.998 292.662 137.184C292.662 136.369 292.254 135.012 291.846 133.79C291.437 132.705 291.03 130.397 291.03 130.397C291.03 130.397 290.214 126.326 288.582 124.833C287.086 123.069 286.814 123.069 283.687 122.39C280.559 121.44 279.743 122.933 278.927 120.625Z" fill="#1A1155"/>
<path d="M290.078 126.733C288.854 128.091 290.486 130.669 290.486 130.669C290.486 130.669 292.934 131.483 292.934 128.904C292.662 126.326 291.302 124.969 290.078 126.733Z" fill="#EEBD98"/>
<path d="M306.395 161.207C306.395 161.207 309.251 172.879 308.979 180.344C308.435 187.809 306.26 194.052 304.763 198.667C302.996 202.874 302.18 204.232 302.044 206.946C302.044 209.796 300.684 213.054 299.188 214.547C297.421 216.311 296.333 217.125 296.333 217.125C296.333 217.125 294.293 217.939 294.565 216.311C294.565 216.311 293.205 216.311 293.749 215.497C293.749 215.497 291.981 215.497 293.205 214.139C294.565 212.782 296.741 211.425 296.741 211.425C296.741 211.425 298.1 209.253 296.197 210.339C294.293 211.425 292.661 211.425 294.293 209.661C296.061 207.896 297.828 204.91 299.732 199.481C301.228 193.917 303.132 183.058 300.956 174.508C298.916 166.228 296.197 163.514 296.197 163.514L306.395 161.207Z" fill="#FFBF99"/>
<path d="M313.738 288.516C313.738 288.516 311.97 293.131 310.339 295.303C308.571 297.474 307.075 298.831 307.075 298.831C307.075 298.831 305.035 302.225 307.483 301.275C309.931 300.189 322.985 291.638 322.985 291.638C322.985 291.638 324.888 290.552 324.073 289.059C323.257 287.566 321.217 284.309 321.217 284.309L313.738 288.516Z" fill="#1A1155"/>
<path d="M289.398 298.56C289.398 298.56 289.942 299.917 286.951 299.917C284.231 299.917 269.137 299.917 269.137 299.917C269.137 299.917 266.281 299.238 269 298.017C271.721 296.659 279.879 293.131 279.879 293.131C279.879 293.131 280.559 292.995 280.559 291.366H289.534L289.398 298.56Z" fill="#1A1155"/>
<path d="M293.477 153.199C293.477 153.199 292.797 147.634 296.876 147.091C300.956 146.549 303.54 151.842 304.9 155.235C306.26 158.764 306.939 161.343 306.939 161.343C306.939 161.343 298.237 164.872 296.061 164.872C296.061 164.872 294.021 159.171 293.477 153.199Z" fill="#0054A3"/>
<path d="M141.994 178.987C142.402 178.987 142.674 178.987 143.081 178.987C151.648 164.872 167.015 155.371 184.556 155.371C201.962 155.371 217.056 164.736 225.487 178.308C228.342 176.137 232.286 174.779 236.366 174.779C246.428 174.779 254.179 182.922 254.179 192.559C254.179 193.102 254.179 193.781 254.179 194.323C269.137 195.138 281.24 207.761 281.24 222.826C281.24 238.57 268.457 251.328 252.683 251.328H142.129C122.004 251.328 105.687 235.177 105.687 214.954C105.822 195.138 122.004 178.987 141.994 178.987Z" fill="#EE384E"/>
<path opacity="0.2" d="M237.725 151.707L249.284 217.397C249.691 219.568 248.196 221.605 246.02 222.011L204.817 228.933C202.641 229.34 200.602 227.848 200.194 225.676L188.636 159.985L237.725 151.707Z" fill="black"/>
<path d="M255.675 208.982L240.309 148.856L225.215 143.97L190.131 152.792C188.636 153.199 187.548 154.828 188.091 156.321L204.817 221.876C205.225 223.369 206.857 224.455 208.353 223.911L253.771 212.375C254.995 212.104 255.946 210.611 255.675 208.982Z" fill="white"/>
<path d="M207.537 224.861C205.769 224.861 204.681 223.776 204.001 222.147L187.276 156.592C186.867 155.507 187.276 154.692 187.684 153.878C188.227 153.063 189.043 152.521 189.859 152.113L224.943 143.291C225.078 143.291 225.35 143.291 225.35 143.291L240.445 148.178C240.58 148.178 240.852 148.584 240.989 148.72L256.491 208.846C256.898 209.932 256.491 210.746 256.083 211.561C255.539 212.375 254.722 212.918 253.907 213.325L208.489 224.861C208.217 224.861 207.809 224.861 207.537 224.861ZM225.215 144.512L190.403 153.335C189.723 153.471 189.316 153.878 189.043 154.421C188.636 154.963 188.636 155.507 188.636 156.185L205.361 221.74C205.497 222.419 205.905 222.826 206.449 223.097C206.993 223.505 207.537 223.505 208.217 223.505L253.635 211.968C254.315 211.832 254.722 211.425 254.994 210.882C255.402 210.339 255.402 209.796 255.402 209.117L240.309 149.263L225.215 144.512Z" fill="#3864B2"/>
<path d="M240.444 148.992L225.351 143.97L232.829 151.978C233.918 153.199 235.685 153.199 236.91 152.113L240.444 148.992Z" fill="#3864B2"/>
<path d="M234.869 153.335C233.782 153.335 232.965 152.928 232.15 152.113L224.67 144.106C224.535 143.97 224.263 143.562 224.67 143.291C224.806 142.884 225.215 142.884 225.487 142.884L240.58 147.77C240.717 147.77 240.989 148.178 241.124 148.313C241.124 148.72 241.124 148.856 240.989 148.992L237.453 152.249C236.501 153.199 235.685 153.335 234.869 153.335ZM227.662 145.191L233.237 151.299C234.054 152.113 235.413 152.384 236.093 151.434L238.813 148.992L227.662 145.191Z" fill="#3864B2"/>
<path d="M235.4 153.606L215.788 158.605C215.247 158.743 214.92 159.293 215.058 159.833C215.196 160.374 215.747 160.7 216.289 160.562L235.901 155.564C236.442 155.426 236.769 154.876 236.631 154.335C236.493 153.795 235.942 153.468 235.4 153.606Z" fill="#F1F1F1"/>
<path d="M240.742 174.486L202.825 184.149C202.284 184.287 201.957 184.837 202.095 185.378C202.233 185.918 202.785 186.244 203.326 186.106L241.243 176.443C241.784 176.305 242.111 175.755 241.973 175.214C241.834 174.674 241.283 174.348 240.742 174.486Z" fill="#D9D9D9"/>
<path d="M238.07 164.046L218.458 169.044C217.917 169.182 217.59 169.732 217.728 170.273C217.866 170.814 218.417 171.14 218.959 171.002L238.571 166.004C239.112 165.866 239.439 165.315 239.301 164.775C239.163 164.234 238.612 163.908 238.07 164.046Z" fill="#F1F1F1"/>
<path d="M243.413 184.925L205.496 194.589C204.955 194.727 204.628 195.277 204.766 195.817C204.904 196.358 205.455 196.684 205.997 196.546L243.913 186.883C244.455 186.745 244.782 186.195 244.644 185.654C244.505 185.114 243.954 184.787 243.413 184.925Z" fill="#D9D9D9"/>
<path d="M246.084 195.365L208.167 205.029C207.626 205.167 207.299 205.717 207.437 206.257C207.575 206.798 208.126 207.124 208.668 206.986L246.584 197.323C247.126 197.185 247.453 196.635 247.315 196.094C247.176 195.554 246.625 195.227 246.084 195.365Z" fill="#D9D9D9"/>
<path d="M236.735 158.826L217.123 163.824C216.582 163.962 216.255 164.512 216.393 165.053C216.531 165.593 217.082 165.92 217.624 165.781L237.236 160.783C237.777 160.645 238.104 160.095 237.966 159.555C237.828 159.014 237.277 158.688 236.735 158.826Z" fill="#F1F1F1"/>
<path d="M242.077 179.706L204.16 189.369C203.619 189.507 203.292 190.057 203.43 190.598C203.568 191.138 204.119 191.465 204.661 191.327L242.578 181.663C243.119 181.525 243.446 180.975 243.308 180.435C243.169 179.894 242.618 179.568 242.077 179.706Z" fill="#D9D9D9"/>
<path d="M239.407 169.266L219.795 174.264C219.253 174.402 218.927 174.952 219.065 175.492C219.203 176.033 219.754 176.359 220.296 176.221L239.908 171.223C240.449 171.085 240.776 170.535 240.638 169.994C240.5 169.454 239.949 169.128 239.407 169.266Z" fill="#F1F1F1"/>
<path d="M244.749 190.146L206.832 199.809C206.291 199.947 205.964 200.497 206.102 201.038C206.24 201.578 206.791 201.905 207.333 201.767L245.249 192.103C245.791 191.965 246.118 191.415 245.98 190.875C245.841 190.334 245.29 190.008 244.749 190.146Z" fill="#D9D9D9"/>
<path d="M247.419 200.586L209.502 210.249C208.961 210.387 208.634 210.937 208.772 211.478C208.91 212.018 209.461 212.344 210.003 212.206L247.919 202.543C248.461 202.405 248.788 201.855 248.65 201.314C248.511 200.774 247.96 200.448 247.419 200.586Z" fill="#D9D9D9"/>
<path d="M204.348 161.52L203.694 161.687C199.722 162.699 197.325 166.733 198.339 170.697L199.174 173.959C200.188 177.923 204.229 180.316 208.201 179.304L208.855 179.137C212.826 178.125 215.224 174.091 214.21 170.127L213.375 166.865C212.361 162.901 208.319 160.508 204.348 161.52Z" fill="#F1F1F1"/>
<path d="M124.881 285.075H101.696V285.188H124.881V285.075Z" fill="#EBEBEB"/>
<path d="M146.143 288.687H120.244V288.8H146.143V288.687Z" fill="#EBEBEB"/>
<path d="M105.865 254.187C105.865 254.187 108.917 252.904 108.676 249.376C108.435 245.849 106.668 243.283 110.363 244.326C114.138 245.368 115.423 245.849 118.074 245.208C120.805 244.647 123.054 243.524 121.849 247.051C120.644 250.579 119.359 253.545 122.17 254.187C124.982 254.748 127.954 252.583 128.355 258.195C128.757 263.727 124.259 269.98 117.03 270.221C109.801 270.461 106.668 267.415 106.668 267.415C106.668 267.415 104.74 264.689 107.712 263.968C110.765 263.326 113.817 262.043 112.291 260.601C110.765 259.158 105.704 259.077 105.704 259.077C105.704 259.077 99.5997 257.875 105.865 254.187Z" fill="#649EEA"/>
<path d="M138.877 255.149C138.395 251.622 138.798 249.056 145.304 248.093C151.89 247.132 155.665 251.06 156.066 255.149C156.468 259.237 150.765 260.68 150.765 260.68C150.765 260.68 146.749 261.803 148.757 265.411C150.765 268.938 151.729 272.386 147.07 272.946C142.411 273.428 137.351 272.225 134.54 270.301C131.729 268.377 128.837 263.567 132.05 261.082C132.05 261.082 132.934 260.44 136.066 260.279C139.199 260.039 138.877 255.149 138.877 255.149Z" fill="#023EA1"/>
<path d="M115.825 254.587C115.825 254.587 121.287 266.934 122.01 275.352" stroke="#023EA1" stroke-width="0.792725" stroke-miterlimit="10"/>
<path d="M146.026 256.592C146.026 256.592 136.388 270.943 134.139 275.753" stroke="#649EEA" stroke-width="0.792725" stroke-miterlimit="10"/>
<path d="M118.637 274.389H140.726C140.726 274.389 143.135 274.55 142.975 277.917C142.814 280.964 138.958 280.322 136.95 280.322C134.942 280.322 118.235 280.322 118.235 280.322C118.235 280.322 115.504 280.804 115.504 277.677C115.424 274.55 116.468 274.389 118.637 274.389Z" fill="#0054A5"/>
<path d="M118.154 280.242L121.528 299.884H136.307L138.878 285.132L118.154 280.242Z" fill="#0054A5"/>
<path d="M118.154 280.242L138.878 285.132L139.681 280.242H118.154Z" fill="#006AD5"/>
<path d="M127.713 275.111C127.713 275.111 128.837 253.305 135.263 239.676" stroke="#FCBE42" stroke-width="0.792725" stroke-miterlimit="10"/>
<path d="M140.564 231.819C140.564 231.819 141.127 238.473 134.62 241.119C134.62 241.119 133.174 235.347 140.564 231.819Z" fill="#FCBE42"/>
<path d="M130.846 253.065C130.846 253.065 133.255 247.372 140.565 248.093C140.565 248.174 140.003 253.786 130.846 253.065Z" fill="#FCBE42"/>
<path d="M128.436 267.415C128.436 267.415 129.64 261.322 137.03 260.68C137.03 260.68 137.512 266.372 128.436 267.415Z" fill="#FCBE42"/>
<path d="M128.195 267.495C128.195 267.495 129.078 261.322 122.331 258.195C122.331 258.195 119.922 263.406 128.195 267.495Z" fill="#FCBE42"/>
<path d="M130.926 253.065C130.926 253.065 132.532 247.051 126.267 243.123C126.267 243.123 123.215 247.933 130.926 253.065Z" fill="#FCBE42"/>
</svg>
