<svg width="445" height="305" viewBox="0 0 445 305" fill="none" xmlns="http://www.w3.org/2000/svg">
<path d="M173.193 147.044C173.193 147.044 184.25 139.402 186.343 146.144C188.584 152.737 191.573 152.438 194.86 151.988C197.998 151.689 203.527 148.392 205.32 155.584C207.262 162.626 205.32 166.971 208.458 169.219C211.895 171.466 221.607 184.652 215.033 187.049C208.309 189.447 200.538 183.903 197.998 180.757C195.458 177.609 189.48 177.609 184.998 178.359C180.515 179.257 174.688 177.46 176.63 171.767C178.573 166.222 175.883 160.679 171.699 159.629C167.515 158.431 165.572 152.138 173.193 147.044Z" fill="#023EA1"/>
<path d="M178.872 153.336L217.125 192.144" stroke="white" stroke-width="1.772" stroke-miterlimit="10" stroke-linecap="round" stroke-linejoin="round"/>
<path d="M197.551 156.483L194.413 168.919L181.413 171.766" stroke="white" stroke-width="1.772" stroke-miterlimit="10" stroke-linecap="round" stroke-linejoin="round"/>
<path d="M190.826 200.385C190.826 200.385 199.941 215.368 212.195 225.556C224.447 235.446 228.781 235.746 228.781 235.746" stroke="white" stroke-width="1.772" stroke-miterlimit="10" stroke-linecap="round" stroke-linejoin="round"/>
<path d="M173.194 180.757C173.194 180.757 176.93 180.906 182.459 181.955L186.643 188.548L186.792 183.004C202.333 187.349 225.793 199.635 225.494 233.948C225.643 233.948 184.849 255.374 173.194 180.757Z" fill="#EBBC4E"/>
<path d="M197.252 186.75L203.528 214.469L173.194 180.757" stroke="white" stroke-width="1.772" stroke-miterlimit="10"/>
<path d="M178.573 203.831L203.527 214.469" stroke="white" stroke-width="1.772" stroke-miterlimit="10"/>
<path d="M363.266 197.238C363.266 197.238 362.518 201.583 360.576 208.176L352.208 212.371L358.483 213.27C351.311 231.25 333.38 257.172 293.035 252.227C292.735 252.078 273.011 200.834 363.266 197.238Z" fill="#FCBE42"/>
<path d="M352.507 224.958L318.736 228.704L363.266 197.238" stroke="white" stroke-width="1.772" stroke-miterlimit="10"/>
<path d="M335.024 200.534L318.736 228.703" stroke="white" stroke-width="1.772" stroke-miterlimit="10"/>
<path d="M337.414 166.372C337.414 166.372 326.356 158.73 324.265 165.473C322.024 172.066 319.035 171.766 315.747 171.316C312.609 171.017 307.081 167.72 305.287 174.913C303.345 181.805 305.287 186.3 302.149 188.547C298.712 190.795 288.999 203.981 295.574 206.378C302.299 208.775 310.069 203.231 312.609 200.084C315.149 197.088 320.977 196.938 325.46 197.837C329.943 198.736 335.771 196.938 333.828 191.245C331.886 185.551 334.575 180.157 338.759 179.107C342.943 177.909 344.885 171.466 337.414 166.372Z" fill="#023EA1"/>
<path d="M331.437 172.815L293.633 211.622" stroke="white" stroke-width="1.772" stroke-miterlimit="10" stroke-linecap="round" stroke-linejoin="round"/>
<path d="M312.909 175.811L316.047 188.398L329.047 190.945" stroke="white" stroke-width="1.772" stroke-miterlimit="10" stroke-linecap="round" stroke-linejoin="round"/>
<path d="M201.734 256.573H313.805L320.081 75.8723H207.861L201.734 256.573Z" fill="#DCE8F4"/>
<path d="M196.354 250.878H308.425L314.402 70.1782H202.332L196.354 250.878Z" fill="#0064B7"/>
<path opacity="0.3" d="M196.354 250.878H308.425L314.402 70.1782H202.332L196.354 250.878Z" fill="#0064B7"/>
<path d="M233.681 144.64C221.704 132.425 222.204 112.457 234.798 100.042C247.392 87.6263 267.311 87.4637 279.287 99.6792C291.264 111.894 290.764 131.861 278.17 144.277C265.576 156.692 245.658 156.855 233.681 144.64Z" fill="#DCE8F4"/>
<path d="M230.573 122.021C230.423 126.516 231.32 130.712 233.263 134.458C237.446 142.549 245.964 148.092 255.677 148.092C265.539 148.092 274.505 142.549 278.987 134.458C281.229 130.712 282.425 126.516 282.574 122.021C282.872 107.487 271.965 95.9499 257.47 95.9499C242.975 96.0997 231.17 107.787 230.573 122.021Z" fill="white"/>
<path d="M232.914 134.717L232.678 134.261L233.108 133.984C239.916 129.584 247.941 127.002 256.424 127.002C264.902 127.002 273.083 129.581 279.457 133.994L279.876 134.284L279.628 134.731C275.047 142.998 265.895 148.655 255.826 148.655C245.897 148.655 237.191 142.988 232.914 134.717Z" fill="#0064E1" stroke="#0064E1" stroke-width="1.33233"/>
<path d="M248.394 121.761C243.996 117.276 244.249 109.878 248.957 105.236C253.665 100.595 261.046 100.468 265.443 104.953C269.84 109.437 269.589 116.836 264.881 121.477C260.173 126.119 252.792 126.245 248.394 121.761Z" fill="#0064E1"/>
<path d="M218.769 185.7H290.195L290.942 171.316H219.068L218.769 185.7Z" fill="white"/>
<path d="M217.872 211.172H289.448L289.747 196.938H218.321L217.872 211.172Z" fill="white"/>
<path d="M229.889 227.294C229.763 230.622 232.426 233.389 235.756 233.389H270.606C273.79 233.389 276.394 230.85 276.475 227.667V227.667C276.559 224.367 273.907 221.646 270.606 221.646H235.756C232.6 221.646 230.009 224.141 229.889 227.294V227.294Z" fill="white"/>
<path d="M131.252 252.808C131.252 252.808 127.815 251.31 128.114 247.715C128.264 243.969 130.356 241.122 126.321 242.47C122.287 243.669 120.792 244.118 117.953 243.369C115.114 242.77 112.723 241.571 113.769 245.317C114.815 249.062 116.459 252.359 113.47 252.959C110.631 253.558 107.194 251.31 106.746 257.303C106.447 263.297 111.079 270.039 118.999 270.19C126.769 270.339 130.207 267.343 130.207 267.343C130.207 267.343 132.149 264.496 129.011 263.747C125.873 262.997 122.436 261.499 124.08 260.15C125.723 258.502 131.103 258.502 131.103 258.502C131.103 258.502 137.976 256.705 131.252 252.808Z" fill="#407BFF"/>
<path d="M95.5396 253.708C96.1373 249.962 95.689 247.115 88.6659 246.066C81.6428 245.167 77.6083 249.213 77.0106 253.708C76.7117 258.052 82.8383 259.701 82.8383 259.701C82.8383 259.701 87.1717 260.899 85.0797 264.795C82.8383 268.541 81.9417 272.437 86.8728 272.886C91.9534 273.486 97.3327 272.137 100.471 270.19C103.609 268.241 106.597 263.147 103.16 260.3C103.16 260.3 102.264 259.551 98.827 259.551C95.2408 259.102 95.5396 253.708 95.5396 253.708Z" fill="#023EA1"/>
<path d="M120.495 253.109C120.495 253.109 114.518 266.294 113.771 275.434" stroke="#E8F7FF" stroke-width="0.886" stroke-miterlimit="10"/>
<path d="M87.7695 255.356C87.7695 255.356 98.08 270.789 100.62 276.033" stroke="#E8F7FF" stroke-width="0.886" stroke-miterlimit="10"/>
<path d="M117.356 274.535H93.5974C93.5974 274.535 91.0571 274.685 91.2065 278.281C91.356 281.427 95.5399 280.828 97.7813 280.828C100.023 280.828 117.805 280.828 117.805 280.828C117.805 280.828 120.644 281.127 120.644 278.13C120.943 274.535 119.598 274.535 117.356 274.535Z" fill="#0054A3"/>
<path d="M117.953 280.828L114.218 301.805H98.5276L95.5391 285.922L117.804 280.828H117.953Z" fill="#0054A3"/>
<path d="M117.804 280.828L95.5391 285.922L94.6426 280.828H117.804Z" fill="#0064E1"/>
<path d="M107.643 275.284C107.643 275.284 106.448 251.91 99.5742 237.226" stroke="#FCBE42" stroke-width="0.886" stroke-miterlimit="10"/>
<path d="M93.5971 228.985C93.5971 228.985 92.9995 236.027 99.8731 238.874C100.172 238.725 101.517 232.582 93.5971 228.985Z" fill="#FCBE42"/>
<path d="M104.206 251.461C104.206 251.461 101.666 245.318 93.7464 246.216C93.5969 246.216 94.4935 252.359 104.206 251.461Z" fill="#FCBE42"/>
<path d="M106.896 266.893C106.896 266.893 105.401 260.3 97.631 259.701C97.631 259.701 97.0333 265.844 106.896 266.893Z" fill="#FCBE42"/>
<path d="M107.194 266.893C107.194 266.893 106.297 260.301 113.47 257.004C113.47 257.154 116.01 262.548 107.194 266.893Z" fill="#FCBE42"/>
<path d="M104.057 251.461C104.057 251.461 102.264 245.167 108.988 240.822C109.137 240.972 112.425 246.067 104.057 251.461Z" fill="#FCBE42"/>
<path d="M315.463 290.635L323.088 292.78L320.95 300.426L313.324 298.283L315.463 290.635Z" fill="#DE051F"/>
<path d="M105.048 136.805L112.673 138.949L110.535 146.596L102.909 144.452L105.048 136.805Z" fill="#2440AB"/>
<path d="M164.125 29.258L154.834 25.9499C154.658 25.8875 154.5 25.9631 154.437 26.1389L153.089 29.9474C153.068 30.006 153.048 30.0646 153.086 30.144L153.802 31.6526C153.839 31.732 153.898 31.7528 153.956 31.7736L161.027 34.291C161.085 34.3119 161.164 34.2741 161.222 34.2949L162.727 33.5769C162.806 33.5391 162.827 33.4805 162.847 33.4219L164.197 29.6134C164.317 29.4584 164.241 29.2996 164.125 29.258ZM162.422 33.1383L161.155 33.7429L154.26 31.2879L153.657 30.0175L154.881 26.5605L163.646 29.6813L162.422 33.1383Z" fill="#003EB0"/>
<path d="M164.257 30.5588L153.669 27.3827C153.493 27.3203 153.335 27.3959 153.331 27.5925C153.29 27.7097 153.365 27.8685 153.541 27.9309L164.129 31.107C164.304 31.1694 164.462 31.0938 164.466 30.8973C164.507 30.7801 164.374 30.6005 164.257 30.5588Z" fill="#003EB0"/>
<path d="M163.675 32.1994L153.087 29.0233C152.911 28.9609 152.753 29.0365 152.749 29.2331C152.708 29.3502 152.783 29.509 152.959 29.5715L163.547 32.7475C163.722 32.8099 163.88 32.7343 163.884 32.5377C163.925 32.4206 163.792 32.241 163.675 32.1994Z" fill="#003EB0"/>
<path d="M166.048 8.961C160.906 7.13009 155.284 9.81299 153.458 14.9692C152.316 18.1918 152.915 21.704 155.039 24.4397L154.437 26.1389C154.376 26.3147 154.451 26.4735 154.626 26.5359L163.917 29.844C164.093 29.9064 164.25 29.8308 164.313 29.655L164.915 27.9558C168.263 27.2345 170.937 24.8873 172.099 21.6061C173.845 16.4877 171.191 10.7918 166.048 8.961ZM164.593 27.3792C164.514 27.417 164.434 27.4548 164.393 27.572L163.832 29.154L155.067 26.0332L155.627 24.4512C155.669 24.334 155.631 24.2546 155.593 24.1752C153.524 21.6569 152.942 18.2827 154.043 15.1773C155.744 10.3726 161.07 7.78228 165.92 9.5091C170.77 11.236 173.295 16.5556 171.573 21.4189C170.415 24.5035 167.841 26.7543 164.593 27.3792Z" fill="#003EB0"/>
<path d="M160.256 33.4896C160.16 33.3893 159.964 33.3855 159.864 33.4819C159.844 33.5405 159.006 34.2322 157.312 33.6288C155.617 33.0254 155.402 31.9593 155.423 31.9007C155.406 31.7627 155.252 31.6417 155.114 31.6587C154.976 31.6757 154.856 31.8306 154.873 31.9686C154.852 32.0272 155.08 33.4279 157.125 34.1561C159.17 34.8843 160.228 33.9413 160.249 33.8827C160.407 33.8071 160.411 33.6106 160.256 33.4896Z" fill="#003EB0"/>
<path d="M151.107 13.8026L145.615 11.8469C145.44 11.7844 145.281 11.86 145.219 12.0358C145.156 12.2116 145.232 12.3704 145.408 12.4328L150.9 14.3885C151.075 14.4509 151.234 14.3753 151.296 14.1996C151.359 14.0238 151.283 13.865 151.107 13.8026Z" fill="#DE051F"/>
<path d="M180.09 24.122L174.598 22.1663C174.422 22.1039 174.264 22.1794 174.201 22.3552C174.139 22.531 174.215 22.6898 174.39 22.7522L179.882 24.7079C180.058 24.7703 180.216 24.6948 180.279 24.519C180.341 24.3432 180.207 24.1636 180.09 24.122Z" fill="#DE051F"/>
<path d="M150.782 20.4826C150.765 20.3446 150.611 20.2236 150.472 20.2405L144.764 21.3091C144.627 21.3261 144.506 21.4811 144.523 21.6191C144.54 21.7571 144.598 21.7779 144.715 21.8195C144.774 21.8403 144.832 21.8611 144.853 21.8025L150.561 20.7339C150.736 20.7963 150.837 20.6999 150.782 20.4826Z" fill="#DE051F"/>
<path d="M180.975 14.9358C180.958 14.7978 180.804 14.6768 180.667 14.6938L174.958 15.7624C174.82 15.7794 174.7 15.9344 174.716 16.0723C174.733 16.2103 174.791 16.2311 174.909 16.2728C174.967 16.2936 175.026 16.3144 175.046 16.2558L180.755 15.1872C180.93 15.2496 181.051 15.0946 180.975 14.9358Z" fill="#DE051F"/>
<path d="M176.888 6.22245C176.791 6.12225 176.596 6.11845 176.496 6.21476L172.069 9.98294C171.969 10.0793 171.965 10.2759 172.061 10.3761C172.12 10.3969 172.157 10.4763 172.157 10.4763C172.274 10.5179 172.353 10.4802 172.433 10.4424L176.86 6.67424C176.98 6.51925 176.964 6.38125 176.888 6.22245Z" fill="#DE051F"/>
<path d="M168.952 0.758104C168.777 0.695617 168.619 0.771211 168.557 0.947004L166.627 6.39618C166.565 6.57197 166.64 6.73077 166.816 6.79317C166.991 6.85557 167.15 6.77998 167.211 6.60427L169.162 1.0965C169.204 0.979304 169.128 0.820507 168.952 0.758104Z" fill="#DE051F"/>
<path d="M160.792 5.96757L159.726 0.243669C159.709 0.105673 159.554 -0.015327 159.417 0.00158437C159.279 0.0185803 159.159 0.173573 159.175 0.311569L160.241 6.03547C160.258 6.17346 160.316 6.19426 160.434 6.23587C160.492 6.25667 160.55 6.27747 160.571 6.21887C160.688 6.26047 160.809 6.10556 160.792 5.96757Z" fill="#DE051F"/>
<path d="M174.858 32.0243L171.099 27.5852C171.003 27.485 170.828 27.4226 170.707 27.5776C170.587 27.7326 170.603 27.8706 170.7 27.9708L174.458 32.4099C174.516 32.4307 174.554 32.5101 174.554 32.5101C174.671 32.5517 174.75 32.5139 174.829 32.4761C174.95 32.3211 174.933 32.1831 174.858 32.0243Z" fill="#DE051F"/>
<path d="M154.915 8.62608L151.157 4.18694C151.061 4.08674 150.865 4.08293 150.765 4.17933C150.665 4.27572 150.661 4.47232 150.757 4.57252L154.515 9.01157C154.574 9.03246 154.553 9.09097 154.611 9.11186C154.728 9.15346 154.808 9.11566 154.887 9.07787C155.008 8.92287 155.011 8.72628 154.915 8.62608Z" fill="#DE051F"/>
<path d="M160.269 27.8848L163.401 19.0372C163.401 19.0372 164.758 14.8355 167.037 15.6469C169.315 16.4584 166.728 20.4198 162.346 18.8593" stroke="#003EB0" stroke-width="0.953098" stroke-miterlimit="10"/>
<path d="M158.223 27.157L161.356 18.3094C161.356 18.3094 162.946 14.1909 160.667 13.3795C158.388 12.5681 157.905 17.2785 162.287 18.8389" stroke="#003EB0" stroke-width="0.953098" stroke-miterlimit="10"/>
<path d="M179.414 185.482C179.414 185.482 175.405 241.584 174.829 251.533C174.244 261.482 172.137 294.996 172.137 294.996H162.289L155.644 184.868L179.414 185.482Z" fill="#DE051F"/>
<path d="M142.361 186.068C142.361 186.068 143.522 214.333 144.042 221.499C144.552 228.666 138.937 253.171 135.735 264.059C132.523 274.958 128.003 287.02 128.003 287.02L135.735 291.487C135.735 291.487 152.432 261.501 158.419 243.808C164.396 226.115 168.851 199.637 168.118 184.719L142.361 186.068Z" fill="#EE384E"/>
<path d="M184.268 145.928L191.777 155.942C191.777 155.942 192.362 156.742 193.754 156.379C195.137 156.016 209.588 150.748 209.588 150.748C209.588 150.748 211.603 149.845 212.141 148.235C212.67 146.625 212.921 146.235 213.236 145.797C213.551 145.359 214.016 145.415 213.746 144.336C213.477 143.266 213.329 142.819 213.329 142.819C213.329 142.819 213.013 142.065 213.644 142.065C214.276 142.065 214.953 142.214 215.306 142.95C215.64 143.684 215.557 145.462 215.557 145.462L218.647 145.583C218.647 145.583 220.541 145.648 220.541 147.631C220.541 149.613 220.541 152.926 220.541 152.926C220.541 152.926 220.81 153.959 219.427 153.959C218.044 153.959 216.586 153.912 216.586 153.912C216.586 153.912 215.427 153.791 213.524 155.178C211.621 156.565 197.141 164.876 197.141 164.876C197.141 164.876 192.139 167.873 188.853 164.727C185.568 161.582 178.356 153.801 178.356 153.801L177.994 151.335L184.268 145.928Z" fill="#FFBF99"/>
<path d="M160.099 119.104C160.099 119.104 159.209 123.591 157.417 128.086C155.626 132.581 154.734 134.368 154.734 134.368C154.734 134.368 160.099 140.65 165.483 139.747C170.848 138.854 170.848 135.262 170.848 135.262C170.848 135.262 165.919 131.222 165.919 125.833C165.919 120.445 165.919 120.454 165.919 120.454L160.099 119.104Z" fill="#FFB48F"/>
<path d="M171.942 134.228C171.942 134.228 176.397 136.714 178.244 138.286C180.101 139.859 185.456 146.039 185.456 146.039L178.124 153.178L173.018 147.37L171.942 134.228Z" fill="#0064B7"/>
<path d="M156.999 132.125C156.999 132.125 159.682 135.718 163.265 136.611C166.847 137.505 168.63 134.815 168.63 134.815L169.613 133.531C169.613 133.531 170.606 132.748 171.702 133.67C172.797 134.573 174.885 136.899 176.695 140.66C178.514 144.41 179.043 149.547 179.424 161.544C179.805 173.541 179.424 186.487 179.424 186.487H142.4L141.963 167.845C141.963 167.845 145.898 143.052 149.769 138.007C153.64 132.963 154.763 131.865 154.763 131.865C154.763 131.865 155.653 130.636 156.999 132.125Z" fill="#0083F9"/>
<path d="M171.301 106.978C171.301 106.978 173.984 110.57 173.984 116.862C173.984 123.144 173.093 127.64 170.401 127.64C167.71 127.64 162.336 125.843 161.444 124.047C160.554 122.251 158.762 122.251 158.762 118.667C158.762 115.085 163.235 106.997 166.828 106.997C170.411 106.997 171.301 106.978 171.301 106.978Z" fill="#FFBF99"/>
<path d="M173.985 106.978C173.985 106.978 176.667 99.8028 174.876 98.8905C173.085 97.9967 169.511 99.7842 168.611 100.686C167.72 101.58 165.929 101.58 165.028 101.58C165.028 101.58 156.072 101.58 154.28 103.376C152.489 105.172 152.489 106.066 152.489 106.969C152.489 107.862 152.479 111.39 151.597 113.251C151.217 114.061 150.707 117.736 152.489 121.339C154.27 124.931 156.072 125.824 156.962 125.824C157.853 125.824 158.66 125.824 158.754 124.931C158.856 123.963 159.209 122.595 159.645 121.339C160.071 120.138 160.536 117.746 160.536 117.746C160.536 117.746 161.426 113.26 163.218 111.464C165.009 109.668 165.009 109.668 168.583 108.774C172.193 107.89 173.094 109.668 173.985 106.978Z" fill="#170856"/>
<path d="M161.909 113.539C163.236 115.066 161.444 117.756 161.444 117.756C161.444 117.756 158.762 118.649 158.762 115.959C158.762 113.269 160.572 112.004 161.909 113.539Z" fill="#FFBF99"/>
<path d="M143.977 151.326C143.977 151.326 140.618 164.29 141.202 172.415C141.786 180.531 144.191 187.567 145.935 192.462C147.681 197.357 148.711 198.529 148.776 201.611C148.841 204.691 150.28 208.34 152.062 210.173C153.844 212.006 155.273 212.918 155.273 212.918C155.273 212.918 157.389 213.905 157.055 211.932C157.055 211.932 158.475 212.043 157.937 210.945C157.937 210.945 159.83 210.982 158.447 209.484C157.064 207.976 154.512 206.524 154.512 206.524C154.512 206.524 153.055 204.189 155.134 205.361C157.213 206.524 159.032 206.571 157.11 204.672C155.18 202.774 152.953 199.451 151.319 193.374C149.685 187.305 147.746 175.309 150.056 166.095C152.368 156.882 155.291 153.81 155.291 153.81L143.977 151.326Z" fill="#FFBF99"/>
<path d="M136.06 290.882C136.06 290.882 137.842 295.898 139.819 298.207C141.796 300.515 143.356 302.199 143.356 302.199C143.356 302.199 145.657 305.894 143.058 304.796C140.468 303.698 126.138 294.046 126.138 294.046C126.138 294.046 124.096 292.985 125.042 291.236C125.989 289.486 128.393 286.098 128.393 286.098L136.06 290.882Z" fill="#170856"/>
<path d="M162.383 302.079C162.383 302.079 161.854 303.54 164.861 303.54C167.868 303.54 184.269 303.54 184.269 303.54C184.269 303.54 187.425 302.906 184.52 301.492C181.596 300.077 172.853 296.132 172.853 296.132C172.853 296.132 172.185 295.955 172.204 294.27H162.271L162.383 302.079Z" fill="#170856"/>
<path d="M158.001 142.688C158.001 142.688 158.632 136.667 154.261 136.09C149.889 135.513 147.114 141.357 145.657 145.155C144.199 148.952 143.466 151.735 143.466 151.735C143.466 151.735 152.868 155.532 155.347 155.532C155.356 155.532 157.444 149.222 158.001 142.688Z" fill="#0064B7"/>
<path d="M305.019 28.6225C300.844 32.281 294.668 33.1304 289.53 30.2906" stroke="#003EB0" stroke-width="1.33233" stroke-miterlimit="10"/>
<path d="M300.132 5.35179C300.986 5.62085 301.833 5.97709 302.647 6.42752C308.368 9.5891 310.917 16.2746 309.093 22.2989" stroke="#003EB0" stroke-width="1.33233" stroke-miterlimit="10"/>
<path d="M284.362 25.2421C282.031 21.2344 281.794 16.1414 284.19 11.7829C286.094 8.31945 289.272 6.01697 292.821 5.13749" stroke="#003EB0" stroke-width="1.33233" stroke-miterlimit="10"/>
<path d="M293.836 26.5817C290.46 25.71 287.826 22.8039 287.462 19.1219" stroke="#003EB0" stroke-width="1.33233" stroke-miterlimit="10"/>
<path d="M304.122 15.7665C304.291 16.3063 304.403 16.8757 304.459 17.4547C304.858 21.5517 302.306 25.2557 298.554 26.4492" stroke="#003EB0" stroke-width="1.33233" stroke-miterlimit="10"/>
<path d="M288.232 14.6465C289.469 12.0112 292.021 10.0735 295.131 9.77294C297.593 9.52984 299.915 10.3671 301.635 11.8961" stroke="#003EB0" stroke-width="1.33233" stroke-miterlimit="10"/>
<path d="M300.544 20.8214C301.941 18.2811 301.019 15.0865 298.486 13.6863C295.952 12.2862 292.766 13.2104 291.369 15.7509C289.973 18.2913 290.895 21.4858 293.429 22.886C295.962 24.2862 299.148 23.3618 300.544 20.8214Z" stroke="#003EB0" stroke-width="1.33233" stroke-miterlimit="10"/>
<path d="M126.907 91.5529L134.039 98.7047L141.171 91.5529L134.039 84.4016L126.907 91.5529Z" fill="#FCBE42"/>
<path d="M354.856 116.657L351.125 111.867L356.96 111.427L360.093 107.292L361.906 111.857L367.195 114.279L362.649 117.298L362.963 122.912L357.938 119.544L352.559 121.767L354.856 116.657Z" fill="#003EB0"/>
<path d="M230.175 38.1655L226.438 33.3864L232.284 32.951L235.413 28.8009L237.221 33.3764L242.519 35.8031L237.973 38.8221L238.277 44.4311L233.252 41.0625L227.873 43.2866L230.175 38.1655Z" stroke="#DE051F" stroke-width="1.33233" stroke-miterlimit="10"/>
</svg>
