<svg width="445" height="305" viewBox="0 0 445 305" fill="none" xmlns="http://www.w3.org/2000/svg">
<path d="M113.18 141.922C113.895 141.922 114.325 141.207 114.325 140.778V135.917C114.325 135.202 113.609 134.773 113.18 134.773C112.751 134.773 112.035 135.488 112.035 135.917V140.635C112.035 141.207 112.464 141.922 113.18 141.922Z" fill="#407BFF"/>
<path d="M208.618 119.045C209.334 119.045 209.763 118.33 209.763 117.901V113.183C209.763 112.468 209.048 112.039 208.618 112.039C207.903 112.039 207.474 112.754 207.474 113.183V117.901C207.474 118.616 208.189 119.045 208.618 119.045Z" fill="#407BFF"/>
<path d="M63.2121 173.18C63.2121 173.416 62.2657 173.416 61.3193 173.416C60.3729 173.416 59.6631 173.18 59.6631 173.18C59.6631 173.18 60.6095 172.944 61.5559 172.944C62.5023 172.944 63.2121 172.944 63.2121 173.18Z" fill="#263238"/>
<path d="M65.3411 167.979C65.5777 167.979 65.5777 168.924 65.5777 169.87C65.5777 170.816 65.3411 171.998 65.3411 171.998C65.1045 171.998 65.1045 171.052 65.1045 170.106C65.1045 169.161 65.1045 167.979 65.3411 167.979Z" fill="#263238"/>
<path d="M67.4707 172.944C67.4707 172.707 68.4171 172.707 69.3635 172.707C70.3099 172.707 71.2563 172.944 71.2563 172.944C71.2563 173.18 70.3099 173.18 69.3635 173.18C68.4171 173.18 67.4707 173.18 67.4707 172.944Z" fill="#263238"/>
<path d="M65.3411 178.145C65.1045 178.145 65.1045 177.199 65.1045 176.254C65.1045 175.071 65.3411 174.362 65.3411 174.362C65.5777 174.362 65.5777 175.308 65.5777 176.254C65.5777 177.199 65.5777 178.145 65.3411 178.145Z" fill="#263238"/>
<path d="M68.4176 175.78C68.181 176.017 67.9445 175.545 67.4712 175.071C67.2346 174.835 66.998 174.363 66.998 174.363C67.2347 174.126 67.4713 174.598 67.9445 175.071C68.4176 175.308 68.4176 175.78 68.4176 175.78Z" fill="#263238"/>
<path d="M68.1804 170.106C68.417 170.343 67.9438 170.58 67.7072 171.052C67.234 171.525 66.9974 171.762 66.7608 171.762C66.5242 171.525 66.9974 171.289 67.234 170.816C67.9438 170.343 68.1804 170.106 68.1804 170.106Z" fill="#263238"/>
<path d="M63.9223 171.525C63.6857 171.762 63.4491 171.289 63.2125 171.052C62.7393 170.816 62.5027 170.343 62.7393 170.343C62.9759 170.106 63.2125 170.58 63.4491 170.816C63.9223 171.289 64.1589 171.525 63.9223 171.525Z" fill="#263238"/>
<path d="M63.9222 174.126C64.1588 174.363 63.6856 174.598 63.4491 175.071C62.9759 175.545 62.7393 175.78 62.7393 175.545C62.5027 175.308 62.9759 175.071 63.2125 174.598C63.2125 174.363 63.6856 174.126 63.9222 174.126Z" fill="#263238"/>
<path d="M172.249 227.553C218.112 227.553 255.29 188.878 255.29 141.17C255.29 93.4621 218.112 54.7872 172.249 54.7872C126.387 54.7872 89.208 93.4621 89.208 141.17C89.208 188.878 126.387 227.553 172.249 227.553Z" stroke="#003EB0" stroke-width="1.24674" stroke-miterlimit="10" stroke-dasharray="7.48 7.48"/>
<path d="M374.799 227.878C366.63 220.06 366.428 207.72 368.544 197.198C368.979 195.386 368.989 193.505 370.085 192.087C371.181 190.669 373.34 189.855 374.759 190.951C375.918 191.86 376.257 193.362 376.901 194.768C377.62 196.62 378.949 198.279 380.509 199.397C381.549 200.142 382.894 200.791 384.115 200.407C385.804 199.808 386.285 197.712 386.578 195.877C387.096 192.63 387.497 189.218 388.015 185.971C388.286 184.277 388.58 182.441 389.416 180.837C390.252 179.233 391.63 177.86 393.534 177.729C395.298 177.576 397.26 178.903 397.272 180.643C397.3 181.371 397.046 182.054 397.074 182.783C397.103 183.511 397.25 184.403 397.934 184.658C398.595 185.053 399.392 184.601 400.047 184.126C402.177 182.584 403.81 180.528 405.302 178.448C406.816 176.229 408.307 174.15 410.318 172.444C412.33 170.738 414.839 169.546 417.404 169.81C419.97 170.075 422.407 172.056 422.708 174.711C423.008 177.364 421.048 179.658 419.177 181.386C416.301 183.968 413.047 186.2 409.718 187.986C409.086 188.319 408.453 188.653 408.08 189.172C407.476 190.234 408.403 191.685 409.465 192.289C410.67 192.916 412.246 193.022 413.496 193.367C414.886 193.733 416.328 194.687 416.548 196.026C416.961 197.974 415.114 199.561 413.497 200.607C410.125 202.674 406.44 203.969 402.54 204.795C401.178 205.157 399.72 205.214 398.574 206.044C397.427 206.874 396.472 208.315 396.975 209.698C397.479 211.082 398.966 211.753 400.424 211.696C401.882 211.639 403.266 211.136 404.606 210.916C407.306 210.333 410.37 211.111 411.586 213.477C412.349 215.047 412.175 217.046 411.361 218.509C410.526 220.113 409.311 221.368 407.978 222.458C403.277 226.486 397.744 229.368 391.777 230.443C385.572 231.19 380.276 230.78 374.799 227.878Z" fill="#FCBE42"/>
<path d="M373.394 235.763C374.495 231.595 376.155 226.647 378.707 221.552C381.119 216.435 384.305 211.007 387.796 205.483C388.728 204.183 389.542 202.72 390.332 201.398C391.264 200.1 392.077 198.637 392.987 197.478C394.851 194.88 396.789 192.728 398.586 190.553C400.524 188.401 402.416 186.531 404.145 184.78C405.874 183.029 407.58 181.419 409.123 179.927C412.327 177.108 415.112 175.091 417.22 173.69C418.203 172.978 419 172.526 419.468 172.311C419.796 172.074 419.96 171.955 420.101 171.978C420.265 171.86 420.407 171.882 420.407 171.882L420.242 172C420.079 172.119 419.914 172.237 419.61 172.334C419.118 172.689 418.321 173.142 417.338 173.854C415.394 175.136 412.609 177.153 409.382 180.113C407.84 181.605 406.134 183.214 404.405 184.966C402.676 186.717 400.761 188.729 398.987 190.762C397.05 192.914 395.089 195.208 393.389 197.688C392.456 198.986 391.666 200.308 390.875 201.63C389.943 202.929 389.13 204.392 388.338 205.714C384.847 211.238 381.662 216.666 379.25 221.784C376.839 226.9 375.06 231.684 373.959 235.853" fill="#263238"/>
<path d="M393.13 197.501C393.13 197.501 393.033 197.197 393.101 196.773C393.05 196.186 393.021 195.457 393.015 194.587C393.004 192.848 393.127 190.261 393.273 187.534C393.419 184.806 393.543 182.22 393.531 180.48C393.525 179.61 393.497 178.882 393.446 178.294C393.394 177.707 393.44 177.425 393.44 177.425C393.44 177.425 393.536 177.729 393.609 178.176C393.66 178.763 393.711 179.351 393.717 180.22C393.871 181.982 393.747 184.569 393.601 187.296C393.455 190.024 393.354 192.469 393.202 194.328C393.208 195.197 393.095 195.903 393.146 196.49C393.174 197.219 393.13 197.501 393.13 197.501Z" fill="#263238"/>
<path d="M416.577 196.754C416.577 196.754 416.271 196.85 415.565 196.737C414.978 196.788 414.129 196.653 412.977 196.614C410.812 196.558 407.919 196.531 404.578 196.577C401.379 196.646 398.441 196.901 396.231 197.128C395.197 197.252 394.304 197.399 393.717 197.45C393.129 197.501 392.823 197.597 392.823 197.597C392.823 197.597 393.129 197.501 393.739 197.309C394.349 197.117 395.22 197.111 396.254 196.986C398.322 196.737 401.402 196.505 404.601 196.436C407.8 196.367 410.835 196.417 412.977 196.614C413.988 196.631 414.836 196.766 415.542 196.878C416.294 196.709 416.577 196.754 416.577 196.754Z" fill="#263238"/>
<path d="M379.058 221.174C379.058 221.174 378.939 221.01 378.962 220.869C378.865 220.563 378.769 220.259 378.673 219.954C378.362 219.18 378.096 218.124 377.898 216.645C377.196 213.782 376.347 210.026 375.588 205.706C374.83 201.386 374.003 197.49 373.279 194.769C372.917 193.408 372.674 192.21 372.504 191.46C372.43 191.014 372.334 190.708 372.215 190.545C372.119 190.24 372.119 190.24 372.119 190.24C372.119 190.24 372.238 190.403 372.215 190.545C372.312 190.849 372.408 191.154 372.504 191.46C372.815 192.233 373.081 193.289 373.279 194.769C373.981 197.631 374.83 201.386 375.588 205.706C376.488 210.049 377.173 213.923 377.898 216.645C378.26 218.006 378.504 219.203 378.673 219.954C378.746 220.4 378.842 220.705 378.962 220.869C379.058 221.174 379.058 221.174 379.058 221.174Z" fill="#263238"/>
<path d="M410.994 216.278C410.994 216.278 410.83 216.397 410.689 216.374C410.548 216.352 410.101 216.426 409.796 216.522C408.903 216.669 407.846 216.934 406.388 216.991C403.427 217.388 399.55 218.072 395.086 218.808C390.762 219.566 386.744 220.228 383.783 220.625C382.303 220.823 381.127 220.924 380.375 221.094C379.929 221.168 379.646 221.123 379.483 221.242C379.177 221.338 379.177 221.338 379.177 221.338C379.177 221.338 379.341 221.219 379.483 221.242C379.624 221.264 380.07 221.191 380.375 221.094C381.268 220.947 382.325 220.682 383.783 220.625C386.744 220.228 390.621 219.544 395.086 218.808C399.55 218.072 403.427 217.388 406.388 216.991C407.869 216.793 409.044 216.692 409.796 216.522C410.243 216.449 410.525 216.494 410.689 216.374C410.852 216.256 410.994 216.278 410.994 216.278Z" fill="#263238"/>
<path d="M369.877 254.782H165.692C159.826 254.782 154.961 249.921 154.961 244.059V116.378C154.961 110.516 159.826 105.654 165.692 105.654H369.877C375.744 105.654 380.61 110.516 380.61 116.378V244.059C380.61 249.921 375.744 254.782 369.877 254.782Z" fill="#0064E1"/>
<path d="M377.032 256.784H158.538C151.241 256.784 145.518 250.922 145.518 243.773H389.91C390.054 250.922 384.187 256.784 377.032 256.784Z" fill="#0054A3"/>
<path d="M373.884 111.517H160.971V237.482H373.884V111.517Z" fill="#25409C"/>
<path d="M245.534 243.63L248.539 248.491H291.323L294.041 243.63H245.534Z" fill="#25409C"/>
<path d="M367.588 237.053H167.838C166.55 237.053 165.405 235.909 165.405 234.622V118.237C165.405 116.95 166.55 115.806 167.838 115.806H367.588C368.876 115.806 370.02 116.95 370.02 118.237V234.622C370.02 235.909 368.876 237.053 367.588 237.053Z" fill="#EBEBEB"/>
<path d="M370.02 124.671H165.405V237.053H370.02V124.671Z" fill="#FAFAFA"/>
<path d="M182.29 120.524C182.29 121.382 181.575 122.097 180.717 122.097C179.858 122.097 179.143 121.382 179.143 120.524C179.143 119.666 179.858 118.951 180.717 118.951C181.432 118.809 182.29 119.523 182.29 120.524Z" fill="#263238"/>
<path d="M172.274 120.524C172.274 121.382 171.558 122.097 170.7 122.097C169.841 122.097 169.126 121.382 169.126 120.524C169.126 119.666 169.841 118.951 170.7 118.951C171.558 118.809 172.274 119.523 172.274 120.524Z" fill="#263238"/>
<path d="M176.996 120.524C176.996 121.382 176.28 122.097 175.422 122.097C174.563 122.097 173.848 121.382 173.848 120.524C173.848 119.666 174.563 118.951 175.422 118.951C176.28 118.809 176.996 119.523 176.996 120.524Z" fill="#263238"/>
<path d="M378.749 243.63C378.749 243.773 328.668 243.773 266.855 243.773C205.041 243.773 154.961 243.773 154.961 243.63C154.961 243.487 205.041 243.487 266.855 243.487C328.668 243.487 378.749 243.63 378.749 243.63Z" fill="#455A64"/>
<path d="M226.217 181.291H179.571V184.437H226.217V181.291Z" fill="#DFDFDF"/>
<path d="M286.458 137.968H239.812V141.113H286.458V137.968Z" fill="#DFDFDF"/>
<path d="M355.998 149.549C355.998 149.692 329.956 149.692 297.905 149.692C265.853 149.692 239.812 149.549 239.812 149.549C239.812 149.406 265.853 149.406 297.905 149.406C329.956 149.406 355.998 149.549 355.998 149.549Z" fill="#DFDFDF"/>
<path d="M355.998 156.412C355.998 156.556 329.956 156.555 297.905 156.555C265.853 156.555 239.812 156.412 239.812 156.412C239.812 156.269 265.853 156.27 297.905 156.27C329.956 156.27 355.998 156.269 355.998 156.412Z" fill="#DFDFDF"/>
<path d="M355.998 163.133C355.998 163.276 329.956 163.276 297.905 163.276C265.853 163.276 239.812 163.133 239.812 163.133C239.812 162.99 265.853 162.99 297.905 162.99C330.099 162.99 355.998 163.133 355.998 163.133Z" fill="#DFDFDF"/>
<path d="M355.998 169.996C355.998 170.139 329.956 170.139 297.905 170.139C265.853 170.139 239.812 169.996 239.812 169.996C239.812 169.853 265.853 169.853 297.905 169.853C329.956 169.853 355.998 169.996 355.998 169.996Z" fill="#DFDFDF"/>
<path d="M355.998 176.859C355.998 177.002 329.956 177.002 297.905 177.002C265.853 177.002 239.812 176.859 239.812 176.859C239.812 176.716 265.853 176.716 297.905 176.716C330.099 176.716 355.998 176.716 355.998 176.859Z" fill="#DFDFDF"/>
<path d="M285.17 183.579C285.17 183.722 275.01 183.722 262.562 183.722C249.97 183.722 239.954 183.579 239.954 183.579C239.954 183.579 250.113 183.436 262.562 183.436C275.153 183.436 285.17 183.579 285.17 183.579Z" fill="#DFDFDF"/>
<path d="M355.139 196.876C355.139 197.019 338.112 197.019 316.935 197.019C295.902 197.019 278.731 196.876 278.731 196.876C278.731 196.876 295.759 196.733 316.935 196.733C338.112 196.733 355.139 196.876 355.139 196.876Z" fill="#DFDFDF"/>
<path d="M355.139 204.168C355.139 204.311 338.112 204.311 316.935 204.311C295.902 204.311 278.731 204.168 278.731 204.168C278.731 204.025 295.759 204.025 316.935 204.025C338.112 204.025 355.139 204.025 355.139 204.168Z" fill="#DFDFDF"/>
<path d="M355.139 211.317C355.139 211.46 338.112 211.46 316.935 211.46C295.902 211.46 278.731 211.317 278.731 211.317C278.731 211.174 295.759 211.174 316.935 211.174C338.112 211.174 355.139 211.317 355.139 211.317Z" fill="#DFDFDF"/>
<path d="M355.139 218.608C355.139 218.751 338.112 218.751 316.935 218.751C295.902 218.751 278.731 218.608 278.731 218.608C278.731 218.466 295.759 218.466 316.935 218.466C338.112 218.466 355.139 218.466 355.139 218.608Z" fill="#DFDFDF"/>
<path d="M226.503 196.161C226.503 196.304 216.344 196.304 203.753 196.304C191.161 196.304 181.002 196.161 181.002 196.161C181.002 196.161 191.161 196.018 203.753 196.018C216.344 196.018 226.503 196.018 226.503 196.161Z" fill="#DFDFDF"/>
<path d="M226.503 201.88C226.503 202.023 216.344 202.023 203.753 202.023C191.161 202.023 181.002 201.88 181.002 201.88C181.002 201.737 191.161 201.737 203.753 201.737C216.344 201.737 226.503 201.737 226.503 201.88Z" fill="#DFDFDF"/>
<path d="M226.503 207.456C226.503 207.599 216.344 207.599 203.753 207.599C191.161 207.599 181.002 207.456 181.002 207.456C181.002 207.313 191.161 207.313 203.753 207.313C216.344 207.313 226.503 207.456 226.503 207.456Z" fill="#DFDFDF"/>
<path d="M226.503 213.175C226.503 213.318 216.344 213.318 203.753 213.318C191.161 213.318 181.002 213.175 181.002 213.175C181.002 213.032 191.161 213.032 203.753 213.032C216.201 213.032 226.503 213.175 226.503 213.175Z" fill="#DFDFDF"/>
<path d="M226.503 218.894C226.503 219.037 216.344 219.037 203.753 219.037C191.161 219.037 181.002 218.894 181.002 218.894C181.002 218.751 191.161 218.751 203.753 218.751C216.344 218.751 226.503 218.751 226.503 218.894Z" fill="#DFDFDF"/>
<path d="M273.008 193.444H239.812V225.471H273.008V193.444Z" fill="#F5F5F5"/>
<path d="M242.529 222.755L251.687 206.169L259.127 216.75L263.707 211.174L270.432 222.755H242.529Z" fill="#EBEBEB"/>
<path d="M262.276 203.024C262.276 204.311 261.274 205.454 259.844 205.454C258.413 205.454 257.411 204.454 257.411 203.024C257.411 201.737 258.413 200.593 259.844 200.593C261.274 200.593 262.276 201.737 262.276 203.024Z" fill="#EBEBEB"/>
<path d="M270.432 222.183C270.432 221.754 270.432 221.325 270.432 220.753C270.432 219.466 270.432 217.608 270.432 215.32C270.432 210.602 270.289 204.025 270.289 196.018L270.432 196.161C262.277 196.161 252.69 196.161 242.388 196.161C242.244 196.161 242.674 195.875 242.531 196.018V196.161V196.304V196.59V197.019V197.877C242.531 198.449 242.531 199.02 242.531 199.735C242.531 200.879 242.531 202.166 242.531 203.31C242.531 205.74 242.531 208.028 242.531 210.316C242.531 214.748 242.531 219.037 242.531 222.898L242.388 222.755C250.687 222.755 257.698 222.898 262.563 222.898C264.995 222.898 266.855 222.898 268.286 222.898C269.002 222.898 269.431 222.898 269.86 222.898C270.003 222.898 270.146 222.898 270.432 222.755H270.289C270.146 222.755 270.003 222.755 269.86 222.755C269.431 222.755 269.002 222.755 268.429 222.755C267.141 222.755 265.138 222.755 262.706 222.755C257.698 222.755 250.687 222.898 242.388 222.898H242.244V222.755C242.244 218.894 242.244 214.605 242.244 210.173C242.244 208.028 242.244 205.597 242.244 203.167C242.244 202.023 242.244 200.736 242.244 199.592C242.244 199.02 242.244 198.449 242.244 197.734V196.876V196.447V196.161V196.018V195.875C242.101 196.018 242.531 195.589 242.388 195.732C252.69 195.732 262.277 195.732 270.432 195.732H270.576V195.875C270.576 203.882 270.432 210.602 270.432 215.32C270.432 217.608 270.432 219.466 270.432 220.753C270.432 221.325 270.432 221.897 270.432 222.183Z" fill="#EBEBEB"/>
<path d="M225.502 132.677H180.573V176.144H225.502V132.677Z" fill="#F5F5F5"/>
<path d="M184.007 172.283L196.455 149.978L206.614 164.277L212.767 156.698L221.925 172.283H184.007Z" fill="#DFDFDF"/>
<path d="M210.907 145.689C210.907 147.404 209.476 148.977 207.616 148.977C205.756 148.977 204.325 147.547 204.325 145.689C204.325 143.973 205.756 142.4 207.616 142.4C209.476 142.4 210.907 143.83 210.907 145.689Z" fill="#DFDFDF"/>
<path d="M221.926 172.426C221.926 172.14 221.926 171.997 221.926 171.711C221.926 171.283 221.926 170.568 221.926 169.853C221.926 168.137 221.926 165.706 221.783 162.418C221.783 156.126 221.639 147.118 221.639 136.252L221.783 136.395C210.765 136.395 197.743 136.395 183.864 136.395C183.721 136.538 184.293 135.966 184.15 136.109V136.252V136.395V136.538V136.824V137.396V138.683C184.15 139.54 184.15 140.255 184.15 141.113C184.15 142.686 184.15 144.402 184.15 145.974C184.15 149.12 184.15 152.266 184.15 155.411C184.15 161.417 184.15 167.279 184.15 172.569L183.864 172.283C195.168 172.426 204.755 172.426 211.337 172.426C214.628 172.426 217.204 172.569 219.064 172.569C219.922 172.569 220.638 172.569 221.067 172.569C221.353 172.569 221.496 172.569 221.639 172.569C221.926 172.426 221.926 172.426 221.926 172.426C221.639 172.426 221.496 172.426 221.21 172.426C220.781 172.426 220.066 172.426 219.207 172.426C217.49 172.426 214.771 172.426 211.48 172.569C204.898 172.569 195.311 172.712 184.007 172.712H183.721V172.426C183.721 167.136 183.721 161.417 183.721 155.268C183.721 152.266 183.721 149.12 183.721 145.831C183.721 144.259 183.721 142.686 183.721 140.97C183.721 140.112 183.721 139.397 183.721 138.54V137.253V136.681V136.395V136.252V136.109V135.966C183.435 136.252 184.007 135.68 184.007 135.68C198.029 135.68 210.908 135.68 221.926 135.68H222.069V135.823C221.926 146.689 221.926 155.84 221.926 162.132C221.926 165.277 221.926 167.708 221.783 169.424C221.783 170.282 221.783 170.854 221.783 171.283C221.783 171.569 221.783 171.711 221.783 171.854C221.926 172.426 221.926 172.426 221.926 172.426Z" fill="#DFDFDF"/>
<path d="M268.958 200.91L283.188 187.48L284.769 193.01C292.411 189.586 296.628 181.16 294.256 172.997C291.884 163.78 282.398 158.25 273.174 160.883L271.593 154.564C284.506 151.14 297.682 159.304 300.581 171.68C303.479 183.53 297.155 195.38 286.087 199.593L287.668 206.176L268.958 200.91Z" fill="#3864B2"/>
<path d="M266.323 158.777L252.093 172.207L250.512 166.677C242.869 170.1 238.653 178.527 241.025 186.69C243.396 195.906 252.883 201.437 262.107 198.803L263.688 205.123C250.775 208.546 237.598 200.383 234.7 188.007C231.801 176.157 238.126 164.307 249.194 160.094L247.613 153.511L266.323 158.777Z" fill="#3864B2"/>
<path d="M115.755 201.307L137.075 214.176L113.036 205.312L115.755 201.307Z" fill="#EEBD98"/>
<path d="M105.882 232.477C105.882 232.477 82.2729 233.764 92.5752 235.194C102.878 236.481 117.186 236.481 122.051 236.052C127.202 235.48 109.889 232.763 105.882 232.477Z" fill="#95A4C7"/>
<path d="M110.461 208.6L117.043 206.455L160.684 221.754C160.684 221.754 166.265 224.757 166.694 230.762C167.123 236.91 169.269 291.242 169.269 291.242H160.97L155.39 247.49L153.101 230.905L143.085 225.471L117.615 213.032L110.461 208.6Z" fill="#0064E1"/>
<path d="M92.7177 209.458C91.2869 214.319 88.9975 228.617 96.295 231.906C96.5812 232.049 96.8674 232.192 97.2967 232.192L137.218 238.197C137.361 238.197 137.647 238.34 137.79 238.34C138.505 238.34 140.652 238.626 139.65 241.199C138.792 243.773 126.915 274.799 123.481 283.807C122.909 285.237 120.763 289.383 122.194 290.241L126.057 293.958C127.774 294.959 130.636 289.526 131.78 287.81L157.965 242.915C158.108 242.772 158.108 242.629 158.251 242.486C158.824 240.913 161.542 232.906 152.957 228.76C144.372 224.757 118.616 212.032 113.752 209.601C113.179 209.315 110.89 208.028 110.317 208.028L96.152 210.03C94.7209 210.173 93.147 208.171 92.7177 209.458Z" fill="#0054A3"/>
<path d="M182.578 204.74C182.721 204.311 183.007 202.022 181.433 202.022H173.133C172.847 202.022 172.561 201.736 172.561 201.45V195.588C172.561 195.159 172.847 195.016 173.133 195.016L189.16 194.873H189.303C189.589 194.73 191.163 194.444 191.735 191.585C191.735 191.585 191.735 191.585 191.735 191.442L195.026 168.994C195.169 168.565 195.169 167.993 194.883 167.564C194.597 166.563 193.738 165.42 191.306 165.42C187.729 165.42 161.829 165.277 156.106 165.277C154.818 165.277 153.673 165.991 153.101 166.992C152.672 167.707 152.386 168.708 152.099 170.281C151.527 174.57 149.381 188.582 149.095 191.156C148.952 191.442 148.952 191.728 149.095 192.014C149.381 193.014 150.096 195.016 152.386 195.159C155.104 195.302 165.55 194.873 168.268 194.73C168.697 194.73 168.984 195.016 168.984 195.302L169.127 201.45C169.127 201.879 168.841 202.022 168.554 202.165L159.683 202.308C159.54 202.308 159.54 202.308 159.54 202.308C159.254 202.451 158.538 202.737 158.538 203.596C158.538 205.311 158.681 205.026 158.681 205.026L182.291 205.311C182.291 205.311 182.578 205.026 182.578 204.74Z" fill="#023EA1"/>
<path d="M96.7246 153.123C96.7246 153.123 90.1423 150.407 87.2805 158.843C87.2805 158.843 85.2773 164.562 83.9895 166.277C82.7017 167.993 78.8384 169.137 78.8384 169.137C78.8384 169.137 75.4042 170.853 75.5473 175.714C75.6904 180.575 76.1197 185.008 78.1229 188.01C79.4107 190.298 78.6953 191.728 78.266 192.3C77.9798 192.586 77.9798 193.014 77.9798 193.3C78.123 194.301 78.5522 195.874 81.1278 195.874C84.848 196.017 89.7129 197.447 88.8544 194.015C87.9959 190.584 86.7081 173.426 86.7081 173.426L89.5698 166.706L93.7194 163.99L95.723 162.703C95.723 162.703 100.731 156.698 100.731 155.268C100.731 153.838 96.7246 153.123 96.7246 153.123Z" fill="#1A1155"/>
<path d="M101.16 153.266L106.598 150.693L106.741 142.686L109.173 139.826L113.609 141.113L119.618 140.97H124.197C124.197 140.97 123.625 153.266 118.903 157.985C118.903 157.985 113.323 158.986 111.463 157.699C111.463 157.699 109.03 155.697 109.03 159.129C109.03 162.56 108.601 166.849 108.601 166.849C108.601 166.849 106.884 169.709 100.731 166.992C100.731 166.992 97.297 165.277 96.1523 162.56" fill="#FFBF99"/>
<path d="M120.763 131.534C120.763 131.534 108.315 121.668 100.731 131.534C93.0045 141.399 94.4354 148.691 96.5817 150.836C96.5817 150.836 103.164 157.556 108.315 150.407C108.315 150.407 109.316 149.12 108.744 146.689C108.744 146.689 106.741 141.256 111.749 142.543C116.757 143.83 120.763 143.83 122.623 141.828C124.484 139.969 125.199 141.971 125.199 142.686C125.056 143.258 125.914 147.261 128.347 143.687C130.779 140.112 127.775 133.535 124.913 131.82C124.627 131.677 122.48 130.533 120.763 131.534Z" fill="#1A1155"/>
<path d="M97.1544 150.836C97.1544 150.836 96.582 152.837 96.582 153.266C96.582 153.266 99.4438 155.268 100.159 155.268C100.159 155.268 101.161 153.695 101.018 152.98C101.018 153.123 97.4406 150.979 97.1544 150.836Z" fill="#CB4F59"/>
<path d="M96.0088 162.703C95.8657 162.56 95.7227 162.703 95.7227 162.703C94.5779 162.56 86.8511 162.131 85.9926 171.997C85.1341 181.29 91.0006 205.597 92.2884 211.174L119.332 207.17C118.903 204.74 118.187 199.306 118.187 198.305C118.187 198.305 117.043 187.867 116.899 184.865C116.899 184.436 117.042 184.007 117.329 183.578C118.473 182.291 121.335 178.717 118.76 174.856C118.76 174.856 113.036 165.849 109.03 163.847C108.887 163.847 104.737 170.853 96.0088 162.703Z" fill="#DE051F"/>
<path d="M100.588 185.723C100.302 184.579 98.871 184.007 97.7264 184.436L93.4335 186.294C92.8612 186.58 92.4319 187.009 92.2888 187.581L92.1457 188.296C92.0027 188.725 92.0027 189.154 92.2888 189.583L96.8678 198.591C97.0109 198.877 97.154 199.163 97.154 199.448C97.4402 200.306 98.2987 202.595 102.734 201.45L129.635 195.016C129.778 195.016 135.501 193.014 135.501 193.014C136.073 192.729 136.646 193.014 136.789 194.73C136.932 195.445 138.935 193.3 138.506 191.585C138.506 191.585 137.218 188.439 129.491 190.298L108.887 194.301C108.744 194.301 108.744 194.301 108.744 194.444C108.172 194.587 104.881 195.445 104.022 192.871L100.874 186.008C100.588 185.866 100.588 185.723 100.588 185.723Z" fill="#FFBF99"/>
<path d="M88.1386 166.134C87.5662 166.563 87.4231 167.135 87.28 167.564C86.8508 168.851 86.8508 170.424 87.1369 171.711C87.7093 174.141 90.571 186.437 92.145 189.011C92.145 189.011 96.5803 185.866 100.731 185.723C100.731 185.723 98.5835 177.144 96.4372 171.282C96.0079 171.425 92.7173 162.846 88.1386 166.134Z" fill="#EE384E"/>
<path d="M160.971 291.242L160.685 297.962C160.685 297.962 160.398 298.963 164.691 298.963C168.984 298.963 180.287 298.963 180.287 298.963C180.287 298.963 183.006 297.962 179.858 296.961C179.858 296.961 173.133 294.959 169.127 291.242H160.971Z" fill="black"/>
<path d="M131.208 201.164L141.51 201.307V196.875C141.51 196.875 141.939 195.588 139.936 195.445C137.933 195.302 132.639 195.588 132.639 195.588C132.639 195.588 131.208 195.731 131.208 197.447C131.208 199.02 131.208 201.164 131.208 201.164Z" fill="#CB4F59"/>
<path d="M132.067 200.878C132.067 200.878 128.204 200.449 127.917 202.451C127.631 204.597 128.633 205.168 130.493 205.168C132.353 205.311 143.514 205.025 143.514 205.025C143.514 205.025 145.66 204.74 145.517 203.166C145.374 201.593 144.945 201.021 142.941 201.021C140.938 201.021 132.067 200.878 132.067 200.878Z" fill="#000038"/>
<path d="M157.679 204.883L129.062 205.026C128.919 205.026 128.776 205.026 128.776 205.026C128.06 205.026 125.914 205.454 125.914 207.17C125.914 209.029 127.345 209.744 129.777 209.744H195.598C196.456 209.744 197.172 209.458 197.601 208.886C198.317 208.171 199.175 206.169 197.458 205.169C197.029 204.883 196.456 204.74 195.884 204.74L157.679 204.883Z" fill="#DFDFDF"/>
<path d="M175.422 209.458L194.31 226.043C194.31 226.043 197.744 229.046 197.888 236.052C198.031 243.058 199.175 299.534 199.175 299.534C199.175 299.534 199.605 302.68 193.309 302.68H152.671C152.671 302.68 151.097 302.68 150.954 300.821C150.811 298.963 152.385 299.106 153.673 299.106L195.026 299.249L194.597 237.053C194.597 237.053 195.598 231.763 188.015 225.614L170.986 209.887L175.422 209.458Z" fill="#DFDFDF"/>
<path d="M108.029 236.052L107.886 294.387C107.886 294.387 98.4419 294.673 96.868 296.818C95.294 298.963 97.1542 300.249 106.884 299.963C116.614 299.677 122.48 299.677 122.48 299.677C122.48 299.677 127.059 299.105 121.622 296.532C116.042 293.815 111.606 294.673 111.606 294.673L111.034 236.195L108.029 236.052Z" fill="#DFDFDF"/>
<path d="M122.766 286.237C122.766 286.237 117.329 291.242 120.477 293.386L134.642 304.11C134.642 304.11 136.789 304.682 136.359 302.394L130.064 290.813L122.766 286.237Z" fill="black"/>
<path d="M220.361 10.5827L227.568 12.2754L225.874 19.4769L218.667 17.7842L220.361 10.5827Z" fill="#DE051F"/>
<path d="M411.243 129.374L416.046 133.781L420.457 128.982L415.654 124.574L411.243 129.374Z" fill="#FCBE42"/>
<path d="M354.827 33.8504L346.019 31.1406C345.853 31.0894 345.708 31.166 345.657 31.3322L344.548 34.9302C344.531 34.9856 344.514 35.0409 344.552 35.1134L345.281 36.4889C345.319 36.5614 345.374 36.5784 345.43 36.5954L352.133 38.6576C352.188 38.6746 352.261 38.6363 352.317 38.6534L353.693 37.9254C353.765 37.8871 353.782 37.8318 353.799 37.7764L354.908 34.1783C355.015 34.0293 354.938 33.8845 354.827 33.8504ZM353.391 37.5294L352.231 38.1424L345.695 36.1313L345.081 34.9729L346.087 31.707L354.396 34.2634L353.391 37.5294Z" fill="#003EB0"/>
<path d="M355.002 35.0557L344.987 32.5202C344.821 32.469 344.677 32.5457 344.681 32.7288C344.647 32.8395 344.723 32.9843 344.889 33.0354L354.904 35.5709C355.07 35.622 355.215 35.5454 355.21 35.3623C355.244 35.2516 355.112 35.0897 355.002 35.0557Z" fill="#003EB0"/>
<path d="M354.524 36.6055L344.51 34.0701C344.344 34.019 344.199 34.0956 344.203 34.2787C344.169 34.3895 344.246 34.5342 344.412 34.5854L354.426 37.1208C354.592 37.1719 354.737 37.0953 354.733 36.9122C354.767 36.8015 354.635 36.6397 354.524 36.6055Z" fill="#003EB0"/>
<path d="M355.819 14.8839C350.944 13.3842 345.8 16.1043 344.299 20.9757C343.361 24.0202 344.059 27.2652 346.152 29.7268L345.657 31.3322C345.606 31.4982 345.682 31.6431 345.848 31.6941L354.657 34.404C354.823 34.4551 354.968 34.3785 355.019 34.2124L355.514 32.6071C358.612 31.8028 361.016 29.5123 361.97 26.4123C363.399 21.5794 360.694 16.3837 355.819 14.8839ZM355.19 32.0833C355.118 32.1216 355.045 32.1599 355.01 32.2706L354.55 33.7652L346.24 31.2088L346.701 29.7142C346.735 29.6035 346.697 29.5311 346.658 29.4586C344.626 27.1971 343.949 24.0799 344.853 21.146C346.251 16.6069 351.123 13.9846 355.721 15.3991C360.319 16.8138 362.888 21.6644 361.472 26.259C360.513 29.1757 358.198 31.3727 355.19 32.0833Z" fill="#003EB0"/>
<path d="M351.383 37.9421C351.289 37.8528 351.106 37.8569 351.017 37.9506C351 38.006 350.245 38.6829 348.639 38.1887C347.031 37.6944 346.789 36.7107 346.806 36.6553C346.784 36.5276 346.635 36.4211 346.508 36.4424C346.38 36.4637 346.273 36.6127 346.295 36.7404C346.278 36.7957 346.546 38.0904 348.484 38.6869C350.424 39.2834 351.374 38.3637 351.391 38.3083C351.536 38.2317 351.532 38.0487 351.383 37.9421Z" fill="#003EB0"/>
<path d="M342.058 19.9831L336.85 18.381C336.684 18.3299 336.539 18.4065 336.488 18.5726C336.437 18.7386 336.514 18.8834 336.68 18.9346L341.887 20.5366C342.053 20.5877 342.199 20.5112 342.25 20.345C342.301 20.179 342.225 20.0342 342.058 19.9831Z" fill="#DE051F"/>
<path d="M369.534 28.4363L364.327 26.8343C364.161 26.7832 364.016 26.8598 363.965 27.0259C363.914 27.1919 363.99 27.3368 364.157 27.3879L369.364 28.99C369.53 29.041 369.676 28.9644 369.727 28.7984C369.778 28.6323 369.646 28.4705 369.534 28.4363Z" fill="#DE051F"/>
<path d="M342.019 26.2129C341.997 26.0852 341.848 25.9787 341.721 26L336.431 27.2212C336.304 27.2425 336.197 27.3915 336.219 27.5192C336.24 27.647 336.295 27.6641 336.406 27.6981C336.461 27.7151 336.517 27.7323 336.534 27.6769L341.823 26.4557C341.989 26.5068 342.078 26.4131 342.019 26.2129Z" fill="#DE051F"/>
<path d="M369.997 19.8517C369.976 19.7239 369.827 19.6174 369.699 19.6387L364.41 20.8599C364.282 20.8812 364.176 21.0302 364.197 21.158C364.218 21.2857 364.274 21.3028 364.384 21.3368C364.44 21.3539 364.495 21.371 364.512 21.3156L369.801 20.0944C369.967 20.1455 370.074 19.9965 369.997 19.8517Z" fill="#DE051F"/>
<path d="M365.835 11.9049C365.741 11.8154 365.558 11.8196 365.468 11.9133L361.482 15.5961C361.393 15.6897 361.397 15.8728 361.491 15.9623C361.546 15.9793 361.585 16.0517 361.585 16.0517C361.696 16.0858 361.769 16.0475 361.841 16.0092L365.826 12.3264C365.933 12.1774 365.911 12.0496 365.835 11.9049Z" fill="#DE051F"/>
<path d="M358.207 7.13421C358.041 7.08306 357.896 7.15966 357.845 7.32579L356.259 12.4738C356.208 12.6399 356.284 12.7847 356.45 12.8358C356.617 12.887 356.761 12.8103 356.812 12.6443L358.416 7.44085C358.45 7.33013 358.374 7.18536 358.207 7.13421Z" fill="#DE051F"/>
<path d="M350.792 12.3068L349.569 7.02196C349.548 6.89421 349.399 6.78774 349.271 6.80894C349.144 6.83021 349.037 6.97923 349.058 7.10706L350.281 12.3918C350.302 12.5196 350.357 12.5366 350.468 12.5707C350.523 12.5877 350.579 12.6049 350.596 12.5494C350.706 12.5836 350.813 12.4346 350.792 12.3068Z" fill="#DE051F"/>
<path d="M364.961 35.9985L361.276 32.0163C361.182 31.9268 361.016 31.8757 360.909 32.0247C360.803 32.1737 360.824 32.3015 360.918 32.3909L364.604 36.3731C364.659 36.3901 364.697 36.4626 364.697 36.4626C364.808 36.4967 364.881 36.4583 364.953 36.42C365.059 36.271 365.038 36.1432 364.961 35.9985Z" fill="#DE051F"/>
<path d="M345.408 15.0141L341.723 11.0319C341.629 10.9425 341.446 10.9467 341.356 11.0403C341.267 11.134 341.271 11.3171 341.365 11.4066L345.05 15.3888C345.106 15.4058 345.089 15.4612 345.144 15.4782C345.255 15.5123 345.327 15.474 345.4 15.4357C345.506 15.2866 345.502 15.1036 345.408 15.0141Z" fill="#DE051F"/>
<path d="M351.172 32.7255L353.747 24.3668C353.747 24.3668 354.847 20.4025 357.008 21.0671C359.168 21.7318 356.909 25.5214 352.754 24.2431" stroke="#003EB0" stroke-width="0.8821" stroke-miterlimit="10"/>
<path d="M349.232 32.1293L351.808 23.7706C351.808 23.7706 353.13 19.8745 350.969 19.2098C348.808 18.5451 348.543 22.9482 352.698 24.2264" stroke="#003EB0" stroke-width="0.8821" stroke-miterlimit="10"/>
<path d="M69.8 100.325C69.6676 100.192 69.6676 100.193 69.5351 100.193L67.4161 100.458C67.2837 100.458 66.8863 100.325 66.8863 100.06C66.7539 99.1345 66.3566 98.3404 65.8268 97.5464C65.6944 97.4136 65.6944 97.017 65.9593 96.8843L67.4161 95.6928C67.5485 95.5609 67.5485 95.5609 67.5485 95.4281C67.5485 95.2962 67.5485 95.2962 67.4161 95.1643L65.2971 93.046C65.1646 92.9141 65.1646 92.9141 65.0322 92.9141C64.8998 92.9141 64.8997 92.9141 64.7673 93.046L63.5754 94.5021C63.4429 94.5021 63.178 94.5021 62.9132 94.3694C62.1185 93.84 61.3239 93.5762 60.3968 93.3115C60.2644 93.3115 59.9995 93.046 59.9995 92.7813L60.1319 90.7966C60.1319 90.6638 60.1319 90.6647 59.9995 90.5319C59.867 90.5319 59.867 90.5319 59.7346 90.5319H56.6885C56.556 90.5319 56.556 90.5319 56.4236 90.6647C56.2912 90.7966 56.2912 90.7966 56.2912 90.9294L56.4236 92.9141C56.4236 93.0468 56.2912 93.4434 56.0263 93.4434C55.0992 93.5753 54.3046 94.1055 53.5099 94.5021C53.245 94.5021 52.9802 94.5021 52.8477 94.3694L51.6558 92.9141C51.5233 92.7821 51.5233 92.7813 51.3909 92.7813C51.2584 92.7813 51.2584 92.7821 51.126 92.9141L48.8745 95.0315C48.8745 95.1634 48.8745 95.2962 48.8745 95.2962C48.8745 95.4289 48.8745 95.4289 49.007 95.5609L50.4638 96.7515C50.5962 96.8843 50.5962 97.1489 50.5962 97.4136C50.0665 98.2077 49.8016 99.0017 49.5367 99.9285C49.5367 100.06 49.2718 100.325 49.007 100.325L47.0204 100.193C46.8879 100.193 46.8879 100.192 46.7555 100.325C46.623 100.458 46.623 100.458 46.623 100.59V103.766C46.623 103.899 46.623 103.899 46.7555 104.031C46.8879 104.163 46.8879 104.163 47.0204 104.163L49.007 104.031C49.1394 104.031 49.5367 104.163 49.5367 104.428C49.6692 105.354 50.1989 106.148 50.5962 106.942C50.7287 107.075 50.7287 107.472 50.4638 107.603L48.8745 108.663C48.7421 108.795 48.7421 108.795 48.7421 108.928C48.7421 109.06 48.7421 109.06 48.8745 109.192L50.9936 111.31C51.126 111.442 51.126 111.442 51.2584 111.442C51.3909 111.442 51.3909 111.442 51.5233 111.31L52.7153 109.854C52.8477 109.722 53.1126 109.722 53.3775 109.722C54.1721 110.251 54.9668 110.515 55.8938 110.78C56.0263 110.78 56.2912 111.045 56.2912 111.31L56.1587 113.294C56.1587 113.427 56.1587 113.427 56.2912 113.559C56.4236 113.692 56.4236 113.692 56.556 113.692H59.6022C59.7346 113.692 59.7346 113.692 59.867 113.559C59.9995 113.427 59.9995 113.427 59.9995 113.294L59.867 111.31C59.867 111.177 59.9995 110.78 60.2644 110.78C61.1914 110.648 61.9861 110.118 62.7807 109.722C62.9132 109.589 63.3105 109.589 63.4429 109.854L64.6349 111.31C64.7673 111.442 64.7673 111.442 64.8997 111.442C65.0322 111.442 65.0322 111.442 65.1646 111.31L67.2837 109.192C67.4161 109.06 67.4161 109.06 67.4161 108.928C67.4161 108.795 67.4161 108.795 67.2837 108.663L65.8268 107.472C65.6944 107.339 65.6944 107.075 65.6944 106.809C66.2241 106.015 66.489 105.221 66.7539 104.295C66.7539 104.163 67.0188 103.899 67.2837 103.899L69.2703 104.031C69.4027 104.031 69.4027 104.031 69.5351 103.899C69.6676 103.766 69.6676 103.766 69.6676 103.633V100.59C69.8 100.458 69.8 100.325 69.8 100.325ZM69.0054 103.237L67.4161 103.105C66.7539 102.972 66.2242 103.369 65.9593 104.163C65.8268 104.957 65.4295 105.751 65.0322 106.546C64.7673 107.207 64.8997 107.736 65.2971 108.133L66.489 108.928L65.0322 110.383L64.2376 109.192C63.8402 108.663 63.0456 108.53 62.6483 108.928C61.8536 109.324 61.059 109.722 60.2644 109.854C59.6022 109.986 59.2048 110.648 59.2048 111.31L59.3373 112.898H57.0858L57.2182 111.31C57.3507 110.648 56.9534 110.118 56.1587 109.854C55.3641 109.722 54.5694 109.324 53.7748 108.928C53.1126 108.663 52.5828 108.795 52.1855 109.192L51.3909 110.383L49.8016 108.795L50.9936 108.001C51.5233 107.604 51.6558 106.81 51.2584 106.413C50.8611 105.619 50.4638 104.825 50.3314 104.031C50.1989 103.369 49.5367 102.972 48.8745 102.972L47.2852 103.105V100.854L48.8745 101.119C49.5367 101.252 50.0665 100.854 50.3314 100.06C50.4638 99.2664 50.8611 98.4723 51.2584 97.6783C51.5233 97.0162 51.3909 96.4868 50.9936 96.0902L49.8016 95.2962L51.3909 93.7081L52.1855 94.8996C52.5828 95.4289 53.3775 95.5609 53.7748 95.1643C54.5694 94.7668 55.3641 94.3702 56.1587 94.2375C56.8209 94.1055 57.2182 93.4434 57.2182 92.7813L57.0858 91.194H59.3373L59.2048 92.7813C59.0724 93.4434 59.4697 93.9728 60.2644 94.2375C61.059 94.3702 61.8536 94.7668 62.6483 95.1643C63.3105 95.4289 63.8402 95.2962 64.2376 94.8996L65.0322 93.7081L66.6215 95.2962L65.4295 96.0902C64.8998 96.4868 64.8997 97.2809 65.1646 97.6783C65.5619 98.4723 65.9593 99.2664 66.0917 100.06C66.2241 100.723 66.8863 101.119 67.5485 101.119L69.1378 100.987L69.0054 103.237Z" fill="#023EA1"/>
<path d="M58.1459 96.6196C55.2322 96.6196 52.7158 99.1336 52.7158 102.045C52.7158 104.957 55.2322 107.472 58.1459 107.472C61.0595 107.472 63.5759 104.957 63.5759 102.045C63.5759 99.0017 61.192 96.6196 58.1459 96.6196ZM58.1459 106.809C55.6295 106.809 53.5105 104.692 53.5105 102.178C53.5105 99.663 55.6295 97.5455 58.1459 97.5455C60.6622 97.5455 62.7812 99.663 62.7812 102.178C62.7812 104.692 60.7947 106.809 58.1459 106.809Z" fill="#023EA1"/>
<path d="M161.413 60.3498C164.13 63.1625 168.614 63.2418 171.429 60.527C174.244 57.8121 174.323 53.3312 171.606 50.5184C168.889 47.7057 164.405 47.6264 161.59 50.3412C158.775 53.0561 158.696 57.537 161.413 60.3498Z" fill="#24499F"/>
<path d="M170.038 54.9552L164.805 52.2921L165.255 57.4412L170.038 54.9552Z" fill="white"/>
</svg>
