<svg width="270" height="186" viewBox="0 0 270 186" fill="none" xmlns="http://www.w3.org/2000/svg">
<path fill-rule="evenodd" clip-rule="evenodd" d="M30.3354 86.395L33.1444 83.8138L33.8277 81.5362C36.1812 74.324 40.8122 67.9469 46.8856 63.4677L48.404 62.4048L45.595 64.986L44.0767 66.0489C37.1681 71.1354 32.5371 78.1958 30.3354 86.395ZM94.0309 71.9705L96.8399 69.3893L97.1436 53.6742L94.3346 56.2554L94.0309 71.9705ZM110.809 50.7893C109.291 49.3469 107.924 48.0563 106.254 46.6897C85.9836 30.2154 56.4514 28.4693 35.3461 44.1085C37.0922 43.1216 38.6865 42.2105 40.5085 41.3754C62.1452 31.3542 88.0334 35.2261 105.722 51.1689L107.924 53.2946L109.442 54.813L112.251 52.2318L110.809 50.7893Z" fill="#5C93BC"/>
<path fill-rule="evenodd" clip-rule="evenodd" d="M90.0834 122.988L92.8923 120.407C89.1723 123.671 85.0727 126.025 80.3658 127.619L79.8344 127.771L77.0254 130.352C82.036 128.758 86.0597 126.48 90.0834 122.988ZM179.591 66.6564L182.4 64.0752L184.222 50.0303L167.9 46.0825L165.091 48.6637L181.413 52.6115L179.591 66.6564Z" fill="#D58D0B"/>
<path fill-rule="evenodd" clip-rule="evenodd" d="M165.091 48.6637L167.9 46.0825L167.748 46.2344L167.596 46.3862L167.368 46.4621L167.216 46.6139L167.064 46.7658L166.913 46.9176L166.685 47.0695L166.533 47.1454L166.381 47.2972L166.229 47.449L166.078 47.6009L163.269 50.1821L163.42 50.0303L163.572 49.8784L163.724 49.7266L163.876 49.5748L164.104 49.4229L164.255 49.347L164.407 49.1952L164.559 49.0433L164.787 48.8915L164.939 48.7397L165.091 48.6637Z" fill="#5C93BC"/>
<path fill-rule="evenodd" clip-rule="evenodd" d="M179.515 119.42L165.319 120.71L162.51 123.291L176.707 122.001C178.68 123.747 180.199 125.038 182.4 126.48C198.267 136.501 219.524 132.933 231.064 117.977L231.444 117.446L234.253 114.864C228.407 122.608 220.056 127.695 210.414 129.137C199.862 130.731 188.929 127.695 180.882 120.634L179.515 119.42ZM251.486 129.061C257.028 124.051 259.913 117.066 262.039 110.006L248.222 115.472L240.554 100.82L237.745 103.401L245.413 118.053L259.23 112.587L258.395 115.168C256.724 120.255 254.523 124.582 251.486 129.061Z" fill="#5C93BC"/>
<path fill-rule="evenodd" clip-rule="evenodd" d="M260.292 108.563L263.101 105.982L263.784 102.338C267.58 77.8924 256.117 53.4467 234.48 41.148C215.652 30.4435 192.117 30.7471 173.669 42.059L171.468 43.5014L168.659 46.0827C171.012 44.5643 172.834 43.4255 175.415 42.1349C197.356 31.2027 224.231 34.8467 242.375 51.4729C257.711 65.4418 264.544 86.3953 260.748 106.741L260.292 108.563Z" fill="#236CD8"/>
<path fill-rule="evenodd" clip-rule="evenodd" d="M173.593 118.888L176.402 116.307L152.944 92.8484L150.286 95.5055L173.593 118.888ZM158.865 136.881L161.674 134.3L161.978 117.674L159.169 120.255L158.865 136.881ZM115.44 55.4207L100.408 56.7872L97.5991 59.3684L112.631 58.0019L133.888 79.259L136.545 76.6019L115.44 55.4207Z" fill="#5C93BC"/>
<path fill-rule="evenodd" clip-rule="evenodd" d="M87.5778 151.154L90.3868 148.572L92.6643 134.983L72.7737 129.365C66.1689 130.048 60.0195 129.213 53.8701 126.556C39.066 120.179 30.4113 104.843 32.2334 88.8247L32.3852 87.7618L19.4791 92.8484L11.0521 76.9055L8.24316 79.4867L16.6701 95.4296L29.5762 90.3431C29.4244 90.5708 29.2725 93.9872 29.1966 94.5186C28.5893 116.535 47.0374 133.844 68.9019 132.022L69.8888 131.946L89.7795 137.564L87.5778 151.154Z" fill="#236CD8"/>
<path fill-rule="evenodd" clip-rule="evenodd" d="M39.8256 69.693C54.0224 55.4962 77.4052 55.4962 91.6019 69.693L93.9554 72.0464L94.2591 56.3314L109.519 54.9648L108 53.4465C84.7693 30.2154 46.7342 30.2154 23.5032 53.4465C17.202 59.7477 12.5709 67.1877 9.68604 75.1591L18.1889 91.3297L30.3358 86.5469C31.9301 80.2456 35.0428 74.4758 39.8256 69.693Z" fill="#0064E1"/>
<path fill-rule="evenodd" clip-rule="evenodd" d="M39.8253 121.469C31.3983 113.042 27.982 101.427 29.5004 90.3427L16.5943 95.4292L8.16733 79.4863C2.62529 99.6047 7.71183 122.077 23.4269 137.792C40.6604 155.025 66.0171 159.504 87.502 151.153L89.7795 137.564L69.8889 131.946C59.1845 133.085 48.0245 129.668 39.8253 121.469Z" fill="#236CD8"/>
<path fill-rule="evenodd" clip-rule="evenodd" d="M133.888 111.904L158.865 136.881L159.169 120.179L173.593 118.888L150.287 95.5813L133.888 111.904Z" fill="#0E66B4"/>
<path fill-rule="evenodd" clip-rule="evenodd" d="M133.888 79.2588L112.631 57.9258L97.5991 59.2923L97.2954 75.3111L117.566 95.5813L133.888 79.2588Z" fill="#0E66B4"/>
<path fill-rule="evenodd" clip-rule="evenodd" d="M183.311 64.0751C197.356 55.7241 215.956 57.6221 227.951 69.6172C235.619 77.2849 239.111 87.5339 238.58 97.631L247.083 113.802L260.368 108.563C264.62 89.28 259.305 68.2507 244.35 53.3707C223.852 32.8727 191.89 30.4433 168.735 46.0825L185.209 50.1062L183.311 64.0751Z" fill="#0E66B4"/>
<path fill-rule="evenodd" clip-rule="evenodd" d="M227.951 121.469C213.906 135.514 190.979 135.666 176.706 122.001L162.509 123.291L162.206 140.069C185.588 161.023 221.877 160.264 244.349 137.792C251.637 130.504 256.572 121.849 259.305 112.587L245.488 118.053L237.82 103.401C236.378 110.006 233.113 116.383 227.951 121.469Z" fill="#0064E1"/>
<path fill-rule="evenodd" clip-rule="evenodd" d="M108 137.792L133.888 111.904L150.211 95.5814L176.099 69.6932C177.162 68.6303 178.3 67.6434 179.515 66.6565L181.337 52.6116L165.015 48.6638C163.193 50.1063 161.447 51.7006 159.776 53.3708L133.888 79.2589L117.566 95.5814L91.6776 121.47C87.4262 125.721 82.4156 128.682 77.0254 130.428L93.7274 135.135L91.298 149.559C97.2956 146.75 102.989 142.803 108 137.792Z" fill="#FABD4F"/>
<path d="M118.587 9.41387L118.891 8.04734L116.689 5.54204L114.184 6.52898C113.348 5.54204 112.437 4.70694 111.375 4.02367L112.058 1.36653L108.034 0L106.971 2.5053C105.757 2.35347 104.466 2.42939 103.251 2.73306L101.885 0.455509L98.3926 0.986938L98.0889 2.35347L99.0758 4.85877C98.0889 5.61796 97.2538 6.60489 96.5705 7.66775L93.9134 6.98449L92.8505 9.64163L92.5469 11.0082L95.0522 12.071C94.9003 13.2857 94.9763 14.5763 95.2799 15.791L93.3061 15.8669L93.0024 17.2335L94.9003 21.0294L97.4056 20.0424C98.1648 21.0294 99.1518 21.8645 100.215 22.5477L99.5314 25.2049L103.555 26.5714L104.618 24.0661C105.833 24.218 107.123 24.142 108.338 23.8384L109.704 26.1159L113.5 24.2179L113.804 22.8514L112.513 21.7126C113.5 20.8775 114.335 19.9665 115.019 18.9037L117.676 19.5869L119.042 15.5633L119.346 14.1967L116.537 14.4245C116.689 13.2098 116.613 11.9192 116.309 10.7045L118.587 9.41387ZM108.642 19.4351C105.301 21.1053 101.277 19.6629 99.6073 16.3224C97.9371 12.982 99.3795 8.95836 102.72 7.28816C106.06 5.61796 110.084 7.06041 111.754 10.4008C113.349 13.7412 111.982 17.8408 108.642 19.4351Z" fill="#EC384E"/>
<path d="M148.727 18.7517L149.258 17.1574L144.627 15.6391L142.425 18.0685C140.983 17.4611 139.54 17.0815 138.022 16.9297L137.263 13.7411L132.708 12.906L132.176 14.5003L132.328 17.7648C130.962 18.2962 129.595 19.0554 128.456 20.0423L125.647 18.2962L123.066 20.8015L122.535 22.3958L124.964 24.5974C124.357 25.964 123.977 27.4823 123.825 29.0007L121.168 28.1656L120.637 29.7599L121.396 34.8464L124.66 34.6946C125.192 36.0611 125.951 37.4276 126.938 38.5664L125.723 39.7811L125.192 41.3754L129.291 44.488L131.493 42.0587C132.86 42.666 134.378 43.0456 135.896 43.1974L136.655 46.386L141.742 45.6268L142.273 44.0325L141.59 42.3623C142.957 41.8309 144.323 41.0717 145.462 40.0848L148.271 41.8309L151.384 37.7313L151.915 36.137L148.954 35.5297C149.562 34.0872 149.941 32.6448 150.093 31.1264L153.282 30.3672L153.813 28.7729L152.522 25.2807L149.258 25.4325C148.727 24.066 147.967 22.6995 146.98 21.5607L148.727 18.7517ZM143.564 34.9223C140.907 38.4905 135.744 39.2497 132.176 36.5925C128.608 33.9354 127.849 28.7729 130.506 25.2048C133.163 21.6366 138.326 20.8774 141.894 23.5346C145.538 26.2676 146.297 31.3542 143.564 34.9223Z" fill="#023EA1"/>
<path d="M50.2496 67.7838C50.2496 67.7838 42.8227 65.0996 42.0801 72.1083C42.0801 72.1083 40.1491 77.1784 38.2181 78.0732C36.2871 78.9679 31.6825 80.7574 32.7222 87.3187C33.762 93.8801 35.693 93.5818 34.9503 97.3099C34.2076 101.038 35.99 101.485 38.8122 101.634C41.4859 101.783 42.2286 99.2484 42.2286 99.2484L41.4859 90.5994L43.1198 76.8802L48.7642 74.6434C48.7642 74.6434 51.7349 71.0644 51.8835 69.5732C52.1806 68.3803 50.2496 67.7838 50.2496 67.7838Z" fill="#1B1156"/>
<path d="M49.3586 65.8452C49.3586 65.8452 48.3188 67.1873 48.4673 67.3364C48.7644 67.4856 51.8837 69.1259 51.8837 69.1259C51.8837 69.1259 52.7749 67.3364 52.7749 66.7399C52.6264 66.4417 49.3586 65.8452 49.3586 65.8452Z" fill="#CB4F59"/>
<path d="M69.1136 56.7489C69.2621 56.7489 69.4106 56.898 69.4106 57.0471C69.4106 58.6874 69.1136 66.5909 65.9943 69.4242C65.9943 69.4242 64.3604 71.3628 61.2411 70.7663C61.2411 70.7663 58.5675 69.1259 58.8645 72.4066C59.1616 75.8364 57.8248 79.1171 56.9336 79.7136C56.0423 80.3101 51.1406 78.968 50.2494 77.0294C49.5067 75.6873 49.2096 75.0908 48.9126 74.7926C48.9126 74.6434 48.9126 74.4943 48.9126 74.4943C49.6553 73.7487 52.0318 70.9154 53.0716 66.8891C54.4084 62.1172 53.6657 57.7927 57.9733 56.898C61.5382 55.8541 67.7767 56.5997 69.1136 56.7489Z" fill="#FFBF99"/>
<path d="M73.2727 56.4506V56.1523C73.2727 55.8541 73.2727 55.2576 73.2727 54.6611C73.1242 53.1699 72.6786 51.6787 71.6388 50.784C70.7476 50.0383 69.7079 49.7401 68.5196 49.7401C68.371 49.7401 67.9254 49.7401 67.7769 49.4419C67.0342 48.5471 64.6576 46.3103 61.3898 46.3103C57.3793 46.3103 50.6952 48.5471 48.9127 55.2576C48.7642 55.5558 46.2391 66.4417 51.4378 66.74C56.7852 67.0382 58.8647 64.354 58.7161 61.9681C58.7161 61.9681 56.191 57.1962 60.4986 58.5383C60.4986 58.5383 65.1032 59.433 68.371 57.4944C68.6681 57.3453 69.2623 57.4944 69.4108 57.7927C70.1535 58.8365 71.1932 60.4769 72.5301 59.2839C72.8271 58.6874 73.4213 58.24 73.5698 57.4944C73.2728 57.1962 73.2727 56.7488 73.2727 56.4506Z" fill="#1B1156"/>
<path d="M48.6155 74.4941C48.6155 74.4941 51.1406 78.6695 54.8541 78.6695C58.4189 78.6695 58.8646 74.7924 58.8646 74.7924C58.8646 74.7924 66.2914 81.5029 66.2914 86.1256C66.2914 90.7484 64.6575 90.0028 64.3604 91.494C64.0633 92.9852 66.8855 108.792 66.8855 108.792L67.1826 109.687L45.9419 112.669C45.9419 112.669 45.0506 109.239 44.4565 108.046C43.8623 107.003 40.8916 78.9678 40.8916 78.9678L42.377 77.4766C42.5255 77.6257 44.9021 74.7924 48.6155 74.4941Z" fill="#0064E1"/>
<path d="M47.7244 94.924C47.8729 94.924 48.0215 94.924 48.0215 95.0731L48.3186 100.441C48.3186 101.187 48.4671 101.933 49.2098 101.784C49.5069 101.634 50.101 101.485 50.8437 101.038C53.2203 99.6959 60.35 96.1169 62.4296 95.2222C62.7266 95.0731 63.1722 94.6257 63.3208 94.3275C63.4693 93.5819 64.0635 92.6871 65.5488 92.3889C67.4798 91.7924 71.1932 91.7924 71.3418 92.2398C71.4903 92.6872 71.9359 94.1784 71.6388 94.7749C71.4903 95.3713 69.7079 94.7749 69.7079 94.7749C69.7079 94.7749 66.44 94.1784 67.3313 95.3713C67.9254 96.1169 68.6681 96.1169 69.1137 96.1169C69.2622 96.1169 69.4108 96.4152 69.2622 96.4152C68.9652 96.7134 67.9254 97.1608 66.7371 97.3099C64.6576 97.459 47.5759 108.643 47.5759 108.643C47.5759 108.643 44.3081 111.178 42.2286 104.468C40.7432 99.3976 40.0005 97.3099 39.852 96.8626C39.852 96.7134 39.852 96.5643 40.0005 96.5643L47.7244 94.924Z" fill="#FFBF99"/>
<path d="M39.2577 91.494C39.2577 91.494 37.3267 77.6257 42.5255 76.8801C47.8728 76.1345 47.8728 80.459 48.0214 86.8712C48.1699 93.2835 48.0214 95.0729 48.0214 95.0729L39.8519 96.8624L39.2577 91.494Z" fill="#0054A3"/>
<path d="M75.9468 102.231L66.2919 106.257L65.2521 100.292L69.2626 99.9939L75.9468 102.231Z" fill="#FFBF99"/>
<path d="M82.6304 82.8449L97.9297 81.9502L82.1848 102.082L67.4796 102.529L82.6304 82.8449Z" fill="#1A1155"/>
<path d="M67.1827 109.687L97.1871 121.02C97.1871 121.02 101.049 121.766 101.94 131.757C102.832 141.748 103.574 175.449 103.574 175.449V176.493L96.1474 176.642L92.2854 141.002L74.6095 119.678L60.2015 110.731L67.1827 109.687Z" fill="#EE384E"/>
<path d="M45.7932 111.924L60.3498 110.582L90.7999 125.941C90.7999 125.941 98.9694 130.862 93.7706 139.66C88.4233 148.608 73.7181 175.449 73.7181 175.449L68.6679 171.572L81.7391 135.187C81.7391 135.187 82.0362 133.397 77.7286 132.95C73.5696 132.652 54.4083 130.713 51.8832 130.564C51.7347 130.564 51.5861 130.564 51.2891 130.415C49.8037 129.818 43.8622 126.985 45.7932 116.696L45.9417 112.371L45.7932 111.924Z" fill="#DE051F"/>
<path d="M103.574 176.493L110.11 180.371C110.407 180.52 110.852 180.669 111.149 180.669C111.892 180.669 113.08 180.967 113.08 182.16C113.08 182.16 113.229 183.204 110.11 183.055C106.99 182.906 97.0384 182.906 97.0384 182.906C97.0384 182.906 95.7016 182.607 95.9987 179.774L96.1472 176.643L103.574 176.493Z" fill="black"/>
<path d="M73.7185 175.45C73.7185 175.45 73.7185 177.09 75.3524 179.476C76.2436 180.818 77.2834 182.011 78.3231 183.353C78.6202 183.651 78.9173 183.95 79.0658 184.397C79.0658 184.695 79.2144 184.993 79.2144 185.143C79.2144 185.292 79.2144 185.739 78.9173 185.888C78.6202 186.037 78.0261 186.037 77.5805 185.888C77.4319 185.888 77.4319 185.888 77.2834 185.888C74.7583 184.993 67.0343 178.73 65.4004 177.537C65.2519 177.388 65.1034 177.239 65.1034 176.792C65.1034 176.195 65.1034 175.151 65.846 174.406C66.8858 173.362 68.6682 171.573 68.6682 171.573L73.7185 175.45Z" fill="black"/>
<path d="M228.831 173.066C228.831 173.066 232.71 173.26 235.62 173.26C238.433 173.26 242.991 173.842 242.991 173.842C242.991 173.842 244.155 173.842 244.252 175.297C244.349 176.752 244.349 177.334 244.349 177.334C244.349 177.334 244.446 179.08 243.088 179.08C241.73 179.08 233.001 180.049 231.061 180.049C229.122 180.049 227.667 180.437 227.667 179.08C227.57 177.722 227.473 172.969 228.831 173.066Z" fill="#160856"/>
<path d="M232.031 131.652C232.031 131.652 234.553 145.715 234.747 149.498C234.941 153.183 235.329 156.093 232.904 157.548C230.48 159.003 226.406 160.361 226.406 160.361L221.459 135.143V132.234L232.031 131.652Z" fill="#FDBD97"/>
<path d="M188.871 130.779C188.871 130.779 187.513 137.18 187.125 140.381C186.737 143.582 185.864 149.886 185.767 151.341C185.67 152.796 185.476 155.22 188.095 157.16C190.714 159.003 193.623 160.07 193.623 160.07L199.055 130.779H188.871Z" fill="#FDBD97"/>
<path d="M208.172 110.508C208.172 110.508 208.172 113.418 206.911 114.679C205.65 115.94 204.001 118.073 204.001 118.073C204.001 118.073 206.911 122.729 212.828 122.05C218.647 121.468 219.714 117.201 219.714 117.201C219.714 117.201 214.185 116.425 213.506 111.187C212.925 105.95 212.052 105.95 212.052 105.95L208.172 110.508Z" fill="#FDAE7D"/>
<path d="M203.905 98.8694C203.905 98.8694 204.099 105.562 207.299 110.799C210.403 116.037 214.186 113.127 215.738 110.411C217.192 107.695 221.169 98.8694 220.393 96.5416C219.52 94.2139 207.978 93.147 207.978 93.147L203.905 98.8694Z" fill="#FDBD97"/>
<path d="M218.744 102.652C218.744 102.652 220.393 101.391 220.393 102.652C220.393 103.913 219.52 105.756 218.55 106.047C217.483 106.241 217.677 105.659 217.968 104.786C218.162 103.913 218.744 102.652 218.744 102.652Z" fill="#FDBD97"/>
<path d="M204.39 105.368C204.874 105.562 205.359 105.659 205.359 104.98C205.359 103.719 204.486 101.876 203.517 101.585C202.45 101.391 202.644 101.973 202.935 102.846C203.032 103.137 203.129 103.428 203.226 103.816C203.42 104.398 204.002 105.174 204.39 105.368Z" fill="#FDBD97"/>
<path d="M204.195 101.973L204.001 99.8394C204.001 99.8394 205.844 100.033 207.978 97.9966C207.978 97.9966 212.051 98.9665 215.349 98.5785C218.841 98.2876 220.296 97.3177 220.296 97.3177C220.296 97.3177 219.714 101.294 219.132 102.458C219.132 102.458 220.781 101.779 221.459 99.8394C222.041 97.9966 221.944 95.9598 221.944 95.9598C221.944 95.9598 224.272 94.117 224.854 91.9833C224.854 91.9833 218.55 90.5284 216.707 89.2676C214.864 88.0067 213.797 87.1338 213.797 87.1338C213.797 87.1338 210.888 85.485 207.978 87.7157C205.068 90.0435 203.128 91.3043 203.128 95.2809C203.031 95.3779 200.316 99.1605 204.195 101.973Z" fill="#160856"/>
<path d="M204.68 115.939C204.68 115.939 200.704 115.454 198.473 116.036C196.339 116.618 195.66 116.23 196.242 117.879C196.824 119.528 199.734 127.19 198.376 131.943C197.018 136.695 195.175 161.33 195.175 161.33C195.175 161.33 210.112 161.912 215.834 162.203C221.653 162.494 225.921 161.427 225.921 161.427C225.921 161.427 227.182 150.856 225.921 146.2C224.66 141.642 223.011 133.785 223.011 133.785C223.011 133.785 221.944 123.02 223.399 120.401C224.854 117.782 225.921 117.685 224.078 117.006C222.235 116.327 220.199 115.745 218.647 115.745C217.192 115.745 216.416 115.745 215.543 116.618C214.67 117.491 212.924 119.237 210.5 118.849C208.075 118.461 206.232 116.812 206.232 116.812C206.232 116.812 205.359 116.036 204.68 115.939Z" fill="#0181F7"/>
<path d="M197.6 116.813C197.6 116.813 196.242 116.134 194.205 117.879C191.974 119.819 190.423 123.893 189.647 126.415C188.871 128.936 188.386 131.458 188.386 131.458C188.386 131.458 191.198 132.913 194.205 133.01C197.115 133.107 199.055 133.301 199.055 133.301C199.055 133.301 200.315 125.639 200.024 122.244C199.637 118.849 199.152 117.685 197.6 116.813Z" fill="#023E9F"/>
<path d="M222.236 119.625C222.236 119.625 223.399 116.424 226.018 117.879C228.637 119.334 230.577 124.959 231.256 126.705C231.838 128.451 232.613 132.04 232.613 132.04C232.613 132.04 229.51 133.398 226.794 133.591C224.175 133.785 222.333 133.979 222.333 133.979C222.333 133.979 221.266 126.996 221.46 124.28C221.654 121.565 222.236 119.625 222.236 119.625Z" fill="#023E9F"/>
<path d="M200.607 163.561H220.684L210.306 166.762L200.607 163.561Z" fill="#BA0A28"/>
<path d="M182.76 157.839C182.76 157.839 219.422 169.284 227.473 172.097C227.473 172.097 230.091 172.776 230.188 174.133C230.285 175.491 229.994 177.431 229.703 178.401C229.412 179.371 228.539 180.147 227.085 179.856C225.63 179.565 192.75 172.97 179.754 169.575L176.068 168.411C176.068 168.411 173.352 167.15 173.837 163.852C174.322 160.555 176.747 157.548 178.493 157.354C180.239 157.257 182.76 157.839 182.76 157.839Z" fill="#EC384E"/>
<path d="M179.463 174.133C179.463 174.133 184.022 173.358 186.834 173.261C189.55 173.164 193.236 172.873 193.818 173.261C194.4 173.648 194.885 178.983 194.885 178.983C194.885 178.983 195.37 180.438 191.781 180.147C188.192 179.856 179.851 179.565 179.851 179.565C179.851 179.565 178.008 179.468 177.911 177.819C177.814 176.17 178.105 175.394 178.105 175.394C178.105 175.394 178.202 174.327 179.463 174.133Z" fill="#160856"/>
<path d="M201.286 169.478C201.286 169.478 223.496 162.689 231.449 160.361C239.403 158.033 243.767 155.9 246.386 159.585C248.908 163.271 248.714 167.441 245.804 168.605C242.894 169.769 219.714 175.201 210.112 177.14C200.51 179.08 194.205 180.341 193.333 179.953C192.46 179.565 191.49 176.752 191.684 175.201C191.878 173.649 191.975 173.067 193.817 172.291C195.66 171.418 201.286 169.478 201.286 169.478Z" fill="#DB061F"/>
<path d="M198.764 137.083H225.533C225.533 137.083 226.988 136.889 226.988 138.829C226.988 140.768 226.988 161.912 226.988 161.912C226.988 161.912 227.085 163.464 225.921 163.464C224.757 163.464 194.496 163.464 194.496 163.464C194.496 163.464 193.236 163.852 193.236 161.718C193.236 159.584 193.236 138.247 193.236 138.247C193.236 138.247 193.139 137.083 194.69 137.083C196.145 137.083 198.764 137.083 198.764 137.083Z" fill="#0064B5"/>
<path d="M211.76 150.177L209.82 148.625L208.269 150.565L210.208 152.117L211.76 150.177Z" fill="#579CD2"/>
<path d="M19.6167 147.67C19.6167 147.67 22.0831 146.667 21.898 143.842C21.7188 141.011 20.2617 139.011 23.2655 139.829C26.2753 140.647 27.2845 141.011 29.4762 140.558C31.6559 140.104 33.4833 139.19 32.5278 142.015C31.5723 144.845 30.5392 147.21 32.7905 147.67C35.0419 148.124 37.4605 146.422 37.7471 150.853C38.0338 155.278 34.4626 160.259 28.6879 160.444C22.9132 160.623 20.3572 158.234 20.3572 158.234C20.3572 158.234 18.8105 156.054 21.2231 155.505C23.6417 154.968 26.1021 153.94 24.8719 152.812C23.6417 151.683 19.6287 151.593 19.6287 151.593C19.6287 151.593 14.5944 150.584 19.6167 147.67Z" fill="#649EEA"/>
<path d="M46.0238 148.399C45.6177 145.575 45.9282 143.544 51.1715 142.78C56.4147 142.015 59.4723 145.162 59.7888 148.399C60.1053 151.636 55.5488 152.812 55.5488 152.812C55.5488 152.812 52.3121 153.732 53.9543 156.563C55.5906 159.393 56.3431 162.128 52.6167 162.54C48.8903 162.952 44.8175 161.967 42.5422 160.456C40.2729 158.939 37.9439 155.106 40.5476 153.105C40.5476 153.105 41.2762 152.603 43.7844 152.466C46.2925 152.323 46.0238 148.399 46.0238 148.399Z" fill="#023EA1"/>
<path d="M27.5679 147.945C27.5679 147.945 31.9273 157.799 32.5185 164.505" stroke="#023EA1" stroke-miterlimit="10"/>
<path d="M51.7894 149.564C51.7894 149.564 44.0798 161.012 42.2524 164.84" stroke="#649EEA" stroke-miterlimit="10"/>
<path d="M29.8295 163.723H47.5239C47.5239 163.723 49.4648 163.86 49.2976 166.506C49.1543 168.942 46.0608 168.411 44.4664 168.411C42.8719 168.411 29.4413 168.411 29.4413 168.411C29.4413 168.411 27.2676 168.781 27.2676 166.32C27.2735 163.854 28.0977 163.723 29.8295 163.723Z" fill="#0054A5"/>
<path d="M29.4531 168.417L32.1285 184.057H44.0124L46.0249 172.316L29.471 168.417H29.4531Z" fill="#0054A5"/>
<path d="M29.4717 168.417L46.0255 172.316L46.6944 168.417H29.4717Z" fill="#006AD5"/>
<path d="M37.082 164.314C37.082 164.314 37.9778 146.965 43.1494 136.079" stroke="#FCBE42" stroke-miterlimit="10"/>
<path d="M47.4132 129.82C47.4132 129.82 47.8372 135.147 42.6418 137.225C42.6358 137.231 41.5131 132.681 47.4132 129.82Z" fill="#FCBE42"/>
<path d="M39.6064 146.774C39.6064 146.774 41.5234 142.229 47.4116 142.838C47.4176 142.832 46.9577 147.365 39.6064 146.774Z" fill="#FCBE42"/>
<path d="M37.6772 158.205C37.6772 158.205 38.6686 153.374 44.5627 152.818C44.5568 152.818 44.9927 157.339 37.6772 158.205Z" fill="#FCBE42"/>
<path d="M37.4685 158.228C37.4685 158.228 38.1493 153.349 32.7806 150.847C32.7806 150.847 30.8577 154.974 37.4685 158.228Z" fill="#FCBE42"/>
<path d="M39.6733 146.739C39.6733 146.739 40.9752 141.979 35.9649 138.82C35.9708 138.82 33.5284 142.66 39.6733 146.739Z" fill="#FCBE42"/>
</svg>
