<svg width="270" height="186" viewBox="0 0 270 186" fill="none" xmlns="http://www.w3.org/2000/svg">
<path d="M250.112 158.193H19.9282V158.286H250.112V158.193Z" fill="#EBEBEB"/>
<path d="M63.6444 162.285H44.6172V162.378H63.6444V162.285Z" fill="#EBEBEB"/>
<path d="M102.349 161.355H83.3213V161.448H102.349V161.355Z" fill="#EBEBEB"/>
<path d="M127.223 161.355H122.583V161.448H127.223V161.355Z" fill="#EBEBEB"/>
<path d="M81.0937 165.261H59.8389V165.354H81.0937V165.261Z" fill="#EBEBEB"/>
<path d="M154.697 162.099H144.858V162.192H154.697V162.099Z" fill="#EBEBEB"/>
<path d="M171.682 162.099H158.781V162.192H171.682V162.099Z" fill="#EBEBEB"/>
<path d="M233.776 164.145H205.003V164.238H233.776V164.145Z" fill="#EBEBEB"/>
<path d="M129.079 137.64H40.1619C38.7696 137.64 37.4702 136.431 37.4702 134.943V9.6721C37.4702 8.2771 38.6768 6.9751 40.1619 6.9751H129.079C130.472 6.9751 131.771 8.1841 131.771 9.6721V134.85C131.678 136.431 130.564 137.64 129.079 137.64ZM40.1619 7.0681C38.7696 7.0681 37.7487 8.2771 37.7487 9.4861V134.85C37.7487 136.245 38.9553 137.268 40.1619 137.268H129.079C130.472 137.268 131.493 136.059 131.493 134.85V9.6721C131.493 8.2771 130.286 7.2541 129.079 7.2541H40.1619V7.0681Z" fill="#EBEBEB"/>
<path d="M228.485 137.64H139.568C138.175 137.64 136.876 136.431 136.876 134.943V9.6721C136.876 8.2771 138.083 6.9751 139.568 6.9751H228.485C229.877 6.9751 231.177 8.1841 231.177 9.6721V134.85C231.177 136.431 230.156 137.64 228.485 137.64ZM139.753 7.0681C138.361 7.0681 137.34 8.2771 137.34 9.4861V134.85C137.34 136.245 138.547 137.268 139.753 137.268H228.671C230.063 137.268 231.084 136.059 231.084 134.85V9.6721C231.084 8.2771 229.877 7.2541 228.671 7.2541H139.753V7.0681Z" fill="#EBEBEB"/>
<path d="M207.881 16.2751H160.359V77.4692H207.881V16.2751Z" fill="#E6E6E6"/>
<path d="M207.509 16.2751H158.038V77.4692H207.509V16.2751Z" fill="#F0F0F0"/>
<path d="M207.881 77.4692H160.359V79.7012H207.881V77.4692Z" fill="#E6E6E6"/>
<path d="M203.797 77.4692H154.326V79.7012H203.797V77.4692Z" fill="#F0F0F0"/>
<path d="M204.446 19.623H161.473V74.2141H204.446V19.623Z" fill="#FAFAFA"/>
<path d="M189.967 74.214L184.677 19.53H175.581L180.778 74.214H189.967Z" fill="white"/>
<path d="M202.776 55.7072C202.868 55.7072 203.054 55.6142 203.054 55.4282V21.7622C203.054 21.6692 202.961 21.4832 202.776 21.4832C202.59 21.4832 202.497 21.5762 202.497 21.7622V55.5212C202.497 55.6142 202.59 55.7072 202.776 55.7072Z" fill="#F0F0F0"/>
<path d="M178.922 74.214L173.631 19.53H170.104L175.395 74.214H178.922Z" fill="white"/>
<path d="M161.751 19.53H161.287V74.121H161.751V19.53Z" fill="#E6E6E6"/>
<path opacity="0.5" d="M157.203 23.994H205.467L205.931 20.925H157.574L157.203 23.994Z" fill="#E0E0E0"/>
<path opacity="0.5" d="M157.203 28.8302H205.467L205.931 25.8542H157.574L157.203 28.8302Z" fill="#E0E0E0"/>
<path opacity="0.5" d="M157.203 33.8522H205.467L205.931 30.6902H157.574L157.203 33.8522Z" fill="#E0E0E0"/>
<path opacity="0.5" d="M157.203 38.7812H205.467L205.931 35.7122H157.574L157.203 38.7812Z" fill="#E0E0E0"/>
<path opacity="0.5" d="M157.203 43.7101H205.467L205.931 40.6411H157.574L157.203 43.7101Z" fill="#E0E0E0"/>
<path opacity="0.5" d="M157.203 48.6391H205.467L205.931 45.5701H157.574L157.203 48.6391Z" fill="#E0E0E0"/>
<path d="M192.752 108.531C193.958 107.322 192.752 105.834 194.237 104.811C195.722 103.788 194.515 102.114 194.515 100.626C194.515 99.1381 196.464 98.8591 197.207 97.2781C197.485 96.5341 197.207 95.6041 196.743 94.8601C195.815 93.0931 193.494 92.9071 192.195 94.1161C192.195 94.1161 192.102 94.2091 191.916 94.3951C190.71 95.8831 191.916 97.2781 190.617 98.4871C189.317 99.5101 186.997 99.7891 187.276 101.37C187.368 103.137 185.605 103.23 184.862 104.625C184.305 105.462 184.77 106.857 185.141 107.787C185.419 108.531 185.976 108.996 186.626 109.182C187.925 109.461 190.895 110.391 192.752 108.531Z" fill="#EBEBEB"/>
<path d="M195.164 112.623C197.114 111.786 196.371 109.368 198.784 108.81C201.197 108.252 200.455 105.555 201.105 103.788C201.94 101.928 204.446 102.579 205.838 100.905C206.766 99.696 206.581 97.557 206.209 96.162C205.931 95.139 205.003 94.302 203.889 94.209C202.961 94.209 201.94 94.302 201.012 94.953C199.063 96.255 199.527 98.673 197.67 99.231C195.721 99.975 192.658 98.952 192.101 101.184C191.359 103.137 189.224 102.672 187.461 103.881C186.161 104.718 186.254 107.136 186.44 108.438C186.44 108.996 186.718 109.461 187.182 109.926C188.389 110.949 191.916 114.111 195.164 112.623Z" fill="#E0E0E0"/>
<path d="M193.772 102.858C195.072 101.928 196.186 103.323 197.578 101.928C198.877 100.533 200.362 102.207 201.755 102.3C203.24 102.579 203.704 100.44 205.56 100.347C206.303 100.254 207.231 100.626 207.88 101.184C209.551 102.393 209.551 104.532 207.88 105.834C207.788 105.834 207.788 105.927 207.602 105.927C205.931 106.857 204.725 105.462 203.425 106.671C202.219 107.88 201.662 110.019 200.084 109.554C198.413 109.182 198.135 110.949 196.743 111.507C195.814 111.972 194.515 111.228 193.865 110.763C193.308 110.391 192.844 109.833 192.659 109.089C192.195 107.508 191.731 104.346 193.772 102.858Z" fill="#EBEBEB"/>
<path d="M180.036 104.811C180.036 104.811 180.5 118.296 195.814 118.296C211.222 118.296 211.593 104.811 211.593 104.811H180.036Z" fill="#F5F5F5"/>
<path d="M116.643 21.4832H52.4141V57.3811H116.643V21.4832Z" fill="#E6E6E6"/>
<path d="M116.085 21.4832H51.8569V57.3811H116.085V21.4832Z" fill="#F5F5F5"/>
<path d="M111.445 26.2261H56.4976V53.0101H111.445V26.2261Z" fill="white"/>
<path d="M57.0545 26.2261H56.4976V53.0101H57.0545V26.2261Z" fill="#E6E6E6"/>
<path d="M78.7382 29.8325L60.3975 31.009L60.9964 40.3832L79.3372 39.2067L78.7382 29.8325Z" fill="#F5F5F5"/>
<path d="M79.292 39.7855L60.9512 40.9622L61.5502 50.3364L79.891 49.1598L79.292 39.7855Z" fill="#F5F5F5"/>
<path d="M91.2372 30.3185L79.1953 31.0911L80.0494 44.4563L92.0913 43.6837L91.2372 30.3185Z" fill="#F5F5F5"/>
<path d="M104.036 31.7102L91.9937 32.4827L92.4978 40.3719L104.54 39.5993L104.036 31.7102Z" fill="#F5F5F5"/>
<path d="M108.568 39.6661L92.4507 40.7L92.8006 46.176L108.918 45.1421L108.568 39.6661Z" fill="#F5F5F5"/>
<path d="M197.392 88.164C197.299 88.164 197.021 88.164 196.928 88.164C193.215 82.026 186.347 77.562 178.458 77.562C170.661 77.562 163.978 81.747 160.08 87.792C158.688 86.769 157.203 86.118 155.347 86.118C151.077 86.118 147.364 89.745 147.364 94.116C147.364 94.395 147.364 94.581 147.364 94.86C140.774 95.232 135.391 100.812 135.391 107.508C135.391 114.483 141.053 120.156 148.014 120.156H197.206C206.117 120.156 213.356 112.809 213.356 103.974C213.542 95.418 206.395 88.164 197.392 88.164Z" fill="#407BFF"/>
<path d="M197.392 88.164C197.299 88.164 197.021 88.164 196.928 88.164C193.215 82.026 186.347 77.562 178.458 77.562C170.661 77.562 163.978 81.747 160.08 87.792C158.688 86.769 157.203 86.118 155.347 86.118C151.077 86.118 147.364 89.745 147.364 94.116C147.364 94.395 147.364 94.581 147.364 94.86C140.774 95.232 135.391 100.812 135.391 107.508C135.391 114.483 141.053 120.156 148.014 120.156H197.206C206.117 120.156 213.356 112.809 213.356 103.974C213.542 95.418 206.395 88.164 197.392 88.164Z" fill="#023EA1"/>
<path d="M171.032 102.951C171.032 102.951 173.445 138.105 173.91 144.243C174.281 150.381 175.673 171.492 175.673 171.492H181.799L185.976 102.672L171.032 102.951Z" fill="#0054A3"/>
<path d="M194.236 103.323C194.236 103.323 193.494 120.993 193.215 125.55C192.844 130.107 196.464 145.452 198.32 152.334C200.176 159.216 203.054 166.656 203.054 166.656L198.32 169.446C198.32 169.446 187.739 150.846 184.119 139.686C180.407 128.619 177.622 112.158 178.086 102.672L194.236 103.323Z" fill="#0064E1"/>
<path d="M168.062 78.0269L163.329 84.1649C163.329 84.1649 162.957 84.6299 162.029 84.4439C161.101 84.1649 152.191 81.0959 152.191 81.0959C152.191 81.0959 150.891 80.5379 150.52 79.4219C150.149 78.3989 150.056 78.1199 149.777 77.9339C149.499 77.6549 149.313 77.6549 149.406 77.0039C149.685 76.2599 149.685 76.0739 149.685 76.0739C149.685 76.0739 149.963 75.6089 149.406 75.6089C148.849 75.6089 148.571 75.7019 148.385 76.1669C148.107 76.6319 148.292 77.8409 148.292 77.8409H146.529C146.529 77.8409 145.322 77.8409 145.322 79.1429C145.322 80.4449 145.322 82.4909 145.322 82.4909C145.322 82.4909 145.044 83.2349 146.065 83.2349C147.086 83.2349 147.921 83.2349 147.921 83.2349C147.921 83.2349 148.664 83.1419 149.87 84.0719C151.077 85.0019 160.08 90.1169 160.08 90.1169C160.08 90.1169 163.236 91.9769 165.185 90.0239C167.134 88.0709 171.682 83.1419 171.682 83.1419L171.96 81.6539L168.062 78.0269Z" fill="#FFBF99"/>
<path d="M183.098 61.2871C183.098 61.2871 183.655 64.0771 184.769 66.8671C185.976 69.6571 186.44 70.6801 186.44 70.6801C186.44 70.6801 183.098 74.4931 179.85 74.0281C176.508 73.4701 176.508 71.2381 176.508 71.2381C176.508 71.2381 179.664 68.8201 179.664 65.2861C179.664 61.7521 179.664 61.9381 179.664 61.9381L183.098 61.2871Z" fill="#FFBF99"/>
<path d="M175.859 70.866C175.859 70.866 173.074 72.54 172.053 73.284C170.847 74.214 167.505 78.027 167.505 78.027L172.146 82.584L175.395 78.864L175.859 70.866Z" fill="#F59E28"/>
<path d="M185.14 69.564C185.14 69.564 183.47 71.889 181.335 72.354C179.015 72.912 177.994 71.145 177.994 71.145L177.437 70.308C177.437 70.308 176.88 69.843 176.137 70.401C175.395 70.959 174.188 72.354 172.981 74.679C171.775 77.004 171.496 80.259 171.218 87.699C170.94 95.139 171.218 103.323 171.218 103.323H194.329L194.608 91.698C194.608 91.698 192.194 76.26 189.874 73.098C187.461 69.936 186.718 69.285 186.718 69.285C186.718 69.285 186.069 68.634 185.14 69.564Z" fill="#FABD4F"/>
<path d="M176.137 53.7541C176.137 53.7541 174.466 56.0791 174.466 59.8921C174.466 63.7051 175.023 66.4951 176.787 66.4951C178.55 66.4951 181.892 65.2861 182.356 64.1701C182.913 62.9611 184.026 62.9611 184.026 60.8221C184.026 58.5901 181.242 53.4751 178.921 53.4751C176.88 53.7541 176.137 53.7541 176.137 53.7541Z" fill="#FFBF99"/>
<path d="M174.559 53.754C174.559 53.754 172.889 49.197 174.002 48.639C175.023 48.081 177.344 49.197 177.808 49.848C178.365 50.406 179.479 50.406 180.128 50.406C180.128 50.406 185.697 50.406 186.718 51.615C187.925 52.824 187.925 53.289 187.925 53.94C187.925 54.498 187.925 56.73 188.482 57.753C188.76 58.218 189.039 60.543 187.925 62.868C186.718 65.1 185.604 65.658 185.14 65.658C184.583 65.658 184.119 65.658 183.934 65.1C183.934 64.542 183.655 63.612 183.377 62.775C183.098 62.031 182.82 60.45 182.82 60.45C182.82 60.45 182.263 57.66 181.149 56.637C180.128 55.428 179.943 55.428 177.808 54.963C175.673 54.312 175.116 55.335 174.559 53.754Z" fill="#1A1155"/>
<path d="M182.17 57.9391C181.335 58.8691 182.448 60.6361 182.448 60.6361C182.448 60.6361 184.119 61.1941 184.119 59.4271C183.934 57.6601 183.005 56.7301 182.17 57.9391Z" fill="#EEBD98"/>
<path d="M193.308 81.561C193.308 81.561 195.257 89.559 195.071 94.674C194.7 99.789 193.215 104.067 192.194 107.229C190.988 110.112 190.431 111.042 190.338 112.902C190.338 114.855 189.41 117.087 188.389 118.11C187.182 119.319 186.44 119.877 186.44 119.877C186.44 119.877 185.047 120.435 185.233 119.319C185.233 119.319 184.305 119.319 184.676 118.761C184.676 118.761 183.469 118.761 184.305 117.831C185.233 116.901 186.718 115.971 186.718 115.971C186.718 115.971 187.646 114.483 186.347 115.227C185.047 115.971 183.934 115.971 185.047 114.762C186.254 113.553 187.461 111.507 188.76 107.787C189.781 103.974 191.08 96.534 189.595 90.675C188.203 85.002 186.347 83.142 186.347 83.142L193.308 81.561Z" fill="#FFBF99"/>
<path d="M198.32 168.795C198.32 168.795 197.114 171.957 196 173.445C194.793 174.933 193.772 175.863 193.772 175.863C193.772 175.863 192.38 178.188 194.051 177.537C195.721 176.793 204.632 170.934 204.632 170.934C204.632 170.934 205.931 170.19 205.374 169.167C204.817 168.144 203.425 165.912 203.425 165.912L198.32 168.795Z" fill="#1A1155"/>
<path d="M181.706 175.677C181.706 175.677 182.077 176.607 180.035 176.607C178.179 176.607 167.876 176.607 167.876 176.607C167.876 176.607 165.927 176.142 167.784 175.305C169.64 174.375 175.209 171.957 175.209 171.957C175.209 171.957 175.673 171.864 175.673 170.748H181.799L181.706 175.677Z" fill="#1A1155"/>
<path d="M184.49 76.0741C184.49 76.0741 184.026 72.2611 186.811 71.8891C189.595 71.5171 191.359 75.1441 192.287 77.4691C193.215 79.8871 193.679 81.6541 193.679 81.6541C193.679 81.6541 187.739 84.0721 186.254 84.0721C186.254 84.0721 184.862 80.1661 184.49 76.0741Z" fill="#F59E28"/>
<path d="M93.9025 80.724L93.624 80.259C94.5522 79.794 95.5732 79.236 96.5013 78.864L96.7798 79.329C95.7588 79.701 94.8306 80.166 93.9025 80.724Z" fill="#EE384E"/>
<path d="M85.8273 86.6761L85.5488 86.3041C87.2195 84.5371 88.8902 83.0491 91.1178 81.7471L91.3962 82.1191C89.3543 83.5141 87.498 85.0021 85.8273 86.6761Z" fill="#EE384E"/>
<path d="M81.0938 93.744C81.3723 93.744 81.5579 93.744 81.8364 93.744C87.6838 84.072 98.1719 77.562 110.145 77.562C122.026 77.562 132.328 83.979 138.083 93.279C140.032 91.791 142.724 90.861 145.508 90.861C152.376 90.861 157.667 96.441 157.667 103.044C157.667 103.416 157.667 103.881 157.667 104.253C167.877 104.811 176.137 113.46 176.137 123.783C176.137 134.571 167.413 143.313 156.646 143.313H81.1867C67.4499 143.313 56.312 132.246 56.312 118.389C56.4048 104.811 67.4499 93.744 81.0938 93.744Z" fill="#EE384E"/>
<path opacity="0.2" d="M146.436 75.051L154.326 120.063C154.604 121.551 153.583 122.946 152.098 123.225L123.975 127.968C122.49 128.247 121.097 127.224 120.819 125.736L112.93 80.724L146.436 75.051Z" fill="black"/>
<path d="M158.688 114.297L148.2 73.0982L137.897 69.7502L113.951 75.7952C112.93 76.0742 112.187 77.1902 112.559 78.2132L123.975 123.132C124.253 124.155 125.367 124.899 126.388 124.527L157.389 116.622C158.224 116.436 158.874 115.413 158.688 114.297Z" fill="white"/>
<path d="M125.831 125.178C124.625 125.178 123.882 124.434 123.418 123.318L112.002 78.3992C111.723 77.6552 112.002 77.0972 112.28 76.5392C112.651 75.9812 113.208 75.6092 113.765 75.3302L137.712 69.2852C137.804 69.2852 137.99 69.2852 137.99 69.2852L148.293 72.6332C148.385 72.6332 148.571 72.9122 148.664 73.0052L159.245 114.204C159.523 114.948 159.245 115.506 158.966 116.064C158.595 116.622 158.038 116.994 157.481 117.273L126.481 125.178C126.295 125.178 126.017 125.178 125.831 125.178ZM137.897 70.1222L114.136 76.1672C113.672 76.2602 113.394 76.5392 113.208 76.9112C112.93 77.2832 112.93 77.6552 112.93 78.1202L124.346 123.039C124.439 123.504 124.717 123.783 125.089 123.969C125.46 124.248 125.831 124.248 126.295 124.248L157.296 116.343C157.76 116.25 158.038 115.971 158.224 115.599C158.502 115.227 158.502 114.855 158.502 114.39L148.2 73.3772L137.897 70.1222Z" fill="#3864B2"/>
<path d="M148.293 73.191L137.99 69.75L143.095 75.237C143.838 76.074 145.044 76.074 145.88 75.33L148.293 73.191Z" fill="#3864B2"/>
<path d="M144.487 76.1671C143.745 76.1671 143.188 75.8881 142.631 75.3301L137.526 69.8431C137.433 69.7501 137.248 69.4711 137.526 69.2851C137.619 69.0061 137.897 69.0061 138.083 69.0061L148.385 72.3541C148.478 72.3541 148.664 72.6331 148.757 72.7261C148.757 73.0051 148.757 73.0981 148.664 73.1911L146.251 75.4231C145.601 76.0741 145.044 76.1671 144.487 76.1671ZM139.568 70.5871L143.373 74.7721C143.93 75.3301 144.858 75.5161 145.323 74.8651L147.179 73.1911L139.568 70.5871Z" fill="#3864B2"/>
<path d="M136.505 105.276L141.517 100.533L142.074 102.486C144.765 101.277 146.251 98.3011 145.415 95.4181C144.58 92.1631 141.238 90.2101 137.99 91.1401L137.433 88.9081C141.981 87.6991 146.622 90.5821 147.643 94.9531C148.664 99.1381 146.436 103.323 142.538 104.811L143.095 107.136L136.505 105.276Z" fill="#3864B2"/>
<path d="M135.577 90.3961L130.565 95.1391L130.008 93.1861C127.316 94.3951 125.831 97.3711 126.667 100.254C127.502 103.509 130.843 105.462 134.092 104.532L134.649 106.764C130.101 107.973 125.46 105.09 124.439 100.719C123.418 96.5341 125.646 92.3491 129.544 90.8611L128.987 88.5361L135.577 90.3961Z" fill="#3864B2"/>
<path d="M66.0039 76.7026C65.8387 77.1148 65.5083 77.5269 65.1778 77.9391C65.0126 78.3513 64.6822 78.8459 64.3518 79.2581C63.8562 80.1648 63.3605 81.1541 62.8649 82.0608C61.9562 83.8744 61.1302 85.7704 60.5519 87.6664L60.3867 88.4083C60.3867 88.4083 60.3867 88.4083 60.3867 88.3259V88.2434C60.3867 88.2434 60.3867 88.161 60.3041 88.0786C60.3041 87.9961 60.2215 87.9137 60.2215 87.9137C60.1389 87.7488 60.0563 87.584 59.8085 87.5015C59.478 87.3367 59.3954 87.3367 59.478 87.4191C59.5606 87.5015 59.8911 87.5015 60.3041 87.5015C60.7171 87.5015 61.2128 87.5015 61.791 87.4191C63.7735 87.0894 65.9213 86.5948 67.9865 86.1001L69.2255 88.7381C68.2343 89.3975 67.1604 89.9746 66.0865 90.3868C65.0952 90.8814 63.9388 91.376 62.7823 91.7057C62.1214 91.8706 61.5432 92.1179 60.9649 92.2003C60.6345 92.2827 60.2215 92.2828 59.8085 92.2828C59.3954 92.2828 58.9824 92.2827 58.4868 92.2003C57.9911 92.1179 57.3303 92.0354 56.6694 91.376C56.339 91.2111 56.0912 90.7165 55.7608 90.3868C55.6782 90.2219 55.5956 89.9746 55.4303 89.7273C55.3477 89.5624 55.3477 89.3151 55.2651 89.0678V88.7381V88.5732C55.2651 88.4083 55.2651 88.2434 55.2651 88.0786C55.2651 87.9137 55.2651 87.7488 55.2651 87.6664V87.5015V87.4191L55.4303 86.5123C55.5956 85.2758 56.0912 84.0393 56.4216 82.8852C56.8347 81.7311 57.2477 80.6595 57.7433 79.5878C58.2389 78.5161 58.7346 77.4445 59.3954 76.4553C59.7259 75.9607 60.0563 75.4661 60.3041 74.889C60.5519 74.312 60.9649 73.8998 61.2954 73.3228L66.0039 76.7026Z" fill="#FFBE9D"/>
<path d="M67.1606 77.2797C66.7476 78.1865 66.4171 79.0933 66.0041 79.9176C65.3433 81.4015 64.6824 82.5555 64.1868 83.5448C63.7737 84.3691 63.4433 84.7813 63.4433 84.7813L56.0088 81.0717C56.0088 81.0717 58.9826 72.4161 62.1216 71.5093C65.4259 70.6025 68.8127 73.158 67.1606 77.2797Z" fill="#F59E28"/>
<path d="M70.1341 98.5479C70.1341 98.5479 67.4907 122.207 65.756 130.78C63.856 140.26 51.2173 170.678 51.2173 170.678L45.1045 169.359C48.1609 158.808 52.539 139.188 55.3476 131.687C57.4128 120.311 55.0998 105.967 58.1562 97.1465L70.1341 98.5479Z" fill="#0054A3"/>
<path d="M76.4121 99.2897C76.4121 99.2897 78.0642 124.515 78.312 133.665C78.5599 143.227 76.1643 171.585 76.1643 171.585H70.2993C70.2993 171.585 67.8211 145.288 68.9776 132.511C67.4907 122.784 64.269 97.8059 64.269 97.8059L76.4121 99.2897Z" fill="#0064E1"/>
<path d="M50.8869 170.431L45.2697 169.112C45.1045 169.03 44.9392 169.112 44.8566 169.442L43.0393 173.316C42.7915 173.646 43.0393 174.058 43.4523 174.305H43.5349C45.4349 174.635 46.7566 174.965 49.1521 175.377C50.639 175.624 54.9346 176.778 56.8345 177.273C58.817 177.768 59.4779 175.872 58.6518 175.542C55.265 173.893 52.7042 172.245 51.7955 170.926C51.5477 170.843 51.2999 170.678 50.8869 170.431Z" fill="#170856"/>
<path d="M76.0815 171.667H70.2991C70.0512 171.667 69.9686 171.75 69.9686 172.08L69.1426 176.201C69.1426 176.614 69.3078 176.943 69.7208 177.026H69.8034C71.7034 176.943 73.0251 176.943 75.5032 176.861C76.9901 176.778 81.5335 176.943 83.4334 176.861C85.3333 176.778 85.6638 174.882 84.7551 174.718C81.0378 173.976 78.2292 172.986 76.9901 171.915C76.6597 171.75 76.3293 171.667 76.0815 171.667Z" fill="#170856"/>
<path d="M81.9464 56.8358C81.9464 56.8358 80.8726 66.5631 78.6422 68.9537C77.4031 70.9322 73.438 68.9537 73.438 68.9537L72.4468 72.8282L67.3252 71.0146L71.6207 55.7642L81.9464 56.8358Z" fill="#FFBE9D"/>
<path d="M67.8208 67.1402C68.2339 67.8821 69.1425 68.2118 69.9686 68.2118C71.2077 68.1294 72.4468 67.3875 73.438 66.9753C73.6859 66.8929 73.8511 66.728 74.0163 66.6456C74.5945 66.3158 75.751 65.9036 75.9162 64.9144C75.9162 64.3374 75.5858 63.9252 75.5032 63.3482C75.4206 62.8536 75.6684 62.2765 76.164 62.1941C76.9901 61.8643 77.6509 62.6887 77.4857 63.3482C77.4031 63.5955 77.3205 63.9252 77.4857 64.0076C77.7336 64.0901 77.8988 63.9252 78.064 63.7603C78.3118 63.2657 78.477 62.6887 78.6422 62.1116C78.7248 61.5346 79.0552 60.9576 79.6335 60.6278C79.9639 60.3805 80.3769 60.4629 80.79 60.4629C81.0378 60.4629 81.1204 60.4629 81.2856 60.4629C82.4421 60.4629 83.516 59.721 83.8464 58.5669C84.1768 57.4129 83.4334 56.3412 83.4334 56.3412C83.4334 56.3412 83.5986 54.6101 81.616 54.2803C79.3857 54.033 79.1379 54.7749 76.3292 53.6209C74.3467 52.7965 72.1163 54.6101 72.1163 54.6101C70.3816 54.1155 69.5556 55.1871 69.5556 55.1871C68.6469 55.7642 68.3165 57.0007 68.1513 58.0723C67.986 59.2264 68.1513 60.2981 67.9861 61.3697C67.9034 62.4414 67.6556 63.4306 67.4904 64.4198C67.3252 65.4915 67.3252 66.5631 67.8208 67.4699" fill="#170856"/>
<path d="M65.0951 72.9106C65.0124 71.839 65.0951 70.1078 65.9211 69.8605C66.7472 69.6132 71.9513 69.943 74.5947 72.0038C73.6861 73.6525 73.7687 75.3012 73.7687 75.3012L65.0951 72.9106Z" fill="#F59E28"/>
<path opacity="0.2" d="M64.1862 76.2905L60.3037 82.9677L60.6341 83.215C60.6341 83.215 62.121 81.7312 63.8558 79.6704L64.1862 76.2905Z" fill="black"/>
<path d="M79.3033 87.0069C78.6424 90.3043 77.6512 94.426 76.4121 99.4546L58.2388 97.2288C58.404 94.9207 61.0474 84.7812 60.3865 73.8998C60.3039 72.416 61.7082 71.1794 63.4429 71.1794C64.269 71.1794 65.3429 71.2619 66.2515 71.3443C68.5645 71.5092 71.9514 71.8389 73.9339 72.3335C76.7425 72.8281 79.0555 73.8174 79.0555 73.8174C79.0555 73.8174 80.3772 75.3836 79.7163 82.473C79.4685 83.7095 79.3859 85.1934 79.3033 87.0069Z" fill="#FABD4F"/>
<path d="M80.7075 76.7026C80.8727 77.0324 81.1205 77.4445 81.451 77.9392C81.7814 78.3513 82.1118 78.7635 82.3596 79.2581C83.0205 80.0825 83.5987 80.9892 84.3422 81.896C85.6639 83.5447 87.1508 85.1934 88.6377 86.6772C89.0507 87.007 89.3811 87.3367 89.7942 87.584L89.8768 87.7489H89.9594C89.8768 87.7489 89.7942 87.7489 89.7942 87.6665C89.6289 87.6665 89.3811 87.6665 89.3811 87.6665C89.2985 87.7489 89.5463 87.6665 89.8768 87.5016C90.2072 87.3367 90.6202 87.007 90.868 86.6772C92.3549 85.3583 93.6766 83.4623 94.9983 81.7312L97.5591 82.9677C97.1461 84.2042 96.7331 85.2759 96.2374 86.3475C96.0722 86.9245 95.7418 87.5016 95.4114 87.9962C95.0809 88.4908 94.7505 89.1503 94.4201 89.6449C94.0897 90.1395 93.594 90.6341 92.9332 91.2936C92.6028 91.4585 92.2723 91.7882 91.9419 92.1179C91.5289 92.2828 91.1158 92.6126 90.455 92.7774C89.7942 92.9423 89.1333 92.9423 88.3899 92.7774C87.9768 92.695 87.6464 92.6126 87.3986 92.3652L87.316 92.2828L86.9856 91.9531L86.8203 91.8706C86.2421 91.4585 85.6639 91.1287 85.1682 90.7166C83.1031 89.0679 81.3684 87.3367 79.7988 85.4407C78.9728 84.5339 78.2293 83.5447 77.5685 82.5555C77.1555 82.0609 76.825 81.5663 76.5772 80.9892C76.2468 80.4946 75.9164 80 75.5859 79.1757L80.7075 76.7026Z" fill="#FFBE9D"/>
<path d="M94.9155 81.4838L96.8981 78.5986L99.2936 82.0609C99.2936 82.0609 97.4763 83.7096 95.8242 83.5447L94.9155 81.4838Z" fill="#FFBE9D"/>
<path d="M100.698 77.1973L101.277 80.4947L99.294 82.0609L96.8984 78.5987L100.698 77.1973Z" fill="#FFBE9D"/>
<path d="M73.1904 77.0324C73.273 80.3298 79.9641 87.7489 79.9641 87.7489L87.0682 83.1326C87.0682 83.1326 84.7552 78.9284 81.9466 75.8783C77.4859 71.262 72.9425 73.0756 73.1904 77.0324Z" fill="#F59E28"/>
</svg>
