<svg width="270" height="186" viewBox="0 0 270 186" fill="none" xmlns="http://www.w3.org/2000/svg">
<g clip-path="url(#clip0_3375_3745)">
<path d="M205.17 144.062C205.17 144.062 205.16 146.12 204.294 148.812L200.7 150.821L203.713 150.932C201.229 158.994 194.421 170.877 175.579 170.621C175.625 171.049 164.145 150.08 205.17 144.062Z" fill="#FABD41"/>
<path d="M201.558 156.685L186.427 159.822L205.17 144.062" stroke="white" stroke-width="0.680161" stroke-miterlimit="10"/>
<path d="M192.332 147.061L186.427 159.822" stroke="white" stroke-width="0.680161" stroke-miterlimit="10"/>
<path d="M191.925 132.486C191.925 132.486 186.56 129.812 185.831 132.705C185.102 135.599 183.721 135.639 182.214 135.583C180.708 135.528 178.174 134.5 177.582 137.596C177.001 140.798 178.109 142.52 176.729 143.643C175.349 144.765 171.391 150.928 174.576 151.562C177.646 152.207 180.932 149.473 182.049 148.054C183.156 146.528 185.78 146.247 187.766 146.467C189.981 146.663 192.514 145.526 191.348 143.268C190.183 141.011 191.3 138.509 193.08 137.885C194.952 137.035 195.692 134.248 191.925 132.486Z" fill="#1C4599"/>
<path d="M189.587 135.444L173.995 153.681" stroke="white" stroke-width="0.680161" stroke-miterlimit="10" stroke-linecap="round" stroke-linejoin="round"/>
<path d="M181.291 137.74L183.222 142.839L189.363 143.048" stroke="white" stroke-width="0.680161" stroke-miterlimit="10" stroke-linecap="round" stroke-linejoin="round"/>
<path d="M197.27 139.277C197.27 139.277 197.591 142.275 195.296 141.329C193.002 140.384 191.507 140.436 190.835 142.782C190.163 145.128 188.771 146.143 187.241 145.874C185.712 145.604 183.201 144.791 182.495 147.898C181.8 151.113 179.794 157.175 183.493 158.295C187.077 159.427 192.211 156.712 192.895 154.473C193.567 152.127 192.436 150.19 194.981 149.16C197.525 148.129 198.371 150.638 200.47 148.68C202.569 146.723 205.147 144.931 203.046 141.474C200.978 138.339 197.44 137.635 197.27 139.277Z" stroke="#ED3B4E" stroke-width="0.680161" stroke-miterlimit="10"/>
<path d="M198.185 142.428C198.185 142.428 184.302 155.068 179.818 157.389" stroke="#ED3B4E" stroke-width="0.680161" stroke-miterlimit="10"/>
<path d="M186.421 147.911L186.571 152.551L190.612 153.634" stroke="#ED3B4E" stroke-width="0.680161" stroke-miterlimit="10"/>
<path d="M193.586 142.595L194.192 146.104L197.445 147.38" stroke="#ED3B4E" stroke-width="0.680161" stroke-miterlimit="10"/>
<path d="M167.452 103.505C152.182 99.4137 143.127 83.6891 147.228 68.3835C151.329 53.0778 167.033 43.9872 182.304 48.0789C197.574 52.1706 206.629 67.8952 202.527 83.2008C198.426 98.5064 182.723 107.597 167.452 103.505Z" stroke="#DD1F26" stroke-width="0.680161" stroke-miterlimit="10" stroke-dasharray="4.08 4.08"/>
<path d="M200.301 68.5609C198.379 68.0459 197.24 66.067 197.756 64.1408C198.272 62.2146 200.248 61.0705 202.17 61.5854C204.092 62.1004 205.231 64.0793 204.715 66.0055C204.199 67.9318 202.223 69.0758 200.301 68.5609Z" fill="#24499F"/>
<path d="M202.261 66.692L199.786 65.0186L202.191 63.9453L202.261 66.692Z" fill="white"/>
<path d="M140.94 15.4101C140.94 15.4101 137.41 18.3418 140.738 19.6561C144.167 20.9703 145.479 22.5878 143.764 25.8228C141.848 29.0578 142.453 31.5852 144.167 32.7983C146.084 34.0115 149.614 35.8312 146.79 39.976C143.966 44.222 139.326 52.7139 134.384 50.3888C129.341 48.0636 126.92 39.7739 128.937 36.5388C130.955 33.3038 134.283 32.394 132.568 28.6535C131.055 24.913 127.525 26.7327 127.424 22.3856C127.324 17.9374 126.718 13.3882 132.871 11.9729C138.116 10.6586 142.352 13.2871 140.94 15.4101Z" stroke="#1C4599" stroke-width="0.680161" stroke-miterlimit="10"/>
<path d="M136.098 18.241C136.098 18.241 136.703 46.2441 138.317 53.2197" stroke="#1C4599" stroke-width="0.680161" stroke-miterlimit="10"/>
<path d="M142.352 35.9324L137.006 40.9871L131.66 38.0554" stroke="#1C4599" stroke-width="0.680161" stroke-miterlimit="10"/>
<path d="M140.839 22.8911L136.502 26.025L131.56 24.1042" stroke="#1C4599" stroke-width="0.680161" stroke-miterlimit="10"/>
<path d="M152.74 15.7135C152.74 15.7135 161.213 18.342 158.893 22.1836C156.371 25.9241 157.784 27.5416 159.498 28.9569C161.011 30.3722 164.945 31.9897 162.02 35.8313C159.095 39.6729 156.17 40.4817 156.371 43.1101C156.573 45.7386 153.85 56.3535 149.916 53.9272C145.882 51.6021 145.579 45.2331 146.184 42.4025C146.79 39.774 144.268 36.7412 141.948 34.7193C139.628 32.7985 138.317 28.9569 141.847 27.7438C145.478 26.4296 147.193 22.6891 146.084 20.0606C144.47 17.6343 146.991 14.096 152.74 15.7135Z" fill="#FABD41"/>
<path d="M151.933 21.4758L147.697 57.3644" stroke="white" stroke-width="0.680161" stroke-miterlimit="10" stroke-linecap="round" stroke-linejoin="round"/>
<path d="M157.884 32.4951L150.118 36.0334L143.461 30.3721" stroke="white" stroke-width="0.680161" stroke-miterlimit="10" stroke-linecap="round" stroke-linejoin="round"/>
<path d="M113.001 20.667C113.001 20.667 109.571 18.1397 111.79 15.2079C113.908 12.2762 119.355 12.2762 120.464 15.1069C121.675 17.7353 120.061 19.7572 122.482 20.1616C124.801 20.566 131.156 22.6889 129.945 25.7218C128.634 28.7546 124.902 28.9568 126.516 33.0006C128.029 37.0444 135.896 37.752 131.862 43.4133C127.827 48.9735 118.447 56.6567 113.606 47.0527C108.966 37.4487 119.254 39.3695 113.707 33.2028C108.159 27.036 112.799 26.8338 114.312 24.5086C115.724 21.8802 113.001 20.667 113.001 20.667Z" fill="#ED3B4E"/>
<path d="M119.355 24.2056C119.355 24.2056 119.96 35.326 123.793 44.5256C127.626 53.7252 130.046 54.9383 130.046 54.9383" stroke="white" stroke-width="0.680161" stroke-miterlimit="10" stroke-linecap="round" stroke-linejoin="round"/>
<path d="M96.5092 38.5486C95.236 38.5486 94.1943 39.3585 94.1943 40.5732V176.924C94.1943 178.038 95.236 178.949 96.5092 178.949H180.192C181.465 178.949 182.507 178.139 182.507 176.924V40.3707C182.507 39.2572 181.465 38.3462 180.192 38.3462H96.5092V38.5486Z" fill="#1466B1"/>
<path d="M179.021 47.6423H97.6802V170.234H179.021V47.6423Z" fill="white" stroke="#1466B1" stroke-width="1.36032" stroke-miterlimit="10"/>
<rect x="105.233" y="55.1951" width="63.9103" height="9.29604" rx="4.64802" fill="#EC384E"/>
<path d="M149.002 43.3727C149.002 43.9793 148.598 44.2826 148.094 44.2826H131.149C130.544 44.2826 130.241 43.8782 130.241 43.3727C130.241 42.7662 130.645 42.4629 131.149 42.4629H148.094C148.396 42.4629 149.002 42.7662 149.002 43.3727Z" fill="white"/>
<path d="M212.637 101.094L207.49 102.541L208.933 107.7L214.08 106.254L212.637 101.094Z" fill="#ED3B4E"/>
<path d="M74.4672 47.2274L69.3198 48.6741L70.7632 53.8333L75.9105 52.3866L74.4672 47.2274Z" fill="#24499F"/>
<path d="M87.1885 19.5055C87.1885 19.5055 87.0876 19.4044 86.9868 19.5055L85.4739 19.7077C85.2721 19.7077 85.0704 19.6066 84.8687 19.5055C84.7678 18.6967 84.2635 18.0902 84.0618 17.3825C83.9609 17.2814 84.0618 16.9781 84.1626 16.7759L85.373 15.8661C85.373 15.8661 85.4739 15.765 85.4739 15.6639C85.4739 15.5628 85.4738 15.5628 85.373 15.4617L83.3557 13.5409C83.3557 13.5409 83.2549 13.4398 83.154 13.4398C83.0532 13.4398 83.0532 13.4398 82.9523 13.5409L82.0445 14.754C81.9437 14.8551 81.6411 14.9562 81.4394 14.8551C80.7333 14.4508 80.1282 14.1475 79.3213 14.0464C79.1195 14.0464 78.9178 13.8442 79.1195 13.4398L79.3213 11.9234C79.3213 11.8223 79.3213 11.8223 79.3213 11.7212C79.3213 11.7212 79.2204 11.6201 79.1195 11.6201H76.598C76.4971 11.6201 76.4971 11.6201 76.3963 11.7212C76.3963 11.7212 76.2954 11.8223 76.3963 11.9234L76.598 13.4398C76.598 13.642 76.4971 13.8442 76.3963 14.0464C75.5894 14.1475 74.9842 14.653 74.2782 14.8551C74.1773 14.9562 73.8747 14.8551 73.673 14.754L72.7652 13.5409C72.7652 13.5409 72.6644 13.4398 72.5635 13.4398C72.4626 13.4398 72.4626 13.4398 72.3618 13.5409L70.5463 15.5628C70.5463 15.5628 70.4454 15.6639 70.4454 15.765C70.4454 15.8661 70.4454 15.8661 70.5463 15.9672L71.7566 16.877C71.8575 16.9781 71.9583 17.2814 71.8575 17.4836C71.454 18.1913 71.1514 18.7978 71.0506 19.6066C71.0506 19.8088 70.8489 20.011 70.4454 19.8088L68.9325 19.6066C68.8316 19.6066 68.8316 19.6066 68.7307 19.6066C68.7307 19.6066 68.6299 19.7077 68.6299 19.8088V22.3361C68.6299 22.4372 68.6299 22.4372 68.7307 22.5383C68.7307 22.5383 68.8316 22.6394 68.9325 22.5383L70.4454 22.3361C70.6471 22.3361 70.8488 22.4372 71.0506 22.5383C71.1514 23.3471 71.6557 23.9536 71.8575 24.6613C71.9583 24.7624 71.8575 25.0657 71.7566 25.2679L70.5463 26.0766C70.5463 26.0766 70.4454 26.1777 70.4454 26.2788C70.4454 26.3799 70.4454 26.3799 70.5463 26.481L72.4626 28.4018C72.4626 28.4018 72.5635 28.5029 72.6644 28.5029C72.7652 28.5029 72.7652 28.5029 72.8661 28.4018L73.7739 27.1887C73.8747 27.0876 74.1773 26.9865 74.379 27.0876C75.0851 27.4919 75.6902 27.7952 76.4971 27.8963C76.6989 27.8963 76.9006 28.0985 76.6988 28.5029L76.4971 30.0193C76.4971 30.1204 76.4971 30.1204 76.4971 30.2215C76.4971 30.2215 76.598 30.3226 76.6988 30.3226H79.2204C79.3213 30.3226 79.3213 30.3226 79.4221 30.2215C79.4221 30.2215 79.523 30.1204 79.4221 30.0193L79.1195 28.604C79.1195 28.4018 79.2204 28.1996 79.3213 27.9974C80.1282 27.8963 80.7333 27.3909 81.4394 27.1887C81.5402 27.0876 81.8428 27.1887 82.0445 27.2898L82.9523 28.5029C82.9523 28.5029 83.0532 28.604 83.154 28.604C83.2549 28.604 83.2549 28.604 83.3557 28.5029L85.2721 26.5821C85.2721 26.5821 85.373 26.481 85.373 26.3799C85.373 26.2788 85.373 26.2788 85.2721 26.1777L84.1626 25.1668C84.0618 25.0657 83.9609 24.7624 84.0618 24.5602C84.4652 23.8525 84.7678 23.246 84.8687 22.4372C84.8687 22.235 85.0704 22.0328 85.4739 22.235L86.9868 22.4372C87.0876 22.4372 87.0876 22.4372 87.1885 22.4372C87.1885 22.4372 87.2894 22.3361 87.2894 22.235V19.7077C87.1885 19.8088 87.1885 19.7077 87.1885 19.5055ZM86.6842 22.1339L85.373 22.0328C84.7678 22.0328 84.2635 22.235 84.1626 22.8416C84.0618 23.5493 83.7592 24.1558 83.3557 24.7624C83.154 25.369 83.2549 25.8744 83.5575 26.0766L84.4652 26.7843L83.154 28.0985L82.448 27.1887C82.2463 26.7843 81.5402 26.5821 81.1368 26.9865C80.5316 27.3909 79.9264 27.6941 79.2204 27.7952C78.6152 27.8963 78.3126 28.5029 78.4135 29.0084L78.5144 30.3226H76.598L76.6988 29.0084C76.6988 28.4018 76.4971 27.8963 75.892 27.7952C75.1859 27.6941 74.5807 27.3909 73.9756 26.9865C73.3704 26.7843 72.8661 26.8854 72.6644 27.1887L71.9583 28.0985L70.6471 26.7843L71.5549 26.0766C71.9583 25.8744 72.1601 25.1668 71.7566 24.7624C71.3532 24.1558 71.0506 23.5493 70.9497 22.8416C70.8489 22.235 70.2437 21.9318 69.7394 22.0328L68.8316 22.1339V20.2131L70.1428 20.3142C70.748 20.3142 71.2523 20.1121 71.3532 19.5055C71.454 18.7978 71.7566 18.1913 72.1601 17.5847C72.3618 16.9781 72.2609 16.4727 71.9583 16.2705L71.0506 15.5628L72.5635 14.2486L73.1687 15.1584C73.3704 15.5628 74.0764 15.765 74.4799 15.3606C75.0851 14.9562 75.6902 14.653 76.3963 14.5519C77.0014 14.4508 77.304 13.8442 77.2032 13.3387L77.1023 12.0245H79.0187L78.9178 13.3387C78.9178 13.9453 79.1195 14.4508 79.7247 14.5519C80.4307 14.653 81.0359 14.9562 81.6411 15.3606C82.1454 15.6639 82.6497 15.5628 82.8514 15.1584L83.5575 14.2486L84.8687 15.5628L83.6583 16.2705C83.2549 16.4727 83.0532 17.1803 83.4566 17.5847C83.8601 18.1913 84.1626 18.7978 84.2635 19.5055C84.3644 20.1121 84.9695 20.4153 85.4739 20.3142L86.7851 20.2131V22.1339H86.6842Z" stroke="#24499F" stroke-width="0.680161" stroke-miterlimit="10"/>
<path d="M77.6069 16.6748C75.0853 16.6748 73.1689 18.6967 73.1689 21.123C73.1689 23.5492 75.1862 25.5711 77.6069 25.5711C80.1284 25.5711 82.0448 23.5492 82.0448 21.123C82.0448 18.6967 80.2293 16.6748 77.6069 16.6748ZM77.6069 24.9645C75.4888 24.9645 73.875 23.2459 73.875 21.2241C73.875 19.2022 75.5896 17.4836 77.6069 17.4836C79.6241 17.4836 81.3388 19.2022 81.3388 21.2241C81.3388 23.2459 79.725 24.9645 77.6069 24.9645Z" stroke="#24499F" stroke-width="0.680161" stroke-miterlimit="10"/>
<path d="M194.727 21.1287H187.263C187.162 21.1287 187.061 21.2298 187.061 21.3309V24.3637V24.4648L187.868 25.2735H187.969H193.516H193.617L194.424 24.4648V24.3637V21.3309C194.928 21.2298 194.928 21.1287 194.727 21.1287ZM194.424 24.1615L193.617 24.9703H188.372L187.565 24.1615V21.533H194.424V24.1615Z" fill="#24499F"/>
<path d="M195.13 21.9375L186.859 22.3419C186.759 22.3419 186.658 22.443 186.658 22.5441C186.658 22.6452 186.759 22.7463 186.859 22.7463L195.13 22.3419C195.231 22.3419 195.332 22.2408 195.332 22.1397C195.433 22.0386 195.332 21.9375 195.13 21.9375Z" fill="#24499F"/>
<path d="M195.13 23.2517L186.859 23.6561C186.759 23.6561 186.658 23.7572 186.658 23.8583C186.658 23.9594 186.759 24.0605 186.859 24.0605L195.13 23.6561C195.231 23.6561 195.332 23.555 195.332 23.4539C195.433 23.3528 195.332 23.2517 195.13 23.2517Z" fill="#24499F"/>
<path d="M191.096 6.46997C186.96 6.46997 183.632 9.80609 183.632 13.951C183.632 16.4783 184.943 18.8035 187.061 20.2188V21.533C187.061 21.6341 187.162 21.7352 187.263 21.7352H194.727C194.828 21.7352 194.928 21.6341 194.928 21.533V20.2188C197.046 18.9046 198.358 16.5794 198.358 13.951C198.358 9.80609 195.13 6.46997 191.096 6.46997ZM194.727 19.7133L194.626 21.0276H187.767V19.8144C187.767 19.8144 187.767 19.7133 187.666 19.7133C185.548 18.3991 184.338 16.2761 184.338 13.8499C184.338 10.1094 187.565 6.97544 191.196 6.97544C194.928 6.97544 198.055 10.2105 198.055 13.8499C197.954 16.2761 196.744 18.3991 194.727 19.7133Z" fill="#24499F"/>
<path d="M193.012 25.0713C192.911 25.0713 192.81 25.0713 192.81 25.1724C192.81 25.1724 192.407 25.9811 191.095 25.9811C189.784 25.9811 189.381 25.2735 189.381 25.1724C189.381 25.0713 189.28 25.0713 189.179 25.0713C189.078 25.0713 189.078 25.1724 189.078 25.2735C189.078 25.2735 189.683 26.3855 191.196 26.3855C192.709 26.3855 193.314 25.4757 193.314 25.2735C193.213 25.2735 193.213 25.1724 193.012 25.0713Z" fill="#24499F"/>
<path d="M181.816 13.5466H177.479C177.378 13.5466 177.277 13.6477 177.277 13.7488C177.277 13.8499 177.378 13.951 177.479 13.951H181.816C181.917 13.951 182.018 13.8499 182.018 13.7488C182.018 13.5466 182.018 13.5466 181.816 13.5466Z" fill="#DD1F26"/>
<path d="M204.712 13.5466H200.375C200.274 13.5466 200.173 13.6477 200.173 13.7488C200.173 13.8499 200.274 13.951 200.375 13.951H204.712C204.813 13.951 204.914 13.8499 204.914 13.7488C204.813 13.5466 204.712 13.5466 204.712 13.5466Z" fill="#DD1F26"/>
<path d="M183.229 18.3993C183.229 18.2982 183.027 18.2982 183.027 18.3993L179.396 20.5223C179.295 20.5223 179.295 20.7245 179.396 20.7245C179.396 20.7245 179.497 20.8256 179.598 20.8256C179.598 20.8256 179.598 20.8256 179.699 20.8256L183.33 18.7026C183.229 18.5004 183.229 18.3993 183.229 18.3993Z" fill="#DD1F26"/>
<path d="M202.998 6.8744C202.998 6.77331 202.796 6.77331 202.796 6.8744L199.165 8.99739C199.064 8.99739 199.064 9.19958 199.165 9.19958C199.165 9.19958 199.266 9.30067 199.367 9.30067C199.367 9.30067 199.367 9.30067 199.468 9.30067L203.099 7.17769C203.099 7.07659 203.099 6.9755 202.998 6.8744Z" fill="#DD1F26"/>
<path d="M197.955 1.81958C197.854 1.81958 197.753 1.81958 197.753 1.81958L195.635 5.45898C195.635 5.56008 195.635 5.66117 195.635 5.66117C195.635 5.66117 195.635 5.66117 195.736 5.66117C195.836 5.66117 195.836 5.66117 195.937 5.56008L197.955 1.81958C198.156 2.02177 198.156 1.81958 197.955 1.81958Z" fill="#DD1F26"/>
<path d="M191.096 0C190.995 0 190.894 0.101095 190.894 0.202189V4.54925C190.894 4.65035 190.995 4.75144 191.096 4.75144C191.197 4.75144 191.297 4.65035 191.297 4.54925V0.202189C191.197 0.101095 191.197 0 191.096 0Z" fill="#DD1F26"/>
<path d="M186.557 5.66151L184.439 2.02211C184.439 1.92102 184.237 1.92102 184.237 2.02211C184.136 2.02211 184.136 2.2243 184.237 2.2243L186.355 5.8637C186.355 5.8637 186.456 5.96479 186.557 5.96479C186.557 5.96479 186.557 5.96479 186.658 5.96479C186.557 5.8637 186.658 5.66151 186.557 5.66151Z" fill="#DD1F26"/>
<path d="M202.997 20.32L199.366 18.197C199.265 18.197 199.165 18.197 199.165 18.2981C199.165 18.3992 199.165 18.5003 199.165 18.5003L202.796 20.6233C202.796 20.6233 202.796 20.6233 202.896 20.6233C202.896 20.6233 202.997 20.6233 203.098 20.5222C203.098 20.6233 203.098 20.5222 202.997 20.32Z" fill="#DD1F26"/>
<path d="M183.128 8.9975L179.497 6.87451C179.396 6.87451 179.295 6.87451 179.295 6.87451C179.295 6.97561 179.295 7.0767 179.295 7.0767L182.926 9.19968C182.926 9.19968 182.926 9.19968 183.027 9.19968C183.128 9.19968 183.128 9.19968 183.128 8.9975C183.229 9.09859 183.229 8.9975 183.128 8.9975Z" fill="#DD1F26"/>
<path d="M191.802 21.1288V14.1533C191.802 14.1533 191.701 10.8171 193.517 10.8171C195.332 10.8171 194.424 14.2544 190.995 14.2544" stroke="#24499F" stroke-width="0.680161" stroke-miterlimit="10"/>
<path d="M190.087 21.1288V14.1533C190.087 14.1533 190.188 10.8171 188.373 10.8171C186.456 10.8171 187.465 14.2544 190.894 14.2544" stroke="#24499F" stroke-width="0.680161" stroke-miterlimit="10"/>
<rect x="106.014" y="78.4353" width="13.9441" height="12.7821" rx="2" fill="#DDE9F5"/>
<rect x="106.014" y="98.241" width="13.9441" height="12.7821" rx="2" fill="#DDE9F5"/>
<rect x="106.014" y="118.825" width="13.9441" height="12.7821" rx="2" fill="#DDE9F5"/>
<rect x="125.589" y="78.4353" width="13.9441" height="12.7821" rx="2" fill="#DDE9F5"/>
<rect x="125.589" y="98.241" width="13.9441" height="12.7821" rx="2" fill="#DDE9F5"/>
<rect x="125.589" y="118.825" width="13.9441" height="12.7821" rx="2" fill="#DDE9F5"/>
<rect x="145.164" y="78.4353" width="13.9441" height="12.7821" rx="2" fill="#DDE9F5"/>
<rect x="145.164" y="98.241" width="13.9441" height="12.7821" rx="2" fill="#DDE9F5"/>
<rect x="145.164" y="118.825" width="13.9441" height="12.7821" rx="2" fill="#DDE9F5"/>
<path d="M87.1575 116.372C87.1575 116.372 84.7968 149.056 84.458 154.852C84.1138 160.648 82.8734 180.172 82.8734 180.172H77.0756L73.1631 116.014L87.1575 116.372Z" fill="#DE051F"/>
<path d="M65.3441 116.714C65.3441 116.714 66.0271 133.18 66.3331 137.355C66.6337 141.53 63.3277 155.806 61.4425 162.15C59.5518 168.499 56.8906 175.525 56.8906 175.525L61.4425 178.128C61.4425 178.128 71.273 160.659 74.7975 150.352C78.3166 140.044 80.9395 124.619 80.5078 115.928L65.3441 116.714Z" fill="#EE384E"/>
<path d="M90.0162 93.3289L94.4369 99.1629C94.4369 99.1629 94.7812 99.6292 95.6008 99.4178C96.415 99.2063 104.923 96.1375 104.923 96.1375C104.923 96.1375 106.109 95.6116 106.426 94.6736C106.737 93.7356 106.885 93.5079 107.071 93.253C107.256 92.9982 107.53 93.0307 107.371 92.4018C107.213 91.7783 107.125 91.518 107.125 91.518C107.125 91.518 106.94 91.0789 107.311 91.0789C107.683 91.0789 108.082 91.1656 108.289 91.5939C108.486 92.0223 108.437 93.0579 108.437 93.0579L110.256 93.1283C110.256 93.1283 111.371 93.1663 111.371 94.3212C111.371 95.476 111.371 97.4062 111.371 97.4062C111.371 97.4062 111.53 98.0081 110.715 98.0081C109.901 98.0081 109.043 97.9809 109.043 97.9809C109.043 97.9809 108.36 97.9105 107.24 98.7183C106.12 99.5262 97.5954 104.368 97.5954 104.368C97.5954 104.368 94.65 106.114 92.7156 104.281C90.7812 102.449 86.5354 97.9159 86.5354 97.9159L86.3223 96.4791L90.0162 93.3289Z" fill="#FFBF99"/>
<path d="M75.7864 77.7036C75.7864 77.7036 75.2618 80.317 74.2071 82.9358C73.1525 85.5546 72.6279 86.5956 72.6279 86.5956C72.6279 86.5956 75.7864 90.2553 78.9557 89.7294C82.1142 89.2089 82.1142 87.1161 82.1142 87.1161C82.1142 87.1161 79.2126 84.763 79.2126 81.6237C79.2126 78.4844 79.2126 78.4898 79.2126 78.4898L75.7864 77.7036Z" fill="#FFB48F"/>
<path d="M82.7598 86.5146C82.7598 86.5146 85.3827 87.9623 86.4701 88.8786C87.563 89.7949 90.716 93.3951 90.716 93.3951L86.3991 97.5537L83.3936 94.1704L82.7598 86.5146Z" fill="#F79F03"/>
<path d="M73.9617 85.2877C73.9617 85.2877 75.5409 87.3805 77.6502 87.901C79.7595 88.4215 80.8086 86.8546 80.8086 86.8546L81.3879 86.1064C81.3879 86.1064 81.9726 85.6509 82.6174 86.1877C83.2622 86.7136 84.4917 88.0691 85.5572 90.2596C86.6282 92.4446 86.9397 95.4375 87.1638 102.426C87.3878 109.415 87.1638 116.957 87.1638 116.957H65.3662L65.1094 106.097C65.1094 106.097 67.4263 91.653 69.7049 88.7143C71.9836 85.7756 72.6448 85.1359 72.6448 85.1359C72.6448 85.1359 73.1694 84.4202 73.9617 85.2877Z" fill="#FCBE42"/>
<path d="M82.3824 70.6387C82.3824 70.6387 83.9616 72.7315 83.9616 76.3968C83.9616 80.0565 83.4371 82.6753 81.8524 82.6753C80.2677 82.6753 77.1038 81.6289 76.5792 80.5825C76.0546 79.536 75 79.536 75 77.4486C75 75.3612 77.6338 70.6495 79.7486 70.6495C81.8578 70.6495 82.3824 70.6387 82.3824 70.6387Z" fill="#FFBF99"/>
<path d="M83.9612 70.6389C83.9612 70.6389 85.5404 66.4586 84.4858 65.9272C83.4311 65.4067 81.3273 66.4477 80.7973 66.9736C80.2727 67.4942 79.2181 67.4942 78.688 67.4942C78.688 67.4942 73.4148 67.4942 72.3602 68.5406C71.3056 69.587 71.3056 70.1075 71.3056 70.6334C71.3056 71.1539 71.3001 73.2089 70.781 74.2932C70.557 74.7649 70.2564 76.9066 71.3056 79.0049C72.3548 81.0977 73.4148 81.6182 73.9394 81.6182C74.464 81.6182 74.9394 81.6183 74.9941 81.0977C75.0542 80.5339 75.2618 79.7368 75.5186 79.0049C75.77 78.3055 76.0432 76.912 76.0432 76.912C76.0432 76.912 76.5678 74.2987 77.6224 73.2522C78.6771 72.2058 78.6771 72.2058 80.7809 71.6853C82.9065 71.1702 83.4366 72.2058 83.9612 70.6389Z" fill="#170856"/>
<path d="M76.8524 74.4612C77.6339 75.3504 76.5792 76.9173 76.5792 76.9173C76.5792 76.9173 75 77.4379 75 75.8709C75 74.304 76.0656 73.5666 76.8524 74.4612Z" fill="#FFBF99"/>
<path d="M66.2942 96.4741C66.2942 96.4741 64.3161 104.027 64.6604 108.76C65.0046 113.488 66.4199 117.587 67.4472 120.439C68.4745 123.291 69.0811 123.974 69.1193 125.769C69.1576 127.563 70.0046 129.689 71.0537 130.757C72.1029 131.825 72.9444 132.356 72.9444 132.356C72.9444 132.356 74.1903 132.931 73.9936 131.782C73.9936 131.782 74.8296 131.847 74.5127 131.207C74.5127 131.207 75.6274 131.229 74.8132 130.356C73.999 129.477 72.4963 128.632 72.4963 128.632C72.4963 128.632 71.6384 127.271 72.8624 127.954C74.0865 128.632 75.1575 128.659 74.0264 127.553C72.8898 126.446 71.5783 124.511 70.6166 120.97C69.6548 117.435 68.5128 110.446 69.8734 105.079C71.234 99.711 72.9553 97.9218 72.9553 97.9218L66.2942 96.4741Z" fill="#FFBF99"/>
<path d="M61.6337 177.775C61.6337 177.775 62.6829 180.698 63.8468 182.042C65.0107 183.387 65.9288 184.368 65.9288 184.368C65.9288 184.368 67.2839 186.521 65.7539 185.881C64.2293 185.241 55.7923 179.619 55.7923 179.619C55.7923 179.619 54.5901 179.001 55.1475 177.981C55.7048 176.962 57.1201 174.989 57.1201 174.989L61.6337 177.775Z" fill="#170856"/>
<path d="M77.1315 184.299C77.1315 184.299 76.82 185.15 78.5905 185.15C80.361 185.15 90.0166 185.15 90.0166 185.15C90.0166 185.15 91.8745 184.782 90.1641 183.957C88.4428 183.133 83.2953 180.834 83.2953 180.834C83.2953 180.834 82.9019 180.731 82.9128 179.75H77.0659L77.1315 184.299Z" fill="#170856"/>
<path d="M74.5519 91.4425C74.5519 91.4425 74.9235 87.9345 72.3497 87.5983C69.776 87.2622 68.1421 90.6671 67.2842 92.8793C66.4263 95.0914 65.9946 96.7126 65.9946 96.7126C65.9946 96.7126 71.5301 98.9247 72.9891 98.9247C72.9945 98.9247 74.224 95.2486 74.5519 91.4425Z" fill="#F79F03"/>
</g>
<defs>
<clipPath id="clip0_3375_3745">
<rect width="270" height="186" fill="white"/>
</clipPath>
</defs>
</svg>
