<svg width="270" height="186" viewBox="0 0 270 186" fill="none" xmlns="http://www.w3.org/2000/svg">
<path d="M160.874 76.8168C147.854 73.3281 140.133 59.9205 143.63 46.8702C147.127 33.8199 160.517 26.0687 173.537 29.5575C186.557 33.0463 194.278 46.4539 190.781 59.5042C187.284 72.5545 173.894 80.3056 160.874 76.8168Z" stroke="#DD1F26" stroke-width="0.680161" stroke-miterlimit="10" stroke-dasharray="4.08 4.08"/>
<path d="M188.883 47.0215C187.245 46.5824 186.273 44.8951 186.713 43.2527C187.153 41.6103 188.838 40.6348 190.477 41.0739C192.115 41.513 193.087 43.2003 192.647 44.8427C192.207 46.4851 190.522 47.4606 188.883 47.0215Z" fill="#24499F"/>
<path d="M190.554 45.4283L188.444 44.0014L190.494 43.0863L190.554 45.4283Z" fill="white"/>
<path d="M95.7784 2.82754C95.7784 2.82754 94.0556 6.68426 97.3998 6.37978C100.744 6.0753 102.467 6.78575 102.365 10.135C102.163 13.5857 103.683 15.4126 105.608 15.6156C107.635 15.8186 111.283 15.8186 110.777 20.2842C110.27 24.8514 109.966 33.6812 105 33.8842C100.035 34.0872 94.5623 28.4036 94.8663 24.9529C95.1703 21.5021 97.5011 19.3708 94.5623 17.0365C91.7248 14.6007 89.698 17.5439 87.8739 14.0932C85.9484 10.541 83.6176 7.09023 87.9752 3.4365C91.5221 0.0872493 96.0824 0.493219 95.7784 2.82754Z" stroke="#1C4599" stroke-miterlimit="10"/>
<path d="M93.0425 7.09033C93.0425 7.09033 105.102 29.5202 109.358 34.4933" stroke="#1C4599" stroke-width="0.5" stroke-miterlimit="10"/>
<path d="M105.405 18.8633L103.176 25.1558L97.7036 25.0543" stroke="#1C4599" stroke-width="0.5" stroke-miterlimit="10"/>
<path d="M98.8191 8.91724L96.5896 13.2814L91.8267 13.7889" stroke="#1C4599" stroke-width="0.5" stroke-miterlimit="10"/>
<path d="M75.308 18.7619C75.308 18.7619 71.4571 18.1529 72.0651 14.8037C72.5718 11.5559 77.0308 9.32308 79.0576 11.0484C81.1857 12.6723 80.679 15.0067 82.8071 14.2962C84.9353 13.6872 90.9143 12.7738 91.117 15.7171C91.3197 18.7619 88.3808 20.3858 91.3197 23.0246C94.2585 25.6634 100.846 23.0246 99.9336 29.2156C99.0215 35.4066 94.5625 45.5559 86.658 39.7708C78.8549 33.9857 88.0768 31.1439 80.983 28.5051C73.8892 25.8663 77.6388 23.735 77.8415 21.1977C77.9428 18.6604 75.308 18.7619 75.308 18.7619Z" fill="#ED3B4E"/>
<path d="M81.895 18.9648C81.895 18.9648 86.962 27.7947 93.9545 33.5797C100.947 39.3648 103.379 39.4663 103.379 39.4663" stroke="white" stroke-width="0.5" stroke-miterlimit="10" stroke-linecap="round" stroke-linejoin="round"/>
<path d="M93.6509 32.2603V163.388C93.6509 167.55 96.9951 170.797 101.049 170.797H166.21C168.237 170.797 170.162 169.985 171.48 168.565C172.797 167.245 173.608 165.317 173.608 163.287V32.2603C173.608 28.0991 170.264 24.8513 166.21 24.8513H101.15C99.9339 24.8513 98.8192 25.1558 97.8058 25.6633C95.3737 26.8812 93.6509 29.4185 93.6509 32.2603Z" fill="#012257"/>
<path d="M96.4883 32.2603V163.388C96.4883 167.55 99.8325 170.797 103.886 170.797H169.048C171.074 170.797 173 169.985 174.317 168.565C175.635 167.245 176.445 165.317 176.445 163.287V32.2603C176.445 28.0991 173.101 24.8513 169.048 24.8513H103.886C102.67 24.8513 101.555 25.1558 100.542 25.6633C98.1097 26.8812 96.4883 29.4185 96.4883 32.2603Z" fill="#1466B1"/>
<path d="M95.0692 57.1261C93.5491 57.1261 92.333 55.9082 92.333 54.3859V48.0933C92.333 46.5709 93.5491 45.353 95.0692 45.353V57.1261Z" fill="#1466B1"/>
<path d="M95.0692 72.5529C93.5491 72.5529 92.333 71.335 92.333 69.8126V63.5201C92.333 61.9977 93.5491 60.7798 95.0692 60.7798V72.5529Z" fill="#1466B1"/>
<path d="M176.546 57.1261C177.762 57.1261 178.675 56.1112 178.675 54.9948V47.4844C178.675 46.2665 177.661 45.353 176.546 45.353V57.1261Z" fill="#18285D"/>
<path d="M100.136 31.8544V163.896C100.136 165.723 101.554 167.144 103.379 167.144H169.452C170.77 167.144 171.986 166.332 172.492 165.114C172.695 164.708 172.796 164.302 172.796 163.795V31.8544C172.796 30.0276 171.378 28.6067 169.554 28.6067H103.48C103.277 28.6067 103.075 28.6067 102.872 28.7082C102.669 28.7082 102.467 28.8097 102.163 28.9112C101.149 29.3171 100.44 30.2306 100.237 31.347C100.237 31.4485 100.136 31.6515 100.136 31.8544Z" fill="white"/>
<path d="M136.416 138.523H131.754V153.747C131.754 155.777 130.133 157.401 128.106 157.401C126.079 157.401 124.458 155.777 124.458 153.747V138.523H119.796L123.951 134.463L128.106 130.404L132.261 134.463L136.416 138.523Z" fill="#ED3B4E"/>
<path d="M152.124 149.281H147.462V134.057C147.462 132.027 145.841 130.404 143.814 130.404C141.787 130.404 140.166 132.027 140.166 134.057V149.281H135.504L139.659 153.341L143.814 157.401L147.969 153.341L152.124 149.281Z" fill="#ED3B4E"/>
<path d="M109.966 45.5558C109.966 46.0632 110.371 46.4692 110.878 46.4692H132.767C133.274 46.4692 133.679 46.0632 133.679 45.5558C133.679 45.0483 133.274 44.6423 132.767 44.6423H110.878C110.371 44.6423 109.966 45.0483 109.966 45.5558Z" fill="#D9E7F6"/>
<path d="M141.078 45.5558C141.078 46.0632 141.483 46.4692 141.99 46.4692H163.879C164.386 46.4692 164.791 46.0632 164.791 45.5558C164.791 45.0483 164.386 44.6423 163.879 44.6423H141.99C141.483 44.6423 141.078 45.0483 141.078 45.5558Z" fill="#D9E7F6"/>
<path d="M109.966 50.7318C109.966 51.2392 110.371 51.6452 110.878 51.6452H132.767C133.274 51.6452 133.679 51.2392 133.679 50.7318C133.679 50.2243 133.274 49.8184 132.767 49.8184H110.878C110.371 49.8184 109.966 50.2243 109.966 50.7318Z" fill="#D9E7F6"/>
<path d="M141.078 50.7318C141.078 51.2392 141.483 51.6452 141.99 51.6452H163.879C164.386 51.6452 164.791 51.2392 164.791 50.7318C164.791 50.2243 164.386 49.8184 163.879 49.8184H141.99C141.483 49.8184 141.078 50.2243 141.078 50.7318Z" fill="#D9E7F6"/>
<path d="M109.966 55.8067C109.966 56.3142 110.371 56.7202 110.878 56.7202H132.767C133.274 56.7202 133.679 56.3142 133.679 55.8067C133.679 55.2993 133.274 54.8933 132.767 54.8933H110.878C110.371 54.8933 109.966 55.2993 109.966 55.8067Z" fill="#D9E7F6"/>
<path d="M141.078 55.8067C141.078 56.3142 141.483 56.7202 141.99 56.7202H163.879C164.386 56.7202 164.791 56.3142 164.791 55.8067C164.791 55.2993 164.386 54.8933 163.879 54.8933H141.99C141.483 54.8933 141.078 55.2993 141.078 55.8067Z" fill="#D9E7F6"/>
<path d="M109.966 60.983C109.966 61.4905 110.371 61.8964 110.878 61.8964H132.767C133.274 61.8964 133.679 61.4905 133.679 60.983C133.679 60.4756 133.274 60.0696 132.767 60.0696H110.878C110.371 60.0696 109.966 60.4756 109.966 60.983Z" fill="#D9E7F6"/>
<path d="M141.078 60.983C141.078 61.4905 141.483 61.8964 141.99 61.8964H163.879C164.386 61.8964 164.791 61.4905 164.791 60.983C164.791 60.4756 164.386 60.0696 163.879 60.0696H141.99C141.483 60.0696 141.078 60.4756 141.078 60.983Z" fill="#D9E7F6"/>
<path d="M110.878 114.165H141.28H142.699H163.879C164.385 114.165 164.791 113.759 164.791 113.251C164.791 112.744 164.385 112.338 163.879 112.338H142.699H110.878C110.371 112.338 109.966 112.744 109.966 113.251C109.966 113.759 110.371 114.165 110.878 114.165Z" fill="#D9E7F6"/>
<path d="M163.879 117.514H141.28H110.878C110.371 117.514 109.966 117.92 109.966 118.428C109.966 118.935 110.371 119.341 110.878 119.341H141.28H146.752H163.879C164.385 119.341 164.791 118.935 164.791 118.428C164.791 117.92 164.385 117.514 163.879 117.514Z" fill="#D9E7F6"/>
<path d="M163.879 122.589H143.712H141.28H110.878C110.371 122.589 109.966 122.995 109.966 123.502C109.966 124.01 110.371 124.416 110.878 124.416H143.611H163.879C164.385 124.416 164.791 124.01 164.791 123.502C164.791 122.995 164.385 122.589 163.879 122.589Z" fill="#D9E7F6"/>
<path d="M166.615 96.8097C166.615 98.5351 165.905 100.159 164.689 101.377C163.575 102.493 161.953 103.305 160.129 103.305H113.918C110.371 103.305 107.534 100.463 107.534 96.9112C107.534 96.2007 107.635 95.3888 107.939 94.7798C108.243 93.8664 108.75 93.0545 109.459 92.344C110.371 91.4306 111.385 90.8216 112.702 90.6187C113.006 80.4694 121.417 72.2485 131.653 72.2485C138.341 72.2485 144.219 75.6993 147.664 80.9769C148.576 80.6724 149.59 80.4694 150.704 80.4694C151.008 80.4694 151.312 80.4694 151.617 80.4694C156.582 80.9769 160.534 85.1381 160.534 90.3142C163.879 90.5172 166.615 93.359 166.615 96.8097Z" fill="#D9E7F6"/>
<path opacity="0.1" d="M143.408 85.0366C144.016 85.0366 144.422 85.4426 144.422 86.0515V96.0993C144.422 96.9112 143.814 97.5202 143.003 97.5202H130.234C129.423 97.5202 128.815 96.9112 128.815 96.0993V85.0366H143.408Z" fill="black"/>
<path d="M137.531 85.7468H132.565V92.5468H137.531V85.7468Z" fill="#033E9F"/>
<path d="M131.653 83.1082C131.755 81.2813 133.173 79.7589 135.099 79.7589C136.923 79.7589 138.443 81.2813 138.544 83.1082H140.571C140.47 80.1649 138.139 77.8306 135.2 77.8306C132.261 77.8306 129.829 80.1649 129.829 83.1082H131.653Z" fill="#033E9F"/>
<path d="M141.483 82.804H128.714C127.903 82.804 127.295 83.4129 127.295 84.2248V93.8666C127.295 94.6786 127.903 95.2875 128.714 95.2875H141.483C142.294 95.2875 142.902 94.6786 142.902 93.8666V84.2248C143.003 83.4129 142.294 82.804 141.483 82.804ZM136.213 91.8368H133.984L134.288 89.6039C133.882 89.2995 133.68 88.8935 133.68 88.386C133.68 87.5741 134.389 86.8637 135.2 86.8637C136.011 86.8637 136.72 87.5741 136.72 88.386C136.72 88.8935 136.416 89.401 136.112 89.6039L136.213 91.8368Z" fill="#155BCC"/>
<path d="M161.346 28.5049L158.001 33.681C157.089 35.1019 155.468 36.0154 153.745 36.0154H121.114C119.391 36.0154 117.769 35.1019 116.857 33.681L113.513 28.5049C113.513 27.9975 113.919 27.49 114.527 27.49H160.434C160.94 27.5915 161.346 27.9975 161.346 28.5049Z" fill="#012257"/>
<path d="M148.779 32.2606H120.911C120.303 32.2606 119.897 31.7531 119.897 31.2456C119.897 30.6367 120.404 30.2307 120.911 30.2307H148.779C149.387 30.2307 149.793 30.7382 149.793 31.2456C149.894 31.7531 149.387 32.2606 148.779 32.2606Z" fill="#1466B1"/>
<path d="M155.366 31.1437C155.366 31.8541 154.86 32.3616 154.15 32.3616C153.441 32.3616 152.934 31.8541 152.934 31.1437C152.934 30.4332 153.441 29.9258 154.15 29.9258C154.86 29.9258 155.366 30.4332 155.366 31.1437Z" fill="#1466B1"/>
<path d="M179.364 100.621L160.127 85.6114C160.127 85.6114 159.718 85.305 158.899 84.284C158.183 83.365 156.853 82.2418 155.829 82.4461L153.988 80.7102C153.988 80.7102 153.374 80.6081 153.988 81.2208C154.602 81.8334 154.909 82.5482 154.909 82.5482C154.909 82.5482 154.499 82.8545 154.602 83.0587C154.602 83.0587 154.295 83.2629 154.295 83.5692C154.295 83.5692 153.169 83.8755 154.295 84.9987C155.318 86.1219 155.625 86.5303 157.057 87.0409C158.388 87.5514 159.206 88.164 160.536 89.3893C161.662 90.5125 177.215 105.42 177.215 105.42L179.364 100.621Z" fill="#FDBC99"/>
<path d="M188.47 97.15C188.47 97.15 192.87 96.9458 193.484 92.2489C194.2 87.3478 190.824 85.7141 188.982 84.693C187.14 83.8761 185.912 83.9782 185.094 82.6509C184.275 81.3235 183.968 80.915 183.968 80.915C183.968 80.915 180.387 84.5909 183.047 87.9604C185.605 90.9215 188.47 97.15 188.47 97.15Z" fill="#180957"/>
<path d="M195.531 181.592C195.633 181.694 195.633 181.592 195.531 181.592C195.735 182.102 196.349 185.268 194.712 185.268C192.973 185.37 186.526 185.37 185.605 185.37C185.605 185.37 185.503 185.37 185.503 185.268C185.503 184.961 185.401 184.451 185.81 184.144C185.81 184.144 189.596 182.409 190.824 181.388C192.052 180.366 195.121 181.388 195.531 181.592Z" fill="#160956"/>
<path d="M179.261 181.082C179.364 181.082 179.364 181.082 179.261 181.082C179.466 181.694 180.08 185.166 178.443 185.268C176.908 185.37 168.824 185.268 167.904 185.268C167.904 185.268 167.801 185.268 167.801 185.166C167.699 185.064 167.699 184.451 168.313 184.247C168.313 184.247 172.61 182.511 174.657 181.184C176.396 179.856 178.852 180.877 179.261 181.082Z" fill="#160956"/>
<path d="M196.656 127.271L195.633 181.49L190.824 181.388L187.038 146.876L187.55 137.38L190.312 127.169L196.656 127.271Z" fill="#EE384E"/>
<path d="M191.643 127.271C191.643 127.271 187.141 150.347 185.811 153.002L179.467 181.081H174.76L177.829 127.169L191.643 127.271Z" fill="#DE051F"/>
<path d="M182.945 87.9602C182.945 87.9602 180.489 89.9002 180.489 93.2697C180.284 96.7414 180.898 96.8435 182.331 96.8435C183.763 96.8435 184.889 96.6393 184.991 97.4561C185.196 98.1709 184.889 101.132 184.684 101.949C184.275 102.766 190.312 101.949 190.312 101.949C190.312 101.949 188.777 97.4561 188.47 95.5161C188.163 93.5761 188.47 91.3297 187.345 89.4918C186.219 87.4497 184.889 85.9181 182.945 87.9602Z" fill="#FDBC99"/>
<path d="M184.173 102.868L179.364 100.213L176.806 105.522L182.127 110.015L184.173 102.868Z" fill="#003EAE"/>
<path d="M191.643 102.357C191.643 102.357 194.61 105.625 195.531 113.589C196.554 121.553 196.656 127.271 196.656 127.271H177.625C177.625 127.271 179.057 115.937 180.387 110.117C181.615 104.297 183.968 101.847 183.968 101.847C183.968 101.847 184.378 101.03 185.196 101.54C186.015 102.051 187.754 102.255 189.289 101.438C190.722 100.825 191.131 101.744 191.643 102.357Z" fill="#0064DF"/>
<path d="M187.652 90.6149C187.652 90.6149 188.573 90.3086 189.085 90.9212C189.596 91.4318 188.982 92.5549 188.164 92.8613C187.345 93.2697 187.652 90.6149 187.652 90.6149Z" fill="#FDBC99"/>
<path d="M184.787 112.364C184.787 112.364 182.741 127.271 181.513 131.458C180.49 135.542 178.75 139.422 178.75 139.422C178.75 139.422 177.931 141.26 178.75 142.077C179.569 142.893 181.308 143.506 181.717 142.383C182.024 141.158 182.024 138.299 182.536 137.686C183.048 137.073 187.038 127.475 188.368 121.757C189.698 116.141 190.005 113.589 190.005 113.589L184.787 112.364Z" fill="#FDBC99"/>
<path d="M184.276 113.078C184.276 113.078 185.504 104.808 188.983 104.808C188.983 104.808 190.927 104.808 190.927 107.871C190.927 110.934 190.62 114.304 190.62 114.304L184.276 113.078Z" fill="#003EAE"/>
</svg>
