<svg width="340" height="270" viewBox="0 0 340 270" fill="none" xmlns="http://www.w3.org/2000/svg">
<rect x="138.416" y="87.6294" width="0.859724" height="36.9681" fill="#2A2A2A"/>
<rect x="185.704" y="90.4067" width="0.905873" height="16.3057" rx="0.452937" fill="#2A2A2A"/>
<rect x="288.974" y="105.807" width="0.905873" height="18.1175" rx="0.452937" fill="#2A2A2A"/>
<rect x="289.879" y="105.807" width="0.905878" height="104.175" rx="0.452939" transform="rotate(90 289.879 105.807)" fill="#2A2A2A"/>
<path d="M334.341 136.828C334.341 136.828 330.192 135.111 327.37 144.803C324.604 154.494 323.885 159.922 323.885 159.922C323.885 159.922 323.055 162.026 321.561 161.029C320.067 160.033 317.633 156.987 315.586 157.983C313.484 159.036 313.207 161.694 314.369 165.294C315.531 168.894 317.688 176.869 317.91 177.589C318.076 178.308 317.91 179.416 316.748 178.918C315.586 178.419 308.615 173.158 306.347 176.592C304.023 180.081 308.836 189.551 309.334 190.603C309.832 191.655 309.722 192.154 309.224 192.542C308.726 192.929 306.568 190.935 304.521 189.496C302.474 188.056 299.874 186.782 298.712 188.886C297.55 190.991 298.546 198.634 308.062 209.488L312.82 214.251L319.348 212.59C333.124 208.215 337.882 202.178 337.992 199.741C338.103 197.304 335.171 197.083 332.681 197.249C330.192 197.415 327.315 198.024 327.093 197.415C326.872 196.861 327.038 196.363 328.034 195.698C329.03 195.089 338.048 189.44 337.826 185.231C337.661 181.078 328.919 182.019 327.702 181.853C326.485 181.687 326.872 180.635 327.425 180.081C327.979 179.582 333.954 173.878 336.775 171.386C339.597 168.894 340.759 166.512 339.486 164.463C338.269 162.525 334.618 163.909 332.847 163.965C331.077 164.02 331.409 161.805 331.409 161.805C331.409 161.805 333.566 156.765 336.222 147.018C338.822 137.271 334.286 136.606 334.286 136.606" fill="#EC384E"/>
<path d="M331.796 145.523C331.796 145.523 331.796 145.578 331.741 145.744C331.685 145.911 331.63 146.077 331.575 146.354C331.409 146.907 331.243 147.683 330.966 148.68C330.468 150.673 329.638 153.609 328.698 157.153C326.762 164.297 323.995 174.211 320.897 185.065C317.799 195.976 314.977 205.833 312.986 212.978C311.99 216.522 311.215 219.457 310.662 221.451C310.385 222.448 310.164 223.223 309.998 223.777C309.943 224.054 309.887 224.22 309.832 224.386C309.777 224.497 309.777 224.608 309.777 224.608C309.777 224.608 309.777 224.552 309.832 224.386C309.887 224.22 309.943 224.054 309.998 223.777C310.164 223.223 310.33 222.448 310.607 221.451C311.105 219.457 311.935 216.522 312.875 212.978C314.811 205.833 317.578 195.92 320.676 185.065C323.774 174.155 326.596 164.297 328.587 157.153C329.583 153.609 330.358 150.673 330.911 148.68C331.188 147.683 331.409 146.907 331.575 146.354C331.63 146.077 331.685 145.911 331.741 145.744C331.796 145.634 331.796 145.523 331.796 145.523Z" fill="#E0E0E0"/>
<path d="M331.741 145.744C331.796 145.578 331.796 145.523 331.796 145.523C331.796 145.523 331.796 145.634 331.741 145.744ZM331.741 145.744C331.685 145.911 331.63 146.077 331.575 146.354M331.575 146.354C331.409 146.907 331.243 147.683 330.966 148.68C330.468 150.673 329.638 153.609 328.698 157.153C326.762 164.297 323.995 174.211 320.897 185.065C317.799 195.976 314.977 205.833 312.986 212.978C311.99 216.522 311.215 219.457 310.662 221.451C310.385 222.448 310.164 223.223 309.998 223.777M331.575 146.354C331.409 146.907 331.188 147.683 330.911 148.68C330.358 150.673 329.583 153.609 328.587 157.153C326.596 164.297 323.774 174.155 320.676 185.065C317.578 195.92 314.811 205.833 312.875 212.978C311.935 216.522 311.105 219.457 310.607 221.451C310.33 222.448 310.164 223.223 309.998 223.777M309.998 223.777C309.943 224.054 309.887 224.22 309.832 224.386M309.832 224.386C309.777 224.497 309.777 224.608 309.777 224.608C309.777 224.608 309.777 224.552 309.832 224.386Z" stroke="white" stroke-width="0.5" stroke-linejoin="round"/>
<path d="M318.795 162.525C318.795 162.525 318.905 162.691 319.071 162.912C319.237 163.189 319.459 163.577 319.68 164.075C320.178 165.072 320.842 166.457 321.561 168.007C322.225 169.558 322.833 170.943 323.331 171.995C323.553 172.493 323.719 172.881 323.885 173.213C323.995 173.49 324.051 173.656 324.051 173.656C324.051 173.656 323.94 173.49 323.774 173.269C323.608 172.992 323.387 172.604 323.165 172.106C322.667 171.109 322.003 169.724 321.34 168.174C320.676 166.678 320.012 165.294 319.514 164.186C319.293 163.688 319.127 163.3 318.961 162.968C318.795 162.691 318.739 162.525 318.795 162.525Z" fill="#E0E0E0" stroke="white" stroke-width="0.3" stroke-linejoin="round"/>
<path d="M324.604 173.712C324.549 173.657 327.37 172.162 330.856 170.389C334.341 168.617 337.218 167.233 337.218 167.288C337.273 167.343 334.452 168.839 330.966 170.611C327.481 172.328 324.659 173.768 324.604 173.712Z" fill="#E0E0E0" stroke="white" stroke-width="0.3" stroke-linejoin="round"/>
<path d="M319.126 190.216C319.126 190.216 319.292 190.16 319.624 190.105C320.012 190.049 320.454 189.939 320.952 189.828C322.059 189.606 323.608 189.329 325.268 188.886C326.983 188.499 328.476 188.111 329.583 187.779C330.081 187.613 330.523 187.502 330.855 187.446C331.187 187.391 331.353 187.336 331.353 187.336C331.353 187.336 331.187 187.391 330.911 187.502C330.634 187.613 330.191 187.779 329.638 187.945C328.532 188.277 327.038 188.72 325.323 189.108C323.608 189.496 322.059 189.772 320.952 189.939C320.399 190.049 319.956 190.105 319.624 190.105C319.292 190.216 319.126 190.216 319.126 190.216Z" fill="#E0E0E0"/>
<path d="M319.624 190.105C319.292 190.16 319.126 190.216 319.126 190.216C319.126 190.216 319.292 190.216 319.624 190.105ZM319.624 190.105C320.012 190.049 320.454 189.939 320.952 189.828C322.059 189.606 323.608 189.329 325.268 188.886C326.983 188.499 328.476 188.111 329.583 187.779C330.081 187.613 330.523 187.502 330.855 187.446C331.187 187.391 331.353 187.336 331.353 187.336C331.353 187.336 331.187 187.391 330.911 187.502C330.634 187.613 330.191 187.779 329.638 187.945C328.532 188.277 327.038 188.72 325.323 189.108C323.608 189.496 322.059 189.772 320.952 189.939C320.399 190.049 319.956 190.105 319.624 190.105Z" stroke="white" stroke-width="0.3" stroke-linejoin="round"/>
<path d="M311.603 181.3C311.603 181.3 311.713 181.41 311.934 181.632C312.156 181.853 312.432 182.186 312.764 182.573C313.484 183.349 314.424 184.456 315.475 185.675C316.526 186.893 317.467 188.001 318.131 188.831C318.463 189.219 318.739 189.551 318.905 189.773C319.071 189.994 319.182 190.161 319.182 190.161C319.182 190.161 319.071 190.05 318.85 189.828C318.629 189.607 318.352 189.275 318.02 188.887C317.301 188.111 316.36 187.004 315.309 185.785C314.258 184.567 313.318 183.459 312.654 182.629C312.322 182.241 312.045 181.909 311.879 181.687C311.658 181.41 311.603 181.3 311.603 181.3Z" fill="#E0E0E0" stroke="white" stroke-width="0.3" stroke-linejoin="round"/>
<path d="M304.853 195.256C304.853 195.256 305.019 195.366 305.296 195.643C305.572 195.976 305.96 196.363 306.402 196.806C307.287 197.803 308.56 199.188 309.888 200.738C311.271 202.289 312.488 203.674 313.318 204.726C313.705 205.224 314.092 205.612 314.369 205.944C314.59 206.221 314.756 206.387 314.701 206.387C314.701 206.387 314.535 206.277 314.258 206C313.982 205.667 313.594 205.28 313.152 204.837C312.267 203.84 310.994 202.455 309.666 200.905C308.283 199.354 307.066 197.969 306.236 196.917C305.849 196.419 305.462 196.031 305.185 195.699C304.964 195.422 304.853 195.256 304.853 195.256Z" fill="#E0E0E0"/>
<path d="M314.535 206.11C314.535 206.11 314.756 206.055 315.143 205.944C315.586 205.834 316.139 205.723 316.803 205.557C318.186 205.224 320.122 204.781 322.28 204.228C324.382 203.674 326.319 203.12 327.702 202.732C328.366 202.511 328.919 202.4 329.362 202.234C329.749 202.123 329.97 202.068 329.97 202.068C329.97 202.068 329.749 202.178 329.362 202.289C328.974 202.4 328.421 202.621 327.757 202.843C326.374 203.286 324.493 203.895 322.335 204.449C320.178 205.003 318.241 205.446 316.858 205.723C316.139 205.889 315.586 205.944 315.199 206.055C314.811 206.055 314.59 206.11 314.535 206.11Z" fill="#E0E0E0" stroke="white" stroke-width="0.3" stroke-linejoin="round"/>
<path d="M54.6164 221.372C61.758 212.465 60.4116 200.16 56.9579 189.788C56.3726 188.03 56.0213 186.155 54.7335 184.866C53.4457 183.577 51.2213 183.108 49.8749 184.28C48.7627 185.276 48.6456 186.975 48.2944 188.44C47.8261 190.374 46.7724 192.19 45.309 193.538C44.3724 194.417 43.0846 195.179 41.7968 194.945C40.0406 194.534 39.2797 192.542 38.7528 190.784C37.8162 187.503 36.8796 184.28 35.943 180.998C35.4162 179.24 34.9479 177.482 33.8942 175.959C32.8991 174.435 31.2015 173.263 29.4454 173.322C27.6307 173.322 25.8746 174.904 26.0502 176.721C26.1088 177.482 26.46 178.186 26.6356 178.889C26.8112 179.651 26.6941 180.53 26.0502 180.94C25.4063 181.35 24.5868 181.057 23.8843 180.705C21.6014 179.475 19.6697 177.541 17.9135 175.666C16.0989 173.732 14.3428 171.74 12.1184 170.334C9.95247 168.869 7.20122 168.048 4.68411 168.634C2.16701 169.22 -0.0574074 171.564 0.00112995 174.201C0.0596673 176.838 2.22555 178.889 4.39143 180.471C7.55244 182.756 11.0647 184.573 14.7525 185.803C15.3964 186.038 16.1574 186.272 16.5086 186.858C17.2111 187.913 16.4501 189.378 15.455 190.081C14.2842 190.901 12.8208 191.194 11.533 191.722C10.2452 192.308 8.8988 193.304 8.78173 194.769C8.60611 196.761 10.5964 198.167 12.4696 198.988C16.0989 200.57 20.0209 201.507 24.0014 201.8C25.4063 201.918 26.8698 201.918 28.1576 202.504C29.4454 203.09 30.5576 204.496 30.2649 205.902C29.9722 207.309 28.5088 208.188 27.1039 208.305C25.699 208.422 24.2941 208.07 22.8307 207.953C20.1965 207.777 17.1526 208.832 16.216 211.352C15.6306 212.993 16.0989 214.926 17.0355 216.391C18.0306 217.856 19.4355 218.969 20.9575 219.907C26.1088 223.306 32.0796 225.474 38.1675 225.767C44.4309 226.001 49.6993 225.005 54.6164 221.372Z" fill="#033E9F"/>
<path d="M1.99121 170.979C1.99121 170.979 2.04975 171.037 2.22536 171.096C2.40097 171.154 2.57658 171.271 2.86927 171.389C3.45464 171.682 4.27417 172.033 5.38638 172.619C7.55226 173.674 10.5962 175.373 14.1084 177.834C15.8646 179.065 17.7378 180.53 19.728 182.053C21.7183 183.636 23.8256 185.335 25.9915 187.21C28.1574 189.085 30.3233 191.136 32.4892 193.421C33.5428 194.535 34.538 195.765 35.5916 196.996C36.5868 198.226 37.6404 199.515 38.6941 200.805C42.8503 205.903 46.7137 210.942 49.8162 215.747C52.9187 220.552 55.2602 225.181 56.8992 229.224C58.5383 233.268 59.4163 236.666 59.9432 239.01C60.1773 240.182 60.3529 241.12 60.47 241.764C60.5285 242.057 60.5871 242.292 60.5871 242.467C60.5871 242.643 60.6456 242.702 60.6456 242.702C60.6456 242.702 60.6456 242.643 60.6456 242.467C60.6456 242.292 60.5871 242.057 60.5285 241.764C60.47 241.12 60.2944 240.182 60.0602 239.01C59.5919 236.608 58.7139 233.209 57.1334 229.166C55.5529 225.123 53.2114 220.493 50.1089 215.63C47.0064 210.766 43.2015 205.727 38.9868 200.629C37.9331 199.34 36.8795 198.109 35.8843 196.82C34.8892 195.589 33.8355 194.359 32.7818 193.187C30.6745 190.902 28.4501 188.851 26.2842 186.976C24.1183 185.1 22.011 183.401 20.0207 181.819C18.0304 180.237 16.0987 178.831 14.3426 177.6C10.7718 175.139 7.66933 173.498 5.50345 172.443C4.39124 171.916 3.57172 171.564 2.98635 171.272C2.69366 171.154 2.45951 171.037 2.34243 170.979C2.04975 170.979 1.99121 170.979 1.99121 170.979Z" fill="#E0E0E0"/>
<path d="M32.6064 193.187C32.6064 193.187 32.6064 192.894 32.5478 192.366C32.4893 191.839 32.4308 191.136 32.2552 190.198C32.021 188.382 31.5527 185.921 31.0259 183.167C30.499 180.413 30.0893 177.951 29.8551 176.135C29.7381 175.256 29.621 174.494 29.621 173.967C29.5624 173.439 29.5039 173.205 29.5039 173.205C29.5039 173.205 29.5039 173.498 29.5039 174.025C29.5039 174.553 29.5624 175.256 29.6795 176.194C29.8551 178.01 30.2064 180.53 30.7332 183.225C31.26 185.921 31.6698 188.382 32.021 190.257C32.1966 191.077 32.3137 191.839 32.3722 192.366C32.4893 192.952 32.5478 193.245 32.6064 193.187Z" fill="#E0E0E0"/>
<path d="M9.01608 195.589C9.01608 195.589 9.3673 195.531 9.95268 195.413C10.5381 195.296 11.4161 195.121 12.4698 194.945C14.5771 194.593 17.504 194.124 20.7821 193.831C24.0602 193.538 26.987 193.363 29.1529 193.304C30.2066 193.245 31.0846 193.245 31.7286 193.245C32.3139 193.245 32.6652 193.245 32.6652 193.187C32.6652 193.187 32.3139 193.128 31.7286 193.07C31.1432 193.011 30.2651 193.011 29.1529 193.011C26.987 193.011 24.0016 193.128 20.7235 193.421C17.4455 193.773 14.5186 194.183 12.4112 194.652C11.3576 194.886 10.4795 195.062 9.95268 195.238C9.30877 195.472 8.95754 195.531 9.01608 195.589Z" fill="#E0E0E0"/>
<path d="M49.5825 215.278C49.5825 215.278 49.6411 215.16 49.6411 214.985C49.6996 214.75 49.6996 214.457 49.7581 214.047C49.8752 213.227 50.0508 212.055 50.1679 210.648C50.5191 207.777 50.8118 203.793 51.163 199.339C51.4557 194.944 51.7484 190.901 52.0411 188.03C52.1582 186.623 52.2752 185.452 52.3923 184.631C52.4508 184.28 52.4508 183.928 52.4508 183.694C52.4508 183.459 52.4508 183.342 52.4508 183.342C52.4508 183.342 52.3923 183.459 52.3923 183.635C52.3338 183.869 52.2752 184.162 52.2752 184.573C52.1582 185.393 51.9826 186.565 51.8655 187.971C51.5143 190.843 51.2216 194.827 50.8703 199.281C50.5777 203.675 50.285 207.66 49.9923 210.59C49.8752 211.996 49.7581 213.168 49.6411 213.989C49.5825 214.34 49.5825 214.692 49.5825 214.926C49.5825 215.16 49.5825 215.278 49.5825 215.278Z" fill="#E0E0E0"/>
<path d="M17.0938 214.341C17.0938 214.341 17.2108 214.341 17.445 214.399C17.6791 214.399 18.0303 214.399 18.3816 214.458C19.2596 214.458 20.4304 214.516 21.8938 214.575C24.8207 214.634 28.9183 214.809 33.3671 215.044C37.8745 215.22 41.9136 215.337 44.899 215.395C46.3624 215.395 47.5917 215.395 48.4112 215.395C48.7624 215.395 49.1137 215.395 49.3478 215.395C49.582 215.395 49.699 215.395 49.699 215.337C49.699 215.337 49.582 215.337 49.3478 215.278C49.1137 215.278 48.7624 215.278 48.4112 215.22C47.5332 215.22 46.3624 215.161 44.899 215.102C41.9721 215.044 37.8745 214.868 33.4257 214.634C28.9183 214.458 24.8792 214.341 21.8938 214.282C20.4304 214.282 19.2011 214.282 18.3816 214.282C18.0303 214.282 17.6791 214.282 17.445 214.282C17.2108 214.341 17.0938 214.341 17.0938 214.341Z" fill="#E0E0E0"/>
<path d="M308.305 248.281L265.397 248.105C260.246 248.105 256.09 243.886 256.09 238.73L256.558 131.438C256.558 126.281 260.773 122.121 265.924 122.179L308.832 122.355C313.983 122.355 318.139 126.574 318.139 131.731L317.671 239.023C317.671 244.121 313.456 248.281 308.305 248.281Z" fill="#0054A3"/>
<path d="M308.774 125.988L300.461 125.929C299.349 125.929 298.413 126.867 298.413 128.039V129.562C298.413 130.734 297.476 131.672 296.364 131.672L280.149 131.613C279.037 131.613 278.159 130.676 278.159 129.504V127.98C278.159 126.808 277.281 125.871 276.168 125.871H273.242L265.983 125.812C262.354 125.812 259.427 128.683 259.427 132.316L258.958 237.089C258.958 240.722 261.885 243.652 265.456 243.652L308.247 243.827C311.876 243.827 314.803 240.956 314.803 237.323L315.271 132.551C315.33 128.976 312.403 126.046 308.774 125.988Z" fill="white"/>
<rect x="263.076" y="146.091" width="48.1446" height="2.57917" rx="1.28959" fill="#DCE8F4"/>
<rect x="263.076" y="171.883" width="48.1446" height="2.57917" rx="1.28959" fill="#DCE8F4"/>
<rect x="263.076" y="185.638" width="48.1446" height="6.87779" rx="3.4389" fill="#DCE8F4"/>
<rect x="263.076" y="154.688" width="23.2126" height="2.57917" rx="1.28959" fill="#DCE8F4"/>
<rect x="263.076" y="163.286" width="23.2126" height="2.57917" rx="1.28959" fill="#DCE8F4"/>
<rect x="288.867" y="154.688" width="22.3528" height="2.57917" rx="1.28959" fill="#DCE8F4"/>
<rect x="288.867" y="163.286" width="22.3528" height="2.57917" rx="1.28959" fill="#DCE8F4"/>
<path d="M225.592 246.523H50.4488C45.7658 246.523 41.9023 242.714 41.9023 237.968V123.878C41.9023 121.359 43.9511 119.308 46.4683 119.308H230.158C232.324 119.308 234.08 121.066 234.08 123.234V237.968C234.139 242.714 230.275 246.523 225.592 246.523Z" fill="#0054A3"/>
<path d="M234.08 248.281H41.9024C37.4536 248.281 33.8828 244.707 33.8828 240.253V237.147H242.1V240.253C242.1 244.648 238.529 248.281 234.08 248.281Z" fill="#0054A3"/>
<path d="M228.687 124.597H47.2852V237.221H228.687V124.597Z" fill="#DEEAFF"/>
<path d="M119.055 237.147L121.63 241.249H158.041L160.441 237.147H119.055Z" fill="#023EA1"/>
<path d="M220.09 131.555H53.1411V231.815H220.09V131.555Z" fill="white"/>
<rect x="220.089" y="143.512" width="0.859732" height="166.787" transform="rotate(90 220.089 143.512)" fill="#DCE8F4"/>
<rect x="62.5054" y="153.818" width="87.8697" height="17.2116" rx="2.84717" fill="#DCE8F4"/>
<rect x="62.5054" y="179.182" width="148.563" height="19.0233" rx="2.84717" fill="#DCE8F4"/>
<rect x="62.5054" y="205.453" width="148.563" height="19.0233" rx="2.84717" fill="#DCE8F4"/>
<rect x="160.339" y="153.818" width="50.7289" height="17.2116" rx="2.84717" fill="#DCE8F4"/>
<path d="M60.2834 136.477C60.2834 137.239 59.6395 137.883 58.8785 137.883C58.1175 137.883 57.4736 137.239 57.4736 136.477C57.4736 135.715 58.1175 135.071 58.8785 135.071C59.6395 135.071 60.2834 135.715 60.2834 136.477Z" fill="#2A2A2A"/>
<path d="M65.9612 136.477C65.9612 137.239 65.3172 137.883 64.5563 137.883C63.7953 137.883 63.1514 137.239 63.1514 136.477C63.1514 135.715 63.7953 135.071 64.5563 135.071C65.3758 135.071 65.9612 135.715 65.9612 136.477Z" fill="#2A2A2A"/>
<path d="M71.6975 136.477C71.6975 137.239 71.0536 137.883 70.2926 137.883C69.5316 137.883 68.8877 137.239 68.8877 136.477C68.8877 135.715 69.5316 135.071 70.2926 135.071C71.0536 135.071 71.6975 135.715 71.6975 136.477Z" fill="#2A2A2A"/>
<path d="M234.08 237.206H41.9023V237.792H234.08V237.206Z" fill="#2A2A2A"/>
<path d="M124.725 93.1147C124.725 93.1147 124.9 93.1147 125.251 93.1147C125.661 93.1147 126.188 93.1147 126.832 93.1147C128.295 93.1147 130.403 93.1147 133.095 93.1733C138.598 93.1733 146.559 93.2319 156.569 93.2319C176.647 93.2905 204.921 93.2905 237.585 93.3491H237.819L237.877 93.1147C239.575 87.3722 238.521 80.692 234.775 75.5355C231.028 70.4375 224.648 67.156 218.033 67.3318L218.326 67.742C218.794 66.0427 219.028 64.1676 218.97 62.2924C218.736 56.0225 215.165 49.987 209.721 47.1743C204.335 44.303 197.662 44.4202 192.569 47.2915L192.979 47.4673C190.052 40.377 183.906 35.2204 177.233 32.8179C170.559 30.3568 163.125 30.7084 157.271 33.7555C151.418 36.7439 147.261 41.9005 144.92 47.2329C142.52 52.6239 142.227 58.425 143.398 63.4058L143.632 63.1714C140.296 62.8198 137.017 63.3472 134.266 64.5191C131.456 65.6911 129.115 67.3318 127.3 69.2655C126.422 70.2617 125.603 71.3164 125.134 72.4298C124.608 73.5432 124.256 74.6565 123.964 75.7699C123.437 77.938 123.203 80.0475 123.144 81.864C123.027 85.5556 123.495 88.4269 123.847 90.302C124.081 91.2396 124.256 91.9428 124.432 92.4115C124.666 92.9389 124.725 93.1147 124.725 93.1147Z" fill="#E8505B"/>
<g opacity="0.3">
<path d="M124.725 93.1147C124.725 93.1147 124.9 93.1147 125.251 93.1147C125.661 93.1147 126.188 93.1147 126.832 93.1147C128.295 93.1147 130.403 93.1147 133.095 93.1733C138.598 93.1733 146.559 93.2319 156.569 93.2319C176.647 93.2905 204.921 93.2905 237.585 93.3491H237.819L237.877 93.1147C239.575 87.3722 238.521 80.692 234.775 75.5355C231.028 70.4375 224.648 67.156 218.033 67.3318L218.326 67.742C218.794 66.0427 219.028 64.1676 218.97 62.2924C218.736 56.0225 215.165 49.987 209.721 47.1743C204.335 44.303 197.662 44.4202 192.569 47.2915L192.979 47.4673C190.052 40.377 183.906 35.2204 177.233 32.8179C170.559 30.3568 163.125 30.7084 157.271 33.7555C151.418 36.7439 147.261 41.9005 144.92 47.2329C142.52 52.6239 142.227 58.425 143.398 63.4058L143.632 63.1714C140.296 62.8198 137.017 63.3472 134.266 64.5191C131.456 65.6911 129.115 67.3318 127.3 69.2655C126.422 70.2617 125.603 71.3164 125.134 72.4298C124.608 73.5432 124.256 74.6565 123.964 75.7699C123.437 77.938 123.203 80.0475 123.144 81.864C123.027 85.5556 123.495 88.4269 123.847 90.302C124.081 91.2396 124.256 91.9428 124.432 92.4115C124.666 92.9389 124.725 93.1147 124.725 93.1147Z" fill="black"/>
</g>
<path d="M128.057 93.4046C128.057 93.4046 128.241 93.4046 128.61 93.4046C129.04 93.4046 129.592 93.4046 130.268 93.4046C131.803 93.4046 134.014 93.4046 136.839 93.4654C142.613 93.4654 150.965 93.5262 161.467 93.5262C182.533 93.587 212.197 93.587 246.467 93.6478H246.713L246.775 93.4046C248.556 87.4475 247.45 80.5177 243.519 75.1684C239.589 69.8799 232.894 66.4758 225.954 66.6581L226.262 67.0836C226.753 65.3208 226.999 63.3756 226.937 61.4304C226.691 54.9261 222.945 48.665 217.233 45.7472C211.583 42.7686 204.582 42.8902 199.238 45.8688L199.668 46.0511C196.597 38.6958 190.149 33.3465 183.147 30.8542C176.146 28.3012 168.346 28.6659 162.204 31.8268C156.063 34.927 151.702 40.2763 149.246 45.808C146.727 51.4004 146.42 57.4184 147.649 62.5853L147.894 62.3422C144.394 61.9775 140.954 62.5246 138.068 63.7403C135.12 64.9561 132.663 66.6581 130.759 68.6641C129.838 69.6975 128.978 70.7917 128.487 71.9466C127.934 73.1016 127.566 74.2566 127.259 75.4115C126.706 77.6607 126.46 79.849 126.399 81.7334C126.276 85.563 126.767 88.5416 127.136 90.4868C127.381 91.4594 127.566 92.1889 127.75 92.6752C127.996 93.2223 128.057 93.4046 128.057 93.4046Z" fill="#EC384E"/>
<path d="M201.519 66.9799C201.46 66.9799 201.343 66.3939 201.284 65.3392C201.167 64.8118 201.05 64.1672 200.875 63.4055C200.758 63.0539 200.641 62.6437 200.524 62.2335C200.406 61.8233 200.231 61.4132 200.055 60.9444C199.353 59.1865 198.123 57.1941 196.367 55.4362C194.611 53.6783 192.211 52.1548 189.46 51.2758C186.709 50.4554 183.899 50.3968 181.44 50.8656C178.982 51.3344 176.874 52.3306 175.294 53.3853C173.713 54.4401 172.601 55.5534 171.899 56.3152C171.548 56.7254 171.255 57.0183 171.079 57.2527C170.904 57.4871 170.787 57.5457 170.728 57.5457C170.728 57.5457 170.787 57.3699 170.904 57.1355C171.021 56.9012 171.255 56.5496 171.606 56.0808C172.25 55.2018 173.304 53.9713 174.943 52.8579C176.523 51.686 178.689 50.5726 181.265 50.0452C183.84 49.5179 186.826 49.5765 189.753 50.3968C192.68 51.3344 195.138 52.9165 196.953 54.8502C198.767 56.7254 199.938 58.8349 200.641 60.71C200.816 61.1788 200.992 61.6476 201.05 62.0577C201.167 62.4679 201.226 62.8781 201.343 63.2883C201.46 64.05 201.519 64.7532 201.577 65.2806C201.636 66.3939 201.577 66.9799 201.519 66.9799Z" fill="#FAFAFA"/>
<path d="M193.499 61.0033C193.674 60.8275 197.304 63.3472 201.694 66.6286C201.752 66.6872 201.869 66.7458 201.928 66.8044L201.226 67.0388C202.982 61.9994 204.621 58.0148 204.855 58.0734C205.089 58.132 203.86 62.2924 202.104 67.3318L201.869 67.9178L201.343 67.5076C201.284 67.449 201.167 67.3904 201.108 67.3318C196.777 64.0503 193.323 61.1791 193.499 61.0033Z" fill="#FAFAFA"/>
<path d="M169.85 64.168C169.908 64.168 169.908 64.7539 169.908 65.8087C169.967 66.3361 169.967 66.9806 170.025 67.6838C170.142 68.387 170.26 69.2659 170.494 70.1449C170.962 71.9028 171.84 73.9537 173.303 75.9461C174.708 77.9384 176.816 79.6963 179.333 80.9268L179.801 81.1612L180.269 81.337C180.562 81.4542 180.913 81.5714 181.206 81.6886C181.557 81.8058 181.85 81.8644 182.201 81.9816C182.552 82.0402 182.845 82.1574 183.196 82.216C184.484 82.509 185.772 82.6262 187.001 82.5676C189.46 82.509 191.567 81.9816 193.265 81.2198C194.962 80.5167 196.25 79.6377 197.07 79.0517C197.479 78.7587 197.831 78.4657 198.006 78.3486C198.24 78.1728 198.357 78.1142 198.357 78.1142C198.357 78.1142 198.299 78.2314 198.123 78.4658C197.948 78.7001 197.655 78.9931 197.245 79.3447C196.426 80.0479 195.196 81.044 193.499 81.8644C191.801 82.6848 189.518 83.3293 186.943 83.4465C185.655 83.5051 184.308 83.3879 182.962 83.0949C182.611 83.0364 182.26 82.9192 181.967 82.8606C181.616 82.7434 181.265 82.6848 180.913 82.5676C180.562 82.4504 180.269 82.3332 179.918 82.1574L179.391 81.9816L178.923 81.7472C178.572 81.5714 178.279 81.3956 177.928 81.2198C177.635 81.044 177.343 80.8096 176.991 80.6339C176.347 80.2823 175.821 79.8135 175.294 79.3447C175.001 79.1103 174.767 78.8759 174.533 78.6415C174.299 78.4072 174.006 78.1728 173.83 77.9384C173.596 77.704 173.421 77.411 173.186 77.1766L172.894 76.825L172.601 76.4148C171.079 74.3639 170.26 72.1372 169.85 70.2621C169.616 69.3245 169.557 68.4456 169.499 67.6838C169.499 66.922 169.499 66.2775 169.499 65.7501C169.674 64.7539 169.733 64.168 169.85 64.168Z" fill="#FAFAFA"/>
<path d="M177.05 71.082C176.874 71.2578 173.538 68.328 169.616 64.4605C169.557 64.4019 169.44 64.3433 169.381 64.2261L170.084 64.109C167.684 68.9139 165.635 72.6642 165.401 72.547C165.167 72.4298 166.864 68.5038 169.264 63.6988L169.557 63.1128L170.025 63.5816C170.084 63.6402 170.142 63.6988 170.26 63.816C174.182 67.6248 177.225 70.9063 177.05 71.082Z" fill="#FAFAFA"/>
<path d="M72.1215 41.9765C72.1215 41.9765 74.3052 41.37 74.0625 37.6099C73.8199 33.9712 71.3937 30.9388 74.7904 28.9982C78.0658 27.0575 78.915 26.3297 80.4921 24.8742C82.0691 23.1761 82.797 21.9632 87.8921 22.5696C87.8921 22.5696 91.8954 19.2947 95.656 22.2058C99.1741 25.2381 98.3249 33.3647 98.9314 34.4563C99.6593 35.6693 104.512 40.6423 105.118 44.7662C105.725 48.8902 102.935 51.5586 98.9314 51.4373C95.1708 51.316 89.7118 51.4373 89.7118 51.4373H75.033C75.033 51.4373 70.0592 51.8012 69.6953 46.5856C69.6953 43.5533 72.1215 41.9765 72.1215 41.9765Z" fill="#180857"/>
<path d="M84.2525 48.1623C84.2525 48.1623 84.2525 51.3159 82.918 52.5288C81.5836 53.863 79.8853 56.0463 79.8853 56.0463C79.8853 56.0463 82.918 61.0193 88.8623 60.1703C94.6853 59.5638 95.7771 55.076 95.7771 55.076C95.7771 55.076 90.1968 54.4695 89.4689 48.7687C88.8623 43.3105 87.8918 43.3105 87.8918 43.3105L84.2525 48.1623Z" fill="#FFB07E"/>
<path d="M87.2852 49.861C90.9031 49.861 93.836 44.6477 93.836 38.2169C93.836 31.786 90.9031 26.5728 87.2852 26.5728C83.6673 26.5728 80.7344 31.786 80.7344 38.2169C80.7344 44.6477 83.6673 49.861 87.2852 49.861Z" fill="#FFBE9B"/>
<path d="M87.2855 25.9658C87.2855 25.9658 86.0724 29.6046 83.6461 33.1221C80.9773 36.7609 78.1871 38.7016 77.9445 39.4294C77.7019 40.0358 75.2756 38.2164 76.1248 35.548C76.8527 32.6369 81.5838 24.6316 86.4363 24.389C91.2888 24.2677 92.2593 21.3567 94.6855 27.3001C96.8691 33.0008 96.6265 39.6719 96.6265 39.6719L87.2855 25.9658Z" fill="#180857"/>
<path d="M80.8556 36.8825C80.8556 36.8825 78.1867 36.5186 77.9441 38.0954C77.7015 39.7935 78.672 41.1277 80.8556 41.3703C83.1605 41.8555 80.8556 36.8825 80.8556 36.8825Z" fill="#FFBE9B"/>
<path d="M105.604 113.054C105.604 113.054 109.364 113.175 112.397 113.175C115.43 113.175 119.797 113.661 119.797 113.661C119.797 113.661 121.01 113.661 121.132 115.359C121.253 117.057 121.253 117.542 121.253 117.542C121.253 117.542 121.374 119.361 119.919 119.361C118.463 119.361 109.85 120.453 107.787 120.453C105.725 120.453 104.391 120.817 104.391 119.361C104.391 117.785 104.391 112.69 105.604 113.054Z" fill="black"/>
<path d="M109 69.5105C109 69.5105 111.669 84.3082 111.79 88.0683C111.911 91.8284 112.275 94.8607 109.849 96.5588C107.544 98.2569 103.419 99.5911 103.419 99.5911L98.3242 73.3919V70.2383L109 69.5105Z" fill="#FFBF99"/>
<path d="M65.3274 68.7822C65.3274 68.7822 63.993 75.4533 63.5077 78.7282C63.2651 82.0031 62.1733 88.6743 62.1733 90.2511C62.052 91.9492 61.9307 94.1324 64.4782 96.3157C67.0258 98.499 70.0586 99.4693 70.0586 99.4693L75.5176 68.7822H65.3274Z" fill="#FFBF99"/>
<path d="M81.0983 53.1354C81.0983 53.1354 77.095 52.6502 74.7901 53.2567C72.6065 53.7419 71.8786 53.378 72.6065 55.1974C73.0917 57.0168 76.1245 65.0221 74.7901 69.9951C73.4556 75.0894 71.5146 100.682 71.5146 100.682C71.5146 100.682 86.5573 101.167 92.3803 101.41C98.0819 101.774 102.449 100.682 102.449 100.682C102.449 100.682 103.784 89.5233 102.449 84.7928C101.115 79.8198 99.4164 71.8145 99.4164 71.8145C99.4164 71.8145 98.4459 60.5343 99.659 57.7445C101.236 54.8335 102.328 54.8335 100.266 54.2271C98.3245 53.6206 96.5049 52.8928 94.8065 52.8928C93.2294 52.8928 92.6229 52.8928 91.5311 53.6206C90.8032 54.3483 88.7409 56.5316 86.436 55.9251C83.7671 55.5613 82.0688 53.7419 82.0688 53.7419C82.0688 53.7419 81.9475 53.378 81.0983 53.1354Z" fill="#DE051F"/>
<path d="M73.941 54.2269C73.941 54.2269 72.6066 53.6204 70.5443 55.3185C68.3607 57.2592 66.7837 61.6257 65.6919 64.2942C64.964 66.9626 64.3574 69.6311 64.3574 69.6311C64.3574 69.6311 67.2689 71.3292 70.0591 71.3292C73.0919 71.4504 75.0329 71.693 75.0329 71.693C75.0329 71.693 76.3673 63.5664 76.0033 60.0489C76.0033 56.1675 75.6394 55.0759 73.941 54.2269Z" fill="#EE384E"/>
<path d="M98.9309 56.8952C98.9309 56.8952 100.144 53.6203 102.692 55.0758C105.482 56.7739 107.544 62.3533 108.029 64.294C108.514 66.1134 109.364 69.8735 109.364 69.8735C109.364 69.8735 106.088 71.2077 103.662 71.5716C100.872 71.6929 98.9309 71.9355 98.9309 71.9355C98.9309 71.9355 97.9604 64.7792 98.203 61.8682C98.4456 58.9571 98.9309 56.8952 98.9309 56.8952Z" fill="#EE384E"/>
<path d="M77.2163 102.866H97.5967L86.9212 106.141L77.2163 102.866Z" fill="#004B89"/>
<path d="M59.0194 96.9217C59.0194 96.9217 96.0195 108.808 104.147 111.841C104.147 111.841 106.938 112.447 106.938 114.024C106.938 115.358 106.816 117.542 106.452 118.512C106.21 119.603 105.239 120.331 103.662 120.21C102.085 119.846 69.0883 113.054 55.8653 109.657L52.226 108.445C52.226 108.445 49.4358 107.11 50.0423 103.472C50.5276 99.954 53.0751 96.9217 54.8948 96.8004C56.3505 96.5578 59.0194 96.9217 59.0194 96.9217Z" fill="#0064E1"/>
<path d="M55.6228 114.024C55.6228 114.024 60.4753 113.296 63.0229 113.296C65.813 113.175 69.4524 112.933 69.9376 113.296C70.4229 113.66 70.9081 119.361 70.9081 119.361C70.9081 119.361 71.3934 121.059 67.6327 120.574C63.9934 120.21 55.6228 120.089 55.6228 120.089C55.6228 120.089 53.6819 119.968 53.5605 118.269C53.5605 116.45 53.6819 115.601 53.6819 115.601C53.6819 115.601 54.7737 114.145 55.6228 114.024Z" fill="black"/>
<path d="M77.7019 109.051C77.7019 109.051 100.266 102.137 108.151 99.5901C116.158 97.1643 120.525 94.7384 123.194 98.8624C125.863 102.622 125.499 107.11 122.709 108.323C119.676 109.536 96.5052 115.116 86.679 117.299C76.974 119.482 70.6658 120.574 69.6953 120.331C68.9674 119.967 67.7543 117.056 67.8756 115.237C67.9969 113.417 68.1183 112.932 70.0593 112.083C72.1215 111.234 77.7019 109.051 77.7019 109.051Z" fill="#0054A3"/>
<path d="M75.1538 75.2102H102.328C102.328 75.2102 103.905 75.0889 103.905 77.0296C103.905 78.9703 103.905 101.167 103.905 101.167C103.905 101.167 104.026 102.865 102.934 102.865C101.842 102.865 71.0292 102.865 71.0292 102.865C71.0292 102.865 69.6948 103.229 69.6948 101.046C69.6948 98.8624 69.6948 76.5445 69.6948 76.5445C69.6948 76.5445 69.5735 75.3315 71.2718 75.3315C72.7276 75.2102 75.1538 75.2102 75.1538 75.2102Z" fill="#0064B7"/>
<path d="M85.1016 89.2803L86.6786 87.3396L88.4983 88.9164L87.0426 90.8571L85.1016 89.2803Z" fill="#569ED4"/>
</svg>
