<svg width="230" height="180" viewBox="0 0 230 180" fill="none" xmlns="http://www.w3.org/2000/svg">
<path d="M36.531 9.2212C36.531 9.2212 33.9629 6.2816 36.2086 4.01827C38.4544 1.75493 43.1152 2.83478 43.76 5.56169C44.3993 8.2886 42.7928 9.72296 44.7763 10.5519C46.7543 11.3809 51.9233 14.5223 50.4699 17.1674C49.0219 19.8125 45.7489 19.2017 46.5849 23.1939C47.4209 27.1861 54.027 29.3676 49.7322 33.6598C45.4374 37.952 36.307 43.2476 33.5695 33.5453C30.832 23.8429 39.4707 27.5351 35.5147 20.8488C31.5587 14.1624 35.5803 14.8823 37.0993 12.848C38.6074 10.8192 36.531 9.2212 36.531 9.2212Z" fill="#023EA1"/>
<path d="M41.4202 13.6875C41.4202 13.6875 40.4367 23.9734 42.5731 33.1467C44.7096 42.3201 46.5401 43.9835 46.5401 43.9835" stroke="white" stroke-width="0.520509" stroke-miterlimit="10" stroke-linecap="round" stroke-linejoin="round"/>
<path d="M14.6189 12.1496C14.6189 12.1496 21.3452 7.40477 22.7385 11.7569C24.1373 16.1145 26.0443 15.9836 28.0113 15.7491C29.9784 15.5146 33.3115 13.633 34.5354 18.3069C35.7649 22.9809 34.5846 25.8496 36.6391 27.3767C38.6936 28.9092 44.9281 37.8262 40.8519 39.3151C36.7757 40.7985 31.8963 36.9536 30.2735 34.7884C28.6506 32.6232 25.0553 32.4596 22.3014 33.0214C19.5475 33.5831 15.9193 32.1215 17.0559 28.5438C18.1979 24.9661 16.4002 21.2575 13.8758 20.423C11.3623 19.5886 10.1165 15.4382 14.6189 12.1496Z" fill="#FCBE42"/>
<path d="M18.3013 16.4468L42.1957 42.8978" stroke="white" stroke-width="0.520509" stroke-miterlimit="10" stroke-linecap="round" stroke-linejoin="round"/>
<path d="M47.7794 36.01C47.7794 36.01 34.3214 22.3972 29.2999 10.1152" stroke="#DE051F" stroke-width="0.520509" stroke-miterlimit="10"/>
<path d="M27.3718 2C27.3718 2 32.0272 5.60498 29.8525 11.3806C29.8525 11.3806 25.3118 8.9209 27.3718 2Z" stroke="#DE051F" stroke-width="0.520509" stroke-miterlimit="10"/>
<path d="M35.37 20.9243C35.37 20.9243 33.0969 15.994 37.9709 11.6582C37.9709 11.6582 41.3149 15.3941 35.37 20.9243Z" stroke="#DE051F" stroke-width="0.520509" stroke-miterlimit="10"/>
<path d="M43.2391 30.9868C43.2391 30.9868 40.0426 26.5965 43.9768 21.3936C43.9768 21.3881 47.9874 24.3986 43.2391 30.9868Z" stroke="#DE051F" stroke-width="0.520509" stroke-miterlimit="10"/>
<path d="M43.108 31.1724C43.108 31.1724 39.6383 26.9893 33.6115 29.5036C33.6169 29.5036 35.5403 34.1284 43.108 31.1724Z" stroke="#DE051F" stroke-width="0.520509" stroke-miterlimit="10"/>
<path d="M35.3926 20.8482C35.3926 20.8482 32.4857 16.2616 26.1857 17.985C26.1857 17.985 27.508 22.817 35.3926 20.8482Z" stroke="#DE051F" stroke-width="0.520509" stroke-miterlimit="10"/>
<g clip-path="url(#clip0_3707_6358)">
<path d="M210.704 20.1777H33.734V140.485H210.704V20.1777Z" fill="#0064B5"/>
<path d="M210.704 122.703H33.734V140.437H210.704V122.703Z" fill="#FFC727"/>
<path d="M210.704 122.703H33.734V140.437H210.704V122.703Z" fill="#033E9F"/>
<path d="M156.707 162.144H87.7313V167.909H156.707V162.144Z" fill="#FFC727"/>
<path d="M156.707 162.144H87.7313V167.909H156.707V162.144Z" fill="#033E9F"/>
<path d="M148.515 162.144H95.9233L97.2805 152.162L97.329 151.678L97.4744 150.757L97.5229 150.273L97.6683 149.352V149.207L97.7168 148.868L97.8622 147.947L97.9107 147.463L98.8316 140.485H145.607L146.479 147.075L146.528 147.366L146.673 148.48L146.722 148.771L146.77 149.207L146.867 149.885V150.176L147.013 151.29L147.061 151.581L148.515 162.144Z" fill="#0064B5"/>
<path d="M125.104 130.407C125.104 132.006 123.795 133.315 122.195 133.315C120.596 133.315 119.287 132.006 119.287 130.407C119.287 128.809 120.596 127.5 122.195 127.5C123.795 127.452 125.104 128.76 125.104 130.407Z" fill="white"/>
<g opacity="0.16">
<path d="M146.771 149.207L97.9113 147.463L98.8322 140.485H145.607L146.771 149.207Z" fill="black"/>
</g>
<path d="M202.513 27.9785H41.8777V114.369H202.513V27.9785Z" fill="white"/>
<path d="M54.4215 33.0801C53.8001 33.392 53.4505 34.0549 53.4505 34.0549L48.5179 42.6722C48.5179 42.6722 48.2849 43.1791 48.3237 43.647H53.8778L57.1403 37.9151L54.4215 33.0801Z" fill="#319F4F"/>
<path d="M59.859 33.0801C60.4805 33.392 60.83 34.0549 60.83 34.0549L65.7626 42.6722C65.9568 43.0622 65.9957 43.3741 65.9957 43.647H60.4028L57.1403 37.9541L59.859 33.0801Z" fill="#F5BC0F"/>
<path d="M63.238 48.5602C62.6943 48.8721 62.034 48.8331 62.034 48.8331H52.1299C51.7027 48.8331 51.392 48.6771 51.1589 48.5602L53.9165 43.7251H60.4416L63.238 48.5602Z" fill="#3D80B9"/>
<path d="M63.1993 48.5601L60.4417 43.686H66.0734C66.0734 43.959 65.9957 44.1929 65.9957 44.3489C65.9957 44.3879 65.9569 44.4269 65.9569 44.5049C65.9569 44.5829 65.918 44.5829 65.8792 44.6608C65.8792 44.6608 64.6752 46.7275 64.0926 47.8192C64.0149 47.9752 63.9372 48.0532 63.8984 48.0922C63.8207 48.0532 63.5877 48.4431 63.1993 48.5601Z" fill="#E84335"/>
<path d="M48.3625 43.686C48.3625 43.686 48.4014 44.076 48.5567 44.4269C48.7121 44.8168 50.4599 47.7023 50.6152 48.0532C50.8483 48.2872 51.0813 48.4821 51.1202 48.5211L53.8778 43.686H48.3625Z" fill="#1F64AB"/>
<path d="M54.3827 33.1583C54.3827 33.1583 54.6157 32.9633 55.2372 32.9243C55.276 32.9243 55.3148 32.9243 55.3148 32.9243C55.3148 32.9243 57.8006 32.9243 58.9658 32.9243C59.0046 32.9243 59.0434 32.9243 59.0434 32.9243C59.2376 32.9243 59.6649 32.9633 59.8979 33.1583L57.1791 37.9933L54.3827 33.1583Z" fill="#198038"/>
<circle cx="195.386" cy="35.7315" r="2.34229" fill="#EAF4FF"/>
<circle cx="188.619" cy="35.7315" r="2.34229" fill="#EAF4FF"/>
<circle cx="181.332" cy="35.7315" r="2.34229" fill="#EAF4FF"/>
<rect x="48.1609" y="66.4399" width="19.2359" height="1.44269" rx="0.721346" fill="#DBE9F8"/>
<rect x="48.1609" y="72.6914" width="19.2359" height="1.44269" rx="0.721346" fill="#DBE9F8"/>
<rect x="48.1609" y="78.9434" width="19.2359" height="1.44269" rx="0.721346" fill="#DBE9F8"/>
<rect x="48.1609" y="85.1948" width="19.2359" height="1.44269" rx="0.721346" fill="#DBE9F8"/>
<rect x="48.1609" y="91.4468" width="19.2359" height="3.84718" rx="0.520509" fill="#DBE9F8"/>
<rect x="79.9003" y="44.7998" width="117.82" height="8.17525" rx="1.04102" fill="#EAF4FF"/>
<rect x="80.1605" y="33.5186" width="90.3691" height="4.76936" rx="0.780764" stroke="#EAF4FF" stroke-width="0.520509"/>
<rect x="80.1605" y="58.5254" width="35.5468" height="12.4637" rx="0.780764" stroke="#DBE9F8" stroke-width="0.520509"/>
<circle cx="86.8766" cy="64.395" r="3.12306" fill="#DBE9F8"/>
<rect x="91.4415" y="62.5933" width="7.21346" height="0.961795" rx="0.480897" fill="#DBE9F8"/>
<rect x="91.4415" y="64.9976" width="13.946" height="0.961795" rx="0.480897" fill="#DBE9F8"/>
<rect x="80.1605" y="73.4331" width="35.5468" height="26.4097" rx="0.780764" stroke="#DBE9F8" stroke-width="0.520509"/>
<circle cx="86.8766" cy="79.2129" r="3.12306" fill="#DBE9F8"/>
<rect x="91.4415" y="77.501" width="7.21346" height="0.961795" rx="0.480897" fill="#DBE9F8"/>
<rect x="91.4415" y="79.9053" width="13.946" height="0.961795" rx="0.480897" fill="#DBE9F8"/>
<rect x="85.1899" y="85.6763" width="26.4493" height="0.961795" rx="0.480897" fill="#DBE9F8"/>
<rect x="85.1899" y="90.0044" width="26.4493" height="0.961795" rx="0.480897" fill="#DBE9F8"/>
<rect x="85.1899" y="94.3325" width="26.4493" height="0.961795" rx="0.480897" fill="#DBE9F8"/>
<rect x="121.037" y="58.5254" width="35.5468" height="41.3176" rx="0.780764" stroke="#DBE9F8" stroke-width="0.520509"/>
<circle cx="128.233" cy="64.0996" r="2.60255" fill="#DBE9F8"/>
<rect x="132.318" y="62.5933" width="7.21346" height="0.961795" rx="0.480897" fill="#DBE9F8"/>
<rect x="132.318" y="85.1953" width="7.21346" height="0.961795" rx="0.480897" fill="#DBE9F8"/>
<rect x="132.318" y="64.9976" width="13.946" height="0.961795" rx="0.480897" fill="#DBE9F8"/>
<rect x="132.318" y="87.6001" width="20.1977" height="0.961795" rx="0.480897" fill="#DBE9F8"/>
<rect x="132.318" y="90.9663" width="20.1977" height="0.961795" rx="0.480897" fill="#DBE9F8"/>
<rect x="132.318" y="94.3325" width="20.1977" height="0.961795" rx="0.480897" fill="#DBE9F8"/>
<rect x="126.066" y="70.7686" width="26.4493" height="0.961795" rx="0.480897" fill="#DBE9F8"/>
<rect x="126.066" y="75.0967" width="17.3123" height="0.961795" rx="0.480897" fill="#DBE9F8"/>
<rect x="126.066" y="79.4248" width="26.4493" height="0.961795" rx="0.480897" fill="#DBE9F8"/>
<rect x="161.913" y="58.5254" width="35.5468" height="41.3176" rx="0.780764" stroke="#DBE9F8" stroke-width="0.520509"/>
<rect x="165.5" y="85.6763" width="26.4493" height="0.961795" rx="0.480897" fill="#DBE9F8"/>
<rect x="165.5" y="89.0425" width="22.1213" height="0.961795" rx="0.480897" fill="#DBE9F8"/>
<rect x="165.5" y="91.4473" width="22.1213" height="0.961795" rx="0.480897" fill="#DBE9F8"/>
<rect x="165.5" y="93.8516" width="22.1213" height="0.961795" rx="0.480897" fill="#DBE9F8"/>
<rect x="165.5" y="62.1123" width="28.3729" height="19.2359" rx="1.04102" fill="#DBE9F8"/>
</g>
<g opacity="0.8">
<path d="M202.862 107.733V111.701C202.862 113.242 201.149 114.509 199.066 114.509H182.286C182.029 113.812 181.886 113.073 181.886 112.292C181.886 107.627 186.995 103.87 193.273 103.87C197.325 103.891 200.835 105.432 202.862 107.733Z" fill="#EAF4FF"/>
<path d="M201.125 100.327C201.37 99.2111 200.346 98.1592 198.837 97.9777C197.328 97.7962 195.906 98.5539 195.66 99.67C195.415 100.786 196.439 101.838 197.948 102.02C199.457 102.201 200.879 101.443 201.125 100.327Z" fill="#EAF4FF"/>
</g>
<path d="M30.3905 112.778C30.3905 112.778 28.1595 143.665 27.8394 149.143C27.514 154.62 26.3418 173.072 26.3418 173.072H20.8626L17.165 112.439L30.3905 112.778Z" fill="#DE051F"/>
<path d="M9.77533 113.1C9.77533 113.1 10.4209 128.662 10.7101 132.607C10.9941 136.553 7.86976 150.044 6.08812 156.04C4.30132 162.04 1.78638 168.68 1.78638 168.68L6.08812 171.14C6.08812 171.14 15.3785 154.63 18.7093 144.89C22.0351 135.149 24.5139 120.571 24.1059 112.357L9.77533 113.1Z" fill="#EE384E"/>
<path d="M33.0928 91.0005L37.2706 96.5139C37.2706 96.5139 37.5959 96.9546 38.3706 96.7547C39.14 96.5549 47.1806 93.6547 47.1806 93.6547C47.1806 93.6547 48.3012 93.1577 48.6008 92.2712C48.8951 91.3848 49.0346 91.1696 49.2101 90.9287C49.3857 90.6879 49.6439 90.7187 49.4942 90.1243C49.3444 89.535 49.2618 89.2891 49.2618 89.2891C49.2618 89.2891 49.0862 88.874 49.4374 88.874C49.7885 88.874 50.1655 88.956 50.3617 89.3608C50.5476 89.7656 50.5012 90.7443 50.5012 90.7443L52.2208 90.8109C52.2208 90.8109 53.2743 90.8468 53.2743 91.9382C53.2743 93.0296 53.2743 94.8537 53.2743 94.8537C53.2743 94.8537 53.4241 95.4225 52.6546 95.4225C51.8852 95.4225 51.0744 95.3969 51.0744 95.3969C51.0744 95.3969 50.4289 95.3303 49.3702 96.0937C48.3116 96.8572 40.2555 101.433 40.2555 101.433C40.2555 101.433 37.472 103.083 35.6439 101.351C33.8158 99.6191 29.8032 95.3354 29.8032 95.3354L29.6018 93.9775L33.0928 91.0005Z" fill="#FFBF99"/>
<path d="M19.6446 76.2339C19.6446 76.2339 19.1488 78.7037 18.1521 81.1786C17.1554 83.6534 16.6597 84.6372 16.6597 84.6372C16.6597 84.6372 19.6446 88.0959 22.6398 87.5989C25.6247 87.107 25.6247 85.1292 25.6247 85.1292C25.6247 85.1292 22.8825 82.9053 22.8825 79.9385C22.8825 76.9717 22.8825 76.9769 22.8825 76.9769L19.6446 76.2339Z" fill="#FFB48F"/>
<path d="M26.2346 84.5605C26.2346 84.5605 28.7134 85.9287 29.7411 86.7946C30.7739 87.6606 33.7536 91.0629 33.7536 91.0629L29.6739 94.993L26.8337 91.7956L26.2346 84.5605Z" fill="#F79F03"/>
<path d="M17.92 83.4013C17.92 83.4013 19.4125 85.3791 21.4058 85.871C23.3992 86.363 24.3907 84.8821 24.3907 84.8821L24.9381 84.175C24.9381 84.175 25.4907 83.7446 26.1001 84.2519C26.7094 84.7489 27.8714 86.0299 28.8784 88.1C29.8905 90.165 30.1849 92.9934 30.3966 99.5982C30.6084 106.203 30.3966 113.331 30.3966 113.331H9.79679L9.55408 103.067C9.55408 103.067 11.7437 89.4169 13.8971 86.6396C16.0506 83.8624 16.6755 83.2578 16.6755 83.2578C16.6755 83.2578 17.1712 82.5815 17.92 83.4013Z" fill="#FCBE42"/>
<path d="M25.8782 69.5566C25.8782 69.5566 27.3706 71.5345 27.3706 74.9983C27.3706 78.457 26.8748 80.9319 25.3772 80.9319C23.8796 80.9319 20.8896 79.943 20.3938 78.9541C19.8981 77.9651 18.9014 77.9651 18.9014 75.9924C18.9014 74.0197 21.3905 69.5669 23.389 69.5669C25.3824 69.5669 25.8782 69.5566 25.8782 69.5566Z" fill="#FFBF99"/>
<path d="M27.3708 69.557C27.3708 69.557 28.8632 65.6064 27.8666 65.1042C26.8699 64.6123 24.8817 65.5961 24.3807 66.0932C23.885 66.5851 22.8883 66.5851 22.3874 66.5851C22.3874 66.5851 17.404 66.5851 16.4073 67.574C15.4106 68.5629 15.4106 69.0548 15.4106 69.5519C15.4106 70.0438 15.4054 71.9858 14.9148 73.0106C14.7031 73.4564 14.4191 75.4803 15.4106 77.4633C16.4021 79.4412 17.404 79.9331 17.8997 79.9331C18.3955 79.9331 18.8448 79.9331 18.8964 79.4412C18.9532 78.9083 19.1495 78.1551 19.3922 77.4633C19.6297 76.8023 19.8879 75.4855 19.8879 75.4855C19.8879 75.4855 20.3837 73.0157 21.3804 72.0268C22.3771 71.0378 22.3771 71.0378 24.3653 70.5459C26.3741 70.0591 26.875 71.0378 27.3708 69.557Z" fill="#170856"/>
<path d="M20.652 73.1692C21.3905 74.0096 20.3938 75.4904 20.3938 75.4904C20.3938 75.4904 18.9014 75.9823 18.9014 74.5015C18.9014 73.0206 19.9084 72.3238 20.652 73.1692Z" fill="#FFBF99"/>
<path d="M10.6733 93.9727C10.6733 93.9727 8.80387 101.11 9.12921 105.584C9.45455 110.052 10.7921 113.926 11.7629 116.621C12.7338 119.316 13.307 119.962 13.3432 121.658C13.3793 123.354 14.1798 125.362 15.1713 126.372C16.1628 127.381 16.9581 127.883 16.9581 127.883C16.9581 127.883 18.1355 128.426 17.9496 127.34C17.9496 127.34 18.7397 127.402 18.4402 126.797C18.4402 126.797 19.4937 126.818 18.7242 125.993C17.9548 125.162 16.5346 124.363 16.5346 124.363C16.5346 124.363 15.7238 123.077 16.8806 123.723C18.0374 124.363 19.0496 124.389 17.9806 123.343C16.9064 122.298 15.667 120.469 14.7581 117.123C13.8493 113.782 12.7699 107.177 14.0558 102.104C15.3417 97.0317 16.9684 95.3408 16.9684 95.3408L10.6733 93.9727Z" fill="#FFBF99"/>
<path d="M6.26923 170.807C6.26923 170.807 7.26075 173.568 8.36071 174.839C9.46068 176.11 10.3283 177.037 10.3283 177.037C10.3283 177.037 11.609 179.072 10.163 178.467C8.7222 177.862 0.748737 172.549 0.748737 172.549C0.748737 172.549 -0.387379 171.965 0.139366 171.001C0.66611 170.038 2.00363 168.173 2.00363 168.173L6.26923 170.807Z" fill="#170856"/>
<path d="M20.9152 176.972C20.9152 176.972 20.6209 177.776 22.2941 177.776C23.9673 177.776 33.0923 177.776 33.0923 177.776C33.0923 177.776 34.8481 177.428 33.2318 176.649C31.6051 175.87 26.7404 173.698 26.7404 173.698C26.7404 173.698 26.3686 173.6 26.3789 172.673H20.8533L20.9152 176.972Z" fill="#170856"/>
<path d="M18.4773 89.2173C18.4773 89.2173 18.8285 85.902 16.3962 85.5844C13.9639 85.2667 12.4198 88.4845 11.609 90.5751C10.7982 92.6657 10.3903 94.1978 10.3903 94.1978C10.3903 94.1978 15.6216 96.2884 17.0004 96.2884C17.0056 96.2884 18.1675 92.8143 18.4773 89.2173Z" fill="#F79F03"/>
<path d="M212.099 142.22C212.099 142.22 223.274 142.878 218.407 143.528C213.54 144.186 206.841 144.186 204.472 143.919C202.112 143.659 210.259 142.35 212.099 142.22Z" fill="#0064B7"/>
<path d="M212.872 143.697L213.033 174.827C213.033 174.827 217.87 174.949 218.728 176.082C219.587 177.214 218.59 177.925 213.616 177.803C208.641 177.681 205.652 177.696 205.652 177.696C205.652 177.696 203.23 177.421 206.073 175.99C208.917 174.559 211.194 174.972 211.194 174.972L211.355 143.735L212.872 143.697Z" fill="#0064B7"/>
<path d="M209.853 95.1153C209.853 95.1153 211.21 91.3436 207.876 90.3414C207.876 90.3414 206.91 84.657 202.372 87.2276C202.028 87.4189 201.637 87.4495 201.284 87.2735C200.081 86.6767 197.413 83.7925 195.566 88.2145C195.42 88.5588 195.068 88.6965 194.746 88.7118C193.381 88.7654 190.093 89.3009 192.791 93.3634C192.791 93.3634 194.041 94.8705 196.126 94.9929C196.126 94.9929 205.806 101.649 208.619 100.524C211.417 99.3844 211.31 96.37 209.853 95.1153Z" fill="#2C2477"/>
<path d="M200.617 93.1948C200.479 93.1489 195.328 91.4964 196.14 96.0791V96.0867C196.133 96.2091 195.987 100.317 199.283 102.682C199.329 102.712 199.375 102.75 199.413 102.796C199.62 103.018 200.517 103.806 201.966 102.49C203.307 101.274 203.752 102.115 203.897 102.467C203.936 102.559 203.989 102.659 204.035 102.743C204.242 103.118 204.878 104.013 204.457 104.625C204.012 105.267 203.453 106.063 203.307 106.277C203.292 106.3 203.307 106.331 203.33 106.331C204.081 106.285 211.616 105.795 211.432 104.127C211.432 104.127 210.98 102.284 210.98 102.276L210.842 102.245C210.819 102.238 210.796 102.23 210.773 102.215L208.42 100.486C208.412 100.486 208.412 100.478 208.404 100.478C208.251 100.493 205.99 100.692 205.185 99.7208C205.185 99.7208 204.181 98.5732 203.713 97.089C203.575 96.6452 203.644 96.1479 203.905 95.796C204.296 95.2758 204.71 94.3271 203.729 93.6539C203.729 93.6539 202.962 93.0877 202.265 93.9369L202.173 94.0517C202.104 94.1358 202.004 94.1511 201.92 94.0899L200.617 93.1948C200.624 93.1948 200.624 93.1948 200.617 93.1948Z" fill="#FFBF9C"/>
<path d="M210.994 102.276C210.994 102.276 207.561 105.459 203.659 105.819C203.659 105.819 201.528 108.183 201.214 113.339C200.9 118.496 200.693 130.048 201.007 130.798C201.321 131.547 219.641 131.425 219.641 131.425C219.641 131.425 218.284 112.704 216.099 108.81C216.099 108.81 212.872 103.156 210.994 102.276Z" fill="#DE051F"/>
<path d="M212.644 116.223C212.644 116.223 212.329 123.132 211.708 125.649C211.088 128.158 210.773 129.291 208.167 129.665C205.561 130.04 198.693 130.545 197.344 130.293C195.988 130.04 191.619 131.157 191.619 131.157C191.619 131.157 190.262 131.532 190.162 130.652C190.063 129.772 188.599 130.53 188.499 130.905C188.392 131.28 187.663 131.785 187.456 130.782C187.25 129.78 187.349 128.518 189.12 128.143C190.89 127.768 192.554 128.143 194.432 128.288C196.103 128.418 197.222 127.898 197.551 127.898L205.983 126.016C205.983 126.016 207.025 125.641 207.232 124.134C207.439 122.627 207.439 116.093 207.439 116.093L212.644 116.223Z" fill="#FFBF9C"/>
<path d="M213.479 116.973H206.833C206.757 112.076 207.224 107.425 209.838 107.417C209.838 107.425 213.479 106.599 213.479 116.973Z" fill="#EE384E"/>
<path d="M182.268 140.59C182.268 140.59 180.336 152.143 180.075 155.05C179.807 157.927 178.42 167.222 178.42 167.222L182.689 167.1L186.33 151.271L182.268 140.59Z" fill="#005498"/>
<path d="M219.549 130.208C219.625 130.729 220.085 138.502 219.326 140.468C218.637 142.266 216.828 142.855 213.601 143.107C210.872 143.322 196.73 142.595 192.438 142.35C191.855 142.319 191.434 143 191.618 143.658L197.98 166.22L194.231 168.232C194.231 168.232 185.593 152.403 184.236 148.631C182.88 144.859 181.009 138.333 181.117 136.819C181.117 136.819 180.802 133.927 184.029 133.552C187.195 133.185 197.282 131.241 197.658 131.165C197.665 131.165 197.673 131.165 197.681 131.165L200.992 130.79C201 130.79 201.007 130.79 201.015 130.79L219.549 130.208Z" fill="#0064E1"/>
<path d="M197.398 130.346C197.681 130.285 198.624 130.338 198.616 131.042C198.609 131.685 197.467 131.769 197.26 131.799C197.099 131.822 184.191 133.682 183.355 133.804C183.332 133.812 183.302 133.812 183.279 133.819C183.064 133.865 181.884 134.056 181.125 132.809C180.335 131.501 174.05 121.984 173.376 120.966C173.345 120.92 173.314 120.874 173.276 120.829C173.146 120.668 172.778 120.125 173.215 119.497C173.736 118.74 174.571 120.002 174.571 120.002L182.152 132.006C182.328 132.281 182.566 132.488 182.842 132.572H182.849C182.964 132.603 183.079 132.61 183.194 132.588" fill="#606060"/>
<path d="M178.45 167.077C178.442 167.077 178.427 167.077 178.419 167.084C178.189 167.299 174.71 170.512 172.901 171.239C172.724 171.307 172.556 171.384 172.387 171.46C172.249 171.522 172.119 171.59 171.988 171.667C171.889 171.728 171.789 171.789 171.69 171.858C171.621 171.912 171.552 171.965 171.483 172.027C171.437 172.072 171.391 172.118 171.345 172.172C171.314 172.21 171.291 172.248 171.268 172.294C171.253 172.325 171.237 172.356 171.23 172.386C171.222 172.424 171.222 172.455 171.23 172.493C171.23 172.532 171.23 172.562 171.23 172.6C171.23 172.639 171.23 172.677 171.23 172.715C171.23 172.73 171.245 172.746 171.26 172.746L182.75 171.254C182.781 171.246 182.811 171.239 182.834 171.223C182.957 171.139 183.287 170.833 183.202 170.122C183.11 169.318 182.75 167.452 182.689 167.146C182.681 167.123 182.666 167.107 182.643 167.1L178.45 167.077Z" fill="#2B2377"/>
<path d="M194.239 168.232C194.239 168.232 192.262 173.258 190.905 174.391C189.87 175.255 190.177 175.974 190.376 176.265C190.437 176.357 190.537 176.403 190.637 176.387C190.882 176.357 191.419 176.227 191.947 175.775C192.676 175.148 199.858 169.869 199.858 169.869C199.858 169.869 200.172 169.112 199.651 168.362C199.13 167.605 197.987 166.228 197.987 166.228L194.239 168.232Z" fill="#2B2377"/>
<path d="M4.87997 64.7812L8.03589 67.9312L11.1918 64.7811L8.0359 61.6311L4.87997 64.7812Z" fill="#0064E1"/>
<path d="M223.688 66.224L226.844 69.374L230 66.224L226.844 63.074L223.688 66.224Z" fill="#DE051F"/>
<path d="M39.2433 151.391C39.2433 151.391 41.0823 150.642 40.9462 148.534C40.8102 146.427 39.7219 144.934 41.969 145.542C44.2161 146.156 44.9719 146.427 46.6043 146.085C48.2367 145.743 49.592 145.065 48.8816 147.172C48.1712 149.279 47.3953 151.044 49.0781 151.386C50.7559 151.728 52.5596 150.455 52.7762 153.754C52.9929 157.053 50.3276 160.765 46.0148 160.9C41.702 161.036 39.7975 159.251 39.7975 159.251C39.7975 159.251 38.6387 157.622 40.4424 157.224C42.2461 156.822 44.0851 156.063 43.1631 155.218C42.2461 154.378 39.2483 154.308 39.2483 154.308C39.2483 154.308 35.4998 153.563 39.2433 151.391Z" fill="#649EEA"/>
<path d="M58.9537 151.934C58.6514 149.831 58.8832 148.318 62.798 147.745C66.7128 147.171 68.9951 149.52 69.2319 151.934C69.4687 154.347 66.0679 155.222 66.0679 155.222C66.0679 155.222 63.6495 155.911 64.8788 158.018C66.1082 160.126 66.6624 162.162 63.8812 162.469C61.1001 162.776 58.0569 162.042 56.364 160.915C54.6712 159.789 52.9329 156.932 54.8727 155.439C54.8727 155.439 55.4168 155.067 57.2911 154.961C59.1553 154.855 58.9537 151.934 58.9537 151.934Z" fill="#023EA1"/>
<path d="M45.1781 151.592C45.1781 151.592 48.4278 158.929 48.8712 163.923" stroke="#023EA1" stroke-width="0.520509" stroke-miterlimit="10"/>
<path d="M63.2506 152.799C63.2506 152.799 57.4968 161.328 56.1365 164.179" stroke="#649EEA" stroke-width="0.520509" stroke-miterlimit="10"/>
<path d="M46.866 163.35H60.0714C60.0714 163.35 61.5174 163.45 61.3965 165.422C61.2856 167.237 58.9781 166.845 57.789 166.845C56.6 166.845 46.5788 166.845 46.5788 166.845C46.5788 166.845 44.9564 167.121 44.9564 165.286C44.9564 163.45 45.5711 163.35 46.866 163.35Z" fill="#0054A5"/>
<path d="M46.5845 166.844L48.5847 178.491H57.4521L58.9536 169.751L46.5996 166.844H46.5845Z" fill="#0054A5"/>
<path d="M46.5991 166.844L58.9531 169.751L59.4519 166.844H46.5991Z" fill="#006AD5"/>
<path d="M52.2777 163.792C52.2777 163.792 52.9478 150.868 56.8072 142.761" stroke="#FCBE42" stroke-width="0.520509" stroke-miterlimit="10"/>
<path d="M59.9817 138.094C59.9817 138.094 60.2991 142.062 56.4196 143.611C56.4196 143.611 55.5832 140.221 59.9817 138.094Z" fill="#FCBE42"/>
<path d="M54.1627 150.722C54.1627 150.722 55.5936 147.337 59.987 147.79C59.9921 147.79 59.6495 151.159 54.1627 150.722Z" fill="#FCBE42"/>
<path d="M52.7161 159.236C52.7161 159.236 53.4567 155.635 57.8552 155.223C57.8552 155.223 58.1827 158.597 52.7161 159.236Z" fill="#FCBE42"/>
<path d="M52.5651 159.256C52.5651 159.256 53.0739 155.62 49.0685 153.759C49.0685 153.759 47.6325 156.832 52.5651 159.256Z" fill="#FCBE42"/>
<path d="M54.2122 150.697C54.2122 150.697 55.1846 147.151 51.4462 144.798C51.4412 144.798 49.6274 147.664 54.2122 150.697Z" fill="#FCBE42"/>
<defs>
<clipPath id="clip0_3707_6358">
<rect width="176.97" height="156.965" fill="white" transform="translate(33.734 20.1777)"/>
</clipPath>
</defs>
</svg>
