<svg width="270" height="186" viewBox="0 0 270 186" fill="none" xmlns="http://www.w3.org/2000/svg">
<g clip-path="url(#clip0_3375_3743)">
<path d="M92.2848 111.472C105.388 98.3686 105.363 77.1 92.2301 63.9667C79.0969 50.8335 57.8282 50.809 44.7251 63.9121C31.6221 77.0151 31.6466 98.2838 44.7798 111.417C57.913 124.55 79.1817 124.575 92.2848 111.472Z" stroke="#DD1F26" stroke-width="0.713516" stroke-miterlimit="10" stroke-dasharray="4.28 4.28"/>
<path d="M38.4595 95.2513C40.1085 93.6023 40.1054 90.9256 38.4526 89.2728C36.7998 87.62 34.1231 87.6169 32.4741 89.2659C30.8251 90.9149 30.8282 93.5916 32.481 95.2444C34.1338 96.8972 36.8105 96.9003 38.4595 95.2513Z" fill="#24499F"/>
<path d="M35.3746 94.5028L36.906 91.3538L33.8363 91.6734L35.3746 94.5028Z" fill="white"/>
<path d="M88.1201 -6.55762C88.1201 -6.55762 83.9822 -3.12121 87.8836 -1.58075C91.9033 -0.0402875 93.4402 1.85566 91.4304 5.64756C89.1841 9.43947 89.8935 12.4019 91.9033 13.8239C94.1495 15.2458 98.2874 17.3788 94.9771 22.2371C91.6668 27.214 86.2285 37.1677 80.4355 34.4423C74.5243 31.7169 71.6869 22.0001 74.0514 18.2082C76.4159 14.4163 80.3173 13.3499 78.3075 8.96548C76.5341 4.58109 72.3962 6.71404 72.278 1.61867C72.1598 -3.5952 71.4504 -8.92756 78.6621 -10.5865C84.8098 -12.127 89.7752 -9.04606 88.1201 -6.55762Z" stroke="#1C4599" stroke-width="0.713516" stroke-miterlimit="10"/>
<path d="M82.4453 -3.23926C82.4453 -3.23926 83.1547 29.5844 85.0462 37.7607" stroke="#1C4599" stroke-width="0.713516" stroke-miterlimit="10"/>
<path d="M89.775 17.4976L83.5091 23.4224L77.2432 19.986" stroke="#1C4599" stroke-width="0.713516" stroke-miterlimit="10"/>
<path d="M88.0017 2.21143L82.918 5.88483L77.125 3.63339" stroke="#1C4599" stroke-width="0.713516" stroke-miterlimit="10"/>
<path d="M101.952 -6.20188C101.952 -6.20188 111.883 -3.12095 109.164 1.38193C106.208 5.76632 107.864 7.66227 109.873 9.32122C111.647 10.9802 116.257 12.8761 112.829 17.379C109.4 21.8819 105.972 22.8299 106.208 25.9108C106.445 28.9917 103.253 41.4339 98.642 38.59C93.913 35.8645 93.5584 28.3992 94.2677 25.0813C94.9771 22.0004 92.0214 18.4455 89.3023 16.0755C86.5831 13.8241 85.0462 9.32122 89.184 7.89926C93.4401 6.3588 95.4499 1.97441 94.1495 -1.10651C92.2579 -3.95043 95.2135 -8.09783 101.952 -6.20188Z" fill="#FABD41"/>
<path d="M101.006 0.552246L96.041 42.6187" stroke="white" stroke-width="0.713516" stroke-miterlimit="10" stroke-linecap="round" stroke-linejoin="round"/>
<path d="M107.982 13.4684L98.8785 17.6158L91.0757 10.98" stroke="white" stroke-width="0.713516" stroke-miterlimit="10" stroke-linecap="round" stroke-linejoin="round"/>
<path d="M55.3718 -0.395811C55.3718 -0.395811 51.3522 -3.35824 53.9531 -6.79465C56.4358 -10.2311 62.82 -10.2311 64.1204 -6.91314C65.5391 -3.83222 63.6475 -1.46228 66.4849 -0.988296C69.2041 -0.514308 76.6522 1.97413 75.2335 5.52904C73.6966 9.08395 69.3223 9.32094 71.2139 14.0608C72.9873 18.8007 82.2088 19.6302 77.4798 26.266C72.7508 32.7833 61.7559 41.7891 56.0812 30.5319C50.6428 19.2747 62.7017 21.5261 56.1994 14.2978C49.697 7.0695 55.1354 6.8325 56.9087 4.10707C58.5639 1.02615 55.3718 -0.395811 55.3718 -0.395811Z" fill="#ED3B4E"/>
<path d="M62.8198 3.75171C62.8198 3.75171 63.5292 16.7864 68.0217 27.5696C72.5142 38.3528 75.3516 39.7748 75.3516 39.7748" stroke="white" stroke-width="0.713516" stroke-miterlimit="10" stroke-linecap="round" stroke-linejoin="round"/>
<path d="M249.022 29.7329H56.8345C56.4093 29.7329 56.0786 30.0636 56.0786 30.4888V145.905C56.0786 146.331 56.4093 146.661 56.8345 146.661H249.022C249.447 146.661 249.778 146.331 249.778 145.905V30.4888C249.778 30.0636 249.447 29.7329 249.022 29.7329Z" fill="#0064B7"/>
<path d="M245.857 33.7959H59.9526V141.134H245.857V33.7959Z" fill="white"/>
<rect x="197.685" y="45.891" width="36.0586" height="41.9125" rx="0.792007" stroke="#DBE9F8" stroke-width="0.528004"/>
<rect x="201.324" y="73.4329" width="26.8302" height="0.975644" rx="0.487822" fill="#DBE9F8"/>
<rect x="201.324" y="76.8477" width="22.4398" height="0.975644" rx="0.487822" fill="#DBE9F8"/>
<rect x="201.324" y="79.2866" width="22.4398" height="0.975644" rx="0.487822" fill="#DBE9F8"/>
<rect x="201.324" y="81.7258" width="22.4398" height="0.975644" rx="0.487822" fill="#DBE9F8"/>
<rect x="201.324" y="49.5295" width="28.7815" height="19.5129" rx="1.05601" fill="#DBE9F8"/>
<rect x="197.685" y="92.5704" width="36.0586" height="41.9125" rx="0.792007" stroke="#DBE9F8" stroke-width="0.528004"/>
<rect x="201.324" y="120.112" width="26.8302" height="0.975644" rx="0.487822" fill="#DBE9F8"/>
<rect x="201.324" y="123.527" width="22.4398" height="0.975644" rx="0.487822" fill="#DBE9F8"/>
<rect x="201.324" y="125.966" width="22.4398" height="0.975644" rx="0.487822" fill="#DBE9F8"/>
<rect x="201.324" y="128.405" width="22.4398" height="0.975644" rx="0.487822" fill="#DBE9F8"/>
<rect x="201.324" y="96.209" width="28.7815" height="19.5129" rx="1.05601" fill="#DBE9F8"/>
<path opacity="0.53" d="M245.857 33.7959H59.9526V38.8982H245.857V33.7959Z" fill="#ECF3F9"/>
<path d="M170.314 146.708H135.542V163.952H170.314V146.708Z" fill="#005092"/>
<path d="M185.291 163.953H120.519C117.307 163.953 114.661 166.551 114.661 169.811H191.149C191.149 166.551 188.55 163.953 185.291 163.953Z" fill="#0064B7"/>
<path d="M187.206 52.4966C157.082 51.8777 141.659 38.6726 141.659 38.6726C141.659 38.6726 126.236 51.8777 96.1117 52.4966C95.9569 67.6618 96.7822 83.446 100.599 98.1469C106.48 120.895 122.677 129.715 141.659 136.266C160.641 129.715 176.838 120.895 182.718 98.1469C186.535 83.446 187.309 67.6618 187.206 52.4966Z" fill="white"/>
<path d="M184.575 54.5083C156.205 53.9409 141.659 41.458 141.659 41.458C141.659 41.458 127.113 53.9409 98.7426 54.5083C98.6395 68.7966 99.3616 83.7038 102.972 97.5279C108.543 118.986 123.812 127.291 141.711 133.481C159.61 127.291 174.878 118.986 180.449 97.5279C183.956 83.7038 184.73 68.7966 184.575 54.5083Z" fill="#0064B5"/>
<path d="M142.02 103.202H140.576C138.41 103.202 136.656 101.448 136.656 99.2818V88.6558C136.656 86.4894 138.41 84.7356 140.576 84.7356H142.02C144.187 84.7356 145.941 86.4894 145.941 88.6558V99.2818C145.941 101.448 144.187 103.202 142.02 103.202Z" fill="white"/>
<path d="M131.807 86.7989V77.4109C131.807 72.0979 136.088 67.8166 141.401 67.8166C146.714 67.8166 150.996 72.0979 150.996 77.4109V86.7989H155.741V77.4109C155.741 69.5188 149.293 63.071 141.401 63.071C133.509 63.071 127.062 69.5188 127.062 77.4109V86.7989H131.807Z" fill="white"/>
<path d="M160.177 80.6606H158.114H150.944H141.298V85.7157C143.155 85.7157 144.651 87.2116 144.651 89.1201C144.651 90.5644 143.723 91.8024 142.433 92.3182L144.032 100.159C144.135 100.571 143.826 100.984 143.465 100.984H141.247V106.503H160.074C160.538 106.503 160.951 106.142 160.951 105.626V81.5891C161.003 81.0217 160.641 80.6606 160.177 80.6606Z" fill="#005092"/>
<path d="M141.298 100.932H139.08C138.719 100.932 138.409 100.52 138.513 100.107L140.112 92.2666C138.616 91.6992 137.636 90.1518 137.997 88.398C138.255 87.0568 139.338 86.0252 140.679 85.7673C140.885 85.7157 141.143 85.7157 141.35 85.7157V80.6606H132.013H124.482H122.419C121.955 80.6606 121.542 81.0217 121.542 81.5375V105.626C121.542 106.091 121.903 106.503 122.419 106.503H141.298V100.932Z" fill="#005092"/>
<path d="M139.235 88.0367H129.847H129.125H125.256H125.05H123.399H120.459H118.808H115.713H115.559H108.595C107.615 83.2912 103.385 79.6804 98.3301 79.6804C92.5529 79.6804 87.8589 84.3744 87.8589 90.1516C87.8589 90.2032 87.8589 90.3064 87.8589 90.3579H92.037C92.037 90.3064 92.037 90.2032 92.037 90.1516C92.037 86.6956 94.8741 83.8586 98.3301 83.8586C101.786 83.8586 104.623 86.6956 104.623 90.1516C104.623 90.2032 104.623 90.3064 104.623 90.3579H115.61H115.765H118.344H118.86H123.451H125.308H129.176H129.898H139.286H141.401C141.401 90.3064 141.401 90.2548 141.401 90.2032C141.401 89.0168 140.421 88.0883 139.235 88.0367Z" fill="#EC384E"/>
<path d="M139.235 90.4097H129.847H129.124H125.256H123.399H118.808H118.292H115.713H115.558H104.571C104.468 93.7625 101.683 96.4964 98.2783 96.4964C94.8739 96.4964 92.0885 93.7625 91.9853 90.4097H87.8071C87.9103 96.0837 92.5527 100.675 98.2783 100.675C103.282 100.675 107.512 97.1154 108.543 92.4214H115.558H115.713H118.808H123.399H123.45H124.327H125.256H128.041H128.918H129.124H129.847H130.724V97.2701C130.724 98.0954 131.394 98.766 132.219 98.766C133.045 98.766 133.715 98.0954 133.715 97.2701V92.473H134.902V94.3815C134.902 95.2068 135.572 95.929 136.449 95.929C137.223 95.929 137.893 95.2584 137.893 94.4847V92.5245H139.235C140.369 92.5245 141.298 91.5961 141.349 90.5128H139.235V90.4097Z" fill="#EC384E"/>
<path d="M216.767 6.74474L210.733 8.44043L212.425 14.4878L218.459 12.7921L216.767 6.74474Z" fill="#ED3B4E"/>
<path d="M35.2234 40.1871L29.1899 41.8828L30.8817 47.9302L36.9152 46.2345L35.2234 40.1871Z" fill="#24499F"/>
<path d="M57.355 92.4045C57.1834 92.8326 56.8401 93.2608 56.4969 93.689C56.3253 94.1171 55.982 94.6309 55.6388 95.0591C55.1239 96.001 54.6091 97.0286 54.0942 97.9706C53.1503 99.8545 52.2922 101.824 51.6915 103.794L51.5199 104.564C51.5199 104.564 51.5199 104.564 51.5199 104.479V104.393C51.5199 104.393 51.5199 104.307 51.4341 104.222C51.4341 104.136 51.3483 104.05 51.3483 104.05C51.2625 103.879 51.1767 103.708 50.9193 103.622C50.576 103.451 50.4902 103.451 50.576 103.537C50.6618 103.622 51.0051 103.622 51.4341 103.622C51.8632 103.622 52.378 103.622 52.9787 103.537C55.0381 103.194 57.2692 102.68 59.4144 102.167L60.7016 104.907C59.6719 105.592 58.5563 106.191 57.4408 106.619C56.4111 107.133 55.2098 107.647 54.0084 107.99C53.3219 108.161 52.7213 108.418 52.1206 108.503C51.7774 108.589 51.3483 108.589 50.9193 108.589C50.4902 108.589 50.0612 108.589 49.5463 108.503C49.0314 108.418 48.345 108.332 47.6585 107.647C47.3152 107.476 47.0578 106.962 46.7146 106.619C46.6288 106.448 46.5429 106.191 46.3713 105.934C46.2855 105.763 46.2855 105.506 46.1997 105.249V104.907V104.736C46.1997 104.564 46.1997 104.393 46.1997 104.222C46.1997 104.05 46.1997 103.879 46.1997 103.794V103.622V103.537L46.3713 102.595C46.5429 101.31 47.0578 100.026 47.401 98.8269C47.8301 97.628 48.2591 96.5148 48.774 95.4016C49.2889 94.2884 49.8037 93.1752 50.4902 92.1476C50.8334 91.6338 51.1767 91.12 51.4341 90.5206C51.6915 89.9211 52.1206 89.493 52.4638 88.8936L57.355 92.4045Z" fill="#FFBE9D"/>
<path d="M58.5565 93.004C58.1275 93.946 57.7842 94.8879 57.3552 95.7443C56.6687 97.2856 55.9822 98.4845 55.4674 99.5121C55.0383 100.368 54.6951 100.797 54.6951 100.797L46.9722 96.9431C46.9722 96.9431 50.0613 87.9517 53.3221 87.0098C56.7545 86.0678 60.2727 88.7224 58.5565 93.004Z" fill="#0054A3"/>
<path d="M61.6455 115.097C61.6455 115.097 58.8995 139.673 57.0975 148.579C55.1239 158.427 41.995 190.025 41.995 190.025L35.645 188.655C38.82 177.694 43.3679 157.314 46.2855 149.521C48.4307 137.704 46.028 122.804 49.203 113.641L61.6455 115.097Z" fill="#EE384E"/>
<path d="M68.1673 115.868C68.1673 115.868 69.8835 142.071 70.1409 151.576C70.3984 161.51 67.9099 190.967 67.9099 190.967H61.8173C61.8173 190.967 59.243 163.65 60.4444 150.377C58.8998 140.273 55.5532 114.326 55.5532 114.326L68.1673 115.868Z" fill="#EE384E"/>
<path d="M73.9164 71.7668C73.9164 71.7668 72.8009 81.8714 70.484 84.3547C69.1968 86.4099 65.078 84.3547 65.078 84.3547L64.0482 88.3794L58.728 86.4955L63.1901 70.6536L73.9164 71.7668Z" fill="#FFBE9D"/>
<path d="M59.2428 82.471C59.6718 83.2417 60.6157 83.5842 61.4738 83.5842C62.761 83.4986 64.0481 82.7279 65.0778 82.2997C65.3353 82.2141 65.5069 82.0428 65.6785 81.9572C66.2792 81.6146 67.4805 81.1865 67.6521 80.1589C67.6521 79.5595 67.3089 79.1313 67.2231 78.5319C67.1373 78.0181 67.3947 77.4187 67.9096 77.333C68.7677 76.9905 69.4542 77.8468 69.2825 78.5319C69.1967 78.7888 69.1109 79.1313 69.2825 79.2169C69.54 79.3026 69.7116 79.1313 69.8832 78.96C70.1406 78.4463 70.3122 77.8468 70.4839 77.2474C70.5697 76.648 70.9129 76.0486 71.5136 75.706C71.8568 75.4491 72.2859 75.5348 72.7149 75.5348C72.9724 75.5348 73.0582 75.5348 73.2298 75.5348C74.4311 75.5348 75.5467 74.7641 75.8899 73.5652C76.2331 72.3664 75.4608 71.2531 75.4608 71.2531C75.4608 71.2531 75.6325 69.4549 73.573 69.1123C71.2562 68.8554 70.9987 69.6261 68.0812 68.4273C66.0218 67.571 63.7049 69.4549 63.7049 69.4549C61.9029 68.9411 61.0448 70.0543 61.0448 70.0543C60.1009 70.6537 59.7576 71.9382 59.586 73.0514C59.4144 74.2503 59.586 75.3635 59.4144 76.4767C59.3286 77.5899 59.0711 78.6175 58.8995 79.6451C58.7279 80.7583 58.7279 81.8715 59.2428 82.8135" fill="#170856"/>
<path d="M56.4115 88.4653C56.3257 87.352 56.4115 85.5538 57.2696 85.2969C58.1277 85.04 63.5337 85.3825 66.2796 87.5233C65.3357 89.2359 65.4215 90.9486 65.4215 90.9486L56.4115 88.4653Z" fill="#0054A3"/>
<path opacity="0.2" d="M55.4671 91.9763L51.4341 98.9125L51.7773 99.1694C51.7773 99.1694 53.3219 97.628 55.1239 95.4872L55.4671 91.9763Z" fill="black"/>
<path d="M71.1706 103.108C70.4841 106.534 69.4544 110.815 68.1673 116.039L49.2891 113.727C49.4607 111.329 52.2066 100.796 51.5201 89.4929C51.4343 87.9515 52.8931 86.667 54.6951 86.667C55.5532 86.667 56.6687 86.7526 57.6126 86.8383C60.0153 87.0095 63.5335 87.352 65.593 87.8658C68.5105 88.3796 70.9132 89.4072 70.9132 89.4072C70.9132 89.4072 72.2861 91.0342 71.5997 98.3986C71.3422 99.6831 71.2564 101.224 71.1706 103.108Z" fill="#0083F9"/>
<path opacity="0.6" d="M71.1706 103.108C70.4841 106.534 69.4544 110.815 68.1673 116.039L49.2891 113.727C49.4607 111.329 52.2066 100.796 51.5201 89.4929C51.4343 87.9515 52.8931 86.667 54.6951 86.667C55.5532 86.667 56.6687 86.7526 57.6126 86.8383C60.0153 87.0095 63.5335 87.352 65.593 87.8658C68.5105 88.3796 70.9132 89.4072 70.9132 89.4072C70.9132 89.4072 72.2861 91.0342 71.5997 98.3986C71.3422 99.6831 71.2564 101.224 71.1706 103.108Z" fill="#0083F9"/>
<path d="M72.6293 92.4041C72.8009 92.7466 73.0584 93.1747 73.4016 93.6885C73.7448 94.1167 74.0881 94.5449 74.3455 95.0587C75.032 95.915 75.6327 96.8569 76.4049 97.7989C77.7779 99.5115 79.3225 101.224 80.8671 102.766C81.2961 103.108 81.6394 103.451 82.0684 103.708L82.1542 103.879H82.24C82.1542 103.879 82.0684 103.879 82.0684 103.793C81.8968 103.793 81.6394 103.793 81.6394 103.793C81.5535 103.879 81.811 103.793 82.1542 103.622C82.4975 103.451 82.9265 103.108 83.1839 102.766C84.7285 101.395 86.1015 99.4259 87.4744 97.6276L90.1345 98.9121C89.7055 100.197 89.2764 101.31 88.7616 102.423C88.59 103.022 88.2467 103.622 87.9035 104.136C87.5602 104.649 87.217 105.335 86.8738 105.848C86.5305 106.362 86.0157 106.876 85.3292 107.561C84.9859 107.732 84.6427 108.075 84.2995 108.417C83.8704 108.589 83.4414 108.931 82.7549 109.102C82.0684 109.274 81.3819 109.274 80.6096 109.102C80.1806 109.017 79.8373 108.931 79.5799 108.674L79.4941 108.589L79.1509 108.246L78.9792 108.16C78.3786 107.732 77.7779 107.39 77.263 106.962C75.1178 105.249 73.3158 103.451 71.6854 101.481C70.8273 100.539 70.055 99.5115 69.3685 98.4839C68.9395 97.9701 68.5962 97.4564 68.3388 96.8569C67.9956 96.3431 67.6523 95.8293 67.3091 94.973L72.6293 92.4041Z" fill="#FFBE9D"/>
<path d="M87.3887 97.3709L89.4481 94.3738L91.9366 97.9703C91.9366 97.9703 90.0488 99.683 88.3326 99.5117L87.3887 97.3709Z" fill="#FFBE9D"/>
<path d="M93.3955 92.918L93.9962 96.3433L91.9367 97.9703L89.4482 94.3737L93.3955 92.918Z" fill="#FFBE9D"/>
<path d="M64.8206 92.7469C64.9064 96.1721 71.857 103.879 71.857 103.879L79.2367 99.0836C79.2367 99.0836 76.834 94.7164 73.9165 91.548C69.2827 86.7526 64.5632 88.6365 64.8206 92.7469Z" fill="#0054A3"/>
</g>
<defs>
<clipPath id="clip0_3375_3743">
<rect width="270" height="186" fill="white"/>
</clipPath>
</defs>
</svg>
