<svg width="230" height="180" viewBox="0 0 230 180" fill="none" xmlns="http://www.w3.org/2000/svg">
<path d="M53.3036 69.9486L53.0184 69.9819L53.5857 74.8202L53.8709 74.7869L53.3036 69.9486Z" fill="#007CFF"/>
<path d="M54.0788 76.5307L53.7936 76.564L54.0739 78.9547L54.3591 78.9214L54.0788 76.5307Z" fill="#007CFF"/>
<path d="M75.1293 60.1501L74.7273 59.1185C74.153 57.6285 72.7172 56.7115 71.1666 56.8834L56.1769 58.7174C54.2817 58.8893 53.0182 60.6086 53.1905 62.4426L57.4404 98.7203C57.5553 99.9812 58.7613 100.898 60.0248 100.784L113.436 94.5367C114.7 94.422 115.619 93.2185 115.504 91.9577L111.828 60.6086C111.713 59.3478 110.507 58.4308 109.244 58.5454L78.2881 62.156C76.8523 62.2706 75.5888 61.5256 75.1293 60.1501Z" fill="#007CFF"/>
<path d="M76.5506 44.49L59.71 47.8384L64.3335 70.9947L81.1741 67.6464L76.5506 44.49Z" fill="white"/>
<path opacity="0.7" d="M76.5506 44.49L59.71 47.8384L64.3335 70.9947L81.1741 67.6464L76.5506 44.49Z" fill="white"/>
<path d="M74.3826 50.0637L63.9875 52.1269C63.4707 52.2416 63.0112 51.8977 62.8389 51.3819C62.724 50.8661 63.0686 50.4076 63.5855 50.2357L73.9806 48.1725C74.4975 48.0579 74.957 48.4017 75.1293 48.9175C75.1867 49.4333 74.8995 49.8918 74.3826 50.0637Z" fill="#DDE7F6"/>
<path d="M75.1292 53.9038L64.7341 55.9096C64.2172 56.0243 63.7578 55.6804 63.5855 55.1646C63.4706 54.6488 63.8152 54.1903 64.3321 54.0184L74.7272 51.9552C75.2441 51.8406 75.7035 52.1844 75.8758 52.7002C75.9333 53.3307 75.6461 53.8465 75.1292 53.9038Z" fill="#DDE7F6"/>
<path d="M75.8758 57.6858L65.4807 59.749C64.9638 59.8636 64.5044 59.5198 64.3321 59.004C64.2172 58.4882 64.5618 58.0297 65.0787 57.8577L75.4738 55.7945C75.9907 55.6799 76.4501 56.0238 76.6224 56.5396C76.7373 57.0554 76.3927 57.6285 75.8758 57.6858Z" fill="#DDE7F6"/>
<path d="M76.6799 61.5256L66.2848 63.5888C65.7679 63.7035 65.3084 63.3596 65.1361 62.8438C65.0213 62.328 65.3659 61.8695 65.8828 61.6976L76.2779 59.6344C76.7947 59.5198 77.2542 59.8636 77.4265 60.3794C77.4839 60.9525 77.1968 61.411 76.6799 61.5256Z" fill="#DDE7F6"/>
<path d="M74.5549 65.939L67.0314 67.4864C66.5145 67.6011 66.055 67.2572 65.8827 66.7414C65.7679 66.2256 66.1125 65.7671 66.6293 65.5952L74.2103 64.1051C74.7272 63.9905 75.1866 64.3343 75.3589 64.8501C75.4164 65.4232 75.0718 65.7671 74.5549 65.939Z" fill="#DDE7F6"/>
<path d="M100.618 40.0716L83.6038 42.3936L86.8099 65.7884L103.824 63.4665L100.618 40.0716Z" fill="white"/>
<path opacity="0.7" d="M100.618 40.0716L83.6038 42.3936L86.8099 65.7884L103.824 63.4665L100.618 40.0716Z" fill="white"/>
<path d="M98.0446 45.4788L87.5346 46.9116C87.0177 46.9689 86.5583 46.6251 86.5009 46.1093C86.4434 45.5935 86.788 45.135 87.3049 45.0777L97.8149 43.6449C98.3318 43.5876 98.7912 43.9315 98.8486 44.4473C98.9061 44.8484 98.5615 45.4215 98.0446 45.4788Z" fill="#DDE7F6"/>
<path d="M98.6187 49.2616L88.1087 50.6943C87.5918 50.7516 87.1324 50.4078 87.075 49.892C87.0175 49.3762 87.3621 48.9177 87.879 48.8604L98.389 47.4276C98.9059 47.3703 99.3653 47.7142 99.4227 48.23C99.4802 48.7458 99.1356 49.2616 98.6187 49.2616Z" fill="#DDE7F6"/>
<path d="M91.5546 54.1898L88.6831 54.591C88.1662 54.6483 87.7067 54.3044 87.6493 53.7886C87.5919 53.2728 87.9365 52.8143 88.4533 52.757L91.3249 52.3558C91.8418 52.2985 92.3013 52.6424 92.3587 53.1582C92.3587 53.6167 92.0715 54.1898 91.5546 54.1898Z" fill="#DDE7F6"/>
<path d="M97.1256 53.4447L94.254 53.8458C93.7371 53.9032 93.2777 53.5593 93.2202 53.0435C93.1628 52.5277 93.5074 52.0692 94.0243 52.0119L96.8958 51.6107C97.4127 51.5534 97.8722 51.8973 97.9296 52.4131C97.987 52.9289 97.585 53.33 97.1256 53.4447Z" fill="#DDE7F6"/>
<path d="M99.6526 57.0555L89.2 58.4883C88.6832 58.5456 88.2237 58.2017 88.1663 57.6859C88.1088 57.1701 88.4534 56.7116 88.9703 56.6543L99.4803 55.2216C99.9972 55.1642 100.457 55.5081 100.514 56.0239C100.571 56.5397 100.169 56.9982 99.6526 57.0555Z" fill="#DDE7F6"/>
<path d="M97.2979 61.3538L89.6595 62.3854C89.1426 62.4428 88.6832 62.0989 88.6257 61.5831C88.5683 61.0673 88.9129 60.6088 89.4298 60.5515L97.0682 59.5199C97.5851 59.4626 98.0445 59.8065 98.102 60.3223C98.1594 60.7807 97.8722 61.2965 97.2979 61.3538Z" fill="#DDE7F6"/>
<path d="M84.5759 43.4027L67.4691 44.8901L69.523 68.4125L86.6297 66.9251L84.5759 43.4027Z" fill="white"/>
<path opacity="0.8" d="M84.5759 43.4027L67.4691 44.8901L69.523 68.4125L86.6297 66.9251L84.5759 43.4027Z" fill="white"/>
<path d="M81.7339 48.6878L71.1665 49.6048C70.6496 49.6621 70.2476 49.3182 70.1902 48.7451C70.1327 48.2293 70.4773 47.8281 71.0517 47.7708L81.619 46.8539C82.1359 46.7965 82.538 47.1404 82.5954 47.7135C82.5954 48.2866 82.2508 48.6878 81.7339 48.6878Z" fill="#DDE7F6"/>
<path d="M82.0785 52.6995L71.5111 53.6165C70.9942 53.6738 70.5922 53.3299 70.5348 52.7568C70.4774 52.241 70.8219 51.8399 71.3963 51.7826L81.9637 50.8656C82.4805 50.8083 82.8826 51.1521 82.94 51.7252C82.94 52.1264 82.538 52.5849 82.0785 52.6995Z" fill="#DDE7F6"/>
<path d="M82.3656 56.5392L71.7982 57.3416C71.2813 57.3989 70.8793 57.055 70.8219 56.4819C70.7645 55.9661 71.109 55.565 71.6834 55.5077L82.2508 54.5907C82.7676 54.5334 83.1697 54.8772 83.2271 55.4503C83.2845 56.1381 82.9399 56.4246 82.3656 56.5392Z" fill="#DDE7F6"/>
<path d="M82.7677 60.4365L72.2003 61.3535C71.6834 61.4108 71.2814 61.0669 71.224 60.4938C71.1666 59.978 71.5111 59.5769 72.0855 59.5195L82.538 58.5453C83.0549 58.488 83.4569 58.8318 83.5143 59.4049C83.6292 59.8634 83.2272 60.3792 82.7677 60.4365Z" fill="#DDE7F6"/>
<path d="M80.1833 64.5057L72.4874 65.1934C71.9706 65.2507 71.5685 64.9069 71.5111 64.3337C71.4537 63.818 71.7983 63.4168 72.3726 63.3595L80.0684 62.6717C80.5853 62.6144 80.9873 62.9583 81.0447 63.5314C81.0447 64.1618 80.7001 64.5057 80.1833 64.5057Z" fill="#DDE7F6"/>
<path d="M105.443 42.212L88.2913 43.0381L89.432 66.6218L106.583 65.7957L105.443 42.212Z" fill="white"/>
<path opacity="0.8" d="M105.443 42.212L88.2913 43.0381L89.432 66.6218L106.583 65.7957L105.443 42.212Z" fill="white"/>
<path d="M102.409 47.3696L91.7846 47.8854C91.2677 47.8854 90.8657 47.4842 90.8082 47.0257C90.8082 46.5099 91.2102 46.1087 91.6697 46.0514L102.237 45.5356C102.754 45.5356 103.156 45.9368 103.213 46.3953C103.271 47.0257 102.926 47.3696 102.409 47.3696Z" fill="#DDE7F6"/>
<path d="M102.582 51.3813L92.0142 51.8971C91.4973 51.8971 91.0953 51.4959 91.0378 51.0374C91.0378 50.5216 91.4399 50.1205 91.8993 50.0632L102.467 49.5474C102.984 49.5474 103.386 49.9485 103.443 50.407C103.5 50.9801 103.098 51.3813 102.582 51.3813Z" fill="#DDE7F6"/>
<path d="M95.1155 55.6796L92.1865 55.7943C91.6697 55.7943 91.2676 55.3931 91.2102 54.9346C91.2102 54.4188 91.6122 54.0176 92.0717 53.9603L95.0007 53.8457C95.5176 53.8457 95.9196 54.2469 95.977 54.7054C96.0345 55.1639 95.6324 55.6223 95.1155 55.6796Z" fill="#DDE7F6"/>
<path d="M100.801 55.393L97.8722 55.5076C97.3553 55.5076 96.9533 55.1065 96.8959 54.648C96.8959 54.1322 97.2979 53.731 97.7573 53.6737L100.686 53.5591C101.203 53.5591 101.605 53.9603 101.663 54.4187C101.663 54.8772 101.318 55.393 100.801 55.393Z" fill="#DDE7F6"/>
<path d="M102.984 59.1757L92.4162 59.6915C91.8993 59.6915 91.4973 59.2904 91.4398 58.8319C91.4398 58.3161 91.8418 57.9149 92.3013 57.8576L102.869 57.3418C103.386 57.3418 103.788 57.743 103.845 58.2015C103.845 58.7173 103.5 59.1757 102.984 59.1757Z" fill="#DDE7F6"/>
<path d="M100.284 63.2451L92.5885 63.6463C92.0716 63.6463 91.6696 63.2451 91.6122 62.7866C91.6122 62.2708 92.0142 61.8696 92.4737 61.8123L100.169 61.4111C100.686 61.4111 101.088 61.8123 101.146 62.2708C101.146 62.7866 100.801 63.2451 100.284 63.2451Z" fill="#DDE7F6"/>
<path d="M79.8962 60.8949L79.6665 59.9206C79.2644 58.4879 77.9435 57.5709 76.278 57.7428L61.3458 59.4621C59.4506 59.6341 58.0148 61.3534 58.0148 63.13L58.8762 98.6055C58.8762 99.8663 59.91 100.726 61.2309 100.611L114.642 94.3645C115.906 94.2498 116.94 93.0463 116.882 91.7855L116.135 61.1242C116.135 59.8633 115.102 59.0037 113.781 59.1183L82.8252 62.7289C81.4468 62.9008 80.2408 62.1558 79.8962 60.8949Z" fill="#0064B7"/>
<path opacity="0.3" d="M79.8962 60.8949L79.6665 59.9206C79.2644 58.4879 77.9435 57.5709 76.278 57.7428L61.3458 59.4621C59.4506 59.6341 58.0148 61.3534 58.0148 63.13L58.8762 98.6055C58.8762 99.8663 59.91 100.726 61.2309 100.611L114.642 94.3645C115.906 94.2498 116.94 93.0463 116.882 91.7855L116.135 61.1242C116.135 59.8633 115.102 59.0037 113.781 59.1183L82.8252 62.7289C81.4468 62.9008 80.2408 62.1558 79.8962 60.8949Z" fill="#0064B7"/>
<path d="M96.1584 30.8031L93.2827 31.6074L94.0888 34.477L96.9644 33.6727L96.1584 30.8031Z" fill="#ED3B4E"/>
<path d="M110.335 49.6051L117.571 32.1253L114.872 28.2281L104.305 24.0444L96.2067 43.7594L110.335 49.6051Z" fill="white"/>
<path d="M110.335 49.6051L117.571 32.1253L114.872 28.2281L104.305 24.0444L96.2067 43.7594L110.335 49.6051Z" fill="#DDE7F6"/>
<path d="M117.571 32.1247L114.872 28.2275L114.699 31.8381L117.571 32.1247Z" fill="#007CFF"/>
<path d="M97.872 47.5993C100.441 47.5993 102.524 45.5209 102.524 42.9571C102.524 40.3933 100.441 38.3149 97.872 38.3149C95.3028 38.3149 93.2201 40.3933 93.2201 42.9571C93.2201 45.5209 95.3028 47.5993 97.872 47.5993Z" fill="#0064B7"/>
<path d="M97.8722 46.5678C99.8705 46.5678 101.49 44.9513 101.49 42.9573C101.49 40.9632 99.8705 39.3467 97.8722 39.3467C95.8739 39.3467 94.254 40.9632 94.254 42.9573C94.254 44.9513 95.8739 46.5678 97.8722 46.5678Z" fill="white"/>
<path d="M99.9138 43.187L98.6067 42.5787L99.1597 41.1409L98.2045 40.5879L97.6515 42.0257L96.2941 41.4727L95.892 42.5234L97.2493 43.0764L96.6461 44.5695L97.6012 45.0119L98.1542 43.5741L99.5619 44.1824L99.9138 43.187Z" fill="#0064B7"/>
<path d="M113.723 35.048C113.436 35.7357 112.747 36.0222 112.058 35.7357L104.362 32.5836C103.673 32.297 103.386 31.6093 103.673 30.9216C103.96 30.2338 104.649 29.9473 105.338 30.2338L109.186 31.8099L113.034 33.3859C113.723 33.6725 114.068 34.4175 113.723 35.048Z" fill="white"/>
<path d="M110.048 37.3976C109.761 38.0853 109.071 38.3719 108.382 38.0853L103.041 35.8502C102.352 35.5636 102.065 34.8759 102.352 34.1882C102.639 33.5004 103.328 33.2139 104.017 33.5004L109.359 35.7356C109.99 36.0794 110.277 36.8245 110.048 37.3976Z" fill="white"/>
<path d="M84.4818 179.346V138.796L37.1737 84.73V77.0818C37.1737 73.8408 39.8011 71.2134 43.0421 71.2134H139.438C142.679 71.2134 145.306 73.8408 145.306 77.0818V84.73L97.9984 138.796V165.829L84.4818 179.346Z" fill="#FCBE42"/>
<path d="M37.1737 74.1476C37.1737 72.5271 38.4874 71.2134 40.1079 71.2134H142.372C143.993 71.2134 145.306 72.5271 145.306 74.1476V77.6498H37.1737V74.1476Z" fill="#FFB626"/>
<path d="M157.71 85.3812L161.565 131.626L156.118 132.295L145.392 62.2171L147.989 62.0498L157.71 85.3812Z" fill="#DE051F"/>
<path d="M147.738 62.1335V63.5551C147.654 71.3322 160.308 97.5069 160.895 98.6777C161.565 100.016 178.996 125.939 178.996 125.939L182.432 122.594L167.515 91.9876C164.917 87.6391 163.996 78.3567 163.828 76.8515C163.912 76.6006 163.828 76.3497 163.828 76.2661C165.504 69.158 161.23 64.3077 160.979 63.5551C160.727 62.5516 160.224 60.1265 160.224 60.1265L147.738 62.1335Z" fill="#EE384E"/>
<path d="M161.565 131.542L162.152 135.472L150.336 137.229C150.252 137.229 150.252 137.145 150.252 137.061C150.336 136.81 150.252 135.807 151.509 135.305C152.934 134.636 156.202 132.295 156.202 132.295L161.565 131.542Z" fill="#221D56"/>
<path d="M182.432 122.427C182.432 122.427 184.108 123.765 184.862 124.685C185.616 125.437 185.281 126.441 185.113 126.692L176.985 133.549C176.985 133.549 174.638 132.545 176.566 130.706C178.493 128.699 179.08 125.605 179.08 125.605L182.432 122.427Z" fill="#221D56"/>
<path d="M161.398 39.3037C163.074 40.5581 164.582 41.9797 166.007 43.485C166.761 44.2376 167.515 45.0738 168.102 45.9937C168.772 46.9136 169.359 47.6662 169.945 48.7534C169.945 48.837 170.029 48.837 170.029 48.9206L170.113 49.0879C170.197 49.2551 170.281 49.4224 170.281 49.6732C170.364 49.8405 170.448 50.2586 170.448 50.5931C170.532 51.2621 170.616 51.7639 170.616 52.3492C170.616 53.4364 170.616 54.4399 170.532 55.527C170.365 57.6176 169.945 59.541 169.443 61.548L167.348 61.2135C167.431 59.2065 167.431 57.2831 167.348 55.3597C167.348 54.3562 167.264 53.52 167.18 52.6001C167.18 52.182 167.096 51.6802 167.012 51.4294C166.929 51.3457 166.845 51.0949 166.845 51.0112C166.761 50.9276 166.761 50.844 166.761 50.844V50.7604L166.677 50.6767C166.258 49.9241 165.672 49.1715 165.001 48.5861C164.331 47.9171 163.744 47.3317 162.99 46.5791C161.482 45.4084 160.141 43.9867 158.632 42.816L161.398 39.3037Z" fill="#FFBF99"/>
<path d="M154.442 41.8126C155.112 43.8196 161.062 47.3319 161.062 47.3319L165.252 42.3144C165.252 42.3144 161.733 38.8858 159.554 37.5478C157.459 36.1261 153.101 38.3004 154.442 41.8126Z" fill="#003EB0"/>
<path d="M169.191 60.4609C170.7 61.2136 170.113 63.2206 170.113 63.2206L167.348 63.5551L167.934 60.6282L169.191 60.4609Z" fill="#FFBF99"/>
<path d="M167.264 63.4716L170.029 63.2207L170.867 64.5587L168.269 65.395L167.264 63.4716Z" fill="#FFBF99"/>
<path d="M144.805 44.0702C142.542 44.8228 140.196 45.3246 137.682 45.8263C135.168 46.4117 132.822 46.5789 130.391 46.8298H129.972C129.805 46.8298 129.553 46.8298 129.302 46.8298C128.883 46.8298 128.548 46.7462 128.212 46.7462C127.542 46.6626 126.955 46.5789 126.201 46.3281C125.028 45.9936 123.687 45.4082 122.682 45.0737C120.503 43.9866 118.24 42.8994 116.229 41.5614L117.234 39.7217C119.33 40.4743 121.592 41.3942 123.771 41.9796C124.777 42.3977 125.866 42.6486 126.955 42.8994C127.542 42.9831 128.045 43.0667 128.548 43.0667C128.715 43.0667 128.967 43.0667 129.218 43.0667H129.553H129.972C131.145 42.9831 132.235 42.7322 133.408 42.4813C134.581 42.3141 135.671 42.0632 136.844 41.8123C139.107 41.2269 141.369 40.7252 143.548 40.1398L144.805 44.0702Z" fill="#FFBF99"/>
<path d="M117.402 42.0645C115.391 43.068 114.804 39.8066 114.804 39.8066L117.067 38.8867L117.737 41.061L117.402 42.0645Z" fill="#FFBF99"/>
<path d="M117.318 38.8868L115.055 39.8067L113.463 37.7161L115.81 37.5488L117.318 38.8868Z" fill="#FFBF99"/>
<path d="M146.9 25.338C149.749 26.007 149.414 29.0175 150.252 32.1116C151.006 34.8712 152.515 36.8782 153.018 37.38C153.018 37.38 153.018 37.4636 153.018 37.5472C152.934 37.7145 152.599 38.2162 152.096 39.1361C151.342 40.3905 148.241 41.2268 147.487 40.8923C146.733 40.5578 145.727 38.2162 145.978 35.9584C146.314 33.7005 144.386 34.7876 144.386 34.7876C142.291 35.373 141.202 33.8677 141.202 33.8677C139.023 31.8607 138.688 26.5924 138.688 25.5052C138.688 25.4216 138.771 25.338 138.855 25.338C139.945 25.0871 144.302 24.7526 146.9 25.338Z" fill="#FFBE97"/>
<path d="M160.476 39.5547C160.56 38.3003 159.554 37.0459 158.381 37.0459C158.213 37.0459 158.045 37.0459 157.794 37.0459C157.543 37.0459 157.124 37.0459 156.788 37.0459C156.621 37.0459 156.202 37.0459 155.867 37.0459C155.448 37.1295 154.945 37.1295 154.61 37.1295C154.526 37.1295 154.442 37.1295 154.191 37.1295C151.593 37.2968 149.414 37.5476 147.235 38.0494C145.978 38.3839 145.643 38.3839 144.637 38.7184C144.553 38.7184 144.553 38.7184 144.47 38.7184C142.458 39.3874 140.95 40.2237 140.95 40.2237C140.95 40.2237 139.19 40.809 145.14 62.3007C151.174 61.3808 157.543 60.6282 160.476 60.2101C159.554 54.4399 159.051 50.6768 160.476 39.5547Z" fill="#0064E1"/>
<path d="M150.587 33.868C150.755 34.8715 152.766 37.2967 152.766 37.2967L156.621 38.8855L157.794 48.1679L157.375 53.8544C157.375 53.8544 157.962 55.5269 159.638 55.5269C161.314 55.5269 162.571 55.1924 162.236 52.6837C161.9 50.1749 162.99 50.4258 163.828 45.9937C164.582 41.4779 161.314 40.3908 160.057 39.6382C158.8 38.9692 157.375 35.6242 157.375 35.6242C156.789 31.0248 151.76 32.7809 151.76 32.7809C151.76 32.7809 150.587 33.0318 150.587 33.868Z" fill="#180857"/>
<path d="M150.168 32.1954C150.084 32.5299 150.755 33.7842 150.755 33.7842C150.755 33.7842 152.934 32.6135 153.269 32.5299C153.353 32.4462 152.598 31.5264 152.598 31.5264C152.598 31.5264 150.252 31.6936 150.168 32.1954Z" fill="#EA4E59"/>
<path d="M136.341 25.6728C136.425 26.091 136.676 26.5927 137.012 26.8436C137.766 27.8471 138.688 26.76 139.107 25.9237C139.19 25.7565 139.693 25.5056 139.861 25.7565C142.04 26.9272 145.224 26.4255 145.224 26.4255C148.157 25.6728 146.397 28.9342 146.397 28.9342C146.314 30.6067 147.654 32.3629 151.342 32.112C154.861 31.9447 153.101 24.6693 153.018 24.4185C151.761 19.8191 147.068 18.3975 144.386 18.3975C142.123 18.3975 140.447 20.07 139.945 20.5717C139.861 20.739 139.777 20.739 139.526 20.739C138.855 20.739 138.017 20.9062 137.514 21.408C136.76 22.077 136.425 23.0805 136.341 24.084C136.341 24.2512 136.341 24.6693 136.341 25.0875C136.341 25.1711 136.257 25.422 136.341 25.6728Z" fill="#180857"/>
<path opacity="0.2" d="M140.866 44.2373C140.95 44.99 141.201 45.9935 141.453 47.1642C142.207 47.7496 144.553 45.9099 144.637 44.9064C144.302 42.983 142.039 44.2373 140.866 44.2373Z" fill="black"/>
<path d="M143.548 46.0773C141.788 47.0808 138.939 47.1644 138.939 47.1644L136.76 41.227C138.771 40.3072 147.235 36.4604 147.151 40.0563C147.068 42.565 145.475 44.9902 143.548 46.0773Z" fill="#0054A3"/>
<path d="M160.56 59.29L144.805 61.4642C144.721 61.4642 144.637 61.5479 144.637 61.6315L144.805 62.8859C144.805 62.9695 144.889 62.9695 144.973 62.9695L161.062 60.7952C161.23 60.7952 161.23 60.7116 161.23 60.628L160.56 59.29C160.56 59.1227 160.392 59.1227 160.56 59.29Z" fill="#007CFF"/>
<path opacity="0.3" d="M160.56 59.29L144.805 61.4642C144.721 61.4642 144.637 61.5479 144.637 61.6315L144.805 62.8859C144.805 62.9695 144.889 62.9695 144.973 62.9695L161.062 60.7952C161.23 60.7952 161.23 60.7116 161.23 60.628L160.56 59.29C160.56 59.1227 160.392 59.1227 160.56 59.29Z" fill="black"/>
<path d="M158.464 61.1298L158.045 59.3737C158.045 59.29 158.045 59.29 158.129 59.29H158.548C158.632 59.29 158.716 59.3737 158.716 59.3737L159.135 61.1298C159.135 61.2134 159.135 61.2134 159.051 61.2134H158.632C158.548 61.297 158.464 61.297 158.464 61.1298Z" fill="#1A2E35"/>
<path d="M147.99 62.6347L147.571 60.8785C147.571 60.7949 147.571 60.7949 147.654 60.7949H148.073C148.157 60.7949 148.241 60.8785 148.241 60.8785L148.66 62.6347C148.66 62.7183 148.66 62.7183 148.576 62.7183H148.157C148.073 62.7183 147.99 62.6347 147.99 62.6347Z" fill="#1A2E35"/>
<path d="M191.951 89.1171C191.668 89.5414 191.386 89.895 191.032 90.2485L191.386 91.5214L189.337 92.5821L188.418 91.5214C187.923 91.6628 187.429 91.6628 186.934 91.6628L186.228 92.865L184.037 92.2285L184.179 90.885C183.755 90.6021 183.401 90.3192 183.048 89.9657L181.706 90.3192L180.646 88.3392L181.706 87.4199C181.564 86.9249 181.564 86.4299 181.564 85.9349L180.363 85.2278L180.999 83.0356L182.342 83.1771C182.624 82.7528 182.907 82.3992 183.26 82.0456L182.907 80.7728L184.885 79.7121L185.804 80.7728C186.298 80.6313 186.793 80.6313 187.288 80.6313L187.994 79.4292L190.184 80.0656L190.043 81.4799C190.467 81.7628 190.82 82.0456 191.174 82.3992L192.445 82.0456L193.505 84.0256L192.587 84.9449C192.799 85.4399 192.799 85.9349 192.799 86.4299L194 87.1371L193.364 89.2585L191.951 89.1171ZM189.619 86.9249C190.043 85.6521 189.266 84.3085 188.065 83.9549C186.793 83.5306 185.451 84.3085 185.097 85.5107C184.673 86.7835 185.451 88.1271 186.652 88.4807C187.853 88.905 189.195 88.1978 189.619 86.9249Z" fill="#DE051F"/>
<path d="M50.4613 13.6501C50.1086 14.1875 49.7558 14.6354 49.315 15.0832L49.7558 16.6955L47.1987 18.0391L46.0524 16.6955C45.4351 16.8747 44.8179 16.8747 44.2006 16.8747L43.3188 18.3974L40.5853 17.5912L40.7616 15.8894C40.2326 15.5311 39.7917 15.1728 39.3508 14.725L37.6754 15.1728L36.3527 12.6648L37.6754 11.5004C37.499 10.8734 37.499 10.2464 37.499 9.61942L36 8.72371L36.7936 5.94702L38.469 6.12616C38.8217 5.58874 39.1744 5.14088 39.6153 4.69303L39.1744 3.08075L41.6434 1.73719L42.7897 3.08075C43.407 2.90161 44.0242 2.90161 44.6415 2.90161L45.5233 1.37891L48.2568 2.18504L48.0805 3.97646C48.6095 4.33474 49.0504 4.69303 49.4913 5.14088L51.0785 4.69303L52.4012 7.20101L51.2549 8.36543C51.5194 8.99243 51.5194 9.61942 51.5194 10.2464L53.0185 11.1421L52.2248 13.8292L50.4613 13.6501ZM47.5514 10.8734C48.0805 9.26114 47.1105 7.55929 45.6115 7.11144C44.0242 6.57401 42.3489 7.55929 41.908 9.082C41.3789 10.6943 42.3489 12.3961 43.8479 12.844C45.3469 13.3814 47.0223 12.4857 47.5514 10.8734Z" fill="#0064B7"/>
</svg>
