<svg width="230" height="180" viewBox="0 0 230 180" fill="none" xmlns="http://www.w3.org/2000/svg">
<path d="M78.2303 105.921C89.526 94.6252 89.5049 76.2902 78.1832 64.9685C66.8615 53.6468 48.5265 53.6257 37.2308 64.9214C25.9352 76.2171 25.9563 94.5521 37.278 105.874C48.5997 117.195 66.9347 117.217 78.2303 105.921Z" stroke="#DD1F26" stroke-width="0.615097" stroke-miterlimit="10" stroke-dasharray="3.69 3.69"/>
<path d="M31.8294 91.9384C33.2509 90.5168 33.2483 88.2093 31.8234 86.7845C30.3986 85.3597 28.0911 85.357 26.6695 86.7786C25.248 88.2001 25.2506 90.5076 26.6755 91.9324C28.1003 93.3573 30.4078 93.3599 31.8294 91.9384Z" fill="#24499F"/>
<path d="M29.1701 91.2928L30.4903 88.5781L27.844 88.8537L29.1701 91.2928Z" fill="white"/>
<path d="M74.6402 4.17191C74.6402 4.17191 71.0731 7.13432 74.4364 8.4623C77.9015 9.79028 79.2265 11.4247 77.4939 14.6936C75.5574 17.9624 76.1689 20.5163 77.9015 21.7421C79.838 22.9679 83.4051 24.8066 80.5514 28.9949C77.6977 33.2853 73.0095 41.8661 68.0156 39.5166C62.9197 37.1671 60.4737 28.7906 62.512 25.5217C64.5504 22.2528 67.9136 21.3335 66.181 17.5538C64.6523 13.7742 61.0852 15.613 60.9833 11.2204C60.8813 6.72571 60.2698 2.12887 66.4868 0.698736C71.7865 -0.629242 76.067 2.02671 74.6402 4.17191Z" stroke="#1C4599" stroke-width="0.615097" stroke-miterlimit="10"/>
<path d="M69.7482 7.03271C69.7482 7.03271 70.3597 35.3289 71.9903 42.3774" stroke="#1C4599" stroke-width="0.615097" stroke-miterlimit="10"/>
<path d="M76.067 24.9092L70.6654 30.0168L65.2638 27.0544" stroke="#1C4599" stroke-width="0.615097" stroke-miterlimit="10"/>
<path d="M74.5383 11.7314L70.1558 14.8982L65.1619 12.9573" stroke="#1C4599" stroke-width="0.615097" stroke-miterlimit="10"/>
<path d="M86.5645 4.47832C86.5645 4.47832 95.1256 7.13428 92.7815 11.0161C90.2336 14.7957 91.6604 16.4301 93.393 17.8603C94.9217 19.2904 98.8965 20.9248 95.9409 24.8066C92.9853 28.6884 90.0297 29.5056 90.2336 32.1616C90.4374 34.8175 87.6856 45.5435 83.7108 43.0918C79.6341 40.7423 79.3284 34.3067 79.9399 31.4465C80.5514 28.7905 78.0035 25.726 75.6594 23.6829C73.3153 21.742 71.9903 17.8603 75.5575 16.6344C79.2265 15.3064 80.9591 11.5268 79.838 8.87086C78.2073 6.41921 80.7552 2.84389 86.5645 4.47832Z" fill="#FABD41"/>
<path d="M85.7492 10.3013L81.4687 46.5653" stroke="white" stroke-width="0.615097" stroke-miterlimit="10" stroke-linecap="round" stroke-linejoin="round"/>
<path d="M91.7623 21.4357L83.9146 25.011L77.1881 19.2905" stroke="white" stroke-width="0.615097" stroke-miterlimit="10" stroke-linecap="round" stroke-linejoin="round"/>
<path d="M46.4089 9.48436C46.4089 9.48436 42.9438 6.93056 45.1859 3.96814C47.3262 1.00573 52.8297 1.00573 53.9508 3.86599C55.1738 6.52195 53.5431 8.56499 55.9892 8.9736C58.3333 9.38221 64.7541 11.5274 63.531 14.592C62.2061 17.6565 58.4352 17.8608 60.0659 21.9469C61.5946 26.033 69.5442 26.7481 65.4675 32.4686C61.3908 38.087 51.9125 45.8505 47.0204 36.1461C42.3322 26.4416 52.7278 28.3825 47.1224 22.1512C41.5169 15.9199 46.2051 15.7156 47.7339 13.3661C49.1607 10.7102 46.4089 9.48436 46.4089 9.48436Z" fill="#ED3B4E"/>
<path d="M52.8298 13.0596C52.8298 13.0596 53.4413 24.2963 57.3142 33.5921C61.1871 42.888 63.6331 44.1138 63.6331 44.1138" stroke="white" stroke-width="0.615097" stroke-miterlimit="10" stroke-linecap="round" stroke-linejoin="round"/>
<path d="M213.348 35.457H47.6699C47.3034 35.457 47.0183 35.7421 47.0183 36.1087V135.605C47.0183 135.972 47.3034 136.257 47.6699 136.257H213.348C213.715 136.257 214 135.972 214 135.605V36.1087C214 35.7421 213.715 35.457 213.348 35.457Z" fill="#0064B7"/>
<path d="M210.62 38.9595H50.358V131.492H210.62V38.9595Z" fill="white"/>
<rect x="169.093" y="49.3863" width="31.0849" height="36.1313" rx="0.682762" stroke="#DBE9F8" stroke-width="0.455174"/>
<rect x="172.229" y="73.1289" width="23.1294" height="0.841069" rx="0.420535" fill="#DBE9F8"/>
<rect x="172.229" y="76.0728" width="19.3446" height="0.841069" rx="0.420535" fill="#DBE9F8"/>
<rect x="172.229" y="78.1753" width="19.3446" height="0.841069" rx="0.420535" fill="#DBE9F8"/>
<rect x="172.229" y="80.2778" width="19.3446" height="0.841069" rx="0.420535" fill="#DBE9F8"/>
<rect x="172.229" y="52.5225" width="24.8115" height="16.8214" rx="0.910349" fill="#DBE9F8"/>
<rect x="169.093" y="89.6265" width="31.0849" height="36.1313" rx="0.682762" stroke="#DBE9F8" stroke-width="0.455174"/>
<rect x="172.229" y="113.37" width="23.1294" height="0.841069" rx="0.420535" fill="#DBE9F8"/>
<rect x="172.229" y="116.313" width="19.3446" height="0.841069" rx="0.420535" fill="#DBE9F8"/>
<rect x="172.229" y="118.416" width="19.3446" height="0.841069" rx="0.420535" fill="#DBE9F8"/>
<rect x="172.229" y="120.519" width="19.3446" height="0.841069" rx="0.420535" fill="#DBE9F8"/>
<rect x="172.229" y="92.7632" width="24.8115" height="16.8214" rx="0.910349" fill="#DBE9F8"/>
<path opacity="0.53" d="M210.62 38.9595H50.358V43.358H210.62V38.9595Z" fill="#ECF3F9"/>
<path d="M145.497 136.297H115.522V151.163H145.497V136.297Z" fill="#005092"/>
<path d="M158.407 151.163H102.57C99.8009 151.163 97.5202 153.403 97.5202 156.213H163.458C163.458 153.403 161.218 151.163 158.407 151.163Z" fill="#0064B7"/>
<path d="M160.059 55.0808C134.09 54.5472 120.794 43.1636 120.794 43.1636C120.794 43.1636 107.498 54.5472 81.5294 55.0808C81.396 68.1542 82.1075 81.7611 85.3981 94.4343C90.4674 114.044 104.43 121.648 120.794 127.296C137.158 121.648 151.121 114.044 156.19 94.4343C159.481 81.7611 160.148 68.1542 160.059 55.0808Z" fill="white"/>
<path d="M157.791 56.8152C133.334 56.326 120.794 45.5649 120.794 45.5649C120.794 45.5649 108.254 56.326 83.7973 56.8152C83.7084 69.1326 84.3309 81.9836 87.4436 93.9008C92.2461 112.399 105.408 119.558 120.839 124.895C136.269 119.558 149.431 112.399 154.233 93.9008C157.257 81.9836 157.924 69.1326 157.791 56.8152Z" fill="#0064B5"/>
<path d="M121.105 98.7923H119.86C117.993 98.7923 116.481 97.2804 116.481 95.4128V86.2526C116.481 84.3849 117.993 82.873 119.86 82.873H121.105C122.973 82.873 124.485 84.3849 124.485 86.2526V95.4128C124.485 97.2804 122.973 98.7923 121.105 98.7923Z" fill="white"/>
<path d="M112.301 84.6517V76.5587C112.301 71.9785 115.992 68.2878 120.572 68.2878C125.152 68.2878 128.843 71.9785 128.843 76.5587V84.6517H132.934V76.5587C132.934 69.7552 127.375 64.1968 120.572 64.1968C113.768 64.1968 108.21 69.7552 108.21 76.5587V84.6517H112.301Z" fill="white"/>
<path d="M136.758 79.3599H134.979H128.798H120.483V83.7177C122.084 83.7177 123.373 85.0072 123.373 86.6525C123.373 87.8976 122.573 88.9648 121.461 89.4095L122.84 96.1685C122.928 96.5242 122.662 96.88 122.35 96.88H120.438V101.638H136.669C137.069 101.638 137.425 101.327 137.425 100.882V80.1603C137.469 79.6711 137.158 79.3599 136.758 79.3599Z" fill="#005092"/>
<path d="M120.483 96.8355H118.571C118.259 96.8355 117.993 96.4798 118.082 96.124L119.46 89.365C118.17 88.8759 117.326 87.5418 117.637 86.03C117.859 84.8738 118.793 83.9845 119.949 83.7621C120.127 83.7177 120.349 83.7177 120.527 83.7177V79.3599H112.479H105.986H104.208C103.808 79.3599 103.452 79.6711 103.452 80.1158V100.882C103.452 101.282 103.763 101.638 104.208 101.638H120.483V96.8355Z" fill="#005092"/>
<path d="M118.704 85.7188H110.611H109.989H106.653H106.476H105.053H102.518H101.095H98.427H98.2936H92.2906C91.4457 81.6278 87.7994 78.5151 83.4416 78.5151C78.4612 78.5151 74.4147 82.5617 74.4147 87.542C74.4147 87.5865 74.4147 87.6754 74.4147 87.7199H78.0166C78.0166 87.6754 78.0166 87.5865 78.0166 87.542C78.0166 84.5627 80.4623 82.117 83.4416 82.117C86.4209 82.117 88.8666 84.5627 88.8666 87.542C88.8666 87.5865 88.8666 87.6754 88.8666 87.7199H98.3381H98.4715H100.695H101.14H105.097H106.698H110.033H110.656H118.749H120.572C120.572 87.6754 120.572 87.6309 120.572 87.5865C120.572 86.5637 119.727 85.7633 118.704 85.7188Z" fill="#EC384E"/>
<path d="M118.704 87.7642H110.611H109.989H106.653H105.053H101.095H100.65H98.427H98.2936H88.8221C88.7332 90.6545 86.3319 93.0113 83.3971 93.0113C80.4623 93.0113 78.061 90.6545 77.9721 87.7642H74.3702C74.4592 92.6556 78.4612 96.6131 83.3971 96.6131C87.7104 96.6131 91.3567 93.5449 92.2461 89.4984H98.2936H98.427H101.095H105.053H105.097H105.853H106.653H109.055H109.811H109.989H110.611H111.367V93.6783C111.367 94.3898 111.945 94.9679 112.657 94.9679C113.368 94.9679 113.946 94.3898 113.946 93.6783V89.5428H114.969V91.1881C114.969 91.8996 115.547 92.5222 116.303 92.5222C116.97 92.5222 117.548 91.9441 117.548 91.2771V89.5873H118.704C119.682 89.5873 120.483 88.7869 120.527 87.8531H118.704V87.7642Z" fill="#EC384E"/>
<path d="M185.542 15.6398L180.341 17.1016L181.799 22.3148L187 20.853L185.542 15.6398Z" fill="#ED3B4E"/>
<path d="M29.0398 44.4694L23.8386 45.9312L25.297 51.1444L30.4982 49.6826L29.0398 44.4694Z" fill="#24499F"/>
<path d="M48.1186 89.4837C47.9707 89.8528 47.6748 90.2219 47.3789 90.591C47.2309 90.9601 46.935 91.403 46.6391 91.7721C46.1953 92.5841 45.7514 93.47 45.3076 94.282C44.4939 95.9061 43.7542 97.6039 43.2363 99.3018L43.0884 99.9662C43.0884 99.9662 43.0884 99.9662 43.0884 99.8924V99.8186C43.0884 99.8186 43.0884 99.7447 43.0144 99.6709C43.0144 99.5971 42.9404 99.5233 42.9404 99.5233C42.8665 99.3756 42.7925 99.228 42.5706 99.1542C42.2747 99.0065 42.2007 99.0065 42.2747 99.0804C42.3487 99.1542 42.6445 99.1542 43.0144 99.1542C43.3843 99.1542 43.8281 99.1542 44.3459 99.0804C46.1213 98.7851 48.0446 98.3421 49.894 97.8992L51.0036 100.261C50.1159 100.852 49.1542 101.369 48.1926 101.738C47.3049 102.181 46.2693 102.624 45.2336 102.919C44.6418 103.067 44.124 103.288 43.6062 103.362C43.3103 103.436 42.9404 103.436 42.5706 103.436C42.2007 103.436 41.8308 103.436 41.387 103.362C40.9432 103.288 40.3514 103.214 39.7596 102.624C39.4637 102.476 39.2418 102.033 38.9459 101.738C38.8719 101.59 38.7979 101.369 38.65 101.147C38.576 101 38.576 100.778 38.502 100.557V100.261V100.114C38.502 99.9662 38.502 99.8186 38.502 99.6709C38.502 99.5233 38.502 99.3756 38.502 99.3018V99.1542V99.0804L38.65 98.2683C38.7979 97.161 39.2418 96.0537 39.5376 95.0202C39.9075 93.9867 40.2774 93.0271 40.7212 92.0674C41.1651 91.1077 41.6089 90.1481 42.2007 89.2622C42.4966 88.8193 42.7925 88.3764 43.0144 87.8596C43.2363 87.3429 43.6062 86.9738 43.9021 86.457L48.1186 89.4837Z" fill="#FFBE9D"/>
<path d="M49.1542 90.0004C48.7843 90.8124 48.4884 91.6245 48.1186 92.3627C47.5268 93.6914 46.935 94.7249 46.4911 95.6108C46.1213 96.349 45.8254 96.7181 45.8254 96.7181L39.1677 93.3962C39.1677 93.3962 41.8308 85.645 44.6418 84.833C47.6007 84.0209 50.6337 86.3094 49.1542 90.0004Z" fill="#0054A3"/>
<path d="M51.8172 109.046C51.8172 109.046 49.4501 130.233 47.8966 137.91C46.1952 146.4 34.8772 173.639 34.8772 173.639L29.4031 172.458C32.1402 163.009 36.0608 145.44 38.5759 138.722C40.4252 128.535 38.354 115.69 41.091 107.792L51.8172 109.046Z" fill="#EE384E"/>
<path d="M57.4393 109.711C57.4393 109.711 58.9188 132.3 59.1407 140.494C59.3626 149.057 57.2174 174.451 57.2174 174.451H51.9652C51.9652 174.451 49.746 150.903 50.7816 139.46C49.4501 130.749 46.5651 108.382 46.5651 108.382L57.4393 109.711Z" fill="#EE384E"/>
<path d="M34.5814 173.418L29.5512 172.237C29.4032 172.163 29.2553 172.237 29.1813 172.532L27.5539 176.001C27.332 176.297 27.5539 176.666 27.9237 176.887H27.9977C29.6991 177.183 30.8827 177.478 33.0279 177.847C34.3595 178.068 38.2061 179.102 39.9075 179.545C41.6829 179.988 42.2747 178.29 41.5349 177.995C38.502 176.518 36.2088 175.042 35.3951 173.861C35.1732 173.787 34.9513 173.639 34.5814 173.418Z" fill="#170856"/>
<path d="M57.1434 174.525H51.9652C51.7433 174.525 51.6693 174.599 51.6693 174.894L50.9296 178.586C50.9296 178.955 51.0775 179.25 51.4474 179.324H51.5214C53.2228 179.25 54.4063 179.25 56.6256 179.176C57.9571 179.102 62.0256 179.25 63.727 179.176C65.4284 179.102 65.7243 177.404 64.9106 177.257C61.5818 176.592 59.0667 175.707 57.9571 174.747C57.6612 174.599 57.3653 174.525 57.1434 174.525Z" fill="#170856"/>
<path d="M62.3956 71.6931C62.3956 71.6931 61.4339 80.4039 59.4366 82.5447C58.327 84.3164 54.7763 82.5447 54.7763 82.5447L53.8886 86.0143L49.3022 84.3902L53.1488 70.7334L62.3956 71.6931Z" fill="#FFBE9D"/>
<path d="M49.746 80.9206C50.1159 81.5849 50.9296 81.8802 51.6693 81.8802C52.7789 81.8064 53.8886 81.142 54.7762 80.7729C54.9982 80.6991 55.1461 80.5515 55.2941 80.4776C55.8119 80.1824 56.8475 79.8132 56.9955 78.9274C56.9955 78.4107 56.6996 78.0416 56.6256 77.5248C56.5516 77.0819 56.7735 76.5651 57.2174 76.4913C57.9571 76.196 58.5489 76.9342 58.401 77.5248C58.327 77.7463 58.253 78.0416 58.401 78.1154C58.6229 78.1892 58.7708 78.0416 58.9188 77.8939C59.1407 77.451 59.2886 76.9342 59.4366 76.4175C59.5106 75.9008 59.8065 75.384 60.3243 75.0887C60.6202 74.8673 60.99 74.9411 61.3599 74.9411C61.5818 74.9411 61.6558 74.9411 61.8038 74.9411C62.8394 74.9411 63.801 74.2767 64.0969 73.2432C64.3928 72.2097 63.7271 71.2501 63.7271 71.2501C63.7271 71.2501 63.875 69.6998 62.0997 69.4045C60.1024 69.1831 59.8804 69.8475 57.3653 68.814C55.59 68.0758 53.5927 69.6998 53.5927 69.6998C52.0392 69.2569 51.2995 70.2166 51.2995 70.2166C50.4858 70.7333 50.1899 71.8406 50.0419 72.8003C49.894 73.8338 50.0419 74.7934 49.894 75.7531C49.82 76.7128 49.5981 77.5986 49.4501 78.4845C49.3022 79.4441 49.3022 80.4038 49.746 81.2158" fill="#170856"/>
<path d="M47.3049 86.0882C47.231 85.1285 47.3049 83.5783 48.0447 83.3568C48.7844 83.1353 53.4448 83.4306 55.8119 85.2761C54.9982 86.7525 55.0722 88.229 55.0722 88.229L47.3049 86.0882Z" fill="#0054A3"/>
<path opacity="0.2" d="M46.4911 89.1147L43.0143 95.0942L43.3102 95.3157C43.3102 95.3157 44.6418 93.9869 46.1952 92.1414L46.4911 89.1147Z" fill="black"/>
<path d="M60.0284 98.7112C59.4366 101.664 58.5489 105.355 57.4393 109.858L41.165 107.865C41.313 105.798 43.6801 96.718 43.0884 86.9737C43.0144 85.6449 44.2719 84.5376 45.8254 84.5376C46.5651 84.5376 47.5268 84.6114 48.3405 84.6852C50.4118 84.8329 53.4447 85.1282 55.2201 85.5711C57.7352 86.014 59.8064 86.8999 59.8064 86.8999C59.8064 86.8999 60.99 88.3024 60.3982 94.651C60.1763 95.7583 60.1023 97.0871 60.0284 98.7112Z" fill="#0083F9"/>
<path opacity="0.6" d="M60.0284 98.7112C59.4366 101.664 58.5489 105.355 57.4393 109.858L41.165 107.865C41.313 105.798 43.6801 96.718 43.0884 86.9737C43.0144 85.6449 44.2719 84.5376 45.8254 84.5376C46.5651 84.5376 47.5268 84.6114 48.3405 84.6852C50.4118 84.8329 53.4447 85.1282 55.2201 85.5711C57.7352 86.014 59.8064 86.8999 59.8064 86.8999C59.8064 86.8999 60.99 88.3024 60.3982 94.651C60.1763 95.7583 60.1023 97.0871 60.0284 98.7112Z" fill="#0083F9"/>
<path d="M61.2858 89.4839C61.4338 89.7792 61.6557 90.1483 61.9516 90.5912C62.2475 90.9603 62.5434 91.3294 62.7653 91.7723C63.3571 92.5105 63.8749 93.3226 64.5407 94.1346C65.7243 95.611 67.0558 97.0874 68.3873 98.4162C68.7572 98.7115 69.0531 99.0067 69.423 99.2282L69.4969 99.3758H69.5709C69.4969 99.3758 69.423 99.3758 69.423 99.302C69.275 99.302 69.0531 99.302 69.0531 99.302C68.9791 99.3758 69.201 99.302 69.4969 99.1544C69.7928 99.0067 70.1627 98.7115 70.3846 98.4162C71.7162 97.235 72.8997 95.5372 74.0833 93.9869L76.3765 95.0943C76.0066 96.2016 75.6368 97.1612 75.1929 98.1209C75.045 98.6376 74.7491 99.1544 74.4532 99.5973C74.1573 100.04 73.8614 100.631 73.5655 101.074C73.2696 101.517 72.8258 101.96 72.234 102.55C71.9381 102.698 71.6422 102.993 71.3463 103.288C70.9764 103.436 70.6065 103.731 70.0148 103.879C69.423 104.027 68.8312 104.027 68.1654 103.879C67.7955 103.805 67.4996 103.731 67.2777 103.51L67.2037 103.436L66.9079 103.141L66.7599 103.067C66.2421 102.698 65.7243 102.402 65.2804 102.033C63.4311 100.557 61.8776 99.0067 60.4721 97.3089C59.7324 96.4968 59.0666 95.611 58.4748 94.7251C58.105 94.2822 57.8091 93.8393 57.5871 93.3226C57.2913 92.8796 56.9954 92.4367 56.6995 91.6985L61.2858 89.4839Z" fill="#FFBE9D"/>
<path d="M74.0093 93.7654L75.7847 91.1816L77.9299 94.2821C77.9299 94.2821 76.3025 95.7585 74.823 95.6109L74.0093 93.7654Z" fill="#FFBE9D"/>
<path d="M79.1877 89.9268L79.7055 92.8796L77.9301 94.2822L75.7849 91.1817L79.1877 89.9268Z" fill="#FFBE9D"/>
<path d="M54.5543 89.779C54.6283 92.7318 60.6201 99.3756 60.6201 99.3756L66.9819 95.2417C66.9819 95.2417 64.9106 91.4768 62.3955 88.7455C58.4009 84.6115 54.3324 86.2356 54.5543 89.779Z" fill="#0054A3"/>
</svg>
