<svg width="270" height="186" viewBox="0 0 270 186" fill="none" xmlns="http://www.w3.org/2000/svg">
<path d="M55.3701 46.7583H124.816C125.171 46.7583 125.459 47.0462 125.459 47.4013V140.639C125.459 140.994 125.747 141.282 126.102 141.282H206.479" stroke="#A9A9A9" stroke-width="1.28603" stroke-dasharray="3.22 3.22"/>
<path d="M110.881 73.5741C111.684 73.5741 112.086 73.5741 112.755 73.5741C117.172 65.0346 126.14 59.2971 136.446 59.2971C149.429 59.2971 160.136 68.5037 162.545 80.5124C164.553 79.7118 166.828 79.4449 168.97 79.4449C180.213 79.4449 189.18 88.6516 189.18 99.5928C189.18 110.534 179.945 119.741 168.97 119.741H110.881C97.8984 119.741 87.4585 109.333 87.4585 96.3905C87.4585 83.9815 97.8984 73.5741 110.881 73.5741Z" fill="#0064B7"/>
<path d="M125.42 78.0935C130.094 73.4195 137.699 73.4195 142.373 78.0936C144.222 79.9423 145.394 82.2841 145.763 84.8657C146.057 86.9183 145.804 89.0393 145.052 90.9623L155.516 101.427C156.118 102.029 156.397 102.89 156.261 103.731L156.01 105.293C155.92 105.848 155.662 106.352 155.265 106.749C154.679 107.335 153.838 107.617 153.018 107.503L147.879 106.789C146.705 106.627 145.772 105.692 145.61 104.519L145.518 103.853L144.853 103.761C143.678 103.599 142.744 102.665 142.581 101.49L142.492 100.841L139.812 100.5C139.23 100.425 138.681 100.156 138.267 99.7418L136.742 98.2173C134.966 98.6504 133.11 98.6732 131.311 98.2775C129.079 97.7866 127.042 96.6695 125.42 95.0473C120.746 90.3731 120.745 82.7679 125.42 78.0935ZM137.252 96.2249L139.518 98.4906C139.658 98.6305 139.839 98.72 140.035 98.7448L143.382 99.1711C143.782 99.2219 144.098 99.5343 144.152 99.9336L144.334 101.247C144.388 101.643 144.699 101.954 145.095 102.008L147.086 102.284L147.087 102.285L147.362 104.277C147.417 104.672 147.727 104.983 148.122 105.038L153.26 105.751C153.548 105.792 153.823 105.689 154.014 105.498C154.142 105.37 154.232 105.202 154.263 105.011L154.515 103.449C154.56 103.167 154.468 102.88 154.265 102.677L142.934 91.3456C144.975 87.4856 144.372 82.5933 141.123 79.3441C137.131 75.3529 130.661 75.3529 126.67 79.3441C122.679 83.3353 122.679 89.8053 126.67 93.7965C129.532 96.6583 133.669 97.4677 137.252 96.2249Z" fill="white"/>
<path d="M129.109 81.7827C130.542 80.3491 132.867 80.3485 134.301 81.7827C135.735 83.2162 135.734 85.5412 134.301 86.9748C132.867 88.4083 130.542 88.409 129.109 86.9755C127.675 85.5412 127.675 83.2162 129.109 81.7827Z" fill="white"/>
<path d="M224.975 109.63C224.975 109.63 226.734 109.141 226.539 106.113C226.343 103.182 224.389 100.739 227.125 99.1761C229.763 97.6129 230.447 97.0268 231.717 95.8544C232.988 94.4866 233.574 93.5097 237.678 93.9982C237.678 93.9982 240.902 91.3604 243.931 93.7051C246.765 96.1475 246.081 102.693 246.57 103.572C247.156 104.549 251.064 108.555 251.553 111.877C252.041 115.198 249.794 117.348 246.57 117.25C243.54 117.152 239.143 117.25 239.143 117.25H227.32C227.32 117.25 223.314 117.543 223.021 113.342C223.021 110.9 224.975 109.63 224.975 109.63Z" fill="#180857"/>
<path d="M234.747 114.612C234.747 114.612 234.747 117.152 233.672 118.129C232.597 119.204 231.229 120.962 231.229 120.962C231.229 120.962 233.672 124.968 238.46 124.284C243.15 123.796 244.029 120.181 244.029 120.181C244.029 120.181 239.534 119.692 238.948 115.101C238.46 110.704 237.678 110.704 237.678 110.704L234.747 114.612Z" fill="#FFB07E"/>
<path d="M237.189 115.98C240.103 115.98 242.465 111.781 242.465 106.601C242.465 101.421 240.103 97.2222 237.189 97.2222C234.275 97.2222 231.913 101.421 231.913 106.601C231.913 111.781 234.275 115.98 237.189 115.98Z" fill="#FFBE9B"/>
<path d="M237.189 96.7337C237.189 96.7337 236.212 99.6646 234.258 102.498C232.108 105.429 229.861 106.992 229.665 107.578C229.47 108.066 227.516 106.601 228.2 104.452C228.786 102.107 232.597 95.659 236.505 95.4636C240.414 95.366 241.195 93.0212 243.15 97.8084C244.908 102.4 244.713 107.773 244.713 107.773L237.189 96.7337Z" fill="#180857"/>
<path d="M232.011 105.526C232.011 105.526 229.861 105.233 229.666 106.503C229.47 107.871 230.252 108.946 232.011 109.141C233.867 109.532 232.011 105.526 232.011 105.526Z" fill="#FFBE9B"/>
<path d="M251.943 166.88C251.943 166.88 254.972 166.977 257.415 166.977C259.858 166.977 263.376 167.368 263.376 167.368C263.376 167.368 264.353 167.368 264.451 168.736C264.548 170.104 264.548 170.494 264.548 170.494C264.548 170.494 264.646 171.96 263.473 171.96C262.301 171.96 255.363 172.839 253.702 172.839C252.041 172.839 250.966 173.132 250.966 171.96C250.966 170.69 250.966 166.587 251.943 166.88Z" fill="black"/>
<path d="M254.679 131.807C254.679 131.807 256.829 143.726 256.927 146.754C257.024 149.783 257.317 152.225 255.363 153.593C253.507 154.961 250.184 156.035 250.184 156.035L246.081 134.933V132.393L254.679 131.807Z" fill="#FFBF99"/>
<path d="M219.503 131.22C219.503 131.22 218.428 136.594 218.037 139.232C217.842 141.869 216.963 147.243 216.963 148.513C216.865 149.88 216.767 151.639 218.819 153.398C220.871 155.156 223.314 155.938 223.314 155.938L227.711 131.22H219.503Z" fill="#FFBF99"/>
<path d="M232.206 118.618C232.206 118.618 228.981 118.227 227.125 118.715C225.366 119.106 224.779 118.813 225.366 120.279C225.757 121.744 228.199 128.192 227.125 132.198C226.05 136.301 224.486 156.915 224.486 156.915C224.486 156.915 236.603 157.306 241.293 157.501C245.885 157.794 249.403 156.915 249.403 156.915C249.403 156.915 250.478 147.927 249.403 144.117C248.328 140.111 246.96 133.663 246.96 133.663C246.96 133.663 246.178 124.577 247.155 122.33C248.426 119.986 249.305 119.986 247.644 119.497C246.081 119.009 244.615 118.422 243.247 118.422C241.977 118.422 241.488 118.422 240.609 119.009C240.022 119.595 238.361 121.353 236.505 120.865C234.355 120.572 232.987 119.106 232.987 119.106C232.987 119.106 232.89 118.813 232.206 118.618Z" fill="#DE051F"/>
<path d="M226.441 119.497C226.441 119.497 225.366 119.008 223.705 120.376C221.946 121.939 220.676 125.456 219.797 127.606C219.21 129.755 218.722 131.904 218.722 131.904C218.722 131.904 221.067 133.272 223.314 133.272C225.757 133.37 227.32 133.565 227.32 133.565C227.32 133.565 228.395 127.02 228.102 124.186C228.102 121.06 227.809 120.181 226.441 119.497Z" fill="#EE384E"/>
<path d="M246.569 121.646C246.569 121.646 247.546 119.009 249.598 120.181C251.846 121.549 253.507 126.043 253.898 127.606C254.289 129.071 254.972 132.1 254.972 132.1C254.972 132.1 252.334 133.175 250.38 133.468C248.133 133.565 246.569 133.761 246.569 133.761C246.569 133.761 245.788 127.997 245.983 125.652C246.178 123.307 246.569 121.646 246.569 121.646Z" fill="#EE384E"/>
<path d="M229.079 158.673H245.495L236.896 161.311L229.079 158.673Z" fill="#004B89"/>
<path d="M214.422 153.886C214.422 153.886 244.224 163.46 250.771 165.903C250.771 165.903 253.018 166.391 253.018 167.661C253.018 168.736 252.921 170.494 252.628 171.276C252.432 172.155 251.65 172.741 250.38 172.644C249.11 172.351 222.532 166.88 211.882 164.144L208.95 163.167C208.95 163.167 206.703 162.093 207.192 159.162C207.582 156.328 209.634 153.886 211.1 153.788C212.273 153.593 214.422 153.886 214.422 153.886Z" fill="#0064E1"/>
<path d="M211.686 167.661C211.686 167.661 215.595 167.075 217.647 167.075C219.894 166.978 222.826 166.782 223.216 167.075C223.607 167.368 223.998 171.96 223.998 171.96C223.998 171.96 224.389 173.328 221.36 172.937C218.429 172.644 211.686 172.546 211.686 172.546C211.686 172.546 210.123 172.449 210.025 171.081C210.025 169.615 210.123 168.931 210.123 168.931C210.123 168.931 211.003 167.759 211.686 167.661Z" fill="black"/>
<path d="M229.47 163.656C229.47 163.656 247.644 158.087 253.995 156.035C260.444 154.082 263.962 152.128 266.112 155.449C268.261 158.478 267.968 162.093 265.721 163.07C263.278 164.047 244.615 168.541 236.7 170.299C228.884 172.058 223.803 172.937 223.021 172.742C222.435 172.448 221.457 170.104 221.555 168.638C221.653 167.173 221.751 166.782 223.314 166.098C224.975 165.414 229.47 163.656 229.47 163.656Z" fill="#0054A3"/>
<path d="M227.418 136.398H249.305C249.305 136.398 250.575 136.301 250.575 137.864C250.575 139.427 250.575 157.305 250.575 157.305C250.575 157.305 250.673 158.673 249.794 158.673C248.914 158.673 224.095 158.673 224.095 158.673C224.095 158.673 223.021 158.966 223.021 157.208C223.021 155.449 223.021 137.473 223.021 137.473C223.021 137.473 222.923 136.496 224.291 136.496C225.463 136.398 227.418 136.398 227.418 136.398Z" fill="#0064B7"/>
<path d="M235.43 147.731L236.7 146.168L238.166 147.438L236.994 149.001L235.43 147.731Z" fill="#569ED4"/>
<path d="M47.48 84.477C47.48 84.477 50.685 84.6373 53.0888 84.6373C55.4125 84.6373 59.1785 85.118 59.1785 85.118C59.1785 85.118 60.14 85.118 60.2202 86.32C60.3003 87.5219 60.3003 88.0026 60.3003 88.0026C60.3003 88.0026 60.3804 89.4449 59.2586 89.4449C58.1369 89.4449 50.9254 90.2462 49.3229 90.2462C47.7203 90.2462 46.5184 90.5667 46.5184 89.4449C46.4383 88.3231 46.3582 84.3969 47.48 84.477Z" fill="#160856"/>
<path d="M50.1245 50.2627C50.1245 50.2627 52.2078 61.8811 52.368 65.0061C52.5283 68.0509 52.8488 70.4547 50.8456 71.6566C48.8424 72.8585 45.4771 73.9803 45.4771 73.9803L41.3906 53.1473V50.7435L50.1245 50.2627Z" fill="#FDBD97"/>
<path d="M14.4677 49.542C14.4677 49.542 13.346 54.8304 13.0255 57.4746C12.7049 60.1188 11.9838 65.327 11.9037 66.5289C11.8235 67.7309 11.6633 69.734 13.8267 71.3366C15.9902 72.859 18.394 73.7404 18.394 73.7404L22.8811 49.542H14.4677Z" fill="#FDBD97"/>
<path d="M30.4132 32.7953C30.4132 32.7953 30.4132 35.1991 29.3716 36.2407C28.3299 37.2824 26.9678 39.0452 26.9678 39.0452C26.9678 39.0452 29.3716 42.8913 34.2593 42.3304C39.067 41.8496 39.9484 38.324 39.9484 38.324C39.9484 38.324 35.3811 37.683 34.8202 33.3562C34.3395 29.0293 33.6183 29.0293 33.6183 29.0293L30.4132 32.7953Z" fill="#FDAE7D"/>
<path d="M26.8872 23.1799C26.8872 23.1799 27.0475 28.7086 29.6917 33.0355C32.2557 37.3624 35.3807 34.9586 36.6627 32.715C37.8646 30.4714 41.1498 23.1799 40.5088 21.2568C39.7877 19.3338 30.2525 18.4524 30.2525 18.4524L26.8872 23.1799Z" fill="#FDBD97"/>
<path d="M39.1467 26.305C39.1467 26.305 40.5088 25.2633 40.5088 26.305C40.5088 27.3466 39.7877 28.8691 38.9864 29.1094C38.105 29.2697 38.2653 28.7889 38.5057 28.0678C38.6659 27.3467 39.1467 26.305 39.1467 26.305Z" fill="#FDBD97"/>
<path d="M27.2881 28.5484C27.6888 28.7087 28.0894 28.7888 28.0894 28.2279C28.0894 27.1863 27.3683 25.6638 26.567 25.4235C25.6856 25.2632 25.8459 25.744 26.0862 26.4651C26.1664 26.7055 26.2465 26.9459 26.3266 27.2664C26.4869 27.7472 26.9676 28.3882 27.2881 28.5484Z" fill="#FDBD97"/>
<path d="M27.1279 25.7441L26.9677 23.9813C26.9677 23.9813 28.4901 24.1416 30.2529 22.4589C30.2529 22.4589 33.6182 23.2602 36.3425 22.9396C39.2271 22.6993 40.429 21.898 40.429 21.898C40.429 21.898 39.9483 25.1832 39.4675 26.1447C39.4675 26.1447 40.8297 25.5839 41.3905 23.9813C41.8713 22.4589 41.7912 20.7762 41.7912 20.7762C41.7912 20.7762 43.7142 19.2538 44.195 17.491C44.195 17.491 38.9867 16.2891 37.4643 15.2475C35.9419 14.2058 35.0605 13.4847 35.0605 13.4847C35.0605 13.4847 32.6567 12.1225 30.2529 13.9654C27.8491 15.8885 26.2465 16.9301 26.2465 20.2153C26.1664 20.2955 23.9228 23.4204 27.1279 25.7441Z" fill="#160856"/>
<path d="M27.5282 37.2821C27.5282 37.2821 24.243 36.8814 22.4001 37.3622C20.6373 37.843 20.0764 37.5225 20.5572 38.8846C21.0379 40.2468 23.4418 46.5768 22.32 50.5031C21.1982 54.4293 19.6758 74.7816 19.6758 74.7816C19.6758 74.7816 32.0154 75.2623 36.7429 75.5027C41.5505 75.7431 45.0761 74.8617 45.0761 74.8617C45.0761 74.8617 46.1177 66.1278 45.0761 62.2817C44.0344 58.5158 42.6723 52.0255 42.6723 52.0255C42.6723 52.0255 41.7909 43.1313 42.9928 40.9679C44.1947 38.8045 45.0761 38.7244 43.5537 38.1635C42.0312 37.6026 40.3486 37.1218 39.0665 37.1218C37.8646 37.1218 37.2236 37.1218 36.5025 37.843C35.7813 38.5641 34.339 40.0064 32.3359 39.6859C30.3327 39.3654 28.8103 38.0032 28.8103 38.0032C28.8103 38.0032 28.0891 37.3622 27.5282 37.2821Z" fill="#0181F7"/>
<path d="M21.679 38.0036C21.679 38.0036 20.5572 37.4427 18.8745 38.885C17.0316 40.4875 15.7496 43.8529 15.1085 45.9362C14.4675 48.0195 14.0669 50.1028 14.0669 50.1028C14.0669 50.1028 16.3906 51.3047 18.8745 51.3848C21.2783 51.4649 22.8809 51.6252 22.8809 51.6252C22.8809 51.6252 23.9225 45.2952 23.6821 42.4907C23.3616 39.6863 22.961 38.7247 21.679 38.0036Z" fill="#023E9F"/>
<path d="M42.0316 40.3271C42.0316 40.3271 42.9931 37.6829 45.1565 38.8848C47.32 40.0867 48.9225 44.734 49.4834 46.1763C49.9642 47.6186 50.6052 50.5833 50.6052 50.5833C50.6052 50.5833 48.0411 51.7051 45.7976 51.8654C43.6341 52.0256 42.1117 52.1859 42.1117 52.1859C42.1117 52.1859 41.2303 46.4167 41.3906 44.1732C41.5508 41.9296 42.0316 40.3271 42.0316 40.3271Z" fill="#023E9F"/>
<path d="M24.1631 76.6245H40.7494L32.1758 79.2687L24.1631 76.6245Z" fill="#BA0A28"/>
<path d="M9.41961 71.8972C9.41961 71.8972 39.7076 81.3522 46.3582 83.6759C46.3582 83.6759 48.5216 84.2368 48.6018 85.3586C48.6819 86.4803 48.4415 88.0829 48.2011 88.8842C47.9607 89.6854 47.2396 90.3264 46.0377 90.0861C44.8358 89.8457 17.6727 84.397 6.93566 81.5926L3.89084 80.631C3.89084 80.631 1.64728 79.5894 2.04791 76.8651C2.44855 74.1408 4.45173 71.6568 5.89402 71.4966C7.3363 71.4164 9.41961 71.8972 9.41961 71.8972Z" fill="#EC384E"/>
<path d="M6.69536 85.3587C6.69536 85.3587 10.4613 84.7177 12.785 84.6376C15.0286 84.5574 18.0734 84.3171 18.5542 84.6376C19.0349 84.9581 19.4356 89.3651 19.4356 89.3651C19.4356 89.3651 19.8362 90.567 16.8715 90.3266C13.9068 90.0862 7.01587 89.8458 7.01587 89.8458C7.01587 89.8458 5.49345 89.7657 5.41333 88.4035C5.3332 87.0414 5.57358 86.4004 5.57358 86.4004C5.57358 86.4004 5.65371 85.519 6.69536 85.3587Z" fill="#160856"/>
<path d="M24.7238 81.5127C24.7238 81.5127 43.0729 75.9038 49.6433 73.9807C56.2137 72.0577 59.8194 70.2949 61.9829 73.3397C64.0662 76.3846 63.9059 79.83 61.5021 80.7915C59.0983 81.7531 39.9479 86.2402 32.0153 87.8427C24.0828 89.4453 18.8745 90.4869 18.1533 90.1664C17.4322 89.8459 16.6309 87.5222 16.7912 86.2402C16.9514 84.9581 17.0316 84.4774 18.554 83.8364C20.0764 83.1152 24.7238 81.5127 24.7238 81.5127Z" fill="#DB061F"/>
<path d="M22.6405 54.7496H44.7556C44.7556 54.7496 45.9575 54.5893 45.9575 56.1918C45.9575 57.7944 45.9575 75.2621 45.9575 75.2621C45.9575 75.2621 46.0376 76.5442 45.0761 76.5442C44.1146 76.5442 19.1149 76.5442 19.1149 76.5442C19.1149 76.5442 18.0733 76.8646 18.0733 75.1018C18.0733 73.3391 18.0733 55.7111 18.0733 55.7111C18.0733 55.7111 17.9931 54.7496 19.2752 54.7496C20.4771 54.7496 22.6405 54.7496 22.6405 54.7496Z" fill="#0064B5"/>
<path d="M33.3777 65.5672L31.7752 64.2852L30.4932 65.8877L32.0957 67.1697L33.3777 65.5672Z" fill="#579CD2"/>
</svg>
