<svg width="270" height="186" viewBox="0 0 270 186" fill="none" xmlns="http://www.w3.org/2000/svg">
<path d="M56.5306 12.221C56.5306 12.221 53.9625 9.28136 56.2083 7.01802C58.454 4.75469 63.1148 5.83454 63.7596 8.56145C64.3989 11.2884 62.7925 12.7227 64.7759 13.5517C66.7539 14.3807 71.9229 17.5221 70.4695 20.1672C69.0215 22.8123 65.7485 22.2015 66.5845 26.1937C67.4205 30.1859 74.0266 32.3674 69.7318 36.6596C65.4371 40.9517 56.3066 46.2474 53.5691 36.545C50.8316 26.8427 59.4703 30.5349 55.5143 23.8485C51.5583 17.1621 55.5799 17.882 57.0989 15.8478C58.607 13.8189 56.5306 12.221 56.5306 12.221Z" fill="#023EA1"/>
<path d="M61.4199 16.6877C61.4199 16.6877 60.4363 26.9737 62.5728 36.147C64.7092 45.3203 66.5397 46.9837 66.5397 46.9837" stroke="white" stroke-width="0.520509" stroke-miterlimit="10" stroke-linecap="round" stroke-linejoin="round"/>
<path d="M34.6187 15.1498C34.6187 15.1498 41.3449 10.405 42.7383 14.7572C44.1371 19.1148 46.044 18.9839 48.0111 18.7493C49.9782 18.5148 53.3113 16.6333 54.5352 21.3072C55.7646 25.9811 54.5844 28.8498 56.6389 30.3769C58.6934 31.9094 64.9279 40.8264 60.8517 42.3153C56.7755 43.7988 51.8961 39.9538 50.2732 37.7886C48.6504 35.6235 45.055 35.4599 42.3011 36.0216C39.5472 36.5834 35.9191 35.1217 37.0556 31.544C38.1976 27.9663 36.3999 24.2577 33.8755 23.4233C31.3621 22.5888 30.1163 18.4385 34.6187 15.1498Z" fill="#FCBE42"/>
<path d="M38.3008 19.4468L62.1952 45.8978" stroke="white" stroke-width="0.520509" stroke-miterlimit="10" stroke-linecap="round" stroke-linejoin="round"/>
<path d="M67.7793 39.01C67.7793 39.01 54.3213 25.3972 49.2998 13.1152" stroke="#DE051F" stroke-width="0.520509" stroke-miterlimit="10"/>
<path d="M47.3716 5C47.3716 5 52.0269 8.60498 49.8522 14.3806C49.8522 14.3806 45.3116 11.9209 47.3716 5Z" stroke="#DE051F" stroke-width="0.520509" stroke-miterlimit="10"/>
<path d="M55.3697 23.9245C55.3697 23.9245 53.0967 18.9942 57.9706 14.6584C57.9706 14.6584 61.3146 18.3943 55.3697 23.9245Z" stroke="#DE051F" stroke-width="0.520509" stroke-miterlimit="10"/>
<path d="M63.2391 33.9868C63.2391 33.9868 60.0426 29.5965 63.9768 24.3936C63.9768 24.3881 67.9874 27.3986 63.2391 33.9868Z" stroke="#DE051F" stroke-width="0.520509" stroke-miterlimit="10"/>
<path d="M63.1079 34.1727C63.1079 34.1727 59.6382 29.9896 53.6113 32.5038C53.6168 32.5038 55.5401 37.1286 63.1079 34.1727Z" stroke="#DE051F" stroke-width="0.520509" stroke-miterlimit="10"/>
<path d="M55.3925 23.8485C55.3925 23.8485 52.4856 19.2618 46.1855 20.9852C46.1855 20.9852 47.5079 25.8173 55.3925 23.8485Z" stroke="#DE051F" stroke-width="0.520509" stroke-miterlimit="10"/>
<g clip-path="url(#clip0_3375_3742)">
<path d="M230.704 23.1777H53.7339V143.485H230.704V23.1777Z" fill="#0064B5"/>
<path d="M230.704 125.703H53.7339V143.437H230.704V125.703Z" fill="#FFC727"/>
<path d="M230.704 125.703H53.7339V143.437H230.704V125.703Z" fill="#033E9F"/>
<path d="M176.706 165.144H107.731V170.909H176.706V165.144Z" fill="#FFC727"/>
<path d="M176.706 165.144H107.731V170.909H176.706V165.144Z" fill="#033E9F"/>
<path d="M168.515 165.144H115.923L117.281 155.162L117.329 154.678L117.474 153.757L117.523 153.273L117.668 152.352V152.207L117.717 151.868L117.862 150.947L117.911 150.463L118.832 143.485H165.607L166.479 150.075L166.528 150.366L166.673 151.48L166.722 151.771L166.77 152.207L166.867 152.885V153.176L167.013 154.29L167.061 154.581L168.515 165.144Z" fill="#0064B5"/>
<path d="M145.104 133.407C145.104 135.006 143.795 136.314 142.195 136.314C140.596 136.314 139.287 135.006 139.287 133.407C139.287 131.808 140.596 130.5 142.195 130.5C143.795 130.452 145.104 131.76 145.104 133.407Z" fill="white"/>
<g opacity="0.16">
<path d="M166.771 152.207L117.911 150.463L118.832 143.485H165.607L166.771 152.207Z" fill="black"/>
</g>
<path d="M222.513 30.9785H61.8774V117.369H222.513V30.9785Z" fill="white"/>
<path d="M74.4215 36.0803C73.8001 36.3923 73.4505 37.0551 73.4505 37.0551L68.5179 45.6725C68.5179 45.6725 68.2849 46.1794 68.3237 46.6473H73.8778L77.1403 40.9154L74.4215 36.0803Z" fill="#319F4F"/>
<path d="M79.8589 36.0803C80.4803 36.3923 80.8299 37.0551 80.8299 37.0551L85.7625 45.6725C85.9567 46.0624 85.9956 46.3743 85.9956 46.6473H80.4027L77.1401 40.9544L79.8589 36.0803Z" fill="#F5BC0F"/>
<path d="M83.2383 51.5604C82.6945 51.8723 82.0343 51.8334 82.0343 51.8334H72.1302C71.7029 51.8334 71.3922 51.6774 71.1592 51.5604L73.9168 46.7253H80.4418L83.2383 51.5604Z" fill="#3D80B9"/>
<path d="M83.199 51.5603L80.4414 46.6863H86.0731C86.0731 46.9592 85.9955 47.1932 85.9955 47.3492C85.9955 47.3881 85.9566 47.4271 85.9566 47.5051C85.9566 47.5831 85.9178 47.5831 85.8789 47.6611C85.8789 47.6611 84.6749 49.7277 84.0923 50.8195C84.0146 50.9755 83.937 51.0534 83.8981 51.0924C83.8204 51.0534 83.5874 51.4434 83.199 51.5603Z" fill="#E84335"/>
<path d="M68.3623 46.6863C68.3623 46.6863 68.4011 47.0762 68.5565 47.4271C68.7119 47.8171 70.4596 50.7025 70.615 51.0534C70.848 51.2874 71.0811 51.4824 71.1199 51.5213L73.8775 46.6863H68.3623Z" fill="#1F64AB"/>
<path d="M74.3828 36.1583C74.3828 36.1583 74.6158 35.9633 75.2373 35.9243C75.2761 35.9243 75.315 35.9243 75.315 35.9243C75.315 35.9243 77.8007 35.9243 78.9659 35.9243C79.0047 35.9243 79.0436 35.9243 79.0436 35.9243C79.2378 35.9243 79.665 35.9633 79.898 36.1583L77.1793 40.9933L74.3828 36.1583Z" fill="#198038"/>
<circle cx="215.386" cy="38.7315" r="2.34229" fill="#EAF4FF"/>
<circle cx="208.619" cy="38.7315" r="2.34229" fill="#EAF4FF"/>
<circle cx="201.332" cy="38.7315" r="2.34229" fill="#EAF4FF"/>
<rect x="68.1606" y="69.4402" width="19.2359" height="1.44269" rx="0.721346" fill="#DBE9F8"/>
<rect x="68.1606" y="75.6919" width="19.2359" height="1.44269" rx="0.721346" fill="#DBE9F8"/>
<rect x="68.1606" y="81.9436" width="19.2359" height="1.44269" rx="0.721346" fill="#DBE9F8"/>
<rect x="68.1606" y="88.1951" width="19.2359" height="1.44269" rx="0.721346" fill="#DBE9F8"/>
<rect x="68.1606" y="94.4468" width="19.2359" height="3.84718" rx="0.520509" fill="#DBE9F8"/>
<rect x="99.8999" y="47.7998" width="117.82" height="8.17525" rx="1.04102" fill="#EAF4FF"/>
<rect x="100.16" y="36.5186" width="90.3691" height="4.76936" rx="0.780764" stroke="#EAF4FF" stroke-width="0.520509"/>
<rect x="100.16" y="61.5251" width="35.5468" height="12.4637" rx="0.780764" stroke="#DBE9F8" stroke-width="0.520509"/>
<circle cx="106.876" cy="67.3948" r="3.12306" fill="#DBE9F8"/>
<rect x="111.441" y="65.593" width="7.21346" height="0.961795" rx="0.480897" fill="#DBE9F8"/>
<rect x="111.441" y="67.9976" width="13.946" height="0.961795" rx="0.480897" fill="#DBE9F8"/>
<rect x="100.16" y="76.4329" width="35.5468" height="26.4097" rx="0.780764" stroke="#DBE9F8" stroke-width="0.520509"/>
<circle cx="106.876" cy="82.2124" r="3.12306" fill="#DBE9F8"/>
<rect x="111.441" y="80.5007" width="7.21346" height="0.961795" rx="0.480897" fill="#DBE9F8"/>
<rect x="111.441" y="82.9053" width="13.946" height="0.961795" rx="0.480897" fill="#DBE9F8"/>
<rect x="105.189" y="88.676" width="26.4493" height="0.961795" rx="0.480897" fill="#DBE9F8"/>
<rect x="105.189" y="93.0039" width="26.4493" height="0.961795" rx="0.480897" fill="#DBE9F8"/>
<rect x="105.189" y="97.332" width="26.4493" height="0.961795" rx="0.480897" fill="#DBE9F8"/>
<rect x="141.037" y="61.5251" width="35.5468" height="41.3176" rx="0.780764" stroke="#DBE9F8" stroke-width="0.520509"/>
<circle cx="148.233" cy="67.0991" r="2.60255" fill="#DBE9F8"/>
<rect x="152.318" y="65.593" width="7.21346" height="0.961795" rx="0.480897" fill="#DBE9F8"/>
<rect x="152.318" y="88.1951" width="7.21346" height="0.961795" rx="0.480897" fill="#DBE9F8"/>
<rect x="152.318" y="67.9976" width="13.946" height="0.961795" rx="0.480897" fill="#DBE9F8"/>
<rect x="152.318" y="90.5996" width="20.1977" height="0.961795" rx="0.480897" fill="#DBE9F8"/>
<rect x="152.318" y="93.9658" width="20.1977" height="0.961795" rx="0.480897" fill="#DBE9F8"/>
<rect x="152.318" y="97.3323" width="20.1977" height="0.961795" rx="0.480897" fill="#DBE9F8"/>
<rect x="146.066" y="73.7683" width="26.4493" height="0.961795" rx="0.480897" fill="#DBE9F8"/>
<rect x="146.066" y="78.0962" width="17.3123" height="0.961795" rx="0.480897" fill="#DBE9F8"/>
<rect x="146.066" y="82.4243" width="26.4493" height="0.961795" rx="0.480897" fill="#DBE9F8"/>
<rect x="181.913" y="61.5251" width="35.5468" height="41.3176" rx="0.780764" stroke="#DBE9F8" stroke-width="0.520509"/>
<rect x="185.5" y="88.676" width="26.4493" height="0.961795" rx="0.480897" fill="#DBE9F8"/>
<rect x="185.5" y="92.0422" width="22.1213" height="0.961795" rx="0.480897" fill="#DBE9F8"/>
<rect x="185.5" y="94.4468" width="22.1213" height="0.961795" rx="0.480897" fill="#DBE9F8"/>
<rect x="185.5" y="96.8513" width="22.1213" height="0.961795" rx="0.480897" fill="#DBE9F8"/>
<rect x="185.5" y="65.1121" width="28.3729" height="19.2359" rx="1.04102" fill="#DBE9F8"/>
</g>
<g opacity="0.8">
<path d="M222.861 110.733V114.702C222.861 116.243 221.149 117.509 219.066 117.509H202.286C202.029 116.813 201.886 116.074 201.886 115.293C201.886 110.628 206.994 106.87 213.273 106.87C217.325 106.891 220.835 108.432 222.861 110.733Z" fill="#EAF4FF"/>
<path d="M221.124 103.327C221.37 102.211 220.345 101.159 218.837 100.977C217.328 100.796 215.905 101.554 215.66 102.67C215.415 103.786 216.439 104.838 217.948 105.019C219.457 105.201 220.879 104.443 221.124 103.327Z" fill="#EAF4FF"/>
</g>
<path d="M50.3905 115.778C50.3905 115.778 48.1595 146.665 47.8394 152.143C47.514 157.62 46.3418 176.072 46.3418 176.072H40.8626L37.165 115.439L50.3905 115.778Z" fill="#DE051F"/>
<path d="M29.7756 116.101C29.7756 116.101 30.4211 131.662 30.7103 135.608C30.9943 139.553 27.87 153.045 26.0884 159.04C24.3016 165.04 21.7866 171.681 21.7866 171.681L26.0884 174.14C26.0884 174.14 35.3787 157.631 38.7096 147.89C42.0353 138.149 44.5141 123.572 44.1061 115.358L29.7756 116.101Z" fill="#EE384E"/>
<path d="M53.0925 94.0005L57.2703 99.5139C57.2703 99.5139 57.5957 99.9546 58.3703 99.7547C59.1398 99.5549 67.1804 96.6547 67.1804 96.6547C67.1804 96.6547 68.301 96.1577 68.6005 95.2712C68.8949 94.3848 69.0343 94.1696 69.2099 93.9287C69.3855 93.6879 69.6437 93.7187 69.4939 93.1243C69.3442 92.535 69.2615 92.2891 69.2615 92.2891C69.2615 92.2891 69.0859 91.874 69.4371 91.874C69.7883 91.874 70.1653 91.956 70.3615 92.3608C70.5474 92.7656 70.5009 93.7443 70.5009 93.7443L72.2206 93.8109C72.2206 93.8109 73.2741 93.8468 73.2741 94.9382C73.2741 96.0296 73.2741 97.8537 73.2741 97.8537C73.2741 97.8537 73.4238 98.4225 72.6544 98.4225C71.8849 98.4225 71.0742 98.3969 71.0742 98.3969C71.0742 98.3969 70.4286 98.3303 69.37 99.0937C68.3113 99.8572 60.2552 104.433 60.2552 104.433C60.2552 104.433 57.4717 106.083 55.6436 104.351C53.8155 102.619 49.803 98.3354 49.803 98.3354L49.6016 96.9775L53.0925 94.0005Z" fill="#FFBF99"/>
<path d="M39.6446 79.2341C39.6446 79.2341 39.1488 81.7039 38.1521 84.1788C37.1554 86.6537 36.6597 87.6375 36.6597 87.6375C36.6597 87.6375 39.6446 91.0962 42.6398 90.5992C45.6247 90.1073 45.6247 88.1294 45.6247 88.1294C45.6247 88.1294 42.8825 85.9056 42.8825 82.9388C42.8825 79.972 42.8825 79.9771 42.8825 79.9771L39.6446 79.2341Z" fill="#FFB48F"/>
<path d="M46.2349 87.5608C46.2349 87.5608 48.7137 88.9289 49.7413 89.7949C50.7742 90.6608 53.7539 94.0631 53.7539 94.0631L49.6742 97.9933L46.8339 94.7959L46.2349 87.5608Z" fill="#F79F03"/>
<path d="M37.9201 86.4015C37.9201 86.4015 39.4126 88.3794 41.406 88.8713C43.3993 89.3632 44.3908 87.8824 44.3908 87.8824L44.9382 87.1753C44.9382 87.1753 45.4908 86.7448 46.1002 87.2521C46.7095 87.7491 47.8715 89.0301 48.8785 91.1002C49.8907 93.1652 50.185 95.9937 50.3968 102.598C50.6085 109.203 50.3968 116.331 50.3968 116.331H29.7969L29.5542 106.067C29.5542 106.067 31.7438 92.4171 33.8973 89.6399C36.0507 86.8627 36.6756 86.2581 36.6756 86.2581C36.6756 86.2581 37.1713 85.5817 37.9201 86.4015Z" fill="#FCBE42"/>
<path d="M45.8782 72.5569C45.8782 72.5569 47.3706 74.5348 47.3706 77.9986C47.3706 81.4573 46.8748 83.9322 45.3772 83.9322C43.8796 83.9322 40.8896 82.9432 40.3938 81.9543C39.8981 80.9654 38.9014 80.9654 38.9014 78.9926C38.9014 77.0199 41.3905 72.5671 43.389 72.5671C45.3824 72.5671 45.8782 72.5569 45.8782 72.5569Z" fill="#FFBF99"/>
<path d="M47.3709 72.5572C47.3709 72.5572 48.8634 68.6066 47.8667 68.1045C46.87 67.6126 44.8818 68.5964 44.3809 69.0934C43.8851 69.5853 42.8884 69.5853 42.3875 69.5853C42.3875 69.5853 37.4041 69.5853 36.4074 70.5743C35.4107 71.5632 35.4107 72.0551 35.4107 72.5521C35.4107 73.044 35.4056 74.986 34.915 76.0108C34.7032 76.4566 34.4192 78.4806 35.4107 80.4636C36.4022 82.4414 37.4041 82.9333 37.8998 82.9333C38.3956 82.9333 38.8449 82.9333 38.8965 82.4414C38.9533 81.9085 39.1496 81.1553 39.3923 80.4636C39.6298 79.8026 39.8881 78.4857 39.8881 78.4857C39.8881 78.4857 40.3838 76.0159 41.3805 75.027C42.3772 74.0381 42.3772 74.0381 44.3654 73.5462C46.3742 73.0594 46.8752 74.0381 47.3709 72.5572Z" fill="#170856"/>
<path d="M40.652 76.1695C41.3905 77.0098 40.3938 78.4907 40.3938 78.4907C40.3938 78.4907 38.9014 78.9826 38.9014 77.5017C38.9014 76.0209 39.9084 75.324 40.652 76.1695Z" fill="#FFBF99"/>
<path d="M30.6734 96.9729C30.6734 96.9729 28.804 104.111 29.1293 108.584C29.4547 113.052 30.7922 116.926 31.7631 119.621C32.7339 122.316 33.3071 122.962 33.3433 124.658C33.3794 126.354 34.1799 128.363 35.1714 129.372C36.1629 130.381 36.9582 130.884 36.9582 130.884C36.9582 130.884 38.1356 131.427 37.9497 130.34C37.9497 130.34 38.7398 130.402 38.4403 129.797C38.4403 129.797 39.4938 129.818 38.7243 128.993C37.9549 128.163 36.5347 127.363 36.5347 127.363C36.5347 127.363 35.724 126.077 36.8807 126.723C38.0375 127.363 39.0497 127.389 37.9807 126.344C36.9066 125.298 35.6672 123.469 34.7583 120.123C33.8494 116.782 32.7701 110.177 34.0559 105.105C35.3418 100.032 36.9685 98.341 36.9685 98.341L30.6734 96.9729Z" fill="#FFBF99"/>
<path d="M26.2692 173.807C26.2692 173.807 27.2607 176.569 28.3607 177.84C29.4607 179.11 30.3283 180.038 30.3283 180.038C30.3283 180.038 31.609 182.072 30.163 181.467C28.7222 180.863 20.7487 175.549 20.7487 175.549C20.7487 175.549 19.6126 174.965 20.1394 174.002C20.6661 173.038 22.0036 171.173 22.0036 171.173L26.2692 173.807Z" fill="#170856"/>
<path d="M40.9155 179.972C40.9155 179.972 40.6211 180.776 42.2943 180.776C43.9675 180.776 53.0926 180.776 53.0926 180.776C53.0926 180.776 54.8484 180.428 53.232 179.649C51.6053 178.87 46.7407 176.698 46.7407 176.698C46.7407 176.698 46.3688 176.6 46.3792 175.673H40.8535L40.9155 179.972Z" fill="#170856"/>
<path d="M38.4772 92.2178C38.4772 92.2178 38.8284 88.9025 36.3961 88.5848C33.9637 88.2672 32.4197 91.485 31.6089 93.5756C30.7981 95.6662 30.3901 97.1983 30.3901 97.1983C30.3901 97.1983 35.6214 99.2889 37.0003 99.2889C37.0054 99.2889 38.1674 95.8148 38.4772 92.2178Z" fill="#F79F03"/>
<path d="M232.099 145.22C232.099 145.22 243.275 145.878 238.407 146.528C233.54 147.186 226.841 147.186 224.472 146.919C222.112 146.659 230.259 145.35 232.099 145.22Z" fill="#0064B7"/>
<path d="M232.873 146.697L233.033 177.827C233.033 177.827 237.87 177.949 238.729 179.082C239.587 180.214 238.591 180.925 233.616 180.803C228.641 180.681 225.652 180.696 225.652 180.696C225.652 180.696 223.23 180.421 226.074 178.99C228.917 177.559 231.194 177.972 231.194 177.972L231.355 146.735L232.873 146.697Z" fill="#0064B7"/>
<path d="M229.854 98.1153C229.854 98.1153 231.21 94.3436 227.876 93.3414C227.876 93.3414 226.91 87.657 222.373 90.2276C222.028 90.4189 221.637 90.4495 221.284 90.2735C220.081 89.6767 217.414 86.7925 215.566 91.2145C215.421 91.5588 215.068 91.6965 214.746 91.7118C213.382 91.7654 210.093 92.3009 212.792 96.3634C212.792 96.3634 214.041 97.8705 216.126 97.9929C216.126 97.9929 225.807 104.649 228.62 103.524C231.417 102.384 231.31 99.37 229.854 98.1153Z" fill="#2C2477"/>
<path d="M220.617 96.1948C220.479 96.1489 215.328 94.4964 216.141 99.0791V99.0867C216.133 99.2091 215.987 103.317 219.283 105.682C219.329 105.712 219.375 105.75 219.414 105.796C219.62 106.018 220.517 106.806 221.966 105.49C223.307 104.274 223.752 105.115 223.898 105.467C223.936 105.559 223.989 105.659 224.035 105.743C224.242 106.118 224.879 107.013 224.457 107.625C224.012 108.267 223.453 109.063 223.307 109.277C223.292 109.3 223.307 109.331 223.33 109.331C224.081 109.285 231.616 108.795 231.432 107.127C231.432 107.127 230.98 105.284 230.98 105.276L230.842 105.245C230.819 105.238 230.796 105.23 230.773 105.215L228.42 103.486C228.412 103.486 228.412 103.478 228.405 103.478C228.251 103.493 225.99 103.692 225.185 102.721C225.185 102.721 224.181 101.573 223.714 100.089C223.576 99.6452 223.645 99.1479 223.905 98.796C224.296 98.2758 224.71 97.3271 223.729 96.6539C223.729 96.6539 222.962 96.0877 222.265 96.9369L222.173 97.0517C222.104 97.1358 222.004 97.1511 221.92 97.0899L220.617 96.1948C220.625 96.1948 220.625 96.1948 220.617 96.1948Z" fill="#FFBF9C"/>
<path d="M230.995 105.276C230.995 105.276 227.561 108.459 223.659 108.819C223.659 108.819 221.528 111.183 221.214 116.339C220.9 121.496 220.693 133.048 221.007 133.798C221.322 134.547 239.641 134.425 239.641 134.425C239.641 134.425 238.284 115.704 236.1 111.81C236.1 111.81 232.873 106.156 230.995 105.276Z" fill="#DE051F"/>
<path d="M232.644 119.223C232.644 119.223 232.329 126.132 231.708 128.649C231.088 131.158 230.773 132.29 228.167 132.665C225.561 133.04 218.693 133.545 217.344 133.292C215.988 133.04 211.619 134.157 211.619 134.157C211.619 134.157 210.262 134.532 210.162 133.652C210.063 132.772 208.599 133.53 208.499 133.905C208.392 134.279 207.663 134.784 207.456 133.782C207.25 132.78 207.349 131.518 209.12 131.143C210.89 130.768 212.554 131.143 214.432 131.288C216.103 131.418 217.222 130.898 217.551 130.898L225.983 129.016C225.983 129.016 227.025 128.641 227.232 127.134C227.439 125.627 227.439 119.093 227.439 119.093L232.644 119.223Z" fill="#FFBF9C"/>
<path d="M233.479 119.973H226.834C226.757 115.076 227.225 110.425 229.838 110.417C229.838 110.425 233.479 109.599 233.479 119.973Z" fill="#EE384E"/>
<path d="M202.268 143.59C202.268 143.59 200.336 155.143 200.076 158.05C199.807 160.927 198.42 170.222 198.42 170.222L202.689 170.1L206.33 154.271L202.268 143.59Z" fill="#005498"/>
<path d="M239.549 133.208C239.625 133.729 240.085 141.502 239.327 143.468C238.637 145.266 236.828 145.855 233.601 146.107C230.872 146.322 216.73 145.595 212.438 145.35C211.855 145.319 211.434 146 211.618 146.658L217.98 169.22L214.231 171.232C214.231 171.232 205.593 155.403 204.236 151.631C202.88 147.859 201.009 141.333 201.117 139.819C201.117 139.819 200.803 136.927 204.029 136.552C207.195 136.185 217.282 134.241 217.658 134.165C217.665 134.165 217.673 134.165 217.681 134.165L220.992 133.79C221 133.79 221.007 133.79 221.015 133.79L239.549 133.208Z" fill="#0064E1"/>
<path d="M217.397 133.346C217.681 133.285 218.624 133.338 218.616 134.042C218.609 134.685 217.466 134.769 217.259 134.8C217.098 134.823 204.191 136.682 203.355 136.804C203.332 136.812 203.302 136.812 203.279 136.82C203.064 136.865 201.884 137.057 201.125 135.81C200.335 134.501 194.05 124.984 193.375 123.967C193.345 123.921 193.314 123.875 193.276 123.829C193.146 123.668 192.778 123.125 193.215 122.498C193.736 121.74 194.571 123.003 194.571 123.003L202.152 135.006C202.328 135.282 202.566 135.488 202.842 135.572H202.849C202.964 135.603 203.079 135.611 203.194 135.588" fill="#606060"/>
<path d="M198.45 170.077C198.443 170.077 198.427 170.077 198.42 170.084C198.19 170.299 194.71 173.512 192.901 174.239C192.725 174.307 192.556 174.384 192.387 174.46C192.249 174.522 192.119 174.59 191.989 174.667C191.889 174.728 191.789 174.789 191.69 174.858C191.621 174.912 191.552 174.965 191.483 175.027C191.437 175.072 191.391 175.118 191.345 175.172C191.314 175.21 191.291 175.248 191.268 175.294C191.253 175.325 191.238 175.356 191.23 175.386C191.222 175.424 191.222 175.455 191.23 175.493C191.23 175.532 191.23 175.562 191.23 175.6C191.23 175.639 191.23 175.677 191.23 175.715C191.23 175.73 191.245 175.746 191.261 175.746L202.75 174.254C202.781 174.246 202.812 174.239 202.835 174.223C202.957 174.139 203.287 173.833 203.203 173.122C203.111 172.318 202.75 170.452 202.689 170.146C202.681 170.123 202.666 170.107 202.643 170.1L198.45 170.077Z" fill="#2B2377"/>
<path d="M214.239 171.232C214.239 171.232 212.262 176.258 210.905 177.391C209.87 178.255 210.177 178.974 210.376 179.265C210.437 179.357 210.537 179.403 210.637 179.387C210.882 179.357 211.418 179.227 211.947 178.775C212.676 178.148 219.858 172.869 219.858 172.869C219.858 172.869 220.172 172.112 219.651 171.362C219.129 170.605 217.987 169.228 217.987 169.228L214.239 171.232Z" fill="#2B2377"/>
<path d="M24.8802 67.7814L28.0361 70.9314L31.1921 67.7814L28.0361 64.6314L24.8802 67.7814Z" fill="#0064E1"/>
<path d="M243.688 69.224L246.844 72.374L250 69.224L246.844 66.074L243.688 69.224Z" fill="#DE051F"/>
<path d="M59.243 154.39C59.243 154.39 61.082 153.641 60.946 151.534C60.81 149.427 59.7217 147.933 61.9688 148.542C64.2159 149.155 64.9716 149.427 66.604 149.085C68.2364 148.743 69.5918 148.064 68.8814 150.171C68.1709 152.278 67.395 154.043 69.0778 154.385C70.7556 154.727 72.5593 153.455 72.776 156.754C72.9926 160.053 70.3274 163.764 66.0145 163.9C61.7017 164.036 59.7972 162.25 59.7972 162.25C59.7972 162.25 58.6384 160.621 60.4422 160.224C62.2459 159.822 64.0849 159.062 63.1628 158.217C62.2459 157.378 59.2481 157.307 59.2481 157.307C59.2481 157.307 55.4996 156.563 59.243 154.39Z" fill="#649EEA"/>
<path d="M78.9537 154.934C78.6514 152.831 78.8832 151.318 82.798 150.745C86.7128 150.171 88.9951 152.52 89.2319 154.934C89.4687 157.347 86.0679 158.222 86.0679 158.222C86.0679 158.222 83.6495 158.911 84.8788 161.018C86.1082 163.126 86.6624 165.162 83.8812 165.469C81.1001 165.776 78.0569 165.042 76.364 163.915C74.6712 162.789 72.9329 159.932 74.8727 158.439C74.8727 158.439 75.4168 158.067 77.2911 157.961C79.1553 157.855 78.9537 154.934 78.9537 154.934Z" fill="#023EA1"/>
<path d="M65.1777 154.592C65.1777 154.592 68.4275 161.929 68.8708 166.922" stroke="#023EA1" stroke-width="0.520509" stroke-miterlimit="10"/>
<path d="M83.2503 155.798C83.2503 155.798 77.4966 164.327 76.1362 167.179" stroke="#649EEA" stroke-width="0.520509" stroke-miterlimit="10"/>
<path d="M66.8656 166.349H80.071C80.071 166.349 81.517 166.45 81.3961 168.421C81.2853 170.236 78.9777 169.844 77.7887 169.844C76.5996 169.844 66.5784 169.844 66.5784 169.844C66.5784 169.844 64.9561 170.121 64.9561 168.285C64.9561 166.45 65.5707 166.349 66.8656 166.349Z" fill="#0054A5"/>
<path d="M66.5845 169.844L68.5847 181.491H77.4521L78.9536 172.751L66.5996 169.844H66.5845Z" fill="#0054A5"/>
<path d="M66.5991 169.844L78.9531 172.751L79.4519 169.844H66.5991Z" fill="#006AD5"/>
<path d="M72.2778 166.791C72.2778 166.791 72.9479 153.867 76.8073 145.761" stroke="#FCBE42" stroke-width="0.520509" stroke-miterlimit="10"/>
<path d="M79.9815 141.094C79.9815 141.094 80.299 145.062 76.4194 146.611C76.4194 146.611 75.5831 143.221 79.9815 141.094Z" fill="#FCBE42"/>
<path d="M74.1626 153.722C74.1626 153.722 75.5935 150.337 79.9869 150.79C79.992 150.79 79.6493 154.159 74.1626 153.722Z" fill="#FCBE42"/>
<path d="M72.7158 162.235C72.7158 162.235 73.4565 158.635 77.8549 158.222C77.8549 158.222 78.1824 161.597 72.7158 162.235Z" fill="#FCBE42"/>
<path d="M72.5651 162.255C72.5651 162.255 73.0739 158.619 69.0685 156.759C69.0685 156.759 67.6325 159.831 72.5651 162.255Z" fill="#FCBE42"/>
<path d="M74.212 153.696C74.212 153.696 75.1844 150.151 71.446 147.798C71.4409 147.798 69.6271 150.664 74.212 153.696Z" fill="#FCBE42"/>
<defs>
<clipPath id="clip0_3375_3742">
<rect width="176.97" height="156.965" fill="white" transform="translate(53.7339 23.1777)"/>
</clipPath>
</defs>
</svg>
