<svg width="230" height="180" viewBox="0 0 230 180" fill="none" xmlns="http://www.w3.org/2000/svg">
<g clip-path="url(#clip0_3707_6357)">
<path d="M45.8816 49.8789H106.136C106.444 49.8789 106.694 50.1287 106.694 50.4368V131.334C106.694 131.642 106.943 131.892 107.252 131.892H176.99" stroke="#A9A9A9" stroke-width="1.11582" stroke-dasharray="2.79 2.79"/>
<path d="M94.0453 73.1461C94.7421 73.1461 95.0905 73.1461 95.6712 73.1461C99.5034 65.7369 107.284 60.7588 116.226 60.7588C127.491 60.7588 136.781 68.7469 138.871 79.1661C140.613 78.4715 142.588 78.2399 144.446 78.2399C154.2 78.2399 161.981 86.228 161.981 95.7211C161.981 105.214 153.968 113.202 144.446 113.202H94.0453C82.7808 113.202 73.7227 104.172 73.7227 92.9426C73.7227 82.1761 82.7808 73.1461 94.0453 73.1461Z" fill="#0064B7"/>
<path d="M106.66 77.0673C110.715 73.0119 117.314 73.0119 121.369 77.0673C122.973 78.6714 123.99 80.7032 124.311 82.9431C124.565 84.7241 124.346 86.5643 123.693 88.2328L132.772 97.3121C133.295 97.8348 133.536 98.5822 133.419 99.3118L133.201 100.666C133.123 101.148 132.899 101.585 132.554 101.93C132.046 102.439 131.317 102.683 130.605 102.585L126.146 101.965C125.128 101.824 124.318 101.013 124.177 99.9952L124.098 99.4171L123.521 99.3378C122.501 99.1969 121.691 98.3867 121.55 97.3669L121.472 96.8038L119.147 96.5077C118.642 96.4431 118.166 96.2099 117.806 95.8503L116.484 94.5276C114.943 94.9033 113.332 94.9231 111.771 94.5798C109.834 94.1539 108.067 93.1846 106.66 91.7771C102.604 87.7216 102.604 81.123 106.66 77.0673ZM116.926 92.7989L118.892 94.7647C119.013 94.8861 119.171 94.9637 119.341 94.9852L122.245 95.3551C122.592 95.3992 122.865 95.6703 122.913 96.0167L123.07 97.1565C123.117 97.4997 123.387 97.7698 123.731 97.817L125.458 98.0556L125.459 98.0566L125.698 99.7848C125.745 100.128 126.014 100.398 126.357 100.445L130.815 101.065C131.065 101.099 131.304 101.01 131.469 100.845C131.58 100.734 131.659 100.588 131.685 100.422L131.904 99.0672C131.943 98.8221 131.863 98.5729 131.687 98.3972L121.855 88.5653C123.627 85.2163 123.103 80.9715 120.284 78.1523C116.821 74.6894 111.208 74.6894 107.745 78.1523C104.282 81.6153 104.282 87.2289 107.745 90.6919C110.228 93.1749 113.817 93.8772 116.926 92.7989Z" fill="white"/>
<path d="M109.861 80.2679C111.104 79.024 113.122 79.0235 114.366 80.2679C115.61 81.5117 115.609 83.5289 114.365 84.7728C113.122 86.0166 111.104 86.0172 109.861 84.7734C108.616 83.5289 108.617 81.5117 109.861 80.2679Z" fill="white"/>
<path d="M193.038 104.429C193.038 104.429 194.564 104.005 194.395 101.377C194.225 98.8345 192.53 96.7153 194.903 95.3591C197.193 94.0028 197.786 93.4942 198.888 92.477C199.99 91.2903 200.499 90.4426 204.06 90.8665C204.06 90.8665 206.857 88.5778 209.485 90.6122C211.944 92.7313 211.351 98.4106 211.775 99.1735C212.283 100.021 215.674 103.497 216.098 106.379C216.522 109.261 214.572 111.126 211.775 111.041C209.146 110.956 205.331 111.041 205.331 111.041H195.073C195.073 111.041 191.597 111.295 191.343 107.65C191.343 105.531 193.038 104.429 193.038 104.429Z" fill="#180857"/>
<path d="M201.516 108.752C201.516 108.752 201.516 110.956 200.584 111.804C199.651 112.736 198.464 114.262 198.464 114.262C198.464 114.262 200.584 117.737 204.738 117.144C208.807 116.72 209.57 113.584 209.57 113.584C209.57 113.584 205.67 113.16 205.162 109.176C204.738 105.361 204.06 105.361 204.06 105.361L201.516 108.752Z" fill="#FFB07E"/>
<path d="M203.636 109.939C206.164 109.939 208.214 106.296 208.214 101.802C208.214 97.3074 206.164 93.6641 203.636 93.6641C201.107 93.6641 199.057 97.3074 199.057 101.802C199.057 106.296 201.107 109.939 203.636 109.939Z" fill="#FFBE9B"/>
<path d="M203.636 93.24C203.636 93.24 202.788 95.783 201.092 98.2412C199.227 100.784 197.277 102.14 197.108 102.649C196.938 103.073 195.242 101.801 195.836 99.9365C196.345 97.9022 199.651 92.3076 203.042 92.1381C206.433 92.0533 207.112 90.0189 208.807 94.1725C210.333 98.1565 210.164 102.819 210.164 102.819L203.636 93.24Z" fill="#180857"/>
<path d="M199.142 100.869C199.142 100.869 197.277 100.614 197.108 101.716C196.938 102.903 197.616 103.835 199.142 104.005C200.753 104.344 199.142 100.869 199.142 100.869Z" fill="#FFBE9B"/>
<path d="M216.437 154.102C216.437 154.102 219.066 154.187 221.185 154.187C223.304 154.187 226.357 154.526 226.357 154.526C226.357 154.526 227.204 154.526 227.289 155.712C227.374 156.899 227.374 157.238 227.374 157.238C227.374 157.238 227.459 158.51 226.441 158.51C225.424 158.51 219.405 159.273 217.963 159.273C216.522 159.273 215.59 159.527 215.59 158.51C215.59 157.408 215.59 153.848 216.437 154.102Z" fill="black"/>
<path d="M218.811 123.671C218.811 123.671 220.676 134.012 220.761 136.64C220.846 139.268 221.1 141.387 219.405 142.574C217.794 143.76 214.911 144.693 214.911 144.693L211.351 126.383V124.179L218.811 123.671Z" fill="#FFBF99"/>
<path d="M188.291 123.163C188.291 123.163 187.358 127.825 187.019 130.113C186.849 132.402 186.086 137.064 186.086 138.166C186.002 139.353 185.917 140.879 187.697 142.404C189.477 143.93 191.597 144.608 191.597 144.608L195.412 123.163H188.291Z" fill="#FFBF99"/>
<path d="M199.312 112.228C199.312 112.228 196.514 111.889 194.903 112.312C193.377 112.651 192.869 112.397 193.377 113.669C193.717 114.94 195.836 120.535 194.903 124.01C193.971 127.57 192.614 145.456 192.614 145.456C192.614 145.456 203.127 145.795 207.196 145.964C211.181 146.219 214.233 145.456 214.233 145.456C214.233 145.456 215.166 137.657 214.233 134.352C213.3 130.876 212.114 125.282 212.114 125.282C212.114 125.282 211.435 117.398 212.283 115.449C213.385 113.414 214.148 113.414 212.707 112.991C211.351 112.567 210.079 112.058 208.892 112.058C207.79 112.058 207.366 112.058 206.603 112.567C206.094 113.075 204.653 114.601 203.042 114.177C201.177 113.923 199.99 112.651 199.99 112.651C199.99 112.651 199.905 112.397 199.312 112.228Z" fill="#DE051F"/>
<path d="M194.31 112.991C194.31 112.991 193.377 112.567 191.936 113.753C190.41 115.11 189.308 118.161 188.545 120.026C188.036 121.891 187.612 123.756 187.612 123.756C187.612 123.756 189.647 124.943 191.597 124.943C193.717 125.027 195.073 125.197 195.073 125.197C195.073 125.197 196.006 119.518 195.751 117.059C195.751 114.347 195.497 113.584 194.31 112.991Z" fill="#EE384E"/>
<path d="M211.774 114.855C211.774 114.855 212.622 112.567 214.403 113.584C216.352 114.771 217.794 118.67 218.133 120.026C218.472 121.298 219.065 123.925 219.065 123.925C219.065 123.925 216.776 124.858 215.081 125.112C213.131 125.197 211.774 125.366 211.774 125.366C211.774 125.366 211.096 120.365 211.266 118.331C211.435 116.296 211.774 114.855 211.774 114.855Z" fill="#EE384E"/>
<path d="M196.599 146.981H210.842L203.381 149.27L196.599 146.981Z" fill="#004B89"/>
<path d="M183.882 142.828C183.882 142.828 209.74 151.135 215.42 153.254C215.42 153.254 217.37 153.678 217.37 154.78C217.37 155.713 217.285 157.238 217.031 157.916C216.861 158.679 216.183 159.188 215.081 159.103C213.979 158.849 190.919 154.102 181.678 151.729L179.135 150.881C179.135 150.881 177.185 149.948 177.609 147.405C177.948 144.947 179.728 142.828 181 142.743C182.017 142.574 183.882 142.828 183.882 142.828Z" fill="#0064E1"/>
<path d="M181.508 154.78C181.508 154.78 184.9 154.272 186.68 154.272C188.63 154.187 191.173 154.017 191.512 154.272C191.851 154.526 192.191 158.51 192.191 158.51C192.191 158.51 192.53 159.697 189.902 159.357C187.358 159.103 181.508 159.018 181.508 159.018C181.508 159.018 180.152 158.934 180.067 157.747C180.067 156.475 180.152 155.882 180.152 155.882C180.152 155.882 180.915 154.865 181.508 154.78Z" fill="black"/>
<path d="M196.938 151.305C196.938 151.305 212.707 146.473 218.218 144.693C223.813 142.998 226.865 141.302 228.73 144.184C230.595 146.812 230.341 149.948 228.391 150.796C226.272 151.644 210.079 155.543 203.212 157.069C196.429 158.594 192.021 159.357 191.343 159.188C190.834 158.934 189.986 156.899 190.071 155.628C190.156 154.356 190.241 154.017 191.597 153.424C193.038 152.83 196.938 151.305 196.938 151.305Z" fill="#0054A3"/>
<path d="M195.158 127.655H214.148C214.148 127.655 215.25 127.57 215.25 128.926C215.25 130.283 215.25 145.795 215.25 145.795C215.25 145.795 215.335 146.981 214.572 146.981C213.809 146.981 192.275 146.981 192.275 146.981C192.275 146.981 191.343 147.236 191.343 145.71C191.343 144.184 191.343 128.587 191.343 128.587C191.343 128.587 191.258 127.74 192.445 127.74C193.462 127.655 195.158 127.655 195.158 127.655Z" fill="#0064B7"/>
<path d="M202.11 137.488L203.212 136.131L204.484 137.233L203.466 138.59L202.11 137.488Z" fill="#569ED4"/>
<path d="M39.0356 82.6055C39.0356 82.6055 41.8164 82.7446 43.9021 82.7446C45.9182 82.7446 49.1858 83.1617 49.1858 83.1617C49.1858 83.1617 50.02 83.1617 50.0895 84.2045C50.1591 85.2474 50.1591 85.6645 50.1591 85.6645C50.1591 85.6645 50.2286 86.9159 49.2553 86.9159C48.282 86.9159 42.025 87.6111 40.6346 87.6111C39.2441 87.6111 38.2013 87.8892 38.2013 86.9159C38.1318 85.9426 38.0623 82.536 39.0356 82.6055Z" fill="#160856"/>
<path d="M41.33 52.9199C41.33 52.9199 43.1375 63.0006 43.2766 65.7119C43.4156 68.3538 43.6937 70.4394 41.9557 71.4823C40.2176 72.5251 37.2977 73.4984 37.2977 73.4984L33.7521 55.4227V53.3371L41.33 52.9199Z" fill="#FDBD97"/>
<path d="M10.3925 52.2944C10.3925 52.2944 9.4192 56.8829 9.14111 59.1771C8.86303 61.4713 8.23733 65.9902 8.16781 67.0331C8.09828 68.0759 7.95924 69.8139 9.83633 71.2044C11.7134 72.5253 13.7991 73.29 13.7991 73.29L17.6923 52.2944H10.3925Z" fill="#FDBD97"/>
<path d="M24.2275 37.7641C24.2275 37.7641 24.2275 39.8498 23.3237 40.7535C22.4199 41.6573 21.238 43.1868 21.238 43.1868C21.238 43.1868 23.3237 46.5239 27.5645 46.0372C31.7358 45.6201 32.5006 42.5611 32.5006 42.5611C32.5006 42.5611 28.5378 42.0049 28.0512 38.2508C27.6341 34.4966 27.0084 34.4966 27.0084 34.4966L24.2275 37.7641Z" fill="#FDAE7D"/>
<path d="M21.1685 29.4216C21.1685 29.4216 21.3075 34.2186 23.6017 37.9728C25.8264 41.727 28.5378 39.6413 29.6501 37.6947C30.6929 35.7481 33.5433 29.4216 32.9872 27.7531C32.3615 26.0846 24.0884 25.3198 24.0884 25.3198L21.1685 29.4216Z" fill="#FDBD97"/>
<path d="M31.8053 32.1326C31.8053 32.1326 32.9872 31.2289 32.9872 32.1326C32.9872 33.0364 32.3615 34.3573 31.6663 34.5659C30.9016 34.7049 31.0406 34.2878 31.2492 33.6621C31.3882 33.0364 31.8053 32.1326 31.8053 32.1326Z" fill="#FDBD97"/>
<path d="M21.5164 34.0794C21.864 34.2185 22.2116 34.288 22.2116 33.8014C22.2116 32.8976 21.5859 31.5767 20.8907 31.3681C20.1259 31.2291 20.265 31.6462 20.4735 32.2719C20.5431 32.4805 20.6126 32.689 20.6821 32.9671C20.8211 33.3842 21.2383 33.9404 21.5164 34.0794Z" fill="#FDBD97"/>
<path d="M21.3772 31.6462L21.2381 30.1167C21.2381 30.1167 22.5591 30.2558 24.0885 28.7958C24.0885 28.7958 27.0084 29.491 29.3722 29.2129C31.875 29.0044 32.9178 28.3092 32.9178 28.3092C32.9178 28.3092 32.5007 31.1596 32.0835 31.9938C32.0835 31.9938 33.2654 31.5072 33.7521 30.1167C34.1692 28.7958 34.0997 27.3359 34.0997 27.3359C34.0997 27.3359 35.7682 26.015 36.1853 24.4855C36.1853 24.4855 31.6664 23.4427 30.3455 22.5389C29.0246 21.6351 28.2598 21.0094 28.2598 21.0094C28.2598 21.0094 26.1742 19.8275 24.0885 21.4265C22.0029 23.095 20.6124 23.9988 20.6124 26.8492C20.5429 26.9187 18.5963 29.6301 21.3772 31.6462Z" fill="#160856"/>
<path d="M21.7246 41.6571C21.7246 41.6571 18.8742 41.3095 17.2752 41.7266C15.7458 42.1438 15.2591 41.8657 15.6762 43.0476C16.0934 44.2294 18.179 49.7217 17.2057 53.1282C16.2324 56.5348 14.9115 74.1933 14.9115 74.1933C14.9115 74.1933 25.6179 74.6105 29.7197 74.819C33.891 75.0276 36.9499 74.2629 36.9499 74.2629C36.9499 74.2629 37.8537 66.685 36.9499 63.3479C36.0461 60.0804 34.8643 54.4491 34.8643 54.4491C34.8643 54.4491 34.0995 46.7322 35.1424 44.8551C36.1852 42.978 36.9499 42.9085 35.629 42.4218C34.3081 41.9352 32.8481 41.5181 31.7358 41.5181C30.693 41.5181 30.1368 41.5181 29.5111 42.1438C28.8854 42.7695 27.634 44.0209 25.896 43.7428C24.1579 43.4647 22.837 42.2828 22.837 42.2828C22.837 42.2828 22.2113 41.7266 21.7246 41.6571Z" fill="#0181F7"/>
<path d="M16.6496 42.2831C16.6496 42.2831 15.6763 41.7964 14.2164 43.0478C12.6174 44.4383 11.505 47.3582 10.9488 49.1657C10.3927 50.9733 10.045 52.7809 10.045 52.7809C10.045 52.7809 12.0612 53.8237 14.2164 53.8932C16.302 53.9627 17.6924 54.1018 17.6924 54.1018C17.6924 54.1018 18.5962 48.6096 18.3877 46.1763C18.1096 43.7431 17.762 42.9088 16.6496 42.2831Z" fill="#023E9F"/>
<path d="M34.3083 44.2991C34.3083 44.2991 35.1426 42.0048 37.0197 43.0477C38.8967 44.0905 40.2872 48.1228 40.7738 49.3741C41.191 50.6255 41.7471 53.1978 41.7471 53.1978C41.7471 53.1978 39.5224 54.1712 37.5758 54.3102C35.6987 54.4492 34.3778 54.5883 34.3778 54.5883C34.3778 54.5883 33.6131 49.5827 33.7521 47.6361C33.8912 45.6895 34.3083 44.2991 34.3083 44.2991Z" fill="#023E9F"/>
<path d="M18.8047 75.7925H33.1957L25.7569 78.0867L18.8047 75.7925Z" fill="#BA0A28"/>
<path d="M6.01278 71.6909C6.01278 71.6909 32.292 79.8945 38.0623 81.9106C38.0623 81.9106 39.9394 82.3973 40.009 83.3706C40.0785 84.3439 39.8699 85.7343 39.6614 86.4295C39.4528 87.1247 38.8271 87.6809 37.7843 87.4723C36.7414 87.2638 13.1735 82.5363 3.8576 80.103L1.21577 79.2688C1.21577 79.2688 -0.730843 78.365 -0.383234 76.0012C-0.0356243 73.6375 1.70242 71.4823 2.95382 71.3433C4.20521 71.2737 6.01278 71.6909 6.01278 71.6909Z" fill="#EC384E"/>
<path d="M3.649 83.3707C3.649 83.3707 6.91652 82.8146 8.93266 82.745C10.8793 82.6755 13.5211 82.4669 13.9382 82.745C14.3554 83.0231 14.703 86.8468 14.703 86.8468C14.703 86.8468 15.0506 87.8897 12.4783 87.6811C9.90596 87.4725 3.92709 87.264 3.92709 87.264C3.92709 87.264 2.60617 87.1944 2.53665 86.0126C2.46713 84.8307 2.67569 84.2745 2.67569 84.2745C2.67569 84.2745 2.74521 83.5098 3.649 83.3707Z" fill="#160856"/>
<path d="M19.2914 80.0336C19.2914 80.0336 35.2119 75.1671 40.9127 73.4986C46.6135 71.83 49.7419 70.3006 51.619 72.9424C53.4266 75.5842 53.2876 78.5737 51.2019 79.4079C49.1162 80.2422 32.5005 84.1354 25.6178 85.5258C18.7352 86.9163 14.2163 87.8201 13.5906 87.542C12.9649 87.2639 12.2696 85.2477 12.4087 84.1354C12.5477 83.023 12.6173 82.6059 13.9382 82.0497C15.2591 81.424 19.2914 80.0336 19.2914 80.0336Z" fill="#DB061F"/>
<path d="M17.4837 56.8125H36.6718C36.6718 56.8125 37.7146 56.6734 37.7146 58.0638C37.7146 59.4543 37.7146 74.6101 37.7146 74.6101C37.7146 74.6101 37.7841 75.7224 36.9499 75.7224C36.1156 75.7224 14.4248 75.7224 14.4248 75.7224C14.4248 75.7224 13.521 76.0005 13.521 74.471C13.521 72.9415 13.521 57.6467 13.521 57.6467C13.521 57.6467 13.4515 56.8125 14.5638 56.8125C15.6067 56.8125 17.4837 56.8125 17.4837 56.8125Z" fill="#0064B5"/>
<path d="M26.7998 66.1988L25.4093 65.0864L24.297 66.4769L25.6874 67.5892L26.7998 66.1988Z" fill="#579CD2"/>
</g>
<defs>
<clipPath id="clip0_3707_6357">
<rect width="230" height="180" fill="white"/>
</clipPath>
</defs>
</svg>
