<svg width="270" height="186" viewBox="0 0 270 186" fill="none" xmlns="http://www.w3.org/2000/svg">
<path d="M70.9606 72.1732L70.6646 72.2078L71.2533 77.2298L71.5494 77.1952L70.9606 72.1732Z" fill="#007CFF"/>
<path d="M71.7653 79.0055L71.4692 79.04L71.7602 81.5215L72.0562 81.487L71.7653 79.0055Z" fill="#007CFF"/>
<path d="M93.6154 62.0025L93.1981 60.9317C92.602 59.3851 91.1117 58.4333 89.5021 58.6117L73.9433 60.5153C71.9761 60.6938 70.6646 62.4784 70.8434 64.382L75.2547 102.037C75.374 103.346 76.6258 104.298 77.9373 104.179L133.377 97.6948C134.688 97.5759 135.642 96.3266 135.523 95.0179L131.708 62.4784C131.589 61.1697 130.337 60.2179 129.025 60.3369L96.8941 64.0846C95.4038 64.2035 94.0923 63.4302 93.6154 62.0025Z" fill="#007CFF"/>
<path d="M95.0905 45.7474L77.6104 49.2229L82.4094 73.2586L99.8896 69.7831L95.0905 45.7474Z" fill="white"/>
<path opacity="0.7" d="M95.0905 45.7474L77.6104 49.2229L82.4094 73.2586L99.8896 69.7831L95.0905 45.7474Z" fill="white"/>
<path d="M92.84 51.5326L82.0502 53.6742C81.5137 53.7931 81.0368 53.4362 80.8579 52.9008C80.7387 52.3655 81.0964 51.8896 81.6329 51.7111L92.4227 49.5696C92.9593 49.4506 93.4362 49.8075 93.615 50.3429C93.6746 50.8783 93.3765 51.3542 92.84 51.5326Z" fill="#DDE7F6"/>
<path d="M93.6149 55.5181L82.8251 57.6002C82.2886 57.7192 81.8117 57.3622 81.6328 56.8269C81.5136 56.2915 81.8713 55.8156 82.4078 55.6371L93.1977 53.4956C93.7342 53.3766 94.2111 53.7335 94.3899 54.2689C94.4495 54.9233 94.1514 55.4587 93.6149 55.5181Z" fill="#DDE7F6"/>
<path d="M94.3898 59.4445L83.6 61.586C83.0635 61.705 82.5866 61.3481 82.4077 60.8127C82.2885 60.2773 82.6462 59.8014 83.1827 59.623L93.9725 57.4814C94.5091 57.3624 94.986 57.7194 95.1648 58.2548C95.284 58.7901 94.9264 59.385 94.3898 59.4445Z" fill="#DDE7F6"/>
<path d="M95.2243 63.4301L84.4345 65.5716C83.8979 65.6906 83.421 65.3337 83.2422 64.7983C83.123 64.2629 83.4807 63.787 84.0172 63.6086L94.807 61.467C95.3435 61.348 95.8204 61.705 95.9993 62.2403C96.0589 62.8352 95.7608 63.3111 95.2243 63.4301Z" fill="#DDE7F6"/>
<path d="M93.0186 68.0105L85.2094 69.6167C84.6729 69.7356 84.196 69.3787 84.0171 68.8433C83.8979 68.3079 84.2556 67.832 84.7921 67.6536L92.6609 66.1069C93.1974 65.9879 93.6743 66.3449 93.8532 66.8802C93.9128 67.4751 93.5551 67.832 93.0186 68.0105Z" fill="#DDE7F6"/>
<path d="M120.072 41.1614L102.412 43.5715L105.74 67.8548L123.4 65.4447L120.072 41.1614Z" fill="white"/>
<path opacity="0.7" d="M120.072 41.1614L102.412 43.5715L105.74 67.8548L123.4 65.4447L120.072 41.1614Z" fill="white"/>
<path d="M117.401 46.7738L106.492 48.261C105.955 48.3205 105.478 47.9636 105.419 47.4282C105.359 46.8928 105.717 46.4169 106.253 46.3574L117.162 44.8702C117.699 44.8107 118.176 45.1677 118.235 45.7031C118.295 46.1195 117.937 46.7143 117.401 46.7738Z" fill="#DDE7F6"/>
<path d="M117.997 50.6999L107.088 52.187C106.551 52.2465 106.074 51.8896 106.015 51.3542C105.955 50.8188 106.313 50.3429 106.849 50.2834L117.758 48.7963C118.295 48.7368 118.772 49.0937 118.831 49.6291C118.891 50.1645 118.533 50.6999 117.997 50.6999Z" fill="#DDE7F6"/>
<path d="M110.665 55.8158L107.684 56.2322C107.147 56.2917 106.671 55.9348 106.611 55.3994C106.551 54.864 106.909 54.3881 107.446 54.3286L110.426 53.9122C110.963 53.8527 111.44 54.2097 111.499 54.745C111.499 55.2209 111.201 55.8158 110.665 55.8158Z" fill="#DDE7F6"/>
<path d="M116.447 55.0424L113.466 55.4588C112.93 55.5183 112.453 55.1614 112.393 54.626C112.334 54.0906 112.691 53.6147 113.228 53.5552L116.208 53.1388C116.745 53.0793 117.222 53.4362 117.281 53.9716C117.341 54.507 116.924 54.9234 116.447 55.0424Z" fill="#DDE7F6"/>
<path d="M119.07 58.7902L108.22 60.2774C107.684 60.3369 107.207 59.9799 107.147 59.4445C107.087 58.9092 107.445 58.4333 107.982 58.3738L118.891 56.8866C119.427 56.8271 119.904 57.184 119.964 57.7194C120.023 58.2548 119.606 58.7307 119.07 58.7902Z" fill="#DDE7F6"/>
<path d="M116.626 63.2519L108.697 64.3226C108.161 64.3821 107.684 64.0252 107.624 63.4898C107.565 62.9544 107.922 62.4785 108.459 62.419L116.387 61.3483C116.924 61.2888 117.401 61.6457 117.46 62.1811C117.52 62.657 117.222 63.1924 116.626 63.2519Z" fill="#DDE7F6"/>
<path d="M103.42 44.6194L85.6641 46.1633L87.7959 70.5789L105.552 69.035L103.42 44.6194Z" fill="white"/>
<path opacity="0.8" d="M103.42 44.6194L85.6641 46.1633L87.7959 70.5789L105.552 69.035L103.42 44.6194Z" fill="white"/>
<path d="M100.47 50.1051L89.5018 51.0569C88.9653 51.1164 88.548 50.7595 88.4884 50.1646C88.4288 49.6292 88.7864 49.2128 89.3826 49.1533L100.351 48.2015C100.888 48.142 101.305 48.4989 101.365 49.0938C101.365 49.6887 101.007 50.1051 100.47 50.1051Z" fill="#DDE7F6"/>
<path d="M100.828 54.2694L89.8597 55.2212C89.3232 55.2807 88.9059 54.9238 88.8463 54.3289C88.7867 53.7935 89.1444 53.3771 89.7405 53.3176L100.709 52.3658C101.246 52.3063 101.663 52.6633 101.723 53.2581C101.723 53.6745 101.305 54.1504 100.828 54.2694Z" fill="#DDE7F6"/>
<path d="M101.126 58.2551L90.1576 59.0879C89.6211 59.1474 89.2038 58.7905 89.1441 58.1956C89.0845 57.6602 89.4422 57.2438 90.0383 57.1843L101.007 56.2325C101.544 56.173 101.961 56.53 102.02 57.1248C102.08 57.8387 101.722 58.1361 101.126 58.2551Z" fill="#DDE7F6"/>
<path d="M101.544 62.3001L90.575 63.2519C90.0385 63.3114 89.6212 62.9544 89.5616 62.3596C89.502 61.8242 89.8597 61.4078 90.4558 61.3483L101.305 60.337C101.842 60.2775 102.259 60.6344 102.319 61.2293C102.438 61.7052 102.021 62.2406 101.544 62.3001Z" fill="#DDE7F6"/>
<path d="M98.861 66.5238L90.8729 67.2376C90.3364 67.2971 89.9191 66.9402 89.8595 66.3453C89.7999 65.81 90.1575 65.3935 90.7537 65.3341L98.7417 64.6202C99.2782 64.5607 99.6955 64.9176 99.7551 65.5125C99.7551 66.1669 99.3975 66.5238 98.861 66.5238Z" fill="#DDE7F6"/>
<path d="M125.08 43.3832L107.277 44.2407L108.461 68.72L126.264 67.8626L125.08 43.3832Z" fill="white"/>
<path opacity="0.8" d="M125.08 43.3832L107.277 44.2407L108.461 68.72L126.264 67.8626L125.08 43.3832Z" fill="white"/>
<path d="M121.931 48.7368L110.903 49.2722C110.366 49.2722 109.949 48.8558 109.889 48.3799C109.889 47.8445 110.306 47.4281 110.783 47.3686L121.752 46.8333C122.289 46.8333 122.706 47.2497 122.765 47.7256C122.825 48.3799 122.467 48.7368 121.931 48.7368Z" fill="#DDE7F6"/>
<path d="M122.11 52.9009L111.141 53.4363C110.604 53.4363 110.187 53.0199 110.127 52.544C110.127 52.0086 110.545 51.5922 111.022 51.5327L121.99 50.9973C122.527 50.9973 122.944 51.4137 123.004 51.8896C123.063 52.4845 122.646 52.9009 122.11 52.9009Z" fill="#DDE7F6"/>
<path d="M114.36 57.3626L111.32 57.4815C110.784 57.4815 110.366 57.0651 110.307 56.5892C110.307 56.0539 110.724 55.6374 111.201 55.578L114.241 55.459C114.778 55.459 115.195 55.8754 115.254 56.3513C115.314 56.8272 114.897 57.3031 114.36 57.3626Z" fill="#DDE7F6"/>
<path d="M120.262 57.065L117.221 57.1839C116.685 57.1839 116.268 56.7675 116.208 56.2916C116.208 55.7562 116.625 55.3398 117.102 55.2803L120.142 55.1614C120.679 55.1614 121.096 55.5778 121.156 56.0537C121.156 56.5296 120.798 57.065 120.262 57.065Z" fill="#DDE7F6"/>
<path d="M122.527 60.9912L111.558 61.5266C111.022 61.5266 110.605 61.1102 110.545 60.6343C110.545 60.0989 110.962 59.6825 111.439 59.623L122.408 59.0876C122.944 59.0876 123.362 59.5041 123.421 59.98C123.421 60.5153 123.064 60.9912 122.527 60.9912Z" fill="#DDE7F6"/>
<path d="M119.725 65.2149L111.737 65.6313C111.201 65.6313 110.783 65.2149 110.724 64.739C110.724 64.2036 111.141 63.7872 111.618 63.7277L119.606 63.3113C120.142 63.3113 120.56 63.7277 120.619 64.2036C120.619 64.739 120.262 65.2149 119.725 65.2149Z" fill="#DDE7F6"/>
<path d="M98.5629 62.7759L98.3245 61.7646C97.9072 60.2774 96.5361 59.3256 94.8073 59.5041L79.3081 61.2887C77.3409 61.4672 75.8506 63.2518 75.8506 65.0959L76.7448 101.918C76.7448 103.227 77.8178 104.119 79.1889 104.001L134.628 97.5164C135.94 97.3974 137.013 96.1482 136.953 94.8395L136.178 63.0138C136.178 61.7051 135.105 60.8128 133.734 60.9318L101.603 64.6795C100.172 64.858 98.9206 64.0846 98.5629 62.7759Z" fill="#0064B7"/>
<path opacity="0.3" d="M98.5629 62.7759L98.3245 61.7646C97.9072 60.2774 96.5361 59.3256 94.8073 59.5041L79.3081 61.2887C77.3409 61.4672 75.8506 63.2518 75.8506 65.0959L76.7448 101.918C76.7448 103.227 77.8178 104.119 79.1889 104.001L134.628 97.5164C135.94 97.3974 137.013 96.1482 136.953 94.8395L136.178 63.0138C136.178 61.7051 135.105 60.8128 133.734 60.9318L101.603 64.6795C100.172 64.858 98.9206 64.0846 98.5629 62.7759Z" fill="#0064B7"/>
<path d="M115.443 31.5413L112.458 32.3762L113.295 35.3548L116.279 34.5199L115.443 31.5413Z" fill="#ED3B4E"/>
<path d="M130.158 51.0569L137.669 32.9133L134.867 28.8682L123.899 24.5256L115.493 44.9892L130.158 51.0569Z" fill="white"/>
<path d="M130.158 51.0569L137.669 32.9133L134.867 28.8682L123.899 24.5256L115.493 44.9892L130.158 51.0569Z" fill="#DDE7F6"/>
<path d="M137.669 32.9131L134.867 28.8679L134.688 32.6156L137.669 32.9131Z" fill="#007CFF"/>
<path d="M117.222 48.9748C119.888 48.9748 122.05 46.8175 122.05 44.1564C122.05 41.4952 119.888 39.3379 117.222 39.3379C114.555 39.3379 112.393 41.4952 112.393 44.1564C112.393 46.8175 114.555 48.9748 117.222 48.9748Z" fill="#0064B7"/>
<path d="M117.222 47.9041C119.296 47.9041 120.977 46.2262 120.977 44.1564C120.977 42.0866 119.296 40.4087 117.222 40.4087C115.148 40.4087 113.466 42.0866 113.466 44.1564C113.466 46.2262 115.148 47.9041 117.222 47.9041Z" fill="white"/>
<path d="M119.341 44.3953L117.984 43.7639L118.558 42.2715L117.567 41.6975L116.993 43.1899L115.584 42.6159L115.167 43.7065L116.575 44.2805L115.949 45.8303L116.941 46.2895L117.515 44.7971L118.976 45.4285L119.341 44.3953Z" fill="#0064B7"/>
<path d="M133.675 35.9471C133.377 36.661 132.661 36.9584 131.946 36.661L123.958 33.3892C123.243 33.0917 122.945 32.3779 123.243 31.664C123.541 30.9502 124.256 30.6528 124.971 30.9502L128.965 32.5861L132.959 34.222C133.675 34.5194 134.033 35.2928 133.675 35.9471Z" fill="white"/>
<path d="M129.86 38.3859C129.562 39.0998 128.846 39.3972 128.131 39.0998L122.587 36.7798C121.872 36.4824 121.574 35.7685 121.872 35.0547C122.17 34.3408 122.885 34.0434 123.6 34.3408L129.144 36.6608C129.8 37.0177 130.098 37.7911 129.86 38.3859Z" fill="white"/>
<path d="M103.323 185.725V143.635L54.2183 87.516V79.5774C54.2183 76.2132 56.9454 73.4861 60.3095 73.4861H160.366C163.73 73.4861 166.457 76.2132 166.457 79.5774V87.516L117.353 143.635V171.695L103.323 185.725Z" fill="#FCBE42"/>
<path d="M54.2183 76.5317C54.2183 74.8497 55.5818 73.4861 57.2639 73.4861H163.412C165.094 73.4861 166.457 74.8497 166.457 76.5317V80.167H54.2183V76.5317Z" fill="#FFB626"/>
<path d="M179.332 88.1918L183.333 136.193L177.679 136.887L166.545 64.148L169.242 63.9744L179.332 88.1918Z" fill="#DE051F"/>
<path d="M168.981 64.0612V65.5369C168.894 73.6093 182.028 100.778 182.637 101.993C183.333 103.382 201.426 130.29 201.426 130.29L204.992 126.818L189.509 95.0491C186.813 90.5355 185.856 80.9006 185.682 79.3382C185.769 79.0778 185.682 78.8174 185.682 78.7306C187.421 71.3525 182.985 66.3181 182.724 65.5369C182.463 64.4952 181.941 61.978 181.941 61.978L168.981 64.0612Z" fill="#EE384E"/>
<path d="M183.333 136.106L183.942 140.185L171.677 142.008C171.59 142.008 171.59 141.921 171.59 141.835C171.677 141.574 171.59 140.533 172.895 140.012C174.374 139.317 177.766 136.887 177.766 136.887L183.333 136.106Z" fill="#221D56"/>
<path d="M204.992 126.645C204.992 126.645 206.732 128.033 207.515 128.988C208.297 129.769 207.949 130.811 207.775 131.071L199.338 138.189C199.338 138.189 196.903 137.147 198.903 135.238C200.904 133.155 201.513 129.943 201.513 129.943L204.992 126.645Z" fill="#221D56"/>
<path d="M183.16 40.3647C184.899 41.6668 186.465 43.1424 187.944 44.7048C188.726 45.486 189.509 46.354 190.118 47.3088C190.814 48.2636 191.423 49.0448 192.032 50.1732C192.032 50.26 192.119 50.26 192.119 50.3468L192.206 50.5204C192.293 50.694 192.38 50.8676 192.38 51.128C192.467 51.3016 192.554 51.7356 192.554 52.0828C192.641 52.7773 192.728 53.2981 192.728 53.9057C192.728 55.0341 192.728 56.0757 192.641 57.2041C192.467 59.3741 192.032 61.3705 191.51 63.4538L189.335 63.1065C189.422 61.0233 189.422 59.0269 189.335 57.0305C189.335 55.9889 189.248 55.1209 189.161 54.1661C189.161 53.7321 189.074 53.2113 188.987 52.9509C188.9 52.8641 188.813 52.6037 188.813 52.5169C188.726 52.4301 188.726 52.3433 188.726 52.3433V52.2565L188.639 52.1697C188.205 51.3884 187.596 50.6072 186.9 49.9996C186.204 49.3052 185.595 48.6976 184.812 47.9164C183.247 46.7012 181.855 45.2256 180.289 44.0104L183.16 40.3647Z" fill="#FFBF99"/>
<path d="M175.94 42.9686C176.636 45.0519 182.811 48.6975 182.811 48.6975L187.161 43.4894C187.161 43.4894 183.507 39.9306 181.246 38.5418C179.071 37.0662 174.548 39.323 175.94 42.9686Z" fill="#003EB0"/>
<path d="M191.249 62.3252C192.815 63.1064 192.206 65.1896 192.206 65.1896L189.335 65.5368L189.944 62.4988L191.249 62.3252Z" fill="#FFBF99"/>
<path d="M189.248 65.4501L192.119 65.1897L192.988 66.5785L190.292 67.4465L189.248 65.4501Z" fill="#FFBF99"/>
<path d="M165.937 45.3125C163.588 46.0937 161.153 46.6145 158.543 47.1353C155.934 47.7429 153.498 47.9165 150.976 48.1769H150.541C150.367 48.1769 150.106 48.1769 149.845 48.1769C149.41 48.1769 149.062 48.0901 148.714 48.0901C148.018 48.0033 147.409 47.9165 146.626 47.6561C145.409 47.3089 144.017 46.7013 142.973 46.3541C140.712 45.2257 138.363 44.0973 136.275 42.7084L137.319 40.7988C139.494 41.58 141.842 42.5348 144.104 43.1425C145.148 43.5765 146.278 43.8369 147.409 44.0973C148.018 44.1841 148.54 44.2709 149.062 44.2709C149.236 44.2709 149.497 44.2709 149.758 44.2709H150.106H150.541C151.758 44.1841 152.889 43.9237 154.107 43.6633C155.325 43.4897 156.456 43.2292 157.673 42.9688C160.022 42.3612 162.37 41.8404 164.632 41.2328L165.937 45.3125Z" fill="#FFBF99"/>
<path d="M137.493 43.2306C135.406 44.2722 134.797 40.8869 134.797 40.8869L137.145 39.9321L137.841 42.1889L137.493 43.2306Z" fill="#FFBF99"/>
<path d="M137.406 39.9323L135.057 40.8871L133.405 38.7171L135.84 38.5435L137.406 39.9323Z" fill="#FFBF99"/>
<path d="M168.111 25.8689C171.069 26.5633 170.721 29.6881 171.591 32.8997C172.373 35.7642 173.939 37.8474 174.461 38.3682C174.461 38.3682 174.461 38.455 174.461 38.5418C174.374 38.7154 174.026 39.2362 173.504 40.191C172.721 41.493 169.503 42.361 168.72 42.0138C167.937 41.6666 166.894 39.2362 167.154 36.8926C167.502 34.549 165.502 35.6774 165.502 35.6774C163.327 36.285 162.196 34.7226 162.196 34.7226C159.935 32.6393 159.587 27.1709 159.587 26.0425C159.587 25.9557 159.674 25.8689 159.761 25.8689C160.892 25.6085 165.415 25.2613 168.111 25.8689Z" fill="#FFBE97"/>
<path d="M182.203 40.625C182.29 39.323 181.246 38.021 180.028 38.021C179.854 38.021 179.68 38.021 179.419 38.021C179.158 38.021 178.723 38.021 178.375 38.021C178.201 38.021 177.766 38.021 177.419 38.021C176.984 38.1078 176.462 38.1078 176.114 38.1078C176.027 38.1078 175.94 38.1078 175.679 38.1078C172.982 38.2814 170.721 38.5418 168.459 39.0626C167.154 39.4098 166.807 39.4098 165.763 39.757C165.676 39.757 165.676 39.757 165.589 39.757C163.501 40.4514 161.935 41.3194 161.935 41.3194C161.935 41.3194 160.109 41.927 166.285 64.2348C172.547 63.28 179.158 62.4988 182.203 62.0648C181.246 56.0755 180.724 52.1695 182.203 40.625Z" fill="#0064E1"/>
<path d="M171.938 34.7226C172.112 35.7642 174.2 38.2814 174.2 38.2814L178.201 39.9306L179.419 49.5655L178.984 55.468C178.984 55.468 179.593 57.204 181.333 57.204C183.072 57.204 184.377 56.8568 184.029 54.2528C183.681 51.6487 184.812 51.9091 185.682 47.3087C186.465 42.6215 183.072 41.493 181.768 40.7118C180.463 40.0174 178.984 36.5454 178.984 36.5454C178.375 31.7714 173.156 33.5942 173.156 33.5942C173.156 33.5942 171.938 33.8546 171.938 34.7226Z" fill="#180857"/>
<path d="M171.504 32.9866C171.417 33.3338 172.113 34.6359 172.113 34.6359C172.113 34.6359 174.374 33.4206 174.722 33.3338C174.809 33.247 174.026 32.2922 174.026 32.2922C174.026 32.2922 171.591 32.4658 171.504 32.9866Z" fill="#EA4E59"/>
<path d="M157.151 26.2162C157.238 26.6502 157.499 27.171 157.847 27.4314C158.63 28.473 159.587 27.3446 160.022 26.4766C160.109 26.303 160.631 26.0426 160.805 26.303C163.066 27.5182 166.372 26.9974 166.372 26.9974C169.416 26.2162 167.589 29.6014 167.589 29.6014C167.502 31.3375 168.894 33.1603 172.721 32.8999C176.375 32.7263 174.548 25.1746 174.461 24.9142C173.156 20.1402 168.285 18.6646 165.502 18.6646C163.153 18.6646 161.414 20.4006 160.892 20.9214C160.805 21.095 160.718 21.095 160.457 21.095C159.761 21.095 158.891 21.2686 158.369 21.7894C157.586 22.4838 157.238 23.5254 157.151 24.567C157.151 24.7406 157.151 25.1746 157.151 25.6086C157.151 25.6954 157.064 25.9558 157.151 26.2162Z" fill="#180857"/>
<path opacity="0.2" d="M161.848 45.486C161.935 46.2672 162.196 47.3088 162.457 48.524C163.24 49.1316 165.675 47.222 165.762 46.1804C165.414 44.184 163.066 45.486 161.848 45.486Z" fill="black"/>
<path d="M164.632 47.3957C162.805 48.4373 159.848 48.5241 159.848 48.5241L157.586 42.3612C159.674 41.4064 168.459 37.4136 168.372 41.146C168.285 43.75 166.633 46.2673 164.632 47.3957Z" fill="#0054A3"/>
<path d="M182.29 61.1099L165.937 63.3668C165.85 63.3668 165.763 63.4536 165.763 63.5404L165.937 64.8424C165.937 64.9292 166.024 64.9292 166.111 64.9292L182.811 62.6724C182.985 62.6724 182.985 62.5855 182.985 62.4987L182.29 61.1099C182.29 60.9363 182.116 60.9363 182.29 61.1099Z" fill="#007CFF"/>
<path opacity="0.3" d="M182.29 61.1099L165.937 63.3668C165.85 63.3668 165.763 63.4536 165.763 63.5404L165.937 64.8424C165.937 64.9292 166.024 64.9292 166.111 64.9292L182.811 62.6724C182.985 62.6724 182.985 62.5855 182.985 62.4987L182.29 61.1099C182.29 60.9363 182.116 60.9363 182.29 61.1099Z" fill="black"/>
<path d="M180.115 63.0197L179.68 61.1969C179.68 61.1101 179.68 61.1101 179.767 61.1101H180.202C180.289 61.1101 180.376 61.1969 180.376 61.1969L180.811 63.0197C180.811 63.1065 180.811 63.1065 180.724 63.1065H180.289C180.202 63.1933 180.115 63.1933 180.115 63.0197Z" fill="#1A2E35"/>
<path d="M169.242 64.582L168.807 62.7592C168.807 62.6724 168.807 62.6724 168.894 62.6724H169.329C169.416 62.6724 169.503 62.7592 169.503 62.7592L169.938 64.582C169.938 64.6688 169.938 64.6688 169.851 64.6688H169.416C169.329 64.6688 169.242 64.582 169.242 64.582Z" fill="#1A2E35"/>
<path d="M214.873 92.0697C214.58 92.5101 214.287 92.8771 213.92 93.2441L214.287 94.5653L212.16 95.6663L211.206 94.5653C210.693 94.7121 210.18 94.7121 209.666 94.7121L208.933 95.9599L206.659 95.2993L206.806 93.9047C206.366 93.6111 205.999 93.3175 205.633 92.9505L204.239 93.3175L203.139 91.2623L204.239 90.3081C204.092 89.7943 204.092 89.2805 204.092 88.7667L202.846 88.0327L203.506 85.7573L204.899 85.9041C205.193 85.4637 205.486 85.0967 205.853 84.7297L205.486 83.4085L207.539 82.3075L208.493 83.4085C209.006 83.2617 209.52 83.2617 210.033 83.2617L210.766 82.0139L213.04 82.6745L212.893 84.1425C213.333 84.4361 213.7 84.7297 214.067 85.0967L215.387 84.7297L216.487 86.7849L215.533 87.7391C215.753 88.2529 215.753 88.7667 215.753 89.2805L217 90.0145L216.34 92.2165L214.873 92.0697ZM212.453 89.7943C212.893 88.4731 212.086 87.0785 210.84 86.7115C209.52 86.2711 208.126 87.0785 207.759 88.3263C207.319 89.6475 208.126 91.0421 209.373 91.4091C210.62 91.8495 212.013 91.1155 212.453 89.7943Z" fill="#DE051F"/>
<path d="M68.0104 13.7372C67.6443 14.295 67.2782 14.7599 66.8206 15.2247L67.2782 16.8982L64.6239 18.2928L63.4341 16.8982C62.7934 17.0842 62.1527 17.0842 61.512 17.0842L60.5967 18.6647L57.7594 17.828L57.9425 16.0615C57.3933 15.6896 56.9357 15.3177 56.478 14.8529L54.739 15.3177L53.3661 12.7145L54.739 11.5059C54.556 10.8551 54.556 10.2042 54.556 9.55344L53 8.62372L53.8237 5.74158L55.5628 5.92753C55.9289 5.36969 56.295 4.90483 56.7526 4.43997L56.295 2.76647L58.8577 1.37189L60.0476 2.76647C60.6883 2.58053 61.329 2.58053 61.9696 2.58053L62.8849 1L65.7223 1.83675L65.5392 3.69619C66.0884 4.06808 66.546 4.43997 67.0036 4.90483L68.6511 4.43997L70.024 7.04319L68.8342 8.25183C69.1088 8.90264 69.1088 9.55344 69.1088 10.2042L70.6647 11.134L69.841 13.9231L68.0104 13.7372ZM64.99 10.8551C65.5392 9.18155 64.5324 7.41508 62.9764 6.95022C61.329 6.39239 59.5899 7.41508 59.1323 8.99561C58.5831 10.6691 59.5899 12.4356 61.1459 12.9004C62.7019 13.4583 64.4409 12.5286 64.99 10.8551Z" fill="#0064B7"/>
</svg>
