<svg width="320" height="300" viewBox="0 0 320 300" fill="none" xmlns="http://www.w3.org/2000/svg">
<g clip-path="url(#clip0_3707_5700)">
<path d="M193.436 114.784C164.476 107.024 147.282 77.2883 155.032 48.3669C162.781 19.4455 192.54 2.29063 221.499 10.0504C250.459 17.8101 267.653 47.546 259.904 76.4674C252.155 105.389 222.396 122.544 193.436 114.784Z" stroke="#DC051F" stroke-width="0.916522" stroke-miterlimit="10" stroke-dasharray="5.5 5.5"/>
<path d="M255.345 48.452C252.155 47.5971 250.26 44.3211 251.114 41.1348C251.968 37.9486 255.246 36.0586 258.437 36.9135C261.627 37.7684 263.522 41.0444 262.668 44.2307C261.814 47.4169 258.536 49.3069 255.345 48.452Z" fill="#003EAE"/>
<path d="M258.799 39.53L258.935 44.0549L255.238 41.9396L258.799 39.53Z" fill="white"/>
<path d="M81.4639 31.4432C79.9398 37.0434 71.0889 39.0043 85.0537 49.2551C99.008 59.6727 78.0445 59.3711 92.0533 76.9949C106.062 94.6187 120.311 76.0761 125.469 63.3322C130.628 50.5883 115.267 51.9758 110.029 44.4466C104.791 36.9173 112.095 35.5301 112.856 28.7097C113.606 22.0563 100.313 19.8876 95.443 19.9191C90.7404 19.9609 92.8605 15.5704 89.1387 10.6483C85.4169 5.72611 74.9043 7.41593 72.3146 13.9548C69.7248 20.4936 77.5429 24.331 77.5429 24.331C77.5429 24.331 82.8208 25.8325 81.4639 31.4432Z" fill="#EE384E"/>
<path d="M127.838 87.2662C127.838 87.2662 122.581 85.431 110.391 68.2555C98.18 51.4138 91.3284 29.3784 91.3284 29.3784" stroke="white" stroke-width="0.916522" stroke-miterlimit="10" stroke-linecap="round" stroke-linejoin="round"/>
<path d="M60.1475 39.4951C80.175 54.814 98.504 86.6101 98.504 86.6101" stroke="#FABC42" stroke-width="0.916522" stroke-miterlimit="10"/>
<path d="M62.2277 41.1324C50.4087 42.2383 46.1941 31.7577 46.1941 31.7577C59.9676 31.6112 62.2277 41.1324 62.2277 41.1324Z" stroke="#FABC42" stroke-width="0.916522" stroke-miterlimit="10"/>
<path d="M58.6059 56.1499C69.1064 49.2666 77.0717 56.1284 77.0717 56.1284C63.6454 64.1693 58.6059 56.1499 58.6059 56.1499Z" stroke="#FABC42" stroke-width="0.916522" stroke-miterlimit="10"/>
<path d="M73.3875 72.1464C84.9233 67.5053 91.4677 75.6185 91.4677 75.6185C76.8597 81.0732 73.3875 72.1464 73.3875 72.1464Z" stroke="#FABC42" stroke-width="0.916522" stroke-miterlimit="10"/>
<path d="M93.7823 57.3368C86.125 67.0774 91.9694 75.6495 91.9694 75.6495C101.141 63.1557 93.4478 57.316 93.7823 57.3368Z" stroke="#FABC42" stroke-width="0.916522" stroke-miterlimit="10"/>
<path d="M76.2093 37.6485C69.8377 48.3068 76.7373 56.1071 76.7373 56.1071C84.4665 42.5184 76.2093 37.6485 76.2093 37.6485Z" stroke="#FABC42" stroke-width="0.916522" stroke-miterlimit="10"/>
<path d="M224.617 284.123H88.0898C86.5804 284.123 85.3691 282.905 85.3691 281.407V42.0413C85.3691 40.5347 86.5897 39.3257 88.0898 39.3257H224.617C226.126 39.3257 227.337 40.544 227.337 42.0413V281.398C227.347 282.905 226.126 284.123 224.617 284.123Z" fill="#004C8A"/>
<path d="M218.122 276.636H94.5839C93.0745 276.636 91.8633 275.418 91.8633 273.921V49.658C91.8633 48.1514 93.0839 46.9424 94.5839 46.9424H218.122C219.632 46.9424 220.843 48.1607 220.843 49.658V273.921C220.843 275.418 219.622 276.636 218.122 276.636Z" fill="#DBE9F8"/>
<path d="M176.038 44.8248H137.676C137.389 44.8248 137.15 44.6525 137.15 44.4389V42.0752H176.56V44.4389C176.565 44.6525 176.325 44.8248 176.038 44.8248Z" fill="white"/>
<path d="M216.604 271.521H95.9443C94.4349 271.521 93.2236 270.303 93.2236 268.806V56.0101C93.2236 54.5034 94.4442 53.2944 95.9443 53.2944H216.604C218.113 53.2944 219.324 54.5127 219.324 56.0101V268.806C219.324 270.303 218.104 271.521 216.604 271.521Z" fill="white"/>
<rect x="108.737" y="129.145" width="101.734" height="8.2487" fill="#DBE9F8"/>
<rect x="108.737" y="178.637" width="101.734" height="8.2487" fill="#DBE9F8"/>
<rect x="108.737" y="146.558" width="65.0731" height="2.74957" fill="#DBE9F8"/>
<rect x="108.737" y="196.05" width="65.0731" height="2.74957" fill="#DBE9F8"/>
<rect x="108.737" y="156.64" width="33.9113" height="2.74957" fill="#DBE9F8"/>
<rect x="108.737" y="206.132" width="33.9113" height="2.74957" fill="#DBE9F8"/>
<path opacity="0.6" d="M153.311 254.269C129.002 254.269 106.138 244.82 88.947 227.662C71.7566 210.503 62.2902 187.69 62.2902 163.417C62.2902 139.143 71.7566 116.33 88.9564 99.1716C106.156 82.0129 129.002 72.564 153.32 72.564C177.639 72.564 200.494 82.0129 217.685 99.1716C234.875 116.33 244.341 139.143 244.341 163.417C244.341 187.69 234.875 210.503 217.685 227.662C200.485 244.82 177.629 254.269 153.311 254.269ZM153.311 75.6702C104.842 75.6702 65.4115 115.028 65.4115 163.407C65.4115 211.787 104.842 251.145 153.311 251.145C201.78 251.145 241.211 211.787 241.211 163.407C241.211 115.028 201.78 75.6702 153.311 75.6702Z" fill="#2A2A2A"/>
<path d="M84.3218 192.461C94.5063 182.296 94.5063 165.814 84.3218 155.648C74.1373 145.483 57.6251 145.483 47.4406 155.648C37.2561 165.814 37.2561 182.296 47.4406 192.461C57.6251 202.627 74.1373 202.627 84.3218 192.461Z" fill="#0064B5"/>
<path d="M61.7002 177.736C64.7936 175.03 69.5175 175.337 72.2381 178.424C72.4058 178.62 72.5642 178.815 72.704 179.02C72.8996 179.289 73.291 179.317 73.5146 179.066L74.2227 178.229C74.3811 178.043 74.3811 177.783 74.2413 177.587C74.1016 177.411 73.9618 177.225 73.8127 177.057C70.3374 173.105 64.2904 172.714 60.3399 176.183C60.0417 176.443 59.7622 176.722 59.5013 177.011C59.3057 177.225 59.3336 177.559 59.5572 177.745L60.3865 178.415C60.6008 178.582 60.8989 178.564 61.0853 178.359C61.2716 178.136 61.4766 177.931 61.7002 177.736Z" fill="white"/>
<path d="M58.1504 173.691C63.4706 169.022 71.6046 169.552 76.2819 174.872C76.4869 175.104 76.8503 175.104 77.0459 174.872L77.7447 174.054C77.7447 173.802 77.7447 173.635 77.7354 173.384C72.2848 167.32 62.9209 166.744 56.7714 172.128C56.231 172.603 55.7465 173.105 55.29 173.626C55.1036 173.84 55.1409 174.165 55.3645 174.342L56.1938 175.011C56.408 175.179 56.7155 175.16 56.8925 174.956C57.2839 174.519 57.7032 174.091 58.1504 173.691Z" fill="white"/>
<path d="M54.6006 169.654C61.9613 163.209 73.0955 163.758 79.7946 170.752C80.0089 170.975 80.3537 170.966 80.5493 170.733L81.2388 169.915C81.4065 169.719 81.3972 169.422 81.2202 169.236C73.7477 161.507 61.3929 160.922 53.2216 168.083C52.4576 168.752 51.7495 169.478 51.1159 170.231C50.9295 170.445 50.9668 170.77 51.1904 170.947L52.0197 171.617C52.234 171.793 52.5508 171.756 52.7278 171.542C53.2961 170.891 53.9204 170.25 54.6006 169.654Z" fill="white"/>
<path d="M66.8901 185.381C68.8146 185.381 70.3748 183.824 70.3748 181.903C70.3748 179.982 68.8146 178.424 66.8901 178.424C64.9655 178.424 63.4054 179.982 63.4054 181.903C63.4054 183.824 64.9655 185.381 66.8901 185.381Z" fill="white"/>
<path d="M148.478 99.1282C158.663 88.9626 158.663 72.4808 148.478 62.3152C138.294 52.1495 121.782 52.1495 111.597 62.3152C101.413 72.4808 101.413 88.9626 111.597 99.1282C121.782 109.294 138.294 109.294 148.478 99.1282Z" fill="#0064B5"/>
<path d="M138.978 75.467C138.994 75.0893 138.962 74.9124 138.962 74.9124H138.946C138.6 70.548 134.944 67.1079 130.483 67.1079C126.022 67.1079 122.366 70.548 122.02 74.9124H121.987C121.987 74.9124 121.947 75.1777 121.995 75.7564C122.012 76.6245 122.165 77.4604 122.422 78.2481C123.099 81.005 124.782 85.6185 128.888 92.6032C129.219 93.1659 129.822 93.5517 130.475 93.5517C131.127 93.5517 131.731 93.1418 132.061 92.5791C136.103 85.707 137.794 81.1416 138.487 78.3686C138.793 77.4925 138.962 76.5521 138.962 75.5715C138.978 75.5394 138.978 75.4992 138.978 75.467Z" fill="white"/>
<path opacity="0.8" d="M130.515 80.4422C133.223 80.4422 135.419 78.2506 135.419 75.5473C135.419 72.8439 133.223 70.6523 130.515 70.6523C127.807 70.6523 125.611 72.8439 125.611 75.5473C125.611 78.2506 127.807 80.4422 130.515 80.4422Z" fill="#0064B5"/>
<path d="M218.134 105.391C228.318 95.2257 228.318 78.744 218.134 68.5784C207.949 58.4127 191.437 58.4127 181.253 68.5783C171.068 78.744 171.068 95.2257 181.253 105.391C191.437 115.557 207.949 115.557 218.134 105.391Z" fill="#0064B5"/>
<path d="M203.262 85.915H196.57V95.1761H203.262V85.915Z" fill="#0064B5"/>
<path d="M195.354 82.3812C195.475 79.8222 197.544 77.8725 199.977 77.8725C202.533 77.8725 204.601 79.9441 204.601 82.3812H207.278C207.156 78.3599 203.871 75.0698 199.856 75.0698C195.841 75.0698 192.555 78.3599 192.434 82.3812H195.354Z" fill="white"/>
<path d="M208.737 81.8936H191.338C190.243 81.8936 189.391 82.7465 189.391 83.8432V97.0037C189.391 98.1004 190.243 98.9534 191.338 98.9534H208.737C209.832 98.9534 210.684 98.1004 210.684 97.0037V83.8432C210.806 82.7465 209.954 81.8936 208.737 81.8936ZM201.68 94.201H198.517L198.882 91.1546C198.395 90.789 198.03 90.1798 198.03 89.4486C198.03 88.3519 199.004 87.3771 200.099 87.3771C201.194 87.3771 202.167 88.3519 202.167 89.4486C202.167 90.1798 201.802 90.789 201.315 91.1546L201.68 94.201Z" fill="white"/>
<path d="M258.793 162.323C270.05 151.086 270.05 132.867 258.793 121.63C247.535 110.393 229.282 110.393 218.024 121.63C206.766 132.867 206.766 151.086 218.024 162.323C229.282 173.56 247.535 173.56 258.793 162.323Z" fill="#0064B5"/>
<path d="M249.13 153.101H229.145C226.937 153.101 225.136 151.303 225.136 149.099V135.954C225.136 133.75 226.937 131.952 229.145 131.952H249.122C251.33 131.952 253.132 133.75 253.132 135.954V149.099C253.139 151.303 251.338 153.101 249.13 153.101ZM229.145 133.834C227.98 133.834 227.029 134.783 227.029 135.946V149.092C227.029 150.255 227.98 151.203 229.145 151.203H249.122C250.288 151.203 251.238 150.255 251.238 149.092V135.946C251.238 134.783 250.288 133.834 249.122 133.834H229.145Z" fill="white"/>
<path d="M249.352 131.386C249.352 132.113 248.762 132.71 248.026 132.71H244.622C243.894 132.71 243.296 132.12 243.296 131.386C243.296 130.659 243.887 130.062 244.622 130.062H248.026C248.762 130.062 249.352 130.651 249.352 131.386Z" fill="white"/>
<path d="M248.218 137.713C248.218 138.287 247.758 138.746 247.183 138.746H243.58C243.005 138.746 242.545 138.287 242.545 137.713V137.514C242.545 136.941 243.005 136.481 243.58 136.481H247.183C247.758 136.481 248.218 136.941 248.218 137.514V137.713Z" fill="white"/>
<path d="M236.543 148.946H236.067C232.756 148.946 230.065 146.261 230.065 142.955V142.481C230.065 139.175 232.756 136.489 236.067 136.489H236.543C239.854 136.489 242.545 139.175 242.545 142.481V142.955C242.545 146.261 239.847 148.946 236.543 148.946ZM236.06 138.372C233.791 138.372 231.951 140.216 231.951 142.473V142.947C231.951 145.212 233.798 147.049 236.06 147.049H236.535C238.804 147.049 240.644 145.205 240.644 142.947V142.473C240.644 140.208 238.796 138.372 236.535 138.372H236.06Z" fill="white"/>
<path d="M94.8073 133.053C104.992 122.888 104.992 106.406 94.8073 96.2405C84.6228 86.0748 68.1105 86.0748 57.9261 96.2405C47.7416 106.406 47.7416 122.888 57.9261 133.053C68.1105 143.219 84.6228 143.219 94.8073 133.053Z" fill="#0064B5"/>
<path d="M86.6356 124.97H66.0996C64.5228 124.97 63.2374 123.687 63.2374 122.114V107.18C63.2374 105.606 64.5228 104.323 66.0996 104.323H86.6282C88.205 104.323 89.4904 105.606 89.4904 107.18V122.114C89.4978 123.687 88.2125 124.97 86.6356 124.97ZM66.0996 106.307C65.6139 106.307 65.2253 106.703 65.2253 107.18V122.114C65.2253 122.598 65.6213 122.986 66.0996 122.986H86.6282C87.1139 122.986 87.5025 122.591 87.5025 122.114V107.18C87.5025 106.695 87.1064 106.307 86.6282 106.307H66.0996Z" fill="white"/>
<path d="M76.375 115.214C76.1732 115.214 75.9715 115.154 75.7996 115.027L64.2985 106.897C63.8501 106.576 63.7455 105.957 64.0594 105.509C64.3807 105.062 65.001 104.957 65.4494 105.271L76.375 112.998L87.1512 105.353C87.5996 105.032 88.2198 105.136 88.5412 105.584C88.8625 106.032 88.7504 106.651 88.3095 106.971L76.9504 115.035C76.7785 115.154 76.5768 115.214 76.375 115.214Z" fill="white"/>
<path d="M65.0309 124.516L64.7395 122.554L64.874 123.539L64.037 123.001C64.2537 122.651 68.4013 115.415 71.1289 110.641C71.398 110.164 72.0108 110 72.489 110.268C72.9673 110.537 73.1317 111.149 72.8627 111.626C72.8627 111.626 71.0916 114.729 69.313 117.832C68.4237 119.384 67.5344 120.935 66.8618 122.099C65.5092 124.441 65.5092 124.441 65.0309 124.516Z" fill="white"/>
<path d="M87.6446 124.516C87.1663 124.441 87.1663 124.441 85.8137 122.091C85.1411 120.928 84.2518 119.376 83.3625 117.825C81.5839 114.722 79.8128 111.619 79.8128 111.619C79.5437 111.141 79.7082 110.537 80.1864 110.261C80.6647 109.985 81.27 110.157 81.5465 110.634C84.2817 115.408 88.4218 122.643 88.6385 122.994L87.8015 123.531L87.6446 124.516Z" fill="white"/>
<path d="M177.434 147.785C177.185 148.406 176.687 149.028 176.188 149.65C175.939 150.271 175.441 151.017 174.942 151.639C174.195 153.007 173.447 154.499 172.7 155.866C171.329 158.602 170.083 161.461 169.211 164.321L168.962 165.44C168.962 165.44 168.962 165.44 168.962 165.316V165.191C168.962 165.191 168.962 165.067 168.838 164.943C168.838 164.818 168.713 164.694 168.713 164.694C168.588 164.445 168.464 164.197 168.09 164.072C167.592 163.824 167.467 163.824 167.592 163.948C167.716 164.072 168.215 164.072 168.838 164.072C169.46 164.072 170.208 164.072 171.08 163.948C174.07 163.451 177.31 162.705 180.425 161.959L182.293 165.937C180.798 166.932 179.179 167.802 177.559 168.424C176.064 169.17 174.32 169.916 172.575 170.413C171.579 170.662 170.706 171.035 169.834 171.159C169.336 171.284 168.713 171.284 168.09 171.284C167.467 171.284 166.844 171.284 166.096 171.159C165.349 171.035 164.352 170.911 163.355 169.916C162.857 169.667 162.483 168.921 161.985 168.424C161.86 168.175 161.736 167.802 161.487 167.429C161.362 167.181 161.362 166.808 161.237 166.435V165.937V165.689C161.237 165.44 161.237 165.191 161.237 164.943C161.237 164.694 161.237 164.445 161.237 164.321V164.072V163.948L161.487 162.58C161.736 160.715 162.483 158.85 162.982 157.11C163.605 155.369 164.228 153.753 164.975 152.136C165.723 150.52 166.47 148.904 167.467 147.412C167.965 146.666 168.464 145.92 168.838 145.049C169.211 144.179 169.834 143.557 170.333 142.687L177.434 147.785Z" fill="#FFBE9D"/>
<path d="M179.179 148.655C178.556 150.023 178.057 151.39 177.434 152.634C176.438 154.872 175.441 156.612 174.693 158.104C174.07 159.348 173.572 159.969 173.572 159.969L162.359 154.374C162.359 154.374 166.844 141.319 171.579 139.952C176.562 138.584 181.67 142.438 179.179 148.655Z" fill="#0054A3"/>
<path d="M183.664 180.733C183.664 180.733 179.677 216.416 177.06 229.347C174.195 243.645 155.132 289.524 155.132 289.524L145.913 287.535C150.522 271.62 157.126 242.029 161.362 230.715C164.477 213.557 160.988 191.923 165.598 178.619L183.664 180.733Z" fill="#EE384E"/>
<path d="M193.133 181.852C193.133 181.852 195.625 219.898 195.998 233.699C196.372 248.121 192.759 290.892 192.759 290.892H183.913C183.913 290.892 180.175 251.23 181.92 231.958C179.677 217.287 174.818 179.614 174.818 179.614L193.133 181.852Z" fill="#EE384E"/>
<path d="M154.634 289.152L146.162 287.163C145.913 287.038 145.663 287.163 145.539 287.66L142.798 293.504C142.424 294.001 142.798 294.623 143.421 294.996H143.545C146.411 295.493 148.404 295.99 152.018 296.612C154.26 296.985 160.739 298.726 163.605 299.472C166.595 300.218 167.592 297.358 166.346 296.861C161.237 294.374 157.375 291.887 156.005 289.898C155.631 289.774 155.257 289.525 154.634 289.152Z" fill="#170856"/>
<path d="M192.634 291.017H183.913C183.539 291.017 183.415 291.141 183.415 291.638L182.169 297.855C182.169 298.477 182.418 298.974 183.041 299.098H183.165C186.031 298.974 188.025 298.974 191.762 298.85C194.005 298.725 200.857 298.974 203.723 298.85C206.589 298.725 207.087 295.866 205.717 295.617C200.11 294.498 195.874 293.006 194.005 291.39C193.507 291.141 193.008 291.017 192.634 291.017Z" fill="#170856"/>
<path d="M201.48 117.82C201.48 117.82 199.861 132.491 196.497 136.097C194.628 139.081 188.648 136.097 188.648 136.097L187.152 141.941L179.428 139.205L185.906 116.204L201.48 117.82Z" fill="#FFBE9D"/>
<path d="M180.175 133.362C180.798 134.481 182.169 134.978 183.415 134.978C185.284 134.854 187.152 133.735 188.648 133.113C189.021 132.989 189.27 132.74 189.52 132.616C190.392 132.118 192.136 131.497 192.385 130.005C192.385 129.134 191.887 128.513 191.762 127.642C191.638 126.896 192.011 126.026 192.759 125.902C194.005 125.404 195.002 126.648 194.752 127.642C194.628 128.015 194.503 128.513 194.752 128.637C195.126 128.761 195.375 128.513 195.625 128.264C195.998 127.518 196.248 126.648 196.497 125.777C196.621 124.907 197.12 124.037 197.992 123.539C198.49 123.166 199.113 123.291 199.736 123.291C200.11 123.291 200.235 123.291 200.484 123.291C202.228 123.291 203.848 122.172 204.346 120.431C204.844 118.69 203.723 117.074 203.723 117.074C203.723 117.074 203.972 114.463 200.982 113.966C197.618 113.593 197.244 114.712 193.008 112.971C190.018 111.728 186.654 114.463 186.654 114.463C184.038 113.717 182.792 115.333 182.792 115.333C181.421 116.204 180.923 118.069 180.674 119.685C180.424 121.426 180.674 123.042 180.424 124.658C180.3 126.275 179.926 127.767 179.677 129.259C179.428 130.875 179.428 132.491 180.175 133.859" fill="#170856"/>
<path d="M176.064 142.065C175.939 140.449 176.064 137.838 177.31 137.465C178.556 137.092 186.405 137.589 190.392 140.697C189.021 143.184 189.146 145.671 189.146 145.671L176.064 142.065Z" fill="#0054A3"/>
<path opacity="0.2" d="M174.693 147.163L168.837 157.234L169.336 157.607C169.336 157.607 171.578 155.369 174.195 152.26L174.693 147.163Z" fill="black"/>
<path d="M197.494 163.326C196.497 168.299 195.002 174.516 193.133 182.1L165.723 178.743C165.972 175.262 169.959 159.969 168.962 143.557C168.838 141.319 170.956 139.454 173.572 139.454C174.818 139.454 176.438 139.578 177.808 139.703C181.297 139.951 186.405 140.449 189.395 141.195C193.631 141.941 197.12 143.433 197.12 143.433C197.12 143.433 199.113 145.795 198.117 156.488C197.743 158.353 197.618 160.591 197.494 163.326Z" fill="#0083F9"/>
<path opacity="0.6" d="M197.494 163.326C196.497 168.299 195.002 174.516 193.133 182.1L165.723 178.743C165.972 175.262 169.959 159.969 168.962 143.557C168.838 141.319 170.956 139.454 173.572 139.454C174.818 139.454 176.438 139.578 177.808 139.703C181.297 139.951 186.405 140.449 189.395 141.195C193.631 141.941 197.12 143.433 197.12 143.433C197.12 143.433 199.113 145.795 198.117 156.488C197.743 158.353 197.618 160.591 197.494 163.326Z" fill="#0083F9"/>
<path d="M199.612 147.784C199.861 148.282 200.235 148.903 200.733 149.649C201.231 150.271 201.73 150.893 202.103 151.639C203.1 152.882 203.972 154.25 205.094 155.617C207.087 158.104 209.33 160.591 211.572 162.829C212.195 163.326 212.694 163.823 213.317 164.196L213.441 164.445H213.566C213.441 164.445 213.317 164.445 213.317 164.321C213.067 164.321 212.694 164.321 212.694 164.321C212.569 164.445 212.943 164.321 213.441 164.072C213.94 163.823 214.563 163.326 214.936 162.829C217.179 160.839 219.172 157.98 221.166 155.369L225.028 157.234C224.405 159.099 223.782 160.715 223.035 162.331C222.786 163.202 222.287 164.072 221.789 164.818C221.29 165.564 220.792 166.559 220.294 167.305C219.795 168.051 219.048 168.797 218.051 169.791C217.553 170.04 217.054 170.537 216.556 171.035C215.933 171.283 215.31 171.781 214.313 172.029C213.317 172.278 212.32 172.278 211.199 172.029C210.576 171.905 210.077 171.781 209.703 171.408L209.579 171.283L209.081 170.786L208.831 170.662C207.959 170.04 207.087 169.543 206.34 168.921C203.225 166.434 200.608 163.823 198.241 160.964C196.995 159.596 195.874 158.104 194.877 156.612C194.254 155.866 193.756 155.12 193.382 154.25C192.884 153.504 192.385 152.758 191.887 151.514L199.612 147.784Z" fill="#FFBE9D"/>
<path d="M221.041 154.995L224.031 150.644L227.645 155.866C227.645 155.866 224.904 158.352 222.412 158.104L221.041 154.995Z" fill="#FFBE9D"/>
<path d="M229.763 148.53L230.635 153.503L227.645 155.865L224.031 150.643L229.763 148.53Z" fill="#FFBE9D"/>
<path d="M188.274 148.282C188.398 153.255 198.49 164.445 198.49 164.445L209.205 157.482C209.205 157.482 205.717 151.141 201.48 146.541C194.753 139.578 187.9 142.314 188.274 148.282Z" fill="#0054A3"/>
<path d="M243.675 240.392C243.675 240.392 246.633 239.187 246.415 235.797C246.196 232.407 244.445 230.004 248.06 230.983C251.675 231.97 252.891 232.407 255.518 231.856C258.144 231.306 260.325 230.214 259.182 233.604C258.039 236.994 256.79 239.834 259.498 240.384C262.197 240.934 265.099 238.887 265.448 244.195C265.796 249.503 261.508 255.474 254.569 255.692C247.631 255.911 244.566 253.038 244.566 253.038C244.566 253.038 242.702 250.417 245.604 249.778C248.506 249.13 251.465 247.909 249.981 246.549C248.506 245.198 243.683 245.085 243.683 245.085C243.683 245.085 237.652 243.888 243.675 240.392Z" fill="#649EEA"/>
<path d="M275.385 241.266C274.899 237.884 275.272 235.449 281.57 234.526C287.868 233.604 291.54 237.382 291.921 241.266C292.302 245.149 286.831 246.557 286.831 246.557C286.831 246.557 282.94 247.666 284.918 251.056C286.896 254.446 287.787 257.723 283.313 258.216C278.838 258.71 273.942 257.528 271.218 255.716C268.495 253.904 265.698 249.308 268.819 246.905C268.819 246.905 269.695 246.306 272.71 246.137C275.709 245.967 275.385 241.266 275.385 241.266Z" fill="#023EA1"/>
<path d="M253.223 240.715C253.223 240.715 258.452 252.52 259.165 260.554" stroke="#023EA1" stroke-width="1.19064" stroke-miterlimit="10"/>
<path d="M282.3 242.658C282.3 242.658 273.042 256.38 270.854 260.967" stroke="#649EEA" stroke-width="1.19064" stroke-miterlimit="10"/>
<path d="M255.938 259.632H277.184C277.184 259.632 279.511 259.794 279.316 262.965C279.138 265.886 275.425 265.255 273.512 265.255C271.599 265.255 255.476 265.255 255.476 265.255C255.476 265.255 252.866 265.7 252.866 262.747C252.866 259.794 253.855 259.632 255.938 259.632Z" fill="#0054A5"/>
<path d="M255.485 265.255L258.703 283.994H272.97L275.385 269.932L255.509 265.255H255.485Z" fill="#0054A5"/>
<path d="M255.509 265.255L275.385 269.932L276.188 265.255H255.509Z" fill="#006AD5"/>
<path d="M264.645 260.344C264.645 260.344 265.723 239.55 271.932 226.508" stroke="#FCBE42" stroke-width="1.19064" stroke-miterlimit="10"/>
<path d="M277.039 219C277.039 219 277.55 225.384 271.308 227.876C271.308 227.876 269.963 222.422 277.039 219Z" fill="#FCBE42"/>
<path d="M267.677 239.316C267.677 239.316 269.979 233.871 277.048 234.599C277.056 234.599 276.505 240.02 267.677 239.316Z" fill="#FCBE42"/>
<path d="M265.35 253.014C265.35 253.014 266.542 247.221 273.619 246.557C273.619 246.557 274.146 251.986 265.35 253.014Z" fill="#FCBE42"/>
<path d="M265.107 253.046C265.107 253.046 265.926 247.196 259.482 244.203C259.482 244.203 257.172 249.146 265.107 253.046Z" fill="#FCBE42"/>
<path d="M267.758 239.276C267.758 239.276 269.322 233.572 263.307 229.785C263.299 229.785 260.381 234.397 267.758 239.276Z" fill="#FCBE42"/>
</g>
<defs>
<clipPath id="clip0_3707_5700">
<rect width="320" height="300" fill="white"/>
</clipPath>
</defs>
</svg>
