<svg width="340" height="270" viewBox="0 0 340 270" fill="none" xmlns="http://www.w3.org/2000/svg">
<g clip-path="url(#clip0_3375_3177)">
<path d="M203.436 101.784C174.476 94.024 157.282 64.2881 165.032 35.3667C172.781 6.44531 202.54 -10.7096 231.499 -2.94989C260.459 4.80984 277.653 34.5458 269.904 63.4672C262.154 92.3885 232.396 109.543 203.436 101.784Z" stroke="#DC051F" stroke-width="0.916522" stroke-miterlimit="10" stroke-dasharray="5.5 5.5"/>
<path d="M265.345 35.4517C262.155 34.5968 260.261 31.3208 261.114 28.1346C261.968 24.9483 265.247 23.0584 268.437 23.9133C271.627 24.7682 273.522 28.0442 272.668 31.2304C271.814 34.4167 268.536 36.3066 265.345 35.4517Z" fill="#003EAE"/>
<path d="M268.798 26.53L268.935 31.0549L265.238 28.9396L268.798 26.53Z" fill="white"/>
<path d="M91.4636 18.4432C89.9396 24.0434 81.0887 26.0043 95.0534 36.2551C109.008 46.6727 88.0442 46.3711 102.053 63.9949C116.062 81.6187 130.311 63.0761 135.469 50.3322C140.628 37.5883 125.266 38.9758 120.028 31.4466C114.791 23.9173 122.095 22.5301 122.856 15.7097C123.606 9.05626 110.313 6.88759 105.443 6.91906C100.74 6.96094 102.86 2.57044 99.1385 -2.35173C95.4166 -7.27389 84.9041 -5.58407 82.3143 0.954756C79.7246 7.49358 87.5426 11.331 87.5426 11.331C87.5426 11.331 92.8205 12.8325 91.4636 18.4432Z" fill="#EE384E"/>
<path d="M137.838 74.266C137.838 74.266 132.581 72.4307 120.391 55.2553C108.18 38.4135 101.328 16.3782 101.328 16.3782" stroke="white" stroke-width="0.916522" stroke-miterlimit="10" stroke-linecap="round" stroke-linejoin="round"/>
<path d="M70.1475 26.4949C90.175 41.8137 108.504 73.6099 108.504 73.6099" stroke="#FABC42" stroke-width="0.916522" stroke-miterlimit="10"/>
<path d="M72.2277 28.1322C60.4087 29.238 56.1941 18.7574 56.1941 18.7574C69.9676 18.6109 72.2277 28.1322 72.2277 28.1322Z" stroke="#FABC42" stroke-width="0.916522" stroke-miterlimit="10"/>
<path d="M68.6058 43.1494C79.1063 36.2661 87.0716 43.1279 87.0716 43.1279C73.6452 51.1688 68.6058 43.1494 68.6058 43.1494Z" stroke="#FABC42" stroke-width="0.916522" stroke-miterlimit="10"/>
<path d="M83.3876 59.1462C94.9235 54.505 101.468 62.6182 101.468 62.6182C86.8598 68.0729 83.3876 59.1462 83.3876 59.1462Z" stroke="#FABC42" stroke-width="0.916522" stroke-miterlimit="10"/>
<path d="M103.782 44.3368C96.1249 54.0774 101.969 62.6495 101.969 62.6495C111.141 50.1557 103.448 44.316 103.782 44.3368Z" stroke="#FABC42" stroke-width="0.916522" stroke-miterlimit="10"/>
<path d="M86.2095 24.6483C79.838 35.3065 86.7375 43.1069 86.7375 43.1069C94.4668 29.5181 86.2095 24.6483 86.2095 24.6483Z" stroke="#FABC42" stroke-width="0.916522" stroke-miterlimit="10"/>
<path d="M234.617 271.123H98.0898C96.5804 271.123 95.3691 269.905 95.3691 268.407V29.0413C95.3691 27.5347 96.5897 26.3257 98.0898 26.3257H234.617C236.126 26.3257 237.337 27.544 237.337 29.0413V268.398C237.347 269.905 236.126 271.123 234.617 271.123Z" fill="#004C8A"/>
<path d="M228.122 263.637H104.584C103.075 263.637 101.863 262.418 101.863 260.921V36.6583C101.863 35.1516 103.084 33.9426 104.584 33.9426H228.122C229.632 33.9426 230.843 35.1609 230.843 36.6583V260.921C230.843 262.418 229.622 263.637 228.122 263.637Z" fill="#DBE9F8"/>
<path d="M186.038 31.8248H147.676C147.389 31.8248 147.149 31.6525 147.149 31.4389V29.0752H186.56V31.4389C186.564 31.6525 186.325 31.8248 186.038 31.8248Z" fill="white"/>
<path d="M226.604 258.521H105.944C104.435 258.521 103.224 257.303 103.224 255.806V43.0101C103.224 41.5034 104.444 40.2944 105.944 40.2944H226.604C228.113 40.2944 229.324 41.5127 229.324 43.0101V255.806C229.324 257.303 228.104 258.521 226.604 258.521Z" fill="white"/>
<rect x="118.737" y="116.145" width="101.734" height="8.2487" fill="#DBE9F8"/>
<rect x="118.737" y="165.636" width="101.734" height="8.2487" fill="#DBE9F8"/>
<rect x="118.737" y="133.558" width="65.0731" height="2.74957" fill="#DBE9F8"/>
<rect x="118.737" y="183.051" width="65.0731" height="2.74957" fill="#DBE9F8"/>
<rect x="118.737" y="143.64" width="33.9113" height="2.74957" fill="#DBE9F8"/>
<rect x="118.737" y="193.132" width="33.9113" height="2.74957" fill="#DBE9F8"/>
<path opacity="0.6" d="M163.311 241.27C139.002 241.27 116.137 231.821 98.9469 214.662C81.7564 197.503 72.29 174.69 72.29 150.417C72.29 126.144 81.7564 103.331 98.9562 86.1718C116.156 69.0131 139.002 59.5642 163.32 59.5642C187.639 59.5642 210.494 69.0131 227.684 86.1718C244.875 103.331 254.341 126.144 254.341 150.417C254.341 174.69 244.875 197.503 227.684 214.662C210.485 231.821 187.629 241.27 163.311 241.27ZM163.311 62.6704C114.842 62.6704 75.4113 102.028 75.4113 150.408C75.4113 198.787 114.842 238.145 163.311 238.145C211.78 238.145 251.211 198.787 251.211 150.408C251.211 102.028 211.78 62.6704 163.311 62.6704Z" fill="#2A2A2A"/>
<path d="M94.3218 179.461C104.506 169.295 104.506 152.814 94.3218 142.648C84.1373 132.482 67.6251 132.482 57.4406 142.648C47.2561 152.814 47.2561 169.295 57.4406 179.461C67.6251 189.627 84.1373 189.627 94.3218 179.461Z" fill="#0064B5"/>
<path d="M71.7003 164.736C74.7937 162.029 79.5176 162.336 82.2382 165.424C82.406 165.619 82.5643 165.814 82.7041 166.019C82.8998 166.289 83.2911 166.317 83.5147 166.066L84.2228 165.229C84.3812 165.043 84.3812 164.782 84.2415 164.587C84.1017 164.41 83.9619 164.224 83.8129 164.057C80.3375 160.104 74.2906 159.714 70.34 163.183C70.0419 163.443 69.7623 163.722 69.5015 164.01C69.3058 164.224 69.3337 164.559 69.5574 164.745L70.3866 165.415C70.6009 165.582 70.8991 165.563 71.0854 165.359C71.2717 165.136 71.4767 164.931 71.7003 164.736Z" fill="white"/>
<path d="M68.1506 160.69C73.4708 156.022 81.6049 156.552 86.2821 161.871C86.4871 162.104 86.8505 162.104 87.0462 161.871L87.745 161.053C87.745 160.802 87.745 160.635 87.7357 160.383C82.285 154.32 72.9211 153.743 66.7717 159.128C66.2313 159.602 65.7468 160.104 65.2902 160.625C65.1039 160.839 65.1411 161.165 65.3647 161.341L66.194 162.011C66.4083 162.178 66.7158 162.16 66.8928 161.955C67.2841 161.518 67.7034 161.09 68.1506 160.69Z" fill="white"/>
<path d="M64.6006 156.654C71.9613 150.209 83.0955 150.758 89.7946 157.751C90.0089 157.974 90.3537 157.965 90.5493 157.733L91.2388 156.914C91.4065 156.719 91.3972 156.421 91.2202 156.235C83.7477 148.507 71.3929 147.921 63.2216 155.082C62.4576 155.752 61.7495 156.477 61.1159 157.23C60.9295 157.444 60.9668 157.77 61.1904 157.947L62.0197 158.616C62.234 158.793 62.5508 158.756 62.7278 158.542C63.2961 157.891 63.9204 157.249 64.6006 156.654Z" fill="white"/>
<path d="M76.89 172.38C78.8145 172.38 80.3746 170.823 80.3746 168.902C80.3746 166.981 78.8145 165.424 76.89 165.424C74.9654 165.424 73.4053 166.981 73.4053 168.902C73.4053 170.823 74.9654 172.38 76.89 172.38Z" fill="white"/>
<path d="M158.479 86.128C168.663 75.9623 168.663 59.4806 158.479 49.3149C148.294 39.1493 131.782 39.1493 121.597 49.3149C111.413 59.4806 111.413 75.9623 121.597 86.1279C131.782 96.2936 148.294 96.2936 158.479 86.128Z" fill="#0064B5"/>
<path d="M148.978 62.4668C148.994 62.089 148.962 61.9122 148.962 61.9122H148.946C148.6 57.5478 144.944 54.1077 140.483 54.1077C136.022 54.1077 132.366 57.5478 132.02 61.9122H131.987C131.987 61.9122 131.947 62.1774 131.995 62.7561C132.012 63.6242 132.165 64.4601 132.422 65.2478C133.099 68.0047 134.782 72.6183 138.888 79.603C139.219 80.1656 139.822 80.5514 140.475 80.5514C141.127 80.5514 141.731 80.1415 142.061 79.5789C146.103 72.7067 147.794 68.1414 148.487 65.3684C148.793 64.4923 148.962 63.5519 148.962 62.5713C148.978 62.5391 148.978 62.4989 148.978 62.4668Z" fill="white"/>
<path opacity="0.8" d="M140.515 67.4422C143.223 67.4422 145.419 65.2506 145.419 62.5473C145.419 59.8439 143.223 57.6523 140.515 57.6523C137.806 57.6523 135.611 59.8439 135.611 62.5473C135.611 65.2506 137.806 67.4422 140.515 67.4422Z" fill="#0064B5"/>
<path d="M228.134 92.3914C238.318 82.2257 238.318 65.744 228.134 55.5784C217.949 45.4127 201.437 45.4127 191.253 55.5783C181.068 65.744 181.068 82.2257 191.253 92.3914C201.437 102.557 217.949 102.557 228.134 92.3914Z" fill="#0064B5"/>
<path d="M213.261 72.915H206.569V82.1761H213.261V72.915Z" fill="#0064B5"/>
<path d="M205.354 69.3814C205.475 66.8225 207.544 64.8728 209.977 64.8728C212.532 64.8728 214.601 66.9443 214.601 69.3814H217.278C217.156 65.3602 213.871 62.0701 209.856 62.0701C205.84 62.0701 202.555 65.3602 202.434 69.3814H205.354Z" fill="white"/>
<path d="M218.737 68.894H201.338C200.243 68.894 199.391 69.747 199.391 70.8437V84.0042C199.391 85.1009 200.243 85.9539 201.338 85.9539H218.737C219.832 85.9539 220.684 85.1009 220.684 84.0042V70.8437C220.806 69.747 219.954 68.894 218.737 68.894ZM211.68 81.2015H208.517L208.882 78.1551C208.395 77.7895 208.03 77.1802 208.03 76.4491C208.03 75.3524 209.003 74.3776 210.098 74.3776C211.193 74.3776 212.167 75.3524 212.167 76.4491C212.167 77.1802 211.802 77.7895 211.315 78.1551L211.68 81.2015Z" fill="white"/>
<path d="M268.793 149.323C280.05 138.086 280.05 119.867 268.793 108.63C257.535 97.3928 239.282 97.3928 228.024 108.63C216.766 119.867 216.766 138.086 228.024 149.323C239.282 160.56 257.535 160.56 268.793 149.323Z" fill="#0064B5"/>
<path d="M259.13 140.101H239.145C236.937 140.101 235.136 138.302 235.136 136.099V122.953C235.136 120.749 236.937 118.951 239.145 118.951H259.122C261.33 118.951 263.132 120.749 263.132 122.953V136.099C263.139 138.302 261.338 140.101 259.13 140.101ZM239.145 120.833C237.98 120.833 237.029 121.782 237.029 122.945V136.091C237.029 137.254 237.98 138.203 239.145 138.203H259.122C260.288 138.203 261.238 137.254 261.238 136.091V122.945C261.238 121.782 260.288 120.833 259.122 120.833H239.145Z" fill="white"/>
<path d="M259.352 118.385C259.352 119.112 258.762 119.709 258.026 119.709H254.623C253.894 119.709 253.296 119.12 253.296 118.385C253.296 117.658 253.887 117.062 254.623 117.062H258.026C258.762 117.062 259.352 117.651 259.352 118.385Z" fill="white"/>
<path d="M258.218 124.713C258.218 125.287 257.758 125.746 257.183 125.746H253.58C253.005 125.746 252.545 125.287 252.545 124.713V124.514C252.545 123.94 253.005 123.481 253.58 123.481H257.183C257.758 123.481 258.218 123.94 258.218 124.514V124.713Z" fill="white"/>
<path d="M246.543 135.946H246.067C242.756 135.946 240.065 133.26 240.065 129.954V129.48C240.065 126.175 242.756 123.489 246.067 123.489H246.543C249.854 123.489 252.545 126.175 252.545 129.48V129.954C252.545 133.26 249.847 135.946 246.543 135.946ZM246.06 125.371C243.791 125.371 241.951 127.215 241.951 129.472V129.947C241.951 132.212 243.798 134.048 246.06 134.048H246.535C248.804 134.048 250.644 132.204 250.644 129.947V129.472C250.644 127.208 248.796 125.371 246.535 125.371H246.06Z" fill="white"/>
<path d="M104.807 120.053C114.992 109.888 114.992 93.4061 104.807 83.2405C94.6227 73.0748 78.1104 73.0748 67.926 83.2405C57.7415 93.4061 57.7415 109.888 67.926 120.053C78.1104 130.219 94.6227 130.219 104.807 120.053Z" fill="#0064B5"/>
<path d="M96.6355 111.971H76.0995C74.5227 111.971 73.2373 110.688 73.2373 109.114V94.1804C73.2373 92.6065 74.5227 91.3235 76.0995 91.3235H96.628C98.2049 91.3235 99.4902 92.6065 99.4902 94.1804V109.114C99.4977 110.688 98.2123 111.971 96.6355 111.971ZM76.0995 93.3076C75.6137 93.3076 75.2251 93.703 75.2251 94.1804V109.114C75.2251 109.599 75.6212 109.987 76.0995 109.987H96.628C97.1138 109.987 97.5024 109.591 97.5024 109.114V94.1804C97.5024 93.6955 97.1063 93.3076 96.628 93.3076H76.0995Z" fill="white"/>
<path d="M86.3748 102.214C86.173 102.214 85.9712 102.154 85.7993 102.027L74.2983 93.8968C73.8499 93.5761 73.7453 92.957 74.0591 92.5094C74.3805 92.0618 75.0007 91.9574 75.4491 92.2707L86.3748 99.9985L97.1509 92.3528C97.5993 92.032 98.2196 92.1364 98.5409 92.584C98.8623 93.0315 98.7502 93.6507 98.3093 93.9714L86.9502 102.035C86.7783 102.154 86.5765 102.214 86.3748 102.214Z" fill="white"/>
<path d="M75.031 111.516L74.7396 109.554L74.8741 110.539L74.0371 110.001C74.2538 109.651 78.4014 102.415 81.1291 97.6414C81.3981 97.164 82.0109 96.9999 82.4892 97.2685C82.9674 97.537 83.1318 98.1487 82.8628 98.6261C82.8628 98.6261 81.0917 101.729 79.3131 104.832C78.4238 106.384 77.5345 107.935 76.8619 109.099C75.5093 111.441 75.5093 111.441 75.031 111.516Z" fill="white"/>
<path d="M97.6444 111.516C97.1662 111.441 97.1662 111.441 95.8135 109.092C95.141 107.928 94.2517 106.377 93.3624 104.825C91.5838 101.722 89.8127 98.6189 89.8127 98.6189C89.5436 98.1415 89.708 97.5373 90.1863 97.2613C90.6646 96.9853 91.2699 97.1569 91.5464 97.6343C94.2816 102.408 98.4216 109.644 98.6384 109.994L97.8014 110.531L97.6444 111.516Z" fill="white"/>
<path d="M187.435 134.785C187.186 135.406 186.687 136.028 186.189 136.65C185.94 137.271 185.441 138.017 184.943 138.639C184.195 140.007 183.448 141.499 182.7 142.866C181.33 145.602 180.084 148.461 179.212 151.321L178.962 152.44C178.962 152.44 178.962 152.44 178.962 152.316V152.191C178.962 152.191 178.962 152.067 178.838 151.943C178.838 151.818 178.713 151.694 178.713 151.694C178.589 151.445 178.464 151.197 178.09 151.072C177.592 150.824 177.467 150.824 177.592 150.948C177.717 151.072 178.215 151.072 178.838 151.072C179.461 151.072 180.208 151.072 181.081 150.948C184.071 150.451 187.31 149.705 190.425 148.959L192.294 152.937C190.799 153.932 189.179 154.802 187.559 155.424C186.064 156.17 184.32 156.916 182.576 157.413C181.579 157.662 180.707 158.035 179.835 158.159C179.336 158.284 178.713 158.284 178.09 158.284C177.467 158.284 176.844 158.284 176.097 158.159C175.349 158.035 174.353 157.911 173.356 156.916C172.857 156.667 172.484 155.921 171.985 155.424C171.861 155.175 171.736 154.802 171.487 154.429C171.362 154.181 171.362 153.808 171.238 153.435V152.937V152.689C171.238 152.44 171.238 152.191 171.238 151.943C171.238 151.694 171.238 151.445 171.238 151.321V151.072V150.948L171.487 149.58C171.736 147.715 172.484 145.85 172.982 144.11C173.605 142.369 174.228 140.753 174.976 139.136C175.723 137.52 176.471 135.904 177.467 134.412C177.966 133.666 178.464 132.92 178.838 132.049C179.212 131.179 179.835 130.557 180.333 129.687L187.435 134.785Z" fill="#FFBE9D"/>
<path d="M189.179 135.655C188.556 137.023 188.057 138.391 187.434 139.634C186.438 141.872 185.441 143.613 184.693 145.105C184.07 146.348 183.572 146.97 183.572 146.97L172.359 141.375C172.359 141.375 176.844 128.32 181.579 126.952C186.562 125.584 191.671 129.439 189.179 135.655Z" fill="#0054A3"/>
<path d="M193.664 167.733C193.664 167.733 189.677 203.417 187.06 216.347C184.195 230.646 165.132 276.525 165.132 276.525L155.913 274.535C160.522 258.621 167.126 229.029 171.362 217.715C174.477 200.557 170.988 178.923 175.598 165.619L193.664 167.733Z" fill="#EE384E"/>
<path d="M203.133 168.852C203.133 168.852 205.625 206.898 205.998 220.699C206.372 235.122 202.759 277.892 202.759 277.892H193.913C193.913 277.892 190.175 238.23 191.92 218.958C189.677 204.287 184.818 166.614 184.818 166.614L203.133 168.852Z" fill="#EE384E"/>
<path d="M211.48 104.82C211.48 104.82 209.861 119.492 206.497 123.097C204.628 126.081 198.648 123.097 198.648 123.097L197.152 128.941L189.428 126.206L195.906 103.204L211.48 104.82Z" fill="#FFBE9D"/>
<path d="M190.175 120.362C190.798 121.481 192.169 121.978 193.415 121.978C195.283 121.854 197.152 120.735 198.647 120.113C199.021 119.989 199.27 119.74 199.52 119.616C200.392 119.119 202.136 118.497 202.385 117.005C202.385 116.135 201.887 115.513 201.762 114.643C201.638 113.897 202.011 113.026 202.759 112.902C204.005 112.405 205.002 113.648 204.752 114.643C204.628 115.016 204.503 115.513 204.752 115.637C205.126 115.762 205.375 115.513 205.625 115.264C205.998 114.518 206.248 113.648 206.497 112.778C206.621 111.907 207.12 111.037 207.992 110.54C208.49 110.167 209.113 110.291 209.736 110.291C210.11 110.291 210.234 110.291 210.484 110.291C212.228 110.291 213.848 109.172 214.346 107.431C214.844 105.691 213.723 104.074 213.723 104.074C213.723 104.074 213.972 101.463 210.982 100.966C207.618 100.593 207.244 101.712 203.008 99.9713C200.018 98.7279 196.654 101.463 196.654 101.463C194.038 100.717 192.792 102.334 192.792 102.334C191.421 103.204 190.923 105.069 190.674 106.685C190.424 108.426 190.674 110.042 190.424 111.659C190.3 113.275 189.926 114.767 189.677 116.259C189.428 117.875 189.428 119.492 190.175 120.859" fill="#170856"/>
<path d="M186.064 129.065C185.939 127.449 186.064 124.838 187.31 124.465C188.556 124.092 196.405 124.589 200.392 127.698C199.021 130.184 199.146 132.671 199.146 132.671L186.064 129.065Z" fill="#0054A3"/>
<path opacity="0.2" d="M184.694 134.163L178.838 144.234L179.336 144.607C179.336 144.607 181.579 142.369 184.195 139.261L184.694 134.163Z" fill="black"/>
<path d="M207.494 150.326C206.497 155.299 205.002 161.516 203.133 169.1L175.723 165.743C175.972 162.262 179.959 146.969 178.963 130.557C178.838 128.319 180.956 126.454 183.572 126.454C184.818 126.454 186.438 126.578 187.809 126.703C191.297 126.951 196.405 127.449 199.396 128.195C203.632 128.941 207.12 130.433 207.12 130.433C207.12 130.433 209.114 132.795 208.117 143.488C207.743 145.353 207.619 147.591 207.494 150.326Z" fill="#0083F9"/>
<path opacity="0.6" d="M207.494 150.326C206.497 155.299 205.002 161.516 203.133 169.1L175.723 165.743C175.972 162.262 179.959 146.969 178.963 130.557C178.838 128.319 180.956 126.454 183.572 126.454C184.818 126.454 186.438 126.578 187.809 126.703C191.297 126.951 196.405 127.449 199.396 128.195C203.632 128.941 207.12 130.433 207.12 130.433C207.12 130.433 209.114 132.795 208.117 143.488C207.743 145.353 207.619 147.591 207.494 150.326Z" fill="#0083F9"/>
<path d="M209.612 134.784C209.861 135.282 210.235 135.903 210.733 136.649C211.232 137.271 211.73 137.893 212.104 138.639C213.1 139.882 213.973 141.25 215.094 142.617C217.087 145.104 219.33 147.591 221.573 149.829C222.196 150.326 222.694 150.823 223.317 151.196L223.442 151.445H223.566C223.442 151.445 223.317 151.445 223.317 151.321C223.068 151.321 222.694 151.321 222.694 151.321C222.569 151.445 222.943 151.321 223.442 151.072C223.94 150.823 224.563 150.326 224.937 149.829C227.179 147.839 229.173 144.98 231.166 142.369L235.029 144.234C234.406 146.099 233.783 147.715 233.035 149.331C232.786 150.202 232.288 151.072 231.789 151.818C231.291 152.564 230.792 153.559 230.294 154.305C229.796 155.051 229.048 155.797 228.051 156.791C227.553 157.04 227.055 157.537 226.556 158.035C225.933 158.283 225.31 158.781 224.314 159.029C223.317 159.278 222.32 159.278 221.199 159.029C220.576 158.905 220.078 158.781 219.704 158.408L219.579 158.283L219.081 157.786L218.832 157.662C217.96 157.04 217.087 156.543 216.34 155.921C213.225 153.434 210.609 150.823 208.241 147.964C206.995 146.596 205.874 145.104 204.877 143.612C204.254 142.866 203.756 142.12 203.382 141.25C202.884 140.504 202.386 139.758 201.887 138.514L209.612 134.784Z" fill="#FFBE9D"/>
<path d="M231.042 141.996L234.032 137.644L237.645 142.866C237.645 142.866 234.904 145.353 232.412 145.104L231.042 141.996Z" fill="#FFBE9D"/>
<path d="M239.763 135.531L240.635 140.504L237.645 142.866L234.032 137.644L239.763 135.531Z" fill="#FFBE9D"/>
<path d="M198.274 135.282C198.398 140.255 208.49 151.445 208.49 151.445L219.205 144.483C219.205 144.483 215.717 138.142 211.481 133.541C204.753 126.579 197.9 129.314 198.274 135.282Z" fill="#0054A3"/>
<path d="M253.675 227.392C253.675 227.392 256.633 226.187 256.415 222.797C256.196 219.407 254.445 217.004 258.06 217.983C261.675 218.97 262.891 219.407 265.518 218.856C268.144 218.306 270.325 217.214 269.182 220.604C268.039 223.994 266.79 226.834 269.498 227.384C272.197 227.934 275.099 225.887 275.448 231.195C275.796 236.503 271.508 242.474 264.569 242.692C257.63 242.911 254.566 240.038 254.566 240.038C254.566 240.038 252.702 237.417 255.604 236.778C258.506 236.13 261.465 234.909 259.981 233.549C258.506 232.198 253.683 232.085 253.683 232.085C253.683 232.085 247.652 230.888 253.675 227.392Z" fill="#649EEA"/>
<path d="M285.385 228.266C284.899 224.884 285.272 222.449 291.57 221.526C297.869 220.604 301.541 224.382 301.922 228.266C302.303 232.15 296.831 233.558 296.831 233.558C296.831 233.558 292.94 234.666 294.918 238.056C296.896 241.446 297.788 244.723 293.313 245.216C288.838 245.71 283.942 244.529 281.219 242.716C278.495 240.904 275.698 236.308 278.819 233.905C278.819 233.905 279.695 233.307 282.71 233.137C285.71 232.967 285.385 228.266 285.385 228.266Z" fill="#023EA1"/>
<path d="M263.224 227.716C263.224 227.716 268.452 239.52 269.165 247.554" stroke="#023EA1" stroke-width="1.19064" stroke-miterlimit="10"/>
<path d="M292.299 229.657C292.299 229.657 283.042 243.38 280.854 247.967" stroke="#649EEA" stroke-width="1.19064" stroke-miterlimit="10"/>
<path d="M265.938 246.632H287.184C287.184 246.632 289.511 246.794 289.316 249.966C289.138 252.886 285.425 252.255 283.512 252.255C281.599 252.255 265.476 252.255 265.476 252.255C265.476 252.255 262.866 252.7 262.866 249.747C262.866 246.794 263.855 246.632 265.938 246.632Z" fill="#0054A5"/>
<path d="M265.485 252.256L268.703 270.994H282.97L285.385 256.932L265.509 252.256H265.485Z" fill="#0054A5"/>
<path d="M265.509 252.256L285.385 256.932L286.188 252.256H265.509Z" fill="#006AD5"/>
<path d="M274.645 247.344C274.645 247.344 275.723 226.551 281.932 213.508" stroke="#FCBE42" stroke-width="1.19064" stroke-miterlimit="10"/>
<path d="M287.039 206C287.039 206 287.55 212.384 281.308 214.876C281.308 214.876 279.963 209.422 287.039 206Z" fill="#FCBE42"/>
<path d="M277.677 226.316C277.677 226.316 279.979 220.871 287.048 221.599C287.056 221.599 286.505 227.02 277.677 226.316Z" fill="#FCBE42"/>
<path d="M275.351 240.014C275.351 240.014 276.542 234.221 283.619 233.557C283.619 233.557 284.146 238.986 275.351 240.014Z" fill="#FCBE42"/>
<path d="M275.108 240.046C275.108 240.046 275.927 234.196 269.482 231.203C269.482 231.203 267.172 236.146 275.108 240.046Z" fill="#FCBE42"/>
<path d="M277.758 226.276C277.758 226.276 279.322 220.571 273.308 216.785C273.299 216.785 270.381 221.397 277.758 226.276Z" fill="#FCBE42"/>
</g>
<defs>
<clipPath id="clip0_3375_3177">
<rect width="340" height="270" fill="white"/>
</clipPath>
</defs>
</svg>
