<svg width="320" height="300" viewBox="0 0 320 300" fill="none" xmlns="http://www.w3.org/2000/svg">
<g clip-path="url(#clip0_3707_5325)">
<path d="M246.771 97.6937C235.443 88.4807 233.832 72.8236 235.292 58.9789C235.544 56.6631 235.443 54.1962 236.702 52.2328C237.961 50.2693 240.629 49.0611 242.643 50.219C244.304 51.1755 244.908 53.1893 245.764 54.9514C246.872 57.2672 248.684 59.2306 250.849 60.5396C252.258 61.3954 254.071 61.9996 255.581 61.2948C257.645 60.3382 258.098 57.5693 258.249 55.2534C258.551 50.9238 258.803 46.6446 259.105 42.3653C259.256 40.0494 259.407 37.6833 260.314 35.5688C261.169 33.4543 262.931 31.4909 265.147 31.0378C267.412 30.5847 270.03 32.0447 270.332 34.3102C270.433 35.2667 270.181 36.2233 270.181 37.1798C270.181 38.1364 270.533 39.2439 271.44 39.546C272.346 39.8984 273.302 39.2943 274.058 38.6901C276.625 36.5253 278.438 33.6557 280.149 30.7861C281.861 27.9165 283.573 24.9461 285.888 22.5799C288.255 20.2138 291.376 18.4014 294.699 18.4517C298.021 18.5021 301.395 20.8179 301.999 24.0903C302.603 27.413 300.488 30.5847 298.223 33.0516C294.9 36.7267 291.024 39.9488 286.744 42.5163C285.989 42.9694 285.133 43.4729 284.831 44.3287C284.227 45.839 285.586 47.4501 287.046 48.1045C288.708 48.8094 290.621 48.759 292.383 49.1114C294.145 49.4638 296.058 50.37 296.612 52.1321C297.367 54.5486 295.253 56.9148 293.188 58.3748C289.06 61.3451 284.428 63.5603 279.595 64.9699C277.833 65.4733 276.021 65.8761 274.561 66.9837C273.101 68.0913 272.144 70.105 272.849 71.7664C273.554 73.4781 275.669 74.1326 277.431 73.9312C279.243 73.7298 280.904 72.874 282.616 72.3705C285.888 71.414 289.966 71.9174 291.779 74.7871C292.987 76.7001 292.937 79.2174 292.081 81.2815C291.275 83.3959 289.765 85.158 288.154 86.7187C282.616 92.3069 275.769 96.6365 268.268 98.7006C260.767 100.714 253.92 100.916 246.771 97.6937Z" fill="#023EA1"/>
<path d="M251 89.236C253.567 82.3891 256.991 75.0892 260.817 67.5375C261.774 65.6748 262.73 63.8121 263.687 61.9997C264.643 60.1873 265.549 58.3749 266.607 56.6632C268.62 53.2397 270.836 50.1184 273.051 47.1984C275.266 44.2784 277.431 41.6102 279.495 39.093C281.559 36.5758 283.522 34.3103 285.435 32.2965C289.211 28.2689 292.635 25.3993 295.051 23.4862C296.259 22.5297 297.216 21.8249 297.87 21.3718C298.173 21.1704 298.424 20.969 298.626 20.8683C298.777 20.7676 298.877 20.7173 298.877 20.7173C298.877 20.7173 298.777 20.7676 298.626 20.9187C298.424 21.0697 298.223 21.2207 297.921 21.4725C297.266 21.9759 296.31 22.6807 295.152 23.6373C292.735 25.5503 289.362 28.4703 285.637 32.4979C283.774 34.5116 281.811 36.8275 279.746 39.2944C277.682 41.8116 275.518 44.4798 273.353 47.3998C271.188 50.3198 268.973 53.4411 266.959 56.8645C265.952 58.5762 264.996 60.3383 264.089 62.201C263.133 64.0134 262.176 65.8762 261.22 67.7389C257.394 75.2402 253.97 82.5402 251.403 89.387" fill="#E0E0E0"/>
<path d="M266.707 56.6634C266.657 56.6634 266.606 56.311 266.556 55.6565C266.455 55.002 266.405 54.0958 266.304 52.8875C266.153 50.5717 266.053 47.3497 265.902 43.8256C265.801 40.3014 265.65 37.0794 265.449 34.7636C265.348 33.6056 265.247 32.6491 265.197 32.045C265.146 31.3905 265.096 31.0381 265.146 31.0381C265.197 31.0381 265.247 31.3905 265.348 32.045C265.449 32.6994 265.6 33.6056 265.751 34.7636C266.002 37.0794 266.254 40.3014 266.355 43.8256C266.455 47.2993 266.556 50.471 266.606 52.8875C266.657 53.9951 266.657 54.9013 266.707 55.6565C266.757 56.311 266.757 56.6634 266.707 56.6634Z" fill="#E0E0E0"/>
<path d="M296.763 53.2399C296.763 53.2902 296.36 53.2902 295.554 53.2902C294.799 53.2902 293.692 53.3405 292.332 53.3909C289.614 53.4916 285.838 53.7433 281.659 54.2467C277.481 54.7502 273.755 55.3543 271.087 55.8578C269.728 56.1095 268.671 56.3109 267.915 56.4619C267.16 56.6129 266.757 56.7136 266.757 56.6633C266.757 56.6129 267.16 56.5122 267.915 56.3109C268.671 56.1095 269.728 55.8074 271.087 55.5557C273.755 54.9516 277.531 54.2971 281.71 53.844C285.888 53.3405 289.664 53.1392 292.433 53.1392C293.792 53.1392 294.9 53.1392 295.705 53.1895C296.36 53.1895 296.763 53.2399 296.763 53.2399Z" fill="#E0E0E0"/>
<path d="M251.402 88.7326C251.402 88.7326 251.352 88.632 251.201 88.3802C251.1 88.0782 250.949 87.7258 250.748 87.2727C250.395 86.3161 249.892 84.9065 249.288 83.1444C248.08 79.6203 246.62 74.7369 245.059 69.3501C243.498 63.9129 242.038 59.0295 240.931 55.5054C240.377 53.7937 239.924 52.384 239.622 51.3268C239.471 50.8737 239.37 50.5213 239.269 50.1689C239.169 49.9171 239.169 49.7661 239.169 49.7661C239.169 49.7661 239.219 49.8668 239.37 50.1185C239.471 50.4206 239.622 50.773 239.823 51.2261C240.175 52.1826 240.679 53.5923 241.283 55.3543C242.491 58.8784 243.951 63.7618 245.512 69.1487C247.073 74.5859 248.533 79.4693 249.64 82.9934C250.194 84.7051 250.647 86.1147 250.949 87.172C251.1 87.6251 251.201 87.9775 251.302 88.3299C251.402 88.5816 251.402 88.7326 251.402 88.7326Z" fill="#E0E0E0"/>
<path d="M291.779 78.8646C291.779 78.8646 291.628 78.915 291.376 79.0156C291.074 79.1163 290.671 79.217 290.218 79.3177C289.11 79.5694 287.65 79.9218 285.888 80.3749C282.264 81.2811 277.229 82.5901 271.641 83.9997C266.103 85.4597 261.069 86.7183 257.393 87.5238C255.581 87.9266 254.071 88.279 253.064 88.4804C252.611 88.5811 252.208 88.6314 251.856 88.6818C251.604 88.7321 251.453 88.7321 251.453 88.7321C251.453 88.7321 251.604 88.6818 251.856 88.5811C252.158 88.4804 252.56 88.3797 253.013 88.279C254.121 88.0273 255.581 87.6749 257.343 87.2218C260.968 86.3156 266.002 85.0066 271.591 83.597C277.128 82.137 282.163 80.8784 285.838 80.0729C287.65 79.6701 289.161 79.3177 290.168 79.1163C290.621 79.0156 291.023 78.9653 291.376 78.9149C291.628 78.8646 291.779 78.8143 291.779 78.8646Z" fill="#E0E0E0"/>
<path d="M248.908 68.9389C248.908 68.9389 267.579 48.1234 271.336 26.6822" stroke="#FCBE42" stroke-width="0.618344" stroke-miterlimit="10"/>
<path d="M271.294 12.0158C271.294 12.0158 264.352 17.1308 270.902 28.8884C270.902 28.8884 278.139 25.897 271.294 12.0158Z" fill="#FCBE42"/>
<path d="M264.997 44.9454C264.997 44.9454 266.983 36.4336 256.113 26.3936C256.101 26.3814 251.622 32.2174 264.997 44.9454Z" fill="#FCBE42"/>
<path d="M255.023 61.1079C255.023 61.1079 258.943 53.9581 249.415 42.6221C249.415 42.6221 243.378 46.8318 255.023 61.1079Z" fill="#FCBE42"/>
<path d="M255.34 61.5053C255.34 61.5053 259.852 54.8684 272.027 61.8726C272.027 61.8726 270.541 69.9339 255.34 61.5053Z" fill="#FCBE42"/>
<path d="M264.922 44.787C264.922 44.787 268.219 37.1542 280.548 42.7759C280.56 42.7882 280.27 51.4648 264.922 44.787Z" fill="#FCBE42"/>
<path d="M70.0539 148.13C98.5287 148.13 121.612 125.077 121.612 96.6395C121.612 68.2023 98.5287 45.1494 70.0539 45.1494C41.579 45.1494 18.4956 68.2023 18.4956 96.6395C18.4956 125.077 41.579 148.13 70.0539 148.13Z" stroke="#DC051F" stroke-miterlimit="10" stroke-dasharray="6 6"/>
<path d="M29.5644 72.0587C32.7015 72.0587 35.2446 69.5189 35.2446 66.386C35.2446 63.2531 32.7015 60.7134 29.5644 60.7134C26.4274 60.7134 23.8843 63.2531 23.8843 66.386C23.8843 69.5189 26.4274 72.0587 29.5644 72.0587Z" fill="#003EAE"/>
<path d="M30.5839 63.7676L26.7971 65.8039L30.2926 67.8402L30.5839 63.7676Z" fill="white"/>
<path d="M278.898 137.774C281.083 137.774 283.267 137.774 285.452 137.774C285.452 137.774 285.598 137.774 285.743 137.919C287.346 138.21 288.074 139.083 288.365 140.683C288.511 142.137 288.802 143.737 288.948 145.192C289.093 145.919 290.258 146.356 290.987 145.919C292.152 145.047 293.463 143.883 294.773 143.01C296.23 141.992 297.832 141.992 299.143 143.156C300.454 144.465 301.91 145.919 303.221 147.374C304.386 148.537 304.386 150.283 303.366 151.737C302.638 152.756 301.764 154.065 300.891 155.083C300.308 155.665 300.162 156.246 300.745 157.119C300.891 157.265 301.036 157.555 301.327 157.555C302.784 157.701 304.532 157.992 305.988 158.137C307.153 158.283 308.173 158.865 308.464 160.028C308.61 160.319 308.61 160.61 308.755 161.046C308.755 163.228 308.755 165.41 308.755 167.737C308.755 167.883 308.61 168.028 308.61 168.173C308.173 169.483 307.445 170.355 305.988 170.501C304.532 170.646 302.93 170.937 301.473 171.082C300.745 171.082 300.162 172.392 300.745 173.119C301.619 174.282 302.784 175.737 303.658 176.901C304.677 178.21 304.532 179.955 303.512 181.264C302.201 182.719 300.745 184.173 299.288 185.482C298.123 186.646 296.376 186.646 294.919 185.628C293.608 184.755 292.297 183.591 290.987 182.719C290.55 182.282 289.093 182.719 288.948 183.446C288.802 185.046 288.511 186.646 288.219 188.246C288.074 189.409 287.346 190.428 286.035 190.719C285.889 190.719 285.598 190.864 285.307 191.009C282.976 191.009 280.792 191.009 278.607 191.009C278.607 191.009 278.461 191.009 278.461 190.864C277.005 190.573 276.131 189.7 275.84 188.1C275.694 186.646 275.403 185.046 275.257 183.737C275.111 183.01 273.946 182.428 273.072 183.01C271.907 183.882 270.596 185.046 269.286 185.773C267.829 186.791 266.227 186.791 264.916 185.628C263.605 184.319 262.149 182.864 260.838 181.41C259.673 180.246 259.673 178.501 260.693 177.046C261.421 176.028 262.295 174.719 263.169 173.701C263.751 173.119 263.751 172.392 263.314 171.664C263.169 171.519 263.023 171.228 262.877 171.228C261.421 171.082 259.819 170.792 258.508 170.646C256.469 170.501 255.449 169.337 255.449 167.301C255.449 165.264 255.449 163.374 255.449 161.337C255.449 159.446 256.469 158.283 258.217 158.137C259.673 157.992 261.275 157.701 262.732 157.555C263.46 157.555 263.897 156.246 263.46 155.519C262.586 154.355 261.421 152.901 260.547 151.737C259.527 150.428 259.527 148.683 260.693 147.374C262.003 146.065 263.46 144.61 264.916 143.156C266.081 141.992 267.829 141.992 269.286 143.01C270.596 143.883 271.907 145.047 273.218 145.919C273.655 146.356 275.111 145.919 275.257 145.192C275.403 143.737 275.694 141.992 275.985 140.538C276.131 139.228 276.859 138.356 278.17 138.065C278.17 137.919 278.461 137.919 278.898 137.774ZM300.745 149.846C299.434 148.537 298.123 147.083 296.667 145.774C294.773 147.083 293.026 148.537 291.132 149.846C290.841 149.992 290.55 149.992 290.258 149.846C289.093 149.265 287.782 148.828 286.617 148.246C286.18 148.101 285.889 147.81 285.889 147.374C285.598 145.192 285.307 143.01 285.015 140.828C285.015 140.538 284.87 140.392 284.578 140.392C283.122 140.392 281.52 140.392 280.063 140.392C279.626 140.392 279.626 140.538 279.481 140.828C279.189 143.01 278.898 145.192 278.607 147.374C278.607 147.81 278.461 147.956 277.879 148.101C276.713 148.537 275.403 148.974 274.238 149.556C273.801 149.701 273.509 149.701 273.218 149.556C271.325 148.246 269.577 146.792 267.829 145.628C266.518 146.937 265.062 148.392 263.751 149.701C263.751 149.846 263.897 149.992 264.042 150.137C265.208 151.737 266.518 153.337 267.684 154.937C267.829 155.083 267.829 155.374 267.829 155.665C267.247 156.974 266.664 158.428 265.936 159.737C265.936 159.883 265.644 160.174 265.499 160.174C264.334 160.319 263.023 160.464 261.858 160.61C260.693 160.755 259.382 160.901 258.217 161.046C258.217 163.083 258.217 164.828 258.217 166.719C258.362 166.719 258.654 166.864 258.945 166.864C261.129 167.155 263.169 167.446 265.353 167.737C265.79 167.737 265.936 167.883 266.081 168.319C266.518 169.483 266.955 170.792 267.538 171.955C267.683 172.392 267.683 172.682 267.538 173.119C266.227 175.01 264.771 176.755 263.605 178.501C264.916 179.81 266.227 181.119 267.684 182.573C267.829 182.573 267.975 182.428 268.266 182.137C269.868 180.973 271.616 179.664 273.072 178.501C273.218 178.355 273.509 178.355 273.801 178.355C275.111 178.791 276.422 179.519 277.879 179.955C278.316 180.101 278.461 180.246 278.461 180.682C278.753 182.864 279.044 185.046 279.335 187.228C279.335 187.664 279.481 187.809 279.918 187.809C281.374 187.809 282.976 187.809 284.287 187.809C284.724 187.809 284.87 187.664 284.87 187.228C285.161 185.046 285.452 182.864 285.743 180.537C285.743 180.246 285.889 179.955 286.18 179.81C287.491 179.373 288.948 178.646 290.258 178.21C290.404 178.21 290.695 178.21 290.987 178.21C292.589 179.373 294.337 180.682 295.939 181.846C296.084 181.991 296.376 182.137 296.376 182.137C297.686 180.828 299.143 179.373 300.454 178.064C300.454 177.919 300.308 177.773 300.162 177.628C298.997 176.028 297.686 174.428 296.521 172.828C296.376 172.682 296.376 172.392 296.376 172.246C296.958 170.937 297.541 169.337 298.269 168.028C298.269 167.883 298.56 167.737 298.706 167.737C299.58 167.592 300.599 167.446 301.473 167.446C302.93 167.301 304.532 167.01 305.988 166.864C305.988 164.828 305.988 163.083 305.988 161.192C303.512 160.901 301.327 160.464 298.851 160.174C298.56 160.174 298.415 160.028 298.269 159.737C297.832 158.428 297.249 157.119 296.667 155.955C296.521 155.519 296.521 155.374 296.667 154.937C297.978 153.337 299.288 151.592 300.745 149.846Z" stroke="#DE051F" stroke-miterlimit="10"/>
<path d="M300.745 149.847C299.434 151.737 298.124 153.483 296.667 155.228C296.376 155.519 296.376 155.81 296.667 156.246C297.25 157.41 297.687 158.865 298.269 160.028C298.415 160.319 298.561 160.465 298.852 160.465C301.328 160.756 303.512 161.046 305.988 161.483C305.988 163.374 305.988 165.119 305.988 167.155C304.532 167.301 302.93 167.592 301.473 167.737C300.6 167.883 299.58 167.883 298.706 168.028C298.561 168.028 298.269 168.174 298.269 168.319C297.687 169.628 297.104 171.083 296.376 172.537C296.376 172.683 296.376 172.973 296.522 173.119C297.687 174.719 298.997 176.464 300.163 177.919C300.308 178.064 300.454 178.21 300.454 178.355C299.143 179.664 297.832 180.973 296.376 182.428C296.376 182.428 296.085 182.282 295.939 182.137C294.337 180.973 292.589 179.664 290.987 178.501C290.841 178.355 290.55 178.355 290.259 178.501C288.948 178.937 287.492 179.664 286.181 180.101C285.889 180.246 285.744 180.392 285.744 180.828C285.452 183.01 285.161 185.191 284.87 187.519C284.87 187.955 284.724 188.101 284.287 188.101C282.831 188.101 281.229 188.101 279.918 188.101C279.481 188.101 279.335 187.955 279.335 187.519C279.044 185.337 278.753 183.155 278.462 180.973C278.462 180.537 278.316 180.392 277.879 180.246C276.568 179.81 275.257 179.082 273.801 178.646C273.655 178.646 273.364 178.646 273.073 178.792C271.471 179.955 269.723 181.264 268.266 182.428C268.121 182.573 267.829 182.719 267.684 182.864C266.373 181.555 265.062 180.246 263.606 178.792C264.917 176.901 266.227 175.301 267.538 173.41C267.829 172.973 267.829 172.683 267.538 172.246C266.956 171.083 266.519 169.774 266.082 168.61C265.936 168.174 265.79 168.028 265.354 168.028C263.169 167.737 261.13 167.446 258.945 167.155C258.799 167.155 258.508 167.155 258.217 167.01C258.217 165.119 258.217 163.374 258.217 161.337C259.382 161.192 260.693 161.046 261.858 160.901C263.023 160.756 264.334 160.61 265.499 160.465C265.645 160.465 265.936 160.319 265.936 160.028C266.519 158.719 267.101 157.265 267.829 155.956C267.829 155.81 267.829 155.519 267.684 155.228C266.519 153.628 265.208 151.883 264.043 150.428C263.897 150.283 263.751 150.138 263.751 149.992C265.062 148.683 266.373 147.228 267.829 145.919C269.432 147.083 271.325 148.538 273.218 149.847C273.51 150.138 273.801 150.138 274.238 149.847C275.403 149.265 276.714 148.828 277.879 148.392C278.316 148.247 278.462 148.101 278.607 147.665C278.898 145.483 279.19 143.301 279.481 141.119C279.481 140.683 279.627 140.683 280.064 140.683C281.52 140.683 283.122 140.683 284.579 140.683C284.87 140.683 285.016 140.683 285.016 141.119C285.307 143.301 285.598 145.483 285.889 147.665C285.889 148.101 286.181 148.392 286.618 148.538C287.783 148.974 289.094 149.556 290.259 150.137C290.55 150.283 290.841 150.283 291.133 150.137C293.026 148.828 294.774 147.374 296.667 146.065C297.978 147.083 299.289 148.392 300.745 149.847ZM270.451 164.101C270.451 170.501 275.549 175.737 281.957 175.737C288.511 175.737 293.609 170.646 293.609 164.246C293.609 157.701 288.511 152.61 282.103 152.61C275.694 152.61 270.451 157.701 270.451 164.101Z" stroke="#DE051F" stroke-miterlimit="10"/>
<path d="M286.398 69.1206H38.5854V237.588H286.398V69.1206Z" fill="#0064B5"/>
<path d="M286.399 212.688H38.5857V237.521H286.399V212.688Z" fill="#FFC727"/>
<path d="M286.399 212.688H38.5857V237.521H286.399V212.688Z" fill="#033E9F"/>
<path d="M210.785 267.917H114.199V275.99H210.785V267.917Z" fill="#FFC727"/>
<path d="M210.785 267.917H114.199V275.99H210.785V267.917Z" fill="#033E9F"/>
<path d="M199.314 267.917H125.67L127.57 253.94L127.638 253.261L127.842 251.972L127.91 251.294L128.113 250.005V249.801L128.181 249.326L128.385 248.037L128.453 247.359L129.742 237.588H195.242L196.464 246.816L196.532 247.223L196.735 248.783L196.803 249.19L196.871 249.801L197.007 250.751V251.158L197.21 252.719L197.278 253.126L199.314 267.917Z" fill="#0064B5"/>
<path d="M166.531 223.476C166.531 225.715 164.698 227.546 162.459 227.546C160.219 227.546 158.386 225.715 158.386 223.476C158.386 221.237 160.219 219.405 162.459 219.405C164.698 219.337 166.531 221.169 166.531 223.476Z" fill="white"/>
<g opacity="0.16">
<path d="M196.872 249.801L128.454 247.359L129.743 237.588H195.243L196.872 249.801Z" fill="black"/>
</g>
<path d="M275.324 80.0435H50.3853V201.017H275.324V80.0435Z" fill="white"/>
<path d="M268.856 230.519C268.856 230.519 271.914 229.355 271.769 225.719C271.623 222.083 269.584 219.61 273.662 220.774C277.449 221.792 278.614 222.228 281.527 221.646C284.294 221.065 286.479 219.756 285.459 223.537C284.294 227.174 282.983 230.083 285.751 230.664C288.663 231.246 291.722 229.065 292.013 234.737C292.305 240.41 287.79 246.519 280.653 246.81C273.516 247.101 270.021 244.046 270.021 244.046C270.021 244.046 267.982 241.282 271.04 240.555C274.099 239.828 277.303 238.519 275.555 237.21C274.099 235.901 269.001 235.755 269.001 235.755C269.001 235.755 262.739 234.155 268.856 230.519Z" fill="#649CE8"/>
<path d="M302.499 231.392C302.062 227.755 302.353 225.137 309.053 224.264C315.753 223.392 319.54 227.319 319.977 231.392C320.413 235.464 314.588 237.064 314.588 237.064C314.588 237.064 310.51 238.228 312.403 241.719C314.588 245.355 315.462 248.7 310.801 249.282C306.14 249.719 300.897 248.555 297.984 246.664C295.071 244.628 292.158 239.973 295.508 237.355C295.508 237.355 296.382 236.773 299.586 236.628C302.79 236.337 302.499 231.392 302.499 231.392Z" fill="#033E9F"/>
<path d="M279.052 230.81C279.052 230.81 284.586 243.318 285.314 251.755" stroke="#82D8FD" stroke-miterlimit="10" stroke-linecap="round" stroke-linejoin="round"/>
<path d="M309.782 232.846C309.782 232.846 300.024 247.246 297.84 252.191" stroke="#579DD3" stroke-miterlimit="10" stroke-linecap="round" stroke-linejoin="round"/>
<path d="M281.964 250.737H304.247C304.247 250.737 306.723 250.882 306.578 254.228C306.432 257.282 302.5 256.7 300.461 256.7C298.276 256.7 281.527 256.7 281.527 256.7C281.527 256.7 278.76 257.137 278.76 254.082C278.76 251.028 279.633 250.737 281.964 250.737Z" fill="#0054A3"/>
<path d="M281.527 256.7L284.877 276.336H299.878L302.5 261.646L281.527 256.7Z" fill="#0054A3"/>
<path d="M281.527 256.7L302.5 261.646L303.228 256.7H281.527Z" fill="#016AD3"/>
<path d="M291.139 251.464C291.139 251.464 292.159 229.647 298.858 215.829Z" fill="#FABC42"/>
<path d="M304.102 207.974C304.102 207.974 304.539 214.665 297.985 217.429C298.131 217.283 296.674 211.61 304.102 207.974Z" fill="#FABC42"/>
<path d="M294.344 229.355C294.344 229.355 296.819 223.537 304.247 224.41C304.102 224.265 303.519 230.083 294.344 229.355Z" fill="#FABC42"/>
<path d="M291.868 243.755C291.868 243.755 293.033 237.646 300.752 236.918C300.461 236.918 301.043 242.737 291.868 243.755Z" fill="#FABC42"/>
<path d="M291.576 243.755C291.576 243.755 292.45 237.501 285.605 234.446C285.605 234.446 283.129 239.683 291.576 243.755Z" fill="#FABC42"/>
<path d="M294.49 229.21C294.49 229.21 296.092 223.101 289.83 219.174C289.684 219.319 286.48 224.119 294.49 229.21Z" fill="#FABC42"/>
<path d="M67.5771 142.748H119.427C121.029 142.748 122.485 141.439 122.485 139.693V89.9485C122.485 88.3486 121.174 86.894 119.427 86.894H67.5771C65.975 86.894 64.5186 88.2031 64.5186 89.9485V139.402C64.5186 141.293 65.975 142.748 67.5771 142.748Z" stroke="#003EB0" stroke-width="0.5" stroke-miterlimit="10" stroke-dasharray="2 2"/>
<path d="M129.039 142.748H246.866C247.74 142.748 248.323 142.166 248.323 141.293V88.4941C248.323 87.6214 247.74 87.0396 246.866 87.0396H129.039C128.166 87.0396 127.583 87.6214 127.583 88.4941V141.002C127.583 141.875 128.311 142.748 129.039 142.748Z" fill="white"/>
<path d="M247.987 103.767H145.308C143.269 103.767 141.521 102.167 141.521 99.9849C141.521 97.9485 143.123 96.2031 145.308 96.2031H247.987C250.026 96.2031 251.774 97.8031 251.774 99.9849C251.774 102.021 250.172 103.767 247.987 103.767Z" fill="#033E9F"/>
<path d="M205.459 112.057H143.705C142.686 112.057 141.666 111.184 141.666 110.021C141.666 109.003 142.54 107.984 143.705 107.984H205.75C206.77 107.984 207.789 108.857 207.789 110.021C207.789 111.184 206.77 112.057 205.459 112.057Z" fill="#DBE9F8"/>
<path d="M248.614 148.856C248.614 148.129 248.031 147.402 247.158 147.402H66.121C65.3928 147.402 64.6646 147.984 64.6646 148.856V177.22C64.6646 177.365 64.6646 177.365 64.6646 177.51C64.6646 177.656 64.6646 177.656 64.6646 177.801V200.056C64.6646 200.783 65.2471 201.51 66.121 201.51H247.158C247.886 201.51 248.614 200.928 248.614 200.056V177.801C248.614 177.656 248.614 177.656 248.614 177.51C248.614 177.365 248.614 177.365 248.614 177.22V148.856Z" fill="white"/>
<path d="M127.875 164.42H78.3559C76.4625 164.42 75.0061 162.966 75.0061 161.075C75.0061 159.184 76.4625 157.729 78.3559 157.729H127.875C129.769 157.729 131.225 159.184 131.225 161.075C131.371 162.82 129.623 164.42 127.875 164.42Z" fill="#EE384E"/>
<path d="M222.544 170.093H76.1713C75.5887 170.093 75.0061 169.512 75.0061 168.93C75.0061 168.348 75.5887 167.766 76.1713 167.766H222.544C223.127 167.766 223.709 168.348 223.709 168.93C223.564 169.512 223.127 170.093 222.544 170.093Z" fill="#DBE9F8"/>
<path d="M232.259 120.203H143.561C142.979 120.203 142.396 119.621 142.396 119.039C142.396 118.457 142.979 117.875 143.561 117.875H232.259C232.841 117.875 233.424 118.457 233.424 119.039C233.57 119.621 232.987 120.203 232.259 120.203Z" fill="#DBE9F8"/>
<path d="M70.9466 140.699H116.253C117.601 140.699 118.95 139.472 118.95 137.836V91.8872C118.95 90.3874 117.736 89.0239 116.253 89.0239H70.9466C69.5982 89.0239 68.2498 90.251 68.2498 91.8872V137.699C68.2498 139.335 69.4633 140.699 70.9466 140.699Z" fill="white" stroke="#0055DB" stroke-width="0.4721" stroke-miterlimit="10"/>
<path d="M107.563 120.371C106.711 117.728 105.176 115.502 102.447 113.972C101.935 113.693 101.423 113.415 100.912 113.137C100.059 114.528 99.0356 115.641 97.8417 116.615C95.795 118.006 93.4072 118.563 90.8489 117.728C88.9728 117.172 87.6083 116.198 86.585 114.806C86.2438 114.25 85.7322 113.693 85.391 113.137C84.0266 113.693 82.1505 114.945 81.1271 116.198C78.7393 119.119 77.8865 122.319 78.2276 125.798C78.2276 126.493 78.7393 126.771 79.4215 126.911C79.9332 127.05 80.4449 127.05 80.9566 127.05C89.1433 127.05 97.3301 127.05 105.517 127.05C105.858 127.05 106.37 127.05 106.711 127.05C107.905 127.05 108.416 126.493 108.416 125.519C108.416 123.711 108.075 122.041 107.563 120.371Z" fill="#C6D7F0"/>
<path d="M89.8252 115.502C91.5308 116.754 93.5775 116.893 95.4536 116.058C96.477 115.641 97.3297 114.945 98.012 114.11C99.547 112.441 100.4 110.632 100.57 108.545C100.911 106.319 100.229 104.232 98.5236 102.563C95.6242 99.6408 90.8486 99.6408 87.9491 102.423C86.4141 103.954 85.5613 105.763 85.5613 107.71C85.5613 108.823 85.7318 109.936 86.2435 111.049C86.9257 112.719 88.1196 114.249 89.8252 115.502Z" fill="#C6D7F0"/>
<path d="M29.5442 164.266C29.5442 164.266 53.0221 141.351 54.7829 139.603C56.7394 137.856 58.1089 136.885 59.8698 136.108C61.8263 135.331 62.4132 134.554 64.1741 132.807C65.9349 131.059 64.1741 130.476 64.1741 130.476C64.1741 129.894 63.5871 129.7 63.5871 129.7C63.7828 129.311 63.0002 128.923 63.0002 128.923C63.0002 128.923 63.5871 127.758 64.5654 126.787C65.5436 125.816 64.5654 126.01 64.5654 126.01L61.6306 128.729C60.2611 128.34 58.1089 130.088 56.935 131.642C55.7611 133.389 54.9785 133.778 54.9785 133.778L26.0225 156.887L29.5442 164.266Z" fill="#FDBC99"/>
<path d="M20.7396 136.886C24.6525 131.837 19.1744 126.205 19.1744 126.205C19.1744 126.205 18.7831 126.788 17.4135 128.924C16.044 131.06 14.2831 130.866 11.544 132.225C8.60931 133.779 3.71808 136.303 4.69633 143.877C5.67457 151.256 12.3266 151.45 12.3266 151.45C12.3266 151.45 16.8266 141.935 20.7396 136.886Z" fill="#180957"/>
<path d="M8.80375 281.558C10.7602 283.112 16.4341 285.831 16.4341 285.831C17.021 286.219 16.8254 287.19 16.8254 287.578C16.8254 287.773 16.6297 287.773 16.6297 287.773C15.2602 287.773 5.47772 287.773 2.73863 287.578C0.195187 287.578 1.17343 282.724 1.36908 281.947C1.36908 281.947 1.36908 281.753 1.56473 281.753C2.34732 281.364 6.84726 280.005 8.80375 281.558Z" fill="#160956"/>
<path d="M33.2608 280.976C36.3912 282.918 42.8476 285.637 42.8476 285.637C43.8259 286.025 43.8259 286.996 43.6302 287.19C43.6302 287.384 43.4346 287.384 43.4346 287.384C41.8694 287.384 29.7391 287.579 27.3913 287.384C25.0436 287.19 25.8261 281.947 26.0218 281.17C26.0218 281.17 26.0218 280.976 26.2175 280.976C27 280.588 30.7174 279.228 33.2608 280.976Z" fill="#160956"/>
<path d="M9.58681 197.862L13.8911 213.786L14.478 228.35L8.80421 281.559L1.56519 281.753L0 198.056L9.58681 197.862Z" fill="#0064DF"/>
<path d="M28.9565 197.862L33.6521 280.976H26.4131L16.8263 237.671C14.6741 233.593 7.82642 198.056 7.82642 198.056L28.9565 197.862Z" fill="#003EAE"/>
<path d="M14.0877 139.409C12.3268 142.322 12.7181 145.817 12.3268 148.73C11.9355 151.837 9.39209 158.828 9.39209 158.828C9.39209 158.828 18.5876 160.187 18.0007 158.828C17.6094 157.469 17.2181 153.002 17.4137 151.837C17.6094 150.672 19.3702 150.866 21.5223 150.866C23.6745 150.866 24.6527 150.672 24.4571 145.429C24.4571 140.185 20.7398 137.078 20.7398 137.078C17.805 134.165 15.6529 136.496 14.0877 139.409Z" fill="#FDBC99"/>
<path d="M22.108 171.451L30.3253 164.46L26.2167 156.304L18.782 160.382L22.108 171.451Z" fill="#F59D04"/>
<path d="M11.3477 158.246C13.6954 159.411 16.2389 159.217 17.4128 158.44C18.5867 157.663 19.3693 158.828 19.3693 158.828C19.3693 158.828 22.891 162.518 24.6518 171.645C26.6083 180.772 28.9561 198.055 28.9561 198.055H0C0 198.055 0.195652 189.122 1.76085 176.888C3.32604 164.654 7.63032 159.605 7.63032 159.605C8.41292 158.634 8.99986 157.081 11.3477 158.246Z" fill="#FABC42"/>
<path d="M12.913 145.041C11.5435 144.458 10.5653 142.71 11.3478 141.934C12.1304 141.157 13.6956 141.545 13.6956 141.545C13.6956 141.545 14.0869 145.623 12.913 145.041Z" fill="#FDBC99"/>
<path d="M9.7832 176.888C9.7832 176.888 10.1745 180.772 12.3266 189.511C14.4788 198.249 20.5439 213.008 21.3265 213.979C22.1091 214.95 22.1091 219.222 22.6961 221.164C23.283 223.106 26.0221 221.941 27.196 220.776C28.3699 219.611 27.196 216.698 27.196 216.698C27.196 216.698 24.6525 210.678 22.8917 204.464C21.1309 198.055 18.0005 174.946 18.0005 174.946L9.7832 176.888Z" fill="#FDBC99"/>
<path d="M8.80439 178.054C8.80439 178.054 8.41309 172.616 8.41309 167.956C8.41309 163.295 11.5435 163.295 11.5435 163.295C16.826 163.295 18.7825 176.112 18.7825 176.112L8.80439 178.054Z" fill="#F59D04"/>
</g>
<defs>
<clipPath id="clip0_3707_5325">
<rect width="320" height="300" fill="white"/>
</clipPath>
</defs>
</svg>
