<svg width="340" height="270" viewBox="0 0 340 270" fill="none" xmlns="http://www.w3.org/2000/svg">
<g clip-path="url(#clip0_3375_2702)">
<path d="M256.771 82.6942C245.443 73.4812 243.832 57.8241 245.292 43.9794C245.544 41.6636 245.443 39.1967 246.702 37.2333C247.961 35.2698 250.629 34.0616 252.643 35.2195C254.304 36.176 254.908 38.1898 255.764 39.9519C256.872 42.2677 258.684 44.2311 260.849 45.5401C262.258 46.3959 264.071 47.0001 265.581 46.2952C267.645 45.3387 268.098 42.5698 268.249 40.2539C268.551 35.9243 268.803 31.645 269.105 27.3658C269.256 25.0499 269.407 22.6837 270.314 20.5693C271.169 18.4548 272.931 16.4914 275.147 16.0383C277.412 15.5852 280.03 17.0452 280.332 19.3107C280.433 20.2672 280.181 21.2238 280.181 22.1803C280.181 23.1368 280.533 24.2444 281.44 24.5465C282.346 24.8989 283.302 24.2948 284.058 23.6906C286.625 21.5258 288.438 18.6562 290.149 15.7866C291.861 12.9169 293.573 9.94662 295.888 7.58043C298.255 5.21425 301.376 3.40185 304.699 3.4522C308.021 3.50254 311.395 5.81838 311.999 9.09076C312.603 12.4135 310.488 15.5852 308.223 18.0521C304.9 21.7272 301.024 24.9492 296.744 27.5168C295.989 27.9699 295.133 28.4733 294.831 29.3292C294.227 30.8395 295.586 32.4505 297.046 33.105C298.708 33.8098 300.621 33.7595 302.383 34.1119C304.145 34.4643 306.058 35.3705 306.612 37.1326C307.367 39.5491 305.253 41.9153 303.188 43.3753C299.06 46.3456 294.428 48.5607 289.595 49.9704C287.833 50.4738 286.021 50.8766 284.561 51.9842C283.101 53.0917 282.144 55.1055 282.849 56.7669C283.554 58.4786 285.669 59.1331 287.431 58.9317C289.243 58.7303 290.904 57.8745 292.616 57.371C295.888 56.4145 299.966 56.9179 301.779 59.7875C302.987 61.7006 302.937 64.2178 302.081 66.282C301.275 68.3964 299.765 70.1585 298.154 71.7192C292.616 77.3074 285.769 81.637 278.268 83.7011C270.767 85.7149 263.92 85.9163 256.771 82.6942Z" fill="#023EA1"/>
<path d="M261 74.2367C263.568 67.3899 266.991 60.0899 270.817 52.5383C271.774 50.6755 272.73 48.8128 273.687 47.0004C274.643 45.188 275.55 43.3756 276.607 41.6639C278.621 38.2405 280.836 35.1191 283.051 32.1992C285.266 29.2792 287.431 26.6109 289.495 24.0937C291.559 21.5765 293.522 19.311 295.436 17.2972C299.211 13.2697 302.635 10.4 305.051 8.48696C306.26 7.53041 307.216 6.82559 307.871 6.37249C308.173 6.17112 308.424 5.96974 308.626 5.86905C308.777 5.76836 308.877 5.71802 308.877 5.71802C308.877 5.71802 308.777 5.76836 308.626 5.9194C308.424 6.07043 308.223 6.22146 307.921 6.47318C307.266 6.97663 306.31 7.68145 305.152 8.63799C302.735 10.5511 299.362 13.471 295.637 17.4986C293.774 19.5124 291.811 21.8282 289.747 24.2951C287.683 26.8123 285.518 29.4806 283.353 32.4005C281.188 35.3205 278.973 38.4419 276.959 41.8653C275.952 43.577 274.996 45.339 274.09 47.2018C273.133 49.0142 272.176 50.8769 271.22 52.7397C267.394 60.241 263.97 67.5409 261.403 74.3877" fill="#E0E0E0"/>
<path d="M276.707 41.6639C276.657 41.6639 276.606 41.3114 276.556 40.657C276.455 40.0025 276.405 39.0963 276.304 37.888C276.153 35.5722 276.053 32.3501 275.902 28.826C275.801 25.3019 275.65 22.0799 275.448 19.7641C275.348 18.6061 275.247 17.6496 275.197 17.0455C275.146 16.391 275.096 16.0386 275.146 16.0386C275.197 16.0386 275.247 16.391 275.348 17.0455C275.448 17.6999 275.599 18.6061 275.75 19.7641C276.002 22.0799 276.254 25.3019 276.355 28.826C276.455 32.2998 276.556 35.4715 276.606 37.888C276.657 38.9956 276.657 39.9018 276.707 40.657C276.757 41.3114 276.757 41.6639 276.707 41.6639Z" fill="#E0E0E0"/>
<path d="M306.763 38.2403C306.763 38.2907 306.36 38.2907 305.554 38.2907C304.799 38.2907 303.692 38.341 302.332 38.3914C299.614 38.4921 295.838 38.7438 291.659 39.2472C287.481 39.7507 283.755 40.3548 281.087 40.8582C279.728 41.11 278.67 41.3113 277.915 41.4624C277.16 41.6134 276.757 41.7141 276.757 41.6638C276.757 41.6134 277.16 41.5127 277.915 41.3113C278.67 41.11 279.728 40.8079 281.087 40.5562C283.755 39.952 287.531 39.2976 291.71 38.8445C295.888 38.341 299.664 38.1396 302.433 38.1396C303.792 38.1396 304.9 38.1397 305.705 38.19C306.36 38.19 306.763 38.2403 306.763 38.2403Z" fill="#E0E0E0"/>
<path d="M261.402 73.7331C261.402 73.7331 261.352 73.6324 261.201 73.3807C261.1 73.0787 260.949 72.7262 260.748 72.2731C260.395 71.3166 259.892 69.907 259.288 68.1449C258.079 64.6208 256.619 59.7374 255.059 54.3506C253.498 48.9134 252.038 44.03 250.931 40.5059C250.377 38.7942 249.924 37.3845 249.622 36.3273C249.471 35.8742 249.37 35.5218 249.269 35.1694C249.168 34.9176 249.168 34.7666 249.168 34.7666C249.168 34.7666 249.219 34.8673 249.37 35.119C249.471 35.4211 249.622 35.7735 249.823 36.2266C250.175 37.1831 250.679 38.5928 251.283 40.3548C252.491 43.8789 253.951 48.7623 255.512 54.1492C257.073 59.5864 258.533 64.4698 259.64 67.9939C260.194 69.7056 260.647 71.1152 260.949 72.1725C261.1 72.6256 261.201 72.978 261.301 73.3304C261.402 73.5821 261.402 73.7331 261.402 73.7331Z" fill="#E0E0E0"/>
<path d="M301.778 63.8653C301.778 63.8653 301.627 63.9157 301.376 64.0164C301.074 64.1171 300.671 64.2177 300.218 64.3184C299.11 64.5702 297.65 64.9226 295.888 65.3757C292.263 66.2819 287.229 67.5908 281.641 69.0005C276.103 70.4604 271.068 71.7191 267.393 72.5246C265.581 72.9273 264.071 73.2797 263.064 73.4811C262.611 73.5818 262.208 73.6321 261.855 73.6825C261.604 73.7328 261.453 73.7328 261.453 73.7328C261.453 73.7328 261.604 73.6825 261.855 73.5818C262.157 73.4811 262.56 73.3804 263.013 73.2797C264.121 73.028 265.581 72.6756 267.343 72.2225C270.968 71.3163 276.002 70.0073 281.59 68.5977C287.128 67.1377 292.163 65.8791 295.838 65.0736C297.65 64.6708 299.161 64.3184 300.167 64.1171C300.621 64.0164 301.023 63.966 301.376 63.9157C301.627 63.8653 301.778 63.815 301.778 63.8653Z" fill="#E0E0E0"/>
<path d="M258.908 53.9389C258.908 53.9389 277.578 33.1234 281.335 11.6822" stroke="#FCBE42" stroke-width="0.618344" stroke-miterlimit="10"/>
<path d="M281.294 -2.98465C281.294 -2.98465 274.352 2.13035 280.901 13.8879C280.901 13.8879 288.139 10.8965 281.294 -2.98465Z" fill="#FCBE42"/>
<path d="M274.997 29.9452C274.997 29.9452 276.982 21.4334 266.113 11.3934C266.101 11.3811 261.622 17.2172 274.997 29.9452Z" fill="#FCBE42"/>
<path d="M265.022 46.1077C265.022 46.1077 268.943 38.9579 259.415 27.6219C259.415 27.6219 253.378 31.8316 265.022 46.1077Z" fill="#FCBE42"/>
<path d="M265.34 46.5051C265.34 46.5051 269.852 39.8681 282.027 46.8724C282.027 46.8724 280.541 54.9337 265.34 46.5051Z" fill="#FCBE42"/>
<path d="M274.921 29.7867C274.921 29.7867 278.219 22.1539 290.548 27.7757C290.559 27.788 290.27 36.4646 274.921 29.7867Z" fill="#FCBE42"/>
<path d="M80.0539 133.13C108.529 133.13 131.612 110.077 131.612 81.6395C131.612 53.2023 108.529 30.1494 80.0539 30.1494C51.579 30.1494 28.4956 53.2023 28.4956 81.6395C28.4956 110.077 51.579 133.13 80.0539 133.13Z" stroke="#DC051F" stroke-miterlimit="10" stroke-dasharray="6 6"/>
<path d="M39.5644 57.0587C42.7015 57.0587 45.2446 54.5189 45.2446 51.386C45.2446 48.2531 42.7015 45.7134 39.5644 45.7134C36.4274 45.7134 33.8843 48.2531 33.8843 51.386C33.8843 54.5189 36.4274 57.0587 39.5644 57.0587Z" fill="#003EAE"/>
<path d="M40.5841 48.7676L36.7974 50.8039L40.2928 52.8402L40.5841 48.7676Z" fill="white"/>
<path d="M288.898 122.774C291.083 122.774 293.267 122.774 295.452 122.774C295.452 122.774 295.598 122.774 295.743 122.92C297.345 123.211 298.074 124.083 298.365 125.683C298.511 127.138 298.802 128.738 298.948 130.192C299.093 130.919 300.258 131.356 300.987 130.919C302.152 130.047 303.463 128.883 304.773 128.01C306.23 126.992 307.832 126.992 309.143 128.156C310.453 129.465 311.91 130.919 313.221 132.374C314.386 133.538 314.386 135.283 313.366 136.738C312.638 137.756 311.764 139.065 310.89 140.083C310.308 140.665 310.162 141.247 310.745 142.119C310.89 142.265 311.036 142.556 311.327 142.556C312.784 142.701 314.532 142.992 315.988 143.137C317.153 143.283 318.173 143.865 318.464 145.028C318.61 145.319 318.61 145.61 318.755 146.047C318.755 148.228 318.755 150.41 318.755 152.737C318.755 152.883 318.61 153.028 318.61 153.174C318.173 154.483 317.444 155.355 315.988 155.501C314.532 155.646 312.929 155.937 311.473 156.083C310.745 156.083 310.162 157.392 310.745 158.119C311.619 159.283 312.784 160.737 313.658 161.901C314.677 163.21 314.532 164.955 313.512 166.264C312.201 167.719 310.745 169.173 309.288 170.482C308.123 171.646 306.375 171.646 304.919 170.628C303.608 169.755 302.297 168.592 300.987 167.719C300.55 167.283 299.093 167.719 298.948 168.446C298.802 170.046 298.511 171.646 298.219 173.246C298.074 174.41 297.345 175.428 296.035 175.719C295.889 175.719 295.598 175.864 295.306 176.01C292.976 176.01 290.791 176.01 288.607 176.01C288.607 176.01 288.461 176.01 288.461 175.864C287.005 175.573 286.131 174.701 285.84 173.101C285.694 171.646 285.403 170.046 285.257 168.737C285.111 168.01 283.946 167.428 283.072 168.01C281.907 168.883 280.596 170.046 279.285 170.773C277.829 171.792 276.227 171.792 274.916 170.628C273.605 169.319 272.149 167.864 270.838 166.41C269.673 165.246 269.673 163.501 270.692 162.046C271.421 161.028 272.295 159.719 273.168 158.701C273.751 158.119 273.751 157.392 273.314 156.665C273.168 156.519 273.023 156.228 272.877 156.228C271.421 156.083 269.819 155.792 268.508 155.646C266.469 155.501 265.449 154.337 265.449 152.301C265.449 150.265 265.449 148.374 265.449 146.337C265.449 144.447 266.469 143.283 268.216 143.137C269.673 142.992 271.275 142.701 272.731 142.556C273.46 142.556 273.897 141.247 273.46 140.519C272.586 139.356 271.421 137.901 270.547 136.738C269.527 135.429 269.527 133.683 270.692 132.374C272.003 131.065 273.46 129.61 274.916 128.156C276.081 126.992 277.829 126.992 279.285 128.01C280.596 128.883 281.907 130.047 283.218 130.919C283.655 131.356 285.111 130.919 285.257 130.192C285.403 128.738 285.694 126.992 285.985 125.538C286.131 124.229 286.859 123.356 288.17 123.065C288.17 122.92 288.461 122.92 288.898 122.774ZM310.745 134.847C309.434 133.538 308.123 132.083 306.667 130.774C304.773 132.083 303.026 133.538 301.132 134.847C300.841 134.992 300.55 134.992 300.258 134.847C299.093 134.265 297.782 133.829 296.617 133.247C296.18 133.101 295.889 132.81 295.889 132.374C295.598 130.192 295.306 128.01 295.015 125.829C295.015 125.538 294.869 125.392 294.578 125.392C293.122 125.392 291.52 125.392 290.063 125.392C289.626 125.392 289.626 125.538 289.481 125.829C289.189 128.01 288.898 130.192 288.607 132.374C288.607 132.81 288.461 132.956 287.879 133.101C286.713 133.538 285.403 133.974 284.237 134.556C283.8 134.701 283.509 134.701 283.218 134.556C281.325 133.247 279.577 131.792 277.829 130.629C276.518 131.938 275.062 133.392 273.751 134.701C273.751 134.847 273.897 134.992 274.042 135.138C275.207 136.738 276.518 138.338 277.683 139.938C277.829 140.083 277.829 140.374 277.829 140.665C277.246 141.974 276.664 143.428 275.936 144.737C275.936 144.883 275.644 145.174 275.499 145.174C274.334 145.319 273.023 145.465 271.858 145.61C270.692 145.756 269.382 145.901 268.216 146.047C268.216 148.083 268.216 149.828 268.216 151.719C268.362 151.719 268.653 151.865 268.945 151.865C271.129 152.156 273.168 152.446 275.353 152.737C275.79 152.737 275.936 152.883 276.081 153.319C276.518 154.483 276.955 155.792 277.538 156.955C277.683 157.392 277.683 157.683 277.538 158.119C276.227 160.01 274.77 161.755 273.605 163.501C274.916 164.81 276.227 166.119 277.683 167.573C277.829 167.573 277.975 167.428 278.266 167.137C279.868 165.973 281.616 164.664 283.072 163.501C283.218 163.355 283.509 163.355 283.8 163.355C285.111 163.792 286.422 164.519 287.879 164.955C288.315 165.101 288.461 165.246 288.461 165.683C288.752 167.864 289.044 170.046 289.335 172.228C289.335 172.664 289.481 172.81 289.918 172.81C291.374 172.81 292.976 172.81 294.287 172.81C294.724 172.81 294.869 172.664 294.869 172.228C295.161 170.046 295.452 167.864 295.743 165.537C295.743 165.246 295.889 164.955 296.18 164.81C297.491 164.374 298.948 163.646 300.258 163.21C300.404 163.21 300.695 163.21 300.987 163.21C302.589 164.374 304.336 165.683 305.938 166.846C306.084 166.992 306.375 167.137 306.375 167.137C307.686 165.828 309.143 164.374 310.453 163.064C310.453 162.919 310.308 162.774 310.162 162.628C308.997 161.028 307.686 159.428 306.521 157.828C306.375 157.683 306.375 157.392 306.375 157.246C306.958 155.937 307.541 154.337 308.269 153.028C308.269 152.883 308.56 152.737 308.706 152.737C309.58 152.592 310.599 152.446 311.473 152.446C312.929 152.301 314.532 152.01 315.988 151.865C315.988 149.828 315.988 148.083 315.988 146.192C313.512 145.901 311.327 145.465 308.851 145.174C308.56 145.174 308.414 145.028 308.269 144.737C307.832 143.428 307.249 142.119 306.667 140.956C306.521 140.519 306.521 140.374 306.667 139.938C307.978 138.338 309.288 136.592 310.745 134.847Z" stroke="#DE051F" stroke-miterlimit="10"/>
<path d="M310.745 134.847C309.434 136.738 308.123 138.483 306.667 140.229C306.376 140.52 306.376 140.811 306.667 141.247C307.25 142.411 307.687 143.865 308.269 145.029C308.415 145.32 308.56 145.465 308.852 145.465C311.328 145.756 313.512 146.047 315.988 146.483C315.988 148.374 315.988 150.12 315.988 152.156C314.532 152.301 312.93 152.592 311.473 152.738C310.599 152.883 309.58 152.883 308.706 153.029C308.56 153.029 308.269 153.174 308.269 153.32C307.687 154.629 307.104 156.083 306.376 157.538C306.376 157.683 306.376 157.974 306.521 158.119C307.687 159.719 308.997 161.465 310.163 162.919C310.308 163.065 310.454 163.21 310.454 163.356C309.143 164.665 307.832 165.974 306.376 167.428C306.376 167.428 306.084 167.283 305.939 167.137C304.337 165.974 302.589 164.665 300.987 163.501C300.841 163.356 300.55 163.356 300.259 163.501C298.948 163.938 297.491 164.665 296.181 165.101C295.889 165.247 295.744 165.392 295.744 165.828C295.452 168.01 295.161 170.192 294.87 172.519C294.87 172.956 294.724 173.101 294.287 173.101C292.831 173.101 291.229 173.101 289.918 173.101C289.481 173.101 289.335 172.956 289.335 172.519C289.044 170.337 288.753 168.156 288.461 165.974C288.461 165.538 288.316 165.392 287.879 165.247C286.568 164.81 285.257 164.083 283.801 163.647C283.655 163.647 283.364 163.647 283.073 163.792C281.47 164.956 279.723 166.265 278.266 167.428C278.121 167.574 277.829 167.719 277.684 167.865C276.373 166.556 275.062 165.247 273.606 163.792C274.916 161.901 276.227 160.301 277.538 158.41C277.829 157.974 277.829 157.683 277.538 157.247C276.955 156.083 276.519 154.774 276.082 153.61C275.936 153.174 275.79 153.029 275.353 153.029C273.169 152.738 271.13 152.447 268.945 152.156C268.799 152.156 268.508 152.156 268.217 152.01C268.217 150.12 268.217 148.374 268.217 146.338C269.382 146.192 270.693 146.047 271.858 145.901C273.023 145.756 274.334 145.611 275.499 145.465C275.645 145.465 275.936 145.32 275.936 145.029C276.519 143.72 277.101 142.265 277.829 140.956C277.829 140.811 277.829 140.52 277.684 140.229C276.519 138.629 275.208 136.883 274.043 135.429C273.897 135.283 273.751 135.138 273.751 134.993C275.062 133.683 276.373 132.229 277.829 130.92C279.431 132.083 281.325 133.538 283.218 134.847C283.51 135.138 283.801 135.138 284.238 134.847C285.403 134.265 286.714 133.829 287.879 133.393C288.316 133.247 288.461 133.102 288.607 132.665C288.898 130.484 289.19 128.302 289.481 126.12C289.481 125.684 289.627 125.684 290.064 125.684C291.52 125.684 293.122 125.684 294.579 125.684C294.87 125.684 295.015 125.684 295.015 126.12C295.307 128.302 295.598 130.484 295.889 132.665C295.889 133.102 296.181 133.393 296.618 133.538C297.783 133.974 299.094 134.556 300.259 135.138C300.55 135.283 300.841 135.283 301.133 135.138C303.026 133.829 304.774 132.374 306.667 131.065C307.978 132.083 309.289 133.393 310.745 134.847ZM280.451 149.101C280.451 155.501 285.549 160.738 291.957 160.738C298.511 160.738 303.608 155.647 303.608 149.247C303.608 142.702 298.511 137.611 292.103 137.611C285.694 137.611 280.451 142.701 280.451 149.101Z" stroke="#DE051F" stroke-miterlimit="10"/>
<path d="M296.398 54.1208H48.5854V222.589H296.398V54.1208Z" fill="#0064B5"/>
<path d="M296.398 197.688H48.5854V222.521H296.398V197.688Z" fill="#FFC727"/>
<path d="M296.398 197.688H48.5854V222.521H296.398V197.688Z" fill="#033E9F"/>
<path d="M220.785 252.917H124.199V260.991H220.785V252.917Z" fill="#FFC727"/>
<path d="M220.785 252.917H124.199V260.991H220.785V252.917Z" fill="#033E9F"/>
<path d="M209.315 252.917H135.67L137.57 238.94L137.638 238.262L137.842 236.972L137.91 236.294L138.113 235.005V234.801L138.181 234.326L138.385 233.037L138.453 232.359L139.742 222.589H205.242L206.464 231.816L206.532 232.223L206.735 233.784L206.803 234.191L206.871 234.801L207.007 235.751V236.158L207.211 237.719L207.278 238.126L209.315 252.917Z" fill="#0064B5"/>
<path d="M176.531 208.476C176.531 210.715 174.699 212.547 172.459 212.547C170.219 212.547 168.386 210.715 168.386 208.476C168.386 206.237 170.219 204.405 172.459 204.405C174.699 204.337 176.531 206.169 176.531 208.476Z" fill="white"/>
<g opacity="0.16">
<path d="M206.872 234.801L138.454 232.359L139.743 222.589H205.243L206.872 234.801Z" fill="black"/>
</g>
<path d="M285.324 65.0439H60.3853V186.018H285.324V65.0439Z" fill="white"/>
<path d="M278.856 215.519C278.856 215.519 281.914 214.355 281.769 210.719C281.623 207.083 279.584 204.61 283.662 205.774C287.449 206.792 288.614 207.228 291.527 206.646C294.294 206.065 296.479 204.756 295.459 208.537C294.294 212.174 292.983 215.083 295.751 215.664C298.663 216.246 301.722 214.065 302.013 219.737C302.305 225.41 297.79 231.519 290.653 231.81C283.516 232.101 280.021 229.046 280.021 229.046C280.021 229.046 277.982 226.282 281.04 225.555C284.099 224.828 287.303 223.519 285.555 222.21C284.099 220.901 279.001 220.755 279.001 220.755C279.001 220.755 272.739 219.155 278.856 215.519Z" fill="#649CE8"/>
<path d="M312.499 216.392C312.062 212.755 312.353 210.137 319.053 209.264C325.753 208.392 329.539 212.319 329.976 216.392C330.413 220.464 324.587 222.064 324.587 222.064C324.587 222.064 320.509 223.228 322.403 226.719C324.587 230.355 325.461 233.7 320.801 234.282C316.14 234.719 310.897 233.555 307.984 231.664C305.071 229.628 302.158 224.973 305.508 222.355C305.508 222.355 306.382 221.773 309.586 221.628C312.79 221.337 312.499 216.392 312.499 216.392Z" fill="#033E9F"/>
<path d="M289.052 215.81C289.052 215.81 294.586 228.318 295.314 236.755" stroke="#82D8FD" stroke-miterlimit="10" stroke-linecap="round" stroke-linejoin="round"/>
<path d="M319.782 217.846C319.782 217.846 310.024 232.246 307.839 237.192" stroke="#579DD3" stroke-miterlimit="10" stroke-linecap="round" stroke-linejoin="round"/>
<path d="M291.963 235.737H314.247C314.247 235.737 316.723 235.882 316.577 239.228C316.432 242.282 312.499 241.7 310.46 241.7C308.276 241.7 291.527 241.7 291.527 241.7C291.527 241.7 288.759 242.137 288.759 239.082C288.759 236.028 289.633 235.737 291.963 235.737Z" fill="#0054A3"/>
<path d="M291.527 241.7L294.877 261.336H309.878L312.5 246.646L291.527 241.7Z" fill="#0054A3"/>
<path d="M291.527 241.7L312.5 246.646L313.228 241.7H291.527Z" fill="#016AD3"/>
<path d="M301.139 236.464C301.139 236.464 302.159 214.646 308.858 200.828Z" fill="#FABC42"/>
<path d="M314.102 192.974C314.102 192.974 314.539 199.665 307.985 202.429C308.13 202.283 306.674 196.61 314.102 192.974Z" fill="#FABC42"/>
<path d="M304.343 214.355C304.343 214.355 306.819 208.537 314.247 209.41C314.101 209.265 313.519 215.083 304.343 214.355Z" fill="#FABC42"/>
<path d="M301.868 228.755C301.868 228.755 303.033 222.646 310.752 221.918C310.461 221.918 311.043 227.737 301.868 228.755Z" fill="#FABC42"/>
<path d="M301.576 228.755C301.576 228.755 302.45 222.501 295.605 219.446C295.605 219.446 293.129 224.682 301.576 228.755Z" fill="#FABC42"/>
<path d="M304.49 214.21C304.49 214.21 306.092 208.101 299.829 204.174C299.684 204.319 296.479 209.119 304.49 214.21Z" fill="#FABC42"/>
<path d="M77.5771 127.748H129.427C131.029 127.748 132.485 126.439 132.485 124.693V74.9488C132.485 73.3488 131.174 71.8943 129.427 71.8943H77.5771C75.975 71.8943 74.5186 73.2034 74.5186 74.9488V124.403C74.5186 126.293 75.975 127.748 77.5771 127.748Z" stroke="#003EB0" stroke-width="0.5" stroke-miterlimit="10" stroke-dasharray="2 2"/>
<path d="M139.039 127.748H256.866C257.74 127.748 258.323 127.166 258.323 126.294V73.4946C258.323 72.6218 257.74 72.04 256.866 72.04H139.039C138.166 72.04 137.583 72.6218 137.583 73.4946V126.003C137.583 126.876 138.311 127.748 139.039 127.748Z" fill="white"/>
<path d="M257.987 88.7666H155.308C153.269 88.7666 151.521 87.1667 151.521 84.9849C151.521 82.9485 153.123 81.2031 155.308 81.2031H257.987C260.026 81.2031 261.774 82.8031 261.774 84.9849C261.774 87.0212 260.172 88.7666 257.987 88.7666Z" fill="#033E9F"/>
<path d="M215.459 97.0573H153.706C152.686 97.0573 151.667 96.1846 151.667 95.021C151.667 94.0028 152.54 92.9846 153.706 92.9846H215.75C216.77 92.9846 217.789 93.8573 217.789 95.021C217.789 96.1846 216.77 97.0573 215.459 97.0573Z" fill="#DBE9F8"/>
<path d="M258.614 133.857C258.614 133.13 258.031 132.402 257.158 132.402H76.121C75.3928 132.402 74.6646 132.984 74.6646 133.857V162.22C74.6646 162.365 74.6646 162.366 74.6646 162.511C74.6646 162.656 74.6646 162.656 74.6646 162.802V185.056C74.6646 185.783 75.2471 186.511 76.121 186.511H257.158C257.886 186.511 258.614 185.929 258.614 185.056V162.802C258.614 162.656 258.614 162.656 258.614 162.511C258.614 162.366 258.614 162.365 258.614 162.22V133.857Z" fill="white"/>
<path d="M137.875 149.42H88.3557C86.4623 149.42 85.0059 147.966 85.0059 146.075C85.0059 144.184 86.4623 142.729 88.3557 142.729H137.875C139.768 142.729 141.225 144.184 141.225 146.075C141.37 147.82 139.623 149.42 137.875 149.42Z" fill="#EE384E"/>
<path d="M232.544 155.093H86.171C85.5884 155.093 85.0059 154.512 85.0059 153.93C85.0059 153.348 85.5884 152.766 86.171 152.766H232.544C233.127 152.766 233.709 153.348 233.709 153.93C233.564 154.512 233.127 155.093 232.544 155.093Z" fill="#DBE9F8"/>
<path d="M242.258 105.203H153.561C152.978 105.203 152.396 104.621 152.396 104.039C152.396 103.458 152.978 102.876 153.561 102.876H242.258C242.841 102.876 243.424 103.458 243.424 104.039C243.569 104.621 242.987 105.203 242.258 105.203Z" fill="#DBE9F8"/>
<path d="M80.9463 125.699H126.253C127.601 125.699 128.949 124.472 128.949 122.836V76.8874C128.949 75.3876 127.736 74.0242 126.253 74.0242H80.9463C79.5979 74.0242 78.2495 75.2513 78.2495 76.8874V122.699C78.2495 124.336 79.4631 125.699 80.9463 125.699Z" fill="white" stroke="#0055DB" stroke-width="0.4721" stroke-miterlimit="10"/>
<path d="M117.563 105.371C116.71 102.728 115.175 100.502 112.447 98.9715C111.935 98.6932 111.423 98.415 110.912 98.1367C110.059 99.528 109.035 100.641 107.841 101.615C105.795 103.006 103.407 103.563 100.849 102.728C98.9725 102.172 97.6081 101.198 96.5847 99.8063C96.2436 99.2498 95.7319 98.6932 95.3908 98.1367C94.0263 98.6932 92.1502 99.9454 91.1269 101.198C88.7391 104.119 87.8863 107.319 88.2274 110.798C88.2274 111.493 88.7391 111.771 89.4213 111.911C89.933 112.05 90.4446 112.05 90.9563 112.05C99.1431 112.05 107.33 112.05 115.517 112.05C115.858 112.05 116.369 112.05 116.71 112.05C117.904 112.05 118.416 111.493 118.416 110.519C118.416 108.711 118.075 107.041 117.563 105.371Z" fill="#C6D7F0"/>
<path d="M99.825 100.502C101.531 101.754 103.577 101.893 105.453 101.058C106.477 100.641 107.329 99.9454 108.012 99.1106C109.547 97.441 110.4 95.6323 110.57 93.5454C110.911 91.3193 110.229 89.2323 108.523 87.5628C105.624 84.641 100.848 84.641 97.9488 87.4236C96.4138 88.9541 95.561 90.7628 95.561 92.7106C95.561 93.8236 95.7316 94.9367 96.2433 96.0497C96.9255 97.7193 98.1194 99.2497 99.825 100.502Z" fill="#C6D7F0"/>
<path d="M39.5442 149.266C39.5442 149.266 63.0221 126.351 64.7829 124.604C66.7394 122.856 68.1089 121.885 69.8698 121.108C71.8263 120.331 72.4132 119.555 74.1741 117.807C75.9349 116.059 74.1741 115.477 74.1741 115.477C74.1741 114.894 73.5871 114.7 73.5871 114.7C73.7828 114.312 73.0002 113.923 73.0002 113.923C73.0002 113.923 73.5871 112.758 74.5654 111.787C75.5436 110.816 74.5654 111.01 74.5654 111.01L71.6306 113.729C70.2611 113.341 68.1089 115.088 66.935 116.642C65.7611 118.39 64.9785 118.778 64.9785 118.778L36.0225 141.887L39.5442 149.266Z" fill="#FDBC99"/>
<path d="M30.7398 121.886C34.6528 116.837 29.1746 111.205 29.1746 111.205C29.1746 111.205 28.7833 111.788 27.4138 113.924C26.0442 116.06 24.2834 115.866 21.5443 117.225C18.6096 118.779 13.7183 121.303 14.6966 128.877C15.6748 136.256 22.3269 136.45 22.3269 136.45C22.3269 136.45 26.8268 126.935 30.7398 121.886Z" fill="#180957"/>
<path d="M18.804 266.559C20.7605 268.112 26.4343 270.831 26.4343 270.831C27.0213 271.219 26.8256 272.19 26.8256 272.579C26.8256 272.773 26.63 272.773 26.63 272.773C25.2604 272.773 15.478 272.773 12.7389 272.579C10.1954 272.579 11.1737 267.724 11.3693 266.947C11.3693 266.947 11.3693 266.753 11.565 266.753C12.3476 266.364 16.8475 265.005 18.804 266.559Z" fill="#160956"/>
<path d="M43.2608 265.976C46.3912 267.918 52.8476 270.637 52.8476 270.637C53.8259 271.025 53.8259 271.996 53.6302 272.19C53.6302 272.385 53.4346 272.385 53.4346 272.385C51.8694 272.385 39.7391 272.579 37.3913 272.385C35.0436 272.19 35.8261 266.947 36.0218 266.17C36.0218 266.17 36.0218 265.976 36.2175 265.976C37 265.588 40.7174 264.228 43.2608 265.976Z" fill="#160956"/>
<path d="M19.5868 182.862L23.8911 198.786L24.478 213.35L18.8042 266.559L11.5652 266.753L10 183.056L19.5868 182.862Z" fill="#0064DF"/>
<path d="M38.9563 182.862L43.6519 265.976H36.4128L26.826 222.671C24.6739 218.593 17.8262 183.056 17.8262 183.056L38.9563 182.862Z" fill="#003EAE"/>
<path d="M24.0877 124.409C22.3268 127.322 22.7181 130.818 22.3268 133.73C21.9355 136.838 19.3921 143.828 19.3921 143.828C19.3921 143.828 28.5876 145.188 28.0007 143.828C27.6094 142.469 27.2181 138.003 27.4137 136.838C27.6094 135.672 29.3702 135.867 31.5223 135.867C33.6745 135.867 34.6527 135.672 34.4571 130.429C34.4571 125.186 30.7398 122.079 30.7398 122.079C27.805 119.166 25.6529 121.496 24.0877 124.409Z" fill="#FDBC99"/>
<path d="M32.1083 156.451L40.3255 149.46L36.2169 141.304L28.7822 145.382L32.1083 156.451Z" fill="#F59D04"/>
<path d="M21.3477 143.246C23.6954 144.411 26.2389 144.217 27.4128 143.44C28.5867 142.663 29.3693 143.829 29.3693 143.829C29.3693 143.829 32.891 147.518 34.6518 156.645C36.6083 165.772 38.9561 183.056 38.9561 183.056H10C10 183.056 10.1957 174.123 11.7608 161.889C13.326 149.654 17.6303 144.605 17.6303 144.605C18.4129 143.634 18.9999 142.081 21.3477 143.246Z" fill="#FABC42"/>
<path d="M22.9133 130.041C21.5437 129.458 20.5655 127.711 21.3481 126.934C22.1307 126.157 23.6959 126.546 23.6959 126.546C23.6959 126.546 24.0872 130.624 22.9133 130.041Z" fill="#FDBC99"/>
<path d="M19.7832 161.889C19.7832 161.889 20.1745 165.773 22.3266 174.511C24.4788 183.25 30.5439 198.009 31.3265 198.98C32.1091 199.95 32.1091 204.223 32.6961 206.165C33.283 208.107 36.0221 206.941 37.196 205.776C38.3699 204.611 37.196 201.698 37.196 201.698C37.196 201.698 34.6525 195.678 32.8917 189.464C31.1309 183.056 28.0005 159.947 28.0005 159.947L19.7832 161.889Z" fill="#FDBC99"/>
<path d="M18.8044 163.054C18.8044 163.054 18.4131 157.617 18.4131 152.956C18.4131 148.295 21.5435 148.295 21.5435 148.295C26.826 148.295 28.7825 161.112 28.7825 161.112L18.8044 163.054Z" fill="#F59D04"/>
</g>
<defs>
<clipPath id="clip0_3375_2702">
<rect width="340" height="270" fill="white"/>
</clipPath>
</defs>
</svg>
