<svg width="320" height="300" viewBox="0 0 320 300" fill="none" xmlns="http://www.w3.org/2000/svg">
<path fill-rule="evenodd" clip-rule="evenodd" d="M38.7153 109.068L41.8885 106.152L42.6604 103.58C45.319 95.4321 50.5506 88.228 57.4116 83.168L59.1268 81.9674L55.9536 84.8833L54.2384 86.084C46.434 91.8301 41.2024 99.806 38.7153 109.068ZM110.67 92.7734L113.843 89.8575L114.186 72.1047L111.013 75.0206L110.67 92.7734ZM129.624 68.8457C127.908 67.2162 126.365 65.7582 124.478 64.2145C101.579 45.604 68.2177 43.6315 44.3757 61.2986C46.3482 60.1837 48.1492 59.1545 50.2075 58.2111C74.6498 46.8905 103.895 51.2644 123.878 69.2745L126.365 71.6759L128.08 73.3911L131.253 70.4752L129.624 68.8457Z" fill="#5C93BC"/>
<path fill-rule="evenodd" clip-rule="evenodd" d="M106.21 150.406L109.383 147.49C105.181 151.178 100.55 153.837 95.2327 155.638L94.6323 155.809L91.4591 158.725C97.1194 156.924 101.665 154.351 106.21 150.406ZM207.324 86.7705L210.498 83.8545L212.556 67.9885L194.117 63.5288L190.944 66.4447L209.383 70.9044L207.324 86.7705Z" fill="#D58D0B"/>
<path fill-rule="evenodd" clip-rule="evenodd" d="M190.944 66.4447L194.117 63.5288L193.945 63.7003L193.774 63.8719L193.517 63.9576L193.345 64.1291L193.174 64.3007L193.002 64.4722L192.745 64.6437L192.573 64.7295L192.402 64.901L192.23 65.0725L192.059 65.2441L188.885 68.16L189.057 67.9885L189.228 67.8169L189.4 67.6454L189.571 67.4739L189.829 67.3024L190 67.2166L190.172 67.0451L190.343 66.8735L190.601 66.702L190.772 66.5305L190.944 66.4447Z" fill="#5C93BC"/>
<path fill-rule="evenodd" clip-rule="evenodd" d="M207.239 146.375L191.201 147.833L188.028 150.749L204.065 149.291C206.295 151.264 208.011 152.722 210.498 154.351C228.422 165.672 252.436 161.641 265.471 144.746L265.9 144.145L269.073 141.229C262.47 149.977 253.036 155.723 242.144 157.353C230.223 159.154 217.873 155.723 208.782 147.747L207.239 146.375ZM288.542 157.267C294.802 151.607 298.061 143.716 300.463 135.741L284.854 141.915L276.192 125.363L273.019 128.279L281.681 144.831L297.289 138.656L296.346 141.572C294.459 147.319 291.972 152.207 288.542 157.267Z" fill="#5C93BC"/>
<path fill-rule="evenodd" clip-rule="evenodd" d="M298.49 134.111L301.663 131.195L302.435 127.079C306.723 99.463 293.773 71.8475 269.331 57.954C248.062 45.8614 221.475 46.2045 200.635 58.9831L198.148 60.6126L194.975 63.5285C197.633 61.8133 199.692 60.5268 202.608 59.0689C227.393 46.7191 257.753 50.8357 278.25 69.6177C295.574 85.398 303.293 109.068 299.005 132.053L298.49 134.111Z" fill="#236CD8"/>
<path fill-rule="evenodd" clip-rule="evenodd" d="M200.549 145.775L203.723 142.859L177.222 116.359L174.22 119.36L200.549 145.775ZM183.911 166.101L187.085 163.185L187.428 144.403L184.255 147.319L183.911 166.101ZM134.855 74.0776L117.874 75.6214L114.701 78.5373L131.682 76.9936L155.696 101.007L158.697 98.0054L134.855 74.0776Z" fill="#5C93BC"/>
<path fill-rule="evenodd" clip-rule="evenodd" d="M103.38 182.224L106.553 179.308L109.126 163.957L86.6565 157.61C79.1951 158.382 72.2484 157.439 65.3016 154.437C48.5779 147.233 38.801 129.909 40.8593 111.813L41.0308 110.612L26.4512 116.358L16.9315 98.3481L13.7583 101.264L23.2779 119.274L37.8576 113.528C37.6861 113.785 37.5145 117.645 37.4288 118.245C36.7427 143.116 57.583 162.67 82.2826 160.612L83.3975 160.526L105.867 166.872L103.38 182.224Z" fill="#236CD8"/>
<path fill-rule="evenodd" clip-rule="evenodd" d="M49.4356 90.2007C65.4732 74.1631 91.888 74.1631 107.926 90.2007L110.584 92.8594L110.927 75.1065L128.166 73.5628L126.45 71.8475C100.207 45.6042 57.24 45.6042 30.9966 71.8475C23.8783 78.9658 18.6468 87.3706 15.3878 96.3756L24.9932 114.643L38.7152 109.24C40.5163 102.122 44.0325 95.6038 49.4356 90.2007Z" fill="#0064E1"/>
<path fill-rule="evenodd" clip-rule="evenodd" d="M49.4355 148.691C39.9158 139.171 36.0565 126.05 37.7718 113.528L23.1921 119.274L13.6725 101.264C7.41182 123.991 13.1579 149.377 30.9108 167.13C50.3789 186.598 79.0236 191.658 103.294 182.224L105.867 166.873L83.3975 160.526C71.3049 161.813 58.6978 157.953 49.4355 148.691Z" fill="#236CD8"/>
<path fill-rule="evenodd" clip-rule="evenodd" d="M155.695 137.884L183.911 166.1L184.254 147.232L200.549 145.774L174.22 119.445L155.695 137.884Z" fill="#0E66B4"/>
<path fill-rule="evenodd" clip-rule="evenodd" d="M155.695 101.007L131.682 76.9077L114.701 78.4514L114.358 96.5473L137.256 119.446L155.695 101.007Z" fill="#0E66B4"/>
<path fill-rule="evenodd" clip-rule="evenodd" d="M211.527 83.8541C227.393 74.4202 248.405 76.5642 261.955 90.1147C270.617 98.7767 274.562 110.355 273.962 121.761L283.567 140.029L298.576 134.111C303.379 112.327 297.375 88.571 280.48 71.7615C257.324 48.6056 221.218 45.8612 195.06 63.5283L213.671 68.0737L211.527 83.8541Z" fill="#0E66B4"/>
<path fill-rule="evenodd" clip-rule="evenodd" d="M261.955 148.691C246.089 164.557 220.189 164.728 204.065 149.291L188.028 150.749L187.685 169.703C214.1 193.373 255.094 192.515 280.48 167.13C288.713 158.897 294.288 149.12 297.375 138.657L281.766 144.831L273.104 128.279C271.475 135.741 267.787 142.945 261.955 148.691Z" fill="#0064E1"/>
<path fill-rule="evenodd" clip-rule="evenodd" d="M126.45 167.13L155.695 137.885L174.134 119.446L203.379 90.2011C204.58 89.0004 205.866 87.8855 207.239 86.7706L209.297 70.9045L190.858 66.4448C188.8 68.0743 186.827 69.8753 184.94 71.7621L155.695 101.007L137.256 119.446L108.011 148.691C103.209 153.494 97.5482 156.839 91.4591 158.811L110.327 164.128L107.582 180.423C114.358 177.25 120.79 172.79 126.45 167.13Z" fill="#FABD4F"/>
<path d="M138.41 14.8147L138.753 13.271L136.266 10.4408L133.436 11.5558C132.492 10.4408 131.463 9.49745 130.263 8.72559L131.035 5.7239L126.489 4.18018L125.288 7.01034C123.916 6.83881 122.458 6.92458 121.086 7.26763L119.542 4.69475L115.597 5.29509L115.254 6.83881L116.369 9.66898C115.254 10.5266 114.311 11.6415 113.539 12.8422L110.537 12.0703L109.337 15.072L108.994 16.6157L111.824 17.8164C111.652 19.1886 111.738 20.6466 112.081 22.0188L109.851 22.1046L109.508 23.6483L111.652 27.9364L114.482 26.8215C115.34 27.9364 116.455 28.8798 117.656 29.6517L116.884 32.6534L121.429 34.1971L122.63 31.3669C124.002 31.5384 125.46 31.4527 126.832 31.1096L128.376 33.6825L132.664 31.5384L133.007 29.9947L131.549 28.7083C132.664 27.7649 133.607 26.7357 134.379 25.5351L137.381 26.3069L138.925 21.7615L139.268 20.2178L136.094 20.4751C136.266 19.1029 136.18 17.6449 135.837 16.2727L138.41 14.8147ZM127.175 26.1354C123.402 28.0222 118.856 26.3927 116.969 22.6191C115.083 18.8456 116.712 14.3002 120.486 12.4134C124.259 10.5266 128.805 12.1561 130.691 15.9296C132.492 19.7032 130.949 24.3344 127.175 26.1354Z" fill="#EC384E"/>
<path d="M172.458 25.3635L173.058 23.5625L167.827 21.8472L165.339 24.5916C163.71 23.9055 162.08 23.4767 160.365 23.3052L159.508 19.7032L154.362 18.7598L153.762 20.5608L153.933 24.2486C152.389 24.8489 150.846 25.7065 149.559 26.8214L146.386 24.8489L143.47 27.6791L142.87 29.4801L145.614 31.9672C144.928 33.5109 144.499 35.2262 144.328 36.9414L141.326 35.998L140.726 37.7991L141.583 43.5452L145.271 43.3736C145.871 44.9173 146.729 46.4611 147.844 47.7475L146.472 49.1197L145.871 50.9207L150.503 54.437L152.99 51.6926C154.533 52.3787 156.249 52.8075 157.964 52.979L158.821 56.5811L164.568 55.7234L165.168 53.9224L164.396 52.0356C165.94 51.4353 167.484 50.5777 168.77 49.4628L171.943 51.4353L175.459 46.8041L176.06 45.0031L172.715 44.317C173.401 42.6875 173.83 41.058 174.001 39.3428L177.603 38.4852L178.204 36.6841L176.746 32.7391L173.058 32.9106C172.458 31.3669 171.6 29.8231 170.485 28.5367L172.458 25.3635ZM166.626 43.6309C163.624 47.6618 157.792 48.5194 153.762 45.5177C149.731 42.516 148.873 36.6841 151.875 32.6533C154.876 28.6225 160.708 27.7648 164.739 30.7665C168.856 33.854 169.713 39.6001 166.626 43.6309Z" fill="#023EA1"/>
<path d="M265.733 247.372C265.733 247.372 268.814 246.117 268.586 242.586C268.358 239.055 266.535 236.553 270.3 237.572C274.065 238.6 275.332 239.055 278.067 238.482C280.802 237.909 283.073 236.772 281.883 240.302C280.692 243.833 279.392 246.791 282.212 247.364C285.023 247.937 288.046 245.805 288.409 251.333C288.772 256.86 284.306 263.079 277.079 263.307C269.853 263.534 266.661 260.543 266.661 260.543C266.661 260.543 264.72 257.813 267.742 257.147C270.764 256.473 273.846 255.2 272.301 253.785C270.764 252.378 265.741 252.26 265.741 252.26C265.741 252.26 259.46 251.012 265.733 247.372Z" fill="#649EEA"/>
<path d="M298.758 248.282C298.251 244.759 298.64 242.223 305.199 241.262C311.759 240.302 315.583 244.237 315.98 248.282C316.377 252.326 310.678 253.793 310.678 253.793C310.678 253.793 306.626 254.947 308.686 258.478C310.746 262.008 311.675 265.421 307.015 265.935C302.354 266.449 297.255 265.219 294.419 263.331C291.582 261.444 288.67 256.657 291.92 254.155C291.92 254.155 292.832 253.531 295.972 253.354C299.096 253.177 298.758 248.282 298.758 248.282Z" fill="#023EA1"/>
<path d="M275.677 247.709C275.677 247.709 281.123 260.003 281.866 268.371" stroke="#023EA1" stroke-width="1.24002" stroke-miterlimit="10"/>
<path d="M305.959 249.731C305.959 249.731 296.318 264.023 294.039 268.8" stroke="#649EEA" stroke-width="1.24002" stroke-miterlimit="10"/>
<path d="M278.505 267.41H300.632C300.632 267.41 303.055 267.578 302.852 270.881C302.667 273.923 298.8 273.266 296.808 273.266C294.815 273.266 278.024 273.266 278.024 273.266C278.024 273.266 275.305 273.729 275.305 270.654C275.305 267.578 276.335 267.41 278.505 267.41Z" fill="#0054A5"/>
<path d="M278.033 273.266L281.384 292.782H296.243L298.758 278.137L278.058 273.266H278.033Z" fill="#0054A5"/>
<path d="M278.058 273.266L298.758 278.137L299.594 273.266H278.058Z" fill="#006AD5"/>
<path d="M287.572 268.151C287.572 268.151 288.695 246.495 295.162 232.912" stroke="#FCBE42" stroke-width="1.24002" stroke-miterlimit="10"/>
<path d="M300.481 225.093C300.481 225.093 301.013 231.741 294.512 234.337C294.512 234.337 293.111 228.657 300.481 225.093Z" fill="#FCBE42"/>
<path d="M290.73 246.251C290.73 246.251 293.128 240.58 300.49 241.339C300.498 241.339 299.924 246.985 290.73 246.251Z" fill="#FCBE42"/>
<path d="M288.307 260.517C288.307 260.517 289.548 254.483 296.918 253.792C296.918 253.792 297.467 259.447 288.307 260.517Z" fill="#FCBE42"/>
<path d="M288.054 260.551C288.054 260.551 288.907 254.459 282.195 251.341C282.195 251.341 279.789 256.489 288.054 260.551Z" fill="#FCBE42"/>
<path d="M290.814 246.209C290.814 246.209 292.444 240.269 286.179 236.325C286.171 236.325 283.132 241.128 290.814 246.209Z" fill="#FCBE42"/>
<path d="M81.2782 211.535C81.3079 211.535 81.3377 211.535 81.3674 211.535L117.908 211.506C118.814 211.506 119.543 210.777 119.543 209.869C119.543 208.962 118.8 208.218 117.908 208.233L81.3674 208.263C80.4609 208.263 79.7328 208.992 79.7328 209.899C79.7179 210.777 80.4015 211.491 81.2782 211.535Z" fill="url(#paint0_linear_3707_5450)"/>
<path d="M132.04 175.716C132.025 175.746 132.01 175.761 131.995 175.791L116.615 208.962C116.229 209.78 116.586 210.762 117.403 211.134C118.22 211.52 119.201 211.164 119.572 210.331L134.952 177.159C135.339 176.341 134.982 175.359 134.165 174.987C133.377 174.63 132.441 174.958 132.04 175.716Z" fill="url(#paint1_linear_3707_5450)"/>
<path d="M104.609 215.939C104.476 216.608 91.265 274.532 87.9067 289.228C87.5203 290.924 88.9172 292.486 90.7301 292.397C91.9932 292.337 93.0482 291.459 93.3009 290.269L109.825 215.537L104.609 215.939Z" fill="#023EA1"/>
<path d="M71.9757 291.994C65.6157 291.994 62.7923 291.444 61.5292 290.953C61.7669 291.994 62.7031 292.827 63.877 292.827H86.4047C87.1626 292.827 87.6381 292.098 87.4598 291.444C84.9039 291.637 79.4503 291.994 71.9757 291.994Z" fill="url(#paint2_linear_3707_5450)"/>
<path d="M87.4609 291.43C87.4312 291.296 87.3717 291.162 87.2826 291.043C85.5737 288.856 82.1262 285.405 77.4304 285.48C70.5651 285.584 68.0845 287.477 62.7498 286.674L61.5749 289.704C61.4411 290.136 61.4411 290.552 61.5303 290.954C62.7934 291.459 65.6019 291.995 71.9768 291.995C79.4514 291.995 84.905 291.638 87.4609 291.43Z" fill="#170856"/>
<path d="M64.3823 281.017L62.8369 286.283C62.8369 286.283 66.2547 287.845 69.2713 286.595L69.8657 282.043L64.3823 281.017Z" fill="url(#paint3_linear_3707_5450)"/>
<path d="M111.058 288.678C106.095 292.664 103.554 294.018 102.261 294.42C103.108 295.074 104.342 295.134 105.263 294.405L122.813 280.288C123.407 279.812 123.318 278.949 122.768 278.548C120.911 280.303 116.884 283.992 111.058 288.678Z" fill="url(#paint4_linear_3707_5450)"/>
<path d="M122.782 278.532C122.678 278.458 122.545 278.384 122.396 278.354C119.691 277.729 114.862 277.223 111.251 280.213C105.961 284.602 104.549 286.669 99.8979 289.406L101.518 293.437C101.681 293.854 101.949 294.181 102.261 294.434C103.554 294.032 106.095 292.694 111.058 288.692C116.883 283.992 120.91 280.303 122.782 278.532Z" fill="#170856"/>
<path d="M31.3197 221.085C31.3197 221.085 69.4355 224.194 77.2518 227.883C85.0682 231.572 69.4501 286.674 69.4501 286.674C69.4501 286.674 67.4899 288.146 62.7495 286.674C62.7495 286.674 68.8708 244.647 65.2599 236.391L23.9938 229.638L31.3197 221.085Z" fill="#DE051F"/>
<path d="M48.5334 152.459C48.5334 152.459 46.9129 157.082 44.326 161.581C41.7392 166.079 40.5192 167.841 40.5192 167.841C40.5192 167.841 45.3363 175.307 51.2396 175.157C57.1215 175.014 52.9222 172.763 52.9222 172.763C52.9222 172.763 52.9721 166.182 53.7717 160.467C54.5713 154.753 54.5699 154.763 54.5699 154.763L48.5334 152.459Z" fill="#FFB48F"/>
<path d="M62.3394 141.277C62.3394 141.277 64.681 145.489 63.7474 152.161C62.8152 158.823 61.1933 163.457 58.3086 163.053C55.424 162.649 49.9312 159.939 49.2429 157.9C48.5545 155.862 46.6347 155.593 47.1664 151.793C47.6981 147.993 53.6927 140.088 57.5422 140.626C61.3817 141.164 62.3394 141.277 62.3394 141.277Z" fill="#FFBF99"/>
<path d="M65.2132 141.681C65.2132 141.681 69.1526 134.474 67.3682 133.238C65.581 132.022 61.4862 133.381 60.3874 134.203C59.2999 135.017 57.3802 134.748 56.4153 134.613C56.4153 134.613 46.8164 133.27 44.6301 134.906C42.4438 136.543 42.3112 137.49 42.1773 138.448C42.0447 139.395 41.5113 143.134 40.2902 144.976C39.7622 145.777 38.6696 149.599 40.045 153.686C41.4217 157.763 43.2188 158.981 44.1738 159.114C45.1287 159.248 45.9941 159.369 46.2261 158.435C46.4792 157.424 47.0601 156.026 47.7141 154.759C48.3498 153.55 49.2021 151.083 49.2021 151.083C49.2021 151.083 50.8227 146.46 53.009 144.824C55.1953 143.187 55.1953 143.187 59.1575 142.776C63.158 142.38 63.8591 144.4 65.2132 141.681Z" fill="#170856"/>
<path d="M51.2997 146.828C52.4956 148.646 50.1767 151.23 50.1767 151.23C50.1767 151.23 47.1694 151.775 47.5685 148.923C47.9677 146.07 50.0952 144.999 51.2997 146.828Z" fill="#FFBF99"/>
<path d="M96.1084 282.147C96.465 282.474 99.8977 289.406 99.8977 289.406C99.8977 289.406 103.717 288.573 104.504 286.163L101.072 279.901L96.1084 282.147Z" fill="url(#paint5_linear_3707_5450)"/>
<path d="M8.36126 220.758C8.36126 220.758 7.11303 223.748 7.17247 227.72C7.24677 233.224 11.6602 237.686 17.1435 237.954L62.1988 240.007C63.1499 240.051 63.9523 240.706 64.1901 241.628C65.2451 245.734 70.4313 258.318 95.7229 283.442C96.3916 284.111 99.4706 290.307 100.273 289.801L105.187 287.121C105.558 286.883 102.35 280.72 102.113 280.333L75.8849 235.485C74.5029 233.209 72.2888 231.558 69.718 230.903L31.3199 221.071L8.36126 220.758Z" fill="#EE384E"/>
<path d="M7.5437 221.085C7.5437 221.085 19.714 224.045 31.3196 221.085C31.3196 221.085 47.5616 199.218 53.8473 193.268C53.8473 193.268 63.8778 209.11 86.1826 211.342L87.4308 208.56C87.4308 208.56 69.6732 200.364 64.1898 187.765C58.7214 175.165 56.5221 169.796 51.544 166.508C48.4383 164.455 46.5957 163.057 45.6298 162.298C45.1097 161.882 44.3815 161.837 43.802 162.179C38.5416 165.407 13.6957 182.454 7.5437 221.085Z" fill="#0083F9"/>
<path d="M53.1929 193.373C52.8363 193.373 52.4796 193.209 52.2567 192.911C48.3486 187.809 46.1642 182.187 46.075 181.949C45.8372 181.339 46.1493 180.654 46.7586 180.416C47.3678 180.178 48.0514 180.491 48.2891 181.101C48.304 181.16 50.4438 186.649 54.1291 191.469C54.5303 191.989 54.4263 192.733 53.9062 193.135C53.6981 193.283 53.4455 193.373 53.1929 193.373Z" fill="#0064B7"/>
<path d="M84.8453 207.117L87.3567 206.448L94.9798 204.678C95.9011 204.47 96.867 204.633 97.6546 205.124L104.208 209.259L86.0936 209.23L84.8453 207.117Z" fill="url(#paint6_linear_3707_5450)"/>
<path d="M168.028 215.834C168.161 216.503 181.372 274.427 184.73 289.123C185.117 290.819 183.72 292.381 181.907 292.292C180.644 292.232 179.589 291.354 179.336 290.164L162.812 215.432L168.028 215.834Z" fill="#023EA1"/>
<path d="M22.7754 290.317H26.4458L26.4458 247.432H22.7754L22.7754 290.317Z" fill="#023EA1"/>
<path d="M8.55347 291.087H40.6807V289.064C40.6807 288.87 40.5172 288.707 40.324 288.707H8.91011C8.71693 288.707 8.55347 288.87 8.55347 289.064V291.087Z" fill="#023EA1"/>
<path d="M3.78394 245.048C3.78394 247.22 5.55227 248.99 7.72182 248.99H40.2354C42.4049 248.99 44.1733 247.22 44.1733 245.048V241.478C44.1733 239.306 42.4049 237.536 40.2354 237.536H7.72182C5.55227 237.536 3.78394 239.306 3.78394 241.478V245.048Z" fill="#023EA1"/>
<path d="M95.0837 214.748C94.9202 215.447 78.7674 276.048 74.681 291.414C74.2054 293.184 75.528 294.925 77.3409 294.925C78.604 294.925 79.7036 294.047 80.0157 292.813L100.329 214.614L95.0837 214.748Z" fill="#023EA1"/>
<path d="M178.371 216.325C178.535 217.024 194.688 277.625 198.774 292.991C199.25 294.761 197.927 296.502 196.114 296.502C194.851 296.502 193.751 295.624 193.439 294.39L173.78 216.325H178.371Z" fill="#023EA1"/>
<path d="M72.4172 210.734H194.011C195.714 210.734 197.195 211.244 197.618 211.982L199.321 214.917C199.933 215.967 198.141 217.002 195.692 216.988L70.9257 216.661C68.5103 216.661 66.7405 215.64 67.3304 214.591L68.8108 211.982C69.2227 211.244 70.7031 210.734 72.4172 210.734Z" fill="#023EA1"/>
<path d="M225.137 168.277L219.643 168.2L213.43 167.699C213.43 167.699 212.712 171.409 216.293 171.91C219.874 172.41 225.15 172.975 226.074 172.834C226.998 172.705 225.137 168.277 225.137 168.277Z" fill="#FFBF9C"/>
<path d="M229.156 141.158C229.156 141.158 223.495 147.075 222.635 150.143C221.775 153.211 223.636 157.999 224.201 159.36C224.779 160.72 224.419 178.357 224.419 178.357L247.409 178.434L247.307 141.119L229.156 141.158Z" fill="#0064B7"/>
<path d="M215.718 123.649C215.718 123.649 216.257 128.142 217.22 131.043V133.366C217.22 133.674 217.49 133.905 217.785 133.88L219.248 133.726L219.158 135.523C219.145 135.767 219.338 135.985 219.595 135.998L220.724 136.062C220.955 136.075 221.122 136.293 221.058 136.524L220.853 137.281C220.788 137.512 220.93 137.756 221.161 137.808C221.982 137.987 223.843 138.141 225.884 136.729C228.131 135.163 229.414 136.01 229.453 137.333C229.491 138.719 228.311 142.968 230.172 143.905C231.776 144.713 236.603 144.277 237.514 143.314C238.605 142.159 237.411 139.399 235.91 137.846C234.844 136.742 233.073 123.97 230.506 122.802C227.925 121.608 215.718 123.649 215.718 123.649Z" fill="#FFBD99"/>
<path d="M242.209 159.141L242.427 166.997C242.427 167.638 241.914 168.178 241.272 168.19C240.605 168.203 239.963 168.203 238.371 167.561C234.777 166.111 226.087 161.336 224.906 160.668C224.816 160.617 224.752 160.553 224.713 160.476C224.469 160.027 223.455 158.473 220.76 158.615C217.602 158.781 216.845 159.475 217.114 160.489C217.384 161.503 217.705 161.349 217.705 161.349L217.281 161.939C217.281 161.939 217.705 162.953 219.052 162.902C220.387 162.85 222.056 162.209 222.531 162.684C222.955 163.107 236.689 172.285 239.873 174.403C240.335 174.711 240.848 174.929 241.4 175.058C243.48 175.507 248.268 176.2 249.051 172.811C250.014 168.64 250.014 159.154 250.014 159.154L242.209 159.141Z" fill="#FFBF9C"/>
<path d="M242.147 145.236C241.775 145.03 241.325 145.313 241.325 145.736L241.248 159.882C241.248 160.215 241.518 160.498 241.852 160.498C242.339 160.511 243.199 160.524 244.753 160.536C247.268 160.575 249.309 160.562 250.247 160.549C250.555 160.549 250.798 160.292 250.798 159.972L250.606 150.049C250.606 149.844 250.49 149.664 250.311 149.561L242.147 145.236Z" fill="#0083F9"/>
<path d="M237.563 121.503C237.563 121.503 234.559 107.794 223.854 111.221C223.854 111.221 218.925 112.942 216.999 116.792C216.999 116.792 209.926 117.858 211.428 123.429C212.93 129 216.139 125.572 216.139 125.572C216.139 125.572 217.525 122.684 219.027 124.712C220.529 126.741 224.059 128.037 225.24 126.099C226.421 124.173 228.565 122.89 229.206 125.778C229.848 128.666 240.772 147.741 246.664 150.308C252.556 152.875 256.522 147.946 254.699 140.989C252.877 134.032 237.781 122.453 237.781 122.453L237.563 121.503Z" fill="#170D54"/>
<path d="M204.576 151.784L190.508 152.144L207.863 171.283L222.278 170.782L204.576 151.784Z" fill="#14094F"/>
<path d="M203.637 165.852C203.637 165.852 202.212 168.561 203.496 169.203C204.779 169.844 206.063 170.204 206.641 169.485C207.218 168.766 207.552 166.635 206.859 166.777C206.256 166.892 205.858 166.918 205.858 166.918L205.768 166.289C205.781 166.096 205.691 165.917 205.524 165.814C205.036 165.506 204.022 164.992 203.637 165.852Z" fill="#FFBF9C"/>
<path d="M228.462 178.228L224.419 178.164L224.278 288.029L233.135 288.183L237.846 216.339L228.462 178.228Z" fill="#DE051F"/>
<path d="M247.419 178.419C247.419 178.419 247.586 182.18 247.843 183.631C248.01 184.517 253.17 193.168 249.114 203.733C249.037 203.938 248.985 204.156 248.972 204.387C248.857 206.762 248.266 221.023 251.27 228.468L266.841 278.889L260.846 283.176C260.846 283.176 240.423 239.328 239.846 237.325C239.268 235.323 226.15 192.36 227.844 180.345L228.178 178.111L247.419 178.419Z" fill="#EE384E"/>
<path d="M224.279 288.03C224.279 288.03 218.99 290.957 216.564 291.599C214.729 292.087 214.279 293.473 214.177 294.115C214.151 294.294 214.292 294.448 214.472 294.448H233.136V288.159L224.279 288.03Z" fill="#1C1457"/>
<path d="M260.849 283.176C260.849 283.176 259.283 287.605 255.997 290.249C252.711 292.894 255.997 294.601 255.997 294.601L269.706 286C269.758 285.975 269.783 285.936 269.809 285.885C269.976 285.564 270.605 284.191 269.912 282.817C269.129 281.251 266.844 278.889 266.844 278.889L260.849 283.176Z" fill="#1C1457"/>
<defs>
<linearGradient id="paint0_linear_3707_5450" x1="104.536" y1="110.409" x2="101.321" y2="175.387" gradientUnits="userSpaceOnUse">
<stop stop-color="#09005D"/>
<stop offset="1" stop-color="#1A0F91"/>
</linearGradient>
<linearGradient id="paint1_linear_3707_5450" x1="40.4355" y1="148.076" x2="-17.0949" y2="117.814" gradientUnits="userSpaceOnUse">
<stop stop-color="#09005D"/>
<stop offset="1" stop-color="#1A0F91"/>
</linearGradient>
<linearGradient id="paint2_linear_3707_5450" x1="61.536" y1="291.882" x2="87.5037" y2="291.882" gradientUnits="userSpaceOnUse">
<stop stop-color="#09005D"/>
<stop offset="1" stop-color="#1A0F91"/>
</linearGradient>
<linearGradient id="paint3_linear_3707_5450" x1="62.8333" y1="284.05" x2="69.8593" y2="284.05" gradientUnits="userSpaceOnUse">
<stop stop-color="#FEBBBA"/>
<stop offset="1" stop-color="#FF928E"/>
</linearGradient>
<linearGradient id="paint4_linear_3707_5450" x1="102.266" y1="286.732" x2="123.232" y2="286.732" gradientUnits="userSpaceOnUse">
<stop stop-color="#09005D"/>
<stop offset="1" stop-color="#1A0F91"/>
</linearGradient>
<linearGradient id="paint5_linear_3707_5450" x1="96.112" y1="284.641" x2="104.5" y2="284.641" gradientUnits="userSpaceOnUse">
<stop stop-color="#FEBBBA"/>
<stop offset="1" stop-color="#FF928E"/>
</linearGradient>
<linearGradient id="paint6_linear_3707_5450" x1="84.8504" y1="206.918" x2="104.226" y2="206.918" gradientUnits="userSpaceOnUse">
<stop stop-color="#FEBBBA"/>
<stop offset="1" stop-color="#FF928E"/>
</linearGradient>
</defs>
</svg>
