<svg width="320" height="300" viewBox="0 0 320 300" fill="none" xmlns="http://www.w3.org/2000/svg">
<g clip-path="url(#clip0_3707_5575)">
<path d="M82.814 123.163C104.414 117.375 117.239 95.1963 111.459 73.6248C105.679 52.0534 83.4826 39.2581 61.8826 45.0458C40.2825 50.8335 27.4579 73.0125 33.2379 94.584C39.018 116.156 61.214 128.951 82.814 123.163Z" stroke="#DC051F" stroke-width="0.842519" stroke-miterlimit="10" stroke-dasharray="5.06 5.06"/>
<path d="M36.6382 73.6879C39.0179 73.0503 40.4308 70.6069 39.794 68.2303C39.1572 65.8538 36.7119 64.4442 34.3322 65.0818C31.9525 65.7194 30.5397 68.1629 31.1764 70.5394C31.8132 72.9159 34.2585 74.3256 36.6382 73.6879Z" fill="#003EAE"/>
<path d="M35.7263 67.1917L33.2677 69.5061L36.3331 70.3403L35.7263 67.1917Z" fill="white"/>
<path d="M280.139 176.058C270.656 169.502 268.468 157.12 268.905 146.194C269.051 144.301 268.76 142.407 269.635 140.804C270.51 139.202 272.553 138.037 274.157 138.911C275.47 139.639 276.054 141.096 276.929 142.407C277.95 144.155 279.555 145.612 281.306 146.486C282.473 147.068 283.932 147.505 285.099 146.923C286.703 146.049 286.849 143.864 286.849 141.97C286.849 138.619 286.703 135.123 286.703 131.773C286.703 130.024 286.703 128.131 287.287 126.383C287.87 124.634 289.037 123.032 290.934 122.595C292.685 122.158 294.873 123.178 295.165 124.926C295.311 125.654 295.165 126.383 295.311 127.111C295.456 127.839 295.748 128.713 296.478 128.859C297.207 129.15 297.936 128.568 298.52 127.985C300.416 126.091 301.729 123.76 302.897 121.43C304.064 118.953 305.231 116.622 306.981 114.583C308.732 112.543 311.066 110.941 313.692 110.795C316.318 110.65 319.09 112.252 319.819 114.874C320.549 117.496 318.944 120.118 317.339 122.158C314.859 125.217 311.941 127.985 308.878 130.316C308.294 130.753 307.711 131.19 307.419 131.773C306.981 132.938 308.148 134.249 309.315 134.686C310.628 135.123 312.233 134.977 313.546 135.123C315.005 135.269 316.61 135.997 317.047 137.308C317.777 139.202 316.172 141.096 314.713 142.407C311.65 145.029 308.148 146.923 304.355 148.379C303.042 148.962 301.584 149.254 300.562 150.273C299.541 151.293 298.812 152.895 299.541 154.206C300.271 155.518 301.875 155.955 303.334 155.663C304.793 155.372 306.106 154.643 307.419 154.206C310.045 153.187 313.254 153.478 314.859 155.663C315.88 157.12 316.026 159.159 315.443 160.762C314.859 162.51 313.838 163.967 312.671 165.278C308.586 170.085 303.48 173.873 297.645 175.912C291.518 177.66 286.12 178.097 280.139 176.058Z" fill="#FCBE42"/>
<path d="M279.992 184.215C280.43 179.845 281.305 174.6 283.056 169.065C284.66 163.529 286.994 157.556 289.62 151.438C290.35 149.981 290.933 148.379 291.517 146.922C292.246 145.465 292.83 143.863 293.559 142.552C295.018 139.638 296.623 137.162 298.082 134.685C299.686 132.209 301.291 130.024 302.75 127.984C304.209 125.945 305.668 124.051 306.981 122.303C309.752 118.952 312.232 116.476 314.129 114.728C315.004 113.854 315.734 113.271 316.171 112.98C316.463 112.688 316.609 112.543 316.755 112.543C316.901 112.397 317.047 112.397 317.047 112.397L316.901 112.543C316.755 112.688 316.609 112.834 316.317 112.98C315.88 113.417 315.15 113.999 314.275 114.873C312.524 116.476 310.044 118.952 307.272 122.449C305.959 124.197 304.501 126.09 303.042 128.13C301.583 130.169 299.978 132.5 298.519 134.831C296.915 137.307 295.31 139.93 293.997 142.697C293.267 144.154 292.684 145.611 292.1 147.068C291.371 148.524 290.787 150.127 290.204 151.584C287.578 157.702 285.244 163.675 283.639 169.21C282.034 174.746 281.013 179.845 280.575 184.215" fill="#263238"/>
<path d="M293.709 142.553C293.709 142.553 293.563 142.261 293.563 141.824C293.418 141.241 293.272 140.513 293.126 139.639C292.834 137.891 292.542 135.269 292.25 132.501C291.959 129.733 291.667 127.111 291.375 125.363C291.229 124.489 291.083 123.76 290.937 123.178C290.792 122.595 290.792 122.304 290.792 122.304C290.792 122.304 290.938 122.595 291.083 123.032C291.229 123.615 291.375 124.197 291.521 125.072C291.959 126.82 292.25 129.442 292.542 132.21C292.834 134.977 293.126 137.454 293.272 139.348C293.418 140.222 293.418 140.95 293.563 141.533C293.709 142.261 293.709 142.553 293.709 142.553Z" fill="#263238"/>
<path d="M317.194 138.036C317.194 138.036 316.902 138.182 316.173 138.182C315.589 138.327 314.714 138.327 313.547 138.473C311.358 138.765 308.441 139.202 305.085 139.784C301.876 140.367 298.958 141.095 296.77 141.678C295.749 141.969 294.873 142.261 294.29 142.406C293.706 142.552 293.415 142.698 293.415 142.698C293.415 142.698 293.706 142.552 294.29 142.261C294.873 141.969 295.749 141.824 296.77 141.532C298.812 140.95 301.876 140.221 305.085 139.639C308.295 139.056 311.358 138.619 313.547 138.473C314.568 138.327 315.443 138.327 316.173 138.327C316.902 138.036 317.194 138.036 317.194 138.036Z" fill="#263238"/>
<path d="M283.348 168.628C283.348 168.628 283.202 168.482 283.202 168.336C283.056 168.045 282.91 167.754 282.764 167.462C282.327 166.734 281.889 165.714 281.451 164.257C280.284 161.49 278.825 157.848 277.367 153.623C275.908 149.399 274.449 145.611 273.282 142.989C272.698 141.678 272.261 140.512 271.969 139.784C271.823 139.347 271.677 139.056 271.531 138.91C271.385 138.619 271.385 138.619 271.385 138.619C271.385 138.619 271.531 138.764 271.531 138.91C271.677 139.201 271.823 139.493 271.969 139.784C272.406 140.512 272.844 141.532 273.282 142.989C274.449 145.757 275.908 149.399 277.367 153.623C278.971 157.848 280.284 161.635 281.451 164.257C282.035 165.569 282.472 166.734 282.764 167.462C282.91 167.899 283.056 168.191 283.202 168.336C283.348 168.628 283.348 168.628 283.348 168.628Z" fill="#263238"/>
<path d="M314.714 158.577C314.714 158.577 314.568 158.722 314.422 158.722C314.276 158.722 313.839 158.868 313.547 159.014C312.672 159.305 311.65 159.742 310.192 160.033C307.274 160.907 303.481 162.219 299.104 163.675C294.874 165.132 290.935 166.443 288.017 167.317C286.558 167.754 285.391 168.046 284.662 168.337C284.224 168.483 283.932 168.483 283.787 168.628C283.495 168.774 283.495 168.774 283.495 168.774C283.495 168.774 283.641 168.628 283.787 168.628C283.932 168.628 284.37 168.483 284.662 168.337C285.537 168.046 286.558 167.609 288.017 167.317C290.935 166.443 294.728 165.132 299.104 163.675C303.481 162.219 307.274 160.907 310.192 160.033C311.65 159.596 312.818 159.305 313.547 159.014C313.985 158.868 314.276 158.868 314.422 158.722C314.568 158.577 314.714 158.577 314.714 158.577Z" fill="#263238"/>
<path d="M273.961 215.828H65.7831C59.8019 215.828 54.8418 210.875 54.8418 204.902V74.8143C54.8418 68.8416 59.8019 63.8887 65.7831 63.8887H273.961C279.942 63.8887 284.902 68.8416 284.902 74.8143V204.902C284.902 210.875 279.942 215.828 273.961 215.828Z" fill="#0064B5"/>
<path d="M281.253 217.867H58.4874C51.0473 217.867 45.2119 211.894 45.2119 204.61H294.383C294.529 211.894 288.548 217.867 281.253 217.867Z" fill="#0054A3"/>
<path d="M278.046 69.8608H60.9694V198.201H278.046V69.8608Z" fill="#0054A3"/>
<path d="M147.187 204.465L150.251 209.418H193.87L196.642 204.465H147.187Z" fill="#0064B5"/>
<path d="M271.628 197.764H67.9734C66.6605 197.764 65.4934 196.598 65.4934 195.287V76.7079C65.4934 75.3968 66.6605 74.2314 67.9734 74.2314H271.628C272.941 74.2314 274.108 75.3968 274.108 76.7079V195.287C274.108 196.598 272.941 197.764 271.628 197.764Z" fill="#EBEBEB"/>
<path d="M274.108 83.2627H65.4934V197.763H274.108V83.2627Z" fill="white"/>
<path d="M82.7053 79.038C82.7053 79.912 81.9759 80.6404 81.1006 80.6404C80.2253 80.6404 79.4958 79.912 79.4958 79.038C79.4958 78.1639 80.2253 77.4356 81.1006 77.4356C81.83 77.2899 82.7053 78.0183 82.7053 79.038Z" fill="white"/>
<path d="M72.4953 79.038C72.4953 79.912 71.7659 80.6404 70.8906 80.6404C70.0153 80.6404 69.2859 79.912 69.2859 79.038C69.2859 78.1639 70.0153 77.4356 70.8906 77.4356C71.7659 77.2899 72.4953 78.0183 72.4953 79.038Z" fill="#EE384E"/>
<path d="M77.3105 79.038C77.3105 79.912 76.5811 80.6404 75.7058 80.6404C74.8305 80.6404 74.1011 79.912 74.1011 79.038C74.1011 78.1639 74.8305 77.4356 75.7058 77.4356C76.5811 77.2899 77.3105 78.0183 77.3105 79.038Z" fill="#C6D7F0"/>
<path d="M283.007 204.465C283.007 204.61 231.948 204.61 168.926 204.61C105.903 204.61 54.8439 204.61 54.8439 204.465C54.8439 204.319 105.903 204.319 168.926 204.319C231.948 204.319 283.007 204.465 283.007 204.465Z" fill="#455A64"/>
<path d="M127.496 140.95H79.9377V144.155H127.496V140.95Z" fill="#DFDFDF"/>
<path d="M188.914 96.811H141.356V100.016H188.914V96.811Z" fill="#DFDFDF"/>
<path d="M259.816 108.611C259.816 108.756 233.264 108.756 200.586 108.756C167.908 108.756 141.357 108.611 141.357 108.611C141.357 108.465 167.908 108.465 200.586 108.465C233.264 108.465 259.816 108.611 259.816 108.611Z" fill="#DFDFDF"/>
<path d="M259.816 115.603C259.816 115.749 233.264 115.749 200.586 115.749C167.908 115.749 141.357 115.603 141.357 115.603C141.357 115.458 167.908 115.458 200.586 115.458C233.264 115.458 259.816 115.458 259.816 115.603Z" fill="#DFDFDF"/>
<path d="M259.816 122.449C259.816 122.595 233.264 122.595 200.586 122.595C167.908 122.595 141.357 122.449 141.357 122.449C141.357 122.304 167.908 122.304 200.586 122.304C233.41 122.304 259.816 122.449 259.816 122.449Z" fill="#DFDFDF"/>
<path d="M259.816 129.442C259.816 129.588 233.264 129.588 200.586 129.588C167.908 129.588 141.357 129.442 141.357 129.442C141.357 129.296 167.908 129.296 200.586 129.296C233.264 129.296 259.816 129.442 259.816 129.442Z" fill="#DFDFDF"/>
<path d="M259.816 136.435C259.816 136.58 233.264 136.58 200.586 136.58C167.908 136.58 141.357 136.435 141.357 136.435C141.357 136.289 167.908 136.289 200.586 136.289C233.41 136.289 259.816 136.289 259.816 136.435Z" fill="#DFDFDF"/>
<path d="M187.602 143.281C187.602 143.427 177.244 143.427 164.552 143.427C151.714 143.427 141.502 143.281 141.502 143.281C141.502 143.281 151.86 143.135 164.552 143.135C177.39 143.135 187.602 143.281 187.602 143.281Z" fill="#DFDFDF"/>
<path d="M258.939 156.829C258.939 156.974 241.579 156.974 219.988 156.974C198.543 156.974 181.037 156.829 181.037 156.829C181.037 156.829 198.397 156.683 219.988 156.683C241.579 156.683 258.939 156.829 258.939 156.829Z" fill="#DFDFDF"/>
<path d="M258.939 164.259C258.939 164.405 241.579 164.405 219.988 164.405C198.543 164.405 181.037 164.259 181.037 164.259C181.037 164.113 198.397 164.113 219.988 164.113C241.579 164.113 258.939 164.113 258.939 164.259Z" fill="#DFDFDF"/>
<path d="M258.939 171.542C258.939 171.688 241.579 171.688 219.988 171.688C198.543 171.688 181.037 171.542 181.037 171.542C181.037 171.396 198.397 171.396 219.988 171.396C241.579 171.396 258.939 171.542 258.939 171.542Z" fill="#DFDFDF"/>
<path d="M258.939 178.971C258.939 179.117 241.579 179.117 219.988 179.117C198.543 179.117 181.037 178.971 181.037 178.971C181.037 178.826 198.397 178.826 219.988 178.826C241.579 178.826 258.939 178.826 258.939 178.971Z" fill="#DFDFDF"/>
<path d="M127.788 156.1C127.788 156.246 117.43 156.246 104.592 156.246C91.7545 156.246 81.3967 156.1 81.3967 156.1C81.3967 156.1 91.7545 155.955 104.592 155.955C117.43 155.955 127.788 155.955 127.788 156.1Z" fill="#DFDFDF"/>
<path d="M127.788 161.928C127.788 162.074 117.43 162.074 104.592 162.074C91.7545 162.074 81.3967 161.928 81.3967 161.928C81.3967 161.782 91.7545 161.782 104.592 161.782C117.43 161.782 127.788 161.782 127.788 161.928Z" fill="#DFDFDF"/>
<path d="M127.788 167.609C127.788 167.755 117.43 167.755 104.592 167.755C91.7545 167.755 81.3967 167.609 81.3967 167.609C81.3967 167.463 91.7545 167.463 104.592 167.463C117.43 167.463 127.788 167.609 127.788 167.609Z" fill="#DFDFDF"/>
<path d="M127.788 173.436C127.788 173.582 117.43 173.582 104.592 173.582C91.7545 173.582 81.3967 173.436 81.3967 173.436C81.3967 173.291 91.7545 173.291 104.592 173.291C117.284 173.291 127.788 173.436 127.788 173.436Z" fill="#DFDFDF"/>
<path d="M127.788 179.263C127.788 179.409 117.43 179.409 104.592 179.409C91.7545 179.409 81.3967 179.263 81.3967 179.263C81.3967 179.118 91.7545 179.118 104.592 179.118C117.43 179.118 127.788 179.118 127.788 179.263Z" fill="#DFDFDF"/>
<path d="M175.204 153.333H141.359V185.964H175.204V153.333Z" fill="#F5F5F5"/>
<path d="M144.127 183.196L153.464 166.297L161.05 177.077L165.718 171.396L172.574 183.196H144.127Z" fill="#EBEBEB"/>
<path d="M164.26 163.092C164.26 164.403 163.239 165.569 161.78 165.569C160.321 165.569 159.3 164.549 159.3 163.092C159.3 161.781 160.321 160.616 161.78 160.616C163.239 160.616 164.26 161.781 164.26 163.092Z" fill="#EBEBEB"/>
<path d="M172.575 182.613C172.575 182.176 172.575 181.739 172.575 181.157C172.575 179.846 172.575 177.952 172.575 175.621C172.575 170.814 172.429 164.113 172.429 155.955L172.575 156.1C164.26 156.1 154.485 156.1 143.982 156.1C143.836 156.1 144.274 155.809 144.128 155.955V156.1V156.246V156.538V156.975V157.849C144.128 158.431 144.128 159.014 144.128 159.742C144.128 160.908 144.128 162.219 144.128 163.384C144.128 165.861 144.128 168.192 144.128 170.522C144.128 175.038 144.128 179.408 144.128 183.342L143.982 183.196C152.443 183.196 159.591 183.342 164.551 183.342C167.032 183.342 168.928 183.342 170.387 183.342C171.116 183.342 171.554 183.342 171.992 183.342C172.138 183.342 172.283 183.342 172.575 183.196H172.429C172.283 183.196 172.138 183.196 171.992 183.196C171.554 183.196 171.116 183.196 170.533 183.196C169.22 183.196 167.177 183.196 164.697 183.196C159.591 183.196 152.443 183.342 143.982 183.342H143.836V183.196C143.836 179.263 143.836 174.893 143.836 170.377C143.836 168.192 143.836 165.715 143.836 163.239C143.836 162.073 143.836 160.762 143.836 159.597C143.836 159.014 143.836 158.431 143.836 157.703V156.829V156.392V156.1V155.955V155.809C143.69 155.955 144.128 155.518 143.982 155.663C154.485 155.663 164.26 155.663 172.575 155.663H172.721V155.809C172.721 163.967 172.575 170.814 172.575 175.621C172.575 177.952 172.575 179.846 172.575 181.157C172.575 181.739 172.575 182.322 172.575 182.613Z" fill="#EBEBEB"/>
<path d="M126.765 91.4204H80.9569V135.706H126.765V91.4204Z" fill="#F5F5F5"/>
<path d="M84.4575 131.773L97.1495 109.048L107.507 123.615L113.78 115.895L123.117 131.773H84.4575Z" fill="#DFDFDF"/>
<path d="M111.884 104.677C111.884 106.425 110.426 108.027 108.529 108.027C106.633 108.027 105.174 106.57 105.174 104.677C105.174 102.929 106.633 101.326 108.529 101.326C110.426 101.326 111.884 102.783 111.884 104.677Z" fill="#DFDFDF"/>
<path d="M123.118 131.918C123.118 131.627 123.118 131.481 123.118 131.19C123.118 130.753 123.118 130.025 123.118 129.296C123.118 127.548 123.118 125.072 122.972 121.721C122.972 115.312 122.826 106.134 122.826 95.0627L122.972 95.2084C111.739 95.2084 98.4636 95.2084 84.3128 95.2084C84.1669 95.354 84.7504 94.7713 84.6046 94.917V95.0627V95.2084V95.354V95.6454V96.2281V97.5392C84.6046 98.4132 84.6046 99.1416 84.6046 100.016C84.6046 101.618 84.6046 103.366 84.6046 104.969C84.6046 108.173 84.6046 111.378 84.6046 114.583C84.6046 120.701 84.6046 126.674 84.6046 132.064L84.3128 131.773C95.8377 131.918 105.612 131.918 112.323 131.918C115.678 131.918 118.304 132.064 120.2 132.064C121.076 132.064 121.805 132.064 122.243 132.064C122.535 132.064 122.68 132.064 122.826 132.064C123.118 131.918 123.118 131.918 123.118 131.918C122.826 131.918 122.68 131.918 122.389 131.918C121.951 131.918 121.222 131.918 120.346 131.918C118.596 131.918 115.824 131.918 112.469 132.064C105.758 132.064 95.9836 132.21 84.4587 132.21H84.1669V131.918C84.1669 126.528 84.1669 120.701 84.1669 114.437C84.1669 111.378 84.1669 108.173 84.1669 104.823C84.1669 103.22 84.1669 101.618 84.1669 99.87C84.1669 98.9959 84.1669 98.2675 84.1669 97.3935V96.0824V95.4997V95.2084V95.0627V94.917V94.7713C83.8751 95.0627 84.4587 94.48 84.4587 94.48C98.7554 94.48 111.885 94.48 123.118 94.48H123.264V94.6257C123.118 105.697 123.118 115.02 123.118 121.43C123.118 124.635 123.118 127.111 122.972 128.859C122.972 129.733 122.972 130.316 122.972 130.753C122.972 131.044 122.972 131.19 122.972 131.336C123.118 131.918 123.118 131.918 123.118 131.918Z" fill="#DFDFDF"/>
<path d="M174.383 163.028H172.246C169.04 163.028 166.445 160.432 166.445 157.226V141.501C166.445 138.295 169.04 135.7 172.246 135.7H174.383C177.59 135.7 180.185 138.295 180.185 141.501V157.226C180.185 160.432 177.59 163.028 174.383 163.028Z" fill="white"/>
<path d="M159.269 138.754V124.86C159.269 116.998 165.605 110.662 173.467 110.662C181.33 110.662 187.666 116.998 187.666 124.86V138.754H194.689V124.86C194.689 113.181 185.147 103.639 173.467 103.639C161.788 103.639 152.246 113.181 152.246 124.86V138.754H159.269Z" fill="#005092"/>
<path d="M201.254 129.669H198.2H187.59H173.315V137.15C176.063 137.15 178.277 139.364 178.277 142.188C178.277 144.326 176.903 146.158 174.994 146.921L177.361 158.524C177.513 159.135 177.055 159.746 176.521 159.746H173.238V167.914H201.101C201.788 167.914 202.399 167.379 202.399 166.616V131.043C202.475 130.204 201.941 129.669 201.254 129.669Z" fill="#005092"/>
<path d="M173.315 159.669H170.032C169.498 159.669 169.04 159.059 169.193 158.448L171.559 146.845C169.345 146.005 167.895 143.715 168.429 141.12C168.811 139.135 170.414 137.608 172.399 137.227C172.704 137.15 173.086 137.15 173.391 137.15V129.669H159.574H148.429H145.376C144.689 129.669 144.078 130.204 144.078 130.967V166.616C144.078 167.303 144.613 167.914 145.376 167.914H173.315V159.669Z" fill="#005092"/>
<path d="M45.3992 164.86C45.3992 164.86 41.9931 212.018 41.5043 220.381C41.0075 228.744 39.2178 256.915 39.2178 256.915H30.8524L25.2072 164.344L45.3992 164.86Z" fill="#DE051F"/>
<path d="M13.925 165.353C13.925 165.353 14.9105 189.111 15.3521 195.135C15.7857 201.159 11.0156 221.757 8.29551 230.91C5.5675 240.071 1.72778 250.21 1.72778 250.21L8.29551 253.965C8.29551 253.965 22.4796 228.759 27.565 213.887C32.6426 199.015 36.4271 176.759 35.8043 164.218L13.925 165.353Z" fill="#EE384E"/>
<path d="M49.5237 131.611L55.9022 140.029C55.9022 140.029 56.3989 140.702 57.5816 140.397C58.7564 140.092 71.0324 135.664 71.0324 135.664C71.0324 135.664 72.7434 134.905 73.2007 133.551C73.6501 132.198 73.8629 131.869 74.131 131.502C74.3991 131.134 74.7933 131.181 74.5647 130.274C74.336 129.374 74.2099 128.998 74.2099 128.998C74.2099 128.998 73.9418 128.365 74.4779 128.365C75.0141 128.365 75.5896 128.49 75.8892 129.108C76.1731 129.726 76.1021 131.22 76.1021 131.22L78.7276 131.322C78.7276 131.322 80.3361 131.377 80.3361 133.043C80.3361 134.709 80.3361 137.494 80.3361 137.494C80.3361 137.494 80.5647 138.363 79.3899 138.363C78.2151 138.363 76.9773 138.324 76.9773 138.324C76.9773 138.324 75.9917 138.222 74.3754 139.387C72.7591 140.553 60.4594 147.539 60.4594 147.539C60.4594 147.539 56.2097 150.058 53.4186 147.414C50.6275 144.77 44.5013 138.23 44.5013 138.23L44.1938 136.157L49.5237 131.611Z" fill="#FFBF99"/>
<path d="M28.992 109.066C28.992 109.066 28.2351 112.837 26.7134 116.616C25.1917 120.394 24.4348 121.896 24.4348 121.896C24.4348 121.896 28.992 127.177 33.565 126.418C38.1222 125.667 38.1222 122.647 38.1222 122.647C38.1222 122.647 33.9355 119.252 33.9355 114.723C33.9355 110.193 33.9355 110.201 33.9355 110.201L28.992 109.066Z" fill="#FFB48F"/>
<path d="M39.0535 121.779C39.0535 121.779 42.838 123.868 44.407 125.19C45.9839 126.512 50.5332 131.707 50.5332 131.707L44.3045 137.707L39.9681 132.826L39.0535 121.779Z" fill="#F79F03"/>
<path d="M26.3592 120.01C26.3592 120.01 28.6378 123.029 31.6812 123.78C34.7246 124.531 36.2384 122.27 36.2384 122.27L37.0741 121.191C37.0741 121.191 37.9178 120.534 38.8481 121.308C39.7785 122.067 41.5525 124.023 43.0899 127.183C44.6353 130.336 45.0847 134.654 45.408 144.738C45.7312 154.822 45.408 165.704 45.408 165.704H13.957L13.5864 150.035C13.5864 150.035 16.9294 129.194 20.2172 124.954C23.505 120.714 24.459 119.79 24.459 119.79C24.459 119.79 25.216 118.758 26.3592 120.01Z" fill="#FCBE42"/>
<path d="M38.5095 98.8726C38.5095 98.8726 40.7881 101.892 40.7881 107.181C40.7881 112.461 40.0312 116.24 37.7447 116.24C35.4583 116.24 30.8932 114.73 30.1363 113.22C29.3794 111.71 27.8577 111.71 27.8577 108.698C27.8577 105.686 31.658 98.8882 34.7092 98.8882C37.7526 98.8882 38.5095 98.8726 38.5095 98.8726Z" fill="#FFBF99"/>
<path d="M40.7873 98.8725C40.7873 98.8725 43.0659 92.8409 41.5442 92.0743C40.0225 91.3232 36.987 92.8253 36.2222 93.5841C35.4653 94.3351 33.9436 94.3351 33.1788 94.3351C33.1788 94.3351 25.5704 94.3351 24.0487 95.845C22.527 97.3549 22.527 98.1059 22.527 98.8647C22.527 99.6157 22.5191 102.581 21.7701 104.145C21.4468 104.826 21.0132 107.916 22.527 110.944C24.0408 113.963 25.5704 114.714 26.3273 114.714C27.0842 114.714 27.7701 114.714 27.849 113.963C27.9357 113.15 28.2353 112 28.6059 110.944C28.9686 109.934 29.3628 107.924 29.3628 107.924C29.3628 107.924 30.1197 104.153 31.6414 102.643C33.1631 101.133 33.1631 101.133 36.1986 100.382C39.2656 99.6392 40.0304 101.133 40.7873 98.8725Z" fill="#170856"/>
<path d="M30.5305 104.388C31.658 105.671 30.1363 107.932 30.1363 107.932C30.1363 107.932 27.8577 108.683 27.8577 106.422C27.8577 104.161 29.3951 103.097 30.5305 104.388Z" fill="#FFBF99"/>
<path d="M15.296 136.149C15.296 136.149 12.4418 147.047 12.9385 153.877C13.4353 160.698 15.4773 166.613 16.9596 170.728C18.4419 174.843 19.317 175.828 19.3722 178.418C19.4274 181.007 20.6495 184.074 22.1633 185.615C23.6771 187.156 24.8913 187.923 24.8913 187.923C24.8913 187.923 26.689 188.752 26.4051 187.094C26.4051 187.094 27.6115 187.187 27.1542 186.264C27.1542 186.264 28.7626 186.296 27.5878 185.036C26.413 183.769 24.2448 182.548 24.2448 182.548C24.2448 182.548 23.007 180.585 24.7731 181.57C26.5392 182.548 28.0845 182.587 26.4525 180.991C24.8125 179.396 22.9202 176.603 21.5326 171.494C20.1449 166.394 18.4971 156.31 20.4603 148.565C22.4235 140.82 24.9071 138.238 24.9071 138.238L15.296 136.149Z" fill="#FFBF99"/>
<path d="M8.57159 253.457C8.57159 253.457 10.0854 257.673 11.7648 259.613C13.4442 261.554 14.7687 262.97 14.7687 262.97C14.7687 262.97 16.7241 266.075 14.5164 265.152C12.3167 264.229 0.14314 256.116 0.14314 256.116C0.14314 256.116 -1.59143 255.225 -0.787222 253.754C0.0169893 252.283 2.05906 249.436 2.05906 249.436L8.57159 253.457Z" fill="#170856"/>
<path d="M30.9325 262.869C30.9325 262.869 30.4831 264.097 33.0376 264.097C35.5922 264.097 49.524 264.097 49.524 264.097C49.524 264.097 52.2047 263.565 49.7369 262.376C47.2533 261.187 39.8261 257.87 39.8261 257.87C39.8261 257.87 39.2585 257.722 39.2742 256.306H30.8379L30.9325 262.869Z" fill="#170856"/>
<path d="M27.2107 128.89C27.2107 128.89 27.7468 123.828 24.0332 123.343C20.3197 122.858 17.9622 127.771 16.7244 130.963C15.4865 134.154 14.8636 136.494 14.8636 136.494C14.8636 136.494 22.8506 139.685 24.9557 139.685C24.9636 139.685 26.7376 134.381 27.2107 128.89Z" fill="#F79F03"/>
<path d="M234.079 173.87C234.079 173.87 236.383 173.23 236.127 169.262C235.871 165.422 233.311 162.222 236.895 160.173C240.352 158.125 241.248 157.357 242.913 155.821C244.577 154.029 245.345 152.749 250.722 153.389C250.722 153.389 254.947 149.933 258.916 153.005C262.629 156.205 261.733 164.782 262.373 165.934C263.141 167.214 268.262 172.462 268.902 176.814C269.542 181.167 266.598 183.983 262.373 183.855C258.404 183.727 252.643 183.855 252.643 183.855H237.151C237.151 183.855 231.902 184.239 231.518 178.735C231.518 175.534 234.079 173.87 234.079 173.87Z" fill="#180857"/>
<path d="M246.882 180.398C246.882 180.398 246.882 183.726 245.473 185.006C244.065 186.415 242.273 188.719 242.273 188.719C242.273 188.719 245.473 193.967 251.747 193.071C257.892 192.431 259.044 187.695 259.044 187.695C259.044 187.695 253.155 187.055 252.387 181.038C251.747 175.278 250.722 175.278 250.722 175.278L246.882 180.398Z" fill="#FFB07E"/>
<path d="M250.082 182.191C253.9 182.191 256.996 176.689 256.996 169.902C256.996 163.115 253.9 157.613 250.082 157.613C246.264 157.613 243.169 163.115 243.169 169.902C243.169 176.689 246.264 182.191 250.082 182.191Z" fill="#FFBE9B"/>
<path d="M250.082 156.973C250.082 156.973 248.802 160.813 246.241 164.525C243.425 168.366 240.48 170.414 240.224 171.182C239.968 171.822 237.407 169.902 238.304 167.086C239.072 164.013 244.065 155.565 249.186 155.309C254.307 155.181 255.331 152.109 257.892 158.381C260.196 164.397 259.94 171.438 259.94 171.438L250.082 156.973Z" fill="#180857"/>
<path d="M243.297 168.494C243.297 168.494 240.48 168.11 240.224 169.774C239.968 171.566 240.992 172.974 243.297 173.23C245.729 173.742 243.297 168.494 243.297 168.494Z" fill="#FFBE9B"/>
<path d="M269.414 248.883C269.414 248.883 273.383 249.011 276.584 249.011C279.785 249.011 284.394 249.523 284.394 249.523C284.394 249.523 285.674 249.523 285.802 251.315C285.93 253.107 285.93 253.619 285.93 253.619C285.93 253.619 286.058 255.539 284.522 255.539C282.985 255.539 273.895 256.691 271.719 256.691C269.542 256.691 268.134 257.075 268.134 255.539C268.134 253.875 268.134 248.499 269.414 248.883Z" fill="black"/>
<path d="M272.999 202.928C272.999 202.928 275.816 218.545 275.944 222.513C276.072 226.481 276.456 229.681 273.895 231.474C271.463 233.266 267.11 234.674 267.11 234.674L261.733 207.024V203.696L272.999 202.928Z" fill="#FFBF99"/>
<path d="M226.909 202.16C226.909 202.16 225.501 209.201 224.989 212.657C224.733 216.113 223.58 223.153 223.58 224.818C223.452 226.61 223.324 228.914 226.013 231.218C228.702 233.522 231.902 234.546 231.902 234.546L237.664 202.16H226.909Z" fill="#FFBF99"/>
<path d="M243.553 185.647C243.553 185.647 239.328 185.135 236.895 185.775C234.591 186.287 233.823 185.903 234.591 187.823C235.103 189.743 238.304 198.191 236.895 203.44C235.487 208.816 233.438 235.826 233.438 235.826C233.438 235.826 249.314 236.338 255.459 236.594C261.477 236.978 266.086 235.826 266.086 235.826C266.086 235.826 267.494 224.049 266.086 219.057C264.677 213.808 262.885 205.36 262.885 205.36C262.885 205.36 261.861 193.455 263.141 190.511C264.805 187.439 265.958 187.439 263.781 186.799C261.733 186.159 259.812 185.391 258.02 185.391C256.355 185.391 255.715 185.391 254.563 186.159C253.795 186.927 251.618 189.231 249.186 188.591C246.369 188.207 244.577 186.287 244.577 186.287C244.577 186.287 244.449 185.903 243.553 185.647Z" fill="#DE051F"/>
<path d="M235.999 186.799C235.999 186.799 234.591 186.159 232.414 187.951C230.11 189.999 228.445 194.608 227.293 197.424C226.525 200.24 225.885 203.056 225.885 203.056C225.885 203.056 228.958 204.848 231.902 204.848C235.103 204.976 237.151 205.232 237.151 205.232C237.151 205.232 238.56 196.656 238.176 192.943C238.176 188.847 237.791 187.695 235.999 186.799Z" fill="#EE384E"/>
<path d="M262.373 189.615C262.373 189.615 263.653 186.159 266.342 187.695C269.286 189.487 271.463 195.376 271.975 197.424C272.487 199.344 273.383 203.312 273.383 203.312C273.383 203.312 269.927 204.72 267.366 205.104C264.421 205.232 262.373 205.488 262.373 205.488C262.373 205.488 261.349 197.936 261.605 194.864C261.861 191.792 262.373 189.615 262.373 189.615Z" fill="#EE384E"/>
<path d="M239.456 238.13H260.965L249.698 241.586L239.456 238.13Z" fill="#004B89"/>
<path d="M220.252 231.858C220.252 231.858 259.3 244.402 267.878 247.603C267.878 247.603 270.823 248.243 270.823 249.907C270.823 251.315 270.695 253.619 270.311 254.643C270.055 255.795 269.03 256.563 267.366 256.435C265.702 256.051 230.878 248.883 216.923 245.298L213.082 244.018C213.082 244.018 210.137 242.61 210.778 238.77C211.29 235.058 213.978 231.858 215.899 231.73C217.435 231.474 220.252 231.858 220.252 231.858Z" fill="#0064E1"/>
<path d="M216.667 249.907C216.667 249.907 221.788 249.139 224.477 249.139C227.421 249.011 231.262 248.755 231.774 249.139C232.286 249.523 232.799 255.539 232.799 255.539C232.799 255.539 233.311 257.331 229.342 256.819C225.501 256.435 216.667 256.307 216.667 256.307C216.667 256.307 214.619 256.179 214.491 254.387C214.491 252.467 214.619 251.571 214.619 251.571C214.619 251.571 215.771 250.035 216.667 249.907Z" fill="black"/>
<path d="M239.968 244.658C239.968 244.658 263.781 237.362 272.103 234.674C280.553 232.114 285.162 229.553 287.979 233.906C290.795 237.874 290.411 242.61 287.466 243.89C284.266 245.17 259.812 251.059 249.442 253.363C239.2 255.667 232.542 256.819 231.518 256.563C230.75 256.179 229.47 253.107 229.598 251.187C229.726 249.267 229.854 248.755 231.902 247.859C234.079 246.963 239.968 244.658 239.968 244.658Z" fill="#0054A3"/>
<path d="M237.279 208.944H265.958C265.958 208.944 267.622 208.816 267.622 210.864C267.622 212.912 267.622 236.338 267.622 236.338C267.622 236.338 267.75 238.13 266.598 238.13C265.446 238.13 232.926 238.13 232.926 238.13C232.926 238.13 231.518 238.514 231.518 236.21C231.518 233.906 231.518 210.352 231.518 210.352C231.518 210.352 231.39 209.072 233.182 209.072C234.719 208.944 237.279 208.944 237.279 208.944Z" fill="#0064B7"/>
<path d="M247.778 223.793L249.442 221.745L251.363 223.409L249.826 225.457L247.778 223.793Z" fill="#569ED4"/>
<path d="M128.39 42.8252L122.008 44.6487L123.831 51.0309L130.214 49.2074L128.39 42.8252Z" fill="#1466B1"/>
<path d="M307.847 189.423L301.464 191.247L303.288 197.629L309.67 195.806L307.847 189.423Z" fill="#EE384E"/>
</g>
<defs>
<clipPath id="clip0_3707_5575">
<rect width="320" height="300" fill="white"/>
</clipPath>
</defs>
</svg>
