<svg width="340" height="270" viewBox="0 0 340 270" fill="none" xmlns="http://www.w3.org/2000/svg">
<g clip-path="url(#clip0_3375_2861)">
<path fill-rule="evenodd" clip-rule="evenodd" d="M53.5405 95.7116L56.5874 92.9118L57.3285 90.4414C59.8813 82.6183 64.9045 75.7011 71.4923 70.8426L73.1393 69.6898L70.0924 72.4896L68.4454 73.6425C60.9518 79.1597 55.9286 86.8181 53.5405 95.7116ZM122.63 80.0656L125.677 77.2657L126.006 60.2198L122.96 63.0196L122.63 80.0656ZM140.829 57.0906C139.182 55.526 137.7 54.1261 135.888 52.6438C113.901 34.7744 81.8681 32.8804 58.9755 49.844C60.8695 48.7735 62.5988 47.7853 64.5751 46.8795C88.0442 36.0096 116.125 40.2093 135.312 57.5023L137.7 59.8081L139.347 61.455L142.394 58.6552L140.829 57.0906Z" fill="#5C93BC"/>
<path fill-rule="evenodd" clip-rule="evenodd" d="M118.348 135.403L121.395 132.603C117.36 136.144 112.913 138.697 107.807 140.426L107.231 140.591L104.184 143.391C109.619 141.662 113.983 139.191 118.348 135.403ZM215.436 74.3013L218.483 71.5015L220.459 56.2672L202.754 51.9851L199.707 54.7849L217.412 59.067L215.436 74.3013Z" fill="#D58D0B"/>
<path fill-rule="evenodd" clip-rule="evenodd" d="M199.707 54.7849L202.754 51.9851L202.589 52.1498L202.425 52.3145L202.178 52.3968L202.013 52.5615L201.848 52.7262L201.684 52.8909L201.437 53.0556L201.272 53.138L201.107 53.3027L200.943 53.4674L200.778 53.6321L197.731 56.4319L197.896 56.2672L198.06 56.1025L198.225 55.9378L198.39 55.7731L198.637 55.6084L198.801 55.5261L198.966 55.3614L199.131 55.1967L199.378 55.032L199.543 54.8673L199.707 54.7849Z" fill="#5C93BC"/>
<path fill-rule="evenodd" clip-rule="evenodd" d="M215.354 131.533L199.955 132.933L196.908 135.733L212.307 134.333C214.448 136.227 216.095 137.627 218.483 139.191C235.693 150.061 258.751 146.191 271.268 129.968L271.679 129.392L274.726 126.592C268.385 134.991 259.327 140.509 248.869 142.073C237.423 143.803 225.565 140.509 216.836 132.85L215.354 131.533ZM293.419 141.991C299.431 136.556 302.56 128.98 304.865 121.322L289.878 127.251L281.561 111.358L278.514 114.157L286.831 130.051L301.819 124.122L300.913 126.921C299.101 132.439 296.713 137.132 293.419 141.991Z" fill="#5C93BC"/>
<path fill-rule="evenodd" clip-rule="evenodd" d="M302.971 119.757L306.018 116.957L306.759 113.005C310.877 86.4888 298.442 59.9729 274.973 46.6326C254.551 35.0216 229.023 35.351 209.013 47.6208L206.624 49.1854L203.578 51.9852C206.13 50.3382 208.107 49.103 210.907 47.7031C234.705 35.845 263.856 39.7977 283.537 57.8319C300.171 72.9838 307.583 95.7118 303.465 117.781L302.971 119.757Z" fill="#236CD8"/>
<path fill-rule="evenodd" clip-rule="evenodd" d="M208.93 130.957L211.977 128.157L186.532 102.711L183.65 105.594L208.93 130.957ZM192.955 150.473L196.002 147.673L196.331 129.639L193.284 132.439L192.955 150.473ZM145.852 62.114L129.547 63.5963L126.5 66.3961L142.805 64.9138L165.863 87.9712L168.745 85.089L145.852 62.114Z" fill="#5C93BC"/>
<path fill-rule="evenodd" clip-rule="evenodd" d="M115.63 165.954L118.677 163.154L121.148 148.414L99.5726 142.32C92.4084 143.062 85.7382 142.156 79.0681 139.274C63.0103 132.356 53.6227 115.722 55.599 98.3468L55.7637 97.1939L41.7646 102.711L32.624 85.4182L29.5771 88.218L38.7177 105.511L52.7168 99.9938C52.5521 100.241 52.3874 103.946 52.3051 104.523C51.6463 128.404 71.6568 147.179 95.3729 145.203L96.4434 145.12L118.018 151.214L115.63 165.954Z" fill="#236CD8"/>
<path fill-rule="evenodd" clip-rule="evenodd" d="M63.8341 77.5951C79.2331 62.1961 104.596 62.1961 119.995 77.5951L122.548 80.1479L122.877 63.102L139.429 61.6197L137.782 59.9728C112.584 34.7744 71.3277 34.7744 46.1294 59.9728C39.2945 66.8076 34.2713 74.8777 31.1421 83.5242L40.365 101.064L53.5406 95.8763C55.2699 89.0415 58.6462 82.783 63.8341 77.5951Z" fill="#0064E1"/>
<path fill-rule="evenodd" clip-rule="evenodd" d="M63.8339 133.756C54.6933 124.615 50.9877 112.016 52.6346 99.9935L38.6355 105.511L29.4949 88.2178C23.4835 110.04 29.0008 134.415 46.0468 151.461C64.7397 170.154 92.2438 175.012 115.548 165.954L118.019 151.214L96.4435 145.12C84.8325 146.355 72.7274 142.65 63.8339 133.756Z" fill="#236CD8"/>
<path fill-rule="evenodd" clip-rule="evenodd" d="M165.863 123.381L192.955 150.473L193.285 132.356L208.931 130.956L183.65 105.676L165.863 123.381Z" fill="#0E66B4"/>
<path fill-rule="evenodd" clip-rule="evenodd" d="M165.862 87.971L142.805 64.8313L126.5 66.3136L126.171 83.6889L148.158 105.676L165.862 87.971Z" fill="#0E66B4"/>
<path fill-rule="evenodd" clip-rule="evenodd" d="M219.471 71.5016C234.705 62.4434 254.88 64.5021 267.891 77.513C276.208 85.8301 279.996 96.947 279.42 107.899L288.643 125.439L303.054 119.757C307.665 98.841 301.901 76.0307 285.678 59.8906C263.445 37.6567 228.776 35.0216 203.66 51.9852L221.53 56.3497L219.471 71.5016Z" fill="#0E66B4"/>
<path fill-rule="evenodd" clip-rule="evenodd" d="M267.891 133.756C252.657 148.991 227.788 149.155 212.307 134.333L196.908 135.733L196.578 153.932C221.941 176.66 261.303 175.836 285.678 151.461C293.584 143.556 298.936 134.168 301.901 124.122L286.913 130.051L278.596 114.158C277.032 121.322 273.491 128.239 267.891 133.756Z" fill="#0064E1"/>
<path fill-rule="evenodd" clip-rule="evenodd" d="M137.782 151.461L165.862 123.38L183.567 105.676L211.648 77.5952C212.801 76.4423 214.036 75.3718 215.353 74.3013L217.33 59.067L199.625 54.7849C197.649 56.3495 195.755 58.0788 193.943 59.8905L165.862 87.971L148.158 105.676L120.077 133.756C115.466 138.368 110.031 141.579 104.184 143.473L122.301 148.579L119.665 164.225C126.171 161.178 132.347 156.896 137.782 151.461Z" fill="#FABD4F"/>
<path d="M149.266 5.2111L149.595 3.72885L147.207 1.01138L144.49 2.08189C143.584 1.01138 142.596 0.105552 141.443 -0.635576L142.184 -3.51774L137.819 -5L136.667 -2.28253C135.349 -2.44722 133.949 -2.36488 132.632 -2.03549L131.149 -4.50592L127.361 -3.92948L127.032 -2.44722L128.102 0.270246C127.032 1.09372 126.126 2.16424 125.385 3.31711L122.503 2.57598L121.35 5.45815L121.021 6.94041L123.738 8.09327C123.573 9.41083 123.656 10.8107 123.985 12.1283L121.844 12.2107L121.515 13.6929L123.573 17.8103L126.291 16.7398C127.114 17.8103 128.185 18.7161 129.338 19.4572L128.596 22.3394L132.961 23.8217L134.114 21.1042C135.431 21.2689 136.831 21.1865 138.149 20.8572L139.631 23.3276L143.748 21.2689L144.078 19.7866L142.678 18.5514C143.748 17.6456 144.654 16.6574 145.395 15.5046L148.278 16.2457L149.76 11.8813L150.089 10.399L147.042 10.646C147.207 9.32849 147.125 7.92858 146.795 6.61101L149.266 5.2111ZM138.478 16.081C134.855 17.8926 130.49 16.328 128.679 12.7047C126.867 9.08144 128.432 4.71702 132.055 2.90537C135.678 1.09372 140.043 2.65833 141.854 6.28163C143.584 9.90492 142.101 14.3517 138.478 16.081Z" fill="#EC384E"/>
<path d="M181.958 15.3398L182.534 13.6105L177.511 11.9635L175.123 14.5987C173.558 13.9399 171.994 13.5281 170.347 13.3634L169.523 9.90485L164.583 8.99902L164.006 10.7283L164.171 14.2693C162.689 14.8457 161.206 15.6692 159.971 16.7397L156.924 14.8457L154.124 17.5632L153.548 19.2925L156.183 21.6806C155.524 23.1628 155.113 24.8098 154.948 26.4567L152.066 25.5509L151.489 27.2802L152.313 32.7975L155.854 32.6328C156.43 34.115 157.254 35.5973 158.324 36.8325L157.007 38.1501L156.43 39.8794L160.877 43.2556L163.265 40.6205C164.747 41.2793 166.394 41.691 168.041 41.8557L168.865 45.3143L174.382 44.4909L174.958 42.7616L174.217 40.9499C175.699 40.3735 177.182 39.55 178.417 38.4795L181.464 40.3735L184.84 35.9267L185.416 34.1974L182.205 33.5386C182.864 31.974 183.275 30.4094 183.44 28.7625L186.899 27.939L187.475 26.2097L186.075 22.4217L182.534 22.5864C181.958 21.1041 181.134 19.6219 180.064 18.3867L181.958 15.3398ZM176.358 32.8798C173.476 36.7502 167.876 37.5736 164.006 34.6915C160.136 31.8093 159.312 26.2097 162.194 22.3393C165.077 18.469 170.676 17.6455 174.547 20.5277C178.499 23.4922 179.323 29.0095 176.358 32.8798Z" fill="#023EA1"/>
<path d="M271.518 228.509C271.518 228.509 274.477 227.303 274.258 223.913C274.039 220.523 272.289 218.12 275.904 219.099C279.519 220.086 280.735 220.523 283.361 219.973C285.988 219.423 288.168 218.33 287.025 221.721C285.882 225.111 284.634 227.951 287.342 228.501C290.041 229.051 292.943 227.004 293.291 232.311C293.64 237.619 289.352 243.59 282.413 243.809C275.474 244.027 272.41 241.155 272.41 241.155C272.41 241.155 270.546 238.533 273.448 237.894C276.35 237.247 279.308 236.025 277.825 234.666C276.35 233.315 271.527 233.201 271.527 233.201C271.527 233.201 265.496 232.004 271.518 228.509Z" fill="#649EEA"/>
<path d="M303.229 229.383C302.743 226.001 303.116 223.565 309.414 222.643C315.712 221.721 319.384 225.499 319.765 229.383C320.146 233.266 314.675 234.674 314.675 234.674C314.675 234.674 310.784 235.782 312.762 239.173C314.74 242.563 315.631 245.839 311.157 246.333C306.682 246.826 301.786 245.645 299.062 243.833C296.339 242.02 293.542 237.425 296.663 235.022C296.663 235.022 297.539 234.423 300.554 234.253C303.553 234.083 303.229 229.383 303.229 229.383Z" fill="#023EA1"/>
<path d="M281.067 228.832C281.067 228.832 286.296 240.637 287.009 248.671" stroke="#023EA1" stroke-width="1.19064" stroke-miterlimit="10"/>
<path d="M310.143 230.774C310.143 230.774 300.886 244.496 298.697 249.084" stroke="#649EEA" stroke-width="1.19064" stroke-miterlimit="10"/>
<path d="M283.782 247.749H305.028C305.028 247.749 307.355 247.91 307.16 251.082C306.982 254.003 303.269 253.372 301.356 253.372C299.443 253.372 283.32 253.372 283.32 253.372C283.32 253.372 280.71 253.817 280.71 250.864C280.71 247.91 281.699 247.749 283.782 247.749Z" fill="#0054A5"/>
<path d="M283.329 253.372L286.547 272.111H300.813L303.229 258.049L283.353 253.372H283.329Z" fill="#0054A5"/>
<path d="M283.353 253.372L303.229 258.049L304.032 253.372H283.353Z" fill="#006AD5"/>
<path d="M292.489 248.461C292.489 248.461 293.567 227.667 299.776 214.625" stroke="#FCBE42" stroke-width="1.19064" stroke-miterlimit="10"/>
<path d="M304.883 207.116C304.883 207.116 305.394 213.5 299.152 215.992C299.152 215.992 297.806 210.539 304.883 207.116Z" fill="#FCBE42"/>
<path d="M295.521 227.432C295.521 227.432 297.823 221.987 304.892 222.715C304.9 222.715 304.349 228.136 295.521 227.432Z" fill="#FCBE42"/>
<path d="M293.194 241.13C293.194 241.13 294.386 235.337 301.463 234.674C301.463 234.674 301.989 240.103 293.194 241.13Z" fill="#FCBE42"/>
<path d="M292.952 241.162C292.952 241.162 293.77 235.313 287.326 232.319C287.326 232.319 285.016 237.263 292.952 241.162Z" fill="#FCBE42"/>
<path d="M295.602 227.392C295.602 227.392 297.166 221.688 291.151 217.901C291.143 217.901 288.225 222.513 295.602 227.392Z" fill="#FCBE42"/>
<path d="M94.4084 194.099C94.437 194.099 94.4655 194.099 94.494 194.099L129.58 194.07C130.45 194.07 131.149 193.37 131.149 192.499C131.149 191.628 130.436 190.914 129.58 190.928L94.494 190.957C93.6237 190.957 92.9245 191.656 92.9245 192.528C92.9103 193.37 93.5666 194.056 94.4084 194.099Z" fill="url(#paint0_linear_3375_2861)"/>
<path d="M143.149 159.706C143.134 159.734 143.12 159.748 143.106 159.777L128.338 191.628C127.967 192.413 128.31 193.356 129.095 193.713C129.879 194.084 130.821 193.741 131.178 192.942L145.945 161.091C146.316 160.305 145.974 159.363 145.189 159.006C144.433 158.663 143.534 158.977 143.149 159.706Z" fill="url(#paint1_linear_3375_2861)"/>
<path d="M116.811 198.326C116.682 198.969 103.998 254.586 100.773 268.697C100.402 270.326 101.743 271.825 103.484 271.74C104.697 271.683 105.71 270.84 105.952 269.697L121.819 197.941L116.811 198.326Z" fill="#023EA1"/>
<path d="M100.345 270.811C100.316 270.683 100.259 270.554 100.174 270.44C98.5329 268.341 95.2227 265.027 90.7139 265.098C84.122 265.198 81.7401 267.017 76.6178 266.245L75.4897 269.155C75.3613 269.569 75.3613 269.969 75.4469 270.354C76.6597 270.84 79.3564 271.354 85.4774 271.354C92.6544 271.354 97.8908 271.011 100.345 270.811Z" fill="#170856"/>
<path d="M78.1856 260.813L76.7017 265.87C76.7017 265.87 79.9834 267.369 82.8798 266.17L83.4505 261.799L78.1856 260.813Z" fill="url(#paint2_linear_3375_2861)"/>
<path d="M123.002 268.169C118.237 271.997 115.797 273.296 114.556 273.682C115.369 274.311 116.553 274.368 117.438 273.668L134.289 260.113C134.859 259.656 134.774 258.828 134.246 258.442C132.462 260.128 128.596 263.67 123.002 268.169Z" fill="url(#paint3_linear_3375_2861)"/>
<path d="M134.26 258.428C134.16 258.357 134.031 258.285 133.889 258.257C131.292 257.657 126.655 257.171 123.188 260.042C118.108 264.255 116.753 266.241 112.287 268.869L113.842 272.739C113.999 273.139 114.256 273.453 114.555 273.696C115.797 273.311 118.236 272.025 123.002 268.183C128.595 263.67 132.462 260.128 134.26 258.428Z" fill="#170856"/>
<path d="M46.439 203.268C46.439 203.268 83.0371 206.253 90.5422 209.795C98.0473 213.337 83.0511 266.245 83.0511 266.245C83.0511 266.245 81.1689 267.659 76.6173 266.245C76.6173 266.245 82.4949 225.892 79.0277 217.965L39.4048 211.481L46.439 203.268Z" fill="#DE051F"/>
<path d="M62.9677 137.374C62.9677 137.374 61.4117 141.814 58.9278 146.133C56.444 150.452 55.2726 152.144 55.2726 152.144C55.2726 152.144 59.8979 159.313 65.5661 159.169C71.2138 159.031 67.1817 156.87 67.1817 156.87C67.1817 156.87 67.2296 150.551 67.9974 145.064C68.7652 139.577 68.7639 139.586 68.7639 139.586L62.9677 137.374Z" fill="#FFB48F"/>
<path d="M76.2241 126.639C76.2241 126.639 78.4725 130.683 77.5761 137.089C76.681 143.486 75.1236 147.935 72.3539 147.547C69.5841 147.16 64.31 144.557 63.6491 142.6C62.9881 140.642 61.1448 140.384 61.6553 136.736C62.1658 133.087 67.9217 125.496 71.6179 126.014C75.3046 126.529 76.2241 126.639 76.2241 126.639Z" fill="#FFBF99"/>
<path d="M78.9831 127.026C78.9831 127.026 82.7657 120.105 81.0523 118.919C79.3363 117.751 75.4046 119.056 74.3495 119.846C73.3053 120.627 71.462 120.369 70.5355 120.24C70.5355 120.24 61.3189 118.95 59.2196 120.521C57.1204 122.092 56.9931 123.002 56.8644 123.921C56.7371 124.831 56.225 128.421 55.0525 130.19C54.5455 130.959 53.4964 134.629 54.817 138.553C56.139 142.468 57.8645 143.637 58.7814 143.765C59.6983 143.893 60.5292 144.01 60.7521 143.113C60.995 142.142 61.5529 140.8 62.1808 139.583C62.7912 138.422 63.6095 136.054 63.6095 136.054C63.6095 136.054 65.1656 131.614 67.2648 130.043C69.3641 128.472 69.3641 128.472 73.1685 128.077C77.0098 127.697 77.683 129.636 78.9831 127.026Z" fill="#170856"/>
<path d="M65.6238 131.968C66.7721 133.713 64.5455 136.194 64.5455 136.194C64.5455 136.194 61.658 136.717 62.0412 133.979C62.4245 131.24 64.4672 130.212 65.6238 131.968Z" fill="#FFBF99"/>
<path d="M108.648 261.899C108.99 262.213 112.286 268.869 112.286 268.869C112.286 268.869 115.953 268.069 116.71 265.755L113.414 259.742L108.648 261.899Z" fill="url(#paint4_linear_3375_2861)"/>
<path d="M24.3949 202.954C24.3949 202.954 23.1964 205.825 23.2534 209.638C23.3248 214.923 27.5625 219.208 32.8274 219.465L76.0888 221.436C77.0019 221.479 77.7724 222.107 78.0007 222.993C79.0137 226.935 83.9934 239.018 108.278 263.141C108.92 263.784 111.876 269.733 112.647 269.248L117.365 266.674C117.722 266.445 114.642 260.528 114.413 260.156L89.2298 217.094C87.9029 214.909 85.7769 213.323 83.3085 212.695L46.4393 203.254L24.3949 202.954Z" fill="#EE384E"/>
<path d="M23.6099 203.268C23.6099 203.268 35.2956 206.11 46.4391 203.268C46.4391 203.268 62.0343 182.272 68.0697 176.559C68.0697 176.559 77.7008 191.77 99.1174 193.913L100.316 191.242C100.316 191.242 83.2654 183.372 78.0004 171.274C72.7497 159.177 70.638 154.021 65.8582 150.864C62.8761 148.893 61.1068 147.551 60.1794 146.822C59.68 146.422 58.9809 146.379 58.4244 146.708C53.3734 149.807 29.5169 166.175 23.6099 203.268Z" fill="#0083F9"/>
<path d="M67.4415 176.659C67.099 176.659 66.7566 176.502 66.5426 176.216C62.79 171.317 60.6926 165.919 60.607 165.69C60.3787 165.104 60.6783 164.447 61.2633 164.219C61.8483 163.99 62.5046 164.29 62.7329 164.876C62.7472 164.933 64.8018 170.203 68.3404 174.831C68.7256 175.331 68.6257 176.045 68.1263 176.431C67.9266 176.573 67.684 176.659 67.4415 176.659Z" fill="#0064B7"/>
<path d="M97.8335 189.856L100.245 189.214L107.564 187.514C108.449 187.314 109.377 187.471 110.133 187.942L116.425 191.913L99.032 191.884L97.8335 189.856Z" fill="url(#paint5_linear_3375_2861)"/>
<path d="M177.704 198.226C177.832 198.869 190.517 254.486 193.741 268.597C194.112 270.225 192.771 271.725 191.03 271.639C189.818 271.582 188.805 270.74 188.562 269.597L172.696 197.84L177.704 198.226Z" fill="#023EA1"/>
<path d="M38.2355 269.743H41.7598L41.7598 228.566H38.2355L38.2355 269.743Z" fill="#023EA1"/>
<path d="M24.5796 270.483H55.4275V268.54C55.4275 268.354 55.2706 268.197 55.0851 268.197H24.922C24.7365 268.197 24.5796 268.354 24.5796 268.54V270.483Z" fill="#023EA1"/>
<path d="M20 226.277C20 228.363 21.6979 230.062 23.7811 230.062H55C57.0832 230.062 58.7811 228.363 58.7811 226.277V222.849C58.7811 220.764 57.0832 219.064 55 219.064H23.7811C21.6979 219.064 20 220.764 20 222.849V226.277Z" fill="#023EA1"/>
<path d="M107.664 197.183C107.508 197.855 91.9979 256.043 88.0742 270.797C87.6176 272.497 88.8875 274.168 90.6282 274.168C91.841 274.168 92.8968 273.325 93.1965 272.139L112.701 197.055L107.664 197.183Z" fill="#023EA1"/>
<path d="M187.635 198.698C187.792 199.369 203.302 257.557 207.226 272.311C207.682 274.011 206.412 275.682 204.672 275.682C203.459 275.682 202.403 274.839 202.103 273.654L183.227 198.698H187.635Z" fill="#023EA1"/>
<path d="M85.9002 193.329H202.652C204.288 193.329 205.709 193.82 206.115 194.528L207.75 197.346C208.338 198.354 206.618 199.348 204.266 199.334L84.468 199.021C82.1488 199.021 80.4495 198.041 81.0159 197.033L82.4374 194.528C82.8328 193.82 84.2543 193.329 85.9002 193.329Z" fill="#023EA1"/>
<path d="M232.54 152.563L227.264 152.489L221.299 152.009C221.299 152.009 220.609 155.571 224.048 156.051C227.486 156.532 232.552 157.074 233.439 156.939C234.327 156.816 232.54 152.563 232.54 152.563Z" fill="#FFBF9C"/>
<path d="M236.398 126.524C236.398 126.524 230.963 132.205 230.137 135.151C229.311 138.097 231.099 142.694 231.641 144.001C232.196 145.307 231.85 162.242 231.85 162.242L253.925 162.316L253.826 126.487L236.398 126.524Z" fill="#0064B7"/>
<path d="M223.495 109.712C223.495 109.712 224.013 114.026 224.937 116.811V119.042C224.937 119.338 225.196 119.56 225.48 119.535L226.885 119.387L226.798 121.113C226.786 121.347 226.971 121.556 227.218 121.569L228.302 121.63C228.524 121.642 228.684 121.852 228.623 122.074L228.425 122.801C228.364 123.023 228.499 123.257 228.721 123.306C229.51 123.479 231.297 123.627 233.257 122.271C235.414 120.767 236.646 121.581 236.683 122.85C236.72 124.182 235.586 128.261 237.373 129.161C238.914 129.937 243.548 129.518 244.423 128.594C245.471 127.485 244.325 124.835 242.883 123.343C241.86 122.283 240.159 110.02 237.694 108.898C235.217 107.752 223.495 109.712 223.495 109.712Z" fill="#FFBD99"/>
<path d="M248.932 143.791L249.141 151.334C249.141 151.95 248.648 152.468 248.032 152.48C247.391 152.492 246.775 152.492 245.246 151.876C241.795 150.483 233.451 145.898 232.317 145.257C232.231 145.208 232.169 145.146 232.132 145.072C231.898 144.641 230.925 143.15 228.336 143.285C225.304 143.446 224.577 144.111 224.836 145.085C225.095 146.058 225.403 145.911 225.403 145.911L224.996 146.478C224.996 146.478 225.403 147.451 226.697 147.402C227.979 147.353 229.581 146.736 230.037 147.192C230.444 147.599 243.632 156.412 246.688 158.445C247.132 158.741 247.625 158.951 248.155 159.074C250.152 159.505 254.749 160.171 255.501 156.917C256.425 152.911 256.425 143.803 256.425 143.803L248.932 143.791Z" fill="#FFBF9C"/>
<path d="M248.872 130.439C248.514 130.242 248.083 130.513 248.083 130.92L248.009 144.502C248.009 144.822 248.268 145.093 248.588 145.093C249.056 145.106 249.882 145.118 251.374 145.13C253.789 145.167 255.749 145.155 256.649 145.143C256.945 145.143 257.179 144.896 257.179 144.588L256.994 135.061C256.994 134.864 256.883 134.691 256.71 134.592L248.872 130.439Z" fill="#0083F9"/>
<path d="M244.47 107.652C244.47 107.652 241.586 94.4886 231.307 97.7794C231.307 97.7794 226.574 99.4309 224.725 103.128C224.725 103.128 217.934 104.151 219.376 109.501C220.818 114.85 223.9 111.559 223.9 111.559C223.9 111.559 225.231 108.786 226.673 110.733C228.115 112.68 231.504 113.925 232.638 112.064C233.772 110.215 235.83 108.983 236.447 111.756C237.063 114.529 247.552 132.844 253.209 135.31C258.866 137.775 262.675 133.042 260.924 126.361C259.174 119.681 244.68 108.564 244.68 108.564L244.47 107.652Z" fill="#170D54"/>
<path d="M212.798 136.727L199.289 137.072L215.953 155.449L229.794 154.968L212.798 136.727Z" fill="#14094F"/>
<path d="M211.895 150.235C211.895 150.235 210.527 152.836 211.76 153.452C212.992 154.068 214.225 154.413 214.779 153.723C215.334 153.033 215.654 150.987 214.989 151.123C214.41 151.234 214.027 151.258 214.027 151.258L213.941 150.654C213.953 150.469 213.867 150.297 213.707 150.198C213.239 149.902 212.265 149.409 211.895 150.235Z" fill="#FFBF9C"/>
<path d="M235.732 162.118L231.85 162.056L231.714 267.547L240.219 267.695L244.742 198.711L235.732 162.118Z" fill="#DE051F"/>
<path d="M253.934 162.302C253.934 162.302 254.094 165.913 254.341 167.306C254.501 168.156 259.456 176.463 255.561 186.607C255.487 186.804 255.438 187.014 255.425 187.235C255.314 189.516 254.748 203.209 257.632 210.358L272.582 258.771L266.826 262.887C266.826 262.887 247.217 220.785 246.662 218.862C246.108 216.939 233.511 175.687 235.138 164.15L235.459 162.006L253.934 162.302Z" fill="#EE384E"/>
<path d="M231.715 267.548C231.715 267.548 226.637 270.358 224.308 270.974C222.545 271.442 222.114 272.773 222.015 273.39C221.991 273.562 222.126 273.71 222.299 273.71H240.22V267.671L231.715 267.548Z" fill="#1C1457"/>
<path d="M266.829 262.888C266.829 262.888 265.326 267.14 262.17 269.679C259.015 272.218 262.17 273.857 262.17 273.857L275.334 265.599C275.383 265.574 275.408 265.537 275.432 265.488C275.593 265.18 276.197 263.861 275.531 262.542C274.779 261.039 272.585 258.771 272.585 258.771L266.829 262.888Z" fill="#1C1457"/>
</g>
<defs>
<linearGradient id="paint0_linear_3375_2861" x1="116.74" y1="96.9986" x2="113.653" y2="159.39" gradientUnits="userSpaceOnUse">
<stop stop-color="#09005D"/>
<stop offset="1" stop-color="#1A0F91"/>
</linearGradient>
<linearGradient id="paint1_linear_3375_2861" x1="55.1919" y1="133.166" x2="-0.0477276" y2="104.109" gradientUnits="userSpaceOnUse">
<stop stop-color="#09005D"/>
<stop offset="1" stop-color="#1A0F91"/>
</linearGradient>
<linearGradient id="paint2_linear_3375_2861" x1="76.6982" y1="263.726" x2="83.4444" y2="263.726" gradientUnits="userSpaceOnUse">
<stop stop-color="#FEBBBA"/>
<stop offset="1" stop-color="#FF928E"/>
</linearGradient>
<linearGradient id="paint3_linear_3375_2861" x1="114.56" y1="266.301" x2="134.691" y2="266.301" gradientUnits="userSpaceOnUse">
<stop stop-color="#09005D"/>
<stop offset="1" stop-color="#1A0F91"/>
</linearGradient>
<linearGradient id="paint4_linear_3375_2861" x1="108.651" y1="264.294" x2="116.706" y2="264.294" gradientUnits="userSpaceOnUse">
<stop stop-color="#FEBBBA"/>
<stop offset="1" stop-color="#FF928E"/>
</linearGradient>
<linearGradient id="paint5_linear_3375_2861" x1="97.8383" y1="189.664" x2="116.442" y2="189.664" gradientUnits="userSpaceOnUse">
<stop stop-color="#FEBBBA"/>
<stop offset="1" stop-color="#FF928E"/>
</linearGradient>
<clipPath id="clip0_3375_2861">
<rect width="340" height="270" fill="white"/>
</clipPath>
</defs>
</svg>
