<svg width="193" height="366" viewBox="0 0 193 366" fill="none" xmlns="http://www.w3.org/2000/svg">
<path d="M65.2585 71.6766L65.497 61.9111C65.497 61.9111 68.1203 59.2911 68.1203 57.3856C68.1203 55.7183 65.0201 45.9528 63.5892 45.7146C62.1583 45.4764 55.0039 48.5728 55.0039 50.7165C55.0039 52.8601 58.8196 60.7202 59.535 61.4347L58.5811 71.6766H65.2585Z" fill="#FBBE99"/>
<path d="M172.339 58.0998L169.001 48.3343C169.001 48.3343 165.9 46.1906 164.708 44.9997C163.516 43.8088 169.001 34.7578 169.716 34.7578C170.67 34.7578 175.917 37.616 176.632 38.5687C177.109 39.5215 173.532 46.667 173.532 46.667L178.54 54.7652L172.339 58.0998Z" fill="#FBBE99"/>
<path d="M152.782 56.1941C157.552 56.4323 179.73 80.4888 179.73 80.4888L170.191 53.5741L177.823 50.9541C177.823 50.9541 196.662 81.2034 192.37 91.6835C188.077 102.878 151.59 77.3925 151.59 77.3925L152.782 56.1941Z" fill="#F59F1D"/>
<path d="M81.0042 341.3L75.9961 334.393L84.3429 326.295L92.9281 318.196L100.321 325.104L90.3048 333.678L81.0042 341.3Z" fill="#FBBE99"/>
<path d="M75.7482 332.487C76.2252 332.011 83.1411 341.776 83.1411 341.776C83.1411 341.776 81.4717 351.78 84.8105 358.211C87.6722 364.88 81.9487 364.404 77.1791 357.973C72.4095 351.78 69.0708 347.254 65.4937 342.967C61.678 338.204 67.6399 338.203 75.7482 332.487Z" fill="#170856"/>
<path d="M133.463 352.019H124.639L122.97 339.872L122.016 329.392L132.032 327.725L132.509 340.825L133.463 352.019Z" fill="#FBBE99"/>
<path d="M122.734 351.304C122.734 350.351 134.42 351.066 134.42 351.066C134.42 351.066 141.813 358.45 148.49 360.117C155.406 361.784 151.59 365.595 143.721 365.595C135.851 365.595 129.889 365.595 124.404 365.595C119.157 366.071 122.496 361.308 122.734 351.304Z" fill="#170856"/>
<path d="M154.442 145.989C154.442 145.989 179.959 205.773 183.775 232.212C188.067 258.412 97.6835 328.676 97.6835 328.676L88.3828 318.91C88.3828 318.91 155.396 250.075 155.396 238.166C155.396 226.495 129.401 172.428 129.401 172.428C129.401 172.428 127.016 150.753 154.442 145.989Z" fill="#407BFF"/>
<path d="M136.329 296.045C127.028 304.619 118.204 312.241 111.288 317.958C103.419 324.627 97.9335 328.676 97.9335 328.676L88.6328 318.91C88.6328 318.91 97.9335 309.383 109.619 296.998C118.92 287.232 129.174 275.561 138.237 265.081C148.253 253.172 155.884 242.215 155.884 238.404C155.884 231.973 148.491 214.348 141.575 198.39C135.375 184.337 129.651 172.428 129.651 172.428C129.651 172.428 129.413 169.331 130.128 165.044C132.036 158.375 137.521 148.847 154.453 145.989C154.453 145.989 179.97 205.773 183.548 232.212C186.409 246.264 160.415 273.894 136.329 296.045Z" fill="#DD1F26"/>
<path opacity="0.2" d="M137.519 265.082L135.85 296.045C126.549 304.62 117.726 312.242 110.81 317.958C109.856 313.195 108.663 305.573 108.902 296.998C118.203 286.994 129.173 275.562 137.519 265.082Z" fill="black"/>
<path opacity="0.2" d="M141.568 198.39C135.367 184.337 129.644 172.428 129.644 172.428C129.644 172.428 129.405 169.332 130.121 165.044C131.79 164.092 132.982 163.615 132.982 163.615C132.982 163.615 140.614 175.763 141.568 198.39Z" fill="black"/>
<path d="M108.663 8.55792C108.663 8.55792 116.294 -0.969423 128.934 0.936045C141.573 3.0797 139.188 26.4217 139.188 26.4217C139.188 26.4217 147.058 32.6144 144.435 43.0945C141.812 53.3364 113.433 59.7673 102.224 52.3837C91.0155 45 99.6007 21.658 105.086 18.5616C110.809 15.4652 108.663 8.55792 108.663 8.55792Z" fill="#170856"/>
<path d="M133.469 164.092L135.138 248.171V334.394H120.829C86.7267 171 110.098 130.27 110.098 130.27C110.098 130.27 110.098 130.27 110.098 130.032C115.344 117.647 151.593 126.936 151.593 126.936C154.216 136.94 155.886 157.662 155.886 157.662L133.469 164.092Z" fill="#407BFF"/>
<path d="M133.469 164.092L135.138 248.171V334.394H120.829C86.7267 171 110.098 130.27 110.098 130.27C110.098 130.27 110.098 130.27 110.098 130.032C115.344 117.647 151.593 126.936 151.593 126.936C154.216 136.94 155.886 157.662 155.886 157.662L133.469 164.092Z" fill="#DD1F26"/>
<path d="M109.613 123.601V129.794L151.347 126.697V119.313L109.613 123.601Z" fill="#2E353A"/>
<path d="M123.901 121.171L121.758 121.281L122.281 131.509L124.424 131.4L123.901 121.171Z" fill="#407BFF"/>
<path d="M141.717 120.814L132.453 121.643L133.07 128.522L142.334 127.694L141.717 120.814Z" fill="white"/>
<path d="M148.944 118.313L146.801 118.422L147.323 128.65L149.467 128.541L148.944 118.313Z" fill="#407BFF"/>
<path opacity="0.6" d="M123.901 121.171L121.758 121.281L122.281 131.509L124.424 131.4L123.901 121.171Z" fill="white"/>
<path opacity="0.6" d="M148.944 118.313L146.801 118.422L147.323 128.65L149.467 128.541L148.944 118.313Z" fill="white"/>
<path d="M151.589 120.027L109.855 123.361C108.901 107.879 107.947 97.6374 98.6467 70.2463C97.6928 67.6263 96.9774 65.2444 96.0234 62.6244C101.508 60.7189 107.47 59.528 113.432 58.3371C119.871 57.3844 125.833 56.4316 132.272 56.4316C140.381 56.4316 149.681 57.3844 149.681 57.3844C149.681 57.3844 151.112 57.6226 151.828 66.4353C152.543 74.5336 153.258 90.4919 151.589 120.027Z" fill="#407BFF"/>
<path d="M151.589 120.027L109.855 123.361C108.901 107.879 107.947 97.6374 98.6467 70.2463C97.6928 67.6263 96.9774 65.2444 96.0234 62.6244C101.508 60.7189 107.47 59.528 113.432 58.3371C119.871 57.3844 125.833 56.4316 132.272 56.4316C140.381 56.4316 149.681 57.3844 149.681 57.3844C149.681 57.3844 151.112 57.6226 151.828 66.4353C152.543 74.5336 153.258 90.4919 151.589 120.027Z" fill="#FABD41"/>
<path d="M128.695 65.7219C118.44 64.2928 115.34 60.2436 115.34 60.2436C122.017 54.0509 116.294 43.5708 116.294 43.5708L128.695 45.7145C128.456 47.6199 128.456 49.5254 128.218 50.7163C128.218 58.3382 131.318 58.3382 131.318 58.3382C133.703 62.3873 128.695 65.7219 128.695 65.7219Z" fill="#FBBE99"/>
<path opacity="0.2" d="M128.694 45.7147C128.455 47.6202 128.455 49.5257 128.217 50.7166C122.016 49.2875 116.293 43.0947 116.293 43.0947L128.694 45.7147Z" fill="black"/>
<path d="M117.708 11.6542C127.963 9.03417 132.732 13.7978 136.548 24.5161C140.84 37.8544 139.887 48.3344 126.293 48.3344C106.976 48.5726 100.061 15.4651 117.708 11.6542Z" fill="#FBBE99"/>
<path d="M110.561 31.6614C110.561 31.6614 113.422 21.8959 111.038 15.4649C111.038 15.4649 129.878 2.12667 135.601 23.0868C135.601 23.0868 132.978 3.79395 114.853 7.60488C96.7289 11.4158 103.168 38.0924 114.376 43.3324C114.615 43.3324 108.414 37.616 110.561 31.6614Z" fill="#170856"/>
<path d="M112.705 33.5674C112.467 31.9002 109.844 29.2801 106.505 30.471C103.405 31.9001 103.405 38.5693 111.751 38.3311C113.182 38.3311 113.421 36.902 112.705 33.5674Z" fill="#FBBE99"/>
<path d="M151.593 66.436C135.615 74.2961 111.529 72.6288 98.4123 70.7233C97.4584 68.1033 96.743 65.7215 95.7891 63.1015C101.274 61.196 107.236 60.0051 113.198 58.8142C119.637 57.8614 125.599 56.9087 132.038 56.9087C140.146 56.9087 149.447 57.8614 149.447 57.8614C149.447 57.8614 150.878 57.6232 151.593 66.436Z" fill="#FBBE99"/>
<path d="M104.849 58.5757C104.849 58.5757 116.296 72.8667 116.534 88.825C116.773 104.307 106.518 176 106.518 176L93.8789 172.666C93.8789 172.666 103.418 117.169 93.8789 63.8157L104.849 58.5757Z" fill="#F59F1D"/>
<path d="M139.66 57.1469C139.66 57.1469 144.191 71.9142 143.953 82.8707C143.476 93.5889 155.161 145.989 155.161 145.989L158.5 154.088L155.161 121.456C155.161 121.456 157.069 73.3433 153.253 56.9087C153.015 57.1469 139.66 57.1469 139.66 57.1469Z" fill="#F59F1D"/>
<path d="M117.724 11.6546C117.724 11.6546 121.54 24.9929 109.854 30.9475C95.5457 38.3312 96.9766 53.8131 110.808 55.9567C110.808 55.9567 96.4996 54.5276 94.1148 45.2385C91.2531 35.7111 99.1229 21.6583 99.1229 21.6583C99.1229 21.6583 94.5918 13.7983 106.516 7.6055C112.716 4.03275 117.724 11.6546 117.724 11.6546Z" fill="#170856"/>
<path d="M159.946 28.089C157.8 24.278 153.507 22.6107 150.407 24.278C147.307 25.9453 146.591 30.709 148.738 34.2817C150.884 37.8545 155.177 39.7599 158.277 38.0927C161.377 36.6636 162.331 32.1381 159.946 28.089Z" fill="#407BFF"/>
<path d="M184.743 14.9885L177.112 1.17383C177.112 1.17383 172.104 12.3684 164.473 16.1794L168.288 22.8485L168.765 23.8012L172.581 30.4704C180.212 26.1831 192.136 27.6122 192.136 27.6122L184.743 14.9885Z" fill="#407BFF"/>
<path opacity="0.8" d="M159.946 28.089C157.8 24.278 153.507 22.6107 150.407 24.278C147.307 25.9453 146.591 30.709 148.738 34.2817C150.884 37.8545 155.177 39.7599 158.277 38.0927C161.377 36.6636 162.331 32.1381 159.946 28.089Z" fill="white"/>
<path opacity="0.8" d="M184.743 14.9885L177.112 1.17383C177.112 1.17383 172.104 12.3684 164.473 16.1794L168.288 22.8485L168.765 23.8012L172.581 30.4704C180.212 26.1831 192.136 27.6122 192.136 27.6122L184.743 14.9885Z" fill="white"/>
<path d="M159.707 36.4254C159.707 36.4254 164.954 44.2854 169.962 47.1436C170.2 47.3818 170.916 47.1436 170.916 46.9054L175.447 41.6654C175.685 41.4272 175.685 40.7127 175.208 40.2363C173.062 39.2836 168.292 36.9017 165.431 33.5672C161.138 29.2799 159.707 36.4254 159.707 36.4254Z" fill="#407BFF"/>
<path opacity="0.3" d="M159.707 36.4254C159.707 36.4254 164.954 44.2854 169.962 47.1436C170.2 47.3818 170.916 47.1436 170.916 46.9054L175.447 41.6654C175.685 41.4272 175.685 40.7127 175.208 40.2363C173.062 39.2836 168.292 36.9017 165.431 33.5672C161.138 29.2799 159.707 36.4254 159.707 36.4254Z" fill="black"/>
<path d="M192.137 28.5648C190.468 29.5175 185.46 24.0393 181.406 16.6556C176.875 9.03374 174.967 2.12643 176.636 1.17369C178.305 0.220959 183.313 5.69918 187.368 13.0829C191.899 20.4665 194.284 27.612 192.137 28.5648Z" fill="white"/>
<path opacity="0.4" d="M191.669 26.4212C190.238 26.8976 186.661 23.0866 183.084 16.6557C182.846 16.4175 182.846 16.1793 182.607 15.7029C182.369 15.4648 182.13 14.7502 182.13 14.2738C179.03 7.84288 177.361 2.84103 178.791 1.88829C180.222 1.41193 184.038 6.17559 188.092 12.6065C191.192 19.752 192.862 25.4685 191.669 26.4212Z" fill="black"/>
<path d="M157.8 39.7589C157.8 39.7589 155.892 38.3298 152.792 32.3752C149.453 25.9442 149.453 24.2769 149.453 24.2769L166.147 14.9878C166.147 14.9878 166.385 17.1314 169.485 23.5624C172.824 29.7552 174.493 30.9461 174.493 30.9461L157.8 39.7589Z" fill="#3867B1"/>
<path d="M183.079 16.8938C182.84 16.6557 182.84 16.4175 182.602 15.9411C182.363 15.7029 182.125 14.9884 182.125 14.512L183.794 14.0356C184.033 14.0356 184.271 14.0356 184.748 14.2738V14.512C184.987 14.7502 184.987 14.9884 184.748 15.4647L183.079 16.8938Z" fill="white"/>
<path opacity="0.2" d="M183.079 16.8938C182.84 16.6557 182.84 16.4175 182.602 15.9411C182.363 15.7029 182.125 14.9884 182.125 14.512L183.794 14.0356C184.033 14.0356 184.271 14.0356 184.748 14.2738V14.512C184.987 14.7502 184.987 14.9884 184.748 15.4647L183.079 16.8938Z" fill="black"/>
<path d="M93.6349 63.5781C88.1499 66.1981 66.9252 103.117 66.9252 103.117L66.6868 67.8654L57.1476 66.4363C57.1476 66.4363 51.6626 116.217 63.825 119.075C76.2259 121.933 98.8815 86.4437 98.8815 86.4437L93.6349 63.5781Z" fill="#F59F1D"/>
<path d="M5.20053 293.217C5.20053 293.217 9.86098 291.255 9.61569 285.859C9.24776 280.463 6.42698 276.661 12.1912 278.132C17.9554 279.727 19.9177 280.34 24.0876 279.481C28.2575 278.623 31.6915 276.906 29.9745 282.302C28.1348 287.699 26.1725 292.236 30.465 293.095C34.7575 293.953 39.418 290.765 39.9086 299.227C40.3991 307.689 33.6537 317.255 22.6159 317.623C11.578 317.991 6.67226 313.454 6.67226 313.454C6.67226 313.454 3.72882 309.284 8.38926 308.18C13.0497 307.199 17.7101 305.236 15.3799 303.029C13.0497 300.821 5.32318 300.699 5.32318 300.699C5.32318 300.699 -4.36563 298.736 5.20053 293.217Z" fill="#649EEA"/>
<path d="M55.727 294.567C54.9911 289.17 55.6044 285.246 65.5384 283.774C75.5952 282.302 81.3594 288.312 81.9726 294.567C82.5858 300.699 73.8782 303.029 73.8782 303.029C73.8782 303.029 67.746 304.746 70.8121 310.142C74.0008 315.538 75.3499 320.812 68.2366 321.548C61.1233 322.284 53.2741 320.444 48.9816 317.623C44.6891 314.68 40.1513 307.444 45.1797 303.519C45.1797 303.519 46.5288 302.538 51.3118 302.293C56.2176 302.048 55.727 294.567 55.727 294.567Z" fill="#023EA1"/>
<path d="M20.4102 293.708C20.4102 293.708 28.7499 312.596 29.8537 325.35" stroke="#023EA1" stroke-miterlimit="10"/>
<path d="M66.7699 296.774C66.7699 296.774 52.0527 318.728 48.4961 325.963" stroke="#649EEA" stroke-miterlimit="10"/>
<path d="M24.7011 323.878H58.5505C58.5505 323.878 62.2299 324.123 61.9846 329.152C61.7393 333.812 55.8524 332.831 52.7863 332.831C49.7203 332.831 24.0879 332.831 24.0879 332.831C24.0879 332.831 19.918 333.567 19.918 328.784C19.918 324.123 21.3897 323.878 24.7011 323.878Z" fill="#0054A5"/>
<path d="M24.0859 332.831L29.2369 362.756H51.9259L55.7278 340.312L24.0859 332.831Z" fill="#0054A5"/>
<path d="M24.0859 332.831L55.7278 340.312L56.9543 332.831H24.0859Z" fill="#006AD5"/>
<path d="M38.6758 324.982C38.6758 324.982 40.3928 291.746 50.3269 271.019" stroke="#FCBE42" stroke-miterlimit="10"/>
<path d="M58.4366 259C58.4366 259 59.295 269.179 49.3609 273.104C49.2383 273.227 47.1534 264.519 58.4366 259Z" fill="#FCBE42"/>
<path d="M43.4688 291.5C43.4688 291.5 47.1481 282.793 58.4312 284.019C58.4312 283.897 57.5727 292.604 43.4688 291.5Z" fill="#FCBE42"/>
<path d="M39.7852 313.331C39.7852 313.331 41.6248 304.133 52.908 303.029C52.908 303.029 53.7665 311.614 39.7852 313.331Z" fill="#FCBE42"/>
<path d="M39.4162 313.331C39.4162 313.331 40.7652 304.01 30.4632 299.227C30.3406 299.227 26.6613 307.076 39.4162 313.331Z" fill="#FCBE42"/>
<path d="M43.5857 291.378C43.5857 291.378 46.0386 282.302 36.4724 276.292C36.4724 276.292 31.812 283.528 43.5857 291.378Z" fill="#FCBE42"/>
</svg>
