<svg width="150" height="101" viewBox="0 0 150 101" fill="none" xmlns="http://www.w3.org/2000/svg">
<path d="M145.649 50.0422C144.818 53.1237 142.739 54.8045 139.8 55.7289C137 56.6253 134.284 57.7739 131.512 58.8104C127.464 60.2951 124.304 58.9505 122.419 55.0006C122.336 54.8605 122.225 54.7204 121.865 54.6084C121.865 54.9725 121.837 55.3367 121.865 55.7009C122.114 57.914 121.92 60.071 120.922 62.088C119.259 65.5616 115.933 67.1584 112.19 66.2059C111.885 66.1219 111.58 66.0379 111.081 65.8978C111.331 69.4275 110.333 72.3969 107.589 74.582C104.844 76.767 101.739 77.1032 98.302 76.0387C98.4961 78.9241 97.8031 81.4453 95.8903 83.5463C93.9776 85.6753 91.5104 86.5437 88.6275 86.6558C89.0433 90.1855 88.0453 93.1829 85.1069 95.1999C82.0299 97.3009 78.9806 96.6005 75.9036 94.7236C73.9631 98.3654 71.3851 101.195 66.922 100.522C62.7085 99.8781 60.269 97.0488 58.8553 93.0428C56.3604 94.0793 53.8655 94.3034 51.3429 93.2389C48.8758 92.2024 47.2402 90.3255 46.27 87.8043C42.7217 89.9053 39.2289 90.0174 35.9024 87.6643C32.5204 85.2551 31.6888 81.7534 32.4096 77.7755C31.3839 77.6634 30.3582 77.6634 29.388 77.4393C23.6221 76.1787 20.6282 70.0158 23.1508 64.6372C23.8715 63.1245 24.7309 61.6958 25.4516 60.183C25.6734 59.7348 25.7843 59.2026 26.0338 58.3902C25.5071 58.6703 25.2853 58.7263 25.119 58.8664C23.1785 60.2951 21.0995 60.5752 18.8263 59.8469C15.4998 58.7544 12.1456 57.7179 8.84683 56.5973C4.88275 55.2527 3.13634 51.779 4.4115 47.7451C7.59939 37.6602 10.8427 27.5754 14.0584 17.4905C15.3058 13.5967 16.5532 9.70279 17.8007 5.80892C19.2144 1.52286 22.5964 -0.21397 26.9208 1.15869C29.9978 2.13916 33.0194 3.23169 36.1242 4.15613C39.0626 5.02455 40.8644 6.90145 41.502 10.3471C44.1078 10.039 46.7413 9.75882 49.3747 9.39465C51.9251 9.03047 54.4476 8.44219 56.998 8.19007C62.0986 7.71384 66.8666 8.94643 71.2742 11.6077C71.9118 11.9999 72.3553 12.0279 73.0206 11.6357C79.6736 7.60178 86.6593 7.23761 93.839 9.98293C96.4725 10.9914 99.0505 12.112 101.684 13.0644C103.347 13.6527 105.121 14.1569 106.951 13.3726C106.812 12.5882 106.646 11.8878 106.563 11.1595C106.313 8.27411 107.81 5.64084 110.472 4.54832C114.131 3.0636 117.845 1.63492 121.588 0.374313C125.08 -0.85828 128.49 1.04664 129.848 4.7164C132.925 13.0364 135.947 21.3564 139.024 29.6764C141.214 35.6433 143.432 41.5821 145.649 47.521C145.649 48.3614 145.649 49.2018 145.649 50.0422ZM71.2188 78.5879C71.2465 78.5039 71.2742 78.4198 71.3019 78.3358C70.9693 78.1397 70.6089 77.9436 70.2763 77.7195C69.3615 77.0752 69.0288 76.2067 69.5832 75.1702C70.1377 74.1898 70.997 73.8816 72.0504 74.3579C72.383 74.4979 72.7157 74.694 73.0206 74.8621C77.456 77.2432 81.8636 79.6244 86.3266 81.9775C89.6254 83.7144 93.34 82.1456 94.2825 78.6999C94.9755 76.1507 93.8667 73.6855 91.2055 72.2008C87.38 70.0718 83.4991 68.0268 79.6459 65.9538C79.2301 65.7297 78.8143 65.5336 78.4539 65.2535C77.5946 64.6372 77.2896 63.7968 77.7609 62.8163C78.2599 61.7518 79.1746 61.5557 80.2003 61.8919C80.5884 62.0039 80.9488 62.256 81.3092 62.4521C87.1583 65.6177 93.0074 68.7832 98.8287 71.9487C100.326 72.7611 101.878 73.0412 103.486 72.481C105.648 71.7526 106.951 70.2119 107.2 67.8867C107.478 65.4216 106.452 63.5167 104.317 62.3401C98.6901 59.2306 93.0628 56.1771 87.4355 53.0956C86.9919 52.8435 86.3544 52.6474 86.2157 52.2552C85.9385 51.5549 85.7168 50.6585 85.9385 49.9861C86.2435 49.0897 87.1583 48.7536 88.1285 49.1177C88.5166 49.2578 88.8769 49.4819 89.2373 49.678C94.1439 52.3673 99.0228 55.0566 103.929 57.7179C106.646 59.2026 109.335 60.7153 112.107 62.088C114.768 63.4046 116.82 62.4801 117.734 59.6228C118.594 56.9615 118.233 54.4123 116.099 52.5914C113.798 50.6305 111.303 48.7816 108.67 47.2969C103.652 44.4675 98.4684 41.9183 93.3677 39.257C92.148 38.6127 90.956 37.9123 89.764 37.184C87.2691 35.6433 84.6357 35.7833 82.0299 36.5957C77.8995 37.8843 73.8522 39.4811 69.7218 40.6857C64.0945 42.3105 58.8553 41.6101 54.4199 37.3241C50.8994 33.9344 50.7331 32.982 53.9764 29.2842C56.5544 26.3148 59.382 23.5695 62.154 20.7681C64.2331 18.6671 66.3676 16.6501 68.4744 14.6051C68.3912 14.4931 68.3635 14.4091 68.3081 14.353C68.1695 14.241 68.0031 14.1569 67.8368 14.0729C63.4015 11.7758 58.7444 11.5797 53.9487 12.4761C49.8183 13.2325 45.7433 14.297 41.502 14.0449C41.1694 14.0169 40.6149 14.6051 40.5041 14.9973C36.9558 25.9506 33.4352 36.9039 29.9978 47.8851C29.4157 49.734 29.2771 51.723 28.9445 53.6279C29.0831 53.6839 29.2217 53.7119 29.3325 53.768C32.2155 51.3308 35.4589 50.3783 38.9517 51.8911C42.4168 53.4038 44.3018 56.2892 44.8285 60.043C52.1468 59.8749 54.1982 61.4437 56.3049 68.6431C62.0154 67.4105 67.9754 71.1083 67.8091 78.5879C68.9179 78.5879 70.0822 78.5879 71.2188 78.5879ZM55.8337 33.01C58.3563 36.3156 61.5719 37.9684 65.3419 37.4921C67.92 37.156 70.4426 36.3716 72.9375 35.6152C75.9868 34.6908 78.9252 33.4862 81.9745 32.6178C85.1624 31.7214 88.3503 31.8895 91.3441 33.5983C94.0885 35.139 96.8328 36.5957 99.6049 38.0804C106.618 41.8342 114.131 44.7756 119.73 50.8266C119.869 50.9666 120.257 51.0787 120.423 50.9666C120.59 50.8826 120.673 50.5184 120.645 50.2943C120.617 50.0142 120.479 49.762 120.368 49.5099C116.542 39.1169 112.689 28.6959 108.864 18.3029C108.697 17.8827 108.531 17.4625 108.365 17.0983C104.733 17.8267 103.042 17.7146 99.4663 16.37C97.2764 15.5576 95.1141 14.6332 92.9242 13.7367C85.5227 10.7113 78.5094 11.5797 72.4108 16.6781C67.4487 20.8241 63.0134 25.5584 58.3563 30.0686C57.4969 30.965 56.7208 32.0015 55.8337 33.01ZM7.84888 49.8461C7.82116 51.4989 8.51418 52.4233 10.0666 52.9276C13.2822 54.0201 16.5255 55.0846 19.7689 56.1211C21.9865 56.8214 23.234 56.1491 23.9824 53.852C28.4178 39.9853 32.8531 26.1187 37.2884 12.224C38.0369 9.89889 37.3716 8.61027 35.043 7.85391C32.0215 6.87343 28.9999 5.89296 25.9783 4.91249C23.3726 4.07209 22.2083 4.66037 21.3767 7.26562C16.969 20.9922 12.5891 34.7468 8.18153 48.4734C8.04293 49.0337 7.93204 49.5659 7.84888 49.8461ZM123.223 3.90401C122.946 3.98805 122.447 4.07209 121.976 4.26818C118.899 5.41674 115.849 6.56529 112.772 7.71384C110.499 8.58226 109.889 9.87088 110.721 12.168C115.738 25.8666 120.756 39.5371 125.801 53.2077C126.633 55.4488 127.908 56.009 130.153 55.1967C133.147 54.1041 136.113 52.9836 139.079 51.863C141.741 50.8546 142.267 49.706 141.297 47.0447C138.248 38.7528 135.199 30.4888 132.177 22.1968C130.209 16.8462 128.241 11.4676 126.272 6.11707C125.801 4.77243 124.942 3.90401 123.223 3.90401ZM35.847 80.1566C35.9856 82.7619 37.427 84.6948 39.8665 85.3391C42.1673 85.9554 44.4959 84.9469 45.7156 82.7059C47.7115 79.0361 49.6519 75.3383 51.5924 71.6406C53.0339 68.8672 52.1745 65.7857 49.6519 64.3851C47.0462 62.9284 43.9969 63.9088 42.4722 66.7102C40.5318 70.2959 38.619 73.9096 36.7617 77.5514C36.3459 78.3638 36.1519 79.2882 35.847 80.1566ZM31.7997 73.8256C33.1026 73.8256 34.6827 73.0412 35.6529 71.3324C37.2884 68.419 38.8685 65.4776 40.3377 62.4802C41.5852 59.9309 40.4763 57.0175 37.8706 55.6169C35.6529 54.4403 32.6591 55.2247 31.3285 57.5218C29.6375 60.4632 28.0297 63.4326 26.5882 66.4861C24.9527 69.9317 27.4198 73.7696 31.7997 73.8256ZM54.8357 90.0454C56.5822 90.0454 58.1068 89.4011 58.9661 87.9164C60.6017 85.115 62.154 82.2577 63.5124 79.3162C64.5935 76.9351 63.4015 74.1337 61.0729 72.9012C58.7721 71.6966 55.806 72.3689 54.4754 74.582C52.8953 77.2432 51.3984 79.9886 50.1232 82.8179C48.5431 86.2916 51.0934 90.0454 54.8357 90.0454ZM69.805 82.3977C66.229 82.3977 61.9046 87.8603 62.5421 91.6141C62.5699 91.8383 62.5976 92.0904 62.6807 92.2865C63.5124 94.5556 64.9261 96.2644 67.3933 96.6846C69.8882 97.1048 71.1633 95.368 72.189 93.463C72.9652 92.0344 73.7136 90.6057 74.3235 89.0929C75.7927 85.5352 73.6582 82.3977 69.805 82.3977ZM76.5134 81.0811C79.5627 84.2186 79.1469 87.6643 77.65 91.362C78.6202 91.7542 79.4796 92.2585 80.3944 92.4826C82.2239 92.8748 83.9149 91.8383 84.6357 89.9614C85.4118 87.9724 84.802 85.7874 82.8892 84.6108C80.8102 83.3502 78.648 82.2577 76.5134 81.0811Z" fill="#2A2A2A"/>
</svg>
