<svg width="150" height="107" viewBox="0 0 150 107" fill="none" xmlns="http://www.w3.org/2000/svg">
<g clip-path="url(#clip0_1390_1553)">
<path d="M59.3987 107C58.7564 106.456 58.1554 105.869 58.5284 104.885C58.9014 103.922 59.7096 103.859 60.5799 103.859C63.6467 103.88 66.7136 103.859 69.9047 103.859C69.9047 103.419 69.9047 103.042 69.9047 102.686C69.9047 99.5246 69.9047 96.3419 69.9047 93.18C69.9047 91.8818 70.5057 91.1489 71.4796 91.1698C72.4121 91.1908 72.9923 91.9446 73.013 93.1591C73.0338 96.6769 73.013 100.195 73.013 103.817C75.1681 103.817 77.3025 103.88 79.4161 103.754C79.7891 103.733 80.4522 102.959 80.4522 102.54C80.4315 98.8965 80.7216 95.1693 80.0999 91.6096C78.9188 84.909 73.1788 80.3861 66.3613 80.3233C59.6681 80.2605 52.9957 80.2395 46.3025 80.3233C38.511 80.407 32.5224 86.3747 32.2323 94.227C32.1287 96.8444 32.1908 99.4409 32.2116 102.058C32.2116 103.336 32.7296 103.838 33.9729 103.838C35.755 103.859 37.5578 103.838 39.3399 103.838C39.4435 103.838 39.5264 103.775 39.7129 103.733C39.7129 101.64 39.7129 99.5246 39.7129 97.4098C39.7129 95.944 39.7129 94.4783 39.7129 93.0125C39.7336 91.8818 40.3138 91.1698 41.2256 91.1698C42.1374 91.1698 42.7797 91.8818 42.8005 92.9916C42.8212 96.3628 42.8005 99.755 42.8005 103.126C42.8005 103.336 42.8212 103.524 42.8419 103.859C44.3753 103.859 45.888 103.859 47.38 103.859C48.9549 103.859 50.5505 103.88 52.1253 103.859C53.0164 103.838 53.8245 103.985 54.1354 104.948C54.4462 105.911 53.9281 106.539 53.1407 107C46.3232 107 39.485 107 32.6674 107C31.88 106.518 30.8854 106.225 30.3673 105.534C29.6835 104.655 29.3934 103.461 28.9375 102.393C28.9375 99.755 28.9375 97.0957 28.9375 94.4573C29.1862 92.9288 29.3105 91.3583 29.7249 89.8507C31.6728 82.8151 37.6407 77.8734 44.8519 77.2661C45.2457 77.2243 45.6394 77.1824 46.1574 77.1405C36.1902 69.5186 37.7029 56.2221 44.624 49.9822C51.7109 43.5747 62.3827 43.9307 68.9308 50.9454C75.4582 57.9391 75.5411 70.0002 66.4649 77.0986C67.5217 77.2452 68.4957 77.3289 69.4489 77.4965C77.5511 78.9832 83.4776 86.0816 83.5605 94.4364C83.5812 96.635 83.4569 98.8336 83.6019 101.011C83.7677 103.88 82.7938 105.953 80.0585 107C73.1995 107 66.2991 107 59.3987 107ZM56.3526 77.1824C64.2062 77.1614 70.5678 70.7121 70.5264 62.818C70.485 54.9657 64.0819 48.5164 56.3319 48.5374C48.499 48.5583 42.1581 55.0076 42.1788 62.9227C42.2203 70.8378 48.5404 77.2033 56.3526 77.1824Z" fill="#2A2A2A"/>
<path d="M113.213 48.0976C114.892 48.0976 116.404 48.1605 117.917 48.0558C118.249 48.0348 118.808 47.4904 118.808 47.1763C118.808 44.3286 119.036 41.418 118.601 38.6331C117.751 33.2307 113.234 29.4407 107.805 29.3151C102.127 29.1894 96.4284 29.1894 90.7506 29.3151C84.4926 29.4616 79.7473 34.4661 79.6851 40.7689C79.6644 42.7791 79.7058 44.8102 79.6644 46.8203C79.6437 47.6998 80.0166 48.0976 80.887 48.0976C82.2961 48.0767 83.7051 48.0976 85.28 48.0976C85.28 47.1973 85.28 46.3387 85.28 45.4802C85.28 43.5747 85.28 41.6483 85.28 39.7428C85.28 38.4446 85.8602 37.6908 86.8134 37.6699C87.7874 37.6489 88.3676 38.4027 88.3676 39.701C88.3676 42.444 88.3676 45.1871 88.3676 48.0558C88.782 48.0767 89.155 48.0976 89.5073 48.1186C91.4759 48.1186 93.4445 48.0976 95.3923 48.1395C96.4906 48.1605 97.1951 48.8305 97.1744 49.7519C97.1537 50.6522 96.4906 51.2595 95.413 51.2595C90.4398 51.2804 85.4872 51.2804 80.514 51.2595C78.2138 51.2385 76.5354 49.5215 76.5561 47.1973C76.5561 44.3076 76.411 41.3971 76.784 38.5493C77.5922 32.1419 82.8141 27.1374 89.155 26.3417C89.4451 26.2998 89.7352 26.237 90.0875 26.1532C82.6483 19.5783 83.7051 9.5902 89.01 4.29255C94.3977 -1.08886 103.039 -1.42389 108.717 3.62249C112.094 6.61682 113.814 10.4487 113.731 14.9716C113.648 19.4526 111.763 23.138 108.302 26.1323C109.317 26.3207 110.167 26.4254 110.996 26.6348C117.067 28.1425 121.523 33.5029 121.875 39.8266C122.02 42.2974 121.979 44.7683 121.916 47.2391C121.854 49.6681 120.217 51.2595 117.813 51.2595C112.923 51.2804 108.033 51.2804 103.122 51.2595C101.961 51.2595 101.319 50.6941 101.319 49.71C101.319 48.7468 101.961 48.1395 103.122 48.1395C105.401 48.1186 107.66 48.1395 110.084 48.1395C110.084 47.6998 110.084 47.3229 110.084 46.9669C110.084 44.538 110.084 42.0881 110.084 39.6591C110.084 38.4446 110.706 37.7117 111.638 37.7117C112.592 37.7117 113.172 38.4237 113.172 39.6591C113.234 42.3812 113.213 45.1661 113.213 48.0976ZM99.2051 26.1323C105.525 26.1532 110.685 20.9812 110.664 14.6156C110.664 8.35478 105.567 3.18277 99.3709 3.11995C93.0507 3.05713 87.9117 8.20821 87.891 14.5947C87.8703 20.9603 92.9264 26.1113 99.2051 26.1323Z" fill="#2A2A2A"/>
<path d="M100.801 70.7959C100.801 72.4292 100.801 73.9368 100.801 75.4235C100.781 81.81 96.3877 86.2282 90.0675 86.2701C89.0935 86.2701 88.1403 86.291 87.1664 86.2701C85.9853 86.2491 85.26 85.6 85.2807 84.6577C85.3014 83.7364 86.006 83.171 87.1457 83.1501C88.6169 83.1082 90.1089 83.192 91.5802 83.0035C94.9993 82.5847 97.5895 79.6532 97.6724 76.1773C97.7139 74.4393 97.6724 72.7014 97.6724 70.8168C96.6985 70.8168 95.7867 70.8168 94.875 70.8168C93.3208 70.8378 92.0153 70.3352 91.2486 68.8904C90.4819 67.4456 90.7306 66.0845 91.6009 64.7654C93.0929 62.5039 94.5434 60.2215 96.0354 57.9601C97.7553 55.3427 100.739 55.3427 102.459 57.9601C103.951 60.2215 105.402 62.5039 106.894 64.7444C107.764 66.0636 108.033 67.4247 107.246 68.8695C106.459 70.3143 105.174 70.8168 103.62 70.7959C102.729 70.7749 101.838 70.7959 100.801 70.7959ZM99.2266 67.655C100.636 67.655 102.045 67.6759 103.454 67.634C103.806 67.634 104.303 67.5503 104.448 67.3409C104.573 67.1524 104.386 66.629 104.2 66.3567C102.811 64.1581 101.382 62.0014 99.9518 59.8237C99.3509 58.9023 99.1229 58.9233 98.5013 59.8656C97.0922 62.0014 95.7038 64.1581 94.3155 66.3149C94.129 66.608 94.0668 67.0059 93.9632 67.3409C94.3362 67.4456 94.7092 67.634 95.0822 67.655C96.4705 67.6759 97.8589 67.655 99.2266 67.655Z" fill="#2A2A2A"/>
</g>
<defs>
<clipPath id="clip0_1390_1553">
<rect width="93" height="107" fill="white" transform="translate(29)"/>
</clipPath>
</defs>
</svg>
