<svg width="150" height="121" viewBox="0 0 150 121" fill="none" xmlns="http://www.w3.org/2000/svg">
<path d="M15 97.614C16.3548 95.1004 17.6358 92.5375 19.1138 90.0977C20.7889 87.3377 23.3754 86.5984 26.5285 87.1898C27.6616 85.2183 28.7948 83.2222 29.9772 81.2753C31.7262 78.3181 33.352 75.2623 35.3227 72.4776C40.5696 65.1092 47.8119 62.5462 56.6307 64.0741C57.6407 64.2466 58.6753 64.3698 59.636 64.7149C62.1486 65.6267 64.7351 65.7006 67.3709 65.676C72.544 65.6267 77.6924 65.7499 82.8654 65.6267C87.3241 65.5034 90.4279 67.3024 92.103 71.5904C92.5464 71.3686 92.9898 71.1715 93.4086 70.9497C101.661 66.8342 109.864 62.6941 118.141 58.6525C121.589 56.9768 125.211 56.065 129.078 57.0014C131.344 57.5436 133.192 58.8004 134.645 60.624C136.911 63.458 136.271 66.9821 133.143 68.8057C127.206 72.2804 121.244 75.6813 115.283 79.1314C109.002 82.754 102.695 86.3026 96.4632 90.0238C90.3294 93.6957 83.7276 95.5193 76.6085 95.5933C73.9481 95.6179 71.2877 95.6672 68.6272 95.6179C63.602 95.5193 59.907 97.688 57.4436 102.025C57.0248 102.765 56.6061 103.504 56.138 104.317C57.4682 105.771 58.2319 107.422 58.1333 109.418C58.0102 111.71 53.9949 118.734 52.0242 119.941C51.3099 120.385 50.4723 120.656 49.7087 121.001C48.8958 121.001 48.0582 121.001 47.2453 121.001C46.2353 120.508 45.1761 120.04 44.2154 119.473C36.0371 114.766 27.8833 109.985 19.6557 105.327C17.4387 104.071 15.739 102.567 15.0493 100.078C15 99.2652 15 98.4519 15 97.614ZM53.6008 102.715C54.0688 101.902 54.4629 101.237 54.8324 100.571C57.887 95.2236 62.4688 92.5621 68.6519 92.6607C71.1399 92.71 73.6525 92.6607 76.1405 92.6607C82.9147 92.636 89.1963 90.9356 95.059 87.4116C102.006 83.2468 109.076 79.2792 116.096 75.2377C121.195 72.2804 126.319 69.3478 131.394 66.3906C133.266 65.3063 133.487 63.877 132.108 62.2505C130.95 60.8951 129.497 60.0326 127.723 59.7368C124.447 59.1947 121.466 60.2544 118.633 61.659C110.086 65.8731 101.562 70.1611 93.0637 74.4491C92.6696 74.6462 92.2754 75.1391 92.1769 75.5827C91.1423 79.5749 88.0138 82.1132 83.8754 82.1379C78.7516 82.1625 73.6278 82.1379 68.5041 82.1379C67.1492 82.1379 66.3856 81.5464 66.4349 80.5853C66.4841 79.6489 67.1492 79.1806 68.5041 79.1806C73.5539 79.1806 78.5792 79.1806 83.6291 79.1806C86.9546 79.1806 89.344 76.9627 89.3687 73.9069C89.3933 70.8511 87.0039 68.6332 83.6537 68.6332C77.2982 68.6332 70.9428 68.6578 64.612 68.6085C63.2571 68.5839 61.853 68.3621 60.5228 68.0171C56.5075 66.9081 52.443 66.1442 48.2799 67.0067C42.9098 68.1157 39.1901 71.5165 36.4312 76.0509C34.4112 79.3531 32.4898 82.8032 30.5191 86.2041C30.0757 86.968 29.6323 87.7566 29.1643 88.6191C37.318 93.3014 45.3978 97.959 53.6008 102.715ZM55.1527 109.27C55.1281 107.619 54.4137 106.609 53.182 105.894C44.3139 100.768 35.4705 95.6672 26.6024 90.566C24.5332 89.3831 22.6118 89.9252 21.3801 92.0199C20.4686 93.5725 19.5818 95.125 18.6704 96.7022C17.3156 99.068 17.8329 100.892 20.1977 102.272C23.5725 104.219 26.9226 106.165 30.2974 108.088C35.6922 111.193 41.0623 114.322 46.457 117.403C48.2553 118.438 50.1521 118.29 51.1867 116.737C52.5662 114.667 53.7239 112.449 54.931 110.281C55.1281 109.911 55.1034 109.468 55.1527 109.27Z" fill="#2A2A2A"/>
<path d="M81.3379 49.3126C81.3379 47.834 81.4611 46.3554 81.3133 44.9014C81.0669 42.1906 80.0816 39.7509 78.2341 37.6809C74.2188 33.2204 73.8 28.0945 75.9431 22.7961C78.1109 17.3992 82.274 14.2448 88.0875 13.4809C98.6306 12.1255 107.326 22.0076 104.592 32.2839C104.149 33.9597 103.212 35.6601 102.079 36.9909C99.3696 40.1206 98.2611 43.6939 98.3597 47.7355C98.4089 49.4112 98.3843 51.087 98.3597 52.7627C98.3104 57.6175 94.6646 61.3634 89.9843 61.4126C85.4271 61.4619 81.7074 57.864 81.4857 53.1324C81.4364 51.8756 81.4857 50.5941 81.4857 49.3126C81.4364 49.3126 81.3872 49.3126 81.3379 49.3126ZM95.6007 44.4332C95.921 40.5642 97.7931 37.4591 100.232 34.6004C100.995 33.7133 101.537 32.4811 101.784 31.3228C103.681 22.6729 96.66 15.1073 87.8904 16.4874C83.4317 17.1774 80.2294 19.7896 78.6282 24.0037C77.0516 28.1192 77.2241 32.1114 80.3525 35.5862C82.4218 37.9027 83.6781 40.6135 84.1461 43.6939C84.1954 43.9896 84.5649 44.4579 84.8112 44.4579C85.969 44.5318 87.1514 44.4825 88.457 44.4825C88.457 43.5214 88.457 42.7082 88.457 41.8949C88.457 38.6173 88.457 35.3397 88.457 32.0621C88.457 31.1503 88.9497 30.5589 89.8365 30.5096C90.7479 30.4603 91.2406 31.0517 91.3637 31.9389C91.413 32.2593 91.3884 32.6043 91.3884 32.9247C91.3884 36.3255 91.3884 39.7263 91.3884 43.1271C91.3884 43.546 91.3884 43.9896 91.3884 44.4086C92.891 44.4332 94.1966 44.4332 95.6007 44.4332ZM95.3544 47.4644C93.4576 47.4644 91.6593 47.4644 89.8611 47.4644C88.0875 47.4644 86.2892 47.4644 84.4664 47.4644C84.4664 48.8691 84.4664 50.1259 84.4664 51.4813C86.3385 51.4813 88.1368 51.4813 89.935 51.4813C91.7086 51.4813 93.5069 51.4813 95.3297 51.4813C95.3544 50.0766 95.3544 48.8691 95.3544 47.4644ZM84.8112 54.4632C85.3039 56.8782 87.8165 58.6526 90.2552 58.4308C92.694 58.2336 94.8371 56.41 94.9602 54.4632C91.6101 54.4632 88.2599 54.4632 84.8112 54.4632Z" fill="#2A2A2A"/>
<path d="M65.5722 29.9428C64.7593 29.9428 63.9464 29.9674 63.1335 29.9428C62.1482 29.9181 61.4584 29.4745 61.4831 28.3902C61.5323 27.4045 62.1728 26.9855 63.1335 26.9855C64.8086 26.9855 66.4837 26.9855 68.1588 26.9855C69.1195 26.9855 69.7846 27.4045 69.8092 28.3902C69.8338 29.4499 69.1441 29.8935 68.1588 29.9428C67.2966 29.9674 66.4344 29.9428 65.5722 29.9428Z" fill="#2A2A2A"/>
<path d="M70.6967 7.71429C71.2386 8.01002 71.682 8.15788 71.9776 8.4536C73.1847 9.61185 74.3671 10.7947 75.5249 12.0023C76.2146 12.7169 76.4363 13.5055 75.6727 14.2695C74.909 15.0334 74.1208 14.787 73.431 14.0723C72.2486 12.8894 71.0169 11.7558 69.9084 10.499C69.5636 10.1047 69.3911 9.36541 69.5143 8.87254C69.6375 8.40431 70.2533 8.10859 70.6967 7.71429Z" fill="#2A2A2A"/>
<path d="M88.4573 4.11629C88.4573 3.25376 88.4573 2.39123 88.4573 1.52871C88.4819 0.616896 88.9499 0.02545 89.8614 0.000806402C90.7235 -0.0238372 91.2901 0.518322 91.3394 1.3562C91.4133 3.22912 91.4133 5.12667 91.3394 6.99959C91.3147 7.81282 90.7482 8.37963 89.8614 8.33034C88.9253 8.3057 88.4573 7.73889 88.4326 6.80244C88.4573 5.91527 88.4573 5.00345 88.4573 4.11629Z" fill="#2A2A2A"/>
<path d="M103.509 13.2591C103.829 12.7416 104.001 12.3226 104.297 12.0023C105.43 10.8194 106.588 9.68577 107.746 8.52752C108.436 7.8375 109.224 7.56642 109.987 8.33037C110.726 9.06968 110.554 9.88291 109.84 10.5976C108.633 11.8051 107.475 13.0619 106.169 14.1955C105.8 14.5159 105.011 14.6391 104.543 14.4913C104.149 14.3434 103.878 13.7027 103.509 13.2591Z" fill="#2A2A2A"/>
<path d="M114.224 27.0102C115.135 27.0102 116.022 26.9856 116.934 27.0102C117.796 27.0349 118.313 27.5277 118.362 28.3903C118.412 29.2774 117.894 29.8689 117.057 29.8935C115.185 29.9675 113.288 29.9675 111.416 29.9182C110.578 29.8935 110.036 29.3267 110.036 28.4642C110.061 27.577 110.578 27.0349 111.514 27.0102C112.401 26.9856 113.312 27.0102 114.224 27.0102Z" fill="#2A2A2A"/>
</svg>
