<svg width="363" height="291" viewBox="0 0 363 291" fill="none" xmlns="http://www.w3.org/2000/svg">
<path d="M131.855 131.356C131.855 137.825 126.635 143 120.108 143H38.7474C32.2213 143 27 137.825 27 131.356V39.6439C27 33.1744 32.2213 28 38.7474 28H120.253C126.779 28 132 33.1744 132 39.6439L131.855 131.356Z" fill="#CBCDD2"/>
<path d="M130.71 130.224C130.71 136.685 125.545 141.853 119.091 141.853H38.6191C32.1642 141.853 27 136.685 27 130.224V38.629C27 32.1686 32.1642 27 38.6191 27H119.234C125.689 27 130.853 32.1686 130.853 38.629L130.71 130.224Z" fill="white"/>
<path d="M130.71 44.3721V38.629C130.71 32.1686 125.545 27 119.091 27H38.6191C32.1642 27 27 32.1686 27 38.629V44.3721H130.71Z" fill="#0064B7"/>
<path d="M108.477 39.491C108.477 40.0655 108.046 40.4955 107.472 40.4955H101.161C100.587 40.4955 100.156 40.0655 100.156 39.491V33.1743C100.156 32.5998 100.587 32.1689 101.161 32.1689H107.472C108.046 32.1689 108.477 32.5998 108.477 33.1743V39.491Z" fill="white"/>
<path d="M120.381 39.491C120.381 40.0655 119.951 40.4955 119.377 40.4955H113.066C112.492 40.4955 112.062 40.0655 112.062 39.491V33.1743C112.062 32.5998 112.492 32.1689 113.066 32.1689H119.377C119.951 32.1689 120.381 32.5998 120.381 33.1743V39.491Z" fill="white"/>
<path d="M94.848 36.3322C94.848 38.6293 92.9834 40.4955 90.6883 40.4955H37.4703C35.1752 40.4955 33.3105 38.6293 33.3105 36.3322C33.3105 34.0351 35.1752 32.1689 37.4703 32.1689H90.6883C92.9834 32.1689 94.848 34.0351 94.848 36.3322Z" fill="white"/>
<path d="M84.6636 79.9763C84.6636 93.7587 73.4751 104.957 59.7044 104.957C45.9346 104.957 34.7461 93.7587 34.7461 79.9763C34.7461 66.1938 45.9346 54.9957 59.7044 54.9957C73.4751 54.9957 84.6636 66.1938 84.6636 79.9763Z" fill="#E9EEF2"/>
<path d="M79.0707 95.6248C75.6276 102.372 68.4552 106.967 60.2793 106.967C52.1034 106.967 44.07 102.516 40.3408 95.6248C45.505 92.0361 52.82 89.8817 59.7053 89.8817C66.8776 89.8817 73.476 92.0361 79.0707 95.6248Z" fill="#FCBE42"/>
<path d="M66.6244 85.0658C70.29 81.3343 70.1025 75.1998 66.2038 71.3641C62.306 67.5285 56.174 67.4441 52.5085 71.1756C48.8429 74.9071 49.0313 81.0416 52.9291 84.8773C56.8269 88.7129 62.9589 88.7973 66.6244 85.0658Z" fill="#FCBE42"/>
<path d="M122.244 56.8617H88.8213V63.1784H122.244V56.8617Z" fill="#DBE9F8"/>
<path d="M122.244 67.7729H88.8213V70.9318H122.244V67.7729Z" fill="#DBE9F8"/>
<path d="M122.244 74.2334H88.8213V77.3922H122.244V74.2334Z" fill="#DBE9F8"/>
<path d="M122.244 80.6945H88.8213V83.8524H122.244V80.6945Z" fill="#DBE9F8"/>
<path d="M122.244 87.1549H88.8213V90.3128H122.244V87.1549Z" fill="#DBE9F8"/>
<path d="M122.244 93.6154H88.8213V96.7733H122.244V93.6154Z" fill="#DBE9F8"/>
<path d="M122.244 100.075H88.8213V103.233H122.244V100.075Z" fill="#DBE9F8"/>
<path d="M122.103 113.427H39.3359V116.585H122.103V113.427Z" fill="#DBE9F8"/>
<path d="M122.103 121.179H39.3359V124.338H122.103V121.179Z" fill="#DBE9F8"/>
<path d="M309 229.085L315.097 234.674L320.696 228.589L314.599 223L309 229.085Z" fill="#FCBE42"/>
<path d="M286 62.085L292.097 67.6733L297.696 61.5883L291.599 56L286 62.085Z" fill="#2440AB"/>
<path d="M198.226 11.0748C198.058 10.9064 198.058 10.9064 197.89 10.9064L195.704 11.0748C195.537 11.0748 195.2 10.9064 195.2 10.5708C195.032 9.56403 194.528 8.55723 194.024 7.71877C193.855 7.55044 193.855 7.21592 194.192 7.04758L195.873 5.70518C196.04 5.53792 196.04 5.53792 196.04 5.36958C196.04 5.20232 196.04 5.20124 195.873 5.03398L193.35 2.51645C193.183 2.34919 193.183 2.34919 193.015 2.34919C192.847 2.34919 192.847 2.34919 192.678 2.51645L191.333 4.19444C191.165 4.36278 190.829 4.36278 190.661 4.36278C189.652 3.85885 188.812 3.35599 187.803 3.18873C187.634 3.18873 187.299 2.85206 187.299 2.6848L187.467 0.502862C187.467 0.335603 187.467 0.335598 187.299 0.167259C187.131 -1.31854e-06 187.131 0 186.962 0H183.432C183.263 0 183.263 -1.31854e-06 183.096 0.167259C182.928 0.335598 182.928 0.335603 182.928 0.502862L183.096 2.6848C183.096 2.85206 182.927 3.18873 182.591 3.18873C181.582 3.35599 180.575 3.85885 179.733 4.36278C179.566 4.53004 179.229 4.53004 179.061 4.19444L177.716 2.51645C177.547 2.34919 177.547 2.34919 177.38 2.34919C177.211 2.34919 177.211 2.34919 177.044 2.51645L174.521 5.03398C174.354 5.20124 174.354 5.20232 174.354 5.36958C174.354 5.53792 174.354 5.53792 174.521 5.70518L176.202 7.04758C176.371 7.21592 176.371 7.55044 176.371 7.71877C175.867 8.72557 175.362 9.56403 175.194 10.5708C175.194 10.7392 174.859 11.0748 174.69 11.0748L172.504 10.9064C172.336 10.9064 172.336 10.9064 172.169 11.0748C172 11.242 172 11.242 172 11.4104V14.9347C172 15.1019 172 15.1019 172.169 15.2692C172.336 15.4375 172.336 15.4375 172.504 15.4375L174.69 15.2692C174.859 15.2692 175.194 15.4376 175.194 15.7732C175.362 16.7799 175.867 17.7867 176.371 18.6252C176.54 18.7935 176.539 19.1291 176.202 19.2964L174.521 20.6388C174.354 20.8071 174.354 20.8071 174.354 20.9744C174.354 21.1427 174.354 21.1427 174.521 21.3111L177.044 23.8275C177.211 23.9959 177.211 23.9948 177.38 23.9948C177.547 23.9948 177.547 23.9959 177.716 23.8275L179.061 22.1495C179.229 21.9823 179.566 21.9812 179.733 21.9812C180.742 22.4851 181.582 22.988 182.591 23.1563C182.76 23.1563 183.096 23.4919 183.096 23.6592L182.928 25.8411C182.928 26.0095 182.928 26.0084 183.096 26.1767C183.263 26.344 183.263 26.3451 183.432 26.3451H186.962C187.131 26.3451 187.131 26.344 187.299 26.1767C187.467 26.0084 187.467 26.0095 187.467 25.8411L187.299 23.6592C187.299 23.4919 187.467 23.1563 187.803 23.1563C188.812 22.988 189.821 22.4851 190.661 21.9812C190.829 21.8139 191.165 21.8139 191.333 22.1495L192.678 23.8275C192.847 23.9959 192.847 23.9948 193.015 23.9948C193.183 23.9948 193.183 23.9959 193.35 23.8275L195.873 21.3111C196.04 21.1427 196.04 21.1427 196.04 20.9744C196.04 20.8071 196.04 20.8071 195.873 20.6388L194.192 19.2964C194.023 19.1291 194.024 18.7935 194.024 18.6252C194.528 17.6184 195.032 16.7799 195.2 15.7732C195.2 15.6059 195.537 15.2692 195.704 15.2692L197.89 15.4375C198.058 15.4375 198.058 15.4375 198.226 15.2692C198.394 15.1019 198.394 15.1019 198.394 14.9347V11.4104C198.394 11.242 198.394 11.0748 198.226 11.0748ZM197.554 14.2624L195.873 14.0951C195.2 13.9279 194.528 14.4307 194.192 15.2692C194.023 16.276 193.687 17.1156 193.183 17.9551C192.847 18.6263 193.014 19.2964 193.519 19.8003L194.864 20.8071L193.183 22.4851L192.174 21.1427C191.669 20.6388 190.829 20.4715 190.324 20.8071C189.484 21.3111 188.643 21.6456 187.634 21.8139C186.962 21.9812 186.458 22.6524 186.458 23.4919L186.626 25.1699H184.105L184.272 23.4919C184.441 22.8207 183.937 22.1495 183.096 21.8139C182.087 21.6456 181.246 21.3111 180.406 20.8071C179.733 20.4715 179.061 20.6388 178.556 21.1427L177.547 22.4851L175.866 20.8071L177.212 19.8003C177.716 19.2964 177.884 18.4579 177.547 17.9551C177.044 17.1156 176.707 16.276 176.539 15.2692C176.371 14.598 175.699 14.0951 174.857 14.0951L173.009 14.2624V11.746L174.69 11.9132C175.362 12.0816 176.035 11.5787 176.371 10.7392C176.54 9.73236 176.875 8.89284 177.38 8.05438C177.716 7.38318 177.547 6.71198 177.044 6.20912L175.699 5.20125L177.38 3.52325L178.388 4.86672C178.892 5.36958 179.733 5.53685 180.237 5.20125C181.078 4.69839 181.918 4.36278 182.928 4.19444C183.6 4.02718 184.105 3.35599 184.105 2.51645L183.937 0.671191H186.458L186.29 2.34919C186.122 3.02039 186.626 3.69158 187.467 4.02718C188.476 4.19552 189.316 4.53004 190.157 5.03398C190.829 5.36957 191.502 5.20125 192.006 4.69839L193.015 3.35599L194.695 5.03398L193.35 6.04079C192.847 6.54365 192.678 7.38318 193.015 7.88712C193.519 8.72558 193.855 9.56403 194.024 10.5708C194.192 11.242 194.864 11.746 195.704 11.746L197.385 11.5787L197.554 14.2624Z" fill="#EE384E"/>
<path d="M185.283 7.04761C181.92 7.04761 179.23 9.90073 179.23 13.0884C179.23 16.4444 182.088 19.1292 185.283 19.1292C188.476 19.1292 191.335 16.2771 191.335 13.0884C191.503 9.73239 188.645 7.04761 185.283 7.04761ZM185.283 18.2907C182.424 18.2907 180.07 15.9415 180.07 13.0884C180.07 10.2363 182.424 7.88714 185.283 7.88714C188.14 7.88714 190.494 10.2363 190.494 13.0884C190.663 15.9415 188.309 18.2907 185.283 18.2907Z" fill="#EE384E"/>
<path d="M139.007 260.791H130.436V260.961H139.007V260.791Z" fill="#EBEBEB"/>
<path d="M189.752 262.159H171.58V262.331H189.752V262.159Z" fill="#EBEBEB"/>
<path d="M221.126 262.159H197.297V262.331H221.126V262.159Z" fill="#EBEBEB"/>
<path d="M335.815 265.924H282.67V266.095H335.815V265.924Z" fill="#EBEBEB"/>
<path d="M268.613 126.126C268.442 126.126 267.928 126.126 267.756 126.126C260.899 114.832 248.212 106.619 233.64 106.619C219.239 106.619 206.896 114.32 199.695 125.442C197.124 123.559 194.382 122.361 190.952 122.361C183.066 122.361 176.209 129.034 176.209 137.077C176.209 137.591 176.209 137.933 176.209 138.446C164.037 139.13 154.094 149.397 154.094 161.717C154.094 174.551 164.552 184.989 177.409 184.989H268.27C284.729 184.989 298.1 171.471 298.1 155.215C298.443 139.472 285.242 126.126 268.613 126.126Z" fill="#407BFF"/>
<path d="M268.613 126.126C268.442 126.126 267.928 126.126 267.756 126.126C260.899 114.832 248.212 106.619 233.64 106.619C219.239 106.619 206.896 114.32 199.695 125.442C197.124 123.559 194.382 122.361 190.952 122.361C183.066 122.361 176.209 129.034 176.209 137.077C176.209 137.591 176.209 137.933 176.209 138.446C164.037 139.13 154.094 149.397 154.094 161.717C154.094 174.551 164.552 184.989 177.409 184.989H268.27C284.729 184.989 298.1 171.471 298.1 155.215C298.443 139.472 285.242 126.126 268.613 126.126Z" fill="#023EA1"/>
<path d="M219.924 153.332C219.924 153.332 224.381 218.012 225.239 229.306C225.924 240.6 228.496 279.442 228.496 279.442H239.81L247.525 152.82L219.924 153.332Z" fill="#DE051F"/>
<path d="M262.783 154.018C262.783 154.018 261.412 186.529 260.897 194.913C260.212 203.297 266.897 231.53 270.326 244.193C273.755 256.855 279.07 270.544 279.07 270.544L270.326 275.677C270.326 275.677 250.783 241.455 244.096 220.922C237.239 200.559 232.096 170.273 232.953 152.82L262.783 154.018Z" fill="#EE384E"/>
<path d="M214.439 107.475L205.695 118.768C205.695 118.768 205.01 119.623 203.295 119.281C201.581 118.768 185.123 113.122 185.123 113.122C185.123 113.122 182.723 112.095 182.038 110.041C181.351 108.159 181.18 107.645 180.666 107.303C180.151 106.791 179.808 106.791 179.98 105.593C180.494 104.224 180.494 103.882 180.494 103.882C180.494 103.882 181.009 103.026 179.98 103.026C178.951 103.026 178.438 103.197 178.094 104.052C177.58 104.908 177.923 107.133 177.923 107.133H174.665C174.665 107.133 172.437 107.133 172.437 109.529C172.437 111.924 172.437 115.688 172.437 115.688C172.437 115.688 171.923 117.057 173.808 117.057C175.695 117.057 177.238 117.057 177.238 117.057C177.238 117.057 178.608 116.886 180.838 118.597C183.066 120.308 199.695 129.719 199.695 129.719C199.695 129.719 205.525 133.141 209.124 129.548C212.724 125.955 221.124 116.886 221.124 116.886L221.639 114.148L214.439 107.475Z" fill="#FFBF99"/>
<path d="M242.211 76.6743C242.211 76.6743 243.24 81.8076 245.296 86.9419C247.526 92.0752 248.383 93.9571 248.383 93.9571C248.383 93.9571 242.211 100.972 236.21 100.117C230.039 99.0904 230.039 94.9833 230.039 94.9833C230.039 94.9833 235.868 90.5342 235.868 84.0327C235.868 77.53 235.868 77.8721 235.868 77.8721L242.211 76.6743Z" fill="#FFBF99"/>
<path d="M228.839 94.2993C228.839 94.2993 223.696 97.3791 221.811 98.7484C219.581 100.459 213.41 107.475 213.41 107.475L221.981 115.86L227.982 109.015L228.839 94.2993Z" fill="#0054A3"/>
<path d="M245.983 91.9036C245.983 91.9036 242.897 96.1811 238.954 97.0369C234.669 98.0642 232.783 94.8128 232.783 94.8128L231.754 93.273C231.754 93.273 230.726 92.4172 229.354 93.4435C227.983 94.4708 225.754 97.0369 223.525 101.314C221.296 105.593 220.782 111.581 220.268 125.27C219.753 138.96 220.268 154.017 220.268 154.017H262.956L263.469 132.628C263.469 132.628 259.013 104.224 254.726 98.4062C250.27 92.5877 248.898 91.3899 248.898 91.3899C248.898 91.3899 247.698 90.1921 245.983 91.9036Z" fill="#0064E1"/>
<path d="M229.355 62.8146C229.355 62.8146 226.27 67.0932 226.27 74.1084C226.27 81.1236 227.298 86.2568 230.555 86.2568C233.813 86.2568 239.985 84.0328 240.841 81.9793C241.87 79.7553 243.928 79.7553 243.928 75.8198C243.928 71.7128 238.785 62.302 234.498 62.302C230.727 62.8146 229.355 62.8146 229.355 62.8146Z" fill="#FFBF99"/>
<path d="M226.439 62.8145C226.439 62.8145 223.353 54.43 225.41 53.4037C227.296 52.3775 231.582 54.43 232.439 55.6278C233.467 56.6551 235.525 56.6551 236.725 56.6551C236.725 56.6551 247.011 56.6551 248.897 58.8791C251.125 61.1042 251.125 61.9588 251.125 63.1566C251.125 64.1839 251.125 68.2899 252.154 70.1729C252.668 71.0286 253.183 75.3062 251.125 79.5837C248.897 83.6907 246.84 84.717 245.982 84.717C244.953 84.717 244.097 84.717 243.754 83.6907C243.754 82.6634 243.24 80.9531 242.725 79.4121C242.21 78.0438 241.697 75.1346 241.697 75.1346C241.697 75.1346 240.668 70.0013 238.61 68.1194C236.725 65.8954 236.382 65.8954 232.439 65.0396C228.496 63.8419 227.467 65.7238 226.439 62.8145Z" fill="#1A1155"/>
<path d="M240.498 70.5149C238.955 72.2264 241.012 75.4766 241.012 75.4766C241.012 75.4766 244.098 76.5039 244.098 73.2526C243.755 70.0013 242.04 68.2909 240.498 70.5149Z" fill="#EEBD98"/>
<path d="M261.07 113.977C261.07 113.977 264.67 128.692 264.327 138.104C263.642 147.515 260.899 155.386 259.012 161.204C256.784 166.508 255.756 168.219 255.584 171.641C255.584 175.235 253.869 179.342 251.984 181.224C249.756 183.448 248.384 184.475 248.384 184.475C248.384 184.475 245.813 185.501 246.155 183.448C246.155 183.448 244.441 183.448 245.126 182.421C245.126 182.421 242.898 182.421 244.441 180.71C246.155 179 248.898 177.288 248.898 177.288C248.898 177.288 250.612 174.551 248.213 175.919C245.813 177.288 243.755 177.288 245.813 175.064C248.041 172.839 250.269 169.075 252.669 162.231C254.556 155.215 256.956 141.526 254.212 130.746C251.641 120.308 248.213 116.886 248.213 116.886L261.07 113.977Z" fill="#FFBF99"/>
<path d="M270.327 274.479C270.327 274.479 268.098 280.298 266.041 283.035C263.812 285.773 261.927 287.483 261.927 287.483C261.927 287.483 259.354 291.762 262.441 290.564C265.527 289.195 281.984 278.415 281.984 278.415C281.984 278.415 284.384 277.046 283.356 275.163C282.328 273.281 279.756 269.175 279.756 269.175L270.327 274.479Z" fill="#1A1155"/>
<path d="M239.64 287.141C239.64 287.141 240.325 288.853 236.554 288.853C233.125 288.853 214.096 288.853 214.096 288.853C214.096 288.853 210.495 287.997 213.924 286.457C217.353 284.746 227.639 280.298 227.639 280.298C227.639 280.298 228.496 280.126 228.496 278.073H239.811L239.64 287.141Z" fill="#1A1155"/>
<path d="M244.784 103.881C244.784 103.881 243.927 96.8652 249.07 96.1811C254.213 95.4969 257.47 102.17 259.185 106.448C260.9 110.897 261.756 114.148 261.756 114.148C261.756 114.148 250.784 118.597 248.042 118.597C248.042 118.597 245.47 111.41 244.784 103.881Z" fill="#0054A3"/>
<path opacity="0.2" d="M174.495 102L189.068 184.817C189.582 187.555 187.696 190.122 184.953 190.635L133.008 199.361C130.265 199.875 127.694 197.993 127.179 195.255L112.607 112.437L174.495 102Z" fill="black"/>
<path d="M197.123 174.208L177.751 98.4062L158.722 92.2456L114.491 103.368C112.606 103.882 111.234 105.935 111.919 107.817L133.006 190.464C133.521 192.346 135.578 193.715 137.464 193.03L194.723 178.486C196.266 178.144 197.466 176.262 197.123 174.208Z" fill="white"/>
<path d="M136.437 194.228C134.208 194.228 132.837 192.859 131.98 190.806L110.893 108.159C110.378 106.791 110.893 105.763 111.407 104.737C112.093 103.71 113.121 103.026 114.15 102.512L158.381 91.3899C158.552 91.3899 158.895 91.3899 158.895 91.3899L177.925 97.5505C178.096 97.5505 178.438 98.063 178.61 98.2346L198.154 174.037C198.668 175.406 198.154 176.432 197.64 177.46C196.954 178.486 195.925 179.17 194.897 179.684L137.637 194.228C137.294 194.228 136.78 194.228 136.437 194.228ZM158.724 92.9298L114.836 104.052C113.978 104.224 113.465 104.737 113.121 105.421C112.608 106.106 112.608 106.791 112.608 107.645L133.694 190.292C133.865 191.148 134.38 191.662 135.065 192.004C135.752 192.517 136.437 192.517 137.294 192.517L194.554 177.972C195.411 177.802 195.925 177.288 196.268 176.604C196.782 175.919 196.782 175.235 196.782 174.379L177.753 98.9188L158.724 92.9298Z" fill="#3864B2"/>
<path d="M177.924 98.5767L158.895 92.2456L168.323 102.342C169.695 103.882 171.923 103.882 173.467 102.512L177.924 98.5767Z" fill="#3864B2"/>
<path d="M170.895 104.052C169.524 104.052 168.495 103.54 167.467 102.512L158.037 92.4173C157.866 92.2457 157.523 91.7321 158.037 91.39C158.209 90.8774 158.723 90.8774 159.066 90.8774L178.095 97.0369C178.267 97.0369 178.61 97.5506 178.781 97.7211C178.781 98.2347 178.781 98.4063 178.61 98.5768L174.152 102.684C172.952 103.882 171.924 104.052 170.895 104.052ZM161.809 93.7856L168.837 101.486C169.867 102.512 171.58 102.854 172.438 101.657L175.867 98.5768L161.809 93.7856Z" fill="#3864B2"/>
<path d="M99.2294 272.141H70V272.283H99.2294V272.141Z" fill="#EBEBEB"/>
<path d="M126.036 276.695H93.3838V276.837H126.036V276.695Z" fill="#EBEBEB"/>
<path d="M75.2552 233.199C75.2552 233.199 79.1032 231.582 78.7995 227.135C78.4957 222.688 76.2678 219.453 80.9261 220.767C85.6854 222.081 87.3057 222.688 90.6474 221.879C94.0904 221.172 96.9258 219.756 95.4068 224.203C93.8878 228.651 92.2677 232.39 95.8119 233.199C99.3561 233.907 103.103 231.178 103.609 238.253C104.116 245.227 98.4448 253.11 89.3309 253.414C80.2172 253.717 76.2678 249.876 76.2678 249.876C76.2678 249.876 73.8375 246.439 77.5843 245.53C81.4324 244.722 85.2804 243.104 83.3564 241.285C81.4323 239.466 75.0527 239.365 75.0527 239.365C75.0527 239.365 67.3566 237.849 75.2552 233.199Z" fill="#649EEA"/>
<path d="M116.875 234.412C116.267 229.965 116.775 226.731 124.977 225.517C133.28 224.305 138.039 229.257 138.546 234.412C139.052 239.566 131.863 241.386 131.863 241.386C131.863 241.386 126.8 242.801 129.331 247.349C131.863 251.796 133.078 256.143 127.204 256.85C121.331 257.457 114.951 255.94 111.407 253.515C107.863 251.089 104.217 245.025 108.268 241.892C108.268 241.892 109.382 241.083 113.331 240.88C117.281 240.578 116.875 234.412 116.875 234.412Z" fill="#023EA1"/>
<path d="M87.8125 233.704C87.8125 233.704 94.6985 249.27 95.6099 259.883" stroke="#023EA1" stroke-width="0.792725" stroke-miterlimit="10"/>
<path d="M125.888 236.231C125.888 236.231 113.737 254.324 110.901 260.388" stroke="#649EEA" stroke-width="0.792725" stroke-miterlimit="10"/>
<path d="M91.3571 258.669H119.205C119.205 258.669 122.243 258.871 122.04 263.116C121.838 266.958 116.977 266.149 114.445 266.149C111.914 266.149 90.8507 266.149 90.8507 266.149C90.8507 266.149 87.4078 266.756 87.4078 262.814C87.3065 258.871 88.6229 258.669 91.3571 258.669Z" fill="#0054A5"/>
<path d="M90.749 266.048L95.0021 290.811H113.635L116.876 272.213L90.749 266.048Z" fill="#0054A5"/>
<path d="M90.749 266.048L116.876 272.213L117.888 266.048H90.749Z" fill="#006AD5"/>
<path d="M102.8 259.579C102.8 259.579 104.217 232.088 112.319 214.906" stroke="#FCBE42" stroke-width="0.792725" stroke-miterlimit="10"/>
<path d="M119.002 205C119.002 205 119.711 213.389 111.508 216.725C111.508 216.725 109.686 209.447 119.002 205Z" fill="#FCBE42"/>
<path d="M106.749 231.784C106.749 231.784 109.787 224.608 119.002 225.517C119.002 225.619 118.293 232.693 106.749 231.784Z" fill="#FCBE42"/>
<path d="M103.711 249.876C103.711 249.876 105.23 242.194 114.546 241.386C114.546 241.386 115.154 248.562 103.711 249.876Z" fill="#FCBE42"/>
<path d="M103.407 249.977C103.407 249.977 104.521 242.194 96.0151 238.253C96.0151 238.253 92.9772 244.822 103.407 249.977Z" fill="#FCBE42"/>
<path d="M106.85 231.784C106.85 231.784 108.875 224.203 100.977 219.251C100.977 219.251 97.1288 225.315 106.85 231.784Z" fill="#FCBE42"/>
<path d="M163.573 124.632L137.045 133.33C136.236 133.595 136.107 134.684 136.831 135.131L151.595 144.25C151.851 144.408 152.022 144.674 152.061 144.972L153.77 158.22C153.871 158.997 154.785 159.362 155.393 158.868L161.494 153.911C161.802 153.661 161.933 153.254 161.829 152.872L159.082 142.801C159.029 142.605 159.036 142.397 159.103 142.206L164.828 125.914C165.103 125.131 164.361 124.374 163.573 124.632Z" stroke="#023EA1" stroke-width="2"/>
</svg>
