<svg width="363" height="283" viewBox="0 0 363 283" fill="none" xmlns="http://www.w3.org/2000/svg">
<path d="M239.362 229.472L139.826 229.641C134.586 229.641 130.362 225.423 130.362 220.024L130.192 9.78713C130.192 4.55558 134.418 0.168999 139.656 0.168999L239.194 0C244.433 0 248.657 4.21903 248.657 9.61813L248.826 219.855C248.826 225.085 244.602 229.472 239.362 229.472Z" fill="#0064B7"/>
<path d="M230.406 216.48L148.445 216.649C143.205 216.649 138.981 212.431 138.981 207.032L138.812 21.4291C138.812 16.199 143.037 11.811 148.275 11.811L230.069 11.6434C235.307 11.6434 239.531 15.861 239.531 21.2601L239.701 206.863C239.87 212.093 235.646 216.312 230.406 216.48Z" fill="#E9EEF2"/>
<path d="M229.056 40.8333L150.811 41.0023C148.783 41.0023 146.924 39.3153 146.924 37.1212V23.791C146.924 21.7675 148.615 19.9114 150.811 19.9114L229.056 19.7424C231.084 19.7424 232.943 21.4295 232.943 23.6235V36.9522C232.943 39.1463 231.253 40.8333 229.056 40.8333Z" fill="white"/>
<path d="M157.4 37.9644C161.507 37.9644 164.835 34.5658 164.835 30.3728C164.835 26.1783 161.507 22.7797 157.4 22.7797C153.293 22.7797 149.964 26.1783 149.964 30.3728C149.964 34.5658 153.293 37.9644 157.4 37.9644Z" fill="#EE384E"/>
<path d="M228.546 27.3353H215.026C214.519 27.3353 214.012 26.8283 214.012 26.3228C214.012 25.8158 214.519 25.3103 215.026 25.3103H228.546C229.052 25.3103 229.56 25.8158 229.56 26.3228C229.56 26.9973 229.052 27.3353 228.546 27.3353Z" fill="#D0ECFB"/>
<path d="M228.546 31.2143H215.026C214.519 31.2143 214.012 30.7088 214.012 30.2033C214.012 29.6963 214.519 29.1908 215.026 29.1908H228.546C229.052 29.1908 229.56 29.6963 229.56 30.2033C229.56 30.7088 229.052 31.2143 228.546 31.2143Z" fill="#D0ECFB"/>
<path d="M228.546 35.2653H215.026C214.519 35.2653 214.012 34.7583 214.012 34.2528C214.012 33.7472 214.519 33.2402 215.026 33.2402H228.546C229.052 33.2402 229.56 33.7472 229.56 34.2528C229.56 34.7583 229.052 35.2653 228.546 35.2653Z" fill="#D0ECFB"/>
<path d="M229.22 120.136L150.977 120.305C148.949 120.305 147.09 118.617 147.09 116.424V53.1504C147.09 51.1253 148.78 49.2693 150.977 49.2693L229.22 49.1003C231.248 49.1003 233.107 50.7888 233.107 52.9814V116.255C232.938 118.449 231.248 120.136 229.22 120.136Z" fill="#FCFEFF"/>
<path d="M209.447 59.562H167.2C165.847 59.562 164.665 58.3805 164.665 57.0314C164.665 55.6809 165.847 54.4994 167.2 54.4994H209.447C210.8 54.4994 211.983 55.6809 211.983 57.0314C211.983 58.3805 210.8 59.562 209.447 59.562Z" fill="#90D2F3"/>
<path d="M223.647 113.892H155.373C153.345 113.892 151.486 112.205 151.486 110.013V90.9454C151.486 88.9203 153.176 87.0643 155.373 87.0643H223.647C225.675 87.0643 227.534 88.7528 227.534 90.9454V110.013C227.534 112.205 225.844 113.892 223.647 113.892Z" fill="#DBE7F4"/>
<path d="M219.756 67.8302H157.398C155.876 67.8302 154.694 66.6487 154.694 65.1307C154.694 63.6126 155.876 62.4312 157.398 62.4312H219.756C221.278 62.4312 222.46 63.6126 222.46 65.1307C222.46 66.6487 221.278 67.8302 219.756 67.8302Z" fill="#ECF2F8"/>
<path d="M196.099 83.0145H181.904C179.369 83.0145 177.341 80.9909 177.341 78.4589C177.341 75.9284 179.369 73.7344 181.904 73.7344H196.099C198.634 73.7344 200.662 75.7594 200.662 78.2899C200.662 80.9909 198.634 83.0145 196.099 83.0145Z" fill="#0064B7"/>
<path d="M232.938 216.48L147.259 216.649L147.09 132.117C147.09 130.092 148.78 128.236 150.977 128.236L229.051 128.067C231.079 128.067 232.938 129.754 232.938 131.948V216.48Z" fill="white"/>
<path d="M224.32 182.228H156.553C154.525 182.228 152.666 180.541 152.666 178.347V141.733C152.666 139.708 154.356 137.852 156.553 137.852H224.32C226.348 137.852 228.207 139.539 228.207 141.733V178.347C228.207 180.541 226.348 182.228 224.32 182.228Z" fill="#DBE7F4"/>
<path d="M226.179 195.22L154.694 195.389C153.511 195.389 152.666 194.546 152.666 193.364C152.666 192.184 153.511 191.339 154.694 191.339L226.179 191.172C227.362 191.172 228.207 192.015 228.207 193.195C228.207 194.377 227.193 195.22 226.179 195.22Z" fill="#DAE6F4"/>
<path d="M226.179 202.982L154.694 203.151C153.511 203.151 152.666 202.307 152.666 201.126C152.666 199.944 153.511 199.101 154.694 199.101L226.179 198.932C227.362 198.932 228.207 199.777 228.207 200.957C228.207 202.138 227.193 202.982 226.179 202.982Z" fill="#DAE6F4"/>
<path d="M185.79 211.25H154.525C153.511 211.25 152.666 210.407 152.666 209.394C152.666 208.381 153.511 207.538 154.525 207.538H185.79C186.803 207.538 187.647 208.381 187.647 209.394C187.647 210.407 186.803 211.25 185.79 211.25Z" fill="#DAE6F4"/>
<path d="M199.478 7.59313H178.861C178.184 7.59313 177.509 7.08757 177.509 6.24405C177.509 5.56808 178.017 4.89355 178.861 4.89355H199.478C200.155 4.89355 200.83 5.39908 200.83 6.24405C200.83 7.08757 200.155 7.59313 199.478 7.59313Z" fill="white"/>
<path d="M267.391 134.617L234.382 108.426C234.382 108.426 233.503 107.799 232.122 105.919C230.868 104.039 228.232 102.16 226.851 102.535L223.588 99.4031C223.588 99.4031 222.458 99.152 223.588 100.281C224.718 101.408 225.345 102.661 225.345 102.661C225.345 102.661 224.342 103.162 224.592 103.664C224.592 103.664 223.714 103.914 223.839 104.54C223.839 104.54 221.831 105.167 223.839 107.047C225.847 108.927 226.35 109.804 228.483 110.681C230.616 111.684 232.248 112.686 234.256 114.692C236.39 116.697 263.124 142.511 263.124 142.511L267.391 134.617Z" fill="#FFBE9B"/>
<path d="M282.829 128.1C282.829 128.1 290.359 127.974 291.489 119.453C292.619 110.932 286.971 108.049 283.708 106.295C280.444 104.54 278.436 104.791 277.055 102.41C275.674 100.029 275.047 99.403 275.047 99.403C275.047 99.403 268.897 105.793 273.165 111.433C277.557 117.197 282.829 128.1 282.829 128.1Z" fill="#180857"/>
<path d="M295.126 275.595C295.252 275.595 295.252 275.719 295.252 275.845C295.503 276.722 296.632 282.111 293.745 282.236C290.734 282.362 279.563 282.362 278.057 282.362C277.931 282.362 277.805 282.236 277.805 282.236C277.68 281.735 277.555 280.732 278.183 280.357C278.183 280.357 284.709 277.349 286.968 275.469C288.85 273.84 294.247 275.344 295.126 275.595Z" fill="#170856"/>
<path d="M266.889 274.843C267.014 274.843 267.014 274.968 267.014 275.093C267.266 276.096 268.395 282.111 265.508 282.236C262.497 282.362 248.815 282.236 247.058 282.236C246.933 282.236 246.807 282.111 246.807 281.985C246.681 281.61 246.557 280.607 247.686 280.106C247.686 280.106 255.216 277.098 258.731 274.968C261.868 272.963 266.136 274.467 266.889 274.843Z" fill="#170856"/>
<path d="M296.883 180.982L295.126 275.72L286.842 275.47L280.316 215.318L281.069 198.651L285.839 180.732L296.883 180.982Z" fill="#003EB0"/>
<path d="M288.102 180.857C288.102 180.857 280.32 221.083 277.934 225.845L267.015 274.843H258.731L263.878 180.607L288.102 180.857Z" fill="#0064E1"/>
<path d="M273.291 111.558C273.291 111.558 269.149 115.067 269.149 120.956C269.149 126.972 270.153 127.098 272.538 127.098C274.922 127.098 276.805 126.847 277.056 128.225C277.307 129.478 277.056 134.741 276.429 136.245C275.927 137.749 286.344 136.245 286.344 136.245C286.344 136.245 283.457 128.351 283.08 124.842C282.704 121.333 283.08 117.449 281.072 114.19C278.938 111.057 276.429 108.551 273.291 111.558Z" fill="#FFBE9B"/>
<path d="M275.425 138.124L267.016 133.488L262.372 142.762L271.785 150.782L275.425 138.124Z" fill="#F79F03"/>
<path d="M288.1 137.374C288.1 137.374 293.119 143.137 294.877 157.048C296.634 170.958 296.885 180.982 296.885 180.982H263.876C263.876 180.982 266.386 161.434 268.645 151.033C270.905 140.632 274.795 136.496 274.795 136.496C274.795 136.496 275.8 135.243 277.055 135.995C278.31 136.872 281.322 136.997 283.958 135.744C286.719 134.491 287.221 136.245 288.1 137.374Z" fill="#FCBE42"/>
<path d="M281.447 116.821C281.447 116.821 283.205 116.32 284.083 117.323C284.962 118.2 283.958 120.33 282.326 120.832C280.568 121.459 281.447 116.821 281.447 116.821Z" fill="#FFBE9B"/>
<path d="M276.806 154.542C276.806 154.542 273.04 180.857 271.032 188C269.024 195.144 266.137 201.91 266.137 201.91C266.137 201.91 264.882 205.168 266.137 206.421C267.392 207.674 270.53 209.053 271.158 206.798C271.785 204.542 271.785 199.78 272.538 198.777C273.291 197.775 280.445 181.108 282.83 171.083C285.214 161.183 285.591 156.672 285.591 156.672L276.806 154.542Z" fill="#FFBE9B"/>
<path d="M275.424 155.92C275.424 155.92 277.683 141.383 283.708 141.383C283.708 141.383 287.096 141.383 287.222 146.646C287.348 151.909 286.846 158.175 286.846 158.175L275.424 155.92Z" fill="#F79F03"/>
<path d="M92.4593 169.45H53C47.4772 169.45 43 173.927 43 179.45V220.062C43 225.584 47.4771 230.062 53 230.062H92.4593C97.9822 230.062 102.459 225.584 102.459 220.062V179.45C102.459 173.927 97.9822 169.45 92.4593 169.45Z" fill="#023EA1"/>
<path d="M66.8763 98.5714C66.8763 98.5714 58.4529 95.479 57.4619 103.519C57.4619 103.519 55.3561 109.334 53.1264 110.323C51.0205 111.313 45.57 113.415 46.9327 120.838C48.2953 128.383 50.2772 127.888 49.5341 132.218C48.6669 136.547 50.7727 137.042 53.7458 137.166C56.7188 137.288 57.5858 134.444 57.5858 134.444L56.7187 124.795L58.7006 109.21L65.1421 106.612C65.1421 106.612 68.4867 102.406 68.7344 100.798C68.9822 99.1902 66.8763 98.5714 66.8763 98.5714Z" fill="#170856"/>
<path d="M65.7583 96.469C65.7583 96.469 64.3958 97.8295 64.7673 98.077C65.139 98.3246 68.7313 100.303 68.7313 100.303C68.7313 100.303 69.8462 98.2008 69.7223 97.5819C69.5985 96.9631 65.7583 96.469 65.7583 96.469Z" fill="#F05051"/>
<path d="M88.1821 85.9548C88.4299 85.9548 88.5538 86.0786 88.5538 86.3262C88.5538 88.1818 88.0583 97.0874 84.5899 100.427C84.5899 100.427 82.7317 102.902 79.2633 101.788C79.2633 101.788 76.0425 99.8094 76.538 103.767C77.0335 107.726 75.4232 111.56 74.1845 112.055C72.9458 112.674 67.7431 111.19 66.5043 108.963C65.7611 107.478 65.2656 106.736 65.1417 106.365C65.0179 106.242 65.0179 106.118 65.1417 105.87C65.8849 105.004 68.6101 101.665 69.8489 97.0874C71.3354 91.7692 70.4683 86.5737 75.4232 85.5835C79.511 84.9657 86.5718 85.8311 88.1821 85.9548Z" fill="#FFBE97"/>
<path d="M92.7657 85.5832C92.7657 85.4595 92.7657 85.4605 92.7657 85.3367C92.7657 84.8416 92.7657 84.2227 92.7657 83.7287C92.6417 82.1206 92.022 80.3888 90.7836 79.2748C89.7926 78.4094 88.5539 78.1619 87.439 78.1619C87.1912 78.1619 86.9435 78.0381 86.6957 77.9143C85.8287 76.9252 83.1034 74.2031 79.3872 74.2031C74.9278 74.2031 67.1237 76.6776 65.0179 84.4703C64.894 84.9654 61.921 97.2109 67.8669 97.5822C73.9368 97.9536 76.2903 94.985 76.1665 92.263C76.1665 92.263 73.1936 86.9448 78.2723 88.3053C78.2723 88.3053 83.475 89.2944 87.0674 87.1913C87.5629 86.9448 88.0584 87.0685 88.3061 87.5626C89.0494 88.7993 90.4119 90.7787 91.7741 89.1707C92.2699 88.5528 92.7657 87.9339 92.8896 87.0686C93.0136 86.4497 92.8896 86.0783 92.7657 85.5832Z" fill="#170856"/>
<path d="M65.0178 106.241C65.0178 106.241 67.9908 111.065 72.2025 110.941C76.4142 110.941 76.6619 106.488 76.6619 106.488C76.6619 106.488 85.2091 114.281 85.0853 119.353C84.9614 124.424 83.3511 123.682 82.8556 125.29C82.3601 127.022 85.7046 145.082 85.7046 145.082L86.2001 146.195L62.0449 149.534C62.0449 149.534 61.0539 145.699 60.4345 144.463C59.8151 143.226 56.3467 111.436 56.3467 111.436L57.957 109.704C57.8332 109.828 60.6822 106.488 65.0178 106.241Z" fill="#003EB0"/>
<path d="M54.242 125.538C54.242 125.538 51.8884 109.829 57.9582 108.963C63.9041 108.221 64.028 113.169 64.1518 120.467C64.3996 127.764 64.2756 129.372 64.2756 129.372L54.8614 131.104L54.242 125.538Z" fill="#0064E1"/>
<path d="M64.0291 129.495C64.1531 129.495 64.2769 129.619 64.2769 129.743L64.7724 135.804C64.7724 136.67 64.8963 137.535 65.7634 137.164C66.2589 136.918 66.8783 136.67 67.6215 136.299C70.3467 134.814 78.3984 130.732 80.9998 129.619C81.4953 129.371 81.7431 129.001 81.9908 128.506C82.2386 127.763 82.9818 126.65 84.4683 126.155C86.8218 125.538 90.9097 125.538 90.9097 125.908C91.0336 126.155 91.5294 128.135 91.2815 128.877C91.0336 129.495 89.1755 129.001 89.1755 129.001C89.1755 129.001 85.4593 128.382 86.5741 129.619C87.1935 130.362 88.0606 130.485 88.68 130.485C88.9277 130.485 89.0516 130.732 88.8038 130.979C88.3083 131.351 87.4413 131.846 85.9548 132.093C83.2296 132.464 63.9053 145.205 63.9053 145.205C63.9053 145.205 60.1891 148.174 57.9594 140.38C56.349 134.443 55.4819 132.34 55.2342 131.598C55.1102 131.475 55.2342 131.227 55.4819 131.227L64.0291 129.495Z" fill="#FEBD96"/>
<path d="M96.1104 137.907L85.0856 142.484L83.9707 135.558L88.4301 135.31L96.1104 137.907Z" fill="#FEBD96"/>
<path d="M103.664 115.766L121.13 114.776L103.046 137.66L86.3223 138.278L103.664 115.766Z" fill="#0064B7"/>
<path d="M103.793 136.051C103.793 136.051 103.175 131.846 104.537 131.227C105.9 130.609 106.89 132.094 106.766 132.835C106.642 133.702 103.917 136.546 103.917 136.546L103.793 136.051Z" fill="#FEBD96"/>
<path d="M86.0765 146.319L120.142 159.307C120.142 159.307 124.353 160.172 125.469 171.676C126.459 183.18 127.326 221.403 127.326 221.403V222.64L118.903 222.764L114.691 182.067L94.6241 157.575L78.2725 147.308L86.0765 146.319Z" fill="#DE051F"/>
<path d="M61.6723 148.916L78.1475 147.431L112.955 164.872C112.955 164.872 122.371 170.439 116.3 180.583C110.231 190.725 93.5073 221.525 93.5073 221.525L87.6858 217.196L102.551 175.758C102.551 175.758 102.923 173.655 97.9676 173.284C93.3844 172.913 71.4583 170.81 68.6092 170.563C68.3615 170.563 68.1138 170.439 67.866 170.439C66.1318 169.82 59.4426 166.48 61.5484 154.73L61.7962 149.782L61.6723 148.916Z" fill="#EE384E"/>
<path d="M127.327 222.764L134.76 226.845C135.132 227.093 135.503 227.216 135.999 227.34C136.743 227.464 138.229 227.834 138.229 228.948C138.229 228.948 138.477 230.309 134.884 229.937C131.292 229.566 120.019 229.69 120.019 229.69C120.019 229.69 118.533 229.32 118.781 226.102L119.029 222.886L127.327 222.764Z" fill="#130452"/>
<path d="M93.5095 221.525C93.5095 221.525 93.6324 223.505 95.4906 226.102C96.6062 227.586 97.7208 228.948 98.8353 230.432C99.0832 230.802 99.4551 231.05 99.703 231.545C99.8269 231.793 99.9509 232.164 99.9509 232.41C99.9509 232.658 99.9509 233.029 99.579 233.277C99.2072 233.524 98.5874 233.401 98.0926 233.277C97.9687 233.277 97.8447 233.153 97.7208 233.153C94.8719 232.164 86.2004 224.989 84.3424 223.505C84.0946 223.257 83.9707 223.01 83.9707 222.762C83.9707 222.144 84.0946 220.908 84.8379 220.041C85.9527 218.681 87.6869 217.32 87.6869 217.32L93.5095 221.525Z" fill="#130452"/>
<path d="M243.457 199.536C243.457 199.536 239.235 200.019 233.176 201.755L229.02 209.425L228.282 203.331C211.135 209.4 185.985 225.027 188.941 263.518C189.019 263.417 236.124 284.424 243.457 199.536Z" fill="#023EA1"/>
<path d="M217.102 208.314L197.81 249.56L243.459 199.536" stroke="white" stroke-miterlimit="10"/>
<path d="M239.21 225.982L197.216 251.918" stroke="white" stroke-miterlimit="10"/>
<path d="M229.026 177.271C229.026 177.271 230.011 184.514 224.695 182.323C219.38 180.132 216.054 180.493 214.622 186.062C213.291 191.708 209.977 194.163 206.618 193.618C203.26 193.073 197.252 191.159 195.843 198.91C194.435 206.662 190.536 221.584 198.828 224.19C207.119 226.797 218.721 220.208 219.835 214.318C220.95 208.428 218.245 203.969 224.259 201.237C230.285 198.596 232.033 204.733 236.924 199.787C241.816 194.84 247.307 190.267 241.993 182.064C237.263 174.783 229.463 173.112 229.026 177.271Z" stroke="#EA4E59" stroke-miterlimit="10" stroke-linecap="round" stroke-linejoin="round"/>
<path d="M231.331 185.519C231.331 185.519 200.653 216.838 190.985 222.89" stroke="#EA4E59" stroke-miterlimit="10" stroke-linecap="round" stroke-linejoin="round"/>
<path d="M205.251 198.996L205.709 210.411L215.01 213.062" stroke="#EA4E59" stroke-miterlimit="10" stroke-linecap="round" stroke-linejoin="round"/>
<path d="M221.075 185.913L222.655 194.169L230.099 197.255" stroke="#EA4E59" stroke-miterlimit="10" stroke-linecap="round" stroke-linejoin="round"/>
<path d="M167.626 184.617C167.626 184.617 170.311 183.85 169.851 179.554C169.467 175.334 166.936 171.728 170.771 169.657C174.607 167.432 175.835 166.665 177.676 164.901C179.517 163.059 180.515 161.678 186.575 162.215C186.575 162.215 191.408 158.303 195.781 161.755C200.077 165.207 198.62 174.414 199.617 175.871C200.538 177.329 206.292 183.006 206.982 187.839C207.596 192.672 204.297 195.741 199.617 195.434C194.861 195.127 188.493 195.434 188.493 195.434H171.078C171.078 195.434 165.171 195.818 164.711 190.064C164.327 186.458 167.626 184.617 167.626 184.617Z" fill="#180857"/>
<path d="M182.126 191.598C182.126 191.598 182.126 195.204 180.592 196.661C179.058 198.119 176.986 200.728 176.986 200.728C176.986 200.728 180.592 206.328 187.65 205.484C194.708 204.64 196.012 199.73 196.012 199.73C196.012 199.73 189.338 198.81 188.571 192.519C187.804 186.228 186.806 186.228 186.806 186.228L182.126 191.598Z" fill="#FFB07E"/>
<path d="M185.427 193.593C189.8 193.593 193.329 187.609 193.329 180.321C193.329 172.956 189.8 167.049 185.427 167.049C181.054 167.049 177.525 173.033 177.525 180.321C177.525 187.686 181.054 193.593 185.427 193.593Z" fill="#FFBE9B"/>
<path d="M185.426 166.282C185.426 166.282 183.968 170.501 181.053 174.644C178.138 178.863 174.609 181.165 174.225 181.855C173.842 182.622 171.233 180.474 172.231 177.099C173.228 173.723 178.752 164.517 184.505 164.364C190.259 164.21 191.563 160.911 194.249 167.586C197.01 174.26 196.473 181.932 196.473 181.932L185.426 166.282Z" fill="#180857"/>
<path d="M178.061 178.71C178.061 178.71 175.069 178.326 174.685 180.167C174.225 182.009 175.683 183.62 178.061 184.003C180.592 184.387 178.061 178.71 178.061 178.71Z" fill="#FFBE9B"/>
<path d="M207.367 266.091C207.367 266.091 212.124 266.398 215.499 266.398C218.875 266.398 224.322 267.165 224.322 267.165C224.322 267.165 225.78 267.165 225.856 268.929C226.01 270.694 226.01 271.384 226.01 271.384C226.01 271.384 226.163 273.456 224.475 273.456C222.788 273.456 212.354 274.683 209.976 274.683C207.598 274.683 205.833 275.144 205.833 273.456C205.91 271.768 205.68 266.014 207.367 266.091Z" fill="#170856"/>
<path d="M211.202 216.301C211.202 216.301 214.347 233.256 214.501 237.705C214.808 242.232 215.268 245.607 212.199 247.295C209.284 249.06 204.374 250.671 204.374 250.671L198.313 220.444V216.838L211.202 216.301Z" fill="#FFBF99"/>
<path d="M159.262 215.381C159.262 215.381 157.574 223.052 157.113 226.888C156.653 230.724 155.579 238.319 155.426 240.084C155.272 241.848 155.042 244.84 158.264 247.065C161.486 249.367 164.862 250.671 164.862 250.671L171.383 215.457L159.262 215.381Z" fill="#FFBF99"/>
<path d="M178.366 197.582C178.366 197.582 173.532 196.969 170.924 197.736C168.392 198.503 167.548 198.043 168.162 200.037C168.929 202.032 172.382 211.238 170.694 216.992C169.006 222.746 166.781 252.282 166.781 252.282C166.781 252.282 184.656 253.049 191.638 253.356C198.619 253.74 203.759 252.359 203.759 252.359C203.759 252.359 205.293 239.624 203.759 234.1C202.225 228.5 200.153 219.14 200.153 219.14C200.153 219.14 198.849 206.251 200.614 203.029C202.378 199.807 203.759 199.73 201.458 198.887C199.156 198.043 196.701 197.352 194.937 197.352C193.172 197.352 192.175 197.352 191.177 198.426C190.103 199.5 187.955 201.648 185.04 201.188C182.125 200.728 179.823 198.733 179.823 198.733C179.823 198.733 179.056 197.736 178.366 197.582Z" fill="#DE051F"/>
<path d="M169.696 198.58C169.696 198.58 168.009 197.736 165.554 199.884C162.869 202.185 160.951 207.095 159.953 210.164C158.956 213.309 158.419 216.301 158.419 216.301C158.419 216.301 161.795 218.066 165.4 218.219C169.006 218.373 171.308 218.603 171.308 218.603C171.308 218.603 172.842 209.473 172.535 205.331C172.151 201.111 171.538 199.654 169.696 198.58Z" fill="#EE384E"/>
<path d="M199.465 201.955C199.465 201.955 200.923 198.042 204.068 199.884C207.29 201.648 209.668 208.399 210.282 210.547C211.049 212.619 211.97 216.992 211.97 216.992C211.97 216.992 208.211 218.603 204.989 218.91C201.767 219.216 199.542 219.37 199.542 219.37C199.542 219.37 198.238 211.008 198.468 207.709C198.698 204.256 199.465 201.955 199.465 201.955Z" fill="#EE384E"/>
<path d="M173.382 254.737H197.625L185.12 258.496L173.382 254.737Z" fill="#004B89"/>
<path d="M151.899 247.832C151.899 247.832 195.935 261.565 205.602 265.094C205.602 265.094 208.824 265.937 208.901 267.549C209.054 269.16 208.594 271.615 208.287 272.765C207.903 273.993 206.829 274.837 205.065 274.53C203.3 274.146 163.867 266.321 148.14 262.178L143.614 260.721C143.614 260.721 140.315 259.186 140.852 255.12C141.466 251.054 144.458 247.602 146.529 247.295C148.907 247.218 151.899 247.832 151.899 247.832Z" fill="#0064E1"/>
<path d="M147.911 267.395C147.911 267.395 153.511 266.398 156.733 266.321C160.032 266.168 164.405 265.861 165.095 266.321C165.786 266.781 166.4 273.226 166.4 273.226C166.4 273.226 167.013 274.99 162.64 274.683C158.267 274.3 148.217 273.916 148.217 273.916C148.217 273.916 145.916 273.763 145.839 271.845C145.763 269.85 146.146 268.93 146.146 268.93C146.146 268.93 146.53 267.625 147.911 267.395Z" fill="#170856"/>
<path d="M174.226 261.795C174.226 261.795 201 253.663 210.513 250.824C219.949 247.986 225.396 245.454 228.388 249.827C231.534 254.353 231.227 259.263 227.621 260.644C224.015 262.102 196.243 268.546 184.736 270.924C173.228 273.302 165.633 274.837 164.559 274.3C163.485 273.839 162.258 270.387 162.564 268.546C162.871 266.628 162.948 266.014 165.096 264.94C167.398 264.096 174.226 261.795 174.226 261.795Z" fill="#0054A3"/>
<path d="M171.078 222.899H203.299C203.299 222.899 205.064 222.592 205.064 224.97C205.064 227.349 205.064 252.742 205.064 252.742C205.064 252.742 205.217 254.66 203.759 254.66C202.302 254.66 165.938 254.66 165.938 254.66C165.938 254.66 164.403 255.12 164.403 252.589C164.403 250.057 164.403 224.357 164.403 224.357C164.403 224.357 164.25 222.899 166.168 222.899C168.086 222.899 171.078 222.899 171.078 222.899Z" fill="#0064B7"/>
<path d="M184.658 236.785L182.816 239.086L185.118 240.927L186.959 238.626L184.658 236.785Z" fill="#569ED4"/>
<path d="M92.8085 229.843C92.8085 229.843 95.3652 228.744 95.1636 225.723C94.9615 222.701 93.4812 220.504 96.5765 221.397C99.7386 222.29 100.815 222.701 103.036 222.152C105.323 221.671 107.207 220.71 106.198 223.732C105.189 226.753 104.112 229.294 106.467 229.843C108.822 230.324 111.312 228.47 111.648 233.277C111.984 238.015 108.216 243.372 102.161 243.578C96.1054 243.783 93.4812 241.174 93.4812 241.174C93.4812 241.174 91.8668 238.84 94.3561 238.221C96.9129 237.672 99.4696 236.573 98.191 235.337C96.9129 234.101 92.6737 234.032 92.6737 234.032C92.6737 234.032 87.5602 233.002 92.8085 229.843Z" fill="#649EEA"/>
<path d="M120.465 230.667C120.061 227.646 120.397 225.449 125.847 224.624C131.365 223.8 134.527 227.166 134.864 230.667C135.2 234.17 130.423 235.406 130.423 235.406C130.423 235.406 127.059 236.367 128.74 239.458C130.423 242.479 131.23 245.432 127.328 245.913C123.425 246.325 119.186 245.294 116.832 243.647C114.476 241.998 112.054 237.878 114.745 235.749C114.745 235.749 115.486 235.2 118.11 235.063C120.734 234.857 120.465 230.667 120.465 230.667Z" fill="#023EA1"/>
<path d="M101.152 230.187C101.152 230.187 105.728 240.763 106.333 247.973" stroke="#023EA1" stroke-miterlimit="10"/>
<path d="M126.451 231.904C126.451 231.904 118.377 244.196 116.493 248.316" stroke="#649EEA" stroke-miterlimit="10"/>
<path d="M103.509 247.149H122.012C122.012 247.149 124.031 247.286 123.896 250.17C123.761 252.78 120.532 252.231 118.85 252.231C117.167 252.231 103.172 252.231 103.172 252.231C103.172 252.231 100.884 252.643 100.884 249.964C100.817 247.286 101.692 247.149 103.509 247.149Z" fill="#0054A5"/>
<path d="M103.104 252.162L105.929 268.986H118.31L120.463 256.351L103.104 252.162Z" fill="#0054A5"/>
<path d="M103.104 252.162L120.463 256.351L121.136 252.162H103.104Z" fill="#006AD5"/>
<path d="M111.111 247.767C111.111 247.767 112.053 229.088 117.436 217.414" stroke="#FCBE42" stroke-miterlimit="10"/>
<path d="M121.877 210.684C121.877 210.684 122.348 216.384 116.899 218.65C116.899 218.65 115.687 213.706 121.877 210.684Z" fill="#FCBE42"/>
<path d="M113.734 228.882C113.734 228.882 115.753 224.006 121.876 224.624C121.876 224.693 121.405 229.5 113.734 228.882Z" fill="#FCBE42"/>
<path d="M111.716 241.174C111.716 241.174 112.725 235.955 118.915 235.406C118.915 235.406 119.319 240.282 111.716 241.174Z" fill="#FCBE42"/>
<path d="M111.513 241.243C111.513 241.243 112.254 235.955 106.602 233.277C106.602 233.277 104.583 237.741 111.513 241.243Z" fill="#FCBE42"/>
<path d="M113.802 228.882C113.802 228.882 115.147 223.732 109.9 220.367C109.9 220.367 107.343 224.487 113.802 228.882Z" fill="#FCBE42"/>
<path d="M101.575 44.5449L92.9162 47.0145L90.4424 38.2461L99.2245 35.7765L101.575 44.5449Z" fill="#EE384E"/>
<path d="M318.885 27.319L310.103 29.7887L307.752 21.0203L316.411 18.5507L318.885 27.319Z" fill="#003EB0"/>
</svg>
