<svg width="363" height="279" viewBox="0 0 363 279" fill="none" xmlns="http://www.w3.org/2000/svg">
<path d="M316.998 27.0834C311.18 27.0834 306.465 22.364 306.465 16.5417C306.465 10.7194 311.18 6 316.998 6C322.814 6 327.53 10.7194 327.53 16.5417C327.53 22.364 322.814 27.0834 316.998 27.0834Z" stroke="#DE051F" stroke-miterlimit="10"/>
<path d="M324.287 8.66414C324.287 8.66414 342.806 3.79874 336.44 10.2859C330.074 16.7731 308.315 26.1564 304.032 27.199C299.75 28.2416 296.972 26.3881 298.361 24.0712C299.75 21.7544 306.463 17.9316 306.463 17.9316" stroke="#DE051F" stroke-miterlimit="10"/>
<path d="M50.8076 60.1729C54.9063 58.585 57.9473 54.6151 57.9473 49.8512" stroke="#003EB0" stroke-miterlimit="10"/>
<path d="M36.1322 47.866C36 48.5276 36 49.3216 36 50.1156C36 55.4088 39.7021 59.7757 44.5941 60.8343" stroke="#003EB0" stroke-miterlimit="10"/>
<path d="M56.4927 44.2932C54.5094 41.1173 51.0718 39 47.1053 39C43.9321 39 41.1555 40.3233 39.04 42.4406" stroke="#003EB0" stroke-miterlimit="10"/>
<path d="M53.5842 51.5715C54.2453 48.9249 53.3197 45.8813 50.8076 44.161" stroke="#003EB0" stroke-miterlimit="10"/>
<path d="M41.9492 54.615C42.2137 54.8797 42.6103 55.1443 43.007 55.5413C45.6513 57.3939 49.3534 57.1293 51.6011 54.8796" stroke="#003EB0" stroke-miterlimit="10"/>
<path d="M47.5021 42.9702C45.1222 42.8378 42.8745 43.8965 41.4201 46.0138C40.2301 47.6017 39.9657 49.5866 40.3624 51.4393" stroke="#003EB0" stroke-miterlimit="10"/>
<path d="M47.1039 54.0862C44.7672 54.0862 42.873 52.1899 42.873 49.8516C42.873 47.5134 44.7672 45.6171 47.1039 45.6171C49.4407 45.6171 51.3349 47.5134 51.3349 49.8516C51.3349 52.1899 49.4407 54.0862 47.1039 54.0862Z" stroke="#003EB0" stroke-miterlimit="10"/>
<path d="M164.273 159.47C164.273 165.711 159.285 170.704 153.049 170.704H75.3146C69.0794 170.704 64.0908 165.711 64.0908 159.47V70.9915C64.0908 64.75 69.0794 59.7581 75.3146 59.7581H153.187C159.423 59.7581 164.411 64.75 164.411 70.9915L164.273 159.47Z" fill="#CBCDD2"/>
<path d="M163.165 158.083C163.165 164.324 158.177 169.316 151.941 169.316H74.2072C67.972 169.316 62.9834 164.324 62.9834 158.083V69.604C62.9834 63.3634 67.972 58.3706 74.2072 58.3706H152.08C158.315 58.3706 163.304 63.3634 163.304 69.604L163.165 158.083Z" fill="white"/>
<path d="M163.165 75.1518V69.604C163.165 63.3634 158.177 58.3706 151.941 58.3706H74.2072C67.972 58.3706 62.9834 63.3634 62.9834 69.604V75.1518H163.165Z" fill="#0064B7"/>
<path d="M141.688 70.4367C141.688 70.9916 141.272 71.4069 140.717 71.4069H134.621C134.066 71.4069 133.65 70.9916 133.65 70.4367V64.3348C133.65 63.7799 134.066 63.3636 134.621 63.3636H140.717C141.272 63.3636 141.688 63.7799 141.688 64.3348V70.4367Z" fill="white"/>
<path d="M153.187 70.4367C153.187 70.9916 152.772 71.4069 152.217 71.4069H146.121C145.566 71.4069 145.15 70.9916 145.15 70.4367V64.3348C145.15 63.7799 145.566 63.3636 146.121 63.3636H152.217C152.772 63.3636 153.187 63.7799 153.187 64.3348V70.4367Z" fill="white"/>
<path d="M128.523 67.3853C128.523 69.6042 126.722 71.4069 124.505 71.4069H73.0973C70.8803 71.4069 69.0791 69.6042 69.0791 67.3853C69.0791 65.1664 70.8803 63.3636 73.0973 63.3636H124.505C126.722 63.3636 128.523 65.1664 128.523 67.3853Z" fill="white"/>
<path d="M118.684 109.545C118.684 122.858 107.876 133.676 94.5742 133.676C81.2728 133.676 70.4648 122.858 70.4648 109.545C70.4648 96.2313 81.2728 85.4141 94.5742 85.4141C107.876 85.4141 118.684 96.2313 118.684 109.545Z" fill="#E9EEF2"/>
<path d="M113.282 124.661C109.956 131.179 103.027 135.617 95.1294 135.617C87.2316 135.617 79.4715 131.318 75.8691 124.661C80.8577 121.194 87.9238 119.113 94.5749 119.113C101.503 119.113 107.877 121.194 113.282 124.661Z" fill="#FCBE42"/>
<path d="M101.26 114.461C104.801 110.857 104.62 104.931 100.854 101.226C97.0883 97.5206 91.1649 97.4391 87.6241 101.044C84.0832 104.648 84.2652 110.574 88.0304 114.279C91.7956 117.984 97.719 118.066 101.26 114.461Z" fill="#FCBE42"/>
<path d="M154.988 87.2167H122.702V93.3185H154.988V87.2167Z" fill="#DBE9F8"/>
<path d="M154.988 97.7566H122.702V100.808H154.988V97.7566Z" fill="#DBE9F8"/>
<path d="M154.988 103.997H122.702V107.049H154.988V103.997Z" fill="#DBE9F8"/>
<path d="M154.988 110.239H122.702V113.289H154.988V110.239Z" fill="#DBE9F8"/>
<path d="M154.988 116.479H122.702V119.53H154.988V116.479Z" fill="#DBE9F8"/>
<path d="M154.988 122.72H122.702V125.77H154.988V122.72Z" fill="#DBE9F8"/>
<path d="M154.988 128.96H122.702V132.011H154.988V128.96Z" fill="#DBE9F8"/>
<path d="M154.85 141.858H74.8984V144.908H154.85V141.858Z" fill="#DBE9F8"/>
<path d="M154.85 149.346H74.8984V152.397H154.85V149.346Z" fill="#DBE9F8"/>
<path d="M329.163 102.888C327.5 100.392 324.729 98.7275 321.403 98.7275H256.972C251.844 98.7275 247.688 102.888 247.688 108.019V112.596V181.105C247.688 183.601 248.657 185.82 250.182 187.345C251.844 189.842 254.616 191.506 257.941 191.506H322.373C327.5 191.506 331.657 187.345 331.657 182.214V109.129C331.657 106.771 330.687 104.552 329.163 102.888Z" fill="#C3C4CA"/>
<path d="M335.398 180.272C335.398 185.404 331.242 189.564 326.115 189.564H261.683C256.556 189.564 252.399 185.404 252.399 180.272V107.049C252.399 101.918 256.556 97.7566 261.683 97.7566H326.115C331.242 97.7566 335.398 101.918 335.398 107.049V180.272Z" fill="#CBCDD2"/>
<path d="M334.428 179.024C334.428 184.156 330.271 188.316 325.144 188.316H260.712C255.585 188.316 251.428 184.156 251.428 179.024V105.939C251.428 100.808 255.585 96.6473 260.712 96.6473H325.282C330.409 96.6473 334.566 100.808 334.566 105.939L334.428 179.024Z" fill="white"/>
<path d="M334.428 110.515V105.939C334.428 100.808 330.271 96.6473 325.144 96.6473H260.712C255.585 96.6473 251.428 100.808 251.428 105.939V110.515H334.428Z" fill="#0064B5"/>
<path d="M316.693 106.632C316.693 107.049 316.416 107.326 316 107.326H311.012C310.597 107.326 310.319 107.049 310.319 106.632V101.64C310.319 101.224 310.597 100.947 311.012 100.947H316C316.416 100.947 316.693 101.224 316.693 101.64V106.632Z" fill="white"/>
<path d="M326.255 106.632C326.255 107.049 325.977 107.326 325.562 107.326H320.573C320.157 107.326 319.88 107.049 319.88 106.632V101.64C319.88 101.224 320.157 100.947 320.573 100.947H325.562C325.977 100.947 326.255 101.224 326.255 101.64V106.632Z" fill="white"/>
<path d="M305.746 104.136C305.746 105.939 304.223 107.465 302.421 107.465H259.882C258.081 107.465 256.557 105.939 256.557 104.136C256.557 102.333 258.081 100.808 259.882 100.808H302.421C304.361 100.808 305.746 102.333 305.746 104.136Z" fill="white"/>
<path d="M297.71 138.945C297.71 149.901 288.842 158.915 277.757 158.915C266.81 158.915 257.804 150.04 257.804 138.945C257.804 127.989 266.672 118.975 277.757 118.975C288.704 118.975 297.71 127.989 297.71 138.945Z" fill="#E9EEF2"/>
<path d="M294.523 148.792C291.475 154.755 285.239 158.777 278.034 158.777C270.829 158.777 263.762 154.755 260.437 148.792C265.009 145.602 271.383 143.661 277.48 143.661C283.854 143.799 289.673 145.602 294.523 148.792Z" fill="#EE384E"/>
<path d="M283.585 139.532C286.804 136.255 286.627 130.857 283.189 127.473C279.75 124.091 274.354 124.005 271.134 127.282C267.916 130.558 268.093 135.958 271.531 139.34C274.969 142.724 280.366 142.81 283.585 139.532Z" fill="#EE384E"/>
<path d="M327.639 120.501H300.896V125.493H327.639V120.501Z" fill="#DBE9F8"/>
<path d="M327.639 129.099H300.896V131.596H327.639V129.099Z" fill="#DBE9F8"/>
<path d="M327.639 136.865H320.017H300.896V134.369H327.639V136.865Z" fill="#DBE9F8"/>
<path d="M327.639 139.5H300.896V141.997H327.639V139.5Z" fill="#DBE9F8"/>
<path d="M327.639 144.632H300.896V147.128H327.639V144.632Z" fill="#DBE9F8"/>
<path d="M327.639 149.901H300.896V152.397H327.639V149.901Z" fill="#DBE9F8"/>
<path d="M327.639 155.033H300.896V157.529H327.639V155.033Z" fill="#DBE9F8"/>
<path d="M327.778 165.572H261.544V168.069H327.778V165.572Z" fill="#DBE9F8"/>
<path d="M327.778 171.952H261.544V174.448H327.778V171.952Z" fill="#DBE9F8"/>
<path d="M275.122 15.5183C273.737 13.4381 271.381 12.0511 268.748 12.0511H215.54C211.245 12.0511 207.919 15.5183 207.919 19.6787V23.5616V80.2827C207.919 82.3629 208.751 84.1656 209.997 85.553C211.384 87.6332 213.739 89.0197 216.371 89.0197H269.58C273.876 89.0197 277.201 85.553 277.201 81.3926V20.6498C277.201 18.7075 276.37 16.7661 275.122 15.5183Z" fill="#D7D9DD"/>
<path d="M280.111 78.2025C280.111 82.5016 276.647 85.8296 272.49 85.8296H219.282C214.986 85.8296 211.66 82.3629 211.66 78.2025V17.5985C211.66 13.2993 215.125 9.97095 219.282 9.97095H272.49C276.785 9.97095 280.111 13.4381 280.111 17.5985V78.2025Z" fill="#CBCDD2"/>
<path d="M279.419 77.232C279.419 81.5311 275.955 84.8591 271.798 84.8591H218.589C214.294 84.8591 210.969 81.3924 210.969 77.232V16.6271C210.969 12.3284 214.433 9 218.589 9H271.798C276.094 9 279.419 12.467 279.419 16.6271V77.232Z" fill="white"/>
<path d="M279.419 20.5109V16.6271C279.419 12.3284 275.955 9 271.798 9H218.589C214.294 9 210.969 12.467 210.969 16.6271V20.5109H279.419Z" fill="#0064B5"/>
<path d="M264.732 17.3209C264.732 17.5984 264.454 18.0146 264.039 18.0146H259.882C259.604 18.0146 259.189 17.7371 259.189 17.3209V13.1605C259.189 12.883 259.466 12.4672 259.882 12.4672H264.039C264.316 12.4672 264.732 12.7443 264.732 13.1605V17.3209Z" fill="white"/>
<path d="M272.628 17.3209C272.628 17.5984 272.352 18.0146 271.936 18.0146H267.779C267.502 18.0146 267.086 17.7371 267.086 17.3209V13.1605C267.086 12.883 267.363 12.4672 267.779 12.4672H271.936C272.213 12.4672 272.628 12.7443 272.628 13.1605V17.3209Z" fill="white"/>
<path d="M255.724 15.2407C255.724 16.7659 254.477 18.0146 252.953 18.0146H217.897C216.372 18.0146 215.125 16.7659 215.125 15.2407C215.125 13.7155 216.372 12.4672 217.897 12.4672H252.953C254.477 12.4672 255.724 13.7155 255.724 15.2407Z" fill="white"/>
<path d="M248.935 43.9481C248.935 53.1013 241.591 60.451 232.446 60.451C223.3 60.451 215.957 53.1013 215.957 43.9481C215.957 34.7949 223.3 27.4453 232.446 27.4453C241.591 27.5832 248.935 34.9337 248.935 43.9481Z" fill="#E9EEF2"/>
<path d="M246.58 52.9628C244.086 57.816 238.959 61.2836 233.001 61.2836C227.042 61.2836 221.223 57.9547 218.59 53.1015C222.332 50.4664 227.597 48.9403 232.585 48.9403C237.712 48.8024 242.423 50.3276 246.58 52.9628Z" fill="#0064E1"/>
<path d="M237.584 45.3859C240.267 42.6553 240.142 38.1776 237.304 35.3855C234.466 32.5925 229.991 32.5431 227.308 35.2736C224.626 38.005 224.752 42.4819 227.589 45.2749C230.426 48.067 234.902 48.1164 237.584 45.3859Z" fill="#0064E1"/>
<path d="M273.738 28.693H251.706V32.8534H273.738V28.693Z" fill="#DBE9F8"/>
<path d="M273.738 35.9047H251.706V37.9849H273.738V35.9047Z" fill="#DBE9F8"/>
<path d="M273.738 40.204H251.706V42.2842H273.738V40.204Z" fill="#DBE9F8"/>
<path d="M273.738 44.5033H251.706V46.5835H273.738V44.5033Z" fill="#DBE9F8"/>
<path d="M273.738 48.802H251.706V50.8822H273.738V48.802Z" fill="#DBE9F8"/>
<path d="M273.738 53.1013H251.706V55.1815H273.738V53.1013Z" fill="#DBE9F8"/>
<path d="M273.738 57.2618H251.706V59.342H273.738V57.2618Z" fill="#DBE9F8"/>
<path d="M273.737 66.1376H219.004V68.2178H273.737V66.1376Z" fill="#DBE9F8"/>
<path d="M273.737 71.2681H219.004V73.3483H273.737V71.2681Z" fill="#DBE9F8"/>
<path d="M186.72 140.888C186.72 140.888 187.135 147.96 183.671 151.705C180.207 155.588 174.526 162.66 174.526 162.66C174.526 162.66 183.117 175.835 200.022 174.032C216.788 172.229 219.975 160.025 219.975 160.025C219.975 160.025 204.179 158.223 201.823 142.69C200.022 127.713 197.25 127.713 197.25 127.713L186.72 140.888Z" fill="#FFBE9B"/>
<path d="M174.526 106.771C174.526 106.771 175.496 126.742 184.087 141.858C193.648 156.835 204.04 148.653 208.613 140.887C213.185 133.121 224.409 106.771 221.776 101.363C219.005 94.5675 185.888 91.7936 185.888 91.7936L174.526 106.771Z" fill="#FFBE9B"/>
<path d="M218.036 118.143C218.036 118.143 222.608 114.399 222.608 118.143C222.608 121.888 219.837 127.713 216.65 127.713C213.879 128.683 213.879 126.742 214.848 123.968C216.372 121.888 218.036 118.143 218.036 118.143Z" fill="#FFBE9B"/>
<path d="M176.327 125.355C177.297 126.325 179.099 126.325 179.099 124.384C179.099 120.64 176.327 114.815 173.14 114.815C170.369 113.844 170.369 115.786 171.339 118.559C171.339 119.53 171.339 120.362 172.309 121.333C173.556 122.72 175.496 125.355 176.327 125.355Z" fill="#FFBE9B"/>
<path d="M175.497 115.924L174.528 109.961C174.528 109.961 180.486 110.931 185.889 103.998C185.889 103.998 198.222 106.771 207.644 105.801C218.175 104.83 221.639 102.056 221.639 102.056C221.639 102.056 219.838 113.428 217.898 117.034C217.898 117.034 222.47 115.231 224.687 109.267C226.489 103.304 226.489 97.8953 226.489 97.8953C226.489 97.8953 233.279 91.9322 235.08 86.5241C235.08 86.5241 216.928 81.9475 211.524 78.7574C205.565 75.0132 202.933 72.7943 202.933 72.7943C202.933 72.7943 194.342 68.2176 186.167 74.597C177.991 80.9763 172.172 85.1367 172.172 96.3701C172.726 96.3701 163.996 107.604 175.497 115.924Z" fill="#1A1455"/>
<path d="M132.818 245.037C134.619 248.782 137.807 251.694 141.132 253.774C141.825 254.19 142.656 254.745 143.349 255.023C144.734 255.993 146.259 256.825 147.783 257.796C148.615 258.212 149.584 258.905 150.416 259.322C151.108 259.738 152.217 259.599 152.494 258.767C152.771 257.796 151.94 257.103 151.247 256.548C150.693 256.132 150 255.439 149.445 255.023C148.199 253.913 147.09 252.942 145.705 251.832C145.427 251.555 145.289 251.416 144.873 251.14C145.289 251.416 145.427 251.555 145.843 251.832C146.674 252.387 147.367 253.081 148.199 253.496C149.168 254.19 150.277 254.884 151.108 255.578C152.078 256.27 153.049 256.964 154.018 257.658C154.711 258.073 155.265 258.767 156.097 259.044C156.651 259.46 157.759 259.599 158.175 259.044C158.452 258.628 158.452 258.212 158.452 257.796C158.452 257.38 158.036 256.548 157.621 256.409C157.206 255.993 156.928 255.854 156.651 255.439C155.819 254.468 154.711 253.635 153.741 252.804C152.633 251.832 151.663 251.001 150.554 250.03C149.584 249.336 148.752 248.643 147.783 247.811C147.367 247.395 146.951 247.117 146.536 246.702L159.145 256.548C159.976 257.241 162.055 258.351 163.025 256.964C163.441 256.548 163.164 255.439 162.886 254.884C162.609 254.329 162.055 253.913 161.64 253.635C160.669 252.804 159.838 251.971 158.868 251.14C156.79 249.475 154.989 247.811 152.91 246.286C152.494 245.869 152.078 245.592 151.663 245.176C153.049 246.424 154.85 247.533 156.374 248.782C158.314 250.03 159.423 251.14 160.947 251.971C161.362 252.249 161.916 252.526 162.332 252.526C163.025 252.526 163.857 252.387 164.272 251.832C164.688 251.14 164.272 249.752 163.579 249.197C159.838 246.008 157.206 243.789 153.88 241.709C153.88 241.709 150.969 239.906 150.693 239.629C150.693 239.629 156.235 242.679 159.976 241.986C159.976 241.986 164.826 239.629 157.067 237.965C157.067 237.965 152.633 235.885 149.861 234.636C149.861 234.636 144.457 231.724 138.222 233.666C138.222 233.666 133.095 230.476 131.848 229.367L126.999 235.746C126.721 235.607 131.571 242.264 132.818 245.037Z" fill="#FFBE9B"/>
<path d="M256.971 238.658C257.386 242.818 255.862 246.979 254.061 250.307C253.645 251.001 253.23 251.832 252.814 252.526C251.983 254.051 251.151 255.439 250.32 257.103C249.904 257.934 249.35 258.905 248.796 259.738C248.381 260.431 247.41 260.986 246.717 260.153C246.025 259.322 246.302 258.351 246.717 257.658C246.994 256.964 247.133 256.132 247.41 255.439C247.965 253.913 248.518 252.387 248.934 250.723C249.073 250.307 249.211 250.03 249.35 249.614C249.211 250.03 248.934 250.307 248.934 250.723C248.518 251.555 248.103 252.526 247.687 253.359C247.272 254.468 246.578 255.578 246.163 256.687C245.748 257.796 245.193 258.767 244.777 259.877C244.361 260.569 244.085 261.402 243.669 262.096C243.253 262.65 242.422 263.343 241.729 263.205C241.314 263.066 241.175 262.65 240.898 262.233C240.62 261.818 240.759 260.986 240.898 260.569C241.036 260.153 241.175 259.738 241.314 259.322C241.729 258.073 242.006 256.825 242.56 255.578C242.976 254.329 243.531 252.942 243.946 251.694C244.361 250.585 244.777 249.614 245.193 248.366C245.47 247.95 245.609 247.256 245.748 246.841L239.651 261.679C239.235 262.65 237.988 264.591 236.602 263.76C236.186 263.482 235.632 262.511 235.632 261.818C235.632 261.263 235.909 260.569 236.048 260.015C236.464 258.767 236.741 257.658 237.295 256.409C238.265 254.051 239.096 251.555 240.066 249.198C240.343 248.782 240.482 248.088 240.62 247.672C240.066 249.475 239.097 251.416 238.265 253.081C237.295 255.161 236.741 256.687 235.909 258.212C235.632 258.628 235.493 259.183 235.078 259.46C234.524 259.877 233.692 260.015 233.138 259.877C232.445 259.46 232.168 258.073 232.445 257.242C234.108 252.526 235.356 249.336 237.157 245.869C237.157 245.869 238.819 242.957 238.958 242.541C238.958 242.541 235.632 248.088 232.03 249.198C232.03 249.198 226.626 249.475 232.584 244.205C232.584 244.205 235.493 240.322 237.295 237.826C237.295 237.826 240.482 232.694 246.994 231.308C246.994 231.308 249.904 226.038 250.459 224.374L260.99 228.95C260.851 228.95 256.694 235.607 256.971 238.658Z" fill="#FFBE9B"/>
<path d="M265.563 222.432L250.598 183.046C247.272 173.338 238.681 167.375 229.813 163.77C224.963 161.69 220.114 159.887 215.264 157.807C198.913 175.557 178.545 157.807 178.545 157.807C175.635 159.471 172.448 161.135 169.538 162.799C161.224 167.514 151.247 170.843 146.121 179.58L122.011 221.6C122.011 221.6 124.089 237.271 130.324 241.432C130.324 241.432 132.126 231.724 144.873 233.25L142.795 223.403L163.857 201.768L167.182 238.381H223.578L228.012 201.768L245.748 222.294L237.711 236.577C251.013 231.031 256.695 240.184 256.695 240.184C256.695 240.184 263.622 231.863 265.563 222.432Z" fill="#EE384E"/>
<path opacity="0.6" d="M178.406 157.807L171.894 161.412C171.894 161.412 183.395 171.952 195.311 171.952C195.449 171.952 195.588 171.952 195.727 171.952C207.781 171.813 216.233 168.346 220.668 160.026L215.125 157.807C215.125 157.807 205.98 165.85 198.082 165.711C198.221 165.85 189.768 166.127 178.406 157.807Z" fill="#606060"/>
<path d="M241.73 255.716C241.73 257.934 239.928 259.738 237.711 259.738H151.248C149.031 259.738 147.229 257.934 147.229 255.716V192.477C147.229 190.258 149.031 188.455 151.248 188.455H237.711C239.928 188.455 241.73 190.258 241.73 192.477V255.716Z" fill="#023EA1"/>
<path d="M148.337 193.447V228.673C148.337 244.76 150.138 257.796 152.355 257.796H236.602C238.819 257.796 240.62 244.76 240.62 228.673V193.447H148.337Z" fill="#0064B7"/>
<path d="M174.387 258.767H161.224V261.818H174.387V258.767Z" fill="#023EA1"/>
<path d="M225.379 258.767H212.216V261.818H225.379V258.767Z" fill="#023EA1"/>
<path d="M137.53 263.066H251.845C251.845 263.066 250.321 268.059 247.411 270H147.784C147.784 270 138.5 269.029 137.53 263.066Z" fill="#033E9D"/>
<path d="M41.2192 204.626C41.2192 204.626 45.387 202.87 45.058 198.04C44.7289 193.21 42.316 189.697 47.3611 191.124C52.516 192.551 54.2708 193.21 57.8902 192.332C61.6192 191.563 64.6902 190.026 63.045 194.856C61.3999 199.686 59.6451 203.748 63.4837 204.626C67.3225 205.394 71.3802 202.431 71.9291 210.115C72.4773 217.689 66.335 226.251 56.4644 226.58C46.5934 226.91 42.316 222.739 42.316 222.739C42.316 222.739 39.6838 219.006 43.7418 218.018C47.9096 217.14 52.0773 215.383 49.9934 213.408C47.9096 211.432 40.9999 211.322 40.9999 211.322C40.9999 211.322 32.6644 209.676 41.2192 204.626Z" fill="#649EEA"/>
<path d="M86.296 205.943C85.6382 201.113 86.1863 197.601 95.07 196.283C104.063 194.966 109.219 200.345 109.767 205.943C110.315 211.542 102.529 213.517 102.529 213.517C102.529 213.517 97.0441 215.054 99.7863 219.994C102.529 224.824 103.844 229.544 97.4834 230.312C91.1219 230.971 84.2123 229.324 80.3738 226.69C76.5345 224.055 72.5864 217.469 76.9738 214.066C76.9738 214.066 78.1797 213.188 82.4575 212.969C86.7345 212.64 86.296 205.943 86.296 205.943Z" fill="#023EA1"/>
<path d="M54.8193 205.175C54.8193 205.175 62.2774 222.079 63.2645 233.605" stroke="#023EA1" stroke-miterlimit="10"/>
<path d="M96.0578 207.919C96.0578 207.919 82.8963 227.568 79.8252 234.154" stroke="#649EEA" stroke-miterlimit="10"/>
<path d="M58.6583 232.288H88.8199C88.8199 232.288 92.1095 232.508 91.8902 237.118C91.671 241.289 86.4065 240.412 83.6643 240.412C80.9229 240.412 58.1099 240.412 58.1099 240.412C58.1099 240.412 54.3809 241.07 54.3809 236.789C54.2712 232.508 55.697 232.288 58.6583 232.288Z" fill="#0054A5"/>
<path d="M58 240.302L62.6064 267.196H82.7869L86.2966 246.998L58 240.302Z" fill="#0054A5"/>
<path d="M58 240.302L86.2966 246.998L87.3936 240.302H58Z" fill="#006AD5"/>
<path d="M71.0508 233.276C71.0508 233.276 72.5863 203.418 81.3604 184.757" stroke="#FCBE42" stroke-miterlimit="10"/>
<path d="M88.599 174C88.599 174 89.3671 183.111 80.4834 186.733C80.4834 186.733 78.5086 178.83 88.599 174Z" fill="#FCBE42"/>
<path d="M75.3291 203.089C75.3291 203.089 78.6195 195.295 88.5994 196.283C88.5994 196.393 87.832 204.077 75.3291 203.089Z" fill="#FCBE42"/>
<path d="M72.0381 222.739C72.0381 222.739 73.6833 214.396 83.7736 213.517C83.7736 213.517 84.4314 221.311 72.0381 222.739Z" fill="#FCBE42"/>
<path d="M71.7095 222.848C71.7095 222.848 72.9154 214.396 63.7026 210.114C63.7026 210.114 60.4123 217.249 71.7095 222.848Z" fill="#FCBE42"/>
<path d="M75.4389 203.089C75.4389 203.089 77.6322 194.856 69.0774 189.478C69.0774 189.478 64.9096 196.064 75.4389 203.089Z" fill="#FCBE42"/>
</svg>
