<svg width="363" height="280" viewBox="0 0 363 280" fill="none" xmlns="http://www.w3.org/2000/svg">
<path d="M263.976 4.31513C263.976 4.31513 267.308 10.0041 262.107 10.0041C256.906 10.0041 254.224 11.4669 255.036 16.6682C255.849 21.8695 253.98 25.0391 250.973 25.7705C247.966 26.502 242.277 26.9896 243.821 33.9789C245.284 40.9681 247.234 54.7028 255.118 53.9714C262.92 53.24 270.396 43.65 269.259 38.3675C268.121 33.0849 264.301 30.2404 268.446 25.9331C272.591 21.6257 276.167 26.0956 278.524 20.2441C280.88 14.3927 283.887 8.70374 276.573 3.74624C269.99 -0.642368 262.92 0.739227 263.976 4.31513Z" stroke="#DB061F" stroke-miterlimit="10"/>
<path d="M268.771 10.329C268.771 10.329 253.979 47.1445 248.047 55.5966" stroke="#DB061F" stroke-miterlimit="10"/>
<path d="M250.242 6.83458C250.242 6.83458 237.808 5.61553 239.189 12.361C240.652 19.1877 237.97 20.4067 235.207 21.6258C232.444 22.7636 226.593 22.7636 228.462 29.9154C230.331 37.0672 234.069 39.9117 232.525 43.4876C230.981 47.0635 229.437 63.5614 235.939 62.4236C242.44 61.3671 246.016 52.5899 246.504 48.5263C246.991 44.4628 251.624 41.5371 255.687 40.2367C259.751 38.9364 263.489 34.304 259.263 30.403C255.037 26.502 254.631 20.2442 257.394 17.2372C260.076 14.2302 258.613 7.80983 250.242 6.83458Z" fill="#FABC43"/>
<path d="M248.532 15.2865L236.748 68.1936" stroke="white" stroke-miterlimit="10" stroke-linecap="round" stroke-linejoin="round"/>
<path d="M235.289 27.2334L243.823 36.7421L255.444 32.6785" stroke="white" stroke-miterlimit="10" stroke-linecap="round" stroke-linejoin="round"/>
<path d="M46.5652 121.069C30.1998 126.806 12.3295 118.153 6.68623 101.788C0.948921 85.4226 9.60191 67.5522 25.9673 61.909C42.3328 56.1717 60.2031 64.8247 65.8463 81.1901C71.4896 97.5555 62.8366 115.426 46.5652 121.069Z" stroke="#DB061F" stroke-width="0.938675" stroke-miterlimit="10" stroke-dasharray="5.63 5.63"/>
<path d="M7.06246 97.0851C4.33488 98.0256 1.32514 96.6148 0.290542 93.7932C-0.65 91.0656 0.760813 88.0559 3.58244 87.0213C6.31001 86.0807 9.31976 87.4915 10.3544 90.3132C11.2949 93.0407 9.88408 96.0505 7.06246 97.0851Z" fill="#003FAE"/>
<path d="M5.93489 89.6545L3.48948 93.0405L7.3457 93.6989L5.93489 89.6545Z" fill="white"/>
<path d="M118.688 24.7628L116.297 20.5518C115.727 19.5844 114.474 19.243 113.45 19.812L112.083 20.6087C111.229 21.1208 110.147 21.007 109.407 20.3811C108.837 19.9258 108.268 19.4706 107.642 19.0722C106.845 18.5601 106.503 17.5358 106.788 16.6253L107.243 15.1458C107.585 14.0646 106.958 12.9265 105.82 12.6419L101.037 11.39C99.9548 11.1055 98.7591 11.7884 98.4174 12.8696L97.9619 14.3491C97.6772 15.2596 96.8231 15.9424 95.8551 16.0563C95.1149 16.1132 94.3747 16.227 93.6345 16.3408C92.6665 16.5115 91.6985 16.1132 91.243 15.2596L90.5028 13.9508C89.9334 12.9834 88.6807 12.6419 87.6558 13.211L83.2714 15.6579C82.2465 16.227 81.8479 17.4789 82.4173 18.4463L83.1576 19.7551C83.6131 20.6087 83.4992 21.633 82.8159 22.3727C82.3035 22.9418 81.8479 23.5109 81.3924 24.1368C80.823 24.9335 79.7981 25.3318 78.8301 25.0473L77.3497 24.649C76.2109 24.3644 75.0721 25.0473 74.7305 26.1285L73.307 30.8516C72.9653 31.9328 73.5917 33.071 74.7305 33.3555L76.2109 33.7538C77.1789 33.9814 77.8622 34.7781 77.8622 35.7455C77.9191 36.4853 77.976 37.1681 78.0899 37.9079C78.2607 38.8753 77.7483 39.8427 76.8942 40.2979L75.5276 41.0946C74.5027 41.6637 74.1611 42.9156 74.6735 43.883L77.065 48.094C77.6344 49.0613 78.8871 49.4028 79.912 48.8337L81.2785 48.094C82.1326 47.5818 83.2145 47.6956 83.9547 48.3216C84.5241 48.7768 85.0935 49.2321 85.7198 49.6304C86.517 50.1426 86.8586 51.1668 86.5739 52.0773L86.1184 53.5569C85.7768 54.6381 86.4031 55.7762 87.5419 56.0607L92.3249 57.2557C93.4637 57.5402 94.6024 56.8574 94.9441 55.7762L95.3996 54.2966C95.6843 53.3862 96.5384 52.7033 97.5064 52.5895C98.2466 52.5326 98.9868 52.4188 99.727 52.305C100.695 52.1342 101.663 52.5326 102.119 53.3862L102.859 54.695C103.428 55.6624 104.681 56.0038 105.706 55.4347L110.09 52.9878C111.115 52.4188 111.514 51.1668 110.944 50.1995L110.204 48.8906C109.748 48.0371 109.862 47.0128 110.546 46.273C111.058 45.7039 111.514 45.1349 111.969 44.5089C112.538 43.7122 113.563 43.3139 114.531 43.5984L116.012 43.9968C117.094 44.2813 118.289 43.5984 118.631 42.5172L120.055 37.7941C120.396 36.7129 119.77 35.5748 118.631 35.2903L117.151 34.8919C116.183 34.6643 115.556 33.8676 115.499 32.8433C115.442 32.1036 115.385 31.4207 115.272 30.6809C115.101 29.7135 115.556 28.7461 116.467 28.2909L117.834 27.4942C118.859 26.9821 119.2 25.7302 118.688 24.7628ZM102.916 43.4277C96.9939 47.3542 89.1362 45.3625 86.2892 39.1598C84.0117 34.3229 85.8337 28.2909 90.5028 25.218C96.4245 21.2915 104.282 23.2832 107.129 29.4859C109.35 34.3798 107.585 40.3548 102.916 43.4277Z" fill="#EE384E"/>
<path d="M181.95 185.981H146.583V217.003H181.95V185.981Z" fill="#033E9F"/>
<path d="M229.948 216.08H98.584V225.928H229.948V216.08Z" fill="#0064B5"/>
<path d="M229.948 223.097H98.584V225.928H229.948V223.097Z" fill="#033E9F"/>
<path d="M300.377 36.1617H28.1602V188.32H300.377V36.1617Z" fill="#0064B5"/>
<path d="M291.813 41.4553H36.7256V172.87H291.813V41.4553Z" fill="#B8D0FF"/>
<path d="M291.928 41.3625H35.6699V53.5653H291.928V41.3625Z" fill="#0064B5"/>
<path d="M93.1623 57.5819H42.6377V167.822H93.1623V57.5819Z" fill="#E1EDFF"/>
<path d="M90.2649 60.9674H45.5938V64.3528H90.2649V60.9674Z" fill="white"/>
<path d="M90.2649 67.2456H45.5938V70.631H90.2649V67.2456Z" fill="white"/>
<path d="M90.2649 119.873H45.5938V123.259H90.2649V119.873Z" fill="white"/>
<path d="M90.2649 126.705H45.5938V128.613H90.2649V126.705Z" fill="white"/>
<path d="M90.2649 130.522H45.5938V132.43H90.2649V130.522Z" fill="white"/>
<path d="M90.2649 134.707H45.5938V136.615H90.2649V134.707Z" fill="white"/>
<path d="M84.535 77.7712H51.2627V111.44H84.535V77.7712Z" fill="white"/>
<path d="M53.9766 142.463V157.974L67.4087 150.218L53.9766 142.463Z" fill="#B8D0FF"/>
<path d="M70.9189 142.463V157.974L84.3511 150.218L70.9189 142.463Z" fill="#B8D0FF"/>
<path d="M285.218 58.4435H98.6465V167.022H285.218V58.4435Z" fill="white"/>
<path d="M132.783 77.7707C132.783 84.9723 126.93 90.8198 119.721 90.8198C112.512 90.8198 106.658 84.9723 106.658 77.7707C106.658 70.569 112.512 64.7216 119.721 64.7216C126.93 64.7831 132.783 70.569 132.783 77.7707Z" fill="#EBF5FF"/>
<path d="M166.919 77.7707C166.919 84.9723 161.065 90.8198 153.856 90.8198C146.647 90.8198 140.794 84.9723 140.794 77.7707C140.794 70.569 146.647 64.7216 153.856 64.7216C161.065 64.7831 166.919 70.569 166.919 77.7707Z" fill="#EBF5FF"/>
<path d="M200.992 77.7707C200.992 84.9723 195.139 90.8198 187.93 90.8198C180.721 90.8198 174.867 84.9723 174.867 77.7707C174.867 70.569 180.721 64.7216 187.93 64.7216C195.139 64.7831 200.992 70.569 200.992 77.7707Z" fill="#EBF5FF"/>
<path d="M228.469 69.5231H210.292V72.0467H228.469V69.5231Z" fill="#EBF5FF"/>
<path d="M253.918 69.5231H235.741V72.0467H253.918V69.5231Z" fill="#EBF5FF"/>
<path d="M279.362 69.5231H261.186V72.0467H279.362V69.5231Z" fill="#EBF5FF"/>
<path d="M190.948 101.776H106.658V105.161H190.948V101.776Z" fill="#EBF5FF"/>
<path d="M180.227 109.347H106.658V112.302H180.227V109.347Z" fill="#EBF5FF"/>
<path d="M243.999 116.918H106.658V120.734H243.999V116.918Z" fill="#EBF5FF"/>
<path d="M140.855 124.92H106.658V129.105H140.855V124.92Z" fill="#EBF5FF"/>
<path d="M201.115 135.445H106.658V140.493H201.115V135.445Z" fill="#EBF5FF"/>
<path d="M150.097 146.402H106.658V147.694H150.097V146.402Z" fill="#EBF5FF"/>
<path d="M183.123 153.973H106.658V159.02H183.123V153.973Z" fill="#EBF5FF"/>
<path d="M275.976 94.6364H254.103V159.02H275.976V94.6364Z" fill="#EBF5FF"/>
<path d="M249.233 75.986H206.903V99.6221H249.233V75.986Z" fill="#0064B5"/>
<path d="M221.937 79.8022L214.358 86.8192L221.136 92.6052" stroke="white" stroke-width="0.938675" stroke-miterlimit="10"/>
<path d="M234.509 80.5405L241.779 87.8653L234.755 93.405" stroke="white" stroke-width="0.938675" stroke-miterlimit="10"/>
<path d="M232.352 78.5095L222.555 97.0984" stroke="white" stroke-width="0.938675" stroke-miterlimit="10"/>
<path d="M318.434 184.176C318.434 184.176 321.522 229.1 322.139 236.947C322.602 244.793 324.455 271.718 324.455 271.718H332.33L337.733 183.869L318.434 184.176Z" fill="#0064E1"/>
<path d="M348.232 184.638C348.232 184.638 347.305 207.254 346.996 212.946C346.533 218.793 351.164 238.331 353.481 247.1C355.797 255.871 359.966 265.101 359.966 265.101L353.481 268.948C353.481 268.948 339.894 245.255 335.262 230.946C330.475 216.792 326.924 195.868 327.541 183.715L348.232 184.638Z" fill="#0054A3"/>
<path d="M289.251 152.021H286.935C286.935 152.021 285.392 152.021 285.392 153.713C285.392 155.406 285.392 158.021 285.392 158.021C285.392 158.021 285.082 158.944 286.318 158.944C287.553 158.944 288.634 158.944 288.634 158.944C288.634 158.944 289.561 158.79 291.104 160.021C292.648 161.251 304.228 167.713 304.228 167.713C304.228 167.713 308.243 170.022 310.713 167.559C313.184 165.098 319.05 158.79 319.05 158.79L319.36 156.944L314.419 152.328L308.397 160.175C308.397 160.175 307.934 160.79 306.699 160.483C305.463 160.175 294.038 156.175 294.038 156.175C294.038 156.175 292.339 155.406 291.877 154.021C291.877 153.867 291.877 153.867 291.722 153.713C291.567 152.636 290.486 151.867 289.251 152.021Z" fill="#FFBF99"/>
<path d="M333.87 130.943C333.87 130.943 334.642 134.482 336.031 138.02C337.576 141.559 338.193 142.943 338.193 142.943C338.193 142.943 333.87 147.867 329.701 147.251C325.378 146.482 325.378 143.713 325.378 143.713C325.378 143.713 329.393 140.636 329.393 136.174C329.393 131.712 329.393 131.867 329.393 131.867L333.87 130.943Z" fill="#FFBF99"/>
<path d="M324.611 143.097C324.611 143.097 321.06 145.251 319.67 146.174C318.126 147.405 313.803 152.175 313.803 152.175L319.825 158.021L323.994 153.252L324.611 143.097Z" fill="#F59F1D"/>
<path d="M336.496 141.559C336.496 141.559 334.335 144.482 331.555 145.097C328.621 145.867 327.232 143.559 327.232 143.559L326.46 142.482C326.46 142.482 325.687 141.866 324.762 142.636C323.835 143.405 322.291 145.097 320.747 148.174C319.203 151.251 318.894 155.252 318.431 164.79C318.122 174.329 318.431 184.791 318.431 184.791H348.076L348.385 170.021C348.385 170.021 345.297 150.328 342.363 146.328C339.275 142.328 338.348 141.405 338.348 141.405C338.348 141.405 337.731 140.328 336.496 141.559Z" fill="#FCBE42"/>
<path d="M324.917 121.251C324.917 121.251 322.756 124.174 322.756 129.098C322.756 134.021 323.528 137.559 325.69 137.559C328.005 137.559 332.174 136.021 332.791 134.636C333.564 133.098 334.953 133.098 334.953 130.328C334.953 127.405 331.402 120.943 328.468 120.943C325.844 121.251 324.917 121.251 324.917 121.251Z" fill="#FFBF99"/>
<path d="M322.91 121.251C322.91 121.251 320.748 115.404 322.138 114.79C323.373 114.02 326.461 115.558 327.079 116.328C327.851 117.097 329.24 117.097 330.013 117.097C330.013 117.097 337.114 117.097 338.505 118.635C340.048 120.174 340.048 120.789 340.048 121.559C340.048 122.328 340.048 125.097 340.82 126.482C341.129 127.097 341.592 130.02 340.048 132.944C338.505 135.866 337.114 136.482 336.497 136.482C335.725 136.482 335.262 136.482 334.953 135.713C334.953 134.944 334.644 133.867 334.18 132.79C333.872 131.867 333.409 129.867 333.409 129.867C333.409 129.867 332.637 126.328 331.248 124.943C330.013 123.405 329.703 123.405 326.924 122.789C324.299 122.02 323.682 123.405 322.91 121.251Z" fill="#1A1155"/>
<path d="M332.634 126.636C331.553 127.867 332.943 130.021 332.943 130.021C332.943 130.021 335.104 130.79 335.104 128.482C334.95 126.328 333.715 125.097 332.634 126.636Z" fill="#EEBD98"/>
<path d="M346.996 156.79C346.996 156.79 349.466 166.945 349.312 173.56C348.849 180.022 346.996 185.56 345.606 189.561C344.063 193.254 343.29 194.484 343.29 196.792C343.29 199.253 342.055 202.177 340.82 203.407C339.276 204.946 338.349 205.715 338.349 205.715C338.349 205.715 336.497 206.484 336.806 204.946C336.806 204.946 335.571 204.946 336.033 204.177C336.033 204.177 334.49 204.177 335.571 202.946C336.806 201.715 338.659 200.639 338.659 200.639C338.659 200.639 339.894 198.792 338.195 199.715C336.497 200.639 335.107 200.639 336.497 199.1C338.041 197.561 339.585 194.945 341.283 190.177C342.518 185.253 344.217 175.868 342.364 168.329C340.511 161.098 338.195 158.637 338.195 158.637L346.996 156.79Z" fill="#FFBF99"/>
<path d="M353.172 268.64C353.172 268.64 351.629 272.64 350.239 274.64C348.695 276.487 347.306 277.717 347.306 277.717C347.306 277.717 345.453 280.641 347.614 279.871C349.776 278.948 361.202 271.409 361.202 271.409C361.202 271.409 362.899 270.486 362.128 269.102C361.356 267.871 359.657 264.948 359.657 264.948L353.172 268.64Z" fill="#1A1155"/>
<path d="M332.021 276.948C332.021 276.948 332.485 278.179 329.859 278.179C327.543 278.179 314.266 278.179 314.266 278.179C314.266 278.179 311.795 277.563 314.111 276.486C316.427 275.256 323.684 272.178 323.684 272.178C323.684 272.178 324.301 272.025 324.301 270.64H332.176L332.021 276.948Z" fill="#1A1155"/>
<path d="M335.723 149.867C335.723 149.867 335.105 144.944 338.657 144.483C342.208 144.02 344.523 148.637 345.758 151.559C346.994 154.636 347.611 156.944 347.611 156.944C347.611 156.944 340.046 160.021 338.039 160.021C337.884 160.021 336.186 155.098 335.723 149.867Z" fill="#F59F1D"/>
<path d="M188.837 104.535H294.531V207.474H188.837V104.535Z" fill="white" stroke="#2A2A2A" stroke-width="0.469338"/>
<path d="M294.766 104.3H188.603V117.165H294.766V104.3Z" fill="#033E9F"/>
<path d="M197.536 110.917C197.536 112.025 196.674 112.887 195.564 112.887C194.455 112.887 193.593 112.025 193.593 110.917C193.593 109.809 194.455 108.948 195.564 108.948C196.674 108.948 197.536 109.809 197.536 110.917Z" fill="#EE384E"/>
<path d="M205.754 110.917C205.754 112.025 204.891 112.887 203.782 112.887C202.673 112.887 201.811 112.025 201.811 110.917C201.811 109.809 202.673 108.948 203.782 108.948C204.891 108.948 205.754 109.809 205.754 110.917Z" fill="#EBF5FF"/>
<path d="M213.265 110.917C213.265 112.025 212.402 112.887 211.293 112.887C210.184 112.887 209.321 112.025 209.321 110.917C209.321 109.809 210.184 108.948 211.293 108.948C212.402 108.948 213.265 109.809 213.265 110.917Z" fill="white"/>
<path d="M284.351 129.721H230.438V133.414H284.351V129.721Z" fill="#EBF5FF"/>
<path d="M284.351 137.538H230.438V141.231H284.351V137.538Z" fill="#EBF5FF"/>
<path d="M265.435 146.156H230.438V149.849H265.435V146.156Z" fill="#EBF5FF"/>
<path d="M283.55 159.697H230.438V163.39H283.55V159.697Z" fill="#EBF5FF"/>
<path d="M283.55 167.884H230.438V171.577H283.55V167.884Z" fill="#EBF5FF"/>
<path d="M283.55 177.732H230.438V181.425H283.55V177.732Z" fill="#EBF5FF"/>
<path d="M283.55 189.242H230.438V192.936H283.55V189.242Z" fill="#EBF5FF"/>
<path d="M222.674 148.618H208.01V152.311H222.674V148.618Z" fill="#EBF5FF"/>
<path d="M222.674 137.538H208.01V141.231H222.674V137.538Z" fill="#EBF5FF"/>
<path d="M222.736 129.721H194.085V133.414H222.736V129.721Z" fill="#EBF5FF"/>
<path d="M222.737 156.804H196.981V160.497H222.737V156.804Z" fill="#EBF5FF"/>
<path d="M222.738 166.283H210.97V169.976H222.738V166.283Z" fill="#EBF5FF"/>
<path d="M222.736 175.7H202.465V179.394H222.736V175.7Z" fill="#EBF5FF"/>
<path d="M222.735 191.273H206.592V194.967H222.735V191.273Z" fill="#EBF5FF"/>
<path d="M59.4786 170.466H64.2621L69.4801 170.177C69.4801 170.177 70.0602 173.354 67.0163 173.788C63.9725 174.077 59.3338 174.799 58.7545 174.655C57.5942 174.366 59.4786 170.466 59.4786 170.466Z" fill="#FBBE9B"/>
<path d="M55.854 147.356C55.854 147.356 60.7823 152.267 61.2167 155.012C62.0865 157.756 60.3469 161.656 59.9125 162.955C59.622 164.111 59.7676 178.987 59.7676 178.987H40.1992V147.212L55.854 147.356Z" fill="#0064E1"/>
<path d="M67.4514 132.48C67.4514 132.48 67.1617 136.235 66.1471 138.691V140.568C66.1471 140.713 66.0023 140.857 65.8574 140.857L64.6971 140.713V142.301C64.6971 142.446 64.5523 142.59 64.4075 142.59H63.3929C63.248 142.59 63.1032 142.735 63.1032 142.879L63.248 143.746C63.248 143.89 63.248 144.035 62.9584 144.035C62.0886 144.179 60.7843 144.323 58.8999 143.024C57.0154 141.724 55.856 142.446 55.856 143.601C55.856 144.757 56.8706 148.367 55.2758 149.378C53.9716 150.245 49.9131 149.668 49.0433 148.801C48.0285 147.79 49.0433 145.479 50.3475 144.179C51.3622 143.168 52.8121 132.335 54.9862 131.324C56.8706 130.891 67.4514 132.48 67.4514 132.48Z" fill="#FBBC98"/>
<path d="M44.6938 162.812L44.5488 169.455C44.5488 170.033 44.8387 170.466 45.5634 170.466C46.2882 170.466 46.723 170.466 48.0275 169.889C51.0716 168.733 58.4636 164.689 59.3334 163.967C59.3334 163.967 59.4783 163.967 59.4783 163.823C59.6231 163.533 60.6377 162.089 62.8126 162.233C65.566 162.378 66.1462 163.1 65.8565 163.823C65.7117 164.689 65.2764 164.689 65.2764 164.689L65.566 165.267C65.566 165.267 65.2764 166.133 63.9721 166.133C62.8127 166.133 61.2179 165.555 60.9282 165.989C60.6377 166.278 48.7523 174.077 45.9983 175.955C45.7084 176.099 45.1286 176.243 44.6938 176.532C42.9543 176.822 38.7508 177.543 38.316 174.655C37.4463 171.044 37.4463 163.1 37.4463 163.1L44.6938 162.812Z" fill="#FBBE9B"/>
<path d="M44.6938 150.823C44.9837 150.678 45.5634 150.823 45.5634 151.112V163.244C45.5634 163.533 45.4185 163.822 44.9837 163.822C44.5488 163.822 43.824 163.822 42.5195 163.822C40.4903 163.822 38.7508 163.822 37.7362 163.822C37.4463 163.822 37.4463 163.678 37.4463 163.533L37.5913 155.156C37.5913 155.012 37.5913 154.868 37.7362 154.868L44.6938 150.823Z" fill="#0054A3"/>
<path d="M30.6333 156.167C29.6187 152.412 36.4313 147.068 36.4313 147.068C36.4313 147.068 39.6201 145.913 40.1999 142.157C40.7798 138.402 44.4034 137.246 45.9979 135.947C47.5923 134.646 48.7519 131.325 48.7519 131.325L48.8971 130.458C48.8971 130.458 51.6505 118.614 60.783 121.647C60.783 121.647 64.9863 123.236 66.7259 126.414C66.7259 126.414 72.8137 127.425 71.5086 132.191C70.3491 136.958 67.45 134.069 67.45 134.069C67.45 134.069 66.2906 131.613 64.9863 133.202C63.682 134.936 60.6373 136.091 59.7684 134.358C58.7537 132.624 56.8693 131.613 56.434 134.069V135.224C56.434 135.224 51.7962 141.002 51.5057 142.88C50.9264 144.902 49.7669 147.79 47.4474 148.946C45.2732 150.245 42.809 155.3 41.6494 158.189C40.1999 161.222 31.7929 161.945 30.6333 156.167Z" fill="#1F1952"/>
<path d="M76.8744 156.456L88.7603 156.601L73.9753 173.066L61.7998 172.489L76.8744 156.456Z" fill="#1C164F"/>
<path d="M77.5964 168.444C77.5964 168.444 78.7567 170.611 77.742 171.332C76.5817 171.91 75.5671 172.199 74.9878 171.477C74.5525 170.899 74.118 169.022 74.843 169.31C75.4223 169.31 75.7128 169.455 75.7128 169.455V168.877C75.7128 168.733 75.7128 168.588 75.8576 168.588C76.4369 168.155 77.4515 167.722 77.5964 168.444Z" fill="#FBBE9B"/>
<path d="M56.6868 178.988H59.9127V272.148L52.5198 272.436L48.6064 211.341L56.6868 178.988Z" fill="#DE051F"/>
<path d="M39.9106 178.578C39.9106 178.578 40.0556 182.453 39.9106 183.898C39.7657 184.765 35.2723 191.986 38.751 200.941C38.751 201.086 38.751 201.23 38.896 201.519C38.896 203.541 39.4758 215.674 37.0116 221.884L23.8213 264.925L28.8945 268.536C28.8945 268.536 46.2883 231.272 46.7231 229.539C47.1581 227.806 58.6086 191.264 57.0147 181.154V178.578H39.9106Z" fill="#EE384E"/>
<path d="M59.9134 272.147C59.9134 272.147 64.5512 274.602 66.5805 275.18C68.1752 275.469 68.4649 276.769 68.6097 277.202C68.6097 277.347 68.6097 277.491 68.4649 277.491H52.5205V272.292L59.9134 272.147Z" fill="#221D56"/>
<path d="M28.7505 268.104C28.7505 268.104 30.055 271.858 32.954 274.17C35.853 276.336 32.954 277.924 32.954 277.924L21.0682 270.559C20.9233 270.27 20.1986 268.969 21.0682 267.814C21.9379 266.514 23.8223 264.492 23.8223 264.492L28.7505 268.104Z" fill="#221D56"/>
<path d="M252.069 241.432C252.069 241.432 254.703 240.398 254.515 237.388C254.327 234.378 252.822 232.309 255.925 233.156C259.123 234.002 260.158 234.378 262.509 233.908C264.861 233.438 266.742 232.497 265.707 235.413C264.672 238.423 263.638 240.962 265.989 241.432C268.341 241.903 270.974 240.116 271.256 244.818C271.538 249.521 267.776 254.788 261.663 254.976C255.549 255.164 252.822 252.625 252.822 252.625C252.822 252.625 251.223 250.273 253.762 249.709C256.302 249.145 258.935 248.016 257.618 246.887C256.302 245.665 252.069 245.571 252.069 245.571C252.069 245.571 246.708 244.536 252.069 241.432Z" fill="#649CE8"/>
<path d="M280.003 242.185C279.533 239.175 279.909 237.012 285.458 236.259C291.007 235.413 294.299 238.799 294.581 242.185C294.958 245.57 290.067 246.887 290.067 246.887C290.067 246.887 286.681 247.828 288.374 250.838C290.067 253.847 290.913 256.763 286.963 257.139C283.013 257.609 278.686 256.575 276.241 254.976C273.795 253.377 271.35 249.333 274.172 247.169C274.172 247.169 274.924 246.605 277.557 246.511C280.285 246.417 280.003 242.185 280.003 242.185Z" fill="#023E9F"/>
<path d="M260.439 241.714C260.439 241.714 265.048 252.154 265.706 259.302" stroke="#023E9F" stroke-width="0.938675" stroke-miterlimit="10"/>
<path d="M286.118 243.407C286.118 243.407 277.936 255.54 276.055 259.584" stroke="#649CE8" stroke-width="0.938675" stroke-miterlimit="10"/>
<path d="M262.885 258.456H281.601C281.601 258.456 283.671 258.644 283.483 261.372C283.294 263.911 280.097 263.347 278.404 263.347C276.711 263.347 262.508 263.347 262.508 263.347C262.508 263.347 260.251 263.723 260.251 261.09C260.157 258.55 261.004 258.456 262.885 258.456Z" fill="#0055A2"/>
<path d="M262.511 263.441L265.332 279.995H277.936L280.099 267.58L262.511 263.441Z" fill="#0055A2"/>
<path d="M262.511 263.441L280.099 267.58L280.851 263.441H262.511Z" fill="#016AD3"/>
<path d="M270.598 259.115C270.598 259.115 271.538 240.68 276.993 229.205" stroke="#FABC43" stroke-width="0.938675" stroke-miterlimit="10"/>
<path d="M281.507 222.527C281.507 222.527 281.977 228.171 276.428 230.334C276.428 230.334 275.299 225.537 281.507 222.527Z" fill="#FABC43"/>
<path d="M273.231 240.492C273.231 240.492 275.301 235.695 281.508 236.354C281.508 236.354 281.038 241.15 273.231 240.492Z" fill="#FABC43"/>
<path d="M271.162 252.625C271.162 252.625 272.197 247.546 278.498 246.888C278.498 246.888 278.969 251.684 271.162 252.625Z" fill="#FABC43"/>
<path d="M270.975 252.625C270.975 252.625 271.727 247.452 265.99 244.818C265.99 244.818 263.921 249.145 270.975 252.625Z" fill="#FABC43"/>
<path d="M273.326 240.492C273.326 240.492 274.737 235.413 269.376 232.121C269.376 232.027 266.837 236.165 273.326 240.492Z" fill="#FABC43"/>
<path d="M321.598 78.91L316.331 80.4149L317.836 85.6819L323.103 84.1771L321.598 78.91Z" fill="#033E9F"/>
</svg>
