<svg width="270" height="186" viewBox="0 0 270 186" fill="none" xmlns="http://www.w3.org/2000/svg">
<path d="M251.158 158.587H18V158.681H251.158V158.587Z" fill="#ECECEC"/>
<path d="M52.315 163.194H42.4434V163.288H52.315V163.194Z" fill="#ECECEC"/>
<path d="M137.4 161.877H97.7256V161.971H137.4V161.877Z" fill="#ECECEC"/>
<path d="M67.2628 167.518H49.5879V167.612H67.2628V167.518Z" fill="#ECECEC"/>
<path d="M227.841 166.673H207.628V166.767H227.841V166.673Z" fill="#ECECEC"/>
<path d="M206.219 166.673H200.578V166.767H206.219V166.673Z" fill="#ECECEC"/>
<path d="M190.988 164.698H180.271V164.792H190.988V164.698Z" fill="#ECECEC"/>
<path d="M174.913 164.698H152.255V164.792H174.913V164.698Z" fill="#ECECEC"/>
<path d="M128.563 137.904H38.496C37.0857 137.904 35.7695 136.775 35.7695 135.177V8.72639C35.7695 7.31615 36.8977 5.99994 38.496 5.99994H128.469C129.879 5.99994 131.195 7.12812 131.195 8.72639V135.365C131.195 136.681 130.067 137.904 128.563 137.904ZM38.496 6.09395C37.0857 6.09395 35.9576 7.22214 35.9576 8.63237V135.271C35.9576 136.681 37.0857 137.81 38.496 137.81H128.469C129.879 137.81 131.007 136.681 131.007 135.271V8.72639C131.007 7.31615 129.879 6.18797 128.469 6.18797C128.563 6.09395 38.496 6.09395 38.496 6.09395Z" fill="#ECECEC"/>
<path d="M229.346 137.904H139.373C137.963 137.904 136.646 136.775 136.646 135.177V8.72639C136.646 7.31615 137.775 5.99994 139.373 5.99994H229.346C230.756 5.99994 232.072 7.12812 232.072 8.72639V135.365C232.072 136.681 230.85 137.904 229.346 137.904ZM139.373 6.09395C137.963 6.09395 136.835 7.22214 136.835 8.63237V135.271C136.835 136.681 137.963 137.81 139.373 137.81H229.346C230.756 137.81 231.884 136.681 231.884 135.271V8.72639C231.884 7.31615 230.756 6.18797 229.346 6.18797C229.346 6.09395 139.373 6.09395 139.373 6.09395Z" fill="#ECECEC"/>
<path d="M60.2109 103.493H52.9717V158.774H60.2109V103.493Z" fill="#F0F0F0"/>
<path d="M123.012 103.4H60.21V158.681H123.012V103.4Z" fill="#F5F5F5"/>
<path d="M123.578 124.271H68.3906V153.886H123.578V124.271Z" fill="#FAFAFA"/>
<path d="M123.578 111.391H68.3906V121.169H123.578V111.391Z" fill="#FAFAFA"/>
<path opacity="0.7" d="M68.391 124.365H67.9209V153.98H68.391V124.365Z" fill="#E7E7E7"/>
<path opacity="0.7" d="M68.391 111.391H67.9209V121.169H68.391V111.391Z" fill="#E7E7E7"/>
<path opacity="0.7" d="M123.107 105.844H52.9717V107.16H123.107V105.844Z" fill="#E7E7E7"/>
<path d="M60.2113 102.648H52.126V106.221H60.2113V102.648Z" fill="#F0F0F0"/>
<path d="M123.859 102.648H60.2109V106.221H123.859V102.648Z" fill="#F5F5F5"/>
<path d="M79.0155 92.0229C78.5455 91.4589 78.4514 90.7067 78.3574 90.0486C78.3574 89.3905 78.3574 88.6384 78.5455 87.9803C78.9215 86.5701 79.5796 85.4419 80.4258 84.2197C80.8958 83.6556 81.3659 83.1855 81.836 82.7154C82.024 82.5274 82.3061 82.2453 82.6821 82.0573C82.8702 81.8693 83.1522 81.5872 83.5283 81.4932C84.0924 81.1172 84.6565 80.8351 85.3146 80.4591C85.8787 80.271 86.4427 79.895 87.1949 79.6129C86.7248 80.083 86.2547 80.5531 85.7846 81.0231C85.3146 81.4932 84.8445 81.9633 84.3744 82.4334C83.9043 82.9035 83.4343 83.3735 83.0582 83.8436C82.8702 84.0316 82.5881 84.3137 82.4941 84.5017C82.3061 84.6897 82.024 84.9718 81.93 85.1598C81.0839 86.1 80.5198 87.1341 79.9557 88.2623C79.7677 88.8264 79.4856 89.3905 79.3916 90.0486C79.0155 90.8007 79.0155 91.3648 79.0155 92.0229Z" fill="#E7E7E7"/>
<path d="M68.1103 90.0486C68.2983 89.4845 68.4863 88.9205 68.4863 88.2623C68.4863 88.0743 68.4863 87.6983 68.4863 87.4162C68.3923 87.2282 68.3923 86.9461 68.2983 86.7581C67.9222 85.8179 67.2641 84.8778 66.418 84.2197C66.23 84.0317 65.9479 83.8436 65.7599 83.6556C65.5719 83.4676 65.2898 83.2795 65.1018 83.0915C64.6317 82.7154 64.1616 82.4334 63.6916 82.0573C63.5035 81.9633 63.2215 81.6813 63.0335 81.5873C62.8454 81.4932 62.5634 81.2112 62.3753 81.1172C61.9053 80.7411 61.3412 80.4591 60.8711 80.083C61.4352 80.177 61.9993 80.271 62.7514 80.4591C63.1275 80.4591 63.3155 80.6471 63.6916 80.6471C63.8796 80.7411 64.2556 80.8351 64.6317 81.0232L64.8197 81.2112C64.9138 81.2112 65.0078 81.3052 65.2898 81.3992C65.4778 81.4932 65.8539 81.7753 66.136 81.8693C66.324 81.9633 66.606 82.2454 66.9821 82.4334C67.1701 82.6214 67.4522 82.8095 67.6402 82.9975C68.5804 83.9376 69.4265 85.0658 69.6145 86.4761C69.6145 86.6641 69.6145 86.8521 69.6145 86.9461C69.6145 87.1342 69.6145 87.3222 69.6145 87.4162C69.6145 87.7923 69.5205 88.0743 69.4265 88.3564C68.9564 89.1085 68.5804 89.7666 68.1103 90.0486Z" fill="#E7E7E7"/>
<path d="M68.5805 90.0486C68.7685 88.7324 68.7685 87.5102 68.6745 86.288C68.5805 85.1598 68.1104 83.9376 67.5463 82.9034L67.0762 82.0573C66.8882 81.8693 66.7002 81.5872 66.5121 81.3992L66.3241 81.0231L65.948 80.7411C65.76 80.553 65.478 80.271 65.3839 80.083C64.9139 79.6129 64.4438 79.1428 63.9737 78.6727C63.5036 78.2027 63.0336 77.8266 62.5635 77.2625C63.2216 77.4505 63.8797 77.7326 64.4438 77.9206C65.0079 78.2967 65.572 78.5787 66.2301 78.9548C66.4181 79.1428 66.7002 79.4249 67.0762 79.6129L67.4523 79.989L67.8283 80.365C68.0164 80.553 68.2984 80.8351 68.4864 81.2112L69.0505 82.1513C69.7086 83.2795 70.0847 84.8778 70.0847 86.194C69.8967 87.6042 69.5206 89.0144 68.5805 90.0486Z" fill="#E7E7E7"/>
<path d="M78.3594 90.8008C77.4193 89.6726 76.7612 88.3564 76.009 87.0402C75.3509 85.63 74.8808 84.2197 74.5048 82.8095C74.1287 81.3993 73.9407 79.895 73.8467 78.3908C73.8467 76.8865 73.9407 75.3823 74.5048 73.972C74.5988 75.4763 74.6928 76.8865 75.0689 78.2968C75.2569 79.707 75.633 81.1172 76.009 82.5274C76.3851 83.9377 76.6671 85.3479 77.1372 86.7581C77.6073 87.9803 78.0774 89.3906 78.3594 90.8008Z" fill="#E7E7E7"/>
<path d="M77.8881 90.5188C76.7599 89.4846 75.8197 88.1684 74.9736 87.0402C74.1274 85.724 73.3753 84.5018 72.6232 83.0915C71.9651 81.6813 71.495 80.2711 71.119 78.6728C70.7429 77.1686 70.6489 75.6643 70.7429 73.972C71.213 75.4763 71.683 76.8865 72.2471 78.2027C72.8112 79.613 73.3753 81.0232 74.0334 82.2454C74.5975 83.6556 75.3496 84.9718 75.9137 86.2881C76.6659 87.6983 77.324 89.1085 77.8881 90.5188Z" fill="#E7E7E7"/>
<path d="M79.7676 92.3051C78.3573 91.4589 77.2291 90.5188 76.0069 89.4846C74.8788 88.4504 73.9386 87.2282 72.9044 86.1C71.9643 84.9719 71.1181 83.5616 70.46 82.1514C69.8019 80.7412 69.3319 79.2369 69.0498 77.7327C69.8959 79.1429 70.6481 80.2711 71.4942 81.5873C72.3403 82.7155 73.2805 84.0317 74.2207 85.1599C75.1608 86.2881 76.101 87.5103 77.0411 88.6385C77.8873 89.8607 79.0154 91.0829 79.7676 92.3051Z" fill="#E7E7E7"/>
<path d="M76.9473 90.3303C75.631 89.7662 74.5029 88.9201 73.4687 87.9799C72.4345 87.0398 71.4003 86.0056 70.5542 84.8774C69.6141 83.7492 68.9559 82.527 68.2978 81.1168C67.7337 79.8006 67.3577 78.3904 67.2637 76.8861C67.9218 78.2023 68.6739 79.3305 69.332 80.4587C69.9901 81.5869 70.8363 82.7151 71.6824 83.7492C72.5285 84.7834 73.2807 85.8176 74.2208 87.0398C75.255 88.0739 76.1011 89.1081 76.9473 90.3303Z" fill="#E7E7E7"/>
<path d="M79.2974 91.5526C78.2632 90.8945 77.5111 89.6723 77.4171 88.262C77.323 86.8518 77.5111 85.5356 77.9812 84.4074L78.1692 83.9373L78.3572 83.4673L78.8273 82.6211C79.0153 82.4331 79.2034 82.1511 79.3914 81.963C79.5794 81.775 79.7674 81.4929 79.9555 81.3049C80.4256 80.8348 80.8956 80.4588 81.3657 80.1767C81.8358 79.8007 82.3999 79.5186 82.87 79.2366C82.4939 79.8007 82.2118 80.2707 81.8358 80.7408C81.4597 81.2109 81.1777 81.681 80.8956 82.151C80.5196 82.6211 80.3315 83.0912 79.9555 83.5613L79.5794 84.5014L79.3914 84.8775L79.2974 85.2536C78.8273 86.1937 78.4512 87.3219 78.4512 88.3561C78.5452 89.3902 78.7333 90.5184 79.2974 91.5526Z" fill="#E7E7E7"/>
<path d="M78.36 90.0485C77.4198 89.1083 76.7617 87.9801 76.3857 86.7579C76.0096 85.4417 75.9156 84.0315 76.3857 82.8093C76.5737 82.1512 76.8557 81.4931 77.2318 80.929C77.6079 80.3649 78.0779 79.8008 78.548 79.4247C79.4882 78.4846 80.6164 77.9205 81.9326 77.5444C80.9924 78.4846 80.1463 79.3307 79.4882 80.3649C79.1121 80.835 78.8301 81.305 78.548 81.7751C78.36 82.2452 78.0779 82.8093 77.9839 83.2794C77.7959 84.3135 77.6079 85.5357 77.7959 86.6639C77.7019 87.6981 78.0779 88.9203 78.36 90.0485Z" fill="#E7E7E7"/>
<path d="M76.1005 89.0143L68.8613 82.0572L69.0494 88.9203L76.1005 89.0143Z" fill="#E7E7E7"/>
<path d="M84.0937 88.1682H64.7266L67.171 102.647H81.5553L84.0937 88.1682Z" fill="#F5F5F5"/>
<path d="M71.9657 88.1682H64.7266L67.171 102.647H71.0256L71.9657 88.1682Z" fill="#ECECEC"/>
<path d="M104.306 16.1533H65.1016V65.3234H104.306V16.1533Z" fill="#F0F0F0"/>
<path d="M112.86 16.1534H66.6045V65.3234H112.86V16.1534Z" fill="#F5F5F5"/>
<path d="M108.911 20.1021H70.459V61.5628H108.911V20.1021Z" fill="white"/>
<path d="M221.073 158.587H161.468L156.297 60.2468H215.715L221.073 158.587Z" fill="#ECECEC"/>
<path d="M222.86 158.587H163.348L158.083 60.2468H217.595L222.86 158.587Z" fill="#F5F5F5"/>
<path d="M192.963 148.622H187.698L187.98 70.4953H193.245L192.963 148.622Z" fill="white"/>
<path d="M207.065 148.622H201.706L201.988 70.4953H207.347L207.065 148.622Z" fill="white"/>
<path d="M178.955 148.622H173.596L173.878 70.4953H179.143L178.955 148.622Z" fill="white"/>
<path d="M134.58 179.74C184.531 179.74 225.023 177.383 225.023 174.475C225.023 171.567 184.531 169.21 134.58 169.21C84.6303 169.21 44.1377 171.567 44.1377 174.475C44.1377 177.383 84.6303 179.74 134.58 179.74Z" fill="#F5F5F5"/>
<path d="M198.363 117.529L197.761 128.512L198.23 128.538L198.832 117.554L198.363 117.529Z" fill="#007CFF"/>
<path d="M198.861 108.116L198.553 113.749L199.022 113.774L199.331 108.142L198.861 108.116Z" fill="#007CFF"/>
<path d="M189.014 149.374H134.297C130.819 149.374 127.998 146.459 128.28 142.981L134.579 28.282C134.767 24.8035 137.87 21.889 141.348 21.889H196.065C199.544 21.889 202.364 24.8035 202.082 28.282L195.783 142.981C195.595 146.459 192.493 149.374 189.014 149.374Z" fill="#0064E1"/>
<path opacity="0.8" d="M185.723 149.374H134.391C130.912 149.374 128.092 146.459 128.374 142.981L134.673 28.2821C134.861 24.8035 137.964 21.889 141.442 21.889H192.774C196.253 21.889 199.074 24.8035 198.791 28.2821L192.492 142.981C192.304 146.459 189.296 149.374 185.723 149.374Z" fill="white"/>
<path d="M160.245 42.7606H145.578C144.074 42.7606 143.04 41.6324 143.04 40.0342C143.134 38.5299 144.45 37.3077 145.861 37.3077H160.527C162.031 37.3077 163.065 38.4359 163.065 40.0342C163.065 41.4444 161.749 42.7606 160.245 42.7606Z" fill="white"/>
<path d="M163.161 39.9396C163.066 42.6661 160.716 44.8284 157.99 44.8284C155.263 44.8284 153.195 42.5721 153.477 39.9396C153.665 37.2132 155.921 35.0508 158.648 35.0508C161.186 35.1449 163.255 37.3072 163.161 39.9396Z" fill="#0064B7"/>
<path d="M159.305 59.9653H144.639C143.135 59.9653 142.101 58.8372 142.101 57.2389C142.195 55.7346 143.511 54.5125 144.921 54.5125H159.587C161.092 54.5125 162.126 55.6406 162.126 57.2389C162.126 58.7431 160.81 59.9653 159.305 59.9653Z" fill="white"/>
<path d="M154.006 60.4934C155.978 58.5745 156.109 55.5105 154.299 53.6499C152.489 51.7892 149.422 51.8364 147.45 53.7553C145.478 55.6743 145.346 58.7382 147.157 60.5989C148.967 62.4596 152.033 62.4123 154.006 60.4934Z" fill="#0064B7"/>
<path opacity="0.3" d="M154.006 60.4934C155.978 58.5745 156.109 55.5105 154.299 53.6499C152.489 51.7892 149.422 51.8364 147.45 53.7553C145.478 55.6743 145.346 58.7382 147.157 60.5989C148.967 62.4596 152.033 62.4123 154.006 60.4934Z" fill="#0064B7"/>
<path d="M142.759 94.469H157.425C158.929 94.469 160.246 93.3408 160.246 91.7426C160.34 90.2383 159.211 89.0161 157.707 89.0161H143.041C141.537 89.0161 140.22 90.1443 140.22 91.7426C140.032 93.2468 141.254 94.469 142.759 94.469Z" fill="white"/>
<path d="M148.392 94.9981C150.365 93.0792 150.496 90.015 148.686 88.1541C146.876 86.2932 143.809 86.3402 141.836 88.2591C139.864 90.178 139.732 93.2422 141.542 95.1032C143.353 96.9641 146.419 96.9171 148.392 94.9981Z" fill="#599FD2"/>
<path opacity="0.7" d="M148.392 94.9981C150.365 93.0792 150.496 90.015 148.686 88.1541C146.876 86.2932 143.809 86.3402 141.836 88.2591C139.864 90.178 139.732 93.2422 141.542 95.1032C143.353 96.9641 146.419 96.9171 148.392 94.9981Z" fill="#599FD2"/>
<path d="M156.485 111.767H141.819C140.314 111.767 139.28 110.639 139.28 109.041C139.374 107.537 140.691 106.314 142.101 106.314H156.767C158.271 106.314 159.306 107.443 159.306 109.041C159.306 110.451 157.989 111.767 156.485 111.767Z" fill="white"/>
<path d="M159.304 108.947C159.21 111.674 156.86 113.836 154.133 113.836C151.407 113.836 149.338 111.58 149.62 108.947C149.715 106.221 152.065 104.059 154.791 104.059C157.424 104.153 159.492 106.409 159.304 108.947Z" fill="#0064B7"/>
<path d="M143.699 77.2636H158.366C159.87 77.2636 161.186 76.1354 161.186 74.5372C161.28 73.0329 160.152 71.8107 158.648 71.8107H143.981C142.477 71.8107 141.161 72.9389 141.161 74.5372C140.973 75.9474 142.195 77.2636 143.699 77.2636Z" fill="white"/>
<path d="M141.066 74.4434C140.972 77.1698 142.946 79.3322 145.578 79.3322C148.211 79.3322 150.561 77.0758 150.749 74.4434C150.843 71.7169 148.869 69.5546 146.237 69.5546C143.51 69.6486 141.254 71.8109 141.066 74.4434Z" fill="#599FD2"/>
<path opacity="0.7" d="M141.066 74.4434C140.972 77.1698 142.946 79.3322 145.578 79.3322C148.211 79.3322 150.561 77.0758 150.749 74.4434C150.843 71.7169 148.869 69.5546 146.237 69.5546C143.51 69.6486 141.254 71.8109 141.066 74.4434Z" fill="#599FD2"/>
<path d="M192.681 39.0932H170.775C170.211 39.0932 169.741 38.6232 169.741 38.0591C169.741 37.495 170.305 37.0249 170.869 37.0249H192.775C193.339 37.0249 193.809 37.495 193.809 38.0591C193.715 38.6232 193.245 39.0932 192.681 39.0932Z" fill="white"/>
<path d="M185.254 42.9484H170.493C169.929 42.9484 169.459 42.4783 169.459 41.9142C169.459 41.3501 170.023 40.8801 170.587 40.8801H185.348C185.912 40.8801 186.382 41.3501 186.382 41.9142C186.476 42.4783 185.912 42.9484 185.254 42.9484Z" fill="white"/>
<path d="M186.1 108.289H167.015C166.451 108.289 165.98 107.819 165.98 107.255C165.98 106.691 166.545 106.221 167.109 106.221H186.194C186.758 106.221 187.228 106.691 187.228 107.255C187.134 107.631 186.57 108.289 186.1 108.289Z" fill="white"/>
<path d="M176.227 111.955H166.825C166.261 111.955 165.791 111.485 165.791 110.921C165.791 110.357 166.355 109.887 166.919 109.887H176.321C176.885 109.887 177.355 110.357 177.355 110.921C177.261 111.485 176.791 111.955 176.227 111.955Z" fill="white"/>
<path d="M191.552 57.9913H169.647C169.083 57.9913 168.519 58.4613 168.519 59.0254C168.519 59.5895 168.989 60.0596 169.553 60.0596H191.458C192.022 60.0596 192.586 59.5895 192.586 59.0254C192.68 58.5554 192.21 57.9913 191.552 57.9913Z" fill="white"/>
<path d="M184.689 54.3241H169.929C169.365 54.3241 168.801 54.7942 168.801 55.3583C168.801 55.9224 169.271 56.3924 169.835 56.3924H184.595C185.159 56.3924 185.724 55.9224 185.724 55.3583C185.724 54.7942 185.253 54.3241 184.689 54.3241Z" fill="white"/>
<path d="M180.084 73.7852H168.896C168.332 73.7852 167.862 73.3151 167.862 72.751C167.862 72.1869 168.426 71.7169 168.991 71.7169H180.178C180.742 71.7169 181.213 72.1869 181.213 72.751C181.213 73.1271 180.648 73.7852 180.084 73.7852Z" fill="white"/>
<path d="M190.8 73.7852H184.125C183.561 73.7852 183.091 73.3151 183.091 72.751C183.091 72.1869 183.655 71.7169 184.219 71.7169H190.894C191.458 71.7169 191.928 72.1869 191.928 72.751C191.834 73.1271 191.27 73.7852 190.8 73.7852Z" fill="white"/>
<path d="M183.466 77.4523H168.706C168.142 77.4523 167.672 76.9822 167.672 76.4181C167.672 75.854 168.236 75.384 168.8 75.384H183.56C184.125 75.384 184.595 75.854 184.595 76.4181C184.501 76.9822 184.031 77.4523 183.466 77.4523Z" fill="white"/>
<path d="M164.853 127.186H139.656C138.81 127.186 138.152 126.528 138.246 125.682C138.246 124.835 138.904 124.177 139.845 124.177H165.041C165.887 124.177 166.545 124.835 166.451 125.682C166.451 126.434 165.699 127.186 164.853 127.186Z" fill="white"/>
<path d="M187.228 127.186H171.81C170.964 127.186 170.306 126.528 170.4 125.682C170.4 124.835 171.058 124.177 171.998 124.177H187.416C188.262 124.177 188.921 124.835 188.827 125.682C188.921 126.434 188.168 127.186 187.228 127.186Z" fill="white"/>
<path d="M158.554 132.357H139.469C138.623 132.357 137.965 131.699 138.059 130.853C138.059 130.006 138.717 129.348 139.657 129.348H158.742C159.588 129.348 160.246 130.006 160.152 130.853C160.152 131.699 159.4 132.357 158.554 132.357Z" fill="white"/>
<path d="M179.331 137.622H139.092C138.246 137.622 137.588 136.964 137.682 136.118C137.682 135.272 138.34 134.614 139.28 134.614H179.519C180.365 134.614 181.023 135.272 180.929 136.118C181.023 136.964 180.271 137.622 179.331 137.622Z" fill="white"/>
<path d="M174.253 92.4939H167.766C167.202 92.4939 166.638 92.964 166.638 93.5281C166.638 94.0922 167.108 94.5622 167.672 94.5622H174.159C174.723 94.5622 175.287 94.0922 175.287 93.5281C175.381 93.058 174.911 92.4939 174.253 92.4939Z" fill="white"/>
<path d="M185.912 92.4939H178.485C177.921 92.4939 177.356 92.964 177.356 93.5281C177.356 94.0922 177.827 94.5622 178.391 94.5622H185.818C186.382 94.5622 186.946 94.0922 186.946 93.5281C186.946 93.058 186.476 92.4939 185.912 92.4939Z" fill="white"/>
<path d="M182.81 88.8281H168.049C167.485 88.8281 166.921 89.2982 166.921 89.8623C166.921 90.4264 167.391 90.8965 167.955 90.8965H182.715C183.28 90.8965 183.844 90.4264 183.844 89.8623C183.938 89.2982 183.468 88.8281 182.81 88.8281Z" fill="white"/>
<path d="M120.664 60.4343C123.014 60.9984 125.365 61.5625 127.809 62.2206C128.937 62.4086 130.159 62.6906 131.382 62.8787C132.51 63.0667 133.732 63.3487 134.954 63.4428H135.424H135.8C135.988 63.4428 136.27 63.4428 136.458 63.4428C136.929 63.4428 137.493 63.3487 138.057 63.2547C139.185 63.0667 140.407 62.7847 141.441 62.3146C143.792 61.6565 146.142 60.7163 148.304 59.8702L149.339 61.8445C147.27 63.2547 144.92 64.3829 142.569 65.6051C141.441 66.0752 140.125 66.6393 138.809 67.0153C138.151 67.2034 137.399 67.3914 136.741 67.4854C136.364 67.4854 136.082 67.5794 135.612 67.5794C135.424 67.5794 135.142 67.5794 134.954 67.5794H134.484C131.946 67.3914 129.313 67.1094 126.775 66.5453C124.236 66.0752 121.792 65.5111 119.348 64.665L120.664 60.4343Z" fill="#FFBF99"/>
<path d="M147.836 60.8104L148.494 58.46L150.938 59.4002C150.938 59.4002 150.374 62.8787 148.212 61.8446L147.836 60.8104Z" fill="#FFBF99"/>
<path d="M149.904 57.0498L152.442 57.2378L150.844 59.4942L148.399 58.554L149.904 57.0498Z" fill="#FFBF99"/>
<path d="M109.384 84.0329L112.392 84.3149L99.7944 166.86L93.4014 166.108L97.9141 111.579L109.384 84.0329Z" fill="#DE051F"/>
<path d="M94.9039 81.7759C94.9039 81.7759 94.3398 84.5964 94.0577 85.8186C93.7757 86.6647 88.6988 92.3997 90.6732 100.767C90.6732 100.861 90.5792 101.143 90.6732 101.425C90.4851 103.211 89.3569 114.117 86.3485 119.288L68.7676 155.39L72.8102 159.339C72.8102 159.339 93.3056 128.784 94.0577 127.185C94.7158 125.775 109.664 94.9381 109.57 85.8186V84.1263L94.9039 81.7759Z" fill="#EE384E"/>
<path d="M99.6993 166.86C99.6993 166.86 103.554 169.586 105.246 170.432C106.75 170.996 106.656 172.218 106.75 172.5C106.75 172.594 106.75 172.689 106.656 172.689L92.7422 170.62L93.4003 166.013L99.6993 166.86Z" fill="#221D56"/>
<path d="M72.8107 158.963C72.8107 158.963 73.4688 162.629 75.7252 164.98C77.9816 167.142 75.2551 168.364 75.2551 168.364L65.6655 160.279C65.4775 159.997 65.1015 158.775 65.9476 157.929C66.7937 156.8 68.7681 155.296 68.7681 155.296L72.8107 158.963Z" fill="#221D56"/>
<path d="M96.7859 61.3742C94.9996 62.7844 93.4013 64.3827 91.6151 65.7929C90.7689 66.6391 90.0168 67.3912 89.2647 68.1433C88.5125 68.8014 87.7604 69.7416 87.2903 70.5877L87.1963 70.6817V70.7757C87.1963 70.7757 87.1963 70.8698 87.1023 70.9638C87.1023 71.0578 87.0083 71.3398 86.9143 71.4338C86.8203 71.7159 86.7263 72.28 86.7263 72.8441C86.6322 73.9723 86.5382 74.9124 86.5382 76.1346C86.4442 78.391 86.4442 80.6474 86.5382 82.9977L84.0938 83.4678C83.5297 81.1174 82.9656 78.8611 82.7776 76.4167C82.6836 75.1005 82.6836 73.9723 82.6836 72.6561C82.6836 71.9979 82.7776 71.3398 82.8716 70.5877C82.8716 70.2117 82.9656 69.7416 83.0596 69.4595C83.0596 69.1775 83.1537 68.9895 83.2477 68.8014L83.3417 68.6134C83.3417 68.5194 83.4357 68.5194 83.4357 68.4254C84.0938 67.1091 84.8459 66.263 85.5981 65.1348C86.2562 64.0066 87.1963 63.0665 88.0425 62.2203C89.7347 60.4341 91.521 58.7418 93.4954 57.3315L96.7859 61.3742Z" fill="#FFBF99"/>
<path d="M95.7513 55.1699C93.2128 56.7682 89.0762 60.8109 89.0762 60.8109L93.965 66.7338C93.965 66.7338 100.922 62.5972 101.768 60.2468C103.367 56.1101 98.1957 53.4777 95.7513 55.1699Z" fill="#003EB0"/>
<path d="M85.8788 82.4338L86.5369 85.9123L83.2464 85.5363C83.2464 85.5363 82.5883 83.1859 84.3746 82.2457L85.8788 82.4338Z" fill="#FFBF99"/>
<path d="M85.5019 87.9811L82.3994 87.041L83.4336 85.4427L86.6301 85.7247L85.5019 87.9811Z" fill="#FFBF99"/>
<path d="M120.1 40.785C120.194 40.785 120.288 40.879 120.288 40.973C120.288 42.2892 119.912 48.4942 117.374 50.8446C117.374 50.8446 116.057 52.6309 113.613 51.9728C113.613 51.9728 111.357 50.6566 111.733 53.383C112.015 56.0155 110.886 58.8359 109.946 59.212C109.1 59.5881 105.434 58.6479 104.493 57.1437C103.929 56.0155 103.553 55.4514 103.365 55.2634C103.365 55.1693 103.365 55.0753 103.365 55.0753C103.929 54.5112 105.716 52.1609 106.656 48.8703C107.596 45.2037 107.22 41.6311 110.604 40.879C113.707 40.1269 118.784 40.5029 120.1 40.785Z" fill="#FFBE97"/>
<path d="M94.6207 81.8699C98.0993 82.34 105.526 83.2801 112.672 84.3143C119.629 59.0242 117.56 58.272 117.56 58.272C117.56 58.272 115.774 57.3319 113.424 56.4857C113.33 56.4857 113.33 56.4857 113.236 56.4857C112.014 56.1097 111.637 56.1097 110.227 55.7336C107.689 55.1695 105.056 54.8875 102.048 54.6054C101.766 54.6054 101.672 54.6054 101.578 54.6054C101.202 54.6054 100.638 54.6054 100.074 54.5114C99.6975 54.5114 99.2275 54.5114 98.9454 54.5114C98.5694 54.5114 98.0993 54.5114 97.7232 54.5114C97.4412 54.5114 97.2531 54.5114 97.0651 54.5114C95.6549 54.5114 94.5267 56.0157 94.6207 57.4259C96.313 70.6821 95.7489 75.1008 94.6207 81.8699Z" fill="#0064E1"/>
<path d="M104.871 49.6225C104.871 49.6225 98.9485 47.5542 98.2904 53.007C98.2904 53.007 96.5981 56.9557 95.0939 57.7078C93.5896 58.554 89.735 59.8702 90.6752 65.229C91.6153 70.4939 92.9315 70.1179 92.5555 73.1263C92.1794 76.0408 93.6836 76.5109 95.564 76.5109C97.5383 76.5109 98.1964 74.5366 98.1964 74.5366L97.7263 67.8615L99.1365 56.9557L103.649 55.0754C103.649 55.0754 106 52.2549 106.188 51.0327C106.282 49.9045 104.871 49.6225 104.871 49.6225Z" fill="#180857"/>
<path d="M103.931 48.1185C103.931 48.1185 103.085 49.2467 103.179 49.3407C103.555 49.4347 106.094 50.8449 106.094 50.8449C106.094 50.8449 106.846 49.3407 106.752 48.9646C106.658 48.3065 103.931 48.1185 103.931 48.1185Z" fill="#EA4E59"/>
<path d="M123.015 40.5031C123.015 40.033 123.015 39.563 123.015 39.2809C122.921 38.0587 122.545 36.9305 121.605 36.0844C121.041 35.5203 120.007 35.3323 119.255 35.3323C118.973 35.3323 118.879 35.3323 118.785 35.1442C118.221 34.5802 116.246 32.6058 113.52 32.6058C110.323 32.6058 104.87 34.2981 103.366 39.657C103.272 39.939 101.204 48.4944 105.34 48.6825C109.665 48.9645 111.263 46.8962 111.169 44.9218C111.169 44.9218 109.101 41.0672 112.58 42.0074C112.58 42.0074 116.34 42.5715 118.879 41.2552C119.067 40.9732 119.631 41.2552 119.725 41.4433C120.195 42.3834 121.323 43.6996 122.169 42.5715C122.545 42.2894 122.827 41.7253 122.921 41.1612C123.109 40.8792 123.015 40.5971 123.015 40.5031Z" fill="#180857"/>
<path opacity="0.2" d="M113.237 63.9128C113.331 65.135 116.058 67.2974 116.998 66.5453C117.28 65.135 117.562 64.0068 117.656 63.0667C116.34 63.0667 113.707 61.5624 113.237 63.9128Z" fill="black"/>
<path d="M110.322 58.1779C110.228 53.9472 120.194 58.4599 122.544 59.5881L120.006 66.5452C120.006 66.5452 116.621 66.4512 114.553 65.229C112.296 64.0068 110.416 61.0923 110.322 58.1779Z" fill="#0054A3"/>
<path d="M94.5295 80.8366L93.7773 82.4348C93.7773 82.5289 93.7773 82.6229 93.9654 82.6229L112.862 85.1613C112.956 85.1613 113.05 85.1613 113.05 85.0673L113.239 83.563C113.239 83.469 113.145 83.375 113.05 83.375L94.5295 80.8366C94.7175 80.6485 94.5295 80.6485 94.5295 80.8366Z" fill="#007CFF"/>
<path opacity="0.3" d="M94.5295 80.8366L93.7773 82.4348C93.7773 82.5289 93.7773 82.6229 93.9654 82.6229L112.862 85.1613C112.956 85.1613 113.05 85.1613 113.05 85.0673L113.239 83.563C113.239 83.469 113.145 83.375 113.05 83.375L94.5295 80.8366C94.7175 80.6485 94.5295 80.6485 94.5295 80.8366Z" fill="black"/>
<path d="M96.7858 83.0918H96.3157C96.2217 83.0918 96.2217 83.0918 96.2217 82.9978L96.6918 80.9295C96.6918 80.9295 96.7858 80.8354 96.8798 80.8354H97.3499C97.4439 80.8354 97.4439 80.8355 97.4439 80.9295L96.9738 82.9978C96.9738 83.1858 96.8798 83.1858 96.7858 83.0918Z" fill="#1A2E35"/>
<path d="M109.101 84.8784H108.631C108.537 84.8784 108.537 84.8784 108.537 84.7844L109.007 82.7161C109.007 82.7161 109.101 82.6221 109.195 82.6221H109.665C109.759 82.6221 109.759 82.6221 109.759 82.7161L109.289 84.7844C109.383 84.7844 109.195 84.8784 109.101 84.8784Z" fill="#1A2E35"/>
</svg>
