<svg width="270" height="186" viewBox="0 0 270 186" fill="none" xmlns="http://www.w3.org/2000/svg">
<g clip-path="url(#clip0_1409_4158)">
<path d="M135 177.002C201.826 177.002 256 172.051 256 165.944C256 159.837 201.826 154.886 135 154.886C68.1735 154.886 14 159.837 14 165.944C14 172.051 68.1735 177.002 135 177.002Z" fill="#F5F5F5"/>
<path d="M219.216 46.149C232.381 42.948 245.545 51.096 248.643 64.191C251.837 77.383 243.706 90.575 230.638 93.679" stroke="#2A2AD5" stroke-miterlimit="10" stroke-dasharray="6 6"/>
<path d="M247.772 66.907C250.498 66.907 252.709 64.6922 252.709 61.96C252.709 59.2278 250.498 57.013 247.772 57.013C245.045 57.013 242.835 59.2278 242.835 61.96C242.835 64.6922 245.045 66.907 247.772 66.907Z" fill="#FCBE42"/>
<path d="M249.998 61.96L247.094 59.632L246.804 63.124" stroke="white" stroke-miterlimit="10"/>
<path d="M233.543 25.488C233.543 25.488 233.446 25.391 233.252 25.488L231.607 25.779C231.316 25.779 231.22 25.682 231.22 25.488C231.123 24.712 230.639 24.033 230.445 23.451C230.348 23.354 230.445 23.063 230.542 22.869L231.704 21.899C231.704 21.899 231.8 21.802 231.8 21.608C231.8 21.511 231.8 21.511 231.704 21.317L229.961 19.571C229.961 19.571 229.864 19.474 229.671 19.474C229.477 19.474 229.574 19.474 229.38 19.571L228.412 20.735C228.316 20.832 228.025 21.026 227.832 20.832C227.154 20.444 226.476 20.153 225.799 20.056C225.508 20.056 225.508 19.765 225.508 19.668L225.799 18.019C225.799 17.922 225.799 17.922 225.799 17.728C225.799 17.728 225.702 17.631 225.508 17.631H222.992C222.895 17.631 222.895 17.631 222.701 17.728C222.701 17.728 222.604 17.825 222.701 18.019L222.992 19.668C222.992 19.959 222.895 20.056 222.701 20.056C221.927 20.153 221.249 20.638 220.668 20.832C220.572 20.929 220.281 20.832 220.088 20.735L219.12 19.571C219.12 19.571 219.023 19.474 218.829 19.474C218.636 19.474 218.732 19.474 218.539 19.571L216.796 21.317C216.796 21.317 216.7 21.414 216.7 21.608C216.7 21.705 216.7 21.705 216.796 21.899L217.958 22.869C218.055 22.966 218.248 23.257 218.055 23.451C217.668 24.13 217.377 24.809 217.28 25.488C217.28 25.779 216.99 25.779 216.893 25.779L215.248 25.488C215.151 25.488 215.151 25.488 214.957 25.488C214.957 25.488 214.86 25.585 214.86 25.779V28.301C214.86 28.398 214.86 28.398 214.957 28.592C214.957 28.592 215.054 28.689 215.248 28.592L216.893 28.301C217.184 28.301 217.28 28.398 217.28 28.592C217.377 29.368 217.861 30.047 218.055 30.629C218.152 30.726 218.055 31.017 217.958 31.211L216.796 32.181C216.796 32.181 216.7 32.278 216.7 32.472C216.7 32.569 216.7 32.569 216.796 32.763L218.539 34.509C218.539 34.509 218.636 34.606 218.829 34.606C219.023 34.606 218.926 34.606 219.12 34.509L220.088 33.345C220.184 33.248 220.475 33.054 220.668 33.248C221.346 33.636 222.024 33.927 222.701 34.024C222.992 34.024 222.992 34.315 222.992 34.412L222.701 36.061C222.701 36.158 222.701 36.158 222.701 36.352C222.701 36.352 222.798 36.449 222.992 36.449H225.508C225.605 36.449 225.605 36.449 225.799 36.352C225.799 36.352 225.896 36.255 225.799 36.061L225.508 34.412C225.508 34.121 225.605 34.024 225.799 34.024C226.573 33.927 227.251 33.442 227.832 33.248C227.928 33.151 228.219 33.248 228.412 33.345L229.38 34.509C229.38 34.509 229.477 34.606 229.671 34.606C229.864 34.606 229.768 34.606 229.961 34.509L231.704 32.763C231.704 32.763 231.8 32.666 231.8 32.472C231.8 32.375 231.8 32.375 231.704 32.181L230.542 31.211C230.445 31.114 230.252 30.823 230.445 30.629C230.832 29.95 231.123 29.271 231.22 28.592C231.22 28.301 231.51 28.301 231.607 28.301L233.252 28.592C233.349 28.592 233.349 28.592 233.543 28.592C233.543 28.592 233.64 28.495 233.64 28.301V25.779C233.64 25.585 233.64 25.488 233.543 25.488ZM232.962 27.816L231.8 27.719C231.22 27.719 230.736 28.01 230.736 28.495C230.639 29.174 230.348 29.659 229.961 30.338C229.671 30.92 229.864 31.405 230.252 31.696L231.22 32.375L230.058 33.539L229.38 32.569C229.09 32.181 228.412 31.987 228.025 32.278C227.444 32.666 226.864 32.957 226.186 33.054C225.605 33.151 225.412 33.733 225.412 34.121L225.508 35.285H223.766L223.863 34.121C223.863 33.539 223.572 33.054 223.088 33.054C222.411 32.957 221.927 32.666 221.249 32.278C220.668 31.987 220.184 32.181 219.894 32.569L219.216 33.539L218.055 32.375L219.023 31.696C219.41 31.405 219.604 30.726 219.313 30.338C218.926 29.756 218.636 29.174 218.539 28.495C218.442 27.913 217.861 27.719 217.474 27.719L216.312 27.816V25.973L217.474 26.07C218.055 26.07 218.539 25.779 218.539 25.294C218.636 24.615 218.926 24.13 219.313 23.451C219.604 22.869 219.41 22.384 219.023 22.093L218.055 21.414L219.216 20.25L219.894 21.22C220.184 21.608 220.862 21.802 221.249 21.511C221.83 21.123 222.411 20.832 223.088 20.735C223.669 20.638 223.863 20.056 223.863 19.668L223.766 18.504H225.508L225.412 19.668C225.412 20.25 225.702 20.735 226.186 20.735C226.864 20.832 227.348 21.123 228.025 21.511C228.606 21.802 229.09 21.608 229.38 21.22L230.058 20.25L231.22 21.414L230.252 22.19C229.864 22.481 229.671 23.16 229.961 23.548C230.348 24.13 230.639 24.712 230.736 25.391C230.832 25.973 231.413 26.167 231.8 26.167L232.962 26.07V27.816Z" fill="#2440AB"/>
<path d="M224.347 22.675C221.927 22.675 219.991 24.712 219.991 27.04C219.991 29.368 222.024 31.405 224.347 31.405C226.67 31.405 228.703 29.368 228.703 27.04C228.703 24.712 226.67 22.675 224.347 22.675ZM224.347 30.629C222.314 30.629 220.572 28.883 220.572 26.846C220.572 24.809 222.314 23.063 224.347 23.063C226.38 23.063 228.122 24.809 228.122 26.846C228.122 28.883 226.283 30.629 224.347 30.629Z" fill="#2440AB"/>
<path d="M152.23 13.557L151.166 13.654C151.069 13.654 150.875 13.654 150.875 13.557C150.778 13.169 150.585 12.781 150.294 12.393C150.294 12.296 150.294 12.102 150.294 12.102L150.972 11.52V11.423L150.004 10.259H149.907H149.81L149.23 10.938C149.23 11.035 148.939 11.035 148.939 10.938C148.552 10.647 148.165 10.55 147.778 10.356C147.681 10.356 147.487 10.259 147.681 10.065L147.778 9.09499V8.99799H147.681H146.035H145.938V9.09499L146.035 10.065C146.035 10.162 146.035 10.356 145.938 10.356C145.551 10.453 145.164 10.647 144.777 10.938C144.68 10.938 144.486 10.938 144.486 10.938L143.906 10.259H143.809H143.712L142.647 11.326V11.423V11.617L143.325 12.199C143.422 12.199 143.422 12.49 143.325 12.49C143.034 12.878 142.938 13.266 142.744 13.654C142.744 13.751 142.647 13.945 142.454 13.751L141.486 13.654H141.389V13.751V15.206V15.303H141.486L142.454 15.206C142.55 15.206 142.744 15.206 142.744 15.303C142.841 15.691 143.034 16.079 143.325 16.467C143.325 16.564 143.325 16.758 143.325 16.758L142.647 17.34V17.437V17.534L143.712 18.601H143.809H143.906L144.486 17.922C144.486 17.825 144.777 17.825 144.777 17.922C145.164 18.213 145.551 18.31 145.938 18.504C146.035 18.504 146.229 18.601 146.035 18.795L145.938 19.765V19.862H146.035H147.487H147.584V19.571L147.487 18.601C147.487 18.504 147.487 18.31 147.584 18.31C147.971 18.213 148.358 18.019 148.746 17.728C148.842 17.728 149.036 17.728 149.036 17.728L149.617 18.407H149.714H149.81L150.875 17.34V17.243V17.146L150.198 16.564C150.101 16.564 150.101 16.273 150.198 16.273C150.488 15.885 150.585 15.497 150.778 15.109C150.778 15.012 150.875 14.818 151.069 15.012L152.037 15.109H152.134V15.012L152.23 13.557C152.424 13.751 152.424 13.751 152.23 13.557ZM152.037 14.915L151.262 14.818C150.972 14.818 150.682 14.915 150.585 15.4C150.488 15.788 150.294 16.176 150.004 16.467C149.907 16.758 149.907 17.049 150.101 17.243L150.682 17.631L149.907 18.407L149.52 17.825C149.23 17.534 148.939 17.534 148.746 17.728C148.455 18.019 148.068 18.116 147.681 18.31C147.39 18.31 147.1 18.698 147.1 18.989L147.197 19.765H146.132L146.229 18.989C146.229 18.698 146.132 18.407 145.648 18.31C145.164 18.213 144.874 18.019 144.583 17.728C144.293 17.631 144.002 17.631 143.809 17.825L143.422 18.407L142.647 17.631L143.228 17.243C143.518 16.952 143.518 16.661 143.325 16.467C143.034 16.176 142.938 15.788 142.744 15.4C142.744 15.109 142.357 14.818 142.066 14.818L141.292 14.915V13.848L142.066 13.945C142.357 13.945 142.647 13.848 142.744 13.363C142.841 12.975 143.034 12.587 143.325 12.296C143.422 12.005 143.422 11.714 143.228 11.52L142.647 11.132L143.422 10.356L143.809 10.938C144.099 11.229 144.39 11.229 144.583 11.035C144.874 10.744 145.261 10.647 145.648 10.453C145.938 10.453 146.229 10.065 146.229 9.77399L146.132 9.09499H147.197L147.1 9.87099C147.1 10.162 147.197 10.453 147.681 10.55C148.068 10.647 148.455 10.841 148.746 11.132C149.036 11.229 149.326 11.229 149.52 11.035L149.907 10.453L150.682 11.229L150.101 11.617C149.81 11.908 149.81 12.199 150.004 12.393C150.294 12.684 150.391 13.072 150.585 13.46C150.585 13.751 150.972 14.042 151.262 14.042L152.037 13.945V14.915Z" fill="#DE051F"/>
<path d="M146.906 12.102C145.551 12.102 144.39 13.266 144.39 14.624C144.39 15.982 145.551 17.146 146.906 17.146C148.262 17.146 149.423 15.982 149.423 14.624C149.52 13.072 148.455 12.102 146.906 12.102ZM146.906 16.661C145.745 16.661 144.777 15.691 144.777 14.527C144.777 13.363 145.745 12.393 146.906 12.393C148.068 12.393 149.036 13.363 149.036 14.527C149.036 15.691 148.165 16.661 146.906 16.661Z" fill="#DE051F"/>
<path d="M165.105 162.743H135.097L137.613 126.562H162.685L165.105 162.743Z" fill="#0064E1"/>
<path d="M140.323 153.819C147.777 151.297 156.682 149.551 164.039 145.962L162.684 126.756H137.613L135.58 155.274C137.129 154.789 138.678 154.304 140.323 153.819Z" fill="#0064E1"/>
<path d="M168.879 156.923C168.492 156.341 167.815 155.953 167.234 155.953H150.584H149.229H132.87C132.192 155.953 131.708 156.244 131.224 156.923L126.675 163.616C125.707 164.974 126.675 166.72 128.32 166.72H149.519H150.875H172.074C173.719 166.72 174.591 164.974 173.719 163.616L168.879 156.923Z" fill="#0064B7"/>
<path d="M223.378 136.068H76.823C72.1766 136.068 68.4014 132.188 68.4014 127.629V34.703C68.4014 30.047 72.2734 26.264 76.823 26.264H223.572C228.218 26.264 231.993 30.144 231.993 34.703V127.726C231.897 132.479 228.218 136.068 223.378 136.068Z" fill="#0064B7"/>
<path d="M224.442 33.636H75.8545V127.823H224.442V33.636Z" fill="white"/>
<path d="M180.496 48.574L168.396 57.595L182.142 52.163L180.496 48.574Z" fill="#E9EEF2"/>
<path d="M200.34 79.905L182.142 85.628L200.34 84.464V79.905Z" fill="#E9EEF2"/>
<path d="M104.992 113.952L132.483 97.365L103.54 109.684L104.992 113.952Z" fill="#E9EEF2"/>
<path d="M124.352 78.062L100.249 75.346V69.914L124.352 78.062Z" fill="#E9EEF2"/>
<path d="M147.391 104.058L169.171 118.414V113.467L147.391 104.058Z" fill="#E9EEF2"/>
<path d="M119.803 76.122C119.706 76.025 119.222 76.025 119.125 76.122C119.029 76.219 119.029 76.704 119.125 76.801C120.19 77.771 121.352 78.644 122.417 79.711C122.513 79.711 122.513 79.808 122.707 79.808C122.804 79.808 122.997 79.808 122.997 79.711C123.094 79.42 123.094 79.129 122.997 79.032C121.933 78.062 120.868 77.092 119.803 76.122Z" fill="#25409C"/>
<path d="M128.999 56.431C129.096 56.431 129.386 56.334 129.386 56.14C129.483 55.849 129.386 55.558 129.096 55.558C127.644 54.976 126.289 54.491 124.837 54.103C124.546 54.103 124.256 54.103 124.256 54.394C124.256 54.685 124.256 54.976 124.546 54.976C125.901 55.364 127.353 55.946 128.709 56.431C128.805 56.431 128.999 56.431 128.999 56.431Z" fill="#25409C"/>
<path d="M113.414 70.108C113.317 70.011 112.833 70.011 112.737 70.108C112.64 70.205 112.64 70.69 112.737 70.787C113.801 71.854 114.769 72.921 115.931 73.988C116.028 74.085 116.221 74.085 116.221 74.085C116.221 74.085 116.512 74.085 116.512 73.988C116.609 73.891 116.609 73.406 116.512 73.309C115.35 72.145 114.285 71.078 113.414 70.108Z" fill="#25409C"/>
<path d="M133.354 86.986C133.064 86.889 132.774 86.889 132.677 87.083C132.58 87.277 132.58 87.665 132.774 87.762C133.935 88.538 135.194 89.508 136.355 90.284C136.355 90.284 136.452 90.284 136.646 90.284C136.742 90.284 136.936 90.284 137.033 89.993C137.13 89.702 137.13 89.411 136.936 89.314C135.774 88.732 134.613 87.762 133.354 86.986Z" fill="#25409C"/>
<path d="M126.482 81.554C126.191 81.457 125.901 81.457 125.804 81.554C125.707 81.845 125.707 82.136 125.804 82.233C126.966 83.203 128.03 83.979 129.386 84.949C129.482 84.949 129.482 85.046 129.676 85.046C129.773 85.046 129.966 85.046 130.063 84.949C130.16 84.658 130.16 84.367 129.966 84.27C128.708 83.494 127.546 82.524 126.482 81.554Z" fill="#25409C"/>
<path d="M116.221 52.842C117.577 53.133 119.029 53.424 120.481 53.812C120.481 53.812 120.481 53.812 120.577 53.812C120.868 53.812 120.965 53.715 120.965 53.521C120.965 53.23 120.868 52.939 120.674 52.939C119.222 52.551 117.577 52.26 116.318 51.969C116.028 51.969 115.737 52.066 115.737 52.357C115.834 52.551 115.931 52.842 116.221 52.842Z" fill="#25409C"/>
<path d="M199.179 105.804C199.179 105.901 199.469 106.095 199.566 106.095C199.566 106.095 199.663 106.095 199.856 106.095C200.147 105.998 200.147 105.707 200.147 105.513C199.566 104.349 198.792 102.991 197.727 101.73C197.63 101.439 197.34 101.439 197.049 101.633C196.759 101.73 196.759 102.021 196.952 102.312C197.824 103.379 198.501 104.543 199.179 105.804Z" fill="#25409C"/>
<path d="M105.186 56.528C105.186 56.237 105.186 55.849 105.283 55.558C105.379 55.267 105.186 54.976 104.895 54.976C104.605 54.976 104.315 55.073 104.315 55.364C104.315 55.655 104.218 56.043 104.218 56.431C104.218 57.498 104.508 58.662 104.992 59.923C104.992 60.02 105.283 60.214 105.379 60.214H105.476C105.767 60.117 105.767 59.826 105.767 59.632C105.379 58.274 105.186 57.304 105.186 56.528Z" fill="#25409C"/>
<path d="M111.962 51.484H111.672C109.929 51.484 108.574 51.775 107.413 52.163C107.122 52.26 107.025 52.454 107.122 52.745C107.122 52.842 107.413 53.036 107.509 53.036H107.606C108.671 52.648 110.026 52.454 111.575 52.454H111.865C112.156 52.454 112.253 52.163 112.253 52.066C112.349 51.775 112.156 51.484 111.962 51.484Z" fill="#25409C"/>
<path d="M107.897 63.512C107.8 63.221 107.509 63.221 107.219 63.415C106.929 63.512 106.929 63.803 107.122 64.094C107.897 65.161 108.865 66.325 109.833 67.683C109.929 67.78 110.123 67.78 110.123 67.78C110.22 67.78 110.413 67.78 110.413 67.683C110.704 67.586 110.704 67.295 110.413 67.004C109.542 65.743 108.768 64.579 107.897 63.512Z" fill="#25409C"/>
<path d="M183.691 112.594C182.335 112.206 180.883 111.818 179.431 111.43C179.141 111.43 178.851 111.43 178.851 111.721C178.851 112.012 178.851 112.303 179.141 112.303C180.593 112.885 182.045 113.273 183.4 113.467C183.4 113.467 183.4 113.467 183.497 113.467C183.787 113.467 183.884 113.37 183.884 113.176C184.078 112.982 183.981 112.594 183.691 112.594Z" fill="#25409C"/>
<path d="M144.293 94.164C143.131 93.388 141.776 92.515 140.517 91.739C140.227 91.642 139.937 91.739 139.84 91.836C139.743 92.127 139.84 92.418 139.937 92.515C141.098 93.291 142.453 94.164 143.712 94.94C143.712 94.94 143.809 94.94 144.002 94.94C144.099 94.94 144.293 94.94 144.389 94.649C144.583 94.552 144.39 94.164 144.293 94.164Z" fill="#25409C"/>
<path d="M192.209 114.049C190.854 113.952 189.402 113.758 187.95 113.467C187.66 113.467 187.369 113.564 187.369 113.855C187.369 114.146 187.466 114.437 187.756 114.437C189.402 114.728 190.854 115.019 192.112 115.019C192.403 115.019 192.5 114.922 192.5 114.631C192.596 114.34 192.5 114.049 192.209 114.049Z" fill="#25409C"/>
<path d="M201.114 109.684C201.114 109.393 200.824 109.296 200.533 109.296C200.243 109.296 200.146 109.587 200.146 109.878C200.146 109.975 200.146 110.169 200.146 110.169C200.146 110.945 200.049 111.624 199.565 112.206C198.985 113.273 197.823 113.855 196.081 114.243C195.79 114.243 195.693 114.534 195.693 114.825C195.693 115.116 195.984 115.213 196.081 115.213C196.081 115.213 196.081 115.213 196.177 115.213C198.017 114.825 199.469 114.049 200.146 112.788C200.533 112.109 200.824 111.333 200.824 110.363C201.114 109.878 201.114 109.684 201.114 109.684Z" fill="#25409C"/>
<path d="M191.725 94.94C191.628 94.843 191.144 94.843 191.047 94.94C190.95 95.037 190.95 95.522 191.047 95.619C192.112 96.686 193.177 97.753 194.145 98.82C194.242 98.917 194.435 98.917 194.435 98.917C194.532 98.917 194.726 98.917 194.726 98.82C194.822 98.723 195.016 98.432 194.726 98.141C193.854 97.074 192.79 96.007 191.725 94.94Z" fill="#25409C"/>
<path d="M188.337 92.515C188.434 92.515 188.627 92.515 188.627 92.418C188.724 92.321 188.724 91.836 188.627 91.739C187.563 90.769 186.498 89.702 185.336 88.829C185.239 88.732 184.755 88.732 184.659 88.829C184.562 89.12 184.562 89.411 184.659 89.508C185.82 90.575 186.885 91.545 187.95 92.418C188.047 92.515 188.24 92.515 188.337 92.515Z" fill="#25409C"/>
<path d="M151.844 98.723C150.682 97.947 149.327 97.268 147.972 96.492C147.681 96.395 147.391 96.492 147.294 96.589C147.197 96.88 147.294 97.171 147.391 97.268C148.552 98.044 149.908 98.723 151.263 99.499C151.263 99.499 151.36 99.499 151.553 99.499C151.747 99.499 151.844 99.402 151.94 99.208C152.134 99.014 152.134 98.723 151.844 98.723Z" fill="#25409C"/>
<path d="M175.462 109.878C174.107 109.296 172.655 108.811 171.3 108.229C171.009 108.132 170.719 108.229 170.719 108.52C170.622 108.811 170.719 109.102 171.009 109.102C172.365 109.684 173.817 110.169 175.172 110.751H175.269C175.365 110.751 175.656 110.654 175.656 110.46C175.849 110.169 175.753 109.878 175.462 109.878Z" fill="#25409C"/>
<path d="M159.588 102.7C158.232 102.021 157.071 101.342 155.716 100.663C155.425 100.566 155.135 100.663 155.135 100.76C155.038 101.051 155.135 101.342 155.232 101.342C156.587 102.021 157.942 102.7 159.2 103.379C159.2 103.379 159.297 103.379 159.491 103.379C159.684 103.379 159.781 103.282 159.878 103.088C159.878 103.088 159.781 102.797 159.588 102.7Z" fill="#25409C"/>
<path d="M167.331 106.483C165.976 105.901 164.621 105.319 163.362 104.64C163.072 104.543 162.781 104.64 162.781 104.931C162.685 105.222 162.781 105.513 163.072 105.513C164.427 106.192 165.782 106.677 167.041 107.356H167.137C167.234 107.356 167.428 107.259 167.525 107.065C167.718 106.774 167.621 106.58 167.331 106.483Z" fill="#25409C"/>
<path d="M123.771 115.892C122.319 116.474 120.964 116.668 119.609 117.056C119.319 117.056 119.222 117.347 119.319 117.638C119.319 117.929 119.609 117.929 119.706 117.929H119.803C121.158 117.541 122.61 117.153 123.965 116.765C124.255 116.765 124.352 116.474 124.255 116.183C124.159 115.892 124.062 115.892 123.771 115.892Z" fill="#25409C"/>
<path d="M115.641 118.026C114.189 118.317 112.737 118.608 111.381 118.705C111.091 118.705 110.994 118.996 110.994 119.287C110.994 119.578 111.285 119.675 111.381 119.675C112.737 119.578 114.189 119.384 115.641 118.996C115.931 118.996 116.028 118.705 115.931 118.414C116.221 118.22 115.931 118.026 115.641 118.026Z" fill="#25409C"/>
<path d="M139.453 109.684C138.098 110.363 136.743 110.848 135.581 111.43C135.291 111.527 135.291 111.818 135.291 112.012C135.291 112.109 135.581 112.303 135.678 112.303C135.678 112.303 135.775 112.303 135.969 112.303C137.13 111.721 138.485 111.139 139.841 110.557C140.131 110.46 140.131 110.169 140.131 109.975C140.034 109.684 139.744 109.684 139.453 109.684Z" fill="#25409C"/>
<path d="M131.806 113.079C130.451 113.661 129.096 114.146 127.837 114.534C127.547 114.631 127.547 114.825 127.547 115.116C127.547 115.213 127.837 115.407 127.934 115.407H128.031C129.386 114.825 130.741 114.34 132 113.952C132.29 113.855 132.29 113.661 132.29 113.37C132.29 113.079 132 112.982 131.806 113.079Z" fill="#25409C"/>
<path d="M177.012 62.154C178.657 61.766 179.916 61.378 181.271 61.087C181.561 61.087 181.658 60.796 181.561 60.505C181.561 60.214 181.271 60.117 180.98 60.214C179.625 60.505 178.173 60.893 176.818 61.281C176.528 61.281 176.431 61.572 176.528 61.863C176.624 61.96 176.818 61.96 177.012 62.154Z" fill="#25409C"/>
<path d="M147.1 105.804C145.938 106.483 144.583 107.162 143.325 107.841C143.034 107.938 143.034 108.229 143.034 108.423C143.034 108.52 143.325 108.714 143.421 108.714C143.421 108.714 143.518 108.714 143.712 108.714C144.873 108.035 146.229 107.55 147.584 106.677C147.874 106.58 147.874 106.289 147.681 106.095C147.584 105.804 147.39 105.804 147.1 105.804Z" fill="#25409C"/>
<path d="M114.962 96.686C114.865 96.589 114.575 96.395 114.285 96.686C113.22 97.753 112.155 98.723 111.09 99.596C110.993 99.693 110.993 99.984 111.09 100.275C111.187 100.372 111.187 100.372 111.381 100.372C111.477 100.372 111.671 100.372 111.671 100.275C112.639 99.305 113.704 98.238 114.769 97.365C115.156 97.268 115.156 96.977 114.962 96.686Z" fill="#25409C"/>
<path d="M103.831 109.393C103.54 109.296 103.25 109.393 103.25 109.49C102.475 110.945 101.895 112.4 101.798 113.661C101.798 113.952 101.895 114.243 102.185 114.243C102.475 114.243 102.572 114.146 102.572 113.855C102.669 112.788 103.25 111.43 104.024 109.975C104.121 109.684 103.927 109.49 103.831 109.393Z" fill="#25409C"/>
<path d="M107.412 118.705C105.766 118.414 104.508 118.026 103.637 117.347C103.54 117.25 103.056 117.25 103.056 117.347C102.959 117.444 102.959 117.929 103.056 117.929C104.024 118.705 105.476 119.287 107.315 119.578C107.606 119.578 107.702 119.481 107.702 119.19C107.799 118.802 107.702 118.705 107.412 118.705Z" fill="#25409C"/>
<path d="M108.381 102.603C107.316 103.767 106.348 104.834 105.573 105.901C105.477 106.192 105.477 106.483 105.67 106.483C105.67 106.483 105.767 106.58 105.961 106.58C106.057 106.58 106.251 106.58 106.348 106.483C107.122 105.416 108.09 104.349 109.155 103.185C109.252 103.088 109.252 102.797 109.155 102.506C108.768 102.409 108.477 102.409 108.381 102.603Z" fill="#25409C"/>
<path d="M168.783 92.709C167.621 93.485 166.557 94.358 165.201 95.134C164.911 95.231 164.911 95.522 165.105 95.716C165.105 95.813 165.395 96.007 165.395 96.007C165.395 96.007 165.492 96.007 165.685 96.007C166.847 95.231 168.105 94.358 169.267 93.582C169.557 93.485 169.557 93.194 169.364 93C169.364 92.515 169.073 92.515 168.783 92.709Z" fill="#25409C"/>
<path d="M189.401 59.244C188.24 59.244 186.594 59.244 185.045 59.535C184.755 59.535 184.658 59.826 184.658 60.117C184.658 60.408 184.949 60.505 185.045 60.505C186.691 60.214 187.949 60.214 189.305 60.214C189.595 60.214 189.692 60.117 189.692 59.826C189.789 59.438 189.692 59.244 189.401 59.244Z" fill="#25409C"/>
<path d="M188.337 76.5099C187.369 77.5769 186.304 78.5469 185.24 79.6139C185.143 79.7109 185.143 80.0019 185.24 80.2929C185.336 80.3899 185.53 80.3899 185.53 80.3899C185.627 80.3899 185.82 80.3899 185.82 80.2929C186.885 79.2259 187.95 78.2559 188.918 77.1889C189.015 77.0919 189.015 76.8009 188.918 76.5099C188.724 76.4129 188.531 76.4129 188.337 76.5099Z" fill="#25409C"/>
<path d="M194.048 69.72C193.758 69.623 193.467 69.72 193.467 69.817C192.79 70.884 192.015 72.048 190.951 73.309C190.854 73.406 190.854 73.891 190.951 73.891C190.951 73.891 191.047 73.988 191.241 73.988C191.435 73.988 191.531 73.988 191.628 73.891C192.693 72.727 193.467 71.466 194.145 70.302C194.339 70.108 194.242 69.914 194.048 69.72Z" fill="#25409C"/>
<path d="M195.791 61.96C195.403 61.184 194.726 60.602 193.758 60.214C193.467 60.117 193.177 60.214 193.177 60.505C193.08 60.796 193.177 61.087 193.467 61.087C194.242 61.475 194.823 62.057 195.21 62.542C195.597 63.027 195.791 63.9 195.791 64.676C195.791 65.258 195.694 65.743 195.5 66.422C195.5 66.713 195.5 67.004 195.791 67.004C195.791 67.004 195.791 67.004 195.887 67.004C196.178 67.004 196.275 66.907 196.275 66.713C196.565 66.034 196.565 65.355 196.565 64.87C196.468 63.609 196.178 62.639 195.791 61.96Z" fill="#25409C"/>
<path d="M161.911 97.365C160.749 98.141 159.491 98.82 158.329 99.596C158.039 99.693 158.039 99.984 158.233 100.178C158.233 100.275 158.523 100.469 158.62 100.469C158.717 100.469 158.717 100.469 158.91 100.469C160.072 99.693 161.427 99.014 162.492 98.238C162.782 98.141 162.782 97.85 162.589 97.656C162.298 97.365 162.008 97.365 161.911 97.365Z" fill="#25409C"/>
<path d="M182.239 82.3299C181.174 83.2999 180.109 84.1729 178.947 85.1429C178.851 85.2399 178.657 85.5309 178.947 85.7249C179.044 85.8219 179.238 85.8219 179.238 85.8219C179.335 85.8219 179.528 85.8219 179.528 85.7249C180.69 84.7549 181.755 83.8819 182.819 82.9119C182.916 82.8149 183.11 82.5239 182.819 82.3299C182.626 82.1359 182.335 82.1359 182.239 82.3299Z" fill="#25409C"/>
<path d="M154.554 101.924C153.392 102.7 152.037 103.379 150.779 104.058C150.488 104.155 150.488 104.446 150.682 104.64C150.682 104.737 150.972 104.931 151.069 104.931C151.069 104.931 151.166 104.931 151.359 104.931C152.521 104.252 153.876 103.573 155.135 102.797C155.425 102.7 155.425 102.409 155.231 102.215C155.038 101.73 154.844 101.73 154.554 101.924Z" fill="#25409C"/>
<path d="M175.753 87.762C174.688 88.538 173.526 89.508 172.268 90.284C171.977 90.381 171.977 90.672 172.171 90.866C172.268 90.963 172.461 90.963 172.461 90.963C172.558 90.963 172.752 90.963 172.752 90.866C173.913 90.09 174.978 89.12 176.237 88.344C176.527 88.247 176.527 87.956 176.237 87.762C176.14 87.665 175.849 87.665 175.753 87.762Z" fill="#25409C"/>
<path d="M209.148 91.739C214.762 91.739 219.312 87.179 219.312 81.554C219.312 75.9289 214.762 71.369 209.148 71.369C203.535 71.369 198.984 75.9289 198.984 81.554C198.984 87.179 203.535 91.739 209.148 91.739Z" fill="#E9EEF2"/>
<path d="M209.148 81.748C210.752 81.748 212.052 80.3583 212.052 78.644C212.052 76.9297 210.752 75.54 209.148 75.54C207.544 75.54 206.244 76.9297 206.244 78.644C206.244 80.3583 207.544 81.748 209.148 81.748Z" fill="#4981F4"/>
<path d="M209.245 82.0389C206.341 82.0389 203.921 84.2699 203.921 87.2769V90.5749C205.373 91.5449 207.212 92.0299 209.148 92.0299C211.181 92.0299 212.923 91.4479 214.375 90.5749V87.2769C214.182 84.4639 211.955 82.0389 209.245 82.0389Z" fill="#4981F4"/>
<path d="M95.6992 122.197C101.313 122.197 105.863 117.637 105.863 112.012C105.863 106.387 101.313 101.827 95.6992 101.827C90.0857 101.827 85.5352 106.387 85.5352 112.012C85.5352 117.637 90.0857 122.197 95.6992 122.197Z" fill="#E9EEF2"/>
<path d="M95.6989 112.206C97.3028 112.206 98.6029 110.816 98.6029 109.102C98.6029 107.388 97.3028 105.998 95.6989 105.998C94.0951 105.998 92.7949 107.388 92.7949 109.102C92.7949 110.816 94.0951 112.206 95.6989 112.206Z" fill="#25409C"/>
<path d="M95.7957 112.4C92.8917 112.4 90.4717 114.631 90.4717 117.638V120.936C91.9237 121.906 93.7629 122.391 95.6989 122.391C97.5381 122.391 99.4741 121.809 100.926 120.936V117.638C100.732 114.534 98.6029 112.4 95.7957 112.4Z" fill="#25409C"/>
<path d="M177.302 125.592C182.915 125.592 187.466 121.032 187.466 115.407C187.466 109.782 182.915 105.222 177.302 105.222C171.688 105.222 167.138 109.782 167.138 115.407C167.138 121.032 171.688 125.592 177.302 125.592Z" fill="#E9EEF2"/>
<path d="M177.301 115.504C178.905 115.504 180.205 114.114 180.205 112.4C180.205 110.686 178.905 109.296 177.301 109.296C175.698 109.296 174.397 110.686 174.397 112.4C174.397 114.114 175.698 115.504 177.301 115.504Z" fill="#DE051F"/>
<path d="M177.398 115.795C174.494 115.795 172.074 118.026 172.074 121.033V124.331C173.526 125.301 175.365 125.786 177.301 125.786C179.334 125.786 181.077 125.204 182.529 124.331V121.033C182.335 118.026 180.109 115.795 177.398 115.795Z" fill="#DE051F"/>
<path d="M188.918 56.14C194.531 56.14 199.082 51.58 199.082 45.955C199.082 40.3299 194.531 35.77 188.918 35.77C183.304 35.77 178.754 40.3299 178.754 45.955C178.754 51.58 183.304 56.14 188.918 56.14Z" fill="#E9EEF2"/>
<path d="M191.822 43.045C191.822 44.694 190.466 46.149 188.918 46.149C187.272 46.149 186.014 44.791 186.014 43.045C186.014 41.396 187.369 39.941 188.918 39.941C190.466 40.135 191.822 41.493 191.822 43.045Z" fill="#25409C"/>
<path d="M189.014 46.4399C186.11 46.4399 183.69 48.6709 183.69 51.6779V54.9759C185.142 55.9459 186.982 56.4309 188.918 56.4309C190.757 56.4309 192.693 55.8489 194.145 54.9759V51.6779C194.242 48.6709 191.822 46.4399 189.014 46.4399Z" fill="#25409C"/>
<path d="M103.056 69.623C103.056 75.249 98.5059 79.808 92.8915 79.808C87.2771 79.808 82.7275 75.249 82.7275 69.623C82.7275 63.997 87.2771 59.438 92.8915 59.438C98.5059 59.438 103.056 64.094 103.056 69.623Z" fill="#E9EEF2"/>
<path d="M95.6986 66.713C95.6986 68.362 94.3434 69.817 92.7946 69.817C91.2458 69.817 89.8906 68.459 89.8906 66.713C89.8906 65.064 91.2458 63.609 92.7946 63.609C94.4402 63.706 95.6986 65.064 95.6986 66.713Z" fill="#DE051F"/>
<path d="M92.8914 69.914C89.9874 69.914 87.5674 72.145 87.5674 75.152V78.45C89.0194 79.42 90.8586 79.905 92.7946 79.905C94.7306 79.905 96.5698 79.323 98.0218 78.45V75.152C98.1186 72.436 95.6986 69.914 92.8914 69.914Z" fill="#DE051F"/>
<path d="M139.453 43.336H137.42V41.299C137.42 41.008 137.323 40.911 137.033 40.911C136.742 40.911 136.646 41.008 136.646 41.299V43.336H134.613C134.322 43.336 134.226 43.433 134.226 43.724C134.226 44.015 134.322 44.112 134.613 44.112H136.646V46.149C136.646 46.44 136.742 46.537 137.033 46.537C137.323 46.537 137.42 46.44 137.42 46.149V44.112H139.453C139.743 44.112 139.84 44.015 139.84 43.724C139.937 43.433 139.743 43.336 139.453 43.336Z" fill="#2440AB"/>
<path d="M208.568 115.892H206.729V113.855C206.729 113.564 206.632 113.467 206.341 113.467C206.051 113.467 205.954 113.564 205.954 113.855V115.892H203.921C203.631 115.892 203.534 115.989 203.534 116.28C203.534 116.571 203.631 116.668 203.921 116.668H205.954V118.705C205.954 118.996 206.051 119.093 206.341 119.093C206.632 119.093 206.729 118.996 206.729 118.705V116.668H208.761C209.052 116.668 209.149 116.571 209.149 116.28C208.955 116.086 208.858 115.892 208.568 115.892Z" fill="#CD3B4E"/>
<path d="M91.2464 50.708H90.0848V49.447C90.0848 49.35 89.988 49.156 89.7944 49.156C89.6976 49.156 89.504 49.253 89.504 49.447V50.611H88.1488C88.052 50.611 87.8584 50.708 87.8584 50.902C87.8584 50.999 87.9552 51.193 88.1488 51.193H89.3104V52.357C89.3104 52.454 89.4072 52.648 89.6008 52.648C89.6976 52.648 89.8912 52.551 89.8912 52.357V51.193H91.0528C91.1496 51.193 91.3432 51.096 91.3432 50.902C91.5368 50.805 91.44 50.708 91.2464 50.708Z" fill="#2440AB"/>
<path d="M215.344 53.909H214.182V52.745C214.182 52.648 214.085 52.454 213.892 52.454C213.795 52.454 213.601 52.551 213.601 52.745V53.909H212.44C212.343 53.909 212.149 54.006 212.149 54.2C212.149 54.297 212.246 54.491 212.44 54.491H213.601V55.655C213.601 55.752 213.698 55.946 213.892 55.946C213.989 55.946 214.182 55.849 214.182 55.655V54.491H215.344C215.441 54.491 215.634 54.394 215.634 54.2C215.634 54.006 215.634 53.909 215.344 53.909Z" fill="#2440AB"/>
<path d="M132.967 121.033H131.805V119.869C131.805 119.772 131.708 119.578 131.515 119.578C131.418 119.578 131.224 119.675 131.224 119.869V121.033H130.063C129.966 121.033 129.772 121.13 129.772 121.324C129.772 121.421 129.869 121.615 130.063 121.615H131.224V122.779C131.224 122.876 131.321 123.07 131.515 123.07C131.612 123.07 131.805 122.973 131.805 122.779V121.615H132.967C133.064 121.615 133.257 121.518 133.257 121.324C133.064 121.033 133.064 121.033 132.967 121.033Z" fill="white"/>
<path d="M100.248 90.6719H98.4092V88.6349C98.4092 88.3439 98.3124 88.2469 98.022 88.2469C97.7316 88.2469 97.6348 88.3439 97.6348 88.6349V90.6719H95.602C95.3116 90.6719 95.2148 90.7689 95.2148 91.0599C95.2148 91.3509 95.3116 91.448 95.602 91.448H97.6348V93.4849C97.6348 93.7759 97.7316 93.873 98.022 93.873C98.3124 93.873 98.4092 93.7759 98.4092 93.4849V91.448H100.442C100.732 91.448 100.829 91.3509 100.829 91.0599C100.732 90.8659 100.442 90.6719 100.248 90.6719Z" fill="#DE051F"/>
<path d="M172.267 101.536C156.683 101.536 141.388 101.536 125.803 101.536C125.126 101.245 124.642 100.954 123.771 100.566C130.063 95.134 136.258 89.896 142.453 84.464C144.679 86.501 146.809 88.344 148.939 90.09C151.165 88.053 153.295 86.21 155.424 84.464C161.523 89.896 167.815 95.134 174.107 100.566C173.623 100.857 172.945 101.245 172.267 101.536Z" fill="#023EA1"/>
<path d="M122.706 67.198C122.803 67.198 122.996 67.295 123.093 67.295C128.804 72.533 134.806 77.48 140.517 82.621C140.614 82.621 140.614 82.718 140.808 82.912C134.806 88.15 128.708 93.194 122.706 98.432C122.706 88.053 122.706 77.577 122.706 67.198Z" fill="#023EA1"/>
<path d="M174.203 64.773C165.782 71.951 157.457 79.226 149.035 86.404C140.614 79.226 132.289 71.951 123.867 64.967C124.545 64.288 125.319 63.997 126.287 63.9C126.384 63.9 126.578 63.9 126.868 63.9C141.775 63.9 156.586 63.9 171.493 63.9C172.558 63.706 173.429 63.997 174.203 64.773Z" fill="#023EA1"/>
<path d="M175.462 67.004C175.462 77.383 175.462 87.859 175.462 98.238C169.46 93 163.362 87.956 157.36 82.718C163.362 77.577 169.364 72.436 175.462 67.004Z" fill="#023EA1"/>
<path d="M44.0078 90.672L48.3638 161.482H54.6558C54.6558 161.482 56.1078 139.851 56.495 133.546C56.8822 127.144 59.4958 91.06 59.4958 91.06L44.0078 90.672Z" fill="#DE051F"/>
<path d="M52.0419 90.478C52.5259 100.081 49.5251 116.959 45.7499 128.405C41.9747 139.851 31.2299 158.96 31.2299 158.96L26.1963 156.05C26.1963 156.05 29.1971 148.387 31.2299 141.306C33.2627 134.322 36.8443 118.511 36.5539 113.952C36.1667 109.199 35.4891 91.157 35.4891 91.157L52.0419 90.478Z" fill="#EE384E"/>
<path d="M58.4307 69.235L58.7211 70.787C58.7211 70.787 63.4643 75.831 65.4003 77.771C67.5299 79.808 70.7243 77.868 70.7243 77.868C70.7243 77.868 80.0171 72.727 81.2755 71.757C82.5339 70.787 83.3083 70.884 83.3083 70.884C83.3083 70.884 84.2763 70.884 85.2443 70.884C86.2123 70.884 85.9219 70.205 85.9219 70.205C85.9219 70.205 85.9219 68.071 85.9219 66.713C85.9219 65.452 84.6635 65.452 84.6635 65.452L82.6307 65.355C82.6307 65.355 82.7275 64.094 82.5339 63.706C82.2435 63.221 81.9531 63.124 81.4691 63.124C80.9851 63.124 81.1787 63.609 81.1787 63.609C81.1787 63.609 81.1787 63.9 81.4691 64.579C81.5659 65.258 81.3723 65.258 81.0819 65.549C80.7915 65.84 80.6947 66.034 80.4043 67.101C80.0171 68.168 78.7587 68.75 78.7587 68.75C78.7587 68.75 69.5627 72.145 68.5947 72.339C67.6267 72.63 67.3363 72.048 67.3363 72.048L62.5931 65.549L58.4307 69.235Z" fill="#FFBE9B"/>
<path d="M50.7837 49.253C50.7837 49.253 50.7837 49.253 50.7837 52.745C50.7837 56.237 53.9781 58.759 53.9781 58.759C53.9781 58.759 53.9781 60.99 50.4933 61.669C47.0085 62.348 43.3301 58.08 43.3301 58.08C43.3301 58.08 43.8141 56.819 44.9757 54.006C46.0405 50.999 46.6213 48.283 46.6213 48.283L50.7837 49.253Z" fill="#FFBE9B"/>
<path d="M55.1395 66.422L58.5275 70.302L63.2707 65.549C63.2707 65.549 59.7859 61.475 58.5275 60.505C57.2691 59.535 54.4619 57.886 54.4619 57.886L55.1395 66.422Z" fill="#0054A3"/>
<path d="M43.3305 56.528C43.3305 56.528 42.6529 57.207 40.1361 60.408C37.6193 63.803 35.1025 79.614 35.1025 79.614L35.3929 91.642H59.2057C59.2057 91.642 59.4961 83.397 59.2057 75.734C58.9153 68.071 58.6249 64.676 57.3665 62.348C56.1081 60.02 54.8497 58.468 54.1721 57.789C53.4945 57.207 52.9137 57.692 52.9137 57.692L52.3329 58.565C52.3329 58.565 51.2681 60.408 48.8481 59.826C46.4281 59.341 44.7825 56.916 44.7825 56.916C44.0081 55.849 43.3305 56.528 43.3305 56.528Z" fill="#0064E1"/>
<path d="M51.2681 40.523C48.8481 40.523 46.1377 45.664 46.1377 47.895C46.1377 50.126 47.2025 50.126 47.7833 51.387C48.3641 52.648 51.8489 53.812 53.4945 53.812C55.1401 53.812 55.9145 50.902 55.9145 47.022C55.9145 43.142 54.1721 40.62 54.1721 40.62C54.1721 40.62 53.3977 40.523 51.2681 40.523Z" fill="#FFBE9B"/>
<path d="M52.2361 41.784C50.0097 42.269 49.8161 42.269 48.7513 43.433C47.6865 44.694 47.1057 47.507 47.1057 47.507C47.1057 47.507 46.7185 49.156 46.5249 49.835C46.1377 50.708 45.9441 51.678 45.9441 52.26C45.8473 52.842 45.3633 52.842 44.6857 52.842C44.2017 52.842 43.0401 52.26 41.7817 49.932C40.5233 47.507 40.9105 45.179 41.2009 44.791C41.7817 43.53 41.7817 41.299 41.7817 40.717C41.7817 40.038 41.7817 39.456 43.0401 38.292C44.1049 37.031 49.8161 37.031 49.8161 37.031C50.4937 37.031 51.6553 37.031 52.2361 36.449C52.8169 35.867 55.2369 34.606 56.3017 35.188C57.3665 35.77 55.8177 40.329 55.8177 40.329C55.2369 42.269 54.5593 41.202 52.2361 41.784Z" fill="#1A1155"/>
<path d="M46.041 46.343C46.041 48.186 47.6866 47.604 47.6866 47.604C47.6866 47.604 48.7514 45.761 47.977 44.791C47.2026 43.724 46.041 44.694 46.041 46.343Z" fill="#FFBE9B"/>
<path d="M44.0079 70.884C44.0079 70.884 42.0719 72.824 40.6199 78.644C39.0711 84.464 40.3295 92.321 41.4911 96.201C42.7495 100.081 44.1047 102.215 45.3631 103.476C46.6215 104.737 45.3631 104.737 44.1047 103.961C42.8463 103.088 43.7175 104.64 43.7175 104.64C43.7175 104.64 45.2663 105.61 46.2343 106.58C47.1055 107.55 45.8471 107.55 45.8471 107.55C46.2343 108.132 45.2663 108.132 45.2663 108.132C45.5567 109.393 44.0079 108.714 44.0079 108.714C44.0079 108.714 43.0399 108.132 41.8783 106.871C40.6199 105.61 39.7487 103.379 39.7487 101.439C39.6519 99.402 39.0711 98.529 37.8127 95.619C36.5543 92.418 35.0055 87.956 34.7151 82.621C34.3279 77.48 36.5543 69.138 36.5543 69.138L44.0079 70.884Z" fill="#FFBE9B"/>
<path d="M26.2935 155.662C26.2935 155.662 24.7447 157.893 24.1639 159.057C23.5831 160.124 24.8415 160.9 24.8415 160.9C24.8415 160.9 34.0375 167.011 35.6831 167.69C37.3287 168.369 35.9735 166.041 35.9735 166.041C35.9735 166.041 34.9087 164.974 33.7471 163.422C32.4887 161.87 31.3271 158.669 31.3271 158.669L26.2935 155.662Z" fill="#1A1155"/>
<path d="M48.2666 160.9H54.6554C54.6554 161.967 55.1394 162.161 55.1394 162.161C55.1394 162.161 60.7538 164.683 62.6898 165.653C64.6258 166.526 62.593 166.914 62.593 166.914C62.593 166.914 51.945 166.914 50.1058 166.914C48.073 166.914 48.4602 165.944 48.4602 165.944L48.2666 160.9Z" fill="#1A1155"/>
<path d="M43.7174 71.854C42.1686 71.854 36.167 69.332 36.167 69.332C36.167 69.332 36.651 67.489 37.619 64.967C38.587 62.445 40.4262 58.856 43.1366 59.244C45.847 59.632 45.5566 63.609 45.5566 63.609C45.0726 67.683 43.8142 71.66 43.7174 71.854Z" fill="#0054A3"/>
</g>
<defs>
<clipPath id="clip0_1409_4158">
<rect width="270" height="186" fill="white"/>
</clipPath>
</defs>
</svg>
