<svg width="270" height="186" viewBox="0 0 270 186" fill="none" xmlns="http://www.w3.org/2000/svg">
<path d="M241.948 161.341H27.4609V161.432H241.948V161.341Z" fill="#EBEBEB"/>
<path d="M231.392 169.076H215.376V169.167H231.392V169.076Z" fill="#EBEBEB"/>
<path d="M173.971 170.441H169.785V170.532H173.971V170.441Z" fill="#EBEBEB"/>
<path d="M215.012 164.617H205.639V164.708H215.012V164.617Z" fill="#EBEBEB"/>
<path d="M60.1302 165.527H39.2002V165.618H60.1302V165.527Z" fill="#EBEBEB"/>
<path d="M67.4102 165.527H64.4072V165.618H67.4102V165.527Z" fill="#EBEBEB"/>
<path d="M122.738 167.438H77.3291V167.529H122.738V167.438Z" fill="#EBEBEB"/>
<path d="M128.38 139.683H35.1052C33.4672 139.683 32.2842 138.5 32.2842 136.862V5.73097C32.2842 4.09297 33.4672 2.90997 35.1052 2.90997H128.562C130.2 2.90997 131.383 4.09297 131.383 5.73097V137.044C131.201 138.5 130.018 139.683 128.38 139.683ZM35.1052 3.00097C33.5582 3.00097 32.4662 4.18397 32.4662 5.63997V136.953C32.4662 138.409 33.6492 139.592 35.1052 139.592H128.562C130.109 139.592 131.201 138.409 131.201 136.953V5.73097C131.201 4.27497 130.018 3.09197 128.562 3.09197C128.38 3.00097 35.1052 3.00097 35.1052 3.00097Z" fill="#EBEBEB"/>
<path d="M233.121 139.683H139.664C138.026 139.683 136.843 138.5 136.843 136.862V5.73097C136.843 4.09297 138.026 2.90997 139.664 2.90997H233.121C234.759 2.90997 235.942 4.09297 235.942 5.73097V137.044C235.851 138.5 234.577 139.683 233.121 139.683ZM139.664 3.00097C138.117 3.00097 137.025 4.18397 137.025 5.63997V136.953C137.025 138.409 138.208 139.592 139.664 139.592H233.121C234.577 139.592 235.76 138.409 235.76 136.953V5.73097C235.76 4.27497 234.577 3.09197 233.121 3.09197H139.664V3.00097Z" fill="#EBEBEB"/>
<path d="M212.554 19.199H100.442V93.728H212.554V19.199Z" fill="#E6E6E6"/>
<path d="M210.826 19.199H98.7139V93.728H210.826V19.199Z" fill="#F5F5F5"/>
<path d="M207.641 22.657H101.808V90.088H207.641V22.657Z" fill="white"/>
<path d="M103.082 22.657H101.808V90.088H103.082V22.657Z" fill="#E6E6E6"/>
<path d="M209.461 69.158H99.9883V73.89H209.461V69.158Z" fill="#F5F5F5"/>
<g opacity="0.4">
<path d="M105.721 15.468H95.165V78.531H105.721V15.468Z" fill="#E6E6E6"/>
<path d="M111 15.468H105.812V73.344H111V15.468Z" fill="#F5F5F5"/>
<path d="M121.646 15.468H111.09V78.531H121.646V15.468Z" fill="#E6E6E6"/>
<path d="M126.833 15.468H121.646V73.344H126.833V15.468Z" fill="#F5F5F5"/>
<path d="M137.48 15.468H126.924V78.531H137.48V15.468Z" fill="#E6E6E6"/>
<path d="M142.758 15.468H137.571V73.344H142.758V15.468Z" fill="#F5F5F5"/>
<path d="M153.223 15.468H142.667V78.531H153.223V15.468Z" fill="#E6E6E6"/>
<path d="M158.592 15.468H153.405V73.344H158.592V15.468Z" fill="#F5F5F5"/>
<path d="M169.148 15.468H158.592V78.531H169.148V15.468Z" fill="#E6E6E6"/>
<path d="M174.335 15.468H169.148V73.344H174.335V15.468Z" fill="#F5F5F5"/>
<path d="M184.982 15.468H174.426V78.531H184.982V15.468Z" fill="#E6E6E6"/>
<path d="M190.26 15.468H185.073V73.344H190.26V15.468Z" fill="#F5F5F5"/>
<path d="M200.907 15.468H190.351V78.531H200.907V15.468Z" fill="#E6E6E6"/>
<path d="M206.094 15.468H200.907V73.344H206.094V15.468Z" fill="#F5F5F5"/>
<path d="M216.65 15.468H206.094V78.531H216.65V15.468Z" fill="#E6E6E6"/>
</g>
<path d="M78.6026 110.29H53.8506V161.341H78.6026V110.29Z" fill="#EBEBEB"/>
<path d="M58.5826 161.341H53.8506V150.876H63.4966L58.5826 161.341Z" fill="#F5F5F5"/>
<path d="M220.198 110.29H195.446V161.341H220.198V110.29Z" fill="#EBEBEB"/>
<path d="M199.633 110.29H53.8506V154.88H199.633V110.29Z" fill="#F5F5F5"/>
<path d="M194.719 142.322H151.494C151.312 142.322 151.13 142.231 151.13 141.958V113.748C151.13 113.566 151.221 113.384 151.494 113.384H159.411C159.502 113.384 159.502 113.384 159.593 113.475C160.685 114.294 162.05 115.113 163.415 115.477C165.144 116.114 166.873 116.296 168.602 116.296H177.156C180.614 116.296 183.799 115.295 186.256 113.475C186.347 113.475 186.347 113.384 186.438 113.384H194.355C194.537 113.384 194.719 113.475 194.719 113.748V141.958C195.174 142.14 194.81 142.322 194.719 142.322ZM151.949 141.503H194.446V114.021H186.984C184.436 115.932 181.069 116.933 177.52 116.933H168.966C167.055 116.933 165.235 116.751 163.506 116.114C161.959 115.568 160.685 114.931 159.502 114.112H152.04V141.503H151.949Z" fill="#E6E6E6"/>
<path d="M148.218 142.322H105.175C104.993 142.322 104.811 142.231 104.811 141.958V113.748C104.811 113.566 104.902 113.384 105.175 113.384H112.637C112.728 113.384 112.728 113.384 112.819 113.475C114.002 114.294 115.276 115.113 116.641 115.477C118.37 116.114 120.099 116.296 121.828 116.296H130.382C133.84 116.296 137.025 115.295 139.482 113.475C139.573 113.475 139.573 113.384 139.664 113.384H148.127C148.309 113.384 148.491 113.475 148.491 113.748V141.958C148.673 142.14 148.582 142.322 148.218 142.322ZM105.448 141.503H147.945V114.021H140.119C137.571 115.932 134.204 116.933 130.655 116.933H122.101C120.19 116.933 118.37 116.751 116.641 116.114C115.094 115.568 113.82 114.931 112.637 114.112H105.63L105.448 141.503Z" fill="#E6E6E6"/>
<path d="M101.808 142.322H58.6736C58.4916 142.322 58.3096 142.231 58.3096 141.958V113.748C58.3096 113.566 58.4006 113.384 58.6736 113.384H66.1356C66.2266 113.384 66.2266 113.384 66.3176 113.475C67.4096 114.294 68.7746 115.113 70.1396 115.477C71.8686 116.114 73.5976 116.296 75.3266 116.296H83.8806C87.3386 116.296 90.5236 115.295 92.9806 113.475C93.0716 113.475 93.0716 113.384 93.1626 113.384H101.626C101.808 113.384 101.99 113.475 101.99 113.748V141.958C102.354 142.14 102.172 142.322 101.808 142.322ZM59.0376 141.503H101.535V114.021H93.7086C91.1606 115.932 87.7936 116.933 84.2446 116.933H75.6906C73.7796 116.933 71.9596 116.751 70.2306 116.114C68.6836 115.568 67.4096 114.931 66.2266 114.112H59.2196V141.594H59.0376V141.503Z" fill="#E6E6E6"/>
<path d="M194.809 161.341H199.541V150.876H189.896L194.809 161.341Z" fill="#F5F5F5"/>
<path d="M83.5168 101.645H79.6948C79.6948 99.0059 79.6948 92.0899 79.5128 76.2559C78.8758 47.8639 77.9658 46.0439 77.9658 46.0439L82.6068 60.2399C83.6988 63.4249 84.3358 66.9739 84.5178 70.5229C84.8818 81.4429 82.9708 90.1789 83.5168 101.645Z" fill="#E6E6E6"/>
<path d="M86.338 55.963C91.525 48.137 101.899 43.951 112.637 39.947C116.823 38.309 105.175 57.328 96.53 65.882C89.978 72.525 83.517 72.343 81.606 78.986C81.333 71.433 81.879 62.788 86.338 55.963Z" fill="#E6E6E6"/>
<path d="M80.514 50.958C76.328 41.767 66.045 29.755 54.488 21.292C49.847 18.107 61.131 46.499 69.048 58.056C75.236 67.156 81.06 72.616 81.879 79.077C85.701 70.978 84.518 60.058 80.514 50.958Z" fill="#E6E6E6"/>
<path d="M80.7872 110.29C85.4282 110.29 89.1592 106.65 89.4322 102.009L90.1602 94.183H71.3232L72.0512 102.009C72.4152 106.65 76.2372 110.29 80.7872 110.29Z" fill="#F0F0F0"/>
<path d="M70.1399 94.274H91.4339L92.0709 91.453H69.5029L70.1399 94.274Z" fill="#F0F0F0"/>
<path d="M71.2317 99.0059H90.3417L90.9787 96.1849H70.5947L71.2317 99.0059Z" fill="#F0F0F0"/>
<path d="M134.75 183.09C186.566 183.09 228.571 180.645 228.571 177.63C228.571 174.614 186.566 172.17 134.75 172.17C82.9338 172.17 40.9287 174.614 40.9287 177.63C40.9287 180.645 82.9338 183.09 134.75 183.09Z" fill="#F5F5F5"/>
<path d="M209.916 130.219H59.6748V147.236H209.916V130.219Z" fill="#0054A3"/>
<path d="M209.825 130.219H177.611V147.236H209.825V130.219Z" fill="#3867B1"/>
<path d="M76.2368 147.236H59.6748V177.63H76.2368V147.236Z" fill="#3867B1"/>
<path d="M59.6748 147.236V148.965L71.3228 152.514V177.63H76.2368V147.236H59.6748Z" fill="#24499F"/>
<path d="M209.825 147.236H193.354V177.63H209.825V147.236Z" fill="#3867B1"/>
<path opacity="0.2" d="M209.825 147.236H193.354V177.63H209.825V147.236Z" fill="#3867B1"/>
<path d="M193.354 147.236V148.965L205.002 152.514V177.63H209.825V147.236H193.354Z" fill="#24499F"/>
<path d="M177.702 147.236H161.14V177.63H177.702V147.236Z" fill="#3867B1"/>
<path d="M161.14 147.236V148.965L172.788 152.514V177.63H177.611V147.236H161.14Z" fill="#24499F"/>
<path d="M108.451 147.236H91.8887V177.63H108.451V147.236Z" fill="#3867B1"/>
<path opacity="0.2" d="M108.451 147.236H91.8887V177.63H108.451V147.236Z" fill="#3867B1"/>
<path d="M91.8887 147.236V148.965L103.537 152.514V177.63H108.36V147.236H91.8887Z" fill="#24499F"/>
<path d="M189.168 127.034H97.2579C96.0749 127.034 95.0739 126.033 95.2559 124.85L98.9869 64.881C99.0779 63.698 100.079 62.697 101.444 62.697H193.263C194.446 62.697 195.447 63.698 195.265 64.881L191.534 124.85C191.443 125.942 190.442 127.034 189.168 127.034Z" fill="#263238"/>
<path opacity="0.6" d="M189.168 127.034H97.2579C96.0749 127.034 95.0739 126.033 95.2559 124.85L98.9869 64.881C99.0779 63.698 100.079 62.697 101.444 62.697H193.263C194.446 62.697 195.447 63.698 195.265 64.881L191.534 124.85C191.443 125.942 190.442 127.034 189.168 127.034Z" fill="black"/>
<path d="M188.44 127.034H96.712C95.529 127.034 94.528 126.033 94.71 124.85L98.35 64.881C98.441 63.698 99.442 62.697 100.807 62.697H192.626C193.809 62.697 194.81 63.698 194.628 64.881L190.897 124.85C190.715 125.942 189.623 127.034 188.44 127.034Z" fill="#0064B7"/>
<path d="M188.349 127.762H79.0583C77.9662 127.762 77.1472 128.399 76.6012 129.218C76.4192 129.764 76.6923 130.31 77.3293 130.31H190.078C190.715 130.31 191.079 129.673 190.806 129.218C190.442 128.308 189.441 127.762 188.349 127.762Z" fill="#00456B"/>
<path d="M188.35 127.762H172.789C171.697 127.762 170.878 128.399 170.332 129.218C170.15 129.764 170.423 130.31 171.06 130.31H190.079C190.716 130.31 191.08 129.673 190.807 129.218C190.443 128.308 189.442 127.762 188.35 127.762Z" fill="#00456B"/>
<path opacity="0.7" d="M178.703 129.673H174.608C174.426 129.673 174.244 129.582 174.244 129.309C174.244 129.127 174.335 128.945 174.608 128.945H178.612C178.794 128.945 178.976 129.036 178.976 129.309C179.067 129.4 178.976 129.673 178.703 129.673Z" fill="white"/>
<path opacity="0.7" d="M127.106 129.673H123.102C122.92 129.673 122.738 129.582 122.738 129.309C122.738 129.127 122.829 128.945 123.102 128.945H127.106C127.288 128.945 127.47 129.036 127.47 129.309C127.47 129.4 127.288 129.673 127.106 129.673Z" fill="white"/>
<path opacity="0.7" d="M182.799 129.673H180.251C180.069 129.673 179.887 129.582 179.887 129.309C179.887 129.127 179.978 128.945 180.251 128.945H182.799C182.981 128.945 183.163 129.036 183.163 129.309C183.163 129.4 182.981 129.673 182.799 129.673Z" fill="white"/>
<path d="M96.7119 122.484L100.261 66.792C100.261 66.246 100.807 65.973 101.262 65.973H191.989C192.535 65.973 192.808 66.337 192.808 66.792L189.259 122.484C189.259 123.03 188.713 123.303 188.258 123.303H97.5309C96.8939 123.394 96.5299 123.03 96.7119 122.484Z" fill="white"/>
<path opacity="0.4" d="M147.218 64.335C147.218 64.699 146.854 64.972 146.49 64.972C146.126 64.972 145.853 64.79 145.853 64.335C145.853 63.971 146.217 63.698 146.581 63.698C146.854 63.698 147.218 63.971 147.218 64.335Z" fill="white"/>
<path d="M132.202 51.049C129.563 54.052 128.016 63.425 130.018 67.975C131.929 72.616 109.179 77.1659 128.016 84.5369C146.853 91.9079 161.777 83.3539 156.317 75.71C150.857 67.975 156.954 55.235 150.675 52.05C144.942 48.774 137.389 44.861 132.202 51.049Z" fill="#170856"/>
<path d="M126.469 88.359C125.468 91.817 124.467 95.093 123.375 98.551C122.283 102.009 121.191 105.285 119.917 108.652L119.371 109.835L119.189 110.472L119.098 110.654L119.007 110.836C118.916 111.018 118.825 111.2 118.825 111.473C118.461 112.201 117.642 113.111 116.823 113.475C116.004 114.021 115.003 114.112 114.275 114.203C112.637 114.203 111.636 113.839 110.635 113.475C109.634 113.111 108.724 112.656 107.814 112.201C104.356 110.199 101.808 107.833 99.1689 105.194L101.171 102.737C101.899 103.283 102.718 103.738 103.355 104.011C104.083 104.557 104.902 104.83 105.539 105.285C107.086 106.104 108.542 107.014 109.998 107.56C110.726 107.924 111.545 108.197 112.182 108.288C112.819 108.47 113.456 108.47 113.82 108.47C113.911 108.47 113.911 108.379 113.82 108.47C113.729 108.47 113.638 108.561 113.638 108.561V108.47L113.82 107.833L114.184 106.65L117.096 96.458C118.097 93 119.098 89.724 120.19 86.266L126.469 88.359Z" fill="#FBBE99"/>
<path d="M101.08 102.646L95.5293 100.644L97.7133 106.559C97.7133 106.559 101.717 107.196 103.173 104.921L101.99 103.192C101.808 103.101 101.535 102.737 101.08 102.646Z" fill="#FBBE99"/>
<path d="M90.5244 102.373L92.7994 107.287L97.8954 106.468L95.6204 100.644L90.5244 102.373Z" fill="#FBBE99"/>
<path d="M122.375 79.6229C119.827 80.1689 118.007 90.9069 118.007 90.9069L125.196 95.7299C125.196 95.7299 131.93 85.0829 130.019 82.2619C128.017 79.1679 126.197 78.6219 122.375 79.6229Z" fill="#F59F1D"/>
<path opacity="0.5" d="M122.375 79.6229C119.827 80.1689 118.007 90.9069 118.007 90.9069L125.196 95.7299C125.196 95.7299 131.93 85.0829 130.019 82.2619C128.017 79.1679 126.197 78.6219 122.375 79.6229Z" fill="#F59F1D"/>
<path opacity="0.2" d="M122.192 83.4449L127.743 84.7189L128.289 90.088C126.742 93.091 125.286 95.639 125.286 95.639L120.827 92.7269C121.1 90.1789 121.555 85.1739 122.192 83.4449Z" fill="black"/>
<path d="M122.375 79.623C122.375 79.623 119.372 80.715 125.378 117.297C135.479 117.297 145.853 117.297 150.676 117.297C150.13 107.014 150.13 100.553 155.135 79.441C155.135 79.441 149.766 78.258 144.397 77.894C140.211 77.712 136.662 77.53 132.931 77.894C128.108 78.531 122.375 79.623 122.375 79.623Z" fill="#FCBE42"/>
<path opacity="0.5" d="M122.375 79.623C122.375 79.623 119.372 80.715 125.378 117.297C135.479 117.297 145.853 117.297 150.676 117.297C150.13 107.014 150.13 100.553 155.135 79.441C155.135 79.441 149.766 78.258 144.397 77.894C140.211 77.712 136.662 77.53 132.931 77.894C128.108 78.531 122.375 79.623 122.375 79.623Z" fill="#FCBE42"/>
<path opacity="0.2" d="M149.22 89.2689L152.405 92.0899C151.677 95.8209 151.222 98.8239 150.949 101.645C150.494 98.8239 148.947 91.2709 149.22 89.2689Z" fill="black"/>
<path d="M143.304 64.972C142.576 68.703 141.757 75.528 144.396 77.985C144.396 77.985 141.939 83.536 135.569 83.536C129.108 83.536 132.93 77.985 132.93 77.985C137.025 76.984 136.934 73.981 136.115 71.16L143.304 64.972Z" fill="#FBBE99"/>
<path d="M143.669 76.711C143.032 77.894 141.121 80.806 135.479 81.716C135.388 81.716 135.115 81.716 134.933 81.625C133.841 80.897 133.204 79.441 133.75 77.621C133.841 77.075 133.386 76.62 132.931 76.893C132.294 77.075 131.93 77.439 131.748 77.53C131.657 77.53 131.657 77.621 131.566 77.712C131.202 78.44 129.564 82.171 134.478 84.446C134.569 84.446 134.569 84.446 134.66 84.446C137.572 84.446 142.577 83.9 145.853 78.076C145.944 77.894 145.944 77.53 145.853 77.348C145.489 76.802 144.852 76.529 144.397 76.165C144.215 76.165 143.851 76.256 143.669 76.711Z" fill="#FAFAFA"/>
<path d="M145.034 91.817L138.482 91.635C138.3 91.635 137.936 91.453 137.936 91.089L138.027 90.27C138.027 90.088 138.209 89.724 138.664 89.724L145.216 89.906C145.398 89.906 145.762 90.088 145.762 90.452L145.671 91.271C145.489 91.726 145.307 91.908 145.034 91.817Z" fill="#FAFAFA"/>
<path opacity="0.2" d="M140.392 67.429L136.206 70.978C136.297 71.706 136.57 72.252 136.57 72.98C138.208 72.798 140.301 71.069 140.392 69.34C140.665 68.612 140.574 67.793 140.392 67.429Z" fill="black"/>
<path d="M148.128 58.0559C146.945 64.0619 146.49 66.7009 143.123 69.4309C137.754 73.5259 130.656 70.7049 129.928 64.5169C129.291 58.8749 131.475 49.9569 137.663 48.2279C143.942 46.5899 149.311 52.0499 148.128 58.0559Z" fill="#FBBE99"/>
<path d="M144.851 53.506C144.123 57.237 143.85 62.333 147.399 62.333C150.948 62.333 153.587 56.418 150.584 51.686C147.581 47.227 145.306 51.322 144.851 53.506Z" fill="#170856"/>
<path d="M150.858 54.052C150.858 58.147 145.671 56.054 143.396 54.416C141.121 52.596 140.939 52.778 136.753 52.778C132.567 52.778 131.748 52.596 130.292 50.503C128.927 48.501 129.109 47.045 132.021 47.591C134.933 48.137 132.567 45.134 134.569 43.496C136.753 41.858 139.21 42.313 142.031 45.953C144.943 49.593 150.858 46.772 150.858 54.052Z" fill="#170856"/>
<path d="M149.2 63.2638C149.752 61.3829 149.221 59.5716 148.016 59.2182C146.81 58.8648 145.386 60.103 144.834 61.9839C144.283 63.8647 144.813 65.676 146.019 66.0294C147.225 66.3829 148.649 65.1446 149.2 63.2638Z" fill="white"/>
<path d="M139.574 68.1569C138.482 68.1569 137.39 67.975 136.389 67.429C136.298 67.429 136.298 67.3379 136.298 67.2469C136.298 67.1559 136.389 67.156 136.48 67.156C138.391 67.975 140.666 67.975 142.668 67.156C144.579 66.337 146.217 64.881 146.854 62.97C148.401 58.8749 149.766 53.5969 148.037 50.4119C147.309 49.2289 146.217 48.4099 144.579 47.8639C144.488 47.8639 144.488 47.7729 144.488 47.6819C144.488 47.5909 144.579 47.5909 144.67 47.5909C146.399 48.1369 147.582 48.8649 148.219 50.2299C150.039 53.6879 148.401 58.7839 147.036 63.0609C146.217 65.0629 144.579 66.701 142.577 67.52C141.758 67.975 140.666 68.1569 139.574 68.1569Z" fill="white"/>
<path d="M149.128 63.5159C148.582 65.0629 147.581 65.9729 146.944 65.7909C146.125 65.6089 145.852 64.153 146.307 62.7879C146.853 61.2409 147.763 60.3309 148.491 60.5129C149.219 60.6039 149.583 61.9689 149.128 63.5159Z" fill="#24499F"/>
<path d="M136.57 67.975L134.75 67.611C134.386 67.52 134.113 67.247 134.204 66.883C134.295 66.519 134.568 66.246 134.932 66.337L136.752 66.701C137.116 66.792 137.389 67.065 137.298 67.429C137.298 67.793 136.934 68.157 136.57 67.975Z" fill="white"/>
<path d="M124.468 123.394C124.468 123.394 124.377 119.845 125.469 117.206C127.653 117.206 150.767 117.206 150.767 117.206C150.767 117.206 153.042 120.846 153.679 123.394C150.858 123.394 124.468 123.394 124.468 123.394Z" fill="#DE051F"/>
<path d="M151.131 115.75L151.313 118.025C151.404 118.116 151.222 118.389 150.949 118.389H125.196C125.014 118.389 124.832 118.298 124.65 118.207L124.468 115.932C124.468 115.841 124.65 115.75 125.014 115.75H150.676C150.949 115.659 151.04 115.659 151.131 115.75Z" fill="#407BFF"/>
<path d="M151.131 115.75L151.313 118.025C151.404 118.116 151.222 118.389 150.949 118.389H125.196C125.014 118.389 124.832 118.298 124.65 118.207L124.468 115.932C124.468 115.841 124.65 115.75 125.014 115.75H150.676C150.949 115.659 151.04 115.659 151.131 115.75Z" fill="#EE384E"/>
<path d="M147.764 118.662H148.492C148.583 118.662 148.674 118.571 148.674 118.571L148.31 115.659C148.31 115.568 148.219 115.568 148.128 115.568H147.4C147.309 115.568 147.218 115.659 147.218 115.659L147.582 118.571C147.4 118.571 147.582 118.662 147.764 118.662Z" fill="#24499F"/>
<path d="M127.288 118.662H128.016C128.107 118.662 128.198 118.571 128.198 118.571L127.834 115.659C127.834 115.568 127.743 115.568 127.652 115.568H126.924C126.833 115.568 126.742 115.659 126.742 115.659L127.106 118.571C127.015 118.571 127.106 118.662 127.288 118.662Z" fill="#24499F"/>
<path d="M137.39 118.662H138.118C138.209 118.662 138.3 118.571 138.3 118.571L137.936 115.659C137.936 115.568 137.845 115.568 137.754 115.568H137.117C137.026 115.568 136.935 115.659 136.935 115.659L137.39 118.662C137.299 118.662 137.208 118.571 137.39 118.662Z" fill="#24499F"/>
<path d="M157.409 86.5389C158.501 90.1789 159.593 93.8189 160.594 97.3679L162.232 102.828L162.96 105.467L163.142 106.195L163.233 106.559V106.65L163.142 106.559C163.051 106.468 163.051 106.377 162.596 106.013C162.414 105.831 161.777 105.467 161.322 105.467C160.867 105.467 160.503 105.558 160.321 105.649C159.957 105.831 159.957 105.831 160.139 105.831C160.139 105.831 160.23 105.74 160.321 105.649C160.503 105.467 160.685 105.012 160.958 104.83C161.504 104.102 161.777 103.283 162.141 102.555C162.96 100.917 163.779 99.3699 164.416 97.6409C165.144 95.9119 165.872 94.0919 166.6 92.4539C167.328 90.7249 168.056 88.9049 168.784 87.2669L171.878 88.2679C171.059 91.9989 170.149 95.7299 168.966 99.4609C168.329 101.281 167.783 103.101 167.055 105.012C166.691 106.013 166.327 106.832 165.781 107.833C165.599 108.379 165.235 108.834 164.962 109.38C164.78 109.562 164.598 110.017 164.234 110.199C164.052 110.563 163.597 110.927 162.778 111.291C162.414 111.473 161.777 111.655 161.049 111.655C160.321 111.655 159.593 111.291 159.138 110.927C158.592 110.563 158.41 110.199 158.137 109.926C157.955 109.744 157.773 109.38 157.773 109.198C157.773 109.107 157.682 109.016 157.682 108.834L157.591 108.652L157.5 108.288L157.318 107.56C156.954 106.559 156.681 105.74 156.317 104.921C155.68 103.101 155.134 101.281 154.497 99.4609C153.314 95.8209 152.222 92.1809 151.312 88.6319L157.409 86.5389Z" fill="#FBBE99"/>
<path d="M155.316 79.5319C157.864 80.2599 161.777 90.2699 161.777 90.2699L152.04 97.2769C152.04 97.2769 147.581 88.8139 148.582 85.3559C149.674 81.9889 152.404 78.5309 155.316 79.5319Z" fill="#F59F1D"/>
<path opacity="0.5" d="M155.316 79.5319C157.864 80.2599 161.777 90.2699 161.777 90.2699L152.04 97.2769C152.04 97.2769 147.581 88.8139 148.582 85.3559C149.674 81.9889 152.404 78.5309 155.316 79.5319Z" fill="#F59F1D"/>
<path d="M168.966 88.5409L167.692 82.6259L173.243 85.5379C173.243 85.5379 173.334 89.5419 171.059 90.9069L168.966 88.5409Z" fill="#FBBE99"/>
<path d="M169.967 77.8939L173.607 80.4419L173.243 85.5379L167.692 82.6259L169.967 77.8939Z" fill="#FBBE99"/>
<path d="M69.4122 47.864H108.542C111.636 47.864 114.184 50.503 114.002 53.688L112.91 71.524C112.728 74.618 109.907 77.348 106.722 77.348H102.081L103.901 83.354L95.0742 77.348H67.5922C64.4982 77.348 61.9502 74.709 62.1322 71.524L63.2242 53.688C63.4972 50.503 66.3182 47.864 69.4122 47.864Z" fill="#0064B7"/>
<path d="M105.084 57.146H71.869C71.232 57.146 70.777 56.6 70.868 56.054C70.868 55.417 71.505 54.962 72.051 54.962H105.175C105.812 54.962 106.267 55.508 106.176 56.054C106.267 56.782 105.539 57.146 105.084 57.146Z" fill="white"/>
<path d="M85.4288 63.698H71.5058C70.8688 63.698 70.4138 63.152 70.5048 62.606C70.5048 61.969 71.1418 61.514 71.6878 61.514H85.6108C86.2478 61.514 86.7028 62.06 86.6118 62.606C86.5208 63.334 86.0658 63.698 85.4288 63.698Z" fill="white"/>
<path d="M97.4405 70.159H71.1415C70.5045 70.159 70.0495 69.613 70.1405 69.067C70.1405 68.43 70.7775 67.975 71.3235 67.975H97.6225C98.2595 67.975 98.7145 68.521 98.6235 69.067C98.5325 69.613 97.9865 70.159 97.4405 70.159Z" fill="white"/>
<path d="M95.6201 63.698H90.1601C89.5231 63.698 89.0681 63.152 89.1591 62.606C89.1591 61.969 89.7961 61.514 90.3421 61.514H95.8021C96.4391 61.514 96.8941 62.06 96.8031 62.606C96.8031 63.334 96.1661 63.698 95.6201 63.698Z" fill="white"/>
<path d="M124.012 16.105H102.718C100.17 16.105 98.0774 18.107 97.8954 20.655L97.0764 34.487C96.9854 37.035 98.8964 39.037 101.262 39.037H104.72L102.718 43.769L110.18 39.037H122.647C125.195 39.037 127.288 37.035 127.47 34.487L128.289 20.564C128.289 18.107 126.469 16.105 124.012 16.105Z" fill="#0064B7"/>
<g opacity="0.5">
<path d="M124.012 16.105H102.718C100.17 16.105 98.0774 18.107 97.8954 20.655L97.0764 34.487C96.9854 37.035 98.8964 39.037 101.262 39.037H104.72L102.718 43.769L110.18 39.037H122.647C125.195 39.037 127.288 37.035 127.47 34.487L128.289 20.564C128.289 18.107 126.469 16.105 124.012 16.105Z" fill="#0064B7"/>
</g>
<path d="M113.729 29.755C113.638 30.392 113.001 30.847 112.455 30.847H111.181C111.181 30.483 111.181 30.21 111.181 30.21C111.181 29.391 111.363 28.663 111.727 28.208C111.909 27.662 112.546 27.116 113.456 26.388C114.275 25.751 114.73 25.296 115.094 25.114C115.276 24.75 115.458 24.386 115.64 24.022C115.64 23.476 115.549 23.021 115.003 22.748C114.639 22.384 114.002 22.111 113.274 22.111C112.546 22.111 112 22.293 111.454 22.748C111.272 22.93 110.908 23.294 110.726 23.567C110.544 24.113 109.907 24.386 109.179 24.295C108.36 24.204 107.905 23.203 108.36 22.475C108.542 21.929 108.997 21.656 109.452 21.201C110.453 20.382 111.636 20.018 113.183 20.018C114.821 20.018 116.004 20.382 116.914 21.201C117.733 22.02 118.188 23.021 118.097 24.113C118.097 24.75 117.915 25.296 117.46 25.842C117.005 26.388 116.277 27.116 115.185 28.026C114.548 28.572 114.184 28.845 114.002 29.209C113.82 29.391 113.729 29.482 113.729 29.755ZM110.908 33.304C110.908 32.485 111.545 31.757 112.182 31.757H112.273C113.001 31.757 113.456 32.394 113.456 33.031V33.122C113.456 33.85 112.819 34.396 112.182 34.396H112.091C111.363 34.487 110.908 33.941 110.908 33.304Z" fill="white"/>
</svg>
