<svg width="270" height="186" viewBox="0 0 270 186" fill="none" xmlns="http://www.w3.org/2000/svg">
<path d="M163.364 91.999C163.181 91.271 163.09 90.452 163.09 89.633C163.09 83.9 167.741 79.259 173.487 79.259C174.49 79.259 175.311 79.441 176.223 79.623C177.956 76.62 181.148 74.527 184.887 74.527C190.176 74.527 194.463 78.622 194.828 83.809C195.375 83.718 195.831 83.627 196.378 83.627C200.573 83.627 204.039 86.812 204.495 90.816C206.957 90.907 208.964 92.909 208.964 95.366C208.964 97.914 206.957 99.916 204.404 99.916H166.373C163.82 99.916 161.813 97.914 161.813 95.366C161.631 94.092 162.269 92.818 163.364 91.999Z" stroke="#0064B7" stroke-miterlimit="10"/>
<path d="M189.356 103.829V93.364" stroke="#0064B7" stroke-miterlimit="10"/>
<path d="M189.356 110.108V105.922" stroke="#0064B7" stroke-miterlimit="10"/>
<path d="M189.356 114.021V111.746" stroke="#0064B7" stroke-miterlimit="10"/>
<path d="M191.362 94.638L189.356 92.181L187.35 94.638" stroke="#0064B7" stroke-miterlimit="10"/>
<path d="M182.606 99.37V88.905" stroke="#0064B7" stroke-miterlimit="10"/>
<path d="M182.606 105.649V101.463" stroke="#0064B7" stroke-miterlimit="10"/>
<path d="M182.606 109.562V107.287" stroke="#0064B7" stroke-miterlimit="10"/>
<path d="M184.522 90.088L182.607 87.722L180.691 90.088" stroke="#0064B7" stroke-miterlimit="10"/>
<path d="M176.223 108.106V97.641" stroke="#0064B7" stroke-miterlimit="10"/>
<path d="M176.223 114.385V110.199" stroke="#0064B7" stroke-miterlimit="10"/>
<path d="M176.223 118.298V116.023" stroke="#0064B7" stroke-miterlimit="10"/>
<path d="M178.229 98.915L176.223 96.458L174.308 98.915" stroke="#0064B7" stroke-miterlimit="10"/>
<path d="M77.5443 21.3829C77.7267 20.6549 77.8179 19.836 77.8179 19.017C77.8179 13.284 73.1667 8.64295 67.4211 8.64295C66.4179 8.64295 65.5971 8.82495 64.6851 9.00695C62.9523 6.00395 59.7603 3.91095 56.0211 3.91095C50.7315 3.91095 46.4451 8.00595 46.0803 13.193C45.5331 13.102 45.0771 13.0109 44.5299 13.0109C40.3347 13.0109 36.8691 16.1959 36.4131 20.1999C33.9507 20.2909 31.9443 22.2929 31.9443 24.7499C31.9443 27.2979 33.9507 29.3 36.5043 29.3H74.7171C77.2707 29.3 79.2771 27.2979 79.2771 24.7499C79.2771 23.4759 78.6387 22.2019 77.5443 21.3829Z" stroke="#EE384E" stroke-miterlimit="10"/>
<path d="M50.002 37.035V47.5" stroke="#EE384E" stroke-miterlimit="10"/>
<path d="M50.002 30.756V34.942" stroke="#EE384E" stroke-miterlimit="10"/>
<path d="M50.002 26.934V29.118" stroke="#EE384E" stroke-miterlimit="10"/>
<path d="M47.9951 46.317L50.0015 48.683L51.9167 46.317" stroke="#EE384E" stroke-miterlimit="10"/>
<path d="M56.751 41.494V51.959" stroke="#EE384E" stroke-miterlimit="10"/>
<path d="M56.751 35.306V39.401" stroke="#EE384E" stroke-miterlimit="10"/>
<path d="M56.751 31.3929V33.5769" stroke="#EE384E" stroke-miterlimit="10"/>
<path d="M54.7441 50.7759L56.7505 53.2329L58.6657 50.7759" stroke="#EE384E" stroke-miterlimit="10"/>
<path d="M63.0439 32.758V43.223" stroke="#EE384E" stroke-miterlimit="10"/>
<path d="M63.0439 26.479V30.665" stroke="#EE384E" stroke-miterlimit="10"/>
<path d="M63.0439 22.566V24.841" stroke="#EE384E" stroke-miterlimit="10"/>
<path d="M61.0371 41.949L63.0435 44.406L64.9587 41.949" stroke="#EE384E" stroke-miterlimit="10"/>
<path d="M133.906 183.09C191.729 183.09 238.603 181.053 238.603 178.54C238.603 176.027 191.729 173.99 133.906 173.99C76.0827 173.99 29.208 176.027 29.208 178.54C29.208 181.053 76.0827 183.09 133.906 183.09Z" fill="#F3F3F3"/>
<path d="M240.883 6.27697V79.896C240.883 81.807 239.333 83.263 237.509 83.263H94.6898C92.7746 83.263 91.3154 81.716 91.3154 79.896V6.27697C91.3154 4.36597 92.8658 2.90997 94.6898 2.90997H237.418C239.242 2.90997 240.883 4.45697 240.883 6.27697Z" fill="white"/>
<mask id="mask0_1409_4158" style="mask-type:luminance" maskUnits="userSpaceOnUse" x="91" y="2" width="150" height="82">
<path d="M240.883 6.27697V79.896C240.883 81.807 239.333 83.263 237.509 83.263H94.6898C92.7746 83.263 91.3154 81.716 91.3154 79.896V6.27697C91.3154 4.36597 92.8658 2.90997 94.6898 2.90997H237.418C239.242 2.90997 240.883 4.45697 240.883 6.27697Z" fill="white"/>
</mask>
<g mask="url(#mask0_1409_4158)">
<path d="M240.883 10.19V79.896C240.883 81.807 239.333 83.263 237.509 83.263H147.677V10.19H240.883Z" fill="#DCE8F5"/>
</g>
<path d="M240.883 6.27697V79.896C240.883 81.807 239.333 83.263 237.509 83.263H94.6898C92.7746 83.263 91.3154 81.716 91.3154 79.896V6.27697C91.3154 4.36597 92.8658 2.90997 94.6898 2.90997H237.418C239.242 2.90997 240.883 4.45697 240.883 6.27697Z" stroke="#1A2E35" stroke-miterlimit="10" stroke-linecap="round" stroke-linejoin="round"/>
<path d="M228.298 40.857H209.693C207.596 40.857 205.954 42.404 205.954 44.133C205.954 45.953 207.687 47.409 209.693 47.409H228.298C230.396 47.409 232.037 45.862 232.037 44.133C232.037 42.313 230.396 40.857 228.298 40.857Z" fill="#0064B7"/>
<path d="M240.883 6.27697V13.193H91.3154V6.27697C91.3154 4.36597 92.8658 2.90997 94.6898 2.90997H237.418C239.242 2.90997 240.883 4.45697 240.883 6.27697Z" fill="#0064B7"/>
<path d="M97.6085 10.281C98.9181 10.281 99.9797 9.22166 99.9797 7.91495C99.9797 6.60824 98.9181 5.54895 97.6085 5.54895C96.2989 5.54895 95.2373 6.60824 95.2373 7.91495C95.2373 9.22166 96.2989 10.281 97.6085 10.281Z" fill="#003EB0" stroke="#1A2E35" stroke-miterlimit="10" stroke-linecap="round" stroke-linejoin="round"/>
<path d="M103.901 10.281C105.211 10.281 106.273 9.22166 106.273 7.91495C106.273 6.60824 105.211 5.54895 103.901 5.54895C102.592 5.54895 101.53 6.60824 101.53 7.91495C101.53 9.22166 102.592 10.281 103.901 10.281Z" fill="#757575" stroke="#1A2E35" stroke-miterlimit="10" stroke-linecap="round" stroke-linejoin="round"/>
<path d="M110.193 10.281C111.503 10.281 112.565 9.22166 112.565 7.91495C112.565 6.60824 111.503 5.54895 110.193 5.54895C108.884 5.54895 107.822 6.60824 107.822 7.91495C107.822 9.22166 108.884 10.281 110.193 10.281Z" fill="white" stroke="#1A2E35" stroke-miterlimit="10" stroke-linecap="round" stroke-linejoin="round"/>
<path d="M147.586 13.193V83.263" stroke="#1A2E35" stroke-miterlimit="10" stroke-linecap="round" stroke-linejoin="round"/>
<path d="M235.685 10.1899H203.035C201.758 10.1899 200.664 9.09795 200.664 7.82395C200.664 6.54995 201.758 5.45795 203.035 5.45795H235.685C236.962 5.45795 238.056 6.54995 238.056 7.82395C238.147 9.18895 236.962 10.1899 235.685 10.1899Z" fill="white" stroke="#1A2E35" stroke-miterlimit="10" stroke-linecap="round" stroke-linejoin="round"/>
<path d="M229.757 34.76H158.986C157.709 34.76 156.706 33.668 156.706 32.485C156.706 31.211 157.8 30.21 158.986 30.21H229.757C231.034 30.21 232.037 31.302 232.037 32.485C232.037 33.759 231.034 34.76 229.757 34.76Z" fill="#BFBFBF" stroke="#1A2E35" stroke-miterlimit="10"/>
<path d="M197.473 34.578H159.442C158.165 34.578 157.162 33.577 157.162 32.485C157.162 31.302 158.257 30.392 159.442 30.392H197.473C198.749 30.392 199.753 31.393 199.753 32.485C199.753 33.668 198.749 34.578 197.473 34.578Z" fill="#0064B7"/>
<path d="M161.905 67.338H158.804V70.4319H161.905V67.338Z" stroke="#1A2E35" stroke-width="0.5" stroke-miterlimit="10" stroke-linecap="round" stroke-linejoin="round"/>
<path d="M159.716 68.703L160.172 69.34L160.901 68.248" stroke="#1A2E35" stroke-width="0.5" stroke-miterlimit="10" stroke-linecap="round" stroke-linejoin="round"/>
<path opacity="0.3" d="M188.991 69.795H167.559C167.103 69.795 166.738 69.431 166.738 68.976V68.794C166.738 68.339 167.103 67.975 167.559 67.975H188.991C189.447 67.975 189.812 68.339 189.812 68.794V68.976C189.812 69.431 189.538 69.795 188.991 69.795Z" fill="black"/>
<path d="M109.373 54.598C107.823 53.051 106.546 51.322 105.634 49.229" stroke="#1A2E35" stroke-miterlimit="10" stroke-linecap="round" stroke-linejoin="round"/>
<path d="M123.874 27.753C129.072 28.936 133.176 32.667 135.092 37.49" stroke="#1A2E35" stroke-miterlimit="10" stroke-linecap="round" stroke-linejoin="round"/>
<path d="M125.15 39.128V34.578L121.776 34.305C121.594 33.577 121.229 32.849 120.955 32.303L123.144 29.664L119.952 26.479L117.307 28.663C116.669 28.299 115.939 28.026 115.301 27.844L115.027 24.477H110.467L110.285 27.935C109.555 28.117 108.826 28.481 108.278 28.754L105.725 26.57L102.533 29.755L104.722 32.394C104.357 33.031 104.083 33.759 103.901 34.396L100.526 34.669V39.219L103.901 39.492C104.083 40.22 104.448 40.948 104.722 41.494L102.533 44.133L105.725 47.318L108.37 45.134C109.008 45.498 109.738 45.771 110.376 45.953L110.65 49.32H115.21L115.483 45.953C116.213 45.771 116.942 45.407 117.49 45.134L120.134 47.318L123.326 44.133L121.138 41.494C121.502 40.857 121.776 40.129 121.958 39.492L125.15 39.128ZM112.747 42.131C109.829 42.131 107.458 39.765 107.458 36.853C107.458 33.941 109.829 31.575 112.747 31.575C115.666 31.575 118.037 33.941 118.037 36.853C118.037 39.765 115.666 42.131 112.747 42.131Z" fill="#0064B7"/>
<path d="M140.107 49.229V45.953L137.645 45.68C137.462 45.134 137.28 44.679 137.006 44.224L138.557 42.313L136.277 40.038L134.362 41.585C133.906 41.312 133.358 41.13 132.902 40.948L132.629 38.491H129.346L129.072 40.948C128.525 41.13 128.069 41.312 127.613 41.585L125.698 40.038L123.418 42.313L124.968 44.224C124.694 44.679 124.512 45.225 124.33 45.68L121.867 45.953V49.229L124.33 49.502C124.512 50.048 124.694 50.503 124.968 50.958L123.418 52.869L125.698 55.144L127.613 53.597C128.069 53.87 128.616 54.052 129.072 54.234L129.346 56.691H132.629L132.902 54.234C133.45 54.052 133.906 53.87 134.362 53.597L136.277 55.144L138.557 52.869L137.006 50.958C137.28 50.503 137.462 49.957 137.645 49.502L140.107 49.229ZM131.352 51.322C129.254 51.322 127.613 49.593 127.613 47.591C127.613 45.589 129.346 43.86 131.352 43.86C133.358 43.86 135.091 45.589 135.091 47.591C135.091 49.593 133.358 51.322 131.352 51.322Z" fill="#003EB0"/>
<path d="M140.107 49.229V45.953L137.645 45.68C137.462 45.134 137.28 44.679 137.006 44.224L138.557 42.313L136.277 40.038L134.362 41.585C133.906 41.312 133.358 41.13 132.902 40.948L132.629 38.491H129.346L129.072 40.948C128.525 41.13 128.069 41.312 127.613 41.585L125.698 40.038L123.418 42.313L124.968 44.224C124.694 44.679 124.512 45.225 124.33 45.68L121.867 45.953V49.229L124.33 49.502C124.512 50.048 124.694 50.503 124.968 50.958L123.418 52.869L125.698 55.144L127.613 53.597C128.069 53.87 128.616 54.052 129.072 54.234L129.346 56.691H132.629L132.902 54.234C133.45 54.052 133.906 53.87 134.362 53.597L136.277 55.144L138.557 52.869L137.006 50.958C137.28 50.503 137.462 49.957 137.645 49.502L140.107 49.229ZM131.352 51.322C129.254 51.322 127.613 49.593 127.613 47.591C127.613 45.589 129.346 43.86 131.352 43.86C133.358 43.86 135.091 45.589 135.091 47.591C135.091 49.593 133.358 51.322 131.352 51.322Z" fill="#DE051F"/>
<mask id="mask1_1409_4158" style="mask-type:luminance" maskUnits="userSpaceOnUse" x="121" y="38" width="20" height="19">
<path d="M140.107 49.229V45.953L137.645 45.68C137.462 45.134 137.28 44.679 137.006 44.224L138.557 42.313L136.277 40.038L134.362 41.585C133.906 41.312 133.358 41.13 132.902 40.948L132.629 38.491H129.346L129.072 40.948C128.525 41.13 128.069 41.312 127.613 41.585L125.698 40.038L123.418 42.313L124.968 44.224C124.694 44.679 124.512 45.225 124.33 45.68L121.867 45.953V49.229L124.33 49.502C124.512 50.048 124.694 50.503 124.968 50.958L123.418 52.869L125.698 55.144L127.613 53.597C128.069 53.87 128.616 54.052 129.072 54.234L129.346 56.691H132.629L132.902 54.234C133.45 54.052 133.906 53.87 134.362 53.597L136.277 55.144L138.557 52.869L137.006 50.958C137.28 50.503 137.462 49.957 137.645 49.502L140.107 49.229ZM131.352 51.322C129.254 51.322 127.613 49.593 127.613 47.591C127.613 45.589 129.346 43.86 131.352 43.86C133.358 43.86 135.091 45.589 135.091 47.591C135.091 49.593 133.358 51.322 131.352 51.322Z" fill="white"/>
</mask>
<g mask="url(#mask1_1409_4158)">
<path opacity="0.3" d="M140.107 49.229V45.953L137.645 45.68C137.462 45.134 137.28 44.679 137.006 44.224L138.557 42.313L136.277 40.038L134.362 41.585C133.906 41.312 133.358 41.13 132.902 40.948L132.629 38.491H129.346L129.072 40.948C128.525 41.13 128.069 41.312 127.613 41.585L125.698 40.038L123.418 42.313L124.968 44.224C124.694 44.679 124.512 45.225 124.33 45.68L121.867 45.953V49.229L124.33 49.502C124.512 50.048 124.694 50.503 124.968 50.958L123.418 52.869L125.698 55.144L127.613 53.597C128.069 53.87 128.616 54.052 129.072 54.234L129.346 56.691H132.629L132.902 54.234C133.45 54.052 133.906 53.87 134.362 53.597L136.277 55.144L138.557 52.869L137.006 50.958C137.28 50.503 137.462 49.957 137.645 49.502L140.107 49.229ZM131.352 51.322C129.254 51.322 127.613 49.593 127.613 47.591C127.613 45.589 129.346 43.86 131.352 43.86C133.358 43.86 135.091 45.589 135.091 47.591C135.091 49.593 133.358 51.322 131.352 51.322Z" fill="#DE051F"/>
</g>
<path d="M124.421 56.691V54.416L122.688 54.234C122.597 53.87 122.414 53.506 122.232 53.142L123.326 51.777L121.685 50.139L120.317 51.231C119.952 51.049 119.587 50.867 119.222 50.776L119.04 49.047H116.76L116.577 50.776C116.213 50.867 115.848 51.049 115.483 51.231L114.115 50.139L112.473 51.777L113.568 53.142C113.385 53.506 113.203 53.87 113.112 54.234L111.379 54.416V56.691L113.112 56.873C113.203 57.237 113.385 57.601 113.568 57.965L112.473 59.33L114.115 60.968L115.483 59.876C115.848 60.058 116.213 60.24 116.577 60.331L116.76 62.06H119.04L119.222 60.331C119.587 60.24 119.952 60.058 120.317 59.876L121.685 60.968L123.326 59.33L122.232 57.965C122.414 57.601 122.597 57.237 122.688 56.873L124.421 56.691ZM118.128 58.238C116.669 58.238 115.483 57.055 115.483 55.599C115.483 54.143 116.669 52.96 118.128 52.96C119.587 52.96 120.773 54.143 120.773 55.599C120.773 57.055 119.587 58.238 118.128 58.238Z" fill="#0064B7"/>
<path d="M124.421 56.691V54.416L122.688 54.234C122.597 53.87 122.414 53.506 122.232 53.142L123.326 51.777L121.685 50.139L120.317 51.231C119.952 51.049 119.587 50.867 119.222 50.776L119.04 49.047H116.76L116.577 50.776C116.213 50.867 115.848 51.049 115.483 51.231L114.115 50.139L112.473 51.777L113.568 53.142C113.385 53.506 113.203 53.87 113.112 54.234L111.379 54.416V56.691L113.112 56.873C113.203 57.237 113.385 57.601 113.568 57.965L112.473 59.33L114.115 60.968L115.483 59.876C115.848 60.058 116.213 60.24 116.577 60.331L116.76 62.06H119.04L119.222 60.331C119.587 60.24 119.952 60.058 120.317 59.876L121.685 60.968L123.326 59.33L122.232 57.965C122.414 57.601 122.597 57.237 122.688 56.873L124.421 56.691ZM118.128 58.238C116.669 58.238 115.483 57.055 115.483 55.599C115.483 54.143 116.669 52.96 118.128 52.96C119.587 52.96 120.773 54.143 120.773 55.599C120.773 57.055 119.587 58.238 118.128 58.238Z" fill="#0064B7"/>
<mask id="mask2_1409_4158" style="mask-type:luminance" maskUnits="userSpaceOnUse" x="111" y="49" width="14" height="14">
<path d="M124.421 56.691V54.416L122.688 54.234C122.597 53.87 122.414 53.506 122.232 53.142L123.326 51.777L121.685 50.139L120.317 51.231C119.952 51.049 119.587 50.867 119.222 50.776L119.04 49.047H116.76L116.577 50.776C116.213 50.867 115.848 51.049 115.483 51.231L114.115 50.139L112.473 51.777L113.568 53.142C113.385 53.506 113.203 53.87 113.112 54.234L111.379 54.416V56.691L113.112 56.873C113.203 57.237 113.385 57.601 113.568 57.965L112.473 59.33L114.115 60.968L115.483 59.876C115.848 60.058 116.213 60.24 116.577 60.331L116.76 62.06H119.04L119.222 60.331C119.587 60.24 119.952 60.058 120.317 59.876L121.685 60.968L123.326 59.33L122.232 57.965C122.414 57.601 122.597 57.237 122.688 56.873L124.421 56.691ZM118.128 58.238C116.669 58.238 115.483 57.055 115.483 55.599C115.483 54.143 116.669 52.96 118.128 52.96C119.587 52.96 120.773 54.143 120.773 55.599C120.773 57.055 119.587 58.238 118.128 58.238Z" fill="white"/>
</mask>
<g mask="url(#mask2_1409_4158)">
<path opacity="0.5" d="M124.421 56.691V54.416L122.688 54.234C122.597 53.87 122.414 53.506 122.232 53.142L123.326 51.777L121.685 50.139L120.317 51.231C119.952 51.049 119.587 50.867 119.222 50.776L119.04 49.047H116.76L116.577 50.776C116.213 50.867 115.848 51.049 115.483 51.231L114.115 50.139L112.473 51.777L113.568 53.142C113.385 53.506 113.203 53.87 113.112 54.234L111.379 54.416V56.691L113.112 56.873C113.203 57.237 113.385 57.601 113.568 57.965L112.473 59.33L114.115 60.968L115.483 59.876C115.848 60.058 116.213 60.24 116.577 60.331L116.76 62.06H119.04L119.222 60.331C119.587 60.24 119.952 60.058 120.317 59.876L121.685 60.968L123.326 59.33L122.232 57.965C122.414 57.601 122.597 57.237 122.688 56.873L124.421 56.691ZM118.128 58.238C116.669 58.238 115.483 57.055 115.483 55.599C115.483 54.143 116.669 52.96 118.128 52.96C119.587 52.96 120.773 54.143 120.773 55.599C120.773 57.055 119.587 58.238 118.128 58.238Z" fill="#0064B7"/>
</g>
<path d="M124.421 56.691V54.416L122.688 54.234C122.597 53.87 122.414 53.506 122.232 53.142L123.326 51.777L121.685 50.139L120.317 51.231C119.952 51.049 119.587 50.867 119.222 50.776L119.04 49.047H116.76L116.577 50.776C116.213 50.867 115.848 51.049 115.483 51.231L114.115 50.139L112.473 51.777L113.568 53.142C113.385 53.506 113.203 53.87 113.112 54.234L111.379 54.416V56.691L113.112 56.873C113.203 57.237 113.385 57.601 113.568 57.965L112.473 59.33L114.115 60.968L115.483 59.876C115.848 60.058 116.213 60.24 116.577 60.331L116.76 62.06H119.04L119.222 60.331C119.587 60.24 119.952 60.058 120.317 59.876L121.685 60.968L123.326 59.33L122.232 57.965C122.414 57.601 122.597 57.237 122.688 56.873L124.421 56.691ZM118.128 58.238C116.669 58.238 115.483 57.055 115.483 55.599C115.483 54.143 116.669 52.96 118.128 52.96C119.587 52.96 120.773 54.143 120.773 55.599C120.773 57.055 119.587 58.238 118.128 58.238Z" fill="#0064B7"/>
<path d="M133.905 36.853L135.091 37.49L135.547 36.307" stroke="#1A2E35" stroke-miterlimit="10" stroke-linecap="round" stroke-linejoin="round"/>
<path d="M106.819 49.866L105.634 49.32L105.178 50.412" stroke="#1A2E35" stroke-miterlimit="10" stroke-linecap="round" stroke-linejoin="round"/>
<path d="M157.436 24.568V27.025C157.436 27.298 157.527 27.389 157.709 27.389C157.892 27.389 157.983 27.298 157.983 27.025V24.568H158.439V27.025C158.439 27.571 158.165 27.844 157.618 27.844C157.071 27.844 156.889 27.571 156.889 27.025V24.568H157.436Z" fill="#1A2E35"/>
<path d="M160.172 25.296V25.751C160.172 26.297 159.898 26.57 159.351 26.57H159.077V27.753H158.53V24.568H159.26C159.898 24.568 160.172 24.841 160.172 25.296ZM159.26 25.023V26.115H159.533C159.716 26.115 159.807 26.024 159.807 25.751V25.205C159.807 24.932 159.716 24.841 159.533 24.841L159.26 25.023Z" fill="#1A2E35"/>
<path d="M161.996 27.753H161.449L161.357 27.116H160.719L160.628 27.753H160.172L160.719 24.568H161.449L161.996 27.753ZM160.81 26.752H161.357L161.084 25.114L160.81 26.752Z" fill="#1A2E35"/>
<path d="M162.179 24.568H163C163.547 24.568 163.729 24.841 163.729 25.387V27.025C163.729 27.571 163.456 27.844 163 27.844H162.179V24.568ZM162.726 25.023V27.298H163C163.182 27.298 163.273 27.207 163.273 26.934V25.205C163.273 24.932 163.182 24.841 163 24.841L162.726 25.023Z" fill="#1A2E35"/>
<path d="M165.826 27.753H165.279L165.188 27.116H164.549L164.458 27.753H164.002L164.549 24.568H165.279L165.826 27.753ZM164.549 26.752H165.096L164.823 25.114L164.549 26.752Z" fill="#1A2E35"/>
<path d="M165.644 24.568H167.194V25.023H166.647V27.753H166.1V25.023H165.553L165.644 24.568Z" fill="#1A2E35"/>
<path d="M167.468 24.568H168.015V27.753H167.468V24.568Z" fill="#1A2E35"/>
<path d="M168.836 25.387V27.753H168.38V24.568H169.018L169.565 26.479V24.568H170.021V27.753H169.474L168.836 25.387Z" fill="#1A2E35"/>
<path d="M171.116 25.933H171.846V26.934C171.846 27.48 171.572 27.753 171.116 27.753C170.569 27.753 170.387 27.48 170.387 26.934V25.205C170.387 24.659 170.66 24.386 171.116 24.386C171.664 24.386 171.846 24.659 171.846 25.205V25.569H171.39V25.205C171.39 24.932 171.299 24.841 171.116 24.841C170.934 24.841 170.843 24.932 170.843 25.205V26.934C170.843 27.207 170.934 27.298 171.116 27.298C171.299 27.298 171.39 27.207 171.39 26.934V26.297H171.116V25.933Z" fill="#1A2E35"/>
<path d="M236.141 49.411L228.754 44.133L230.852 52.869L232.402 50.685L233.77 52.687L234.864 52.05L233.496 49.957L236.141 49.411Z" fill="#EE384E"/>
<path d="M170.659 139.956C170.659 139.956 173.213 138.864 172.939 136.043C172.757 133.131 171.297 131.129 174.307 131.948C177.317 132.767 178.411 133.131 180.6 132.676C182.789 132.221 184.704 131.311 183.701 134.223C182.697 137.135 181.694 139.501 183.974 139.956C186.254 140.411 188.717 138.682 188.99 143.141C189.264 147.6 185.616 152.696 179.779 152.878C173.851 153.06 171.297 150.603 171.297 150.603C171.297 150.603 169.747 148.328 172.209 147.873C174.672 147.236 177.134 146.235 175.949 145.143C174.672 143.96 170.659 143.869 170.659 143.869C170.659 143.869 165.643 142.959 170.659 139.956Z" fill="#649EEA"/>
<path d="M197.38 140.684C196.924 137.772 197.198 135.77 202.579 134.951C207.868 134.132 210.969 137.408 211.334 140.684C211.699 143.96 207.048 145.143 207.048 145.143C207.048 145.143 203.764 146.053 205.406 148.965C207.048 151.877 207.868 154.607 204.038 155.062C200.208 155.517 196.104 154.425 193.824 152.969C191.544 151.422 189.172 147.509 191.817 145.507C191.817 145.507 192.547 144.961 195.1 144.87C197.745 144.597 197.38 140.684 197.38 140.684Z" fill="#023EA1"/>
<path d="M178.685 140.229C178.685 140.229 183.062 150.239 183.701 156.973" stroke="#83DAFF" stroke-miterlimit="10" stroke-linecap="round" stroke-linejoin="round"/>
<path d="M203.217 141.867C203.217 141.867 195.374 153.424 193.55 157.337" stroke="#579FD5" stroke-miterlimit="10" stroke-linecap="round" stroke-linejoin="round"/>
<path d="M180.964 156.154H198.931C198.931 156.154 200.937 156.336 200.755 158.975C200.572 161.432 197.471 160.977 195.83 160.977C194.188 160.977 180.599 160.977 180.599 160.977C180.599 160.977 178.319 161.432 178.319 158.884C178.411 156.336 179.323 156.154 180.964 156.154Z" fill="#0054A5"/>
<path d="M180.69 160.886L183.426 176.72H195.282L197.38 164.89L180.69 160.886Z" fill="#0054A5"/>
<path d="M180.69 160.886L197.38 164.89L198.018 160.886H180.69Z" fill="#006AD5"/>
<path d="M188.261 156.791C188.261 156.791 189.173 139.319 194.462 128.308Z" fill="#FCBE42"/>
<path d="M198.748 121.938C198.748 121.938 199.204 127.307 193.915 129.4C193.915 129.4 192.82 124.85 198.748 121.938Z" fill="#FCBE42"/>
<path d="M190.814 139.046C190.814 139.046 192.821 134.405 198.749 135.042C198.749 135.042 198.293 139.592 190.814 139.046Z" fill="#FCBE42"/>
<path d="M188.898 150.603C188.898 150.603 189.993 145.689 195.921 145.143C195.921 145.143 196.286 149.693 188.898 150.603Z" fill="#FCBE42"/>
<path d="M188.716 150.603C188.716 150.603 189.446 145.598 183.974 143.141C184.065 143.141 182.059 147.327 188.716 150.603Z" fill="#FCBE42"/>
<path d="M190.905 138.955C190.905 138.955 192.273 134.132 187.074 130.947C187.166 131.038 184.794 134.86 190.905 138.955Z" fill="#FCBE42"/>
<path d="M80.3715 87.631C80.3715 87.631 83.0163 86.903 82.5603 82.626C82.1955 78.44 79.6419 74.891 83.4723 72.798C87.3027 70.614 88.4883 69.795 90.3123 68.066C92.1363 66.246 93.1395 64.881 99.1587 65.427C99.1587 65.427 103.992 61.514 108.279 64.972C112.565 68.43 111.106 77.53 112.109 78.986C113.021 80.442 118.767 86.084 119.405 90.907C120.044 95.73 116.76 98.733 112.109 98.46C107.367 98.187 101.074 98.46 101.074 98.46H83.7459C83.7459 98.46 77.9091 98.824 77.4531 93.091C77.0883 89.451 80.3715 87.631 80.3715 87.631Z" fill="#180857"/>
<path d="M94.781 94.547C94.781 94.547 94.781 98.096 93.2306 99.552C91.6802 101.008 89.6738 103.556 89.6738 103.556C89.6738 103.556 93.2306 109.107 100.253 108.288C107.275 107.469 108.552 102.555 108.552 102.555C108.552 102.555 101.895 101.645 101.165 95.366C100.435 89.087 99.4322 89.087 99.4322 89.087L94.781 94.547Z" fill="#FFB07E"/>
<path d="M98.0649 96.5489C102.397 96.5489 105.908 90.6413 105.908 83.3539C105.908 76.0665 102.397 70.1589 98.0649 70.1589C93.7332 70.1589 90.2217 76.0665 90.2217 83.3539C90.2217 90.6413 93.7332 96.5489 98.0649 96.5489Z" fill="#FFBE9B"/>
<path d="M98.0645 69.431C98.0645 69.431 96.6053 73.617 93.6869 77.712C90.7685 81.898 87.303 84.173 86.9382 84.901C86.5734 85.629 83.9285 83.536 84.9317 80.169C85.9349 76.802 91.4069 67.702 97.1525 67.52C102.898 67.338 104.175 64.062 106.82 70.705C109.556 77.348 109.009 84.992 109.009 84.992L98.0645 69.431Z" fill="#180857"/>
<path d="M90.7681 81.7159C90.7681 81.7159 87.7586 81.3519 87.3938 83.1719C86.9378 84.9919 88.3969 86.6299 90.7681 86.9939C93.2305 87.3579 90.7681 81.7159 90.7681 81.7159Z" fill="#FFBE9B"/>
<path d="M119.861 168.53C119.861 168.53 124.603 168.803 127.978 168.803C131.352 168.803 136.733 169.531 136.733 169.531C136.733 169.531 138.192 169.531 138.283 171.26C138.466 172.989 138.466 173.717 138.466 173.717C138.466 173.717 138.648 175.81 136.915 175.81C135.274 175.81 124.877 176.993 122.506 176.993C120.134 176.993 118.402 177.448 118.402 175.81C118.402 174.172 118.219 168.439 119.861 168.53Z" fill="#170856"/>
<path d="M123.691 119.117C123.691 119.117 126.792 135.952 126.974 140.411C127.248 144.87 127.704 148.237 124.694 149.966C121.776 151.695 116.942 153.333 116.942 153.333L110.923 123.303V119.754L123.691 119.117Z" fill="#FFBF99"/>
<path d="M72.0721 118.207C72.0721 118.207 70.4305 125.851 69.9745 129.673C69.5185 133.495 68.4241 141.048 68.3329 142.777C68.1505 144.506 67.9681 147.509 71.1601 149.693C74.3521 151.968 77.7265 153.242 77.7265 153.242L84.2017 118.298L72.0721 118.207Z" fill="#FFBF99"/>
<path d="M91.042 100.462C91.042 100.462 86.2084 99.825 83.6548 100.644C81.1012 101.372 80.2804 100.917 80.9188 102.919C81.6484 104.921 85.114 114.021 83.4724 119.754C81.8308 125.487 79.5508 154.789 79.5508 154.789C79.5508 154.789 97.3348 155.517 104.266 155.881C111.197 156.245 116.304 154.88 116.304 154.88C116.304 154.88 117.855 142.231 116.304 136.771C114.754 131.22 112.748 121.938 112.748 121.938C112.748 121.938 111.471 109.107 113.204 105.922C114.936 102.737 116.304 102.646 114.024 101.827C111.744 101.008 109.282 100.28 107.549 100.28C105.816 100.28 104.813 100.28 103.81 101.372C102.716 102.464 100.618 104.557 97.6996 104.102C94.7812 103.647 92.5012 101.645 92.5012 101.645C92.5012 101.645 91.7716 100.644 91.042 100.462Z" fill="#DE051F"/>
<path d="M82.4686 101.463C82.4686 101.463 80.827 100.644 78.3646 102.737C75.7198 105.012 73.8046 109.926 72.8014 112.929C71.7982 116.023 71.251 119.026 71.251 119.026C71.251 119.026 74.6254 120.755 78.1822 120.937C81.739 121.119 84.019 121.301 84.019 121.301C84.019 121.301 85.5694 112.201 85.2046 108.106C84.8398 104.011 84.2926 102.555 82.4686 101.463Z" fill="#EE384E"/>
<path d="M112.018 104.83C112.018 104.83 113.477 100.917 116.578 102.737C119.77 104.466 122.141 111.2 122.78 113.293C123.509 115.386 124.421 119.663 124.421 119.663C124.421 119.663 120.682 121.301 117.49 121.574C114.298 121.847 112.109 122.029 112.109 122.029C112.109 122.029 110.833 113.748 111.015 110.472C111.289 107.105 112.018 104.83 112.018 104.83Z" fill="#EE384E"/>
<path d="M86.1172 157.246H110.194L97.7908 160.977L86.1172 157.246Z" fill="#004B89"/>
<path d="M64.776 150.421C64.776 150.421 108.552 164.071 118.128 167.529C118.128 167.529 121.32 168.348 121.411 169.986C121.594 171.624 121.138 173.99 120.773 175.173C120.408 176.356 119.314 177.266 117.581 176.902C115.848 176.538 76.632 168.712 61.0368 164.617L56.568 163.161C56.568 163.161 53.2848 161.614 53.832 157.61C54.4704 153.606 57.3888 150.148 59.4864 149.875C61.7664 149.784 64.776 150.421 64.776 150.421Z" fill="#0064E1"/>
<path d="M60.7636 169.804C60.7636 169.804 66.3268 168.803 69.5188 168.712C72.802 168.53 77.1796 168.257 77.818 168.712C78.4564 169.167 79.0948 175.537 79.0948 175.537C79.0948 175.537 79.7332 177.266 75.3556 176.993C70.978 176.629 61.0372 176.265 61.0372 176.265C61.0372 176.265 58.7572 176.083 58.666 174.172C58.5748 172.17 58.9396 171.26 58.9396 171.26C58.9396 171.26 59.3956 170.077 60.7636 169.804Z" fill="#170856"/>
<path d="M86.9377 164.253C86.9377 164.253 113.568 156.154 122.962 153.333C132.355 150.512 137.736 147.964 140.746 152.332C143.846 156.791 143.573 161.705 140.016 163.07C136.459 164.526 108.826 170.896 97.4257 173.262C86.0257 175.628 78.4561 177.175 77.3617 176.629C76.2673 176.174 75.0817 172.716 75.3553 170.896C75.6289 168.985 75.7201 168.348 77.9089 167.347C80.1889 166.528 86.9377 164.253 86.9377 164.253Z" fill="#0054A3"/>
<path d="M83.8371 125.669H115.848C115.848 125.669 117.581 125.396 117.581 127.762C117.581 130.128 117.581 155.335 117.581 155.335C117.581 155.335 117.763 157.246 116.304 157.246C114.845 157.246 78.7299 157.246 78.7299 157.246C78.7299 157.246 77.1795 157.701 77.1795 155.153C77.1795 152.605 77.1795 127.125 77.1795 127.125C77.1795 127.125 76.9971 125.669 78.9123 125.669C80.8275 125.669 83.8371 125.669 83.8371 125.669Z" fill="#0064B7"/>
<path d="M97.2846 139.456L95.4609 141.729L97.7393 143.549L99.563 141.276L97.2846 139.456Z" fill="#569ED4"/>
</svg>
