<svg width="270" height="186" viewBox="0 0 270 186" fill="none" xmlns="http://www.w3.org/2000/svg">
<path d="M138.958 184.28C181.791 184.28 216.514 177.499 216.514 169.135C216.514 160.771 181.791 153.991 138.958 153.991C96.1245 153.991 61.4014 160.771 61.4014 169.135C61.4014 177.499 96.1245 184.28 138.958 184.28Z" fill="#E8E7EC"/>
<path d="M199.825 65.4377C214.369 65.4377 226.159 53.6474 226.159 39.1033C226.159 24.5592 214.369 12.7689 199.825 12.7689C185.281 12.7689 173.49 24.5592 173.49 39.1033C173.49 53.6474 185.281 65.4377 199.825 65.4377Z" stroke="#DD1F26" stroke-width="0.5" stroke-miterlimit="10" stroke-dasharray="2 2"/>
<path d="M179.085 26.8524C181.003 26.8524 182.558 25.2977 182.558 23.3798C182.558 21.4619 181.003 19.9071 179.085 19.9071C177.167 19.9071 175.612 21.4619 175.612 23.3798C175.612 25.2977 177.167 26.8524 179.085 26.8524Z" fill="#24499F"/>
<path d="M180.148 22.1255L177.447 22.9937L179.28 24.4406L180.148 22.1255Z" fill="white"/>
<path d="M68.7329 3.79762C68.7329 3.79762 66.6107 7.27029 69.6975 7.36675C73.0737 7.46322 74.5207 8.52431 73.9419 11.7076C73.2667 14.9873 74.4242 17.0131 76.0641 17.3989C77.8969 17.9777 81.466 18.5565 80.3085 22.8008C79.1509 27.1417 77.4146 35.4375 72.7843 34.8587C67.8647 34.2799 63.6204 28.0098 64.4885 24.7301C65.3567 21.4504 67.8647 19.8105 65.4532 17.0131C63.138 14.1192 60.7265 16.8201 59.4724 13.1545C58.2184 9.39248 56.3856 5.82335 61.2088 2.92945C64.9708 0.614341 69.2152 1.67543 68.7329 3.79762Z" stroke="#1C4599" stroke-width="0.5" stroke-miterlimit="10"/>
<path d="M65.3564 7.36664C65.3564 7.36664 73.3629 30.5178 76.7391 36.0162" stroke="#1C4599" stroke-width="0.5" stroke-miterlimit="10"/>
<path d="M75.4841 20.6782L72.4937 26.3695L67.0918 25.4049" stroke="#1C4599" stroke-width="0.5" stroke-miterlimit="10"/>
<path d="M70.5665 10.2603L67.7691 13.9259L63.2354 13.733" stroke="#1C4599" stroke-width="0.5" stroke-miterlimit="10"/>
<path d="M78.5709 1.00022C78.5709 1.00022 86.3844 0.903756 85.4198 4.76228C84.3587 8.6208 85.9986 9.58543 87.7349 10.2607C89.4712 11.1288 93.1368 11.3218 91.6899 15.4697C90.2429 19.6176 87.9278 20.9681 88.796 23.1867C89.6642 25.4054 90.2429 34.9552 86.3844 33.9906C82.4294 33.026 80.4037 27.817 80.1143 25.3089C79.9214 22.9938 76.8346 20.9681 74.5195 20.0034C72.1079 19.0388 69.7928 16.1449 72.5902 14.2157C75.4841 12.1899 75.677 8.52434 73.9407 6.59508C72.3008 4.85874 73.3619 1.09668 78.5709 1.00022Z" fill="#FABD41"/>
<path d="M79.5352 5.91974L85.7088 37.1738" stroke="white" stroke-width="0.5" stroke-miterlimit="10" stroke-linecap="round" stroke-linejoin="round"/>
<path d="M87.6382 13.4437L82.1398 18.6527L74.8086 15.7588" stroke="white" stroke-width="0.5" stroke-miterlimit="10" stroke-linecap="round" stroke-linejoin="round"/>
<path d="M46.6426 16.0487C46.6426 16.0487 43.0735 14.8911 44.231 11.8043C45.1956 8.71746 49.7294 7.27052 51.4657 9.39271C53.2021 11.2255 52.4304 13.3477 54.5526 12.9618C56.6747 12.576 62.559 12.7689 62.2696 15.5663C62.0767 18.5567 58.7969 19.6178 61.305 22.5117C63.7166 25.502 70.5654 23.8622 68.5397 29.7464C66.7069 35.5342 60.8227 44.6017 54.1667 37.7528C47.7037 31.0004 56.7712 29.8429 50.5976 26.1773C44.4239 22.5117 48.0895 21.1612 48.6683 18.7496C49.1506 16.2416 46.6426 16.0487 46.6426 16.0487Z" fill="#EE384E"/>
<path d="M53.0107 17.1096C53.0107 17.1096 56.4834 26.3701 62.3677 32.8331C68.2519 39.2961 70.3741 39.8749 70.3741 39.8749" stroke="white" stroke-width="0.5" stroke-miterlimit="10" stroke-linecap="round" stroke-linejoin="round"/>
<path d="M66.8036 39.5855H213.62L213.427 137.11L66.3213 136.917L66.8036 39.5855Z" fill="#E9EEF2"/>
<path d="M156.322 139.907L156.226 140.1C156.226 140.293 156.129 140.582 156.129 140.775C156.033 141.161 156.033 141.643 156.033 141.933C156.033 142.415 155.936 142.994 155.936 143.38C155.936 143.959 155.936 144.537 155.936 145.116C155.936 145.791 156.033 146.37 156.129 147.045C156.226 147.721 156.515 148.396 156.708 149.071C156.901 149.746 157.287 150.518 157.673 151.193C158.058 151.869 158.541 152.64 158.927 153.315C159.505 153.991 160.084 154.666 160.663 155.341C161.338 156.016 162.11 156.692 162.978 157.27C163.46 157.656 163.943 157.946 164.425 158.235C164.521 158.332 164.811 158.332 164.907 158.428L165.293 158.524V164.312H114.071V158.814C114.071 158.814 122.078 157.27 123.814 139.907C123.718 140.389 156.322 139.907 156.322 139.907Z" fill="#0064B7"/>
<path d="M156.418 149.071L123.428 142.319L123.621 140.389L156.515 139.907C156.418 140.1 154.778 142.222 156.418 149.071Z" fill="#0064E1"/>
<path d="M165.291 159.296H113.876V164.795H165.291V159.296Z" fill="#0064E1"/>
<path d="M212.366 32.1579H66.7063C60.7256 31.965 60.7256 37.0775 60.7256 37.0775V61.1933V113.669V137.881C60.7256 137.881 60.7256 142.898 66.7063 142.801H212.462C212.462 142.801 218.925 142.994 218.925 136.82C218.925 136.724 218.925 136.434 218.925 136.242V133.251C218.925 133.251 218.925 60.0357 218.925 41.9971C218.925 40.7431 218.925 39.682 218.925 39.0068C218.925 38.8139 218.925 38.5245 218.925 38.428C218.925 31.8685 212.366 32.1579 212.366 32.1579ZM212.076 133.637L67.1886 134.505L66.9957 87.2383L67.1886 39.9714L212.076 40.8396L212.269 87.3348L212.076 133.637Z" fill="#0064B7"/>
<path d="M72.686 85.5982H111.657C112.911 85.5982 113.972 84.5371 113.972 83.2831V45.9519C113.972 44.6979 112.911 43.6368 111.657 43.6368H72.686C71.432 43.6368 70.3709 44.6979 70.3709 45.9519V83.1866C70.2744 84.5371 71.432 85.5982 72.686 85.5982Z" stroke="#003EB0" stroke-width="0.5" stroke-miterlimit="10" stroke-dasharray="2 2"/>
<path d="M118.797 85.5989H207.254C207.929 85.5989 208.411 85.1165 208.411 84.4413V44.6985C208.411 44.0233 207.929 43.541 207.254 43.541H118.797C118.122 43.541 117.64 44.0233 117.64 44.6985V84.2484C117.64 85.0201 118.218 85.5989 118.797 85.5989Z" fill="white"/>
<path d="M197.22 50.5824H200.692C202.139 50.5824 203.586 51.8364 203.586 53.4763C203.586 55.0197 202.332 56.3702 200.692 56.3702H123.522C122.075 56.3702 120.628 55.1162 120.628 53.4763C120.628 52.0293 121.882 50.5824 123.522 50.5824H197.22Z" fill="#EE384E"/>
<path d="M168.668 62.5437H122.269C121.401 62.5437 120.822 61.8685 120.822 61.0968C120.822 60.2286 121.498 59.6498 122.269 59.6498H168.861C169.729 59.6498 170.308 60.3251 170.308 61.0968C170.404 61.8685 169.825 62.5437 168.668 62.5437Z" fill="#DBE9F8"/>
<path d="M125.645 76.3383C127.776 76.3383 129.503 74.6108 129.503 72.4798C129.503 70.3488 127.776 68.6213 125.645 68.6213C123.514 68.6213 121.786 70.3488 121.786 72.4798C121.786 74.6108 123.514 76.3383 125.645 76.3383Z" fill="#395196"/>
<path d="M136.064 76.3383C138.195 76.3383 139.922 74.6108 139.922 72.4798C139.922 70.3488 138.195 68.6213 136.064 68.6213C133.933 68.6213 132.205 70.3488 132.205 72.4798C132.205 74.6108 133.933 76.3383 136.064 76.3383Z" fill="#3D83D9"/>
<path d="M145.997 76.3383C148.128 76.3383 149.856 74.6108 149.856 72.4798C149.856 70.3488 148.128 68.6213 145.997 68.6213C143.866 68.6213 142.139 70.3488 142.139 72.4798C142.139 74.6108 143.866 76.3383 145.997 76.3383Z" fill="#00A9FF"/>
<path d="M156.322 76.3383C158.453 76.3383 160.181 74.6108 160.181 72.4798C160.181 70.3488 158.453 68.6213 156.322 68.6213C154.191 68.6213 152.464 70.3488 152.464 72.4798C152.464 74.6108 154.191 76.3383 156.322 76.3383Z" fill="#DD4B39"/>
<path d="M208.7 90.1327C208.7 89.5539 208.218 88.9751 207.543 88.9751H71.5296C70.9508 88.9751 70.3721 89.4574 70.3721 90.1327V111.547C70.3721 111.644 70.3721 111.644 70.3721 111.74C70.3721 111.837 70.3721 111.837 70.3721 111.933V128.718C70.3721 129.297 70.8544 129.875 71.5296 129.875H207.543C208.121 129.875 208.7 129.393 208.7 128.718V111.933C208.7 111.837 208.7 111.837 208.7 111.74C208.7 111.644 208.7 111.644 208.7 111.547V90.1327Z" fill="white"/>
<path d="M117.927 101.901H80.5959C79.2454 101.901 78.0879 100.743 78.0879 99.3926C78.0879 98.0421 79.2454 96.8845 80.5959 96.8845H117.831C119.181 96.8845 120.339 98.0421 120.339 99.3926C120.532 100.743 119.278 101.901 117.927 101.901Z" fill="#EE384E"/>
<path d="M189.02 106.145H79.0525C78.5702 106.145 78.0879 105.663 78.0879 105.18C78.0879 104.698 78.5702 104.216 79.0525 104.216H189.02C189.503 104.216 189.985 104.698 189.985 105.18C189.889 105.759 189.503 106.145 189.02 106.145Z" fill="#DBE9F8"/>
<path d="M145.899 110.486H79.243C78.7606 110.486 78.2783 110.004 78.2783 109.521C78.2783 109.039 78.7606 108.557 79.243 108.557H145.899C146.381 108.557 146.864 109.039 146.864 109.521C146.864 110.197 146.478 110.486 145.899 110.486Z" fill="#DBE9F8"/>
<path d="M82.1398 121.386C84.2708 121.386 85.9983 119.659 85.9983 117.528C85.9983 115.397 84.2708 113.669 82.1398 113.669C80.0088 113.669 78.2812 115.397 78.2812 117.528C78.2812 119.659 80.0088 121.386 82.1398 121.386Z" fill="#395196"/>
<path d="M92.5587 121.386C94.6897 121.386 96.4172 119.659 96.4172 117.528C96.4172 115.397 94.6897 113.669 92.5587 113.669C90.4277 113.669 88.7002 115.397 88.7002 117.528C88.7002 119.659 90.4277 121.386 92.5587 121.386Z" fill="#3D83D9"/>
<path d="M102.492 121.386C104.623 121.386 106.351 119.659 106.351 117.528C106.351 115.397 104.623 113.669 102.492 113.669C100.361 113.669 98.6338 115.397 98.6338 117.528C98.6338 119.659 100.361 121.386 102.492 121.386Z" fill="#00A9FF"/>
<path d="M112.818 121.386C114.949 121.386 116.676 119.659 116.676 117.528C116.676 115.397 114.949 113.669 112.818 113.669C110.687 113.669 108.959 115.397 108.959 117.528C108.959 119.659 110.687 121.386 112.818 121.386Z" fill="#DD4B39"/>
<path d="M136.255 115.019L121.207 103.251C121.207 103.251 120.725 103.058 120.146 102.093C119.567 101.129 118.41 100.357 117.734 100.646L116.287 99.2959C116.287 99.2959 115.805 99.1994 116.287 99.6818C116.77 100.164 117.156 100.743 117.156 100.743C117.156 100.743 116.673 100.936 116.77 101.225C116.77 101.225 116.384 101.322 116.384 101.611C116.384 101.611 115.419 101.804 116.384 102.769C117.348 103.733 117.541 104.023 118.41 104.312C119.374 104.794 120.146 105.277 121.014 106.145C121.979 107.109 134.133 118.781 134.133 118.781L136.255 115.019Z" fill="#FFBE9B"/>
<path d="M143.393 112.126C143.393 112.126 146.866 112.029 147.348 108.171C147.831 104.312 145.323 102.962 143.876 102.286C142.429 101.418 141.561 101.611 140.789 100.55C140.114 99.4889 139.824 99.1995 139.824 99.1995C139.824 99.1995 136.93 102.19 138.956 104.698C140.789 107.302 143.393 112.126 143.393 112.126Z" fill="#180857"/>
<path d="M148.989 178.878C148.989 178.974 148.989 178.974 148.989 178.878C149.086 179.456 149.664 181.868 148.314 181.964C146.963 181.964 141.947 182.061 141.272 182.061C141.272 182.061 141.176 182.061 141.176 181.964C141.176 181.772 141.079 181.289 141.369 181.096C141.369 181.096 144.359 179.746 145.324 178.974C146.095 178.106 148.507 178.685 148.989 178.878Z" fill="#170856"/>
<path d="M136.06 178.493C136.157 179.071 136.736 181.869 135.385 181.869C134.035 181.965 127.861 181.869 126.993 181.869C126.993 181.869 126.896 181.869 126.896 181.772C126.8 181.579 126.8 181.194 127.379 180.904C127.379 180.904 130.851 179.554 132.395 178.589C133.745 177.528 135.675 178.396 136.06 178.493Z" fill="#170856"/>
<path d="M149.759 136.049L148.988 178.975L145.129 178.878L142.235 151.676L142.525 143.959L144.743 135.952L149.759 136.049Z" fill="#DE051F"/>
<path d="M145.612 135.952C145.612 135.952 142.043 154.087 140.886 156.306L135.869 178.589H132.107L134.423 136.049L145.612 135.952Z" fill="#EE384E"/>
<path d="M139.053 104.698C139.053 104.698 137.22 106.145 137.22 109.039C137.22 111.933 137.702 111.933 138.667 111.933C139.631 111.933 140.596 111.836 140.692 112.415C140.789 112.994 140.692 115.405 140.499 115.984C140.307 116.659 145.033 115.984 145.033 115.984C145.033 115.984 143.779 112.415 143.586 110.775C143.393 109.328 143.586 107.302 142.622 105.952C141.561 104.505 140.403 103.347 139.053 104.698Z" fill="#FFBE9B"/>
<path d="M140.017 116.756L136.062 114.633L133.939 118.878L138.28 122.351L140.017 116.756Z" fill="#F79F03"/>
<path d="M145.612 116.37C145.612 116.37 147.927 118.878 148.699 125.245C149.567 131.515 149.664 136.048 149.664 136.048H134.712C134.712 136.048 135.869 127.174 136.738 122.544C137.702 117.913 139.632 116.081 139.632 116.081C139.632 116.081 140.114 115.502 140.693 115.888C141.271 116.273 142.622 116.37 143.972 115.791C145.033 115.019 145.323 115.791 145.612 116.37Z" fill="#FCBE42"/>
<path d="M142.621 107.013C142.621 107.013 143.489 106.82 143.779 107.206C144.165 107.688 143.682 108.46 142.911 108.749C142.428 109.135 142.621 107.013 142.621 107.013Z" fill="#FFBE9B"/>
<path d="M140.499 124.183C140.499 124.183 138.762 136.048 137.991 139.328C137.123 142.704 135.869 145.598 135.869 145.598C135.869 145.598 135.29 147.045 135.869 147.624C136.447 148.202 137.798 148.781 138.184 147.817C138.377 146.755 138.377 144.537 138.859 144.247C139.245 143.765 142.428 136.241 143.586 131.804C144.647 127.27 144.84 125.341 144.84 125.341L140.499 124.183Z" fill="#FFBE9B"/>
<path d="M140.021 124.762C140.021 124.762 141.082 118.299 143.783 118.106C143.783 118.106 145.23 118.106 145.326 120.421C145.422 122.737 145.133 125.727 145.133 125.727L140.021 124.762Z" fill="#F79F03"/>
</svg>
