<svg width="270" height="186" viewBox="0 0 270 186" fill="none" xmlns="http://www.w3.org/2000/svg">
<path d="M133.23 184.83C193.549 184.83 242.448 180.203 242.448 174.496C242.448 168.789 193.549 164.162 133.23 164.162C72.911 164.162 24.0127 168.789 24.0127 174.496C24.0127 180.203 72.911 184.83 133.23 184.83Z" fill="#E8E7EC"/>
<path d="M79.4746 140.651C79.4746 140.651 79.759 142.452 80.6123 144.823L83.7409 146.34L81.2759 146.719C84.0253 153.64 90.8514 163.5 106.4 161.509C106.4 161.698 113.984 142.073 79.4746 140.651Z" fill="#FABD41"/>
<path d="M83.5513 151.459L96.3502 152.786L79.4746 140.651" stroke="white" stroke-width="0.5" stroke-miterlimit="10" stroke-linecap="round" stroke-linejoin="round"/>
<path d="M90.376 141.979L96.3488 152.787" stroke="white" stroke-width="0.5" stroke-miterlimit="10" stroke-linecap="round" stroke-linejoin="round"/>
<path d="M89.3342 129.18C89.3342 129.18 93.6005 126.336 94.359 128.801C95.2122 131.266 96.3499 131.171 97.5824 131.076C98.8149 130.792 100.806 129.654 101.564 132.498C102.323 135.248 101.564 136.859 102.797 137.807C104.029 138.661 107.822 143.685 105.262 144.539C102.797 145.392 99.763 143.306 98.7201 142.168C97.6772 140.936 95.4967 140.936 93.7901 141.315C91.9888 141.694 89.8083 140.936 90.5667 138.85C91.3252 136.764 90.1875 134.584 88.6706 134.205C87.2485 133.446 86.49 131.076 89.3342 129.18Z" fill="#1C4599"/>
<path d="M91.6074 131.55L106.208 146.056" stroke="white" stroke-width="0.5" stroke-miterlimit="10" stroke-linecap="round" stroke-linejoin="round"/>
<path d="M98.6253 132.782L97.4877 137.522L92.4629 138.281" stroke="white" stroke-width="0.5" stroke-miterlimit="10" stroke-linecap="round" stroke-linejoin="round"/>
<path d="M85.6381 135.721C85.6381 135.721 85.6381 138.375 87.4395 137.332C89.2408 136.29 90.4733 136.195 91.2317 138.186C91.9902 140.177 93.2227 140.935 94.4552 140.556C95.6876 140.177 97.6786 139.134 98.6267 141.978C99.4799 144.727 101.66 149.847 98.7215 151.269C95.8773 152.691 91.3265 150.795 90.5681 148.804C89.8096 146.813 90.5681 145.012 88.2927 144.253C86.0174 143.59 85.6381 145.865 83.6472 144.348C81.6562 142.831 79.3809 141.504 80.8978 138.186C82.4147 135.152 85.2589 134.204 85.6381 135.721Z" stroke="#ED3B4E" stroke-width="0.5" stroke-miterlimit="10"/>
<path d="M85.0723 138.564C85.0723 138.564 97.7764 148.329 101.663 150.131" stroke="#ED3B4E" stroke-width="0.5" stroke-miterlimit="10"/>
<path d="M95.2133 142.262L95.5926 146.339L92.3691 147.761" stroke="#ED3B4E" stroke-width="0.5" stroke-miterlimit="10"/>
<path d="M88.8627 138.28L88.7679 141.314L86.1133 142.926" stroke="#ED3B4E" stroke-width="0.5" stroke-miterlimit="10"/>
<path d="M94.9311 98.5553C110.535 98.5553 123.184 85.9062 123.184 70.3028C123.184 54.6995 110.535 42.0504 94.9311 42.0504C79.3277 42.0504 66.6787 54.6995 66.6787 70.3028C66.6787 85.9062 79.3277 98.5553 94.9311 98.5553Z" stroke="#DD1F26" stroke-width="0.5" stroke-miterlimit="10" stroke-dasharray="4 4"/>
<path d="M72.5548 57.0306C74.5445 57.0306 76.1575 55.4176 76.1575 53.4279C76.1575 51.4382 74.5445 49.8253 72.5548 49.8253C70.5651 49.8253 68.9521 51.4382 68.9521 53.4279C68.9521 55.4176 70.5651 57.0306 72.5548 57.0306Z" fill="#24499F"/>
<path d="M73.5971 52.1005L70.7529 52.9538L72.8387 54.4707L73.5971 52.1005Z" fill="white"/>
<path d="M140.724 17.6867C140.724 17.6867 137.311 20.4361 140.44 21.6686C143.663 22.901 144.991 24.418 143.284 27.4518C141.483 30.4856 142.052 32.9506 143.663 34.0882C145.465 35.2259 148.783 36.9324 146.128 40.8195C143.474 44.8014 139.113 52.86 134.372 50.5846C129.632 48.3093 127.357 40.5351 129.253 37.5013C131.149 34.4675 134.278 33.6142 132.761 30.0116C131.244 26.4089 128.02 28.2102 127.831 24.1335C127.736 19.8672 127.167 15.6009 132.95 14.3684C138.07 13.0411 142.052 15.6957 140.724 17.6867Z" stroke="#1C4599" stroke-miterlimit="10"/>
<path d="M136.177 20.3409C136.177 20.3409 136.651 46.792 138.263 53.4285" stroke="#1C4599" stroke-miterlimit="10"/>
<path d="M142.052 37.1219L137.027 41.8623L131.907 39.0181" stroke="#1C4599" stroke-miterlimit="10"/>
<path d="M140.537 24.7973L136.46 27.6415L131.814 25.935" stroke="#1C4599" stroke-miterlimit="10"/>
<path d="M151.815 18.066C151.815 18.066 159.874 20.531 157.599 24.2285C155.229 27.8312 156.556 29.2533 158.073 30.5805C159.59 32.0026 163.192 33.4248 160.443 37.1222C157.693 40.8197 154.754 41.4833 155.039 44.0431C155.323 46.5081 152.669 56.5576 148.876 54.3771C145.084 52.1017 144.705 46.1289 145.274 43.4743C145.748 41.0093 143.472 38.0703 141.292 36.1742C139.017 34.3728 137.784 30.6754 141.197 29.5377C144.705 28.3052 146.222 24.7973 145.179 22.2375C144.041 19.8674 146.411 16.4543 151.815 18.066Z" fill="#FABD41"/>
<path d="M151.053 23.47L147.071 57.4109" stroke="white" stroke-miterlimit="10" stroke-linecap="round" stroke-linejoin="round"/>
<path d="M156.838 33.8991L149.443 37.3122L143.091 31.9082" stroke="white" stroke-miterlimit="10" stroke-linecap="round" stroke-linejoin="round"/>
<path d="M114.176 22.7114C114.176 22.7114 110.953 20.3413 113.039 17.5919C115.03 14.8425 120.149 14.8425 121.287 17.4971C122.425 19.962 120.908 21.8582 123.183 22.2374C125.458 22.6166 131.431 24.6076 130.199 27.5466C128.966 30.3908 125.458 30.5804 126.975 34.4675C128.492 38.2598 135.887 39.0182 132 44.2326C128.113 49.5418 119.201 56.7471 114.65 47.7404C110.289 38.7338 120.054 40.4403 114.745 34.6571C109.436 28.8739 113.892 28.5895 115.219 26.4089C116.736 23.8491 114.176 22.7114 114.176 22.7114Z" fill="#EE384E"/>
<path d="M120.243 26.1237C120.243 26.1237 120.717 36.6473 124.509 45.3695C128.302 54.0917 130.387 55.3242 130.387 55.3242" stroke="white" stroke-miterlimit="10" stroke-linecap="round" stroke-linejoin="round"/>
<path d="M100.428 40.9118C99.3855 40.9118 98.5322 41.6703 98.5322 42.8079V171.84C98.5322 172.883 99.3855 173.736 100.428 173.736H169.732C170.775 173.736 171.628 172.978 171.628 171.84V42.8079C171.628 41.7651 170.775 40.9118 169.732 40.9118H100.428Z" fill="#1466B1"/>
<path d="M170.205 49.2541H99.7637V165.487H170.205V49.2541Z" fill="white" stroke="#1466B1" stroke-width="2" stroke-miterlimit="10"/>
<path d="M145.079 45.2722C145.079 45.7463 144.605 46.3151 144.036 46.3151C143.562 46.3151 142.993 45.8411 142.993 45.2722C142.993 44.7982 143.467 44.2294 144.036 44.2294C144.605 44.2294 145.079 44.7034 145.079 45.2722Z" fill="#012257"/>
<path d="M142.804 45.2728C142.804 45.7468 142.425 46.126 141.951 46.126H125.928C125.454 46.126 125.075 45.7468 125.075 45.2728C125.075 44.7987 125.454 44.4195 125.928 44.4195H141.951C142.33 44.4195 142.804 44.7039 142.804 45.2728Z" fill="#012257"/>
<path opacity="0.05" d="M164.613 95.1422C164.613 108.226 154.09 118.749 141.006 118.749C127.923 118.749 117.399 108.226 117.399 95.1422C117.399 82.0588 127.923 71.5353 141.006 71.5353C154.09 71.5353 164.613 82.0588 164.613 95.1422Z" fill="#1466B1"/>
<path d="M159.018 93.7205C159.018 106.804 148.495 117.327 135.412 117.327C122.328 117.327 111.805 106.899 111.805 93.7205C111.805 80.5424 122.328 70.1136 135.412 70.1136C148.495 70.2085 159.018 80.732 159.018 93.7205Z" fill="#C7D6EE"/>
<mask id="mask0_1409_4158" style="mask-type:luminance" maskUnits="userSpaceOnUse" x="111" y="70" width="49" height="48">
<path d="M135.425 117.331C148.463 117.331 159.032 106.761 159.032 93.7237C159.032 80.686 148.463 70.1168 135.425 70.1168C122.388 70.1168 111.818 80.686 111.818 93.7237C111.818 106.761 122.388 117.331 135.425 117.331Z" fill="white"/>
</mask>
<g mask="url(#mask0_1409_4158)">
<path d="M155.239 116.192C154.86 117.045 154.196 117.33 153.343 117.33C141.776 117.33 130.21 117.33 118.738 117.33C118.359 117.33 117.885 117.235 117.601 117.045C117.127 116.761 116.842 116.287 116.937 115.623C117.98 109.176 121.203 104.341 126.892 101.213C127.176 101.118 127.271 101.213 127.366 101.308C128.598 102.54 130.115 103.393 131.727 104.057C133.813 104.815 135.993 105.1 138.174 104.721C140.544 104.341 142.819 103.204 144.526 101.592C144.81 101.308 145 101.213 145.284 101.497C150.404 104.531 153.722 108.892 154.86 114.77C154.955 115.055 154.955 115.434 155.144 115.623C155.239 115.813 155.239 116.003 155.239 116.192Z" fill="#1466B1"/>
<path d="M136.089 103.203C130.022 103.203 125.187 98.2734 125.187 92.3006C125.187 86.1381 130.116 81.303 136.089 81.303C142.157 81.303 147.087 86.3277 146.992 92.2058C146.992 98.1786 142.062 103.203 136.089 103.203Z" fill="#1466B1"/>
</g>
<path d="M160.917 123.962C160.917 124.816 160.158 125.479 159.4 125.479H111.712C110.859 125.479 110.195 124.721 110.195 123.962C110.195 123.109 110.954 122.445 111.712 122.445H159.4C160.158 122.351 160.917 123.109 160.917 123.962Z" fill="#DEE6F5"/>
<path d="M160.917 133.729C160.917 134.582 160.158 135.246 159.4 135.246H111.712C110.859 135.246 110.195 134.487 110.195 133.729C110.195 132.875 110.954 132.212 111.712 132.212H159.4C160.158 132.022 160.917 132.781 160.917 133.729Z" fill="#DEE6F5"/>
<path fill-rule="evenodd" clip-rule="evenodd" d="M120.72 144.82C120.435 144.536 120.056 144.346 119.677 144.157C119.298 144.062 118.918 143.872 118.444 143.872C118.065 143.872 117.686 143.967 117.307 144.157C116.928 144.251 116.643 144.536 116.453 144.82C116.169 145.105 115.979 145.484 115.79 145.674C115.695 146.053 115.505 146.432 115.505 146.906C115.505 147.38 115.6 147.759 115.79 148.139C115.885 148.518 116.169 148.802 116.453 148.992C116.738 149.276 117.117 149.466 117.307 149.655C117.686 149.75 118.065 149.94 118.444 149.94C118.824 149.94 119.203 149.94 119.582 149.845C119.961 149.75 120.246 149.561 120.435 149.371C120.53 149.276 120.72 149.087 120.815 148.897C120.909 148.613 121.099 148.518 121.099 148.139H118.444V146.622H122.806C122.806 146.716 122.806 146.906 122.9 147.001C122.9 147.096 122.9 147.285 122.9 147.38C122.9 148.044 122.806 148.518 122.616 148.992C122.521 149.466 122.142 150.035 121.857 150.414C121.478 150.793 121.004 151.172 120.435 151.457C119.961 151.741 119.203 151.836 118.539 151.836C117.876 151.836 117.307 151.741 116.643 151.457C115.979 151.172 115.505 150.983 115.126 150.414C114.747 150.035 114.368 149.561 114.083 148.897C113.799 148.233 113.704 147.665 113.704 147.001C113.704 146.337 113.799 145.768 114.083 145.105C114.368 144.441 114.747 144.062 115.126 143.588C115.505 143.209 115.979 142.829 116.643 142.545C117.307 142.261 117.781 142.166 118.539 142.166C119.298 142.166 119.961 142.261 120.53 142.545C121.194 142.829 121.573 143.209 122.047 143.588L120.72 144.82Z" fill="#737373"/>
<path fill-rule="evenodd" clip-rule="evenodd" d="M132.002 148.898C132.002 149.656 131.718 150.32 131.149 150.794C130.58 151.268 129.916 151.553 129.063 151.553C128.305 151.553 127.641 151.268 127.072 150.889C126.409 150.51 126.029 149.846 125.935 149.088L127.072 148.614C127.167 148.898 127.167 149.088 127.357 149.372C127.451 149.656 127.641 149.751 127.831 149.846C127.926 149.941 128.21 150.13 128.494 150.225C128.779 150.32 128.968 150.32 129.158 150.32C129.632 150.32 130.201 150.225 130.39 149.941C130.77 149.656 130.865 149.277 130.865 148.803C130.865 148.424 130.77 148.045 130.485 147.76C130.201 147.476 129.727 147.286 128.968 147.002C128.21 146.717 127.831 146.623 127.546 146.528C126.503 146.054 126.124 145.39 126.124 144.442C126.124 143.778 126.409 143.21 126.883 142.83C127.357 142.356 128.02 142.072 128.874 142.072C129.537 142.072 130.106 142.167 130.675 142.546C131.149 142.925 131.528 143.304 131.718 143.778L130.675 144.158C130.58 143.778 130.39 143.494 130.011 143.304C129.727 143.02 129.348 142.925 128.874 142.925C128.4 142.925 128.02 143.02 127.736 143.304C127.451 143.589 127.262 143.778 127.262 144.158C127.262 144.442 127.357 144.821 127.641 144.916C127.926 145.201 128.494 145.39 129.442 145.675C130.296 145.959 130.959 146.338 131.339 146.812C131.907 147.76 132.002 148.234 132.002 148.898Z" fill="#737373"/>
<path fill-rule="evenodd" clip-rule="evenodd" d="M138.451 151.268H137.313V150.415C137.218 150.699 136.839 150.889 136.555 151.173C136.176 151.458 135.796 151.458 135.417 151.458C134.659 151.458 133.995 151.173 133.616 150.794C133.237 150.415 132.952 149.751 132.952 148.898V144.916H134.09V148.708C134.09 149.751 134.564 150.225 135.607 150.225C136.081 150.225 136.46 150.13 136.744 149.751C137.029 149.372 137.218 148.993 137.218 148.329V144.916H138.356V151.268H138.451Z" fill="#737373"/>
<path fill-rule="evenodd" clip-rule="evenodd" d="M141.103 143.21C141.103 143.495 141.008 143.589 140.819 143.874C140.724 143.969 140.44 144.158 140.155 144.158C139.871 144.158 139.776 144.063 139.491 143.874C139.397 143.779 139.207 143.495 139.207 143.21C139.207 142.926 139.302 142.831 139.491 142.546C139.586 142.452 139.871 142.262 140.155 142.262C140.44 142.262 140.534 142.357 140.819 142.546C140.914 142.546 141.103 142.926 141.103 143.21ZM140.819 145.201V151.363H139.681V145.201H140.819Z" fill="#737373"/>
<path fill-rule="evenodd" clip-rule="evenodd" d="M144.326 151.458C143.852 151.458 143.472 151.364 143.093 150.984C142.714 150.7 142.619 150.226 142.619 149.752V146.339H141.481V145.296H142.619V143.4H143.757V145.296H145.274V146.339H143.662V149.373C143.662 149.752 143.757 150.036 143.946 150.226C144.041 150.321 144.326 150.51 144.42 150.51C144.515 150.51 144.515 150.51 144.705 150.51C144.8 150.51 144.8 150.51 144.989 150.415L145.369 151.458C145.084 151.458 144.705 151.458 144.326 151.458Z" fill="#737373"/>
<path fill-rule="evenodd" clip-rule="evenodd" d="M148.593 151.458C147.74 151.458 146.982 151.174 146.318 150.605C145.654 149.941 145.465 149.183 145.465 148.235C145.465 147.381 145.749 146.433 146.318 145.864C146.982 145.201 147.551 145.011 148.404 145.011C149.257 145.011 150.016 145.296 150.49 145.864C150.964 146.528 151.248 147.287 151.248 148.329V148.424H146.508C146.508 149.088 146.792 149.562 147.171 149.941C147.551 150.32 148.025 150.415 148.593 150.415C149.352 150.415 149.826 150.036 150.395 149.278L151.438 149.752C151.153 150.226 150.774 150.605 150.3 150.984C149.731 151.458 149.257 151.458 148.593 151.458ZM146.792 147.476H150.3C150.3 147.097 150.016 146.718 149.826 146.433C149.542 146.149 149.068 146.054 148.593 146.054C148.214 146.054 147.835 146.149 147.456 146.433C147.077 146.718 146.792 147.002 146.792 147.476Z" fill="#737373"/>
<path d="M216.656 149.372C216.656 149.372 218.458 148.613 218.268 146.622C218.173 144.631 217.13 143.209 219.311 143.778C221.397 144.442 222.155 144.631 223.672 144.252C225.189 143.873 226.421 143.209 225.758 145.295C225.094 147.286 224.336 148.898 226.042 149.277C227.654 149.561 229.266 148.424 229.55 151.552C229.834 154.681 227.275 158.189 223.103 158.284C219.121 158.378 217.225 156.767 217.225 156.767C217.225 156.767 216.087 155.25 217.889 154.871C219.69 154.491 221.397 153.733 220.354 152.974C219.5 152.216 216.561 152.121 216.561 152.121C216.561 152.121 213.148 151.458 216.656 149.372Z" fill="#6B9CD3"/>
<path d="M235.333 149.846C235.049 147.855 235.333 146.433 238.936 145.864C242.728 145.39 244.814 147.665 245.099 149.846C245.383 152.121 242.065 152.974 242.065 152.974C242.065 152.974 239.789 153.638 240.927 155.629C242.065 157.62 242.728 159.516 239.884 159.895C237.135 160.274 234.385 159.516 232.774 158.378C231.162 157.335 229.55 154.586 231.352 153.069C231.352 153.069 231.826 152.69 233.627 152.595C235.618 152.69 235.333 149.846 235.333 149.846Z" fill="#1C4599"/>
<path d="M222.249 149.561C222.249 149.561 225.283 156.577 225.757 161.317" stroke="#88D6F8" stroke-miterlimit="10" stroke-linecap="round" stroke-linejoin="round"/>
<path d="M239.503 150.604C239.503 150.604 234.004 158.663 232.771 161.412" stroke="#599FD2" stroke-miterlimit="10" stroke-linecap="round" stroke-linejoin="round"/>
<path d="M223.96 160.749H236.474C236.474 160.749 237.896 160.844 237.707 162.74C237.612 164.541 235.432 164.162 234.294 164.162C233.156 164.162 223.675 164.162 223.675 164.162C223.675 164.162 222.159 164.446 222.159 162.645C222.064 160.749 222.633 160.749 223.96 160.749Z" fill="#0256A4"/>
<path d="M223.678 164.067L225.574 175.16H234.012L235.339 166.912L223.678 164.067Z" fill="#0256A4"/>
<path d="M223.678 164.067L235.339 166.912L235.813 164.067H223.678Z" fill="#346BB4"/>
<path d="M229.075 161.223C229.075 161.223 229.739 148.898 233.342 141.313Z" fill="#FABD41"/>
<path d="M236.375 136.763C236.375 136.763 236.66 140.555 232.962 142.072C232.962 141.977 232.204 138.659 236.375 136.763Z" fill="#FABD41"/>
<path d="M230.781 148.614C230.781 148.614 232.203 145.391 236.28 145.865C236.375 145.865 235.996 149.088 230.781 148.614Z" fill="#FABD41"/>
<path d="M229.454 156.767C229.454 156.767 230.213 153.354 234.384 152.974C234.384 152.974 234.574 156.198 229.454 156.767Z" fill="#FABD41"/>
<path d="M229.359 156.767C229.359 156.767 229.833 153.259 226.136 151.457C225.946 151.742 224.714 154.586 229.359 156.767Z" fill="#FABD41"/>
<path d="M230.782 148.614C230.782 148.614 231.635 145.201 228.128 142.925C228.222 143.21 226.421 145.864 230.782 148.614Z" fill="#FABD41"/>
<path d="M224.427 54.3508L219.589 55.7075L220.946 60.5459L225.784 59.1892L224.427 54.3508Z" fill="#ED3B4E"/>
<path d="M28.8383 115.9L24 117.257L25.3567 122.095L30.195 120.738L28.8383 115.9Z" fill="#24499F"/>
<path d="M85.1656 8.39493C85.1656 8.39493 85.0707 8.30012 84.8811 8.39493L83.3642 8.67935C83.0798 8.67935 82.985 8.58454 82.8902 8.39493C82.7954 7.63648 82.4162 6.97283 82.1317 6.40399C82.0369 6.30918 82.1317 6.02476 82.2265 5.92995L83.3642 5.1715C83.3642 5.1715 83.459 5.07669 83.459 4.88708C83.459 4.79227 83.459 4.79227 83.3642 4.60266L81.6577 2.89614C81.6577 2.89614 81.5629 2.80133 81.3733 2.80133C81.2785 2.80133 81.2785 2.80133 81.0889 2.89614L80.2356 4.03382C80.1408 4.12862 79.8564 4.31824 79.7616 4.12862C79.0979 3.7494 78.5291 3.46498 77.7706 3.37017C77.4862 3.37017 77.3914 3.08575 77.4862 2.89614L77.7706 1.37923C77.7706 1.28442 77.7706 1.28442 77.7706 1.09481C77.7706 1.09481 77.6758 1 77.4862 1H75.116C75.0212 1 75.0212 1 74.8316 1.09481C74.8316 1.09481 74.7368 1.18961 74.8316 1.37923L75.116 2.89614C75.116 3.18056 75.0212 3.27536 74.8316 3.37017C74.0732 3.46498 73.4095 3.8442 72.8407 4.12862C72.7459 4.22343 72.4614 4.12862 72.3666 4.03382L71.5134 2.89614C71.5134 2.89614 71.4186 2.80133 71.229 2.80133C71.1341 2.80133 71.1342 2.80133 70.9445 2.89614L69.1432 4.69747C69.1432 4.69747 69.0484 4.79227 69.0484 4.98189C69.0484 5.07669 69.0484 5.07669 69.1432 5.26631L70.2809 6.11957C70.3757 6.21437 70.5653 6.49879 70.3757 6.5936C69.9965 7.25725 69.712 7.82609 69.6172 8.58454C69.6172 8.86896 69.3328 8.96377 69.1432 8.86896L67.6263 8.58454C67.5315 8.58454 67.5315 8.58454 67.3419 8.58454C67.3419 8.58454 67.2471 8.67935 67.2471 8.86896V11.2391C67.2471 11.3339 67.2471 11.3339 67.3419 11.5236C67.3419 11.5236 67.4367 11.6184 67.6263 11.5236L69.1432 11.2391C69.4276 11.2391 69.5224 11.3339 69.6172 11.5236C69.712 12.282 70.0913 12.9457 70.3757 13.5145C70.4705 13.6093 70.3757 13.8937 70.2809 13.9885L69.1432 14.8418C69.1432 14.8418 69.0484 14.9366 69.0484 15.1262C69.0484 15.221 69.0484 15.221 69.1432 15.4106L70.9445 17.212C70.9445 17.212 71.0393 17.3068 71.229 17.3068C71.3238 17.3068 71.3238 17.3068 71.5134 17.212L72.3666 16.0743C72.4614 15.9795 72.7459 15.7899 72.8407 15.9795C73.5043 16.3587 74.0732 16.6431 74.8316 16.7379C75.116 16.7379 75.2108 17.0223 75.116 17.212L74.8316 18.5393C74.8316 18.6341 74.8316 18.6341 74.8316 18.8237C74.8316 18.8237 74.9264 18.9185 75.116 18.9185H77.4862C77.581 18.9185 77.581 18.9185 77.7706 18.8237C77.7706 18.8237 77.8654 18.7289 77.7706 18.5393L77.4862 17.0223C77.4862 16.7379 77.581 16.6431 77.7706 16.5483C78.5291 16.4535 79.1927 16.0743 79.7616 15.7899C79.8564 15.6951 80.1408 15.7899 80.2356 15.8847L81.0889 17.0223C81.0889 17.0223 81.1837 17.1172 81.3733 17.1172C81.5629 17.1172 81.4681 17.1172 81.6577 17.0223L83.459 15.221C83.459 15.221 83.5538 15.1262 83.5538 14.9366C83.5538 14.8418 83.5538 14.8418 83.459 14.6522L82.3214 13.7989C82.2265 13.7041 82.0369 13.4197 82.2265 13.3249C82.6058 12.6612 82.8902 12.0924 82.985 11.3339C82.985 11.0495 83.2694 10.9547 83.459 11.0495L84.9759 11.3339C85.0707 11.3339 85.0707 11.3339 85.2604 11.3339C85.2604 11.3339 85.3552 11.2391 85.3552 11.0495V8.77416C85.1656 8.67935 85.1656 8.67935 85.1656 8.39493ZM84.6915 10.9547L83.3642 10.7651C82.8902 10.7651 82.3214 11.0495 82.2265 11.5236C82.1317 12.1872 81.8473 12.756 81.4681 13.3249C81.1837 13.7989 81.3733 14.3678 81.7525 14.5574L82.6058 15.221L81.3733 16.4535L80.7096 15.6002C80.4252 15.221 79.8564 15.1262 79.4771 15.3158C79.0031 15.6951 78.3395 15.9795 77.6758 16.0743C77.2018 16.1691 76.8226 16.7379 76.9174 17.212L77.0122 18.4445H75.2108L75.3056 17.212C75.3056 16.7379 75.0212 16.1691 74.5472 16.0743C73.8835 15.9795 73.3147 15.6951 72.7459 15.3158C72.2718 15.0314 71.703 15.221 71.5134 15.6002L70.8497 16.4535L69.8069 15.221L70.6601 14.5574C71.0393 14.273 71.1342 13.7041 70.9445 13.3249C70.5653 12.8509 70.2809 12.1872 70.1861 11.5236C70.0913 11.0495 69.5224 10.6703 69.0484 10.7651L67.8159 10.8599V9.15339L69.0484 9.24819C69.5224 9.24819 70.0913 8.96377 70.1861 8.48974C70.2809 7.82609 70.5653 7.25725 70.9445 6.68841C71.229 6.21437 71.0393 5.64553 70.6601 5.45592L69.8069 4.79227L71.0393 3.55978L71.703 4.41304C71.9874 4.88708 72.6511 4.98189 73.0303 4.79227C73.5043 4.41304 74.168 4.12862 74.8316 4.03382C75.2108 3.8442 75.5901 3.37017 75.4953 2.89614L75.4005 1.66365H77.2018L77.0122 2.89614C77.0122 3.37017 77.2966 3.93901 77.7706 4.03382C78.4343 4.12862 79.0031 4.41304 79.572 4.79227C80.046 5.07669 80.6148 4.88708 80.8044 4.50785L81.4681 3.55978L82.7006 4.79227L81.8473 5.26631C81.4681 5.55073 81.3733 6.11957 81.5629 6.49879C81.9421 6.97283 82.2265 7.63648 82.3214 8.30012C82.4162 8.77416 82.8902 9.15338 83.3642 9.05858L84.5967 8.96377L84.6915 10.9547Z" fill="#24499F"/>
<path d="M76.1589 5.74011C73.7887 5.74011 71.8926 7.63625 71.8926 10.0064C71.8926 12.3766 73.7887 14.2727 76.1589 14.2727C78.5291 14.2727 80.4252 12.3766 80.4252 10.0064C80.4252 7.63625 78.5291 5.74011 76.1589 5.74011ZM76.1589 13.7039C74.1679 13.7039 72.5562 12.0922 72.5562 10.1012C72.5562 8.11028 74.1679 6.49857 76.1589 6.49857C78.1498 6.49857 79.7615 8.11028 79.7615 10.1012C79.7615 12.0922 78.1498 13.7039 76.1589 13.7039Z" fill="#24499F"/>
<path d="M193.438 27.5457H186.422C186.327 27.5457 186.138 27.6405 186.138 27.8301V30.6743V30.7691L186.896 31.5275H186.991H192.3H192.395L193.153 30.7691V30.6743V27.8301C193.627 27.6405 193.627 27.5457 193.438 27.5457ZM193.248 30.3899L192.49 31.1483H187.37L186.612 30.3899V27.9249H193.153L193.248 30.3899Z" fill="#24499F"/>
<path d="M193.908 28.3039L186.134 28.6831C186.039 28.6831 185.85 28.7779 185.85 28.9675C185.85 29.0623 185.944 29.252 186.134 29.252L193.908 28.8727C194.003 28.8727 194.193 28.7779 194.193 28.5883C194.193 28.3987 194.003 28.3039 193.908 28.3039Z" fill="#24499F"/>
<path d="M193.908 29.5365L186.134 29.9157C186.039 29.9157 185.85 30.0105 185.85 30.2001C185.85 30.295 185.944 30.4846 186.134 30.4846L193.908 30.1053C194.003 30.1053 194.193 30.0105 194.193 29.8209C194.193 29.6313 194.003 29.5365 193.908 29.5365Z" fill="#24499F"/>
<path d="M190.022 13.6089C186.134 13.6089 183.006 16.7375 183.006 20.6246C183.006 22.9948 184.238 25.2701 186.229 26.5026V27.7351C186.229 27.8299 186.324 28.0195 186.514 28.0195H193.529C193.624 28.0195 193.814 27.9247 193.814 27.7351V26.5026C195.805 25.2701 197.037 22.9948 197.037 20.6246C196.942 16.7375 193.909 13.6089 190.022 13.6089ZM193.435 26.1234L193.34 27.3559H186.798V26.2182C186.798 26.2182 186.798 26.1234 186.703 26.1234C184.712 24.8909 183.575 22.9 183.575 20.435C183.575 16.8323 186.609 13.8933 190.116 13.8933C193.719 13.8933 196.658 16.9271 196.658 20.435C196.563 22.9 195.426 24.7961 193.435 26.1234Z" fill="#24499F"/>
<path d="M191.918 31.148C191.823 31.148 191.633 31.148 191.633 31.2428C191.633 31.2428 191.254 32.0013 190.021 32.0013C188.789 32.0013 188.41 31.3376 188.41 31.2428C188.41 31.148 188.315 31.148 188.125 31.148C187.936 31.148 188.031 31.2428 188.031 31.4324C188.031 31.4324 188.505 32.4753 190.021 32.4753C191.538 32.4753 192.012 31.622 192.012 31.4324C192.012 31.4324 192.012 31.2428 191.918 31.148Z" fill="#24499F"/>
<path d="M181.2 20.3398H177.029C176.934 20.3398 176.744 20.4346 176.744 20.6243C176.744 20.7191 176.839 20.9087 177.029 20.9087H181.2C181.295 20.9087 181.484 20.8139 181.484 20.6243C181.39 20.3398 181.39 20.3398 181.2 20.3398Z" fill="#DD1F26"/>
<path d="M202.914 20.3401H198.837C198.742 20.3401 198.553 20.4349 198.553 20.6245C198.553 20.7193 198.648 20.9089 198.837 20.9089H203.009C203.103 20.9089 203.293 20.8141 203.293 20.6245C203.103 20.3401 202.914 20.3401 202.914 20.3401Z" fill="#DD1F26"/>
<path d="M182.623 24.7964C182.623 24.7016 182.339 24.7016 182.339 24.7964L178.831 26.7873C178.736 26.7873 178.736 27.0717 178.831 27.0717C178.831 27.0717 178.926 27.1666 179.115 27.1666C179.115 27.1666 179.115 27.1666 179.21 27.1666L182.718 25.1756C182.623 24.986 182.623 24.7964 182.623 24.7964Z" fill="#DD1F26"/>
<path d="M201.299 13.9888C201.299 13.894 201.015 13.894 201.015 13.9888L197.507 15.9797C197.412 15.9797 197.412 16.2641 197.507 16.2641C197.507 16.2641 197.601 16.3589 197.791 16.3589C197.791 16.3589 197.791 16.3589 197.886 16.3589L201.394 14.368C201.394 14.1784 201.394 14.0836 201.299 13.9888Z" fill="#DD1F26"/>
<path d="M196.558 9.24902C196.463 9.24902 196.273 9.24902 196.273 9.24902L194.282 12.7569C194.282 12.8517 194.282 13.0413 194.282 13.0413C194.282 13.0413 194.282 13.0413 194.377 13.0413C194.472 13.0413 194.472 13.0413 194.661 12.9465L196.558 9.24902C196.652 9.34383 196.652 9.24902 196.558 9.24902Z" fill="#DD1F26"/>
<path d="M190.019 7.4469C189.924 7.4469 189.734 7.54171 189.734 7.73132V11.9028C189.734 11.9976 189.829 12.1872 190.019 12.1872C190.114 12.1872 190.303 12.0924 190.303 11.9028V7.73132C190.114 7.4469 190.114 7.4469 190.019 7.4469Z" fill="#DD1F26"/>
<path d="M185.753 12.8504L183.762 9.34253C183.762 9.24772 183.477 9.24772 183.477 9.34253C183.383 9.34253 183.383 9.62695 183.477 9.62695L185.468 13.1348C185.468 13.1348 185.563 13.2296 185.753 13.2296C185.753 13.2296 185.753 13.2296 185.848 13.2296C185.753 13.1348 185.848 12.8504 185.753 12.8504Z" fill="#DD1F26"/>
<path d="M201.299 26.6932L197.791 24.7022C197.696 24.7022 197.507 24.7022 197.507 24.797C197.507 24.8918 197.507 25.0814 197.507 25.0814L201.015 27.0724C201.015 27.0724 201.015 27.0724 201.109 27.0724C201.109 27.0724 201.204 27.0724 201.394 26.9776C201.394 26.9776 201.394 26.8828 201.299 26.6932Z" fill="#DD1F26"/>
<path d="M182.529 15.9798L179.021 13.9889C178.926 13.9889 178.736 13.9889 178.736 13.9889C178.736 14.0837 178.736 14.2733 178.736 14.2733L182.244 16.2643C182.244 16.2643 182.244 16.2643 182.339 16.2643C182.434 16.2643 182.529 16.2643 182.529 15.9798C182.623 16.0746 182.623 15.9798 182.529 15.9798Z" fill="#DD1F26"/>
<path d="M190.683 27.5457V20.9093C190.683 20.9093 190.588 17.7806 192.295 17.7806C194.001 17.7806 193.148 21.0041 189.925 21.0041" stroke="#24499F" stroke-width="0.5" stroke-miterlimit="10"/>
<path d="M189.166 27.5457V20.9093C189.166 20.9093 189.26 17.7806 187.554 17.7806C185.753 17.7806 186.701 21.0041 189.924 21.0041" stroke="#24499F" stroke-width="0.5" stroke-miterlimit="10"/>
<path d="M75.4006 106.521H78.5293L82.0371 106.237C82.0371 106.237 82.4164 108.322 80.4254 108.607C78.4345 108.891 75.4006 109.27 74.9266 109.081C74.263 109.081 75.4006 106.521 75.4006 106.521Z" fill="#FBBE9B"/>
<path d="M73.2198 91.2558C73.2198 91.2558 76.4432 94.4793 76.8224 96.2806C77.2965 98.0819 76.3484 100.642 75.9692 101.59C75.6847 102.348 75.8744 112.208 75.8744 112.208H62.791V91.161L73.2198 91.2558Z" fill="#3867B1"/>
<path d="M80.7116 81.3017C80.7116 81.3017 80.4272 83.7667 79.8583 85.4732V86.7057C79.8583 86.8005 79.7635 86.9901 79.5739 86.9901L78.8154 86.8953V87.9382C78.8154 88.033 78.7206 88.2226 78.531 88.2226H77.8674C77.7726 88.2226 77.583 88.3174 77.583 88.507L77.6778 89.0759C77.6778 89.1707 77.6778 89.3603 77.3933 89.3603C76.9193 89.4551 75.8764 89.6447 74.7388 88.6966C73.5063 87.8434 72.7478 88.3174 72.7478 89.0759C72.7478 89.8343 73.4115 92.2045 72.3686 92.8681C71.5153 93.3422 68.7659 93.1526 68.1971 92.4889C67.5334 91.8253 68.1971 90.2135 69.0503 89.4551C69.714 88.7914 70.6621 81.6809 72.0842 80.9225C73.7907 80.3536 80.7116 81.3017 80.7116 81.3017Z" fill="#FBBC98"/>
<path d="M65.7303 101.4L65.6355 105.762C65.6355 106.141 65.9199 106.425 66.2992 106.425C66.6784 106.425 67.0576 106.425 67.9109 106.046C69.9018 105.287 74.8318 102.538 75.4006 102.159C75.4006 102.159 75.4954 102.159 75.4954 102.064C75.5902 101.78 76.2539 100.926 77.7708 101.021C79.5721 101.116 80.0462 101.495 79.7617 102.064C79.6669 102.538 79.3825 102.538 79.3825 102.538L79.6669 102.917C79.6669 102.917 79.3825 103.391 78.6241 103.391C77.8656 103.391 76.8227 103.012 76.6331 103.297C76.3487 103.581 68.5745 108.701 66.868 109.933C66.5836 110.028 66.394 110.217 66.0148 110.312C64.8771 110.597 62.1277 110.976 61.7484 109.08C61.2744 106.71 61.2744 101.4 61.2744 101.4H65.7303Z" fill="#FBBE9B"/>
<path d="M65.7317 93.6267C66.0161 93.5319 66.2057 93.6267 66.2057 93.9112V101.97C66.2057 102.254 66.1109 102.349 65.8265 102.349C65.5421 102.349 65.0681 102.349 64.2148 102.349C62.7927 102.349 61.7498 102.349 61.0862 102.349C60.8018 102.349 60.8018 102.254 60.8018 102.065L60.8966 96.3761C60.8966 96.2813 60.8966 96.0917 60.9914 96.0917L65.7317 93.6267Z" fill="#24499F"/>
<path d="M56.5361 97.0398C55.8725 94.5748 60.3284 90.9721 60.3284 90.9721C60.3284 90.9721 62.509 90.2137 62.7934 87.7487C63.1726 85.2837 65.5428 84.5253 66.5857 83.5772C67.6285 82.7239 68.387 80.5434 68.387 80.5434L68.4818 80.0693C68.4818 80.0693 70.2831 72.2952 76.256 74.2861C76.256 74.2861 79.0054 75.329 80.143 77.4148C80.143 77.4148 84.1249 78.0784 83.2717 81.207C82.5132 84.3356 80.6171 82.4395 80.6171 82.4395C80.6171 82.4395 79.8586 80.8278 79.0054 81.9655C78.1521 83.1032 76.1612 83.8616 75.4975 82.7239C74.8339 81.5863 73.6014 80.9226 73.2221 82.4395V83.198C73.2221 83.198 70.1883 86.9902 69.9987 88.2227C69.6195 89.6448 68.861 91.4462 67.3441 92.2046C65.8272 93.0579 64.3103 96.4709 63.5519 98.3671C62.7934 100.453 57.1998 100.832 56.5361 97.0398Z" fill="#1F1952"/>
<path d="M86.9703 97.4195H94.934L85.0741 108.227L77.1104 107.943L86.9703 97.4195Z" fill="#1C164F"/>
<path d="M87.4405 105.193C87.4405 105.193 88.1989 106.71 87.5353 107.089C86.7768 107.468 86.0184 107.563 85.7339 107.184C85.4495 106.805 85.2599 105.572 85.6391 105.667C86.0184 105.667 86.1132 105.762 86.1132 105.762V105.383C86.1132 105.288 86.1132 105.098 86.208 105.098C86.682 105.098 87.3456 104.719 87.4405 105.193Z" fill="#FBBE9B"/>
<path d="M73.6002 112.209L75.7808 112.114V174.023L70.9456 174.213L68.291 133.73L73.6002 112.209Z" fill="#DE051F"/>
<path d="M62.7925 112.304C62.7925 112.304 62.6977 114.484 62.5081 115.338C62.4133 115.812 59.4743 120.742 61.7496 126.62C61.7496 126.715 61.7496 126.904 61.8444 126.999C61.8444 128.421 62.2237 136.385 60.612 140.556L51.7949 168.998L55.208 171.369C55.208 171.369 66.7744 146.624 66.964 145.486C67.2484 144.349 74.7382 120.173 73.6953 113.347L73.4109 112.114L62.7925 112.304Z" fill="#EE384E"/>
<path d="M75.7814 174.023C75.7814 174.023 78.8152 175.634 80.1425 176.014C81.1854 176.298 81.375 177.056 81.5646 177.436C81.5646 177.53 81.5646 177.72 81.4698 177.72H70.9463V174.212L75.7814 174.023Z" fill="#221D56"/>
<path d="M55.2074 171.178C55.2074 171.178 56.0606 173.643 57.9568 175.16C59.8529 176.677 57.9568 177.625 57.9568 177.625L50.1826 172.695C50.0878 172.411 49.7086 171.652 50.1826 170.894C50.6566 170.041 51.9839 168.619 51.9839 168.619L55.2074 171.178Z" fill="#221D56"/>
<path d="M197.983 77.7945C197.983 77.6997 197.983 77.5101 197.983 77.5101C197.888 77.1309 197.509 76.7517 197.225 76.4672C196.561 75.9932 195.803 75.7088 195.139 75.8036C194.854 75.8036 194.665 75.8984 194.38 76.088C191.631 77.1309 190.493 75.8036 190.493 75.8036C190.493 75.8036 188.028 73.7178 186.986 76.088C185.943 78.4582 187.839 79.8803 188.502 79.6907C189.166 79.5959 191.536 79.4062 192.105 80.4491C192.769 81.492 194.096 82.2504 194.57 82.0608C194.949 81.966 195.044 82.5349 195.044 82.8193C195.044 83.2933 194.76 83.8622 194.38 84.2414C194.286 84.3362 194.096 84.5258 194.096 84.6206C194.096 84.7154 194.096 84.7154 194.096 84.905C194.096 85.5687 194.191 86.0427 194.38 86.7064C194.475 87.1804 194.76 88.9817 195.613 88.6973C196.845 88.4129 199.784 87.0856 199.5 82.4401C199.5 82.4401 199.784 80.6387 198.647 79.6907C198.362 79.4062 197.794 79.2166 197.794 78.6478C197.604 78.4582 197.888 78.0789 197.983 77.7945Z" fill="#1F1954"/>
<path d="M188.977 78.8372C188.977 78.8372 186.512 81.9659 187.365 87.0854C187.365 87.0854 188.029 89.1712 189.451 89.3608C190.683 89.4556 190.209 90.8777 190.209 91.2569C189.925 92.2998 189.83 91.731 189.451 92.679C189.166 93.5323 190.494 95.144 191.726 95.144C192.959 95.144 195.234 93.6271 195.613 92.8687C195.993 92.1102 195.898 89.74 195.139 88.2231C194.381 86.7062 194.855 84.336 194.855 84.336C194.855 84.336 197.509 82.3451 195.329 81.2074C193.433 80.3542 189.451 78.458 188.977 78.8372Z" fill="#FBBE99"/>
<path d="M181.297 98.7469L177.884 103.392C177.884 103.392 177.41 104.246 176.367 103.866C174.85 103.392 168.972 100.833 168.972 100.833C168.972 100.833 168.308 98.9365 167.455 98.4625C166.602 97.9884 163.284 97.704 163.568 100.264C163.852 102.824 165.464 103.013 166.223 102.918C166.981 102.918 171.532 106.142 172.006 106.426C172.48 106.711 177.031 108.891 177.031 108.891C177.031 108.891 178.642 109.65 180.159 108.038C181.676 106.426 185.658 102.255 185.658 102.255L183.762 99.6002L181.297 98.7469Z" fill="#FBBE99"/>
<path d="M187.461 94.2917C187.461 94.2917 183.1 96.3774 181.678 98.2736L181.204 98.7476L184.996 101.971L187.461 94.2917Z" fill="#F59F1D"/>
<path d="M195.899 90.9728C195.899 91.2573 195.899 91.3521 195.804 91.6365C195.804 91.9209 195.71 92.0157 195.52 92.3001C195.33 92.5846 195.236 92.7742 195.046 92.9638C194.762 93.2482 194.572 93.4378 194.287 93.6274C194.003 93.9119 193.624 94.0067 193.245 94.1015C192.865 94.1963 192.391 94.3859 192.012 94.3859C191.917 94.3859 191.728 94.3859 191.633 94.3859C191.538 94.3859 191.348 94.2911 191.254 94.1015C190.969 94.0067 190.78 93.7222 190.495 93.4378C190.116 93.1534 189.832 92.7742 189.452 92.3949C189.452 92.3949 185.66 93.817 184.712 101.591L184.617 119.32L203.673 118.846L198.554 93.9118C198.459 93.6274 196.847 91.5417 195.899 90.9728Z" fill="#FCBE42"/>
<path d="M203.29 101.875C203.29 101.875 201.489 93.3428 198.171 93.6272C194.758 93.9116 195.895 100.738 196.654 102.918L203.29 101.875Z" fill="#F59F1D"/>
<path d="M184.71 119.224L188.597 173.264L193.337 173.549L194.854 142.926L193.053 119.035L184.71 119.224Z" fill="#0054A3"/>
<path d="M190.305 119.035C190.305 119.035 191.348 140.651 195.045 147.857C198.837 154.967 203.578 169.093 206.611 171.558L210.593 168.904C210.593 168.904 202.345 145.961 202.724 139.419L203.767 118.751L190.305 119.035Z" fill="#0064E1"/>
<path d="M196.561 102.918C196.561 102.918 199.595 108.417 199.595 109.65C199.595 110.882 200.069 115.148 199.595 119.32C199.595 119.32 197.983 125.767 197.509 126.336L196.276 127.853C196.276 127.853 195.518 128.99 197.035 128.327C197.035 128.327 197.793 128.706 197.414 129.085C197.035 129.464 196.182 129.464 195.897 130.318C195.897 130.318 194.475 130.792 195.518 131.55C195.518 131.55 196.75 132.593 197.414 131.834C197.414 131.834 198.552 131.834 198.552 131.076C198.552 131.076 199.595 130.602 199.784 128.706C200.069 126.715 201.396 124.819 201.775 124.06C201.775 124.06 204.43 115.243 204.43 114.864C204.43 114.58 204.43 114.2 204.43 114.011C204.43 113.347 204.43 112.778 204.43 112.115C204.43 111.356 204.43 110.598 204.43 109.839C204.43 109.081 204.335 108.322 204.145 107.564C204.051 106.805 203.766 106.142 203.766 105.573C203.766 105.289 203.766 104.909 203.671 104.72C203.671 104.056 203.576 103.487 203.387 102.729C203.387 102.634 203.292 101.97 203.292 101.875L196.561 102.918Z" fill="#FBBE99"/>
<path d="M193.338 173.55L188.598 173.171C188.598 173.171 184.806 175.92 183.478 176.204C181.961 176.489 181.393 177.342 182.435 177.437C183.478 177.532 192.58 177.532 192.58 177.532C192.58 177.532 193.623 177.437 193.338 173.55Z" fill="#201A56"/>
<path d="M206.515 171.464C206.515 171.464 204.619 175.256 203.861 176.109C203.102 177.152 201.965 179.332 203.861 178.195C205.473 177.152 210.877 173.549 211.919 172.791C212.014 172.791 212.014 172.506 212.014 172.506C212.014 172.412 212.014 172.222 212.014 172.032C212.014 171.558 211.73 170.61 211.256 170.041C210.497 168.904 210.497 168.904 210.497 168.904L206.515 171.464Z" fill="#201A56"/>
</svg>
