<svg width="270" height="186" viewBox="0 0 270 186" fill="none" xmlns="http://www.w3.org/2000/svg">
<path d="M165.762 147.63C165.671 147.63 165.581 147.54 165.401 147.45C165.311 147.27 165.401 147.09 165.581 146.91C166.122 146.73 218.613 128.1 215.546 108.66C214.103 99.48 180.192 100.56 144.026 101.64C102.268 102.9 59.2479 104.25 51.8524 91.38C49.8682 87.78 49.8682 83.91 51.8524 79.5C58.9774 65.1 86.3048 51.6 102.088 44.76C126.349 34.23 154.488 25.86 175.592 22.89C175.773 22.89 175.953 22.98 175.953 23.25C175.953 23.43 175.863 23.61 175.592 23.61C154.668 26.49 126.619 34.95 102.449 45.3C75.933 57 57.7147 69.51 52.6641 79.77C50.6799 83.82 50.6799 87.69 52.5739 90.93C59.7891 103.53 104.613 102 144.206 100.83C182.086 99.66 214.825 98.76 216.358 108.3C217.621 116.76 209.504 125.85 192.187 135.48C179.47 142.86 165.942 147.63 165.762 147.63Z" fill="#3867B1"/>
<path d="M230.519 168.24H214.735V168.33H230.519V168.24Z" fill="#EBEBEB"/>
<path d="M173.699 169.5H169.46V169.59H173.699V169.5Z" fill="#EBEBEB"/>
<path d="M214.193 163.83H204.994V163.92H214.193V163.83Z" fill="#EBEBEB"/>
<path d="M60.7817 164.64H40.0381V164.73H60.7817V164.64Z" fill="#EBEBEB"/>
<path d="M67.9069 164.64H64.9307V164.73H67.9069V164.64Z" fill="#EBEBEB"/>
<path d="M122.742 166.53H77.8271V166.62H122.742V166.53Z" fill="#EBEBEB"/>
<path d="M128.514 139.17H35.8896C34.2662 139.17 33.0938 138 33.0938 136.38V6.69002C33.0938 5.07002 34.2662 3.90002 35.8896 3.90002H128.424C130.047 3.90002 131.22 5.07002 131.22 6.69002V136.56C131.22 138 130.047 139.17 128.514 139.17ZM35.8896 3.99002C34.4466 3.99002 33.2741 5.16002 33.2741 6.60002V136.47C33.2741 137.91 34.4466 139.08 35.8896 139.08H128.424C129.867 139.08 131.04 137.91 131.04 136.47V6.69002C131.04 5.25002 129.867 4.08002 128.424 4.08002C128.514 3.99002 35.8896 3.99002 35.8896 3.99002Z" fill="#EBEBEB"/>
<path d="M232.142 139.17H139.607C137.984 139.17 136.812 138 136.812 136.38V6.69002C136.812 5.07002 137.984 3.90002 139.607 3.90002H232.142C233.765 3.90002 234.938 5.07002 234.938 6.69002V136.56C234.938 138 233.765 139.17 232.142 139.17ZM139.607 3.99002C138.164 3.99002 136.992 5.16002 136.992 6.60002V136.47C136.992 137.91 138.164 139.08 139.607 139.08H232.142C233.585 139.08 234.757 137.91 234.757 136.47V6.69002C234.757 5.25002 233.585 4.08002 232.142 4.08002C232.142 3.99002 139.607 3.99002 139.607 3.99002Z" fill="#EBEBEB"/>
<path d="M240.71 160.68H28.8545V160.77H240.71V160.68Z" fill="#EBEBEB"/>
<path d="M134.737 182.1C186.092 182.1 227.723 179.682 227.723 176.7C227.723 173.718 186.092 171.3 134.737 171.3C83.3829 171.3 41.752 173.718 41.752 176.7C41.752 179.682 83.3829 182.1 134.737 182.1Z" fill="#F5F5F5"/>
<path d="M156.833 66.36L156.923 62.67C156.923 62.67 157.915 61.68 157.915 60.96C157.915 60.33 156.743 56.64 156.202 56.55C155.661 56.46 152.955 57.63 152.955 58.44C152.955 59.25 154.398 62.22 154.669 62.49L154.308 66.36H156.833Z" fill="#FBBE99"/>
<path d="M197.328 61.23L196.065 57.54C196.065 57.54 194.893 56.73 194.442 56.28C193.991 55.83 196.065 52.41 196.336 52.41C196.697 52.41 198.681 53.49 198.951 53.85C199.132 54.21 197.779 56.91 197.779 56.91L199.673 59.97L197.328 61.23Z" fill="#FBBE99"/>
<path d="M189.932 60.51C191.736 60.6 200.124 69.69 200.124 69.69L196.516 59.52L199.402 58.53C199.402 58.53 206.527 69.96 204.904 73.92C203.28 78.15 189.481 68.52 189.481 68.52L189.932 60.51Z" fill="#F59F1D"/>
<path d="M162.786 168.24L160.892 165.63L164.048 162.57L167.295 159.51L170.091 162.12L166.303 165.36L162.786 168.24Z" fill="#FBBE99"/>
<path d="M160.801 164.91C160.982 164.73 163.597 168.42 163.597 168.42C163.597 168.42 162.966 172.2 164.229 174.63C165.311 177.15 163.146 176.97 161.343 174.54C159.539 172.2 158.276 170.49 156.923 168.87C155.48 167.07 157.735 167.07 160.801 164.91Z" fill="#170856"/>
<path d="M182.627 172.29H179.29L178.659 167.7L178.298 163.74L182.086 163.11L182.266 168.06L182.627 172.29Z" fill="#FBBE99"/>
<path d="M178.568 172.02C178.568 171.66 182.988 171.93 182.988 171.93C182.988 171.93 185.784 174.72 188.309 175.35C190.924 175.98 189.481 177.42 186.505 177.42C183.529 177.42 181.274 177.42 179.2 177.42C177.216 177.6 178.478 175.8 178.568 172.02Z" fill="#170856"/>
<path d="M190.565 94.44C190.565 94.44 200.215 117.03 201.658 127.02C203.281 136.92 169.099 163.47 169.099 163.47L165.582 159.78C165.582 159.78 190.925 133.77 190.925 129.27C190.925 124.86 181.095 104.43 181.095 104.43C181.095 104.43 180.193 96.24 190.565 94.44Z" fill="#407BFF"/>
<path d="M183.71 151.14C180.192 154.38 176.855 157.26 174.24 159.42C171.264 161.94 169.189 163.47 169.189 163.47L165.672 159.78C165.672 159.78 169.189 156.18 173.609 151.5C177.126 147.81 181.004 143.4 184.431 139.44C188.219 134.94 191.105 130.8 191.105 129.36C191.105 126.93 188.309 120.27 185.694 114.24C183.349 108.93 181.184 104.43 181.184 104.43C181.184 104.43 181.094 103.26 181.365 101.64C182.086 99.12 184.161 95.52 190.564 94.44C190.564 94.44 200.214 117.03 201.567 127.02C202.65 132.33 192.819 142.77 183.71 151.14Z" fill="#DD1F26"/>
<path opacity="0.2" d="M184.161 139.44L183.529 151.14C180.012 154.38 176.675 157.26 174.059 159.42C173.699 157.62 173.248 154.74 173.338 151.5C176.855 147.72 181.004 143.4 184.161 139.44Z" fill="black"/>
<path opacity="0.2" d="M185.694 114.24C183.349 108.93 181.184 104.43 181.184 104.43C181.184 104.43 181.094 103.26 181.365 101.64C181.996 101.28 182.447 101.1 182.447 101.1C182.447 101.1 185.333 105.69 185.694 114.24Z" fill="black"/>
<path d="M173.248 42.51C173.248 42.51 176.134 38.91 180.914 39.63C185.694 40.44 184.792 49.26 184.792 49.26C184.792 49.26 187.768 51.6 186.776 55.56C185.784 59.43 175.052 61.86 170.813 59.07C166.574 56.28 169.821 47.46 171.895 46.29C174.06 45.12 173.248 42.51 173.248 42.51Z" fill="#170856"/>
<path d="M182.627 101.28L183.258 133.05V165.63H177.847C164.95 103.89 173.789 88.5 173.789 88.5C173.789 88.5 173.789 88.5 173.789 88.41C175.773 83.73 189.482 87.24 189.482 87.24C190.474 91.02 191.105 98.85 191.105 98.85L182.627 101.28Z" fill="#407BFF"/>
<path d="M182.627 101.28L183.258 133.05V165.63H177.847C164.95 103.89 173.789 88.5 173.789 88.5C173.789 88.5 173.789 88.5 173.789 88.41C175.773 83.73 189.482 87.24 189.482 87.24C190.474 91.02 191.105 98.85 191.105 98.85L182.627 101.28Z" fill="#DD1F26"/>
<path d="M173.608 85.98V88.32L189.392 87.15V84.36L173.608 85.98Z" fill="#2E353A"/>
<path d="M179.011 85.062L178.2 85.1033L178.398 88.9682L179.209 88.9269L179.011 85.062Z" fill="#407BFF"/>
<path d="M185.748 84.9273L182.245 85.2404L182.478 87.8399L185.982 87.5268L185.748 84.9273Z" fill="white"/>
<path d="M188.481 83.9817L187.67 84.0229L187.868 87.8879L188.678 87.8466L188.481 83.9817Z" fill="#407BFF"/>
<path opacity="0.6" d="M179.011 85.062L178.2 85.1033L178.398 88.9682L179.209 88.9269L179.011 85.062Z" fill="white"/>
<path opacity="0.6" d="M188.481 83.9817L187.67 84.0229L187.868 87.8879L188.678 87.8466L188.481 83.9817Z" fill="white"/>
<path d="M189.482 84.63L173.699 85.89C173.338 80.04 172.977 76.17 169.46 65.82C169.099 64.83 168.829 63.93 168.468 62.94C170.542 62.22 172.797 61.77 175.052 61.32C177.487 60.96 179.741 60.6 182.177 60.6C185.243 60.6 188.76 60.96 188.76 60.96C188.76 60.96 189.302 61.05 189.572 64.38C189.843 67.44 190.113 73.47 189.482 84.63Z" fill="#407BFF"/>
<path d="M189.482 84.63L173.699 85.89C173.338 80.04 172.977 76.17 169.46 65.82C169.099 64.83 168.829 63.93 168.468 62.94C170.542 62.22 172.797 61.77 175.052 61.32C177.487 60.96 179.741 60.6 182.177 60.6C185.243 60.6 188.76 60.96 188.76 60.96C188.76 60.96 189.302 61.05 189.572 64.38C189.843 67.44 190.113 73.47 189.482 84.63Z" fill="#FABD41"/>
<path d="M180.824 64.11C176.946 63.57 175.773 62.04 175.773 62.04C178.299 59.7 176.134 55.74 176.134 55.74L180.824 56.55C180.734 57.27 180.734 57.99 180.644 58.44C180.644 61.32 181.816 61.32 181.816 61.32C182.718 62.85 180.824 64.11 180.824 64.11Z" fill="#FBBE99"/>
<path opacity="0.2" d="M180.824 56.55C180.733 57.27 180.733 57.99 180.643 58.44C178.298 57.9 176.134 55.56 176.134 55.56L180.824 56.55Z" fill="black"/>
<path d="M176.675 43.68C180.553 42.69 182.357 44.49 183.8 48.54C185.424 53.58 185.063 57.54 179.922 57.54C172.617 57.63 170.001 45.12 176.675 43.68Z" fill="#FBBE99"/>
<path d="M173.97 51.24C173.97 51.24 175.052 47.55 174.15 45.12C174.15 45.12 181.275 40.08 183.439 48C183.439 48 182.447 40.71 175.593 42.15C168.739 43.59 171.174 53.67 175.413 55.65C175.503 55.65 173.158 53.49 173.97 51.24Z" fill="#170856"/>
<path d="M174.782 51.96C174.691 51.33 173.699 50.34 172.437 50.79C171.264 51.33 171.264 53.85 174.421 53.76C174.962 53.76 175.052 53.22 174.782 51.96Z" fill="#FBBE99"/>
<path d="M189.482 64.38C183.44 67.35 174.33 66.72 169.37 66C169.009 65.01 168.739 64.11 168.378 63.12C170.452 62.4 172.707 61.95 174.962 61.5C177.397 61.14 179.652 60.78 182.087 60.78C185.153 60.78 188.671 61.14 188.671 61.14C188.671 61.14 189.212 61.05 189.482 64.38Z" fill="#FBBE99"/>
<path d="M171.805 61.41C171.805 61.41 176.134 66.81 176.224 72.84C176.314 78.69 172.436 105.78 172.436 105.78L167.656 104.52C167.656 104.52 171.264 83.55 167.656 63.39L171.805 61.41Z" fill="#F59F1D"/>
<path d="M184.973 60.87C184.973 60.87 186.686 66.45 186.596 70.59C186.416 74.64 190.835 94.44 190.835 94.44L192.098 97.5L190.835 85.17C190.835 85.17 191.556 66.99 190.113 60.78C190.023 60.87 184.973 60.87 184.973 60.87Z" fill="#F59F1D"/>
<path d="M176.674 43.68C176.674 43.68 178.118 48.72 173.698 50.97C168.287 53.76 168.828 59.61 174.059 60.42C174.059 60.42 168.648 59.88 167.746 56.37C166.663 52.77 169.64 47.46 169.64 47.46C169.64 47.46 167.926 44.49 172.436 42.15C174.781 40.8 176.674 43.68 176.674 43.68Z" fill="#170856"/>
<path d="M192.638 49.89C191.826 48.45 190.203 47.82 189.031 48.45C187.858 49.08 187.587 50.88 188.399 52.23C189.211 53.58 190.834 54.3 192.007 53.67C193.179 53.13 193.54 51.42 192.638 49.89Z" fill="#407BFF"/>
<path d="M202.018 44.94L199.132 39.72C199.132 39.72 197.238 43.95 194.352 45.39L195.795 47.91L195.975 48.27L197.418 50.79C200.304 49.17 204.814 49.71 204.814 49.71L202.018 44.94Z" fill="#407BFF"/>
<path opacity="0.8" d="M192.638 49.89C191.826 48.45 190.203 47.82 189.031 48.45C187.858 49.08 187.587 50.88 188.399 52.23C189.211 53.58 190.834 54.3 192.007 53.67C193.179 53.13 193.54 51.42 192.638 49.89Z" fill="white"/>
<path opacity="0.8" d="M202.018 44.94L199.132 39.72C199.132 39.72 197.238 43.95 194.352 45.39L195.795 47.91L195.975 48.27L197.418 50.79C200.304 49.17 204.814 49.71 204.814 49.71L202.018 44.94Z" fill="white"/>
<path d="M192.548 53.04C192.548 53.04 194.532 56.01 196.426 57.09C196.516 57.18 196.787 57.09 196.787 57L198.5 55.02C198.591 54.93 198.591 54.66 198.41 54.48C197.598 54.12 195.795 53.22 194.712 51.96C193.089 50.34 192.548 53.04 192.548 53.04Z" fill="#407BFF"/>
<path opacity="0.3" d="M192.548 53.04C192.548 53.04 194.532 56.01 196.426 57.09C196.516 57.18 196.787 57.09 196.787 57L198.5 55.02C198.591 54.93 198.591 54.66 198.41 54.48C197.598 54.12 195.795 53.22 194.712 51.96C193.089 50.34 192.548 53.04 192.548 53.04Z" fill="black"/>
<path d="M204.814 50.07C204.182 50.43 202.288 48.36 200.755 45.57C199.042 42.69 198.32 40.08 198.951 39.72C199.583 39.36 201.477 41.43 203.01 44.22C204.723 47.01 205.625 49.71 204.814 50.07Z" fill="white"/>
<path opacity="0.4" d="M204.634 49.26C204.092 49.44 202.74 48 201.387 45.57C201.296 45.48 201.296 45.39 201.206 45.21C201.116 45.12 201.026 44.85 201.026 44.67C199.853 42.24 199.222 40.35 199.763 39.99C200.304 39.81 201.747 41.61 203.281 44.04C204.453 46.74 205.084 48.9 204.634 49.26Z" fill="black"/>
<path d="M191.827 54.3C191.827 54.3 191.105 53.76 189.933 51.51C188.67 49.08 188.67 48.45 188.67 48.45L194.983 44.94C194.983 44.94 195.073 45.75 196.246 48.18C197.508 50.52 198.14 50.97 198.14 50.97L191.827 54.3Z" fill="#3867B1"/>
<path d="M201.386 45.66C201.296 45.57 201.296 45.48 201.206 45.3C201.116 45.21 201.025 44.94 201.025 44.76L201.657 44.58C201.747 44.58 201.837 44.58 202.017 44.67V44.76C202.108 44.85 202.108 44.94 202.017 45.12L201.386 45.66Z" fill="white"/>
<path opacity="0.2" d="M201.386 45.66C201.296 45.57 201.296 45.48 201.206 45.3C201.116 45.21 201.025 44.94 201.025 44.76L201.657 44.58C201.747 44.58 201.837 44.58 202.017 44.67V44.76C202.108 44.85 202.108 44.94 202.017 45.12L201.386 45.66Z" fill="black"/>
<path d="M167.565 63.3C165.491 64.29 157.464 78.24 157.464 78.24L157.374 64.92L153.766 64.38C153.766 64.38 151.692 83.19 156.292 84.27C160.981 85.35 169.549 71.94 169.549 71.94L167.565 63.3Z" fill="#F59F1D"/>
<path d="M151.152 177.24H70.2517C67.6362 177.24 65.4717 175.17 65.4717 172.47V19.65C65.4717 17.04 67.546 14.88 70.2517 14.88H151.152C153.767 14.88 155.932 16.95 155.932 19.65V172.56C155.932 175.08 153.767 177.24 151.152 177.24Z" fill="#0064B7"/>
<path d="M152.955 20.28V171.57C152.955 172.74 151.963 173.64 150.611 173.64H70.5223C69.3498 173.64 68.5381 172.83 68.5381 171.66V20.1C68.5381 19.11 69.2596 18.21 70.2517 18.21H90.2737C90.9051 18.21 91.356 18.57 91.5364 19.2L92.3481 21.18C92.5285 21.72 93.0696 21.99 93.6108 21.99H127.793C128.424 21.99 128.875 21.63 129.055 21.18L129.867 19.2C130.047 18.66 130.588 18.21 131.13 18.21H150.971C152.144 18.3 152.955 19.2 152.955 20.28Z" fill="white"/>
<path d="M152.955 28.02H68.5381V46.92H152.955V28.02Z" fill="#DCE8F5"/>
<path opacity="0.6" d="M79.1809 22.89H78.0986V24.33H79.1809V22.89Z" fill="white"/>
<path opacity="0.6" d="M77.467 22.53H76.3848V24.33H77.467V22.53Z" fill="white"/>
<path opacity="0.6" d="M75.7532 21.99H74.6709V24.33H75.7532V21.99Z" fill="white"/>
<path opacity="0.6" d="M73.9495 21.54H72.8672V24.33H73.9495V21.54Z" fill="white"/>
<path opacity="0.6" d="M143.666 22.44H143.034V23.88H143.666V22.44Z" fill="white"/>
<path opacity="0.6" d="M148.807 21.99H143.937V24.42H148.807V21.99Z" fill="white"/>
<path d="M108.762 19.65C109.41 19.65 109.935 19.1262 109.935 18.48C109.935 17.8338 109.41 17.31 108.762 17.31C108.115 17.31 107.59 17.8338 107.59 18.48C107.59 19.1262 108.115 19.65 108.762 19.65Z" fill="white"/>
<path d="M112.28 18.48C112.28 18.84 111.919 19.2 111.558 19.2C111.198 19.2 110.837 18.84 110.837 18.48C110.837 18.12 111.198 17.76 111.558 17.76C112.009 17.67 112.28 17.94 112.28 18.48Z" fill="white"/>
<path d="M152.955 145.02V171.57C152.955 172.74 151.963 173.64 150.611 173.64H70.5223C69.3498 173.64 68.5381 172.83 68.5381 171.66V145.02H152.955Z" fill="#DCE8F5"/>
<path d="M77.7373 94.44L110.837 66.81L143.666 94.44L117.781 128.91L94.6929 128.55L77.7373 94.44Z" fill="#407BFF"/>
<path opacity="0.3" d="M77.7373 94.44L110.837 66.81L143.666 94.44L117.781 128.91L94.6929 128.55L77.7373 94.44Z" fill="black"/>
<path d="M131.311 125.94H90.0039C88.5608 125.94 87.208 124.77 87.208 123.15V60.42C87.208 58.98 88.3805 57.63 90.0039 57.63H131.401C132.844 57.63 134.197 58.8 134.197 60.42V123.33C134.107 124.77 132.934 125.94 131.311 125.94Z" fill="#DCE8F5"/>
<path d="M128.695 63.93H92.7094C92.529 63.93 92.3486 64.02 92.3486 64.29V65.01C92.3486 65.19 92.4388 65.37 92.7094 65.37H128.785C128.966 65.37 129.146 65.28 129.146 65.01V64.29C129.146 64.02 129.056 63.93 128.695 63.93Z" fill="white"/>
<path d="M128.695 68.52H92.7094C92.529 68.52 92.3486 68.61 92.3486 68.88V69.6C92.3486 69.78 92.4388 69.96 92.7094 69.96H128.785C128.966 69.96 129.146 69.87 129.146 69.6V68.88C129.146 68.7 129.056 68.52 128.695 68.52Z" fill="white"/>
<path d="M128.695 73.11H92.7094C92.529 73.11 92.3486 73.2 92.3486 73.47V74.19C92.3486 74.37 92.4388 74.55 92.7094 74.55H128.785C128.966 74.55 129.146 74.46 129.146 74.19V73.47C129.146 73.2 129.056 73.11 128.695 73.11Z" fill="white"/>
<path d="M128.695 77.79H92.7094C92.529 77.79 92.3486 77.88 92.3486 78.15V78.87C92.3486 79.05 92.4388 79.23 92.7094 79.23H128.785C128.966 79.23 129.146 79.14 129.146 78.87V78.24C129.146 77.88 129.056 77.79 128.695 77.79Z" fill="white"/>
<path d="M128.695 82.29H92.7094C92.529 82.29 92.3486 82.38 92.3486 82.65V83.37C92.3486 83.55 92.4388 83.73 92.7094 83.73H128.785C128.966 83.73 129.146 83.64 129.146 83.37V82.65C129.146 82.65 129.056 82.29 128.695 82.29Z" fill="white"/>
<path d="M128.695 86.97H92.7094C92.529 86.97 92.3486 87.06 92.3486 87.33V88.05C92.3486 88.23 92.4388 88.41 92.7094 88.41H128.785C128.966 88.41 129.146 88.32 129.146 88.05V87.33C129.146 87.15 129.056 86.97 128.695 86.97Z" fill="white"/>
<path d="M128.695 91.74H92.7094C92.529 91.74 92.3486 91.83 92.3486 92.1V92.82C92.3486 93 92.4388 93.18 92.7094 93.18H128.785C128.966 93.18 129.146 93.09 129.146 92.82V92.1C129.146 91.83 129.056 91.74 128.695 91.74Z" fill="white"/>
<path d="M128.695 96.24H92.7094C92.529 96.24 92.3486 96.33 92.3486 96.6V97.32C92.3486 97.5 92.4388 97.68 92.7094 97.68H128.785C128.966 97.68 129.146 97.59 129.146 97.32V96.6C129.146 96.51 129.056 96.24 128.695 96.24Z" fill="white"/>
<path d="M128.695 100.92H92.7094C92.529 100.92 92.3486 101.01 92.3486 101.28V102C92.3486 102.18 92.4388 102.36 92.7094 102.36H128.785C128.966 102.36 129.146 102.27 129.146 102V101.28C129.146 101.01 129.056 100.92 128.695 100.92Z" fill="white"/>
<path d="M112.37 118.47L112.19 118.38C111.469 118.02 110.747 118.02 110.116 118.38L109.304 118.92L77.6475 94.26V134.76C77.6475 135.93 78.6395 136.83 79.7218 136.83H141.502C142.674 136.83 143.305 135.84 143.305 134.76V94.26L112.37 118.47Z" fill="#3867B1"/>
<path d="M112.37 118.47L112.19 118.38C111.469 118.02 110.747 118.02 110.116 118.38L109.304 118.92L77.6475 94.26V134.76C77.6475 135.93 78.6395 136.83 79.7218 136.83H141.502C142.674 136.83 143.305 135.84 143.305 134.76V94.26L112.37 118.47Z" fill="#0064B7"/>
<path opacity="0.2" d="M107.861 117.75L109.304 118.92L86.8467 131.43L107.861 117.75Z" fill="black"/>
<path opacity="0.2" d="M136.811 131.97L112.37 118.47L113.633 117.66L136.811 131.97Z" fill="black"/>
<path d="M124.366 33.51H98.7518C98.1205 33.51 97.7598 32.97 97.7598 32.52V31.89C97.7598 31.26 98.3009 30.9 98.7518 30.9H124.275C124.907 30.9 125.268 31.44 125.268 31.89V32.52C125.268 33.06 124.907 33.51 124.366 33.51Z" fill="#3867B1"/>
<path d="M147.094 44.4H134.738C133.926 44.4 133.114 43.68 133.114 42.78C133.114 41.97 133.836 41.16 134.738 41.16H147.094C147.905 41.16 148.717 41.88 148.717 42.78C148.627 43.77 147.996 44.4 147.094 44.4Z" fill="#3867B1"/>
<path d="M87.0269 148.98H74.6709V160.59H87.0269V148.98Z" fill="#3867B1"/>
<path d="M101.999 148.98H89.6426V160.59H101.999V148.98Z" fill="#3867B1"/>
<path d="M116.879 148.98H104.523V160.59H116.879V148.98Z" fill="#3867B1"/>
<path d="M131.851 148.98H119.495V160.59H131.851V148.98Z" fill="#3867B1"/>
<path d="M146.913 148.98H134.557V160.59H146.913V148.98Z" fill="#3867B1"/>
<path d="M147.094 168.87H134.738C133.926 168.87 133.114 168.15 133.114 167.25C133.114 166.44 133.836 165.63 134.738 165.63H147.094C147.905 165.63 148.717 166.35 148.717 167.25C148.627 168.15 147.996 168.87 147.094 168.87Z" fill="#3867B1"/>
<path d="M180.103 25.14L195.705 16.86L181.997 21.45L180.103 25.14Z" fill="#407BFF"/>
<path opacity="0.3" d="M180.103 25.14L195.705 16.86L181.997 21.45L180.103 25.14Z" fill="black"/>
<path d="M176.404 17.85L179.2 19.83L180.102 25.14L181.996 21.45L186.956 23.88L195.705 16.86L176.404 17.85Z" fill="#407BFF"/>
<path d="M176.404 17.85L179.2 19.83L180.102 25.14L181.996 21.45L186.956 23.88L195.705 16.86L176.404 17.85Z" fill="#0064B7"/>
<path opacity="0.2" d="M179.2 19.83L195.705 16.86L181.996 21.45L180.102 25.14L179.2 19.83Z" fill="black"/>
<path d="M52.304 91.74C52.2138 91.74 52.1236 91.65 51.9432 91.56C49.959 87.96 49.959 84.09 51.9432 79.68C59.0682 65.28 86.3956 51.78 102.179 44.94C126.44 34.41 154.579 26.04 175.683 23.07C175.864 23.07 176.044 23.16 176.044 23.43C176.044 23.7 175.954 23.79 175.683 23.79C154.579 26.76 126.53 35.22 102.359 45.57C75.9336 57.09 57.7153 69.6 52.6647 79.86C50.6806 83.91 50.6806 87.78 52.5745 91.02C52.6647 91.11 52.5745 91.38 52.4843 91.56C52.4843 91.74 52.304 91.74 52.304 91.74Z" fill="#3867B1"/>
<path d="M165.762 147.63C165.672 147.63 165.582 147.54 165.402 147.45C165.311 147.27 165.402 147.09 165.582 146.91C166.123 146.73 218.613 128.1 215.547 108.66C215.547 108.48 215.637 108.3 215.908 108.3C216.088 108.3 216.268 108.39 216.268 108.66C217.531 117.12 209.414 126.21 192.098 135.84C179.471 142.86 165.943 147.63 165.762 147.63Z" fill="#3867B1"/>
</svg>
