<svg width="270" height="186" viewBox="0 0 270 186" fill="none" xmlns="http://www.w3.org/2000/svg">
<g clip-path="url(#clip0_1409_4158)">
<path d="M126.509 73.608C126.509 73.608 138.806 68.255 134.512 58.458C134.512 58.458 130.803 52.297 126.314 50.277C126.314 50.277 127.29 64.215 124.85 64.316C122.312 64.316 124.85 48.661 124.85 48.661C124.85 48.661 113.138 41.288 108.258 41.187C108.258 41.187 114.406 55.428 111.966 54.822C109.526 54.216 102.402 39.672 102.402 39.672C102.402 39.672 90.1039 35.834 87.2735 43.308C84.4431 50.782 87.2735 54.923 89.1279 55.731C90.9823 56.337 102.89 57.65 102.402 59.266C101.914 60.882 93.5199 62.498 89.2255 60.478C89.2255 60.478 92.8367 73.709 99.3759 73.911C106.013 74.012 108.453 70.073 112.552 70.174C116.651 70.275 119.482 71.79 117.237 72.699C115.09 73.608 108.355 72.093 104.744 74.618C101.23 77.143 98.3023 78.658 104.256 80.678C110.21 82.698 121.238 83.102 123.874 78.557C126.509 73.608 126.509 73.608 126.509 73.608Z" fill="#EE384E"/>
<path d="M92.7393 46.338C92.7393 46.338 124.166 60.983 126.606 73.608C126.606 73.608 125.923 79.163 128.461 85.627L128.266 88.051C128.266 88.051 125.728 79.365 124.069 78.153C123.971 78.254 132.365 68.457 92.7393 46.338Z" fill="white"/>
<path d="M128.461 85.728C128.461 85.728 132.657 94.212 128.656 103.504L127.485 102.999C127.485 102.999 129.925 92.596 127.68 86.839C125.825 81.284 128.461 85.728 128.461 85.728Z" fill="white"/>
<path d="M70.0957 80.779L72.9261 80.678V162.185L66.7773 162.286L63.3613 109.059L70.0957 80.779Z" fill="#003EB0"/>
<path d="M56.5291 80.779C56.5291 80.779 56.4315 83.506 56.2363 84.819C56.1387 85.526 52.3323 91.889 55.2603 99.565C55.2603 99.666 55.2603 99.868 55.3579 100.171C55.3579 101.888 55.9435 112.594 53.7963 117.947L42.6699 155.62L46.9643 158.953C46.9643 158.953 61.5067 126.431 61.8971 124.916C62.2875 123.502 71.8523 91.586 70.3883 82.698L69.9979 80.981L56.5291 80.779Z" fill="#0064E1"/>
<path d="M106.403 71.79C106.403 71.79 103.28 70.881 101.913 71.79C100.742 72.699 97.814 73.204 97.2284 73.204C97.1308 73.204 97.1308 73.204 97.1308 73.204V73.507C96.35 73.406 95.2764 73.305 94.1052 73.204C90.6892 72.8 86.3948 72.194 85.2236 71.487C82.686 69.871 78.0988 63.205 74.4876 59.064C74.39 58.862 74.0972 58.66 73.9996 58.458C73.902 58.357 73.8044 58.256 73.6092 58.054C73.6092 58.054 73.6092 58.054 73.5116 57.953C73.414 57.852 73.3164 57.751 73.1212 57.549C72.5356 56.943 71.2668 56.034 71.2668 56.034C70.7788 55.63 70.2908 55.63 69.9004 55.832C69.9004 55.832 69.4124 56.337 68.9244 57.246C68.8268 57.347 68.8268 57.65 68.7292 57.852C68.7292 57.953 68.6316 58.054 68.6316 58.256C68.4364 58.963 68.1436 60.175 68.1436 61.387C68.1436 62.296 68.8268 62.296 69.3148 63.508C69.3148 63.508 79.1724 74.517 83.5644 76.032C87.9564 77.547 93.6172 77.042 93.6172 77.042C95.2764 76.739 96.838 76.335 97.814 76.133C98.79 76.032 100.449 75.931 102.011 75.931C104.451 76.032 105.329 74.012 106.012 73.305C106.696 72.396 106.403 71.79 106.403 71.79Z" fill="#FFB27B"/>
<path d="M69.2168 56.236C69.2168 58.963 71.2664 66.74 71.7544 65.73C72.2424 64.619 74.292 60.074 75.3656 59.973C75.3656 59.872 71.364 55.226 71.1688 55.226C71.1688 55.327 70.0952 55.63 69.2168 56.236Z" fill="#EE384E"/>
<path d="M69.7053 53.004C69.7053 53.004 73.9021 57.347 74.2925 59.67C74.9757 61.993 73.6093 65.427 73.2189 66.639C72.9261 67.649 73.1213 81.688 73.1213 81.688H56.5293V52.903L69.7053 53.004Z" fill="#DE051F"/>
<path d="M79.1723 39.975C79.1723 39.975 78.8795 43.409 78.0987 45.429V47.045C78.0987 47.146 78.0011 47.348 77.8059 47.348L76.8299 47.247V48.56C76.8299 48.661 76.7323 48.863 76.5371 48.863H75.6587C75.5611 48.863 75.3659 48.964 75.3659 49.166L75.4635 49.873C75.4635 49.974 75.4635 50.176 75.1707 50.176C74.4875 50.277 73.3163 50.479 71.8523 49.267C70.2907 48.156 69.3147 48.661 69.3147 49.873C69.3147 50.883 70.1931 54.115 68.7291 54.923C67.6555 55.63 64.1419 55.226 63.4587 54.317C62.5803 53.408 63.4587 51.388 64.5323 50.277C65.4107 49.368 66.4843 39.975 68.4363 38.965C70.3883 38.662 79.1723 39.975 79.1723 39.975Z" fill="#FBBC98"/>
<path d="M72.926 162.185C72.926 162.185 76.83 164.205 78.4892 164.811C79.758 165.114 80.0508 166.124 80.1484 166.528C80.1484 166.629 80.1484 166.831 80.0508 166.831H66.582V162.185H72.926Z" fill="#221D56"/>
<path d="M46.8671 158.549C46.8671 158.549 47.8431 161.983 50.0879 164.003C52.3327 166.023 49.9903 167.437 49.9903 167.437L40.3278 160.67C40.2302 160.367 39.6446 159.357 40.4254 158.347C41.1086 157.236 42.7678 155.62 42.7678 155.62L46.8671 158.549Z" fill="#221D56"/>
<path d="M48.8192 75.9311C49.7952 69.5681 52.528 61.4881 52.528 61.4881C53.1136 60.3771 53.6992 59.3671 54.3824 58.5591C54.48 58.3571 54.7728 58.0541 54.968 57.8521C55.0656 57.7511 55.1632 57.6501 55.3584 57.4481C56.5296 57.5491 59.0672 58.0541 61.0192 60.3771C61.0192 60.4781 61.0192 60.5791 60.9216 60.7811C60.2384 63.3061 58.9696 66.5381 57.7984 69.6691C57.2128 71.2851 56.432 73.0021 55.8464 74.7191C55.456 75.6281 55.1632 76.6381 54.8704 77.3451C54.2848 78.9611 53.8944 80.2741 53.6992 81.1831C53.6016 81.7891 53.6992 82.9001 54.0896 84.3141C54.5776 86.7381 55.6512 90.0711 56.6272 92.7981C57.0176 93.9091 57.3104 95.0201 57.7008 95.9291C57.9936 97.0401 58.2864 97.9491 58.2864 97.9491L56.2368 99.3631C56.2368 99.3631 55.7488 98.7571 54.8704 97.6461C54.6752 97.4441 54.48 97.1411 54.48 97.1411C53.8944 96.2321 52.8208 94.0101 52.8208 94.0101C52.8208 94.0101 47.5504 84.2131 48.8192 75.9311Z" fill="#FFB27B"/>
<path d="M59.1644 68.154C57.1148 65.023 51.2588 63.609 51.2588 63.609C54.4796 52.802 63.166 53.812 63.166 53.812C63.166 53.812 60.0428 65.023 59.1644 68.154Z" fill="#EE384E"/>
<path d="M56.1396 99.262C56.1396 99.262 56.6276 99.969 56.7252 100.676C56.7252 101.181 57.2132 103.201 57.8964 103.807C58.482 104.413 60.0436 105.726 60.2388 105.423C60.3364 105.221 61.1172 103.807 60.434 102.797C60.2388 102.393 59.8484 101.08 59.458 100.777C58.97 100.373 58.0916 97.848 58.0916 97.848L56.1396 99.262Z" fill="#FFB27B"/>
<path d="M58.1885 98.353C58.1885 98.353 59.7501 99.262 60.0429 99.868C60.2381 100.474 61.1165 101.888 61.0189 102.09C60.9213 102.191 59.5549 101.383 59.0669 100.474C58.6765 99.565 58.1885 98.353 58.1885 98.353Z" fill="#FFB27B"/>
<path d="M48.3314 60.882C47.453 57.448 53.2114 52.903 53.2114 52.903C53.2114 52.903 55.8466 51.893 56.5298 48.56C57.1154 45.126 60.0434 44.217 61.4098 43.106C62.6786 41.995 63.6546 39.066 63.6546 39.066L63.7522 38.359C63.7522 38.359 65.997 28.057 73.7074 30.683C73.7074 30.683 77.221 31.996 78.7826 34.925C78.7826 34.925 83.9554 35.834 82.8818 39.975C81.9058 44.217 79.5634 41.591 79.5634 41.591C79.5634 41.591 78.5874 39.571 77.6114 40.884C76.5378 42.298 74.0002 43.308 73.1218 41.894C72.2434 40.48 70.7794 39.571 70.2914 41.591V42.601C70.2914 42.601 66.3874 47.651 66.0946 49.267C65.509 50.984 64.7282 53.61 62.7762 54.62C60.9218 55.731 58.8722 60.276 57.8962 62.599C56.5298 65.225 49.405 65.73 48.3314 60.882Z" fill="#1F1952"/>
<path d="M206.15 86.233C206.15 86.233 201.27 79.567 206.345 75.931C206.345 75.931 209.957 73.911 212.885 74.315C212.885 74.315 208.395 81.183 209.664 81.991C210.835 82.698 214.153 74.012 214.153 74.012C214.153 74.012 222.254 73.81 224.792 75.123C224.792 75.123 217.569 80.476 218.936 80.981C220.4 81.385 228.11 76.234 228.11 76.234C228.11 76.234 235.625 77.951 234.845 82.698C234.259 87.445 231.429 88.758 230.355 88.455C229.281 88.354 222.742 85.223 222.449 86.233C222.352 87.142 226.061 90.576 228.891 90.879C228.891 90.879 223.23 96.636 219.814 94.616C216.398 92.596 216.301 89.869 214.153 88.758C212.104 87.647 210.152 87.546 211.03 88.657C211.909 89.768 215.715 91.081 216.984 93.404C218.155 95.828 219.131 97.444 215.52 96.535C211.909 95.828 206.248 92.697 206.053 89.364C206.15 86.233 206.15 86.233 206.15 86.233Z" fill="#FCBE42"/>
<path d="M231.33 82.597C231.33 82.597 211.03 80.476 206.15 86.233C206.15 86.233 204.978 89.263 201.758 91.889L201.27 93.101C201.27 93.101 204.978 89.465 206.345 89.364C206.345 89.364 204.686 81.789 231.33 82.597Z" fill="white"/>
<path d="M201.855 91.788C201.855 91.788 197.268 94.818 196.683 100.777L197.366 100.878C197.366 100.878 199.025 94.717 201.855 92.495C204.491 90.374 201.855 91.788 201.855 91.788Z" fill="white"/>
<path d="M182.726 70.477C182.726 70.477 172.088 64.316 177.065 55.933C177.065 55.933 181.067 50.782 185.264 49.469C185.264 49.469 182.921 61.892 185.264 62.195C187.606 62.397 186.825 48.156 186.825 48.156C186.825 48.156 197.952 42.5 202.441 43.005C202.441 43.005 195.414 55.125 197.757 54.923C200.099 54.721 207.809 42.298 207.809 42.298C207.809 42.298 219.326 40.177 221.083 47.146C222.937 54.115 220.009 57.65 218.253 58.155C216.593 58.559 205.662 58.357 205.955 59.872C206.15 61.387 213.568 63.609 217.667 62.397C217.667 62.397 213.177 73.911 207.126 73.406C201.173 72.901 199.221 69.063 195.609 68.76C191.998 68.558 189.168 69.467 191.12 70.477C192.974 71.487 199.221 70.679 202.149 73.507C205.174 76.133 207.614 77.749 202.051 78.86C196.488 79.971 186.533 79.264 184.581 74.82C182.726 70.477 182.726 70.477 182.726 70.477Z" fill="#023EA1"/>
<path d="M215.91 49.368C215.91 49.368 186.142 59.266 182.726 70.578C182.726 70.578 182.824 75.628 179.896 81.183V83.304C179.896 83.304 183.019 75.83 184.776 74.82C184.678 74.921 177.944 65.225 215.91 49.368Z" fill="white"/>
<path d="M179.798 81.183C179.798 81.183 175.211 88.455 177.846 97.242L179.017 97.04C179.017 97.04 177.943 87.445 180.188 82.496C182.726 77.547 179.798 81.183 179.798 81.183Z" fill="white"/>
<path d="M101.23 105.019C99.0831 101.787 98.7903 98.757 98.7903 98.757C98.7903 98.757 104.841 94.212 101.23 89.566C101.23 89.566 98.3999 86.637 95.7647 86.233C95.7647 86.233 97.9118 93.606 96.643 94.01C95.2766 94.212 94.7887 85.526 94.7887 85.526C94.7887 85.526 87.6639 82.9 85.0287 83.506C85.0287 83.506 90.1038 90.374 88.6398 90.374C87.2734 90.374 81.6127 83.405 81.6127 83.405C81.6127 83.405 74.4879 82.9 73.9023 87.243C73.3167 91.586 75.2687 93.606 76.3423 93.707C77.4159 93.808 84.0526 93 83.955 93.808C83.8574 94.717 79.563 96.737 76.9278 96.232C76.9278 96.232 80.4415 102.999 84.0527 102.292C87.6639 101.585 88.5422 99.06 90.6894 98.656C92.8366 98.252 94.5934 98.656 93.6174 99.363C92.6414 100.07 88.7375 100.07 87.0783 101.888C85.4191 103.605 84.0527 104.817 87.4687 105.12C90.8847 105.322 96.9359 104.413 97.7167 101.484C97.7167 101.383 97.7167 101.282 97.8143 101.08C97.8143 101.282 97.7167 101.484 97.7167 101.484C98.3023 101.686 99.5711 103.504 100.254 104.716C100.352 104.918 100.449 105.221 100.742 105.625C100.84 105.726 100.84 105.827 100.937 106.029C102.401 108.958 102.401 114.311 102.401 114.311L103.085 114.412C104.549 109.059 101.23 105.019 101.23 105.019Z" fill="#023EA1"/>
<path d="M89.6152 89.263L148.956 52.6C152.177 50.58 156.374 50.58 159.594 52.6L218.935 89.263V149.156L89.8104 142.49L89.6152 89.263Z" fill="#0064B7"/>
<path d="M207.517 62.801H100.645V158.448H207.517V62.801Z" fill="white"/>
<path d="M103.865 66.942C103.865 66.336 104.353 65.831 104.939 65.831C105.524 65.831 106.012 66.336 106.012 66.942C106.012 67.548 105.524 68.053 104.939 68.053C104.353 68.154 103.865 67.649 103.865 66.942Z" fill="#FBCBAA"/>
<path d="M202.051 66.942C202.051 66.336 202.539 65.831 203.124 65.831C203.71 65.831 204.198 66.336 204.198 66.942C204.198 67.548 203.71 68.053 203.124 68.053C202.539 68.154 202.051 67.649 202.051 66.942Z" fill="#FBCBAA"/>
<path d="M203.319 66.841H105.134V67.043H203.319V66.841Z" fill="#67C2F1" stroke="#003EB0" stroke-width="2" stroke-miterlimit="10"/>
<path d="M105.231 66.639H105.036V168.245H105.231V66.639Z" fill="#67C2F1" stroke="#003EB0" stroke-width="2" stroke-miterlimit="10"/>
<path d="M203.319 66.639H203.124V168.245H203.319V66.639Z" fill="#67C2F1" stroke="#003EB0" stroke-width="2" stroke-miterlimit="10"/>
<path d="M218.74 89.162V169.154H89.6152V89.162L154.129 129.259L218.74 89.162Z" fill="#0064B7"/>
<path d="M89.6152 169.154L148.761 125.219C151.982 122.795 156.374 122.795 159.497 125.219L218.642 169.154H89.6152Z" fill="#023EA1"/>
<path d="M173.844 76.133H134.902C134.414 76.133 133.926 75.628 133.926 75.123C133.926 74.618 134.414 74.113 134.902 74.113H173.844C174.332 74.113 174.82 74.618 174.82 75.123C174.918 75.628 174.43 76.133 173.844 76.133Z" fill="#C7D7F0"/>
<path d="M183.897 80.375H124.849C124.361 80.375 123.873 79.87 123.873 79.365C123.873 78.86 124.361 78.355 124.849 78.355H183.897C184.385 78.355 184.873 78.86 184.873 79.365C184.971 79.87 184.483 80.375 183.897 80.375Z" fill="#C7D7F0"/>
<path d="M176.284 93.707H133.535C133.144 93.707 132.852 93.303 132.852 93C132.852 92.596 133.242 92.293 133.535 92.293H176.284C176.674 92.293 176.967 92.697 176.967 93C176.967 93.303 176.674 93.707 176.284 93.707Z" fill="#C7D7F0"/>
<path d="M137.83 97.646H125.727C125.337 97.646 125.044 97.242 125.044 96.939C125.044 96.535 125.434 96.232 125.727 96.232H137.83C138.22 96.232 138.513 96.636 138.513 96.939C138.513 97.343 138.122 97.646 137.83 97.646Z" fill="#C7D7F0"/>
<path d="M155.983 97.646H141.441C141.051 97.646 140.758 97.242 140.758 96.939C140.758 96.535 141.148 96.232 141.441 96.232H155.983C156.374 96.232 156.667 96.636 156.667 96.939C156.667 97.343 156.471 97.646 155.983 97.646Z" fill="#C7D7F0"/>
<path d="M183.994 97.646H158.813C158.423 97.646 158.13 97.242 158.13 96.939C158.13 96.535 158.52 96.232 158.813 96.232H183.994C184.384 96.232 184.677 96.636 184.677 96.939C184.775 97.343 184.384 97.646 183.994 97.646Z" fill="#C7D7F0"/>
<path d="M156.081 102.292H132.559C132.169 102.292 131.876 101.888 131.876 101.585C131.876 101.181 132.266 100.878 132.559 100.878H156.081C156.471 100.878 156.764 101.282 156.764 101.585C156.764 101.888 156.471 102.292 156.081 102.292Z" fill="#C7D7F0"/>
<path d="M177.163 102.292H158.716C158.326 102.292 158.033 101.888 158.033 101.585C158.033 101.181 158.424 100.878 158.716 100.878H177.163C177.553 100.878 177.846 101.282 177.846 101.585C177.846 101.888 177.456 102.292 177.163 102.292Z" fill="#C7D7F0"/>
<path d="M162.62 111.786C161.254 112.897 159.692 114.008 158.13 114.917C158.228 114.513 158.326 114.008 158.326 113.705C158.326 113.2 157.838 112.998 157.447 112.695C157.35 112.695 157.35 112.594 157.252 112.594C157.35 112.493 157.447 112.19 157.35 111.988C157.252 111.584 156.764 111.584 156.471 111.988V112.089C156.471 112.089 156.374 112.089 156.374 111.988C156.569 111.483 156.862 110.978 157.057 110.473C157.057 110.372 157.057 110.271 156.959 110.271C156.569 110.069 156.081 110.17 155.788 110.372C155.398 110.776 155.593 111.483 155.69 111.988C155.69 111.988 155.69 111.988 155.69 112.089C155.3 112.695 155.007 113.301 154.617 113.806C154.617 113.806 154.617 113.806 154.519 113.705C154.422 113.604 154.422 113.503 154.324 113.301C154.422 112.796 154.519 112.291 154.714 111.786C154.714 111.584 154.617 111.382 154.324 111.584C153.836 111.685 153.641 112.291 153.641 112.796C153.641 112.897 153.641 113.2 153.738 113.301C153.641 113.503 153.543 113.806 153.348 114.008C153.25 114.109 153.348 114.21 153.446 114.412C153.348 114.917 153.055 115.523 152.762 116.028C152.567 116.432 151.884 116.634 151.396 116.129C151.201 115.927 151.201 115.523 151.201 115.119C151.201 114.21 151.103 113.402 151.103 112.493C151.103 112.089 151.103 111.786 151.201 111.382C151.201 111.18 151.298 110.776 151.396 111.281C151.396 111.382 151.396 111.786 151.396 111.988C151.396 112.392 151.884 112.392 151.884 111.988C151.884 111.584 152.079 110.776 151.689 110.372C151.298 110.17 151.006 110.473 150.81 110.776C150.225 111.887 150.42 113.705 150.615 114.917C150.615 115.927 151.103 117.139 152.274 116.937C153.446 116.735 153.836 115.018 154.226 113.907V113.806L154.324 113.907L154.422 114.008C154.324 114.109 154.226 114.412 154.031 114.513C154.031 114.614 154.031 114.715 154.031 114.917C154.422 115.422 155.105 115.018 155.105 114.412C155.105 114.311 155.105 114.21 155.007 114.008C155.398 113.503 155.69 112.897 156.081 112.291C156.178 112.392 156.471 112.493 156.666 112.493C156.764 112.594 156.862 112.695 157.154 112.897C157.252 112.897 157.545 112.998 157.642 113.099C157.838 113.301 157.74 113.604 157.74 113.806C157.74 114.21 157.642 114.513 157.545 115.018C157.057 115.22 156.471 115.725 156.374 116.432C156.276 117.038 156.374 117.644 156.862 118.048C156.959 118.149 157.252 118.048 157.252 117.947C157.447 117.24 157.838 116.331 158.13 115.523C158.618 115.321 159.106 115.018 159.594 114.816C160.766 114.109 162.034 113.2 163.206 112.19C163.206 112.089 162.815 111.584 162.62 111.786ZM155.983 111.079C155.983 110.877 156.081 110.473 156.374 110.473C156.178 110.675 156.081 110.978 155.983 111.079ZM156.666 117.543C156.471 117.139 156.764 116.533 157.154 116.129C157.057 116.735 156.764 117.24 156.666 117.543Z" fill="#C7D7F0"/>
<g opacity="0.5">
<path d="M151.787 23.613L157.448 36.339L136.854 45.934L131.389 33.208L144.369 34.622L151.787 23.613Z" fill="#C5E0FB"/>
<path d="M131.389 33.208L151.885 23.613L145.638 34.319C145.15 35.228 144.174 35.531 143.296 35.43L131.389 33.208Z" fill="#A4CFF3"/>
</g>
<g opacity="0.5">
<path d="M31.1536 106.534L34.1792 114.715L21.0032 119.765L18.0752 111.685L26.0784 113.2L31.1536 106.534Z" fill="#C5E0FB"/>
<path d="M18.0752 111.685L31.1536 106.635L26.9568 112.998C26.5664 113.503 25.9808 113.705 25.4928 113.503L18.0752 111.685Z" fill="#A4CFF3"/>
</g>
<g opacity="0.5">
<path d="M255.926 58.256L251.827 74.113L226.061 67.144L230.16 51.085L240.896 62.599L255.926 58.256Z" fill="#C5E0FB"/>
<path d="M230.16 51.085L255.927 58.256L242.458 63.306C241.384 63.71 240.311 63.306 239.53 62.599L230.16 51.085Z" fill="#A4CFF3"/>
</g>
<path d="M25.5899 142.49C25.0043 142.49 24.4187 142.49 23.7355 142.49C23.7355 142.49 23.6379 142.49 23.6379 142.389C23.6379 142.389 23.6379 142.288 23.7355 142.288C24.2235 142.288 24.8091 142.288 25.5899 142.288C25.5899 142.288 25.6875 142.288 25.5899 142.49ZM27.4443 142.49C27.2491 142.49 27.2491 142.389 27.4443 142.49C27.3467 142.389 27.4443 142.288 27.4443 142.288C28.0299 142.288 28.6155 142.288 29.2987 142.288C29.2987 142.288 29.3963 142.288 29.3963 142.389C29.3963 142.389 29.3963 142.49 29.2987 142.49C28.5179 142.49 27.9323 142.49 27.4443 142.49ZM21.9787 142.389C21.3931 142.389 20.8075 142.389 20.1243 142.288C20.1243 142.288 20.0267 142.288 20.0267 142.187C20.0267 142.187 20.0267 142.086 20.1243 142.086C20.6123 142.086 21.1979 142.187 21.9787 142.187C22.0763 142.086 22.0763 142.086 21.9787 142.389C22.0763 142.389 22.0763 142.389 21.9787 142.389ZM30.9579 142.389C30.8603 142.288 30.9579 142.187 30.9579 142.187C31.5435 142.187 32.1291 142.187 32.8123 142.086C32.8123 142.086 32.9099 142.086 32.9099 142.187C32.9099 142.187 32.9099 142.288 32.8123 142.288C32.1291 142.288 31.5435 142.389 30.9579 142.389ZM34.5691 142.086C34.4715 142.086 34.4715 142.086 34.5691 142.086C34.4715 141.985 34.5691 141.884 34.5691 141.884C35.1547 141.884 35.7403 141.884 36.4235 141.783C36.4235 141.783 36.5211 141.783 36.5211 141.884C36.5211 141.985 36.5211 141.985 36.4235 141.985C35.7403 141.985 35.1547 142.086 34.5691 142.086ZM18.4651 141.985C17.8795 141.884 17.2939 141.783 16.6107 141.581C16.6107 141.581 16.5131 141.581 16.6107 141.48C16.6107 141.48 16.6107 141.379 16.7083 141.48C17.1963 141.581 17.7819 141.682 18.3675 141.884C18.4651 141.783 18.5627 141.884 18.4651 141.985ZM38.1803 141.884C38.0827 141.884 38.0827 141.783 38.1803 141.884C38.0827 141.783 38.1803 141.682 38.1803 141.682C38.7659 141.682 39.3515 141.581 40.0347 141.581C40.0347 141.581 40.1323 141.581 40.1323 141.682C40.1323 141.682 40.1323 141.783 40.0347 141.783C39.2539 141.783 38.7659 141.783 38.1803 141.884ZM41.6939 141.48C41.5963 141.48 41.5963 141.48 41.6939 141.48C41.5963 141.379 41.6939 141.278 41.6939 141.278C42.2795 141.278 42.8651 141.177 43.5483 141.177C43.5483 141.177 43.6459 141.177 43.6459 141.278C43.6459 141.278 43.6459 141.379 43.5483 141.379C42.8651 141.379 42.2795 141.48 41.6939 141.48ZM45.2075 141.177C45.1099 141.076 45.2075 140.975 45.2075 140.975C45.7931 140.975 46.3787 140.874 47.0619 140.874C47.0619 140.874 47.1595 140.874 47.1595 140.975C47.1595 141.076 47.1595 141.076 47.0619 141.076C46.3787 140.975 45.8907 140.975 45.2075 141.177C45.3051 141.177 45.3051 141.177 45.2075 141.177ZM15.0491 140.773C14.6587 140.571 14.4635 140.268 14.3659 139.864C14.2683 139.662 14.2683 139.359 14.1707 139.258V139.157H14.2683C14.2683 139.359 14.3659 139.561 14.4635 139.763C14.5611 140.167 14.8539 140.369 15.0491 140.773C15.1467 140.773 15.1467 140.773 15.0491 140.773ZM48.8187 140.773C48.7211 140.773 48.7211 140.773 48.8187 140.773C48.7211 140.672 48.8187 140.571 48.8187 140.571C49.4043 140.571 49.9899 140.47 50.6731 140.369C50.6731 140.369 50.7707 140.369 50.7707 140.47C50.7707 140.47 50.7707 140.571 50.6731 140.571C49.9899 140.672 49.4043 140.773 48.8187 140.773ZM52.3323 140.369C52.2347 140.268 52.3323 140.167 52.3323 140.167C52.9179 140.167 53.5035 140.066 54.1867 139.965C54.1867 139.965 54.2843 139.965 54.2843 140.066C54.2843 140.167 54.2843 140.167 54.1867 140.167C53.5035 140.167 52.9179 140.268 52.3323 140.369ZM55.9435 139.864C55.8459 139.864 55.8459 139.763 55.9435 139.864C55.8459 139.763 55.9435 139.662 55.9435 139.662C56.5291 139.662 57.1147 139.561 57.7979 139.46C57.7979 139.46 57.8955 139.46 57.8955 139.561C57.8955 139.662 57.8955 139.662 57.7979 139.662C57.0171 139.662 56.5291 139.763 55.9435 139.864ZM59.4571 139.359C59.3595 139.359 59.3595 139.258 59.4571 139.359C59.3595 139.258 59.4571 139.157 59.4571 139.157C60.0427 139.157 60.6283 139.056 61.3115 138.955C61.3115 138.955 61.4091 138.955 61.4091 139.056C61.4091 139.056 61.4091 139.157 61.3115 139.157C60.7259 139.157 60.0427 139.258 59.4571 139.359ZM63.0683 138.854C62.9707 138.854 62.9707 138.753 63.0683 138.854C62.9707 138.753 63.0683 138.652 63.0683 138.652C63.6539 138.652 64.2395 138.551 64.9227 138.45C64.9227 138.45 65.0203 138.45 65.0203 138.551C65.0203 138.551 65.0203 138.652 64.9227 138.652C64.3371 138.652 63.7515 138.753 63.0683 138.854ZM66.5819 138.248C66.4843 138.248 66.4843 138.248 66.5819 138.248C66.4843 138.147 66.5819 138.046 66.5819 138.046C67.1675 138.046 67.7531 137.945 68.4363 137.844C68.4363 137.844 68.5339 137.844 68.5339 137.945C68.5339 137.945 68.5339 138.046 68.4363 138.046C67.8507 138.147 67.2651 138.248 66.5819 138.248ZM70.0955 137.743C69.9979 137.642 70.0955 137.541 70.0955 137.541C70.6811 137.44 71.2667 137.44 71.9499 137.339C71.9499 137.339 72.0475 137.339 72.0475 137.44C72.0475 137.44 72.0475 137.541 71.9499 137.541C71.3643 137.541 70.7787 137.642 70.0955 137.743ZM13.9755 137.541C13.8779 137.541 13.8779 137.339 13.9755 137.541C13.9755 136.935 14.1707 136.329 14.5611 135.824H14.6587V135.925C14.3659 136.329 14.0731 136.834 13.9755 137.541ZM73.8043 137.137C73.6091 137.137 73.6091 137.137 73.8043 137.137C73.7067 137.036 73.8043 136.935 73.8043 136.935C74.3899 136.834 74.9755 136.834 75.4635 136.733C75.4635 136.733 75.5611 136.733 75.5611 136.834C75.5611 136.834 75.5611 136.935 75.4635 136.935C74.8779 137.036 74.3899 137.036 73.8043 137.137ZM77.3179 136.531C77.1227 136.531 77.1227 136.531 77.3179 136.531C77.2203 136.43 77.3179 136.329 77.3179 136.329C77.9035 136.228 78.4891 136.228 78.9771 136.127C78.9771 136.127 79.0747 136.127 79.0747 136.228C79.0747 136.329 79.0747 136.329 78.9771 136.329C78.4891 136.329 77.9035 136.531 77.3179 136.531ZM80.7339 136.026C80.6363 135.925 80.7339 135.824 80.7339 135.824C81.3195 135.723 81.9051 135.723 82.3931 135.622C82.3931 135.622 82.4907 135.622 82.4907 135.723C82.4907 135.824 82.4907 135.824 82.3931 135.824C82.0027 135.723 81.4171 135.824 80.7339 136.026ZM84.2475 135.42C84.1499 135.319 84.2475 135.218 84.2475 135.218C84.8331 135.117 85.4187 135.117 85.9067 135.016C85.9067 135.016 86.0043 135.016 86.0043 135.117C86.0043 135.218 86.0043 135.218 85.9067 135.218C85.5163 135.117 84.9307 135.218 84.2475 135.42ZM87.9563 134.713C87.7611 134.713 87.7611 134.612 87.9563 134.713C87.8587 134.612 87.9563 134.511 87.9563 134.511C88.5419 134.41 89.1275 134.41 89.6155 134.309C89.6155 134.309 89.7131 134.309 89.7131 134.41C89.7131 134.511 89.7131 134.511 89.6155 134.511C89.1275 134.511 88.5419 134.612 87.9563 134.713ZM16.0251 134.511C15.9275 134.41 15.9275 134.41 15.9275 134.309C16.4155 134.107 16.9035 133.703 17.4891 133.4H17.5867V133.501C17.0011 133.905 16.5131 134.208 16.0251 134.511ZM91.4699 134.006C91.2747 134.006 91.2747 134.006 91.4699 134.006C91.3723 133.905 91.4699 133.804 91.4699 133.804C92.0555 133.703 92.6411 133.602 93.1291 133.602C93.1291 133.602 93.2267 133.602 93.2267 133.703C93.2267 133.703 93.2267 133.804 93.1291 133.804C92.6411 133.905 92.0555 134.006 91.4699 134.006ZM94.9835 133.4C94.7883 133.4 94.7883 133.4 94.9835 133.4C94.8859 133.299 94.9835 133.198 94.9835 133.198C95.5691 133.097 96.1547 132.996 96.6427 132.996C96.6427 132.996 96.7403 132.996 96.7403 133.097C96.7403 133.198 96.7403 133.198 96.6427 133.198C96.1547 133.097 95.5691 133.198 94.9835 133.4ZM19.2459 132.895C19.1483 132.895 19.1483 132.895 19.2459 132.895C19.1483 132.794 19.1483 132.794 19.2459 132.693C19.7339 132.592 20.3195 132.289 20.9051 132.188H21.0027V132.289C20.4171 132.491 19.9291 132.592 19.2459 132.895ZM98.4971 132.693C98.3995 132.592 98.4971 132.491 98.4971 132.491C99.0827 132.39 99.6683 132.289 100.156 132.289C100.156 132.289 100.254 132.289 100.254 132.39C100.254 132.39 100.254 132.491 100.156 132.491C99.7659 132.491 99.1803 132.592 98.4971 132.693ZM102.011 131.986C101.913 131.885 102.011 131.784 102.011 131.784C102.108 131.784 102.108 131.784 102.108 131.784C102.108 131.784 102.206 131.784 102.206 131.885C102.304 131.986 102.304 131.986 102.011 131.986ZM22.6619 131.885C22.5643 131.885 22.5643 131.784 22.6619 131.885C22.5643 131.784 22.5643 131.683 22.6619 131.683C23.1499 131.582 23.7355 131.481 24.3211 131.279C24.3211 131.279 24.4187 131.279 24.4187 131.38C24.4187 131.38 24.4187 131.481 24.3211 131.481C23.9307 131.582 23.2475 131.784 22.6619 131.885ZM26.1755 131.077C26.0779 130.976 26.1755 130.875 26.1755 130.875C26.7611 130.774 27.2491 130.774 28.0299 130.673C28.0299 130.673 28.1275 130.673 28.1275 130.774C28.1275 130.774 28.1275 130.875 28.0299 130.875C27.4443 130.875 26.7611 130.976 26.1755 131.077ZM29.7867 130.572C29.6891 130.572 29.6891 130.471 29.7867 130.572C29.6891 130.471 29.7867 130.37 29.7867 130.37C30.3723 130.37 30.9579 130.269 31.6411 130.269C31.6411 130.269 31.7387 130.269 31.7387 130.37C31.7387 130.37 31.7387 130.471 31.6411 130.471C31.0555 130.471 30.4699 130.471 29.7867 130.572ZM33.3003 130.269C33.2027 130.168 33.3003 130.067 33.3003 130.067C34.3739 130.067 35.1547 129.966 35.1547 129.966C35.1547 129.966 35.2523 129.966 35.2523 130.067C35.2523 130.168 35.2523 130.168 35.1547 130.168C35.1547 130.067 34.4715 130.067 33.3003 130.269Z" fill="#A2CDFC"/>
<path d="M106.11 138.652L120.75 129.966L107.281 130.774L108.355 133.097L105.622 136.228L106.11 138.652Z" fill="#A2CDFC"/>
<path d="M120.653 129.764L105.329 132.895L94.1055 140.874L120.653 129.764Z" fill="#FCBE42"/>
<path d="M107.282 130.774L120.751 129.966L106.696 125.724L107.282 130.774Z" fill="#FCBE42"/>
<path d="M98.1064 74.113C98.1064 74.113 99.7656 73.507 100.058 73.002C100.156 72.497 100.742 72.396 101.522 71.992C102.206 71.79 102.596 71.083 102.694 71.083C102.791 71.083 102.791 71.588 102.596 71.79C102.401 71.992 101.132 74.315 100.644 74.517C100.254 74.921 98.1064 74.113 98.1064 74.113Z" fill="#FFB27B"/>
<path d="M117.334 164.407H101.133C98.2046 164.407 95.7646 161.983 95.7646 158.852C95.7646 155.822 98.107 153.297 101.133 153.297H117.334C120.262 153.297 122.702 155.721 122.702 158.852C122.507 162.084 120.262 164.407 117.334 164.407Z" fill="#FFECDA"/>
<path d="M115.772 156.327H99.0828C98.9852 156.327 98.6924 156.226 98.6924 155.923C98.6924 155.822 98.79 155.519 99.0828 155.519H115.87C115.968 155.519 116.26 155.62 116.26 155.923C116.163 156.125 115.968 156.327 115.772 156.327Z" fill="#FBCBAA"/>
<path d="M102.011 157.842H99.0828C98.9852 157.842 98.6924 157.741 98.6924 157.438C98.6924 157.337 98.79 157.034 99.0828 157.034H102.011C102.108 157.034 102.401 157.135 102.401 157.438C102.304 157.64 102.206 157.842 102.011 157.842Z" fill="#FBCBAA"/>
<path d="M111.381 157.842H103.182C103.085 157.842 102.792 157.741 102.792 157.438C102.792 157.337 102.89 157.034 103.182 157.034H111.381C111.478 157.034 111.771 157.135 111.771 157.438C111.674 157.64 111.478 157.842 111.381 157.842Z" fill="#FBCBAA"/>
<path d="M115.772 160.569H99.0828C98.9852 160.569 98.6924 160.468 98.6924 160.165C98.6924 160.064 98.79 159.761 99.0828 159.761H115.87C115.968 159.761 116.26 159.862 116.26 160.165C116.163 160.468 115.968 160.569 115.772 160.569Z" fill="#FBCBAA"/>
<path d="M105.134 162.084H99.0828C98.9852 162.084 98.6924 161.983 98.6924 161.68C98.6924 161.579 98.79 161.276 99.0828 161.276H105.134C105.232 161.276 105.524 161.377 105.524 161.68C105.427 161.882 105.329 162.084 105.134 162.084Z" fill="#FBCBAA"/>
<path d="M112.454 162.084H106.403C106.305 162.084 106.013 161.983 106.013 161.68C106.013 161.579 106.11 161.276 106.403 161.276H112.454C112.552 161.276 112.845 161.377 112.845 161.68C112.845 161.882 112.747 162.084 112.454 162.084Z" fill="#FBCBAA"/>
<path d="M191.315 25.027C191.315 25.027 191.217 24.926 191.12 25.027L189.265 25.229C189.07 25.229 188.777 25.128 188.777 24.825C188.68 23.916 188.289 23.108 187.801 22.3C187.704 22.098 187.801 21.795 187.899 21.694L189.265 20.583C189.265 20.583 189.363 20.482 189.363 20.381C189.363 20.28 189.363 20.28 189.265 20.179L187.216 18.058C187.216 18.058 187.118 17.957 187.021 17.957C186.923 17.957 186.923 17.957 186.825 18.058L185.752 19.472C185.654 19.573 185.361 19.674 185.166 19.573C184.483 19.068 183.605 18.866 182.726 18.563C182.531 18.563 182.336 18.361 182.336 18.058L182.531 16.139C182.531 16.038 182.531 16.038 182.531 15.937C182.531 15.937 182.433 15.836 182.336 15.836H179.408C179.31 15.836 179.31 15.836 179.213 15.937C179.213 15.937 179.115 16.038 179.213 16.139L179.408 18.058C179.408 18.26 179.31 18.563 179.017 18.563C178.139 18.664 177.358 19.068 176.577 19.573C176.382 19.674 176.089 19.573 175.992 19.472L174.918 18.058C174.918 18.058 174.821 17.957 174.723 17.957C174.625 17.957 174.625 17.957 174.528 18.058L172.478 20.179C172.478 20.179 172.381 20.28 172.381 20.381C172.381 20.482 172.381 20.482 172.478 20.583L173.845 21.694C173.942 21.795 174.04 22.098 173.942 22.3C173.454 23.007 173.259 23.916 172.966 24.825C172.966 25.027 172.771 25.229 172.478 25.229L170.624 25.027C170.526 25.027 170.526 25.027 170.429 25.027C170.429 25.027 170.331 25.128 170.331 25.229V28.259C170.331 28.36 170.331 28.36 170.429 28.461C170.429 28.461 170.526 28.562 170.624 28.461L172.478 28.259C172.673 28.259 172.966 28.36 172.966 28.663C173.064 29.572 173.454 30.38 173.942 31.188C174.04 31.39 173.942 31.693 173.845 31.794L172.478 32.905C172.478 32.905 172.381 33.006 172.381 33.107C172.381 33.208 172.381 33.208 172.478 33.309L174.528 35.43C174.528 35.43 174.625 35.531 174.723 35.531C174.821 35.531 174.821 35.531 174.918 35.43L175.894 34.117C175.992 34.016 176.285 33.915 176.48 34.016C177.163 34.521 178.041 34.723 178.92 35.026C179.115 35.026 179.31 35.228 179.31 35.531L179.115 37.45C179.115 37.551 179.115 37.551 179.115 37.652C179.115 37.652 179.213 37.753 179.31 37.753H182.238C182.336 37.753 182.336 37.753 182.433 37.652C182.433 37.652 182.531 37.551 182.433 37.45L182.238 35.531C182.238 35.329 182.336 35.026 182.629 35.026C183.507 34.925 184.288 34.521 185.069 34.016C185.264 33.915 185.557 34.016 185.654 34.117L186.728 35.531C186.728 35.531 186.825 35.632 186.923 35.632C187.021 35.632 187.021 35.632 187.118 35.531L189.168 33.41C189.168 33.41 189.265 33.309 189.265 33.208C189.265 33.107 189.265 33.107 189.168 33.006L187.801 31.895C187.704 31.794 187.606 31.491 187.704 31.289C188.192 30.582 188.387 29.673 188.68 28.764C188.68 28.562 188.875 28.36 189.168 28.36L191.022 28.562C191.12 28.562 191.12 28.562 191.217 28.562C191.217 28.562 191.315 28.461 191.315 28.36V25.33C191.413 25.229 191.315 25.128 191.315 25.027ZM190.534 28.057L189.07 27.956C188.485 27.956 187.899 28.158 187.704 28.865C187.606 29.572 187.216 30.38 186.825 31.087C186.63 31.592 186.728 32.299 187.021 32.703L187.997 33.41L186.533 34.925L185.849 33.915C185.459 33.41 184.776 33.309 184.288 33.713C183.702 34.117 182.824 34.42 182.141 34.622C181.555 34.723 181.165 35.329 181.262 36.036L181.36 37.551H179.31L179.408 36.036C179.408 35.43 179.213 34.824 178.529 34.622C177.846 34.521 177.065 34.117 176.382 33.713C175.894 33.511 175.211 33.612 174.821 33.915L174.137 34.925L172.673 33.41L173.649 32.703C174.137 32.299 174.235 31.592 173.845 31.087C173.454 30.481 173.161 29.572 172.966 28.865C172.869 28.259 172.283 27.855 171.6 27.956L170.136 28.057V25.936L171.6 26.037C172.185 26.037 172.771 25.835 172.966 25.128C173.064 24.421 173.454 23.613 173.845 22.906C174.04 22.401 173.942 21.694 173.649 21.29L172.673 20.583L174.137 19.068L174.821 20.078C175.211 20.583 175.894 20.684 176.382 20.28C176.968 19.876 177.846 19.573 178.529 19.371C179.115 19.27 179.505 18.664 179.408 17.957L179.31 16.442H181.36L181.262 17.957C181.262 18.563 181.457 19.169 182.141 19.371C182.824 19.472 183.605 19.876 184.288 20.28C184.776 20.482 185.459 20.381 185.849 20.078L186.533 19.068L187.997 20.583L187.021 21.29C186.533 21.694 186.435 22.401 186.825 22.906C187.216 23.512 187.509 24.421 187.704 25.128C187.801 25.734 188.387 26.138 189.07 26.037L190.534 25.936V28.057Z" fill="#003EB0"/>
<path d="M180.286 21.593C177.456 21.593 175.211 24.017 175.211 26.845C175.211 29.673 177.553 32.097 180.286 32.097C183.019 32.097 185.361 29.673 185.361 26.845C185.459 24.017 183.214 21.593 180.286 21.593ZM180.286 31.491C177.846 31.491 175.894 29.471 175.894 26.946C175.894 24.421 177.846 22.401 180.286 22.401C182.726 22.401 184.678 24.421 184.678 26.946C184.776 29.37 182.824 31.491 180.286 31.491Z" fill="#003EB0"/>
<path d="M241.188 164.205C241.188 164.205 244.116 164.407 246.459 164.407C248.801 164.407 252.217 164.912 252.217 164.912C252.217 164.912 253.193 164.912 253.193 166.124C253.193 167.336 253.193 167.74 253.193 167.74C253.193 167.74 253.193 169.356 252.217 169.356C251.241 169.356 244.507 170.063 243.043 170.063C241.579 170.063 240.31 170.265 240.31 169.356C240.212 168.043 240.212 164.205 241.188 164.205Z" fill="#170856"/>
<path d="M243.726 131.582C243.726 131.582 245.775 142.692 245.775 145.722C245.971 148.752 246.263 150.873 244.214 152.085C242.457 153.297 239.236 154.408 239.236 154.408L235.527 134.41V132.087L243.726 131.582Z" fill="#FFBF99"/>
<path d="M210.736 131.077C210.736 131.077 209.76 136.228 209.175 138.753C208.98 141.379 208.199 146.126 208.199 147.54C208.199 148.752 208.004 150.57 209.956 152.085C212.005 153.6 214.152 154.408 214.152 154.408L218.349 131.279H210.639V131.178C210.639 131.077 210.736 131.077 210.736 131.077Z" fill="#FFBF99"/>
<path d="M225.279 115.018C225.279 115.018 225.279 117.341 224.303 118.351C223.327 119.361 222.059 120.977 222.059 120.977C222.059 120.977 224.303 124.512 228.695 124.007C233.087 123.502 233.966 120.169 233.966 120.169C233.966 120.169 229.769 119.664 229.183 115.523C228.695 111.483 228.012 111.483 228.012 111.483L225.279 115.018Z" fill="#FFB07E"/>
<path d="M222.059 105.726C222.059 105.726 222.254 111.18 224.596 115.22C227.134 119.26 229.867 117.038 231.038 115.018C232.209 112.897 235.235 105.827 234.454 104.312C233.771 102.494 225.084 101.686 225.084 101.686L222.059 105.726Z" fill="#FFBF99"/>
<path d="M233.478 108.857C233.478 108.857 234.649 107.847 234.649 108.857C234.649 109.867 233.966 111.483 233.088 111.483C232.404 111.685 232.404 111.281 232.6 110.473C232.99 109.867 233.478 108.857 233.478 108.857Z" fill="#FFBF99"/>
<path d="M222.546 110.776C222.741 110.978 223.229 110.978 223.229 110.574C223.229 109.564 222.546 107.948 221.668 107.948C220.984 107.746 220.984 108.15 221.18 108.958C221.18 109.16 221.18 109.463 221.375 109.665C221.863 110.069 222.351 110.776 222.546 110.776Z" fill="#FFBF99"/>
<path d="M222.351 108.251L222.156 106.635C222.156 106.635 223.718 106.837 225.084 105.019C225.084 105.019 228.305 105.726 230.843 105.524C233.575 105.322 234.551 104.514 234.551 104.514C234.551 104.514 234.063 107.544 233.575 108.554C233.575 108.554 234.747 108.049 235.332 106.433C235.82 104.817 235.82 103.403 235.82 103.403C235.82 103.403 237.577 101.787 238.065 100.373C238.065 100.373 233.283 99.161 231.916 98.252C230.355 97.242 229.671 96.636 229.671 96.636C229.671 96.636 227.427 95.424 225.279 97.141C223.132 98.858 221.571 99.969 221.571 103.1C221.571 102.898 219.326 106.029 222.351 108.251Z" fill="#160C56"/>
<path d="M222.547 119.26C222.547 119.26 219.619 119.058 217.764 119.26C216.007 119.765 215.519 119.462 216.007 120.876C216.495 122.189 218.74 128.249 217.764 131.986C216.788 135.824 215.227 155.115 215.227 155.115C215.227 155.115 226.646 155.62 231.038 155.822C235.43 156.024 238.748 155.317 238.748 155.317C238.748 155.317 239.724 146.833 238.748 143.298C237.772 139.763 236.503 133.602 236.503 133.602C236.503 133.602 235.82 125.118 236.699 123.098C237.675 120.977 238.748 120.977 237.187 120.27C235.723 119.563 234.259 119.26 232.99 119.26C231.721 119.26 231.233 119.26 230.452 119.967C229.769 120.674 228.403 122.088 226.548 121.785C224.791 121.583 223.327 120.169 223.327 120.169C223.327 120.169 223.425 119.26 222.547 119.26Z" fill="#0083F9"/>
<path d="M217.471 119.765C217.471 119.765 216.495 119.26 214.739 120.472C212.982 122.088 211.811 125.017 211.323 127.138C210.835 129.259 210.347 131.178 210.347 131.178C210.347 131.178 212.591 132.39 214.739 132.39C216.886 132.39 218.447 132.592 218.447 132.592C218.447 132.592 219.423 126.431 219.131 123.805C218.838 121.684 218.35 120.573 217.471 119.765Z" fill="#FCBE42"/>
<path d="M236.211 122.088C236.211 122.088 237.187 119.462 239.139 120.472C241.188 121.684 242.555 126.128 243.043 127.34C243.531 128.956 244.019 131.38 244.019 131.38C244.019 131.38 241.481 132.39 239.627 132.592C237.577 132.794 236.211 132.794 236.211 132.794C236.211 132.794 235.527 127.34 235.527 125.118C235.527 122.896 236.211 122.088 236.211 122.088Z" fill="#FCBE42"/>
<path d="M219.716 156.731H235.039L227.036 159.357L219.716 156.731Z" fill="#91051C"/>
<path d="M206.052 152.388C206.052 152.388 234.063 161.377 240.212 163.7C240.212 163.7 242.262 164.205 242.262 165.215C242.262 166.225 242.066 167.841 242.066 168.548C241.871 169.255 241.09 170.164 240.017 169.76C239.041 169.558 213.762 164.306 203.807 161.478L200.879 160.468C200.879 160.468 198.83 159.458 199.122 156.933C199.318 154.307 201.367 151.984 202.538 151.782C204.002 151.883 206.052 152.388 206.052 152.388Z" fill="#DE051F"/>
<path d="M203.515 165.215C203.515 165.215 206.931 164.71 209.273 164.508C211.323 164.508 214.251 164.306 214.544 164.508C214.739 164.71 215.227 169.053 215.227 169.053C215.227 169.053 215.422 170.265 212.689 170.063C209.956 169.861 203.515 169.558 203.515 169.558C203.515 169.558 201.953 169.558 201.953 167.942C201.953 166.73 202.148 166.124 202.148 166.124C202.148 166.124 202.539 165.518 203.515 165.215Z" fill="#170856"/>
<path d="M220.204 161.377C220.204 161.377 237.089 155.923 243.336 154.206C249.484 152.388 252.705 150.671 254.755 153.701C256.804 156.731 256.512 159.862 254.267 160.872C252.022 161.882 234.356 166.023 227.036 167.538C219.619 169.053 214.934 170.164 214.153 169.861C213.47 169.659 212.592 167.235 212.982 166.023C213.177 164.811 213.177 164.205 214.739 163.7C215.91 162.892 220.204 161.377 220.204 161.377Z" fill="#EE384E"/>
<path d="M218.155 135.925H238.456C238.456 135.925 239.627 135.723 239.627 137.541C239.627 139.157 239.627 155.721 239.627 155.721C239.627 155.721 239.627 156.933 238.944 156.933C237.968 156.933 214.934 156.933 214.934 156.933C214.934 156.933 213.958 157.135 213.958 155.317C213.958 153.499 213.958 136.834 213.958 136.834C213.958 136.834 213.958 135.824 215.129 135.824C216.3 135.824 218.155 135.925 218.155 135.925Z" fill="#170856"/>
</g>
<defs>
<clipPath id="clip0_1409_4158">
<rect width="270" height="186" fill="white"/>
</clipPath>
</defs>
</svg>
