<svg width="426" height="371" viewBox="0 0 426 371" fill="none" xmlns="http://www.w3.org/2000/svg">
<path d="M76.078 215.158C113.93 215.158 144.616 184.472 144.616 146.62C144.616 108.768 113.93 78.0825 76.078 78.0825C38.2258 78.0825 7.54053 108.768 7.54053 146.62C7.54053 184.472 38.2258 215.158 76.078 215.158Z" stroke="#2626DB" stroke-width="0.860145" stroke-miterlimit="10" stroke-dasharray="5.16 5.16"/>
<path d="M11.5992 135.031C18.0053 135.031 23.1985 129.838 23.1985 123.432C23.1985 117.026 18.0053 111.833 11.5992 111.833C5.19315 111.833 0 117.026 0 123.432C0 129.838 5.19315 135.031 11.5992 135.031Z" fill="#FCBE42"/>
<path d="M7.54053 121.107L12.1783 128.068L15.6638 122.259" stroke="white" stroke-width="1.72029" stroke-miterlimit="10"/>
<path d="M358.521 253.649C382.789 253.649 402.462 233.976 402.462 209.708C402.462 185.44 382.789 165.767 358.521 165.767C334.253 165.767 314.58 185.44 314.58 209.708C314.58 233.976 334.253 253.649 358.521 253.649Z" stroke="#DE051F" stroke-width="0.860145" stroke-miterlimit="10" stroke-dasharray="5.16 5.16"/>
<path d="M416.186 146.074C416.186 146.074 410.065 162.122 402.575 156.19C395.084 150.258 391.92 152.704 388.784 155.396C385.648 158.088 382.078 165.229 374.512 158.551C366.946 151.864 365.633 145.526 360.296 145.252C354.95 144.978 333.773 136.76 339.091 129.44C344.418 122.119 357.34 123.121 362.676 125C368.013 126.871 374.427 122.979 378.545 118.804C382.663 114.629 390.645 112.948 392.846 120.485C395.047 128.023 402.471 132.368 407.808 130.876C413.163 129.374 420.153 135.126 416.186 146.074Z" fill="#023EA1"/>
<path d="M404.805 142.891L332.612 124.784" stroke="white" stroke-width="0.860145" stroke-miterlimit="10" stroke-linecap="round" stroke-linejoin="round"/>
<path d="M381.902 151.788L375.47 135.532L387.626 123.725" stroke="white" stroke-width="0.860145" stroke-miterlimit="10" stroke-linecap="round" stroke-linejoin="round"/>
<path d="M401.028 91.9587C401.028 91.9587 409.378 91.817 409.765 84.9973C410.143 78.187 401.737 72.3307 396.494 75.2305C391.233 78.1303 391.252 82.7398 387.105 80.794C382.959 78.8482 370.538 75.155 368.422 81.2663C366.297 87.3682 371.964 91.6754 364.408 96.0865C356.851 100.488 343.92 93.1394 343.259 106.127C342.598 119.115 347.254 141.218 366.608 131.621C385.962 122.034 367.704 113.618 384.007 110.302C400.31 106.977 393.396 101.622 394.464 96.2943C395.512 90.9669 401.028 91.9587 401.028 91.9587Z" fill="#EE384E"/>
<path d="M386.914 90.6182C386.914 90.6182 371.962 106.95 354.308 116.745C336.654 126.54 331.383 126.011 331.383 126.011" stroke="white" stroke-width="0.860145" stroke-miterlimit="10" stroke-linecap="round" stroke-linejoin="round"/>
<path d="M119.299 23.8653C119.299 23.8653 113.641 33.4809 122.463 33.5093C131.285 33.5376 135.857 36.0502 134.459 44.8063C133.061 53.5529 136.235 58.918 141.298 60.2026C146.361 61.4778 155.986 62.3185 153.464 74.1066C150.942 85.9042 147.626 109.169 134.384 107.922C121.141 106.666 108.597 90.4759 110.477 81.5687C112.356 72.6614 118.798 67.8725 111.837 60.5427C104.875 53.2129 98.8207 60.8166 94.7686 50.9176C90.7164 41.0186 85.7196 31.3462 98.0179 22.9868C109.05 15.4776 121.037 17.8106 119.299 23.8653Z" stroke="#DE051F" stroke-width="0.860145" stroke-miterlimit="10"/>
<path d="M111.137 34.0371C111.137 34.0371 136.187 96.3594 146.247 110.688" stroke="#DE051F" stroke-width="0.860145" stroke-miterlimit="10"/>
<path d="M140.144 68.5903L132.654 84.4023L118.022 82.551" stroke="#DE051F" stroke-width="0.860145" stroke-miterlimit="10"/>
<path d="M125.4 40.8286L118.316 51.4455L105.886 51.3888" stroke="#DE051F" stroke-width="0.860145" stroke-miterlimit="10"/>
<path d="M357.235 137.306C357.235 137.306 385.941 117.225 409.668 111.945" stroke="#FCBE42" stroke-width="0.860145" stroke-miterlimit="10"/>
<path d="M424.911 110.954C424.911 110.954 416.977 118.236 407.219 112.541C407.21 112.541 413.057 105.116 424.911 110.954Z" stroke="#FCBE42" stroke-width="0.860145" stroke-miterlimit="10"/>
<path d="M388.283 119.559C388.283 119.559 397.889 116.971 404.227 127.096C404.227 127.096 396.454 131.98 388.283 119.559Z" stroke="#FCBE42" stroke-width="0.860145" stroke-miterlimit="10"/>
<path d="M367.7 130.648C367.7 130.648 376.607 126.237 384.806 134.927C384.806 134.927 378.147 141.237 367.7 130.648Z" stroke="#FCBE42" stroke-width="0.860145" stroke-miterlimit="10"/>
<path d="M367.399 130.364C367.399 130.364 376.013 125.396 373.321 113.759C373.33 113.759 364.376 115.818 367.399 130.364Z" stroke="#FCBE42" stroke-width="0.860145" stroke-miterlimit="10"/>
<path d="M388.414 119.615C388.414 119.615 397.596 115.781 396.405 103.898C396.405 103.907 387.281 104.795 388.414 119.615Z" stroke="#FCBE42" stroke-width="0.860145" stroke-miterlimit="10"/>
<path d="M142.526 28.0787C142.526 28.0787 163.599 25.9535 161.19 37.496C158.782 49.0386 163.231 51.1639 167.935 53.138C172.639 55.1027 182.481 55.1121 179.288 67.1459C176.096 79.1796 169.824 84.1102 172.478 90.1554C175.132 96.2006 177.758 124.103 166.754 122.261C155.74 120.419 149.714 105.618 148.826 98.7037C147.938 91.7895 140.108 86.8684 133.231 84.6297C126.364 82.4006 120.083 74.5229 127.186 67.9488C134.28 61.3746 134.96 50.7861 130.379 45.7137C125.798 40.6226 128.272 29.7506 142.526 28.0787Z" fill="#FCBE42"/>
<path d="M145.312 42.3901L165.204 131.973" stroke="white" stroke-width="0.860145" stroke-miterlimit="10" stroke-linecap="round" stroke-linejoin="round"/>
<path d="M167.765 62.7158L153.388 78.7828L133.666 71.9064" stroke="white" stroke-width="0.860145" stroke-miterlimit="10" stroke-linecap="round" stroke-linejoin="round"/>
<path d="M399.609 203.521C403.71 203.521 407.034 200.197 407.034 196.097C407.034 191.996 403.71 188.672 399.609 188.672C395.509 188.672 392.185 191.996 392.185 196.097C392.185 200.197 395.509 203.521 399.609 203.521Z" fill="#003EB0"/>
<path d="M397.749 193.121L402.585 196.464L397.749 199.071V193.121Z" fill="white"/>
<path d="M384.141 52.3449L380.04 56.4458L384.141 60.5467L388.242 56.4458L384.141 52.3449Z" fill="#003EB0"/>
<path d="M23.1971 227.341L19.0962 231.442L23.1971 235.543L27.298 231.442L23.1971 227.341Z" fill="#003EB0"/>
<path d="M197.309 60.8005L193.208 64.9014L197.309 69.0023L201.41 64.9014L197.309 60.8005Z" fill="#EE384E"/>
<path d="M293.675 37.2373H280.829C280.621 37.2373 280.451 37.3979 280.451 37.6151V42.9047C280.451 42.9991 280.498 43.103 280.564 43.1692L282.075 44.6805C282.141 44.7466 282.236 44.7938 282.349 44.7938H292.173C292.267 44.7938 292.371 44.7466 292.437 44.6805L293.948 43.1692C294.015 43.103 294.062 43.0086 294.062 42.9047V37.6057C294.062 37.3979 293.882 37.2373 293.675 37.2373ZM293.297 42.7441L292.012 44.0287H282.51L281.225 42.7441V37.9835H293.316V42.7441H293.297Z" fill="#003EB0"/>
<path d="M294.421 38.7397L280.055 39.4953C279.847 39.5048 279.686 39.6842 279.696 39.892C279.705 40.0998 279.866 40.251 280.074 40.251C280.083 40.251 280.083 40.251 280.092 40.251L294.459 39.4953C294.667 39.4859 294.828 39.3064 294.818 39.0986C294.799 38.8908 294.62 38.7302 294.421 38.7397Z" fill="#003EB0"/>
<path d="M294.421 41.0153L280.055 41.771C279.847 41.7804 279.686 41.9599 279.696 42.1677C279.705 42.3755 279.866 42.5266 280.074 42.5266C280.083 42.5266 280.083 42.5266 280.092 42.5266L294.459 41.771C294.667 41.7615 294.828 41.582 294.818 41.3742C294.799 41.157 294.62 40.987 294.421 41.0153Z" fill="#003EB0"/>
<path d="M287.252 11.5347C280.158 11.5347 274.406 17.2965 274.406 24.3807C274.406 28.8485 276.663 32.9007 280.451 35.2621V37.6046C280.451 37.8124 280.621 37.9824 280.829 37.9824H293.675C293.883 37.9824 294.053 37.8124 294.053 37.6046V35.2621C297.84 32.8912 300.098 28.8391 300.098 24.3807C300.098 17.2965 294.336 11.5347 287.252 11.5347ZM293.477 34.7237C293.363 34.7898 293.288 34.922 293.288 35.0543V37.2362H281.197V35.0543C281.197 34.922 281.131 34.7993 281.008 34.7237C277.334 32.5134 275.152 28.6407 275.152 24.3807C275.152 17.7121 280.574 12.2903 287.242 12.2903C293.911 12.2903 299.333 17.7121 299.333 24.3807C299.342 28.6501 297.151 32.5134 293.477 34.7237Z" fill="#003EB0"/>
<path d="M290.822 44.0747C290.633 43.9802 290.406 44.0558 290.312 44.2353C290.283 44.2919 289.603 45.5388 287.251 45.5388C284.899 45.5388 284.21 44.2825 284.191 44.2353C284.096 44.0464 283.879 43.9708 283.69 44.0747C283.501 44.1692 283.426 44.3864 283.52 44.5753C283.548 44.6509 284.417 46.2944 287.251 46.2944C290.085 46.2944 290.954 44.6414 290.982 44.5753C291.086 44.3864 291.011 44.1692 290.822 44.0747Z" fill="#003EB0"/>
<path d="M271.003 24.0039H263.446C263.238 24.0039 263.068 24.1645 263.068 24.3817C263.068 24.5895 263.238 24.7596 263.446 24.7596H271.003C271.211 24.7596 271.381 24.5895 271.381 24.3817C271.381 24.1739 271.211 24.0039 271.003 24.0039Z" fill="#DE051F"/>
<path d="M311.052 24.0039H303.495C303.288 24.0039 303.118 24.1739 303.118 24.3817C303.118 24.5895 303.288 24.7596 303.495 24.7596H311.052C311.26 24.7596 311.43 24.5895 311.43 24.3817C311.439 24.1739 311.26 24.0039 311.052 24.0039Z" fill="#DE051F"/>
<path d="M273.504 32.3164C273.391 32.1274 273.164 32.0802 272.994 32.1747L266.448 35.9529C266.259 36.0663 266.212 36.293 266.307 36.463C266.373 36.5858 266.505 36.6519 266.637 36.6519C266.703 36.6519 266.769 36.6425 266.826 36.5952L273.372 32.817C273.551 32.7225 273.617 32.4958 273.504 32.3164Z" fill="#DE051F"/>
<path d="M308.19 12.2827C308.076 12.0938 307.85 12.0465 307.68 12.141L301.134 15.9287C300.945 16.042 300.898 16.2687 300.992 16.4387C301.058 16.5615 301.19 16.6277 301.323 16.6277C301.389 16.6277 301.455 16.6088 301.512 16.571L308.057 12.7927C308.237 12.6983 308.294 12.4716 308.19 12.2827Z" fill="#DE051F"/>
<path d="M299.341 3.44029C299.152 3.34584 298.925 3.39307 298.83 3.58198L295.052 10.1278C294.939 10.3167 295.005 10.5434 295.194 10.6379C295.26 10.6662 295.326 10.6945 295.383 10.6945C295.515 10.6945 295.647 10.6284 295.713 10.5056L299.492 3.95981C299.586 3.77089 299.52 3.5442 299.341 3.44029Z" fill="#DE051F"/>
<path d="M287.248 0.201172C287.041 0.201172 286.871 0.371193 286.871 0.578997V8.1355C286.871 8.3433 287.041 8.51333 287.248 8.51333C287.456 8.51333 287.626 8.3433 287.626 8.1355V0.578997C287.626 0.371193 287.456 0.201172 287.248 0.201172Z" fill="#DE051F"/>
<path d="M279.457 10.1195L275.678 3.57368C275.565 3.38477 275.338 3.33754 275.168 3.43199C274.979 3.54534 274.932 3.77204 275.027 3.94206L278.805 10.4879C278.871 10.6107 279.003 10.6768 279.136 10.6768C279.202 10.6768 279.268 10.6673 279.324 10.6201C279.495 10.5351 279.561 10.3084 279.457 10.1195Z" fill="#DE051F"/>
<path d="M308.057 35.9632L301.511 32.1849C301.322 32.0905 301.095 32.1377 301.001 32.3266C300.888 32.5155 300.954 32.7422 301.143 32.8367L307.688 36.6149C307.755 36.6433 307.821 36.6716 307.877 36.6716C308.01 36.6716 308.142 36.6055 308.208 36.4827C308.293 36.2843 308.236 36.0576 308.057 35.9632Z" fill="#DE051F"/>
<path d="M273.364 15.9192L266.819 12.141C266.63 12.0465 266.403 12.0938 266.309 12.2827C266.195 12.4716 266.261 12.6983 266.45 12.7927L272.996 16.571C273.062 16.5993 273.119 16.6277 273.185 16.6277C273.317 16.6277 273.449 16.5615 273.516 16.4387C273.619 16.2593 273.553 16.0326 273.364 15.9192Z" fill="#DE051F"/>
<path d="M288.347 37.2369V25.0332C288.347 25.0332 288.177 19.2808 291.313 19.2808C294.449 19.2808 293.004 25.2598 286.958 25.2598" stroke="#003EB0" stroke-width="0.860145" stroke-miterlimit="10"/>
<path d="M285.56 37.2369V25.0332C285.56 25.0332 285.73 19.2808 282.594 19.2808C279.458 19.2808 280.903 25.2598 286.949 25.2598" stroke="#003EB0" stroke-width="0.860145" stroke-miterlimit="10"/>
<path d="M91.8343 92.2705H365.266L364.87 273.901L90.6631 273.513L91.8343 92.2705Z" fill="#E9EEF2"/>
<path d="M258.556 279.011C258.538 279.011 258.443 279.464 258.434 279.492C258.339 279.946 258.245 280.409 258.169 280.862C258.046 281.571 257.961 282.288 257.886 282.997C257.801 283.922 257.744 284.848 257.725 285.774C257.706 286.87 257.735 287.965 257.81 289.051C257.895 290.279 258.065 291.498 258.292 292.726C258.547 294.058 258.868 295.361 259.284 296.646C259.728 298.025 260.285 299.394 260.927 300.698C261.626 302.115 262.439 303.465 263.355 304.75C264.356 306.148 265.48 307.461 266.699 308.67C268.059 310.021 269.532 311.239 271.1 312.344C271.979 312.968 272.876 313.601 273.821 314.12C274.123 314.281 274.463 314.413 274.793 314.526C274.85 314.545 275.436 314.715 275.436 314.744V325.587H179.667L179.61 315.386C179.61 315.386 194.581 312.382 197.717 280.21C197.755 280.182 258.556 279.011 258.556 279.011Z" fill="#0064B7"/>
<path d="M258.812 296.268L197.311 283.762L197.746 280.182L258.944 279.398C258.944 279.398 255.543 283.318 258.812 296.268Z" fill="#023EA1"/>
<path d="M275.456 315.358H179.639L179.63 325.559H275.456V315.358Z" fill="#023EA1"/>
<path d="M362.913 78.1582H91.4455C80.0635 77.7615 80.0635 87.1882 80.0635 87.1882V132.291V229.978V275.081C80.0635 275.081 80.0635 284.498 91.4455 284.111H362.903C362.903 284.111 375.069 284.507 375.069 272.729C375.069 272.436 375.069 272.039 375.069 271.567V266.079C375.069 266.079 375.069 129.609 375.069 96.2088C375.069 93.8285 375.069 91.9582 375.069 90.7209C375.069 90.2391 375.069 89.8519 375.069 89.559C375.06 77.7709 362.913 78.1582 362.913 78.1582ZM362.516 267.628L92.6167 269.187L92.22 181.125L92.6167 93.0634L362.516 94.6219L362.913 181.125L362.516 267.628Z" fill="#0064B7"/>
<path d="M103.849 177.876H174.2C177.204 177.876 179.641 175.439 179.641 172.435V105.22C179.641 102.216 177.204 99.7793 174.2 99.7793H103.849C100.846 99.7793 98.4087 102.216 98.4087 105.22V172.435C98.3993 175.439 100.836 177.876 103.849 177.876Z" stroke="#003EB0" stroke-width="0.860145" stroke-miterlimit="10" stroke-dasharray="5.16 5.16"/>
<path d="M192.04 177.876H350.415C353.419 177.876 355.856 175.439 355.856 172.435V105.22C355.856 102.216 353.419 99.7793 350.415 99.7793H192.04C189.037 99.7793 186.6 102.216 186.6 105.22V172.435C186.59 175.439 189.037 177.876 192.04 177.876Z" fill="white"/>
<path d="M341.196 123.366H197.453C194.581 123.366 192.248 121.033 192.248 118.161C192.248 115.29 194.581 112.957 197.453 112.957H341.196C344.068 112.957 346.401 115.29 346.401 118.161C346.401 121.033 344.068 123.366 341.196 123.366Z" fill="#EE384E"/>
<path d="M281.736 135.182H195.148C193.552 135.182 192.248 133.888 192.248 132.282C192.248 130.686 193.542 129.382 195.148 129.382H281.736C283.332 129.382 284.636 130.676 284.636 132.282C284.626 133.888 283.323 135.182 281.736 135.182Z" fill="#DBE9F8"/>
<path d="M201.373 160.892C205.348 160.892 208.571 157.67 208.571 153.695C208.571 149.72 205.348 146.497 201.373 146.497C197.398 146.497 194.176 149.72 194.176 153.695C194.176 157.67 197.398 160.892 201.373 160.892Z" fill="#395196"/>
<path d="M220.763 160.892C224.738 160.892 227.96 157.67 227.96 153.695C227.96 149.72 224.738 146.497 220.763 146.497C216.787 146.497 213.565 149.72 213.565 153.695C213.565 157.67 216.787 160.892 220.763 160.892Z" fill="#3D83D9"/>
<path d="M239.268 160.892C243.243 160.892 246.466 157.67 246.466 153.695C246.466 149.72 243.243 146.497 239.268 146.497C235.293 146.497 232.071 149.72 232.071 153.695C232.071 157.67 235.293 160.892 239.268 160.892Z" fill="#00A9FF"/>
<path d="M258.661 160.892C262.636 160.892 265.859 157.67 265.859 153.695C265.859 149.72 262.636 146.497 258.661 146.497C254.686 146.497 251.463 149.72 251.463 153.695C251.463 157.67 254.686 160.892 258.661 160.892Z" fill="#DD4B39"/>
<path d="M355.866 186.642C355.866 185.461 354.921 184.517 353.74 184.517H100.522C99.341 184.517 98.3965 185.461 98.3965 186.642V226.323C98.3965 226.455 98.4059 226.578 98.4248 226.701C98.4059 226.824 98.3965 226.956 98.3965 227.079V258.268C98.3965 259.449 99.341 260.393 100.522 260.393H353.74C354.921 260.393 355.866 259.449 355.866 258.268V227.079C355.866 226.946 355.856 226.824 355.837 226.701C355.856 226.578 355.866 226.446 355.866 226.323V186.642Z" fill="white"/>
<path d="M172.3 241.117H134.215C133.28 241.117 132.515 240.352 132.515 239.417C132.515 238.481 133.28 237.716 134.215 237.716H172.3C173.235 237.716 174 238.481 174 239.417C174.01 240.352 173.245 241.117 172.3 241.117Z" fill="#DBE9F8"/>
<path d="M153.93 248.673H134.226C133.291 248.673 132.526 247.908 132.526 246.973C132.526 246.038 133.291 245.273 134.226 245.273H153.93C154.865 245.273 155.63 246.038 155.63 246.973C155.63 247.908 154.865 248.673 153.93 248.673Z" fill="#DBE9F8"/>
<path d="M122.345 238.5C121.769 237.943 121.145 237.443 120.427 237.074C119.388 236.555 118.283 236.319 117.15 236.234C115.922 236.139 114.684 236.158 113.457 236.309C111.756 236.526 110.273 237.188 109.045 238.397C108.819 238.623 108.602 238.878 108.498 239.19C108.469 239.284 108.441 239.398 108.413 239.492C108.413 239.936 108.413 240.371 108.413 240.824C108.649 241.438 108.857 241.589 109.537 241.589C110.028 241.589 110.528 241.589 111.02 241.589C111.662 241.589 112.021 241.23 112.03 240.588C112.03 240.191 112.144 239.823 112.342 239.492C112.71 238.897 113.239 238.5 113.891 238.264C114.599 238.009 115.327 237.99 116.054 238.028C116.649 238.047 117.235 238.151 117.764 238.434C118.68 238.926 119.266 239.643 119.275 240.73C119.275 241.211 119.691 241.589 120.182 241.589C120.767 241.589 121.344 241.589 121.939 241.589C122.496 241.589 122.864 241.221 122.864 240.654C122.864 240.371 122.855 240.078 122.864 239.795C122.883 239.284 122.704 238.85 122.345 238.5Z" fill="#DBE9F8"/>
<path d="M119.503 241.948C119.342 241.712 119.087 241.608 118.794 241.598C118.653 241.598 118.511 241.598 118.35 241.598C118.35 241.239 118.341 240.89 118.35 240.55C118.36 240.248 118.218 240.049 117.973 239.917C117.755 239.794 117.519 239.766 117.274 239.804C116.763 239.889 116.556 240.144 116.546 240.654C116.546 240.956 116.546 241.277 116.546 241.589C115.932 241.589 115.347 241.589 114.742 241.589C114.742 241.23 114.733 240.89 114.742 240.541C114.752 240.257 114.61 240.059 114.374 239.917C114.147 239.794 113.901 239.757 113.656 239.794C113.155 239.879 112.947 240.134 112.947 240.644C112.947 240.947 112.947 241.268 112.947 241.589C112.796 241.589 112.674 241.589 112.541 241.589C112.211 241.589 111.956 241.731 111.767 242.005C111.644 242.175 111.54 242.354 111.427 242.524C110.784 243.535 110.161 244.574 109.689 245.679C109.434 246.255 109.292 246.841 109.33 247.474C109.349 247.908 109.33 248.333 109.33 248.768C109.33 249.334 109.708 249.712 110.274 249.712C113.854 249.712 117.425 249.712 121.014 249.712C121.581 249.712 121.968 249.334 121.968 248.758C121.968 248.305 121.959 247.842 121.968 247.389C121.987 246.803 121.874 246.236 121.656 245.698C121.127 244.338 120.343 243.119 119.503 241.948ZM115.63 248.815C114.147 248.805 112.938 247.587 112.938 246.104C112.947 244.602 114.166 243.393 115.687 243.403C117.17 243.412 118.379 244.63 118.369 246.123C118.35 247.615 117.132 248.824 115.63 248.815Z" fill="#DBE9F8"/>
<path d="M115.647 244.3C114.646 244.3 113.843 245.103 113.843 246.123C113.843 247.106 114.656 247.918 115.638 247.918C116.639 247.918 117.442 247.115 117.442 246.095C117.451 245.113 116.639 244.3 115.647 244.3Z" fill="#DBE9F8"/>
<path d="M122.874 232.596C120.767 232.596 119.077 234.296 119.077 236.393C119.077 238.49 120.777 240.19 122.874 240.19C124.98 240.19 126.671 238.49 126.671 236.393C126.671 234.305 124.971 232.596 122.874 232.596ZM122.874 237.857C122.071 237.857 121.429 237.205 121.429 236.412C121.429 235.609 122.08 234.967 122.874 234.967C123.667 234.967 124.319 235.618 124.319 236.412C124.319 237.205 123.677 237.857 122.874 237.857Z" fill="#2626DB"/>
<path d="M257.79 241.116H219.705C218.77 241.116 218.005 240.351 218.005 239.416C218.005 238.48 218.77 237.715 219.705 237.715H257.79C258.725 237.715 259.49 238.48 259.49 239.416C259.5 240.351 258.734 241.116 257.79 241.116Z" fill="#DBE9F8"/>
<path d="M239.409 248.672H219.705C218.77 248.672 218.005 247.907 218.005 246.972C218.005 246.037 218.77 245.272 219.705 245.272H239.409C240.344 245.272 241.109 246.037 241.109 246.972C241.118 247.907 240.353 248.672 239.409 248.672Z" fill="#DBE9F8"/>
<path d="M189.933 238.784V247.521C189.933 248.702 190.877 249.646 192.058 249.646H209.277C210.458 249.646 211.403 248.702 211.403 247.521V238.784L200.663 244.215L189.933 238.784Z" fill="#DBE9F8"/>
<path d="M211.403 236.11H189.933L200.672 241.541L211.403 236.11Z" fill="#DBE9F8"/>
<path d="M211.791 232.596C209.684 232.596 207.994 234.296 207.994 236.393C207.994 238.49 209.694 240.19 211.791 240.19C213.888 240.19 215.588 238.49 215.588 236.393C215.607 234.305 213.897 232.596 211.791 232.596ZM211.791 237.857C210.988 237.857 210.346 237.205 210.346 236.412C210.346 235.609 210.997 234.967 211.791 234.967C212.594 234.967 213.236 235.618 213.236 236.412C213.236 237.205 212.594 237.857 211.791 237.857Z" fill="#2626DB"/>
<path d="M343.256 241.116H305.171C304.236 241.116 303.471 240.351 303.471 239.416C303.471 238.48 304.236 237.715 305.171 237.715H343.256C344.191 237.715 344.956 238.48 344.956 239.416C344.956 240.351 344.191 241.116 343.256 241.116Z" fill="#DBE9F8"/>
<path d="M324.875 248.672H305.171C304.236 248.672 303.471 247.907 303.471 246.972C303.471 246.037 304.236 245.272 305.171 245.272H324.875C325.81 245.272 326.575 246.037 326.575 246.972C326.575 247.907 325.81 248.672 324.875 248.672Z" fill="#DBE9F8"/>
<path d="M292.769 242.42C292.552 239.048 289.85 236.337 286.459 236.111V236.101H286.016H285.572V236.111C282.199 236.328 279.489 239.039 279.262 242.42H279.252V242.864V243.308H279.262C279.479 246.68 282.19 249.382 285.572 249.618V249.627H286.016H286.459V249.618C289.832 249.401 292.533 246.699 292.769 243.308H292.779V242.864V242.42H292.769ZM283.484 237.584C283.05 238.16 282.691 238.888 282.417 239.719H281.066C281.652 238.793 282.492 238.056 283.484 237.584ZM280.594 240.626H282.181C282.058 241.192 281.982 241.806 281.963 242.43H280.169C280.216 241.787 280.358 241.183 280.594 240.626ZM280.159 243.327H281.954C281.973 243.96 282.048 244.555 282.171 245.131H280.584C280.358 244.583 280.216 243.969 280.159 243.327ZM281.066 246.038H282.417C282.681 246.869 283.04 247.596 283.484 248.173C282.492 247.7 281.652 246.964 281.066 246.038ZM285.562 248.692C284.636 248.437 283.834 247.455 283.352 246.047H285.562V248.692ZM285.562 245.131H283.097C282.965 244.564 282.889 243.969 282.87 243.327H285.572V245.131H285.562ZM285.562 242.42H282.861C282.88 241.787 282.974 241.183 283.087 240.616H285.553V242.42H285.562ZM285.562 239.719H283.352C283.843 238.311 284.636 237.31 285.562 237.074V239.719ZM290.965 239.719H289.614C289.35 238.888 288.991 238.16 288.547 237.584C289.539 238.056 290.37 238.793 290.965 239.719ZM286.459 237.065C287.385 237.32 288.188 238.302 288.67 239.709H286.459V237.065ZM286.459 240.626H288.925C289.057 241.192 289.133 241.787 289.161 242.43H286.459V240.626ZM286.459 243.327H289.161C289.142 243.96 289.048 244.564 288.925 245.131H286.459V243.327ZM286.459 248.692V246.047H288.67C288.197 247.445 287.385 248.447 286.459 248.692ZM288.547 248.173C288.981 247.596 289.34 246.869 289.614 246.038H290.965C290.37 246.964 289.539 247.7 288.547 248.173ZM291.428 245.131H289.841C289.964 244.564 290.039 243.95 290.058 243.327H291.853C291.825 243.969 291.673 244.583 291.428 245.131ZM290.068 242.42C290.049 241.787 289.973 241.192 289.85 240.616H291.437C291.673 241.183 291.815 241.778 291.872 242.42H290.068Z" fill="#DBE9F8"/>
<path d="M292.967 232.596C290.861 232.596 289.17 234.296 289.17 236.393C289.17 238.49 290.87 240.19 292.967 240.19C295.073 240.19 296.764 238.49 296.764 236.393C296.774 234.305 295.064 232.596 292.967 232.596ZM292.967 237.857C292.164 237.857 291.522 237.205 291.522 236.412C291.522 235.609 292.174 234.967 292.967 234.967C293.77 234.967 294.412 235.618 294.412 236.412C294.422 237.205 293.77 237.857 292.967 237.857Z" fill="#023EA1"/>
<path d="M63.4128 177.877L53.8916 257.069L47.0907 256.389L46.1084 175.817L63.4128 177.877Z" fill="#EE384E"/>
<path d="M53.041 177.877L70.9121 257.069L77.7319 256.389L73.0469 175.817L53.041 177.877Z" fill="#DE051F"/>
<path d="M111.407 143.74L55.4988 130.649C49.6425 129.279 46.0059 123.413 47.3755 117.557L60.4672 61.6482C61.8368 55.7919 67.7025 52.1553 73.5588 53.5249L129.468 66.6166C135.324 67.9862 138.96 73.8519 137.591 79.7082L124.499 135.617C123.12 141.473 117.264 145.11 111.407 143.74Z" fill="white" stroke="#0055DB" stroke-width="2.58043" stroke-miterlimit="10"/>
<path d="M65.9253 119.342C65.9253 119.342 67.9467 121.92 68.0506 126.52C68.145 131.12 67.5688 134.408 65.6041 134.445C63.6395 134.483 59.6723 133.255 58.9828 131.961C58.2932 130.667 56.9897 130.686 56.9236 128.07C56.8669 125.444 60.0123 119.465 62.6382 119.408C65.2735 119.37 65.9253 119.342 65.9253 119.342Z" fill="#FFBE9B"/>
<path d="M57.9227 128.38C57.9227 128.38 57.3371 131.667 56.0903 134.983C54.8529 138.289 54.2295 139.621 54.2295 139.621C54.2295 139.621 58.2722 144.126 62.1922 143.389C66.1121 142.653 66.0554 140.027 66.0554 140.027C66.0554 140.027 62.3811 137.155 62.2961 133.217C62.211 129.287 62.211 129.287 62.211 129.287L57.9227 128.38Z" fill="#FEBE9A"/>
<path d="M67.8976 119.304C67.8976 119.304 69.7489 114.015 68.4171 113.391C67.0852 112.758 64.4971 114.128 63.8548 114.808C63.2125 115.479 61.909 115.507 61.2384 115.517C61.2384 115.517 54.6831 115.658 53.3985 117C52.1139 118.341 52.1233 118.993 52.1422 119.654C52.1517 120.306 52.2084 122.875 51.5849 124.263C51.311 124.858 50.9993 127.55 52.3689 130.157C53.7386 132.745 55.0704 133.378 55.7221 133.369C56.3739 133.359 56.9784 133.34 57.0162 132.679C57.0729 131.971 57.309 130.97 57.6113 130.044C57.9041 129.166 58.2063 127.409 58.2063 127.409C58.2063 127.409 58.792 124.122 60.0671 122.771C61.3423 121.42 61.3517 121.43 63.9587 120.712C66.5752 119.984 67.2836 121.288 67.8976 119.304Z" fill="#160C56"/>
<path d="M59.1506 124.292C60.1518 125.387 58.8766 127.38 58.8766 127.38C58.8766 127.38 56.9308 128.079 56.8836 126.105C56.8458 124.141 58.1588 123.187 59.1506 124.292Z" fill="#FFBE9B"/>
<path d="M76.2387 147.056L82.1989 155.132C82.1989 155.132 82.6239 155.557 83.049 155.132C83.474 154.707 90.6999 145.771 91.125 144.496C91.5501 143.221 91.125 141.945 92.4002 139.811C93.6753 137.676 94.9505 136.826 94.9505 136.826C94.9505 136.826 96.2256 135.976 95.8006 137.251C95.3755 138.526 94.9505 139.801 95.8006 140.236C96.6507 140.67 103.452 141.936 103.452 141.936C103.452 141.936 96.6412 144.061 94.9316 146.621C93.2314 149.171 88.5463 157.682 86.4116 159.807C84.2864 161.932 82.1517 163.217 80.8765 161.932C79.6013 160.657 71.0908 152.147 71.0908 152.147L76.2387 147.056Z" fill="#FFBE9B"/>
<path d="M72.4038 131.309C72.4038 131.309 69.419 133.434 68.9939 135.569C68.5689 137.694 66.8687 141.104 66.8687 141.104L68.5689 143.229C68.5689 143.229 71.9787 140.679 74.104 139.395C76.2293 138.11 80.0642 136.41 80.0642 136.41L72.4132 134.71C72.4132 134.71 71.9882 133.434 72.4132 132.584C72.8383 131.734 72.4038 131.309 72.4038 131.309Z" fill="#FFBE9B"/>
<path d="M47.099 261.565C47.099 261.565 46.7212 262.632 48.9315 262.623C51.1418 262.604 63.1472 262.5 63.1472 262.5C63.1472 262.5 65.4519 262.018 63.3077 260.998C61.1636 259.978 54.7311 257.154 54.7311 257.154C54.7311 257.154 54.2399 257.021 54.2399 255.793L46.9668 255.86L47.099 261.565Z" fill="#170856"/>
<path d="M70.5517 261.565C70.5517 261.565 70.1738 262.632 72.3841 262.623C74.5944 262.604 86.5998 262.5 86.5998 262.5C86.5998 262.5 88.9045 262.018 86.7604 260.998C84.6162 259.987 78.1837 257.154 78.1837 257.154C78.1837 257.154 77.6926 257.021 77.6926 255.793L70.4194 255.86L70.5517 261.565Z" fill="#170856"/>
<path d="M63.8458 138.346C63.8458 138.346 64.5542 137.761 65.3665 138.412C66.1789 139.055 69.022 141.161 70.4105 143.853C71.7896 146.554 72.2713 150.304 72.7436 159.051C73.2253 167.807 73.1497 177.272 73.1497 177.272L46.0313 177.867C46.0313 177.867 45.1718 161.941 47.7315 152.156C50.2913 142.37 54.1168 138.97 54.9669 138.545C55.817 138.12 56.6671 138.97 56.6671 138.97C56.6671 138.97 60.3981 142.389 63.8458 138.346Z" fill="#0083F9"/>
<path d="M102.807 332.736L91.397 279.68L87.836 263.15H42.9126L58.9985 332.736" stroke="#96AABE" stroke-width="2.58043" stroke-miterlimit="10"/>
<path d="M46.8257 280.058L91.3996 279.681" stroke="#96AABE" stroke-width="2.58043" stroke-miterlimit="10"/>
<path d="M50.5815 296.371L94.9004 295.994" stroke="#96AABE" stroke-width="2.58043" stroke-miterlimit="10"/>
<path d="M54.4473 313.655L98.615 313.277" stroke="#96AABE" stroke-width="2.58043" stroke-miterlimit="10"/>
<path d="M27.5371 332.737L38.9569 279.681L42.5179 263.151H87.4224L71.346 332.737" stroke="#2626DB" stroke-width="2.58043" stroke-miterlimit="10"/>
<path d="M83.5206 280.058L38.9561 279.681" stroke="#2626DB" stroke-width="2.58043" stroke-miterlimit="10"/>
<path d="M79.7741 296.372L35.4458 295.994" stroke="#2626DB" stroke-width="2.58043" stroke-miterlimit="10"/>
<path d="M75.9008 313.656L31.7236 313.278" stroke="#2626DB" stroke-width="2.58043" stroke-miterlimit="10"/>
<path d="M384.146 246.027L356.14 223.943C356.14 223.943 355.375 223.433 354.27 221.836C353.155 220.249 351.011 218.644 349.764 218.993L346.987 216.415C346.987 216.415 346.014 216.226 346.987 217.123C347.96 218.03 348.508 219.135 348.508 219.135C348.508 219.135 347.639 219.579 347.884 219.928C347.884 219.928 347.185 220.136 347.261 220.656C347.261 220.656 345.599 221.175 347.233 222.8C348.867 224.434 349.424 225.086 351.219 225.879C353.013 226.672 354.374 227.608 356.14 229.279C357.906 230.942 380.614 252.742 380.614 252.742L384.146 246.027Z" fill="#FFBE9B"/>
<path d="M397.239 240.482C397.239 240.482 403.596 240.331 404.597 233.2C405.589 226.068 400.762 223.612 398.013 222.167C395.255 220.713 393.574 220.939 392.336 218.946C391.099 216.953 390.646 216.424 390.646 216.424C390.646 216.424 385.469 221.808 389.087 226.588C392.714 231.358 397.239 240.482 397.239 240.482Z" fill="#180857"/>
<path d="M407.59 364.682C407.665 364.701 407.665 364.814 407.684 364.89C407.873 365.674 408.837 370.208 406.381 370.255C403.878 370.312 394.366 370.378 393.053 370.387C392.959 370.387 392.883 370.331 392.855 370.236C392.76 369.868 392.581 368.952 393.223 368.659C393.223 368.659 398.749 366.09 400.638 364.588C402.366 363.199 406.834 364.446 407.59 364.682Z" fill="#170856"/>
<path d="M383.712 364.003C383.787 364.031 383.797 364.135 383.806 364.21C383.995 365.061 384.958 370.067 382.503 370.19C379.99 370.312 368.381 370.199 366.88 370.19C366.766 370.19 366.681 370.123 366.653 370.029C366.54 369.689 366.426 368.895 367.427 368.461C367.427 368.461 373.841 365.892 376.769 364.097C379.386 362.482 383.022 363.729 383.712 364.003Z" fill="#170856"/>
<path d="M409.101 284.999L407.655 364.768L400.628 364.579L395.045 313.941L395.716 299.886L399.787 284.839L409.101 284.999Z" fill="#0064E1"/>
<path d="M401.689 284.866C401.689 284.866 395.049 318.757 393.018 322.696L383.771 364.087H376.743L381.107 284.734L401.689 284.866Z" fill="#003EB0"/>
<path d="M389.095 226.577C389.095 226.577 385.581 229.486 385.534 234.53C385.487 239.574 386.365 239.754 388.396 239.754C390.427 239.754 392.042 239.565 392.269 240.679C392.495 241.794 392.222 246.139 391.759 247.433C391.305 248.727 400.165 247.433 400.165 247.433C400.165 247.433 397.719 240.783 397.341 237.874C396.963 234.965 397.388 231.678 395.631 228.91C393.903 226.105 391.825 223.98 389.095 226.577Z" fill="#FFBE9B"/>
<path d="M390.899 248.983L383.777 245.016L379.895 252.865L387.801 259.619L390.899 248.983Z" fill="#F79F03"/>
<path d="M401.688 248.341C401.688 248.341 405.957 253.177 407.44 264.87C408.923 276.564 409.103 284.999 409.103 284.999H381.115C381.115 284.999 383.241 268.497 385.12 259.77C387 251.033 390.381 247.509 390.381 247.509C390.381 247.509 391.26 246.442 392.318 247.141C393.385 247.84 395.926 247.972 398.183 246.905C400.46 245.828 400.97 247.368 401.688 248.341Z" fill="#FCBE42"/>
<path d="M396.028 230.96C396.028 230.96 397.549 230.592 398.248 231.376C398.947 232.16 398.106 233.869 396.727 234.379C395.329 234.899 396.028 230.96 396.028 230.96Z" fill="#FFBE9B"/>
<path d="M392.053 262.802C392.053 262.802 388.861 284.98 387.198 291.016C385.536 297.052 383.042 302.728 383.042 302.728C383.042 302.728 381.928 305.505 383.042 306.544C384.157 307.583 386.773 308.764 387.302 306.894C387.822 305.024 387.822 301 388.521 300.103C389.22 299.196 395.237 285.197 397.258 276.81C399.27 268.422 399.61 264.681 399.61 264.681L392.053 262.802Z" fill="#FFBE9B"/>
<path d="M265.744 290.034C265.744 290.034 269.645 288.447 269.353 283.979C269.069 279.502 266.765 276.337 271.516 277.631C276.276 278.926 277.873 279.502 281.339 278.784C284.787 278.066 287.677 276.621 286.166 281.089C284.655 285.566 283.02 289.306 286.581 290.034C290.142 290.751 293.968 288.059 294.421 295.068C294.875 302.067 289.226 309.945 280.092 310.238C270.958 310.521 266.916 306.743 266.916 306.743C266.916 306.743 264.469 303.295 268.285 302.426C272.111 301.576 276.002 299.952 274.057 298.166C272.111 296.381 265.763 296.239 265.763 296.239C265.763 296.239 257.801 294.643 265.744 290.034Z" fill="#649EEA"/>
<path d="M307.514 291.186C306.872 286.719 307.363 283.507 315.656 282.298C323.949 281.089 328.785 286.067 329.286 291.186C329.787 296.306 322.58 298.167 322.58 298.167C322.58 298.167 317.46 299.621 320.058 304.099C322.646 308.576 323.836 312.902 317.942 313.554C312.048 314.205 305.606 312.647 302.007 310.257C298.418 307.858 294.734 301.794 298.852 298.63C298.852 298.63 300.005 297.836 303.972 297.619C307.939 297.392 307.514 291.186 307.514 291.186Z" fill="#023EA1"/>
<path d="M278.319 290.469C278.319 290.469 285.215 306.054 286.15 316.661" stroke="#023EA1" stroke-width="0.860145" stroke-miterlimit="10"/>
<path d="M316.632 293.028C316.632 293.028 304.437 311.135 301.547 317.19" stroke="#649EEA" stroke-width="0.860145" stroke-miterlimit="10"/>
<path d="M281.897 315.424H309.884C309.884 315.424 312.954 315.641 312.69 319.825C312.463 323.679 307.57 322.839 305.048 322.839C302.526 322.839 281.283 322.839 281.283 322.839C281.283 322.839 277.845 323.424 277.845 319.533C277.854 315.632 279.158 315.424 281.897 315.424Z" fill="#0054A5"/>
<path d="M281.304 322.848L285.535 347.586H304.332L307.515 329.016L281.332 322.848H281.304Z" fill="#0054A5"/>
<path d="M281.331 322.848L307.514 329.016L308.572 322.848H281.331Z" fill="#006AD5"/>
<path d="M293.368 316.359C293.368 316.359 294.785 288.919 302.965 271.7" stroke="#FCBE42" stroke-width="0.860145" stroke-miterlimit="10"/>
<path d="M309.708 261.8C309.708 261.8 310.379 270.226 302.161 273.513C302.152 273.522 300.376 266.325 309.708 261.8Z" fill="#FCBE42"/>
<path d="M297.362 288.617C297.362 288.617 300.394 281.429 309.708 282.392C309.717 282.383 308.99 289.552 297.362 288.617Z" fill="#FCBE42"/>
<path d="M294.31 306.697C294.31 306.697 295.878 299.055 305.2 298.177C305.191 298.177 305.88 305.327 294.31 306.697Z" fill="#FCBE42"/>
<path d="M293.98 306.733C293.98 306.733 295.057 299.016 286.565 295.058C286.565 295.058 283.524 301.585 293.98 306.733Z" fill="#FCBE42"/>
<path d="M297.466 288.56C297.466 288.56 299.525 281.032 291.601 276.035C291.61 276.035 287.747 282.109 297.466 288.56Z" fill="#FCBE42"/>
<path d="M107.521 110.776C107.285 106.667 106.095 102.927 103.309 99.8096C102.808 99.2429 102.232 98.7328 101.675 98.1755C100.295 99.9985 98.6897 101.425 96.7439 102.436C93.7497 103.994 90.7648 104.164 87.8272 102.294C85.8059 101 84.4835 99.1295 83.6239 96.9098C83.2745 96.0314 83.0289 95.1057 82.7266 94.1611C80.828 94.539 78.221 95.9464 76.5303 97.5238C72.6198 101.17 70.6834 105.798 69.8522 110.974C69.6916 111.994 70.06 112.627 71.0329 113.024C71.628 113.26 72.2609 113.44 72.8937 113.581C82.8683 115.773 92.8334 117.936 102.808 120.118C103.28 120.212 103.743 120.316 104.225 120.382C105.67 120.59 106.445 120.052 106.794 118.644C107.408 116.037 107.673 113.421 107.521 110.776Z" fill="#C6D7F0"/>
<path d="M87.5331 98.7887C89.3183 101.046 91.7364 101.868 94.2395 101.122C95.6469 100.697 96.8559 99.9317 97.9327 98.9776C100.285 96.8713 101.928 94.3021 102.901 91.3078C103.95 88.0585 103.855 84.8564 102.316 81.7772C99.7746 76.7426 93.9561 75.3636 89.4317 78.7073C86.9852 80.5303 85.559 83.0051 84.8789 85.9521C84.4822 87.6807 84.4444 89.4376 84.6522 91.2039C84.9828 93.9526 85.7762 96.569 87.5331 98.7887Z" fill="#C6D7F0"/>
<path d="M117.036 213.082L108.421 208.227V198.601L117.036 193.973V213.082Z" fill="#023EA1"/>
<path d="M117.036 203.655L125.651 198.602L117.036 193.983V203.655Z" fill="#DBE9F8"/>
<path d="M209.098 208.366H138.907C136.499 208.366 134.553 206.42 134.553 204.012V203.058C134.553 200.649 136.499 198.703 138.907 198.703H209.098C211.506 198.703 213.452 200.649 213.452 203.058V204.012C213.462 206.42 211.506 208.366 209.098 208.366Z" fill="#EE384E"/>
<path d="M341.081 214.261H136.253C135.318 214.261 134.553 213.496 134.553 212.561C134.553 211.626 135.318 210.861 136.253 210.861H341.091C342.026 210.861 342.791 211.626 342.791 212.561C342.782 213.496 342.017 214.261 341.081 214.261Z" fill="#DBE9F8"/>
<path d="M260.89 220.231H136.642C135.707 220.231 134.942 219.466 134.942 218.531C134.942 217.596 135.707 216.831 136.642 216.831H260.89C261.825 216.831 262.59 217.596 262.59 218.531C262.59 219.466 261.834 220.231 260.89 220.231Z" fill="#DBE9F8"/>
<path d="M77.5138 147.48C77.5138 147.48 73.6788 141.945 69.4378 140.245C65.1967 138.544 63.0525 141.945 65.1778 145.355C67.303 148.765 71.138 153.431 71.138 153.431L77.5138 147.48Z" fill="#0064B7"/>
<path d="M390.903 263.926C390.903 263.926 392.82 251.704 397.949 251.647C397.949 251.647 400.859 251.647 400.934 256.077C401.01 260.507 400.585 265.768 400.585 265.768L390.903 263.926Z" fill="#F79F03"/>
</svg>
