<svg width="340" height="270" viewBox="0 0 340 270" fill="none" xmlns="http://www.w3.org/2000/svg">
<path d="M74.0293 49.0346C74.3139 48.0386 74.4562 46.9003 74.4562 45.762C74.4562 37.7939 67.911 31.1064 59.8006 31.1064C58.52 31.1064 57.2394 31.2487 55.9588 31.6755C53.5399 27.4069 48.9867 24.5612 43.7221 24.5612C36.3232 24.5612 30.2048 30.3949 29.7779 37.6516C29.0665 37.5093 28.3551 37.5093 27.6436 37.5093C21.6676 37.5093 16.9721 41.9202 16.2606 47.6117C12.8457 47.6117 10 50.4575 10 54.0146C10 57.5718 12.8457 60.4176 16.4029 60.4176H69.903C73.4602 60.4176 76.3059 57.5718 76.3059 54.0146C76.4482 51.8803 75.4522 50.1729 74.0293 49.0346Z" stroke="#003EAE" stroke-width="0.5" stroke-miterlimit="10"/>
<path d="M35.042 71.0892V85.8871" stroke="#003EAE" stroke-width="0.5" stroke-miterlimit="10"/>
<path d="M35.042 62.2674V68.1012" stroke="#003EAE" stroke-width="0.5" stroke-miterlimit="10"/>
<path d="M35.042 56.7181V59.8485" stroke="#003EAE" stroke-width="0.5" stroke-miterlimit="10"/>
<path d="M32.3389 84.1796L35.0423 87.5945L37.8881 84.1796" stroke="#003EAE" stroke-width="0.5" stroke-miterlimit="10"/>
<path d="M44.5752 77.3497V92.1476" stroke="#003EAE" stroke-width="0.5" stroke-miterlimit="10"/>
<path d="M44.5752 68.5279V74.504" stroke="#003EAE" stroke-width="0.5" stroke-miterlimit="10"/>
<path d="M44.5752 63.121V66.2514" stroke="#003EAE" stroke-width="0.5" stroke-miterlimit="10"/>
<path d="M41.7295 90.4402L44.5752 93.9974L47.421 90.4402" stroke="#003EAE" stroke-width="0.5" stroke-miterlimit="10"/>
<path d="M53.541 64.9708V79.7687" stroke="#003EAE" stroke-width="0.5" stroke-miterlimit="10"/>
<path d="M53.541 56.149V62.1251" stroke="#003EAE" stroke-width="0.5" stroke-miterlimit="10"/>
<path d="M53.541 50.5998V53.8724" stroke="#003EAE" stroke-width="0.5" stroke-miterlimit="10"/>
<path d="M50.6953 78.0612L53.5411 81.4761L56.2445 78.0612" stroke="#003EAE" stroke-width="0.5" stroke-miterlimit="10"/>
<path d="M266.403 181.077C266.118 180.081 265.976 178.943 265.976 177.805C265.976 169.837 272.521 163.149 280.631 163.149C281.912 163.149 283.192 163.291 284.473 163.718C286.892 159.45 291.445 156.604 296.71 156.604C304.109 156.604 310.227 162.438 310.654 169.694C311.365 169.552 312.077 169.552 312.788 169.552C318.764 169.552 323.46 173.963 324.171 179.654C327.586 179.654 330.432 182.5 330.432 186.057C330.432 189.615 327.586 192.46 324.029 192.46H270.529C266.972 192.46 264.126 189.615 264.126 186.057C263.841 184.065 264.98 182.216 266.403 181.077Z" stroke="#EE384E" stroke-width="0.5" stroke-miterlimit="10"/>
<path d="M302.97 197.867V183.069" stroke="#EE384E" stroke-width="0.5" stroke-miterlimit="10"/>
<path d="M302.97 206.689V200.855" stroke="#EE384E" stroke-width="0.5" stroke-miterlimit="10"/>
<path d="M302.97 212.238V209.108" stroke="#EE384E" stroke-width="0.5" stroke-miterlimit="10"/>
<path d="M305.673 184.919L302.97 181.362L300.124 184.919" stroke="#EE384E" stroke-width="0.5" stroke-miterlimit="10"/>
<path d="M293.438 191.607V176.809" stroke="#EE384E" stroke-width="0.5" stroke-miterlimit="10"/>
<path d="M293.438 200.428V194.452" stroke="#EE384E" stroke-width="0.5" stroke-miterlimit="10"/>
<path d="M293.438 205.978V202.705" stroke="#EE384E" stroke-width="0.5" stroke-miterlimit="10"/>
<path d="M296.283 178.516L293.438 175.101L290.592 178.516" stroke="#EE384E" stroke-width="0.5" stroke-miterlimit="10"/>
<path d="M284.473 203.986V189.188" stroke="#EE384E" stroke-width="0.5" stroke-miterlimit="10"/>
<path d="M284.473 212.807V206.974" stroke="#EE384E" stroke-width="0.5" stroke-miterlimit="10"/>
<path d="M284.473 218.357V215.084" stroke="#EE384E" stroke-width="0.5" stroke-miterlimit="10"/>
<path d="M287.319 190.895L284.473 187.48L281.77 190.895" stroke="#EE384E" stroke-width="0.5" stroke-miterlimit="10"/>
<path d="M286.037 22C288.171 22 290.306 22 292.44 22C292.44 22 292.582 22 292.725 22.1423C294.29 22.4269 295.001 23.2806 295.286 24.8457C295.428 26.2686 295.713 27.8338 295.855 29.2567C295.997 29.9681 297.136 30.395 297.847 29.9681C298.985 29.1144 300.266 27.9761 301.546 27.1223C302.969 26.1263 304.535 26.1263 305.815 27.2646C307.096 28.5452 308.519 29.9681 309.799 31.391C310.937 32.5293 310.937 34.2367 309.941 35.6596C309.23 36.6556 308.376 37.9362 307.523 38.9322C306.953 39.5013 306.811 40.0705 307.38 40.9242C307.523 41.0665 307.665 41.3511 307.949 41.3511C309.372 41.4934 311.08 41.7779 312.503 41.9202C313.641 42.0625 314.637 42.6317 314.921 43.77C315.064 44.0545 315.064 44.3391 315.206 44.766C315.206 46.9003 315.206 49.0346 315.206 51.3112C315.206 51.4535 315.064 51.5958 315.064 51.7381C314.637 53.0186 313.925 53.8724 312.503 54.0147C311.08 54.1569 309.515 54.4415 308.092 54.5838C307.38 54.5838 306.811 55.8644 307.38 56.5758C308.234 57.7141 309.372 59.137 310.226 60.2753C311.222 61.5559 311.08 63.2633 310.084 64.5439C308.803 65.9668 307.38 67.3897 305.957 68.6703C304.819 69.8086 303.112 69.8086 301.689 68.8125C300.408 67.9588 299.128 66.8205 297.847 65.9668C297.42 65.5399 295.997 65.9668 295.855 66.6782C295.713 68.2434 295.428 69.8085 295.144 71.3737C295.001 72.512 294.29 73.508 293.009 73.7926C292.867 73.7926 292.582 73.9349 292.298 74.0772C290.021 74.0772 287.887 74.0772 285.753 74.0772C285.753 74.0772 285.61 74.0772 285.61 73.9349C284.187 73.6503 283.334 72.7966 283.049 71.2314C282.907 69.8086 282.622 68.2434 282.48 66.9628C282.338 66.2514 281.199 65.6822 280.346 66.2514C279.207 67.1051 277.927 68.2434 276.646 68.9548C275.223 69.9508 273.658 69.9508 272.378 68.8125C271.097 67.6742 269.816 66.2514 268.394 64.8285C267.255 63.6902 267.255 61.9827 268.251 60.5599C268.963 59.5639 269.816 58.2833 270.67 57.2873C271.239 56.7181 271.239 56.0067 270.812 55.2952C270.67 55.153 270.528 54.8684 270.386 54.8684C268.963 54.7261 267.398 54.4415 266.117 54.2992C264.125 54.1569 263.129 53.0186 263.129 51.0266C263.129 49.0346 263.129 47.1849 263.129 45.1928C263.129 43.3431 264.125 42.2048 265.832 42.0625C267.255 41.9202 268.82 41.6357 270.243 41.4934C270.955 41.4934 271.382 40.2128 270.955 39.5013C270.101 38.363 268.963 36.9402 268.109 35.8019C267.113 34.5213 267.113 32.8138 268.251 31.5333C269.532 30.2527 270.955 28.8298 272.378 27.4069C273.516 26.2686 275.223 26.2686 276.646 27.2646C277.927 28.1184 279.207 29.2567 280.488 30.1104C280.915 30.5372 282.338 30.1104 282.48 29.3989C282.622 27.9761 282.907 26.2686 283.191 24.8457C283.334 23.5652 284.045 22.7114 285.326 22.4269C285.468 22.1423 285.753 22.1423 286.037 22ZM307.38 33.9521C306.1 32.6716 304.819 31.2487 303.396 29.9681C301.546 31.2487 299.839 32.6716 297.989 33.9521C297.705 34.0944 297.42 34.0944 297.136 33.9521C295.997 33.383 294.717 32.9561 293.578 32.387C293.152 32.2447 292.867 31.9601 292.867 31.5333C292.582 29.3989 292.298 27.2646 292.013 25.1303C292.013 24.8457 291.871 24.7035 291.586 24.7035C290.164 24.7035 288.598 24.7035 287.175 24.7035C286.749 24.7035 286.749 24.8457 286.606 25.1303C286.322 27.2646 286.037 29.3989 285.753 31.5333C285.753 31.9601 285.61 32.1024 285.041 32.2447C283.903 32.6716 282.622 33.0984 281.484 33.6676C281.057 33.8098 280.773 33.8098 280.488 33.6676C278.638 32.387 276.931 30.9641 275.223 29.8258C273.943 31.1064 272.52 32.5293 271.239 33.8098C271.239 33.9521 271.382 34.0944 271.524 34.2367C272.662 35.8019 273.943 37.367 275.081 38.9322C275.223 39.0745 275.223 39.3591 275.223 39.6436C274.654 40.9242 274.085 42.3471 273.374 43.6277C273.374 43.77 273.089 44.0545 272.947 44.0545C271.808 44.1968 270.528 44.3391 269.39 44.4814C268.251 44.6237 266.971 44.766 265.832 44.9083C265.832 46.9003 265.832 48.6077 265.832 50.4575C265.975 50.4575 266.259 50.5998 266.544 50.5998C268.678 50.8843 270.67 51.1689 272.804 51.4535C273.231 51.4535 273.374 51.5958 273.516 52.0226C273.943 53.1609 274.37 54.4415 274.939 55.5798C275.081 56.0067 275.081 56.2913 274.939 56.7181C273.658 58.5679 272.235 60.2753 271.097 61.9827C272.378 63.2633 273.658 64.5439 275.081 65.9668C275.223 65.9668 275.366 65.8245 275.65 65.5399C277.215 64.4016 278.923 63.121 280.346 61.9827C280.488 61.8405 280.773 61.8405 281.057 61.8405C282.338 62.2673 283.618 62.9788 285.041 63.4056C285.468 63.5479 285.61 63.6902 285.61 64.1171C285.895 66.2514 286.179 68.3857 286.464 70.52C286.464 70.9469 286.606 71.0891 287.033 71.0891C288.456 71.0891 290.021 71.0891 291.302 71.0891C291.729 71.0891 291.871 70.9469 291.871 70.52C292.156 68.3857 292.44 66.2514 292.725 63.9748C292.725 63.6902 292.867 63.4056 293.152 63.2633C294.432 62.8365 295.855 62.125 297.136 61.6982C297.278 61.6982 297.562 61.6982 297.847 61.6982C299.412 62.8365 301.12 64.1171 302.685 65.2554C302.827 65.3976 303.112 65.5399 303.112 65.5399C304.392 64.2593 305.815 62.8365 307.096 61.5559C307.096 61.4136 306.953 61.2713 306.811 61.129C305.673 59.5639 304.392 57.9987 303.254 56.4335C303.112 56.2913 303.112 56.0067 303.112 55.8644C303.681 54.5838 304.25 53.0186 304.961 51.7381C304.961 51.5958 305.246 51.4535 305.388 51.4535C306.242 51.3112 307.238 51.1689 308.092 51.1689C309.515 51.0266 311.08 50.742 312.503 50.5998C312.503 48.6077 312.503 46.9003 312.503 45.0506C310.084 44.766 307.949 44.3391 305.531 44.0545C305.246 44.0545 305.104 43.9123 304.961 43.6277C304.535 42.3471 303.965 41.0665 303.396 39.9282C303.254 39.5013 303.254 39.3591 303.396 38.9322C304.819 37.367 306.242 35.5173 307.38 33.9521Z" stroke="#003EAE" stroke-width="0.5" stroke-miterlimit="10"/>
<path d="M307.38 33.9521C306.099 35.8019 304.819 37.5093 303.396 39.2168C303.111 39.5014 303.111 39.7859 303.396 40.2128C303.965 41.3511 304.392 42.774 304.961 43.9123C305.103 44.1968 305.246 44.3391 305.53 44.3391C307.949 44.6237 310.083 44.9083 312.502 45.3351C312.502 47.1849 312.502 48.8923 312.502 50.8843C311.079 51.0266 309.514 51.3112 308.091 51.4535C307.238 51.5958 306.242 51.5958 305.388 51.7381C305.246 51.7381 304.961 51.8804 304.961 52.0226C304.392 53.3032 303.823 54.7261 303.111 56.149C303.111 56.2913 303.111 56.5758 303.254 56.7181C304.392 58.2833 305.673 59.9907 306.811 61.4136C306.953 61.5559 307.095 61.6982 307.095 61.8405C305.815 63.1211 304.534 64.4016 303.111 65.8245C303.111 65.8245 302.827 65.6822 302.684 65.5399C301.119 64.4016 299.412 63.1211 297.847 61.9828C297.704 61.8405 297.42 61.8405 297.135 61.9828C295.855 62.4096 294.432 63.1211 293.151 63.5479C292.867 63.6902 292.724 63.8325 292.724 64.2594C292.44 66.3937 292.155 68.528 291.871 70.8046C291.871 71.2314 291.728 71.3737 291.301 71.3737C289.879 71.3737 288.313 71.3737 287.033 71.3737C286.606 71.3737 286.464 71.2314 286.464 70.8046C286.179 68.6703 285.895 66.536 285.61 64.4016C285.61 63.9748 285.468 63.8325 285.041 63.6902C283.76 63.2633 282.48 62.5519 281.057 62.125C280.914 62.125 280.63 62.125 280.345 62.2673C278.78 63.4056 277.073 64.6862 275.65 65.8245C275.508 65.9668 275.223 66.1091 275.081 66.2514C273.8 64.9708 272.52 63.6902 271.097 62.2673C272.377 60.4176 273.658 58.8524 274.938 57.0027C275.223 56.5758 275.223 56.2913 274.938 55.8644C274.369 54.7261 273.942 53.4455 273.516 52.3072C273.373 51.8804 273.231 51.7381 272.804 51.7381C270.67 51.4535 268.678 51.1689 266.543 50.8843C266.401 50.8843 266.117 50.8843 265.832 50.7421C265.832 48.8923 265.832 47.1849 265.832 45.1928C266.97 45.0506 268.251 44.9083 269.389 44.766C270.528 44.6237 271.808 44.4814 272.946 44.3391C273.089 44.3391 273.373 44.1968 273.373 43.9123C273.942 42.6317 274.512 41.2088 275.223 39.9282C275.223 39.7859 275.223 39.5014 275.081 39.2168C273.942 37.6516 272.662 35.9442 271.524 34.5213C271.381 34.379 271.239 34.2367 271.239 34.0944C272.52 32.8138 273.8 31.391 275.223 30.1104C276.788 31.2487 278.638 32.6716 280.488 33.9521C280.772 34.2367 281.057 34.2367 281.484 33.9521C282.622 33.383 283.903 32.9561 285.041 32.5293C285.468 32.387 285.61 32.2447 285.752 31.8178C286.037 29.6835 286.321 27.5492 286.606 25.4149C286.606 24.988 286.748 24.988 287.175 24.988C288.598 24.988 290.163 24.988 291.586 24.988C291.871 24.988 292.013 24.988 292.013 25.4149C292.297 27.5492 292.582 29.6835 292.867 31.8178C292.867 32.2447 293.151 32.5293 293.578 32.6716C294.716 33.0984 295.997 33.6676 297.135 34.2367C297.42 34.379 297.704 34.379 297.989 34.2367C299.839 32.9561 301.546 31.5333 303.396 30.2527C304.819 31.2487 306.242 32.387 307.38 33.9521ZM277.784 47.8963C277.784 54.1569 282.764 59.2793 289.025 59.2793C295.428 59.2793 300.408 54.2992 300.408 48.0386C300.408 41.6357 295.428 36.6556 289.167 36.6556C283.191 36.5133 277.784 41.6357 277.784 47.8963Z" stroke="#003EAE" stroke-width="0.5" stroke-miterlimit="10"/>
<path d="M285.295 42.2383H38.3906V210.089H285.295V42.2383Z" fill="#0064B5"/>
<path d="M285.295 185.279H38.3906V210.021H285.295V185.279Z" fill="#FFC727"/>
<path d="M285.295 185.279H38.3906V210.021H285.295V185.279Z" fill="#033E9F"/>
<path d="M209.959 240.306H113.727V248.35H209.959V240.306Z" fill="#FFC727"/>
<path d="M209.959 240.306H113.727V248.35H209.959V240.306Z" fill="#033E9F"/>
<path d="M198.53 240.306H125.155L127.049 226.38L127.116 225.704L127.319 224.42L127.387 223.744L127.59 222.459V222.257L127.657 221.783L127.86 220.499L127.928 219.823L129.213 210.089H194.472L195.69 219.282L195.757 219.688L195.96 221.243L196.028 221.648L196.096 222.257L196.231 223.203V223.609L196.434 225.163L196.501 225.569L198.53 240.306Z" fill="#0064B5"/>
<path d="M165.867 196.028C165.867 198.259 164.041 200.084 161.81 200.084C159.578 200.084 157.752 198.259 157.752 196.028C157.752 193.797 159.578 191.972 161.81 191.972C164.041 191.904 165.867 193.729 165.867 196.028Z" fill="white"/>
<g opacity="0.16">
<path d="M196.096 222.257L127.929 219.823L129.214 210.089H194.473L196.096 222.257Z" fill="black"/>
</g>
<path d="M274.261 53.1219H50.1465V173.652H274.261V53.1219Z" fill="white"/>
<path d="M63.7878 114.74H113.745C115.289 114.74 116.692 113.478 116.692 111.794V63.8006C116.692 62.2569 115.429 60.8536 113.745 60.8536H63.7878C62.2441 60.8536 60.8408 62.1166 60.8408 63.8006V111.513C60.8408 113.337 62.2441 114.74 63.7878 114.74Z" stroke="#003EB0" stroke-width="0.526579" stroke-miterlimit="10" stroke-dasharray="2.11 2.11"/>
<path d="M252.433 74.5704H131.989C129.597 74.5704 127.547 72.9123 127.547 70.6513C127.547 68.5411 129.426 66.7323 131.989 66.7323H252.433C254.825 66.7323 256.875 68.3904 256.875 70.6513C256.875 72.7616 255.167 74.5704 252.433 74.5704Z" fill="#EE384E"/>
<path d="M210.727 82.4085H130.206C128.876 82.4085 127.547 81.5687 127.547 80.449C127.547 79.4692 128.686 78.4894 130.206 78.4894H211.107C212.436 78.4894 213.766 79.3292 213.766 80.449C213.576 81.5687 212.246 82.4085 210.727 82.4085Z" fill="#DBE9F8"/>
<path d="M134.356 100.768C137.156 100.768 139.425 98.4988 139.425 95.6992C139.425 92.8996 137.156 90.63 134.356 90.63C131.557 90.63 129.287 92.8996 129.287 95.6992C129.287 98.4988 131.557 100.768 134.356 100.768Z" fill="#395196"/>
<path d="M147.971 100.768C150.77 100.768 153.04 98.4988 153.04 95.6992C153.04 92.8996 150.77 90.63 147.971 90.63C145.171 90.63 142.901 92.8996 142.901 95.6992C142.901 98.4988 145.171 100.768 147.971 100.768Z" fill="#3D83D9"/>
<path d="M161.006 100.768C163.805 100.768 166.075 98.4988 166.075 95.6992C166.075 92.8996 163.805 90.63 161.006 90.63C158.206 90.63 155.937 92.8996 155.937 95.6992C155.937 98.4988 158.206 100.768 161.006 100.768Z" fill="#00A9FF"/>
<path d="M174.91 100.768C177.71 100.768 179.979 98.4988 179.979 95.6992C179.979 92.8996 177.71 90.63 174.91 90.63C172.11 90.63 169.841 92.8996 169.841 95.6992C169.841 98.4988 172.11 100.768 174.91 100.768Z" fill="#DD4B39"/>
<path d="M252.956 117.988C252.956 117.264 252.376 116.539 251.507 116.539H71.3341C70.6099 116.539 69.8857 117.119 69.8857 117.988V146.23C69.8857 146.375 69.8857 146.375 69.8857 146.52C69.8857 146.665 69.8857 146.665 69.8857 146.81V168.969C69.8857 169.694 70.4651 170.418 71.3341 170.418H251.363C252.087 170.418 252.811 169.838 252.811 168.969V146.81C252.811 146.665 252.811 146.665 252.811 146.52C252.811 146.375 252.811 146.375 252.811 146.23V117.988H252.956Z" fill="white"/>
<path d="M122.317 136.099H73.0734C71.1905 136.099 69.7422 134.651 69.7422 132.768C69.7422 130.885 71.1905 129.437 73.0734 129.437H122.317C124.2 129.437 125.648 130.885 125.648 132.768C125.793 134.506 124.055 136.099 122.317 136.099Z" fill="#EE384E"/>
<path d="M216.459 141.748H70.9009C70.3215 141.748 69.7422 141.168 69.7422 140.589C69.7422 140.01 70.3215 139.43 70.9009 139.43H216.459C217.038 139.43 217.618 140.01 217.618 140.589C217.473 141.168 217.183 141.748 216.459 141.748Z" fill="#DBE9F8"/>
<path d="M159.249 147.541H71.0454C70.466 147.541 69.8867 146.962 69.8867 146.382C69.8867 145.803 70.466 145.224 71.0454 145.224H159.249C159.829 145.224 160.408 145.803 160.408 146.382C160.698 146.962 159.973 147.541 159.249 147.541Z" fill="#DBE9F8"/>
<path d="M74.9559 161.88C77.7555 161.88 80.0251 159.61 80.0251 156.81C80.0251 154.011 77.7555 151.741 74.9559 151.741C72.1563 151.741 69.8867 154.011 69.8867 156.81C69.8867 159.61 72.1563 161.88 74.9559 161.88Z" fill="#395196"/>
<path d="M88.7147 161.88C91.5143 161.88 93.7839 159.61 93.7839 156.81C93.7839 154.011 91.5143 151.741 88.7147 151.741C85.9151 151.741 83.6455 154.011 83.6455 156.81C83.6455 159.61 85.9151 161.88 88.7147 161.88Z" fill="#3D83D9"/>
<path d="M101.895 161.88C104.695 161.88 106.965 159.61 106.965 156.81C106.965 154.011 104.695 151.741 101.895 151.741C99.0957 151.741 96.8262 154.011 96.8262 156.81C96.8262 159.61 99.0957 161.88 101.895 161.88Z" fill="#00A9FF"/>
<path d="M115.653 161.88C118.453 161.88 120.722 159.61 120.722 156.81C120.722 154.011 118.453 151.741 115.653 151.741C112.854 151.741 110.584 154.011 110.584 156.81C110.584 159.61 112.854 161.88 115.653 161.88Z" fill="#DD4B39"/>
<path d="M245.016 178.771C245.016 178.771 247.136 178.209 246.854 174.979C246.571 171.75 244.451 169.082 247.56 167.257C250.528 165.432 251.376 164.87 252.931 163.606C254.344 162.202 255.192 161.079 259.715 161.5C259.715 161.5 263.389 158.552 266.781 161.219C270.032 163.887 269.184 170.908 269.749 172.031C270.456 173.014 274.979 177.507 275.403 181.158C275.827 184.808 273.283 187.195 269.749 187.055C266.216 186.914 261.128 187.055 261.128 187.055H247.843C247.843 187.055 243.179 187.336 242.896 182.842C242.896 180.175 245.016 178.771 245.016 178.771Z" fill="#180857"/>
<path d="M256.182 184.106C256.182 184.106 256.182 186.914 255.051 187.897C253.921 189.021 252.225 190.986 252.225 190.986C252.225 190.986 255.051 195.339 260.563 194.637C266.075 194.075 266.923 190.003 266.923 190.003C266.923 190.003 261.694 189.442 261.128 184.387C260.563 179.473 259.715 179.473 259.715 179.473L256.182 184.106Z" fill="#FFB07E"/>
<path d="M259.009 185.51C262.365 185.51 265.086 180.984 265.086 175.401C265.086 169.818 262.365 165.291 259.009 165.291C255.652 165.291 252.932 169.818 252.932 175.401C252.932 180.984 255.652 185.51 259.009 185.51Z" fill="#FFBE9B"/>
<path d="M259.008 164.589C259.008 164.589 258.019 167.819 255.616 170.908C253.214 174.137 250.528 175.963 250.246 176.524C249.963 177.086 247.843 175.541 248.55 173.014C249.256 170.487 253.638 163.466 257.877 163.326C262.117 163.185 263.389 160.658 265.509 165.853C267.629 171.048 267.347 176.805 267.347 176.805L259.008 164.589Z" fill="#180857"/>
<path d="M253.072 174.277C253.072 174.277 250.669 173.996 250.386 175.26C250.104 176.664 251.093 177.928 253.072 178.209C255.192 178.63 253.072 174.277 253.072 174.277Z" fill="#FFBE9B"/>
<path d="M275.827 241.253C275.827 241.253 279.361 241.393 282.046 241.393C284.731 241.393 288.83 241.815 288.83 241.815C288.83 241.815 289.819 241.815 289.96 243.219C290.102 244.623 290.102 245.185 290.102 245.185C290.102 245.185 290.243 246.869 288.971 246.869C287.699 246.869 279.784 247.712 277.806 247.712C275.827 247.712 274.697 247.993 274.697 246.869C274.555 245.606 274.555 240.972 275.827 241.253Z" fill="black"/>
<path d="M278.936 202.781C278.936 202.781 281.338 215.698 281.48 219.068C281.621 222.438 281.904 225.106 279.643 226.65C277.381 228.195 273.707 229.318 273.707 229.318L268.901 206.15V203.342L278.936 202.781Z" fill="#FFBF99"/>
<path d="M238.798 202.219C238.798 202.219 237.667 208.116 237.102 211.065C236.819 214.014 235.971 219.911 235.971 221.034C235.83 222.438 235.688 224.544 238.232 226.37C240.776 228.195 243.462 229.178 243.462 229.178L248.55 202.079L238.798 202.219Z" fill="#FFBF99"/>
<path d="M253.215 188.599C253.215 188.599 249.54 188.178 247.42 188.74C245.3 189.161 244.735 188.88 245.3 190.565C245.724 192.25 248.551 199.27 247.42 203.483C246.289 208.116 244.452 230.582 244.452 230.582C244.452 230.582 258.303 231.003 263.532 231.284C268.761 231.565 272.718 230.582 272.718 230.582C272.718 230.582 273.849 220.894 272.718 216.541C271.588 212.188 269.892 205.168 269.892 205.168C269.892 205.168 269.044 195.339 270.174 192.812C271.588 190.284 272.577 190.284 270.74 189.723C268.902 189.161 267.206 188.599 265.652 188.599C264.097 188.599 263.532 188.599 262.684 189.301C261.977 190.003 260.14 191.829 257.879 191.408C255.476 191.127 253.921 189.442 253.921 189.442C253.921 189.442 253.921 188.74 253.215 188.599Z" fill="#DE051F"/>
<path d="M246.855 189.442C246.855 189.442 245.724 188.88 243.745 190.284C241.625 192.109 240.212 195.9 239.364 198.287C238.657 200.674 238.233 203.061 238.233 203.061C238.233 203.061 240.919 204.465 243.604 204.465C246.431 204.606 248.268 204.746 248.268 204.746C248.268 204.746 249.399 197.585 249.116 194.637C248.833 191.267 248.268 190.284 246.855 189.442Z" fill="#EE384E"/>
<path d="M269.467 191.969C269.467 191.969 270.456 189.021 273 190.284C275.544 191.688 277.381 196.743 277.947 198.569C278.371 200.253 279.077 203.623 279.077 203.623C279.077 203.623 276.109 204.747 273.707 205.027C271.163 205.168 269.467 205.308 269.467 205.308C269.467 205.308 268.619 198.99 268.76 196.322C269.043 193.654 269.467 191.969 269.467 191.969Z" fill="#EE384E"/>
<path d="M249.822 232.407H268.337L258.585 235.356L249.822 232.407Z" fill="#004B89"/>
<path d="M233.004 227.212C233.004 227.212 266.782 237.602 274.414 240.27C274.414 240.27 276.958 240.832 276.958 242.236C276.958 243.359 276.817 245.325 276.534 246.167C276.251 247.01 275.545 247.852 273.99 247.571C272.577 247.29 242.191 241.253 230.036 238.304L226.644 237.321C226.644 237.321 224.1 236.198 224.524 232.969C224.948 229.88 227.351 227.212 228.905 227.071C230.743 226.65 233.004 227.212 233.004 227.212Z" fill="#0064E1"/>
<path d="M230.036 242.236C230.036 242.236 234.417 241.534 236.82 241.534C239.364 241.393 242.756 241.253 243.18 241.534C243.604 241.815 244.028 246.869 244.028 246.869C244.028 246.869 244.452 248.274 241.06 247.852C237.668 247.572 230.036 247.431 230.036 247.431C230.036 247.431 228.199 247.291 228.058 245.746C228.058 244.061 228.199 243.359 228.199 243.359C228.199 243.359 229.188 242.376 230.036 242.236Z" fill="black"/>
<path d="M250.105 237.743C250.105 237.743 270.881 231.565 277.947 229.318C285.296 227.072 289.254 225.106 291.798 228.616C294.2 231.986 294.059 235.917 291.374 237.041C288.547 238.024 267.206 243.078 258.302 245.044C249.398 247.01 243.604 247.993 242.756 247.712C242.049 247.431 240.919 244.763 241.06 243.078C241.201 241.393 241.343 240.972 243.18 240.27C245.017 239.709 250.105 237.743 250.105 237.743Z" fill="#0054A3"/>
<path d="M247.843 207.976H272.718C272.718 207.976 274.131 207.835 274.131 209.661C274.131 211.486 274.131 231.003 274.131 231.003C274.131 231.003 274.272 232.407 273.283 232.407C272.294 232.407 244.028 232.407 244.028 232.407C244.028 232.407 242.897 232.688 242.897 230.722C242.897 228.756 242.897 209.099 242.897 209.099C242.897 209.099 242.756 208.116 244.31 208.116C245.724 207.976 247.843 207.976 247.843 207.976Z" fill="#0064B7"/>
<path d="M258.285 218.6L256.872 220.354L258.637 221.758L260.051 220.004L258.285 218.6Z" fill="#569ED4"/>
</svg>
