<svg width="340" height="270" viewBox="0 0 340 270" fill="none" xmlns="http://www.w3.org/2000/svg">
<path d="M94.5408 109.649C121.542 109.649 143.43 87.7899 143.43 60.8248C143.43 33.8596 121.542 12 94.5408 12C67.5399 12 45.6514 33.8596 45.6514 60.8248C45.6514 87.7899 67.5399 109.649 94.5408 109.649Z" stroke="#DC051F" stroke-miterlimit="10" stroke-dasharray="6 6"/>
<path d="M56.1488 37.5159C59.1235 37.5159 61.5349 35.1076 61.5349 32.1369C61.5349 29.1661 59.1235 26.7579 56.1488 26.7579C53.1741 26.7579 50.7627 29.1661 50.7627 32.1369C50.7627 35.1076 53.1741 37.5159 56.1488 37.5159Z" fill="#003EAE"/>
<path d="M57.1161 29.6542L53.5254 31.5851L56.8399 33.516L57.1161 29.6542Z" fill="white"/>
<path d="M288.937 126.753C291.009 126.753 293.08 126.753 295.152 126.753C295.152 126.753 295.29 126.753 295.428 126.89C296.947 127.166 297.638 127.994 297.914 129.511C298.052 130.89 298.328 132.407 298.466 133.787C298.605 134.476 299.709 134.89 300.4 134.476C301.505 133.649 302.748 132.545 303.991 131.718C305.372 130.752 306.891 130.752 308.134 131.856C309.377 133.097 310.758 134.476 312.001 135.855C313.106 136.959 313.106 138.614 312.139 139.993C311.448 140.959 310.62 142.2 309.791 143.165C309.239 143.717 309.101 144.269 309.653 145.096C309.791 145.234 309.929 145.51 310.205 145.51C311.587 145.648 313.244 145.924 314.625 146.062C315.73 146.2 316.696 146.751 316.973 147.855C317.111 148.131 317.111 148.406 317.249 148.82C317.249 150.889 317.249 152.958 317.249 155.165C317.249 155.303 317.111 155.44 317.111 155.578C316.696 156.82 316.006 157.647 314.625 157.785C313.244 157.923 311.725 158.199 310.344 158.337C309.653 158.337 309.101 159.578 309.653 160.268C310.482 161.371 311.586 162.75 312.415 163.854C313.382 165.095 313.244 166.75 312.277 167.991C311.034 169.371 309.653 170.75 308.272 171.991C307.167 173.095 305.51 173.095 304.129 172.129C302.886 171.302 301.643 170.198 300.4 169.371C299.986 168.957 298.605 169.371 298.466 170.06C298.328 171.577 298.052 173.095 297.776 174.612C297.638 175.715 296.947 176.681 295.704 176.956C295.566 176.956 295.29 177.094 295.014 177.232C292.804 177.232 290.733 177.232 288.661 177.232C288.661 177.232 288.523 177.232 288.523 177.094C287.142 176.819 286.313 175.991 286.037 174.474C285.899 173.095 285.623 171.577 285.485 170.336C285.346 169.647 284.242 169.095 283.413 169.647C282.308 170.474 281.065 171.578 279.822 172.267C278.441 173.233 276.922 173.233 275.679 172.129C274.436 170.888 273.055 169.509 271.812 168.129C270.707 167.026 270.707 165.371 271.674 163.992C272.364 163.026 273.193 161.785 274.022 160.819C274.574 160.268 274.574 159.578 274.16 158.889C274.022 158.751 273.884 158.475 273.746 158.475C272.364 158.337 270.845 158.061 269.602 157.923C267.669 157.785 266.702 156.682 266.702 154.751C266.702 152.82 266.702 151.027 266.702 149.096C266.702 147.303 267.669 146.2 269.326 146.062C270.707 145.924 272.226 145.648 273.607 145.51C274.298 145.51 274.712 144.269 274.298 143.579C273.469 142.476 272.364 141.096 271.536 139.993C270.569 138.752 270.569 137.097 271.674 135.855C272.917 134.614 274.298 133.235 275.679 131.856C276.784 130.752 278.441 130.752 279.822 131.718C281.065 132.545 282.308 133.649 283.551 134.476C283.965 134.89 285.346 134.476 285.485 133.787C285.623 132.407 285.899 130.752 286.175 129.373C286.313 128.132 287.004 127.304 288.247 127.028C288.247 126.89 288.523 126.89 288.937 126.753ZM309.653 138.2C308.41 136.959 307.167 135.58 305.786 134.338C303.991 135.58 302.333 136.959 300.538 138.2C300.262 138.338 299.986 138.338 299.709 138.2C298.605 137.648 297.362 137.235 296.257 136.683C295.842 136.545 295.566 136.269 295.566 135.855C295.29 133.787 295.014 131.718 294.738 129.649C294.738 129.373 294.6 129.235 294.323 129.235C292.942 129.235 291.423 129.235 290.042 129.235C289.628 129.235 289.628 129.373 289.49 129.649C289.213 131.718 288.937 133.787 288.661 135.855C288.661 136.269 288.523 136.407 287.97 136.545C286.866 136.959 285.623 137.373 284.518 137.924C284.103 138.062 283.827 138.062 283.551 137.924C281.756 136.683 280.098 135.304 278.441 134.2C277.198 135.442 275.817 136.821 274.574 138.062C274.574 138.2 274.712 138.338 274.85 138.476C275.955 139.993 277.198 141.51 278.303 143.027C278.441 143.165 278.441 143.441 278.441 143.717C277.889 144.958 277.336 146.338 276.646 147.579C276.646 147.717 276.37 147.993 276.231 147.993C275.127 148.131 273.884 148.269 272.779 148.406C271.674 148.544 270.431 148.682 269.326 148.82C269.326 150.751 269.326 152.406 269.326 154.199C269.464 154.199 269.74 154.337 270.017 154.337C272.088 154.613 274.022 154.889 276.093 155.165C276.508 155.165 276.646 155.303 276.784 155.716C277.198 156.82 277.612 158.061 278.165 159.164C278.303 159.578 278.303 159.854 278.165 160.268C276.922 162.061 275.541 163.716 274.436 165.371C275.679 166.612 276.922 167.854 278.303 169.233C278.441 169.233 278.579 169.095 278.855 168.819C280.375 167.716 282.032 166.474 283.413 165.371C283.551 165.233 283.827 165.233 284.103 165.233C285.346 165.647 286.589 166.336 287.97 166.75C288.385 166.888 288.523 167.026 288.523 167.44C288.799 169.509 289.075 171.578 289.351 173.646C289.351 174.06 289.49 174.198 289.904 174.198C291.285 174.198 292.804 174.198 294.047 174.198C294.461 174.198 294.6 174.06 294.6 173.646C294.876 171.578 295.152 169.509 295.428 167.302C295.428 167.026 295.566 166.75 295.842 166.612C297.085 166.198 298.466 165.509 299.709 165.095C299.848 165.095 300.124 165.095 300.4 165.095C301.919 166.198 303.576 167.44 305.096 168.543C305.234 168.681 305.51 168.819 305.51 168.819C306.753 167.578 308.134 166.198 309.377 164.957C309.377 164.819 309.239 164.681 309.101 164.543C307.996 163.026 306.753 161.509 305.648 159.992C305.51 159.854 305.51 159.578 305.51 159.44C306.062 158.199 306.615 156.682 307.305 155.44C307.305 155.303 307.581 155.165 307.72 155.165C308.548 155.027 309.515 154.889 310.344 154.889C311.725 154.751 313.244 154.475 314.625 154.337C314.625 152.406 314.625 150.751 314.625 148.958C312.277 148.682 310.205 148.268 307.858 147.993C307.581 147.993 307.443 147.855 307.305 147.579C306.891 146.338 306.338 145.096 305.786 143.993C305.648 143.579 305.648 143.441 305.786 143.027C307.029 141.51 308.272 139.855 309.653 138.2Z" stroke="#DE051F" stroke-miterlimit="10"/>
<path d="M309.653 138.2C308.41 139.993 307.167 141.648 305.786 143.303C305.51 143.579 305.51 143.855 305.786 144.269C306.338 145.372 306.753 146.751 307.305 147.855C307.443 148.131 307.581 148.269 307.858 148.269C310.205 148.544 312.277 148.82 314.625 149.234C314.625 151.027 314.625 152.682 314.625 154.613C313.244 154.751 311.725 155.027 310.344 155.165C309.515 155.303 308.548 155.303 307.72 155.441C307.581 155.441 307.305 155.578 307.305 155.716C306.753 156.958 306.2 158.337 305.51 159.716C305.51 159.854 305.51 160.13 305.648 160.268C306.753 161.785 307.996 163.44 309.101 164.819C309.239 164.957 309.377 165.095 309.377 165.233C308.134 166.474 306.891 167.716 305.51 169.095C305.51 169.095 305.234 168.957 305.096 168.819C303.576 167.716 301.919 166.474 300.4 165.371C300.262 165.233 299.986 165.233 299.709 165.371C298.466 165.785 297.085 166.474 295.842 166.888C295.566 167.026 295.428 167.164 295.428 167.578C295.152 169.647 294.876 171.715 294.6 173.922C294.6 174.336 294.461 174.474 294.047 174.474C292.666 174.474 291.147 174.474 289.904 174.474C289.49 174.474 289.351 174.336 289.351 173.922C289.075 171.853 288.799 169.785 288.523 167.716C288.523 167.302 288.385 167.164 287.97 167.026C286.727 166.612 285.485 165.923 284.103 165.509C283.965 165.509 283.689 165.509 283.413 165.647C281.894 166.75 280.237 167.992 278.855 169.095C278.717 169.233 278.441 169.371 278.303 169.509C277.06 168.267 275.817 167.026 274.436 165.647C275.679 163.854 276.922 162.337 278.165 160.544C278.441 160.13 278.441 159.854 278.165 159.44C277.613 158.337 277.198 157.096 276.784 155.992C276.646 155.578 276.508 155.441 276.093 155.441C274.022 155.165 272.088 154.889 270.017 154.613C269.879 154.613 269.602 154.613 269.326 154.475C269.326 152.682 269.326 151.027 269.326 149.096C270.431 148.958 271.674 148.82 272.779 148.682C273.884 148.544 275.127 148.406 276.231 148.269C276.37 148.269 276.646 148.131 276.646 147.855C277.198 146.613 277.751 145.234 278.441 143.993C278.441 143.855 278.441 143.579 278.303 143.303C277.198 141.786 275.955 140.131 274.85 138.752C274.712 138.614 274.574 138.476 274.574 138.338C275.817 137.097 277.06 135.718 278.441 134.476C279.96 135.58 281.756 136.959 283.551 138.2C283.827 138.476 284.103 138.476 284.518 138.2C285.623 137.648 286.866 137.235 287.97 136.821C288.385 136.683 288.523 136.545 288.661 136.131C288.937 134.062 289.213 131.994 289.49 129.925C289.49 129.511 289.628 129.511 290.042 129.511C291.423 129.511 292.942 129.511 294.323 129.511C294.6 129.511 294.738 129.511 294.738 129.925C295.014 131.994 295.29 134.062 295.566 136.131C295.566 136.545 295.842 136.821 296.257 136.959C297.362 137.373 298.605 137.924 299.709 138.476C299.986 138.614 300.262 138.614 300.538 138.476C302.333 137.235 303.991 135.855 305.786 134.614C307.029 135.58 308.272 136.821 309.653 138.2ZM280.927 151.717C280.927 157.785 285.761 162.75 291.837 162.75C298.052 162.75 302.886 157.923 302.886 151.855C302.886 145.648 298.052 140.821 291.975 140.821C285.899 140.821 280.927 145.648 280.927 151.717Z" stroke="#DE051F" stroke-miterlimit="10"/>
<path d="M305.786 35.4467C307.857 35.4467 309.929 35.4467 312.001 35.4467C312.001 35.4467 312.139 35.4467 312.277 35.5846C313.796 35.8605 314.486 36.688 314.763 38.2052C314.901 39.5844 315.177 41.1016 315.315 42.4808C315.453 43.1704 316.558 43.5842 317.249 43.1704C318.353 42.3429 319.596 41.2395 320.839 40.4119C322.22 39.4465 323.74 39.4465 324.982 40.5499C326.225 41.7912 327.607 43.1704 328.849 44.5496C329.954 45.653 329.954 47.3081 328.988 48.6873C328.297 49.6528 327.468 50.8941 326.64 51.8596C326.087 52.4112 325.949 52.9629 326.502 53.7905C326.64 53.9284 326.778 54.2043 327.054 54.2043C328.435 54.3422 330.092 54.618 331.473 54.7559C332.578 54.8939 333.545 55.4456 333.821 56.5489C333.959 56.8248 333.959 57.1006 334.097 57.5144C334.097 59.5833 334.097 61.6521 334.097 63.8589C334.097 63.9968 333.959 64.1347 333.959 64.2726C333.545 65.5139 332.855 66.3415 331.473 66.4794C330.092 66.6173 328.573 66.8932 327.192 67.0311C326.502 67.0311 325.949 68.2724 326.502 68.962C327.33 70.0654 328.435 71.4446 329.264 72.548C330.231 73.7893 330.092 75.4444 329.126 76.6857C327.883 78.0649 326.502 79.4442 325.121 80.6855C324.016 81.7889 322.358 81.7889 320.977 80.8234C319.734 79.9959 318.492 78.8925 317.249 78.0649C316.834 77.6512 315.453 78.0649 315.315 78.7545C315.177 80.2717 314.901 81.7889 314.625 83.306C314.486 84.4094 313.796 85.3749 312.553 85.6507C312.415 85.6507 312.139 85.7886 311.862 85.9265C309.653 85.9265 307.581 85.9265 305.51 85.9265C305.51 85.9265 305.371 85.9265 305.371 85.7886C303.99 85.5128 303.162 84.6852 302.886 83.1681C302.747 81.7889 302.471 80.2717 302.333 79.0304C302.195 78.3408 301.09 77.7891 300.262 78.3408C299.157 79.1683 297.914 80.2717 296.671 80.9613C295.29 81.9268 293.771 81.9268 292.528 80.8234C291.285 79.72 290.042 78.3408 288.661 76.9616C287.556 75.8582 287.556 74.2031 288.523 72.8239C289.213 71.8584 290.042 70.6171 290.87 69.6516C291.423 69.0999 291.423 68.4103 291.008 67.7207C290.87 67.5828 290.732 67.3069 290.594 67.3069C289.213 67.169 287.694 66.8932 286.451 66.7552C284.518 66.6173 283.551 65.5139 283.551 63.583C283.551 61.6521 283.551 59.8591 283.551 57.9282C283.551 56.1352 284.518 55.0318 286.175 54.8939C287.556 54.7559 289.075 54.4801 290.456 54.3422C291.147 54.3422 291.561 53.1009 291.147 52.4113C290.318 51.3079 289.213 49.9286 288.384 48.8252C287.418 47.5839 287.418 45.9289 288.523 44.6876C289.766 43.4463 291.147 42.067 292.528 40.6878C293.632 39.5844 295.29 39.5844 296.671 40.5499C297.914 41.3774 299.157 42.4808 300.4 43.3083C300.814 43.7221 302.195 43.3083 302.333 42.6187C302.471 41.2395 302.747 39.5844 303.024 38.2052C303.162 36.9639 303.852 36.1363 305.095 35.8605C305.371 35.5846 305.648 35.5846 305.786 35.4467ZM326.64 47.0323C325.397 45.7909 324.154 44.4117 322.773 43.1704C320.977 44.4117 319.32 45.7909 317.525 47.0323C317.249 47.1702 316.972 47.1702 316.696 47.0323C315.591 46.4806 314.348 46.0668 313.244 45.5151C312.829 45.3772 312.553 45.1013 312.553 44.6876C312.277 42.6187 312.001 40.5499 311.724 38.481C311.724 38.2052 311.586 38.0673 311.31 38.0673C309.929 38.0673 308.41 38.0673 307.029 38.0673C306.614 38.0673 306.614 38.2052 306.476 38.481C306.2 40.5499 305.924 42.6187 305.648 44.6876C305.648 45.1013 305.51 45.2393 304.957 45.3772C303.852 45.7909 302.609 46.2047 301.505 46.7564C301.09 46.8943 300.814 46.8943 300.538 46.7564C298.742 45.5151 297.085 44.1359 295.428 43.0325C294.185 44.2738 292.804 45.653 291.561 46.8943C291.561 47.0323 291.699 47.1702 291.837 47.3081C292.942 48.8253 294.185 50.3424 295.29 51.8596C295.428 51.9975 295.428 52.2733 295.428 52.5492C294.875 53.7905 294.323 55.1697 293.633 56.411C293.633 56.5489 293.356 56.8248 293.218 56.8248C292.113 56.9627 290.87 57.1006 289.766 57.2386C288.661 57.3765 287.418 57.5144 286.313 57.6523C286.313 59.5832 286.313 61.2383 286.313 63.0313C286.451 63.0313 286.727 63.1692 287.003 63.1692C289.075 63.4451 291.008 63.7209 293.08 63.9968C293.494 63.9968 293.632 64.1347 293.771 64.5485C294.185 65.6519 294.599 66.8932 295.152 67.9966C295.29 68.4103 295.29 68.6862 295.152 69.0999C293.909 70.8929 292.528 72.548 291.423 74.2031C292.666 75.4444 293.909 76.6857 295.29 78.0649C295.428 78.0649 295.566 77.927 295.842 77.6512C297.361 76.5478 299.019 75.3065 300.4 74.2031C300.538 74.0652 300.814 74.0652 301.09 74.0652C302.333 74.4789 303.576 75.1686 304.957 75.5823C305.371 75.7202 305.51 75.8582 305.51 76.2719C305.786 78.3408 306.062 80.4096 306.338 82.4785C306.338 82.8922 306.476 83.0302 306.891 83.0302C308.272 83.0302 309.791 83.0302 311.034 83.0302C311.448 83.0302 311.586 82.8922 311.586 82.4785C311.862 80.4096 312.139 78.3408 312.415 76.134C312.415 75.8582 312.553 75.5823 312.829 75.4444C314.072 75.0306 315.453 74.341 316.696 73.9272C316.834 73.9272 317.11 73.9272 317.387 73.9272C318.906 75.0306 320.563 76.2719 322.082 77.3753C322.22 77.5132 322.497 77.6512 322.497 77.6512C323.74 76.4099 325.121 75.0306 326.364 73.7893C326.364 73.6514 326.225 73.5135 326.087 73.3756C324.983 71.8584 323.74 70.3412 322.635 68.8241C322.497 68.6862 322.497 68.4103 322.497 68.2724C323.049 67.0311 323.601 65.5139 324.292 64.2726C324.292 64.1347 324.568 63.9968 324.706 63.9968C325.535 63.8589 326.502 63.7209 327.33 63.7209C328.711 63.583 330.231 63.3072 331.612 63.1692C331.612 61.2383 331.612 59.5832 331.612 57.7902C329.264 57.5144 327.192 57.1006 324.844 56.8248C324.568 56.8248 324.43 56.6869 324.292 56.411C323.878 55.1697 323.325 53.9284 322.773 52.825C322.635 52.4113 322.635 52.2733 322.773 51.8596C324.154 50.3424 325.397 48.5494 326.64 47.0323Z" stroke="#0064E1" stroke-miterlimit="10"/>
<path d="M326.64 47.0323C325.397 48.8253 324.154 50.4804 322.773 52.1354C322.497 52.4113 322.497 52.6871 322.773 53.1009C323.326 54.2043 323.74 55.5835 324.293 56.6869C324.431 56.9627 324.569 57.1007 324.845 57.1007C327.193 57.3765 329.264 57.6524 331.612 58.0661C331.612 59.8591 331.612 61.5142 331.612 63.4451C330.231 63.5831 328.712 63.8589 327.331 63.9968C326.502 64.1347 325.536 64.1347 324.707 64.2727C324.569 64.2727 324.293 64.4106 324.293 64.5485C323.74 65.7898 323.188 67.1691 322.497 68.5483C322.497 68.6862 322.497 68.9621 322.635 69.1C323.74 70.6171 324.983 72.2722 326.088 73.6514C326.226 73.7894 326.364 73.9273 326.364 74.0652C325.121 75.3065 323.878 76.5478 322.497 77.927C322.497 77.927 322.221 77.7891 322.083 77.6512C320.564 76.5478 318.906 75.3065 317.387 74.2031C317.249 74.0652 316.973 74.0652 316.697 74.2031C315.454 74.6169 314.073 75.3065 312.83 75.7203C312.554 75.8582 312.415 75.9961 312.415 76.4099C312.139 78.4787 311.863 80.5476 311.587 82.7543C311.587 83.1681 311.449 83.306 311.034 83.306C309.653 83.306 308.134 83.306 306.891 83.306C306.477 83.306 306.339 83.1681 306.339 82.7543C306.063 80.6855 305.786 78.6167 305.51 76.5478C305.51 76.134 305.372 75.9961 304.958 75.8582C303.715 75.4444 302.472 74.7548 301.091 74.341C300.953 74.341 300.676 74.3411 300.4 74.479C298.881 75.5824 297.224 76.8237 295.843 77.927C295.705 78.065 295.428 78.2029 295.29 78.3408C294.047 77.0995 292.804 75.8582 291.423 74.479C292.666 72.686 293.909 71.1688 295.152 69.3758C295.428 68.9621 295.428 68.6862 295.152 68.2724C294.6 67.1691 294.185 65.9277 293.771 64.8244C293.633 64.4106 293.495 64.2727 293.081 64.2727C291.009 63.9968 289.076 63.721 287.004 63.4451C286.866 63.4451 286.59 63.4451 286.313 63.3072C286.313 61.5142 286.313 59.8591 286.313 57.9282C287.418 57.7903 288.661 57.6524 289.766 57.5144C290.871 57.3765 292.114 57.2386 293.219 57.1007C293.357 57.1007 293.633 56.9627 293.633 56.6869C294.186 55.4456 294.738 54.0664 295.428 52.8251C295.428 52.6871 295.428 52.4113 295.29 52.1354C294.186 50.6183 292.943 48.9632 291.838 47.584C291.7 47.4461 291.561 47.3081 291.561 47.1702C292.804 45.9289 294.047 44.5497 295.428 43.3084C296.948 44.4118 298.743 45.791 300.538 47.0323C300.815 47.3081 301.091 47.3081 301.505 47.0323C302.61 46.4806 303.853 46.0668 304.958 45.6531C305.372 45.5151 305.51 45.3772 305.648 44.9634C305.924 42.8946 306.201 40.8258 306.477 38.7569C306.477 38.3431 306.615 38.3431 307.029 38.3431C308.41 38.3431 309.93 38.3431 311.311 38.3431C311.587 38.3431 311.725 38.3431 311.725 38.7569C312.001 40.8258 312.277 42.8946 312.554 44.9634C312.554 45.3772 312.83 45.6531 313.244 45.791C314.349 46.2048 315.592 46.7564 316.697 47.3081C316.973 47.4461 317.249 47.4461 317.525 47.3081C319.321 46.0668 320.978 44.6876 322.773 43.4463C324.154 44.4118 325.397 45.5151 326.64 47.0323ZM297.914 60.5487C297.914 66.6174 302.748 71.5826 308.825 71.5826C315.039 71.5826 319.873 66.7553 319.873 60.6867C319.873 54.4801 315.039 49.6528 308.963 49.6528C303.024 49.5149 297.914 54.4801 297.914 60.5487Z" stroke="#0064E1" stroke-miterlimit="10"/>
<path d="M299.685 34.7304H64.7002V194.478H299.685V34.7304Z" fill="#0064B5"/>
<path d="M299.685 170.866H64.7002V194.413H299.685V170.866Z" fill="#FFC727"/>
<path d="M299.685 170.866H64.7002V194.413H299.685V170.866Z" fill="#033E9F"/>
<path d="M227.986 223.236H136.399V230.892H227.986V223.236Z" fill="#FFC727"/>
<path d="M227.986 223.236H136.399V230.892H227.986V223.236Z" fill="#033E9F"/>
<path d="M217.11 223.236H147.277L149.079 209.983L149.144 209.339L149.337 208.117L149.401 207.474L149.594 206.251V206.058L149.659 205.608L149.852 204.385L149.916 203.742L151.139 194.478H213.248L214.407 203.227L214.471 203.613L214.664 205.093L214.729 205.479L214.793 206.058L214.922 206.959V207.345L215.115 208.825L215.179 209.211L217.11 223.236Z" fill="#0064B5"/>
<path d="M186.023 181.096C186.023 183.219 184.285 184.956 182.162 184.956C180.038 184.956 178.3 183.219 178.3 181.096C178.3 178.972 180.038 177.235 182.162 177.235C184.285 177.171 186.023 178.908 186.023 181.096Z" fill="white"/>
<g opacity="0.16">
<path d="M214.793 206.058L149.916 203.742L151.139 194.478H213.248L214.793 206.058Z" fill="black"/>
</g>
<path d="M289.184 45.0881H75.8887V159.8H289.184V45.0881Z" fill="white"/>
<path d="M7.54265 181.369C7.54265 181.369 10.4429 180.266 10.3048 176.818C10.1667 173.37 8.23318 171.025 12.1001 172.129C15.6909 173.094 16.7957 173.508 19.5578 172.956C22.1819 172.404 24.2534 171.163 23.2867 174.749C22.1819 178.197 20.9389 180.956 23.5629 181.507C26.325 182.059 29.2252 179.99 29.5015 185.369C29.7777 190.748 25.4964 196.541 18.7292 196.817C11.962 197.093 8.64749 194.196 8.64749 194.196C8.64749 194.196 6.71401 191.576 9.61423 190.886C12.5145 190.196 15.5528 188.955 13.8955 187.714C12.5145 186.473 7.68075 186.335 7.68075 186.335C7.68075 186.335 1.74221 184.817 7.54265 181.369Z" fill="#649CE8"/>
<path d="M39.4453 182.197C39.0309 178.749 39.3071 176.266 45.66 175.439C52.0129 174.611 55.6036 178.335 56.0179 182.197C56.4323 186.059 50.908 187.576 50.908 187.576C50.908 187.576 47.0411 188.679 48.8364 191.99C50.908 195.438 51.7367 198.61 47.3173 199.162C42.8979 199.575 37.9261 198.472 35.164 196.679C32.4019 194.748 29.6397 190.334 32.8162 187.852C32.8162 187.852 33.6448 187.3 36.6831 187.162C39.7215 186.886 39.4453 182.197 39.4453 182.197Z" fill="#033E9F"/>
<path d="M17.2109 181.645C17.2109 181.645 22.459 193.507 23.1495 201.506" stroke="#82D8FD" stroke-miterlimit="10" stroke-linecap="round" stroke-linejoin="round"/>
<path d="M46.351 183.576C46.351 183.576 37.098 197.23 35.0264 201.92" stroke="#579DD3" stroke-miterlimit="10" stroke-linecap="round" stroke-linejoin="round"/>
<path d="M19.9719 200.54H41.1021C41.1021 200.54 43.4499 200.678 43.3118 203.851C43.1737 206.747 39.4448 206.195 37.5113 206.195C35.4398 206.195 19.5576 206.195 19.5576 206.195C19.5576 206.195 16.9336 206.609 16.9336 203.713C16.9336 200.816 17.7622 200.54 19.9719 200.54Z" fill="#0054A3"/>
<path d="M19.5586 206.195L22.735 224.815H36.9599L39.4458 210.885L19.5586 206.195Z" fill="#0054A3"/>
<path d="M19.5586 206.195L39.4458 210.885L40.1363 206.195H19.5586Z" fill="#016AD3"/>
<path d="M28.6738 201.23C28.6738 201.23 29.6406 180.542 35.9934 167.439Z" fill="#FABC42"/>
<path d="M40.966 159.992C40.966 159.992 41.3803 166.336 35.1655 168.957C35.3036 168.819 33.9226 163.44 40.966 159.992Z" fill="#FABC42"/>
<path d="M31.7119 180.266C31.7119 180.266 34.0597 174.749 41.1031 175.577C40.965 175.439 40.4126 180.956 31.7119 180.266Z" fill="#FABC42"/>
<path d="M29.3643 193.92C29.3643 193.92 30.4691 188.128 37.7887 187.438C37.5125 187.438 38.0649 192.955 29.3643 193.92Z" fill="#FABC42"/>
<path d="M29.0885 193.92C29.0885 193.92 29.9171 187.99 23.4261 185.093C23.4261 185.093 21.0783 190.059 29.0885 193.92Z" fill="#FABC42"/>
<path d="M31.8512 180.128C31.8512 180.128 33.3704 174.335 27.4318 170.611C27.2937 170.749 24.2554 175.301 31.8512 180.128Z" fill="#FABC42"/>
<path d="M92.1922 104.547H141.358C142.877 104.547 144.258 103.305 144.258 101.65V54.4807C144.258 52.9636 143.015 51.5844 141.358 51.5844H92.1922C90.6731 51.5844 89.292 52.8257 89.292 54.4807V101.375C89.292 103.168 90.6731 104.547 92.1922 104.547Z" stroke="#003EB0" stroke-width="0.5" stroke-miterlimit="10" stroke-dasharray="2 2"/>
<path d="M150.473 104.547H262.2C263.029 104.547 263.581 103.995 263.581 103.167V53.1014C263.581 52.2739 263.029 51.7222 262.2 51.7222H150.473C149.644 51.7222 149.092 52.2739 149.092 53.1014V102.892C149.092 103.719 149.782 104.547 150.473 104.547Z" fill="white"/>
<path d="M263.264 67.5831H165.899C163.966 67.5831 162.309 66.066 162.309 63.9971C162.309 62.0662 163.828 60.4111 165.899 60.4111H263.264C265.197 60.4111 266.855 61.9283 266.855 63.9971C266.855 65.9281 265.335 67.5831 263.264 67.5831Z" fill="#033E9F"/>
<path d="M222.936 75.4447H164.379C163.412 75.4447 162.445 74.6172 162.445 73.5138C162.445 72.5483 163.274 71.5829 164.379 71.5829H223.212C224.179 71.5829 225.145 72.4104 225.145 73.5138C225.145 74.6172 224.179 75.4447 222.936 75.4447Z" fill="#DBE9F8"/>
<path d="M263.857 110.339C263.857 109.65 263.305 108.96 262.476 108.96H90.8107C90.1202 108.96 89.4297 109.512 89.4297 110.339V137.234C89.4297 137.372 89.4297 137.372 89.4297 137.51C89.4297 137.648 89.4297 137.648 89.4297 137.786V158.888C89.4297 159.578 89.9821 160.268 90.8107 160.268H262.476C263.167 160.268 263.857 159.716 263.857 158.888V137.786C263.857 137.648 263.857 137.648 263.857 137.51C263.857 137.372 263.857 137.372 263.857 137.234V110.339Z" fill="white"/>
<path d="M149.369 125.097H102.413C100.617 125.097 99.2363 123.718 99.2363 121.925C99.2363 120.132 100.617 118.753 102.413 118.753H149.369C151.164 118.753 152.545 120.132 152.545 121.925C152.683 123.58 151.026 125.097 149.369 125.097Z" fill="#EE384E"/>
<path d="M239.137 130.476H100.341C99.7887 130.476 99.2363 129.925 99.2363 129.373C99.2363 128.821 99.7887 128.27 100.341 128.27H239.137C239.69 128.27 240.242 128.821 240.242 129.373C240.104 129.925 239.69 130.476 239.137 130.476Z" fill="#DBE9F8"/>
<path d="M248.349 83.1684H164.243C163.69 83.1684 163.138 82.6167 163.138 82.065C163.138 81.5134 163.69 80.9617 164.243 80.9617H248.349C248.901 80.9617 249.454 81.5134 249.454 82.065C249.592 82.6167 249.039 83.1684 248.349 83.1684Z" fill="#DBE9F8"/>
<path d="M100.002 111.491H146.406C147.787 111.491 149.168 110.25 149.168 108.595V62.1148C149.168 60.5976 147.925 59.2184 146.406 59.2184H100.002C98.6213 59.2184 97.2402 60.4597 97.2402 62.1148V108.457C97.2402 110.112 98.4832 111.491 100.002 111.491Z" fill="white" stroke="#0055DB" stroke-width="0.4721" stroke-miterlimit="10"/>
<path opacity="0.5" d="M157.869 257C172.972 257 185.214 255.086 185.214 252.724C185.214 250.363 172.972 248.449 157.869 248.449C142.767 248.449 130.524 250.363 130.524 252.724C130.524 255.086 142.767 257 157.869 257Z" fill="#E7E6EC"/>
<path d="M143.367 242.794L172.783 242.242L173.888 252.724H177.065L166.293 152.73C166.293 152.04 165.464 151.213 164.497 150.661C163.668 150.385 162.978 150.661 163.116 151.351L163.807 158.385C163.807 158.799 163.53 159.212 163.254 159.212L135.219 159.764C134.943 159.764 134.666 159.488 134.528 159.075L133.838 151.765C133.838 151.075 133.009 150.247 132.042 149.696C131.214 149.42 130.523 149.696 130.661 150.385L140.191 239.76C140.052 240.035 140.191 240.311 140.329 240.725L141.572 252.724H144.472L143.367 242.794ZM134.804 162.936L164.221 162.385L165.602 175.349L136.185 175.901L134.804 162.936ZM136.6 178.935L166.016 178.384L167.397 191.349L137.981 191.9L136.6 178.935ZM138.119 194.797L167.535 194.245L168.917 207.21L139.5 207.761L138.119 194.797ZM139.914 210.796L169.331 210.244L170.712 223.209L141.295 223.76L139.914 210.796ZM141.572 226.795L170.988 226.243L172.369 239.208L142.953 239.76L141.572 226.795Z" fill="#E7E6EC"/>
<path d="M152.207 102.25C152.207 102.25 151.516 103.216 151.378 104.733C151.378 104.733 150.549 104.871 150.411 105.698C150.411 106.664 151.516 106.94 151.654 108.181C151.654 109.284 152.207 110.526 152.897 111.077C153.449 111.629 154.002 111.353 154.002 111.767C154.002 112.181 154.14 112.595 154.14 112.595L158.421 112.732L158.283 109.836L155.935 102.664L152.207 102.25Z" fill="#FFB48F"/>
<path d="M154.14 149.006L137.429 148.179L143.782 173.557H141.296L129.971 145.558C129.971 145.558 127.209 141.145 133.286 140.455C139.362 139.903 149.996 139.352 149.996 139.352L154.692 139.076L154.14 149.006Z" fill="#DE051F"/>
<path d="M154.14 100.182L152.897 97.4232C152.897 97.4232 152.482 96.5957 151.654 97.0095C150.825 97.4232 151.378 100.044 151.378 100.044L154.14 100.182Z" fill="#FFB48F"/>
<path d="M152.898 95.2164C152.898 95.0784 152.76 94.8026 152.622 94.6647L150.826 92.32C150.688 92.0441 150.136 91.4924 149.859 91.4924C149.445 91.4924 149.169 91.4924 149.031 92.4579C148.755 94.3888 149.583 96.4577 149.998 97.0094C150.412 97.561 151.379 98.2507 151.379 98.2507L153.45 98.9403L152.898 95.2164Z" fill="#FFB48F"/>
<path d="M161.046 140.317C161.046 140.317 162.565 161.695 162.841 164.178C162.979 166.66 164.775 170.936 165.051 176.177C165.327 181.28 165.189 188.314 165.189 188.314H162.289C162.289 188.314 160.908 181.142 159.388 173.97C157.869 166.798 153.312 149.006 153.312 149.006L151.24 137.697L160.77 138.248L161.046 140.317Z" fill="#EE384E"/>
<path d="M157.869 108.871L163.117 115.215C163.117 115.215 164.222 117.284 163.532 119.905C162.979 122.663 161.46 124.594 161.184 129.145C160.908 133.697 161.046 139.49 161.046 139.49H145.992C145.992 139.49 145.992 122.801 146.821 118.801C146.821 118.801 147.511 113.56 150.688 113.008C153.726 112.457 158.284 112.181 158.284 112.181L157.869 108.871Z" fill="#0083F9"/>
<path d="M153.174 99.4917C153.174 99.4917 153.174 99.7675 153.726 99.7675C154.14 99.7675 157.455 99.7675 158.974 101.009C160.355 102.388 160.769 105.284 159.803 107.491C158.974 109.698 156.764 110.526 155.107 109.836C155.107 109.836 152.897 109.008 152.069 106.526C151.24 104.043 151.931 102.802 151.931 102.802C151.931 102.802 152.069 102.526 151.654 102.388C151.24 102.388 150.411 101.423 150.826 100.043C150.964 98.8021 152.897 98.5262 153.174 99.4917Z" fill="#170856"/>
<path d="M144.335 174.798C144.335 174.798 144.335 175.625 143.506 175.625C142.54 175.625 136.877 175.763 136.877 175.763C136.877 175.763 135.773 175.625 137.154 175.074C138.535 174.522 141.297 173.556 141.297 173.556H143.921L144.335 174.798Z" fill="#0083F9"/>
<path d="M165.327 189.004C165.327 189.004 166.155 191.21 165.188 191.348C164.222 191.486 161.736 191.486 161.736 191.486C161.736 191.486 160.631 191.21 161.46 190.245C162.288 189.28 162.426 188.314 162.426 188.314H165.327V189.004Z" fill="#0083F9"/>
<path d="M134.391 91.0787C133.7 88.4581 132.457 86.2514 130.248 84.7342C129.833 84.4584 129.419 84.1825 129.005 83.9067C128.314 85.2859 127.485 86.3893 126.519 87.3548C124.861 88.734 122.928 89.2857 120.856 88.4581C119.337 87.9064 118.232 86.941 117.404 85.5618C117.128 85.0101 116.713 84.4584 116.437 83.9067C115.332 84.4584 113.813 85.6997 112.984 86.941C111.051 89.8374 110.36 93.0096 110.637 96.4577C110.637 97.1473 111.051 97.4231 111.603 97.5611C112.018 97.699 112.432 97.699 112.846 97.699C119.475 97.699 126.104 97.699 132.733 97.699C133.01 97.699 133.424 97.699 133.7 97.699C134.667 97.699 135.081 97.1473 135.081 96.1818C135.081 94.3888 134.805 92.7338 134.391 91.0787Z" fill="#C6D7F0"/>
<path d="M120.028 86.2511C121.409 87.4924 123.066 87.6303 124.585 86.8027C125.414 86.389 126.104 85.6994 126.657 84.8718C127.9 83.2168 128.59 81.4238 128.729 79.3549C129.005 77.1481 128.452 75.0793 127.071 73.4242C124.723 70.5278 120.856 70.5278 118.509 73.2863C117.266 74.8034 116.575 76.5964 116.575 78.5274C116.575 79.6308 116.713 80.7341 117.128 81.8375C117.68 83.4926 118.647 85.0098 120.028 86.2511Z" fill="#C6D7F0"/>
<path d="M129.832 112.457L127.07 109.698C127.07 109.698 126.241 109.147 126.518 109.974C126.656 110.664 127.07 111.215 126.518 110.94C125.965 110.664 123.894 108.871 123.203 109.009C122.513 109.147 122.236 110.25 123.479 111.491C124.722 112.595 127.484 113.974 129.142 113.974C130.661 113.836 129.832 112.457 129.832 112.457Z" fill="#FFB48F"/>
<path d="M151.102 113.422C149.307 113.422 146.269 113.56 144.059 113.698C141.159 113.836 139.502 113.974 137.844 113.56C136.739 113.146 131.63 112.456 129.42 112.043C128.729 111.905 128.315 111.905 128.315 111.905C128.315 111.905 127.21 111.629 127.072 112.318C126.934 113.008 127.486 114.111 129.144 114.525C130.525 114.939 136.187 117.422 136.187 117.422C136.187 117.422 137.706 118.111 140.606 118.525C143.507 118.801 152.484 119.49 153.312 118.387C153.865 117.56 154.279 116.042 154.003 114.939C153.45 113.698 151.655 113.422 151.102 113.422Z" fill="#0064B7"/>
</svg>
