<svg width="340" height="270" viewBox="0 0 340 270" fill="none" xmlns="http://www.w3.org/2000/svg">
<path d="M117.576 41.604C116.671 43.152 115.508 44.442 114.216 45.603L115.379 50.247L108.401 53.988L105.3 50.247C103.62 50.634 101.811 50.892 100.131 50.634L97.6763 54.891L90.0525 52.44L90.4402 47.667C88.8896 46.764 87.5974 45.603 86.4345 44.313L81.6534 45.603L77.9062 38.508L81.6534 35.412C81.2658 33.735 81.0074 31.929 81.2658 30.252L77.1309 27.672L79.4568 20.19L84.2378 20.577C85.1423 19.029 86.3052 17.739 87.5974 16.578L86.3052 11.805L93.283 8.19298L96.3842 11.934C98.064 11.547 99.873 11.289 101.553 11.547L104.137 7.28998L111.632 9.61198L111.244 14.385C112.795 15.288 114.087 16.449 115.25 17.739L120.031 16.449L123.778 23.415L120.031 26.511C120.418 28.188 120.677 29.994 120.418 31.671L124.683 34.122L122.357 41.991L117.576 41.604ZM109.047 34.122C110.598 29.607 107.884 24.963 103.62 23.415C99.0977 21.867 94.4459 24.576 92.8953 28.833C91.3447 33.348 94.0583 37.992 98.3224 39.54C102.716 40.959 107.755 38.379 109.047 34.122Z" stroke="#023EA1" stroke-miterlimit="10"/>
<path d="M62.2715 204.402C62.2715 204.402 62.7883 207.627 64.339 211.884L70.0245 214.722L65.3727 215.367C70.5414 228.009 82.6877 246.069 111.245 242.328C111.632 242.586 125.329 206.853 62.2715 204.402Z" fill="#FABD41"/>
<path d="M69.7661 223.881L93.1543 226.461L62.2715 204.402" stroke="white" stroke-width="0.5" stroke-miterlimit="10" stroke-linecap="round" stroke-linejoin="round"/>
<path d="M82.1709 206.466L93.1543 226.461" stroke="white" stroke-width="0.5" stroke-miterlimit="10" stroke-linecap="round" stroke-linejoin="round"/>
<path d="M80.3621 183.246C80.3621 183.246 88.1151 177.957 89.5365 182.601C91.2163 187.245 93.2838 186.987 95.4805 186.729C97.8064 186.213 101.424 184.149 102.717 189.309C104.138 194.469 102.717 197.307 105.043 198.855C107.368 200.532 114.217 209.562 109.694 211.239C105.043 212.916 99.6154 208.917 97.8064 206.853C95.9974 204.531 91.8624 204.531 88.8904 205.176C85.66 205.821 81.6543 204.531 82.9465 200.532C84.3679 196.533 82.3004 192.792 79.4576 192.147C76.4856 190.986 75.0642 186.729 80.3621 183.246Z" fill="#1C4599"/>
<path d="M84.4971 187.632L111.116 214.206" stroke="white" stroke-width="0.5" stroke-miterlimit="10" stroke-linecap="round" stroke-linejoin="round"/>
<path d="M97.4186 189.954L95.3511 198.468L86.1768 200.016" stroke="white" stroke-width="0.5" stroke-miterlimit="10" stroke-linecap="round" stroke-linejoin="round"/>
<path d="M73.5131 195.372C73.5131 195.372 73.5131 200.274 76.7435 198.339C79.9739 196.404 82.1706 196.275 83.592 200.016C85.0134 203.757 87.3393 205.176 89.536 204.402C91.8619 203.757 95.48 201.822 97.0306 206.982C98.7104 212.142 102.458 221.43 97.289 223.881C91.9911 226.461 83.7212 222.978 82.2998 219.237C80.8785 215.496 82.2998 212.4 78.1649 210.981C74.03 209.82 73.2547 213.948 69.7658 211.239C66.0185 208.401 62.0128 205.95 64.5971 200.016C67.8276 194.211 72.867 192.534 73.5131 195.372Z" stroke="#ED3B4E" stroke-width="0.5" stroke-miterlimit="10"/>
<path d="M72.6084 200.532C72.6084 200.532 95.7382 218.334 102.845 221.559" stroke="#ED3B4E" stroke-width="0.5" stroke-miterlimit="10"/>
<path d="M91.0866 207.111L91.8619 214.722L85.918 217.173" stroke="#ED3B4E" stroke-width="0.5" stroke-miterlimit="10"/>
<path d="M79.5857 200.016L79.3272 205.563L74.417 208.272" stroke="#ED3B4E" stroke-width="0.5" stroke-miterlimit="10"/>
<path d="M110.469 20.061C108.66 20.061 106.98 21.48 106.98 23.544V258.84C106.98 260.646 108.66 262.323 110.469 262.323H236.973C238.782 262.323 240.461 260.904 240.461 258.84V23.544C240.461 21.738 238.782 20.061 236.973 20.061H110.469Z" fill="#1466B1"/>
<path d="M238.007 35.412H109.307V247.359H238.007V35.412Z" fill="white" stroke="#1466B1" stroke-width="2" stroke-miterlimit="10"/>
<path d="M192.006 28.059C192.006 28.962 191.101 29.865 190.197 29.865C189.292 29.865 188.388 28.962 188.388 28.059C188.388 27.156 189.292 26.253 190.197 26.253C191.101 26.253 192.006 26.898 192.006 28.059Z" fill="#012257"/>
<path d="M187.871 28.059C187.871 28.962 187.224 29.736 186.191 29.736H156.859C155.954 29.736 155.179 29.091 155.179 28.059C155.179 27.156 155.825 26.382 156.859 26.382H186.191C186.966 26.511 187.871 27.156 187.871 28.059Z" fill="#012257"/>
<path d="M202.731 70.5L201.309 68.823L205.444 66.63L186.32 60.309L192.652 78.885L194.978 75.66C194.978 75.66 207.382 97.59 194.978 110.748C182.702 123.777 168.101 121.068 168.101 121.068L170.943 130.098C170.943 130.098 193.815 131.775 206.09 111.135C218.366 90.495 202.731 70.5 202.731 70.5Z" fill="#0064E1"/>
<path d="M145.1 116.295L146.521 117.972L142.386 120.165L161.51 126.486L155.179 107.91L152.853 111.135C152.853 111.135 140.448 89.2049 152.853 76.047C165.128 63.018 179.73 65.727 179.73 65.727L176.887 56.697C176.887 56.697 154.016 55.02 141.74 75.66C129.464 96.2999 145.1 116.295 145.1 116.295Z" fill="#0064E1"/>
<path fill-rule="evenodd" clip-rule="evenodd" d="M184.898 82.4969C185.803 83.3999 186.578 84.5609 187.224 85.8509H190.971L192.393 91.6559L189.033 93.3329C189.033 94.6229 188.775 95.9129 188.387 97.3319L191.101 100.041L187.741 105.33L184.252 104.04C183.348 104.943 182.185 105.717 180.893 106.362V110.103L175.078 111.522L173.398 108.168C172.106 108.168 170.814 107.91 169.392 107.523L166.808 110.103L161.51 106.749L162.802 103.266C161.898 102.363 161.122 101.202 160.476 99.9119H156.729L155.308 94.1069L158.796 92.4299C158.796 91.1399 159.055 89.8499 159.443 88.4309L156.858 85.8509L160.218 80.5619L163.707 81.8519C164.611 80.9489 165.774 80.1749 167.066 79.5299V75.7889L172.881 74.3699L174.561 77.8529C175.853 77.8529 177.145 78.1109 178.567 78.4979L181.151 75.9179L186.449 79.2719L184.898 82.4969ZM177.404 87.2699C174.432 85.3349 170.426 86.3669 168.488 89.3339C166.549 92.3009 167.583 96.2999 170.555 98.2349C173.527 100.17 177.533 99.1379 179.471 96.1709C181.409 93.4619 180.634 89.3339 177.404 87.2699Z" fill="#023EA1"/>
<path fill-rule="evenodd" clip-rule="evenodd" d="M177.403 87.2699C174.431 85.3349 170.426 86.3669 168.487 89.3339C166.549 92.3009 167.583 96.2999 170.555 98.2349C173.527 100.17 177.533 99.1379 179.471 96.1709C181.409 93.4619 180.634 89.3339 177.403 87.2699Z" fill="white"/>
<path d="M153.886 153.834V149.835H154.532V153.705C154.532 155.382 155.307 156.027 156.599 156.027C158.021 156.027 158.667 155.253 158.667 153.705V149.835H159.313V153.834C159.313 155.769 158.15 156.801 156.47 156.801C154.79 156.801 153.886 155.769 153.886 153.834Z" fill="#1A2E35"/>
<path d="M167.065 152.028C167.065 153.576 165.903 154.35 164.223 154.35H162.414V156.543H161.768V149.835H164.352C166.032 149.964 167.065 150.738 167.065 152.028ZM166.29 152.028C166.29 150.867 165.644 150.351 164.223 150.351H162.414V153.834H164.223C165.644 153.963 166.29 153.189 166.29 152.028Z" fill="#1A2E35"/>
<path d="M168.616 149.964H171.33C173.526 149.964 175.077 151.383 175.077 153.447C175.077 155.511 173.526 156.93 171.33 156.93H168.616V149.964ZM171.33 156.156C173.139 156.156 174.302 154.866 174.302 153.318C174.302 151.641 173.01 150.48 171.33 150.48H169.262V156.027L171.33 156.156Z" fill="#1A2E35"/>
<path d="M180.892 154.866H177.015L176.24 156.672H175.465L178.695 149.964H179.341L182.572 156.672H181.796L180.892 154.866ZM180.634 154.35L178.954 150.609L177.274 154.35H180.634Z" fill="#1A2E35"/>
<path d="M184.64 150.609H182.185V149.964H187.612V150.609H185.157V156.801H184.51L184.64 150.609Z" fill="#1A2E35"/>
<path d="M193.814 156.156V156.801H189.033V150.093H193.685V150.738H189.679V153.189H193.297V153.705H189.679V156.156H193.814Z" fill="#1A2E35"/>
<path d="M196.14 220.398H152.336C146.779 220.398 142.257 215.883 142.257 210.336C142.257 204.789 146.779 200.274 152.336 200.274H196.14C201.697 200.274 206.219 204.789 206.219 210.336C206.219 216.012 201.697 220.398 196.14 220.398Z" fill="#EE384E"/>
<path d="M166.033 212.013L166.421 211.239C166.808 211.497 167.325 211.626 167.971 211.626C168.618 211.626 168.747 211.368 168.747 211.239C168.747 210.465 166.033 210.981 166.033 209.175C166.033 208.401 166.679 207.627 167.971 207.627C168.488 207.627 169.264 207.756 169.651 208.014L169.264 208.788C168.876 208.53 168.488 208.401 167.971 208.401C167.325 208.401 167.196 208.659 167.196 208.917C167.196 209.691 169.91 209.175 169.91 210.852C169.91 211.626 169.264 212.271 167.971 212.271C167.067 212.529 166.421 212.271 166.033 212.013Z" fill="white"/>
<path d="M172.882 212.271C172.623 212.4 172.365 212.529 172.106 212.529C171.331 212.529 170.685 212.142 170.685 211.239V209.691H170.168V208.917H170.685V208.143H171.848V208.917H172.623V209.691H171.848V211.239C171.848 211.497 171.977 211.626 172.235 211.626C172.365 211.626 172.494 211.626 172.623 211.497L172.882 212.271Z" fill="white"/>
<path d="M176.5 210.336V212.4H175.595V212.013C175.466 212.4 175.078 212.4 174.432 212.4C173.657 212.4 173.011 212.013 173.011 211.239C173.011 210.594 173.398 210.078 174.561 210.078H175.337C175.337 209.691 175.078 209.433 174.561 209.433C174.174 209.433 173.786 209.562 173.657 209.82L173.269 209.175C173.657 208.917 174.174 208.788 174.82 208.788C175.983 208.788 176.5 209.433 176.5 210.336ZM175.466 211.368V210.981H174.82C174.432 210.981 174.174 211.11 174.174 211.368C174.174 211.626 174.432 211.755 174.691 211.755C175.078 211.884 175.337 211.626 175.466 211.368Z" fill="white"/>
<path d="M179.601 208.788V209.691C179.601 209.691 179.472 209.691 179.343 209.691C178.826 209.691 178.438 209.949 178.438 210.594V212.271H177.275V208.788H178.18V209.175C178.697 209.046 179.084 208.788 179.601 208.788Z" fill="white"/>
<path d="M182.702 212.271C182.443 212.4 182.185 212.529 181.927 212.529C181.151 212.529 180.505 212.142 180.505 211.239V209.691H179.988V208.917H180.505V208.143H181.668V208.917H182.443V209.691H181.668V211.239C181.668 211.497 181.797 211.626 182.056 211.626C182.185 211.626 182.314 211.626 182.443 211.497L182.702 212.271Z" fill="white"/>
<path d="M215.781 172.668C215.781 172.668 197.045 172.797 173.786 172.797C150.526 172.797 131.79 172.797 131.79 172.668C131.79 172.668 150.526 172.539 173.786 172.539C197.045 172.539 215.781 172.539 215.781 172.668Z" fill="#1A2E35"/>
<path d="M199.112 177.828C199.112 177.828 187.87 177.957 173.915 177.957C159.96 177.957 148.718 177.957 148.718 177.828C148.718 177.828 159.96 177.699 173.915 177.699C187.612 177.699 199.112 177.828 199.112 177.828Z" fill="#1A2E35"/>
<path d="M109.565 88.044C108.79 89.205 108.014 90.237 106.981 91.14L107.885 94.752L102.458 97.59L100.003 94.752C98.8401 95.01 97.4187 95.139 95.9973 95.139L94.0591 98.364L88.2443 96.558L88.632 92.817C87.469 92.043 86.4353 91.269 85.5308 90.237L82.0419 91.14L79.1991 85.98L82.0419 83.658C81.7835 82.497 81.6542 81.078 81.6542 79.659L78.4238 77.724L80.2329 71.919L83.9801 72.306C84.7554 71.145 85.5308 70.113 86.5645 69.21L85.66 65.598L90.9579 62.76L93.2838 65.598C94.4467 65.34 95.8681 65.211 97.2895 65.211L99.2277 61.986L105.042 63.792L104.655 67.533C105.818 68.307 106.852 69.081 107.756 70.113L111.374 69.21L114.217 74.499L111.374 76.692C111.633 77.853 111.762 79.272 111.762 80.691L114.992 82.626L113.183 88.431L109.565 88.044ZM102.846 82.239C104.009 78.756 101.941 75.273 98.4524 74.112C94.9636 72.951 91.4747 75.015 90.3118 78.498C89.1488 81.981 91.2163 85.464 94.7051 86.625C98.194 87.528 101.812 85.722 102.846 82.239Z" stroke="#DE051F" stroke-miterlimit="10"/>
<path d="M72.2209 62.502C71.704 63.276 71.1871 63.921 70.541 64.566L71.1871 66.888L67.4398 68.952L65.76 67.017C64.8555 67.275 63.951 67.275 63.0465 67.275L61.7543 69.468L57.7486 68.307L58.007 65.856C57.2317 65.34 56.5856 64.824 55.9395 64.179L53.4844 64.824L51.5462 61.212L53.4844 59.535C53.226 58.632 53.226 57.6 53.226 56.697L51.0293 55.407L52.1923 51.408L54.6474 51.666C55.1642 50.892 55.6811 50.247 56.3272 49.602L55.6811 47.28L59.2992 45.345L60.979 47.28C61.8835 47.022 62.788 47.022 63.6925 47.022L64.9847 44.829L68.9904 45.99L68.732 48.57C69.5073 49.086 70.1534 49.602 70.7995 50.247L73.1254 49.602L75.0636 53.214L73.3838 54.891C73.7715 55.794 73.7715 56.697 73.7715 57.6L75.9681 58.89L74.8052 62.76L72.2209 62.502ZM67.9567 58.632C68.732 56.31 67.3106 53.859 65.1139 53.214C62.788 52.44 60.3329 53.73 59.6868 56.052C58.9115 58.374 60.3329 60.825 62.5296 61.47C64.7263 62.115 67.1814 60.825 67.9567 58.632Z" fill="#DE051F"/>
<path d="M259.585 103.653C259.585 106.104 257.646 108.039 255.191 108.039C252.736 108.039 250.798 106.104 250.798 103.653C250.798 101.202 252.736 99.267 255.191 99.267C257.517 99.138 259.585 101.202 259.585 103.653Z" fill="#023EA1"/>
<path d="M242.27 108.297C244.839 108.297 246.922 106.218 246.922 103.653C246.922 101.088 244.839 99.009 242.27 99.009C239.701 99.009 237.618 101.088 237.618 103.653C237.618 106.218 239.701 108.297 242.27 108.297Z" fill="#023EA1"/>
<path d="M232.191 100.299C234.974 100.299 237.23 98.0465 237.23 95.268C237.23 92.4894 234.974 90.237 232.191 90.237C229.408 90.237 227.151 92.4894 227.151 95.268C227.151 98.0465 229.408 100.299 232.191 100.299Z" fill="#023EA1"/>
<path d="M230.253 87.915C233.107 87.915 235.421 85.6048 235.421 82.755C235.421 79.9052 233.107 77.595 230.253 77.595C227.398 77.595 225.084 79.9052 225.084 82.755C225.084 85.6048 227.398 87.915 230.253 87.915Z" fill="#023EA1"/>
<path d="M236.455 76.821C239.381 76.821 241.753 74.453 241.753 71.532C241.753 68.6109 239.381 66.243 236.455 66.243C233.529 66.243 231.157 68.6109 231.157 71.532C231.157 74.453 233.529 76.821 236.455 76.821Z" fill="#023EA1"/>
<path d="M248.602 72.951C251.742 72.951 254.287 70.4098 254.287 67.275C254.287 64.1402 251.742 61.599 248.602 61.599C245.462 61.599 242.916 64.1402 242.916 67.275C242.916 70.4098 245.462 72.951 248.602 72.951Z" fill="#023EA1"/>
<path d="M264.882 99.396C267.237 99.396 269.146 97.4901 269.146 95.139C269.146 92.7879 267.237 90.882 264.882 90.882C262.527 90.882 260.618 92.7879 260.618 95.139C260.618 97.4901 262.527 99.396 264.882 99.396Z" fill="#023EA1"/>
<path d="M266.95 86.496C269.162 86.496 270.956 84.7056 270.956 82.497C270.956 80.2884 269.162 78.498 266.95 78.498C264.738 78.498 262.944 80.2884 262.944 82.497C262.944 84.7056 264.738 86.496 266.95 86.496Z" fill="#023EA1"/>
<path d="M260.49 75.015C262.417 75.015 263.979 73.4556 263.979 71.532C263.979 69.6084 262.417 68.049 260.49 68.049C258.563 68.049 257.001 69.6084 257.001 71.532C257.001 73.4556 258.563 75.015 260.49 75.015Z" fill="#023EA1"/>
<path d="M329.104 262.194C329.104 262.194 257.776 262.839 169.521 262.839C81.2661 262.839 9.93848 262.839 9.93848 262.194C9.93848 262.194 81.2661 261.549 169.521 261.549C257.776 261.549 329.104 261.549 329.104 262.194Z" fill="#1A1A1A"/>
<path d="M227.798 196.146C227.798 196.146 232.321 194.34 231.933 189.309C231.545 184.149 228.961 180.537 234.388 182.085C239.686 183.633 241.624 184.278 245.63 183.375C249.636 182.601 252.866 180.924 251.057 186.084C249.248 191.244 247.439 195.501 251.574 196.275C255.709 197.049 259.973 193.953 260.49 201.951C261.007 209.949 254.546 218.979 244.079 219.237C233.613 219.624 228.961 215.238 228.961 215.238C228.961 215.238 226.118 211.239 230.511 210.207C234.905 209.175 239.298 207.369 237.102 205.305C234.905 203.241 227.54 203.112 227.54 203.112C227.54 203.112 218.624 201.306 227.798 196.146Z" fill="#649EEA"/>
<path d="M275.608 197.436C274.833 192.276 275.479 188.664 284.912 187.245C294.344 185.826 300.03 191.631 300.676 197.436C301.322 203.241 293.052 205.434 293.052 205.434C293.052 205.434 287.237 207.111 290.08 212.142C293.052 217.302 294.474 222.204 287.625 222.978C280.906 223.752 273.411 221.946 269.406 219.108C265.271 216.27 261.136 209.433 265.787 205.821C265.787 205.821 267.08 204.918 271.602 204.66C276.125 204.531 275.608 197.436 275.608 197.436Z" fill="#023EA1"/>
<path d="M242.141 196.533C242.141 196.533 250.023 214.335 251.057 226.461" stroke="#023EA1" stroke-miterlimit="10"/>
<path d="M286.075 199.371C286.075 199.371 271.99 220.14 268.889 226.977" stroke="#649EEA" stroke-miterlimit="10"/>
<path d="M246.275 225.171H278.321C278.321 225.171 281.939 225.429 281.552 230.331C281.293 234.846 275.737 233.814 272.765 233.814C269.793 233.814 245.629 233.814 245.629 233.814C245.629 233.814 241.624 234.459 241.624 229.944C241.494 225.558 243.045 225.171 246.275 225.171Z" fill="#0054A5"/>
<path d="M245.501 233.556L250.411 261.936H271.99L275.608 240.651L245.63 233.556H245.501Z" fill="#0054A5"/>
<path d="M245.63 233.556L275.608 240.651L276.771 233.556H245.63Z" fill="#006AD5"/>
<path d="M259.456 226.203C259.456 226.203 261.136 194.727 270.439 175.119" stroke="#FCBE42" stroke-miterlimit="10"/>
<path d="M278.193 163.638C278.193 163.638 278.968 173.313 269.535 177.054C269.535 177.183 267.468 169.056 278.193 163.638Z" fill="#FCBE42"/>
<path d="M263.979 194.469C263.979 194.469 267.467 186.213 278.192 187.374C278.192 187.374 277.288 195.501 263.979 194.469Z" fill="#FCBE42"/>
<path d="M260.49 215.109C260.49 215.109 262.299 206.337 273.024 205.305C273.024 205.434 273.67 213.561 260.49 215.109Z" fill="#FCBE42"/>
<path d="M260.102 215.238C260.102 215.238 261.394 206.466 251.574 201.822C251.703 201.951 248.085 209.304 260.102 215.238Z" fill="#FCBE42"/>
<path d="M264.108 194.211C264.108 194.211 266.433 185.568 257.388 179.763C257.388 180.021 252.866 186.858 264.108 194.211Z" fill="#FCBE42"/>
<path d="M123.649 82.884C122.873 86.883 123.519 91.914 119.901 93.849C119.901 93.849 120.418 97.59 128.688 99.138C137.733 100.686 133.469 97.203 133.469 97.203C128.688 95.526 129.722 91.527 131.143 88.947L123.649 82.884Z" fill="#FFBE9B"/>
<path d="M126.104 76.434C123.907 80.949 122.486 83.658 124.037 87.012C126.363 92.043 134.245 92.817 137.992 88.818C141.481 85.206 144.194 78.369 139.801 74.499C135.666 70.629 128.301 71.919 126.104 76.434Z" fill="#FFBE9B"/>
<path d="M135.537 68.049C139.543 69.081 142.644 70.758 143.032 72.435C146.65 73.983 147.683 77.208 145.099 78.24C142.773 79.272 139.284 77.853 139.284 77.853C139.284 77.853 140.576 84.948 135.408 81.981C134.503 84.303 132.307 88.56 127.784 88.689C125.329 88.818 121.065 88.044 120.677 86.367C120.419 84.69 121.84 85.077 121.582 83.787C121.323 82.497 119.514 77.724 122.098 74.499C122.098 74.628 125.975 64.695 135.537 68.049Z" fill="#180857"/>
<path d="M133.082 81.594C132.823 82.755 133.34 83.916 133.986 84.69C135.02 85.98 135.408 85.98 135.795 84.69C136.312 83.529 137.475 81.078 136.054 80.304C134.632 79.659 133.082 80.304 133.082 81.594Z" fill="#FFBE9B"/>
<path d="M158.279 105.33C158.279 105.33 161.768 101.589 161.897 101.589C161.897 101.589 165.128 97.848 166.032 97.848C166.937 97.977 166.549 98.751 165.386 100.17C164.352 101.46 164.223 102.234 164.223 102.234L166.162 103.524C166.162 103.524 167.712 103.137 167.583 104.427C167.583 104.814 167.324 105.33 167.066 106.104C166.937 106.491 166.678 107.007 166.162 106.878C166.032 106.749 165.774 106.62 165.774 106.362C165.903 105.588 166.032 105.33 165.903 105.33C165.774 105.33 163.836 109.071 163.836 109.071L158.279 105.33Z" fill="#FFBE9D"/>
<path d="M164.74 102.621C164.999 102.492 165.257 102.363 165.516 102.363C165.774 102.363 166.162 102.234 166.291 102.363C166.42 102.363 166.678 102.492 166.808 102.621C166.937 102.879 166.937 103.137 166.808 103.266C166.678 103.395 166.549 103.653 166.42 103.782" fill="#FFBE9D"/>
<path d="M163.836 101.718C164.094 101.589 164.353 101.46 164.611 101.46C164.87 101.46 165.128 101.331 165.387 101.46C165.516 101.46 165.645 101.589 165.774 101.718C165.903 101.847 165.903 102.105 165.774 102.363C165.645 102.492 165.128 102.879 164.999 103.137" fill="#FFBE9D"/>
<path d="M159.7 103.008L154.402 111.006L158.537 115.779L161.768 109.845C161.768 109.845 163.06 110.232 163.706 109.458C164.352 108.684 165.515 106.104 165.515 106.104L159.7 103.008Z" fill="#FFBE9D"/>
<path d="M162.802 103.266C162.802 103.266 162.931 102.621 163.448 102.234C163.706 101.976 163.965 101.718 164.352 101.718C164.611 101.589 164.74 101.589 164.74 101.718C164.74 101.847 164.223 101.976 163.706 102.492C163.06 102.75 162.802 103.266 162.802 103.266Z" fill="#EB996E"/>
<path d="M167.195 103.782C166.936 103.653 166.678 103.653 166.161 103.782C165.773 103.911 165.515 104.04 165.386 104.169C165.127 104.298 164.998 104.427 164.998 104.427C164.998 104.427 164.998 104.298 165.256 104.169C165.386 104.04 165.644 103.782 166.161 103.653C166.549 103.524 167.066 103.653 167.195 103.782Z" fill="#EB996E"/>
<path d="M166.161 102.363C166.161 102.492 165.515 102.492 164.998 102.75C164.481 103.008 164.094 103.524 164.094 103.524C163.965 103.524 164.223 103.008 164.869 102.621C165.128 102.492 165.515 102.363 165.644 102.363C165.903 102.234 166.161 102.234 166.161 102.363Z" fill="#EB996E"/>
<path d="M166.936 104.169C167.066 104.169 167.066 104.556 166.807 104.814C166.549 105.201 166.161 105.072 166.161 105.072C166.161 104.943 166.42 104.943 166.549 104.685C166.807 104.556 166.807 104.298 166.936 104.169Z" fill="#EB996E"/>
<path d="M158.408 105.201C158.408 105.201 158.537 102.621 159.313 102.234C160.088 101.718 161.897 102.492 161.897 102.492" fill="#FFBE9D"/>
<path d="M108.789 97.2029L98.0639 110.361C96.7717 111.909 95.6088 113.586 94.575 115.263C93.6705 116.94 93.7997 119.262 94.9627 120.81L94.8335 120.423C95.738 121.713 97.1594 122.487 98.8392 122.745H99.0976C101.294 123.003 103.362 121.971 104.266 120.294L107.755 116.553L108.789 97.2029Z" fill="#FCBE42"/>
<path d="M137.217 97.0739C134.891 95.6549 132.436 95.1389 129.722 94.8809C126.621 94.4939 122.228 93.7199 118.868 93.5909C118.868 93.5909 109.177 93.3329 107.884 99.2669L105.946 127.389L102.328 139.128L132.953 142.998L134.374 129.066C135.666 121.713 136.054 111.264 136.054 111.264C136.958 107.394 139.543 105.975 140.318 103.395C140.706 101.202 139.155 98.4929 137.217 97.0739Z" fill="#FCBE42"/>
<path d="M161.251 114.231L154.661 109.458L149.363 116.037C149.363 116.037 144.065 107.523 141.739 102.75C139.671 98.3639 136.441 96.8159 134.761 96.4289C134.374 96.2999 133.727 96.6869 133.857 97.0739L134.632 112.554C134.89 113.328 139.155 120.552 141.61 124.293C145.745 130.356 153.239 127.518 155.565 123.648C157.374 120.423 160.346 115.908 161.251 114.231Z" fill="#FCBE42"/>
<g opacity="0.3">
<path d="M131.014 103.524C131.014 103.524 130.368 109.2 131.66 111.522C132.823 113.973 135.537 119.004 135.537 118.617C135.537 118.359 135.795 114.618 135.795 114.618C135.795 114.618 130.756 106.62 131.014 103.524Z" fill="black"/>
</g>
<path d="M122.357 141.579C122.357 141.579 117.447 177.828 114.475 191.115C111.115 205.563 89.2775 252.261 89.2775 252.261L79.0693 250.068C84.3672 233.943 92.2495 203.886 97.0305 192.276C100.649 174.732 97.1597 152.802 102.458 139.128L122.357 141.579Z" fill="#EE384E"/>
<path opacity="0.2" d="M119.256 155.64C119.514 155.64 120.031 155.64 120.289 155.64C118.739 166.476 116.542 180.924 114.733 189.18C113.441 177.183 112.019 156.801 119.256 155.64Z" fill="black"/>
<path d="M133.081 142.869C133.081 142.869 135.407 181.698 135.666 195.759C135.924 210.336 131.401 253.938 131.401 253.938H121.452C121.452 253.938 117.834 213.561 119.901 193.824C117.575 178.731 112.665 140.418 112.665 140.418L133.081 142.869Z" fill="#EE384E"/>
<path d="M89.1481 251.874L79.7152 249.681C79.1984 249.552 79.0692 249.681 78.9399 250.068L75.8387 256.002C75.5803 256.389 75.7095 257.163 76.4848 257.421H76.614C79.7152 258.195 82.0411 258.453 86.0469 259.227C88.3728 259.614 95.7381 261.549 98.8393 262.194C102.07 262.968 103.362 260.13 101.941 259.485C96.255 256.905 91.9908 254.454 90.4402 252.39C90.0526 252.261 89.6649 252.003 89.1481 251.874Z" fill="#170856"/>
<path d="M131.402 253.938H121.582C121.065 253.938 120.936 254.067 120.936 254.454L119.385 260.775C119.256 261.291 119.514 261.936 120.29 262.065H120.419C123.649 262.065 125.975 261.936 129.981 261.936C132.307 261.936 140.06 262.065 143.29 262.065C146.521 262.065 147.167 259.098 145.616 258.84C139.414 257.55 134.633 256.002 132.565 254.325C132.307 254.196 131.919 253.938 131.402 253.938Z" fill="#170856"/>
</svg>
