<svg width="340" height="270" viewBox="0 0 340 270" fill="none" xmlns="http://www.w3.org/2000/svg">
<path d="M132.908 252.084C131.984 251.292 130.004 248.784 131.588 245.88C132.116 244.824 133.304 244.296 134.492 243.768C135.68 243.372 136.736 242.844 137.792 242.184C139.508 240.732 140.036 238.224 141.224 236.244C142.544 234 145.052 232.284 147.56 232.416C150.464 232.548 153.104 234.924 154.292 237.696C155.48 240.468 155.48 243.636 155.48 246.54C155.48 248.124 155.48 250.104 154.16 251.292C152.972 252.348 151.388 252.348 149.804 252.348C144.26 252.216 138.848 252.084 133.304 251.952" fill="#F5F5F5"/>
<path d="M164.324 207.072H121.16L128.816 253.404C129.08 255.516 130.532 256.968 132.512 257.496H132.644C132.776 257.496 132.908 257.628 133.04 257.628C133.304 257.628 133.568 257.76 133.964 257.76H134.096H153.368C153.632 257.76 154.16 257.76 154.424 257.628C156.668 257.364 158.516 255.384 158.78 253.008L162.476 221.064L162.608 219.744L164.06 207.072H164.324ZM156.14 236.508H151.652L152.048 223.044H157.196L156.14 236.508ZM157.724 223.044H162.08L160.496 236.508H156.668L157.724 223.044ZM145.052 251.424L144.788 239.676H151.124L150.728 251.424H145.052ZM138.188 239.808H144.392L144.656 251.556H139.112L138.188 239.808ZM138.716 251.424H133.568C133.172 248.256 132.38 244.164 131.852 239.676H137.924L138.716 251.424ZM137.924 236.508L136.868 223.044H143.996L144.26 236.508H137.924ZM144.788 236.508L144.524 223.044H151.784L151.388 236.508H144.788ZM144.26 219.744L143.996 207.336H152.18L151.784 219.744H144.26ZM143.864 219.744H136.604L135.548 207.336H143.6L143.864 219.744ZM136.208 219.744H128.552C128.288 218.028 128.024 216.312 127.76 214.992C126.968 209.976 126.704 207.996 126.44 207.336H135.152L136.208 219.744ZM136.472 223.044L137.528 236.508H131.192C131.06 235.188 130.796 233.736 130.664 232.416C130.268 229.248 129.608 226.08 129.212 223.044H136.472ZM130.664 236.508H126.572L124.328 223.044H128.684C129.212 227.268 129.872 231.756 130.664 236.508ZM131.06 239.808C131.588 243.768 132.248 247.86 132.776 251.556H128.816L126.836 239.808H131.06ZM151.124 251.424L151.52 239.676H155.876L154.82 251.424H151.124ZM152.312 219.744L152.708 207.336H158.648L157.592 219.744H152.312ZM126.044 207.468C126.176 208.392 126.968 213.276 128.156 219.876H123.8L121.688 207.468H126.044ZM158.516 251.424H155.216L156.272 239.676H159.968L158.516 251.424ZM162.212 219.744H157.856L158.912 207.336H163.664L162.212 219.744Z" fill="#E0E0E0"/>
<path d="M151.68 17.9387L100.796 26.5631L106.597 60.7896L157.481 52.1652L151.68 17.9387Z" fill="#EBEBEB"/>
<path d="M151.652 17.916C151.652 17.916 151.52 18.18 151.388 18.576C151.124 18.84 150.728 19.5 150.2 20.16C149.144 21.348 147.56 23.328 145.712 25.572C141.884 30.192 136.604 36.396 130.664 43.26L130.532 43.392H130.268C130.136 43.26 130.004 43.26 129.872 43.128C121.82 38.64 114.56 34.548 109.28 31.776C106.64 30.192 104.66 29.136 103.076 28.212C102.416 27.816 101.888 27.552 101.36 27.156C101.096 26.76 100.832 26.76 100.832 26.76C100.832 26.76 101.096 26.892 101.492 27.024C101.888 27.288 102.548 27.684 103.208 27.948C104.792 28.74 106.904 29.928 109.544 31.38C114.956 34.284 122.084 38.376 130.136 42.6C130.268 42.732 130.4 42.732 130.532 42.864H130.268C136.208 36 141.488 29.796 145.448 25.308C147.428 23.196 149.012 21.348 150.068 20.028C150.728 19.368 150.992 18.972 151.256 18.708C151.52 18.048 151.652 17.916 151.652 17.916Z" fill="#FAFAFA"/>
<path d="M106.508 60.816C106.376 60.684 109.412 55.404 113.24 48.804C117.068 42.336 120.368 37.056 120.5 37.056C120.632 37.188 117.596 42.468 113.768 49.068C109.94 55.668 106.64 60.816 106.508 60.816Z" fill="#FAFAFA"/>
<path d="M137.395 33.756C137.527 33.624 142.015 37.584 147.559 42.864C153.103 47.88 157.459 52.104 157.459 52.236C157.327 52.368 152.839 48.408 147.295 43.128C141.751 38.112 137.263 33.888 137.395 33.756Z" fill="#FAFAFA"/>
<path d="M74.683 107.95L41.1543 110.928L43.163 133.543L76.6917 130.565L74.683 107.95Z" fill="#F5F5F5"/>
<path d="M74.6961 107.94C74.6961 107.94 74.5641 108.072 74.4321 108.204C74.3001 108.468 74.0361 108.732 73.5081 109.128C72.7161 109.92 71.5281 111.108 70.2081 112.428C67.4361 115.2 63.7401 118.896 59.5161 123.12L59.3841 123.252H59.2521C59.1201 123.252 59.1201 123.12 58.9881 123.12C53.9721 119.82 49.4841 116.784 46.1841 114.672C44.6001 113.616 43.2801 112.692 42.3561 112.032C41.9601 111.768 41.5641 111.504 41.3001 111.24C41.0361 110.976 41.0361 110.976 41.0361 110.976C41.0361 110.976 41.1681 110.976 41.4321 111.108C41.6961 111.24 41.9601 111.504 42.4881 111.9C43.4121 112.428 44.7321 113.352 46.3161 114.408C49.6161 116.652 54.2361 119.556 59.2521 122.856C59.3841 122.856 59.3841 122.988 59.5161 122.988H59.3841C63.4761 118.896 67.4361 114.936 70.2081 112.296C71.5281 110.976 72.7161 109.92 73.5081 108.996C73.9041 108.732 74.3001 108.468 74.4321 108.072C74.5641 108.072 74.6961 107.94 74.6961 107.94Z" fill="#E0E0E0"/>
<path d="M43.1484 133.416C43.1484 133.416 45.3924 129.984 48.1644 126.024C50.9364 122.064 53.3124 118.764 53.4444 118.764C53.4444 118.764 51.2004 122.196 48.4284 126.156C45.6564 130.38 43.2804 133.548 43.1484 133.416Z" fill="#E0E0E0"/>
<path d="M64.6639 117.576C64.6639 117.576 67.4359 120.348 70.8679 123.912C74.2999 127.476 76.9399 130.38 76.8079 130.38C76.8079 130.38 74.0359 127.608 70.6039 124.044C67.1719 120.48 64.5319 117.576 64.6639 117.576Z" fill="#E0E0E0"/>
<path d="M313.088 93.024C313.088 93.024 313.088 92.892 313.22 92.628C313.22 92.364 313.352 91.704 313.484 91.176C313.616 89.856 314.012 88.008 314.408 85.632C315.332 80.88 316.52 74.016 317.972 65.7L318.104 65.832C307.148 63.852 293.156 61.344 278.24 58.704L278.372 58.572C276.656 68.34 274.94 77.58 273.488 85.896L273.356 85.764C285.104 87.876 295.004 89.724 302 90.912C305.564 91.44 308.204 92.1 310.184 92.364C311.108 92.496 311.768 92.628 312.428 92.76C312.56 92.892 312.692 93.024 313.088 93.024C313.088 93.024 313.088 93.024 312.956 93.024C312.824 93.024 312.692 93.024 312.428 92.892C312.032 92.76 311.24 92.76 310.184 92.628C308.204 92.364 305.432 91.836 302 91.176C294.872 89.988 284.972 88.272 273.224 86.16H272.96V86.028C274.412 77.712 276.128 68.34 277.844 58.704V58.572H277.976C293.024 61.212 306.752 63.72 317.708 65.7H317.84V65.832C316.388 74.148 315.068 81.012 314.144 85.896C313.748 88.272 313.352 89.988 313.088 91.44C312.956 91.968 312.956 92.496 312.824 92.892C313.088 92.892 313.088 93.024 313.088 93.024Z" fill="#E0E0E0"/>
<path d="M317.972 65.7C317.972 65.7 317.84 65.832 317.576 65.964C317.312 66.096 316.784 66.36 316.256 66.888C315.068 67.68 313.484 68.868 311.372 70.188C307.28 72.828 301.472 76.524 295.004 80.748C294.608 80.616 294.872 80.748 294.74 80.748L294.608 80.616L294.476 80.352L294.08 79.824C293.816 79.428 293.552 79.032 293.156 78.636C292.628 77.844 292.1 77.184 291.572 76.392C290.516 74.94 289.46 73.62 288.404 72.3C286.424 69.66 284.708 67.284 283.256 65.304C281.804 63.324 280.616 61.74 279.692 60.552C279.296 60.024 278.9 59.496 278.768 59.232C279.032 59.496 279.296 60.024 279.824 60.42C280.748 61.608 281.936 63.06 283.388 65.04C284.84 67.02 286.688 69.396 288.668 72.036C289.724 73.356 290.78 74.676 291.836 76.128C292.364 76.92 292.892 77.58 293.42 78.372C293.684 78.636 293.948 79.164 294.344 79.56L294.74 80.088L294.872 80.352L295.004 80.484C294.872 80.484 295.268 80.484 294.872 80.484C301.208 76.524 307.016 72.828 311.372 70.056C313.484 68.736 315.2 67.68 316.388 66.888C316.916 66.624 317.444 66.36 317.708 65.964C317.708 65.832 317.972 65.7 317.972 65.7Z" fill="#E0E0E0"/>
<path d="M289.196 73.224C289.196 73.224 285.632 76.128 281.276 79.692C276.788 83.256 273.224 86.028 273.092 85.896C273.092 85.896 276.656 82.992 281.012 79.428C285.368 75.864 288.932 73.092 289.196 73.224Z" fill="#E0E0E0"/>
<path d="M313.22 93.42C313.088 93.42 310.844 89.46 308.072 84.312C305.3 79.164 303.188 75.072 303.188 75.072C303.319 75.072 305.564 79.032 308.336 84.18C311.108 89.196 313.22 93.42 313.22 93.42Z" fill="#E0E0E0"/>
<path d="M136.208 144.636V152.292H103.076C100.964 152.292 99.248 150.576 99.248 148.464C99.248 146.352 100.964 144.636 103.076 144.636" fill="#E0E0E0"/>
<path d="M136.208 150.708H125.384C124.196 150.708 123.14 149.652 123.14 148.464C123.14 147.276 124.196 146.22 125.384 146.22H136.208V150.708Z" fill="#FAFAFA"/>
<path d="M136.208 136.848V144.504H103.076C100.964 144.504 99.248 142.788 99.248 140.676C99.248 138.564 100.964 136.848 103.076 136.848H136.208Z" fill="#F5F5F5"/>
<path d="M136.208 142.92H125.384C124.196 142.92 123.14 141.864 123.14 140.676C123.14 139.488 124.196 138.432 125.384 138.432H136.208V142.92Z" fill="#E0E0E0"/>
<path d="M112.316 124.572L106.904 136.848H110.336L112.712 130.38L112.316 124.572Z" fill="#E0E0E0"/>
<path d="M128.421 113.352L130.401 136.848H113.109L111.393 113.352H128.421Z" fill="#EBEBEB"/>
<path d="M126.704 115.332L128.42 134.868L115.484 135.132L113.9 115.2L126.704 115.332Z" fill="#FAFAFA"/>
<path d="M123.933 117.972L124.989 131.568H117.993L116.937 117.972H123.933Z" fill="#E0E0E0"/>
<path d="M335 257.76C335 258.42 261.08 258.42 170 258.42C78.92 258.42 5 257.76 5 257.76C5 257.1 78.92 257.1 170 257.1C261.08 257.1 335 257.1 335 257.76Z" fill="#1A1A1A"/>
<path d="M219.236 139.092H146.768C137.264 139.092 136.736 134.472 136.736 129.06V78.372C136.736 76.92 137.924 75.864 139.244 75.864H226.76C228.212 75.864 229.268 77.052 229.268 78.372V128.796C229.4 134.472 229.664 139.092 219.236 139.092Z" fill="#0064B7"/>
<path d="M191.12 139.092H175.148C175.148 139.092 170.264 147.408 175.148 152.292H191.78C191.516 152.292 183.332 146.88 191.12 139.092Z" fill="#023EA1"/>
<g opacity="0.3">
<path d="M174.884 139.092L174.092 140.676L188.744 141.864C188.744 141.864 189.932 140.148 190.988 139.092H174.884Z" fill="black"/>
</g>
<path d="M184.916 134.736C185.864 134.736 186.632 133.968 186.632 133.02C186.632 132.072 185.864 131.304 184.916 131.304C183.968 131.304 183.2 132.072 183.2 133.02C183.2 133.968 183.968 134.736 184.916 134.736Z" fill="#FAFAFA"/>
<path d="M224.781 79.428H141.093V127.608H224.781V79.428Z" fill="#FAFAFA"/>
<path d="M224.912 127.476C224.912 127.476 224.912 127.212 224.912 126.552C224.912 125.892 224.912 125.1 224.912 124.044C224.912 121.8 224.912 118.5 224.912 114.408C224.912 106.092 224.912 94.08 224.912 79.296L225.044 79.428C202.604 79.428 173.3 79.428 141.356 79.428L141.488 79.296C141.488 96.324 141.488 112.692 141.488 127.476L141.356 127.344C165.776 127.344 186.764 127.344 201.548 127.476C208.94 127.476 214.748 127.476 218.972 127.476C221.084 127.476 222.536 127.476 223.592 127.476C224.12 127.476 224.384 127.476 224.912 127.476C224.912 127.476 224.78 127.476 224.516 127.476C224.252 127.476 223.988 127.476 223.328 127.476C222.272 127.476 220.82 127.476 218.708 127.476C214.748 127.476 208.808 127.476 201.548 127.476C186.764 127.476 165.776 127.476 141.224 127.608H140.96V127.476C140.96 112.692 140.96 96.324 140.96 79.296V79.164H141.092C173.168 79.164 202.34 79.164 224.78 79.164H224.912V79.296C224.912 94.08 224.912 106.092 224.912 114.672C224.912 118.764 224.912 122.064 224.912 124.308C224.912 125.364 224.912 126.288 224.912 126.816C224.912 127.344 224.912 127.476 224.912 127.476Z" fill="#263238"/>
<g opacity="0.9">
<path d="M161.816 83.388H142.148V126.288H161.816V83.388Z" fill="#EFF9FF"/>
</g>
<path d="M158.252 105.564C158.252 105.696 155.48 105.696 151.916 105.696C148.352 105.696 145.58 105.564 145.58 105.564C145.58 105.432 148.352 105.432 151.916 105.432C155.48 105.432 158.252 105.432 158.252 105.564Z" fill="#263238"/>
<path d="M158.252 101.604C158.252 101.736 155.48 101.736 151.916 101.736C148.352 101.736 145.58 101.604 145.58 101.604C145.58 101.472 148.352 101.472 151.916 101.472C155.48 101.472 158.252 101.34 158.252 101.604Z" fill="#263238"/>
<path d="M161.684 121.14C161.684 121.272 157.328 121.272 151.916 121.272C146.636 121.272 142.148 121.14 142.148 121.14C142.148 121.14 146.504 121.008 151.916 121.008C157.328 121.008 161.684 121.14 161.684 121.14Z" fill="#263238"/>
<path d="M155.348 109.524C155.348 109.656 153.104 109.656 150.464 109.656C147.824 109.656 145.58 109.524 145.58 109.524C145.58 109.524 147.824 109.392 150.464 109.392C153.104 109.392 155.348 109.524 155.348 109.524Z" fill="#263238"/>
<path d="M156.668 118.632C156.668 118.764 154.424 118.764 151.784 118.764C149.144 118.764 146.9 118.632 146.9 118.632C146.9 118.5 149.144 118.5 151.784 118.5C154.556 118.5 156.668 118.5 156.668 118.632Z" fill="#263238"/>
<path d="M158.252 114.012C158.252 114.144 155.48 114.144 151.916 114.144C148.352 114.144 145.58 114.012 145.58 114.012C145.58 114.012 148.352 113.88 151.916 113.88C155.48 113.88 158.252 114.012 158.252 114.012Z" fill="#263238"/>
<path d="M158.252 123.648C158.252 123.78 155.48 123.78 151.916 123.78C148.352 123.78 145.58 123.648 145.58 123.648C145.58 123.516 148.352 123.516 151.916 123.516C155.48 123.516 158.252 123.648 158.252 123.648Z" fill="#263238"/>
<path d="M151.652 86.424C149.144 86.424 146.9 88.536 146.9 91.176C146.9 92.892 147.956 94.608 149.408 95.268V93.816C149.408 92.628 150.464 91.572 151.652 91.572C152.84 91.572 153.896 92.628 153.896 93.816V95.136C155.348 94.344 156.272 92.76 156.272 91.044C156.404 88.536 154.292 86.424 151.652 86.424ZM151.784 91.308C150.86 91.308 150.2 90.516 150.2 89.724C150.2 88.932 150.992 88.14 151.784 88.14C152.576 88.14 153.368 88.932 153.368 89.724C153.368 90.516 152.576 91.308 151.784 91.308Z" fill="#FAFAFA"/>
<path d="M151.784 91.572C150.596 91.572 149.54 92.628 149.54 93.816V95.268C150.068 95.532 150.86 95.664 151.652 95.664C152.576 95.664 153.236 95.532 154.028 95.136V93.816C154.028 92.628 152.972 91.572 151.784 91.572Z" fill="#0064B7"/>
<path d="M151.784 87.876C150.86 87.876 150.2 88.668 150.2 89.46C150.2 90.252 150.992 91.044 151.784 91.044C152.576 91.044 153.368 90.252 153.368 89.46C153.368 88.668 152.576 87.876 151.784 87.876Z" fill="#0064B7"/>
<path d="M156.404 91.044C156.404 91.044 156.404 90.648 156.272 89.856C156.14 89.064 155.744 88.14 154.556 87.348C154.028 86.952 153.368 86.556 152.576 86.424C151.784 86.292 150.992 86.292 150.2 86.556C149.408 86.82 148.616 87.48 148.088 88.14C147.56 88.932 147.164 89.724 147.164 90.78C147.164 91.836 147.428 92.76 148.088 93.42C148.748 94.08 149.408 94.74 150.2 95.004C150.992 95.268 151.784 95.268 152.576 95.136C153.368 95.004 153.896 94.74 154.556 94.212C155.612 93.42 156.008 92.496 156.272 91.704C156.404 91.44 156.404 91.044 156.404 91.044C156.404 91.044 156.404 91.176 156.404 91.308C156.404 91.44 156.404 91.704 156.272 92.232C156.14 93.024 155.744 93.948 154.688 94.872C154.16 95.268 153.5 95.664 152.576 95.796C151.784 95.928 150.992 95.928 150.068 95.664C149.144 95.4 148.484 94.74 147.824 94.08C147.164 93.42 146.9 92.364 146.9 91.308C146.9 90.252 147.164 89.196 147.824 88.536C148.484 87.876 149.144 87.216 150.068 86.952C150.992 86.688 151.784 86.688 152.576 86.82C153.368 86.952 154.028 87.216 154.688 87.744C155.744 88.668 156.14 89.724 156.272 90.384C156.404 90.384 156.404 90.648 156.404 91.044Z" fill="#FAFAFA"/>
<path d="M223.461 83.388H161.685V86.292H223.461V83.388Z" fill="#F5F5F5"/>
<path d="M205.508 85.5H163.928C163.664 85.5 163.4 85.236 163.4 84.972C163.4 84.708 163.664 84.444 163.928 84.444H205.508C205.772 84.444 206.036 84.708 206.036 84.972C206.036 85.236 205.904 85.5 205.508 85.5Z" fill="#E0E0E0"/>
<path d="M211.58 85.5H209.072C208.808 85.5 208.544 85.236 208.544 84.972C208.544 84.708 208.808 84.444 209.072 84.444H211.58C211.844 84.444 212.108 84.708 212.108 84.972C211.976 85.236 211.844 85.5 211.58 85.5Z" fill="#E0E0E0"/>
<path d="M214.484 84.18H214.088V84.576H214.484V84.18Z" fill="#E0E0E0"/>
<path d="M214.484 84.972H214.088V85.368H214.484V84.972Z" fill="#E0E0E0"/>
<path d="M215.144 84.18H214.748V84.576H215.144V84.18Z" fill="#E0E0E0"/>
<path d="M215.144 84.972H214.748V85.368H215.144V84.972Z" fill="#E0E0E0"/>
<path d="M165.116 88.14H163.4V89.856H165.116V88.14Z" fill="#EE384E"/>
<path d="M192.308 89.064C192.308 89.196 186.632 89.196 179.636 89.196C172.64 89.196 166.964 89.064 166.964 89.064C166.964 88.932 172.64 88.932 179.636 88.932C186.5 88.932 192.308 88.932 192.308 89.064Z" fill="#263238"/>
<path d="M215.936 89.064C215.936 89.196 215.408 89.196 214.484 89.196C213.692 89.196 213.032 89.064 213.032 89.064C213.032 88.932 213.56 88.932 214.484 88.932C215.408 88.932 215.936 88.932 215.936 89.064Z" fill="#263238"/>
<path d="M223.461 103.452H161.685V109.26H223.461V103.452Z" fill="#FAFAFA"/>
<path d="M164.853 105.432H163.137V107.148H164.853V105.432Z" fill="#EE384E"/>
<path d="M192.308 106.224C192.308 106.356 186.5 106.356 179.504 106.356C172.376 106.356 166.7 106.224 166.7 106.224C166.7 106.092 172.508 106.092 179.504 106.092C186.5 106.092 192.308 106.092 192.308 106.224Z" fill="#263238"/>
<path d="M216.333 106.224C216.333 106.356 215.805 106.356 214.881 106.356C214.089 106.356 213.429 106.224 213.429 106.224C213.429 106.092 213.957 106.092 214.881 106.092C215.673 106.092 216.333 106.092 216.333 106.224Z" fill="#263238"/>
<path d="M164.853 111.24H163.137V112.956H164.853V111.24Z" fill="#EE384E"/>
<path d="M192.308 111.9C192.308 112.032 186.5 112.032 179.504 112.032C172.376 112.032 166.7 111.9 166.7 111.9C166.7 111.768 172.508 111.768 179.504 111.768C186.5 111.768 192.308 111.9 192.308 111.9Z" fill="#263238"/>
<path d="M216.333 111.9C216.333 112.032 215.805 112.032 214.881 112.032C214.089 112.032 213.429 111.9 213.429 111.9C213.429 111.768 213.957 111.768 214.881 111.768C215.673 111.768 216.333 111.768 216.333 111.9Z" fill="#263238"/>
<path d="M223.461 114.936H161.685V120.744H223.461V114.936Z" fill="#FAFAFA"/>
<path d="M164.853 116.784H163.137V118.5H164.853V116.784Z" fill="#EE384E"/>
<path d="M192.308 117.708C192.308 117.84 186.5 117.84 179.504 117.84C172.376 117.84 166.7 117.708 166.7 117.708C166.7 117.576 172.508 117.576 179.504 117.576C186.5 117.576 192.308 117.576 192.308 117.708Z" fill="#263238"/>
<path d="M216.333 117.576C216.333 117.708 215.805 117.708 214.881 117.708C214.089 117.708 213.429 117.576 213.429 117.576C213.429 117.444 213.957 117.444 214.881 117.444C215.673 117.444 216.333 117.576 216.333 117.576Z" fill="#263238"/>
<path d="M164.853 122.46H163.137V124.176H164.853V122.46Z" fill="#EE384E"/>
<path d="M192.308 123.384C192.308 123.516 186.5 123.516 179.504 123.516C172.376 123.516 166.7 123.384 166.7 123.384C166.7 123.252 172.508 123.252 179.504 123.252C186.5 123.252 192.308 123.252 192.308 123.384Z" fill="#263238"/>
<path d="M216.333 123.384C216.333 123.516 215.805 123.516 214.881 123.516C214.089 123.516 213.429 123.384 213.429 123.384C213.429 123.252 213.957 123.252 214.881 123.252C215.673 123.252 216.333 123.252 216.333 123.384Z" fill="#263238"/>
<path d="M223.461 92.1H161.685V97.908H223.461V92.1Z" fill="#FAFAFA"/>
<path d="M165.116 93.948H163.4V95.664H165.116V93.948Z" fill="#EE384E"/>
<path d="M181.352 94.872C181.352 95.004 178.052 95.004 174.092 95.004C170.132 95.004 166.832 94.872 166.832 94.872C166.832 94.872 170.132 94.74 174.092 94.74C178.184 94.608 181.352 94.74 181.352 94.872Z" fill="#263238"/>
<path d="M215.936 95.004C215.936 95.136 215.408 95.136 214.484 95.136C213.692 95.136 213.032 95.004 213.032 95.004C213.032 95.004 213.56 94.872 214.484 94.872C215.408 94.872 215.936 94.872 215.936 95.004Z" fill="#263238"/>
<path d="M215.936 100.548C215.936 100.68 215.408 100.68 214.484 100.68C213.692 100.68 213.032 100.548 213.032 100.548C213.032 100.416 213.56 100.416 214.484 100.416C215.408 100.416 215.936 100.548 215.936 100.548Z" fill="#263238"/>
<path d="M165.116 99.756H163.4V101.472H165.116V99.756Z" fill="#EE384E"/>
<path d="M201.68 100.548C201.68 100.68 193.76 100.68 184.124 100.68C174.488 100.68 166.568 100.548 166.568 100.548C166.568 100.548 174.488 100.416 184.124 100.416C194.024 100.416 201.68 100.548 201.68 100.548Z" fill="#263238"/>
<path d="M144.788 81.936C144.788 82.2 144.524 82.464 144.26 82.464C143.996 82.464 143.732 82.2 143.732 81.936C143.732 81.672 143.996 81.408 144.26 81.408C144.524 81.54 144.788 81.804 144.788 81.936Z" fill="#263238"/>
<path d="M146.901 81.936C146.901 82.2 146.637 82.464 146.373 82.464C146.109 82.464 145.845 82.2 145.845 81.936C145.845 81.672 146.109 81.408 146.373 81.408C146.505 81.54 146.901 81.804 146.901 81.936Z" fill="#263238"/>
<path d="M148.88 81.936C148.88 82.2 148.616 82.464 148.352 82.464C148.088 82.464 147.824 82.2 147.824 81.936C147.824 81.672 148.088 81.408 148.352 81.408C148.616 81.54 148.88 81.804 148.88 81.936Z" fill="#263238"/>
<path d="M223.461 126.288C223.461 125.232 223.461 108.468 223.329 80.484L223.461 80.616C201.681 80.616 173.169 80.616 142.017 80.616L142.149 80.484C142.149 96.72 142.149 112.296 142.149 126.288L142.017 126.156C189.537 126.288 222.009 126.288 223.461 126.288C222.009 126.288 189.669 126.288 142.017 126.42H141.885V126.288C141.885 112.164 141.885 96.588 141.885 80.484V80.352H142.017C173.169 80.352 201.681 80.352 223.461 80.352H223.593V80.484C223.593 108.6 223.461 125.232 223.461 126.288Z" fill="#263238"/>
<path d="M263.324 257.76H258.308L247.088 158.1H253.688L263.324 257.76Z" fill="#023EA1"/>
<path d="M231.908 257.76H226.76L215.672 158.1H222.272L231.908 257.76Z" fill="#023EA1"/>
<path d="M264.776 158.1H129.608H89.2158V152.292H264.776V158.1Z" fill="#0064E1"/>
<path d="M125.779 257.76H130.663L141.355 158.1H134.887L125.779 257.76Z" fill="#023EA1"/>
<path d="M83.0117 257.76H88.0277L99.2477 158.1H92.6477L83.0117 257.76Z" fill="#023EA1"/>
<path d="M143.204 152.292H89.2158V158.1H143.204V152.292Z" fill="#023EA1"/>
<path d="M205.507 150.576H168.151V152.292H205.507V150.576Z" fill="#0064B7"/>
<path d="M203.528 255.648C204.056 252.744 210.524 252.876 210.524 252.876L207.62 240.6L219.632 238.224L223.46 257.496L204.98 259.74C204.98 259.74 202.736 259.74 203.528 255.648Z" fill="black"/>
<path d="M231.512 254.328C232.04 251.424 238.508 251.556 238.508 251.556L235.604 239.28L247.616 236.904L251.444 256.176L232.964 258.42C232.964 258.42 230.72 258.552 231.512 254.328Z" fill="black"/>
<g opacity="0.6">
<path d="M217.916 250.368C218.312 250.368 218.84 250.764 218.84 251.424C218.84 251.82 218.444 252.348 217.784 252.348C217.388 252.348 216.728 251.82 216.86 251.292C216.992 250.764 217.652 250.236 217.916 250.368Z" fill="white"/>
</g>
<path d="M233.755 242.052L224.383 189.912C223.987 187.404 224.119 184.764 224.911 182.256C227.023 176.316 232.567 172.488 238.903 172.488H271.903L293.419 181.992C293.419 189.912 286.687 195.984 279.031 195.324L243.919 192.552L248.935 239.676L233.755 242.052Z" fill="#EE384E"/>
<path d="M206.432 244.824L195.74 190.044C195.344 187.536 195.476 184.896 196.268 182.388C198.38 176.448 203.924 172.62 210.26 172.62H243.26L264.776 182.124V196.512L215.408 192.684L221.876 241.392L206.432 244.824Z" fill="#EE384E"/>
<path d="M221.876 241.26C221.876 241.26 221.876 241.128 221.744 240.732C221.744 240.336 221.612 239.676 221.48 239.148C221.348 237.696 221.084 235.584 220.556 232.944C219.764 227.796 218.972 220.536 217.784 212.484C216.728 204.828 215.804 197.832 215.276 192.816V192.948C212.9 191.364 211.184 189.78 209.732 188.988C209.204 188.592 208.544 188.064 208.28 187.932C208.016 187.668 207.884 187.536 207.884 187.536C207.884 187.536 207.884 187.536 208.016 187.668C208.148 187.668 208.28 187.8 208.412 187.932C208.676 188.196 209.336 188.46 209.864 188.988C211.184 189.912 213.032 191.364 215.408 192.816C216.2 197.964 216.992 204.96 218.048 212.484C219.104 220.536 220.028 227.664 220.688 232.944C220.952 235.584 221.216 237.696 221.48 239.148C221.612 239.94 221.612 240.468 221.612 240.732C221.876 241.128 221.876 241.26 221.876 241.26Z" fill="#455A64"/>
<path d="M190.724 150.708L193.1 146.22C193.364 145.824 193.892 145.692 194.288 145.692H195.344L197.06 144.108H199.172L200.756 143.052L206.96 144.24L211.976 145.56L209.204 151.368L206.3 150.84L201.416 150.708C200.096 150.708 198.644 150.18 197.72 149.124C196.796 148.2 195.608 147.804 194.42 147.804C194.288 147.672 192.836 151.104 190.724 150.708Z" fill="#FFBE9D"/>
<path d="M261.079 84.576L261.211 116.388L247.615 116.916L247.219 109.26C247.219 109.26 242.335 110.184 241.147 105.696C240.355 102.924 240.619 80.616 240.619 80.616L261.079 84.576Z" fill="#FFBE9D"/>
<path d="M261.212 109.524C262.664 108.072 263.324 105.96 263.72 103.848C263.984 101.736 264.116 99.756 264.644 97.644C265.04 95.532 265.964 93.552 266.36 91.308C266.756 89.196 266.756 86.688 265.436 84.972C265.436 84.972 264.512 82.464 260.948 82.332C260.948 82.332 257.78 77.448 253.424 77.844C247.352 78.372 247.22 76.656 242.864 75.864C238.904 75.336 238.112 78.768 238.112 78.768C238.112 78.768 236 80.352 236 82.728C235.868 85.104 237.452 87.216 239.696 87.876C239.96 88.008 240.224 88.008 240.62 88.14C241.412 88.404 242.204 88.536 242.732 89.196C243.656 90.12 243.788 91.44 243.656 92.628C243.656 93.816 243.524 95.136 243.788 96.192C243.92 96.588 244.184 96.984 244.712 96.984C245.108 96.852 245.108 96.192 245.108 95.664C245.24 94.212 247.088 93.156 248.408 94.212C249.2 94.74 249.464 95.928 248.936 96.852C248.54 97.908 247.484 98.568 247.22 99.624C246.956 101.604 248.936 103.188 249.86 104.112C250.124 104.376 250.388 104.904 250.784 105.168C252.5 106.62 254.348 108.732 256.724 109.656C258.308 110.184 260.288 110.052 261.476 108.864" fill="#170856"/>
<path d="M245.108 115.464C242.204 117.576 243.392 123.384 243.392 126.288C243.26 133.02 243.92 139.356 244.316 140.412C244.712 141.864 246.692 155.064 246.692 155.064L243.524 172.488C243.524 172.488 247.484 182.916 265.04 182.784L273.752 180.672C278.108 179.616 281.012 175.656 280.748 171.036L278.768 147.804L276.128 128.928C275.336 119.028 269.264 113.748 261.344 114.408L245.108 115.464Z" fill="#0083F9"/>
<g opacity="0.5">
<path d="M252.367 180.54C250.387 179.484 252.895 160.212 255.271 150.312C256.195 146.484 257.383 142.392 260.023 139.62C262.267 137.376 265.171 136.056 268.207 135.264C271.375 134.472 273.751 134.472 276.787 134.34L279.559 178.428C279.427 178.428 260.551 184.764 252.367 180.54Z" fill="black"/>
</g>
<path d="M245.108 115.464C245.108 115.464 239.432 116.256 236.66 121.932C234.416 126.552 224.78 145.56 224.78 145.56L210.128 144.504L207.224 151.236L227.42 156.78C231.512 157.572 235.34 155.064 237.188 151.236L245.636 135.792L245.108 115.464Z" fill="#0083F9"/>
<path d="M246.56 115.464C246.56 115.464 246.296 112.032 246.692 111.504C247.088 110.976 261.872 111.108 261.872 111.108L262.664 114.936L261.08 117.708L247.088 118.896L246.56 115.464Z" fill="#0083F9"/>
<path d="M247.616 130.644C247.748 130.644 246.692 133.02 245.372 135.792C244.052 138.564 242.996 140.94 242.864 140.808C242.732 140.808 243.788 138.432 245.108 135.66C246.428 132.888 247.616 130.644 247.616 130.644Z" fill="#263238"/>
<path d="M262.4 114.276C262.4 114.276 262.532 114.408 262.532 114.672C262.532 114.936 262.4 115.596 261.74 115.728C260.288 115.86 257.78 115.86 254.876 115.992C252.5 116.124 250.388 116.124 248.804 116.124C248.012 116.124 247.352 115.992 247.088 115.728C246.692 115.596 246.56 115.332 246.56 115.332C246.56 115.332 246.692 115.464 247.088 115.596C247.484 115.728 248.144 115.86 248.804 115.86C250.256 115.728 252.5 115.728 254.876 115.596C257.648 115.464 260.024 115.464 261.74 115.464C262.136 115.332 262.532 114.936 262.532 114.54C262.4 114.408 262.4 114.276 262.4 114.276Z" fill="#263238"/>
<path d="M252.235 199.416L251.707 257.628H255.007L255.271 200.472C255.271 200.472 255.403 197.832 257.515 197.7C259.495 197.568 289.327 199.02 289.327 199.02L298.039 257.496H301.867L293.287 199.02C293.287 199.02 268.207 190.572 255.931 193.212C255.931 193.212 253.027 192.684 252.763 194.928C252.499 197.172 252.235 199.416 252.235 199.416Z" fill="#023EA1"/>
<path d="M252.763 192.816C252.763 192.816 257.911 152.424 259.759 145.692C260.815 141.996 263.323 139.62 265.567 138.432C267.151 137.508 268.999 136.98 270.715 137.112L298.171 137.64C300.679 137.64 302.659 140.016 302.131 142.392L293.023 199.416C282.991 199.416 259.231 199.416 259.231 199.416C259.231 199.416 226.891 195.852 221.875 195.72C218.707 195.588 218.443 196.776 218.311 198.096C215.407 195.72 217.123 190.836 220.819 191.1L252.763 192.816Z" fill="#90A7CB"/>
<path d="M301.999 140.28C301.999 140.28 301.867 140.28 301.735 140.28C301.603 140.28 301.339 140.28 300.943 140.28C300.415 140.28 299.491 140.28 298.303 140.28C295.927 140.28 292.627 140.28 288.535 140.28C286.423 140.28 284.179 140.28 281.671 140.28C280.483 140.28 279.163 140.28 277.975 140.28C277.447 140.28 276.655 140.28 275.995 140.28C275.467 140.28 274.675 140.28 273.883 140.28C272.563 140.412 271.243 140.808 270.187 141.732C268.999 142.656 268.207 143.844 267.679 145.164C267.415 145.956 267.415 146.616 267.283 147.408C267.151 148.2 267.019 148.86 267.019 149.652C266.755 151.104 266.623 152.82 266.227 154.272C264.115 166.68 262.399 178.032 260.947 186.216C260.155 190.176 259.759 193.608 259.363 195.852C259.231 197.04 259.099 197.832 258.967 198.492C258.967 198.756 258.835 198.888 258.835 199.284C258.835 199.152 258.835 198.888 258.967 198.492C259.099 197.964 259.231 197.04 259.363 195.852C259.627 193.476 260.287 190.176 260.815 186.216C262.135 178.032 263.983 166.812 265.963 154.272C266.227 152.82 266.359 151.104 266.755 149.652C266.887 148.86 267.019 148.2 267.019 147.408C267.151 146.616 267.151 145.956 267.415 145.164C267.811 143.712 268.867 142.524 269.923 141.6C271.111 140.676 272.431 140.148 273.883 140.148C274.675 140.148 275.203 140.148 275.995 140.148C276.523 140.148 277.315 140.148 277.975 140.148C279.295 140.148 280.483 140.148 281.671 140.148C284.047 140.148 286.423 140.148 288.535 140.148C292.627 140.148 295.927 140.148 298.303 140.148C299.491 140.148 300.415 140.148 300.943 140.148C301.207 140.148 301.339 140.148 301.735 140.148C301.999 140.28 301.999 140.28 301.999 140.28Z" fill="#263238"/>
<path d="M218.311 199.416L216.859 257.628H220.159L221.083 200.604C221.083 200.604 221.083 197.172 223.723 197.436C225.703 197.568 255.799 201.132 255.799 201.132L265.831 257.496H269.659L259.363 199.02L222.535 194.4C221.743 194.268 220.951 194.4 220.291 194.664C219.367 195.06 218.707 195.852 218.575 197.568C218.311 200.208 218.311 199.416 218.311 199.416Z" fill="#023EA1"/>
<path d="M21.3676 201.396C21.3676 201.396 25.1956 199.944 24.9316 195.456C24.6676 190.968 22.4236 188.064 27.0436 189.252C31.6636 190.44 33.2476 190.968 36.5476 190.44C39.8476 189.912 42.6196 188.328 41.2996 192.684C39.8476 197.04 38.1316 200.736 41.6956 201.396C45.1276 202.188 48.8236 199.416 49.2196 206.28C49.6156 213.144 44.2036 220.668 35.2276 220.932C26.2516 221.196 22.4236 217.5 22.4236 217.5C22.4236 217.5 20.0476 214.068 23.7436 213.408C27.4396 212.484 31.2676 211.032 29.4196 209.316C27.4396 207.6 21.3676 207.336 21.3676 207.336C21.3676 207.336 13.5796 205.884 21.3676 201.396Z" fill="#649EEA"/>
<path d="M61.7592 202.452C61.2312 198.096 61.6272 195.06 69.6792 193.872C77.7312 192.684 82.4832 197.568 82.8792 202.452C83.2752 207.468 76.4112 209.316 76.4112 209.316C76.4112 209.316 71.3952 210.768 73.9032 215.124C76.4112 219.48 77.5992 223.704 71.7912 224.364C65.9832 225.024 59.7792 223.44 56.3472 221.064C52.7832 218.688 49.2192 212.88 53.1792 209.844C53.1792 209.844 54.3672 209.052 58.1952 208.788C62.2872 208.524 61.7592 202.452 61.7592 202.452Z" fill="#023EA1"/>
<path d="M33.5117 201.792C33.5117 201.792 40.2437 216.972 41.0357 227.136" stroke="#023EA1" stroke-miterlimit="10"/>
<path d="M70.736 204.168C70.736 204.168 58.856 221.856 56.084 227.664" stroke="#649EEA" stroke-miterlimit="10"/>
<path d="M37.0757 226.08H64.2677C64.2677 226.08 67.1717 226.212 66.9077 230.436C66.6437 234.132 61.8917 233.34 59.5157 233.34C57.1397 233.34 36.4157 233.34 36.4157 233.34C36.4157 233.34 33.1157 233.868 33.1157 230.04C32.9837 226.344 34.4357 226.08 37.0757 226.08Z" fill="#0054A5"/>
<path d="M36.416 233.34L40.508 257.364H58.724L61.76 239.28L36.416 233.34Z" fill="#0054A5"/>
<path d="M36.416 233.34L61.76 239.28L62.816 233.34H36.416Z" fill="#006AD5"/>
<path d="M48.1641 226.872C48.1641 226.872 49.4841 200.208 57.5361 183.576" stroke="#FCBE42" stroke-miterlimit="10"/>
<path d="M64.0041 173.94C64.0041 173.94 64.5321 182.124 56.7441 185.424C56.6121 185.424 54.8961 178.428 64.0041 173.94Z" fill="#FCBE42"/>
<path d="M51.9922 200.076C51.9922 200.076 54.8962 193.08 64.0042 194.004C64.0042 194.004 63.3442 201 51.9922 200.076Z" fill="#FCBE42"/>
<path d="M49.0879 217.632C49.0879 217.632 50.5399 210.24 59.6479 209.316C59.6479 209.316 60.3079 216.18 49.0879 217.632Z" fill="#FCBE42"/>
<path d="M48.8238 217.632C48.8238 217.632 49.8798 210.108 41.5638 206.412C41.4318 206.28 38.5278 212.616 48.8238 217.632Z" fill="#FCBE42"/>
<path d="M51.9915 199.944C51.9915 199.944 53.9715 192.684 46.3155 187.8C46.4475 187.8 42.6195 193.74 51.9915 199.944Z" fill="#FCBE42"/>
</svg>
