<svg width="340" height="270" viewBox="0 0 340 270" fill="none" xmlns="http://www.w3.org/2000/svg">
<path d="M338 229.604H3V229.738H338V229.604Z" fill="#ECECEC"/>
<path d="M304.5 240.324H282.256V240.458H304.5V240.324Z" fill="#ECECEC"/>
<path d="M224.904 242.2H219.008V242.334H224.904V242.2Z" fill="#ECECEC"/>
<path d="M281.586 234.16H268.722V234.294H281.586V234.16Z" fill="#ECECEC"/>
<path d="M67.0524 235.232H38.1084V235.366H67.0524V235.232Z" fill="#ECECEC"/>
<path d="M77.37 235.232H73.082V235.366H77.37V235.232Z" fill="#ECECEC"/>
<path d="M153.884 238.046H91.1719V238.18H153.884V238.046Z" fill="#ECECEC"/>
<path d="M161.79 199.588H32.4797C30.4697 199.588 28.5938 197.846 28.5938 195.702V13.998C28.5938 11.988 30.3357 10.112 32.4797 10.112H161.924C164.068 10.112 165.676 11.854 165.676 13.998V195.836C165.542 197.98 163.934 199.588 161.79 199.588ZM32.4797 10.38C30.4697 10.38 28.7278 11.988 28.7278 14.132V195.97C28.7278 197.98 30.3357 199.722 32.4797 199.722H161.924C163.934 199.722 165.676 198.114 165.676 195.97V13.998C165.676 11.988 164.068 10.246 161.924 10.246H32.4797V10.38Z" fill="#ECECEC"/>
<path d="M306.644 199.588H177.334C175.19 199.588 173.582 197.846 173.582 195.702V13.998C173.582 11.988 175.324 10.112 177.334 10.112H306.778C308.922 10.112 310.664 11.854 310.664 13.998V195.836C310.53 197.98 308.788 199.588 306.644 199.588ZM177.334 10.38C175.324 10.38 173.582 11.988 173.582 14.132V195.97C173.582 197.98 175.19 199.722 177.334 199.722H306.778C308.788 199.722 310.53 198.114 310.53 195.97V13.998C310.53 11.988 308.922 10.246 306.778 10.246H177.334V10.38Z" fill="#ECECEC"/>
<path d="M113.684 161.934H101.222V227.058H113.684V161.934Z" fill="#F0F0F0"/>
<path d="M111.138 227.058H56.8682V229.604H111.138V227.058Z" fill="#F0F0F0"/>
<path d="M101.222 161.934H54.5898V227.058H101.222V161.934Z" fill="#F5F5F5"/>
<path d="M99.078 183.374V202.938H56.6V183.374H99.078ZM99.346 183.106H56.332V203.34H99.48L99.346 183.106Z" fill="#E1E1E1"/>
<path d="M79.6481 193.156C79.6481 194.228 78.8441 195.032 77.9061 195.032C76.9681 195.032 76.1641 194.228 76.1641 193.156C76.1641 192.084 76.9681 191.28 77.9061 191.28C78.8441 191.414 79.6481 192.084 79.6481 193.156Z" fill="#E1E1E1"/>
<path d="M99.48 164.078H56.332V178.952H99.48V164.078Z" fill="#F0F0F0"/>
<path d="M99.48 207.226H56.332V222.1H99.48V207.226Z" fill="#F0F0F0"/>
<path d="M65.444 164.078H56.332V178.952H65.444V164.078Z" fill="#E1E1E1"/>
<path d="M65.444 207.226H56.332V222.1H65.444V207.226Z" fill="#E1E1E1"/>
<path d="M156.966 228.13C161.12 228.13 164.604 224.646 164.604 220.626V156.038C164.604 151.884 161.12 148.534 156.966 148.534H115.962V228.264H156.966V228.13Z" fill="#E7E7E7"/>
<path d="M115.962 148.4C111.808 148.4 108.324 151.884 108.324 155.904V218.884C108.324 223.976 112.478 228.13 117.57 228.13H123.332V155.904C123.466 151.884 120.116 148.4 115.962 148.4Z" fill="#E1E1E1"/>
<path d="M280.916 176.808L283.596 143.844C284.132 137.948 279.576 132.99 273.68 132.99H177.736C171.84 132.99 166.48 137.948 165.944 143.844L163.264 176.808C162.996 180.828 165.944 184.044 170.098 184.044H273.01C277.164 184.178 280.648 180.828 280.916 176.808Z" fill="#E1E1E1"/>
<path d="M267.517 176.808L270.197 143.844C270.733 137.948 266.177 132.99 260.281 132.99H164.337C158.441 132.99 153.081 137.948 152.545 143.844L149.865 176.808C149.597 180.828 152.545 184.044 156.699 184.044H259.611C263.765 184.178 267.249 180.828 267.517 176.808Z" fill="#F0F0F0"/>
<path d="M136.599 153.224C136.599 153.224 134.723 151.75 135.393 150.946C136.197 150.142 139.279 151.75 139.279 151.75C139.279 151.75 157.503 149.472 168.223 149.874C168.357 148.4 169.697 147.864 170.903 148.132C171.975 148.4 170.903 150.678 170.903 150.678C170.903 150.678 178.407 169.84 178.273 179.488C179.479 180.56 180.685 181.23 179.479 181.766C178.273 182.302 177.067 181.364 177.067 181.364C177.067 181.364 152.813 184.848 143.031 183.106C142.361 184.446 140.887 184.178 140.083 183.776C139.279 183.374 140.619 181.498 140.619 181.498C140.619 181.498 134.589 164.614 136.599 153.224Z" fill="white"/>
<path d="M285.874 228.13C290.028 228.13 293.378 224.646 293.378 220.626V156.038C293.378 151.884 289.894 148.534 285.874 148.534H250.23V228.264H285.874V228.13Z" fill="#E7E7E7"/>
<path d="M251.838 191.548V184.982C251.838 182.57 249.962 180.694 247.55 180.694H133.248C130.836 180.694 128.96 182.57 128.96 184.982V191.548C128.96 193.96 130.836 195.836 133.248 195.836H247.55C249.962 195.836 251.838 193.826 251.838 191.548Z" fill="#ECECEC"/>
<path d="M251.838 225.852V198.114C251.838 196.908 250.766 195.836 249.56 195.836H136.598C135.392 195.836 134.32 196.908 134.32 198.114V225.852C134.32 227.058 135.392 228.13 136.598 228.13H249.56C250.766 228.13 251.838 227.192 251.838 225.852Z" fill="#F0F0F0"/>
<path d="M250.096 148.4C245.942 148.4 242.592 151.884 242.592 155.904V228.13H257.6V155.904C257.734 151.884 254.25 148.4 250.096 148.4Z" fill="#E1E1E1"/>
<path d="M282.927 229.604H121.323C120.519 229.604 119.849 229.068 119.849 228.13H284.267C284.267 228.934 283.731 229.604 282.927 229.604Z" fill="#E1E1E1"/>
<path d="M253.313 30.078H96.2646V117.446H253.313V30.078Z" fill="#E1E1E1"/>
<path d="M252.508 30.078H87.6885V117.446H252.508V30.078Z" fill="#F5F5F5"/>
<path d="M249.828 32.892H90.3682V114.9H249.828V32.892Z" fill="white"/>
<path d="M117.169 46.694H168.491C198.641 46.694 223.029 71.082 223.029 101.098H171.707C141.557 101.098 117.169 76.71 117.169 46.694Z" fill="#F5F5F5"/>
<path d="M223.297 106.056H171.573C141.423 106.056 116.767 81.534 116.767 51.25V50.982H168.491C198.641 50.982 223.297 75.504 223.297 105.788V106.056ZM117.437 51.786C117.705 81.4 141.825 105.52 171.573 105.52H222.627C222.493 75.906 198.239 51.786 168.491 51.786H117.437Z" fill="white"/>
<path d="M223.297 96.676H171.573C141.423 96.676 116.767 72.154 116.767 41.87V41.468H168.491C198.641 41.468 223.297 66.124 223.297 96.274V96.676ZM117.437 42.272C117.705 72.02 141.825 96.006 171.573 96.006H222.627C222.493 66.392 198.239 42.272 168.491 42.272H117.437Z" fill="white"/>
<path d="M170.5 259.754C242.212 259.754 300.346 256.394 300.346 252.25C300.346 248.106 242.212 244.746 170.5 244.746C98.7883 244.746 40.6543 248.106 40.6543 252.25C40.6543 256.394 98.7883 259.754 170.5 259.754Z" fill="#F5F5F5"/>
<path d="M292.708 207.896H81.3903C79.1123 207.896 77.2363 206.02 77.2363 203.742V66.526C77.2363 64.248 79.1123 62.372 81.3903 62.372H292.708C294.986 62.372 296.862 64.248 296.862 66.526V203.742C296.862 206.154 294.986 207.896 292.708 207.896Z" fill="#1A2E35"/>
<path d="M216.596 247.694H167.284L158.708 161.264H208.154L216.596 247.694Z" fill="#1A2E35"/>
<path d="M215.256 247.694H165.944L157.368 161.264H206.814L215.256 247.694Z" fill="#0064B7"/>
<path d="M226.244 250.508H163.13L163.8 247.694H223.966C225.574 247.694 226.646 249.034 226.244 250.508Z" fill="#1A2E35"/>
<path d="M215.524 250.508H152.41C152.812 248.9 154.286 247.694 156.162 247.694H216.328L215.524 250.508Z" fill="#023EA1"/>
<path d="M220.884 247.694H214.586C213.112 247.694 211.906 249.168 212.308 250.508H221.554" fill="#1A2E35"/>
<path d="M206.814 161.264H157.368L162.46 212.05H211.772L206.814 161.264Z" fill="#023EA1"/>
<path d="M291.502 207.896H80.1843C77.9063 207.896 76.0303 206.02 76.0303 203.742V66.526C76.0303 64.248 77.9063 62.372 80.1843 62.372H291.502C293.78 62.372 295.656 64.248 295.656 66.526V203.742C295.656 206.154 293.78 207.896 291.502 207.896Z" fill="#0064B7"/>
<path opacity="0.9" d="M185.776 201.866C187.922 201.866 189.662 200.126 189.662 197.98C189.662 195.834 187.922 194.094 185.776 194.094C183.629 194.094 181.89 195.834 181.89 197.98C181.89 200.126 183.629 201.866 185.776 201.866Z" fill="white"/>
<path d="M291.904 187.126H79.5145C78.5765 187.126 77.7725 186.322 77.7725 185.384V72.69C77.7725 71.752 78.5765 70.948 79.5145 70.948H291.904C292.842 70.948 293.646 71.752 293.646 72.69V185.384C293.646 186.188 292.976 187.126 291.904 187.126Z" fill="white"/>
<path d="M191.404 163.006C186.178 162.47 181.22 160.862 176.798 158.584C172.376 156.172 168.49 153.09 165.542 149.338C162.594 145.586 160.316 141.298 159.11 137.01C158.172 133.928 157.77 130.712 157.77 127.63H164.738L151.07 104.046L137.402 127.63H144.638C145.442 132.32 147.05 136.876 149.06 141.03C151.874 146.256 155.492 150.946 160.048 154.698C164.604 158.45 169.562 161.13 174.922 162.872C180.148 164.48 185.776 165.016 191.136 164.48C191.404 164.48 191.672 164.212 191.672 163.944C192.074 163.274 191.806 163.006 191.404 163.006Z" fill="#003EB0"/>
<path d="M226.646 130.578C225.842 125.888 224.234 121.332 222.09 117.178C219.276 111.952 215.524 107.262 211.236 103.51C206.814 99.758 201.722 97.078 196.362 95.336C191.136 93.728 185.508 93.058 180.148 93.728C179.88 93.728 179.612 93.996 179.612 94.264C179.612 94.532 179.746 94.934 180.148 94.934C185.374 95.47 190.332 97.078 194.754 99.356C199.176 101.768 202.928 104.984 206.01 108.602C208.958 112.354 211.236 116.642 212.576 120.93C213.38 124.012 213.916 127.228 213.916 130.31H206.948L220.616 153.894L234.284 130.31L226.646 130.578Z" fill="#003EB0"/>
<path d="M111.004 251.178H53.6522C49.6322 251.178 46.2822 247.962 46.2822 243.942V112.89C46.2822 108.87 49.6322 105.654 53.6522 105.654H111.004C115.024 105.654 118.24 108.87 118.24 112.89V243.942C118.24 247.828 115.024 251.178 111.004 251.178Z" fill="#1A2E35"/>
<path d="M117.838 151.616H116.766C115.962 151.616 115.426 151.08 115.426 150.276V132.588C115.426 131.784 115.962 131.248 116.766 131.248H117.838C118.642 131.248 119.178 131.784 119.178 132.588V150.276C119.178 150.946 118.508 151.616 117.838 151.616Z" fill="#1A2E35"/>
<path d="M46.5499 141.164H45.3439C44.6739 141.164 44.0039 140.628 44.0039 139.958V132.588C44.0039 131.784 44.6739 131.382 45.3439 131.382H46.5499C47.2199 131.382 47.8899 131.918 47.8899 132.588V139.958C47.8899 140.494 47.2199 141.164 46.5499 141.164Z" fill="#1A2E35"/>
<path d="M46.5499 154.296H45.3439C44.6739 154.296 44.0039 153.76 44.0039 153.09V145.72C44.0039 144.916 44.6739 144.514 45.3439 144.514H46.5499C47.2199 144.514 47.8899 145.05 47.8899 145.72V153.09C47.8899 153.76 47.2199 154.296 46.5499 154.296Z" fill="#1A2E35"/>
<path d="M109.798 251.178H52.58C48.56 251.178 45.21 247.962 45.21 243.942V112.89C45.21 108.87 48.56 105.654 52.58 105.654H109.798C113.818 105.654 117.034 108.87 117.034 112.89V243.942C117.034 247.828 113.818 251.178 109.798 251.178Z" fill="#0064B7"/>
<path d="M114.354 242.87H48.0242C47.0862 242.87 46.2822 242.066 46.2822 241.128V115.972C46.2822 115.034 47.0862 114.23 48.0242 114.23H114.354C115.292 114.23 116.096 115.034 116.096 115.972V241.128C115.962 242.066 115.292 242.87 114.354 242.87Z" fill="white"/>
<path d="M83.9364 193.692C81.2564 193.424 78.8444 192.62 76.5664 191.414C74.2884 190.208 72.4124 188.6 70.9384 186.724C69.4644 184.848 68.2584 182.704 67.5884 180.426C67.1864 178.952 66.9184 177.21 66.9184 175.602H70.5364L63.7024 163.676L56.7344 175.602H60.4864C60.8884 178.014 61.6924 180.292 62.7644 182.436C64.1044 185.116 66.1144 187.528 68.3924 189.27C70.6704 191.146 73.2164 192.486 75.8964 193.424C78.5764 194.362 81.3904 194.496 84.0704 194.228C84.2044 194.228 84.3384 194.094 84.3384 193.96C84.3384 193.826 84.0704 193.826 83.9364 193.692Z" fill="#003EB0"/>
<path d="M101.758 177.344C101.356 174.932 100.552 172.654 99.4802 170.51C98.0062 167.83 96.2643 165.418 93.8523 163.676C91.5743 161.8 89.0282 160.46 86.3482 159.522C83.6682 158.584 80.8542 158.45 78.1742 158.718C78.0402 158.718 77.9062 158.852 77.9062 158.986C77.9062 159.12 78.0402 159.254 78.1742 159.254C80.8542 159.522 83.2662 160.326 85.5442 161.532C87.8222 162.738 89.6983 164.346 91.1723 166.222C92.6463 168.098 93.7182 170.242 94.3882 172.52C94.7902 173.994 95.0582 175.736 95.0582 177.344H91.4402L98.4082 189.27L105.376 177.344H101.758Z" fill="#003EB0"/>
<path opacity="0.2" d="M74.2878 109.004H88.0898C88.4918 109.004 88.8938 109.406 88.8938 109.942C88.8938 110.344 88.4918 110.88 87.9558 110.88H74.1538C73.7518 110.88 73.2158 110.478 73.2158 109.942C73.3498 109.406 73.7518 109.004 74.2878 109.004Z" fill="black"/>
<path d="M274.215 40.932C274.215 40.664 274.215 40.53 274.215 40.262V40.128C274.215 39.86 274.215 39.726 274.081 39.458C274.081 39.458 274.081 39.458 274.081 39.324C274.081 39.19 274.081 39.056 273.947 39.056C273.947 39.056 273.947 38.922 273.813 38.788C273.813 38.788 273.813 38.654 273.679 38.52C273.679 38.386 273.545 38.252 273.545 37.984C273.545 37.984 273.411 37.85 273.411 37.716C273.277 37.448 273.277 37.314 273.277 37.18C273.277 37.18 273.277 37.18 273.143 37.046C273.009 36.778 273.009 36.644 272.875 36.51C272.875 36.51 272.741 36.51 272.741 36.376C272.607 36.108 272.607 35.974 272.473 35.84C272.473 35.84 272.339 35.84 272.339 35.706C272.205 35.572 272.205 35.304 272.071 35.17C272.071 35.17 271.937 35.17 271.937 35.036C271.803 34.902 271.669 34.634 271.535 34.5H271.401C271.267 34.5 271.267 34.366 271.267 34.366C271.133 34.366 271.133 34.366 271.133 34.232C270.999 34.098 270.999 34.098 270.999 33.964C270.865 33.964 270.865 33.83 270.731 33.696C270.597 33.696 270.597 33.562 270.463 33.428C270.329 33.428 270.329 33.294 270.329 33.294C270.195 33.294 270.061 33.026 269.927 33.026C269.793 33.026 269.659 32.892 269.525 32.892H269.391C269.257 32.892 269.123 32.758 268.855 32.624C268.721 32.624 268.721 32.49 268.721 32.49H268.587C268.453 32.49 268.319 32.356 268.051 32.356C267.917 32.356 267.917 32.356 267.917 32.356C267.649 32.356 267.381 32.222 267.113 32.222C267.113 32.222 267.113 32.222 266.979 32.222C266.711 32.222 266.443 32.222 266.175 32.222C266.175 32.222 266.175 31.954 266.041 31.954L265.907 31.686C265.907 31.552 265.773 31.552 265.773 31.418C265.773 31.284 265.639 31.15 265.639 31.016L265.505 30.748C265.371 30.48 265.371 30.346 265.371 30.212C265.371 30.212 265.237 30.212 265.237 30.078C265.103 29.81 265.103 29.81 264.969 29.542L264.835 29.408C264.701 29.14 264.701 29.006 264.567 28.872C264.567 28.872 264.567 28.738 264.433 28.738C264.299 28.47 264.299 28.47 264.165 28.336C264.031 28.336 264.031 28.336 264.031 28.202C263.897 28.068 263.763 27.8 263.629 27.8C263.629 27.8 263.629 27.8 263.495 27.8C263.361 27.666 263.227 27.532 263.093 27.398H262.959C262.825 27.398 262.825 27.264 262.691 27.264C262.557 27.264 262.557 26.996 262.423 26.996C262.289 26.996 262.289 26.862 262.155 26.728C262.021 26.728 262.021 26.594 262.021 26.594C261.887 26.594 261.887 26.594 261.887 26.594C261.753 26.594 261.753 26.594 261.753 26.594C261.619 26.46 261.485 26.326 261.217 26.326H261.083C260.949 26.326 260.949 26.326 260.949 26.326C260.815 26.192 260.547 26.192 260.279 26.058H260.145C260.011 26.058 260.011 26.058 260.011 26.058C259.877 25.924 259.743 25.924 259.475 25.924C259.341 25.924 259.341 25.924 259.341 25.924C259.207 25.924 259.207 25.924 259.207 25.924C259.073 25.924 258.939 25.924 258.671 25.924C258.537 25.924 258.537 25.924 258.537 25.924C258.403 25.924 258.403 25.924 258.403 25.924C258.269 25.924 258.135 25.924 257.867 25.924C257.733 25.924 257.733 25.924 257.733 25.924C257.599 25.924 257.599 25.924 257.599 25.924H254.651C254.651 25.924 254.517 25.924 254.517 25.79C254.383 25.79 254.383 25.656 254.383 25.522C254.249 25.388 254.249 25.254 254.115 25.12C253.981 25.12 253.981 24.986 253.981 24.852C253.847 24.718 253.847 24.584 253.713 24.45C253.579 24.45 253.579 24.316 253.579 24.316C253.445 24.048 253.311 23.914 253.043 23.78H252.909C252.775 23.646 252.641 23.512 252.373 23.378C252.239 23.378 252.239 23.378 252.239 23.244C252.105 23.244 251.971 22.976 251.837 22.976C251.703 22.976 251.703 22.976 251.703 22.976H251.569C251.435 22.976 251.435 22.976 251.435 22.842C251.301 22.842 251.301 22.708 251.167 22.708C251.033 22.708 251.033 22.708 250.899 22.574C250.765 22.574 250.765 22.574 250.765 22.574H250.631C250.363 22.44 250.095 22.306 249.827 22.306H249.693C249.559 22.306 249.157 22.172 248.889 22.038C248.755 22.038 248.755 22.038 248.755 22.038H248.621C248.353 22.038 248.085 21.904 247.817 21.904C247.683 21.904 247.549 21.904 247.281 21.904C247.147 21.904 247.147 21.904 247.147 21.904C247.147 21.904 247.013 21.904 246.879 21.904C246.745 21.904 246.745 21.904 246.611 21.904H242.993C243.127 21.904 243.261 21.904 243.529 21.904C243.663 21.904 243.663 21.904 243.663 21.904C243.797 21.904 244.065 21.904 244.199 21.904C244.467 21.904 244.735 21.904 245.003 22.038C245.137 22.038 245.137 22.038 245.137 22.038C245.405 22.038 245.673 22.172 245.941 22.306H246.075C246.343 22.44 246.611 22.574 246.879 22.574C247.013 22.574 247.013 22.574 247.013 22.708C247.147 22.708 247.147 22.708 247.281 22.842C247.415 22.842 247.415 22.976 247.549 22.976C247.683 22.976 247.683 22.976 247.683 23.11C247.817 23.11 247.817 23.11 247.817 23.244C247.951 23.244 248.085 23.512 248.219 23.512C248.353 23.512 248.353 23.512 248.353 23.646C248.487 23.78 248.621 23.914 248.889 24.048H249.023C249.157 24.182 249.291 24.45 249.559 24.584C249.693 24.584 249.693 24.718 249.693 24.718C249.827 24.852 249.827 24.986 249.961 25.12C250.095 25.12 250.095 25.254 250.095 25.388C250.229 25.522 250.229 25.656 250.363 25.79C250.497 25.79 250.497 25.924 250.497 26.058C250.631 26.192 250.765 26.46 250.765 26.728H254.383C254.249 26.594 254.249 26.46 254.115 26.326C254.249 26.326 254.383 26.326 254.517 26.326C254.651 26.326 254.651 26.326 254.785 26.326C254.919 26.326 255.053 26.326 255.321 26.326C255.589 26.326 255.455 26.326 255.589 26.326C255.723 26.326 255.857 26.326 256.125 26.46C256.259 26.46 256.259 26.594 256.393 26.594C256.527 26.594 256.929 26.862 257.063 26.862C257.197 26.862 257.197 26.862 257.197 26.862H257.331C257.465 26.862 257.599 27.13 257.867 27.13C258.001 27.13 258.001 27.13 258.001 27.13C258.135 27.13 258.269 27.264 258.269 27.398C258.403 27.398 258.403 27.532 258.537 27.666C258.671 27.666 258.671 27.934 258.805 27.934C258.939 27.934 258.939 28.068 259.073 28.068C259.207 28.202 259.341 28.336 259.609 28.604C259.609 28.604 259.609 28.604 259.743 28.604C259.877 28.738 260.011 28.872 260.145 29.006C260.279 29.006 260.279 29.006 260.279 29.14C260.413 29.274 260.547 29.408 260.547 29.542C260.547 29.542 260.547 29.676 260.681 29.676C260.815 29.944 260.815 30.078 260.949 30.212L261.083 30.346C261.217 30.48 261.217 30.614 261.351 30.882C261.351 30.882 261.485 30.882 261.485 31.016C261.619 31.284 261.619 31.418 261.619 31.552L261.753 31.82C261.887 31.954 261.887 32.088 261.887 32.222C261.887 32.356 262.021 32.49 262.021 32.624C262.155 32.758 262.155 33.026 262.155 33.16C262.423 33.16 262.691 33.16 262.959 33.16C262.959 33.16 262.959 33.16 263.093 33.16C263.361 33.16 263.629 33.16 263.897 33.294C264.031 33.294 264.031 33.294 264.165 33.294C264.299 33.294 264.433 33.294 264.701 33.428C264.835 33.428 264.835 33.428 264.969 33.428C265.103 33.562 265.237 33.562 265.505 33.696C265.639 33.696 265.773 33.964 266.041 33.964C266.175 34.098 266.309 34.232 266.577 34.366C266.711 34.366 266.711 34.5 266.845 34.634C266.979 34.634 266.979 34.768 267.113 34.902C267.247 34.902 267.247 35.036 267.247 35.17C267.381 35.304 267.381 35.438 267.515 35.438H267.649C267.783 35.572 267.917 35.84 268.051 35.974C268.051 35.974 268.185 35.974 268.185 36.108C268.319 36.242 268.319 36.376 268.453 36.51C268.453 36.51 268.587 36.51 268.587 36.644C268.721 36.778 268.721 36.912 268.855 37.18C268.855 37.18 268.989 37.18 268.989 37.314C269.123 37.448 269.123 37.582 269.257 37.85C269.257 37.85 269.257 37.85 269.391 37.984C269.525 38.118 269.525 38.386 269.525 38.654C269.525 38.654 269.659 38.788 269.659 38.922C269.793 39.056 269.793 39.19 269.793 39.324L269.927 39.592C269.927 39.86 270.061 39.994 270.061 40.128C270.061 40.128 270.061 40.128 270.061 40.262C270.061 40.53 270.195 40.798 270.195 40.932C270.195 41.2 270.195 41.468 270.061 41.602C270.061 41.87 269.927 42.004 269.927 42.138C269.927 42.138 269.927 42.272 269.793 42.406C269.659 42.674 269.659 42.942 269.659 43.21C269.525 43.478 269.525 43.612 269.391 43.88C269.391 43.88 269.257 44.014 269.257 44.148C269.123 44.282 269.123 44.55 268.989 44.818C268.855 44.952 268.855 45.086 268.721 45.22C268.721 45.22 268.587 45.22 268.587 45.354C268.453 45.622 268.319 45.756 268.185 45.89H268.051C267.917 46.158 267.783 46.158 267.515 46.426C267.381 46.56 267.247 46.694 266.979 46.828H266.845C266.711 46.962 266.577 47.096 266.309 47.23C266.175 47.23 266.175 47.23 266.175 47.23C266.041 47.364 265.907 47.498 265.639 47.498H265.505C265.371 47.632 265.103 47.766 264.969 47.766C264.835 47.766 264.567 48.034 264.299 48.034H264.165C264.031 48.034 263.763 48.168 263.495 48.302C263.361 48.302 263.361 48.302 263.361 48.302C263.227 48.302 262.825 48.302 262.691 48.436C262.557 48.436 262.557 48.436 262.557 48.436C262.289 48.436 262.021 48.436 261.753 48.436H265.371C265.639 48.436 265.907 48.436 266.175 48.436C266.309 48.436 266.309 48.436 266.309 48.436C266.443 48.436 266.845 48.436 266.979 48.302C267.113 48.302 267.113 48.302 267.113 48.302C267.247 48.302 267.515 48.168 267.783 48.034H267.917C268.051 48.034 268.453 47.9 268.587 47.766C268.721 47.766 268.989 47.498 269.123 47.498H269.257C269.391 47.364 269.659 47.23 269.793 47.23C269.927 47.23 269.927 47.23 269.927 47.23C270.061 47.096 270.195 46.962 270.463 46.828H270.597C270.731 46.694 270.865 46.56 271.133 46.426C271.267 46.292 271.401 46.158 271.669 45.89H271.803C271.803 45.89 271.803 45.89 271.937 45.89C272.071 45.756 272.205 45.622 272.205 45.488C272.205 45.488 272.339 45.488 272.339 45.354C272.473 45.22 272.473 45.086 272.473 45.086C272.473 45.086 272.473 45.086 272.607 45.086C272.741 44.818 272.741 44.684 272.875 44.416C272.875 44.416 273.009 44.416 273.009 44.282C273.009 44.282 273.009 44.282 273.009 44.148C273.143 43.88 273.143 43.746 273.277 43.478C273.411 43.21 273.411 42.942 273.411 42.674C273.411 42.674 273.411 42.54 273.545 42.406C274.215 41.334 274.215 41.2 274.215 40.932Z" fill="#1A2E35"/>
<path d="M244.066 20.43C247.55 20.43 250.498 22.44 251.972 25.388C252.776 24.986 253.848 24.852 254.786 24.852C259.074 24.852 262.692 28.202 263.094 32.356C267.248 32.49 270.598 35.974 270.598 40.128C270.598 44.55 267.114 48.034 262.826 48.034H234.016C228.12 48.034 223.43 43.21 223.43 37.314C223.43 31.418 228.254 26.594 234.016 26.594C234.552 26.594 235.088 26.594 235.49 26.728C236.696 23.11 240.046 20.43 244.066 20.43Z" fill="#0064B7"/>
<path d="M220.08 39.458C219.946 39.458 219.812 39.458 219.544 39.324C219.41 39.19 219.41 39.056 219.41 38.788C219.41 38.654 219.544 38.52 219.544 38.386C219.812 38.118 220.214 38.118 220.482 38.386C220.616 38.52 220.616 38.654 220.616 38.788C220.616 39.056 220.482 39.19 220.482 39.324C220.348 39.458 220.214 39.458 220.08 39.458Z" fill="#007CFF"/>
<path d="M59.1465 99.088C59.1465 98.686 59.4145 98.418 59.8165 98.418C60.2185 98.418 60.4865 98.686 60.4865 99.088C60.4865 99.49 60.2185 99.758 59.8165 99.758C59.4145 99.892 59.1465 99.624 59.1465 99.088ZM59.1465 96.408C59.1465 96.006 59.4145 95.738 59.8165 95.738C60.2185 95.738 60.4865 96.006 60.4865 96.408C60.4865 96.81 60.2185 97.078 59.8165 97.078C59.4145 97.212 59.1465 96.944 59.1465 96.408ZM59.1465 93.728C59.1465 93.326 59.4145 93.058 59.8165 93.058C60.2185 93.058 60.4865 93.326 60.4865 93.728C60.4865 94.13 60.2185 94.398 59.8165 94.398C59.4145 94.532 59.1465 94.264 59.1465 93.728ZM59.1465 91.048C59.1465 90.646 59.4145 90.378 59.8165 90.378C60.2185 90.378 60.4865 90.646 60.4865 91.048C60.4865 91.45 60.2185 91.718 59.8165 91.718C59.4145 91.852 59.1465 91.45 59.1465 91.048ZM59.1465 88.368C59.1465 87.966 59.4145 87.698 59.8165 87.698C60.2185 87.698 60.4865 87.966 60.4865 88.368C60.4865 88.77 60.2185 89.038 59.8165 89.038C59.4145 89.172 59.1465 88.77 59.1465 88.368ZM59.1465 85.688C59.1465 85.286 59.4145 85.018 59.8165 85.018C60.2185 85.018 60.4865 85.286 60.4865 85.688C60.4865 86.09 60.2185 86.358 59.8165 86.358C59.4145 86.358 59.1465 86.09 59.1465 85.688ZM59.1465 83.008C59.1465 82.606 59.4145 82.338 59.8165 82.338C60.2185 82.338 60.4865 82.606 60.4865 83.008C60.4865 83.41 60.2185 83.678 59.8165 83.678C59.4145 83.678 59.1465 83.41 59.1465 83.008ZM59.1465 80.328C59.1465 79.926 59.4145 79.658 59.8165 79.658C60.2185 79.658 60.4865 79.926 60.4865 80.328C60.4865 80.73 60.2185 80.998 59.8165 80.998C59.4145 80.998 59.1465 80.73 59.1465 80.328ZM59.1465 77.648C59.1465 77.246 59.4145 76.978 59.8165 76.978C60.2185 76.978 60.4865 77.246 60.4865 77.648C60.4865 78.05 60.2185 78.318 59.8165 78.318C59.4145 78.318 59.1465 78.05 59.1465 77.648ZM59.1465 74.968C59.1465 74.566 59.4145 74.298 59.8165 74.298C60.2185 74.298 60.4865 74.566 60.4865 74.968C60.4865 75.37 60.2185 75.638 59.8165 75.638C59.4145 75.638 59.1465 75.37 59.1465 74.968ZM59.1465 72.288C59.1465 71.886 59.4145 71.618 59.8165 71.618C60.2185 71.618 60.4865 71.886 60.4865 72.288C60.4865 72.69 60.2185 72.958 59.8165 72.958C59.4145 72.958 59.1465 72.69 59.1465 72.288ZM59.1465 69.608C59.1465 69.206 59.4145 68.938 59.8165 68.938C60.2185 68.938 60.4865 69.206 60.4865 69.608C60.4865 70.01 60.2185 70.278 59.8165 70.278C59.4145 70.278 59.1465 70.01 59.1465 69.608ZM59.1465 66.928C59.1465 66.526 59.4145 66.258 59.8165 66.258C60.2185 66.258 60.4865 66.526 60.4865 66.928C60.4865 67.33 60.2185 67.598 59.8165 67.598C59.4145 67.598 59.1465 67.33 59.1465 66.928ZM59.1465 64.248C59.1465 63.846 59.4145 63.578 59.8165 63.578C60.2185 63.578 60.4865 63.846 60.4865 64.248C60.4865 64.65 60.2185 64.918 59.8165 64.918C59.4145 64.918 59.1465 64.516 59.1465 64.248ZM59.1465 61.568C59.1465 61.166 59.4145 60.898 59.8165 60.898C60.2185 60.898 60.4865 61.166 60.4865 61.568C60.4865 61.97 60.2185 62.238 59.8165 62.238C59.4145 62.238 59.1465 61.836 59.1465 61.568ZM59.1465 58.754C59.1465 58.352 59.4145 58.084 59.8165 58.084C60.2185 58.084 60.4865 58.352 60.4865 58.754C60.4865 59.156 60.2185 59.424 59.8165 59.424C59.4145 59.424 59.1465 59.156 59.1465 58.754ZM59.1465 56.074C59.1465 55.672 59.4145 55.404 59.8165 55.404C60.2185 55.404 60.4865 55.672 60.4865 56.074C60.4865 56.476 60.2185 56.744 59.8165 56.744C59.4145 56.744 59.1465 56.476 59.1465 56.074ZM59.1465 53.394C59.1465 52.992 59.4145 52.724 59.8165 52.724C60.2185 52.724 60.4865 52.992 60.4865 53.394C60.4865 53.796 60.2185 54.064 59.8165 54.064C59.4145 54.064 59.1465 53.796 59.1465 53.394ZM59.8165 51.384C59.4145 51.384 59.1465 51.116 59.1465 50.714C59.1465 50.312 59.4145 50.044 59.8165 50.044C60.2185 50.044 60.4865 50.312 60.4865 50.714C60.4865 51.116 60.2185 51.384 59.8165 51.384ZM59.9505 48.704C59.6825 48.704 59.2805 48.302 59.5485 47.9C59.5485 47.632 59.9505 47.23 60.3525 47.498C60.6205 47.498 61.0225 47.9 60.7545 48.302C60.7545 48.57 60.4865 48.838 59.9505 48.704ZM60.7545 46.158C60.4865 46.024 60.3525 45.622 60.4865 45.22C60.6205 44.952 61.0225 44.818 61.4245 44.952C61.6925 45.086 61.8265 45.488 61.6925 45.89C61.5585 46.158 61.4245 46.292 61.0225 46.292C60.8885 46.158 60.8885 46.158 60.7545 46.158ZM62.0945 43.746C61.8265 43.612 61.8265 43.076 62.0945 42.808C62.3625 42.54 62.7645 42.406 63.0325 42.808C63.3005 42.942 63.3005 43.478 63.0325 43.746C62.8985 43.88 62.7645 44.014 62.4965 44.014C62.3625 44.014 62.2285 43.88 62.0945 43.746ZM63.9705 41.87C63.7025 41.602 63.7025 41.2 64.1045 40.932C64.3725 40.798 64.7745 40.798 65.0425 41.066C65.3105 41.334 65.3105 41.736 64.9085 42.004C64.7745 42.004 64.6405 42.138 64.5065 42.138C64.2385 42.004 63.9705 42.004 63.9705 41.87ZM66.1145 40.262C65.9805 39.994 66.1145 39.592 66.3825 39.458C66.6505 39.324 67.0525 39.458 67.3205 39.726C67.4545 39.994 67.3205 40.396 67.0525 40.664H66.7845C66.3825 40.664 66.2485 40.53 66.1145 40.262ZM68.6605 39.19C68.6605 38.788 68.7945 38.52 69.1965 38.386C69.4645 38.252 69.8665 38.52 70.0005 38.922C70.0005 39.324 69.8665 39.592 69.4645 39.726C69.4645 39.726 69.4645 39.726 69.3305 39.726C68.9285 39.726 68.6605 39.592 68.6605 39.19ZM216.73 38.788C216.73 38.386 216.998 38.118 217.4 38.118C217.802 38.118 218.07 38.386 218.07 38.788C218.07 39.19 217.802 39.458 217.4 39.458C216.998 39.458 216.73 39.19 216.73 38.788ZM214.05 38.788C214.05 38.386 214.318 38.118 214.72 38.118C215.122 38.118 215.39 38.386 215.39 38.788C215.39 39.19 215.122 39.458 214.72 39.458C214.318 39.458 214.05 39.19 214.05 38.788ZM211.236 38.788C211.236 38.386 211.504 38.118 211.906 38.118C212.308 38.118 212.576 38.386 212.576 38.788C212.576 39.19 212.308 39.458 211.906 39.458C211.638 39.458 211.236 39.19 211.236 38.788ZM208.556 38.788C208.556 38.386 208.824 38.118 209.226 38.118C209.628 38.118 209.896 38.386 209.896 38.788C209.896 39.19 209.628 39.458 209.226 39.458C208.958 39.458 208.556 39.19 208.556 38.788ZM205.876 38.788C205.876 38.386 206.144 38.118 206.546 38.118C206.948 38.118 207.216 38.386 207.216 38.788C207.216 39.19 206.948 39.458 206.546 39.458C206.144 39.458 205.876 39.19 205.876 38.788ZM203.196 38.788C203.196 38.386 203.464 38.118 203.866 38.118C204.268 38.118 204.536 38.386 204.536 38.788C204.536 39.19 204.268 39.458 203.866 39.458C203.464 39.458 203.196 39.19 203.196 38.788ZM200.516 38.788C200.516 38.386 200.784 38.118 201.186 38.118C201.588 38.118 201.856 38.386 201.856 38.788C201.856 39.19 201.588 39.458 201.186 39.458C200.784 39.458 200.516 39.19 200.516 38.788ZM197.836 38.788C197.836 38.386 198.104 38.118 198.506 38.118C198.908 38.118 199.176 38.386 199.176 38.788C199.176 39.19 198.908 39.458 198.506 39.458C198.104 39.458 197.836 39.19 197.836 38.788ZM195.156 38.788C195.156 38.386 195.424 38.118 195.826 38.118C196.228 38.118 196.496 38.386 196.496 38.788C196.496 39.19 196.228 39.458 195.826 39.458C195.424 39.458 195.156 39.19 195.156 38.788ZM192.476 38.788C192.476 38.386 192.744 38.118 193.146 38.118C193.548 38.118 193.816 38.386 193.816 38.788C193.816 39.19 193.548 39.458 193.146 39.458C192.744 39.458 192.476 39.19 192.476 38.788ZM189.796 38.788C189.796 38.386 190.064 38.118 190.466 38.118C190.868 38.118 191.136 38.386 191.136 38.788C191.136 39.19 190.868 39.458 190.466 39.458C190.064 39.458 189.796 39.19 189.796 38.788ZM187.116 38.788C187.116 38.386 187.384 38.118 187.786 38.118C188.188 38.118 188.456 38.386 188.456 38.788C188.456 39.19 188.188 39.458 187.786 39.458C187.384 39.458 187.116 39.19 187.116 38.788ZM184.436 38.788C184.436 38.386 184.704 38.118 185.106 38.118C185.508 38.118 185.776 38.386 185.776 38.788C185.776 39.19 185.508 39.458 185.106 39.458C184.704 39.458 184.436 39.19 184.436 38.788ZM181.756 38.788C181.756 38.386 182.024 38.118 182.426 38.118C182.828 38.118 183.096 38.386 183.096 38.788C183.096 39.19 182.828 39.458 182.426 39.458C182.024 39.458 181.756 39.19 181.756 38.788ZM179.076 38.788C179.076 38.386 179.344 38.118 179.746 38.118C180.148 38.118 180.416 38.386 180.416 38.788C180.416 39.19 180.148 39.458 179.746 39.458C179.344 39.458 179.076 39.19 179.076 38.788ZM176.396 38.788C176.396 38.386 176.664 38.118 177.066 38.118C177.468 38.118 177.736 38.386 177.736 38.788C177.736 39.19 177.468 39.458 177.066 39.458C176.664 39.458 176.396 39.19 176.396 38.788ZM173.582 38.788C173.582 38.386 173.85 38.118 174.252 38.118C174.654 38.118 174.922 38.386 174.922 38.788C174.922 39.19 174.654 39.458 174.252 39.458C173.984 39.458 173.582 39.19 173.582 38.788ZM170.902 38.788C170.902 38.386 171.17 38.118 171.572 38.118C171.974 38.118 172.242 38.386 172.242 38.788C172.242 39.19 171.974 39.458 171.572 39.458C171.304 39.458 170.902 39.19 170.902 38.788ZM168.222 38.788C168.222 38.386 168.49 38.118 168.892 38.118C169.294 38.118 169.562 38.386 169.562 38.788C169.562 39.19 169.294 39.458 168.892 39.458C168.624 39.458 168.222 39.19 168.222 38.788ZM165.542 38.788C165.542 38.386 165.81 38.118 166.212 38.118C166.614 38.118 166.882 38.386 166.882 38.788C166.882 39.19 166.614 39.458 166.212 39.458C165.81 39.458 165.542 39.19 165.542 38.788ZM162.862 38.788C162.862 38.386 163.13 38.118 163.532 38.118C163.934 38.118 164.202 38.386 164.202 38.788C164.202 39.19 163.934 39.458 163.532 39.458C163.13 39.458 162.862 39.19 162.862 38.788ZM160.048 38.788C160.048 38.386 160.316 38.118 160.718 38.118C161.12 38.118 161.388 38.386 161.388 38.788C161.388 39.19 161.12 39.458 160.718 39.458C160.45 39.458 160.048 39.19 160.048 38.788ZM157.368 38.788C157.368 38.386 157.636 38.118 158.038 38.118C158.44 38.118 158.708 38.386 158.708 38.788C158.708 39.19 158.44 39.458 158.038 39.458C157.77 39.458 157.368 39.19 157.368 38.788ZM154.688 38.788C154.688 38.386 154.956 38.118 155.358 38.118C155.76 38.118 156.028 38.386 156.028 38.788C156.028 39.19 155.76 39.458 155.358 39.458C155.09 39.458 154.688 39.19 154.688 38.788ZM152.008 38.788C152.008 38.386 152.276 38.118 152.678 38.118C153.08 38.118 153.348 38.386 153.348 38.788C153.348 39.19 153.08 39.458 152.678 39.458C152.276 39.458 152.008 39.19 152.008 38.788ZM149.328 38.788C149.328 38.386 149.596 38.118 149.998 38.118C150.4 38.118 150.668 38.386 150.668 38.788C150.668 39.19 150.4 39.458 149.998 39.458C149.596 39.458 149.328 39.19 149.328 38.788ZM146.648 38.788C146.648 38.386 146.916 38.118 147.318 38.118C147.72 38.118 147.988 38.386 147.988 38.788C147.988 39.19 147.72 39.458 147.318 39.458C146.916 39.458 146.648 39.19 146.648 38.788ZM143.968 38.788C143.968 38.386 144.236 38.118 144.638 38.118C145.04 38.118 145.308 38.386 145.308 38.788C145.308 39.19 145.04 39.458 144.638 39.458C144.236 39.458 143.968 39.19 143.968 38.788ZM141.288 38.788C141.288 38.386 141.556 38.118 141.958 38.118C142.36 38.118 142.628 38.386 142.628 38.788C142.628 39.19 142.36 39.458 141.958 39.458C141.556 39.458 141.288 39.19 141.288 38.788ZM138.608 38.788C138.608 38.386 138.876 38.118 139.278 38.118C139.68 38.118 139.948 38.386 139.948 38.788C139.948 39.19 139.68 39.458 139.278 39.458C138.876 39.458 138.608 39.19 138.608 38.788ZM135.928 38.788C135.928 38.386 136.196 38.118 136.598 38.118C137 38.118 137.268 38.386 137.268 38.788C137.268 39.19 137 39.458 136.598 39.458C136.196 39.458 135.928 39.19 135.928 38.788ZM133.248 38.788C133.248 38.386 133.516 38.118 133.918 38.118C134.32 38.118 134.588 38.386 134.588 38.788C134.588 39.19 134.32 39.458 133.918 39.458C133.516 39.458 133.248 39.19 133.248 38.788ZM130.568 38.788C130.568 38.386 130.836 38.118 131.238 38.118C131.64 38.118 131.908 38.386 131.908 38.788C131.908 39.19 131.64 39.458 131.238 39.458C130.836 39.458 130.568 39.19 130.568 38.788ZM127.888 38.788C127.888 38.386 128.156 38.118 128.558 38.118C128.96 38.118 129.228 38.386 129.228 38.788C129.228 39.19 128.96 39.458 128.558 39.458C128.022 39.458 127.888 39.19 127.888 38.788ZM125.208 38.788C125.208 38.386 125.476 38.118 125.878 38.118C126.28 38.118 126.548 38.386 126.548 38.788C126.548 39.19 126.28 39.458 125.878 39.458C125.342 39.458 125.208 39.19 125.208 38.788ZM122.528 38.788C122.528 38.386 122.796 38.118 123.198 38.118C123.6 38.118 123.868 38.386 123.868 38.788C123.868 39.19 123.6 39.458 123.198 39.458C122.662 39.458 122.528 39.19 122.528 38.788ZM119.714 38.788C119.714 38.386 119.982 38.118 120.384 38.118C120.786 38.118 121.054 38.386 121.054 38.788C121.054 39.19 120.786 39.458 120.384 39.458C119.982 39.458 119.714 39.19 119.714 38.788ZM117.034 38.788C117.034 38.386 117.302 38.118 117.704 38.118C118.106 38.118 118.374 38.386 118.374 38.788C118.374 39.19 118.106 39.458 117.704 39.458C117.302 39.458 117.034 39.19 117.034 38.788ZM114.354 38.788C114.354 38.386 114.622 38.118 115.024 38.118C115.426 38.118 115.694 38.386 115.694 38.788C115.694 39.19 115.426 39.458 115.024 39.458C114.622 39.458 114.354 39.19 114.354 38.788ZM111.674 38.788C111.674 38.386 111.942 38.118 112.344 38.118C112.746 38.118 113.014 38.386 113.014 38.788C113.014 39.19 112.746 39.458 112.344 39.458C111.942 39.458 111.674 39.19 111.674 38.788ZM108.994 38.788C108.994 38.386 109.262 38.118 109.664 38.118C110.066 38.118 110.334 38.386 110.334 38.788C110.334 39.19 110.066 39.458 109.664 39.458C109.262 39.458 108.994 39.19 108.994 38.788ZM106.314 38.788C106.314 38.386 106.582 38.118 106.984 38.118C107.386 38.118 107.654 38.386 107.654 38.788C107.654 39.19 107.386 39.458 106.984 39.458C106.582 39.458 106.314 39.19 106.314 38.788ZM103.634 38.788C103.634 38.386 103.902 38.118 104.304 38.118C104.706 38.118 104.974 38.386 104.974 38.788C104.974 39.19 104.706 39.458 104.304 39.458C103.902 39.458 103.634 39.19 103.634 38.788ZM100.954 38.788C100.954 38.386 101.222 38.118 101.624 38.118C102.026 38.118 102.294 38.386 102.294 38.788C102.294 39.19 102.026 39.458 101.624 39.458C101.088 39.458 100.954 39.19 100.954 38.788ZM98.2745 38.788C98.2745 38.386 98.5425 38.118 98.9445 38.118C99.3465 38.118 99.6145 38.386 99.6145 38.788C99.6145 39.19 99.3465 39.458 98.9445 39.458C98.4085 39.458 98.2745 39.19 98.2745 38.788ZM95.5945 38.788C95.5945 38.386 95.8625 38.118 96.2645 38.118C96.6665 38.118 96.9345 38.386 96.9345 38.788C96.9345 39.19 96.6665 39.458 96.2645 39.458C95.7285 39.458 95.5945 39.19 95.5945 38.788ZM92.7805 38.788C92.7805 38.386 93.0485 38.118 93.4505 38.118C93.8525 38.118 94.1205 38.386 94.1205 38.788C94.1205 39.19 93.8525 39.458 93.4505 39.458C93.0485 39.458 92.7805 39.19 92.7805 38.788ZM90.1005 38.788C90.1005 38.386 90.3685 38.118 90.7705 38.118C91.1725 38.118 91.4405 38.386 91.4405 38.788C91.4405 39.19 91.1725 39.458 90.7705 39.458C90.3685 39.458 90.1005 39.19 90.1005 38.788ZM87.4205 38.788C87.4205 38.386 87.6885 38.118 88.0905 38.118C88.4925 38.118 88.7605 38.386 88.7605 38.788C88.7605 39.19 88.4925 39.458 88.0905 39.458C87.6885 39.458 87.4205 39.19 87.4205 38.788ZM84.7405 38.788C84.7405 38.386 85.0085 38.118 85.4105 38.118C85.8125 38.118 86.0805 38.386 86.0805 38.788C86.0805 39.19 85.8125 39.458 85.4105 39.458C85.0085 39.458 84.7405 39.19 84.7405 38.788ZM82.0605 38.788C82.0605 38.386 82.3285 38.118 82.7305 38.118C83.1325 38.118 83.4005 38.386 83.4005 38.788C83.4005 39.19 83.1325 39.458 82.7305 39.458C82.3285 39.458 82.0605 39.19 82.0605 38.788ZM79.3805 38.788C79.3805 38.386 79.6485 38.118 80.0505 38.118C80.4525 38.118 80.7205 38.386 80.7205 38.788C80.7205 39.19 80.4525 39.458 80.0505 39.458C79.6485 39.458 79.3805 39.19 79.3805 38.788ZM76.7005 38.788C76.7005 38.386 76.9685 38.118 77.3705 38.118C77.7725 38.118 78.0405 38.386 78.0405 38.788C78.0405 39.19 77.7725 39.458 77.3705 39.458C76.9685 39.458 76.7005 39.19 76.7005 38.788ZM74.0205 38.788C74.0205 38.386 74.2885 38.118 74.6905 38.118C75.0925 38.118 75.3605 38.386 75.3605 38.788C75.3605 39.19 75.0925 39.458 74.6905 39.458C74.2885 39.458 74.0205 39.19 74.0205 38.788ZM71.3405 38.788C71.3405 38.386 71.6085 38.118 72.0105 38.118C72.4125 38.118 72.6805 38.386 72.6805 38.788C72.6805 39.19 72.4125 39.458 72.0105 39.458C71.6085 39.458 71.3405 39.19 71.3405 38.788Z" fill="#007CFF"/>
<path d="M59.8165 102.572C59.5485 102.572 59.5485 102.438 59.4145 102.304C59.2805 102.17 59.1465 102.036 59.1465 101.902C59.1465 101.768 59.1465 101.634 59.4145 101.5C59.6825 101.232 60.0845 101.232 60.3525 101.5C60.4865 101.634 60.6205 101.768 60.6205 101.902C60.6205 102.036 60.6205 102.17 60.3525 102.304C60.0845 102.438 59.9505 102.572 59.8165 102.572Z" fill="#007CFF"/>
<path d="M247.952 59.692C247.818 59.692 247.684 59.558 247.416 59.424C247.148 59.29 247.282 59.156 247.282 59.022C247.282 58.888 247.416 58.754 247.416 58.62C247.684 58.352 248.086 58.352 248.354 58.62C248.488 58.754 248.488 58.888 248.488 59.022C248.488 59.156 248.354 59.29 248.354 59.424C248.354 59.558 248.086 59.692 247.952 59.692Z" fill="#007CFF"/>
<path d="M247.281 56.476C247.281 56.074 247.549 55.806 247.951 55.806C248.353 55.806 248.621 56.074 248.621 56.476C248.621 56.878 248.353 57.146 247.951 57.146C247.549 57.146 247.281 56.878 247.281 56.476ZM247.281 53.93C247.281 53.528 247.549 53.26 247.951 53.26C248.353 53.26 248.621 53.528 248.621 53.93C248.621 54.332 248.353 54.6 247.951 54.6C247.549 54.6 247.281 54.332 247.281 53.93Z" fill="#007CFF"/>
<path d="M247.951 52.054C247.817 52.054 247.683 52.054 247.415 51.786C247.281 51.652 247.281 51.518 247.281 51.384C247.281 51.116 247.415 51.116 247.415 50.982C247.683 50.714 248.085 50.714 248.353 50.982C248.487 51.116 248.487 51.25 248.487 51.384C248.487 51.652 248.353 51.652 248.353 51.786C248.353 51.92 248.085 52.054 247.951 52.054Z" fill="#007CFF"/>
<path d="M276.762 117.982C278.102 120.126 279.174 122.404 280.38 124.548C281.586 126.826 282.524 128.97 283.462 131.382C283.73 131.918 283.998 132.588 284.132 133.258L284.266 133.794L284.4 134.062L284.534 134.33L284.668 134.598C284.802 135 284.802 135.402 284.668 136.072C284.534 136.608 284.132 137.412 283.596 137.68C283.06 138.082 282.658 138.216 282.256 138.35C281.854 138.484 281.586 138.484 281.318 138.618C280.782 138.752 280.38 138.618 279.978 138.484C279.308 138.35 278.504 138.216 277.834 138.082C275.422 137.278 273.01 136.34 270.866 135.134L271.804 132.722C274.082 133.258 276.494 133.66 278.772 134.062C279.308 134.196 279.844 134.196 280.246 134.196C280.514 134.196 280.782 134.196 280.782 134.062C280.916 134.062 280.916 133.928 280.782 134.062C280.648 134.062 280.514 134.196 280.246 134.33C279.978 134.598 279.71 134.866 279.71 135.268C279.576 135.536 279.71 135.804 279.71 135.804C279.71 135.804 279.71 135.804 279.71 135.938V135.804L279.576 135.536L279.442 135.134C279.308 134.598 278.906 134.062 278.772 133.66C277.834 131.516 276.628 129.372 275.556 127.362C274.484 125.352 273.278 123.074 272.072 121.064L276.762 117.982Z" fill="#FFBE9B"/>
<path d="M275.423 115.436C278.773 116.24 284.401 132.588 284.401 132.588L279.041 134.464C279.041 134.464 273.547 126.29 271.671 122.27C269.527 117.982 272.073 114.498 275.423 115.436Z" fill="#0054A3"/>
<path opacity="0.3" d="M275.423 115.436C278.773 116.24 284.401 132.588 284.401 132.588L279.041 134.464C279.041 134.464 273.547 126.29 271.671 122.27C269.527 117.982 272.073 114.498 275.423 115.436Z" fill="#0054A3"/>
<path d="M278.504 133.258C279.576 132.856 281.988 131.918 283.864 131.784C284.132 131.65 284.4 131.918 284.534 132.186C284.936 133.124 285.204 134.598 284.936 135.268C284.534 135.938 279.576 136.742 278.906 136.608C278.37 136.34 278.102 135.134 277.834 134.196C277.968 133.794 278.102 133.392 278.504 133.258Z" fill="#0054A3"/>
<path d="M260.816 108.736C261.888 111.416 262.424 115.302 258.002 116.508C258.002 116.508 253.848 119.59 262.022 118.786C269.392 117.982 270.196 114.364 270.196 114.364C267.248 112.22 268.186 107.396 267.918 103.376L260.816 108.736Z" fill="#FFBE9B"/>
<path d="M254.25 93.862C250.096 97.212 251.838 104.18 254.518 107.932C257.6 112.086 264.568 112.086 266.98 107.396C268.722 104.314 267.65 101.5 266.176 96.944C264.836 92.388 258.538 90.512 254.25 93.862Z" fill="#FFBE9B"/>
<path d="M270.196 95.47C272.072 98.82 270.196 103.242 269.794 104.582C269.526 105.922 270.866 105.52 270.464 107.262C270.062 109.004 266.176 109.272 264.032 108.87C260.012 108.334 258.538 104.046 257.868 101.634C253.044 104.046 254.786 97.212 254.786 97.212C254.786 97.212 251.57 98.418 249.56 97.078C247.416 95.872 248.488 92.79 251.838 91.584C252.24 89.976 255.188 88.636 258.806 87.966C267.65 85.42 270.062 95.47 270.196 95.47Z" fill="#180857"/>
<path d="M257.197 99.892C255.857 100.428 256.795 102.974 257.063 104.18C257.331 105.52 257.733 105.52 258.671 104.314C259.341 103.644 259.743 102.572 259.743 101.366C259.877 100.16 258.537 99.356 257.197 99.892Z" fill="#FFBE9B"/>
<path d="M259.209 119.322C259.209 119.322 259.343 117.178 258.271 115.034C261.755 112.488 268.454 112.22 269.526 112.622C270.598 113.024 270.599 115.302 270.465 116.642L259.209 119.322Z" fill="#0054A3"/>
<path opacity="0.2" d="M271.804 125.486C273.948 128.166 275.824 130.176 275.824 130.176L276.226 129.908L271.536 121.064L271.804 125.486Z" fill="black"/>
<path d="M251.168 128.434C250.632 119.322 252.374 117.312 252.374 117.312C252.374 117.312 255.456 116.106 259.074 115.57C261.62 115.034 266.042 114.766 268.99 114.632C270.196 114.498 271.536 114.498 272.608 114.498C274.886 114.498 276.628 116.24 276.494 118.116C275.288 132.186 278.236 145.452 278.37 148.4L254.786 150.544C253.446 143.978 252.24 138.618 251.57 134.33C251.57 132.052 251.436 130.042 251.168 128.434Z" fill="#0083F9"/>
<path opacity="0.6" d="M251.168 128.434C250.632 119.322 252.374 117.312 252.374 117.312C252.374 117.312 255.456 116.106 259.074 115.57C261.62 115.034 266.042 114.766 268.99 114.632C270.196 114.498 271.536 114.498 272.608 114.498C274.886 114.498 276.628 116.24 276.494 118.116C275.288 132.186 278.236 145.452 278.37 148.4L254.786 150.544C253.446 143.978 252.24 138.618 251.57 134.33C251.57 132.052 251.436 130.042 251.168 128.434Z" fill="#0083F9"/>
<path d="M278.505 148.534C282.123 160.058 278.639 178.416 280.783 193.156C284.133 202.938 288.957 228.398 292.441 242.066L284.535 243.54C284.535 243.54 269.527 203.876 267.517 191.548C265.641 180.426 263.229 149.874 263.229 149.874L278.505 148.534Z" fill="#EE384E"/>
<path opacity="0.2" d="M267.516 190.208C266.444 183.24 265.238 171.046 264.434 161.934C264.702 161.934 264.97 161.934 265.238 161.934C270.732 163.006 268.99 180.024 267.516 190.208Z" fill="black"/>
<path d="M270.732 149.338C270.732 149.338 265.64 181.364 263.362 193.826C264.3 210.308 260.146 244.076 260.146 244.076L252.642 243.808C252.642 243.808 250.766 207.226 251.436 194.898C252.106 183.106 255.188 150.678 255.188 150.678L270.732 149.338Z" fill="#EE384E"/>
<path d="M283.864 243.942C282.658 245.55 279.308 247.56 274.886 249.57C273.814 249.972 274.618 252.384 277.164 251.848C279.576 251.312 285.204 249.972 287.08 249.704C290.162 249.168 291.904 248.9 294.316 248.498H294.45C294.986 248.23 295.254 247.694 294.986 247.292L292.842 242.2C292.708 241.798 292.574 241.664 292.306 241.798L285.07 243.272C284.534 243.54 284.132 243.808 283.864 243.942Z" fill="#170856"/>
<path d="M251.57 244.21C249.962 245.55 246.344 246.756 241.52 247.56C240.314 247.694 240.716 250.24 243.128 250.374C245.54 250.508 251.436 250.508 253.312 250.642C256.394 250.776 258.136 250.91 260.548 251.044H260.682C261.218 250.91 261.486 250.508 261.486 249.972L260.548 244.612C260.548 244.21 260.414 244.076 260.146 244.076L252.776 243.808C252.374 243.808 251.972 243.942 251.57 244.21Z" fill="#170856"/>
<path d="M242.86 121.734L240.582 122.672L241.788 126.022L243.798 124.95L242.86 121.734Z" fill="#FFC3BD"/>
<path d="M244.066 132.722L253.044 131.784C253.58 131.65 253.714 131.248 253.714 130.846L250.364 116.508C250.23 116.106 249.828 115.704 249.292 115.838L240.314 116.776C239.778 116.91 239.644 117.312 239.644 117.714L242.994 132.052C243.128 132.588 243.53 132.722 244.066 132.722Z" fill="#1A2E35"/>
<path d="M244.199 132.722L253.177 131.784C253.713 131.65 253.847 131.248 253.847 130.846L250.497 116.508C250.363 116.106 249.961 115.704 249.425 115.838L240.447 116.776C239.911 116.91 239.777 117.312 239.777 117.714L243.127 132.052C243.261 132.588 243.663 132.722 244.199 132.722Z" fill="#007CFF"/>
<path opacity="0.9" d="M243.396 131.918L253.312 130.846C253.446 130.846 253.446 130.712 253.446 130.578L250.364 116.776C250.364 116.642 250.23 116.508 250.096 116.508L240.18 117.58C240.046 117.58 240.046 117.714 240.046 117.848L243.128 131.65C243.262 131.918 243.262 131.918 243.396 131.918Z" fill="white"/>
<path d="M247.549 125.888C247.281 125.888 247.013 125.754 246.611 125.62C246.209 125.486 246.075 125.352 245.941 125.084C245.673 124.816 245.405 124.682 245.405 124.414C245.271 124.146 245.271 124.012 245.271 123.878L245.807 123.744L244.735 122.404L244.199 123.878L244.735 123.744C244.869 124.012 245.003 124.28 245.271 124.414C245.539 124.548 245.807 124.95 245.941 125.084C246.209 125.352 246.477 125.352 246.879 125.486C246.879 125.888 247.147 125.888 247.549 125.888C247.549 126.022 247.549 126.022 247.549 125.888Z" fill="#007CFF"/>
<path d="M249.023 123.878C248.889 123.61 248.755 123.342 248.487 123.208C248.219 123.074 247.951 122.672 247.817 122.538C247.683 122.404 247.281 122.27 246.879 122.136C246.611 122.002 246.209 122.002 245.941 122.136C245.941 122.136 245.941 122.136 245.941 122.27C245.941 122.27 245.941 122.404 246.075 122.404C246.343 122.404 246.611 122.538 247.013 122.672C247.415 122.806 247.549 122.94 247.683 123.208C247.817 123.476 248.219 123.61 248.219 123.878C248.353 124.146 248.353 124.28 248.353 124.414L247.817 124.548L248.889 125.888L249.425 124.414L249.023 123.878Z" fill="#007CFF"/>
<g opacity="0.3">
<path d="M242.458 117.446L241.52 124.95L242.994 131.65C242.994 131.784 243.128 131.918 243.262 131.918L244.334 131.784L245.942 117.178L242.458 117.446Z" fill="white"/>
<path d="M247.147 117.044L245.405 131.784L247.549 131.516L249.291 116.91L247.147 117.044Z" fill="white"/>
</g>
<path opacity="0.2" d="M245.807 116.642L244.333 116.91C244.199 116.91 244.199 117.044 244.199 117.044C244.199 117.178 244.333 117.178 244.333 117.178L245.807 116.91C245.941 116.91 245.941 116.776 245.807 116.642C246.075 116.642 245.941 116.642 245.807 116.642Z" fill="black"/>
<path d="M257.332 122.538C256.662 124.146 255.858 125.888 255.054 127.362C254.25 128.836 253.446 130.578 252.374 131.918C251.302 133.392 250.23 135 248.89 136.34C248.22 137.01 247.55 137.814 246.612 138.484C245.674 139.154 244.736 139.824 243.128 139.958L242.458 140.092L241.788 139.824C241.252 139.556 240.85 139.288 240.448 138.886C240.046 138.484 239.912 138.082 239.778 137.68C239.376 136.876 239.242 136.206 239.242 135.536C239.108 134.196 239.242 133.258 239.376 132.186C239.51 131.248 239.912 130.176 240.046 129.238C240.18 128.3 240.582 127.362 241.118 126.424L243.53 127.094C243.396 128.032 243.396 128.97 243.396 129.774C243.262 130.712 243.262 131.516 243.262 132.32C243.262 133.124 243.396 133.928 243.53 134.598C243.664 134.866 243.664 135.134 243.798 135.268C243.932 135.402 243.932 135.134 243.664 135L242.19 134.732C242.458 134.598 242.86 134.464 243.396 134.062C243.932 133.526 244.468 133.124 244.87 132.588C245.808 131.382 246.746 130.176 247.55 128.702C248.354 127.228 249.158 125.888 249.962 124.28C250.632 122.806 251.436 121.198 252.24 119.858L257.332 122.538Z" fill="#FFBE9B"/>
<path d="M257.198 121.064C259.476 125.486 249.024 137.412 249.024 137.412L245.406 131.382C245.406 131.382 248.756 126.022 249.962 122.002C251.972 117.044 255.59 117.982 257.198 121.064Z" fill="#0054A3"/>
<path opacity="0.3" d="M257.198 121.064C259.476 125.486 249.024 137.412 249.024 137.412L245.406 131.382C245.406 131.382 248.756 126.022 249.962 122.002C251.972 117.044 255.59 117.982 257.198 121.064Z" fill="#0054A3"/>
<path d="M245.942 130.98C246.88 132.052 249.426 135.134 250.23 136.608C250.364 136.742 250.364 136.876 250.096 137.144C249.56 137.814 247.952 139.154 247.282 139.154C246.478 139.154 242.726 134.866 242.86 134.196C242.994 133.66 244.468 131.918 245.138 131.114C245.406 130.846 245.808 130.846 245.942 130.98Z" fill="#0054A3"/>
<path d="M243.53 127.898L243.664 127.228C243.932 126.29 243.664 125.218 242.994 124.682L240.582 122.538C240.582 122.538 239.51 126.96 241.52 128.702L243.53 127.898Z" fill="#FFBE9B"/>
<path d="M241.922 124.548L242.458 124.146L242.324 122.806L242.86 122.002L243.396 122.94L243.932 124.28C244.066 124.548 244.066 124.816 244.066 125.084L243.932 126.558L241.922 124.548Z" fill="#FFBE9B"/>
</svg>
