<svg width="340" height="270" viewBox="0 0 340 270" fill="none" xmlns="http://www.w3.org/2000/svg">
<g clip-path="url(#clip0_1409_2651)">
<path d="M336 222.373H-26V222.517H336V222.373Z" fill="#ECECEC"/>
<path d="M35.8295 229.453H11.9375V229.598H35.8295V229.453Z" fill="#ECECEC"/>
<path d="M104.175 227.43H72.6084V227.575H104.175V227.43Z" fill="#ECECEC"/>
<path d="M61.1693 233.066H33.0781V233.21H61.1693V233.066Z" fill="#ECECEC"/>
<path d="M299.8 234.8H268.523V234.944H299.8V234.8Z" fill="#ECECEC"/>
<path d="M262.008 234.8H248.396V234.944H262.008V234.8Z" fill="#ECECEC"/>
<path d="M172.955 231.765H146.602V231.91H172.955V231.765Z" fill="#ECECEC"/>
<path d="M145.588 190.149H5.85643C3.68443 190.149 1.65723 188.415 1.65723 185.959V-9.98345C1.65723 -12.151 3.39483 -14.174 5.85643 -14.174H145.588C147.76 -14.174 149.788 -12.44 149.788 -9.98345V186.248C149.788 188.415 147.905 190.149 145.588 190.149ZM5.85643 -13.885C3.68443 -13.885 1.80203 -12.151 1.80203 -9.83895V186.392C1.80203 188.56 3.68443 190.294 5.85643 190.294H145.588C147.76 190.294 149.643 188.56 149.643 186.392V-9.98345C149.643 -12.151 147.905 -14.0295 145.588 -14.0295C145.588 -13.885 5.85643 -13.885 5.85643 -13.885Z" fill="#ECECEC"/>
<path d="M302.117 190.149H162.385C160.213 190.149 158.186 188.415 158.186 185.959V-9.98345C158.186 -12.151 159.923 -14.174 162.385 -14.174H302.117C304.289 -14.174 306.316 -12.44 306.316 -9.98345V186.248C306.316 188.415 304.434 190.149 302.117 190.149ZM162.385 -13.885C160.213 -13.885 158.33 -12.151 158.33 -9.83895V186.392C158.33 188.56 160.068 190.294 162.385 190.294H302.117C304.289 190.294 306.171 188.56 306.171 186.392V-9.98345C306.171 -12.151 304.434 -14.0295 302.117 -14.0295C302.117 -13.885 162.385 -13.885 162.385 -13.885Z" fill="#ECECEC"/>
<path d="M234.061 158.07H274.749C279.093 158.07 282.569 161.538 282.569 165.873V222.517H234.061V158.07Z" fill="#E1E1E1"/>
<path d="M243.038 158.07H140.375C136.031 158.07 132.556 161.538 132.556 165.873V222.517H250.568V165.584C250.568 161.538 247.092 158.07 243.038 158.07Z" fill="#ECECEC"/>
<path d="M192.792 210.957C204.307 210.957 213.643 201.641 213.643 190.149C213.643 178.657 204.307 169.341 192.792 169.341C181.276 169.341 171.94 178.657 171.94 190.149C171.94 201.641 181.276 210.957 192.792 210.957Z" fill="#E1E1E1"/>
<path d="M191.489 210.957C203.005 210.957 212.34 201.641 212.34 190.149C212.34 178.657 203.005 169.341 191.489 169.341C179.973 169.341 170.638 178.657 170.638 190.149C170.638 201.641 179.973 210.957 191.489 210.957Z" fill="#FAFAFA"/>
<path d="M191.489 204.31C199.326 204.31 205.68 197.97 205.68 190.149C205.68 182.328 199.326 175.988 191.489 175.988C183.652 175.988 177.299 182.328 177.299 190.149C177.299 197.97 183.652 204.31 191.489 204.31Z" fill="#E7E7E7"/>
<path opacity="0.5" d="M207.707 32.4996C178.892 32.4996 155.579 56.0531 155.579 84.5196V157.926H259.98V84.6641C259.835 56.0531 236.233 32.4996 207.707 32.4996Z" fill="#E1E1E1"/>
<path d="M188.593 92.4671H174.837C172.231 92.4671 170.348 90.2996 170.638 87.8431L172.375 71.6591C172.665 69.0581 174.982 67.0351 177.588 67.0351H191.344C193.951 67.0351 195.833 69.2026 195.543 71.6591L193.806 87.8431C193.516 90.4441 191.199 92.4671 188.593 92.4671Z" fill="#E1E1E1"/>
<path d="M229.427 117.755H241.156C243.328 117.755 244.921 116.021 244.776 113.709L243.328 99.9811C243.183 97.8136 241.156 95.9351 238.984 95.9351H227.255C225.083 95.9351 223.49 97.6691 223.635 99.9811L225.083 113.709C225.228 116.021 227.255 117.755 229.427 117.755Z" fill="#E1E1E1"/>
<path d="M215.816 69.6361H225.662C227.4 69.6361 228.848 68.1911 228.558 66.4571L227.255 54.8971C227.11 53.1631 225.517 51.7181 223.635 51.7181H213.789C212.051 51.7181 210.603 53.1631 210.893 54.8971L212.196 66.4571C212.196 68.1911 214.078 69.6361 215.816 69.6361Z" fill="#E1E1E1"/>
<path d="M191.345 136.684H182.947C181.499 136.684 180.195 135.384 180.34 133.794L181.499 123.968C181.643 122.523 183.091 121.078 184.539 121.078H192.793C194.241 121.078 195.544 122.379 195.399 123.968L194.241 133.794C194.386 135.239 192.938 136.684 191.345 136.684Z" fill="#E1E1E1"/>
<path d="M201.046 158.07H199.598C199.598 152.579 203.652 149.978 207.417 147.233C211.037 144.632 214.512 142.32 214.512 137.696C214.512 133.072 211.037 130.615 207.417 128.159C203.652 125.558 199.598 122.957 199.598 117.321C199.598 111.83 203.652 109.229 207.417 106.484C211.037 103.883 214.512 101.571 214.512 96.9466C214.512 92.3226 211.037 89.8661 207.417 87.4096C203.652 84.8086 199.598 82.2076 199.598 76.5721C199.598 71.0811 203.652 68.4801 207.417 65.7346C211.037 63.1336 214.512 60.8216 214.512 56.1976H215.96C215.96 61.6886 212.05 64.2896 208.141 67.0351C204.521 69.6361 201.046 71.9481 201.046 76.5721C201.046 81.1961 204.521 83.6526 208.141 86.1091C211.906 88.7101 215.96 91.3111 215.96 96.9466C215.96 102.582 212.05 105.039 208.141 107.784C204.521 110.385 201.046 112.697 201.046 117.321C201.046 121.945 204.521 124.402 208.141 126.858C211.906 129.459 215.96 132.06 215.96 137.696C215.96 143.331 212.05 145.788 208.141 148.533C204.376 150.99 201.046 153.446 201.046 158.07Z" fill="white"/>
<path d="M155 255.03C232.572 255.03 295.456 251.407 295.456 246.938C295.456 242.468 232.572 238.846 155 238.846C77.4282 238.846 14.5439 242.468 14.5439 246.938C14.5439 251.407 77.4282 255.03 155 255.03Z" fill="#F5F5F5"/>
<path d="M240.721 53.452H90.5633C89.1153 53.452 87.9569 54.608 87.8121 56.053L80.2825 149.689C80.1377 151.279 81.4409 152.579 83.0337 152.579H233.481C234.929 152.579 235.943 151.423 236.232 149.978L243.762 56.342C243.617 54.897 242.459 53.452 240.721 53.452Z" fill="#0054A3"/>
<path opacity="0.4" d="M240.721 53.452H90.5633C89.1153 53.452 87.9569 54.608 87.8121 56.053L80.2825 149.689C80.1377 151.279 81.4409 152.579 83.0337 152.579H233.481C234.929 152.579 235.943 151.423 236.232 149.978L243.762 56.342C243.617 54.897 242.459 53.452 240.721 53.452Z" fill="#0054A3"/>
<g opacity="0.4">
<path d="M187.58 46.6605H184.539V47.383H187.58V46.6605Z" fill="#0054A3"/>
<path d="M180.774 46.6605H167.742V47.383H180.774V46.6605Z" fill="#0054A3"/>
</g>
<path d="M236.667 49.406H86.2195C84.7715 49.406 83.6131 50.4175 83.4683 52.007L75.9387 145.643C75.7939 147.233 77.0971 148.533 78.6899 148.533H229.137C230.585 148.533 231.599 147.377 231.888 145.932L239.418 52.296C239.563 50.562 238.26 49.406 236.667 49.406Z" fill="#0064B7"/>
<path opacity="0.1" d="M231.019 96.224H84.3369L87.9569 53.5965H234.639L231.019 96.224ZM85.3505 95.357H230.295L233.626 54.319H88.8257L85.3505 95.357Z" fill="white"/>
<path opacity="0.4" d="M224.793 91.889C225.373 91.889 225.952 91.311 225.952 90.733L228.413 58.943C228.413 58.365 228.124 57.787 227.255 57.787C226.676 57.787 226.097 58.365 226.097 58.943L223.49 90.733C223.78 91.4555 224.359 91.889 224.793 91.889Z" fill="white"/>
<path d="M224.794 75.705H227.4C227.69 75.705 227.979 75.5605 227.979 75.127L228.124 72.526C228.124 72.237 227.979 71.948 227.834 71.948H225.373C225.083 71.948 224.794 72.0925 224.794 72.526L224.649 75.127C224.504 75.5605 224.649 75.705 224.794 75.705Z" fill="white"/>
<path opacity="0.4" d="M215.815 91.889C216.394 91.889 216.973 91.311 216.973 90.733L219.435 58.943C219.435 58.365 219.145 57.787 218.277 57.787C217.697 57.787 217.118 58.365 217.118 58.943L214.512 90.733C214.657 91.4555 215.236 91.889 215.815 91.889Z" fill="white"/>
<path d="M216.394 70.0695H218.855C219.145 70.0695 219.435 69.925 219.435 69.4915L219.579 66.8905C219.579 66.6015 219.435 66.3125 219.29 66.3125H216.683C216.394 66.3125 216.104 66.457 216.104 66.8905L215.959 69.4915C215.815 69.925 216.104 70.0695 216.394 70.0695Z" fill="white"/>
<path opacity="0.4" d="M206.837 91.889C207.417 91.889 207.996 91.311 207.996 90.733L210.457 58.943C210.457 58.365 210.168 57.787 209.299 57.787C208.72 57.787 208.141 58.365 208.141 58.943L205.534 90.733C205.679 91.4555 205.969 91.889 206.837 91.889Z" fill="white"/>
<path d="M206.258 82.641H208.865C209.154 82.641 209.444 82.4965 209.444 82.063L209.589 79.462C209.589 79.173 209.444 78.884 209.299 78.884H206.693C206.403 78.884 206.113 79.0285 206.113 79.462L205.969 82.063C205.679 82.352 205.969 82.641 206.258 82.641Z" fill="white"/>
<path opacity="0.4" d="M197.715 91.889C198.294 91.889 198.873 91.311 198.873 90.733L201.48 58.943C201.48 58.365 201.19 57.787 200.321 57.787C199.742 57.787 199.163 58.365 199.163 58.943L196.557 90.733C196.701 91.4555 196.991 91.889 197.715 91.889Z" fill="white"/>
<path d="M197.571 78.017H200.177C200.467 78.017 200.756 77.8725 200.756 77.439L200.901 74.838C200.901 74.549 200.756 74.26 200.611 74.26H198.005C197.715 74.26 197.426 74.4045 197.426 74.838L197.281 77.439C196.991 77.8725 197.281 78.017 197.571 78.017Z" fill="white"/>
<path opacity="0.4" d="M188.593 91.889C189.172 91.889 189.751 91.311 189.751 90.733L192.358 58.943C192.358 58.365 192.068 57.787 191.199 57.787C190.62 57.787 190.041 58.365 190.041 58.943L187.435 90.733C187.579 91.4555 188.014 91.889 188.593 91.889Z" fill="white"/>
<path d="M188.593 74.549H191.2C191.489 74.549 191.779 74.4045 191.779 73.971L191.924 71.37C191.924 71.081 191.779 70.792 191.634 70.792H189.028C188.738 70.792 188.449 70.9365 188.449 71.37L188.304 73.971C188.304 74.26 188.449 74.549 188.593 74.549Z" fill="white"/>
<path opacity="0.4" d="M105.188 67.1795H169.19C170.782 67.1795 172.23 65.879 172.375 64.2895C172.52 62.7 171.217 61.3995 169.624 61.3995H105.767C104.174 61.3995 102.726 62.7 102.582 64.2895C102.292 66.0235 103.595 67.1795 105.188 67.1795Z" fill="white"/>
<path d="M94.1831 77.8725H168.321C169.914 77.8725 171.362 76.572 171.506 74.9825C171.651 73.393 170.348 72.0925 168.755 72.0925H94.7623C93.1695 72.0925 91.7215 73.393 91.4319 74.9825C91.2871 76.572 92.5903 77.8725 94.1831 77.8725Z" fill="#FAFAFA"/>
<path opacity="0.4" d="M124.88 88.5655H167.596C169.189 88.5655 170.637 87.265 170.782 85.6755C170.927 84.086 169.624 82.7855 168.031 82.7855H125.315C123.722 82.7855 122.274 84.086 121.984 85.6755C121.984 87.265 123.288 88.5655 124.88 88.5655Z" fill="#1A2E35"/>
<path opacity="0.3" d="M216.104 113.564H224.792L225.661 104.894H216.973L216.104 113.564Z" fill="#1A2E35"/>
<path opacity="0.3" d="M203.507 113.564H212.195L212.919 104.894H204.231L203.507 113.564Z" fill="#1A2E35"/>
<path d="M190.909 113.564H199.597L200.176 104.894H191.488L190.909 113.564Z" fill="white"/>
<path opacity="0.3" d="M178.167 113.564H186.855L187.579 104.894H178.891L178.167 113.564Z" fill="#1A2E35"/>
<path d="M215.236 126.28H223.78L224.504 117.61H215.96L215.236 126.28Z" fill="white"/>
<path opacity="0.3" d="M202.493 126.28H211.181L211.76 117.61H203.072L202.493 126.28Z" fill="#1A2E35"/>
<path opacity="0.3" d="M189.751 126.28H198.439L199.163 117.61H190.475L189.751 126.28Z" fill="#1A2E35"/>
<path opacity="0.3" d="M177.009 126.28H185.697L186.566 117.61H177.878L177.009 126.28Z" fill="#1A2E35"/>
<path opacity="0.3" d="M214.223 138.996H222.911L223.345 130.47H214.947L214.223 138.996Z" fill="#1A2E35"/>
<path opacity="0.3" d="M201.479 138.996H210.023L210.747 130.47H202.203L201.479 138.996Z" fill="#1A2E35"/>
<path d="M188.882 138.996H197.28L198.149 130.47H189.461L188.882 138.996Z" fill="white"/>
<path opacity="0.3" d="M175.995 138.996H184.683L185.407 130.47H176.719L175.995 138.996Z" fill="#1A2E35"/>
<path opacity="0.3" d="M152.393 122.234H149.497L149.207 128.014H152.103L152.393 122.234Z" fill="#1A2E35"/>
<path opacity="0.3" d="M156.737 122.234H153.841L153.406 128.014H156.302L156.737 122.234Z" fill="#1A2E35"/>
<path d="M160.936 122.234H158.04L157.75 128.014H160.501L160.936 122.234Z" fill="white"/>
<path opacity="0.3" d="M165.28 122.234H162.384L161.949 128.014H164.845L165.28 122.234Z" fill="#1A2E35"/>
<path d="M153.261 113.564H150.365L149.931 119.344H152.827L153.261 113.564Z" fill="white"/>
<path opacity="0.3" d="M157.605 113.564H154.709L154.13 119.344H157.026L157.605 113.564Z" fill="#1A2E35"/>
<path opacity="0.3" d="M161.66 113.564H158.764L158.185 119.344H161.081L161.66 113.564Z" fill="#1A2E35"/>
<path opacity="0.3" d="M165.859 113.564H162.963L162.528 119.344H165.424L165.859 113.564Z" fill="#1A2E35"/>
<path opacity="0.3" d="M153.841 104.894H150.945L150.655 110.963H153.551L153.841 104.894Z" fill="#1A2E35"/>
<path opacity="0.3" d="M158.185 104.894H155.289L154.854 110.963H157.75L158.185 104.894Z" fill="#1A2E35"/>
<path opacity="0.3" d="M162.384 104.894H159.488L159.054 110.963H161.95L162.384 104.894Z" fill="#1A2E35"/>
<path opacity="0.3" d="M166.583 104.894H163.687L163.397 110.963H166.293L166.583 104.894Z" fill="#1A2E35"/>
<path opacity="0.3" d="M131.831 122.234H128.935L128.646 128.014H131.542L131.831 122.234Z" fill="#1A2E35"/>
<path d="M136.175 122.234H133.279L132.7 128.014H135.596L136.175 122.234Z" fill="white"/>
<path opacity="0.3" d="M140.375 122.234H137.479L136.899 128.014H139.795L140.375 122.234Z" fill="#1A2E35"/>
<path opacity="0.3" d="M144.574 122.234H141.678L141.243 128.014H144.139L144.574 122.234Z" fill="#1A2E35"/>
<path d="M132.555 113.564H129.659L129.08 119.344H131.976L132.555 113.564Z" fill="white"/>
<path opacity="0.3" d="M136.754 113.564H134.003L133.424 119.344H136.32L136.754 113.564Z" fill="#1A2E35"/>
<path d="M141.098 113.564H138.202L137.623 119.344H140.519L141.098 113.564Z" fill="white"/>
<path d="M145.152 113.564H142.256L141.967 119.344H144.863L145.152 113.564Z" fill="white"/>
<path opacity="0.3" d="M133.279 104.894H130.383L129.804 110.963H132.7L133.279 104.894Z" fill="#1A2E35"/>
<path d="M137.478 104.894H134.582L134.147 110.963H136.899L137.478 104.894Z" fill="white"/>
<path d="M141.822 104.894H138.926L138.347 110.963H141.243L141.822 104.894Z" fill="white"/>
<path opacity="0.3" d="M146.022 104.894H143.126L142.691 110.963H145.587L146.022 104.894Z" fill="#1A2E35"/>
<path d="M111.269 122.234H108.373L107.794 128.014H110.69L111.269 122.234Z" fill="white"/>
<path opacity="0.3" d="M115.324 122.234H112.428L111.849 128.014H114.745L115.324 122.234Z" fill="#1A2E35"/>
<path d="M119.523 122.234H116.772L116.192 128.014H119.088L119.523 122.234Z" fill="white"/>
<path opacity="0.3" d="M123.867 122.234H120.971L120.536 128.014H123.287L123.867 122.234Z" fill="#1A2E35"/>
<path d="M111.848 113.564H108.952L108.518 119.344H111.414L111.848 113.564Z" fill="white"/>
<path d="M116.047 113.564H113.151L112.717 119.344H115.613L116.047 113.564Z" fill="white"/>
<path opacity="0.3" d="M120.247 113.564H117.351L117.062 119.344H119.958L120.247 113.564Z" fill="#1A2E35"/>
<path opacity="0.3" d="M124.59 113.564H121.694L121.115 119.344H124.011L124.59 113.564Z" fill="#1A2E35"/>
<path d="M112.717 104.894H109.821L109.242 110.963H112.138L112.717 104.894Z" fill="white"/>
<path opacity="0.3" d="M116.771 104.894H113.875L113.296 110.963H116.192L116.771 104.894Z" fill="#1A2E35"/>
<path opacity="0.3" d="M120.971 104.894H118.075L117.641 110.963H120.537L120.971 104.894Z" fill="#1A2E35"/>
<path opacity="0.3" d="M125.315 104.894H122.419L121.84 110.963H124.736L125.315 104.894Z" fill="#1A2E35"/>
<path d="M90.4183 122.234H87.6671L87.0879 128.014H89.9839L90.4183 122.234Z" fill="white"/>
<path opacity="0.3" d="M94.7623 122.234H91.8663L91.2871 128.014H94.1831L94.7623 122.234Z" fill="#1A2E35"/>
<path d="M98.8165 122.234H95.9205L95.6309 128.014H98.5269L98.8165 122.234Z" fill="white"/>
<path opacity="0.3" d="M103.16 122.234H100.264L99.8301 128.014H102.726L103.16 122.234Z" fill="#1A2E35"/>
<path opacity="0.3" d="M91.1419 113.564H88.2459L87.8115 119.344H90.7075L91.1419 113.564Z" fill="#1A2E35"/>
<path opacity="0.3" d="M95.4859 113.564H92.5899L92.0107 119.344H94.9067L95.4859 113.564Z" fill="#1A2E35"/>
<path d="M99.6859 113.564H96.7899L96.3555 119.344H99.2515L99.6859 113.564Z" fill="white"/>
<path opacity="0.3" d="M104.03 113.564H101.134L100.555 119.344H103.451L104.03 113.564Z" fill="#1A2E35"/>
<path d="M91.8665 104.894H88.9705L88.5361 110.963H91.2873L91.8665 104.894Z" fill="white"/>
<path opacity="0.3" d="M95.9209 104.894H93.3146L92.7354 110.963H95.6314L95.9209 104.894Z" fill="#1A2E35"/>
<path d="M100.265 104.894H97.3687L97.0791 110.963H99.8303L100.265 104.894Z" fill="white"/>
<path d="M104.609 104.894H101.713L101.278 110.963H104.174L104.609 104.894Z" fill="white"/>
<path d="M163.453 136.917C164.261 136.144 164.377 134.957 163.712 134.266C163.048 133.575 161.854 133.642 161.046 134.416C160.239 135.189 160.123 136.377 160.787 137.067C161.452 137.758 162.645 137.691 163.453 136.917Z" fill="white"/>
<path d="M155.338 136.937C156.145 136.163 156.261 134.976 155.597 134.285C154.932 133.594 153.739 133.661 152.931 134.435C152.124 135.209 152.007 136.396 152.672 137.087C153.337 137.778 154.53 137.71 155.338 136.937Z" fill="white"/>
<path d="M143.994 135.673C143.994 136.829 144.718 137.407 145.732 137.407C146.745 137.407 147.759 136.684 147.759 135.673C147.759 134.661 147.035 133.939 146.021 133.939C145.008 133.794 144.139 134.661 143.994 135.673Z" fill="white"/>
<path d="M135.886 135.673C135.886 136.829 136.61 137.407 137.623 137.407C138.637 137.407 139.651 136.684 139.651 135.673C139.651 134.661 138.927 133.939 137.913 133.939C136.899 133.939 135.886 134.661 135.886 135.673Z" fill="white"/>
<path d="M127.487 135.673C127.487 136.829 128.211 137.407 129.225 137.407C130.383 137.407 131.252 136.684 131.252 135.673C131.252 134.661 130.528 133.939 129.515 133.939C128.646 133.794 127.632 134.661 127.487 135.673Z" fill="white"/>
<path d="M119.378 135.673C119.378 136.829 120.102 137.407 121.116 137.407C122.274 137.407 123.143 136.684 123.143 135.673C123.143 134.661 122.419 133.939 121.405 133.939C120.392 133.939 119.523 134.661 119.378 135.673Z" fill="white"/>
<path d="M111.27 135.673C111.27 136.829 111.994 137.407 113.007 137.407C114.166 137.407 115.034 136.684 115.034 135.673C115.034 134.661 114.31 133.939 113.297 133.939C112.283 133.939 111.27 134.661 111.27 135.673Z" fill="white"/>
<path d="M102.871 135.673C102.871 136.829 103.595 137.407 104.609 137.407C105.622 137.407 106.636 136.684 106.636 135.673C106.636 134.661 105.912 133.939 104.898 133.939C103.74 133.794 103.016 134.661 102.871 135.673Z" fill="white"/>
<path opacity="0.3" d="M94.7617 135.673C94.7617 136.829 95.4857 137.407 96.4993 137.407C97.5129 137.407 98.5265 136.684 98.5265 135.673C98.5265 134.661 97.8025 133.939 96.7889 133.939C95.6305 133.794 94.7617 134.661 94.7617 135.673Z" fill="#1A2E35"/>
<path d="M86.6533 135.673C86.6533 136.829 87.3773 137.407 88.3909 137.407C89.4045 137.407 90.4181 136.684 90.4181 135.673C90.4181 134.661 89.6941 133.939 88.6805 133.939C87.5221 133.794 86.6533 134.661 86.6533 135.673Z" fill="white"/>
<path d="M92.5906 71.2256C92.301 71.9481 91.7218 72.6706 91.1426 73.3931C90.853 74.1156 90.2738 74.9826 89.6946 75.7051C88.8258 77.2946 87.957 79.0286 87.0882 80.6181C85.4954 83.7971 84.0474 87.1206 83.0338 90.4441L82.7442 91.7446C82.7442 91.7446 82.7442 91.7446 82.7442 91.6001V91.4556C82.7442 91.4556 82.7442 91.3111 82.5994 91.1666C82.5994 91.0221 82.4546 90.8776 82.4546 90.8776C82.3098 90.5886 82.165 90.2996 81.7306 90.1551C81.1514 89.8661 81.0066 89.8661 81.1514 90.0106C81.2962 90.1551 81.8754 90.1551 82.5994 90.1551C83.3234 90.1551 84.1922 90.1551 85.2058 90.0106C88.681 89.4326 92.4458 88.5656 96.0658 87.6986L98.2378 92.3226C96.5002 93.4786 94.6178 94.4901 92.7354 95.2126C90.9978 96.0796 88.9706 96.9466 86.9434 97.5246C85.785 97.8136 84.7714 98.2471 83.7578 98.3916C83.1786 98.5361 82.4546 98.5361 81.7306 98.5361C81.0066 98.5361 80.2826 98.5361 79.4138 98.3916C78.545 98.2471 77.3866 98.1026 76.2282 96.9466C75.649 96.6576 75.2146 95.7906 74.6354 95.2126C74.4906 94.9236 74.3458 94.4901 74.0562 94.0566C73.9114 93.7676 73.9114 93.3341 73.7666 92.9006V92.3226V92.0336C73.7666 91.7446 73.7666 91.4556 73.7666 91.1666C73.7666 90.8776 73.7666 90.5886 73.7666 90.4441V90.1551V90.0106L74.0562 88.4211C74.3458 86.2536 75.2146 84.0861 75.7938 82.0631C76.5178 80.0401 77.2418 78.1616 78.1106 76.2831C78.9794 74.4046 79.8482 72.5261 81.0066 70.7921C81.5858 69.9251 82.165 69.0581 82.5994 68.0466C83.0338 67.0351 83.7578 66.3126 84.337 65.3011L92.5906 71.2256Z" fill="#FFBE9D"/>
<path d="M94.6173 72.2371C93.8933 73.8266 93.3141 75.4161 92.5901 76.8611C91.4317 79.4621 90.2733 81.4851 89.4045 83.2191C88.6805 84.6641 88.1013 85.3866 88.1013 85.3866L75.0693 78.8841C75.0693 78.8841 80.2821 63.7116 85.7845 62.1221C91.5765 60.5326 97.5133 65.0121 94.6173 72.2371Z" fill="#0054A3"/>
<path d="M99.8305 109.518C99.8305 109.518 95.1969 150.99 92.1561 166.018C88.8257 182.635 66.6713 235.956 66.6713 235.956L55.9561 233.644C61.3137 215.148 68.9881 180.757 73.9113 167.607C77.5313 147.666 73.4769 122.523 78.8345 107.062L99.8305 109.518Z" fill="#EE384E"/>
<path d="M110.835 110.819C110.835 110.819 113.731 155.036 114.166 171.075C114.6 187.837 110.401 237.545 110.401 237.545H100.12C100.12 237.545 95.7762 191.45 97.8034 169.052C95.197 152.001 89.5498 108.218 89.5498 108.218L110.835 110.819Z" fill="#EE384E"/>
<path d="M66.0924 235.522L56.246 233.21C55.9564 233.066 55.6668 233.21 55.522 233.788L52.3364 240.58C51.902 241.158 52.3364 241.88 53.0604 242.314H53.2052C56.5356 242.892 58.8524 243.47 63.0516 244.192C65.658 244.626 73.1876 246.649 76.518 247.516C79.9932 248.383 81.1516 245.059 79.7036 244.481C73.7668 241.591 69.278 238.701 67.6852 236.389C67.2508 236.245 66.8164 235.956 66.0924 235.522Z" fill="#170856"/>
<path d="M110.256 237.69H100.12C99.6856 237.69 99.5408 237.834 99.5408 238.412L98.0928 245.637C98.0928 246.36 98.3824 246.938 99.1064 247.082H99.2512C102.582 246.938 104.898 246.937 109.242 246.793C111.849 246.648 119.813 246.937 123.143 246.793C126.474 246.648 127.053 243.325 125.46 243.036C118.944 241.736 114.021 240.001 111.849 238.123C111.27 237.834 110.69 237.69 110.256 237.69Z" fill="#170856"/>
<path d="M120.537 36.401C120.537 36.401 118.654 53.452 114.745 57.6425C112.573 61.1105 105.622 57.6425 105.622 57.6425L103.885 64.434L94.9072 61.255L102.437 34.5225L120.537 36.401Z" fill="#FFBE9D"/>
<path d="M95.7758 54.4635C96.4998 55.764 98.0926 56.342 99.5406 56.342C101.713 56.1975 103.885 54.897 105.622 54.1745C106.057 54.03 106.346 53.741 106.636 53.5965C107.649 53.0185 109.677 52.296 109.966 50.562C109.966 49.5505 109.387 48.828 109.242 47.8165C109.097 46.9495 109.532 45.938 110.401 45.7935C111.849 45.2155 113.007 46.6605 112.717 47.8165C112.573 48.25 112.428 48.828 112.717 48.9725C113.152 49.117 113.441 48.828 113.731 48.539C114.165 47.672 114.455 46.6605 114.745 45.649C114.889 44.6375 115.469 43.626 116.482 43.048C117.061 42.6145 117.785 42.759 118.509 42.759C118.944 42.759 119.089 42.759 119.378 42.759C121.405 42.759 123.288 41.4585 123.867 39.4355C124.446 37.4125 123.143 35.534 123.143 35.534C123.143 35.534 123.433 32.4995 119.957 31.9215C116.048 31.488 115.613 32.7885 110.69 30.7655C107.215 29.3205 103.305 32.4995 103.305 32.4995C100.265 31.6325 98.8166 33.511 98.8166 33.511C97.2238 34.5225 96.6446 36.69 96.355 38.5685C96.0654 40.5915 96.355 42.47 96.0654 44.3485C95.9206 46.227 95.4862 47.961 95.1966 49.695C94.907 51.5735 94.907 53.452 95.7758 55.0415" fill="#170856"/>
<path d="M90.9983 64.5785C90.8535 62.7 90.9983 59.6655 92.4463 59.232C93.8943 58.7985 103.017 59.3765 107.65 62.989C106.058 65.879 106.202 68.769 106.202 68.769L90.9983 64.5785Z" fill="#0054A3"/>
<path opacity="0.2" d="M89.4052 70.5031L82.5996 82.2075L83.1788 82.6411C83.1788 82.6411 85.7852 80.04 88.826 76.4275L89.4052 70.5031Z" fill="black"/>
<path d="M115.903 89.288C114.745 95.068 113.007 102.293 110.835 111.108L78.9795 107.206C79.2691 103.16 83.9027 85.3865 82.7443 66.3125C82.5995 63.7115 85.0611 61.544 88.1019 61.544C89.5499 61.544 91.4323 61.6885 93.0251 61.833C97.0795 62.122 103.016 62.7 106.491 63.567C111.415 64.434 115.469 66.168 115.469 66.168C115.469 66.168 117.786 68.9135 116.627 81.3405C116.193 83.508 116.048 86.109 115.903 89.288Z" fill="#0083F9"/>
<path opacity="0.6" d="M115.903 89.288C114.745 95.068 113.007 102.293 110.835 111.108L78.9795 107.206C79.2691 103.16 83.9027 85.3865 82.7443 66.3125C82.5995 63.7115 85.0611 61.544 88.1019 61.544C89.5499 61.544 91.4323 61.6885 93.0251 61.833C97.0795 62.122 103.016 62.7 106.491 63.567C111.415 64.434 115.469 66.168 115.469 66.168C115.469 66.168 117.786 68.9135 116.627 81.3405C116.193 83.508 116.048 86.109 115.903 89.288Z" fill="#0083F9"/>
<path d="M118.365 71.2255C118.655 71.8035 119.089 72.526 119.668 73.393C120.248 74.1155 120.827 74.838 121.261 75.705C122.42 77.15 123.433 78.7395 124.736 80.329C127.053 83.219 129.66 86.109 132.266 88.71C132.99 89.288 133.569 89.866 134.293 90.2995L134.438 90.5885H134.583C134.438 90.5885 134.293 90.5885 134.293 90.444C134.004 90.444 133.569 90.444 133.569 90.444C133.424 90.5885 133.859 90.444 134.438 90.155C135.017 89.866 135.741 89.288 136.176 88.71C138.782 86.398 141.099 83.0745 143.416 80.04L147.904 82.2075C147.18 84.375 146.456 86.2535 145.588 88.132C145.298 89.1435 144.719 90.155 144.14 91.022C143.56 91.889 142.981 93.045 142.402 93.912C141.823 94.779 140.954 95.646 139.796 96.802C139.216 97.091 138.637 97.669 138.058 98.247C137.334 98.536 136.61 99.114 135.452 99.403C134.293 99.692 133.135 99.692 131.832 99.403C131.108 99.2585 130.528 99.114 130.094 98.6805L129.949 98.536L129.37 97.958L129.08 97.8135C128.067 97.091 127.053 96.513 126.184 95.7905C122.564 92.9005 119.524 89.866 116.772 86.5425C115.324 84.953 114.021 83.219 112.863 81.485C112.139 80.618 111.56 79.751 111.125 78.7395C110.546 77.8725 109.967 77.0055 109.388 75.5605L118.365 71.2255Z" fill="#FFBE9D"/>
<path d="M143.271 79.6066L146.747 74.5491L150.946 80.6181C150.946 80.6181 147.76 83.5081 144.864 83.2191L143.271 79.6066Z" fill="#FFBE9D"/>
<path d="M153.407 72.0925L154.42 77.8725L150.945 80.618L146.746 74.549L153.407 72.0925Z" fill="#FFBE9D"/>
<path d="M105.189 71.8035C105.334 77.5835 117.062 90.5886 117.062 90.5886L129.515 82.4965C129.515 82.4965 125.461 75.127 120.538 69.7805C112.718 61.6885 104.754 64.8675 105.189 71.8035Z" fill="#0054A3"/>
</g>
<defs>
<clipPath id="clip0_1409_2651">
<rect width="298" height="261" fill="white" transform="translate(21 4)"/>
</clipPath>
</defs>
</svg>
