<svg width="340" height="270" viewBox="0 0 340 270" fill="none" xmlns="http://www.w3.org/2000/svg">
<path d="M171.778 269C251.876 269 316.808 231.324 316.808 184.848C316.808 138.372 251.876 100.696 171.778 100.696C91.6808 100.696 26.749 138.372 26.749 184.848C26.749 231.324 91.6808 269 171.778 269Z" fill="#FAFAFA"/>
<path d="M64.3742 212.452L126.415 248.23C127.616 248.9 129.484 248.9 130.551 248.23L296.128 152.152C297.328 151.482 297.328 150.41 296.128 149.74L229.95 111.55C228.75 110.88 226.882 110.88 225.814 111.55L64.3742 210.04C63.1734 210.71 63.1734 211.782 64.3742 212.452Z" fill="#E7E7E7"/>
<path d="M53.5674 107.396L56.1024 108.87L118.01 72.824L115.608 71.484L53.5674 107.396Z" fill="#023EA1"/>
<path d="M115.609 71.484L56.1025 105.922V42.674L115.609 8.10199V71.484Z" fill="#00DFBF"/>
<g opacity="0.8">
<path d="M115.609 71.484L56.1025 105.922V42.674L115.609 8.10199V71.484Z" fill="white"/>
</g>
<path d="M87.0557 23.244V89.44L89.4573 87.966V21.77L87.0557 23.244Z" fill="#023EA1"/>
<path d="M85.8555 22.574L87.0563 23.244V89.44L85.8555 88.636V22.574Z" fill="#1A2E35"/>
<path d="M87.0563 23.244L89.4579 21.77L88.2571 21.1L85.8555 22.574L87.0563 23.244Z" fill="#FAFAFA"/>
<path d="M120.545 2.34003L53.5674 41.2V113.158L120.545 74.298V2.34003ZM118.01 72.824L56.1024 108.87V42.674L118.01 6.76203V72.824Z" fill="#023EA1"/>
<path d="M118.01 72.824L115.608 71.484V8.10202L118.01 6.76202V72.824Z" fill="#1A2E35"/>
<path d="M120.545 2.34L118.01 1L51.0322 39.86L53.5672 41.2L120.545 2.34Z" fill="#0549AA"/>
<path d="M51.0322 39.86L53.5672 41.2V113.158L51.0322 111.684V39.86Z" fill="#0064B7"/>
<path d="M87.0557 24.718L89.4573 23.244V24.718L87.0557 26.058V24.718Z" fill="#1A2E35"/>
<path d="M87.0563 26.058L85.8555 25.388L87.0563 24.718V26.058Z" fill="black"/>
<path d="M286.787 151.75L281.184 148.534L286.787 146.926V151.75Z" fill="#E1E1E1"/>
<path d="M258.769 163.14V168.366L218.075 144.916V139.69L258.769 163.14Z" fill="#E1E1E1"/>
<g opacity="0.5">
<path d="M286.787 151.75L281.184 148.534L286.787 146.926V151.75Z" fill="#E1E1E1"/>
</g>
<g opacity="0.5">
<path d="M258.769 163.14V168.366L218.075 144.916V139.69L258.769 163.14Z" fill="#E1E1E1"/>
</g>
<path d="M215.407 99.088L255.967 122.538V164.882L215.407 141.298V99.088Z" fill="#E1E1E1"/>
<path d="M255.968 122.538L292.392 101.366V143.71L255.968 164.882V122.538Z" fill="#ECECEC"/>
<path d="M292.391 101.366L251.831 77.916L215.407 99.088L255.967 122.538L292.391 101.366Z" fill="#F5F5F5"/>
<path d="M258.77 124.146L289.59 106.324V116.106L258.77 133.928V124.146Z" fill="#F5F5F5"/>
<path d="M258.77 137.144L289.59 119.188V141.968L258.77 159.924V137.144Z" fill="#E1E1E1"/>
<path d="M258.77 168.366L261.571 166.758V161.532L258.77 163.14V168.366Z" fill="#ECECEC"/>
<path d="M286.788 151.75L289.59 150.142V145.318L286.788 146.926V151.75Z" fill="#ECECEC"/>
<path d="M268.242 120.662C268.242 121.064 269.576 120.662 271.177 119.724L276.381 116.642C277.982 115.704 279.316 114.498 279.316 114.096V113.292L268.108 119.724C268.242 119.858 268.242 120.26 268.242 120.662Z" fill="#375A64"/>
<path opacity="0.5" d="M289.59 141.968L270.11 130.578L258.77 137.144V159.924L289.59 141.968Z" fill="#E1E1E1"/>
<path d="M257.702 98.82C257.702 98.686 257.702 98.552 257.702 98.284C257.436 96.542 255.835 94.666 254.901 93.996H248.897C247.829 94.666 246.362 96.542 246.095 98.284C246.095 98.418 246.095 98.552 246.095 98.82C246.095 99.624 246.762 100.428 247.829 101.098C250.097 102.438 253.833 102.438 256.101 101.098C257.035 100.562 257.569 99.758 257.702 98.82Z" fill="#0064B7"/>
<path d="M248.897 93.996C247.296 94.934 247.296 96.408 248.897 97.212C250.498 98.15 253.033 98.15 254.634 97.212C256.235 96.274 256.235 94.8 254.634 93.996C253.033 93.058 250.498 93.058 248.897 93.996Z" fill="#045E9B"/>
<path d="M252.632 74.03H251.031V95.068C251.031 95.202 251.031 95.336 251.298 95.47C251.565 95.604 252.099 95.604 252.499 95.47C252.632 95.336 252.766 95.202 252.766 95.068L252.632 74.03Z" fill="#1A2E35"/>
<path d="M263.706 70.814L257.969 56.342H245.294L239.557 70.814C238.756 73.092 239.824 75.504 242.892 77.246C247.696 80.06 255.434 80.06 260.237 77.246C263.439 75.504 264.64 73.092 263.706 70.814Z" fill="#0064B7"/>
<path d="M247.162 59.826C249.697 61.3 253.833 61.3 256.368 59.826C258.903 58.352 258.903 55.94 256.368 54.466C253.833 52.992 249.697 52.992 247.162 54.466C244.627 55.94 244.627 58.352 247.162 59.826Z" fill="#00DFBF"/>
<path d="M247.162 59.826C249.697 61.3 253.833 61.3 256.368 59.826C258.903 58.352 258.903 55.94 256.368 54.466C253.833 52.992 249.697 52.992 247.162 54.466C244.627 55.94 244.627 58.352 247.162 59.826Z" fill="#649EEA"/>
<path d="M251.832 60.094C250.231 60.094 248.763 59.692 247.562 59.022C246.628 58.486 246.095 57.682 246.095 57.012C246.095 56.342 246.628 55.538 247.562 55.002C248.63 54.332 250.097 53.93 251.832 53.93C253.433 53.93 254.901 54.332 256.101 55.002C257.035 55.538 257.569 56.342 257.569 57.012C257.569 57.682 257.035 58.486 256.101 59.022C254.901 59.826 253.299 60.094 251.832 60.094Z" fill="#00DFBF"/>
<path d="M251.832 60.094C250.231 60.094 248.763 59.692 247.562 59.022C246.628 58.486 246.095 57.682 246.095 57.012C246.095 56.342 246.628 55.538 247.562 55.002C248.63 54.332 250.097 53.93 251.832 53.93C253.433 53.93 254.901 54.332 256.101 55.002C257.035 55.538 257.569 56.342 257.569 57.012C257.569 57.682 257.035 58.486 256.101 59.022C254.901 59.826 253.299 60.094 251.832 60.094Z" fill="#045E9B"/>
<path d="M126.815 232.016H118.543L119.877 240.056C119.877 240.458 120.144 240.726 120.678 240.994C121.745 241.664 123.613 241.664 124.68 240.994C125.214 240.726 125.347 240.324 125.481 240.056L126.815 232.016Z" fill="#2B454E"/>
<path d="M122.679 234.16C124.963 234.16 126.815 233.08 126.815 231.748C126.815 230.416 124.963 229.336 122.679 229.336C120.395 229.336 118.543 230.416 118.543 231.748C118.543 233.08 120.395 234.16 122.679 234.16Z" fill="#FAFAFA"/>
<path d="M84.7878 207.494H76.5156L77.8498 215.534C77.8498 215.936 78.1167 216.204 78.6504 216.472C79.7177 217.142 81.5856 217.142 82.653 216.472C83.1867 216.204 83.3201 215.802 83.4535 215.534L84.7878 207.494Z" fill="#2B454E"/>
<path d="M77.7164 205.484C76.1154 206.422 76.1154 208.03 77.7164 208.834C79.3175 209.772 81.9859 209.772 83.587 208.834C85.188 207.896 85.188 206.288 83.587 205.484C81.9859 204.68 79.3175 204.68 77.7164 205.484Z" fill="#FAFAFA"/>
<path d="M246.761 171.18H238.489L239.823 179.22C239.823 179.622 240.09 179.89 240.624 180.158C241.691 180.828 243.559 180.828 244.627 180.158C245.16 179.89 245.294 179.488 245.427 179.22L246.761 171.18Z" fill="#1A2E35"/>
<path d="M239.69 169.17C238.089 170.108 238.089 171.716 239.69 172.52C241.291 173.458 243.96 173.458 245.561 172.52C247.162 171.582 247.162 169.974 245.561 169.17C243.826 168.232 241.158 168.232 239.69 169.17Z" fill="#FAFAFA"/>
<path d="M204.6 146.524H196.328L197.662 154.564C197.662 154.966 197.929 155.234 198.463 155.502C199.53 156.172 201.398 156.172 202.466 155.502C202.999 155.234 203.133 154.832 203.266 154.564L204.6 146.524Z" fill="#FAFAFA"/>
<path d="M197.529 144.648C195.928 145.586 195.928 147.194 197.529 147.998C199.13 148.936 201.798 148.936 203.399 147.998C205.001 147.06 205.001 145.452 203.399 144.648C201.798 143.71 199.263 143.71 197.529 144.648Z" fill="#FAFAFA"/>
<path d="M253.3 128.568V167.16C253.3 169.706 251.432 172.922 249.297 174.128L246.095 176.004C244.761 176.674 242.759 177.076 241.025 176.808L141.626 232.15C141.492 234.696 139.758 237.644 137.623 238.85L134.421 240.726C134.287 240.726 134.287 240.86 134.154 240.86H134.021C132.153 241.664 129.751 241.798 127.75 241.128C127.483 241.128 127.216 240.994 127.083 240.86C127.083 240.86 127.083 240.86 126.949 240.86C126.816 240.86 126.682 240.726 126.416 240.592L74.2478 210.442C71.9796 209.102 70.2451 206.02 70.2451 203.474V138.618C70.2451 136.072 72.113 132.856 74.2478 131.65L189.257 64.918C191.525 63.578 194.994 63.578 197.262 64.918L200.465 66.794C202.599 68.134 204.734 71.216 205.001 73.762L208.203 97.48L249.297 121.332C251.432 122.94 253.3 126.022 253.3 128.568Z" fill="#023EA1"/>
<path d="M200.331 67.062L197.129 65.186C194.861 63.846 191.392 63.846 189.123 65.186L74.114 131.918C73.8471 132.052 73.5803 132.186 73.7137 132.186C71.8458 133.526 70.3782 136.072 70.1113 138.216C70.3782 136.206 71.9792 135.402 74.114 136.608C73.8471 136.474 77.3161 138.484 77.3161 138.484C79.5843 139.824 83.0532 139.824 85.3214 138.484L200.331 71.752C202.599 70.412 202.599 68.402 200.331 67.062Z" fill="#0064B7"/>
<path d="M253.299 128.568V167.16C253.299 169.706 251.431 172.922 249.297 174.128L246.095 176.004C244.76 176.674 243.026 177.076 241.425 176.942C240.224 176.942 239.023 176.54 238.223 176.004L201.132 154.43C198.997 153.09 197.129 150.008 197.129 147.462V108.87C197.129 106.324 198.997 103.108 201.132 101.902L208.336 97.614L249.43 121.466C251.431 122.94 253.299 126.022 253.299 128.568Z" fill="#023EA1"/>
<path d="M208.203 97.748L200.999 101.902C198.864 103.242 198.864 105.252 200.999 106.592L238.09 128.166C240.224 129.506 242.092 132.588 242.092 135.134V173.86C242.092 176.406 243.96 177.478 246.095 176.138L249.297 174.262C251.432 172.922 253.3 169.84 253.3 167.294V128.568C253.3 126.022 251.432 122.806 249.297 121.6L208.203 97.748Z" fill="#0549AA"/>
<path d="M241.958 135.134V173.726C241.958 176.272 243.826 177.344 245.961 176.004L249.163 174.128C251.298 172.788 253.166 169.706 253.166 167.16V128.568C253.166 127.228 252.765 125.888 251.965 124.682L240.624 131.248C241.558 132.454 241.958 133.794 241.958 135.134Z" fill="#0064B7"/>
<path d="M240.357 177.076C239.957 177.88 239.423 178.684 238.89 179.22C238.089 180.158 236.221 181.23 235.154 181.9C221.011 190.074 160.571 225.182 146.429 233.356C145.361 234.026 143.493 234.026 142.426 233.356L129.351 225.718L103.2 210.576C100.932 209.236 99.1973 206.288 99.1973 203.876C99.1973 201.464 101.065 198.516 103.2 197.176L118.01 188.6L129.351 182.034L191.925 145.72C192.993 145.05 194.46 144.782 195.928 144.782C197.396 144.782 198.863 145.05 199.931 145.72L237.022 167.294C239.29 168.634 241.024 171.582 241.024 173.994C241.024 175.066 240.758 176.004 240.357 177.076Z" fill="#1A2E35"/>
<path d="M146.428 224.646L239.156 170.912C240.223 170.242 241.157 170.778 241.157 172.118V176.138C241.157 177.478 240.223 178.952 239.156 179.622L146.428 233.49C145.361 234.16 144.427 233.624 144.427 232.284V228.264C144.427 226.79 145.227 225.316 146.428 224.646Z" fill="#023EA1"/>
<path d="M191.925 125.888L103.2 177.344C100.932 178.684 99.1973 181.766 99.1973 184.312V192.486C99.1973 195.032 101.065 198.248 103.2 199.454L140.291 221.028C142.559 222.368 146.028 222.368 148.296 221.028L236.888 169.572C239.157 168.232 240.891 165.15 240.891 162.604V154.43C240.891 151.884 239.023 148.668 236.888 147.462L199.797 125.888C197.796 124.682 194.193 124.682 191.925 125.888Z" fill="#023EA1"/>
<path d="M144.428 204.546V221.966C142.96 221.966 141.492 221.698 140.425 221.028L103.334 199.588C101.066 198.248 99.3311 195.166 99.3311 192.62V184.446C99.3311 182.034 100.932 179.22 102.933 177.746C101.066 179.086 101.332 180.962 103.334 182.168L140.425 203.608C141.492 204.144 142.96 204.546 144.428 204.546Z" fill="#1A2E35"/>
<path d="M148.43 203.474L237.022 152.018C239.29 150.678 239.29 148.668 237.022 147.328L199.931 125.754C197.663 124.414 194.194 124.414 191.926 125.754L103.2 177.21C100.932 178.55 100.932 180.56 103.2 181.9L140.291 203.474C142.56 204.814 146.162 204.814 148.43 203.474Z" fill="#0064B7"/>
<path d="M183.118 196.238H175.78V208.968H183.118V196.238Z" fill="#FFBD99"/>
<path d="M176.314 205.484L175.781 204.01C175.781 205.618 174.847 207.494 174.313 208.432C173.512 209.772 172.712 211.112 171.778 212.452C170.711 213.792 169.643 215.266 168.309 216.472C167.642 217.142 167.108 217.812 166.441 218.214C165.641 218.75 164.707 219.152 163.906 219.688C163.773 219.688 163.639 219.822 163.506 220.09C163.506 220.224 163.506 220.358 163.506 220.492C163.506 221.564 164.44 222.502 165.507 222.636C165.641 222.636 165.641 222.636 165.774 222.636L165.907 222.77C166.308 223.306 166.975 223.574 167.509 223.842C169.376 224.512 171.645 224.512 173.512 223.842C174.18 223.574 174.713 223.306 175.247 222.904C176.715 221.832 177.649 220.358 178.583 219.018C179.516 217.678 180.05 216.07 181.118 214.596C182.051 213.39 183.919 212.318 184.453 210.844C184.72 210.04 184.453 208.834 183.786 207.494C183.386 206.422 183.119 205.752 183.119 204.144C183.119 204.278 183.119 204.948 183.119 204.948C182.585 205.618 180.984 206.154 179.25 206.288C178.182 206.288 176.314 206.288 176.314 205.484Z" fill="#FFBD99"/>
<path d="M130.551 184.178C132.285 183.776 135.221 184.178 136.688 182.302C137.889 180.828 137.356 179.354 137.089 177.746C136.688 175.2 137.622 172.922 138.423 170.644C138.423 170.51 138.556 170.376 138.423 170.242C138.423 170.108 138.156 170.108 138.023 169.974C136.288 169.438 134.42 169.304 132.552 169.304C132.419 169.304 132.152 169.304 131.885 169.438C131.618 169.572 131.485 169.706 131.352 169.974C130.284 171.314 129.217 172.654 128.149 173.994C126.548 175.87 124.68 177.478 122.546 178.684C119.61 180.292 116.408 181.23 113.34 182.302C112.806 182.436 112.272 182.838 112.005 183.374C111.872 183.91 112.139 184.312 112.539 184.714C114.007 186.59 116.408 187.26 118.676 187.394C119.744 187.394 120.678 187.26 121.879 187.26C123.213 187.26 124.68 186.992 126.015 186.59C127.616 185.518 129.083 184.58 130.551 184.178Z" fill="#FFBD99"/>
<path d="M187.522 127.228C187.522 127.228 180.451 126.156 175.648 125.754C154.567 124.28 150.298 123.744 147.496 126.424C145.094 128.702 130.685 170.108 130.685 170.108C132.019 173.056 137.622 173.324 137.622 173.324C137.622 173.324 148.029 158.584 152.432 150.41C154.434 146.658 156.568 140.494 156.568 140.494L183.253 144.648C178.316 147.998 169.644 155.1 169.243 156.708C168.576 159.254 170.044 165.954 172.179 179.22C173.513 187.796 175.247 199.454 175.247 199.454C178.45 201.464 182.986 199.454 182.986 199.454C182.986 199.454 185.121 184.044 185.121 177.21C185.121 169.438 183.653 164.346 183.653 164.346C183.653 164.346 190.724 161.13 199.263 157.78C210.07 153.492 215.941 148.4 217.809 139.556L187.522 127.228Z" fill="#DE051F"/>
<path opacity="0.1" d="M183.385 144.916L188.055 141.968C188.055 141.968 186.054 140.762 184.72 138.082C184.053 140.762 184.453 142.504 184.453 142.504C176.181 143.174 156.701 140.762 156.701 140.762L183.385 144.916Z" fill="black"/>
<path d="M196.328 89.306C193.393 89.306 189.79 93.594 186.055 100.294C182.185 107.128 176.448 123.342 176.448 123.342L185.521 128.702L196.328 89.306Z" fill="#FFBD99"/>
<path d="M198.863 88.502C192.459 88.368 190.324 90.646 187.656 95.068C184.987 99.356 180.451 109.54 180.451 109.54C180.451 109.54 184.721 115.436 191.258 114.632C197.529 113.694 198.863 88.502 198.863 88.502Z" fill="#0064B7"/>
<path d="M217.275 91.45C217.275 91.45 220.477 96.274 220.477 102.706L221.811 116.374C221.144 127.496 220.611 131.918 218.609 139.958C214.073 141.566 192.859 139.154 187.389 127.228C187.389 127.228 188.723 111.952 190.591 101.232C191.925 93.862 193.393 88.368 200.597 88.234L209.804 89.574L217.275 91.45Z" fill="#0083F9"/>
<path d="M197.529 77.782C203.056 77.782 207.536 73.2825 207.536 67.732C207.536 62.1815 203.056 57.682 197.529 57.682C192.003 57.682 187.522 62.1815 187.522 67.732C187.522 73.2825 192.003 77.782 197.529 77.782Z" fill="#160C56"/>
<path d="M213.939 73.762C213.939 73.762 212.472 80.998 211.804 82.204C211.137 83.41 209.937 83.678 209.937 83.678L210.07 78.586L213.939 73.762Z" fill="#160C56"/>
<path d="M212.071 63.444C212.071 63.444 213.672 63.176 215.007 64.516C216.341 65.856 215.54 69.876 213.939 73.896L211.004 74.298L212.071 63.444Z" fill="#160C56"/>
<path d="M210.204 74.164C210.871 74.566 211.538 73.36 212.338 72.69C213.006 72.02 215.407 70.948 216.608 73.36C217.809 75.906 215.541 79.122 213.673 79.792C210.471 80.73 210.07 78.72 210.07 78.72L209.803 90.244C207.135 93.326 197.662 92.656 199.53 89.976V86.492C199.53 86.492 196.595 86.894 195.26 86.76C192.859 86.358 191.391 84.616 190.724 82.07C189.523 78.05 189.123 74.7 190.057 66.66C191.124 57.816 201.264 57.816 206.735 61.3C212.338 64.516 210.204 74.164 210.204 74.164Z" fill="#FFBD99"/>
<path d="M186.321 60.764C186.321 61.3 186.722 61.836 187.122 62.238C188.856 63.98 191.124 65.052 193.526 65.454C195.794 65.856 197.929 65.454 200.197 65.454C202.065 65.454 203.933 65.32 205.801 65.052C206.201 64.65 206.335 64.65 206.468 64.65C207.535 64.516 207.802 65.588 208.336 68.402C208.87 70.948 209.27 75.236 210.204 75.236C210.471 75.236 211.538 73.36 212.338 72.69C212.472 72.556 212.605 72.154 212.605 72.02C213.006 70.144 212.605 68 212.338 66.258C212.338 65.454 212.205 64.784 212.072 63.98C211.938 63.042 212.339 62.104 212.472 61.166C212.472 60.362 212.339 59.558 211.805 58.888C211.405 58.352 211.004 58.084 210.471 57.816C204.333 53.394 187.389 51.786 186.321 60.764Z" fill="#160C56"/>
<path d="M199.53 86.358C199.53 86.358 204.734 85.286 206.602 84.348C207.802 83.678 208.87 82.606 209.137 81.802C209.137 81.802 208.736 83.41 207.669 84.75C206.335 86.492 199.53 87.698 199.53 87.698V86.358Z" fill="#FFAA80"/>
<path d="M168.176 128.702L167.375 128.166L180.05 113.694L204.066 127.496L204.733 128.702H168.176Z" fill="#08042D"/>
<path d="M204.733 128.702L180.317 114.632L168.176 128.702L191.258 139.288L204.733 128.702Z" fill="#14094F"/>
<path d="M168.176 128.702L165.774 127.362C165.107 126.96 164.707 126.29 164.707 125.62L164.307 108.602L165.107 108.066L165.507 126.29L168.042 127.764V128.702H168.176Z" fill="#14094F"/>
<path d="M165.107 108.066L178.049 115.838L167.909 127.63L165.508 126.29L165.107 108.066Z" fill="#08042D"/>
<path d="M165.774 110.21L166.175 126.022L168.176 127.228L175.114 119.188L165.774 110.21Z" fill="#ECECEC"/>
<path d="M167.642 125.486C167.642 125.486 168.71 121.332 167.509 116.776C166.308 112.22 165.774 110.21 165.774 110.21L177.249 116.776L175.114 119.322C169.644 122.404 168.309 124.146 167.642 125.486Z" fill="#FAFAFA"/>
<path d="M208.069 131.784C205.801 131.784 202.332 131.65 199.797 132.052C198.463 132.186 197.129 132.454 195.661 132.588C193.393 132.722 191.125 132.722 187.256 129.908C185.921 128.97 185.121 126.692 185.654 125.218C185.654 125.084 185.788 124.95 185.788 124.682C185.788 124.414 185.788 124.414 185.788 124.146C185.788 123.878 186.055 123.61 186.455 123.476C186.722 123.476 187.122 123.476 187.389 123.476C188.857 123.744 190.458 124.146 191.925 124.414C193.26 124.682 194.861 125.084 196.061 124.28C196.061 124.28 196.195 124.28 196.195 124.146V124.012C195.661 123.208 194.594 122.806 193.927 122.136C193.26 121.466 193.126 120.394 193.26 119.59C193.26 119.59 193.26 119.456 193.393 119.456C193.393 119.456 193.526 119.456 193.66 119.456C194.727 119.992 195.795 120.662 196.995 120.93C198.063 121.198 199.13 121.466 200.064 122.002C201.398 122.806 202.199 124.146 203.933 124.548C207.936 125.62 221.545 122.94 221.545 122.94L216.341 104.314C216.341 104.314 212.472 92.388 217.542 91.584C218.076 91.45 222.345 91.316 225.281 98.284C228.483 105.52 231.552 122.672 231.952 125.62C232.352 128.568 231.552 129.908 226.481 130.98C221.278 131.784 209.67 131.918 208.069 131.784Z" fill="#FFBD99"/>
<path d="M214.34 90.646C214.34 90.646 219.543 90.11 222.612 92.79C225.681 95.47 229.016 108.2 229.95 111.148C229.95 111.148 227.815 114.364 218.876 115.57C218.743 115.57 211.805 94.13 214.34 90.646Z" fill="#0064B7"/>
<path d="M176.982 115.168C176.448 113.828 175.114 112.354 174.18 111.416C172.979 110.344 172.045 109.004 171.378 110.076C170.844 110.88 171.378 111.818 171.378 111.818L176.982 115.168Z" fill="#FFBD99"/>
<path d="M130.285 238.582V199.99C130.285 197.444 128.417 194.228 126.282 193.022L85.1883 169.17L81.9862 145.452C81.586 142.906 79.5846 139.824 77.4499 138.484L74.2478 136.608C72.113 135.268 70.2451 136.34 70.2451 138.886V203.742C70.2451 206.288 72.113 209.504 74.2478 210.71L126.416 240.86C128.417 242.2 130.285 241.128 130.285 238.582Z" fill="#023EA1"/>
<path d="M141.492 193.424V232.016C141.492 232.016 141.492 232.15 141.492 232.284C141.359 234.83 139.624 237.778 137.49 238.984L134.287 240.86C134.154 240.86 134.154 240.994 134.021 240.994H133.887C133.754 240.994 133.62 241.128 133.62 241.128C131.886 241.798 129.618 241.798 127.75 241.262C127.483 241.262 127.216 241.128 127.083 240.994C128.951 241.798 130.552 240.726 130.552 238.448V199.856C130.552 197.31 128.684 194.094 126.549 192.888L119.344 188.6L85.4551 169.036L92.6598 164.748C94.7946 163.408 98.397 163.408 100.665 164.748L130.552 182.034L137.756 186.188C139.758 187.662 141.492 190.878 141.492 193.424Z" fill="#0549AA"/>
<path d="M130.284 199.99V238.582C130.284 240.86 128.817 241.932 126.815 241.128C127.082 241.262 127.349 241.262 127.483 241.396C129.35 242.066 131.619 241.932 133.353 241.262C133.487 241.262 133.62 241.262 133.62 241.128H133.753C133.887 241.128 133.887 240.994 134.02 240.994L137.222 239.118C139.357 237.778 141.092 234.964 141.225 232.418C141.225 232.418 141.225 232.284 141.225 232.15V193.558C141.225 192.218 140.825 190.878 140.024 189.672L128.683 196.238C129.751 197.176 130.284 198.65 130.284 199.99Z" fill="#0064B7"/>
<path d="M45.2945 212.05C52.8106 212.05 58.9036 210.61 58.9036 208.834C58.9036 207.058 52.8106 205.618 45.2945 205.618C37.7785 205.618 31.6855 207.058 31.6855 208.834C31.6855 210.61 37.7785 212.05 45.2945 212.05Z" fill="#E9E8EE"/>
<path d="M25.1482 169.974C25.1482 169.974 27.8167 168.902 27.5498 165.82C27.283 162.738 25.8153 160.594 29.0175 161.532C32.2196 162.47 33.287 162.872 35.6885 162.336C38.0901 161.8 39.958 160.862 38.8907 163.944C37.8233 167.026 36.7559 169.572 39.1575 169.974C41.5591 170.51 44.2275 168.634 44.4944 173.324C44.7612 178.014 41.0254 183.508 34.7546 183.642C28.4838 183.776 25.8154 181.23 25.8154 181.23C25.8154 181.23 24.2143 178.818 26.7493 178.282C29.2843 177.612 31.9527 176.54 30.6185 175.334C29.2843 174.128 25.0148 173.994 25.0148 173.994C25.0148 173.994 19.8114 173.056 25.1482 169.974Z" fill="#649EEA"/>
<path d="M53.4333 170.644C53.033 167.562 53.2999 165.418 58.9036 164.614C64.5073 163.81 67.8428 167.16 68.1097 170.644C68.5099 174.128 63.5733 175.334 63.5733 175.334C63.5733 175.334 60.1044 176.272 61.8388 179.354C63.5733 182.436 64.3738 185.384 60.3712 185.786C56.3686 186.188 52.0991 185.116 49.5641 183.508C47.029 181.9 44.6275 177.746 47.4293 175.602C47.4293 175.602 48.2298 175.066 50.8983 174.932C53.7001 174.932 53.4333 170.644 53.4333 170.644Z" fill="#023EA1"/>
<path d="M33.6875 170.242C33.6875 170.242 38.3573 180.828 39.0244 188.064" stroke="#83DAFF" stroke-miterlimit="10" stroke-linecap="round" stroke-linejoin="round"/>
<path d="M59.5713 171.984C59.5713 171.984 51.2992 184.312 49.2979 188.466" stroke="#579FD5" stroke-miterlimit="10" stroke-linecap="round" stroke-linejoin="round"/>
<path d="M36.089 187.126H55.0348C55.0348 187.126 57.0362 187.26 56.9027 190.074C56.7693 192.62 53.4338 192.084 51.6993 192.084C49.9648 192.084 35.6887 192.084 35.6887 192.084C35.6887 192.084 33.2871 192.486 33.2871 189.806C33.4205 187.394 34.3545 187.126 36.089 187.126Z" fill="#0054A5"/>
<path d="M35.6885 192.218L38.6238 209.102H51.2988L53.4335 196.372L35.6885 192.218Z" fill="#0054A5"/>
<path d="M35.6885 192.218L53.4335 196.372L54.2341 192.218H35.6885Z" fill="#006AD5"/>
<path d="M43.96 187.796C43.96 187.796 44.8939 169.17 50.4976 157.512Z" fill="#FCBE42"/>
<path d="M54.9014 150.678C54.9014 150.678 55.435 156.44 49.8313 158.584C49.8313 158.718 48.6306 153.76 54.9014 150.678Z" fill="#FCBE42"/>
<path d="M46.6289 168.902C46.6289 168.902 48.6302 163.944 54.901 164.614C54.901 164.748 54.5008 169.572 46.6289 168.902Z" fill="#FCBE42"/>
<path d="M44.4941 181.23C44.4941 181.23 45.5615 176.004 51.8323 175.468C51.8323 175.468 52.366 180.292 44.4941 181.23Z" fill="#FCBE42"/>
<path d="M44.3607 181.23C44.3607 181.23 45.0278 176.004 39.2907 173.324C39.2907 173.324 37.1559 177.746 44.3607 181.23Z" fill="#FCBE42"/>
<path d="M46.6292 168.902C46.6292 168.902 47.9634 163.81 42.6266 160.46C42.76 160.326 40.0916 164.48 46.6292 168.902Z" fill="#FCBE42"/>
</svg>
