<svg width="445" height="305" viewBox="0 0 445 305" fill="none" xmlns="http://www.w3.org/2000/svg">
<path d="M338.245 236.231C338.245 236.231 338.228 239.607 336.808 244.021L330.915 247.315L335.855 247.496C331.782 260.717 320.62 280.202 289.722 279.783C289.797 280.485 270.972 246.1 338.245 236.231Z" fill="#FABD41"/>
<path d="M332.323 256.931L307.51 262.074L338.245 236.231" stroke="white" stroke-width="1.21301" stroke-miterlimit="10"/>
<path d="M317.195 241.15L307.512 262.075" stroke="white" stroke-width="1.21301" stroke-miterlimit="10"/>
<path d="M316.528 217.249C316.528 217.249 307.73 212.864 306.535 217.609C305.34 222.354 303.075 222.419 300.605 222.328C298.135 222.238 293.979 220.552 293.009 225.628C292.057 230.879 293.873 233.703 291.61 235.544C289.346 237.384 282.858 247.49 288.079 248.529C293.114 249.588 298.502 245.104 300.334 242.777C302.148 240.275 306.453 239.814 309.709 240.175C313.34 240.497 317.493 238.631 315.583 234.929C313.672 231.228 315.504 227.125 318.423 226.102C321.491 224.708 322.705 220.139 316.528 217.249Z" fill="#1C4599"/>
<path d="M312.694 222.098L287.127 252.004" stroke="white" stroke-width="1.21301" stroke-miterlimit="10" stroke-linecap="round" stroke-linejoin="round"/>
<path d="M299.09 225.864L302.257 234.226L312.326 234.568" stroke="white" stroke-width="1.21301" stroke-miterlimit="10" stroke-linecap="round" stroke-linejoin="round"/>
<path d="M325.291 228.384C325.291 228.384 325.818 233.3 322.056 231.75C318.293 230.199 315.842 230.284 314.739 234.131C313.637 237.978 311.355 239.643 308.847 239.202C306.339 238.76 302.221 237.425 301.064 242.521C299.925 247.793 296.636 257.733 302.7 259.57C308.577 261.426 316.997 256.973 318.118 253.302C319.22 249.455 317.366 246.28 321.538 244.59C325.71 242.9 327.097 247.013 330.539 243.803C333.981 240.594 338.209 237.655 334.763 231.987C331.373 226.845 325.571 225.691 325.291 228.384Z" stroke="#ED3B4E" stroke-width="1.21301" stroke-miterlimit="10"/>
<path d="M326.793 233.55C326.793 233.55 304.028 254.278 296.675 258.084" stroke="#ED3B4E" stroke-width="1.21301" stroke-miterlimit="10"/>
<path d="M307.504 242.542L307.751 250.15L314.376 251.927" stroke="#ED3B4E" stroke-width="1.21301" stroke-miterlimit="10"/>
<path d="M319.252 233.825L320.247 239.579L325.581 241.671" stroke="#ED3B4E" stroke-width="1.21301" stroke-miterlimit="10"/>
<path d="M276.396 169.726C251.356 163.017 236.509 137.232 243.234 112.134C249.959 87.0359 275.709 72.1292 300.75 78.8387C325.79 85.5482 340.637 111.333 333.912 136.431C327.187 161.529 301.437 176.436 276.396 169.726Z" stroke="#DD1F26" stroke-width="1.21301" stroke-miterlimit="10" stroke-dasharray="7.28 7.28"/>
<path d="M330.262 112.425C327.111 111.581 325.243 108.336 326.089 105.177C326.935 102.018 330.176 100.142 333.327 100.987C336.479 101.831 338.347 105.076 337.501 108.235C336.654 111.393 333.414 113.269 330.262 112.425Z" fill="#24499F"/>
<path d="M333.477 109.361L329.419 106.616L333.362 104.857L333.477 109.361Z" fill="white"/>
<path d="M232.922 25.2685C232.922 25.2685 227.133 30.076 232.591 32.231C238.215 34.3861 240.365 37.0384 237.553 42.3432C234.411 47.6479 235.403 51.7923 238.215 53.7815C241.357 55.7708 247.146 58.7547 242.515 65.5514C237.884 72.5139 230.276 86.4388 222.172 82.6261C213.902 78.8133 209.933 65.2199 213.241 59.9151C216.548 54.6104 222.006 53.1184 219.195 46.9848C216.714 40.8512 210.925 43.8351 210.76 36.7069C210.594 29.4129 209.602 21.9531 219.691 19.6323C228.291 17.4772 235.238 21.7873 232.922 25.2685Z" stroke="#1C4599" stroke-width="1.21301" stroke-miterlimit="10"/>
<path d="M224.985 29.911C224.985 29.911 225.978 75.8302 228.624 87.2685" stroke="#1C4599" stroke-width="1.21301" stroke-miterlimit="10"/>
<path d="M235.239 58.9212L226.473 67.2099L217.707 62.4025" stroke="#1C4599" stroke-width="1.21301" stroke-miterlimit="10"/>
<path d="M232.758 37.5359L225.646 42.6749L217.542 39.5252" stroke="#1C4599" stroke-width="1.21301" stroke-miterlimit="10"/>
<path d="M252.274 25.7665C252.274 25.7665 266.167 30.0766 262.363 36.376C258.228 42.5096 260.543 45.162 263.355 47.4828C265.836 49.8036 272.286 52.456 267.49 58.7554C262.693 65.0548 257.897 66.381 258.228 70.6911C258.559 75.0012 254.093 92.4073 247.643 88.4288C241.027 84.616 240.531 74.1723 241.523 69.5306C242.516 65.2205 238.381 60.2473 234.577 56.9319C230.773 53.7822 228.623 47.4828 234.411 45.4935C240.365 43.3385 243.177 37.2049 241.358 32.8948C238.712 28.9162 242.846 23.1142 252.274 25.7665Z" fill="#FABD41"/>
<path d="M250.95 35.2155L244.004 94.065" stroke="white" stroke-width="1.21301" stroke-miterlimit="10" stroke-linecap="round" stroke-linejoin="round"/>
<path d="M260.709 53.2849L247.973 59.0869L237.058 49.8036" stroke="white" stroke-width="1.21301" stroke-miterlimit="10" stroke-linecap="round" stroke-linejoin="round"/>
<path d="M187.111 33.8889C187.111 33.8889 181.487 29.7445 185.126 24.9371C188.599 20.1297 197.53 20.1297 199.35 24.7713C201.334 29.0814 198.688 32.3969 202.657 33.06C206.461 33.7231 216.881 37.2043 214.896 42.1775C212.746 47.1507 206.627 47.4823 209.273 54.1132C211.754 60.7441 224.655 61.9045 218.039 71.1878C211.423 80.3053 196.042 92.9041 188.103 77.1556C180.495 61.4072 197.365 64.5569 188.268 54.4447C179.172 44.3326 186.78 44.001 189.261 40.1882C191.576 35.8781 187.111 33.8889 187.111 33.8889Z" fill="#ED3B4E"/>
<path d="M197.529 39.6909C197.529 39.6909 198.522 57.926 204.807 73.0113C211.091 88.0967 215.061 90.086 215.061 90.086" stroke="white" stroke-width="1.21301" stroke-miterlimit="10" stroke-linecap="round" stroke-linejoin="round"/>
<path d="M160.068 63.2118C157.981 63.2118 156.272 64.5397 156.272 66.5315V290.118C156.272 291.944 157.981 293.438 160.068 293.438H297.29C299.378 293.438 301.086 292.11 301.086 290.118V66.1996C301.086 64.3737 299.378 62.8798 297.29 62.8798H160.068V63.2118Z" fill="#1466B1"/>
<path d="M295.371 78.123H161.99V279.147H295.371V78.123Z" fill="white" stroke="#1466B1" stroke-width="2.42603" stroke-miterlimit="10"/>
<rect x="174.376" y="90.5086" width="104.799" height="15.2435" rx="7.62175" fill="#EC384E"/>
<path d="M246.146 71.1228C246.146 72.1175 245.484 72.6148 244.657 72.6148H216.871C215.879 72.6148 215.383 71.9517 215.383 71.1228C215.383 70.1282 216.044 69.6309 216.871 69.6309H244.657C245.153 69.6309 246.146 70.1282 246.146 71.1228Z" fill="white"/>
<path d="M350.491 165.773L342.051 168.146L344.418 176.606L352.858 174.234L350.491 165.773Z" fill="#ED3B4E"/>
<path d="M123.922 77.4428L115.481 79.815L117.848 88.275L126.289 85.9028L123.922 77.4428Z" fill="#24499F"/>
<path d="M144.783 31.985C144.783 31.985 144.617 31.8192 144.452 31.985L141.971 32.3165C141.64 32.3165 141.309 32.1508 140.979 31.985C140.813 30.6588 139.986 29.6642 139.656 28.5038C139.49 28.338 139.656 27.8407 139.821 27.5091L141.806 26.0172C141.806 26.0172 141.971 25.8514 141.971 25.6856C141.971 25.5198 141.971 25.5198 141.806 25.3541L138.498 22.2044C138.498 22.2044 138.332 22.0386 138.167 22.0386C138.002 22.0386 138.002 22.0386 137.836 22.2044L136.348 24.1937C136.182 24.3594 135.686 24.5252 135.355 24.3594C134.198 23.6963 133.205 23.199 131.882 23.0332C131.551 23.0332 131.221 22.7017 131.551 22.0386L131.882 19.552C131.882 19.3862 131.882 19.3862 131.882 19.2205C131.882 19.2205 131.717 19.0547 131.551 19.0547H127.417C127.251 19.0547 127.251 19.0547 127.086 19.2205C127.086 19.2205 126.92 19.3862 127.086 19.552L127.417 22.0386C127.417 22.3702 127.251 22.7017 127.086 23.0332C125.763 23.199 124.77 24.0279 123.613 24.3594C123.447 24.5252 122.951 24.3594 122.62 24.1937L121.132 22.2044C121.132 22.2044 120.966 22.0386 120.801 22.0386C120.635 22.0386 120.635 22.0386 120.47 22.2044L117.493 25.5198C117.493 25.5198 117.328 25.6856 117.328 25.8514C117.328 26.0172 117.328 26.0172 117.493 26.1829L119.478 27.6749C119.643 27.8407 119.809 28.338 119.643 28.6695C118.982 29.8299 118.485 30.8246 118.32 32.1508C118.32 32.4823 117.989 32.8139 117.328 32.4823L114.847 32.1508C114.681 32.1508 114.681 32.1508 114.516 32.1508C114.516 32.1508 114.351 32.3165 114.351 32.4823V36.6266C114.351 36.7924 114.351 36.7924 114.516 36.9582C114.516 36.9582 114.681 37.124 114.847 36.9582L117.328 36.6266C117.658 36.6266 117.989 36.7924 118.32 36.9582C118.485 38.2844 119.312 39.279 119.643 40.4394C119.809 40.6052 119.643 41.1025 119.478 41.4341L117.493 42.7602C117.493 42.7602 117.328 42.926 117.328 43.0918C117.328 43.2576 117.328 43.2576 117.493 43.4233L120.635 46.573C120.635 46.573 120.801 46.7388 120.966 46.7388C121.132 46.7388 121.132 46.7388 121.297 46.573L122.786 44.5838C122.951 44.418 123.447 44.2522 123.778 44.418C124.936 45.0811 125.928 45.5784 127.251 45.7442C127.582 45.7442 127.913 46.0757 127.582 46.7388L127.251 49.2254C127.251 49.3912 127.251 49.3912 127.251 49.5569C127.251 49.5569 127.417 49.7227 127.582 49.7227H131.717C131.882 49.7227 131.882 49.7227 132.048 49.5569C132.048 49.5569 132.213 49.3912 132.048 49.2254L131.551 46.9046C131.551 46.573 131.717 46.2415 131.882 45.9099C133.205 45.7442 134.198 44.9153 135.355 44.5838C135.521 44.418 136.017 44.5838 136.348 44.7495L137.836 46.7388C137.836 46.7388 138.002 46.9046 138.167 46.9046C138.332 46.9046 138.332 46.9046 138.498 46.7388L141.64 43.5891C141.64 43.5891 141.806 43.4233 141.806 43.2576C141.806 43.0918 141.806 43.0918 141.64 42.926L139.821 41.2683C139.656 41.1025 139.49 40.6052 139.656 40.2736C140.317 39.1132 140.813 38.1186 140.979 36.7924C140.979 36.4609 141.31 36.1293 141.971 36.4609L144.452 36.7924C144.617 36.7924 144.617 36.7924 144.783 36.7924C144.783 36.7924 144.948 36.6266 144.948 36.4609V32.3165C144.783 32.4823 144.783 32.3165 144.783 31.985ZM143.956 36.2951L141.806 36.1293C140.813 36.1293 139.986 36.4609 139.821 37.4555C139.656 38.6159 139.159 39.6106 138.498 40.6052C138.167 41.5998 138.332 42.4287 138.829 42.7602L140.317 43.9207L138.167 46.0757L137.009 44.5838C136.679 43.9207 135.521 43.5891 134.859 44.2522C133.867 44.9153 132.874 45.4126 131.717 45.5784C130.724 45.7442 130.228 46.7388 130.394 47.5677L130.559 49.7227H127.417L127.582 47.5677C127.582 46.573 127.251 45.7442 126.259 45.5784C125.101 45.4126 124.109 44.9153 123.116 44.2522C122.124 43.9207 121.297 44.0864 120.966 44.5838L119.809 46.0757L117.658 43.9207L119.147 42.7602C119.809 42.4287 120.139 41.2683 119.478 40.6052C118.816 39.6106 118.32 38.6159 118.155 37.4555C117.989 36.4609 116.997 35.9635 116.17 36.1293L114.681 36.2951V33.1454L116.831 33.3112C117.824 33.3112 118.651 32.9796 118.816 31.985C118.982 30.8246 119.478 29.8299 120.139 28.8353C120.47 27.8407 120.305 27.0118 119.809 26.6803L118.32 25.5198L120.801 23.3648L121.793 24.8567C122.124 25.5198 123.282 25.8514 123.943 25.1883C124.936 24.5252 125.928 24.0279 127.086 23.8621C128.078 23.6963 128.574 22.7017 128.409 21.8728L128.244 19.7178H131.386L131.221 21.8728C131.221 22.8675 131.551 23.6963 132.544 23.8621C133.701 24.0279 134.694 24.5252 135.686 25.1883C136.513 25.6856 137.34 25.5198 137.671 24.8567L138.829 23.3648L140.979 25.5198L138.994 26.6803C138.332 27.0118 138.002 28.1722 138.663 28.8353C139.325 29.8299 139.821 30.8246 139.986 31.985C140.152 32.9796 141.144 33.477 141.971 33.3112L144.121 33.1454V36.2951H143.956Z" stroke="#24499F" stroke-width="1.21301" stroke-miterlimit="10"/>
<path d="M129.071 27.3435C124.936 27.3435 121.794 30.6589 121.794 34.6375C121.794 38.616 125.102 41.9315 129.071 41.9315C133.206 41.9315 136.348 38.616 136.348 34.6375C136.348 30.6589 133.371 27.3435 129.071 27.3435ZM129.071 40.9369C125.598 40.9369 122.952 38.1187 122.952 34.8033C122.952 31.4878 125.763 28.6697 129.071 28.6697C132.379 28.6697 135.191 31.4878 135.191 34.8033C135.191 38.1187 132.544 40.9369 129.071 40.9369Z" stroke="#24499F" stroke-width="1.21301" stroke-miterlimit="10"/>
<path d="M321.122 34.6465H308.883C308.717 34.6465 308.552 34.8123 308.552 34.9781V39.9513V40.117L309.875 41.4432H310.04H319.137H319.302L320.625 40.117V39.9513V34.9781C321.452 34.8123 321.452 34.6465 321.122 34.6465ZM320.625 39.6197L319.302 40.9459H310.702L309.379 39.6197V35.3096H320.625V39.6197Z" fill="#24499F"/>
<path d="M321.783 35.9729L308.22 36.636C308.055 36.636 307.89 36.8018 307.89 36.9675C307.89 37.1333 308.055 37.2991 308.22 37.2991L321.783 36.636C321.948 36.636 322.113 36.4702 322.113 36.3044C322.279 36.1387 322.113 35.9729 321.783 35.9729Z" fill="#24499F"/>
<path d="M321.783 38.1274L308.22 38.7905C308.055 38.7905 307.89 38.9562 307.89 39.122C307.89 39.2878 308.055 39.4536 308.22 39.4536L321.783 38.7905C321.948 38.7905 322.113 38.6247 322.113 38.4589C322.279 38.2932 322.113 38.1274 321.783 38.1274Z" fill="#24499F"/>
<path d="M315.167 10.609C308.386 10.609 302.928 16.0795 302.928 22.8762C302.928 27.0206 305.078 30.8334 308.551 33.1542V35.3092C308.551 35.475 308.716 35.6408 308.882 35.6408H321.121C321.286 35.6408 321.452 35.475 321.452 35.3092V33.1542C324.925 30.9991 327.075 27.1863 327.075 22.8762C327.075 16.0795 321.782 10.609 315.167 10.609ZM321.121 32.3253L320.955 34.4804H309.709V32.4911C309.709 32.4911 309.709 32.3253 309.543 32.3253C306.07 30.1703 304.085 26.689 304.085 22.7105C304.085 16.5769 309.378 11.4379 315.332 11.4379C321.452 11.4379 326.579 16.7426 326.579 22.7105C326.413 26.689 324.429 30.1703 321.121 32.3253Z" fill="#24499F"/>
<path d="M318.31 41.1115C318.144 41.1115 317.979 41.1115 317.979 41.2773C317.979 41.2773 317.317 42.6035 315.167 42.6035C313.017 42.6035 312.356 41.4431 312.356 41.2773C312.356 41.1115 312.19 41.1115 312.025 41.1115C311.859 41.1115 311.859 41.2773 311.859 41.4431C311.859 41.4431 312.852 43.2666 315.333 43.2666C317.813 43.2666 318.806 41.7746 318.806 41.4431C318.64 41.4431 318.64 41.2773 318.31 41.1115Z" fill="#24499F"/>
<path d="M299.95 22.2134H292.839C292.673 22.2134 292.508 22.3792 292.508 22.545C292.508 22.7108 292.673 22.8765 292.839 22.8765H299.95C300.116 22.8765 300.281 22.7108 300.281 22.545C300.281 22.2134 300.281 22.2134 299.95 22.2134Z" fill="#DD1F26"/>
<path d="M337.495 22.2134H330.384C330.218 22.2134 330.053 22.3792 330.053 22.545C330.053 22.7108 330.218 22.8765 330.384 22.8765H337.495C337.661 22.8765 337.826 22.7108 337.826 22.545C337.661 22.2134 337.495 22.2134 337.495 22.2134Z" fill="#DD1F26"/>
<path d="M302.265 30.1709C302.265 30.0052 301.935 30.0052 301.935 30.1709L295.98 33.6522C295.815 33.6522 295.815 33.9837 295.98 33.9837C295.98 33.9837 296.146 34.1495 296.311 34.1495C296.311 34.1495 296.311 34.1495 296.477 34.1495L302.431 30.6683C302.265 30.3367 302.265 30.1709 302.265 30.1709Z" fill="#DD1F26"/>
<path d="M334.683 11.2723C334.683 11.1065 334.353 11.1065 334.353 11.2723L328.398 14.7535C328.233 14.7535 328.233 15.0851 328.398 15.0851C328.398 15.0851 328.564 15.2508 328.729 15.2508C328.729 15.2508 328.729 15.2508 328.895 15.2508L334.849 11.7696C334.849 11.6038 334.849 11.4381 334.683 11.2723Z" fill="#DD1F26"/>
<path d="M326.412 2.98376C326.247 2.98376 326.082 2.98376 326.082 2.98376L322.608 8.95159C322.608 9.11736 322.608 9.28314 322.608 9.28314C322.608 9.28314 322.608 9.28314 322.774 9.28314C322.939 9.28314 322.939 9.28314 323.105 9.11736L326.412 2.98376C326.743 3.3153 326.743 2.98376 326.412 2.98376Z" fill="#DD1F26"/>
<path d="M315.166 0C315 0 314.835 0.165774 314.835 0.331547V7.45979C314.835 7.62557 315 7.79134 315.166 7.79134C315.331 7.79134 315.497 7.62557 315.497 7.45979V0.331547C315.331 0.165774 315.331 0 315.166 0Z" fill="#DD1F26"/>
<path d="M307.723 9.28343L304.25 3.3156C304.25 3.14983 303.919 3.14983 303.919 3.3156C303.754 3.3156 303.754 3.64715 303.919 3.64715L307.392 9.61498C307.392 9.61498 307.558 9.78075 307.723 9.78075C307.723 9.78075 307.723 9.78075 307.888 9.78075C307.723 9.61498 307.888 9.28343 307.723 9.28343Z" fill="#DD1F26"/>
<path d="M334.682 33.3207L328.728 29.8395C328.563 29.8395 328.397 29.8395 328.397 30.0053C328.397 30.171 328.397 30.3368 328.397 30.3368L334.352 33.818C334.352 33.818 334.352 33.818 334.517 33.818C334.517 33.818 334.682 33.818 334.848 33.6523C334.848 33.818 334.848 33.6523 334.682 33.3207Z" fill="#DD1F26"/>
<path d="M302.1 14.7538L296.146 11.2726C295.981 11.2726 295.815 11.2726 295.815 11.2726C295.815 11.4384 295.815 11.6042 295.815 11.6042L301.77 15.0854C301.77 15.0854 301.77 15.0854 301.935 15.0854C302.1 15.0854 302.1 15.0854 302.1 14.7538C302.266 14.9196 302.266 14.7538 302.1 14.7538Z" fill="#DD1F26"/>
<path d="M316.323 34.6468V23.2084C316.323 23.2084 316.158 17.7379 319.135 17.7379C322.112 17.7379 320.623 23.3742 315 23.3742" stroke="#24499F" stroke-width="1.21301" stroke-miterlimit="10"/>
<path d="M313.512 34.6469V23.2085C313.512 23.2085 313.678 17.738 310.7 17.738C307.558 17.738 309.212 23.3743 314.835 23.3743" stroke="#24499F" stroke-width="1.21301" stroke-miterlimit="10"/>
<rect x="175.652" y="128.618" width="22.8653" height="20.9598" rx="3.56684" fill="#DDE9F5"/>
<rect x="175.652" y="161.095" width="22.8653" height="20.9598" rx="3.56684" fill="#DDE9F5"/>
<rect x="175.652" y="194.849" width="22.8653" height="20.9598" rx="3.56684" fill="#DDE9F5"/>
<rect x="207.751" y="128.618" width="22.8653" height="20.9598" rx="3.56684" fill="#DDE9F5"/>
<rect x="207.751" y="161.095" width="22.8653" height="20.9598" rx="3.56684" fill="#DDE9F5"/>
<rect x="207.751" y="194.849" width="22.8653" height="20.9598" rx="3.56684" fill="#DDE9F5"/>
<rect x="239.851" y="128.618" width="22.8653" height="20.9598" rx="3.56684" fill="#DDE9F5"/>
<rect x="239.851" y="161.095" width="22.8653" height="20.9598" rx="3.56684" fill="#DDE9F5"/>
<rect x="239.851" y="194.849" width="22.8653" height="20.9598" rx="3.56684" fill="#DDE9F5"/>
<path d="M144.732 190.826C144.732 190.826 140.861 244.42 140.305 253.924C139.741 263.428 137.707 295.444 137.707 295.444H128.2L121.784 190.239L144.732 190.826Z" fill="#DE051F"/>
<path d="M108.961 191.387C108.961 191.387 110.082 218.388 110.583 225.234C111.076 232.08 105.655 255.489 102.564 265.891C99.4634 276.302 95.0996 287.825 95.0996 287.825L102.564 292.092C102.564 292.092 118.684 263.446 124.463 246.545C130.234 229.644 134.535 204.349 133.827 190.097L108.961 191.387Z" fill="#EE384E"/>
<path d="M149.42 153.04L156.669 162.606C156.669 162.606 157.233 163.371 158.577 163.024C159.912 162.678 173.864 157.645 173.864 157.645C173.864 157.645 175.808 156.783 176.328 155.245C176.839 153.707 177.081 153.333 177.385 152.915C177.69 152.498 178.138 152.551 177.878 151.52C177.618 150.497 177.475 150.07 177.475 150.07C177.475 150.07 177.17 149.35 177.779 149.35C178.389 149.35 179.043 149.493 179.383 150.195C179.706 150.897 179.625 152.595 179.625 152.595L182.609 152.711C182.609 152.711 184.437 152.773 184.437 154.667C184.437 156.561 184.437 159.726 184.437 159.726C184.437 159.726 184.697 160.713 183.362 160.713C182.027 160.713 180.62 160.668 180.62 160.668C180.62 160.668 179.5 160.553 177.663 161.877C175.826 163.202 161.848 171.142 161.848 171.142C161.848 171.142 157.018 174.004 153.846 170.999C150.674 167.994 143.712 160.562 143.712 160.562L143.362 158.206L149.42 153.04Z" fill="#FFBF99"/>
<path d="M126.084 127.418C126.084 127.418 125.224 131.703 123.495 135.998C121.765 140.292 120.905 141.999 120.905 141.999C120.905 141.999 126.084 148 131.281 147.138C136.461 146.284 136.461 142.852 136.461 142.852C136.461 142.852 131.703 138.994 131.703 133.846C131.703 128.698 131.703 128.707 131.703 128.707L126.084 127.418Z" fill="#FFB48F"/>
<path d="M137.52 141.866C137.52 141.866 141.821 144.24 143.604 145.743C145.396 147.245 150.566 153.149 150.566 153.149L143.487 159.968L138.559 154.42L137.52 141.866Z" fill="#F79F03"/>
<path d="M123.094 139.855C123.094 139.855 125.684 143.287 129.142 144.14C132.601 144.994 134.322 142.424 134.322 142.424L135.271 141.197C135.271 141.197 136.23 140.45 137.287 141.331C138.345 142.193 140.361 144.416 142.108 148.008C143.864 151.591 144.375 156.498 144.743 167.959C145.11 179.419 144.743 191.786 144.743 191.786H108.999L108.578 173.978C108.578 173.978 112.377 150.293 116.114 145.474C119.85 140.655 120.935 139.606 120.935 139.606C120.935 139.606 121.795 138.432 123.094 139.855Z" fill="#FCBE42"/>
<path d="M136.902 115.833C136.902 115.833 139.492 119.264 139.492 125.275C139.492 131.276 138.632 135.57 136.033 135.57C133.435 135.57 128.247 133.854 127.386 132.138C126.526 130.422 124.797 130.422 124.797 126.999C124.797 123.576 129.116 115.85 132.584 115.85C136.042 115.85 136.902 115.833 136.902 115.833Z" fill="#FFBF99"/>
<path d="M139.489 115.833C139.489 115.833 142.079 108.978 140.35 108.107C138.62 107.253 135.17 108.96 134.301 109.823C133.441 110.676 131.712 110.676 130.842 110.676C130.842 110.676 122.196 110.676 120.466 112.392C118.737 114.108 118.737 114.962 118.737 115.824C118.737 116.678 118.728 120.047 117.877 121.825C117.509 122.599 117.016 126.111 118.737 129.551C120.457 132.983 122.196 133.837 123.056 133.837C123.916 133.837 124.696 133.837 124.785 132.983C124.884 132.059 125.224 130.752 125.645 129.551C126.058 128.404 126.506 126.12 126.506 126.12C126.506 126.12 127.366 121.834 129.095 120.118C130.825 118.402 130.825 118.402 134.274 117.549C137.76 116.704 138.629 118.402 139.489 115.833Z" fill="#170856"/>
<path d="M127.834 122.101C129.116 123.559 127.386 126.128 127.386 126.128C127.386 126.128 124.797 126.982 124.797 124.412C124.797 121.843 126.544 120.634 127.834 122.101Z" fill="#FFBF99"/>
<path d="M110.52 158.197C110.52 158.197 107.276 170.582 107.84 178.344C108.405 186.097 110.726 192.818 112.41 197.495C114.095 202.171 115.089 203.291 115.152 206.234C115.215 209.177 116.604 212.662 118.324 214.414C120.045 216.165 121.424 217.037 121.424 217.037C121.424 217.037 123.467 217.979 123.145 216.094C123.145 216.094 124.516 216.201 123.996 215.152C123.996 215.152 125.824 215.187 124.489 213.756C123.154 212.316 120.69 210.929 120.69 210.929C120.69 210.929 119.283 208.697 121.29 209.817C123.297 210.929 125.053 210.973 123.199 209.159C121.335 207.346 119.184 204.172 117.607 198.366C116.03 192.569 114.158 181.109 116.389 172.307C118.62 163.505 121.442 160.571 121.442 160.571L110.52 158.197Z" fill="#FFBF99"/>
<path d="M102.878 291.513C102.878 291.513 104.598 296.305 106.507 298.51C108.415 300.715 109.921 302.324 109.921 302.324C109.921 302.324 112.143 305.854 109.634 304.805C107.134 303.756 93.2992 294.536 93.2992 294.536C93.2992 294.536 91.3278 293.523 92.2418 291.851C93.1558 290.18 95.4765 286.943 95.4765 286.943L102.878 291.513Z" fill="#170856"/>
<path d="M128.292 302.211C128.292 302.211 127.781 303.607 130.685 303.607C133.588 303.607 149.421 303.607 149.421 303.607C149.421 303.607 152.467 303.002 149.663 301.651C146.84 300.3 138.399 296.53 138.399 296.53C138.399 296.53 137.754 296.361 137.772 294.752H128.185L128.292 302.211Z" fill="#170856"/>
<path d="M124.061 149.946C124.061 149.946 124.671 144.194 120.45 143.643C116.23 143.091 113.551 148.675 112.144 152.302C110.737 155.93 110.029 158.588 110.029 158.588C110.029 158.588 119.106 162.215 121.499 162.215C121.508 162.215 123.524 156.187 124.061 149.946Z" fill="#F79F03"/>
</svg>
