<svg width="445" height="305" viewBox="0 0 445 305" fill="none" xmlns="http://www.w3.org/2000/svg">
<path d="M356.062 249.028C356.062 249.028 371.701 249.949 364.889 250.858C358.079 251.778 348.704 251.778 345.389 251.404C342.086 251.04 353.487 249.21 356.062 249.028Z" fill="#0064B7"/>
<path d="M357.145 251.094L357.37 294.635C357.37 294.635 364.138 294.805 365.34 296.39C366.541 297.973 365.146 298.969 358.186 298.797C351.224 298.626 347.041 298.647 347.041 298.647C347.041 298.647 343.652 298.262 347.631 296.262C351.61 294.26 354.796 294.838 354.796 294.838L355.021 251.147L357.145 251.094Z" fill="#0064B7"/>
<path d="M352.919 183.144C352.919 183.144 354.818 177.868 350.152 176.467C350.152 176.467 348.8 168.516 342.451 172.111C341.968 172.379 341.422 172.421 340.928 172.176C339.244 171.341 335.511 167.307 332.926 173.492C332.723 173.973 332.229 174.166 331.778 174.187C329.87 174.263 325.268 175.011 329.043 180.693C329.043 180.693 330.792 182.802 333.709 182.973C333.709 182.973 347.257 192.282 351.193 190.71C355.108 189.115 354.958 184.899 352.919 183.144Z" fill="#2C2477"/>
<path d="M339.996 180.458C339.802 180.394 332.595 178.082 333.731 184.493V184.503C333.72 184.674 333.517 190.42 338.129 193.727C338.193 193.769 338.257 193.824 338.312 193.887C338.601 194.198 339.855 195.3 341.883 193.46C343.76 191.758 344.382 192.935 344.586 193.428C344.639 193.556 344.715 193.695 344.779 193.813C345.069 194.337 345.958 195.589 345.369 196.445C344.747 197.344 343.964 198.456 343.76 198.756C343.738 198.788 343.76 198.831 343.792 198.831C344.843 198.767 355.387 198.083 355.129 195.75C355.129 195.75 354.496 193.171 354.496 193.16L354.304 193.117C354.271 193.106 354.239 193.096 354.207 193.074L350.915 190.656C350.904 190.656 350.904 190.645 350.892 190.645C350.678 190.666 347.514 190.944 346.388 189.586C346.388 189.586 344.983 187.981 344.329 185.905C344.135 185.284 344.232 184.588 344.597 184.097C345.143 183.369 345.723 182.042 344.35 181.1C344.35 181.1 343.277 180.308 342.301 181.496L342.172 181.657C342.076 181.775 341.936 181.796 341.819 181.71L339.996 180.458C340.006 180.458 340.006 180.458 339.996 180.458Z" fill="#FFBF9C"/>
<path d="M354.516 193.16C354.516 193.16 349.711 197.611 344.252 198.114C344.252 198.114 341.27 201.421 340.83 208.633C340.391 215.846 340.101 232.003 340.541 233.053C340.98 234.101 366.616 233.929 366.616 233.929C366.616 233.929 364.717 207.745 361.66 202.298C361.66 202.298 357.145 194.39 354.516 193.16Z" fill="#DE051F"/>
<path d="M356.825 212.667C356.825 212.667 356.386 222.33 355.517 225.85C354.647 229.36 354.208 230.944 350.561 231.468C346.915 231.992 337.304 232.699 335.416 232.346C333.518 231.992 327.403 233.554 327.403 233.554C327.403 233.554 325.505 234.079 325.366 232.849C325.226 231.618 323.178 232.678 323.038 233.202C322.888 233.726 321.869 234.432 321.58 233.03C321.289 231.629 321.429 229.863 323.907 229.339C326.385 228.815 328.713 229.339 331.34 229.542C333.678 229.724 335.244 228.996 335.705 228.996L347.504 226.364C347.504 226.364 348.963 225.84 349.253 223.732C349.542 221.623 349.542 212.485 349.542 212.485L356.825 212.667Z" fill="#FFBF9C"/>
<path d="M357.993 213.716H348.694C348.587 206.867 349.241 200.361 352.899 200.351C352.899 200.361 357.993 199.205 357.993 213.716Z" fill="#EE384E"/>
<path d="M314.317 246.748C314.317 246.748 311.613 262.907 311.249 266.973C310.873 270.997 308.932 283.998 308.932 283.998L314.906 283.827L320.002 261.687L314.317 246.748Z" fill="#0064E1"/>
<path d="M366.487 232.228C366.594 232.956 367.237 243.828 366.176 246.578C365.211 249.092 362.679 249.916 358.164 250.269C354.345 250.569 334.556 249.552 328.548 249.21C327.733 249.167 327.144 250.119 327.401 251.039L336.304 282.596L331.059 285.411C331.059 285.411 318.971 263.271 317.072 257.995C315.173 252.719 312.556 243.592 312.706 241.474C312.706 241.474 312.267 237.428 316.782 236.904C321.212 236.39 335.328 233.672 335.854 233.566C335.864 233.566 335.875 233.566 335.885 233.566L340.519 233.041C340.53 233.041 340.541 233.041 340.551 233.041L366.487 232.228Z" fill="#003EB0"/>
<path d="M335.491 232.421C335.888 232.335 337.207 232.41 337.197 233.394C337.186 234.293 335.588 234.411 335.298 234.453C335.073 234.486 317.011 237.086 315.84 237.257C315.809 237.268 315.766 237.268 315.734 237.278C315.433 237.343 313.782 237.611 312.719 235.866C311.615 234.036 302.819 220.724 301.876 219.301C301.833 219.237 301.79 219.173 301.736 219.109C301.553 218.884 301.038 218.124 301.65 217.247C302.38 216.187 303.549 217.953 303.549 217.953L314.157 234.743C314.403 235.128 314.736 235.417 315.122 235.535H315.133C315.294 235.577 315.455 235.588 315.616 235.556" fill="#0064B7"/>
<path d="M308.974 283.794C308.963 283.794 308.942 283.794 308.931 283.805C308.61 284.105 303.739 288.599 301.209 289.616C300.962 289.712 300.726 289.819 300.489 289.927C300.297 290.012 300.114 290.108 299.932 290.215C299.793 290.301 299.653 290.386 299.514 290.483C299.417 290.558 299.32 290.632 299.224 290.718C299.16 290.782 299.095 290.847 299.031 290.921C298.988 290.975 298.955 291.028 298.924 291.093C298.902 291.135 298.881 291.178 298.87 291.221C298.86 291.274 298.86 291.317 298.87 291.371C298.87 291.424 298.87 291.468 298.87 291.521C298.87 291.574 298.87 291.628 298.87 291.681C298.87 291.702 298.892 291.724 298.913 291.724L314.991 289.637C315.034 289.626 315.078 289.616 315.109 289.594C315.281 289.477 315.742 289.049 315.624 288.053C315.496 286.93 314.991 284.319 314.905 283.891C314.895 283.859 314.873 283.838 314.841 283.827L308.974 283.794Z" fill="#2B2377"/>
<path d="M331.07 285.411C331.07 285.411 328.303 292.441 326.404 294.024C324.956 295.234 325.385 296.239 325.664 296.647C325.75 296.775 325.889 296.839 326.028 296.818C326.372 296.775 327.122 296.593 327.863 295.961C328.882 295.084 338.932 287.701 338.932 287.701C338.932 287.701 339.372 286.641 338.642 285.592C337.913 284.533 336.315 282.607 336.315 282.607L331.07 285.411Z" fill="#2B2377"/>
<path d="M354.187 50.0513L361.763 57.6102L369.34 50.0513L361.763 42.4923L354.187 50.0513Z" fill="#0064E1"/>
<path d="M94.9189 88.2L102.496 95.7592L110.073 88.2L102.496 80.6418L94.9189 88.2Z" fill="#FCBE42"/>
<path d="M37 171.301L44.5768 178.86L52.1536 171.301L44.5768 163.742L37 171.301Z" fill="#EE384E"/>
<path d="M296.286 125.884L303.863 133.442L311.44 125.884L303.863 118.325L296.286 125.884Z" fill="#DE051F"/>
<path d="M371.144 152.799C371.144 152.799 374.341 151.001 372.389 143.446C370.447 135.892 368.506 134.65 371.144 129.246C373.782 123.843 382.256 122.313 394.334 122.794C406.412 123.286 409.607 135.164 408.214 140.375C406.83 145.587 395.846 151.536 389.185 150.712C382.525 149.888 379.467 149.471 379.467 149.471C379.467 149.471 377.247 153.205 371.144 152.799Z" fill="#0064E1"/>
<path d="M384.595 138.267C385.584 138.267 386.387 137.467 386.387 136.48C386.387 135.493 385.584 134.693 384.595 134.693C383.605 134.693 382.804 135.493 382.804 136.48C382.804 137.467 383.605 138.267 384.595 138.267Z" fill="white"/>
<path d="M390.033 138.267C391.023 138.267 391.824 137.467 391.824 136.48C391.824 135.493 391.023 134.693 390.033 134.693C389.044 134.693 388.242 135.493 388.242 136.48C388.242 137.467 389.044 138.267 390.033 138.267Z" fill="white"/>
<path d="M395.46 138.267C396.45 138.267 397.252 137.467 397.252 136.48C397.252 135.493 396.45 134.693 395.46 134.693C394.471 134.693 393.67 135.493 393.67 136.48C393.67 137.467 394.471 138.267 395.46 138.267Z" fill="white"/>
<path d="M228.759 26.7032C235.873 26.7032 241.641 20.9493 241.641 13.8516C241.641 6.75385 235.873 1 228.759 1C221.644 1 215.877 6.75385 215.877 13.8516C215.877 20.9493 221.644 26.7032 228.759 26.7032Z" stroke="#DE051F" stroke-width="1.04473" stroke-miterlimit="10"/>
<path d="M224.78 21.2565C226.397 21.2565 227.708 19.9486 227.708 18.3352C227.708 16.7217 226.397 15.4138 224.78 15.4138C223.163 15.4138 221.852 16.7217 221.852 18.3352C221.852 19.9486 223.163 21.2565 224.78 21.2565Z" stroke="#DE051F" stroke-width="1.04473" stroke-miterlimit="10"/>
<path d="M232.117 14.0013C233.337 14.0013 234.326 13.0145 234.326 11.797C234.326 10.5796 233.337 9.59269 232.117 9.59269C230.896 9.59269 229.907 10.5796 229.907 11.797C229.907 13.0145 230.896 14.0013 232.117 14.0013Z" stroke="#DE051F" stroke-width="1.04473" stroke-miterlimit="10"/>
<path d="M225.305 9.86015C226.252 9.86015 227.021 9.0937 227.021 8.14805C227.021 7.2025 226.252 6.43596 225.305 6.43596C224.356 6.43596 223.588 7.2025 223.588 8.14805C223.588 9.0937 224.356 9.86015 225.305 9.86015Z" stroke="#DE051F" stroke-width="1.04473" stroke-miterlimit="10"/>
<path d="M167.341 253.516C167.341 253.516 170.768 252.12 170.514 248.195C170.261 244.27 168.233 241.488 172.421 242.621C176.609 243.764 178.017 244.27 181.06 243.632C184.102 242.996 186.628 241.731 185.304 245.656C183.98 249.581 182.534 252.87 185.671 253.507C188.797 254.143 192.159 251.773 192.562 257.918C192.967 264.064 187.999 270.978 179.961 271.231C171.923 271.484 168.373 268.158 168.373 268.158C168.373 268.158 166.214 265.123 169.576 264.382C172.938 263.633 176.365 262.218 174.647 260.644C172.937 259.081 167.35 258.95 167.35 258.95C167.35 258.95 160.364 257.563 167.341 253.516Z" fill="#649EEA"/>
<path d="M204.074 254.528C203.512 250.612 203.943 247.792 211.24 246.724C218.536 245.656 222.789 250.031 223.231 254.528C223.672 259.024 217.333 260.655 217.333 260.655C217.333 260.655 212.826 261.938 215.118 265.862C217.409 269.788 218.442 273.582 213.258 274.154C208.075 274.725 202.403 273.358 199.248 271.259C196.093 269.161 192.854 263.84 196.469 261.057C196.469 261.057 197.482 260.364 200.976 260.167C204.45 259.971 204.074 254.528 204.074 254.528Z" fill="#023EA1"/>
<path d="M178.402 253.891C178.402 253.891 184.459 267.558 185.285 276.861" stroke="#023EA1" stroke-width="1.04473" stroke-miterlimit="10"/>
<path d="M212.084 256.139C212.084 256.139 201.36 272.027 198.825 277.339" stroke="#649EEA" stroke-width="1.04473" stroke-miterlimit="10"/>
<path d="M181.549 275.793H206.161C206.161 275.793 208.855 275.981 208.63 279.652C208.424 283.034 204.123 282.303 201.907 282.303C199.691 282.303 181.013 282.303 181.013 282.303C181.013 282.303 177.99 282.819 177.99 279.4C177.99 275.981 179.136 275.793 181.549 275.793Z" fill="#0054A5"/>
<path d="M181.022 282.303L184.75 304H201.277L204.075 287.718L181.05 282.303H181.022Z" fill="#0054A5"/>
<path d="M181.05 282.303L204.074 287.718L205.004 282.303H181.05Z" fill="#006AD5"/>
<path d="M191.632 276.617C191.632 276.617 192.881 252.542 200.073 237.441" stroke="#FCBE42" stroke-width="1.04473" stroke-miterlimit="10"/>
<path d="M205.99 228.747C205.99 228.747 206.582 236.138 199.352 239.024C199.352 239.024 197.793 232.71 205.99 228.747Z" fill="#FCBE42"/>
<path d="M195.146 252.27C195.146 252.27 197.813 245.965 206.001 246.808C206.01 246.808 205.372 253.085 195.146 252.27Z" fill="#FCBE42"/>
<path d="M192.449 268.13C192.449 268.13 193.829 261.422 202.027 260.655C202.027 260.655 202.638 266.94 192.449 268.13Z" fill="#FCBE42"/>
<path d="M192.169 268.167C192.169 268.167 193.117 261.394 185.651 257.929C185.651 257.929 182.976 263.652 192.169 268.167Z" fill="#FCBE42"/>
<path d="M195.24 252.223C195.24 252.223 197.052 245.619 190.084 241.234C190.075 241.234 186.694 246.574 195.24 252.223Z" fill="#FCBE42"/>
<path d="M184.211 47.4377C178.458 75.817 157.843 182.477 152.569 211.016C151.929 215.002 154.326 218.669 158.162 219.466L273.865 243.221C277.861 244.019 281.536 241.468 282.335 237.482L298.156 155.055L308.065 156.649C310.622 156.969 312.699 155.374 313.179 152.982L325.164 86.3394C325.644 83.7885 323.886 81.3968 321.648 81.0782L312.699 79.4841L313.818 72.9474C314.457 69.1209 312.06 65.2942 308.065 64.6565L192.362 42.017C188.686 40.9009 184.851 43.4519 184.211 47.4377Z" fill="#3864AE"/>
<path d="M192.68 50.1481L154.645 213.248L273.225 240.989L310.621 78.6867L192.68 50.1481Z" fill="#E0E0E0"/>
<path d="M178.935 43.9301L151.768 209.581L271.946 228.713L298.474 64.4971L178.935 43.9301Z" fill="#EBEBEB"/>
<path d="M161.357 52.5397L156.244 220.423L277.859 223.452L282.654 56.8445L161.357 52.5397Z" fill="#F7F7F7"/>
<path d="M161.358 52.5397C162.636 52.5397 209.141 54.1341 282.495 56.5256H282.655V56.685C281.376 103.558 279.778 160.955 278.18 222.974V223.134H278.02C277.7 223.134 277.541 223.134 277.061 223.134C233.752 222.017 192.521 221.22 156.244 220.263H156.084V220.104C159.281 121.096 161.358 54.4529 161.358 52.5397C161.358 54.1341 159.44 121.096 156.564 220.263L156.404 220.104C192.681 221.061 233.912 221.858 277.221 222.974C277.541 222.974 277.7 222.974 278.18 222.974L278.02 223.134C279.778 160.955 281.216 103.399 282.495 56.8445L282.655 57.0039C209.141 54.4529 162.636 52.5397 161.358 52.5397Z" fill="#263238"/>
<path d="M265.395 88.4116C265.395 88.7312 244.46 88.7312 218.73 88.4116C193.001 88.093 172.065 87.4557 172.065 87.1371C172.065 86.8175 193.001 86.8175 218.73 87.1371C244.46 87.615 265.395 88.2523 265.395 88.4116Z" fill="#263238"/>
<path d="M266.353 103.399C266.353 103.717 245.418 103.717 219.688 103.399C193.959 103.08 173.023 102.442 173.023 102.123C173.023 101.805 193.959 101.805 219.688 102.123C245.418 102.442 266.353 103.08 266.353 103.399Z" fill="#263238"/>
<path d="M267.472 148.996C267.472 149.316 246.537 149.316 220.807 148.996C195.079 148.678 174.143 148.04 174.143 147.721C174.143 147.402 195.079 147.402 220.807 147.721C246.537 148.04 267.472 148.518 267.472 148.996Z" fill="#263238"/>
<path d="M267.472 134.329C267.472 134.647 246.537 134.647 220.807 134.329C195.079 134.01 174.143 133.372 174.143 133.053C174.143 132.735 195.079 132.735 220.807 133.053C246.537 133.531 267.472 134.169 267.472 134.329Z" fill="#263238"/>
<path d="M267.472 119.98C267.472 120.299 246.537 120.299 220.807 119.98C195.079 119.661 174.143 119.023 174.143 118.705C174.143 118.386 195.079 118.386 220.807 118.705C246.537 119.023 267.472 119.821 267.472 119.98Z" fill="#263238"/>
<path d="M266.194 164.94C266.194 165.259 245.259 165.259 219.529 164.94C193.8 164.621 172.864 163.983 172.864 163.665C172.864 163.345 193.8 163.345 219.529 163.665C245.259 163.983 266.194 164.461 266.194 164.94Z" fill="#263238"/>
<path d="M265.873 180.565C265.873 180.883 244.938 180.883 219.209 180.565C193.479 180.246 172.544 179.608 172.544 179.289C172.544 178.97 193.479 178.97 219.209 179.289C244.938 179.608 265.873 180.405 265.873 180.565Z" fill="#263238"/>
<path d="M265.555 196.348C265.555 196.667 244.62 196.667 218.89 196.348C193.161 196.03 172.226 195.392 172.226 195.073C172.226 194.754 193.161 194.754 218.89 195.073C244.62 195.551 265.555 196.348 265.555 196.348Z" fill="#263238"/>
<path d="M113.249 199.215C113.249 199.215 109.993 244.46 109.525 252.484C109.05 260.507 107.339 287.536 107.339 287.536H99.3403L93.9424 198.72L113.249 199.215Z" fill="#DE051F"/>
<path d="M83.2952 199.802C83.2952 199.802 84.255 222.464 84.685 228.21C85.1073 233.956 80.462 253.604 77.813 262.335C75.1563 271.073 71.417 280.744 71.417 280.744L77.813 284.325C77.813 284.325 91.6262 260.282 96.5787 246.097C101.523 231.912 105.209 210.682 104.602 198.72L83.2952 199.802Z" fill="#EE384E"/>
<path d="M117.235 167.564L123.289 175.568C123.289 175.568 123.761 176.208 124.884 175.917C125.999 175.628 137.651 171.417 137.651 171.417C137.651 171.417 139.275 170.696 139.709 169.409C140.136 168.123 140.337 167.81 140.592 167.46C140.847 167.111 141.221 167.155 141.004 166.293C140.787 165.437 140.667 165.08 140.667 165.08C140.667 165.08 140.413 164.478 140.922 164.478C141.43 164.478 141.977 164.596 142.261 165.184C142.531 165.771 142.464 167.193 142.464 167.193L144.956 167.289C144.956 167.289 146.482 167.341 146.482 168.926C146.482 170.51 146.482 173.158 146.482 173.158C146.482 173.158 146.699 173.983 145.584 173.983C144.469 173.983 143.294 173.947 143.294 173.947C143.294 173.947 142.358 173.85 140.824 174.958C139.29 176.066 127.615 182.709 127.615 182.709C127.615 182.709 123.581 185.103 120.932 182.589C118.283 180.076 112.468 173.857 112.468 173.857L112.176 171.886L117.235 167.564Z" fill="#FFBF99"/>
<path d="M98.2279 145.216C98.2279 145.216 97.5161 148.921 96.0852 152.633C94.6542 156.346 93.9424 157.821 93.9424 157.821C93.9424 157.821 98.2279 163.01 102.528 162.264C106.814 161.526 106.814 158.56 106.814 158.56C106.814 158.56 102.877 155.224 102.877 150.774C102.877 146.323 102.877 146.33 102.877 146.33L98.2279 145.216Z" fill="#FFB48F"/>
<path d="M107.886 158.057C107.886 158.057 111.422 160.021 112.888 161.265C114.361 162.509 118.612 167.394 118.612 167.394L112.792 173.038L108.74 168.447L107.886 158.057Z" fill="#0064B7"/>
<path d="M95.2165 156.503C95.2165 156.503 97.3574 159.364 100.217 160.076C103.076 160.787 104.499 158.646 104.499 158.646L105.284 157.622C105.284 157.622 106.076 157 106.951 157.734C107.825 158.453 109.491 160.305 110.936 163.3C112.388 166.286 112.81 170.376 113.114 179.929C113.418 189.481 113.114 199.79 113.114 199.79H83.564L83.2158 184.946C83.2158 184.946 86.3568 165.204 89.4458 161.187C92.5349 157.17 93.4312 156.297 93.4312 156.297C93.4312 156.297 94.1424 155.317 95.2165 156.503Z" fill="#0083F9"/>
<path d="M106.88 135.586C106.88 135.586 108.959 138.563 108.959 143.776C108.959 148.982 108.268 152.707 106.182 152.707C104.095 152.707 99.93 151.218 99.2392 149.73C98.5486 148.241 97.1602 148.241 97.1602 145.272C97.1602 142.303 100.628 135.601 103.412 135.601C106.189 135.601 106.88 135.586 106.88 135.586Z" fill="#FFBF99"/>
<path d="M108.83 135.726C108.83 135.726 110.964 130.075 109.539 129.357C108.114 128.653 105.271 130.06 104.555 130.772C103.846 131.475 102.42 131.475 101.704 131.475C101.704 131.475 94.578 131.475 93.1527 132.889C91.7275 134.304 91.7275 135.007 91.7275 135.718C91.7275 136.422 91.7202 139.2 91.0186 140.666C90.7158 141.303 90.3097 144.197 91.7275 147.034C93.1454 149.863 94.578 150.566 95.2869 150.566C95.9958 150.566 96.6383 150.566 96.7121 149.863C96.7933 149.1 97.0739 148.024 97.4211 147.034C97.7607 146.089 98.1299 144.205 98.1299 144.205C98.1299 144.205 98.8388 140.672 100.264 139.258C101.689 137.843 101.689 137.843 104.532 137.14C107.405 136.444 108.121 137.843 108.83 135.726Z" fill="#170856"/>
<path d="M99.0165 141.36C99.7995 142.336 98.7427 144.055 98.7427 144.055C98.7427 144.055 97.1602 144.626 97.1602 142.906C97.1602 141.187 98.228 140.378 99.0165 141.36Z" fill="#FFBF99"/>
<path d="M84.5379 171.968C84.5379 171.968 81.7065 182.288 82.1992 188.755C82.692 195.214 84.7179 200.815 86.1884 204.712C87.6589 208.608 88.5271 209.542 88.5818 211.994C88.6366 214.446 89.849 217.35 91.3508 218.809C92.8525 220.269 94.0571 220.994 94.0571 220.994C94.0571 220.994 95.8405 221.78 95.5589 220.209C95.5589 220.209 96.7557 220.298 96.302 219.424C96.302 219.424 97.8976 219.454 96.7322 218.261C95.5667 217.061 93.4157 215.905 93.4157 215.905C93.4157 215.905 92.1877 214.046 93.9398 214.979C95.6919 215.905 97.225 215.943 95.6058 214.432C93.9789 212.92 92.1017 210.275 90.7251 205.438C89.3484 200.608 87.7136 191.059 89.6612 183.725C91.6089 176.39 94.0728 173.946 94.0728 173.946L84.5379 171.968Z" fill="#FFBF99"/>
<path d="M78.5676 283.837C78.5676 283.837 80.0376 287.813 81.6685 289.643C83.2994 291.471 84.5857 292.807 84.5857 292.807C84.5857 292.807 86.4846 295.735 84.3408 294.865C82.2045 293.994 70.3826 286.345 70.3826 286.345C70.3826 286.345 68.6981 285.504 69.4791 284.117C70.2601 282.73 72.2431 280.045 72.2431 280.045L78.5676 283.837Z" fill="#170856"/>
<path d="M99.3954 292.776C99.3954 292.776 98.9602 293.956 101.433 293.956C103.906 293.956 117.394 293.956 117.394 293.956C117.394 293.956 119.989 293.445 117.6 292.302C115.195 291.158 108.005 287.97 108.005 287.97C108.005 287.97 107.456 287.827 107.471 286.466H99.3037L99.3954 292.776Z" fill="#170856"/>
<path d="M96.061 164.596C96.061 164.596 96.5723 159.635 93.0313 159.159C89.4905 158.684 87.2426 163.5 86.0623 166.629C84.8819 169.757 84.2881 172.049 84.2881 172.049C84.2881 172.049 91.9037 175.178 93.911 175.178C93.9185 175.178 95.61 169.979 96.061 164.596Z" fill="#0064B7"/>
<path d="M96.0947 41.6823C90.704 41.6823 86.334 37.3228 86.334 31.9449C86.334 26.5669 90.704 22.2072 96.0947 22.2072C101.485 22.2072 105.855 26.5669 105.855 31.9449C105.855 37.3228 101.485 41.6823 96.0947 41.6823Z" stroke="#DE051F" stroke-width="1.04473" stroke-miterlimit="10"/>
<path d="M102.853 24.6682C102.853 24.6682 120.015 20.1739 114.115 26.1663C108.216 32.1587 88.0509 40.8267 84.0822 41.7893C80.1135 42.752 77.5393 41.0401 78.8264 38.9004C80.1135 36.76 86.3346 33.2288 86.3346 33.2288" stroke="#DE051F" stroke-width="1.04473" stroke-miterlimit="10"/>
</svg>
