<svg width="445" height="305" viewBox="0 0 445 305" fill="none" xmlns="http://www.w3.org/2000/svg">
<path d="M293.179 211.372C345.127 211.372 387.24 169.453 387.24 117.743C387.24 66.0338 345.127 24.1149 293.179 24.1149C241.229 24.1149 199.116 66.0338 199.116 117.743C199.116 169.453 241.229 211.372 293.179 211.372Z" stroke="#1466B1" stroke-width="1.28757" stroke-miterlimit="10" stroke-dasharray="7.73 7.73"/>
<path d="M71.4013 263.207C71.4013 263.207 70.4879 267.919 72.1625 271.72C73.8371 275.52 69.879 275.824 69.879 275.824L61.9629 261.839C61.9629 261.383 61.9629 259.863 63.4852 259.103C65.0075 258.191 68.0522 257.127 68.0522 257.127L71.4013 263.207Z" fill="#221D56"/>
<path d="M142.951 275.52C142.951 275.52 148.127 278.713 150.258 279.625C151.933 280.233 152.237 281.601 152.389 282.209C152.389 282.361 152.389 282.665 152.085 282.513L133.665 280.689L134.274 274.609L142.951 275.52Z" fill="#221D56"/>
<path d="M171.419 104.047C170.505 103.743 168.678 108.455 168.526 107.391C168.374 106.175 171.419 101.767 170.353 101.463C169.135 101.159 167.461 106.175 167.308 106.632C167.156 106.936 166.395 106.783 166.851 106.479C167.156 106.023 169.744 100.246 168.526 99.9432C167.917 99.7907 167.612 101.007 167.612 101.007C167.612 101.007 165.633 106.479 165.024 106.175C164.568 106.023 165.482 102.679 166.091 101.767C166.547 100.703 166.242 100.095 165.633 100.246C165.329 100.399 163.807 103.592 163.198 104.655C162.893 105.719 161.675 108.608 160.914 106.783C160.305 104.96 159.24 103.743 158.631 103.439C158.022 103.135 157.717 104.199 158.174 104.503C158.479 104.807 158.783 105.719 159.24 106.175C159.392 106.632 159.544 107.24 159.544 107.696C159.696 109.823 160.153 111.952 160.153 111.952L149.193 132.778L131.838 123.961L129.402 134.146C129.402 134.146 152.085 144.331 153.455 143.571C156.652 141.899 166.547 113.016 166.547 113.016C168.07 110.888 169.896 108.304 170.657 106.936C172.028 104.351 171.875 104.351 171.419 104.047Z" fill="#FFBF99"/>
<path d="M122.704 94.1661C128.184 88.2377 122.247 80.7888 122.247 80.7888C122.247 80.7888 121.638 81.5489 119.811 83.8291C117.984 86.2614 115.853 85.9574 112.2 87.1735C108.394 88.5417 102 91.126 102.457 100.55C102.761 109.52 110.982 110.736 110.982 110.736C110.982 110.736 117.376 99.7907 122.704 94.1661Z" fill="#1B1156"/>
<path d="M114.331 96.4464C111.743 99.9431 112.048 104.047 111.134 107.696C110.221 111.344 106.567 119.553 106.567 119.553C106.567 119.553 117.833 122.137 117.071 120.617C116.919 119.096 116.767 113.32 117.224 111.952C117.528 110.432 119.507 110.888 122.095 111.192C124.835 111.344 126.053 111.344 126.205 104.807C126.662 98.4226 122.552 94.3186 122.552 94.3186C119.507 90.3661 116.919 92.9497 114.331 96.4464Z" fill="#FFBF99"/>
<path d="M112.2 102.983C110.677 102.223 109.612 99.9432 110.83 99.0309C111.895 97.967 113.57 98.7268 113.57 98.7268C113.57 98.7268 113.722 103.896 112.2 102.983Z" fill="#FFBF99"/>
<path d="M142.798 127.154C137.927 124.569 134.274 123.201 131.533 121.529C123.008 116.209 120.725 117.424 118.898 117.272C117.224 117.728 114.788 118.792 114.027 118.945C112.961 119.096 109.764 118.032 107.481 117.424C102.305 117.728 99.2601 120.008 94.5409 123.505L84.9502 131.106L96.2154 142.659L99.5646 139.922C99.7168 145.243 99.869 145.243 100.173 150.564L100.326 171.389L131.99 172.758L130.011 152.084L128.946 135.666L137.927 140.075L142.798 127.154Z" fill="#0083F9"/>
<path opacity="0.3" d="M129.402 135.514H132.295L139.145 137.946L138.384 139.922L129.402 135.514Z" fill="black"/>
<g opacity="0.3">
<path d="M130.316 146.612C124.074 147.372 117.528 147.372 111.287 146.915C109.003 146.763 106.872 146.612 105.045 145.699C102.609 144.636 100.63 142.203 99.7168 139.771L100.174 148.74L130.316 146.612Z" fill="black"/>
</g>
<path d="M108.394 183.551C108.394 183.551 107.481 208.025 103.827 220.795C100.174 233.563 90.1263 236.605 83.7325 240.557C77.6432 244.509 63.79 251.958 63.79 251.958L71.7061 265.639C71.7061 265.639 109.764 249.373 116.615 234.78C121.943 223.531 127.575 203.009 127.575 203.009L108.394 183.551Z" fill="#EE384E"/>
<path d="M129.707 172.454C129.707 172.454 145.691 206.353 149.954 215.475C150.411 216.538 150.563 217.602 150.563 218.515L146.148 275.824L133.056 274.912L133.209 219.731L105.654 184.767C103.219 181.879 101.544 178.383 100.783 174.582C100.478 173.366 100.326 171.998 100.326 170.934L129.707 172.454Z" fill="#EE384E"/>
<path d="M197.298 249.982L51.155 260.927L44.1523 152.692L188.926 142.355L197.298 249.982Z" fill="#F7F7F7"/>
<path d="M197.299 249.982C197.299 249.982 197.299 249.222 197.146 248.158C196.994 246.789 196.994 244.813 196.689 242.533C196.385 237.516 195.624 230.068 195.015 220.795C193.645 201.945 191.361 175.19 189.078 142.507L189.231 142.659C148.431 145.547 98.4995 149.044 44.3047 152.996L44.4569 152.844C44.4569 152.996 44.4569 153.3 44.4569 153.756C47.0449 192.368 49.3283 228.851 51.4596 261.079L51.3074 260.927C94.3892 257.887 130.925 254.998 156.652 253.174C169.44 252.262 179.64 251.502 186.642 250.894C189.991 250.741 192.731 250.437 194.71 250.437C195.624 250.437 196.233 250.286 196.689 250.286C196.842 249.982 197.299 249.982 197.299 249.982C197.299 249.982 197.146 249.982 196.689 249.982C196.233 249.982 195.471 250.134 194.71 250.134C192.884 250.286 190.296 250.437 186.794 250.894C179.792 251.35 169.745 252.11 156.957 253.174C131.229 254.998 94.6937 257.887 51.6118 261.079H51.4596V260.927C49.4806 228.547 46.8926 191.912 44.4569 153.604C44.4569 153.3 44.4569 153.148 44.4569 152.692V152.54H44.6092C98.6517 148.74 148.736 145.091 189.534 142.355H189.687V142.507C192.122 175.039 194.101 202.097 195.624 220.947C196.233 230.219 196.842 237.669 197.146 242.685C197.299 245.117 197.45 246.941 197.45 248.31C196.994 249.373 197.299 249.982 197.299 249.982Z" fill="#263238"/>
<path d="M161.98 158.621C162.284 158.621 163.503 177.167 164.873 200.121C166.091 223.075 166.852 241.621 166.547 241.621C166.243 241.621 165.025 223.075 163.654 200.121C162.437 177.471 161.828 159.076 161.98 158.621Z" fill="#263238"/>
<path d="M149.041 158.468C149.345 158.468 150.563 177.014 151.933 199.969C153.152 222.923 153.912 241.468 153.608 241.468C153.303 241.468 152.086 222.923 150.715 199.969C149.498 177.318 148.736 158.468 149.041 158.468Z" fill="#263238"/>
<path d="M109.46 159.229C109.764 159.229 110.982 177.775 112.352 200.729C113.57 223.684 114.331 242.229 114.027 242.229C113.722 242.229 112.505 223.684 111.134 200.729C109.764 177.775 109.003 159.229 109.46 159.229Z" fill="#263238"/>
<path d="M121.792 158.468C122.096 158.468 123.314 177.014 124.684 199.969C125.902 222.923 126.663 241.468 126.359 241.468C126.054 241.468 124.836 222.923 123.466 199.969C122.401 177.318 121.487 158.468 121.792 158.468Z" fill="#263238"/>
<path d="M134.426 158.013C134.73 158.013 135.948 176.558 137.318 199.512C138.535 222.467 139.297 241.013 138.993 241.013C138.688 241.013 137.47 222.467 136.1 199.512C135.035 176.558 134.121 158.013 134.426 158.013Z" fill="#263238"/>
<path d="M95.4549 160.901C95.7593 160.901 96.9772 179.447 98.3473 202.401C99.5651 225.356 100.326 243.901 100.022 243.901C99.7173 243.901 98.4995 225.356 97.1294 202.401C95.9115 179.751 95.1503 160.901 95.4549 160.901Z" fill="#263238"/>
<path d="M81.6023 161.813C81.9068 161.813 83.1247 180.359 84.4948 203.313C85.7126 226.267 86.4738 244.814 86.1693 244.814C85.8649 244.814 84.647 226.267 83.2769 203.313C82.2113 180.359 81.2979 161.813 81.6023 161.813Z" fill="#263238"/>
<path d="M68.0527 162.573C68.3572 162.573 69.575 181.119 70.9451 204.073C72.1629 227.028 72.9241 245.573 72.6196 245.573C72.3152 245.573 71.0973 227.028 69.7273 204.073C68.3572 181.27 67.596 162.573 68.0527 162.573Z" fill="#263238"/>
<path d="M85.864 131.714C85.864 131.714 71.0974 144.179 74.142 153.604C77.9479 165.157 102.305 174.126 102.305 174.126C104.284 175.798 106.568 177.622 107.938 178.383C110.678 180.055 110.83 179.902 110.83 179.598C110.982 178.534 106.111 176.103 107.176 175.95C108.394 175.798 113.114 179.598 113.266 178.534C113.418 177.015 108.09 174.734 107.785 174.582C107.481 174.43 107.481 173.518 107.938 173.822C108.394 174.126 114.484 177.622 114.636 176.103C114.788 175.19 113.418 174.886 113.418 174.886C113.418 174.886 107.785 172.15 107.785 171.39C107.938 170.63 111.135 172.302 112.352 172.758C113.418 173.214 114.027 172.91 113.723 172.302C113.57 171.846 110.069 169.87 109.003 169.414C107.785 168.957 104.741 167.285 106.568 166.677C108.394 165.917 109.46 164.549 109.46 163.941C109.46 163.181 108.851 162.877 108.242 163.181C107.938 163.485 107.176 164.093 106.568 164.397C106.263 164.549 105.654 164.701 105.197 164.701C101.239 165.462 84.1894 155.276 84.1894 149.652C84.1894 147.523 92.8666 139.467 92.8666 139.467L85.864 131.714Z" fill="#FFBF99"/>
<path d="M204.453 94.6219C198.972 121.681 179.334 223.379 174.311 250.59C173.702 254.39 175.985 257.887 179.639 258.646L289.855 281.297C293.661 282.057 297.162 279.625 297.924 275.824L312.994 197.233L322.433 198.753C324.868 199.057 326.847 197.536 327.304 195.257L338.722 131.714C339.178 129.282 337.504 127.001 335.373 126.697L326.847 125.178L327.913 118.945C328.522 115.296 326.238 111.648 322.433 111.04L212.216 89.4537C208.715 88.3896 205.061 90.822 204.453 94.6219Z" fill="#3864AE"/>
<path d="M212.522 97.2064L176.29 252.718L289.247 279.169L324.869 124.417L212.522 97.2064Z" fill="#E0E0E0"/>
<path d="M199.429 91.2775L173.55 249.222L288.029 267.463L313.299 110.888L199.429 91.2775Z" fill="#EBEBEB"/>
<path d="M182.684 99.4866L177.812 259.559L293.662 262.447L298.228 103.591L182.684 99.4866Z" fill="#F7F7F7"/>
<path d="M182.684 99.4866C183.901 99.4866 228.201 101.007 298.076 103.287H298.227V103.439C297.01 148.131 295.487 202.857 293.966 261.991V262.143H293.813C293.508 262.143 293.357 262.143 292.899 262.143C251.645 261.079 212.368 260.319 177.812 259.406H177.659V259.255C180.705 164.854 182.684 101.31 182.684 99.4866C182.684 101.007 180.856 164.854 178.116 259.406L177.964 259.255C212.521 260.167 251.797 260.927 293.052 261.991C293.357 261.991 293.508 261.991 293.966 261.991L293.813 262.143C295.487 202.857 296.857 147.98 298.076 103.591L298.227 103.743C228.201 101.31 183.901 99.4866 182.684 99.4866Z" fill="#263238"/>
<path d="M281.787 133.69C281.787 133.994 261.845 133.994 237.335 133.69C212.826 133.386 192.883 132.778 192.883 132.474C192.883 132.17 212.826 132.17 237.335 132.474C261.845 132.93 281.787 133.538 281.787 133.69Z" fill="#263238"/>
<path d="M282.7 147.98C282.7 148.284 262.758 148.284 238.249 147.98C213.739 147.676 193.797 147.068 193.797 146.763C193.797 146.459 213.739 146.459 238.249 146.763C262.758 147.068 282.7 147.676 282.7 147.98Z" fill="#263238"/>
<path d="M283.767 191.456C283.767 191.76 263.824 191.76 239.315 191.456C214.805 191.151 194.862 190.543 194.862 190.239C194.862 189.935 214.805 189.935 239.315 190.239C263.824 190.543 283.767 191 283.767 191.456Z" fill="#263238"/>
<path d="M283.767 177.471C283.767 177.775 263.824 177.775 239.315 177.471C214.805 177.167 194.862 176.558 194.862 176.254C194.862 175.95 214.805 175.95 239.315 176.254C263.824 176.71 283.767 177.318 283.767 177.471Z" fill="#263238"/>
<path d="M283.767 163.789C283.767 164.093 263.824 164.093 239.315 163.789C214.805 163.485 194.862 162.877 194.862 162.573C194.862 162.269 214.805 162.269 239.315 162.573C263.824 162.877 283.767 163.637 283.767 163.789Z" fill="#263238"/>
<path d="M282.548 206.657C282.548 206.961 262.606 206.961 238.096 206.657C213.587 206.353 193.645 205.745 193.645 205.441C193.645 205.137 213.587 205.137 238.096 205.441C262.606 205.745 282.548 206.202 282.548 206.657Z" fill="#263238"/>
<path d="M282.243 221.555C282.243 221.859 262.301 221.859 237.792 221.555C213.282 221.251 193.34 220.642 193.34 220.338C193.34 220.035 213.282 220.035 237.792 220.338C262.301 220.642 282.243 221.403 282.243 221.555Z" fill="#263238"/>
<path d="M281.939 236.605C281.939 236.908 261.996 236.908 237.487 236.605C212.977 236.301 193.035 235.692 193.035 235.388C193.035 235.084 212.977 235.084 237.487 235.388C261.996 235.844 281.939 236.605 281.939 236.605Z" fill="#263238"/>
<path d="M296.25 129.13C307.516 129.13 316.649 119.873 316.649 108.455C316.649 97.0376 307.516 87.7815 296.25 87.7815C284.984 87.7815 275.851 97.0376 275.851 108.455C275.851 119.873 284.984 129.13 296.25 129.13Z" fill="#E8505B"/>
<path opacity="0.5" d="M296.25 129.13C307.516 129.13 316.649 119.873 316.649 108.455C316.649 97.0376 307.516 87.7815 296.25 87.7815C284.984 87.7815 275.851 97.0376 275.851 108.455C275.851 119.873 284.984 129.13 296.25 129.13Z" fill="black"/>
<path d="M294.117 129.13C305.383 129.13 314.517 119.873 314.517 108.455C314.517 97.0376 305.383 87.7815 294.117 87.7815C282.851 87.7815 273.719 97.0376 273.719 108.455C273.719 119.873 282.851 129.13 294.117 129.13Z" fill="#EE384E"/>
<path d="M376.323 167.134L384.849 164.701L387.132 173.367L378.607 175.798L376.323 167.134Z" fill="#EE384E"/>
<path d="M54.3691 70.4874L61.6763 68.3592L63.6553 75.6559L56.5004 77.7841L54.3691 70.4874Z" fill="#0064E1"/>
<path d="M320.911 226.42C320.911 226.42 324.718 224.899 324.565 220.338C324.413 215.93 321.977 212.738 326.544 214.106C331.111 215.322 332.634 215.93 336.135 215.322C339.636 214.714 342.225 213.194 340.854 217.602C339.332 222.011 337.809 225.66 341.158 226.42C344.507 227.179 348.313 224.595 348.77 231.436C349.227 238.277 343.594 246.029 334.765 246.486C325.935 246.942 321.977 242.989 321.977 242.989C321.977 242.989 319.541 239.492 323.348 238.733C327.153 237.82 330.807 236.301 328.98 234.629C327.153 232.956 320.911 232.804 320.911 232.804C320.911 232.804 313.148 230.98 320.911 226.42Z" fill="#649EEA"/>
<path d="M361.404 227.483C360.796 223.227 361.253 219.883 369.321 218.666C377.389 217.451 382.108 222.467 382.565 227.483C383.022 232.5 376.019 234.324 376.019 234.324C376.019 234.324 371.148 235.692 373.583 240.253C376.171 244.661 377.389 248.918 371.604 249.526C365.82 250.286 359.73 248.614 356.076 246.182C352.727 243.749 348.922 237.973 353.032 234.78C353.032 234.78 354.25 233.868 357.904 233.716C361.862 233.716 361.404 227.483 361.404 227.483Z" fill="#023EA1"/>
<path d="M333.09 226.724C333.09 226.724 339.788 242.077 340.701 252.414" stroke="#023EA1" stroke-width="1.52089" stroke-miterlimit="10"/>
<path d="M370.234 229.46C370.234 229.46 358.36 247.246 355.62 253.174" stroke="#649EEA" stroke-width="1.52089" stroke-miterlimit="10"/>
<path d="M336.591 251.502H363.841C363.841 251.502 366.886 251.654 366.581 255.759C366.429 259.559 361.709 258.646 359.121 258.646C356.534 258.646 335.983 258.646 335.983 258.646C335.983 258.646 332.634 259.103 332.634 255.302C332.634 251.806 334.004 251.502 336.591 251.502Z" fill="#0054A5"/>
<path d="M335.982 258.646L340.092 282.969H358.36L361.405 264.727L335.982 258.646Z" fill="#0054A5"/>
<path d="M335.982 258.646L361.405 264.727L362.471 258.646H335.982Z" fill="#006AD5"/>
<path d="M347.704 252.262C347.704 252.262 349.074 225.203 357.142 208.329" stroke="#FCBE42" stroke-width="1.52089" stroke-miterlimit="10"/>
<path d="M363.688 198.601C363.688 198.601 364.297 206.81 356.381 210.154C356.229 210.002 354.554 203.162 363.688 198.601Z" fill="#FCBE42"/>
<path d="M351.662 225.051C351.662 225.051 354.555 218.059 363.536 218.819C363.688 218.819 362.927 225.963 351.662 225.051Z" fill="#FCBE42"/>
<path d="M348.617 242.838C348.617 242.838 350.139 235.237 359.121 234.324C359.273 234.324 359.882 241.621 348.617 242.838Z" fill="#FCBE42"/>
<path d="M348.313 242.837C348.313 242.837 349.378 235.236 341.158 231.284C341.158 231.284 338.265 237.82 348.313 242.837Z" fill="#FCBE42"/>
<path d="M351.662 224.899C351.662 224.899 353.641 217.451 346.03 212.586C346.03 212.738 342.376 218.819 351.662 224.899Z" fill="#FCBE42"/>
</svg>
