<svg width="445" height="305" viewBox="0 0 445 305" fill="none" xmlns="http://www.w3.org/2000/svg">
<g opacity="0.5">
<path d="M261.622 85.0102H70.2158V94.8232H261.622V85.0102Z" fill="#A5C9FF"/>
<path d="M87.6064 48.7448H79.1777V85.0101H87.6064V48.7448Z" fill="#C6DAFF"/>
<path d="M128.363 48.7448H119.935V85.0101H128.363V48.7448Z" fill="#C6DAFF"/>
<path d="M174.63 47.8678L166.323 49.2987L172.483 85.0381L180.789 83.6073L174.63 47.8678Z" fill="#C6DAFF"/>
<path d="M97.9561 53.5448H89.5273V85.0103H97.9561V53.5448Z" fill="#C6DAFF"/>
<path d="M117.267 53.5448H108.839V85.0103H117.267V53.5448Z" fill="#C6DAFF"/>
<path d="M166.346 53.5448H157.917V85.0103H166.346V53.5448Z" fill="#C6DAFF"/>
<path d="M139.362 52.4723L131.133 54.3L137.959 85.0166L146.188 83.1889L139.362 52.4723Z" fill="#C6DAFF"/>
<path d="M105.211 46.9316H100.943V85.0102H105.211V46.9316Z" fill="#C6DAFF"/>
<path d="M155.57 46.9316H151.303V85.0102H155.57V46.9316Z" fill="#C6DAFF"/>
<path d="M243.378 56.2112H202.302V84.5835H243.378V56.2112Z" fill="#C6DAFF"/>
<path d="M261.729 158.394H70.3223V168.207H261.729V158.394Z" fill="#A5C9FF"/>
<path d="M252.98 122.129H244.552V158.394H252.98V122.129Z" fill="#C6DAFF"/>
<path d="M212.117 122.129H203.688V158.394H212.117V122.129Z" fill="#C6DAFF"/>
<path d="M157.319 121.225L151.159 156.964L159.466 158.394L165.625 122.655L157.319 121.225Z" fill="#C6DAFF"/>
<path d="M242.523 126.929H234.095V158.394H242.523V126.929Z" fill="#C6DAFF"/>
<path d="M223.106 126.929H214.678V158.394H223.106V126.929Z" fill="#C6DAFF"/>
<path d="M174.135 126.929H165.706V158.394H174.135V126.929Z" fill="#C6DAFF"/>
<path d="M192.526 125.823L185.699 156.539L193.927 158.367L200.754 127.65L192.526 125.823Z" fill="#C6DAFF"/>
<path d="M231.108 120.315H226.84V158.394H231.108V120.315Z" fill="#C6DAFF"/>
<path d="M180.855 120.315H176.588V158.394H180.855V120.315Z" fill="#C6DAFF"/>
<path d="M129.751 129.809H88.6738V158.18H129.751V129.809Z" fill="#C6DAFF"/>
</g>
<path d="M120.259 299.783C93.6927 283.571 85.264 248.905 101.481 222.24C117.698 195.574 152.374 187.255 179.047 203.467" stroke="#2626DB" stroke-width="1.01062" stroke-miterlimit="10" stroke-dasharray="6.06 6.06"/>
<path d="M109.104 233.517C112.356 228.187 110.712 221.254 105.43 218.033C100.148 214.811 93.2293 216.521 89.9764 221.852C86.7235 227.183 88.3683 234.116 93.6502 237.337C98.9317 240.558 105.851 238.849 109.104 233.517Z" fill="#FCBE42"/>
<path d="M95.6143 223.839L96.7879 232.373L102.976 227.253" stroke="white" stroke-width="1.01062" stroke-miterlimit="10"/>
<path d="M241.161 173.494L241.282 174.455L241.522 182.621L233.954 193.071L231.31 189.348L226.986 183.342L226.625 173.374L241.161 173.494Z" fill="#FFB07E"/>
<path d="M202.839 197.755C202.96 202.919 203.2 207.962 203.44 213.127C203.681 218.291 203.801 223.455 203.681 228.62C203.561 233.423 202.48 238.228 202.359 242.911C202.239 248.435 201.878 259.365 201.398 270.534H230.71C230.831 265.129 230.95 260.086 231.071 255.882C231.071 255.882 231.911 221.293 231.311 221.293C231.311 221.293 231.311 221.293 230.95 222.135C230.831 222.494 230.71 222.735 230.71 222.735V222.494L225.184 198.715L221.34 182.381C221.34 182.381 221.22 182.502 220.98 182.502C218.818 183.342 217.736 185.504 215.454 186.344C213.051 187.305 210.648 188.266 208.125 188.747C206.564 189.108 199.836 191.149 199.115 192.95C198.515 194.512 202.72 196.193 202.839 197.755Z" fill="#DE051F"/>
<path d="M229.869 270.655H261.344C261.704 270.174 261.944 269.694 262.305 269.093C262.065 264.169 261.584 259.365 261.344 254.441C260.743 245.673 259.542 237.026 259.302 228.26C259.542 228.5 259.782 228.74 260.142 228.98C258.46 216.61 261.344 203.519 262.665 191.149C260.263 190.188 257.86 189.467 255.217 188.747C253.655 188.266 251.733 186.825 250.292 186.586C247.168 186.105 245.366 190.789 244.405 193.071C242.723 197.034 241.282 200.997 239.599 204.841C238.398 207.843 235.635 210.125 234.795 213.367C233.233 218.892 230.83 224.536 230.109 230.301C229.629 234.144 230.47 237.628 230.71 241.47C230.59 242.911 230.23 256.963 229.869 270.655Z" fill="#DE051F"/>
<path d="M225.544 211.685C226.985 214.568 227.946 217.451 228.908 220.453C229.388 222.014 229.869 224.416 231.55 224.656C233.713 224.897 235.755 220.933 236.716 219.373C238.158 216.97 239.479 214.568 241.041 212.166C241.161 209.765 241.041 206.882 241.882 204.6C242.603 202.798 244.044 201.837 243.804 199.676C243.684 198.355 242.964 196.913 241.761 196.313C240.921 195.953 239.96 195.833 239.239 195.233C238.518 194.632 238.037 193.671 237.317 192.95C236.596 191.989 235.034 189.948 233.712 189.948C231.31 189.467 227.946 194.752 226.265 196.433C223.501 199.075 222.18 201.958 221.339 205.2C222.901 207.122 224.343 209.164 225.544 211.685Z" fill="#D5E0E6"/>
<path d="M226.145 215.049L230.83 198.114C230.95 197.514 230.95 197.034 230.71 196.553L229.508 193.911C229.508 193.791 229.509 193.551 229.629 193.431C230.23 192.83 230.71 192.229 231.31 191.629C231.671 191.269 232.151 190.789 232.392 190.309C232.512 189.948 232.993 189.108 233.473 189.348C233.833 189.588 233.954 190.068 234.194 190.428C234.434 190.789 234.794 191.149 235.155 191.389C235.516 191.87 235.996 192.35 236.356 192.71C236.476 192.83 236.476 192.95 236.356 193.19L234.794 195.952C234.554 196.433 234.434 197.034 234.434 197.514L236.476 213.728C236.476 213.847 236.476 213.847 236.476 213.968L230.83 226.818C230.71 227.059 230.47 227.178 230.349 227.059C230.109 227.178 229.989 227.178 229.869 226.938L226.024 215.049C226.145 215.168 226.145 215.168 226.145 215.049Z" fill="#BC0625"/>
<path d="M222.782 178.899L232.993 188.987C233.112 189.107 233.353 189.107 233.593 188.987L245.246 177.458L250.052 186.105L240.921 201.838L233.713 189.948C233.593 189.708 233.233 189.708 232.993 189.948L223.743 203.399L220.019 187.186L222.782 178.899Z" fill="white"/>
<path d="M256.058 193.791C255.818 192.59 256.058 189.828 254.496 188.026C251.854 185.024 249.211 183.703 248.37 183.223L242.003 200.276L240.081 205.08L230.831 226.338L230.591 243.392C230.591 243.392 235.396 229.46 239.48 221.414C244.406 211.566 250.292 204.48 254.737 199.796C252.815 198.475 250.893 197.274 249.091 195.952L256.058 193.791Z" fill="#EE384E"/>
<path d="M212.33 193.551C212.691 192.47 212.81 189.588 214.612 188.026C217.616 185.385 220.138 184.063 221.099 183.703L225.544 201.718L226.866 206.761L231.55 224.776L230.71 244.353C230.71 244.353 228.547 231.622 225.544 222.975C221.941 212.646 216.895 204.841 213.05 199.556C215.093 198.475 217.135 197.514 219.178 196.433L212.33 193.551Z" fill="#EE384E"/>
<path d="M217.856 151.637C217.856 151.637 218.337 165.208 224.584 175.777C230.831 186.344 238.519 180.46 241.522 174.935C244.525 169.411 252.574 151.637 250.893 146.953C249.21 142.269 225.905 140.227 225.905 140.227L217.856 151.637Z" fill="#FFBF99"/>
<path d="M247.889 159.202C247.889 159.202 251.253 156.68 251.253 159.202C251.253 161.725 249.571 165.568 247.409 165.928C245.246 166.409 245.726 165.087 246.087 163.406C246.687 161.725 247.889 159.202 247.889 159.202Z" fill="#FFBF99"/>
<path d="M218.937 164.487C219.898 164.847 220.859 165.087 220.859 163.646C220.859 161.124 219.177 157.281 217.014 156.921C214.852 156.44 215.333 157.761 215.694 159.443C215.813 160.044 216.054 160.764 216.294 161.364C216.895 162.565 218.096 164.126 218.937 164.487Z" fill="#FFBF99"/>
<path d="M218.576 157.762L218.096 153.559C218.096 153.559 221.94 154.039 226.145 149.715C226.145 149.715 234.434 151.637 240.921 151.036C247.889 150.436 250.892 148.514 250.892 148.514C250.892 148.514 249.691 156.561 248.609 158.842C248.609 158.842 251.973 157.401 253.294 153.678C254.616 149.835 254.376 145.871 254.376 145.871C254.376 145.871 259.06 142.029 260.263 137.825C260.263 137.825 247.528 134.823 243.804 132.3C239.96 129.779 237.918 128.097 237.918 128.097C237.918 128.097 232.031 124.735 226.024 129.419C220.018 134.103 216.294 136.624 216.294 144.671C216.173 144.431 210.648 151.997 218.576 157.762Z" fill="#170856"/>
<path d="M203.8 190.428C200.918 191.51 196.954 192.47 195.031 195.112C192.388 198.715 190.826 204.72 189.745 209.044C187.223 219.252 184.7 228.86 182.898 239.308C182.418 242.311 182.898 245.914 183.138 248.916C183.258 249.757 183.258 250.718 183.738 251.439C184.22 252.4 185.06 253 186.021 253.6C192.268 258.044 198.515 262.488 204.762 266.932C205.362 267.411 205.963 267.772 206.684 267.892C207.645 268.012 208.606 267.532 209.447 267.051C212.57 265.25 215.573 263.448 218.697 261.647C219.539 261.166 210.769 252.759 209.928 252.159C206.083 248.916 205.483 247.835 205.362 242.431C205.003 231.983 208.125 221.774 208.125 211.326C208.125 207.362 207.165 203.399 206.204 199.556C205.843 197.874 205.483 196.194 205.603 194.512C205.723 193.071 206.684 191.51 206.444 190.068C206.444 189.948 206.444 189.828 206.323 189.708C206.204 189.588 205.963 189.708 205.843 189.708C205.122 189.828 204.522 190.068 203.8 190.428Z" fill="#EE384E"/>
<path d="M282.728 248.076C283.929 243.872 282.248 240.149 281.045 235.706C278.042 224.296 274.799 212.406 272.156 201.237C271.075 196.553 267.712 191.268 262.426 191.389C258.821 191.389 260.503 195.472 260.383 197.995C260.143 203.279 259.542 208.564 259.182 213.847C259.062 216.49 259.302 219.372 258.942 222.014C258.22 229.1 260.864 236.186 262.426 243.031C262.906 245.193 263.387 247.355 263.026 249.517C262.426 253.6 259.182 258.404 256.659 261.526C256.058 262.367 260.143 264.889 260.743 265.129C264.708 267.291 270.594 262.848 273.238 260.205C276.361 257.083 280.085 253.84 282.007 249.757C282.367 249.156 282.607 248.556 282.728 248.076Z" fill="#EE384E"/>
<path d="M219.058 237.987L219.298 246.875C219.298 247.715 220.138 248.316 221.22 248.316H239.48L220.859 236.546C219.779 236.546 219.058 237.147 219.058 237.987Z" fill="url(#paint0_linear_3375_6173)"/>
<path d="M239.841 248.195C240.922 248.195 241.763 247.595 241.763 246.755L242.003 237.867C242.003 237.026 241.162 236.306 240.081 236.306H220.86C220.74 236.306 220.74 236.306 220.74 236.306L239.36 248.076L239.841 248.195Z" fill="url(#paint1_linear_3375_6173)"/>
<path d="M272.516 216.129C271.435 213.728 269.272 212.166 266.63 212.166H194.431C191.787 212.166 189.625 213.728 188.664 216.129C188.544 216.49 188.303 216.85 188.184 217.33C187.944 218.171 187.823 219.132 187.944 220.213L191.787 262.608C192.148 266.211 195.272 269.093 198.756 269.093H262.305C264.468 269.093 266.509 268.012 267.831 266.211C268.552 265.25 269.153 263.928 269.272 262.608L273.117 220.213C273.238 218.652 272.997 217.211 272.516 216.129Z" fill="url(#paint2_linear_3375_6173)"/>
<path d="M183.018 257.084L185.781 264.77C187.223 265.129 189.865 265.971 193.109 266.811C203.44 269.694 219.538 274.378 220.019 274.618C220.499 274.858 226.146 286.027 229.509 292.633C230.11 293.713 231.071 298.277 232.152 304.282H245.607C246.087 298.397 246.568 293.953 246.929 292.992C249.811 286.748 254.617 276.539 254.978 276.299C255.337 276.059 269.873 271.375 279.123 268.372C282.007 267.412 284.409 266.691 285.731 266.211L288.014 259.125L288.374 259.245L288.494 251.199C288.494 249.877 287.533 245.914 286.572 243.152H183.138C183.018 243.272 182.898 243.392 182.778 243.392C181.697 247.716 182.538 252.519 183.018 257.084Z" fill="#2684DB"/>
<path d="M108.536 294.794C111.659 287.949 116.945 276.779 117.426 276.419C117.906 276.179 133.763 271.014 143.975 267.651C147.218 266.571 149.861 265.731 151.183 265.37L153.705 257.563L154.186 257.684L154.426 248.796C154.426 247.835 153.946 245.554 153.345 243.272H121.269L88.834 304.522H106.614C107.334 299.478 108.055 295.875 108.536 294.794Z" fill="#2684DB"/>
<path d="M314.563 246.394C313.601 250.238 314.322 254.681 314.682 258.764L317.205 265.731C318.527 266.09 320.929 266.811 323.813 267.651C333.183 270.294 347.839 274.497 348.199 274.737C348.56 274.978 353.725 285.066 356.849 291.191C357.449 292.392 358.651 297.676 360.093 304.402H377.632L345.196 243.152H317.325C316.485 244.353 315.524 245.554 314.563 246.394Z" fill="#2684DB"/>
<path d="M188.664 234.864C191.307 231.983 192.868 229.581 192.989 225.257C192.148 226.818 191.187 228.379 190.586 230.061C190.226 231.382 189.505 233.063 188.664 234.864Z" fill="#FFBF99"/>
<path d="M321.66 234.864C324.303 231.983 325.864 229.581 325.985 225.257C325.144 226.818 324.183 228.379 323.582 230.061C323.222 231.382 322.501 233.063 321.66 234.864Z" fill="#FFBF99"/>
<path d="M142.893 222.014C141.573 222.014 142.053 225.617 142.293 226.338C143.254 229.7 144.576 233.663 147.579 235.706C148.419 236.306 150.102 236.546 150.823 237.026C148.3 232.823 144.215 229.7 143.374 224.776C143.133 223.816 143.014 222.855 142.893 222.014Z" fill="#FFBF99"/>
<path d="M275.891 222.014C274.569 222.014 275.05 225.617 275.29 226.338C276.251 229.7 277.573 233.663 280.576 235.706C281.417 236.306 283.099 236.546 283.819 237.026C281.296 232.823 277.212 229.7 276.371 224.776C276.131 223.816 276.011 222.855 275.891 222.014Z" fill="#FFBF99"/>
<path d="M151.903 239.068C152.384 240.269 152.864 241.71 153.225 243.152H154.547C153.826 241.831 152.744 240.39 151.903 239.068Z" fill="#F9CFB3"/>
<path d="M284.9 239.068C285.38 240.269 285.862 241.71 286.222 243.152H287.543C286.823 241.831 285.741 240.39 284.9 239.068Z" fill="#F9CFB3"/>
<path d="M154.186 257.684L162.955 259.245C166.199 259.846 169.684 259.846 172.927 259.125L182.898 257.084C182.417 252.519 181.576 247.716 182.777 243.392C182.177 243.872 181.576 244.232 180.975 244.593C181.576 244.353 177.972 245.073 178.333 245.073C176.651 245.193 175.089 243.872 173.527 244.113C171.965 244.353 171.485 245.914 170.043 246.394C167.881 247.115 161.754 247.355 159.952 245.794C157.069 243.272 159.112 243.992 155.628 245.314C155.507 244.593 155.148 243.872 154.666 243.152H153.345C153.945 245.433 154.426 247.835 154.426 248.676L154.186 257.684Z" fill="#FFBF99"/>
<path d="M287.182 257.684L295.952 259.245C299.196 259.846 302.68 259.846 305.924 259.125L315.895 257.084C315.414 252.519 314.573 247.716 315.774 243.392C315.174 243.872 314.573 244.232 313.973 244.593C314.573 244.353 310.969 245.073 311.329 245.073C309.648 245.193 308.086 243.872 306.524 244.113C304.963 244.353 304.481 245.914 303.04 246.394C300.878 247.115 294.751 247.355 292.949 245.794C290.066 243.272 292.108 243.992 288.625 245.314C288.504 244.593 288.144 243.872 287.664 243.152H286.342C286.942 245.433 287.423 247.835 287.423 248.676L287.182 257.684Z" fill="#FFBF99"/>
<path d="M182.898 243.152H183.138C185.421 241.11 187.343 237.867 188.785 234.864C187.943 235.825 186.983 236.786 185.901 237.867C184.34 239.429 183.379 241.23 182.898 243.152Z" fill="#170856"/>
<path d="M315.894 243.152H316.135C318.416 241.11 320.339 237.867 321.78 234.864C320.939 235.825 319.978 236.786 318.898 237.867C317.336 239.429 316.375 241.23 315.894 243.152Z" fill="#170856"/>
<path d="M195.751 212.301C196.592 205.45 196.566 198.607 194.105 193.142C191.637 187.664 186.734 183.589 177.87 182.263C169.814 181.061 160.418 180.817 152.699 183.951C146.163 186.614 142.183 193.382 140.137 199.759C139.047 202.968 139.17 206.412 139.727 209.739C140.109 212.021 140.697 214.258 141.243 216.326C141.49 217.27 141.729 218.178 141.936 219.04L141.937 219.045C142.056 219.459 142.144 219.905 142.235 220.371C142.243 220.412 142.251 220.453 142.259 220.494C142.341 220.92 142.427 221.362 142.537 221.803L142.548 221.848L142.586 221.874C142.773 221.998 142.959 222.091 143.137 222.181L143.14 222.182C143.32 222.271 143.492 222.357 143.663 222.471C143.921 222.681 144.007 223.024 144.082 223.403C144.086 223.424 144.09 223.444 144.094 223.464C144.127 223.629 144.161 223.799 144.212 223.95C144.271 224.121 144.356 224.281 144.503 224.392L144.511 224.398C144.857 224.618 145.154 224.675 145.404 224.579C145.648 224.485 145.807 224.256 145.917 223.998C146.106 223.553 146.178 222.937 146.232 222.475C146.241 222.402 146.248 222.334 146.256 222.27H146.257V222.263C146.376 220.608 146.062 219.013 145.755 217.451C145.746 217.408 145.738 217.365 145.729 217.323C145.413 215.713 145.118 214.14 145.296 212.54V212.539C145.534 210.275 146.369 207.709 147.638 205.516C148.907 203.32 150.602 201.515 152.548 200.748C156.485 199.198 161.623 199.078 165.682 200.391L165.72 200.403L165.758 200.39C169.82 198.957 174.957 198.838 178.892 200.269C180.85 200.981 183.237 202.738 185.212 204.877C187.188 207.017 188.73 209.516 189.025 211.702V211.704C189.262 213.304 189.026 214.907 188.771 216.531C188.762 216.585 188.754 216.64 188.745 216.693C188.498 218.259 188.248 219.842 188.425 221.427V221.431C188.435 221.501 188.446 221.582 188.456 221.671C188.478 221.838 188.502 222.03 188.534 222.224C188.583 222.521 188.653 222.836 188.763 223.097C188.873 223.355 189.034 223.585 189.282 223.672C189.534 223.76 189.83 223.684 190.172 223.435C190.35 223.327 190.452 223.167 190.518 222.993C190.583 222.82 190.615 222.623 190.644 222.439C190.707 222.052 190.764 221.715 191.019 221.509C191.334 221.281 191.579 221.224 191.768 221.254C191.958 221.286 192.121 221.409 192.261 221.604C192.541 221.996 192.688 222.627 192.748 223.102V223.108V223.112V223.117V223.12V223.124V223.129V223.133V223.138V223.141V223.145V223.15V223.154V223.158V223.163V223.166V223.171V223.175V223.179V223.184V223.187V223.191V223.196V223.2V223.204V223.208V223.212V223.216V223.221V223.225V223.229V223.233V223.237V223.241V223.246V223.25V223.253V223.258V223.262V223.266V223.271V223.274V223.278V223.282V223.287V223.291V223.294V223.299V223.303V223.307V223.311V223.315V223.319V223.323V223.327V223.332V223.336V223.339V223.343V223.348V223.352V223.356V223.359V223.364V223.368V223.372V223.376V223.381V223.384V223.388V223.392V223.397V223.401V223.404V223.408V223.412V223.417V223.421V223.424V223.428V223.432V223.437V223.441V223.445V223.448V223.452V223.457V223.461V223.465V223.468V223.472V223.477V223.481V223.485V223.489V223.492V223.496V223.501V223.505V223.509V223.512V223.516V223.52V223.524V223.529V223.533V223.536V223.54V223.544V223.548V223.552V223.556V223.56V223.564V223.568V223.572V223.576V223.579V223.583V223.587V223.592V223.596V223.599V223.603V223.607V223.611V223.615V223.619V223.622V223.626V223.631V223.635V223.639V223.642V223.646V223.65V223.654V223.658V223.662V223.665V223.669V223.673V223.677V223.681V223.686V223.689V223.693V223.697V223.701V223.705V223.708V223.712V223.716V223.72V223.724V223.728V223.731V223.735V223.739V223.743V223.747V223.751V223.754V223.758V223.762V223.766V223.77V223.773V223.777V223.781V223.785V223.789V223.793V223.796V223.8V223.804V223.808V223.812V223.816V223.819V223.823V223.827V223.831V223.835V223.839V223.842V223.846V223.85V223.854V223.858V223.861V223.865V223.869V223.873V223.877V223.881V223.884V223.888V223.892V223.896V223.9V223.904V223.906V223.91V223.914V223.918V223.922V223.925V223.929V223.933V223.937V223.941V223.945V223.948V223.952V223.956V223.96V223.963V223.967V223.97V223.974V223.978V223.982V223.986V223.99V223.993V223.997V224.001V224.005V224.008V224.012V224.015V224.019V224.023V224.027V224.031V224.034V224.038V224.041V224.045V224.049V224.053V224.056V224.06V224.064V224.068V224.072V224.075V224.078V224.082V224.086V224.09V224.094V224.098V224.1V224.104V224.108V224.112V224.116V224.12V224.123V224.127V224.13V224.134V224.138V224.142V224.145V224.149V224.152V224.156V224.16V224.164V224.167V224.171V224.175V224.178V224.182V224.186V224.189V224.193V224.196V224.2V224.204V224.208V224.211V224.215V224.218V224.222V224.226V224.23V224.233V224.237V224.24V224.244V224.248V224.252V224.255V224.258V224.262V224.266V224.27V224.274V224.276V224.28V224.284V224.288V224.292V224.295V224.298V224.302V224.306V224.31V224.313V224.317V224.32V224.324V224.328V224.331V224.335V224.339V224.342V224.345V224.349V224.353V224.357V224.361V224.363V224.367V224.371V224.375V224.378V224.382V224.385V224.389V224.393V224.396V224.4V224.404V224.407V224.41V224.414V224.418V224.422V224.425V224.428V224.432V224.436V224.439V224.443V224.447V224.45V224.453V224.457V224.461V224.465V224.468V224.471V224.475V224.479V224.482V224.486V224.49V224.493V224.496V224.5V224.504V224.508V224.511V224.514V224.518V224.522V224.525V224.529V224.533V224.535V224.539V224.543V224.547V224.55V224.554V224.557V224.561V224.564V224.568V224.572V224.575V224.579V224.582V224.586V224.589V224.593V224.597V224.601V224.603V224.607V224.611V224.614V224.618V224.622V224.625V224.628V224.632V224.636V224.639V224.643V224.646V224.65V224.653V224.657V224.661V224.664V224.667V224.671V224.674V224.678V224.682V224.686V224.688V224.692V224.696V224.699V224.703V224.707V224.71V224.713V224.717V224.721V224.724V224.728V224.732V224.734V224.738V224.742V224.745V224.749V224.753V224.756V224.759V224.763V224.767V224.77V224.774V224.777V224.78V224.784V224.788V224.792V224.795V224.798V224.802V224.805V224.809V224.813V224.816V224.819V224.823V224.826V224.83V224.834V224.837V224.84V224.844V224.848V224.851V224.855V224.859V224.862V224.865V224.869V224.872V224.876V224.88V224.883V224.886V224.89V224.893V224.897V224.901V224.904V224.907V224.911V224.915V224.918V224.922V224.926V224.928V224.932V224.936V224.939V224.943V224.947V224.949V224.953V224.957V224.96V224.964V224.968V224.971V224.974V224.978V224.981V224.985V224.989V224.993V224.995V224.999V225.003V225.006V225.01V225.014V225.016V225.48L192.973 225.075L192.976 225.07C193.575 223.992 194.181 222.902 194.545 221.69C195.029 220.236 195.241 218.633 195.376 217.025C195.426 216.422 195.466 215.82 195.507 215.223C195.573 214.223 195.638 213.24 195.751 212.301ZM195.751 212.301L195.632 212.286L195.751 212.3C195.751 212.301 195.751 212.301 195.751 212.301Z" fill="#170856"/>
<path d="M195.751 212.301C196.592 205.45 196.566 198.607 194.105 193.142C191.637 187.664 186.734 183.589 177.87 182.263C169.814 181.061 160.418 180.817 152.699 183.951C146.163 186.614 142.183 193.382 140.137 199.759C139.047 202.968 139.17 206.412 139.727 209.739C140.109 212.021 140.697 214.258 141.243 216.326C141.49 217.27 141.729 218.178 141.936 219.04L141.937 219.045C142.056 219.459 142.144 219.905 142.235 220.371C142.243 220.412 142.251 220.453 142.259 220.494C142.341 220.92 142.427 221.362 142.537 221.803L142.548 221.848L142.586 221.874C142.773 221.998 142.959 222.091 143.137 222.181L143.14 222.182C143.32 222.271 143.492 222.357 143.663 222.471C143.921 222.681 144.007 223.024 144.082 223.403C144.086 223.424 144.09 223.444 144.094 223.464C144.127 223.629 144.161 223.799 144.212 223.95C144.271 224.121 144.356 224.281 144.503 224.392L144.511 224.398C144.857 224.618 145.154 224.675 145.404 224.579C145.648 224.485 145.807 224.256 145.917 223.998C146.106 223.553 146.178 222.937 146.232 222.475C146.241 222.402 146.248 222.334 146.256 222.27H146.257V222.263C146.376 220.608 146.062 219.013 145.755 217.451C145.746 217.408 145.738 217.365 145.729 217.323C145.413 215.713 145.118 214.14 145.296 212.54V212.539C145.534 210.275 146.369 207.709 147.638 205.516C148.907 203.32 150.602 201.515 152.548 200.748C156.485 199.198 161.623 199.078 165.682 200.391L165.72 200.403L165.758 200.39C169.82 198.957 174.957 198.838 178.892 200.269C180.85 200.981 183.237 202.738 185.212 204.877C187.188 207.017 188.73 209.516 189.025 211.702V211.704C189.262 213.304 189.026 214.907 188.771 216.531C188.762 216.585 188.754 216.64 188.745 216.693C188.498 218.259 188.248 219.842 188.425 221.427V221.431C188.435 221.501 188.446 221.582 188.456 221.671C188.478 221.838 188.502 222.03 188.534 222.224C188.583 222.521 188.653 222.836 188.763 223.097C188.873 223.355 189.034 223.585 189.282 223.672C189.534 223.76 189.83 223.684 190.172 223.435C190.35 223.327 190.452 223.167 190.518 222.993C190.583 222.82 190.615 222.623 190.644 222.439C190.707 222.052 190.764 221.715 191.019 221.509C191.334 221.281 191.579 221.224 191.768 221.254C191.958 221.286 192.121 221.409 192.261 221.604C192.541 221.996 192.688 222.627 192.748 223.102V223.108V223.112V223.117V223.12V223.124V223.129V223.133V223.138V223.141V223.145V223.15V223.154V223.158V223.163V223.166V223.171V223.175V223.179V223.184V223.187V223.191V223.196V223.2V223.204V223.208V223.212V223.216V223.221V223.225V223.229V223.233V223.237V223.241V223.246V223.25V223.253V223.258V223.262V223.266V223.271V223.274V223.278V223.282V223.287V223.291V223.294V223.299V223.303V223.307V223.311V223.315V223.319V223.323V223.327V223.332V223.336V223.339V223.343V223.348V223.352V223.356V223.359V223.364V223.368V223.372V223.376V223.381V223.384V223.388V223.392V223.397V223.401V223.404V223.408V223.412V223.417V223.421V223.424V223.428V223.432V223.437V223.441V223.445V223.448V223.452V223.457V223.461V223.465V223.468V223.472V223.477V223.481V223.485V223.489V223.492V223.496V223.501V223.505V223.509V223.512V223.516V223.52V223.524V223.529V223.533V223.536V223.54V223.544V223.548V223.552V223.556V223.56V223.564V223.568V223.572V223.576V223.579V223.583V223.587V223.592V223.596V223.599V223.603V223.607V223.611V223.615V223.619V223.622V223.626V223.631V223.635V223.639V223.642V223.646V223.65V223.654V223.658V223.662V223.665V223.669V223.673V223.677V223.681V223.686V223.689V223.693V223.697V223.701V223.705V223.708V223.712V223.716V223.72V223.724V223.728V223.731V223.735V223.739V223.743V223.747V223.751V223.754V223.758V223.762V223.766V223.77V223.773V223.777V223.781V223.785V223.789V223.793V223.796V223.8V223.804V223.808V223.812V223.816V223.819V223.823V223.827V223.831V223.835V223.839V223.842V223.846V223.85V223.854V223.858V223.861V223.865V223.869V223.873V223.877V223.881V223.884V223.888V223.892V223.896V223.9V223.904V223.906V223.91V223.914V223.918V223.922V223.925V223.929V223.933V223.937V223.941V223.945V223.948V223.952V223.956V223.96V223.963V223.967V223.97V223.974V223.978V223.982V223.986V223.99V223.993V223.997V224.001V224.005V224.008V224.012V224.015V224.019V224.023V224.027V224.031V224.034V224.038V224.041V224.045V224.049V224.053V224.056V224.06V224.064V224.068V224.072V224.075V224.078V224.082V224.086V224.09V224.094V224.098V224.1V224.104V224.108V224.112V224.116V224.12V224.123V224.127V224.13V224.134V224.138V224.142V224.145V224.149V224.152V224.156V224.16V224.164V224.167V224.171V224.175V224.178V224.182V224.186V224.189V224.193V224.196V224.2V224.204V224.208V224.211V224.215V224.218V224.222V224.226V224.23V224.233V224.237V224.24V224.244V224.248V224.252V224.255V224.258V224.262V224.266V224.27V224.274V224.276V224.28V224.284V224.288V224.292V224.295V224.298V224.302V224.306V224.31V224.313V224.317V224.32V224.324V224.328V224.331V224.335V224.339V224.342V224.345V224.349V224.353V224.357V224.361V224.363V224.367V224.371V224.375V224.378V224.382V224.385V224.389V224.393V224.396V224.4V224.404V224.407V224.41V224.414V224.418V224.422V224.425V224.428V224.432V224.436V224.439V224.443V224.447V224.45V224.453V224.457V224.461V224.465V224.468V224.471V224.475V224.479V224.482V224.486V224.49V224.493V224.496V224.5V224.504V224.508V224.511V224.514V224.518V224.522V224.525V224.529V224.533V224.535V224.539V224.543V224.547V224.55V224.554V224.557V224.561V224.564V224.568V224.572V224.575V224.579V224.582V224.586V224.589V224.593V224.597V224.601V224.603V224.607V224.611V224.614V224.618V224.622V224.625V224.628V224.632V224.636V224.639V224.643V224.646V224.65V224.653V224.657V224.661V224.664V224.667V224.671V224.674V224.678V224.682V224.686V224.688V224.692V224.696V224.699V224.703V224.707V224.71V224.713V224.717V224.721V224.724V224.728V224.732V224.734V224.738V224.742V224.745V224.749V224.753V224.756V224.759V224.763V224.767V224.77V224.774V224.777V224.78V224.784V224.788V224.792V224.795V224.798V224.802V224.805V224.809V224.813V224.816V224.819V224.823V224.826V224.83V224.834V224.837V224.84V224.844V224.848V224.851V224.855V224.859V224.862V224.865V224.869V224.872V224.876V224.88V224.883V224.886V224.89V224.893V224.897V224.901V224.904V224.907V224.911V224.915V224.918V224.922V224.926V224.928V224.932V224.936V224.939V224.943V224.947V224.949V224.953V224.957V224.96V224.964V224.968V224.971V224.974V224.978V224.981V224.985V224.989V224.993V224.995V224.999V225.003V225.006V225.01V225.014V225.016V225.48L192.973 225.075L192.976 225.07C193.575 223.992 194.181 222.902 194.545 221.69C195.029 220.236 195.241 218.633 195.376 217.025C195.426 216.422 195.466 215.82 195.507 215.223C195.573 214.223 195.638 213.24 195.751 212.301ZM195.751 212.301L195.632 212.286L195.751 212.3C195.751 212.301 195.751 212.301 195.751 212.301Z" stroke="#170856" stroke-width="0.227584"/>
<path d="M150.702 237.026C150.942 237.387 151.183 237.747 151.423 238.228C151.543 238.468 151.784 238.828 151.903 239.188C151.543 238.228 151.183 237.507 150.823 237.147C150.823 237.026 150.823 237.026 150.702 237.026Z" fill="#373232"/>
<path d="M283.699 237.026C283.939 237.387 284.179 237.747 284.419 238.228C284.54 238.468 284.78 238.828 284.9 239.188C284.54 238.228 284.179 237.507 283.819 237.147C283.819 237.026 283.819 237.026 283.699 237.026Z" fill="#373232"/>
<path d="M182.777 243.392C182.898 243.272 183.017 243.152 183.138 243.152H182.898C182.898 243.272 182.777 243.392 182.777 243.392Z" fill="#373232"/>
<path d="M151.099 237.351C151.438 237.692 151.791 238.389 152.152 239.351L152.156 239.362L152.163 239.373C152.585 240.036 153.067 240.728 153.547 241.418V241.419C154.028 242.11 154.507 242.798 154.926 243.456L154.961 243.512H155.027H182.898H183.018V243.392V243.166C183.495 241.27 184.445 239.494 185.986 237.953L185.988 237.951C187.068 236.871 188.031 235.908 188.875 234.944L188.886 234.931L188.894 234.916C189.693 233.203 190.276 231.598 190.743 230.311C190.769 230.241 190.794 230.171 190.82 230.102V230.101C191.417 228.431 192.253 226.878 193.212 225.32L193.229 225.291V225.257V225.254V225.25V225.246V225.243V225.239V225.235V225.233V225.229V225.225V225.222V225.218V225.214V225.212V225.208V225.204V225.201V225.197V225.193V225.19V225.187V225.183V225.18V225.176V225.172V225.169V225.166V225.162V225.158V225.155V225.151V225.147V225.145V225.141V225.137V225.134V225.13V225.126V225.124V225.12V225.116V225.113V225.109V225.105V225.103V225.099V225.095V225.091V225.088V225.084V225.081V225.078V225.074V225.07V225.067V225.063V225.059V225.057V225.053V225.049V225.046V225.042V225.038V225.035V225.032V225.028V225.024V225.021V225.017V225.014V225.011V225.007V225.003V225V224.996V224.993V224.989V224.986V224.982V224.978V224.975V224.972V224.968V224.965V224.961V224.957V224.953V224.95V224.947V224.943V224.94V224.936V224.932V224.929V224.926V224.922V224.918V224.915V224.911V224.907V224.905V224.901V224.897V224.893V224.89V224.886V224.883V224.88V224.876V224.872V224.868V224.865V224.862V224.858V224.855V224.851V224.847V224.843V224.841V224.837V224.833V224.83V224.826V224.822V224.819V224.816V224.812V224.808V224.805V224.801V224.798V224.794V224.791V224.787V224.783V224.779V224.776V224.773V224.769V224.765V224.762V224.758V224.754V224.752V224.748V224.744V224.74V224.737V224.733V224.73V224.726V224.723V224.719V224.715V224.711V224.709V224.705V224.701V224.697V224.694V224.69V224.687V224.683V224.68V224.676V224.672V224.668V224.666V224.662V224.658V224.654V224.651V224.647V224.644V224.64V224.637V224.633V224.629V224.625V224.622V224.619V224.615V224.611V224.607V224.604V224.601V224.597V224.593V224.589V224.586V224.582V224.579V224.575V224.572V224.568V224.564V224.56V224.557V224.554V224.55V224.546V224.542V224.538V224.536V224.532V224.528V224.524V224.52V224.517V224.514V224.51V224.506V224.502V224.499V224.495V224.492V224.488V224.484V224.481V224.477V224.473V224.47V224.466V224.463V224.459V224.455V224.451V224.448V224.444V224.441V224.437V224.433V224.429V224.426V224.422V224.419V224.415V224.411V224.407V224.404V224.4V224.397V224.393V224.389V224.385V224.382V224.378V224.374V224.371V224.367V224.363V224.36V224.356V224.352V224.348V224.345V224.341V224.338V224.334V224.33V224.326V224.322V224.319V224.316V224.312V224.308V224.304V224.3V224.297V224.293V224.289V224.286V224.282V224.278V224.275V224.271V224.267V224.263V224.259V224.255V224.253V224.249V224.245V224.241V224.237V224.233V224.23V224.226V224.222V224.218V224.214V224.211V224.208V224.204V224.2V224.196V224.192V224.188V224.185V224.181V224.177V224.173V224.169V224.166V224.163V224.159V224.155V224.151V224.147V224.144V224.14V224.136V224.132V224.128V224.124V224.121V224.117V224.113V224.109V224.105V224.101V224.098V224.094V224.09V224.086V224.082V224.079V224.075V224.071V224.067V224.063V224.059V224.057V224.053V224.049V224.045V224.041V224.037V224.034V224.03V224.026V224.022V224.018V224.014V224.01V224.006V224.002V223.998V223.994V223.991V223.987V223.983V223.979V223.975V223.971V223.968V223.964V223.96V223.956V223.952V223.948V223.945V223.941V223.937V223.933V223.929V223.926V223.922V223.918V223.914V223.91V223.905V223.902V223.898V223.894V223.89V223.886V223.883V223.879V223.875V223.871V223.867V223.863V223.859V223.855V223.851V223.847V223.843V223.839V223.836V223.832V223.828V223.824V223.819V223.816V223.812V223.808V223.804V223.8V223.796V223.793V223.788V223.784V223.78V223.776V223.773V223.769V223.765V223.761V223.756V223.752V223.749V223.745V223.741V223.737V223.732V223.729V223.725V223.721V223.717V223.713V223.709V223.705V223.701V223.697V223.693V223.688V223.685V223.681V223.677V223.673V223.669V223.665V223.661V223.657V223.653V223.648V223.644V223.641V223.637V223.633V223.628V223.624V223.621V223.617V223.612V223.608V223.604V223.6V223.596V223.592V223.588V223.584V223.579V223.576V223.572V223.568V223.563V223.559V223.556V223.552V223.547V223.543V223.539V223.535V223.531V223.527V223.523V223.518V223.514V223.511V223.506V223.502V223.498V223.494V223.49V223.486V223.482V223.477V223.473V223.469V223.465V223.461V223.457V223.452V223.448V223.445V223.44V223.436V223.432V223.427V223.424V223.419V223.415V223.411V223.406V223.403V223.399V223.394V223.39V223.386V223.382V223.378V223.373V223.369V223.365V223.36V223.357V223.352V223.348V223.344V223.339V223.336V223.328L193.228 223.32C193.168 222.837 193.015 222.15 192.696 221.704C192.536 221.479 192.322 221.302 192.047 221.258C191.771 221.213 191.462 221.306 191.116 221.557V221.556L191.113 221.56C190.778 221.828 190.71 222.255 190.652 222.613L190.648 222.641C190.618 222.831 190.589 223.003 190.534 223.148C190.48 223.292 190.405 223.401 190.284 223.472L190.281 223.474C189.968 223.674 189.753 223.692 189.604 223.636C189.45 223.578 189.325 223.426 189.225 223.197C189.126 222.97 189.06 222.689 189.011 222.407C188.98 222.218 188.956 222.034 188.935 221.87C188.924 221.788 188.914 221.71 188.903 221.639C188.73 220.02 188.98 218.455 189.229 216.887L189.249 216.764C189.504 215.16 189.747 213.552 189.504 211.909C189.199 209.592 187.618 207.047 185.629 204.908C183.638 202.768 181.221 201.013 179.215 200.284C175.235 198.837 169.941 198.953 165.957 200.39C161.856 199.074 156.562 199.077 152.699 200.766C150.682 201.561 148.953 203.418 147.671 205.636C146.386 207.856 145.539 210.455 145.297 212.753C145.114 214.396 145.42 216.005 145.734 217.609C145.742 217.648 145.75 217.687 145.757 217.725C146.066 219.295 146.373 220.861 146.258 222.482C146.243 222.588 146.231 222.71 146.216 222.841V222.845C146.202 222.98 146.187 223.124 146.166 223.271C146.127 223.565 146.073 223.861 145.98 224.103C145.887 224.347 145.764 224.513 145.605 224.58C145.45 224.645 145.222 224.634 144.877 224.433C144.758 224.362 144.682 224.252 144.629 224.109C144.573 223.963 144.544 223.792 144.514 223.601C144.513 223.593 144.511 223.583 144.51 223.574C144.453 223.216 144.385 222.789 144.05 222.521L144.041 222.515C143.683 222.275 143.415 222.135 143.135 222.135H142.996L143.015 222.271C143.075 222.695 143.166 223.148 143.256 223.598L143.257 223.6C143.347 224.05 143.436 224.497 143.496 224.913C143.861 227.465 145.076 229.497 146.522 231.409C147.028 232.078 147.565 232.736 148.103 233.396C148.333 233.678 148.563 233.96 148.792 234.244C149.557 235.194 150.305 236.166 150.962 237.211L150.968 237.222L150.978 237.232L151.099 237.351Z" fill="#170856"/>
<path d="M151.099 237.351L151.183 237.267M151.099 237.351C151.438 237.692 151.791 238.389 152.152 239.351L152.156 239.362L152.163 239.373C152.585 240.036 153.067 240.728 153.547 241.418V241.419C154.028 242.11 154.507 242.798 154.926 243.456L154.961 243.512H155.027H182.898H183.018V243.392V243.166C183.495 241.27 184.445 239.494 185.986 237.953L185.988 237.951C187.068 236.871 188.031 235.908 188.875 234.944L188.886 234.931L188.894 234.916C189.693 233.203 190.276 231.598 190.743 230.311C190.769 230.241 190.794 230.171 190.82 230.102V230.101C191.417 228.431 192.253 226.878 193.212 225.32L193.229 225.291V225.257V225.254V225.25V225.246V225.243V225.239V225.235V225.233V225.229V225.225V225.222V225.218V225.214V225.212V225.208V225.204V225.201V225.197V225.193V225.19V225.187V225.183V225.18V225.176V225.172V225.169V225.166V225.162V225.158V225.155V225.151V225.147V225.145V225.141V225.137V225.134V225.13V225.126V225.124V225.12V225.116V225.113V225.109V225.105V225.103V225.099V225.095V225.091V225.088V225.084V225.081V225.078V225.074V225.07V225.067V225.063V225.059V225.057V225.053V225.049V225.046V225.042V225.038V225.035V225.032V225.028V225.024V225.021V225.017V225.014V225.011V225.007V225.003V225V224.996V224.993V224.989V224.986V224.982V224.978V224.975V224.972V224.968V224.965V224.961V224.957V224.953V224.95V224.947V224.943V224.94V224.936V224.932V224.929V224.926V224.922V224.918V224.915V224.911V224.907V224.905V224.901V224.897V224.893V224.89V224.886V224.883V224.88V224.876V224.872V224.868V224.865V224.862V224.858V224.855V224.851V224.847V224.843V224.841V224.837V224.833V224.83V224.826V224.822V224.819V224.816V224.812V224.808V224.805V224.801V224.798V224.794V224.791V224.787V224.783V224.779V224.776V224.773V224.769V224.765V224.762V224.758V224.754V224.752V224.748V224.744V224.74V224.737V224.733V224.73V224.726V224.723V224.719V224.715V224.711V224.709V224.705V224.701V224.697V224.694V224.69V224.687V224.683V224.68V224.676V224.672V224.668V224.666V224.662V224.658V224.654V224.651V224.647V224.644V224.64V224.637V224.633V224.629V224.625V224.622V224.619V224.615V224.611V224.607V224.604V224.601V224.597V224.593V224.589V224.586V224.582V224.579V224.575V224.572V224.568V224.564V224.56V224.557V224.554V224.55V224.546V224.542V224.538V224.536V224.532V224.528V224.524V224.52V224.517V224.514V224.51V224.506V224.502V224.499V224.495V224.492V224.488V224.484V224.481V224.477V224.473V224.47V224.466V224.463V224.459V224.455V224.451V224.448V224.444V224.441V224.437V224.433V224.429V224.426V224.422V224.419V224.415V224.411V224.407V224.404V224.4V224.397V224.393V224.389V224.385V224.382V224.378V224.374V224.371V224.367V224.363V224.36V224.356V224.352V224.348V224.345V224.341V224.338V224.334V224.33V224.326V224.322V224.319V224.316V224.312V224.308V224.304V224.3V224.297V224.293V224.289V224.286V224.282V224.278V224.275V224.271V224.267V224.263V224.259V224.255V224.253V224.249V224.245V224.241V224.237V224.233V224.23V224.226V224.222V224.218V224.214V224.211V224.208V224.204V224.2V224.196V224.192V224.188V224.185V224.181V224.177V224.173V224.169V224.166V224.163V224.159V224.155V224.151V224.147V224.144V224.14V224.136V224.132V224.128V224.124V224.121V224.117V224.113V224.109V224.105V224.101V224.098V224.094V224.09V224.086V224.082V224.079V224.075V224.071V224.067V224.063V224.059V224.057V224.053V224.049V224.045V224.041V224.037V224.034V224.03V224.026V224.022V224.018V224.014V224.01V224.006V224.002V223.998V223.994V223.991V223.987V223.983V223.979V223.975V223.971V223.968V223.964V223.96V223.956V223.952V223.948V223.945V223.941V223.937V223.933V223.929V223.926V223.922V223.918V223.914V223.91V223.905V223.902V223.898V223.894V223.89V223.886V223.883V223.879V223.875V223.871V223.867V223.863V223.859V223.855V223.851V223.847V223.843V223.839V223.836V223.832V223.828V223.824V223.819V223.816V223.812V223.808V223.804V223.8V223.796V223.793V223.788V223.784V223.78V223.776V223.773V223.769V223.765V223.761V223.756V223.752V223.749V223.745V223.741V223.737V223.732V223.729V223.725V223.721V223.717V223.713V223.709V223.705V223.701V223.697V223.693V223.688V223.685V223.681V223.677V223.673V223.669V223.665V223.661V223.657V223.653V223.648V223.644V223.641V223.637V223.633V223.628V223.624V223.621V223.617V223.612V223.608V223.604V223.6V223.596V223.592V223.588V223.584V223.579V223.576V223.572V223.568V223.563V223.559V223.556V223.552V223.547V223.543V223.539V223.535V223.531V223.527V223.523V223.518V223.514V223.511V223.506V223.502V223.498V223.494V223.49V223.486V223.482V223.477V223.473V223.469V223.465V223.461V223.457V223.452V223.448V223.445V223.44V223.436V223.432V223.427V223.424V223.419V223.415V223.411V223.406V223.403V223.399V223.394V223.39V223.386V223.382V223.378V223.373V223.369V223.365V223.36V223.357V223.352V223.348V223.344V223.339V223.336V223.328L193.228 223.32C193.168 222.837 193.015 222.15 192.696 221.704C192.536 221.479 192.322 221.302 192.047 221.258C191.771 221.213 191.462 221.306 191.116 221.557V221.556L191.113 221.56C190.778 221.828 190.71 222.255 190.652 222.613L190.648 222.641C190.618 222.831 190.589 223.003 190.534 223.148C190.48 223.292 190.405 223.401 190.284 223.472L190.281 223.474C189.968 223.674 189.753 223.692 189.604 223.636C189.45 223.578 189.325 223.426 189.225 223.197C189.126 222.97 189.06 222.689 189.011 222.407C188.98 222.218 188.956 222.034 188.935 221.87C188.924 221.788 188.914 221.71 188.903 221.639C188.73 220.02 188.98 218.455 189.229 216.887L189.249 216.764C189.504 215.16 189.747 213.552 189.504 211.909C189.199 209.592 187.618 207.047 185.629 204.908C183.638 202.768 181.221 201.013 179.215 200.284C175.235 198.837 169.941 198.953 165.957 200.39C161.856 199.074 156.562 199.077 152.699 200.766C150.682 201.561 148.953 203.418 147.671 205.636C146.386 207.856 145.539 210.455 145.297 212.753C145.114 214.396 145.42 216.005 145.734 217.609C145.742 217.648 145.75 217.687 145.757 217.725C146.066 219.295 146.373 220.861 146.258 222.482C146.243 222.588 146.231 222.71 146.216 222.841V222.845C146.202 222.98 146.187 223.124 146.166 223.271C146.127 223.565 146.073 223.861 145.98 224.103C145.887 224.347 145.764 224.513 145.605 224.58C145.45 224.645 145.222 224.634 144.877 224.433C144.758 224.362 144.682 224.252 144.629 224.109C144.573 223.963 144.544 223.792 144.514 223.601C144.513 223.593 144.511 223.583 144.51 223.574C144.453 223.216 144.385 222.789 144.05 222.521L144.041 222.515C143.683 222.275 143.415 222.135 143.135 222.135H142.996L143.015 222.271C143.075 222.695 143.166 223.148 143.256 223.598L143.257 223.6C143.347 224.05 143.436 224.497 143.496 224.913C143.861 227.465 145.076 229.497 146.522 231.409C147.028 232.078 147.565 232.736 148.103 233.396C148.333 233.678 148.563 233.96 148.792 234.244C149.557 235.194 150.305 236.166 150.962 237.211L150.968 237.222L150.978 237.232L151.099 237.351Z" stroke="#170856" stroke-width="0.227584"/>
<path d="M284.095 237.351C284.435 237.692 284.788 238.389 285.149 239.351L285.153 239.362L285.16 239.373C285.582 240.036 286.063 240.728 286.543 241.418L286.544 241.419C287.025 242.11 287.504 242.798 287.923 243.456L287.958 243.512H288.024H315.894H316.015V243.392V243.166C316.491 241.27 317.441 239.494 318.983 237.953L318.984 237.951C320.064 236.871 321.028 235.908 321.872 234.944L321.883 234.931L321.89 234.916C322.689 233.203 323.273 231.598 323.74 230.311C323.766 230.241 323.791 230.171 323.816 230.102L323.817 230.101C324.413 228.431 325.25 226.878 326.208 225.32L326.226 225.291V225.257V225.254V225.25V225.246V225.243V225.239V225.235V225.233V225.229V225.225V225.222V225.218V225.214V225.212V225.208V225.204V225.201V225.197V225.193V225.19V225.187V225.183V225.18V225.176V225.172V225.169V225.166V225.162V225.158V225.155V225.151V225.147V225.145V225.141V225.137V225.134V225.13V225.126V225.124V225.12V225.116V225.113V225.109V225.105V225.103V225.099V225.095V225.091V225.088V225.084V225.081V225.078V225.074V225.07V225.067V225.063V225.059V225.057V225.053V225.049V225.046V225.042V225.038V225.035V225.032V225.028V225.024V225.021V225.017V225.014V225.011V225.007V225.003V225V224.996V224.993V224.989V224.986V224.982V224.978V224.975V224.972V224.968V224.965V224.961V224.957V224.953V224.95V224.947V224.943V224.94V224.936V224.932V224.929V224.926V224.922V224.918V224.915V224.911V224.907V224.905V224.901V224.897V224.893V224.89V224.886V224.883V224.88V224.876V224.872V224.868V224.865V224.862V224.858V224.855V224.851V224.847V224.843V224.841V224.837V224.833V224.83V224.826V224.822V224.819V224.816V224.812V224.808V224.805V224.801V224.798V224.794V224.791V224.787V224.783V224.779V224.776V224.773V224.769V224.765V224.762V224.758V224.754V224.752V224.748V224.744V224.74V224.737V224.733V224.73V224.726V224.723V224.719V224.715V224.711V224.709V224.705V224.701V224.697V224.694V224.69V224.687V224.683V224.68V224.676V224.672V224.668V224.666V224.662V224.658V224.654V224.651V224.647V224.644V224.64V224.637V224.633V224.629V224.625V224.622V224.619V224.615V224.611V224.607V224.604V224.601V224.597V224.593V224.589V224.586V224.582V224.579V224.575V224.572V224.568V224.564V224.56V224.557V224.554V224.55V224.546V224.542V224.538V224.536V224.532V224.528V224.524V224.52V224.517V224.514V224.51V224.506V224.502V224.499V224.495V224.492V224.488V224.484V224.481V224.477V224.473V224.47V224.466V224.463V224.459V224.455V224.451V224.448V224.444V224.441V224.437V224.433V224.429V224.426V224.422V224.419V224.415V224.411V224.407V224.404V224.4V224.397V224.393V224.389V224.385V224.382V224.378V224.374V224.371V224.367V224.363V224.36V224.356V224.352V224.348V224.345V224.341V224.338V224.334V224.33V224.326V224.322V224.319V224.316V224.312V224.308V224.304V224.3V224.297V224.293V224.289V224.286V224.282V224.278V224.275V224.271V224.267V224.263V224.259V224.255V224.253V224.249V224.245V224.241V224.237V224.233V224.23V224.226V224.222V224.218V224.214V224.211V224.208V224.204V224.2V224.196V224.192V224.188V224.185V224.181V224.177V224.173V224.169V224.166V224.163V224.159V224.155V224.151V224.147V224.144V224.14V224.136V224.132V224.128V224.124V224.121V224.117V224.113V224.109V224.105V224.101V224.098V224.094V224.09V224.086V224.082V224.079V224.075V224.071V224.067V224.063V224.059V224.057V224.053V224.049V224.045V224.041V224.037V224.034V224.03V224.026V224.022V224.018V224.014V224.01V224.006V224.002V223.998V223.994V223.991V223.987V223.983V223.979V223.975V223.971V223.968V223.964V223.96V223.956V223.952V223.948V223.945V223.941V223.937V223.933V223.929V223.926V223.922V223.918V223.914V223.91V223.905V223.902V223.898V223.894V223.89V223.886V223.883V223.879V223.875V223.871V223.867V223.863V223.859V223.855V223.851V223.847V223.843V223.839V223.836V223.832V223.828V223.824V223.819V223.816V223.812V223.808V223.804V223.8V223.796V223.793V223.788V223.784V223.78V223.776V223.773V223.769V223.765V223.761V223.756V223.752V223.749V223.745V223.741V223.737V223.732V223.729V223.725V223.721V223.717V223.713V223.709V223.705V223.701V223.697V223.693V223.688V223.685V223.681V223.677V223.673V223.669V223.665V223.661V223.657V223.653V223.648V223.644V223.641V223.637V223.633V223.628V223.624V223.621V223.617V223.612V223.608V223.604V223.6V223.596V223.592V223.588V223.584V223.579V223.576V223.572V223.568V223.563V223.559V223.556V223.552V223.547V223.543V223.539V223.535V223.531V223.527V223.523V223.518V223.514V223.511V223.506V223.502V223.498V223.494V223.49V223.486V223.482V223.477V223.473V223.469V223.465V223.461V223.457V223.452V223.448V223.445V223.44V223.436V223.432V223.427V223.424V223.419V223.415V223.411V223.406V223.403V223.399V223.394V223.39V223.386V223.382V223.378V223.373V223.369V223.365V223.36V223.357V223.352V223.348V223.344V223.339V223.336V223.328L326.225 223.32C326.165 222.837 326.012 222.15 325.693 221.704C325.532 221.479 325.319 221.302 325.044 221.258C324.769 221.213 324.459 221.306 324.113 221.557V221.556L324.109 221.56C323.775 221.828 323.706 222.255 323.65 222.613L323.645 222.641C323.614 222.831 323.585 223.003 323.531 223.148C323.477 223.292 323.401 223.401 323.281 223.472L323.278 223.474C322.964 223.674 322.75 223.692 322.6 223.636C322.447 223.578 322.322 223.426 322.222 223.197C322.122 222.97 322.057 222.689 322.008 222.407C321.976 222.218 321.953 222.034 321.931 221.87C321.92 221.788 321.911 221.71 321.9 221.639C321.727 220.02 321.976 218.455 322.225 216.887L322.246 216.764C322.5 215.16 322.744 213.552 322.501 211.909C322.196 209.592 320.614 207.047 318.626 204.908C316.635 202.768 314.218 201.013 312.211 200.284C308.232 198.837 302.938 198.953 298.954 200.39C294.853 199.074 289.558 199.077 285.696 200.766C283.679 201.561 281.949 203.418 280.667 205.636C279.383 207.856 278.536 210.455 278.294 212.753C278.112 214.396 278.417 216.005 278.731 217.609C278.739 217.648 278.747 217.687 278.754 217.725C279.062 219.295 279.37 220.861 279.255 222.482C279.24 222.588 279.227 222.71 279.213 222.841L279.212 222.845C279.198 222.98 279.183 223.124 279.164 223.271C279.124 223.565 279.07 223.861 278.977 224.103C278.883 224.347 278.761 224.513 278.601 224.58C278.446 224.645 278.219 224.634 277.874 224.433C277.755 224.362 277.678 224.252 277.625 224.109C277.57 223.963 277.542 223.792 277.511 223.601C277.51 223.593 277.508 223.583 277.506 223.574C277.45 223.216 277.381 222.789 277.047 222.521L277.038 222.515C276.679 222.275 276.411 222.135 276.131 222.135H275.992L276.012 222.271C276.073 222.695 276.163 223.148 276.253 223.598V223.6C276.344 224.05 276.433 224.497 276.492 224.913C276.857 227.465 278.072 229.497 279.519 231.409C280.025 232.078 280.562 232.736 281.099 233.396C281.33 233.678 281.56 233.96 281.789 234.244C282.554 235.194 283.301 236.166 283.958 237.211L283.966 237.222L283.975 237.232L284.095 237.351Z" fill="#170856"/>
<path d="M284.095 237.351L284.18 237.267M284.095 237.351C284.435 237.692 284.788 238.389 285.149 239.351L285.153 239.362L285.16 239.373C285.582 240.036 286.063 240.728 286.543 241.418L286.544 241.419C287.025 242.11 287.504 242.798 287.923 243.456L287.958 243.512H288.024H315.894H316.015V243.392V243.166C316.491 241.27 317.441 239.494 318.983 237.953L318.984 237.951C320.064 236.871 321.028 235.908 321.872 234.944L321.883 234.931L321.89 234.916C322.689 233.203 323.273 231.598 323.74 230.311C323.766 230.241 323.791 230.171 323.816 230.102L323.817 230.101C324.413 228.431 325.25 226.878 326.208 225.32L326.226 225.291V225.257V225.254V225.25V225.246V225.243V225.239V225.235V225.233V225.229V225.225V225.222V225.218V225.214V225.212V225.208V225.204V225.201V225.197V225.193V225.19V225.187V225.183V225.18V225.176V225.172V225.169V225.166V225.162V225.158V225.155V225.151V225.147V225.145V225.141V225.137V225.134V225.13V225.126V225.124V225.12V225.116V225.113V225.109V225.105V225.103V225.099V225.095V225.091V225.088V225.084V225.081V225.078V225.074V225.07V225.067V225.063V225.059V225.057V225.053V225.049V225.046V225.042V225.038V225.035V225.032V225.028V225.024V225.021V225.017V225.014V225.011V225.007V225.003V225V224.996V224.993V224.989V224.986V224.982V224.978V224.975V224.972V224.968V224.965V224.961V224.957V224.953V224.95V224.947V224.943V224.94V224.936V224.932V224.929V224.926V224.922V224.918V224.915V224.911V224.907V224.905V224.901V224.897V224.893V224.89V224.886V224.883V224.88V224.876V224.872V224.868V224.865V224.862V224.858V224.855V224.851V224.847V224.843V224.841V224.837V224.833V224.83V224.826V224.822V224.819V224.816V224.812V224.808V224.805V224.801V224.798V224.794V224.791V224.787V224.783V224.779V224.776V224.773V224.769V224.765V224.762V224.758V224.754V224.752V224.748V224.744V224.74V224.737V224.733V224.73V224.726V224.723V224.719V224.715V224.711V224.709V224.705V224.701V224.697V224.694V224.69V224.687V224.683V224.68V224.676V224.672V224.668V224.666V224.662V224.658V224.654V224.651V224.647V224.644V224.64V224.637V224.633V224.629V224.625V224.622V224.619V224.615V224.611V224.607V224.604V224.601V224.597V224.593V224.589V224.586V224.582V224.579V224.575V224.572V224.568V224.564V224.56V224.557V224.554V224.55V224.546V224.542V224.538V224.536V224.532V224.528V224.524V224.52V224.517V224.514V224.51V224.506V224.502V224.499V224.495V224.492V224.488V224.484V224.481V224.477V224.473V224.47V224.466V224.463V224.459V224.455V224.451V224.448V224.444V224.441V224.437V224.433V224.429V224.426V224.422V224.419V224.415V224.411V224.407V224.404V224.4V224.397V224.393V224.389V224.385V224.382V224.378V224.374V224.371V224.367V224.363V224.36V224.356V224.352V224.348V224.345V224.341V224.338V224.334V224.33V224.326V224.322V224.319V224.316V224.312V224.308V224.304V224.3V224.297V224.293V224.289V224.286V224.282V224.278V224.275V224.271V224.267V224.263V224.259V224.255V224.253V224.249V224.245V224.241V224.237V224.233V224.23V224.226V224.222V224.218V224.214V224.211V224.208V224.204V224.2V224.196V224.192V224.188V224.185V224.181V224.177V224.173V224.169V224.166V224.163V224.159V224.155V224.151V224.147V224.144V224.14V224.136V224.132V224.128V224.124V224.121V224.117V224.113V224.109V224.105V224.101V224.098V224.094V224.09V224.086V224.082V224.079V224.075V224.071V224.067V224.063V224.059V224.057V224.053V224.049V224.045V224.041V224.037V224.034V224.03V224.026V224.022V224.018V224.014V224.01V224.006V224.002V223.998V223.994V223.991V223.987V223.983V223.979V223.975V223.971V223.968V223.964V223.96V223.956V223.952V223.948V223.945V223.941V223.937V223.933V223.929V223.926V223.922V223.918V223.914V223.91V223.905V223.902V223.898V223.894V223.89V223.886V223.883V223.879V223.875V223.871V223.867V223.863V223.859V223.855V223.851V223.847V223.843V223.839V223.836V223.832V223.828V223.824V223.819V223.816V223.812V223.808V223.804V223.8V223.796V223.793V223.788V223.784V223.78V223.776V223.773V223.769V223.765V223.761V223.756V223.752V223.749V223.745V223.741V223.737V223.732V223.729V223.725V223.721V223.717V223.713V223.709V223.705V223.701V223.697V223.693V223.688V223.685V223.681V223.677V223.673V223.669V223.665V223.661V223.657V223.653V223.648V223.644V223.641V223.637V223.633V223.628V223.624V223.621V223.617V223.612V223.608V223.604V223.6V223.596V223.592V223.588V223.584V223.579V223.576V223.572V223.568V223.563V223.559V223.556V223.552V223.547V223.543V223.539V223.535V223.531V223.527V223.523V223.518V223.514V223.511V223.506V223.502V223.498V223.494V223.49V223.486V223.482V223.477V223.473V223.469V223.465V223.461V223.457V223.452V223.448V223.445V223.44V223.436V223.432V223.427V223.424V223.419V223.415V223.411V223.406V223.403V223.399V223.394V223.39V223.386V223.382V223.378V223.373V223.369V223.365V223.36V223.357V223.352V223.348V223.344V223.339V223.336V223.328L326.225 223.32C326.165 222.837 326.012 222.15 325.693 221.704C325.532 221.479 325.319 221.302 325.044 221.258C324.769 221.213 324.459 221.306 324.113 221.557V221.556L324.109 221.56C323.775 221.828 323.706 222.255 323.65 222.613L323.645 222.641C323.614 222.831 323.585 223.003 323.531 223.148C323.477 223.292 323.401 223.401 323.281 223.472L323.278 223.474C322.964 223.674 322.75 223.692 322.6 223.636C322.447 223.578 322.322 223.426 322.222 223.197C322.122 222.97 322.057 222.689 322.008 222.407C321.976 222.218 321.953 222.034 321.931 221.87C321.92 221.788 321.911 221.71 321.9 221.639C321.727 220.02 321.976 218.455 322.225 216.887L322.246 216.764C322.5 215.16 322.744 213.552 322.501 211.909C322.196 209.592 320.614 207.047 318.626 204.908C316.635 202.768 314.218 201.013 312.211 200.284C308.232 198.837 302.938 198.953 298.954 200.39C294.853 199.074 289.558 199.077 285.696 200.766C283.679 201.561 281.949 203.418 280.667 205.636C279.383 207.856 278.536 210.455 278.294 212.753C278.112 214.396 278.417 216.005 278.731 217.609C278.739 217.648 278.747 217.687 278.754 217.725C279.062 219.295 279.37 220.861 279.255 222.482C279.24 222.588 279.227 222.71 279.213 222.841L279.212 222.845C279.198 222.98 279.183 223.124 279.164 223.271C279.124 223.565 279.07 223.861 278.977 224.103C278.883 224.347 278.761 224.513 278.601 224.58C278.446 224.645 278.219 224.634 277.874 224.433C277.755 224.362 277.678 224.252 277.625 224.109C277.57 223.963 277.542 223.792 277.511 223.601C277.51 223.593 277.508 223.583 277.506 223.574C277.45 223.216 277.381 222.789 277.047 222.521L277.038 222.515C276.679 222.275 276.411 222.135 276.131 222.135H275.992L276.012 222.271C276.073 222.695 276.163 223.148 276.253 223.598V223.6C276.344 224.05 276.433 224.497 276.492 224.913C276.857 227.465 278.072 229.497 279.519 231.409C280.025 232.078 280.562 232.736 281.099 233.396C281.33 233.678 281.56 233.96 281.789 234.244C282.554 235.194 283.301 236.166 283.958 237.211L283.966 237.222L283.975 237.232L284.095 237.351Z" stroke="#170856" stroke-width="0.227584"/>
<path d="M154.666 243.152C155.147 243.872 155.507 244.593 155.627 245.314C159.111 243.992 157.068 243.392 159.952 245.794C161.754 247.355 167.88 247.115 170.043 246.394C171.485 245.914 171.965 244.353 173.527 244.113C175.089 243.872 176.65 245.193 178.333 245.073C177.972 245.073 181.576 244.353 180.975 244.593C181.576 244.353 182.176 243.872 182.777 243.392C182.777 243.272 182.777 243.152 182.897 243.152H154.666Z" fill="#170856"/>
<path d="M287.663 243.152C288.143 243.872 288.504 244.593 288.624 245.314C292.107 243.992 290.066 243.392 292.949 245.794C294.751 247.355 300.877 247.115 303.04 246.394C304.481 245.914 304.962 244.353 306.524 244.113C308.086 243.872 309.647 245.193 311.329 245.073C310.968 245.073 314.573 244.353 313.972 244.593C314.573 244.353 315.173 243.872 315.774 243.392C315.774 243.272 315.774 243.152 315.894 243.152H287.663Z" fill="#170856"/>
<path d="M180.254 264.529L184.579 264.409C184.579 264.409 184.699 264.409 185.06 264.529C185.179 264.529 185.42 264.649 185.78 264.77L183.017 257.083C183.137 258.524 183.258 259.846 183.258 261.166L180.254 264.529Z" fill="#F79F03"/>
<path d="M313.252 264.529L317.577 264.409C317.577 264.409 317.697 264.409 318.058 264.529C318.177 264.529 318.417 264.649 318.778 264.77L316.015 257.083C316.135 258.524 316.255 259.846 316.255 261.166L313.252 264.529Z" fill="#DE051F"/>
<path d="M152.385 265.01L157.31 264.889L154.066 262.007L154.187 257.563L153.706 257.443L151.184 265.25C151.424 265.13 151.664 265.13 151.904 265.01C152.264 265.01 152.385 265.01 152.385 265.01Z" fill="#F79F03"/>
<path d="M285.38 265.01L290.305 264.889L287.062 262.007L287.183 257.563L286.702 257.443L284.179 265.25C284.419 265.13 284.66 265.13 284.9 265.01C285.26 265.01 285.38 265.01 285.38 265.01Z" fill="#DE051F"/>
<path d="M157.309 264.889L180.134 264.529L183.137 261.166C183.137 259.846 183.017 258.524 182.897 257.083L172.926 259.125C169.683 259.846 166.319 259.846 162.955 259.245L154.186 257.684L154.065 262.127L157.309 264.889Z" fill="#FCBE42"/>
<path d="M290.306 264.889L313.131 264.529L316.135 261.166C316.135 259.846 316.014 258.524 315.894 257.083L305.923 259.125C302.679 259.846 299.316 259.846 295.952 259.245L287.182 257.684L287.062 262.127L290.306 264.889Z" fill="#DE051F"/>
<path d="M117.427 298.037C116.345 291.791 121.151 286.027 127.517 286.027H156.829L150.703 266.932L151.183 265.37C149.742 265.85 147.099 266.691 143.976 267.652C133.764 270.895 117.786 276.059 117.427 276.419C116.945 276.78 111.66 287.949 108.536 294.794C108.056 295.875 107.335 299.478 106.494 304.402H118.507L117.427 298.037Z" fill="#F79F03"/>
<path d="M250.422 298.037C249.341 291.791 254.146 286.027 260.513 286.027H289.825L283.699 266.932L284.179 265.37C282.738 265.85 280.094 266.691 276.972 267.652C266.76 270.895 250.782 276.059 250.422 276.419C249.942 276.78 244.656 287.949 241.532 294.794C241.052 295.875 240.331 299.478 239.49 304.402H251.503L250.422 298.037Z" fill="#EE384E"/>
<path d="M180.735 286.027H211.849C218.217 286.027 223.022 291.791 221.941 298.037L220.859 304.282H232.152C231.071 298.277 230.109 293.713 229.509 292.633C226.145 285.907 220.499 274.858 220.019 274.618C219.538 274.378 203.44 269.813 193.109 266.811C189.865 265.85 187.222 265.13 185.781 264.77L186.382 266.331L180.735 286.027Z" fill="#F79F03"/>
<path d="M313.732 286.027H344.846C351.213 286.027 356.019 291.791 354.937 298.037L353.856 304.282H365.148C364.068 298.277 363.106 293.713 362.506 292.633C359.142 285.907 353.496 274.858 353.015 274.618C352.535 274.378 336.437 269.813 326.106 266.811C322.862 265.85 320.22 265.13 318.777 264.77L319.378 266.331L313.732 286.027Z" fill="#EE384E"/>
<path d="M156.835 286.064L156.862 286.146H156.949H180.736H180.826L180.851 286.059L186.497 266.243L186.508 266.205L186.494 266.168L185.893 264.606L185.876 264.563L185.835 264.542C185.703 264.476 185.572 264.443 185.454 264.414L185.45 264.413C185.328 264.382 185.221 264.355 185.114 264.301L185.106 264.298L185.099 264.295C184.914 264.234 184.79 264.203 184.708 264.186C184.668 264.178 184.639 264.174 184.618 264.171C184.607 264.17 184.598 264.169 184.593 264.169H184.585H184.582H184.58C184.58 264.169 184.579 264.169 184.579 264.289V264.169H184.576L180.252 264.289L180.2 264.291L180.166 264.329L174.88 270.214L174.878 270.216L170.032 275.888L157.389 264.799L157.354 264.769L157.307 264.77L152.382 264.889H152.379L152.371 264.89C152.366 264.89 152.357 264.891 152.346 264.892C152.326 264.894 152.296 264.899 152.256 264.906C152.177 264.923 152.057 264.952 151.883 265.011C151.841 265.014 151.798 265.023 151.757 265.035C151.708 265.05 151.652 265.07 151.591 265.092C151.562 265.103 151.532 265.115 151.499 265.127C151.397 265.166 151.28 265.211 151.145 265.256L151.086 265.275L151.068 265.335L150.588 266.896L150.576 266.932L150.589 266.969L156.835 286.064Z" fill="#F79F03" stroke="#F79F03" stroke-width="0.227584"/>
<path d="M289.832 286.064L289.859 286.146H289.946H313.733H313.823L313.847 286.059L319.494 266.243L319.505 266.205L319.491 266.168L318.889 264.606L318.873 264.563L318.831 264.542C318.699 264.476 318.568 264.443 318.451 264.414L318.447 264.413C318.325 264.382 318.217 264.355 318.111 264.301L318.103 264.298L318.095 264.295C317.911 264.234 317.786 264.203 317.705 264.186C317.664 264.178 317.635 264.174 317.614 264.171C317.604 264.17 317.595 264.169 317.59 264.169H317.581H317.578H317.577C317.577 264.169 317.576 264.169 317.576 264.289L317.577 264.169H317.573L313.249 264.289L313.197 264.291L313.163 264.329L307.877 270.214L307.875 270.216L303.028 275.888L290.386 264.799L290.35 264.769L290.303 264.77L285.379 264.889H285.378H285.376L285.368 264.89C285.362 264.89 285.354 264.891 285.344 264.892C285.322 264.894 285.293 264.899 285.253 264.906C285.174 264.923 285.054 264.952 284.879 265.011C284.838 265.014 284.796 265.023 284.754 265.035C284.705 265.05 284.648 265.07 284.588 265.092C284.558 265.103 284.528 265.115 284.496 265.127C284.394 265.166 284.277 265.211 284.141 265.256L284.083 265.275L284.065 265.335L283.585 266.896L283.573 266.932L283.585 266.969L289.832 286.064Z" fill="#EE384E"/>
<path d="M317.577 264.169H317.578H317.581H317.59C317.595 264.169 317.604 264.17 317.614 264.171C317.635 264.174 317.664 264.178 317.705 264.186C317.786 264.203 317.911 264.234 318.095 264.295L318.103 264.298L318.111 264.301C318.217 264.355 318.325 264.382 318.447 264.413L318.451 264.414C318.568 264.443 318.699 264.476 318.831 264.542L318.873 264.563L318.889 264.606L319.491 266.168L319.505 266.205L319.494 266.243L313.847 286.059L313.823 286.146H313.733H289.946H289.859L289.832 286.064L283.585 266.969L283.573 266.932L283.585 266.896L284.065 265.335L284.083 265.275L284.141 265.256C284.277 265.211 284.394 265.166 284.496 265.127C284.528 265.115 284.558 265.103 284.588 265.092C284.648 265.07 284.705 265.05 284.754 265.035C284.796 265.023 284.838 265.014 284.879 265.011C285.054 264.952 285.174 264.923 285.253 264.906C285.293 264.899 285.322 264.894 285.344 264.892C285.354 264.891 285.362 264.89 285.368 264.89L285.376 264.889H285.378H285.379L290.303 264.77L290.35 264.769L290.386 264.799L303.028 275.888L307.875 270.216L307.877 270.214L313.163 264.329L313.197 264.291L313.249 264.289L317.573 264.169H317.577ZM317.577 264.169C317.577 264.169 317.576 264.169 317.576 264.289L317.577 264.169Z" stroke="#EE384E" stroke-width="0.227584"/>
<path d="M170.044 276.179L174.85 270.414L180.255 264.529L157.311 264.889L170.044 276.179Z" fill="#F79F03"/>
<path d="M303.04 276.179L307.846 270.414L313.251 264.529L290.306 264.889L303.04 276.179Z" fill="#EE384E"/>
<path d="M286.452 242.431C286.572 242.671 286.692 242.911 286.692 243.152H286.932C286.692 242.911 286.572 242.671 286.452 242.431Z" fill="#F9CFB3"/>
<path d="M285.37 240.509C285.611 240.87 285.851 241.23 285.971 241.591C286.091 241.831 286.212 242.191 286.452 242.431C286.091 241.591 285.731 240.87 285.37 240.509Z" fill="#594A42"/>
<path d="M211.73 286.027H180.736L180.496 286.748L157.19 287.107L156.829 286.027H127.638C121.27 286.027 116.465 291.791 117.546 298.037L118.628 304.282H220.86L221.941 298.037C222.902 291.791 218.097 286.027 211.73 286.027Z" fill="#0D0DD3"/>
<path d="M344.726 286.027H313.733L313.492 286.748L290.187 287.107L289.826 286.027H260.634C254.267 286.027 249.462 291.791 250.543 298.037L251.625 304.282H353.857L354.938 298.037C355.899 291.791 351.094 286.027 344.726 286.027Z" fill="#0D0DD3"/>
<path d="M182.737 288.203L183.027 285.8H154.196L154.632 289.404L182.737 288.203Z" fill="#0D0DD3"/>
<path d="M315.735 288.203L316.025 285.8H287.194L287.63 289.404L315.735 288.203Z" fill="#0D0DD3"/>
<path d="M388.827 186.979H310.122C309.573 186.979 309.207 186.614 309.207 186.064V123.577C309.207 123.028 309.573 122.662 310.122 122.662H388.735C389.284 122.662 389.65 123.028 389.65 123.577V186.156C389.741 186.614 389.284 186.979 388.827 186.979Z" fill="white" stroke="#C6D7F1" stroke-width="0.866857" stroke-miterlimit="10"/>
<path d="M341.695 175.635H323.484C322.843 175.635 322.294 175.086 322.294 174.446V173.988C322.294 173.348 322.843 172.798 323.484 172.798H341.695C342.336 172.798 342.885 173.348 342.885 173.988V174.446C342.885 175.086 342.336 175.635 341.695 175.635Z" fill="#DCE8F4"/>
<path d="M373.451 150.475H322.66C320.647 150.475 318.999 148.829 318.999 146.816V146.358C318.999 144.345 320.647 142.699 322.66 142.699H373.451C375.465 142.699 377.112 144.345 377.112 146.358V146.816C377.02 148.919 375.465 150.475 373.451 150.475Z" stroke="#231F20" stroke-width="0.433429" stroke-miterlimit="10"/>
<path d="M373.451 164.107H322.66C320.647 164.107 318.999 162.46 318.999 160.447V159.99C318.999 157.978 320.647 156.33 322.66 156.33H373.451C375.465 156.33 377.112 157.978 377.112 159.99V160.447C377.02 162.46 375.465 164.107 373.451 164.107Z" stroke="#231F20" stroke-width="0.433429" stroke-miterlimit="10"/>
<path d="M372.627 177.465H351.579C349.382 177.465 347.644 175.726 347.644 173.531V173.073C347.644 170.877 349.382 169.139 351.579 169.139H372.627C374.824 169.139 376.563 170.877 376.563 173.073V173.531C376.563 175.635 374.824 177.465 372.627 177.465Z" fill="#EE384E"/>
<path d="M363.842 136.934H331.263C330.164 136.934 329.25 136.019 329.25 134.922V133.092C329.25 131.994 330.164 131.079 331.263 131.079H363.842C364.941 131.079 365.855 131.994 365.855 133.092V134.922C365.855 136.019 364.941 136.934 363.842 136.934Z" fill="#023EA1"/>
<path d="M328.748 212.301C329.59 205.45 329.563 198.607 327.101 193.142C324.635 187.664 319.731 183.589 310.867 182.263C302.811 181.061 293.415 180.817 285.697 183.951C279.16 186.614 275.18 193.382 273.134 199.759C272.044 202.968 272.167 206.412 272.724 209.739C273.106 212.021 273.695 214.258 274.239 216.326C274.488 217.27 274.727 218.178 274.934 219.04H274.933L274.935 219.045C275.053 219.459 275.142 219.905 275.232 220.371C275.241 220.412 275.248 220.453 275.256 220.494C275.338 220.92 275.423 221.362 275.534 221.803L275.546 221.848L275.584 221.874C275.77 221.998 275.956 222.091 276.135 222.181L276.138 222.182C276.316 222.271 276.49 222.357 276.661 222.471C276.919 222.681 277.003 223.024 277.08 223.403C277.083 223.424 277.087 223.444 277.091 223.464C277.124 223.629 277.158 223.799 277.21 223.95C277.267 224.121 277.353 224.281 277.5 224.392L277.508 224.398C277.854 224.618 278.151 224.675 278.4 224.579C278.645 224.485 278.805 224.256 278.915 223.998C279.103 223.553 279.175 222.937 279.229 222.475C279.237 222.402 279.246 222.334 279.254 222.27L279.254 222.263C279.372 220.608 279.059 219.013 278.752 217.451C278.744 217.408 278.735 217.365 278.727 217.323C278.411 215.713 278.114 214.14 278.292 212.54L278.293 212.539C278.531 210.275 279.366 207.709 280.635 205.516C281.905 203.32 283.598 201.515 285.546 200.748C289.483 199.198 294.621 199.078 298.679 200.391L298.718 200.403L298.756 200.39C302.817 198.957 307.954 198.838 311.889 200.269C313.848 200.981 316.235 202.738 318.21 204.877C320.186 207.017 321.727 209.516 322.023 211.702V211.704C322.26 213.304 322.024 214.907 321.767 216.531C321.759 216.585 321.75 216.64 321.743 216.693C321.495 218.259 321.245 219.842 321.421 221.427L321.422 221.431C321.432 221.501 321.442 221.582 321.454 221.671C321.475 221.838 321.5 222.03 321.531 222.224C321.581 222.521 321.65 222.836 321.761 223.097C321.87 223.355 322.03 223.585 322.278 223.672C322.531 223.76 322.827 223.684 323.17 223.435C323.346 223.327 323.45 223.167 323.516 222.993C323.581 222.82 323.612 222.623 323.642 222.439C323.704 222.052 323.761 221.715 324.017 221.509C324.331 221.281 324.576 221.224 324.766 221.254C324.955 221.286 325.119 221.409 325.257 221.604C325.538 221.996 325.686 222.627 325.746 223.102V223.108V223.112V223.117V223.12V223.124V223.129V223.133V223.138V223.141V223.145V223.15V223.154V223.158V223.163V223.166V223.171V223.175V223.179V223.184V223.187V223.191V223.196V223.2V223.204V223.208V223.212V223.216V223.221V223.225V223.229V223.233V223.237V223.241V223.246V223.25V223.253V223.258V223.262V223.266V223.271V223.274V223.278V223.282V223.287V223.291V223.294V223.299V223.303V223.307V223.311V223.315V223.319V223.323V223.327V223.332V223.336V223.339V223.343V223.348V223.352V223.356V223.359V223.364V223.368V223.372V223.376V223.381V223.384V223.388V223.392V223.397V223.401V223.404V223.408V223.412V223.417V223.421V223.424V223.428V223.432V223.437V223.441V223.445V223.448V223.452V223.457V223.461V223.465V223.468V223.472V223.477V223.481V223.485V223.489V223.492V223.496V223.501V223.505V223.509V223.512V223.516V223.52V223.524V223.529V223.533V223.536V223.54V223.544V223.548V223.552V223.556V223.56V223.564V223.568V223.572V223.576V223.579V223.583V223.587V223.592V223.596V223.599V223.603V223.607V223.611V223.615V223.619V223.622V223.626V223.631V223.635V223.639V223.642V223.646V223.65V223.654V223.658V223.662V223.665V223.669V223.673V223.677V223.681V223.686V223.689V223.693V223.697V223.701V223.705V223.708V223.712V223.716V223.72V223.724V223.728V223.731V223.735V223.739V223.743V223.747V223.751V223.754V223.758V223.762V223.766V223.77V223.773V223.777V223.781V223.785V223.789V223.793V223.796V223.8V223.804V223.808V223.812V223.816V223.819V223.823V223.827V223.831V223.835V223.839V223.842V223.846V223.85V223.854V223.858V223.861V223.865V223.869V223.873V223.877V223.881V223.884V223.888V223.892V223.896V223.9V223.904V223.906V223.91V223.914V223.918V223.922V223.925V223.929V223.933V223.937V223.941V223.945V223.948V223.952V223.956V223.96V223.963V223.967V223.97V223.974V223.978V223.982V223.986V223.99V223.993V223.997V224.001V224.005V224.008V224.012V224.015V224.019V224.023V224.027V224.031V224.034V224.038V224.041V224.045V224.049V224.053V224.056V224.06V224.064V224.068V224.072V224.075V224.078V224.082V224.086V224.09V224.094V224.098V224.1V224.104V224.108V224.112V224.116V224.12V224.123V224.127V224.13V224.134V224.138V224.142V224.145V224.149V224.152V224.156V224.16V224.164V224.167V224.171V224.175V224.178V224.182V224.186V224.189V224.193V224.196V224.2V224.204V224.208V224.211V224.215V224.218V224.222V224.226V224.23V224.233V224.237V224.24V224.244V224.248V224.252V224.255V224.258V224.262V224.266V224.27V224.274V224.276V224.28V224.284V224.288V224.292V224.295V224.298V224.302V224.306V224.31V224.313V224.317V224.32V224.324V224.328V224.331V224.335V224.339V224.342V224.345V224.349V224.353V224.357V224.361V224.363V224.367V224.371V224.375V224.378V224.382V224.385V224.389V224.393V224.396V224.4V224.404V224.407V224.41V224.414V224.418V224.422V224.425V224.428V224.432V224.436V224.439V224.443V224.447V224.45V224.453V224.457V224.461V224.465V224.468V224.471V224.475V224.479V224.482V224.486V224.49V224.493V224.496V224.5V224.504V224.508V224.511V224.514V224.518V224.522V224.525V224.529V224.533V224.535V224.539V224.543V224.547V224.55V224.554V224.557V224.561V224.564V224.568V224.572V224.575V224.579V224.582V224.586V224.589V224.593V224.597V224.601V224.603V224.607V224.611V224.614V224.618V224.622V224.625V224.628V224.632V224.636V224.639V224.643V224.646V224.65V224.653V224.657V224.661V224.664V224.667V224.671V224.674V224.678V224.682V224.686V224.688V224.692V224.696V224.699V224.703V224.707V224.71V224.713V224.717V224.721V224.724V224.728V224.732V224.734V224.738V224.742V224.745V224.749V224.753V224.756V224.759V224.763V224.767V224.77V224.774V224.777V224.78V224.784V224.788V224.792V224.795V224.798V224.802V224.805V224.809V224.813V224.816V224.819V224.823V224.826V224.83V224.834V224.837V224.84V224.844V224.848V224.851V224.855V224.859V224.862V224.865V224.869V224.872V224.876V224.88V224.883V224.886V224.89V224.893V224.897V224.901V224.904V224.907V224.911V224.915V224.918V224.922V224.926V224.928V224.932V224.936V224.939V224.943V224.947V224.949V224.953V224.957V224.96V224.964V224.968V224.971V224.974V224.978V224.981V224.985V224.989V224.993V224.995V224.999V225.003V225.006V225.01V225.014V225.016V225.48L325.971 225.075L325.974 225.07C326.572 223.992 327.178 222.902 327.542 221.69C328.027 220.236 328.238 218.633 328.373 217.025C328.424 216.422 328.464 215.82 328.503 215.223C328.57 214.223 328.635 213.24 328.748 212.301ZM328.748 212.301L328.629 212.286L328.748 212.3C328.748 212.301 328.748 212.301 328.748 212.301Z" fill="#170856"/>
<path d="M328.748 212.301C329.59 205.45 329.563 198.607 327.101 193.142C324.635 187.664 319.731 183.589 310.867 182.263C302.811 181.061 293.415 180.817 285.697 183.951C279.16 186.614 275.18 193.382 273.134 199.759C272.044 202.968 272.167 206.412 272.724 209.739C273.106 212.021 273.695 214.258 274.239 216.326C274.488 217.27 274.727 218.178 274.934 219.04H274.933L274.935 219.045C275.053 219.459 275.142 219.905 275.232 220.371C275.241 220.412 275.248 220.453 275.256 220.494C275.338 220.92 275.423 221.362 275.534 221.803L275.546 221.848L275.584 221.874C275.77 221.998 275.956 222.091 276.135 222.181L276.138 222.182C276.316 222.271 276.49 222.357 276.661 222.471C276.919 222.681 277.003 223.024 277.08 223.403C277.083 223.424 277.087 223.444 277.091 223.464C277.124 223.629 277.158 223.799 277.21 223.95C277.267 224.121 277.353 224.281 277.5 224.392L277.508 224.398C277.854 224.618 278.151 224.675 278.4 224.579C278.645 224.485 278.805 224.256 278.915 223.998C279.103 223.553 279.175 222.937 279.229 222.475C279.237 222.402 279.246 222.334 279.254 222.27L279.254 222.263C279.372 220.608 279.059 219.013 278.752 217.451C278.744 217.408 278.735 217.365 278.727 217.323C278.411 215.713 278.114 214.14 278.292 212.54L278.293 212.539C278.531 210.275 279.366 207.709 280.635 205.516C281.905 203.32 283.598 201.515 285.546 200.748C289.483 199.198 294.621 199.078 298.679 200.391L298.718 200.403L298.756 200.39C302.817 198.957 307.954 198.838 311.889 200.269C313.848 200.981 316.235 202.738 318.21 204.877C320.186 207.017 321.727 209.516 322.023 211.702V211.704C322.26 213.304 322.024 214.907 321.767 216.531C321.759 216.585 321.75 216.64 321.743 216.693C321.495 218.259 321.245 219.842 321.421 221.427L321.422 221.431C321.432 221.501 321.442 221.582 321.454 221.671C321.475 221.838 321.5 222.03 321.531 222.224C321.581 222.521 321.65 222.836 321.761 223.097C321.87 223.355 322.03 223.585 322.278 223.672C322.531 223.76 322.827 223.684 323.17 223.435C323.346 223.327 323.45 223.167 323.516 222.993C323.581 222.82 323.612 222.623 323.642 222.439C323.704 222.052 323.761 221.715 324.017 221.509C324.331 221.281 324.576 221.224 324.766 221.254C324.955 221.286 325.119 221.409 325.257 221.604C325.538 221.996 325.686 222.627 325.746 223.102V223.108V223.112V223.117V223.12V223.124V223.129V223.133V223.138V223.141V223.145V223.15V223.154V223.158V223.163V223.166V223.171V223.175V223.179V223.184V223.187V223.191V223.196V223.2V223.204V223.208V223.212V223.216V223.221V223.225V223.229V223.233V223.237V223.241V223.246V223.25V223.253V223.258V223.262V223.266V223.271V223.274V223.278V223.282V223.287V223.291V223.294V223.299V223.303V223.307V223.311V223.315V223.319V223.323V223.327V223.332V223.336V223.339V223.343V223.348V223.352V223.356V223.359V223.364V223.368V223.372V223.376V223.381V223.384V223.388V223.392V223.397V223.401V223.404V223.408V223.412V223.417V223.421V223.424V223.428V223.432V223.437V223.441V223.445V223.448V223.452V223.457V223.461V223.465V223.468V223.472V223.477V223.481V223.485V223.489V223.492V223.496V223.501V223.505V223.509V223.512V223.516V223.52V223.524V223.529V223.533V223.536V223.54V223.544V223.548V223.552V223.556V223.56V223.564V223.568V223.572V223.576V223.579V223.583V223.587V223.592V223.596V223.599V223.603V223.607V223.611V223.615V223.619V223.622V223.626V223.631V223.635V223.639V223.642V223.646V223.65V223.654V223.658V223.662V223.665V223.669V223.673V223.677V223.681V223.686V223.689V223.693V223.697V223.701V223.705V223.708V223.712V223.716V223.72V223.724V223.728V223.731V223.735V223.739V223.743V223.747V223.751V223.754V223.758V223.762V223.766V223.77V223.773V223.777V223.781V223.785V223.789V223.793V223.796V223.8V223.804V223.808V223.812V223.816V223.819V223.823V223.827V223.831V223.835V223.839V223.842V223.846V223.85V223.854V223.858V223.861V223.865V223.869V223.873V223.877V223.881V223.884V223.888V223.892V223.896V223.9V223.904V223.906V223.91V223.914V223.918V223.922V223.925V223.929V223.933V223.937V223.941V223.945V223.948V223.952V223.956V223.96V223.963V223.967V223.97V223.974V223.978V223.982V223.986V223.99V223.993V223.997V224.001V224.005V224.008V224.012V224.015V224.019V224.023V224.027V224.031V224.034V224.038V224.041V224.045V224.049V224.053V224.056V224.06V224.064V224.068V224.072V224.075V224.078V224.082V224.086V224.09V224.094V224.098V224.1V224.104V224.108V224.112V224.116V224.12V224.123V224.127V224.13V224.134V224.138V224.142V224.145V224.149V224.152V224.156V224.16V224.164V224.167V224.171V224.175V224.178V224.182V224.186V224.189V224.193V224.196V224.2V224.204V224.208V224.211V224.215V224.218V224.222V224.226V224.23V224.233V224.237V224.24V224.244V224.248V224.252V224.255V224.258V224.262V224.266V224.27V224.274V224.276V224.28V224.284V224.288V224.292V224.295V224.298V224.302V224.306V224.31V224.313V224.317V224.32V224.324V224.328V224.331V224.335V224.339V224.342V224.345V224.349V224.353V224.357V224.361V224.363V224.367V224.371V224.375V224.378V224.382V224.385V224.389V224.393V224.396V224.4V224.404V224.407V224.41V224.414V224.418V224.422V224.425V224.428V224.432V224.436V224.439V224.443V224.447V224.45V224.453V224.457V224.461V224.465V224.468V224.471V224.475V224.479V224.482V224.486V224.49V224.493V224.496V224.5V224.504V224.508V224.511V224.514V224.518V224.522V224.525V224.529V224.533V224.535V224.539V224.543V224.547V224.55V224.554V224.557V224.561V224.564V224.568V224.572V224.575V224.579V224.582V224.586V224.589V224.593V224.597V224.601V224.603V224.607V224.611V224.614V224.618V224.622V224.625V224.628V224.632V224.636V224.639V224.643V224.646V224.65V224.653V224.657V224.661V224.664V224.667V224.671V224.674V224.678V224.682V224.686V224.688V224.692V224.696V224.699V224.703V224.707V224.71V224.713V224.717V224.721V224.724V224.728V224.732V224.734V224.738V224.742V224.745V224.749V224.753V224.756V224.759V224.763V224.767V224.77V224.774V224.777V224.78V224.784V224.788V224.792V224.795V224.798V224.802V224.805V224.809V224.813V224.816V224.819V224.823V224.826V224.83V224.834V224.837V224.84V224.844V224.848V224.851V224.855V224.859V224.862V224.865V224.869V224.872V224.876V224.88V224.883V224.886V224.89V224.893V224.897V224.901V224.904V224.907V224.911V224.915V224.918V224.922V224.926V224.928V224.932V224.936V224.939V224.943V224.947V224.949V224.953V224.957V224.96V224.964V224.968V224.971V224.974V224.978V224.981V224.985V224.989V224.993V224.995V224.999V225.003V225.006V225.01V225.014V225.016V225.48L325.971 225.075L325.974 225.07C326.572 223.992 327.178 222.902 327.542 221.69C328.027 220.236 328.238 218.633 328.373 217.025C328.424 216.422 328.464 215.82 328.503 215.223C328.57 214.223 328.635 213.24 328.748 212.301ZM328.748 212.301L328.629 212.286L328.748 212.3C328.748 212.301 328.748 212.301 328.748 212.301Z" stroke="#170856" stroke-width="0.227584"/>
<path d="M60.1685 121.351C64.2257 121.351 67.5147 118.063 67.5147 114.007C67.5147 109.951 64.2257 106.663 60.1685 106.663C56.1113 106.663 52.8223 109.951 52.8223 114.007C52.8223 118.063 56.1113 121.351 60.1685 121.351Z" stroke="#DE051F" stroke-width="1.01062" stroke-miterlimit="10"/>
<path d="M55.0822 108.519C55.0822 108.519 42.1657 105.129 46.6058 109.649C51.0458 114.168 66.2226 120.705 69.2096 121.432C72.1965 122.158 74.134 120.867 73.1653 119.253C72.1964 117.638 67.5143 114.975 67.5143 114.975" stroke="#DE051F" stroke-width="1.01062" stroke-miterlimit="10"/>
<path d="M380.755 97.1295L373.325 93.6893C373.212 93.6369 373.072 93.6411 372.993 93.8112L371.575 96.8733C371.549 96.9297 371.579 97.0129 371.553 97.0693L372.01 98.3142C372.04 98.3964 372.04 98.3964 372.153 98.449L377.882 101.101C377.938 101.128 378.022 101.097 378.078 101.123L379.323 100.667C379.407 100.637 379.407 100.637 379.459 100.523L380.877 97.4613C380.956 97.2911 380.869 97.1821 380.755 97.1295ZM379.088 100.283L378.009 100.679L372.507 98.1315L372.111 97.053L373.399 94.2743L380.432 97.5301L379.088 100.283Z" fill="#003EB0"/>
<path d="M380.813 98.19L372.183 94.8139C372.069 94.7614 371.904 94.8223 371.851 94.9357C371.798 95.0491 371.802 95.1888 371.973 95.2676L380.577 98.7005C380.691 98.7531 380.856 98.6919 380.909 98.5781C380.962 98.4653 380.927 98.2425 380.813 98.19Z" fill="#003EB0"/>
<path d="M380.157 99.6078L371.553 96.1744C371.44 96.1218 371.274 96.183 371.221 96.2968C371.168 96.4096 371.173 96.5492 371.342 96.6286L379.947 100.061C380.061 100.114 380.227 100.052 380.279 99.9396C380.331 99.8258 380.271 99.6604 380.157 99.6078Z" fill="#003EB0"/>
<path d="M383.946 80.4269C379.862 78.5362 374.909 80.3062 372.991 84.4454C371.783 87.0537 372.011 89.9825 373.566 92.4241L372.936 93.785C372.883 93.8984 372.887 94.038 373.057 94.1168L380.545 97.5828C380.658 97.6354 380.797 97.6316 380.877 97.4614L381.507 96.0999C384.349 95.7634 386.756 93.986 387.965 91.3778C389.939 87.2647 388.086 82.3438 383.946 80.4269ZM381.324 95.6026C381.241 95.6333 381.158 95.6639 381.105 95.7767L380.502 97.0809L373.411 93.7986L374.016 92.4945C374.042 92.4378 374.038 92.2981 374.007 92.2152C372.456 89.9132 372.233 87.1241 373.388 84.6292C375.2 80.7167 379.822 79.0687 383.679 80.8542C387.535 82.6398 389.241 87.2857 387.455 91.1414C386.469 93.7152 384.057 95.353 381.324 95.6026Z" fill="#003EB0"/>
<path d="M377.245 100.394C377.158 100.285 377.018 100.289 376.935 100.319C376.909 100.376 376.196 100.873 374.836 100.242C373.474 99.6117 373.418 98.6909 373.418 98.6909C373.414 98.5513 373.327 98.4424 373.161 98.5026C373.021 98.5074 372.912 98.5944 372.973 98.7607C372.947 98.8171 373.067 100.044 374.656 100.779C376.301 101.54 377.257 100.813 377.284 100.756C377.336 100.642 377.332 100.503 377.245 100.394Z" fill="#003EB0"/>
<path d="M371.169 83.3257L366.688 81.2513C366.574 81.1988 366.435 81.203 366.355 81.3731C366.304 81.4865 366.307 81.6261 366.478 81.7049L370.902 83.7531C371.015 83.8057 371.154 83.8015 371.234 83.6314C371.286 83.5179 371.282 83.3783 371.169 83.3257Z" fill="#DE051F"/>
<path d="M394.536 94.1446L390.111 92.0964C389.999 92.0439 389.859 92.048 389.78 92.2182C389.727 92.3316 389.732 92.4712 389.902 92.55L394.326 94.5983C394.439 94.6508 394.579 94.6466 394.658 94.4765C394.653 94.3368 394.649 94.1971 394.536 94.1446Z" fill="#DE051F"/>
<path d="M370.354 88.802C370.351 88.6623 370.18 88.5836 370.097 88.6141L365.272 89.0661C365.133 89.0702 365.054 89.2403 365.085 89.3233C365.115 89.4063 365.145 89.4893 365.259 89.5418C365.315 89.568 365.315 89.568 365.398 89.5376L370.223 89.0855C370.28 89.1118 370.389 89.0246 370.354 88.802Z" fill="#DE051F"/>
<path d="M396.043 86.5787C396.039 86.439 395.869 86.3602 395.786 86.3906L390.962 86.8426C390.821 86.8469 390.743 87.0169 390.773 87.0999C390.804 87.1829 390.834 87.2658 390.947 87.3184C391.005 87.3446 391.005 87.3446 391.087 87.3142L395.912 86.8621C395.938 86.8054 396.017 86.6354 396.043 86.5787Z" fill="#DE051F"/>
<path d="M393.298 78.9726C393.211 78.8634 393.098 78.8108 392.989 78.898L389.017 81.673C388.908 81.7602 388.855 81.8735 388.942 81.9827C388.999 82.009 388.973 82.0657 389.029 82.0919C389.086 82.1182 389.226 82.114 389.308 82.0836L393.28 79.3086C393.333 79.1952 393.329 79.0556 393.298 78.9726Z" fill="#DE051F"/>
<path d="M387.045 73.7361C386.932 73.6836 386.792 73.6878 386.713 73.8579L384.664 78.2806C384.612 78.394 384.616 78.5336 384.787 78.6124C384.956 78.6912 385.039 78.6608 385.119 78.4907L387.167 74.0679C387.193 74.0112 387.215 73.8148 387.045 73.7361Z" fill="#DE051F"/>
<path d="M379.86 77.5019L379.407 72.6787C379.403 72.539 379.233 72.4603 379.15 72.4907C379.01 72.4949 378.931 72.665 378.962 72.748L379.414 77.5711C379.445 77.6541 379.475 77.737 379.588 77.7896C379.645 77.8158 379.645 77.8158 379.728 77.7854C379.728 77.7854 379.807 77.6153 379.86 77.5019Z" fill="#DE051F"/>
<path d="M389.548 100.305L386.772 96.3342C386.685 96.2252 386.572 96.1726 386.462 96.2596C386.353 96.3466 386.3 96.4604 386.387 96.5694L389.164 100.54C389.22 100.566 389.194 100.623 389.251 100.649C389.307 100.676 389.447 100.671 389.53 100.641C389.583 100.528 389.635 100.414 389.548 100.305Z" fill="#DE051F"/>
<path d="M374.709 79.2497L371.934 75.2789C371.847 75.1696 371.733 75.1172 371.624 75.2043C371.515 75.2915 371.462 75.4049 371.549 75.514L374.325 79.4848C374.382 79.5111 374.356 79.5678 374.413 79.5941C374.469 79.6203 374.609 79.6161 374.692 79.5856C374.774 79.5552 374.797 79.3589 374.709 79.2497Z" fill="#DE051F"/>
<path d="M377.636 95.6849L380.919 88.5973C380.919 88.5973 382.412 85.2256 384.227 86.0659C386.041 86.9062 383.646 89.9974 380.072 88.3431" stroke="#003EB0" stroke-width="0.787115" stroke-miterlimit="10"/>
<path d="M376.047 94.9498L379.33 87.8621C379.33 87.8621 380.937 84.5429 379.122 83.7026C377.306 82.8623 376.498 86.6887 380.071 88.3431" stroke="#003EB0" stroke-width="0.787115" stroke-miterlimit="10"/>
<path d="M49.9453 211.284L57.5756 209.059L59.6421 216.687L52.1708 218.912L49.9453 211.284Z" fill="#FCBE42"/>
<path d="M277.2 39.5569L284.83 37.332L286.897 44.9602L279.426 47.1851L277.2 39.5569Z" fill="#0064E1"/>
<path d="M427.635 205.951L435.266 203.726L437.332 211.354L429.86 213.579L427.635 205.951Z" fill="#0064E1"/>
<path d="M334.813 97.1545L342.443 94.9298L344.51 102.558L337.039 104.783L334.813 97.1545Z" fill="#EE384E"/>
<path d="M376.851 233.591C373.543 232.311 371.089 229.111 371.089 225.272" stroke="#003EB0" stroke-width="1.01062" stroke-miterlimit="10"/>
<path d="M388.694 223.672C388.8 224.205 388.8 224.845 388.8 225.485C388.8 229.751 385.812 233.272 381.865 234.124" stroke="#003EB0" stroke-width="1.01062" stroke-miterlimit="10"/>
<path d="M372.262 220.791C373.863 218.232 376.636 216.525 379.837 216.525C382.398 216.525 384.638 217.592 386.345 219.299" stroke="#003EB0" stroke-width="1.01062" stroke-miterlimit="10"/>
<path d="M374.61 226.658C374.076 224.525 374.823 222.072 376.851 220.685" stroke="#003EB0" stroke-width="1.01062" stroke-miterlimit="10"/>
<path d="M383.999 229.112C383.785 229.325 383.465 229.538 383.146 229.858C381.012 231.352 378.024 231.138 376.21 229.325" stroke="#003EB0" stroke-width="1.01062" stroke-miterlimit="10"/>
<path d="M379.519 219.725C381.439 219.618 383.252 220.472 384.426 222.179C385.386 223.458 385.6 225.058 385.28 226.552" stroke="#003EB0" stroke-width="1.01062" stroke-miterlimit="10"/>
<path d="M379.837 228.685C381.723 228.685 383.251 227.157 383.251 225.272C383.251 223.386 381.723 221.858 379.837 221.858C377.952 221.858 376.423 223.386 376.423 225.272C376.423 227.157 377.952 228.685 379.837 228.685Z" stroke="#003EB0" stroke-width="1.01062" stroke-miterlimit="10"/>
<defs>
<linearGradient id="paint0_linear_3375_6173" x1="219.037" y1="242.431" x2="239.4" y2="242.431" gradientUnits="userSpaceOnUse">
<stop stop-color="white"/>
<stop offset="1" stop-color="#CCCCCC"/>
</linearGradient>
<linearGradient id="paint1_linear_3375_6173" x1="220.74" y1="242.251" x2="242.003" y2="242.251" gradientUnits="userSpaceOnUse">
<stop stop-color="white"/>
<stop offset="1" stop-color="#CCCCCC"/>
</linearGradient>
<linearGradient id="paint2_linear_3375_6173" x1="187.896" y1="240.63" x2="273.148" y2="240.63" gradientUnits="userSpaceOnUse">
<stop stop-color="white"/>
<stop offset="1" stop-color="#CCCCCC"/>
</linearGradient>
</defs>
</svg>
