<svg width="445" height="305" viewBox="0 0 445 305" fill="none" xmlns="http://www.w3.org/2000/svg">
<path d="M148.163 207.467C198.611 207.467 239.507 166.672 239.507 116.35C239.507 66.0261 198.611 25.2317 148.163 25.2317C97.7147 25.2317 56.8184 66.0261 56.8184 116.35C56.8184 166.672 97.7147 207.467 148.163 207.467Z" stroke="#1466B1" stroke-width="1.26136" stroke-miterlimit="10" stroke-dasharray="7.57 7.57"/>
<path d="M268.827 207.467C319.275 207.467 360.172 166.672 360.172 116.35C360.172 66.0261 319.275 25.2317 268.827 25.2317C218.379 25.2317 177.483 66.0261 177.483 116.35C177.483 166.672 218.379 207.467 268.827 207.467Z" stroke="#1466B1" stroke-width="1.26136" stroke-miterlimit="10" stroke-dasharray="7.57 7.57"/>
<path d="M54.8515 121.945C63.7304 121.945 70.9282 114.766 70.9282 105.908C70.9282 97.0516 63.7304 89.8716 54.8515 89.8716C45.9726 89.8716 38.7749 97.0516 38.7749 105.908C38.7749 114.766 45.9726 121.945 54.8515 121.945Z" fill="#0064B7"/>
<mask id="mask0_3375_6170" style="mask-type:alpha" maskUnits="userSpaceOnUse" x="38" y="89" width="33" height="33">
<path d="M54.8515 121.945C63.7304 121.945 70.9282 114.766 70.9282 105.908C70.9282 97.0516 63.7304 89.8716 54.8515 89.8716C45.9726 89.8716 38.7749 97.0516 38.7749 105.908C38.7749 114.766 45.9726 121.945 54.8515 121.945Z" fill="#0064B7"/>
</mask>
<g mask="url(#mask0_3375_6170)">
<path d="M53.3019 109.386C53.3019 109.386 53.3019 111.512 52.3335 112.285C51.365 113.058 50.3965 114.796 50.3965 114.796C50.3965 114.796 52.5272 118.082 56.5948 117.695C60.6623 117.308 61.4372 114.41 61.4372 114.41C61.4372 114.41 57.5632 113.83 57.1758 110.16C56.7884 106.488 56.2074 106.488 56.2074 106.488L53.3019 109.386Z" fill="#FFB07E"/>
<path d="M50.7838 113.251C50.7838 113.251 47.8784 112.864 46.5226 113.251C45.1667 113.637 44.5856 113.444 44.973 114.604C45.3604 115.762 47.491 121.173 46.5226 124.457C45.5541 127.742 44.1982 145.131 44.1982 145.131C44.1982 145.131 54.6577 145.518 58.7253 145.71C62.7929 145.904 65.892 145.131 65.892 145.131C65.892 145.131 66.8605 137.596 65.892 134.505C64.9235 131.22 63.7614 125.809 63.7614 125.809C63.7614 125.809 62.9866 118.274 64.1487 116.342C65.1173 114.41 65.892 114.41 64.5361 114.024C63.1803 113.637 61.8244 113.057 60.6623 113.057C59.6937 113.057 59.1127 113.057 58.5316 113.637C57.9505 114.216 56.5946 115.569 54.8514 115.182C53.1082 114.796 51.7523 113.83 51.7523 113.83C51.7523 113.83 51.365 113.444 50.7838 113.251Z" fill="#F7A600"/>
<path d="M45.9415 113.83C45.9415 113.83 44.9731 113.444 43.6172 114.604C42.0677 115.956 40.9055 118.854 40.3244 120.593C39.7433 122.332 39.356 124.264 39.356 124.264C39.356 124.264 41.2929 125.23 43.4236 125.423C45.5542 125.423 46.9101 125.617 46.9101 125.617C46.9101 125.617 47.8785 120.206 47.4911 117.888C47.2974 115.183 46.9101 114.41 45.9415 113.83Z" fill="#070707"/>
<path d="M63.1802 115.956C63.1802 115.956 63.955 113.638 65.8919 114.604C67.8289 115.569 69.1848 119.434 69.5721 120.787C69.9595 122.139 70.5406 124.457 70.5406 124.457C70.5406 124.457 68.41 125.423 66.473 125.617C64.536 125.81 63.3739 126.003 63.3739 126.003C63.3739 126.003 62.5991 121.173 62.7928 119.24C62.7928 117.115 63.1802 115.956 63.1802 115.956Z" fill="#070707"/>
<path d="M61.2429 105.522C61.4366 105.908 60.6618 107.261 60.2744 107.647C60.4682 107.068 60.4682 106.102 60.6618 104.942C60.6618 104.942 61.2429 105.136 61.2429 105.522Z" fill="#FFBF99"/>
<path d="M60.8562 100.112C60.6625 96.2481 55.4327 96.0546 55.4327 96.0546C55.4327 96.0546 50.2029 96.0546 50.0093 100.112C50.0093 101.851 50.0093 103.59 50.203 104.942C50.3967 106.102 50.3967 107.068 50.5903 107.647C50.5903 108.034 50.7841 108.421 50.7841 108.614C50.9778 109 51.1714 109.194 51.3652 109.773C51.9462 110.546 52.721 111.319 53.3021 111.705C53.6895 112.091 54.8517 112.091 55.4327 112.091C56.0138 112.091 56.9823 111.899 57.5634 111.705C58.1444 111.319 58.9192 110.546 59.5003 109.773C59.8877 109.386 59.8877 109 60.0813 108.614C60.0813 108.421 60.2751 108.227 60.2751 107.647C60.4687 107.068 60.4687 106.102 60.6625 104.942C60.8562 103.397 61.0499 101.851 60.8562 100.112Z" fill="#FFBF99"/>
<path d="M50.2022 104.942C50.396 106.102 50.3959 107.068 50.5896 107.647C50.2022 107.261 49.6211 106.102 49.6211 105.522C49.8148 105.136 50.2022 104.942 50.2022 104.942Z" fill="#FFBF99"/>
<path d="M61.8244 100.112C61.6308 98.953 61.2434 97.7936 60.6623 97.0204C60.2749 96.6342 59.1127 95.2822 60.0812 94.8952C59.6938 94.509 59.1127 94.8952 58.9191 95.4749C58.9191 95.6684 58.7253 96.0546 58.7253 96.0546C58.5316 95.0887 58.7253 94.3155 57.7568 93.7358C56.2072 92.77 54.4641 95.0887 52.9145 95.0887C52.1397 95.0887 50.7838 95.4749 50.5902 94.3155L50.2028 94.7026C50.2028 94.8952 50.0091 95.0887 50.2028 95.2822C50.2028 95.6684 50.5902 96.2481 50.9776 96.2481C50.3964 96.2481 50.0091 96.2481 49.8154 95.6684C49.6217 96.0546 50.0091 96.0546 50.0091 96.4416C49.6217 96.4416 49.2343 96.0546 49.0405 95.6684C48.6532 96.0546 48.8469 96.4416 49.0405 96.8278C49.0405 97.0204 50.0091 97.6001 50.0091 97.6001C49.8154 98.5668 49.428 99.7262 49.2343 100.692C49.0406 101.272 49.0405 101.851 49.0405 102.431C49.2343 103.011 49.428 103.783 49.428 104.363C49.8154 105.329 50.0091 105.908 50.2028 106.102C50.2028 105.908 50.3964 105.329 50.5902 105.136C50.9776 103.977 50.5902 102.817 50.7838 101.658C51.1712 100.112 52.5271 99.7262 54.0767 100.112C55.0451 100.306 56.0136 100.112 56.982 99.7262C57.3694 99.5327 57.7568 99.1465 58.1442 98.7595C58.3379 98.5668 58.5316 98.3733 58.5316 98.1798C58.5316 98.5668 58.5317 98.953 58.9191 99.3391C60.2749 100.885 60.2749 102.817 60.6623 104.942C60.6623 105.136 61.0496 106.102 61.0496 106.102C61.6308 105.329 61.6308 104.17 62.0181 103.397C62.0181 102.238 61.8244 100.885 61.8244 100.112Z" fill="#52331D"/>
<path d="M60.6627 108.613C60.4689 107.841 60.4689 106.682 60.4689 105.908C60.4689 106.488 59.8879 107.261 59.5005 107.455C59.1131 107.647 58.532 108.034 58.1446 107.841C57.9509 107.647 57.7572 107.647 57.7572 107.455C57.1761 107.261 56.7887 107.068 56.2077 107.068C56.0139 107.068 55.4329 107.261 55.4329 107.647H55.2391C55.2391 107.261 54.8518 107.261 54.4644 107.068C53.8833 107.068 53.3022 107.261 52.9148 107.647C52.7212 107.841 52.5274 107.841 52.5274 108.034C52.14 108.227 51.559 107.841 51.1716 107.647C50.7842 107.455 50.2031 106.682 50.2031 106.102C50.2031 106.875 50.2031 108.034 50.0095 108.807C49.8157 108.807 49.6221 108.807 49.6221 108.613C49.6221 108.807 49.8157 109 50.0095 109C50.2031 109.966 52.3338 112.864 52.3338 112.864C52.5274 113.251 53.6896 114.024 54.077 114.217C54.4644 114.604 55.0455 114.604 55.4329 114.604C55.8203 114.604 56.4013 114.604 56.7887 114.217C57.1761 114.024 58.3382 113.251 58.532 112.864C58.532 112.671 60.6627 109.966 60.8563 109C61.05 108.807 61.2437 108.807 61.2437 108.613C61.05 108.613 60.8563 108.613 60.6627 108.613ZM58.7256 109.193C58.532 109.193 58.3383 109 57.9509 108.807C57.5635 109 56.9824 109.193 56.595 109C56.2077 108.807 56.0139 109 55.6265 109C56.0139 109.193 56.0139 109.193 55.6265 109H55.4329C55.0455 109.193 55.0455 109.193 55.4329 109C55.0455 109 54.6581 108.807 54.2707 109C53.8833 109.193 53.3022 109 52.9148 108.807C52.7212 109 52.5274 109.193 52.14 109.193C51.9464 109.193 51.7527 109.193 51.7527 109.193C51.9464 109.193 51.9464 109.193 52.14 109.193C52.3338 109.193 52.7212 109 52.9148 108.807C53.1086 108.613 53.3022 108.613 53.4959 108.421C53.8833 108.227 54.2707 108.034 54.8518 108.034C55.0455 108.034 55.2391 108.034 55.4329 108.034H55.6265C55.8203 108.034 56.0139 108.034 56.2077 108.034C56.595 108.034 57.1761 108.227 57.5635 108.421C57.7572 108.613 57.9509 108.613 58.1446 108.807C58.1446 109 58.532 109.193 58.7256 109.193C58.9194 109.193 59.1131 109.193 59.1131 109.193C58.9194 109.386 58.7256 109.386 58.7256 109.193Z" fill="#52331D"/>
<path d="M60.6617 108.613C60.2743 108.613 59.8869 108.613 59.4995 108.421C59.1121 108.227 58.7247 108.227 58.3374 108.034L58.1437 107.841C57.95 107.647 57.7563 107.647 57.7563 107.455C57.1752 107.261 56.7878 107.068 56.2068 107.068C56.013 107.068 55.432 107.261 55.432 107.647H55.2383C55.2383 107.261 54.8509 107.261 54.4635 107.068C53.8824 107.068 53.3013 107.261 52.9139 107.647C52.7203 107.841 52.5265 107.841 52.5265 108.034L52.3329 108.227C51.9455 108.421 51.5581 108.613 51.1707 108.613C50.7833 108.807 50.3959 108.807 50.0085 108.807C49.8148 108.807 49.6211 108.807 49.6211 108.613C49.6211 108.807 49.8148 109 50.0085 109C50.2022 109.193 50.3959 109.193 50.5896 109.193C50.977 109.386 51.5581 109.386 52.1392 109.386C52.3329 109.386 52.7203 109.193 52.9139 109C53.1077 108.807 53.3013 108.807 53.4951 108.613C53.8824 108.421 54.2698 108.227 54.8509 108.227C55.0446 108.227 55.2383 108.227 55.432 108.227H55.6256C55.8194 108.227 56.013 108.227 56.2068 108.227C56.5942 108.227 57.1752 108.421 57.5626 108.613C57.7563 108.807 57.95 108.807 58.1437 109C58.3374 109.193 58.5311 109.386 58.9185 109.386C59.3059 109.386 60.0806 109.386 60.468 109.193C60.6618 109.193 60.8554 109.193 61.0492 109C61.2428 108.807 61.4365 108.807 61.4365 108.613C61.0492 108.613 60.8554 108.613 60.6617 108.613Z" fill="#6B4732"/>
</g>
<path d="M350.311 166.422C359.191 166.422 366.388 159.242 366.388 150.385C366.388 141.528 359.191 134.348 350.311 134.348C341.432 134.348 334.234 141.528 334.234 150.385C334.234 159.242 341.432 166.422 350.311 166.422Z" fill="#0064B7"/>
<mask id="mask1_3375_6170" style="mask-type:alpha" maskUnits="userSpaceOnUse" x="334" y="134" width="33" height="33">
<path d="M350.311 166.422C359.191 166.422 366.388 159.242 366.388 150.385C366.388 141.528 359.191 134.348 350.311 134.348C341.432 134.348 334.234 141.528 334.234 150.385C334.234 159.242 341.432 166.422 350.311 166.422Z" fill="#0064B7"/>
</mask>
<g mask="url(#mask1_3375_6170)">
<path d="M357.284 152.51C356.703 149.805 357.477 148.646 357.865 144.782L350.699 144.588L343.532 144.782C343.725 148.646 344.888 149.418 344.113 152.51C342.951 156.567 340.045 161.978 350.892 162.171C361.351 162.171 358.253 156.567 357.284 152.51Z" fill="#52331D"/>
<path d="M348.956 153.862C348.956 153.862 348.956 155.795 347.987 156.761C347.019 157.727 346.05 159.272 346.05 159.272C346.05 159.272 347.987 162.364 352.442 161.978C356.897 161.591 357.478 158.692 357.478 158.692C357.478 158.692 353.604 158.306 353.217 154.442C352.83 150.771 352.055 150.771 352.055 150.771L348.956 153.862Z" fill="#F8E1CC"/>
<path d="M346.437 157.727C346.437 157.727 343.531 157.34 342.176 157.727C340.82 158.114 340.239 157.92 340.626 159.08C341.014 160.239 343.144 165.649 342.176 168.933C341.207 172.218 339.852 189.607 339.852 189.607C339.852 189.607 350.505 189.994 354.572 190.187C358.64 190.38 361.739 189.8 361.739 189.8C361.739 189.8 362.708 182.459 361.739 178.98C360.77 175.502 359.802 170.286 359.802 170.286C359.802 170.286 359.221 162.558 359.996 160.819C361.157 159.079 361.739 158.886 360.383 158.306C359.027 157.92 357.672 157.34 356.509 157.34C355.347 157.34 354.96 157.34 354.185 157.92C353.41 158.5 352.441 159.659 350.505 159.466C348.568 159.272 347.599 158.114 347.599 158.114C347.599 158.114 346.824 157.727 346.437 157.727Z" fill="#070707"/>
<path d="M341.208 158.113C341.208 158.113 340.239 157.727 338.689 158.692C337.14 160.045 335.978 162.944 335.591 164.683C335.203 166.421 334.622 168.354 334.622 168.354C334.622 168.354 336.559 169.513 338.689 169.513C340.627 169.513 341.982 169.706 341.982 169.706C341.982 169.706 342.95 164.296 342.563 161.784C342.757 159.659 342.369 158.886 341.208 158.113Z" fill="#F7A600"/>
<path d="M358.834 160.239C358.834 160.239 359.802 157.92 361.546 158.886C363.289 160.045 364.644 163.91 365.226 165.262C365.613 166.614 366.194 169.127 366.194 169.127C366.194 169.127 363.869 170.093 362.127 170.285C360.383 170.479 359.027 170.479 359.027 170.479C359.027 170.479 358.446 165.455 358.446 163.716C358.253 161.591 358.834 160.239 358.834 160.239Z" fill="#F7A600"/>
<path d="M345.275 148.066C345.275 148.066 344.694 147.487 344.307 147.679C344.113 147.873 343.726 148.646 344.113 149.226C344.307 149.805 344.501 150.578 344.694 150.578C344.888 150.771 345.663 150.771 345.663 150.771C345.663 150.578 345.275 148.066 345.275 148.066Z" fill="#F8E1CC"/>
<path d="M355.928 148.066C355.928 148.066 356.509 147.487 356.896 147.679C357.09 147.873 357.478 148.646 357.09 149.226C356.896 149.805 356.703 150.578 356.509 150.578C356.315 150.771 355.541 150.771 355.541 150.771C355.347 150.578 355.928 148.066 355.928 148.066Z" fill="#F8E1CC"/>
<path d="M356.122 143.429C355.153 140.531 352.248 139.565 350.698 139.565C349.149 139.565 346.243 140.144 345.275 143.429C344.307 146.327 345.662 150.771 346.631 152.509C347.6 154.056 349.536 155.601 350.892 155.601C352.248 155.601 354.185 154.056 355.153 152.509C355.734 150.578 356.897 146.327 356.122 143.429Z" fill="#F8E1CC"/>
<path d="M345.082 148.259C345.082 148.259 345.469 145.361 346.824 143.815C346.824 143.815 347.793 146.134 349.924 146.907C349.924 146.907 349.924 145.748 349.73 144.974C349.73 144.974 351.473 146.714 353.798 146.907C353.798 146.907 353.604 145.94 353.41 145.361C353.41 145.361 355.347 146.907 356.315 148.259C356.315 148.259 358.059 146.714 357.865 143.815C357.671 140.917 355.153 137.246 350.892 137.246C346.824 137.246 344.888 140.338 344.888 140.338C344.888 140.338 343.338 141.304 343.338 143.235C342.95 145.554 343.725 146.907 345.082 148.259Z" fill="#52331D"/>
</g>
<path d="M127.024 41.5565C135.903 41.5565 143.101 34.3766 143.101 25.5197C143.101 16.6629 135.903 9.48294 127.024 9.48294C118.146 9.48294 110.948 16.6629 110.948 25.5197C110.948 34.3766 118.146 41.5565 127.024 41.5565Z" fill="#DE051F"/>
<mask id="mask2_3375_6170" style="mask-type:alpha" maskUnits="userSpaceOnUse" x="110" y="9" width="34" height="33">
<path d="M127.024 41.5565C135.904 41.5565 143.101 34.3766 143.101 25.5197C143.101 16.6629 135.904 9.48294 127.024 9.48294C118.146 9.48294 110.948 16.6629 110.948 25.5197C110.948 34.3766 118.146 41.5565 127.024 41.5565Z" fill="#DE051F"/>
</mask>
<g mask="url(#mask2_3375_6170)">
<path d="M133.998 27.6451C133.417 24.9401 134.191 23.7808 134.579 19.9165L127.412 19.7234L120.245 19.9165C120.439 23.7808 121.601 24.5536 120.826 27.6451C119.665 31.7026 116.759 37.1125 127.606 37.3058C138.065 37.3058 135.16 31.7026 133.998 27.6451Z" fill="#4B2C61"/>
<path d="M125.668 28.9975C125.668 28.9975 125.668 30.9296 124.7 31.8957C123.731 32.8617 122.763 34.4075 122.763 34.4075C122.763 34.4075 124.7 37.499 129.155 37.1125C133.416 36.7261 134.191 33.8279 134.191 33.8279C134.191 33.8279 130.317 33.4414 129.93 29.5772C129.542 25.9061 128.768 25.9061 128.768 25.9061L125.668 28.9975Z" fill="#F8E1CC"/>
<path d="M123.344 32.8617C123.344 32.8617 120.439 32.4753 119.082 32.8617C117.727 33.2482 117.146 33.055 117.533 34.2143C117.921 35.3736 120.052 40.7835 119.082 44.0682C118.114 47.3528 116.759 64.7418 116.759 64.7418C116.759 64.7418 127.411 65.1289 131.479 65.3215C135.547 65.515 138.646 64.9354 138.646 64.9354C138.646 64.9354 139.614 57.593 138.646 54.1149C137.678 50.6374 136.709 45.4206 136.709 45.4206C136.709 45.4206 136.128 37.6921 136.902 35.9532C138.065 34.2143 138.646 34.021 137.29 33.4413C135.934 33.0549 134.579 32.4753 133.417 32.4753C132.254 32.4753 131.866 32.4753 131.092 33.0549C130.511 33.6346 129.349 34.7939 127.411 34.6007C125.475 34.4075 124.507 33.2482 124.507 33.2482C124.507 33.2482 123.731 32.8617 123.344 32.8617Z" fill="#CCB4AA"/>
<path d="M118.114 33.2482C118.114 33.2482 117.146 32.8618 115.597 33.8278C114.047 35.1803 112.885 38.0785 112.498 39.8174C112.11 41.5564 111.529 43.4885 111.529 43.4885C111.529 43.4885 113.466 44.6478 115.597 44.6478C117.534 44.6478 118.889 44.841 118.889 44.841C118.889 44.841 119.858 39.431 119.471 36.9193C119.665 34.9871 119.277 34.021 118.114 33.2482Z" fill="#355D75"/>
<path d="M135.741 35.3735C135.741 35.3735 136.71 33.0549 138.453 34.021C140.196 35.1803 141.552 39.0446 142.133 40.397C142.521 41.7495 143.101 44.2614 143.101 44.2614C143.101 44.2614 140.777 45.2274 139.034 45.4206C137.291 45.6138 135.934 45.6138 135.934 45.6138C135.934 45.6138 135.353 40.5903 135.353 38.8513C135.16 36.726 135.741 35.3735 135.741 35.3735Z" fill="#355D75"/>
<path d="M122.182 23.2012C122.182 23.2012 121.601 22.6216 121.214 22.8148C121.02 23.008 120.633 23.7809 121.02 24.3605C121.214 24.9401 121.407 25.713 121.601 25.713C121.795 25.9062 122.569 25.9062 122.569 25.9062C122.569 25.713 122.182 23.2012 122.182 23.2012Z" fill="#F8E1CC"/>
<path d="M132.834 23.2012C132.834 23.2012 133.416 22.6216 133.804 22.8148C133.997 23.008 134.385 23.7809 133.997 24.3605C133.804 24.9401 133.61 25.713 133.416 25.713C133.222 25.9062 132.447 25.9062 132.447 25.9062C132.253 25.713 132.834 23.2012 132.834 23.2012Z" fill="#F8E1CC"/>
<path d="M133.029 18.5638C132.06 15.6656 129.155 14.6996 127.605 14.6996C126.056 14.6996 123.15 15.2791 122.182 18.5638C121.214 21.4621 122.569 25.9059 123.538 27.6449C124.507 29.1906 126.443 30.7363 127.799 30.7363C129.155 30.7363 131.092 29.1906 132.06 27.6449C132.448 25.7127 133.804 21.4621 133.029 18.5638Z" fill="#F8E1CC"/>
<path d="M121.988 23.3943C121.988 23.3943 122.376 20.496 123.731 18.9503C123.731 18.9503 124.7 21.2689 126.831 22.0417C126.831 22.0417 126.831 20.8825 126.637 20.1096C126.637 20.1096 128.38 21.8485 130.705 22.0417C130.705 22.0417 130.511 21.0756 130.317 20.496C130.317 20.496 132.254 22.0417 133.222 23.3943C133.222 23.3943 134.966 21.8486 134.772 18.9503C134.579 16.0521 132.06 12.3811 127.799 12.3811C123.731 12.3811 121.795 15.4725 121.795 15.4725C121.795 15.4725 120.245 16.4385 120.245 18.3706C119.857 20.6892 120.633 22.0417 121.988 23.3943Z" fill="#4B2C61"/>
</g>
<path d="M245.435 44.9311C254.314 44.9311 261.512 37.7512 261.512 28.8944C261.512 20.0375 254.314 12.8577 245.435 12.8577C236.555 12.8577 229.357 20.0375 229.357 28.8944C229.357 37.7512 236.555 44.9311 245.435 44.9311Z" fill="#0064B7"/>
<mask id="mask3_3375_6170" style="mask-type:alpha" maskUnits="userSpaceOnUse" x="229" y="12" width="33" height="33">
<path d="M245.435 44.9311C254.314 44.9311 261.512 37.7512 261.512 28.8944C261.512 20.0375 254.314 12.8577 245.435 12.8577C236.555 12.8577 229.357 20.0375 229.357 28.8944C229.357 37.7512 236.555 44.9311 245.435 44.9311Z" fill="#0064B7"/>
</mask>
<g mask="url(#mask3_3375_6170)">
<path d="M243.885 32.3722C243.885 32.3722 243.885 34.4976 243.11 35.2705C242.335 36.0433 240.98 37.589 240.98 37.589C240.98 37.589 243.11 40.8737 247.177 40.4873C251.245 40.1008 252.214 37.2026 252.214 37.2026C252.214 37.2026 248.34 36.8162 247.759 33.1451C247.371 29.474 246.79 29.474 246.79 29.474L243.885 32.3722Z" fill="#FFB07E"/>
<path d="M241.367 36.2367C241.367 36.2367 238.461 35.8502 236.912 36.2367C235.363 36.6231 234.782 36.4299 235.169 37.3959C235.556 38.5552 237.686 43.9652 236.718 47.4431C235.75 50.9209 234.394 68.1174 234.394 68.1174C234.394 68.1174 245.047 68.5035 248.921 68.6962C252.989 68.8897 255.894 68.1174 255.894 68.1174C255.894 68.1174 256.669 60.5815 255.894 57.2969C255.119 54.0123 253.763 48.6024 253.763 48.6024C253.763 48.6024 252.989 40.8738 253.957 39.1349C254.925 37.2027 255.894 37.2028 254.344 36.6231C252.795 36.0435 251.632 35.8502 250.664 35.8502C249.696 35.8502 248.921 35.8502 248.34 36.4299C247.759 37.0095 246.403 38.362 244.853 38.1688C243.11 37.9755 241.754 36.6231 241.754 36.6231C241.754 36.6231 241.754 36.2367 241.367 36.2367Z" fill="#1B3A62"/>
<path d="M236.331 36.8163C236.331 36.8163 235.363 36.4298 233.813 37.5891C232.07 38.7485 231.101 41.6466 230.521 43.5787C229.94 45.5109 229.746 47.0566 229.746 47.0566C229.746 47.0566 231.876 48.0227 233.813 48.0227C235.75 48.0227 237.299 48.2159 237.299 48.2159C237.299 48.2159 238.074 42.8059 237.88 40.2942C237.687 38.362 237.493 37.5891 236.331 36.8163Z" fill="#00AEEF"/>
<path d="M253.764 38.7483C253.764 38.7483 254.538 36.4297 256.476 37.589C258.412 38.555 259.769 42.6125 260.156 43.7718C260.543 44.9311 261.124 47.4429 261.124 47.4429C261.124 47.4429 258.8 48.4089 257.057 48.4089C255.12 48.6022 253.957 48.6022 253.957 48.6022C253.957 48.6022 253.183 43.5786 253.376 41.8397C253.376 40.294 253.764 38.7483 253.764 38.7483Z" fill="#00AEEF"/>
<path d="M252.408 25.4166C252.408 25.4166 252.796 25.6098 252.989 26.1895C253.183 26.5759 252.408 28.3149 252.021 28.7013" fill="#FFB07E"/>
<path d="M252.602 19.6203C252.408 14.7899 246.209 14.7899 246.209 14.7899C246.209 14.7899 240.011 14.7899 239.818 19.6203C239.818 21.7455 239.818 23.6777 240.011 25.4166C240.205 26.5759 240.205 27.9284 240.399 28.7013C240.399 29.2809 240.592 29.4742 240.592 29.6673C240.786 30.0537 240.98 30.4402 241.367 30.8266C241.948 31.7927 243.111 32.7587 243.692 33.1452C244.273 33.5317 245.628 33.7248 246.209 33.7248C246.79 33.7248 248.34 33.5317 248.728 33.1452C249.309 32.7587 250.47 31.5995 251.051 30.8266C251.439 30.4402 251.633 30.0537 251.827 29.6673C251.827 29.4742 252.021 29.0877 252.021 28.7013C252.214 27.9284 252.408 26.7692 252.408 25.4166C252.602 23.8709 252.602 21.7455 252.602 19.6203Z" fill="#FFB07E"/>
<path d="M239.818 25.4166C240.011 26.5759 240.011 27.9284 240.205 28.7013C239.818 28.3149 239.043 26.7691 239.237 26.1895C239.431 25.9962 239.818 25.4166 239.818 25.4166Z" fill="#FFB07E"/>
<path d="M241.561 18.8472C241.367 20.3929 241.367 20.9725 240.786 21.9386C240.399 22.7115 239.624 23.8708 239.818 24.6436C239.624 24.0639 239.818 23.4843 239.431 22.9046C239.043 22.3251 238.849 21.9386 239.043 21.1658C239.043 20.3929 239.043 19.2336 239.624 18.4608C239.818 18.0744 240.205 17.8811 240.399 17.6879C240.399 17.4947 240.399 17.1083 240.592 16.9151C241.367 15.1761 244.466 15.1761 246.209 15.1761C246.209 15.1761 252.408 15.1761 252.602 20.0065C252.602 22.3251 252.602 24.6436 252.408 26.3826C252.408 25.8029 251.826 25.4165 251.633 24.6436C251.245 24.0639 251.245 23.4843 250.664 22.7115C250.083 21.9386 248.728 21.5522 247.759 21.1658C245.628 20.5861 243.304 20.1997 241.561 18.8472Z" fill="#915F41"/>
<path d="M244.466 18.4608C244.854 18.6541 245.047 19.0405 245.435 19.2337C245.822 19.6201 246.016 19.8133 246.403 20.1998C246.79 20.3929 247.178 20.5862 247.565 20.7794C247.759 20.7794 247.953 20.9726 248.147 20.9726C248.34 20.9726 248.534 21.1658 248.728 21.359C248.34 21.1658 247.953 20.9726 247.565 20.9726C247.371 20.9726 247.178 20.7794 246.984 20.7794C246.79 20.5862 246.597 20.5862 246.403 20.3929C246.016 20.1998 245.822 19.8133 245.435 19.4269C245.241 19.0405 244.854 18.6541 244.466 18.4608Z" fill="#BB8B6C"/>
<path d="M247.76 19.2336C247.76 19.4268 247.953 19.6201 247.953 19.8132C247.953 20.0065 248.147 20.1997 248.341 20.1997C248.534 20.5862 248.921 20.7793 249.115 20.9726C249.309 21.1658 249.696 21.3589 250.083 21.7454C250.277 21.9386 250.471 21.9386 250.471 22.1319C250.277 21.9386 250.083 21.9386 250.083 21.7454C249.696 21.5522 249.502 21.359 249.115 20.9726C248.921 20.5862 248.534 20.3929 248.341 20.0065C248.147 19.8132 248.147 19.6201 247.953 19.4268C247.953 19.6201 247.76 19.4268 247.76 19.2336Z" fill="#BB8B6C"/>
</g>
<path d="M340.162 68.5544C349.041 68.5544 356.239 61.3743 356.239 52.5176C356.239 43.6607 349.041 36.4807 340.162 36.4807C331.283 36.4807 324.085 43.6607 324.085 52.5176C324.085 61.3743 331.283 68.5544 340.162 68.5544Z" fill="#F79F03"/>
<mask id="mask4_3375_6170" style="mask-type:alpha" maskUnits="userSpaceOnUse" x="324" y="36" width="33" height="33">
<path d="M340.162 68.5544C349.041 68.5544 356.239 61.3743 356.239 52.5176C356.239 43.6607 349.041 36.4807 340.162 36.4807C331.283 36.4807 324.085 43.6607 324.085 52.5176C324.085 61.3743 331.283 68.5544 340.162 68.5544Z" fill="#F79F03"/>
</mask>
<g mask="url(#mask4_3375_6170)">
<path d="M338.613 56.1884C338.613 56.1884 338.613 58.1209 337.644 59.0868C336.675 60.0526 335.707 61.4055 335.707 61.4055C335.707 61.4055 337.644 64.6901 341.905 64.3039C346.166 63.9169 346.748 61.0194 346.748 61.0194C346.748 61.0194 342.874 60.6323 342.293 56.7681C341.711 52.9041 341.13 53.0973 341.13 53.0973L338.613 56.1884Z" fill="#FFBF99"/>
<path d="M336.094 59.86C336.094 59.86 333.189 59.4729 331.639 59.86C330.09 60.2462 329.703 60.0526 330.09 61.212C330.477 62.3714 332.414 67.7811 331.639 71.0657C330.671 74.3503 329.509 91.5464 329.509 91.5464C329.509 91.5464 339.968 91.9334 344.036 92.1261C348.104 92.3196 351.009 91.5464 351.009 91.5464C351.009 91.5464 351.978 84.2049 351.009 80.9203C350.04 77.6358 349.072 72.2251 349.072 72.2251C349.072 72.2251 348.491 64.8836 349.265 62.7575C350.428 61.0194 351.009 60.8258 349.653 60.4397C348.297 60.0526 346.748 59.4729 345.973 59.4729C344.81 59.4729 344.423 59.4729 343.842 60.0526C343.261 60.6323 342.099 61.7917 340.355 61.5982C338.613 61.4055 337.257 60.0526 337.257 60.0526C337.257 60.0526 336.481 59.86 336.094 59.86Z" fill="#1B3A62"/>
<path d="M331.252 60.4397C331.252 60.4397 330.284 60.0535 328.927 61.0194C327.378 62.3714 326.216 65.2698 325.635 67.0088C325.054 68.7479 324.667 70.4869 324.667 70.4869C324.667 70.4869 326.603 71.6463 328.54 71.6463C330.477 71.6463 332.027 71.8389 332.027 71.8389C332.027 71.8389 332.995 66.6227 332.608 64.1104C332.608 61.7917 332.414 61.212 331.252 60.4397Z" fill="#021E34"/>
<path d="M348.491 62.5649C348.491 62.5649 349.459 60.4397 351.202 61.212C352.946 62.1787 354.495 66.2356 354.882 67.395C355.27 68.5544 355.851 71.0666 355.851 71.0666C355.851 71.0666 353.72 72.0325 351.977 72.226C350.234 72.4186 348.878 72.4186 348.878 72.4186C348.878 72.4186 348.297 67.5885 348.297 65.6559C348.104 63.7243 348.491 62.5649 348.491 62.5649Z" fill="#021E34"/>
<path d="M340.355 54.2567H338.032C338.032 54.2567 338.225 56.1884 340.355 56.1884C342.487 56.1884 342.68 54.2567 342.68 54.2567H340.355Z" fill="white"/>
<path d="M347.134 50.0059C347.328 50.3923 346.553 51.938 345.972 52.3245C346.166 51.7449 346.166 50.5856 346.36 49.2331C346.36 49.4263 346.941 49.6195 347.134 50.0059Z" fill="#FFBF99"/>
<path d="M346.747 43.6298C346.553 39.1858 340.549 38.9926 340.549 38.9926C340.549 38.9926 334.545 38.9926 334.351 43.6298C334.351 45.5619 334.351 47.494 334.545 49.233C334.739 50.5854 334.739 51.5515 334.932 52.3244C334.932 52.7108 335.126 53.2908 335.126 53.4835C335.32 53.8696 335.513 54.4493 335.707 54.8364C336.288 55.8022 337.256 56.7681 337.837 56.9616C338.224 57.1551 339.581 57.5413 340.162 57.3477C340.743 57.3477 341.905 57.1551 342.486 56.9616C343.067 56.5754 344.036 55.6087 344.617 54.8364C344.811 54.4493 345.198 53.8696 345.198 53.4835C345.198 53.2908 345.392 52.904 345.392 52.3244C345.585 51.7447 345.585 50.5854 345.779 49.233C346.747 47.8804 346.747 45.9483 346.747 43.6298Z" fill="#FFBF99"/>
<path d="M334.351 49.4262C334.545 50.7787 334.545 51.7448 334.738 52.5176C334.351 52.1312 333.576 50.5855 333.576 50.1991C333.964 49.6194 334.351 49.4262 334.351 49.4262Z" fill="#FFBF99"/>
<path d="M343.842 56.3819C343.455 56.7681 342.874 57.3477 342.68 57.5413C342.293 57.7339 341.13 58.5071 340.549 58.5071H340.355C339.774 58.5071 338.806 57.9274 338.225 57.5413C337.838 57.3477 337.257 56.9616 337.062 56.3819C337.644 56.3819 337.451 55.4161 337.644 55.029C337.838 54.6428 338.225 54.6428 338.806 54.4493C339 54.2567 339.193 54.2567 339.387 54.0632C339.581 53.8696 339.968 53.8696 340.355 53.8696H340.549C340.743 53.8696 341.13 53.8696 341.517 54.0632C341.905 54.2567 341.906 54.2567 342.099 54.4493C342.293 54.6428 343.067 54.6428 343.261 55.029C343.648 55.2225 343.067 56.1884 343.842 56.3819ZM342.68 55.9957C343.067 55.4161 342.68 55.4161 342.099 55.029C341.712 54.8364 340.743 54.6428 340.549 54.6428C340.162 54.6428 339.193 55.029 339 55.029C338.612 55.2225 338.032 55.2225 338.419 55.9957C338.612 56.3819 339 56.9616 339.581 56.9616C339.968 56.9616 340.549 56.3819 340.743 55.8022C340.936 55.9957 341.13 56.9616 341.906 56.9616C342.099 56.7681 342.486 56.1884 342.68 55.9957Z" fill="#915F41"/>
<path d="M340.549 48.0737C340.743 48.0737 340.936 48.0737 341.13 48.0737C341.324 48.0737 341.324 47.8805 341.518 47.6873C341.712 47.4941 342.099 47.4941 342.68 47.4941C343.261 47.4941 343.648 47.4941 344.036 47.4941C344.229 47.4941 345.391 47.4941 345.391 47.4941C345.391 47.4941 345.779 47.6873 345.779 47.8805C345.779 47.8805 345.779 48.0737 345.973 48.0737C345.973 48.267 345.973 48.6534 345.973 49.0398C345.973 49.4262 345.779 50.0059 345.585 50.1991H345.391C345.198 50.1991 344.81 50.1991 344.423 50.1991C344.036 50.1991 343.455 50.1991 343.068 50.1991C342.68 50.1991 341.906 50.1991 341.712 49.233C341.712 49.0398 341.518 48.267 341.518 48.0737C341.13 48.267 340.743 48.267 340.549 48.0737ZM342.099 49.8127C342.293 49.8127 342.68 50.0058 342.68 50.0058C342.874 50.0058 344.423 50.0058 345.004 50.0058C345.198 50.0058 345.198 50.0058 345.391 49.8127C345.585 49.6194 345.779 48.267 345.585 48.0737C345.585 47.8805 345.391 47.8805 345.198 47.6873C344.81 47.4941 342.099 47.4941 341.906 47.6873C341.712 47.8805 341.712 47.8805 341.712 48.0737C341.906 48.0737 341.906 48.0737 341.906 48.267C341.906 48.4601 341.906 48.8466 341.712 48.6534C341.712 48.6534 341.712 48.4601 341.518 48.6534V49.0398C341.906 49.8127 342.099 49.8127 342.099 49.8127Z" fill="#6B4732"/>
<path d="M340.549 48.0737C340.355 48.0737 340.162 48.0737 339.968 48.0737C339.774 48.0737 339.774 47.8805 339.581 47.6873C339.387 47.4941 339 47.4941 338.419 47.4941C337.838 47.4941 337.45 47.4941 337.062 47.4941C336.869 47.4941 335.707 47.4941 335.707 47.4941C335.707 47.4941 335.319 47.6873 335.319 47.8805C335.319 47.8805 335.319 48.0737 335.126 48.0737C335.126 48.267 335.126 48.6534 335.126 49.0398C335.126 49.4262 335.319 50.0059 335.513 50.1991H335.707C335.9 50.1991 336.288 50.1991 336.675 50.1991C337.062 50.1991 337.644 50.1991 338.031 50.1991C338.419 50.1991 339.193 50.1991 339.387 49.233C339.387 49.0398 339.581 48.267 339.581 48.0737C339.774 48.267 340.355 48.267 340.549 48.0737ZM339 49.8127C338.806 49.8127 338.419 50.0058 338.419 50.0058C338.225 50.0058 336.675 50.0058 336.094 50.0058C335.9 50.0058 335.9 50.0058 335.707 49.8127C335.513 49.6194 335.319 48.267 335.513 48.0737C335.513 47.8805 335.707 47.8805 335.9 47.6873C336.288 47.4941 339 47.4941 339.193 47.6873C339.387 47.8805 339.387 47.8805 339.387 48.0737C339.193 48.0737 339.193 48.0737 339.193 48.267C339.193 48.4601 339.193 48.8466 339.387 48.6534C339.387 48.6534 339.387 48.4601 339.581 48.6534V49.0398C339.193 49.8127 339 49.8127 339 49.8127Z" fill="#6B4732"/>
</g>
<path d="M126.598 232.861C126.598 232.861 126.899 235.71 128.402 239.309L133.363 241.558L129.455 242.158C133.814 252.954 144.337 268.4 168.841 265.251C168.841 265.851 180.867 235.11 126.598 232.861Z" fill="#FABD41"/>
<path d="M133.062 249.805L153.207 251.905L126.598 232.861" stroke="white" stroke-width="1.68145" stroke-miterlimit="10"/>
<path d="M143.736 235.11L153.206 251.905" stroke="white" stroke-width="1.68145" stroke-miterlimit="10"/>
<path d="M142.232 214.866C142.232 214.866 148.847 210.367 150.2 214.266C151.552 218.165 153.357 218.015 155.311 217.715C157.265 217.415 160.422 215.616 161.625 219.814C162.827 224.164 161.625 226.712 163.579 228.062C165.533 229.412 171.547 237.359 167.488 238.709C163.579 240.059 158.918 236.76 157.265 234.96C155.611 233.011 152.154 233.011 149.598 233.611C146.743 234.21 143.284 233.011 144.488 229.712C145.69 226.413 143.886 223.114 141.481 222.514C138.925 221.614 137.572 217.866 142.232 214.866Z" fill="#1C4599"/>
<path d="M145.69 218.615L168.54 241.558" stroke="white" stroke-width="1.2" stroke-miterlimit="10" stroke-linecap="round" stroke-linejoin="round"/>
<path d="M156.814 220.564L155.011 227.912L147.043 229.111" stroke="white" stroke-width="1.2" stroke-miterlimit="10" stroke-linecap="round" stroke-linejoin="round"/>
<path d="M310.276 92.1653C310.276 92.1653 313.796 104.875 307.12 105.044C300.409 104.88 299.519 107.942 299.126 111.221C298.57 114.247 299.706 120.465 292.545 119.877C285.382 119.288 282.019 116.274 278.89 118.629C275.761 120.985 260.28 126.067 260.155 119.202C259.824 112.29 267.555 106.816 271.587 105.309C275.365 103.964 277.135 98.3804 277.802 93.8589C278.343 89.4176 282.099 84.7026 286.455 88.1521C291.02 91.6463 297.082 90.8009 299.481 87.3085C301.222 83.347 307.68 83.6734 310.276 92.1653Z" fill="#FABD41"/>
<path d="M302.412 95.7647L254.067 119.173" stroke="white" stroke-width="1.68145" stroke-miterlimit="10" stroke-linecap="round" stroke-linejoin="round"/>
<path d="M293.398 112.031L282.724 105.139L284.462 92.275" stroke="white" stroke-width="1.68145" stroke-miterlimit="10" stroke-linecap="round" stroke-linejoin="round"/>
<path d="M278.659 61.5482C278.659 61.5482 277.653 55.3001 283.069 54.5153C288.376 53.6262 294.162 59.3071 292.387 63.4558C290.931 67.4967 287.107 67.9506 289.256 70.9034C291.298 73.7501 295.833 82.622 291.383 84.5652C286.827 86.4042 282.652 82.7254 280.148 88.6828C277.536 94.5349 285.153 103.489 274.962 105.265C264.877 106.934 246.899 105.272 251.776 90.0704C256.867 75.0798 265.79 87.84 266.331 75.5355C266.873 63.2311 272.012 67.857 276.044 66.9767C280.286 65.6711 278.659 61.5482 278.659 61.5482Z" fill="#ED3B4E"/>
<path d="M281.717 71.9165C281.717 71.9165 270.759 84.3021 265.233 98.0246C259.707 111.746 261.012 115.553 261.012 115.553" stroke="white" stroke-width="1.68145" stroke-miterlimit="10" stroke-linecap="round" stroke-linejoin="round"/>
<path d="M159.52 76.7573C157.866 76.7573 156.514 77.9568 156.514 79.7565V281.746C156.514 283.396 157.866 284.745 159.52 284.745H268.208C269.862 284.745 271.215 283.546 271.215 281.746V79.4569C271.215 77.807 269.862 76.4577 268.208 76.4577H159.52V76.7573Z" fill="#1466B1"/>
<path d="M267.757 89.8038H158.167V271.849H267.757V89.8038Z" fill="white" stroke="#1466B1" stroke-width="3.3629" stroke-miterlimit="10"/>
<path d="M229.724 83.5057C229.724 84.4047 228.822 85.1547 228.07 85.1547C227.168 85.1547 226.417 84.2549 226.417 83.5057C226.417 82.6059 227.319 81.8559 228.07 81.8559C228.822 82.0057 229.724 82.4561 229.724 83.5057Z" fill="white"/>
<path d="M226.115 83.5049C226.115 84.4047 225.515 84.8551 224.763 84.8551H199.508C198.606 84.8551 198.154 84.2549 198.154 83.5049C198.154 82.6059 198.756 82.1555 199.508 82.1555H224.763C225.214 82.1555 226.115 82.6059 226.115 83.5049Z" fill="white"/>
<path opacity="0.05" d="M260.39 161.632C260.39 182.176 243.854 198.521 223.41 198.521C202.965 198.521 186.429 182.026 186.429 161.632C186.429 141.239 202.965 124.744 223.41 124.744C243.854 124.593 260.39 141.388 260.39 161.632Z" fill="#1466B1"/>
<path d="M251.672 159.533C251.672 180.077 235.136 196.422 214.691 196.422C194.096 196.422 177.71 179.927 177.71 159.533C177.71 139.139 194.247 122.644 214.691 122.644C235.136 122.644 251.672 139.139 251.672 159.533Z" fill="#C7D6EE"/>
<path d="M193.795 184.425C196.351 180.527 200.41 179.327 200.41 179.327L210.181 175.878H219.651L229.423 179.327C229.423 179.327 233.632 180.527 236.037 184.425H193.795Z" fill="#A4DEF6"/>
<path d="M225.959 198.38H239.341C239.341 196.142 239.209 192.853 239.209 192.853C238.414 179.167 228.344 177.192 228.344 177.192C220.659 175.35 224.899 187.193 224.899 187.193C224.767 190.089 225.032 194.037 225.959 198.38Z" fill="#EE384E"/>
<path d="M220.446 166.307H209.767V177.148L214.997 177.82L220.446 177.148V166.307Z" fill="#FBBC98"/>
<g opacity="0.5">
<path d="M221.606 172.579V166.581H208.828V169.58C212.285 172.579 216.645 172.879 221.606 172.579Z" fill="#FF9C61"/>
</g>
<path d="M232.671 198.38C232.801 192.646 232.801 190.951 232.671 188.736C232.541 184.305 231.63 180.525 228.504 177.137L220.559 174.53C220.559 174.53 222.252 177.398 214.958 177.398C214.958 177.398 210.269 177.267 209.487 174.53L201.412 177.137C201.412 177.137 194.51 178.831 193.337 185.999L197.505 193.427L197.375 197.989L232.671 198.38Z" fill="#EE384E"/>
<path d="M228.529 150.381C228.529 147.849 228.396 145.317 228.529 143.038C228.529 141.392 228.661 141.899 226.812 141.645C224.038 141.392 223.113 146.076 222.98 148.355C222.716 151.141 223.245 154.306 223.905 156.965C224.038 157.978 224.038 159.877 225.094 160.51C226.151 160.763 226.944 159.75 227.604 159.117C228.661 157.471 228.529 154.812 228.661 153.04C228.529 152.027 228.529 151.141 228.529 150.381Z" fill="#1A1155"/>
<path d="M227.332 165.183C226.298 169.565 224.359 170.726 224.359 170.726L221.644 171.241C220.093 171.112 217.508 170.339 217.508 170.339C211.433 168.405 209.622 167.761 208.717 165.57L204.064 149.201C203.288 140.823 212.208 139.148 213.372 138.89C214.793 138.633 223.067 136.183 225.651 144.303C225.522 144.303 229.142 153.583 227.332 165.183Z" fill="#FFBF99"/>
<path d="M202.906 140.813C199.942 142.233 199.808 144.946 199.942 147.788C200.077 150.242 200.885 152.05 201.694 154.247C203.175 157.992 203.175 157.992 204.522 160.318C204.522 160.318 206.542 163.289 209.102 165.484C208.293 162.643 208.024 160.318 207.485 158.251C206.542 155.538 206.946 152.18 208.293 149.338C208.293 149.338 209.102 147.529 211.796 146.884L202.906 140.813Z" fill="#1A1155"/>
<path d="M207.476 158.243C207.476 158.243 205.921 155.286 203.587 156.942C203.587 156.942 202.551 157.769 203.846 159.661C203.846 159.661 205.661 162.381 208.124 160.962L207.476 158.243Z" fill="#FFBF99"/>
<path d="M207.248 150.681C207.248 150.681 207.248 156.45 208.124 159.597L207.138 159.728C207.138 159.728 206.481 155.533 204.838 155.533L207.248 150.681Z" fill="#1A1155"/>
<path d="M229.957 138.052C239.709 147.415 210.454 147.29 210.454 147.29C210.454 147.29 207.423 148.664 202.416 141.298C202.416 141.298 200.966 135.43 214.935 133.558C215.198 133.433 224.291 132.434 229.957 138.052Z" fill="#1A1155"/>
<path d="M204.625 198.38H192.515C192.515 198.38 192.515 195.478 192.515 195.346C192.515 192.444 192.771 189.543 193.407 186.774C194.172 182.553 196.084 179.125 200.291 177.937C202.203 177.41 203.987 178.729 204.88 180.443C204.88 180.312 206.792 182.686 204.625 198.38Z" fill="#DE051F"/>
<path d="M254.378 206.619C254.378 207.968 253.174 208.868 252.122 208.868H177.259C175.906 208.868 175.004 207.669 175.004 206.619C175.004 205.27 176.206 204.37 177.259 204.37H252.122C253.325 204.37 254.378 205.419 254.378 206.619Z" fill="#DEE6F5"/>
<path d="M254.378 221.914C254.378 223.264 253.174 224.164 252.122 224.164H177.259C175.906 224.164 175.004 222.964 175.004 221.914C175.004 220.564 176.206 219.664 177.259 219.664H252.122C253.325 219.365 254.378 220.564 254.378 221.914Z" fill="#DEE6F5"/>
<path d="M254.378 237.059C254.378 238.41 253.174 239.309 252.122 239.309H177.259C175.906 239.309 175.004 238.109 175.004 237.059C175.004 235.71 176.206 234.81 177.259 234.81H252.122C253.325 234.361 254.378 235.56 254.378 237.059Z" fill="#DEE6F5"/>
<path d="M354.196 246.657C354.196 246.657 357.052 245.457 356.751 242.308C356.601 239.159 354.948 237.059 358.405 237.809C361.712 238.859 362.915 239.159 365.32 238.709C367.725 238.259 369.68 237.059 368.627 240.358C367.575 243.658 366.523 245.907 368.928 246.657C371.484 246.957 374.039 245.307 374.339 250.106C374.641 255.055 370.882 260.453 364.268 260.752C357.954 260.902 354.948 258.503 354.948 258.503C354.948 258.503 353.144 256.254 356 255.504C358.856 254.905 361.412 253.704 359.909 252.505C358.555 251.305 353.895 251.156 353.895 251.156C353.895 251.156 348.634 249.806 354.196 246.657Z" fill="#6B9CD3"/>
<path d="M383.509 247.406C383.209 244.257 383.509 242.158 389.072 241.108C395.085 240.208 398.392 243.958 398.693 247.406C398.993 250.856 393.882 252.355 393.882 252.355C393.882 252.355 390.425 253.405 392.079 256.554C393.882 259.703 394.934 262.702 390.425 263.152C385.915 263.602 381.856 262.552 379.15 260.902C376.595 259.253 374.039 254.905 377.045 252.655C377.045 252.655 377.948 252.055 380.503 251.756C383.811 251.605 383.509 247.406 383.509 247.406Z" fill="#1C4599"/>
<path d="M362.914 246.807C362.914 246.807 367.725 257.904 368.327 265.252" stroke="#88D6F8" stroke-width="1.68145" stroke-miterlimit="10" stroke-linecap="round" stroke-linejoin="round"/>
<path d="M389.974 248.607C389.974 248.607 381.405 261.203 379.3 265.401" stroke="#599FD2" stroke-width="1.68145" stroke-miterlimit="10" stroke-linecap="round" stroke-linejoin="round"/>
<path d="M365.62 264.352H385.313C385.313 264.352 387.418 264.502 387.268 267.501C387.118 270.35 383.811 269.6 382.006 269.6C380.202 269.6 365.32 269.6 365.32 269.6C365.32 269.6 363.065 269.9 363.065 267.351C362.614 264.352 363.666 264.352 365.62 264.352Z" fill="#0256A4"/>
<path d="M365.17 269.6L368.025 286.844H381.405L383.509 273.949L365.17 269.6Z" fill="#0256A4"/>
<path d="M365.17 269.6L383.509 273.949L384.261 269.6H365.17Z" fill="#346BB4"/>
<path d="M373.738 265.101C373.738 265.101 374.791 245.907 380.352 233.91" stroke="#FABD41" stroke-width="1.68145" stroke-miterlimit="10"/>
<path d="M385.013 226.862C385.013 226.862 385.313 232.861 379.752 235.11C379.752 235.11 378.549 229.861 385.013 226.862Z" fill="#FABD41"/>
<path d="M376.293 245.458C376.293 245.458 378.398 240.359 384.863 241.108C385.013 240.958 384.411 246.057 376.293 245.458Z" fill="#FABD41"/>
<path d="M374.189 258.054C374.189 258.054 375.391 252.805 381.856 252.055C381.856 252.055 382.307 257.154 374.189 258.054Z" fill="#FABD41"/>
<path d="M374.039 258.054C374.039 258.054 374.941 252.655 368.928 249.806C368.777 250.106 366.823 254.604 374.039 258.054Z" fill="#FABD41"/>
<path d="M376.293 245.458C376.293 245.458 377.647 240.208 372.084 236.76C372.235 236.61 369.529 240.958 376.293 245.458Z" fill="#FABD41"/>
<path d="M375.453 95.9894L367.781 98.1352L369.932 105.788L377.604 103.642L375.453 95.9894Z" fill="#ED3B4E"/>
<path d="M58.0693 153.958L50.3975 156.104L52.5487 163.756L60.2205 161.611L58.0693 153.958Z" fill="#24499F"/>
<path d="M120.435 179.476H125.396L130.807 179.177C130.807 179.177 131.409 182.476 128.252 182.926C125.095 183.226 120.284 183.976 119.684 183.826C118.48 183.525 120.435 179.476 120.435 179.476Z" fill="#FBBE9B"/>
<path d="M116.677 155.484C116.677 155.484 121.788 160.582 122.239 163.432C123.141 166.281 121.337 170.33 120.886 171.679C120.585 172.879 120.736 188.324 120.736 188.324H100.441V155.334L116.677 155.484Z" fill="#0064E1"/>
<path d="M128.703 140.038C128.703 140.038 128.402 143.937 127.35 146.487V148.436C127.35 148.586 127.2 148.736 127.05 148.736L125.846 148.586V150.235C125.846 150.385 125.696 150.535 125.546 150.535H124.494C124.343 150.535 124.193 150.686 124.193 150.836L124.343 151.735C124.343 151.885 124.343 152.035 124.043 152.035C123.141 152.185 121.788 152.335 119.834 150.985C117.879 149.636 116.677 150.385 116.677 151.585C116.677 152.785 117.729 156.533 116.075 157.583C114.723 158.483 110.513 157.884 109.611 156.984C108.559 155.934 109.611 153.534 110.964 152.185C112.016 151.135 113.52 139.888 115.775 138.839C117.729 138.389 128.703 140.038 128.703 140.038Z" fill="#FBBC98"/>
<path d="M105.101 171.529L104.951 178.427C104.951 179.027 105.252 179.476 106.003 179.476C106.755 179.476 107.206 179.476 108.559 178.877C111.716 177.678 119.382 173.479 120.284 172.729C120.284 172.729 120.435 172.729 120.435 172.579C120.585 172.278 121.637 170.779 123.893 170.929C126.748 171.079 127.35 171.829 127.05 172.579C126.899 173.479 126.448 173.479 126.448 173.479L126.748 174.078C126.748 174.078 126.448 174.978 125.095 174.978C123.893 174.978 122.239 174.378 121.938 174.828C121.637 175.128 109.311 183.226 106.454 185.175C106.154 185.325 105.552 185.475 105.101 185.774C103.297 186.075 98.9379 186.824 98.487 183.826C97.585 180.077 97.585 171.829 97.585 171.829L105.101 171.529Z" fill="#FBBE9B"/>
<path d="M105.101 159.083C105.402 158.932 106.003 159.083 106.003 159.383V171.979C106.003 172.278 105.853 172.579 105.402 172.579C104.951 172.579 104.199 172.579 102.846 172.579C100.742 172.579 98.9379 172.579 97.8856 172.579C97.585 172.579 97.585 172.429 97.585 172.278L97.7353 163.581C97.7353 163.432 97.7353 163.282 97.8856 163.282L105.101 159.083Z" fill="#0054A3"/>
<path d="M90.5195 164.631C89.4672 160.732 96.5326 155.184 96.5326 155.184C96.5326 155.184 99.8398 153.985 100.441 150.086C101.042 146.186 104.801 144.987 106.454 143.638C108.108 142.287 109.311 138.839 109.311 138.839L109.461 137.939C109.461 137.939 112.317 125.643 121.788 128.792C121.788 128.792 126.147 130.441 127.952 133.74C127.952 133.74 134.265 134.79 132.912 139.739C131.709 144.687 128.703 141.688 128.703 141.688C128.703 141.688 127.5 139.138 126.147 140.788C124.795 142.588 121.637 143.787 120.736 141.988C119.684 140.188 117.729 139.138 117.278 141.688V142.888C117.278 142.888 112.468 148.886 112.166 150.836C111.566 152.935 110.363 155.934 107.958 157.134C105.703 158.483 103.147 163.731 101.944 166.73C100.441 169.879 91.7221 170.629 90.5195 164.631Z" fill="#1F1952"/>
<path d="M138.474 164.931L150.801 165.081L135.468 182.176L122.84 181.577L138.474 164.931Z" fill="#1C164F"/>
<path d="M139.226 177.377C139.226 177.377 140.429 179.627 139.377 180.376C138.173 180.976 137.121 181.276 136.52 180.526C136.069 179.927 135.618 177.977 136.37 178.277C136.971 178.277 137.272 178.427 137.272 178.427V177.827C137.272 177.678 137.272 177.527 137.422 177.527C138.023 177.077 139.075 176.628 139.226 177.377Z" fill="#FBBE9B"/>
<path d="M117.428 188.474L120.886 188.324V285.046L113.219 285.345L109.16 221.915L117.428 188.474Z" fill="#DE051F"/>
<path d="M100.441 188.624C100.441 188.624 100.291 191.923 100.141 193.423C99.9903 194.322 95.3301 201.82 98.938 211.117C98.938 211.267 98.938 211.417 99.0883 211.717C99.0883 213.817 99.6896 226.413 97.134 232.861L83.4541 277.547L88.7156 281.296C88.7156 281.296 106.755 242.607 107.206 240.809C107.657 239.009 119.533 201.07 117.879 190.573L117.579 188.624H100.441Z" fill="#EE384E"/>
<path d="M120.886 285.046C120.886 285.046 125.696 287.594 127.801 288.195C129.455 288.494 129.755 289.844 129.905 290.294C129.905 290.444 129.905 290.594 129.755 290.594H113.219V285.195L120.886 285.046Z" fill="#221D56"/>
<path d="M88.5654 280.847C88.5654 280.847 89.9184 284.745 92.9249 287.145C95.9315 289.394 92.9249 291.043 92.9249 291.043L80.598 283.396C80.4477 283.096 79.6961 281.746 80.598 280.546C81.5 279.197 83.4543 277.098 83.4543 277.098L88.5654 280.847Z" fill="#221D56"/>
<path d="M299.927 197.621C299.927 197.621 302.934 241.408 303.535 249.056C303.986 256.704 305.789 282.946 305.789 282.946H313.457L318.718 197.322L299.927 197.621Z" fill="#0064E1"/>
<path d="M328.941 198.072C328.941 198.072 328.039 220.115 327.738 225.663C327.287 231.362 331.797 250.406 334.052 258.953C336.307 267.501 340.366 276.498 340.366 276.498L334.052 280.247C334.052 280.247 320.823 257.154 316.314 243.208C311.653 229.412 308.196 209.018 308.796 197.172L328.941 198.072Z" fill="#0054A3"/>
<path d="M271.515 166.281H269.26C269.26 166.281 267.757 166.281 267.757 167.93C267.757 169.58 267.757 172.129 267.757 172.129C267.757 172.129 267.456 173.028 268.658 173.028C269.862 173.028 270.914 173.028 270.914 173.028C270.914 173.028 271.816 172.879 273.319 174.078C274.822 175.278 286.097 181.576 286.097 181.576C286.097 181.576 290.005 183.826 292.41 181.426C294.816 179.027 300.528 172.879 300.528 172.879L300.83 171.079L296.019 166.581L290.156 174.228C290.156 174.228 289.705 174.828 288.503 174.529C287.299 174.228 276.175 170.33 276.175 170.33C276.175 170.33 274.522 169.58 274.071 168.23C274.071 168.08 274.071 168.08 273.921 167.93C273.77 166.88 272.717 166.131 271.515 166.281Z" fill="#FFBF99"/>
<path d="M314.96 145.737C314.96 145.737 315.712 149.186 317.065 152.634C318.568 156.084 319.169 157.433 319.169 157.433C319.169 157.433 314.96 162.232 310.901 161.632C306.692 160.882 306.692 158.183 306.692 158.183C306.692 158.183 310.601 155.184 310.601 150.836C310.601 146.486 310.601 146.637 310.601 146.637L314.96 145.737Z" fill="#FFBF99"/>
<path d="M305.941 157.583C305.941 157.583 302.483 159.682 301.13 160.582C299.626 161.782 295.417 166.431 295.417 166.431L301.28 172.129L305.339 167.48L305.941 157.583Z" fill="#F59F1D"/>
<path d="M317.516 156.084C317.516 156.084 315.411 158.933 312.705 159.533C309.849 160.283 308.496 158.033 308.496 158.033L307.744 156.984C307.744 156.984 306.992 156.384 306.091 157.134C305.189 157.884 303.685 159.533 302.182 162.532C300.678 165.531 300.378 169.43 299.927 178.727C299.626 188.024 299.927 198.222 299.927 198.222H328.791L329.091 183.826C329.091 183.826 326.084 164.631 323.228 160.732C320.221 156.834 319.319 155.934 319.319 155.934C319.319 155.934 318.718 154.884 317.516 156.084Z" fill="#FCBE42"/>
<path d="M306.241 136.29C306.241 136.29 304.137 139.138 304.137 143.937C304.137 148.736 304.889 152.185 306.993 152.185C309.248 152.185 313.307 150.686 313.908 149.335C314.66 147.836 316.012 147.836 316.012 145.137C316.012 142.287 312.555 135.989 309.699 135.989C307.143 136.29 306.241 136.29 306.241 136.29Z" fill="#FFBF99"/>
<path d="M304.287 136.29C304.287 136.29 302.182 130.591 303.535 129.992C304.737 129.242 307.744 130.741 308.346 131.491C309.098 132.241 310.45 132.241 311.202 132.241C311.202 132.241 318.117 132.241 319.47 133.74C320.973 135.24 320.973 135.84 320.973 136.59C320.973 137.34 320.973 140.038 321.725 141.388C322.026 141.988 322.476 144.837 320.973 147.687C319.47 150.535 318.117 151.135 317.516 151.135C316.764 151.135 316.314 151.135 316.012 150.385C316.012 149.636 315.712 148.586 315.26 147.537C314.96 146.637 314.509 144.687 314.509 144.687C314.509 144.687 313.757 141.238 312.405 139.888C311.202 138.389 310.901 138.389 308.196 137.789C305.64 137.039 305.039 138.389 304.287 136.29Z" fill="#1A1155"/>
<path d="M313.757 141.538C312.705 142.738 314.058 144.837 314.058 144.837C314.058 144.837 316.162 145.587 316.162 143.337C316.012 141.238 314.809 140.038 313.757 141.538Z" fill="#EEBD98"/>
<path d="M327.738 170.929C327.738 170.929 330.143 180.827 329.993 187.274C329.541 193.572 327.738 198.971 326.385 202.87C324.882 206.469 324.13 207.669 324.13 209.918C324.13 212.317 322.927 215.166 321.725 216.366C320.221 217.866 319.319 218.615 319.319 218.615C319.319 218.615 317.516 219.365 317.816 217.866C317.816 217.866 316.614 217.866 317.064 217.116C317.064 217.116 315.561 217.116 316.614 215.916C317.816 214.717 319.62 213.667 319.62 213.667C319.62 213.667 320.823 211.867 319.169 212.767C317.516 213.667 316.162 213.667 317.516 212.167C319.019 210.668 320.522 208.118 322.175 203.47C323.378 198.671 325.032 189.524 323.228 182.176C321.424 175.128 319.169 172.729 319.169 172.729L327.738 170.929Z" fill="#FFBF99"/>
<path d="M333.751 279.947C333.751 279.947 332.248 283.845 330.895 285.795C329.391 287.594 328.039 288.794 328.039 288.794C328.039 288.794 326.234 291.643 328.339 290.893C330.444 289.993 341.568 282.646 341.568 282.646C341.568 282.646 343.221 281.746 342.47 280.397C341.718 279.197 340.064 276.348 340.064 276.348L333.751 279.947Z" fill="#1A1155"/>
<path d="M313.156 288.045C313.156 288.045 313.607 289.244 311.051 289.244C308.796 289.244 295.869 289.244 295.869 289.244C295.869 289.244 293.463 288.644 295.718 287.594C297.973 286.395 305.039 283.396 305.039 283.396C305.039 283.396 305.64 283.246 305.64 281.897H313.307L313.156 288.045Z" fill="#1A1155"/>
<path d="M316.764 164.182C316.764 164.182 316.162 159.383 319.62 158.933C323.077 158.483 325.332 162.982 326.535 165.831C327.738 168.83 328.339 171.079 328.339 171.079C328.339 171.079 320.973 174.078 319.019 174.078C318.868 174.078 317.214 169.28 316.764 164.182Z" fill="#F59F1D"/>
</svg>
