<svg width="506" height="417" viewBox="0 0 506 417" fill="none" xmlns="http://www.w3.org/2000/svg">
<g clip-path="url(#clip0_2928_17945)">
<path d="M303.71 258.67C303.71 258.67 284.57 252.184 284.35 263.507C284.13 274.72 279.51 275.819 274.78 276.588C269.94 277.468 260.81 275.379 261.25 287.142C261.69 299.014 266.42 304.95 262.68 310.007C258.94 315.064 250.58 340.458 261.25 341.007C271.92 341.667 280.61 329.135 282.92 322.869C285.23 316.603 293.48 313.745 300.41 313.085C307.23 312.426 314.82 306.489 309.54 298.794C304.37 291.209 305.91 281.206 311.3 277.468C316.58 273.84 316.58 263.177 303.71 258.67Z" stroke="#023EA1" stroke-miterlimit="10"/>
<path d="M298.1 271.422L260.59 350.461" stroke="#023EA1" stroke-miterlimit="10"/>
<path d="M272.8 285.493L282.81 303.521L302.61 301.323" stroke="#023EA1" stroke-miterlimit="10"/>
<path d="M281.49 340.897C281.49 340.897 302.83 305.72 325.93 288.791" stroke="#DE051F" stroke-miterlimit="10"/>
<path d="M341.88 280.546C341.88 280.546 336.82 292.198 323.62 290.659C323.62 290.549 326.37 279.776 341.88 280.546Z" stroke="#DE051F" stroke-miterlimit="10"/>
<path d="M306.57 307.149C306.57 307.149 315.7 299.783 327.25 307.698C327.25 307.698 321.2 316.603 306.57 307.149Z" stroke="#DE051F" stroke-miterlimit="10"/>
<path d="M289.631 328.805C289.631 328.805 297.111 319.791 310.091 325.287C310.091 325.287 305.911 335.181 289.631 328.805Z" stroke="#DE051F" stroke-miterlimit="10"/>
<path d="M289.19 328.585C289.19 328.585 296.12 319.131 287.65 307.918C287.65 307.918 279.07 314.404 289.19 328.585Z" stroke="#DE051F" stroke-miterlimit="10"/>
<path d="M306.679 307.149C306.679 307.149 314.709 298.684 307.889 286.482C307.889 286.372 298.539 291.649 306.679 307.149Z" stroke="#DE051F" stroke-miterlimit="10"/>
<path d="M181.06 277.578C186.45 281.315 187.99 291.319 182.82 298.904C177.54 306.489 185.13 312.535 191.95 313.195C198.77 313.855 207.13 316.713 209.44 322.979C211.75 329.245 220.44 341.667 231.11 341.117C241.78 340.458 233.42 315.174 229.68 310.117C225.94 305.06 230.67 299.124 231.11 287.252C231.55 275.379 222.42 277.468 217.58 276.698C212.74 275.819 208.23 274.829 208.01 263.617C207.79 252.404 188.65 258.78 188.65 258.78C175.78 263.177 175.78 273.84 181.06 277.578Z" stroke="#DE051F" stroke-miterlimit="10"/>
<path d="M231.771 350.461L194.261 271.422" stroke="#DE051F" stroke-miterlimit="10"/>
<path d="M189.641 301.323L209.551 303.521L219.451 285.493" stroke="#DE051F" stroke-miterlimit="10"/>
<path d="M166.32 288.791C189.42 305.72 210.76 340.898 210.76 340.898" stroke="#FCBE42" stroke-miterlimit="10"/>
<path d="M168.739 290.55C155.539 292.089 150.479 280.436 150.479 280.436C165.989 279.776 168.739 290.55 168.739 290.55Z" fill="#FCBE42"/>
<path d="M164.999 307.699C176.659 299.784 185.679 307.149 185.679 307.149C171.159 316.603 164.999 307.699 164.999 307.699Z" fill="#FCBE42"/>
<path d="M182.27 325.288C195.25 319.791 202.73 328.805 202.73 328.805C186.45 335.181 182.27 325.288 182.27 325.288Z" fill="#FCBE42"/>
<path d="M204.6 307.918C196.24 319.131 203.06 328.585 203.06 328.585C213.29 314.404 204.6 307.918 204.6 307.918Z" fill="#FCBE42"/>
<path d="M184.469 286.372C177.539 298.574 185.679 307.039 185.679 307.039C193.819 291.649 184.469 286.372 184.469 286.372Z" fill="#FCBE42"/>
<path d="M328.46 364.642C372.505 364.642 408.21 328.96 408.21 284.943C408.21 240.926 372.505 205.244 328.46 205.244C284.415 205.244 248.71 240.926 248.71 284.943C248.71 328.96 284.415 364.642 328.46 364.642Z" stroke="#003EB0" stroke-miterlimit="10" stroke-dasharray="6 6"/>
<path d="M158.619 345.844C202.664 345.844 238.369 310.162 238.369 266.145C238.369 222.128 202.664 186.446 158.619 186.446C114.574 186.446 78.8691 222.128 78.8691 266.145C78.8691 310.162 114.574 345.844 158.619 345.844Z" stroke="#003EB0" stroke-miterlimit="10" stroke-dasharray="6 6"/>
<path d="M258.28 249.876C315.69 249.876 362.23 203.365 362.23 145.992C362.23 88.6181 315.69 42.1077 258.28 42.1077C200.87 42.1077 154.33 88.6181 154.33 145.992C154.33 203.365 200.87 249.876 258.28 249.876Z" stroke="#003EB0" stroke-miterlimit="10" stroke-dasharray="6 6"/>
<path d="M311.851 182.489H354.861C358.711 182.489 361.901 185.676 361.901 189.524V201.396C361.901 205.244 358.711 208.432 354.861 208.432H304.811V189.524C304.811 185.567 307.891 182.489 311.851 182.489Z" fill="#B0E6FF"/>
<path d="M317.02 203.485C321.212 203.485 324.61 200.089 324.61 195.9C324.61 191.71 321.212 188.314 317.02 188.314C312.828 188.314 309.43 191.71 309.43 195.9C309.43 200.089 312.828 203.485 317.02 203.485Z" fill="#0064B7"/>
<mask id="mask0_2928_17945" style="mask-type:luminance" maskUnits="userSpaceOnUse" x="309" y="188" width="16" height="16">
<path d="M317.02 203.485C321.212 203.485 324.61 200.089 324.61 195.9C324.61 191.71 321.212 188.314 317.02 188.314C312.828 188.314 309.43 191.71 309.43 195.9C309.43 200.089 312.828 203.485 317.02 203.485Z" fill="white"/>
</mask>
<g mask="url(#mask0_2928_17945)">
<path d="M314.93 193.261C315.04 193.151 315.15 193.151 315.37 193.041H315.48H315.59H315.7H315.81C315.81 193.041 315.81 193.041 315.92 193.041H316.03C316.03 193.041 316.03 193.041 316.14 193.041H316.25H316.36C316.36 193.041 316.36 193.041 316.47 193.041H316.58H316.69C316.8 193.041 316.91 193.041 317.02 193.041C318.89 193.151 319.22 194.361 319.22 195.57C319.44 195.57 319.66 195.68 319.66 196.01C319.77 196.669 319.55 196.559 319.11 197.329C319 197.439 318.89 197.549 318.89 197.549C318.67 197.988 318.34 198.318 317.57 198.868L317.68 200.627C318.23 200.407 318.34 200.517 318.56 200.627C319.55 201.066 320.76 201.066 320.21 201.176C319.44 201.286 320.32 201.616 320.87 201.066C321.97 200.077 320.98 198.648 320.98 198.648C320.87 199.747 319.55 199.747 319.66 198.758C319.77 197.768 321.75 195.68 320.98 193.041C320.21 190.403 315.92 190.183 314.93 191.502C313.83 192.712 314.93 193.261 314.93 193.261Z" fill="#772635"/>
<path d="M315.921 198.428C315.921 198.428 315.921 199.307 315.481 199.747C315.041 200.187 314.601 200.736 314.601 200.736C314.601 200.736 315.481 202.166 317.351 201.946C319.221 201.726 319.551 200.407 319.551 200.407C319.551 200.407 317.791 200.187 317.571 198.538C317.351 196.889 317.131 196.889 317.131 196.889L315.921 198.428Z" fill="#FFB07E"/>
<path d="M314.821 200.077C314.821 200.077 313.611 199.967 312.841 200.077C312.181 200.297 311.961 200.187 312.181 200.626C312.401 201.176 313.281 203.485 312.841 205.024C312.401 206.563 311.851 214.148 311.851 214.148C311.851 214.148 316.471 214.368 318.341 214.368C320.101 214.478 321.531 214.148 321.531 214.148C321.531 214.148 321.971 210.85 321.531 209.421C321.091 207.992 320.651 205.573 320.651 205.573C320.651 205.573 320.321 202.165 320.761 201.396C321.201 200.626 321.531 200.517 320.981 200.297C320.431 200.077 319.771 199.857 319.331 199.857C318.891 199.857 318.671 199.857 318.341 200.077C318.121 200.297 317.461 200.956 316.801 200.736C316.141 200.517 315.481 200.077 315.481 200.077C315.481 200.077 315.041 200.077 314.821 200.077Z" fill="#3E4753"/>
<path d="M312.51 200.297C312.51 200.297 312.07 200.077 311.41 200.627C310.75 201.176 310.2 202.495 309.98 203.265C309.76 204.034 309.54 204.804 309.54 204.804C309.54 204.804 310.42 205.244 311.3 205.244C312.18 205.244 312.84 205.354 312.84 205.354C312.84 205.354 313.28 202.935 313.17 201.946C313.17 200.956 313.06 200.627 312.51 200.297Z" fill="#9DCAD1"/>
<path d="M320.211 201.176C320.211 201.176 320.541 200.187 321.421 200.627C322.301 201.067 322.851 202.825 323.071 203.375C323.291 203.925 323.511 205.024 323.511 205.024C323.511 205.024 322.521 205.464 321.751 205.464C320.871 205.574 320.321 205.574 320.321 205.574C320.321 205.574 319.991 203.375 320.101 202.496C320.101 201.726 320.211 201.176 320.211 201.176Z" fill="#9DCAD1"/>
<path d="M314.381 195.46H314.491L314.711 197.109C314.711 197.109 314.271 197.549 314.051 197.109C313.611 196.339 313.501 196.449 313.501 195.79C313.501 195.35 314.161 195.35 314.161 195.35L314.381 195.46Z" fill="#FFB07E"/>
<path d="M318.78 195.46H318.67L318.45 197.109C318.45 197.109 318.89 197.549 319.11 197.109C319.55 196.23 319.66 196.449 319.66 195.79C319.66 195.35 319 195.35 319 195.35L318.78 195.46Z" fill="#FFB07E"/>
<path d="M316.58 192.822C314.05 192.822 313.94 194.691 314.05 196.12C314.16 197.659 315.26 198.978 316.58 198.978C317.68 198.978 319 197.659 319.11 196.12C319.22 194.691 319.11 192.822 316.58 192.822Z" fill="#FDCBA7"/>
<path d="M314.821 192.931C314.821 192.931 314.491 191.942 316.361 191.832C318.231 191.722 319.001 192.602 318.781 193.151L314.821 192.931Z" fill="#EE2A7B"/>
<path d="M317.791 194.361C317.791 194.361 316.031 196.229 313.941 196.449C313.941 196.449 313.061 193.371 315.151 192.382C317.241 191.392 318.561 192.822 318.561 192.822C318.561 192.822 320.321 193.261 319.331 196.229C319.331 196.229 317.791 195.13 317.791 194.361Z" fill="#772635"/>
</g>
<path d="M354.42 191.612H329.45C328.57 191.612 327.8 190.843 327.8 189.963C327.8 189.084 328.57 188.314 329.45 188.314H354.42C355.3 188.314 356.07 189.084 356.07 189.963C356.07 190.953 355.3 191.612 354.42 191.612Z" fill="#0073D3"/>
<path d="M354.42 196.889H329.45C328.57 196.889 327.8 196.12 327.8 195.24C327.8 194.361 328.57 193.591 329.45 193.591H354.42C355.3 193.591 356.07 194.361 356.07 195.24C356.07 196.23 355.3 196.889 354.42 196.889Z" fill="#0073D3"/>
<path d="M354.42 202.166H329.45C328.57 202.166 327.8 201.396 327.8 200.517C327.8 199.637 328.57 198.868 329.45 198.868H354.42C355.3 198.868 356.07 199.637 356.07 200.517C356.07 201.506 355.3 202.166 354.42 202.166Z" fill="#0073D3"/>
<path d="M341.549 88.8277C347.017 88.8277 351.449 84.3981 351.449 78.934C351.449 73.4698 347.017 69.0403 341.549 69.0403C336.082 69.0403 331.649 73.4698 331.649 78.934C331.649 84.3981 336.082 88.8277 341.549 88.8277Z" fill="#003EB0"/>
<path d="M338.03 76.9556L341.99 82.8918L344.96 77.9449" stroke="white" stroke-width="2" stroke-miterlimit="10"/>
<path d="M155.541 131.261C161.008 131.261 165.441 126.831 165.441 121.367C165.441 115.903 161.008 111.473 155.541 111.473C150.073 111.473 145.641 115.903 145.641 121.367C145.641 126.831 150.073 131.261 155.541 131.261Z" fill="#FCBE42"/>
<path d="M153.011 117.41L159.501 121.807L153.011 125.325V117.41Z" fill="white"/>
<path d="M348.907 103.629L348.44 104.095L348.907 104.562L349.374 104.095L348.907 103.629Z" fill="#003EB0"/>
<path d="M449.144 212.769L431.98 223.558L451.596 216.154L449.144 212.769Z" fill="#FFBF99"/>
<path d="M457.455 239.25C457.455 239.25 476.453 240.321 468.115 241.295C459.883 242.366 448.484 242.366 444.474 241.879C440.463 241.49 454.289 239.445 457.455 239.25Z" fill="#023EA1"/>
<path d="M453.557 218.604L448.268 216.692L413.251 229.652C413.251 229.652 408.808 232.095 408.491 237.3C408.173 242.505 406.48 288.289 406.48 288.289H413.04L417.483 251.428L419.281 237.513L427.321 232.945L447.845 222.429L453.557 218.604Z" fill="#0064E1"/>
<path d="M468.033 219.073C469.208 223.272 471.024 235.438 465.149 238.345C464.936 238.453 464.615 238.56 464.402 238.56L432.039 243.728C431.932 243.728 431.719 243.728 431.612 243.728C431.078 243.728 429.369 243.944 430.116 246.097C430.864 248.358 440.477 274.844 443.254 282.488C443.681 283.672 445.39 287.225 444.322 287.979L441.118 291.101C439.729 292.07 437.379 287.333 436.525 285.826L415.27 247.497C415.163 247.389 415.163 247.281 415.057 247.066C414.523 245.774 412.386 238.883 419.329 235.33C426.271 231.885 447.099 221.118 451.157 218.965C451.585 218.75 453.507 217.673 453.934 217.673L465.47 219.396C466.538 219.611 467.713 217.888 468.033 219.073Z" fill="#003EB0"/>
<path d="M393.86 215.186C393.86 214.87 393.537 212.977 394.829 212.977H401.934C402.149 212.977 402.365 212.766 402.365 212.556V207.612C402.365 207.296 402.149 207.086 401.826 207.086L388.047 206.981H387.939C387.616 206.981 386.324 206.56 385.786 204.246L382.987 185.416C382.879 184.995 382.987 184.575 383.095 184.259C383.31 183.523 384.064 182.471 386.109 182.471C389.123 182.471 411.3 182.365 416.145 182.365C417.221 182.365 418.19 182.891 418.728 183.838C419.051 184.469 419.374 185.311 419.589 186.573C420.128 190.15 421.85 201.931 422.173 204.035C422.173 204.246 422.173 204.561 422.173 204.772C421.958 205.613 421.312 207.296 419.374 207.296C417.113 207.401 408.178 207.086 405.81 206.981C405.487 206.981 405.271 207.191 405.271 207.507V212.661C405.271 212.977 405.487 213.187 405.81 213.187L413.453 213.292H413.561C413.776 213.397 414.422 213.608 414.422 214.344C414.422 215.817 414.314 215.501 414.314 215.501L394.183 215.712C394.075 215.606 393.86 215.396 393.86 215.186Z" fill="#0064B7"/>
<path d="M464.547 171.94C464.547 171.94 469.967 169.629 472.351 176.666C472.351 176.666 473.977 181.498 475.061 182.863C476.253 184.228 479.288 185.173 479.288 185.173C479.288 185.173 482.106 186.539 481.997 190.635C481.889 194.731 481.455 198.407 479.938 200.928C478.746 202.818 479.396 204.078 479.83 204.604C480.046 204.814 480.046 205.129 480.046 205.444C479.938 206.284 479.505 207.544 477.445 207.544C474.41 207.649 470.4 208.805 471.051 205.969C471.701 203.028 472.785 188.744 472.785 188.744L470.509 183.073L467.04 180.867L465.415 179.712C465.415 179.712 461.404 174.671 461.404 173.515C461.404 172.36 464.547 171.94 464.547 171.94Z" fill="#170856"/>
<path d="M461.005 171.769L456.789 169.678L456.684 163.089L454.786 160.789L451.202 161.834L446.459 161.73H442.77C442.77 161.73 443.191 171.874 446.881 175.848C446.881 175.848 451.202 176.789 452.889 175.639C452.889 175.639 454.786 173.965 454.786 176.894C454.786 179.822 455.102 183.273 455.102 183.273C455.102 183.273 456.473 185.574 461.532 183.377C461.532 183.377 464.273 181.913 465.327 179.717" fill="#FFBF99"/>
<path d="M445.428 153.715C445.428 153.715 455.421 145.357 461.588 153.715C467.754 162.072 466.691 168.287 464.99 170.109C464.99 170.109 459.674 175.895 455.528 169.68C455.528 169.68 454.677 168.608 455.209 166.573C455.209 166.573 456.804 161.965 452.87 163.037C448.936 164.108 445.534 164.108 444.152 162.501C442.663 160.894 442.132 162.608 442.132 163.144C442.238 163.68 441.494 167.108 439.58 164.001C437.56 160.894 440.112 155.429 442.345 153.929C442.238 153.929 444.152 152.857 445.428 153.715Z" fill="#170856"/>
<path d="M464.854 169.615C464.854 169.615 465.427 171.359 465.312 171.686C465.312 171.686 462.905 173.43 462.217 173.539C462.217 173.539 461.3 172.122 461.414 171.577C461.414 171.468 464.624 169.615 464.854 169.615Z" fill="#EA4E59"/>
<path d="M465.014 179.47C465.121 179.364 465.227 179.47 465.227 179.47C466.186 179.364 472.367 179.044 473.113 187.358C473.752 195.246 469.17 215.819 467.998 220.615L446.047 217.311C446.473 215.286 447.006 210.702 447.006 209.743C447.006 209.743 447.965 200.896 448.178 198.337C448.178 197.911 448.072 197.591 447.752 197.272C446.793 196.206 444.449 193.114 446.58 189.81C446.58 189.81 451.162 182.135 454.465 180.536C454.572 180.43 457.982 186.399 465.014 179.47Z" fill="#FCBE42"/>
<path d="M461.451 199.256C461.663 198.309 462.721 197.784 463.674 198.204L467.167 199.782C467.59 199.992 468.014 200.413 468.12 200.834L468.225 201.465C468.331 201.781 468.225 202.201 468.12 202.517L464.415 210.09C464.309 210.301 464.203 210.511 464.203 210.827C463.991 211.563 463.25 213.456 459.757 212.51L438.164 207.145C438.058 207.145 433.506 205.462 433.4 205.462C432.871 205.252 432.448 205.462 432.342 206.935C432.236 207.566 430.648 205.673 431.072 204.41C431.072 204.41 432.236 201.781 438.269 203.253L454.888 206.619H454.994C455.417 206.724 458.17 207.461 458.805 205.252L461.345 199.467C461.345 199.361 461.451 199.361 461.451 199.256Z" fill="#FFBF99"/>
<path d="M472.104 182.946C472.56 183.258 472.787 183.778 472.901 184.194C473.243 185.235 473.243 186.587 473.015 187.731C472.56 189.707 470.055 199.901 468.803 201.981C468.803 201.981 464.819 199.38 461.404 199.276C461.404 199.276 463.339 192.204 465.161 187.419C465.275 187.315 468.12 180.346 472.104 182.946Z" fill="#F79F03"/>
<path d="M413.131 288.289L413.343 294.254C413.343 294.254 413.556 295.154 410.053 295.154C406.55 295.154 397.529 295.154 397.529 295.154C397.529 295.154 395.406 294.141 397.847 293.353C397.847 293.353 403.366 291.552 406.444 288.289H413.131Z" fill="#170856"/>
<path d="M437.758 212.666L429.086 212.769V209.035C429.086 209.035 428.657 207.998 430.37 207.895C432.083 207.791 436.58 207.998 436.58 207.998C436.58 207.998 437.865 208.102 437.865 209.554C437.758 210.902 437.758 212.666 437.758 212.666Z" fill="#EA4E59"/>
<path d="M436.289 211.816C436.289 211.816 439.45 211.476 439.766 213.18C440.082 215.112 439.134 215.566 437.659 215.68C436.183 215.793 426.806 215.566 426.806 215.566C426.806 215.566 425.014 215.339 425.12 213.862C425.225 212.385 425.541 211.816 427.227 211.816C428.913 211.93 436.289 211.816 436.289 211.816Z" fill="#000036"/>
<path d="M414.819 215.908L439.113 216.006C439.22 216.006 439.327 216.006 439.434 216.006C440.076 216.006 441.788 216.398 441.788 217.673C441.788 219.144 440.611 219.635 438.471 219.635H382.606C381.964 219.635 381.322 219.438 380.787 218.948C380.145 218.458 379.396 216.888 380.787 216.006C381.215 215.81 381.643 215.711 382.071 215.711L414.819 215.908Z" fill="#023EA1"/>
<path d="M399.735 219.635L384.013 233.543C384.013 233.543 381.164 236.091 381.059 241.931C380.953 247.77 380.004 295.442 380.004 295.442C380.004 295.442 379.687 298.096 384.857 298.096H418.728C418.728 298.096 420.1 298.096 420.205 296.503C420.311 294.911 419.045 295.017 417.99 295.017L383.38 295.123L383.697 242.674C383.697 242.674 382.747 238.215 389.184 233.012L403.428 219.741L399.735 219.635Z" fill="#023EA1"/>
<path d="M455.755 242.192L455.861 291.406C455.861 291.406 463.502 291.618 464.882 293.425C466.261 295.232 464.669 296.401 456.816 296.082C448.963 295.87 444.293 295.87 444.293 295.87C444.293 295.87 440.473 295.445 444.93 293.212C449.387 290.98 452.996 291.618 452.996 291.618L453.42 242.192H455.755Z" fill="#023EA1"/>
<path d="M444.079 284.365C444.079 284.365 448.446 288.395 445.89 290.255L434.386 299.038C434.386 299.038 432.682 299.451 433.002 297.591L438.114 288.085L444.079 284.365Z" fill="#180756"/>
<path d="M67.5405 325.507C67.5405 325.507 71.3905 323.968 71.1705 319.461C70.8405 314.954 68.5305 311.766 73.3705 313.085C78.1005 314.405 79.7505 314.954 83.1605 314.295C86.5705 313.525 89.5405 312.096 88.0005 316.603C86.4605 321.11 84.8105 324.848 88.4405 325.507C91.9605 326.277 95.8105 323.529 96.2505 330.564C96.6905 337.6 91.0805 345.405 81.9505 345.735C72.8205 346.064 68.7505 342.217 68.7505 342.217C68.7505 342.217 66.3305 338.809 70.0705 337.93C73.9205 337.05 77.7705 335.511 75.9005 333.642C74.0305 331.773 67.6505 331.664 67.6505 331.664C67.6505 331.664 59.6205 330.125 67.5405 325.507Z" fill="#649EEA"/>
<path d="M109.34 326.607C108.68 322.21 109.23 318.912 117.48 317.703C125.84 316.493 130.57 321.44 131.12 326.607C131.67 331.664 124.41 333.642 124.41 333.642C124.41 333.642 119.24 335.071 121.88 339.579C124.52 344.086 125.62 348.373 119.79 349.033C113.96 349.692 107.47 348.153 103.84 345.735C100.21 343.316 96.5802 337.27 100.65 334.082C100.65 334.082 101.86 333.313 105.82 333.093C109.78 332.763 109.34 326.607 109.34 326.607Z" fill="#023EA1"/>
<path d="M80.0801 325.837C80.0801 325.837 87.0101 341.447 87.8901 352" stroke="#83DAFF" stroke-miterlimit="10" stroke-linecap="round" stroke-linejoin="round"/>
<path d="M118.47 328.476C118.47 328.476 106.26 346.614 103.4 352.66" stroke="#579FD5" stroke-miterlimit="10" stroke-linecap="round" stroke-linejoin="round"/>
<path d="M83.7105 350.901H111.76C111.76 350.901 114.84 351.121 114.62 355.298C114.4 359.146 109.45 358.376 106.92 358.376C104.39 358.376 83.1605 358.376 83.1605 358.376C83.1605 358.376 79.7505 358.926 79.7505 355.078C79.6405 351.121 80.9605 350.901 83.7105 350.901Z" fill="#0054A5"/>
<path d="M83.1611 358.266L87.3411 383.001H106.151L109.341 364.422L83.1611 358.266Z" fill="#0054A5"/>
<path d="M83.1611 358.266L109.341 364.422L110.441 358.266H83.1611Z" fill="#006AD5"/>
<path d="M95.1514 351.781C95.1514 351.781 96.5814 324.298 104.721 307.149L95.1514 351.781Z" fill="#FCBE42"/>
<path d="M111.541 297.255C111.541 297.255 112.201 305.72 103.951 309.018C103.951 308.908 102.191 301.763 111.541 297.255Z" fill="#FCBE42"/>
<path d="M99.2207 324.078C99.2207 324.078 102.301 316.933 111.541 317.812C111.541 317.812 110.881 324.958 99.2207 324.078Z" fill="#FCBE42"/>
<path d="M96.1416 342.107C96.1416 342.107 97.6816 334.412 107.032 333.532C107.032 333.532 107.692 340.788 96.1416 342.107Z" fill="#FCBE42"/>
<path d="M95.8112 342.107C95.8112 342.107 96.9112 334.412 88.4412 330.454C88.4412 330.454 85.3612 337.05 95.8112 342.107Z" fill="#FCBE42"/>
<path d="M99.3312 323.968C99.3312 323.968 101.421 316.493 93.5012 311.436C93.3912 311.436 89.5412 317.482 99.3312 323.968Z" fill="#FCBE42"/>
<path d="M113.079 82.2321C112.969 82.1222 112.859 82.1222 112.749 82.1222L110.329 82.452C109.999 82.452 109.779 82.2321 109.669 82.0122C109.449 80.9129 109.009 79.9236 108.349 78.9342C108.129 78.7144 108.239 78.2746 108.459 78.1647L110.219 76.8455C110.329 76.7356 110.439 76.6257 110.439 76.5157C110.439 76.4058 110.439 76.2959 110.329 76.186L107.689 73.5476C107.579 73.4377 107.469 73.4377 107.359 73.4377C107.249 73.4377 107.139 73.5476 107.029 73.6576L105.709 75.4164C105.489 75.6363 105.159 75.7462 104.939 75.5264C103.949 74.9767 102.959 74.537 101.859 74.2072C101.529 74.0973 101.309 73.8774 101.419 73.5476L101.749 71.1292C101.749 71.0192 101.749 70.9093 101.639 70.7994C101.529 70.6895 101.419 70.6895 101.309 70.6895H97.5694C97.4594 70.6895 97.3495 70.7994 97.2395 70.7994C97.1295 70.9093 97.1295 71.0192 97.1295 71.1292L97.4594 73.5476C97.4594 73.8774 97.2394 74.0973 97.0194 74.2072C95.9194 74.4271 94.9295 74.8668 93.9395 75.5264C93.7195 75.7462 93.2794 75.6363 93.1694 75.4164L91.8495 73.6576C91.7395 73.5476 91.6294 73.4377 91.5194 73.4377C91.4094 73.4377 91.2995 73.4377 91.1895 73.5476L88.5495 76.186C88.4395 76.2959 88.4395 76.4058 88.4395 76.5157C88.4395 76.6257 88.5494 76.7356 88.6594 76.8455L90.4194 78.1647C90.6394 78.3846 90.7495 78.7144 90.5295 78.9342C89.9795 79.9236 89.5394 80.9129 89.2094 82.0122C89.0994 82.342 88.8795 82.5619 88.5495 82.452L86.1295 82.1222C86.0195 82.1222 85.9095 82.1222 85.7995 82.2321C85.6895 82.342 85.6895 82.452 85.6895 82.5619V86.2995C85.6895 86.4095 85.7995 86.5194 85.7995 86.6293C85.9095 86.7392 86.0195 86.7392 86.1295 86.7392L88.5495 86.4095C88.8795 86.4095 89.0994 86.6293 89.2094 86.8492C89.4294 87.9485 89.8695 88.9378 90.5295 89.9272C90.7495 90.1471 90.6394 90.5868 90.4194 90.6967L88.6594 92.0159C88.5494 92.1258 88.4395 92.2358 88.4395 92.3457C88.4395 92.4556 88.4395 92.5655 88.5495 92.6755L91.1895 95.3138C91.2995 95.4237 91.4094 95.4237 91.5194 95.4237C91.6294 95.4237 91.7395 95.3138 91.8495 95.2039L93.1694 93.445C93.3894 93.2251 93.7195 93.1152 93.9395 93.3351C94.9295 93.8847 95.9194 94.3244 97.0194 94.6542C97.3494 94.7641 97.5695 94.984 97.4594 95.3138L97.1295 97.7323C97.1295 97.8422 97.1295 97.9521 97.2395 98.062C97.3495 98.172 97.4594 98.172 97.5694 98.172H101.309C101.419 98.172 101.529 98.062 101.639 98.062C101.749 97.9521 101.749 97.8422 101.749 97.7323L101.419 95.3138C101.419 94.984 101.639 94.7641 101.859 94.6542C102.959 94.4343 103.949 93.9946 104.939 93.3351C105.159 93.1152 105.599 93.2251 105.709 93.445L107.029 95.2039C107.139 95.3138 107.249 95.4237 107.359 95.4237C107.469 95.4237 107.579 95.4237 107.689 95.3138L110.329 92.6755C110.439 92.5655 110.439 92.4556 110.439 92.3457C110.439 92.2358 110.329 92.1258 110.219 92.0159L108.459 90.6967C108.239 90.4769 108.129 90.1471 108.349 89.9272C108.899 88.9378 109.339 87.9485 109.669 86.8492C109.779 86.5194 109.999 86.2995 110.329 86.4095L112.749 86.7392C112.859 86.7392 112.969 86.7392 113.079 86.6293C113.189 86.5194 113.189 86.4095 113.189 86.2995V82.5619C113.189 82.452 113.189 82.2321 113.079 82.2321ZM112.309 85.7499L110.439 85.53C109.669 85.4201 108.899 85.9697 108.789 86.7392C108.569 87.7286 108.129 88.718 107.579 89.5974C107.139 90.257 107.359 91.1364 107.909 91.5762L109.229 92.5655L107.359 94.4344L106.369 93.1152C105.929 92.4556 105.049 92.3457 104.389 92.7854C103.509 93.3351 102.519 93.6648 101.529 93.9946C100.759 94.2145 100.209 94.8741 100.319 95.6436L100.539 97.5124H97.8995L98.1194 95.6436C98.2294 94.8741 97.6795 94.1046 96.9094 93.9946C95.9194 93.7748 94.9295 93.3351 94.0495 92.7854C93.3895 92.3457 92.5094 92.5655 92.0694 93.1152L91.0795 94.4344L89.2094 92.5655L90.5295 91.5762C91.1895 91.1364 91.2994 90.257 90.8594 89.5974C90.3094 88.718 89.9795 87.7286 89.6495 86.7392C89.4295 85.9697 88.7695 85.4201 87.9995 85.53L86.1295 85.7499V83.1115L87.9995 83.3314C88.7695 83.4413 89.5395 82.8917 89.6495 82.1222C89.8695 81.1328 90.3094 80.1434 90.8594 79.264C91.2994 78.6044 91.0795 77.725 90.5295 77.2853L89.2094 76.2959L91.0795 74.4271L92.0694 75.7462C92.5094 76.4058 93.3895 76.5157 94.0495 76.076C94.9295 75.5264 95.9194 75.1966 96.9094 74.8668C97.6795 74.6469 98.2294 73.9874 98.1194 73.2178L97.8995 71.349H100.539L100.319 73.2178C100.209 73.9874 100.759 74.7569 101.529 74.8668C102.519 75.0867 103.509 75.5264 104.389 76.076C105.049 76.5157 105.929 76.2959 106.369 75.7462L107.359 74.4271L109.229 76.2959L107.909 77.2853C107.249 77.725 107.139 78.6044 107.579 79.264C108.129 80.1434 108.459 81.1328 108.789 82.1222C109.009 82.8917 109.669 83.4413 110.439 83.3314L112.309 83.1115V85.7499Z" fill="#003EB0"/>
<path d="M99.2205 77.835C95.5905 77.835 92.7305 80.8031 92.7305 84.3208C92.7305 87.9485 95.7005 90.8067 99.2205 90.8067C102.74 90.8067 105.71 87.8386 105.71 84.3208C105.82 80.8031 102.85 77.835 99.2205 77.835ZM99.2205 90.0372C96.1405 90.0372 93.6105 87.5088 93.6105 84.4308C93.6105 81.3527 96.1405 78.8243 99.2205 78.8243C102.3 78.8243 104.83 81.3527 104.83 84.4308C104.83 87.5088 102.3 90.0372 99.2205 90.0372Z" fill="#003EB0"/>
<path d="M265.42 156.333C265.31 156.223 265.2 156.223 265.09 156.223L263 156.443C262.78 156.443 262.45 156.333 262.45 156.004C262.23 155.014 261.9 154.135 261.35 153.365C261.24 153.145 261.24 152.816 261.46 152.706L263 151.497C263.11 151.387 263.11 151.277 263.11 151.167C263.11 151.057 263.11 150.947 263 150.837L260.69 148.528C260.58 148.418 260.47 148.418 260.36 148.418C260.25 148.418 260.14 148.528 260.03 148.528L258.82 150.067C258.71 150.287 258.38 150.287 258.16 150.177C257.28 149.738 256.4 149.298 255.52 149.078C255.3 148.968 255.08 148.748 255.08 148.528L255.3 146.44C255.3 146.33 255.3 146.22 255.19 146.11C255.08 146 254.97 146 254.86 146H251.67C251.56 146 251.45 146 251.34 146.11C251.23 146.22 251.23 146.33 251.23 146.44L251.45 148.528C251.45 148.748 251.34 149.078 251.01 149.078C250.02 149.298 249.14 149.628 248.37 150.177C248.15 150.287 247.82 150.287 247.71 150.067L246.5 148.528C246.39 148.418 246.28 148.418 246.17 148.418C246.06 148.418 245.95 148.418 245.84 148.528L243.53 150.837C243.42 150.947 243.42 151.057 243.42 151.167C243.42 151.277 243.53 151.387 243.53 151.497L245.07 152.706C245.29 152.816 245.29 153.145 245.18 153.365C244.74 154.245 244.3 155.124 244.08 156.004C243.97 156.223 243.75 156.443 243.53 156.443L241.44 156.223C241.33 156.223 241.22 156.223 241.11 156.333C241 156.443 241 156.553 241 156.663V159.851C241 159.961 241 160.071 241.11 160.181C241.22 160.291 241.33 160.291 241.44 160.291L243.53 160.071C243.75 160.071 244.08 160.181 244.08 160.511C244.3 161.5 244.63 162.38 245.18 163.149C245.29 163.369 245.29 163.699 245.07 163.809L243.53 165.018C243.42 165.128 243.42 165.238 243.42 165.348C243.42 165.458 243.42 165.568 243.53 165.677L245.84 167.986C245.95 168.096 246.06 168.096 246.17 168.096C246.28 168.096 246.39 167.986 246.5 167.986L247.71 166.447C247.82 166.227 248.15 166.227 248.37 166.337C249.25 166.777 250.13 167.217 251.01 167.436C251.23 167.546 251.45 167.766 251.45 167.986L251.23 170.075C251.23 170.185 251.23 170.295 251.34 170.404C251.45 170.514 251.56 170.514 251.67 170.514H254.86C254.97 170.514 255.08 170.514 255.19 170.404C255.3 170.295 255.3 170.185 255.3 170.075L255.08 167.986C255.08 167.766 255.19 167.436 255.52 167.436C256.51 167.217 257.39 166.887 258.16 166.337C258.38 166.227 258.71 166.227 258.82 166.447L260.03 167.986C260.14 168.096 260.25 168.096 260.36 168.096C260.47 168.096 260.58 168.096 260.69 167.986L263 165.677C263.11 165.568 263.11 165.458 263.11 165.348C263.11 165.238 263 165.128 263 165.018L261.46 163.809C261.24 163.699 261.24 163.369 261.35 163.149C261.79 162.27 262.23 161.39 262.45 160.511C262.56 160.291 262.78 160.071 263 160.071L265.09 160.291C265.2 160.291 265.31 160.291 265.42 160.181C265.53 160.071 265.53 159.961 265.53 159.851V156.663C265.64 156.443 265.53 156.333 265.42 156.333ZM264.76 159.302L263.22 159.082C262.56 158.972 261.9 159.411 261.79 160.071C261.57 160.95 261.24 161.72 260.8 162.49C260.47 163.039 260.58 163.809 261.13 164.248L262.23 165.128L260.58 166.777L259.7 165.677C259.26 165.128 258.49 165.018 257.94 165.348C257.17 165.787 256.4 166.117 255.52 166.337C254.86 166.447 254.42 167.107 254.53 167.766L254.75 169.305H252.44L252.66 167.766C252.77 167.107 252.33 166.447 251.67 166.337C250.79 166.117 250.02 165.787 249.25 165.348C248.7 165.018 247.93 165.128 247.49 165.677L246.61 166.777L244.96 165.128L246.06 164.248C246.61 163.809 246.72 163.039 246.39 162.49C245.95 161.72 245.62 160.95 245.4 160.071C245.29 159.411 244.63 158.972 243.97 159.082L242.43 159.302V156.993L243.97 157.213C244.63 157.323 245.29 156.883 245.4 156.223C245.62 155.344 245.95 154.575 246.39 153.805C246.72 153.255 246.61 152.486 246.06 152.046L244.96 151.167L246.61 149.518L247.49 150.617C247.93 151.167 248.7 151.277 249.25 150.947C250.02 150.507 250.79 150.177 251.67 149.957C252.33 149.848 252.77 149.188 252.66 148.528L252.44 146.989H254.75L254.53 148.528C254.42 149.188 254.86 149.848 255.52 149.957C256.4 150.177 257.17 150.507 257.94 150.947C258.49 151.277 259.26 151.167 259.7 150.617L260.58 149.518L262.23 151.167L261.13 152.046C260.58 152.486 260.47 153.255 260.8 153.805C261.24 154.575 261.57 155.344 261.79 156.223C261.9 156.883 262.56 157.323 263.22 157.213L264.76 156.993V159.302Z" fill="#DE051F"/>
<path d="M253.54 152.596C250.46 152.596 247.93 155.124 247.93 158.202C247.93 161.28 250.46 163.809 253.54 163.809C256.62 163.809 259.15 161.28 259.15 158.202C259.15 155.124 256.62 152.596 253.54 152.596ZM253.54 163.039C250.9 163.039 248.7 160.84 248.7 158.202C248.7 155.564 250.9 153.365 253.54 153.365C256.18 153.365 258.38 155.564 258.38 158.202C258.38 160.84 256.18 163.039 253.54 163.039Z" fill="#DE051F"/>
<path d="M420.263 117.908H406.722C406.522 117.908 406.323 118.107 406.323 118.306V123.878C406.323 123.978 406.323 124.077 406.423 124.177L408.016 125.769C408.116 125.869 408.215 125.869 408.315 125.869H418.67C418.77 125.869 418.869 125.869 418.969 125.769L420.562 124.177C420.661 124.077 420.661 123.978 420.661 123.878V118.306C420.661 118.107 420.462 117.908 420.263 117.908ZM419.865 123.679L418.471 125.073H408.414L407.02 123.679V118.704H419.765L419.865 123.679Z" fill="#003EB0"/>
<path d="M421.059 119.5L405.925 120.296C405.726 120.296 405.526 120.495 405.526 120.694C405.526 120.893 405.726 121.092 405.925 121.092L421.059 120.296C421.259 120.296 421.458 120.097 421.458 119.898C421.458 119.699 421.259 119.5 421.059 119.5Z" fill="#003EB0"/>
<path d="M421.059 121.888L405.925 122.684C405.726 122.684 405.526 122.884 405.526 123.083C405.526 123.282 405.726 123.481 405.925 123.481L421.059 122.684C421.259 122.684 421.458 122.485 421.458 122.286C421.458 122.087 421.259 121.888 421.059 121.888Z" fill="#003EB0"/>
<path d="M413.492 90.8418C406.024 90.8418 399.95 96.9118 399.95 104.375C399.95 109.052 402.34 113.331 406.323 115.818V118.306C406.323 118.505 406.522 118.704 406.721 118.704H420.263C420.462 118.704 420.661 118.505 420.661 118.306V115.818C424.644 113.331 427.034 109.052 427.034 104.375C427.034 96.9118 420.96 90.8418 413.492 90.8418ZM420.064 115.321C419.964 115.42 419.864 115.52 419.864 115.719V118.007H407.119V115.719C407.119 115.619 407.02 115.42 406.92 115.321C403.037 113.032 400.747 108.952 400.747 104.474C400.747 97.4093 406.422 91.7374 413.492 91.7374C420.561 91.7374 426.237 97.4093 426.237 104.474C426.237 108.853 423.947 112.933 420.064 115.321Z" fill="#003EB0"/>
<path d="M417.276 125.172C417.077 125.073 416.878 125.172 416.779 125.371C416.779 125.471 415.982 126.764 413.592 126.764C411.203 126.764 410.406 125.471 410.406 125.371C410.306 125.172 410.107 125.073 409.908 125.172C409.709 125.272 409.609 125.471 409.709 125.67C409.709 125.769 410.705 127.461 413.692 127.461C416.679 127.461 417.575 125.67 417.675 125.67C417.575 125.471 417.476 125.272 417.276 125.172Z" fill="#003EB0"/>
<path d="M396.364 103.976H388.398C388.199 103.976 388 104.175 388 104.374C388 104.573 388.199 104.772 388.398 104.772H396.364C396.563 104.772 396.762 104.573 396.762 104.374C396.762 104.175 396.563 103.976 396.364 103.976Z" fill="#DE051F"/>
<path d="M438.582 103.976H430.616C430.417 103.976 430.218 104.175 430.218 104.374C430.218 104.573 430.417 104.772 430.616 104.772H438.582C438.781 104.772 438.98 104.573 438.98 104.374C438.98 104.175 438.781 103.976 438.582 103.976Z" fill="#DE051F"/>
<path d="M399.052 112.733C398.952 112.534 398.654 112.435 398.554 112.634L391.684 116.614C391.485 116.714 391.385 117.012 391.584 117.211C391.684 117.311 391.783 117.41 391.982 117.41C392.082 117.41 392.082 117.41 392.182 117.311L399.052 113.33C399.052 113.231 399.152 112.932 399.052 112.733Z" fill="#DE051F"/>
<path d="M435.595 91.6377C435.495 91.4387 435.197 91.3392 434.997 91.5382L428.127 95.5185C427.928 95.618 427.828 95.9165 428.027 96.1155C428.127 96.215 428.227 96.3146 428.426 96.3146C428.525 96.3146 428.525 96.3145 428.625 96.215L435.495 92.2347C435.595 92.1352 435.694 91.8367 435.595 91.6377Z" fill="#DE051F"/>
<path d="M426.235 82.383C426.036 82.2835 425.837 82.383 425.737 82.4825L421.754 89.3486C421.655 89.5476 421.754 89.7466 421.854 89.9456C421.953 89.9456 421.953 90.0451 422.053 90.0451C422.152 90.0451 422.352 89.9456 422.451 89.8461L426.434 82.9801C426.534 82.6815 426.434 82.4825 426.235 82.383Z" fill="#DE051F"/>
<path d="M413.491 79C413.292 79 413.093 79.199 413.093 79.398V87.3587C413.093 87.5577 413.292 87.7567 413.491 87.7567C413.69 87.7567 413.889 87.5577 413.889 87.3587V79.398C413.889 79.0995 413.69 79 413.491 79Z" fill="#DE051F"/>
<path d="M405.326 89.3487L401.343 82.4826C401.243 82.2836 400.944 82.1841 400.845 82.3831C400.646 82.4826 400.546 82.7812 400.745 82.9802L404.728 89.8462C404.828 89.9457 404.927 90.0453 405.126 90.0453C405.226 90.0453 405.226 90.0452 405.326 89.9457C405.326 89.8462 405.425 89.5477 405.326 89.3487Z" fill="#DE051F"/>
<path d="M435.396 116.614L428.525 112.634C428.326 112.534 428.127 112.634 428.027 112.733C427.928 112.932 427.928 113.131 428.127 113.231L434.997 117.211C435.097 117.211 435.097 117.311 435.196 117.311C435.296 117.311 435.495 117.211 435.595 117.112C435.694 116.913 435.595 116.714 435.396 116.614Z" fill="#DE051F"/>
<path d="M398.853 95.5184L391.982 91.538C391.783 91.4385 391.584 91.538 391.484 91.6376C391.385 91.8366 391.385 92.0356 391.584 92.2346L398.454 96.2149C398.554 96.2149 398.554 96.3144 398.653 96.3144C398.753 96.3144 398.952 96.2149 399.052 96.1154C399.151 95.9164 399.052 95.6179 398.853 95.5184Z" fill="#DE051F"/>
<path d="M414.685 117.907V105.071C414.685 105.071 414.486 99.001 417.772 99.001C421.058 99.001 419.564 105.27 413.191 105.27" stroke="#003EB0" stroke-miterlimit="10"/>
<path d="M411.698 117.908V105.071C411.698 105.071 411.897 99.0012 408.611 99.0012C405.325 99.0012 406.819 105.27 413.191 105.27" stroke="#003EB0" stroke-miterlimit="10"/>
<path d="M293.59 65.7424H222.86C215.05 65.7424 208.78 59.3664 208.78 51.6713V44.5259C208.78 36.7208 215.16 30.4548 222.86 30.4548H307.78V51.7813C307.78 59.4764 301.4 65.7424 293.59 65.7424Z" fill="#B0E6FF"/>
<path d="M227.479 60.026C234.101 60.026 239.469 54.6614 239.469 48.0437C239.469 41.426 234.101 36.0613 227.479 36.0613C220.857 36.0613 215.489 41.426 215.489 48.0437C215.489 54.6614 220.857 60.026 227.479 60.026Z" fill="#0064B7"/>
<mask id="mask1_2928_17945" style="mask-type:luminance" maskUnits="userSpaceOnUse" x="215" y="36" width="25" height="25">
<path d="M227.479 60.026C234.101 60.026 239.469 54.6614 239.469 48.0437C239.469 41.426 234.101 36.0613 227.479 36.0613C220.857 36.0613 215.489 41.426 215.489 48.0437C215.489 54.6614 220.857 60.026 227.479 60.026Z" fill="white"/>
</mask>
<g mask="url(#mask1_2928_17945)">
<path d="M226.378 50.792C226.378 50.792 226.378 52.331 225.718 52.9906C225.058 53.6502 224.178 54.7495 224.178 54.7495C224.178 54.7495 225.718 57.1679 228.798 56.8382C231.878 56.5084 232.428 54.3098 232.428 54.3098C232.428 54.3098 229.458 53.98 229.128 51.1218C228.798 48.3735 228.358 48.3735 228.358 48.3735L226.378 50.792Z" fill="#FFB07E"/>
<path d="M224.509 53.6505C224.509 53.6505 222.419 53.4306 221.209 53.7604C220.109 54.0902 219.669 53.8703 219.999 54.7498C220.329 55.6292 221.869 59.6966 221.099 62.225C220.329 64.7534 219.339 77.7251 219.339 77.7251C219.339 77.7251 227.149 78.0549 230.229 78.1649C233.309 78.2748 235.509 77.7251 235.509 77.7251C235.509 77.7251 236.169 72.1187 235.509 69.7002C234.849 67.2818 233.969 63.1044 233.969 63.1044C233.969 63.1044 233.419 57.3881 234.189 56.0689C234.959 54.7498 235.509 54.6398 234.519 54.2001C233.529 53.8703 232.429 53.5405 231.659 53.5405C230.889 53.5405 230.449 53.5405 230.009 53.9802C229.569 54.42 228.579 55.4093 227.369 55.1895C226.049 54.9696 225.059 54.0902 225.059 54.0902C225.059 54.0902 224.839 53.6505 224.509 53.6505Z" fill="#F7A600"/>
<path d="M220.659 54.0899C220.659 54.0899 219.889 53.7601 218.899 54.6395C217.689 55.6289 216.919 57.8275 216.479 59.1467C216.039 60.4658 215.819 61.785 215.819 61.785C215.819 61.785 217.359 62.5545 218.899 62.6644C220.439 62.7743 221.539 62.7743 221.539 62.7743C221.539 62.7743 222.199 58.7069 222.089 56.9481C221.759 55.1892 221.539 54.5296 220.659 54.0899Z" fill="#070707"/>
<path d="M233.748 55.6291C233.748 55.6291 234.408 53.8702 235.728 54.7497C237.048 55.6291 238.148 58.4873 238.478 59.3667C238.808 60.2462 239.248 62.115 239.248 62.115C239.248 62.115 237.598 62.8845 236.168 62.9944C234.738 63.1043 233.748 63.2143 233.748 63.2143C233.748 63.2143 233.198 59.5866 233.308 58.0476C233.418 56.6185 233.748 55.6291 233.748 55.6291Z" fill="#070707"/>
<path d="M232.318 47.824C232.428 48.1538 231.878 49.0332 231.658 49.363C231.768 48.8134 231.878 48.1538 231.878 47.3843C231.878 47.3843 232.208 47.4942 232.318 47.824Z" fill="#FFBF99"/>
<path d="M231.988 43.6466C231.878 40.6785 227.918 40.6785 227.918 40.6785C227.918 40.6785 223.958 40.6785 223.848 43.6466C223.738 44.9657 223.848 46.2849 223.958 47.2743C224.068 48.1537 224.178 48.8133 224.178 49.253C224.288 49.5828 224.288 49.8027 224.398 50.0225C224.508 50.2424 224.618 50.5722 224.838 50.792C225.278 51.3417 225.828 52.0013 226.378 52.2211C226.708 52.441 227.588 52.5509 227.918 52.5509C228.358 52.5509 229.128 52.441 229.458 52.2211C229.898 52.0013 230.448 51.3417 230.998 50.792C231.218 50.4623 231.438 50.2424 231.438 50.0225C231.548 49.9126 231.548 49.6927 231.658 49.253C231.768 48.7034 231.878 48.0438 231.878 47.2743C231.988 46.2849 232.098 44.9657 231.988 43.6466Z" fill="#FFBF99"/>
<path d="M223.958 47.3843C224.068 48.2637 224.178 48.9233 224.178 49.363C223.958 49.0332 223.408 48.1538 223.518 47.824C223.628 47.4942 223.958 47.3843 223.958 47.3843Z" fill="#FFBF99"/>
<path d="M232.649 43.6467C232.539 42.8772 232.209 41.8878 231.769 41.2282C231.549 41.0084 230.669 39.9091 231.329 39.6892C230.999 39.3594 230.559 39.7991 230.449 40.1289C230.449 40.2389 230.229 40.5687 230.229 40.5687C230.119 39.7991 230.229 39.2495 229.459 38.8098C228.249 38.0403 226.929 39.7991 225.719 39.7991C225.169 39.7991 224.069 40.019 223.959 39.2495L223.739 39.5793C223.629 39.6892 223.629 39.9091 223.629 40.019C223.629 40.2389 223.849 40.7885 224.179 40.7885C223.739 40.7885 223.519 40.7885 223.299 40.3488C223.189 40.5687 223.409 40.6786 223.519 40.8984C223.299 40.8984 222.859 40.5687 222.859 40.3488C222.639 40.5687 222.749 41.0084 222.969 41.2282C223.079 41.3382 223.629 41.8878 223.629 41.7779C223.519 42.5474 223.189 43.3169 222.969 44.0864C222.859 44.5261 222.749 44.9659 222.859 45.4056C222.969 45.8453 223.079 46.3949 223.189 46.9446C223.409 47.7141 223.739 48.0439 223.739 48.2638C223.739 48.0439 223.959 47.7141 223.959 47.4943C224.179 46.6148 223.959 45.7354 224.179 44.9659C224.509 43.7566 225.499 43.5368 226.599 43.7566C227.259 43.8666 228.139 43.7566 228.689 43.4268C229.019 43.207 229.349 42.9871 229.569 42.7673C229.679 42.6573 229.789 42.4375 229.899 42.3275C230.009 42.6573 229.899 42.9871 230.119 43.207C231.109 44.4162 231.219 45.8453 231.439 47.3843C231.439 47.4942 231.659 48.2638 231.659 48.2638C232.099 47.7141 232.099 46.8347 232.319 46.1751C232.759 45.2956 232.759 44.4162 232.649 43.6467Z" fill="#52331D"/>
<path d="M231.879 50.2424C231.769 49.6928 231.769 48.8133 231.769 48.2637C231.659 48.7034 231.329 49.253 230.999 49.4729C230.779 49.6928 230.339 49.9126 230.009 49.8027C229.899 49.6928 229.789 49.5828 229.569 49.4729C229.239 49.253 228.799 49.0332 228.359 49.0332C228.139 49.0332 227.809 49.253 227.809 49.363H227.699C227.699 49.1431 227.259 49.0332 227.149 49.0332C226.709 48.9232 226.379 49.253 225.939 49.4729C225.829 49.5828 225.719 49.6928 225.499 49.8027C225.169 49.9126 224.729 49.6928 224.509 49.4729C224.179 49.253 223.739 48.7034 223.739 48.2637C223.739 48.8133 223.739 49.6928 223.629 50.2424C223.519 50.2424 223.409 50.1325 223.299 50.1325C223.299 50.3523 223.409 50.4623 223.629 50.4623C223.739 51.2318 225.279 53.3205 225.389 53.4304C225.499 53.6502 226.379 54.1999 226.709 54.4198C227.039 54.6396 227.369 54.6396 227.699 54.6396C228.029 54.6396 228.359 54.6396 228.689 54.4198C229.019 54.1999 229.899 53.6502 230.009 53.4304C230.009 53.3205 231.659 51.2318 231.769 50.4623C231.989 50.3523 232.099 50.2424 232.099 50.1325C232.099 50.1325 231.989 50.2424 231.879 50.2424ZM230.339 50.6821C230.119 50.6821 230.009 50.5722 229.789 50.4623C229.459 50.5722 229.019 50.7921 228.689 50.6821C228.469 50.4623 228.249 50.6821 227.919 50.6821C228.249 50.7921 228.249 50.7921 227.919 50.6821H227.809C227.479 50.7921 227.479 50.7921 227.809 50.6821C227.479 50.6821 227.259 50.4623 227.039 50.6821C226.709 50.7921 226.269 50.6821 225.939 50.4623C225.719 50.5722 225.609 50.6821 225.389 50.6821C225.609 50.6821 225.829 50.5722 225.939 50.4623C226.049 50.3523 226.269 50.2424 226.379 50.2424C226.709 50.1325 227.039 49.9126 227.369 49.9126C227.589 49.9126 227.699 49.9126 227.809 49.9126H227.919C228.029 50.0226 228.249 49.9126 228.359 49.9126C228.689 49.9126 229.019 50.1325 229.349 50.2424C229.459 50.3523 229.679 50.4623 229.789 50.4623C230.009 50.4623 230.119 50.5722 230.339 50.6821Z" fill="#52331D"/>
<path d="M231.878 50.2424C231.548 50.3523 231.328 50.2424 230.998 50.1324C230.668 50.0225 230.338 49.9126 230.118 49.8026C230.008 49.8026 230.008 49.6927 230.008 49.6927C229.898 49.5828 229.788 49.4729 229.568 49.3629C229.238 49.1431 228.798 48.9232 228.358 48.9232C228.138 48.9232 227.808 49.1431 227.808 49.253H227.698C227.698 49.0331 227.258 48.9232 227.148 48.9232C226.708 48.8133 226.378 49.1431 225.938 49.3629C225.828 49.4729 225.718 49.5828 225.498 49.6927C225.388 49.6927 225.388 49.8026 225.388 49.8026C225.168 50.0225 224.838 50.0225 224.508 50.1324C224.178 50.2424 223.958 50.2424 223.628 50.2424C223.518 50.2424 223.408 50.1324 223.298 50.1324C223.298 50.3523 223.408 50.4622 223.628 50.4622C223.738 50.5722 223.958 50.5722 224.068 50.5722C224.398 50.6821 224.838 50.6821 225.278 50.6821C225.498 50.6821 225.718 50.5722 225.828 50.4622C225.938 50.3523 226.158 50.2424 226.268 50.2424C226.598 50.1324 226.928 49.9126 227.258 49.9126C227.478 49.9126 227.588 49.9126 227.698 49.9126H227.808C227.918 50.0225 228.138 49.9126 228.248 49.9126C228.578 49.9126 228.908 50.1324 229.238 50.2424C229.348 50.3523 229.568 50.4622 229.678 50.4622C229.898 50.5722 230.118 50.6821 230.228 50.6821C230.668 50.792 230.998 50.6821 231.438 50.5722C231.548 50.5722 231.658 50.4622 231.878 50.4622C232.098 50.3523 232.208 50.2424 232.208 50.1324C232.098 50.1324 231.988 50.1324 231.878 50.2424Z" fill="#6B4732"/>
</g>
<path d="M297 42.5476H247.94C246.4 42.5476 245.08 41.2284 245.08 39.6894V39.0298C245.08 37.4908 246.4 36.1716 247.94 36.1716H297C298.54 36.1716 299.86 37.4908 299.86 39.0298V39.6894C299.86 41.3383 298.65 42.5476 297 42.5476Z" stroke="#0073D3" stroke-miterlimit="10"/>
<path d="M297 51.2321H247.94C246.4 51.2321 245.08 49.913 245.08 48.374V47.7144C245.08 46.1754 246.4 44.8562 247.94 44.8562H297C298.54 44.8562 299.86 46.1754 299.86 47.7144V48.374C299.86 50.0229 298.65 51.2321 297 51.2321Z" stroke="#0073D3" stroke-miterlimit="10"/>
<path d="M297 59.9165H247.94C246.4 59.9165 245.08 58.5973 245.08 57.0583V56.3987C245.08 54.8597 246.4 53.5405 247.94 53.5405H297C298.54 53.5405 299.86 54.8597 299.86 56.3987V57.0583C299.86 58.5973 298.65 59.9165 297 59.9165Z" stroke="#0073D3" stroke-miterlimit="10"/>
<path d="M364.98 351.121H330.99C329.45 351.121 328.13 352.44 328.13 353.979V366.401C328.13 367.94 329.45 369.26 330.99 369.26H367.73V354.089C367.84 352.44 366.52 351.121 364.98 351.121Z" fill="#B0E6FF"/>
<path d="M336.82 365.742C339.736 365.742 342.1 363.38 342.1 360.465C342.1 357.551 339.736 355.189 336.82 355.189C333.904 355.189 331.54 357.551 331.54 360.465C331.54 363.38 333.904 365.742 336.82 365.742Z" fill="#0064B7"/>
<mask id="mask2_2928_17945" style="mask-type:luminance" maskUnits="userSpaceOnUse" x="331" y="355" width="12" height="11">
<path d="M336.82 365.742C339.736 365.742 342.1 363.38 342.1 360.465C342.1 357.551 339.736 355.189 336.82 355.189C333.904 355.189 331.54 357.551 331.54 360.465C331.54 363.38 333.904 365.742 336.82 365.742Z" fill="white"/>
</mask>
<g mask="url(#mask2_2928_17945)">
<path d="M336.381 361.675C336.381 361.675 336.381 362.334 336.051 362.664C335.721 362.994 335.391 363.434 335.391 363.434C335.391 363.434 336.051 364.533 337.481 364.313C338.801 364.203 339.131 363.214 339.131 363.214C339.131 363.214 337.811 362.994 337.701 361.895C337.591 360.685 337.371 360.685 337.371 360.685L336.381 361.675Z" fill="#FFBF99"/>
<path d="M335.501 362.994C335.501 362.994 334.621 362.884 334.071 362.994C333.521 363.104 333.411 362.994 333.521 363.433C333.631 363.873 334.291 365.632 334.071 366.731C333.741 367.831 333.301 373.437 333.301 373.437C333.301 373.437 336.711 373.547 338.031 373.657C339.351 373.767 340.341 373.437 340.341 373.437C340.341 373.437 340.671 371.019 340.341 369.919C340.011 368.82 339.681 367.061 339.681 367.061C339.681 367.061 339.461 364.533 339.791 363.983C340.121 363.324 340.341 363.323 339.901 363.214C339.461 363.104 339.021 362.884 338.691 362.884C338.361 362.884 338.141 362.884 337.921 363.104C337.701 363.323 337.261 363.763 336.711 363.653C336.161 363.543 335.721 363.214 335.721 363.214C335.721 363.214 335.721 362.994 335.501 362.994Z" fill="#1B3A62"/>
<path d="M333.96 363.104C333.96 363.104 333.63 362.994 333.19 363.323C332.64 363.763 332.31 364.643 332.09 365.302C331.87 365.852 331.76 366.511 331.76 366.511C331.76 366.511 332.42 366.841 333.08 366.841C333.74 366.841 334.18 366.951 334.18 366.951C334.18 366.951 334.51 365.192 334.4 364.423C334.4 363.653 334.29 363.323 333.96 363.104Z" fill="#021E34"/>
<path d="M339.57 363.763C339.57 363.763 339.79 362.994 340.45 363.324C341 363.653 341.55 364.973 341.66 365.412C341.77 365.852 341.99 366.622 341.99 366.622C341.99 366.622 341.22 366.951 340.67 366.951C340.01 366.951 339.68 367.061 339.68 367.061C339.68 367.061 339.46 365.412 339.46 364.863C339.46 364.203 339.57 363.763 339.57 363.763Z" fill="#021E34"/>
<path d="M336.93 361.015H336.05C336.05 361.015 336.16 361.675 336.93 361.675C337.7 361.675 337.81 361.015 337.81 361.015H336.93Z" fill="white"/>
<path d="M339.13 359.696C339.24 359.806 338.91 360.356 338.8 360.465C338.8 360.246 338.91 359.806 338.91 359.476C338.91 359.476 339.13 359.586 339.13 359.696Z" fill="#FFBF99"/>
<path d="M339.02 357.607C338.91 356.178 336.93 356.068 336.93 356.068C336.93 356.068 334.95 356.068 334.84 357.607C334.84 358.267 334.84 358.926 334.95 359.476C334.95 359.916 335.06 360.245 335.06 360.465C335.06 360.685 335.17 360.795 335.17 360.795C335.17 360.905 335.28 361.015 335.39 361.235C335.61 361.565 335.94 361.894 336.16 362.004C336.38 362.114 336.71 362.224 336.93 362.224C337.15 362.224 337.48 362.114 337.7 362.004C337.92 361.894 338.25 361.565 338.47 361.235C338.58 361.125 338.69 360.905 338.69 360.795C338.69 360.685 338.8 360.575 338.8 360.465C338.8 360.245 338.91 359.806 338.91 359.476C339.02 358.926 339.02 358.267 339.02 357.607Z" fill="#FFBF99"/>
<path d="M334.949 359.476C334.949 359.916 335.059 360.245 335.059 360.465C334.949 360.355 334.619 359.806 334.729 359.696C334.839 359.586 334.949 359.476 334.949 359.476Z" fill="#FFBF99"/>
<path d="M338.14 361.785C338.03 361.895 337.92 362.005 337.81 362.114C337.7 362.224 337.26 362.444 337.15 362.444H337.04C336.82 362.444 336.49 362.224 336.38 362.114C336.27 362.005 336.16 361.895 335.94 361.785C336.16 361.785 336.05 361.455 336.16 361.345C336.27 361.235 336.38 361.235 336.49 361.125C336.6 361.125 336.6 361.015 336.71 361.015C336.82 361.015 336.93 361.015 337.04 361.015H337.15C337.26 361.015 337.37 361.015 337.48 361.015C337.59 361.015 337.7 361.125 337.7 361.125C337.81 361.235 338.03 361.235 338.03 361.345C337.92 361.455 337.92 361.785 338.14 361.785ZM337.7 361.675C337.81 361.455 337.7 361.455 337.48 361.345C337.37 361.345 337.04 361.125 336.93 361.125C336.82 361.125 336.49 361.235 336.38 361.345C336.16 361.455 336.05 361.455 336.16 361.675C336.27 361.785 336.38 362.005 336.6 362.005C336.82 362.005 336.82 361.785 336.93 361.675C337.04 361.785 337.04 362.005 337.26 362.005C337.48 362.005 337.7 361.785 337.7 361.675Z" fill="#915F41"/>
<path d="M337.04 359.036C337.04 359.036 337.15 359.036 337.26 359.036C337.37 359.036 337.37 358.926 337.37 358.926C337.48 358.816 337.59 358.816 337.7 358.816C337.81 358.816 338.03 358.816 338.14 358.816C338.25 358.816 338.58 358.816 338.58 358.816C338.58 358.816 338.69 358.926 338.8 358.926V359.036C338.8 359.146 338.8 359.256 338.8 359.366C338.8 359.476 338.8 359.586 338.69 359.696H338.58C338.58 359.696 338.36 359.696 338.25 359.696C338.14 359.696 337.92 359.696 337.81 359.696C337.59 359.696 337.37 359.696 337.37 359.476C337.37 359.366 337.37 359.146 337.26 359.146C337.15 359.146 337.04 359.036 337.04 359.036C337.04 359.146 337.04 359.146 337.04 359.036ZM337.48 359.696H337.7C337.7 359.696 338.25 359.696 338.47 359.696C338.47 359.696 338.58 359.696 338.58 359.586C338.69 359.476 338.69 359.036 338.69 359.036L338.58 358.926C338.47 358.816 337.48 358.816 337.48 358.926C337.48 359.036 337.37 359.036 337.48 359.146C337.59 359.146 337.59 359.146 337.59 359.256C337.59 359.256 337.59 359.476 337.59 359.366V359.476C337.37 359.586 337.48 359.696 337.48 359.696Z" fill="#6B4732"/>
<path d="M337.04 359.036C337.04 359.036 336.93 359.036 336.82 359.036C336.71 359.036 336.71 358.926 336.71 358.926C336.6 358.816 336.49 358.816 336.38 358.816C336.27 358.816 336.05 358.816 335.94 358.816C335.83 358.816 335.5 358.816 335.5 358.816C335.5 358.816 335.39 358.926 335.28 358.926V359.036C335.28 359.146 335.28 359.256 335.28 359.366C335.28 359.476 335.28 359.586 335.39 359.696H335.5C335.5 359.696 335.72 359.696 335.83 359.696C335.94 359.696 336.16 359.696 336.27 359.696C336.49 359.696 336.71 359.696 336.71 359.476C336.71 359.366 336.71 359.146 336.82 359.146C336.82 359.146 336.93 359.036 337.04 359.036C337.04 359.146 337.04 359.146 337.04 359.036ZM336.49 359.696H336.27C336.27 359.696 335.72 359.696 335.5 359.696C335.5 359.696 335.39 359.696 335.39 359.586C335.28 359.476 335.28 359.036 335.28 359.036L335.39 358.926C335.5 358.816 336.49 358.816 336.49 358.926C336.49 359.036 336.6 359.036 336.49 359.146C336.38 359.146 336.38 359.146 336.38 359.256C336.38 359.256 336.38 359.476 336.38 359.366V359.476C336.6 359.586 336.49 359.696 336.49 359.696Z" fill="#6B4732"/>
</g>
<path d="M363.22 357.497H345.07C344.63 357.497 344.41 357.167 344.41 356.837V355.958C344.41 355.518 344.74 355.298 345.07 355.298H363.22C363.66 355.298 363.88 355.628 363.88 355.958V356.837C363.99 357.167 363.66 357.497 363.22 357.497Z" fill="#0064B7"/>
<path d="M363.22 361.235H345.07C344.63 361.235 344.41 360.905 344.41 360.575V359.696C344.41 359.256 344.74 359.036 345.07 359.036H363.22C363.66 359.036 363.88 359.366 363.88 359.696V360.575C363.99 360.905 363.66 361.235 363.22 361.235Z" fill="#0064B7"/>
<path d="M363.22 364.862H345.07C344.63 364.862 344.41 364.532 344.41 364.203V363.323C344.41 362.883 344.74 362.664 345.07 362.664H363.22C363.66 362.664 363.88 362.993 363.88 363.323V364.203C363.99 364.532 363.66 364.862 363.22 364.862Z" fill="#0064B7"/>
<path d="M175.56 174.243H130.79C129.25 174.243 127.93 175.563 127.93 177.102V194.361C127.93 195.9 129.25 197.219 130.79 197.219H178.31V177.102C178.31 175.563 177.1 174.243 175.56 174.243Z" fill="#B0E6FF"/>
<path d="M138.931 192.822C142.637 192.822 145.641 189.819 145.641 186.116C145.641 182.412 142.637 179.41 138.931 179.41C135.225 179.41 132.221 182.412 132.221 186.116C132.221 189.819 135.225 192.822 138.931 192.822Z" fill="#0064B7"/>
<mask id="mask3_2928_17945" style="mask-type:luminance" maskUnits="userSpaceOnUse" x="132" y="179" width="14" height="14">
<path d="M138.931 192.822C142.637 192.822 145.641 189.819 145.641 186.116C145.641 182.412 142.637 179.41 138.931 179.41C135.225 179.41 132.221 182.412 132.221 186.116C132.221 189.819 135.225 192.822 138.931 192.822Z" fill="white"/>
</mask>
<g mask="url(#mask3_2928_17945)">
<path d="M141.792 187.105C141.462 185.896 141.902 185.566 142.012 183.917L138.932 183.807L135.852 183.917C135.962 185.456 136.402 185.896 136.072 187.105C135.632 188.864 134.422 191.063 138.822 191.063C143.442 191.063 142.232 188.864 141.792 187.105Z" fill="#4B2C61"/>
<path d="M138.382 187.655C138.382 187.655 138.382 188.534 138.052 188.864C137.722 189.194 137.172 189.853 137.172 189.853C137.172 189.853 138.052 191.173 139.702 191.063C141.462 190.843 141.682 189.634 141.682 189.634C141.682 189.634 140.032 189.414 139.812 187.875C139.592 186.336 139.372 186.336 139.372 186.336L138.382 187.655Z" fill="#F8E1CC"/>
<path d="M137.282 189.194C137.282 189.194 136.072 189.084 135.412 189.194C134.752 189.414 134.532 189.304 134.752 189.744C134.972 190.183 135.742 192.492 135.412 193.921C135.082 195.35 134.422 202.495 134.422 202.495C134.422 202.495 138.822 202.715 140.472 202.715C142.122 202.715 143.442 202.495 143.442 202.495C143.442 202.495 143.772 199.417 143.442 198.098C143.112 196.779 142.562 194.471 142.562 194.471C142.562 194.471 142.232 191.283 142.672 190.513C143.112 189.744 143.442 189.744 142.892 189.524C142.342 189.304 141.792 189.194 141.352 189.194C140.912 189.194 140.692 189.194 140.472 189.414C140.252 189.634 139.702 190.183 138.932 190.073C138.162 189.963 137.612 189.414 137.612 189.414C137.612 189.414 137.502 189.304 137.282 189.194Z" fill="#CCB4AA"/>
<path d="M135.191 189.523C135.191 189.523 134.751 189.304 134.201 189.853C133.541 190.403 133.101 191.612 132.881 192.382C132.661 193.151 132.551 193.921 132.551 193.921C132.551 193.921 133.431 194.36 134.201 194.36C135.081 194.36 135.631 194.47 135.631 194.47C135.631 194.47 135.961 192.272 135.961 191.282C135.851 190.073 135.631 189.743 135.191 189.523Z" fill="#355D75"/>
<path d="M142.451 190.293C142.451 190.293 142.781 189.304 143.551 189.743C144.321 190.183 144.871 191.832 145.091 192.382C145.311 192.931 145.531 193.921 145.531 193.921C145.531 193.921 144.651 194.36 143.881 194.36C143.111 194.47 142.561 194.47 142.561 194.47C142.561 194.47 142.231 192.382 142.341 191.612C142.231 190.843 142.451 190.293 142.451 190.293Z" fill="#355D75"/>
<path d="M136.841 185.236C136.841 185.236 136.621 185.016 136.511 185.016C136.401 185.016 136.291 185.346 136.401 185.676C136.511 186.006 136.621 186.226 136.731 186.226C136.841 186.226 137.171 186.336 137.171 186.336C137.061 186.336 136.841 185.236 136.841 185.236Z" fill="#F8E1CC"/>
<path d="M141.351 185.236C141.351 185.236 141.571 185.016 141.791 185.016C141.901 185.016 142.011 185.346 141.901 185.676C141.791 186.006 141.681 186.226 141.571 186.226C141.461 186.226 141.131 186.336 141.131 186.336L141.351 185.236Z" fill="#F8E1CC"/>
<path d="M141.351 183.258C140.911 182.048 139.811 181.719 139.041 181.719C138.381 181.719 137.171 182.048 136.731 183.258C136.291 184.467 136.841 186.336 137.281 186.995C137.611 187.655 138.491 188.314 139.041 188.314C139.591 188.314 140.471 187.655 140.801 186.995C141.241 186.336 141.791 184.467 141.351 183.258Z" fill="#F8E1CC"/>
<path d="M136.732 185.346C136.732 185.346 136.952 184.137 137.502 183.477C137.502 183.477 137.832 184.467 138.822 184.797C138.822 184.797 138.822 184.357 138.712 183.917C138.712 183.917 139.482 184.687 140.362 184.797C140.362 184.797 140.252 184.357 140.142 184.137C140.142 184.137 141.022 184.797 141.352 185.346C141.352 185.346 142.122 184.687 142.012 183.477C141.902 182.268 140.912 180.839 139.152 180.729C137.392 180.619 136.622 182.048 136.622 182.048C136.622 182.048 135.962 182.488 135.962 183.258C135.962 184.247 136.182 184.797 136.732 185.346Z" fill="#4B2C61"/>
</g>
<path d="M172.7 182.818H149.16C148.72 182.818 148.5 182.488 148.5 182.159V180.729C148.5 180.29 148.83 180.07 149.16 180.07H172.7C173.14 180.07 173.36 180.4 173.36 180.729V182.159C173.36 182.488 173.03 182.818 172.7 182.818Z" fill="#0073D3"/>
<path d="M172.7 187.545H149.16C148.72 187.545 148.5 187.215 148.5 186.886V185.456C148.5 185.017 148.83 184.797 149.16 184.797H172.7C173.14 184.797 173.36 185.127 173.36 185.456V186.886C173.36 187.215 173.03 187.545 172.7 187.545Z" fill="#0073D3"/>
<path d="M172.7 192.162H149.16C148.72 192.162 148.5 191.833 148.5 191.503V190.074C148.5 189.634 148.83 189.414 149.16 189.414H172.7C173.14 189.414 173.36 189.744 173.36 190.074V191.503C173.36 191.833 173.03 192.162 172.7 192.162Z" fill="#0073D3"/>
<path d="M285.732 373.546C285.732 373.546 292.332 373.876 297.172 373.876C302.012 373.876 309.492 374.866 309.492 374.866C309.492 374.866 311.472 374.866 311.692 377.284C311.912 379.702 311.912 380.692 311.912 380.692C311.912 380.692 312.132 383.66 309.712 383.66C307.292 383.66 292.772 385.309 289.472 385.309C286.172 385.309 283.642 385.968 283.642 383.66C283.532 381.461 283.422 373.327 285.732 373.546Z" fill="#170856"/>
<path d="M291.231 303.852C291.231 303.852 295.521 327.596 295.851 333.862C296.181 340.128 296.841 344.965 292.661 347.384C288.481 349.802 281.771 352.221 281.771 352.221L273.411 309.898V304.951L291.231 303.852Z" fill="#FFBF99"/>
<path d="M218.411 302.532C218.411 302.532 216.101 313.195 215.441 318.692C214.781 324.079 213.351 334.632 213.131 337.16C212.911 339.689 212.691 343.756 217.091 346.834C221.491 350.022 226.331 351.781 226.331 351.781L235.351 302.532H218.411Z" fill="#FFBF99"/>
<path d="M250.972 268.344C250.972 268.344 250.972 273.29 248.882 275.379C246.792 277.468 243.932 280.985 243.932 280.985C243.932 280.985 248.882 288.79 258.782 287.691C268.682 286.592 270.442 279.556 270.442 279.556C270.442 279.556 261.092 278.347 259.992 269.553C258.892 260.758 257.572 260.758 257.572 260.758L250.972 268.344Z" fill="#FFB07E"/>
<path d="M243.821 248.776C243.821 248.776 244.151 260.099 249.431 268.893C254.711 277.688 261.091 272.741 263.511 268.234C265.931 263.727 272.641 248.886 271.321 244.929C270.001 240.971 250.531 239.322 250.531 239.322L243.821 248.776Z" fill="#FFBF99"/>
<path d="M268.792 255.152C268.792 255.152 271.652 253.063 271.652 255.152C271.652 257.241 270.222 260.429 268.462 260.758C266.702 261.088 267.032 260.099 267.362 258.67C267.802 257.241 268.792 255.152 268.792 255.152Z" fill="#FFBF99"/>
<path d="M244.591 259.549C245.361 259.879 246.241 259.989 246.241 258.89C246.241 256.801 244.811 253.613 243.051 253.283C241.291 252.954 241.621 253.943 241.951 255.372C242.061 255.812 242.281 256.471 242.501 257.021C242.941 257.9 243.931 259.33 244.591 259.549Z" fill="#FFBF99"/>
<path d="M244.261 253.943L243.931 250.425C243.931 250.425 247.121 250.755 250.641 247.237C250.641 247.237 257.571 248.776 262.961 248.336C268.791 247.787 271.321 246.248 271.321 246.248C271.321 246.248 270.331 252.953 269.341 254.822C269.341 254.822 272.201 253.613 273.191 250.425C274.291 247.237 274.071 243.829 274.071 243.829C274.071 243.829 277.921 240.641 279.021 237.124C279.021 237.124 268.461 234.705 265.271 232.507C262.081 230.418 260.321 228.989 260.321 228.989C260.321 228.989 255.371 226.131 250.421 230.088C245.471 233.936 242.281 236.134 242.281 242.84C242.391 242.84 237.771 249.106 244.261 253.943Z" fill="#170856"/>
<path d="M245.031 277.468C245.031 277.468 238.321 276.588 234.691 277.688C231.061 278.787 229.851 278.017 230.951 280.876C231.941 283.624 236.891 296.486 234.581 304.621C232.271 312.645 229.191 354.089 229.191 354.089C229.191 354.089 254.271 355.078 263.951 355.628C273.631 356.178 280.891 354.309 280.891 354.309C280.891 354.309 282.981 336.5 280.891 328.805C278.801 321.11 275.941 307.918 275.941 307.918C275.941 307.918 274.181 289.78 276.601 285.383C279.021 280.986 280.891 280.766 277.811 279.556C274.621 278.347 271.211 277.358 268.791 277.358C266.371 277.358 265.051 277.358 263.511 278.897C261.971 280.436 259.111 283.294 254.931 282.744C250.751 282.085 247.671 279.337 247.671 279.337C247.671 279.337 246.241 277.688 245.031 277.468Z" fill="#0083F9"/>
<path d="M233.151 278.897C233.151 278.897 230.841 277.688 227.321 280.656C223.581 283.844 220.831 290.66 219.511 294.947C218.191 299.234 217.421 303.521 217.421 303.521C217.421 303.521 222.261 305.94 227.101 306.16C232.051 306.38 235.351 306.709 235.351 306.709C235.351 306.709 237.441 293.848 237.001 288.021C236.561 282.415 235.791 280.436 233.151 278.897Z" fill="#003EB0"/>
<path d="M274.732 283.734C274.732 283.734 276.712 278.348 281.222 280.766C285.622 283.184 289.032 292.638 289.912 295.607C290.902 298.575 292.222 304.511 292.222 304.511C292.222 304.511 286.942 306.819 282.542 307.149C278.142 307.479 274.952 307.809 274.952 307.809C274.952 307.809 273.192 296.156 273.412 291.539C273.632 286.812 274.732 283.734 274.732 283.734Z" fill="#003EB0"/>
<path d="M238.322 357.497H272.092L254.712 362.884L238.322 357.497Z" fill="#CC092A"/>
<path d="M208.181 347.933C208.181 347.933 269.891 367.171 283.421 372.008C283.421 372.008 287.821 373.217 288.041 375.416C288.261 377.724 287.711 381.022 287.161 382.671C286.611 384.32 285.181 385.639 282.761 385.09C280.341 384.54 225.011 373.547 203.121 367.831L196.851 365.852C196.851 365.852 192.231 363.653 193.111 358.157C193.991 352.66 198.061 347.603 201.031 347.274C203.891 347.054 208.181 347.933 208.181 347.933Z" fill="#EE384E"/>
<path d="M202.572 375.306C202.572 375.306 210.382 373.987 214.892 373.767C219.402 373.547 225.562 373.107 226.552 373.767C227.542 374.426 228.312 383.331 228.312 383.331C228.312 383.331 229.192 385.749 223.032 385.309C216.872 384.87 202.902 384.32 202.902 384.32C202.902 384.32 199.712 384.1 199.602 381.352C199.382 378.604 199.932 377.175 199.932 377.175C199.932 377.175 200.592 375.636 202.572 375.306Z" fill="#170856"/>
<path d="M239.422 367.391C239.422 367.391 276.822 355.958 290.242 352.111C303.552 348.153 311.032 344.526 315.322 350.792C319.612 357.058 319.282 363.983 314.332 365.962C309.382 367.941 270.442 377.065 254.272 380.253C238.102 383.551 227.542 385.64 226.112 385.09C224.572 384.43 222.922 379.703 223.252 377.065C223.582 374.427 223.692 373.437 226.882 372.118C229.962 370.689 239.422 367.391 239.422 367.391Z" fill="#DE051F"/>
<path d="M235.132 313.085H280.122C280.122 313.085 282.542 312.756 282.542 316.053C282.542 319.351 282.542 354.969 282.542 354.969C282.542 354.969 282.762 357.607 280.782 357.607C278.802 357.607 227.872 357.607 227.872 357.607C227.872 357.607 225.782 358.267 225.782 354.639C225.782 351.011 225.782 315.064 225.782 315.064C225.782 315.064 225.562 313.085 228.202 313.085C230.842 313.085 235.132 313.085 235.132 313.085Z" fill="#0064B7"/>
<path d="M241.846 332.521L239.303 335.697L242.48 338.238L245.024 335.063L241.846 332.521Z" fill="#569ED4"/>
<path d="M68.5295 283.954H45.2095C35.8595 283.954 28.2695 276.368 28.2695 267.024V250.315C28.2695 240.971 35.8595 233.386 45.2095 233.386H68.5295C77.8795 233.386 85.4695 240.971 85.4695 250.315V267.024C85.4695 276.368 77.8795 283.954 68.5295 283.954Z" fill="#003EB0"/>
<path d="M54.1194 154.676C54.1194 154.676 51.9194 148.41 57.4194 146.761C57.4194 146.761 59.0694 137.307 66.5494 141.594C67.0994 141.924 67.7594 141.924 68.4194 141.704C70.3994 140.715 74.9094 135.878 77.9894 143.243C78.2094 143.793 78.8694 144.013 79.3094 144.123C81.6194 144.232 87.0094 145.112 82.6094 151.928C82.6094 151.928 80.5194 154.456 77.1094 154.676C77.1094 154.676 60.9394 165.779 56.3194 163.91C51.4794 161.821 51.6994 156.874 54.1194 154.676Z" fill="#170856"/>
<path d="M69.5194 151.488C69.7394 151.378 78.3194 148.63 76.9994 156.325C76.9994 156.545 77.2194 163.36 71.7194 167.318C71.6094 167.428 71.6094 167.428 71.4994 167.538C71.1694 167.867 69.6294 169.186 67.2094 166.988C65.0094 164.899 64.2394 166.328 64.0194 166.988C63.9094 167.098 63.9094 167.318 63.7994 167.428C63.4694 168.087 62.3694 169.516 63.0294 170.616C63.7994 171.715 64.6794 173.034 65.0094 173.364V173.474C63.6894 173.364 51.2594 172.594 51.4794 169.736L52.2494 166.658L52.4694 166.548C52.4694 166.548 52.5794 166.548 52.5794 166.438L56.5395 163.58C56.7595 163.58 60.6094 163.91 61.9294 162.371C61.9294 162.371 63.5794 160.502 64.3494 157.974C64.5694 157.204 64.4594 156.435 64.0194 155.885C63.3594 155.005 62.6994 153.466 64.3494 152.367C64.3494 152.367 65.6694 151.378 66.7694 152.807L66.8794 153.027C66.9894 153.137 67.2094 153.247 67.3194 153.137L69.5194 151.488Z" fill="#FFBF9C"/>
<path d="M52.2498 166.658C52.2498 166.658 57.9698 171.935 64.4598 172.594C64.4598 172.594 67.9798 176.552 68.5298 185.126C69.0798 193.701 69.4098 213.049 68.8598 214.258C68.3098 215.467 37.8398 215.247 37.8398 215.247C37.8398 215.247 40.0398 184.027 43.7798 177.541C43.6698 177.541 49.0598 168.087 52.2498 166.658Z" fill="#DE051F"/>
<path d="M49.499 189.963C49.499 189.963 50.049 201.506 51.039 205.683C52.029 209.861 52.579 211.73 56.979 212.389C61.269 213.049 72.709 213.818 75.019 213.379C77.329 212.939 84.589 214.808 84.589 214.808C84.589 214.808 86.899 215.467 87.009 213.928C87.229 212.499 89.649 213.708 89.759 214.368C89.979 215.027 91.189 215.797 91.519 214.148C91.849 212.499 91.739 210.41 88.769 209.751C85.799 209.091 83.049 209.751 79.969 209.971C77.219 210.191 75.349 209.311 74.799 209.311L60.719 206.123C60.719 206.123 58.959 205.464 58.629 202.935C58.299 200.407 58.299 189.524 58.299 189.524L49.499 189.963Z" fill="#FFBF9C"/>
<path d="M48.0693 191.173H59.1793C59.2893 183.038 58.5193 175.233 54.2293 175.233C54.1193 175.233 48.0693 173.914 48.0693 191.173Z" fill="#EE384E"/>
<path d="M100.099 230.528C100.099 230.528 103.289 249.765 103.729 254.602C104.169 259.439 106.479 274.939 106.479 274.939L99.3293 274.719L93.2793 248.336L100.099 230.528Z" fill="#003EB0"/>
<path d="M37.9499 213.269C37.8399 214.148 37.0699 227.12 38.2799 230.418C39.4899 233.386 42.4599 234.375 47.8499 234.815C52.3599 235.145 75.8999 233.935 83.0499 233.496C84.0399 233.386 84.6999 234.595 84.3699 235.694L73.8099 273.29L80.0799 276.588C80.0799 276.588 94.4899 250.205 96.6899 243.939C98.9999 237.673 102.08 226.79 101.86 224.262C101.86 224.262 102.41 219.425 97.0199 218.765C91.7399 218.105 74.9099 214.917 74.3599 214.808L68.8599 214.148L37.9499 213.269Z" fill="#0064E1"/>
<path d="M74.9087 213.489C74.4687 213.379 72.9287 213.489 72.9287 214.698C72.9287 215.797 74.7987 215.907 75.2387 215.907C75.4587 215.907 97.0187 219.095 98.4487 219.205H98.5587C98.8887 219.315 100.869 219.645 102.189 217.556C103.509 215.357 113.959 199.527 115.059 197.769C115.169 197.659 115.169 197.659 115.279 197.549C115.499 197.329 116.159 196.339 115.389 195.35C114.509 194.141 113.079 196.23 113.079 196.23L100.429 216.237C100.099 216.677 99.7687 217.006 99.2187 217.226C98.9987 217.336 98.8887 217.336 98.6687 217.226" fill="#0064B7"/>
<path d="M80.08 276.698C80.08 276.698 83.38 285.053 85.58 286.922C87.34 288.351 86.7899 289.56 86.4599 290C86.3499 290.11 86.2399 290.22 86.0199 290.22C85.5799 290.11 84.6999 290 83.8199 289.23C82.6099 288.131 70.6199 279.336 70.6199 279.336C70.6199 279.336 70.0699 278.127 70.9499 276.808C71.8299 275.599 73.7 273.29 73.7 273.29L80.08 276.698Z" fill="#2B2377"/>
<path d="M106.371 274.72C106.811 275.05 112.641 280.436 115.611 281.645C115.941 281.755 116.161 281.865 116.491 282.085C116.711 282.195 116.931 282.305 117.151 282.415C117.371 282.525 117.481 282.635 117.591 282.745C117.701 282.855 117.811 282.964 117.921 283.074C118.031 283.184 118.031 283.184 118.141 283.294C118.141 283.404 118.251 283.404 118.251 283.514C118.251 283.514 118.251 283.624 118.361 283.624C118.361 283.734 118.361 283.734 118.361 283.844C118.361 283.954 118.361 283.954 118.361 284.064C118.361 284.174 118.361 284.174 118.361 284.284L99.2209 281.755C99.1109 281.755 99.1109 281.755 99.1109 281.645C98.8909 281.535 98.3409 280.986 98.4509 279.777C98.5609 278.457 99.2209 275.379 99.3309 274.83C99.3309 274.83 99.3309 274.72 99.4409 274.72H106.371Z" fill="#2B2377"/>
</g>
<defs>
<clipPath id="clip0_2928_17945">
<rect width="506" height="417" fill="white"/>
</clipPath>
</defs>
</svg>
