<svg width="442" height="406" viewBox="0 0 442 406" fill="none" xmlns="http://www.w3.org/2000/svg">
<path d="M322.621 362.439C378.891 362.439 424.466 316.764 424.466 260.395C424.466 204.026 378.891 158.351 322.621 158.351C266.352 158.351 220.777 204.026 220.777 260.395C220.777 316.764 266.352 362.439 322.621 362.439Z" stroke="#0054A3" stroke-miterlimit="10" stroke-dasharray="6 6"/>
<path d="M135.224 316.465C191.693 316.465 237.467 270.59 237.467 213.921C237.467 157.352 191.693 111.377 135.224 111.377C78.7545 111.377 32.9797 157.252 32.9797 213.921C32.8797 270.59 78.7545 316.465 135.224 316.465Z" stroke="#0054A3" stroke-miterlimit="10" stroke-dasharray="6 6"/>
<path d="M21.9862 334.555L13.5908 342.95L21.9862 351.345L30.3816 342.95L21.9862 334.555Z" fill="#EE384E"/>
<path d="M360.2 176.441L353.903 182.738L360.2 189.034L366.496 182.738L360.2 176.441Z" fill="#003EB0"/>
<path d="M421.866 362.539L412.171 372.333L421.866 382.128L431.56 372.333L421.866 362.539Z" fill="#003EB0"/>
<path d="M292.738 117.273L287.041 122.97L292.738 128.667L298.435 122.97L292.738 117.273Z" fill="#003EB0"/>
<path d="M351.405 266.592C351.405 266.592 357.302 250.5 370.695 254.398C384.087 258.296 389.784 278.485 380.589 286.681C371.494 294.876 362.499 291.778 363.598 301.073C364.598 310.468 363.399 336.953 350.106 336.953C336.813 336.953 332.316 323.161 318.723 334.754C305.131 346.348 310.628 376.431 285.142 368.935C259.556 361.54 220.077 337.553 251.56 306.57C283.143 275.587 287.04 316.564 304.431 287.28C321.821 257.996 327.418 274.987 338.512 276.486C349.606 277.885 351.405 266.592 351.405 266.592Z" fill="#1F3C6E"/>
<path d="M344.51 294.776C344.51 294.776 302.932 312.667 272.149 340.351C241.366 368.036 238.768 378.43 238.768 378.43" fill="#EE384E"/>
<path d="M178.999 313.666C178.999 313.666 141.819 252.3 101.741 222.816" stroke="#FCBE42" stroke-width="0.5444" stroke-miterlimit="10"/>
<path d="M74.0576 208.323C74.0576 208.323 82.8528 228.512 105.94 225.914C105.94 225.914 101.043 207.124 74.0576 208.323Z" stroke="#FCBE42" stroke-width="0.5444" stroke-miterlimit="10"/>
<path d="M135.524 254.698C135.524 254.698 119.733 241.905 99.5439 255.698C99.5439 255.698 110.038 271.289 135.524 254.698Z" stroke="#FCBE42" stroke-width="0.5444" stroke-miterlimit="10"/>
<path d="M164.908 292.477C164.908 292.477 151.815 276.786 129.428 286.381C129.428 286.381 136.624 303.671 164.908 292.477Z" stroke="#FCBE42" stroke-width="0.5444" stroke-miterlimit="10"/>
<path d="M165.707 292.177C165.707 292.177 153.614 275.687 168.206 256.097C168.306 256.097 183.398 267.391 165.707 292.177Z" stroke="#FCBE42" stroke-width="0.5444" stroke-miterlimit="10"/>
<path d="M135.224 254.698C135.224 254.698 121.232 240.006 133.225 218.618C133.225 218.618 149.617 227.813 135.224 254.698Z" stroke="#FCBE42" stroke-width="0.5444" stroke-miterlimit="10"/>
<path d="M346.209 236.608C346.209 236.608 330.917 235.709 336.514 246.603C342.111 257.497 341.811 264.593 330.217 268.391C318.624 272.189 314.126 279.485 315.725 286.481C317.324 293.477 322.422 305.77 306.43 310.068C290.439 314.366 259.956 324.96 253.16 308.069C246.363 291.078 258.257 265.592 270.25 262.194C282.344 258.896 292.138 263.694 296.836 250.601C301.433 237.508 288.34 234.809 297.835 223.715C307.33 212.522 316.125 200.328 333.915 210.123C350.106 218.818 354.704 235.009 346.209 236.608Z" fill="#EE384E"/>
<path d="M328.718 233.01C328.718 233.01 268.351 302.872 257.257 324.16" stroke="white" stroke-width="0.5444" stroke-miterlimit="10"/>
<path d="M304.731 290.279L280.644 291.078L273.748 271.989" stroke="#FCBE42" stroke-width="0.5444" stroke-miterlimit="10"/>
<path d="M329.418 254.798L311.927 252.799L304.231 237.507" stroke="white" stroke-width="0.5444" stroke-miterlimit="10"/>
<path d="M76.756 261.095C76.756 261.095 70.8592 245.004 57.4666 248.902C44.0739 252.799 38.3771 272.988 47.572 281.184C56.667 289.379 65.6621 286.281 64.5627 295.576C63.5632 304.971 64.7626 331.456 78.0553 331.456C91.348 331.456 95.8455 317.664 109.438 329.257C123.031 340.851 117.534 370.935 143.02 363.439C168.506 355.943 208.084 332.056 176.601 301.073C145.019 270.09 141.121 311.067 123.73 281.784C106.34 252.5 100.743 269.49 89.6489 270.989C78.555 272.389 76.756 261.095 76.756 261.095Z" fill="#EE384E"/>
<path d="M83.6523 289.279C83.6523 289.279 125.23 307.169 156.013 334.854C186.796 362.539 189.394 372.933 189.394 372.933" stroke="white" stroke-width="0.5444" stroke-miterlimit="10" stroke-linecap="round" stroke-linejoin="round"/>
<path d="M271.549 277.886L300.833 322.561C300.833 322.561 306.63 331.656 314.725 329.057C323.82 326.259 381.089 303.971 387.085 301.173C393.182 298.474 405.675 292.577 407.674 283.882C409.673 275.287 403.277 271.989 403.277 271.989C403.277 271.989 401.278 270.49 399.479 273.388C397.68 276.186 393.682 284.182 393.682 284.182C393.682 284.182 390.783 287.38 391.483 283.183C392.183 278.985 392.982 274.687 389.584 278.385C386.086 282.183 385.087 288.88 373.893 292.478C362.599 296.176 321.022 306.87 321.022 306.87C321.022 306.87 316.724 308.869 313.026 304.371C309.228 299.774 291.638 265.792 291.638 265.792L271.549 277.886Z" fill="#FDC09B"/>
<path d="M162.109 276.486L133.025 320.662C133.025 320.662 127.228 329.557 119.132 327.059C110.037 324.36 53.1685 302.272 47.1717 299.474C41.0751 296.775 28.6819 290.978 26.683 282.283C24.6841 273.788 30.9806 270.49 30.9806 270.49C30.9806 270.49 32.9795 269.09 34.7785 271.789C36.5776 274.587 40.5754 282.483 40.5754 282.483C40.5754 282.483 43.4738 285.681 42.7742 281.484C42.0745 277.286 41.3749 273.088 44.6731 276.786C47.9713 280.584 49.0707 287.181 60.2646 290.779C71.5584 294.477 112.836 305.071 112.836 305.071C112.836 305.071 117.033 307.07 120.831 302.572C124.629 298.075 142.12 264.393 142.12 264.393L162.109 276.486Z" fill="#FDC09B"/>
<path d="M164.207 167.246C164.207 167.246 170.404 165.547 169.304 152.854C168.205 140.161 160.609 129.667 172.003 123.17C183.396 116.674 187.094 114.375 192.392 108.978C197.689 103.581 200.787 99.2833 218.977 101.082C218.977 101.082 233.369 89.3888 246.162 99.883C258.955 110.377 254.957 137.562 257.756 141.86C260.554 146.158 277.845 163.148 279.644 177.64C281.543 192.132 271.848 201.127 257.756 200.428C243.663 199.728 224.674 200.428 224.674 200.428L180.098 192.632C180.098 192.432 165.706 184.437 164.207 167.246Z" fill="#180857"/>
<path d="M205.585 183.038C205.585 183.038 205.885 197.23 202.786 201.927C199.788 206.625 193.991 208.324 193.991 208.324C193.991 208.324 200.188 227.913 210.282 227.513C220.377 227.114 231.571 220.917 235.668 218.618C239.766 216.32 238.667 209.523 238.667 209.523C238.667 209.523 231.671 207.624 228.772 198.929C225.874 190.334 225.974 177.441 225.974 177.441L205.585 183.038Z" fill="#FFB07E"/>
<path d="M284.641 380.729C284.641 380.729 298.733 381.428 308.928 381.428C319.022 381.428 335.313 383.527 335.313 383.527C335.313 383.527 339.611 383.527 339.911 388.724C340.21 393.922 340.21 396.02 340.21 396.02C340.21 396.02 340.51 402.317 335.613 402.317C330.716 402.317 299.433 405.815 292.437 405.815C285.44 405.815 280.143 407.214 280.143 402.317C280.143 397.52 279.844 380.329 284.641 380.729Z" fill="#160758"/>
<path d="M218.579 358.242L167.007 341.551" stroke="#B70B28" stroke-width="0.1361" stroke-miterlimit="10"/>
<path d="M119.433 326.659C119.433 326.659 250.961 367.536 279.745 377.531C279.745 377.531 289.24 379.929 289.539 384.827C289.839 389.724 288.84 396.72 287.84 400.218C286.841 403.716 283.543 406.515 278.346 405.415C273.048 404.416 155.313 381.029 108.539 368.835L95.1461 364.638C95.1461 364.638 85.3515 360.04 87.0505 348.247C88.7496 336.353 97.6447 325.859 103.841 325.159C110.338 324.56 119.433 326.659 119.433 326.659Z" fill="#003EB0"/>
<path d="M107.539 384.627C107.539 384.627 124.03 381.928 133.924 381.429C143.719 381.129 156.712 380.029 158.911 381.429C161.009 382.828 162.808 401.618 162.808 401.618C162.808 401.618 164.508 406.815 151.515 405.815C138.522 404.816 108.638 403.716 108.638 403.716C108.638 403.716 101.942 403.417 101.642 397.42C101.342 391.523 102.342 388.725 102.342 388.725C102.342 388.725 103.241 385.227 107.539 384.627Z" fill="#160758"/>
<path d="M185.896 367.836C185.896 367.836 265.753 343.749 294.237 335.454C322.721 327.158 338.513 319.363 347.708 332.755C356.803 345.948 356.103 360.74 345.609 364.838C335.015 369.035 252.06 388.225 217.579 395.221C183.098 402.217 160.61 406.715 157.412 405.415C154.314 404.016 150.716 393.922 151.415 388.325C152.115 382.728 152.415 380.629 159.111 377.831C165.807 374.732 185.896 367.836 185.896 367.836Z" fill="#0064E1"/>
<path d="M257.257 330.157H176.601L167.106 341.551L219.078 357.942L265.952 343.949L257.257 330.157Z" fill="#0064B7"/>
<path d="M294.336 265.892L275.646 228.412C275.646 228.412 264.353 203.226 236.168 205.924L241.965 219.317L271.049 280.284L294.336 265.892Z" fill="#F79F03"/>
<path d="M139.321 264.693L157.911 227.513C157.911 227.513 169.105 202.627 197.19 205.325L191.393 218.518L162.409 278.885L139.321 264.693Z" fill="#F79F03"/>
<path d="M215.88 194.531C228.873 194.531 239.367 176.741 239.367 154.753C239.367 132.765 228.873 114.975 215.88 114.975C202.887 114.975 192.393 132.765 192.393 154.753C192.393 176.741 202.887 194.531 215.88 194.531Z" fill="#FFBE9B"/>
<path d="M193.992 150.056C193.992 150.056 185.097 149.157 183.797 154.554C182.598 159.951 186.596 164.848 193.992 165.947C201.388 167.047 193.992 150.056 193.992 150.056Z" fill="#FFBE9B"/>
<path d="M176.6 330.157H257.356C257.356 330.157 259.055 259.396 256.057 240.206C254.058 227.413 249.86 214.62 241.665 207.924C241.665 207.924 239.266 205.625 236.367 206.125C235.468 206.325 234.468 206.825 233.469 207.924C229.671 212.222 223.574 219.818 212.88 218.518C202.286 217.319 199.887 208.524 199.887 208.524C199.887 208.524 197.189 202.227 192.192 207.125C187.094 212.022 173.802 217.319 173.802 257.497L176.6 330.157Z" fill="#FCBE42"/>
<path d="M218.978 142.459C233.37 136.862 242.665 126.268 239.767 118.772C236.868 111.276 222.876 109.677 208.484 115.274C194.092 120.871 184.797 131.465 187.695 138.961C190.594 146.457 204.586 148.056 218.978 142.459Z" fill="#180857"/>
<path d="M231.47 257.996L217.978 265.792C217.478 266.092 216.978 266.092 216.479 265.792L202.986 257.996C202.486 257.697 202.187 257.197 202.187 256.697V241.206C202.187 240.706 202.486 240.206 202.986 239.906L216.479 232.111C216.978 231.811 217.478 231.811 217.978 232.111L231.47 239.906C231.97 240.206 232.27 240.706 232.27 241.206V256.597C232.17 257.197 231.87 257.697 231.47 257.996Z" fill="white"/>
<path d="M217.179 248.901L227.673 242.705L217.179 237.108V248.901Z" fill="#0A489B"/>
<path d="M217.179 260.395L206.685 254.498V242.705L217.179 237.108V260.395Z" fill="#0F68DE"/>
<path d="M216.779 249.101L206.685 254.498" stroke="#D9D9D9" stroke-width="0.1" stroke-miterlimit="10" stroke-linecap="square" stroke-linejoin="bevel"/>
<path d="M217.179 248.901L206.685 242.705L217.179 237.108V248.901Z" fill="#0F68DE"/>
<path d="M217.179 260.695L206.685 254.498L217.179 248.901V260.695Z" fill="#3F86E4"/>
<path d="M222.332 14.7919L214.236 0.799594C214.536 0.499758 214.836 0.399811 215.136 0.199921C212.737 0.999482 211.637 3.59806 211.637 3.59806L196.846 29.0841C196.646 29.8836 196.546 30.5832 196.646 31.2829H212.837L222.332 14.7919Z" fill="#34A853"/>
<path d="M222.331 14.7919L231.926 31.3828H248.117C248.117 30.7831 248.117 29.9835 247.917 29.184L233.025 3.69797C233.025 3.69797 231.926 1.0994 229.527 0.299835C229.827 0.39978 230.127 0.599669 230.427 0.899505L222.331 14.7919Z" fill="#FBBC05"/>
<path d="M222.331 14.7919L230.426 0.79956C230.126 0.499725 229.826 0.399778 229.527 0.199887C229.127 0.0999421 228.827 0 228.427 0H228.027H216.734H216.334C215.934 0 215.534 0.0999421 215.234 0.199887C214.935 0.299832 214.635 0.499725 214.335 0.79956L222.331 14.7919Z" fill="#188038"/>
<path d="M212.736 31.3828L204.74 45.1752C204.74 45.1752 204.44 45.0753 204.141 44.7754C205.24 45.6749 206.339 45.7749 206.339 45.7749H237.822C239.521 45.7749 239.921 45.1752 239.921 45.1752L231.925 31.3828H212.736Z" fill="#4285F4"/>
<path d="M212.736 31.3828H196.545C196.645 33.2817 197.444 34.3811 197.444 34.3811L198.044 35.3806C198.044 35.4805 198.144 35.4805 198.144 35.4805L199.443 37.7793L202.442 42.8765C202.542 43.0764 202.642 43.2763 202.742 43.4761C202.742 43.5761 202.841 43.5761 202.841 43.676C202.841 43.676 202.841 43.676 202.841 43.776C203.241 44.2757 203.641 44.6755 204.041 44.9753C204.441 45.2752 204.64 45.3751 204.64 45.3751L212.736 31.3828Z" fill="#1967D2"/>
<path d="M231.926 31.3828H248.117C248.017 33.2817 247.217 34.3811 247.217 34.3811L246.618 35.3806C246.618 35.4805 246.518 35.4805 246.518 35.4805L245.219 37.7793L242.22 42.8765C242.12 43.0764 242.02 43.2763 241.92 43.4761C241.92 43.5761 241.82 43.5761 241.82 43.676C241.82 43.676 241.82 43.676 241.82 43.776C241.421 44.2757 241.021 44.6755 240.621 44.9753C240.221 45.2752 240.021 45.3751 240.021 45.3751L231.926 31.3828Z" fill="#EA4335"/>
<path d="M298.271 60.0982L298.307 69.3283L298.332 75.7728C298.338 77.3111 299.59 78.5535 301.087 78.5477L327.821 78.4434L327.785 69.2133L307.495 69.2925L307.459 60.0624L298.271 60.0982Z" fill="#FBC02D"/>
<path d="M336.979 59.9482L337.015 69.1783L327.785 69.2143L327.749 59.9842L336.979 59.9482Z" fill="#4CAF50"/>
<path d="M327.785 69.2138L337.015 69.1778L337.041 75.6222C337.047 77.1606 335.804 78.4128 334.266 78.4188L327.821 78.4439L327.785 69.2138Z" fill="#2E7D32"/>
<path d="M327.713 50.7934L327.749 59.9819L307.459 60.0611L307.423 50.8726L327.713 50.7934Z" fill="#1E88E5"/>
<path d="M327.75 59.9809L327.714 50.7508L334.158 50.7257C335.697 50.7197 336.949 51.9621 336.955 53.5005L336.98 59.9449L327.75 59.9809Z" fill="#1565C0"/>
<path d="M307.424 50.871L307.46 60.0595L298.271 60.0954L307.424 50.871Z" fill="#E53935"/>
<path d="M97.2715 58.981L97.3346 71.2281L106.094 71.1829L106.031 58.9359L97.2715 58.981Z" fill="#1E88E5"/>
<path d="M127.109 64.9496L127.172 77.2372C127.179 78.6971 126.009 79.8792 124.55 79.8868L106.138 79.9816L106.093 71.1816L118.381 71.1183L118.349 64.9948L127.109 64.9496Z" fill="#4CAF50"/>
<path d="M127.044 52.6658L127.107 64.9534L118.348 64.9985L118.316 58.875L106.029 58.9383L105.983 50.1383L124.395 50.0434C125.854 50.0359 127.037 51.2059 127.044 52.6658Z" fill="#FBC02D"/>
<path d="M106.092 71.184L106.137 79.9434L100.013 79.975C98.5532 79.9825 97.3711 78.8125 97.3636 77.3526L97.332 71.2291L106.092 71.184Z" fill="#1565C0"/>
<path d="M105.984 50.1365L106.029 58.9366L97.27 58.9817L105.984 50.1365Z" fill="#E53935"/>
<path d="M128 64.947L127.147 72.3728L118.349 64.9967L127.07 57.5304L128 64.947Z" fill="#2E7D32"/>
<path d="M134.956 52.7463L135.082 77.0782C135.086 77.8081 134.236 78.2181 133.666 77.7749L127.15 72.3742L127.073 57.5318L133.534 52.0642C134.099 51.5746 134.952 51.9758 134.956 52.7463Z" fill="#4CAF50"/>
<path d="M395.702 118.375L396.661 119.74L398.137 118.67V126.416H399.723V116.235H398.395L395.702 118.375Z" fill="#1E88E5"/>
<path d="M393.153 121.035C393.744 120.519 394.112 119.744 394.112 118.933C394.112 117.31 392.674 115.982 390.94 115.982C389.465 115.982 388.174 116.904 387.842 118.269L389.391 118.674C389.538 118.047 390.202 117.605 390.94 117.605C391.825 117.605 392.526 118.195 392.526 118.933C392.526 119.67 391.825 120.261 390.94 120.261H390.018V121.884H390.94C391.936 121.884 392.785 122.584 392.785 123.396C392.785 124.244 391.973 124.908 390.977 124.908C390.092 124.908 389.317 124.355 389.206 123.58L387.657 123.839C387.915 125.351 389.354 126.494 391.014 126.494C392.895 126.494 394.408 125.093 394.408 123.359C394.371 122.437 393.891 121.589 393.153 121.035Z" fill="#1E88E5"/>
<path d="M403.451 137.962H384.86V130.548H403.451V137.962Z" fill="#FBC02D"/>
<path d="M410.862 130.553V111.962H403.447V130.553H410.862Z" fill="#4CAF50"/>
<path d="M403.449 111.96V104.546H380.211C378.661 104.546 377.407 105.8 377.407 107.35V130.588H384.822V111.96H403.449Z" fill="#1E88E5"/>
<path d="M403.446 130.551V137.966L410.861 130.551H403.446Z" fill="#E53935"/>
<path d="M408.094 104.546H403.446V111.96H410.861V107.313C410.861 105.763 409.643 104.546 408.094 104.546Z" fill="#1565C0"/>
<path d="M380.211 137.962H384.859V130.548H377.444V135.196C377.444 136.745 378.662 137.962 380.211 137.962Z" fill="#1565C0"/>
<path d="M48.4057 113.048L39.3098 120.165L30.0059 113.048V113.049L30.0171 113.059V123.026L39.2049 130.297L48.4057 123.307V113.048Z" fill="#EA4335"/>
<path d="M50.9635 111.34L48.4053 113.081V123.398L56.4552 117.579V114.074C56.4552 114.074 55.4781 109.067 50.9635 111.34Z" fill="#FBBC05"/>
<path d="M48.4053 123.573V137.198H54.5736C54.5736 137.198 56.329 137.025 56.4552 135.106V117.648L48.4053 123.573Z" fill="#34A853"/>
<path d="M30.006 113.129L27.458 111.355C22.9367 109.026 21.9561 114.154 21.9561 114.154V117.745L30.006 123.398V113.129Z" fill="#C5221F"/>
<path d="M21.9551 117.648V135.106C22.0795 137.027 23.8367 137.198 23.8367 137.198H30.005L29.991 123.264L21.9551 117.648Z" fill="#4285F4"/>
<path d="M20.169 184.805L5.24978 199.724C4.74703 200.227 4.46484 200.908 4.46484 201.619V217.476C4.46484 218.462 5.26407 219.262 6.25082 219.262H36.6125C37.5992 219.262 38.3985 218.462 38.3985 217.476V201.619C38.3985 200.908 38.1163 200.227 37.6135 199.725L22.6943 184.805C21.9969 184.107 20.8664 184.107 20.169 184.805Z" fill="#FAFAFA"/>
<path d="M10.7158 212.118H32.1476V219.262H10.7158V212.118Z" fill="#43A047"/>
<path d="M11.6088 202.295V219.262H6.25082C5.26853 219.262 4.46484 218.458 4.46484 217.476V202.295H11.6088Z" fill="#FBC02D"/>
<path d="M37.613 199.723L26.4239 188.534L21.4678 193.49L31.2549 203.277V219.262H36.6129C37.5952 219.262 38.3989 218.458 38.3989 217.476V201.616C38.3989 200.911 38.1131 200.223 37.613 199.723Z" fill="#1E88E5"/>
<path d="M26.4235 188.534L4.46484 210.492V201.616C4.46484 200.911 4.7506 200.223 5.25067 199.723L20.1725 184.801C20.8691 184.105 21.9942 184.105 22.6908 184.801L26.4235 188.534Z" fill="#E64A19"/>
<path d="M424.054 192.82L413.265 186.591L400.807 207.675L411.596 213.904L424.054 192.82Z" fill="#FFC107"/>
<path d="M425.724 213.904C427.444 216.883 431.327 217.875 434.233 216.184C437.207 214.453 438.233 210.654 436.513 207.675L424.055 186.591C422.334 183.612 418.463 182.62 415.546 184.311C412.569 186.037 411.546 189.841 413.266 192.82L425.724 213.904Z" fill="#1E88E5"/>
<path d="M406.202 217.018C409.642 217.018 412.431 214.229 412.431 210.789C412.431 207.349 409.642 204.56 406.202 204.56C402.762 204.56 399.973 207.349 399.973 210.789C399.973 214.229 402.762 217.018 406.202 217.018Z" fill="#43A047"/>
</svg>
