<svg width="490" height="426" viewBox="0 0 490 426" fill="none" xmlns="http://www.w3.org/2000/svg">
<path d="M88.0994 247.041C131.601 247.041 166.867 211.775 166.867 168.273C166.867 124.771 131.601 89.5059 88.0994 89.5059C44.5974 89.5059 9.33203 124.771 9.33203 168.273C9.33203 211.775 44.5974 247.041 88.0994 247.041Z" stroke="#2626DB" stroke-miterlimit="10" stroke-dasharray="6 6"/>
<path d="M13.9966 154.955C21.3588 154.955 27.3271 148.987 27.3271 141.624C27.3271 134.262 21.3588 128.294 13.9966 128.294C6.6343 128.294 0.666016 134.262 0.666016 141.624C0.666016 148.987 6.6343 154.955 13.9966 154.955Z" fill="#FCBE42"/>
<path d="M9.33203 138.953L14.6621 146.953L18.6677 140.277" stroke="white" stroke-width="2" stroke-miterlimit="10"/>
<path d="M412.7 291.277C440.59 291.277 463.2 268.668 463.2 240.778C463.2 212.887 440.59 190.278 412.7 190.278C384.81 190.278 362.2 212.887 362.2 240.778C362.2 268.668 384.81 291.277 412.7 291.277Z" stroke="#DE051F" stroke-miterlimit="10" stroke-dasharray="6 6"/>
<path d="M478.971 167.645C478.971 167.645 471.937 186.089 463.329 179.272C454.72 172.454 451.084 175.266 447.48 178.36C443.876 181.454 439.772 189.66 431.077 181.985C422.382 174.3 420.873 167.016 414.739 166.701C408.595 166.386 384.257 156.942 390.369 148.529C396.491 140.116 411.342 141.266 417.475 143.427C423.608 145.576 430.979 141.104 435.712 136.306C440.445 131.507 449.618 129.575 452.147 138.238C454.677 146.9 463.209 151.894 469.343 150.179C475.498 148.453 483.531 155.064 478.971 167.645Z" fill="#023EA1"/>
<path d="M465.892 163.987L382.924 143.177" stroke="white" stroke-miterlimit="10" stroke-linecap="round" stroke-linejoin="round"/>
<path d="M439.57 174.212L432.178 155.53L446.149 141.961" stroke="white" stroke-miterlimit="10" stroke-linecap="round" stroke-linejoin="round"/>
<path d="M461.55 105.454C461.55 105.454 471.147 105.291 471.592 97.4533C472.026 89.6265 462.365 82.8961 456.34 86.2288C450.293 89.5614 450.315 94.8589 445.549 92.6226C440.784 90.3864 426.509 86.1419 424.077 93.1654C421.635 100.178 428.148 105.128 419.464 110.198C410.779 115.256 395.918 106.811 395.158 121.737C394.398 136.663 399.75 162.065 421.993 151.036C444.236 140.018 423.252 130.345 441.989 126.535C460.725 122.714 452.779 116.559 454.006 110.436C455.211 104.314 461.55 105.454 461.55 105.454Z" fill="#EE384E"/>
<path d="M445.331 103.912C445.331 103.912 428.147 122.681 407.858 133.938C387.569 145.195 381.512 144.587 381.512 144.587" stroke="white" stroke-miterlimit="10" stroke-linecap="round" stroke-linejoin="round"/>
<path d="M137.772 27.1964C137.772 27.1964 131.269 38.2472 141.408 38.2798C151.547 38.3124 156.801 41.1999 155.195 51.263C153.588 61.3152 157.236 67.4811 163.054 68.9574C168.873 70.4229 179.934 71.389 177.036 84.9367C174.138 98.4952 170.327 125.232 155.108 123.799C139.889 122.356 125.472 103.749 127.633 93.5125C129.793 83.2758 137.196 77.7721 129.196 69.3482C121.195 60.9244 114.237 69.663 109.58 58.2865C104.923 46.9099 99.1805 35.7939 113.314 26.1868C125.994 17.5567 139.769 20.238 137.772 27.1964Z" stroke="#DE051F" stroke-miterlimit="10"/>
<path d="M128.393 38.8865C128.393 38.8865 157.181 110.511 168.742 126.979" stroke="#DE051F" stroke-miterlimit="10"/>
<path d="M161.729 78.5972L153.121 96.7693L136.306 94.6416" stroke="#DE051F" stroke-miterlimit="10"/>
<path d="M144.784 46.6917L136.642 58.8932L122.356 58.8281" stroke="#DE051F" stroke-miterlimit="10"/>
<path d="M411.223 157.569C411.223 157.569 444.212 134.49 471.481 128.422" stroke="#FCBE42" stroke-miterlimit="10"/>
<path d="M489 127.283C489 127.283 479.882 135.653 468.668 129.107C468.657 129.107 475.377 120.574 489 127.283Z" stroke="#FCBE42" stroke-miterlimit="10"/>
<path d="M446.905 137.173C446.905 137.173 457.945 134.198 465.229 145.836C465.229 145.836 456.295 151.448 446.905 137.173Z" stroke="#FCBE42" stroke-miterlimit="10"/>
<path d="M423.249 149.918C423.249 149.918 433.486 144.848 442.908 154.835C442.908 154.835 435.255 162.087 423.249 149.918Z" stroke="#FCBE42" stroke-miterlimit="10"/>
<path d="M422.903 149.592C422.903 149.592 432.803 143.882 429.709 130.508C429.72 130.508 419.429 132.874 422.903 149.592Z" stroke="#FCBE42" stroke-miterlimit="10"/>
<path d="M447.056 137.238C447.056 137.238 457.608 132.831 456.24 119.175C456.24 119.186 445.754 120.206 447.056 137.238Z" stroke="#FCBE42" stroke-miterlimit="10"/>
<path d="M164.465 32.0385C164.465 32.0385 188.684 29.596 185.916 42.8614C183.147 56.1268 188.26 58.5693 193.666 60.8381C199.072 63.0961 210.384 63.1069 206.715 76.9368C203.045 90.7667 195.837 96.4332 198.888 103.381C201.938 110.328 204.956 142.395 192.309 140.279C179.652 138.162 172.726 121.151 171.706 113.205C170.685 105.259 161.686 99.603 153.783 97.0303C145.891 94.4684 138.672 85.4149 146.836 77.8595C154.988 70.3041 155.77 58.1351 150.505 52.3057C145.24 46.4546 148.084 33.9599 164.465 32.0385Z" fill="#FCBE42"/>
<path d="M167.667 48.4849L190.529 151.438" stroke="white" stroke-miterlimit="10" stroke-linecap="round" stroke-linejoin="round"/>
<path d="M193.472 71.8455L176.949 90.3106L154.283 82.4078" stroke="white" stroke-miterlimit="10" stroke-linecap="round" stroke-linejoin="round"/>
<path d="M459.921 233.668C464.633 233.668 468.453 229.848 468.453 225.135C468.453 220.423 464.633 216.603 459.921 216.603C455.209 216.603 451.389 220.423 451.389 225.135C451.389 229.848 455.209 233.668 459.921 233.668Z" fill="#003EB0"/>
<path d="M457.783 221.715L463.341 225.558L457.783 228.554V221.715Z" fill="white"/>
<path d="M442.144 59.9271L437.431 64.6401L442.144 69.3531L446.857 64.6401L442.144 59.9271Z" fill="#003EB0"/>
<path d="M27.3263 261.043L22.6133 265.756L27.3263 270.469L32.0393 265.756L27.3263 261.043Z" fill="#003EB0"/>
<path d="M227.425 69.6449L222.712 74.3579L227.425 79.0709L232.138 74.3579L227.425 69.6449Z" fill="#EE384E"/>
<path d="M338.175 42.5645H323.412C323.173 42.5645 322.978 42.749 322.978 42.9987V49.0777C322.978 49.1863 323.032 49.3057 323.108 49.3817L324.845 51.1186C324.921 51.1946 325.029 51.2488 325.159 51.2488H336.449C336.558 51.2488 336.677 51.1946 336.753 51.1186L338.49 49.3817C338.566 49.3057 338.62 49.1972 338.62 49.0777V42.9878C338.62 42.749 338.414 42.5645 338.175 42.5645ZM337.741 48.8932L336.265 50.3696H325.344L323.868 48.8932V43.422H337.763V48.8932H337.741Z" fill="#003EB0"/>
<path d="M339.034 44.2903L322.522 45.1587C322.284 45.1695 322.099 45.3758 322.11 45.6146C322.121 45.8534 322.305 46.0271 322.544 46.0271C322.555 46.0271 322.555 46.0271 322.566 46.0271L339.077 45.1587C339.316 45.1478 339.5 44.9416 339.489 44.7028C339.468 44.4639 339.262 44.2794 339.034 44.2903Z" fill="#003EB0"/>
<path d="M339.034 46.9057L322.522 47.7741C322.284 47.785 322.099 47.9912 322.11 48.23C322.121 48.4688 322.305 48.6425 322.544 48.6425C322.555 48.6425 322.555 48.6425 322.566 48.6425L339.077 47.7741C339.316 47.7632 339.5 47.557 339.489 47.3182C339.468 47.0685 339.262 46.8731 339.034 46.9057Z" fill="#003EB0"/>
<path d="M330.794 13.0251C322.641 13.0251 316.03 19.647 316.03 27.7886C316.03 32.9233 318.625 37.5803 322.978 40.2941V42.9863C322.978 43.2251 323.173 43.4205 323.412 43.4205H338.175C338.414 43.4205 338.61 43.2251 338.61 42.9863V40.2941C342.963 37.5694 345.557 32.9124 345.557 27.7886C345.557 19.647 338.935 13.0251 330.794 13.0251ZM337.948 39.6754C337.817 39.7514 337.73 39.9033 337.73 40.0553V42.5629H323.835V40.0553C323.835 39.9033 323.759 39.7622 323.618 39.6754C319.395 37.1352 316.888 32.6844 316.888 27.7886C316.888 20.1246 323.119 13.8936 330.783 13.8936C338.447 13.8936 344.678 20.1246 344.678 27.7886C344.689 32.6953 342.17 37.1352 337.948 39.6754Z" fill="#003EB0"/>
<path d="M334.897 50.4225C334.68 50.314 334.419 50.4008 334.311 50.6071C334.278 50.6722 333.497 52.1051 330.794 52.1051C328.091 52.1051 327.298 50.6613 327.276 50.6071C327.168 50.3899 326.918 50.3031 326.701 50.4225C326.484 50.5311 326.397 50.7807 326.506 50.9978C326.538 51.0847 327.537 52.9735 330.794 52.9735C334.05 52.9735 335.049 51.0738 335.082 50.9978C335.201 50.7807 335.114 50.5311 334.897 50.4225Z" fill="#003EB0"/>
<path d="M312.119 27.3557H303.434C303.195 27.3557 303 27.5403 303 27.7899C303 28.0288 303.195 28.2242 303.434 28.2242H312.119C312.357 28.2242 312.553 28.0288 312.553 27.7899C312.553 27.5511 312.357 27.3557 312.119 27.3557Z" fill="#DE051F"/>
<path d="M358.146 27.3557H349.462C349.223 27.3557 349.027 27.5511 349.027 27.7899C349.027 28.0288 349.223 28.2242 349.462 28.2242H358.146C358.385 28.2242 358.58 28.0288 358.58 27.7899C358.591 27.5511 358.385 27.3557 358.146 27.3557Z" fill="#DE051F"/>
<path d="M314.994 36.9088C314.864 36.6917 314.603 36.6374 314.408 36.7459L306.885 41.0881C306.668 41.2184 306.614 41.4789 306.722 41.6743C306.798 41.8154 306.95 41.8914 307.102 41.8914C307.178 41.8914 307.254 41.8806 307.319 41.8263L314.842 37.4841C315.048 37.3755 315.124 37.115 314.994 36.9088Z" fill="#DE051F"/>
<path d="M354.856 13.8846C354.726 13.6675 354.466 13.6132 354.27 13.7218L346.747 18.0748C346.53 18.2051 346.476 18.4656 346.585 18.661C346.661 18.8021 346.813 18.8781 346.965 18.8781C347.04 18.8781 347.116 18.8564 347.182 18.813L354.704 14.4708C354.911 14.3622 354.976 14.1017 354.856 13.8846Z" fill="#DE051F"/>
<path d="M344.686 3.72249C344.469 3.61394 344.208 3.66821 344.099 3.88532L339.757 11.4082C339.627 11.6253 339.703 11.8858 339.92 11.9944C339.996 12.0269 340.072 12.0595 340.137 12.0595C340.289 12.0595 340.441 11.9835 340.517 11.8424L344.859 4.31954C344.968 4.10243 344.892 3.8419 344.686 3.72249Z" fill="#DE051F"/>
<path d="M330.79 0C330.551 0 330.355 0.195398 330.355 0.434219V9.11861C330.355 9.35743 330.551 9.55283 330.79 9.55283C331.029 9.55283 331.224 9.35743 331.224 9.11861V0.434219C331.224 0.195398 331.029 0 330.79 0Z" fill="#DE051F"/>
<path d="M321.835 11.3982L317.493 3.87531C317.362 3.6582 317.102 3.60393 316.907 3.71248C316.689 3.84275 316.635 4.10328 316.744 4.29868L321.086 11.8215C321.162 11.9627 321.314 12.0386 321.466 12.0386C321.542 12.0386 321.618 12.0278 321.683 11.9735C321.878 11.8758 321.954 11.6153 321.835 11.3982Z" fill="#DE051F"/>
<path d="M354.704 41.0994L347.181 36.7572C346.964 36.6486 346.704 36.7029 346.595 36.92C346.465 37.1371 346.541 37.3976 346.758 37.5062L354.281 41.8484C354.357 41.8809 354.433 41.9135 354.498 41.9135C354.65 41.9135 354.802 41.8375 354.878 41.6964C354.976 41.4684 354.91 41.2079 354.704 41.0994Z" fill="#DE051F"/>
<path d="M314.832 18.064L307.309 13.7218C307.092 13.6132 306.832 13.6675 306.723 13.8846C306.593 14.1017 306.669 14.3622 306.886 14.4708L314.409 18.813C314.485 18.8455 314.55 18.8781 314.626 18.8781C314.778 18.8781 314.93 18.8021 315.006 18.661C315.125 18.4547 315.049 18.1942 314.832 18.064Z" fill="#DE051F"/>
<path d="M332.053 42.5638V28.5385C332.053 28.5385 331.857 21.9275 335.461 21.9275C339.065 21.9275 337.405 28.799 330.457 28.799" stroke="#003EB0" stroke-miterlimit="10"/>
<path d="M328.85 42.5638V28.5385C328.85 28.5385 329.045 21.9275 325.441 21.9275C321.837 21.9275 323.498 28.799 330.446 28.799" stroke="#003EB0" stroke-miterlimit="10"/>
<path d="M106.207 105.812H420.452L419.996 314.552L104.861 314.107L106.207 105.812Z" fill="#E9EEF2"/>
<path d="M297.815 320.425C297.793 320.425 297.685 320.946 297.674 320.978C297.565 321.5 297.457 322.031 297.37 322.553C297.229 323.367 297.131 324.192 297.044 325.006C296.947 326.07 296.882 327.134 296.86 328.197C296.838 329.457 296.871 330.716 296.958 331.964C297.055 333.375 297.251 334.776 297.511 336.187C297.804 337.718 298.173 339.216 298.651 340.692C299.161 342.277 299.802 343.851 300.54 345.349C301.343 346.977 302.277 348.53 303.33 350.006C304.48 351.613 305.772 353.122 307.173 354.511C308.736 356.063 310.429 357.464 312.231 358.734C313.241 359.45 314.272 360.178 315.358 360.775C315.705 360.959 316.096 361.111 316.476 361.241C316.541 361.263 317.214 361.459 317.214 361.491V373.953H207.15L207.085 362.229C207.085 362.229 224.291 358.777 227.895 321.803C227.938 321.771 297.815 320.425 297.815 320.425Z" fill="#0064B7"/>
<path d="M298.108 340.259L227.428 325.886L227.927 321.772L298.26 320.871C298.26 320.871 294.352 325.376 298.108 340.259Z" fill="#023EA1"/>
<path d="M317.236 362.197H207.118L207.107 373.921H317.236V362.197Z" fill="#023EA1"/>
<path d="M417.747 89.5933H105.761C92.6797 89.1374 92.6797 99.9712 92.6797 99.9712V151.806V264.074V315.909C92.6797 315.909 92.6797 326.731 105.761 326.286H417.736C417.736 326.286 431.718 326.742 431.718 313.205C431.718 312.869 431.718 312.413 431.718 311.87V305.563C431.718 305.563 431.718 148.723 431.718 110.338C431.718 107.603 431.718 105.453 431.718 104.031C431.718 103.478 431.718 103.032 431.718 102.696C431.707 89.1483 417.747 89.5933 417.747 89.5933ZM417.291 307.344L107.107 309.135L106.651 207.929L107.107 106.723L417.291 108.514L417.747 207.929L417.291 307.344Z" fill="#0064B7"/>
<path d="M120.015 204.195H200.867C204.319 204.195 207.12 201.394 207.12 197.942V120.695C207.12 117.243 204.319 114.442 200.867 114.442H120.015C116.563 114.442 113.763 117.243 113.763 120.695V197.942C113.752 201.394 116.553 204.195 120.015 204.195Z" stroke="#003EB0" stroke-miterlimit="10" stroke-dasharray="6 6"/>
<path d="M221.371 204.195H403.385C406.837 204.195 409.638 201.394 409.638 197.942V120.695C409.638 117.243 406.837 114.442 403.385 114.442H221.371C217.919 114.442 215.118 117.243 215.118 120.695V197.942C215.107 201.394 217.919 204.195 221.371 204.195Z" fill="white"/>
<path d="M392.79 141.548H227.591C224.291 141.548 221.609 138.867 221.609 135.567C221.609 132.267 224.291 129.585 227.591 129.585H392.79C396.09 129.585 398.771 132.267 398.771 135.567C398.771 138.867 396.09 141.548 392.79 141.548Z" fill="#EE384E"/>
<path d="M324.454 155.128H224.942C223.107 155.128 221.609 153.641 221.609 151.796C221.609 149.961 223.097 148.463 224.942 148.463H324.454C326.289 148.463 327.787 149.95 327.787 151.796C327.776 153.641 326.278 155.128 324.454 155.128Z" fill="#DBE9F8"/>
<path d="M232.097 184.676C236.666 184.676 240.369 180.972 240.369 176.404C240.369 171.836 236.666 168.132 232.097 168.132C227.529 168.132 223.825 171.836 223.825 176.404C223.825 180.972 227.529 184.676 232.097 184.676Z" fill="#395196"/>
<path d="M254.38 184.676C258.949 184.676 262.652 180.972 262.652 176.404C262.652 171.836 258.949 168.132 254.38 168.132C249.812 168.132 246.108 171.836 246.108 176.404C246.108 180.972 249.812 184.676 254.38 184.676Z" fill="#3D83D9"/>
<path d="M275.649 184.676C280.217 184.676 283.921 180.972 283.921 176.404C283.921 171.836 280.217 168.132 275.649 168.132C271.08 168.132 267.377 171.836 267.377 176.404C267.377 180.972 271.08 184.676 275.649 184.676Z" fill="#00A9FF"/>
<path d="M297.936 184.676C302.504 184.676 306.208 180.972 306.208 176.404C306.208 171.836 302.504 168.132 297.936 168.132C293.368 168.132 289.664 171.836 289.664 176.404C289.664 180.972 293.368 184.676 297.936 184.676Z" fill="#DD4B39"/>
<path d="M409.649 214.268C409.649 212.911 408.563 211.826 407.206 211.826H116.192C114.836 211.826 113.75 212.911 113.75 214.268V259.872C113.75 260.024 113.761 260.165 113.783 260.307C113.761 260.448 113.75 260.6 113.75 260.741V296.586C113.75 297.942 114.836 299.028 116.192 299.028H407.206C408.563 299.028 409.649 297.942 409.649 296.586V260.741C409.649 260.589 409.638 260.448 409.616 260.307C409.638 260.165 409.649 260.013 409.649 259.872V214.268Z" fill="white"/>
<path d="M198.683 276.873H154.914C153.839 276.873 152.96 275.994 152.96 274.919C152.96 273.845 153.839 272.965 154.914 272.965H198.683C199.758 272.965 200.637 273.845 200.637 274.919C200.648 275.994 199.769 276.873 198.683 276.873Z" fill="#DBE9F8"/>
<path d="M177.571 285.557H154.927C153.852 285.557 152.973 284.678 152.973 283.603C152.973 282.528 153.852 281.649 154.927 281.649H177.571C178.646 281.649 179.525 282.528 179.525 283.603C179.525 284.678 178.646 285.557 177.571 285.557Z" fill="#DBE9F8"/>
<path d="M141.272 273.866C140.609 273.225 139.893 272.65 139.068 272.227C137.874 271.63 136.604 271.358 135.301 271.26C133.89 271.152 132.468 271.174 131.057 271.347C129.103 271.597 127.398 272.357 125.987 273.746C125.727 274.007 125.477 274.3 125.357 274.658C125.325 274.767 125.292 274.897 125.26 275.006C125.26 275.516 125.26 276.015 125.26 276.536C125.531 277.242 125.77 277.415 126.552 277.415C127.116 277.415 127.691 277.415 128.256 277.415C128.994 277.415 129.407 277.003 129.417 276.265C129.417 275.809 129.548 275.386 129.776 275.006C130.199 274.322 130.807 273.866 131.556 273.594C132.37 273.301 133.206 273.28 134.042 273.323C134.726 273.345 135.399 273.464 136.007 273.79C137.06 274.354 137.733 275.179 137.744 276.428C137.744 276.981 138.221 277.415 138.786 277.415C139.459 277.415 140.121 277.415 140.805 277.415C141.445 277.415 141.869 276.992 141.869 276.341C141.869 276.015 141.858 275.679 141.869 275.353C141.89 274.767 141.684 274.267 141.272 273.866Z" fill="#DBE9F8"/>
<path d="M138.004 277.828C137.819 277.556 137.526 277.437 137.19 277.426C137.027 277.426 136.864 277.426 136.68 277.426C136.68 277.014 136.669 276.612 136.68 276.221C136.69 275.874 136.528 275.646 136.245 275.494C135.996 275.353 135.724 275.32 135.442 275.364C134.856 275.461 134.617 275.754 134.606 276.341C134.606 276.688 134.606 277.057 134.606 277.415C133.901 277.415 133.228 277.415 132.533 277.415C132.533 277.003 132.522 276.612 132.533 276.21C132.544 275.885 132.381 275.657 132.109 275.494C131.849 275.353 131.567 275.309 131.284 275.353C130.709 275.45 130.47 275.744 130.47 276.33C130.47 276.677 130.47 277.046 130.47 277.415C130.297 277.415 130.155 277.415 130.003 277.415C129.624 277.415 129.33 277.578 129.113 277.893C128.972 278.088 128.853 278.295 128.723 278.49C127.984 279.652 127.268 280.846 126.725 282.116C126.432 282.778 126.269 283.451 126.313 284.178C126.334 284.678 126.313 285.166 126.313 285.665C126.313 286.317 126.747 286.751 127.398 286.751C131.512 286.751 135.616 286.751 139.741 286.751C140.392 286.751 140.837 286.317 140.837 285.655C140.837 285.134 140.826 284.602 140.837 284.081C140.859 283.408 140.729 282.756 140.479 282.137C139.871 280.574 138.97 279.174 138.004 277.828ZM133.553 285.72C131.849 285.709 130.459 284.309 130.459 282.604C130.47 280.878 131.871 279.489 133.618 279.5C135.323 279.51 136.712 280.911 136.701 282.626C136.68 284.341 135.279 285.731 133.553 285.72Z" fill="#DBE9F8"/>
<path d="M133.574 280.531C132.424 280.531 131.501 281.454 131.501 282.626C131.501 283.755 132.435 284.688 133.564 284.688C134.714 284.688 135.637 283.766 135.637 282.593C135.648 281.464 134.714 280.531 133.574 280.531Z" fill="#DBE9F8"/>
<path d="M141.88 267.081C139.459 267.081 137.516 269.035 137.516 271.444C137.516 273.854 139.47 275.808 141.88 275.808C144.3 275.808 146.243 273.854 146.243 271.444C146.243 269.045 144.289 267.081 141.88 267.081ZM141.88 273.127C140.957 273.127 140.219 272.378 140.219 271.466C140.219 270.543 140.968 269.805 141.88 269.805C142.791 269.805 143.54 270.554 143.54 271.466C143.54 272.378 142.802 273.127 141.88 273.127Z" fill="#2626DB"/>
<path d="M296.934 276.872H253.165C252.09 276.872 251.211 275.993 251.211 274.918C251.211 273.843 252.09 272.964 253.165 272.964H296.934C298.009 272.964 298.888 273.843 298.888 274.918C298.899 275.993 298.02 276.872 296.934 276.872Z" fill="#DBE9F8"/>
<path d="M275.809 285.556H253.165C252.09 285.556 251.211 284.677 251.211 283.602C251.211 282.528 252.09 281.648 253.165 281.648H275.809C276.884 281.648 277.763 282.528 277.763 283.602C277.774 284.677 276.895 285.556 275.809 285.556Z" fill="#DBE9F8"/>
<path d="M218.948 274.191V284.232C218.948 285.589 220.034 286.675 221.391 286.675H241.18C242.537 286.675 243.623 285.589 243.623 284.232V274.191L231.28 280.433L218.948 274.191Z" fill="#DBE9F8"/>
<path d="M243.623 271.119H218.948L231.291 277.361L243.623 271.119Z" fill="#DBE9F8"/>
<path d="M244.069 267.081C241.648 267.081 239.705 269.035 239.705 271.444C239.705 273.854 241.659 275.808 244.069 275.808C246.479 275.808 248.433 273.854 248.433 271.444C248.455 269.045 246.49 267.081 244.069 267.081ZM244.069 273.127C243.146 273.127 242.408 272.378 242.408 271.466C242.408 270.543 243.157 269.805 244.069 269.805C244.992 269.805 245.73 270.554 245.73 271.466C245.73 272.378 244.992 273.127 244.069 273.127Z" fill="#2626DB"/>
<path d="M395.158 276.872H351.389C350.314 276.872 349.435 275.993 349.435 274.918C349.435 273.844 350.314 272.964 351.389 272.964H395.158C396.233 272.964 397.112 273.844 397.112 274.918C397.112 275.993 396.233 276.872 395.158 276.872Z" fill="#DBE9F8"/>
<path d="M374.033 285.557H351.389C350.314 285.557 349.435 284.677 349.435 283.603C349.435 282.528 350.314 281.649 351.389 281.649H374.033C375.108 281.649 375.987 282.528 375.987 283.603C375.987 284.677 375.108 285.557 374.033 285.557Z" fill="#DBE9F8"/>
<path d="M337.136 278.371C336.886 274.496 333.781 271.38 329.884 271.12V271.109H329.374H328.864V271.12C324.988 271.369 321.873 274.485 321.612 278.371H321.602V278.881V279.392H321.612C321.862 283.267 324.978 286.372 328.864 286.643V286.654H329.374H329.884V286.643C333.76 286.393 336.864 283.289 337.136 279.392H337.147V278.881V278.371H337.136ZM326.465 272.813C325.965 273.475 325.553 274.311 325.238 275.267H323.686C324.359 274.203 325.325 273.356 326.465 272.813ZM323.143 276.309H324.967C324.826 276.96 324.739 277.666 324.717 278.382H322.655C322.709 277.644 322.872 276.949 323.143 276.309ZM322.644 279.413H324.706C324.728 280.141 324.815 280.825 324.956 281.487H323.132C322.872 280.857 322.709 280.152 322.644 279.413ZM323.686 282.529H325.238C325.542 283.484 325.955 284.32 326.465 284.982C325.325 284.439 324.359 283.593 323.686 282.529ZM328.853 285.579C327.789 285.286 326.866 284.157 326.313 282.54H328.853V285.579ZM328.853 281.487H326.02C325.868 280.835 325.781 280.152 325.759 279.413H328.864V281.487H328.853ZM328.853 278.371H325.748C325.77 277.644 325.879 276.949 326.009 276.298H328.842V278.371H328.853ZM328.853 275.267H326.313C326.877 273.649 327.789 272.498 328.853 272.227V275.267ZM335.062 275.267H333.51C333.206 274.311 332.794 273.475 332.283 272.813C333.423 273.356 334.378 274.203 335.062 275.267ZM329.884 272.216C330.948 272.509 331.871 273.638 332.424 275.256H329.884V272.216ZM329.884 276.309H332.718C332.87 276.96 332.956 277.644 332.989 278.382H329.884V276.309ZM329.884 279.413H332.989C332.967 280.141 332.859 280.835 332.718 281.487H329.884V279.413ZM329.884 285.579V282.54H332.424C331.882 284.146 330.948 285.297 329.884 285.579ZM332.283 284.982C332.783 284.32 333.195 283.484 333.51 282.529H335.062C334.378 283.593 333.423 284.439 332.283 284.982ZM335.594 281.487H333.771C333.912 280.835 333.999 280.13 334.02 279.413H336.083C336.05 280.152 335.877 280.857 335.594 281.487ZM334.031 278.371C334.009 277.644 333.923 276.96 333.781 276.298H335.605C335.877 276.949 336.039 277.633 336.105 278.371H334.031Z" fill="#DBE9F8"/>
<path d="M337.363 267.081C334.942 267.081 332.999 269.035 332.999 271.444C332.999 273.854 334.953 275.808 337.363 275.808C339.784 275.808 341.727 273.854 341.727 271.444C341.738 269.045 339.773 267.081 337.363 267.081ZM337.363 273.127C336.44 273.127 335.702 272.378 335.702 271.466C335.702 270.543 336.451 269.805 337.363 269.805C338.286 269.805 339.024 270.554 339.024 271.466C339.035 272.378 338.286 273.127 337.363 273.127Z" fill="#023EA1"/>
<path d="M73.5445 204.196L62.6021 295.208L54.7862 294.426L53.6572 201.829L73.5445 204.196Z" fill="#EE384E"/>
<path d="M61.624 204.196L82.1626 295.208L90.0003 294.426L84.6159 201.829L61.624 204.196Z" fill="#DE051F"/>
<path d="M128.702 164.963L64.4487 149.918C57.7183 148.344 53.5389 141.602 55.1129 134.872L70.1586 70.6183C71.7327 63.8879 78.4739 59.7086 85.2043 61.2826L149.458 76.3283C156.188 77.9024 160.368 84.6436 158.794 91.374L143.748 155.628C142.163 162.358 135.433 166.537 128.702 164.963Z" fill="white" stroke="#0055DB" stroke-width="3" stroke-miterlimit="10"/>
<path d="M76.4311 136.924C76.4311 136.924 78.7542 139.887 78.8736 145.174C78.9821 150.461 78.32 154.238 76.062 154.282C73.8041 154.325 69.2448 152.914 68.4523 151.427C67.6599 149.94 66.1618 149.961 66.0858 146.954C66.0207 143.936 69.6356 137.065 72.6534 137C75.6821 136.956 76.4311 136.924 76.4311 136.924Z" fill="#FFBE9B"/>
<path d="M67.2347 147.312C67.2347 147.312 66.5617 151.09 65.1288 154.9C63.7067 158.7 62.9902 160.23 62.9902 160.23C62.9902 160.23 67.6364 165.408 72.1414 164.562C76.6464 163.715 76.5813 160.697 76.5813 160.697C76.5813 160.697 72.3585 157.397 72.2608 152.87C72.1631 148.354 72.1631 148.354 72.1631 148.354L67.2347 147.312Z" fill="#FEBE9A"/>
<path d="M78.6984 136.88C78.6984 136.88 80.8261 130.801 79.2955 130.085C77.7649 129.357 74.7905 130.932 74.0523 131.713C73.3141 132.484 71.8161 132.516 71.0453 132.527C71.0453 132.527 63.5116 132.69 62.0353 134.232C60.5589 135.773 60.5698 136.522 60.5915 137.282C60.6023 138.031 60.6675 140.984 59.951 142.579C59.6362 143.263 59.278 146.357 60.852 149.353C62.4261 152.328 63.9567 153.055 64.7057 153.044C65.4547 153.033 66.1495 153.012 66.1929 152.252C66.258 151.438 66.5294 150.287 66.8768 149.223C67.2133 148.213 67.5607 146.194 67.5607 146.194C67.5607 146.194 68.2337 142.417 69.6992 140.864C71.1647 139.312 71.1756 139.323 74.1717 138.498C77.1787 137.662 77.9928 139.16 78.6984 136.88Z" fill="#160C56"/>
<path d="M68.6463 142.613C69.797 143.872 68.3315 146.163 68.3315 146.163C68.3315 146.163 66.0952 146.966 66.041 144.697C65.9975 142.439 67.5064 141.343 68.6463 142.613Z" fill="#FFBE9B"/>
<path d="M88.2834 168.774L95.1332 178.055C95.1332 178.055 95.6217 178.544 96.1102 178.055C96.5987 177.567 104.903 167.297 105.392 165.832C105.88 164.366 105.392 162.901 106.857 160.448C108.323 157.994 109.788 157.017 109.788 157.017C109.788 157.017 111.254 156.04 110.765 157.506C110.277 158.971 109.788 160.437 110.765 160.936C111.742 161.435 119.558 162.89 119.558 162.89C119.558 162.89 111.731 165.333 109.766 168.274C107.812 171.205 102.428 180.986 99.9748 183.429C97.5323 185.871 95.079 187.347 93.6135 185.871C92.148 184.406 82.3672 174.625 82.3672 174.625L88.2834 168.774Z" fill="#FFBE9B"/>
<path d="M83.8779 150.677C83.8779 150.677 80.4476 153.12 79.9591 155.573C79.4706 158.016 77.5166 161.934 77.5166 161.934L79.4706 164.377C79.4706 164.377 83.3894 161.446 85.8319 159.97C88.2744 158.493 92.6817 156.539 92.6817 156.539L83.8888 154.585C83.8888 154.585 83.4003 153.12 83.8888 152.143C84.3773 151.166 83.8779 150.677 83.8779 150.677Z" fill="#FFBE9B"/>
<path d="M54.7955 300.375C54.7955 300.375 54.3613 301.602 56.9015 301.591C59.4417 301.569 73.239 301.45 73.239 301.45C73.239 301.45 75.8877 300.896 73.4235 299.724C70.9594 298.551 63.5668 295.306 63.5668 295.306C63.5668 295.306 63.0023 295.154 63.0023 293.742L54.6436 293.818L54.7955 300.375Z" fill="#170856"/>
<path d="M81.7487 300.375C81.7487 300.375 81.3144 301.602 83.8546 301.591C86.3948 301.569 100.192 301.45 100.192 301.45C100.192 301.45 102.841 300.896 100.377 299.724C97.9125 298.562 90.5199 295.306 90.5199 295.306C90.5199 295.306 89.9554 295.154 89.9554 293.742L81.5967 293.818L81.7487 300.375Z" fill="#170856"/>
<path d="M74.0411 158.765C74.0411 158.765 74.8553 158.092 75.7888 158.841C76.7224 159.579 79.9899 162 81.5857 165.094C83.1706 168.199 83.7242 172.508 84.267 182.56C84.8206 192.623 84.7338 203.501 84.7338 203.501L53.5677 204.184C53.5677 204.184 52.5798 185.882 55.5216 174.636C58.4635 163.39 62.86 159.482 63.8369 158.993C64.8139 158.505 65.7909 159.482 65.7909 159.482C65.7909 159.482 70.0789 163.411 74.0411 158.765Z" fill="#0083F9"/>
<path d="M118.818 382.169L105.705 321.194L101.612 302.197H49.9834L68.4703 382.169" stroke="#96AABE" stroke-width="3" stroke-miterlimit="10"/>
<path d="M54.4805 321.629L105.708 321.195" stroke="#96AABE" stroke-width="3" stroke-miterlimit="10"/>
<path d="M58.7969 340.376L109.731 339.942" stroke="#96AABE" stroke-width="3" stroke-miterlimit="10"/>
<path d="M63.2393 360.241L114 359.807" stroke="#96AABE" stroke-width="3" stroke-miterlimit="10"/>
<path d="M32.3135 382.17L45.4378 321.195L49.5303 302.198H101.137L82.6612 382.17" stroke="#2626DB" stroke-width="3" stroke-miterlimit="10"/>
<path d="M96.6537 321.629L45.4375 321.194" stroke="#2626DB" stroke-width="3" stroke-miterlimit="10"/>
<path d="M92.3471 340.377L41.4023 339.943" stroke="#2626DB" stroke-width="3" stroke-miterlimit="10"/>
<path d="M87.8961 360.242L37.125 359.807" stroke="#2626DB" stroke-width="3" stroke-miterlimit="10"/>
<path d="M442.15 282.518L409.963 257.138C409.963 257.138 409.084 256.552 407.814 254.717C406.533 252.893 404.069 251.048 402.636 251.45L399.444 248.486C399.444 248.486 398.326 248.269 399.444 249.3C400.563 250.342 401.192 251.612 401.192 251.612C401.192 251.612 400.193 252.123 400.476 252.524C400.476 252.524 399.672 252.763 399.759 253.36C399.759 253.36 397.849 253.957 399.727 255.824C401.605 257.702 402.245 258.451 404.308 259.363C406.37 260.275 407.933 261.35 409.963 263.271C411.993 265.182 438.09 290.236 438.09 290.236L442.15 282.518Z" fill="#FFBE9B"/>
<path d="M457.197 276.146C457.197 276.146 464.503 275.972 465.654 267.776C466.794 259.58 461.246 256.758 458.088 255.097C454.918 253.425 452.985 253.686 451.563 251.395C450.141 249.105 449.62 248.497 449.62 248.497C449.62 248.497 443.671 254.685 447.829 260.178C451.998 265.66 457.197 276.146 457.197 276.146Z" fill="#180857"/>
<path d="M469.093 418.884C469.18 418.905 469.18 419.036 469.201 419.122C469.418 420.023 470.526 425.234 467.703 425.288C464.827 425.353 453.895 425.429 452.386 425.44C452.278 425.44 452.191 425.375 452.158 425.267C452.05 424.843 451.843 423.79 452.582 423.454C452.582 423.454 458.932 420.501 461.103 418.775C463.09 417.179 468.224 418.612 469.093 418.884Z" fill="#170856"/>
<path d="M441.651 418.103C441.738 418.135 441.749 418.255 441.76 418.342C441.977 419.319 443.084 425.072 440.261 425.213C437.374 425.354 424.033 425.224 422.307 425.213C422.176 425.213 422.079 425.137 422.046 425.029C421.916 424.638 421.785 423.726 422.936 423.227C422.936 423.227 430.307 420.274 433.672 418.211C436.679 416.355 440.859 417.788 441.651 418.103Z" fill="#170856"/>
<path d="M470.83 327.308L469.169 418.983L461.092 418.766L454.677 360.569L455.448 344.416L460.126 327.124L470.83 327.308Z" fill="#0064E1"/>
<path d="M462.312 327.155C462.312 327.155 454.68 366.104 452.347 370.631L441.719 418.2H433.643L438.658 327.003L462.312 327.155Z" fill="#003EB0"/>
<path d="M447.838 260.165C447.838 260.165 443.8 263.509 443.745 269.305C443.691 275.102 444.701 275.309 447.034 275.309C449.368 275.309 451.225 275.091 451.485 276.372C451.746 277.653 451.431 282.647 450.899 284.134C450.378 285.621 460.56 284.134 460.56 284.134C460.56 284.134 457.749 276.492 457.315 273.148C456.88 269.805 457.369 266.027 455.35 262.846C453.363 259.622 450.975 257.18 447.838 260.165Z" fill="#FFBE9B"/>
<path d="M449.911 285.916L441.726 281.356L437.265 290.377L446.351 298.139L449.911 285.916Z" fill="#F79F03"/>
<path d="M462.31 285.177C462.31 285.177 467.217 290.735 468.921 304.174C470.626 317.613 470.832 327.307 470.832 327.307H438.667C438.667 327.307 441.109 308.343 443.27 298.312C445.43 288.271 449.316 284.222 449.316 284.222C449.316 284.222 450.326 282.995 451.542 283.798C452.768 284.602 455.688 284.754 458.283 283.527C460.899 282.289 461.485 284.059 462.31 285.177Z" fill="#FCBE42"/>
<path d="M455.805 265.202C455.805 265.202 457.553 264.779 458.356 265.68C459.16 266.581 458.194 268.546 456.609 269.132C455.002 269.729 455.805 265.202 455.805 265.202Z" fill="#FFBE9B"/>
<path d="M451.238 301.797C451.238 301.797 447.569 327.285 445.658 334.222C443.748 341.159 440.882 347.683 440.882 347.683C440.882 347.683 439.601 350.874 440.882 352.068C442.163 353.262 445.17 354.619 445.778 352.47C446.375 350.321 446.375 345.696 447.178 344.665C447.981 343.623 454.896 327.535 457.219 317.895C459.532 308.256 459.922 303.957 459.922 303.957L451.238 301.797Z" fill="#FFBE9B"/>
<path d="M306.076 333.093C306.076 333.093 310.56 331.269 310.223 326.134C309.897 320.989 307.249 317.352 312.709 318.839C318.18 320.327 320.015 320.989 323.999 320.164C327.961 319.339 331.283 317.678 329.546 322.813C327.809 327.958 325.931 332.257 330.024 333.093C334.116 333.918 338.513 330.824 339.034 338.879C339.555 346.923 333.063 355.976 322.566 356.313C312.069 356.638 307.422 352.296 307.422 352.296C307.422 352.296 304.611 348.334 308.996 347.335C313.393 346.358 317.865 344.491 315.629 342.439C313.393 340.388 306.098 340.225 306.098 340.225C306.098 340.225 296.947 338.39 306.076 333.093Z" fill="#649EEA"/>
<path d="M354.08 334.418C353.342 329.283 353.906 325.592 363.437 324.203C372.968 322.813 378.526 328.534 379.102 334.418C379.677 340.302 371.394 342.44 371.394 342.44C371.394 342.44 365.511 344.112 368.496 349.257C371.47 354.403 372.838 359.375 366.064 360.124C359.29 360.873 351.887 359.082 347.751 356.335C343.626 353.578 339.392 346.609 344.125 342.972C344.125 342.972 345.45 342.06 350.009 341.81C354.568 341.55 354.08 334.418 354.08 334.418Z" fill="#023EA1"/>
<path d="M320.527 333.593C320.527 333.593 328.452 351.505 329.527 363.696" stroke="#023EA1" stroke-miterlimit="10"/>
<path d="M364.558 336.534C364.558 336.534 350.543 357.344 347.222 364.303" stroke="#649EEA" stroke-miterlimit="10"/>
<path d="M324.638 362.272H356.803C356.803 362.272 360.331 362.522 360.027 367.331C359.767 371.76 354.144 370.794 351.245 370.794C348.347 370.794 323.933 370.794 323.933 370.794C323.933 370.794 319.981 371.467 319.981 366.995C319.992 362.511 321.49 362.272 324.638 362.272Z" fill="#0054A5"/>
<path d="M323.957 370.805L328.82 399.236H350.423L354.081 377.894L323.99 370.805H323.957Z" fill="#0054A5"/>
<path d="M323.989 370.805L354.081 377.894L355.296 370.805H323.989Z" fill="#006AD5"/>
<path d="M337.823 363.347C337.823 363.347 339.452 331.812 348.852 312.022" stroke="#FCBE42" stroke-miterlimit="10"/>
<path d="M356.602 300.646C356.602 300.646 357.373 310.329 347.928 314.106C347.918 314.117 345.877 305.845 356.602 300.646Z" fill="#FCBE42"/>
<path d="M342.413 331.464C342.413 331.464 345.898 323.203 356.601 324.31C356.612 324.3 355.776 332.539 342.413 331.464Z" fill="#FCBE42"/>
<path d="M338.905 352.243C338.905 352.243 340.707 343.46 351.422 342.451C351.411 342.451 352.203 350.669 338.905 352.243Z" fill="#FCBE42"/>
<path d="M338.527 352.285C338.527 352.285 339.764 343.416 330.005 338.868C330.005 338.868 326.51 346.369 338.527 352.285Z" fill="#FCBE42"/>
<path d="M342.533 331.4C342.533 331.4 344.899 322.748 335.792 317.006C335.802 317.006 331.363 323.986 342.533 331.4Z" fill="#FCBE42"/>
<path d="M124.237 127.079C123.965 122.357 122.598 118.058 119.395 114.476C118.82 113.824 118.158 113.238 117.517 112.598C115.932 114.693 114.087 116.332 111.851 117.494C108.409 119.285 104.979 119.48 101.603 117.331C99.28 115.844 97.7602 113.694 96.7723 111.143C96.3707 110.134 96.0884 109.07 95.7411 107.984C93.5591 108.418 90.563 110.036 88.6199 111.849C84.1257 116.039 81.9003 121.358 80.945 127.307C80.7605 128.479 81.1839 129.207 82.302 129.663C82.9859 129.934 83.7132 130.14 84.4405 130.303C95.9039 132.821 107.356 135.307 118.82 137.815C119.363 137.924 119.895 138.043 120.448 138.119C122.109 138.358 122.999 137.739 123.401 136.122C124.106 133.125 124.41 130.118 124.237 127.079Z" fill="#C6D7F0"/>
<path d="M101.265 113.303C103.317 115.897 106.096 116.842 108.973 115.984C110.59 115.496 111.98 114.616 113.217 113.52C115.92 111.099 117.809 108.146 118.927 104.705C120.132 100.971 120.024 97.2909 118.254 93.752C115.334 87.9661 108.647 86.3812 103.447 90.224C100.636 92.3191 98.9966 95.1633 98.215 98.5502C97.759 100.537 97.7156 102.556 97.9544 104.586C98.3344 107.745 99.2462 110.752 101.265 113.303Z" fill="#C6D7F0"/>
<path d="M135.172 244.655L125.271 239.075V228.014L135.172 222.694V244.655Z" fill="#023EA1"/>
<path d="M135.172 233.822L145.072 228.014L135.172 222.706V233.822Z" fill="#DBE9F8"/>
<path d="M240.974 239.236H160.307C157.539 239.236 155.303 237 155.303 234.232V233.135C155.303 230.367 157.539 228.131 160.307 228.131H240.974C243.742 228.131 245.979 230.367 245.979 233.135V234.232C245.989 237 243.742 239.236 240.974 239.236Z" fill="#EE384E"/>
<path d="M392.658 246.011H157.257C156.182 246.011 155.303 245.132 155.303 244.057C155.303 242.982 156.182 242.103 157.257 242.103H392.669C393.743 242.103 394.623 242.982 394.623 244.057C394.612 245.132 393.733 246.011 392.658 246.011Z" fill="#DBE9F8"/>
<path d="M300.497 252.872H157.704C156.629 252.872 155.75 251.992 155.75 250.918C155.75 249.843 156.629 248.964 157.704 248.964H300.497C301.572 248.964 302.451 249.843 302.451 250.918C302.451 251.992 301.583 252.872 300.497 252.872Z" fill="#DBE9F8"/>
<path d="M89.749 169.261C89.749 169.261 85.3417 162.9 80.4676 160.946C75.5935 158.992 73.1293 162.9 75.5718 166.819C78.0142 170.738 82.4216 176.1 82.4216 176.1L89.749 169.261Z" fill="#0064B7"/>
<path d="M449.915 303.089C449.915 303.089 452.119 289.042 458.013 288.977C458.013 288.977 461.357 288.977 461.444 294.068C461.53 299.159 461.042 305.206 461.042 305.206L449.915 303.089Z" fill="#F79F03"/>
</svg>
