<svg width="520" height="424" viewBox="0 0 520 424" fill="none" xmlns="http://www.w3.org/2000/svg">
<path d="M57.6748 17.9907C57.6748 17.9907 51.8092 11.2767 56.9385 6.10719C62.0678 0.937706 72.7132 3.40409 74.1859 9.63239C75.646 15.8607 71.9769 19.1368 76.5071 21.0302C81.0249 22.9236 92.831 30.0986 89.5113 36.14C86.2041 42.1814 78.7286 40.7863 80.638 49.9046C82.5475 59.0228 97.6358 64.0054 87.8265 73.8088C78.0172 83.6121 57.1631 95.7074 50.9107 73.5471C44.6582 51.3869 64.3891 59.82 55.3535 44.5482C46.318 29.2764 55.5033 30.9207 58.9727 26.2744C62.4172 21.6406 57.6748 17.9907 57.6748 17.9907Z" fill="#023EA1"/>
<path d="M68.8433 28.1938C68.8433 28.1938 66.5969 51.687 71.4766 72.639C76.3563 93.5909 80.5371 97.3902 80.5371 97.3902" stroke="white" stroke-miterlimit="10" stroke-linecap="round" stroke-linejoin="round"/>
<path d="M7.62909 24.6806C7.62909 24.6806 22.992 13.8434 26.1744 23.7837C29.3692 33.7366 33.7248 33.4376 38.2176 32.9019C42.7104 32.3663 50.3232 28.0688 53.1187 38.7441C55.9267 49.4194 53.231 55.9715 57.9235 59.4594C62.616 62.9597 76.8556 83.3262 67.5456 86.7269C58.2355 90.1151 47.0909 81.3332 43.3843 76.3879C39.6777 71.4426 31.4659 71.0689 25.176 72.352C18.886 73.635 10.5993 70.2966 13.1952 62.1251C15.8035 53.9536 11.6976 45.4831 5.93181 43.5772C0.191006 41.6714 -2.65443 32.1919 7.62909 24.6806Z" fill="#FCBE42"/>
<path d="M16.04 34.4956L70.6151 94.91" stroke="white" stroke-miterlimit="10" stroke-linecap="round" stroke-linejoin="round"/>
<path d="M83.3695 79.1771C83.3695 79.1771 52.6312 48.0854 41.1621 20.0332" stroke="#DE051F" stroke-miterlimit="10"/>
<path d="M36.7577 1.49854C36.7577 1.49854 47.3906 9.73235 42.4236 22.9239C42.4236 22.9239 32.0527 17.3059 36.7577 1.49854Z" stroke="#DE051F" stroke-miterlimit="10"/>
<path d="M55.0275 44.7228C55.0275 44.7228 49.8358 33.4621 60.968 23.5591C60.968 23.5591 68.6057 32.0919 55.0275 44.7228Z" stroke="#DE051F" stroke-miterlimit="10"/>
<path d="M72.998 67.7061C72.998 67.7061 65.6972 57.6785 74.6828 45.7949C74.6828 45.7825 83.8431 52.6585 72.998 67.7061Z" stroke="#DE051F" stroke-miterlimit="10"/>
<path d="M72.701 68.1288C72.701 68.1288 64.7762 58.5746 51.0107 64.3171C51.0232 64.3171 55.4162 74.8803 72.701 68.1288Z" stroke="#DE051F" stroke-miterlimit="10"/>
<path d="M55.0776 44.5488C55.0776 44.5488 48.4383 34.0728 34.0488 38.0091C34.0488 38.0091 37.069 49.0456 55.0776 44.5488Z" stroke="#DE051F" stroke-miterlimit="10"/>
<path d="M406.823 197.922C434.496 213.899 469.882 204.417 485.859 176.744C501.836 149.071 492.355 113.685 464.681 97.7076C437.008 81.7304 401.622 91.212 385.645 118.885C369.668 146.559 379.149 181.944 406.823 197.922Z" stroke="#DE051F" stroke-miterlimit="10" stroke-dasharray="6 6"/>
<path d="M486.678 167.811C491.353 170.51 497.332 168.908 500.032 164.233C502.731 159.557 501.129 153.578 496.453 150.879C491.778 148.179 485.799 149.781 483.099 154.457C480.4 159.132 482.002 165.111 486.678 167.811Z" fill="#003EB0"/>
<path d="M496.81 157.649L490.909 162.66L489.241 155.621L496.81 157.649Z" fill="white"/>
<path d="M441.979 309.029H65.4805C62.4534 309.029 60.0107 306.584 60.0107 303.554V45.884C60.0107 42.8538 62.4534 40.4087 65.4805 40.4087H441.964C444.991 40.4087 447.434 42.8538 447.434 45.884V303.554C447.449 306.569 444.991 309.029 441.979 309.029Z" fill="#0064B7"/>
<path d="M428.985 297.779H74.875C71.8479 297.779 69.4053 295.334 69.4053 292.304V92.2673C69.4053 89.2371 71.8479 86.792 74.875 86.792H429C432.027 86.792 434.47 89.2371 434.47 92.2673V292.304C434.455 295.334 432.012 297.779 428.985 297.779Z" fill="#CCE5FF"/>
<path d="M447.448 74.7607V58.5748C447.448 48.5392 439.146 40.4087 429.121 40.4087H79.3411C69.3157 40.4087 61.0137 48.5392 61.0137 58.5748V74.7607H447.448Z" fill="#0064B7"/>
<path d="M84.6703 67.7371C86.5196 65.8859 86.5196 62.8846 84.6703 61.0334C82.821 59.1822 79.8227 59.1822 77.9734 61.0334C76.1241 62.8846 76.1241 65.8859 77.9734 67.7371C79.8227 69.5883 82.821 69.5883 84.6703 67.7371Z" fill="white"/>
<path d="M96.2462 69.3302C98.8615 69.3302 100.982 67.2079 100.982 64.5899C100.982 61.9719 98.8615 59.8496 96.2462 59.8496C93.6309 59.8496 91.5107 61.9719 91.5107 64.5899C91.5107 67.2079 93.6309 69.3302 96.2462 69.3302Z" fill="white"/>
<path d="M110.557 69.9908C113.172 69.9908 115.292 67.8685 115.292 65.2505C115.292 62.6325 113.172 60.5103 110.557 60.5103C107.941 60.5103 105.821 62.6325 105.821 65.2505C105.821 67.8685 107.941 69.9908 110.557 69.9908Z" fill="white"/>
<path d="M202.914 285.327H84.3774C83.3883 285.327 82.5791 284.517 82.5791 283.527V101.161C82.5791 100.171 83.3883 99.3613 84.3774 99.3613H202.914C203.903 99.3613 204.712 100.171 204.712 101.161V283.512C204.712 284.517 203.903 285.327 202.914 285.327Z" fill="white"/>
<path d="M191.63 124.529H95.4417C94.6391 124.529 93.9824 124.489 93.9824 124.442V115.606C93.9824 115.558 94.6391 115.519 95.4417 115.519H191.63C192.432 115.519 193.089 115.558 193.089 115.606V124.441C193.089 124.489 192.432 124.529 191.63 124.529Z" fill="#EAF4FF"/>
<path d="M191.63 143.45H95.4417C94.6391 143.45 93.9824 143.41 93.9824 143.362V134.527C93.9824 134.479 94.6391 134.44 95.4417 134.44H191.63C192.432 134.44 193.089 134.479 193.089 134.527V143.362C193.089 143.41 192.432 143.45 191.63 143.45Z" fill="#EAF4FF"/>
<path d="M191.63 162.37H95.4417C94.6391 162.37 93.9824 162.33 93.9824 162.282V153.447C93.9824 153.399 94.6391 153.36 95.4417 153.36H191.63C192.432 153.36 193.089 153.399 193.089 153.447V162.282C193.089 162.33 192.432 162.37 191.63 162.37Z" fill="#EAF4FF"/>
<path d="M191.63 181.29H95.4417C94.6391 181.29 93.9824 181.251 93.9824 181.203V172.367C93.9824 172.32 94.6391 172.28 95.4417 172.28H191.63C192.432 172.28 193.089 172.32 193.089 172.367V181.202C193.089 181.251 192.432 181.29 191.63 181.29Z" fill="#EAF4FF"/>
<path d="M191.63 200.21H95.4417C94.6391 200.21 93.9824 200.171 93.9824 200.123V191.288C93.9824 191.24 94.6391 191.201 95.4417 191.201H191.63C192.432 191.201 193.089 191.24 193.089 191.288V200.122C193.089 200.171 192.432 200.21 191.63 200.21Z" fill="#EAF4FF"/>
<path d="M419.455 188.048H214.751C213.762 188.048 212.953 187.238 212.953 186.248V101.103C212.953 100.113 213.762 99.3032 214.751 99.3032H419.455C420.444 99.3032 421.253 100.113 421.253 101.103V186.248C421.253 187.238 420.444 188.048 419.455 188.048Z" fill="white"/>
<path d="M404.801 124.529H225.541C224.045 124.529 222.821 124.509 222.821 124.485V120.068C222.821 120.044 224.045 120.024 225.541 120.024H404.801C406.296 120.024 407.52 120.044 407.52 120.068V124.485C407.52 124.509 406.296 124.529 404.801 124.529Z" fill="#EAF4FF"/>
<path d="M404.801 138.945H225.541C224.045 138.945 222.821 138.925 222.821 138.901V134.484C222.821 134.46 224.045 134.44 225.541 134.44H404.801C406.296 134.44 407.52 134.46 407.52 134.484V138.901C407.52 138.925 406.296 138.945 404.801 138.945Z" fill="#EAF4FF"/>
<path d="M404.801 153.36H225.541C224.045 153.36 222.821 153.341 222.821 153.317V148.899C222.821 148.875 224.045 148.855 225.541 148.855H404.801C406.296 148.855 407.52 148.875 407.52 148.899V153.316C407.52 153.341 406.296 153.36 404.801 153.36Z" fill="#EAF4FF"/>
<path d="M404.801 167.776H225.541C224.045 167.776 222.821 167.757 222.821 167.733V163.315C222.821 163.291 224.045 163.271 225.541 163.271H404.801C406.296 163.271 407.52 163.291 407.52 163.315V167.732C407.52 167.757 406.296 167.776 404.801 167.776Z" fill="#EAF4FF"/>
<path d="M418.541 282.283H213.837C212.848 282.283 212.039 281.473 212.039 280.483V200.423C212.039 199.433 212.848 198.623 213.837 198.623H418.541C419.53 198.623 420.339 199.433 420.339 200.423V280.483C420.339 281.473 419.53 282.283 418.541 282.283Z" fill="white"/>
<path d="M391.155 225.437H262.612C261.54 225.437 260.662 225.418 260.662 225.394V220.976C260.662 220.952 261.54 220.933 262.612 220.933H391.155C392.227 220.933 393.105 220.952 393.105 220.976V225.393C393.105 225.418 392.227 225.437 391.155 225.437Z" fill="#EAF4FF"/>
<path d="M391.155 238.052H262.612C261.54 238.052 260.662 238.032 260.662 238.008V233.59C260.662 233.566 261.54 233.547 262.612 233.547H391.155C392.227 233.547 393.105 233.566 393.105 233.59V238.008C393.105 238.032 392.227 238.052 391.155 238.052Z" fill="#EAF4FF"/>
<path d="M391.155 250.664H262.612C261.54 250.664 260.662 250.644 260.662 250.62V246.203C260.662 246.179 261.54 246.159 262.612 246.159H391.155C392.227 246.159 393.105 246.179 393.105 246.203V250.62C393.105 250.644 392.227 250.664 391.155 250.664Z" fill="#EAF4FF"/>
<path d="M391.155 263.278H262.612C261.54 263.278 260.662 263.259 260.662 263.235V258.817C260.662 258.793 261.54 258.773 262.612 258.773H391.155C392.227 258.773 393.105 258.793 393.105 258.817V263.234C393.105 263.259 392.227 263.278 391.155 263.278Z" fill="#EAF4FF"/>
<circle cx="233.182" cy="224.085" r="10.3612" fill="#EAF4FF"/>
<path d="M213.632 358.809C213.632 358.809 193.775 359.978 202.426 361.137C211.065 362.307 222.975 362.307 227.183 361.839C231.379 361.371 216.902 359.043 213.632 358.809Z" fill="#023EA1"/>
<path d="M212.26 361.428L211.97 416.731C211.97 416.731 203.375 416.954 201.846 418.96C200.317 420.976 202.08 422.235 210.932 422.023C219.783 421.812 225.085 421.823 225.085 421.823C225.085 421.823 229.382 421.333 224.337 418.792C219.292 416.252 215.24 416.988 215.24 416.988L214.961 361.483L212.26 361.428Z" fill="#023EA1"/>
<path d="M204.442 290.437C204.442 290.437 196.261 287.529 195.357 295.149C195.357 295.149 193.269 300.687 191.171 301.678C189.084 302.681 183.905 304.586 185.177 311.749C186.449 318.913 188.447 318.467 187.633 322.634C186.818 326.812 188.816 327.258 191.718 327.347C194.62 327.436 195.446 324.718 195.446 324.718L194.631 315.459L196.54 300.586L202.724 298.135C202.724 298.135 205.905 294.147 206.173 292.598C206.44 291.072 204.442 290.437 204.442 290.437Z" fill="#170856"/>
<path d="M203.35 288.376C203.35 288.376 202.055 289.725 202.356 289.958C202.657 290.192 206.185 292.031 206.185 292.031C206.185 292.031 207.212 290.059 207.1 289.479C207.011 288.9 203.35 288.376 203.35 288.376Z" fill="#F05051"/>
<path d="M224.981 278.417C225.171 278.439 225.294 278.595 225.294 278.784C225.249 280.556 224.836 289.112 221.488 292.276C221.488 292.276 219.713 294.593 216.309 293.635C216.309 293.635 213.239 291.797 213.719 295.54C214.199 299.284 212.625 302.96 211.397 303.495C210.17 304.041 205.124 302.682 203.964 300.565C203.193 299.161 202.78 298.448 202.591 298.136C202.513 298.002 202.524 297.846 202.635 297.724C203.327 296.933 205.928 293.747 207.134 289.346C208.529 284.243 207.781 279.341 212.48 278.327C216.632 277.425 223.441 278.216 224.981 278.417Z" fill="#FFBE97"/>
<path d="M229.391 278.004C229.38 277.926 229.368 277.848 229.368 277.781C229.335 277.28 229.38 276.778 229.324 276.277C229.168 274.728 228.654 273.08 227.437 272.021C226.522 271.241 225.339 270.929 224.156 270.929C223.888 270.929 223.631 270.829 223.464 270.629C222.66 269.726 220.048 267.13 216.454 267.13C212.101 267.13 204.656 269.481 202.647 276.901C202.647 276.912 202.636 276.923 202.636 276.946C202.513 277.447 199.678 289.089 205.37 289.446C211.186 289.813 213.552 286.95 213.373 284.365C213.373 284.365 210.516 279.241 215.371 280.555C215.371 280.555 220.372 281.491 223.854 279.452C224.29 279.196 224.837 279.352 225.082 279.786C225.774 280.979 227.158 282.828 228.453 281.279C228.933 280.711 229.391 280.054 229.525 279.307C229.592 278.828 229.458 278.427 229.391 278.004Z" fill="#170856"/>
<path d="M202.559 297.802C202.559 297.802 205.394 302.359 209.446 302.314C213.486 302.27 213.743 298.081 213.743 298.081C213.743 298.081 221.98 305.478 221.891 310.38C221.802 315.282 220.161 314.458 219.715 316.096C219.257 317.733 222.438 335.058 222.438 335.058L222.918 336.083L199.634 339.235C199.634 339.235 198.73 335.514 198.094 334.333C197.458 333.152 194.187 302.771 194.187 302.771L195.728 301.133C195.716 301.133 198.451 298.058 202.559 297.802Z" fill="#0083F9"/>
<path d="M192.267 316.195C192.267 316.195 189.956 301.155 195.816 300.408C201.542 299.684 201.632 304.397 201.81 311.382C201.989 318.367 201.9 319.905 201.9 319.905L192.814 321.543L192.267 316.195Z" fill="#0064B7"/>
<path d="M201.631 319.961C201.776 319.939 201.91 320.039 201.921 320.184L202.401 325.944C202.368 326.824 202.524 327.626 203.339 327.303C203.797 327.125 204.366 326.846 205.08 326.445C207.67 324.997 215.528 321.186 217.972 319.994C218.408 319.783 218.731 319.404 218.899 318.947C219.167 318.223 219.803 317.142 221.265 316.73C223.542 316.095 227.449 316.184 227.538 316.463C227.627 316.741 228.085 318.635 227.906 319.27C227.728 319.905 225.819 319.359 225.819 319.359C225.819 319.359 222.27 318.724 223.274 319.994C223.855 320.73 224.681 320.83 225.272 320.774C225.506 320.752 225.629 321.064 225.44 321.209C224.948 321.588 224.078 322.055 222.638 322.256C220.004 322.624 201.374 334.778 201.374 334.778C201.374 334.778 197.736 337.586 195.648 330.155C194.052 324.484 193.26 322.468 192.97 321.822C192.903 321.677 192.992 321.51 193.148 321.487L201.631 319.961Z" fill="#FEBD96"/>
<path d="M232.594 328.06L221.956 332.45L220.829 325.799L225.16 325.542L232.594 328.06Z" fill="#FEBD96"/>
<path d="M239.882 306.848L256.703 305.856L239.246 327.804L223.162 328.35L239.882 306.848Z" fill="#09015D"/>
<path d="M239.984 326.266C239.984 326.266 239.348 322.278 240.71 321.643C242.071 321.008 242.953 322.489 242.864 323.214C242.763 324.016 240.096 326.723 240.096 326.723L239.984 326.266Z" fill="#FEBD96"/>
<path d="M222.916 336.082L255.698 348.538C255.698 348.538 259.784 349.351 260.788 360.38C261.793 371.399 262.608 407.919 262.608 407.919L262.652 409.1L254.471 409.234L250.385 370.318L230.986 346.956L215.259 337.107L222.916 336.082Z" fill="#EE384E"/>
<path d="M199.422 338.533L215.339 337.107L248.858 353.819C248.858 353.819 257.91 359.144 252.106 368.792C246.291 378.44 230.084 407.875 230.084 407.875L224.503 403.719L238.824 364.146C238.824 364.146 239.17 362.108 234.392 361.762C229.928 361.439 208.832 359.389 206.097 359.122C205.863 359.1 205.651 359.055 205.427 358.966C203.775 358.364 197.335 355.245 199.378 344.004L199.623 339.246L199.422 338.533Z" fill="#DE051F"/>
<path d="M262.653 409.088L269.774 412.999C270.143 413.199 270.533 413.344 270.946 413.411C271.717 413.522 273.056 413.89 273.056 414.993C273.056 414.993 273.235 416.263 269.786 415.996C266.337 415.728 255.431 415.818 255.431 415.818C255.431 415.818 254.025 415.506 254.248 412.375L254.471 409.244L262.653 409.088Z" fill="#130452"/>
<path d="M230.072 407.863C230.072 407.863 230.128 409.712 231.98 412.252C232.996 413.656 234.101 415.015 235.24 416.33C235.541 416.675 235.865 416.965 236.021 417.399C236.121 417.689 236.2 417.99 236.211 418.291C236.222 418.58 236.155 418.903 235.898 419.082C235.508 419.349 234.927 419.204 234.514 419.093C234.391 419.059 234.269 419.015 234.157 418.981C231.355 417.979 222.995 411.194 221.22 409.734C220.997 409.545 220.863 409.278 220.852 408.977C220.852 408.353 220.952 407.239 221.7 406.37C222.794 405.1 224.48 403.718 224.48 403.718L230.072 407.863Z" fill="#130452"/>
<path d="M127.986 337.965C128.016 337.965 128.046 337.965 128.076 337.965L164.926 337.935C165.84 337.935 166.574 337.2 166.574 336.285C166.574 335.37 165.825 334.619 164.926 334.634L128.076 334.665C127.162 334.665 126.428 335.4 126.428 336.315C126.413 337.2 127.102 337.92 127.986 337.965Z" fill="url(#paint0_linear_2445_13744)"/>
<path d="M179.178 301.844C179.163 301.874 179.148 301.889 179.133 301.919L163.623 335.371C163.234 336.196 163.593 337.186 164.417 337.561C165.242 337.951 166.231 337.591 166.605 336.751L182.115 303.299C182.505 302.474 182.145 301.484 181.321 301.109C180.527 300.749 179.583 301.079 179.178 301.844Z" fill="url(#paint1_linear_2445_13744)"/>
<path d="M151.513 342.406C151.378 343.081 138.055 401.494 134.669 416.315C134.279 418.025 135.688 419.6 137.516 419.51C138.79 419.45 139.854 418.565 140.108 417.365L156.772 342.001L151.513 342.406Z" fill="#023EA1"/>
<path d="M118.605 419.105C112.191 419.105 109.344 418.55 108.07 418.055C108.31 419.105 109.254 419.945 110.438 419.945H133.156C133.921 419.945 134.4 419.21 134.22 418.55C131.643 418.745 126.143 419.105 118.605 419.105Z" fill="url(#paint2_linear_2445_13744)"/>
<path d="M134.221 418.536C134.191 418.401 134.131 418.266 134.042 418.146C132.318 415.941 128.842 412.46 124.106 412.535C117.183 412.64 114.681 414.55 109.301 413.74L108.116 416.796C107.982 417.231 107.982 417.651 108.071 418.056C109.345 418.566 112.178 419.106 118.606 419.106C126.144 419.106 131.644 418.746 134.221 418.536Z" fill="#170856"/>
<path d="M110.946 408.035L109.388 413.345C109.388 413.345 112.834 414.921 115.876 413.66L116.476 409.07L110.946 408.035Z" fill="url(#paint3_linear_2445_13744)"/>
<path d="M158.019 415.761C153.014 419.781 150.451 421.146 149.147 421.551C150.002 422.211 151.245 422.271 152.175 421.536L169.873 407.301C170.472 406.82 170.382 405.95 169.828 405.545C167.954 407.316 163.893 411.036 158.019 415.761Z" fill="url(#paint4_linear_2445_13744)"/>
<path d="M169.843 405.53C169.738 405.455 169.603 405.38 169.453 405.35C166.726 404.72 161.855 404.21 158.214 407.225C152.879 411.651 151.455 413.736 146.765 416.496L148.398 420.561C148.563 420.981 148.833 421.311 149.147 421.566C150.451 421.161 153.014 419.811 158.019 415.776C163.893 411.036 167.954 407.315 169.843 405.53Z" fill="#170856"/>
<path d="M77.6047 347.596C77.6047 347.596 116.043 350.731 123.925 354.452C131.808 358.172 116.058 413.74 116.058 413.74C116.058 413.74 114.081 415.225 109.3 413.74C109.3 413.74 115.473 371.358 111.832 363.032L70.2168 356.222L77.6047 347.596Z" fill="#DE051F"/>
<path d="M94.9621 278.389C94.9621 278.389 93.3278 283.052 90.7191 287.589C88.1104 292.125 86.88 293.901 86.88 293.901C86.88 293.901 91.7379 301.431 97.6911 301.28C103.623 301.135 99.388 298.866 99.388 298.866C99.388 298.866 99.4383 292.228 100.245 286.466C101.051 280.703 101.05 280.713 101.05 280.713L94.9621 278.389Z" fill="#FFB48F"/>
<path d="M108.888 267.115C108.888 267.115 111.249 271.363 110.308 278.091C109.368 284.809 107.732 289.482 104.823 289.075C101.914 288.668 96.3749 285.934 95.6807 283.878C94.9865 281.823 93.0505 281.552 93.5867 277.72C94.1229 273.888 100.168 265.915 104.05 266.458C107.922 267 108.888 267.115 108.888 267.115Z" fill="#FFBF99"/>
<path d="M111.785 267.52C111.785 267.52 115.758 260.252 113.958 259.006C112.156 257.779 108.027 259.15 106.918 259.979C105.822 260.8 103.886 260.529 102.913 260.393C102.913 260.393 93.2327 259.039 91.0279 260.689C88.823 262.339 88.6893 263.294 88.5543 264.26C88.4206 265.215 87.8827 268.986 86.6512 270.843C86.1187 271.652 85.0169 275.506 86.4039 279.627C87.7923 283.739 89.6046 284.966 90.5676 285.101C91.5306 285.236 92.4033 285.358 92.6373 284.417C92.8925 283.397 93.4784 281.987 94.1379 280.709C94.779 279.49 95.6385 277.002 95.6385 277.002C95.6385 277.002 97.2728 272.34 99.4776 270.69C101.682 269.039 101.682 269.039 105.678 268.624C109.712 268.225 110.419 270.262 111.785 267.52Z" fill="#170856"/>
<path d="M97.7535 272.711C98.9595 274.544 96.621 277.15 96.621 277.15C96.621 277.15 93.5883 277.7 93.9908 274.823C94.3933 271.947 96.5388 270.867 97.7535 272.711Z" fill="#FFBF99"/>
<path d="M142.941 409.174C143.301 409.504 146.763 416.495 146.763 416.495C146.763 416.495 150.614 415.655 151.408 413.225L147.947 406.909L142.941 409.174Z" fill="url(#paint5_linear_2445_13744)"/>
<path d="M54.4519 347.266C54.4519 347.266 53.1931 350.281 53.2531 354.286C53.328 359.837 57.7787 364.337 63.3084 364.607L108.745 366.677C109.704 366.722 110.513 367.382 110.753 368.312C111.817 372.453 117.047 385.143 142.552 410.48C143.227 411.155 146.332 417.403 147.141 416.893L152.096 414.19C152.471 413.95 149.236 407.735 148.996 407.345L122.547 362.117C121.153 359.822 118.92 358.157 116.328 357.497L77.6047 347.581L54.4519 347.266Z" fill="#EE384E"/>
<path d="M53.627 347.596C53.627 347.596 65.9002 350.581 77.604 347.596C77.604 347.596 93.9832 325.545 100.322 319.544C100.322 319.544 110.437 335.52 132.931 337.771L134.19 334.965C134.19 334.965 116.282 326.7 110.752 313.994C105.237 301.288 103.02 295.873 97.9994 292.558C94.8674 290.488 93.0092 289.078 92.0351 288.313C91.5106 287.893 90.7763 287.848 90.1919 288.193C84.887 291.448 59.831 308.639 53.627 347.596Z" fill="#0083F9"/>
<path d="M99.663 319.649C99.3033 319.649 98.9437 319.484 98.7189 319.184C94.7777 314.039 92.5748 308.369 92.4848 308.129C92.2451 307.514 92.5598 306.824 93.1742 306.584C93.7886 306.344 94.4779 306.659 94.7177 307.274C94.7327 307.334 96.8906 312.869 100.607 317.729C101.012 318.254 100.907 319.004 100.382 319.409C100.172 319.559 99.9177 319.649 99.663 319.649Z" fill="#0064B7"/>
<path d="M131.583 333.511L134.116 332.836L141.803 331.051C142.732 330.841 143.706 331.006 144.501 331.501L151.109 335.671L132.842 335.641L131.583 333.511Z" fill="url(#paint6_linear_2445_13744)"/>
<path d="M249.953 342.301C250.088 342.976 263.41 401.389 266.797 416.21C267.187 417.92 265.778 419.495 263.95 419.405C262.676 419.345 261.612 418.46 261.357 417.26L244.693 341.896L249.953 342.301Z" fill="#023EA1"/>
<path d="M68.987 417.413H72.6885V374.166H68.987V417.413Z" fill="#023EA1"/>
<path d="M54.6465 418.189H87.0454V416.149C87.0454 415.954 86.8806 415.789 86.6857 415.789H55.0061C54.8113 415.789 54.6465 415.954 54.6465 416.149V418.189Z" fill="#023EA1"/>
<path d="M49.8359 371.762C49.8359 373.952 51.6192 375.737 53.8071 375.737H86.5957C88.7836 375.737 90.5669 373.952 90.5669 371.762V368.162C90.5669 365.972 88.7836 364.187 86.5957 364.187H53.8071C51.6192 364.187 49.8359 365.972 49.8359 368.162V371.762Z" fill="#023EA1"/>
<path d="M141.907 341.206C141.742 341.911 125.453 403.024 121.332 418.52C120.852 420.305 122.186 422.061 124.014 422.061C125.288 422.061 126.397 421.175 126.712 419.93L147.197 341.071L141.907 341.206Z" fill="#023EA1"/>
<path d="M260.383 342.796C260.548 343.501 276.838 404.614 280.959 420.11C281.438 421.896 280.105 423.651 278.276 423.651C277.003 423.651 275.894 422.766 275.579 421.521L255.753 342.796H260.383Z" fill="#023EA1"/>
<path d="M121.017 337.26H284.72C287.013 337.26 289.498 337.655 290.068 338.435L291.868 341.686C291.868 343.276 290.279 343.891 286.983 343.876L119.009 343.531C115.757 343.531 113.374 342.451 114.168 341.341L116.162 338.58C116.716 337.8 118.709 337.26 121.017 337.26Z" fill="#1047A2"/>
<path d="M382.656 301.943C382.656 301.943 386.73 358.347 387.314 368.349C387.908 378.352 390.049 412.046 390.049 412.046H400.055L406.807 301.325L382.656 301.943Z" fill="#DE051F"/>
<path d="M420.301 302.533C420.301 302.533 419.122 330.95 418.594 338.155C418.075 345.36 423.781 369.997 427.034 380.944C430.297 391.901 434.89 404.028 434.89 404.028L427.034 408.519C427.034 408.519 410.069 378.371 403.987 360.584C397.913 342.796 393.387 316.175 394.132 301.176L420.301 302.533Z" fill="#EE384E"/>
<path d="M377.724 262.176L370.095 272.244C370.095 272.244 369.501 273.049 368.086 272.684C366.681 272.319 351.998 267.023 351.998 267.023C351.998 267.023 349.952 266.115 349.405 264.497C348.867 262.878 348.612 262.485 348.292 262.045C347.971 261.605 347.5 261.661 347.773 260.576C348.047 259.5 348.197 259.051 348.197 259.051C348.197 259.051 348.518 258.293 347.877 258.293C347.236 258.293 346.547 258.443 346.189 259.182C345.849 259.921 345.934 261.708 345.934 261.708L342.794 261.83C342.794 261.83 340.87 261.895 340.87 263.888C340.87 265.881 340.87 269.213 340.87 269.213C340.87 269.213 340.597 270.251 342.002 270.251C343.407 270.251 344.887 270.204 344.887 270.204C344.887 270.204 346.066 270.083 347.999 271.477C349.933 272.871 364.644 281.227 364.644 281.227C364.644 281.227 369.727 284.24 373.065 281.077C376.404 277.915 383.731 270.092 383.731 270.092L384.099 267.612L377.724 262.176Z" fill="#FFBF99"/>
<path d="M402.28 235.21C402.28 235.21 403.185 239.72 405.005 244.239C406.825 248.759 407.73 250.555 407.73 250.555C407.73 250.555 402.28 256.871 396.81 255.964C391.359 255.065 391.359 251.454 391.359 251.454C391.359 251.454 396.367 247.393 396.367 241.975C396.367 236.557 396.367 236.567 396.367 236.567L402.28 235.21Z" fill="#FFB48F"/>
<path d="M390.246 250.416C390.246 250.416 385.72 252.914 383.843 254.496C381.957 256.077 376.516 262.29 376.516 262.29L383.966 269.467L389.152 263.628L390.246 250.416Z" fill="#F79F03"/>
<path d="M405.43 248.299C405.43 248.299 402.705 251.911 399.064 252.809C395.424 253.707 393.614 251.003 393.614 251.003L392.614 249.712C392.614 249.712 391.605 248.926 390.492 249.852C389.38 250.76 387.258 253.099 385.419 256.879C383.571 260.65 383.033 265.815 382.646 277.876C382.26 289.937 382.646 302.953 382.646 302.953H420.264L420.707 284.211C420.707 284.211 416.709 259.284 412.776 254.213C408.844 249.141 407.703 248.037 407.703 248.037C407.703 248.037 406.797 246.802 405.43 248.299Z" fill="#FCBE42"/>
<path d="M390.896 223.018C390.896 223.018 388.171 226.629 388.171 232.955C388.171 239.271 389.076 243.79 391.811 243.79C394.546 243.79 400.006 241.984 400.911 240.178C401.817 238.372 403.637 238.372 403.637 234.77C403.637 231.168 399.091 223.036 395.442 223.036C391.802 223.036 390.896 223.018 390.896 223.018Z" fill="#FFBF99"/>
<path d="M388.172 223.019C388.172 223.019 385.447 215.804 387.267 214.887C389.087 213.989 392.718 215.786 393.632 216.693C394.538 217.591 396.358 217.591 397.272 217.591C397.272 217.591 406.373 217.591 408.193 219.397C410.013 221.203 410.013 222.102 410.013 223.009C410.013 223.907 410.022 227.454 410.918 229.325C411.305 230.139 411.823 233.835 410.013 237.456C408.202 241.068 406.373 241.966 405.467 241.966C404.562 241.966 403.742 241.966 403.647 241.068C403.543 240.095 403.185 238.719 402.742 237.456C402.308 236.249 401.837 233.845 401.837 233.845C401.837 233.845 400.931 229.334 399.111 227.529C397.291 225.723 397.291 225.723 393.661 224.824C389.992 223.936 389.077 225.723 388.172 223.019Z" fill="#170856"/>
<path d="M400.44 229.615C399.091 231.15 400.911 233.854 400.911 233.854C400.911 233.854 403.637 234.752 403.637 232.048C403.637 229.344 401.798 228.071 400.44 229.615Z" fill="#FFBF99"/>
<path d="M418.662 267.604C418.662 267.604 422.075 280.638 421.481 288.806C420.887 296.966 418.445 304.04 416.672 308.961C414.899 313.883 413.852 315.062 413.786 318.159C413.72 321.256 412.259 324.924 410.448 326.768C408.637 328.611 407.185 329.528 407.185 329.528C407.185 329.528 405.035 330.52 405.374 328.536C405.374 328.536 403.932 328.648 404.479 327.544C404.479 327.544 402.555 327.582 403.96 326.075C405.365 324.559 407.958 323.1 407.958 323.1C407.958 323.1 409.439 320.751 407.326 321.93C405.214 323.1 403.366 323.146 405.318 321.238C407.279 319.329 409.543 315.988 411.202 309.878C412.862 303.778 414.833 291.716 412.485 282.453C410.137 273.19 407.166 270.102 407.166 270.102L418.662 267.604Z" fill="#FFBF99"/>
<path d="M426.704 407.911C426.704 407.911 424.893 412.954 422.885 415.274C420.876 417.595 419.292 419.289 419.292 419.289C419.292 419.289 416.953 423.003 419.594 421.899C422.225 420.795 436.785 411.092 436.785 411.092C436.785 411.092 438.86 410.025 437.898 408.266C436.936 406.507 434.494 403.101 434.494 403.101L426.704 407.911Z" fill="#170856"/>
<path d="M399.96 419.169C399.96 419.169 400.498 420.638 397.442 420.638C394.387 420.638 377.723 420.638 377.723 420.638C377.723 420.638 374.517 420.002 377.469 418.58C380.439 417.158 389.323 413.19 389.323 413.19C389.323 413.19 390.002 413.012 389.983 411.319H400.073L399.96 419.169Z" fill="#170856"/>
<path d="M404.411 258.92C404.411 258.92 403.77 252.866 408.211 252.286C412.653 251.705 415.473 257.582 416.953 261.399C418.434 265.217 419.179 268.015 419.179 268.015C419.179 268.015 409.626 271.832 407.108 271.832C407.098 271.832 404.977 265.488 404.411 258.92Z" fill="#F79F03"/>
<path d="M290.501 374.041C290.501 374.041 293.608 372.775 293.378 369.214C293.148 365.654 291.309 363.13 295.106 364.158C298.904 365.195 300.181 365.654 302.939 365.076C305.697 364.498 307.988 363.351 306.787 366.912C305.587 370.472 304.276 373.455 307.119 374.033C309.954 374.61 313.002 372.46 313.368 378.035C313.734 383.609 309.231 389.881 301.943 390.11C294.655 390.34 291.437 387.323 291.437 387.323C291.437 387.323 289.479 384.57 292.527 383.898C295.575 383.219 298.682 381.935 297.124 380.508C295.575 379.089 290.509 378.97 290.509 378.97C290.509 378.97 284.175 377.712 290.501 374.041Z" fill="#649EEA"/>
<path d="M323.805 374.959C323.294 371.407 323.686 368.849 330.301 367.88C336.916 366.912 340.773 370.88 341.173 374.959C341.573 379.038 335.826 380.516 335.826 380.516C335.826 380.516 331.74 381.681 333.817 385.241C335.894 388.802 336.831 392.243 332.131 392.762C327.432 393.28 322.29 392.039 319.429 390.136C316.568 388.232 313.631 383.406 316.909 380.882C316.909 380.882 317.828 380.253 320.996 380.075C324.146 379.896 323.805 374.959 323.805 374.959Z" fill="#023EA1"/>
<path d="M300.53 374.38C300.53 374.38 306.022 386.778 306.771 395.217" stroke="#023EA1" stroke-miterlimit="10"/>
<path d="M331.067 376.42C331.067 376.42 321.345 390.832 319.046 395.65" stroke="#649EEA" stroke-miterlimit="10"/>
<path d="M303.382 394.248H325.696C325.696 394.248 328.14 394.418 327.935 397.749C327.748 400.817 323.849 400.154 321.84 400.154C319.83 400.154 302.897 400.154 302.897 400.154C302.897 400.154 300.155 400.621 300.155 397.52C300.155 394.418 301.194 394.248 303.382 394.248Z" fill="#0054A5"/>
<path d="M302.905 400.156L306.285 419.836H321.269L323.806 405.067L302.931 400.156H302.905Z" fill="#0054A5"/>
<path d="M302.932 400.156L323.807 405.067L324.65 400.156H302.932Z" fill="#006AD5"/>
<path d="M312.528 394.997C312.528 394.997 313.661 373.158 320.182 359.459" stroke="#FCBE42" stroke-miterlimit="10"/>
<path d="M325.546 351.573C325.546 351.573 326.083 358.278 319.527 360.895C319.527 360.895 318.114 355.168 325.546 351.573Z" fill="#FCBE42"/>
<path d="M315.713 372.911C315.713 372.911 318.131 367.192 325.555 367.957C325.563 367.957 324.984 373.651 315.713 372.911Z" fill="#FCBE42"/>
<path d="M313.269 387.297C313.269 387.297 314.52 381.213 321.952 380.516C321.952 380.516 322.506 386.218 313.269 387.297Z" fill="#FCBE42"/>
<path d="M313.012 387.332C313.012 387.332 313.872 381.188 307.104 378.044C307.104 378.044 304.678 383.236 313.012 387.332Z" fill="#FCBE42"/>
<path d="M315.795 372.869C315.795 372.869 317.438 366.878 311.121 362.901C311.112 362.901 308.047 367.745 315.795 372.869Z" fill="#FCBE42"/>
<rect x="35.3975" y="265.618" width="9.0097" height="9.0097" transform="rotate(45 35.3975 265.618)" fill="#EE384E"/>
<rect x="361.637" y="329.048" width="9.0097" height="9.0097" transform="rotate(45 361.637 329.048)" fill="#023EA1"/>
<defs>
<linearGradient id="paint0_linear_2445_13744" x1="151.441" y1="235.983" x2="148.199" y2="301.511" gradientUnits="userSpaceOnUse">
<stop stop-color="#09005D"/>
<stop offset="1" stop-color="#1A0F91"/>
</linearGradient>
<linearGradient id="paint1_linear_2445_13744" x1="86.7991" y1="273.97" x2="28.7822" y2="243.452" gradientUnits="userSpaceOnUse">
<stop stop-color="#09005D"/>
<stop offset="1" stop-color="#1A0F91"/>
</linearGradient>
<linearGradient id="paint2_linear_2445_13744" x1="108.077" y1="418.993" x2="134.265" y2="418.993" gradientUnits="userSpaceOnUse">
<stop stop-color="#09005D"/>
<stop offset="1" stop-color="#1A0F91"/>
</linearGradient>
<linearGradient id="paint3_linear_2445_13744" x1="109.384" y1="411.094" x2="116.469" y2="411.094" gradientUnits="userSpaceOnUse">
<stop stop-color="#FEBBBA"/>
<stop offset="1" stop-color="#FF928E"/>
</linearGradient>
<linearGradient id="paint4_linear_2445_13744" x1="149.152" y1="413.799" x2="170.295" y2="413.799" gradientUnits="userSpaceOnUse">
<stop stop-color="#09005D"/>
<stop offset="1" stop-color="#1A0F91"/>
</linearGradient>
<linearGradient id="paint5_linear_2445_13744" x1="142.945" y1="411.69" x2="151.404" y2="411.69" gradientUnits="userSpaceOnUse">
<stop stop-color="#FEBBBA"/>
<stop offset="1" stop-color="#FF928E"/>
</linearGradient>
<linearGradient id="paint6_linear_2445_13744" x1="131.588" y1="333.309" x2="151.128" y2="333.309" gradientUnits="userSpaceOnUse">
<stop stop-color="#FEBBBA"/>
<stop offset="1" stop-color="#FF928E"/>
</linearGradient>
</defs>
</svg>
