<svg width="441" height="405" viewBox="0 0 441 405" fill="none" xmlns="http://www.w3.org/2000/svg">
<path d="M235.856 291.477C235.856 291.477 235.994 286.123 240.349 285.925C244.704 285.717 248.426 291.121 246.545 294.476C244.665 297.832 241.705 297.792 242.942 300.465C244.18 303.137 246.476 311.095 242.556 312.431C238.647 313.767 235.905 310.115 233.054 314.925C230.204 319.745 234.846 328.06 226.532 328.426C218.218 328.792 204.084 325.714 210.319 313.351C216.545 301.009 221.86 312.738 224.048 302.306C226.235 291.873 229.65 296.337 233.064 295.674C236.479 295.011 235.856 291.477 235.856 291.477Z" stroke="#023EA1" stroke-miterlimit="10"/>
<path d="M236.657 300.524C236.657 300.524 226.126 310.016 219.781 321.279C213.437 332.543 213.734 335.918 213.734 335.918" stroke="#023EA1" stroke-miterlimit="10"/>
<path d="M206.409 280.797C206.409 280.797 206.429 284.885 209.181 287.419C211.932 289.952 213.615 291.685 210.774 293.595C207.934 295.505 205.053 297.227 206.241 300.701C207.429 304.185 214.001 311.173 209.131 315.35C204.262 319.527 196.017 324.317 191.523 317.874C187.03 311.431 184.486 311.559 184.129 305.799C183.773 300.038 190.226 301.097 189.791 296.109C189.355 291.111 185.822 289.378 190.969 287.211C196.106 285.043 197.096 286.696 194.948 281.025C192.81 275.353 199.897 274.611 203.113 275.729C206.32 276.838 206.409 280.797 206.409 280.797Z" stroke="#DE051F" stroke-miterlimit="10"/>
<path d="M200.609 288.122C200.609 288.122 193.849 308.362 193.681 322.071" stroke="#DE051F" stroke-miterlimit="10"/>
<path d="M205.397 333.572C205.397 333.572 210.524 305.116 221.343 288.211" stroke="#FCBE42" stroke-miterlimit="10"/>
<path d="M229.686 278.769C229.686 278.769 229.27 287.657 220.253 289.993C220.243 289.993 219.343 282.243 229.686 278.769Z" fill="#FCBE42"/>
<path d="M213.255 305.126C213.255 305.126 217.372 298.03 226.973 300.266C226.963 300.266 225.251 307.64 213.255 305.126Z" fill="#FCBE42"/>
<path d="M207.651 323.585C207.651 323.585 210.294 315.816 220.162 316.132C220.152 316.132 219.915 323.714 207.651 323.585Z" fill="#FCBE42"/>
<path d="M207.307 323.595C207.307 323.595 209.464 315.677 201.111 310.431C201.121 310.431 197.072 316.835 207.307 323.595Z" fill="#FCBE42"/>
<path d="M213.365 305.077C213.365 305.077 216.513 297.486 208.901 291.221C208.901 291.231 204.081 297.07 213.365 305.077Z" fill="#FCBE42"/>
<path d="M271.544 319.161H139.072C135.925 319.161 133.371 321.715 133.371 324.862V364.483C133.371 367.631 135.925 370.184 139.072 370.184H277.245V324.862C277.245 321.715 274.691 319.161 271.544 319.161Z" fill="#B0E6FF"/>
<path d="M165.023 360.386C173.189 360.386 179.81 353.766 179.81 345.599C179.81 337.432 173.189 330.812 165.023 330.812C156.856 330.812 150.235 337.432 150.235 345.599C150.235 353.766 156.856 360.386 165.023 360.386Z" fill="#0064B7"/>
<mask id="mask0_2294_28757" style="mask-type:luminance" maskUnits="userSpaceOnUse" x="150" y="330" width="30" height="31">
<path d="M165.023 360.387C173.189 360.387 179.81 353.766 179.81 345.599C179.81 337.432 173.189 330.812 165.023 330.812C156.856 330.812 150.235 337.432 150.235 345.599C150.235 353.766 156.856 360.387 165.023 360.387Z" fill="white"/>
</mask>
<g mask="url(#mask0_2294_28757)">
<path d="M177.253 360C177.253 360 178.689 367.928 178.797 370.027C178.916 372.115 179.124 373.709 177.748 374.55C176.363 375.371 174.106 376.143 174.106 376.143L171.295 361.98V360.327L177.253 360Z" fill="#FFBF99"/>
<path d="M152.955 359.555C152.955 359.555 152.183 363.137 151.966 364.949C151.748 366.76 151.243 370.294 151.194 371.125C151.134 371.946 151.035 373.332 152.52 374.381C154.005 375.43 155.598 376.034 155.598 376.034L158.637 359.555H152.955Z" fill="#FFBF99"/>
<path d="M163.844 348.162C163.844 348.162 163.844 349.815 163.141 350.528C162.438 351.241 161.488 352.409 161.488 352.409C161.488 352.409 163.141 355.002 166.437 354.645C169.733 354.289 170.327 351.933 170.327 351.933C170.327 351.933 167.199 351.518 166.843 348.578C166.487 345.638 166.021 345.638 166.021 345.638L163.844 348.162Z" fill="#FFB07E"/>
<path d="M161.852 351.211C161.852 351.211 159.596 350.934 158.388 351.27C157.181 351.597 156.795 351.389 157.121 352.319C157.448 353.25 159.111 357.555 158.329 360.247C157.557 362.95 156.518 376.767 156.518 376.767C156.518 376.767 164.891 377.093 168.147 377.262C171.404 377.42 173.819 376.816 173.819 376.816C173.819 376.816 174.541 370.868 173.819 368.284C173.096 365.691 172.166 361.287 172.166 361.287C172.166 361.287 171.562 355.229 172.384 353.745C173.205 352.26 173.819 352.201 172.77 351.815C171.721 351.429 170.562 351.092 169.731 351.092C168.9 351.092 168.464 351.092 167.969 351.587C167.474 352.082 166.485 353.072 165.109 352.854C163.723 352.636 162.694 351.706 162.694 351.706C162.694 351.706 162.238 351.27 161.852 351.211Z" fill="#243641"/>
<path d="M157.854 351.686C157.854 351.686 157.082 351.3 155.924 352.289C154.677 353.349 153.776 355.645 153.331 357.08C152.886 358.515 152.608 359.94 152.608 359.94C152.608 359.94 154.202 360.762 155.865 360.821C157.518 360.881 158.616 360.98 158.616 360.98C158.616 360.98 159.339 356.674 159.161 354.754C159.002 352.824 158.735 352.171 157.854 351.686Z" fill="#8EAACF"/>
<path d="M171.751 353.279C171.751 353.279 172.415 351.468 173.899 352.289C175.384 353.111 176.493 356.258 176.819 357.258C177.146 358.248 177.591 360.237 177.591 360.237C177.591 360.237 175.829 361.009 174.335 361.118C172.84 361.217 171.801 361.336 171.801 361.336C171.801 361.336 171.197 357.426 171.306 355.882C171.415 354.328 171.751 353.279 171.751 353.279Z" fill="#8EAACF"/>
<path d="M169.308 344.53C169.506 342.065 169.467 338.304 165.23 338.304H165.22H165.211C160.964 338.304 160.945 342.065 161.133 344.53C160.836 343.946 159.985 344.134 160.044 345.044C160.113 345.935 161.321 346.39 161.311 346.291C161.657 348.32 163.647 349.488 165.201 349.488H165.211H165.22C166.774 349.488 168.774 348.311 169.11 346.291C169.1 346.39 170.308 345.935 170.377 345.044C170.456 344.114 169.595 343.946 169.308 344.53Z" fill="#FFBF99"/>
<path d="M161.17 344.462C161.17 344.452 161.17 344.441 161.17 344.431C161.17 344.441 161.17 344.441 161.159 344.452C161.159 344.441 161.17 344.462 161.17 344.462Z" fill="#915F41"/>
<path d="M170.207 340.779C170.137 339.927 169.811 338.888 169.316 338.215C169.098 337.928 168.188 336.849 168.871 336.552C168.554 336.156 168.098 336.622 168.019 336.978C168 337.097 167.841 337.394 167.851 337.483C167.722 336.661 167.831 336.038 167.049 335.563C165.792 334.81 164.525 336.582 163.298 336.632C162.704 336.661 161.635 336.899 161.477 336.028C161.467 335.998 161.229 336.335 161.21 336.384C161.15 336.533 161.13 336.711 161.16 336.859C161.21 337.146 161.437 337.651 161.754 337.651C161.338 337.651 161.091 337.631 160.873 337.215C160.784 337.463 160.962 337.631 161.071 337.809C160.853 337.829 160.448 337.423 160.378 337.206C160.151 337.483 160.289 337.889 160.438 338.176C160.487 338.265 161.13 338.819 161.14 338.73C161.051 339.551 160.695 340.353 160.517 341.165C160.418 341.6 160.754 342.748 160.873 342.59C160.883 342.837 161.15 344.183 161.17 344.431C161.309 344.085 161.418 343.728 161.497 343.342C161.526 343.174 161.586 342.996 161.625 342.828C161.675 342.531 161.714 342.293 161.784 341.996C161.794 341.966 161.794 341.927 161.804 341.907C162.15 340.67 163.13 340.531 164.258 340.759C164.288 340.769 164.337 340.769 164.377 340.779C165.06 340.878 165.812 340.729 166.396 340.363C166.742 340.145 167.049 339.937 167.307 339.621C167.317 339.601 167.336 339.571 167.356 339.551C167.445 339.413 167.554 339.245 167.653 339.175C167.722 339.532 167.643 339.848 167.861 340.155C168.079 340.442 168.247 340.749 168.386 341.066C168.673 341.709 169.088 343.134 169.177 343.154C169.247 343.609 169.296 344.055 169.316 344.421L169.326 344.54C169.326 344.51 169.336 344.471 169.336 344.441C169.365 344.065 169.553 343.006 169.573 342.58C169.771 342.659 170.266 341.521 170.207 340.779Z" fill="#915F41"/>
</g>
<path d="M180.236 209.296H293.061C296.208 209.296 298.762 211.85 298.762 214.997V260.21C298.762 263.358 296.208 265.911 293.061 265.911H174.535V214.997C174.535 211.85 177.089 209.296 180.236 209.296Z" fill="#B0E6FF"/>
<path d="M201.128 255.043C210.191 255.043 217.539 247.696 217.539 238.633C217.539 229.569 210.191 222.222 201.128 222.222C192.065 222.222 184.718 229.569 184.718 238.633C184.718 247.696 192.065 255.043 201.128 255.043Z" fill="#0064B7"/>
<mask id="mask1_2294_28757" style="mask-type:luminance" maskUnits="userSpaceOnUse" x="184" y="222" width="34" height="34">
<path d="M201.129 255.043C210.192 255.043 217.54 247.696 217.54 238.632C217.54 229.569 210.192 222.222 201.129 222.222C192.066 222.222 184.719 229.569 184.719 238.632C184.719 247.696 192.066 255.043 201.129 255.043Z" fill="white"/>
</mask>
<g mask="url(#mask1_2294_28757)">
<path d="M196.648 232.802C196.658 232.812 196.667 232.832 196.677 232.852C196.915 232.684 197.192 232.535 197.499 232.406C197.588 232.377 197.677 232.337 197.776 232.307H197.786C197.865 232.288 197.954 232.248 198.033 232.228C198.053 232.218 198.083 232.218 198.103 232.208C198.192 232.189 198.281 232.159 198.38 232.139C198.39 232.139 198.39 232.139 198.4 232.139C198.489 232.119 198.597 232.09 198.687 232.08C198.716 232.07 198.766 232.07 198.805 232.06C198.875 232.05 198.934 232.04 199.003 232.03C199.053 232.02 199.092 232.02 199.132 232.011C199.221 232.001 199.33 231.991 199.419 231.981C199.478 231.981 199.548 231.971 199.597 231.971C199.647 231.971 199.686 231.961 199.736 231.961C199.805 231.961 199.884 231.951 199.953 231.951C199.973 231.951 200.003 231.951 200.033 231.951C200.112 231.951 200.191 231.951 200.28 231.951C200.498 231.951 200.696 231.961 200.894 231.971C200.894 231.971 200.894 231.971 200.904 231.971C204.942 232.208 205.744 234.861 205.783 237.514C206.209 237.603 206.704 237.82 206.753 238.395C206.872 239.859 206.535 239.493 205.655 241.255C205.506 241.562 205.288 241.641 205.071 241.621C204.596 242.641 203.784 243.343 202.101 244.501L202.398 248.253C203.536 247.877 203.843 248.015 204.18 248.164C206.387 249.153 209.089 249.153 207.891 249.381C206.278 249.688 208.07 250.282 209.406 249.183C211.87 247.105 209.762 243.898 209.762 243.898C209.594 246.263 206.674 246.382 206.882 244.135C207.1 241.888 211.484 237.444 209.762 231.793C208.04 226.141 198.855 225.508 196.618 228.457C194.312 231.535 196.648 232.802 196.648 232.802Z" fill="#772635"/>
<path d="M198.705 243.918C198.705 243.918 198.705 245.907 197.854 246.759C197.002 247.61 195.864 249.025 195.864 249.025C195.864 249.025 197.854 252.153 201.823 251.717C205.792 251.292 206.504 248.451 206.504 248.451C206.504 248.451 202.743 247.946 202.318 244.413C201.892 240.859 201.328 240.859 201.328 240.859L198.705 243.918Z" fill="#FFB07E"/>
<path d="M196.323 247.6C196.323 247.6 193.611 247.273 192.146 247.669C190.681 248.065 190.226 247.808 190.622 248.926C191.008 250.045 193.007 255.221 192.087 258.477C191.166 261.734 189.899 278.362 189.899 278.362C189.899 278.362 199.975 278.758 203.885 278.956C207.795 279.154 210.704 278.431 210.704 278.431C210.704 278.431 211.576 271.265 210.704 268.148C209.833 265.03 208.715 259.725 208.715 259.725C208.715 259.725 207.983 252.43 208.982 250.638C209.972 248.847 210.704 248.778 209.447 248.322C208.19 247.867 206.805 247.451 205.795 247.451C204.796 247.451 204.271 247.451 203.677 248.045C203.083 248.639 201.886 249.837 200.233 249.57C198.58 249.302 197.313 248.174 197.313 248.174C197.313 248.174 196.788 247.669 196.323 247.6Z" fill="#3E4753"/>
<path d="M191.509 248.164C191.509 248.164 190.588 247.699 189.193 248.897C187.698 250.174 186.6 252.935 186.075 254.667C185.551 256.399 185.204 258.112 185.204 258.112C185.204 258.112 187.124 259.101 189.114 259.171C191.103 259.24 192.429 259.369 192.429 259.369C192.429 259.369 193.3 254.202 193.093 251.876C192.905 249.54 192.578 248.758 191.509 248.164Z" fill="#9DCAD1"/>
<path d="M208.216 250.094C208.216 250.094 209.018 247.907 210.809 248.897C212.601 249.887 213.927 253.667 214.323 254.865C214.719 256.063 215.243 258.448 215.243 258.448C215.243 258.448 213.125 259.369 211.334 259.507C209.542 259.646 208.285 259.774 208.285 259.774C208.285 259.774 207.553 255.063 207.691 253.212C207.82 251.341 208.216 250.094 208.216 250.094Z" fill="#9DCAD1"/>
<path d="M195.449 237.701L195.696 237.711L196.162 241.225C196.162 241.225 195.251 242.116 194.835 241.275C193.964 239.513 193.638 239.869 193.766 238.414C193.845 237.444 195.281 237.474 195.281 237.474L195.449 237.701Z" fill="#FFB07E"/>
<path d="M205.089 237.673L204.842 237.692L204.347 241.206C204.347 241.206 205.247 242.087 205.673 241.236C206.544 239.464 206.871 239.83 206.772 238.375C206.692 237.405 205.257 237.435 205.257 237.435L205.089 237.673Z" fill="#FFB07E"/>
<path d="M200.301 231.922C194.798 231.922 194.639 235.92 194.847 239.157C195.055 242.384 197.589 245.343 200.301 245.343C202.755 245.343 205.547 242.384 205.754 239.157C205.962 235.92 205.804 231.922 200.301 231.922Z" fill="#FDCBA7"/>
<path d="M196.411 232.129C196.411 232.129 195.678 229.902 199.746 229.655C203.804 229.417 205.477 231.318 204.982 232.545L196.411 232.129Z" fill="#EE2A7B"/>
<path d="M202.901 235.109C202.901 235.109 199.031 239.157 194.557 239.741C194.557 239.741 192.696 232.971 197.239 230.883C201.792 228.794 204.583 231.922 204.583 231.922C204.583 231.922 208.364 232.803 206.316 239.236C206.325 239.236 202.901 236.98 202.901 235.109Z" fill="#772635"/>
</g>
<path d="M304.739 196.212H141.545C135.25 196.212 130.133 191.104 130.133 184.8V141.051C130.133 134.756 135.24 129.639 141.545 129.639H316.171V184.8C316.151 191.104 311.054 196.212 304.739 196.212Z" fill="#B0E6FF"/>
<path d="M165.291 185.48C177.744 185.48 187.838 175.385 187.838 162.933C187.838 150.481 177.744 140.386 165.291 140.386C152.839 140.386 142.744 150.481 142.744 162.933C142.744 175.385 152.839 185.48 165.291 185.48Z" fill="#0064B7"/>
<mask id="mask2_2294_28757" style="mask-type:luminance" maskUnits="userSpaceOnUse" x="142" y="140" width="46" height="46">
<path d="M165.282 185.479C177.735 185.479 187.83 175.385 187.83 162.932C187.83 150.48 177.735 140.385 165.282 140.385C152.83 140.385 142.735 150.48 142.735 162.932C142.735 175.385 152.83 185.479 165.282 185.479Z" fill="white"/>
</mask>
<g mask="url(#mask2_2294_28757)">
<path d="M163.189 168.01C163.189 168.01 163.189 170.92 161.942 172.177C160.695 173.424 159.032 175.513 159.032 175.513C159.032 175.513 161.942 180.086 167.772 179.462C173.592 178.838 174.641 174.681 174.641 174.681C174.641 174.681 169.128 173.949 168.504 168.743C167.881 163.536 167.04 163.536 167.04 163.536L163.189 168.01Z" fill="#FFB07E"/>
<path d="M159.695 173.404C159.695 173.404 155.716 172.909 153.569 173.503C151.421 174.097 150.748 173.701 151.332 175.354C151.916 177.007 154.835 184.588 153.47 189.339C152.114 194.1 150.263 218.498 150.263 218.498C150.263 218.498 165.04 219.082 170.771 219.379C176.512 219.676 180.777 218.607 180.777 218.607C180.777 218.607 182.044 208.105 180.777 203.543C179.511 198.98 177.858 191.2 177.858 191.2C177.858 191.2 176.789 180.51 178.244 177.888C179.709 175.265 180.768 175.176 178.927 174.483C177.076 173.8 175.037 173.216 173.582 173.216C172.127 173.216 171.345 173.216 170.464 174.097C169.583 174.978 167.841 176.72 165.406 176.334C162.971 175.948 161.13 174.295 161.13 174.295C161.13 174.295 160.378 173.493 159.695 173.404Z" fill="#F7A600"/>
<path d="M152.648 174.226C152.648 174.226 151.292 173.543 149.243 175.295C147.055 177.175 145.452 181.233 144.68 183.747C143.908 186.271 143.413 188.805 143.413 188.805C143.413 188.805 146.234 190.27 149.154 190.359C152.074 190.458 154.014 190.656 154.014 190.656C154.014 190.656 155.28 183.074 154.984 179.679C154.687 176.275 154.212 175.107 152.648 174.226Z" fill="#070707"/>
<path d="M177.143 177.047C177.143 177.047 178.311 173.84 180.934 175.305C183.557 176.77 185.497 182.303 186.081 184.054C186.665 185.816 187.437 189.3 187.437 189.3C187.437 189.3 184.319 190.656 181.696 190.854C179.073 191.052 177.222 191.24 177.222 191.24C177.222 191.24 176.153 184.341 176.342 181.62C176.539 178.908 177.143 177.047 177.143 177.047Z" fill="#070707"/>
<path d="M174.412 162.438C174.63 163.041 173.571 164.773 173.146 165.367C173.324 164.417 173.522 163.111 173.66 161.576C173.66 161.586 174.205 161.854 174.412 162.438Z" fill="#FFBF99"/>
<path d="M173.859 154.648C173.611 149.115 166.198 149.046 166.198 149.046H166.188C166.188 149.046 158.774 149.115 158.527 154.648C158.408 157.112 158.527 159.547 158.725 161.586C158.863 163.13 159.051 164.437 159.24 165.377C159.358 165.991 159.467 166.436 159.556 166.703C159.715 167.139 160.031 167.664 160.427 168.208C161.239 169.326 162.387 170.514 163.199 170.989C163.852 171.385 165.426 171.682 166.188 171.642H166.198C166.94 171.692 168.435 171.405 169.117 171.029C169.137 171.019 169.167 171.009 169.187 170.999C169.998 170.504 171.147 169.336 171.958 168.218C172.354 167.673 172.661 167.149 172.829 166.713C172.918 166.466 173.037 166.011 173.146 165.387C173.324 164.437 173.522 163.13 173.661 161.596C173.859 159.537 173.957 157.103 173.859 154.648Z" fill="#FFBF99"/>
<path d="M158.716 161.587C158.855 163.131 159.043 164.437 159.231 165.378C158.805 164.784 157.746 163.062 157.964 162.448C158.181 161.854 158.716 161.587 158.716 161.587Z" fill="#FFBF99"/>
<path d="M175.1 154.648C174.962 153.144 174.358 151.333 173.438 150.125C173.042 149.61 171.329 147.72 172.616 147.195C172.022 146.493 171.171 147.314 171.032 147.948C170.983 148.146 170.686 148.68 170.726 148.838C170.498 147.403 170.696 146.285 169.241 145.473C166.915 144.147 164.549 147.255 162.253 147.354C161.145 147.413 159.165 147.809 158.848 146.305C158.838 146.245 158.393 146.839 158.353 146.918C158.264 147.166 158.215 147.502 158.264 147.76C158.353 148.264 158.779 149.125 159.363 149.155C158.601 149.155 158.126 149.125 157.72 148.403C157.562 148.848 157.878 149.106 158.086 149.452C157.69 149.502 156.918 148.779 156.799 148.393C156.374 148.888 156.631 149.601 156.918 150.095C157.007 150.254 158.205 151.224 158.235 151.085C158.076 152.53 157.403 153.936 157.067 155.351C156.888 156.113 156.71 156.945 156.829 157.746C156.958 158.657 157.265 159.706 157.522 160.587C157.948 161.993 158.492 162.676 158.64 162.972C158.729 162.646 158.967 161.983 159.056 161.636C159.452 160.062 159.026 158.41 159.422 156.836C160.016 154.51 161.887 154.223 164.045 154.648C165.381 154.896 166.885 154.639 168.043 153.965C168.687 153.589 169.241 153.223 169.736 152.669C169.944 152.441 170.161 152.026 170.389 151.897C170.518 152.511 170.369 153.085 170.775 153.619C172.557 155.905 172.764 158.647 173.16 161.428C173.18 161.577 173.606 162.982 173.596 162.992C174.388 161.963 174.536 160.28 174.912 159.093C175.279 157.796 175.219 155.945 175.1 154.648Z" fill="#52331D"/>
<path d="M173.655 166.922C173.486 165.813 173.457 164.229 173.457 163.161C173.358 163.972 172.546 164.982 172.012 165.348C171.517 165.675 170.685 166.09 170.062 165.892C169.824 165.724 169.597 165.526 169.339 165.378C168.656 164.942 167.993 164.497 167.172 164.615C166.815 164.665 166.142 164.942 166.103 165.348H165.964C165.915 164.952 165.242 164.675 164.895 164.615C164.074 164.497 163.411 164.962 162.728 165.378C162.48 165.536 162.253 165.724 162.005 165.892C161.362 166.07 160.53 165.665 160.055 165.348C159.521 164.982 158.709 163.982 158.61 163.161C158.61 164.249 158.59 165.823 158.412 166.922C158.194 166.872 157.967 166.793 157.749 166.684C157.749 166.991 158.026 167.219 158.343 167.367C158.353 167.367 158.353 167.377 158.363 167.377C158.521 168.812 161.55 172.722 161.589 172.88C161.728 173.375 163.381 174.394 164.034 174.761C164.727 175.157 165.311 175.236 165.994 175.236H166.073C166.756 175.236 167.34 175.157 168.033 174.761C168.696 174.394 170.339 173.365 170.478 172.88C170.527 172.722 173.546 168.822 173.704 167.377C173.714 167.377 173.714 167.367 173.724 167.367C174.041 167.219 174.318 166.991 174.318 166.684C174.1 166.803 173.882 166.882 173.655 166.922ZM170.705 167.753C170.349 167.684 170.012 167.506 169.686 167.298C169.102 167.595 168.241 167.911 167.657 167.615C167.637 167.605 167.607 167.595 167.587 167.565C167.093 167.238 166.667 167.516 166.152 167.545V167.605C166.706 167.822 166.736 167.832 166.152 167.605C166.132 167.595 166.123 167.595 166.093 167.585H165.954C165.37 167.763 165.4 167.753 165.954 167.585V167.555C165.42 167.555 164.974 167.248 164.47 167.575C164.45 167.585 164.42 167.595 164.4 167.624C163.816 167.921 162.955 167.605 162.371 167.308C162.045 167.516 161.708 167.694 161.352 167.763C161.154 167.793 160.966 167.812 160.758 167.812C160.936 167.812 161.114 167.793 161.283 167.763C161.659 167.694 162.025 167.516 162.381 167.308C162.678 167.139 162.965 166.951 163.232 166.803C163.806 166.496 164.47 166.209 165.103 166.179C165.41 166.16 165.707 166.259 165.974 166.15H166.113C166.36 166.268 166.667 166.16 166.984 166.179C167.627 166.209 168.27 166.506 168.854 166.803C169.131 166.951 169.409 167.13 169.706 167.308C170.062 167.516 170.428 167.694 170.804 167.763C170.972 167.793 171.151 167.812 171.329 167.812C171.091 167.803 170.893 167.793 170.705 167.753Z" fill="#52331D"/>
<path d="M173.659 166.892C173.134 166.991 172.6 166.912 172.016 166.744C171.432 166.575 170.868 166.397 170.353 166.07C170.254 166.001 170.155 165.932 170.056 165.863C169.819 165.694 169.591 165.496 169.334 165.348C168.651 164.912 167.987 164.467 167.166 164.586C166.81 164.635 166.137 164.912 166.097 165.318H165.958C165.909 164.922 165.236 164.645 164.889 164.586C164.068 164.467 163.405 164.932 162.722 165.348C162.474 165.506 162.247 165.694 161.999 165.863C161.91 165.932 161.801 166.001 161.702 166.07C161.188 166.397 160.614 166.585 160.04 166.744C159.446 166.912 158.921 166.991 158.397 166.892C158.179 166.843 157.951 166.763 157.733 166.654C157.733 166.961 158.011 167.189 158.327 167.337C158.604 167.476 158.921 167.545 159.099 167.585C159.782 167.723 160.574 167.852 161.277 167.723C161.653 167.654 162.019 167.476 162.375 167.268C162.672 167.1 162.959 166.912 163.227 166.763C163.801 166.457 164.464 166.169 165.097 166.14C165.404 166.12 165.701 166.219 165.968 166.11H166.107C166.354 166.229 166.661 166.12 166.978 166.14C167.621 166.169 168.265 166.466 168.849 166.763C169.126 166.912 169.403 167.09 169.7 167.268C170.056 167.476 170.422 167.654 170.798 167.723C171.501 167.852 172.283 167.714 172.976 167.585C173.174 167.555 173.481 167.466 173.748 167.337C174.065 167.189 174.342 166.961 174.342 166.654C174.104 166.763 173.877 166.843 173.659 166.892Z" fill="#6B4732"/>
</g>
<path d="M292.7 69.9743C292.7 69.9743 279.259 65.451 279.11 73.3494C278.962 81.2379 275.745 81.9605 272.39 82.5543C269.025 83.1383 262.601 81.6734 262.898 90.0073C263.195 98.3412 266.55 102.488 263.927 106.042C261.304 109.595 255.435 127.411 262.898 127.846C270.361 128.282 276.497 119.513 278.111 115.138C279.724 110.753 285.564 108.714 290.394 108.269C295.224 107.833 300.48 103.627 296.817 98.272C293.165 92.9173 294.284 85.9097 298.035 83.2769C301.747 80.654 301.747 73.1812 292.7 69.9743Z" stroke="#023EA1" stroke-miterlimit="10"/>
<path d="M288.749 78.9021L262.45 134.428" stroke="#023EA1" stroke-miterlimit="10"/>
<path d="M271.064 88.8394L278.062 101.459L291.969 99.9051" stroke="#023EA1" stroke-miterlimit="10"/>
<path d="M277.161 127.728C277.161 127.728 292.176 103.013 308.359 91.1458" stroke="#DE051F" stroke-miterlimit="10"/>
<path d="M319.545 85.3259C319.545 85.3259 315.962 93.4717 306.697 92.4127C306.707 92.4028 308.647 84.8508 319.545 85.3259Z" stroke="#DE051F" stroke-miterlimit="10"/>
<path d="M294.73 104.003C294.73 104.003 301.134 98.8562 309.28 104.399C309.28 104.409 305.024 110.674 294.73 104.003Z" stroke="#DE051F" stroke-miterlimit="10"/>
<path d="M282.854 119.226C282.854 119.226 288.13 112.931 297.196 116.771C297.216 116.771 294.267 123.749 282.854 119.226Z" stroke="#DE051F" stroke-miterlimit="10"/>
<path d="M282.536 119.107C282.536 119.107 287.396 112.485 281.497 104.597C281.497 104.587 275.43 109.12 282.536 119.107Z" stroke="#DE051F" stroke-miterlimit="10"/>
<path d="M294.85 104.003C294.85 104.003 300.512 98.0544 295.672 89.473C295.672 89.4631 289.06 93.1847 294.85 104.003Z" stroke="#DE051F" stroke-miterlimit="10"/>
<path d="M317.43 347.073C376.221 347.073 423.88 299.414 423.88 240.623C423.88 181.832 376.221 134.172 317.43 134.172C258.639 134.172 210.979 181.832 210.979 240.623C210.979 299.414 258.639 347.073 317.43 347.073Z" stroke="#2626DB" stroke-miterlimit="10" stroke-dasharray="6 6"/>
<path d="M116.919 303.82C175.71 303.82 223.369 256.16 223.369 197.369C223.369 138.578 175.71 90.919 116.919 90.919C58.1282 90.919 10.4688 138.578 10.4688 197.369C10.4688 256.16 58.1282 303.82 116.919 303.82Z" stroke="#2626DB" stroke-miterlimit="10" stroke-dasharray="6 6"/>
<path d="M36.3142 237.255C36.4744 227.307 28.54 219.113 18.5922 218.953C8.64434 218.793 0.4502 226.727 0.290024 236.675C0.129848 246.623 8.06429 254.817 18.0121 254.977C27.9599 255.137 36.1541 247.203 36.3142 237.255Z" fill="#003EB0"/>
<path d="M422.208 283.153C432.157 283.153 440.222 275.088 440.222 265.139C440.222 255.191 432.157 247.125 422.208 247.125C412.259 247.125 404.194 255.191 404.194 265.139C404.194 275.088 412.259 283.153 422.208 283.153Z" fill="#FCBE42"/>
<path d="M11.9805 233.358L19.186 244.176L24.6001 235.169" stroke="white" stroke-width="2" stroke-miterlimit="10"/>
<path d="M417.702 257.934L429.411 266.04L417.702 272.355V257.934Z" fill="white"/>
<path d="M174.72 27.7718L168.344 34.1476L174.72 40.5235L181.095 34.1476L174.72 27.7718Z" fill="#EE384E"/>
<path d="M17.7694 356.771L11.3936 363.146L17.7694 369.522L24.1452 363.146L17.7694 356.771Z" fill="#EE384E"/>
<path d="M318.588 102.902L312.212 109.277L318.588 115.653L324.964 109.277L318.588 102.902Z" fill="#003EB0"/>
<path d="M393.718 359.803L387.342 366.179L393.718 372.554L400.093 366.179L393.718 359.803Z" fill="#003EB0"/>
<path d="M299.108 152.502H200.783C199.526 152.502 198.497 151.473 198.497 150.216V142.99C198.497 141.733 199.526 140.704 200.783 140.704H299.108C300.365 140.704 301.394 141.733 301.394 142.99V150.216C301.394 151.482 300.365 152.502 299.108 152.502Z" stroke="#0064B7" stroke-miterlimit="10"/>
<path d="M299.108 168.824H200.783C199.526 168.824 198.497 167.794 198.497 166.537V159.312C198.497 158.055 199.526 157.026 200.783 157.026H299.108C300.365 157.026 301.394 158.055 301.394 159.312V166.537C301.394 167.804 300.365 168.824 299.108 168.824Z" stroke="#0064B7" stroke-miterlimit="10"/>
<path d="M299.108 185.135H200.783C199.526 185.135 198.497 184.106 198.497 182.849V175.623C198.497 174.366 199.526 173.337 200.783 173.337H299.108C300.365 173.337 301.394 174.366 301.394 175.623V182.849C301.394 184.116 300.365 185.135 299.108 185.135Z" stroke="#0064B7" stroke-miterlimit="10"/>
<path d="M283.758 229.249H226.935C225.678 229.249 224.648 228.22 224.648 226.963V224.499C224.648 223.242 225.678 222.212 226.935 222.212H283.758C285.015 222.212 286.044 223.242 286.044 224.499V226.963C286.044 228.23 285.025 229.249 283.758 229.249Z" fill="#0064B7"/>
<path d="M283.758 240.742H226.935C225.678 240.742 224.648 239.712 224.648 238.455V235.991C224.648 234.734 225.678 233.704 226.935 233.704H283.758C285.015 233.704 286.044 234.734 286.044 235.991V238.455C286.044 239.722 285.025 240.742 283.758 240.742Z" fill="#0064B7"/>
<path d="M283.758 252.233H226.935C225.678 252.233 224.648 251.204 224.648 249.947V247.482C224.648 246.225 225.678 245.196 226.935 245.196H283.758C285.015 245.196 286.044 246.225 286.044 247.482V249.947C286.044 251.224 285.025 252.233 283.758 252.233Z" fill="#0064B7"/>
<path d="M385.683 129.223H343.509C342.252 129.223 341.223 130.252 341.223 131.509V148.246C341.223 149.503 342.252 150.533 343.509 150.533H387.97V131.509C387.97 130.242 386.94 129.223 385.683 129.223Z" fill="#B0E6FF"/>
<path d="M351.44 146.436C354.851 146.436 357.616 143.671 357.616 140.26C357.616 136.849 354.851 134.083 351.44 134.083C348.029 134.083 345.264 136.849 345.264 140.26C345.264 143.671 348.029 146.436 351.44 146.436Z" fill="#0064B7"/>
<mask id="mask3_2294_28757" style="mask-type:luminance" maskUnits="userSpaceOnUse" x="345" y="134" width="13" height="13">
<path d="M351.438 146.435C354.849 146.435 357.614 143.67 357.614 140.259C357.614 136.848 354.849 134.083 351.438 134.083C348.027 134.083 345.262 136.848 345.262 140.259C345.262 143.67 348.027 146.435 351.438 146.435Z" fill="white"/>
</mask>
<g mask="url(#mask3_2294_28757)">
<path d="M350.859 141.655C350.859 141.655 350.859 142.456 350.513 142.793C350.166 143.129 349.711 143.704 349.711 143.704C349.711 143.704 350.513 144.961 352.106 144.792C353.7 144.624 353.987 143.476 353.987 143.476C353.987 143.476 352.482 143.278 352.314 141.853C352.146 140.427 351.918 140.427 351.918 140.427L350.859 141.655Z" fill="#FFBF99"/>
<path d="M349.91 143.12C349.91 143.12 348.812 142.982 348.238 143.14C347.654 143.298 347.466 143.199 347.624 143.645C347.782 144.1 348.584 146.179 348.208 147.475C347.832 148.772 347.327 155.463 347.327 155.463C347.327 155.463 351.365 155.621 352.939 155.7C354.513 155.779 355.681 155.482 355.681 155.482C355.681 155.482 356.027 152.602 355.681 151.365C355.334 150.108 354.879 147.99 354.879 147.99C354.879 147.99 354.582 145.06 354.978 144.348C355.374 143.645 355.671 143.605 355.156 143.407C354.651 143.229 354.097 143.061 353.691 143.061C353.295 143.061 353.078 143.061 352.84 143.298C352.603 143.536 352.118 144.021 351.464 143.912C350.801 143.813 350.287 143.358 350.287 143.358C350.287 143.358 350.089 143.15 349.91 143.12Z" fill="#1B3A62"/>
<path d="M347.983 143.348C347.983 143.348 347.607 143.17 347.043 143.645C346.439 144.16 346.004 145.269 345.786 145.961C345.568 146.654 345.439 147.347 345.439 147.347C345.439 147.347 346.211 147.743 347.013 147.773C347.815 147.792 348.349 147.852 348.349 147.852C348.349 147.852 348.696 145.773 348.617 144.843C348.537 143.913 348.399 143.596 347.983 143.348Z" fill="#021E34"/>
<path d="M354.694 144.12C354.694 144.12 355.011 143.239 355.733 143.645C356.456 144.041 356.99 145.565 357.149 146.04C357.307 146.515 357.525 147.475 357.525 147.475C357.525 147.475 356.674 147.852 355.951 147.901C355.229 147.96 354.734 148 354.734 148C354.734 148 354.437 146.11 354.496 145.367C354.536 144.635 354.694 144.12 354.694 144.12Z" fill="#021E34"/>
<path d="M351.494 140.903H350.534C350.534 140.903 350.613 141.675 351.494 141.675C352.375 141.675 352.454 140.903 352.454 140.903H351.494Z" fill="white"/>
<path d="M354.136 139.32C354.205 139.518 353.869 140.052 353.74 140.24C353.8 139.943 353.859 139.537 353.899 139.052C353.899 139.052 354.067 139.141 354.136 139.32Z" fill="#FFBF99"/>
<path d="M353.96 136.884C353.88 135.152 351.554 135.122 351.554 135.122C351.554 135.122 349.229 135.142 349.149 136.884C349.12 137.656 349.149 138.428 349.209 139.062C349.258 139.537 349.308 139.952 349.367 140.249C349.397 140.447 349.436 140.576 349.466 140.665C349.516 140.804 349.615 140.962 349.743 141.13C349.991 141.487 350.357 141.853 350.614 142.011C350.822 142.14 351.307 142.229 351.554 142.219C351.782 142.229 352.247 142.14 352.465 142.021C352.475 142.021 352.475 142.011 352.485 142.011C352.732 141.863 353.099 141.487 353.356 141.13C353.485 140.962 353.584 140.784 353.633 140.665C353.663 140.586 353.702 140.447 353.732 140.249C353.791 139.952 353.851 139.547 353.89 139.062C353.97 138.408 353.989 137.646 353.96 136.884Z" fill="#FFBF99"/>
<path d="M349.206 139.052C349.256 139.527 349.305 139.943 349.364 140.239C349.226 140.061 348.899 139.507 348.969 139.319C349.038 139.141 349.206 139.052 349.206 139.052Z" fill="#FFBF99"/>
<path d="M352.899 141.734L352.909 141.744C352.751 141.912 352.593 142.061 352.454 142.14C352.256 142.259 351.85 142.506 351.632 142.496H351.543C351.326 142.506 350.92 142.259 350.722 142.14C350.583 142.061 350.425 141.912 350.267 141.744L350.277 141.734C350.544 141.714 350.425 141.368 350.494 141.219C350.564 141.081 350.781 141.051 350.91 140.982C351.009 140.923 351.108 140.903 351.207 140.853C351.326 140.794 351.425 140.794 351.534 140.794H351.623C351.751 140.794 351.84 140.794 351.949 140.853C352.048 140.903 352.147 140.923 352.246 140.982C352.375 141.051 352.593 141.081 352.662 141.219C352.751 141.368 352.632 141.704 352.899 141.734ZM352.464 141.576C352.612 141.328 352.444 141.309 352.236 141.249C352.078 141.19 351.771 141.051 351.613 141.041H351.583C351.425 141.041 351.118 141.19 350.959 141.249C350.762 141.318 350.583 141.338 350.732 141.576C350.811 141.714 351.019 141.952 351.197 141.932C351.405 141.912 351.494 141.645 351.583 141.516H351.613C351.702 141.645 351.791 141.902 351.999 141.932C352.177 141.952 352.375 141.704 352.464 141.576Z" fill="#915F41"/>
<path d="M351.585 138.557C351.644 138.557 351.783 138.557 351.822 138.567C351.941 138.567 351.911 138.478 351.981 138.389C352.07 138.27 352.277 138.3 352.406 138.3C352.584 138.29 352.762 138.28 352.941 138.28C353.069 138.28 353.445 138.26 353.475 138.27C353.485 138.27 353.633 138.349 353.683 138.418C353.703 138.448 353.713 138.488 353.732 138.517C353.752 138.646 353.723 138.794 353.713 138.893C353.693 139.052 353.663 139.21 353.554 139.309C353.525 139.329 353.475 139.339 353.435 139.339C353.376 139.349 353.158 139.349 353.109 139.359C352.931 139.369 352.743 139.378 352.564 139.368C352.357 139.359 352.119 139.378 352.04 139.062C352.02 138.982 351.99 138.705 351.961 138.676C351.891 138.606 351.693 138.596 351.614 138.596C351.575 138.567 351.575 138.587 351.585 138.557ZM352.169 139.24C352.218 139.27 352.396 139.299 352.396 139.299C352.446 139.299 353.049 139.309 353.297 139.27C353.346 139.26 353.426 139.24 353.455 139.21C353.534 139.151 353.604 138.626 353.544 138.547C353.515 138.498 353.416 138.428 353.386 138.399C353.247 138.28 352.149 138.339 352.109 138.399C352.05 138.468 352.05 138.527 352.05 138.606C352.119 138.557 352.149 138.626 352.169 138.705C352.169 138.755 352.188 138.933 352.109 138.854C352.099 138.844 352.089 138.804 352.06 138.834C352.03 138.864 352.04 138.973 352.04 139.002C352.089 139.171 352.159 139.23 352.169 139.24Z" fill="#6B4732"/>
<path d="M351.575 138.557C351.516 138.557 351.377 138.557 351.338 138.567C351.219 138.567 351.249 138.478 351.179 138.389C351.09 138.27 350.883 138.3 350.754 138.3C350.576 138.29 350.398 138.28 350.219 138.28C350.091 138.28 349.715 138.26 349.685 138.27C349.675 138.27 349.527 138.349 349.477 138.418C349.457 138.448 349.447 138.488 349.428 138.517C349.408 138.646 349.437 138.794 349.447 138.893C349.467 139.052 349.497 139.21 349.606 139.309C349.635 139.329 349.685 139.339 349.724 139.339C349.784 139.349 350.002 139.349 350.051 139.359C350.229 139.369 350.417 139.378 350.595 139.368C350.803 139.359 351.041 139.378 351.12 139.062C351.14 138.982 351.17 138.705 351.199 138.676C351.269 138.606 351.466 138.596 351.546 138.596C351.575 138.567 351.585 138.587 351.575 138.557ZM350.991 139.24C350.942 139.27 350.764 139.299 350.764 139.299C350.714 139.299 350.111 139.309 349.863 139.27C349.814 139.26 349.734 139.24 349.705 139.21C349.626 139.151 349.556 138.626 349.616 138.547C349.645 138.498 349.744 138.428 349.774 138.399C349.913 138.28 351.011 138.339 351.051 138.399C351.11 138.468 351.11 138.527 351.11 138.606C351.041 138.557 351.011 138.626 350.991 138.705C350.991 138.755 350.972 138.933 351.051 138.854C351.061 138.844 351.071 138.804 351.1 138.834C351.13 138.864 351.12 138.973 351.12 139.002C351.061 139.171 351.001 139.23 350.991 139.24Z" fill="#6B4732"/>
</g>
<path d="M382.824 136.726H360.871C360.554 136.726 360.297 136.478 360.297 136.152V134.647C360.297 134.331 360.544 134.073 360.871 134.073H382.824C383.141 134.073 383.398 134.321 383.398 134.647V136.152C383.388 136.469 383.131 136.726 382.824 136.726Z" fill="#0064B7"/>
<path d="M382.824 141.052H360.871C360.554 141.052 360.297 140.804 360.297 140.477V138.973C360.297 138.656 360.544 138.399 360.871 138.399H382.824C383.141 138.399 383.398 138.646 383.398 138.973V140.477C383.388 140.794 383.131 141.052 382.824 141.052Z" fill="#0064B7"/>
<path d="M382.824 145.366H360.871C360.554 145.366 360.297 145.119 360.297 144.792V143.288C360.297 142.971 360.544 142.714 360.871 142.714H382.824C383.141 142.714 383.398 142.961 383.398 143.288V144.792C383.388 145.119 383.131 145.366 382.824 145.366Z" fill="#0064B7"/>
<path d="M71.8762 106.25H26.7424C25.4854 106.25 24.4561 107.279 24.4561 108.537V126.62C24.4561 127.877 25.4854 128.906 26.7424 128.906H74.1626V108.537C74.1626 107.279 73.1431 106.25 71.8762 106.25Z" fill="#B0E6FF"/>
<path d="M35.321 124.56C38.9452 124.56 41.8832 121.622 41.8832 117.998C41.8832 114.374 38.9452 111.436 35.321 111.436C31.6968 111.436 28.7588 114.374 28.7588 117.998C28.7588 121.622 31.6968 124.56 35.321 124.56Z" fill="#0064B7"/>
<mask id="mask4_2294_28757" style="mask-type:luminance" maskUnits="userSpaceOnUse" x="28" y="111" width="14" height="14">
<path d="M35.3171 124.56C38.9413 124.56 41.8793 121.622 41.8793 117.998C41.8793 114.374 38.9413 111.436 35.3171 111.436C31.6929 111.436 28.7549 114.374 28.7549 117.998C28.7549 121.622 31.6929 124.56 35.3171 124.56Z" fill="white"/>
</mask>
<g mask="url(#mask4_2294_28757)">
<path d="M34.6987 119.463C34.6987 119.463 34.6987 120.304 34.3325 120.67C33.9663 121.036 33.4912 121.64 33.4912 121.64C33.4912 121.64 34.3325 122.976 36.0349 122.788C37.7373 122.61 38.0343 121.393 38.0343 121.393C38.0343 121.393 36.4209 121.175 36.2428 119.671C36.0646 118.156 35.8172 118.156 35.8172 118.156L34.6987 119.463Z" fill="#FFB07E"/>
<path d="M33.693 121.046C33.693 121.046 32.525 120.908 31.9114 121.066C31.2977 121.224 31.0899 121.125 31.2581 121.6C31.4264 122.076 32.2776 124.293 31.8817 125.678C31.4858 127.074 30.9414 134.171 30.9414 134.171C30.9414 134.171 35.2469 134.339 36.9098 134.418C38.5726 134.497 39.8197 134.19 39.8197 134.19C39.8197 134.19 40.1859 131.132 39.8197 129.806C39.4535 128.47 38.9784 126.213 38.9784 126.213C38.9784 126.213 38.6716 123.095 39.0972 122.333C39.5228 121.571 39.8296 121.541 39.2951 121.343C38.7606 121.145 38.1668 120.977 37.7412 120.977C37.3156 120.977 37.0879 120.977 36.8405 121.224C36.593 121.472 36.0783 121.986 35.3657 121.878C34.663 121.759 34.1186 121.284 34.1186 121.284C34.1186 121.284 33.881 121.066 33.693 121.046Z" fill="#1B3A62"/>
<path d="M31.6346 121.284C31.6346 121.284 31.2387 121.086 30.6448 121.591C30.0014 122.135 29.5362 123.313 29.3086 124.055C29.081 124.788 28.9424 125.53 28.9424 125.53C28.9424 125.53 29.7639 125.955 30.6052 125.985C31.4465 126.005 32.0206 126.064 32.0206 126.064C32.0206 126.064 32.3868 123.857 32.3076 122.867C32.2284 121.878 32.0899 121.531 31.6346 121.284Z" fill="#00AEEF"/>
<path d="M38.7682 122.106C38.7682 122.106 39.1146 121.165 39.8768 121.591C40.6389 122.016 41.213 123.63 41.3713 124.135C41.5297 124.639 41.7672 125.659 41.7672 125.659C41.7672 125.659 40.8665 126.055 40.1044 126.114C39.3423 126.174 38.8078 126.233 38.8078 126.233C38.8078 126.233 38.501 124.224 38.5604 123.422C38.6 122.64 38.7682 122.106 38.7682 122.106Z" fill="#00AEEF"/>
<path d="M38.2356 116.671C38.2356 116.671 38.4138 116.76 38.5029 116.968C38.5821 117.186 38.206 117.779 38.0674 117.987" fill="#FFB07E"/>
<path d="M38.3042 114.267C38.2152 112.346 35.6417 112.317 35.6417 112.317C35.6417 112.317 33.0584 112.336 32.9792 114.267C32.9495 115.118 32.9792 115.969 33.0485 116.672C33.098 117.206 33.1673 117.661 33.2267 117.988C33.2762 118.206 33.3059 118.354 33.3455 118.443C33.4048 118.592 33.5038 118.77 33.6424 118.968C33.9294 119.354 34.3253 119.77 34.6025 119.938C34.8301 120.076 35.3745 120.175 35.6417 120.166C35.909 120.175 36.4534 120.076 36.681 119.938C36.968 119.77 37.3639 119.354 37.6411 118.968C37.7796 118.77 37.8885 118.592 37.938 118.443C37.9677 118.354 38.0073 118.196 38.0568 117.988C38.1162 117.661 38.1855 117.196 38.2349 116.672C38.3042 115.959 38.3339 115.118 38.3042 114.267Z" fill="#FFB07E"/>
<path d="M33.0399 116.671C33.0894 117.205 33.1587 117.661 33.2181 117.987C33.0696 117.779 32.7034 117.176 32.7826 116.968C32.8617 116.76 33.0399 116.671 33.0399 116.671Z" fill="#FFB07E"/>
<path d="M33.7979 113.89L33.7385 113.96C33.7385 114.435 33.7187 114.732 33.4614 115.138C33.2634 115.444 32.9863 115.86 33.0457 116.246C32.9962 116.009 33.0259 115.771 32.8774 115.563C32.719 115.326 32.6597 115.167 32.6795 114.841C32.7091 114.484 32.7091 114.069 32.9071 113.742C32.9962 113.593 33.1545 113.504 33.2238 113.366C33.2535 113.287 33.2337 113.138 33.2931 113.019C33.6692 112.317 34.9262 112.336 35.6191 112.317C35.6191 112.317 38.2024 112.336 38.2816 114.267C38.3311 115.207 38.2717 116.117 38.2024 116.87C38.1727 116.622 37.9649 116.424 37.8362 116.197C37.6976 115.919 37.6382 115.662 37.4205 115.425C37.1433 115.108 36.6287 114.959 36.2327 114.831C35.3914 114.573 34.471 114.435 33.7979 113.89Z" fill="#915F41"/>
<path d="M34.9678 113.731C35.1261 113.849 35.2647 113.968 35.4033 114.107C35.5418 114.236 35.6804 114.384 35.819 114.493C35.9674 114.612 36.1357 114.691 36.3139 114.76C36.4029 114.79 36.492 114.829 36.5811 114.859C36.6702 114.889 36.7494 114.938 36.8285 114.998C36.6603 114.909 36.4722 114.849 36.304 114.79C36.2149 114.76 36.1258 114.72 36.0367 114.691C35.9476 114.641 35.8685 114.602 35.7992 114.532C35.6507 114.404 35.522 114.265 35.3835 114.137C35.2449 113.988 35.1162 113.859 34.9678 113.731Z" fill="#BB8B6C"/>
<path d="M36.3027 114.058C36.3126 114.138 36.3522 114.217 36.3918 114.286C36.4413 114.355 36.4809 114.425 36.5304 114.494C36.6294 114.623 36.7481 114.761 36.857 114.87C36.9758 114.989 37.1045 115.088 37.243 115.187C37.3123 115.236 37.3816 115.286 37.441 115.345C37.5004 115.405 37.5598 115.474 37.5993 115.543C37.5499 115.474 37.4806 115.414 37.4311 115.365C37.3618 115.306 37.2925 115.266 37.2232 115.217C37.0847 115.127 36.9362 115.038 36.8273 114.91C36.7184 114.781 36.5997 114.662 36.5106 114.524C36.4611 114.454 36.4215 114.385 36.3819 114.306C36.3324 114.217 36.3126 114.138 36.3027 114.058Z" fill="#BB8B6C"/>
</g>
<path d="M68.7316 114.237H45.3036C44.9868 114.237 44.7295 113.99 44.7295 113.663V111.99C44.7295 111.674 44.9769 111.416 45.3036 111.416H68.7216C69.0384 111.416 69.2957 111.664 69.2957 111.99V113.663C69.3056 113.98 69.0384 114.237 68.7316 114.237Z" fill="#0064B7"/>
<path d="M68.7316 118.84H45.3036C44.9868 118.84 44.7295 118.593 44.7295 118.266V116.594C44.7295 116.277 44.9769 116.02 45.3036 116.02H68.7216C69.0384 116.02 69.2957 116.267 69.2957 116.594V118.266C69.3056 118.573 69.0384 118.84 68.7316 118.84Z" fill="#0064B7"/>
<path d="M68.7316 123.442H45.3036C44.9868 123.442 44.7295 123.195 44.7295 122.868V121.196C44.7295 120.879 44.9769 120.621 45.3036 120.621H68.7216C69.0384 120.621 69.2957 120.869 69.2957 121.196V122.868C69.3056 123.175 69.0384 123.442 68.7316 123.442Z" fill="#0064B7"/>
<path d="M266.722 337.146H186.807C186.491 337.146 186.233 336.898 186.233 336.572V331.375C186.233 331.059 186.481 330.801 186.807 330.801H266.722C267.039 330.801 267.296 331.049 267.296 331.375V336.572C267.296 336.898 267.029 337.146 266.722 337.146Z" stroke="#0064B7" stroke-miterlimit="10"/>
<path d="M266.722 347.508H186.807C186.491 347.508 186.233 347.261 186.233 346.934V341.738C186.233 341.421 186.481 341.164 186.807 341.164H266.722C267.039 341.164 267.296 341.411 267.296 341.738V346.934C267.296 347.251 267.029 347.508 266.722 347.508Z" stroke="#0064B7" stroke-miterlimit="10"/>
<path d="M266.722 357.871H186.807C186.491 357.871 186.233 357.623 186.233 357.297V352.101C186.233 351.784 186.481 351.526 186.807 351.526H266.722C267.039 351.526 267.296 351.774 267.296 352.101V357.297C267.296 357.614 267.029 357.871 266.722 357.871Z" stroke="#0064B7" stroke-miterlimit="10"/>
<path d="M107.831 162.598H64.3697C63.7461 162.598 63.2314 163.113 63.2314 163.736V182.304C63.2314 182.928 63.7461 183.443 64.3697 183.443H108.979V163.736C108.969 163.113 108.464 162.598 107.831 162.598Z" fill="#B0E6FF"/>
<path d="M73.2165 179.444C76.5564 179.444 79.264 176.736 79.264 173.396C79.264 170.056 76.5564 167.349 73.2165 167.349C69.8765 167.349 67.1689 170.056 67.1689 173.396C67.1689 176.736 69.8765 179.444 73.2165 179.444Z" fill="#0064B7"/>
<mask id="mask5_2294_28757" style="mask-type:luminance" maskUnits="userSpaceOnUse" x="67" y="167" width="13" height="13">
<path d="M73.2214 179.444C76.5613 179.444 79.2689 176.736 79.2689 173.396C79.2689 170.056 76.5613 167.349 73.2214 167.349C69.8814 167.349 67.1738 170.056 67.1738 173.396C67.1738 176.736 69.8814 179.444 73.2214 179.444Z" fill="white"/>
</mask>
<g mask="url(#mask5_2294_28757)">
<path d="M75.8368 174.287C75.5596 173.238 75.9555 172.852 76.0644 171.427L73.3128 171.338L70.5613 171.427C70.68 172.852 71.066 173.238 70.7889 174.287C70.393 175.841 69.2943 177.89 73.3128 177.89C77.3313 177.89 76.2426 175.841 75.8368 174.287Z" fill="#4B2C61"/>
<path d="M72.669 174.761C72.669 174.761 72.669 175.533 72.3423 175.88C72.0157 176.206 71.5703 176.77 71.5703 176.77C71.5703 176.77 72.3423 177.988 73.9062 177.829C75.47 177.671 75.7472 176.553 75.7472 176.553C75.7472 176.553 74.2724 176.355 74.1041 174.969C73.9359 173.583 73.7181 173.573 73.7181 173.573L72.669 174.761Z" fill="#F8E1CC"/>
<path d="M71.7299 176.207C71.7299 176.207 70.6609 176.078 70.0868 176.227C69.5128 176.385 69.3346 176.286 69.493 176.722C69.6513 177.167 70.4332 179.196 70.067 180.473C69.7008 181.75 69.2158 188.292 69.2158 188.292C69.2158 188.292 73.1749 188.451 74.719 188.53C76.263 188.609 77.4013 188.322 77.4013 188.322C77.4013 188.322 77.7477 185.511 77.4013 184.284C77.0548 183.066 76.6292 180.978 76.6292 180.978C76.6292 180.978 76.3422 178.117 76.7282 177.405C77.1142 176.702 77.4013 176.672 76.9064 176.494C76.4115 176.316 75.8671 176.148 75.4712 176.148C75.0753 176.148 74.8773 176.148 74.6398 176.385C74.4022 176.623 73.937 177.088 73.2838 176.979C72.6305 176.88 72.1456 176.435 72.1456 176.435C72.1456 176.435 71.9179 176.237 71.7299 176.207Z" fill="#CCB4AA"/>
<path d="M69.8485 176.435C69.8485 176.435 69.4822 176.257 68.9379 176.722C68.344 177.227 67.9184 178.306 67.7204 178.989C67.5126 179.662 67.374 180.344 67.374 180.344C67.374 180.344 68.1263 180.731 68.9181 180.77C69.6901 180.79 70.2147 180.849 70.2147 180.849C70.2147 180.849 70.5611 178.82 70.4819 177.91C70.4027 176.989 70.2642 176.663 69.8485 176.435Z" fill="#355D75"/>
<path d="M76.412 177.187C76.412 177.187 76.7188 176.336 77.4314 176.722C78.1342 177.108 78.6489 178.592 78.8072 179.058C78.9656 179.523 79.1734 180.463 79.1734 180.463C79.1734 180.463 78.342 180.829 77.6294 180.889C76.9267 180.948 76.4318 180.988 76.4318 180.988C76.4318 180.988 76.1447 179.137 76.1942 178.404C76.2437 177.672 76.412 177.187 76.412 177.187Z" fill="#355D75"/>
<path d="M71.3249 172.545C71.3249 172.545 71.1071 172.327 70.9784 172.376C70.8597 172.426 70.7607 172.683 70.8498 172.951C70.9388 173.218 71.0279 173.426 71.117 173.485C71.1962 173.544 71.4832 173.584 71.4832 173.564C71.4931 173.534 71.3249 172.545 71.3249 172.545Z" fill="#F8E1CC"/>
<path d="M75.3687 172.545C75.3687 172.545 75.5964 172.327 75.7152 172.377C75.8339 172.426 75.9329 172.684 75.8438 172.951C75.7548 173.218 75.6657 173.426 75.5766 173.485C75.4875 173.545 75.2104 173.584 75.2104 173.564C75.2005 173.535 75.3687 172.545 75.3687 172.545Z" fill="#F8E1CC"/>
<path d="M75.4225 170.764C75.0464 169.625 73.9873 169.358 73.3539 169.358C72.7204 169.358 71.6514 169.625 71.2753 170.764C70.8992 171.902 71.4139 173.535 71.7504 174.119C72.0968 174.703 72.8491 175.287 73.344 175.287C73.8487 175.287 74.601 174.713 74.9375 174.119C75.2839 173.545 75.7986 171.912 75.4225 170.764Z" fill="#F8E1CC"/>
<path d="M71.2219 172.684C71.2219 172.684 71.4198 171.585 71.9147 170.961C71.9147 170.961 72.2116 171.803 73.0826 172.149C73.0826 172.149 73.0826 171.704 72.9837 171.377C72.9837 171.377 73.6765 172.04 74.5079 172.179C74.5079 172.179 74.4584 171.813 74.3297 171.555C74.3297 171.555 75.1216 172.139 75.4581 172.674C75.4581 172.674 76.1311 172.119 76.0816 171.011C76.0223 169.902 75.0424 168.596 73.4785 168.556C71.9147 168.527 71.1922 169.734 71.1922 169.734C71.1922 169.734 70.6181 170.1 70.5686 170.872C70.4993 171.634 70.7072 172.139 71.2219 172.684Z" fill="#4B2C61"/>
</g>
<path d="M103.932 169.952H82.4637C82.147 169.952 81.8896 169.704 81.8896 169.378V167.933C81.8896 167.616 82.1371 167.359 82.4637 167.359H103.932C104.249 167.359 104.506 167.606 104.506 167.933V169.378C104.506 169.685 104.239 169.952 103.932 169.952Z" fill="#0064B7"/>
<path d="M103.932 174.189H82.4637C82.147 174.189 81.8896 173.941 81.8896 173.615V172.169C81.8896 171.853 82.1371 171.595 82.4637 171.595H103.932C104.249 171.595 104.506 171.843 104.506 172.169V173.615C104.506 173.921 104.239 174.189 103.932 174.189Z" fill="#0064B7"/>
<path d="M103.932 178.414H82.4637C82.147 178.414 81.8896 178.167 81.8896 177.84V176.395C81.8896 176.078 82.1371 175.821 82.4637 175.821H103.932C104.249 175.821 104.506 176.069 104.506 176.395V177.84C104.506 178.157 104.239 178.414 103.932 178.414Z" fill="#0064B7"/>
<path d="M163.49 221.094C163.49 221.094 175.09 216.967 176.386 227.805C176.386 227.805 179.356 235.674 182.325 237.089C185.294 238.504 192.639 241.216 190.837 251.411C189.036 261.606 186.195 260.962 187.353 266.891C188.521 272.83 185.68 273.473 181.543 273.602C177.406 273.731 176.258 269.86 176.258 269.86L177.426 256.706L174.724 235.555L165.944 232.071C165.944 232.071 161.421 226.399 161.035 224.202C160.649 221.995 163.49 221.094 163.49 221.094Z" fill="#170856"/>
<path d="M165.041 218.165C165.041 218.165 166.882 220.075 166.446 220.412C166.011 220.758 161.003 223.371 161.003 223.371C161.003 223.371 159.558 220.56 159.706 219.739C159.835 218.917 165.041 218.165 165.041 218.165Z" fill="#F05051"/>
<path d="M134.328 204C134.061 204.03 133.883 204.268 133.883 204.525C133.952 207.049 134.536 219.203 139.287 223.707C139.287 223.707 141.801 226.993 146.631 225.647C146.631 225.647 150.986 223.034 150.303 228.349C149.63 233.664 151.857 238.89 153.589 239.672C155.331 240.444 162.487 238.504 164.13 235.505C165.229 233.506 165.803 232.496 166.07 232.051C166.189 231.853 166.159 231.625 166.011 231.467C165.031 230.338 161.339 225.805 159.637 219.55C157.647 212.295 158.716 205.327 152.035 203.872C146.186 202.585 136.526 203.713 134.328 204Z" fill="#FFBE97"/>
<path d="M128.091 203.407C128.101 203.308 128.121 203.189 128.121 203.09C128.18 202.388 128.111 201.665 128.18 200.942C128.408 198.725 129.13 196.39 130.862 194.895C132.149 193.777 133.842 193.341 135.514 193.341C135.89 193.341 136.257 193.202 136.504 192.915C137.642 191.629 141.344 187.937 146.451 187.937C152.637 187.937 163.198 191.282 166.059 201.833C166.069 201.853 166.069 201.863 166.069 201.893C166.237 202.595 170.265 219.164 162.189 219.669C153.924 220.184 150.589 216.116 150.836 212.444C150.836 212.444 154.894 205.149 147.995 207.02C147.995 207.02 140.889 208.356 135.95 205.456C135.336 205.09 134.554 205.317 134.208 205.931C133.228 207.633 131.268 210.256 129.427 208.049C128.754 207.237 128.101 206.307 127.913 205.238C127.804 204.595 127.982 204.021 128.091 203.407Z" fill="#170856"/>
<path d="M166.17 231.566C166.17 231.566 162.142 238.049 156.401 237.98C150.66 237.91 150.294 231.962 150.294 231.962C150.294 231.962 138.595 242.493 138.724 249.451C138.852 256.409 141.178 255.261 141.812 257.577C142.465 259.893 137.942 284.539 137.942 284.539L137.269 285.984L170.327 290.467C170.327 290.467 171.614 285.182 172.514 283.509C173.415 281.837 178.057 238.623 178.057 238.623L175.87 236.307C175.88 236.317 172.01 231.922 166.17 231.566Z" fill="#FCBE42"/>
<path d="M180.769 257.726C180.769 257.726 184.055 236.337 175.741 235.278C167.615 234.248 167.476 240.949 167.229 250.886C166.962 260.814 167.1 263.021 167.1 263.021L179.997 265.337L180.769 257.726Z" fill="#F79F03"/>
<path d="M167.478 263.09C167.27 263.061 167.092 263.209 167.062 263.407L166.389 271.603C166.438 272.85 166.211 273.998 165.053 273.533C164.409 273.265 163.608 272.879 162.588 272.315C158.906 270.256 147.761 264.832 144.287 263.15C143.674 262.853 143.218 262.309 142.971 261.665C142.595 260.636 141.694 259.102 139.616 258.518C136.389 257.617 130.836 257.746 130.717 258.132C130.589 258.518 129.945 261.22 130.203 262.13C130.47 263.031 133.172 262.259 133.172 262.259C133.172 262.259 138.2 261.358 136.785 263.16C135.963 264.209 134.785 264.348 133.954 264.278C133.608 264.258 133.449 264.694 133.716 264.902C134.409 265.446 135.656 266.109 137.685 266.396C141.427 266.911 167.864 284.202 167.864 284.202C167.864 284.202 173.02 288.201 175.99 277.62C178.246 269.554 179.375 266.693 179.791 265.763C179.88 265.555 179.761 265.327 179.523 265.288L167.478 263.09Z" fill="#FEBD96"/>
<path d="M123.542 274.591L138.626 280.827L140.23 271.384L134.083 271.008L123.542 274.591Z" fill="#FEBD96"/>
<path d="M113.188 244.442L89.3145 243.017L114.089 274.235L136.923 275.007L113.188 244.442Z" fill="#0064B7"/>
<path d="M113.049 272.047C113.049 272.047 113.949 266.376 112.019 265.465C110.089 264.555 108.832 266.673 108.951 267.702C109.09 268.85 112.881 272.691 112.881 272.691L113.049 272.047Z" fill="#FEBD96"/>
<path d="M137.279 286.013L90.7393 303.71C90.7393 303.71 84.9293 304.878 83.5139 320.546C82.0985 336.224 80.9306 388.148 80.9306 388.148L80.8613 389.821L92.4615 390.019L98.2814 334.67L125.827 301.454L148.146 287.448L137.279 286.013Z" fill="#0064E1"/>
<path d="M170.616 289.488L148.019 287.459L100.45 311.223C100.45 311.223 87.6032 318.785 95.848 332.513C104.093 346.242 127.105 388.089 127.105 388.089L135.023 382.17L114.703 325.902C114.703 325.902 114.208 323.002 120.988 322.497C127.323 322.032 157.273 319.122 161.143 318.746C161.47 318.716 161.787 318.647 162.094 318.528C164.43 317.657 173.585 313.233 170.675 297.248L170.329 290.478L170.616 289.488Z" fill="#003EB0"/>
<path d="M80.8706 389.821L70.765 395.374C70.2503 395.661 69.6762 395.869 69.1022 395.958C68.0035 396.126 66.1032 396.631 66.1032 398.205C66.1032 398.205 65.8359 400.006 70.7452 399.62C75.6545 399.234 91.1247 399.353 91.1247 399.353C91.1247 399.353 93.124 398.898 92.7974 394.444L92.4807 389.99L80.8706 389.821Z" fill="#130452"/>
<path d="M127.102 388.079C127.102 388.079 127.012 390.702 124.399 394.324C122.954 396.333 121.391 398.254 119.767 400.124C119.332 400.619 118.877 401.025 118.659 401.639C118.51 402.054 118.392 402.47 118.382 402.906C118.372 403.331 118.451 403.777 118.827 404.024C119.381 404.4 120.213 404.202 120.797 404.034C120.965 403.984 121.143 403.935 121.311 403.866C125.29 402.45 137.148 392.79 139.672 390.712C139.988 390.444 140.186 390.058 140.186 389.643C140.196 388.752 140.038 387.168 138.989 385.931C137.435 384.13 135.04 382.15 135.04 382.15L127.102 388.079Z" fill="#130452"/>
<path d="M252.844 136.171C252.844 136.171 259.02 136.478 263.494 136.478C267.968 136.478 275.065 137.399 275.065 137.399C275.065 137.399 276.916 137.399 277.074 139.715C277.232 142.031 277.232 142.951 277.232 142.951C277.232 142.951 277.391 145.723 275.223 145.723C273.065 145.723 259.327 147.267 256.249 147.267C253.171 147.267 250.855 147.88 250.855 145.723C250.845 143.575 250.687 136.013 252.844 136.171Z" fill="#170856"/>
<path d="M257.941 70.9053C257.941 70.9053 261.959 93.1258 262.266 98.9852C262.573 104.855 263.187 109.328 259.337 111.644C255.476 113.961 249.162 116.118 249.162 116.118L241.293 76.4678V71.8456L257.941 70.9053Z" fill="#FFBF99"/>
<path d="M189.906 69.6684C189.906 69.6684 187.749 79.6948 187.135 84.7922C186.521 89.8796 185.126 99.7675 184.977 102.064C184.819 104.38 184.512 108.24 188.689 111.17C192.856 114.099 197.33 115.802 197.33 115.802L205.822 69.6684H189.906Z" fill="#FFBF99"/>
<path d="M220.36 37.738C220.36 37.738 220.36 42.3602 218.37 44.3497C216.381 46.3391 213.748 49.635 213.748 49.635C213.748 49.635 218.37 56.9 227.615 55.9102C236.859 54.9205 238.512 48.3088 238.512 48.3088C238.512 48.3088 229.763 47.1606 228.763 38.896C227.773 30.6413 226.447 30.6413 226.447 30.6413L220.36 37.738Z" fill="#FFB07E"/>
<path d="M213.593 19.4172C213.593 19.4172 213.919 29.988 218.878 38.2329C223.837 46.4777 229.776 41.8654 232.092 37.5697C234.408 33.284 240.673 19.4073 239.357 15.7749C238.03 12.1424 219.878 10.4895 219.878 10.4895L213.593 19.4172Z" fill="#FFBF99"/>
<path d="M237.029 25.3461C237.029 25.3461 239.672 23.3567 239.672 25.3461C239.672 27.3356 238.345 30.295 236.702 30.6315C235.049 30.9581 235.376 29.9684 235.713 28.6421C236.049 27.3356 237.029 25.3461 237.029 25.3461Z" fill="#FFBF99"/>
<path d="M214.392 29.4932C215.114 29.8099 215.906 29.9188 215.906 28.8301C215.906 26.8406 214.58 23.8812 212.937 23.5447C211.284 23.218 211.61 24.2078 211.947 25.5341C212.066 25.9894 212.254 26.514 212.452 27.0188C212.828 27.9789 213.798 29.226 214.392 29.4932Z" fill="#FFBF99"/>
<path d="M214.087 24.198L213.76 20.902C213.76 20.902 216.729 21.2286 220.035 17.9327C220.035 17.9327 226.479 19.3778 231.596 18.9225C237.039 18.4276 239.405 16.933 239.405 16.933C239.405 16.933 238.494 23.1785 237.594 24.9898C237.594 24.9898 240.217 23.8911 241.206 20.9119C242.196 17.9327 242.008 14.7852 242.008 14.7852C242.008 14.7852 245.641 11.8159 246.63 8.51002C246.63 8.51002 236.723 6.19395 233.744 4.2243C230.764 2.25464 229.121 0.928345 229.121 0.928345C229.121 0.928345 224.499 -1.71436 219.877 1.91812C215.255 5.56049 212.275 7.53015 212.275 13.8053C212.265 13.8053 207.98 19.7341 214.087 24.198Z" fill="#170856"/>
<path d="M214.818 46.2998C214.818 46.2998 208.493 45.5278 205.098 46.4581C201.694 47.3984 200.625 46.765 201.545 49.3879C202.466 52.0108 207.098 64.0366 204.93 71.6083C202.773 79.1702 199.843 117.89 199.843 117.89C199.843 117.89 223.291 118.811 232.396 119.286C241.502 119.761 248.292 118.049 248.292 118.049C248.292 118.049 250.302 101.391 248.292 94.1356C246.283 86.8806 243.66 74.5381 243.66 74.5381C243.66 74.5381 241.958 57.5733 244.274 53.4064C246.59 49.2394 248.292 49.0811 245.363 48.0121C242.433 46.9233 239.186 46.0028 236.87 46.0028C234.554 46.0028 233.317 46.0028 231.931 47.3984C230.536 48.794 227.764 51.5654 223.914 50.9517C220.054 50.3381 217.124 47.7152 217.124 47.7152C217.124 47.7152 215.897 46.4483 214.818 46.2998Z" fill="#0083F9"/>
<path d="M203.632 47.6157C203.632 47.6157 201.474 46.527 198.238 49.3181C194.754 52.3073 192.22 58.7309 190.993 62.7395C189.755 66.7481 188.983 70.7567 188.983 70.7567C188.983 70.7567 193.457 73.0727 198.089 73.2212C202.721 73.3697 205.8 73.6864 205.8 73.6864C205.8 73.6864 207.809 61.6507 207.344 56.2466C206.869 50.8523 206.107 48.9915 203.632 47.6157Z" fill="#0064B7"/>
<path d="M242.512 52.09C242.512 52.09 244.362 47.0025 248.529 49.3186C252.696 51.6347 255.775 60.4338 256.715 63.2051C257.655 65.9765 258.872 71.539 258.872 71.539C258.872 71.539 253.934 73.6968 249.767 74.0036C245.6 74.3104 242.67 74.6173 242.67 74.6173C242.67 74.6173 240.967 63.6604 241.274 59.3351C241.581 55.0197 242.512 52.09 242.512 52.09Z" fill="#0064B7"/>
<path d="M208.484 121.186H240.128L223.806 126.214L208.484 121.186Z" fill="#BC0A28"/>
<path d="M180.344 112.258C180.344 112.258 238.048 130.312 250.708 134.786C250.708 134.786 254.874 135.874 255.033 138.022C255.191 140.18 254.726 143.268 254.261 144.812C253.796 146.356 252.41 147.583 250.094 147.128C247.778 146.663 196.102 136.33 175.564 130.926L169.694 129.075C169.694 129.075 165.369 127.065 166.141 121.829C166.913 116.584 170.773 111.961 173.545 111.655C176.326 111.328 180.344 112.258 180.344 112.258Z" fill="#EE384E"/>
<path d="M175.088 137.874C175.088 137.874 182.333 136.637 186.659 136.478C190.984 136.32 196.685 135.865 197.615 136.478C198.536 137.092 199.318 145.426 199.318 145.426C199.318 145.426 200.09 147.742 194.379 147.277C188.678 146.812 175.553 146.356 175.553 146.356C175.553 146.356 172.624 146.198 172.475 143.585C172.327 140.972 172.782 139.725 172.782 139.725C172.782 139.725 173.247 138.181 175.088 137.874Z" fill="#170856"/>
<path d="M209.492 130.471C209.492 130.471 244.511 119.821 257.011 116.129C269.502 112.417 276.46 109.032 280.459 114.892C284.478 120.761 284.171 127.234 279.539 129.085C274.906 130.936 238.493 139.428 223.369 142.506C208.245 145.584 198.377 147.594 196.991 146.98C195.606 146.366 194.062 141.893 194.368 139.418C194.675 136.954 194.834 136.033 197.754 134.786C200.693 133.549 209.492 130.471 209.492 130.471Z" fill="#DE051F"/>
<path d="M205.474 79.5566H247.589C247.589 79.5566 249.905 79.2497 249.905 82.3279C249.905 85.4061 249.905 118.742 249.905 118.742C249.905 118.742 250.064 121.206 248.203 121.206C246.352 121.206 198.674 121.206 198.674 121.206C198.674 121.206 196.665 121.82 196.665 118.435C196.665 115.05 196.665 81.4075 196.665 81.4075C196.665 81.4075 196.507 79.5566 198.981 79.5566C201.456 79.5566 205.474 79.5566 205.474 79.5566Z" fill="#0064B7"/>
<path d="M223.008 97.7121L220.627 100.687L223.602 103.068L225.983 100.093L223.008 97.7121Z" fill="#569ED4"/>
<path d="M162.318 175.278C164.525 175.278 164.525 171.853 162.318 171.853C160.12 171.853 160.111 175.278 162.318 175.278Z" fill="#FFB07E"/>
</svg>
