<svg width="478" height="395" viewBox="0 0 478 395" fill="none" xmlns="http://www.w3.org/2000/svg">
<path d="M347.781 27.084C347.781 27.084 362.653 37.417 354.683 43.5789C346.713 49.7408 348.415 53.5995 350.375 57.4914C352.335 61.3833 358.738 66.848 349.985 72.898C341.222 78.9457 334.403 78.6824 332.77 84.0748C331.134 89.4768 317.354 109.067 311.211 101.768C305.069 94.4599 309.37 81.4894 312.647 76.5042C315.914 71.5166 313.558 63.966 310.329 58.6927C307.1 53.4194 307.403 44.8246 315.675 44.4833C323.948 44.142 330.277 37.6454 330.102 31.8052C329.923 25.9433 337.583 20.2482 347.781 27.084Z" fill="#023EA1"/>
<path d="M341.64 37.926L304.805 107.219" stroke="white" stroke-miterlimit="10" stroke-linecap="round" stroke-linejoin="round"/>
<path d="M344.938 63.6212L326.671 66.0829L317.669 50.648" stroke="white" stroke-miterlimit="10" stroke-linecap="round" stroke-linejoin="round"/>
<path d="M288.555 28.8781C288.555 28.8781 290.527 20.2966 283.646 18.1712C276.772 16.0579 268.647 23.1766 270.286 29.277C271.919 35.3966 276.642 36.546 273.599 40.2964C270.556 44.0469 263.627 55.8225 269.345 59.5373C275.051 63.2595 280.896 58.5514 283.495 67.4033C286.084 76.2528 275.284 87.6237 288.409 91.5932C301.533 95.5628 325.334 96.4009 320.42 74.1603C315.515 51.922 302.273 68.4743 303.013 50.9486C303.744 33.4206 296.509 39.1389 291.328 36.6958C286.142 34.2721 288.555 28.8781 288.555 28.8781Z" fill="#EE384E"/>
<path d="M283.605 42.9803C283.605 42.9803 296.528 62.4237 302.076 82.9746C307.625 103.526 305.747 108.786 305.747 108.786" stroke="white" stroke-miterlimit="10" stroke-linecap="round" stroke-linejoin="round"/>
<path d="M323.863 85.1943C323.863 85.1943 310.589 50.7251 311.201 25.1031" stroke="#FCBE42" stroke-miterlimit="10"/>
<path d="M314.05 9.24983C314.05 9.24983 319.491 19.2165 311.188 27.7583C311.186 27.768 305.07 19.9018 314.05 9.24983Z" stroke="#FCBE42" stroke-miterlimit="10"/>
<path d="M313.571 48.9185C313.571 48.9185 313.357 38.431 325.327 34.5118C325.327 34.5118 328.354 43.7058 313.571 48.9185Z" stroke="#FCBE42" stroke-miterlimit="10"/>
<path d="M319.701 72.7969C319.701 72.7969 317.445 62.5626 328.418 56.375C328.418 56.375 333.187 64.7899 319.701 72.7969Z" stroke="#FCBE42" stroke-miterlimit="10"/>
<path d="M319.335 73.032C319.335 73.032 316.434 62.9561 303.842 62.7607C303.845 62.7511 303.682 72.4374 319.335 73.032Z" stroke="#FCBE42" stroke-miterlimit="10"/>
<path d="M313.662 48.7986C313.662 48.7986 312.065 38.43 299.603 36.6353C299.612 36.6377 298.207 46.2011 313.662 48.7986Z" stroke="#FCBE42" stroke-miterlimit="10"/>
<path d="M75.7918 83.2194C75.7918 83.2194 84.5751 67.3824 91.508 74.6915C98.441 82.0006 102.109 79.9193 105.784 77.5774C109.458 75.2356 114.251 68.315 121.151 76.4142C128.05 84.5233 128.475 91.3345 134.004 92.4168C139.544 93.5004 160.421 105.238 153.778 112.085C147.125 118.931 133.788 115.957 128.498 113.199C123.207 110.451 115.932 113.556 111.01 117.299C106.089 121.042 97.5074 121.606 96.335 113.41C95.1626 105.214 88.0619 99.5712 82.2689 100.333C76.4548 101.101 70.0175 94.0539 75.7918 83.2194Z" fill="#023EA1"/>
<path d="M87.197 88.238L159.847 117.91" stroke="white" stroke-miterlimit="10" stroke-linecap="round" stroke-linejoin="round"/>
<path d="M112.43 82.3694L116.718 100.296L102.268 110.806" stroke="white" stroke-miterlimit="10" stroke-linecap="round" stroke-linejoin="round"/>
<path d="M83.5394 141.963C83.5394 141.963 74.803 140.865 73.3811 147.925C71.9706 154.977 79.8711 162.344 85.7755 160.1C91.6996 157.858 92.3677 153.044 96.4054 155.694C100.443 158.343 112.857 164.052 115.977 157.989C119.106 151.937 113.833 146.596 122.378 143.119C130.922 139.652 143.323 149.252 145.951 135.795C148.579 122.337 147.016 98.5727 125.384 105.701C103.752 112.82 121.553 124.329 104.042 125.357C86.5297 126.394 92.9473 133.016 91.0383 138.417C89.149 143.821 83.5394 141.963 83.5394 141.963Z" fill="#EE384E"/>
<path d="M98.0678 145.468C98.0678 145.468 116.111 130.653 135.999 123.064C155.887 115.474 161.31 116.813 161.31 116.813" stroke="white" stroke-miterlimit="10" stroke-linecap="round" stroke-linejoin="round"/>
<path d="M136.017 101.165C136.017 101.165 103.059 117.842 77.5056 119.812" stroke="#FCBE42" stroke-miterlimit="10"/>
<path d="M61.4454 118.573C61.4454 118.573 70.8136 112.156 80.1479 119.557C80.1578 119.559 72.9473 126.435 61.4454 118.573Z" stroke="#FCBE42" stroke-miterlimit="10"/>
<path d="M100.96 115.057C100.96 115.057 90.5475 116.325 85.4431 104.811C85.4431 104.811 94.2857 100.874 100.96 115.057Z" stroke="#FCBE42" stroke-miterlimit="10"/>
<path d="M124.101 106.553C124.101 106.553 114.145 109.828 106.885 99.5348C106.885 99.5348 114.777 93.9428 124.101 106.553Z" stroke="#FCBE42" stroke-miterlimit="10"/>
<path d="M124.371 106.894C124.371 106.894 114.639 110.795 115.712 123.342C115.702 123.341 125.356 122.528 124.371 106.894Z" stroke="#FCBE42" stroke-miterlimit="10"/>
<path d="M100.832 114.978C100.832 114.978 90.6773 117.611 90.1465 130.191C90.1479 130.181 99.8041 130.616 100.832 114.978Z" stroke="#FCBE42" stroke-miterlimit="10"/>
<path d="M388.845 222.458C416.02 229.739 443.952 213.613 451.234 186.438C458.515 159.264 442.388 131.331 415.214 124.05C388.039 116.769 360.107 132.895 352.826 160.07C345.544 187.244 361.671 215.177 388.845 222.458Z" stroke="#DE051F" stroke-miterlimit="10" stroke-dasharray="6 6"/>
<path d="M449.894 178.655C454.486 179.885 459.205 177.16 460.436 172.569C461.666 167.977 458.941 163.258 454.35 162.028C449.758 160.797 445.039 163.522 443.809 168.114C442.578 172.705 445.303 177.424 449.894 178.655Z" fill="#003EB0"/>
<path d="M456.196 167.705L452.32 173.311L449.298 167.705L456.196 167.705Z" fill="white"/>
<rect x="118" y="73" width="300" height="201" fill="#0064B7"/>
<rect x="132" y="82" width="272" height="176" fill="#C3ECFE"/>
<rect x="144" y="125" width="20" height="17" rx="2" fill="white"/>
<rect x="171" y="126" width="14" height="1" fill="white"/>
<rect x="171" y="131" width="26" height="1" fill="white"/>
<rect x="171" y="136" width="26" height="1" fill="white"/>
<rect x="171" y="141" width="26" height="1" fill="white"/>
<rect x="339" y="125" width="20" height="17" rx="2" fill="white"/>
<rect x="366" y="126" width="14" height="1" fill="white"/>
<rect x="366" y="131" width="26" height="1" fill="white"/>
<rect x="366" y="136" width="26" height="1" fill="white"/>
<rect x="366" y="141" width="26" height="1" fill="white"/>
<rect x="339" y="154" width="20" height="17" rx="2" fill="white"/>
<rect x="366" y="155" width="14" height="1" fill="white"/>
<rect x="366" y="160" width="26" height="1" fill="white"/>
<rect x="366" y="165" width="26" height="1" fill="white"/>
<rect x="366" y="170" width="26" height="1" fill="white"/>
<rect x="144" y="155" width="20" height="17" rx="2" fill="white"/>
<rect x="171" y="156" width="14" height="1" fill="white"/>
<rect x="171" y="161" width="26" height="1" fill="white"/>
<rect x="171" y="166" width="26" height="1" fill="white"/>
<rect x="171" y="171" width="26" height="1" fill="white"/>
<rect x="144" y="185" width="20" height="17" rx="2" fill="white"/>
<rect x="171" y="186" width="14" height="1" fill="white"/>
<rect x="171" y="191" width="26" height="1" fill="white"/>
<rect x="171" y="196" width="26" height="1" fill="white"/>
<rect x="171" y="201" width="26" height="1" fill="white"/>
<rect x="144" y="215" width="20" height="17" rx="2" fill="white"/>
<rect x="171" y="216" width="14" height="1" fill="white"/>
<rect x="171" y="221" width="26" height="1" fill="white"/>
<rect x="171" y="226" width="26" height="1" fill="white"/>
<rect x="171" y="231" width="26" height="1" fill="white"/>
<rect x="228" y="94" width="80" height="2" fill="white"/>
<rect x="205" y="103" width="127" height="2" fill="white"/>
<rect x="265" y="129" width="55" height="45" rx="3" fill="white"/>
<path d="M292.727 138C293.306 138.056 293.89 138.083 294.469 138.167C298.493 138.755 301.711 140.664 304.128 143.866C304.208 143.972 304.281 144.077 304.389 144.227C304.526 143.722 304.645 143.25 304.787 142.79C304.98 142.163 305.621 141.841 306.239 142.052C306.779 142.235 307.113 142.784 306.972 143.328C306.625 144.671 306.273 146.009 305.91 147.341C305.746 147.951 305.155 148.279 304.52 148.123C303.129 147.779 301.745 147.43 300.36 147.069C299.73 146.902 299.384 146.303 299.543 145.715C299.702 145.132 300.281 144.788 300.899 144.926C301.364 145.026 301.83 145.154 302.369 145.287C302.272 145.154 302.221 145.076 302.165 144.999C300.156 142.418 297.511 140.847 294.231 140.387C288.454 139.571 283.153 142.718 281.15 148.096C280.934 148.667 280.503 148.978 279.969 148.939C279.453 148.9 279.027 148.556 278.948 148.057C278.914 147.835 278.942 147.574 279.027 147.357C280.894 142.54 284.39 139.51 289.532 138.344C290.326 138.167 291.155 138.139 291.966 138.039C292.069 138.028 292.171 138.011 292.273 138C292.426 138 292.574 138 292.727 138Z" fill="#EB3B52"/>
<path d="M278 160.711C278.244 159.812 278.494 158.918 278.738 158.019C278.851 157.592 278.959 157.164 279.078 156.737C279.26 156.093 279.833 155.749 280.491 155.916C281.87 156.254 283.25 156.604 284.623 156.964C285.27 157.131 285.622 157.719 285.463 158.324C285.31 158.913 284.719 159.251 284.072 159.107C283.613 159.007 283.164 158.879 282.631 158.746C282.722 158.879 282.767 158.957 282.824 159.029C284.731 161.488 287.233 163.042 290.338 163.58C296.251 164.612 301.785 161.46 303.845 155.932C304.055 155.366 304.48 155.055 304.997 155.083C305.519 155.111 305.961 155.455 306.052 155.965C306.086 156.171 306.069 156.415 305.995 156.615C304.021 161.688 300.337 164.873 294.855 165.784C289.679 166.644 285.281 165.001 281.729 161.221C281.326 160.794 280.985 160.317 280.599 159.834C280.469 160.317 280.35 160.788 280.213 161.249C280.088 161.665 279.793 161.926 279.368 162.015C278.948 162.104 278.579 161.982 278.295 161.665C278.17 161.538 278.096 161.366 278 161.21C278 161.044 278 160.877 278 160.711Z" fill="#EB3B52"/>
<rect x="392" y="38" width="1" height="36" fill="#0064B7"/>
<circle cx="392.5" cy="34.5" r="3" stroke="#0064B7"/>
<rect x="147" y="38" width="1" height="36" fill="#0064B7"/>
<circle cx="147.5" cy="34.5" r="3" stroke="#0064B7"/>
<path d="M404.087 327.73C404.087 327.73 408.61 325.89 408.27 320.711C407.942 315.521 405.27 311.852 410.778 313.353C416.297 314.853 418.147 315.521 422.166 314.688C426.163 313.856 429.513 312.181 427.761 317.36C426.009 322.551 424.115 326.887 428.243 327.73C432.371 328.562 436.806 325.441 437.332 333.566C437.857 341.68 431.309 350.813 420.72 351.152C410.132 351.481 405.445 347.101 405.445 347.101C405.445 347.101 402.609 343.104 407.033 342.097C411.468 341.111 415.979 339.228 413.723 337.158C411.468 335.088 404.109 334.924 404.109 334.924C404.109 334.924 394.878 333.074 404.087 327.73Z" fill="#649EEA"/>
<path d="M452.508 329.067C451.763 323.887 452.333 320.164 461.947 318.763C471.561 317.361 477.168 323.132 477.748 329.067C478.328 335.002 469.973 337.159 469.973 337.159C469.973 337.159 464.038 338.845 467.05 344.036C470.05 349.226 471.43 354.241 464.597 354.997C457.764 355.752 450.296 353.945 446.124 351.175C441.963 348.394 437.693 341.364 442.467 337.695C442.467 337.695 443.803 336.776 448.402 336.524C453.001 336.261 452.508 329.067 452.508 329.067Z" fill="#023EA1"/>
<path d="M418.666 328.235C418.666 328.235 426.66 346.302 427.744 358.599" stroke="#023EA1" stroke-miterlimit="10"/>
<path d="M463.079 331.202C463.079 331.202 448.943 352.193 445.592 359.212" stroke="#649EEA" stroke-miterlimit="10"/>
<path d="M422.813 357.164H455.258C455.258 357.164 458.817 357.416 458.51 362.267C458.247 366.734 452.575 365.76 449.651 365.76C446.728 365.76 422.101 365.76 422.101 365.76C422.101 365.76 418.115 366.439 418.115 361.927C418.126 357.405 419.637 357.164 422.813 357.164Z" fill="#0054A5"/>
<path d="M422.123 365.771L427.029 394.449H448.819L452.509 372.921L422.156 365.771H422.123Z" fill="#0054A5"/>
<path d="M422.156 365.771L452.51 372.922L453.736 365.771H422.156Z" fill="#006AD5"/>
<path d="M436.111 358.248C436.111 358.248 437.754 326.438 447.237 306.476" stroke="#FCBE42" stroke-miterlimit="10"/>
<path d="M455.055 295C455.055 295 455.832 304.767 446.306 308.578C446.295 308.589 444.236 300.245 455.055 295Z" fill="#FCBE42"/>
<path d="M440.74 326.087C440.74 326.087 444.255 317.754 455.052 318.871C455.063 318.86 454.22 327.171 440.74 326.087Z" fill="#FCBE42"/>
<path d="M437.203 347.047C437.203 347.047 439.021 338.188 449.829 337.17C449.818 337.17 450.617 345.459 437.203 347.047Z" fill="#FCBE42"/>
<path d="M436.821 347.09C436.821 347.09 438.069 338.144 428.225 333.555C428.225 333.555 424.699 341.122 436.821 347.09Z" fill="#FCBE42"/>
<path d="M440.863 326.022C440.863 326.022 443.25 317.295 434.063 311.503C434.074 311.503 429.595 318.544 440.863 326.022Z" fill="#FCBE42"/>
<path d="M4.08723 327.73C4.08723 327.73 8.60961 325.89 8.27016 320.711C7.94166 315.521 5.26982 311.852 10.7777 313.353C16.2965 314.853 18.1471 315.521 22.1658 314.688C26.1626 313.856 29.5133 312.181 27.7613 317.36C26.0093 322.551 24.1149 326.887 28.2431 327.73C32.3713 328.562 36.806 325.441 37.3316 333.566C37.8572 341.68 31.3091 350.813 20.7204 351.152C10.1317 351.481 5.44502 347.101 5.44502 347.101C5.44502 347.101 2.60897 343.104 7.0328 342.097C11.4676 341.111 15.979 339.228 13.7233 337.158C11.4676 335.088 4.10911 334.924 4.10911 334.924C4.10911 334.924 -5.12178 333.074 4.08723 327.73Z" fill="#649EEA"/>
<path d="M52.508 329.067C51.7634 323.887 52.3328 320.164 61.9469 318.763C71.5611 317.361 77.1675 323.132 77.7479 329.067C78.3282 335.002 69.9733 337.159 69.9733 337.159C69.9733 337.159 64.0384 338.845 67.0497 344.036C70.05 349.226 71.4297 354.241 64.5969 354.997C57.764 355.752 50.296 353.945 46.1241 351.175C41.963 348.394 37.6925 341.364 42.4667 337.695C42.4667 337.695 43.8027 336.776 48.4017 336.524C53.0007 336.261 52.508 329.067 52.508 329.067Z" fill="#023EA1"/>
<path d="M18.666 328.235C18.666 328.235 26.6596 346.302 27.7436 358.599" stroke="#023EA1" stroke-miterlimit="10"/>
<path d="M63.0791 331.202C63.0791 331.202 48.9425 352.193 45.5918 359.212" stroke="#649EEA" stroke-miterlimit="10"/>
<path d="M22.8128 357.164H55.2579C55.2579 357.164 58.8167 357.416 58.5101 362.267C58.2473 366.734 52.5751 365.76 49.6514 365.76C46.7278 365.76 22.1011 365.76 22.1011 365.76C22.1011 365.76 18.1152 366.439 18.1152 361.927C18.1262 357.405 19.6373 357.164 22.8128 357.164Z" fill="#0054A5"/>
<path d="M22.123 365.771L27.0287 394.449H48.8193L52.5095 372.921L22.1559 365.771H22.123Z" fill="#0054A5"/>
<path d="M22.1562 365.771L52.5098 372.922L53.7363 365.771H22.1562Z" fill="#006AD5"/>
<path d="M36.1113 358.248C36.1113 358.248 37.7538 326.438 47.2366 306.476" stroke="#FCBE42" stroke-miterlimit="10"/>
<path d="M55.0549 295C55.0549 295 55.8324 304.767 46.3058 308.578C46.2949 308.589 44.2363 300.245 55.0549 295Z" fill="#FCBE42"/>
<path d="M40.7402 326.087C40.7402 326.087 44.2552 317.754 55.052 318.871C55.0629 318.86 54.2198 327.171 40.7402 326.087Z" fill="#FCBE42"/>
<path d="M37.2031 347.047C37.2031 347.047 39.0208 338.188 49.8286 337.17C49.8176 337.17 50.617 345.459 37.2031 347.047Z" fill="#FCBE42"/>
<path d="M36.8208 347.09C36.8208 347.09 38.0691 338.144 28.225 333.555C28.225 333.555 24.6991 341.122 36.8208 347.09Z" fill="#FCBE42"/>
<path d="M40.8627 326.022C40.8627 326.022 43.2499 317.295 34.0628 311.503C34.0737 311.503 29.5951 318.544 40.8627 326.022Z" fill="#FCBE42"/>
<rect x="305.594" y="207.304" width="93.4438" height="46" rx="3.5" transform="rotate(-12.1767 305.594 207.304)" fill="white" stroke="#0C6DBB"/>
<ellipse cx="315.937" cy="218.371" rx="2.43412" ry="2.5" transform="rotate(-12.1767 315.937 218.371)" fill="#9FD2F2"/>
<rect x="319.902" y="215.981" width="13.6311" height="1" transform="rotate(-12.1767 319.902 215.981)" fill="#9FD2F2"/>
<rect x="320.324" y="217.936" width="17.5257" height="1" transform="rotate(-12.1767 320.324 217.936)" fill="#9FD2F2"/>
<rect x="312.188" y="212.531" width="4.86824" height="1" transform="rotate(-12.1767 312.188 212.531)" fill="#9FD2F2"/>
<rect x="311.555" y="209.599" width="9.73648" height="1" transform="rotate(-12.1767 311.555 209.599)" fill="#9FD2F2"/>
<rect x="370.773" y="197.843" width="18.4993" height="2" transform="rotate(-12.1767 370.773 197.843)" fill="#9FD2F2"/>
<rect x="379.862" y="203.043" width="10.7101" height="2" transform="rotate(-12.1767 379.862 203.043)" fill="#9FD2F2"/>
<rect x="373.727" y="211.528" width="18.4993" height="2" transform="rotate(-12.1767 373.727 211.528)" fill="#9FD2F2"/>
<rect x="375.203" y="218.371" width="18.4993" height="2" transform="rotate(-12.1767 375.203 218.371)" fill="#9FD2F2"/>
<rect x="376.68" y="225.213" width="18.4993" height="2" transform="rotate(-12.1767 376.68 225.213)" fill="#9FD2F2"/>
<rect x="378.154" y="232.056" width="18.4993" height="2" transform="rotate(-12.1767 378.154 232.056)" fill="#9FD2F2"/>
<rect x="348.246" y="208.842" width="9.73648" height="1" transform="rotate(-12.1767 348.246 208.842)" fill="#9FD2F2"/>
<rect x="352.577" y="215.069" width="3.89459" height="1" transform="rotate(-12.1767 352.577 215.069)" fill="#9FD2F2"/>
<rect x="354.054" y="221.911" width="3.89459" height="1" transform="rotate(-12.1767 354.054 221.911)" fill="#9FD2F2"/>
<rect x="355.53" y="228.754" width="3.89459" height="1" transform="rotate(-12.1767 355.53 228.754)" fill="#9FD2F2"/>
<rect x="357.007" y="235.596" width="3.89459" height="1" transform="rotate(-12.1767 357.007 235.596)" fill="#9FD2F2"/>
<ellipse cx="317.835" cy="227.169" rx="2.43412" ry="2.5" transform="rotate(-12.1767 317.835 227.169)" fill="#9FD2F2"/>
<rect x="321.801" y="224.778" width="13.6311" height="1" transform="rotate(-12.1767 321.801 224.778)" fill="#9FD2F2"/>
<rect x="322.223" y="226.734" width="17.5257" height="1" transform="rotate(-12.1767 322.223 226.734)" fill="#9FD2F2"/>
<ellipse cx="319.734" cy="235.966" rx="2.43412" ry="2.5" transform="rotate(-12.1767 319.734 235.966)" fill="#9FD2F2"/>
<rect x="323.699" y="233.576" width="13.6311" height="1" transform="rotate(-12.1767 323.699 233.576)" fill="#9FD2F2"/>
<rect x="324.121" y="235.531" width="17.5257" height="1" transform="rotate(-12.1767 324.121 235.531)" fill="#9FD2F2"/>
<ellipse cx="321.632" cy="244.764" rx="2.43412" ry="2.5" transform="rotate(-12.1767 321.632 244.764)" fill="#9FD2F2"/>
<rect x="325.598" y="242.374" width="13.6311" height="1" transform="rotate(-12.1767 325.598 242.374)" fill="#9FD2F2"/>
<rect x="326.02" y="244.329" width="17.5257" height="1" transform="rotate(-12.1767 326.02 244.329)" fill="#9FD2F2"/>
<path d="M426.167 286.082L424.966 386.148L416.561 387.029L404.713 288.724L426.167 286.082Z" fill="#DC051F"/>
<path d="M392.785 286.082L386.941 386.148L395.427 387.029L417.602 288.724L392.785 286.082Z" fill="#EE384E"/>
<path d="M405.674 216.036C408.956 216.116 412.878 223.561 412.798 226.763C412.718 230.045 411.117 229.965 410.237 231.566C409.356 233.167 404.473 234.688 401.991 234.688C399.59 234.608 398.869 230.526 398.949 224.842C399.109 219.158 401.591 215.956 401.591 215.956C401.591 215.956 402.392 215.956 405.674 216.036Z" fill="#FFBE9B"/>
<path d="M406.234 228.284C406.234 228.284 406.234 228.284 406.154 233.167C406.074 238.051 401.511 241.653 401.511 241.653C401.511 241.653 401.431 244.935 406.314 245.816C411.197 246.696 416.241 241.173 416.241 241.173C416.241 241.173 415.44 239.492 413.919 235.409C412.398 231.326 411.678 227.243 411.678 227.243L406.234 228.284Z" fill="#FEBE9A"/>
<path d="M403.992 217.637C407.194 218.518 407.274 218.518 408.795 220.199C410.396 221.88 411.117 225.963 411.117 225.963C411.117 225.963 411.517 228.124 411.837 229.245C412.237 230.365 412.478 231.646 412.558 232.527C412.638 233.327 413.358 233.407 414.159 233.407C414.959 233.407 416.64 232.607 418.321 229.405C420.003 226.203 419.602 222.84 419.282 222.12C418.482 220.359 418.562 217.237 418.562 216.436C418.562 215.636 418.562 214.835 417.041 213.154C415.44 211.473 407.274 211.313 407.274 211.313C406.474 211.313 404.793 211.233 403.992 210.432C403.191 209.552 399.989 207.871 398.308 208.671C396.627 209.472 398.949 216.036 398.949 216.036C399.909 218.358 400.79 216.756 403.992 217.637Z" fill="#160C56"/>
<path d="M412.799 224.361C412.718 226.843 410.317 225.963 410.317 225.963C410.317 225.963 408.716 223.481 409.997 222.12C411.197 220.759 412.879 221.88 412.799 224.361Z" fill="#FFBE9B"/>
<path d="M395.187 256.703C395.187 256.703 384.62 267.27 383.019 268.871C381.417 270.472 378.776 268.871 376.134 266.229C373.492 263.588 367.648 253.021 365.567 249.818C363.406 246.616 355 243.975 355 243.975C355 243.975 363.406 242.373 364.526 241.893C365.567 241.333 365.087 239.732 364.526 238.211C363.966 236.61 365.567 237.65 365.567 237.65C365.567 237.65 367.168 238.691 368.769 241.333C370.37 243.974 369.81 245.576 370.37 247.177C370.931 248.778 379.896 259.825 380.377 260.385C380.937 260.946 381.417 260.385 381.417 260.385L388.782 250.379L395.187 256.703Z" fill="#FFBE9B"/>
<path d="M393.505 232.367C394.065 233.407 393.505 235.009 393.505 235.009L383.979 237.09C383.979 237.09 388.702 239.171 391.343 240.772C393.985 242.373 398.228 245.495 398.228 245.495L400.309 242.854C400.309 242.854 398.228 238.611 397.668 235.969C397.107 233.327 393.425 230.686 393.425 230.686C393.425 230.686 393.024 231.326 393.505 232.367Z" fill="#FFBE9B"/>
<path d="M425.127 385.428L416.081 385.348C416.081 386.869 415.44 387.029 415.44 387.029C415.44 387.029 407.435 390.551 404.793 391.832C402.151 393.113 404.953 393.674 404.953 393.674C404.953 393.674 419.843 393.834 422.565 393.834C425.287 393.834 424.806 392.553 424.806 392.553L425.127 385.428Z" fill="#170856"/>
<path d="M395.987 385.428L386.941 385.348C386.941 386.869 386.301 387.029 386.301 387.029C386.301 387.029 378.295 390.551 375.654 391.832C373.012 393.113 375.814 393.674 375.814 393.674C375.814 393.674 390.703 393.834 393.425 393.834C396.147 393.834 395.667 392.553 395.667 392.553L395.987 385.428Z" fill="#170856"/>
<path d="M413.118 240.292C413.118 240.292 414.158 239.251 415.199 239.732C416.24 240.292 421.043 244.455 424.165 256.623C427.367 268.791 426.246 288.564 426.246 288.564L392.544 287.844C392.544 287.844 392.464 276.076 393.024 265.189C393.585 254.301 394.225 249.658 395.906 246.296C397.667 242.934 401.19 240.372 402.15 239.572C403.191 238.771 404.072 239.492 404.072 239.492C408.475 244.535 413.118 240.292 413.118 240.292Z" fill="#0083F9"/>
<path d="M395.106 258.304C395.106 258.304 399.829 252.54 402.471 248.297C405.113 244.054 402.471 239.812 397.187 241.973C391.904 244.054 387.181 250.939 387.181 250.939L395.106 258.304Z" fill="#0064B7"/>
<path d="M104.341 232.394L140.635 203.775C140.635 203.775 141.626 203.114 143.058 201.046C144.503 198.989 147.281 196.908 148.897 197.361L152.496 194.019C152.496 194.019 153.757 193.775 152.496 194.937C151.235 196.113 150.525 197.545 150.525 197.545C150.525 197.545 151.651 198.12 151.333 198.573C151.333 198.573 152.239 198.842 152.141 199.515C152.141 199.515 154.295 200.189 152.178 202.294C150.06 204.412 149.338 205.256 147.012 206.285C144.686 207.313 142.924 208.525 140.635 210.691C138.346 212.845 108.919 241.097 108.919 241.097L104.341 232.394Z" fill="#FFBE9B"/>
<path d="M87.375 225.209C87.375 225.209 79.1371 225.013 77.8396 215.771C76.5543 206.529 82.8093 203.347 86.3713 201.474C89.9455 199.589 92.1244 199.883 93.7279 197.3C95.3314 194.717 95.9189 194.032 95.9189 194.032C95.9189 194.032 102.627 201.009 97.9387 207.203C93.2383 213.384 87.375 225.209 87.375 225.209Z" fill="#180857"/>
<path d="M73.9578 386.159C73.8598 386.184 73.8599 386.33 73.8354 386.428C73.5906 387.444 72.342 393.32 75.5246 393.381C78.7683 393.454 91.0946 393.54 92.7961 393.552C92.9185 393.552 93.0164 393.479 93.0531 393.357C93.1755 392.879 93.4081 391.692 92.5758 391.312C92.5758 391.312 85.415 387.983 82.9669 386.037C80.7268 384.237 74.937 385.853 73.9578 386.159Z" fill="#170856"/>
<path d="M104.905 385.278C104.807 385.315 104.795 385.45 104.783 385.547C104.538 386.649 103.289 393.137 106.472 393.296C109.728 393.455 124.772 393.308 126.718 393.296C126.865 393.296 126.975 393.21 127.012 393.088C127.159 392.647 127.306 391.619 126.008 391.056C126.008 391.056 117.697 387.726 113.902 385.401C110.511 383.307 105.799 384.923 104.905 385.278Z" fill="#170856"/>
<path d="M71.9998 282.899L73.8726 386.271L82.9797 386.026L90.2139 320.404L89.3448 302.19L84.0691 282.691L71.9998 282.899Z" fill="#0064E1"/>
<path d="M81.61 282.728C81.61 282.728 90.2152 326.647 92.8469 331.751L104.83 385.39H113.938L108.282 282.556L81.61 282.728Z" fill="#003EB0"/>
<path d="M97.9269 207.19C97.9269 207.19 102.48 210.96 102.542 217.497C102.603 224.033 101.464 224.266 98.8327 224.266C96.201 224.266 94.1078 224.021 93.814 225.465C93.5203 226.91 93.8753 232.54 94.475 234.217C95.0626 235.894 83.5809 234.217 83.5809 234.217C83.5809 234.217 86.7512 225.6 87.2408 221.83C87.7305 218.06 87.1796 213.8 89.4564 210.213C91.6964 206.578 94.3894 203.824 97.9269 207.19Z" fill="#FFBE9B"/>
<path d="M95.5893 236.225L104.819 231.084L109.85 241.256L99.6042 250.008L95.5893 236.225Z" fill="#F79F03"/>
<path d="M81.6114 235.392C81.6114 235.392 76.0786 241.659 74.1569 256.813C72.2351 271.967 72.0025 282.898 72.0025 282.898H108.271C108.271 282.898 105.517 261.514 103.081 250.203C100.646 238.881 96.2634 234.315 96.2634 234.315C96.2634 234.315 95.125 232.932 93.7541 233.838C92.3709 234.743 89.0782 234.915 86.1527 233.532C83.2027 232.136 82.5417 234.131 81.6114 235.392Z" fill="#FCBE42"/>
<path d="M88.9445 212.87C88.9445 212.87 86.9737 212.393 86.0679 213.409C85.1621 214.425 86.2515 216.64 88.0386 217.301C89.8502 217.974 88.9445 212.87 88.9445 212.87Z" fill="#FFBE9B"/>
<path d="M94.0936 254.133C94.0936 254.133 98.2309 282.874 100.385 290.695C102.54 298.517 105.771 305.874 105.771 305.874C105.771 305.874 107.216 309.472 105.771 310.819C104.327 312.165 100.936 313.695 100.251 311.272C99.5774 308.848 99.5774 303.634 98.6716 302.471C97.7657 301.296 89.9685 283.155 87.349 272.285C84.7417 261.416 84.3011 256.568 84.3011 256.568L94.0936 254.133Z" fill="#FFBE9B"/>
<path d="M95.5869 255.589C95.5869 255.589 93.1021 239.75 86.4554 239.677C86.4554 239.677 82.6853 239.677 82.5874 245.417C82.4895 251.158 83.0403 257.976 83.0403 257.976L95.5869 255.589Z" fill="#F79F03"/>
<path d="M245.038 266.201H250.585L256.804 265.866C256.804 265.866 257.644 269.719 253.946 270.222C250.417 270.557 244.702 271.394 244.03 271.227C242.853 270.724 245.038 266.201 245.038 266.201Z" fill="#FBBE9B"/>
<path d="M240.836 238.893C240.836 238.893 246.887 244.757 247.223 247.94C248.232 251.123 246.215 255.814 245.71 257.322C245.542 258.662 245.542 276.42 245.542 276.42H222.179V238.726L240.836 238.893Z" fill="#0064E1"/>
<path d="M254.451 221.303C254.451 221.303 254.115 225.826 252.938 228.674V230.852C252.938 231.02 252.77 231.187 252.602 231.187L251.258 231.02V232.862C251.258 233.03 251.089 233.197 250.921 233.197H249.745C249.577 233.197 249.409 233.365 249.409 233.533L249.577 234.538C249.577 234.705 249.577 234.873 249.241 234.873C248.232 235.04 246.719 235.208 244.534 233.7C242.349 232.192 241.004 232.862 241.004 234.538C241.004 235.878 242.181 240.066 240.164 241.239C238.651 242.244 233.777 241.574 232.768 240.401C231.592 239.229 232.768 236.381 234.281 235.04C235.458 233.868 237.138 221.135 239.828 219.795C241.845 219.46 254.451 221.303 254.451 221.303Z" fill="#FBBC98"/>
<path d="M227.559 257.322L227.391 265.196C227.391 266.033 227.727 266.368 228.567 266.368C229.408 266.368 229.912 266.368 231.425 265.531C234.954 264.191 243.863 259.332 245.039 258.495C245.039 258.495 245.207 258.495 245.207 258.327C245.376 257.992 246.552 256.317 249.241 256.484C252.435 256.652 253.276 257.489 252.771 258.327C252.603 259.332 251.931 259.332 251.931 259.332L252.267 260.17C252.267 260.17 251.931 261.175 250.25 261.175C248.905 261.175 247.056 260.337 246.72 261.007C246.384 261.343 232.433 270.557 228.903 272.902C228.567 273.07 227.895 273.237 227.391 273.74C225.374 274.075 220.331 274.913 219.827 271.562C218.818 267.206 218.818 257.824 218.818 257.824L227.559 257.322Z" fill="#FBBE9B"/>
<path d="M227.559 243.082C227.895 242.914 228.567 243.082 228.567 243.417V257.657C228.567 257.992 228.399 258.495 227.727 258.495C227.054 258.495 226.382 258.495 224.869 258.495C222.516 258.495 220.331 258.495 219.155 258.495C218.818 258.495 218.818 258.327 218.818 258.159L218.986 248.275C218.986 248.108 218.986 247.94 219.155 247.94L227.559 243.082Z" fill="#0054A3"/>
<path d="M210.75 249.28C209.574 244.757 217.474 238.558 217.474 238.558C217.474 238.558 221.34 237.218 222.012 232.695C222.852 228.172 227.054 226.831 228.735 225.324C230.752 223.816 231.929 219.963 231.929 219.963L232.097 218.957C232.097 218.957 235.291 205.052 246.216 208.57C246.216 208.57 251.258 210.413 253.275 214.099C253.275 214.099 260.503 215.272 258.99 220.8C257.646 226.329 254.284 222.978 254.284 222.978C254.284 222.978 252.939 220.13 251.427 221.973C249.914 223.983 246.216 225.324 245.207 223.313C244.031 221.303 241.846 220.13 241.173 222.978V224.318C241.173 224.318 235.627 231.02 235.122 233.365C234.282 235.71 233.105 239.229 230.416 240.569C227.895 242.077 224.869 248.108 223.693 251.458C222.18 255.312 212.263 255.982 210.75 249.28Z" fill="#1F1952"/>
<path d="M265.88 249.615L279.999 250.118L262.183 269.216L247.896 268.546L265.88 249.615Z" fill="#1C164F"/>
<path d="M266.721 263.856C266.721 263.856 268.066 266.369 266.89 267.206C265.545 268.044 264.368 268.211 263.696 267.374C263.024 266.536 262.687 264.526 263.528 264.861C264.368 264.861 264.536 265.028 264.536 265.028V264.191C264.536 264.023 264.536 263.856 264.704 263.856C265.377 263.688 266.385 263.018 266.721 263.856Z" fill="#FBBE9B"/>
<path d="M241.509 276.42L245.543 276.085V386.488L236.971 386.655L232.097 314.617L241.509 276.42Z" fill="#DE051F"/>
<path d="M222.18 276.588C222.18 276.588 222.012 280.441 221.844 281.949C221.676 282.954 216.297 291.498 220.499 302.052C220.499 302.22 220.499 302.387 220.668 302.89C220.668 305.236 221.508 319.643 218.482 327.015L202.683 377.776L208.734 382.132C208.734 382.132 229.408 338.072 230.08 335.894C230.753 333.883 244.199 290.66 242.182 278.766L241.846 276.588H222.18Z" fill="#EE384E"/>
<path d="M245.544 386.488C245.544 386.488 251.091 389.336 253.444 390.006C255.461 390.341 255.629 391.849 255.797 392.352C255.797 392.519 255.797 392.687 255.629 392.687H236.972V386.488H245.544Z" fill="#221D56"/>
<path d="M208.564 381.462C208.564 381.462 210.077 385.985 213.607 388.666C216.969 391.179 213.607 393.189 213.607 393.189L199.488 384.645C199.32 384.31 198.479 382.802 199.488 381.462C200.496 379.954 202.682 377.441 202.682 377.441L208.564 381.462Z" fill="#221D56"/>
<path d="M121.425 49.1903C121.36 49.1258 121.296 49.1258 121.166 49.1258L119.547 49.3193C119.353 49.3193 119.159 49.1903 119.094 48.9968C118.9 48.2229 118.641 47.578 118.188 46.8686C118.058 46.6752 118.123 46.4817 118.252 46.2882L119.418 45.3854C119.483 45.3209 119.547 45.2564 119.547 45.1274C119.547 44.9984 119.547 44.9339 119.483 44.8694L117.67 43.0637C117.605 42.9992 117.54 42.9347 117.411 42.9992C117.346 42.9992 117.216 43.0637 117.152 43.1282L116.245 44.289C116.116 44.4825 115.857 44.4825 115.662 44.3535C115.015 43.9666 114.303 43.6441 113.526 43.4506C113.331 43.3862 113.137 43.1927 113.202 42.9992L113.396 41.3869C113.396 41.3225 113.396 41.1935 113.331 41.129C113.267 41.0645 113.202 41 113.072 41H110.482C110.418 41 110.288 41.0645 110.223 41.129C110.159 41.1935 110.159 41.258 110.159 41.3869L110.353 42.9992C110.353 43.1927 110.223 43.3862 110.029 43.4506C109.252 43.6441 108.605 43.9021 107.892 44.3535C107.698 44.4825 107.504 44.418 107.31 44.289L106.403 43.1282C106.338 43.0637 106.274 42.9992 106.144 42.9992C106.015 42.9992 105.95 42.9992 105.885 43.0637L104.072 44.8694C104.007 44.9339 104.007 44.9984 104.007 45.1274C104.007 45.2564 104.072 45.3209 104.137 45.3854L105.302 46.2882C105.497 46.4172 105.497 46.6752 105.367 46.8686C104.979 47.5135 104.655 48.2229 104.461 48.9968C104.396 49.1903 104.202 49.3193 104.007 49.3193L102.388 49.1258C102.324 49.1258 102.194 49.1258 102.129 49.1903C102.065 49.2548 102 49.3193 102 49.4483V52.0279C102 52.0924 102.065 52.2214 102.129 52.2858C102.194 52.3503 102.259 52.3503 102.388 52.3503L104.007 52.1569C104.202 52.1569 104.396 52.2858 104.461 52.4793C104.655 53.2532 104.914 53.8981 105.367 54.6075C105.497 54.801 105.432 55.0589 105.302 55.1234L104.137 56.0263C104.072 56.0908 104.007 56.1553 104.007 56.2843C104.007 56.3487 104.007 56.4777 104.072 56.5422L105.885 58.348C105.95 58.4124 106.015 58.4769 106.144 58.4124C106.209 58.4124 106.338 58.3479 106.403 58.2835L107.31 57.1226C107.439 56.9292 107.698 56.9292 107.892 56.9936C108.54 57.3806 109.252 57.703 110.029 57.832C110.223 57.8965 110.418 58.09 110.353 58.2835L110.159 59.8957C110.159 59.9602 110.159 60.0892 110.223 60.1537C110.288 60.2182 110.353 60.2827 110.482 60.2827H113.072C113.137 60.2827 113.267 60.2182 113.331 60.1537C113.396 60.0892 113.396 60.0247 113.396 59.8957L113.202 58.2835C113.202 58.09 113.331 57.8965 113.526 57.832C114.303 57.6386 114.95 57.3806 115.662 56.9936C115.857 56.8647 116.051 56.9292 116.245 57.1226L117.152 58.2835C117.216 58.3479 117.281 58.4124 117.411 58.4124C117.54 58.4124 117.605 58.4124 117.67 58.348L119.483 56.5422C119.547 56.4777 119.547 56.4132 119.547 56.2843C119.547 56.1553 119.483 56.0908 119.418 56.0263L118.252 55.1234C118.058 54.9944 118.058 54.7365 118.188 54.6075C118.576 53.9626 118.9 53.2532 119.094 52.4793C119.159 52.2858 119.353 52.1569 119.547 52.1569L121.166 52.3503C121.231 52.3503 121.36 52.3503 121.425 52.2858C121.49 52.2214 121.555 52.1569 121.555 52.0279V49.4483C121.555 49.3838 121.555 49.2548 121.425 49.1903ZM120.907 51.6409L119.612 51.512C119.094 51.4475 118.576 51.7699 118.447 52.3503C118.317 52.9952 117.993 53.7046 117.67 54.285C117.411 54.7365 117.475 55.3169 117.929 55.7038L118.835 56.4132L117.54 57.703L116.828 56.8002C116.504 56.3487 115.921 56.2843 115.468 56.5422C114.885 56.9292 114.238 57.1871 113.526 57.3161C113.008 57.4451 112.619 57.961 112.684 58.4769L112.813 59.7667H111L111.13 58.4769C111.195 57.961 110.871 57.4451 110.288 57.3161C109.576 57.1871 108.928 56.8647 108.346 56.5422C107.892 56.2843 107.31 56.3487 106.986 56.8002L106.274 57.703L104.979 56.4132L105.885 55.7038C106.338 55.3814 106.403 54.801 106.144 54.285C105.756 53.7046 105.497 53.0597 105.367 52.3503C105.238 51.8344 104.72 51.4475 104.202 51.512L102.907 51.6409V49.8352L104.202 49.9642C104.72 50.0287 105.238 49.7062 105.367 49.1258C105.497 48.4809 105.82 47.7715 106.144 47.1911C106.403 46.7397 106.338 46.1592 105.885 45.8368L104.979 45.1274L106.274 43.8376L106.986 44.7405C107.31 45.1919 107.892 45.2564 108.346 44.9984C108.928 44.6115 109.576 44.3535 110.288 44.2245C110.806 44.0955 111.195 43.5796 111.13 43.0637L111 41.7739H112.813L112.684 43.0637C112.619 43.5796 112.943 44.0955 113.526 44.2245C114.238 44.3535 114.885 44.676 115.468 44.9984C115.921 45.2564 116.504 45.1919 116.828 44.7405L117.54 43.8376L118.835 45.1274L117.929 45.8368C117.475 46.1592 117.411 46.7397 117.67 47.1911C118.058 47.7715 118.317 48.4164 118.447 49.1258C118.576 49.6417 119.094 50.0287 119.612 49.9642L120.907 49.8352V51.6409Z" stroke="#003EB0" stroke-miterlimit="10"/>
<path d="M111.907 46.2238C109.447 46.2238 107.439 48.223 107.439 50.7381C107.439 53.2532 109.447 55.2524 111.907 55.2524C114.368 55.2524 116.375 53.2532 116.375 50.7381C116.44 48.223 114.433 46.2238 111.907 46.2238ZM111.907 54.543C109.77 54.543 108.087 52.8018 108.087 50.6736C108.087 48.5454 109.835 46.8042 111.907 46.8042C113.979 46.8042 115.728 48.5454 115.728 50.6736C115.728 52.8018 114.044 54.543 111.907 54.543Z" stroke="#003EB0" stroke-miterlimit="10"/>
<rect x="431.07" y="177" width="10" height="10" transform="rotate(45 431.07 177)" fill="#EE384E"/>
</svg>
