<svg width="250" height="190" viewBox="0 0 250 190" fill="none" xmlns="http://www.w3.org/2000/svg">
<path d="M242.954 154.588H11.0143C10.3588 154.588 9.89062 154.254 9.89062 153.67C9.89062 153.169 10.3588 152.752 11.0143 152.752H242.861C243.516 152.752 243.984 153.086 243.984 153.67C244.078 154.254 243.61 154.588 242.954 154.588Z" fill="#1A1A1A"/>
<path d="M220.917 104.153C220.917 104.153 224.772 125.793 225.038 131.403C225.304 137.147 225.836 141.555 222.114 143.692C218.392 145.83 212.277 148.1 212.277 148.1L204.699 109.764V105.222L220.917 104.153Z" fill="#FFBF99"/>
<path d="M155.249 102.951C155.249 102.951 153.122 112.568 152.59 117.644C151.925 122.587 150.596 132.204 150.463 134.475C150.197 136.746 150.064 140.486 153.919 143.291C157.907 146.23 162.294 147.833 162.294 147.833L170.403 103.084H155.249V102.951Z" fill="#FFBF99"/>
<path d="M184.49 71.9607C184.49 71.9607 184.49 76.5024 182.496 78.2389C180.502 80.2425 177.977 83.3148 177.977 83.3148C177.977 83.3148 182.496 90.3945 191.403 89.4594C200.443 88.5244 201.905 81.979 201.905 81.979C201.905 81.979 193.397 80.9104 192.467 72.8958C191.536 65.0147 190.34 65.0146 190.34 65.0146L184.49 71.9607Z" fill="#FFB07E"/>
<path d="M178.113 54.0612C178.113 54.0612 178.379 64.3467 183.165 72.3614C188.083 80.3761 193.667 75.8344 195.927 71.6935C198.187 67.5526 204.169 54.1948 202.972 50.4546C201.776 46.7144 184.228 45.5122 184.228 45.5122L178.113 54.0612Z" fill="#FFBF99"/>
<path d="M200.716 59.9389C200.716 59.9389 203.242 57.9352 203.242 59.9389C203.242 61.9425 201.912 64.7477 200.317 65.0148C198.722 65.282 198.988 64.3469 199.386 63.0112C199.785 61.6754 200.716 59.9389 200.716 59.9389Z" fill="#FFBF99"/>
<path d="M178.912 63.9458C179.577 64.2129 180.374 64.3465 180.374 63.2779C180.374 61.2742 179.045 58.4691 177.45 58.2019C175.855 57.9348 176.12 58.8698 176.519 60.2056C176.652 60.6063 176.785 61.1407 177.051 61.675C177.317 62.4764 178.247 63.8122 178.912 63.9458Z" fill="#FFBF99"/>
<path d="M178.511 58.8701L178.245 55.6643C178.245 55.6643 181.17 55.9314 184.36 52.7256C184.36 52.7256 190.608 54.0613 195.527 53.6606C200.711 53.1263 203.104 51.6569 203.104 51.6569C203.104 51.6569 202.306 57.8015 201.243 59.4045C201.243 59.4045 203.769 58.3358 204.699 55.3971C205.63 52.4584 205.497 49.3861 205.497 49.3861C205.497 49.3861 208.953 46.4474 210.017 43.2415C210.017 43.2415 200.445 41.1043 197.654 39.1006C194.729 37.0969 193.134 35.8947 193.134 35.8947C193.134 35.8947 188.614 33.3568 184.094 36.8298C179.574 40.3028 176.65 42.3065 176.65 48.4511C176.783 48.7182 172.662 54.4621 178.511 58.8701Z" fill="#170856"/>
<path d="M179.177 80.2431C179.177 80.2431 173.062 79.4416 169.872 80.5103C166.548 81.4453 165.485 80.7774 166.416 83.449C167.213 85.8534 171.733 97.6082 169.739 105.089C167.612 112.435 164.82 149.971 164.82 149.971C164.82 149.971 187.552 150.772 196.193 151.307C204.967 151.841 211.481 150.104 211.481 150.104C211.481 150.104 213.475 133.941 211.481 126.995C209.487 120.049 206.961 108.027 206.961 108.027C206.961 108.027 205.366 91.5972 207.625 87.5899C209.752 83.5826 211.481 83.449 208.689 82.3804C205.764 81.3117 202.707 80.3767 200.58 80.3767C198.453 80.3767 197.124 80.3767 195.794 81.7125C194.465 83.0483 191.806 85.7198 188.084 85.1855C184.362 84.5176 181.57 82.1132 181.57 82.1132C181.57 82.1132 180.374 80.5103 179.177 80.2431Z" fill="#0083F9"/>
<path d="M168.537 81.5793C168.537 81.5793 166.41 80.5106 163.352 83.1822C159.896 86.1209 157.503 92.2655 156.307 96.1392C155.11 100.013 154.312 103.887 154.312 103.887C154.312 103.887 158.699 106.024 163.086 106.291C167.606 106.558 170.531 106.825 170.531 106.825C170.531 106.825 172.525 95.0706 171.993 89.8611C171.594 84.7851 170.796 82.915 168.537 81.5793Z" fill="#003EB0"/>
<path d="M206.031 85.9865C206.031 85.9865 207.892 81.0441 211.88 83.315C215.868 85.5858 218.926 94.0012 219.723 96.8063C220.521 99.4779 221.85 104.821 221.85 104.821C221.85 104.821 217.064 106.958 213.076 107.225C209.088 107.493 206.297 107.893 206.297 107.893C206.297 107.893 204.702 97.3407 204.967 93.1997C205.1 88.6581 206.031 85.9865 206.031 85.9865Z" fill="#003EB0"/>
<path d="M170.271 112.568H210.949C210.949 112.568 213.076 112.301 213.076 115.24C213.076 118.179 213.076 150.638 213.076 150.638C213.076 150.638 213.342 153.042 211.481 153.042C209.62 153.042 163.624 153.042 163.624 153.042C163.624 153.042 161.63 153.71 161.63 150.371C161.63 147.031 161.63 114.438 161.63 114.438C161.63 114.438 161.364 112.568 163.757 112.568C166.15 112.568 170.271 112.568 170.271 112.568Z" fill="#0064B7"/>
<path d="M187.094 130.307L184.852 133.123L187.654 135.376L189.897 132.561L187.094 130.307Z" fill="#569ED4"/>
<path d="M62.9979 70.4912C62.9979 70.4912 66.0555 69.5562 65.5237 64.4802C65.2579 59.4043 61.8015 54.9962 66.7201 52.5918C71.3729 50.0538 72.7022 48.8516 74.8292 46.7143C76.9562 44.5771 78.2855 42.707 85.464 43.9092C85.464 43.9092 91.3132 38.9668 96.3647 43.5085C101.416 47.6494 100.087 58.6028 101.283 60.4729C102.48 62.343 109.392 68.8883 109.791 74.8993C110.19 80.7767 107 84.3833 101.283 83.9826C95.4342 83.7154 88.1227 83.9826 88.1227 83.9826H67.2519C67.2519 83.9826 60.3392 84.2498 59.8075 77.4373C59.1428 72.4949 62.9979 70.4912 62.9979 70.4912Z" fill="#1B1156"/>
<path d="M80.142 79.0403C80.142 79.0403 80.142 83.1812 78.5468 85.0513C76.9516 86.6542 74.4258 89.9937 74.4258 89.9937C74.4258 89.9937 78.5468 96.539 86.9217 95.8711C95.2966 94.9361 96.8918 88.9251 96.8918 88.9251C96.8918 88.9251 89.3145 87.7229 87.8522 80.5097C86.9217 73.0293 85.7253 73.0293 85.7253 73.0293L80.142 79.0403Z" fill="#FFB07E"/>
<path d="M84.1337 81.3107C89.3464 81.3107 93.5721 74.1341 93.5721 65.2813C93.5721 56.4285 89.3464 49.252 84.1337 49.252C78.921 49.252 74.6953 56.4285 74.6953 65.2813C74.6953 74.1341 78.921 81.3107 84.1337 81.3107Z" fill="#FFBF99"/>
<path d="M84.1355 48.3168C84.1355 48.3168 82.5403 53.3927 78.8181 58.3351C75.0959 63.4111 71.2408 65.949 70.709 66.7505C70.4432 67.6856 66.9868 65.1476 68.4491 60.8731C69.6456 56.8657 76.0264 45.7788 83.205 45.7788C90.1176 45.5116 91.5799 41.6379 95.0362 49.7861C98.4925 57.4001 97.562 67.0177 97.562 67.0177L84.1355 48.3168Z" fill="#1B1156"/>
<path d="M75.3651 63.2778C75.3651 63.2778 71.6429 63.0107 71.2441 64.8808C70.8453 67.018 72.4405 69.0217 75.3651 69.556C78.2897 70.0903 75.3651 63.2778 75.3651 63.2778Z" fill="#FFBF99"/>
<path d="M115.112 108.562C115.112 108.562 118.834 128.999 119.1 134.075C119.366 139.151 120.03 143.559 116.574 145.429C112.852 147.566 107.136 149.57 107.136 149.57L99.957 113.37V109.363L115.112 108.562Z" fill="#FFBF99"/>
<path d="M53.0309 107.358C53.0309 107.358 51.4357 116.442 50.771 121.117C50.3722 126.059 49.1758 134.608 49.1758 136.879C49.1758 139.016 48.777 142.757 52.6321 145.295C56.6202 147.833 60.2094 149.436 60.2094 149.436L67.7867 107.091L53.0309 107.358Z" fill="#FFBF99"/>
<path d="M75.4979 85.8522C75.4979 85.8522 69.6487 85.4515 66.4583 85.8522C63.002 86.2529 62.3373 86.1193 63.002 88.3902C63.9325 90.661 68.0535 101.614 65.7936 108.56C64.1984 115.506 60.875 150.905 60.875 150.905C60.875 150.905 82.4105 151.84 90.6525 152.107C99.0274 152.374 105.01 150.905 105.01 150.905C105.01 150.905 106.605 135.81 105.01 128.998C103.414 122.453 100.889 111.098 100.889 111.098C100.889 111.098 99.5592 95.3362 101.287 91.8632C103.148 88.123 105.01 87.8559 102.218 86.9208C99.6921 85.9858 96.3687 85.3179 94.6406 85.3179C92.7795 85.3179 91.1843 85.3179 89.9878 86.5201C88.7914 87.7223 85.9998 90.5274 82.8093 89.9931C79.0871 89.5924 76.8272 86.9208 76.8272 86.9208C76.8272 86.9208 76.4284 86.2529 75.4979 85.8522Z" fill="#DE051F"/>
<path d="M65.3949 86.9217C65.3949 86.9217 63.7996 85.9866 60.4762 88.2574C57.6846 90.7954 55.1588 96.6728 53.9624 100.547C52.766 104.287 52.3672 107.76 52.3672 107.76C52.3672 107.76 56.4882 109.897 60.7421 110.031C64.8631 110.031 67.6547 110.431 67.6547 110.431C67.6547 110.431 69.25 99.478 68.9841 94.402C68.3194 90.3947 67.9206 88.7918 65.3949 86.9217Z" fill="#EE384E"/>
<path d="M100.751 91.3301C100.751 91.3301 102.346 86.3877 106.068 89.0592C110.056 91.1965 112.582 99.3448 113.513 101.616C114.443 103.886 115.108 109.096 115.108 109.096C115.108 109.096 110.455 110.699 106.733 111.367C102.745 111.634 100.219 111.767 100.219 111.767C100.219 111.767 99.0227 102.016 99.2886 98.009C99.8203 94.1352 100.751 91.3301 100.751 91.3301Z" fill="#EE384E"/>
<path d="M66.991 116.175H105.675C105.675 116.175 107.802 115.908 107.802 118.446C107.802 120.984 107.802 151.707 107.802 151.707C107.802 151.707 107.802 153.978 106.473 153.978C104.878 153.978 61.4077 153.978 61.4077 153.978C61.4077 153.978 59.8125 154.378 59.8125 151.707C59.8125 148.902 59.8125 117.778 59.8125 117.778C59.8125 117.778 59.8125 116.175 61.9395 116.175C63.5347 116.175 66.991 116.175 66.991 116.175Z" fill="#0064B7"/>
<path d="M83.2713 132.763L80.9453 135.683L83.8512 138.02L86.1772 135.1L83.2713 132.763Z" fill="#709CD0"/>
<path d="M42.9724 119.198C42.9724 119.198 40.7289 118.253 40.847 115.656C41.0241 113.058 42.382 111.228 39.6071 111.936C36.8323 112.704 35.8876 112.999 33.8803 112.586C31.8729 112.172 30.2198 111.346 31.0464 113.944C31.932 116.541 32.8766 118.726 30.8102 119.139C28.7438 119.552 26.5003 118.017 26.2642 122.091C26.028 126.165 29.2752 130.77 34.5888 130.947C39.9023 131.124 42.2639 128.94 42.2639 128.94C42.2639 128.94 43.6809 126.932 41.4374 126.401C39.1939 125.929 36.9503 124.984 38.0721 123.921C39.1938 122.859 42.9134 122.8 42.9134 122.8C42.9134 122.8 47.5775 121.855 42.9724 119.198Z" fill="#649EEA"/>
<path d="M18.6512 119.848C19.0055 117.25 18.7103 115.361 13.928 114.653C9.0868 113.944 6.31194 116.837 6.01674 119.848C5.72154 122.8 9.91336 123.922 9.91336 123.922C9.91336 123.922 12.8653 124.748 11.3894 127.346C9.85432 129.944 9.20487 132.483 12.6292 132.837C16.0535 133.191 19.832 132.305 21.8984 130.947C23.9648 129.531 26.1493 126.047 23.7286 124.158C23.7286 124.158 23.0792 123.686 20.7767 123.568C18.4151 123.449 18.6512 119.848 18.6512 119.848Z" fill="#023EA1"/>
<path d="M35.6562 119.435C35.6562 119.435 31.6416 128.527 31.1102 134.667" stroke="#023EA1" stroke-width="0.442639" stroke-miterlimit="10"/>
<path d="M13.332 120.911C13.332 120.911 20.4168 131.479 22.1289 134.962" stroke="#649EEA" stroke-width="0.442639" stroke-miterlimit="10"/>
<path d="M33.5842 133.958H17.2892C17.2892 133.958 15.518 134.076 15.6361 136.497C15.7542 138.74 18.5881 138.268 20.0641 138.268C21.5401 138.268 33.8794 138.268 33.8794 138.268C33.8794 138.268 35.8867 138.622 35.8867 136.32C35.8867 134.076 35.1782 133.958 33.5842 133.958Z" fill="#0054A5"/>
<path d="M33.8789 138.268L31.3993 152.673H20.4769L18.6467 141.869L33.8789 138.268Z" fill="#0054A5"/>
<path d="M33.8789 138.268L18.6467 141.869L18.0563 138.268H33.8789Z" fill="#006AD5"/>
<path d="M26.8555 134.489C26.8555 134.489 26.0289 118.489 21.2467 108.512" stroke="#FCBE42" stroke-width="0.442639" stroke-miterlimit="10"/>
<path d="M17.3533 102.726C17.3533 102.726 16.94 107.626 21.7222 109.516C21.7812 109.575 22.7849 105.383 17.3533 102.726Z" fill="#FCBE42"/>
<path d="M24.5469 118.372C24.5469 118.372 22.7757 114.18 17.344 114.77C17.344 114.711 17.7573 118.903 24.5469 118.372Z" fill="#FCBE42"/>
<path d="M26.3203 128.881C26.3203 128.881 25.4347 124.453 20.0031 123.922C20.0031 123.922 19.5898 128.055 26.3203 128.881Z" fill="#FCBE42"/>
<path d="M26.4987 128.88C26.4987 128.88 25.8492 124.393 30.8086 122.091C30.8676 122.091 32.6388 125.869 26.4987 128.88Z" fill="#FCBE42"/>
<path d="M24.4931 118.312C24.4931 118.312 23.3124 113.943 27.9174 111.05C27.9174 111.05 30.1609 114.534 24.4931 118.312Z" fill="#FCBE42"/>
<path d="M162.528 64.5192L157.379 65.9634L158.823 71.1139L163.972 69.6696L162.528 64.5192Z" fill="#EE384E"/>
<path d="M33.0045 82.3287L27.8555 83.7729L29.2993 88.9234L34.4483 87.4792L33.0045 82.3287Z" fill="#003EB0"/>
</svg>
