<svg width="445" height="305" viewBox="0 0 445 305" fill="none" xmlns="http://www.w3.org/2000/svg">
<path d="M56.1528 115.279L63.9994 123.13L71.8458 115.279L63.9994 107.427L56.1528 115.279Z" fill="#FCBE42"/>
<path d="M127.85 122.097H90.3613V159.61H127.85V122.097Z" fill="#F5F5F5"/>
<path d="M117.027 155.843H101.184C97.2632 155.843 93.9688 152.546 93.9688 148.623V132.927C93.9688 129.003 97.2632 125.707 101.184 125.707H117.027C120.948 125.707 124.243 129.003 124.243 132.927V148.779C124.243 152.704 120.948 155.843 117.027 155.843Z" fill="#EBEBEB"/>
<path d="M102.909 125.707C103.066 126.806 104.007 127.591 105.105 127.591H113.105C114.202 127.591 115.143 126.806 115.301 125.707H102.909Z" fill="#E0E0E0"/>
<path d="M127.85 159.452H90.3604V196.965H127.85V159.452Z" fill="#F0F0F0"/>
<path d="M117.027 193.354H101.184C97.2632 193.354 93.9688 190.059 93.9688 186.134V170.282C93.9688 166.358 97.2632 163.063 101.184 163.063H117.027C120.948 163.063 124.243 166.358 124.243 170.282V186.134C124.243 190.059 120.948 193.354 117.027 193.354Z" fill="#FAFAFA"/>
<path d="M102.909 163.063C103.066 164.161 104.007 164.946 105.105 164.946H113.105C114.202 164.946 115.143 164.161 115.301 163.063H102.909Z" fill="#E0E0E0"/>
<path d="M127.85 196.965H90.3604V234.477H127.85V196.965Z" fill="#F5F5F5"/>
<path d="M117.027 230.867H101.184C97.2632 230.867 93.9688 227.571 93.9688 223.647V207.794C93.9688 203.871 97.2632 200.574 101.184 200.574H117.027C120.948 200.574 124.243 203.871 124.243 207.794V223.647C124.243 227.571 120.948 230.867 117.027 230.867Z" fill="#EBEBEB"/>
<path d="M102.909 200.574C103.066 201.673 104.007 202.458 105.105 202.458H113.105C114.202 202.458 115.143 201.673 115.301 200.574H102.909Z" fill="#E0E0E0"/>
<path d="M127.85 234.477H90.3604V271.989H127.85V234.477Z" fill="#F0F0F0"/>
<path d="M117.027 268.379H101.184C97.2632 268.379 93.9688 265.083 93.9688 261.159V245.307C93.9688 241.383 97.2632 238.087 101.184 238.087H117.027C120.948 238.087 124.243 241.383 124.243 245.307V261.159C124.243 265.083 120.948 268.379 117.027 268.379Z" fill="#FAFAFA"/>
<path d="M102.909 238.087C103.066 239.185 104.007 239.97 105.105 239.97H113.105C114.202 239.97 115.143 239.185 115.301 238.087H102.909Z" fill="#E0E0E0"/>
<path d="M132.398 122.097H127.85V271.989H132.398V122.097Z" fill="#E6E6E6"/>
<path d="M116.086 54.6062H86.5962V84.1138H116.086V54.6062Z" fill="#F0F0F0"/>
<path d="M117.497 54.7632H116.086V84.2712H117.497V54.7632Z" fill="#E6E6E6"/>
<path d="M113.419 57.2746H89.2627V81.446H113.419V57.2746Z" fill="#E6E6E6"/>
<path d="M111.065 59.7857H91.6152V79.2486H111.065V59.7857Z" fill="#FAFAFA"/>
<path d="M141.497 72.6565H122.674V103.89H141.497V72.6565Z" fill="#F0F0F0"/>
<path d="M142.438 72.813H141.497V104.048H142.438V72.813Z" fill="#E6E6E6"/>
<path d="M139.771 75.4818H124.399V101.065H139.771V75.4818Z" fill="#FAFAFA"/>
<path d="M138.359 77.993H125.967V98.5536H138.359V77.993Z" fill="#F5F5F5"/>
<path d="M138.36 67.3201C145.636 67.3201 151.535 63.3847 151.535 58.5302C151.535 53.6759 145.636 49.7407 138.36 49.7407C131.082 49.7407 125.184 53.6759 125.184 58.5302C125.184 63.3847 131.082 67.3201 138.36 67.3201Z" fill="#E0E0E0"/>
<path d="M137.418 67.3201C144.695 67.3201 150.594 63.3847 150.594 58.5302C150.594 53.6759 144.695 49.7407 137.418 49.7407C130.141 49.7407 124.242 53.6759 124.242 58.5302C124.242 63.3847 130.141 67.3201 137.418 67.3201Z" fill="#EBEBEB"/>
<path d="M137.418 65.4366C143.135 65.4366 147.771 62.3447 147.771 58.5302C147.771 54.716 143.135 51.6242 137.418 51.6242C131.7 51.6242 127.066 54.716 127.066 58.5302C127.066 62.3447 131.7 65.4366 137.418 65.4366Z" fill="#FAFAFA"/>
<path d="M287.843 287.057H281.099V287.213H287.843V287.057Z" fill="#EBEBEB"/>
<path d="M354.194 277.64H339.136V277.796H354.194V277.64Z" fill="#EBEBEB"/>
<path d="M220.395 304.792C304.339 304.792 372.389 300.787 372.389 295.846C372.389 290.905 304.339 286.9 220.395 286.9C136.451 286.9 68.4009 290.905 68.4009 295.846C68.4009 300.787 136.451 304.792 220.395 304.792Z" fill="#FFEBEB"/>
<path d="M167.221 55.3911C186.2 66.3784 205.18 77.3652 224.317 88.3521C224.944 88.666 225.572 87.7242 224.944 87.4103C205.964 76.4235 186.985 65.4366 167.848 54.4494C167.064 54.1355 166.594 55.0772 167.221 55.3911Z" fill="#263238"/>
<path d="M296 50.6823C285.02 69.6739 274.197 88.5085 263.217 107.5C261.649 110.168 260.08 112.993 258.511 115.661C258.198 116.289 259.139 116.917 259.453 116.289C270.433 97.298 281.255 78.4634 292.235 59.4718C293.804 56.8036 295.372 53.9784 296.941 51.3102C297.412 50.5254 296.471 50.0545 296 50.6823Z" fill="#263238"/>
<path d="M258.511 51.3102C263.06 59.1579 267.609 67.0052 272.001 74.8529C272.315 75.4807 273.412 74.8529 272.942 74.2251C268.393 66.3773 263.845 58.5301 259.453 50.6823C259.295 50.0545 258.197 50.5254 258.511 51.3102Z" fill="#263238"/>
<path d="M195.455 88.9799C195.455 111.895 195.455 134.811 195.455 157.726C195.455 161.022 195.455 164.318 195.455 167.614C195.455 168.399 196.71 168.399 196.71 167.614C196.71 144.698 196.71 121.783 196.71 98.8675C196.71 95.572 196.71 92.2754 196.71 88.9799C196.553 88.1946 195.455 88.1946 195.455 88.9799Z" fill="#263238"/>
<path d="M195.455 38.4399C195.455 49.5837 195.455 60.728 195.455 71.7148C195.455 72.4991 196.71 72.4991 196.71 71.7148C196.71 60.5705 196.71 49.4267 196.71 38.4399C196.553 37.6551 195.455 37.6551 195.455 38.4399Z" fill="#263238"/>
<path d="M164.868 114.72C172.711 119.272 180.711 123.824 188.554 128.375C189.181 128.689 189.808 127.747 189.181 127.433C181.338 122.882 173.338 118.33 165.495 113.779C164.868 113.307 164.24 114.407 164.868 114.72Z" fill="#263238"/>
<path d="M165.495 150.349C173.338 145.798 181.338 141.245 189.181 136.694C189.808 136.38 189.181 135.281 188.554 135.752C180.711 140.304 172.711 144.856 164.868 149.407C164.24 149.721 164.868 150.82 165.495 150.349Z" fill="#263238"/>
<path d="M209.101 132.77C232.16 132.77 255.217 132.77 278.276 132.77C281.569 132.77 284.864 132.77 288.157 132.77C288.942 132.77 288.942 131.514 288.157 131.514C265.1 131.514 242.041 131.514 218.984 131.514C215.689 131.514 212.396 131.514 209.101 131.514C208.474 131.672 208.474 132.77 209.101 132.77Z" fill="#263238"/>
<path d="M304.47 142.971C304.47 149.877 304.47 156.783 304.47 163.533C304.47 164.317 305.725 164.317 305.725 163.533C305.725 156.627 305.725 149.721 305.725 142.971C305.725 142.187 304.47 142.187 304.47 142.971Z" fill="#263238"/>
<path d="M317.489 132.77C322.665 132.77 327.685 132.77 332.861 132.77C333.645 132.77 333.645 131.514 332.861 131.514C327.685 131.514 322.665 131.514 317.489 131.514C316.705 131.672 316.705 132.77 317.489 132.77Z" fill="#263238"/>
<path d="M326.43 94.0024C320.783 103.89 315.136 113.621 309.333 123.51C309.019 124.138 309.961 124.766 310.274 124.138C315.921 114.249 321.568 104.518 327.371 94.6302C327.842 94.0024 326.744 93.3746 326.43 94.0024Z" fill="#263238"/>
<path d="M213.18 135.438C211.925 134.183 210.827 133.084 209.572 131.828C209.572 132.142 209.572 132.456 209.572 132.612C210.827 131.357 211.925 130.258 213.18 129.003C213.651 128.531 212.866 127.59 212.396 128.218C211.141 129.473 210.043 130.572 208.788 131.828C208.631 131.984 208.631 132.456 208.788 132.612C210.043 133.868 211.141 134.967 212.396 136.223C212.866 136.694 213.651 135.909 213.18 135.438Z" fill="#263238"/>
<path d="M284.236 129.003C285.491 130.258 286.588 131.358 287.843 132.613C287.843 132.299 287.843 131.985 287.843 131.828C286.588 133.084 285.491 134.183 284.236 135.438C283.765 135.909 284.55 136.851 285.02 136.223C286.275 134.967 287.373 133.869 288.628 132.613C288.784 132.456 288.784 131.985 288.628 131.828C287.373 130.572 286.275 129.474 285.02 128.219C284.392 127.747 283.609 128.532 284.236 129.003Z" fill="#263238"/>
<path d="M265.57 98.3971C267.138 97.9258 268.864 97.4554 270.433 97.1415C270.119 96.984 269.961 96.8276 269.648 96.6701C270.119 98.2397 270.589 99.9667 270.903 101.536C271.06 102.321 272.157 102.007 272.001 101.222C271.53 99.6528 271.06 97.9258 270.746 96.3562C270.589 96.0423 270.275 95.8859 269.961 95.8859C268.393 96.3562 266.668 96.8276 265.099 97.1415C264.472 97.4554 264.786 98.7111 265.57 98.3971Z" fill="#263238"/>
<path d="M249.414 158.51C263.967 158.51 275.766 146.705 275.766 132.142C275.766 117.579 263.967 105.774 249.414 105.774C234.86 105.774 223.062 117.579 223.062 132.142C223.062 146.705 234.86 158.51 249.414 158.51Z" fill="#155BCC"/>
<path opacity="0.7" d="M249.414 158.51C263.967 158.51 275.766 146.705 275.766 132.142C275.766 117.579 263.967 105.774 249.414 105.774C234.86 105.774 223.062 117.579 223.062 132.142C223.062 146.705 234.86 158.51 249.414 158.51Z" fill="#155BCC"/>
<path d="M249.414 154.43C261.628 154.43 271.53 144.522 271.53 132.299C271.53 120.077 261.628 110.168 249.414 110.168C237.199 110.168 227.296 120.077 227.296 132.299C227.296 144.522 237.199 154.43 249.414 154.43Z" fill="#DBE9F8"/>
<path opacity="0.8" d="M249.414 154.43C261.628 154.43 271.53 144.522 271.53 132.299C271.53 120.077 261.628 110.168 249.414 110.168C237.199 110.168 227.296 120.077 227.296 132.299C227.296 144.522 237.199 154.43 249.414 154.43Z" fill="#DBE9F8"/>
<path opacity="0.9" d="M249.414 148.779C258.596 148.779 266.041 141.331 266.041 132.142C266.041 122.953 258.596 115.505 249.414 115.505C240.231 115.505 232.787 122.953 232.787 132.142C232.787 141.331 240.231 148.779 249.414 148.779Z" fill="white"/>
<path d="M259.139 65.907C267.108 65.907 273.57 59.4421 273.57 51.4672C273.57 43.4923 267.108 37.0274 259.139 37.0274C251.169 37.0274 244.708 43.4923 244.708 51.4672C244.708 59.4421 251.169 65.907 259.139 65.907Z" fill="#155BCC"/>
<path opacity="0.7" d="M259.139 65.907C267.108 65.907 273.57 59.4421 273.57 51.4672C273.57 43.4923 267.108 37.0274 259.139 37.0274C251.169 37.0274 244.708 43.4923 244.708 51.4672C244.708 59.4421 251.169 65.907 259.139 65.907Z" fill="#155BCC"/>
<path d="M277.334 98.3972C285.564 98.3972 292.235 91.7208 292.235 83.4859C292.235 75.2511 285.564 68.5757 277.334 68.5757C269.104 68.5757 262.433 75.2511 262.433 83.4859C262.433 91.7208 269.104 98.3972 277.334 98.3972Z" fill="#407BFF"/>
<path opacity="0.7" d="M277.334 98.3972C285.564 98.3972 292.235 91.7208 292.235 83.4859C292.235 75.2511 285.564 68.5757 277.334 68.5757C269.104 68.5757 262.433 75.2511 262.433 83.4859C262.433 91.7208 269.104 98.3972 277.334 98.3972Z" fill="white"/>
<path d="M196.083 145.326C203.359 145.326 209.259 139.423 209.259 132.142C209.259 124.861 203.359 118.958 196.083 118.958C188.805 118.958 182.907 124.861 182.907 132.142C182.907 139.423 188.805 145.326 196.083 145.326Z" fill="#407BFF"/>
<path opacity="0.7" d="M196.083 145.326C203.359 145.326 209.259 139.423 209.259 132.142C209.259 124.861 203.359 118.958 196.083 118.958C188.805 118.958 182.907 124.861 182.907 132.142C182.907 139.423 188.805 145.326 196.083 145.326Z" fill="white"/>
<path d="M196.083 88.9799C205.525 88.9799 213.18 81.3196 213.18 71.8713C213.18 62.4229 205.525 54.7633 196.083 54.7633C186.639 54.7633 178.985 62.4229 178.985 71.8713C178.985 81.3196 186.639 88.9799 196.083 88.9799Z" fill="#407BFF"/>
<path opacity="0.7" d="M196.083 88.9799C205.525 88.9799 213.18 81.3196 213.18 71.8713C213.18 62.4229 205.525 54.7633 196.083 54.7633C186.639 54.7633 178.985 62.4229 178.985 71.8713C178.985 81.3196 186.639 88.9799 196.083 88.9799Z" fill="white"/>
<path d="M305.097 181.583C311.941 181.583 317.489 176.031 317.489 169.183C317.489 162.335 311.941 156.784 305.097 156.784C298.254 156.784 292.706 162.335 292.706 169.183C292.706 176.031 298.254 181.583 305.097 181.583Z" fill="#407BFF"/>
<path opacity="0.7" d="M305.097 181.583C311.941 181.583 317.489 176.031 317.489 169.183C317.489 162.335 311.941 156.784 305.097 156.784C298.254 156.784 292.706 162.335 292.706 169.183C292.706 176.031 298.254 181.583 305.097 181.583Z" fill="white"/>
<path d="M339.763 142.971C345.74 142.971 350.586 138.123 350.586 132.142C350.586 126.161 345.74 121.312 339.763 121.312C333.785 121.312 328.939 126.161 328.939 132.142C328.939 138.123 333.785 142.971 339.763 142.971Z" fill="#407BFF"/>
<path opacity="0.7" d="M339.763 142.971C345.74 142.971 350.586 138.123 350.586 132.142C350.586 126.161 345.74 121.312 339.763 121.312C333.785 121.312 328.939 126.161 328.939 132.142C328.939 138.123 333.785 142.971 339.763 142.971Z" fill="white"/>
<path d="M326.43 110.954C335.613 110.954 343.057 103.504 343.057 94.3163C343.057 85.1277 335.613 77.6791 326.43 77.6791C317.247 77.6791 309.803 85.1277 309.803 94.3163C309.803 103.504 317.247 110.954 326.43 110.954Z" fill="#407BFF"/>
<path opacity="0.7" d="M326.43 110.954C335.613 110.954 343.057 103.504 343.057 94.3163C343.057 85.1277 335.613 77.6791 326.43 77.6791C317.247 77.6791 309.803 85.1277 309.803 94.3163C309.803 103.504 317.247 110.954 326.43 110.954Z" fill="white"/>
<path d="M196.083 49.1129C201.973 49.1129 206.749 44.3344 206.749 38.44C206.749 32.5454 201.973 27.767 196.083 27.767C190.191 27.767 185.417 32.5454 185.417 38.44C185.417 44.3344 190.191 49.1129 196.083 49.1129Z" fill="#407BFF"/>
<path opacity="0.7" d="M196.083 49.1129C201.973 49.1129 206.749 44.3344 206.749 38.44C206.749 32.5454 201.973 27.767 196.083 27.767C190.191 27.767 185.417 32.5454 185.417 38.44C185.417 44.3344 190.191 49.1129 196.083 49.1129Z" fill="white"/>
<path d="M196.083 180.798C203.359 180.798 209.259 174.895 209.259 167.614C209.259 160.333 203.359 154.43 196.083 154.43C188.805 154.43 182.907 160.333 182.907 167.614C182.907 174.895 188.805 180.798 196.083 180.798Z" fill="#407BFF"/>
<path opacity="0.7" d="M196.083 180.798C203.359 180.798 209.259 174.895 209.259 167.614C209.259 160.333 203.359 154.43 196.083 154.43C188.805 154.43 182.907 160.333 182.907 167.614C182.907 174.895 188.805 180.798 196.083 180.798Z" fill="white"/>
<path d="M165.181 163.533C172.718 163.533 178.828 157.419 178.828 149.878C178.828 142.336 172.718 136.223 165.181 136.223C157.644 136.223 151.535 142.336 151.535 149.878C151.535 157.419 157.644 163.533 165.181 163.533Z" fill="#155BCC"/>
<path opacity="0.7" d="M165.181 163.533C172.718 163.533 178.828 157.419 178.828 149.878C178.828 142.336 172.718 136.223 165.181 136.223C157.644 136.223 151.535 142.336 151.535 149.878C151.535 157.419 157.644 163.533 165.181 163.533Z" fill="#155BCC"/>
<path d="M165.182 129.631C173.671 129.631 180.553 122.744 180.553 114.249C180.553 105.754 173.671 98.8675 165.182 98.8675C156.692 98.8675 149.81 105.754 149.81 114.249C149.81 122.744 156.692 129.631 165.182 129.631Z" fill="#407BFF"/>
<path opacity="0.7" d="M165.182 129.631C173.671 129.631 180.553 122.744 180.553 114.249C180.553 105.754 173.671 98.8675 165.182 98.8675C156.692 98.8675 149.81 105.754 149.81 114.249C149.81 122.744 156.692 129.631 165.182 129.631Z" fill="white"/>
<path d="M167.535 65.5931C173.425 65.5931 178.201 60.8142 178.201 54.9202C178.201 49.0256 173.425 44.2473 167.535 44.2473C161.644 44.2473 156.869 49.0256 156.869 54.9202C156.869 60.8142 161.644 65.5931 167.535 65.5931Z" fill="#407BFF"/>
<path opacity="0.7" d="M167.535 65.5931C173.425 65.5931 178.201 60.8142 178.201 54.9202C178.201 49.0256 173.425 44.2473 167.535 44.2473C161.644 44.2473 156.869 49.0256 156.869 54.9202C156.869 60.8142 161.644 65.5931 167.535 65.5931Z" fill="white"/>
<path d="M224.631 98.5536C230.521 98.5536 235.297 93.7748 235.297 87.8807C235.297 81.9866 230.521 77.2077 224.631 77.2077C218.739 77.2077 213.964 81.9866 213.964 87.8807C213.964 93.7748 218.739 98.5536 224.631 98.5536Z" fill="#407BFF"/>
<path opacity="0.7" d="M224.631 98.5536C230.521 98.5536 235.297 93.7748 235.297 87.8807C235.297 81.9866 230.521 77.2077 224.631 77.2077C218.739 77.2077 213.964 81.9866 213.964 87.8807C213.964 93.7748 218.739 98.5536 224.631 98.5536Z" fill="white"/>
<path d="M296.627 66.3783C305.117 66.3783 311.999 59.4914 311.999 50.9964C311.999 42.5013 305.117 35.6148 296.627 35.6148C288.138 35.6148 281.255 42.5013 281.255 50.9964C281.255 59.4914 288.138 66.3783 296.627 66.3783Z" fill="#407BFF"/>
<path opacity="0.7" d="M296.627 66.3783C305.117 66.3783 311.999 59.4914 311.999 50.9964C311.999 42.5013 305.117 35.6148 296.627 35.6148C288.138 35.6148 281.255 42.5013 281.255 50.9964C281.255 59.4914 288.138 66.3783 296.627 66.3783Z" fill="white"/>
<path d="M305.097 149.093C314.454 149.093 322.038 141.504 322.038 132.142C322.038 122.78 314.454 115.191 305.097 115.191C295.741 115.191 288.157 122.78 288.157 132.142C288.157 141.504 295.741 149.093 305.097 149.093Z" fill="#407BFF"/>
<path opacity="0.7" d="M305.097 149.093C314.454 149.093 322.038 141.504 322.038 132.142C322.038 122.78 314.454 115.191 305.097 115.191C295.741 115.191 288.157 122.78 288.157 132.142C288.157 141.504 295.741 149.093 305.097 149.093Z" fill="white"/>
<path d="M196.083 86.7825C204.312 86.7825 210.983 80.1061 210.983 71.8713C210.983 63.6364 204.312 56.9605 196.083 56.9605C187.852 56.9605 181.181 63.6364 181.181 71.8713C181.181 80.1061 187.852 86.7825 196.083 86.7825Z" fill="#407BFF"/>
<path d="M165.181 126.178C171.765 126.178 177.102 120.837 177.102 114.249C177.102 107.661 171.765 102.321 165.181 102.321C158.597 102.321 153.26 107.661 153.26 114.249C153.26 120.837 158.597 126.178 165.181 126.178Z" fill="#407BFF"/>
<path d="M165.181 161.178C171.419 161.178 176.475 156.119 176.475 149.878C176.475 143.636 171.419 138.578 165.181 138.578C158.944 138.578 153.888 143.636 153.888 149.878C153.888 156.119 158.944 161.178 165.181 161.178Z" fill="#407BFF"/>
<path d="M196.083 142.031C201.54 142.031 205.964 137.603 205.964 132.142C205.964 126.681 201.54 122.254 196.083 122.254C190.624 122.254 186.2 126.681 186.2 132.142C186.2 137.603 190.624 142.031 196.083 142.031Z" fill="#155BCC"/>
<path d="M196.083 178.287C201.886 178.287 206.592 173.579 206.592 167.771C206.592 161.963 201.886 157.255 196.083 157.255C190.278 157.255 185.573 161.963 185.573 167.771C185.573 173.579 190.278 178.287 196.083 178.287Z" fill="#407BFF"/>
<path d="M167.535 61.6697C171.259 61.6697 174.279 58.6475 174.279 54.9201C174.279 51.1927 171.259 48.1711 167.535 48.1711C163.809 48.1711 160.79 51.1927 160.79 54.9201C160.79 58.6475 163.809 61.6697 167.535 61.6697Z" fill="#155BCC"/>
<path d="M196.082 47.3863C201.02 47.3863 205.023 43.3808 205.023 38.4399C205.023 33.4989 201.02 29.4934 196.082 29.4934C191.144 29.4934 187.141 33.4989 187.141 38.4399C187.141 43.3808 191.144 47.3863 196.082 47.3863Z" fill="#407BFF"/>
<path d="M224.631 95.4145C228.788 95.4145 232.16 92.0417 232.16 87.8807C232.16 83.7196 228.788 80.3468 224.631 80.3468C220.472 80.3468 217.102 83.7196 217.102 87.8807C217.102 92.0417 220.472 95.4145 224.631 95.4145Z" fill="#407BFF"/>
<path d="M259.139 62.7679C265.376 62.7679 270.433 57.7084 270.433 51.4672C270.433 45.2259 265.376 40.1665 259.139 40.1665C252.901 40.1665 247.845 45.2259 247.845 51.4672C247.845 57.7084 252.901 62.7679 259.139 62.7679Z" fill="#407BFF"/>
<path d="M296.627 64.4949C304.077 64.4949 310.117 58.4512 310.117 50.9964C310.117 43.5415 304.077 37.4982 296.627 37.4982C289.177 37.4982 283.138 43.5415 283.138 50.9964C283.138 58.4512 289.177 64.4949 296.627 64.4949Z" fill="#407BFF"/>
<path d="M305.097 145.326C312.374 145.326 318.273 139.423 318.273 132.142C318.273 124.861 312.374 118.958 305.097 118.958C297.821 118.958 291.921 124.861 291.921 132.142C291.921 139.423 297.821 145.326 305.097 145.326Z" fill="#407BFF"/>
<path d="M277.334 95.572C284.004 95.572 289.412 90.1603 289.412 83.4859C289.412 76.8116 284.004 71.4009 277.334 71.4009C270.663 71.4009 265.256 76.8116 265.256 83.4859C265.256 90.1603 270.663 95.572 277.334 95.572Z" fill="#155BCC"/>
<path d="M326.43 108.756C334.4 108.756 340.861 102.29 340.861 94.3163C340.861 86.3412 334.4 79.8765 326.43 79.8765C318.46 79.8765 311.999 86.3412 311.999 94.3163C311.999 102.29 318.46 108.756 326.43 108.756Z" fill="#407BFF"/>
<path d="M305.097 177.031C309.429 177.031 312.94 173.518 312.94 169.183C312.94 164.849 309.429 161.336 305.097 161.336C300.765 161.336 297.254 164.849 297.254 169.183C297.254 173.518 300.765 177.031 305.097 177.031Z" fill="#407BFF"/>
<path d="M196.083 86.7825C204.312 86.7825 210.983 80.1061 210.983 71.8713C210.983 63.6364 204.312 56.9605 196.083 56.9605C187.852 56.9605 181.181 63.6364 181.181 71.8713C181.181 80.1061 187.852 86.7825 196.083 86.7825Z" fill="#155BCC"/>
<path d="M165.181 126.178C171.765 126.178 177.102 120.837 177.102 114.249C177.102 107.661 171.765 102.321 165.181 102.321C158.597 102.321 153.26 107.661 153.26 114.249C153.26 120.837 158.597 126.178 165.181 126.178Z" fill="#155BCC"/>
<path d="M165.181 161.178C171.419 161.178 176.475 156.119 176.475 149.878C176.475 143.636 171.419 138.578 165.181 138.578C158.944 138.578 153.888 143.636 153.888 149.878C153.888 156.119 158.944 161.178 165.181 161.178Z" fill="#DBE9F8"/>
<path opacity="0.4" d="M196.083 178.287C201.886 178.287 206.592 173.579 206.592 167.771C206.592 161.963 201.886 157.255 196.083 157.255C190.278 157.255 185.573 161.963 185.573 167.771C185.573 173.579 190.278 178.287 196.083 178.287Z" fill="white"/>
<path d="M196.082 47.3863C201.02 47.3863 205.023 43.3808 205.023 38.4399C205.023 33.4989 201.02 29.4934 196.082 29.4934C191.144 29.4934 187.141 33.4989 187.141 38.4399C187.141 43.3808 191.144 47.3863 196.082 47.3863Z" fill="#155BCC"/>
<path d="M224.631 95.4145C228.788 95.4145 232.16 92.0417 232.16 87.8807C232.16 83.7196 228.788 80.3468 224.631 80.3468C220.472 80.3468 217.102 83.7196 217.102 87.8807C217.102 92.0417 220.472 95.4145 224.631 95.4145Z" fill="#155BCC"/>
<path opacity="0.9" d="M259.139 62.7679C265.376 62.7679 270.433 57.7084 270.433 51.4672C270.433 45.2259 265.376 40.1665 259.139 40.1665C252.901 40.1665 247.845 45.2259 247.845 51.4672C247.845 57.7084 252.901 62.7679 259.139 62.7679Z" fill="white"/>
<path d="M296.627 64.4949C304.077 64.4949 310.117 58.4512 310.117 50.9964C310.117 43.5415 304.077 37.4982 296.627 37.4982C289.177 37.4982 283.138 43.5415 283.138 50.9964C283.138 58.4512 289.177 64.4949 296.627 64.4949Z" fill="#155BCC"/>
<path d="M305.097 145.326C312.374 145.326 318.273 139.423 318.273 132.142C318.273 124.861 312.374 118.958 305.097 118.958C297.821 118.958 291.921 124.861 291.921 132.142C291.921 139.423 297.821 145.326 305.097 145.326Z" fill="#155BCC"/>
<path d="M326.43 108.756C334.4 108.756 340.861 102.29 340.861 94.3163C340.861 86.3412 334.4 79.8765 326.43 79.8765C318.46 79.8765 311.999 86.3412 311.999 94.3163C311.999 102.29 318.46 108.756 326.43 108.756Z" fill="#155BCC"/>
<path d="M305.097 177.031C309.429 177.031 312.94 173.518 312.94 169.183C312.94 164.849 309.429 161.336 305.097 161.336C300.765 161.336 297.254 164.849 297.254 169.183C297.254 173.518 300.765 177.031 305.097 177.031Z" fill="#155BCC"/>
<path d="M339.763 139.832C344.008 139.832 347.449 136.389 347.449 132.142C347.449 127.895 344.008 124.451 339.763 124.451C335.517 124.451 332.077 127.895 332.077 132.142C332.077 136.389 335.517 139.832 339.763 139.832Z" fill="#155BCC"/>
<path d="M196.083 62.454L197.965 64.3374L200.475 63.5521L201.258 66.2209L203.768 66.8487L203.141 69.5164L205.023 71.3999L203.141 73.2834L203.768 75.7946L201.258 76.5799L200.475 79.0912L197.965 78.4634L196.083 80.3468L194.2 78.4634L191.533 79.0912L190.906 76.5799L188.24 75.7946L188.867 73.2834L186.985 71.3999L188.867 69.5164L188.24 66.8487L190.906 66.2209L191.533 63.5521L194.2 64.3374L196.083 62.454Z" fill="white"/>
<path d="M196.239 127.119L198.121 129.631L201.102 130.73L199.22 133.241V136.38L196.239 135.438L193.259 136.38L193.102 133.241L191.377 130.73L194.357 129.631L196.239 127.119Z" fill="white"/>
<path d="M167.535 51.781L168.632 53.3506L170.515 53.9784L169.417 55.548L169.26 57.4314L167.535 56.9605L165.653 57.4314V55.548L164.554 53.9784L166.28 53.3506L167.535 51.781Z" fill="white"/>
<path d="M274.353 76.8938L278.118 81.7599L269.334 80.6607L274.353 76.8938Z" fill="#EE384E"/>
<path d="M272.897 85.0174L272.121 90.7721L277.872 91.5493L278.648 85.7946L272.897 85.0174Z" fill="white"/>
<path d="M287.059 83.3295C286.902 84.899 285.333 86.1547 283.608 85.8407C282.04 85.6833 280.785 84.1137 281.099 82.3877C281.255 80.8182 282.824 79.5625 284.55 79.8765C286.118 80.1904 287.216 81.7599 287.059 83.3295Z" fill="white"/>
<path d="M292.079 50.3683L296 53.3505L289.098 54.2922L292.079 50.3683Z" fill="white"/>
<path d="M297.218 56.1815L292.718 56.8464L293.383 61.3498L297.883 60.6848L297.218 56.1815Z" fill="white"/>
<path d="M289.003 47.0088L285.745 47.4904L286.226 50.7511L289.484 50.2695L289.003 47.0088Z" fill="white"/>
<path d="M306.885 47.1642L303.627 47.6458L304.108 50.9065L307.366 50.4249L306.885 47.1642Z" fill="white"/>
<path d="M303.059 52.5658C303.215 53.8214 302.431 55.0771 301.019 55.234C299.608 55.391 298.509 54.6062 298.353 53.1936C298.196 51.938 298.98 50.6823 300.392 50.5254C301.646 50.3684 302.745 51.3102 303.059 52.5658Z" fill="white"/>
<path d="M302.431 43.4624L299.45 47.3863L298.509 40.4803L302.431 43.4624Z" fill="white"/>
<path d="M295.641 41.9004L291.141 42.5653L291.805 47.0684L296.305 46.4033L295.641 41.9004Z" fill="white"/>
<path d="M302.274 128.533L303.842 132.456L307.921 132.77L304.784 135.439L305.725 139.519L302.274 137.322L298.667 139.519L299.608 135.439L296.471 132.77L300.549 132.456L302.274 128.533Z" fill="white"/>
<path d="M309.019 122.411L310.117 124.922L312.627 125.079L310.744 126.806L311.215 129.317L309.019 127.905L306.823 129.317L307.451 126.806L305.411 125.079L308.078 124.922L309.019 122.411Z" fill="white"/>
<path d="M311.372 133.869L311.999 135.438L313.568 135.595L312.313 136.693L312.784 138.263L311.372 137.321L309.961 138.263L310.274 136.693L309.02 135.595L310.744 135.438L311.372 133.869Z" fill="white"/>
<path d="M322.038 95.1006C322.038 96.0423 321.254 96.8276 320.313 96.8276C319.372 96.8276 318.587 96.0423 318.587 95.1006C318.587 94.1588 319.372 93.3746 320.313 93.3746C321.254 93.3746 322.038 94.1588 322.038 95.1006Z" fill="white"/>
<path d="M327.528 95.1006C327.528 96.0423 326.744 96.8276 325.803 96.8276C324.861 96.8276 324.078 96.0423 324.078 95.1006C324.078 94.1588 324.861 93.3746 325.803 93.3746C326.744 93.3746 327.528 94.1588 327.528 95.1006Z" fill="white"/>
<path d="M332.861 95.1006C332.861 96.0423 332.077 96.8276 331.136 96.8276C330.194 96.8276 329.411 96.0423 329.411 95.1006C329.411 94.1588 330.194 93.3746 331.136 93.3746C332.077 93.3746 332.861 94.1588 332.861 95.1006Z" fill="white"/>
<path d="M161.417 149.878C161.417 150.82 160.633 151.604 159.692 151.604C158.751 151.604 157.966 150.82 157.966 149.878C157.966 148.937 158.751 148.151 159.692 148.151C160.633 148.151 161.417 148.937 161.417 149.878Z" fill="#155BCC"/>
<path d="M165.181 151.604C166.135 151.604 166.907 150.831 166.907 149.878C166.907 148.925 166.135 148.151 165.181 148.151C164.228 148.151 163.457 148.925 163.457 149.878C163.457 150.831 164.228 151.604 165.181 151.604Z" fill="#155BCC"/>
<path d="M172.397 149.878C172.397 150.82 171.613 151.604 170.672 151.604C169.731 151.604 168.946 150.82 168.946 149.878C168.946 148.937 169.731 148.151 170.672 148.151C171.613 148.151 172.397 148.937 172.397 149.878Z" fill="#155BCC"/>
<path d="M253.021 53.1937C253.974 53.1937 254.747 52.4207 254.747 51.4672C254.747 50.5137 253.974 49.7407 253.021 49.7407C252.068 49.7407 251.296 50.5137 251.296 51.4672C251.296 52.4207 252.068 53.1937 253.021 53.1937Z" fill="#155BCC"/>
<path d="M258.512 53.1937C259.464 53.1937 260.236 52.4207 260.236 51.4672C260.236 50.5137 259.464 49.7407 258.512 49.7407C257.558 49.7407 256.786 50.5137 256.786 51.4672C256.786 52.4207 257.558 53.1937 258.512 53.1937Z" fill="#155BCC"/>
<path d="M265.727 51.4672C265.727 52.4089 264.942 53.1937 264.001 53.1937C263.06 53.1937 262.276 52.4089 262.276 51.4672C262.276 50.5255 263.06 49.7407 264.001 49.7407C264.942 49.7407 265.727 50.5255 265.727 51.4672Z" fill="#155BCC"/>
<path d="M338.206 128.38L335.859 133.52L340.996 135.868L343.342 130.728L338.206 128.38Z" fill="white"/>
<path d="M226.314 84.3925L221.023 86.3673L222.996 91.6616L228.288 89.6869L226.314 84.3925Z" fill="white"/>
<path d="M301.176 169.969L306.823 165.574L308.234 172.48L301.176 169.969Z" fill="#EE384E"/>
<path d="M190.436 163.69L194.671 160.394L195.769 165.73L190.436 163.69Z" fill="white"/>
<path d="M199.062 167.457L199.69 162.121L204.239 165.102L199.062 167.457Z" fill="white"/>
<path d="M196.553 174.52L197.18 169.027L201.73 172.008L196.553 174.52Z" fill="white"/>
<path d="M189.181 170.91L193.729 167.771L194.514 173.264L189.181 170.91Z" fill="white"/>
<path d="M191.847 38.9108L197.494 34.3591L198.906 41.4221L191.847 38.9108Z" fill="#EE384E"/>
<path d="M163.77 115.034C163.457 114.721 160.319 111.424 160.006 111.11C159.378 110.482 158.28 110.482 157.496 111.11C156.869 111.738 156.869 112.837 157.496 113.621C157.81 113.935 160.947 117.232 161.261 117.546C161.888 118.174 162.985 118.174 163.77 117.546C164.554 116.76 164.554 115.662 163.77 115.034Z" fill="white"/>
<path d="M169.26 108.128C168.946 108.128 165.181 108.285 164.868 108.285C164.084 108.285 163.457 108.913 163.457 109.698C163.457 110.482 164.084 111.11 164.868 111.11C165.181 111.11 168.946 110.954 169.26 110.954C170.045 110.954 170.672 110.326 170.672 109.54C170.672 108.756 170.045 108.128 169.26 108.128Z" fill="white"/>
<path d="M170.044 117.074C169.887 116.76 168.632 114.093 168.632 113.935C168.319 113.307 167.691 113.151 167.064 113.307C166.436 113.621 166.28 114.249 166.436 114.877C166.594 115.191 167.848 117.86 167.848 118.016C168.162 118.644 168.79 118.801 169.417 118.644C170.044 118.33 170.358 117.702 170.044 117.074Z" fill="white"/>
<path d="M307.991 232.138C307.991 232.138 312.304 230.412 311.959 225.577C311.786 220.57 309.199 216.945 314.374 218.671C319.551 220.398 321.276 220.743 325.245 219.879C329.041 219.017 332.147 217.462 330.421 222.47C328.696 227.476 326.97 231.62 330.938 232.31C334.907 233.174 338.875 229.893 339.566 237.663C340.083 245.432 333.872 254.064 323.864 254.409C313.684 254.583 309.371 250.611 309.371 250.611C309.371 250.611 306.61 246.813 310.751 245.95C315.065 245.086 319.378 243.188 317.135 241.288C314.719 239.216 307.991 238.871 307.991 238.871C307.991 238.871 299.363 237.318 307.991 232.138Z" fill="#649CE8"/>
<path d="M354.404 233.346C353.886 228.34 354.404 224.714 363.377 223.506C372.521 222.125 377.697 227.476 378.388 233.346C378.905 239.044 370.796 241.116 370.796 241.116C370.796 241.116 365.102 242.843 368.035 247.677C370.796 252.683 372.003 257.517 365.62 258.036C359.063 258.553 351.816 256.827 348.02 254.237C344.052 251.647 340.083 245.087 344.569 241.288C344.569 241.288 345.777 240.425 350.263 240.08C354.749 240.08 354.404 233.346 354.404 233.346Z" fill="#033E9F"/>
<path d="M322.139 232.656C322.139 232.656 329.73 249.749 330.766 261.661" stroke="#82D8FD" stroke-width="0.86075" stroke-miterlimit="10" stroke-linecap="round" stroke-linejoin="round"/>
<path d="M364.412 235.591C364.412 235.591 350.954 255.791 347.675 262.351" stroke="#579DD3" stroke-width="0.86075" stroke-miterlimit="10" stroke-linecap="round" stroke-linejoin="round"/>
<path d="M338.875 261.489C338.875 261.489 340.601 230.929 349.401 212.111" stroke="#FABC42" stroke-width="0.86075" stroke-miterlimit="10"/>
<path d="M356.992 200.888C356.992 200.888 357.855 210.039 348.71 213.837C348.366 213.837 346.64 206.068 356.992 200.888Z" fill="#FABC42"/>
<path d="M343.017 230.584C343.017 230.584 346.467 222.642 356.82 223.678C356.992 223.506 355.957 231.62 343.017 230.584Z" fill="#FABC42"/>
<path d="M339.738 250.439C339.738 250.439 341.464 241.806 351.644 240.943C351.817 241.116 352.679 249.058 339.738 250.439Z" fill="#FABC42"/>
<path d="M339.566 250.784C339.566 250.784 340.773 242.152 331.629 237.835C331.629 237.835 328.178 245.26 339.566 250.784Z" fill="#FABC42"/>
<path d="M343.361 230.584C343.361 230.584 345.777 222.296 336.978 216.772C336.633 216.6 332.492 223.506 343.361 230.584Z" fill="#FABC42"/>
<path d="M326.107 260.453H357.165C357.165 260.453 360.616 260.625 360.271 265.459C360.099 269.776 354.577 268.912 351.643 268.912C348.883 268.912 325.245 268.912 325.245 268.912C325.245 268.912 321.449 269.431 321.449 265.114C321.621 260.625 323.002 260.453 326.107 260.453Z" fill="#0054A3"/>
<path d="M325.245 268.395L330.076 295.846H350.781L354.404 275.128L325.245 268.395Z" fill="#0054A3"/>
<path d="M325.245 268.395L354.404 275.128L355.785 268.395H325.245Z" fill="#016AD3"/>
<path d="M261.324 283.411C261.324 283.411 271.112 283.898 278.201 283.898C285.291 283.898 296.538 285.358 296.538 285.358C296.538 285.358 299.472 285.358 299.722 289.031C299.974 292.703 299.974 294.164 299.974 294.164C299.974 294.164 300.224 298.558 296.789 298.558C293.37 298.558 271.598 301.006 266.72 301.006C261.841 301.006 258.171 301.979 258.171 298.558C258.156 295.152 257.904 283.161 261.324 283.411Z" fill="#170856"/>
<path d="M269.403 179.915C269.403 179.915 275.771 215.152 276.257 224.443C276.743 233.751 277.715 240.846 271.614 244.519C265.497 248.191 255.489 251.612 255.489 251.612L243.019 188.737V181.407L269.403 179.915Z" fill="#FFBF99"/>
<path d="M161.579 177.954C161.579 177.954 158.159 193.853 157.187 201.936C156.214 210.004 154.003 225.684 153.767 229.325C153.516 232.998 153.03 239.119 159.65 243.764C166.253 248.411 173.343 251.111 173.343 251.111L186.802 177.954H161.579Z" fill="#FFBF99"/>
<path d="M209.844 127.32C209.844 127.32 209.844 134.65 206.691 137.804C203.538 140.96 199.365 146.186 199.365 146.186C199.365 146.186 206.691 157.707 221.341 156.137C235.991 154.568 238.611 144.083 238.611 144.083C238.611 144.083 224.745 142.262 223.16 129.156C221.592 116.066 219.49 116.066 219.49 116.066L209.844 127.32Z" fill="#FFB07E"/>
<path d="M199.115 98.2678C199.115 98.2678 199.632 115.03 207.491 128.105C215.35 141.179 224.761 133.865 228.431 127.053C232.102 120.258 242.03 98.2517 239.945 92.492C237.843 86.7313 209.075 84.1107 209.075 84.1107L199.115 98.2678Z" fill="#FFBF99"/>
<path d="M236.258 107.669C236.258 107.669 240.447 104.515 240.447 107.669C240.447 110.824 238.345 115.517 235.741 116.05C233.121 116.569 233.639 114.999 234.172 112.896C234.706 110.824 236.258 107.669 236.258 107.669Z" fill="#FFBF99"/>
<path d="M200.386 114.246C201.53 114.748 202.785 114.921 202.785 113.194C202.785 110.039 200.683 105.346 198.079 104.813C195.46 104.295 195.978 105.865 196.511 107.968C196.699 108.69 196.997 109.521 197.311 110.322C197.907 111.844 199.445 113.822 200.386 114.246Z" fill="#FFBF99"/>
<path d="M199.899 105.849L199.381 100.622C199.381 100.622 204.087 101.14 209.326 95.913C209.326 95.913 219.537 98.2046 227.646 97.4825C236.274 96.6982 240.023 94.3284 240.023 94.3284C240.023 94.3284 238.579 104.232 237.152 107.104C237.152 107.104 241.309 105.362 242.878 100.638C244.447 95.913 244.148 90.9225 244.148 90.9225C244.148 90.9225 249.905 86.2138 251.474 80.9716C251.474 80.9716 235.772 77.299 231.05 74.1749C226.329 71.0519 223.725 68.9488 223.725 68.9488C223.725 68.9488 216.4 64.7576 209.075 70.5183C201.75 76.2941 197.029 79.4171 197.029 89.368C197.013 89.368 190.22 98.7702 199.899 105.849Z" fill="#170856"/>
<path d="M201.06 140.896C201.06 140.896 191.036 139.673 185.656 141.148C180.261 142.639 178.567 141.634 180.025 145.794C181.484 149.953 188.825 169.023 185.389 181.03C181.971 193.021 177.327 254.422 177.327 254.422C177.327 254.422 214.487 255.882 228.917 256.636C243.348 257.389 254.109 254.673 254.109 254.673C254.109 254.673 257.293 228.258 254.109 216.753C250.924 205.248 246.768 185.676 246.768 185.676C246.768 185.676 244.07 158.774 247.74 152.166C251.411 145.558 254.109 145.307 249.466 143.612C244.823 141.885 239.678 140.426 236.008 140.426C232.337 140.426 230.376 140.426 228.18 142.639C225.969 144.852 221.577 149.247 215.475 148.274C209.357 147.301 204.714 143.141 204.714 143.141C204.714 143.141 202.769 141.132 201.06 140.896Z" fill="#0083F9"/>
<path d="M183.335 142.984C183.335 142.984 179.915 141.257 174.786 145.684C169.265 150.424 165.25 160.61 163.304 166.967C161.344 173.323 160.12 179.68 160.12 179.68C160.12 179.68 167.21 183.353 174.551 183.588C181.892 183.824 186.77 184.326 186.77 184.326C186.77 184.326 189.954 165.24 189.217 156.671C188.465 148.116 187.257 145.166 183.335 142.984Z" fill="#0064B7"/>
<path d="M244.948 150.079C244.948 150.079 247.881 142.012 254.485 145.684C261.088 149.357 265.967 163.31 267.457 167.705C268.947 172.1 270.877 180.92 270.877 180.92C270.877 180.92 263.049 184.342 256.446 184.829C249.842 185.315 245.199 185.802 245.199 185.802C245.199 185.802 242.501 168.426 242.987 161.567C243.473 154.724 244.948 150.079 244.948 150.079Z" fill="#0064B7"/>
<path d="M191.021 259.649H241.168L215.302 267.622L191.021 259.649Z" fill="#BC0A28"/>
<path d="M146.427 245.492C146.427 245.492 237.874 274.121 257.936 281.214C257.936 281.214 264.539 282.941 264.791 286.347C265.042 289.769 264.304 294.665 263.567 297.114C262.83 299.562 260.634 301.509 256.963 300.787C253.293 300.049 171.398 283.663 138.851 275.093L129.549 272.158C129.549 272.158 122.694 268.972 123.918 260.67C125.142 252.35 131.259 245.021 135.65 244.534C140.059 244.016 146.427 245.492 146.427 245.492Z" fill="#EE384E"/>
<path d="M138.098 286.111C138.098 286.111 149.579 284.15 156.434 283.899C163.288 283.647 172.324 282.925 173.798 283.899C175.256 284.872 176.496 298.087 176.496 298.087C176.496 298.087 177.719 301.76 168.668 301.023C159.634 300.284 138.835 299.562 138.835 299.562C138.835 299.562 134.192 299.312 133.956 295.168C133.721 291.025 134.443 289.047 134.443 289.047C134.443 289.047 135.18 286.598 138.098 286.111Z" fill="#170856"/>
<path d="M192.621 274.371C192.621 274.371 248.117 257.483 267.928 251.628C287.723 245.742 298.75 240.375 305.086 249.667C311.455 258.974 310.969 269.238 303.628 272.174C296.287 275.108 238.579 288.575 214.612 293.457C190.644 298.339 175.006 301.524 172.81 300.551C170.614 299.578 168.167 292.484 168.653 288.56C169.139 284.652 169.39 283.192 174.017 281.214C178.676 279.252 192.621 274.371 192.621 274.371Z" fill="#DE051F"/>
<path d="M186.253 193.633H252.995C252.995 193.633 256.666 193.147 256.666 198.028C256.666 202.91 256.666 255.772 256.666 255.772C256.666 255.772 256.916 259.681 253.967 259.681C251.035 259.681 175.476 259.681 175.476 259.681C175.476 259.681 172.293 260.653 172.293 255.286C172.293 249.917 172.293 196.569 172.293 196.569C172.293 196.569 172.041 193.633 175.963 193.633C179.884 193.633 186.253 193.633 186.253 193.633Z" fill="#0064B7"/>
<path d="M214.038 222.425L210.264 227.142L214.978 230.918L218.753 226.201L214.038 222.425Z" fill="#569ED4"/>
<path d="M387.319 173.863L391.744 178.29L396.168 173.863L391.744 169.436L387.319 173.863Z" fill="#0064E1"/>
</svg>
