<svg width="445" height="305" viewBox="0 0 445 305" fill="none" xmlns="http://www.w3.org/2000/svg">
<path d="M221.194 251.669C286.043 251.669 338.613 199.111 338.613 134.278C338.613 69.4448 286.043 16.8865 221.194 16.8865C156.347 16.8865 103.776 69.4448 103.776 134.278C103.776 199.111 156.347 251.669 221.194 251.669Z" stroke="#3864B2" stroke-width="1.5998" stroke-miterlimit="10" stroke-dasharray="9.6 9.6"/>
<path d="M315.254 69.6816C321.43 69.6816 326.436 64.6763 326.436 58.5016C326.436 52.3269 321.43 47.3216 315.254 47.3216C309.078 47.3216 304.071 52.3269 304.071 58.5016C304.071 64.6763 309.078 69.6816 315.254 69.6816Z" fill="#003EB0"/>
<path d="M311.278 56.2661L315.751 62.9734L319.105 57.3834" stroke="white" stroke-width="3.19959" stroke-miterlimit="10"/>
<path d="M105.143 117.632C111.319 117.632 116.326 112.627 116.326 106.452C116.326 100.277 111.319 95.2719 105.143 95.2719C98.9671 95.2719 93.9604 100.277 93.9604 106.452C93.9604 112.627 98.9671 117.632 105.143 117.632Z" fill="#FCBE42"/>
<path d="M102.286 101.98L109.617 106.949L102.286 110.924V101.98Z" fill="white"/>
<path d="M261.08 43.5949H181.186C172.363 43.5949 165.282 36.3899 165.282 27.6942V19.6197C165.282 10.7998 172.488 3.71906 181.186 3.71906H277.108V27.8184C277.108 36.5141 269.901 43.5949 261.08 43.5949Z" fill="#B0E6FF"/>
<path d="M186.404 37.1352C193.884 37.1352 199.948 31.073 199.948 23.5948C199.948 16.1167 193.884 10.0544 186.404 10.0544C178.924 10.0544 172.86 16.1167 172.86 23.5948C172.86 31.073 178.924 37.1352 186.404 37.1352Z" fill="#0064B7"/>
<mask id="mask0_3375_6173" style="mask-type:alpha" maskUnits="userSpaceOnUse" x="172" y="10" width="28" height="28">
<path d="M186.404 37.1352C193.884 37.1352 199.948 31.073 199.948 23.5948C199.948 16.1167 193.884 10.0544 186.404 10.0544C178.924 10.0544 172.86 16.1167 172.86 23.5948C172.86 31.073 178.924 37.1352 186.404 37.1352Z" fill="#0064B7"/>
</mask>
<g mask="url(#mask0_3375_6173)">
<path d="M185.161 26.7005C185.161 26.7005 185.161 28.4396 184.416 29.185C183.671 29.9303 182.677 31.1725 182.677 31.1725C182.677 31.1725 184.416 33.9055 187.895 33.5328C191.374 33.1601 191.995 30.6756 191.995 30.6756C191.995 30.6756 188.641 30.303 188.268 27.0732C187.895 23.9675 187.398 23.9675 187.398 23.9675L185.161 26.7005Z" fill="#FFB07E"/>
<path d="M183.05 29.9303C183.05 29.9303 180.689 29.6819 179.322 30.0545C178.079 30.4272 177.583 30.1787 177.955 31.1725C178.328 32.1663 180.067 36.7626 179.197 39.6197C178.328 42.4769 177.21 57.1349 177.21 57.1349C177.21 57.1349 186.031 57.5077 189.511 57.6319C192.99 57.7561 195.475 57.1349 195.475 57.1349C195.475 57.1349 196.22 50.7995 195.475 48.067C194.729 45.334 193.735 40.6136 193.735 40.6136C193.735 40.6136 193.114 34.1539 193.984 32.6632C194.854 31.1725 195.475 31.0483 194.357 30.5514C193.238 30.1787 191.996 29.806 191.126 29.806C190.256 29.806 189.759 29.806 189.262 30.303C188.765 30.7999 187.647 31.9179 186.28 31.6694C184.789 31.421 183.671 30.4271 183.671 30.4271C183.671 30.4271 183.423 29.9303 183.05 29.9303Z" fill="#F7A600"/>
<path d="M178.7 30.4272C178.7 30.4272 177.831 30.0546 176.713 31.0484C175.346 32.1664 174.476 34.6508 173.979 36.1415C173.482 37.6322 173.233 39.1229 173.233 39.1229C173.233 39.1229 174.973 39.9924 176.713 40.1167C178.452 40.2409 179.695 40.2409 179.695 40.2409C179.695 40.2409 180.44 35.6446 180.316 33.6571C179.943 31.6695 179.695 30.9241 178.7 30.4272Z" fill="#070707"/>
<path d="M193.487 32.1663C193.487 32.1663 194.232 30.1787 195.723 31.1725C197.214 32.1663 198.457 35.3961 198.829 36.3899C199.202 37.3837 199.699 39.4956 199.699 39.4956C199.699 39.4956 197.835 40.3651 196.22 40.4893C194.605 40.6136 193.487 40.7378 193.487 40.7378C193.487 40.7378 192.865 36.6383 192.99 34.8992C193.114 33.2843 193.487 32.1663 193.487 32.1663Z" fill="#070707"/>
<path d="M191.871 23.3464C191.995 23.7191 191.374 24.7129 191.125 25.0856C191.25 24.4644 191.374 23.7191 191.374 22.8495C191.374 22.8495 191.747 22.9738 191.871 23.3464Z" fill="#FFBF99"/>
<path d="M191.499 18.6259C191.374 15.2719 186.902 15.2719 186.902 15.2719C186.902 15.2719 182.429 15.2719 182.304 18.6259C182.18 20.1167 182.304 21.6073 182.429 22.7253C182.553 23.7191 182.677 24.4645 182.677 24.9614C182.801 25.334 182.801 25.5825 182.926 25.8309C183.05 26.0794 183.174 26.452 183.423 26.7005C183.919 27.3216 184.54 28.067 185.162 28.3154C185.535 28.5639 186.529 28.6881 186.902 28.6881C187.399 28.6881 188.268 28.5639 188.641 28.3154C189.138 28.067 189.76 27.3216 190.38 26.7005C190.629 26.3278 190.877 26.0794 190.877 25.8309C191.002 25.7067 191.002 25.4583 191.126 24.9614C191.25 24.3403 191.374 23.5949 191.374 22.7253C191.499 21.6073 191.623 20.1167 191.499 18.6259Z" fill="#FFBF99"/>
<path d="M182.428 22.8495C182.553 23.8433 182.677 24.5887 182.677 25.0856C182.428 24.7129 181.807 23.7191 181.931 23.3464C182.056 22.9738 182.428 22.8495 182.428 22.8495Z" fill="#FFBF99"/>
<path d="M192.244 18.6259C192.12 17.7564 191.747 16.6383 191.25 15.8931C191.001 15.6446 190.007 14.4023 190.753 14.1539C190.38 13.7812 189.884 14.2781 189.759 14.6508C189.759 14.775 189.511 15.1477 189.511 15.1477C189.387 14.2781 189.511 13.657 188.641 13.1601C187.274 12.2905 185.783 14.2781 184.416 14.2781C183.795 14.2781 182.553 14.5266 182.428 13.657L182.18 14.0297C182.056 14.1539 182.056 14.4023 182.056 14.5266C182.056 14.775 182.304 15.3961 182.677 15.3961C182.18 15.3961 181.931 15.3961 181.683 14.8992C181.559 15.1477 181.807 15.2719 181.931 15.5203C181.683 15.5203 181.186 15.1477 181.186 14.8992C180.937 15.1477 181.062 15.6446 181.31 15.8931C181.434 16.0172 182.056 16.6383 182.056 16.5141C181.931 17.3837 181.559 18.2533 181.31 19.1228C181.186 19.6197 181.061 20.1167 181.186 20.6135C181.31 21.1104 181.434 21.7315 181.559 22.3527C181.807 23.2223 182.18 23.5949 182.18 23.8433C182.18 23.5949 182.428 23.2223 182.428 22.9738C182.677 21.98 182.428 20.9862 182.677 20.1167C183.05 18.7502 184.167 18.5017 185.41 18.7502C186.156 18.8744 187.15 18.7502 187.771 18.3775C188.144 18.1291 188.517 17.8806 188.765 17.6322C188.89 17.5079 189.014 17.2595 189.138 17.1352C189.262 17.5079 189.138 17.8806 189.387 18.1291C190.504 19.4955 190.629 21.1104 190.877 22.8495C190.877 22.9738 191.126 23.8433 191.126 23.8433C191.623 23.2222 191.623 22.2284 191.871 21.4831C192.368 20.4893 192.368 19.4955 192.244 18.6259Z" fill="#52331D"/>
<path d="M191.374 26.0794C191.25 25.4583 191.25 24.4645 191.25 23.8434C191.125 24.3403 190.753 24.9614 190.38 25.2098C190.131 25.4583 189.635 25.7067 189.262 25.5825C189.138 25.4583 189.014 25.334 188.765 25.2098C188.392 24.9614 187.895 24.7129 187.398 24.7129C187.15 24.7129 186.777 24.9614 186.777 25.0856H186.653C186.653 24.8371 186.155 24.7129 186.031 24.7129C185.534 24.5887 185.161 24.9614 184.664 25.2098C184.54 25.334 184.416 25.4583 184.167 25.5825C183.795 25.7067 183.298 25.4583 183.05 25.2098C182.677 24.9614 182.18 24.3403 182.18 23.8434C182.18 24.4645 182.18 25.4583 182.055 26.0794C181.931 26.0794 181.807 25.9551 181.683 25.9551C181.683 26.2036 181.807 26.3279 182.055 26.3279C182.18 27.1974 183.919 29.5576 184.043 29.6819C184.167 29.9303 185.161 30.5515 185.534 30.7999C185.907 31.0484 186.28 31.0484 186.653 31.0484C187.025 31.0484 187.398 31.0484 187.771 30.7999C188.144 30.5515 189.138 29.9303 189.262 29.6819C189.262 29.5576 191.125 27.1974 191.25 26.3279C191.498 26.2036 191.623 26.0794 191.623 25.9551C191.623 25.9551 191.498 26.0794 191.374 26.0794ZM189.635 26.5763C189.386 26.5763 189.262 26.452 189.014 26.3279C188.641 26.452 188.144 26.7005 187.771 26.5763C187.522 26.3278 187.274 26.5763 186.901 26.5763C187.274 26.7005 187.274 26.7005 186.901 26.5763H186.777C186.404 26.7005 186.404 26.7005 186.777 26.5763C186.404 26.5763 186.155 26.3278 185.907 26.5763C185.534 26.7005 185.037 26.5763 184.664 26.3279C184.416 26.452 184.291 26.5763 184.043 26.5763C184.291 26.5763 184.54 26.452 184.664 26.3279C184.789 26.2036 185.037 26.0794 185.161 26.0794C185.534 25.9551 185.907 25.7067 186.28 25.7067C186.528 25.7067 186.653 25.7067 186.777 25.7067H186.901C187.025 25.8309 187.274 25.7067 187.398 25.7067C187.771 25.7067 188.144 25.9551 188.517 26.0794C188.641 26.2036 188.889 26.3279 189.014 26.3279C189.262 26.3279 189.386 26.452 189.635 26.5763Z" fill="#52331D"/>
<path d="M191.374 26.0794C191.001 26.2036 190.753 26.0794 190.38 25.9551C190.007 25.8309 189.635 25.7067 189.386 25.5825C189.262 25.5825 189.262 25.4583 189.262 25.4583C189.138 25.334 189.014 25.2098 188.765 25.0856C188.392 24.8371 187.895 24.5887 187.398 24.5887C187.15 24.5887 186.777 24.8371 186.777 24.9614H186.653C186.653 24.7129 186.155 24.5887 186.031 24.5887C185.534 24.4645 185.161 24.8371 184.664 25.0856C184.54 25.2098 184.416 25.334 184.167 25.4583C184.043 25.4583 184.043 25.5825 184.043 25.5825C183.795 25.8309 183.422 25.8309 183.05 25.9551C182.677 26.0794 182.428 26.0794 182.055 26.0794C181.931 26.0794 181.807 25.9551 181.683 25.9551C181.683 26.2036 181.807 26.3279 182.055 26.3279C182.18 26.452 182.428 26.452 182.552 26.452C182.925 26.5763 183.422 26.5763 183.919 26.5763C184.167 26.5763 184.416 26.452 184.54 26.3279C184.664 26.2036 184.913 26.0794 185.037 26.0794C185.41 25.9551 185.783 25.7067 186.155 25.7067C186.404 25.7067 186.528 25.7067 186.653 25.7067H186.777C186.901 25.8309 187.15 25.7067 187.274 25.7067C187.647 25.7067 188.02 25.9551 188.392 26.0794C188.517 26.2036 188.765 26.3279 188.889 26.3279C189.138 26.452 189.386 26.5763 189.511 26.5763C190.007 26.7005 190.38 26.5763 190.877 26.452C191.001 26.452 191.125 26.3279 191.374 26.3279C191.623 26.2036 191.747 26.0794 191.747 25.9551C191.623 25.9551 191.498 25.9551 191.374 26.0794Z" fill="#6B4732"/>
</g>
<path d="M264.931 17.3836H209.515C207.776 17.3836 206.285 15.8929 206.285 14.1538V13.4084C206.285 11.6693 207.776 10.1786 209.515 10.1786H264.931C266.671 10.1786 268.162 11.6693 268.162 13.4084V14.1538C268.162 16.0172 266.795 17.3836 264.931 17.3836Z" stroke="#0064B7" stroke-width="1.5998" stroke-miterlimit="10"/>
<path d="M264.931 27.1972H209.515C207.776 27.1972 206.285 25.7066 206.285 23.9674V23.2221C206.285 21.483 207.776 19.9923 209.515 19.9923H264.931C266.671 19.9923 268.162 21.483 268.162 23.2221V23.9674C268.162 25.8308 266.795 27.1972 264.931 27.1972Z" stroke="#0064B7" stroke-width="1.5998" stroke-miterlimit="10"/>
<path d="M264.931 37.0109H209.515C207.776 37.0109 206.285 35.5203 206.285 33.7811V33.0358C206.285 31.2966 207.776 29.806 209.515 29.806H264.931C266.671 29.806 268.162 31.2966 268.162 33.0358V33.7811C268.162 35.5203 266.795 37.0109 264.931 37.0109Z" stroke="#0064B7" stroke-width="1.5998" stroke-miterlimit="10"/>
<path d="M107.625 208.661C107.625 208.661 124.362 199.486 126.418 209.944C128.474 220.401 132.802 220.699 137.428 220.516C141.97 220.682 150.25 217.008 151.691 228.199C153.357 239.37 149.727 245.69 154.167 249.824C158.384 253.979 170.435 276.344 160.556 278.575C150.678 280.805 140.606 270.602 137.424 265.337C134.212 259.736 126.068 258.53 119.44 259.115C112.813 259.701 104.943 255.189 108.556 247.4C112.263 239.376 109.1 230.487 103.543 227.809C97.9857 225.131 96.2967 214.98 107.625 208.661Z" fill="#023EA1"/>
<path d="M116.382 218.073L164.131 285.729" stroke="white" stroke-width="1.45195" stroke-miterlimit="10" stroke-linecap="round" stroke-linejoin="round"/>
<path d="M142.199 227.113L135.791 245.561L116.972 246.544" stroke="white" stroke-width="1.45195" stroke-miterlimit="10" stroke-linecap="round" stroke-linejoin="round"/>
<path d="M148.051 281.829C148.051 281.829 113.785 263.01 96.7778 242.215" stroke="#FCBE42" stroke-width="1.45195" stroke-miterlimit="10"/>
<path d="M88.3223 227.229C88.3223 227.229 99.4601 231.565 98.7441 243.965C98.6416 244.088 88.3762 241.938 88.3223 227.229Z" stroke="#FCBE42" stroke-width="1.45195" stroke-miterlimit="10"/>
<path d="M115.05 259.39C115.05 259.39 107.751 251.092 114.784 239.72C114.682 239.842 123.418 245.183 115.05 259.39Z" stroke="#FCBE42" stroke-width="1.45195" stroke-miterlimit="10"/>
<path d="M136.308 274.491C136.308 274.491 127.556 267.68 132.121 255.279C132.131 255.392 141.597 258.744 136.308 274.491Z" stroke="#FCBE42" stroke-width="1.45195" stroke-miterlimit="10"/>
<path d="M136.123 274.96C136.123 274.96 126.981 268.863 116.637 277.359C116.637 277.359 123.212 285.154 136.123 274.96Z" stroke="#FCBE42" stroke-width="1.45195" stroke-miterlimit="10"/>
<path d="M115.04 259.277C115.04 259.277 106.697 251.978 95.4478 259.197C95.4478 259.197 100.745 267.897 115.04 259.277Z" stroke="#FCBE42" stroke-width="1.45195" stroke-miterlimit="10"/>
<path d="M366.582 253.641C366.582 253.641 370.19 271.793 359.928 270.553C349.779 269.426 348.088 273.484 346.847 277.656C345.494 281.827 346.283 290.622 335.457 288.704C324.631 286.788 319.895 281.827 314.82 284.646C309.633 287.464 285.613 291.974 286.29 282.278C287.079 272.469 299.483 266.043 305.348 264.803C311.212 263.45 314.933 256.234 316.399 250.033C317.752 243.833 324.067 237.632 330.495 243.382C336.923 249.018 346.057 248.681 350.23 244.396C354.177 240.112 363.875 241.239 366.582 253.641Z" fill="#023EA1"/>
<path d="M354.403 257.023L277.832 281.714" stroke="white" stroke-width="1.40781" stroke-miterlimit="10" stroke-linecap="round" stroke-linejoin="round"/>
<path d="M338.502 278.332L323.165 267.058L327.563 249.357" stroke="white" stroke-width="1.40781" stroke-miterlimit="10" stroke-linecap="round" stroke-linejoin="round"/>
<path d="M321.812 212.716C321.812 212.716 329.367 207.755 325.871 201.216C322.263 194.789 311.212 194.226 308.054 199.75C304.896 205.274 307.602 209.671 302.641 210.235C297.679 210.798 284.259 214.632 285.838 221.397C287.417 228.161 294.973 228.951 290.575 237.181C286.29 245.523 270.164 246.2 277.043 258.377C283.808 270.778 300.837 288.141 312.903 268.298C325.082 248.568 303.543 251.161 316.85 238.872C329.818 226.583 320.459 225.456 318.428 220.157C316.06 214.97 321.812 212.716 321.812 212.716Z" fill="#EE384E"/>
<path d="M308.054 219.48C308.054 219.48 303.882 243.043 293.056 262.097C282.456 281.263 277.381 283.744 277.381 283.744" stroke="white" stroke-width="1.40781" stroke-miterlimit="10" stroke-linecap="round" stroke-linejoin="round"/>
<path d="M293.002 269.956C293.002 269.956 321.086 244.679 345.736 235.699" stroke="#FCBE42" stroke-width="1.40781" stroke-miterlimit="10"/>
<path d="M361.687 232.637C361.687 232.637 354.09 241.547 342.94 236.643C342.995 236.792 348.276 228.055 361.687 232.637Z" stroke="#FCBE42" stroke-width="1.40781" stroke-miterlimit="10"/>
<path d="M323.724 246.767C323.724 246.767 333.587 242.63 341.821 252.769C341.821 252.769 334.193 259.056 323.724 246.767Z" stroke="#FCBE42" stroke-width="1.40781" stroke-miterlimit="10"/>
<path d="M303.081 261.324C303.081 261.324 312.134 255.446 322.069 263.515C321.974 263.719 315.701 271.378 303.081 261.324Z" stroke="#FCBE42" stroke-width="1.40781" stroke-miterlimit="10"/>
<path d="M302.773 261.181C302.773 261.181 311.252 254.666 306.895 242.592C306.792 242.545 297.615 246.005 302.773 261.181Z" stroke="#FCBE42" stroke-width="1.40781" stroke-miterlimit="10"/>
<path d="M323.827 246.814C323.827 246.814 333.249 241.48 330.24 228.911C330.192 229.013 320.669 231.071 323.827 246.814Z" stroke="#FCBE42" stroke-width="1.40781" stroke-miterlimit="10"/>
<path d="M295.049 81.3687H145.815C143.242 81.3687 141.155 83.4543 141.155 86.0276V289.683C141.155 292.256 143.242 294.342 145.815 294.342H295.049C297.623 294.342 299.709 292.256 299.709 289.683V86.0276C299.709 83.4543 297.623 81.3687 295.049 81.3687Z" fill="#3864B2"/>
<path d="M292.266 88.2461H150.515V284.646H292.266V88.2461Z" fill="white"/>
<path d="M192.353 81.3687V88.5846C192.353 92.6434 195.622 95.7999 199.569 95.7999H238.249C242.309 95.7999 245.467 92.53 245.467 88.5846V81.3687H192.353Z" fill="#25409C"/>
<path d="M193.029 175.961H167.431V150.368H193.029V175.961ZM168.671 174.833H191.901V151.608H168.671V174.833Z" fill="#DDE7F6"/>
<path d="M180.85 170.775C180.286 170.775 179.835 170.549 179.384 170.098L171.377 160.515C170.701 159.726 170.814 158.711 171.603 158.035C172.392 157.358 173.407 157.471 174.084 158.26L180.286 165.927L191.676 146.873C192.24 145.971 193.254 145.858 194.157 146.196C195.059 146.76 195.172 147.775 194.833 148.677L182.09 170.098C181.978 170.436 181.639 170.775 180.85 170.775Z" fill="#155BCC"/>
<path d="M193.029 216.097H167.431V190.505H193.029V216.097ZM168.671 214.857H191.901V191.632H168.671V214.857Z" fill="#DDE7F6"/>
<path d="M180.85 210.686C180.286 210.686 179.835 210.461 179.384 210.009L171.377 200.426C170.701 199.637 170.814 198.622 171.603 197.946C172.392 197.269 173.407 197.382 174.084 198.171L180.286 205.838L191.676 186.784C192.24 185.882 193.254 185.77 194.157 186.108C195.059 186.671 195.172 187.686 194.833 188.588L182.09 209.897C181.978 210.348 181.639 210.686 180.85 210.686Z" fill="#155BCC"/>
<path d="M193.029 255.219H167.431V229.627H193.029V255.219ZM168.671 254.092H191.901V230.867H168.671V254.092Z" fill="#DDE7F6"/>
<path d="M243.663 156.343H210.283V158.824H243.663V156.343Z" fill="#DDE7F6"/>
<path d="M272.193 156.343H264.525V158.824H272.193V156.343Z" fill="#DDE7F6"/>
<path d="M243.663 167.617H210.283V170.098H243.663V167.617Z" fill="#DDE7F6"/>
<path d="M272.08 167.617H260.69V170.098H272.08V167.617Z" fill="#DDE7F6"/>
<path d="M272.08 162.093H262.721V164.574H272.08V162.093Z" fill="#DDE7F6"/>
<path d="M244.339 162.093H234.979V164.574H244.339V162.093Z" fill="#DDE7F6"/>
<path d="M230.806 162.093H210.283V164.574H230.806V162.093Z" fill="#DDE7F6"/>
<path d="M242.535 194.902H210.283V197.382H242.535V194.902Z" fill="#DDE7F6"/>
<path d="M243.663 205.951H210.283V208.431H243.663V205.951Z" fill="#DDE7F6"/>
<path d="M241.859 200.313H233.288V202.793H241.859V200.313Z" fill="#DDE7F6"/>
<path d="M230.806 200.313H210.283V202.793H230.806V200.313Z" fill="#DDE7F6"/>
<path d="M243.663 234.475H210.283V236.955H243.663V234.475Z" fill="#DDE7F6"/>
<path d="M243.663 245.523H210.283V248.004H243.663V245.523Z" fill="#DDE7F6"/>
<path d="M247.723 239.999H233.288V242.48H247.723V239.999Z" fill="#DDE7F6"/>
<path d="M230.806 239.999H210.283V242.48H230.806V239.999Z" fill="#DDE7F6"/>
<path d="M184.91 268.974H167.431V270.666H184.91V268.974Z" fill="#DDE7F6"/>
<path d="M206.336 268.974H188.857V270.666H206.336V268.974Z" fill="#DDE7F6"/>
<path d="M191.789 272.921H167.431V274.612H191.789V272.921Z" fill="#DDE7F6"/>
<path d="M264.413 116.883H178.595V124.662H264.413V116.883Z" fill="#DDE7F6"/>
<path d="M259.451 299.419C258.323 300.433 255.616 301.56 252.12 302.35C251.219 302.462 251.556 304.492 253.474 304.492C255.278 304.492 259.676 304.379 260.917 304.379C263.172 304.379 264.525 304.492 266.33 304.492H266.442C266.893 304.379 267.006 304.041 267.006 303.702L266.104 299.419C266.104 299.193 265.991 299.08 265.766 299.08H260.24C259.902 299.08 259.676 299.193 259.451 299.419Z" fill="#170856"/>
<path d="M235.769 299.419C234.641 300.433 231.934 301.56 228.439 302.35C227.537 302.462 227.875 304.492 229.792 304.492C231.597 304.492 235.994 304.379 237.235 304.379C239.49 304.379 240.844 304.492 242.648 304.492H242.761C243.212 304.379 243.324 304.041 243.324 303.702L242.423 299.419C242.423 299.193 242.309 299.08 242.084 299.08H236.558C236.333 299.08 235.994 299.193 235.769 299.419Z" fill="#170856"/>
<path d="M263.961 260.747C264.75 271.571 266.555 299.306 266.555 299.306L258.548 299.08C258.548 299.08 253.924 270.444 251.895 259.507C250.992 254.997 249.978 246.654 249.301 238.762C242.309 253.531 243.55 299.644 243.55 299.644L235.656 298.967C230.694 268.977 237.009 230.306 239.265 220.836H263.059C263.059 223.316 263.172 249.022 263.961 260.747Z" fill="#EE384E"/>
<path opacity="0.2" d="M248.624 232.336C248.624 232.336 246.031 239.664 246.707 246.767C247.496 243.723 248.286 241.017 249.301 238.762L248.624 232.336Z" fill="black"/>
<path d="M227.649 207.758C227.649 207.758 230.807 209.674 232.949 207.645C235.092 205.728 239.716 200.768 239.716 200.768L239.941 199.189L235.769 195.581L231.033 202.12C231.033 202.12 230.469 202.684 229.679 202.346C229.116 202.233 225.958 201.105 223.364 200.091C221.334 199.302 213.779 195.469 213.779 195.469C213.779 195.469 209.38 192.086 208.591 192.086C207.802 192.199 206.111 192.763 205.772 193.439C205.433 194.115 209.38 197.385 210.283 197.836C211.185 198.4 212.876 198.062 212.876 198.062L217.726 201.557L227.649 207.758Z" fill="#EEBD98"/>
<path d="M244.001 188.028C244.001 188.028 241.069 189.719 239.941 190.62C238.701 191.523 235.317 195.581 235.317 195.581L240.054 200.204L243.324 196.37L244.001 188.028Z" fill="#0064B7"/>
<path d="M254.038 177.768C254.038 177.768 256.518 173.934 253.023 172.018C253.023 172.018 253.474 165.479 247.835 167.17C247.384 167.283 246.933 167.17 246.595 166.944C245.467 166.043 243.324 162.097 240.054 166.493C239.828 166.832 239.377 166.944 239.039 166.832C237.573 166.606 233.852 166.268 235.769 171.454C235.769 171.454 236.784 173.37 239.039 174.048C239.039 174.048 247.835 183.856 251.218 183.179C254.602 182.841 255.278 179.572 254.038 177.768Z" fill="#2C2477"/>
<path d="M254.376 185.998L250.993 183.405C250.88 183.405 248.287 183.067 247.723 181.826C247.723 181.826 246.82 180.36 246.82 178.557C246.82 177.993 246.933 177.429 247.384 177.204C247.948 176.753 248.624 175.738 247.723 174.836C247.723 174.836 247.046 174.048 246.031 174.836L245.919 174.949C245.805 175.062 245.693 174.949 245.693 174.949L244.565 173.37C244.452 173.258 239.265 170.214 238.927 175.4C238.927 175.513 237.686 180.023 240.618 183.405C240.731 183.405 240.731 183.518 240.731 183.63C240.956 183.969 241.633 185.096 243.55 183.969C245.355 183.067 245.58 183.969 245.693 184.419C245.805 184.533 245.693 184.645 245.805 184.758C245.919 185.209 246.369 186.336 245.805 186.9C245.129 187.464 244.565 189.831 244.227 189.944L244.001 190.62C244.791 190.733 254.602 188.929 254.827 187.013" fill="#FFBF9C"/>
<path d="M253.812 186.11C253.812 186.11 252.233 188.591 249.752 189.042C247.384 189.719 246.256 187.802 246.256 187.802L245.692 187.013C245.692 187.013 244.903 186.449 244.339 187.125C243.437 187.802 242.196 189.38 241.069 191.748C239.828 194.003 239.49 197.498 239.152 204.939C238.927 212.605 239.152 220.836 239.152 220.836H262.946L263.172 208.998C263.172 208.998 262.382 193.214 259.902 189.944C257.195 186.674 254.827 186.11 254.827 186.11C254.827 186.11 254.263 185.434 253.812 186.11Z" fill="#0083F9"/>
<path d="M264.525 198.287C264.525 198.287 266.781 206.63 266.217 211.704C265.653 217.003 264.186 221.287 262.946 224.556C261.593 227.488 261.029 228.503 261.029 230.419C261.029 232.336 260.127 234.704 258.886 235.831C257.646 237.071 256.744 237.748 256.744 237.748C256.744 237.748 255.278 238.311 255.503 237.184C255.503 237.184 254.602 237.184 254.939 236.62C254.939 236.62 253.812 236.62 254.602 235.718C255.503 234.59 257.082 233.801 257.082 233.801C257.082 233.801 258.097 232.449 256.744 233.238C255.391 233.914 254.15 233.914 255.391 232.674C256.631 231.434 257.985 229.404 259.225 225.459C260.239 221.625 261.593 213.845 260.014 207.983C258.661 202.233 256.744 200.316 256.744 200.316L264.525 198.287Z" fill="#EEBD98"/>
<path d="M255.052 192.988C255.052 192.988 254.827 189.155 257.533 188.817C260.353 188.479 262.157 192.086 263.059 194.454C263.961 196.709 264.525 198.625 264.525 198.625C264.525 198.625 258.661 201.105 257.082 201.105C256.97 201.105 255.616 196.934 255.052 192.988Z" fill="#0064B7"/>
<path d="M220.184 188.781L195.156 197.492L196.899 202.497L221.927 193.785L220.184 188.781Z" fill="#155BCC"/>
<path d="M190.097 202.008L196.864 202.571L195.172 197.498L190.097 202.008Z" fill="#F9DDBF"/>
<path d="M223.251 189.38L223.928 190.959C224.154 191.86 223.815 192.988 222.913 193.326L221.898 193.89L220.207 188.817L221.447 188.253C221.898 188.14 222.913 188.479 223.251 189.38Z" fill="#F9DDBF"/>
</svg>
