<svg width="450" height="450" viewBox="0 0 450 450" fill="none" xmlns="http://www.w3.org/2000/svg">
<g clip-path="url(#clip0_3809_3679)">
<path d="M123.973 272.3C147.863 248.409 147.819 209.63 123.873 185.685C99.9276 161.739 61.1489 161.695 37.2585 185.585C13.368 209.476 13.4126 248.254 37.3581 272.2C61.3036 296.145 100.082 296.19 123.973 272.3Z" stroke="#DD1F26" stroke-width="1.30094" stroke-miterlimit="10" stroke-dasharray="7.81 7.81"/>
<path d="M25.8345 242.726C28.8411 239.719 28.8355 234.839 25.822 231.825C22.8084 228.812 17.9281 228.806 14.9215 231.813C11.9149 234.819 11.9205 239.7 14.9341 242.713C17.9476 245.727 22.8279 245.733 25.8345 242.726Z" fill="#24499F"/>
<path d="M20.2106 241.362L23.0028 235.62L17.4059 236.203L20.2106 241.362Z" fill="white"/>
<path d="M116.379 57.0997C116.379 57.0997 108.834 63.3652 115.948 66.1739C123.276 68.9826 126.079 72.4394 122.414 79.3531C118.319 86.2668 119.612 91.6681 123.276 94.2607C127.372 96.8534 134.916 100.742 128.881 109.6C122.845 118.675 112.93 136.823 102.367 131.854C91.5897 126.885 86.4163 109.168 90.7275 102.255C95.0386 95.341 102.152 93.3965 98.4875 85.4026C95.2541 77.4086 87.7097 81.2976 87.4941 72.0073C87.2786 62.501 85.9852 52.7786 99.1342 49.7539C110.343 46.9452 119.396 52.5626 116.379 57.0997Z" stroke="#1C4599" stroke-width="1.30094" stroke-miterlimit="10"/>
<path d="M106.034 63.1504C106.034 63.1504 107.328 122.997 110.776 137.905" stroke="#1C4599" stroke-width="1.30094" stroke-miterlimit="10"/>
<path d="M119.398 100.96L107.973 111.763L96.5488 105.497" stroke="#1C4599" stroke-width="1.30094" stroke-miterlimit="10"/>
<path d="M116.165 73.0879L106.896 79.7855L96.334 75.6805" stroke="#1C4599" stroke-width="1.30094" stroke-miterlimit="10"/>
<path d="M141.598 57.7483C141.598 57.7483 159.705 63.3657 154.747 71.5757C149.358 79.5696 152.376 83.0265 156.04 86.0512C159.274 89.076 167.68 92.5328 161.429 100.743C155.178 108.953 148.927 110.681 149.358 116.299C149.789 121.916 143.969 144.601 135.563 139.416C126.94 134.447 126.294 120.836 127.587 114.786C128.88 109.169 123.491 102.687 118.534 98.3662C113.576 94.2612 110.774 86.0512 118.318 83.4586C126.078 80.6499 129.743 72.656 127.371 67.0386C123.922 61.8533 129.311 54.2915 141.598 57.7483Z" fill="#FABD41"/>
<path d="M139.875 70.0625L130.821 146.761" stroke="white" stroke-width="1.30094" stroke-miterlimit="10" stroke-linecap="round" stroke-linejoin="round"/>
<path d="M152.591 93.6123L135.993 101.174L121.767 89.0752" stroke="white" stroke-width="1.30094" stroke-miterlimit="10" stroke-linecap="round" stroke-linejoin="round"/>
<path d="M56.6701 68.3338C56.6701 68.3338 49.3412 62.9325 54.0835 56.6669C58.6101 50.4014 70.2502 50.4014 72.6213 56.4509C75.2079 62.0683 71.759 66.3893 76.9324 67.2535C81.8902 68.1177 95.4702 72.6548 92.8835 79.1364C90.0813 85.618 82.1057 86.0501 85.5546 94.6922C88.788 103.334 105.601 104.847 96.9791 116.946C88.3569 128.829 68.3101 145.249 57.9635 124.724C48.0479 104.199 70.0346 108.304 58.179 95.1243C46.3235 81.9451 56.239 81.513 59.4724 76.5438C62.4901 70.9264 56.6701 68.3338 56.6701 68.3338Z" fill="#ED3B4E"/>
<path d="M70.25 75.8955C70.25 75.8955 71.5433 99.6613 79.7345 119.322C87.9256 138.983 93.0989 141.575 93.0989 141.575" stroke="white" stroke-width="1.30094" stroke-miterlimit="10" stroke-linecap="round" stroke-linejoin="round"/>
<path d="M442.053 111.54H59.4638C58.6173 111.54 57.959 112.198 57.959 113.045V342.806C57.959 343.652 58.6173 344.31 59.4638 344.31H442.053C442.9 344.31 443.558 343.652 443.558 342.806V113.045C443.558 112.198 442.9 111.54 442.053 111.54Z" fill="#0064B7"/>
<path d="M435.754 119.628H65.6729V333.306H435.754V119.628Z" fill="white"/>
<path opacity="0.53" d="M435.754 119.628H65.6729V129.785H435.754V119.628Z" fill="#ECF3F9"/>
<rect x="307.938" y="146.946" width="102.971" height="5.02299" rx="2.51149" fill="#ECF3F9"/>
<rect x="92.834" y="152.376" width="102.971" height="5.02299" rx="2.51149" fill="#ECF3F9"/>
<rect x="92.834" y="169.416" width="102.971" height="5.02299" rx="2.51149" fill="#ECF3F9"/>
<rect x="92.834" y="188.729" width="102.971" height="5.02299" rx="2.51149" fill="#ECF3F9"/>
<rect x="343.1" y="159.504" width="67.8103" height="5.02299" rx="2.51149" fill="#ECF3F9"/>
<rect x="374.492" y="172.061" width="36.4166" height="5.02299" rx="2.51149" fill="#ECF3F9"/>
<path opacity="0.53" d="M404.419 187.13H393.039C389.653 187.13 386.926 189.857 386.926 193.243V204.623C386.926 208.009 389.653 210.736 393.039 210.736H404.419C407.805 210.736 410.532 208.009 410.532 204.623V193.243C410.532 189.857 407.805 187.13 404.419 187.13Z" fill="#DCE8F4"/>
<path opacity="0.53" d="M370.64 187.13H359.26C355.874 187.13 353.146 189.857 353.146 193.243V204.623C353.146 208.009 355.874 210.736 359.26 210.736H370.64C374.025 210.736 376.753 208.009 376.753 204.623V193.243C376.753 189.857 374.025 187.13 370.64 187.13Z" fill="#DCE8F4"/>
<rect x="325.52" y="234.85" width="85.3908" height="5.02299" rx="2.51149" fill="#ECF3F9"/>
<rect x="343.1" y="247.407" width="67.8103" height="5.02299" rx="2.51149" fill="#ECF3F9"/>
<rect x="374.492" y="259.964" width="36.4166" height="5.02299" rx="2.51149" fill="#ECF3F9"/>
<path opacity="0.53" d="M404.419 275.033H393.039C389.653 275.033 386.926 277.761 386.926 281.146V292.526C386.926 295.912 389.653 298.639 393.039 298.639H404.419C407.805 298.639 410.532 295.912 410.532 292.526V281.146C410.532 277.761 407.805 275.033 404.419 275.033Z" fill="#DCE8F4"/>
<path opacity="0.53" d="M370.64 275.033H359.26C355.874 275.033 353.146 277.761 353.146 281.146V292.526C353.146 295.912 355.874 298.639 359.26 298.639H370.64C374.025 298.639 376.753 295.912 376.753 292.526V281.146C376.753 277.761 374.025 275.033 370.64 275.033Z" fill="#DCE8F4"/>
<path d="M285.368 344.404H216.148V378.732H285.368V344.404Z" fill="#005092"/>
<path d="M315.181 378.732H186.24C179.845 378.732 174.578 383.905 174.578 390.394H326.843C326.843 383.905 321.67 378.732 315.181 378.732Z" fill="#0064B7"/>
<path d="M281.929 170.897C227.005 169.769 198.884 145.692 198.884 145.692C198.884 145.692 170.764 169.769 115.839 170.897C115.557 198.548 117.062 227.327 124.022 254.13C134.743 295.606 164.274 311.688 198.884 323.632C233.494 311.688 263.025 295.606 273.747 254.13C280.707 227.327 282.117 198.548 281.929 170.897Z" fill="white"/>
<path d="M277.134 174.565C225.407 173.53 198.885 150.771 198.885 150.771C198.885 150.771 172.364 173.53 120.637 174.565C120.449 200.616 121.766 227.796 128.349 253.001C138.506 292.126 166.345 307.267 198.979 318.553C231.614 307.267 259.453 292.126 269.61 253.001C276.005 227.796 277.416 200.616 277.134 174.565Z" fill="#0064B5"/>
<path opacity="0.1" d="M245.88 262.971H156.534C149.668 262.971 144.119 257.423 144.119 250.557C144.119 243.691 149.668 238.143 156.534 238.143H245.88C252.745 238.143 258.294 243.691 258.294 250.557C258.294 257.423 252.745 262.971 245.88 262.971Z" fill="black"/>
<path d="M242.682 259.773H153.336C146.471 259.773 140.922 254.224 140.922 247.359C140.922 240.493 146.471 234.944 153.336 234.944H242.682C249.548 234.944 255.097 240.493 255.097 247.359C255.097 254.224 249.548 259.773 242.682 259.773Z" fill="url(#paint0_linear_3809_3679)"/>
<path d="M168.657 242.845L165.46 246.607V246.701L170.162 245.76V248.77L165.46 247.923V248.017L168.657 251.591L166.024 253.096L164.331 248.582H164.237L162.544 253.096L160.005 251.591L163.108 247.923V247.829L158.5 248.676V245.666L163.014 246.607V246.513L159.911 242.845L162.544 241.34L164.143 245.854H164.237L165.93 241.34L168.657 242.845Z" fill="#2A2A2A"/>
<path d="M182.108 242.845L178.911 246.607V246.701L183.613 245.76V248.77L178.911 247.923V248.017L182.108 251.591L179.475 253.096L177.782 248.582H177.688L175.995 253.096L173.456 251.591L176.56 247.923V247.829L171.951 248.676V245.666L176.466 246.607V246.513L173.362 242.845L175.995 241.34L177.594 245.854H177.688L179.381 241.34L182.108 242.845Z" fill="#2A2A2A"/>
<path d="M195.46 242.845L192.262 246.607V246.701L196.965 245.76V248.77L192.262 247.923V248.017L195.46 251.591L192.827 253.096L191.134 248.582H191.04L189.347 253.096L186.808 251.591L189.911 247.923V247.829L185.303 248.676V245.666L189.817 246.607V246.513L186.713 242.845L189.347 241.34L190.946 245.854H191.04L192.733 241.34L195.46 242.845Z" fill="#2A2A2A"/>
<path d="M208.817 242.845L205.62 246.607V246.701L210.322 245.76V248.77L205.62 247.923V248.017L208.817 251.591L206.184 253.096L204.491 248.582H204.397L202.704 253.096L200.165 251.591L203.269 247.923V247.829L198.66 248.676V245.666L203.174 246.607V246.513L200.071 242.845L202.704 241.34L204.303 245.854H204.397L206.09 241.34L208.817 242.845Z" fill="#2A2A2A"/>
<path d="M222.173 242.845L218.975 246.607V246.701L223.678 245.76V248.77L218.975 247.923V248.017L222.173 251.591L219.54 253.096L217.847 248.582H217.753L216.06 253.096L213.52 251.591L216.624 247.923V247.829L212.016 248.676V245.666L216.53 246.607V246.513L213.426 242.845L216.06 241.34L217.659 245.854H217.753L219.445 241.34L222.173 242.845Z" fill="#2A2A2A"/>
<path d="M235.524 242.845L232.327 246.607V246.701L237.029 245.76V248.77L232.327 247.923V248.017L235.524 251.591L232.891 253.096L231.198 248.582H231.104L229.411 253.096L226.872 251.591L229.976 247.923V247.829L225.367 248.676V245.666L229.882 246.607V246.513L226.778 242.845L229.411 241.34L231.01 245.854H231.104L232.797 241.34L235.524 242.845Z" fill="#2A2A2A"/>
<path d="M350.938 81.3536L339.938 84.4453L343.022 95.4713L354.023 92.3796L350.938 81.3536Z" fill="#ED3B4E"/>
<path d="M19.9342 142.328L8.93359 145.42L12.0182 156.446L23.0188 153.354L19.9342 142.328Z" fill="#24499F"/>
<path d="M98.1691 283.751C98.1691 283.751 94.2096 338.57 93.6413 348.292C93.0639 358.014 90.9834 390.762 90.9834 390.762H81.2588L74.6963 283.15L98.1691 283.751Z" fill="#DE051F"/>
<path d="M61.5823 284.324C61.5823 284.324 62.728 311.943 63.2413 318.946C63.7454 325.948 58.2003 349.893 55.0382 360.533C51.8669 371.183 47.4033 382.969 47.4033 382.969L55.0382 387.334C55.0382 387.334 71.5269 358.033 77.4386 340.744C83.3412 323.456 87.7406 297.583 87.0165 283.005L61.5823 284.324Z" fill="#EE384E"/>
<path d="M102.964 245.1L110.379 254.886C110.379 254.886 110.957 255.668 112.332 255.313C113.697 254.958 127.968 249.811 127.968 249.811C127.968 249.811 129.957 248.929 130.488 247.356C131.011 245.782 131.258 245.4 131.57 244.973C131.882 244.546 132.34 244.6 132.074 243.545C131.808 242.499 131.662 242.063 131.662 242.063C131.662 242.063 131.35 241.326 131.973 241.326C132.596 241.326 133.266 241.472 133.614 242.19C133.944 242.909 133.861 244.646 133.861 244.646L136.913 244.764C136.913 244.764 138.783 244.827 138.783 246.764C138.783 248.702 138.783 251.939 138.783 251.939C138.783 251.939 139.049 252.949 137.683 252.949C136.318 252.949 134.879 252.903 134.879 252.903C134.879 252.903 133.733 252.785 131.854 254.14C129.975 255.495 115.677 263.616 115.677 263.616C115.677 263.616 110.737 266.544 107.492 263.471C104.248 260.397 97.126 252.794 97.126 252.794L96.7686 250.384L102.964 245.1Z" fill="#FFBF99"/>
<path d="M79.0965 218.892C79.0965 218.892 78.2166 223.275 76.4477 227.668C74.6787 232.06 73.7988 233.806 73.7988 233.806C73.7988 233.806 79.0965 239.945 84.4125 239.063C89.7101 238.189 89.7101 234.679 89.7101 234.679C89.7101 234.679 84.8432 230.732 84.8432 225.467C84.8432 220.201 84.8432 220.21 84.8432 220.21L79.0965 218.892Z" fill="#FFB48F"/>
<path d="M90.793 233.671C90.793 233.671 95.1924 236.099 97.0163 237.636C98.8494 239.173 104.138 245.211 104.138 245.211L96.8972 252.187L91.8562 246.512L90.793 233.671Z" fill="#F79F03"/>
<path d="M76.0356 231.613C76.0356 231.613 78.6844 235.123 82.2223 235.996C85.7602 236.869 87.5199 234.241 87.5199 234.241L88.4915 232.986C88.4915 232.986 89.4722 232.222 90.5537 233.122C91.6352 234.004 93.6975 236.278 95.4847 239.952C97.2812 243.617 97.8036 248.637 98.1794 260.359C98.5552 272.082 98.1794 284.732 98.1794 284.732H61.6183L61.1875 266.516C61.1875 266.516 65.0737 242.289 68.8957 237.36C72.7177 232.431 73.8267 231.358 73.8267 231.358C73.8267 231.358 74.7066 230.158 76.0356 231.613Z" fill="#FCBE42"/>
<path d="M90.1619 207.042C90.1619 207.042 92.8107 210.552 92.8107 216.7C92.8107 222.839 91.9308 227.231 89.2728 227.231C86.6148 227.231 81.308 225.476 80.4281 223.721C79.5482 221.966 77.7793 221.966 77.7793 218.464C77.7793 214.963 82.1971 207.06 85.7441 207.06C89.282 207.06 90.1619 207.042 90.1619 207.042Z" fill="#FFBF99"/>
<path d="M92.8084 207.042C92.8084 207.042 95.4573 200.03 93.6883 199.139C91.9194 198.266 88.3907 200.012 87.5016 200.894C86.6217 201.767 84.8528 201.767 83.9637 201.767C83.9637 201.767 75.1191 201.767 73.3501 203.523C71.5812 205.278 71.5812 206.151 71.5812 207.033C71.5812 207.906 71.572 211.353 70.7013 213.172C70.3255 213.963 69.8214 217.555 71.5812 221.074C73.341 224.585 75.1191 225.458 75.9989 225.458C76.8788 225.458 77.6762 225.458 77.7679 224.585C77.8687 223.639 78.217 222.302 78.6478 221.074C79.0694 219.901 79.5277 217.564 79.5277 217.564C79.5277 217.564 80.4075 213.181 82.1765 211.426C83.9454 209.67 83.9454 209.67 87.4741 208.797C91.0395 207.933 91.9286 209.67 92.8084 207.042Z" fill="#170856"/>
<path d="M80.8864 213.454C82.1971 214.945 80.4281 217.573 80.4281 217.573C80.4281 217.573 77.7793 218.446 77.7793 215.818C77.7793 213.19 79.5666 211.953 80.8864 213.454Z" fill="#FFBF99"/>
<path d="M63.1752 250.376C63.1752 250.376 59.8572 263.044 60.4347 270.983C61.0121 278.914 63.386 285.789 65.1091 290.572C66.8322 295.356 67.8496 296.502 67.9137 299.512C67.9779 302.522 69.3985 306.087 71.1583 307.879C72.9181 309.67 74.3296 310.561 74.3296 310.561C74.3296 310.561 76.4193 311.525 76.0893 309.597C76.0893 309.597 77.4916 309.707 76.96 308.633C76.96 308.633 78.8298 308.67 77.4641 307.206C76.0985 305.732 73.578 304.314 73.578 304.314C73.578 304.314 72.139 302.031 74.1921 303.177C76.2451 304.314 78.0416 304.359 76.1443 302.504C74.2379 300.649 72.0382 297.402 70.4251 291.464C68.8119 285.534 66.8963 273.812 69.1785 264.809C71.4608 255.805 74.3479 252.804 74.3479 252.804L63.1752 250.376Z" fill="#FFBF99"/>
<path d="M55.3582 386.743C55.3582 386.743 57.118 391.645 59.0702 393.9C61.0225 396.155 62.5623 397.801 62.5623 397.801C62.5623 397.801 64.8353 401.412 62.269 400.339C59.7118 399.266 45.5603 389.835 45.5603 389.835C45.5603 389.835 43.5439 388.798 44.4788 387.088C45.4137 385.379 47.7875 382.068 47.7875 382.068L55.3582 386.743Z" fill="#170856"/>
<path d="M81.3531 397.684C81.3531 397.684 80.8307 399.112 83.8003 399.112C86.77 399.112 102.965 399.112 102.965 399.112C102.965 399.112 106.082 398.494 103.213 397.111C100.326 395.729 91.6918 391.873 91.6918 391.873C91.6918 391.873 91.0319 391.7 91.0502 390.054H81.2432L81.3531 397.684Z" fill="#170856"/>
<path d="M77.026 241.936C77.026 241.936 77.6493 236.052 73.3323 235.488C69.0154 234.924 66.2749 240.635 64.8359 244.346C63.3969 248.056 62.6729 250.775 62.6729 250.775C62.6729 250.775 71.9575 254.486 74.4047 254.486C74.4138 254.486 76.4761 248.32 77.026 241.936Z" fill="#F79F03"/>
<path d="M378.504 300.153C378.504 300.153 381.249 299.39 380.944 294.663C380.639 290.087 377.588 286.275 381.859 283.835C385.977 281.395 387.045 280.48 389.028 278.65C391.011 276.515 391.926 274.99 398.332 275.752C398.332 275.752 403.365 271.635 408.094 275.295C412.517 279.107 411.449 289.325 412.212 290.697C413.127 292.223 419.228 298.475 419.991 303.66C420.753 308.845 417.245 312.2 412.212 312.048C407.483 311.895 400.62 312.048 400.62 312.048H382.164C382.164 312.048 375.911 312.505 375.453 305.948C375.453 302.135 378.504 300.153 378.504 300.153Z" fill="#180857"/>
<path d="M393.755 307.93C393.755 307.93 393.755 311.895 392.077 313.42C390.399 315.097 388.264 317.842 388.264 317.842C388.264 317.842 392.077 324.095 399.551 323.027C406.872 322.265 408.245 316.622 408.245 316.622C408.245 316.622 401.228 315.86 400.313 308.692C399.551 301.83 398.33 301.83 398.33 301.83L393.755 307.93Z" fill="#FFB07E"/>
<path d="M397.57 310.066C402.119 310.066 405.807 303.511 405.807 295.426C405.807 287.34 402.119 280.786 397.57 280.786C393.022 280.786 389.334 287.34 389.334 295.426C389.334 303.511 393.022 310.066 397.57 310.066Z" fill="#FFBE9B"/>
<path d="M397.571 280.022C397.571 280.022 396.045 284.597 392.995 289.02C389.639 293.595 386.131 296.035 385.826 296.95C385.521 297.712 382.471 295.425 383.538 292.07C384.453 288.41 390.402 278.345 396.503 278.04C402.604 277.887 403.824 274.227 406.875 281.7C409.62 288.867 409.315 297.255 409.315 297.255L397.571 280.022Z" fill="#180857"/>
<path d="M389.488 293.748C389.488 293.748 386.132 293.29 385.827 295.273C385.522 297.408 386.742 299.085 389.488 299.39C392.386 300 389.488 293.748 389.488 293.748Z" fill="#FFBE9B"/>
<path d="M420.599 389.518C420.599 389.518 425.328 389.671 429.141 389.671C432.954 389.671 438.445 390.281 438.445 390.281C438.445 390.281 439.97 390.281 440.123 392.416C440.275 394.551 440.275 395.161 440.275 395.161C440.275 395.161 440.428 397.449 438.597 397.449C436.767 397.449 425.938 398.821 423.345 398.821C420.752 398.821 419.074 399.279 419.074 397.449C419.074 395.466 419.074 389.061 420.599 389.518Z" fill="black"/>
<path d="M424.87 334.771C424.87 334.771 428.225 353.376 428.378 358.104C428.53 362.831 428.988 366.644 425.937 368.779C423.039 370.914 417.853 372.591 417.853 372.591L411.447 339.651V335.686L424.87 334.771Z" fill="#FFBF99"/>
<path d="M369.96 333.855C369.96 333.855 368.283 342.243 367.673 346.361C367.367 350.478 365.995 358.866 365.995 360.848C365.842 362.983 365.69 365.728 368.893 368.473C372.096 371.218 375.909 372.438 375.909 372.438L382.773 333.855H369.96Z" fill="#FFBF99"/>
<path d="M389.788 314.182C389.788 314.182 384.754 313.572 381.856 314.335C379.111 314.945 378.196 314.487 379.111 316.775C379.721 319.062 383.534 329.128 381.856 335.38C380.179 341.785 377.738 373.963 377.738 373.963C377.738 373.963 396.651 374.573 403.973 374.878C411.141 375.336 416.632 373.963 416.632 373.963C416.632 373.963 418.31 359.933 416.632 353.985C414.954 347.733 412.819 337.668 412.819 337.668C412.819 337.668 411.599 323.485 413.124 319.978C415.107 316.317 416.48 316.317 413.887 315.555C411.446 314.792 409.159 313.877 407.023 313.877C405.04 313.877 404.278 313.877 402.905 314.792C401.99 315.707 399.397 318.452 396.499 317.69C393.143 317.232 391.008 314.945 391.008 314.945C391.008 314.945 390.855 314.487 389.788 314.182Z" fill="#DE051F"/>
<path d="M380.79 315.555C380.79 315.555 379.112 314.792 376.519 316.927C373.774 319.367 371.791 324.857 370.418 328.212C369.503 331.567 368.74 334.922 368.74 334.922C368.74 334.922 372.401 337.057 375.909 337.057C379.722 337.21 382.162 337.515 382.162 337.515C382.162 337.515 383.84 327.297 383.383 322.875C383.383 317.995 382.925 316.622 380.79 315.555Z" fill="#EE384E"/>
<path d="M412.21 318.91C412.21 318.91 413.735 314.792 416.938 316.622C420.447 318.757 423.04 325.772 423.65 328.212C424.26 330.5 425.327 335.227 425.327 335.227C425.327 335.227 421.209 336.905 418.159 337.362C414.651 337.515 412.21 337.82 412.21 337.82C412.21 337.82 410.99 328.822 411.295 325.162C411.6 321.502 412.21 318.91 412.21 318.91Z" fill="#EE384E"/>
<path d="M384.906 376.708H410.531L397.108 380.826L384.906 376.708Z" fill="#004B89"/>
<path d="M362.028 369.235C362.028 369.235 408.548 384.181 418.768 387.993C418.768 387.993 422.276 388.756 422.276 390.738C422.276 392.416 422.123 395.161 421.666 396.381C421.361 397.753 420.14 398.668 418.158 398.516C416.175 398.058 374.688 389.518 358.063 385.248L353.487 383.723C353.487 383.723 349.979 382.046 350.741 377.47C351.351 373.048 354.554 369.235 356.842 369.083C358.673 368.778 362.028 369.235 362.028 369.235Z" fill="#0064E1"/>
<path d="M357.757 390.738C357.757 390.738 363.858 389.823 367.061 389.823C370.569 389.671 375.145 389.366 375.755 389.823C376.365 390.281 376.975 397.448 376.975 397.448C376.975 397.448 377.585 399.583 372.857 398.973C368.281 398.516 357.757 398.363 357.757 398.363C357.757 398.363 355.317 398.211 355.164 396.076C355.164 393.788 355.317 392.721 355.317 392.721C355.317 392.721 356.689 390.891 357.757 390.738Z" fill="black"/>
<path d="M385.516 384.485C385.516 384.485 413.885 375.792 423.799 372.59C433.866 369.54 439.357 366.49 442.713 371.675C446.068 376.402 445.611 382.045 442.103 383.57C438.289 385.095 409.157 392.11 396.802 394.855C384.6 397.6 376.669 398.973 375.449 398.668C374.534 398.21 373.008 394.55 373.161 392.263C373.314 389.975 373.466 389.365 375.906 388.298C378.499 387.23 385.516 384.485 385.516 384.485Z" fill="#0054A3"/>
<path d="M382.315 341.937H416.481C416.481 341.937 418.464 341.784 418.464 344.224C418.464 346.664 418.464 374.572 418.464 374.572C418.464 374.572 418.616 376.707 417.244 376.707C415.871 376.707 377.129 376.707 377.129 376.707C377.129 376.707 375.452 377.165 375.452 374.42C375.452 371.675 375.452 343.614 375.452 343.614C375.452 343.614 375.299 342.089 377.434 342.089C379.265 341.937 382.315 341.937 382.315 341.937Z" fill="#0064B7"/>
<path d="M394.82 359.628L396.803 357.188L399.091 359.17L397.261 361.61L394.82 359.628Z" fill="#569ED4"/>
</g>
<defs>
<linearGradient id="paint0_linear_3809_3679" x1="141.007" y1="247.38" x2="255.133" y2="247.38" gradientUnits="userSpaceOnUse">
<stop stop-color="white"/>
<stop offset="0.9104" stop-color="white"/>
<stop offset="1" stop-color="white"/>
</linearGradient>
<clipPath id="clip0_3809_3679">
<rect width="450" height="450" fill="white"/>
</clipPath>
</defs>
</svg>
