<svg width="450" height="450" viewBox="0 0 450 450" fill="none" xmlns="http://www.w3.org/2000/svg">
<g clip-path="url(#clip0_3809_3551)">
<path d="M425.435 75.208C425.435 75.208 419.877 75.9415 411.924 78.3683L406.616 88.581L405.504 80.5594C383.023 88.9541 350.202 110.141 354.978 160.849C355.078 160.714 417.693 187.353 425.435 75.208Z" fill="#023EA1"/>
<path d="M390.867 87.3864L366.356 142.234L425.436 75.2076" stroke="white" stroke-miterlimit="10"/>
<path d="M420.434 110.19L365.629 145.357" stroke="white" stroke-miterlimit="10"/>
<path d="M405.891 46.1649C405.891 46.1649 407.356 55.6978 400.294 52.9281C393.232 50.1585 388.852 50.7108 387.09 58.0893C385.464 65.5675 381.148 68.8813 376.704 68.2389C372.262 67.5964 364.293 65.2075 362.612 75.4652C360.93 85.723 356.126 105.496 367.123 108.745C378.12 111.994 393.274 103.039 394.61 95.2439C395.947 87.4492 392.277 81.6286 400.148 77.8881C408.037 74.2666 410.483 82.3236 416.823 75.6875C423.163 69.0503 430.302 62.8938 423.106 52.1934C416.7 42.6966 406.374 40.6694 405.891 46.1649Z" stroke="#EA4E59" stroke-miterlimit="10" stroke-linecap="round" stroke-linejoin="round"/>
<path d="M409.121 56.9932C409.121 56.9932 369.364 99.0042 356.748 107.207" stroke="#EA4E59" stroke-miterlimit="10" stroke-linecap="round" stroke-linejoin="round"/>
<path d="M375.021 75.3656L375.885 90.4123L388.215 93.6976" stroke="#EA4E59" stroke-miterlimit="10" stroke-linecap="round" stroke-linejoin="round"/>
<path d="M395.604 57.7461L397.876 68.6009L407.766 72.5024" stroke="#EA4E59" stroke-miterlimit="10" stroke-linecap="round" stroke-linejoin="round"/>
<path d="M450.994 359.424H0V359.605H450.994V359.424Z" fill="#EBEBEB"/>
<path d="M405.805 373.935H375.949V374.115H405.805V373.935Z" fill="#EBEBEB"/>
<path d="M298.738 376.368H290.891V376.548H298.738V376.368Z" fill="#EBEBEB"/>
<path d="M375.047 365.553H357.729V365.733H375.047V365.553Z" fill="#EBEBEB"/>
<path d="M86.3194 367.086H47.3535V367.266H86.3194V367.086Z" fill="#EBEBEB"/>
<path d="M100.031 367.086H94.3486V367.266H100.031V367.086Z" fill="#EBEBEB"/>
<path d="M203.129 370.871H118.612V371.051H203.129V370.871Z" fill="#EBEBEB"/>
<path d="M108.057 299.94L107.877 294.622L111.124 293.54C111.214 291.738 111.575 289.935 112.026 288.133L109.23 286.06L111.124 281.013L114.552 281.283C115.363 279.661 116.356 278.128 117.438 276.686L115.634 273.712L119.332 269.837L122.399 271.369C123.752 270.197 125.285 269.116 126.819 268.214L126.278 264.789L131.148 262.536L133.403 265.15C135.117 264.609 136.831 264.158 138.725 263.888L139.537 260.553L144.859 260.373L145.941 263.618C147.745 263.798 149.549 264.068 151.263 264.519L153.337 261.725L158.388 263.618L158.118 267.043C159.741 267.854 161.275 268.845 162.718 269.927L165.694 268.124L169.573 271.729L168.04 274.794C169.212 276.146 170.295 277.678 171.197 279.21L174.624 278.669L176.879 283.536L174.263 285.789C174.805 287.502 175.256 289.304 175.526 291.107L178.863 291.918L179.044 297.236L175.707 298.317C175.616 300.12 175.256 301.922 174.805 303.635L177.601 305.708L175.707 310.755L172.279 310.485C171.467 312.107 170.475 313.639 169.393 315.081L171.197 318.056L167.498 321.931L164.432 320.399C163.079 321.571 161.545 322.652 160.012 323.553L160.553 326.978L155.682 329.232L153.427 326.618C151.714 327.159 150 327.609 148.106 327.88L147.294 331.214L141.972 331.395L140.89 328.15C139.086 327.97 137.282 327.699 135.568 327.249L133.493 330.043L128.442 328.15L128.713 324.725C127.089 323.914 125.556 322.922 124.113 321.841L121.136 323.644L117.258 320.038L118.791 316.974C117.618 315.622 116.536 314.09 115.634 312.558L112.207 313.098L109.952 308.231L112.567 305.978C112.026 304.266 111.575 302.553 111.305 300.661L108.057 299.94ZM144.137 317.244C155.863 316.884 164.973 307.06 164.612 295.343C164.251 283.626 154.42 274.433 142.694 274.884C130.968 275.244 121.858 285.068 122.219 296.785C122.67 308.502 132.411 317.695 144.137 317.244Z" fill="#0083F9"/>
<path d="M108.571 110.193C108.258 110.373 107.934 110.352 107.642 110.208L103.652 108.349C102.379 108.668 101.138 108.864 99.8518 108.982L97.1779 111.566C96.9105 111.825 96.553 111.927 96.1834 111.828L87.9875 109.9C87.618 109.801 87.3596 109.534 87.3025 109.254L86.0468 105.817C84.9592 105.196 83.9047 104.452 82.8832 103.584L78.4758 103.527C78.1513 103.506 77.8148 103.284 77.6015 103.095L73.1311 95.8935C72.9508 95.5813 72.9268 95.1788 73.071 94.8874L74.9338 90.898C74.6604 89.7029 74.4201 88.3846 74.3029 87.0993L71.7192 84.4281C71.4609 84.161 71.3587 83.8037 71.4579 83.4343L73.3928 75.2402C73.492 74.8708 73.7594 74.6123 74.0388 74.5551L77.5569 73.2524C78.1788 72.1648 78.9239 71.1102 79.7922 70.0885L79.8524 65.6828C79.8734 65.3584 80.0957 65.0219 80.285 64.8086L87.4145 60.3801C87.7269 60.1997 88.1295 60.1755 88.4209 60.3194L92.4107 62.1788C93.6846 61.8596 94.9254 61.6636 96.2113 61.5456L98.8852 58.9611C99.1526 58.7027 99.5101 58.6003 99.8797 58.6992L108.076 60.6279C108.445 60.7267 108.703 60.9938 108.761 61.2731L110.061 64.789C111.149 65.41 112.203 66.1541 113.225 67.0213L117.632 67.0785C117.957 67.0993 118.293 67.3213 118.507 67.5104L122.932 74.6341C123.112 74.9463 123.136 75.3487 122.992 75.6401L121.129 79.6296C121.448 80.9028 121.688 82.221 121.76 83.4283L124.344 86.0994C124.602 86.3665 124.704 86.7239 124.605 87.0933L122.67 95.2873C122.571 95.6568 122.304 95.9153 122.024 95.9725L118.584 97.2301C117.884 98.3628 117.139 99.4174 116.349 100.394L116.289 104.8C116.268 105.124 116.045 105.461 115.856 105.674L108.571 110.193ZM98.8484 107.064C99.0046 106.973 99.1609 106.883 99.284 106.916C100.693 106.831 102.135 106.623 103.487 106.259C103.767 106.201 103.968 106.189 104.181 106.378L108.048 108.205L114.24 104.318L114.312 100.113C114.3 99.9118 114.444 99.6204 114.555 99.4521C115.424 98.4304 116.28 97.2076 116.935 95.9969C117.046 95.8286 117.235 95.6153 117.515 95.558L120.799 94.3906L122.436 87.305L119.942 84.7899C119.729 84.6008 119.672 84.3216 119.66 84.1204C119.621 82.79 119.414 81.3486 119.005 79.9193C118.948 79.6401 118.936 79.4388 119.125 79.2255L120.955 75.3592L117.071 69.1721L112.864 69.1028C112.663 69.1149 112.372 68.971 112.203 68.86C111.137 67.9146 109.959 67.1376 108.748 66.4837C108.502 66.4178 108.367 66.1836 108.232 65.9494L107.021 62.5896L99.9337 60.9576L97.416 63.4519C97.2267 63.6652 97.0254 63.6774 96.746 63.7346C95.337 63.8196 93.8949 64.0278 92.621 64.347C92.3416 64.4042 92.1403 64.4164 91.8489 64.2724L87.9823 62.446L81.7902 66.3332L81.718 70.5377C81.73 70.7389 81.6189 70.9072 81.5858 71.0304C81.5077 71.0755 81.4746 71.1986 81.4746 71.1986C80.6064 72.2203 79.7831 73.32 79.0951 74.6539C78.984 74.8221 78.7947 75.0355 78.5153 75.0927L75.1534 76.3052L73.5159 83.3909L76.0095 85.9059C76.2228 86.095 76.2348 86.2962 76.2919 86.5754C76.376 87.9839 76.5832 89.4253 76.9017 90.6984C76.9588 90.9777 76.9708 91.1789 76.7815 91.3923L74.9518 95.2586L78.8363 101.446L83.0425 101.515C83.2437 101.503 83.5352 101.647 83.7034 101.758C84.77 102.703 85.9477 103.48 87.1584 104.134C87.3267 104.245 87.54 104.434 87.597 104.713L88.8077 108.073L95.8951 109.705L98.4128 107.211C98.6922 107.154 98.7703 107.109 98.8484 107.064ZM105.738 98.611C102.379 100.55 98.4549 101.15 94.6033 100.252C90.6285 99.3207 87.2517 96.8993 85.0675 93.4771C82.8834 90.0548 82.2285 85.8538 83.1629 81.8799C84.0974 77.9061 86.5219 74.5289 90.0251 72.2982C93.4501 70.1126 97.6532 69.4551 101.628 70.3865C105.603 71.3179 108.98 73.7393 111.209 77.2396C113.393 80.6618 114.048 84.8628 113.113 88.8367C112.179 92.8106 109.754 96.1878 106.251 98.4185C106.05 98.4306 105.894 98.5208 105.738 98.611ZM91.4071 73.7899C91.2508 73.8801 91.1727 73.9252 91.0165 74.0154C88.0151 75.8523 85.891 78.8479 85.0887 82.3291C84.2865 85.8104 84.8603 89.3298 86.741 92.4068C88.5766 95.4058 91.5719 97.5271 95.054 98.3267C98.5361 99.1263 102.057 98.5503 105.137 96.6683C108.138 94.8314 110.262 91.8358 111.064 88.3545C111.867 84.8733 111.293 81.3539 109.412 78.2769C107.577 75.2778 104.581 73.1565 101.099 72.357C97.7403 71.5904 94.2973 72.1212 91.4071 73.7899Z" fill="#EE384E"/>
<path d="M87.6246 245.61C121.255 245.61 148.518 218.245 148.518 184.49C148.518 150.734 121.255 123.369 87.6246 123.369C53.9943 123.369 26.7314 150.734 26.7314 184.49C26.7314 218.245 53.9943 245.61 87.6246 245.61Z" stroke="#DC051F" stroke-miterlimit="10" stroke-dasharray="6 6"/>
<path d="M39.7575 155.564C43.4442 155.564 46.4329 152.564 46.4329 148.863C46.4329 145.163 43.4442 142.163 39.7575 142.163C36.0707 142.163 33.082 145.163 33.082 148.863C33.082 152.564 36.0707 155.564 39.7575 155.564Z" fill="#003EAE"/>
<path d="M40.897 145.596L36.501 148.21L40.5714 150.498L40.897 145.596Z" fill="white"/>
<path d="M375.59 307.51H75.408C68.0117 307.51 62.0586 301.562 62.0586 294.171V102.377C62.0586 94.9866 68.0117 89.0381 75.408 89.0381H375.59C382.986 89.0381 388.939 94.9866 388.939 102.377V294.171C388.939 301.562 382.986 307.51 375.59 307.51Z" fill="white"/>
<path d="M375.59 308.051H75.4082C67.7413 308.051 61.5176 301.832 61.5176 294.171V102.377C61.5176 94.716 67.7413 88.4971 75.4082 88.4971H375.59C383.257 88.4971 389.481 94.716 389.481 102.377V294.171C389.481 301.832 383.257 308.051 375.59 308.051ZM75.4082 89.5786C68.2825 89.5786 62.5098 95.3469 62.5098 102.467V294.261C62.5098 301.381 68.2825 307.15 75.4082 307.15H375.59C382.716 307.15 388.489 301.381 388.489 294.261V102.377C388.489 95.2567 382.716 89.4885 375.59 89.4885H75.4082V89.5786Z" fill="#0064B5" stroke="#0064B5" stroke-width="2"/>
<path opacity="0.5" d="M171.198 262.356H166.688V261.364H171.198V262.356ZM162.088 262.356H157.578V261.364H162.088V262.356ZM152.978 262.356H148.468V261.364H152.978V262.356ZM143.868 262.356H139.358V261.364H143.868V262.356ZM134.848 262.356H130.338V261.364H134.848V262.356ZM125.738 262.356H121.228V261.364H125.738V262.356ZM116.628 262.356H112.118V261.364H116.628V262.356ZM107.517 262.356H103.008V261.364H107.517V262.356ZM98.4074 262.356H93.8975V261.364H98.4074V262.356ZM89.2973 262.356H87.5835C86.5012 262.356 85.509 262.085 84.607 261.635L85.058 260.733C85.8698 261.094 86.6815 261.364 87.5835 261.364H89.2973V262.356ZM175.708 260.553L175.076 259.832C176.069 258.841 176.79 257.579 176.88 256.137L177.873 256.227C177.692 257.939 176.971 259.471 175.708 260.553ZM81.45 258.12C81.1794 257.399 80.999 256.587 80.999 255.776V253.523H81.9912V255.776C81.9912 256.497 82.0814 257.128 82.352 257.849L81.45 258.12ZM177.873 251.72H176.88V247.214H177.873V251.72ZM81.9912 248.926H80.999V244.42H81.9912V248.926ZM177.873 242.617H176.88V238.111H177.873V242.617ZM81.9912 239.823H80.999V235.317H81.9912V239.823ZM177.873 233.514H176.88V229.008H177.873V233.514ZM81.9912 230.72H80.999V226.214H81.9912V230.72ZM177.873 224.411H176.88V219.905H177.873V224.411ZM81.9912 221.617H80.999V217.111H81.9912V221.617ZM177.873 215.308H176.88V210.802H177.873V215.308ZM81.9912 212.514H80.999V208.008H81.9912V212.514ZM177.873 206.205H176.88V201.699H177.873V206.205ZM81.9912 203.501H80.999V198.995H81.9912V203.501ZM177.873 197.192H176.88V192.686H177.873V197.192ZM81.9912 194.398H80.999V189.892H81.9912V194.398ZM177.873 188.089H176.88V183.583H177.873V188.089ZM81.9912 185.295H80.999V180.789H81.9912V185.295ZM177.873 178.986H176.88V174.48H177.873V178.986ZM81.9912 176.192H80.999V171.686H81.9912V176.192ZM177.873 169.883H176.88V165.377H177.873V169.883ZM81.9912 167.089H80.999V162.583H81.9912V167.089ZM177.873 160.78H176.88V156.274H177.873V160.78ZM81.9912 157.986H80.999V153.48H81.9912V157.986ZM177.873 151.677H176.88V149.424C176.88 148.703 176.79 147.982 176.52 147.351L177.422 146.991C177.692 147.802 177.873 148.613 177.873 149.424V151.677ZM81.9912 148.973L80.999 148.883C81.1794 147.261 81.901 145.729 83.0736 144.557L83.705 145.278C82.7128 146.27 82.0814 147.531 81.9912 148.973ZM173.723 144.377C172.912 144.016 172.1 143.836 171.198 143.836H169.484V142.845H171.198C172.19 142.845 173.182 143.115 174.174 143.566L173.723 144.377ZM164.884 143.836H160.374V142.845H164.884V143.836ZM155.864 143.836H151.354V142.845H155.864V143.836ZM146.754 143.836H142.244V142.845H146.754V143.836ZM137.644 143.836H133.134V142.845H137.644V143.836ZM128.534 143.836H124.024V142.845H128.534V143.836ZM119.424 143.836H114.914V142.845H119.424V143.836ZM110.314 143.836H105.804V142.845H110.314V143.836ZM101.204 143.836H96.6936V142.845H101.204V143.836ZM92.1837 143.836H87.6737V142.845H92.1837V143.836Z" fill="#407BFF"/>
<path d="M87.8554 103.099C87.8554 105.442 85.9612 107.425 83.5258 107.425C81.0905 107.425 79.1963 105.532 79.1963 103.099C79.1963 100.755 81.0905 98.7725 83.5258 98.7725C85.9612 98.7725 87.8554 100.755 87.8554 103.099Z" fill="#0064B5"/>
<path opacity="0.2" d="M116.176 105.621H95.0695C93.7165 105.621 92.5439 104.45 92.5439 103.098C92.5439 101.746 93.7165 100.574 95.0695 100.574H116.176C117.529 100.574 118.702 101.746 118.702 103.098C118.702 104.54 117.529 105.621 116.176 105.621Z" fill="#407BFF"/>
<path d="M218.012 104.54H203.219C202.498 104.54 201.866 103.909 201.866 103.188C201.866 102.467 202.498 101.836 203.219 101.836H218.012C218.733 101.836 219.365 102.467 219.365 103.188C219.365 103.909 218.733 104.54 218.012 104.54Z" fill="#DCE8F5"/>
<path d="M251.204 104.54H236.412C235.69 104.54 235.059 103.909 235.059 103.188C235.059 102.467 235.69 101.836 236.412 101.836H251.204C251.926 101.836 252.557 102.467 252.557 103.188C252.647 103.909 252.016 104.54 251.204 104.54Z" fill="#DCE8F5"/>
<path d="M284.488 104.54H269.696C268.974 104.54 268.343 103.909 268.343 103.188C268.343 102.467 268.974 101.836 269.696 101.836H284.488C285.21 101.836 285.841 102.467 285.841 103.188C285.841 103.909 285.21 104.54 284.488 104.54Z" fill="#DCE8F5"/>
<path d="M317.773 104.54H302.98C302.258 104.54 301.627 103.909 301.627 103.188C301.627 102.467 302.258 101.836 302.98 101.836H317.773C318.494 101.836 319.126 102.467 319.126 103.188C319.126 103.909 318.494 104.54 317.773 104.54Z" fill="#DCE8F5"/>
<path d="M360.345 105.531H337.886C336.533 105.531 335.45 104.449 335.45 103.098C335.45 101.746 336.533 100.664 337.886 100.664H360.345C361.698 100.664 362.78 101.746 362.78 103.098C362.78 104.449 361.608 105.531 360.345 105.531Z" fill="#0064B5"/>
<path d="M248.949 270.287H206.916C204.03 270.287 201.685 267.944 201.685 265.06V263.888C201.685 261.004 204.03 258.661 206.916 258.661H248.949C251.835 258.661 254.18 261.004 254.18 263.888V265.06C254.18 267.944 251.835 270.287 248.949 270.287Z" fill="#0064B5"/>
<path d="M359.984 207.378V163.576C359.984 162.855 360.616 162.224 361.337 162.224C362.059 162.224 362.69 162.855 362.69 163.576V207.378C362.69 208.099 362.059 208.73 361.337 208.73C360.616 208.73 359.984 208.099 359.984 207.378Z" fill="#DCE8F5"/>
<path opacity="0.2" d="M361.337 221.167C362.085 221.167 362.69 220.561 362.69 219.815C362.69 219.068 362.085 218.463 361.337 218.463C360.59 218.463 359.984 219.068 359.984 219.815C359.984 220.561 360.59 221.167 361.337 221.167Z" fill="#407BFF"/>
<path opacity="0.2" d="M361.337 240.725C362.085 240.725 362.69 240.12 362.69 239.373C362.69 238.627 362.085 238.021 361.337 238.021C360.59 238.021 359.984 238.627 359.984 239.373C359.984 240.12 360.59 240.725 361.337 240.725Z" fill="#407BFF"/>
<path opacity="0.2" d="M361.337 260.193C362.085 260.193 362.69 259.588 362.69 258.841C362.69 258.095 362.085 257.489 361.337 257.489C360.59 257.489 359.984 258.095 359.984 258.841C359.984 259.588 360.59 260.193 361.337 260.193Z" fill="#407BFF"/>
<path d="M319.665 165.467H212.87C206.736 165.467 201.775 160.51 201.775 154.381C201.775 148.252 206.736 143.295 212.87 143.295H319.756C325.889 143.295 330.85 148.252 330.85 154.381C330.76 160.51 325.799 165.467 319.665 165.467Z" fill="#DCE8F5"/>
<path d="M280.519 197.553H212.87C206.736 197.553 201.775 192.595 201.775 186.467C201.775 180.338 206.736 175.381 212.87 175.381H280.519C286.653 175.381 291.613 180.338 291.613 186.467C291.523 192.595 286.562 197.553 280.519 197.553Z" fill="#DCE8F5"/>
<path d="M300.363 223.42H204.391C202.948 223.42 201.775 222.248 201.775 220.806C201.775 219.364 202.948 218.192 204.391 218.192H300.363C301.806 218.192 302.979 219.364 302.979 220.806C302.979 222.248 301.806 223.42 300.363 223.42Z" fill="#EBEBEB"/>
<path d="M323.003 223.42H313.171C311.728 223.42 310.556 222.248 310.556 220.806C310.556 219.364 311.728 218.192 313.171 218.192H323.003C324.446 218.192 325.619 219.364 325.619 220.806C325.529 222.248 324.356 223.42 323.003 223.42Z" fill="#EBEBEB"/>
<path d="M246.695 229.008H288.006C289.449 229.008 290.622 230.179 290.622 231.622C290.622 233.064 289.449 234.235 288.006 234.235H246.695C245.252 234.235 244.079 233.064 244.079 231.622C244.079 230.179 245.252 229.008 246.695 229.008Z" fill="#EBEBEB"/>
<path d="M204.391 229.008H233.976C235.42 229.008 236.592 230.179 236.592 231.622C236.592 233.064 235.42 234.235 233.976 234.235H204.391C202.948 234.235 201.775 233.064 201.775 231.622C201.775 230.179 202.948 229.008 204.391 229.008Z" fill="#EBEBEB"/>
<path d="M262.569 244.87H204.391C202.948 244.87 201.775 243.698 201.775 242.256C201.775 240.814 202.948 239.643 204.391 239.643H262.569C264.013 239.643 265.185 240.814 265.185 242.256C265.095 243.698 263.922 244.87 262.569 244.87Z" fill="#EBEBEB"/>
<path d="M304.874 244.87H275.289C273.845 244.87 272.673 243.698 272.673 242.256C272.673 240.814 273.845 239.643 275.289 239.643H304.874C306.317 239.643 307.49 240.814 307.49 242.256C307.399 243.698 306.227 244.87 304.874 244.87Z" fill="#EBEBEB"/>
<path d="M217.813 352.304C217.813 352.304 221.355 351.011 221.194 346.648C221.033 342.284 218.618 339.537 223.448 340.83C227.795 341.961 229.245 342.608 232.626 341.799C235.846 341.153 238.422 339.537 237.295 344.062C236.007 348.264 234.397 351.819 237.617 352.466C240.998 353.112 244.541 350.526 244.863 357.314C245.185 363.94 239.871 371.213 231.66 371.536C223.287 371.859 219.262 368.304 219.262 368.304C219.262 368.304 216.847 365.071 220.389 364.263C223.931 363.455 227.634 361.839 225.702 360.385C223.931 358.769 217.974 358.607 217.974 358.607C217.974 358.607 210.567 356.506 217.813 352.304Z" fill="#649CE8"/>
<path d="M257.101 353.274C256.618 349.072 256.94 346.002 264.829 344.87C272.719 343.901 277.066 348.426 277.549 353.274C278.032 358.123 271.27 359.9 271.27 359.9C271.27 359.9 266.44 361.193 268.694 365.395C271.27 369.597 272.236 373.637 266.762 374.284C261.287 374.768 255.169 373.476 251.788 371.213C248.406 368.789 245.025 363.294 248.889 360.223C248.889 360.223 249.855 359.577 253.72 359.415C257.423 359.092 257.101 353.274 257.101 353.274Z" fill="#033E9F"/>
<path d="M229.727 352.627C229.727 352.627 236.167 367.334 236.972 377.192" stroke="#82D8FD" stroke-miterlimit="10" stroke-linecap="round" stroke-linejoin="round"/>
<path d="M265.633 355.052C265.633 355.052 254.201 372.021 251.625 377.839" stroke="#579DD3" stroke-miterlimit="10" stroke-linecap="round" stroke-linejoin="round"/>
<path d="M233.109 376.06H259.193C259.193 376.06 262.091 376.222 261.93 380.1C261.769 383.656 257.1 383.009 254.845 383.009C252.269 383.009 232.787 383.009 232.787 383.009C232.787 383.009 229.567 383.494 229.567 379.939C229.406 376.383 230.372 376.06 233.109 376.06Z" fill="#0054A3"/>
<path d="M232.626 383.01L236.49 406.12H254.04L257.1 388.989L232.626 383.01Z" fill="#0054A3"/>
<path d="M232.626 383.01L257.1 388.989L257.905 383.01H232.626Z" fill="#016AD3"/>
<path d="M243.734 377.031C243.734 377.031 244.861 351.496 252.751 335.173Z" fill="#FABC42"/>
<path d="M258.87 325.8C258.87 325.8 259.353 333.719 251.785 336.951C251.946 336.789 250.336 330.163 258.87 325.8Z" fill="#FABC42"/>
<path d="M247.599 351.012C247.599 351.012 250.497 344.224 259.191 345.194C258.869 345.032 258.225 351.82 247.599 351.012Z" fill="#FABC42"/>
<path d="M244.701 367.819C244.701 367.819 245.989 360.708 255.006 359.738C254.684 360.062 255.328 366.849 244.701 367.819Z" fill="#FABC42"/>
<path d="M244.379 367.82C244.379 367.82 245.345 360.548 237.456 356.831C237.295 356.992 234.396 363.133 244.379 367.82Z" fill="#FABC42"/>
<path d="M247.759 350.85C247.759 350.85 249.691 343.739 242.285 339.053C242.124 339.214 238.421 344.871 247.759 350.85Z" fill="#FABC42"/>
<path d="M150.47 201.555L197.052 165.209C197.052 165.209 198.043 164.467 200.025 161.995C201.76 159.769 204.981 157.049 207.458 157.544L211.918 153.341C211.918 153.341 213.405 153.093 211.918 154.577C210.432 156.06 209.688 157.791 209.688 157.791C209.688 157.791 210.68 158.533 210.432 159.027C210.432 159.027 211.175 159.522 211.175 160.264C211.175 160.264 213.901 161.006 211.175 163.725C208.697 166.445 207.954 167.434 204.485 168.67C201.264 169.907 199.282 171.39 196.061 174.357C193.335 177.077 155.674 213.176 155.674 213.176L150.47 201.555Z" fill="#FDBC99"/>
<path d="M128.418 193.148C128.418 193.148 117.763 192.654 116.277 181.28C114.542 169.412 122.719 165.456 127.179 162.983C131.639 161.005 134.612 161.253 136.594 158.038C138.577 154.824 139.32 153.835 139.32 153.835C139.32 153.835 147.992 162.736 141.55 170.895C135.355 178.066 128.418 193.148 128.418 193.148Z" fill="#180957"/>
<path d="M111.322 397.627C111.075 397.874 111.075 397.627 111.322 397.627C110.827 398.864 109.34 406.528 113.305 406.528C117.517 406.776 133.127 406.776 135.357 406.776C135.357 406.776 135.604 406.776 135.604 406.528C135.604 405.787 135.852 404.55 134.861 403.809C134.861 403.809 125.693 399.605 122.72 397.133C119.747 394.66 112.314 397.133 111.322 397.627Z" fill="#160956"/>
<path d="M150.718 396.39C150.47 396.39 150.47 396.39 150.718 396.39C150.223 397.874 148.736 406.28 152.7 406.528C156.417 406.775 175.991 406.528 178.221 406.528C178.221 406.528 178.469 406.528 178.469 406.28C178.717 406.033 178.717 404.55 177.23 404.055C177.23 404.055 166.824 399.852 161.868 396.637C157.656 393.423 151.709 395.896 150.718 396.39Z" fill="#160956"/>
<path d="M108.595 266.088L111.073 397.38L122.718 397.133L131.886 313.561L130.647 290.566L123.957 265.841L108.595 266.088Z" fill="#EE384E"/>
<path d="M120.739 266.088C120.739 266.088 131.641 321.968 134.862 328.396L150.224 396.391H161.622L154.189 265.841L120.739 266.088Z" fill="#DE051F"/>
<path d="M141.797 170.896C141.797 170.896 147.744 175.594 147.744 183.753C148.24 192.16 146.753 192.407 143.284 192.407C139.815 192.407 137.09 191.912 136.842 193.89C136.346 195.621 137.09 202.792 137.585 204.77C138.576 206.748 123.958 204.77 123.958 204.77C123.958 204.77 127.674 193.89 128.418 189.193C129.161 184.495 128.418 179.055 131.143 174.605C133.869 169.659 137.09 165.951 141.797 170.896Z" fill="#FDBC99"/>
<path d="M138.826 206.995L150.472 200.566L156.666 213.424L143.782 224.303L138.826 206.995Z" fill="#003EAE"/>
<path d="M120.737 205.759C120.737 205.759 113.552 213.672 111.322 232.957C108.844 252.243 108.597 266.089 108.597 266.089H154.683C154.683 266.089 151.214 238.644 147.993 224.551C145.019 210.457 139.321 204.523 139.321 204.523C139.321 204.523 138.329 202.545 136.347 203.781C134.365 205.018 130.153 205.512 126.436 203.534C122.967 202.051 121.976 204.276 120.737 205.759Z" fill="#0064DF"/>
<path d="M130.4 177.325C130.4 177.325 128.17 176.583 126.931 178.067C125.692 179.303 127.179 182.023 129.161 182.765C131.143 183.754 130.4 177.325 130.4 177.325Z" fill="#FDBC99"/>
<path d="M137.337 229.989C137.337 229.989 142.293 266.088 145.266 276.226C147.744 286.116 151.956 295.512 151.956 295.512C151.956 295.512 153.938 299.962 151.956 301.94C149.974 303.918 145.762 305.402 144.77 302.682C144.027 299.715 144.027 292.792 142.788 291.308C141.549 289.825 131.886 266.583 128.665 252.737C125.444 239.138 124.701 232.956 124.701 232.956L137.337 229.989Z" fill="#FDBC99"/>
<path d="M138.581 231.719C138.581 231.719 135.608 211.691 127.183 211.691C127.183 211.691 122.476 211.691 122.476 219.109C122.476 226.527 123.219 234.686 123.219 234.686L138.581 231.719Z" fill="#003EAE"/>
<path d="M326.989 255.391H320.207L312.627 254.791C312.627 254.791 311.829 259.385 316.018 259.984C320.407 260.583 326.79 261.382 327.787 261.182C329.183 260.783 326.989 255.391 326.989 255.391Z" fill="#EEBD9B"/>
<path d="M331.776 222.435C331.776 222.435 324.795 229.625 323.797 233.42C322.8 237.215 324.994 243.007 325.792 244.604C326.391 246.202 325.991 267.573 325.991 267.573H353.917V222.235L331.776 222.435Z" fill="#0064E1"/>
<path d="M315.419 201.065C315.419 201.065 316.017 206.458 317.214 210.053V212.849C317.214 213.248 317.414 213.448 317.812 213.448L319.608 213.248V215.445C319.608 215.645 319.807 216.045 320.007 216.045H321.403C321.603 216.045 321.801 216.244 321.801 216.644L321.602 217.643C321.602 217.842 321.603 218.242 322.001 218.242C322.999 218.441 325.192 218.641 327.786 216.844C330.579 214.846 332.174 216.045 332.174 217.643C332.174 219.44 330.778 224.632 332.972 225.631C334.967 226.63 340.751 226.03 341.948 225.032C343.344 223.634 341.948 220.239 339.953 218.441C338.557 217.043 336.563 201.664 333.371 200.066C330.179 198.469 315.419 201.065 315.419 201.065Z" fill="#EDBB98"/>
<path d="M347.535 244.205L347.734 253.792C347.734 254.591 347.136 255.19 346.338 255.19C345.54 255.19 344.743 255.19 342.747 254.391C338.36 252.594 327.787 246.802 326.391 246.003C326.391 246.003 326.192 246.003 326.192 245.803C325.992 245.203 324.596 243.406 321.405 243.406C317.615 243.606 316.618 244.405 317.016 245.803C317.216 247.001 317.615 246.802 317.615 246.802L317.216 247.401C317.216 247.401 317.615 248.599 319.41 248.599C321.006 248.599 323 247.801 323.598 248.4C323.998 248.799 340.753 259.984 344.543 262.58C345.141 262.979 345.74 263.179 346.338 263.379C348.732 263.978 354.716 264.777 355.514 260.583C356.711 255.589 356.711 244.005 356.711 244.005L347.535 244.205Z" fill="#EEBD9B"/>
<path d="M347.534 227.428C347.135 227.229 346.537 227.428 346.537 228.027V245.204C346.537 245.604 346.737 246.003 347.335 246.003C347.933 246.003 348.93 246.003 350.925 246.003C353.917 246.003 356.51 246.003 357.708 246.003C358.106 246.003 358.306 245.803 358.306 245.404L358.106 233.42C358.106 233.221 357.906 233.021 357.708 232.821L347.534 227.428Z" fill="#0054A3"/>
<path d="M367.682 235.018C368.879 229.625 359.703 222.236 359.703 222.236C359.703 222.236 355.116 220.438 354.318 215.045C353.52 209.653 348.334 208.056 346.139 206.058C343.745 204.06 342.349 199.667 342.349 199.667L342.15 198.469C342.15 198.469 338.56 181.891 325.594 185.886C325.594 185.886 319.61 188.083 317.216 192.676C317.216 192.676 308.64 194.074 310.434 200.665C312.229 207.256 316.219 203.262 316.219 203.262C316.219 203.262 318.014 199.667 319.809 202.263C321.605 204.66 325.993 206.257 327.389 204.06C328.785 201.864 331.378 200.066 332.176 203.661V205.458C332.176 205.458 338.759 213.448 339.358 216.443C339.956 219.44 341.751 223.434 344.943 225.232C347.934 227.029 351.525 234.419 352.921 238.413C354.118 242.208 365.887 242.807 367.682 235.018Z" fill="#1B1553"/>
<path d="M301.856 235.218L284.901 235.617L305.846 258.985L323.399 258.386L301.856 235.218Z" fill="#18114F"/>
<path d="M300.862 252.394C300.862 252.394 299.066 255.589 300.662 256.588C302.258 257.387 303.853 257.786 304.452 256.987C305.051 256.188 305.649 253.592 304.651 253.792C303.853 253.792 303.455 253.992 303.455 253.992V253.193C303.455 252.993 303.455 252.793 303.255 252.593C302.457 251.994 301.26 251.395 300.862 252.394Z" fill="#EEBD9B"/>
<path d="M330.978 267.573L325.991 267.374L325.792 400.989H336.563L342.347 313.71L330.978 267.573Z" fill="#DE051F"/>
<path d="M353.918 267.573C353.918 267.573 354.116 272.167 354.316 273.965C354.516 274.963 360.899 285.549 355.912 298.331C355.912 298.531 355.712 298.73 355.712 299.13C355.513 301.926 354.914 319.302 358.505 328.489L377.454 389.805L370.274 394.998C370.274 394.998 345.54 341.671 344.742 339.274C344.143 336.878 328.186 284.55 330.18 269.97L330.58 267.374L353.918 267.573Z" fill="#EE384E"/>
<path d="M325.793 400.989C325.793 400.989 319.411 404.584 316.419 405.384C314.224 405.983 313.626 407.78 313.626 408.38C313.626 408.579 313.626 408.779 314.025 408.779H336.564V400.989H325.793Z" fill="#201B56"/>
<path d="M370.274 394.998C370.274 394.998 368.279 400.391 364.29 403.587C360.3 406.782 364.29 408.779 364.29 408.779L380.845 398.393C381.045 397.994 381.843 396.196 380.845 394.599C379.848 392.602 377.056 389.806 377.056 389.806L370.274 394.998Z" fill="#201B56"/>
<path d="M189.596 68.5158L181.129 70.8969L178.862 62.4427L187.211 60.0615L189.596 68.5158Z" fill="#003EB0"/>
</g>
<defs>
<clipPath id="clip0_3809_3551">
<rect width="450" height="450" fill="white"/>
</clipPath>
</defs>
</svg>
